<?xml version="1.0" standalone="no"?>
<!DOCTYPE svg PUBLIC "-//W3C//DTD SVG 1.1//EN" "http://www.w3.org/Graphics/SVG/1.1/DTD/svg11.dtd" >
<svg xmlns="http://www.w3.org/2000/svg" xmlns:xlink="http://www.w3.org/1999/xlink" version="1.1">
<metadata>
Created by FontForge 20170731 at Sun Aug  6 18:04:27 2023
 By Aleksey,,,
Copyright (c) 2021 by Connary Fagen. All rights reserved.
</metadata>
<defs>
<font id="ArticulatCF-LightOblique" horiz-adv-x="1126" >
  <font-face 
    font-family="Articulat CF Light"
    font-weight="300"
    font-style="oblique"
    font-stretch="normal"
    units-per-em="2048"
    panose-1="0 0 0 0 0 0 0 0 0 0"
    ascent="1638"
    descent="-410"
    x-height="1065"
    cap-height="1434"
    bbox="-416 -483 2281 2187"
    underline-thickness="102"
    underline-position="-358"
    slope="-9"
    unicode-range="U+0020-A78C"
  />
<missing-glyph horiz-adv-x="1495" 
d="M39 0l225 1434h1249l-225 -1434h-1249zM162 106h1036l193 1221h-1037zM250 184l469 539l-295 526h119l245 -446l386 446h118l-463 -526l301 -539h-118l-250 461l-393 -461h-119z" />
    <glyph glyph-name=".notdef" horiz-adv-x="1495" 
d="M39 0l225 1434h1249l-225 -1434h-1249zM162 106h1036l193 1221h-1037zM250 184l469 539l-295 526h119l245 -446l386 446h118l-463 -526l301 -539h-118l-250 461l-393 -461h-119z" />
    <glyph glyph-name=".null" horiz-adv-x="0" 
 />
    <glyph glyph-name="nonmarkingreturn" horiz-adv-x="682" 
 />
    <glyph glyph-name="space" unicode=" " horiz-adv-x="471" 
 />
    <glyph glyph-name="exclam" unicode="!" horiz-adv-x="434" 
d="M139 375l158 1059h125l-178 -1059h-105zM49 74q0 39 27.5 66.5t66.5 27.5q40 0 68.5 -27.5t28.5 -66.5q0 -38 -28.5 -66t-68.5 -28q-38 0 -66 28t-28 66z" />
    <glyph glyph-name="quotedbl" unicode="&#x22;" horiz-adv-x="518" 
d="M391 965l74 469h115l-74 -469h-115zM152 965l73 469h115l-74 -469h-114z" />
    <glyph glyph-name="numbersign" unicode="#" horiz-adv-x="1220" 
d="M629 0l104 403h-350l-104 -403h-86l104 403h-217l14 86h225l117 455h-219l14 86h228l104 404h86l-104 -404h350l104 404h86l-104 -404h217l-12 -86h-228l-116 -455h219l-14 -86h-228l-104 -403h-86zM406 489h350l116 455h-350z" />
    <glyph glyph-name="dollar" unicode="$" horiz-adv-x="1189" 
d="M442 -184l27 166q-217 13 -321.5 129t-77.5 288h120q-13 -128 61 -212.5t234 -96.5l97 606l-58 13q-159 37 -236 118.5t-77 214.5q0 184 134.5 294.5t354.5 115.5l27 166h72l-27 -168q192 -13 289 -112t74 -248h-117q8 101 -58 170.5t-204 80.5l-88 -553l75 -16
q163 -37 247.5 -114t84.5 -228q0 -203 -148 -324t-386 -126l-27 -164h-72zM336 1049q0 -96 58 -154.5t186 -85.5l18 -4l86 538q-163 -4 -255.5 -83.5t-92.5 -210.5zM557 88q183 4 287 94t104 238q0 60 -18 104t-55 72.5t-80.5 45.5t-106.5 30l-37 8z" />
    <glyph glyph-name="percent" unicode="%" horiz-adv-x="1470" 
d="M158 262l-41 78l1253 825l43 -78zM182 1077q0 149 89.5 259t230.5 110q105 0 167 -64.5t62 -183.5q0 -149 -89.5 -259t-231.5 -110q-104 0 -166 64.5t-62 183.5zM279 1085q0 -163 145 -163q69 0 118.5 41t71 100t21.5 127q0 164 -146 164q-101 0 -155.5 -80.5
t-54.5 -188.5zM797 229q0 96 38.5 179t113 135.5t169.5 52.5q104 0 166 -63.5t62 -182.5q0 -149 -89.5 -258.5t-230.5 -109.5q-105 0 -167 64t-62 183zM893 236q0 -83 38 -123.5t107 -40.5q101 0 156 81t55 189q0 83 -38 123.5t-105 40.5q-102 0 -157.5 -81t-55.5 -189z" />
    <glyph glyph-name="ampersand" unicode="&#x26;" horiz-adv-x="1363" 
d="M496 -20q-197 0 -313.5 99t-116.5 265q0 159 110 275t305 206q-37 50 -60.5 88.5t-45 99t-21.5 117.5q0 134 94 228t263 94q137 0 213.5 -65.5t76.5 -182.5q0 -247 -364 -409l340 -463q110 154 149 403h111q-46 -299 -197 -491l181 -244h-140l-116 162
q-193 -182 -469 -182zM193 358q0 -125 88 -199.5t239 -74.5q225 0 385 160l-368 506q-344 -153 -344 -392zM465 1139q0 -70 31.5 -133t85.5 -136l4 2q307 132 307 320q0 81 -51.5 123.5t-139.5 42.5q-108 0 -172.5 -60t-64.5 -159z" />
    <glyph glyph-name="quotesingle" unicode="'" horiz-adv-x="278" 
d="M152 965l73 469h115l-74 -469h-114z" />
    <glyph glyph-name="parenleft" unicode="(" horiz-adv-x="512" 
d="M182 -266q-154 387 -69 921q80 510 354 871h111q-267 -376 -345 -871q-83 -522 60 -921h-111z" />
    <glyph glyph-name="parenright" unicode=")" horiz-adv-x="509" 
d="M360 1526q155 -389 70 -922q-80 -509 -354 -870h-111q266 374 344 870q84 524 -59 922h110z" />
    <glyph glyph-name="asterisk" unicode="*" horiz-adv-x="956" 
d="M348 770l-65 53l204 236l60 -49zM227 1143l39 86l254 -78l-37 -80zM537 1159l38 275h91l-45 -275h-84zM563 1010l72 49l133 -236l-84 -53zM633 1151l278 78l11 -86l-279 -72z" />
    <glyph glyph-name="plus" unicode="+" horiz-adv-x="1071" 
d="M418 162l57 360h-354l16 111h357l57 358h115l-58 -358h359l-17 -111h-358l-57 -360h-117z" />
    <glyph glyph-name="comma" unicode="," horiz-adv-x="389" 
d="M-8 -133q122 6 131 113q-47 0 -76 24.5t-29 65.5q0 42 28.5 70t72.5 28q43 0 70.5 -32.5t27.5 -94.5q0 -94 -58 -167t-165 -73h-12z" />
    <glyph glyph-name="hyphen" unicode="-" horiz-adv-x="706" 
d="M80 526l16 99h543l-16 -99h-543z" />
    <glyph glyph-name="period" unicode="." horiz-adv-x="372" 
d="M113 -20q-38 0 -66.5 28t-28.5 66q0 39 28 66.5t67 27.5q40 0 68 -27t28 -67q0 -38 -28 -66t-68 -28z" />
    <glyph glyph-name="slash" unicode="/" horiz-adv-x="796" 
d="M-23 0l777 1434h125l-777 -1434h-125z" />
    <glyph glyph-name="zero" unicode="0" horiz-adv-x="1273" 
d="M549 -20q-208 0 -325.5 142.5t-117.5 414.5q0 136 28 267.5t85 248.5t136.5 206t189 141t235.5 52q208 0 326.5 -143.5t118.5 -415.5q0 -135 -28 -266t-85.5 -248t-136.5 -206t-189.5 -141t-236.5 -52zM223 545q0 -225 88.5 -343t253.5 -118q104 0 193.5 48t152.5 128.5
t108.5 185t67 217.5t21.5 226q0 223 -89 341t-253 118q-104 0 -193.5 -48t-152.5 -128.5t-108.5 -184.5t-67 -217t-21.5 -225z" />
    <glyph glyph-name="one" unicode="1" horiz-adv-x="620" 
d="M453 1257q-44 -44 -115 -78.5t-152 -37.5l17 102q92 7 169.5 63t108.5 128h121l-227 -1434h-121z" />
    <glyph glyph-name="two" unicode="2" horiz-adv-x="1093" 
d="M6 55q29 186 142 314t360 264q56 32 78.5 44.5t70 41t67.5 42.5t57 40.5t54 44.5t41.5 45.5t36.5 51.5t23 54t16 62q20 131 -58 210t-220 79q-147 0 -252 -88t-129 -248l-4 -29h-119l6 37q34 196 169.5 314t342.5 118q203 0 307 -112t76 -285q-8 -49 -26 -93.5
t-40.5 -80.5t-58.5 -72.5t-69 -63.5t-84 -60t-91.5 -56.5t-101.5 -57.5q-103 -57 -174.5 -104t-134 -102t-97 -115t-42.5 -127l-2 -19h784l-16 -104h-920z" />
    <glyph glyph-name="three" unicode="3" horiz-adv-x="1163" 
d="M489 -20q-232 0 -343 129.5t-78 339.5h112q-25 -166 62 -264.5t264 -98.5q185 0 312.5 105.5t127.5 263.5q0 131 -93.5 200.5t-266.5 69.5h-56l15 98h49q169 0 273 82t104 215q0 108 -70.5 167t-200.5 59q-151 0 -254.5 -84t-128.5 -261h-114q33 224 168.5 337.5
t341.5 113.5q183 0 281 -82.5t98 -220.5q0 -129 -82 -229t-217 -138q119 -22 196.5 -103t77.5 -218t-78 -248t-210 -172t-290 -61z" />
    <glyph glyph-name="four" unicode="4" 
d="M676 0l63 395h-680l17 101l827 938h121l-147 -938h163l-16 -101h-164l-63 -395h-121zM190 496h566l123 780z" />
    <glyph glyph-name="five" unicode="5" horiz-adv-x="1153" 
d="M500 -20q-222 0 -332.5 125t-83.5 321h111q-19 -153 68.5 -248.5t254.5 -95.5q133 0 236 66.5t155 171.5t52 229q0 154 -85.5 237.5t-232.5 83.5q-104 0 -195.5 -43t-158.5 -125h-125l233 732h711l-16 -99h-623l-172 -528q66 72 166.5 116t216.5 44q181 0 290 -105.5
t109 -302.5q0 -161 -71.5 -292.5t-204.5 -209t-303 -77.5z" />
    <glyph glyph-name="six" unicode="6" horiz-adv-x="1179" 
d="M522 -20q-198 0 -305.5 122.5t-107.5 364.5q0 102 18 225q18 119 47.5 222.5t81.5 204.5t119.5 173t166.5 116t218 44q180 0 275 -87t95 -212q0 -25 -4 -49h-106q7 104 -63 176t-212 72q-399 0 -501 -641q72 123 192 185t256 62q182 0 287.5 -106t105.5 -295
q0 -158 -71 -289.5t-201 -209.5t-291 -78zM225 410q0 -150 83.5 -239t230.5 -89q95 0 176.5 39t136.5 103.5t86 148.5t31 174q0 148 -82.5 229.5t-229.5 81.5q-127 0 -227 -61.5t-152.5 -163.5t-52.5 -223z" />
    <glyph glyph-name="seven" unicode="7" horiz-adv-x="978" 
d="M184 0q167 636 727 1331h-723l17 103h846l-19 -103q-567 -708 -727 -1331h-121z" />
    <glyph glyph-name="eight" unicode="8" horiz-adv-x="1155" 
d="M492 -20q-198 0 -317.5 94.5t-119.5 267.5q0 157 98 277.5t265 171.5q-73 29 -117.5 99t-44.5 167q0 165 125.5 280t333.5 115q174 0 268 -83.5t94 -221.5q0 -126 -74.5 -220.5t-185.5 -135.5q111 -38 175.5 -122.5t64.5 -209.5q0 -208 -161 -343.5t-404 -135.5zM174 360
q0 -133 90.5 -204.5t241.5 -71.5q185 0 309.5 105.5t124.5 265.5q0 133 -89.5 206.5t-242.5 73.5q-187 0 -310.5 -107.5t-123.5 -267.5zM369 1059q0 -103 67 -161t191 -58q153 0 245.5 83.5t92.5 206.5q0 102 -67.5 161t-190.5 59q-154 0 -246 -83.5t-92 -207.5z" />
    <glyph glyph-name="nine" unicode="9" horiz-adv-x="1179" 
d="M717 1450q198 0 305.5 -122.5t107.5 -364.5q0 -103 -18 -226q-18 -119 -47.5 -222.5t-81.5 -204.5t-119.5 -173t-166.5 -116t-218 -44q-180 0 -275 87t-95 212q0 26 4 50h106q-7 -104 63 -176t212 -72q399 0 501 641q-72 -123 -192.5 -185.5t-255.5 -62.5
q-182 0 -287.5 106t-105.5 295q0 158 71 289.5t201 210t291 78.5zM270 883q0 -149 82.5 -230.5t229.5 -81.5q127 0 227 62t152.5 164t52.5 223q0 150 -83.5 239t-230.5 89q-95 0 -176.5 -39t-136.5 -103.5t-86 -148.5t-31 -174z" />
    <glyph glyph-name="colon" unicode=":" horiz-adv-x="374" 
d="M113 -20q-38 0 -66.5 28t-28.5 66q0 39 28 66.5t67 27.5q40 0 68 -27t28 -67q0 -38 -28 -66t-68 -28zM162 971q0 39 27.5 66.5t66.5 27.5q40 0 68 -27t28 -67q0 -38 -28 -66t-68 -28q-38 0 -66 28t-28 66z" />
    <glyph glyph-name="semicolon" unicode=";" horiz-adv-x="389" 
d="M256 877q-38 0 -66 28t-28 66q0 39 27.5 66.5t66.5 27.5q40 0 68 -27t28 -67q0 -38 -28 -66t-68 -28zM-18 -199l10 66q122 6 131 113q-47 0 -76 24.5t-29 65.5q0 42 28.5 70t72.5 28q43 0 70.5 -32.5t27.5 -94.5q0 -94 -58 -167t-165 -73h-12z" />
    <glyph glyph-name="less" unicode="&#x3c;" horiz-adv-x="1038" 
d="M862 0l-786 430l20 123l922 432l-19 -123l-804 -375l686 -366z" />
    <glyph glyph-name="equal" unicode="=" horiz-adv-x="833" 
d="M94 362l17 99h587l-18 -99h-586zM147 690l17 98h588l-19 -98h-586z" />
    <glyph glyph-name="greater" unicode="&#x3e;" horiz-adv-x="1038" 
d="M164 985l786 -430l-20 -123l-922 -432l19 123l804 375l-686 366z" />
    <glyph glyph-name="question" unicode="?" horiz-adv-x="1046" 
d="M455 475q11 70 40.5 126.5t68 93.5t82.5 69t88 62t82 62.5t65.5 79.5t36.5 105q22 128 -51.5 197t-209.5 69q-146 0 -246 -85.5t-122 -252.5h-121q26 212 161 329.5t339 117.5q191 0 295 -100t75 -277q-10 -68 -38.5 -123t-66 -91.5t-81.5 -67.5t-87.5 -61t-81 -63
t-65.5 -81.5t-38 -108.5l-15 -96h-127zM367 74q0 39 27.5 66.5t66.5 27.5q40 0 68 -27t28 -67q0 -38 -28 -66t-68 -28q-38 0 -66 28t-28 66z" />
    <glyph glyph-name="at" unicode="@" horiz-adv-x="1636" 
d="M791 -20q-199 0 -351 73.5t-238.5 218t-86.5 342.5q0 138 42 266t119 231t181 180t234.5 119t271.5 42q282 0 453 -161.5t171 -434.5q0 -132 -37.5 -249t-115 -195t-179.5 -78q-88 0 -139 54.5t-49 143.5q-44 -91 -126.5 -144.5t-174.5 -53.5q-113 0 -190.5 81.5
t-77.5 231.5q0 178 105.5 301t262.5 123q101 0 171.5 -52t76.5 -138l33 168h72l-70 -443q-13 -80 14 -139t97 -59q77 0 134.5 71.5t84 170.5t26.5 204q0 241 -150 378.5t-399 137.5q-163 0 -305 -60t-240.5 -162t-155 -239t-56.5 -288q0 -179 78.5 -307t213.5 -190.5
t314 -62.5q129 0 211 25l-8 -80q-77 -26 -217 -26zM582 649q0 -116 55.5 -177.5t144.5 -61.5q83 0 152.5 53.5t107 136t37.5 170.5q0 109 -59 166t-150 57q-129 0 -208.5 -100t-79.5 -244z" />
    <glyph glyph-name="A" unicode="A" horiz-adv-x="1361" 
d="M-35 0l785 1434h149l330 -1434h-131l-86 387h-703l-209 -387h-135zM362 485h627l-180 807h-8z" />
    <glyph glyph-name="B" unicode="B" horiz-adv-x="1218" 
d="M37 0l227 1434h518q185 0 276 -80t91 -217q0 -125 -72.5 -221t-202.5 -134q122 -29 188 -109.5t66 -215.5q0 -212 -156 -334.5t-411 -122.5h-524zM180 111h385q196 0 315 95t119 257q0 256 -331 256h-392zM295 829h379q160 0 252 80.5t92 214.5q0 101 -62 151t-196 50
h-387z" />
    <glyph glyph-name="C" unicode="C" horiz-adv-x="1339" 
d="M662 -20q-123 0 -223 36t-174 108t-114 186.5t-40 264.5q0 173 52 330.5t146 279.5t239.5 194.5t319.5 72.5q216 0 348.5 -108t141.5 -304h-119q-17 146 -117 223.5t-262 77.5q-146 0 -266.5 -64.5t-197.5 -171.5t-118.5 -241t-41.5 -278q0 -246 119 -371t319 -125
q161 0 278 79t181 224h122q-70 -203 -226.5 -308t-366.5 -105z" />
    <glyph glyph-name="D" unicode="D" horiz-adv-x="1329" 
d="M37 0l227 1434h434q291 0 433.5 -143t142.5 -439q0 -181 -52.5 -336t-151.5 -270t-251 -180.5t-340 -65.5h-442zM180 113h301q132 0 242 37.5t188.5 104t133 159t80.5 202.5t26 234q0 250 -113 360.5t-354 110.5h-313z" />
    <glyph glyph-name="E" unicode="E" horiz-adv-x="1101" 
d="M37 0l227 1434h891l-18 -113h-766l-82 -528h702l-16 -107h-703l-92 -573h785l-17 -113h-911z" />
    <glyph glyph-name="F" unicode="F" horiz-adv-x="1083" 
d="M37 0l227 1434h901l-20 -113h-774l-86 -549h635l-19 -108h-633l-106 -664h-125z" />
    <glyph glyph-name="G" unicode="G" horiz-adv-x="1417" 
d="M666 -20q-260 0 -406.5 150.5t-146.5 449.5q0 139 32 268t96.5 239t154.5 191.5t213 127.5t265 46q209 0 332 -94t142 -266h-119q-25 120 -115 184.5t-244 64.5q-121 0 -224.5 -41t-178 -112.5t-127 -167.5t-78.5 -206t-26 -228q0 -248 115.5 -372t322.5 -124
q217 0 357 134t179 394l-387 -6l17 107h508l-15 -84q-51 -323 -222 -489t-445 -166z" />
    <glyph glyph-name="H" unicode="H" horiz-adv-x="1306" 
d="M975 0l102 645h-813l-102 -645h-125l227 1434h125l-108 -682h813l108 682h125l-227 -1434h-125z" />
    <glyph glyph-name="I" unicode="I" horiz-adv-x="368" 
d="M37 0l227 1434h125l-227 -1434h-125z" />
    <glyph glyph-name="J" unicode="J" horiz-adv-x="1316" 
d="M588 -20q-253 0 -380 149t-85 412h127q-35 -212 59.5 -330.5t290.5 -118.5q192 0 315 118t158 337l141 887h125l-141 -893q-43 -266 -202.5 -413.5t-407.5 -147.5z" />
    <glyph glyph-name="K" unicode="K" horiz-adv-x="1257" 
d="M37 0l227 1434h125l-131 -834l889 834h153l-712 -668l536 -766h-147l-481 680l-267 -250l-67 -430h-125z" />
    <glyph glyph-name="L" unicode="L" horiz-adv-x="1075" 
d="M37 0l227 1434h125l-209 -1321h758l-18 -113h-883z" />
    <glyph glyph-name="M" unicode="M" horiz-adv-x="1683" 
d="M37 0l227 1434h146l372 -1278l770 1278h152l-227 -1434h-125l188 1190h-4l-717 -1190h-114l-351 1190h-4l-188 -1190h-125z" />
    <glyph glyph-name="N" unicode="N" horiz-adv-x="1331" 
d="M37 0l227 1434h148l612 -1248h6l197 1248h125l-228 -1434h-149l-610 1245h-5l-198 -1245h-125z" />
    <glyph glyph-name="O" unicode="O" horiz-adv-x="1458" 
d="M653 -20q-247 0 -394.5 150t-147.5 441q0 138 33 268t97.5 241t154 194t210.5 130.5t258 47.5q247 0 395 -151t148 -443q0 -136 -33 -265.5t-98 -240t-154.5 -194t-210.5 -131t-258 -47.5zM236 575q0 -244 113.5 -364.5t309.5 -120.5q145 0 265.5 66t197 174.5
t118.5 244.5t42 281q0 244 -114.5 364.5t-309.5 120.5q-117 0 -219 -43t-174.5 -117t-125 -171.5t-78 -208.5t-25.5 -226z" />
    <glyph glyph-name="P" unicode="P" horiz-adv-x="1187" 
d="M37 0l227 1434h502q213 0 321.5 -92.5t108.5 -274.5q0 -226 -154.5 -359t-412.5 -133h-375l-92 -575h-125zM272 688h371q198 0 311 98.5t113 266.5q0 268 -326 268h-370z" />
    <glyph glyph-name="Q" unicode="Q" horiz-adv-x="1460" 
d="M1206 -23l-123 148q-189 -145 -430 -145q-247 0 -394.5 150t-147.5 441q0 138 33 268t97.5 241t154 194t210.5 130.5t258 47.5q247 0 395 -151t148 -443q0 -188 -62.5 -359.5t-177.5 -295.5l125 -152zM236 575q0 -244 113.5 -364.5t309.5 -120.5q201 0 353 123l-242 291
l86 74l236 -285q92 108 141 256.5t49 306.5q0 244 -114.5 364.5t-309.5 120.5q-117 0 -219 -43t-174.5 -117t-125 -171.5t-78 -208.5t-25.5 -226z" />
    <glyph glyph-name="R" unicode="R" horiz-adv-x="1198" 
d="M918 0l-254 575h-35h-375l-92 -575h-125l227 1434h502q213 0 321.5 -92.5t108.5 -274.5q0 -189 -111 -314.5t-303 -162.5l262 -590h-126zM272 688h371q198 0 311 98.5t113 266.5q0 268 -326 268h-370z" />
    <glyph glyph-name="S" unicode="S" horiz-adv-x="1228" 
d="M541 -20q-253 0 -377 118t-94 301h125q-14 -138 75.5 -224.5t284.5 -86.5q199 0 313.5 90t114.5 242q0 60 -19 104t-57 72.5t-83.5 45.5t-110.5 30l-170 37q-166 37 -247 118.5t-81 214.5q0 187 145.5 298.5t380.5 111.5q226 0 344 -100.5t93 -261.5h-123
q10 110 -72.5 181.5t-253.5 71.5q-179 0 -281 -79t-102 -215q0 -96 60.5 -154.5t193.5 -85.5l170 -37q82 -18 141.5 -42.5t107.5 -64t72.5 -98.5t24.5 -137q0 -206 -159.5 -328t-415.5 -122z" />
    <glyph glyph-name="T" unicode="T" horiz-adv-x="1173" 
d="M440 0l209 1321h-465l19 113h1054l-20 -113h-463l-209 -1321h-125z" />
    <glyph glyph-name="U" unicode="U" horiz-adv-x="1318" 
d="M580 -20q-252 0 -375 148.5t-82 412.5l141 893h127l-141 -887q-35 -218 58 -336.5t290 -118.5q195 0 318 117.5t157 337.5l141 887h127l-141 -893q-43 -265 -206 -413t-414 -148z" />
    <glyph glyph-name="V" unicode="V" horiz-adv-x="1382" 
d="M532 0l-329 1434h131l289 -1293h8l700 1293h135l-784 -1434h-150z" />
    <glyph glyph-name="W" unicode="W" horiz-adv-x="1957" 
d="M365 0l-162 1434h129l131 -1260h6l584 1260h137l184 -1260h8l529 1260h131l-612 -1434h-142l-192 1274l-592 -1274h-139z" />
    <glyph glyph-name="X" unicode="X" horiz-adv-x="1300" 
d="M-35 0l647 741l-385 693h142l329 -592l516 592h146l-606 -695l411 -739h-141l-356 641l-557 -641h-146z" />
    <glyph glyph-name="Y" unicode="Y" horiz-adv-x="1300" 
d="M504 0l90 571l-391 863h141l332 -740l563 740h145l-665 -863l-90 -571h-125z" />
    <glyph glyph-name="Z" unicode="Z" horiz-adv-x="1243" 
d="M-2 0l16 113l1116 1208h-882l18 113h1030l-22 -113l-1114 -1208h934l-17 -113h-1079z" />
    <glyph glyph-name="bracketleft" unicode="[" horiz-adv-x="544" 
d="M-6 -266l285 1792h303l-17 -107h-182l-252 -1579h182l-16 -106h-303z" />
    <glyph glyph-name="backslash" unicode="\" horiz-adv-x="796" 
d="M537 0l-332 1434h114l332 -1434h-114z" />
    <glyph glyph-name="bracketright" unicode="]" horiz-adv-x="544" 
d="M582 1526l-285 -1792h-303l16 106h183l251 1579h-182l17 107h303z" />
    <glyph glyph-name="asciicircum" unicode="^" horiz-adv-x="968" 
d="M158 952l426 482h88l270 -482h-102l-222 396l-350 -396h-110z" />
    <glyph glyph-name="underscore" unicode="_" horiz-adv-x="1208" 
d="M-8 -109l16 109h1024l-16 -109h-1024z" />
    <glyph glyph-name="grave" unicode="`" horiz-adv-x="319" 
d="M315 1192l-168 264h109l168 -264h-109z" />
    <glyph glyph-name="a" unicode="a" horiz-adv-x="1077" 
d="M332 -20q-144 0 -224.5 62.5t-80.5 186.5q0 140 101.5 226.5t281.5 107.5l278 33q93 11 129 29t43 59l6 43q25 143 -37 203.5t-215 60.5q-148 0 -227 -53t-98 -166l-4 -24h-117l6 32q45 305 459 305q209 0 296.5 -85t57.5 -273l-115 -727h-116l30 193h-6
q-18 -27 -52.5 -59.5t-89.5 -69t-136 -60.5t-170 -24zM147 244q0 -164 218 -164q76 0 146.5 20t121.5 51.5t91 70.5t61.5 77t25.5 70l29 188q-16 -41 -176 -59l-238 -27q-132 -15 -205.5 -72.5t-73.5 -154.5z" />
    <glyph glyph-name="b" unicode="b" horiz-adv-x="1191" 
d="M555 -20q-125 0 -224.5 52.5t-142.5 153.5l-30 -186h-121l227 1434h121l-88 -557q76 102 188.5 155t237.5 53q181 0 294 -110t113 -328q0 -180 -70.5 -331.5t-203.5 -243.5t-301 -92zM227 430q0 -170 93 -259t237 -89q133 0 239.5 78t162 201t55.5 264q0 177 -91 267.5
t-233 90.5q-101 0 -188.5 -45.5t-147 -121.5t-93.5 -176.5t-34 -209.5z" />
    <glyph glyph-name="c" unicode="c" horiz-adv-x="1081" 
d="M496 -20q-196 0 -314.5 114t-118.5 338q0 130 42 248t117.5 208t189 143.5t247.5 53.5q62 0 116.5 -11t106 -37.5t88 -67t58.5 -104.5t21 -146h-109q-2 71 -26.5 123t-66.5 81.5t-91.5 43.5t-108.5 14q-141 0 -249 -77t-163 -199t-55 -265q0 -179 88 -267.5t240 -88.5
q123 0 224 63t147 205h112q-24 -84 -65.5 -149.5t-90.5 -106.5t-108 -68t-115 -37.5t-116 -10.5z" />
    <glyph glyph-name="d" unicode="d" horiz-adv-x="1191" 
d="M469 -20q-85 0 -158 26.5t-129.5 78.5t-88.5 137.5t-32 195.5q0 131 41 252t114.5 213t183 147t237.5 55t226.5 -53t142.5 -155l88 557h120l-227 -1434h-121l29 186q-77 -102 -189.5 -154t-236.5 -52zM180 440q0 -177 90 -267.5t232 -90.5q135 0 242.5 77.5t164 201.5
t56.5 266q0 175 -93.5 265.5t-236.5 90.5q-133 0 -239 -78t-161 -201t-55 -264z" />
    <glyph glyph-name="e" unicode="e" horiz-adv-x="1091" 
d="M487 -20q-201 0 -313.5 109.5t-112.5 330.5q0 131 39.5 250.5t111.5 212t183.5 147.5t245.5 55q184 0 289.5 -100.5t105.5 -288.5q0 -133 -26 -200h-828q-2 -23 -2 -68q0 -181 81 -265.5t241 -84.5q249 0 354 207h111q-137 -305 -480 -305zM197 588h716q36 191 -43.5 295
t-242.5 104q-89 0 -163.5 -31.5t-127 -87t-87.5 -126t-52 -154.5z" />
    <glyph glyph-name="f" unicode="f" horiz-adv-x="600" 
d="M305 1227q38 239 291 239h100l-16 -98h-68q-89 0 -132 -36t-56 -128l-23 -139h226l-17 -100h-225l-152 -965h-120l151 965h-145l14 100h148z" />
    <glyph glyph-name="g" unicode="g" horiz-adv-x="1183" 
d="M463 20q-83 0 -154 25t-127 74t-87.5 130.5t-31.5 186.5q0 175 68.5 322t199 237t296.5 90q127 0 226.5 -51.5t141.5 -152.5l31 184h121l-148 -938l-20 -117q-16 -99 -58.5 -177t-97.5 -126t-126 -79.5t-140 -43.5t-143 -12q-90 0 -166.5 19t-136.5 56.5t-89 101
t-16 145.5h107q-12 -102 73.5 -163t237.5 -61q81 0 150.5 18.5t129 58t99.5 106.5t55 157l21 117l14 98q-75 -100 -190.5 -152.5t-239.5 -52.5zM182 461q0 -165 89.5 -250.5t228.5 -85.5q132 0 239 71.5t164.5 189t57.5 255.5q0 169 -91 255.5t-235 86.5q-133 0 -238 -72.5
t-160 -191t-55 -258.5z" />
    <glyph glyph-name="h" unicode="h" 
d="M37 0l227 1434h121l-90 -566q16 31 46 64t78 70t121.5 60t157.5 23q64 0 117.5 -14t101 -45t75 -81.5t39 -123.5t-6.5 -170l-102 -651h-121l100 631q26 167 -34.5 258.5t-215.5 91.5q-152 0 -256 -88.5t-133 -239.5l-104 -653h-121z" />
    <glyph glyph-name="i" unicode="i" horiz-adv-x="364" 
d="M37 0l168 1065h121l-168 -1065h-121zM233 1386q0 34 25 59t59 25t59 -25t25 -59t-25 -58.5t-59 -24.5t-59 24.5t-25 58.5z" />
    <glyph glyph-name="j" unicode="j" horiz-adv-x="405" 
d="M-115 -381q-39 0 -94 6l16 96h56q93 0 137 36.5t57 129.5l189 1178h121l-193 -1204q-36 -242 -289 -242zM274 1386q0 34 24.5 59t59.5 25q34 0 59 -25t25 -59t-25 -58.5t-59 -24.5q-35 0 -59.5 24.5t-24.5 58.5z" />
    <glyph glyph-name="k" unicode="k" horiz-adv-x="1077" 
d="M37 0l227 1434h121l-156 -983l697 614h145l-532 -465l426 -600h-138l-376 524l-244 -213l-49 -311h-121z" />
    <glyph glyph-name="l" unicode="l" horiz-adv-x="364" 
d="M37 0l227 1434h121l-227 -1434h-121z" />
    <glyph glyph-name="m" unicode="m" horiz-adv-x="1771" 
d="M1544 631q27 167 -26.5 258.5t-196.5 91.5q-135 0 -228 -83.5t-126 -227.5l-2 -19l-103 -651h-121l99 631q27 167 -26.5 258.5t-195.5 91.5q-144 0 -238.5 -92.5t-121.5 -251.5l-100 -637h-121l168 1065h121l-33 -203q12 23 28.5 47.5t49.5 57.5t72.5 58t100 42.5
t128.5 17.5q260 0 297 -237q15 28 33.5 55t54 61.5t76.5 60t103 43t132 17.5q63 0 114 -14t94 -45t67 -81.5t33 -123.5t-9 -170l-102 -651h-121z" />
    <glyph glyph-name="n" unicode="n" 
d="M901 631q26 167 -34.5 258.5t-215.5 91.5q-156 0 -261.5 -93t-131.5 -251l-100 -637h-121l168 1065h121l-31 -199q13 24 33.5 50.5t56.5 57.5t79 55t104.5 40t129.5 16q64 0 117.5 -14t101 -45t75 -81.5t39 -123.5t-6.5 -170l-102 -651h-121z" />
    <glyph glyph-name="o" unicode="o" horiz-adv-x="1150" 
d="M496 -20q-91 0 -168.5 27t-138 80.5t-94.5 140t-34 198.5q0 129 43 248t119 210.5t188.5 146t243.5 54.5q90 0 167 -27t137 -80t94 -140t34 -199q0 -129 -43 -248t-118.5 -210.5t-187.5 -146t-242 -54.5zM182 438q0 -179 91 -267.5t235 -88.5q103 0 191 46t146 122
t91 174.5t33 204.5q0 91 -25.5 160.5t-71 111t-103 62t-126.5 20.5q-103 0 -191 -46t-146 -122t-91 -174t-33 -203z" />
    <glyph glyph-name="p" unicode="p" horiz-adv-x="1191" 
d="M-25 -389l230 1454h121l-29 -188q76 103 186 155.5t234 52.5q85 0 158 -26t131 -77.5t91 -135.5t33 -193q0 -184 -70 -336.5t-203 -244.5t-302 -92q-127 0 -225.5 52.5t-141.5 153.5l-92 -575h-121zM227 438q0 -175 92.5 -265.5t235.5 -90.5q135 0 241.5 78t162 202
t55.5 267q0 174 -92 264t-234 90q-134 0 -241 -77.5t-163.5 -201.5t-56.5 -266z" />
    <glyph glyph-name="q" unicode="q" horiz-adv-x="1191" 
d="M805 -389l90 573q-77 -101 -190 -152.5t-236 -51.5q-85 0 -158 26.5t-129.5 78.5t-88.5 137.5t-32 195.5q0 131 41 252t114.5 213t183 147t237.5 55t226.5 -53t142.5 -155l28 188h121l-229 -1454h-121zM180 440q0 -177 90 -267.5t232 -90.5q135 0 242.5 77.5t164 201.5
t56.5 266q0 175 -93.5 265.5t-236.5 90.5q-133 0 -239 -78t-161 -201t-55 -264z" />
    <glyph glyph-name="r" unicode="r" horiz-adv-x="718" 
d="M37 0l168 1065h121l-37 -231h4q17 40 47.5 78.5t76.5 76.5t113.5 61t145.5 23q49 0 78 -10l-17 -105q-37 9 -75 9q-162 0 -267.5 -96.5t-140.5 -256.5l-96 -614h-121z" />
    <glyph glyph-name="s" unicode="s" horiz-adv-x="968" 
d="M412 -20q-86 0 -158.5 18.5t-128 54.5t-83 96.5t-19.5 137.5h110q-2 -57 21.5 -99t67 -64.5t93 -33t107.5 -10.5q141 0 232 58.5t91 170.5q0 76 -45 111t-147 61l-180 47q-119 30 -178.5 88.5t-59.5 155.5q0 145 118 229t308 84q175 0 273 -74.5t86 -224.5h-105
q-1 107 -69.5 153t-192.5 46q-137 0 -219 -51.5t-82 -147.5q0 -64 42 -103t140 -65l174 -45q131 -33 196.5 -87.5t65.5 -163.5t-64 -188.5t-166 -116.5t-228 -37z" />
    <glyph glyph-name="t" unicode="t" horiz-adv-x="630" 
d="M385 -14q-254 0 -213 241l115 738h-168l14 100h170l41 264h121l-41 -264h213l-14 -100h-215l-111 -711q-15 -93 16.5 -129.5t122.5 -36.5h64l-17 -96q-33 -6 -98 -6z" />
    <glyph glyph-name="u" unicode="u" 
d="M225 434q-26 -167 34.5 -258.5t215.5 -91.5q156 0 261.5 93t131.5 251l101 637h121l-168 -1065h-121l30 199q-13 -24 -33.5 -50.5t-56.5 -57.5t-79 -55t-104.5 -40t-129.5 -16q-64 0 -117.5 14t-101 45t-75 81.5t-39 123.5t6.5 170l103 651h121z" />
    <glyph glyph-name="v" unicode="v" horiz-adv-x="1091" 
d="M387 0l-254 1065h121l221 -950h6l516 950h127l-585 -1065h-152z" />
    <glyph glyph-name="w" unicode="w" horiz-adv-x="1607" 
d="M276 0l-143 1065h119l117 -936h8l450 936h113l164 -936h8l410 936h118l-471 -1065h-145l-162 905l-440 -905h-146z" />
    <glyph glyph-name="x" unicode="x" horiz-adv-x="1040" 
d="M-14 0l467 539l-291 526h133l237 -436l373 436h142l-461 -526l299 -539h-133l-242 451l-383 -451h-141z" />
    <glyph glyph-name="y" unicode="y" horiz-adv-x="1067" 
d="M33 -285q193 -28 311 181q47 82 33 143l-244 1026h123l213 -936l506 936h127l-651 -1180q-91 -163 -197 -228.5t-238 -47.5z" />
    <glyph glyph-name="z" unicode="z" horiz-adv-x="1011" 
d="M-2 0l16 104l836 857h-680l16 104h828l-19 -104l-833 -857h700l-16 -104h-848z" />
    <glyph glyph-name="braceleft" unicode="{" horiz-adv-x="540" 
d="M215 -266q-68 0 -105.5 44.5t-25.5 117.5l92 585l-70 146l117 149l92 588q12 73 65 117.5t120 44.5h106l-16 -107h-72q-33 0 -56.5 -19.5t-27.5 -51.5l-92 -582l-106 -139l63 -135l-92 -580q-5 -33 11 -52.5t48 -19.5h72l-16 -106h-107z" />
    <glyph glyph-name="bar" unicode="|" horiz-adv-x="415" 
d="M8 -389l322 2027h108l-321 -2027h-109z" />
    <glyph glyph-name="braceright" unicode="}" horiz-adv-x="540" 
d="M356 1526q68 0 105.5 -44.5t25.5 -117.5l-92 -586l70 -145l-117 -150l-92 -587q-12 -73 -64.5 -117.5t-119.5 -44.5h-107l17 106h71q32 0 56 20t28 52l92 582l107 139l-64 135l93 580q5 32 -11.5 51.5t-48.5 19.5h-72l17 107h106z" />
    <glyph glyph-name="asciitilde" unicode="~" horiz-adv-x="940" 
d="M639 473q-41 0 -78.5 16t-66.5 38.5t-56 45t-60 38.5t-67 16q-60 0 -90 -32.5t-28 -70.5h-70q0 93 58 146t141 53q41 0 78.5 -16t66 -38.5t56 -45t60 -38.5t66.5 -16q60 0 90.5 31.5t28.5 69.5h70q0 -91 -58.5 -144t-140.5 -53z" />
    <glyph glyph-name="uni00A0" unicode="&#xa0;" horiz-adv-x="471" 
 />
    <glyph glyph-name="exclamdown" unicode="&#xa1;" horiz-adv-x="434" 
d="M295 690l-158 -1059h-125l178 1059h105zM195 991q0 38 28 66t68 28q38 0 66 -28t28 -66q0 -39 -27.5 -66.5t-66.5 -27.5q-40 0 -68 27t-28 67z" />
    <glyph glyph-name="cent" unicode="&#xa2;" horiz-adv-x="1081" 
d="M434 -82l35 217q-175 14 -279 125.5t-104 317.5q0 122 39 234t109.5 198.5t176 141.5t230.5 62l35 220h65l-34 -217q75 -3 137.5 -23t115 -60.5t82.5 -111t29 -164.5h-108q-2 66 -25 115.5t-61.5 79t-85 44.5t-101.5 17l-139 -878q118 5 212 67.5t138 196.5h113
q-29 -99 -82.5 -172.5t-120 -114t-134.5 -59.5t-142 -21l-35 -215h-66zM203 586q0 -162 75.5 -248.5t206.5 -99.5l140 874q-128 -12 -225.5 -88.5t-147 -191t-49.5 -246.5z" />
    <glyph glyph-name="sterling" unicode="&#xa3;" horiz-adv-x="1095" 
d="M31 72q264 228 264 463q0 35 -6 69h-176l12 80h147q-6 22 -21 70t-23 76.5t-15.5 73t-7.5 85.5q0 200 138.5 329.5t352.5 129.5q198 0 301.5 -114.5t73.5 -311.5l-6 -39h-113l6 35q24 156 -52.5 238.5t-221.5 82.5q-158 0 -260 -94t-102 -246q0 -51 11 -102t30.5 -116
t27.5 -97h291l-10 -80h-264q4 -40 4 -63q0 -134 -68.5 -242.5t-187.5 -208.5q81 29 161 33.5t148 -6.5t135 -22.5t148 -11t161 22.5l-16 -106q-73 -19 -147 -21t-131.5 8.5t-124 21t-125.5 17t-134.5 -4t-152.5 -41.5z" />
    <glyph glyph-name="currency" unicode="&#xa4;" horiz-adv-x="1243" 
d="M692 516q-159 0 -284 98l-93 -92l-84 82l95 94q-93 124 -93 277q0 152 95 278l-97 97l84 80l95 -95q127 99 282 99q158 0 285 -99l92 95l84 -80l-96 -97q94 -124 94 -278t-92 -277l94 -94l-84 -82l-92 92q-125 -98 -285 -98zM338 975q0 -143 104 -248.5t250 -105.5
t251.5 106t105.5 248q0 141 -105.5 247.5t-251.5 106.5t-250 -106.5t-104 -247.5z" />
    <glyph glyph-name="yen" unicode="&#xa5;" horiz-adv-x="1300" 
d="M301 487l12 80h281v4l-391 863h141l332 -740l563 740h145l-665 -863v-4h278l-12 -80h-278l-21 -120h281l-13 -80h-280l-45 -287h-125l45 287h-279l13 80h278l21 120h-281z" />
    <glyph glyph-name="brokenbar" unicode="&#xa6;" horiz-adv-x="415" 
d="M225 983l105 655h108l-104 -655h-109zM8 -389l103 655h106l-100 -655h-109z" />
    <glyph glyph-name="section" unicode="&#xa7;" horiz-adv-x="1263" 
d="M463 -483q-125 0 -216.5 30t-144 85.5t-76 127.5t-20.5 162h129q1 -51 10.5 -93t34 -80.5t62.5 -64.5t99 -41.5t140 -15.5q196 0 302.5 74t127.5 207q37 231 -243 291l-209 45q-353 76 -307 370q22 153 135 246q-62 89 -41 221q26 164 163 266.5t367 102.5q222 0 325 -92
t101 -258h-129q0 53 -14.5 94t-48 75t-96.5 52t-154 18q-177 0 -271.5 -72t-113.5 -186q-32 -211 223 -266l178 -37q96 -21 165 -51.5t119.5 -77.5t69.5 -115.5t5 -158.5q-21 -151 -127 -246q53 -86 32 -221q-28 -185 -178 -288t-399 -103zM281 614q-29 -211 223 -266
l178 -37q163 -38 248 -98q61 64 76 162q37 231 -244 291l-209 45q-115 25 -182 69q-74 -65 -90 -166z" />
    <glyph glyph-name="dieresis" unicode="&#xa8;" horiz-adv-x="522" 
d="M573 1303q-34 0 -59 24.5t-25 58.5t25 59t59 25t59 -25t25 -59t-25 -58.5t-59 -24.5zM137 1386q0 34 25 59t59 25t59 -25t25 -59t-25 -58.5t-59 -24.5t-59 24.5t-25 58.5z" />
    <glyph glyph-name="copyright" unicode="&#xa9;" horiz-adv-x="1646" 
d="M745 -14q-182 0 -326 76.5t-226 218t-82 323.5q0 168 69 324t184 269t272 181t327 68q182 0 325.5 -76.5t224 -217t80.5 -321.5q0 -169 -68 -325t-182.5 -270t-271 -182t-326.5 -68zM195 614q0 -247 156 -397.5t403 -150.5q153 0 294 62t242 164.5t161 241t60 285.5
q0 162 -71.5 287t-198.5 192.5t-289 67.5q-153 0 -293.5 -62t-241.5 -164t-161.5 -240.5t-60.5 -285.5zM430 645q0 101 37 194t101 162t156 110.5t196 41.5q124 0 212.5 -59t110.5 -187h-90q-18 83 -83 123.5t-161 40.5q-173 0 -282 -122.5t-109 -295.5q0 -142 77 -217.5
t208 -75.5q95 0 173 41.5t120 126.5h90q-42 -89 -109.5 -146.5t-137 -80t-146.5 -22.5q-160 0 -261.5 97t-101.5 269z" />
    <glyph glyph-name="ordfeminine" unicode="&#xaa;" horiz-adv-x="741" 
d="M322 786q-82 0 -132.5 41.5t-50.5 124.5q0 92 64 144t182 61l252 21q9 66 2 109.5t-42 64t-105 20.5q-173 0 -187 -121h-82q25 195 277 195q149 0 195.5 -67t23.5 -218l-57 -370h-78l14 116q-42 -49 -118 -85t-158 -36zM229 967q0 -51 33 -78t96 -27q88 0 155 44.5
t95 90.5l19 119l-238 -22q-160 -13 -160 -127z" />
    <glyph glyph-name="guillemotleft" unicode="&#xab;" horiz-adv-x="784" 
d="M668 315l-248 248l16 96l324 248l-19 -125l-223 -172l170 -172zM86 563l16 96l324 248l-18 -125l-222 -172l168 -172l-20 -123z" />
    <glyph glyph-name="logicalnot" unicode="&#xac;" horiz-adv-x="1040" 
d="M760 295l39 244h-678l16 100h799l-55 -344h-121z" />
    <glyph glyph-name="uni00AD" unicode="&#xad;" horiz-adv-x="706" 
d="M80 526l16 99h543l-16 -99h-543z" />
    <glyph glyph-name="registered" unicode="&#xae;" horiz-adv-x="1646" 
d="M745 -14q-182 0 -326 76.5t-226 218t-82 323.5q0 168 69 324t184 269t272 181t327 68q182 0 325.5 -76.5t224 -217t80.5 -321.5q0 -169 -68 -325t-182.5 -270t-271 -182t-326.5 -68zM195 614q0 -247 156 -397.5t403 -150.5q153 0 294 62t242 164.5t161 241t60 285.5
q0 162 -71.5 287t-198.5 192.5t-289 67.5q-153 0 -293.5 -62t-241.5 -164t-161.5 -240.5t-60.5 -285.5zM494 322l127 788h360q119 0 184.5 -56.5t65.5 -160.5t-66.5 -178.5t-175.5 -96.5l152 -296h-94l-144 288h-276l-47 -288h-86zM637 682h268q113 0 178.5 57t65.5 148
q0 72 -46.5 111.5t-141.5 39.5h-267z" />
    <glyph glyph-name="macron" unicode="&#xaf;" horiz-adv-x="583" 
d="M133 1374l12 82h584l-12 -82h-584z" />
    <glyph glyph-name="degree" unicode="&#xb0;" horiz-adv-x="768" 
d="M485 868q-128 0 -214.5 85.5t-86.5 213.5t86.5 213.5t214.5 85.5q127 0 213 -85.5t86 -213.5t-86 -213.5t-213 -85.5zM276 1167q0 -93 59 -151t150 -58q90 0 148.5 58t58.5 151t-58.5 151t-148.5 58q-91 0 -150 -58t-59 -151z" />
    <glyph glyph-name="plusminus" unicode="&#xb1;" horiz-adv-x="1073" 
d="M121 0l14 96h705l-15 -96h-704zM143 668l17 110h356l57 359h115l-57 -359h358l-16 -110h-359l-57 -361h-117l58 361h-355z" />
    <glyph glyph-name="uni00B2" unicode="&#xb2;" horiz-adv-x="514" 
d="M145 924q6 73 51 126t140 107q84 47 106 68q28 28 35 67q8 43 -17 70t-75 27t-83 -28.5t-40 -80.5l-2 -12h-59l2 12q12 75 62 119.5t128 44.5q76 0 113.5 -42t28.5 -106q-8 -60 -50 -99t-127 -87q-67 -36 -105 -75t-38 -74v-7h274l-8 -53h-338z" />
    <glyph glyph-name="uni00B3" unicode="&#xb3;" horiz-adv-x="544" 
d="M332 893q-91 0 -133.5 47t-30.5 127h57q-9 -61 22.5 -92t94.5 -31q58 0 98 28t49 81q7 51 -27 77.5t-100 26.5h-22l6 47h23q59 0 95 26.5t42 67.5q6 44 -18.5 69.5t-77.5 25.5q-56 0 -92 -29.5t-42 -87.5h-57q10 79 62.5 123.5t132.5 44.5t119 -41.5t28 -102.5
q-7 -43 -39 -73t-76 -41q47 -11 77 -45.5t22 -93.5q-9 -67 -65.5 -110.5t-147.5 -43.5z" />
    <glyph glyph-name="acute" unicode="&#xb4;" horiz-adv-x="317" 
d="M104 1192l246 264h113l-246 -264h-113z" />
    <glyph glyph-name="uni00B5" unicode="&#xb5;" 
d="M-25 -389l230 1454h121l-105 -662q-32 -319 254 -319q156 0 261.5 93t131.5 251l101 637h121l-168 -1065h-121l30 199q-13 -24 -33.5 -50.5t-56.5 -57.5t-79 -55t-104.5 -40t-129.5 -16q-174 0 -258 94l-74 -463h-121z" />
    <glyph glyph-name="paragraph" unicode="&#xb6;" horiz-adv-x="1144" 
d="M483 -451l172 1086h-155q-171 0 -263 89.5t-92 244.5q0 198 136.5 331.5t345.5 133.5h540l-299 -1885h-102l285 1797h-174l-285 -1797h-109z" />
    <glyph glyph-name="periodcentered" unicode="&#xb7;" horiz-adv-x="393" 
d="M203 481q-38 0 -66 28t-28 66q0 39 27.5 67t66.5 28q40 0 68 -27.5t28 -67.5q0 -38 -28 -66t-68 -28z" />
    <glyph glyph-name="cedilla" unicode="&#xb8;" horiz-adv-x="299" 
d="M-102 -358q82 0 132 31t50 87q0 51 -42 69t-106 -9l-36 53l122 127h103l-105 -100q8 2 27 2q58 0 95.5 -34.5t37.5 -100.5t-42 -113t-106.5 -68.5t-144.5 -21.5z" />
    <glyph glyph-name="uni00B9" unicode="&#xb9;" horiz-adv-x="337" 
d="M319 1354q-37 -53 -112 -47l6 53q35 0 69 22.5t50 51.5h57l-84 -535h-57z" />
    <glyph glyph-name="ordmasculine" unicode="&#xba;" horiz-adv-x="784" 
d="M436 786q-119 0 -198.5 72.5t-79.5 204.5q0 158 109 270.5t263 112.5q120 0 200.5 -71.5t80.5 -203.5q0 -158 -111 -271.5t-264 -113.5zM248 1071q0 -97 55.5 -149t142.5 -52q116 0 195.5 86.5t79.5 206.5q0 96 -55 147.5t-144 51.5q-116 0 -195 -85.5t-79 -205.5z" />
    <glyph glyph-name="guillemotright" unicode="&#xbb;" horiz-adv-x="786" 
d="M143 907l248 -248l-16 -96l-324 -248l19 125l223 172l-170 172zM385 315l18 125l222 172l-168 172l20 123l248 -248l-16 -96z" />
    <glyph glyph-name="onequarter" unicode="&#xbc;" horiz-adv-x="1189" 
d="M319 1354q-37 -53 -112 -47l6 53q35 0 69 22.5t50 51.5h57l-84 -535h-57zM18 0l1121 1434h71l-1120 -1434h-72zM674 135l8 47l301 353h55l-53 -353h62l-11 -47h-61l-21 -135h-55l21 135h-246zM737 182h191l41 275z" />
    <glyph glyph-name="onehalf" unicode="&#xbd;" horiz-adv-x="1193" 
d="M328 1354q-37 -53 -113 -47l6 53q35 0 69 22.5t50 51.5h57l-84 -535h-57zM43 0l1120 1434h72l-1120 -1434h-72zM682 0l2 23q6 73 50.5 126t139.5 107q85 47 106 67q29 28 36 68q8 43 -17 69.5t-75 26.5t-83 -28t-40 -80l-2 -12h-60l2 12q12 75 62.5 119.5t128.5 44.5
q76 0 113 -42t28 -106q-8 -60 -50 -99t-126 -87q-67 -36 -105 -75.5t-38 -74.5v-6h274l-8 -53h-338z" />
    <glyph glyph-name="threequarters" unicode="&#xbe;" horiz-adv-x="1267" 
d="M332 893q-91 0 -133.5 47t-30.5 127h57q-9 -61 22.5 -92t94.5 -31q58 0 98 28t49 81q7 51 -27 77.5t-100 26.5h-22l6 47h23q59 0 95 26.5t42 67.5q6 44 -18.5 69.5t-77.5 25.5q-56 0 -92 -29.5t-42 -87.5h-57q10 79 62.5 123.5t132.5 44.5t119 -41.5t28 -102.5
q-7 -43 -39 -73t-76 -41q47 -11 77 -45.5t22 -93.5q-9 -67 -65.5 -110.5t-147.5 -43.5zM131 0l1120 1434h72l-1120 -1434h-72zM717 135l8 47l301 353h55l-53 -353h62l-11 -47h-61l-21 -135h-55l21 135h-246zM780 182h191l41 275z" />
    <glyph glyph-name="questiondown" unicode="&#xbf;" horiz-adv-x="1046" 
d="M592 590q-11 -70 -40.5 -126.5t-68 -93.5t-82.5 -69t-88 -62t-82 -62.5t-65.5 -79.5t-36.5 -105q-22 -128 51 -197t209 -69q146 0 246.5 85t122.5 252h121q-26 -212 -161 -329t-339 -117q-191 0 -295.5 100t-75.5 277q10 68 38.5 123t66.5 91.5t81.5 67.5t87.5 61
t81.5 63t65.5 81.5t38 108.5l14 96h127zM489 991q0 38 28.5 66t68.5 28q38 0 66 -28t28 -66q0 -39 -27.5 -66.5t-66.5 -27.5q-40 0 -68.5 27.5t-28.5 66.5z" />
    <glyph glyph-name="Agrave" unicode="&#xc0;" horiz-adv-x="1361" 
d="M-35 0l785 1434h149l330 -1434h-131l-86 387h-703l-209 -387h-135zM362 485h627l-180 807h-8zM621 1825h108l168 -264h-109z" />
    <glyph glyph-name="Aacute" unicode="&#xc1;" horiz-adv-x="1361" 
d="M-35 0l785 1434h149l330 -1434h-131l-86 387h-703l-209 -387h-135zM362 485h627l-180 807h-8zM750 1561l245 264h113l-246 -264h-112z" />
    <glyph glyph-name="Acircumflex" unicode="&#xc2;" horiz-adv-x="1361" 
d="M-35 0l785 1434h149l330 -1434h-131l-86 387h-703l-209 -387h-135zM362 485h627l-180 807h-8zM553 1565l250 260h168l166 -260h-115l-141 217l-205 -217h-123z" />
    <glyph glyph-name="Atilde" unicode="&#xc3;" horiz-adv-x="1361" 
d="M-35 0l785 1434h149l330 -1434h-131l-86 387h-703l-209 -387h-135zM362 485h627l-180 807h-8zM547 1661q13 92 62.5 138t121.5 46q41 0 73.5 -15t54 -36.5t41.5 -42.5t45.5 -36t55.5 -15q49 0 76 31t31 69h84q-13 -92 -63 -138t-123 -46q-40 0 -72.5 15t-54.5 36
t-42 42.5t-46 36.5t-56 15q-49 0 -74.5 -30.5t-31.5 -69.5h-82z" />
    <glyph glyph-name="Adieresis" unicode="&#xc4;" horiz-adv-x="1361" 
d="M-35 0l785 1434h149l330 -1434h-131l-86 387h-703l-209 -387h-135zM362 485h627l-180 807h-8zM618 1755q0 34 25 59t59 25t59 -25t25 -59t-25 -59t-59 -25t-59 25t-25 59zM971 1755q0 34 25 59t59 25t59 -25t25 -59t-25 -59t-59 -25t-59 25t-25 59z" />
    <glyph glyph-name="Aring" unicode="&#xc5;" horiz-adv-x="1361" 
d="M-35 0l785 1434h149l330 -1434h-131l-86 387h-703l-209 -387h-135zM362 485h627l-180 807h-8zM702 1710q0 69 49 117.5t121 48.5t121 -48.5t49 -117.5q0 -68 -49.5 -117t-120.5 -49t-120.5 49t-49.5 117zM772 1710q0 -41 29.5 -69.5t70.5 -28.5q42 0 71.5 28.5t29.5 69.5
q0 42 -29.5 71t-71.5 29t-71 -29t-29 -71z" />
    <glyph glyph-name="AE" unicode="&#xc6;" horiz-adv-x="2011" 
d="M-35 0l1209 1432v2h890l-18 -113h-766l-82 -528h703l-17 -107h-702l-92 -573h784l-16 -113h-912l64 397h-572l-334 -397h-139zM526 502h500l117 733z" />
    <glyph glyph-name="Ccedilla" unicode="&#xc7;" horiz-adv-x="1339" 
d="M473 -358q82 0 132 31t50 87q0 51 -41.5 69t-105.5 -9l-37 53l107 111q-217 24 -342 172.5t-125 418.5q0 173 52 330.5t146 279.5t239.5 194.5t319.5 72.5q216 0 348.5 -108t141.5 -304h-119q-17 146 -117 223.5t-262 77.5q-146 0 -266.5 -64.5t-197.5 -171.5
t-118.5 -241t-41.5 -278q0 -246 119 -371t319 -125q161 0 278 79t181 224h122q-69 -200 -221 -305t-358 -108l-84 -80q8 2 26 2q58 0 96 -34.5t38 -100.5t-42 -113t-106.5 -68.5t-144.5 -21.5z" />
    <glyph glyph-name="Egrave" unicode="&#xc8;" horiz-adv-x="1101" 
d="M37 0l227 1434h891l-18 -113h-766l-82 -528h702l-16 -107h-703l-92 -573h785l-17 -113h-911zM498 1825h108l168 -264h-108z" />
    <glyph glyph-name="Eacute" unicode="&#xc9;" horiz-adv-x="1101" 
d="M37 0l227 1434h891l-18 -113h-766l-82 -528h702l-16 -107h-703l-92 -573h785l-17 -113h-911zM627 1561l245 264h113l-246 -264h-112z" />
    <glyph glyph-name="Ecircumflex" unicode="&#xca;" horiz-adv-x="1101" 
d="M37 0l227 1434h891l-18 -113h-766l-82 -528h702l-16 -107h-703l-92 -573h785l-17 -113h-911zM430 1565l250 260h168l166 -260h-115l-141 217l-205 -217h-123z" />
    <glyph glyph-name="Edieresis" unicode="&#xcb;" horiz-adv-x="1101" 
d="M37 0l227 1434h891l-18 -113h-766l-82 -528h702l-16 -107h-703l-92 -573h785l-17 -113h-911zM496 1755q0 34 25 59t59 25t59 -25t25 -59t-25 -59t-59 -25t-59 25t-25 59zM848 1755q0 34 25 59t59 25t59 -25t25 -59t-25 -59t-59 -25t-59 25t-25 59z" />
    <glyph glyph-name="Igrave" unicode="&#xcc;" horiz-adv-x="368" 
d="M37 0l227 1434h125l-227 -1434h-125zM121 1825h108l168 -264h-108z" />
    <glyph glyph-name="Iacute" unicode="&#xcd;" horiz-adv-x="368" 
d="M37 0l227 1434h125l-227 -1434h-125zM250 1561l246 264h112l-246 -264h-112z" />
    <glyph glyph-name="Icircumflex" unicode="&#xce;" horiz-adv-x="368" 
d="M37 0l227 1434h125l-227 -1434h-125zM53 1565l250 260h168l166 -260h-115l-141 217l-205 -217h-123z" />
    <glyph glyph-name="Idieresis" unicode="&#xcf;" horiz-adv-x="368" 
d="M37 0l227 1434h125l-227 -1434h-125zM119 1755q0 34 25 59t59 25t59 -25t25 -59t-25 -59t-59 -25t-59 25t-25 59zM471 1755q0 34 25 59t59 25t59 -25t25 -59t-25 -59t-59 -25t-59 25t-25 59z" />
    <glyph glyph-name="Eth" unicode="&#xd0;" horiz-adv-x="1368" 
d="M78 0l106 666h-143l16 98h142l106 670h434q291 0 433.5 -143t142.5 -439q0 -181 -52.5 -336t-151.5 -270t-251 -180.5t-340 -65.5h-442zM221 113h301q132 0 242 37.5t188.5 104t133 159t80.5 202.5t26 234q0 250 -113 360.5t-354 110.5h-313l-88 -557h276l-16 -98h-275z
" />
    <glyph glyph-name="Ntilde" unicode="&#xd1;" horiz-adv-x="1331" 
d="M37 0l227 1434h148l612 -1248h6l197 1248h125l-228 -1434h-149l-610 1245h-5l-198 -1245h-125zM530 1661q13 92 63 138t122 46q41 0 73.5 -15t54 -36.5t41.5 -42.5t45.5 -36t55.5 -15q49 0 76 31t31 69h84q-13 -91 -63.5 -137.5t-123.5 -46.5q-40 0 -72.5 15t-54 36
t-41.5 42.5t-46 36.5t-56 15q-49 0 -75.5 -30.5t-31.5 -69.5h-82z" />
    <glyph glyph-name="Ograve" unicode="&#xd2;" horiz-adv-x="1458" 
d="M653 -20q-247 0 -394.5 150t-147.5 441q0 138 33 268t97.5 241t154 194t210.5 130.5t258 47.5q247 0 395 -151t148 -443q0 -136 -33 -265.5t-98 -240t-154.5 -194t-210.5 -131t-258 -47.5zM236 575q0 -244 113.5 -364.5t309.5 -120.5q145 0 265.5 66t197 174.5
t118.5 244.5t42 281q0 244 -114.5 364.5t-309.5 120.5q-117 0 -219 -43t-174.5 -117t-125 -171.5t-78 -208.5t-25.5 -226zM666 1825h108l168 -264h-108z" />
    <glyph glyph-name="Oacute" unicode="&#xd3;" horiz-adv-x="1458" 
d="M653 -20q-247 0 -394.5 150t-147.5 441q0 138 33 268t97.5 241t154 194t210.5 130.5t258 47.5q247 0 395 -151t148 -443q0 -136 -33 -265.5t-98 -240t-154.5 -194t-210.5 -131t-258 -47.5zM236 575q0 -244 113.5 -364.5t309.5 -120.5q145 0 265.5 66t197 174.5
t118.5 244.5t42 281q0 244 -114.5 364.5t-309.5 120.5q-117 0 -219 -43t-174.5 -117t-125 -171.5t-78 -208.5t-25.5 -226zM797 1561l245 264h113l-246 -264h-112z" />
    <glyph glyph-name="Ocircumflex" unicode="&#xd4;" horiz-adv-x="1458" 
d="M653 -20q-247 0 -394.5 150t-147.5 441q0 138 33 268t97.5 241t154 194t210.5 130.5t258 47.5q247 0 395 -151t148 -443q0 -136 -33 -265.5t-98 -240t-154.5 -194t-210.5 -131t-258 -47.5zM236 575q0 -244 113.5 -364.5t309.5 -120.5q145 0 265.5 66t197 174.5
t118.5 244.5t42 281q0 244 -114.5 364.5t-309.5 120.5q-117 0 -219 -43t-174.5 -117t-125 -171.5t-78 -208.5t-25.5 -226zM600 1565l250 260h168l166 -260h-115l-141 217l-205 -217h-123z" />
    <glyph glyph-name="Otilde" unicode="&#xd5;" horiz-adv-x="1458" 
d="M653 -20q-247 0 -394.5 150t-147.5 441q0 138 33 268t97.5 241t154 194t210.5 130.5t258 47.5q247 0 395 -151t148 -443q0 -136 -33 -265.5t-98 -240t-154.5 -194t-210.5 -131t-258 -47.5zM236 575q0 -244 113.5 -364.5t309.5 -120.5q145 0 265.5 66t197 174.5
t118.5 244.5t42 281q0 244 -114.5 364.5t-309.5 120.5q-117 0 -219 -43t-174.5 -117t-125 -171.5t-78 -208.5t-25.5 -226zM594 1661q13 92 62.5 138t121.5 46q41 0 73.5 -15t54 -36.5t41.5 -42.5t46 -36t56 -15q49 0 75.5 30.5t30.5 69.5h84q-13 -92 -63 -138t-123 -46
q-40 0 -72.5 15t-54.5 36t-42 42.5t-46 36.5t-56 15q-49 0 -74.5 -30.5t-31.5 -69.5h-82z" />
    <glyph glyph-name="Odieresis" unicode="&#xd6;" horiz-adv-x="1458" 
d="M653 -20q-247 0 -394.5 150t-147.5 441q0 138 33 268t97.5 241t154 194t210.5 130.5t258 47.5q247 0 395 -151t148 -443q0 -136 -33 -265.5t-98 -240t-154.5 -194t-210.5 -131t-258 -47.5zM236 575q0 -244 113.5 -364.5t309.5 -120.5q145 0 265.5 66t197 174.5
t118.5 244.5t42 281q0 244 -114.5 364.5t-309.5 120.5q-117 0 -219 -43t-174.5 -117t-125 -171.5t-78 -208.5t-25.5 -226zM666 1755q0 34 25 59t59 25t59 -25t25 -59t-25 -59t-59 -25t-59 25t-25 59zM1018 1755q0 34 25 59t59 25t59 -25t25 -59t-25 -59t-59 -25t-59 25
t-25 59z" />
    <glyph glyph-name="multiply" unicode="&#xd7;" horiz-adv-x="864" 
d="M125 182l-66 76l293 256l-213 256l88 76l213 -256l293 256l66 -76l-293 -256l213 -256l-90 -76l-213 254z" />
    <glyph glyph-name="Oslash" unicode="&#xd8;" horiz-adv-x="1458" 
d="M172 -102l127 194q-188 152 -188 479q0 138 33 268t97.5 241t154 194t210.5 130.5t258 47.5q159 0 275 -61l88 135h110l-120 -187q190 -150 190 -481q0 -136 -33 -265.5t-98 -240t-154.5 -194t-210.5 -131t-258 -47.5q-160 0 -276 61l-94 -143h-111zM236 575
q0 -254 129 -380l710 1097q-91 49 -217 49q-117 0 -219 -43t-174.5 -117t-125 -171.5t-78 -208.5t-25.5 -226zM440 139q91 -49 219 -49q145 0 265.5 66t197 174.5t118.5 244.5t42 281q0 256 -131 381z" />
    <glyph glyph-name="Ugrave" unicode="&#xd9;" horiz-adv-x="1318" 
d="M580 -20q-252 0 -375 148.5t-82 412.5l141 893h127l-141 -887q-35 -218 58 -336.5t290 -118.5q195 0 318 117.5t157 337.5l141 887h127l-141 -893q-43 -265 -206 -413t-414 -148zM596 1825h109l167 -264h-108z" />
    <glyph glyph-name="Uacute" unicode="&#xda;" horiz-adv-x="1318" 
d="M580 -20q-252 0 -375 148.5t-82 412.5l141 893h127l-141 -887q-35 -218 58 -336.5t290 -118.5q195 0 318 117.5t157 337.5l141 887h127l-141 -893q-43 -265 -206 -413t-414 -148zM725 1561l246 264h112l-245 -264h-113z" />
    <glyph glyph-name="Ucircumflex" unicode="&#xdb;" horiz-adv-x="1318" 
d="M580 -20q-252 0 -375 148.5t-82 412.5l141 893h127l-141 -887q-35 -218 58 -336.5t290 -118.5q195 0 318 117.5t157 337.5l141 887h127l-141 -893q-43 -265 -206 -413t-414 -148zM528 1565l250 260h168l166 -260h-115l-141 217l-205 -217h-123z" />
    <glyph glyph-name="Udieresis" unicode="&#xdc;" horiz-adv-x="1318" 
d="M580 -20q-252 0 -375 148.5t-82 412.5l141 893h127l-141 -887q-35 -218 58 -336.5t290 -118.5q195 0 318 117.5t157 337.5l141 887h127l-141 -893q-43 -265 -206 -413t-414 -148zM594 1755q0 34 25 59t59 25t59 -25t25 -59t-25 -59t-59 -25t-59 25t-25 59zM946 1755
q0 34 25 59t59 25t59 -25t25 -59t-25 -59t-59 -25t-59 25t-25 59z" />
    <glyph glyph-name="Yacute" unicode="&#xdd;" horiz-adv-x="1300" 
d="M504 0l90 571l-391 863h141l332 -740l563 740h145l-665 -863l-90 -571h-125zM717 1561l246 264h112l-246 -264h-112z" />
    <glyph glyph-name="Thorn" unicode="&#xde;" horiz-adv-x="1232" 
d="M37 0l227 1434h125l-45 -287h422q213 0 321.5 -93t108.5 -274q0 -226 -154.5 -358.5t-412.5 -132.5h-422l-45 -289h-125zM225 399h418q198 0 311 99t113 266q0 270 -326 270h-415z" />
    <glyph glyph-name="germandbls" unicode="&#xdf;" horiz-adv-x="1159" 
d="M207 1073q59 379 495 379q190 0 291 -77t101 -228q0 -128 -73 -219t-208 -123q258 -62 258 -332q0 -226 -160 -349.5t-438 -123.5h-145l16 109h135q220 0 345.5 94.5t125.5 267.5q0 146 -92.5 211.5t-269.5 65.5h-142l17 100h141q173 0 270 72t97 208q0 115 -70.5 166.5
t-214.5 51.5q-161 0 -248.5 -66.5t-109.5 -206.5l-170 -1073h-121z" />
    <glyph glyph-name="agrave" unicode="&#xe0;" horiz-adv-x="1077" 
d="M332 -20q-144 0 -224.5 62.5t-80.5 186.5q0 140 101.5 226.5t281.5 107.5l278 33q93 11 129 29t43 59l6 43q25 143 -37 203.5t-215 60.5q-148 0 -227 -53t-98 -166l-4 -24h-117l6 32q45 305 459 305q209 0 296.5 -85t57.5 -273l-115 -727h-116l30 193h-6
q-18 -27 -52.5 -59.5t-89.5 -69t-136 -60.5t-170 -24zM147 244q0 -164 218 -164q76 0 146.5 20t121.5 51.5t91 70.5t61.5 77t25.5 70l29 188q-16 -41 -176 -59l-238 -27q-132 -15 -205.5 -72.5t-73.5 -154.5zM416 1456h108l168 -264h-108z" />
    <glyph glyph-name="aacute" unicode="&#xe1;" horiz-adv-x="1077" 
d="M332 -20q-144 0 -224.5 62.5t-80.5 186.5q0 140 101.5 226.5t281.5 107.5l278 33q93 11 129 29t43 59l6 43q25 143 -37 203.5t-215 60.5q-148 0 -227 -53t-98 -166l-4 -24h-117l6 32q45 305 459 305q209 0 296.5 -85t57.5 -273l-115 -727h-116l30 193h-6
q-18 -27 -52.5 -59.5t-89.5 -69t-136 -60.5t-170 -24zM147 244q0 -164 218 -164q76 0 146.5 20t121.5 51.5t91 70.5t61.5 77t25.5 70l29 188q-16 -41 -176 -59l-238 -27q-132 -15 -205.5 -72.5t-73.5 -154.5zM545 1192l246 264h112l-246 -264h-112z" />
    <glyph glyph-name="acircumflex" unicode="&#xe2;" horiz-adv-x="1077" 
d="M332 -20q-144 0 -224.5 62.5t-80.5 186.5q0 140 101.5 226.5t281.5 107.5l278 33q93 11 129 29t43 59l6 43q25 143 -37 203.5t-215 60.5q-148 0 -227 -53t-98 -166l-4 -24h-117l6 32q45 305 459 305q209 0 296.5 -85t57.5 -273l-115 -727h-116l30 193h-6
q-18 -27 -52.5 -59.5t-89.5 -69t-136 -60.5t-170 -24zM147 244q0 -164 218 -164q76 0 146.5 20t121.5 51.5t91 70.5t61.5 77t25.5 70l29 188q-16 -41 -176 -59l-238 -27q-132 -15 -205.5 -72.5t-73.5 -154.5zM348 1196l250 260h168l166 -260h-115l-141 217l-205 -217h-123z
" />
    <glyph glyph-name="atilde" unicode="&#xe3;" horiz-adv-x="1077" 
d="M332 -20q-144 0 -224.5 62.5t-80.5 186.5q0 140 101.5 226.5t281.5 107.5l278 33q93 11 129 29t43 59l6 43q25 143 -37 203.5t-215 60.5q-148 0 -227 -53t-98 -166l-4 -24h-117l6 32q45 305 459 305q209 0 296.5 -85t57.5 -273l-115 -727h-116l30 193h-6
q-18 -27 -52.5 -59.5t-89.5 -69t-136 -60.5t-170 -24zM147 244q0 -164 218 -164q76 0 146.5 20t121.5 51.5t91 70.5t61.5 77t25.5 70l29 188q-16 -41 -176 -59l-238 -27q-132 -15 -205.5 -72.5t-73.5 -154.5zM342 1292q13 92 62.5 138.5t121.5 46.5q41 0 73.5 -15t54 -36.5
t41.5 -43t46 -36.5t56 -15q49 0 75.5 31t30.5 70h84q-13 -92 -63.5 -138.5t-122.5 -46.5q-40 0 -72.5 15t-54.5 36.5t-42 43t-46 36.5t-56 15q-49 0 -74.5 -30.5t-31.5 -70.5h-82z" />
    <glyph glyph-name="adieresis" unicode="&#xe4;" horiz-adv-x="1077" 
d="M332 -20q-144 0 -224.5 62.5t-80.5 186.5q0 140 101.5 226.5t281.5 107.5l278 33q93 11 129 29t43 59l6 43q25 143 -37 203.5t-215 60.5q-148 0 -227 -53t-98 -166l-4 -24h-117l6 32q45 305 459 305q209 0 296.5 -85t57.5 -273l-115 -727h-116l30 193h-6
q-18 -27 -52.5 -59.5t-89.5 -69t-136 -60.5t-170 -24zM147 244q0 -164 218 -164q76 0 146.5 20t121.5 51.5t91 70.5t61.5 77t25.5 70l29 188q-16 -41 -176 -59l-238 -27q-132 -15 -205.5 -72.5t-73.5 -154.5zM414 1386q0 34 25 59t59 25t59 -25t25 -59t-25 -58.5t-59 -24.5
t-59 24.5t-25 58.5zM766 1386q0 34 25 59t59 25t59 -25t25 -59t-25 -58.5t-59 -24.5t-59 24.5t-25 58.5z" />
    <glyph glyph-name="aring" unicode="&#xe5;" horiz-adv-x="1077" 
d="M332 -20q-144 0 -224.5 62.5t-80.5 186.5q0 140 101.5 226.5t281.5 107.5l278 33q93 11 129 29t43 59l6 43q25 143 -37 203.5t-215 60.5q-148 0 -227 -53t-98 -166l-4 -24h-117l6 32q45 305 459 305q209 0 296.5 -85t57.5 -273l-115 -727h-116l30 193h-6
q-18 -27 -52.5 -59.5t-89.5 -69t-136 -60.5t-170 -24zM147 244q0 -164 218 -164q76 0 146.5 20t121.5 51.5t91 70.5t61.5 77t25.5 70l29 188q-16 -41 -176 -59l-238 -27q-132 -15 -205.5 -72.5t-73.5 -154.5zM500 1341q0 69 49 117.5t121 48.5t121 -48.5t49 -117.5
q0 -68 -49.5 -116.5t-120.5 -48.5t-120.5 48.5t-49.5 116.5zM569 1341q0 -41 29.5 -69.5t71.5 -28.5q41 0 70.5 28.5t29.5 69.5q0 43 -29 72t-71 29t-71.5 -29.5t-29.5 -71.5z" />
    <glyph glyph-name="ae" unicode="&#xe6;" horiz-adv-x="1857" 
d="M342 -20q-152 0 -232.5 68t-80.5 194q0 155 116 247.5t316 92.5h383v2l26 170q18 123 -47.5 179t-212.5 56q-143 0 -221.5 -52.5t-93.5 -148.5l-4 -26h-113l6 37q50 286 443 286q160 0 244.5 -49.5t101.5 -158.5q164 208 434 208q184 0 289.5 -100.5t105.5 -288.5
q0 -133 -26 -200h-828q-2 -23 -2 -68q0 -181 81 -265.5t241 -84.5q249 0 354 207h111q-137 -305 -480 -305q-157 0 -261.5 67.5t-141.5 202.5q-68 -113 -201.5 -191.5t-306.5 -78.5zM152 256q0 -92 60 -135t165 -43q93 0 175.5 32t135 80t85 98t38.5 91l18 119h-352
q-145 0 -235 -65t-90 -177zM963 588h716q36 191 -43.5 295t-242.5 104q-89 0 -163.5 -31.5t-127 -87t-87.5 -126t-52 -154.5z" />
    <glyph glyph-name="ccedilla" unicode="&#xe7;" horiz-adv-x="1081" 
d="M322 -358q82 0 132 31t50 87q0 51 -42 69t-106 -9l-37 53l107 111q-166 20 -264.5 132.5t-98.5 315.5q0 130 42 248t117.5 208t189 143.5t247.5 53.5q62 0 116.5 -11t106 -37.5t88 -67t58.5 -104.5t21 -146h-109q-2 71 -26.5 123t-66.5 81.5t-91.5 43.5t-108.5 14
q-141 0 -249 -77t-163 -199t-55 -265q0 -179 88 -267.5t240 -88.5q123 0 224 63t147 205h112q-29 -99 -80.5 -172t-116 -114.5t-131 -62t-139.5 -23.5l-84 -80q8 2 27 2q58 0 95.5 -34.5t37.5 -100.5t-42 -113t-106.5 -68.5t-144.5 -21.5z" />
    <glyph glyph-name="egrave" unicode="&#xe8;" horiz-adv-x="1091" 
d="M487 -20q-201 0 -313.5 109.5t-112.5 330.5q0 131 39.5 250.5t111.5 212t183.5 147.5t245.5 55q184 0 289.5 -100.5t105.5 -288.5q0 -133 -26 -200h-828q-2 -23 -2 -68q0 -181 81 -265.5t241 -84.5q249 0 354 207h111q-137 -305 -480 -305zM197 588h716q36 191 -43.5 295
t-242.5 104q-89 0 -163.5 -31.5t-127 -87t-87.5 -126t-52 -154.5zM428 1456h109l168 -264h-109z" />
    <glyph glyph-name="eacute" unicode="&#xe9;" horiz-adv-x="1091" 
d="M487 -20q-201 0 -313.5 109.5t-112.5 330.5q0 131 39.5 250.5t111.5 212t183.5 147.5t245.5 55q184 0 289.5 -100.5t105.5 -288.5q0 -133 -26 -200h-828q-2 -23 -2 -68q0 -181 81 -265.5t241 -84.5q249 0 354 207h111q-137 -305 -480 -305zM197 588h716q36 191 -43.5 295
t-242.5 104q-89 0 -163.5 -31.5t-127 -87t-87.5 -126t-52 -154.5zM559 1192l246 264h113l-246 -264h-113z" />
    <glyph glyph-name="ecircumflex" unicode="&#xea;" horiz-adv-x="1091" 
d="M487 -20q-201 0 -313.5 109.5t-112.5 330.5q0 131 39.5 250.5t111.5 212t183.5 147.5t245.5 55q184 0 289.5 -100.5t105.5 -288.5q0 -133 -26 -200h-828q-2 -23 -2 -68q0 -181 81 -265.5t241 -84.5q249 0 354 207h111q-137 -305 -480 -305zM197 588h716q36 191 -43.5 295
t-242.5 104q-89 0 -163.5 -31.5t-127 -87t-87.5 -126t-52 -154.5zM362 1196l250 260h168l166 -260h-115l-141 217l-205 -217h-123z" />
    <glyph glyph-name="edieresis" unicode="&#xeb;" horiz-adv-x="1091" 
d="M487 -20q-201 0 -313.5 109.5t-112.5 330.5q0 131 39.5 250.5t111.5 212t183.5 147.5t245.5 55q184 0 289.5 -100.5t105.5 -288.5q0 -133 -26 -200h-828q-2 -23 -2 -68q0 -181 81 -265.5t241 -84.5q249 0 354 207h111q-137 -305 -480 -305zM197 588h716q36 191 -43.5 295
t-242.5 104q-89 0 -163.5 -31.5t-127 -87t-87.5 -126t-52 -154.5zM428 1386q0 34 25 59t59 25t59 -25t25 -59t-25 -58.5t-59 -24.5t-59 24.5t-25 58.5zM780 1386q0 34 25 59t59 25t59 -25t25 -59t-25 -58.5t-59 -24.5t-59 24.5t-25 58.5z" />
    <glyph glyph-name="igrave" unicode="&#xec;" horiz-adv-x="315" 
d="M14 0l168 1065h121l-168 -1065h-121zM35 1456h108l168 -264h-108z" />
    <glyph glyph-name="iacute" unicode="&#xed;" horiz-adv-x="315" 
d="M14 0l168 1065h121l-168 -1065h-121zM164 1192l246 264h112l-246 -264h-112z" />
    <glyph glyph-name="icircumflex" unicode="&#xee;" horiz-adv-x="315" 
d="M14 0l168 1065h121l-168 -1065h-121zM-33 1196l250 260h168l166 -260h-115l-141 217l-205 -217h-123z" />
    <glyph glyph-name="idieresis" unicode="&#xef;" horiz-adv-x="315" 
d="M14 0l168 1065h121l-168 -1065h-121zM33 1386q0 34 25 59t59 25t59 -25t25 -59t-25 -58.5t-59 -24.5t-59 24.5t-25 58.5zM385 1386q0 34 25 59t59 25t59 -25t25 -59t-25 -58.5t-59 -24.5t-59 24.5t-25 58.5z" />
    <glyph glyph-name="eth" unicode="&#xf0;" horiz-adv-x="1165" 
d="M473 -20q-188 0 -300 111.5t-112 322.5q0 135 38.5 253.5t109.5 207t179 139.5t239 51q184 0 270 -107q-72 154 -162 295h-203l11 70h147q-63 93 -76 111h129l72 -111h291l-8 -70h-240q109 -182 154 -305.5t45 -251.5q0 -146 -41 -276t-115.5 -228t-185 -155t-242.5 -57z
M182 428q0 -173 81.5 -256.5t223.5 -83.5q105 0 190.5 47.5t140 127t83.5 179t29 207.5q0 309 -305 309q-108 0 -194 -42t-139.5 -115t-81.5 -168t-28 -205z" />
    <glyph glyph-name="ntilde" unicode="&#xf1;" 
d="M901 631q26 167 -34.5 258.5t-215.5 91.5q-156 0 -261.5 -93t-131.5 -251l-100 -637h-121l168 1065h121l-31 -199q13 24 33.5 50.5t56.5 57.5t79 55t104.5 40t129.5 16q64 0 117.5 -14t101 -45t75 -81.5t39 -123.5t-6.5 -170l-102 -651h-121zM371 1292q13 92 62.5 138.5
t121.5 46.5q41 0 73.5 -15t54 -36.5t41.5 -43t45.5 -36.5t55.5 -15q49 0 76 31.5t31 69.5h84q-13 -92 -64 -138.5t-123 -46.5q-40 0 -72.5 15t-54 36.5t-41.5 43t-46 36.5t-56 15q-49 0 -74.5 -30.5t-31.5 -70.5h-82z" />
    <glyph glyph-name="ograve" unicode="&#xf2;" horiz-adv-x="1150" 
d="M496 -20q-91 0 -168.5 27t-138 80.5t-94.5 140t-34 198.5q0 129 43 248t119 210.5t188.5 146t243.5 54.5q90 0 167 -27t137 -80t94 -140t34 -199q0 -129 -43 -248t-118.5 -210.5t-187.5 -146t-242 -54.5zM182 438q0 -179 91 -267.5t235 -88.5q103 0 191 46t146 122
t91 174.5t33 204.5q0 91 -25.5 160.5t-71 111t-103 62t-126.5 20.5q-103 0 -191 -46t-146 -122t-91 -174t-33 -203zM453 1456h108l168 -264h-108z" />
    <glyph glyph-name="oacute" unicode="&#xf3;" horiz-adv-x="1150" 
d="M496 -20q-91 0 -168.5 27t-138 80.5t-94.5 140t-34 198.5q0 129 43 248t119 210.5t188.5 146t243.5 54.5q90 0 167 -27t137 -80t94 -140t34 -199q0 -129 -43 -248t-118.5 -210.5t-187.5 -146t-242 -54.5zM182 438q0 -179 91 -267.5t235 -88.5q103 0 191 46t146 122
t91 174.5t33 204.5q0 91 -25.5 160.5t-71 111t-103 62t-126.5 20.5q-103 0 -191 -46t-146 -122t-91 -174t-33 -203zM582 1192l245 264h113l-246 -264h-112z" />
    <glyph glyph-name="ocircumflex" unicode="&#xf4;" horiz-adv-x="1150" 
d="M496 -20q-91 0 -168.5 27t-138 80.5t-94.5 140t-34 198.5q0 129 43 248t119 210.5t188.5 146t243.5 54.5q90 0 167 -27t137 -80t94 -140t34 -199q0 -129 -43 -248t-118.5 -210.5t-187.5 -146t-242 -54.5zM182 438q0 -179 91 -267.5t235 -88.5q103 0 191 46t146 122
t91 174.5t33 204.5q0 91 -25.5 160.5t-71 111t-103 62t-126.5 20.5q-103 0 -191 -46t-146 -122t-91 -174t-33 -203zM385 1196l250 260h168l166 -260h-115l-141 217l-205 -217h-123z" />
    <glyph glyph-name="otilde" unicode="&#xf5;" horiz-adv-x="1150" 
d="M496 -20q-91 0 -168.5 27t-138 80.5t-94.5 140t-34 198.5q0 129 43 248t119 210.5t188.5 146t243.5 54.5q90 0 167 -27t137 -80t94 -140t34 -199q0 -129 -43 -248t-118.5 -210.5t-187.5 -146t-242 -54.5zM182 438q0 -179 91 -267.5t235 -88.5q103 0 191 46t146 122
t91 174.5t33 204.5q0 91 -25.5 160.5t-71 111t-103 62t-126.5 20.5q-103 0 -191 -46t-146 -122t-91 -174t-33 -203zM379 1292q13 92 62.5 138.5t121.5 46.5q41 0 73.5 -15t54 -36.5t41.5 -43t46 -36.5t56 -15q49 0 75.5 31t30.5 70h84q-13 -92 -63.5 -138.5t-122.5 -46.5
q-40 0 -72.5 15t-54.5 36.5t-42 43t-46 36.5t-56 15q-49 0 -74.5 -30.5t-31.5 -70.5h-82z" />
    <glyph glyph-name="odieresis" unicode="&#xf6;" horiz-adv-x="1150" 
d="M496 -20q-91 0 -168.5 27t-138 80.5t-94.5 140t-34 198.5q0 129 43 248t119 210.5t188.5 146t243.5 54.5q90 0 167 -27t137 -80t94 -140t34 -199q0 -129 -43 -248t-118.5 -210.5t-187.5 -146t-242 -54.5zM182 438q0 -179 91 -267.5t235 -88.5q103 0 191 46t146 122
t91 174.5t33 204.5q0 91 -25.5 160.5t-71 111t-103 62t-126.5 20.5q-103 0 -191 -46t-146 -122t-91 -174t-33 -203zM451 1386q0 34 25 59t59 25t58.5 -25t24.5 -59t-24.5 -58.5t-58.5 -24.5t-59 24.5t-25 58.5zM803 1386q0 34 25 59t59 25t59 -25t25 -59t-25 -58.5
t-59 -24.5t-59 24.5t-25 58.5z" />
    <glyph glyph-name="divide" unicode="&#xf7;" horiz-adv-x="831" 
d="M457 825q-26 0 -45 19t-19 45t19 44.5t45 18.5t44.5 -18.5t18.5 -44.5t-18.5 -45t-44.5 -19zM119 526l18 99h588l-18 -99h-588zM293 260q0 26 19.5 45t45.5 19q25 0 44.5 -19t19.5 -45t-19.5 -44.5t-44.5 -18.5q-26 0 -45.5 18.5t-19.5 44.5z" />
    <glyph glyph-name="oslash" unicode="&#xf8;" horiz-adv-x="1150" 
d="M113 -102l106 165q-158 119 -158 363q0 129 43 248t119 210.5t188.5 146t243.5 54.5q113 0 195 -36l88 135h102l-114 -178q161 -118 161 -367q0 -129 -43 -248t-118.5 -210.5t-187.5 -146t-242 -54.5q-122 0 -203 40l-80 -122h-100zM182 438q0 -182 101 -276l508 792
q-72 29 -148 29q-103 0 -191 -46t-146 -122t-91 -174t-33 -203zM352 115q67 -33 156 -33q103 0 191 46t146 122t91 174.5t33 204.5q0 188 -107 280z" />
    <glyph glyph-name="ugrave" unicode="&#xf9;" 
d="M225 434q-26 -167 34.5 -258.5t215.5 -91.5q156 0 261.5 93t131.5 251l101 637h121l-168 -1065h-121l30 199q-13 -24 -33.5 -50.5t-56.5 -57.5t-79 -55t-104.5 -40t-129.5 -16q-64 0 -117.5 14t-101 45t-75 81.5t-39 123.5t6.5 170l103 651h121zM432 1456h109l168 -264
h-109z" />
    <glyph glyph-name="uacute" unicode="&#xfa;" 
d="M225 434q-26 -167 34.5 -258.5t215.5 -91.5q156 0 261.5 93t131.5 251l101 637h121l-168 -1065h-121l30 199q-13 -24 -33.5 -50.5t-56.5 -57.5t-79 -55t-104.5 -40t-129.5 -16q-64 0 -117.5 14t-101 45t-75 81.5t-39 123.5t6.5 170l103 651h121zM561 1192l246 264h113
l-246 -264h-113z" />
    <glyph glyph-name="ucircumflex" unicode="&#xfb;" 
d="M225 434q-26 -167 34.5 -258.5t215.5 -91.5q156 0 261.5 93t131.5 251l101 637h121l-168 -1065h-121l30 199q-13 -24 -33.5 -50.5t-56.5 -57.5t-79 -55t-104.5 -40t-129.5 -16q-64 0 -117.5 14t-101 45t-75 81.5t-39 123.5t6.5 170l103 651h121zM365 1196l249 260h168
l166 -260h-114l-142 217l-205 -217h-122z" />
    <glyph glyph-name="udieresis" unicode="&#xfc;" 
d="M225 434q-26 -167 34.5 -258.5t215.5 -91.5q156 0 261.5 93t131.5 251l101 637h121l-168 -1065h-121l30 199q-13 -24 -33.5 -50.5t-56.5 -57.5t-79 -55t-104.5 -40t-129.5 -16q-64 0 -117.5 14t-101 45t-75 81.5t-39 123.5t6.5 170l103 651h121zM430 1386q0 34 25 59
t59 25t59 -25t25 -59t-25 -58.5t-59 -24.5t-59 24.5t-25 58.5zM782 1386q0 34 25 59t59 25t59 -25t25 -59t-25 -58.5t-59 -24.5t-59 24.5t-25 58.5z" />
    <glyph glyph-name="yacute" unicode="&#xfd;" horiz-adv-x="1067" 
d="M33 -285q193 -28 311 181q47 82 33 143l-244 1026h123l213 -936l506 936h127l-651 -1180q-91 -163 -197 -228.5t-238 -47.5zM545 1192l246 264h112l-246 -264h-112z" />
    <glyph glyph-name="thorn" unicode="&#xfe;" horiz-adv-x="1191" 
d="M-25 -389l289 1823h121l-88 -557q76 102 188.5 155t237.5 53q181 0 294 -110t113 -328q0 -180 -70.5 -331.5t-203.5 -243.5t-301 -92q-125 0 -224.5 52.5t-142.5 153.5l-92 -575h-121zM227 430q0 -170 93 -259t237 -89q133 0 239.5 78t162 201t55.5 264q0 177 -91 267.5
t-233 90.5q-101 0 -188.5 -45.5t-147 -121.5t-93.5 -176.5t-34 -209.5z" />
    <glyph glyph-name="ydieresis" unicode="&#xff;" horiz-adv-x="1067" 
d="M33 -285q193 -28 311 181q47 82 33 143l-244 1026h123l213 -936l506 936h127l-651 -1180q-91 -163 -197 -228.5t-238 -47.5zM414 1386q0 34 25 59t59 25t59 -25t25 -59t-25 -58.5t-59 -24.5t-59 24.5t-25 58.5zM766 1386q0 34 25 59t59 25t59 -25t25 -59t-25 -58.5
t-59 -24.5t-59 24.5t-25 58.5z" />
    <glyph glyph-name="Amacron" unicode="&#x100;" horiz-adv-x="1361" 
d="M-35 0l785 1434h149l330 -1434h-131l-86 387h-703l-209 -387h-135zM362 485h627l-180 807h-8zM584 1743l12 82h584l-13 -82h-583z" />
    <glyph glyph-name="amacron" unicode="&#x101;" horiz-adv-x="1077" 
d="M332 -20q-144 0 -224.5 62.5t-80.5 186.5q0 140 101.5 226.5t281.5 107.5l278 33q93 11 129 29t43 59l6 43q25 143 -37 203.5t-215 60.5q-148 0 -227 -53t-98 -166l-4 -24h-117l6 32q45 305 459 305q209 0 296.5 -85t57.5 -273l-115 -727h-116l30 193h-6
q-18 -27 -52.5 -59.5t-89.5 -69t-136 -60.5t-170 -24zM147 244q0 -164 218 -164q76 0 146.5 20t121.5 51.5t91 70.5t61.5 77t25.5 70l29 188q-16 -41 -176 -59l-238 -27q-132 -15 -205.5 -72.5t-73.5 -154.5zM381 1374l12 82h584l-12 -82h-584z" />
    <glyph glyph-name="Abreve" unicode="&#x102;" horiz-adv-x="1361" 
d="M-35 0l785 1434h149l330 -1434h-131l-86 387h-703l-209 -387h-135zM362 485h627l-180 807h-8zM614 1825h88q-18 -168 162 -168q95 0 146.5 45.5t64.5 122.5h88q-8 -50 -28.5 -92.5t-56 -78.5t-93 -56.5t-131.5 -20.5q-73 0 -125 20.5t-78 56t-35 78.5t-2 93z" />
    <glyph glyph-name="abreve" unicode="&#x103;" horiz-adv-x="1077" 
d="M332 -20q-144 0 -224.5 62.5t-80.5 186.5q0 140 101.5 226.5t281.5 107.5l278 33q93 11 129 29t43 59l6 43q25 143 -37 203.5t-215 60.5q-148 0 -227 -53t-98 -166l-4 -24h-117l6 32q45 305 459 305q209 0 296.5 -85t57.5 -273l-115 -727h-116l30 193h-6
q-18 -27 -52.5 -59.5t-89.5 -69t-136 -60.5t-170 -24zM147 244q0 -164 218 -164q76 0 146.5 20t121.5 51.5t91 70.5t61.5 77t25.5 70l29 188q-16 -41 -176 -59l-238 -27q-132 -15 -205.5 -72.5t-73.5 -154.5zM410 1456h88q-17 -168 161 -168q95 0 146.5 45.5t64.5 122.5h88
q-8 -50 -28.5 -92.5t-56 -78.5t-93 -56.5t-131.5 -20.5q-73 0 -125 20.5t-78 56.5t-34.5 78.5t-1.5 92.5z" />
    <glyph glyph-name="Aogonek" unicode="&#x104;" horiz-adv-x="1361" 
d="M-35 0l785 1434h149l330 -1434q-115 0 -189.5 -51.5t-74.5 -136.5q0 -64 45.5 -92t124.5 -17l-13 -78q-104 -21 -180 23.5t-76 142.5q0 88 63.5 154t160.5 90l-78 352h-703l-209 -387h-135zM362 485h627l-180 807h-8z" />
    <glyph glyph-name="aogonek" unicode="&#x105;" horiz-adv-x="1077" 
d="M332 -20q-144 0 -224.5 62.5t-80.5 186.5q0 140 101.5 226.5t281.5 107.5l278 33q93 11 129 29t43 59l6 43q25 143 -37 203.5t-215 60.5q-148 0 -227 -53t-98 -166l-4 -24h-117l6 32q45 305 459 305q209 0 296.5 -85t57.5 -273l-115 -727q-115 0 -189.5 -51.5
t-74.5 -136.5q0 -64 45.5 -92t124.5 -17l-12 -78q-104 -21 -180 23.5t-76 142.5q0 95 72 163.5t180 86.5l24 152h-6q-18 -27 -52.5 -59.5t-89.5 -69t-136 -60.5t-170 -24zM147 244q0 -164 218 -164q76 0 146.5 20t121.5 51.5t91 70.5t61.5 77t25.5 70l29 188
q-16 -41 -176 -59l-238 -27q-132 -15 -205.5 -72.5t-73.5 -154.5z" />
    <glyph glyph-name="Cacute" unicode="&#x106;" horiz-adv-x="1339" 
d="M662 -20q-123 0 -223 36t-174 108t-114 186.5t-40 264.5q0 173 52 330.5t146 279.5t239.5 194.5t319.5 72.5q216 0 348.5 -108t141.5 -304h-119q-17 146 -117 223.5t-262 77.5q-146 0 -266.5 -64.5t-197.5 -171.5t-118.5 -241t-41.5 -278q0 -246 119 -371t319 -125
q161 0 278 79t181 224h122q-70 -203 -226.5 -308t-366.5 -105zM793 1561l245 264h113l-246 -264h-112z" />
    <glyph glyph-name="cacute" unicode="&#x107;" horiz-adv-x="1081" 
d="M496 -20q-196 0 -314.5 114t-118.5 338q0 130 42 248t117.5 208t189 143.5t247.5 53.5q62 0 116.5 -11t106 -37.5t88 -67t58.5 -104.5t21 -146h-109q-2 71 -26.5 123t-66.5 81.5t-91.5 43.5t-108.5 14q-141 0 -249 -77t-163 -199t-55 -265q0 -179 88 -267.5t240 -88.5
q123 0 224 63t147 205h112q-24 -84 -65.5 -149.5t-90.5 -106.5t-108 -68t-115 -37.5t-116 -10.5zM575 1192l246 264h113l-246 -264h-113z" />
    <glyph glyph-name="Ccircumflex" unicode="&#x108;" horiz-adv-x="1339" 
d="M662 -20q-123 0 -223 36t-174 108t-114 186.5t-40 264.5q0 173 52 330.5t146 279.5t239.5 194.5t319.5 72.5q216 0 348.5 -108t141.5 -304h-119q-17 146 -117 223.5t-262 77.5q-146 0 -266.5 -64.5t-197.5 -171.5t-118.5 -241t-41.5 -278q0 -246 119 -371t319 -125
q161 0 278 79t181 224h122q-70 -203 -226.5 -308t-366.5 -105zM598 1565l250 260h168l166 -260h-115l-141 217l-205 -217h-123z" />
    <glyph glyph-name="ccircumflex" unicode="&#x109;" horiz-adv-x="1081" 
d="M496 -20q-196 0 -314.5 114t-118.5 338q0 130 42 248t117.5 208t189 143.5t247.5 53.5q62 0 116.5 -11t106 -37.5t88 -67t58.5 -104.5t21 -146h-109q-2 71 -26.5 123t-66.5 81.5t-91.5 43.5t-108.5 14q-141 0 -249 -77t-163 -199t-55 -265q0 -179 88 -267.5t240 -88.5
q123 0 224 63t147 205h112q-24 -84 -65.5 -149.5t-90.5 -106.5t-108 -68t-115 -37.5t-116 -10.5zM381 1196l250 260h168l166 -260h-115l-141 217l-205 -217h-123z" />
    <glyph glyph-name="Cdotaccent" unicode="&#x10a;" horiz-adv-x="1339" 
d="M662 -20q-123 0 -223 36t-174 108t-114 186.5t-40 264.5q0 173 52 330.5t146 279.5t239.5 194.5t319.5 72.5q216 0 348.5 -108t141.5 -304h-119q-17 146 -117 223.5t-262 77.5q-146 0 -266.5 -64.5t-197.5 -171.5t-118.5 -241t-41.5 -278q0 -246 119 -371t319 -125
q161 0 278 79t181 224h122q-70 -203 -226.5 -308t-366.5 -105zM838 1755q0 34 25 59t59 25t59 -25t25 -59t-25 -59t-59 -25t-59 25t-25 59z" />
    <glyph glyph-name="cdotaccent" unicode="&#x10b;" horiz-adv-x="1081" 
d="M496 -20q-196 0 -314.5 114t-118.5 338q0 130 42 248t117.5 208t189 143.5t247.5 53.5q62 0 116.5 -11t106 -37.5t88 -67t58.5 -104.5t21 -146h-109q-2 71 -26.5 123t-66.5 81.5t-91.5 43.5t-108.5 14q-141 0 -249 -77t-163 -199t-55 -265q0 -179 88 -267.5t240 -88.5
q123 0 224 63t147 205h112q-24 -84 -65.5 -149.5t-90.5 -106.5t-108 -68t-115 -37.5t-116 -10.5zM621 1386q0 34 25 59t59 25t58.5 -25t24.5 -59t-24.5 -58.5t-58.5 -24.5t-59 24.5t-25 58.5z" />
    <glyph glyph-name="Ccaron" unicode="&#x10c;" horiz-adv-x="1339" 
d="M662 -20q-123 0 -223 36t-174 108t-114 186.5t-40 264.5q0 173 52 330.5t146 279.5t239.5 194.5t319.5 72.5q216 0 348.5 -108t141.5 -304h-119q-17 146 -117 223.5t-262 77.5q-146 0 -266.5 -64.5t-197.5 -171.5t-118.5 -241t-41.5 -278q0 -246 119 -371t319 -125
q161 0 278 79t181 224h122q-70 -203 -226.5 -308t-366.5 -105zM643 1825h115l141 -217l205 217h123l-250 -260h-168z" />
    <glyph glyph-name="ccaron" unicode="&#x10d;" horiz-adv-x="1081" 
d="M496 -20q-196 0 -314.5 114t-118.5 338q0 130 42 248t117.5 208t189 143.5t247.5 53.5q62 0 116.5 -11t106 -37.5t88 -67t58.5 -104.5t21 -146h-109q-2 71 -26.5 123t-66.5 81.5t-91.5 43.5t-108.5 14q-141 0 -249 -77t-163 -199t-55 -265q0 -179 88 -267.5t240 -88.5
q123 0 224 63t147 205h112q-24 -84 -65.5 -149.5t-90.5 -106.5t-108 -68t-115 -37.5t-116 -10.5zM424 1456h115l141 -217l205 217h123l-250 -260h-168z" />
    <glyph glyph-name="Dcaron" unicode="&#x10e;" horiz-adv-x="1329" 
d="M37 0l227 1434h434q291 0 433.5 -143t142.5 -439q0 -181 -52.5 -336t-151.5 -270t-251 -180.5t-340 -65.5h-442zM180 113h301q132 0 242 37.5t188.5 104t133 159t80.5 202.5t26 234q0 250 -113 360.5t-354 110.5h-313zM590 1825h115l141 -217l205 217h123l-250 -260h-168
z" />
    <glyph glyph-name="dcaron" unicode="&#x10f;" horiz-adv-x="1239" 
d="M1241 1169l197 265h114l-196 -265h-115zM61 418q0 131 41 252t114.5 213t183 147t237.5 55t226.5 -53t142.5 -155l88 557h120l-227 -1434h-121l29 186q-77 -102 -189.5 -154t-236.5 -52q-85 0 -158 26.5t-129.5 78.5t-88.5 137.5t-32 195.5zM180 440q0 -177 90 -267.5
t232 -90.5q135 0 242.5 77.5t164 201.5t56.5 266q0 175 -93.5 265.5t-236.5 90.5q-133 0 -239 -78t-161 -201t-55 -264z" />
    <glyph glyph-name="Dcroat" unicode="&#x110;" horiz-adv-x="1368" 
d="M78 0l106 666h-143l16 98h142l106 670h434q291 0 433.5 -143t142.5 -439q0 -181 -52.5 -336t-151.5 -270t-251 -180.5t-340 -65.5h-442zM221 113h301q132 0 242 37.5t188.5 104t133 159t80.5 202.5t26 234q0 250 -113 360.5t-354 110.5h-313l-88 -557h276l-16 -98h-275z
" />
    <glyph glyph-name="dcroat" unicode="&#x111;" horiz-adv-x="1269" 
d="M780 1253l11 70h284l19 111h120l-18 -111h158l-8 -70h-160l-199 -1253h-121l29 186q-77 -102 -189.5 -154t-236.5 -52q-85 0 -158 26.5t-129.5 78.5t-88.5 137.5t-32 195.5q0 131 41 252t114.5 213t183 147t237.5 55t226.5 -53t142.5 -155l59 376h-285zM180 440
q0 -177 90 -267.5t232 -90.5q135 0 242.5 77.5t164 201.5t56.5 266q0 175 -93.5 265.5t-236.5 90.5q-133 0 -239 -78t-161 -201t-55 -264z" />
    <glyph glyph-name="Emacron" unicode="&#x112;" horiz-adv-x="1101" 
d="M37 0l227 1434h891l-18 -113h-766l-82 -528h702l-16 -107h-703l-92 -573h785l-17 -113h-911zM463 1743l12 82h584l-12 -82h-584z" />
    <glyph glyph-name="emacron" unicode="&#x113;" horiz-adv-x="1091" 
d="M487 -20q-201 0 -313.5 109.5t-112.5 330.5q0 131 39.5 250.5t111.5 212t183.5 147.5t245.5 55q184 0 289.5 -100.5t105.5 -288.5q0 -133 -26 -200h-828q-2 -23 -2 -68q0 -181 81 -265.5t241 -84.5q249 0 354 207h111q-137 -305 -480 -305zM197 588h716q36 191 -43.5 295
t-242.5 104q-89 0 -163.5 -31.5t-127 -87t-87.5 -126t-52 -154.5zM393 1374l13 82h583l-12 -82h-584z" />
    <glyph glyph-name="Edotaccent" unicode="&#x116;" horiz-adv-x="1101" 
d="M37 0l227 1434h891l-18 -113h-766l-82 -528h702l-16 -107h-703l-92 -573h785l-17 -113h-911zM672 1755q0 34 25 59t59 25t59 -25t25 -59t-25 -59t-59 -25t-59 25t-25 59z" />
    <glyph glyph-name="edotaccent" unicode="&#x117;" horiz-adv-x="1091" 
d="M487 -20q-201 0 -313.5 109.5t-112.5 330.5q0 131 39.5 250.5t111.5 212t183.5 147.5t245.5 55q184 0 289.5 -100.5t105.5 -288.5q0 -133 -26 -200h-828q-2 -23 -2 -68q0 -181 81 -265.5t241 -84.5q249 0 354 207h111q-137 -305 -480 -305zM197 588h716q36 191 -43.5 295
t-242.5 104q-89 0 -163.5 -31.5t-127 -87t-87.5 -126t-52 -154.5zM602 1386q0 34 25 59t59 25t59 -25t25 -59t-25 -58.5t-59 -24.5t-59 24.5t-25 58.5z" />
    <glyph glyph-name="Eogonek" unicode="&#x118;" horiz-adv-x="1101" 
d="M37 0l227 1434h891l-18 -113h-766l-82 -528h702l-16 -107h-703l-92 -573h785l-17 -113q-115 0 -189.5 -51.5t-74.5 -136.5q0 -64 45.5 -92t124.5 -17l-12 -78q-104 -21 -180 23.5t-76 142.5q0 66 35.5 120t97.5 89h-682z" />
    <glyph glyph-name="eogonek" unicode="&#x119;" horiz-adv-x="1091" 
d="M592 -375q-104 -21 -180 23.5t-76 142.5q0 117 104 191q-180 12 -279.5 121t-99.5 317q0 131 39.5 250.5t111.5 212t183.5 147.5t245.5 55q184 0 289.5 -100.5t105.5 -288.5q0 -133 -26 -200h-828q-2 -23 -2 -68q0 -181 81 -265.5t241 -84.5q249 0 354 207h111
q-109 -242 -355 -293q-80 -18 -128 -65.5t-48 -114.5q0 -65 45 -92.5t123 -16.5zM197 588h716q36 191 -43.5 295t-242.5 104q-89 0 -163.5 -31.5t-127 -87t-87.5 -126t-52 -154.5z" />
    <glyph glyph-name="Ecaron" unicode="&#x11a;" horiz-adv-x="1101" 
d="M37 0l227 1434h891l-18 -113h-766l-82 -528h702l-16 -107h-703l-92 -573h785l-17 -113h-911zM477 1825h115l141 -217l205 217h123l-250 -260h-168z" />
    <glyph glyph-name="ecaron" unicode="&#x11b;" horiz-adv-x="1091" 
d="M487 -20q-201 0 -313.5 109.5t-112.5 330.5q0 131 39.5 250.5t111.5 212t183.5 147.5t245.5 55q184 0 289.5 -100.5t105.5 -288.5q0 -133 -26 -200h-828q-2 -23 -2 -68q0 -181 81 -265.5t241 -84.5q249 0 354 207h111q-137 -305 -480 -305zM197 588h716q36 191 -43.5 295
t-242.5 104q-89 0 -163.5 -31.5t-127 -87t-87.5 -126t-52 -154.5zM408 1456h114l142 -217l204 217h123l-250 -260h-168z" />
    <glyph glyph-name="Gcircumflex" unicode="&#x11c;" horiz-adv-x="1417" 
d="M666 -20q-260 0 -406.5 150.5t-146.5 449.5q0 139 32 268t96.5 239t154.5 191.5t213 127.5t265 46q209 0 332 -94t142 -266h-119q-25 120 -115 184.5t-244 64.5q-121 0 -224.5 -41t-178 -112.5t-127 -167.5t-78.5 -206t-26 -228q0 -248 115.5 -372t322.5 -124
q217 0 357 134t179 394l-387 -6l17 107h508l-15 -84q-51 -323 -222 -489t-445 -166zM604 1565l250 260h168l166 -260h-115l-141 217l-205 -217h-123z" />
    <glyph glyph-name="gcircumflex" unicode="&#x11d;" horiz-adv-x="1183" 
d="M463 20q-83 0 -154 25t-127 74t-87.5 130.5t-31.5 186.5q0 175 68.5 322t199 237t296.5 90q127 0 226.5 -51.5t141.5 -152.5l31 184h121l-148 -938l-20 -117q-16 -99 -58.5 -177t-97.5 -126t-126 -79.5t-140 -43.5t-143 -12q-90 0 -166.5 19t-136.5 56.5t-89 101
t-16 145.5h107q-12 -102 73.5 -163t237.5 -61q81 0 150.5 18.5t129 58t99.5 106.5t55 157l21 117l14 98q-75 -100 -190.5 -152.5t-239.5 -52.5zM182 461q0 -165 89.5 -250.5t228.5 -85.5q132 0 239 71.5t164.5 189t57.5 255.5q0 169 -91 255.5t-235 86.5q-133 0 -238 -72.5
t-160 -191t-55 -258.5zM397 1196l250 260h168l166 -260h-115l-141 217l-205 -217h-123z" />
    <glyph glyph-name="Gbreve" unicode="&#x11e;" horiz-adv-x="1417" 
d="M666 -20q-260 0 -406.5 150.5t-146.5 449.5q0 139 32 268t96.5 239t154.5 191.5t213 127.5t265 46q209 0 332 -94t142 -266h-119q-25 120 -115 184.5t-244 64.5q-121 0 -224.5 -41t-178 -112.5t-127 -167.5t-78.5 -206t-26 -228q0 -248 115.5 -372t322.5 -124
q217 0 357 134t179 394l-387 -6l17 107h508l-15 -84q-51 -323 -222 -489t-445 -166zM664 1825h88q-18 -168 161 -168q95 0 146.5 45.5t64.5 122.5h88q-8 -50 -28.5 -92.5t-56 -78.5t-93 -56.5t-131.5 -20.5q-73 0 -125 20.5t-78 56.5t-34.5 78.5t-1.5 92.5z" />
    <glyph glyph-name="gbreve" unicode="&#x11f;" horiz-adv-x="1183" 
d="M463 20q-83 0 -154 25t-127 74t-87.5 130.5t-31.5 186.5q0 175 68.5 322t199 237t296.5 90q127 0 226.5 -51.5t141.5 -152.5l31 184h121l-148 -938l-20 -117q-16 -99 -58.5 -177t-97.5 -126t-126 -79.5t-140 -43.5t-143 -12q-90 0 -166.5 19t-136.5 56.5t-89 101
t-16 145.5h107q-12 -102 73.5 -163t237.5 -61q81 0 150.5 18.5t129 58t99.5 106.5t55 157l21 117l14 98q-75 -100 -190.5 -152.5t-239.5 -52.5zM182 461q0 -165 89.5 -250.5t228.5 -85.5q132 0 239 71.5t164.5 189t57.5 255.5q0 169 -91 255.5t-235 86.5q-133 0 -238 -72.5
t-160 -191t-55 -258.5zM457 1456h88q-17 -168 162 -168q95 0 146.5 45.5t64.5 122.5h88q-17 -107 -92 -177.5t-218 -70.5q-73 0 -125 20.5t-78 56.5t-34.5 78.5t-1.5 92.5z" />
    <glyph glyph-name="Gdotaccent" unicode="&#x120;" horiz-adv-x="1417" 
d="M666 -20q-260 0 -406.5 150.5t-146.5 449.5q0 139 32 268t96.5 239t154.5 191.5t213 127.5t265 46q209 0 332 -94t142 -266h-119q-25 120 -115 184.5t-244 64.5q-121 0 -224.5 -41t-178 -112.5t-127 -167.5t-78.5 -206t-26 -228q0 -248 115.5 -372t322.5 -124
q217 0 357 134t179 394l-387 -6l17 107h508l-15 -84q-51 -323 -222 -489t-445 -166zM844 1755q0 34 25 59t59 25t59 -25t25 -59t-25 -59t-59 -25t-59 25t-25 59z" />
    <glyph glyph-name="gdotaccent" unicode="&#x121;" horiz-adv-x="1183" 
d="M463 20q-83 0 -154 25t-127 74t-87.5 130.5t-31.5 186.5q0 175 68.5 322t199 237t296.5 90q127 0 226.5 -51.5t141.5 -152.5l31 184h121l-148 -938l-20 -117q-16 -99 -58.5 -177t-97.5 -126t-126 -79.5t-140 -43.5t-143 -12q-90 0 -166.5 19t-136.5 56.5t-89 101
t-16 145.5h107q-12 -102 73.5 -163t237.5 -61q81 0 150.5 18.5t129 58t99.5 106.5t55 157l21 117l14 98q-75 -100 -190.5 -152.5t-239.5 -52.5zM182 461q0 -165 89.5 -250.5t228.5 -85.5q132 0 239 71.5t164.5 189t57.5 255.5q0 169 -91 255.5t-235 86.5q-133 0 -238 -72.5
t-160 -191t-55 -258.5zM637 1386q0 34 25 59t59 25t59 -25t25 -59t-25 -58.5t-59 -24.5t-59 24.5t-25 58.5z" />
    <glyph glyph-name="uni0122" unicode="&#x122;" horiz-adv-x="1417" 
d="M666 -20q-260 0 -406.5 150.5t-146.5 449.5q0 139 32 268t96.5 239t154.5 191.5t213 127.5t265 46q209 0 332 -94t142 -266h-119q-25 120 -115 184.5t-244 64.5q-121 0 -224.5 -41t-178 -112.5t-127 -167.5t-78.5 -206t-26 -228q0 -248 115.5 -372t322.5 -124
q217 0 357 134t179 394l-387 -6l17 107h508l-15 -84q-51 -323 -222 -489t-445 -166zM487 -408l11 66q122 6 131 113q-47 0 -76 24.5t-29 65.5q0 42 28.5 70t72.5 28q43 0 70.5 -32.5t27.5 -94.5q0 -94 -58 -167t-165 -73h-13z" />
    <glyph glyph-name="uni0123" unicode="&#x123;" horiz-adv-x="1183" 
d="M463 20q-83 0 -154 25t-127 74t-87.5 130.5t-31.5 186.5q0 175 68.5 322t199 237t296.5 90q127 0 226.5 -51.5t141.5 -152.5l31 184h121l-148 -938l-20 -117q-16 -99 -58.5 -177t-97.5 -126t-126 -79.5t-140 -43.5t-143 -12q-90 0 -166.5 19t-136.5 56.5t-89 101
t-16 145.5h107q-12 -102 73.5 -163t237.5 -61q81 0 150.5 18.5t129 58t99.5 106.5t55 157l21 117l14 98q-75 -100 -190.5 -152.5t-239.5 -52.5zM182 461q0 -165 89.5 -250.5t228.5 -85.5q132 0 239 71.5t164.5 189t57.5 255.5q0 169 -91 255.5t-235 86.5q-133 0 -238 -72.5
t-160 -191t-55 -258.5zM535 1290q0 94 58 167t165 73h12l-10 -66q-122 -6 -131 -112q47 0 75.5 -24.5t28.5 -65.5q0 -42 -28 -70.5t-72 -28.5q-43 0 -70.5 32.5t-27.5 94.5z" />
    <glyph glyph-name="Hcircumflex" unicode="&#x124;" horiz-adv-x="1306" 
d="M975 0l102 645h-813l-102 -645h-125l227 1434h125l-108 -682h813l108 682h125l-227 -1434h-125zM522 1565l250 260h168l166 -260h-115l-141 217l-205 -217h-123z" />
    <glyph glyph-name="hcircumflex" unicode="&#x125;" 
d="M37 0l227 1434h121l-90 -566q16 31 46 64t78 70t121.5 60t157.5 23q64 0 117.5 -14t101 -45t75 -81.5t39 -123.5t-6.5 -170l-102 -651h-121l100 631q26 167 -34.5 258.5t-215.5 91.5q-152 0 -256 -88.5t-133 -239.5l-104 -653h-121zM51 1565l250 260h168l166 -260h-115
l-141 217l-205 -217h-123z" />
    <glyph glyph-name="Hbar" unicode="&#x126;" horiz-adv-x="1310" 
d="M975 0l102 645h-813l-102 -645h-125l227 1434h125l-55 -355h813l55 355h125l-227 -1434h-125zM281 752h813l34 221h-813z" />
    <glyph glyph-name="hbar" unicode="&#x127;" horiz-adv-x="1128" 
d="M96 1253l8 70h142l18 111h121l-18 -111h301l-9 -70h-303l-61 -385q16 31 46 64t78 70t121.5 60t157.5 23q64 0 117.5 -14t101 -45t75 -81.5t39 -123.5t-6.5 -170l-102 -651h-121l100 631q26 167 -34.5 258.5t-215.5 91.5q-152 0 -256 -88.5t-133 -239.5l-104 -653h-121
l199 1253h-140z" />
    <glyph glyph-name="Itilde" unicode="&#x128;" horiz-adv-x="368" 
d="M37 0l227 1434h125l-227 -1434h-125zM49 1661q13 92 62.5 138t121.5 46q41 0 73.5 -15t54 -36.5t41.5 -42.5t46 -36t56 -15q49 0 75.5 30.5t30.5 69.5h84q-13 -92 -63 -138t-123 -46q-40 0 -72.5 15t-54 36t-41.5 42.5t-46 36.5t-56 15q-49 0 -75.5 -30.5t-31.5 -69.5
h-82z" />
    <glyph glyph-name="itilde" unicode="&#x129;" horiz-adv-x="315" 
d="M14 0l168 1065h121l-168 -1065h-121zM-37 1292q13 92 62.5 138.5t121.5 46.5q41 0 73.5 -15t54 -36.5t41.5 -43t46 -36.5t56 -15q49 0 75.5 31t30.5 70h84q-13 -92 -63.5 -138.5t-122.5 -46.5q-40 0 -72.5 15t-54 36.5t-41.5 43t-46 36.5t-56 15q-49 0 -75 -31t-32 -70
h-82z" />
    <glyph glyph-name="Imacron" unicode="&#x12a;" horiz-adv-x="368" 
d="M37 0l227 1434h125l-227 -1434h-125zM84 1743l12 82h584l-12 -82h-584z" />
    <glyph glyph-name="imacron" unicode="&#x12b;" horiz-adv-x="315" 
d="M14 0l168 1065h121l-168 -1065h-121zM0 1374l12 82h584l-12 -82h-584z" />
    <glyph glyph-name="Iogonek" unicode="&#x12e;" horiz-adv-x="368" 
d="M57 -375q-104 -21 -180 23.5t-76 142.5q0 93 68.5 160t173.5 88l221 1395h125l-227 -1432l2 -2q-115 0 -189.5 -51.5t-74.5 -136.5q0 -64 45.5 -92t124.5 -17z" />
    <glyph glyph-name="iogonek" unicode="&#x12f;" horiz-adv-x="315" 
d="M293 1303q-34 0 -59 24.5t-25 58.5t25 59t59 25t59 -25t25 -59t-25 -58.5t-59 -24.5zM-227 -209q0 94 70.5 162t176.5 86l162 1026h121l-168 -1065q-115 0 -189.5 -51.5t-74.5 -136.5q0 -64 45.5 -92t124.5 -17l-12 -78q-104 -21 -180 23.5t-76 142.5z" />
    <glyph glyph-name="Idotaccent" unicode="&#x130;" horiz-adv-x="368" 
d="M37 0l227 1434h125l-227 -1434h-125zM295 1755q0 34 25 59t59 25t59 -25t25 -59t-25 -59t-59 -25t-59 25t-25 59z" />
    <glyph glyph-name="dotlessi" unicode="&#x131;" horiz-adv-x="315" 
d="M14 0l168 1065h121l-168 -1065h-121z" />
    <glyph glyph-name="IJ" unicode="&#x132;" horiz-adv-x="1685" 
d="M37 0l227 1434h125l-227 -1434h-125zM492 541h126q-35 -212 60 -330.5t291 -118.5q192 0 315 118t158 337l141 887h125l-141 -893q-43 -266 -203 -413.5t-408 -147.5q-253 0 -379.5 149t-84.5 412z" />
    <glyph glyph-name="ij" unicode="&#x133;" horiz-adv-x="749" 
d="M37 0l168 1065h121l-168 -1065h-121zM135 -375l17 96h55q93 0 137 36.5t57 129.5l189 1178h121l-193 -1204q-36 -242 -289 -242q-39 0 -94 6zM233 1386q0 34 25 59t59 25t59 -25t25 -59t-25 -58.5t-59 -24.5t-59 24.5t-25 58.5zM618 1386q0 34 24.5 59t59.5 25
q34 0 59 -25t25 -59t-25 -58.5t-59 -24.5q-35 0 -59.5 24.5t-24.5 58.5z" />
    <glyph glyph-name="Jcircumflex" unicode="&#x134;" horiz-adv-x="1316" 
d="M588 -20q-253 0 -380 149t-85 412h127q-35 -212 59.5 -330.5t290.5 -118.5q192 0 315 118t158 337l141 887h125l-141 -893q-43 -266 -202.5 -413.5t-407.5 -147.5zM1006 1565l249 260h168l166 -260h-114l-142 217l-205 -217h-122z" />
    <glyph glyph-name="jcircumflex" unicode="&#x135;" horiz-adv-x="378" 
d="M-115 -381q-39 0 -94 6l16 96h56q93 0 137 36.5t57 129.5l189 1178h121l-193 -1204q-38 -242 -289 -242zM33 1196l250 260h168l165 -260h-114l-142 217l-204 -217h-123z" />
    <glyph glyph-name="uni0136" unicode="&#x136;" horiz-adv-x="1257" 
d="M37 0l227 1434h125l-131 -834l889 834h153l-712 -668l536 -766h-147l-481 680l-267 -250l-67 -430h-125zM395 -408l11 66q122 6 131 113q-47 0 -76 24.5t-29 65.5q0 42 28 70t72 28t71.5 -32.5t27.5 -94.5q0 -94 -58 -167t-165 -73h-13z" />
    <glyph glyph-name="uni0137" unicode="&#x137;" horiz-adv-x="1077" 
d="M37 0l227 1434h121l-156 -983l697 614h145l-532 -465l426 -600h-138l-376 524l-244 -213l-49 -311h-121zM301 -408l10 66q122 6 131 113q-47 0 -75.5 24.5t-28.5 65.5q0 42 28 70t72 28t71.5 -32.5t27.5 -94.5q0 -94 -58.5 -167t-165.5 -73h-12z" />
    <glyph glyph-name="Lacute" unicode="&#x139;" horiz-adv-x="1075" 
d="M37 0l227 1434h125l-209 -1321h758l-18 -113h-883zM276 1561l246 264h113l-246 -264h-113z" />
    <glyph glyph-name="lacute" unicode="&#x13a;" horiz-adv-x="364" 
d="M37 0l227 1434h121l-227 -1434h-121zM248 1561l246 264h112l-246 -264h-112z" />
    <glyph glyph-name="uni013B" unicode="&#x13b;" horiz-adv-x="1075" 
d="M37 0l227 1434h125l-209 -1321h758l-18 -113h-883zM307 -418l10 66q123 6 132 112q-47 0 -76 24.5t-29 65.5q0 42 28 70.5t72 28.5t71.5 -32.5t27.5 -94.5q0 -94 -58.5 -167t-165.5 -73h-12z" />
    <glyph glyph-name="uni013C" unicode="&#x13c;" horiz-adv-x="364" 
d="M37 0l227 1434h121l-227 -1434h-121zM-68 -408l11 66q122 6 131 113q-47 0 -76 24.5t-29 65.5q0 42 28.5 70t72.5 28q43 0 70.5 -32.5t27.5 -94.5q0 -94 -58 -167t-165 -73h-13z" />
    <glyph glyph-name="Lcaron" unicode="&#x13d;" horiz-adv-x="1075" 
d="M37 0l227 1434h125l-209 -1321h758l-18 -113h-883zM543 1087l10 66q122 6 131 113q-47 0 -75.5 24.5t-28.5 65.5q0 42 28 70t72 28q43 0 70.5 -32.5t27.5 -94.5q0 -94 -58 -167t-165 -73h-12z" />
    <glyph glyph-name="lcaron" unicode="&#x13e;" horiz-adv-x="411" 
d="M389 965l127 469h109l-125 -469h-111zM37 0l227 1434h121l-227 -1434h-121z" />
    <glyph glyph-name="Lslash" unicode="&#x141;" horiz-adv-x="1144" 
d="M14 365l23 137l176 157l123 775h125l-103 -643l304 270h2l-21 -135l-305 -273l-86 -540h758l-19 -113h-882l81 522z" />
    <glyph glyph-name="lslash" unicode="&#x142;" horiz-adv-x="423" 
d="M-16 362l22 142l174 203l115 727h121l-88 -555l168 196h2l-21 -141l-172 -199l-117 -735h-120l90 563z" />
    <glyph glyph-name="Nacute" unicode="&#x143;" horiz-adv-x="1331" 
d="M37 0l227 1434h148l612 -1248h6l197 1248h125l-228 -1434h-149l-610 1245h-5l-198 -1245h-125zM733 1561l246 264h113l-246 -264h-113z" />
    <glyph glyph-name="nacute" unicode="&#x144;" 
d="M901 631q26 167 -34.5 258.5t-215.5 91.5q-156 0 -261.5 -93t-131.5 -251l-100 -637h-121l168 1065h121l-31 -199q13 24 33.5 50.5t56.5 57.5t79 55t104.5 40t129.5 16q64 0 117.5 -14t101 -45t75 -81.5t39 -123.5t-6.5 -170l-102 -651h-121zM573 1192l246 264h113
l-246 -264h-113z" />
    <glyph glyph-name="uni0145" unicode="&#x145;" horiz-adv-x="1331" 
d="M37 0l227 1434h148l612 -1248h6l197 1248h125l-228 -1434h-149l-610 1245h-5l-198 -1245h-125zM418 -408l10 66q122 6 131 113q-47 0 -75.5 24.5t-28.5 65.5q0 42 28 70t72 28q43 0 70.5 -32.5t27.5 -94.5q0 -94 -58 -167t-165 -73h-12z" />
    <glyph glyph-name="uni0146" unicode="&#x146;" 
d="M901 631q26 167 -34.5 258.5t-215.5 91.5q-156 0 -261.5 -93t-131.5 -251l-100 -637h-121l168 1065h121l-31 -199q13 24 33.5 50.5t56.5 57.5t79 55t104.5 40t129.5 16q64 0 117.5 -14t101 -45t75 -81.5t39 -123.5t-6.5 -170l-102 -651h-121zM317 -408l11 66
q122 6 131 113q-47 0 -76 24.5t-29 65.5q0 42 28.5 70t72.5 28q43 0 70.5 -32.5t27.5 -94.5q0 -94 -58 -167t-165 -73h-13z" />
    <glyph glyph-name="Ncaron" unicode="&#x147;" horiz-adv-x="1331" 
d="M37 0l227 1434h148l612 -1248h6l197 1248h125l-228 -1434h-149l-610 1245h-5l-198 -1245h-125zM582 1825h114l142 -217l204 217h123l-250 -260h-167z" />
    <glyph glyph-name="ncaron" unicode="&#x148;" 
d="M901 631q26 167 -34.5 258.5t-215.5 91.5q-156 0 -261.5 -93t-131.5 -251l-100 -637h-121l168 1065h121l-31 -199q13 24 33.5 50.5t56.5 57.5t79 55t104.5 40t129.5 16q64 0 117.5 -14t101 -45t75 -81.5t39 -123.5t-6.5 -170l-102 -651h-121zM424 1456h115l141 -217
l205 217h123l-250 -260h-168z" />
    <glyph glyph-name="Eng" unicode="&#x14a;" horiz-adv-x="1335" 
d="M518 -451q-142 0 -237 50l20 122q91 -59 231 -59q165 0 283.5 83.5t173.5 240.5l-624 1259h-5l-198 -1245h-125l227 1434h146l618 -1250h4l199 1250h125l-211 -1323q-41 -264 -208 -413t-419 -149z" />
    <glyph glyph-name="eng" unicode="&#x14b;" 
d="M612 -451q-110 0 -176 48l17 102q80 -41 157 -41q68 0 109 44t53 122l29 176l100 631q26 167 -34.5 258.5t-215.5 91.5q-156 0 -261.5 -93t-131.5 -251l-100 -637h-121l168 1065h121l-31 -199q13 24 33.5 50.5t56.5 57.5t79 55t104.5 40t129.5 16q64 0 117.5 -14t101 -45
t75 -81.5t39 -123.5t-6.5 -170l-102 -651l-29 -180q-47 -271 -281 -271z" />
    <glyph glyph-name="Omacron" unicode="&#x14c;" horiz-adv-x="1458" 
d="M653 -20q-247 0 -394.5 150t-147.5 441q0 138 33 268t97.5 241t154 194t210.5 130.5t258 47.5q247 0 395 -151t148 -443q0 -136 -33 -265.5t-98 -240t-154.5 -194t-210.5 -131t-258 -47.5zM236 575q0 -244 113.5 -364.5t309.5 -120.5q145 0 265.5 66t197 174.5
t118.5 244.5t42 281q0 244 -114.5 364.5t-309.5 120.5q-117 0 -219 -43t-174.5 -117t-125 -171.5t-78 -208.5t-25.5 -226zM631 1743l12 82h584l-13 -82h-583z" />
    <glyph glyph-name="omacron" unicode="&#x14d;" horiz-adv-x="1150" 
d="M496 -20q-91 0 -168.5 27t-138 80.5t-94.5 140t-34 198.5q0 129 43 248t119 210.5t188.5 146t243.5 54.5q90 0 167 -27t137 -80t94 -140t34 -199q0 -129 -43 -248t-118.5 -210.5t-187.5 -146t-242 -54.5zM182 438q0 -179 91 -267.5t235 -88.5q103 0 191 46t146 122
t91 174.5t33 204.5q0 91 -25.5 160.5t-71 111t-103 62t-126.5 20.5q-103 0 -191 -46t-146 -122t-91 -174t-33 -203zM416 1374l12 82h584l-13 -82h-583z" />
    <glyph glyph-name="Ohungarumlaut" unicode="&#x150;" horiz-adv-x="1458" 
d="M653 -20q-247 0 -394.5 150t-147.5 441q0 138 33 268t97.5 241t154 194t210.5 130.5t258 47.5q247 0 395 -151t148 -443q0 -136 -33 -265.5t-98 -240t-154.5 -194t-210.5 -131t-258 -47.5zM236 575q0 -244 113.5 -364.5t309.5 -120.5q145 0 265.5 66t197 174.5
t118.5 244.5t42 281q0 244 -114.5 364.5t-309.5 120.5q-117 0 -219 -43t-174.5 -117t-125 -171.5t-78 -208.5t-25.5 -226zM666 1561l245 264h113l-246 -264h-112zM928 1561l246 264h112l-246 -264h-112z" />
    <glyph glyph-name="ohungarumlaut" unicode="&#x151;" horiz-adv-x="1150" 
d="M496 -20q-91 0 -168.5 27t-138 80.5t-94.5 140t-34 198.5q0 129 43 248t119 210.5t188.5 146t243.5 54.5q90 0 167 -27t137 -80t94 -140t34 -199q0 -129 -43 -248t-118.5 -210.5t-187.5 -146t-242 -54.5zM182 438q0 -179 91 -267.5t235 -88.5q103 0 191 46t146 122
t91 174.5t33 204.5q0 91 -25.5 160.5t-71 111t-103 62t-126.5 20.5q-103 0 -191 -46t-146 -122t-91 -174t-33 -203zM451 1192l245 264h113l-246 -264h-112zM713 1192l245 264h113l-246 -264h-112z" />
    <glyph glyph-name="OE" unicode="&#x152;" horiz-adv-x="2228" 
d="M653 -20q-247 0 -394.5 150t-147.5 441q0 138 33 268t97.5 241t154 194t210.5 130.5t258 47.5q170 0 295.5 -71.5t188.5 -213.5l43 267h890l-18 -113h-766l-82 -528h703l-17 -107h-702l-92 -573h784l-16 -113h-912l39 244q-100 -124 -240.5 -194t-308.5 -70zM236 575
q0 -244 113.5 -364.5t309.5 -120.5q145 0 265.5 66t197 174.5t118.5 244.5t42 281q0 244 -114.5 364.5t-309.5 120.5q-117 0 -219 -43t-174.5 -117t-125 -171.5t-78 -208.5t-25.5 -226z" />
    <glyph glyph-name="oe" unicode="&#x153;" horiz-adv-x="1990" 
d="M496 -20q-91 0 -168.5 27t-138 80.5t-94.5 140t-34 198.5q0 129 43 248t119 210.5t188.5 146t243.5 54.5q146 0 255.5 -69t152.5 -205q75 128 197 201t280 73q184 0 289.5 -100.5t105.5 -288.5q0 -133 -26 -200h-828q-2 -23 -2 -68q0 -181 81 -265.5t241 -84.5
q249 0 354 207h111q-137 -305 -480 -305q-159 0 -263 69t-142 207q-79 -127 -204.5 -201.5t-280.5 -74.5zM182 438q0 -179 91 -267.5t235 -88.5q103 0 191 46t146 122t91 174.5t33 204.5q0 91 -25.5 160.5t-71 111t-103 62t-126.5 20.5q-103 0 -191 -46t-146 -122t-91 -174
t-33 -203zM1096 588h716q36 191 -43.5 295t-242.5 104q-89 0 -163.5 -31.5t-127 -87t-87.5 -126t-52 -154.5z" />
    <glyph glyph-name="Racute" unicode="&#x154;" horiz-adv-x="1290" 
d="M971 0q-33 38 -4 240l18 120q41 248 -235 248h-492l-96 -608h-125l227 1434h555q205 0 307.5 -87.5t102.5 -250.5q0 -152 -83 -268t-226 -158q123 -29 168.5 -103.5t23.5 -206.5l-20 -120q-29 -199 4 -240h-125zM274 713h420q190 0 299 99t109 259q0 129 -77 190.5
t-232 61.5h-422zM696 1561l246 264h113l-246 -264h-113z" />
    <glyph glyph-name="racute" unicode="&#x155;" horiz-adv-x="718" 
d="M37 0l168 1065h121l-37 -231h4q17 40 47.5 78.5t76.5 76.5t113.5 61t145.5 23q49 0 78 -10l-17 -105q-37 9 -75 9q-162 0 -267.5 -96.5t-140.5 -256.5l-96 -614h-121zM385 1192l246 264h112l-245 -264h-113z" />
    <glyph glyph-name="uni0156" unicode="&#x156;" horiz-adv-x="1290" 
d="M971 0q-33 38 -4 240l18 120q41 248 -235 248h-492l-96 -608h-125l227 1434h555q205 0 307.5 -87.5t102.5 -250.5q0 -152 -83 -268t-226 -158q123 -29 168.5 -103.5t23.5 -206.5l-20 -120q-29 -199 4 -240h-125zM274 713h420q190 0 299 99t109 259q0 129 -77 190.5
t-232 61.5h-422zM381 -408l10 66q122 6 131 113q-47 0 -75.5 24.5t-28.5 65.5q0 42 28 70t72 28q43 0 70.5 -32.5t27.5 -94.5q0 -94 -58 -167t-165 -73h-12z" />
    <glyph glyph-name="uni0157" unicode="&#x157;" horiz-adv-x="718" 
d="M37 0l168 1065h121l-37 -231h4q17 40 47.5 78.5t76.5 76.5t113.5 61t145.5 23q49 0 78 -10l-17 -105q-37 9 -75 9q-162 0 -267.5 -96.5t-140.5 -256.5l-96 -614h-121zM-66 -408l11 66q122 6 131 113q-47 0 -76 24.5t-29 65.5q0 42 28.5 70t72.5 28q43 0 70.5 -32.5
t27.5 -94.5q0 -94 -58 -167t-165 -73h-13z" />
    <glyph glyph-name="Rcaron" unicode="&#x158;" horiz-adv-x="1290" 
d="M971 0q-33 38 -4 240l18 120q41 248 -235 248h-492l-96 -608h-125l227 1434h555q205 0 307.5 -87.5t102.5 -250.5q0 -152 -83 -268t-226 -158q123 -29 168.5 -103.5t23.5 -206.5l-20 -120q-29 -199 4 -240h-125zM274 713h420q190 0 299 99t109 259q0 129 -77 190.5
t-232 61.5h-422zM545 1825h114l142 -217l205 217h122l-249 -260h-168z" />
    <glyph glyph-name="rcaron" unicode="&#x159;" horiz-adv-x="718" 
d="M37 0l168 1065h121l-37 -231h4q17 40 47.5 78.5t76.5 76.5t113.5 61t145.5 23q49 0 78 -10l-17 -105q-37 9 -75 9q-162 0 -267.5 -96.5t-140.5 -256.5l-96 -614h-121zM233 1456h115l141 -217l205 217h123l-250 -260h-168z" />
    <glyph glyph-name="Sacute" unicode="&#x15a;" horiz-adv-x="1228" 
d="M541 -20q-253 0 -377 118t-94 301h125q-14 -138 75.5 -224.5t284.5 -86.5q199 0 313.5 90t114.5 242q0 60 -19 104t-57 72.5t-83.5 45.5t-110.5 30l-170 37q-166 37 -247 118.5t-81 214.5q0 187 145.5 298.5t380.5 111.5q226 0 344 -100.5t93 -261.5h-123
q10 110 -72.5 181.5t-253.5 71.5q-179 0 -281 -79t-102 -215q0 -96 60.5 -154.5t193.5 -85.5l170 -37q82 -18 141.5 -42.5t107.5 -64t72.5 -98.5t24.5 -137q0 -206 -159.5 -328t-415.5 -122zM672 1561l246 264h112l-246 -264h-112z" />
    <glyph glyph-name="sacute" unicode="&#x15b;" horiz-adv-x="968" 
d="M412 -20q-86 0 -158.5 18.5t-128 54.5t-83 96.5t-19.5 137.5h110q-2 -57 21.5 -99t67 -64.5t93 -33t107.5 -10.5q141 0 232 58.5t91 170.5q0 76 -45 111t-147 61l-180 47q-119 30 -178.5 88.5t-59.5 155.5q0 145 118 229t308 84q175 0 273 -74.5t86 -224.5h-105
q-1 107 -69.5 153t-192.5 46q-137 0 -219 -51.5t-82 -147.5q0 -64 42 -103t140 -65l174 -45q131 -33 196.5 -87.5t65.5 -163.5t-64 -188.5t-166 -116.5t-228 -37zM494 1192l245 264h113l-246 -264h-112z" />
    <glyph glyph-name="Scircumflex" unicode="&#x15c;" horiz-adv-x="1228" 
d="M541 -20q-253 0 -377 118t-94 301h125q-14 -138 75.5 -224.5t284.5 -86.5q199 0 313.5 90t114.5 242q0 60 -19 104t-57 72.5t-83.5 45.5t-110.5 30l-170 37q-166 37 -247 118.5t-81 214.5q0 187 145.5 298.5t380.5 111.5q226 0 344 -100.5t93 -261.5h-123
q10 110 -72.5 181.5t-253.5 71.5q-179 0 -281 -79t-102 -215q0 -96 60.5 -154.5t193.5 -85.5l170 -37q82 -18 141.5 -42.5t107.5 -64t72.5 -98.5t24.5 -137q0 -206 -159.5 -328t-415.5 -122zM477 1565l250 260h168l166 -260h-115l-141 217l-205 -217h-123z" />
    <glyph glyph-name="scircumflex" unicode="&#x15d;" horiz-adv-x="968" 
d="M412 -20q-86 0 -158.5 18.5t-128 54.5t-83 96.5t-19.5 137.5h110q-2 -57 21.5 -99t67 -64.5t93 -33t107.5 -10.5q141 0 232 58.5t91 170.5q0 76 -45 111t-147 61l-180 47q-119 30 -178.5 88.5t-59.5 155.5q0 145 118 229t308 84q175 0 273 -74.5t86 -224.5h-105
q-1 107 -69.5 153t-192.5 46q-137 0 -219 -51.5t-82 -147.5q0 -64 42 -103t140 -65l174 -45q131 -33 196.5 -87.5t65.5 -163.5t-64 -188.5t-166 -116.5t-228 -37zM299 1196l250 260h168l166 -260h-115l-141 217l-205 -217h-123z" />
    <glyph glyph-name="Scedilla" unicode="&#x15e;" horiz-adv-x="1228" 
d="M360 -358q82 0 132.5 31t50.5 87q0 51 -41.5 69t-106.5 -9l-37 53l107 111q-216 18 -320 133t-75 282h125q-14 -138 75.5 -224.5t284.5 -86.5q199 0 313.5 90t114.5 242q0 60 -19 104t-57 72.5t-83.5 45.5t-110.5 30l-170 37q-166 37 -247 118.5t-81 214.5
q0 187 145.5 298.5t380.5 111.5q226 0 344 -100.5t93 -261.5h-123q10 110 -72.5 181.5t-253.5 71.5q-179 0 -281 -79t-102 -215q0 -96 60.5 -154.5t193.5 -85.5l170 -37q82 -18 141.5 -42.5t107.5 -64t72.5 -98.5t24.5 -137q0 -201 -153 -322.5t-400 -127.5l-84 -80
q8 2 27 2q58 0 95.5 -34.5t37.5 -100.5t-42 -113t-106.5 -68.5t-144.5 -21.5z" />
    <glyph glyph-name="scedilla" unicode="&#x15f;" horiz-adv-x="968" 
d="M242 -358q82 0 132 31t50 87q0 51 -42 69t-106 -9l-36 53l106 109q-156 15 -246.5 91.5t-76.5 213.5h110q-2 -57 21.5 -99t67 -64.5t93 -33t107.5 -10.5q141 0 232 58.5t91 170.5q0 76 -45 111t-147 61l-180 47q-119 30 -178.5 88.5t-59.5 155.5q0 145 118 229t308 84
q175 0 273 -74.5t86 -224.5h-105q-1 107 -69.5 153t-192.5 46q-137 0 -219 -51.5t-82 -147.5q0 -64 42 -103t140 -65l174 -45q131 -33 196.5 -87.5t65.5 -163.5q0 -105 -59 -182t-153.5 -116t-213.5 -44l-84 -80q8 2 27 2q58 0 95.5 -34.5t37.5 -100.5t-42 -113
t-106.5 -68.5t-144.5 -21.5z" />
    <glyph glyph-name="Scaron" unicode="&#x160;" horiz-adv-x="1228" 
d="M541 -20q-253 0 -377 118t-94 301h125q-14 -138 75.5 -224.5t284.5 -86.5q199 0 313.5 90t114.5 242q0 60 -19 104t-57 72.5t-83.5 45.5t-110.5 30l-170 37q-166 37 -247 118.5t-81 214.5q0 187 145.5 298.5t380.5 111.5q226 0 344 -100.5t93 -261.5h-123
q10 110 -72.5 181.5t-253.5 71.5q-179 0 -281 -79t-102 -215q0 -96 60.5 -154.5t193.5 -85.5l170 -37q82 -18 141.5 -42.5t107.5 -64t72.5 -98.5t24.5 -137q0 -206 -159.5 -328t-415.5 -122zM520 1825h115l141 -217l205 217h123l-250 -260h-168z" />
    <glyph glyph-name="scaron" unicode="&#x161;" horiz-adv-x="968" 
d="M412 -20q-86 0 -158.5 18.5t-128 54.5t-83 96.5t-19.5 137.5h110q-2 -57 21.5 -99t67 -64.5t93 -33t107.5 -10.5q141 0 232 58.5t91 170.5q0 76 -45 111t-147 61l-180 47q-119 30 -178.5 88.5t-59.5 155.5q0 145 118 229t308 84q175 0 273 -74.5t86 -224.5h-105
q-1 107 -69.5 153t-192.5 46q-137 0 -219 -51.5t-82 -147.5q0 -64 42 -103t140 -65l174 -45q131 -33 196.5 -87.5t65.5 -163.5t-64 -188.5t-166 -116.5t-228 -37zM342 1456h115l141 -217l205 217h123l-250 -260h-168z" />
    <glyph glyph-name="uni0162" unicode="&#x162;" horiz-adv-x="1173" 
d="M440 0l209 1321h-465l19 113h1054l-20 -113h-463l-209 -1321h-22l-105 -100q8 2 27 2q58 0 95.5 -34.5t37.5 -100.5t-42 -113t-106.5 -68.5t-144.5 -21.5l14 78q82 0 132.5 31t50.5 87q0 51 -42 69t-106 -9l-37 53z" />
    <glyph glyph-name="uni0163" unicode="&#x163;" horiz-adv-x="630" 
d="M385 -14h-29l-90 -86q8 2 27 2q58 0 95.5 -34.5t37.5 -100.5t-42 -113t-106.5 -68.5t-144.5 -21.5l14 78q82 0 132.5 31t50.5 87q0 51 -42 69t-106 -9l-37 53l123 127h11q-138 46 -107 227l115 738h-168l14 100h170l41 264h121l-41 -264h213l-14 -100h-215l-111 -711
q-15 -93 16.5 -129.5t122.5 -36.5h64l-17 -96q-33 -6 -98 -6z" />
    <glyph glyph-name="Tcaron" unicode="&#x164;" horiz-adv-x="1173" 
d="M440 0l209 1321h-465l19 113h1054l-20 -113h-463l-209 -1321h-125zM502 1825h114l142 -217l205 217h122l-249 -260h-168z" />
    <glyph glyph-name="tcaron" unicode="&#x165;" horiz-adv-x="610" 
d="M385 -14q-254 0 -213 241l115 738h-168l14 100h170l41 264h121l-41 -264h213l-14 -100h-215l-111 -711q-15 -93 16.5 -129.5t122.5 -36.5h64l-17 -96q-33 -6 -98 -6zM498 1186l245 264h113l-246 -264h-112z" />
    <glyph glyph-name="Tbar" unicode="&#x166;" horiz-adv-x="1173" 
d="M303 965l16 94h289l41 262h-465l19 113h1054l-20 -113h-463l-41 -262h287l-16 -94h-287l-152 -965h-125l152 965h-289z" />
    <glyph glyph-name="tbar" unicode="&#x167;" horiz-adv-x="630" 
d="M74 686l16 98h168l29 181h-168l14 100h170l41 264h121l-41 -264h213l-14 -100h-215l-29 -181h213l-17 -98h-210l-68 -432q-15 -93 16.5 -129.5t122.5 -36.5h64l-17 -96q-33 -6 -98 -6q-254 0 -213 241l72 459h-170z" />
    <glyph glyph-name="Utilde" unicode="&#x168;" horiz-adv-x="1318" 
d="M580 -20q-252 0 -375 148.5t-82 412.5l141 893h127l-141 -887q-35 -218 58 -336.5t290 -118.5q195 0 318 117.5t157 337.5l141 887h127l-141 -893q-43 -265 -206 -413t-414 -148zM522 1661q13 92 63 138t122 46q41 0 73.5 -15t54 -36.5t41.5 -42.5t45.5 -36t55.5 -15
q49 0 75.5 30.5t30.5 69.5h84q-13 -92 -63 -138t-123 -46q-40 0 -72.5 15t-54 36t-41.5 42.5t-46 36.5t-56 15q-49 0 -75.5 -30.5t-31.5 -69.5h-82z" />
    <glyph glyph-name="utilde" unicode="&#x169;" 
d="M225 434q-26 -167 34.5 -258.5t215.5 -91.5q156 0 261.5 93t131.5 251l101 637h121l-168 -1065h-121l30 199q-13 -24 -33.5 -50.5t-56.5 -57.5t-79 -55t-104.5 -40t-129.5 -16q-64 0 -117.5 14t-101 45t-75 81.5t-39 123.5t6.5 170l103 651h121zM358 1292q13 92 63 138.5
t122 46.5q41 0 73.5 -15t54 -36.5t41.5 -43t45.5 -36.5t55.5 -15q49 0 76 31.5t31 69.5h84q-13 -92 -64 -138.5t-123 -46.5q-40 0 -72.5 15t-54 36.5t-41.5 43t-46 36.5t-56 15q-49 0 -75 -31t-32 -70h-82z" />
    <glyph glyph-name="Umacron" unicode="&#x16a;" horiz-adv-x="1318" 
d="M580 -20q-252 0 -375 148.5t-82 412.5l141 893h127l-141 -887q-35 -218 58 -336.5t290 -118.5q195 0 318 117.5t157 337.5l141 887h127l-141 -893q-43 -265 -206 -413t-414 -148zM559 1743l12 82h584l-12 -82h-584z" />
    <glyph glyph-name="umacron" unicode="&#x16b;" 
d="M225 434q-26 -167 34.5 -258.5t215.5 -91.5q156 0 261.5 93t131.5 251l101 637h121l-168 -1065h-121l30 199q-13 -24 -33.5 -50.5t-56.5 -57.5t-79 -55t-104.5 -40t-129.5 -16q-64 0 -117.5 14t-101 45t-75 81.5t-39 123.5t6.5 170l103 651h121zM397 1374l13 82h583
l-12 -82h-584z" />
    <glyph glyph-name="Ubreve" unicode="&#x16c;" horiz-adv-x="1318" 
d="M580 -20q-252 0 -375 148.5t-82 412.5l141 893h127l-141 -887q-35 -218 58 -336.5t290 -118.5q195 0 318 117.5t157 337.5l141 887h127l-141 -893q-43 -265 -206 -413t-414 -148zM590 1825h88q-18 -168 162 -168q95 0 146.5 45.5t64.5 122.5h88q-17 -107 -92 -177.5
t-218 -70.5q-73 0 -125 20.5t-78 56.5t-34.5 78.5t-1.5 92.5z" />
    <glyph glyph-name="ubreve" unicode="&#x16d;" 
d="M225 434q-26 -167 34.5 -258.5t215.5 -91.5q156 0 261.5 93t131.5 251l101 637h121l-168 -1065h-121l30 199q-13 -24 -33.5 -50.5t-56.5 -57.5t-79 -55t-104.5 -40t-129.5 -16q-64 0 -117.5 14t-101 45t-75 81.5t-39 123.5t6.5 170l103 651h121zM426 1456h88
q-18 -168 162 -168q95 0 146.5 45.5t64.5 122.5h88q-8 -50 -28.5 -92.5t-56 -78.5t-93 -56.5t-131.5 -20.5q-73 0 -125 20.5t-78 56t-35 78.5t-2 93z" />
    <glyph glyph-name="Uring" unicode="&#x16e;" horiz-adv-x="1318" 
d="M580 -20q-252 0 -375 148.5t-82 412.5l141 893h127l-141 -887q-35 -218 58 -336.5t290 -118.5q195 0 318 117.5t157 337.5l141 887h127l-141 -893q-43 -265 -206 -413t-414 -148zM678 1710q0 69 49 117.5t121 48.5t121 -48.5t49 -117.5q0 -68 -49.5 -117t-120.5 -49
t-120.5 49t-49.5 117zM748 1710q0 -41 29.5 -69.5t70.5 -28.5t70.5 28.5t29.5 69.5q0 42 -29 71t-71 29t-71 -29t-29 -71z" />
    <glyph glyph-name="uring" unicode="&#x16f;" 
d="M225 434q-26 -167 34.5 -258.5t215.5 -91.5q156 0 261.5 93t131.5 251l101 637h121l-168 -1065h-121l30 199q-13 -24 -33.5 -50.5t-56.5 -57.5t-79 -55t-104.5 -40t-129.5 -16q-64 0 -117.5 14t-101 45t-75 81.5t-39 123.5t6.5 170l103 651h121zM516 1341q0 69 49 117.5
t121 48.5t121 -48.5t49 -117.5q0 -68 -49.5 -116.5t-120.5 -48.5t-120.5 48.5t-49.5 116.5zM586 1341q0 -41 29.5 -69.5t70.5 -28.5t70.5 28.5t29.5 69.5q0 43 -29 72t-71 29t-71 -29t-29 -72z" />
    <glyph glyph-name="Uhungarumlaut" unicode="&#x170;" horiz-adv-x="1318" 
d="M580 -20q-252 0 -375 148.5t-82 412.5l141 893h127l-141 -887q-35 -218 58 -336.5t290 -118.5q195 0 318 117.5t157 337.5l141 887h127l-141 -893q-43 -265 -206 -413t-414 -148zM594 1561l246 264h112l-245 -264h-113zM856 1561l246 264h112l-245 -264h-113z" />
    <glyph glyph-name="uhungarumlaut" unicode="&#x171;" 
d="M225 434q-26 -167 34.5 -258.5t215.5 -91.5q156 0 261.5 93t131.5 251l101 637h121l-168 -1065h-121l30 199q-13 -24 -33.5 -50.5t-56.5 -57.5t-79 -55t-104.5 -40t-129.5 -16q-64 0 -117.5 14t-101 45t-75 81.5t-39 123.5t6.5 170l103 651h121zM432 1192l246 264h113
l-246 -264h-113zM694 1192l246 264h113l-246 -264h-113z" />
    <glyph glyph-name="Uogonek" unicode="&#x172;" horiz-adv-x="1318" 
d="M690 -375q-103 -21 -179.5 24t-76.5 142q0 115 103 191q-231 12 -342 159t-72 400l141 893h127l-141 -887q-35 -218 58 -336.5t290 -118.5q195 0 318 117.5t157 337.5l141 887h127l-141 -893q-37 -228 -163.5 -370t-323.5 -179q-81 -18 -129.5 -65t-48.5 -115
q0 -65 44.5 -92.5t122.5 -16.5z" />
    <glyph glyph-name="uogonek" unicode="&#x173;" 
d="M225 434q-26 -167 34.5 -258.5t215.5 -91.5q156 0 261.5 93t131.5 251l101 637h121l-168 -1065q-115 0 -190 -51.5t-75 -136.5q0 -64 45.5 -92t124.5 -17l-12 -78q-104 -21 -180 23.5t-76 142.5q0 94 71 162t177 86l24 160q-13 -24 -33.5 -50.5t-56.5 -57.5t-79 -55
t-104.5 -40t-129.5 -16q-64 0 -117.5 14t-101 45t-75 81.5t-39 123.5t6.5 170l103 651h121z" />
    <glyph glyph-name="Wcircumflex" unicode="&#x174;" horiz-adv-x="1957" 
d="M365 0l-162 1434h129l131 -1260h6l584 1260h137l184 -1260h8l529 1260h131l-612 -1434h-142l-192 1274l-592 -1274h-139zM848 1565l250 260h168l166 -260h-115l-141 217l-205 -217h-123z" />
    <glyph glyph-name="wcircumflex" unicode="&#x175;" horiz-adv-x="1607" 
d="M276 0l-143 1065h119l117 -936h8l450 936h113l164 -936h8l410 936h118l-471 -1065h-145l-162 905l-440 -905h-146zM614 1196l250 260h168l166 -260h-115l-141 217l-205 -217h-123z" />
    <glyph glyph-name="Ycircumflex" unicode="&#x176;" horiz-adv-x="1300" 
d="M504 0l90 571l-391 863h141l332 -740l563 740h145l-665 -863l-90 -571h-125zM520 1565l250 260h168l166 -260h-115l-141 217l-205 -217h-123z" />
    <glyph glyph-name="ycircumflex" unicode="&#x177;" horiz-adv-x="1067" 
d="M33 -285q193 -28 311 181q47 82 33 143l-244 1026h123l213 -936l506 936h127l-651 -1180q-91 -163 -197 -228.5t-238 -47.5zM348 1196l250 260h168l166 -260h-115l-141 217l-205 -217h-123z" />
    <glyph glyph-name="Ydieresis" unicode="&#x178;" horiz-adv-x="1300" 
d="M504 0l90 571l-391 863h141l332 -740l563 740h145l-665 -863l-90 -571h-125zM586 1755q0 34 25 59t59 25t59 -25t25 -59t-25 -59t-59 -25t-59 25t-25 59zM938 1755q0 34 25 59t59 25t59 -25t25 -59t-25 -59t-59 -25t-59 25t-25 59z" />
    <glyph glyph-name="Zacute" unicode="&#x179;" horiz-adv-x="1243" 
d="M-2 0l16 113l1116 1208h-882l18 113h1030l-22 -113l-1114 -1208h934l-17 -113h-1079zM696 1561l246 264h113l-246 -264h-113z" />
    <glyph glyph-name="zacute" unicode="&#x17a;" horiz-adv-x="1011" 
d="M-2 0l16 104l836 857h-680l16 104h828l-19 -104l-833 -857h700l-16 -104h-848zM510 1192l246 264h112l-245 -264h-113z" />
    <glyph glyph-name="Zdotaccent" unicode="&#x17b;" horiz-adv-x="1243" 
d="M-2 0l16 113l1116 1208h-882l18 113h1030l-22 -113l-1114 -1208h934l-17 -113h-1079zM741 1755q0 34 25 59t59 25t59 -25t25 -59t-25 -59t-59 -25t-59 25t-25 59z" />
    <glyph glyph-name="zdotaccent" unicode="&#x17c;" horiz-adv-x="1011" 
d="M-2 0l16 104l836 857h-680l16 104h828l-19 -104l-833 -857h700l-16 -104h-848zM555 1386q0 34 25 59t59 25t59 -25t25 -59t-25 -58.5t-59 -24.5t-59 24.5t-25 58.5z" />
    <glyph glyph-name="Zcaron" unicode="&#x17d;" horiz-adv-x="1243" 
d="M-2 0l16 113l1116 1208h-882l18 113h1030l-22 -113l-1114 -1208h934l-17 -113h-1079zM545 1825h114l142 -217l205 217h122l-249 -260h-168z" />
    <glyph glyph-name="zcaron" unicode="&#x17e;" horiz-adv-x="1011" 
d="M-2 0l16 104l836 857h-680l16 104h828l-19 -104l-833 -857h700l-16 -104h-848zM358 1456h115l141 -217l205 217h123l-250 -260h-168z" />
    <glyph glyph-name="uni018F" unicode="&#x18f;" horiz-adv-x="1406" 
d="M586 -20q-279 0 -404.5 168.5t-72.5 490.5l12 80h1100q8 63 8 139q0 483 -426 483q-155 0 -267.5 -65t-175.5 -184h-124q73 174 225 267t356 93q252 0 395.5 -146t143.5 -436q0 -135 -30 -262.5t-93 -241.5t-152.5 -200t-217 -136t-277.5 -50zM223 612
q-42 -260 57.5 -391t317.5 -131q123 0 226.5 41.5t176.5 115t122.5 165t76.5 200.5h-977z" />
    <glyph glyph-name="florin" unicode="&#x192;" horiz-adv-x="598" 
d="M-80 -283q92 0 148 51t75 173l133 831h-170l19 107h168l39 245q14 94 45.5 158.5t80 99.5t104.5 49.5t130 14.5l-16 -109q-94 0 -149 -48.5t-76 -172.5l-37 -237h188l-16 -107h-189l-133 -840q-12 -76 -37.5 -133t-58.5 -92.5t-77.5 -57.5t-89 -30t-97.5 -8z" />
    <glyph glyph-name="Ohorn" unicode="&#x1a0;" horiz-adv-x="1458" 
d="M653 -20q-247 0 -394.5 150t-147.5 441q0 138 33 268t97.5 241t154 194t210.5 130.5t258 47.5h516l27 162h106l-40 -260h-273q207 -151 207 -496q0 -136 -33 -265.5t-98 -240t-154.5 -194t-210.5 -131t-258 -47.5zM236 575q0 -244 113.5 -364.5t309.5 -120.5
q145 0 265.5 66t197 174.5t118.5 244.5t42 281q0 244 -114.5 364.5t-309.5 120.5q-117 0 -219 -43t-174.5 -117t-125 -171.5t-78 -208.5t-25.5 -226z" />
    <glyph glyph-name="ohorn" unicode="&#x1a1;" horiz-adv-x="1150" 
d="M496 -20q-91 0 -168.5 27t-138 80.5t-94.5 140t-34 198.5q0 129 43 248t119 210.5t188.5 146t243.5 54.5h349l24 160h102l-40 -256h-144q141 -121 141 -350q0 -129 -43 -248t-118.5 -210.5t-187.5 -146t-242 -54.5zM182 438q0 -179 91 -267.5t235 -88.5q103 0 191 46
t146 122t91 174.5t33 204.5q0 91 -25.5 160.5t-71 111t-103 62t-126.5 20.5q-103 0 -191 -46t-146 -122t-91 -174t-33 -203z" />
    <glyph glyph-name="Uhorn" unicode="&#x1af;" horiz-adv-x="1318" 
d="M580 -20q-252 0 -375 148.5t-82 412.5l141 893h127l-141 -887q-35 -218 58 -336.5t290 -118.5q195 0 318 117.5t157 337.5l141 887h207l27 180h106l-26 -180l-17 -103h-186l-125 -790q-43 -265 -206 -413t-414 -148z" />
    <glyph glyph-name="uhorn" unicode="&#x1b0;" 
d="M225 434q-26 -167 34.5 -258.5t215.5 -91.5q156 0 261.5 93t131.5 251l101 637h207l26 180h107l-27 -180l-16 -102h-193l-151 -963h-121l30 199q-13 -24 -33.5 -50.5t-56.5 -57.5t-79 -55t-104.5 -40t-129.5 -16q-64 0 -117.5 14t-101 45t-75 81.5t-39 123.5t6.5 170
l103 651h121z" />
    <glyph glyph-name="uni01CD" unicode="&#x1cd;" horiz-adv-x="1361" 
d="M-35 0l785 1434h149l330 -1434h-131l-86 387h-703l-209 -387h-135zM362 485h627l-180 807h-8zM600 1825h115l141 -217l205 217h123l-250 -260h-168z" />
    <glyph glyph-name="uni01CE" unicode="&#x1ce;" horiz-adv-x="1077" 
d="M332 -20q-144 0 -224.5 62.5t-80.5 186.5q0 140 101.5 226.5t281.5 107.5l278 33q93 11 129 29t43 59l6 43q25 143 -37 203.5t-215 60.5q-148 0 -227 -53t-98 -166l-4 -24h-117l6 32q45 305 459 305q209 0 296.5 -85t57.5 -273l-115 -727h-116l30 193h-6
q-18 -27 -52.5 -59.5t-89.5 -69t-136 -60.5t-170 -24zM147 244q0 -164 218 -164q76 0 146.5 20t121.5 51.5t91 70.5t61.5 77t25.5 70l29 188q-16 -41 -176 -59l-238 -27q-132 -15 -205.5 -72.5t-73.5 -154.5zM395 1456h115l141 -217l205 217h123l-250 -260h-168z" />
    <glyph glyph-name="uni01CF" unicode="&#x1cf;" horiz-adv-x="368" 
d="M37 0l227 1434h125l-227 -1434h-125zM100 1825h115l141 -217l205 217h123l-250 -260h-168z" />
    <glyph glyph-name="uni01D0" unicode="&#x1d0;" horiz-adv-x="315" 
d="M14 0l168 1065h121l-168 -1065h-121zM14 1456h115l141 -217l205 217h123l-250 -260h-168z" />
    <glyph glyph-name="uni01D1" unicode="&#x1d1;" horiz-adv-x="1458" 
d="M653 -20q-247 0 -394.5 150t-147.5 441q0 138 33 268t97.5 241t154 194t210.5 130.5t258 47.5q247 0 395 -151t148 -443q0 -136 -33 -265.5t-98 -240t-154.5 -194t-210.5 -131t-258 -47.5zM236 575q0 -244 113.5 -364.5t309.5 -120.5q145 0 265.5 66t197 174.5
t118.5 244.5t42 281q0 244 -114.5 364.5t-309.5 120.5q-117 0 -219 -43t-174.5 -117t-125 -171.5t-78 -208.5t-25.5 -226zM645 1825h115l141 -217l205 217h123l-250 -260h-168z" />
    <glyph glyph-name="uni01D2" unicode="&#x1d2;" horiz-adv-x="1150" 
d="M496 -20q-91 0 -168.5 27t-138 80.5t-94.5 140t-34 198.5q0 129 43 248t119 210.5t188.5 146t243.5 54.5q90 0 167 -27t137 -80t94 -140t34 -199q0 -129 -43 -248t-118.5 -210.5t-187.5 -146t-242 -54.5zM182 438q0 -179 91 -267.5t235 -88.5q103 0 191 46t146 122
t91 174.5t33 204.5q0 91 -25.5 160.5t-71 111t-103 62t-126.5 20.5q-103 0 -191 -46t-146 -122t-91 -174t-33 -203zM432 1456h115l141 -217l205 217h123l-250 -260h-168z" />
    <glyph glyph-name="uni01D3" unicode="&#x1d3;" horiz-adv-x="1318" 
d="M580 -20q-252 0 -375 148.5t-82 412.5l141 893h127l-141 -887q-35 -218 58 -336.5t290 -118.5q195 0 318 117.5t157 337.5l141 887h127l-141 -893q-43 -265 -206 -413t-414 -148zM575 1825h115l141 -217l205 217h123l-250 -260h-168z" />
    <glyph glyph-name="uni01D4" unicode="&#x1d4;" 
d="M225 434q-26 -167 34.5 -258.5t215.5 -91.5q156 0 261.5 93t131.5 251l101 637h121l-168 -1065h-121l30 199q-13 -24 -33.5 -50.5t-56.5 -57.5t-79 -55t-104.5 -40t-129.5 -16q-64 0 -117.5 14t-101 45t-75 81.5t-39 123.5t6.5 170l103 651h121zM412 1456h114l142 -217
l204 217h123l-250 -260h-167z" />
    <glyph glyph-name="uni01D5" unicode="&#x1d5;" horiz-adv-x="1318" 
d="M580 -20q-252 0 -375 148.5t-82 412.5l141 893h127l-141 -887q-35 -218 58 -336.5t290 -118.5q195 0 318 117.5t157 337.5l141 887h127l-141 -893q-43 -265 -206 -413t-414 -148zM594 1755q0 34 25 59t59 25t59 -25t25 -59t-25 -59t-59 -25t-59 25t-25 59zM608 2087
l13 82h583l-12 -82h-584zM946 1755q0 34 25 59t59 25t59 -25t25 -59t-25 -59t-59 -25t-59 25t-25 59z" />
    <glyph glyph-name="uni01D6" unicode="&#x1d6;" 
d="M225 434q-26 -167 34.5 -258.5t215.5 -91.5q156 0 261.5 93t131.5 251l101 637h121l-168 -1065h-121l30 199q-13 -24 -33.5 -50.5t-56.5 -57.5t-79 -55t-104.5 -40t-129.5 -16q-64 0 -117.5 14t-101 45t-75 81.5t-39 123.5t6.5 170l103 651h121zM430 1386q0 34 25 59
t59 25t59 -25t25 -59t-25 -58.5t-59 -24.5t-59 24.5t-25 58.5zM444 1718l13 82h583l-12 -82h-584zM782 1386q0 34 25 59t59 25t59 -25t25 -59t-25 -58.5t-59 -24.5t-59 24.5t-25 58.5z" />
    <glyph glyph-name="uni01D7" unicode="&#x1d7;" horiz-adv-x="1318" 
d="M580 -20q-252 0 -375 148.5t-82 412.5l141 893h127l-141 -887q-35 -218 58 -336.5t290 -118.5q195 0 318 117.5t157 337.5l141 887h127l-141 -893q-43 -265 -206 -413t-414 -148zM594 1755q0 34 25 59t59 25t59 -25t25 -59t-25 -59t-59 -25t-59 25t-25 59zM803 1905
l246 264h112l-246 -264h-112zM946 1755q0 34 25 59t59 25t59 -25t25 -59t-25 -59t-59 -25t-59 25t-25 59z" />
    <glyph glyph-name="uni01D8" unicode="&#x1d8;" 
d="M225 434q-26 -167 34.5 -258.5t215.5 -91.5q156 0 261.5 93t131.5 251l101 637h121l-168 -1065h-121l30 199q-13 -24 -33.5 -50.5t-56.5 -57.5t-79 -55t-104.5 -40t-129.5 -16q-64 0 -117.5 14t-101 45t-75 81.5t-39 123.5t6.5 170l103 651h121zM430 1386q0 34 25 59
t59 25t59 -25t25 -59t-25 -58.5t-59 -24.5t-59 24.5t-25 58.5zM639 1536l246 264h112l-245 -264h-113zM782 1386q0 34 25 59t59 25t59 -25t25 -59t-25 -58.5t-59 -24.5t-59 24.5t-25 58.5z" />
    <glyph glyph-name="uni01D9" unicode="&#x1d9;" horiz-adv-x="1318" 
d="M580 -20q-252 0 -375 148.5t-82 412.5l141 893h127l-141 -887q-35 -218 58 -336.5t290 -118.5q195 0 318 117.5t157 337.5l141 887h127l-141 -893q-43 -265 -206 -413t-414 -148zM594 1755q0 34 25 59t59 25t59 -25t25 -59t-25 -59t-59 -25t-59 25t-25 59zM623 2169h114
l142 -217l204 217h123l-250 -260h-168zM946 1755q0 34 25 59t59 25t59 -25t25 -59t-25 -59t-59 -25t-59 25t-25 59z" />
    <glyph glyph-name="uni01DA" unicode="&#x1da;" 
d="M225 434q-26 -167 34.5 -258.5t215.5 -91.5q156 0 261.5 93t131.5 251l101 637h121l-168 -1065h-121l30 199q-13 -24 -33.5 -50.5t-56.5 -57.5t-79 -55t-104.5 -40t-129.5 -16q-64 0 -117.5 14t-101 45t-75 81.5t-39 123.5t6.5 170l103 651h121zM430 1386q0 34 25 59
t59 25t59 -25t25 -59t-25 -58.5t-59 -24.5t-59 24.5t-25 58.5zM459 1800h114l142 -217l205 217h122l-249 -260h-168zM782 1386q0 34 25 59t59 25t59 -25t25 -59t-25 -58.5t-59 -24.5t-59 24.5t-25 58.5z" />
    <glyph glyph-name="uni01DB" unicode="&#x1db;" horiz-adv-x="1318" 
d="M580 -20q-252 0 -375 148.5t-82 412.5l141 893h127l-141 -887q-35 -218 58 -336.5t290 -118.5q195 0 318 117.5t157 337.5l141 887h127l-141 -893q-43 -265 -206 -413t-414 -148zM594 1755q0 34 25 59t59 25t59 -25t25 -59t-25 -59t-59 -25t-59 25t-25 59zM645 2169h109
l168 -264h-109zM946 1755q0 34 25 59t59 25t59 -25t25 -59t-25 -59t-59 -25t-59 25t-25 59z" />
    <glyph glyph-name="uni01DC" unicode="&#x1dc;" 
d="M225 434q-26 -167 34.5 -258.5t215.5 -91.5q156 0 261.5 93t131.5 251l101 637h121l-168 -1065h-121l30 199q-13 -24 -33.5 -50.5t-56.5 -57.5t-79 -55t-104.5 -40t-129.5 -16q-64 0 -117.5 14t-101 45t-75 81.5t-39 123.5t6.5 170l103 651h121zM430 1386q0 34 25 59
t59 25t59 -25t25 -59t-25 -58.5t-59 -24.5t-59 24.5t-25 58.5zM481 1800h109l168 -264h-109zM782 1386q0 34 25 59t59 25t59 -25t25 -59t-25 -58.5t-59 -24.5t-59 24.5t-25 58.5z" />
    <glyph glyph-name="Gcaron" unicode="&#x1e6;" horiz-adv-x="1417" 
d="M666 -20q-260 0 -406.5 150.5t-146.5 449.5q0 139 32 268t96.5 239t154.5 191.5t213 127.5t265 46q209 0 332 -94t142 -266h-119q-25 120 -115 184.5t-244 64.5q-121 0 -224.5 -41t-178 -112.5t-127 -167.5t-78.5 -206t-26 -228q0 -248 115.5 -372t322.5 -124
q217 0 357 134t179 394l-387 -6l17 107h508l-15 -84q-51 -323 -222 -489t-445 -166zM647 1825h115l141 -217l205 217h123l-250 -260h-168z" />
    <glyph glyph-name="gcaron" unicode="&#x1e7;" horiz-adv-x="1183" 
d="M463 20q-83 0 -154 25t-127 74t-87.5 130.5t-31.5 186.5q0 175 68.5 322t199 237t296.5 90q127 0 226.5 -51.5t141.5 -152.5l31 184h121l-148 -938l-20 -117q-16 -99 -58.5 -177t-97.5 -126t-126 -79.5t-140 -43.5t-143 -12q-90 0 -166.5 19t-136.5 56.5t-89 101
t-16 145.5h107q-12 -102 73.5 -163t237.5 -61q81 0 150.5 18.5t129 58t99.5 106.5t55 157l21 117l14 98q-75 -100 -190.5 -152.5t-239.5 -52.5zM182 461q0 -165 89.5 -250.5t228.5 -85.5q132 0 239 71.5t164.5 189t57.5 255.5q0 169 -91 255.5t-235 86.5q-133 0 -238 -72.5
t-160 -191t-55 -258.5zM440 1456h115l141 -217l205 217h123l-250 -260h-168z" />
    <glyph glyph-name="uni01E8" unicode="&#x1e8;" horiz-adv-x="1257" 
d="M37 0l227 1434h125l-131 -834l889 834h153l-712 -668l536 -766h-147l-481 680l-267 -250l-67 -430h-125zM559 1825h115l141 -217l205 217h123l-250 -260h-168z" />
    <glyph glyph-name="uni01E9" unicode="&#x1e9;" horiz-adv-x="1077" 
d="M37 0l227 1434h121l-156 -983l697 614h145l-532 -465l426 -600h-138l-376 524l-244 -213l-49 -311h-121zM88 1825h115l141 -217l205 217h123l-250 -260h-168z" />
    <glyph glyph-name="uni01EA" unicode="&#x1ea;" horiz-adv-x="1458" 
d="M764 -375q-104 -21 -180 23.5t-76 142.5q0 116 102 191q-230 12 -364.5 161.5t-134.5 427.5q0 138 33 268t97.5 241t154 194t210.5 130.5t258 47.5q247 0 395 -151t148 -443q0 -155 -43.5 -300t-122.5 -262t-199 -198.5t-264 -107.5q-79 -19 -125.5 -65.5t-46.5 -112.5
q0 -64 45.5 -92t124.5 -17zM236 575q0 -244 113.5 -364.5t309.5 -120.5q145 0 265.5 66t197 174.5t118.5 244.5t42 281q0 244 -114.5 364.5t-309.5 120.5q-117 0 -219 -43t-174.5 -117t-125 -171.5t-78 -208.5t-25.5 -226z" />
    <glyph glyph-name="uni01EB" unicode="&#x1eb;" horiz-adv-x="1150" 
d="M592 -375q-104 -21 -180 23.5t-76 142.5q0 117 104 191q-169 16 -274 128.5t-105 315.5q0 129 43 248t119 210.5t188.5 146t243.5 54.5q90 0 167 -27t137 -80t94 -140t34 -199q0 -114 -34 -221.5t-95 -194t-151 -148t-197 -83.5q-80 -19 -128 -66.5t-48 -113.5
q0 -64 45.5 -92t124.5 -17zM182 438q0 -179 91 -267.5t235 -88.5q103 0 191 46t146 122t91 174.5t33 204.5q0 91 -25.5 160.5t-71 111t-103 62t-126.5 20.5q-103 0 -191 -46t-146 -122t-91 -174t-33 -203z" />
    <glyph glyph-name="uni0218" unicode="&#x218;" horiz-adv-x="1228" 
d="M541 -20q-253 0 -377 118t-94 301h125q-14 -138 75.5 -224.5t284.5 -86.5q199 0 313.5 90t114.5 242q0 60 -19 104t-57 72.5t-83.5 45.5t-110.5 30l-170 37q-166 37 -247 118.5t-81 214.5q0 187 145.5 298.5t380.5 111.5q226 0 344 -100.5t93 -261.5h-123
q10 110 -72.5 181.5t-253.5 71.5q-179 0 -281 -79t-102 -215q0 -96 60.5 -154.5t193.5 -85.5l170 -37q82 -18 141.5 -42.5t107.5 -64t72.5 -98.5t24.5 -137q0 -206 -159.5 -328t-415.5 -122zM365 -408l10 66q122 6 131 113q-47 0 -76 24.5t-29 65.5q0 42 28.5 70t72.5 28
q43 0 70.5 -32.5t27.5 -94.5q0 -94 -58 -167t-165 -73h-12z" />
    <glyph glyph-name="uni0219" unicode="&#x219;" horiz-adv-x="968" 
d="M412 -20q-86 0 -158.5 18.5t-128 54.5t-83 96.5t-19.5 137.5h110q-2 -57 21.5 -99t67 -64.5t93 -33t107.5 -10.5q141 0 232 58.5t91 170.5q0 76 -45 111t-147 61l-180 47q-119 30 -178.5 88.5t-59.5 155.5q0 145 118 229t308 84q175 0 273 -74.5t86 -224.5h-105
q-1 107 -69.5 153t-192.5 46q-137 0 -219 -51.5t-82 -147.5q0 -64 42 -103t140 -65l174 -45q131 -33 196.5 -87.5t65.5 -163.5t-64 -188.5t-166 -116.5t-228 -37zM268 -430l11 65q122 6 131 113q-47 0 -76 24.5t-29 65.5q0 42 28.5 70.5t72.5 28.5q43 0 70.5 -32.5
t27.5 -94.5q0 -94 -58 -167t-165 -73h-13z" />
    <glyph glyph-name="uni021A" unicode="&#x21a;" horiz-adv-x="1173" 
d="M440 0l209 1321h-465l19 113h1054l-20 -113h-463l-209 -1321h-125zM326 -408l10 66q122 6 131 113q-47 0 -76 24.5t-29 65.5q0 42 28.5 70t72.5 28q43 0 70.5 -32.5t27.5 -94.5q0 -94 -58 -167t-165 -73h-12z" />
    <glyph glyph-name="uni021B" unicode="&#x21b;" horiz-adv-x="630" 
d="M385 -14q-254 0 -213 241l115 738h-168l14 100h170l41 264h121l-41 -264h213l-14 -100h-215l-111 -711q-15 -93 16.5 -129.5t122.5 -36.5h64l-17 -96q-33 -6 -98 -6zM154 -408l10 66q122 6 131 113q-47 0 -76 24.5t-29 65.5q0 42 28.5 70t72.5 28q43 0 70.5 -32.5
t27.5 -94.5q0 -94 -58 -167t-165 -73h-12z" />
    <glyph glyph-name="uni0237" unicode="&#x237;" horiz-adv-x="378" 
d="M-115 -381q-39 0 -94 6l16 96h56q93 0 137 36.5t57 129.5l189 1178h121l-193 -1204q-38 -242 -289 -242z" />
    <glyph glyph-name="uni0259" unicode="&#x259;" horiz-adv-x="1091" 
d="M451 -20q-183 0 -289.5 100.5t-106.5 286.5q0 134 27 200h829q2 23 2 70q0 182 -81 266t-240 84q-258 0 -354 -207h-113q35 84 89 145.5t118.5 95t131 49t140.5 15.5q200 0 313 -110t113 -332q0 -131 -39.5 -250t-111 -211t-183 -147t-245.5 -55zM178 477
q-36 -194 43.5 -296.5t243.5 -102.5q89 0 163.5 31t127.5 86.5t88.5 126.5t52.5 155h-719z" />
    <glyph glyph-name="circumflex" unicode="&#x2c6;" horiz-adv-x="583" 
d="M104 1196l250 260h168l166 -260h-115l-141 217l-205 -217h-123z" />
    <glyph glyph-name="caron" unicode="&#x2c7;" horiz-adv-x="583" 
d="M731 1456l-250 -260h-168l-166 260h115l141 -217l205 217h123z" />
    <glyph glyph-name="breve" unicode="&#x2d8;" horiz-adv-x="548" 
d="M385 1208q-73 0 -125 20.5t-78 56t-35 78.5t-2 93h88q-18 -168 162 -168q95 0 146.5 45.5t64.5 122.5h88q-8 -50 -28.5 -92.5t-56 -78.5t-93 -56.5t-131.5 -20.5z" />
    <glyph glyph-name="dotaccent" unicode="&#x2d9;" horiz-adv-x="169" 
d="M221 1303q-34 0 -59 24.5t-25 58.5t25 59t59 25t59 -25t25 -59t-25 -58.5t-59 -24.5z" />
    <glyph glyph-name="ring" unicode="&#x2da;" horiz-adv-x="344" 
d="M301 1176q-71 0 -120.5 48.5t-49.5 116.5q0 69 49 117.5t121 48.5t121 -48.5t49 -117.5q0 -68 -49.5 -116.5t-120.5 -48.5zM201 1341q0 -41 29.5 -69.5t70.5 -28.5t70.5 28.5t29.5 69.5q0 43 -29.5 72t-70.5 29t-70.5 -29t-29.5 -72z" />
    <glyph glyph-name="ogonek" unicode="&#x2db;" horiz-adv-x="331" 
d="M141 -375q-104 -21 -180 23.5t-76 142.5q0 110 93 182t221 72l49 -45q-115 0 -189.5 -51.5t-74.5 -136.5q0 -64 45.5 -92t124.5 -17z" />
    <glyph glyph-name="tilde" unicode="&#x2dc;" horiz-adv-x="665" 
d="M600 1247q-40 0 -72.5 15t-54 36.5t-41.5 43t-46 36.5t-56 15q-49 0 -75 -31t-32 -70h-82q13 92 63 138.5t122 46.5q41 0 73.5 -15t54 -36.5t41.5 -43t45.5 -36.5t55.5 -15q49 0 75.5 31t30.5 70h84q-13 -92 -63.5 -138.5t-122.5 -46.5z" />
    <glyph glyph-name="hungarumlaut" unicode="&#x2dd;" horiz-adv-x="581" 
d="M367 1192l245 264h113l-246 -264h-112zM104 1192l246 264h113l-246 -264h-113z" />
    <glyph glyph-name="gravecomb" unicode="&#x300;" horiz-adv-x="0" 
d="M315 1192l-168 264h109l168 -264h-109z" />
    <glyph glyph-name="acutecomb" unicode="&#x301;" horiz-adv-x="0" 
d="M104 1192l246 264h113l-246 -264h-113z" />
    <glyph glyph-name="uni0302" unicode="&#x302;" horiz-adv-x="0" 
d="M104 1196l250 260h168l166 -260h-115l-141 217l-205 -217h-123z" />
    <glyph glyph-name="tildecomb" unicode="&#x303;" horiz-adv-x="0" 
d="M600 1247q-40 0 -72.5 15t-54 36.5t-41.5 43t-46 36.5t-56 15q-49 0 -75 -31t-32 -70h-82q13 92 63 138.5t122 46.5q41 0 73.5 -15t54 -36.5t41.5 -43t45.5 -36.5t55.5 -15q49 0 75.5 31t30.5 70h84q-13 -92 -63.5 -138.5t-122.5 -46.5z" />
    <glyph glyph-name="uni0304" unicode="&#x304;" horiz-adv-x="0" 
d="M133 1374l12 82h584l-12 -82h-584z" />
    <glyph glyph-name="uni0306" unicode="&#x306;" horiz-adv-x="0" 
d="M385 1208q-73 0 -125 20.5t-78 56t-35 78.5t-2 93h88q-18 -168 162 -168q95 0 146.5 45.5t64.5 122.5h88q-8 -50 -28.5 -92.5t-56 -78.5t-93 -56.5t-131.5 -20.5z" />
    <glyph glyph-name="uni0307" unicode="&#x307;" horiz-adv-x="0" 
d="M221 1303q-34 0 -59 24.5t-25 58.5t25 59t59 25t59 -25t25 -59t-25 -58.5t-59 -24.5z" />
    <glyph glyph-name="uni0308" unicode="&#x308;" horiz-adv-x="0" 
d="M573 1303q-34 0 -59 24.5t-25 58.5t25 59t59 25t59 -25t25 -59t-25 -58.5t-59 -24.5zM137 1386q0 34 25 59t59 25t59 -25t25 -59t-25 -58.5t-59 -24.5t-59 24.5t-25 58.5z" />
    <glyph glyph-name="hookabovecomb" unicode="&#x309;" horiz-adv-x="0" 
d="M295 1221q63 2 100 35t37 92q0 56 -31.5 87t-83.5 31q-46 0 -75.5 -26t-32.5 -74h-74q0 83 54.5 128.5t129.5 45.5q77 0 134 -50.5t57 -137.5q0 -84 -52.5 -134.5t-125.5 -58.5z" />
    <glyph glyph-name="uni030A" unicode="&#x30a;" horiz-adv-x="0" 
d="M301 1176q-71 0 -120.5 48.5t-49.5 116.5q0 69 49 117.5t121 48.5t121 -48.5t49 -117.5q0 -68 -49.5 -116.5t-120.5 -48.5zM201 1341q0 -41 29.5 -69.5t70.5 -28.5t70.5 28.5t29.5 69.5q0 43 -29.5 72t-70.5 29t-70.5 -29t-29.5 -72z" />
    <glyph glyph-name="uni030B" unicode="&#x30b;" horiz-adv-x="0" 
d="M367 1192l245 264h113l-246 -264h-112zM104 1192l246 264h113l-246 -264h-113z" />
    <glyph glyph-name="uni030C" unicode="&#x30c;" horiz-adv-x="0" 
d="M731 1456l-250 -260h-168l-166 260h115l141 -217l205 217h123z" />
    <glyph glyph-name="uni0312" unicode="&#x312;" horiz-adv-x="0" 
d="M414 1372q-122 -6 -131 -112q47 0 75.5 -25t28.5 -66q0 -42 -28 -70t-72 -28t-71.5 32.5t-27.5 94.5q0 94 58.5 167t165.5 73h12z" />
    <glyph glyph-name="uni031B" unicode="&#x31b;" horiz-adv-x="0" 
d="M68 963l16 102h205l26 180h107l-27 -180l-16 -102h-311z" />
    <glyph glyph-name="dotbelowcomb" unicode="&#x323;" horiz-adv-x="0" 
d="M55 -471q-38 0 -66 28t-28 66q0 39 27.5 66.5t66.5 27.5t67 -27.5t28 -66.5q0 -38 -28.5 -66t-66.5 -28z" />
    <glyph glyph-name="uni0326" unicode="&#x326;" horiz-adv-x="0" 
d="M-133 -342q122 6 131 113q-47 0 -75.5 24.5t-28.5 65.5q0 42 28 70t72 28q43 0 70.5 -32.5t27.5 -94.5q0 -94 -58 -167t-165 -73h-12z" />
    <glyph glyph-name="uni0327" unicode="&#x327;" horiz-adv-x="0" 
d="M-102 -358q82 0 132 31t50 87q0 51 -42 69t-106 -9l-36 53l122 127h103l-105 -100q8 2 27 2q58 0 95.5 -34.5t37.5 -100.5t-42 -113t-106.5 -68.5t-144.5 -21.5z" />
    <glyph glyph-name="uni0328" unicode="&#x328;" horiz-adv-x="0" 
d="M141 -375q-104 -21 -180 23.5t-76 142.5q0 110 93 182t221 72l49 -45q-115 0 -189.5 -51.5t-74.5 -136.5q0 -64 45.5 -92t124.5 -17z" />
    <glyph glyph-name="uni0394" unicode="&#x394;" horiz-adv-x="1396" 
d="M-35 0l879 1460h2l416 -1460h-1297zM152 102h962l-303 1115z" />
    <glyph glyph-name="uni03A9" unicode="&#x3a9;" horiz-adv-x="1605" 
d="M57 0l17 102h340l2 19q-141 87 -220 221.5t-79 304.5q0 157 67.5 304.5t179 256t263.5 174.5t313 66q175 0 315 -75t220.5 -212t80.5 -311q0 -229 -135 -420.5t-364 -308.5l-2 -19h342l-19 -102h-422l31 195q208 106 327.5 274.5t119.5 368.5q0 152 -69.5 266
t-184.5 171.5t-258 57.5q-180 0 -337 -92t-250 -248.5t-93 -337.5q0 -297 268 -460l-31 -195h-422z" />
    <glyph glyph-name="uni03BC" unicode="&#x3bc;" 
d="M-25 -389l230 1454h121l-105 -662q-32 -319 254 -319q156 0 261.5 93t131.5 251l101 637h121l-168 -1065h-121l30 199q-13 -24 -33.5 -50.5t-56.5 -57.5t-79 -55t-104.5 -40t-129.5 -16q-174 0 -258 94l-74 -463h-121z" />
    <glyph glyph-name="pi" unicode="&#x3c0;" horiz-adv-x="1333" 
d="M1012 -12q-92 0 -139 52t-31 159l121 759h-469l-152 -958h-121l152 958h-205l16 107h1119l-17 -107h-203l-118 -751q-9 -61 10.5 -86t71.5 -25q65 0 131 35l-17 -104q-76 -39 -149 -39z" />
    <glyph glyph-name="uni0401" unicode="&#x401;" horiz-adv-x="1101" 
d="M37 0l227 1434h891l-18 -113h-766l-82 -528h702l-16 -107h-703l-92 -573h785l-17 -113h-911zM496 1755q0 34 25 59t59 25t59 -25t25 -59t-25 -59t-59 -25t-59 25t-25 59zM848 1755q0 34 25 59t59 25t59 -25t25 -59t-25 -59t-59 -25t-59 25t-25 59z" />
    <glyph glyph-name="uni0403" unicode="&#x403;" horiz-adv-x="1005" 
d="M37 0l227 1434h823l-18 -113h-696l-209 -1321h-127zM618 1561l246 264h113l-246 -264h-113z" />
    <glyph glyph-name="uni0404" unicode="&#x404;" horiz-adv-x="1339" 
d="M662 -20q-123 0 -223 36t-174 108t-114 186.5t-40 264.5q0 173 52 330.5t146 279.5t239.5 194.5t319.5 72.5q216 0 348.5 -108t141.5 -304h-119q-17 146 -117 223.5t-262 77.5q-120 0 -223 -43t-177.5 -119t-125.5 -174t-76 -212h549l-16 -105h-549q-6 -52 -6 -102
q0 -246 119 -371t319 -125q161 0 278 79t181 224h122q-70 -203 -226.5 -308t-366.5 -105z" />
    <glyph glyph-name="uni0407" unicode="&#x407;" horiz-adv-x="368" 
d="M37 0l227 1434h125l-227 -1434h-125zM119 1755q0 34 25 59t59 25t59 -25t25 -59t-25 -59t-59 -25t-59 25t-25 59zM471 1755q0 34 25 59t59 25t59 -25t25 -59t-25 -59t-59 -25t-59 25t-25 59z" />
    <glyph glyph-name="uni040C" unicode="&#x40c;" horiz-adv-x="1257" 
d="M37 0l227 1434h125l-131 -834l889 834h153l-712 -668l536 -766h-147l-481 680l-267 -250l-67 -430h-125zM559 1561l246 264h113l-246 -264h-113z" />
    <glyph glyph-name="uni040E" unicode="&#x40e;" horiz-adv-x="1130" 
d="M127 104q100 -13 170.5 31t128.5 146q29 50 37 84.5t0 70.5l-260 998h135l225 -908l514 908h135l-671 -1170q-94 -162 -199 -227.5t-236 -48.5zM496 1825h88q-18 -168 161 -168q95 0 146.5 45.5t64.5 122.5h88q-8 -50 -28.5 -92.5t-56 -78.5t-93 -56.5t-131.5 -20.5
q-73 0 -125 20.5t-78 56.5t-34.5 78.5t-1.5 92.5z" />
    <glyph glyph-name="uni0410" unicode="&#x410;" horiz-adv-x="1361" 
d="M-35 0l785 1434h149l330 -1434h-131l-86 387h-703l-209 -387h-135zM362 485h627l-180 807h-8z" />
    <glyph glyph-name="uni0411" unicode="&#x411;" horiz-adv-x="1193" 
d="M37 0l227 1434h823l-18 -113h-696l-68 -422h381q211 0 319.5 -95.5t108.5 -279.5q0 -234 -156 -379t-413 -145h-508zM182 115h371q199 0 313.5 110t114.5 285q0 274 -322 274h-370z" />
    <glyph glyph-name="uni0412" unicode="&#x412;" horiz-adv-x="1218" 
d="M37 0l227 1434h518q185 0 276 -80t91 -217q0 -125 -72.5 -221t-202.5 -134q122 -29 188 -109.5t66 -215.5q0 -212 -156 -334.5t-411 -122.5h-524zM180 111h385q196 0 315 95t119 257q0 256 -331 256h-392zM295 829h379q160 0 252 80.5t92 214.5q0 101 -62 151t-196 50
h-387z" />
    <glyph glyph-name="uni0413" unicode="&#x413;" horiz-adv-x="1005" 
d="M37 0l227 1434h823l-18 -113h-696l-209 -1321h-127z" />
    <glyph glyph-name="uni0414" unicode="&#x414;" horiz-adv-x="1353" 
d="M-57 -141l39 250h61q115 95 183.5 323t142.5 703l47 299h934l-209 -1325h76l-39 -250h-121l22 141h-993l-23 -141h-120zM180 109h834l190 1212h-680l-28 -186q-77 -484 -141.5 -708t-174.5 -318z" />
    <glyph glyph-name="uni0415" unicode="&#x415;" horiz-adv-x="1101" 
d="M37 0l227 1434h891l-18 -113h-766l-82 -528h702l-16 -107h-703l-92 -573h785l-17 -113h-911z" />
    <glyph glyph-name="uni0416" unicode="&#x416;" horiz-adv-x="1777" 
d="M-35 0l795 733l-529 701h148l487 -639l103 639h127l-103 -650l688 650h152l-741 -701l553 -733h-150l-518 682l-109 -682h-127l107 674l-731 -674h-152z" />
    <glyph glyph-name="uni0417" unicode="&#x417;" horiz-adv-x="1163" 
d="M489 -20q-232 0 -343 129.5t-78 339.5h112q-25 -166 62 -264.5t264 -98.5q185 0 312.5 105.5t127.5 263.5q0 131 -93.5 200.5t-266.5 69.5h-56l15 98h49q169 0 273 82t104 215q0 108 -70.5 167t-200.5 59q-151 0 -254.5 -84t-128.5 -261h-114q33 224 168.5 337.5
t341.5 113.5q183 0 281 -82.5t98 -220.5q0 -129 -82 -229t-217 -138q119 -22 196.5 -103t77.5 -218t-78 -248t-210 -172t-290 -61z" />
    <glyph glyph-name="uni0418" unicode="&#x418;" horiz-adv-x="1335" 
d="M37 0l227 1434h125l-196 -1250h4l1013 1250h146l-228 -1434h-124l198 1247h-6l-1010 -1247h-149z" />
    <glyph glyph-name="uni0419" unicode="&#x419;" horiz-adv-x="1335" 
d="M836 1577q-73 0 -125 20.5t-78 56t-35 78.5t-2 93h88q-18 -168 162 -168q95 0 146.5 45.5t64.5 122.5h88q-8 -50 -28.5 -92.5t-56 -78.5t-93 -56.5t-131.5 -20.5zM37 0l227 1434h125l-196 -1250h4l1013 1250h146l-228 -1434h-124l198 1247h-6l-1010 -1247h-149z" />
    <glyph glyph-name="uni041A" unicode="&#x41a;" horiz-adv-x="1257" 
d="M37 0l227 1434h125l-131 -834l889 834h153l-712 -668l536 -766h-147l-481 680l-267 -250l-67 -430h-125z" />
    <glyph glyph-name="uni041B" unicode="&#x41b;" horiz-adv-x="1376" 
d="M-39 98q61 -1 111.5 15.5t96 55t78 111t48.5 175.5l156 979h946l-228 -1434h-125l209 1321h-696l-137 -870q-21 -130 -66.5 -224.5t-109.5 -147.5t-138 -75.5t-161 -17.5z" />
    <glyph glyph-name="uni041C" unicode="&#x41c;" horiz-adv-x="1683" 
d="M37 0l227 1434h146l372 -1278l770 1278h152l-227 -1434h-125l188 1190h-4l-717 -1190h-114l-351 1190h-4l-188 -1190h-125z" />
    <glyph glyph-name="uni041D" unicode="&#x41d;" horiz-adv-x="1306" 
d="M975 0l102 645h-813l-102 -645h-125l227 1434h125l-108 -682h813l108 682h125l-227 -1434h-125z" />
    <glyph glyph-name="uni041E" unicode="&#x41e;" horiz-adv-x="1458" 
d="M653 -20q-247 0 -394.5 150t-147.5 441q0 138 33 268t97.5 241t154 194t210.5 130.5t258 47.5q247 0 395 -151t148 -443q0 -136 -33 -265.5t-98 -240t-154.5 -194t-210.5 -131t-258 -47.5zM236 575q0 -244 113.5 -364.5t309.5 -120.5q145 0 265.5 66t197 174.5
t118.5 244.5t42 281q0 244 -114.5 364.5t-309.5 120.5q-117 0 -219 -43t-174.5 -117t-125 -171.5t-78 -208.5t-25.5 -226z" />
    <glyph glyph-name="uni041F" unicode="&#x41f;" horiz-adv-x="1310" 
d="M37 0l227 1434h1069l-227 -1434h-127l209 1321h-815l-209 -1321h-127z" />
    <glyph glyph-name="uni0420" unicode="&#x420;" horiz-adv-x="1187" 
d="M37 0l227 1434h502q213 0 321.5 -92.5t108.5 -274.5q0 -226 -154.5 -359t-412.5 -133h-375l-92 -575h-125zM272 688h371q198 0 311 98.5t113 266.5q0 268 -326 268h-370z" />
    <glyph glyph-name="uni0421" unicode="&#x421;" horiz-adv-x="1339" 
d="M662 -20q-123 0 -223 36t-174 108t-114 186.5t-40 264.5q0 173 52 330.5t146 279.5t239.5 194.5t319.5 72.5q216 0 348.5 -108t141.5 -304h-119q-17 146 -117 223.5t-262 77.5q-146 0 -266.5 -64.5t-197.5 -171.5t-118.5 -241t-41.5 -278q0 -246 119 -371t319 -125
q161 0 278 79t181 224h122q-70 -203 -226.5 -308t-366.5 -105z" />
    <glyph glyph-name="uni0422" unicode="&#x422;" horiz-adv-x="1173" 
d="M440 0l209 1321h-465l19 113h1054l-20 -113h-463l-209 -1321h-125z" />
    <glyph glyph-name="uni0423" unicode="&#x423;" horiz-adv-x="1130" 
d="M127 104q100 -13 170.5 31t128.5 146q29 50 37 84.5t0 70.5l-260 998h135l225 -908l514 908h135l-671 -1170q-94 -162 -199 -227.5t-236 -48.5z" />
    <glyph glyph-name="uni0424" unicode="&#x424;" horiz-adv-x="1452" 
d="M573 -31l25 150q-228 15 -357.5 137t-129.5 342q0 305 184.5 501t490.5 216l25 149h125l-25 -149q228 -14 358 -136t130 -343q0 -305 -185 -501.5t-491 -215.5l-25 -150h-125zM233 614q0 -181 101 -281.5t278 -115.5l160 1000q-248 -22 -393.5 -188t-145.5 -415zM737 217
q249 20 395 186.5t146 415.5q0 183 -101.5 283.5t-279.5 114.5z" />
    <glyph glyph-name="uni0425" unicode="&#x425;" horiz-adv-x="1300" 
d="M-35 0l647 741l-385 693h142l329 -592l516 592h146l-606 -695l411 -739h-141l-356 641l-557 -641h-146z" />
    <glyph glyph-name="uni0426" unicode="&#x426;" horiz-adv-x="1314" 
d="M37 0l227 1434h127l-211 -1321h817l209 1321h127l-209 -1321h74l-63 -402h-121l45 289h-1022z" />
    <glyph glyph-name="uni0427" unicode="&#x427;" horiz-adv-x="1259" 
d="M496 340q-90 0 -162 24t-126 74t-75.5 137.5t-3.5 204.5l104 654h127l-104 -648q-14 -90 3.5 -156.5t60.5 -104t99.5 -55t127.5 -17.5q96 0 186 32t152 80.5t103.5 98.5t58.5 94v-8l108 684h125l-227 -1434h-125l94 596q-31 -43 -79.5 -85.5t-114.5 -82t-153.5 -64
t-178.5 -24.5z" />
    <glyph glyph-name="uni0428" unicode="&#x428;" horiz-adv-x="1583" 
d="M37 0l227 1434h127l-211 -1321h482l210 1321h125l-211 -1321h482l211 1321h127l-228 -1434h-1341z" />
    <glyph glyph-name="uni0429" unicode="&#x429;" horiz-adv-x="1593" 
d="M37 0l227 1434h127l-211 -1321h482l210 1321h125l-211 -1321h482l211 1321h127l-209 -1321h82l-66 -402h-123l47 289h-1300z" />
    <glyph glyph-name="uni042A" unicode="&#x42a;" horiz-adv-x="1282" 
d="M174 1321l19 113h292l-86 -535h367q215 0 325.5 -96t110.5 -281q0 -235 -159 -378.5t-420 -143.5h-492l209 1321h-166zM276 115h369q196 0 310 109.5t114 283.5q0 276 -319 276h-367z" />
    <glyph glyph-name="uni042B" unicode="&#x42b;" horiz-adv-x="1521" 
d="M37 0l227 1434h127l-86 -535h367q215 0 325.5 -96t110.5 -281q0 -235 -159.5 -378.5t-420.5 -143.5h-491zM182 115h369q196 0 310 109.5t114 283.5q0 276 -320 276h-366zM1190 0l227 1434h125l-227 -1434h-125z" />
    <glyph glyph-name="uni042C" unicode="&#x42c;" horiz-adv-x="1187" 
d="M37 0l227 1434h127l-86 -535h367q215 0 325.5 -96t110.5 -281q0 -235 -159.5 -378.5t-420.5 -143.5h-491zM182 115h369q196 0 310 109.5t114 283.5q0 276 -320 276h-366z" />
    <glyph glyph-name="uni042D" unicode="&#x42d;" horiz-adv-x="1347" 
d="M590 639l16 104h557q6 52 6 103q0 246 -118.5 370.5t-319.5 124.5q-161 0 -278 -79t-181 -224h-122q71 203 227 308.5t366 105.5q123 0 223 -36.5t174 -108t114 -186.5t40 -265q0 -138 -32.5 -267t-96.5 -239.5t-154 -193t-212 -129.5t-262 -47q-216 0 -348.5 107.5
t-141.5 303.5h119q17 -146 117 -223.5t262 -77.5q120 0 223 43.5t177.5 119.5t125.5 174t76 212h-557z" />
    <glyph glyph-name="uni042E" unicode="&#x42e;" horiz-adv-x="1849" 
d="M37 0l227 1434h125l-108 -682h235q25 145 86.5 271t154 222.5t221 151.5t277.5 55q247 0 395 -151t148 -443q0 -136 -33 -265.5t-98 -240t-154.5 -194t-210.5 -131t-258 -47.5q-247 0 -394.5 150t-147.5 441q0 49 2 74h-240l-102 -645h-125zM627 575q0 -244 114 -364.5
t310 -120.5q117 0 218.5 43t174.5 117t125.5 171.5t78 208.5t25.5 226q0 244 -114.5 364.5t-309.5 120.5q-117 0 -219 -43t-174.5 -117t-125 -171.5t-78 -208.5t-25.5 -226z" />
    <glyph glyph-name="uni042F" unicode="&#x42f;" horiz-adv-x="1198" 
d="M868 0l90 575h-366l-465 -575h-141l475 584q-314 47 -314 354q0 225 155.5 360.5t412.5 135.5h506l-228 -1434h-125zM276 954q0 -266 326 -266h375l100 633h-377q-198 0 -311 -100t-113 -267z" />
    <glyph glyph-name="uni0430" unicode="&#x430;" horiz-adv-x="1077" 
d="M332 -20q-144 0 -224.5 62.5t-80.5 186.5q0 140 101.5 226.5t281.5 107.5l278 33q93 11 129 29t43 59l6 43q25 143 -37 203.5t-215 60.5q-148 0 -227 -53t-98 -166l-4 -24h-117l6 32q45 305 459 305q209 0 296.5 -85t57.5 -273l-115 -727h-116l30 193h-6
q-18 -27 -52.5 -59.5t-89.5 -69t-136 -60.5t-170 -24zM147 244q0 -164 218 -164q76 0 146.5 20t121.5 51.5t91 70.5t61.5 77t25.5 70l29 188q-16 -41 -176 -59l-238 -27q-132 -15 -205.5 -72.5t-73.5 -154.5z" />
    <glyph glyph-name="uni0431" unicode="&#x431;" horiz-adv-x="1128" 
d="M496 -18q-98 0 -174 30.5t-124 85t-76.5 131.5t-31.5 170t12 199l60 381q35 224 168 339.5t348 115.5h184q125 0 144 45h120q-24 -82 -89 -114t-197 -32h-172q-160 0 -261 -88.5t-128 -263.5l-25 -143q71 120 184.5 178.5t235.5 58.5q80 0 149.5 -26t124.5 -77t87 -134.5
t32 -190.5q0 -177 -73.5 -329t-205.5 -244t-292 -92zM199 432q0 -171 87.5 -258.5t223.5 -87.5q128 0 230 79.5t155 203t53 262.5q0 173 -86.5 259.5t-222.5 86.5q-128 0 -230.5 -79.5t-156 -203t-53.5 -262.5z" />
    <glyph glyph-name="uni0432" unicode="&#x432;" horiz-adv-x="1105" 
d="M37 0l168 1065h489q147 0 226 -60.5t79 -168.5q0 -83 -50.5 -149.5t-155.5 -100.5q104 -21 155 -87t51 -163q0 -110 -62.5 -187t-168 -113t-246.5 -36h-485zM174 104h356q169 0 261 60.5t92 177.5q0 193 -283 193h-358zM256 621h358q124 0 196.5 52t72.5 144
q0 144 -219 144h-355z" />
    <glyph glyph-name="uni0433" unicode="&#x433;" horiz-adv-x="827" 
d="M37 0l168 1065h655l-14 -100h-535l-153 -965h-121z" />
    <glyph glyph-name="uni0434" unicode="&#x434;" horiz-adv-x="1163" 
d="M76 0l-21 -139h-112l37 239h71q70 69 107.5 217.5t95.5 510.5q3 16 4 24l33 213h842l-152 -965h63l-36 -239h-111l23 139h-844zM172 100h688l137 865h-600l-26 -158q-58 -359 -94.5 -500.5t-104.5 -206.5z" />
    <glyph glyph-name="uni0435" unicode="&#x435;" horiz-adv-x="1091" 
d="M487 -20q-201 0 -313.5 109.5t-112.5 330.5q0 131 39.5 250.5t111.5 212t183.5 147.5t245.5 55q184 0 289.5 -100.5t105.5 -288.5q0 -133 -26 -200h-828q-2 -23 -2 -68q0 -181 81 -265.5t241 -84.5q249 0 354 207h111q-137 -305 -480 -305zM197 588h716q36 191 -43.5 295
t-242.5 104q-89 0 -163.5 -31.5t-127 -87t-87.5 -126t-52 -154.5z" />
    <glyph glyph-name="uni0436" unicode="&#x436;" horiz-adv-x="1439" 
d="M-55 0l630 541l-442 524h150l387 -463l73 463h121l-73 -465l532 465h154l-609 -524l459 -541h-149l-406 481l-76 -481h-121l76 479l-553 -479h-153z" />
    <glyph glyph-name="uni0437" unicode="&#x437;" horiz-adv-x="1024" 
d="M420 -18q-206 0 -306 100.5t-73 267.5h113q-19 -120 56 -196t226 -76q144 0 243 70t99 182q0 98 -86.5 147t-234.5 49l12 76q146 3 243 58t97 153q0 78 -62 125t-169 47q-129 0 -214.5 -63.5t-101.5 -159.5h-112q24 141 138 229t298 88q159 0 249.5 -66.5t90.5 -176.5
q0 -98 -70.5 -169t-189.5 -96q102 -15 166.5 -75t64.5 -164q0 -105 -66 -186t-174 -122.5t-237 -41.5z" />
    <glyph glyph-name="uni0438" unicode="&#x438;" horiz-adv-x="1167" 
d="M37 0l168 1065h121l-144 -911h4l801 911h143l-167 -1065h-121l145 911h-4l-799 -911h-147z" />
    <glyph glyph-name="uni0439" unicode="&#x439;" horiz-adv-x="1167" 
d="M37 0l168 1065h121l-144 -911h4l801 911h143l-167 -1065h-121l145 911h-4l-799 -911h-147zM457 1456h88q-17 -168 162 -168q95 0 146.5 45.5t64.5 122.5h88q-17 -107 -92 -177.5t-218 -70.5q-73 0 -125 20.5t-78 56.5t-34.5 78.5t-1.5 92.5z" />
    <glyph glyph-name="uni043A" unicode="&#x43a;" horiz-adv-x="1075" 
d="M37 0l168 1065h121l-97 -612l684 612h148l-526 -467l428 -598h-140l-374 522l-242 -215l-49 -307h-121z" />
    <glyph glyph-name="uni043B" unicode="&#x43b;" horiz-adv-x="1198" 
d="M-39 90q62 -1 109 14t90 53t73 110t46 177l98 621h782l-168 -1065h-119l152 965h-543l-82 -525q-41 -253 -157.5 -356.5t-296.5 -93.5z" />
    <glyph glyph-name="uni043C" unicode="&#x43c;" horiz-adv-x="1404" 
d="M37 0l168 1065h131l303 -930l596 930h133l-168 -1065h-121l131 834h-6l-530 -834h-105l-272 834h-8l-131 -834h-121z" />
    <glyph glyph-name="uni043D" unicode="&#x43d;" horiz-adv-x="1056" 
d="M37 0l168 1065h121l-72 -463h571l74 463h121l-168 -1065h-121l78 504h-571l-80 -504h-121z" />
    <glyph glyph-name="uni043E" unicode="&#x43e;" horiz-adv-x="1150" 
d="M496 -20q-91 0 -168.5 27t-138 80.5t-94.5 140t-34 198.5q0 129 43 248t119 210.5t188.5 146t243.5 54.5q90 0 167 -27t137 -80t94 -140t34 -199q0 -129 -43 -248t-118.5 -210.5t-187.5 -146t-242 -54.5zM182 438q0 -179 91 -267.5t235 -88.5q103 0 191 46t146 122
t91 174.5t33 204.5q0 91 -25.5 160.5t-71 111t-103 62t-126.5 20.5q-103 0 -191 -46t-146 -122t-91 -174t-33 -203z" />
    <glyph glyph-name="uni043F" unicode="&#x43f;" horiz-adv-x="1075" 
d="M37 0l168 1065h831l-168 -1065h-120l153 965h-590l-153 -965h-121z" />
    <glyph glyph-name="uni0440" unicode="&#x440;" horiz-adv-x="1191" 
d="M-25 -389l230 1454h121l-29 -188q76 103 186 155.5t234 52.5q85 0 158 -26t131 -77.5t91 -135.5t33 -193q0 -184 -70 -336.5t-203 -244.5t-302 -92q-127 0 -225.5 52.5t-141.5 153.5l-92 -575h-121zM227 438q0 -175 92.5 -265.5t235.5 -90.5q135 0 241.5 78t162 202
t55.5 267q0 174 -92 264t-234 90q-134 0 -241 -77.5t-163.5 -201.5t-56.5 -266z" />
    <glyph glyph-name="uni0441" unicode="&#x441;" horiz-adv-x="1081" 
d="M496 -20q-196 0 -314.5 114t-118.5 338q0 130 42 248t117.5 208t189 143.5t247.5 53.5q62 0 116.5 -11t106 -37.5t88 -67t58.5 -104.5t21 -146h-109q-2 71 -26.5 123t-66.5 81.5t-91.5 43.5t-108.5 14q-141 0 -249 -77t-163 -199t-55 -265q0 -179 88 -267.5t240 -88.5
q123 0 224 63t147 205h112q-24 -84 -65.5 -149.5t-90.5 -106.5t-108 -68t-115 -37.5t-116 -10.5z" />
    <glyph glyph-name="uni0442" unicode="&#x442;" horiz-adv-x="937" 
d="M324 0l151 965h-344l14 100h813l-14 -100h-348l-152 -965h-120z" />
    <glyph glyph-name="uni0443" unicode="&#x443;" horiz-adv-x="1067" 
d="M33 -285q193 -28 311 181q47 82 33 143l-244 1026h123l213 -936l506 936h127l-651 -1180q-91 -163 -197 -228.5t-238 -47.5z" />
    <glyph glyph-name="uni0444" unicode="&#x444;" horiz-adv-x="1189" 
d="M393 -389l60 373q-173 16 -282.5 127.5t-109.5 304.5q0 266 157 452.5t407 208.5l57 357h113l-58 -357q173 -16 282 -128t109 -306q0 -267 -156 -452t-407 -207l-59 -373h-113zM168 424q0 -156 81 -242t218 -102l143 901q-137 -14 -238.5 -92t-152.5 -198t-51 -267z
M580 80q203 21 322.5 176t119.5 381q0 155 -82 242.5t-217 101.5z" />
    <glyph glyph-name="uni0445" unicode="&#x445;" horiz-adv-x="1040" 
d="M-14 0l467 539l-291 526h133l237 -436l373 436h142l-461 -526l299 -539h-133l-242 451l-383 -451h-141z" />
    <glyph glyph-name="uni0446" unicode="&#x446;" horiz-adv-x="1146" 
d="M37 0l168 1065h121l-154 -965h590l153 965h121l-151 -965h71l-61 -387h-115l43 287h-786z" />
    <glyph glyph-name="uni0447" unicode="&#x447;" horiz-adv-x="1081" 
d="M838 514q-17 -34 -51.5 -71t-87 -75t-130 -62.5t-163.5 -24.5q-79 0 -141 21.5t-108.5 67t-64 124.5t-0.5 186l62 385h120l-57 -371q-27 -164 40 -236.5t196 -72.5q84 0 160 29.5t127 76t83.5 99t40.5 102.5l60 373h120l-167 -1065h-121z" />
    <glyph glyph-name="uni0448" unicode="&#x448;" horiz-adv-x="1525" 
d="M37 0l168 1065h121l-154 -965h465l154 965h114l-153 -965h462l154 965h121l-168 -1065h-1284z" />
    <glyph glyph-name="uni0449" unicode="&#x449;" horiz-adv-x="1599" 
d="M1233 -287l43 287h-1239l168 1065h121l-154 -965h465l154 965h114l-153 -965h462l154 965h121l-152 -965h70l-59 -387h-115z" />
    <glyph glyph-name="uni044A" unicode="&#x44a;" horiz-adv-x="1169" 
d="M119 965l14 100h305l-61 -397h338q175 0 264.5 -72t89.5 -213q0 -178 -125 -280.5t-334 -102.5h-460l151 965h-182zM285 100h331q158 0 246 71t88 198q0 102 -61 150t-199 48h-330z" />
    <glyph glyph-name="uni044B" unicode="&#x44b;" horiz-adv-x="1341" 
d="M37 0l168 1065h121l-62 -397h338q175 0 264.5 -72t89.5 -213q0 -178 -124.5 -280.5t-333.5 -102.5h-461zM172 100h332q158 0 246 71t88 198q0 102 -61 150t-199 48h-330zM1016 0l168 1065h121l-168 -1065h-121z" />
    <glyph glyph-name="uni044C" unicode="&#x44c;" horiz-adv-x="1056" 
d="M37 0l168 1065h121l-62 -397h338q175 0 264.5 -72t89.5 -213q0 -178 -124.5 -280.5t-333.5 -102.5h-461zM172 100h332q158 0 246 71t88 198q0 102 -61 150t-199 48h-330z" />
    <glyph glyph-name="uni044D" unicode="&#x44d;" horiz-adv-x="1089" 
d="M504 508l14 84h391v33q0 179 -88 267.5t-239 88.5q-123 0 -224 -63t-147 -205h-113q24 84 66 149.5t90.5 106.5t108 68t115.5 37.5t116 10.5q195 0 313.5 -114t118.5 -338q0 -130 -42 -248t-117.5 -208t-189 -143.5t-247.5 -53.5q-79 0 -145 18.5t-123 58.5t-89.5 114
t-31.5 175h109q2 -71 26.5 -123t66 -81.5t91 -43.5t108.5 -14q91 0 170.5 33.5t137 91.5t95.5 134.5t54 164.5h-395z" />
    <glyph glyph-name="uni044E" unicode="&#x44e;" horiz-adv-x="1452" 
d="M14 0l168 1065h121l-76 -485h154q44 217 200.5 361t376.5 144q72 0 136 -16.5t118.5 -52t94 -87.5t62 -126t22.5 -164q0 -173 -72.5 -322.5t-210 -243t-309.5 -93.5q-91 0 -168.5 27t-137.5 80.5t-94 140t-34 198.5q0 37 2 55h-156l-76 -481h-121zM485 438
q0 -179 91 -267.5t235 -88.5q103 0 191 46t146 122t91 174.5t33 204.5q0 91 -25.5 160.5t-71 111t-103 62t-126.5 20.5q-103 0 -191 -46t-146 -122t-91 -174t-33 -203z" />
    <glyph glyph-name="uni044F" unicode="&#x44f;" horiz-adv-x="1067" 
d="M741 0l62 397h-336l-336 -397h-133l348 408q-235 47 -235 282q0 172 126 273.5t334 101.5h459l-168 -1065h-121zM227 700q0 -102 62.5 -152t199.5 -50h330l76 467h-332q-158 0 -247 -71t-89 -194z" />
    <glyph glyph-name="uni0451" unicode="&#x451;" horiz-adv-x="1091" 
d="M487 -20q-201 0 -313.5 109.5t-112.5 330.5q0 131 39.5 250.5t111.5 212t183.5 147.5t245.5 55q184 0 289.5 -100.5t105.5 -288.5q0 -133 -26 -200h-828q-2 -23 -2 -68q0 -181 81 -265.5t241 -84.5q249 0 354 207h111q-137 -305 -480 -305zM197 588h716q36 191 -43.5 295
t-242.5 104q-89 0 -163.5 -31.5t-127 -87t-87.5 -126t-52 -154.5zM428 1386q0 34 25 59t59 25t59 -25t25 -59t-25 -58.5t-59 -24.5t-59 24.5t-25 58.5zM780 1386q0 34 25 59t59 25t59 -25t25 -59t-25 -58.5t-59 -24.5t-59 24.5t-25 58.5z" />
    <glyph glyph-name="uni0453" unicode="&#x453;" horiz-adv-x="827" 
d="M37 0l168 1065h655l-14 -100h-535l-153 -965h-121zM426 1192l246 264h112l-245 -264h-113z" />
    <glyph glyph-name="uni0454" unicode="&#x454;" horiz-adv-x="1081" 
d="M496 -20q-196 0 -314.5 114t-118.5 338q0 130 42 248t117.5 208t189 143.5t247.5 53.5q62 0 116.5 -11t106 -37.5t88 -67t58.5 -104.5t21 -146h-109q-2 71 -26.5 123t-66.5 81.5t-91.5 43.5t-108.5 14q-172 0 -291 -109.5t-159 -279.5h391l-13 -84h-391q-4 -46 -4 -68
q0 -179 88 -267.5t240 -88.5q123 0 224 63t147 205h112q-24 -84 -65.5 -149.5t-90.5 -106.5t-108 -68t-115 -37.5t-116 -10.5z" />
    <glyph glyph-name="uni0457" unicode="&#x457;" horiz-adv-x="315" 
d="M14 0l168 1065h121l-168 -1065h-121zM33 1386q0 34 25 59t59 25t59 -25t25 -59t-25 -58.5t-59 -24.5t-59 24.5t-25 58.5zM385 1386q0 34 25 59t59 25t59 -25t25 -59t-25 -58.5t-59 -24.5t-59 24.5t-25 58.5z" />
    <glyph glyph-name="uni045C" unicode="&#x45c;" horiz-adv-x="1075" 
d="M37 0l168 1065h121l-97 -612l684 612h148l-526 -467l428 -598h-140l-374 522l-242 -215l-49 -307h-121zM545 1192l246 264h112l-246 -264h-112z" />
    <glyph glyph-name="uni045E" unicode="&#x45e;" horiz-adv-x="1067" 
d="M33 -285q193 -28 311 181q47 82 33 143l-244 1026h123l213 -936l506 936h127l-651 -1180q-91 -163 -197 -228.5t-238 -47.5zM322 1456h88q-18 -168 161 -168q95 0 146.5 45.5t64.5 122.5h88q-8 -50 -28.5 -92.5t-56 -78.5t-93 -56.5t-131.5 -20.5q-73 0 -125 20.5
t-78 56.5t-34.5 78.5t-1.5 92.5z" />
    <glyph glyph-name="uni0490" unicode="&#x490;" horiz-adv-x="1005" 
d="M963 1434l32 204h125l-33 -204l-18 -113h-696l-209 -1321h-127l227 1434h699z" />
    <glyph glyph-name="uni0491" unicode="&#x491;" horiz-adv-x="827" 
d="M754 1065l22 135h109l-25 -135l-14 -100h-535l-153 -965h-121l168 1065h549z" />
    <glyph glyph-name="uni1E0C" unicode="&#x1e0c;" horiz-adv-x="1329" 
d="M37 0l227 1434h434q291 0 433.5 -143t142.5 -439q0 -181 -52.5 -336t-151.5 -270t-251 -180.5t-340 -65.5h-442zM180 113h301q132 0 242 37.5t188.5 104t133 159t80.5 202.5t26 234q0 250 -113 360.5t-354 110.5h-313zM432 -377q0 39 27.5 66.5t66.5 27.5t67 -27.5
t28 -66.5q0 -38 -28.5 -66t-66.5 -28t-66 28t-28 66z" />
    <glyph glyph-name="uni1E0D" unicode="&#x1e0d;" horiz-adv-x="1191" 
d="M469 -20q-85 0 -158 26.5t-129.5 78.5t-88.5 137.5t-32 195.5q0 131 41 252t114.5 213t183 147t237.5 55t226.5 -53t142.5 -155l88 557h120l-227 -1434h-121l29 186q-77 -102 -189.5 -154t-236.5 -52zM180 440q0 -177 90 -267.5t232 -90.5q135 0 242.5 77.5t164 201.5
t56.5 266q0 175 -93.5 265.5t-236.5 90.5q-133 0 -239 -78t-161 -201t-55 -264zM365 -377q0 39 27.5 66.5t66.5 27.5t66.5 -27.5t27.5 -66.5q0 -38 -28 -66t-66 -28t-66 28t-28 66z" />
    <glyph glyph-name="uni1E20" unicode="&#x1e20;" horiz-adv-x="1417" 
d="M666 -20q-260 0 -406.5 150.5t-146.5 449.5q0 139 32 268t96.5 239t154.5 191.5t213 127.5t265 46q209 0 332 -94t142 -266h-119q-25 120 -115 184.5t-244 64.5q-121 0 -224.5 -41t-178 -112.5t-127 -167.5t-78.5 -206t-26 -228q0 -248 115.5 -372t322.5 -124
q217 0 357 134t179 394l-387 -6l17 107h508l-15 -84q-51 -323 -222 -489t-445 -166zM633 1743l12 82h584l-12 -82h-584z" />
    <glyph glyph-name="uni1E21" unicode="&#x1e21;" horiz-adv-x="1183" 
d="M463 20q-83 0 -154 25t-127 74t-87.5 130.5t-31.5 186.5q0 175 68.5 322t199 237t296.5 90q127 0 226.5 -51.5t141.5 -152.5l31 184h121l-148 -938l-20 -117q-16 -99 -58.5 -177t-97.5 -126t-126 -79.5t-140 -43.5t-143 -12q-90 0 -166.5 19t-136.5 56.5t-89 101
t-16 145.5h107q-12 -102 73.5 -163t237.5 -61q81 0 150.5 18.5t129 58t99.5 106.5t55 157l21 117l14 98q-75 -100 -190.5 -152.5t-239.5 -52.5zM182 461q0 -165 89.5 -250.5t228.5 -85.5q132 0 239 71.5t164.5 189t57.5 255.5q0 169 -91 255.5t-235 86.5q-133 0 -238 -72.5
t-160 -191t-55 -258.5zM426 1374l12 82h584l-12 -82h-584z" />
    <glyph glyph-name="uni1E24" unicode="&#x1e24;" horiz-adv-x="1306" 
d="M975 0l102 645h-813l-102 -645h-125l227 1434h125l-108 -682h813l108 682h125l-227 -1434h-125zM420 -377q0 39 27.5 66.5t66.5 27.5t66.5 -27.5t27.5 -66.5q0 -38 -28 -66t-66 -28t-66 28t-28 66z" />
    <glyph glyph-name="uni1E25" unicode="&#x1e25;" 
d="M37 0l227 1434h121l-90 -566q16 31 46 64t78 70t121.5 60t157.5 23q64 0 117.5 -14t101 -45t75 -81.5t39 -123.5t-6.5 -170l-102 -651h-121l100 631q26 167 -34.5 258.5t-215.5 91.5q-152 0 -256 -88.5t-133 -239.5l-104 -653h-121zM342 -377q0 39 27.5 66.5t66.5 27.5
t66.5 -27.5t27.5 -66.5q0 -38 -28 -66t-66 -28t-66 28t-28 66z" />
    <glyph glyph-name="uni1E62" unicode="&#x1e62;" horiz-adv-x="1228" 
d="M541 -20q-253 0 -377 118t-94 301h125q-14 -138 75.5 -224.5t284.5 -86.5q199 0 313.5 90t114.5 242q0 60 -19 104t-57 72.5t-83.5 45.5t-110.5 30l-170 37q-166 37 -247 118.5t-81 214.5q0 187 145.5 298.5t380.5 111.5q226 0 344 -100.5t93 -261.5h-123
q10 110 -72.5 181.5t-253.5 71.5q-179 0 -281 -79t-102 -215q0 -96 60.5 -154.5t193.5 -85.5l170 -37q82 -18 141.5 -42.5t107.5 -64t72.5 -98.5t24.5 -137q0 -206 -159.5 -328t-415.5 -122zM381 -377q0 39 27.5 66.5t66.5 27.5t66.5 -27.5t27.5 -66.5q0 -38 -28 -66
t-66 -28t-66 28t-28 66z" />
    <glyph glyph-name="uni1E63" unicode="&#x1e63;" horiz-adv-x="968" 
d="M412 -20q-86 0 -158.5 18.5t-128 54.5t-83 96.5t-19.5 137.5h110q-2 -57 21.5 -99t67 -64.5t93 -33t107.5 -10.5q141 0 232 58.5t91 170.5q0 76 -45 111t-147 61l-180 47q-119 30 -178.5 88.5t-59.5 155.5q0 145 118 229t308 84q175 0 273 -74.5t86 -224.5h-105
q-1 107 -69.5 153t-192.5 46q-137 0 -219 -51.5t-82 -147.5q0 -64 42 -103t140 -65l174 -45q131 -33 196.5 -87.5t65.5 -163.5t-64 -188.5t-166 -116.5t-228 -37zM262 -377q0 39 27.5 66.5t66.5 27.5t67 -27.5t28 -66.5q0 -38 -28.5 -66t-66.5 -28t-66 28t-28 66z" />
    <glyph glyph-name="uni1E6C" unicode="&#x1e6c;" horiz-adv-x="1173" 
d="M440 0l209 1321h-465l19 113h1054l-20 -113h-463l-209 -1321h-125zM340 -377q0 39 27.5 66.5t66.5 27.5t66.5 -27.5t27.5 -66.5q0 -38 -28 -66t-66 -28t-66 28t-28 66z" />
    <glyph glyph-name="uni1E6D" unicode="&#x1e6d;" horiz-adv-x="630" 
d="M385 -14q-254 0 -213 241l115 738h-168l14 100h170l41 264h121l-41 -264h213l-14 -100h-215l-111 -711q-15 -93 16.5 -129.5t122.5 -36.5h64l-17 -96q-33 -6 -98 -6zM170 -377q0 39 27.5 66.5t66.5 27.5t66.5 -27.5t27.5 -66.5q0 -38 -28 -66t-66 -28t-66 28t-28 66z" />
    <glyph glyph-name="Wgrave" unicode="&#x1e80;" horiz-adv-x="1957" 
d="M365 0l-162 1434h129l131 -1260h6l584 1260h137l184 -1260h8l529 1260h131l-612 -1434h-142l-192 1274l-592 -1274h-139zM915 1825h109l168 -264h-109z" />
    <glyph glyph-name="wgrave" unicode="&#x1e81;" horiz-adv-x="1607" 
d="M276 0l-143 1065h119l117 -936h8l450 936h113l164 -936h8l410 936h118l-471 -1065h-145l-162 905l-440 -905h-146zM682 1456h109l167 -264h-108z" />
    <glyph glyph-name="Wacute" unicode="&#x1e82;" horiz-adv-x="1957" 
d="M365 0l-162 1434h129l131 -1260h6l584 1260h137l184 -1260h8l529 1260h131l-612 -1434h-142l-192 1274l-592 -1274h-139zM1044 1561l246 264h113l-246 -264h-113z" />
    <glyph glyph-name="wacute" unicode="&#x1e83;" horiz-adv-x="1607" 
d="M276 0l-143 1065h119l117 -936h8l450 936h113l164 -936h8l410 936h118l-471 -1065h-145l-162 905l-440 -905h-146zM813 1192l246 264h112l-245 -264h-113z" />
    <glyph glyph-name="Wdieresis" unicode="&#x1e84;" horiz-adv-x="1957" 
d="M365 0l-162 1434h129l131 -1260h6l584 1260h137l184 -1260h8l529 1260h131l-612 -1434h-142l-192 1274l-592 -1274h-139zM913 1755q0 34 25 59t59 25t59 -25t25 -59t-25 -59t-59 -25t-59 25t-25 59zM1266 1755q0 34 25 59t59 25t59 -25t25 -59t-25 -59t-59 -25t-59 25
t-25 59z" />
    <glyph glyph-name="wdieresis" unicode="&#x1e85;" horiz-adv-x="1607" 
d="M276 0l-143 1065h119l117 -936h8l450 936h113l164 -936h8l410 936h118l-471 -1065h-145l-162 905l-440 -905h-146zM680 1386q0 34 25 59t59 25t59 -25t25 -59t-25 -58.5t-59 -24.5t-59 24.5t-25 58.5zM1032 1386q0 34 25 59t59 25t59 -25t25 -59t-25 -58.5t-59 -24.5
t-59 24.5t-25 58.5z" />
    <glyph glyph-name="uni1E92" unicode="&#x1e92;" horiz-adv-x="1243" 
d="M-2 0l16 113l1116 1208h-882l18 113h1030l-22 -113l-1114 -1208h934l-17 -113h-1079zM397 -377q0 39 28 66.5t67 27.5t66.5 -27.5t27.5 -66.5q0 -38 -28 -66t-66 -28t-66.5 28t-28.5 66z" />
    <glyph glyph-name="uni1E93" unicode="&#x1e93;" horiz-adv-x="1011" 
d="M-2 0l16 104l836 857h-680l16 104h828l-19 -104l-833 -857h700l-16 -104h-848zM272 -377q0 39 28 66.5t67 27.5t66.5 -27.5t27.5 -66.5q0 -38 -28 -66t-66 -28t-66.5 28t-28.5 66z" />
    <glyph glyph-name="uni1E9E" unicode="&#x1e9e;" horiz-adv-x="1337" 
d="M723 -20q-188 0 -282 107t-64 294h117q-18 -122 44.5 -205.5t200.5 -83.5q157 0 259 111.5t102 263.5q0 145 -99 225t-278 80h-88l450 567h-510q-114 0 -164.5 -49t-68.5 -160l-178 -1130h-127l180 1135q27 175 114.5 246t258.5 71h710l-466 -580q184 -14 290.5 -114.5
t106.5 -280.5q0 -210 -143 -353.5t-365 -143.5z" />
    <glyph glyph-name="uni1EA0" unicode="&#x1ea0;" horiz-adv-x="1361" 
d="M-35 0l785 1434h149l330 -1434h-131l-86 387h-703l-209 -387h-135zM362 485h627l-180 807h-8zM451 -377q0 39 27.5 66.5t66.5 27.5t66.5 -27.5t27.5 -66.5q0 -38 -28 -66t-66 -28t-66 28t-28 66z" />
    <glyph glyph-name="uni1EA1" unicode="&#x1ea1;" horiz-adv-x="1077" 
d="M332 -20q-144 0 -224.5 62.5t-80.5 186.5q0 140 101.5 226.5t281.5 107.5l278 33q93 11 129 29t43 59l6 43q25 143 -37 203.5t-215 60.5q-148 0 -227 -53t-98 -166l-4 -24h-117l6 32q45 305 459 305q209 0 296.5 -85t57.5 -273l-115 -727h-116l30 193h-6
q-18 -27 -52.5 -59.5t-89.5 -69t-136 -60.5t-170 -24zM147 244q0 -164 218 -164q76 0 146.5 20t121.5 51.5t91 70.5t61.5 77t25.5 70l29 188q-16 -41 -176 -59l-238 -27q-132 -15 -205.5 -72.5t-73.5 -154.5zM307 -377q0 39 27.5 66.5t66.5 27.5t67 -27.5t28 -66.5
q0 -38 -28.5 -66t-66.5 -28t-66 28t-28 66z" />
    <glyph glyph-name="uni1EA2" unicode="&#x1ea2;" horiz-adv-x="1361" 
d="M-35 0l785 1434h149l330 -1434h-131l-86 387h-703l-209 -387h-135zM362 485h627l-180 807h-8zM666 1735q0 83 54.5 128.5t129.5 45.5q77 0 133.5 -50.5t56.5 -138.5q0 -84 -52.5 -134t-125.5 -58l-37 61q63 2 100.5 35t37.5 92q0 56 -31.5 87.5t-83.5 31.5q-46 0 -76 -26
t-33 -74h-73z" />
    <glyph glyph-name="uni1EA3" unicode="&#x1ea3;" horiz-adv-x="1077" 
d="M332 -20q-144 0 -224.5 62.5t-80.5 186.5q0 140 101.5 226.5t281.5 107.5l278 33q93 11 129 29t43 59l6 43q25 143 -37 203.5t-215 60.5q-148 0 -227 -53t-98 -166l-4 -24h-117l6 32q45 305 459 305q209 0 296.5 -85t57.5 -273l-115 -727h-116l30 193h-6
q-18 -27 -52.5 -59.5t-89.5 -69t-136 -60.5t-170 -24zM147 244q0 -164 218 -164q76 0 146.5 20t121.5 51.5t91 70.5t61.5 77t25.5 70l29 188q-16 -41 -176 -59l-238 -27q-132 -15 -205.5 -72.5t-73.5 -154.5zM461 1366q0 83 54.5 128.5t129.5 45.5q77 0 134 -50.5t57 -137.5
q0 -84 -53 -134.5t-126 -58.5l-36 62q63 2 100 35t37 92q0 56 -31.5 87t-83.5 31q-46 0 -75.5 -26t-32.5 -74h-74z" />
    <glyph glyph-name="uni1EA4" unicode="&#x1ea4;" horiz-adv-x="1361" 
d="M-35 0l785 1434h149l330 -1434h-131l-86 387h-703l-209 -387h-135zM362 485h627l-180 807h-8zM555 1565l250 260h168l166 -260h-115l-141 217l-205 -217h-123zM1067 1761l246 264h112l-245 -264h-113z" />
    <glyph glyph-name="uni1EA5" unicode="&#x1ea5;" horiz-adv-x="1077" 
d="M332 -20q-144 0 -224.5 62.5t-80.5 186.5q0 140 101.5 226.5t281.5 107.5l278 33q93 11 129 29t43 59l6 43q25 143 -37 203.5t-215 60.5q-148 0 -227 -53t-98 -166l-4 -24h-117l6 32q45 305 459 305q209 0 296.5 -85t57.5 -273l-115 -727h-116l30 193h-6
q-18 -27 -52.5 -59.5t-89.5 -69t-136 -60.5t-170 -24zM147 244q0 -164 218 -164q76 0 146.5 20t121.5 51.5t91 70.5t61.5 77t25.5 70l29 188q-16 -41 -176 -59l-238 -27q-132 -15 -205.5 -72.5t-73.5 -154.5zM350 1196l250 260h168l166 -260h-115l-141 217l-205 -217h-123z
M862 1393l246 264h113l-246 -264h-113z" />
    <glyph glyph-name="uni1EA6" unicode="&#x1ea6;" horiz-adv-x="1361" 
d="M-35 0l785 1434h149l330 -1434h-131l-86 387h-703l-209 -387h-135zM362 485h627l-180 807h-8zM555 1565l250 260h168l166 -260h-115l-141 217l-205 -217h-123zM954 2023h109l154 -264h-109z" />
    <glyph glyph-name="uni1EA7" unicode="&#x1ea7;" horiz-adv-x="1077" 
d="M332 -20q-144 0 -224.5 62.5t-80.5 186.5q0 140 101.5 226.5t281.5 107.5l278 33q93 11 129 29t43 59l6 43q25 143 -37 203.5t-215 60.5q-148 0 -227 -53t-98 -166l-4 -24h-117l6 32q45 305 459 305q209 0 296.5 -85t57.5 -273l-115 -727h-116l30 193h-6
q-18 -27 -52.5 -59.5t-89.5 -69t-136 -60.5t-170 -24zM147 244q0 -164 218 -164q76 0 146.5 20t121.5 51.5t91 70.5t61.5 77t25.5 70l29 188q-16 -41 -176 -59l-238 -27q-132 -15 -205.5 -72.5t-73.5 -154.5zM350 1196l250 260h168l166 -260h-115l-141 217l-205 -217h-123z
M750 1655h108l154 -264h-109z" />
    <glyph glyph-name="uni1EA8" unicode="&#x1ea8;" horiz-adv-x="1361" 
d="M-35 0l785 1434h149l330 -1434h-131l-86 387h-703l-209 -387h-135zM362 485h627l-180 807h-8zM555 1565l250 260h168l166 -260h-115l-141 217l-205 -217h-123zM920 2013q0 83 54.5 128.5t129.5 45.5q77 0 133.5 -50t56.5 -138q0 -84 -52.5 -134.5t-125.5 -58.5l-37 62
q63 2 100.5 35t37.5 92q0 56 -31.5 87.5t-83.5 31.5q-46 0 -76 -26.5t-33 -74.5h-73z" />
    <glyph glyph-name="uni1EA9" unicode="&#x1ea9;" horiz-adv-x="1077" 
d="M332 -20q-144 0 -224.5 62.5t-80.5 186.5q0 140 101.5 226.5t281.5 107.5l278 33q93 11 129 29t43 59l6 43q25 143 -37 203.5t-215 60.5q-148 0 -227 -53t-98 -166l-4 -24h-117l6 32q45 305 459 305q209 0 296.5 -85t57.5 -273l-115 -727h-116l30 193h-6
q-18 -27 -52.5 -59.5t-89.5 -69t-136 -60.5t-170 -24zM147 244q0 -164 218 -164q76 0 146.5 20t121.5 51.5t91 70.5t61.5 77t25.5 70l29 188q-16 -41 -176 -59l-238 -27q-132 -15 -205.5 -72.5t-73.5 -154.5zM350 1196l250 260h168l166 -260h-115l-141 217l-205 -217h-123z
M715 1645q0 83 54.5 128.5t129.5 45.5q77 0 134 -50.5t57 -138.5q0 -84 -53 -134t-126 -58l-37 61q63 2 100.5 35t37.5 92q0 56 -31.5 87.5t-83.5 31.5q-46 0 -76 -26t-33 -74h-73z" />
    <glyph glyph-name="uni1EAA" unicode="&#x1eaa;" horiz-adv-x="1361" 
d="M-35 0l785 1434h149l330 -1434h-131l-86 387h-703l-209 -387h-135zM362 485h627l-180 807h-8zM555 1565l250 260h168l166 -260h-115l-141 217l-205 -217h-123zM600 1980q13 92 62.5 138.5t121.5 46.5q41 0 73.5 -15t54 -36.5t41.5 -43t46 -36.5t56 -15q49 0 75.5 31
t30.5 70h84q-13 -92 -63.5 -138.5t-122.5 -46.5q-40 0 -72.5 15t-54.5 36.5t-42 43t-46 36.5t-56 15q-49 0 -74.5 -30.5t-31.5 -70.5h-82z" />
    <glyph glyph-name="uni1EAB" unicode="&#x1eab;" horiz-adv-x="1077" 
d="M332 -20q-144 0 -224.5 62.5t-80.5 186.5q0 140 101.5 226.5t281.5 107.5l278 33q93 11 129 29t43 59l6 43q25 143 -37 203.5t-215 60.5q-148 0 -227 -53t-98 -166l-4 -24h-117l6 32q45 305 459 305q209 0 296.5 -85t57.5 -273l-115 -727h-116l30 193h-6
q-18 -27 -52.5 -59.5t-89.5 -69t-136 -60.5t-170 -24zM147 244q0 -164 218 -164q76 0 146.5 20t121.5 51.5t91 70.5t61.5 77t25.5 70l29 188q-16 -41 -176 -59l-238 -27q-132 -15 -205.5 -72.5t-73.5 -154.5zM350 1196l250 260h168l166 -260h-115l-141 217l-205 -217h-123z
M395 1612q13 92 63 138t122 46q41 0 73.5 -15t54 -36t41.5 -42.5t45.5 -36.5t55.5 -15q49 0 75.5 30.5t30.5 69.5h84q-13 -92 -63 -138t-123 -46q-40 0 -72.5 15t-54 36.5t-41.5 42.5t-46 36t-56 15q-49 0 -75.5 -30.5t-31.5 -69.5h-82z" />
    <glyph glyph-name="uni1EAC" unicode="&#x1eac;" horiz-adv-x="1361" 
d="M-35 0l785 1434h149l330 -1434h-131l-86 387h-703l-209 -387h-135zM362 485h627l-180 807h-8zM451 -377q0 39 27.5 66.5t66.5 27.5t66.5 -27.5t27.5 -66.5q0 -38 -28 -66t-66 -28t-66 28t-28 66zM555 1565l250 260h168l166 -260h-115l-141 217l-205 -217h-123z" />
    <glyph glyph-name="uni1EAD" unicode="&#x1ead;" horiz-adv-x="1077" 
d="M332 -20q-144 0 -224.5 62.5t-80.5 186.5q0 140 101.5 226.5t281.5 107.5l278 33q93 11 129 29t43 59l6 43q25 143 -37 203.5t-215 60.5q-148 0 -227 -53t-98 -166l-4 -24h-117l6 32q45 305 459 305q209 0 296.5 -85t57.5 -273l-115 -727h-116l30 193h-6
q-18 -27 -52.5 -59.5t-89.5 -69t-136 -60.5t-170 -24zM147 244q0 -164 218 -164q76 0 146.5 20t121.5 51.5t91 70.5t61.5 77t25.5 70l29 188q-16 -41 -176 -59l-238 -27q-132 -15 -205.5 -72.5t-73.5 -154.5zM307 -377q0 39 27.5 66.5t66.5 27.5t67 -27.5t28 -66.5
q0 -38 -28.5 -66t-66.5 -28t-66 28t-28 66zM350 1196l250 260h168l166 -260h-115l-141 217l-205 -217h-123z" />
    <glyph glyph-name="uni1EAE" unicode="&#x1eae;" horiz-adv-x="1361" 
d="M-35 0l785 1434h149l330 -1434h-131l-86 387h-703l-209 -387h-135zM362 485h627l-180 807h-8zM614 1825h88q-18 -168 162 -168q95 0 146.5 45.5t64.5 122.5h88q-8 -50 -28.5 -92.5t-56 -78.5t-93 -56.5t-131.5 -20.5q-73 0 -125 20.5t-78 56t-35 78.5t-2 93zM831 1890
l246 264h113l-246 -264h-113z" />
    <glyph glyph-name="uni1EAF" unicode="&#x1eaf;" horiz-adv-x="1077" 
d="M332 -20q-144 0 -224.5 62.5t-80.5 186.5q0 140 101.5 226.5t281.5 107.5l278 33q93 11 129 29t43 59l6 43q25 143 -37 203.5t-215 60.5q-148 0 -227 -53t-98 -166l-4 -24h-117l6 32q45 305 459 305q209 0 296.5 -85t57.5 -273l-115 -727h-116l30 193h-6
q-18 -27 -52.5 -59.5t-89.5 -69t-136 -60.5t-170 -24zM147 244q0 -164 218 -164q76 0 146.5 20t121.5 51.5t91 70.5t61.5 77t25.5 70l29 188q-16 -41 -176 -59l-238 -27q-132 -15 -205.5 -72.5t-73.5 -154.5zM410 1456h88q-17 -168 161 -168q95 0 146.5 45.5t64.5 122.5h88
q-8 -50 -28.5 -92.5t-56 -78.5t-93 -56.5t-131.5 -20.5q-73 0 -125 20.5t-78 56.5t-34.5 78.5t-1.5 92.5zM627 1522l245 264h113l-246 -264h-112z" />
    <glyph glyph-name="uni1EB0" unicode="&#x1eb0;" horiz-adv-x="1361" 
d="M-35 0l785 1434h149l330 -1434h-131l-86 387h-703l-209 -387h-135zM362 485h627l-180 807h-8zM614 1825h88q-18 -168 162 -168q95 0 146.5 45.5t64.5 122.5h88q-8 -50 -28.5 -92.5t-56 -78.5t-93 -56.5t-131.5 -20.5q-73 0 -125 20.5t-78 56t-35 78.5t-2 93zM672 2154
h108l168 -264h-108z" />
    <glyph glyph-name="uni1EB1" unicode="&#x1eb1;" horiz-adv-x="1077" 
d="M332 -20q-144 0 -224.5 62.5t-80.5 186.5q0 140 101.5 226.5t281.5 107.5l278 33q93 11 129 29t43 59l6 43q25 143 -37 203.5t-215 60.5q-148 0 -227 -53t-98 -166l-4 -24h-117l6 32q45 305 459 305q209 0 296.5 -85t57.5 -273l-115 -727h-116l30 193h-6
q-18 -27 -52.5 -59.5t-89.5 -69t-136 -60.5t-170 -24zM147 244q0 -164 218 -164q76 0 146.5 20t121.5 51.5t91 70.5t61.5 77t25.5 70l29 188q-16 -41 -176 -59l-238 -27q-132 -15 -205.5 -72.5t-73.5 -154.5zM410 1456h88q-17 -168 161 -168q95 0 146.5 45.5t64.5 122.5h88
q-8 -50 -28.5 -92.5t-56 -78.5t-93 -56.5t-131.5 -20.5q-73 0 -125 20.5t-78 56.5t-34.5 78.5t-1.5 92.5zM467 1786h108l168 -264h-108z" />
    <glyph glyph-name="uni1EB2" unicode="&#x1eb2;" horiz-adv-x="1361" 
d="M-35 0l785 1434h149l330 -1434h-131l-86 387h-703l-209 -387h-135zM362 485h627l-180 807h-8zM614 1825h88q-18 -168 162 -168q95 0 146.5 45.5t64.5 122.5h88q-8 -50 -28.5 -92.5t-56 -78.5t-93 -56.5t-131.5 -20.5q-73 0 -125 20.5t-78 56t-35 78.5t-2 93zM666 2009
q0 83 54.5 128.5t129.5 45.5q77 0 133.5 -50t56.5 -138q0 -84 -52.5 -134.5t-125.5 -58.5l-37 62q63 2 100.5 35t37.5 92q0 56 -31.5 87t-83.5 31q-46 0 -76 -26t-33 -74h-73z" />
    <glyph glyph-name="uni1EB3" unicode="&#x1eb3;" horiz-adv-x="1077" 
d="M332 -20q-144 0 -224.5 62.5t-80.5 186.5q0 140 101.5 226.5t281.5 107.5l278 33q93 11 129 29t43 59l6 43q25 143 -37 203.5t-215 60.5q-148 0 -227 -53t-98 -166l-4 -24h-117l6 32q45 305 459 305q209 0 296.5 -85t57.5 -273l-115 -727h-116l30 193h-6
q-18 -27 -52.5 -59.5t-89.5 -69t-136 -60.5t-170 -24zM147 244q0 -164 218 -164q76 0 146.5 20t121.5 51.5t91 70.5t61.5 77t25.5 70l29 188q-16 -41 -176 -59l-238 -27q-132 -15 -205.5 -72.5t-73.5 -154.5zM410 1456h88q-17 -168 161 -168q95 0 146.5 45.5t64.5 122.5h88
q-8 -50 -28.5 -92.5t-56 -78.5t-93 -56.5t-131.5 -20.5q-73 0 -125 20.5t-78 56.5t-34.5 78.5t-1.5 92.5zM461 1640q0 83 54.5 129t129.5 46q77 0 134 -50.5t57 -138.5q0 -84 -53 -134t-126 -58l-36 61q63 2 100 35t37 92q0 56 -31.5 87.5t-83.5 31.5q-46 0 -75.5 -26.5
t-32.5 -74.5h-74z" />
    <glyph glyph-name="uni1EB4" unicode="&#x1eb4;" horiz-adv-x="1361" 
d="M-35 0l785 1434h149l330 -1434h-131l-86 387h-703l-209 -387h-135zM362 485h627l-180 807h-8zM600 1991q13 92 62.5 138t121.5 46q41 0 73.5 -15t54 -36.5t41.5 -42.5t46 -36t56 -15q49 0 75.5 30.5t30.5 69.5h84q-13 -92 -63 -138t-123 -46q-40 0 -72.5 15t-54.5 36
t-42 42.5t-46 36.5t-56 15q-49 0 -74.5 -30.5t-31.5 -69.5h-82zM614 1825h88q-18 -168 162 -168q95 0 146.5 45.5t64.5 122.5h88q-8 -50 -28.5 -92.5t-56 -78.5t-93 -56.5t-131.5 -20.5q-73 0 -125 20.5t-78 56t-35 78.5t-2 93z" />
    <glyph glyph-name="uni1EB5" unicode="&#x1eb5;" horiz-adv-x="1077" 
d="M332 -20q-144 0 -224.5 62.5t-80.5 186.5q0 140 101.5 226.5t281.5 107.5l278 33q93 11 129 29t43 59l6 43q25 143 -37 203.5t-215 60.5q-148 0 -227 -53t-98 -166l-4 -24h-117l6 32q45 305 459 305q209 0 296.5 -85t57.5 -273l-115 -727h-116l30 193h-6
q-18 -27 -52.5 -59.5t-89.5 -69t-136 -60.5t-170 -24zM147 244q0 -164 218 -164q76 0 146.5 20t121.5 51.5t91 70.5t61.5 77t25.5 70l29 188q-16 -41 -176 -59l-238 -27q-132 -15 -205.5 -72.5t-73.5 -154.5zM395 1622q13 92 63 138t122 46q41 0 73.5 -15t54 -36t41.5 -42.5
t45.5 -36.5t55.5 -15q49 0 75.5 30.5t30.5 69.5h84q-13 -92 -63 -138t-123 -46q-40 0 -72.5 15t-54 36.5t-41.5 42.5t-46 36t-56 15q-49 0 -75.5 -30.5t-31.5 -69.5h-82zM410 1456h88q-17 -168 161 -168q95 0 146.5 45.5t64.5 122.5h88q-8 -50 -28.5 -92.5t-56 -78.5
t-93 -56.5t-131.5 -20.5q-73 0 -125 20.5t-78 56.5t-34.5 78.5t-1.5 92.5z" />
    <glyph glyph-name="uni1EB6" unicode="&#x1eb6;" horiz-adv-x="1361" 
d="M-35 0l785 1434h149l330 -1434h-131l-86 387h-703l-209 -387h-135zM362 485h627l-180 807h-8zM451 -377q0 39 27.5 66.5t66.5 27.5t66.5 -27.5t27.5 -66.5q0 -38 -28 -66t-66 -28t-66 28t-28 66zM614 1825h88q-18 -168 162 -168q95 0 146.5 45.5t64.5 122.5h88
q-8 -50 -28.5 -92.5t-56 -78.5t-93 -56.5t-131.5 -20.5q-73 0 -125 20.5t-78 56t-35 78.5t-2 93z" />
    <glyph glyph-name="uni1EB7" unicode="&#x1eb7;" horiz-adv-x="1077" 
d="M332 -20q-144 0 -224.5 62.5t-80.5 186.5q0 140 101.5 226.5t281.5 107.5l278 33q93 11 129 29t43 59l6 43q25 143 -37 203.5t-215 60.5q-148 0 -227 -53t-98 -166l-4 -24h-117l6 32q45 305 459 305q209 0 296.5 -85t57.5 -273l-115 -727h-116l30 193h-6
q-18 -27 -52.5 -59.5t-89.5 -69t-136 -60.5t-170 -24zM147 244q0 -164 218 -164q76 0 146.5 20t121.5 51.5t91 70.5t61.5 77t25.5 70l29 188q-16 -41 -176 -59l-238 -27q-132 -15 -205.5 -72.5t-73.5 -154.5zM307 -377q0 39 27.5 66.5t66.5 27.5t67 -27.5t28 -66.5
q0 -38 -28.5 -66t-66.5 -28t-66 28t-28 66zM410 1456h88q-17 -168 161 -168q95 0 146.5 45.5t64.5 122.5h88q-8 -50 -28.5 -92.5t-56 -78.5t-93 -56.5t-131.5 -20.5q-73 0 -125 20.5t-78 56.5t-34.5 78.5t-1.5 92.5z" />
    <glyph glyph-name="uni1EB8" unicode="&#x1eb8;" horiz-adv-x="1101" 
d="M37 0l227 1434h891l-18 -113h-766l-82 -528h702l-16 -107h-703l-92 -573h785l-17 -113h-911zM330 -377q0 39 27.5 66.5t66.5 27.5t66.5 -27.5t27.5 -66.5q0 -38 -28 -66t-66 -28t-66 28t-28 66z" />
    <glyph glyph-name="uni1EB9" unicode="&#x1eb9;" horiz-adv-x="1091" 
d="M487 -20q-201 0 -313.5 109.5t-112.5 330.5q0 131 39.5 250.5t111.5 212t183.5 147.5t245.5 55q184 0 289.5 -100.5t105.5 -288.5q0 -133 -26 -200h-828q-2 -23 -2 -68q0 -181 81 -265.5t241 -84.5q249 0 354 207h111q-137 -305 -480 -305zM197 588h716q36 191 -43.5 295
t-242.5 104q-89 0 -163.5 -31.5t-127 -87t-87.5 -126t-52 -154.5zM311 -377q0 39 28 66.5t67 27.5t66.5 -27.5t27.5 -66.5q0 -38 -28 -66t-66 -28t-66.5 28t-28.5 66z" />
    <glyph glyph-name="uni1EBA" unicode="&#x1eba;" horiz-adv-x="1101" 
d="M37 0l227 1434h891l-18 -113h-766l-82 -528h702l-16 -107h-703l-92 -573h785l-17 -113h-911zM543 1735q0 83 54.5 128.5t129.5 45.5q77 0 134 -50.5t57 -138.5q0 -84 -53 -134t-126 -58l-37 61q63 2 100.5 35t37.5 92q0 56 -31.5 87.5t-83.5 31.5q-46 0 -76 -26t-33 -74
h-73z" />
    <glyph glyph-name="uni1EBB" unicode="&#x1ebb;" horiz-adv-x="1091" 
d="M487 -20q-201 0 -313.5 109.5t-112.5 330.5q0 131 39.5 250.5t111.5 212t183.5 147.5t245.5 55q184 0 289.5 -100.5t105.5 -288.5q0 -133 -26 -200h-828q-2 -23 -2 -68q0 -181 81 -265.5t241 -84.5q249 0 354 207h111q-137 -305 -480 -305zM197 588h716q36 191 -43.5 295
t-242.5 104q-89 0 -163.5 -31.5t-127 -87t-87.5 -126t-52 -154.5zM475 1366q0 83 54.5 128.5t129.5 45.5q77 0 134 -50.5t57 -137.5q0 -84 -52.5 -134.5t-125.5 -58.5l-37 62q63 2 100 35t37 92q0 56 -31.5 87t-83.5 31q-46 0 -75.5 -26t-32.5 -74h-74z" />
    <glyph glyph-name="uni1EBC" unicode="&#x1ebc;" horiz-adv-x="1101" 
d="M37 0l227 1434h891l-18 -113h-766l-82 -528h702l-16 -107h-703l-92 -573h785l-17 -113h-911zM426 1661q13 92 62.5 138t121.5 46q41 0 73.5 -15t54 -36.5t41.5 -42.5t46 -36t56 -15q49 0 75.5 30.5t30.5 69.5h84q-13 -92 -63 -138t-123 -46q-40 0 -72.5 15t-54.5 36
t-42 42.5t-46 36.5t-56 15q-49 0 -74.5 -30.5t-31.5 -69.5h-82z" />
    <glyph glyph-name="uni1EBD" unicode="&#x1ebd;" horiz-adv-x="1091" 
d="M487 -20q-201 0 -313.5 109.5t-112.5 330.5q0 131 39.5 250.5t111.5 212t183.5 147.5t245.5 55q184 0 289.5 -100.5t105.5 -288.5q0 -133 -26 -200h-828q-2 -23 -2 -68q0 -181 81 -265.5t241 -84.5q249 0 354 207h111q-137 -305 -480 -305zM197 588h716q36 191 -43.5 295
t-242.5 104q-89 0 -163.5 -31.5t-127 -87t-87.5 -126t-52 -154.5zM356 1292q13 92 63 138.5t122 46.5q41 0 73.5 -15t54 -36.5t41.5 -43t45.5 -36.5t55.5 -15q49 0 76 31.5t31 69.5h83q-13 -92 -63.5 -138.5t-122.5 -46.5q-40 0 -72.5 15t-54 36.5t-41.5 43t-46 36.5t-56 15
q-49 0 -75 -31t-32 -70h-82z" />
    <glyph glyph-name="uni1EBE" unicode="&#x1ebe;" horiz-adv-x="1101" 
d="M37 0l227 1434h891l-18 -113h-766l-82 -528h702l-16 -107h-703l-92 -573h785l-17 -113h-911zM432 1565l250 260h168l166 -260h-115l-141 217l-205 -217h-123zM944 1761l246 264h113l-246 -264h-113z" />
    <glyph glyph-name="uni1EBF" unicode="&#x1ebf;" horiz-adv-x="1091" 
d="M487 -20q-201 0 -313.5 109.5t-112.5 330.5q0 131 39.5 250.5t111.5 212t183.5 147.5t245.5 55q184 0 289.5 -100.5t105.5 -288.5q0 -133 -26 -200h-828q-2 -23 -2 -68q0 -181 81 -265.5t241 -84.5q249 0 354 207h111q-137 -305 -480 -305zM197 588h716q36 191 -43.5 295
t-242.5 104q-89 0 -163.5 -31.5t-127 -87t-87.5 -126t-52 -154.5zM365 1196l249 260h168l166 -260h-114l-142 217l-205 -217h-122zM877 1393l245 264h113l-246 -264h-112z" />
    <glyph glyph-name="uni1EC0" unicode="&#x1ec0;" horiz-adv-x="1101" 
d="M37 0l227 1434h891l-18 -113h-766l-82 -528h702l-16 -107h-703l-92 -573h785l-17 -113h-911zM432 1565l250 260h168l166 -260h-115l-141 217l-205 -217h-123zM831 2023h109l154 -264h-109z" />
    <glyph glyph-name="uni1EC1" unicode="&#x1ec1;" horiz-adv-x="1091" 
d="M487 -20q-201 0 -313.5 109.5t-112.5 330.5q0 131 39.5 250.5t111.5 212t183.5 147.5t245.5 55q184 0 289.5 -100.5t105.5 -288.5q0 -133 -26 -200h-828q-2 -23 -2 -68q0 -181 81 -265.5t241 -84.5q249 0 354 207h111q-137 -305 -480 -305zM197 588h716q36 191 -43.5 295
t-242.5 104q-89 0 -163.5 -31.5t-127 -87t-87.5 -126t-52 -154.5zM365 1196l249 260h168l166 -260h-114l-142 217l-205 -217h-122zM764 1655h108l154 -264h-108z" />
    <glyph glyph-name="uni1EC2" unicode="&#x1ec2;" horiz-adv-x="1101" 
d="M37 0l227 1434h891l-18 -113h-766l-82 -528h702l-16 -107h-703l-92 -573h785l-17 -113h-911zM432 1565l250 260h168l166 -260h-115l-141 217l-205 -217h-123zM797 2013q0 83 54.5 128.5t129.5 45.5q77 0 133.5 -50t56.5 -138q0 -84 -52.5 -134.5t-125.5 -58.5l-37 62
q63 2 100.5 35t37.5 92q0 56 -31.5 87.5t-83.5 31.5q-46 0 -76 -26.5t-33 -74.5h-73z" />
    <glyph glyph-name="uni1EC3" unicode="&#x1ec3;" horiz-adv-x="1091" 
d="M487 -20q-201 0 -313.5 109.5t-112.5 330.5q0 131 39.5 250.5t111.5 212t183.5 147.5t245.5 55q184 0 289.5 -100.5t105.5 -288.5q0 -133 -26 -200h-828q-2 -23 -2 -68q0 -181 81 -265.5t241 -84.5q249 0 354 207h111q-137 -305 -480 -305zM197 588h716q36 191 -43.5 295
t-242.5 104q-89 0 -163.5 -31.5t-127 -87t-87.5 -126t-52 -154.5zM365 1196l249 260h168l166 -260h-114l-142 217l-205 -217h-122zM729 1645q0 83 54.5 128.5t129.5 45.5q77 0 134 -50.5t57 -138.5q0 -84 -52.5 -134t-125.5 -58l-37 61q63 2 100 35t37 92q0 56 -31.5 87.5
t-83.5 31.5q-46 0 -75.5 -26t-32.5 -74h-74z" />
    <glyph glyph-name="uni1EC4" unicode="&#x1ec4;" horiz-adv-x="1101" 
d="M37 0l227 1434h891l-18 -113h-766l-82 -528h702l-16 -107h-703l-92 -573h785l-17 -113h-911zM432 1565l250 260h168l166 -260h-115l-141 217l-205 -217h-123zM477 1980q13 92 63 138.5t122 46.5q41 0 73.5 -15t54 -36.5t41.5 -43t45.5 -36.5t55.5 -15q49 0 75.5 31
t30.5 70h84q-13 -92 -63.5 -138.5t-122.5 -46.5q-40 0 -72.5 15t-54 36.5t-41.5 43t-46 36.5t-56 15q-49 0 -75 -31t-32 -70h-82z" />
    <glyph glyph-name="uni1EC5" unicode="&#x1ec5;" horiz-adv-x="1091" 
d="M487 -20q-201 0 -313.5 109.5t-112.5 330.5q0 131 39.5 250.5t111.5 212t183.5 147.5t245.5 55q184 0 289.5 -100.5t105.5 -288.5q0 -133 -26 -200h-828q-2 -23 -2 -68q0 -181 81 -265.5t241 -84.5q249 0 354 207h111q-137 -305 -480 -305zM197 588h716q36 191 -43.5 295
t-242.5 104q-89 0 -163.5 -31.5t-127 -87t-87.5 -126t-52 -154.5zM365 1196l249 260h168l166 -260h-114l-142 217l-205 -217h-122zM410 1612q13 92 62.5 138t121.5 46q41 0 73.5 -15t54 -36t41.5 -42.5t45.5 -36.5t55.5 -15q49 0 76 31t31 69h84q-13 -91 -63.5 -137.5
t-123.5 -46.5q-40 0 -72.5 15t-54 36.5t-41.5 42.5t-46 36t-56 15q-49 0 -74.5 -30.5t-31.5 -69.5h-82z" />
    <glyph glyph-name="uni1EC6" unicode="&#x1ec6;" horiz-adv-x="1101" 
d="M37 0l227 1434h891l-18 -113h-766l-82 -528h702l-16 -107h-703l-92 -573h785l-17 -113h-911zM330 -377q0 39 27.5 66.5t66.5 27.5t66.5 -27.5t27.5 -66.5q0 -38 -28 -66t-66 -28t-66 28t-28 66zM432 1565l250 260h168l166 -260h-115l-141 217l-205 -217h-123z" />
    <glyph glyph-name="uni1EC7" unicode="&#x1ec7;" horiz-adv-x="1091" 
d="M487 -20q-201 0 -313.5 109.5t-112.5 330.5q0 131 39.5 250.5t111.5 212t183.5 147.5t245.5 55q184 0 289.5 -100.5t105.5 -288.5q0 -133 -26 -200h-828q-2 -23 -2 -68q0 -181 81 -265.5t241 -84.5q249 0 354 207h111q-137 -305 -480 -305zM197 588h716q36 191 -43.5 295
t-242.5 104q-89 0 -163.5 -31.5t-127 -87t-87.5 -126t-52 -154.5zM311 -377q0 39 28 66.5t67 27.5t66.5 -27.5t27.5 -66.5q0 -38 -28 -66t-66 -28t-66.5 28t-28.5 66zM365 1196l249 260h168l166 -260h-114l-142 217l-205 -217h-122z" />
    <glyph glyph-name="uni1EC8" unicode="&#x1ec8;" horiz-adv-x="368" 
d="M37 0l227 1434h125l-227 -1434h-125zM166 1735q0 83 54.5 128.5t129.5 45.5q77 0 134 -50.5t57 -138.5q0 -84 -53 -134t-126 -58l-36 61q63 2 100 35t37 92q0 56 -31.5 87.5t-83.5 31.5q-46 0 -75.5 -26t-32.5 -74h-74z" />
    <glyph glyph-name="uni1EC9" unicode="&#x1ec9;" horiz-adv-x="315" 
d="M14 0l168 1065h121l-168 -1065h-121zM80 1366q0 83 54.5 128.5t129.5 45.5q77 0 134 -50.5t57 -137.5q0 -84 -53 -134.5t-126 -58.5l-36 62q63 2 100 35t37 92q0 56 -31.5 87t-83.5 31q-46 0 -75.5 -26t-32.5 -74h-74z" />
    <glyph glyph-name="uni1ECA" unicode="&#x1eca;" horiz-adv-x="368" 
d="M37 0l227 1434h125l-227 -1434h-125zM-49 -377q0 39 27.5 66.5t66.5 27.5t66.5 -27.5t27.5 -66.5q0 -38 -28 -66t-66 -28t-66 28t-28 66z" />
    <glyph glyph-name="uni1ECB" unicode="&#x1ecb;" horiz-adv-x="364" 
d="M37 0l168 1065h121l-168 -1065h-121zM-39 -377q0 39 27.5 66.5t66.5 27.5t67 -27.5t28 -66.5q0 -38 -28.5 -66t-66.5 -28t-66 28t-28 66zM233 1386q0 34 25 59t59 25t59 -25t25 -59t-25 -58.5t-59 -24.5t-59 24.5t-25 58.5z" />
    <glyph glyph-name="uni1ECC" unicode="&#x1ecc;" horiz-adv-x="1458" 
d="M653 -20q-247 0 -394.5 150t-147.5 441q0 138 33 268t97.5 241t154 194t210.5 130.5t258 47.5q247 0 395 -151t148 -443q0 -136 -33 -265.5t-98 -240t-154.5 -194t-210.5 -131t-258 -47.5zM236 575q0 -244 113.5 -364.5t309.5 -120.5q145 0 265.5 66t197 174.5
t118.5 244.5t42 281q0 244 -114.5 364.5t-309.5 120.5q-117 0 -219 -43t-174.5 -117t-125 -171.5t-78 -208.5t-25.5 -226zM500 -377q0 39 27.5 66.5t66.5 27.5t66.5 -27.5t27.5 -66.5q0 -38 -28 -66t-66 -28t-66 28t-28 66z" />
    <glyph glyph-name="uni1ECD" unicode="&#x1ecd;" horiz-adv-x="1150" 
d="M496 -20q-91 0 -168.5 27t-138 80.5t-94.5 140t-34 198.5q0 129 43 248t119 210.5t188.5 146t243.5 54.5q90 0 167 -27t137 -80t94 -140t34 -199q0 -129 -43 -248t-118.5 -210.5t-187.5 -146t-242 -54.5zM182 438q0 -179 91 -267.5t235 -88.5q103 0 191 46t146 122
t91 174.5t33 204.5q0 91 -25.5 160.5t-71 111t-103 62t-126.5 20.5q-103 0 -191 -46t-146 -122t-91 -174t-33 -203zM342 -377q0 39 27.5 66.5t66.5 27.5t66.5 -27.5t27.5 -66.5q0 -38 -28 -66t-66 -28t-66 28t-28 66z" />
    <glyph glyph-name="uni1ECE" unicode="&#x1ece;" horiz-adv-x="1458" 
d="M653 -20q-247 0 -394.5 150t-147.5 441q0 138 33 268t97.5 241t154 194t210.5 130.5t258 47.5q247 0 395 -151t148 -443q0 -136 -33 -265.5t-98 -240t-154.5 -194t-210.5 -131t-258 -47.5zM236 575q0 -244 113.5 -364.5t309.5 -120.5q145 0 265.5 66t197 174.5
t118.5 244.5t42 281q0 244 -114.5 364.5t-309.5 120.5q-117 0 -219 -43t-174.5 -117t-125 -171.5t-78 -208.5t-25.5 -226zM713 1735q0 83 54.5 128.5t129.5 45.5q77 0 133.5 -50.5t56.5 -138.5q0 -84 -52.5 -134t-125.5 -58l-37 61q63 2 100.5 35t37.5 92q0 56 -31.5 87.5
t-83.5 31.5q-46 0 -76 -26t-33 -74h-73z" />
    <glyph glyph-name="uni1ECF" unicode="&#x1ecf;" horiz-adv-x="1150" 
d="M496 -20q-91 0 -168.5 27t-138 80.5t-94.5 140t-34 198.5q0 129 43 248t119 210.5t188.5 146t243.5 54.5q90 0 167 -27t137 -80t94 -140t34 -199q0 -129 -43 -248t-118.5 -210.5t-187.5 -146t-242 -54.5zM182 438q0 -179 91 -267.5t235 -88.5q103 0 191 46t146 122
t91 174.5t33 204.5q0 91 -25.5 160.5t-71 111t-103 62t-126.5 20.5q-103 0 -191 -46t-146 -122t-91 -174t-33 -203zM498 1366q0 83 54.5 128.5t129.5 45.5q77 0 133.5 -50t56.5 -138q0 -84 -52.5 -134.5t-125.5 -58.5l-37 62q63 2 100.5 35t37.5 92q0 56 -31.5 87t-83.5 31
q-46 0 -76 -26t-33 -74h-73z" />
    <glyph glyph-name="uni1ED0" unicode="&#x1ed0;" horiz-adv-x="1458" 
d="M653 -20q-247 0 -394.5 150t-147.5 441q0 138 33 268t97.5 241t154 194t210.5 130.5t258 47.5q247 0 395 -151t148 -443q0 -136 -33 -265.5t-98 -240t-154.5 -194t-210.5 -131t-258 -47.5zM236 575q0 -244 113.5 -364.5t309.5 -120.5q145 0 265.5 66t197 174.5
t118.5 244.5t42 281q0 244 -114.5 364.5t-309.5 120.5q-117 0 -219 -43t-174.5 -117t-125 -171.5t-78 -208.5t-25.5 -226zM602 1565l250 260h168l166 -260h-115l-141 217l-205 -217h-123zM1114 1761l246 264h113l-246 -264h-113z" />
    <glyph glyph-name="uni1ED1" unicode="&#x1ed1;" horiz-adv-x="1150" 
d="M496 -20q-91 0 -168.5 27t-138 80.5t-94.5 140t-34 198.5q0 129 43 248t119 210.5t188.5 146t243.5 54.5q90 0 167 -27t137 -80t94 -140t34 -199q0 -129 -43 -248t-118.5 -210.5t-187.5 -146t-242 -54.5zM182 438q0 -179 91 -267.5t235 -88.5q103 0 191 46t146 122
t91 174.5t33 204.5q0 91 -25.5 160.5t-71 111t-103 62t-126.5 20.5q-103 0 -191 -46t-146 -122t-91 -174t-33 -203zM387 1196l250 260h168l166 -260h-115l-141 217l-205 -217h-123zM899 1393l246 264h112l-245 -264h-113z" />
    <glyph glyph-name="uni1ED2" unicode="&#x1ed2;" horiz-adv-x="1458" 
d="M653 -20q-247 0 -394.5 150t-147.5 441q0 138 33 268t97.5 241t154 194t210.5 130.5t258 47.5q247 0 395 -151t148 -443q0 -136 -33 -265.5t-98 -240t-154.5 -194t-210.5 -131t-258 -47.5zM236 575q0 -244 113.5 -364.5t309.5 -120.5q145 0 265.5 66t197 174.5
t118.5 244.5t42 281q0 244 -114.5 364.5t-309.5 120.5q-117 0 -219 -43t-174.5 -117t-125 -171.5t-78 -208.5t-25.5 -226zM602 1565l250 260h168l166 -260h-115l-141 217l-205 -217h-123zM1001 2023h109l154 -264h-109z" />
    <glyph glyph-name="uni1ED3" unicode="&#x1ed3;" horiz-adv-x="1150" 
d="M496 -20q-91 0 -168.5 27t-138 80.5t-94.5 140t-34 198.5q0 129 43 248t119 210.5t188.5 146t243.5 54.5q90 0 167 -27t137 -80t94 -140t34 -199q0 -129 -43 -248t-118.5 -210.5t-187.5 -146t-242 -54.5zM182 438q0 -179 91 -267.5t235 -88.5q103 0 191 46t146 122
t91 174.5t33 204.5q0 91 -25.5 160.5t-71 111t-103 62t-126.5 20.5q-103 0 -191 -46t-146 -122t-91 -174t-33 -203zM387 1196l250 260h168l166 -260h-115l-141 217l-205 -217h-123zM786 1655h109l154 -264h-109z" />
    <glyph glyph-name="uni1ED4" unicode="&#x1ed4;" horiz-adv-x="1458" 
d="M653 -20q-247 0 -394.5 150t-147.5 441q0 138 33 268t97.5 241t154 194t210.5 130.5t258 47.5q247 0 395 -151t148 -443q0 -136 -33 -265.5t-98 -240t-154.5 -194t-210.5 -131t-258 -47.5zM236 575q0 -244 113.5 -364.5t309.5 -120.5q145 0 265.5 66t197 174.5
t118.5 244.5t42 281q0 244 -114.5 364.5t-309.5 120.5q-117 0 -219 -43t-174.5 -117t-125 -171.5t-78 -208.5t-25.5 -226zM602 1565l250 260h168l166 -260h-115l-141 217l-205 -217h-123zM967 2013q0 83 54.5 128.5t129.5 45.5q77 0 133.5 -50t56.5 -138q0 -84 -52.5 -134.5
t-125.5 -58.5l-37 62q63 2 100.5 35t37.5 92q0 56 -31.5 87.5t-83.5 31.5q-46 0 -76 -26.5t-33 -74.5h-73z" />
    <glyph glyph-name="uni1ED5" unicode="&#x1ed5;" horiz-adv-x="1150" 
d="M496 -20q-91 0 -168.5 27t-138 80.5t-94.5 140t-34 198.5q0 129 43 248t119 210.5t188.5 146t243.5 54.5q90 0 167 -27t137 -80t94 -140t34 -199q0 -129 -43 -248t-118.5 -210.5t-187.5 -146t-242 -54.5zM182 438q0 -179 91 -267.5t235 -88.5q103 0 191 46t146 122
t91 174.5t33 204.5q0 91 -25.5 160.5t-71 111t-103 62t-126.5 20.5q-103 0 -191 -46t-146 -122t-91 -174t-33 -203zM387 1196l250 260h168l166 -260h-115l-141 217l-205 -217h-123zM752 1645q0 83 54.5 128.5t129.5 45.5q77 0 133.5 -50.5t56.5 -138.5q0 -84 -52.5 -134
t-125.5 -58l-37 61q63 2 100.5 35t37.5 92q0 56 -31.5 87.5t-83.5 31.5q-46 0 -76 -26t-33 -74h-73z" />
    <glyph glyph-name="uni1ED6" unicode="&#x1ed6;" horiz-adv-x="1458" 
d="M653 -20q-247 0 -394.5 150t-147.5 441q0 138 33 268t97.5 241t154 194t210.5 130.5t258 47.5q247 0 395 -151t148 -443q0 -136 -33 -265.5t-98 -240t-154.5 -194t-210.5 -131t-258 -47.5zM236 575q0 -244 113.5 -364.5t309.5 -120.5q145 0 265.5 66t197 174.5
t118.5 244.5t42 281q0 244 -114.5 364.5t-309.5 120.5q-117 0 -219 -43t-174.5 -117t-125 -171.5t-78 -208.5t-25.5 -226zM602 1565l250 260h168l166 -260h-115l-141 217l-205 -217h-123zM647 1980q13 92 62.5 138.5t121.5 46.5q41 0 73.5 -15t54 -36.5t41.5 -43t46 -36.5
t56 -15q49 0 75.5 31t30.5 70h84q-13 -92 -63.5 -138.5t-122.5 -46.5q-40 0 -72.5 15t-54 36.5t-41.5 43t-46 36.5t-56 15q-49 0 -75 -31t-32 -70h-82z" />
    <glyph glyph-name="uni1ED7" unicode="&#x1ed7;" horiz-adv-x="1150" 
d="M496 -20q-91 0 -168.5 27t-138 80.5t-94.5 140t-34 198.5q0 129 43 248t119 210.5t188.5 146t243.5 54.5q90 0 167 -27t137 -80t94 -140t34 -199q0 -129 -43 -248t-118.5 -210.5t-187.5 -146t-242 -54.5zM182 438q0 -179 91 -267.5t235 -88.5q103 0 191 46t146 122
t91 174.5t33 204.5q0 91 -25.5 160.5t-71 111t-103 62t-126.5 20.5q-103 0 -191 -46t-146 -122t-91 -174t-33 -203zM387 1196l250 260h168l166 -260h-115l-141 217l-205 -217h-123zM432 1612q13 92 62.5 138t121.5 46q41 0 73.5 -15t54 -36t41.5 -42.5t46 -36.5t56 -15
q49 0 75.5 30.5t30.5 69.5h84q-13 -92 -63 -138t-123 -46q-40 0 -72.5 15t-54 36.5t-41.5 42.5t-46 36t-56 15q-49 0 -75.5 -30.5t-31.5 -69.5h-82z" />
    <glyph glyph-name="uni1ED8" unicode="&#x1ed8;" horiz-adv-x="1458" 
d="M653 -20q-247 0 -394.5 150t-147.5 441q0 138 33 268t97.5 241t154 194t210.5 130.5t258 47.5q247 0 395 -151t148 -443q0 -136 -33 -265.5t-98 -240t-154.5 -194t-210.5 -131t-258 -47.5zM236 575q0 -244 113.5 -364.5t309.5 -120.5q145 0 265.5 66t197 174.5
t118.5 244.5t42 281q0 244 -114.5 364.5t-309.5 120.5q-117 0 -219 -43t-174.5 -117t-125 -171.5t-78 -208.5t-25.5 -226zM500 -377q0 39 27.5 66.5t66.5 27.5t66.5 -27.5t27.5 -66.5q0 -38 -28 -66t-66 -28t-66 28t-28 66zM602 1565l250 260h168l166 -260h-115l-141 217
l-205 -217h-123z" />
    <glyph glyph-name="uni1ED9" unicode="&#x1ed9;" horiz-adv-x="1150" 
d="M496 -20q-91 0 -168.5 27t-138 80.5t-94.5 140t-34 198.5q0 129 43 248t119 210.5t188.5 146t243.5 54.5q90 0 167 -27t137 -80t94 -140t34 -199q0 -129 -43 -248t-118.5 -210.5t-187.5 -146t-242 -54.5zM182 438q0 -179 91 -267.5t235 -88.5q103 0 191 46t146 122
t91 174.5t33 204.5q0 91 -25.5 160.5t-71 111t-103 62t-126.5 20.5q-103 0 -191 -46t-146 -122t-91 -174t-33 -203zM342 -377q0 39 27.5 66.5t66.5 27.5t66.5 -27.5t27.5 -66.5q0 -38 -28 -66t-66 -28t-66 28t-28 66zM387 1196l250 260h168l166 -260h-115l-141 217
l-205 -217h-123z" />
    <glyph glyph-name="uni1EDA" unicode="&#x1eda;" horiz-adv-x="1458" 
d="M653 -20q-247 0 -394.5 150t-147.5 441q0 138 33 268t97.5 241t154 194t210.5 130.5t258 47.5h516l27 162h106l-40 -260h-273q207 -151 207 -496q0 -136 -33 -265.5t-98 -240t-154.5 -194t-210.5 -131t-258 -47.5zM236 575q0 -244 113.5 -364.5t309.5 -120.5
q145 0 265.5 66t197 174.5t118.5 244.5t42 281q0 244 -114.5 364.5t-309.5 120.5q-117 0 -219 -43t-174.5 -117t-125 -171.5t-78 -208.5t-25.5 -226zM825 1561l246 264h113l-246 -264h-113z" />
    <glyph glyph-name="uni1EDB" unicode="&#x1edb;" horiz-adv-x="1150" 
d="M496 -20q-91 0 -168.5 27t-138 80.5t-94.5 140t-34 198.5q0 129 43 248t119 210.5t188.5 146t243.5 54.5h349l24 160h102l-40 -256h-144q141 -121 141 -350q0 -129 -43 -248t-118.5 -210.5t-187.5 -146t-242 -54.5zM182 438q0 -179 91 -267.5t235 -88.5q103 0 191 46
t146 122t91 174.5t33 204.5q0 91 -25.5 160.5t-71 111t-103 62t-126.5 20.5q-103 0 -191 -46t-146 -122t-91 -174t-33 -203zM610 1192l246 264h113l-246 -264h-113z" />
    <glyph glyph-name="uni1EDC" unicode="&#x1edc;" horiz-adv-x="1458" 
d="M653 -20q-247 0 -394.5 150t-147.5 441q0 138 33 268t97.5 241t154 194t210.5 130.5t258 47.5h516l27 162h106l-40 -260h-273q207 -151 207 -496q0 -136 -33 -265.5t-98 -240t-154.5 -194t-210.5 -131t-258 -47.5zM236 575q0 -244 113.5 -364.5t309.5 -120.5
q145 0 265.5 66t197 174.5t118.5 244.5t42 281q0 244 -114.5 364.5t-309.5 120.5q-117 0 -219 -43t-174.5 -117t-125 -171.5t-78 -208.5t-25.5 -226zM666 1825h108l168 -264h-108z" />
    <glyph glyph-name="uni1EDD" unicode="&#x1edd;" horiz-adv-x="1150" 
d="M496 -20q-91 0 -168.5 27t-138 80.5t-94.5 140t-34 198.5q0 129 43 248t119 210.5t188.5 146t243.5 54.5h349l24 160h102l-40 -256h-144q141 -121 141 -350q0 -129 -43 -248t-118.5 -210.5t-187.5 -146t-242 -54.5zM182 438q0 -179 91 -267.5t235 -88.5q103 0 191 46
t146 122t91 174.5t33 204.5q0 91 -25.5 160.5t-71 111t-103 62t-126.5 20.5q-103 0 -191 -46t-146 -122t-91 -174t-33 -203zM453 1456h108l168 -264h-108z" />
    <glyph glyph-name="uni1EDE" unicode="&#x1ede;" horiz-adv-x="1458" 
d="M653 -20q-247 0 -394.5 150t-147.5 441q0 138 33 268t97.5 241t154 194t210.5 130.5t258 47.5h516l27 162h106l-40 -260h-273q207 -151 207 -496q0 -136 -33 -265.5t-98 -240t-154.5 -194t-210.5 -131t-258 -47.5zM236 575q0 -244 113.5 -364.5t309.5 -120.5
q145 0 265.5 66t197 174.5t118.5 244.5t42 281q0 244 -114.5 364.5t-309.5 120.5q-117 0 -219 -43t-174.5 -117t-125 -171.5t-78 -208.5t-25.5 -226zM713 1735q0 83 54.5 128.5t129.5 45.5q77 0 133.5 -50.5t56.5 -138.5q0 -84 -52.5 -134t-125.5 -58l-37 61q63 2 100.5 35
t37.5 92q0 56 -31.5 87.5t-83.5 31.5q-46 0 -76 -26t-33 -74h-73z" />
    <glyph glyph-name="uni1EDF" unicode="&#x1edf;" horiz-adv-x="1150" 
d="M496 -20q-91 0 -168.5 27t-138 80.5t-94.5 140t-34 198.5q0 129 43 248t119 210.5t188.5 146t243.5 54.5h349l24 160h102l-40 -256h-144q141 -121 141 -350q0 -129 -43 -248t-118.5 -210.5t-187.5 -146t-242 -54.5zM182 438q0 -179 91 -267.5t235 -88.5q103 0 191 46
t146 122t91 174.5t33 204.5q0 91 -25.5 160.5t-71 111t-103 62t-126.5 20.5q-103 0 -191 -46t-146 -122t-91 -174t-33 -203zM498 1366q0 83 54.5 128.5t129.5 45.5q77 0 133.5 -50t56.5 -138q0 -84 -52.5 -134.5t-125.5 -58.5l-37 62q63 2 100.5 35t37.5 92q0 56 -31.5 87
t-83.5 31q-46 0 -76 -26t-33 -74h-73z" />
    <glyph glyph-name="uni1EE0" unicode="&#x1ee0;" horiz-adv-x="1458" 
d="M653 -20q-247 0 -394.5 150t-147.5 441q0 138 33 268t97.5 241t154 194t210.5 130.5t258 47.5h516l27 162h106l-40 -260h-273q207 -151 207 -496q0 -136 -33 -265.5t-98 -240t-154.5 -194t-210.5 -131t-258 -47.5zM236 575q0 -244 113.5 -364.5t309.5 -120.5
q145 0 265.5 66t197 174.5t118.5 244.5t42 281q0 244 -114.5 364.5t-309.5 120.5q-117 0 -219 -43t-174.5 -117t-125 -171.5t-78 -208.5t-25.5 -226zM594 1661q13 92 62.5 138t121.5 46q41 0 73.5 -15t54 -36.5t41.5 -42.5t46 -36t56 -15q49 0 75.5 30.5t30.5 69.5h84
q-13 -92 -63 -138t-123 -46q-40 0 -72.5 15t-54.5 36t-42 42.5t-46 36.5t-56 15q-49 0 -74.5 -30.5t-31.5 -69.5h-82z" />
    <glyph glyph-name="uni1EE1" unicode="&#x1ee1;" horiz-adv-x="1150" 
d="M496 -20q-91 0 -168.5 27t-138 80.5t-94.5 140t-34 198.5q0 129 43 248t119 210.5t188.5 146t243.5 54.5h349l24 160h102l-40 -256h-144q141 -121 141 -350q0 -129 -43 -248t-118.5 -210.5t-187.5 -146t-242 -54.5zM182 438q0 -179 91 -267.5t235 -88.5q103 0 191 46
t146 122t91 174.5t33 204.5q0 91 -25.5 160.5t-71 111t-103 62t-126.5 20.5q-103 0 -191 -46t-146 -122t-91 -174t-33 -203zM381 1292q13 92 62.5 138.5t121.5 46.5q41 0 73.5 -15t54 -36.5t41.5 -43t46 -36.5t56 -15q49 0 75.5 31t30.5 70h84q-13 -92 -63.5 -138.5
t-122.5 -46.5q-40 0 -72.5 15t-54.5 36.5t-42 43t-46 36.5t-56 15q-49 0 -74.5 -30.5t-31.5 -70.5h-82z" />
    <glyph glyph-name="uni1EE2" unicode="&#x1ee2;" horiz-adv-x="1458" 
d="M653 -20q-247 0 -394.5 150t-147.5 441q0 138 33 268t97.5 241t154 194t210.5 130.5t258 47.5h516l27 162h106l-40 -260h-273q207 -151 207 -496q0 -136 -33 -265.5t-98 -240t-154.5 -194t-210.5 -131t-258 -47.5zM236 575q0 -244 113.5 -364.5t309.5 -120.5
q145 0 265.5 66t197 174.5t118.5 244.5t42 281q0 244 -114.5 364.5t-309.5 120.5q-117 0 -219 -43t-174.5 -117t-125 -171.5t-78 -208.5t-25.5 -226zM498 -377q0 39 27.5 66.5t66.5 27.5t66.5 -27.5t27.5 -66.5q0 -38 -28 -66t-66 -28t-66 28t-28 66z" />
    <glyph glyph-name="uni1EE3" unicode="&#x1ee3;" horiz-adv-x="1150" 
d="M496 -20q-91 0 -168.5 27t-138 80.5t-94.5 140t-34 198.5q0 129 43 248t119 210.5t188.5 146t243.5 54.5h349l24 160h102l-40 -256h-144q141 -121 141 -350q0 -129 -43 -248t-118.5 -210.5t-187.5 -146t-242 -54.5zM182 438q0 -179 91 -267.5t235 -88.5q103 0 191 46
t146 122t91 174.5t33 204.5q0 91 -25.5 160.5t-71 111t-103 62t-126.5 20.5q-103 0 -191 -46t-146 -122t-91 -174t-33 -203zM342 -377q0 39 27.5 66.5t66.5 27.5t66.5 -27.5t27.5 -66.5q0 -38 -28 -66t-66 -28t-66 28t-28 66z" />
    <glyph glyph-name="uni1EE4" unicode="&#x1ee4;" horiz-adv-x="1318" 
d="M580 -20q-252 0 -375 148.5t-82 412.5l141 893h127l-141 -887q-35 -218 58 -336.5t290 -118.5q195 0 318 117.5t157 337.5l141 887h127l-141 -893q-43 -265 -206 -413t-414 -148zM426 -377q0 39 27.5 66.5t66.5 27.5t66.5 -27.5t27.5 -66.5q0 -38 -28 -66t-66 -28t-66 28
t-28 66z" />
    <glyph glyph-name="uni1EE5" unicode="&#x1ee5;" 
d="M225 434q-26 -167 34.5 -258.5t215.5 -91.5q156 0 261.5 93t131.5 251l101 637h121l-168 -1065h-121l30 199q-13 -24 -33.5 -50.5t-56.5 -57.5t-79 -55t-104.5 -40t-129.5 -16q-64 0 -117.5 14t-101 45t-75 81.5t-39 123.5t6.5 170l103 651h121zM326 -377q0 39 27.5 66.5
t66.5 27.5t66.5 -27.5t27.5 -66.5q0 -38 -28 -66t-66 -28t-66 28t-28 66z" />
    <glyph glyph-name="uni1EE6" unicode="&#x1ee6;" horiz-adv-x="1318" 
d="M580 -20q-252 0 -375 148.5t-82 412.5l141 893h127l-141 -887q-35 -218 58 -336.5t290 -118.5q195 0 318 117.5t157 337.5l141 887h127l-141 -893q-43 -265 -206 -413t-414 -148zM641 1735q0 83 54.5 128.5t129.5 45.5q77 0 134 -50.5t57 -138.5q0 -84 -52.5 -134
t-125.5 -58l-37 61q63 2 100 35t37 92q0 56 -31.5 87.5t-83.5 31.5q-46 0 -75.5 -26t-32.5 -74h-74z" />
    <glyph glyph-name="uni1EE7" unicode="&#x1ee7;" 
d="M225 434q-26 -167 34.5 -258.5t215.5 -91.5q156 0 261.5 93t131.5 251l101 637h121l-168 -1065h-121l30 199q-13 -24 -33.5 -50.5t-56.5 -57.5t-79 -55t-104.5 -40t-129.5 -16q-64 0 -117.5 14t-101 45t-75 81.5t-39 123.5t6.5 170l103 651h121zM477 1366q0 83 55 128.5
t130 45.5q77 0 133.5 -50t56.5 -138q0 -84 -52.5 -134.5t-125.5 -58.5l-37 62q63 2 100 35t37 92q0 56 -31.5 87t-83.5 31q-46 0 -75.5 -26t-32.5 -74h-74z" />
    <glyph glyph-name="uni1EE8" unicode="&#x1ee8;" horiz-adv-x="1318" 
d="M580 -20q-252 0 -375 148.5t-82 412.5l141 893h127l-141 -887q-35 -218 58 -336.5t290 -118.5q195 0 318 117.5t157 337.5l141 887h207l27 180h106l-26 -180l-17 -103h-186l-125 -790q-43 -265 -206 -413t-414 -148zM756 1561l245 264h113l-246 -264h-112z" />
    <glyph glyph-name="uni1EE9" unicode="&#x1ee9;" 
d="M225 434q-26 -167 34.5 -258.5t215.5 -91.5q156 0 261.5 93t131.5 251l101 637h207l26 180h107l-27 -180l-16 -102h-193l-151 -963h-121l30 199q-13 -24 -33.5 -50.5t-56.5 -57.5t-79 -55t-104.5 -40t-129.5 -16q-64 0 -117.5 14t-101 45t-75 81.5t-39 123.5t6.5 170
l103 651h121zM600 1192l246 264h112l-245 -264h-113z" />
    <glyph glyph-name="uni1EEA" unicode="&#x1eea;" horiz-adv-x="1318" 
d="M580 -20q-252 0 -375 148.5t-82 412.5l141 893h127l-141 -887q-35 -218 58 -336.5t290 -118.5q195 0 318 117.5t157 337.5l141 887h207l27 180h106l-26 -180l-17 -103h-186l-125 -790q-43 -265 -206 -413t-414 -148zM596 1825h109l167 -264h-108z" />
    <glyph glyph-name="uni1EEB" unicode="&#x1eeb;" 
d="M225 434q-26 -167 34.5 -258.5t215.5 -91.5q156 0 261.5 93t131.5 251l101 637h207l26 180h107l-27 -180l-16 -102h-193l-151 -963h-121l30 199q-13 -24 -33.5 -50.5t-56.5 -57.5t-79 -55t-104.5 -40t-129.5 -16q-64 0 -117.5 14t-101 45t-75 81.5t-39 123.5t6.5 170
l103 651h121zM442 1456h109l168 -264h-109z" />
    <glyph glyph-name="uni1EEC" unicode="&#x1eec;" horiz-adv-x="1318" 
d="M580 -20q-252 0 -375 148.5t-82 412.5l141 893h127l-141 -887q-35 -218 58 -336.5t290 -118.5q195 0 318 117.5t157 337.5l141 887h207l27 180h106l-26 -180l-17 -103h-186l-125 -790q-43 -265 -206 -413t-414 -148zM641 1735q0 83 54.5 128.5t129.5 45.5q77 0 134 -50.5
t57 -138.5q0 -84 -52.5 -134t-125.5 -58l-37 61q63 2 100 35t37 92q0 56 -31.5 87.5t-83.5 31.5q-46 0 -75.5 -26t-32.5 -74h-74z" />
    <glyph glyph-name="uni1EED" unicode="&#x1eed;" 
d="M225 434q-26 -167 34.5 -258.5t215.5 -91.5q156 0 261.5 93t131.5 251l101 637h207l26 180h107l-27 -180l-16 -102h-193l-151 -963h-121l30 199q-13 -24 -33.5 -50.5t-56.5 -57.5t-79 -55t-104.5 -40t-129.5 -16q-64 0 -117.5 14t-101 45t-75 81.5t-39 123.5t6.5 170
l103 651h121zM487 1366q0 83 55 128.5t130 45.5q77 0 133.5 -50t56.5 -138q0 -84 -52.5 -134.5t-125.5 -58.5l-37 62q63 2 100 35t37 92q0 56 -31 87t-83 31q-46 0 -76 -26t-33 -74h-74z" />
    <glyph glyph-name="uni1EEE" unicode="&#x1eee;" horiz-adv-x="1318" 
d="M580 -20q-252 0 -375 148.5t-82 412.5l141 893h127l-141 -887q-35 -218 58 -336.5t290 -118.5q195 0 318 117.5t157 337.5l141 887h207l27 180h106l-26 -180l-17 -103h-186l-125 -790q-43 -265 -206 -413t-414 -148zM524 1661q13 92 63 138t122 46q41 0 73.5 -15
t54 -36.5t41.5 -42.5t45.5 -36t55.5 -15q49 0 75.5 30.5t30.5 69.5h84q-13 -92 -63 -138t-123 -46q-40 0 -72.5 15t-54 36t-41.5 42.5t-46 36.5t-56 15q-49 0 -75.5 -30.5t-31.5 -69.5h-82z" />
    <glyph glyph-name="uni1EEF" unicode="&#x1eef;" 
d="M225 434q-26 -167 34.5 -258.5t215.5 -91.5q156 0 261.5 93t131.5 251l101 637h207l26 180h107l-27 -180l-16 -102h-193l-151 -963h-121l30 199q-13 -24 -33.5 -50.5t-56.5 -57.5t-79 -55t-104.5 -40t-129.5 -16q-64 0 -117.5 14t-101 45t-75 81.5t-39 123.5t6.5 170
l103 651h121zM369 1292q13 92 62.5 138.5t121.5 46.5q41 0 73.5 -15t54 -36.5t41.5 -43t45.5 -36.5t55.5 -15q49 0 76 31.5t31 69.5h84q-13 -92 -64 -138.5t-123 -46.5q-40 0 -72.5 15t-54 36.5t-41.5 43t-46 36.5t-56 15q-49 0 -74.5 -30.5t-31.5 -70.5h-82z" />
    <glyph glyph-name="uni1EF0" unicode="&#x1ef0;" horiz-adv-x="1318" 
d="M580 -20q-252 0 -375 148.5t-82 412.5l141 893h127l-141 -887q-35 -218 58 -336.5t290 -118.5q195 0 318 117.5t157 337.5l141 887h207l27 180h106l-26 -180l-17 -103h-186l-125 -790q-43 -265 -206 -413t-414 -148zM426 -377q0 39 27.5 66.5t66.5 27.5t66.5 -27.5
t27.5 -66.5q0 -38 -28 -66t-66 -28t-66 28t-28 66z" />
    <glyph glyph-name="uni1EF1" unicode="&#x1ef1;" 
d="M225 434q-26 -167 34.5 -258.5t215.5 -91.5q156 0 261.5 93t131.5 251l101 637h207l26 180h107l-27 -180l-16 -102h-193l-151 -963h-121l30 199q-13 -24 -33.5 -50.5t-56.5 -57.5t-79 -55t-104.5 -40t-129.5 -16q-64 0 -117.5 14t-101 45t-75 81.5t-39 123.5t6.5 170
l103 651h121zM332 -377q0 39 27.5 66.5t66.5 27.5t66.5 -27.5t27.5 -66.5q0 -38 -28 -66t-66 -28t-66 28t-28 66z" />
    <glyph glyph-name="Ygrave" unicode="&#x1ef2;" horiz-adv-x="1300" 
d="M504 0l90 571l-391 863h141l332 -740l563 740h145l-665 -863l-90 -571h-125zM588 1825h108l168 -264h-108z" />
    <glyph glyph-name="ygrave" unicode="&#x1ef3;" horiz-adv-x="1067" 
d="M33 -285q193 -28 311 181q47 82 33 143l-244 1026h123l213 -936l506 936h127l-651 -1180q-91 -163 -197 -228.5t-238 -47.5zM416 1456h108l168 -264h-108z" />
    <glyph glyph-name="uni1EF4" unicode="&#x1ef4;" horiz-adv-x="1300" 
d="M504 0l90 571l-391 863h141l332 -740l563 740h145l-665 -863l-90 -571h-125zM418 -377q0 39 27.5 66.5t66.5 27.5t66.5 -27.5t27.5 -66.5q0 -38 -28 -66t-66 -28t-66 28t-28 66z" />
    <glyph glyph-name="uni1EF5" unicode="&#x1ef5;" horiz-adv-x="1067" 
d="M33 -285q193 -28 311 181q47 82 33 143l-244 1026h123l213 -936l506 936h127l-651 -1180q-91 -163 -197 -228.5t-238 -47.5zM467 -377q0 39 27.5 66.5t66.5 27.5t66.5 -27.5t27.5 -66.5q0 -38 -28 -66t-66 -28t-66 28t-28 66z" />
    <glyph glyph-name="uni1EF6" unicode="&#x1ef6;" horiz-adv-x="1300" 
d="M504 0l90 571l-391 863h141l332 -740l563 740h145l-665 -863l-90 -571h-125zM633 1735q0 83 54.5 128.5t129.5 45.5q77 0 134 -50.5t57 -138.5q0 -84 -53 -134t-126 -58l-36 61q63 2 100 35t37 92q0 56 -31.5 87.5t-83.5 31.5q-46 0 -75.5 -26t-32.5 -74h-74z" />
    <glyph glyph-name="uni1EF7" unicode="&#x1ef7;" horiz-adv-x="1067" 
d="M33 -285q193 -28 311 181q47 82 33 143l-244 1026h123l213 -936l506 936h127l-651 -1180q-91 -163 -197 -228.5t-238 -47.5zM461 1366q0 83 54.5 128.5t129.5 45.5q77 0 134 -50.5t57 -137.5q0 -84 -53 -134.5t-126 -58.5l-36 62q63 2 100 35t37 92q0 56 -31.5 87
t-83.5 31q-46 0 -75.5 -26t-32.5 -74h-74z" />
    <glyph glyph-name="uni1EF8" unicode="&#x1ef8;" horiz-adv-x="1300" 
d="M504 0l90 571l-391 863h141l332 -740l563 740h145l-665 -863l-90 -571h-125zM516 1661q13 92 62.5 138t121.5 46q41 0 73.5 -15t54 -36.5t41.5 -42.5t46 -36t56 -15q49 0 75.5 30.5t30.5 69.5h84q-13 -92 -63 -138t-123 -46q-40 0 -72.5 15t-54 36t-41.5 42.5t-46 36.5
t-56 15q-49 0 -75.5 -30.5t-31.5 -69.5h-82z" />
    <glyph glyph-name="uni1EF9" unicode="&#x1ef9;" horiz-adv-x="1067" 
d="M33 -285q193 -28 311 181q47 82 33 143l-244 1026h123l213 -936l506 936h127l-651 -1180q-91 -163 -197 -228.5t-238 -47.5zM344 1292q13 92 62.5 138.5t121.5 46.5q41 0 73.5 -15t54 -36.5t41.5 -43t46 -36.5t56 -15q49 0 75.5 31t30.5 70h84q-13 -92 -63.5 -138.5
t-122.5 -46.5q-40 0 -72.5 15t-54.5 36.5t-42 43t-46 36.5t-56 15q-49 0 -74.5 -30.5t-31.5 -70.5h-82z" />
    <glyph glyph-name="endash" unicode="&#x2013;" horiz-adv-x="1228" 
d="M90 526l16 99h1045l-16 -99h-1045z" />
    <glyph glyph-name="emdash" unicode="&#x2014;" horiz-adv-x="1351" 
d="M90 526l16 99h1168l-17 -99h-1167z" />
    <glyph glyph-name="quoteleft" unicode="&#x2018;" horiz-adv-x="378" 
d="M416 1382q-122 -6 -131 -112q47 0 75.5 -24.5t28.5 -65.5q0 -42 -28 -70.5t-72 -28.5t-71.5 32.5t-27.5 94.5q0 94 58.5 167t165.5 73h12z" />
    <glyph glyph-name="quoteright" unicode="&#x2019;" horiz-adv-x="378" 
d="M197 1151q122 6 131 113q-47 0 -76 24.5t-29 65.5q0 42 28.5 70t72.5 28q43 0 70.5 -32.5t27.5 -94.5q0 -94 -58 -167t-165 -73h-13z" />
    <glyph glyph-name="quotesinglbase" unicode="&#x201a;" horiz-adv-x="389" 
d="M-8 -133q122 6 131 113q-47 0 -76 24.5t-29 65.5q0 42 28.5 70t72.5 28q43 0 70.5 -32.5t27.5 -94.5q0 -94 -58 -167t-165 -73h-12z" />
    <glyph glyph-name="quotedblleft" unicode="&#x201c;" horiz-adv-x="651" 
d="M416 1382q-122 -6 -131 -112q47 0 75.5 -24.5t28.5 -65.5q0 -42 -28 -70.5t-72 -28.5t-71.5 32.5t-27.5 94.5q0 94 58.5 167t165.5 73h12zM465 1208q0 94 58 167t165 73h12l-10 -66q-122 -6 -131 -112q47 0 76 -24.5t29 -65.5q0 -42 -28.5 -70.5t-72.5 -28.5
q-43 0 -70.5 32.5t-27.5 94.5z" />
    <glyph glyph-name="quotedblright" unicode="&#x201d;" horiz-adv-x="651" 
d="M197 1151q122 6 131 113q-47 0 -76 24.5t-29 65.5q0 42 28.5 70t72.5 28q43 0 70.5 -32.5t27.5 -94.5q0 -94 -58 -167t-165 -73h-13zM459 1085l10 66q122 6 131 113q-47 0 -75.5 24.5t-28.5 65.5q0 42 28 70t72 28q43 0 70.5 -32.5t27.5 -94.5q0 -94 -58 -167t-165 -73
h-12z" />
    <glyph glyph-name="quotedblbase" unicode="&#x201e;" horiz-adv-x="661" 
d="M262 -145q122 6 131 112q-47 0 -75.5 24.5t-28.5 65.5q0 42 28 70.5t72 28.5q43 0 70.5 -32.5t27.5 -94.5q0 -94 -58 -167t-165 -73h-12zM-20 -211l10 66q122 6 131 112q-47 0 -76 24.5t-29 65.5q0 42 28.5 70.5t72.5 28.5q43 0 70.5 -32.5t27.5 -94.5q0 -94 -58 -167
t-165 -73h-12z" />
    <glyph glyph-name="dagger" unicode="&#x2020;" horiz-adv-x="636" 
d="M276 580l84 526h-167l16 96h168l37 232h98l-37 -232h166l-16 -96h-164l-84 -526h-101z" />
    <glyph glyph-name="daggerdbl" unicode="&#x2021;" horiz-adv-x="636" 
d="M186 0l52 322h-168l14 96h168l96 598h-170l15 96h169l52 322h98l-51 -322h164l-15 -96h-164l-96 -598h166l-14 -96h-166l-51 -322h-99z" />
    <glyph glyph-name="bullet" unicode="&#x2022;" horiz-adv-x="526" 
d="M266 381q-66 0 -113 46.5t-47 113.5q0 66 47 111.5t113 45.5t112 -45.5t46 -111.5q0 -67 -46 -113.5t-112 -46.5z" />
    <glyph glyph-name="ellipsis" unicode="&#x2026;" horiz-adv-x="1157" 
d="M504 -20q-38 0 -66 28t-28 66q0 39 27.5 66.5t66.5 27.5q40 0 68 -27t28 -67q0 -38 -28 -66t-68 -28zM18 74q0 39 28 66.5t67 27.5q40 0 68 -27t28 -67q0 -38 -28 -66t-68 -28q-38 0 -66.5 28t-28.5 66zM801 74q0 39 27.5 66.5t66.5 27.5q40 0 68 -27t28 -67
q0 -38 -28 -66t-68 -28q-38 0 -66 28t-28 66z" />
    <glyph glyph-name="perthousand" unicode="&#x2030;" horiz-adv-x="2105" 
d="M158 262l-41 78l1253 825l43 -78zM182 1077q0 149 89.5 259t230.5 110q105 0 167 -64.5t62 -183.5q0 -149 -89.5 -259t-231.5 -110q-104 0 -166 64.5t-62 183.5zM279 1085q0 -163 145 -163q69 0 118.5 41t71 100t21.5 127q0 164 -146 164q-101 0 -155.5 -80.5
t-54.5 -188.5zM797 229q0 96 38.5 179t113 135.5t169.5 52.5q104 0 166 -63.5t62 -182.5q0 -149 -89.5 -258.5t-230.5 -109.5q-105 0 -167 64t-62 183zM893 236q0 -83 38 -123.5t107 -40.5q101 0 156 81t55 189q0 83 -38 123.5t-105 40.5q-102 0 -157.5 -81t-55.5 -189z
M1432 229q0 149 89 258t230 109q105 0 167 -63.5t62 -182.5q0 -149 -89.5 -258.5t-231.5 -109.5q-104 0 -165.5 64t-61.5 183zM1528 236q0 -83 38 -123.5t107 -40.5q100 0 155.5 81.5t55.5 188.5q0 83 -38 123.5t-107 40.5t-118.5 -41t-71 -100.5t-21.5 -128.5z" />
    <glyph glyph-name="guilsinglleft" unicode="&#x2039;" horiz-adv-x="450" 
d="M334 315l-248 248l16 94l324 250l-18 -125l-222 -172l168 -172z" />
    <glyph glyph-name="guilsinglright" unicode="&#x203a;" horiz-adv-x="452" 
d="M143 907l248 -248l-16 -94l-324 -250l19 125l221 172l-168 172z" />
    <glyph glyph-name="fraction" unicode="&#x2044;" horiz-adv-x="303" 
d="M-416 0l1121 1434h71l-1120 -1434h-72z" />
    <glyph glyph-name="Euro" unicode="&#x20ac;" horiz-adv-x="1431" 
d="M111 770l12 80h115q33 128 97 236.5t154 191t211.5 128.5t260.5 46q216 0 348 -108t141 -304h-119q-17 146 -117 223.5t-262 77.5q-112 0 -209.5 -38t-170.5 -105.5t-125 -155.5t-82 -192h415l-12 -80h-422q-15 -71 -18 -143h415l-12 -82h-403q10 -226 128 -340.5
t310 -114.5q161 0 278 79t181 224h123q-47 -136 -135.5 -229.5t-204 -138.5t-254.5 -45q-246 0 -394 142t-157 423h-129l12 82h119q3 80 14 143h-108z" />
    <glyph glyph-name="trademark" unicode="&#x2122;" horiz-adv-x="993" 
d="M573 1065l60 369h74l90 -297l182 297h76l-60 -369h-67l39 246l-152 -246h-55l-78 246l-41 -246h-68zM215 1372l10 62h334l-12 -62h-131l-49 -307h-68l47 307h-131z" />
    <glyph glyph-name="partialdiff" unicode="&#x2202;" horiz-adv-x="1175" 
d="M496 -20q-217 0 -327.5 138t-76.5 361q35 218 181 348.5t352 130.5q139 0 240.5 -62.5t133.5 -188.5q99 645 -299 645q-141 0 -233.5 -72.5t-116.5 -175.5h-108q13 66 49.5 127t94.5 111t144 80t187 30q100 0 176.5 -30t123 -85t74.5 -125t36 -158.5t4 -176t-19 -185.5
q-56 -353 -215.5 -532.5t-400.5 -179.5zM209 479q-28 -175 52 -286t249 -111q167 0 284 112.5t146 284.5q27 171 -56 275t-253 104q-169 0 -282 -104t-140 -275z" />
    <glyph glyph-name="product" unicode="&#x220f;" horiz-adv-x="1345" 
d="M-53 -389l321 2027h1162l-322 -2027h-113l303 1919h-936l-303 -1919h-112z" />
    <glyph glyph-name="summation" unicode="&#x2211;" horiz-adv-x="1337" 
d="M-53 -389l723 1014l-402 1013h1153l-20 -112h-957l361 -901l-641 -901h952l-16 -113h-1153z" />
    <glyph glyph-name="minus" unicode="&#x2212;" horiz-adv-x="831" 
d="M113 487l18 99h588l-19 -99h-587z" />
    <glyph glyph-name="radical" unicode="&#x221a;" horiz-adv-x="1464" 
d="M537 -389l-220 958h-221l23 125h295l200 -909l811 1853h123l-886 -2027h-125z" />
    </font>
</defs>
</svg>
