<?xml version="1.0" standalone="no"?>
<!DOCTYPE svg PUBLIC "-//W3C//DTD SVG 1.1//EN" "http://www.w3.org/Graphics/SVG/1.1/DTD/svg11.dtd" >
<svg xmlns="http://www.w3.org/2000/svg" xmlns:xlink="http://www.w3.org/1999/xlink" version="1.1">
<metadata>
Created by FontForge 20170731 at Sun Aug  6 18:04:30 2023
 By Aleksey,,,
Copyright (c) 2021 by Connary Fagen. All rights reserved.
</metadata>
<defs>
<font id="ArticulatCF-DemiBoldOblique" horiz-adv-x="1210" >
  <font-face 
    font-family="Articulat CF Demi Bold"
    font-weight="600"
    font-style="oblique"
    font-stretch="normal"
    units-per-em="2048"
    panose-1="0 0 0 0 0 0 0 0 0 0"
    ascent="1638"
    descent="-410"
    x-height="1065"
    cap-height="1434"
    bbox="-438 -637 2259 2216"
    underline-thickness="102"
    underline-position="-358"
    slope="-9"
    unicode-range="U+0020-A78C"
  />
<missing-glyph horiz-adv-x="1470" 
d="M29 0l225 1434h1249l-225 -1434h-1249zM152 106h1036l192 1221h-1036zM240 184l469 539l-295 526h118l246 -446l385 446h119l-463 -526l301 -539h-119l-249 461l-394 -461h-118z" />
    <glyph glyph-name=".notdef" horiz-adv-x="1470" 
d="M29 0l225 1434h1249l-225 -1434h-1249zM152 106h1036l192 1221h-1036zM240 184l469 539l-295 526h118l246 -446l385 446h119l-463 -526l301 -539h-119l-249 461l-394 -461h-118z" />
    <glyph glyph-name=".null" horiz-adv-x="0" 
 />
    <glyph glyph-name="nonmarkingreturn" horiz-adv-x="682" 
 />
    <glyph glyph-name="space" unicode=" " horiz-adv-x="471" 
 />
    <glyph glyph-name="exclam" unicode="!" horiz-adv-x="550" 
d="M162 471l121 963h266l-187 -963h-200zM49 139q0 67 48 114.5t116 47.5q67 0 114.5 -47.5t47.5 -114.5q0 -66 -47.5 -112.5t-114.5 -46.5q-68 0 -116 46.5t-48 112.5z" />
    <glyph glyph-name="quotedbl" unicode="&#x22;" horiz-adv-x="847" 
d="M567 858l92 576h250l-92 -576h-250zM133 858l92 576h250l-92 -576h-250z" />
    <glyph glyph-name="numbersign" unicode="#" horiz-adv-x="1222" 
d="M598 0l94 362h-282l-95 -362h-161l94 362h-185l25 164h201l100 381h-186l26 164h201l94 363h162l-94 -363h282l95 363h161l-94 -363h185l-27 -164h-199l-100 -381h184l-24 -164h-201l-94 -362h-162zM451 526h282l101 381h-283z" />
    <glyph glyph-name="dollar" unicode="$" horiz-adv-x="1265" 
d="M465 -184l27 166q-231 17 -346 141.5t-83 331.5h267q-8 -96 40 -162t156 -84l68 424l-72 14q-160 34 -249 115t-89 233q0 133 71 235.5t192.5 158.5t275.5 63l27 166h110l-26 -168q202 -18 307 -127.5t78 -294.5h-267q12 81 -28.5 130t-126.5 63l-62 -390l58 -12
q197 -40 285.5 -123t88.5 -233q0 -214 -157.5 -342.5t-407.5 -140.5l-27 -164h-110zM459 1020q0 -61 38 -103.5t132 -64.5l59 373q-105 -9 -167 -63.5t-62 -141.5zM637 207q117 9 185.5 68t68.5 155q0 75 -44.5 115.5t-146.5 64.5z" />
    <glyph glyph-name="percent" unicode="%" horiz-adv-x="1517" 
d="M199 231l-84 150l1261 823l84 -149zM168 1061q0 104 42.5 192.5t125 144.5t188.5 56q113 0 180.5 -65t67.5 -193q0 -161 -98 -278t-256 -117q-113 0 -181.5 66t-68.5 194zM358 1094q0 -117 91 -117q66 0 99.5 55.5t33.5 128.5q0 117 -90 117q-65 0 -99.5 -55.5
t-34.5 -128.5zM805 242q0 103 42 191.5t124 145t188 56.5q113 0 181.5 -66t68.5 -194q0 -103 -42 -191.5t-124 -145t-188 -56.5q-113 0 -181.5 65t-68.5 195zM995 274q0 -116 90 -116q66 0 100 56t34 128q0 117 -91 117q-66 0 -99.5 -56t-33.5 -129z" />
    <glyph glyph-name="ampersand" unicode="&#x26;" horiz-adv-x="1458" 
d="M510 -20q-206 0 -329.5 101.5t-123.5 274.5q0 79 28 149t80.5 126.5t115.5 101t145 86.5q-102 150 -102 279q0 70 25.5 132.5t75.5 112.5t132 79.5t186 29.5q172 0 262.5 -76t90.5 -202q0 -51 -16 -102t-52.5 -106.5t-105.5 -109t-164 -96.5l229 -307q84 139 109 305h233
q-47 -292 -205 -488l203 -270h-293l-84 113q-198 -133 -440 -133zM332 397q0 -88 64.5 -145t176.5 -57q132 0 254 84l-290 387q-59 -29 -101 -65t-63.5 -72t-31 -68t-9.5 -64zM553 1124q0 -77 92 -209q217 102 217 236q0 56 -38 87.5t-103 31.5q-75 0 -121.5 -40t-46.5 -106
z" />
    <glyph glyph-name="quotesingle" unicode="'" horiz-adv-x="413" 
d="M133 858l92 576h250l-92 -576h-250z" />
    <glyph glyph-name="parenleft" unicode="(" horiz-adv-x="653" 
d="M182 -266q-154 387 -69 921q80 510 354 871h252q-266 -374 -344 -871q-84 -524 59 -921h-252z" />
    <glyph glyph-name="parenright" unicode=")" horiz-adv-x="651" 
d="M502 1526q154 -388 69 -922q-80 -509 -354 -870h-252q266 374 344 870q84 524 -59 922h252z" />
    <glyph glyph-name="asterisk" unicode="*" horiz-adv-x="1056" 
d="M387 655l-137 103l205 231l-254 68l75 176l261 -76l41 277h188l-49 -277l284 76l17 -176l-277 -68l131 -231l-167 -103l-121 234z" />
    <glyph glyph-name="plus" unicode="+" horiz-adv-x="1204" 
d="M410 92l59 371h-371l37 229h369l59 369h242l-60 -369h375l-37 -229h-372l-60 -371h-241z" />
    <glyph glyph-name="comma" unicode="," horiz-adv-x="507" 
d="M20 -141q79 4 117 34t49 93q-81 0 -124.5 41t-43.5 106q0 71 47 119.5t123 48.5q75 0 121.5 -50.5t46.5 -156.5q0 -68 -21 -129t-61.5 -110t-107 -78t-150.5 -29h-12z" />
    <glyph glyph-name="hyphen" unicode="-" horiz-adv-x="776" 
d="M72 469l32 197h613l-33 -197h-612z" />
    <glyph glyph-name="period" unicode="." horiz-adv-x="489" 
d="M182 -20q-68 0 -116 46.5t-48 112.5q0 67 48 114.5t116 47.5t115 -47.5t47 -114.5q0 -66 -47.5 -112.5t-114.5 -46.5z" />
    <glyph glyph-name="slash" unicode="/" horiz-adv-x="944" 
d="M-23 2l785 1432h264l-784 -1432h-265z" />
    <glyph glyph-name="zero" unicode="0" horiz-adv-x="1296" 
d="M571 -20q-100 0 -183.5 31.5t-150 96.5t-104 176.5t-37.5 260.5q0 136 28.5 267t86.5 246.5t139 203.5t192.5 139t239.5 51q102 0 185.5 -31.5t149.5 -97.5t103 -177.5t37 -260.5q0 -134 -28 -264.5t-86 -246t-138.5 -203.5t-192.5 -139.5t-241 -51.5zM348 569
q0 -176 63.5 -272t186.5 -96q80 0 148 40.5t115 107.5t80.5 153.5t49 178.5t15.5 183q0 176 -61.5 271.5t-186.5 95.5q-79 0 -147.5 -40.5t-115.5 -107t-81 -153t-50 -178.5t-16 -183z" />
    <glyph glyph-name="one" unicode="1" horiz-adv-x="790" 
d="M469 1108q-117 -105 -315 -109l32 215q242 25 334 220h262l-227 -1434h-262z" />
    <glyph glyph-name="two" unicode="2" horiz-adv-x="1165" 
d="M8 68q23 134 71 232.5t147.5 191t262.5 180.5q20 11 61.5 33t59.5 32t53 29.5t51 30.5t43.5 30t40.5 33t32 34t28.5 38.5t18.5 41t14 46.5q10 55 -3 96.5t-43.5 65.5t-69 35.5t-83.5 11.5q-102 0 -175 -60.5t-91 -185.5l-4 -29h-254l6 41q15 98 56.5 179.5t108.5 144.5
t167 98t223 35q230 0 342 -114t84 -300q-12 -77 -47.5 -144t-72.5 -110.5t-106.5 -92.5t-108.5 -71.5t-121 -65.5l-3 -1.5l-3 -1.5t-3.5 -2t-3.5 -2q-176 -95 -256.5 -166t-97.5 -152l-2 -12h692l-33 -217h-991z" />
    <glyph glyph-name="three" unicode="3" 
d="M514 -20q-255 0 -372.5 135.5t-82.5 363.5h244q-22 -139 49 -207.5t195 -68.5q134 0 223.5 73.5t89.5 186.5q0 90 -65 140t-197 50h-78l31 193h65q130 0 207.5 59t77.5 158q0 83 -53 123.5t-141 40.5q-49 0 -91 -13t-80.5 -41t-66 -79t-39.5 -121h-244q32 229 178 354
t381 125q196 0 307 -89t111 -233q0 -127 -81.5 -229.5t-209.5 -134.5q42 -5 83.5 -24t81 -53t64.5 -93t25 -133q0 -141 -82 -252.5t-221 -171t-309 -59.5z" />
    <glyph glyph-name="four" unicode="4" horiz-adv-x="1196" 
d="M618 0l56 348h-633l33 211l772 875h262l-139 -875h164l-33 -211h-164l-55 -348h-263zM303 559h404l86 557z" />
    <glyph glyph-name="five" unicode="5" horiz-adv-x="1206" 
d="M524 -20q-242 0 -362 131.5t-86 339.5h237q-10 -85 24 -145t91.5 -86.5t130.5 -26.5q148 0 236 101t88 247q0 67 -21 116.5t-56.5 76t-75 38.5t-85.5 12q-81 0 -154 -36t-116 -101h-244l244 787h782l-33 -209h-600l-114 -363q12 14 36.5 32t65.5 40t103 36.5t130 14.5
q184 0 292 -107.5t108 -304.5q0 -259 -173 -426t-448 -167z" />
    <glyph glyph-name="six" unicode="6" horiz-adv-x="1234" 
d="M559 -20q-100 0 -181 29t-144.5 89.5t-98.5 162t-35 237.5q0 90 19 217q26 160 77 290t131.5 232t199 158.5t266.5 56.5q106 0 186.5 -28.5t127.5 -77.5t70 -107.5t23 -124.5q0 -23 -4 -63h-231q1 96 -58 144t-153 48q-63 0 -117 -21t-92 -58t-67.5 -80.5t-49.5 -97.5
t-32 -98t-21 -93q163 155 377 155q78 0 147 -22t126.5 -67t91.5 -124t34 -182q0 -163 -80 -295.5t-215 -206t-297 -73.5zM348 428q0 -114 66.5 -174.5t165.5 -60.5q133 0 225 95.5t92 233.5q0 114 -65.5 173t-167.5 59q-140 0 -228 -96.5t-88 -229.5z" />
    <glyph glyph-name="seven" unicode="7" horiz-adv-x="1034" 
d="M154 0q75 313 247 622t422 597h-653l35 215h901l-35 -215q-536 -647 -665 -1219h-252z" />
    <glyph glyph-name="eight" unicode="8" horiz-adv-x="1177" 
d="M500 -20q-205 0 -330 95.5t-125 268.5q0 140 82.5 256t232.5 180q-122 80 -122 248q0 178 136.5 301t356.5 123q181 0 283 -85.5t102 -227.5q0 -108 -59 -208t-162 -151q199 -96 199 -307q0 -144 -80.5 -257.5t-215.5 -174.5t-298 -61zM301 399q0 -90 62.5 -144
t171.5 -54q135 0 220 78t85 188q0 90 -62 143.5t-170 53.5q-136 0 -221.5 -78t-85.5 -187zM479 1034q0 -70 47.5 -108.5t124.5 -38.5q102 0 160.5 59t58.5 139q0 72 -46.5 110t-125.5 38q-101 0 -160 -59t-59 -140z" />
    <glyph glyph-name="nine" unicode="9" horiz-adv-x="1234" 
d="M733 1450q100 0 181 -29t144.5 -89.5t98.5 -162t35 -237.5q0 -97 -18 -217q-26 -160 -77 -290t-131.5 -232.5t-199 -159t-266.5 -56.5q-106 0 -187 29t-127.5 77.5t-70 107t-23.5 124.5q0 24 4 64h232q-1 -96 58 -144.5t153 -48.5q76 0 138 31.5t101 77t69 110t45 117.5
t26 113q-164 -156 -377 -156q-78 0 -147 22t-127 67t-92 124t-34 182q0 163 80 296t215 206.5t297 73.5zM395 907q0 -114 66 -172.5t168 -58.5q140 0 227.5 96t87.5 229q0 114 -66 175t-165 61q-133 0 -225.5 -96t-92.5 -234z" />
    <glyph glyph-name="colon" unicode=":" horiz-adv-x="487" 
d="M182 -20q-68 0 -116 46.5t-48 112.5q0 67 48 114.5t116 47.5t115 -47.5t47 -114.5q0 -66 -47.5 -112.5t-114.5 -46.5zM139 903q0 67 48 114.5t116 47.5q67 0 114.5 -47.5t47.5 -114.5q0 -66 -47.5 -113t-114.5 -47q-68 0 -116 47t-48 113z" />
    <glyph glyph-name="semicolon" unicode=";" horiz-adv-x="507" 
d="M303 743q-68 0 -116 47t-48 113q0 67 48 114.5t116 47.5q67 0 114.5 -47.5t47.5 -114.5q0 -66 -47.5 -113t-114.5 -47zM4 -252l16 111q79 4 117 34t49 93q-81 0 -124.5 41t-43.5 106q0 71 47 119.5t123 48.5q75 0 121.5 -50.5t46.5 -156.5q0 -68 -21 -129t-61.5 -110
t-107 -78t-150.5 -29h-12z" />
    <glyph glyph-name="less" unicode="&#x3c;" horiz-adv-x="1038" 
d="M862 0l-794 381l36 227l914 379l-37 -244l-659 -254l577 -251z" />
    <glyph glyph-name="equal" unicode="=" horiz-adv-x="892" 
d="M76 305l35 197h663l-37 -197h-661zM131 633l35 196h663l-36 -196h-662z" />
    <glyph glyph-name="greater" unicode="&#x3e;" horiz-adv-x="1038" 
d="M164 987l794 -381l-36 -227l-914 -379l37 244l660 254l-578 252z" />
    <glyph glyph-name="question" unicode="?" horiz-adv-x="1134" 
d="M453 512q13 73 41 132t62.5 96.5t74 68.5t77.5 55.5t70 49.5t55 59t29 76q12 73 -31 123.5t-143 50.5q-114 0 -181 -70t-85 -190h-262q18 127 69 222t126.5 151.5t165 84t192.5 27.5q136 0 235 -45.5t147.5 -137.5t28.5 -218q-10 -64 -35 -113.5t-57 -80.5t-69 -57.5
t-74 -51.5t-69 -54t-56.5 -73.5t-34.5 -102.5l-10 -65h-279zM367 139q0 67 47.5 114.5t115.5 47.5t115 -47.5t47 -114.5q0 -66 -47.5 -112.5t-114.5 -46.5q-68 0 -115.5 46.5t-47.5 112.5z" />
    <glyph glyph-name="at" unicode="@" horiz-adv-x="1626" 
d="M766 -20q-194 0 -343 73.5t-234 218.5t-85 342q0 176 68.5 332.5t184 267t274 174.5t332.5 64q285 0 455.5 -160.5t170.5 -427.5q0 -133 -40.5 -246t-126 -186.5t-201.5 -73.5q-96 0 -146 50.5t-53 121.5q-22 -66 -95.5 -120t-168.5 -54q-111 0 -188.5 80.5t-77.5 225.5
q0 167 103.5 280t254.5 113q98 0 163.5 -52.5t59.5 -119.5l35 151h119l-56 -362q-28 -183 78 -183q44 0 80.5 33t59.5 86t35 117t12 129q0 210 -127.5 331.5t-358.5 121.5q-150 0 -280.5 -53.5t-221 -145.5t-142.5 -217t-52 -264q0 -241 146.5 -372.5t398.5 -131.5
q146 0 229 33l-27 -142q-94 -34 -235 -34zM645 674q0 -78 39 -128t113 -50q90 0 148.5 73.5t58.5 171.5q0 78 -39 126t-113 48q-92 0 -149.5 -71t-57.5 -170z" />
    <glyph glyph-name="A" unicode="A" horiz-adv-x="1472" 
d="M-47 0l756 1434h344l299 -1434h-279l-57 293h-625l-149 -293h-289zM494 494h483l-129 663h-17z" />
    <glyph glyph-name="B" unicode="B" horiz-adv-x="1288" 
d="M25 0l229 1434h561q203 0 304.5 -82t101.5 -234q0 -125 -66 -210.5t-194 -125.5q253 -69 253 -319q0 -143 -78 -249t-211 -160t-302 -54h-598zM330 227h297q140 0 225.5 71.5t85.5 186.5q0 185 -227 185h-310zM428 848h277q106 0 170.5 60.5t64.5 154.5q0 143 -166 143
h-291z" />
    <glyph glyph-name="C" unicode="C" horiz-adv-x="1394" 
d="M676 -20q-272 0 -423 156t-151 456q0 175 52.5 330.5t148 273.5t242.5 187t325 69q119 0 216.5 -31t169.5 -91.5t109.5 -156t33.5 -217.5h-256q-13 135 -93 199t-204 64q-93 0 -171.5 -35t-132.5 -94.5t-92.5 -137.5t-56.5 -163t-18 -173q0 -192 85.5 -297.5
t246.5 -105.5q253 0 360 264h258q-32 -128 -96 -225t-150 -155.5t-187 -87.5t-216 -29z" />
    <glyph glyph-name="D" unicode="D" horiz-adv-x="1388" 
d="M25 0l229 1434h514q575 0 575 -590q0 -181 -52 -334.5t-150 -267t-248.5 -178t-337.5 -64.5h-530zM334 236h217q135 0 237 46.5t162.5 130t90.5 189t30 232.5q0 199 -82 281.5t-274 82.5h-232z" />
    <glyph glyph-name="E" unicode="E" horiz-adv-x="1148" 
d="M25 0l229 1434h960l-38 -236h-693l-59 -364h631l-33 -211h-631l-57 -387h710l-36 -236h-983z" />
    <glyph glyph-name="F" unicode="F" horiz-adv-x="1107" 
d="M25 0l229 1434h936l-37 -236h-670l-59 -379h551l-35 -219h-553l-92 -600h-270z" />
    <glyph glyph-name="G" unicode="G" horiz-adv-x="1454" 
d="M688 -20q-283 0 -435.5 154t-152.5 448q0 177 55 335.5t154 277t247 188t325 69.5q112 0 205.5 -28t164 -82.5t111 -141t41.5 -196.5h-266q-34 215 -275 215q-93 0 -173 -34.5t-136.5 -94t-97.5 -137.5t-60.5 -166t-19.5 -179q0 -191 86.5 -293t251.5 -102
q98 0 176.5 35.5t135.5 116t77 198.5l-301 -6l37 217h565l-21 -117q-60 -346 -230.5 -511.5t-463.5 -165.5z" />
    <glyph glyph-name="H" unicode="H" horiz-adv-x="1376" 
d="M913 0l95 600h-619l-94 -600h-270l229 1434h268l-96 -611h618l97 611h270l-227 -1434h-271z" />
    <glyph glyph-name="I" unicode="I" horiz-adv-x="487" 
d="M25 0l229 1434h268l-227 -1434h-270z" />
    <glyph glyph-name="J" unicode="J" horiz-adv-x="1363" 
d="M616 -20q-130 0 -232.5 35.5t-171 104.5t-96 177t-5.5 246h272q-24 -158 48 -243t216 -85q289 0 344 348l137 871h271l-142 -891q-45 -277 -212.5 -420t-428.5 -143z" />
    <glyph glyph-name="K" unicode="K" horiz-adv-x="1398" 
d="M25 0l229 1434h268l-112 -711l723 711h317l-664 -648l492 -786h-309l-375 598l-242 -236l-57 -362h-270z" />
    <glyph glyph-name="L" unicode="L" horiz-adv-x="1116" 
d="M25 0l229 1434h268l-188 -1198h680l-39 -236h-950z" />
    <glyph glyph-name="M" unicode="M" horiz-adv-x="1705" 
d="M25 0l229 1434h336l237 -1072l568 1072h346l-228 -1434h-270l154 963h-11l-505 -963h-215l-209 963h-11l-151 -963h-270z" />
    <glyph glyph-name="N" unicode="N" horiz-adv-x="1400" 
d="M25 0l229 1434h283l462 -1000h7l159 1000h271l-228 -1434h-295l-456 985h-8l-154 -985h-270z" />
    <glyph glyph-name="O" unicode="O" horiz-adv-x="1497" 
d="M678 -20q-269 0 -423.5 161t-154.5 449q0 137 35 265.5t103 236.5t161 188.5t216 126t262 45.5q270 0 423.5 -160t153.5 -448q0 -172 -55.5 -328.5t-154.5 -275.5t-246 -189.5t-320 -70.5zM375 598q0 -191 84 -288t239 -97q114 0 208 55t152.5 145t90 200t31.5 225
q0 189 -84 285t-238 96q-114 0 -208 -54t-153 -143t-90.5 -198.5t-31.5 -225.5z" />
    <glyph glyph-name="P" unicode="P" horiz-adv-x="1267" 
d="M25 0l229 1434h559q238 0 353.5 -103t115.5 -295q0 -246 -167.5 -392t-448.5 -146h-293l-78 -498h-270zM412 733h280q145 0 228.5 72t83.5 194q0 199 -238 199h-283z" />
    <glyph glyph-name="Q" unicode="Q" horiz-adv-x="1501" 
d="M1171 -41l-106 127q-170 -106 -387 -106q-269 0 -423.5 161t-154.5 449q0 137 35 265.5t103 236.5t161 188.5t216 126t262 45.5q270 0 423.5 -160t153.5 -448q0 -170 -53.5 -326t-153.5 -274l109 -131zM375 598q0 -191 84 -288t239 -97q121 0 215 57l-178 215l185 154
l159 -193q101 168 101 392q0 189 -84 285t-238 96q-114 0 -208 -54t-153 -143t-90.5 -198.5t-31.5 -225.5z" />
    <glyph glyph-name="R" unicode="R" horiz-adv-x="1282" 
d="M870 0l-208 498h-289l-78 -498h-270l229 1434h559q238 0 353.5 -103t115.5 -295q0 -186 -99 -317.5t-274 -186.5l230 -532h-269zM412 733h280q145 0 228.5 72t83.5 194q0 199 -238 199h-283z" />
    <glyph glyph-name="S" unicode="S" horiz-adv-x="1312" 
d="M582 -20q-272 0 -410.5 126t-103.5 349h276q-10 -110 58.5 -180t218.5 -70q140 0 223.5 60t83.5 165q0 78 -49 119t-164 65l-170 33q-80 16 -140.5 41.5t-110 66t-75.5 101t-26 139.5q0 139 79.5 244t215 159t307.5 54q160 0 273.5 -48t168 -145t33.5 -231h-277
q15 95 -48 147t-185 52q-127 0 -204 -55.5t-77 -151.5q0 -133 187 -170l159 -31q206 -40 299 -123.5t93 -232.5t-84 -259.5t-227 -167t-324 -56.5z" />
    <glyph glyph-name="T" unicode="T" horiz-adv-x="1218" 
d="M391 0l189 1198h-426l39 236h1120l-37 -236h-426l-191 -1198h-268z" />
    <glyph glyph-name="U" unicode="U" horiz-adv-x="1378" 
d="M608 -20q-269 0 -404.5 144.5t-92.5 418.5l143 891h270l-139 -871q-26 -169 45.5 -258.5t220.5 -89.5q145 0 233.5 88t116.5 260l138 871h272l-141 -891q-45 -275 -221 -419t-441 -144z" />
    <glyph glyph-name="V" unicode="V" horiz-adv-x="1492" 
d="M492 0l-299 1434h276l225 -1158h17l589 1158h289l-753 -1434h-344z" />
    <glyph glyph-name="W" unicode="W" horiz-adv-x="2052" 
d="M340 0l-147 1434h274l84 -1055h12l465 1055h279l133 -1055h12l418 1055h278l-602 -1434h-282l-150 1094l-491 -1094h-283z" />
    <glyph glyph-name="X" unicode="X" horiz-adv-x="1370" 
d="M-47 0l614 739l-356 695h301l242 -471l391 471h301l-578 -695l381 -739h-303l-264 514l-428 -514h-301z" />
    <glyph glyph-name="Y" unicode="Y" horiz-adv-x="1413" 
d="M485 0l84 537l-376 897h305l250 -637l452 637h309l-663 -897l-84 -537h-277z" />
    <glyph glyph-name="Z" unicode="Z" horiz-adv-x="1265" 
d="M-2 0l39 236l944 962h-772l39 236h1071l-37 -236l-948 -962h805l-39 -236h-1102z" />
    <glyph glyph-name="bracketleft" unicode="[" horiz-adv-x="638" 
d="M-18 -266l286 1792h420l-37 -226h-157l-213 -1341h157l-35 -225h-421z" />
    <glyph glyph-name="backslash" unicode="\" horiz-adv-x="944" 
d="M543 2l-338 1432h256l338 -1432h-256z" />
    <glyph glyph-name="bracketright" unicode="]" horiz-adv-x="638" 
d="M688 1526l-287 -1792h-419l36 225h158l213 1341h-158l35 226h422z" />
    <glyph glyph-name="asciicircum" unicode="^" horiz-adv-x="1015" 
d="M158 952l415 482h158l258 -482h-198l-164 310l-265 -310h-204z" />
    <glyph glyph-name="underscore" unicode="_" horiz-adv-x="1208" 
d="M-27 -225l35 225h1024l-35 -225h-1024z" />
    <glyph glyph-name="grave" unicode="`" horiz-adv-x="454" 
d="M332 1190l-170 280h227l170 -280h-227z" />
    <glyph glyph-name="a" unicode="a" horiz-adv-x="1128" 
d="M311 -20q-63 0 -114 13.5t-93 42.5t-65 80t-23 120q0 291 418 354l205 28q78 10 109.5 28.5t39.5 55.5l7 29q15 84 -27 124t-141 40q-197 0 -228 -154l-4 -22l-248 -2l9 47q48 321 501 321q233 0 328 -85t66 -263l-117 -737h-250l31 190h-13q-12 -22 -29.5 -45t-52 -54
t-75.5 -54.5t-103 -40t-131 -16.5zM283 285q0 -55 38 -85t113 -30q116 0 202 63.5t97 135.5l25 137q-4 -5 -9.5 -9t-10 -7.5t-12.5 -7t-13 -5.5t-15 -4.5t-15 -4t-17.5 -3.5t-17.5 -3t-20 -3.5t-20 -3.5l-157 -23q-78 -11 -123 -48t-45 -99z" />
    <glyph glyph-name="b" unicode="b" horiz-adv-x="1230" 
d="M618 -20q-117 0 -197.5 49t-109.5 129l-22 -158h-264l229 1434h262l-84 -527q48 78 147 128t214 50q77 0 145 -25t123 -75t87 -134t32 -192q0 -180 -69.5 -334.5t-199.5 -249.5t-293 -95zM354 463q0 -131 67.5 -197.5t172.5 -66.5q99 0 176.5 57.5t117.5 149.5t40 200
q0 129 -66 194.5t-172 65.5q-99 0 -177 -57.5t-118.5 -149t-40.5 -196.5z" />
    <glyph glyph-name="c" unicode="c" horiz-adv-x="1128" 
d="M504 -20q-72 0 -136.5 15t-122.5 50t-100.5 86t-67 128t-24.5 173q0 177 76 325.5t219.5 238t325.5 89.5q62 0 118 -10.5t113.5 -39t98 -74t64.5 -122t19 -175.5h-233q-1 102 -60 151t-155 49q-107 0 -186 -60t-116.5 -150.5t-37.5 -194.5q0 -125 61 -191.5t177 -66.5
q97 0 170 49t108 151h232q-25 -98 -72 -174t-102 -121.5t-122 -75t-126.5 -40t-120.5 -10.5z" />
    <glyph glyph-name="d" unicode="d" horiz-adv-x="1228" 
d="M436 -20q-78 0 -145.5 25t-122 75.5t-86 135t-31.5 194.5q0 180 69 333.5t197.5 247.5t288.5 94q119 0 200.5 -49.5t108.5 -128.5l84 527h263l-228 -1434h-262l25 158q-51 -79 -148.5 -128.5t-212.5 -49.5zM303 463q0 -132 64.5 -198t171.5 -66q147 0 240 120t93 283
q0 132 -66.5 198t-172.5 66q-98 0 -174.5 -57.5t-116 -148.5t-39.5 -197z" />
    <glyph glyph-name="e" unicode="e" horiz-adv-x="1138" 
d="M504 -27q-96 0 -175 25.5t-142 78.5t-98.5 144.5t-35.5 214.5q0 133 41.5 251t117.5 206.5t191 140t254 51.5q197 0 315 -102t118 -315q0 -132 -31 -203h-760v-12q0 -152 60 -216.5t180 -64.5q96 0 158.5 39t101.5 119h231q-69 -178 -205.5 -267.5t-320.5 -89.5zM315 610
h529q21 125 -35 200t-182 75q-128 0 -205 -75t-107 -200z" />
    <glyph glyph-name="f" unicode="f" horiz-adv-x="716" 
d="M289 1155q51 311 377 311h147l-31 -200h-84q-70 0 -106.5 -35.5t-48.5 -106.5l-11 -59h211l-30 -203h-211l-135 -862h-263l138 862h-152l31 203h153z" />
    <glyph glyph-name="g" unicode="g" horiz-adv-x="1216" 
d="M434 27q-76 0 -142 23t-121 69.5t-86.5 127t-31.5 187.5q0 176 67 324t192.5 237.5t285.5 89.5q110 0 191.5 -43t119.5 -114l21 137h262l-152 -944l-12 -88q-15 -111 -63.5 -196.5t-110.5 -134.5t-142 -79.5t-149 -40.5t-141 -10q-66 0 -126.5 8.5t-124.5 32.5t-107.5 62
t-65 103t-8.5 150h231q-8 -76 58 -114.5t167 -38.5q125 0 213.5 64.5t106.5 193.5l12 88l13 63q-59 -71 -153 -114t-204 -43zM305 492q0 -122 64.5 -185t169.5 -63q145 0 236 110t91 264q0 123 -66 185.5t-171 62.5q-144 0 -234 -109.5t-90 -264.5z" />
    <glyph glyph-name="h" unicode="h" 
d="M195 1065l59 369h262l-59 -369l-35 -219h10q14 38 43 77t74.5 76.5t114.5 61.5t149 24q167 0 253 -104t54 -311l-104 -670h-262l94 608q23 128 -24.5 194t-155.5 66q-105 0 -179.5 -59t-99.5 -174l-100 -635h-264z" />
    <glyph glyph-name="i" unicode="i" horiz-adv-x="481" 
d="M25 0l170 1065h262l-168 -1065h-264zM223 1358q0 61 43.5 103t104.5 42q59 0 103 -42t44 -103q0 -59 -44 -101.5t-103 -42.5q-60 0 -104 42t-44 102z" />
    <glyph glyph-name="j" unicode="j" horiz-adv-x="507" 
d="M-76 -395q-104 0 -157 6l32 205h95q71 0 105.5 35t47.5 108l174 1106h262l-182 -1147q-49 -313 -377 -313zM250 1358q0 61 44 103t103 42t103.5 -42t44.5 -103q0 -59 -44.5 -101.5t-103.5 -42.5t-103 42.5t-44 101.5z" />
    <glyph glyph-name="k" unicode="k" horiz-adv-x="1171" 
d="M25 0l229 1434h262l-135 -846l516 477h285l-506 -455l395 -610h-283l-294 449l-156 -140l-49 -309h-264z" />
    <glyph glyph-name="l" unicode="l" horiz-adv-x="481" 
d="M25 0l229 1434h262l-227 -1434h-264z" />
    <glyph glyph-name="m" unicode="m" horiz-adv-x="1835" 
d="M1475 608q21 128 -21.5 194t-138.5 66t-163 -63.5t-91 -186.5l-96 -618h-263l95 608q23 128 -20 194t-140 66q-92 0 -157 -58.5t-91 -172.5l-100 -637h-264l170 1065h262l-35 -219h10q13 38 40.5 77t70.5 76.5t106.5 61.5t136.5 24q116 0 193 -61t94 -184h2
q12 30 33 61.5t55.5 65t76 59.5t98 42.5t118.5 16.5q161 0 242 -103.5t49 -311.5l-105 -670h-262z" />
    <glyph glyph-name="n" unicode="n" 
d="M848 608q23 128 -24.5 194t-155.5 66q-105 0 -179.5 -59t-99.5 -174l-100 -635h-264l170 1065h262l-35 -219h10q14 38 43 77t74.5 76.5t114.5 61.5t149 24q167 0 253 -104t54 -311l-104 -670h-262z" />
    <glyph glyph-name="o" unicode="o" horiz-adv-x="1173" 
d="M504 -20q-94 0 -174 27t-142.5 80.5t-98.5 142.5t-36 204q0 175 76.5 323t219 238t321.5 90q94 0 173.5 -27t142.5 -80.5t98.5 -142.5t35.5 -204q0 -175 -76.5 -323t-218.5 -238t-321 -90zM305 461q0 -133 63.5 -197.5t168.5 -64.5q103 0 180 60t114 150.5t37 194.5
q0 133 -63 197.5t-168 64.5q-103 0 -180.5 -60t-114.5 -151t-37 -194z" />
    <glyph glyph-name="p" unicode="p" horiz-adv-x="1230" 
d="M-37 -389l232 1454h262l-25 -158q48 78 147 128t214 50q78 0 146 -25.5t122.5 -75.5t86.5 -135.5t32 -195.5q0 -132 -42 -254.5t-115 -215t-181 -148t-232 -55.5q-114 0 -193 49.5t-106 130.5l-84 -549h-264zM354 461q0 -130 65 -196t167 -66q101 0 180.5 57.5
t120.5 149.5t41 198q0 130 -66 196t-168 66t-181 -57.5t-119 -149t-40 -198.5z" />
    <glyph glyph-name="q" unicode="q" horiz-adv-x="1230" 
d="M713 -389l84 547q-51 -79 -148.5 -128.5t-212.5 -49.5q-78 0 -145.5 25t-122 75.5t-86 135t-31.5 194.5q0 180 69 333.5t197.5 247.5t288.5 94q119 0 200.5 -49.5t108.5 -128.5l27 158h262l-229 -1454h-262zM303 463q0 -132 64.5 -198t171.5 -66q147 0 240 120t93 283
q0 132 -66.5 198t-172.5 66q-98 0 -174.5 -57.5t-116 -148.5t-39.5 -197z" />
    <glyph glyph-name="r" unicode="r" horiz-adv-x="813" 
d="M25 0l170 1065h262l-41 -254h10q46 117 135.5 189.5t216.5 72.5q46 0 82 -10l-37 -221q-46 6 -82 6q-65 0 -123.5 -19t-108 -57t-86 -102t-52.5 -148l-82 -522h-264z" />
    <glyph glyph-name="s" unicode="s" horiz-adv-x="1015" 
d="M420 -20q-209 0 -318.5 90.5t-85.5 265.5h236q-1 -81 50 -117.5t144 -36.5q98 0 155.5 36.5t57.5 103.5q0 42 -30 65.5t-99 38.5l-157 37q-137 31 -198.5 98.5t-61.5 171.5q0 164 132 258t339 94q201 0 300 -93t74 -261h-219q3 81 -45.5 116.5t-138.5 35.5
q-89 0 -139.5 -31t-50.5 -88q0 -41 32.5 -67.5t106.5 -45.5l168 -39q61 -15 104 -33.5t81 -48.5t57.5 -75t19.5 -105q0 -117 -70 -202.5t-185 -126.5t-259 -41z" />
    <glyph glyph-name="t" unicode="t" horiz-adv-x="747" 
d="M461 -14q-156 0 -232 75.5t-49 237.5l88 563h-178l31 203h180l43 272h262l-43 -272h209l-31 -203h-211l-84 -522q-11 -72 14.5 -107.5t98.5 -35.5h88l-33 -205q-53 -6 -153 -6z" />
    <glyph glyph-name="u" unicode="u" 
d="M362 457q-23 -128 25 -194t156 -66q105 0 179 59t99 174l101 635h264l-170 -1065h-262l34 219h-10q-14 -38 -43 -77t-74.5 -76.5t-114.5 -61.5t-149 -24q-167 0 -253 104t-54 311l105 670h262z" />
    <glyph glyph-name="v" unicode="v" horiz-adv-x="1193" 
d="M348 0l-227 1065h266l160 -815h10l412 815h272l-559 -1065h-334z" />
    <glyph glyph-name="w" unicode="w" horiz-adv-x="1677" 
d="M244 0l-123 1065h248l71 -809h9l356 809h229l107 -809h8l326 809h247l-450 -1065h-301l-103 717l-321 -717h-303z" />
    <glyph glyph-name="x" unicode="x" horiz-adv-x="1157" 
d="M-27 0l457 539l-268 526h280l166 -340l266 340h289l-436 -526l289 -539h-281l-184 350l-289 -350h-289z" />
    <glyph glyph-name="y" unicode="y" horiz-adv-x="1161" 
d="M33 -182q54 -9 99.5 -3t76 15t56.5 28.5t41 37t30 41.5q25 41 30.5 73.5t-4.5 73.5l-241 981h268l156 -739l391 739h272l-614 -1094q-130 -232 -261 -316t-333 -61z" />
    <glyph glyph-name="z" unicode="z" horiz-adv-x="1036" 
d="M-2 0l35 221l661 623h-542l34 221h852l-34 -221l-662 -623h565l-37 -221h-872z" />
    <glyph glyph-name="braceleft" unicode="{" horiz-adv-x="681" 
d="M274 -266q-39 0 -72 9.5t-63 31.5t-43.5 67.5t-3.5 108.5l84 530l-70 146l117 149l84 533q8 51 28.5 90.5t46 63t58 38.5t61 20t58.5 5h189l-35 -226h-72q-73 0 -82 -63l-76 -471l-131 -139l88 -135l-75 -469q-9 -64 61 -64h72l-35 -225h-189z" />
    <glyph glyph-name="bar" unicode="|" horiz-adv-x="532" 
d="M8 -389l322 2027h225l-322 -2027h-225z" />
    <glyph glyph-name="braceright" unicode="}" horiz-adv-x="681" 
d="M438 1526q39 0 72 -9.5t63.5 -31.5t44 -67.5t3.5 -108.5l-84 -531l69 -145l-117 -150l-83 -532q-8 -51 -28.5 -90.5t-46 -63t-58 -38.5t-61 -20t-58.5 -5h-189l35 225h72q33 0 55.5 16.5t26.5 47.5l75 471l131 139l-88 135l76 469q9 63 -61 63h-72l35 226h188z" />
    <glyph glyph-name="asciitilde" unicode="~" horiz-adv-x="1050" 
d="M711 408q-46 0 -90 17t-79 41t-70 47.5t-76 40.5t-83 17q-39 0 -66 -21t-26 -50h-112q0 114 66.5 188t182.5 74q46 0 90 -17t79 -41l70 -48t76 -41t83 -17q39 0 66 21t26 51h113q0 -116 -66.5 -189t-183.5 -73z" />
    <glyph glyph-name="uni00A0" unicode="&#xa0;" horiz-adv-x="471" 
 />
    <glyph glyph-name="exclamdown" unicode="&#xa1;" horiz-adv-x="550" 
d="M389 594l-121 -963h-266l186 963h201zM176 926q0 66 47.5 112.5t114.5 46.5q68 0 116 -46.5t48 -112.5q0 -67 -48 -114.5t-116 -47.5t-115 47t-47 115z" />
    <glyph glyph-name="cent" unicode="&#xa2;" horiz-adv-x="1128" 
d="M436 -82l35 217q-82 7 -151 36t-125 81t-87.5 135.5t-31.5 190.5q0 165 69 304.5t199.5 229t298.5 102.5l35 220h100l-35 -220q58 -4 109 -17t101.5 -43.5t85.5 -74.5t55 -114.5t16 -159.5h-233q-1 87 -46.5 135t-121.5 57l-103 -645q80 11 140.5 59.5t91.5 135.5h231
q-23 -89 -65 -159.5t-91.5 -115t-110 -75.5t-116.5 -44.5t-115 -17.5l-34 -217h-101zM322 604q0 -108 47 -172.5t137 -77.5l102 643q-134 -21 -210 -135t-76 -258z" />
    <glyph glyph-name="sterling" unicode="&#xa3;" horiz-adv-x="1165" 
d="M29 137q258 217 258 410q0 19 -4 47h-185l25 143h115q-52 121 -52 221q0 140 74.5 253t199.5 175t275 62q78 0 147.5 -17.5t125 -53.5t93 -86.5t52.5 -119.5t2 -149l-6 -39h-250l4 33q6 38 -1.5 74t-29.5 66t-66 48.5t-104 18.5q-119 0 -190.5 -69t-71.5 -177
q0 -30 7 -63.5t15 -56.5t23.5 -62t22.5 -58h244l-25 -143h-188v-12q0 -111 -63 -200t-187 -179q74 25 145.5 28.5t133.5 -6.5t126 -20t148 -8t174 26l-37 -223q-115 -26 -197.5 -21t-169 18t-158 26t-164.5 4.5t-188 -47.5z" />
    <glyph glyph-name="currency" unicode="&#xa4;" horiz-adv-x="1306" 
d="M721 516q-134 0 -254 76l-80 -80l-166 164l90 90q-49 100 -49 209q0 120 53 215l-94 94l166 164l86 -86q115 72 248 72q137 0 250 -74l90 88l168 -164l-101 -100q52 -96 52 -209q0 -111 -47 -203l96 -96l-168 -164l-84 82q-115 -78 -256 -78zM477 975q0 -36 13.5 -76
t40.5 -78.5t76.5 -64t113.5 -25.5t114 25.5t77 64t41 78.5t14 76q0 35 -14 75t-41 79t-77 64.5t-114 25.5t-113.5 -25.5t-76.5 -64.5t-40.5 -79t-13.5 -75z" />
    <glyph glyph-name="yen" unicode="&#xa5;" horiz-adv-x="1413" 
d="M299 387l23 156h245l-374 891h305l250 -637l452 637h309l-659 -891h250l-23 -156h-254l-12 -76h252l-23 -153h-254l-24 -158h-277l25 158h-248l23 153h250l12 76h-248z" />
    <glyph glyph-name="brokenbar" unicode="&#xa6;" horiz-adv-x="532" 
d="M225 983l105 655h225l-104 -655h-226zM8 -389l103 655h225l-103 -655h-225z" />
    <glyph glyph-name="section" unicode="&#xa7;" horiz-adv-x="1388" 
d="M524 -483q-262 0 -394.5 119t-115.5 341h293q0 -107 60 -162t200 -55q137 0 217.5 47t94.5 132q14 88 -31.5 132t-157.5 70l-184 41q-52 12 -94.5 26t-84 33.5t-71 43t-55.5 54t-37.5 67.5t-17 83.5t5.5 100.5q25 144 127 239q-54 87 -33 228q29 181 189.5 287t404.5 106
q235 0 363 -105t118 -307h-289q3 168 -231 168q-123 0 -187.5 -45t-74.5 -112q-10 -63 20.5 -104.5t122.5 -63.5l201 -47q227 -53 318.5 -154.5t64.5 -282.5q-20 -135 -123 -235q47 -86 28 -225q-16 -107 -74 -189.5t-146 -132t-195.5 -74t-231.5 -24.5zM440 582
q-11 -61 22 -102.5t126 -65.5l200 -47q62 -13 152 -45q25 36 33 77q14 90 -32 136.5t-157 72.5l-184 41q-46 10 -104 31q-47 -44 -56 -98z" />
    <glyph glyph-name="dieresis" unicode="&#xa8;" horiz-adv-x="757" 
d="M739 1214q-59 0 -103 42.5t-44 101.5q0 61 44 103t103 42q61 0 104.5 -42t43.5 -103q0 -60 -44 -102t-104 -42zM131 1358q0 61 44.5 103t105.5 42q59 0 103 -42t44 -103q0 -59 -44 -101.5t-103 -42.5q-61 0 -105.5 42.5t-44.5 101.5z" />
    <glyph glyph-name="copyright" unicode="&#xa9;" horiz-adv-x="1622" 
d="M723 -14q-179 0 -320.5 76t-222 216t-80.5 320q0 167 70.5 323.5t187 271t275.5 184t328 69.5q134 0 249 -44.5t197 -124t129 -194t47 -249.5q0 -165 -70 -321.5t-186.5 -271.5t-275.5 -185t-328 -70zM256 623q0 -218 137.5 -353t354.5 -135q181 0 337.5 93t248 249
t91.5 334q0 217 -136.5 351t-352.5 134q-181 0 -338 -92t-249.5 -247.5t-92.5 -333.5zM440 645q0 131 63 242t171.5 176t236.5 65q54 0 102.5 -13t96 -42.5t77.5 -88t34 -140.5h-160q-7 65 -56 98t-120 33q-122 0 -198.5 -89.5t-76.5 -215.5q0 -104 54 -158.5t145 -54.5
q70 0 128 34t87 101h160q-30 -83 -78 -142t-104 -89.5t-109.5 -44t-108.5 -13.5q-150 0 -247 89t-97 253z" />
    <glyph glyph-name="ordfeminine" unicode="&#xaa;" horiz-adv-x="778" 
d="M319 770q-86 0 -140 41.5t-54 130.5q0 101 73 159.5t199 67.5l207 15q13 80 -12 111.5t-94 31.5q-133 0 -146 -94h-153q14 123 94.5 176t220.5 53q117 0 178 -36t74.5 -107.5t-2.5 -179.5l-57 -365h-142l8 117q-40 -54 -107 -87.5t-147 -33.5zM309 981q0 -36 23.5 -54
t64.5 -18q65 0 112.5 30.5t68.5 74.5l10 67l-174 -16q-51 -3 -78 -25t-27 -59z" />
    <glyph glyph-name="guillemotleft" unicode="&#xab;" horiz-adv-x="915" 
d="M784 227l-295 277l33 215l385 276l-39 -237l-200 -148l153 -143zM78 504l33 215l385 276l-39 -237l-201 -148l154 -143l-37 -240z" />
    <glyph glyph-name="logicalnot" unicode="&#xac;" horiz-adv-x="1087" 
d="M668 223l34 213h-606l31 203h866l-63 -416h-262z" />
    <glyph glyph-name="uni00AD" unicode="&#xad;" horiz-adv-x="776" 
d="M72 469l32 197h613l-33 -197h-612z" />
    <glyph glyph-name="registered" unicode="&#xae;" horiz-adv-x="1622" 
d="M723 -14q-179 0 -320.5 76t-222 216t-80.5 320q0 167 70.5 323.5t187 271t275.5 184t328 69.5q134 0 249 -44.5t197 -124t129 -194t47 -249.5q0 -165 -70 -321.5t-186.5 -271.5t-275.5 -185t-328 -70zM256 623q0 -218 137.5 -353t354.5 -135q181 0 337.5 93t248 249
t91.5 334q0 217 -136.5 351t-352.5 134q-181 0 -338 -92t-249.5 -247.5t-92.5 -333.5zM485 360l113 715h375q116 0 177.5 -54.5t61.5 -152.5q0 -94 -54 -161.5t-146 -94.5l129 -252h-172l-117 236h-166l-37 -236h-164zM707 727h192q75 0 114.5 35t39.5 86q0 94 -117 94h-195
z" />
    <glyph glyph-name="macron" unicode="&#xaf;" horiz-adv-x="653" 
d="M125 1317l22 153h654l-23 -153h-653z" />
    <glyph glyph-name="degree" unicode="&#xb0;" horiz-adv-x="753" 
d="M477 862q-131 0 -217 87t-86 216q0 127 86 214t217 87t218 -87t87 -214q0 -128 -87 -215.5t-218 -87.5zM352 1165q0 -51 33.5 -89t91.5 -38t92.5 38t34.5 89t-34.5 88t-92.5 37t-91.5 -37t-33.5 -88z" />
    <glyph glyph-name="plusminus" unicode="&#xb1;" horiz-adv-x="1206" 
d="M182 0l33 199h703l-33 -199h-703zM152 788l36 230h369l59 368h242l-59 -368h375l-37 -230h-373l-59 -370h-242l59 370h-370z" />
    <glyph glyph-name="uni00B2" unicode="&#xb2;" horiz-adv-x="536" 
d="M145 915q11 84 51.5 143t137.5 111q7 4 27 14t26.5 13.5t21 12t20 14.5t14 15.5t12.5 20t6 23.5q6 30 -16 49t-52 19q-31 0 -57.5 -21t-32.5 -59l-2 -17h-102l2 17q9 77 65 125.5t144 48.5q87 0 126.5 -46.5t28.5 -117.5q-5 -33 -20.5 -60t-42.5 -49t-53 -38.5t-65 -38.5
q-9 -5 -13 -7q-47 -26 -68 -44t-27 -37l-2 -13h246l-14 -92h-363z" />
    <glyph glyph-name="uni00B3" unicode="&#xb3;" horiz-adv-x="561" 
d="M344 893q-97 0 -142.5 47.5t-33.5 126.5h96q-4 -44 20.5 -67t69.5 -23t76 22.5t35 61.5q5 36 -20.5 59t-79.5 23h-23l12 76h23q90 0 104 65q6 33 -13 54.5t-58 21.5q-35 0 -62 -22t-33 -62h-96q10 78 66 123t137 45q83 0 124 -41t32 -103q-7 -46 -38 -75t-71 -39
q41 -4 71 -37t21 -96q-11 -71 -68.5 -115.5t-148.5 -44.5z" />
    <glyph glyph-name="acute" unicode="&#xb4;" horiz-adv-x="442" 
d="M104 1190l258 280h228l-256 -280h-230z" />
    <glyph glyph-name="uni00B5" unicode="&#xb5;" 
d="M-37 -389l232 1454h262l-95 -608q-23 -128 25 -194t156 -66q105 0 179 59t99 174l101 635h264l-170 -1065h-262l34 219h-10q-14 -38 -43 -77t-74.5 -76.5t-114.5 -61.5t-149 -24q-61 0 -110 14l-60 -383h-264z" />
    <glyph glyph-name="paragraph" unicode="&#xb6;" horiz-adv-x="1370" 
d="M469 -451l168 1055h-109q-193 0 -295 100.5t-102 256.5q0 129 71 238t192.5 172t264.5 63h744l-25 -158l-274 -1727h-213l274 1727h-188l-275 -1727h-233z" />
    <glyph glyph-name="periodcentered" unicode="&#xb7;" horiz-adv-x="509" 
d="M262 410q-68 0 -116 46.5t-48 112.5q0 67 48 114.5t116 47.5t115 -47.5t47 -114.5q0 -66 -47.5 -112.5t-114.5 -46.5z" />
    <glyph glyph-name="cedilla" unicode="&#xb8;" horiz-adv-x="393" 
d="M-74 -367q66 -3 111 21t45 67q0 44 -41 56t-90 -13l-57 91l153 145h176l-129 -111h19q69 0 110 -40t41 -111q0 -116 -104 -177t-258 -61z" />
    <glyph glyph-name="uni00B9" unicode="&#xb9;" horiz-adv-x="387" 
d="M319 1300q-18 -24 -51 -34t-69 -4l14 98q36 -4 73.5 20t53.5 54h98l-84 -535h-98z" />
    <glyph glyph-name="ordmasculine" unicode="&#xba;" horiz-adv-x="813" 
d="M461 770q-132 0 -221.5 78t-89.5 221q0 162 114 277.5t281 115.5q131 0 218 -77t87 -220q0 -162 -111.5 -278.5t-277.5 -116.5zM328 1087q0 -72 39.5 -112.5t107.5 -40.5q86 0 141.5 61.5t55.5 149.5q0 71 -40.5 112t-107.5 41q-84 0 -140 -61t-56 -150z" />
    <glyph glyph-name="guillemotright" unicode="&#xbb;" horiz-adv-x="913" 
d="M154 995l295 -276l-33 -215l-385 -277l39 238l200 147l-153 144zM442 227l39 238l201 147l-154 144l37 239l295 -276l-33 -215z" />
    <glyph glyph-name="onequarter" unicode="&#xbc;" horiz-adv-x="1228" 
d="M319 1300q-18 -24 -51 -34t-69 -4l14 98q36 -4 73.5 20t53.5 54h98l-84 -535h-98zM-4 0l1120 1434h133l-1120 -1434h-133zM674 135l14 80l289 320h100l-51 -320h61l-12 -80h-61l-21 -135h-100l20 135h-239zM776 215h152l33 203z" />
    <glyph glyph-name="onehalf" unicode="&#xbd;" horiz-adv-x="1212" 
d="M317 1300q-18 -24 -51 -34t-69 -4l14 98q36 -4 73.5 20t53.5 54h98l-84 -535h-98zM10 0l1120 1434h134l-1121 -1434h-133zM674 0l2 14q12 84 52 143t136 111q7 4 27 14t26.5 13.5t21 12t20 14.5t14 15.5t12.5 20t6 23.5q6 30 -15.5 49t-51.5 19q-31 0 -57.5 -21
t-32.5 -59l-3 -17h-102l2 17q9 77 65 125.5t144 48.5q87 0 127 -46.5t29 -117.5q-6 -43 -35 -78.5t-60 -56t-85 -50.5q-10 -5 -15 -8q-46 -26 -67 -44.5t-27 -37.5l-2 -12h246l-15 -92h-362z" />
    <glyph glyph-name="threequarters" unicode="&#xbe;" horiz-adv-x="1249" 
d="M344 893q-97 0 -142.5 47.5t-33.5 126.5h96q-4 -44 20.5 -67t69.5 -23t76 22.5t35 61.5q5 36 -20.5 59t-79.5 23h-23l12 76h23q90 0 104 65q6 33 -13 54.5t-58 21.5q-35 0 -62 -22t-33 -62h-96q10 78 66 123t137 45q83 0 124 -41t32 -103q-7 -46 -38 -75t-71 -39
q41 -4 71 -37t21 -96q-11 -71 -68.5 -115.5t-148.5 -44.5zM14 0l1121 1434h133l-1121 -1434h-133zM717 135l14 80l289 320h100l-51 -320h61l-12 -80h-61l-21 -135h-100l20 135h-239zM819 215h152l33 203z" />
    <glyph glyph-name="questiondown" unicode="&#xbf;" horiz-adv-x="1134" 
d="M682 553q-13 -73 -41 -132t-62.5 -96.5t-74 -68.5t-78 -55.5t-70.5 -49.5t-55 -59t-29 -76q-12 -73 31 -123.5t143 -50.5q114 0 181.5 70.5t85.5 189.5h262q-18 -127 -69 -222t-126.5 -151.5t-165 -84t-192.5 -27.5q-136 0 -235 45.5t-148 137.5t-29 218q10 64 35 113.5
t57.5 80.5t69.5 57.5t74 51.5t69 54t56.5 73.5t34.5 102.5l10 65h278zM442 926q0 66 47.5 112.5t114.5 46.5q68 0 116 -46.5t48 -112.5q0 -67 -48 -114.5t-116 -47.5t-115 47t-47 115z" />
    <glyph glyph-name="Agrave" unicode="&#xc0;" horiz-adv-x="1472" 
d="M-47 0l756 1434h344l299 -1434h-279l-57 293h-625l-149 -293h-289zM494 494h483l-129 663h-17zM616 1839h228l170 -280h-228z" />
    <glyph glyph-name="Aacute" unicode="&#xc1;" horiz-adv-x="1472" 
d="M-47 0l756 1434h344l299 -1434h-279l-57 293h-625l-149 -293h-289zM494 494h483l-129 663h-17zM766 1559l258 280h227l-256 -280h-229z" />
    <glyph glyph-name="Acircumflex" unicode="&#xc2;" horiz-adv-x="1472" 
d="M-47 0l756 1434h344l299 -1434h-279l-57 293h-625l-149 -293h-289zM494 494h483l-129 663h-17zM520 1556l240 283h375l149 -283h-246l-104 201l-166 -201h-248z" />
    <glyph glyph-name="Atilde" unicode="&#xc3;" horiz-adv-x="1472" 
d="M-47 0l756 1434h344l299 -1434h-279l-57 293h-625l-149 -293h-289zM494 494h483l-129 663h-17zM573 1636q13 107 74.5 166.5t155.5 59.5q52 0 93 -19t62 -41.5t47 -41.5t52 -19q28 0 54 17t30 50h155q-13 -107 -73 -166t-154 -59q-51 0 -91.5 19t-60.5 41.5t-47 41.5
t-55 19q-29 0 -54.5 -17t-29.5 -51h-158z" />
    <glyph glyph-name="Adieresis" unicode="&#xc4;" horiz-adv-x="1472" 
d="M-47 0l756 1434h344l299 -1434h-279l-57 293h-625l-149 -293h-289zM494 494h483l-129 663h-17zM549 1726q0 61 44 103.5t105 42.5q59 0 103.5 -42.5t44.5 -103.5q0 -59 -44.5 -101t-103.5 -42q-61 0 -105 42t-44 101zM1010 1726q0 61 44 103.5t103 42.5q61 0 104.5 -42.5
t43.5 -103.5q0 -60 -44 -101.5t-104 -41.5q-59 0 -103 42t-44 101z" />
    <glyph glyph-name="Aring" unicode="&#xc5;" horiz-adv-x="1472" 
d="M-47 0l756 1434h344l299 -1434h-279l-57 293h-625l-149 -293h-289zM494 494h483l-129 663h-17zM725 1716q0 82 58.5 139.5t144.5 57.5q87 0 144.5 -57t57.5 -140q0 -84 -57.5 -140t-144.5 -56q-86 0 -144.5 56.5t-58.5 139.5zM850 1716q0 -35 22.5 -57.5t55.5 -22.5
q34 0 57 22.5t23 57.5q0 34 -23 56t-57 22q-33 0 -55.5 -22.5t-22.5 -55.5z" />
    <glyph glyph-name="AE" unicode="&#xc6;" horiz-adv-x="2048" 
d="M-47 0l1198 1434h963l-39 -236h-693l-59 -364h631l-33 -211h-631l-57 -387h711l-37 -236h-983l47 293h-488l-243 -293h-287zM659 504h345l81 510z" />
    <glyph glyph-name="Ccedilla" unicode="&#xc7;" horiz-adv-x="1394" 
d="M469 -367q66 -3 111 21t45 67q0 44 -40.5 56t-90.5 -13l-58 91l139 131q-226 28 -349.5 182t-123.5 424q0 175 52.5 330.5t148 273.5t242.5 187t325 69q119 0 216.5 -31t169.5 -91.5t109.5 -156t33.5 -217.5h-256q-13 135 -93 199t-204 64q-93 0 -171.5 -35t-132.5 -94.5
t-92.5 -137.5t-56.5 -163t-18 -173q0 -192 85.5 -297.5t246.5 -105.5q253 0 360 264h258q-30 -119 -86.5 -210.5t-133.5 -150.5t-166.5 -92t-193.5 -42l-108 -93h18q69 0 110.5 -40t41.5 -111q0 -79 -52 -134t-132 -79.5t-179 -24.5z" />
    <glyph glyph-name="Egrave" unicode="&#xc8;" horiz-adv-x="1148" 
d="M25 0l229 1434h960l-38 -236h-693l-59 -364h631l-33 -211h-631l-57 -387h710l-36 -236h-983zM483 1839h228l170 -280h-228z" />
    <glyph glyph-name="Eacute" unicode="&#xc9;" horiz-adv-x="1148" 
d="M25 0l229 1434h960l-38 -236h-693l-59 -364h631l-33 -211h-631l-57 -387h710l-36 -236h-983zM635 1559l258 280h227l-256 -280h-229z" />
    <glyph glyph-name="Ecircumflex" unicode="&#xca;" horiz-adv-x="1148" 
d="M25 0l229 1434h960l-38 -236h-693l-59 -364h631l-33 -211h-631l-57 -387h710l-36 -236h-983zM389 1556l240 283h375l149 -283h-246l-104 201l-166 -201h-248z" />
    <glyph glyph-name="Edieresis" unicode="&#xcb;" horiz-adv-x="1148" 
d="M25 0l229 1434h960l-38 -236h-693l-59 -364h631l-33 -211h-631l-57 -387h710l-36 -236h-983zM418 1726q0 61 44 103.5t105 42.5q59 0 103.5 -42.5t44.5 -103.5q0 -59 -44.5 -101t-103.5 -42q-61 0 -105 42t-44 101zM879 1726q0 61 44 103.5t103 42.5q61 0 104.5 -42.5
t43.5 -103.5q0 -60 -44 -101.5t-104 -41.5q-59 0 -103 42t-44 101z" />
    <glyph glyph-name="Igrave" unicode="&#xcc;" horiz-adv-x="487" 
d="M25 0l229 1434h268l-227 -1434h-270zM119 1839h227l170 -280h-227z" />
    <glyph glyph-name="Iacute" unicode="&#xcd;" horiz-adv-x="487" 
d="M25 0l229 1434h268l-227 -1434h-270zM268 1559l258 280h228l-256 -280h-230z" />
    <glyph glyph-name="Icircumflex" unicode="&#xce;" horiz-adv-x="487" 
d="M25 0l229 1434h268l-227 -1434h-270zM23 1556l239 283h375l149 -283h-245l-105 201l-166 -201h-247z" />
    <glyph glyph-name="Idieresis" unicode="&#xcf;" horiz-adv-x="487" 
d="M25 0l229 1434h268l-227 -1434h-270zM51 1726q0 61 44.5 103.5t105.5 42.5q59 0 103 -42.5t44 -103.5q0 -59 -44 -101t-103 -42q-61 0 -105.5 42t-44.5 101zM512 1726q0 61 44 103.5t103 42.5q61 0 104.5 -42.5t43.5 -103.5q0 -60 -44 -101.5t-104 -41.5q-59 0 -103 42
t-44 101z" />
    <glyph glyph-name="Eth" unicode="&#xd0;" horiz-adv-x="1452" 
d="M88 0l98 608h-153l33 197h151l100 629h514q576 0 576 -590q0 -180 -52.5 -334t-150.5 -267.5t-248.5 -178t-337.5 -64.5h-530zM397 236h217q135 0 237 46.5t163 130t91 189t30 232.5q0 199 -82.5 281.5t-274.5 82.5h-231l-62 -393h193l-33 -197h-190z" />
    <glyph glyph-name="Ntilde" unicode="&#xd1;" horiz-adv-x="1400" 
d="M25 0l229 1434h283l462 -1000h7l159 1000h271l-228 -1434h-295l-456 985h-8l-154 -985h-270zM535 1636q13 107 74 166.5t155 59.5q52 0 93 -19t62 -41.5t47 -41.5t52 -19q28 0 54 17t30 50h155q-13 -107 -73 -166t-154 -59q-51 0 -91.5 19t-60.5 41.5t-47 41.5t-55 19
q-29 0 -54.5 -17t-29.5 -51h-157z" />
    <glyph glyph-name="Ograve" unicode="&#xd2;" horiz-adv-x="1497" 
d="M678 -20q-269 0 -423.5 161t-154.5 449q0 137 35 265.5t103 236.5t161 188.5t216 126t262 45.5q270 0 423.5 -160t153.5 -448q0 -172 -55.5 -328.5t-154.5 -275.5t-246 -189.5t-320 -70.5zM375 598q0 -191 84 -288t239 -97q114 0 208 55t152.5 145t90 200t31.5 225
q0 189 -84 285t-238 96q-114 0 -208 -54t-153 -143t-90.5 -198.5t-31.5 -225.5zM625 1839h227l170 -280h-227z" />
    <glyph glyph-name="Oacute" unicode="&#xd3;" horiz-adv-x="1497" 
d="M678 -20q-269 0 -423.5 161t-154.5 449q0 137 35 265.5t103 236.5t161 188.5t216 126t262 45.5q270 0 423.5 -160t153.5 -448q0 -172 -55.5 -328.5t-154.5 -275.5t-246 -189.5t-320 -70.5zM375 598q0 -191 84 -288t239 -97q114 0 208 55t152.5 145t90 200t31.5 225
q0 189 -84 285t-238 96q-114 0 -208 -54t-153 -143t-90.5 -198.5t-31.5 -225.5zM774 1559l258 280h228l-256 -280h-230z" />
    <glyph glyph-name="Ocircumflex" unicode="&#xd4;" horiz-adv-x="1497" 
d="M678 -20q-269 0 -423.5 161t-154.5 449q0 137 35 265.5t103 236.5t161 188.5t216 126t262 45.5q270 0 423.5 -160t153.5 -448q0 -172 -55.5 -328.5t-154.5 -275.5t-246 -189.5t-320 -70.5zM375 598q0 -191 84 -288t239 -97q114 0 208 55t152.5 145t90 200t31.5 225
q0 189 -84 285t-238 96q-114 0 -208 -54t-153 -143t-90.5 -198.5t-31.5 -225.5zM528 1556l240 283h375l149 -283h-245l-105 201l-166 -201h-248z" />
    <glyph glyph-name="Otilde" unicode="&#xd5;" horiz-adv-x="1497" 
d="M678 -20q-269 0 -423.5 161t-154.5 449q0 137 35 265.5t103 236.5t161 188.5t216 126t262 45.5q270 0 423.5 -160t153.5 -448q0 -172 -55.5 -328.5t-154.5 -275.5t-246 -189.5t-320 -70.5zM375 598q0 -191 84 -288t239 -97q114 0 208 55t152.5 145t90 200t31.5 225
q0 189 -84 285t-238 96q-114 0 -208 -54t-153 -143t-90.5 -198.5t-31.5 -225.5zM582 1636q13 107 74 166.5t155 59.5q52 0 93 -19t62 -41.5t47 -41.5t52 -19q28 0 54 17t30 50h156q-13 -107 -73.5 -166t-154.5 -59q-51 0 -91.5 19t-60.5 41.5t-47 41.5t-55 19
q-29 0 -54.5 -17t-29.5 -51h-157z" />
    <glyph glyph-name="Odieresis" unicode="&#xd6;" horiz-adv-x="1497" 
d="M678 -20q-269 0 -423.5 161t-154.5 449q0 137 35 265.5t103 236.5t161 188.5t216 126t262 45.5q270 0 423.5 -160t153.5 -448q0 -172 -55.5 -328.5t-154.5 -275.5t-246 -189.5t-320 -70.5zM375 598q0 -191 84 -288t239 -97q114 0 208 55t152.5 145t90 200t31.5 225
q0 189 -84 285t-238 96q-114 0 -208 -54t-153 -143t-90.5 -198.5t-31.5 -225.5zM557 1726q0 61 44.5 103.5t105.5 42.5q59 0 103 -42.5t44 -103.5q0 -59 -44 -101t-103 -42q-61 0 -105.5 42t-44.5 101zM1018 1726q0 61 44 103.5t103 42.5q61 0 104.5 -42.5t43.5 -103.5
q0 -60 -44 -101.5t-104 -41.5q-59 0 -103 42t-44 101z" />
    <glyph glyph-name="multiply" unicode="&#xd7;" horiz-adv-x="1064" 
d="M190 86l-133 158l312 268l-228 270l189 158l225 -268l311 268l135 -158l-313 -268l227 -270l-186 -158l-227 268z" />
    <glyph glyph-name="Oslash" unicode="&#xd8;" horiz-adv-x="1497" 
d="M117 -102l153 227q-170 162 -170 465q0 137 35 265.5t103 236.5t161 188.5t216 126t262 45.5q151 0 264 -49l84 123h221l-154 -226q162 -162 162 -456q0 -172 -55.5 -328.5t-154.5 -275.5t-246 -189.5t-320 -70.5q-139 0 -254 45l-86 -127h-221zM375 598q0 -152 53 -244
l569 838q-61 27 -139 27q-114 0 -208 -54t-153 -143t-90.5 -198.5t-31.5 -225.5zM567 236q64 -23 131 -23q114 0 208 55t152.5 145t90 200t31.5 225q0 140 -47 229z" />
    <glyph glyph-name="Ugrave" unicode="&#xd9;" horiz-adv-x="1378" 
d="M608 -20q-269 0 -404.5 144.5t-92.5 418.5l143 891h270l-139 -871q-26 -169 45.5 -258.5t220.5 -89.5q145 0 233.5 88t116.5 260l138 871h272l-141 -891q-45 -275 -221 -419t-441 -144zM547 1839h227l170 -280h-227z" />
    <glyph glyph-name="Uacute" unicode="&#xda;" horiz-adv-x="1378" 
d="M608 -20q-269 0 -404.5 144.5t-92.5 418.5l143 891h270l-139 -871q-26 -169 45.5 -258.5t220.5 -89.5q145 0 233.5 88t116.5 260l138 871h272l-141 -891q-45 -275 -221 -419t-441 -144zM696 1559l258 280h228l-256 -280h-230z" />
    <glyph glyph-name="Ucircumflex" unicode="&#xdb;" horiz-adv-x="1378" 
d="M608 -20q-269 0 -404.5 144.5t-92.5 418.5l143 891h270l-139 -871q-26 -169 45.5 -258.5t220.5 -89.5q145 0 233.5 88t116.5 260l138 871h272l-141 -891q-45 -275 -221 -419t-441 -144zM451 1556l239 283h375l149 -283h-245l-105 201l-166 -201h-247z" />
    <glyph glyph-name="Udieresis" unicode="&#xdc;" horiz-adv-x="1378" 
d="M608 -20q-269 0 -404.5 144.5t-92.5 418.5l143 891h270l-139 -871q-26 -169 45.5 -258.5t220.5 -89.5q145 0 233.5 88t116.5 260l138 871h272l-141 -891q-45 -275 -221 -419t-441 -144zM479 1726q0 61 44.5 103.5t105.5 42.5q59 0 103 -42.5t44 -103.5q0 -59 -44 -101
t-103 -42q-61 0 -105.5 42t-44.5 101zM940 1726q0 61 44 103.5t103 42.5q61 0 104.5 -42.5t43.5 -103.5q0 -60 -44 -101.5t-104 -41.5q-59 0 -103 42t-44 101z" />
    <glyph glyph-name="Yacute" unicode="&#xdd;" horiz-adv-x="1413" 
d="M485 0l84 537l-376 897h305l250 -637l452 637h309l-663 -897l-84 -537h-277zM733 1559l258 280h228l-256 -280h-230z" />
    <glyph glyph-name="Thorn" unicode="&#xde;" horiz-adv-x="1308" 
d="M25 0l229 1434h268l-39 -248h330q238 0 353.5 -103t115.5 -295q0 -246 -167.5 -392t-448.5 -146h-332l-39 -250h-270zM373 485h319q145 0 228.5 72.5t83.5 196.5q0 198 -238 198h-320z" />
    <glyph glyph-name="germandbls" unicode="&#xdf;" horiz-adv-x="1247" 
d="M182 991q75 461 561 461q209 0 328 -84.5t119 -245.5q0 -126 -70 -211.5t-190 -107.5q108 -23 176 -102.5t68 -225.5q0 -227 -168.5 -351t-454.5 -124h-92l35 225h88q154 0 241.5 65.5t87.5 186.5q0 205 -282 205h-64l31 199h63q124 0 193.5 50.5t69.5 141.5
q0 154 -203 154q-125 0 -190.5 -57.5t-84.5 -178.5l-155 -991h-264z" />
    <glyph glyph-name="agrave" unicode="&#xe0;" horiz-adv-x="1128" 
d="M311 -20q-63 0 -114 13.5t-93 42.5t-65 80t-23 120q0 291 418 354l205 28q78 10 109.5 28.5t39.5 55.5l7 29q15 84 -27 124t-141 40q-197 0 -228 -154l-4 -22l-248 -2l9 47q48 321 501 321q233 0 328 -85t66 -263l-117 -737h-250l31 190h-13q-12 -22 -29.5 -45t-52 -54
t-75.5 -54.5t-103 -40t-131 -16.5zM283 285q0 -55 38 -85t113 -30q116 0 202 63.5t97 135.5l25 137q-4 -5 -9.5 -9t-10 -7.5t-12.5 -7t-13 -5.5t-15 -4.5t-15 -4t-17.5 -3.5t-17.5 -3t-20 -3.5t-20 -3.5l-157 -23q-78 -11 -123 -48t-45 -99zM385 1470h227l170 -280h-227z
" />
    <glyph glyph-name="aacute" unicode="&#xe1;" horiz-adv-x="1128" 
d="M311 -20q-63 0 -114 13.5t-93 42.5t-65 80t-23 120q0 291 418 354l205 28q78 10 109.5 28.5t39.5 55.5l7 29q15 84 -27 124t-141 40q-197 0 -228 -154l-4 -22l-248 -2l9 47q48 321 501 321q233 0 328 -85t66 -263l-117 -737h-250l31 190h-13q-12 -22 -29.5 -45t-52 -54
t-75.5 -54.5t-103 -40t-131 -16.5zM283 285q0 -55 38 -85t113 -30q116 0 202 63.5t97 135.5l25 137q-4 -5 -9.5 -9t-10 -7.5t-12.5 -7t-13 -5.5t-15 -4.5t-15 -4t-17.5 -3.5t-17.5 -3t-20 -3.5t-20 -3.5l-157 -23q-78 -11 -123 -48t-45 -99zM537 1190l258 280h227l-256 -280
h-229z" />
    <glyph glyph-name="acircumflex" unicode="&#xe2;" horiz-adv-x="1128" 
d="M311 -20q-63 0 -114 13.5t-93 42.5t-65 80t-23 120q0 291 418 354l205 28q78 10 109.5 28.5t39.5 55.5l7 29q15 84 -27 124t-141 40q-197 0 -228 -154l-4 -22l-248 -2l9 47q48 321 501 321q233 0 328 -85t66 -263l-117 -737h-250l31 190h-13q-12 -22 -29.5 -45t-52 -54
t-75.5 -54.5t-103 -40t-131 -16.5zM283 285q0 -55 38 -85t113 -30q116 0 202 63.5t97 135.5l25 137q-4 -5 -9.5 -9t-10 -7.5t-12.5 -7t-13 -5.5t-15 -4.5t-15 -4t-17.5 -3.5t-17.5 -3t-20 -3.5t-20 -3.5l-157 -23q-78 -11 -123 -48t-45 -99zM289 1188l239 282h375l150 -282
h-246l-105 201l-165 -201h-248z" />
    <glyph glyph-name="atilde" unicode="&#xe3;" horiz-adv-x="1128" 
d="M311 -20q-63 0 -114 13.5t-93 42.5t-65 80t-23 120q0 291 418 354l205 28q78 10 109.5 28.5t39.5 55.5l7 29q15 84 -27 124t-141 40q-197 0 -228 -154l-4 -22l-248 -2l9 47q48 321 501 321q233 0 328 -85t66 -263l-117 -737h-250l31 190h-13q-12 -22 -29.5 -45t-52 -54
t-75.5 -54.5t-103 -40t-131 -16.5zM283 285q0 -55 38 -85t113 -30q116 0 202 63.5t97 135.5l25 137q-4 -5 -9.5 -9t-10 -7.5t-12.5 -7t-13 -5.5t-15 -4.5t-15 -4t-17.5 -3.5t-17.5 -3t-20 -3.5t-20 -3.5l-157 -23q-78 -11 -123 -48t-45 -99zM344 1268q13 107 74 166t155 59
q52 0 93 -19t62 -41.5t47 -41.5t52 -19q28 0 54 17.5t30 50.5h156q-13 -107 -73 -166.5t-154 -59.5q-51 0 -91.5 19t-60.5 41.5t-47 41.5t-55 19q-29 0 -54.5 -16.5t-29.5 -50.5h-158z" />
    <glyph glyph-name="adieresis" unicode="&#xe4;" horiz-adv-x="1128" 
d="M311 -20q-63 0 -114 13.5t-93 42.5t-65 80t-23 120q0 291 418 354l205 28q78 10 109.5 28.5t39.5 55.5l7 29q15 84 -27 124t-141 40q-197 0 -228 -154l-4 -22l-248 -2l9 47q48 321 501 321q233 0 328 -85t66 -263l-117 -737h-250l31 190h-13q-12 -22 -29.5 -45t-52 -54
t-75.5 -54.5t-103 -40t-131 -16.5zM283 285q0 -55 38 -85t113 -30q116 0 202 63.5t97 135.5l25 137q-4 -5 -9.5 -9t-10 -7.5t-12.5 -7t-13 -5.5t-15 -4.5t-15 -4t-17.5 -3.5t-17.5 -3t-20 -3.5t-20 -3.5l-157 -23q-78 -11 -123 -48t-45 -99zM319 1358q0 61 44.5 103
t105.5 42q59 0 103 -42t44 -103q0 -59 -44 -101.5t-103 -42.5q-61 0 -105.5 42.5t-44.5 101.5zM780 1358q0 61 44.5 103t103.5 42q61 0 104 -42t43 -103q0 -60 -43.5 -102t-103.5 -42q-59 0 -103.5 42.5t-44.5 101.5z" />
    <glyph glyph-name="aring" unicode="&#xe5;" horiz-adv-x="1128" 
d="M311 -20q-63 0 -114 13.5t-93 42.5t-65 80t-23 120q0 291 418 354l205 28q78 10 109.5 28.5t39.5 55.5l7 29q15 84 -27 124t-141 40q-197 0 -228 -154l-4 -22l-248 -2l9 47q48 321 501 321q233 0 328 -85t66 -263l-117 -737h-250l31 190h-13q-12 -22 -29.5 -45t-52 -54
t-75.5 -54.5t-103 -40t-131 -16.5zM283 285q0 -55 38 -85t113 -30q116 0 202 63.5t97 135.5l25 137q-4 -5 -9.5 -9t-10 -7.5t-12.5 -7t-13 -5.5t-15 -4.5t-15 -4t-17.5 -3.5t-17.5 -3t-20 -3.5t-20 -3.5l-157 -23q-78 -11 -123 -48t-45 -99zM494 1348q0 82 58 139t144 57
q87 0 145 -57t58 -139q0 -84 -58 -140.5t-145 -56.5q-86 0 -144 57t-58 140zM618 1348q0 -35 22.5 -57.5t55.5 -22.5q34 0 57 22.5t23 57.5q0 33 -23 55t-57 22q-33 0 -55.5 -22t-22.5 -55z" />
    <glyph glyph-name="ae" unicode="&#xe6;" horiz-adv-x="1841" 
d="M350 -20q-332 0 -332 270q0 167 122.5 261.5t322.5 94.5h307l21 123q13 85 -34.5 121.5t-140.5 36.5q-90 0 -145.5 -32t-73.5 -114l-4 -20l-237 -4l10 57q23 153 146 232t337 79q256 0 330 -131q157 131 381 131q197 0 314.5 -102t117.5 -315q0 -132 -31 -203h-760v-12
q0 -152 60 -216.5t180 -64.5q96 0 158.5 39t101.5 119h232q-69 -178 -206 -267.5t-321 -89.5q-138 0 -243 52.5t-158 164.5q-25 -35 -62 -68t-92 -67t-133.5 -54.5t-167.5 -20.5zM285 295q0 -57 37.5 -90t117.5 -33q121 0 201 68t94 151l10 68h-243q-93 0 -155 -44t-62 -120
zM1018 610h528q21 125 -35 200t-182 75q-128 0 -204.5 -75t-106.5 -200z" />
    <glyph glyph-name="ccedilla" unicode="&#xe7;" horiz-adv-x="1128" 
d="M301 -367q66 -3 111 21t45 67q0 44 -40.5 56t-90.5 -13l-58 91l140 133q-75 12 -137.5 43.5t-112 83.5t-77.5 133t-28 184q0 177 76 325.5t219.5 238t325.5 89.5q62 0 118 -10.5t113.5 -39t98 -74t64.5 -122t19 -175.5h-233q-1 102 -60 151t-155 49q-107 0 -186 -60
t-116.5 -150.5t-37.5 -194.5q0 -125 61 -191.5t177 -66.5q97 0 170 49t108 151h232q-22 -86 -61 -155t-85 -114.5t-102 -77.5t-109 -48t-110 -22l-111 -95h18q69 0 110.5 -40t41.5 -111q0 -79 -52 -134t-132 -79.5t-179 -24.5z" />
    <glyph glyph-name="egrave" unicode="&#xe8;" horiz-adv-x="1138" 
d="M504 -27q-96 0 -175 25.5t-142 78.5t-98.5 144.5t-35.5 214.5q0 133 41.5 251t117.5 206.5t191 140t254 51.5q197 0 315 -102t118 -315q0 -132 -31 -203h-760v-12q0 -152 60 -216.5t180 -64.5q96 0 158.5 39t101.5 119h231q-69 -178 -205.5 -267.5t-320.5 -89.5zM315 610
h529q21 125 -35 200t-182 75q-128 0 -205 -75t-107 -200zM387 1470h227l170 -280h-227z" />
    <glyph glyph-name="eacute" unicode="&#xe9;" horiz-adv-x="1138" 
d="M504 -27q-96 0 -175 25.5t-142 78.5t-98.5 144.5t-35.5 214.5q0 133 41.5 251t117.5 206.5t191 140t254 51.5q197 0 315 -102t118 -315q0 -132 -31 -203h-760v-12q0 -152 60 -216.5t180 -64.5q96 0 158.5 39t101.5 119h231q-69 -178 -205.5 -267.5t-320.5 -89.5zM315 610
h529q21 125 -35 200t-182 75q-128 0 -205 -75t-107 -200zM537 1190l258 280h227l-256 -280h-229z" />
    <glyph glyph-name="ecircumflex" unicode="&#xea;" horiz-adv-x="1138" 
d="M504 -27q-96 0 -175 25.5t-142 78.5t-98.5 144.5t-35.5 214.5q0 133 41.5 251t117.5 206.5t191 140t254 51.5q197 0 315 -102t118 -315q0 -132 -31 -203h-760v-12q0 -152 60 -216.5t180 -64.5q96 0 158.5 39t101.5 119h231q-69 -178 -205.5 -267.5t-320.5 -89.5z
M291 1188l239 282h375l150 -282h-246l-104 201l-166 -201h-248zM315 610h529q21 125 -35 200t-182 75q-128 0 -205 -75t-107 -200z" />
    <glyph glyph-name="edieresis" unicode="&#xeb;" horiz-adv-x="1138" 
d="M504 -27q-96 0 -175 25.5t-142 78.5t-98.5 144.5t-35.5 214.5q0 133 41.5 251t117.5 206.5t191 140t254 51.5q197 0 315 -102t118 -315q0 -132 -31 -203h-760v-12q0 -152 60 -216.5t180 -64.5q96 0 158.5 39t101.5 119h231q-69 -178 -205.5 -267.5t-320.5 -89.5zM315 610
h529q21 125 -35 200t-182 75q-128 0 -205 -75t-107 -200zM319 1358q0 61 44.5 103t105.5 42q59 0 103 -42t44 -103q0 -59 -44 -101.5t-103 -42.5q-61 0 -105.5 42.5t-44.5 101.5zM780 1358q0 61 44.5 103t103.5 42q61 0 104 -42t43 -103q0 -60 -43.5 -102t-103.5 -42
q-59 0 -103.5 42.5t-44.5 101.5z" />
    <glyph glyph-name="igrave" unicode="&#xec;" horiz-adv-x="446" 
d="M6 0l168 1065h262l-168 -1065h-262zM39 1470h227l170 -280h-227z" />
    <glyph glyph-name="iacute" unicode="&#xed;" horiz-adv-x="446" 
d="M6 0l168 1065h262l-168 -1065h-262zM188 1190l258 280h228l-256 -280h-230z" />
    <glyph glyph-name="icircumflex" unicode="&#xee;" horiz-adv-x="446" 
d="M6 0l168 1065h262l-168 -1065h-262zM-57 1188l239 282h375l150 -282h-246l-105 201l-166 -201h-247z" />
    <glyph glyph-name="idieresis" unicode="&#xef;" horiz-adv-x="446" 
d="M6 0l168 1065h262l-168 -1065h-262zM-29 1358q0 61 44.5 103t105.5 42q59 0 103 -42t44 -103q0 -59 -44 -101.5t-103 -42.5q-61 0 -105.5 42.5t-44.5 101.5zM432 1358q0 61 44.5 103t103.5 42q61 0 104 -42t43 -103q0 -60 -43.5 -102t-103.5 -42q-59 0 -103.5 42.5
t-44.5 101.5z" />
    <glyph glyph-name="eth" unicode="&#xf0;" horiz-adv-x="1206" 
d="M496 -20q-94 0 -173.5 26.5t-141 79t-96 138.5t-34.5 196q0 173 68 319t199 236t300 90q135 0 213 -68q-50 130 -98 215h-260l21 119h163q-38 54 -82 103h265l65 -103h281l-19 -119h-192q77 -137 110 -242.5t33 -224.5q0 -214 -72.5 -386t-215.5 -275.5t-334 -103.5z
M313 451q0 -125 58.5 -185.5t154.5 -60.5q75 0 137 35.5t100.5 94t59.5 129.5t21 146q0 118 -59 174t-158 56q-62 0 -114 -21t-88.5 -58t-62 -86.5t-37.5 -106t-12 -117.5z" />
    <glyph glyph-name="ntilde" unicode="&#xf1;" 
d="M848 608q23 128 -24.5 194t-155.5 66q-105 0 -179.5 -59t-99.5 -174l-100 -635h-264l170 1065h262l-35 -219h10q14 38 43 77t74.5 76.5t114.5 61.5t149 24q167 0 253 -104t54 -311l-104 -670h-262zM381 1268q13 107 74 166t155 59q52 0 93 -19t62 -41.5t47 -41.5t52 -19
q28 0 54 17.5t30 50.5h156q-13 -107 -73 -166.5t-154 -59.5q-51 0 -91.5 19t-60.5 41.5t-47 41.5t-55 19q-29 0 -54.5 -16.5t-29.5 -50.5h-158z" />
    <glyph glyph-name="ograve" unicode="&#xf2;" horiz-adv-x="1173" 
d="M504 -20q-94 0 -174 27t-142.5 80.5t-98.5 142.5t-36 204q0 175 76.5 323t219 238t321.5 90q94 0 173.5 -27t142.5 -80.5t98.5 -142.5t35.5 -204q0 -175 -76.5 -323t-218.5 -238t-321 -90zM305 461q0 -133 63.5 -197.5t168.5 -64.5q103 0 180 60t114 150.5t37 194.5
q0 133 -63 197.5t-168 64.5q-103 0 -180.5 -60t-114.5 -151t-37 -194zM403 1470h228l170 -280h-228z" />
    <glyph glyph-name="oacute" unicode="&#xf3;" horiz-adv-x="1173" 
d="M504 -20q-94 0 -174 27t-142.5 80.5t-98.5 142.5t-36 204q0 175 76.5 323t219 238t321.5 90q94 0 173.5 -27t142.5 -80.5t98.5 -142.5t35.5 -204q0 -175 -76.5 -323t-218.5 -238t-321 -90zM305 461q0 -133 63.5 -197.5t168.5 -64.5q103 0 180 60t114 150.5t37 194.5
q0 133 -63 197.5t-168 64.5q-103 0 -180.5 -60t-114.5 -151t-37 -194zM553 1190l258 280h227l-256 -280h-229z" />
    <glyph glyph-name="ocircumflex" unicode="&#xf4;" horiz-adv-x="1173" 
d="M504 -20q-94 0 -174 27t-142.5 80.5t-98.5 142.5t-36 204q0 175 76.5 323t219 238t321.5 90q94 0 173.5 -27t142.5 -80.5t98.5 -142.5t35.5 -204q0 -175 -76.5 -323t-218.5 -238t-321 -90zM305 461q0 -133 63.5 -197.5t168.5 -64.5q103 0 180 60t114 150.5t37 194.5
q0 133 -63 197.5t-168 64.5q-103 0 -180.5 -60t-114.5 -151t-37 -194zM307 1188l240 282h375l149 -282h-246l-104 201l-166 -201h-248z" />
    <glyph glyph-name="otilde" unicode="&#xf5;" horiz-adv-x="1173" 
d="M504 -20q-94 0 -174 27t-142.5 80.5t-98.5 142.5t-36 204q0 175 76.5 323t219 238t321.5 90q94 0 173.5 -27t142.5 -80.5t98.5 -142.5t35.5 -204q0 -175 -76.5 -323t-218.5 -238t-321 -90zM305 461q0 -133 63.5 -197.5t168.5 -64.5q103 0 180 60t114 150.5t37 194.5
q0 133 -63 197.5t-168 64.5q-103 0 -180.5 -60t-114.5 -151t-37 -194zM362 1268q13 107 74.5 166t155.5 59q52 0 93 -19t62 -41.5t47 -41.5t52 -19q28 0 54 17.5t30 50.5h155q-13 -107 -73 -166.5t-154 -59.5q-51 0 -91.5 19t-60.5 41.5t-47 41.5t-55 19q-29 0 -54.5 -16.5
t-29.5 -50.5h-158z" />
    <glyph glyph-name="odieresis" unicode="&#xf6;" horiz-adv-x="1173" 
d="M504 -20q-94 0 -174 27t-142.5 80.5t-98.5 142.5t-36 204q0 175 76.5 323t219 238t321.5 90q94 0 173.5 -27t142.5 -80.5t98.5 -142.5t35.5 -204q0 -175 -76.5 -323t-218.5 -238t-321 -90zM305 461q0 -133 63.5 -197.5t168.5 -64.5q103 0 180 60t114 150.5t37 194.5
q0 133 -63 197.5t-168 64.5q-103 0 -180.5 -60t-114.5 -151t-37 -194zM336 1358q0 61 44 103t105 42q59 0 103.5 -42t44.5 -103q0 -59 -44.5 -101.5t-103.5 -42.5q-60 0 -104.5 42t-44.5 102zM797 1358q0 61 44 103t103 42q61 0 104.5 -42t43.5 -103q0 -60 -44 -102
t-104 -42q-59 0 -103 42.5t-44 101.5z" />
    <glyph glyph-name="divide" unicode="&#xf7;" horiz-adv-x="884" 
d="M504 795q-50 0 -83.5 33.5t-33.5 82.5q0 46 34 79.5t83 33.5q47 0 79.5 -33.5t32.5 -79.5q0 -49 -32.5 -82.5t-79.5 -33.5zM98 469l37 197h662l-35 -197h-664zM283 227q0 47 32.5 80t81.5 33q47 0 80 -33.5t33 -79.5q0 -49 -33 -82.5t-80 -33.5q-49 0 -81.5 33t-32.5 83z
" />
    <glyph glyph-name="oslash" unicode="&#xf8;" horiz-adv-x="1173" 
d="M74 -102l121 184q-142 122 -142 352q0 175 76.5 323t219 238t321.5 90q81 0 161 -22l78 121h193l-127 -197q145 -122 145 -356q0 -175 -76.5 -323t-218.5 -238t-321 -90q-92 0 -168 24l-70 -106h-192zM305 461q0 -92 33 -156l360 555q-27 6 -61 6q-103 0 -180.5 -60
t-114.5 -151t-37 -194zM467 207q31 -8 70 -8q103 0 180 60t114 150.5t37 194.5q0 99 -37 162z" />
    <glyph glyph-name="ugrave" unicode="&#xf9;" 
d="M362 457q-23 -128 25 -194t156 -66q105 0 179 59t99 174l101 635h264l-170 -1065h-262l34 219h-10q-14 -38 -43 -77t-74.5 -76.5t-114.5 -61.5t-149 -24q-167 0 -253 104t-54 311l105 670h262zM416 1470h227l170 -280h-227z" />
    <glyph glyph-name="uacute" unicode="&#xfa;" 
d="M362 457q-23 -128 25 -194t156 -66q105 0 179 59t99 174l101 635h264l-170 -1065h-262l34 219h-10q-14 -38 -43 -77t-74.5 -76.5t-114.5 -61.5t-149 -24q-167 0 -253 104t-54 311l105 670h262zM567 1190l258 280h228l-256 -280h-230z" />
    <glyph glyph-name="ucircumflex" unicode="&#xfb;" 
d="M362 457q-23 -128 25 -194t156 -66q105 0 179 59t99 174l101 635h264l-170 -1065h-262l34 219h-10q-14 -38 -43 -77t-74.5 -76.5t-114.5 -61.5t-149 -24q-167 0 -253 104t-54 311l105 670h262zM319 1188l240 282h375l149 -282h-245l-105 201l-166 -201h-248z" />
    <glyph glyph-name="udieresis" unicode="&#xfc;" 
d="M362 457q-23 -128 25 -194t156 -66q105 0 179 59t99 174l101 635h264l-170 -1065h-262l34 219h-10q-14 -38 -43 -77t-74.5 -76.5t-114.5 -61.5t-149 -24q-167 0 -253 104t-54 311l105 670h262zM348 1358q0 61 44.5 103t105.5 42q59 0 103 -42t44 -103q0 -59 -44 -101.5
t-103 -42.5q-61 0 -105.5 42.5t-44.5 101.5zM809 1358q0 61 44 103t103 42q61 0 104.5 -42t43.5 -103q0 -60 -44 -102t-104 -42q-59 0 -103 42.5t-44 101.5z" />
    <glyph glyph-name="yacute" unicode="&#xfd;" horiz-adv-x="1161" 
d="M33 -182q54 -9 99.5 -3t76 15t56.5 28.5t41 37t30 41.5q25 41 30.5 73.5t-4.5 73.5l-241 981h268l156 -739l391 739h272l-614 -1094q-130 -232 -261 -316t-333 -61zM547 1190l258 280h227l-256 -280h-229z" />
    <glyph glyph-name="thorn" unicode="&#xfe;" horiz-adv-x="1230" 
d="M-37 -389l291 1823h262l-84 -527q48 78 147 128t214 50q77 0 145 -25t123 -75t87 -134t32 -192q0 -180 -69.5 -334.5t-199.5 -249.5t-293 -95q-118 0 -199 49.5t-108 130.5l-84 -549h-264zM354 463q0 -131 67.5 -197.5t172.5 -66.5q99 0 176.5 57.5t117.5 149.5t40 200
q0 129 -66 194.5t-172 65.5q-99 0 -177 -57.5t-118.5 -149t-40.5 -196.5z" />
    <glyph glyph-name="ydieresis" unicode="&#xff;" horiz-adv-x="1161" 
d="M33 -182q54 -9 99.5 -3t76 15t56.5 28.5t41 37t30 41.5q25 41 30.5 73.5t-4.5 73.5l-241 981h268l156 -739l391 739h272l-614 -1094q-130 -232 -261 -316t-333 -61zM330 1358q0 61 44 103t105 42q59 0 103.5 -42t44.5 -103q0 -59 -44.5 -101.5t-103.5 -42.5
q-60 0 -104.5 42t-44.5 102zM791 1358q0 61 44 103t103 42q61 0 104 -42t43 -103q0 -60 -43.5 -102t-103.5 -42q-59 0 -103 42.5t-44 101.5z" />
    <glyph glyph-name="Amacron" unicode="&#x100;" horiz-adv-x="1472" 
d="M-47 0l756 1434h344l299 -1434h-279l-57 293h-625l-149 -293h-289zM494 494h483l-129 663h-17zM598 1686l23 153h653l-23 -153h-653z" />
    <glyph glyph-name="amacron" unicode="&#x101;" horiz-adv-x="1128" 
d="M311 -20q-63 0 -114 13.5t-93 42.5t-65 80t-23 120q0 291 418 354l205 28q78 10 109.5 28.5t39.5 55.5l7 29q15 84 -27 124t-141 40q-197 0 -228 -154l-4 -22l-248 -2l9 47q48 321 501 321q233 0 328 -85t66 -263l-117 -737h-250l31 190h-13q-12 -22 -29.5 -45t-52 -54
t-75.5 -54.5t-103 -40t-131 -16.5zM283 285q0 -55 38 -85t113 -30q116 0 202 63.5t97 135.5l25 137q-4 -5 -9.5 -9t-10 -7.5t-12.5 -7t-13 -5.5t-15 -4.5t-15 -4t-17.5 -3.5t-17.5 -3t-20 -3.5t-20 -3.5l-157 -23q-78 -11 -123 -48t-45 -99zM367 1317l22 153h653l-22 -153
h-653z" />
    <glyph glyph-name="Abreve" unicode="&#x102;" horiz-adv-x="1472" 
d="M-47 0l756 1434h344l299 -1434h-279l-57 293h-625l-149 -293h-289zM494 494h483l-129 663h-17zM614 1839h174q-9 -149 140 -149q150 0 178 149h174q-23 -140 -116.5 -220.5t-256.5 -80.5q-165 0 -240 81.5t-53 219.5z" />
    <glyph glyph-name="abreve" unicode="&#x103;" horiz-adv-x="1128" 
d="M311 -20q-63 0 -114 13.5t-93 42.5t-65 80t-23 120q0 291 418 354l205 28q78 10 109.5 28.5t39.5 55.5l7 29q15 84 -27 124t-141 40q-197 0 -228 -154l-4 -22l-248 -2l9 47q48 321 501 321q233 0 328 -85t66 -263l-117 -737h-250l31 190h-13q-12 -22 -29.5 -45t-52 -54
t-75.5 -54.5t-103 -40t-131 -16.5zM283 285q0 -55 38 -85t113 -30q116 0 202 63.5t97 135.5l25 137q-4 -5 -9.5 -9t-10 -7.5t-12.5 -7t-13 -5.5t-15 -4.5t-15 -4t-17.5 -3.5t-17.5 -3t-20 -3.5t-20 -3.5l-157 -23q-78 -11 -123 -48t-45 -99zM383 1470h174q-9 -149 139 -149
q150 0 178 149h175q-23 -140 -116.5 -220.5t-256.5 -80.5q-165 0 -240 81.5t-53 219.5z" />
    <glyph glyph-name="Aogonek" unicode="&#x104;" horiz-adv-x="1472" 
d="M-47 0l756 1434h344l299 -1434q-123 0 -197 -47t-74 -119q0 -53 41 -73.5t105 -2.5l-25 -147q-31 -12 -71.5 -15t-84.5 5t-80.5 27t-60.5 57.5t-24 91.5q0 82 51.5 147.5t134.5 104.5l-51 264h-625l-149 -293h-289zM494 494h483l-129 663h-17z" />
    <glyph glyph-name="aogonek" unicode="&#x105;" horiz-adv-x="1128" 
d="M311 -20q-63 0 -114 13.5t-93 42.5t-65 80t-23 120q0 291 418 354l205 28q78 10 109.5 28.5t39.5 55.5l7 29q15 84 -27 124t-141 40q-197 0 -228 -154l-4 -22l-248 -2l9 47q48 321 501 321q233 0 328 -85t66 -263l-117 -735l2 -2q-123 0 -196.5 -47t-73.5 -119
q0 -53 40.5 -73.5t104.5 -2.5l-25 -147q-31 -12 -71.5 -15t-84.5 5t-80.5 27t-60.5 57.5t-24 91.5q0 91 63 162.5t162 103.5l25 147h-13q-12 -22 -29.5 -45t-52 -54t-75.5 -54.5t-103 -40t-131 -16.5zM283 285q0 -55 38 -85t113 -30q116 0 202 63.5t97 135.5l25 137
q-4 -5 -9.5 -9t-10 -7.5t-12.5 -7t-13 -5.5t-15 -4.5t-15 -4t-17.5 -3.5t-17.5 -3t-20 -3.5t-20 -3.5l-157 -23q-78 -11 -123 -48t-45 -99z" />
    <glyph glyph-name="Cacute" unicode="&#x106;" horiz-adv-x="1394" 
d="M676 -20q-272 0 -423 156t-151 456q0 175 52.5 330.5t148 273.5t242.5 187t325 69q119 0 216.5 -31t169.5 -91.5t109.5 -156t33.5 -217.5h-256q-13 135 -93 199t-204 64q-93 0 -171.5 -35t-132.5 -94.5t-92.5 -137.5t-56.5 -163t-18 -173q0 -192 85.5 -297.5
t246.5 -105.5q253 0 360 264h258q-32 -128 -96 -225t-150 -155.5t-187 -87.5t-216 -29zM782 1559l258 280h228l-256 -280h-230z" />
    <glyph glyph-name="cacute" unicode="&#x107;" horiz-adv-x="1128" 
d="M504 -20q-72 0 -136.5 15t-122.5 50t-100.5 86t-67 128t-24.5 173q0 177 76 325.5t219.5 238t325.5 89.5q62 0 118 -10.5t113.5 -39t98 -74t64.5 -122t19 -175.5h-233q-1 102 -60 151t-155 49q-107 0 -186 -60t-116.5 -150.5t-37.5 -194.5q0 -125 61 -191.5t177 -66.5
q97 0 170 49t108 151h232q-25 -98 -72 -174t-102 -121.5t-122 -75t-126.5 -40t-120.5 -10.5zM539 1190l258 280h227l-256 -280h-229z" />
    <glyph glyph-name="Ccircumflex" unicode="&#x108;" horiz-adv-x="1394" 
d="M676 -20q-272 0 -423 156t-151 456q0 175 52.5 330.5t148 273.5t242.5 187t325 69q119 0 216.5 -31t169.5 -91.5t109.5 -156t33.5 -217.5h-256q-13 135 -93 199t-204 64q-93 0 -171.5 -35t-132.5 -94.5t-92.5 -137.5t-56.5 -163t-18 -173q0 -192 85.5 -297.5
t246.5 -105.5q253 0 360 264h258q-32 -128 -96 -225t-150 -155.5t-187 -87.5t-216 -29zM537 1556l239 283h375l149 -283h-245l-105 201l-166 -201h-247z" />
    <glyph glyph-name="ccircumflex" unicode="&#x109;" horiz-adv-x="1128" 
d="M504 -20q-72 0 -136.5 15t-122.5 50t-100.5 86t-67 128t-24.5 173q0 177 76 325.5t219.5 238t325.5 89.5q62 0 118 -10.5t113.5 -39t98 -74t64.5 -122t19 -175.5h-233q-1 102 -60 151t-155 49q-107 0 -186 -60t-116.5 -150.5t-37.5 -194.5q0 -125 61 -191.5t177 -66.5
q97 0 170 49t108 151h232q-25 -98 -72 -174t-102 -121.5t-122 -75t-126.5 -40t-120.5 -10.5zM295 1188l240 282h374l150 -282h-246l-104 201l-166 -201h-248z" />
    <glyph glyph-name="Cdotaccent" unicode="&#x10a;" horiz-adv-x="1394" 
d="M676 -20q-272 0 -423 156t-151 456q0 175 52.5 330.5t148 273.5t242.5 187t325 69q119 0 216.5 -31t169.5 -91.5t109.5 -156t33.5 -217.5h-256q-13 135 -93 199t-204 64q-93 0 -171.5 -35t-132.5 -94.5t-92.5 -137.5t-56.5 -163t-18 -173q0 -192 85.5 -297.5
t246.5 -105.5q253 0 360 264h258q-32 -128 -96 -225t-150 -155.5t-187 -87.5t-216 -29zM801 1726q0 61 44 103.5t105 42.5q59 0 103.5 -42.5t44.5 -103.5q0 -59 -44.5 -101t-103.5 -42q-61 0 -105 42t-44 101z" />
    <glyph glyph-name="cdotaccent" unicode="&#x10b;" horiz-adv-x="1128" 
d="M504 -20q-72 0 -136.5 15t-122.5 50t-100.5 86t-67 128t-24.5 173q0 177 76 325.5t219.5 238t325.5 89.5q62 0 118 -10.5t113.5 -39t98 -74t64.5 -122t19 -175.5h-233q-1 102 -60 151t-155 49q-107 0 -186 -60t-116.5 -150.5t-37.5 -194.5q0 -125 61 -191.5t177 -66.5
q97 0 170 49t108 151h232q-25 -98 -72 -174t-102 -121.5t-122 -75t-126.5 -40t-120.5 -10.5zM559 1358q0 61 44.5 103t105.5 42q59 0 103 -42t44 -103q0 -59 -44 -101.5t-103 -42.5q-61 0 -105.5 42.5t-44.5 101.5z" />
    <glyph glyph-name="Ccaron" unicode="&#x10c;" horiz-adv-x="1394" 
d="M676 -20q-272 0 -423 156t-151 456q0 175 52.5 330.5t148 273.5t242.5 187t325 69q119 0 216.5 -31t169.5 -91.5t109.5 -156t33.5 -217.5h-256q-13 135 -93 199t-204 64q-93 0 -171.5 -35t-132.5 -94.5t-92.5 -137.5t-56.5 -163t-18 -173q0 -192 85.5 -297.5
t246.5 -105.5q253 0 360 264h258q-32 -128 -96 -225t-150 -155.5t-187 -87.5t-216 -29zM578 1839h245l105 -201l166 201h247l-239 -283h-375z" />
    <glyph glyph-name="ccaron" unicode="&#x10d;" horiz-adv-x="1128" 
d="M504 -20q-72 0 -136.5 15t-122.5 50t-100.5 86t-67 128t-24.5 173q0 177 76 325.5t219.5 238t325.5 89.5q62 0 118 -10.5t113.5 -39t98 -74t64.5 -122t19 -175.5h-233q-1 102 -60 151t-155 49q-107 0 -186 -60t-116.5 -150.5t-37.5 -194.5q0 -125 61 -191.5t177 -66.5
q97 0 170 49t108 151h232q-25 -98 -72 -174t-102 -121.5t-122 -75t-126.5 -40t-120.5 -10.5zM336 1470h246l104 -200l166 200h248l-240 -282h-375z" />
    <glyph glyph-name="Dcaron" unicode="&#x10e;" horiz-adv-x="1388" 
d="M25 0l229 1434h514q575 0 575 -590q0 -181 -52 -334.5t-150 -267t-248.5 -178t-337.5 -64.5h-530zM334 236h217q135 0 237 46.5t162.5 130t90.5 189t30 232.5q0 199 -82 281.5t-274 82.5h-232zM504 1839h246l104 -201l166 201h248l-240 -283h-375z" />
    <glyph glyph-name="dcaron" unicode="&#x10f;" horiz-adv-x="1323" 
d="M1286 1153l168 281h229l-170 -281h-227zM51 410q0 180 69 333.5t197.5 247.5t288.5 94q119 0 200.5 -49.5t108.5 -128.5l84 527h263l-228 -1434h-262l25 158q-51 -79 -148.5 -128.5t-212.5 -49.5q-78 0 -145.5 25t-122 75.5t-86 135t-31.5 194.5zM303 463
q0 -132 64.5 -198t171.5 -66q147 0 240 120t93 283q0 132 -66.5 198t-172.5 66q-98 0 -174.5 -57.5t-116 -148.5t-39.5 -197z" />
    <glyph glyph-name="Dcroat" unicode="&#x110;" horiz-adv-x="1452" 
d="M88 0l98 608h-153l33 197h151l100 629h514q576 0 576 -590q0 -180 -52.5 -334t-150.5 -267.5t-248.5 -178t-337.5 -64.5h-530zM397 236h217q135 0 237 46.5t163 130t91 189t30 232.5q0 199 -82.5 281.5t-274.5 82.5h-231l-62 -393h193l-33 -197h-190z" />
    <glyph glyph-name="dcroat" unicode="&#x111;" horiz-adv-x="1292" 
d="M692 1212l19 119h272l16 103h263l-17 -103h158l-19 -119h-157l-193 -1212h-262l25 158q-51 -79 -148.5 -128.5t-212.5 -49.5q-78 0 -145.5 25t-122 75.5t-86 135t-31.5 194.5q0 180 69 333.5t197.5 247.5t288.5 94q119 0 200.5 -49.5t108.5 -128.5l50 305h-273zM303 463
q0 -132 64.5 -198t171.5 -66q147 0 240 120t93 283q0 132 -66.5 198t-172.5 66q-98 0 -174.5 -57.5t-116 -148.5t-39.5 -197z" />
    <glyph glyph-name="Emacron" unicode="&#x112;" horiz-adv-x="1148" 
d="M25 0l229 1434h960l-38 -236h-693l-59 -364h631l-33 -211h-631l-57 -387h710l-36 -236h-983zM467 1686l22 153h654l-23 -153h-653z" />
    <glyph glyph-name="emacron" unicode="&#x113;" horiz-adv-x="1138" 
d="M504 -27q-96 0 -175 25.5t-142 78.5t-98.5 144.5t-35.5 214.5q0 133 41.5 251t117.5 206.5t191 140t254 51.5q197 0 315 -102t118 -315q0 -132 -31 -203h-760v-12q0 -152 60 -216.5t180 -64.5q96 0 158.5 39t101.5 119h231q-69 -178 -205.5 -267.5t-320.5 -89.5zM315 610
h529q21 125 -35 200t-182 75q-128 0 -205 -75t-107 -200zM369 1317l22 153h653l-22 -153h-653z" />
    <glyph glyph-name="Edotaccent" unicode="&#x116;" horiz-adv-x="1148" 
d="M25 0l229 1434h960l-38 -236h-693l-59 -364h631l-33 -211h-631l-57 -387h710l-36 -236h-983zM655 1726q0 61 44.5 103.5t105.5 42.5q59 0 103 -42.5t44 -103.5q0 -59 -44 -101t-103 -42q-61 0 -105.5 42t-44.5 101z" />
    <glyph glyph-name="edotaccent" unicode="&#x117;" horiz-adv-x="1138" 
d="M504 -27q-96 0 -175 25.5t-142 78.5t-98.5 144.5t-35.5 214.5q0 133 41.5 251t117.5 206.5t191 140t254 51.5q197 0 315 -102t118 -315q0 -132 -31 -203h-760v-12q0 -152 60 -216.5t180 -64.5q96 0 158.5 39t101.5 119h231q-69 -178 -205.5 -267.5t-320.5 -89.5zM315 610
h529q21 125 -35 200t-182 75q-128 0 -205 -75t-107 -200zM557 1358q0 61 44.5 103t105.5 42q59 0 103 -42t44 -103q0 -59 -44 -101.5t-103 -42.5q-61 0 -105.5 42.5t-44.5 101.5z" />
    <glyph glyph-name="Eogonek" unicode="&#x118;" horiz-adv-x="1148" 
d="M25 0l229 1434h960l-38 -236h-693l-59 -364h631l-33 -211h-631l-57 -387h710l-36 -236q-123 0 -197 -47t-74 -119q0 -53 41 -73.5t105 -2.5l-25 -147q-31 -12 -71.5 -15t-84.5 5t-80.5 27t-60.5 57.5t-24 91.5q0 67 36.5 125t98.5 98h-647z" />
    <glyph glyph-name="eogonek" unicode="&#x119;" horiz-adv-x="1136" 
d="M594 -389q-39 -15 -92 -15t-105.5 15t-88.5 58.5t-36 109.5q0 120 113 205q-153 30 -242.5 140t-89.5 312q0 133 41.5 251t117.5 206.5t191 140t254 51.5q197 0 315 -102t118 -315q0 -132 -31 -203h-760v-12q0 -152 60 -216.5t180 -64.5q96 0 158.5 39t101.5 119h231
q-114 -293 -407 -346q-69 -21 -109.5 -60t-40.5 -90q0 -53 40.5 -73.5t104.5 -2.5zM315 610h529q21 125 -35 200t-182 75q-128 0 -205 -75t-107 -200z" />
    <glyph glyph-name="Ecaron" unicode="&#x11a;" horiz-adv-x="1148" 
d="M25 0l229 1434h960l-38 -236h-693l-59 -364h631l-33 -211h-631l-57 -387h710l-36 -236h-983zM430 1839h246l104 -201l166 201h248l-240 -283h-374z" />
    <glyph glyph-name="ecaron" unicode="&#x11b;" horiz-adv-x="1138" 
d="M504 -27q-96 0 -175 25.5t-142 78.5t-98.5 144.5t-35.5 214.5q0 133 41.5 251t117.5 206.5t191 140t254 51.5q197 0 315 -102t118 -315q0 -132 -31 -203h-760v-12q0 -152 60 -216.5t180 -64.5q96 0 158.5 39t101.5 119h231q-69 -178 -205.5 -267.5t-320.5 -89.5zM315 610
h529q21 125 -35 200t-182 75q-128 0 -205 -75t-107 -200zM332 1470h246l104 -200l166 200h248l-240 -282h-375z" />
    <glyph glyph-name="Gcircumflex" unicode="&#x11c;" horiz-adv-x="1454" 
d="M688 -20q-283 0 -435.5 154t-152.5 448q0 177 55 335.5t154 277t247 188t325 69.5q112 0 205.5 -28t164 -82.5t111 -141t41.5 -196.5h-266q-34 215 -275 215q-93 0 -173 -34.5t-136.5 -94t-97.5 -137.5t-60.5 -166t-19.5 -179q0 -191 86.5 -293t251.5 -102
q98 0 176.5 35.5t135.5 116t77 198.5l-301 -6l37 217h565l-21 -117q-60 -346 -230.5 -511.5t-463.5 -165.5zM520 1556l240 283h375l149 -283h-246l-104 201l-166 -201h-248z" />
    <glyph glyph-name="gcircumflex" unicode="&#x11d;" horiz-adv-x="1216" 
d="M434 27q-76 0 -142 23t-121 69.5t-86.5 127t-31.5 187.5q0 176 67 324t192.5 237.5t285.5 89.5q110 0 191.5 -43t119.5 -114l21 137h262l-152 -944l-12 -88q-15 -111 -63.5 -196.5t-110.5 -134.5t-142 -79.5t-149 -40.5t-141 -10q-66 0 -126.5 8.5t-124.5 32.5t-107.5 62
t-65 103t-8.5 150h231q-8 -76 58 -114.5t167 -38.5q125 0 213.5 64.5t106.5 193.5l12 88l13 63q-59 -71 -153 -114t-204 -43zM305 492q0 -122 64.5 -185t169.5 -63q145 0 236 110t91 264q0 123 -66 185.5t-171 62.5q-144 0 -234 -109.5t-90 -264.5zM311 1188l240 282h375
l149 -282h-246l-104 201l-166 -201h-248z" />
    <glyph glyph-name="Gbreve" unicode="&#x11e;" horiz-adv-x="1454" 
d="M688 -20q-283 0 -435.5 154t-152.5 448q0 177 55 335.5t154 277t247 188t325 69.5q112 0 205.5 -28t164 -82.5t111 -141t41.5 -196.5h-266q-34 215 -275 215q-93 0 -173 -34.5t-136.5 -94t-97.5 -137.5t-60.5 -166t-19.5 -179q0 -191 86.5 -293t251.5 -102
q98 0 176.5 35.5t135.5 116t77 198.5l-301 -6l37 217h565l-21 -117q-60 -346 -230.5 -511.5t-463.5 -165.5zM612 1839h174q-9 -149 140 -149q150 0 178 149h174q-23 -140 -116.5 -220.5t-256.5 -80.5q-165 0 -240 81.5t-53 219.5z" />
    <glyph glyph-name="gbreve" unicode="&#x11f;" horiz-adv-x="1216" 
d="M434 27q-76 0 -142 23t-121 69.5t-86.5 127t-31.5 187.5q0 176 67 324t192.5 237.5t285.5 89.5q110 0 191.5 -43t119.5 -114l21 137h262l-152 -944l-12 -88q-15 -111 -63.5 -196.5t-110.5 -134.5t-142 -79.5t-149 -40.5t-141 -10q-66 0 -126.5 8.5t-124.5 32.5t-107.5 62
t-65 103t-8.5 150h231q-8 -76 58 -114.5t167 -38.5q125 0 213.5 64.5t106.5 193.5l12 88l13 63q-59 -71 -153 -114t-204 -43zM305 492q0 -122 64.5 -185t169.5 -63q145 0 236 110t91 264q0 123 -66 185.5t-171 62.5q-144 0 -234 -109.5t-90 -264.5zM403 1470h175
q-9 -149 139 -149q150 0 178 149h174q-23 -140 -116.5 -220.5t-256.5 -80.5q-165 0 -240 81.5t-53 219.5z" />
    <glyph glyph-name="Gdotaccent" unicode="&#x120;" horiz-adv-x="1454" 
d="M688 -20q-283 0 -435.5 154t-152.5 448q0 177 55 335.5t154 277t247 188t325 69.5q112 0 205.5 -28t164 -82.5t111 -141t41.5 -196.5h-266q-34 215 -275 215q-93 0 -173 -34.5t-136.5 -94t-97.5 -137.5t-60.5 -166t-19.5 -179q0 -191 86.5 -293t251.5 -102
q98 0 176.5 35.5t135.5 116t77 198.5l-301 -6l37 217h565l-21 -117q-60 -346 -230.5 -511.5t-463.5 -165.5zM784 1726q0 61 44.5 103.5t105.5 42.5q59 0 103 -42.5t44 -103.5q0 -59 -44 -101t-103 -42q-61 0 -105.5 42t-44.5 101z" />
    <glyph glyph-name="gdotaccent" unicode="&#x121;" horiz-adv-x="1216" 
d="M434 27q-76 0 -142 23t-121 69.5t-86.5 127t-31.5 187.5q0 176 67 324t192.5 237.5t285.5 89.5q110 0 191.5 -43t119.5 -114l21 137h262l-152 -944l-12 -88q-15 -111 -63.5 -196.5t-110.5 -134.5t-142 -79.5t-149 -40.5t-141 -10q-66 0 -126.5 8.5t-124.5 32.5t-107.5 62
t-65 103t-8.5 150h231q-8 -76 58 -114.5t167 -38.5q125 0 213.5 64.5t106.5 193.5l12 88l13 63q-59 -71 -153 -114t-204 -43zM305 492q0 -122 64.5 -185t169.5 -63q145 0 236 110t91 264q0 123 -66 185.5t-171 62.5q-144 0 -234 -109.5t-90 -264.5zM575 1358q0 61 44.5 103
t105.5 42q59 0 103 -42t44 -103q0 -59 -44 -101.5t-103 -42.5q-61 0 -105.5 42.5t-44.5 101.5z" />
    <glyph glyph-name="uni0122" unicode="&#x122;" horiz-adv-x="1454" 
d="M688 -20q-283 0 -435.5 154t-152.5 448q0 177 55 335.5t154 277t247 188t325 69.5q112 0 205.5 -28t164 -82.5t111 -141t41.5 -196.5h-266q-34 215 -275 215q-93 0 -173 -34.5t-136.5 -94t-97.5 -137.5t-60.5 -166t-19.5 -179q0 -191 86.5 -293t251.5 -102
q98 0 176.5 35.5t135.5 116t77 198.5l-301 -6l37 217h565l-21 -117q-60 -346 -230.5 -511.5t-463.5 -165.5zM451 -616l16 110q79 4 117 34t49 93q-81 0 -124.5 41.5t-43.5 106.5q0 71 47 119.5t123 48.5q75 0 121.5 -50.5t46.5 -156.5q0 -68 -21 -129t-61.5 -110t-107 -78
t-150.5 -29h-12z" />
    <glyph glyph-name="uni0123" unicode="&#x123;" horiz-adv-x="1216" 
d="M434 27q-76 0 -142 23t-121 69.5t-86.5 127t-31.5 187.5q0 176 67 324t192.5 237.5t285.5 89.5q110 0 191.5 -43t119.5 -114l21 137h262l-152 -944l-12 -88q-15 -111 -63.5 -196.5t-110.5 -134.5t-142 -79.5t-149 -40.5t-141 -10q-66 0 -126.5 8.5t-124.5 32.5t-107.5 62
t-65 103t-8.5 150h231q-8 -76 58 -114.5t167 -38.5q125 0 213.5 64.5t106.5 193.5l12 88l13 63q-59 -71 -153 -114t-204 -43zM305 492q0 -122 64.5 -185t169.5 -63q145 0 236 110t91 264q0 123 -66 185.5t-171 62.5q-144 0 -234 -109.5t-90 -264.5zM461 1370q0 68 21 129
t61.5 110t107 78t150.5 29h12l-16 -110q-79 -4 -117 -34t-49 -93q81 0 124.5 -41.5t43.5 -106.5q0 -71 -47 -119.5t-123 -48.5q-75 0 -121.5 50.5t-46.5 156.5z" />
    <glyph glyph-name="Hcircumflex" unicode="&#x124;" horiz-adv-x="1376" 
d="M913 0l95 600h-619l-94 -600h-270l229 1434h268l-96 -611h618l97 611h270l-227 -1434h-271zM467 1556l240 283h374l150 -283h-246l-104 201l-166 -201h-248z" />
    <glyph glyph-name="hcircumflex" unicode="&#x125;" 
d="M195 1065l59 369h262l-2 -9l39 45h375l149 -282h-246l-104 201l-166 -201h-84l-20 -123l-35 -219h10q14 38 43 77t74.5 76.5t114.5 61.5t149 24q167 0 253 -104t54 -311l-104 -670h-262l94 608q23 128 -24.5 194t-155.5 66q-105 0 -179.5 -59t-99.5 -174l-100 -635h-264z
" />
    <glyph glyph-name="Hbar" unicode="&#x126;" horiz-adv-x="1380" 
d="M913 0l95 600h-619l-94 -600h-270l229 1434h268l-39 -248h619l39 248h270l-227 -1434h-271zM426 823h618l23 140h-618z" />
    <glyph glyph-name="hbar" unicode="&#x127;" horiz-adv-x="1208" 
d="M88 1212l18 119h132l16 103h262l-16 -103h301l-19 -119h-301l-24 -147l-35 -219h10q14 38 43 77t74.5 76.5t114.5 61.5t149 24q167 0 253 -104t54 -311l-104 -670h-262l94 608q23 128 -24.5 194t-155.5 66q-105 0 -179.5 -59t-99.5 -174l-100 -635h-264l170 1065l24 147
h-131z" />
    <glyph glyph-name="Itilde" unicode="&#x128;" horiz-adv-x="487" 
d="M25 0l229 1434h268l-227 -1434h-270zM68 1636q13 107 74 166.5t155 59.5q52 0 93 -19t62 -41.5t47 -41.5t52 -19q28 0 54 17t30 50h156q-13 -107 -73.5 -166t-154.5 -59q-51 0 -91.5 19t-60.5 41.5t-47 41.5t-55 19q-29 0 -54.5 -17t-29.5 -51h-157z" />
    <glyph glyph-name="itilde" unicode="&#x129;" horiz-adv-x="446" 
d="M6 0l168 1065h262l-168 -1065h-262zM-12 1268q13 107 74 166t155 59q52 0 93 -19t62 -41.5t47 -41.5t52 -19q28 0 54 17.5t30 50.5h156q-13 -107 -73.5 -166.5t-154.5 -59.5q-51 0 -91.5 19t-60.5 41.5t-47 41.5t-55 19q-29 0 -54.5 -16.5t-29.5 -50.5h-157z" />
    <glyph glyph-name="Imacron" unicode="&#x12a;" horiz-adv-x="487" 
d="M25 0l229 1434h268l-227 -1434h-270zM100 1686l23 153h653l-22 -153h-654z" />
    <glyph glyph-name="imacron" unicode="&#x12b;" horiz-adv-x="446" 
d="M6 0l168 1065h262l-168 -1065h-262zM20 1317l23 153h653l-22 -153h-654z" />
    <glyph glyph-name="Iogonek" unicode="&#x12e;" horiz-adv-x="487" 
d="M145 -389q-31 -12 -71.5 -15t-84.5 5t-80.5 27t-60.5 57.5t-24 91.5q0 87 57.5 156t149.5 102l223 1399h268l-227 -1434q-123 0 -196.5 -47t-73.5 -119q0 -53 40.5 -73.5t104.5 -2.5z" />
    <glyph glyph-name="iogonek" unicode="&#x12f;" horiz-adv-x="446" 
d="M358 1214q-60 0 -104.5 42t-44.5 102q0 61 44 103t105 42q59 0 103.5 -42t44.5 -103q0 -59 -44.5 -101.5t-103.5 -42.5zM-201 -223q0 88 59.5 157.5t153.5 104.5l162 1026h262l-168 -1063l2 -2q-123 0 -196.5 -47t-73.5 -119q0 -53 40.5 -73.5t104.5 -2.5l-24 -147
q-40 -15 -93 -15t-105 14.5t-88 58t-36 108.5z" />
    <glyph glyph-name="Idotaccent" unicode="&#x130;" horiz-adv-x="487" 
d="M25 0l229 1434h268l-227 -1434h-270zM289 1726q0 61 44 103.5t105 42.5q59 0 103.5 -42.5t44.5 -103.5q0 -59 -44.5 -101t-103.5 -42q-61 0 -105 42t-44 101z" />
    <glyph glyph-name="dotlessi" unicode="&#x131;" horiz-adv-x="446" 
d="M6 0l168 1065h262l-168 -1065h-262z" />
    <glyph glyph-name="IJ" unicode="&#x132;" horiz-adv-x="1851" 
d="M25 0l229 1434h268l-227 -1434h-270zM598 543h272q-24 -158 48.5 -243t216.5 -85q289 0 344 348l137 871h270l-141 -891q-45 -277 -212.5 -420t-428.5 -143q-130 0 -232.5 35.5t-171.5 104.5t-96.5 177t-5.5 246z" />
    <glyph glyph-name="ij" unicode="&#x133;" horiz-adv-x="968" 
d="M25 0l170 1065h262l-168 -1065h-264zM223 1358q0 61 43.5 103t104.5 42q59 0 103 -42t44 -103q0 -59 -44 -101.5t-103 -42.5q-60 0 -104 42t-44 102zM227 -389l33 205h94q71 0 106 35.5t48 107.5l174 1106h262l-182 -1147q-49 -313 -377 -313q-105 0 -158 6zM711 1358
q0 61 44 103t103 42t103.5 -42t44.5 -103q0 -59 -44.5 -101.5t-103.5 -42.5t-103 42.5t-44 101.5z" />
    <glyph glyph-name="Jcircumflex" unicode="&#x134;" horiz-adv-x="1363" 
d="M616 -20q-130 0 -232.5 35.5t-171 104.5t-96 177t-5.5 246h272q-24 -158 48 -243t216 -85q289 0 344 348l137 871h271l-142 -891q-45 -277 -212.5 -420t-428.5 -143zM883 1556l239 283h375l150 -283h-246l-105 201l-166 -201h-247z" />
    <glyph glyph-name="jcircumflex" unicode="&#x135;" horiz-adv-x="491" 
d="M-76 -395q-104 0 -157 6l32 205h95q71 0 105.5 35t47.5 108l174 1106h262l-182 -1147q-24 -162 -122.5 -237.5t-254.5 -75.5zM-16 1188l239 282h375l150 -282h-246l-105 201l-166 -201h-247z" />
    <glyph glyph-name="uni0136" unicode="&#x136;" horiz-adv-x="1398" 
d="M25 0l229 1434h268l-112 -711l723 711h317l-664 -648l492 -786h-309l-375 598l-242 -236l-57 -362h-270zM397 -616l17 110q79 4 117 34t49 93q-81 0 -124.5 41.5t-43.5 106.5q0 71 47 119.5t123 48.5q75 0 121.5 -50.5t46.5 -156.5q0 -68 -21 -129t-61.5 -110t-107 -78
t-150.5 -29h-13z" />
    <glyph glyph-name="uni0137" unicode="&#x137;" horiz-adv-x="1171" 
d="M25 0l229 1434h262l-135 -846l516 477h285l-506 -455l395 -610h-283l-294 449l-156 -140l-49 -309h-264zM305 -616l17 110q79 4 116.5 33.5t48.5 93.5q-81 0 -124.5 41.5t-43.5 106.5q0 71 47 119.5t123 48.5q75 0 121.5 -50.5t46.5 -156.5q0 -68 -21 -129t-61.5 -110
t-107 -78t-150.5 -29h-12z" />
    <glyph glyph-name="Lacute" unicode="&#x139;" horiz-adv-x="1116" 
d="M25 0l229 1434h268l-188 -1198h680l-39 -236h-950zM279 1559l258 280h227l-256 -280h-229z" />
    <glyph glyph-name="lacute" unicode="&#x13a;" horiz-adv-x="481" 
d="M25 0l229 1434h262l-227 -1434h-264zM266 1559l258 280h228l-256 -280h-230z" />
    <glyph glyph-name="uni013B" unicode="&#x13b;" horiz-adv-x="1116" 
d="M25 0l229 1434h268l-188 -1198h680l-39 -236h-950zM272 -627l17 111q79 4 117 34t49 93q-81 0 -124.5 41t-43.5 106q0 71 47 119.5t123 48.5q75 0 121.5 -50.5t46.5 -156.5q0 -68 -21 -129t-61.5 -110t-107 -78t-150.5 -29h-13z" />
    <glyph glyph-name="uni013C" unicode="&#x13c;" horiz-adv-x="481" 
d="M25 0l229 1434h262l-227 -1434h-264zM-66 -616l17 110q81 4 119 33.5t49 93.5q-81 0 -125.5 41.5t-44.5 106.5q0 71 48 119.5t124 48.5q75 0 121.5 -50.5t46.5 -156.5q0 -69 -21 -129.5t-61 -110t-107.5 -78t-152.5 -28.5h-13z" />
    <glyph glyph-name="Lcaron" unicode="&#x13d;" horiz-adv-x="1116" 
d="M25 0l229 1434h268l-188 -1198h680l-39 -236h-950zM690 899l17 111q79 4 116.5 33.5t48.5 93.5q-81 0 -124 41t-43 106q0 71 46.5 119.5t122.5 48.5q75 0 121.5 -50.5t46.5 -156.5q0 -68 -21 -129t-61.5 -110t-107 -78t-150.5 -29h-12z" />
    <glyph glyph-name="lcaron" unicode="&#x13e;" horiz-adv-x="575" 
d="M492 858l143 576h225l-143 -576h-225zM25 0l229 1434h262l-227 -1434h-264z" />
    <glyph glyph-name="Lslash" unicode="&#x141;" horiz-adv-x="1163" 
d="M-10 287l39 264l153 139l119 744h268l-71 -459l209 188h2l-43 -262l-211 -190l-74 -475h680l-39 -236h-950l67 422z" />
    <glyph glyph-name="lslash" unicode="&#x142;" horiz-adv-x="518" 
d="M-25 315l39 244l144 141l116 734h263l-68 -422l135 133h2l-41 -242l-133 -133l-123 -770h-264l74 459z" />
    <glyph glyph-name="Nacute" unicode="&#x143;" horiz-adv-x="1400" 
d="M25 0l229 1434h283l462 -1000h7l159 1000h271l-228 -1434h-295l-456 985h-8l-154 -985h-270zM727 1559l258 280h227l-256 -280h-229z" />
    <glyph glyph-name="nacute" unicode="&#x144;" 
d="M848 608q23 128 -24.5 194t-155.5 66q-105 0 -179.5 -59t-99.5 -174l-100 -635h-264l170 1065h262l-35 -219h10q14 38 43 77t74.5 76.5t114.5 61.5t149 24q167 0 253 -104t54 -311l-104 -670h-262zM573 1190l258 280h228l-256 -280h-230z" />
    <glyph glyph-name="uni0145" unicode="&#x145;" horiz-adv-x="1400" 
d="M25 0l229 1434h283l462 -1000h7l159 1000h271l-228 -1434h-295l-456 985h-8l-154 -985h-270zM397 -616l17 110q79 4 117 34t49 93q-81 0 -124.5 41.5t-43.5 106.5q0 71 47 119.5t123 48.5q75 0 121.5 -50.5t46.5 -156.5q0 -68 -21 -129t-61.5 -110t-107 -78t-150.5 -29
h-13z" />
    <glyph glyph-name="uni0146" unicode="&#x146;" 
d="M848 608q23 128 -24.5 194t-155.5 66q-105 0 -179.5 -59t-99.5 -174l-100 -635h-264l170 1065h262l-35 -219h10q14 38 43 77t74.5 76.5t114.5 61.5t149 24q167 0 253 -104t54 -311l-104 -670h-262zM301 -616l16 110q79 4 117 34t49 93q-81 0 -124.5 41.5t-43.5 106.5
q0 71 47 119.5t123 48.5q75 0 121.5 -50.5t46.5 -156.5q0 -68 -21 -129t-61.5 -110t-107 -78t-150.5 -29h-12z" />
    <glyph glyph-name="Ncaron" unicode="&#x147;" horiz-adv-x="1400" 
d="M25 0l229 1434h283l462 -1000h7l159 1000h271l-228 -1434h-295l-456 985h-8l-154 -985h-270zM522 1839h246l104 -201l166 201h248l-239 -283h-375z" />
    <glyph glyph-name="ncaron" unicode="&#x148;" 
d="M848 608q23 128 -24.5 194t-155.5 66q-105 0 -179.5 -59t-99.5 -174l-100 -635h-264l170 1065h262l-35 -219h10q14 38 43 77t74.5 76.5t114.5 61.5t149 24q167 0 253 -104t54 -311l-104 -670h-262zM369 1470h245l105 -200l166 200h248l-240 -282h-375z" />
    <glyph glyph-name="Eng" unicode="&#x14a;" horiz-adv-x="1404" 
d="M571 -451q-159 0 -254 56l39 243q106 -63 242 -63q116 0 200 53.5t128 157.5l-469 985h-8l-154 -981h-270l229 1434h274l476 -1000h6l159 1000h271l-209 -1321q-30 -183 -124 -311.5t-230.5 -190.5t-305.5 -62z" />
    <glyph glyph-name="eng" unicode="&#x14b;" 
d="M631 -451q-128 0 -205 39l33 213q79 -26 141 -26q112 0 139 135l15 90l94 608q23 128 -24.5 194t-155.5 66q-105 0 -179.5 -59t-99.5 -174l-100 -635h-264l170 1065h262l-35 -219h10q14 38 43 77t74.5 76.5t114.5 61.5t149 24q167 0 253 -104t54 -311l-104 -670l-21 -131
q-25 -161 -120.5 -240.5t-243.5 -79.5z" />
    <glyph glyph-name="Omacron" unicode="&#x14c;" horiz-adv-x="1497" 
d="M678 -20q-269 0 -423.5 161t-154.5 449q0 137 35 265.5t103 236.5t161 188.5t216 126t262 45.5q270 0 423.5 -160t153.5 -448q0 -172 -55.5 -328.5t-154.5 -275.5t-246 -189.5t-320 -70.5zM375 598q0 -191 84 -288t239 -97q114 0 208 55t152.5 145t90 200t31.5 225
q0 189 -84 285t-238 96q-114 0 -208 -54t-153 -143t-90.5 -198.5t-31.5 -225.5zM606 1686l23 153h653l-22 -153h-654z" />
    <glyph glyph-name="omacron" unicode="&#x14d;" horiz-adv-x="1173" 
d="M504 -20q-94 0 -174 27t-142.5 80.5t-98.5 142.5t-36 204q0 175 76.5 323t219 238t321.5 90q94 0 173.5 -27t142.5 -80.5t98.5 -142.5t35.5 -204q0 -175 -76.5 -323t-218.5 -238t-321 -90zM305 461q0 -133 63.5 -197.5t168.5 -64.5q103 0 180 60t114 150.5t37 194.5
q0 133 -63 197.5t-168 64.5q-103 0 -180.5 -60t-114.5 -151t-37 -194zM385 1317l23 153h653l-23 -153h-653z" />
    <glyph glyph-name="Ohungarumlaut" unicode="&#x150;" horiz-adv-x="1497" 
d="M678 -20q-269 0 -423.5 161t-154.5 449q0 137 35 265.5t103 236.5t161 188.5t216 126t262 45.5q270 0 423.5 -160t153.5 -448q0 -172 -55.5 -328.5t-154.5 -275.5t-246 -189.5t-320 -70.5zM375 598q0 -191 84 -288t239 -97q114 0 208 55t152.5 145t90 200t31.5 225
q0 189 -84 285t-238 96q-114 0 -208 -54t-153 -143t-90.5 -198.5t-31.5 -225.5zM586 1559l258 280h227l-256 -280h-229zM936 1559l258 280h227l-256 -280h-229z" />
    <glyph glyph-name="ohungarumlaut" unicode="&#x151;" horiz-adv-x="1173" 
d="M504 -20q-94 0 -174 27t-142.5 80.5t-98.5 142.5t-36 204q0 175 76.5 323t219 238t321.5 90q94 0 173.5 -27t142.5 -80.5t98.5 -142.5t35.5 -204q0 -175 -76.5 -323t-218.5 -238t-321 -90zM305 461q0 -133 63.5 -197.5t168.5 -64.5q103 0 180 60t114 150.5t37 194.5
q0 133 -63 197.5t-168 64.5q-103 0 -180.5 -60t-114.5 -151t-37 -194zM365 1190l258 280h227l-256 -280h-229zM715 1190l258 280h227l-256 -280h-229z" />
    <glyph glyph-name="OE" unicode="&#x152;" horiz-adv-x="2193" 
d="M678 -20q-269 0 -423.5 161t-154.5 449q0 137 35 265.5t103 236.5t161 188.5t216 126t262 45.5q252 0 403 -139l18 121h961l-39 -236h-692l-60 -364h631l-33 -211h-630l-58 -387h711l-37 -236h-983l16 98q-179 -118 -407 -118zM375 598q0 -191 84 -288t239 -97
q114 0 208 55t152.5 145t90 200t31.5 225q0 189 -84 285t-238 96q-114 0 -208 -54t-153 -143t-90.5 -198.5t-31.5 -225.5z" />
    <glyph glyph-name="oe" unicode="&#x153;" horiz-adv-x="1951" 
d="M504 -20q-94 0 -174 27t-142.5 80.5t-98.5 142.5t-36 204q0 175 76.5 323t219 238t321.5 90q254 0 372 -174q166 174 428 174q197 0 315 -102t118 -315q0 -132 -31 -203h-760v-12q0 -152 60 -216.5t180 -64.5q96 0 158.5 39t101.5 119h231q-69 -178 -205.5 -267.5
t-320.5 -89.5q-270 0 -383 185q-81 -85 -191.5 -131.5t-238.5 -46.5zM305 461q0 -133 63.5 -197.5t168.5 -64.5q103 0 180 60t114 150.5t37 194.5q0 133 -63 197.5t-168 64.5q-103 0 -180.5 -60t-114.5 -151t-37 -194zM1128 610h529q21 125 -35 200t-182 75q-128 0 -205 -75
t-107 -200z" />
    <glyph glyph-name="Racute" unicode="&#x154;" horiz-adv-x="1374" 
d="M915 0q-35 40 -4 231l19 111q13 96 -36 145.5t-146 49.5h-367l-86 -537h-270l229 1434h598q232 0 343.5 -97t111.5 -266q0 -141 -77 -247t-218 -162q125 -39 167.5 -116t24.5 -196l-18 -119q-11 -66 -14.5 -108.5t0.5 -75t18 -47.5h-275zM414 754h317q134 0 210.5 72
t76.5 188q0 184 -217 184h-316zM614 1559l258 280h228l-256 -280h-230z" />
    <glyph glyph-name="racute" unicode="&#x155;" horiz-adv-x="813" 
d="M25 0l170 1065h262l-41 -254h10q46 117 135.5 189.5t216.5 72.5q46 0 82 -10l-37 -221q-46 6 -82 6q-65 0 -123.5 -19t-108 -57t-86 -102t-52.5 -148l-82 -522h-264zM408 1190l258 280h227l-256 -280h-229z" />
    <glyph glyph-name="uni0156" unicode="&#x156;" horiz-adv-x="1374" 
d="M915 0q-35 40 -4 231l19 111q13 96 -36 145.5t-146 49.5h-367l-86 -537h-270l229 1434h598q232 0 343.5 -97t111.5 -266q0 -141 -77 -247t-218 -162q125 -39 167.5 -116t24.5 -196l-18 -119q-11 -66 -14.5 -108.5t0.5 -75t18 -47.5h-275zM283 -616l16 110q79 4 117 34
t49 93q-81 0 -124.5 41.5t-43.5 106.5q0 71 47 119.5t123 48.5q75 0 121.5 -50.5t46.5 -156.5q0 -68 -21 -129t-61.5 -110t-107 -78t-150.5 -29h-12zM414 754h317q134 0 210.5 72t76.5 188q0 184 -217 184h-316z" />
    <glyph glyph-name="uni0157" unicode="&#x157;" horiz-adv-x="813" 
d="M25 0l170 1065h262l-41 -254h10q46 117 135.5 189.5t216.5 72.5q46 0 82 -10l-37 -221q-46 6 -82 6q-65 0 -123.5 -19t-108 -57t-86 -102t-52.5 -148l-82 -522h-264zM-63 -616l16 110q81 4 119 33.5t49 93.5q-81 0 -125.5 41.5t-44.5 106.5q0 71 48 119.5t124 48.5
q75 0 121.5 -50.5t46.5 -156.5q0 -69 -21 -129.5t-61 -110t-107.5 -78t-152.5 -28.5h-12z" />
    <glyph glyph-name="Rcaron" unicode="&#x158;" horiz-adv-x="1374" 
d="M915 0q-35 40 -4 231l19 111q13 96 -36 145.5t-146 49.5h-367l-86 -537h-270l229 1434h598q232 0 343.5 -97t111.5 -266q0 -141 -77 -247t-218 -162q125 -39 167.5 -116t24.5 -196l-18 -119q-11 -66 -14.5 -108.5t0.5 -75t18 -47.5h-275zM410 1839h245l105 -201l166 201
h248l-240 -283h-375zM414 754h317q134 0 210.5 72t76.5 188q0 184 -217 184h-316z" />
    <glyph glyph-name="rcaron" unicode="&#x159;" horiz-adv-x="813" 
d="M25 0l170 1065h262l-41 -254h10q46 117 135.5 189.5t216.5 72.5q46 0 82 -10l-37 -221q-46 6 -82 6q-65 0 -123.5 -19t-108 -57t-86 -102t-52.5 -148l-82 -522h-264zM203 1470h246l104 -200l166 200h248l-240 -282h-375z" />
    <glyph glyph-name="Sacute" unicode="&#x15a;" horiz-adv-x="1312" 
d="M582 -20q-272 0 -410.5 126t-103.5 349h276q-10 -110 58.5 -180t218.5 -70q140 0 223.5 60t83.5 165q0 78 -49 119t-164 65l-170 33q-80 16 -140.5 41.5t-110 66t-75.5 101t-26 139.5q0 139 79.5 244t215 159t307.5 54q160 0 273.5 -48t168 -145t33.5 -231h-277
q15 95 -48 147t-185 52q-127 0 -204 -55.5t-77 -151.5q0 -133 187 -170l159 -31q206 -40 299 -123.5t93 -232.5t-84 -259.5t-227 -167t-324 -56.5zM670 1559l258 280h227l-256 -280h-229z" />
    <glyph glyph-name="sacute" unicode="&#x15b;" horiz-adv-x="1015" 
d="M420 -20q-209 0 -318.5 90.5t-85.5 265.5h236q-1 -81 50 -117.5t144 -36.5q98 0 155.5 36.5t57.5 103.5q0 42 -30 65.5t-99 38.5l-157 37q-137 31 -198.5 98.5t-61.5 171.5q0 164 132 258t339 94q201 0 300 -93t74 -261h-219q3 81 -45.5 116.5t-138.5 35.5
q-89 0 -139.5 -31t-50.5 -88q0 -41 32.5 -67.5t106.5 -45.5l168 -39q61 -15 104 -33.5t81 -48.5t57.5 -75t19.5 -105q0 -117 -70 -202.5t-185 -126.5t-259 -41zM471 1190l258 280h227l-256 -280h-229z" />
    <glyph glyph-name="Scircumflex" unicode="&#x15c;" horiz-adv-x="1312" 
d="M582 -20q-272 0 -410.5 126t-103.5 349h276q-10 -110 58.5 -180t218.5 -70q140 0 223.5 60t83.5 165q0 78 -49 119t-164 65l-170 33q-80 16 -140.5 41.5t-110 66t-75.5 101t-26 139.5q0 139 79.5 244t215 159t307.5 54q160 0 273.5 -48t168 -145t33.5 -231h-277
q15 95 -48 147t-185 52q-127 0 -204 -55.5t-77 -151.5q0 -133 187 -170l159 -31q206 -40 299 -123.5t93 -232.5t-84 -259.5t-227 -167t-324 -56.5zM424 1556l240 283h374l150 -283h-246l-104 201l-166 -201h-248z" />
    <glyph glyph-name="scircumflex" unicode="&#x15d;" horiz-adv-x="1015" 
d="M420 -20q-209 0 -318.5 90.5t-85.5 265.5h236q-1 -81 50 -117.5t144 -36.5q98 0 155.5 36.5t57.5 103.5q0 42 -30 65.5t-99 38.5l-157 37q-137 31 -198.5 98.5t-61.5 171.5q0 164 132 258t339 94q201 0 300 -93t74 -261h-219q3 81 -45.5 116.5t-138.5 35.5
q-89 0 -139.5 -31t-50.5 -88q0 -41 32.5 -67.5t106.5 -45.5l168 -39q61 -15 104 -33.5t81 -48.5t57.5 -75t19.5 -105q0 -117 -70 -202.5t-185 -126.5t-259 -41zM227 1188l240 282h375l149 -282h-246l-104 201l-166 -201h-248z" />
    <glyph glyph-name="Scedilla" unicode="&#x15e;" horiz-adv-x="1312" 
d="M354 -367q66 -3 111 21t45 67q0 44 -41 56t-90 -13l-57 91l139 133q-214 26 -318.5 148.5t-74.5 318.5h276q-10 -110 58.5 -180t218.5 -70q140 0 223.5 60t83.5 165q0 78 -49 119t-164 65l-170 33q-80 16 -140.5 41.5t-110 66t-75.5 101t-26 139.5q0 139 79.5 244
t215 159t307.5 54q160 0 273.5 -48t168 -145t33.5 -231h-277q15 95 -48 147t-185 52q-127 0 -204 -55.5t-77 -151.5q0 -133 187 -170l159 -31q206 -40 299 -123.5t93 -232.5q0 -213 -164 -341.5t-424 -139.5l-107 -93h19q69 0 110 -40t41 -111q0 -116 -104 -177t-258 -61z
" />
    <glyph glyph-name="scedilla" unicode="&#x15f;" horiz-adv-x="1015" 
d="M221 -367q66 -3 111 21t45 67q0 44 -40.5 56t-90.5 -13l-58 91l138 131q-165 19 -248 107.5t-62 242.5h236q-1 -81 50 -117.5t144 -36.5q98 0 155.5 36.5t57.5 103.5q0 42 -30 65.5t-99 38.5l-157 37q-137 31 -198.5 98.5t-61.5 171.5q0 164 132 258t339 94
q201 0 300 -93t74 -261h-219q3 81 -45.5 116.5t-138.5 35.5q-89 0 -139.5 -31t-50.5 -88q0 -41 32.5 -67.5t106.5 -45.5l168 -39q61 -15 104 -33.5t81 -48.5t57.5 -75t19.5 -105q0 -106 -58.5 -187t-155.5 -125t-222 -54l-109 -95h19q69 0 110 -40t41 -111q0 -116 -104 -177
t-258 -61z" />
    <glyph glyph-name="Scaron" unicode="&#x160;" horiz-adv-x="1312" 
d="M582 -20q-272 0 -410.5 126t-103.5 349h276q-10 -110 58.5 -180t218.5 -70q140 0 223.5 60t83.5 165q0 78 -49 119t-164 65l-170 33q-80 16 -140.5 41.5t-110 66t-75.5 101t-26 139.5q0 139 79.5 244t215 159t307.5 54q160 0 273.5 -48t168 -145t33.5 -231h-277
q15 95 -48 147t-185 52q-127 0 -204 -55.5t-77 -151.5q0 -133 187 -170l159 -31q206 -40 299 -123.5t93 -232.5t-84 -259.5t-227 -167t-324 -56.5zM465 1839h246l104 -201l166 201h248l-240 -283h-375z" />
    <glyph glyph-name="scaron" unicode="&#x161;" horiz-adv-x="1015" 
d="M420 -20q-209 0 -318.5 90.5t-85.5 265.5h236q-1 -81 50 -117.5t144 -36.5q98 0 155.5 36.5t57.5 103.5q0 42 -30 65.5t-99 38.5l-157 37q-137 31 -198.5 98.5t-61.5 171.5q0 164 132 258t339 94q201 0 300 -93t74 -261h-219q3 81 -45.5 116.5t-138.5 35.5
q-89 0 -139.5 -31t-50.5 -88q0 -41 32.5 -67.5t106.5 -45.5l168 -39q61 -15 104 -33.5t81 -48.5t57.5 -75t19.5 -105q0 -117 -70 -202.5t-185 -126.5t-259 -41zM266 1470h246l104 -200l166 200h248l-239 -282h-375z" />
    <glyph glyph-name="uni0162" unicode="&#x162;" horiz-adv-x="1218" 
d="M391 0l189 1198h-426l39 236h1120l-37 -236h-426l-191 -1198h-92l-129 -111h19q69 0 110 -40t41 -111q0 -116 -104 -177t-258 -61l24 133q66 -3 111 21t45 67q0 44 -41 56t-90 -13l-57 91z" />
    <glyph glyph-name="uni0163" unicode="&#x163;" horiz-adv-x="747" 
d="M90 862l31 203h180l43 272h262l-43 -272h209l-31 -203h-211l-84 -522q-11 -72 14.5 -107.5t98.5 -35.5h88l-33 -205q-62 -6 -120 -6l-113 -97h18q69 0 110.5 -40t41.5 -111q0 -79 -52 -134t-132 -79.5t-179 -24.5l25 133q66 -3 111 21t45 67q0 44 -40.5 56t-90.5 -13
l-58 91l154 145h6q-201 54 -160 299l88 563h-178z" />
    <glyph glyph-name="Tcaron" unicode="&#x164;" horiz-adv-x="1218" 
d="M391 0l189 1198h-426l39 236h1120l-37 -236h-426l-191 -1198h-268zM430 1839h246l104 -201l166 201h248l-240 -283h-374z" />
    <glyph glyph-name="tcaron" unicode="&#x165;" horiz-adv-x="741" 
d="M461 -14q-156 0 -232 75.5t-49 237.5l88 563h-178l31 203h180l43 272h262l-43 -272h209l-31 -203h-211l-84 -522q-11 -72 14.5 -107.5t98.5 -35.5h88l-33 -205q-53 -6 -153 -6zM631 1184l258 280h227l-256 -280h-229z" />
    <glyph glyph-name="Tbar" unicode="&#x166;" horiz-adv-x="1218" 
d="M231 815l31 180h285l33 203h-426l39 236h1120l-37 -236h-426l-33 -203h289l-31 -180h-287l-129 -815h-268l129 815h-289z" />
    <glyph glyph-name="tbar" unicode="&#x167;" horiz-adv-x="747" 
d="M41 543l31 202h178l18 117h-178l31 203h180l43 272h262l-43 -272h209l-31 -203h-211l-18 -117h211l-31 -202h-213l-33 -203q-11 -72 14.5 -107.5t98.5 -35.5h88l-33 -205q-53 -6 -153 -6q-156 0 -232 75.5t-49 237.5l39 244h-178z" />
    <glyph glyph-name="Utilde" unicode="&#x168;" horiz-adv-x="1378" 
d="M608 -20q-269 0 -404.5 144.5t-92.5 418.5l143 891h270l-139 -871q-26 -169 45.5 -258.5t220.5 -89.5q145 0 233.5 88t116.5 260l138 871h272l-141 -891q-45 -275 -221 -419t-441 -144zM506 1636q13 107 74 166.5t155 59.5q52 0 93 -19t62 -41.5t47 -41.5t52 -19
q28 0 54 17t30 50h156q-13 -107 -73.5 -166t-154.5 -59q-51 0 -91 19t-60.5 41.5t-47 41.5t-54.5 19q-29 0 -54.5 -17t-29.5 -51h-158z" />
    <glyph glyph-name="utilde" unicode="&#x169;" 
d="M362 457q-23 -128 25 -194t156 -66q105 0 179 59t99 174l101 635h264l-170 -1065h-262l34 219h-10q-14 -38 -43 -77t-74.5 -76.5t-114.5 -61.5t-149 -24q-167 0 -253 104t-54 311l105 670h262zM375 1268q13 107 74 166t155 59q52 0 93 -19t62 -41.5t47 -41.5t52 -19
q28 0 54 17.5t30 50.5h156q-13 -107 -73.5 -166.5t-154.5 -59.5q-51 0 -91.5 19t-60.5 41.5t-47 41.5t-55 19q-29 0 -54.5 -16.5t-29.5 -50.5h-157z" />
    <glyph glyph-name="Umacron" unicode="&#x16a;" horiz-adv-x="1378" 
d="M608 -20q-269 0 -404.5 144.5t-92.5 418.5l143 891h270l-139 -871q-26 -169 45.5 -258.5t220.5 -89.5q145 0 233.5 88t116.5 260l138 871h272l-141 -891q-45 -275 -221 -419t-441 -144zM528 1686l23 153h653l-22 -153h-654z" />
    <glyph glyph-name="umacron" unicode="&#x16b;" 
d="M362 457q-23 -128 25 -194t156 -66q105 0 179 59t99 174l101 635h264l-170 -1065h-262l34 219h-10q-14 -38 -43 -77t-74.5 -76.5t-114.5 -61.5t-149 -24q-167 0 -253 104t-54 311l105 670h262zM397 1317l23 153h653l-22 -153h-654z" />
    <glyph glyph-name="Ubreve" unicode="&#x16c;" horiz-adv-x="1378" 
d="M608 -20q-269 0 -404.5 144.5t-92.5 418.5l143 891h270l-139 -871q-26 -169 45.5 -258.5t220.5 -89.5q145 0 233.5 88t116.5 260l138 871h272l-141 -891q-45 -275 -221 -419t-441 -144zM545 1839h174q-9 -149 139 -149q150 0 178 149h174q-23 -141 -116 -221t-256 -80
q-165 0 -240 81.5t-53 219.5z" />
    <glyph glyph-name="ubreve" unicode="&#x16d;" 
d="M362 457q-23 -128 25 -194t156 -66q105 0 179 59t99 174l101 635h264l-170 -1065h-262l34 219h-10q-14 -38 -43 -77t-74.5 -76.5t-114.5 -61.5t-149 -24q-167 0 -253 104t-54 311l105 670h262zM414 1470h174q-9 -149 139 -149q150 0 178 149h174q-23 -141 -116 -221
t-256 -80q-165 0 -240 81.5t-53 219.5z" />
    <glyph glyph-name="Uring" unicode="&#x16e;" horiz-adv-x="1378" 
d="M608 -20q-269 0 -404.5 144.5t-92.5 418.5l143 891h270l-139 -871q-26 -169 45.5 -258.5t220.5 -89.5q145 0 233.5 88t116.5 260l138 871h272l-141 -891q-45 -275 -221 -419t-441 -144zM655 1716q0 82 58.5 139.5t144.5 57.5q87 0 145 -57t58 -140q0 -84 -58 -140
t-145 -56q-86 0 -144.5 56.5t-58.5 139.5zM780 1716q0 -35 22.5 -57.5t55.5 -22.5q34 0 57 22.5t23 57.5q0 34 -23 56t-57 22q-33 0 -55.5 -22.5t-22.5 -55.5z" />
    <glyph glyph-name="uring" unicode="&#x16f;" 
d="M362 457q-23 -128 25 -194t156 -66q105 0 179 59t99 174l101 635h264l-170 -1065h-262l34 219h-10q-14 -38 -43 -77t-74.5 -76.5t-114.5 -61.5t-149 -24q-167 0 -253 104t-54 311l105 670h262zM524 1348q0 82 58.5 139t144.5 57q87 0 145 -57t58 -139q0 -84 -58 -140.5
t-145 -56.5q-86 0 -144.5 57t-58.5 140zM649 1348q0 -35 22.5 -57.5t55.5 -22.5q34 0 57 22.5t23 57.5q0 33 -23 55t-57 22q-33 0 -55.5 -22t-22.5 -55z" />
    <glyph glyph-name="Uhungarumlaut" unicode="&#x170;" horiz-adv-x="1378" 
d="M608 -20q-269 0 -404.5 144.5t-92.5 418.5l143 891h270l-139 -871q-26 -169 45.5 -258.5t220.5 -89.5q145 0 233.5 88t116.5 260l138 871h272l-141 -891q-45 -275 -221 -419t-441 -144zM508 1559l258 280h227l-256 -280h-229zM858 1559l258 280h227l-256 -280h-229z" />
    <glyph glyph-name="uhungarumlaut" unicode="&#x171;" 
d="M362 457q-23 -128 25 -194t156 -66q105 0 179 59t99 174l101 635h264l-170 -1065h-262l34 219h-10q-14 -38 -43 -77t-74.5 -76.5t-114.5 -61.5t-149 -24q-167 0 -253 104t-54 311l105 670h262zM377 1190l258 280h227l-256 -280h-229zM727 1190l258 280h227l-256 -280
h-229z" />
    <glyph glyph-name="Uogonek" unicode="&#x172;" horiz-adv-x="1378" 
d="M698 -389q-31 -12 -71.5 -15t-84.5 5t-80.5 27t-60.5 57.5t-24 91.5q0 126 117 211q-216 30 -319 171t-64 384l143 891h270l-139 -871q-26 -169 45.5 -258.5t220.5 -89.5q145 0 233.5 88t116.5 260l138 871h272l-141 -891q-39 -236 -176 -376t-346 -175q-79 -17 -126 -60
t-47 -98q0 -53 41.5 -73.5t104.5 -2.5z" />
    <glyph glyph-name="uogonek" unicode="&#x173;" 
d="M362 457q-23 -128 25 -194t156 -66q105 0 179 59t99 174l101 635h264l-170 -1063l2 -2q-123 0 -196.5 -47t-73.5 -119q0 -53 40.5 -73.5t104.5 -2.5l-25 -147q-31 -12 -71.5 -15t-84.5 5t-80.5 27t-60.5 57.5t-24 91.5q0 88 59.5 157.5t153.5 104.5l28 180h-10
q-14 -38 -43 -77t-74.5 -76.5t-114.5 -61.5t-149 -24q-167 0 -253 104t-54 311l105 670h262z" />
    <glyph glyph-name="Wcircumflex" unicode="&#x174;" horiz-adv-x="2052" 
d="M340 0l-147 1434h274l84 -1055h12l465 1055h279l133 -1055h12l418 1055h278l-602 -1434h-282l-150 1094l-491 -1094h-283zM807 1556l240 283h374l150 -283h-246l-104 201l-166 -201h-248z" />
    <glyph glyph-name="wcircumflex" unicode="&#x175;" horiz-adv-x="1677" 
d="M244 0l-123 1065h248l71 -809h9l356 809h229l107 -809h8l326 809h247l-450 -1065h-301l-103 717l-321 -717h-303zM559 1188l240 282h375l149 -282h-246l-104 201l-166 -201h-248z" />
    <glyph glyph-name="Ycircumflex" unicode="&#x176;" horiz-adv-x="1413" 
d="M485 0l84 537l-376 897h305l250 -637l452 637h309l-663 -897l-84 -537h-277zM487 1556l240 283h375l149 -283h-245l-105 201l-166 -201h-248z" />
    <glyph glyph-name="ycircumflex" unicode="&#x177;" horiz-adv-x="1161" 
d="M33 -182q54 -9 99.5 -3t76 15t56.5 28.5t41 37t30 41.5q25 41 30.5 73.5t-4.5 73.5l-241 981h268l156 -739l391 739h272l-614 -1094q-130 -232 -261 -316t-333 -61zM301 1188l240 282h374l150 -282h-246l-104 201l-166 -201h-248z" />
    <glyph glyph-name="Ydieresis" unicode="&#x178;" horiz-adv-x="1413" 
d="M485 0l84 537l-376 897h305l250 -637l452 637h309l-663 -897l-84 -537h-277zM516 1726q0 61 44.5 103.5t105.5 42.5q59 0 103 -42.5t44 -103.5q0 -59 -44 -101t-103 -42q-61 0 -105.5 42t-44.5 101zM977 1726q0 61 44 103.5t103 42.5q61 0 104.5 -42.5t43.5 -103.5
q0 -60 -44 -101.5t-104 -41.5q-59 0 -103 42t-44 101z" />
    <glyph glyph-name="Zacute" unicode="&#x179;" horiz-adv-x="1265" 
d="M-2 0l39 236l944 962h-772l39 236h1071l-37 -236l-948 -962h805l-39 -236h-1102zM678 1559l258 280h227l-256 -280h-229z" />
    <glyph glyph-name="zacute" unicode="&#x17a;" horiz-adv-x="1036" 
d="M-2 0l35 221l661 623h-542l34 221h852l-34 -221l-662 -623h565l-37 -221h-872zM475 1190l258 280h228l-256 -280h-230z" />
    <glyph glyph-name="Zdotaccent" unicode="&#x17b;" horiz-adv-x="1265" 
d="M-2 0l39 236l944 962h-772l39 236h1071l-37 -236l-948 -962h805l-39 -236h-1102zM696 1726q0 61 44.5 103.5t105.5 42.5q59 0 103 -42.5t44 -103.5q0 -59 -44 -101t-103 -42q-61 0 -105.5 42t-44.5 101z" />
    <glyph glyph-name="zdotaccent" unicode="&#x17c;" horiz-adv-x="1036" 
d="M-2 0l35 221l661 623h-542l34 221h852l-34 -221l-662 -623h565l-37 -221h-872zM494 1358q0 61 44 103t105 42q59 0 103.5 -42t44.5 -103q0 -59 -44.5 -101.5t-103.5 -42.5q-60 0 -104.5 42t-44.5 102z" />
    <glyph glyph-name="Zcaron" unicode="&#x17d;" horiz-adv-x="1265" 
d="M-2 0l39 236l944 962h-772l39 236h1071l-37 -236l-948 -962h805l-39 -236h-1102zM473 1839h246l104 -201l166 201h248l-240 -283h-374z" />
    <glyph glyph-name="zcaron" unicode="&#x17e;" horiz-adv-x="1036" 
d="M-2 0l35 221l661 623h-542l34 221h852l-34 -221l-662 -623h565l-37 -221h-872zM270 1470h246l105 -200l165 200h248l-239 -282h-375z" />
    <glyph glyph-name="uni018F" unicode="&#x18f;" horiz-adv-x="1443" 
d="M623 -20q-139 0 -246.5 42.5t-179.5 127.5t-97.5 213.5t0.5 300.5l19 110h1003q2 20 2 60q0 190 -75 287.5t-238 97.5q-259 0 -356 -215h-267q70 221 243.5 334.5t404.5 113.5q265 0 416 -151.5t151 -438.5q0 -136 -31.5 -264.5t-96.5 -240.5t-156.5 -196t-219 -132.5
t-276.5 -48.5zM354 557q-14 -92 4.5 -160.5t63.5 -107.5t102.5 -57.5t128.5 -18.5q162 0 270 94t158 250h-727z" />
    <glyph glyph-name="florin" unicode="&#x192;" horiz-adv-x="634" 
d="M-72 -164q81 0 120 50t54 149l95 608h-146l35 225h145l31 195q29 184 135.5 275.5t327.5 91.5l-35 -226q-76 0 -116 -49t-58 -149l-22 -138h141l-35 -225h-141l-107 -666q-31 -195 -137 -280.5t-321 -85.5z" />
    <glyph glyph-name="Ohorn" unicode="&#x1a0;" horiz-adv-x="1497" 
d="M678 -20q-269 0 -423.5 161t-154.5 449q0 137 35 265.5t103 236.5t161 188.5t216 126t262 45.5h2h471l26 162h223l-57 -363h-207q119 -153 119 -407q0 -172 -55.5 -328.5t-154.5 -275.5t-246 -189.5t-320 -70.5zM375 598q0 -191 84 -288t239 -97q114 0 208 55t152.5 145
t90 200t31.5 225q0 189 -84 285t-238 96q-114 0 -208 -54t-153 -143t-90.5 -198.5t-31.5 -225.5z" />
    <glyph glyph-name="ohorn" unicode="&#x1a1;" horiz-adv-x="1173" 
d="M504 -20q-94 0 -174 27t-142.5 80.5t-98.5 142.5t-36 204q0 175 76.5 323t219 238t321.5 90h346l24 160h209l-57 -360h-131q59 -108 59 -254q0 -175 -76.5 -323t-218.5 -238t-321 -90zM305 461q0 -133 63.5 -197.5t168.5 -64.5q103 0 180 60t114 150.5t37 194.5
q0 133 -63 197.5t-168 64.5q-103 0 -180.5 -60t-114.5 -151t-37 -194z" />
    <glyph glyph-name="Uhorn" unicode="&#x1af;" horiz-adv-x="1378" 
d="M608 -20q-269 0 -404.5 144.5t-92.5 418.5l143 891h270l-139 -871q-26 -169 45.5 -258.5t220.5 -89.5q145 0 233.5 88t116.5 260l138 871h276l31 180h221l-29 -180l-32 -203h-228l-108 -688q-45 -275 -221 -419t-441 -144z" />
    <glyph glyph-name="uhorn" unicode="&#x1b0;" 
d="M362 457q-23 -128 25 -194t156 -66q105 0 179 59t99 174l101 635h264l-170 -1065h-262l34 219h-10q-14 -38 -43 -77t-74.5 -76.5t-114.5 -61.5t-149 -24q-167 0 -253 104t-54 311l105 670h262zM1257 862l33 203h275l30 180h222l-29 -180l-33 -203h-498z" />
    <glyph glyph-name="uni01CD" unicode="&#x1cd;" horiz-adv-x="1472" 
d="M-47 0l756 1434h344l299 -1434h-279l-57 293h-625l-149 -293h-289zM494 494h483l-129 663h-17zM561 1839h246l104 -201l166 201h248l-240 -283h-374z" />
    <glyph glyph-name="uni01CE" unicode="&#x1ce;" horiz-adv-x="1128" 
d="M311 -20q-63 0 -114 13.5t-93 42.5t-65 80t-23 120q0 291 418 354l205 28q78 10 109.5 28.5t39.5 55.5l7 29q15 84 -27 124t-141 40q-197 0 -228 -154l-4 -22l-248 -2l9 47q48 321 501 321q233 0 328 -85t66 -263l-117 -737h-250l31 190h-13q-12 -22 -29.5 -45t-52 -54
t-75.5 -54.5t-103 -40t-131 -16.5zM283 285q0 -55 38 -85t113 -30q116 0 202 63.5t97 135.5l25 137q-4 -5 -9.5 -9t-10 -7.5t-12.5 -7t-13 -5.5t-15 -4.5t-15 -4t-17.5 -3.5t-17.5 -3t-20 -3.5t-20 -3.5l-157 -23q-78 -11 -123 -48t-45 -99zM332 1470h246l104 -200l166 200
h248l-240 -282h-375z" />
    <glyph glyph-name="uni01CF" unicode="&#x1cf;" horiz-adv-x="487" 
d="M25 0l229 1434h268l-227 -1434h-270zM63 1839h246l105 -201l166 201h247l-239 -283h-375z" />
    <glyph glyph-name="uni01D0" unicode="&#x1d0;" horiz-adv-x="446" 
d="M6 0l168 1065h262l-168 -1065h-262zM-16 1470h245l105 -200l166 200h248l-240 -282h-375z" />
    <glyph glyph-name="uni01D1" unicode="&#x1d1;" horiz-adv-x="1497" 
d="M678 -20q-269 0 -423.5 161t-154.5 449q0 137 35 265.5t103 236.5t161 188.5t216 126t262 45.5q270 0 423.5 -160t153.5 -448q0 -172 -55.5 -328.5t-154.5 -275.5t-246 -189.5t-320 -70.5zM375 598q0 -191 84 -288t239 -97q114 0 208 55t152.5 145t90 200t31.5 225
q0 189 -84 285t-238 96q-114 0 -208 -54t-153 -143t-90.5 -198.5t-31.5 -225.5zM569 1839h246l105 -201l165 201h248l-239 -283h-375z" />
    <glyph glyph-name="uni01D2" unicode="&#x1d2;" horiz-adv-x="1173" 
d="M504 -20q-94 0 -174 27t-142.5 80.5t-98.5 142.5t-36 204q0 175 76.5 323t219 238t321.5 90q94 0 173.5 -27t142.5 -80.5t98.5 -142.5t35.5 -204q0 -175 -76.5 -323t-218.5 -238t-321 -90zM305 461q0 -133 63.5 -197.5t168.5 -64.5q103 0 180 60t114 150.5t37 194.5
q0 133 -63 197.5t-168 64.5q-103 0 -180.5 -60t-114.5 -151t-37 -194zM350 1470h246l104 -200l166 200h248l-240 -282h-374z" />
    <glyph glyph-name="uni01D3" unicode="&#x1d3;" horiz-adv-x="1378" 
d="M608 -20q-269 0 -404.5 144.5t-92.5 418.5l143 891h270l-139 -871q-26 -169 45.5 -258.5t220.5 -89.5q145 0 233.5 88t116.5 260l138 871h272l-141 -891q-45 -275 -221 -419t-441 -144zM494 1839h245l105 -201l166 201h247l-239 -283h-375z" />
    <glyph glyph-name="uni01D4" unicode="&#x1d4;" 
d="M362 457q-23 -128 25 -194t156 -66q105 0 179 59t99 174l101 635h264l-170 -1065h-262l34 219h-10q-14 -38 -43 -77t-74.5 -76.5t-114.5 -61.5t-149 -24q-167 0 -253 104t-54 311l105 670h262zM362 1470h246l105 -200l166 200h247l-239 -282h-375z" />
    <glyph glyph-name="uni01D5" unicode="&#x1d5;" horiz-adv-x="1378" 
d="M608 -20q-269 0 -404.5 144.5t-92.5 418.5l143 891h270l-139 -871q-26 -169 45.5 -258.5t220.5 -89.5q145 0 233.5 88t116.5 260l138 871h272l-141 -891q-45 -275 -221 -419t-441 -144zM483 1726q0 61 44.5 103.5t105.5 42.5q59 0 103 -42.5t44 -103.5q0 -59 -44 -101
t-103 -42q-61 0 -105.5 42t-44.5 101zM571 2062l23 154h653l-22 -154h-654zM944 1726q0 61 44.5 103.5t103.5 42.5q60 0 103.5 -42.5t43.5 -103.5q0 -60 -43.5 -101.5t-103.5 -41.5q-59 0 -103.5 42t-44.5 101z" />
    <glyph glyph-name="uni01D6" unicode="&#x1d6;" 
d="M362 457q-23 -128 25 -194t156 -66q105 0 179 59t99 174l101 635h264l-170 -1065h-262l34 219h-10q-14 -38 -43 -77t-74.5 -76.5t-114.5 -61.5t-149 -24q-167 0 -253 104t-54 311l105 670h262zM352 1358q0 61 44.5 103t105.5 42q59 0 103 -42t44 -103q0 -59 -44 -101.5
t-103 -42.5q-61 0 -105.5 42.5t-44.5 101.5zM442 1694l23 153h653l-22 -153h-654zM813 1358q0 61 44.5 103t103.5 42q61 0 104 -42t43 -103q0 -60 -43.5 -102t-103.5 -42q-59 0 -103.5 42.5t-44.5 101.5z" />
    <glyph glyph-name="uni01D7" unicode="&#x1d7;" horiz-adv-x="1378" 
d="M608 -20q-269 0 -404.5 144.5t-92.5 418.5l143 891h270l-139 -871q-26 -169 45.5 -258.5t220.5 -89.5q145 0 233.5 88t116.5 260l138 871h272l-141 -891q-45 -275 -221 -419t-441 -144zM483 1726q0 61 44.5 103.5t105.5 42.5q59 0 103 -42.5t44 -103.5q0 -59 -44 -101
t-103 -42q-61 0 -105.5 42t-44.5 101zM758 1935l258 281h227l-256 -281h-229zM944 1726q0 61 44.5 103.5t103.5 42.5q60 0 103.5 -42.5t43.5 -103.5q0 -60 -43.5 -101.5t-103.5 -41.5q-59 0 -103.5 42t-44.5 101z" />
    <glyph glyph-name="uni01D8" unicode="&#x1d8;" 
d="M362 457q-23 -128 25 -194t156 -66q105 0 179 59t99 174l101 635h264l-170 -1065h-262l34 219h-10q-14 -38 -43 -77t-74.5 -76.5t-114.5 -61.5t-149 -24q-167 0 -253 104t-54 311l105 670h262zM352 1358q0 61 44.5 103t105.5 42q59 0 103 -42t44 -103q0 -59 -44 -101.5
t-103 -42.5q-61 0 -105.5 42.5t-44.5 101.5zM629 1567l258 280h227l-256 -280h-229zM813 1358q0 61 44.5 103t103.5 42q61 0 104 -42t43 -103q0 -60 -43.5 -102t-103.5 -42q-59 0 -103.5 42.5t-44.5 101.5z" />
    <glyph glyph-name="uni01D9" unicode="&#x1d9;" horiz-adv-x="1378" 
d="M608 -20q-269 0 -404.5 144.5t-92.5 418.5l143 891h270l-139 -871q-26 -169 45.5 -258.5t220.5 -89.5q145 0 233.5 88t116.5 260l138 871h272l-141 -891q-45 -275 -221 -419t-441 -144zM483 1726q0 61 44.5 103.5t105.5 42.5q59 0 103 -42.5t44 -103.5q0 -59 -44 -101
t-103 -42q-61 0 -105.5 42t-44.5 101zM541 2216h245l105 -201l166 201h248l-240 -283h-375zM944 1726q0 61 44.5 103.5t103.5 42.5q60 0 103.5 -42.5t43.5 -103.5q0 -60 -43.5 -101.5t-103.5 -41.5q-59 0 -103.5 42t-44.5 101z" />
    <glyph glyph-name="uni01DA" unicode="&#x1da;" 
d="M362 457q-23 -128 25 -194t156 -66q105 0 179 59t99 174l101 635h264l-170 -1065h-262l34 219h-10q-14 -38 -43 -77t-74.5 -76.5t-114.5 -61.5t-149 -24q-167 0 -253 104t-54 311l105 670h262zM352 1358q0 61 44.5 103t105.5 42q59 0 103 -42t44 -103q0 -59 -44 -101.5
t-103 -42.5q-61 0 -105.5 42.5t-44.5 101.5zM410 1847h245l105 -200l166 200h248l-240 -282h-375zM813 1358q0 61 44.5 103t103.5 42q61 0 104 -42t43 -103q0 -60 -43.5 -102t-103.5 -42q-59 0 -103.5 42.5t-44.5 101.5z" />
    <glyph glyph-name="uni01DB" unicode="&#x1db;" horiz-adv-x="1378" 
d="M608 -20q-269 0 -404.5 144.5t-92.5 418.5l143 891h270l-139 -871q-26 -169 45.5 -258.5t220.5 -89.5q145 0 233.5 88t116.5 260l138 871h272l-141 -891q-45 -275 -221 -419t-441 -144zM483 1726q0 61 44.5 103.5t105.5 42.5q59 0 103 -42.5t44 -103.5q0 -59 -44 -101
t-103 -42q-61 0 -105.5 42t-44.5 101zM590 2216h227l170 -281h-227zM944 1726q0 61 44.5 103.5t103.5 42.5q60 0 103.5 -42.5t43.5 -103.5q0 -60 -43.5 -101.5t-103.5 -41.5q-59 0 -103.5 42t-44.5 101z" />
    <glyph glyph-name="uni01DC" unicode="&#x1dc;" 
d="M362 457q-23 -128 25 -194t156 -66q105 0 179 59t99 174l101 635h264l-170 -1065h-262l34 219h-10q-14 -38 -43 -77t-74.5 -76.5t-114.5 -61.5t-149 -24q-167 0 -253 104t-54 311l105 670h262zM352 1358q0 61 44.5 103t105.5 42q59 0 103 -42t44 -103q0 -59 -44 -101.5
t-103 -42.5q-61 0 -105.5 42.5t-44.5 101.5zM461 1847h227l170 -280h-227zM813 1358q0 61 44.5 103t103.5 42q61 0 104 -42t43 -103q0 -60 -43.5 -102t-103.5 -42q-59 0 -103.5 42.5t-44.5 101.5z" />
    <glyph glyph-name="Gcaron" unicode="&#x1e6;" horiz-adv-x="1454" 
d="M688 -20q-283 0 -435.5 154t-152.5 448q0 177 55 335.5t154 277t247 188t325 69.5q112 0 205.5 -28t164 -82.5t111 -141t41.5 -196.5h-266q-34 215 -275 215q-93 0 -173 -34.5t-136.5 -94t-97.5 -137.5t-60.5 -166t-19.5 -179q0 -191 86.5 -293t251.5 -102
q98 0 176.5 35.5t135.5 116t77 198.5l-301 -6l37 217h565l-21 -117q-60 -346 -230.5 -511.5t-463.5 -165.5zM563 1839h246l104 -201l166 201h248l-240 -283h-374z" />
    <glyph glyph-name="gcaron" unicode="&#x1e7;" horiz-adv-x="1216" 
d="M434 27q-76 0 -142 23t-121 69.5t-86.5 127t-31.5 187.5q0 176 67 324t192.5 237.5t285.5 89.5q110 0 191.5 -43t119.5 -114l21 137h262l-152 -944l-12 -88q-15 -111 -63.5 -196.5t-110.5 -134.5t-142 -79.5t-149 -40.5t-141 -10q-66 0 -126.5 8.5t-124.5 32.5t-107.5 62
t-65 103t-8.5 150h231q-8 -76 58 -114.5t167 -38.5q125 0 213.5 64.5t106.5 193.5l12 88l13 63q-59 -71 -153 -114t-204 -43zM305 492q0 -122 64.5 -185t169.5 -63q145 0 236 110t91 264q0 123 -66 185.5t-171 62.5q-144 0 -234 -109.5t-90 -264.5zM354 1470h246l105 -200
l165 200h248l-239 -282h-375z" />
    <glyph glyph-name="uni01E8" unicode="&#x1e8;" horiz-adv-x="1398" 
d="M25 0l229 1434h268l-112 -711l723 711h317l-664 -648l492 -786h-309l-375 598l-242 -236l-57 -362h-270zM526 1839h246l105 -201l165 201h248l-239 -283h-375z" />
    <glyph glyph-name="uni01E9" unicode="&#x1e9;" horiz-adv-x="1171" 
d="M25 0l229 1434h262l-135 -846l516 477h285l-506 -455l395 -610h-283l-294 449l-156 -140l-49 -309h-264zM55 1839h246l105 -201l165 201h248l-239 -283h-375z" />
    <glyph glyph-name="uni01EA" unicode="&#x1ea;" horiz-adv-x="1497" 
d="M762 -389q-31 -12 -72 -15t-85.5 5t-81.5 27t-61 57.5t-24 91.5q0 127 119 211q-216 36 -336.5 192t-120.5 410q0 137 35 265.5t103 236.5t161 188.5t216 126t262 45.5q270 0 423.5 -160t153.5 -448q0 -154 -45 -297t-126.5 -257t-202.5 -193t-265 -105q-80 -15 -128 -58
t-48 -100q0 -53 41 -73.5t104 -2.5zM375 598q0 -191 84 -288t239 -97q114 0 208 55t152.5 145t90 200t31.5 225q0 189 -84 285t-238 96q-114 0 -208 -54t-153 -143t-90.5 -198.5t-31.5 -225.5z" />
    <glyph glyph-name="uni01EB" unicode="&#x1eb;" horiz-adv-x="1173" 
d="M573 -389q-31 -12 -72 -15t-85 5t-81 27t-61 57.5t-24 91.5q0 64 34 121t93 96q-147 33 -235.5 143.5t-88.5 296.5q0 175 76.5 323t219 238t321.5 90q94 0 173.5 -27t142.5 -80.5t98.5 -142.5t35.5 -204q0 -237 -138.5 -418.5t-360.5 -222.5q-78 -17 -124 -59t-46 -97
q0 -53 40.5 -73.5t104.5 -2.5zM305 461q0 -133 63.5 -197.5t168.5 -64.5q103 0 180 60t114 150.5t37 194.5q0 133 -63 197.5t-168 64.5q-103 0 -180.5 -60t-114.5 -151t-37 -194z" />
    <glyph glyph-name="uni0218" unicode="&#x218;" horiz-adv-x="1312" 
d="M582 -20q-272 0 -410.5 126t-103.5 349h276q-10 -110 58.5 -180t218.5 -70q140 0 223.5 60t83.5 165q0 78 -49 119t-164 65l-170 33q-80 16 -140.5 41.5t-110 66t-75.5 101t-26 139.5q0 139 79.5 244t215 159t307.5 54q160 0 273.5 -48t168 -145t33.5 -231h-277
q15 95 -48 147t-185 52q-127 0 -204 -55.5t-77 -151.5q0 -133 187 -170l159 -31q206 -40 299 -123.5t93 -232.5t-84 -259.5t-227 -167t-324 -56.5zM336 -616l16 110q79 4 117 34t49 93q-81 0 -124.5 41.5t-43.5 106.5q0 71 47 119.5t123 48.5q75 0 121.5 -50.5t46.5 -156.5
q0 -68 -21 -129t-61.5 -110t-107 -78t-150.5 -29h-12z" />
    <glyph glyph-name="uni0219" unicode="&#x219;" horiz-adv-x="1015" 
d="M420 -20q-209 0 -318.5 90.5t-85.5 265.5h236q-1 -81 50 -117.5t144 -36.5q98 0 155.5 36.5t57.5 103.5q0 42 -30 65.5t-99 38.5l-157 37q-137 31 -198.5 98.5t-61.5 171.5q0 164 132 258t339 94q201 0 300 -93t74 -261h-219q3 81 -45.5 116.5t-138.5 35.5
q-89 0 -139.5 -31t-50.5 -88q0 -41 32.5 -67.5t106.5 -45.5l168 -39q61 -15 104 -33.5t81 -48.5t57.5 -75t19.5 -105q0 -117 -70 -202.5t-185 -126.5t-259 -41zM236 -637l16 111q79 4 117 34t49 93q-81 0 -124.5 41t-43.5 106q0 71 47 119.5t123 48.5q75 0 121.5 -50.5
t46.5 -156.5q0 -68 -21 -129t-61.5 -110t-107 -78t-150.5 -29h-12z" />
    <glyph glyph-name="uni021A" unicode="&#x21a;" horiz-adv-x="1218" 
d="M391 0l189 1198h-426l39 236h1120l-37 -236h-426l-191 -1198h-268zM252 -616l16 110q79 4 117 34t49 93q-81 0 -124.5 41.5t-43.5 106.5q0 71 47 119.5t123 48.5q75 0 121.5 -50.5t46.5 -156.5q0 -68 -21 -129t-61.5 -110t-107 -78t-150.5 -29h-12z" />
    <glyph glyph-name="uni021B" unicode="&#x21b;" horiz-adv-x="747" 
d="M461 -14q-156 0 -232 75.5t-49 237.5l88 563h-178l31 203h180l43 272h262l-43 -272h209l-31 -203h-211l-84 -522q-11 -72 14.5 -107.5t98.5 -35.5h88l-33 -205q-53 -6 -153 -6zM195 -616l16 110q79 4 117 34t49 93q-81 0 -124.5 41.5t-43.5 106.5q0 71 47 119.5t123 48.5
q75 0 121.5 -50.5t46.5 -156.5q0 -68 -21 -129t-61.5 -110t-107 -78t-150.5 -29h-12z" />
    <glyph glyph-name="uni0237" unicode="&#x237;" horiz-adv-x="491" 
d="M-76 -395q-104 0 -157 6l32 205h95q71 0 105.5 35t47.5 108l174 1106h262l-182 -1147q-24 -162 -122.5 -237.5t-254.5 -75.5z" />
    <glyph glyph-name="uni0259" unicode="&#x259;" horiz-adv-x="1138" 
d="M479 -27q-94 0 -171 24t-136 72.5t-92 130.5t-33 191q0 138 29 205h760v10q0 152 -61.5 216.5t-176.5 64.5q-194 0 -260 -156h-232q64 177 200 265.5t323 88.5q77 0 143.5 -15t124.5 -49.5t98.5 -87t64 -131t23.5 -177.5q0 -134 -41.5 -252t-117.5 -207t-191 -141
t-254 -52zM291 449q-19 -124 37 -199.5t182 -75.5q127 0 203 75.5t106 199.5h-528z" />
    <glyph glyph-name="circumflex" unicode="&#x2c6;" horiz-adv-x="763" 
d="M104 1188l240 282h375l149 -282h-245l-105 201l-166 -201h-248z" />
    <glyph glyph-name="caron" unicode="&#x2c7;" horiz-adv-x="763" 
d="M911 1470l-239 -282h-375l-150 282h246l105 -200l166 200h247z" />
    <glyph glyph-name="breve" unicode="&#x2d8;" horiz-adv-x="665" 
d="M440 1169q-165 0 -240 81.5t-53 219.5h175q-9 -149 139 -149q150 0 178 149h174q-23 -140 -116.5 -220.5t-256.5 -80.5z" />
    <glyph glyph-name="dotaccent" unicode="&#x2d9;" horiz-adv-x="296" 
d="M281 1214q-61 0 -105.5 42.5t-44.5 101.5q0 61 44.5 103t105.5 42q59 0 103 -42t44 -103q0 -59 -44 -101.5t-103 -42.5z" />
    <glyph glyph-name="ring" unicode="&#x2da;" horiz-adv-x="409" 
d="M334 1151q-86 0 -144.5 57t-58.5 140q0 82 58.5 139t144.5 57q87 0 145 -57t58 -139q0 -84 -58 -140.5t-145 -56.5zM256 1348q0 -35 22.5 -57.5t55.5 -22.5q34 0 57 22.5t23 57.5q0 33 -23 55t-57 22q-33 0 -55.5 -22t-22.5 -55z" />
    <glyph glyph-name="ogonek" unicode="&#x2db;" horiz-adv-x="438" 
d="M205 -389q-40 -15 -93 -15t-105 14.5t-88 58t-36 108.5q0 121 108 203.5t249 82.5l114 -63q-123 0 -196.5 -47t-73.5 -119q0 -53 40.5 -73.5t104.5 -2.5z" />
    <glyph glyph-name="tilde" unicode="&#x2dc;" horiz-adv-x="735" 
d="M631 1214q-51 0 -91.5 19t-60.5 41.5t-47 41.5t-55 19q-29 0 -54.5 -16.5t-29.5 -50.5h-158q13 107 74.5 166t155.5 59q52 0 93 -19t61.5 -41.5t46.5 -41.5t52 -19q28 0 54 17.5t30 50.5h156q-13 -107 -73 -166.5t-154 -59.5z" />
    <glyph glyph-name="hungarumlaut" unicode="&#x2dd;" horiz-adv-x="792" 
d="M455 1190l258 280h227l-256 -280h-229zM104 1190l258 280h228l-256 -280h-230z" />
    <glyph glyph-name="gravecomb" unicode="&#x300;" horiz-adv-x="0" 
d="M332 1190l-170 280h227l170 -280h-227z" />
    <glyph glyph-name="acutecomb" unicode="&#x301;" horiz-adv-x="0" 
d="M104 1190l258 280h228l-256 -280h-230z" />
    <glyph glyph-name="uni0302" unicode="&#x302;" horiz-adv-x="0" 
d="M104 1188l240 282h375l149 -282h-245l-105 201l-166 -201h-248z" />
    <glyph glyph-name="tildecomb" unicode="&#x303;" horiz-adv-x="0" 
d="M631 1214q-51 0 -91.5 19t-60.5 41.5t-47 41.5t-55 19q-29 0 -54.5 -16.5t-29.5 -50.5h-158q13 107 74.5 166t155.5 59q52 0 93 -19t61.5 -41.5t46.5 -41.5t52 -19q28 0 54 17.5t30 50.5h156q-13 -107 -73 -166.5t-154 -59.5z" />
    <glyph glyph-name="uni0304" unicode="&#x304;" horiz-adv-x="0" 
d="M125 1317l22 153h654l-23 -153h-653z" />
    <glyph glyph-name="uni0306" unicode="&#x306;" horiz-adv-x="0" 
d="M440 1169q-165 0 -240 81.5t-53 219.5h175q-9 -149 139 -149q150 0 178 149h174q-23 -140 -116.5 -220.5t-256.5 -80.5z" />
    <glyph glyph-name="uni0307" unicode="&#x307;" horiz-adv-x="0" 
d="M281 1214q-61 0 -105.5 42.5t-44.5 101.5q0 61 44.5 103t105.5 42q59 0 103 -42t44 -103q0 -59 -44 -101.5t-103 -42.5z" />
    <glyph glyph-name="uni0308" unicode="&#x308;" horiz-adv-x="0" 
d="M739 1214q-59 0 -103 42.5t-44 101.5q0 61 44 103t103 42q61 0 104.5 -42t43.5 -103q0 -60 -44 -102t-104 -42zM131 1358q0 61 44.5 103t105.5 42q59 0 103 -42t44 -103q0 -59 -44 -101.5t-103 -42.5q-61 0 -105.5 42.5t-44.5 101.5z" />
    <glyph glyph-name="hookabovecomb" unicode="&#x309;" horiz-adv-x="0" 
d="M313 1274q97 3 97 82q0 36 -20 56t-50 20q-29 0 -48 -17.5t-22 -48.5h-135q0 104 61.5 154.5t145.5 50.5q90 0 152.5 -53t62.5 -152q0 -87 -54.5 -139t-137.5 -62z" />
    <glyph glyph-name="uni030A" unicode="&#x30a;" horiz-adv-x="0" 
d="M334 1151q-86 0 -144.5 57t-58.5 140q0 82 58.5 139t144.5 57q87 0 145 -57t58 -139q0 -84 -58 -140.5t-145 -56.5zM256 1348q0 -35 22.5 -57.5t55.5 -22.5q34 0 57 22.5t23 57.5q0 33 -23 55t-57 22q-33 0 -55.5 -22t-22.5 -55z" />
    <glyph glyph-name="uni030B" unicode="&#x30b;" horiz-adv-x="0" 
d="M455 1190l258 280h227l-256 -280h-229zM104 1190l258 280h228l-256 -280h-230z" />
    <glyph glyph-name="uni030C" unicode="&#x30c;" horiz-adv-x="0" 
d="M911 1470l-239 -282h-375l-150 282h246l105 -200l166 200h247z" />
    <glyph glyph-name="uni0312" unicode="&#x312;" horiz-adv-x="0" 
d="M496 1311q-79 -4 -117 -34t-49 -93q81 0 124.5 -41.5t43.5 -106.5q0 -71 -47 -119.5t-123 -48.5q-75 0 -121.5 50.5t-46.5 156.5q0 68 21 129t61.5 110t107 78t150.5 29h12z" />
    <glyph glyph-name="uni031B" unicode="&#x31b;" horiz-adv-x="0" 
d="M53 862l33 203h274l31 180h221l-28 -180l-33 -203h-498z" />
    <glyph glyph-name="dotbelowcomb" unicode="&#x323;" horiz-adv-x="0" 
d="M133 -471q-68 0 -116 47t-48 113q0 67 48 114t116 47t116 -47t48 -114q0 -66 -48 -113t-116 -47z" />
    <glyph glyph-name="uni0326" unicode="&#x326;" horiz-adv-x="0" 
d="M-117 -506q79 4 118 34t50 93q-83 0 -126.5 41.5t-43.5 106.5q0 71 47.5 119.5t124.5 48.5q75 0 121.5 -50.5t46.5 -156.5q0 -69 -21 -129.5t-61 -110t-107.5 -78t-152.5 -28.5h-12z" />
    <glyph glyph-name="uni0327" unicode="&#x327;" horiz-adv-x="0" 
d="M-74 -367q66 -3 111 21t45 67q0 44 -41 56t-90 -13l-57 91l153 145h176l-129 -111h19q69 0 110 -40t41 -111q0 -116 -104 -177t-258 -61z" />
    <glyph glyph-name="uni0328" unicode="&#x328;" horiz-adv-x="0" 
d="M205 -389q-40 -15 -93 -15t-105 14.5t-88 58t-36 108.5q0 121 108 203.5t249 82.5l114 -63q-123 0 -196.5 -47t-73.5 -119q0 -53 40.5 -73.5t104.5 -2.5z" />
    <glyph glyph-name="uni0394" unicode="&#x394;" horiz-adv-x="1372" 
d="M-47 0l878 1460h5l415 -1460h-1298zM315 205h643l-194 778z" />
    <glyph glyph-name="uni03A9" unicode="&#x3a9;" horiz-adv-x="1595" 
d="M41 0l33 213h231q-199 168 -199 428q0 159 69.5 308.5t183 258.5t265.5 174.5t310 65.5q172 0 313 -73t225 -212t84 -319q0 -192 -96 -352.5t-272 -278.5h231l-33 -213h-518l47 297q169 74 269 216t100 302q0 171 -109.5 275t-277.5 104q-140 0 -260.5 -73t-190 -193.5
t-69.5 -255.5q0 -121 58 -218.5t171 -156.5l-47 -297h-518z" />
    <glyph glyph-name="uni03BC" unicode="&#x3bc;" 
d="M-37 -389l232 1454h262l-95 -608q-23 -128 25 -194t156 -66q105 0 179 59t99 174l101 635h264l-170 -1065h-262l34 219h-10q-14 -38 -43 -77t-74.5 -76.5t-114.5 -61.5t-149 -24q-61 0 -110 14l-60 -383h-264z" />
    <glyph glyph-name="pi" unicode="&#x3c0;" horiz-adv-x="1449" 
d="M1112 -12q-62 0 -114 16.5t-91.5 50t-56.5 90t-6 129.5l88 566h-328l-133 -840h-260l131 840h-205l37 225h1260l-37 -225h-203l-80 -514q-10 -64 10.5 -88.5t71.5 -24.5q71 0 131 35l-35 -223q-79 -37 -180 -37z" />
    <glyph glyph-name="uni0401" unicode="&#x401;" horiz-adv-x="1148" 
d="M25 0l229 1434h960l-38 -236h-693l-59 -364h631l-33 -211h-631l-57 -387h710l-36 -236h-983zM418 1726q0 61 44 103.5t105 42.5q59 0 103.5 -42.5t44.5 -103.5q0 -59 -44.5 -101t-103.5 -42q-61 0 -105 42t-44 101zM879 1726q0 61 44 103.5t103 42.5q61 0 104.5 -42.5
t43.5 -103.5q0 -60 -44 -101.5t-104 -41.5q-59 0 -103 42t-44 101z" />
    <glyph glyph-name="uni0403" unicode="&#x403;" horiz-adv-x="1060" 
d="M25 0l229 1434h903l-39 -238h-629l-190 -1196h-274zM588 1559l258 280h227l-256 -280h-229z" />
    <glyph glyph-name="uni0404" unicode="&#x404;" horiz-adv-x="1394" 
d="M676 -20q-272 0 -423 156t-151 456q0 175 52.5 330.5t148 273.5t242.5 187t325 69q119 0 216.5 -31t169.5 -91.5t109.5 -156t33.5 -217.5h-256q-13 135 -93 199t-204 64q-168 0 -280 -106t-160 -273h438l-37 -222h-432v-2q0 -192 85.5 -297.5t246.5 -105.5q253 0 360 264
h258q-32 -128 -96 -225t-150 -155.5t-187 -87.5t-216 -29z" />
    <glyph glyph-name="uni0407" unicode="&#x407;" horiz-adv-x="487" 
d="M25 0l229 1434h268l-227 -1434h-270zM51 1726q0 61 44.5 103.5t105.5 42.5q59 0 103 -42.5t44 -103.5q0 -59 -44 -101t-103 -42q-61 0 -105.5 42t-44.5 101zM512 1726q0 61 44 103.5t103 42.5q61 0 104.5 -42.5t43.5 -103.5q0 -60 -44 -101.5t-104 -41.5q-59 0 -103 42
t-44 101z" />
    <glyph glyph-name="uni040C" unicode="&#x40c;" horiz-adv-x="1398" 
d="M25 0l229 1434h268l-112 -711l723 711h317l-664 -648l492 -786h-309l-375 598l-242 -236l-57 -362h-270zM588 1559l258 280h227l-256 -280h-229z" />
    <glyph glyph-name="uni040E" unicode="&#x40e;" horiz-adv-x="1218" 
d="M135 215q47 -3 81.5 -3.5t63 9t48.5 19t37 27t27.5 33t21.5 36.5q44 76 14 201l-235 897h301l147 -686l371 686h303l-635 -1084q-93 -157 -175 -241.5t-179 -118.5t-228 -19zM483 1839h174q-9 -149 140 -149q150 0 178 149h174q-23 -140 -116.5 -220.5t-256.5 -80.5
q-165 0 -240 81.5t-53 219.5z" />
    <glyph glyph-name="uni0410" unicode="&#x410;" horiz-adv-x="1472" 
d="M-47 0l756 1434h344l299 -1434h-279l-57 293h-625l-149 -293h-289zM494 494h483l-129 663h-17z" />
    <glyph glyph-name="uni0411" unicode="&#x411;" horiz-adv-x="1273" 
d="M25 0l229 1434h903l-39 -238h-629l-40 -252h292q233 0 350 -103t117 -300q0 -246 -167.5 -393.5t-448.5 -147.5h-567zM336 233h272q146 0 226.5 76t80.5 199q0 201 -233 201h-270z" />
    <glyph glyph-name="uni0412" unicode="&#x412;" horiz-adv-x="1288" 
d="M25 0l229 1434h561q203 0 304.5 -82t101.5 -234q0 -125 -66 -210.5t-194 -125.5q253 -69 253 -319q0 -143 -78 -249t-211 -160t-302 -54h-598zM330 227h297q140 0 225.5 71.5t85.5 186.5q0 185 -227 185h-310zM428 848h277q106 0 170.5 60.5t64.5 154.5q0 143 -166 143
h-291z" />
    <glyph glyph-name="uni0413" unicode="&#x413;" horiz-adv-x="1060" 
d="M25 0l229 1434h903l-39 -238h-629l-190 -1196h-274z" />
    <glyph glyph-name="uni0414" unicode="&#x414;" horiz-adv-x="1531" 
d="M-70 -141l60 366h92q95 71 171 260t134 555l66 394h1038l-193 -1209h125l-57 -366h-262l22 141h-909l-22 -141h-265zM371 225h653l156 971h-494l-24 -156q-58 -365 -130.5 -554.5t-160.5 -260.5z" />
    <glyph glyph-name="uni0415" unicode="&#x415;" horiz-adv-x="1148" 
d="M25 0l229 1434h960l-38 -236h-693l-59 -364h631l-33 -211h-631l-57 -387h710l-36 -236h-983z" />
    <glyph glyph-name="uni0416" unicode="&#x416;" horiz-adv-x="2027" 
d="M-47 0l754 725l-510 709h313l420 -578l92 578h274l-94 -596l604 596h312l-711 -709l498 -725h-314l-426 612l-96 -612h-274l94 594l-623 -594h-313z" />
    <glyph glyph-name="uni0417" unicode="&#x417;" 
d="M514 -20q-255 0 -372.5 135.5t-82.5 363.5h244q-22 -139 49 -207.5t195 -68.5q134 0 223.5 73.5t89.5 186.5q0 90 -65 140t-197 50h-78l31 193h65q130 0 207.5 59t77.5 158q0 83 -53 123.5t-141 40.5q-49 0 -91 -13t-80.5 -41t-66 -79t-39.5 -121h-244q32 229 178 354
t381 125q196 0 307 -89t111 -233q0 -127 -81.5 -229.5t-209.5 -134.5q42 -5 83.5 -24t81 -53t64.5 -93t25 -133q0 -141 -82 -252.5t-221 -171t-309 -59.5z" />
    <glyph glyph-name="uni0418" unicode="&#x418;" horiz-adv-x="1404" 
d="M25 0l229 1434h268l-160 -1006h7l786 1006h285l-228 -1434h-270l158 989h-6l-775 -989h-294z" />
    <glyph glyph-name="uni0419" unicode="&#x419;" horiz-adv-x="1404" 
d="M866 1538q-165 0 -240 81.5t-53 219.5h175q-9 -149 139 -149q150 0 178 149h174q-23 -140 -116.5 -220.5t-256.5 -80.5zM25 0l229 1434h268l-160 -1006h7l786 1006h285l-228 -1434h-270l158 989h-6l-775 -989h-294z" />
    <glyph glyph-name="uni041A" unicode="&#x41a;" horiz-adv-x="1398" 
d="M25 0l229 1434h268l-112 -711l723 711h317l-664 -648l492 -786h-309l-375 598l-242 -236l-57 -362h-270z" />
    <glyph glyph-name="uni041B" unicode="&#x41b;" horiz-adv-x="1398" 
d="M-16 223q50 -1 88 8t74 33t60.5 74t35.5 125l155 971h1037l-228 -1434h-274l188 1196h-485l-119 -745q-41 -253 -194.5 -369.5t-376.5 -95.5z" />
    <glyph glyph-name="uni041C" unicode="&#x41c;" horiz-adv-x="1705" 
d="M25 0l229 1434h336l237 -1072l568 1072h346l-228 -1434h-270l154 963h-11l-505 -963h-215l-209 963h-11l-151 -963h-270z" />
    <glyph glyph-name="uni041D" unicode="&#x41d;" horiz-adv-x="1376" 
d="M913 0l95 600h-619l-94 -600h-270l229 1434h268l-96 -611h618l97 611h270l-227 -1434h-271z" />
    <glyph glyph-name="uni041E" unicode="&#x41e;" horiz-adv-x="1497" 
d="M678 -20q-269 0 -423.5 161t-154.5 449q0 137 35 265.5t103 236.5t161 188.5t216 126t262 45.5q270 0 423.5 -160t153.5 -448q0 -172 -55.5 -328.5t-154.5 -275.5t-246 -189.5t-320 -70.5zM375 598q0 -191 84 -288t239 -97q114 0 208 55t152.5 145t90 200t31.5 225
q0 189 -84 285t-238 96q-114 0 -208 -54t-153 -143t-90.5 -198.5t-31.5 -225.5z" />
    <glyph glyph-name="uni041F" unicode="&#x41f;" horiz-adv-x="1372" 
d="M25 0l229 1434h1151l-227 -1434h-275l191 1196h-605l-190 -1196h-274z" />
    <glyph glyph-name="uni0420" unicode="&#x420;" horiz-adv-x="1267" 
d="M25 0l229 1434h559q238 0 353.5 -103t115.5 -295q0 -246 -167.5 -392t-448.5 -146h-293l-78 -498h-270zM412 733h280q145 0 228.5 72t83.5 194q0 199 -238 199h-283z" />
    <glyph glyph-name="uni0421" unicode="&#x421;" horiz-adv-x="1394" 
d="M676 -20q-272 0 -423 156t-151 456q0 175 52.5 330.5t148 273.5t242.5 187t325 69q119 0 216.5 -31t169.5 -91.5t109.5 -156t33.5 -217.5h-256q-13 135 -93 199t-204 64q-93 0 -171.5 -35t-132.5 -94.5t-92.5 -137.5t-56.5 -163t-18 -173q0 -192 85.5 -297.5
t246.5 -105.5q253 0 360 264h258q-32 -128 -96 -225t-150 -155.5t-187 -87.5t-216 -29z" />
    <glyph glyph-name="uni0422" unicode="&#x422;" horiz-adv-x="1218" 
d="M391 0l189 1198h-426l39 236h1120l-37 -236h-426l-191 -1198h-268z" />
    <glyph glyph-name="uni0423" unicode="&#x423;" horiz-adv-x="1218" 
d="M135 215q47 -3 81.5 -3.5t63 9t48.5 19t37 27t27.5 33t21.5 36.5q44 76 14 201l-235 897h301l147 -686l371 686h303l-635 -1084q-93 -157 -175 -241.5t-179 -118.5t-228 -19z" />
    <glyph glyph-name="uni0424" unicode="&#x424;" horiz-adv-x="1505" 
d="M526 -31l25 158q-213 31 -331 157t-118 330q0 276 177 464t460 227l25 159h274l-24 -157q214 -31 331 -156t117 -330q0 -278 -175.5 -465.5t-461.5 -226.5l-24 -160h-275zM367 645q0 -119 55.5 -196t163.5 -105l119 746q-157 -40 -247.5 -160t-90.5 -285zM860 344
q159 38 248.5 157.5t89.5 289.5q0 243 -219 299z" />
    <glyph glyph-name="uni0425" unicode="&#x425;" horiz-adv-x="1370" 
d="M-47 0l614 739l-356 695h301l242 -471l391 471h301l-578 -695l381 -739h-303l-264 514l-428 -514h-301z" />
    <glyph glyph-name="uni0426" unicode="&#x426;" horiz-adv-x="1427" 
d="M25 0l229 1434h272l-188 -1196h604l188 1196h275l-191 -1196h132l-86 -527h-263l47 289h-1019z" />
    <glyph glyph-name="uni0427" unicode="&#x427;" horiz-adv-x="1329" 
d="M489 317q-93 0 -166.5 26.5t-127 81t-73.5 147t-1 216.5l102 646h273l-99 -633q-18 -118 43.5 -182t177.5 -64q76 0 143.5 25.5t112 65t73 78t38.5 71.5v-21l105 660h274l-227 -1434h-275l84 524q-193 -207 -457 -207z" />
    <glyph glyph-name="uni0428" unicode="&#x428;" horiz-adv-x="1689" 
d="M25 0l229 1434h272l-188 -1196h324l188 1196h274l-188 -1196h324l188 1196h274l-227 -1434h-1470z" />
    <glyph glyph-name="uni0429" unicode="&#x429;" horiz-adv-x="1742" 
d="M25 0l229 1434h272l-188 -1196h324l188 1196h274l-188 -1196h324l188 1196h274l-190 -1196h127l-86 -527h-260l45 289h-1333z" />
    <glyph glyph-name="uni042A" unicode="&#x42a;" horiz-adv-x="1376" 
d="M143 1196l39 238h451l-78 -490h285q238 0 356.5 -102t118.5 -297q0 -250 -170 -397.5t-455 -147.5h-559l191 1196h-179zM444 233h283q138 0 215.5 77t77.5 200q0 199 -219 199h-283z" />
    <glyph glyph-name="uni042B" unicode="&#x42b;" horiz-adv-x="1738" 
d="M25 0l229 1434h272l-77 -490h284q238 0 356.5 -102t118.5 -297q0 -250 -169.5 -397.5t-454.5 -147.5h-559zM338 233h283q138 0 215 77t77 200q0 199 -219 199h-282zM1274 0l229 1434h269l-228 -1434h-270z" />
    <glyph glyph-name="uni042C" unicode="&#x42c;" horiz-adv-x="1271" 
d="M25 0l229 1434h272l-77 -490h284q238 0 356.5 -102t118.5 -297q0 -250 -169.5 -397.5t-454.5 -147.5h-559zM338 233h283q138 0 215 77t77 200q0 199 -219 199h-282z" />
    <glyph glyph-name="uni042D" unicode="&#x42d;" horiz-adv-x="1392" 
d="M598 592l33 221h444v2q0 192 -85.5 298t-246.5 106q-252 0 -360 -265h-258q32 128 96 225t150 156t187 88t216 29q272 0 423 -156t151 -456q0 -175 -52.5 -330.5t-148 -273.5t-242.5 -187t-325 -69q-119 0 -216.5 31t-169.5 91t-109.5 155.5t-33.5 217.5h256
q13 -134 92.5 -198t204.5 -64q168 0 280 106t160 273h-446z" />
    <glyph glyph-name="uni042E" unicode="&#x42e;" horiz-adv-x="1992" 
d="M25 0l229 1434h268l-96 -611h199q32 134 98 248t160.5 199t221 133.5t269.5 48.5q270 0 424 -160t154 -448q0 -172 -55.5 -328.5t-154.5 -275.5t-246 -189.5t-320 -70.5q-269 0 -423.5 161t-154.5 449v10h-209l-94 -600h-270zM872 598q0 -190 84.5 -287.5t239.5 -97.5
q92 0 171.5 36t135.5 97.5t96 141.5t59 169.5t19 180.5q0 189 -83.5 285t-237.5 96q-92 0 -171.5 -35.5t-136 -96t-97 -140t-60 -168.5t-19.5 -181z" />
    <glyph glyph-name="uni042F" unicode="&#x42f;" horiz-adv-x="1282" 
d="M819 0l78 498h-244l-387 -498h-293l414 526q-256 77 -256 367q0 246 170.5 393.5t450.5 147.5h563l-228 -1434h-268zM412 938q0 -99 59 -152t178 -53h287l72 465h-289q-146 0 -226.5 -70t-80.5 -190z" />
    <glyph glyph-name="uni0430" unicode="&#x430;" horiz-adv-x="1128" 
d="M311 -20q-63 0 -114 13.5t-93 42.5t-65 80t-23 120q0 291 418 354l205 28q78 10 109.5 28.5t39.5 55.5l7 29q15 84 -27 124t-141 40q-197 0 -228 -154l-4 -22l-248 -2l9 47q48 321 501 321q233 0 328 -85t66 -263l-117 -737h-250l31 190h-13q-12 -22 -29.5 -45t-52 -54
t-75.5 -54.5t-103 -40t-131 -16.5zM283 285q0 -55 38 -85t113 -30q116 0 202 63.5t97 135.5l25 137q-4 -5 -9.5 -9t-10 -7.5t-12.5 -7t-13 -5.5t-15 -4.5t-15 -4t-17.5 -3.5t-17.5 -3t-20 -3.5t-20 -3.5l-157 -23q-78 -11 -123 -48t-45 -99z" />
    <glyph glyph-name="uni0431" unicode="&#x431;" horiz-adv-x="1177" 
d="M520 -18q-106 0 -188.5 33t-133.5 92t-81.5 141.5t-33 182.5t12.5 214l47 285q38 253 179.5 378.5t373.5 125.5h84q75 0 110 8.5t60 36.5h236q-33 -141 -106.5 -195.5t-250.5 -54.5h-139q-125 0 -199 -71t-96 -202l-8 -49q33 65 130.5 112.5t211.5 47.5q59 0 114.5 -14.5
t108 -47t91 -81t62 -122t23.5 -163.5q0 -136 -47 -257.5t-127.5 -209t-193.5 -139t-240 -51.5zM324 449q0 -128 63 -191t162 -63q101 0 178 62.5t113.5 154.5t36.5 194q0 131 -64 195.5t-166 64.5q-62 0 -115 -24.5t-91 -65.5t-64.5 -95t-39.5 -113t-13 -119z" />
    <glyph glyph-name="uni0432" unicode="&#x432;" horiz-adv-x="1189" 
d="M25 0l170 1065h544q159 0 256 -66t97 -174q0 -79 -51 -143t-142 -90q197 -65 197 -248q0 -85 -40.5 -151.5t-110.5 -108t-160 -63t-193 -21.5h-567zM322 213h309q115 0 164 44.5t49 107.5q0 116 -174 116h-305zM389 639h281q89 0 130.5 38t41.5 85q0 40 -32 65t-105 25
h-283z" />
    <glyph glyph-name="uni0433" unicode="&#x433;" horiz-adv-x="886" 
d="M25 0l170 1065h737l-33 -207h-477l-133 -858h-264z" />
    <glyph glyph-name="uni0434" unicode="&#x434;" horiz-adv-x="1306" 
d="M193 0l-21 -115h-238l54 322h98q69 57 103.5 178.5t76.5 394.5l43 285h951l-136 -858h95l-54 -322h-237l20 115h-755zM340 207h522l103 651h-426l-21 -145q-34 -232 -73 -344.5t-105 -161.5z" />
    <glyph glyph-name="uni0435" unicode="&#x435;" horiz-adv-x="1138" 
d="M504 -27q-96 0 -175 25.5t-142 78.5t-98.5 144.5t-35.5 214.5q0 133 41.5 251t117.5 206.5t191 140t254 51.5q197 0 315 -102t118 -315q0 -132 -31 -203h-760v-12q0 -152 60 -216.5t180 -64.5q96 0 158.5 39t101.5 119h231q-69 -178 -205.5 -267.5t-320.5 -89.5zM315 610
h529q21 125 -35 200t-182 75q-128 0 -205 -75t-107 -200z" />
    <glyph glyph-name="uni0436" unicode="&#x436;" horiz-adv-x="1744" 
d="M-68 0l605 530l-422 535h323l318 -414l65 414h262l-67 -422l461 422h321l-592 -535l436 -530h-323l-338 422l-66 -422h-262l66 414l-463 -414h-324z" />
    <glyph glyph-name="uni0437" unicode="&#x437;" horiz-adv-x="1093" 
d="M451 -18q-231 0 -339 107t-77 306h235q-14 -102 39 -162.5t172 -60.5q104 0 173 47.5t69 122.5q0 66 -61.5 105.5t-188.5 39.5l25 138q114 0 184 38t70 109q0 58 -47.5 87.5t-118.5 29.5q-92 0 -152 -46.5t-72 -129.5h-237q28 178 151.5 272t331.5 94q175 0 285.5 -68
t110.5 -192q0 -93 -63.5 -162t-164.5 -94q22 -4 45 -11.5t53 -25t52.5 -41.5t38.5 -63.5t16 -87.5q0 -109 -75 -190.5t-194 -121.5t-261 -40z" />
    <glyph glyph-name="uni0438" unicode="&#x438;" horiz-adv-x="1236" 
d="M25 0l170 1065h262l-111 -700h6l590 700h268l-168 -1065h-262l107 684h-6l-578 -684h-278z" />
    <glyph glyph-name="uni0439" unicode="&#x439;" horiz-adv-x="1236" 
d="M25 0l170 1065h262l-111 -700h6l590 700h268l-168 -1065h-262l107 684h-6l-578 -684h-278zM434 1470h174q-9 -149 140 -149q150 0 178 149h174q-23 -140 -116.5 -220.5t-256.5 -80.5q-165 0 -240 81.5t-53 219.5z" />
    <glyph glyph-name="uni043A" unicode="&#x43a;" horiz-adv-x="1167" 
d="M25 0l170 1065h262l-72 -459l487 459h299l-501 -459l395 -606h-281l-299 438l-149 -135l-47 -303h-264z" />
    <glyph glyph-name="uni043B" unicode="&#x43b;" horiz-adv-x="1267" 
d="M-23 199q50 -1 89.5 9.5t76.5 37.5t62.5 80t38.5 131l94 608h905l-168 -1065h-252l125 858h-381l-65 -416q-38 -252 -185.5 -361.5t-371.5 -88.5z" />
    <glyph glyph-name="uni043C" unicode="&#x43c;" horiz-adv-x="1499" 
d="M25 0l170 1065h301l219 -760l454 760h306l-168 -1065h-263l103 645h-8l-371 -645h-197l-172 645h-8l-102 -645h-264z" />
    <glyph glyph-name="uni043D" unicode="&#x43d;" horiz-adv-x="1150" 
d="M25 0l170 1065h262l-64 -408h408l63 408h262l-168 -1065h-262l72 451h-408l-71 -451h-264z" />
    <glyph glyph-name="uni043E" unicode="&#x43e;" horiz-adv-x="1173" 
d="M504 -20q-94 0 -174 27t-142.5 80.5t-98.5 142.5t-36 204q0 175 76.5 323t219 238t321.5 90q94 0 173.5 -27t142.5 -80.5t98.5 -142.5t35.5 -204q0 -175 -76.5 -323t-218.5 -238t-321 -90zM305 461q0 -133 63.5 -197.5t168.5 -64.5q103 0 180 60t114 150.5t37 194.5
q0 133 -63 197.5t-168 64.5q-103 0 -180.5 -60t-114.5 -151t-37 -194z" />
    <glyph glyph-name="uni043F" unicode="&#x43f;" horiz-adv-x="1144" 
d="M25 0l170 1065h925l-168 -1065h-262l133 858h-401l-133 -858h-264z" />
    <glyph glyph-name="uni0440" unicode="&#x440;" horiz-adv-x="1230" 
d="M-37 -389l232 1454h262l-25 -158q48 78 147 128t214 50q78 0 146 -25.5t122.5 -75.5t86.5 -135.5t32 -195.5q0 -132 -42 -254.5t-115 -215t-181 -148t-232 -55.5q-114 0 -193 49.5t-106 130.5l-84 -549h-264zM354 461q0 -130 65 -196t167 -66q101 0 180.5 57.5
t120.5 149.5t41 198q0 130 -66 196t-168 66t-181 -57.5t-119 -149t-40 -198.5z" />
    <glyph glyph-name="uni0441" unicode="&#x441;" horiz-adv-x="1128" 
d="M504 -20q-72 0 -136.5 15t-122.5 50t-100.5 86t-67 128t-24.5 173q0 177 76 325.5t219.5 238t325.5 89.5q62 0 118 -10.5t113.5 -39t98 -74t64.5 -122t19 -175.5h-233q-1 102 -60 151t-155 49q-107 0 -186 -60t-116.5 -150.5t-37.5 -194.5q0 -125 61 -191.5t177 -66.5
q97 0 170 49t108 151h232q-25 -98 -72 -174t-102 -121.5t-122 -75t-126.5 -40t-120.5 -10.5z" />
    <glyph glyph-name="uni0442" unicode="&#x442;" horiz-adv-x="1054" 
d="M313 0l133 858h-333l32 207h932l-33 -207h-335l-134 -858h-262z" />
    <glyph glyph-name="uni0443" unicode="&#x443;" horiz-adv-x="1161" 
d="M33 -182q54 -9 99.5 -3t76 15t56.5 28.5t41 37t30 41.5q25 41 30.5 73.5t-4.5 73.5l-241 981h268l156 -739l391 739h272l-614 -1094q-130 -232 -261 -316t-333 -61z" />
    <glyph glyph-name="uni0444" unicode="&#x444;" horiz-adv-x="1243" 
d="M354 -389l62 383q-159 31 -262 137t-103 287q0 254 150 432.5t385 218.5l57 365h246l-58 -367q158 -32 259.5 -139.5t101.5 -290.5q0 -253 -149.5 -429.5t-383.5 -215.5l-59 -381h-246zM264 440q0 -197 182 -247l107 675q-139 -36 -214 -150t-75 -278zM692 195
q137 36 211 147.5t74 269.5q0 205 -178 254z" />
    <glyph glyph-name="uni0445" unicode="&#x445;" horiz-adv-x="1157" 
d="M-27 0l457 539l-268 526h280l166 -340l266 340h289l-436 -526l289 -539h-281l-184 350l-289 -350h-289z" />
    <glyph glyph-name="uni0446" unicode="&#x446;" horiz-adv-x="1265" 
d="M25 0l170 1065h262l-135 -858h401l135 858h262l-135 -858h121l-78 -494h-250l45 287h-798z" />
    <glyph glyph-name="uni0447" unicode="&#x447;" horiz-adv-x="1161" 
d="M784 496q-12 -34 -42.5 -71t-77.5 -72t-117.5 -57t-149.5 -22q-80 0 -142.5 22.5t-109 72t-61.5 128t0 191.5l59 377h263l-56 -346q-18 -117 32.5 -172t147.5 -55q113 0 193 64t94 151l57 358h263l-168 -1065h-262z" />
    <glyph glyph-name="uni0448" unicode="&#x448;" horiz-adv-x="1611" 
d="M25 0l170 1065h262l-135 -858h309l135 858h248l-135 -858h311l133 858h262l-168 -1065h-1392z" />
    <glyph glyph-name="uni0449" unicode="&#x449;" horiz-adv-x="1732" 
d="M1245 -287l45 287h-1265l170 1065h262l-135 -858h309l135 858h248l-135 -858h311l133 858h262l-135 -858h123l-78 -494h-250z" />
    <glyph glyph-name="uni044A" unicode="&#x44a;" horiz-adv-x="1263" 
d="M88 858l33 207h448l-59 -365h297q181 0 277 -76.5t96 -211.5q0 -189 -135.5 -300.5t-348.5 -111.5h-559l137 858h-186zM434 207h285q95 0 149 45t54 123q0 121 -156 121h-287z" />
    <glyph glyph-name="uni044B" unicode="&#x44b;" horiz-adv-x="1576" 
d="M25 0l170 1065h262l-60 -365h297q181 0 277 -76.5t96 -211.5q0 -189 -135 -300.5t-348 -111.5h-559zM322 207h284q95 0 149 45t54 123q0 121 -156 121h-286zM1120 0l168 1065h262l-168 -1065h-262z" />
    <glyph glyph-name="uni044C" unicode="&#x44c;" horiz-adv-x="1150" 
d="M25 0l170 1065h262l-60 -365h297q181 0 277 -76.5t96 -211.5q0 -189 -135 -300.5t-348 -111.5h-559zM322 207h284q95 0 149 45t54 123q0 121 -156 121h-286z" />
    <glyph glyph-name="uni044D" unicode="&#x44d;" horiz-adv-x="1126" 
d="M487 459l23 162h317q-3 119 -63 181t-174 62q-97 0 -170.5 -49t-108.5 -151h-231q25 98 72 174t102 121.5t122 75t126.5 40t120.5 10.5q91 0 169 -25t142.5 -77t101.5 -141.5t37 -208.5q0 -132 -45 -251t-125 -208t-197.5 -141.5t-254.5 -52.5q-62 0 -118 10.5t-114 39
t-98 74t-63.5 122t-18.5 175.5h231q1 -102 60 -151t155 -49q120 0 203 72t117 186h-318z" />
    <glyph glyph-name="uni044E" unicode="&#x44e;" horiz-adv-x="1593" 
d="M6 0l168 1065h262l-67 -430h133q59 199 216.5 324.5t371.5 125.5q94 0 173.5 -27t142.5 -80.5t98.5 -142.5t35.5 -204q0 -175 -76.5 -323t-218.5 -238t-321 -90q-93 0 -172.5 26.5t-142.5 79.5t-99 140.5t-37 201.5h-137l-68 -428h-262zM725 461q0 -133 63 -197.5
t168 -64.5q103 0 180.5 60t114.5 151t37 194q0 133 -63 197.5t-168 64.5q-103 0 -180.5 -60t-114.5 -151t-37 -194z" />
    <glyph glyph-name="uni044F" unicode="&#x44f;" horiz-adv-x="1161" 
d="M707 0l57 365h-189l-309 -365h-274l325 381q-110 28 -166.5 101t-56.5 186q0 181 134.5 289t349.5 108h559l-168 -1065h-262zM346 694q0 -125 162 -125h287l45 289h-285q-104 0 -156.5 -46t-52.5 -118z" />
    <glyph glyph-name="uni0451" unicode="&#x451;" horiz-adv-x="1138" 
d="M504 -27q-96 0 -175 25.5t-142 78.5t-98.5 144.5t-35.5 214.5q0 133 41.5 251t117.5 206.5t191 140t254 51.5q197 0 315 -102t118 -315q0 -132 -31 -203h-760v-12q0 -152 60 -216.5t180 -64.5q96 0 158.5 39t101.5 119h231q-69 -178 -205.5 -267.5t-320.5 -89.5zM315 610
h529q21 125 -35 200t-182 75q-128 0 -205 -75t-107 -200zM319 1358q0 61 44.5 103t105.5 42q59 0 103 -42t44 -103q0 -59 -44 -101.5t-103 -42.5q-61 0 -105.5 42.5t-44.5 101.5zM780 1358q0 61 44.5 103t103.5 42q61 0 104 -42t43 -103q0 -60 -43.5 -102t-103.5 -42
q-59 0 -103.5 42.5t-44.5 101.5z" />
    <glyph glyph-name="uni0453" unicode="&#x453;" horiz-adv-x="886" 
d="M25 0l170 1065h737l-33 -207h-477l-133 -858h-264zM416 1190l258 280h227l-256 -280h-229z" />
    <glyph glyph-name="uni0454" unicode="&#x454;" horiz-adv-x="1128" 
d="M504 -20q-72 0 -136.5 15t-122.5 50t-100.5 86t-67 128t-24.5 173q0 177 76 325.5t219.5 238t325.5 89.5q62 0 118 -10.5t113.5 -39t98 -74t64.5 -122t19 -175.5h-233q-1 102 -60 151t-155 49q-116 0 -196.5 -67.5t-116.5 -175.5h315l-27 -162h-315q0 -125 61 -191.5
t177 -66.5q97 0 170 49t108 151h232q-25 -98 -72 -174t-102 -121.5t-122 -75t-126.5 -40t-120.5 -10.5z" />
    <glyph glyph-name="uni0457" unicode="&#x457;" horiz-adv-x="446" 
d="M6 0l168 1065h262l-168 -1065h-262zM-29 1358q0 61 44.5 103t105.5 42q59 0 103 -42t44 -103q0 -59 -44 -101.5t-103 -42.5q-61 0 -105.5 42.5t-44.5 101.5zM432 1358q0 61 44.5 103t103.5 42q61 0 104 -42t43 -103q0 -60 -43.5 -102t-103.5 -42q-59 0 -103.5 42.5
t-44.5 101.5z" />
    <glyph glyph-name="uni045C" unicode="&#x45c;" horiz-adv-x="1167" 
d="M25 0l170 1065h262l-72 -459l487 459h299l-501 -459l395 -606h-281l-299 438l-149 -135l-47 -303h-264zM551 1190l258 280h227l-256 -280h-229z" />
    <glyph glyph-name="uni045E" unicode="&#x45e;" horiz-adv-x="1161" 
d="M33 -182q54 -9 99.5 -3t76 15t56.5 28.5t41 37t30 41.5q25 41 30.5 73.5t-4.5 73.5l-241 981h268l156 -739l391 739h272l-614 -1094q-130 -232 -261 -316t-333 -61zM309 1470h174q-9 -149 140 -149q150 0 178 149h174q-23 -140 -116.5 -220.5t-256.5 -80.5
q-165 0 -240 81.5t-53 219.5z" />
    <glyph glyph-name="uni0490" unicode="&#x490;" horiz-adv-x="1060" 
d="M883 1434l32 204h275l-33 -204l-39 -238h-629l-190 -1196h-274l229 1434h629z" />
    <glyph glyph-name="uni0491" unicode="&#x491;" horiz-adv-x="886" 
d="M707 1065l22 135h225l-22 -135l-33 -207h-477l-133 -858h-264l170 1065h512z" />
    <glyph glyph-name="uni1E0C" unicode="&#x1e0c;" horiz-adv-x="1388" 
d="M25 0l229 1434h514q575 0 575 -590q0 -181 -52 -334.5t-150 -267t-248.5 -178t-337.5 -64.5h-530zM334 236h217q135 0 237 46.5t162.5 130t90.5 189t30 232.5q0 199 -82 281.5t-274 82.5h-232zM399 -311q0 67 48 114t116 47t116 -47t48 -114q0 -66 -48 -113t-116 -47
t-116 47t-48 113z" />
    <glyph glyph-name="uni1E0D" unicode="&#x1e0d;" horiz-adv-x="1228" 
d="M436 -20q-78 0 -145.5 25t-122 75.5t-86 135t-31.5 194.5q0 180 69 333.5t197.5 247.5t288.5 94q119 0 200.5 -49.5t108.5 -128.5l84 527h263l-228 -1434h-262l25 158q-51 -79 -148.5 -128.5t-212.5 -49.5zM303 463q0 -132 64.5 -198t171.5 -66q147 0 240 120t93 283
q0 132 -66.5 198t-172.5 66q-98 0 -174.5 -57.5t-116 -148.5t-39.5 -197zM324 -311q0 67 47.5 114t115.5 47t116 -47t48 -114q0 -66 -48 -113t-116 -47q-67 0 -115 47t-48 113z" />
    <glyph glyph-name="uni1E20" unicode="&#x1e20;" horiz-adv-x="1454" 
d="M688 -20q-283 0 -435.5 154t-152.5 448q0 177 55 335.5t154 277t247 188t325 69.5q112 0 205.5 -28t164 -82.5t111 -141t41.5 -196.5h-266q-34 215 -275 215q-93 0 -173 -34.5t-136.5 -94t-97.5 -137.5t-60.5 -166t-19.5 -179q0 -191 86.5 -293t251.5 -102
q98 0 176.5 35.5t135.5 116t77 198.5l-301 -6l37 217h565l-21 -117q-60 -346 -230.5 -511.5t-463.5 -165.5zM596 1686l22 153h654l-23 -153h-653z" />
    <glyph glyph-name="uni1E21" unicode="&#x1e21;" horiz-adv-x="1216" 
d="M434 27q-76 0 -142 23t-121 69.5t-86.5 127t-31.5 187.5q0 176 67 324t192.5 237.5t285.5 89.5q110 0 191.5 -43t119.5 -114l21 137h262l-152 -944l-12 -88q-15 -111 -63.5 -196.5t-110.5 -134.5t-142 -79.5t-149 -40.5t-141 -10q-66 0 -126.5 8.5t-124.5 32.5t-107.5 62
t-65 103t-8.5 150h231q-8 -76 58 -114.5t167 -38.5q125 0 213.5 64.5t106.5 193.5l12 88l13 63q-59 -71 -153 -114t-204 -43zM305 492q0 -122 64.5 -185t169.5 -63q145 0 236 110t91 264q0 123 -66 185.5t-171 62.5q-144 0 -234 -109.5t-90 -264.5zM387 1317l23 153h653
l-23 -153h-653z" />
    <glyph glyph-name="uni1E24" unicode="&#x1e24;" horiz-adv-x="1376" 
d="M913 0l95 600h-619l-94 -600h-270l229 1434h268l-96 -611h618l97 611h270l-227 -1434h-271zM389 -311q0 67 48 114t116 47t116 -47t48 -114q0 -66 -48 -113t-116 -47t-116 47t-48 113z" />
    <glyph glyph-name="uni1E25" unicode="&#x1e25;" 
d="M195 1065l59 369h262l-59 -369l-35 -219h10q14 38 43 77t74.5 76.5t114.5 61.5t149 24q167 0 253 -104t54 -311l-104 -670h-262l94 608q23 128 -24.5 194t-155.5 66q-105 0 -179.5 -59t-99.5 -174l-100 -635h-264zM295 -311q0 67 48 114t116 47t116 -47t48 -114
q0 -66 -48 -113t-116 -47t-116 47t-48 113z" />
    <glyph glyph-name="uni1E62" unicode="&#x1e62;" horiz-adv-x="1312" 
d="M582 -20q-272 0 -410.5 126t-103.5 349h276q-10 -110 58.5 -180t218.5 -70q140 0 223.5 60t83.5 165q0 78 -49 119t-164 65l-170 33q-80 16 -140.5 41.5t-110 66t-75.5 101t-26 139.5q0 139 79.5 244t215 159t307.5 54q160 0 273.5 -48t168 -145t33.5 -231h-277
q15 95 -48 147t-185 52q-127 0 -204 -55.5t-77 -151.5q0 -133 187 -170l159 -31q206 -40 299 -123.5t93 -232.5t-84 -259.5t-227 -167t-324 -56.5zM344 -311q0 67 48 114t116 47t116 -47t48 -114q0 -66 -48 -113t-116 -47t-116 47t-48 113z" />
    <glyph glyph-name="uni1E63" unicode="&#x1e63;" horiz-adv-x="1015" 
d="M420 -20q-209 0 -318.5 90.5t-85.5 265.5h236q-1 -81 50 -117.5t144 -36.5q98 0 155.5 36.5t57.5 103.5q0 42 -30 65.5t-99 38.5l-157 37q-137 31 -198.5 98.5t-61.5 171.5q0 164 132 258t339 94q201 0 300 -93t74 -261h-219q3 81 -45.5 116.5t-138.5 35.5
q-89 0 -139.5 -31t-50.5 -88q0 -41 32.5 -67.5t106.5 -45.5l168 -39q61 -15 104 -33.5t81 -48.5t57.5 -75t19.5 -105q0 -117 -70 -202.5t-185 -126.5t-259 -41zM213 -311q0 67 48 114t116 47t116 -47t48 -114q0 -66 -48 -113t-116 -47t-116 47t-48 113z" />
    <glyph glyph-name="uni1E6C" unicode="&#x1e6c;" horiz-adv-x="1218" 
d="M391 0l189 1198h-426l39 236h1120l-37 -236h-426l-191 -1198h-268zM262 -311q0 67 48 114t116 47t116 -47t48 -114q0 -66 -48 -113t-116 -47t-116 47t-48 113z" />
    <glyph glyph-name="uni1E6D" unicode="&#x1e6d;" horiz-adv-x="747" 
d="M461 -14q-156 0 -232 75.5t-49 237.5l88 563h-178l31 203h180l43 272h262l-43 -272h209l-31 -203h-211l-84 -522q-11 -72 14.5 -107.5t98.5 -35.5h88l-33 -205q-53 -6 -153 -6zM203 -311q0 67 48 114t116 47t115.5 -47t47.5 -114q0 -66 -48 -113t-115 -47q-68 0 -116 47
t-48 113z" />
    <glyph glyph-name="Wgrave" unicode="&#x1e80;" horiz-adv-x="2052" 
d="M340 0l-147 1434h274l84 -1055h12l465 1055h279l133 -1055h12l418 1055h278l-602 -1434h-282l-150 1094l-491 -1094h-283zM901 1839h227l170 -280h-227z" />
    <glyph glyph-name="wgrave" unicode="&#x1e81;" horiz-adv-x="1677" 
d="M244 0l-123 1065h248l71 -809h9l356 809h229l107 -809h8l326 809h247l-450 -1065h-301l-103 717l-321 -717h-303zM655 1470h228l170 -280h-228z" />
    <glyph glyph-name="Wacute" unicode="&#x1e82;" horiz-adv-x="2052" 
d="M340 0l-147 1434h274l84 -1055h12l465 1055h279l133 -1055h12l418 1055h278l-602 -1434h-282l-150 1094l-491 -1094h-283zM1053 1559l258 280h227l-256 -280h-229z" />
    <glyph glyph-name="wacute" unicode="&#x1e83;" horiz-adv-x="1677" 
d="M244 0l-123 1065h248l71 -809h9l356 809h229l107 -809h8l326 809h247l-450 -1065h-301l-103 717l-321 -717h-303zM805 1190l258 280h227l-256 -280h-229z" />
    <glyph glyph-name="Wdieresis" unicode="&#x1e84;" horiz-adv-x="2052" 
d="M340 0l-147 1434h274l84 -1055h12l465 1055h279l133 -1055h12l418 1055h278l-602 -1434h-282l-150 1094l-491 -1094h-283zM836 1726q0 61 44 103.5t105 42.5q59 0 103.5 -42.5t44.5 -103.5q0 -59 -44.5 -101t-103.5 -42q-61 0 -105 42t-44 101zM1296 1726
q0 61 44.5 103.5t103.5 42.5q60 0 103.5 -42.5t43.5 -103.5q0 -60 -43.5 -101.5t-103.5 -41.5q-59 0 -103.5 42t-44.5 101z" />
    <glyph glyph-name="wdieresis" unicode="&#x1e85;" horiz-adv-x="1677" 
d="M244 0l-123 1065h248l71 -809h9l356 809h229l107 -809h8l326 809h247l-450 -1065h-301l-103 717l-321 -717h-303zM588 1358q0 61 44 103t105 42q59 0 103.5 -42t44.5 -103q0 -59 -44.5 -101.5t-103.5 -42.5q-60 0 -104.5 42t-44.5 102zM1049 1358q0 61 44 103t103 42
q61 0 104 -42t43 -103q0 -60 -43.5 -102t-103.5 -42q-59 0 -103 42.5t-44 101.5z" />
    <glyph glyph-name="uni1E92" unicode="&#x1e92;" horiz-adv-x="1265" 
d="M-2 0l39 236l944 962h-772l39 236h1071l-37 -236l-948 -962h805l-39 -236h-1102zM356 -311q0 67 48 114t116 47t116 -47t48 -114q0 -66 -48 -113t-116 -47t-116 47t-48 113z" />
    <glyph glyph-name="uni1E93" unicode="&#x1e93;" horiz-adv-x="1036" 
d="M-2 0l35 221l661 623h-542l34 221h852l-34 -221l-662 -623h565l-37 -221h-872zM225 -311q0 67 48 114t116 47t116 -47t48 -114q0 -66 -48 -113t-116 -47t-116 47t-48 113z" />
    <glyph glyph-name="uni1E9E" unicode="&#x1e9e;" horiz-adv-x="1468" 
d="M825 -20q-216 0 -305 114t-57 326h252q-8 -52 2.5 -96t47.5 -75.5t99 -31.5q100 0 160.5 75.5t60.5 176.5q0 102 -71 158.5t-211 56.5h-199l402 533h-338q-96 0 -142.5 -43t-60.5 -136l-166 -1038h-274l170 1065q33 205 150 297t333 92h756l-435 -557q80 -10 146.5 -38
t118.5 -75.5t81 -121.5t29 -168q0 -226 -151 -370t-398 -144z" />
    <glyph glyph-name="uni1EA0" unicode="&#x1ea0;" horiz-adv-x="1472" 
d="M-47 0l756 1434h344l299 -1434h-279l-57 293h-625l-149 -293h-289zM444 -311q0 67 48 114t116 47t116 -47t48 -114q0 -66 -48 -113t-116 -47t-116 47t-48 113zM494 494h483l-129 663h-17z" />
    <glyph glyph-name="uni1EA1" unicode="&#x1ea1;" horiz-adv-x="1128" 
d="M311 -20q-63 0 -114 13.5t-93 42.5t-65 80t-23 120q0 291 418 354l205 28q78 10 109.5 28.5t39.5 55.5l7 29q15 84 -27 124t-141 40q-197 0 -228 -154l-4 -22l-248 -2l9 47q48 321 501 321q233 0 328 -85t66 -263l-117 -737h-250l31 190h-13q-12 -22 -29.5 -45t-52 -54
t-75.5 -54.5t-103 -40t-131 -16.5zM270 -311q0 67 48 114t116 47t116 -47t48 -114q0 -66 -48 -113t-116 -47t-116 47t-48 113zM283 285q0 -55 38 -85t113 -30q116 0 202 63.5t97 135.5l25 137q-4 -5 -9.5 -9t-10 -7.5t-12.5 -7t-13 -5.5t-15 -4.5t-15 -4t-17.5 -3.5
t-17.5 -3t-20 -3.5t-20 -3.5l-157 -23q-78 -11 -123 -48t-45 -99z" />
    <glyph glyph-name="uni1EA2" unicode="&#x1ea2;" horiz-adv-x="1472" 
d="M-47 0l756 1434h344l299 -1434h-279l-57 293h-625l-149 -293h-289zM494 494h483l-129 663h-17zM696 1735q0 104 61.5 154t145.5 50q90 0 152.5 -52.5t62.5 -151.5q0 -87 -54.5 -139t-137.5 -62l-52 108q97 3 97 82q0 36 -20 56t-50 20q-29 0 -48 -17t-22 -48h-135z" />
    <glyph glyph-name="uni1EA3" unicode="&#x1ea3;" horiz-adv-x="1128" 
d="M311 -20q-63 0 -114 13.5t-93 42.5t-65 80t-23 120q0 291 418 354l205 28q78 10 109.5 28.5t39.5 55.5l7 29q15 84 -27 124t-141 40q-197 0 -228 -154l-4 -22l-248 -2l9 47q48 321 501 321q233 0 328 -85t66 -263l-117 -737h-250l31 190h-13q-12 -22 -29.5 -45t-52 -54
t-75.5 -54.5t-103 -40t-131 -16.5zM283 285q0 -55 38 -85t113 -30q116 0 202 63.5t97 135.5l25 137q-4 -5 -9.5 -9t-10 -7.5t-12.5 -7t-13 -5.5t-15 -4.5t-15 -4t-17.5 -3.5t-17.5 -3t-20 -3.5t-20 -3.5l-157 -23q-78 -11 -123 -48t-45 -99zM467 1366q0 104 61.5 154.5
t145.5 50.5q90 0 152.5 -53t62.5 -152q0 -87 -55 -139t-138 -62l-51 109q96 3 96 82q0 36 -19.5 56t-49.5 20q-29 0 -48 -17.5t-22 -48.5h-135z" />
    <glyph glyph-name="uni1EA4" unicode="&#x1ea4;" horiz-adv-x="1472" 
d="M-47 0l756 1434h344l299 -1434h-279l-57 293h-625l-149 -293h-289zM494 494h483l-129 663h-17zM522 1556l240 283h375l149 -283h-246l-104 201l-166 -201h-248zM1231 1761l258 281h227l-256 -281h-229z" />
    <glyph glyph-name="uni1EA5" unicode="&#x1ea5;" horiz-adv-x="1128" 
d="M311 -20q-63 0 -114 13.5t-93 42.5t-65 80t-23 120q0 291 418 354l205 28q78 10 109.5 28.5t39.5 55.5l7 29q15 84 -27 124t-141 40q-197 0 -228 -154l-4 -22l-248 -2l9 47q48 321 501 321q233 0 328 -85t66 -263l-117 -737h-250l31 190h-13q-12 -22 -29.5 -45t-52 -54
t-75.5 -54.5t-103 -40t-131 -16.5zM283 285q0 -55 38 -85t113 -30q116 0 202 63.5t97 135.5l25 137q-4 -5 -9.5 -9t-10 -7.5t-12.5 -7t-13 -5.5t-15 -4.5t-15 -4t-17.5 -3.5t-17.5 -3t-20 -3.5t-20 -3.5l-157 -23q-78 -11 -123 -48t-45 -99zM291 1188l239 282h375l150 -282
h-246l-104 201l-166 -201h-248zM999 1393l258 280h228l-256 -280h-230z" />
    <glyph glyph-name="uni1EA6" unicode="&#x1ea6;" horiz-adv-x="1472" 
d="M-47 0l756 1434h344l299 -1434h-279l-57 293h-625l-149 -293h-289zM494 494h483l-129 663h-17zM522 1556l240 283h375l149 -283h-246l-104 201l-166 -201h-248zM1118 2042h228l137 -281h-228z" />
    <glyph glyph-name="uni1EA7" unicode="&#x1ea7;" horiz-adv-x="1128" 
d="M311 -20q-63 0 -114 13.5t-93 42.5t-65 80t-23 120q0 291 418 354l205 28q78 10 109.5 28.5t39.5 55.5l7 29q15 84 -27 124t-141 40q-197 0 -228 -154l-4 -22l-248 -2l9 47q48 321 501 321q233 0 328 -85t66 -263l-117 -737h-250l31 190h-13q-12 -22 -29.5 -45t-52 -54
t-75.5 -54.5t-103 -40t-131 -16.5zM283 285q0 -55 38 -85t113 -30q116 0 202 63.5t97 135.5l25 137q-4 -5 -9.5 -9t-10 -7.5t-12.5 -7t-13 -5.5t-15 -4.5t-15 -4t-17.5 -3.5t-17.5 -3t-20 -3.5t-20 -3.5l-157 -23q-78 -11 -123 -48t-45 -99zM291 1188l239 282h375l150 -282
h-246l-104 201l-166 -201h-248zM887 1673h227l137 -280h-227z" />
    <glyph glyph-name="uni1EA8" unicode="&#x1ea8;" horiz-adv-x="1472" 
d="M-47 0l756 1434h344l299 -1434h-279l-57 293h-625l-149 -293h-289zM494 494h483l-129 663h-17zM522 1556l240 283h375l149 -283h-246l-104 201l-166 -201h-248zM1051 1989q0 104 61 154t145 50q90 0 153 -52.5t63 -151.5q0 -87 -55 -139t-138 -62l-51 108q96 3 96 82
q0 36 -20 56t-50 20q-29 0 -47.5 -17t-21.5 -48h-135z" />
    <glyph glyph-name="uni1EA9" unicode="&#x1ea9;" horiz-adv-x="1128" 
d="M311 -20q-63 0 -114 13.5t-93 42.5t-65 80t-23 120q0 291 418 354l205 28q78 10 109.5 28.5t39.5 55.5l7 29q15 84 -27 124t-141 40q-197 0 -228 -154l-4 -22l-248 -2l9 47q48 321 501 321q233 0 328 -85t66 -263l-117 -737h-250l31 190h-13q-12 -22 -29.5 -45t-52 -54
t-75.5 -54.5t-103 -40t-131 -16.5zM283 285q0 -55 38 -85t113 -30q116 0 202 63.5t97 135.5l25 137q-4 -5 -9.5 -9t-10 -7.5t-12.5 -7t-13 -5.5t-15 -4.5t-15 -4t-17.5 -3.5t-17.5 -3t-20 -3.5t-20 -3.5l-157 -23q-78 -11 -123 -48t-45 -99zM291 1188l239 282h375l150 -282
h-246l-104 201l-166 -201h-248zM819 1620q0 104 61.5 154.5t145.5 50.5q90 0 152.5 -53t62.5 -152q0 -87 -54.5 -139t-137.5 -62l-52 109q97 3 97 82q0 36 -20 56t-50 20q-29 0 -48 -17.5t-22 -48.5h-135z" />
    <glyph glyph-name="uni1EAA" unicode="&#x1eaa;" horiz-adv-x="1472" 
d="M-47 0l756 1434h344l299 -1434h-279l-57 293h-625l-149 -293h-289zM494 494h483l-129 663h-17zM522 1556l240 283h375l149 -283h-246l-104 201l-166 -201h-248zM616 1970q13 107 74.5 166t155.5 59q43 0 77.5 -12.5t56 -30t40 -35t38.5 -30t42 -12.5q28 0 54 17t30 50
h155q-13 -107 -73 -166t-154 -59q-51 0 -91.5 19t-60.5 41.5t-47 41.5t-55 19q-29 0 -54.5 -17t-29.5 -51h-158z" />
    <glyph glyph-name="uni1EAB" unicode="&#x1eab;" horiz-adv-x="1128" 
d="M311 -20q-63 0 -114 13.5t-93 42.5t-65 80t-23 120q0 291 418 354l205 28q78 10 109.5 28.5t39.5 55.5l7 29q15 84 -27 124t-141 40q-197 0 -228 -154l-4 -22l-248 -2l9 47q48 321 501 321q233 0 328 -85t66 -263l-117 -737h-250l31 190h-13q-12 -22 -29.5 -45t-52 -54
t-75.5 -54.5t-103 -40t-131 -16.5zM283 285q0 -55 38 -85t113 -30q116 0 202 63.5t97 135.5l25 137q-4 -5 -9.5 -9t-10 -7.5t-12.5 -7t-13 -5.5t-15 -4.5t-15 -4t-17.5 -3.5t-17.5 -3t-20 -3.5t-20 -3.5l-157 -23q-78 -11 -123 -48t-45 -99zM291 1188l239 282h375l150 -282
h-246l-104 201l-166 -201h-248zM385 1602q13 107 74 166t155 59q52 0 93 -19t62 -41.5t47 -41.5t52 -19q28 0 54 17.5t30 50.5h156q-13 -107 -73 -166.5t-154 -59.5q-51 0 -91.5 19t-60.5 41.5t-47 41.5t-55 19q-29 0 -54.5 -16.5t-29.5 -50.5h-158z" />
    <glyph glyph-name="uni1EAC" unicode="&#x1eac;" horiz-adv-x="1472" 
d="M-47 0l756 1434h344l299 -1434h-279l-57 293h-625l-149 -293h-289zM444 -311q0 67 48 114t116 47t116 -47t48 -114q0 -66 -48 -113t-116 -47t-116 47t-48 113zM494 494h483l-129 663h-17zM522 1556l240 283h375l149 -283h-246l-104 201l-166 -201h-248z" />
    <glyph glyph-name="uni1EAD" unicode="&#x1ead;" horiz-adv-x="1128" 
d="M311 -20q-63 0 -114 13.5t-93 42.5t-65 80t-23 120q0 291 418 354l205 28q78 10 109.5 28.5t39.5 55.5l7 29q15 84 -27 124t-141 40q-197 0 -228 -154l-4 -22l-248 -2l9 47q48 321 501 321q233 0 328 -85t66 -263l-117 -737h-250l31 190h-13q-12 -22 -29.5 -45t-52 -54
t-75.5 -54.5t-103 -40t-131 -16.5zM270 -311q0 67 48 114t116 47t116 -47t48 -114q0 -66 -48 -113t-116 -47t-116 47t-48 113zM283 285q0 -55 38 -85t113 -30q116 0 202 63.5t97 135.5l25 137q-4 -5 -9.5 -9t-10 -7.5t-12.5 -7t-13 -5.5t-15 -4.5t-15 -4t-17.5 -3.5
t-17.5 -3t-20 -3.5t-20 -3.5l-157 -23q-78 -11 -123 -48t-45 -99zM291 1188l239 282h375l150 -282h-246l-104 201l-166 -201h-248z" />
    <glyph glyph-name="uni1EAE" unicode="&#x1eae;" horiz-adv-x="1472" 
d="M-47 0l756 1434h344l299 -1434h-279l-57 293h-625l-149 -293h-289zM494 494h483l-129 663h-17zM614 1839h174q-9 -149 140 -149q150 0 178 149h174q-23 -140 -116.5 -220.5t-256.5 -80.5q-165 0 -240 81.5t-53 219.5zM838 1903l258 280h227l-256 -280h-229z" />
    <glyph glyph-name="uni1EAF" unicode="&#x1eaf;" horiz-adv-x="1128" 
d="M311 -20q-63 0 -114 13.5t-93 42.5t-65 80t-23 120q0 291 418 354l205 28q78 10 109.5 28.5t39.5 55.5l7 29q15 84 -27 124t-141 40q-197 0 -228 -154l-4 -22l-248 -2l9 47q48 321 501 321q233 0 328 -85t66 -263l-117 -737h-250l31 190h-13q-12 -22 -29.5 -45t-52 -54
t-75.5 -54.5t-103 -40t-131 -16.5zM283 285q0 -55 38 -85t113 -30q116 0 202 63.5t97 135.5l25 137q-4 -5 -9.5 -9t-10 -7.5t-12.5 -7t-13 -5.5t-15 -4.5t-15 -4t-17.5 -3.5t-17.5 -3t-20 -3.5t-20 -3.5l-157 -23q-78 -11 -123 -48t-45 -99zM383 1470h174q-9 -149 139 -149
q150 0 178 149h175q-23 -140 -116.5 -220.5t-256.5 -80.5q-165 0 -240 81.5t-53 219.5zM606 1534l258 281h228l-256 -281h-230z" />
    <glyph glyph-name="uni1EB0" unicode="&#x1eb0;" horiz-adv-x="1472" 
d="M-47 0l756 1434h344l299 -1434h-279l-57 293h-625l-149 -293h-289zM494 494h483l-129 663h-17zM614 1839h174q-9 -149 140 -149q150 0 178 149h174q-23 -140 -116.5 -220.5t-256.5 -80.5q-165 0 -240 81.5t-53 219.5zM670 2183h227l170 -280h-227z" />
    <glyph glyph-name="uni1EB1" unicode="&#x1eb1;" horiz-adv-x="1128" 
d="M311 -20q-63 0 -114 13.5t-93 42.5t-65 80t-23 120q0 291 418 354l205 28q78 10 109.5 28.5t39.5 55.5l7 29q15 84 -27 124t-141 40q-197 0 -228 -154l-4 -22l-248 -2l9 47q48 321 501 321q233 0 328 -85t66 -263l-117 -737h-250l31 190h-13q-12 -22 -29.5 -45t-52 -54
t-75.5 -54.5t-103 -40t-131 -16.5zM283 285q0 -55 38 -85t113 -30q116 0 202 63.5t97 135.5l25 137q-4 -5 -9.5 -9t-10 -7.5t-12.5 -7t-13 -5.5t-15 -4.5t-15 -4t-17.5 -3.5t-17.5 -3t-20 -3.5t-20 -3.5l-157 -23q-78 -11 -123 -48t-45 -99zM383 1470h174q-9 -149 139 -149
q150 0 178 149h175q-23 -140 -116.5 -220.5t-256.5 -80.5q-165 0 -240 81.5t-53 219.5zM438 1815h228l170 -281h-228z" />
    <glyph glyph-name="uni1EB2" unicode="&#x1eb2;" horiz-adv-x="1472" 
d="M-47 0l756 1434h344l299 -1434h-279l-57 293h-625l-149 -293h-289zM494 494h483l-129 663h-17zM614 1839h174q-9 -149 140 -149q150 0 178 149h174q-23 -140 -116.5 -220.5t-256.5 -80.5q-165 0 -240 81.5t-53 219.5zM678 2003q0 104 61.5 154.5t145.5 50.5
q90 0 152.5 -53t62.5 -152q0 -87 -55 -139t-138 -62l-51 109q96 3 96 82q0 36 -19.5 55.5t-49.5 19.5q-29 0 -48 -17t-22 -48h-135z" />
    <glyph glyph-name="uni1EB3" unicode="&#x1eb3;" horiz-adv-x="1128" 
d="M311 -20q-63 0 -114 13.5t-93 42.5t-65 80t-23 120q0 291 418 354l205 28q78 10 109.5 28.5t39.5 55.5l7 29q15 84 -27 124t-141 40q-197 0 -228 -154l-4 -22l-248 -2l9 47q48 321 501 321q233 0 328 -85t66 -263l-117 -737h-250l31 190h-13q-12 -22 -29.5 -45t-52 -54
t-75.5 -54.5t-103 -40t-131 -16.5zM283 285q0 -55 38 -85t113 -30q116 0 202 63.5t97 135.5l25 137q-4 -5 -9.5 -9t-10 -7.5t-12.5 -7t-13 -5.5t-15 -4.5t-15 -4t-17.5 -3.5t-17.5 -3t-20 -3.5t-20 -3.5l-157 -23q-78 -11 -123 -48t-45 -99zM383 1470h174q-9 -149 139 -149
q150 0 178 149h175q-23 -140 -116.5 -220.5t-256.5 -80.5q-165 0 -240 81.5t-53 219.5zM446 1634q0 104 61.5 154.5t145.5 50.5q90 0 152.5 -53t62.5 -152q0 -87 -54.5 -138.5t-137.5 -61.5l-51 108q96 3 96 82q0 36 -20 56t-50 20q-28 0 -47 -17t-22 -49h-136z" />
    <glyph glyph-name="uni1EB4" unicode="&#x1eb4;" horiz-adv-x="1472" 
d="M-47 0l756 1434h344l299 -1434h-279l-57 293h-625l-149 -293h-289zM494 494h483l-129 663h-17zM614 1839h174q-9 -149 140 -149q150 0 178 149h174q-23 -140 -116.5 -220.5t-256.5 -80.5q-165 0 -240 81.5t-53 219.5zM621 1980q13 107 74 166.5t155 59.5q52 0 93 -19
t62 -41.5t47 -41.5t52 -19q28 0 54 17t30 50h155q-13 -107 -73 -166t-154 -59q-51 0 -91.5 19t-60.5 41.5t-47 41.5t-55 19q-29 0 -54.5 -17t-29.5 -51h-157z" />
    <glyph glyph-name="uni1EB5" unicode="&#x1eb5;" horiz-adv-x="1128" 
d="M311 -20q-63 0 -114 13.5t-93 42.5t-65 80t-23 120q0 291 418 354l205 28q78 10 109.5 28.5t39.5 55.5l7 29q15 84 -27 124t-141 40q-197 0 -228 -154l-4 -22l-248 -2l9 47q48 321 501 321q233 0 328 -85t66 -263l-117 -737h-250l31 190h-13q-12 -22 -29.5 -45t-52 -54
t-75.5 -54.5t-103 -40t-131 -16.5zM283 285q0 -55 38 -85t113 -30q116 0 202 63.5t97 135.5l25 137q-4 -5 -9.5 -9t-10 -7.5t-12.5 -7t-13 -5.5t-15 -4.5t-15 -4t-17.5 -3.5t-17.5 -3t-20 -3.5t-20 -3.5l-157 -23q-78 -11 -123 -48t-45 -99zM383 1470h174q-9 -149 139 -149
q150 0 178 149h175q-23 -140 -116.5 -220.5t-256.5 -80.5q-165 0 -240 81.5t-53 219.5zM389 1612q13 107 74 166t155 59q52 0 93 -19t62 -41.5t47 -41.5t52 -19q28 0 54 17.5t30 50.5h156q-13 -107 -73 -166t-154 -59q-42 0 -76 12.5t-55 30t-39.5 35t-39.5 30t-44 12.5
q-29 0 -54.5 -16.5t-29.5 -50.5h-158z" />
    <glyph glyph-name="uni1EB6" unicode="&#x1eb6;" horiz-adv-x="1472" 
d="M-47 0l756 1434h344l299 -1434h-279l-57 293h-625l-149 -293h-289zM444 -311q0 67 48 114t116 47t116 -47t48 -114q0 -66 -48 -113t-116 -47t-116 47t-48 113zM494 494h483l-129 663h-17zM614 1839h174q-9 -149 140 -149q150 0 178 149h174q-23 -140 -116.5 -220.5
t-256.5 -80.5q-165 0 -240 81.5t-53 219.5z" />
    <glyph glyph-name="uni1EB7" unicode="&#x1eb7;" horiz-adv-x="1128" 
d="M311 -20q-63 0 -114 13.5t-93 42.5t-65 80t-23 120q0 291 418 354l205 28q78 10 109.5 28.5t39.5 55.5l7 29q15 84 -27 124t-141 40q-197 0 -228 -154l-4 -22l-248 -2l9 47q48 321 501 321q233 0 328 -85t66 -263l-117 -737h-250l31 190h-13q-12 -22 -29.5 -45t-52 -54
t-75.5 -54.5t-103 -40t-131 -16.5zM270 -311q0 67 48 114t116 47t116 -47t48 -114q0 -66 -48 -113t-116 -47t-116 47t-48 113zM283 285q0 -55 38 -85t113 -30q116 0 202 63.5t97 135.5l25 137q-4 -5 -9.5 -9t-10 -7.5t-12.5 -7t-13 -5.5t-15 -4.5t-15 -4t-17.5 -3.5
t-17.5 -3t-20 -3.5t-20 -3.5l-157 -23q-78 -11 -123 -48t-45 -99zM383 1470h174q-9 -149 139 -149q150 0 178 149h175q-23 -140 -116.5 -220.5t-256.5 -80.5q-165 0 -240 81.5t-53 219.5z" />
    <glyph glyph-name="uni1EB8" unicode="&#x1eb8;" horiz-adv-x="1148" 
d="M25 0l229 1434h960l-38 -236h-693l-59 -364h631l-33 -211h-631l-57 -387h710l-36 -236h-983zM313 -311q0 67 48 114t116 47t116 -47t48 -114q0 -66 -48 -113t-116 -47t-116 47t-48 113z" />
    <glyph glyph-name="uni1EB9" unicode="&#x1eb9;" horiz-adv-x="1138" 
d="M504 -27q-96 0 -175 25.5t-142 78.5t-98.5 144.5t-35.5 214.5q0 133 41.5 251t117.5 206.5t191 140t254 51.5q197 0 315 -102t118 -315q0 -132 -31 -203h-760v-12q0 -152 60 -216.5t180 -64.5q96 0 158.5 39t101.5 119h231q-69 -178 -205.5 -267.5t-320.5 -89.5z
M279 -311q0 67 47.5 114t115.5 47t116 -47t48 -114q0 -66 -48 -113t-116 -47q-67 0 -115 47t-48 113zM315 610h529q21 125 -35 200t-182 75q-128 0 -205 -75t-107 -200z" />
    <glyph glyph-name="uni1EBA" unicode="&#x1eba;" horiz-adv-x="1148" 
d="M25 0l229 1434h960l-38 -236h-693l-59 -364h631l-33 -211h-631l-57 -387h710l-36 -236h-983zM565 1735q0 104 61.5 154t145.5 50q90 0 152.5 -52.5t62.5 -151.5q0 -87 -54.5 -139t-137.5 -62l-52 108q97 3 97 82q0 36 -20 56t-50 20q-29 0 -48 -17t-22 -48h-135z" />
    <glyph glyph-name="uni1EBB" unicode="&#x1ebb;" horiz-adv-x="1138" 
d="M504 -27q-96 0 -175 25.5t-142 78.5t-98.5 144.5t-35.5 214.5q0 133 41.5 251t117.5 206.5t191 140t254 51.5q197 0 315 -102t118 -315q0 -132 -31 -203h-760v-12q0 -152 60 -216.5t180 -64.5q96 0 158.5 39t101.5 119h231q-69 -178 -205.5 -267.5t-320.5 -89.5zM315 610
h529q21 125 -35 200t-182 75q-128 0 -205 -75t-107 -200zM467 1366q0 104 61.5 154.5t145.5 50.5q90 0 152.5 -53t62.5 -152q0 -87 -55 -139t-138 -62l-51 109q96 3 96 82q0 36 -19.5 56t-49.5 20q-29 0 -48 -17.5t-22 -48.5h-135z" />
    <glyph glyph-name="uni1EBC" unicode="&#x1ebc;" horiz-adv-x="1148" 
d="M25 0l229 1434h960l-38 -236h-693l-59 -364h631l-33 -211h-631l-57 -387h710l-36 -236h-983zM434 1636q13 107 74.5 166.5t155.5 59.5q52 0 93 -19t62 -41.5t47 -41.5t52 -19q28 0 53.5 17t29.5 50h156q-13 -107 -73 -166t-154 -59q-51 0 -91.5 19t-60.5 41.5t-47 41.5
t-55 19q-29 0 -54.5 -17t-29.5 -51h-158z" />
    <glyph glyph-name="uni1EBD" unicode="&#x1ebd;" horiz-adv-x="1138" 
d="M504 -27q-96 0 -175 25.5t-142 78.5t-98.5 144.5t-35.5 214.5q0 133 41.5 251t117.5 206.5t191 140t254 51.5q197 0 315 -102t118 -315q0 -132 -31 -203h-760v-12q0 -152 60 -216.5t180 -64.5q96 0 158.5 39t101.5 119h231q-69 -178 -205.5 -267.5t-320.5 -89.5zM315 610
h529q21 125 -35 200t-182 75q-128 0 -205 -75t-107 -200zM336 1268q13 107 74 166t155 59q52 0 93 -19t62 -41.5t47 -41.5t52 -19q28 0 54 17.5t30 50.5h156q-13 -107 -73.5 -166.5t-154.5 -59.5q-51 0 -91 19t-60.5 41.5t-47 41.5t-54.5 19q-29 0 -54.5 -16.5t-29.5 -50.5
h-158z" />
    <glyph glyph-name="uni1EBE" unicode="&#x1ebe;" horiz-adv-x="1148" 
d="M25 0l229 1434h960l-38 -236h-693l-59 -364h631l-33 -211h-631l-57 -387h710l-36 -236h-983zM391 1556l240 283h375l149 -283h-246l-104 201l-166 -201h-248zM1100 1761l258 281h227l-256 -281h-229z" />
    <glyph glyph-name="uni1EBF" unicode="&#x1ebf;" horiz-adv-x="1138" 
d="M504 -27q-96 0 -175 25.5t-142 78.5t-98.5 144.5t-35.5 214.5q0 133 41.5 251t117.5 206.5t191 140t254 51.5q197 0 315 -102t118 -315q0 -132 -31 -203h-760v-12q0 -152 60 -216.5t180 -64.5q96 0 158.5 39t101.5 119h231q-69 -178 -205.5 -267.5t-320.5 -89.5z
M293 1188l239 282h375l150 -282h-246l-104 201l-166 -201h-248zM315 610h529q21 125 -35 200t-182 75q-128 0 -205 -75t-107 -200zM1001 1393l259 280h227l-256 -280h-230z" />
    <glyph glyph-name="uni1EC0" unicode="&#x1ec0;" horiz-adv-x="1148" 
d="M25 0l229 1434h960l-38 -236h-693l-59 -364h631l-33 -211h-631l-57 -387h710l-36 -236h-983zM391 1556l240 283h375l149 -283h-246l-104 201l-166 -201h-248zM987 2042h227l138 -281h-228z" />
    <glyph glyph-name="uni1EC1" unicode="&#x1ec1;" horiz-adv-x="1138" 
d="M504 -27q-96 0 -175 25.5t-142 78.5t-98.5 144.5t-35.5 214.5q0 133 41.5 251t117.5 206.5t191 140t254 51.5q197 0 315 -102t118 -315q0 -132 -31 -203h-760v-12q0 -152 60 -216.5t180 -64.5q96 0 158.5 39t101.5 119h231q-69 -178 -205.5 -267.5t-320.5 -89.5z
M293 1188l239 282h375l150 -282h-246l-104 201l-166 -201h-248zM315 610h529q21 125 -35 200t-182 75q-128 0 -205 -75t-107 -200zM889 1673h227l137 -280h-227z" />
    <glyph glyph-name="uni1EC2" unicode="&#x1ec2;" horiz-adv-x="1148" 
d="M25 0l229 1434h960l-38 -236h-693l-59 -364h631l-33 -211h-631l-57 -387h710l-36 -236h-983zM391 1556l240 283h375l149 -283h-246l-104 201l-166 -201h-248zM920 1989q0 104 61 154t145 50q90 0 152.5 -52.5t62.5 -151.5q0 -87 -54.5 -139t-137.5 -62l-51 108
q96 3 96 82q0 36 -20 56t-50 20q-29 0 -47.5 -17t-21.5 -48h-135z" />
    <glyph glyph-name="uni1EC3" unicode="&#x1ec3;" horiz-adv-x="1138" 
d="M504 -27q-96 0 -175 25.5t-142 78.5t-98.5 144.5t-35.5 214.5q0 133 41.5 251t117.5 206.5t191 140t254 51.5q197 0 315 -102t118 -315q0 -132 -31 -203h-760v-12q0 -152 60 -216.5t180 -64.5q96 0 158.5 39t101.5 119h231q-69 -178 -205.5 -267.5t-320.5 -89.5z
M293 1188l239 282h375l150 -282h-246l-104 201l-166 -201h-248zM315 610h529q21 125 -35 200t-182 75q-128 0 -205 -75t-107 -200zM821 1620q0 104 61.5 154.5t145.5 50.5q90 0 152.5 -53t62.5 -152q0 -87 -54.5 -139t-137.5 -62l-52 109q97 3 97 82q0 36 -20 56t-50 20
q-29 0 -48 -17.5t-22 -48.5h-135z" />
    <glyph glyph-name="uni1EC4" unicode="&#x1ec4;" horiz-adv-x="1148" 
d="M25 0l229 1434h960l-38 -236h-693l-59 -364h631l-33 -211h-631l-57 -387h710l-36 -236h-983zM391 1556l240 283h375l149 -283h-246l-104 201l-166 -201h-248zM485 1970q13 107 74.5 166t155.5 59q43 0 77.5 -12.5t56 -30t40 -35t38.5 -30t42 -12.5q28 0 54 17t30 50h155
q-13 -107 -73 -166t-154 -59q-51 0 -91.5 19t-60.5 41.5t-47 41.5t-55 19q-29 0 -54.5 -17t-29.5 -51h-158z" />
    <glyph glyph-name="uni1EC5" unicode="&#x1ec5;" horiz-adv-x="1138" 
d="M504 -27q-96 0 -175 25.5t-142 78.5t-98.5 144.5t-35.5 214.5q0 133 41.5 251t117.5 206.5t191 140t254 51.5q197 0 315 -102t118 -315q0 -132 -31 -203h-760v-12q0 -152 60 -216.5t180 -64.5q96 0 158.5 39t101.5 119h231q-69 -178 -205.5 -267.5t-320.5 -89.5z
M293 1188l239 282h375l150 -282h-246l-104 201l-166 -201h-248zM315 610h529q21 125 -35 200t-182 75q-128 0 -205 -75t-107 -200zM387 1602q13 107 74 166t155 59q52 0 93 -19t62 -41.5t47 -41.5t52 -19q28 0 54 17.5t30 50.5h156q-13 -107 -73 -166.5t-154 -59.5
q-51 0 -91.5 19t-60.5 41.5t-47 41.5t-55 19q-29 0 -54.5 -16.5t-29.5 -50.5h-158z" />
    <glyph glyph-name="uni1EC6" unicode="&#x1ec6;" horiz-adv-x="1148" 
d="M25 0l229 1434h960l-38 -236h-693l-59 -364h631l-33 -211h-631l-57 -387h710l-36 -236h-983zM313 -311q0 67 48 114t116 47t116 -47t48 -114q0 -66 -48 -113t-116 -47t-116 47t-48 113zM391 1556l240 283h375l149 -283h-246l-104 201l-166 -201h-248z" />
    <glyph glyph-name="uni1EC7" unicode="&#x1ec7;" horiz-adv-x="1138" 
d="M504 -27q-96 0 -175 25.5t-142 78.5t-98.5 144.5t-35.5 214.5q0 133 41.5 251t117.5 206.5t191 140t254 51.5q197 0 315 -102t118 -315q0 -132 -31 -203h-760v-12q0 -152 60 -216.5t180 -64.5q96 0 158.5 39t101.5 119h231q-69 -178 -205.5 -267.5t-320.5 -89.5z
M279 -311q0 67 47.5 114t115.5 47t116 -47t48 -114q0 -66 -48 -113t-116 -47q-67 0 -115 47t-48 113zM293 1188l239 282h375l150 -282h-246l-104 201l-166 -201h-248zM315 610h529q21 125 -35 200t-182 75q-128 0 -205 -75t-107 -200z" />
    <glyph glyph-name="uni1EC8" unicode="&#x1ec8;" horiz-adv-x="487" 
d="M25 0l229 1434h268l-227 -1434h-270zM199 1735q0 104 61.5 154t145.5 50q90 0 152.5 -52.5t62.5 -151.5q0 -87 -55 -139t-138 -62l-51 108q96 3 96 82q0 36 -20 56t-50 20q-29 0 -47.5 -17t-21.5 -48h-135z" />
    <glyph glyph-name="uni1EC9" unicode="&#x1ec9;" horiz-adv-x="446" 
d="M6 0l168 1065h262l-168 -1065h-262zM119 1366q0 104 61.5 154.5t145.5 50.5q90 0 152.5 -53t62.5 -152q0 -87 -55 -139t-138 -62l-51 109q96 3 96 82q0 36 -19.5 56t-49.5 20q-29 0 -48 -17.5t-22 -48.5h-135z" />
    <glyph glyph-name="uni1ECA" unicode="&#x1eca;" horiz-adv-x="487" 
d="M25 0l229 1434h268l-227 -1434h-270zM-53 -311q0 67 48 114t116 47t115.5 -47t47.5 -114q0 -66 -48 -113t-115 -47q-68 0 -116 47t-48 113z" />
    <glyph glyph-name="uni1ECB" unicode="&#x1ecb;" horiz-adv-x="481" 
d="M25 0l170 1065h262l-168 -1065h-264zM-31 -311q0 67 48 114t116 47t116 -47t48 -114q0 -66 -48 -113t-116 -47t-116 47t-48 113zM223 1358q0 61 43.5 103t104.5 42q59 0 103 -42t44 -103q0 -59 -44 -101.5t-103 -42.5q-60 0 -104 42t-44 102z" />
    <glyph glyph-name="uni1ECC" unicode="&#x1ecc;" horiz-adv-x="1497" 
d="M678 -20q-269 0 -423.5 161t-154.5 449q0 137 35 265.5t103 236.5t161 188.5t216 126t262 45.5q270 0 423.5 -160t153.5 -448q0 -172 -55.5 -328.5t-154.5 -275.5t-246 -189.5t-320 -70.5zM375 598q0 -191 84 -288t239 -97q114 0 208 55t152.5 145t90 200t31.5 225
q0 189 -84 285t-238 96q-114 0 -208 -54t-153 -143t-90.5 -198.5t-31.5 -225.5zM463 -311q0 67 48 114t116 47t116 -47t48 -114q0 -66 -48 -113t-116 -47t-116 47t-48 113z" />
    <glyph glyph-name="uni1ECD" unicode="&#x1ecd;" horiz-adv-x="1173" 
d="M504 -20q-94 0 -174 27t-142.5 80.5t-98.5 142.5t-36 204q0 175 76.5 323t219 238t321.5 90q94 0 173.5 -27t142.5 -80.5t98.5 -142.5t35.5 -204q0 -175 -76.5 -323t-218.5 -238t-321 -90zM291 -311q0 67 48 114t116 47t115.5 -47t47.5 -114q0 -66 -48 -113t-115 -47
q-68 0 -116 47t-48 113zM305 461q0 -133 63.5 -197.5t168.5 -64.5q103 0 180 60t114 150.5t37 194.5q0 133 -63 197.5t-168 64.5q-103 0 -180.5 -60t-114.5 -151t-37 -194z" />
    <glyph glyph-name="uni1ECE" unicode="&#x1ece;" horiz-adv-x="1497" 
d="M678 -20q-269 0 -423.5 161t-154.5 449q0 137 35 265.5t103 236.5t161 188.5t216 126t262 45.5q270 0 423.5 -160t153.5 -448q0 -172 -55.5 -328.5t-154.5 -275.5t-246 -189.5t-320 -70.5zM375 598q0 -191 84 -288t239 -97q114 0 208 55t152.5 145t90 200t31.5 225
q0 189 -84 285t-238 96q-114 0 -208 -54t-153 -143t-90.5 -198.5t-31.5 -225.5zM705 1735q0 104 61 154t145 50q90 0 152.5 -52.5t62.5 -151.5q0 -87 -54.5 -139t-137.5 -62l-51 108q96 3 96 82q0 36 -20 56t-50 20q-29 0 -47.5 -17t-21.5 -48h-135z" />
    <glyph glyph-name="uni1ECF" unicode="&#x1ecf;" horiz-adv-x="1173" 
d="M504 -20q-94 0 -174 27t-142.5 80.5t-98.5 142.5t-36 204q0 175 76.5 323t219 238t321.5 90q94 0 173.5 -27t142.5 -80.5t98.5 -142.5t35.5 -204q0 -175 -76.5 -323t-218.5 -238t-321 -90zM305 461q0 -133 63.5 -197.5t168.5 -64.5q103 0 180 60t114 150.5t37 194.5
q0 133 -63 197.5t-168 64.5q-103 0 -180.5 -60t-114.5 -151t-37 -194zM483 1366q0 104 61.5 154.5t145.5 50.5q90 0 152.5 -53t62.5 -152q0 -87 -54.5 -139t-137.5 -62l-51 109q96 3 96 82q0 36 -20 56t-50 20q-29 0 -48 -17.5t-22 -48.5h-135z" />
    <glyph glyph-name="uni1ED0" unicode="&#x1ed0;" horiz-adv-x="1497" 
d="M678 -20q-269 0 -423.5 161t-154.5 449q0 137 35 265.5t103 236.5t161 188.5t216 126t262 45.5q270 0 423.5 -160t153.5 -448q0 -172 -55.5 -328.5t-154.5 -275.5t-246 -189.5t-320 -70.5zM375 598q0 -191 84 -288t239 -97q114 0 208 55t152.5 145t90 200t31.5 225
q0 189 -84 285t-238 96q-114 0 -208 -54t-153 -143t-90.5 -198.5t-31.5 -225.5zM530 1556l240 283h375l149 -283h-245l-105 201l-166 -201h-248zM1239 1761l258 281h227l-256 -281h-229z" />
    <glyph glyph-name="uni1ED1" unicode="&#x1ed1;" horiz-adv-x="1173" 
d="M504 -20q-94 0 -174 27t-142.5 80.5t-98.5 142.5t-36 204q0 175 76.5 323t219 238t321.5 90q94 0 173.5 -27t142.5 -80.5t98.5 -142.5t35.5 -204q0 -175 -76.5 -323t-218.5 -238t-321 -90zM305 461q0 -133 63.5 -197.5t168.5 -64.5q103 0 180 60t114 150.5t37 194.5
q0 133 -63 197.5t-168 64.5q-103 0 -180.5 -60t-114.5 -151t-37 -194zM309 1188l240 282h375l149 -282h-246l-104 201l-166 -201h-248zM1018 1393l258 280h227l-256 -280h-229z" />
    <glyph glyph-name="uni1ED2" unicode="&#x1ed2;" horiz-adv-x="1497" 
d="M678 -20q-269 0 -423.5 161t-154.5 449q0 137 35 265.5t103 236.5t161 188.5t216 126t262 45.5q270 0 423.5 -160t153.5 -448q0 -172 -55.5 -328.5t-154.5 -275.5t-246 -189.5t-320 -70.5zM375 598q0 -191 84 -288t239 -97q114 0 208 55t152.5 145t90 200t31.5 225
q0 189 -84 285t-238 96q-114 0 -208 -54t-153 -143t-90.5 -198.5t-31.5 -225.5zM530 1556l240 283h375l149 -283h-245l-105 201l-166 -201h-248zM1126 2042h228l137 -281h-227z" />
    <glyph glyph-name="uni1ED3" unicode="&#x1ed3;" horiz-adv-x="1173" 
d="M504 -20q-94 0 -174 27t-142.5 80.5t-98.5 142.5t-36 204q0 175 76.5 323t219 238t321.5 90q94 0 173.5 -27t142.5 -80.5t98.5 -142.5t35.5 -204q0 -175 -76.5 -323t-218.5 -238t-321 -90zM305 461q0 -133 63.5 -197.5t168.5 -64.5q103 0 180 60t114 150.5t37 194.5
q0 133 -63 197.5t-168 64.5q-103 0 -180.5 -60t-114.5 -151t-37 -194zM309 1188l240 282h375l149 -282h-246l-104 201l-166 -201h-248zM905 1673h228l137 -280h-228z" />
    <glyph glyph-name="uni1ED4" unicode="&#x1ed4;" horiz-adv-x="1497" 
d="M678 -20q-269 0 -423.5 161t-154.5 449q0 137 35 265.5t103 236.5t161 188.5t216 126t262 45.5q270 0 423.5 -160t153.5 -448q0 -172 -55.5 -328.5t-154.5 -275.5t-246 -189.5t-320 -70.5zM375 598q0 -191 84 -288t239 -97q114 0 208 55t152.5 145t90 200t31.5 225
q0 189 -84 285t-238 96q-114 0 -208 -54t-153 -143t-90.5 -198.5t-31.5 -225.5zM530 1556l240 283h375l149 -283h-245l-105 201l-166 -201h-248zM1059 1989q0 104 61.5 154t145.5 50q90 0 152.5 -52.5t62.5 -151.5q0 -87 -55 -139t-138 -62l-51 108q96 3 96 82
q0 36 -19.5 56t-49.5 20q-29 0 -48 -17t-22 -48h-135z" />
    <glyph glyph-name="uni1ED5" unicode="&#x1ed5;" horiz-adv-x="1173" 
d="M504 -20q-94 0 -174 27t-142.5 80.5t-98.5 142.5t-36 204q0 175 76.5 323t219 238t321.5 90q94 0 173.5 -27t142.5 -80.5t98.5 -142.5t35.5 -204q0 -175 -76.5 -323t-218.5 -238t-321 -90zM305 461q0 -133 63.5 -197.5t168.5 -64.5q103 0 180 60t114 150.5t37 194.5
q0 133 -63 197.5t-168 64.5q-103 0 -180.5 -60t-114.5 -151t-37 -194zM309 1188l240 282h375l149 -282h-246l-104 201l-166 -201h-248zM838 1620q0 104 61 154.5t145 50.5q90 0 153 -53t63 -152q0 -87 -55 -139t-138 -62l-51 109q96 3 96 82q0 36 -20 56t-50 20
q-28 0 -47 -17t-22 -49h-135z" />
    <glyph glyph-name="uni1ED6" unicode="&#x1ed6;" horiz-adv-x="1497" 
d="M678 -20q-269 0 -423.5 161t-154.5 449q0 137 35 265.5t103 236.5t161 188.5t216 126t262 45.5q270 0 423.5 -160t153.5 -448q0 -172 -55.5 -328.5t-154.5 -275.5t-246 -189.5t-320 -70.5zM375 598q0 -191 84 -288t239 -97q114 0 208 55t152.5 145t90 200t31.5 225
q0 189 -84 285t-238 96q-114 0 -208 -54t-153 -143t-90.5 -198.5t-31.5 -225.5zM530 1556l240 283h375l149 -283h-245l-105 201l-166 -201h-248zM625 1970q13 107 74 166t155 59q43 0 77.5 -12.5t56 -30t40 -35t38.5 -30t42 -12.5q28 0 54 17t30 50h156q-13 -107 -73.5 -166
t-154.5 -59q-51 0 -91.5 19t-60.5 41.5t-47 41.5t-55 19q-29 0 -54.5 -17t-29.5 -51h-157z" />
    <glyph glyph-name="uni1ED7" unicode="&#x1ed7;" horiz-adv-x="1173" 
d="M504 -20q-94 0 -174 27t-142.5 80.5t-98.5 142.5t-36 204q0 175 76.5 323t219 238t321.5 90q94 0 173.5 -27t142.5 -80.5t98.5 -142.5t35.5 -204q0 -175 -76.5 -323t-218.5 -238t-321 -90zM305 461q0 -133 63.5 -197.5t168.5 -64.5q103 0 180 60t114 150.5t37 194.5
q0 133 -63 197.5t-168 64.5q-103 0 -180.5 -60t-114.5 -151t-37 -194zM309 1188l240 282h375l149 -282h-246l-104 201l-166 -201h-248zM403 1602q13 107 74.5 166t155.5 59q52 0 93 -19t62 -41.5t47 -41.5t52 -19q28 0 54 17.5t30 50.5h155q-13 -107 -73 -166.5t-154 -59.5
q-51 0 -91.5 19t-60.5 41.5t-47 41.5t-55 19q-29 0 -54.5 -16.5t-29.5 -50.5h-158z" />
    <glyph glyph-name="uni1ED8" unicode="&#x1ed8;" horiz-adv-x="1497" 
d="M678 -20q-269 0 -423.5 161t-154.5 449q0 137 35 265.5t103 236.5t161 188.5t216 126t262 45.5q270 0 423.5 -160t153.5 -448q0 -172 -55.5 -328.5t-154.5 -275.5t-246 -189.5t-320 -70.5zM375 598q0 -191 84 -288t239 -97q114 0 208 55t152.5 145t90 200t31.5 225
q0 189 -84 285t-238 96q-114 0 -208 -54t-153 -143t-90.5 -198.5t-31.5 -225.5zM463 -311q0 67 48 114t116 47t116 -47t48 -114q0 -66 -48 -113t-116 -47t-116 47t-48 113zM530 1556l240 283h375l149 -283h-245l-105 201l-166 -201h-248z" />
    <glyph glyph-name="uni1ED9" unicode="&#x1ed9;" horiz-adv-x="1173" 
d="M504 -20q-94 0 -174 27t-142.5 80.5t-98.5 142.5t-36 204q0 175 76.5 323t219 238t321.5 90q94 0 173.5 -27t142.5 -80.5t98.5 -142.5t35.5 -204q0 -175 -76.5 -323t-218.5 -238t-321 -90zM291 -311q0 67 48 114t116 47t115.5 -47t47.5 -114q0 -66 -48 -113t-115 -47
q-68 0 -116 47t-48 113zM305 461q0 -133 63.5 -197.5t168.5 -64.5q103 0 180 60t114 150.5t37 194.5q0 133 -63 197.5t-168 64.5q-103 0 -180.5 -60t-114.5 -151t-37 -194zM309 1188l240 282h375l149 -282h-246l-104 201l-166 -201h-248z" />
    <glyph glyph-name="uni1EDA" unicode="&#x1eda;" horiz-adv-x="1497" 
d="M678 -20q-269 0 -423.5 161t-154.5 449q0 137 35 265.5t103 236.5t161 188.5t216 126t262 45.5h2h471l26 162h223l-57 -363h-207q119 -153 119 -407q0 -172 -55.5 -328.5t-154.5 -275.5t-246 -189.5t-320 -70.5zM375 598q0 -191 84 -288t239 -97q114 0 208 55t152.5 145
t90 200t31.5 225q0 189 -84 285t-238 96q-114 0 -208 -54t-153 -143t-90.5 -198.5t-31.5 -225.5zM793 1559l258 280h227l-256 -280h-229z" />
    <glyph glyph-name="uni1EDB" unicode="&#x1edb;" horiz-adv-x="1173" 
d="M504 -20q-94 0 -174 27t-142.5 80.5t-98.5 142.5t-36 204q0 175 76.5 323t219 238t321.5 90h346l24 160h209l-57 -360h-131q59 -108 59 -254q0 -175 -76.5 -323t-218.5 -238t-321 -90zM305 461q0 -133 63.5 -197.5t168.5 -64.5q103 0 180 60t114 150.5t37 194.5
q0 133 -63 197.5t-168 64.5q-103 0 -180.5 -60t-114.5 -151t-37 -194zM571 1190l258 280h228l-256 -280h-230z" />
    <glyph glyph-name="uni1EDC" unicode="&#x1edc;" horiz-adv-x="1497" 
d="M678 -20q-269 0 -423.5 161t-154.5 449q0 137 35 265.5t103 236.5t161 188.5t216 126t262 45.5h2h471l26 162h223l-57 -363h-207q119 -153 119 -407q0 -172 -55.5 -328.5t-154.5 -275.5t-246 -189.5t-320 -70.5zM375 598q0 -191 84 -288t239 -97q114 0 208 55t152.5 145
t90 200t31.5 225q0 189 -84 285t-238 96q-114 0 -208 -54t-153 -143t-90.5 -198.5t-31.5 -225.5zM625 1839h227l170 -280h-227z" />
    <glyph glyph-name="uni1EDD" unicode="&#x1edd;" horiz-adv-x="1173" 
d="M504 -20q-94 0 -174 27t-142.5 80.5t-98.5 142.5t-36 204q0 175 76.5 323t219 238t321.5 90h346l24 160h209l-57 -360h-131q59 -108 59 -254q0 -175 -76.5 -323t-218.5 -238t-321 -90zM305 461q0 -133 63.5 -197.5t168.5 -64.5q103 0 180 60t114 150.5t37 194.5
q0 133 -63 197.5t-168 64.5q-103 0 -180.5 -60t-114.5 -151t-37 -194zM403 1470h228l170 -280h-228z" />
    <glyph glyph-name="uni1EDE" unicode="&#x1ede;" horiz-adv-x="1497" 
d="M678 -20q-269 0 -423.5 161t-154.5 449q0 137 35 265.5t103 236.5t161 188.5t216 126t262 45.5h2h471l26 162h223l-57 -363h-207q119 -153 119 -407q0 -172 -55.5 -328.5t-154.5 -275.5t-246 -189.5t-320 -70.5zM375 598q0 -191 84 -288t239 -97q114 0 208 55t152.5 145
t90 200t31.5 225q0 189 -84 285t-238 96q-114 0 -208 -54t-153 -143t-90.5 -198.5t-31.5 -225.5zM705 1735q0 104 61 154t145 50q90 0 152.5 -52.5t62.5 -151.5q0 -87 -54.5 -139t-137.5 -62l-51 108q96 3 96 82q0 36 -20 56t-50 20q-29 0 -47.5 -17t-21.5 -48h-135z" />
    <glyph glyph-name="uni1EDF" unicode="&#x1edf;" horiz-adv-x="1173" 
d="M504 -20q-94 0 -174 27t-142.5 80.5t-98.5 142.5t-36 204q0 175 76.5 323t219 238t321.5 90h346l24 160h209l-57 -360h-131q59 -108 59 -254q0 -175 -76.5 -323t-218.5 -238t-321 -90zM305 461q0 -133 63.5 -197.5t168.5 -64.5q103 0 180 60t114 150.5t37 194.5
q0 133 -63 197.5t-168 64.5q-103 0 -180.5 -60t-114.5 -151t-37 -194zM483 1366q0 104 61.5 154.5t145.5 50.5q90 0 152.5 -53t62.5 -152q0 -87 -54.5 -139t-137.5 -62l-51 109q96 3 96 82q0 36 -20 56t-50 20q-29 0 -48 -17.5t-22 -48.5h-135z" />
    <glyph glyph-name="uni1EE0" unicode="&#x1ee0;" horiz-adv-x="1497" 
d="M678 -20q-269 0 -423.5 161t-154.5 449q0 137 35 265.5t103 236.5t161 188.5t216 126t262 45.5h2h471l26 162h223l-57 -363h-207q119 -153 119 -407q0 -172 -55.5 -328.5t-154.5 -275.5t-246 -189.5t-320 -70.5zM375 598q0 -191 84 -288t239 -97q114 0 208 55t152.5 145
t90 200t31.5 225q0 189 -84 285t-238 96q-114 0 -208 -54t-153 -143t-90.5 -198.5t-31.5 -225.5zM573 1636q13 107 74.5 166.5t155.5 59.5q52 0 93 -19t62 -41.5t47 -41.5t52 -19q28 0 54 17t30 50h155q-13 -107 -73 -166t-154 -59q-51 0 -91.5 19t-60.5 41.5t-47 41.5
t-55 19q-29 0 -54.5 -17t-29.5 -51h-158z" />
    <glyph glyph-name="uni1EE1" unicode="&#x1ee1;" horiz-adv-x="1173" 
d="M504 -20q-94 0 -174 27t-142.5 80.5t-98.5 142.5t-36 204q0 175 76.5 323t219 238t321.5 90h346l24 160h209l-57 -360h-131q59 -108 59 -254q0 -175 -76.5 -323t-218.5 -238t-321 -90zM305 461q0 -133 63.5 -197.5t168.5 -64.5q103 0 180 60t114 150.5t37 194.5
q0 133 -63 197.5t-168 64.5q-103 0 -180.5 -60t-114.5 -151t-37 -194zM352 1268q13 107 74.5 166t155.5 59q52 0 93 -19t62 -41.5t47 -41.5t52 -19q28 0 54 17.5t30 50.5h155q-13 -107 -73 -166.5t-154 -59.5q-51 0 -91.5 19t-60.5 41.5t-47 41.5t-55 19q-29 0 -54.5 -16.5
t-29.5 -50.5h-158z" />
    <glyph glyph-name="uni1EE2" unicode="&#x1ee2;" horiz-adv-x="1497" 
d="M678 -20q-269 0 -423.5 161t-154.5 449q0 137 35 265.5t103 236.5t161 188.5t216 126t262 45.5h2h471l26 162h223l-57 -363h-207q119 -153 119 -407q0 -172 -55.5 -328.5t-154.5 -275.5t-246 -189.5t-320 -70.5zM375 598q0 -191 84 -288t239 -97q114 0 208 55t152.5 145
t90 200t31.5 225q0 189 -84 285t-238 96q-114 0 -208 -54t-153 -143t-90.5 -198.5t-31.5 -225.5zM453 -311q0 67 47.5 114t115.5 47t116 -47t48 -114q0 -66 -48 -113t-116 -47q-67 0 -115 47t-48 113z" />
    <glyph glyph-name="uni1EE3" unicode="&#x1ee3;" horiz-adv-x="1173" 
d="M504 -20q-94 0 -174 27t-142.5 80.5t-98.5 142.5t-36 204q0 175 76.5 323t219 238t321.5 90h346l24 160h209l-57 -360h-131q59 -108 59 -254q0 -175 -76.5 -323t-218.5 -238t-321 -90zM291 -311q0 67 48 114t116 47t115.5 -47t47.5 -114q0 -66 -48 -113t-115 -47
q-68 0 -116 47t-48 113zM305 461q0 -133 63.5 -197.5t168.5 -64.5q103 0 180 60t114 150.5t37 194.5q0 133 -63 197.5t-168 64.5q-103 0 -180.5 -60t-114.5 -151t-37 -194z" />
    <glyph glyph-name="uni1EE4" unicode="&#x1ee4;" horiz-adv-x="1378" 
d="M608 -20q-269 0 -404.5 144.5t-92.5 418.5l143 891h270l-139 -871q-26 -169 45.5 -258.5t220.5 -89.5q145 0 233.5 88t116.5 260l138 871h272l-141 -891q-45 -275 -221 -419t-441 -144zM395 -311q0 67 48 114t116 47t116 -47t48 -114q0 -66 -48 -113t-116 -47t-116 47
t-48 113z" />
    <glyph glyph-name="uni1EE5" unicode="&#x1ee5;" 
d="M362 457q-23 -128 25 -194t156 -66q105 0 179 59t99 174l101 635h264l-170 -1065h-262l34 219h-10q-14 -38 -43 -77t-74.5 -76.5t-114.5 -61.5t-149 -24q-167 0 -253 104t-54 311l105 670h262zM326 -311q0 67 47.5 114t115.5 47t116 -47t48 -114q0 -66 -48 -113t-116 -47
q-67 0 -115 47t-48 113z" />
    <glyph glyph-name="uni1EE6" unicode="&#x1ee6;" horiz-adv-x="1378" 
d="M608 -20q-269 0 -404.5 144.5t-92.5 418.5l143 891h270l-139 -871q-26 -169 45.5 -258.5t220.5 -89.5q145 0 233.5 88t116.5 260l138 871h272l-141 -891q-45 -275 -221 -419t-441 -144zM627 1735q0 104 61.5 154t145.5 50q90 0 152.5 -52.5t62.5 -151.5q0 -87 -55 -139
t-138 -62l-51 108q96 3 96 82q0 36 -20 56t-50 20q-29 0 -47.5 -17t-21.5 -48h-135z" />
    <glyph glyph-name="uni1EE7" unicode="&#x1ee7;" 
d="M362 457q-23 -128 25 -194t156 -66q105 0 179 59t99 174l101 635h264l-170 -1065h-262l34 219h-10q-14 -38 -43 -77t-74.5 -76.5t-114.5 -61.5t-149 -24q-167 0 -253 104t-54 311l105 670h262zM496 1366q0 104 61 154.5t145 50.5q90 0 153 -53t63 -152q0 -87 -55 -139
t-138 -62l-51 109q96 3 96 82q0 36 -20 56t-50 20q-28 0 -47 -17t-22 -49h-135z" />
    <glyph glyph-name="uni1EE8" unicode="&#x1ee8;" horiz-adv-x="1378" 
d="M608 -20q-269 0 -404.5 144.5t-92.5 418.5l143 891h270l-139 -871q-26 -169 45.5 -258.5t220.5 -89.5q145 0 233.5 88t116.5 260l138 871h276l31 180h221l-29 -180l-32 -203h-228l-108 -688q-45 -275 -221 -419t-441 -144zM733 1559l258 280h228l-256 -280h-230z" />
    <glyph glyph-name="uni1EE9" unicode="&#x1ee9;" 
d="M362 457q-23 -128 25 -194t156 -66q105 0 179 59t99 174l101 635h264l-170 -1065h-262l34 219h-10q-14 -38 -43 -77t-74.5 -76.5t-114.5 -61.5t-149 -24q-167 0 -253 104t-54 311l105 670h262zM590 1190l258 280h227l-256 -280h-229zM1257 862l33 203h275l30 180h222
l-29 -180l-33 -203h-498z" />
    <glyph glyph-name="uni1EEA" unicode="&#x1eea;" horiz-adv-x="1378" 
d="M608 -20q-269 0 -404.5 144.5t-92.5 418.5l143 891h270l-139 -871q-26 -169 45.5 -258.5t220.5 -89.5q145 0 233.5 88t116.5 260l138 871h276l31 180h221l-29 -180l-32 -203h-228l-108 -688q-45 -275 -221 -419t-441 -144zM565 1839h228l170 -280h-228z" />
    <glyph glyph-name="uni1EEB" unicode="&#x1eeb;" 
d="M362 457q-23 -128 25 -194t156 -66q105 0 179 59t99 174l101 635h264l-170 -1065h-262l34 219h-10q-14 -38 -43 -77t-74.5 -76.5t-114.5 -61.5t-149 -24q-167 0 -253 104t-54 311l105 670h262zM422 1470h227l170 -280h-227zM1257 862l33 203h275l30 180h222l-29 -180
l-33 -203h-498z" />
    <glyph glyph-name="uni1EEC" unicode="&#x1eec;" horiz-adv-x="1378" 
d="M608 -20q-269 0 -404.5 144.5t-92.5 418.5l143 891h270l-139 -871q-26 -169 45.5 -258.5t220.5 -89.5q145 0 233.5 88t116.5 260l138 871h276l31 180h221l-29 -180l-32 -203h-228l-108 -688q-45 -275 -221 -419t-441 -144zM647 1735q0 104 61.5 154t145.5 50
q90 0 152.5 -52.5t62.5 -151.5q0 -87 -54.5 -139t-137.5 -62l-52 108q97 3 97 82q0 36 -20 56t-50 20q-29 0 -48 -17t-22 -48h-135z" />
    <glyph glyph-name="uni1EED" unicode="&#x1eed;" 
d="M362 457q-23 -128 25 -194t156 -66q105 0 179 59t99 174l101 635h264l-170 -1065h-262l34 219h-10q-14 -38 -43 -77t-74.5 -76.5t-114.5 -61.5t-149 -24q-167 0 -253 104t-54 311l105 670h262zM502 1366q0 104 61.5 154.5t145.5 50.5q90 0 152.5 -53t62.5 -152
q0 -87 -55 -139t-138 -62l-51 109q96 3 96 82q0 36 -19.5 56t-49.5 20q-29 0 -48 -17.5t-22 -48.5h-135zM1257 862l33 203h275l30 180h222l-29 -180l-33 -203h-498z" />
    <glyph glyph-name="uni1EEE" unicode="&#x1eee;" horiz-adv-x="1378" 
d="M608 -20q-269 0 -404.5 144.5t-92.5 418.5l143 891h270l-139 -871q-26 -169 45.5 -258.5t220.5 -89.5q145 0 233.5 88t116.5 260l138 871h276l31 180h221l-29 -180l-32 -203h-228l-108 -688q-45 -275 -221 -419t-441 -144zM516 1636q13 107 74 166.5t155 59.5
q52 0 93 -19t62 -41.5t47 -41.5t52 -19q28 0 54 17t30 50h156q-13 -107 -73 -166t-154 -59q-51 0 -91.5 19t-60.5 41.5t-47 41.5t-55 19q-29 0 -54.5 -17t-29.5 -51h-158z" />
    <glyph glyph-name="uni1EEF" unicode="&#x1eef;" 
d="M362 457q-23 -128 25 -194t156 -66q105 0 179 59t99 174l101 635h264l-170 -1065h-262l34 219h-10q-14 -38 -43 -77t-74.5 -76.5t-114.5 -61.5t-149 -24q-167 0 -253 104t-54 311l105 670h262zM371 1268q13 107 74 166t155 59q52 0 93 -19t62 -41.5t47 -41.5t52 -19
q28 0 54 17.5t30 50.5h156q-13 -107 -73.5 -166.5t-154.5 -59.5q-51 0 -91.5 19t-60.5 41.5t-47 41.5t-55 19q-29 0 -54.5 -16.5t-29.5 -50.5h-157zM1257 862l33 203h275l30 180h222l-29 -180l-33 -203h-498z" />
    <glyph glyph-name="uni1EF0" unicode="&#x1ef0;" horiz-adv-x="1378" 
d="M608 -20q-269 0 -404.5 144.5t-92.5 418.5l143 891h270l-139 -871q-26 -169 45.5 -258.5t220.5 -89.5q145 0 233.5 88t116.5 260l138 871h276l31 180h221l-29 -180l-32 -203h-228l-108 -688q-45 -275 -221 -419t-441 -144zM395 -311q0 67 48 114t116 47t116 -47t48 -114
q0 -66 -48 -113t-116 -47t-116 47t-48 113z" />
    <glyph glyph-name="uni1EF1" unicode="&#x1ef1;" 
d="M362 457q-23 -128 25 -194t156 -66q105 0 179 59t99 174l101 635h264l-170 -1065h-262l34 219h-10q-14 -38 -43 -77t-74.5 -76.5t-114.5 -61.5t-149 -24q-167 0 -253 104t-54 311l105 670h262zM309 -311q0 67 48 114t116 47t116 -47t48 -114q0 -66 -48 -113t-116 -47
t-116 47t-48 113zM1257 862l33 203h275l30 180h222l-29 -180l-33 -203h-498z" />
    <glyph glyph-name="Ygrave" unicode="&#x1ef2;" horiz-adv-x="1413" 
d="M485 0l84 537l-376 897h305l250 -637l452 637h309l-663 -897l-84 -537h-277zM584 1839h227l170 -280h-227z" />
    <glyph glyph-name="ygrave" unicode="&#x1ef3;" horiz-adv-x="1161" 
d="M33 -182q54 -9 99.5 -3t76 15t56.5 28.5t41 37t30 41.5q25 41 30.5 73.5t-4.5 73.5l-241 981h268l156 -739l391 739h272l-614 -1094q-130 -232 -261 -316t-333 -61zM397 1470h228l170 -280h-228z" />
    <glyph glyph-name="uni1EF4" unicode="&#x1ef4;" horiz-adv-x="1413" 
d="M485 0l84 537l-376 897h305l250 -637l452 637h309l-663 -897l-84 -537h-277zM412 -311q0 67 47.5 114t115.5 47t116 -47t48 -114q0 -66 -48 -113t-116 -47q-67 0 -115 47t-48 113z" />
    <glyph glyph-name="uni1EF5" unicode="&#x1ef5;" horiz-adv-x="1161" 
d="M33 -182q54 -9 99.5 -3t76 15t56.5 28.5t41 37t30 41.5q25 41 30.5 73.5t-4.5 73.5l-241 981h268l156 -739l391 739h272l-614 -1094q-130 -232 -261 -316t-333 -61zM602 -311q0 67 48 114t116 47t116 -47t48 -114q0 -66 -48 -113t-116 -47t-116 47t-48 113z" />
    <glyph glyph-name="uni1EF6" unicode="&#x1ef6;" horiz-adv-x="1413" 
d="M485 0l84 537l-376 897h305l250 -637l452 637h309l-663 -897l-84 -537h-277zM664 1735q0 104 61 154t145 50q90 0 152.5 -52.5t62.5 -151.5q0 -87 -54.5 -139t-137.5 -62l-51 108q96 3 96 82q0 36 -20 56t-50 20q-29 0 -47.5 -17t-21.5 -48h-135z" />
    <glyph glyph-name="uni1EF7" unicode="&#x1ef7;" horiz-adv-x="1161" 
d="M33 -182q54 -9 99.5 -3t76 15t56.5 28.5t41 37t30 41.5q25 41 30.5 73.5t-4.5 73.5l-241 981h268l156 -739l391 739h272l-614 -1094q-130 -232 -261 -316t-333 -61zM477 1366q0 104 61.5 154.5t145.5 50.5q90 0 152.5 -53t62.5 -152q0 -87 -54.5 -139t-137.5 -62l-52 109
q97 3 97 82q0 36 -20 56t-50 20q-29 0 -48 -17.5t-22 -48.5h-135z" />
    <glyph glyph-name="uni1EF8" unicode="&#x1ef8;" horiz-adv-x="1413" 
d="M485 0l84 537l-376 897h305l250 -637l452 637h309l-663 -897l-84 -537h-277zM532 1636q13 107 74.5 166.5t155.5 59.5q52 0 93 -19t62 -41.5t47 -41.5t52 -19q28 0 54 17t30 50h155q-13 -107 -73 -166t-154 -59q-51 0 -91.5 19t-60.5 41.5t-47 41.5t-55 19
q-29 0 -54.5 -17t-29.5 -51h-158z" />
    <glyph glyph-name="uni1EF9" unicode="&#x1ef9;" horiz-adv-x="1161" 
d="M33 -182q54 -9 99.5 -3t76 15t56.5 28.5t41 37t30 41.5q25 41 30.5 73.5t-4.5 73.5l-241 981h268l156 -739l391 739h272l-614 -1094q-130 -232 -261 -316t-333 -61zM346 1268q13 107 74 166t155 59q52 0 93 -19t62 -41.5t47 -41.5t52 -19q28 0 54 17.5t30 50.5h156
q-13 -107 -73 -166.5t-154 -59.5q-51 0 -91.5 19t-60.5 41.5t-47 41.5t-55 19q-29 0 -54.5 -16.5t-29.5 -50.5h-158z" />
    <glyph glyph-name="endash" unicode="&#x2013;" horiz-adv-x="1228" 
d="M82 469l33 197h1044l-33 -197h-1044z" />
    <glyph glyph-name="emdash" unicode="&#x2014;" horiz-adv-x="1351" 
d="M82 469l33 197h1167l-33 -197h-1167z" />
    <glyph glyph-name="quoteleft" unicode="&#x2018;" horiz-adv-x="497" 
d="M498 1333q-79 -4 -117 -34t-49 -93q81 0 124.5 -41t43.5 -106q0 -71 -47 -119.5t-123 -48.5q-75 0 -121.5 50.5t-46.5 156.5q0 68 21 129t61.5 110t107 78t150.5 29h12z" />
    <glyph glyph-name="quoteright" unicode="&#x2019;" horiz-adv-x="501" 
d="M203 1010q79 4 117 34t49 93q-81 0 -124.5 41t-43.5 106q0 71 47 119.5t123 48.5q75 0 121.5 -50.5t46.5 -156.5q0 -68 -21 -129t-61.5 -110t-107 -78t-150.5 -29h-13z" />
    <glyph glyph-name="quotesinglbase" unicode="&#x201a;" horiz-adv-x="507" 
d="M20 -141q79 4 117 34t49 93q-81 0 -124.5 41t-43.5 106q0 71 47 119.5t123 48.5q75 0 121.5 -50.5t46.5 -156.5q0 -68 -21 -129t-61.5 -110t-107 -78t-150.5 -29h-12z" />
    <glyph glyph-name="quotedblleft" unicode="&#x201c;" horiz-adv-x="919" 
d="M498 1333q-79 -4 -117 -34t-49 -93q81 0 124.5 -41t43.5 -106q0 -71 -47 -119.5t-123 -48.5q-75 0 -121.5 50.5t-46.5 156.5q0 68 21 129t61.5 110t107 78t150.5 29h12zM586 1098q0 68 21 129t61.5 110t107 78t150.5 29h12l-16 -111q-79 -4 -117 -34t-49 -93
q81 0 124.5 -41t43.5 -106q0 -71 -47 -119.5t-123 -48.5q-75 0 -121.5 50.5t-46.5 156.5z" />
    <glyph glyph-name="quotedblright" unicode="&#x201d;" horiz-adv-x="925" 
d="M203 1010q79 4 117 34t49 93q-81 0 -124.5 41t-43.5 106q0 71 47 119.5t123 48.5q75 0 121.5 -50.5t46.5 -156.5q0 -68 -21 -129t-61.5 -110t-107 -78t-150.5 -29h-13zM612 899l17 111q79 4 117 34t49 93q-81 0 -124.5 41t-43.5 106q0 71 47 119.5t123 48.5
q75 0 121.5 -50.5t46.5 -156.5q0 -68 -21 -129t-61.5 -110t-107 -78t-150.5 -29h-13z" />
    <glyph glyph-name="quotedblbase" unicode="&#x201e;" horiz-adv-x="933" 
d="M440 -162q79 4 117 34t49 93q-81 0 -124.5 41.5t-43.5 106.5q0 71 47 119.5t123 48.5q75 0 121.5 -50.5t46.5 -156.5q0 -68 -21 -129t-61.5 -110t-107 -78t-150.5 -29h-12zM0 -272l16 110q79 4 117 34t49 93q-81 0 -124.5 41.5t-43.5 106.5q0 71 47 119.5t123 48.5
q75 0 121.5 -50.5t46.5 -156.5q0 -68 -21 -129t-61.5 -110t-107 -78t-150.5 -29h-12z" />
    <glyph glyph-name="dagger" unicode="&#x2020;" horiz-adv-x="825" 
d="M295 438l80 510h-207l33 199h207l45 287h209l-46 -287h205l-33 -199h-204l-80 -510h-209z" />
    <glyph glyph-name="daggerdbl" unicode="&#x2021;" horiz-adv-x="825" 
d="M225 0l45 283h-209l35 198h205l76 471h-207l31 199h207l45 283h209l-46 -283h205l-30 -199h-205l-76 -471h207l-35 -198h-203l-45 -283h-209z" />
    <glyph glyph-name="bullet" unicode="&#x2022;" horiz-adv-x="565" 
d="M285 362q-73 0 -126 53t-53 126q0 72 53 124t126 52t125.5 -52t52.5 -124q0 -74 -52.5 -126.5t-125.5 -52.5z" />
    <glyph glyph-name="ellipsis" unicode="&#x2026;" horiz-adv-x="1525" 
d="M700 -20q-68 0 -115.5 46.5t-47.5 112.5q0 67 47.5 114.5t115.5 47.5t115 -47.5t47 -114.5q0 -66 -47.5 -112.5t-114.5 -46.5zM18 139q0 67 48 114.5t116 47.5t115 -47.5t47 -114.5q0 -66 -47.5 -112.5t-114.5 -46.5q-68 0 -116 46.5t-48 112.5zM1055 139q0 67 48 114.5
t116 47.5q67 0 114 -47t47 -115q0 -66 -47 -112.5t-114 -46.5q-68 0 -116 46.5t-48 112.5z" />
    <glyph glyph-name="perthousand" unicode="&#x2030;" horiz-adv-x="2222" 
d="M199 231l-84 150l1261 823l84 -149zM168 1061q0 104 42.5 192.5t125 144.5t188.5 56q113 0 180.5 -65t67.5 -193q0 -161 -98 -278t-256 -117q-113 0 -181.5 66t-68.5 194zM358 1094q0 -117 91 -117q66 0 99.5 55.5t33.5 128.5q0 117 -90 117q-65 0 -99.5 -55.5
t-34.5 -128.5zM805 242q0 103 42 191.5t124 145t188 56.5q113 0 181.5 -66t68.5 -194q0 -103 -42 -191.5t-124 -145t-188 -56.5q-113 0 -181.5 65t-68.5 195zM995 274q0 -116 90 -116q66 0 100 56t34 128q0 117 -91 117q-66 0 -99.5 -56t-33.5 -129zM1509 242
q0 159 98.5 276t256.5 117q113 0 181.5 -66t68.5 -194q0 -159 -98.5 -276t-256.5 -117q-113 0 -181.5 65t-68.5 195zM1700 274q0 -116 90 -116q66 0 99.5 55.5t33.5 128.5q0 117 -90 117q-66 0 -99.5 -56t-33.5 -129z" />
    <glyph glyph-name="guilsinglleft" unicode="&#x2039;" horiz-adv-x="503" 
d="M373 227l-295 277l33 207l385 284l-39 -237l-201 -148l154 -143z" />
    <glyph glyph-name="guilsinglright" unicode="&#x203a;" horiz-adv-x="501" 
d="M154 995l295 -276l-33 -207l-385 -285l39 238l200 147l-153 144z" />
    <glyph glyph-name="fraction" unicode="&#x2044;" horiz-adv-x="317" 
d="M-438 0l1120 1434h133l-1120 -1434h-133z" />
    <glyph glyph-name="Euro" unicode="&#x20ac;" horiz-adv-x="1490" 
d="M104 745l27 160h111q77 246 265 396.5t458 150.5q119 0 216.5 -31t169 -91.5t109 -156t33.5 -217.5h-256q-13 135 -93 199t-204 64q-150 0 -256 -86t-162 -228h314l-27 -160h-330q-6 -34 -10 -106h324l-25 -160h-287q28 -129 109.5 -197.5t210.5 -68.5q253 0 360 264h258
q-32 -128 -96 -225t-150 -155.5t-187 -87.5t-216 -29q-245 0 -392.5 126.5t-174.5 372.5h-140l25 160h109q2 35 10 106h-103z" />
    <glyph glyph-name="trademark" unicode="&#x2122;" horiz-adv-x="1048" 
d="M590 1065l59 369h113l74 -281l157 281h117l-59 -369h-107l31 192l-105 -192h-94l-49 192l-31 -192h-106zM209 1343l16 91h357l-17 -91h-125l-43 -278h-106l45 278h-127z" />
    <glyph glyph-name="partialdiff" unicode="&#x2202;" horiz-adv-x="1230" 
d="M520 -20q-73 0 -141.5 18t-130 58t-103.5 97t-60 143t-3 189q18 120 73.5 213t132.5 146.5t162.5 80.5t172.5 27q212 0 325 -157q8 47 10 92.5t-1 98.5t-18.5 97t-42 81t-73.5 58t-110 21q-96 0 -171 -48t-104 -144h-229q11 72 49.5 141.5t102 128.5t162 95t216.5 36
q119 0 208.5 -37t142 -103.5t82 -159t29 -202.5t-18.5 -235q-31 -193 -96.5 -338t-155 -230t-192 -126t-218.5 -41zM328 479q-11 -70 3.5 -126t48 -90t78.5 -52t97 -18q51 0 101 17t94.5 50.5t77 89.5t42.5 127q20 135 -49.5 206t-181.5 71q-110 0 -199 -70.5t-112 -204.5z
" />
    <glyph glyph-name="product" unicode="&#x220f;" horiz-adv-x="1486" 
d="M-53 -389l321 2027h1303l-322 -2027h-252l285 1790h-801l-282 -1790h-252z" />
    <glyph glyph-name="summation" unicode="&#x2211;" horiz-adv-x="1406" 
d="M-53 -389l723 1014l-402 1013h1223l-37 -237h-805l305 -776l-546 -777h800l-39 -237h-1222z" />
    <glyph glyph-name="minus" unicode="&#x2212;" horiz-adv-x="886" 
d="M92 422l37 196h662l-35 -196h-664z" />
    <glyph glyph-name="radical" unicode="&#x221a;" horiz-adv-x="1634" 
d="M555 -389l-221 895h-246l45 280h422l193 -835l714 1687h256l-860 -2027h-303z" />
    <glyph glyph-name="infinity" unicode="&#x221e;" horiz-adv-x="1699" 
d="M446 180q-150 0 -255 99.5t-105 257.5q0 157 104.5 253.5t255.5 96.5q199 0 404 -199q205 199 405 199q151 0 256 -96.5t105 -253.5t-105.5 -257t-255.5 -100q-200 0 -405 199q-205 -199 -404 -199zM311 537q0 -65 44.5 -111.5t119.5 -46.5q123 0 244 158
q-121 155 -244 155q-75 0 -119.5 -45.5t-44.5 -109.5zM983 537q118 -158 244 -158q74 0 119 47t45 111t-45 109.5t-119 45.5q-126 0 -244 -155z" />
    <glyph glyph-name="integral" unicode="&#x222b;" horiz-adv-x="634" 
d="M-72 -164q81 0 120 50t54 149l160 1028q29 184 135.5 275.5t327.5 91.5l-35 -226q-76 0 -116 -49t-58 -149l-164 -1029q-31 -195 -137 -280.5t-321 -85.5z" />
    </font>
</defs>
</svg>
