<?xml version="1.0" standalone="no"?>
<!DOCTYPE svg PUBLIC "-//W3C//DTD SVG 1.1//EN" "http://www.w3.org/Graphics/SVG/1.1/DTD/svg11.dtd" >
<svg xmlns="http://www.w3.org/2000/svg" xmlns:xlink="http://www.w3.org/1999/xlink" version="1.1">
<metadata>
Created by FontForge 20170731 at Sun Aug  6 18:04:28 2023
 By Aleksey,,,
Copyright (c) 2021 by Connary Fagen. All rights reserved.
</metadata>
<defs>
<font id="ArticulatCF-Heavy" horiz-adv-x="1277" >
  <font-face 
    font-family="Articulat CF Heavy"
    font-weight="900"
    font-stretch="normal"
    units-per-em="2048"
    panose-1="0 0 0 0 0 0 0 0 0 0"
    ascent="1638"
    descent="-410"
    x-height="1065"
    cap-height="1434"
    bbox="-375 -805 2251 2257"
    underline-thickness="102"
    underline-position="-358"
    unicode-range="U+0020-A78C"
  />
<missing-glyph horiz-adv-x="1449" 
d="M100 0v1434h1250v-1434h-1250zM207 106h1036v1221h-1036v-1221zM283 184l385 539l-379 526h119l315 -446l315 446h119l-379 -526l385 -539h-119l-321 461l-322 -461h-118z" />
    <glyph glyph-name=".notdef" horiz-adv-x="1449" 
d="M100 0v1434h1250v-1434h-1250zM207 106h1036v1221h-1036v-1221zM283 184l385 539l-379 526h119l315 -446l315 446h119l-379 -526l385 -539h-119l-321 461l-322 -461h-118z" />
    <glyph glyph-name=".null" horiz-adv-x="0" 
 />
    <glyph glyph-name="nonmarkingreturn" horiz-adv-x="682" 
 />
    <glyph glyph-name="space" unicode=" " horiz-adv-x="471" 
 />
    <glyph glyph-name="exclam" unicode="!" horiz-adv-x="638" 
d="M178 551l-49 883h383l-51 -883h-283zM100 195q0 90 64 152.5t155 62.5t155.5 -62.5t64.5 -152.5t-64.5 -152.5t-155.5 -62.5t-155 62.5t-64 152.5z" />
    <glyph glyph-name="quotedbl" unicode="&#x22;" horiz-adv-x="1120" 
d="M676 772v662h364v-662h-364zM82 772v662h364v-662h-364z" />
    <glyph glyph-name="numbersign" unicode="#" horiz-adv-x="1224" 
d="M657 0l33 328h-229l-33 -328h-223l33 328h-158v227h180l33 324h-158v229h180l33 326h223l-32 -326h229l33 326h223l-33 -326h156v-229h-178l-33 -324h154v-227h-177l-32 -328h-224zM483 555h230l32 324h-229z" />
    <glyph glyph-name="dollar" unicode="$" horiz-adv-x="1331" 
d="M600 -184v166q-248 18 -388 148.5t-140 369.5h387q7 -157 141 -193v271l-76 16q-68 14 -122.5 32t-111.5 51t-95 76.5t-62 110t-24 148.5q0 202 133 312t358 126v168h143v-168q227 -16 357.5 -134.5t130.5 -338.5h-389q8 112 -99 145v-248l43 -8q136 -28 230 -69
t148 -96.5t77 -119t23 -145.5q0 -112 -41 -198t-114 -139t-164.5 -81.5t-201.5 -35.5v-166h-143zM500 1012q0 -79 100 -107v221q-53 -12 -76.5 -43.5t-23.5 -70.5zM743 305q59 11 92 43.5t33 85.5q0 44 -29 71t-96 44v-244z" />
    <glyph glyph-name="percent" unicode="%" horiz-adv-x="1556" 
d="M287 207l-148 201l1129 829l147 -201zM70 1124q0 161 91 249.5t228 88.5t228.5 -88.5t91.5 -249.5q0 -172 -90.5 -259t-229.5 -87q-65 0 -121.5 20.5t-101.5 61.5t-70.5 108.5t-25.5 155.5zM324 1124q0 -34 7.5 -57.5t19.5 -33.5t21 -13.5t17 -3.5t17.5 3.5t21.5 13.5
t19.5 33.5t7.5 57.5q0 31 -7.5 53.5t-19.5 32t-21.5 13.5t-17.5 4t-17.5 -4t-21 -13.5t-19 -32t-7.5 -53.5zM848 328q0 161 91 249.5t228 88.5t228.5 -88.5t91.5 -249.5q0 -172 -90.5 -259t-229.5 -87q-137 0 -228 87.5t-91 258.5zM1104 328q0 -34 7 -58t18.5 -34
t20.5 -13.5t17 -3.5t17.5 3.5t21.5 13.5t19.5 34t7.5 58q0 31 -7.5 53.5t-19.5 32t-21.5 13t-17.5 3.5t-17 -3.5t-20 -13t-18.5 -32t-7.5 -53.5z" />
    <glyph glyph-name="ampersand" unicode="&#x26;" horiz-adv-x="1536" 
d="M627 -20q-243 0 -400 121.5t-157 316.5q0 73 21 134.5t60.5 108.5t82.5 81t100 65q-63 85 -91 153t-28 138q0 68 25.5 129.5t76 113t137 81.5t197.5 30q108 0 191.5 -29t134.5 -79t76.5 -112.5t25.5 -133.5q0 -116 -68.5 -211.5t-191.5 -157.5l168 -180q43 108 43 229
h334q0 -291 -135 -489l268 -289h-418l-75 80q-169 -100 -377 -100zM465 451q0 -65 53.5 -114.5t143.5 -49.5q59 0 120 28l-256 269q-61 -55 -61 -133zM541 1102q0 -48 80 -150q127 74 127 146q0 42 -31 70t-74 28q-46 0 -74 -28t-28 -66z" />
    <glyph glyph-name="quotesingle" unicode="'" horiz-adv-x="528" 
d="M82 772v662h364v-662h-364z" />
    <glyph glyph-name="parenleft" unicode="(" horiz-adv-x="770" 
d="M309 -266q-217 388 -217 921q0 507 217 871h369q-207 -377 -207 -871q0 -523 207 -921h-369z" />
    <glyph glyph-name="parenright" unicode=")" horiz-adv-x="770" 
d="M92 -266q207 398 207 921q0 494 -207 871h369q217 -364 217 -871q0 -533 -217 -921h-369z" />
    <glyph glyph-name="asterisk" unicode="*" horiz-adv-x="1159" 
d="M422 539l-215 141l168 231l-264 68l61 246l281 -76l-2 285h258v-285l280 76l62 -246l-271 -68l168 -231l-215 -141l-153 231z" />
    <glyph glyph-name="plus" unicode="+" horiz-adv-x="1312" 
d="M481 35v381h-381v323h381v381h348v-381h383v-323h-383v-381h-348z" />
    <glyph glyph-name="comma" unicode="," horiz-adv-x="600" 
d="M139 -147q100 3 143.5 34t43.5 101q-122 3 -189 64.5t-67 154.5q0 90 61 146.5t156 56.5q107 0 175 -78.5t68 -233.5q0 -182 -98 -287.5t-266 -105.5h-27v148z" />
    <glyph glyph-name="hyphen" unicode="-" horiz-adv-x="835" 
d="M82 420v282h672v-282h-672z" />
    <glyph glyph-name="period" unicode="." horiz-adv-x="577" 
d="M289 -20q-91 0 -155 62.5t-64 152.5t64 152.5t155 62.5t155 -62.5t64 -152.5t-64 -152.5t-155 -62.5z" />
    <glyph glyph-name="slash" unicode="/" horiz-adv-x="1064" 
d="M61 4l560 1430h383l-562 -1430h-381z" />
    <glyph glyph-name="zero" unicode="0" horiz-adv-x="1316" 
d="M657 -20q-58 0 -114.5 10t-115.5 35t-110.5 63t-97.5 96.5t-78.5 133t-51.5 177t-19 222.5q0 165 36.5 295.5t95 211.5t137.5 134t157 73.5t161 20.5q85 0 164 -20.5t158 -73.5t137 -134t94.5 -211.5t36.5 -295.5q0 -167 -36.5 -298t-94.5 -212t-137 -133.5t-158 -73
t-164 -20.5zM430 717q0 -52 3 -96.5t11.5 -95t24.5 -89.5t40.5 -72t62 -51t85.5 -18q230 0 230 422q0 420 -230 420q-227 0 -227 -420z" />
    <glyph glyph-name="one" unicode="1" horiz-adv-x="929" 
d="M410 983q-34 -35 -75.5 -56.5t-92 -30.5t-84.5 -11t-88 -2v309q141 18 220 70t120 172h378v-1434h-378v983z" />
    <glyph glyph-name="two" unicode="2" horiz-adv-x="1226" 
d="M82 74q0 86 8 151.5t30.5 135t62.5 126t105 113.5t156 109q30 17 84.5 45.5t80 42.5t62 39t53 45.5t30 50.5t14.5 65q2 37 -8.5 63.5t-26 40t-38.5 21.5t-39 9.5t-35 1.5q-64 0 -108 -39t-44 -133v-29h-367v45q0 78 17 146.5t56 129.5t98.5 104.5t150 69t203.5 25.5
q253 0 386.5 -116t133.5 -314q0 -60 -15 -115t-30.5 -93t-56 -80.5t-59.5 -62.5t-74 -55t-67 -41.5t-69 -36.5q-12 -7 -18 -10q-138 -79 -189 -127t-51 -88v-2h617v-311h-1053v74z" />
    <glyph glyph-name="three" unicode="3" horiz-adv-x="1249" 
d="M606 -20q-282 0 -415.5 139t-131.5 385h357q1 -63 20.5 -107t52.5 -64t64 -28t68 -8q33 0 63.5 7t59 22.5t46 45.5t17.5 72q0 152 -209 152h-98v266h82q53 0 91.5 10.5t57.5 24.5t29.5 35.5t12 34.5t1.5 30q0 70 -45 101.5t-104 31.5q-28 0 -54.5 -8t-52 -27t-42 -56
t-17.5 -89h-353q0 234 132.5 368t392.5 134q231 0 370.5 -104.5t139.5 -282.5q0 -75 -24.5 -136t-62 -96t-74 -55t-69.5 -26q23 0 55 -9.5t72 -34t73.5 -60t56 -95.5t22.5 -133q0 -193 -157 -316.5t-427 -123.5z" />
    <glyph glyph-name="four" unicode="4" horiz-adv-x="1255" 
d="M653 0v309h-594v303l594 822h379v-822h164v-303h-164v-309h-379zM385 612h268v371z" />
    <glyph glyph-name="five" unicode="5" horiz-adv-x="1245" 
d="M631 -20q-263 0 -410 135.5t-141 357.5h342q2 -57 24.5 -97t56 -58t61.5 -25.5t54 -7.5q20 0 41 3t52 16t54 34.5t39.5 64t16.5 99.5q0 59 -17 101.5t-39 63t-53.5 32.5t-50 14t-38.5 2q-64 0 -118 -31t-69 -82h-342l121 832h840v-301h-582l-29 -222q-1 -1 1 1
q60 58 173 79q50 10 105 10q209 0 342 -136t133 -363q0 -250 -154 -386t-413 -136z" />
    <glyph glyph-name="six" unicode="6" horiz-adv-x="1275" 
d="M655 -20q-89 0 -169 22.5t-155.5 77.5t-130 138.5t-87.5 215t-33 297.5q0 343 149.5 532t442.5 189q107 0 195.5 -27.5t146 -72t96.5 -103t54.5 -118.5t13.5 -121h-332q-24 145 -182 145q-59 0 -104 -24t-70 -59.5t-40 -82t-19 -85.5t-3 -75q37 33 69.5 55.5t96 44
t135.5 21.5q59 0 119 -12.5t126 -46t116 -85t83 -138.5t33 -197q0 -101 -27 -182.5t-74 -133t-102.5 -88t-121 -54.5t-119 -25.5t-107.5 -7.5zM463 475q0 -49 15 -85.5t36 -56t49.5 -31t49 -14.5t40.5 -3q21 0 42.5 3.5t50 15.5t49.5 31.5t36 55.5t15 84q0 47 -15 83
t-37 55.5t-50 32t-50.5 16.5t-42.5 4q-25 0 -52.5 -7.5t-60.5 -26t-54 -59.5t-21 -98z" />
    <glyph glyph-name="seven" unicode="7" horiz-adv-x="1081" 
d="M213 0q19 281 130.5 555.5t307.5 568.5h-590v310h949v-310q-202 -296 -315 -567.5t-132 -556.5h-350z" />
    <glyph glyph-name="eight" unicode="8" horiz-adv-x="1193" 
d="M596 -20q-153 0 -273.5 49.5t-192 150t-71.5 238.5q0 254 232 366q-162 98 -162 295q0 162 125 267.5t342 105.5t343 -105.5t126 -267.5q0 -197 -162 -295q232 -112 232 -366q0 -138 -72 -238.5t-193 -150t-274 -49.5zM420 463q0 -30 9 -58t28 -53.5t55 -41t84 -15.5
q92 0 135 51t43 117q0 65 -44 116.5t-134 51.5q-88 0 -132 -51.5t-44 -116.5zM461 1042q0 -51 34 -91t101 -40q69 0 103 40t34 91q0 55 -36 89t-101 34q-64 0 -99.5 -33.5t-35.5 -89.5z" />
    <glyph glyph-name="nine" unicode="9" horiz-adv-x="1275" 
d="M621 1450q89 0 169 -22.5t155.5 -77.5t130 -139t87.5 -215.5t33 -297.5q0 -343 -149.5 -532t-442.5 -189q-107 0 -195.5 27.5t-146 72t-96.5 103t-54.5 119t-13.5 121.5h332q24 -146 182 -146q59 0 104 24t70 59.5t40 82t19 85.5t3 75q-37 -33 -69.5 -55.5t-96 -44
t-135.5 -21.5q-59 0 -119 12.5t-126 46t-116 85t-83 138.5t-33 197q0 87 21 160t55 122.5t81.5 88t96.5 61t105 36.5t101.5 19t90.5 5zM430 954q0 -47 15 -82.5t37 -55.5t50 -32.5t50.5 -16t42.5 -3.5q19 0 40 3.5t48.5 16t48.5 32.5t36 55.5t15 82.5q0 49 -15 85.5t-36 56
t-49.5 31.5t-49 15t-40.5 3q-21 0 -42.5 -3.5t-50 -15.5t-49.5 -32t-36 -56t-15 -84z" />
    <glyph glyph-name="colon" unicode=":" horiz-adv-x="577" 
d="M289 -20q-91 0 -155 62.5t-64 152.5t64 152.5t155 62.5t155 -62.5t64 -152.5t-64 -152.5t-155 -62.5zM70 850q0 90 64 152.5t155 62.5t155 -62.5t64 -152.5t-64 -152.5t-155 -62.5t-155 62.5t-64 152.5z" />
    <glyph glyph-name="semicolon" unicode=";" horiz-adv-x="600" 
d="M289 635q-91 0 -155 62.5t-64 152.5t64 152.5t155 62.5t155 -62.5t64 -152.5t-64 -152.5t-155 -62.5zM70 207q0 90 61 146.5t156 56.5q107 0 175 -78.5t68 -233.5q0 -182 -98 -287.5t-266 -105.5h-27v148q100 3 143.5 34t43.5 101q-122 3 -189 64.5t-67 154.5z" />
    <glyph glyph-name="less" unicode="&#x3c;" horiz-adv-x="1038" 
d="M946 0l-854 340v313l854 336v-346l-508 -147l508 -150v-346z" />
    <glyph glyph-name="equal" unicode="=" horiz-adv-x="925" 
d="M100 256v283h727v-283h-727zM100 584v282h727v-282h-727z" />
    <glyph glyph-name="greater" unicode="&#x3e;" horiz-adv-x="1038" 
d="M92 0v346l508 150l-508 147v346l854 -336v-313z" />
    <glyph glyph-name="question" unicode="?" horiz-adv-x="1210" 
d="M446 541q0 70 16 128t42 96t57 69t62.5 53.5t57.5 42.5t42 43t16 49q0 11 -0.5 19t-6.5 25.5t-17 29t-34.5 21t-55.5 9.5q-42 0 -72 -13t-45.5 -31t-24.5 -47t-10.5 -50.5t-1.5 -52.5h-379q-2 115 27 205t78.5 147.5t120 95t146 53t161.5 15.5q220 0 356.5 -112
t136.5 -314q0 -59 -14.5 -106t-38 -77t-52 -55t-57 -47.5t-52 -47.5t-38 -62.5t-14.5 -85.5v-33h-406v33zM418 195q0 90 64 152.5t155 62.5t155 -62.5t64 -152.5t-64 -152.5t-155 -62.5t-155 62.5t-64 152.5z" />
    <glyph glyph-name="at" unicode="@" horiz-adv-x="1605" 
d="M815 -20q-152 0 -286.5 49t-237 140t-162 231.5t-59.5 312.5q0 137 39 256t108.5 206.5t163.5 150.5t206 94.5t234 31.5q153 0 285 -48.5t227 -135t149 -212t54 -274.5q0 -105 -26 -184t-70.5 -125.5t-99.5 -69t-119 -22.5q-55 0 -100 15t-73 40t-44 47t-25 45
q0 -45 -60 -98t-161 -53q-54 0 -105 20t-93.5 58.5t-68.5 102t-26 142.5q0 158 84 249t205 91q83 0 144.5 -36t76.5 -89l16 109h160v-301q0 -92 19 -128t53 -36q31 0 53.5 20.5t33 55.5t15 70t4.5 75q0 211 -133.5 342t-376.5 131q-158 0 -280 -61.5t-193.5 -184
t-71.5 -290.5q0 -251 151.5 -395t412.5 -144q129 0 229 35v-195q-121 -38 -252 -38zM672 705q0 -13 1 -25t7.5 -34.5t18 -39t35.5 -29t57 -12.5q39 0 65 15.5t37 41t14.5 44.5t3.5 39t-3.5 39.5t-14.5 46.5t-37 44t-65 17q-34 0 -58 -13.5t-35.5 -30.5t-18 -41.5t-7 -36
t-0.5 -25.5z" />
    <glyph glyph-name="A" unicode="A" horiz-adv-x="1564" 
d="M29 0l501 1434h504l502 -1434h-408l-69 215h-553l-70 -215h-407zM596 500h373l-176 544h-21z" />
    <glyph glyph-name="B" unicode="B" horiz-adv-x="1347" 
d="M100 0v1434h609q243 0 365 -96.5t122 -268.5q0 -116 -50.5 -181.5t-150.5 -99.5q303 -83 303 -362q0 -70 -19.5 -131.5t-62.5 -116t-106.5 -94t-157.5 -62t-209 -22.5h-643zM487 326h242q168 0 168 145q0 158 -168 158h-242v-303zM487 864h209q24 0 47 9.5t43.5 40
t20.5 77.5q0 65 -35.5 92t-75.5 27h-209v-246z" />
    <glyph glyph-name="C" unicode="C" horiz-adv-x="1441" 
d="M760 -20q-323 0 -506.5 198t-183.5 539q0 340 184.5 537.5t509.5 197.5q126 0 232.5 -33t191 -99t135 -176t57.5 -255h-379q-47 229 -251 229q-65 0 -115.5 -23t-81 -61t-50 -91.5t-27 -108t-7.5 -117.5q0 -404 281 -404q204 0 251 232h379q-7 -145 -57.5 -255
t-135.5 -177t-192 -100t-235 -33z" />
    <glyph glyph-name="D" unicode="D" horiz-adv-x="1435" 
d="M100 0v1434h590q330 0 504 -185t174 -532t-174 -532t-504 -185h-590zM487 336h162q95 0 156.5 20.5t98.5 68t52 117t15 175.5q0 212 -68.5 296.5t-253.5 84.5h-162v-762z" />
    <glyph glyph-name="E" unicode="E" horiz-adv-x="1187" 
d="M100 0v1434h1018v-336h-631v-228h570v-301h-570v-233h652v-336h-1039z" />
    <glyph glyph-name="F" unicode="F" horiz-adv-x="1130" 
d="M100 0v1434h969v-336h-582v-240h484v-311h-484v-547h-387z" />
    <glyph glyph-name="G" unicode="G" horiz-adv-x="1478" 
d="M752 -20q-168 0 -298 52t-214 148.5t-127 230t-43 298.5q0 346 181.5 544.5t491.5 198.5q95 0 182.5 -19t167 -60t140.5 -101t101 -147.5t50 -194.5h-385q-40 188 -256 188q-68 0 -119 -23t-81 -60t-48 -91t-24 -106.5t-6 -116.5q0 -408 285 -408q42 0 81 8t82 27
t69.5 61t27.5 101h-226v311h615v-178q0 -324 -170.5 -493.5t-476.5 -169.5z" />
    <glyph glyph-name="H" unicode="H" horiz-adv-x="1423" 
d="M936 0v563h-449v-563h-387v1434h387v-549h449v549h387v-1434h-387z" />
    <glyph glyph-name="I" unicode="I" horiz-adv-x="587" 
d="M100 0v1434h387v-1434h-387z" />
    <glyph glyph-name="J" unicode="J" horiz-adv-x="1415" 
d="M707 -20q-134 0 -243.5 34t-191.5 102.5t-127 179t-45 255.5h392q0 -121 56.5 -178.5t160.5 -57.5q219 0 219 263v856h389v-891q0 -143 -45.5 -252.5t-128 -176.5t-192.5 -100.5t-244 -33.5z" />
    <glyph glyph-name="K" unicode="K" horiz-adv-x="1515" 
d="M100 0v1434h387v-605l488 605h455l-527 -629l584 -805h-443l-372 526l-185 -221v-305h-387z" />
    <glyph glyph-name="L" unicode="L" horiz-adv-x="1153" 
d="M100 0v1434h387v-1098h617v-336h-1004z" />
    <glyph glyph-name="M" unicode="M" horiz-adv-x="1763" 
d="M100 0v1434h494l287 -899l288 899h494v-1434h-387v774h-14l-240 -774h-283l-237 774h-15v-774h-387z" />
    <glyph glyph-name="N" unicode="N" horiz-adv-x="1464" 
d="M100 0v1434h396l471 -805h10v805h387v-1434h-412l-456 778h-9v-778h-387z" />
    <glyph glyph-name="O" unicode="O" horiz-adv-x="1546" 
d="M774 -20q-214 0 -375.5 97.5t-245 263.5t-83.5 376t83.5 376t245 262.5t375.5 96.5q160 0 293 -56t222.5 -154t138.5 -233t49 -292q0 -156 -49 -291.5t-138.5 -234t-222.5 -155t-293 -56.5zM471 717q0 -115 31 -204t100.5 -144.5t171.5 -55.5q149 0 225 113t76 291
q0 180 -75.5 290.5t-225.5 110.5q-151 0 -227 -110.5t-76 -290.5z" />
    <glyph glyph-name="P" unicode="P" horiz-adv-x="1335" 
d="M100 0v1434h613q149 0 261 -37.5t179 -106t100 -157.5t33 -199t-33 -199t-100 -157.5t-179 -106t-261 -37.5h-226v-434h-387zM487 770h213q95 0 140 45t45 119t-45 119t-140 45h-213v-328z" />
    <glyph glyph-name="Q" unicode="Q" horiz-adv-x="1546" 
d="M1235 -57l-117 116q-149 -79 -344 -79q-214 0 -375.5 97.5t-245 263.5t-83.5 376t83.5 376t245 262.5t375.5 96.5q160 0 293 -56t222.5 -154t138.5 -233t49 -292q0 -250 -121 -438l112 -115zM471 717q0 -115 31 -204t100.5 -144.5t171.5 -55.5q34 0 84 11l-143 145
l233 221l113 -115q14 63 14 142q0 180 -75.5 290.5t-225.5 110.5q-151 0 -227 -110.5t-76 -290.5z" />
    <glyph glyph-name="R" unicode="R" horiz-adv-x="1349" 
d="M918 0l-242 434h-189v-434h-387v1434h613q149 0 261 -37.5t179 -106t100 -157.5t33 -199q0 -155 -66 -270t-202 -175l282 -489h-382zM487 770h213q95 0 140 45t45 119t-45 119t-140 45h-213v-328z" />
    <glyph glyph-name="S" unicode="S" horiz-adv-x="1380" 
d="M696 -20q-291 0 -458.5 132t-167.5 388h403q11 -201 225 -201q92 0 146.5 34.5t54.5 100.5q0 48 -34 75t-117 44l-207 41q-70 14 -127 32t-116 51t-99 76.5t-65 110t-25 148.5q0 110 44 195t123 138t184.5 80t233.5 27q131 0 236.5 -28.5t183.5 -85.5t120 -148.5
t42 -212.5h-404q5 84 -49.5 120t-138.5 36q-88 0 -128 -36t-40 -85q0 -35 25.5 -65t89.5 -44l184 -37q141 -28 238.5 -69t153.5 -96.5t80 -119t24 -145.5q0 -97 -33 -175t-89.5 -130t-135.5 -86.5t-167.5 -49.5t-189.5 -15z" />
    <glyph glyph-name="T" unicode="T" horiz-adv-x="1255" 
d="M434 0v1092h-395v342h1178v-342h-396v-1092h-387z" />
    <glyph glyph-name="U" unicode="U" horiz-adv-x="1427" 
d="M715 -20q-137 0 -247.5 33.5t-193.5 101t-128.5 177t-45.5 253.5v889h392v-856q0 -130 58.5 -196.5t164.5 -66.5t163.5 66.5t57.5 196.5v856h393v-889q0 -144 -45.5 -253.5t-128.5 -177t-193.5 -101t-246.5 -33.5z" />
    <glyph glyph-name="V" unicode="V" horiz-adv-x="1585" 
d="M541 0l-502 1434h407l336 -1043h21l336 1043h407l-502 -1434h-503z" />
    <glyph glyph-name="W" unicode="W" horiz-adv-x="2129" 
d="M406 0l-367 1434h399l185 -885h16l229 885h396l229 -885h14l187 885h397l-365 -1434h-401l-260 946l-260 -946h-399z" />
    <glyph glyph-name="X" unicode="X" horiz-adv-x="1429" 
d="M967 0l-252 395l-252 -395h-434l469 737l-445 697h434l228 -357l225 357h434l-442 -697l469 -737h-434z" />
    <glyph glyph-name="Y" unicode="Y" horiz-adv-x="1507" 
d="M553 0v506l-514 928h440l275 -551l274 551h440l-514 -928v-506h-401z" />
    <glyph glyph-name="Z" unicode="Z" horiz-adv-x="1286" 
d="M82 0v336l684 762h-678v336h1108l2 -336l-690 -762h696v-336h-1122z" />
    <glyph glyph-name="bracketleft" unicode="[" horiz-adv-x="716" 
d="M100 -266v1792h516v-322h-137v-1147h137v-323h-516z" />
    <glyph glyph-name="backslash" unicode="\" horiz-adv-x="1064" 
d="M1004 4h-381l-562 1430h383z" />
    <glyph glyph-name="bracketright" unicode="]" horiz-adv-x="716" 
d="M616 -266h-516v323h138v1147h-138v322h516v-1792z" />
    <glyph glyph-name="asciicircum" unicode="^" horiz-adv-x="1054" 
d="M92 952l326 482h225l320 -482h-332l-103 174l-102 -174h-334z" />
    <glyph glyph-name="underscore" unicode="_" horiz-adv-x="1208" 
d="M92 -324v324h1024v-324h-1024z" />
    <glyph glyph-name="grave" unicode="`" horiz-adv-x="544" 
d="M221 1188l-221 295h324l221 -295h-324z" />
    <glyph glyph-name="a" unicode="a" horiz-adv-x="1167" 
d="M391 -20q-64 0 -122 16.5t-109 51.5t-81 97.5t-30 145.5q0 53 13.5 97t33 74t53 54t62.5 38t73 26t73 17.5t74 12.5q9 1 13 2l138 25q69 11 92 27.5t24 64.5q-2 88 -108 88q-133 0 -133 -108v-15l-355 -4v58q0 163 117.5 250t378.5 87q249 0 359 -85.5t110 -256.5v-743
h-360v182h-15q-5 -20 -15 -41t-33.5 -51.5t-55 -53.5t-83 -39.5t-114.5 -16.5zM428 324q0 -78 98 -78q67 0 119.5 36.5t52.5 92.5v82q-10 -10 -28.5 -16.5t-40.5 -10.5t-23 -4l-108 -25q-35 -9 -52.5 -30t-17.5 -47z" />
    <glyph glyph-name="b" unicode="b" horiz-adv-x="1261" 
d="M756 -20q-99 0 -175 37.5t-102 84.5v-102h-379v1434h379v-471q26 47 102 84.5t175 37.5q86 0 164.5 -32t145 -95.5t106.5 -173.5t40 -252q0 -115 -26.5 -209.5t-71 -157t-104 -105t-123 -61.5t-131.5 -19zM463 532q0 -116 58.5 -177.5t135.5 -61.5q79 0 139 61.5
t60 177.5t-60 178t-139 62q-77 0 -135.5 -62t-58.5 -178z" />
    <glyph glyph-name="c" unicode="c" horiz-adv-x="1167" 
d="M598 -20q-80 0 -155 17.5t-147.5 58.5t-126.5 102.5t-87 157t-33 214.5t33 215t87 158t126.5 104t147.5 60t155 18q51 0 99.5 -7t105 -24.5t104.5 -51.5t90.5 -82.5t71 -124t37.5 -170.5h-342q-18 76 -56 110.5t-112 34.5q-54 0 -92.5 -20t-59 -55.5t-29.5 -75.5t-9 -89
q0 -103 43.5 -169t146.5 -66q75 0 112 36t56 111h342q-8 -112 -46.5 -197t-90 -134t-120 -80t-128.5 -41t-123 -10z" />
    <glyph glyph-name="d" unicode="d" horiz-adv-x="1261" 
d="M506 -20q-68 0 -132 19t-123.5 61.5t-104 105t-71 157t-26.5 209.5t26.5 209t71 157t104 106t123.5 62t132 19q99 0 174.5 -37.5t101.5 -84.5v471h379v-1434h-379v102q-26 -47 -101.5 -84.5t-174.5 -37.5zM406 532q0 -116 59.5 -177.5t138.5 -61.5q77 0 136 61.5
t59 177.5t-59 178t-136 62q-79 0 -138.5 -62t-59.5 -178z" />
    <glyph glyph-name="e" unicode="e" horiz-adv-x="1177" 
d="M602 -20q-81 0 -156 17t-148.5 58t-127.5 103.5t-87.5 160t-33.5 220.5q0 117 30.5 210.5t82 155.5t123.5 103t151 59t168 18q86 0 160 -16.5t142.5 -57t116.5 -102.5t76.5 -160t28.5 -223q0 -48 -6 -86h-712q13 -95 62 -135.5t136 -40.5q49 0 83.5 9.5t52.5 28t26 34.5
t14 39h330q-32 -185 -168.5 -290t-343.5 -105zM412 653h360q-3 26 -11.5 48.5t-26.5 47t-54 38.5t-86 14q-154 0 -182 -148z" />
    <glyph glyph-name="f" unicode="f" horiz-adv-x="815" 
d="M182 1094q0 190 103.5 281t292.5 91h186v-284h-98q-101 0 -105 -117h197v-289h-197v-776h-379v776h-153v289h153v29z" />
    <glyph glyph-name="g" unicode="g" horiz-adv-x="1245" 
d="M504 49q-66 0 -128.5 16t-122.5 55t-104.5 96.5t-72 146.5t-27.5 200t27.5 201.5t72 149t104.5 98t122.5 56.5t128.5 17q50 0 91.5 -10t68 -23.5t47.5 -33t31.5 -34t17.5 -30.5h6v111h379v-1012q0 -87 -21 -158.5t-54.5 -120.5t-82.5 -86.5t-99 -59t-109 -34.5
t-107.5 -17.5t-100.5 -4.5q-43 0 -82.5 2.5t-93 12.5t-97 26t-88.5 45.5t-75 69t-48.5 99t-16.5 132.5h344q7 -104 164 -104q98 0 143 48.5t45 149.5v117h-6q-10 -19 -25 -36t-44 -38t-77.5 -34t-109.5 -13zM406 563q0 -106 52 -160.5t136 -54.5q80 0 133 55t53 160
q0 104 -53 158.5t-133 54.5q-84 0 -136 -54.5t-52 -158.5z" />
    <glyph glyph-name="h" unicode="h" 
d="M100 0v1434h379v-598h17q8 45 31.5 87.5t61.5 79.5t98 59.5t132 22.5q158 0 258.5 -106t100.5 -293v-686h-379v592q0 182 -150 182q-74 0 -122 -43t-48 -139v-592h-379z" />
    <glyph glyph-name="i" unicode="i" horiz-adv-x="579" 
d="M100 0v1065h379v-1065h-379zM90 1339q0 85 59.5 143t139.5 58q81 0 140.5 -58t59.5 -143t-59.5 -141.5t-140.5 -56.5q-80 0 -139.5 57t-59.5 141z" />
    <glyph glyph-name="j" unicode="j" horiz-adv-x="595" 
d="M102 -408q-150 0 -211 7v295h127q53 0 77 35.5t24 90.5v1045h379v-1098q0 -189 -104 -282t-292 -93zM106 1339q0 84 60.5 142.5t140.5 58.5q81 0 141 -58t60 -143q0 -84 -60 -141t-141 -57q-80 0 -140.5 57t-60.5 141z" />
    <glyph glyph-name="k" unicode="k" horiz-adv-x="1249" 
d="M100 0v1434h379v-717l297 348h414l-420 -449l471 -616h-412l-288 371l-62 -64v-307h-379z" />
    <glyph glyph-name="l" unicode="l" horiz-adv-x="579" 
d="M100 0v1434h379v-1434h-379z" />
    <glyph glyph-name="m" unicode="m" horiz-adv-x="1873" 
d="M1395 592q0 96 -35.5 139t-93.5 43q-60 0 -100 -43.5t-40 -138.5v-592h-378v592q0 96 -36.5 139t-93.5 43q-59 0 -99 -43.5t-40 -138.5v-592h-379v1065h379v-229h17q13 94 96.5 171.5t200.5 77.5q110 0 194 -63.5t119 -179.5h2q13 92 104.5 167.5t217.5 75.5
q156 0 250 -105.5t94 -293.5v-686h-379v592z" />
    <glyph glyph-name="n" unicode="n" 
d="M799 592q0 182 -150 182q-74 0 -122 -43t-48 -139v-592h-379v1065h379v-229h17q8 45 31.5 87.5t61.5 79.5t98 59.5t132 22.5q158 0 258.5 -106t100.5 -293v-686h-379v592z" />
    <glyph glyph-name="o" unicode="o" horiz-adv-x="1193" 
d="M596 -20q-83 0 -160.5 19t-148.5 62.5t-123.5 106t-83.5 156.5t-31 208t31 208t83.5 157t123.5 106t148.5 62.5t160.5 19.5q84 0 162 -19.5t149 -62.5t123.5 -106t83.5 -157t31 -208t-31 -208t-83.5 -156.5t-124 -105.5t-149 -62.5t-161.5 -19.5zM403 532
q0 -120 51 -179.5t142 -59.5q92 0 143.5 59.5t51.5 179.5q0 121 -51.5 180.5t-143.5 59.5q-91 0 -142 -59.5t-51 -180.5z" />
    <glyph glyph-name="p" unicode="p" horiz-adv-x="1261" 
d="M100 -389v1454h379v-102q26 47 102 84.5t175 37.5q84 0 162.5 -32t145.5 -95.5t107.5 -173.5t40.5 -252q0 -115 -27 -209.5t-71.5 -157t-104 -105t-123 -61.5t-130.5 -19q-99 0 -175 37.5t-102 84.5v-491h-379zM463 532q0 -116 58.5 -177.5t135.5 -61.5q79 0 139 61.5
t60 177.5t-60 178t-139 62q-77 0 -135.5 -62t-58.5 -178z" />
    <glyph glyph-name="q" unicode="q" horiz-adv-x="1261" 
d="M1161 -389h-379v491q-26 -47 -101.5 -84.5t-174.5 -37.5q-67 0 -130.5 19t-123 61.5t-104.5 105t-72 157t-27 209.5q0 114 27 208.5t72 157t104.5 106t123 62.5t130.5 19q99 0 174.5 -37.5t101.5 -84.5v102h379v-1454zM406 532q0 -116 59.5 -177.5t138.5 -61.5
q77 0 136 61.5t59 177.5t-59 178t-136 62q-79 0 -138.5 -62t-59.5 -178z" />
    <glyph glyph-name="r" unicode="r" horiz-adv-x="890" 
d="M479 418v-418h-379v1065h379v-270h10q31 137 105 207.5t186 70.5q41 0 82 -10v-318q-61 7 -86 7q-43 0 -81 -7.5t-79 -30t-70 -58t-48 -97t-19 -141.5z" />
    <glyph glyph-name="s" unicode="s" horiz-adv-x="1054" 
d="M508 -20q-228 0 -350 98t-119 276h330q3 -22 8.5 -36.5t19.5 -33.5t45.5 -28.5t77.5 -9.5q121 0 121 63q0 54 -90 70l-184 37q-89 17 -152 51.5t-95.5 80t-46.5 92t-14 99.5q0 164 126.5 255t336.5 91q229 0 349 -104t118 -281h-309q-12 119 -158 119q-119 0 -119 -67
q0 -58 99 -76l205 -37q64 -11 117.5 -34.5t97.5 -60t69 -92t25 -124.5q0 -109 -66 -188.5t-179.5 -119.5t-262.5 -40z" />
    <glyph glyph-name="t" unicode="t" horiz-adv-x="845" 
d="M616 -14q-191 0 -296 91.5t-105 282.5v414h-186v291h186v281h379v-281h209v-291h-209v-362q0 -58 24.5 -91.5t98.5 -33.5q39 0 90 4v-281q-79 -24 -191 -24z" />
    <glyph glyph-name="u" unicode="u" 
d="M479 473q0 -182 150 -182q74 0 122 43t48 139v592h379v-1065h-379v229h-17q-8 -45 -31.5 -87.5t-61.5 -79.5t-98 -59.5t-132 -22.5q-158 0 -258.5 106t-100.5 293v686h379v-592z" />
    <glyph glyph-name="v" unicode="v" horiz-adv-x="1280" 
d="M401 0l-372 1065h385l219 -700h14l219 700h385l-372 -1065h-478z" />
    <glyph glyph-name="w" unicode="w" horiz-adv-x="1736" 
d="M301 0l-272 1065h356l145 -703h9l168 703h323l168 -703h8l146 703h356l-272 -1065h-422l-146 561l-143 -561h-424z" />
    <glyph glyph-name="x" unicode="x" horiz-adv-x="1255" 
d="M49 0l363 539l-334 526h405l144 -258l145 258h406l-334 -526l362 -539h-405l-174 268l-174 -268h-404z" />
    <glyph glyph-name="y" unicode="y" horiz-adv-x="1239" 
d="M135 -102q49 -6 90.5 -5.5t68 3.5t50.5 13.5t34.5 15.5t23 20t13 15.5t7.5 12.5q17 40 15 68t-23 82l-385 942h387l200 -578l207 578h387l-422 -1026q-60 -147 -116.5 -237t-132.5 -147t-171.5 -73t-232.5 -2v318z" />
    <glyph glyph-name="z" unicode="z" horiz-adv-x="1058" 
d="M82 0v315l442 435h-422v315h875v-315l-442 -435h442v-315h-895z" />
    <glyph glyph-name="braceleft" unicode="{" horiz-adv-x="798" 
d="M449 -266q-265 0 -265 264v483l-92 146l92 149v486q0 69 19.5 120t47 78t67 42.5t69 19.5t62.5 4h258v-322h-72q-72 0 -72 -59v-379l-127 -139l127 -135v-377q0 -58 72 -58h72v-323h-258z" />
    <glyph glyph-name="bar" unicode="|" horiz-adv-x="630" 
d="M154 -389v2027h323v-2027h-323z" />
    <glyph glyph-name="braceright" unicode="}" horiz-adv-x="798" 
d="M350 -266h-258v323h72q72 0 72 58v377l126 135l-126 139v379q0 59 -72 59h-72v322h258q33 0 62.5 -4t68.5 -19.5t66.5 -42.5t47 -78t19.5 -120v-486l93 -149l-93 -146v-483q0 -264 -264 -264z" />
    <glyph glyph-name="asciitilde" unicode="~" horiz-adv-x="1306" 
d="M911 352q-61 0 -120 22t-105.5 54t-89 63.5t-87 53.5t-83.5 22q-41 0 -71.5 -23t-30.5 -67h-224q-9 134 73.5 226t219.5 92q62 0 121.5 -22t106 -53.5t89 -62.5t86.5 -53t83 -22q43 0 72.5 22t29.5 66h225q8 -134 -75 -226t-220 -92z" />
    <glyph glyph-name="uni00A0" unicode="&#xa0;" horiz-adv-x="471" 
 />
    <glyph glyph-name="exclamdown" unicode="&#xa1;" horiz-adv-x="638" 
d="M178 514h283l51 -883h-383zM100 870q0 90 64 152.5t155 62.5t155.5 -62.5t64.5 -152.5t-64.5 -152.5t-155.5 -62.5t-155 62.5t-64 152.5z" />
    <glyph glyph-name="cent" unicode="&#xa2;" horiz-adv-x="1167" 
d="M532 -82v219q-74 7 -141 29t-130.5 64.5t-109.5 102t-74 147.5t-28 194q0 132 41.5 234.5t112.5 164.5t153 96t176 43v222h121v-220q60 -5 113.5 -18.5t113 -45.5t104 -79.5t78.5 -126t44 -178.5h-342q-27 116 -111 135v-452q82 23 111 139h342q-8 -100 -40.5 -178.5
t-77.5 -127t-104.5 -81.5t-115 -47t-115.5 -19v-217h-121zM406 674q0 -186 126 -223v448q-126 -37 -126 -225z" />
    <glyph glyph-name="sterling" unicode="&#xa3;" horiz-adv-x="1224" 
d="M82 193q93 87 142 164t52 155q0 41 -8 72h-188v196h82q-60 104 -60 221q0 133 71.5 236.5t190 157t261.5 53.5q100 0 192 -27.5t166 -79.5t118 -134.5t44 -184.5v-39h-359v31q0 5 -1 12.5t-9.5 26.5t-23 34t-47.5 27t-78 12q-54 0 -89 -15.5t-48.5 -42t-17 -44
t-3.5 -39.5q0 -18 4.5 -37.5t9 -33t17 -36t18.5 -31.5t23.5 -34.5t21.5 -32.5h203v-196h-131q0 -68 -41 -135t-158 -152q64 22 128.5 24.5t123.5 -7t121.5 -19t148 -6t177.5 27.5v-317q-90 -20 -180.5 -21t-159 10.5t-144.5 23.5t-140.5 18.5t-142.5 -5t-155 -46.5z" />
    <glyph glyph-name="currency" unicode="&#xa4;" horiz-adv-x="1273" 
d="M631 516q-121 0 -223 57l-72 -71l-238 235l97 97q-23 74 -23 141q0 79 27 153l-101 101l238 235l82 -82q99 52 213 52q118 0 221 -58l88 88l238 -235l-111 -111q23 -74 23 -143q0 -66 -19 -131l107 -107l-238 -235l-78 78q-106 -64 -231 -64zM479 975q0 -152 152 -152
q45 0 77 15t46.5 33t22 43.5t8 36.5t-0.5 23v1v1q1 11 0.5 22.5t-8 36.5t-22 43.5t-46.5 33t-77 14.5q-38 0 -67 -10t-43.5 -25.5t-25.5 -33.5t-12.5 -34.5t-3.5 -29.5t0 -17v-1z" />
    <glyph glyph-name="yen" unicode="&#xa5;" horiz-adv-x="1507" 
d="M330 344v180h213l-504 910h440l275 -551l274 551h440l-503 -910h221v-180h-232v-57h232v-181h-232v-106h-401v106h-223v181h223v57h-223z" />
    <glyph glyph-name="brokenbar" unicode="&#xa6;" horiz-adv-x="630" 
d="M154 983v655h323v-655h-323zM154 -389v655h323v-655h-323z" />
    <glyph glyph-name="section" unicode="&#xa7;" horiz-adv-x="1490" 
d="M737 -483q-276 0 -446.5 127t-188.5 379h426q12 -82 63.5 -118t149.5 -36q90 0 145.5 24t55.5 70q0 56 -30.5 80t-131.5 49l-172 41q-60 14 -102.5 26t-94 31.5t-87 41t-71.5 54.5t-57.5 72t-35 92t-13.5 117q0 141 80 240q-59 91 -59 227q0 131 77 226.5t206.5 142.5
t296.5 47q118 0 219.5 -27t184.5 -81t135.5 -144t64.5 -209h-424q-3 26 -13 46t-26.5 31.5t-31 18.5t-37 9.5t-34 3t-31.5 0.5h-7q-78 0 -116 -24t-38 -52q0 -14 1.5 -22t9 -21t27.5 -23.5t52 -19.5l229 -55q265 -63 370.5 -169t105.5 -294q0 -133 -76 -232q55 -89 55 -227
q0 -97 -36 -174t-96 -126.5t-143 -82t-170.5 -46t-185.5 -13.5zM573 555q0 -14 2 -22t9.5 -21t27.5 -23.5t52 -19.5l229 -55l65 -17q5 15 5 25q0 58 -31.5 85.5t-130.5 51.5l-172 41l-37 8q-19 -25 -19 -53z" />
    <glyph glyph-name="dieresis" unicode="&#xa8;" horiz-adv-x="952" 
d="M752 1141q-80 0 -139.5 56t-59.5 138t60 139.5t139 57.5q81 0 140.5 -57.5t59.5 -139.5t-59.5 -138t-140.5 -56zM0 1335q0 82 60 139.5t141 57.5q80 0 140 -57.5t60 -139.5t-60 -138t-140 -56q-81 0 -141 56t-60 138z" />
    <glyph glyph-name="copyright" unicode="&#xa9;" horiz-adv-x="1601" 
d="M801 -14q-200 0 -367 93.5t-265.5 261.5t-98.5 376q0 155 58 291.5t156.5 232t233 150.5t283.5 55t283.5 -55t233 -150.5t156.5 -232t58 -291.5q0 -208 -98.5 -376t-265.5 -261.5t-367 -93.5zM281 717q0 -152 69.5 -273.5t188 -187.5t262.5 -66t262 66t187 187.5
t69 273.5q0 151 -69 271.5t-187 186.5t-262 66t-262.5 -66t-188 -186.5t-69.5 -271.5zM424 717q0 177 113.5 283t273.5 106q41 0 79.5 -6.5t84.5 -27.5t81.5 -54t65 -91.5t41.5 -135.5h-223q-1 50 -39.5 77t-93.5 27q-66 0 -108 -45t-42 -133t42.5 -134t107.5 -46
q52 0 90 28t47 80h219q-11 -77 -40 -136t-65 -92.5t-82 -55t-85 -28.5t-80 -7q-103 0 -190 45.5t-142 136t-55 209.5z" />
    <glyph glyph-name="ordfeminine" unicode="&#xaa;" horiz-adv-x="811" 
d="M274 756q-42 0 -80 11t-71.5 34.5t-53.5 66t-20 99.5t20 98t57 63.5t79.5 34t97.5 15.5l172 10q3 61 -19.5 80.5t-68.5 19.5q-96 0 -96 -71h-213q1 73 24.5 124.5t67 80.5t98 42t125.5 13q182 0 250 -86t68 -271v-360h-197l-12 117q-26 -54 -90 -87.5t-138 -33.5z
M301 997q0 -17 14.5 -32t49.5 -15q42 0 72.5 19.5t37.5 62.5v19l-117 -4q-29 -1 -43 -16.5t-14 -33.5z" />
    <glyph glyph-name="guillemotleft" unicode="&#xab;" horiz-adv-x="1021" 
d="M940 152l-385 303v311l385 305v-336l-162 -125l162 -125v-333zM82 455v311l385 305v-336l-162 -125l162 -125v-333z" />
    <glyph glyph-name="logicalnot" unicode="&#xac;" horiz-adv-x="1126" 
d="M647 166v186h-547v287h926v-473h-379z" />
    <glyph glyph-name="uni00AD" unicode="&#xad;" horiz-adv-x="835" 
d="M82 420v282h672v-282h-672z" />
    <glyph glyph-name="registered" unicode="&#xae;" horiz-adv-x="1601" 
d="M801 -14q-200 0 -367 93.5t-265.5 261.5t-98.5 376q0 155 58 291.5t156.5 232t233 150.5t283.5 55t283.5 -55t233 -150.5t156.5 -232t58 -291.5q0 -208 -98.5 -376t-265.5 -261.5t-367 -93.5zM281 717q0 -152 69.5 -273.5t188 -187.5t262.5 -66t262 66t187 187.5
t69 273.5q0 151 -69 271.5t-187 186.5t-262 66t-262.5 -66t-188 -186.5t-69.5 -271.5zM498 391v653h385q130 0 198.5 -63.5t63.5 -169.5q-2 -68 -34 -121t-93 -80l143 -219h-235l-127 195h-72v-195h-229zM727 764h133q66 0 66 53q0 45 -66 45h-133v-98z" />
    <glyph glyph-name="macron" unicode="&#xaf;" horiz-adv-x="712" 
d="M0 1268v215h713v-215h-713z" />
    <glyph glyph-name="degree" unicode="&#xb0;" horiz-adv-x="735" 
d="M367 860q-133 0 -220.5 87.5t-87.5 215.5t87.5 215.5t220.5 87.5q135 0 222 -87.5t87 -215.5t-87 -215.5t-222 -87.5zM309 1163q0 -10 3.5 -21.5t17.5 -23.5t37 -12q33 0 46 19.5t13 37.5q0 9 -3.5 20.5t-18 24.5t-37.5 13t-37 -13t-17.5 -24.5t-3.5 -20.5z" />
    <glyph glyph-name="plusminus" unicode="&#xb1;" horiz-adv-x="1312" 
d="M481 453v381h-381v323h381v381h348v-381h383v-323h-383v-381h-348zM305 0v283h701v-283h-701z" />
    <glyph glyph-name="uni00B2" unicode="&#xb2;" horiz-adv-x="559" 
d="M82 915q0 38 1.5 61t9.5 54t23 53t42.5 47t68.5 48q6 3 33.5 17t34.5 19.5t17 20.5t10 35q0 24 -16.5 35.5t-31.5 11.5q-16 0 -33.5 -13t-17.5 -44v-17h-141v17q0 83 47 133.5t145 50.5q97 0 148 -50t51 -124q0 -27 -8.5 -50.5t-18 -38.5t-32 -33t-35 -26.5t-44.5 -27
t-44 -25.5q-30 -17 -38.5 -24t-8.5 -15v-6h223v-123h-385v14z" />
    <glyph glyph-name="uni00B3" unicode="&#xb3;" horiz-adv-x="575" 
d="M283 893q-100 0 -150.5 47.5t-50.5 126.5h135q1 -28 20 -44.5t48 -16.5q69 0 69 63q0 64 -82 64h-22v98h22q22 0 35.5 6t18 17t5.5 16t1 14q0 21 -12 35t-37 14q-23 0 -39.5 -14t-16.5 -43h-127q0 78 51 123t136 45t133.5 -39t48.5 -102q0 -46 -27.5 -77t-60.5 -40
q36 2 74.5 -30.5t38.5 -96.5q0 -75 -58.5 -120.5t-152.5 -45.5z" />
    <glyph glyph-name="acute" unicode="&#xb4;" horiz-adv-x="544" 
d="M0 1188l221 295h324l-221 -295h-324z" />
    <glyph glyph-name="uni00B5" unicode="&#xb5;" 
d="M100 -389v1454h379v-592q0 -182 150 -182q74 0 122 43t48 139v592h379v-1065h-379v229h-17q-17 -94 -95.5 -168t-207.5 -81v-369h-379z" />
    <glyph glyph-name="paragraph" unicode="&#xb6;" horiz-adv-x="1554" 
d="M614 -451v1031h-69q-119 0 -216 38t-156.5 100t-91.5 137t-32 153q0 77 32 151.5t91.5 136.5t156.5 100t216 38h909v-1885h-305v1670h-199v-1670h-336z" />
    <glyph glyph-name="periodcentered" unicode="&#xb7;" horiz-adv-x="598" 
d="M299 352q-91 0 -155 62.5t-64 152.5t64 152.5t155 62.5t155 -62.5t64 -152.5t-64 -152.5t-155 -62.5z" />
    <glyph glyph-name="cedilla" unicode="&#xb8;" horiz-adv-x="471" 
d="M92 -375q53 -3 89 11.5t36 48.5q0 43 -45.5 53t-77.5 -19l-94 119l154 162h239l-119 -111h9q84 0 136 -60t52 -148q0 -68 -33.5 -116t-91.5 -72.5t-119.5 -35t-134.5 -10.5v178z" />
    <glyph glyph-name="uni00B9" unicode="&#xb9;" horiz-adv-x="428" 
d="M203 1260q-13 -24 -48.5 -34t-72.5 -1v135q37 -6 73 18.5t48 55.5h133v-535h-133v361z" />
    <glyph glyph-name="ordmasculine" unicode="&#xba;" horiz-adv-x="825" 
d="M412 756q-153 0 -258 100t-105 264q0 165 104.5 261t258.5 96t259 -96.5t105 -260.5t-105.5 -264t-258.5 -100zM283 1120q0 -54 33.5 -94.5t95.5 -40.5t95.5 39t33.5 96q0 55 -33 92t-96 37t-96 -37t-33 -92z" />
    <glyph glyph-name="guillemotright" unicode="&#xbb;" horiz-adv-x="1046" 
d="M117 152v333l162 125l-162 125v336l385 -305v-311zM590 152v333l162 125l-162 125v336l385 -305v-311z" />
    <glyph glyph-name="onequarter" unicode="&#xbc;" horiz-adv-x="1261" 
d="M203 1260q-13 -24 -48.5 -34t-72.5 -1v135q37 -6 73 18.5t48 55.5h133v-535h-133v361zM59 0l895 1434h183l-893 -1434h-185zM737 135v109l238 291h133v-291h61v-109h-61v-135h-133v135h-238zM854 244h121v143z" />
    <glyph glyph-name="onehalf" unicode="&#xbd;" horiz-adv-x="1226" 
d="M190 1260q-13 -24 -48 -34t-72 -1v135q37 -6 72.5 18.5t47.5 55.5h134v-535h-134v361zM63 0l895 1434h183l-893 -1434h-185zM750 0v14q0 48 3.5 76t16.5 63.5t44 65t81 57.5q8 4 27.5 14t27.5 15t19.5 14.5t15.5 21.5t4 28q0 24 -16 35.5t-31 11.5q-16 0 -33.5 -13.5
t-17.5 -44.5v-16h-141v16q0 83 47 134t145 51q97 0 148 -50t51 -124q0 -27 -8.5 -50t-18 -38.5t-32 -33.5t-36 -26.5t-45 -27t-43.5 -25.5q-30 -17 -38.5 -24t-8.5 -15v-6h224v-123h-385z" />
    <glyph glyph-name="threequarters" unicode="&#xbe;" horiz-adv-x="1232" 
d="M283 893q-100 0 -150.5 47.5t-50.5 126.5h135q1 -28 20 -44.5t48 -16.5q69 0 69 63q0 64 -82 64h-22v98h22q22 0 35.5 6t18 17t5.5 16t1 14q0 21 -12 35t-37 14q-23 0 -39.5 -14t-16.5 -43h-127q0 78 51 123t136 45t133.5 -39t48.5 -102q0 -46 -27.5 -77t-60.5 -40
q36 2 74.5 -30.5t38.5 -96.5q0 -75 -58.5 -120.5t-152.5 -45.5zM0 0l895 1434h182l-893 -1434h-184zM780 135v109l238 291h133v-291h61v-109h-61v-135h-133v135h-238zM897 244h121v143z" />
    <glyph glyph-name="questiondown" unicode="&#xbf;" horiz-adv-x="1210" 
d="M764 524q0 -70 -16.5 -128t-42.5 -96t-57.5 -69t-63 -53.5t-57.5 -42.5t-42 -43t-16 -49q0 -104 115 -104q42 0 72 13t45.5 31t24 47t10 50.5t1.5 52.5h381q1 -115 -28 -205t-79 -147.5t-120 -95t-145.5 -53t-161.5 -15.5q-220 0 -357 112t-137 314q0 59 15 106t38.5 77
t52 55t56.5 47.5t51.5 47.5t38 62.5t14.5 85.5v33h408v-33zM354 870q0 90 64 152.5t155 62.5t155.5 -62.5t64.5 -152.5t-64.5 -152.5t-155.5 -62.5t-155 62.5t-64 152.5z" />
    <glyph glyph-name="Agrave" unicode="&#xc0;" horiz-adv-x="1564" 
d="M29 0l501 1434h504l502 -1434h-408l-69 215h-553l-70 -215h-407zM436 1851h324l221 -295h-324zM596 500h373l-176 544h-21z" />
    <glyph glyph-name="Aacute" unicode="&#xc1;" horiz-adv-x="1564" 
d="M29 0l501 1434h504l502 -1434h-408l-69 215h-553l-70 -215h-407zM596 500h373l-176 544h-21zM608 1556l221 295h324l-221 -295h-324z" />
    <glyph glyph-name="Acircumflex" unicode="&#xc2;" horiz-adv-x="1564" 
d="M29 0l501 1434h504l502 -1434h-408l-69 215h-553l-70 -215h-407zM322 1550l192 301h537l192 -301h-336l-125 205l-125 -205h-335zM596 500h373l-176 544h-21z" />
    <glyph glyph-name="Atilde" unicode="&#xc3;" horiz-adv-x="1564" 
d="M29 0l501 1434h504l502 -1434h-408l-69 215h-553l-70 -215h-407zM408 1614q0 123 55.5 192.5t165.5 69.5q55 0 100 -15.5t68.5 -33.5t47.5 -33.5t42 -15.5q24 0 31 2q25 9 26 37h217q0 -123 -56 -192t-167 -69q-55 0 -100 15.5t-68 34t-46.5 34t-41.5 15.5q-24 0 -32 -3
q-23 -11 -25 -38h-217zM596 500h373l-176 544h-21z" />
    <glyph glyph-name="Adieresis" unicode="&#xc4;" horiz-adv-x="1564" 
d="M29 0l501 1434h504l502 -1434h-408l-69 215h-553l-70 -215h-407zM303 1704q0 82 60 139.5t141 57.5q80 0 140.5 -57.5t60.5 -139.5t-60.5 -138.5t-140.5 -56.5q-81 0 -141 56.5t-60 138.5zM596 500h373l-176 544h-21zM856 1704q0 82 60 139.5t139 57.5q81 0 140.5 -57.5
t59.5 -139.5t-59.5 -138.5t-140.5 -56.5q-80 0 -139.5 56.5t-59.5 138.5z" />
    <glyph glyph-name="Aring" unicode="&#xc5;" horiz-adv-x="1564" 
d="M29 0l501 1434h504l502 -1434h-408l-69 215h-553l-70 -215h-407zM551 1720q0 94 66.5 158t164.5 64t164 -64t66 -158t-66 -158.5t-164 -64.5t-164.5 64.5t-66.5 158.5zM596 500h373l-176 544h-21zM721 1720q0 -29 17 -45t44 -16q26 0 43 16.5t17 44.5t-17 44t-43 16
q-27 0 -44 -16t-17 -44z" />
    <glyph glyph-name="AE" unicode="&#xc6;" horiz-adv-x="2076" 
d="M29 0l911 1434h1067v-336h-631v-228h570v-301h-570v-233h652v-336h-1039v205h-426l-129 -205h-405zM748 496h241v381z" />
    <glyph glyph-name="Ccedilla" unicode="&#xc7;" horiz-adv-x="1441" 
d="M608 -375q53 -3 89 11.5t36 48.5q0 43 -45.5 53t-77.5 -19l-94 119l139 148q-276 32 -430.5 225.5t-154.5 505.5q0 340 184.5 537.5t509.5 197.5q126 0 232.5 -33t191 -99t135 -176t57.5 -255h-379q-47 229 -251 229q-65 0 -115.5 -23t-81 -61t-50 -91.5t-27 -108
t-7.5 -117.5q0 -404 281 -404q204 0 251 232h379q-6 -124 -44.5 -223.5t-103.5 -166t-148.5 -107.5t-184.5 -58l-108 -101h8q84 0 136 -60t52 -148q0 -68 -33.5 -116t-91.5 -72.5t-119.5 -35t-134.5 -10.5v178z" />
    <glyph glyph-name="Egrave" unicode="&#xc8;" horiz-adv-x="1187" 
d="M100 0v1434h1018v-336h-631v-228h570v-301h-570v-233h652v-336h-1039zM299 1851h324l221 -295h-324z" />
    <glyph glyph-name="Eacute" unicode="&#xc9;" horiz-adv-x="1187" 
d="M100 0v1434h1018v-336h-631v-228h570v-301h-570v-233h652v-336h-1039zM471 1556l221 295h324l-221 -295h-324z" />
    <glyph glyph-name="Ecircumflex" unicode="&#xca;" horiz-adv-x="1187" 
d="M100 0v1434h1018v-336h-631v-228h570v-301h-570v-233h652v-336h-1039zM184 1550l193 301h536l193 -301h-336l-125 205l-125 -205h-336z" />
    <glyph glyph-name="Edieresis" unicode="&#xcb;" horiz-adv-x="1187" 
d="M100 0v1434h1018v-336h-631v-228h570v-301h-570v-233h652v-336h-1039zM166 1704q0 82 60 139.5t141 57.5q80 0 140 -57.5t60 -139.5t-60 -138.5t-140 -56.5q-81 0 -141 56.5t-60 138.5zM719 1704q0 82 60 139.5t139 57.5q81 0 140.5 -57.5t59.5 -139.5t-59.5 -138.5
t-140.5 -56.5q-80 0 -139.5 56.5t-59.5 138.5z" />
    <glyph glyph-name="Igrave" unicode="&#xcc;" horiz-adv-x="587" 
d="M100 0v1434h387v-1434h-387zM-57 1851h323l221 -295h-323z" />
    <glyph glyph-name="Iacute" unicode="&#xcd;" horiz-adv-x="587" 
d="M100 0v1434h387v-1434h-387zM117 1556l221 295h324l-222 -295h-323z" />
    <glyph glyph-name="Icircumflex" unicode="&#xce;" horiz-adv-x="587" 
d="M100 0v1434h387v-1434h-387zM-172 1550l192 301h537l193 -301h-336l-125 205l-125 -205h-336z" />
    <glyph glyph-name="Idieresis" unicode="&#xcf;" horiz-adv-x="587" 
d="M100 0v1434h387v-1434h-387zM-190 1704q0 82 59.5 139.5t140.5 57.5q80 0 140.5 -57.5t60.5 -139.5t-60.5 -138.5t-140.5 -56.5q-81 0 -140.5 56.5t-59.5 138.5zM362 1704q0 82 60 139.5t139 57.5q81 0 141 -57.5t60 -139.5t-60 -138.5t-141 -56.5q-80 0 -139.5 56.5
t-59.5 138.5z" />
    <glyph glyph-name="Eth" unicode="&#xd0;" horiz-adv-x="1519" 
d="M184 0v559h-143v283h143v592h590q330 0 504 -185t174 -532t-174 -532t-504 -185h-590zM571 336h162q95 0 156.5 20.5t98.5 68t52 117t15 175.5q0 212 -68.5 296.5t-253.5 84.5h-162v-256h142v-283h-142v-223z" />
    <glyph glyph-name="Ntilde" unicode="&#xd1;" horiz-adv-x="1464" 
d="M100 0v1434h396l471 -805h10v805h387v-1434h-412l-456 778h-9v-778h-387zM356 1614q0 123 56 192.5t166 69.5q55 0 100 -15.5t68.5 -33.5t47.5 -33.5t42 -15.5q24 0 31 2q25 9 26 37h217q0 -123 -56 -192t-167 -69q-55 0 -100 15.5t-68 34t-46.5 34t-41.5 15.5
q-24 0 -32 -3q-24 -10 -26 -38h-217z" />
    <glyph glyph-name="Ograve" unicode="&#xd2;" horiz-adv-x="1546" 
d="M774 -20q-214 0 -375.5 97.5t-245 263.5t-83.5 376t83.5 376t245 262.5t375.5 96.5q160 0 293 -56t222.5 -154t138.5 -233t49 -292q0 -156 -49 -291.5t-138.5 -234t-222.5 -155t-293 -56.5zM424 1851h324l221 -295h-324zM471 717q0 -115 31 -204t100.5 -144.5
t171.5 -55.5q149 0 225 113t76 291q0 180 -75.5 290.5t-225.5 110.5q-151 0 -227 -110.5t-76 -290.5z" />
    <glyph glyph-name="Oacute" unicode="&#xd3;" horiz-adv-x="1546" 
d="M774 -20q-214 0 -375.5 97.5t-245 263.5t-83.5 376t83.5 376t245 262.5t375.5 96.5q160 0 293 -56t222.5 -154t138.5 -233t49 -292q0 -156 -49 -291.5t-138.5 -234t-222.5 -155t-293 -56.5zM471 717q0 -115 31 -204t100.5 -144.5t171.5 -55.5q149 0 225 113t76 291
q0 180 -75.5 290.5t-225.5 110.5q-151 0 -227 -110.5t-76 -290.5zM598 1556l221 295h324l-221 -295h-324z" />
    <glyph glyph-name="Ocircumflex" unicode="&#xd4;" horiz-adv-x="1546" 
d="M774 -20q-214 0 -375.5 97.5t-245 263.5t-83.5 376t83.5 376t245 262.5t375.5 96.5q160 0 293 -56t222.5 -154t138.5 -233t49 -292q0 -156 -49 -291.5t-138.5 -234t-222.5 -155t-293 -56.5zM311 1550l193 301h536l193 -301h-336l-125 205l-125 -205h-336zM471 717
q0 -115 31 -204t100.5 -144.5t171.5 -55.5q149 0 225 113t76 291q0 180 -75.5 290.5t-225.5 110.5q-151 0 -227 -110.5t-76 -290.5z" />
    <glyph glyph-name="Otilde" unicode="&#xd5;" horiz-adv-x="1546" 
d="M774 -20q-214 0 -375.5 97.5t-245 263.5t-83.5 376t83.5 376t245 262.5t375.5 96.5q160 0 293 -56t222.5 -154t138.5 -233t49 -292q0 -156 -49 -291.5t-138.5 -234t-222.5 -155t-293 -56.5zM397 1614q0 123 55.5 192.5t165.5 69.5q55 0 100.5 -15.5t69 -33.5t47.5 -33.5
t42 -15.5q24 0 31 2q25 9 26 37h217q0 -123 -56 -192t-167 -69q-55 0 -100 15.5t-68 34t-46.5 34t-41.5 15.5q-24 0 -32 -3q-24 -10 -26 -38h-217zM471 717q0 -115 31 -204t100.5 -144.5t171.5 -55.5q149 0 225 113t76 291q0 180 -75.5 290.5t-225.5 110.5
q-151 0 -227 -110.5t-76 -290.5z" />
    <glyph glyph-name="Odieresis" unicode="&#xd6;" horiz-adv-x="1546" 
d="M774 -20q-214 0 -375.5 97.5t-245 263.5t-83.5 376t83.5 376t245 262.5t375.5 96.5q160 0 293 -56t222.5 -154t138.5 -233t49 -292q0 -156 -49 -291.5t-138.5 -234t-222.5 -155t-293 -56.5zM293 1704q0 82 60 139.5t141 57.5q80 0 140 -57.5t60 -139.5t-60 -138.5
t-140 -56.5q-81 0 -141 56.5t-60 138.5zM471 717q0 -115 31 -204t100.5 -144.5t171.5 -55.5q149 0 225 113t76 291q0 180 -75.5 290.5t-225.5 110.5q-151 0 -227 -110.5t-76 -290.5zM846 1704q0 82 59.5 139.5t138.5 57.5q81 0 141 -57.5t60 -139.5t-60 -138.5t-141 -56.5
q-80 0 -139 56.5t-59 138.5z" />
    <glyph glyph-name="multiply" unicode="&#xd7;" horiz-adv-x="1228" 
d="M334 6l-232 227l285 281l-285 277l232 227l280 -277l281 277l231 -227l-278 -277l278 -281l-231 -227l-281 277z" />
    <glyph glyph-name="Oslash" unicode="&#xd8;" horiz-adv-x="1546" 
d="M170 -102l135 247q-114 100 -174.5 247.5t-60.5 324.5q0 210 83.5 376t245 262.5t375.5 96.5q116 0 232 -33l59 107h311l-131 -240q111 -100 171.5 -247.5t60.5 -321.5q0 -156 -49 -291.5t-138.5 -234t-222.5 -155t-293 -56.5q-115 0 -227 32l-64 -114h-313zM471 717
q0 -126 35 -209l332 604q-30 6 -64 6q-151 0 -227 -110.5t-76 -290.5zM715 319q27 -6 59 -6q149 0 225 113t76 291q0 112 -31 203z" />
    <glyph glyph-name="Ugrave" unicode="&#xd9;" horiz-adv-x="1427" 
d="M715 -20q-137 0 -247.5 33.5t-193.5 101t-128.5 177t-45.5 253.5v889h392v-856q0 -130 58.5 -196.5t164.5 -66.5t163.5 66.5t57.5 196.5v856h393v-889q0 -144 -45.5 -253.5t-128.5 -177t-193.5 -101t-246.5 -33.5zM332 1851h323l222 -295h-324z" />
    <glyph glyph-name="Uacute" unicode="&#xda;" horiz-adv-x="1427" 
d="M715 -20q-137 0 -247.5 33.5t-193.5 101t-128.5 177t-45.5 253.5v889h392v-856q0 -130 58.5 -196.5t164.5 -66.5t163.5 66.5t57.5 196.5v856h393v-889q0 -144 -45.5 -253.5t-128.5 -177t-193.5 -101t-246.5 -33.5zM506 1556l221 295h324l-222 -295h-323z" />
    <glyph glyph-name="Ucircumflex" unicode="&#xdb;" horiz-adv-x="1427" 
d="M715 -20q-137 0 -247.5 33.5t-193.5 101t-128.5 177t-45.5 253.5v889h392v-856q0 -130 58.5 -196.5t164.5 -66.5t163.5 66.5t57.5 196.5v856h393v-889q0 -144 -45.5 -253.5t-128.5 -177t-193.5 -101t-246.5 -33.5zM217 1550l193 301h536l193 -301h-336l-125 205
l-125 -205h-336z" />
    <glyph glyph-name="Udieresis" unicode="&#xdc;" horiz-adv-x="1427" 
d="M715 -20q-137 0 -247.5 33.5t-193.5 101t-128.5 177t-45.5 253.5v889h392v-856q0 -130 58.5 -196.5t164.5 -66.5t163.5 66.5t57.5 196.5v856h393v-889q0 -144 -45.5 -253.5t-128.5 -177t-193.5 -101t-246.5 -33.5zM201 1704q0 82 59.5 139.5t140.5 57.5q80 0 140.5 -57.5
t60.5 -139.5t-60.5 -138.5t-140.5 -56.5q-81 0 -140.5 56.5t-59.5 138.5zM754 1704q0 82 59.5 139.5t138.5 57.5q81 0 141 -57.5t60 -139.5t-60 -138.5t-141 -56.5q-80 0 -139 56.5t-59 138.5z" />
    <glyph glyph-name="Yacute" unicode="&#xdd;" horiz-adv-x="1507" 
d="M553 0v506l-514 928h440l275 -551l274 551h440l-514 -928v-506h-401zM578 1556l221 295h323l-221 -295h-323z" />
    <glyph glyph-name="Thorn" unicode="&#xde;" horiz-adv-x="1335" 
d="M100 0v1434h387v-215h226q149 0 261 -37.5t179 -106t100 -157.5t33 -199t-33 -199t-100 -157.5t-179 -106t-261 -37.5h-226v-219h-387zM487 555h213q95 0 140 45t45 119q0 75 -45 119.5t-140 44.5h-213v-328z" />
    <glyph glyph-name="germandbls" unicode="&#xdf;" horiz-adv-x="1320" 
d="M100 922q0 121 28.5 214.5t77 152.5t119 96t148.5 52t172 15q90 0 168 -12.5t146.5 -40.5t117 -71t76 -106t27.5 -143q0 -125 -60.5 -199.5t-122.5 -80.5q45 -5 91 -28t88.5 -65t69 -113t26.5 -159q0 -96 -33 -173t-100.5 -136.5t-180.5 -92t-264 -32.5h-45v324h49
q34 0 63.5 5.5t61.5 20.5t51 47.5t19 79.5q0 31 -10 55.5t-23.5 40t-37 26.5t-42.5 16.5t-47.5 8t-43.5 3t-40 0.5v282q49 0 82 12t46.5 31.5t18.5 35.5t5 34q0 108 -148 108q-91 0 -132.5 -51.5t-41.5 -156.5v-922h-379v922z" />
    <glyph glyph-name="agrave" unicode="&#xe0;" horiz-adv-x="1167" 
d="M391 -20q-64 0 -122 16.5t-109 51.5t-81 97.5t-30 145.5q0 53 13.5 97t33 74t53 54t62.5 38t73 26t73 17.5t74 12.5q9 1 13 2l138 25q69 11 92 27.5t24 64.5q-2 88 -108 88q-133 0 -133 -108v-15l-355 -4v58q0 163 117.5 250t378.5 87q249 0 359 -85.5t110 -256.5v-743
h-360v182h-15q-5 -20 -15 -41t-33.5 -51.5t-55 -53.5t-83 -39.5t-114.5 -16.5zM252 1483h323l222 -295h-324zM428 324q0 -78 98 -78q67 0 119.5 36.5t52.5 92.5v82q-10 -10 -28.5 -16.5t-40.5 -10.5t-23 -4l-108 -25q-35 -9 -52.5 -30t-17.5 -47z" />
    <glyph glyph-name="aacute" unicode="&#xe1;" horiz-adv-x="1167" 
d="M391 -20q-64 0 -122 16.5t-109 51.5t-81 97.5t-30 145.5q0 53 13.5 97t33 74t53 54t62.5 38t73 26t73 17.5t74 12.5q9 1 13 2l138 25q69 11 92 27.5t24 64.5q-2 88 -108 88q-133 0 -133 -108v-15l-355 -4v58q0 163 117.5 250t378.5 87q249 0 359 -85.5t110 -256.5v-743
h-360v182h-15q-5 -20 -15 -41t-33.5 -51.5t-55 -53.5t-83 -39.5t-114.5 -16.5zM426 1188l221 295h324l-221 -295h-324zM428 324q0 -78 98 -78q67 0 119.5 36.5t52.5 92.5v82q-10 -10 -28.5 -16.5t-40.5 -10.5t-23 -4l-108 -25q-35 -9 -52.5 -30t-17.5 -47z" />
    <glyph glyph-name="acircumflex" unicode="&#xe2;" horiz-adv-x="1167" 
d="M391 -20q-64 0 -122 16.5t-109 51.5t-81 97.5t-30 145.5q0 53 13.5 97t33 74t53 54t62.5 38t73 26t73 17.5t74 12.5q9 1 13 2l138 25q69 11 92 27.5t24 64.5q-2 88 -108 88q-133 0 -133 -108v-15l-355 -4v58q0 163 117.5 250t378.5 87q249 0 359 -85.5t110 -256.5v-743
h-360v182h-15q-5 -20 -15 -41t-33.5 -51.5t-55 -53.5t-83 -39.5t-114.5 -16.5zM139 1182l193 301h536l193 -301h-336l-125 204l-125 -204h-336zM428 324q0 -78 98 -78q67 0 119.5 36.5t52.5 92.5v82q-10 -10 -28.5 -16.5t-40.5 -10.5t-23 -4l-108 -25q-35 -9 -52.5 -30
t-17.5 -47z" />
    <glyph glyph-name="atilde" unicode="&#xe3;" horiz-adv-x="1167" 
d="M391 -20q-64 0 -122 16.5t-109 51.5t-81 97.5t-30 145.5q0 53 13.5 97t33 74t53 54t62.5 38t73 26t73 17.5t74 12.5q9 1 13 2l138 25q69 11 92 27.5t24 64.5q-2 88 -108 88q-133 0 -133 -108v-15l-355 -4v58q0 163 117.5 250t378.5 87q249 0 359 -85.5t110 -256.5v-743
h-360v182h-15q-5 -20 -15 -41t-33.5 -51.5t-55 -53.5t-83 -39.5t-114.5 -16.5zM225 1245q0 123 55.5 192.5t165.5 69.5q55 0 100.5 -15.5t69 -33.5t47.5 -33.5t42 -15.5q24 0 31 2q25 9 26 37h217q0 -123 -56 -191.5t-167 -68.5q-55 0 -100 15.5t-68 33.5t-46.5 33.5
t-41.5 15.5q-24 0 -32 -3q-24 -10 -26 -38h-217zM428 324q0 -78 98 -78q67 0 119.5 36.5t52.5 92.5v82q-10 -10 -28.5 -16.5t-40.5 -10.5t-23 -4l-108 -25q-35 -9 -52.5 -30t-17.5 -47z" />
    <glyph glyph-name="adieresis" unicode="&#xe4;" horiz-adv-x="1167" 
d="M391 -20q-64 0 -122 16.5t-109 51.5t-81 97.5t-30 145.5q0 53 13.5 97t33 74t53 54t62.5 38t73 26t73 17.5t74 12.5q9 1 13 2l138 25q69 11 92 27.5t24 64.5q-2 88 -108 88q-133 0 -133 -108v-15l-355 -4v58q0 163 117.5 250t378.5 87q249 0 359 -85.5t110 -256.5v-743
h-360v182h-15q-5 -20 -15 -41t-33.5 -51.5t-55 -53.5t-83 -39.5t-114.5 -16.5zM121 1335q0 82 60 139.5t141 57.5q80 0 140 -57.5t60 -139.5t-60 -138t-140 -56q-81 0 -141 56t-60 138zM428 324q0 -78 98 -78q67 0 119.5 36.5t52.5 92.5v82q-10 -10 -28.5 -16.5t-40.5 -10.5
t-23 -4l-108 -25q-35 -9 -52.5 -30t-17.5 -47zM674 1335q0 82 59.5 139.5t138.5 57.5q81 0 141 -57.5t60 -139.5t-60 -138t-141 -56q-80 0 -139 56t-59 138z" />
    <glyph glyph-name="aring" unicode="&#xe5;" horiz-adv-x="1167" 
d="M391 -20q-64 0 -122 16.5t-109 51.5t-81 97.5t-30 145.5q0 53 13.5 97t33 74t53 54t62.5 38t73 26t73 17.5t74 12.5q9 1 13 2l138 25q69 11 92 27.5t24 64.5q-2 88 -108 88q-133 0 -133 -108v-15l-355 -4v58q0 163 117.5 250t378.5 87q249 0 359 -85.5t110 -256.5v-743
h-360v182h-15q-5 -20 -15 -41t-33.5 -51.5t-55 -53.5t-83 -39.5t-114.5 -16.5zM369 1352q0 94 66.5 157.5t164.5 63.5t163.5 -63.5t65.5 -157.5t-65.5 -159t-163.5 -65t-164.5 65t-66.5 159zM428 324q0 -78 98 -78q67 0 119.5 36.5t52.5 92.5v82q-10 -10 -28.5 -16.5
t-40.5 -10.5t-23 -4l-108 -25q-35 -9 -52.5 -30t-17.5 -47zM539 1352q0 -29 17 -45.5t44 -16.5q26 0 42.5 17t16.5 45t-16.5 43.5t-42.5 15.5q-27 0 -44 -15.5t-17 -43.5z" />
    <glyph glyph-name="ae" unicode="&#xe6;" horiz-adv-x="1828" 
d="M440 -20q-61 0 -115 9.5t-105.5 33t-88.5 60t-59.5 95t-22.5 133.5q0 324 402 324h243v76q0 92 -119 92q-16 0 -25 -0.5t-29 -6t-32 -16t-22 -33t-10 -53.5v-16l-340 -4v63q0 168 118 258t351 90q224 0 321 -94q140 94 348 94q86 0 160 -16.5t142.5 -57t117 -102.5
t77 -160t28.5 -223q0 -48 -6 -86h-713q13 -95 62.5 -135.5t136.5 -40.5q49 0 83.5 9.5t52.5 28t26 34.5t14 39h329q-32 -185 -168.5 -290t-343.5 -105q-120 0 -230.5 39.5t-188.5 125.5q-15 -23 -43.5 -48t-75.5 -53t-119 -46t-156 -18zM428 338q0 -11 1 -18.5t7 -22
t17.5 -23.5t35.5 -16.5t58 -7.5q147 0 147 149v25h-149q-47 0 -82 -20.5t-35 -65.5zM1063 653h360q-3 26 -11.5 48.5t-26.5 47t-54 38.5t-86 14q-154 0 -182 -148z" />
    <glyph glyph-name="ccedilla" unicode="&#xe7;" horiz-adv-x="1167" 
d="M426 -375q53 -3 89 11.5t36 48.5q0 43 -45.5 53t-77.5 -19l-94 119l143 152q-68 13 -128 38.5t-116 70t-96 103.5t-64 143t-24 185q0 119 33 215t87 158t126.5 104t147.5 60t155 18q51 0 99.5 -7t105 -24.5t104.5 -51.5t90.5 -82.5t71 -124t37.5 -170.5h-342
q-18 76 -56 110.5t-112 34.5q-54 0 -92.5 -20t-59 -55.5t-29.5 -75.5t-9 -89q0 -103 43.5 -169t146.5 -66q75 0 112 36t56 111h342q-8 -112 -45 -197t-94.5 -135.5t-118 -78.5t-131.5 -41l-109 -101h8q84 0 136.5 -60t52.5 -148q0 -68 -33.5 -116t-91.5 -72.5t-119.5 -35
t-134.5 -10.5v178z" />
    <glyph glyph-name="egrave" unicode="&#xe8;" horiz-adv-x="1177" 
d="M602 -20q-81 0 -156 17t-148.5 58t-127.5 103.5t-87.5 160t-33.5 220.5q0 117 30.5 210.5t82 155.5t123.5 103t151 59t168 18q86 0 160 -16.5t142.5 -57t116.5 -102.5t76.5 -160t28.5 -223q0 -48 -6 -86h-712q13 -95 62 -135.5t136 -40.5q49 0 83.5 9.5t52.5 28t26 34.5
t14 39h330q-32 -185 -168.5 -290t-343.5 -105zM238 1483h323l221 -295h-323zM412 653h360q-3 26 -11.5 48.5t-26.5 47t-54 38.5t-86 14q-154 0 -182 -148z" />
    <glyph glyph-name="eacute" unicode="&#xe9;" horiz-adv-x="1177" 
d="M602 -20q-81 0 -156 17t-148.5 58t-127.5 103.5t-87.5 160t-33.5 220.5q0 117 30.5 210.5t82 155.5t123.5 103t151 59t168 18q86 0 160 -16.5t142.5 -57t116.5 -102.5t76.5 -160t28.5 -223q0 -48 -6 -86h-712q13 -95 62 -135.5t136 -40.5q49 0 83.5 9.5t52.5 28t26 34.5
t14 39h330q-32 -185 -168.5 -290t-343.5 -105zM410 1188l221 295h323l-221 -295h-323zM412 653h360q-3 26 -11.5 48.5t-26.5 47t-54 38.5t-86 14q-154 0 -182 -148z" />
    <glyph glyph-name="ecircumflex" unicode="&#xea;" horiz-adv-x="1177" 
d="M602 -20q-81 0 -156 17t-148.5 58t-127.5 103.5t-87.5 160t-33.5 220.5q0 117 30.5 210.5t82 155.5t123.5 103t151 59t168 18q86 0 160 -16.5t142.5 -57t116.5 -102.5t76.5 -160t28.5 -223q0 -48 -6 -86h-712q13 -95 62 -135.5t136 -40.5q49 0 83.5 9.5t52.5 28t26 34.5
t14 39h330q-32 -185 -168.5 -290t-343.5 -105zM123 1182l192 301h537l192 -301h-335l-125 204l-125 -204h-336zM412 653h360q-3 26 -11.5 48.5t-26.5 47t-54 38.5t-86 14q-154 0 -182 -148z" />
    <glyph glyph-name="edieresis" unicode="&#xeb;" horiz-adv-x="1177" 
d="M602 -20q-81 0 -156 17t-148.5 58t-127.5 103.5t-87.5 160t-33.5 220.5q0 117 30.5 210.5t82 155.5t123.5 103t151 59t168 18q86 0 160 -16.5t142.5 -57t116.5 -102.5t76.5 -160t28.5 -223q0 -48 -6 -86h-712q13 -95 62 -135.5t136 -40.5q49 0 83.5 9.5t52.5 28t26 34.5
t14 39h330q-32 -185 -168.5 -290t-343.5 -105zM104 1335q0 82 60 139.5t141 57.5q80 0 140.5 -57.5t60.5 -139.5q0 -81 -60.5 -137.5t-140.5 -56.5q-81 0 -141 56t-60 138zM412 653h360q-3 26 -11.5 48.5t-26.5 47t-54 38.5t-86 14q-154 0 -182 -148zM657 1335
q0 82 60 139.5t139 57.5q81 0 141 -57.5t60 -139.5t-60 -138t-141 -56q-80 0 -139.5 56t-59.5 138z" />
    <glyph glyph-name="igrave" unicode="&#xec;" horiz-adv-x="557" 
d="M90 0v1065h379v-1065h-379zM-72 1483h324l221 -295h-323z" />
    <glyph glyph-name="iacute" unicode="&#xed;" horiz-adv-x="557" 
d="M90 0v1065h379v-1065h-379zM102 1188l222 295h323l-221 -295h-324z" />
    <glyph glyph-name="icircumflex" unicode="&#xee;" horiz-adv-x="557" 
d="M90 0v1065h379v-1065h-379zM-184 1182l192 301h537l192 -301h-336l-125 204l-124 -204h-336z" />
    <glyph glyph-name="idieresis" unicode="&#xef;" horiz-adv-x="557" 
d="M90 0v1065h379v-1065h-379zM-203 1335q0 82 60 139.5t141 57.5q80 0 140.5 -57.5t60.5 -139.5q0 -81 -60.5 -137.5t-140.5 -56.5q-81 0 -141 56t-60 138zM350 1335q0 82 60 139.5t139 57.5q81 0 141 -57.5t60 -139.5t-60 -138t-141 -56q-80 0 -139.5 56t-59.5 138z" />
    <glyph glyph-name="eth" unicode="&#xf0;" horiz-adv-x="1239" 
d="M592 -20q-82 0 -159.5 19.5t-147.5 63t-122 106.5t-83 156.5t-31 206.5q0 104 27 192t73 150t107.5 105.5t130.5 64.5t141 21q100 0 166 -35q-52 115 -73 148h-279v159h160q-45 48 -103 97h375l76 -97h293v-159h-178q102 -154 138 -282.5t36 -324.5q0 -124 -31 -225
t-83.5 -168t-123.5 -112.5t-148 -65.5t-161 -20zM424 532q0 -121 49.5 -175t120.5 -54t120.5 54t49.5 175q0 60 -16.5 103.5t-43.5 65.5t-54.5 32t-55.5 10q-27 0 -54 -10t-54.5 -32t-44.5 -66t-17 -103z" />
    <glyph glyph-name="ntilde" unicode="&#xf1;" 
d="M799 592q0 182 -150 182q-74 0 -122 -43t-48 -139v-592h-379v1065h379v-229h17q8 45 31.5 87.5t61.5 79.5t98 59.5t132 22.5q158 0 258.5 -106t100.5 -293v-686h-379v592zM264 1245q0 123 55.5 192.5t165.5 69.5q55 0 100 -15.5t68.5 -33.5t47.5 -33.5t42 -15.5
q24 0 31 2q25 10 27 37h217q0 -123 -56 -191.5t-167 -68.5q-55 0 -100 15.5t-68 33.5t-46.5 33.5t-41.5 15.5q-24 0 -32 -3q-24 -10 -26 -38h-217z" />
    <glyph glyph-name="ograve" unicode="&#xf2;" horiz-adv-x="1193" 
d="M596 -20q-83 0 -160.5 19t-148.5 62.5t-123.5 106t-83.5 156.5t-31 208t31 208t83.5 157t123.5 106t148.5 62.5t160.5 19.5q84 0 162 -19.5t149 -62.5t123.5 -106t83.5 -157t31 -208t-31 -208t-83.5 -156.5t-124 -105.5t-149 -62.5t-161.5 -19.5zM248 1483h323l222 -295
h-324zM403 532q0 -120 51 -179.5t142 -59.5q92 0 143.5 59.5t51.5 179.5q0 121 -51.5 180.5t-143.5 59.5q-91 0 -142 -59.5t-51 -180.5z" />
    <glyph glyph-name="oacute" unicode="&#xf3;" horiz-adv-x="1193" 
d="M596 -20q-83 0 -160.5 19t-148.5 62.5t-123.5 106t-83.5 156.5t-31 208t31 208t83.5 157t123.5 106t148.5 62.5t160.5 19.5q84 0 162 -19.5t149 -62.5t123.5 -106t83.5 -157t31 -208t-31 -208t-83.5 -156.5t-124 -105.5t-149 -62.5t-161.5 -19.5zM403 532
q0 -120 51 -179.5t142 -59.5q92 0 143.5 59.5t51.5 179.5q0 121 -51.5 180.5t-143.5 59.5q-91 0 -142 -59.5t-51 -180.5zM422 1188l221 295h324l-222 -295h-323z" />
    <glyph glyph-name="ocircumflex" unicode="&#xf4;" horiz-adv-x="1193" 
d="M596 -20q-83 0 -160.5 19t-148.5 62.5t-123.5 106t-83.5 156.5t-31 208t31 208t83.5 157t123.5 106t148.5 62.5t160.5 19.5q84 0 162 -19.5t149 -62.5t123.5 -106t83.5 -157t31 -208t-31 -208t-83.5 -156.5t-124 -105.5t-149 -62.5t-161.5 -19.5zM133 1182l193 301h536
l193 -301h-336l-125 204l-125 -204h-336zM403 532q0 -120 51 -179.5t142 -59.5q92 0 143.5 59.5t51.5 179.5q0 121 -51.5 180.5t-143.5 59.5q-91 0 -142 -59.5t-51 -180.5z" />
    <glyph glyph-name="otilde" unicode="&#xf5;" horiz-adv-x="1193" 
d="M596 -20q-83 0 -160.5 19t-148.5 62.5t-123.5 106t-83.5 156.5t-31 208t31 208t83.5 157t123.5 106t148.5 62.5t160.5 19.5q84 0 162 -19.5t149 -62.5t123.5 -106t83.5 -157t31 -208t-31 -208t-83.5 -156.5t-124 -105.5t-149 -62.5t-161.5 -19.5zM221 1245
q0 123 55.5 192.5t165.5 69.5q55 0 100 -15.5t68.5 -33.5t47.5 -33.5t42 -15.5q24 0 31 2q25 10 27 37h217q0 -123 -56 -191.5t-167 -68.5q-55 0 -100 15.5t-68 33.5t-46.5 33.5t-41.5 15.5q-24 0 -32 -3q-24 -10 -26 -38h-217zM403 532q0 -120 51 -179.5t142 -59.5
q92 0 143.5 59.5t51.5 179.5q0 121 -51.5 180.5t-143.5 59.5q-91 0 -142 -59.5t-51 -180.5z" />
    <glyph glyph-name="odieresis" unicode="&#xf6;" horiz-adv-x="1193" 
d="M596 -20q-83 0 -160.5 19t-148.5 62.5t-123.5 106t-83.5 156.5t-31 208t31 208t83.5 157t123.5 106t148.5 62.5t160.5 19.5q84 0 162 -19.5t149 -62.5t123.5 -106t83.5 -157t31 -208t-31 -208t-83.5 -156.5t-124 -105.5t-149 -62.5t-161.5 -19.5zM117 1335
q0 82 59.5 139.5t140.5 57.5q80 0 140.5 -57.5t60.5 -139.5q0 -81 -60.5 -137.5t-140.5 -56.5q-81 0 -140.5 56t-59.5 138zM403 532q0 -120 51 -179.5t142 -59.5q92 0 143.5 59.5t51.5 179.5q0 121 -51.5 180.5t-143.5 59.5q-91 0 -142 -59.5t-51 -180.5zM670 1335
q0 82 59.5 139.5t138.5 57.5q81 0 141 -57.5t60 -139.5t-60 -138t-141 -56q-80 0 -139 56t-59 138z" />
    <glyph glyph-name="divide" unicode="&#xf7;" horiz-adv-x="925" 
d="M467 770q-67 0 -112.5 45t-45.5 113q0 65 45.5 110t112.5 45q64 0 109 -45t45 -110q0 -67 -44.5 -112.5t-109.5 -45.5zM100 420v282h727v-282h-727zM309 201q0 65 45.5 109t112.5 44q65 0 109.5 -44.5t44.5 -108.5q0 -69 -44.5 -114.5t-109.5 -45.5q-68 0 -113 45.5
t-45 114.5z" />
    <glyph glyph-name="oslash" unicode="&#xf8;" horiz-adv-x="1193" 
d="M143 -102l97 194q-191 149 -191 440q0 114 31 208t83.5 157t123.5 106t148.5 62.5t160.5 19.5q68 0 133 -12l55 111h267l-103 -207q197 -148 197 -445q0 -114 -31 -208t-83.5 -156.5t-124 -105.5t-149 -62.5t-161.5 -19.5q-74 0 -137 14l-47 -96h-269zM403 532
q0 -42 11 -92l166 332q-177 -13 -177 -240zM608 293q87 5 135 64t48 175q0 56 -13 103z" />
    <glyph glyph-name="ugrave" unicode="&#xf9;" 
d="M479 473q0 -182 150 -182q74 0 122 43t48 139v592h379v-1065h-379v229h-17q-8 -45 -31.5 -87.5t-61.5 -79.5t-98 -59.5t-132 -22.5q-158 0 -258.5 106t-100.5 293v686h379v-592zM287 1483h323l221 -295h-323z" />
    <glyph glyph-name="uacute" unicode="&#xfa;" 
d="M479 473q0 -182 150 -182q74 0 122 43t48 139v592h379v-1065h-379v229h-17q-8 -45 -31.5 -87.5t-61.5 -79.5t-98 -59.5t-132 -22.5q-158 0 -258.5 106t-100.5 293v686h379v-592zM461 1188l221 295h324l-222 -295h-323z" />
    <glyph glyph-name="ucircumflex" unicode="&#xfb;" 
d="M479 473q0 -182 150 -182q74 0 122 43t48 139v592h379v-1065h-379v229h-17q-8 -45 -31.5 -87.5t-61.5 -79.5t-98 -59.5t-132 -22.5q-158 0 -258.5 106t-100.5 293v686h379v-592zM174 1182l193 301h536l193 -301h-336l-125 204l-125 -204h-336z" />
    <glyph glyph-name="udieresis" unicode="&#xfc;" 
d="M479 473q0 -182 150 -182q74 0 122 43t48 139v592h379v-1065h-379v229h-17q-8 -45 -31.5 -87.5t-61.5 -79.5t-98 -59.5t-132 -22.5q-158 0 -258.5 106t-100.5 293v686h379v-592zM156 1335q0 82 59.5 139.5t140.5 57.5q80 0 140.5 -57.5t60.5 -139.5q0 -81 -60.5 -137.5
t-140.5 -56.5q-81 0 -140.5 56t-59.5 138zM709 1335q0 82 59.5 139.5t138.5 57.5q81 0 141 -57.5t60 -139.5t-60 -138t-141 -56q-80 0 -139 56t-59 138z" />
    <glyph glyph-name="yacute" unicode="&#xfd;" horiz-adv-x="1239" 
d="M135 -102q49 -6 90.5 -5.5t68 3.5t50.5 13.5t34.5 15.5t23 20t13 15.5t7.5 12.5q17 40 15 68t-23 82l-385 942h387l200 -578l207 578h387l-422 -1026q-60 -147 -116.5 -237t-132.5 -147t-171.5 -73t-232.5 -2v318zM440 1188l222 295h323l-221 -295h-324z" />
    <glyph glyph-name="thorn" unicode="&#xfe;" horiz-adv-x="1261" 
d="M100 -389v1823h379v-471q24 46 101.5 84t175.5 38q86 0 164.5 -32t145 -95.5t106.5 -173.5t40 -252q0 -115 -26.5 -209.5t-71 -157t-104 -105t-123 -61.5t-131.5 -19q-98 0 -175.5 38t-101.5 84v-491h-379zM463 532q0 -116 58.5 -177.5t135.5 -61.5q79 0 139 61.5
t60 177.5t-60 178t-139 62q-77 0 -135.5 -62t-58.5 -178z" />
    <glyph glyph-name="ydieresis" unicode="&#xff;" horiz-adv-x="1239" 
d="M135 -102q49 -6 90.5 -5.5t68 3.5t50.5 13.5t34.5 15.5t23 20t13 15.5t7.5 12.5q17 40 15 68t-23 82l-385 942h387l200 -578l207 578h387l-422 -1026q-60 -147 -116.5 -237t-132.5 -147t-171.5 -73t-232.5 -2v318zM135 1335q0 82 60 139.5t141 57.5q80 0 140.5 -57.5
t60.5 -139.5q0 -81 -60.5 -137.5t-140.5 -56.5q-81 0 -141 56t-60 138zM688 1335q0 82 60 139.5t139 57.5q81 0 140.5 -57.5t59.5 -139.5t-59.5 -138t-140.5 -56q-80 0 -139.5 56t-59.5 138z" />
    <glyph glyph-name="Amacron" unicode="&#x100;" horiz-adv-x="1564" 
d="M29 0l501 1434h504l502 -1434h-408l-69 215h-553l-70 -215h-407zM428 1636v215h713v-215h-713zM596 500h373l-176 544h-21z" />
    <glyph glyph-name="amacron" unicode="&#x101;" horiz-adv-x="1167" 
d="M391 -20q-64 0 -122 16.5t-109 51.5t-81 97.5t-30 145.5q0 53 13.5 97t33 74t53 54t62.5 38t73 26t73 17.5t74 12.5q9 1 13 2l138 25q69 11 92 27.5t24 64.5q-2 88 -108 88q-133 0 -133 -108v-15l-355 -4v58q0 163 117.5 250t378.5 87q249 0 359 -85.5t110 -256.5v-743
h-360v182h-15q-5 -20 -15 -41t-33.5 -51.5t-55 -53.5t-83 -39.5t-114.5 -16.5zM246 1268v215h712v-215h-712zM428 324q0 -78 98 -78q67 0 119.5 36.5t52.5 92.5v82q-10 -10 -28.5 -16.5t-40.5 -10.5t-23 -4l-108 -25q-35 -9 -52.5 -30t-17.5 -47z" />
    <glyph glyph-name="Abreve" unicode="&#x102;" horiz-adv-x="1564" 
d="M29 0l501 1434h504l502 -1434h-408l-69 215h-553l-70 -215h-407zM426 1851h246q3 -75 29.5 -103t82.5 -28q57 0 83.5 28t29.5 103h246q0 -167 -95 -256.5t-264 -89.5t-263.5 89.5t-94.5 256.5zM596 500h373l-176 544h-21z" />
    <glyph glyph-name="abreve" unicode="&#x103;" horiz-adv-x="1167" 
d="M391 -20q-64 0 -122 16.5t-109 51.5t-81 97.5t-30 145.5q0 53 13.5 97t33 74t53 54t62.5 38t73 26t73 17.5t74 12.5q9 1 13 2l138 25q69 11 92 27.5t24 64.5q-2 88 -108 88q-133 0 -133 -108v-15l-355 -4v58q0 163 117.5 250t378.5 87q249 0 359 -85.5t110 -256.5v-743
h-360v182h-15q-5 -20 -15 -41t-33.5 -51.5t-55 -53.5t-83 -39.5t-114.5 -16.5zM244 1483h245q3 -74 30 -102.5t83 -28.5q57 0 83.5 28t29.5 103h246q0 -167 -95 -256.5t-264 -89.5t-263.5 89.5t-94.5 256.5zM428 324q0 -78 98 -78q67 0 119.5 36.5t52.5 92.5v82
q-10 -10 -28.5 -16.5t-40.5 -10.5t-23 -4l-108 -25q-35 -9 -52.5 -30t-17.5 -47z" />
    <glyph glyph-name="Aogonek" unicode="&#x104;" horiz-adv-x="1564" 
d="M29 0l501 1434h504l502 -1434h2q-130 0 -200 -44t-70 -101q0 -44 40 -59.5t87 9.5v-206q-21 -15 -68 -22t-104.5 1.5t-110 31.5t-88 75t-35.5 125q0 74 35.5 130t93.5 91l-59 184h-553l-70 -215h-407zM596 500h373l-176 544h-21z" />
    <glyph glyph-name="aogonek" unicode="&#x105;" horiz-adv-x="1167" 
d="M391 -20q-64 0 -122 16.5t-109 51.5t-81 97.5t-30 145.5q0 53 13.5 97t33 74t53 54t62.5 38t73 26t73 17.5t74 12.5q9 1 13 2l138 25q69 11 92 27.5t24 64.5q-2 88 -108 88q-133 0 -133 -108v-15l-355 -4v58q0 163 117.5 250t378.5 87q249 0 359 -85.5t110 -256.5v-741
l6 -2q-130 0 -200 -44t-70 -101q0 -44 40 -59.5t87 9.5v-206q-21 -15 -68 -22t-104.5 1.5t-110 31.5t-88 75t-35.5 125q0 90 51.5 152t131.5 93v127h-15q-5 -20 -15 -41t-33.5 -51.5t-55 -53.5t-83 -39.5t-114.5 -16.5zM428 324q0 -78 98 -78q67 0 119.5 36.5t52.5 92.5v82
q-10 -10 -28.5 -16.5t-40.5 -10.5t-23 -4l-108 -25q-35 -9 -52.5 -30t-17.5 -47z" />
    <glyph glyph-name="Cacute" unicode="&#x106;" horiz-adv-x="1441" 
d="M760 -20q-323 0 -506.5 198t-183.5 539q0 340 184.5 537.5t509.5 197.5q126 0 232.5 -33t191 -99t135 -176t57.5 -255h-379q-47 229 -251 229q-65 0 -115.5 -23t-81 -61t-50 -91.5t-27 -108t-7.5 -117.5q0 -404 281 -404q204 0 251 232h379q-7 -145 -57.5 -255
t-135.5 -177t-192 -100t-235 -33zM602 1556l221 295h324l-221 -295h-324z" />
    <glyph glyph-name="cacute" unicode="&#x107;" horiz-adv-x="1167" 
d="M598 -20q-80 0 -155 17.5t-147.5 58.5t-126.5 102.5t-87 157t-33 214.5t33 215t87 158t126.5 104t147.5 60t155 18q51 0 99.5 -7t105 -24.5t104.5 -51.5t90.5 -82.5t71 -124t37.5 -170.5h-342q-18 76 -56 110.5t-112 34.5q-54 0 -92.5 -20t-59 -55.5t-29.5 -75.5t-9 -89
q0 -103 43.5 -169t146.5 -66q75 0 112 36t56 111h342q-8 -112 -46.5 -197t-90 -134t-120 -80t-128.5 -41t-123 -10zM401 1188l222 295h323l-221 -295h-324z" />
    <glyph glyph-name="Ccircumflex" unicode="&#x108;" horiz-adv-x="1441" 
d="M760 -20q-323 0 -506.5 198t-183.5 539q0 340 184.5 537.5t509.5 197.5q126 0 232.5 -33t191 -99t135 -176t57.5 -255h-379q-47 229 -251 229q-65 0 -115.5 -23t-81 -61t-50 -91.5t-27 -108t-7.5 -117.5q0 -404 281 -404q204 0 251 232h379q-7 -145 -57.5 -255
t-135.5 -177t-192 -100t-235 -33zM324 1550l192 301h537l192 -301h-336l-125 205l-125 -205h-335z" />
    <glyph glyph-name="ccircumflex" unicode="&#x109;" horiz-adv-x="1167" 
d="M598 -20q-80 0 -155 17.5t-147.5 58.5t-126.5 102.5t-87 157t-33 214.5t33 215t87 158t126.5 104t147.5 60t155 18q51 0 99.5 -7t105 -24.5t104.5 -51.5t90.5 -82.5t71 -124t37.5 -170.5h-342q-18 76 -56 110.5t-112 34.5q-54 0 -92.5 -20t-59 -55.5t-29.5 -75.5t-9 -89
q0 -103 43.5 -169t146.5 -66q75 0 112 36t56 111h342q-8 -112 -46.5 -197t-90 -134t-120 -80t-128.5 -41t-123 -10zM121 1182l192 301h537l192 -301h-335l-125 204l-125 -204h-336z" />
    <glyph glyph-name="Cdotaccent" unicode="&#x10a;" horiz-adv-x="1441" 
d="M760 -20q-323 0 -506.5 198t-183.5 539q0 340 184.5 537.5t509.5 197.5q126 0 232.5 -33t191 -99t135 -176t57.5 -255h-379q-47 229 -251 229q-65 0 -115.5 -23t-81 -61t-50 -91.5t-27 -108t-7.5 -117.5q0 -404 281 -404q204 0 251 232h379q-7 -145 -57.5 -255
t-135.5 -177t-192 -100t-235 -33zM584 1704q0 82 59.5 139.5t140.5 57.5q80 0 140.5 -57.5t60.5 -139.5t-60.5 -138.5t-140.5 -56.5q-81 0 -140.5 56.5t-59.5 138.5z" />
    <glyph glyph-name="cdotaccent" unicode="&#x10b;" horiz-adv-x="1167" 
d="M598 -20q-80 0 -155 17.5t-147.5 58.5t-126.5 102.5t-87 157t-33 214.5t33 215t87 158t126.5 104t147.5 60t155 18q51 0 99.5 -7t105 -24.5t104.5 -51.5t90.5 -82.5t71 -124t37.5 -170.5h-342q-18 76 -56 110.5t-112 34.5q-54 0 -92.5 -20t-59 -55.5t-29.5 -75.5t-9 -89
q0 -103 43.5 -169t146.5 -66q75 0 112 36t56 111h342q-8 -112 -46.5 -197t-90 -134t-120 -80t-128.5 -41t-123 -10zM381 1335q0 82 60 139.5t141 57.5q80 0 140 -57.5t60 -139.5t-60 -138t-140 -56q-81 0 -141 56t-60 138z" />
    <glyph glyph-name="Ccaron" unicode="&#x10c;" horiz-adv-x="1441" 
d="M760 -20q-323 0 -506.5 198t-183.5 539q0 340 184.5 537.5t509.5 197.5q126 0 232.5 -33t191 -99t135 -176t57.5 -255h-379q-47 229 -251 229q-65 0 -115.5 -23t-81 -61t-50 -91.5t-27 -108t-7.5 -117.5q0 -404 281 -404q204 0 251 232h379q-7 -145 -57.5 -255
t-135.5 -177t-192 -100t-235 -33zM305 1849h336l125 -204l125 204h336l-193 -301h-536z" />
    <glyph glyph-name="ccaron" unicode="&#x10d;" horiz-adv-x="1167" 
d="M598 -20q-80 0 -155 17.5t-147.5 58.5t-126.5 102.5t-87 157t-33 214.5t33 215t87 158t126.5 104t147.5 60t155 18q51 0 99.5 -7t105 -24.5t104.5 -51.5t90.5 -82.5t71 -124t37.5 -170.5h-342q-18 76 -56 110.5t-112 34.5q-54 0 -92.5 -20t-59 -55.5t-29.5 -75.5t-9 -89
q0 -103 43.5 -169t146.5 -66q75 0 112 36t56 111h342q-8 -112 -46.5 -197t-90 -134t-120 -80t-128.5 -41t-123 -10zM104 1481h336l125 -205l125 205h336l-192 -301h-537z" />
    <glyph glyph-name="Dcaron" unicode="&#x10e;" horiz-adv-x="1435" 
d="M100 0v1434h590q330 0 504 -185t174 -532t-174 -532t-504 -185h-590zM215 1849h336l125 -204l125 204h336l-193 -301h-536zM487 336h162q95 0 156.5 20.5t98.5 68t52 117t15 175.5q0 212 -68.5 296.5t-253.5 84.5h-162v-762z" />
    <glyph glyph-name="dcaron" unicode="&#x10f;" horiz-adv-x="1431" 
d="M506 -20q-68 0 -132 19t-123.5 61.5t-104 105t-71 157t-26.5 209.5t26.5 209t71 157t104 106t123.5 62t132 19q99 0 174.5 -37.5t101.5 -84.5v471h379v-1434h-379v102q-26 -47 -101.5 -84.5t-174.5 -37.5zM406 532q0 -116 59.5 -177.5t138.5 -61.5q77 0 136 61.5
t59 177.5t-59 178t-136 62q-79 0 -138.5 -62t-59.5 -178zM1225 1141l221 295h323l-221 -295h-323z" />
    <glyph glyph-name="Dcroat" unicode="&#x110;" horiz-adv-x="1519" 
d="M184 0v559h-143v283h143v592h590q330 0 504 -185t174 -532t-174 -532t-504 -185h-590zM571 336h162q95 0 156.5 20.5t98.5 68t52 117t15 175.5q0 212 -68.5 296.5t-253.5 84.5h-162v-256h142v-283h-142v-223z" />
    <glyph glyph-name="dcroat" unicode="&#x111;" horiz-adv-x="1312" 
d="M485 1178v159h297v97h379v-97h125v-159h-125v-1178h-379v102q-26 -47 -101.5 -84.5t-174.5 -37.5q-68 0 -132 19t-123.5 61.5t-104 105t-71 157t-26.5 209.5t26.5 209t71 157t104 106t123.5 62t132 19q99 0 174.5 -37.5t101.5 -84.5v215h-297zM406 532
q0 -116 59.5 -177.5t138.5 -61.5q77 0 136 61.5t59 177.5t-59 178t-136 62q-79 0 -138.5 -62t-59.5 -178z" />
    <glyph glyph-name="Emacron" unicode="&#x112;" horiz-adv-x="1187" 
d="M100 0v1434h1018v-336h-631v-228h570v-301h-570v-233h652v-336h-1039zM291 1636v215h713v-215h-713z" />
    <glyph glyph-name="emacron" unicode="&#x113;" horiz-adv-x="1177" 
d="M602 -20q-81 0 -156 17t-148.5 58t-127.5 103.5t-87.5 160t-33.5 220.5q0 117 30.5 210.5t82 155.5t123.5 103t151 59t168 18q86 0 160 -16.5t142.5 -57t116.5 -102.5t76.5 -160t28.5 -223q0 -48 -6 -86h-712q13 -95 62 -135.5t136 -40.5q49 0 83.5 9.5t52.5 28t26 34.5
t14 39h330q-32 -185 -168.5 -290t-343.5 -105zM229 1268v215h713v-215h-713zM412 653h360q-3 26 -11.5 48.5t-26.5 47t-54 38.5t-86 14q-154 0 -182 -148z" />
    <glyph glyph-name="Edotaccent" unicode="&#x116;" horiz-adv-x="1187" 
d="M100 0v1434h1018v-336h-631v-228h570v-301h-570v-233h652v-336h-1039zM453 1704q0 82 59.5 139.5t140.5 57.5q80 0 140.5 -57.5t60.5 -139.5t-60.5 -138.5t-140.5 -56.5q-81 0 -140.5 56.5t-59.5 138.5z" />
    <glyph glyph-name="edotaccent" unicode="&#x117;" horiz-adv-x="1177" 
d="M602 -20q-81 0 -156 17t-148.5 58t-127.5 103.5t-87.5 160t-33.5 220.5q0 117 30.5 210.5t82 155.5t123.5 103t151 59t168 18q86 0 160 -16.5t142.5 -57t116.5 -102.5t76.5 -160t28.5 -223q0 -48 -6 -86h-712q13 -95 62 -135.5t136 -40.5q49 0 83.5 9.5t52.5 28t26 34.5
t14 39h330q-32 -185 -168.5 -290t-343.5 -105zM391 1335q0 82 60 139.5t141 57.5q80 0 140.5 -57.5t60.5 -139.5q0 -81 -60.5 -137.5t-140.5 -56.5q-81 0 -141 56t-60 138zM412 653h360q-3 26 -11.5 48.5t-26.5 47t-54 38.5t-86 14q-154 0 -182 -148z" />
    <glyph glyph-name="Eogonek" unicode="&#x118;" horiz-adv-x="1187" 
d="M100 0v1434h1018v-336h-631v-228h570v-301h-570v-233h652v-336h2q-130 0 -200.5 -44t-70.5 -101q0 -44 40 -59.5t87 9.5v-206q-21 -15 -68 -22t-104 1.5t-109.5 31.5t-88 75t-35.5 125q0 114 86 190h-578z" />
    <glyph glyph-name="eogonek" unicode="&#x119;" horiz-adv-x="1177" 
d="M731 -401q-21 -15 -68 -22t-104 1.5t-109.5 31.5t-88 75t-35.5 125q0 116 92 194q-61 17 -114 45.5t-100.5 73.5t-81.5 103t-53.5 138t-19.5 175q0 117 30.5 210.5t82 155.5t123.5 103t151 59t168 18q86 0 160 -16.5t142.5 -57t116.5 -102.5t76.5 -160t28.5 -223
q0 -48 -6 -86h-712q13 -95 62 -135.5t136 -40.5q49 0 83.5 9.5t52.5 28t26 34.5t14 39h330q-26 -149 -119.5 -247t-240.5 -132l10 -6q-80 -16 -121 -54t-41 -81q0 -44 41 -59.5t88 9.5v-206zM412 653h360q-3 26 -11.5 48.5t-26.5 47t-54 38.5t-86 14q-154 0 -182 -148z" />
    <glyph glyph-name="Ecaron" unicode="&#x11a;" horiz-adv-x="1187" 
d="M100 0v1434h1018v-336h-631v-228h570v-301h-570v-233h652v-336h-1039zM174 1849h336l125 -204l125 204h336l-193 -301h-536z" />
    <glyph glyph-name="ecaron" unicode="&#x11b;" horiz-adv-x="1177" 
d="M602 -20q-81 0 -156 17t-148.5 58t-127.5 103.5t-87.5 160t-33.5 220.5q0 117 30.5 210.5t82 155.5t123.5 103t151 59t168 18q86 0 160 -16.5t142.5 -57t116.5 -102.5t76.5 -160t28.5 -223q0 -48 -6 -86h-712q13 -95 62 -135.5t136 -40.5q49 0 83.5 9.5t52.5 28t26 34.5
t14 39h330q-32 -185 -168.5 -290t-343.5 -105zM113 1481h336l124 -205l125 205h336l-192 -301h-537zM412 653h360q-3 26 -11.5 48.5t-26.5 47t-54 38.5t-86 14q-154 0 -182 -148z" />
    <glyph glyph-name="Gcircumflex" unicode="&#x11c;" horiz-adv-x="1478" 
d="M752 -20q-168 0 -298 52t-214 148.5t-127 230t-43 298.5q0 346 181.5 544.5t491.5 198.5q95 0 182.5 -19t167 -60t140.5 -101t101 -147.5t50 -194.5h-385q-40 188 -256 188q-68 0 -119 -23t-81 -60t-48 -91t-24 -106.5t-6 -116.5q0 -408 285 -408q42 0 81 8t82 27
t69.5 61t27.5 101h-226v311h615v-178q0 -324 -170.5 -493.5t-476.5 -169.5zM285 1550l192 301h537l192 -301h-336l-125 205l-124 -205h-336z" />
    <glyph glyph-name="gcircumflex" unicode="&#x11d;" horiz-adv-x="1245" 
d="M504 49q-66 0 -128.5 16t-122.5 55t-104.5 96.5t-72 146.5t-27.5 200t27.5 201.5t72 149t104.5 98t122.5 56.5t128.5 17q50 0 91.5 -10t68 -23.5t47.5 -33t31.5 -34t17.5 -30.5h6v111h379v-1012q0 -87 -21 -158.5t-54.5 -120.5t-82.5 -86.5t-99 -59t-109 -34.5
t-107.5 -17.5t-100.5 -4.5q-43 0 -82.5 2.5t-93 12.5t-97 26t-88.5 45.5t-75 69t-48.5 99t-16.5 132.5h344q7 -104 164 -104q98 0 143 48.5t45 149.5v117h-6q-10 -19 -25 -36t-44 -38t-77.5 -34t-109.5 -13zM141 1182l193 301h536l193 -301h-336l-125 204l-125 -204h-336z
M406 563q0 -106 52 -160.5t136 -54.5q80 0 133 55t53 160q0 104 -53 158.5t-133 54.5q-84 0 -136 -54.5t-52 -158.5z" />
    <glyph glyph-name="Gbreve" unicode="&#x11e;" horiz-adv-x="1478" 
d="M752 -20q-168 0 -298 52t-214 148.5t-127 230t-43 298.5q0 346 181.5 544.5t491.5 198.5q95 0 182.5 -19t167 -60t140.5 -101t101 -147.5t50 -194.5h-385q-40 188 -256 188q-68 0 -119 -23t-81 -60t-48 -91t-24 -106.5t-6 -116.5q0 -408 285 -408q42 0 81 8t82 27
t69.5 61t27.5 101h-226v311h615v-178q0 -324 -170.5 -493.5t-476.5 -169.5zM383 1851h246q3 -75 29.5 -103t82.5 -28q57 0 83.5 28t29.5 103h246q0 -167 -95 -256.5t-264 -89.5t-263.5 89.5t-94.5 256.5z" />
    <glyph glyph-name="gbreve" unicode="&#x11f;" horiz-adv-x="1245" 
d="M504 49q-66 0 -128.5 16t-122.5 55t-104.5 96.5t-72 146.5t-27.5 200t27.5 201.5t72 149t104.5 98t122.5 56.5t128.5 17q50 0 91.5 -10t68 -23.5t47.5 -33t31.5 -34t17.5 -30.5h6v111h379v-1012q0 -87 -21 -158.5t-54.5 -120.5t-82.5 -86.5t-99 -59t-109 -34.5
t-107.5 -17.5t-100.5 -4.5q-43 0 -82.5 2.5t-93 12.5t-97 26t-88.5 45.5t-75 69t-48.5 99t-16.5 132.5h344q7 -104 164 -104q98 0 143 48.5t45 149.5v117h-6q-10 -19 -25 -36t-44 -38t-77.5 -34t-109.5 -13zM240 1483h245q3 -74 30 -102.5t83 -28.5q57 0 83.5 28t29.5 103
h245q0 -167 -94.5 -256.5t-263.5 -89.5t-263.5 89.5t-94.5 256.5zM406 563q0 -106 52 -160.5t136 -54.5q80 0 133 55t53 160q0 104 -53 158.5t-133 54.5q-84 0 -136 -54.5t-52 -158.5z" />
    <glyph glyph-name="Gdotaccent" unicode="&#x120;" horiz-adv-x="1478" 
d="M752 -20q-168 0 -298 52t-214 148.5t-127 230t-43 298.5q0 346 181.5 544.5t491.5 198.5q95 0 182.5 -19t167 -60t140.5 -101t101 -147.5t50 -194.5h-385q-40 188 -256 188q-68 0 -119 -23t-81 -60t-48 -91t-24 -106.5t-6 -116.5q0 -408 285 -408q42 0 81 8t82 27
t69.5 61t27.5 101h-226v311h615v-178q0 -324 -170.5 -493.5t-476.5 -169.5zM545 1704q0 82 59.5 139.5t140.5 57.5q80 0 140.5 -57.5t60.5 -139.5t-60.5 -138.5t-140.5 -56.5q-81 0 -140.5 56.5t-59.5 138.5z" />
    <glyph glyph-name="gdotaccent" unicode="&#x121;" horiz-adv-x="1245" 
d="M504 49q-66 0 -128.5 16t-122.5 55t-104.5 96.5t-72 146.5t-27.5 200t27.5 201.5t72 149t104.5 98t122.5 56.5t128.5 17q50 0 91.5 -10t68 -23.5t47.5 -33t31.5 -34t17.5 -30.5h6v111h379v-1012q0 -87 -21 -158.5t-54.5 -120.5t-82.5 -86.5t-99 -59t-109 -34.5
t-107.5 -17.5t-100.5 -4.5q-43 0 -82.5 2.5t-93 12.5t-97 26t-88.5 45.5t-75 69t-48.5 99t-16.5 132.5h344q7 -104 164 -104q98 0 143 48.5t45 149.5v117h-6q-10 -19 -25 -36t-44 -38t-77.5 -34t-109.5 -13zM401 1335q0 82 60 139.5t141 57.5q80 0 140.5 -57.5t60.5 -139.5
q0 -81 -60.5 -137.5t-140.5 -56.5q-81 0 -141 56t-60 138zM406 563q0 -106 52 -160.5t136 -54.5q80 0 133 55t53 160q0 104 -53 158.5t-133 54.5q-84 0 -136 -54.5t-52 -158.5z" />
    <glyph glyph-name="uni0122" unicode="&#x122;" horiz-adv-x="1478" 
d="M752 -20q-168 0 -298 52t-214 148.5t-127 230t-43 298.5q0 346 181.5 544.5t491.5 198.5q95 0 182.5 -19t167 -60t140.5 -101t101 -147.5t50 -194.5h-385q-40 188 -256 188q-68 0 -119 -23t-81 -60t-48 -91t-24 -106.5t-6 -116.5q0 -408 285 -408q42 0 81 8t82 27
t69.5 61t27.5 101h-226v311h615v-178q0 -324 -170.5 -493.5t-476.5 -169.5zM537 -287q0 90 61 146.5t156 56.5q107 0 175 -78t68 -233q0 -182 -98 -287.5t-266 -105.5h-27v147q100 3 143.5 34t43.5 101q-122 3 -189 64.5t-67 154.5z" />
    <glyph glyph-name="uni0123" unicode="&#x123;" horiz-adv-x="1245" 
d="M504 49q-66 0 -128.5 16t-122.5 55t-104.5 96.5t-72 146.5t-27.5 200t27.5 201.5t72 149t104.5 98t122.5 56.5t128.5 17q50 0 91.5 -10t68 -23.5t47.5 -33t31.5 -34t17.5 -30.5h6v111h379v-1012q0 -87 -21 -158.5t-54.5 -120.5t-82.5 -86.5t-99 -59t-109 -34.5
t-107.5 -17.5t-100.5 -4.5q-43 0 -82.5 2.5t-93 12.5t-97 26t-88.5 45.5t-75 69t-48.5 99t-16.5 132.5h344q7 -104 164 -104q98 0 143 48.5t45 149.5v117h-6q-10 -19 -25 -36t-44 -38t-77.5 -34t-109.5 -13zM406 563q0 -106 52 -160.5t136 -54.5q80 0 133 55t53 160
q0 104 -53 158.5t-133 54.5q-84 0 -136 -54.5t-52 -158.5zM412 1475q0 182 98 287.5t266 105.5h27v-148q-100 -3 -143.5 -34t-43.5 -101q122 -3 189 -64.5t67 -154.5q0 -90 -61 -146.5t-156 -56.5q-107 0 -175 78.5t-68 233.5z" />
    <glyph glyph-name="Hcircumflex" unicode="&#x124;" horiz-adv-x="1423" 
d="M936 0v563h-449v-563h-387v1434h387v-549h449v549h387v-1434h-387zM256 1550l193 301h536l193 -301h-336l-125 205l-125 -205h-336z" />
    <glyph glyph-name="hcircumflex" unicode="&#x125;" 
d="M100 0v1434h209l31 49h537l192 -301h-336l-125 204l-125 -204h-4v-346h17q8 45 31.5 87.5t61.5 79.5t98 59.5t132 22.5q158 0 258.5 -106t100.5 -293v-686h-379v592q0 182 -150 182q-74 0 -122 -43t-48 -139v-592h-379z" />
    <glyph glyph-name="Hbar" unicode="&#x126;" horiz-adv-x="1423" 
d="M936 0v563h-449v-563h-387v1434h387v-162h449v162h387v-1434h-387zM487 885h449v67h-449v-67z" />
    <glyph glyph-name="hbar" unicode="&#x127;" horiz-adv-x="1275" 
d="M-33 1178v159h133v97h379v-97h289v-159h-289v-342h17q8 45 31.5 87.5t61.5 79.5t98 59.5t132 22.5q158 0 258.5 -106t100.5 -293v-686h-379v592q0 182 -150 182q-74 0 -122 -43t-48 -139v-592h-379v1178h-133z" />
    <glyph glyph-name="Itilde" unicode="&#x128;" horiz-adv-x="587" 
d="M100 0v1434h387v-1434h-387zM-86 1614q0 123 55.5 192.5t165.5 69.5q55 0 100 -15.5t68.5 -33.5t47.5 -33.5t42 -15.5q24 0 31 2q25 10 27 37h217q0 -123 -56.5 -192t-167.5 -69q-55 0 -100 15.5t-68 34t-46.5 34t-41.5 15.5q-24 0 -32 -3q-23 -11 -25 -38h-217z" />
    <glyph glyph-name="itilde" unicode="&#x129;" horiz-adv-x="557" 
d="M90 0v1065h379v-1065h-379zM-98 1245q0 123 55.5 192.5t165.5 69.5q55 0 100 -15.5t68.5 -33.5t47.5 -33.5t42 -15.5q24 0 31 2q25 9 26 37h217q0 -123 -56 -191.5t-167 -68.5q-55 0 -100 15.5t-68 33.5t-46.5 33.5t-41.5 15.5q-24 0 -32 -3q-23 -11 -25 -38h-217z" />
    <glyph glyph-name="Imacron" unicode="&#x12a;" horiz-adv-x="587" 
d="M100 0v1434h387v-1434h-387zM-66 1636v215h713v-215h-713z" />
    <glyph glyph-name="imacron" unicode="&#x12b;" horiz-adv-x="557" 
d="M90 0v1065h379v-1065h-379zM-78 1268v215h713v-215h-713z" />
    <glyph glyph-name="Iogonek" unicode="&#x12e;" horiz-adv-x="587" 
d="M344 -401q-21 -15 -68 -22t-104 1.5t-109.5 31.5t-88 75t-35.5 125q0 84 45 144.5t116 92.5v1387h387v-1434q-130 0 -200 -44t-70 -101q0 -44 40 -59.5t87 9.5v-206z" />
    <glyph glyph-name="iogonek" unicode="&#x12f;" horiz-adv-x="557" 
d="M285 1141q-81 0 -141 56t-60 138t60 139.5t141 57.5q80 0 140 -57.5t60 -139.5t-60 -138t-140 -56zM-80 -190q0 86 48 147.5t122 93.5v1014h379v-1065q-130 0 -200 -44t-70 -101q0 -44 40 -59.5t87 9.5v-206q-21 -15 -68 -22t-104.5 1.5t-110 31.5t-88 75t-35.5 125z" />
    <glyph glyph-name="Idotaccent" unicode="&#x130;" horiz-adv-x="587" 
d="M100 0v1434h387v-1434h-387zM96 1704q0 82 60 139.5t141 57.5q80 0 140.5 -57.5t60.5 -139.5t-60.5 -138.5t-140.5 -56.5q-81 0 -141 56.5t-60 138.5z" />
    <glyph glyph-name="dotlessi" unicode="&#x131;" horiz-adv-x="557" 
d="M90 0v1065h379v-1065h-379z" />
    <glyph glyph-name="IJ" unicode="&#x132;" horiz-adv-x="2002" 
d="M100 0v1434h387v-1434h-387zM688 551h391q0 -121 56.5 -178.5t160.5 -57.5q220 0 220 263v856h389v-891q0 -143 -45.5 -252.5t-128.5 -176.5t-192.5 -100.5t-244.5 -33.5q-134 0 -243.5 34t-191 102.5t-126.5 179t-45 255.5z" />
    <glyph glyph-name="ij" unicode="&#x133;" horiz-adv-x="1155" 
d="M100 0v1065h379v-1065h-379zM90 1339q0 85 59.5 143t139.5 58q81 0 140.5 -58t59.5 -143t-59.5 -141.5t-140.5 -56.5q-80 0 -139.5 57t-59.5 141zM451 -401v295h127q53 0 76.5 35t23.5 91v1045h379v-1098q0 -190 -103.5 -282.5t-291.5 -92.5q-150 0 -211 7zM666 1339
q0 84 60 142.5t140 58.5q81 0 141 -58t60 -143q0 -84 -60 -141t-141 -57q-80 0 -140 57t-60 141z" />
    <glyph glyph-name="Jcircumflex" unicode="&#x134;" horiz-adv-x="1415" 
d="M707 -20q-134 0 -243.5 34t-191.5 102.5t-127 179t-45 255.5h392q0 -121 56.5 -178.5t160.5 -57.5q219 0 219 263v856h389v-891q0 -143 -45.5 -252.5t-128 -176.5t-192.5 -100.5t-244 -33.5zM676 1550l192 301h537l192 -301h-335l-125 205l-125 -205h-336z" />
    <glyph glyph-name="jcircumflex" unicode="&#x135;" horiz-adv-x="585" 
d="M102 -408q-150 0 -211 7v295h127q53 0 77 35.5t24 90.5v1045h379v-1098q0 -189 -104 -282t-292 -93zM-156 1182l193 301h536l193 -301h-336l-125 204l-125 -204h-336z" />
    <glyph glyph-name="uni0136" unicode="&#x136;" horiz-adv-x="1515" 
d="M100 0v1434h387v-605l488 605h455l-527 -629l584 -805h-443l-372 526l-185 -221v-305h-387zM518 -287q0 90 61 146.5t156 56.5q107 0 175.5 -78t68.5 -233q0 -182 -98.5 -287.5t-266.5 -105.5h-26v147q100 3 143 34t43 101q-122 3 -189 64.5t-67 154.5z" />
    <glyph glyph-name="uni0137" unicode="&#x137;" horiz-adv-x="1249" 
d="M100 0v1434h379v-717l297 348h414l-420 -449l471 -616h-412l-288 371l-62 -64v-307h-379zM432 -287q0 90 61 146.5t156 56.5q107 0 175.5 -78t68.5 -233q0 -182 -98.5 -287.5t-266.5 -105.5h-26v147q100 3 143 34t43 101q-122 3 -189 64.5t-67 154.5z" />
    <glyph glyph-name="Lacute" unicode="&#x139;" horiz-adv-x="1153" 
d="M100 0v1434h387v-1098h617v-336h-1004zM111 1556l221 295h323l-221 -295h-323z" />
    <glyph glyph-name="lacute" unicode="&#x13a;" horiz-adv-x="579" 
d="M100 0v1434h379v-1434h-379zM115 1556l221 295h323l-221 -295h-323z" />
    <glyph glyph-name="uni013B" unicode="&#x13b;" horiz-adv-x="1153" 
d="M100 0v1434h387v-1098h617v-336h-1004zM369 -297q0 90 61 146.5t156 56.5q107 0 175 -78.5t68 -233.5q0 -182 -98 -287.5t-266 -105.5h-27v148q100 3 143.5 34t43.5 101q-122 3 -189 64.5t-67 154.5z" />
    <glyph glyph-name="uni013C" unicode="&#x13c;" horiz-adv-x="579" 
d="M100 0v1434h379v-1434h-379zM61 -287q0 90 61.5 146.5t156.5 56.5q107 0 175 -78t68 -233q0 -182 -98 -287.5t-266 -105.5h-27v147q100 3 143 34t43 101q-122 3 -189 64.5t-67 154.5z" />
    <glyph glyph-name="Lcaron" unicode="&#x13d;" horiz-adv-x="1153" 
d="M100 0v1434h387v-1098h617v-336h-1004zM649 1245q0 90 61 146.5t156 56.5q107 0 175.5 -78t68.5 -233q0 -182 -98.5 -288t-266.5 -106h-26v148q100 3 143 34t43 101q-122 3 -189 64.5t-67 154.5z" />
    <glyph glyph-name="lcaron" unicode="&#x13e;" horiz-adv-x="808" 
d="M563 772l88 662h301l-86 -662h-303zM100 0v1434h379v-1434h-379z" />
    <glyph glyph-name="Lslash" unicode="&#x141;" horiz-adv-x="1179" 
d="M18 223v369l111 119v723h387v-306l111 119h4v-368l-115 -123v-420h617v-336h-1004v342z" />
    <glyph glyph-name="lslash" unicode="&#x142;" horiz-adv-x="595" 
d="M10 276v330l101 105v723h378v-328l95 98h2v-327l-97 -101v-776h-378v381z" />
    <glyph glyph-name="Nacute" unicode="&#x143;" horiz-adv-x="1464" 
d="M100 0v1434h396l471 -805h10v805h387v-1434h-412l-456 778h-9v-778h-387zM557 1556l221 295h324l-221 -295h-324z" />
    <glyph glyph-name="nacute" unicode="&#x144;" 
d="M799 592q0 182 -150 182q-74 0 -122 -43t-48 -139v-592h-379v1065h379v-229h17q8 45 31.5 87.5t61.5 79.5t98 59.5t132 22.5q158 0 258.5 -106t100.5 -293v-686h-379v592zM465 1188l221 295h324l-222 -295h-323z" />
    <glyph glyph-name="uni0145" unicode="&#x145;" horiz-adv-x="1464" 
d="M100 0v1434h396l471 -805h10v805h387v-1434h-412l-456 778h-9v-778h-387zM504 -287q0 90 61 146.5t156 56.5q107 0 175.5 -78t68.5 -233q0 -182 -98.5 -287.5t-266.5 -105.5h-27v147q100 3 143.5 34t43.5 101q-122 3 -189 64.5t-67 154.5z" />
    <glyph glyph-name="uni0146" unicode="&#x146;" 
d="M799 592q0 182 -150 182q-74 0 -122 -43t-48 -139v-592h-379v1065h379v-229h17q8 45 31.5 87.5t61.5 79.5t98 59.5t132 22.5q158 0 258.5 -106t100.5 -293v-686h-379v592zM412 -287q0 90 61 146.5t156 56.5q107 0 175 -78t68 -233q0 -182 -98 -287.5t-266 -105.5h-27v147
q100 3 143.5 34t43.5 101q-122 3 -189 64.5t-67 154.5z" />
    <glyph glyph-name="Ncaron" unicode="&#x147;" horiz-adv-x="1464" 
d="M100 0v1434h396l471 -805h10v805h387v-1434h-412l-456 778h-9v-778h-387zM260 1849h336l125 -204l125 204h336l-193 -301h-536z" />
    <glyph glyph-name="ncaron" unicode="&#x148;" 
d="M799 592q0 182 -150 182q-74 0 -122 -43t-48 -139v-592h-379v1065h379v-229h17q8 45 31.5 87.5t61.5 79.5t98 59.5t132 22.5q158 0 258.5 -106t100.5 -293v-686h-379v592zM166 1481h336l125 -205l125 205h335l-192 -301h-537z" />
    <glyph glyph-name="Eng" unicode="&#x14a;" horiz-adv-x="1464" 
d="M770 -451q-167 0 -276 56v348l21 -9q21 -10 29.5 -13.5t31 -12.5t39.5 -13t41 -9.5t48.5 -8t49.5 -2.5q152 0 200 127l-458 752h-9v-764h-387v1434h385l482 -793h10v793h387v-1319q0 -143 -45.5 -253.5t-127 -177.5t-187.5 -101t-234 -34z" />
    <glyph glyph-name="eng" unicode="&#x14b;" horiz-adv-x="1280" 
d="M805 -451q-148 0 -236 33v303q74 -16 127 -16q105 0 105 113v18h-2v592q0 182 -150 182q-74 0 -122 -43t-48 -139v-592h-379v1065h379v-229h17q8 45 31.5 87.5t61.5 79.5t98 59.5t132 22.5q158 0 258.5 -106t100.5 -293v-686h2v-90q0 -176 -99.5 -268.5t-275.5 -92.5z
" />
    <glyph glyph-name="Omacron" unicode="&#x14c;" horiz-adv-x="1546" 
d="M774 -20q-214 0 -375.5 97.5t-245 263.5t-83.5 376t83.5 376t245 262.5t375.5 96.5q160 0 293 -56t222.5 -154t138.5 -233t49 -292q0 -156 -49 -291.5t-138.5 -234t-222.5 -155t-293 -56.5zM418 1636v215h712v-215h-712zM471 717q0 -115 31 -204t100.5 -144.5
t171.5 -55.5q149 0 225 113t76 291q0 180 -75.5 290.5t-225.5 110.5q-151 0 -227 -110.5t-76 -290.5z" />
    <glyph glyph-name="omacron" unicode="&#x14d;" horiz-adv-x="1193" 
d="M596 -20q-83 0 -160.5 19t-148.5 62.5t-123.5 106t-83.5 156.5t-31 208t31 208t83.5 157t123.5 106t148.5 62.5t160.5 19.5q84 0 162 -19.5t149 -62.5t123.5 -106t83.5 -157t31 -208t-31 -208t-83.5 -156.5t-124 -105.5t-149 -62.5t-161.5 -19.5zM242 1268v215h712v-215
h-712zM403 532q0 -120 51 -179.5t142 -59.5q92 0 143.5 59.5t51.5 179.5q0 121 -51.5 180.5t-143.5 59.5q-91 0 -142 -59.5t-51 -180.5z" />
    <glyph glyph-name="Ohungarumlaut" unicode="&#x150;" horiz-adv-x="1546" 
d="M774 -20q-214 0 -375.5 97.5t-245 263.5t-83.5 376t83.5 376t245 262.5t375.5 96.5q160 0 293 -56t222.5 -154t138.5 -233t49 -292q0 -156 -49 -291.5t-138.5 -234t-222.5 -155t-293 -56.5zM365 1556l221 295h323l-221 -295h-323zM471 717q0 -115 31 -204t100.5 -144.5
t171.5 -55.5q149 0 225 113t76 291q0 180 -75.5 290.5t-225.5 110.5q-151 0 -227 -110.5t-76 -290.5zM786 1556l222 295h323l-221 -295h-324z" />
    <glyph glyph-name="ohungarumlaut" unicode="&#x151;" horiz-adv-x="1193" 
d="M596 -20q-83 0 -160.5 19t-148.5 62.5t-123.5 106t-83.5 156.5t-31 208t31 208t83.5 157t123.5 106t148.5 62.5t160.5 19.5q84 0 162 -19.5t149 -62.5t123.5 -106t83.5 -157t31 -208t-31 -208t-83.5 -156.5t-124 -105.5t-149 -62.5t-161.5 -19.5zM188 1188l222 295h323
l-221 -295h-324zM403 532q0 -120 51 -179.5t142 -59.5q92 0 143.5 59.5t51.5 179.5q0 121 -51.5 180.5t-143.5 59.5q-91 0 -142 -59.5t-51 -180.5zM610 1188l221 295h324l-221 -295h-324z" />
    <glyph glyph-name="OE" unicode="&#x152;" horiz-adv-x="2170" 
d="M774 -20q-214 0 -375.5 97.5t-245 263.5t-83.5 376t83.5 376t245 262.5t375.5 96.5q171 0 309 -63v45h1018v-336h-631v-228h570v-301h-570v-233h652v-336h-1039v43q-138 -63 -309 -63zM471 717q0 -115 31 -204t100.5 -144.5t171.5 -55.5q149 0 225 113t76 291
q0 180 -75.5 290.5t-225.5 110.5q-151 0 -227 -110.5t-76 -290.5z" />
    <glyph glyph-name="oe" unicode="&#x153;" horiz-adv-x="1923" 
d="M596 -20q-83 0 -160.5 19t-148.5 62.5t-123.5 106t-83.5 156.5t-31 208t31 208t83.5 157t123.5 106t148.5 62.5t160.5 19.5q221 0 369 -122q145 122 385 122q86 0 160 -16.5t142.5 -57t116.5 -102.5t76.5 -160t28.5 -223q0 -48 -6 -86h-713q13 -95 62.5 -135.5
t136.5 -40.5q49 0 83.5 9.5t52.5 28t26 34.5t14 39h330q-32 -185 -168.5 -290t-343.5 -105q-233 0 -379 124q-147 -124 -373 -124zM403 532q0 -120 51 -179.5t142 -59.5q92 0 143.5 59.5t51.5 179.5q0 121 -51.5 180.5t-143.5 59.5q-91 0 -142 -59.5t-51 -180.5zM1157 653
h361q-3 26 -11.5 48.5t-27 47t-54.5 38.5t-86 14q-154 0 -182 -148z" />
    <glyph glyph-name="Racute" unicode="&#x154;" horiz-adv-x="1400" 
d="M926 0q-13 27 -17 61t-4 119v101q0 94 -43 146t-151 52h-224v-479h-387v1434h627q143 0 252 -35t173.5 -96.5t96 -137.5t31.5 -164q0 -130 -59 -210.5t-162 -137.5q64 -22 109 -55t68 -66t36 -80.5t15.5 -82.5t2.5 -88v-101q0 -85 4 -119t17 -61h-385zM377 1556l221 295
h324l-222 -295h-323zM487 791h226q78 0 124 40t46 115q0 77 -45 113.5t-125 36.5h-226v-305z" />
    <glyph glyph-name="racute" unicode="&#x155;" horiz-adv-x="890" 
d="M479 418v-418h-379v1065h379v-270h10q31 137 105 207.5t186 70.5q41 0 82 -10v-318q-61 7 -86 7q-43 0 -81 -7.5t-79 -30t-70 -58t-48 -97t-19 -141.5zM317 1188l222 295h323l-221 -295h-324z" />
    <glyph glyph-name="uni0156" unicode="&#x156;" horiz-adv-x="1400" 
d="M926 0q-13 27 -17 61t-4 119v101q0 94 -43 146t-151 52h-224v-479h-387v1434h627q143 0 252 -35t173.5 -96.5t96 -137.5t31.5 -164q0 -130 -59 -210.5t-162 -137.5q64 -22 109 -55t68 -66t36 -80.5t15.5 -82.5t2.5 -88v-101q0 -85 4 -119t17 -61h-385zM324 -287
q0 90 61 146.5t156 56.5q107 0 175 -78t68 -233q0 -182 -98 -287.5t-266 -105.5h-27v147q100 3 143.5 34t43.5 101q-122 3 -189 64.5t-67 154.5zM487 791h226q78 0 124 40t46 115q0 77 -45 113.5t-125 36.5h-226v-305z" />
    <glyph glyph-name="uni0157" unicode="&#x157;" horiz-adv-x="890" 
d="M479 418v-418h-379v1065h379v-270h10q31 137 105 207.5t186 70.5q41 0 82 -10v-318q-61 7 -86 7q-43 0 -81 -7.5t-79 -30t-70 -58t-48 -97t-19 -141.5zM66 -287q0 90 61 146.5t156 56.5q107 0 175 -78t68 -233q0 -182 -98 -287.5t-266 -105.5h-27v147q100 3 143.5 34
t43.5 101q-122 3 -189 64.5t-67 154.5z" />
    <glyph glyph-name="Rcaron" unicode="&#x158;" horiz-adv-x="1400" 
d="M926 0q-13 27 -17 61t-4 119v101q0 94 -43 146t-151 52h-224v-479h-387v1434h627q143 0 252 -35t173.5 -96.5t96 -137.5t31.5 -164q0 -130 -59 -210.5t-162 -137.5q64 -22 109 -55t68 -66t36 -80.5t15.5 -82.5t2.5 -88v-101q0 -85 4 -119t17 -61h-385zM80 1849h336
l125 -204l125 204h335l-192 -301h-537zM487 791h226q78 0 124 40t46 115q0 77 -45 113.5t-125 36.5h-226v-305z" />
    <glyph glyph-name="rcaron" unicode="&#x159;" horiz-adv-x="890" 
d="M479 418v-418h-379v1065h379v-270h10q31 137 105 207.5t186 70.5q41 0 82 -10v-318q-61 7 -86 7q-43 0 -81 -7.5t-79 -30t-70 -58t-48 -97t-19 -141.5zM20 1481h336l125 -205l125 205h336l-192 -301h-537z" />
    <glyph glyph-name="Sacute" unicode="&#x15a;" horiz-adv-x="1380" 
d="M696 -20q-291 0 -458.5 132t-167.5 388h403q11 -201 225 -201q92 0 146.5 34.5t54.5 100.5q0 48 -34 75t-117 44l-207 41q-70 14 -127 32t-116 51t-99 76.5t-65 110t-25 148.5q0 110 44 195t123 138t184.5 80t233.5 27q131 0 236.5 -28.5t183.5 -85.5t120 -148.5
t42 -212.5h-404q5 84 -49.5 120t-138.5 36q-88 0 -128 -36t-40 -85q0 -35 25.5 -65t89.5 -44l184 -37q141 -28 238.5 -69t153.5 -96.5t80 -119t24 -145.5q0 -97 -33 -175t-89.5 -130t-135.5 -86.5t-167.5 -49.5t-189.5 -15zM498 1556l221 295h323l-221 -295h-323z" />
    <glyph glyph-name="sacute" unicode="&#x15b;" horiz-adv-x="1054" 
d="M508 -20q-228 0 -350 98t-119 276h330q3 -22 8.5 -36.5t19.5 -33.5t45.5 -28.5t77.5 -9.5q121 0 121 63q0 54 -90 70l-184 37q-89 17 -152 51.5t-95.5 80t-46.5 92t-14 99.5q0 164 126.5 255t336.5 91q229 0 349 -104t118 -281h-309q-12 119 -158 119q-119 0 -119 -67
q0 -58 99 -76l205 -37q64 -11 117.5 -34.5t97.5 -60t69 -92t25 -124.5q0 -109 -66 -188.5t-179.5 -119.5t-262.5 -40zM344 1188l221 295h324l-221 -295h-324z" />
    <glyph glyph-name="Scircumflex" unicode="&#x15c;" horiz-adv-x="1380" 
d="M696 -20q-291 0 -458.5 132t-167.5 388h403q11 -201 225 -201q92 0 146.5 34.5t54.5 100.5q0 48 -34 75t-117 44l-207 41q-70 14 -127 32t-116 51t-99 76.5t-65 110t-25 148.5q0 110 44 195t123 138t184.5 80t233.5 27q131 0 236.5 -28.5t183.5 -85.5t120 -148.5
t42 -212.5h-404q5 84 -49.5 120t-138.5 36q-88 0 -128 -36t-40 -85q0 -35 25.5 -65t89.5 -44l184 -37q141 -28 238.5 -69t153.5 -96.5t80 -119t24 -145.5q0 -97 -33 -175t-89.5 -130t-135.5 -86.5t-167.5 -49.5t-189.5 -15zM219 1550l193 301h536l193 -301h-336l-125 205
l-125 -205h-336z" />
    <glyph glyph-name="scircumflex" unicode="&#x15d;" horiz-adv-x="1054" 
d="M508 -20q-228 0 -350 98t-119 276h330q3 -22 8.5 -36.5t19.5 -33.5t45.5 -28.5t77.5 -9.5q121 0 121 63q0 54 -90 70l-184 37q-89 17 -152 51.5t-95.5 80t-46.5 92t-14 99.5q0 164 126.5 255t336.5 91q229 0 349 -104t118 -281h-309q-12 119 -158 119q-119 0 -119 -67
q0 -58 99 -76l205 -37q64 -11 117.5 -34.5t97.5 -60t69 -92t25 -124.5q0 -109 -66 -188.5t-179.5 -119.5t-262.5 -40zM66 1182l192 301h537l192 -301h-336l-125 204l-125 -204h-335z" />
    <glyph glyph-name="Scedilla" unicode="&#x15e;" horiz-adv-x="1380" 
d="M489 -375q53 -3 89 11.5t36 48.5q0 43 -45 53t-77 -19l-95 119l144 152q-223 33 -347 162t-124 348h403q11 -201 225 -201q92 0 146.5 34.5t54.5 100.5q0 48 -34 75t-117 44l-207 41q-70 14 -127 32t-116 51t-99 76.5t-65 110t-25 148.5q0 110 44 195t123 138t184.5 80
t233.5 27q131 0 236.5 -28.5t183.5 -85.5t120 -148.5t42 -212.5h-404q5 84 -49.5 120t-138.5 36q-88 0 -128 -36t-40 -85q0 -35 25.5 -65t89.5 -44l184 -37q141 -28 238.5 -69t153.5 -96.5t80 -119t24 -145.5q0 -111 -42.5 -197t-118 -139t-170 -82t-208.5 -36l-100 -93h8
q84 0 136 -60t52 -148q0 -68 -33.5 -116t-91.5 -72.5t-119.5 -35t-134.5 -10.5v178z" />
    <glyph glyph-name="scedilla" unicode="&#x15f;" horiz-adv-x="1054" 
d="M346 -375q53 -3 89 11.5t36 48.5q0 43 -45.5 53t-77.5 -19l-94 119l141 148q-175 25 -267 119.5t-89 248.5h330q3 -22 8.5 -36.5t19.5 -33.5t45.5 -28.5t77.5 -9.5q121 0 121 63q0 54 -90 70l-184 37q-89 17 -152 51.5t-95.5 80t-46.5 92t-14 99.5q0 164 126.5 255
t336.5 91q229 0 349 -104t118 -281h-309q-12 119 -158 119q-119 0 -119 -67q0 -58 99 -76l205 -37q64 -11 117.5 -34.5t97.5 -60t69 -92t25 -124.5q0 -139 -103 -227.5t-278 -112.5l-107 -99h9q84 0 136 -60t52 -148q0 -68 -33.5 -116t-91.5 -72.5t-119.5 -35t-134.5 -10.5
v178z" />
    <glyph glyph-name="Scaron" unicode="&#x160;" horiz-adv-x="1380" 
d="M696 -20q-291 0 -458.5 132t-167.5 388h403q11 -201 225 -201q92 0 146.5 34.5t54.5 100.5q0 48 -34 75t-117 44l-207 41q-70 14 -127 32t-116 51t-99 76.5t-65 110t-25 148.5q0 110 44 195t123 138t184.5 80t233.5 27q131 0 236.5 -28.5t183.5 -85.5t120 -148.5
t42 -212.5h-404q5 84 -49.5 120t-138.5 36q-88 0 -128 -36t-40 -85q0 -35 25.5 -65t89.5 -44l184 -37q141 -28 238.5 -69t153.5 -96.5t80 -119t24 -145.5q0 -97 -33 -175t-89.5 -130t-135.5 -86.5t-167.5 -49.5t-189.5 -15zM201 1849h336l125 -204l124 204h336l-192 -301
h-537z" />
    <glyph glyph-name="scaron" unicode="&#x161;" horiz-adv-x="1054" 
d="M508 -20q-228 0 -350 98t-119 276h330q3 -22 8.5 -36.5t19.5 -33.5t45.5 -28.5t77.5 -9.5q121 0 121 63q0 54 -90 70l-184 37q-89 17 -152 51.5t-95.5 80t-46.5 92t-14 99.5q0 164 126.5 255t336.5 91q229 0 349 -104t118 -281h-309q-12 119 -158 119q-119 0 -119 -67
q0 -58 99 -76l205 -37q64 -11 117.5 -34.5t97.5 -60t69 -92t25 -124.5q0 -109 -66 -188.5t-179.5 -119.5t-262.5 -40zM47 1481h336l125 -205l125 205h336l-193 -301h-536z" />
    <glyph glyph-name="uni0162" unicode="&#x162;" horiz-adv-x="1255" 
d="M434 0v1092h-395v342h1178v-342h-396v-1092h-147l-119 -111h8q84 0 136.5 -60t52.5 -148q0 -68 -33.5 -116t-91.5 -72.5t-119.5 -35t-134.5 -10.5v178q53 -3 89 11.5t36 48.5q0 43 -45.5 53t-77.5 -19l-94 119z" />
    <glyph glyph-name="uni0163" unicode="&#x163;" horiz-adv-x="845" 
d="M29 774v291h186v281h379v-281h209v-291h-209v-362q0 -58 24.5 -91.5t98.5 -33.5q39 0 90 4v-281q-44 -13 -109 -20l-108 -101h8q84 0 136 -60t52 -148q0 -68 -33 -116t-91 -72.5t-119.5 -35t-134.5 -10.5v178q52 -3 88 11.5t36 48.5q0 43 -45 53t-77 -19l-95 119l154 162
h8q-262 59 -262 360v414h-186z" />
    <glyph glyph-name="Tcaron" unicode="&#x164;" horiz-adv-x="1255" 
d="M434 0v1092h-395v342h1178v-342h-396v-1092h-387zM156 1849h336l124 -204l125 204h336l-192 -301h-537z" />
    <glyph glyph-name="tcaron" unicode="&#x165;" horiz-adv-x="847" 
d="M616 -14q-191 0 -296 91.5t-105 282.5v414h-186v291h186v281h379v-281h209v-291h-209v-362q0 -58 24.5 -91.5t98.5 -33.5q39 0 90 4v-281q-79 -24 -191 -24zM637 1182l221 295h324l-221 -295h-324z" />
    <glyph glyph-name="Tbar" unicode="&#x166;" horiz-adv-x="1255" 
d="M145 692v250h289v150h-395v342h1178v-342h-396v-150h287v-250h-287v-692h-387v692h-289z" />
    <glyph glyph-name="tbar" unicode="&#x167;" horiz-adv-x="845" 
d="M29 424v289h186v61h-186v291h186v281h379v-281h209v-291h-209v-61h209v-289h-209v-12q0 -58 24.5 -91.5t98.5 -33.5q39 0 90 4v-281q-79 -24 -191 -24q-191 0 -296 91.5t-105 282.5v64h-186z" />
    <glyph glyph-name="Utilde" unicode="&#x168;" horiz-adv-x="1427" 
d="M715 -20q-137 0 -247.5 33.5t-193.5 101t-128.5 177t-45.5 253.5v889h392v-856q0 -130 58.5 -196.5t164.5 -66.5t163.5 66.5t57.5 196.5v856h393v-889q0 -144 -45.5 -253.5t-128.5 -177t-193.5 -101t-246.5 -33.5zM305 1614q0 123 55.5 192.5t165.5 69.5q55 0 100 -15.5
t68.5 -33.5t47.5 -33.5t42 -15.5q24 0 31 2q25 10 27 37h217q0 -123 -56 -192t-167 -69q-55 0 -100 15.5t-68 34t-46.5 34t-41.5 15.5q-24 0 -32 -3q-24 -10 -26 -38h-217z" />
    <glyph glyph-name="utilde" unicode="&#x169;" 
d="M479 473q0 -182 150 -182q74 0 122 43t48 139v592h379v-1065h-379v229h-17q-8 -45 -31.5 -87.5t-61.5 -79.5t-98 -59.5t-132 -22.5q-158 0 -258.5 106t-100.5 293v686h379v-592zM260 1245q0 123 55.5 192.5t165.5 69.5q55 0 100 -15.5t68.5 -33.5t47.5 -33.5t42 -15.5
q24 0 31 2q25 10 27 37h217q0 -123 -56 -191.5t-167 -68.5q-55 0 -100 15.5t-68 33.5t-46.5 33.5t-41.5 15.5q-24 0 -32 -3q-24 -10 -26 -38h-217z" />
    <glyph glyph-name="Umacron" unicode="&#x16a;" horiz-adv-x="1427" 
d="M715 -20q-137 0 -247.5 33.5t-193.5 101t-128.5 177t-45.5 253.5v889h392v-856q0 -130 58.5 -196.5t164.5 -66.5t163.5 66.5t57.5 196.5v856h393v-889q0 -144 -45.5 -253.5t-128.5 -177t-193.5 -101t-246.5 -33.5zM326 1636v215h712v-215h-712z" />
    <glyph glyph-name="umacron" unicode="&#x16b;" 
d="M479 473q0 -182 150 -182q74 0 122 43t48 139v592h379v-1065h-379v229h-17q-8 -45 -31.5 -87.5t-61.5 -79.5t-98 -59.5t-132 -22.5q-158 0 -258.5 106t-100.5 293v686h379v-592zM281 1268v215h712v-215h-712z" />
    <glyph glyph-name="Ubreve" unicode="&#x16c;" horiz-adv-x="1427" 
d="M715 -20q-137 0 -247.5 33.5t-193.5 101t-128.5 177t-45.5 253.5v889h392v-856q0 -130 58.5 -196.5t164.5 -66.5t163.5 66.5t57.5 196.5v856h393v-889q0 -144 -45.5 -253.5t-128.5 -177t-193.5 -101t-246.5 -33.5zM322 1851h245q3 -74 30 -102.5t83 -28.5q57 0 83.5 28
t29.5 103h245q0 -167 -94.5 -256.5t-263.5 -89.5t-263.5 89.5t-94.5 256.5z" />
    <glyph glyph-name="ubreve" unicode="&#x16d;" 
d="M479 473q0 -182 150 -182q74 0 122 43t48 139v592h379v-1065h-379v229h-17q-8 -45 -31.5 -87.5t-61.5 -79.5t-98 -59.5t-132 -22.5q-158 0 -258.5 106t-100.5 293v686h379v-592zM279 1483h245q3 -74 30 -102.5t83 -28.5q57 0 83.5 28t29.5 103h245q0 -167 -94.5 -256.5
t-263.5 -89.5t-263.5 89.5t-94.5 256.5z" />
    <glyph glyph-name="Uring" unicode="&#x16e;" horiz-adv-x="1427" 
d="M715 -20q-137 0 -247.5 33.5t-193.5 101t-128.5 177t-45.5 253.5v889h392v-856q0 -130 58.5 -196.5t164.5 -66.5t163.5 66.5t57.5 196.5v856h393v-889q0 -144 -45.5 -253.5t-128.5 -177t-193.5 -101t-246.5 -33.5zM449 1720q0 94 66.5 158t164.5 64t163.5 -64t65.5 -158
t-65.5 -158.5t-163.5 -64.5t-164.5 64.5t-66.5 158.5zM618 1720q0 -28 17.5 -44.5t44.5 -16.5q26 0 42.5 16.5t16.5 44.5t-16.5 44t-42.5 16q-27 0 -44.5 -16t-17.5 -44z" />
    <glyph glyph-name="uring" unicode="&#x16f;" 
d="M479 473q0 -182 150 -182q74 0 122 43t48 139v592h379v-1065h-379v229h-17q-8 -45 -31.5 -87.5t-61.5 -79.5t-98 -59.5t-132 -22.5q-158 0 -258.5 106t-100.5 293v686h379v-592zM403 1352q0 94 67 157.5t165 63.5t163.5 -63.5t65.5 -157.5t-65.5 -159t-163.5 -65t-165 65
t-67 159zM573 1352q0 -29 17.5 -45.5t44.5 -16.5q25 0 42 17t17 45t-16.5 43.5t-42.5 15.5q-27 0 -44.5 -15.5t-17.5 -43.5z" />
    <glyph glyph-name="Uhungarumlaut" unicode="&#x170;" horiz-adv-x="1427" 
d="M715 -20q-137 0 -247.5 33.5t-193.5 101t-128.5 177t-45.5 253.5v889h392v-856q0 -130 58.5 -196.5t164.5 -66.5t163.5 66.5t57.5 196.5v856h393v-889q0 -144 -45.5 -253.5t-128.5 -177t-193.5 -101t-246.5 -33.5zM272 1556l222 295h323l-221 -295h-324zM694 1556
l221 295h324l-221 -295h-324z" />
    <glyph glyph-name="uhungarumlaut" unicode="&#x171;" 
d="M479 473q0 -182 150 -182q74 0 122 43t48 139v592h379v-1065h-379v229h-17q-8 -45 -31.5 -87.5t-61.5 -79.5t-98 -59.5t-132 -22.5q-158 0 -258.5 106t-100.5 293v686h379v-592zM227 1188l222 295h323l-221 -295h-324zM649 1188l221 295h324l-221 -295h-324z" />
    <glyph glyph-name="Uogonek" unicode="&#x172;" horiz-adv-x="1427" 
d="M827 -401q-21 -15 -68 -22t-104 1.5t-109.5 31.5t-88 75t-35.5 125q0 114 88 192q-193 44 -301.5 180t-108.5 363v889h392v-856q0 -130 58.5 -196.5t164.5 -66.5t163.5 66.5t57.5 196.5v856h393v-889q0 -246 -127.5 -385t-349.5 -170q-76 -18 -115 -55t-39 -80
q0 -44 41 -59.5t88 9.5v-206z" />
    <glyph glyph-name="uogonek" unicode="&#x173;" 
d="M479 473q0 -182 150 -182q74 0 122 43t48 139v592h379v-1065h2q-130 0 -200.5 -44t-70.5 -101q0 -44 40 -59.5t87 9.5v-206q-21 -15 -68 -22t-104 1.5t-109.5 31.5t-88 75t-35.5 125q0 86 46.5 146.5t121.5 94.5v178h-17q-8 -45 -31.5 -87.5t-61.5 -79.5t-98 -59.5
t-132 -22.5q-158 0 -258.5 106t-100.5 293v686h379v-592z" />
    <glyph glyph-name="Wcircumflex" unicode="&#x174;" horiz-adv-x="2129" 
d="M406 0l-367 1434h399l185 -885h16l229 885h396l229 -885h14l187 885h397l-365 -1434h-401l-260 946l-260 -946h-399zM602 1550l193 301h536l193 -301h-336l-125 205l-125 -205h-336z" />
    <glyph glyph-name="wcircumflex" unicode="&#x175;" horiz-adv-x="1736" 
d="M301 0l-272 1065h356l145 -703h9l168 703h323l168 -703h8l146 703h356l-272 -1065h-422l-146 561l-143 -561h-424zM403 1182l193 301h537l192 -301h-336l-125 204l-125 -204h-336z" />
    <glyph glyph-name="Ycircumflex" unicode="&#x176;" horiz-adv-x="1507" 
d="M553 0v506l-514 928h440l275 -551l274 551h440l-514 -928v-506h-401zM291 1550l192 301h537l192 -301h-335l-125 205l-125 -205h-336z" />
    <glyph glyph-name="ycircumflex" unicode="&#x177;" horiz-adv-x="1239" 
d="M135 -102q49 -6 90.5 -5.5t68 3.5t50.5 13.5t34.5 15.5t23 20t13 15.5t7.5 12.5q17 40 15 68t-23 82l-385 942h387l200 -578l207 578h387l-422 -1026q-60 -147 -116.5 -237t-132.5 -147t-171.5 -73t-232.5 -2v318zM154 1182l192 301h537l192 -301h-336l-125 204
l-125 -204h-335z" />
    <glyph glyph-name="Ydieresis" unicode="&#x178;" horiz-adv-x="1507" 
d="M553 0v506l-514 928h440l275 -551l274 551h440l-514 -928v-506h-401zM272 1704q0 82 60 139.5t141 57.5q80 0 140.5 -57.5t60.5 -139.5t-60.5 -138.5t-140.5 -56.5q-81 0 -141 56.5t-60 138.5zM825 1704q0 82 60 139.5t139 57.5q81 0 141 -57.5t60 -139.5t-60 -138.5
t-141 -56.5q-80 0 -139.5 56.5t-59.5 138.5z" />
    <glyph glyph-name="Zacute" unicode="&#x179;" horiz-adv-x="1286" 
d="M82 0v336l684 762h-678v336h1108l2 -336l-690 -762h696v-336h-1122zM494 1556l221 295h323l-221 -295h-323z" />
    <glyph glyph-name="zacute" unicode="&#x17a;" horiz-adv-x="1058" 
d="M82 0v315l442 435h-422v315h875v-315l-442 -435h442v-315h-895zM336 1188l221 295h324l-222 -295h-323z" />
    <glyph glyph-name="Zdotaccent" unicode="&#x17b;" horiz-adv-x="1286" 
d="M82 0v336l684 762h-678v336h1108l2 -336l-690 -762h696v-336h-1122zM473 1704q0 82 60 139.5t141 57.5q80 0 140 -57.5t60 -139.5t-60 -138.5t-140 -56.5q-81 0 -141 56.5t-60 138.5z" />
    <glyph glyph-name="zdotaccent" unicode="&#x17c;" horiz-adv-x="1058" 
d="M82 0v315l442 435h-422v315h875v-315l-442 -435h442v-315h-895zM315 1335q0 82 60 139.5t141 57.5q80 0 140.5 -57.5t60.5 -139.5q0 -81 -60.5 -137.5t-140.5 -56.5q-81 0 -141 56t-60 138z" />
    <glyph glyph-name="Zcaron" unicode="&#x17d;" horiz-adv-x="1286" 
d="M82 0v336l684 762h-678v336h1108l2 -336l-690 -762h696v-336h-1122zM195 1849h335l125 -204l125 204h336l-192 -301h-537z" />
    <glyph glyph-name="zcaron" unicode="&#x17e;" horiz-adv-x="1058" 
d="M82 0v315l442 435h-422v315h875v-315l-442 -435h442v-315h-895zM39 1481h336l125 -205l125 205h336l-193 -301h-537z" />
    <glyph glyph-name="uni018F" unicode="&#x18f;" horiz-adv-x="1468" 
d="M719 -20q-304 0 -476.5 170t-172.5 493v178h923q-6 64 -22 114t-46 93t-81 66.5t-121 23.5q-216 0 -254 -188h-387q11 107 51 194.5t100 147.5t139 101t167 60t184 19q311 0 493.5 -199t182.5 -544q0 -221 -76 -383.5t-230.5 -254t-373.5 -91.5zM461 510
q1 -49 19.5 -85.5t45.5 -57.5t63.5 -33.5t67 -16.5t62.5 -4q194 0 252 197h-510z" />
    <glyph glyph-name="florin" unicode="&#x192;" horiz-adv-x="663" 
d="M29 -68q21 0 38 5t27.5 11.5t18 20.5t11.5 23t5.5 29t2 29.5t0 32.5t-0.5 30v422h-127v323h127v156q0 58 7.5 104.5t26 94t53.5 82.5t86.5 63t129.5 42.5t178 14.5v-321q-28 0 -47.5 -11t-30 -26.5t-16 -42t-7 -48t-1.5 -53.5v-55h102v-323h-102v-521q0 -82 -12.5 -142.5
t-44.5 -111.5t-86.5 -82.5t-138.5 -49t-199 -17.5v321z" />
    <glyph glyph-name="Ohorn" unicode="&#x1a0;" horiz-adv-x="1546" 
d="M774 -20q-214 0 -375.5 97.5t-245 263.5t-83.5 376t83.5 376t245 262.5t375.5 96.5h432v162h318v-447h-176q129 -189 129 -450q0 -156 -49 -291.5t-138.5 -234t-222.5 -155t-293 -56.5zM471 717q0 -115 31 -204t100.5 -144.5t171.5 -55.5q149 0 225 113t76 291
q0 180 -75.5 290.5t-225.5 110.5q-151 0 -227 -110.5t-76 -290.5z" />
    <glyph glyph-name="ohorn" unicode="&#x1a1;" horiz-adv-x="1193" 
d="M596 -20q-83 0 -160.5 19t-148.5 62.5t-123.5 106t-83.5 156.5t-31 208t31 208t83.5 157t123.5 106t148.5 62.5t160.5 19.5h299v160h301v-448h-104q53 -109 53 -265q0 -114 -31 -208t-83.5 -156.5t-124 -105.5t-149 -62.5t-161.5 -19.5zM403 532q0 -120 51 -179.5
t142 -59.5q92 0 143.5 59.5t51.5 179.5q0 121 -51.5 180.5t-143.5 59.5q-91 0 -142 -59.5t-51 -180.5z" />
    <glyph glyph-name="Uhorn" unicode="&#x1af;" horiz-adv-x="1427" 
d="M715 -20q-137 0 -247.5 33.5t-193.5 101t-128.5 177t-45.5 253.5v889h392v-856q0 -130 58.5 -196.5t164.5 -66.5t163.5 66.5t57.5 196.5v856h326v180h317v-463h-250v-606q0 -144 -45.5 -253.5t-128.5 -177t-193.5 -101t-246.5 -33.5z" />
    <glyph glyph-name="uhorn" unicode="&#x1b0;" 
d="M479 473q0 -182 150 -182q74 0 122 43t48 139v592h325v180h318v-463h-264v-782h-379v229h-17q-8 -45 -31.5 -87.5t-61.5 -79.5t-98 -59.5t-132 -22.5q-158 0 -258.5 106t-100.5 293v686h379v-592z" />
    <glyph glyph-name="uni01CD" unicode="&#x1cd;" horiz-adv-x="1564" 
d="M29 0l501 1434h504l502 -1434h-408l-69 215h-553l-70 -215h-407zM311 1849h336l125 -204l125 204h336l-193 -301h-536zM596 500h373l-176 544h-21z" />
    <glyph glyph-name="uni01CE" unicode="&#x1ce;" horiz-adv-x="1167" 
d="M391 -20q-64 0 -122 16.5t-109 51.5t-81 97.5t-30 145.5q0 53 13.5 97t33 74t53 54t62.5 38t73 26t73 17.5t74 12.5q9 1 13 2l138 25q69 11 92 27.5t24 64.5q-2 88 -108 88q-133 0 -133 -108v-15l-355 -4v58q0 163 117.5 250t378.5 87q249 0 359 -85.5t110 -256.5v-743
h-360v182h-15q-5 -20 -15 -41t-33.5 -51.5t-55 -53.5t-83 -39.5t-114.5 -16.5zM129 1481h336l125 -205l125 205h336l-193 -301h-536zM428 324q0 -78 98 -78q67 0 119.5 36.5t52.5 92.5v82q-10 -10 -28.5 -16.5t-40.5 -10.5t-23 -4l-108 -25q-35 -9 -52.5 -30t-17.5 -47z" />
    <glyph glyph-name="uni01CF" unicode="&#x1cf;" horiz-adv-x="587" 
d="M100 0v1434h387v-1434h-387zM-182 1849h336l125 -204l124 204h336l-192 -301h-537z" />
    <glyph glyph-name="uni01D0" unicode="&#x1d0;" horiz-adv-x="557" 
d="M90 0v1065h379v-1065h-379zM-195 1481h336l125 -205l125 205h336l-192 -301h-537z" />
    <glyph glyph-name="uni01D1" unicode="&#x1d1;" horiz-adv-x="1546" 
d="M774 -20q-214 0 -375.5 97.5t-245 263.5t-83.5 376t83.5 376t245 262.5t375.5 96.5q160 0 293 -56t222.5 -154t138.5 -233t49 -292q0 -156 -49 -291.5t-138.5 -234t-222.5 -155t-293 -56.5zM301 1849h336l125 -204l125 204h336l-193 -301h-536zM471 717q0 -115 31 -204
t100.5 -144.5t171.5 -55.5q149 0 225 113t76 291q0 180 -75.5 290.5t-225.5 110.5q-151 0 -227 -110.5t-76 -290.5z" />
    <glyph glyph-name="uni01D2" unicode="&#x1d2;" horiz-adv-x="1193" 
d="M596 -20q-83 0 -160.5 19t-148.5 62.5t-123.5 106t-83.5 156.5t-31 208t31 208t83.5 157t123.5 106t148.5 62.5t160.5 19.5q84 0 162 -19.5t149 -62.5t123.5 -106t83.5 -157t31 -208t-31 -208t-83.5 -156.5t-124 -105.5t-149 -62.5t-161.5 -19.5zM123 1481h336l125 -205
l125 205h335l-192 -301h-537zM403 532q0 -120 51 -179.5t142 -59.5q92 0 143.5 59.5t51.5 179.5q0 121 -51.5 180.5t-143.5 59.5q-91 0 -142 -59.5t-51 -180.5z" />
    <glyph glyph-name="uni01D3" unicode="&#x1d3;" horiz-adv-x="1427" 
d="M715 -20q-137 0 -247.5 33.5t-193.5 101t-128.5 177t-45.5 253.5v889h392v-856q0 -130 58.5 -196.5t164.5 -66.5t163.5 66.5t57.5 196.5v856h393v-889q0 -144 -45.5 -253.5t-128.5 -177t-193.5 -101t-246.5 -33.5zM207 1849h336l125 -204l125 204h335l-192 -301h-537z
" />
    <glyph glyph-name="uni01D4" unicode="&#x1d4;" 
d="M479 473q0 -182 150 -182q74 0 122 43t48 139v592h379v-1065h-379v229h-17q-8 -45 -31.5 -87.5t-61.5 -79.5t-98 -59.5t-132 -22.5q-158 0 -258.5 106t-100.5 293v686h379v-592zM164 1481h336l125 -205l125 205h335l-192 -301h-537z" />
    <glyph glyph-name="uni01D5" unicode="&#x1d5;" horiz-adv-x="1427" 
d="M715 -20q-137 0 -247.5 33.5t-193.5 101t-128.5 177t-45.5 253.5v889h392v-856q0 -130 58.5 -196.5t164.5 -66.5t163.5 66.5t57.5 196.5v856h393v-889q0 -144 -45.5 -253.5t-128.5 -177t-193.5 -101t-246.5 -33.5zM205 1704q0 82 60 139.5t141 57.5q80 0 140 -57.5
t60 -139.5t-60 -138.5t-140 -56.5q-81 0 -141 56.5t-60 138.5zM326 2042v215h712v-215h-712zM758 1704q0 82 59.5 139.5t138.5 57.5q81 0 141 -57.5t60 -139.5t-60 -138.5t-141 -56.5q-80 0 -139 56.5t-59 138.5z" />
    <glyph glyph-name="uni01D6" unicode="&#x1d6;" 
d="M479 473q0 -182 150 -182q74 0 122 43t48 139v592h379v-1065h-379v229h-17q-8 -45 -31.5 -87.5t-61.5 -79.5t-98 -59.5t-132 -22.5q-158 0 -258.5 106t-100.5 293v686h379v-592zM160 1335q0 82 59.5 139.5t140.5 57.5q80 0 140.5 -57.5t60.5 -139.5q0 -81 -60.5 -137.5
t-140.5 -56.5q-81 0 -140.5 56t-59.5 138zM281 1673v215h712v-215h-712zM713 1335q0 82 59.5 139.5t138.5 57.5q81 0 141 -57.5t60 -139.5t-60 -138t-141 -56q-80 0 -139 56t-59 138z" />
    <glyph glyph-name="uni01D7" unicode="&#x1d7;" horiz-adv-x="1427" 
d="M715 -20q-137 0 -247.5 33.5t-193.5 101t-128.5 177t-45.5 253.5v889h392v-856q0 -130 58.5 -196.5t164.5 -66.5t163.5 66.5t57.5 196.5v856h393v-889q0 -144 -45.5 -253.5t-128.5 -177t-193.5 -101t-246.5 -33.5zM205 1704q0 82 60 139.5t141 57.5q80 0 140 -57.5
t60 -139.5t-60 -138.5t-140 -56.5q-81 0 -141 56.5t-60 138.5zM487 1962l222 295h323l-221 -295h-324zM758 1704q0 82 59.5 139.5t138.5 57.5q81 0 141 -57.5t60 -139.5t-60 -138.5t-141 -56.5q-80 0 -139 56.5t-59 138.5z" />
    <glyph glyph-name="uni01D8" unicode="&#x1d8;" 
d="M479 473q0 -182 150 -182q74 0 122 43t48 139v592h379v-1065h-379v229h-17q-8 -45 -31.5 -87.5t-61.5 -79.5t-98 -59.5t-132 -22.5q-158 0 -258.5 106t-100.5 293v686h379v-592zM160 1335q0 82 59.5 139.5t140.5 57.5q80 0 140.5 -57.5t60.5 -139.5q0 -81 -60.5 -137.5
t-140.5 -56.5q-81 0 -140.5 56t-59.5 138zM442 1593l222 295h323l-221 -295h-324zM713 1335q0 82 59.5 139.5t138.5 57.5q81 0 141 -57.5t60 -139.5t-60 -138t-141 -56q-80 0 -139 56t-59 138z" />
    <glyph glyph-name="uni01D9" unicode="&#x1d9;" horiz-adv-x="1427" 
d="M715 -20q-137 0 -247.5 33.5t-193.5 101t-128.5 177t-45.5 253.5v889h392v-856q0 -130 58.5 -196.5t164.5 -66.5t163.5 66.5t57.5 196.5v856h393v-889q0 -144 -45.5 -253.5t-128.5 -177t-193.5 -101t-246.5 -33.5zM205 1704q0 82 60 139.5t141 57.5q80 0 140 -57.5
t60 -139.5t-60 -138.5t-140 -56.5q-81 0 -141 56.5t-60 138.5zM225 2255h336l125 -205l125 205h336l-193 -301h-536zM758 1704q0 82 59.5 139.5t138.5 57.5q81 0 141 -57.5t60 -139.5t-60 -138.5t-141 -56.5q-80 0 -139 56.5t-59 138.5z" />
    <glyph glyph-name="uni01DA" unicode="&#x1da;" 
d="M479 473q0 -182 150 -182q74 0 122 43t48 139v592h379v-1065h-379v229h-17q-8 -45 -31.5 -87.5t-61.5 -79.5t-98 -59.5t-132 -22.5q-158 0 -258.5 106t-100.5 293v686h379v-592zM160 1335q0 82 59.5 139.5t140.5 57.5q80 0 140.5 -57.5t60.5 -139.5q0 -81 -60.5 -137.5
t-140.5 -56.5q-81 0 -140.5 56t-59.5 138zM180 1886h336l125 -205l125 205h336l-193 -301h-536zM713 1335q0 82 59.5 139.5t138.5 57.5q81 0 141 -57.5t60 -139.5t-60 -138t-141 -56q-80 0 -139 56t-59 138z" />
    <glyph glyph-name="uni01DB" unicode="&#x1db;" horiz-adv-x="1427" 
d="M715 -20q-137 0 -247.5 33.5t-193.5 101t-128.5 177t-45.5 253.5v889h392v-856q0 -130 58.5 -196.5t164.5 -66.5t163.5 66.5t57.5 196.5v856h393v-889q0 -144 -45.5 -253.5t-128.5 -177t-193.5 -101t-246.5 -33.5zM205 1704q0 82 60 139.5t141 57.5q80 0 140 -57.5
t60 -139.5t-60 -138.5t-140 -56.5q-81 0 -141 56.5t-60 138.5zM311 2257h324l221 -295h-324zM758 1704q0 82 59.5 139.5t138.5 57.5q81 0 141 -57.5t60 -139.5t-60 -138.5t-141 -56.5q-80 0 -139 56.5t-59 138.5z" />
    <glyph glyph-name="uni01DC" unicode="&#x1dc;" 
d="M479 473q0 -182 150 -182q74 0 122 43t48 139v592h379v-1065h-379v229h-17q-8 -45 -31.5 -87.5t-61.5 -79.5t-98 -59.5t-132 -22.5q-158 0 -258.5 106t-100.5 293v686h379v-592zM160 1335q0 82 59.5 139.5t140.5 57.5q80 0 140.5 -57.5t60.5 -139.5q0 -81 -60.5 -137.5
t-140.5 -56.5q-81 0 -140.5 56t-59.5 138zM266 1888h324l221 -295h-324zM713 1335q0 82 59.5 139.5t138.5 57.5q81 0 141 -57.5t60 -139.5t-60 -138t-141 -56q-80 0 -139 56t-59 138z" />
    <glyph glyph-name="Gcaron" unicode="&#x1e6;" horiz-adv-x="1478" 
d="M752 -20q-168 0 -298 52t-214 148.5t-127 230t-43 298.5q0 346 181.5 544.5t491.5 198.5q95 0 182.5 -19t167 -60t140.5 -101t101 -147.5t50 -194.5h-385q-40 188 -256 188q-68 0 -119 -23t-81 -60t-48 -91t-24 -106.5t-6 -116.5q0 -408 285 -408q42 0 81 8t82 27
t69.5 61t27.5 101h-226v311h615v-178q0 -324 -170.5 -493.5t-476.5 -169.5zM285 1849h336l124 -204l125 204h336l-192 -301h-537z" />
    <glyph glyph-name="gcaron" unicode="&#x1e7;" horiz-adv-x="1245" 
d="M504 49q-66 0 -128.5 16t-122.5 55t-104.5 96.5t-72 146.5t-27.5 200t27.5 201.5t72 149t104.5 98t122.5 56.5t128.5 17q50 0 91.5 -10t68 -23.5t47.5 -33t31.5 -34t17.5 -30.5h6v111h379v-1012q0 -87 -21 -158.5t-54.5 -120.5t-82.5 -86.5t-99 -59t-109 -34.5
t-107.5 -17.5t-100.5 -4.5q-43 0 -82.5 2.5t-93 12.5t-97 26t-88.5 45.5t-75 69t-48.5 99t-16.5 132.5h344q7 -104 164 -104q98 0 143 48.5t45 149.5v117h-6q-10 -19 -25 -36t-44 -38t-77.5 -34t-109.5 -13zM141 1481h336l125 -205l125 205h336l-193 -301h-536zM406 563
q0 -106 52 -160.5t136 -54.5q80 0 133 55t53 160q0 104 -53 158.5t-133 54.5q-84 0 -136 -54.5t-52 -158.5z" />
    <glyph glyph-name="uni01E8" unicode="&#x1e8;" horiz-adv-x="1515" 
d="M100 0v1434h387v-605l488 605h455l-527 -629l584 -805h-443l-372 526l-185 -221v-305h-387zM293 1849h336l125 -204l125 204h335l-192 -301h-537z" />
    <glyph glyph-name="uni01E9" unicode="&#x1e9;" horiz-adv-x="1249" 
d="M100 0v1434h379v-717l297 348h414l-420 -449l471 -616h-412l-288 371l-62 -64v-307h-379zM-176 1849h336l125 -204l125 204h335l-192 -301h-537z" />
    <glyph glyph-name="uni01EA" unicode="&#x1ea;" horiz-adv-x="1546" 
d="M870 -401q-21 -15 -67.5 -22t-104 1.5t-110 31.5t-88 75t-35.5 125q0 119 96 198q-229 64 -360 256t-131 453q0 210 83.5 376t245 262.5t375.5 96.5q160 0 293 -56t222.5 -154t138.5 -233t49 -292q0 -190 -69 -345t-203 -256.5t-314 -127.5q-71 -18 -109.5 -55t-38.5 -78
q0 -44 40 -59.5t87 9.5v-206zM471 717q0 -115 31 -204t100.5 -144.5t171.5 -55.5q149 0 225 113t76 291q0 180 -75.5 290.5t-225.5 110.5q-151 0 -227 -110.5t-76 -290.5z" />
    <glyph glyph-name="uni01EB" unicode="&#x1eb;" horiz-adv-x="1193" 
d="M682 -401q-21 -15 -67.5 -22t-104 1.5t-110.5 31.5t-88.5 75t-35.5 125q0 129 107 204q-151 55 -242.5 184t-91.5 334q0 114 31 208t83.5 157t123.5 106t148.5 62.5t160.5 19.5q84 0 162 -19.5t149 -62.5t123.5 -106t83.5 -157t31 -208q0 -122 -35 -221t-97 -163
t-138 -103.5t-166 -54.5q-76 -18 -115 -55t-39 -80q0 -44 40 -59.5t87 9.5v-206zM403 532q0 -120 51 -179.5t142 -59.5q92 0 143.5 59.5t51.5 179.5q0 121 -51.5 180.5t-143.5 59.5q-91 0 -142 -59.5t-51 -180.5z" />
    <glyph glyph-name="uni0218" unicode="&#x218;" horiz-adv-x="1380" 
d="M696 -20q-291 0 -458.5 132t-167.5 388h403q11 -201 225 -201q92 0 146.5 34.5t54.5 100.5q0 48 -34 75t-117 44l-207 41q-70 14 -127 32t-116 51t-99 76.5t-65 110t-25 148.5q0 110 44 195t123 138t184.5 80t233.5 27q131 0 236.5 -28.5t183.5 -85.5t120 -148.5
t42 -212.5h-404q5 84 -49.5 120t-138.5 36q-88 0 -128 -36t-40 -85q0 -35 25.5 -65t89.5 -44l184 -37q141 -28 238.5 -69t153.5 -96.5t80 -119t24 -145.5q0 -97 -33 -175t-89.5 -130t-135.5 -86.5t-167.5 -49.5t-189.5 -15zM432 -287q0 90 61 146.5t156 56.5
q107 0 175.5 -78t68.5 -233q0 -182 -98.5 -287.5t-266.5 -105.5h-26v147q100 3 143 34t43 101q-122 3 -189 64.5t-67 154.5z" />
    <glyph glyph-name="uni0219" unicode="&#x219;" horiz-adv-x="1054" 
d="M508 -20q-228 0 -350 98t-119 276h330q3 -22 8.5 -36.5t19.5 -33.5t45.5 -28.5t77.5 -9.5q121 0 121 63q0 54 -90 70l-184 37q-89 17 -152 51.5t-95.5 80t-46.5 92t-14 99.5q0 164 126.5 255t336.5 91q229 0 349 -104t118 -281h-309q-12 119 -158 119q-119 0 -119 -67
q0 -58 99 -76l205 -37q64 -11 117.5 -34.5t97.5 -60t69 -92t25 -124.5q0 -109 -66 -188.5t-179.5 -119.5t-262.5 -40zM297 -303q0 90 61 146.5t156 56.5q107 0 175.5 -78.5t68.5 -233.5q0 -182 -98.5 -287.5t-266.5 -105.5h-26v148q100 3 143 34t43 101q-122 3 -189 64.5
t-67 154.5z" />
    <glyph glyph-name="uni021A" unicode="&#x21a;" horiz-adv-x="1255" 
d="M434 0v1092h-395v342h1178v-342h-396v-1092h-387zM315 -287q0 90 61 146.5t156 56.5q107 0 175.5 -78t68.5 -233q0 -182 -98 -287.5t-266 -105.5h-27v147q100 3 143 34t43 101q-122 3 -189 64.5t-67 154.5z" />
    <glyph glyph-name="uni021B" unicode="&#x21b;" horiz-adv-x="845" 
d="M616 -14q-191 0 -296 91.5t-105 282.5v414h-186v291h186v281h379v-281h209v-291h-209v-362q0 -58 24.5 -91.5t98.5 -33.5q39 0 90 4v-281q-79 -24 -191 -24zM350 -287q0 90 61 146.5t156 56.5q107 0 175.5 -78t68.5 -233q0 -182 -98.5 -287.5t-266.5 -105.5h-26v147
q100 3 143 34t43 101q-122 3 -189 64.5t-67 154.5z" />
    <glyph glyph-name="uni0237" unicode="&#x237;" horiz-adv-x="585" 
d="M102 -408q-150 0 -211 7v295h127q53 0 77 35.5t24 90.5v1045h379v-1098q0 -189 -104 -282t-292 -93z" />
    <glyph glyph-name="uni0259" unicode="&#x259;" horiz-adv-x="1177" 
d="M573 -31q-86 0 -160.5 17.5t-142.5 60.5t-116 108t-76.5 166t-28.5 230q0 29 6 67h717q-12 103 -57.5 146t-134.5 43q-49 0 -84.5 -10t-55 -29t-29.5 -37t-16 -41h-332q32 186 168.5 290.5t343.5 104.5q82 0 157.5 -17t149 -58t127 -103t86.5 -159.5t33 -219.5
q0 -119 -30 -214.5t-81.5 -159t-123 -106t-151 -61t-169.5 -18.5zM406 424q13 -170 178 -170q161 0 186 170h-364z" />
    <glyph glyph-name="circumflex" unicode="&#x2c6;" horiz-adv-x="921" 
d="M0 1182l193 301h536l193 -301h-336l-125 204l-125 -204h-336z" />
    <glyph glyph-name="caron" unicode="&#x2c7;" horiz-adv-x="940" 
d="M0 1481h336l125 -205l125 205h336l-193 -301h-536z" />
    <glyph glyph-name="breve" unicode="&#x2d8;" horiz-adv-x="737" 
d="M369 1137q-169 0 -264 89.5t-95 256.5h246q3 -74 30 -102.5t83 -28.5q57 0 83 28t29 103h246q0 -167 -94.5 -256.5t-263.5 -89.5z" />
    <glyph glyph-name="dotaccent" unicode="&#x2d9;" horiz-adv-x="401" 
d="M201 1141q-81 0 -141 56t-60 138t60 139.5t141 57.5q80 0 140 -57.5t60 -139.5t-60 -138t-140 -56z" />
    <glyph glyph-name="ring" unicode="&#x2da;" horiz-adv-x="460" 
d="M231 1128q-98 0 -164.5 65t-66.5 159t66.5 157.5t164.5 63.5t164 -63.5t66 -157.5t-66 -159t-164 -65zM170 1352q0 -29 17 -45.5t44 -16.5q26 0 43 17t17 45t-17 43.5t-43 15.5q-27 0 -44 -15.5t-17 -43.5z" />
    <glyph glyph-name="ogonek" unicode="&#x2db;" horiz-adv-x="548" 
d="M406 -401q-21 -15 -68 -22t-104.5 1.5t-110 31.5t-88 75t-35.5 125q0 66 29 119.5t75.5 85t98.5 48.5t102 17l244 -80q-130 0 -200 -44t-70 -101q0 -44 40 -59.5t87 9.5v-206z" />
    <glyph glyph-name="tilde" unicode="&#x2dc;" horiz-adv-x="774" 
d="M541 1188q-55 0 -100 15.5t-68 33.5t-46.5 33.5t-41.5 15.5q-24 0 -32 -3q-25 -9 -26 -38h-217q0 123 55.5 192.5t165.5 69.5q55 0 100 -15.5t68.5 -33.5t47.5 -33.5t42 -15.5q24 0 31 2q25 10 27 37h217q0 -123 -56 -191.5t-167 -68.5z" />
    <glyph glyph-name="hungarumlaut" unicode="&#x2dd;" horiz-adv-x="968" 
d="M422 1188l221 295h324l-222 -295h-323zM0 1188l221 295h324l-221 -295h-324z" />
    <glyph glyph-name="gravecomb" unicode="&#x300;" horiz-adv-x="0" 
d="M221 1188l-221 295h324l221 -295h-324z" />
    <glyph glyph-name="acutecomb" unicode="&#x301;" horiz-adv-x="0" 
d="M0 1188l221 295h324l-221 -295h-324z" />
    <glyph glyph-name="uni0302" unicode="&#x302;" horiz-adv-x="0" 
d="M0 1182l193 301h536l193 -301h-336l-125 204l-125 -204h-336z" />
    <glyph glyph-name="tildecomb" unicode="&#x303;" horiz-adv-x="0" 
d="M541 1188q-55 0 -100 15.5t-68 33.5t-46.5 33.5t-41.5 15.5q-24 0 -32 -3q-25 -9 -26 -38h-217q0 123 55.5 192.5t165.5 69.5q55 0 100 -15.5t68.5 -33.5t47.5 -33.5t42 -15.5q24 0 31 2q25 10 27 37h217q0 -123 -56 -191.5t-167 -68.5z" />
    <glyph glyph-name="uni0304" unicode="&#x304;" horiz-adv-x="0" 
d="M0 1268v215h713v-215h-713z" />
    <glyph glyph-name="uni0306" unicode="&#x306;" horiz-adv-x="0" 
d="M369 1137q-169 0 -264 89.5t-95 256.5h246q3 -74 30 -102.5t83 -28.5q57 0 83 28t29 103h246q0 -167 -94.5 -256.5t-263.5 -89.5z" />
    <glyph glyph-name="uni0307" unicode="&#x307;" horiz-adv-x="0" 
d="M201 1141q-81 0 -141 56t-60 138t60 139.5t141 57.5q80 0 140 -57.5t60 -139.5t-60 -138t-140 -56z" />
    <glyph glyph-name="uni0308" unicode="&#x308;" horiz-adv-x="0" 
d="M752 1141q-80 0 -139.5 56t-59.5 138t60 139.5t139 57.5q81 0 140.5 -57.5t59.5 -139.5t-59.5 -138t-140.5 -56zM0 1335q0 82 60 139.5t141 57.5q80 0 140 -57.5t60 -139.5t-60 -138t-140 -56q-81 0 -141 56t-60 138z" />
    <glyph glyph-name="hookabovecomb" unicode="&#x309;" horiz-adv-x="0" 
d="M250 1317q37 1 50 13.5t13 33.5q0 18 -10 27.5t-24 9.5q-32 0 -37 -35h-185q0 64 20 110.5t54.5 71t72 36t79.5 11.5q98 0 166.5 -55t68.5 -162q0 -90 -51 -143t-135 -66z" />
    <glyph glyph-name="uni030A" unicode="&#x30a;" horiz-adv-x="0" 
d="M231 1128q-98 0 -164.5 65t-66.5 159t66.5 157.5t164.5 63.5t164 -63.5t66 -157.5t-66 -159t-164 -65zM170 1352q0 -29 17 -45.5t44 -16.5q26 0 43 17t17 45t-17 43.5t-43 15.5q-27 0 -44 -15.5t-17 -43.5z" />
    <glyph glyph-name="uni030B" unicode="&#x30b;" horiz-adv-x="0" 
d="M422 1188l221 295h324l-222 -295h-323zM0 1188l221 295h324l-221 -295h-324z" />
    <glyph glyph-name="uni030C" unicode="&#x30c;" horiz-adv-x="0" 
d="M0 1481h336l125 -205l125 205h336l-193 -301h-536z" />
    <glyph glyph-name="uni0312" unicode="&#x312;" horiz-adv-x="0" 
d="M451 1262q-100 -3 -143.5 -34.5t-43.5 -101.5q122 -3 189 -64.5t67 -154.5q-1 -90 -63 -146t-156 -56q-107 0 -174.5 78t-67.5 233q0 182 98.5 287.5t266.5 105.5h27v-147z" />
    <glyph glyph-name="uni031B" unicode="&#x31b;" horiz-adv-x="0" 
d="M0 782v283h326v180h317v-463h-643z" />
    <glyph glyph-name="dotbelowcomb" unicode="&#x323;" horiz-adv-x="0" 
d="M322 -471q-91 0 -155.5 62.5t-64.5 152.5t64.5 152.5t155.5 62.5t156 -62.5t65 -152.5t-65 -152.5t-156 -62.5z" />
    <glyph glyph-name="uni0326" unicode="&#x326;" horiz-adv-x="0" 
d="M37 -641q100 3 143 34t43 101q-122 3 -189 64.5t-67 154.5q0 90 61 146.5t156 56.5q107 0 175.5 -78t68.5 -233q0 -182 -98.5 -287.5t-266.5 -105.5h-26v147z" />
    <glyph glyph-name="uni0327" unicode="&#x327;" horiz-adv-x="0" 
d="M92 -375q53 -3 89 11.5t36 48.5q0 43 -45.5 53t-77.5 -19l-94 119l154 162h239l-119 -111h9q84 0 136 -60t52 -148q0 -68 -33.5 -116t-91.5 -72.5t-119.5 -35t-134.5 -10.5v178z" />
    <glyph glyph-name="uni0328" unicode="&#x328;" horiz-adv-x="0" 
d="M406 -401q-21 -15 -68 -22t-104.5 1.5t-110 31.5t-88 75t-35.5 125q0 66 29 119.5t75.5 85t98.5 48.5t102 17l244 -80q-130 0 -200 -44t-70 -101q0 -44 40 -59.5t87 9.5v-206z" />
    <glyph glyph-name="uni0394" unicode="&#x394;" horiz-adv-x="1353" 
d="M29 0l647 1460h2l647 -1460h-1296zM485 289h383l-190 502z" />
    <glyph glyph-name="uni03A9" unicode="&#x3a9;" horiz-adv-x="1579" 
d="M106 0v305h140q-176 173 -176 430q0 156 61.5 291.5t162 226.5t229.5 143t265 52q137 0 266.5 -52t230.5 -143t162.5 -226.5t61.5 -291.5q0 -257 -176 -430h140v-305h-601v381q80 29 136.5 88t82 127t25.5 139q0 145 -91 244.5t-237 99.5q-144 0 -234.5 -99.5
t-90.5 -244.5q0 -71 25 -139t81.5 -127t135.5 -88v-381h-599z" />
    <glyph glyph-name="uni03BC" unicode="&#x3bc;" 
d="M100 -389v1454h379v-592q0 -182 150 -182q74 0 122 43t48 139v592h379v-1065h-379v229h-17q-17 -94 -95.5 -168t-207.5 -81v-369h-379z" />
    <glyph glyph-name="pi" unicode="&#x3c0;" horiz-adv-x="1548" 
d="M1245 -12q-49 0 -94 7t-97.5 29.5t-90.5 59t-63.5 102t-25.5 152.5v405h-210v-743h-379v743h-205v322h1376v-322h-203v-315q0 -71 28.5 -97t84.5 -26q54 0 113 27v-285q-26 -30 -93.5 -44.5t-140.5 -14.5z" />
    <glyph glyph-name="uni0401" unicode="&#x401;" horiz-adv-x="1187" 
d="M100 0v1434h1018v-336h-631v-228h570v-301h-570v-233h652v-336h-1039zM166 1704q0 82 60 139.5t141 57.5q80 0 140 -57.5t60 -139.5t-60 -138.5t-140 -56.5q-81 0 -141 56.5t-60 138.5zM719 1704q0 82 60 139.5t139 57.5q81 0 140.5 -57.5t59.5 -139.5t-59.5 -138.5
t-140.5 -56.5q-80 0 -139.5 56.5t-59.5 138.5z" />
    <glyph glyph-name="uni0403" unicode="&#x403;" horiz-adv-x="1107" 
d="M100 0v1434h969v-340h-571v-1094h-398zM393 1556l221 295h324l-221 -295h-324z" />
    <glyph glyph-name="uni0404" unicode="&#x404;" horiz-adv-x="1441" 
d="M760 -20q-323 0 -506.5 198t-183.5 539q0 340 184.5 537.5t509.5 197.5q126 0 232.5 -33t191 -99t135 -176t57.5 -255h-379q-47 229 -251 229q-213 0 -265 -239h332v-316h-336q49 -250 269 -250q204 0 251 232h379q-7 -145 -57.5 -255t-135.5 -177t-192 -100t-235 -33z
" />
    <glyph glyph-name="uni0407" unicode="&#x407;" horiz-adv-x="587" 
d="M100 0v1434h387v-1434h-387zM-190 1704q0 82 59.5 139.5t140.5 57.5q80 0 140.5 -57.5t60.5 -139.5t-60.5 -138.5t-140.5 -56.5q-81 0 -140.5 56.5t-59.5 138.5zM362 1704q0 82 60 139.5t139 57.5q81 0 141 -57.5t60 -139.5t-60 -138.5t-141 -56.5q-80 0 -139.5 56.5
t-59.5 138.5z" />
    <glyph glyph-name="uni040C" unicode="&#x40c;" horiz-adv-x="1515" 
d="M100 0v1434h387v-605l488 605h455l-527 -629l584 -805h-443l-372 526l-185 -221v-305h-387zM586 1556l221 295h323l-221 -295h-323z" />
    <glyph glyph-name="uni040E" unicode="&#x40e;" horiz-adv-x="1294" 
d="M180 307q32 -3 59.5 -4t48 0t39 5t30.5 7.5t23 11t17 11.5t12.5 12.5t8 11.5t6 11.5t4.5 9.5q26 67 -41 235l-348 816h440l164 -502l172 502h440l-444 -1014q-28 -65 -53.5 -116t-53 -97.5t-54.5 -80t-58 -64t-63 -48.5t-70.5 -34t-80.5 -20.5t-92 -7t-106 4.5v350z
M289 1851h246q3 -75 29.5 -103t82.5 -28q57 0 83.5 28t29.5 103h246q0 -167 -95 -256.5t-264 -89.5t-263.5 89.5t-94.5 256.5z" />
    <glyph glyph-name="uni0410" unicode="&#x410;" horiz-adv-x="1564" 
d="M29 0l501 1434h504l502 -1434h-408l-69 215h-553l-70 -215h-407zM596 500h373l-176 544h-21z" />
    <glyph glyph-name="uni0411" unicode="&#x411;" horiz-adv-x="1335" 
d="M100 0v1434h969v-340h-571v-113h219q288 0 428.5 -131.5t140.5 -360.5q0 -227 -140.5 -358t-428.5 -131h-617zM498 334h207q78 0 117.5 41t39.5 114q0 74 -39.5 116t-117.5 42h-207v-313z" />
    <glyph glyph-name="uni0412" unicode="&#x412;" horiz-adv-x="1347" 
d="M100 0v1434h609q243 0 365 -96.5t122 -268.5q0 -116 -50.5 -181.5t-150.5 -99.5q303 -83 303 -362q0 -70 -19.5 -131.5t-62.5 -116t-106.5 -94t-157.5 -62t-209 -22.5h-643zM487 326h242q168 0 168 145q0 158 -168 158h-242v-303zM487 864h209q24 0 47 9.5t43.5 40
t20.5 77.5q0 65 -35.5 92t-75.5 27h-209v-246z" />
    <glyph glyph-name="uni0413" unicode="&#x413;" horiz-adv-x="1107" 
d="M100 0v1434h969v-340h-571v-1094h-398z" />
    <glyph glyph-name="uni0414" unicode="&#x414;" horiz-adv-x="1677" 
d="M29 -141v465h116q193 123 193 639v471h1126v-1110h164v-465h-379v141h-841v-141h-379zM561 324h506v770h-332v-131q0 -505 -174 -639z" />
    <glyph glyph-name="uni0415" unicode="&#x415;" horiz-adv-x="1187" 
d="M100 0v1434h1018v-336h-631v-228h570v-301h-570v-233h652v-336h-1039z" />
    <glyph glyph-name="uni0416" unicode="&#x416;" horiz-adv-x="2228" 
d="M1751 0l-438 541v-541h-398v539l-438 -539h-448l573 717l-579 717h450l442 -539v539h398v-543l444 543h449l-580 -717l576 -717h-451z" />
    <glyph glyph-name="uni0417" unicode="&#x417;" horiz-adv-x="1249" 
d="M606 -20q-282 0 -415.5 139t-131.5 385h357q1 -63 20.5 -107t52.5 -64t64 -28t68 -8q33 0 63.5 7t59 22.5t46 45.5t17.5 72q0 152 -209 152h-98v266h82q53 0 91.5 10.5t57.5 24.5t29.5 35.5t12 34.5t1.5 30q0 70 -45 101.5t-104 31.5q-28 0 -54.5 -8t-52 -27t-42 -56
t-17.5 -89h-353q0 234 132.5 368t392.5 134q231 0 370.5 -104.5t139.5 -282.5q0 -75 -24.5 -136t-62 -96t-74 -55t-69.5 -26q23 0 55 -9.5t72 -34t73.5 -60t56 -95.5t22.5 -133q0 -193 -157 -316.5t-427 -123.5z" />
    <glyph glyph-name="uni0418" unicode="&#x418;" horiz-adv-x="1464" 
d="M1364 0h-387v778h-8l-457 -778h-412v1434h387v-805h11l471 805h395v-1434z" />
    <glyph glyph-name="uni0419" unicode="&#x419;" horiz-adv-x="1464" 
d="M1364 0h-387v778h-8l-457 -778h-412v1434h387v-805h11l471 805h395v-1434zM373 1851h245q3 -74 30 -102.5t83 -28.5q57 0 83.5 28t29.5 103h246q0 -167 -95 -256.5t-264 -89.5t-263.5 89.5t-94.5 256.5z" />
    <glyph glyph-name="uni041A" unicode="&#x41a;" horiz-adv-x="1515" 
d="M100 0v1434h387v-605l488 605h455l-527 -629l584 -805h-443l-372 526l-185 -221v-305h-387z" />
    <glyph glyph-name="uni041B" unicode="&#x41b;" horiz-adv-x="1413" 
d="M31 326q36 -1 57.5 0.5t48 9t41 22t25 43t10.5 70.5v963h1100v-1434h-395v1094h-310v-643q0 -253 -157.5 -374t-419.5 -91v340z" />
    <glyph glyph-name="uni041C" unicode="&#x41c;" horiz-adv-x="1763" 
d="M100 0v1434h494l287 -899l288 899h494v-1434h-387v774h-14l-240 -774h-283l-237 774h-15v-774h-387z" />
    <glyph glyph-name="uni041D" unicode="&#x41d;" horiz-adv-x="1423" 
d="M936 0v563h-449v-563h-387v1434h387v-549h449v549h387v-1434h-387z" />
    <glyph glyph-name="uni041E" unicode="&#x41e;" horiz-adv-x="1546" 
d="M774 -20q-214 0 -375.5 97.5t-245 263.5t-83.5 376t83.5 376t245 262.5t375.5 96.5q160 0 293 -56t222.5 -154t138.5 -233t49 -292q0 -156 -49 -291.5t-138.5 -234t-222.5 -155t-293 -56.5zM471 717q0 -115 31 -204t100.5 -144.5t171.5 -55.5q149 0 225 113t76 291
q0 180 -75.5 290.5t-225.5 110.5q-151 0 -227 -110.5t-76 -290.5z" />
    <glyph glyph-name="uni041F" unicode="&#x41f;" horiz-adv-x="1423" 
d="M100 0v1434h1223v-1434h-397v1094h-428v-1094h-398z" />
    <glyph glyph-name="uni0420" unicode="&#x420;" horiz-adv-x="1335" 
d="M100 0v1434h613q149 0 261 -37.5t179 -106t100 -157.5t33 -199t-33 -199t-100 -157.5t-179 -106t-261 -37.5h-226v-434h-387zM487 770h213q95 0 140 45t45 119t-45 119t-140 45h-213v-328z" />
    <glyph glyph-name="uni0421" unicode="&#x421;" horiz-adv-x="1441" 
d="M760 -20q-323 0 -506.5 198t-183.5 539q0 340 184.5 537.5t509.5 197.5q126 0 232.5 -33t191 -99t135 -176t57.5 -255h-379q-47 229 -251 229q-65 0 -115.5 -23t-81 -61t-50 -91.5t-27 -108t-7.5 -117.5q0 -404 281 -404q204 0 251 232h379q-7 -145 -57.5 -255
t-135.5 -177t-192 -100t-235 -33z" />
    <glyph glyph-name="uni0422" unicode="&#x422;" horiz-adv-x="1255" 
d="M434 0v1092h-395v342h1178v-342h-396v-1092h-387z" />
    <glyph glyph-name="uni0423" unicode="&#x423;" horiz-adv-x="1294" 
d="M180 307q32 -3 59.5 -4t48 0t39 5t30.5 7.5t23 11t17 11.5t12.5 12.5t8 11.5t6 11.5t4.5 9.5q26 67 -41 235l-348 816h440l164 -502l172 502h440l-444 -1014q-28 -65 -53.5 -116t-53 -97.5t-54.5 -80t-58 -64t-63 -48.5t-70.5 -34t-80.5 -20.5t-92 -7t-106 4.5v350z" />
    <glyph glyph-name="uni0424" unicode="&#x424;" horiz-adv-x="1538" 
d="M571 -31v170q-236 47 -368.5 201t-132.5 377q0 226 132.5 378.5t368.5 198.5v170h398v-170q236 -47 368.5 -199t132.5 -378q0 -222 -133 -376.5t-368 -201.5v-170h-398zM449 717q0 -175 122 -248v498q-122 -73 -122 -250zM969 469q123 77 123 248q0 177 -123 248v-496z
" />
    <glyph glyph-name="uni0425" unicode="&#x425;" horiz-adv-x="1429" 
d="M967 0l-252 395l-252 -395h-434l469 737l-445 697h434l228 -357l225 357h434l-442 -697l469 -737h-434z" />
    <glyph glyph-name="uni0426" unicode="&#x426;" horiz-adv-x="1521" 
d="M100 0v1434h398v-1094h428v1094h397v-1094h170v-629h-379v289h-1014z" />
    <glyph glyph-name="uni0427" unicode="&#x427;" horiz-adv-x="1388" 
d="M487 299q-203 0 -310 119t-107 377v639h397v-621q0 -166 178 -166q57 0 105.5 19.5t77 49t45 57.5t18.5 50v611h397v-1434h-397v530q-17 -33 -46 -67.5t-77.5 -74t-122 -64.5t-158.5 -25z" />
    <glyph glyph-name="uni0428" unicode="&#x428;" horiz-adv-x="1775" 
d="M100 0v1434h398v-1094h192v1094h397v-1094h193v1094h397v-1434h-1577z" />
    <glyph glyph-name="uni0429" unicode="&#x429;" horiz-adv-x="1865" 
d="M100 0v1434h398v-1094h192v1094h397v-1094h193v1094h397v-1094h160v-629h-377v289h-1360z" />
    <glyph glyph-name="uni042A" unicode="&#x42a;" horiz-adv-x="1449" 
d="M29 1094v340h583v-453h211q294 0 436 -131.5t142 -360.5q0 -228 -142 -358.5t-436 -130.5h-608v1094h-186zM612 334h207q78 0 118 41.5t40 113.5q0 74 -40 116t-118 42h-207v-313z" />
    <glyph glyph-name="uni042B" unicode="&#x42b;" horiz-adv-x="1916" 
d="M100 0v1434h398v-453h211q294 0 435.5 -131.5t141.5 -360.5q0 -228 -141.5 -358.5t-435.5 -130.5h-609zM498 334h207q78 0 117.5 41t39.5 114q0 74 -39.5 116t-117.5 42h-207v-313zM1430 0v1434h387v-1434h-387z" />
    <glyph glyph-name="uni042C" unicode="&#x42c;" horiz-adv-x="1335" 
d="M100 0v1434h398v-453h211q294 0 435.5 -131.5t141.5 -360.5q0 -228 -141.5 -358.5t-435.5 -130.5h-609zM498 334h207q78 0 117.5 41t39.5 114q0 74 -39.5 116t-117.5 42h-207v-313z" />
    <glyph glyph-name="uni042D" unicode="&#x42d;" horiz-adv-x="1429" 
d="M612 563v316h332q-52 239 -264 239q-205 0 -252 -229h-379q7 145 57.5 255t135.5 176t191.5 99t232.5 33q325 0 509.5 -197.5t184.5 -537.5q0 -341 -183.5 -539t-506.5 -198q-128 0 -235.5 33t-192.5 100t-135.5 177t-57.5 255h379q47 -232 252 -232q219 0 268 250h-336z
" />
    <glyph glyph-name="uni042E" unicode="&#x42e;" horiz-adv-x="2129" 
d="M100 0v1434h387v-549h181q48 257 230.5 412t459.5 155q213 0 374 -96.5t244.5 -262.5t83.5 -376t-83.5 -376t-244.5 -263.5t-374 -97.5q-281 0 -464.5 160.5t-227.5 422.5h-179v-563h-387zM1055 717q0 -115 31 -204t100.5 -144.5t171.5 -55.5q149 0 225 113t76 291
q0 180 -75.5 290.5t-225.5 110.5q-151 0 -227 -110.5t-76 -290.5z" />
    <glyph glyph-name="uni042F" unicode="&#x42f;" horiz-adv-x="1349" 
d="M432 0h-383l283 489q-137 60 -203 175t-66 270q0 110 33 199t100.5 157.5t179.5 106t261 37.5h612v-1434h-387v434h-188zM465 934q0 -74 44.5 -119t139.5 -45h213v328h-213q-95 0 -139.5 -45t-44.5 -119z" />
    <glyph glyph-name="uni0430" unicode="&#x430;" horiz-adv-x="1169" 
d="M393 -20q-49 0 -96 9.5t-92.5 32t-79.5 56t-55 86t-21 117.5q0 53 14 96.5t35 73.5t54.5 53.5t63 37t71.5 23.5t69.5 14.5t65.5 8.5l192 22q52 7 64 25.5t12 75.5v18v-14q0 31 -9 51.5t-25.5 29.5t-31.5 12t-36 3q-121 0 -121 -102v-4l-356 -5v48q0 163 114.5 250
t372.5 87q251 0 361 -86t110 -260v-397q0 -59 15.5 -74t58.5 -20v-219q-43 -41 -154 -41q-55 0 -102 10.5t-88.5 34t-65.5 67t-24 103.5v-23h-15q-1 -22 -17.5 -52.5t-49 -65t-94.5 -58.5t-140 -24zM424 334q0 -12 2 -21t11.5 -26t36.5 -27t69 -10q74 0 110.5 35.5
t36.5 89.5v67q-8 -5 -17.5 -8.5t-16 -4.5t-21 -3.5t-21.5 -3.5l-98 -14q-56 -10 -74 -28t-18 -46z" />
    <glyph glyph-name="uni0431" unicode="&#x431;" horiz-adv-x="1216" 
d="M621 -18q-72 0 -141.5 17.5t-145 65.5t-132 122t-94 197t-38.5 280v178q-1 310 124 451t375 141h25q108 0 160 45h329q-42 -185 -135 -261.5t-282 -76.5h-97q-67 0 -103 -50t-36 -112v-8q2 11 32 31.5t90.5 40.5t127.5 20q61 0 124 -15.5t130 -55.5t118 -98.5t84 -154
t33 -213.5q0 -123 -36.5 -220.5t-93 -156.5t-131.5 -98t-145.5 -54t-141.5 -15zM434 524q0 -126 53 -182.5t138 -56.5q82 0 135 59t53 182q0 128 -54 192t-134 64q-82 0 -136.5 -64t-54.5 -194z" />
    <glyph glyph-name="uni0432" unicode="&#x432;" horiz-adv-x="1257" 
d="M100 0v1065h588q92 0 168.5 -15.5t137 -47.5t94.5 -85.5t34 -125.5q0 -149 -147 -199q105 -30 169 -103t64 -176q0 -68 -28.5 -123.5t-72.5 -90t-102 -57.5t-114 -32.5t-111 -9.5h-680zM479 299h230q70 0 96 24t26 52q0 11 -4.5 21t-16.5 22t-39 19t-66 7h-226v-145z
M479 651h211q25 0 43 6t25 14t12 16.5t3 14.5t-1 7q-1 2 0.5 8t-2.5 14.5t-10.5 16t-23 13t-40.5 5.5h-217v-115zM772 709z" />
    <glyph glyph-name="uni0433" unicode="&#x433;" horiz-adv-x="933" 
d="M100 0v1065h807v-293h-428v-772h-379z" />
    <glyph glyph-name="uni0434" unicode="&#x434;" horiz-adv-x="1425" 
d="M371 0v-96h-342v389h110q65 57 84 159.5t19 270.5v342h1040v-772h117v-389h-344v96h-684zM502 293h401v479h-282v-49q0 -155 -25.5 -263.5t-93.5 -166.5z" />
    <glyph glyph-name="uni0435" unicode="&#x435;" horiz-adv-x="1177" 
d="M602 -20q-81 0 -156 17t-148.5 58t-127.5 103.5t-87.5 160t-33.5 220.5q0 117 30.5 210.5t82 155.5t123.5 103t151 59t168 18q86 0 160 -16.5t142.5 -57t116.5 -102.5t76.5 -160t28.5 -223q0 -48 -6 -86h-712q13 -95 62 -135.5t136 -40.5q49 0 83.5 9.5t52.5 28t26 34.5
t14 39h330q-32 -185 -168.5 -290t-343.5 -105zM412 653h360q-3 26 -11.5 48.5t-26.5 47t-54 38.5t-86 14q-154 0 -182 -148z" />
    <glyph glyph-name="uni0436" unicode="&#x436;" horiz-adv-x="1982" 
d="M1505 0l-325 354v-354h-379v352l-326 -352h-467l500 520l-494 545h469l318 -365v365h379v-369l319 369h469l-495 -545l501 -520h-469z" />
    <glyph glyph-name="uni0437" unicode="&#x437;" horiz-adv-x="1142" 
d="M553 -18q-254 0 -379 111t-125 339h336q0 -182 178 -182q68 0 106 24.5t38 67.5q0 113 -201 115v184q49 0 84 8t51 17t25 24t9.5 21.5t0.5 17.5q0 80 -119 80q-61 0 -99 -32.5t-38 -104.5h-340q0 206 123 306.5t354 100.5q132 0 236 -31t170.5 -102.5t66.5 -175.5
q0 -50 -15.5 -89.5t-39.5 -61.5t-46.5 -35t-42 -19.5t-20.5 -7.5q1 0 19 -5.5t41 -13.5t51.5 -26.5t51.5 -43t38.5 -64.5t15.5 -89q0 -107 -72.5 -183.5t-190.5 -113t-267 -36.5z" />
    <glyph glyph-name="uni0438" unicode="&#x438;" horiz-adv-x="1292" 
d="M100 0v1065h379v-524h8l330 524h377v-1065h-379v498h-10l-313 -498h-392z" />
    <glyph glyph-name="uni0439" unicode="&#x439;" horiz-adv-x="1292" 
d="M100 0v1065h379v-524h8l330 524h377v-1065h-379v498h-10l-313 -498h-392zM291 1483h246q3 -75 29.5 -103t82.5 -28q57 0 83.5 28t29.5 103h246q0 -167 -95 -256.5t-264 -89.5t-263.5 89.5t-94.5 256.5z" />
    <glyph glyph-name="uni043A" unicode="&#x43a;" horiz-adv-x="1243" 
d="M100 0v1065h379v-322l277 322h424l-414 -451l469 -614h-408l-290 362l-58 -63v-299h-379z" />
    <glyph glyph-name="uni043B" unicode="&#x43b;" horiz-adv-x="1312" 
d="M31 289q41 -1 72 5.5t60 24t44.5 54.5t15.5 92v600h989v-1065h-360l-14 772h-236v-328q0 -251 -153.5 -365t-417.5 -85v295z" />
    <glyph glyph-name="uni043C" unicode="&#x43c;" horiz-adv-x="1576" 
d="M100 0v1065h449l239 -621l240 621h449v-1065h-379v492h-11l-163 -492h-271l-164 492h-10v-492h-379z" />
    <glyph glyph-name="uni043D" unicode="&#x43d;" horiz-adv-x="1228" 
d="M100 0v1065h379v-363h271v363h378v-1065h-378v410h-271v-410h-379z" />
    <glyph glyph-name="uni043E" unicode="&#x43e;" horiz-adv-x="1193" 
d="M596 -20q-83 0 -160.5 19t-148.5 62.5t-123.5 106t-83.5 156.5t-31 208t31 208t83.5 157t123.5 106t148.5 62.5t160.5 19.5q84 0 162 -19.5t149 -62.5t123.5 -106t83.5 -157t31 -208t-31 -208t-83.5 -156.5t-124 -105.5t-149 -62.5t-161.5 -19.5zM403 532
q0 -120 51 -179.5t142 -59.5q92 0 143.5 59.5t51.5 179.5q0 121 -51.5 180.5t-143.5 59.5q-91 0 -142 -59.5t-51 -180.5z" />
    <glyph glyph-name="uni043F" unicode="&#x43f;" horiz-adv-x="1204" 
d="M100 0v1065h1004v-1065h-379v772h-246v-772h-379z" />
    <glyph glyph-name="uni0440" unicode="&#x440;" horiz-adv-x="1261" 
d="M100 -389v1454h379v-102q26 47 102 84.5t175 37.5q84 0 162.5 -32t145.5 -95.5t107.5 -173.5t40.5 -252q0 -115 -27 -209.5t-71.5 -157t-104 -105t-123 -61.5t-130.5 -19q-99 0 -175 37.5t-102 84.5v-491h-379zM463 532q0 -116 58.5 -177.5t135.5 -61.5q79 0 139 61.5
t60 177.5t-60 178t-139 62q-77 0 -135.5 -62t-58.5 -178z" />
    <glyph glyph-name="uni0441" unicode="&#x441;" horiz-adv-x="1167" 
d="M598 -20q-80 0 -155 17.5t-147.5 58.5t-126.5 102.5t-87 157t-33 214.5t33 215t87 158t126.5 104t147.5 60t155 18q51 0 99.5 -7t105 -24.5t104.5 -51.5t90.5 -82.5t71 -124t37.5 -170.5h-342q-18 76 -56 110.5t-112 34.5q-54 0 -92.5 -20t-59 -55.5t-29.5 -75.5t-9 -89
q0 -103 43.5 -169t146.5 -66q75 0 112 36t56 111h342q-8 -112 -46.5 -197t-90 -134t-120 -80t-128.5 -41t-123 -10z" />
    <glyph glyph-name="uni0442" unicode="&#x442;" horiz-adv-x="1153" 
d="M387 0v772h-326v293h1031v-293h-326v-772h-379z" />
    <glyph glyph-name="uni0443" unicode="&#x443;" horiz-adv-x="1239" 
d="M135 -102q49 -6 90.5 -5.5t68 3.5t50.5 13.5t34.5 15.5t23 20t13 15.5t7.5 12.5q17 40 15 68t-23 82l-385 942h387l200 -578l207 578h387l-422 -1026q-60 -147 -116.5 -237t-132.5 -147t-171.5 -73t-232.5 -2v318z" />
    <glyph glyph-name="uni0444" unicode="&#x444;" horiz-adv-x="1290" 
d="M469 -389v393q-66 17 -125 44t-114 71t-94.5 100.5t-63 135t-23.5 171.5q0 94 23.5 174t63 137.5t94.5 102.5t114 72.5t125 44.5v377h356v-377q84 -22 155 -62.5t131.5 -103t95 -156.5t34.5 -209q0 -92 -23 -171t-62 -136t-93.5 -101.5t-113 -72t-124.5 -43.5v-391h-356z
M356 526q0 -170 113 -231v471q-113 -61 -113 -240zM825 297q111 62 111 229q0 176 -111 238v-467z" />
    <glyph glyph-name="uni0445" unicode="&#x445;" horiz-adv-x="1255" 
d="M49 0l363 539l-334 526h405l144 -258l145 258h406l-334 -526l362 -539h-405l-174 268l-174 -268h-404z" />
    <glyph glyph-name="uni0446" unicode="&#x446;" horiz-adv-x="1366" 
d="M100 0v1065h379v-772h246v772h379v-772h162v-580h-361v287h-805z" />
    <glyph glyph-name="uni0447" unicode="&#x447;" horiz-adv-x="1228" 
d="M446 272q-83 0 -152.5 23.5t-125.5 72.5t-87.5 132t-31.5 194v371h379v-324q0 -78 46 -117.5t122 -39.5q73 0 113.5 41.5t40.5 115.5v324h378v-1065h-378v459q-13 -76 -91.5 -131.5t-212.5 -55.5z" />
    <glyph glyph-name="uni0448" unicode="&#x448;" horiz-adv-x="1681" 
d="M100 0v1065h379v-772h185v772h356v-772h182v772h379v-1065h-1481z" />
    <glyph glyph-name="uni0449" unicode="&#x449;" horiz-adv-x="1843" 
d="M1382 -287v287h-1282v1065h379v-772h185v772h356v-772h182v772h379v-772h164v-580h-363z" />
    <glyph glyph-name="uni044A" unicode="&#x44a;" horiz-adv-x="1341" 
d="M29 772v293h563v-336h264q204 0 320 -100t116 -264q0 -170 -115 -267.5t-321 -97.5h-643v772h-184zM592 293h252q38 0 62 19t24 53t-23.5 51.5t-62.5 17.5h-252v-141z" />
    <glyph glyph-name="uni044B" unicode="&#x44b;" horiz-adv-x="1781" 
d="M100 0v1065h379v-336h264q204 0 320.5 -100t116.5 -264q0 -170 -115.5 -267.5t-321.5 -97.5h-643zM479 293h252q38 0 62 19t24 53t-23.5 51.5t-62.5 17.5h-252v-141zM1305 0v1065h378v-1065h-378z" />
    <glyph glyph-name="uni044C" unicode="&#x44c;" horiz-adv-x="1228" 
d="M100 0v1065h379v-336h264q204 0 320.5 -100t116.5 -264q0 -170 -115.5 -267.5t-321.5 -97.5h-643zM479 293h252q38 0 62 19t24 53t-23.5 51.5t-62.5 17.5h-252v-141z" />
    <glyph glyph-name="uni044D" unicode="&#x44d;" horiz-adv-x="1155" 
d="M489 418v225h246q-41 127 -176 127q-74 0 -112 -34.5t-56 -110.5h-342q9 95 37.5 170.5t71 124t90.5 82.5t104.5 51.5t105 24.5t99.5 7q80 0 155 -18t147.5 -60t126.5 -104t87 -158t33 -215t-33 -214.5t-87 -157t-126.5 -102.5t-147.5 -58.5t-155 -17.5q-63 0 -123 10
t-128.5 41t-120 80t-90 134t-46.5 197h342q19 -75 56 -111t112 -36q134 0 174 123h-244z" />
    <glyph glyph-name="uni044E" unicode="&#x44e;" horiz-adv-x="1710" 
d="M90 0v1065h379v-385h113q18 84 56.5 152t90 114.5t115.5 78t131 46t139 14.5q84 0 162 -19.5t149 -62.5t123.5 -106t83.5 -157t31 -208t-31 -208t-83.5 -156.5t-124 -105.5t-149 -62.5t-161.5 -19.5q-90 0 -173.5 24t-157 71.5t-127 127.5t-74.5 184h-113v-387h-379z
M922 532q0 -120 50.5 -179.5t141.5 -59.5q92 0 143.5 59.5t51.5 179.5q0 121 -51.5 180.5t-143.5 59.5q-91 0 -141.5 -59.5t-50.5 -180.5z" />
    <glyph glyph-name="uni044F" unicode="&#x44f;" horiz-adv-x="1239" 
d="M74 0l245 360q-125 36 -192.5 126t-67.5 214q0 170 115.5 267.5t321.5 97.5h643v-1065h-379v336h-68l-223 -336h-395zM422 700q0 -34 23.5 -51.5t62.5 -17.5h252v141h-252q-38 0 -62 -19t-24 -53z" />
    <glyph glyph-name="uni0451" unicode="&#x451;" horiz-adv-x="1177" 
d="M602 -20q-81 0 -156 17t-148.5 58t-127.5 103.5t-87.5 160t-33.5 220.5q0 117 30.5 210.5t82 155.5t123.5 103t151 59t168 18q86 0 160 -16.5t142.5 -57t116.5 -102.5t76.5 -160t28.5 -223q0 -48 -6 -86h-712q13 -95 62 -135.5t136 -40.5q49 0 83.5 9.5t52.5 28t26 34.5
t14 39h330q-32 -185 -168.5 -290t-343.5 -105zM104 1335q0 82 60 139.5t141 57.5q80 0 140.5 -57.5t60.5 -139.5q0 -81 -60.5 -137.5t-140.5 -56.5q-81 0 -141 56t-60 138zM412 653h360q-3 26 -11.5 48.5t-26.5 47t-54 38.5t-86 14q-154 0 -182 -148zM657 1335
q0 82 60 139.5t139 57.5q81 0 141 -57.5t60 -139.5t-60 -138t-141 -56q-80 0 -139.5 56t-59.5 138z" />
    <glyph glyph-name="uni0453" unicode="&#x453;" horiz-adv-x="933" 
d="M100 0v1065h807v-293h-428v-772h-379zM295 1188l221 295h324l-222 -295h-323z" />
    <glyph glyph-name="uni0454" unicode="&#x454;" horiz-adv-x="1167" 
d="M598 -20q-80 0 -155 17.5t-147.5 58.5t-126.5 102.5t-87 157t-33 214.5t33 215t87 158t126.5 104t147.5 60t155 18q51 0 99.5 -7t105 -24.5t104.5 -51.5t90.5 -82.5t71 -124t37.5 -170.5h-342q-18 76 -56 110.5t-112 34.5q-135 0 -176 -127h246v-225h-244
q40 -123 174 -123q75 0 112 36t56 111h342q-8 -112 -46.5 -197t-90 -134t-120 -80t-128.5 -41t-123 -10z" />
    <glyph glyph-name="uni0457" unicode="&#x457;" horiz-adv-x="557" 
d="M90 0v1065h379v-1065h-379zM-203 1335q0 82 60 139.5t141 57.5q80 0 140.5 -57.5t60.5 -139.5q0 -81 -60.5 -137.5t-140.5 -56.5q-81 0 -141 56t-60 138zM350 1335q0 82 60 139.5t139 57.5q81 0 141 -57.5t60 -139.5t-60 -138t-141 -56q-80 0 -139.5 56t-59.5 138z" />
    <glyph glyph-name="uni045C" unicode="&#x45c;" horiz-adv-x="1243" 
d="M100 0v1065h379v-322l277 322h424l-414 -451l469 -614h-408l-290 362l-58 -63v-299h-379zM444 1188l222 295h323l-221 -295h-324z" />
    <glyph glyph-name="uni045E" unicode="&#x45e;" horiz-adv-x="1239" 
d="M135 -102q49 -6 90.5 -5.5t68 3.5t50.5 13.5t34.5 15.5t23 20t13 15.5t7.5 12.5q17 40 15 68t-23 82l-385 942h387l200 -578l207 578h387l-422 -1026q-60 -147 -116.5 -237t-132.5 -147t-171.5 -73t-232.5 -2v318zM258 1483h246q3 -75 29.5 -103t82.5 -28q57 0 83.5 28
t29.5 103h246q0 -167 -95 -256.5t-264 -89.5t-263.5 89.5t-94.5 256.5z" />
    <glyph glyph-name="uni0490" unicode="&#x490;" horiz-adv-x="1107" 
d="M498 1094v-1094h-398v1434h574v204h395v-544h-571z" />
    <glyph glyph-name="uni0491" unicode="&#x491;" horiz-adv-x="933" 
d="M479 772v-772h-379v1065h484v135h323v-428h-428z" />
    <glyph glyph-name="uni1E0C" unicode="&#x1e0c;" horiz-adv-x="1435" 
d="M100 0v1434h590q330 0 504 -185t174 -532t-174 -532t-504 -185h-590zM487 336h162q95 0 156.5 20.5t98.5 68t52 117t15 175.5q0 212 -68.5 296.5t-253.5 84.5h-162v-762zM498 -256q0 90 64 152.5t155 62.5t156 -62.5t65 -152.5t-65 -152.5t-156 -62.5t-155 62.5
t-64 152.5z" />
    <glyph glyph-name="uni1E0D" unicode="&#x1e0d;" horiz-adv-x="1261" 
d="M506 -20q-68 0 -132 19t-123.5 61.5t-104 105t-71 157t-26.5 209.5t26.5 209t71 157t104 106t123.5 62t132 19q99 0 174.5 -37.5t101.5 -84.5v471h379v-1434h-379v102q-26 -47 -101.5 -84.5t-174.5 -37.5zM401 -256q0 90 64.5 152.5t155.5 62.5t156 -62.5t65 -152.5
t-65 -152.5t-156 -62.5t-155.5 62.5t-64.5 152.5zM406 532q0 -116 59.5 -177.5t138.5 -61.5q77 0 136 61.5t59 177.5t-59 178t-136 62q-79 0 -138.5 -62t-59.5 -178z" />
    <glyph glyph-name="uni1E20" unicode="&#x1e20;" horiz-adv-x="1478" 
d="M752 -20q-168 0 -298 52t-214 148.5t-127 230t-43 298.5q0 346 181.5 544.5t491.5 198.5q95 0 182.5 -19t167 -60t140.5 -101t101 -147.5t50 -194.5h-385q-40 188 -256 188q-68 0 -119 -23t-81 -60t-48 -91t-24 -106.5t-6 -116.5q0 -408 285 -408q42 0 81 8t82 27
t69.5 61t27.5 101h-226v311h615v-178q0 -324 -170.5 -493.5t-476.5 -169.5zM385 1636v215h713v-215h-713z" />
    <glyph glyph-name="uni1E21" unicode="&#x1e21;" horiz-adv-x="1245" 
d="M504 49q-66 0 -128.5 16t-122.5 55t-104.5 96.5t-72 146.5t-27.5 200t27.5 201.5t72 149t104.5 98t122.5 56.5t128.5 17q50 0 91.5 -10t68 -23.5t47.5 -33t31.5 -34t17.5 -30.5h6v111h379v-1012q0 -87 -21 -158.5t-54.5 -120.5t-82.5 -86.5t-99 -59t-109 -34.5
t-107.5 -17.5t-100.5 -4.5q-43 0 -82.5 2.5t-93 12.5t-97 26t-88.5 45.5t-75 69t-48.5 99t-16.5 132.5h344q7 -104 164 -104q98 0 143 48.5t45 149.5v117h-6q-10 -19 -25 -36t-44 -38t-77.5 -34t-109.5 -13zM242 1268v215h712v-215h-712zM406 563q0 -106 52 -160.5
t136 -54.5q80 0 133 55t53 160q0 104 -53 158.5t-133 54.5q-84 0 -136 -54.5t-52 -158.5z" />
    <glyph glyph-name="uni1E24" unicode="&#x1e24;" horiz-adv-x="1423" 
d="M936 0v563h-449v-563h-387v1434h387v-549h449v549h387v-1434h-387zM492 -256q0 90 64 152.5t155 62.5t156 -62.5t65 -152.5t-65 -152.5t-156 -62.5t-155 62.5t-64 152.5z" />
    <glyph glyph-name="uni1E25" unicode="&#x1e25;" 
d="M100 0v1434h379v-598h17q8 45 31.5 87.5t61.5 79.5t98 59.5t132 22.5q158 0 258.5 -106t100.5 -293v-686h-379v592q0 182 -150 182q-74 0 -122 -43t-48 -139v-592h-379zM385 -256q0 90 64 152.5t155 62.5t156 -62.5t65 -152.5t-65 -152.5t-156 -62.5t-155 62.5t-64 152.5
z" />
    <glyph glyph-name="uni1E62" unicode="&#x1e62;" horiz-adv-x="1380" 
d="M696 -20q-291 0 -458.5 132t-167.5 388h403q11 -201 225 -201q92 0 146.5 34.5t54.5 100.5q0 48 -34 75t-117 44l-207 41q-70 14 -127 32t-116 51t-99 76.5t-65 110t-25 148.5q0 110 44 195t123 138t184.5 80t233.5 27q131 0 236.5 -28.5t183.5 -85.5t120 -148.5
t42 -212.5h-404q5 84 -49.5 120t-138.5 36q-88 0 -128 -36t-40 -85q0 -35 25.5 -65t89.5 -44l184 -37q141 -28 238.5 -69t153.5 -96.5t80 -119t24 -145.5q0 -97 -33 -175t-89.5 -130t-135.5 -86.5t-167.5 -49.5t-189.5 -15zM442 -256q0 90 64.5 152.5t155.5 62.5t156 -62.5
t65 -152.5t-65 -152.5t-156 -62.5t-155.5 62.5t-64.5 152.5z" />
    <glyph glyph-name="uni1E63" unicode="&#x1e63;" horiz-adv-x="1054" 
d="M508 -20q-228 0 -350 98t-119 276h330q3 -22 8.5 -36.5t19.5 -33.5t45.5 -28.5t77.5 -9.5q121 0 121 63q0 54 -90 70l-184 37q-89 17 -152 51.5t-95.5 80t-46.5 92t-14 99.5q0 164 126.5 255t336.5 91q229 0 349 -104t118 -281h-309q-12 119 -158 119q-119 0 -119 -67
q0 -58 99 -76l205 -37q64 -11 117.5 -34.5t97.5 -60t69 -92t25 -124.5q0 -109 -66 -188.5t-179.5 -119.5t-262.5 -40zM297 -256q0 90 64 152.5t155 62.5t156 -62.5t65 -152.5t-65 -152.5t-156 -62.5t-155 62.5t-64 152.5z" />
    <glyph glyph-name="uni1E6C" unicode="&#x1e6c;" horiz-adv-x="1255" 
d="M434 0v1092h-395v342h1178v-342h-396v-1092h-387zM324 -256q0 90 64 152.5t155 62.5t156 -62.5t65 -152.5t-65 -152.5t-156 -62.5t-155 62.5t-64 152.5z" />
    <glyph glyph-name="uni1E6D" unicode="&#x1e6d;" horiz-adv-x="845" 
d="M616 -14q-191 0 -296 91.5t-105 282.5v414h-186v291h186v281h379v-281h209v-291h-209v-362q0 -58 24.5 -91.5t98.5 -33.5q39 0 90 4v-281q-79 -24 -191 -24zM358 -256q0 90 64.5 152.5t155.5 62.5t156 -62.5t65 -152.5t-65 -152.5t-156 -62.5t-155.5 62.5t-64.5 152.5z
" />
    <glyph glyph-name="Wgrave" unicode="&#x1e80;" horiz-adv-x="2129" 
d="M406 0l-367 1434h399l185 -885h16l229 885h396l229 -885h14l187 885h397l-365 -1434h-401l-260 946l-260 -946h-399zM717 1851h323l222 -295h-324z" />
    <glyph glyph-name="wgrave" unicode="&#x1e81;" horiz-adv-x="1736" 
d="M301 0l-272 1065h356l145 -703h9l168 703h323l168 -703h8l146 703h356l-272 -1065h-422l-146 561l-143 -561h-424zM516 1483h324l221 -295h-324z" />
    <glyph glyph-name="Wacute" unicode="&#x1e82;" horiz-adv-x="2129" 
d="M406 0l-367 1434h399l185 -885h16l229 885h396l229 -885h14l187 885h397l-365 -1434h-401l-260 946l-260 -946h-399zM889 1556l221 295h324l-222 -295h-323z" />
    <glyph glyph-name="wacute" unicode="&#x1e83;" horiz-adv-x="1736" 
d="M301 0l-272 1065h356l145 -703h9l168 703h323l168 -703h8l146 703h356l-272 -1065h-422l-146 561l-143 -561h-424zM690 1188l221 295h324l-221 -295h-324z" />
    <glyph glyph-name="Wdieresis" unicode="&#x1e84;" horiz-adv-x="2129" 
d="M406 0l-367 1434h399l185 -885h16l229 885h396l229 -885h14l187 885h397l-365 -1434h-401l-260 946l-260 -946h-399zM584 1704q0 82 59.5 139.5t140.5 57.5q80 0 140.5 -57.5t60.5 -139.5t-60.5 -138.5t-140.5 -56.5q-81 0 -140.5 56.5t-59.5 138.5zM1137 1704
q0 82 59.5 139.5t138.5 57.5q81 0 141 -57.5t60 -139.5t-60 -138.5t-141 -56.5q-80 0 -139 56.5t-59 138.5z" />
    <glyph glyph-name="wdieresis" unicode="&#x1e85;" horiz-adv-x="1736" 
d="M301 0l-272 1065h356l145 -703h9l168 703h323l168 -703h8l146 703h356l-272 -1065h-422l-146 561l-143 -561h-424zM385 1335q0 82 60 139.5t141 57.5q80 0 140 -57.5t60 -139.5t-60 -138t-140 -56q-81 0 -141 56t-60 138zM938 1335q0 82 60 139.5t139 57.5
q81 0 140.5 -57.5t59.5 -139.5t-59.5 -138t-140.5 -56q-80 0 -139.5 56t-59.5 138z" />
    <glyph glyph-name="uni1E92" unicode="&#x1e92;" horiz-adv-x="1286" 
d="M82 0v336l684 762h-678v336h1108l2 -336l-690 -762h696v-336h-1122zM449 -256q0 90 64 152.5t155 62.5t156 -62.5t65 -152.5t-65 -152.5t-156 -62.5t-155 62.5t-64 152.5z" />
    <glyph glyph-name="uni1E93" unicode="&#x1e93;" horiz-adv-x="1058" 
d="M82 0v315l442 435h-422v315h875v-315l-442 -435h442v-315h-895zM311 -256q0 90 64 152.5t155 62.5t156.5 -62.5t65.5 -152.5t-65.5 -152.5t-156.5 -62.5t-155 62.5t-64 152.5z" />
    <glyph glyph-name="uni1E9E" unicode="&#x1e9e;" horiz-adv-x="1574" 
d="M1004 -20q-449 0 -449 471h354q0 -136 92 -136q86 0 86 134q0 79 -48 120t-175 41h-299l283 506h-195q-82 0 -118.5 -37.5t-36.5 -115.5v-963h-398v1010q0 227 126.5 336.5t381.5 109.5h791l-324 -536q91 -13 166 -46t135.5 -88.5t94.5 -141.5t34 -195
q0 -209 -126.5 -339t-374.5 -130z" />
    <glyph glyph-name="uni1EA0" unicode="&#x1ea0;" horiz-adv-x="1564" 
d="M29 0l501 1434h504l502 -1434h-408l-69 215h-553l-70 -215h-407zM565 -256q0 90 64 152.5t155 62.5t156.5 -62.5t65.5 -152.5t-65.5 -152.5t-156.5 -62.5t-155 62.5t-64 152.5zM596 500h373l-176 544h-21z" />
    <glyph glyph-name="uni1EA1" unicode="&#x1ea1;" horiz-adv-x="1167" 
d="M391 -20q-64 0 -122 16.5t-109 51.5t-81 97.5t-30 145.5q0 53 13.5 97t33 74t53 54t62.5 38t73 26t73 17.5t74 12.5q9 1 13 2l138 25q69 11 92 27.5t24 64.5q-2 88 -108 88q-133 0 -133 -108v-15l-355 -4v58q0 163 117.5 250t378.5 87q249 0 359 -85.5t110 -256.5v-743
h-360v182h-15q-5 -20 -15 -41t-33.5 -51.5t-55 -53.5t-83 -39.5t-114.5 -16.5zM371 -256q0 90 64 152.5t155 62.5t156 -62.5t65 -152.5t-65 -152.5t-156 -62.5t-155 62.5t-64 152.5zM428 324q0 -78 98 -78q67 0 119.5 36.5t52.5 92.5v82q-10 -10 -28.5 -16.5t-40.5 -10.5
t-23 -4l-108 -25q-35 -9 -52.5 -30t-17.5 -47z" />
    <glyph glyph-name="uni1EA2" unicode="&#x1ea2;" horiz-adv-x="1564" 
d="M29 0l501 1434h504l502 -1434h-408l-69 215h-553l-70 -215h-407zM567 1735q0 64 20 110.5t54.5 71t72 36t79.5 11.5q98 0 166.5 -55t68.5 -162q0 -90 -51 -143t-135 -66l-82 148q37 1 50 13.5t13 33.5q0 18 -10 27t-25 9q-31 0 -36 -34h-185zM596 500h373l-176 544h-21z
" />
    <glyph glyph-name="uni1EA3" unicode="&#x1ea3;" horiz-adv-x="1167" 
d="M391 -20q-64 0 -122 16.5t-109 51.5t-81 97.5t-30 145.5q0 53 13.5 97t33 74t53 54t62.5 38t73 26t73 17.5t74 12.5q9 1 13 2l138 25q69 11 92 27.5t24 64.5q-2 88 -108 88q-133 0 -133 -108v-15l-355 -4v58q0 163 117.5 250t378.5 87q249 0 359 -85.5t110 -256.5v-743
h-360v182h-15q-5 -20 -15 -41t-33.5 -51.5t-55 -53.5t-83 -39.5t-114.5 -16.5zM385 1366q0 64 20 110.5t54 71t71.5 36t79.5 11.5q98 0 167 -55t69 -162q0 -90 -51.5 -143t-135.5 -66l-81 148q37 1 50 13.5t13 33.5q0 18 -10 27.5t-25 9.5q-32 0 -37 -35h-184zM428 324
q0 -78 98 -78q67 0 119.5 36.5t52.5 92.5v82q-10 -10 -28.5 -16.5t-40.5 -10.5t-23 -4l-108 -25q-35 -9 -52.5 -30t-17.5 -47z" />
    <glyph glyph-name="uni1EA4" unicode="&#x1ea4;" horiz-adv-x="1564" 
d="M29 0l501 1434h504l502 -1434h-408l-69 215h-553l-70 -215h-407zM330 1550l192 301h537l192 -301h-336l-124 205l-125 -205h-336zM596 500h373l-176 544h-21zM1167 1761l222 295h323l-221 -295h-324z" />
    <glyph glyph-name="uni1EA5" unicode="&#x1ea5;" horiz-adv-x="1167" 
d="M391 -20q-64 0 -122 16.5t-109 51.5t-81 97.5t-30 145.5q0 53 13.5 97t33 74t53 54t62.5 38t73 26t73 17.5t74 12.5q9 1 13 2l138 25q69 11 92 27.5t24 64.5q-2 88 -108 88q-133 0 -133 -108v-15l-355 -4v58q0 163 117.5 250t378.5 87q249 0 359 -85.5t110 -256.5v-743
h-360v182h-15q-5 -20 -15 -41t-33.5 -51.5t-55 -53.5t-83 -39.5t-114.5 -16.5zM145 1182l193 301h536l193 -301h-336l-125 204l-125 -204h-336zM428 324q0 -78 98 -78q67 0 119.5 36.5t52.5 92.5v82q-10 -10 -28.5 -16.5t-40.5 -10.5t-23 -4l-108 -25q-35 -9 -52.5 -30
t-17.5 -47zM983 1393l221 295h324l-221 -295h-324z" />
    <glyph glyph-name="uni1EA6" unicode="&#x1ea6;" horiz-adv-x="1564" 
d="M29 0l501 1434h504l502 -1434h-408l-69 215h-553l-70 -215h-407zM330 1550l192 301h537l192 -301h-336l-124 205l-125 -205h-336zM596 500h373l-176 544h-21zM1042 2058h324l180 -295h-323z" />
    <glyph glyph-name="uni1EA7" unicode="&#x1ea7;" horiz-adv-x="1167" 
d="M391 -20q-64 0 -122 16.5t-109 51.5t-81 97.5t-30 145.5q0 53 13.5 97t33 74t53 54t62.5 38t73 26t73 17.5t74 12.5q9 1 13 2l138 25q69 11 92 27.5t24 64.5q-2 88 -108 88q-133 0 -133 -108v-15l-355 -4v58q0 163 117.5 250t378.5 87q249 0 359 -85.5t110 -256.5v-743
h-360v182h-15q-5 -20 -15 -41t-33.5 -51.5t-55 -53.5t-83 -39.5t-114.5 -16.5zM145 1182l193 301h536l193 -301h-336l-125 204l-125 -204h-336zM428 324q0 -78 98 -78q67 0 119.5 36.5t52.5 92.5v82q-10 -10 -28.5 -16.5t-40.5 -10.5t-23 -4l-108 -25q-35 -9 -52.5 -30
t-17.5 -47zM858 1690h324l180 -295h-324z" />
    <glyph glyph-name="uni1EA8" unicode="&#x1ea8;" horiz-adv-x="1564" 
d="M29 0l501 1434h504l502 -1434h-408l-69 215h-553l-70 -215h-407zM330 1550l192 301h537l192 -301h-336l-124 205l-125 -205h-336zM596 500h373l-176 544h-21zM952 1970q0 64 20 110.5t54.5 71.5t72 36.5t79.5 11.5q98 0 166.5 -55.5t68.5 -162.5q0 -90 -51 -142.5
t-135 -65.5l-82 147q37 1 50 13.5t13 33.5q0 18 -10 27.5t-24 9.5q-32 0 -37 -35h-185z" />
    <glyph glyph-name="uni1EA9" unicode="&#x1ea9;" horiz-adv-x="1167" 
d="M391 -20q-64 0 -122 16.5t-109 51.5t-81 97.5t-30 145.5q0 53 13.5 97t33 74t53 54t62.5 38t73 26t73 17.5t74 12.5q9 1 13 2l138 25q69 11 92 27.5t24 64.5q-2 88 -108 88q-133 0 -133 -108v-15l-355 -4v58q0 163 117.5 250t378.5 87q249 0 359 -85.5t110 -256.5v-743
h-360v182h-15q-5 -20 -15 -41t-33.5 -51.5t-55 -53.5t-83 -39.5t-114.5 -16.5zM145 1182l193 301h536l193 -301h-336l-125 204l-125 -204h-336zM428 324q0 -78 98 -78q67 0 119.5 36.5t52.5 92.5v82q-10 -10 -28.5 -16.5t-40.5 -10.5t-23 -4l-108 -25q-35 -9 -52.5 -30
t-17.5 -47zM768 1602q0 64 20 110.5t54 71t71.5 36t79.5 11.5q98 0 167 -55t69 -162q0 -90 -51.5 -143t-135.5 -66l-81 147q37 1 50 13.5t13 33.5q0 18 -10 27.5t-25 9.5q-32 0 -37 -34h-184z" />
    <glyph glyph-name="uni1EAA" unicode="&#x1eaa;" horiz-adv-x="1564" 
d="M29 0l501 1434h504l502 -1434h-408l-69 215h-553l-70 -215h-407zM330 1550l192 301h537l192 -301h-336l-124 205l-125 -205h-336zM410 1960q0 123 55.5 192.5t165.5 69.5q55 0 100 -15.5t68.5 -33.5t47.5 -33.5t42 -15.5q24 0 31 2q24 10 26 37h217q0 -123 -56 -191.5
t-167 -68.5q-55 0 -100 15.5t-68 33.5t-46.5 33.5t-41.5 15.5q-24 0 -32 -3q-23 -11 -25 -38h-217zM596 500h373l-176 544h-21z" />
    <glyph glyph-name="uni1EAB" unicode="&#x1eab;" horiz-adv-x="1167" 
d="M391 -20q-64 0 -122 16.5t-109 51.5t-81 97.5t-30 145.5q0 53 13.5 97t33 74t53 54t62.5 38t73 26t73 17.5t74 12.5q9 1 13 2l138 25q69 11 92 27.5t24 64.5q-2 88 -108 88q-133 0 -133 -108v-15l-355 -4v58q0 163 117.5 250t378.5 87q249 0 359 -85.5t110 -256.5v-743
h-360v182h-15q-5 -20 -15 -41t-33.5 -51.5t-55 -53.5t-83 -39.5t-114.5 -16.5zM145 1182l193 301h536l193 -301h-336l-125 204l-125 -204h-336zM225 1591q0 123 55.5 192.5t165.5 69.5q55 0 100.5 -15.5t69 -33.5t47.5 -33.5t42 -15.5q24 0 31 2q25 9 26 37h217
q0 -123 -56 -191.5t-167 -68.5q-55 0 -100 15.5t-68 33.5t-46.5 33.5t-41.5 15.5q-24 0 -32 -3q-24 -10 -26 -38h-217zM428 324q0 -78 98 -78q67 0 119.5 36.5t52.5 92.5v82q-10 -10 -28.5 -16.5t-40.5 -10.5t-23 -4l-108 -25q-35 -9 -52.5 -30t-17.5 -47z" />
    <glyph glyph-name="uni1EAC" unicode="&#x1eac;" horiz-adv-x="1564" 
d="M29 0l501 1434h504l502 -1434h-408l-69 215h-553l-70 -215h-407zM330 1550l192 301h537l192 -301h-336l-124 205l-125 -205h-336zM565 -256q0 90 64 152.5t155 62.5t156.5 -62.5t65.5 -152.5t-65.5 -152.5t-156.5 -62.5t-155 62.5t-64 152.5zM596 500h373l-176 544h-21z
" />
    <glyph glyph-name="uni1EAD" unicode="&#x1ead;" horiz-adv-x="1167" 
d="M391 -20q-64 0 -122 16.5t-109 51.5t-81 97.5t-30 145.5q0 53 13.5 97t33 74t53 54t62.5 38t73 26t73 17.5t74 12.5q9 1 13 2l138 25q69 11 92 27.5t24 64.5q-2 88 -108 88q-133 0 -133 -108v-15l-355 -4v58q0 163 117.5 250t378.5 87q249 0 359 -85.5t110 -256.5v-743
h-360v182h-15q-5 -20 -15 -41t-33.5 -51.5t-55 -53.5t-83 -39.5t-114.5 -16.5zM145 1182l193 301h536l193 -301h-336l-125 204l-125 -204h-336zM371 -256q0 90 64 152.5t155 62.5t156 -62.5t65 -152.5t-65 -152.5t-156 -62.5t-155 62.5t-64 152.5zM428 324q0 -78 98 -78
q67 0 119.5 36.5t52.5 92.5v82q-10 -10 -28.5 -16.5t-40.5 -10.5t-23 -4l-108 -25q-35 -9 -52.5 -30t-17.5 -47z" />
    <glyph glyph-name="uni1EAE" unicode="&#x1eae;" horiz-adv-x="1564" 
d="M29 0l501 1434h504l502 -1434h-408l-69 215h-553l-70 -215h-407zM426 1851h246q3 -75 29.5 -103t82.5 -28q57 0 83.5 28t29.5 103h246q0 -167 -95 -256.5t-264 -89.5t-263.5 89.5t-94.5 256.5zM592 1913l221 295h324l-222 -295h-323zM596 500h373l-176 544h-21z" />
    <glyph glyph-name="uni1EAF" unicode="&#x1eaf;" horiz-adv-x="1167" 
d="M391 -20q-64 0 -122 16.5t-109 51.5t-81 97.5t-30 145.5q0 53 13.5 97t33 74t53 54t62.5 38t73 26t73 17.5t74 12.5q9 1 13 2l138 25q69 11 92 27.5t24 64.5q-2 88 -108 88q-133 0 -133 -108v-15l-355 -4v58q0 163 117.5 250t378.5 87q249 0 359 -85.5t110 -256.5v-743
h-360v182h-15q-5 -20 -15 -41t-33.5 -51.5t-55 -53.5t-83 -39.5t-114.5 -16.5zM244 1483h245q3 -74 30 -102.5t83 -28.5q57 0 83.5 28t29.5 103h246q0 -167 -95 -256.5t-264 -89.5t-263.5 89.5t-94.5 256.5zM410 1544l221 295h323l-221 -295h-323zM428 324q0 -78 98 -78
q67 0 119.5 36.5t52.5 92.5v82q-10 -10 -28.5 -16.5t-40.5 -10.5t-23 -4l-108 -25q-35 -9 -52.5 -30t-17.5 -47z" />
    <glyph glyph-name="uni1EB0" unicode="&#x1eb0;" horiz-adv-x="1564" 
d="M29 0l501 1434h504l502 -1434h-408l-69 215h-553l-70 -215h-407zM416 2208h323l222 -295h-324zM426 1851h246q3 -75 29.5 -103t82.5 -28q57 0 83.5 28t29.5 103h246q0 -167 -95 -256.5t-264 -89.5t-263.5 89.5t-94.5 256.5zM596 500h373l-176 544h-21z" />
    <glyph glyph-name="uni1EB1" unicode="&#x1eb1;" horiz-adv-x="1167" 
d="M391 -20q-64 0 -122 16.5t-109 51.5t-81 97.5t-30 145.5q0 53 13.5 97t33 74t53 54t62.5 38t73 26t73 17.5t74 12.5q9 1 13 2l138 25q69 11 92 27.5t24 64.5q-2 88 -108 88q-133 0 -133 -108v-15l-355 -4v58q0 163 117.5 250t378.5 87q249 0 359 -85.5t110 -256.5v-743
h-360v182h-15q-5 -20 -15 -41t-33.5 -51.5t-55 -53.5t-83 -39.5t-114.5 -16.5zM233 1839h324l221 -295h-323zM244 1483h245q3 -74 30 -102.5t83 -28.5q57 0 83.5 28t29.5 103h246q0 -167 -95 -256.5t-264 -89.5t-263.5 89.5t-94.5 256.5zM428 324q0 -78 98 -78
q67 0 119.5 36.5t52.5 92.5v82q-10 -10 -28.5 -16.5t-40.5 -10.5t-23 -4l-108 -25q-35 -9 -52.5 -30t-17.5 -47z" />
    <glyph glyph-name="uni1EB2" unicode="&#x1eb2;" horiz-adv-x="1564" 
d="M29 0l501 1434h504l502 -1434h-408l-69 215h-553l-70 -215h-407zM426 1851h246q3 -75 29.5 -103t82.5 -28q57 0 83.5 28t29.5 103h246q0 -167 -95 -256.5t-264 -89.5t-263.5 89.5t-94.5 256.5zM467 2001q0 64 20 110.5t54 71t71.5 36t79.5 11.5q98 0 167 -55t69 -162
q0 -90 -51.5 -143t-135.5 -66l-82 148q64 2 64 47q0 18 -10 27.5t-25 9.5q-32 0 -37 -35h-184zM596 500h373l-176 544h-21z" />
    <glyph glyph-name="uni1EB3" unicode="&#x1eb3;" horiz-adv-x="1167" 
d="M391 -20q-64 0 -122 16.5t-109 51.5t-81 97.5t-30 145.5q0 53 13.5 97t33 74t53 54t62.5 38t73 26t73 17.5t74 12.5q9 1 13 2l138 25q69 11 92 27.5t24 64.5q-2 88 -108 88q-133 0 -133 -108v-15l-355 -4v58q0 163 117.5 250t378.5 87q249 0 359 -85.5t110 -256.5v-743
h-360v182h-15q-5 -20 -15 -41t-33.5 -51.5t-55 -53.5t-83 -39.5t-114.5 -16.5zM244 1483h245q3 -74 30 -102.5t83 -28.5q57 0 83.5 28t29.5 103h246q0 -167 -95 -256.5t-264 -89.5t-263.5 89.5t-94.5 256.5zM285 1632q0 64 20 110.5t54 71.5t71.5 36.5t79.5 11.5
q98 0 166.5 -55t68.5 -162q0 -90 -51 -143t-135 -66l-82 147q64 2 64 47q0 18 -10 27.5t-25 9.5q-32 0 -37 -35h-184zM428 324q0 -78 98 -78q67 0 119.5 36.5t52.5 92.5v82q-10 -10 -28.5 -16.5t-40.5 -10.5t-23 -4l-108 -25q-35 -9 -52.5 -30t-17.5 -47z" />
    <glyph glyph-name="uni1EB4" unicode="&#x1eb4;" horiz-adv-x="1564" 
d="M29 0l501 1434h504l502 -1434h-408l-69 215h-553l-70 -215h-407zM408 1970q0 123 55.5 192.5t165.5 69.5q55 0 100 -15.5t68.5 -33.5t47.5 -33.5t42 -15.5q24 0 31 2q24 10 26 37h217q0 -123 -56 -191.5t-167 -68.5q-55 0 -100 15.5t-68 33.5t-46.5 33.5t-41.5 15.5
q-24 0 -32 -3q-23 -11 -25 -38h-217zM426 1851h246q3 -75 29.5 -103t82.5 -28q57 0 83.5 28t29.5 103h246q0 -167 -95 -256.5t-264 -89.5t-263.5 89.5t-94.5 256.5zM596 500h373l-176 544h-21z" />
    <glyph glyph-name="uni1EB5" unicode="&#x1eb5;" horiz-adv-x="1167" 
d="M391 -20q-64 0 -122 16.5t-109 51.5t-81 97.5t-30 145.5q0 53 13.5 97t33 74t53 54t62.5 38t73 26t73 17.5t74 12.5q9 1 13 2l138 25q69 11 92 27.5t24 64.5q-2 88 -108 88q-133 0 -133 -108v-15l-355 -4v58q0 163 117.5 250t378.5 87q249 0 359 -85.5t110 -256.5v-743
h-360v182h-15q-5 -20 -15 -41t-33.5 -51.5t-55 -53.5t-83 -39.5t-114.5 -16.5zM225 1602q0 123 55.5 192.5t165.5 69.5q55 0 100.5 -15.5t69 -34t47.5 -34t42 -15.5q24 0 31 2q25 9 26 37h217q0 -123 -56 -191.5t-167 -68.5q-55 0 -100 15.5t-68 33.5t-46.5 33.5t-41.5 15.5
h-23q-33 -5 -35 -38v-2h-217zM244 1483h245q3 -74 30 -102.5t83 -28.5q57 0 83.5 28t29.5 103h246q0 -167 -95 -256.5t-264 -89.5t-263.5 89.5t-94.5 256.5zM428 324q0 -78 98 -78q67 0 119.5 36.5t52.5 92.5v82q-10 -10 -28.5 -16.5t-40.5 -10.5t-23 -4l-108 -25
q-35 -9 -52.5 -30t-17.5 -47z" />
    <glyph glyph-name="uni1EB6" unicode="&#x1eb6;" horiz-adv-x="1564" 
d="M29 0l501 1434h504l502 -1434h-408l-69 215h-553l-70 -215h-407zM426 1851h246q3 -75 29.5 -103t82.5 -28q57 0 83.5 28t29.5 103h246q0 -167 -95 -256.5t-264 -89.5t-263.5 89.5t-94.5 256.5zM565 -256q0 90 64 152.5t155 62.5t156.5 -62.5t65.5 -152.5t-65.5 -152.5
t-156.5 -62.5t-155 62.5t-64 152.5zM596 500h373l-176 544h-21z" />
    <glyph glyph-name="uni1EB7" unicode="&#x1eb7;" horiz-adv-x="1167" 
d="M391 -20q-64 0 -122 16.5t-109 51.5t-81 97.5t-30 145.5q0 53 13.5 97t33 74t53 54t62.5 38t73 26t73 17.5t74 12.5q9 1 13 2l138 25q69 11 92 27.5t24 64.5q-2 88 -108 88q-133 0 -133 -108v-15l-355 -4v58q0 163 117.5 250t378.5 87q249 0 359 -85.5t110 -256.5v-743
h-360v182h-15q-5 -20 -15 -41t-33.5 -51.5t-55 -53.5t-83 -39.5t-114.5 -16.5zM244 1483h245q3 -74 30 -102.5t83 -28.5q57 0 83.5 28t29.5 103h246q0 -167 -95 -256.5t-264 -89.5t-263.5 89.5t-94.5 256.5zM371 -256q0 90 64 152.5t155 62.5t156 -62.5t65 -152.5
t-65 -152.5t-156 -62.5t-155 62.5t-64 152.5zM428 324q0 -78 98 -78q67 0 119.5 36.5t52.5 92.5v82q-10 -10 -28.5 -16.5t-40.5 -10.5t-23 -4l-108 -25q-35 -9 -52.5 -30t-17.5 -47z" />
    <glyph glyph-name="uni1EB8" unicode="&#x1eb8;" horiz-adv-x="1187" 
d="M100 0v1434h1018v-336h-631v-228h570v-301h-570v-233h652v-336h-1039zM428 -256q0 90 64 152.5t155 62.5t156 -62.5t65 -152.5t-65 -152.5t-156 -62.5t-155 62.5t-64 152.5z" />
    <glyph glyph-name="uni1EB9" unicode="&#x1eb9;" horiz-adv-x="1177" 
d="M602 -20q-81 0 -156 17t-148.5 58t-127.5 103.5t-87.5 160t-33.5 220.5q0 117 30.5 210.5t82 155.5t123.5 103t151 59t168 18q86 0 160 -16.5t142.5 -57t116.5 -102.5t76.5 -160t28.5 -223q0 -48 -6 -86h-712q13 -95 62 -135.5t136 -40.5q49 0 83.5 9.5t52.5 28t26 34.5
t14 39h330q-32 -185 -168.5 -290t-343.5 -105zM377 -256q0 90 64 152.5t155 62.5t156 -62.5t65 -152.5t-65 -152.5t-156 -62.5t-155 62.5t-64 152.5zM412 653h360q-3 26 -11.5 48.5t-26.5 47t-54 38.5t-86 14q-154 0 -182 -148z" />
    <glyph glyph-name="uni1EBA" unicode="&#x1eba;" horiz-adv-x="1187" 
d="M100 0v1434h1018v-336h-631v-228h570v-301h-570v-233h652v-336h-1039zM430 1735q0 64 20 110.5t54 71t71.5 36t79.5 11.5q98 0 167 -55t69 -162q0 -90 -51 -143t-135 -66l-82 148q37 1 50 13.5t13 33.5q0 18 -10 27t-25 9q-32 0 -37 -34h-184z" />
    <glyph glyph-name="uni1EBB" unicode="&#x1ebb;" horiz-adv-x="1177" 
d="M602 -20q-81 0 -156 17t-148.5 58t-127.5 103.5t-87.5 160t-33.5 220.5q0 117 30.5 210.5t82 155.5t123.5 103t151 59t168 18q86 0 160 -16.5t142.5 -57t116.5 -102.5t76.5 -160t28.5 -223q0 -48 -6 -86h-712q13 -95 62 -135.5t136 -40.5q49 0 83.5 9.5t52.5 28t26 34.5
t14 39h330q-32 -185 -168.5 -290t-343.5 -105zM369 1366q0 64 20 110.5t54 71t71.5 36t79.5 11.5q98 0 166.5 -55t68.5 -162q0 -90 -51 -143t-135 -66l-82 148q64 2 64 47q0 18 -10 27.5t-25 9.5q-32 0 -37 -35h-184zM412 653h360q-3 26 -11.5 48.5t-26.5 47t-54 38.5
t-86 14q-154 0 -182 -148z" />
    <glyph glyph-name="uni1EBC" unicode="&#x1ebc;" horiz-adv-x="1187" 
d="M100 0v1434h1018v-336h-631v-228h570v-301h-570v-233h652v-336h-1039zM270 1614q0 123 56 192.5t166 69.5q55 0 100 -15.5t68.5 -33.5t47.5 -33.5t42 -15.5q24 0 31 2q25 9 26 37h217q0 -123 -56 -192t-167 -69q-55 0 -100 15.5t-68 34t-46.5 34t-41.5 15.5q-24 0 -32 -3
q-25 -9 -26 -38h-217z" />
    <glyph glyph-name="uni1EBD" unicode="&#x1ebd;" horiz-adv-x="1177" 
d="M602 -20q-81 0 -156 17t-148.5 58t-127.5 103.5t-87.5 160t-33.5 220.5q0 117 30.5 210.5t82 155.5t123.5 103t151 59t168 18q86 0 160 -16.5t142.5 -57t116.5 -102.5t76.5 -160t28.5 -223q0 -48 -6 -86h-712q13 -95 62 -135.5t136 -40.5q49 0 83.5 9.5t52.5 28t26 34.5
t14 39h330q-32 -185 -168.5 -290t-343.5 -105zM209 1245q0 123 55.5 192.5t165.5 69.5q55 0 100 -15.5t68.5 -33.5t47.5 -33.5t42 -15.5q24 0 31 2q25 9 26 37h218q0 -123 -56.5 -191.5t-167.5 -68.5q-55 0 -100 15.5t-68 33.5t-46.5 33.5t-41.5 15.5q-24 0 -32 -3
q-23 -11 -25 -38h-217zM412 653h360q-3 26 -11.5 48.5t-26.5 47t-54 38.5t-86 14q-154 0 -182 -148z" />
    <glyph glyph-name="uni1EBE" unicode="&#x1ebe;" horiz-adv-x="1187" 
d="M100 0v1434h1018v-336h-631v-228h570v-301h-570v-233h652v-336h-1039zM193 1550l192 301h537l192 -301h-336l-125 205l-125 -205h-335zM1030 1761l221 295h324l-221 -295h-324z" />
    <glyph glyph-name="uni1EBF" unicode="&#x1ebf;" horiz-adv-x="1177" 
d="M602 -20q-81 0 -156 17t-148.5 58t-127.5 103.5t-87.5 160t-33.5 220.5q0 117 30.5 210.5t82 155.5t123.5 103t151 59t168 18q86 0 160 -16.5t142.5 -57t116.5 -102.5t76.5 -160t28.5 -223q0 -48 -6 -86h-712q13 -95 62 -135.5t136 -40.5q49 0 83.5 9.5t52.5 28t26 34.5
t14 39h330q-32 -185 -168.5 -290t-343.5 -105zM131 1182l193 301h536l193 -301h-336l-125 204l-125 -204h-336zM412 653h360q-3 26 -11.5 48.5t-26.5 47t-54 38.5t-86 14q-154 0 -182 -148zM969 1393l221 295h323l-221 -295h-323z" />
    <glyph glyph-name="uni1EC0" unicode="&#x1ec0;" horiz-adv-x="1187" 
d="M100 0v1434h1018v-336h-631v-228h570v-301h-570v-233h652v-336h-1039zM193 1550l192 301h537l192 -301h-336l-125 205l-125 -205h-335zM905 2058h324l180 -295h-324z" />
    <glyph glyph-name="uni1EC1" unicode="&#x1ec1;" horiz-adv-x="1177" 
d="M602 -20q-81 0 -156 17t-148.5 58t-127.5 103.5t-87.5 160t-33.5 220.5q0 117 30.5 210.5t82 155.5t123.5 103t151 59t168 18q86 0 160 -16.5t142.5 -57t116.5 -102.5t76.5 -160t28.5 -223q0 -48 -6 -86h-712q13 -95 62 -135.5t136 -40.5q49 0 83.5 9.5t52.5 28t26 34.5
t14 39h330q-32 -185 -168.5 -290t-343.5 -105zM131 1182l193 301h536l193 -301h-336l-125 204l-125 -204h-336zM412 653h360q-3 26 -11.5 48.5t-26.5 47t-54 38.5t-86 14q-154 0 -182 -148zM844 1690h323l181 -295h-324z" />
    <glyph glyph-name="uni1EC2" unicode="&#x1ec2;" horiz-adv-x="1187" 
d="M100 0v1434h1018v-336h-631v-228h570v-301h-570v-233h652v-336h-1039zM193 1550l192 301h537l192 -301h-336l-125 205l-125 -205h-335zM815 1970q0 64 20 110.5t54 71.5t71.5 36.5t79.5 11.5q98 0 167 -55.5t69 -162.5q0 -90 -51 -142.5t-135 -65.5l-82 147q37 1 50 13.5
t13 33.5q0 18 -10 27.5t-25 9.5q-32 0 -37 -35h-184z" />
    <glyph glyph-name="uni1EC3" unicode="&#x1ec3;" horiz-adv-x="1177" 
d="M602 -20q-81 0 -156 17t-148.5 58t-127.5 103.5t-87.5 160t-33.5 220.5q0 117 30.5 210.5t82 155.5t123.5 103t151 59t168 18q86 0 160 -16.5t142.5 -57t116.5 -102.5t76.5 -160t28.5 -223q0 -48 -6 -86h-712q13 -95 62 -135.5t136 -40.5q49 0 83.5 9.5t52.5 28t26 34.5
t14 39h330q-32 -185 -168.5 -290t-343.5 -105zM131 1182l193 301h536l193 -301h-336l-125 204l-125 -204h-336zM412 653h360q-3 26 -11.5 48.5t-26.5 47t-54 38.5t-86 14q-154 0 -182 -148zM754 1602q0 64 20 110.5t54 71t71.5 36t79.5 11.5q98 0 166.5 -55t68.5 -162
q0 -90 -51 -143t-135 -66l-82 147q64 2 64 47q0 18 -10 27.5t-25 9.5q-32 0 -37 -34h-184z" />
    <glyph glyph-name="uni1EC4" unicode="&#x1ec4;" horiz-adv-x="1187" 
d="M100 0v1434h1018v-336h-631v-228h570v-301h-570v-233h652v-336h-1039zM193 1550l192 301h537l192 -301h-336l-125 205l-125 -205h-335zM272 1960q0 123 56 192.5t166 69.5q55 0 100 -15.5t68.5 -33.5t47.5 -33.5t42 -15.5q24 0 31 2q24 10 26 37h217q0 -123 -56 -191.5
t-167 -68.5q-55 0 -100 15.5t-68 33.5t-46.5 33.5t-41.5 15.5q-24 0 -32 -3q-25 -9 -26 -38h-217z" />
    <glyph glyph-name="uni1EC5" unicode="&#x1ec5;" horiz-adv-x="1177" 
d="M602 -20q-81 0 -156 17t-148.5 58t-127.5 103.5t-87.5 160t-33.5 220.5q0 117 30.5 210.5t82 155.5t123.5 103t151 59t168 18q86 0 160 -16.5t142.5 -57t116.5 -102.5t76.5 -160t28.5 -223q0 -48 -6 -86h-712q13 -95 62 -135.5t136 -40.5q49 0 83.5 9.5t52.5 28t26 34.5
t14 39h330q-32 -185 -168.5 -290t-343.5 -105zM131 1182l193 301h536l193 -301h-336l-125 204l-125 -204h-336zM211 1591q0 123 55.5 192.5t165.5 69.5q55 0 100 -15.5t68.5 -33.5t47.5 -33.5t42 -15.5q24 0 31 2q25 10 27 37h217q0 -123 -56.5 -191.5t-167.5 -68.5
q-55 0 -100 15.5t-68 33.5t-46.5 33.5t-41.5 15.5q-24 0 -32 -3q-23 -11 -25 -38h-217zM412 653h360q-3 26 -11.5 48.5t-26.5 47t-54 38.5t-86 14q-154 0 -182 -148z" />
    <glyph glyph-name="uni1EC6" unicode="&#x1ec6;" horiz-adv-x="1187" 
d="M100 0v1434h1018v-336h-631v-228h570v-301h-570v-233h652v-336h-1039zM193 1550l192 301h537l192 -301h-336l-125 205l-125 -205h-335zM428 -256q0 90 64 152.5t155 62.5t156 -62.5t65 -152.5t-65 -152.5t-156 -62.5t-155 62.5t-64 152.5z" />
    <glyph glyph-name="uni1EC7" unicode="&#x1ec7;" horiz-adv-x="1177" 
d="M602 -20q-81 0 -156 17t-148.5 58t-127.5 103.5t-87.5 160t-33.5 220.5q0 117 30.5 210.5t82 155.5t123.5 103t151 59t168 18q86 0 160 -16.5t142.5 -57t116.5 -102.5t76.5 -160t28.5 -223q0 -48 -6 -86h-712q13 -95 62 -135.5t136 -40.5q49 0 83.5 9.5t52.5 28t26 34.5
t14 39h330q-32 -185 -168.5 -290t-343.5 -105zM131 1182l193 301h536l193 -301h-336l-125 204l-125 -204h-336zM377 -256q0 90 64 152.5t155 62.5t156 -62.5t65 -152.5t-65 -152.5t-156 -62.5t-155 62.5t-64 152.5zM412 653h360q-3 26 -11.5 48.5t-26.5 47t-54 38.5t-86 14
q-154 0 -182 -148z" />
    <glyph glyph-name="uni1EC8" unicode="&#x1ec8;" horiz-adv-x="587" 
d="M100 0v1434h387v-1434h-387zM74 1735q0 64 20 110.5t54 71t71.5 36t79.5 11.5q98 0 167 -55t69 -162q0 -90 -51.5 -143t-135.5 -66l-82 148q64 2 64 47q0 18 -10 27t-25 9q-32 0 -37 -34h-184z" />
    <glyph glyph-name="uni1EC9" unicode="&#x1ec9;" horiz-adv-x="557" 
d="M90 0v1065h379v-1065h-379zM61 1366q0 64 20 110.5t54.5 71t72 36t79.5 11.5q98 0 166.5 -55t68.5 -162q0 -90 -51 -143t-135 -66l-82 148q37 1 50 13.5t13 33.5q0 18 -10 27.5t-24 9.5q-32 0 -37 -35h-185z" />
    <glyph glyph-name="uni1ECA" unicode="&#x1eca;" horiz-adv-x="587" 
d="M100 0v1434h387v-1434h-387zM72 -256q0 90 64 152.5t155 62.5t156 -62.5t65 -152.5t-65 -152.5t-156 -62.5t-155 62.5t-64 152.5z" />
    <glyph glyph-name="uni1ECB" unicode="&#x1ecb;" horiz-adv-x="579" 
d="M100 0v1065h379v-1065h-379zM90 1339q0 85 59.5 143t139.5 58q81 0 140.5 -58t59.5 -143t-59.5 -141.5t-140.5 -56.5q-80 0 -139.5 57t-59.5 141zM102 -256q0 90 64.5 152.5t155.5 62.5t156 -62.5t65 -152.5t-65 -152.5t-156 -62.5t-155.5 62.5t-64.5 152.5z" />
    <glyph glyph-name="uni1ECC" unicode="&#x1ecc;" horiz-adv-x="1546" 
d="M774 -20q-214 0 -375.5 97.5t-245 263.5t-83.5 376t83.5 376t245 262.5t375.5 96.5q160 0 293 -56t222.5 -154t138.5 -233t49 -292q0 -156 -49 -291.5t-138.5 -234t-222.5 -155t-293 -56.5zM471 717q0 -115 31 -204t100.5 -144.5t171.5 -55.5q149 0 225 113t76 291
q0 180 -75.5 290.5t-225.5 110.5q-151 0 -227 -110.5t-76 -290.5zM553 -256q0 90 64 152.5t155 62.5t156 -62.5t65 -152.5t-65 -152.5t-156 -62.5t-155 62.5t-64 152.5z" />
    <glyph glyph-name="uni1ECD" unicode="&#x1ecd;" horiz-adv-x="1193" 
d="M596 -20q-83 0 -160.5 19t-148.5 62.5t-123.5 106t-83.5 156.5t-31 208t31 208t83.5 157t123.5 106t148.5 62.5t160.5 19.5q84 0 162 -19.5t149 -62.5t123.5 -106t83.5 -157t31 -208t-31 -208t-83.5 -156.5t-124 -105.5t-149 -62.5t-161.5 -19.5zM377 -256q0 90 64 152.5
t155 62.5t156 -62.5t65 -152.5t-65 -152.5t-156 -62.5t-155 62.5t-64 152.5zM403 532q0 -120 51 -179.5t142 -59.5q92 0 143.5 59.5t51.5 179.5q0 121 -51.5 180.5t-143.5 59.5q-91 0 -142 -59.5t-51 -180.5z" />
    <glyph glyph-name="uni1ECE" unicode="&#x1ece;" horiz-adv-x="1546" 
d="M774 -20q-214 0 -375.5 97.5t-245 263.5t-83.5 376t83.5 376t245 262.5t375.5 96.5q160 0 293 -56t222.5 -154t138.5 -233t49 -292q0 -156 -49 -291.5t-138.5 -234t-222.5 -155t-293 -56.5zM471 717q0 -115 31 -204t100.5 -144.5t171.5 -55.5q149 0 225 113t76 291
q0 180 -75.5 290.5t-225.5 110.5q-151 0 -227 -110.5t-76 -290.5zM555 1735q0 64 20 110.5t54 71t71.5 36t79.5 11.5q98 0 167 -55t69 -162q0 -90 -51.5 -143t-135.5 -66l-81 148q37 1 50 13.5t13 33.5q0 18 -10 27t-25 9q-32 0 -37 -34h-184z" />
    <glyph glyph-name="uni1ECF" unicode="&#x1ecf;" horiz-adv-x="1193" 
d="M596 -20q-83 0 -160.5 19t-148.5 62.5t-123.5 106t-83.5 156.5t-31 208t31 208t83.5 157t123.5 106t148.5 62.5t160.5 19.5q84 0 162 -19.5t149 -62.5t123.5 -106t83.5 -157t31 -208t-31 -208t-83.5 -156.5t-124 -105.5t-149 -62.5t-161.5 -19.5zM379 1366q0 64 20 110.5
t54 71t71.5 36t79.5 11.5q98 0 167 -55t69 -162q0 -90 -51.5 -143t-135.5 -66l-82 148q64 2 64 47q0 18 -10 27.5t-25 9.5q-32 0 -37 -35h-184zM403 532q0 -120 51 -179.5t142 -59.5q92 0 143.5 59.5t51.5 179.5q0 121 -51.5 180.5t-143.5 59.5q-91 0 -142 -59.5t-51 -180.5
z" />
    <glyph glyph-name="uni1ED0" unicode="&#x1ed0;" horiz-adv-x="1546" 
d="M774 -20q-214 0 -375.5 97.5t-245 263.5t-83.5 376t83.5 376t245 262.5t375.5 96.5q160 0 293 -56t222.5 -154t138.5 -233t49 -292q0 -156 -49 -291.5t-138.5 -234t-222.5 -155t-293 -56.5zM317 1550l193 301h537l192 -301h-336l-125 205l-125 -205h-336zM471 717
q0 -115 31 -204t100.5 -144.5t171.5 -55.5q149 0 225 113t76 291q0 180 -75.5 290.5t-225.5 110.5q-151 0 -227 -110.5t-76 -290.5zM1155 1761l221 295h324l-221 -295h-324z" />
    <glyph glyph-name="uni1ED1" unicode="&#x1ed1;" horiz-adv-x="1193" 
d="M596 -20q-83 0 -160.5 19t-148.5 62.5t-123.5 106t-83.5 156.5t-31 208t31 208t83.5 157t123.5 106t148.5 62.5t160.5 19.5q84 0 162 -19.5t149 -62.5t123.5 -106t83.5 -157t31 -208t-31 -208t-83.5 -156.5t-124 -105.5t-149 -62.5t-161.5 -19.5zM141 1182l193 301h536
l193 -301h-336l-125 204l-125 -204h-336zM403 532q0 -120 51 -179.5t142 -59.5q92 0 143.5 59.5t51.5 179.5q0 121 -51.5 180.5t-143.5 59.5q-91 0 -142 -59.5t-51 -180.5zM979 1393l221 295h324l-221 -295h-324z" />
    <glyph glyph-name="uni1ED2" unicode="&#x1ed2;" horiz-adv-x="1546" 
d="M774 -20q-214 0 -375.5 97.5t-245 263.5t-83.5 376t83.5 376t245 262.5t375.5 96.5q160 0 293 -56t222.5 -154t138.5 -233t49 -292q0 -156 -49 -291.5t-138.5 -234t-222.5 -155t-293 -56.5zM317 1550l193 301h537l192 -301h-336l-125 205l-125 -205h-336zM471 717
q0 -115 31 -204t100.5 -144.5t171.5 -55.5q149 0 225 113t76 291q0 180 -75.5 290.5t-225.5 110.5q-151 0 -227 -110.5t-76 -290.5zM1030 2058h324l180 -295h-324z" />
    <glyph glyph-name="uni1ED3" unicode="&#x1ed3;" horiz-adv-x="1193" 
d="M596 -20q-83 0 -160.5 19t-148.5 62.5t-123.5 106t-83.5 156.5t-31 208t31 208t83.5 157t123.5 106t148.5 62.5t160.5 19.5q84 0 162 -19.5t149 -62.5t123.5 -106t83.5 -157t31 -208t-31 -208t-83.5 -156.5t-124 -105.5t-149 -62.5t-161.5 -19.5zM141 1182l193 301h536
l193 -301h-336l-125 204l-125 -204h-336zM403 532q0 -120 51 -179.5t142 -59.5q92 0 143.5 59.5t51.5 179.5q0 121 -51.5 180.5t-143.5 59.5q-91 0 -142 -59.5t-51 -180.5zM854 1690h324l180 -295h-324z" />
    <glyph glyph-name="uni1ED4" unicode="&#x1ed4;" horiz-adv-x="1546" 
d="M774 -20q-214 0 -375.5 97.5t-245 263.5t-83.5 376t83.5 376t245 262.5t375.5 96.5q160 0 293 -56t222.5 -154t138.5 -233t49 -292q0 -156 -49 -291.5t-138.5 -234t-222.5 -155t-293 -56.5zM317 1550l193 301h537l192 -301h-336l-125 205l-125 -205h-336zM471 717
q0 -115 31 -204t100.5 -144.5t171.5 -55.5q149 0 225 113t76 291q0 180 -75.5 290.5t-225.5 110.5q-151 0 -227 -110.5t-76 -290.5zM940 1970q0 64 20 110.5t54 71.5t71.5 36.5t79.5 11.5q98 0 167 -55.5t69 -162.5q0 -90 -51.5 -142.5t-135.5 -65.5l-81 147q37 1 50 13.5
t13 33.5q0 18 -10 27.5t-25 9.5q-32 0 -37 -35h-184z" />
    <glyph glyph-name="uni1ED5" unicode="&#x1ed5;" horiz-adv-x="1193" 
d="M596 -20q-83 0 -160.5 19t-148.5 62.5t-123.5 106t-83.5 156.5t-31 208t31 208t83.5 157t123.5 106t148.5 62.5t160.5 19.5q84 0 162 -19.5t149 -62.5t123.5 -106t83.5 -157t31 -208t-31 -208t-83.5 -156.5t-124 -105.5t-149 -62.5t-161.5 -19.5zM141 1182l193 301h536
l193 -301h-336l-125 204l-125 -204h-336zM403 532q0 -120 51 -179.5t142 -59.5q92 0 143.5 59.5t51.5 179.5q0 121 -51.5 180.5t-143.5 59.5q-91 0 -142 -59.5t-51 -180.5zM764 1602q0 64 20 110.5t54 71t71.5 36t79.5 11.5q98 0 167 -55t69 -162q0 -90 -51.5 -143
t-135.5 -66l-82 147q64 2 64 47q0 18 -10 27.5t-25 9.5q-32 0 -37 -34h-184z" />
    <glyph glyph-name="uni1ED6" unicode="&#x1ed6;" horiz-adv-x="1546" 
d="M774 -20q-214 0 -375.5 97.5t-245 263.5t-83.5 376t83.5 376t245 262.5t375.5 96.5q160 0 293 -56t222.5 -154t138.5 -233t49 -292q0 -156 -49 -291.5t-138.5 -234t-222.5 -155t-293 -56.5zM317 1550l193 301h537l192 -301h-336l-125 205l-125 -205h-336zM397 1960
q0 123 55.5 192.5t165.5 69.5q55 0 100.5 -15.5t69 -33.5t47.5 -33.5t42 -15.5q24 0 31 2q24 10 26 37h217q0 -123 -56 -191.5t-167 -68.5q-55 0 -100 15.5t-68 33.5t-46.5 33.5t-41.5 15.5q-24 0 -32 -3q-24 -10 -26 -38h-217zM471 717q0 -115 31 -204t100.5 -144.5
t171.5 -55.5q149 0 225 113t76 291q0 180 -75.5 290.5t-225.5 110.5q-151 0 -227 -110.5t-76 -290.5z" />
    <glyph glyph-name="uni1ED7" unicode="&#x1ed7;" horiz-adv-x="1193" 
d="M596 -20q-83 0 -160.5 19t-148.5 62.5t-123.5 106t-83.5 156.5t-31 208t31 208t83.5 157t123.5 106t148.5 62.5t160.5 19.5q84 0 162 -19.5t149 -62.5t123.5 -106t83.5 -157t31 -208t-31 -208t-83.5 -156.5t-124 -105.5t-149 -62.5t-161.5 -19.5zM141 1182l193 301h536
l193 -301h-336l-125 204l-125 -204h-336zM221 1591q0 123 55.5 192.5t165.5 69.5q55 0 100 -15.5t68.5 -33.5t47.5 -33.5t42 -15.5q24 0 31 2q25 10 27 37h217q0 -123 -56 -191.5t-167 -68.5q-55 0 -100 15.5t-68 33.5t-46.5 33.5t-41.5 15.5q-24 0 -32 -3q-24 -10 -26 -38
h-217zM403 532q0 -120 51 -179.5t142 -59.5q92 0 143.5 59.5t51.5 179.5q0 121 -51.5 180.5t-143.5 59.5q-91 0 -142 -59.5t-51 -180.5z" />
    <glyph glyph-name="uni1ED8" unicode="&#x1ed8;" horiz-adv-x="1546" 
d="M774 -20q-214 0 -375.5 97.5t-245 263.5t-83.5 376t83.5 376t245 262.5t375.5 96.5q160 0 293 -56t222.5 -154t138.5 -233t49 -292q0 -156 -49 -291.5t-138.5 -234t-222.5 -155t-293 -56.5zM317 1550l193 301h537l192 -301h-336l-125 205l-125 -205h-336zM471 717
q0 -115 31 -204t100.5 -144.5t171.5 -55.5q149 0 225 113t76 291q0 180 -75.5 290.5t-225.5 110.5q-151 0 -227 -110.5t-76 -290.5zM553 -256q0 90 64 152.5t155 62.5t156 -62.5t65 -152.5t-65 -152.5t-156 -62.5t-155 62.5t-64 152.5z" />
    <glyph glyph-name="uni1ED9" unicode="&#x1ed9;" horiz-adv-x="1193" 
d="M596 -20q-83 0 -160.5 19t-148.5 62.5t-123.5 106t-83.5 156.5t-31 208t31 208t83.5 157t123.5 106t148.5 62.5t160.5 19.5q84 0 162 -19.5t149 -62.5t123.5 -106t83.5 -157t31 -208t-31 -208t-83.5 -156.5t-124 -105.5t-149 -62.5t-161.5 -19.5zM141 1182l193 301h536
l193 -301h-336l-125 204l-125 -204h-336zM377 -256q0 90 64 152.5t155 62.5t156 -62.5t65 -152.5t-65 -152.5t-156 -62.5t-155 62.5t-64 152.5zM403 532q0 -120 51 -179.5t142 -59.5q92 0 143.5 59.5t51.5 179.5q0 121 -51.5 180.5t-143.5 59.5q-91 0 -142 -59.5t-51 -180.5
z" />
    <glyph glyph-name="uni1EDA" unicode="&#x1eda;" horiz-adv-x="1546" 
d="M774 -20q-214 0 -375.5 97.5t-245 263.5t-83.5 376t83.5 376t245 262.5t375.5 96.5h432v162h318v-447h-176q129 -189 129 -450q0 -156 -49 -291.5t-138.5 -234t-222.5 -155t-293 -56.5zM471 717q0 -115 31 -204t100.5 -144.5t171.5 -55.5q149 0 225 113t76 291
q0 180 -75.5 290.5t-225.5 110.5q-151 0 -227 -110.5t-76 -290.5zM580 1556l221 295h323l-221 -295h-323z" />
    <glyph glyph-name="uni1EDB" unicode="&#x1edb;" horiz-adv-x="1193" 
d="M596 -20q-83 0 -160.5 19t-148.5 62.5t-123.5 106t-83.5 156.5t-31 208t31 208t83.5 157t123.5 106t148.5 62.5t160.5 19.5h299v160h301v-448h-104q53 -109 53 -265q0 -114 -31 -208t-83.5 -156.5t-124 -105.5t-149 -62.5t-161.5 -19.5zM403 532q0 -120 51 -179.5
t142 -59.5q92 0 143.5 59.5t51.5 179.5q0 121 -51.5 180.5t-143.5 59.5q-91 0 -142 -59.5t-51 -180.5zM403 1188l222 295h323l-221 -295h-324z" />
    <glyph glyph-name="uni1EDC" unicode="&#x1edc;" horiz-adv-x="1546" 
d="M774 -20q-214 0 -375.5 97.5t-245 263.5t-83.5 376t83.5 376t245 262.5t375.5 96.5h432v162h318v-447h-176q129 -189 129 -450q0 -156 -49 -291.5t-138.5 -234t-222.5 -155t-293 -56.5zM403 1851h324l221 -295h-323zM471 717q0 -115 31 -204t100.5 -144.5t171.5 -55.5
q149 0 225 113t76 291q0 180 -75.5 290.5t-225.5 110.5q-151 0 -227 -110.5t-76 -290.5z" />
    <glyph glyph-name="uni1EDD" unicode="&#x1edd;" horiz-adv-x="1193" 
d="M596 -20q-83 0 -160.5 19t-148.5 62.5t-123.5 106t-83.5 156.5t-31 208t31 208t83.5 157t123.5 106t148.5 62.5t160.5 19.5h299v160h301v-448h-104q53 -109 53 -265q0 -114 -31 -208t-83.5 -156.5t-124 -105.5t-149 -62.5t-161.5 -19.5zM227 1483h324l221 -295h-323z
M403 532q0 -120 51 -179.5t142 -59.5q92 0 143.5 59.5t51.5 179.5q0 121 -51.5 180.5t-143.5 59.5q-91 0 -142 -59.5t-51 -180.5z" />
    <glyph glyph-name="uni1EDE" unicode="&#x1ede;" horiz-adv-x="1546" 
d="M774 -20q-214 0 -375.5 97.5t-245 263.5t-83.5 376t83.5 376t245 262.5t375.5 96.5h432v162h318v-447h-176q129 -189 129 -450q0 -156 -49 -291.5t-138.5 -234t-222.5 -155t-293 -56.5zM471 717q0 -115 31 -204t100.5 -144.5t171.5 -55.5q149 0 225 113t76 291
q0 180 -75.5 290.5t-225.5 110.5q-151 0 -227 -110.5t-76 -290.5zM555 1735q0 64 20 110.5t54 71t71.5 36t79.5 11.5q98 0 167 -55t69 -162q0 -90 -51.5 -143t-135.5 -66l-81 148q37 1 50 13.5t13 33.5q0 18 -10 27t-25 9q-32 0 -37 -34h-184z" />
    <glyph glyph-name="uni1EDF" unicode="&#x1edf;" horiz-adv-x="1193" 
d="M596 -20q-83 0 -160.5 19t-148.5 62.5t-123.5 106t-83.5 156.5t-31 208t31 208t83.5 157t123.5 106t148.5 62.5t160.5 19.5h299v160h301v-448h-104q53 -109 53 -265q0 -114 -31 -208t-83.5 -156.5t-124 -105.5t-149 -62.5t-161.5 -19.5zM379 1366q0 64 20 110.5t54 71
t71.5 36t79.5 11.5q98 0 167 -55t69 -162q0 -90 -51.5 -143t-135.5 -66l-82 148q64 2 64 47q0 18 -10 27.5t-25 9.5q-32 0 -37 -35h-184zM403 532q0 -120 51 -179.5t142 -59.5q92 0 143.5 59.5t51.5 179.5q0 121 -51.5 180.5t-143.5 59.5q-91 0 -142 -59.5t-51 -180.5z" />
    <glyph glyph-name="uni1EE0" unicode="&#x1ee0;" horiz-adv-x="1546" 
d="M774 -20q-214 0 -375.5 97.5t-245 263.5t-83.5 376t83.5 376t245 262.5t375.5 96.5h432v162h318v-447h-176q129 -189 129 -450q0 -156 -49 -291.5t-138.5 -234t-222.5 -155t-293 -56.5zM397 1614q0 123 55.5 192.5t165.5 69.5q55 0 100.5 -15.5t69 -33.5t47.5 -33.5
t42 -15.5q24 0 31 2q25 9 26 37h217q0 -123 -56 -192t-167 -69q-55 0 -100 15.5t-68 34t-46.5 34t-41.5 15.5q-24 0 -32 -3q-24 -10 -26 -38h-217zM471 717q0 -115 31 -204t100.5 -144.5t171.5 -55.5q149 0 225 113t76 291q0 180 -75.5 290.5t-225.5 110.5
q-151 0 -227 -110.5t-76 -290.5z" />
    <glyph glyph-name="uni1EE1" unicode="&#x1ee1;" horiz-adv-x="1193" 
d="M596 -20q-83 0 -160.5 19t-148.5 62.5t-123.5 106t-83.5 156.5t-31 208t31 208t83.5 157t123.5 106t148.5 62.5t160.5 19.5h299v148q-54 -45 -143 -45q-55 0 -100 15.5t-68 33.5t-46.5 33.5t-41.5 15.5q-24 0 -32 -3q-24 -10 -26 -38h-217q0 123 55.5 192.5t165.5 69.5
q55 0 100 -15.5t68.5 -33.5t47.5 -33.5t42 -15.5q24 0 31 2q25 10 27 37h217q0 -134 -66 -203h287v-448h-104q53 -109 53 -265q0 -114 -31 -208t-83.5 -156.5t-124 -105.5t-149 -62.5t-161.5 -19.5zM403 532q0 -120 51 -179.5t142 -59.5q92 0 143.5 59.5t51.5 179.5
q0 121 -51.5 180.5t-143.5 59.5q-91 0 -142 -59.5t-51 -180.5z" />
    <glyph glyph-name="uni1EE2" unicode="&#x1ee2;" horiz-adv-x="1546" 
d="M774 -20q-214 0 -375.5 97.5t-245 263.5t-83.5 376t83.5 376t245 262.5t375.5 96.5h432v162h318v-447h-176q129 -189 129 -450q0 -156 -49 -291.5t-138.5 -234t-222.5 -155t-293 -56.5zM471 717q0 -115 31 -204t100.5 -144.5t171.5 -55.5q149 0 225 113t76 291
q0 180 -75.5 290.5t-225.5 110.5q-151 0 -227 -110.5t-76 -290.5zM553 -256q0 90 64 152.5t155 62.5t156 -62.5t65 -152.5t-65 -152.5t-156 -62.5t-155 62.5t-64 152.5z" />
    <glyph glyph-name="uni1EE3" unicode="&#x1ee3;" horiz-adv-x="1193" 
d="M596 -20q-83 0 -160.5 19t-148.5 62.5t-123.5 106t-83.5 156.5t-31 208t31 208t83.5 157t123.5 106t148.5 62.5t160.5 19.5h299v160h301v-448h-104q53 -109 53 -265q0 -114 -31 -208t-83.5 -156.5t-124 -105.5t-149 -62.5t-161.5 -19.5zM377 -256q0 90 64 152.5t155 62.5
t156 -62.5t65 -152.5t-65 -152.5t-156 -62.5t-155 62.5t-64 152.5zM403 532q0 -120 51 -179.5t142 -59.5q92 0 143.5 59.5t51.5 179.5q0 121 -51.5 180.5t-143.5 59.5q-91 0 -142 -59.5t-51 -180.5z" />
    <glyph glyph-name="uni1EE4" unicode="&#x1ee4;" horiz-adv-x="1427" 
d="M715 -20q-137 0 -247.5 33.5t-193.5 101t-128.5 177t-45.5 253.5v889h392v-856q0 -130 58.5 -196.5t164.5 -66.5t163.5 66.5t57.5 196.5v856h393v-889q0 -144 -45.5 -253.5t-128.5 -177t-193.5 -101t-246.5 -33.5zM494 -256q0 90 64 152.5t155 62.5t156 -62.5t65 -152.5
t-65 -152.5t-156 -62.5t-155 62.5t-64 152.5z" />
    <glyph glyph-name="uni1EE5" unicode="&#x1ee5;" 
d="M479 473q0 -182 150 -182q74 0 122 43t48 139v592h379v-1065h-379v229h-17q-8 -45 -31.5 -87.5t-61.5 -79.5t-98 -59.5t-132 -22.5q-158 0 -258.5 106t-100.5 293v686h379v-592zM455 -256q0 90 64 152.5t155 62.5t156 -62.5t65 -152.5t-65 -152.5t-156 -62.5t-155 62.5
t-64 152.5z" />
    <glyph glyph-name="uni1EE6" unicode="&#x1ee6;" horiz-adv-x="1427" 
d="M715 -20q-137 0 -247.5 33.5t-193.5 101t-128.5 177t-45.5 253.5v889h392v-856q0 -130 58.5 -196.5t164.5 -66.5t163.5 66.5t57.5 196.5v856h393v-889q0 -144 -45.5 -253.5t-128.5 -177t-193.5 -101t-246.5 -33.5zM463 1735q0 64 20 110.5t54 71t71.5 36t79.5 11.5
q98 0 167 -55t69 -162q0 -90 -51.5 -143t-135.5 -66l-82 148q64 2 64 47q0 18 -10 27t-25 9q-32 0 -37 -34h-184z" />
    <glyph glyph-name="uni1EE7" unicode="&#x1ee7;" 
d="M479 473q0 -182 150 -182q74 0 122 43t48 139v592h379v-1065h-379v229h-17q-8 -45 -31.5 -87.5t-61.5 -79.5t-98 -59.5t-132 -22.5q-158 0 -258.5 106t-100.5 293v686h379v-592zM420 1366q0 64 20 110.5t54 71t71.5 36t79.5 11.5q98 0 167 -55t69 -162q0 -90 -51.5 -143
t-135.5 -66l-82 148q64 2 64 47q0 18 -10 27.5t-25 9.5q-32 0 -37 -35h-184z" />
    <glyph glyph-name="uni1EE8" unicode="&#x1ee8;" horiz-adv-x="1427" 
d="M715 -20q-137 0 -247.5 33.5t-193.5 101t-128.5 177t-45.5 253.5v889h392v-856q0 -130 58.5 -196.5t164.5 -66.5t163.5 66.5t57.5 196.5v856h326v180h317v-463h-250v-606q0 -144 -45.5 -253.5t-128.5 -177t-193.5 -101t-246.5 -33.5zM520 1556l221 295h324l-221 -295
h-324z" />
    <glyph glyph-name="uni1EE9" unicode="&#x1ee9;" 
d="M479 473q0 -182 150 -182q74 0 122 43t48 139v592h325v180h318v-463h-264v-782h-379v229h-17q-8 -45 -31.5 -87.5t-61.5 -79.5t-98 -59.5t-132 -22.5q-158 0 -258.5 106t-100.5 293v686h379v-592zM444 1188l222 295h323l-221 -295h-324z" />
    <glyph glyph-name="uni1EEA" unicode="&#x1eea;" horiz-adv-x="1427" 
d="M715 -20q-137 0 -247.5 33.5t-193.5 101t-128.5 177t-45.5 253.5v889h392v-856q0 -130 58.5 -196.5t164.5 -66.5t163.5 66.5t57.5 196.5v856h326v180h317v-463h-250v-606q0 -144 -45.5 -253.5t-128.5 -177t-193.5 -101t-246.5 -33.5zM344 1851h324l221 -295h-324z" />
    <glyph glyph-name="uni1EEB" unicode="&#x1eeb;" 
d="M479 473q0 -182 150 -182q74 0 122 43t48 139v592h325v180h318v-463h-264v-782h-379v229h-17q-8 -45 -31.5 -87.5t-61.5 -79.5t-98 -59.5t-132 -22.5q-158 0 -258.5 106t-100.5 293v686h379v-592zM268 1483h324l221 -295h-324z" />
    <glyph glyph-name="uni1EEC" unicode="&#x1eec;" horiz-adv-x="1427" 
d="M715 -20q-137 0 -247.5 33.5t-193.5 101t-128.5 177t-45.5 253.5v889h392v-856q0 -130 58.5 -196.5t164.5 -66.5t163.5 66.5t57.5 196.5v856h326v180h317v-463h-250v-606q0 -144 -45.5 -253.5t-128.5 -177t-193.5 -101t-246.5 -33.5zM496 1735q0 64 20 110.5t54 71
t71.5 36t79.5 11.5q98 0 166.5 -55t68.5 -162q0 -90 -51 -143t-135 -66l-82 148q64 2 64 47q0 18 -10 27t-25 9q-32 0 -37 -34h-184z" />
    <glyph glyph-name="uni1EED" unicode="&#x1eed;" 
d="M479 473q0 -182 150 -182q74 0 122 43t48 139v592h325v180h318v-463h-264v-782h-379v229h-17q-8 -45 -31.5 -87.5t-61.5 -79.5t-98 -59.5t-132 -22.5q-158 0 -258.5 106t-100.5 293v686h379v-592zM420 1366q0 64 20 110.5t54 71t71.5 36t79.5 11.5q98 0 167 -55t69 -162
q0 -90 -51.5 -143t-135.5 -66l-82 148q64 2 64 47q0 18 -10 27.5t-25 9.5q-32 0 -37 -35h-184z" />
    <glyph glyph-name="uni1EEE" unicode="&#x1eee;" horiz-adv-x="1427" 
d="M715 -20q-137 0 -247.5 33.5t-193.5 101t-128.5 177t-45.5 253.5v889h392v-856q0 -130 58.5 -196.5t164.5 -66.5t163.5 66.5t57.5 196.5v856h326v180h317v-463h-250v-606q0 -144 -45.5 -253.5t-128.5 -177t-193.5 -101t-246.5 -33.5zM336 1614q0 123 55.5 192.5
t165.5 69.5q55 0 100 -15.5t68.5 -33.5t47.5 -33.5t42 -15.5q24 0 31 2q25 9 26 37h218q0 -123 -56.5 -192t-167.5 -69q-55 0 -100 15.5t-68 34t-46.5 34t-41.5 15.5q-24 0 -32 -3q-23 -11 -25 -38h-217z" />
    <glyph glyph-name="uni1EEF" unicode="&#x1eef;" 
d="M479 473q0 -182 150 -182q74 0 122 43t48 139v592h325v180h318v-463h-264v-782h-379v229h-17q-8 -45 -31.5 -87.5t-61.5 -79.5t-98 -59.5t-132 -22.5q-158 0 -258.5 106t-100.5 293v686h379v-592zM262 1245q0 123 55.5 192.5t165.5 69.5q55 0 100 -15.5t68.5 -33.5
t47.5 -33.5t42 -15.5q24 0 31 2q25 10 27 37h217q0 -123 -56 -191.5t-167 -68.5q-55 0 -100 15.5t-68 33.5t-46.5 33.5t-41.5 15.5q-24 0 -32 -3q-24 -10 -26 -38h-217z" />
    <glyph glyph-name="uni1EF0" unicode="&#x1ef0;" horiz-adv-x="1427" 
d="M715 -20q-137 0 -247.5 33.5t-193.5 101t-128.5 177t-45.5 253.5v889h392v-856q0 -130 58.5 -196.5t164.5 -66.5t163.5 66.5t57.5 196.5v856h326v180h317v-463h-250v-606q0 -144 -45.5 -253.5t-128.5 -177t-193.5 -101t-246.5 -33.5zM494 -256q0 90 64 152.5t155 62.5
t156 -62.5t65 -152.5t-65 -152.5t-156 -62.5t-155 62.5t-64 152.5z" />
    <glyph glyph-name="uni1EF1" unicode="&#x1ef1;" 
d="M479 473q0 -182 150 -182q74 0 122 43t48 139v592h325v180h318v-463h-264v-782h-379v229h-17q-8 -45 -31.5 -87.5t-61.5 -79.5t-98 -59.5t-132 -22.5q-158 0 -258.5 106t-100.5 293v686h379v-592zM418 -256q0 90 64 152.5t155 62.5t156 -62.5t65 -152.5t-65 -152.5
t-156 -62.5t-155 62.5t-64 152.5z" />
    <glyph glyph-name="Ygrave" unicode="&#x1ef2;" horiz-adv-x="1507" 
d="M553 0v506l-514 928h440l275 -551l274 551h440l-514 -928v-506h-401zM406 1851h323l221 -295h-323z" />
    <glyph glyph-name="ygrave" unicode="&#x1ef3;" horiz-adv-x="1239" 
d="M135 -102q49 -6 90.5 -5.5t68 3.5t50.5 13.5t34.5 15.5t23 20t13 15.5t7.5 12.5q17 40 15 68t-23 82l-385 942h387l200 -578l207 578h387l-422 -1026q-60 -147 -116.5 -237t-132.5 -147t-171.5 -73t-232.5 -2v318zM266 1483h324l221 -295h-324z" />
    <glyph glyph-name="uni1EF4" unicode="&#x1ef4;" horiz-adv-x="1507" 
d="M553 0v506l-514 928h440l275 -551l274 551h440l-514 -928v-506h-401zM535 -256q0 90 64 152.5t155 62.5t156 -62.5t65 -152.5t-65 -152.5t-156 -62.5t-155 62.5t-64 152.5z" />
    <glyph glyph-name="uni1EF5" unicode="&#x1ef5;" horiz-adv-x="1239" 
d="M135 -102q49 -6 90.5 -5.5t68 3.5t50.5 13.5t34.5 15.5t23 20t13 15.5t7.5 12.5q17 40 15 68t-23 82l-385 942h387l200 -578l207 578h387l-422 -1026q-60 -147 -116.5 -237t-132.5 -147t-171.5 -73t-232.5 -2v318zM815 -256q0 90 64 152.5t155 62.5t156 -62.5t65 -152.5
t-65 -152.5t-156 -62.5t-155 62.5t-64 152.5z" />
    <glyph glyph-name="uni1EF6" unicode="&#x1ef6;" horiz-adv-x="1507" 
d="M553 0v506l-514 928h440l275 -551l274 551h440l-514 -928v-506h-401zM537 1735q0 64 20 110.5t54 71t71.5 36t79.5 11.5q98 0 166.5 -55t68.5 -162q0 -90 -51 -143t-135 -66l-82 148q64 2 64 47q0 18 -10 27t-25 9q-32 0 -37 -34h-184z" />
    <glyph glyph-name="uni1EF7" unicode="&#x1ef7;" horiz-adv-x="1239" 
d="M135 -102q49 -6 90.5 -5.5t68 3.5t50.5 13.5t34.5 15.5t23 20t13 15.5t7.5 12.5q17 40 15 68t-23 82l-385 942h387l200 -578l207 578h387l-422 -1026q-60 -147 -116.5 -237t-132.5 -147t-171.5 -73t-232.5 -2v318zM397 1366q0 64 20 110.5t54.5 71t72 36t79.5 11.5
q98 0 166.5 -55t68.5 -162q0 -90 -51 -143t-135 -66l-82 148q37 1 50 13.5t13 33.5q0 18 -10 27.5t-25 9.5q-31 0 -36 -35h-185z" />
    <glyph glyph-name="uni1EF8" unicode="&#x1ef8;" horiz-adv-x="1507" 
d="M553 0v506l-514 928h440l275 -551l274 551h440l-514 -928v-506h-401zM377 1614q0 123 55.5 192.5t165.5 69.5q55 0 100 -15.5t68.5 -33.5t47.5 -33.5t42 -15.5q24 0 31 2q25 9 26 37h217q0 -123 -56 -192t-167 -69q-55 0 -100 15.5t-68 34t-46.5 34t-41.5 15.5
q-24 0 -32 -3q-23 -11 -25 -38h-217z" />
    <glyph glyph-name="uni1EF9" unicode="&#x1ef9;" horiz-adv-x="1239" 
d="M135 -102q49 -6 90.5 -5.5t68 3.5t50.5 13.5t34.5 15.5t23 20t13 15.5t7.5 12.5q17 40 15 68t-23 82l-385 942h387l200 -578l207 578h387l-422 -1026q-60 -147 -116.5 -237t-132.5 -147t-171.5 -73t-232.5 -2v318zM240 1245q0 123 55.5 192.5t165.5 69.5q55 0 100 -15.5
t68.5 -33.5t47.5 -33.5t42 -15.5q24 0 31 2q25 9 26 37h217q0 -123 -56 -191.5t-167 -68.5q-55 0 -100 15.5t-68 33.5t-46.5 33.5t-41.5 15.5q-24 0 -32 -3q-23 -11 -25 -38h-217z" />
    <glyph glyph-name="endash" unicode="&#x2013;" horiz-adv-x="1228" 
d="M92 420v282h1045v-282h-1045z" />
    <glyph glyph-name="emdash" unicode="&#x2014;" horiz-adv-x="1351" 
d="M92 420v282h1168v-282h-1168z" />
    <glyph glyph-name="quoteleft" unicode="&#x2018;" horiz-adv-x="589" 
d="M451 1296q-100 -3 -143.5 -34t-43.5 -101q122 -3 189 -64.5t67 -154.5q-1 -90 -63 -146.5t-156 -56.5q-107 0 -174.5 78.5t-67.5 233.5q0 182 98.5 287.5t266.5 105.5h27v-148z" />
    <glyph glyph-name="quoteright" unicode="&#x2019;" horiz-adv-x="589" 
d="M139 895q100 3 143.5 34t43.5 101q-122 3 -189 64.5t-67 154.5q0 90 61 146.5t156 56.5q107 0 175 -78t68 -233q0 -182 -98 -287.5t-266 -105.5h-27v147z" />
    <glyph glyph-name="quotesinglbase" unicode="&#x201a;" horiz-adv-x="600" 
d="M139 -147q100 3 143.5 34t43.5 101q-122 3 -189 64.5t-67 154.5q0 90 61 146.5t156 56.5q107 0 175 -78.5t68 -233.5q0 -182 -98 -287.5t-266 -105.5h-27v148z" />
    <glyph glyph-name="quotedblleft" unicode="&#x201c;" horiz-adv-x="1138" 
d="M451 1296q-100 -3 -143.5 -34t-43.5 -101q122 -3 189 -64.5t67 -154.5q-1 -90 -63 -146.5t-156 -56.5q-107 0 -174.5 78.5t-67.5 233.5q0 182 98.5 287.5t266.5 105.5h27v-148zM608 1051q0 182 98.5 287.5t266.5 105.5h26v-148q-100 -3 -143 -34t-43 -101
q122 -3 189 -64.5t67 -154.5q0 -90 -61 -146.5t-156 -56.5q-107 0 -175.5 78.5t-68.5 233.5z" />
    <glyph glyph-name="quotedblright" unicode="&#x201d;" horiz-adv-x="1138" 
d="M139 895q100 3 143.5 34t43.5 101q-122 3 -189 64.5t-67 154.5q0 90 61 146.5t156 56.5q107 0 175 -78t68 -233q0 -182 -98 -287.5t-266 -105.5h-27v147zM618 1249q0 90 61.5 146.5t156.5 56.5q107 0 175 -78t68 -233q0 -182 -98 -287.5t-266 -105.5h-27v147
q100 3 143 34t43 101q-122 3 -189 64.5t-67 154.5z" />
    <glyph glyph-name="quotedblbase" unicode="&#x201e;" horiz-adv-x="1148" 
d="M688 -184q100 3 143 34t43 101q-121 3 -188.5 65.5t-67.5 155.5q0 90 61.5 146.5t156.5 56.5q107 0 175 -78.5t68 -233.5q0 -184 -98 -289.5t-266 -105.5h-27v148zM70 172q0 90 61 146.5t156 56.5q107 0 175 -78.5t68 -233.5q0 -184 -98 -289.5t-266 -105.5h-27v148
q100 3 143.5 34t43.5 101q-121 3 -188.5 65.5t-67.5 155.5z" />
    <glyph glyph-name="dagger" unicode="&#x2020;" horiz-adv-x="980" 
d="M342 322v495h-240v285h240v332h299v-332h238v-285h-238v-495h-299z" />
    <glyph glyph-name="daggerdbl" unicode="&#x2021;" horiz-adv-x="980" 
d="M342 0v250h-240v285h240v364h-240v285h240v250h299v-250h238v-285h-238v-364h238v-285h-238v-250h-299z" />
    <glyph glyph-name="bullet" unicode="&#x2022;" horiz-adv-x="591" 
d="M297 346q-79 0 -137 58t-58 137q0 78 58 135t137 57q78 0 135 -57t57 -135q0 -79 -57 -137t-135 -58z" />
    <glyph glyph-name="ellipsis" unicode="&#x2026;" horiz-adv-x="1751" 
d="M877 -20q-91 0 -155.5 62.5t-64.5 152.5t64.5 152.5t155.5 62.5t155 -62.5t64 -152.5t-64 -152.5t-155 -62.5zM70 195q0 90 64 152.5t155 62.5t155 -62.5t64 -152.5t-64 -152.5t-155 -62.5t-155 62.5t-64 152.5zM1243 195q0 90 64 152.5t155 62.5t155 -62.5t64 -152.5
t-64 -152.5t-155 -62.5t-155 62.5t-64 152.5z" />
    <glyph glyph-name="perthousand" unicode="&#x2030;" horiz-adv-x="2320" 
d="M1931 -18q-65 0 -121.5 20.5t-101.5 61.5t-70.5 108.5t-25.5 155.5q0 161 91 249.5t228 88.5t228.5 -88.5t91.5 -249.5q0 -172 -90.5 -259t-229.5 -87zM70 1124q0 161 91 249.5t228 88.5t228.5 -88.5t91.5 -249.5q0 -172 -90.5 -259t-229.5 -87q-65 0 -121.5 20.5
t-101.5 61.5t-70.5 108.5t-25.5 155.5zM139 408l1129 829l147 -201l-1128 -829zM324 1124q0 -34 7.5 -57.5t19.5 -33.5t21 -13.5t17 -3.5t17.5 3.5t21.5 13.5t19.5 33.5t7.5 57.5q0 31 -7.5 53.5t-19.5 32t-21.5 13.5t-17.5 4t-17.5 -4t-21 -13.5t-19 -32t-7.5 -53.5z
M848 328q0 161 91 249.5t228 88.5t228.5 -88.5t91.5 -249.5q0 -172 -90.5 -259t-229.5 -87q-137 0 -228 87.5t-91 258.5zM1104 328q0 -34 7 -58t18.5 -34t20.5 -13.5t17 -3.5t17.5 3.5t21.5 13.5t19.5 34t7.5 58q0 31 -7.5 53.5t-19.5 32t-21.5 13t-17.5 3.5t-17 -3.5
t-20 -13t-18.5 -32t-7.5 -53.5zM1866 328q0 -34 7.5 -58t19.5 -34t21 -13.5t17 -3.5t17.5 3.5t21.5 13.5t19.5 34t7.5 58q0 31 -7.5 53.5t-19.5 32t-21.5 13t-17.5 3.5t-17 -3.5t-21 -13t-19.5 -32t-7.5 -53.5z" />
    <glyph glyph-name="guilsinglleft" unicode="&#x2039;" horiz-adv-x="548" 
d="M467 156l-385 303v295l385 317v-336l-162 -121l162 -125v-333z" />
    <glyph glyph-name="guilsinglright" unicode="&#x203a;" horiz-adv-x="573" 
d="M117 156v333l162 125l-162 121v336l385 -317v-295z" />
    <glyph glyph-name="fraction" unicode="&#x2044;" horiz-adv-x="329" 
d="M-375 0l895 1434h182l-892 -1434h-185z" />
    <glyph glyph-name="Euro" unicode="&#x20ac;" horiz-adv-x="1533" 
d="M72 717v180h104q46 261 223.5 408t456.5 147q126 0 232.5 -33t191.5 -99t135.5 -176t57.5 -255h-379q-47 229 -252 229t-260 -221h233v-180h-254l2 -60h252v-180h-217q63 -164 244 -164q205 0 252 232h379q-7 -145 -57.5 -255t-135.5 -177t-192.5 -100t-235.5 -33
q-260 0 -432.5 131t-231.5 366h-116v180h92q-2 20 -2 60h-90z" />
    <glyph glyph-name="trademark" unicode="&#x2122;" horiz-adv-x="1093" 
d="M520 1065v369h146l100 -267l100 267h146v-369h-138v152l-47 -152h-122l-48 152v-152h-137zM82 1321v113h377v-113h-121v-256h-137v256h-119z" />
    <glyph glyph-name="partialdiff" unicode="&#x2202;" horiz-adv-x="1275" 
d="M631 -20q-54 0 -107.5 7.5t-119 25.5t-121 54.5t-102.5 88t-74 133t-27 182.5q0 110 33 197t83 138.5t116 85t126 46t119 12.5q176 0 301 -125q1 31 -2.5 63t-11.5 71.5t-25.5 72.5t-42 61.5t-64 45t-89.5 16.5q-159 0 -183 -145h-331q-2 61 13.5 121t54.5 118.5
t96.5 103t145.5 72t195 27.5q293 0 442.5 -189t149.5 -532q0 -166 -33 -297.5t-87.5 -215t-130 -138.5t-155.5 -77.5t-169 -22.5zM440 475q0 -48 15 -84t36 -55.5t49.5 -31.5t50 -15.5t42.5 -3.5q20 0 40.5 3t49 14.5t49.5 31t36 56t15 85.5q0 57 -21 98t-54 59.5t-60.5 26
t-52.5 7.5q-20 0 -42.5 -4t-50.5 -16.5t-50 -32t-37 -55.5t-15 -83zM848 766q0 -8 4 0h-4z" />
    <glyph glyph-name="product" unicode="&#x220f;" horiz-adv-x="1603" 
d="M92 -389v2027h1419v-2027h-366v1681h-686v-1681h-367z" />
    <glyph glyph-name="summation" unicode="&#x2211;" horiz-adv-x="1466" 
d="M92 -389l563 1014l-563 1013h1282v-340h-678l369 -673l-369 -674h678v-340h-1282z" />
    <glyph glyph-name="minus" unicode="&#x2212;" horiz-adv-x="925" 
d="M100 365v282h727v-282h-727z" />
    <glyph glyph-name="radical" unicode="&#x221a;" horiz-adv-x="1773" 
d="M717 -389l-357 842h-268v409h522l308 -772l385 1548h374l-514 -2027h-450z" />
    <glyph glyph-name="infinity" unicode="&#x221e;" horiz-adv-x="1732" 
d="M455 166q-159 0 -272 102t-113 269q0 111 54.5 195.5t141 126.5t189.5 42q109 0 209 -43.5t202 -114.5q227 158 412 158q103 0 189.5 -42t141 -126.5t54.5 -195.5q0 -167 -113 -269t-272 -102q-185 0 -412 158q-102 -71 -202 -114.5t-209 -43.5zM389 537q0 -33 28 -62
t83 -29q103 0 180 91q-82 94 -180 94q-55 0 -83 -29t-28 -65zM1053 537q77 -91 180 -91q54 0 82 29t28 62q0 36 -27.5 65t-82.5 29q-98 0 -180 -94z" />
    <glyph glyph-name="integral" unicode="&#x222b;" horiz-adv-x="663" 
d="M29 -68q21 0 38 5t27.5 11.5t18 20.5t11.5 23t5.5 29t2 29.5t0 32.5t-0.5 30v901q0 58 7.5 104.5t26 94t53.5 82.5t86.5 63t129.5 42.5t178 14.5v-321q-28 0 -47.5 -11t-30 -26.5t-16 -42t-7 -48t-1.5 -53.5v-899q0 -82 -12.5 -142.5t-44.5 -111.5t-86.5 -82.5
t-138.5 -49t-199 -17.5v321z" />
    </font>
</defs>
</svg>
