<?xml version="1.0" standalone="no"?>
<!DOCTYPE svg PUBLIC "-//W3C//DTD SVG 1.1//EN" "http://www.w3.org/Graphics/SVG/1.1/DTD/svg11.dtd" >
<svg xmlns="http://www.w3.org/2000/svg" xmlns:xlink="http://www.w3.org/1999/xlink" version="1.1">
<metadata>
Created by FontForge 20170731 at Sun Aug  6 18:04:24 2023
 By Aleksey,,,
Copyright (c) 2021 by Connary Fagen. All rights reserved.
</metadata>
<defs>
<font id="ArticulatCF-Medium" horiz-adv-x="1177" >
  <font-face 
    font-family="Articulat CF Medium"
    font-weight="500"
    font-stretch="normal"
    units-per-em="2048"
    panose-1="0 0 0 0 0 0 0 0 0 0"
    ascent="1638"
    descent="-410"
    x-height="1065"
    cap-height="1434"
    bbox="-346 -555 2144 2198"
    underline-thickness="102"
    underline-position="-358"
    unicode-range="U+0020-A78C"
  />
<missing-glyph horiz-adv-x="1478" 
d="M115 0v1434h1249v-1434h-1249zM221 106h1036v1221h-1036v-1221zM297 184l385 539l-379 526h119l315 -446l316 446h118l-378 -526l385 -539h-119l-322 461l-321 -461h-119z" />
    <glyph glyph-name=".notdef" horiz-adv-x="1478" 
d="M115 0v1434h1249v-1434h-1249zM221 106h1036v1221h-1036v-1221zM297 184l385 539l-379 526h119l315 -446l316 446h118l-378 -526l385 -539h-119l-322 461l-321 -461h-119z" />
    <glyph glyph-name=".null" horiz-adv-x="0" 
 />
    <glyph glyph-name="nonmarkingreturn" horiz-adv-x="682" 
 />
    <glyph glyph-name="space" unicode=" " horiz-adv-x="471" 
 />
    <glyph glyph-name="exclam" unicode="!" horiz-adv-x="501" 
d="M170 434l-25 1000h211l-24 -1000h-162zM115 115q0 55 39.5 95t95.5 40q57 0 97 -39.5t40 -95.5q0 -57 -40 -96t-97 -39q-56 0 -95.5 39t-39.5 96z" />
    <glyph glyph-name="quotedbl" unicode="&#x22;" horiz-adv-x="718" 
d="M440 901v533h197v-533h-197zM82 901v533h197v-533h-197z" />
    <glyph glyph-name="numbersign" unicode="#" horiz-adv-x="1222" 
d="M694 0l39 379h-309l-39 -379h-131l39 379h-199v133h211l41 410h-199v133h213l37 379h131l-36 -379h309l37 379h131l-37 -379h196v-133h-210l-41 -410h198v-133h-211l-39 -379h-131zM436 512h309l41 410h-309z" />
    <glyph glyph-name="dollar" unicode="$" horiz-adv-x="1236" 
d="M571 -184v166q-233 13 -360 133.5t-127 318.5h209q6 -111 75 -185t203 -87v495l-65 15q-381 80 -381 385q0 177 117 279.5t329 113.5v168h95v-168q213 -11 330.5 -115t117.5 -284h-209q-2 94 -63 151.5t-176 67.5v-449l69 -14q212 -44 315 -140t103 -264
q0 -195 -131 -304.5t-356 -118.5v-164h-95zM336 1057q0 -165 223 -213l12 -2v428q-120 -9 -177.5 -66.5t-57.5 -146.5zM666 162q133 7 202.5 70t69.5 169q0 100 -63 153.5t-185 78.5l-24 6v-477z" />
    <glyph glyph-name="percent" unicode="%" horiz-adv-x="1499" 
d="M229 244l-88 121l1129 823l88 -121zM84 1133q0 149 80.5 233t204.5 84t204 -84t80 -233q0 -153 -79.5 -236.5t-204.5 -83.5q-126 0 -205.5 83.5t-79.5 236.5zM236 1133q0 -90 37.5 -134.5t95.5 -44.5t95.5 44.5t37.5 134.5t-37 133t-96 43t-96 -43t-37 -133zM846 303
q0 149 80 233.5t204 84.5t204.5 -84.5t80.5 -233.5q0 -154 -80 -237.5t-205 -83.5t-204.5 83.5t-79.5 237.5zM997 303q0 -91 37 -134.5t96 -43.5t96.5 43.5t37.5 134.5q0 88 -37.5 131t-96.5 43t-96 -43t-37 -131z" />
    <glyph glyph-name="ampersand" unicode="&#x26;" horiz-adv-x="1421" 
d="M592 -20q-223 0 -365.5 116t-142.5 301q0 139 81 237.5t234 182.5q-74 88 -114.5 166.5t-40.5 163.5q0 60 21.5 113.5t64 97t112.5 69t160 25.5q171 0 263.5 -86.5t92.5 -222.5q0 -227 -286 -371l332 -366q69 144 69 344h184q0 -299 -122 -490l233 -260h-231l-117 129
q-173 -149 -428 -149zM297 416q0 -115 87.5 -189.5t227.5 -74.5q168 0 287 110l-391 434q-211 -107 -211 -280zM424 1147q0 -57 34 -113.5t103 -136.5q116 60 165.5 118.5t49.5 127.5q0 75 -49 118.5t-127 43.5q-81 0 -128.5 -44.5t-47.5 -113.5z" />
    <glyph glyph-name="quotesingle" unicode="'" horiz-adv-x="360" 
d="M82 901v533h197v-533h-197z" />
    <glyph glyph-name="parenleft" unicode="(" horiz-adv-x="598" 
d="M309 -266q-217 388 -217 921q0 507 217 871h197q-207 -377 -207 -871q0 -523 207 -921h-197z" />
    <glyph glyph-name="parenright" unicode=")" horiz-adv-x="598" 
d="M92 -266q207 398 207 921q0 494 -207 871h197q217 -364 217 -871q0 -533 -217 -921h-197z" />
    <glyph glyph-name="asterisk" unicode="*" horiz-adv-x="1067" 
d="M709 659l-168 250l104 80l182 -246zM125 1079l37 135l291 -88l-37 -125zM240 743l180 246l104 -80l-168 -250zM461 1434h143l-4 -297h-133zM614 1126l289 88l39 -135l-293 -78z" />
    <glyph glyph-name="plus" unicode="+" horiz-adv-x="1153" 
d="M479 121v366h-364v181h364v366h193v-366h366v-181h-366v-366h-193z" />
    <glyph glyph-name="comma" unicode="," horiz-adv-x="456" 
d="M117 -139q70 3 100.5 33t30.5 90q-76 0 -120 38.5t-44 98.5q0 56 37.5 92.5t95.5 36.5q69 0 112.5 -52.5t43.5 -156.5q0 -127 -66 -199.5t-174 -72.5h-16v92z" />
    <glyph glyph-name="hyphen" unicode="-" horiz-adv-x="749" 
d="M82 492v157h586v-157h-586z" />
    <glyph glyph-name="period" unicode="." horiz-adv-x="440" 
d="M219 -20q-56 0 -95.5 39t-39.5 96q0 55 40 95t95 40q57 0 97 -39.5t40 -95.5q0 -57 -40 -96t-97 -39z" />
    <glyph glyph-name="slash" unicode="/" horiz-adv-x="886" 
d="M61 2l557 1432h207l-557 -1432h-207z" />
    <glyph glyph-name="zero" unicode="0" horiz-adv-x="1288" 
d="M643 -20q-115 0 -214 44t-177 131.5t-123 231.5t-45 330q0 185 45 328.5t123 230.5t177 131.5t214 44.5q116 0 215.5 -44.5t177.5 -131.5t123 -230.5t45 -328.5q0 -186 -45 -330t-123 -231.5t-177.5 -131.5t-215.5 -44zM281 717q0 -255 93.5 -408t268.5 -153t269 153
t94 408q0 254 -94 406.5t-269 152.5t-268.5 -152.5t-93.5 -406.5z" />
    <glyph glyph-name="one" unicode="1" horiz-adv-x="722" 
d="M360 1167q-44 -51 -117 -81t-159 -31v172q105 9 178 64t98 143h207v-1434h-207v1167z" />
    <glyph glyph-name="two" unicode="2" horiz-adv-x="1136" 
d="M82 59q0 195 87 330t308 266q164 100 199 125q116 83 145 170q13 40 13 84q1 117 -73 179.5t-190 62.5q-120 0 -195 -71t-75 -210v-28h-201v39q0 130 51.5 229.5t160 158t261.5 58.5q220 0 343.5 -112.5t123.5 -295.5q0 -54 -12.5 -102.5t-29.5 -86t-51 -76t-61 -63.5
t-75.5 -58t-78.5 -51t-85 -50q-173 -105 -251.5 -188.5t-78.5 -184.5v-10h727v-174h-962v59z" />
    <glyph glyph-name="three" unicode="3" horiz-adv-x="1191" 
d="M584 -20q-251 0 -380.5 131.5t-129.5 355.5h194q1 -150 89.5 -229.5t234.5 -79.5q135 0 226 70t91 196q0 119 -88 188.5t-252 69.5h-69v156h59q82 0 141.5 19.5t89.5 53t43 69.5t13 77q0 102 -70 159.5t-186 57.5q-121 0 -198 -69.5t-77 -219.5h-194q0 227 124 347
t349 120q211 0 332 -101t121 -264q0 -120 -66 -203t-172 -112q42 -6 83.5 -22.5t82.5 -46t72.5 -69.5t51 -97.5t19.5 -124.5q0 -192 -146 -312t-388 -120z" />
    <glyph glyph-name="four" unicode="4" horiz-adv-x="1169" 
d="M725 0v367h-651v168l651 899h207v-899h164v-168h-164v-367h-207zM258 535h467v643z" />
    <glyph glyph-name="five" unicode="5" horiz-adv-x="1185" 
d="M602 -20q-238 0 -373 128t-135 332h189q4 -135 93.5 -212.5t221.5 -77.5q136 0 228 83.5t92 249.5q0 86 -26 152t-71.5 104.5t-100.5 58t-118 19.5q-91 0 -166 -38.5t-117 -110.5h-196l117 766h755v-166h-612l-68 -428q39 52 126.5 95.5t209.5 43.5q206 0 338.5 -134
t132.5 -362q0 -235 -141.5 -369t-378.5 -134z" />
    <glyph glyph-name="six" unicode="6" horiz-adv-x="1210" 
d="M621 -20q-117 0 -211.5 42.5t-166 128.5t-110.5 227.5t-39 328.5q0 123 16.5 229.5t56 203t100.5 164.5t154.5 108t213.5 40q111 0 199.5 -33.5t141 -89t80 -121.5t27.5 -137h-182q-12 100 -84.5 157.5t-185.5 57.5q-81 0 -143.5 -33t-99 -83.5t-60 -122t-32 -137.5
t-9.5 -142q58 86 153.5 136t218.5 50q93 0 176 -30t148.5 -87.5t104 -150.5t38.5 -211q0 -122 -42 -218.5t-114 -155.5t-161 -90t-188 -31zM313 477q0 -151 88 -239t220 -88q133 0 220 88t87 239q0 149 -85.5 233.5t-219.5 84.5t-222 -84.5t-88 -233.5z" />
    <glyph glyph-name="seven" unicode="7" horiz-adv-x="1011" 
d="M250 0q55 589 493 1262h-682v172h879v-172q-213 -327 -340.5 -639t-153.5 -623h-196z" />
    <glyph glyph-name="eight" unicode="8" horiz-adv-x="1165" 
d="M582 -20q-145 0 -259.5 49.5t-181.5 147t-67 229.5q0 138 70 233.5t196 144.5q-85 41 -133.5 123t-48.5 183q0 158 114 260t310 102q197 0 310.5 -102t113.5 -260q0 -100 -48.5 -182.5t-132.5 -123.5q126 -49 196.5 -144.5t70.5 -233.5q0 -198 -143 -312t-367 -114z
M272 422q0 -121 82.5 -193.5t227.5 -72.5q144 0 226.5 73t82.5 193q0 122 -83.5 196t-225.5 74q-141 0 -225.5 -74t-84.5 -196zM352 1077q0 -96 60 -152.5t170 -56.5t170.5 56.5t60.5 152.5q0 94 -59 147.5t-172 53.5t-171.5 -53.5t-58.5 -147.5z" />
    <glyph glyph-name="nine" unicode="9" horiz-adv-x="1210" 
d="M590 1450q117 0 211.5 -42.5t165.5 -128.5t110 -227.5t39 -328.5q0 -123 -16.5 -229.5t-56 -203.5t-100.5 -165t-155 -108t-213 -40q-111 0 -199.5 33.5t-141 89t-80 121.5t-27.5 137h182q12 -99 85 -157t186 -58q81 0 143.5 33t99 83.5t60 122.5t32 138t9.5 142
q-58 -86 -154 -136.5t-219 -50.5q-93 0 -176 30t-148.5 87.5t-104 150.5t-38.5 211q0 122 42.5 218.5t114 156t161 90.5t188.5 31zM283 952q0 -149 85.5 -233t219.5 -84t221.5 84t87.5 233q0 151 -87.5 239.5t-219.5 88.5q-133 0 -220 -88.5t-87 -239.5z" />
    <glyph glyph-name="colon" unicode=":" horiz-adv-x="440" 
d="M219 -20q-56 0 -95.5 39t-39.5 96q0 55 40 95t95 40q57 0 97 -39.5t40 -95.5q0 -57 -40 -96t-97 -39zM84 930q0 56 40 95.5t95 39.5q57 0 97 -39.5t40 -95.5q0 -57 -40 -96t-97 -39q-56 0 -95.5 39t-39.5 96z" />
    <glyph glyph-name="semicolon" unicode=";" horiz-adv-x="456" 
d="M219 795q-56 0 -95.5 39t-39.5 96q0 56 40 95.5t95 39.5q57 0 97 -39.5t40 -95.5q0 -57 -40 -96t-97 -39zM84 121q0 56 37.5 92.5t95.5 36.5q69 0 112.5 -52.5t43.5 -156.5q0 -127 -66 -199.5t-174 -72.5h-16v92q70 3 100.5 33t30.5 90q-76 0 -120 38.5t-44 98.5z" />
    <glyph glyph-name="less" unicode="&#x3c;" horiz-adv-x="1038" 
d="M946 0l-854 399v189l854 399v-196l-667 -297l667 -297v-197z" />
    <glyph glyph-name="equal" unicode="=" horiz-adv-x="862" 
d="M115 328v157h633v-157h-633zM115 655v158h633v-158h-633z" />
    <glyph glyph-name="greater" unicode="&#x3e;" horiz-adv-x="1038" 
d="M92 0v197l668 297l-668 297v196l854 -399v-189z" />
    <glyph glyph-name="question" unicode="?" horiz-adv-x="1099" 
d="M459 498q0 70 19 126.5t49 94t66.5 69.5t73 59t66.5 55t49 65.5t19 83.5q0 99 -63 159t-179 60q-125 0 -192.5 -77t-67.5 -216h-207q-1 119 34 210.5t99.5 147.5t148.5 84.5t185 28.5q199 0 324 -105t125 -292q0 -65 -18 -116.5t-47.5 -85t-64.5 -62.5t-70 -56.5
t-64.5 -57.5t-47.5 -74.5t-18 -100.5v-76h-219v76zM432 115q0 55 40 95t95 40q57 0 97.5 -39.5t40.5 -95.5q0 -57 -40.5 -96t-97.5 -39q-56 0 -95.5 39t-39.5 96z" />
    <glyph glyph-name="at" unicode="@" horiz-adv-x="1619" 
d="M844 -20q-158 0 -296 50t-241.5 142.5t-163 233t-59.5 311.5q0 169 58.5 309t159 232.5t235 143t286.5 50.5q204 0 366 -86.5t254.5 -247.5t92.5 -370q0 -196 -79.5 -298t-201.5 -102q-92 0 -150 52.5t-71 129.5q-18 -75 -89 -128.5t-167 -53.5q-59 0 -113 22.5t-99 65
t-72 112.5t-27 157q0 88 26 158t70 112t98.5 64t114.5 22q104 0 176.5 -57t69.5 -140l14 176h101v-393q0 -93 32 -140.5t88 -47.5q74 0 114 78.5t40 207.5q0 266 -162 426t-428 160q-129 0 -240.5 -41.5t-194.5 -118.5t-130 -193.5t-47 -258.5q0 -145 49.5 -263
t136.5 -195.5t204.5 -119t254.5 -41.5q126 0 221 31v-119q-92 -32 -231 -32zM592 707q0 -106 55.5 -175t145.5 -69q91 0 147.5 69t56.5 175t-56 172.5t-148 66.5q-90 0 -145.5 -67t-55.5 -172z" />
    <glyph glyph-name="A" unicode="A" horiz-adv-x="1429" 
d="M43 0l539 1434h266l538 -1434h-223l-121 330h-655l-121 -330h-223zM446 492h537l-262 718h-12z" />
    <glyph glyph-name="B" unicode="B" horiz-adv-x="1261" 
d="M115 0v1434h547q221 0 331.5 -94.5t110.5 -256.5q0 -226 -199 -297q142 -39 217.5 -132.5t75.5 -237.5q0 -187 -133 -301.5t-391 -114.5h-559zM328 182h334q155 0 233 67.5t78 180.5q0 112 -78 178t-233 66h-334v-492zM328 854h319q115 0 176.5 52t61.5 151
q0 96 -61.5 146t-176.5 50h-319v-399z" />
    <glyph glyph-name="C" unicode="C" horiz-adv-x="1372" 
d="M739 -20q-299 0 -477 193t-178 544q0 350 178 542.5t479 192.5q232 0 386 -118t184 -345h-209q-33 137 -129.5 208t-237.5 71q-205 0 -320.5 -146.5t-115.5 -404.5q0 -259 115 -406t321 -147q141 0 237.5 71t129.5 209h209q-30 -229 -184.5 -346.5t-387.5 -117.5z" />
    <glyph glyph-name="D" unicode="D" horiz-adv-x="1363" 
d="M115 0v1434h489q335 0 506.5 -184.5t171.5 -532.5t-171.5 -532.5t-506.5 -184.5h-489zM328 186h256q252 0 366.5 129t114.5 402q0 274 -114 402t-367 128h-256v-1061z" />
    <glyph glyph-name="E" unicode="E" horiz-adv-x="1130" 
d="M115 0v1434h932v-187h-719v-430h657v-170h-657v-461h739v-186h-952z" />
    <glyph glyph-name="F" unicode="F" horiz-adv-x="1097" 
d="M115 0v1434h921v-187h-708v-446h583v-176h-583v-625h-213z" />
    <glyph glyph-name="G" unicode="G" horiz-adv-x="1437" 
d="M739 -20q-307 0 -481 191.5t-174 541.5q0 353 177.5 546t475.5 193q221 0 374 -106.5t192 -307.5h-211q-37 116 -130.5 173t-224.5 57q-213 0 -326.5 -144t-113.5 -405q0 -262 115.5 -408.5t328.5 -146.5q176 0 284.5 103.5t107.5 312.5h-332v172h542v-115
q0 -320 -158 -488.5t-446 -168.5z" />
    <glyph glyph-name="H" unicode="H" horiz-adv-x="1347" 
d="M1022 0v618h-694v-618h-213v1434h213v-639h694v639h211v-1434h-211z" />
    <glyph glyph-name="I" unicode="I" horiz-adv-x="440" 
d="M115 0v1434h213v-1434h-213z" />
    <glyph glyph-name="J" unicode="J" horiz-adv-x="1343" 
d="M670 -20q-258 0 -406.5 144t-148.5 413h213q0 -179 91 -275t253 -96q164 0 255 99.5t91 291.5v877h213v-893q0 -270 -150.5 -415.5t-410.5 -145.5z" />
    <glyph glyph-name="K" unicode="K" horiz-adv-x="1343" 
d="M115 0v1434h213v-760l667 760h254l-577 -654l628 -780h-247l-514 629l-211 -238v-391h-213z" />
    <glyph glyph-name="L" unicode="L" horiz-adv-x="1099" 
d="M115 0v1434h213v-1248h710v-186h-923z" />
    <glyph glyph-name="M" unicode="M" horiz-adv-x="1710" 
d="M115 0v1434h262l479 -1151l479 1151h262v-1434h-213v1053h-8l-436 -1053h-168l-438 1053h-6v-1053h-213z" />
    <glyph glyph-name="N" unicode="N" horiz-adv-x="1378" 
d="M115 0v1434h229l700 -1100h7v1100h213v-1434h-238l-694 1090h-4v-1090h-213z" />
    <glyph glyph-name="O" unicode="O" horiz-adv-x="1488" 
d="M745 -20q-145 0 -266.5 50.5t-209 144t-136.5 232.5t-49 310t49 310t136.5 232t209 143t266.5 50q294 0 477 -197t183 -538t-183 -539t-477 -198zM301 717q0 -262 121 -407.5t323 -145.5q201 0 322 145.5t121 407.5t-121 406.5t-322 144.5q-202 0 -323 -144.5
t-121 -406.5z" />
    <glyph glyph-name="P" unicode="P" horiz-adv-x="1236" 
d="M115 0v1434h540q256 0 387.5 -121t131.5 -334q0 -210 -131.5 -330.5t-387.5 -120.5h-327v-528h-213zM328 715h319q153 0 231 68.5t78 195.5q0 129 -78 198.5t-231 69.5h-319v-532z" />
    <glyph glyph-name="Q" unicode="Q" horiz-adv-x="1488" 
d="M1274 -35l-135 137q-162 -122 -394 -122q-145 0 -266.5 50.5t-209 144t-136.5 232.5t-49 310t49 310t136.5 232t209 143t266.5 50q294 0 477 -197t183 -538q0 -295 -141 -488l139 -141zM301 717q0 -262 121 -407.5t323 -145.5q148 0 254 80l-245 248l129 122l231 -233
q74 135 74 336q0 262 -121 406.5t-322 144.5q-202 0 -323 -144.5t-121 -406.5z" />
    <glyph glyph-name="R" unicode="R" horiz-adv-x="1249" 
d="M973 0l-309 528h-9h-327v-528h-213v1434h540q256 0 387.5 -121t131.5 -334q0 -163 -79 -273.5t-235 -152.5l326 -553h-213zM328 715h319q153 0 231 68.5t78 195.5q0 129 -78 198.5t-231 69.5h-319v-532z" />
    <glyph glyph-name="S" unicode="S" horiz-adv-x="1280" 
d="M647 -20q-268 0 -415.5 122t-147.5 332h217q6 -124 92 -199t256 -75q157 0 240.5 64.5t83.5 176.5q0 100 -65.5 153.5t-192.5 78.5l-193 39q-397 80 -397 385q0 186 135.5 290.5t378.5 104.5t379.5 -106t136.5 -295h-217q-2 103 -80 162t-223 59q-147 0 -218 -59.5
t-71 -155.5q0 -165 232 -213l184 -37q220 -44 327 -140t107 -264q0 -205 -148 -314t-401 -109z" />
    <glyph glyph-name="T" unicode="T" horiz-adv-x="1200" 
d="M494 0v1243h-441v191h1094v-191h-440v-1243h-213z" />
    <glyph glyph-name="U" unicode="U" horiz-adv-x="1355" 
d="M678 -20q-262 0 -412.5 145.5t-150.5 417.5v891h213v-877q0 -189 92 -290t258 -101t258 101t92 290v877h215v-891q0 -271 -152 -417t-413 -146z" />
    <glyph glyph-name="V" unicode="V" horiz-adv-x="1449" 
d="M592 0l-539 1434h223l443 -1211h12l443 1211h223l-539 -1434h-266z" />
    <glyph glyph-name="W" unicode="W" horiz-adv-x="2015" 
d="M434 0l-381 1434h217l283 -1135h10l334 1135h223l332 -1135h10l283 1135h217l-379 -1434h-225l-350 1163l-351 -1163h-223z" />
    <glyph glyph-name="X" unicode="X" horiz-adv-x="1343" 
d="M1061 0l-389 565l-389 -565h-240l510 739l-479 695h239l359 -521l358 521h238l-477 -695l509 -739h-239z" />
    <glyph glyph-name="Y" unicode="Y" horiz-adv-x="1370" 
d="M575 0v549l-522 885h240l391 -678l393 678h240l-522 -885v-549h-220z" />
    <glyph glyph-name="Z" unicode="Z" horiz-adv-x="1257" 
d="M82 0v186l848 1061h-819v187h1056l-2 -187l-848 -1061h859v-186h-1094z" />
    <glyph glyph-name="bracketleft" unicode="[" horiz-adv-x="602" 
d="M115 -266v1792h372v-178h-165v-1436h165v-178h-372z" />
    <glyph glyph-name="backslash" unicode="\" horiz-adv-x="886" 
d="M825 2h-207l-557 1432h207z" />
    <glyph glyph-name="bracketright" unicode="]" horiz-adv-x="602" 
d="M487 -266h-372v178h166v1436h-166v178h372v-1792z" />
    <glyph glyph-name="asciicircum" unicode="^" horiz-adv-x="997" 
d="M92 952l340 482h135l338 -482h-188l-217 312l-217 -312h-191z" />
    <glyph glyph-name="underscore" unicode="_" horiz-adv-x="1208" 
d="M92 -180v180h1024v-180h-1024z" />
    <glyph glyph-name="grave" unicode="`" horiz-adv-x="393" 
d="M209 1190l-209 274h184l209 -274h-184z" />
    <glyph glyph-name="a" unicode="a" horiz-adv-x="1118" 
d="M420 -20q-159 0 -258 74t-99 225q0 270 340 311l265 31q72 9 101.5 23.5t29.5 39.5v29q0 121 -59 168t-179 47q-121 0 -180 -41t-59 -139v-25h-199v43q0 319 442 319q227 0 334 -89t107 -281v-715h-195v172h-8q-8 -17 -22 -36.5t-46 -48.5t-72.5 -51.5t-104.5 -39
t-138 -16.5zM270 289q0 -148 201 -148q81 0 145.5 23t103.5 61t59 81.5t20 88.5v117q-11 -18 -41.5 -29t-104.5 -20l-200 -27q-98 -12 -140.5 -47.5t-42.5 -99.5z" />
    <glyph glyph-name="b" unicode="b" horiz-adv-x="1216" 
d="M678 -20q-119 0 -214 50t-142 138v-168h-207v1434h207v-537q47 88 142 138t214 50q92 0 175 -33t151 -97.5t108.5 -173.5t40.5 -249q0 -139 -40.5 -248t-108.5 -173.5t-151 -97.5t-175 -33zM311 532q0 -94 27.5 -168t73.5 -119t103 -68t120 -23q64 0 120.5 23t102 68
t72 119t26.5 168t-26.5 168.5t-72 119.5t-102 68t-120.5 23q-63 0 -120 -23t-103 -68t-73.5 -119.5t-27.5 -168.5z" />
    <glyph glyph-name="c" unicode="c" horiz-adv-x="1110" 
d="M584 -20q-82 0 -157 20t-142 63.5t-116 106.5t-77.5 155.5t-28.5 204.5t28.5 205t77.5 157t116 108t142 64.5t157 20.5q61 0 118 -10.5t116.5 -39t105 -72t80 -115t45.5 -162.5h-189q-21 116 -95.5 169.5t-182.5 53.5q-148 0 -236 -100.5t-88 -278.5q0 -177 87.5 -275.5
t236.5 -98.5q109 0 183 54.5t95 172.5h189q-10 -93 -44 -165t-80 -116t-106 -72.5t-117 -39t-118 -10.5z" />
    <glyph glyph-name="d" unicode="d" horiz-adv-x="1216" 
d="M539 -20q-92 0 -175 33t-151.5 97.5t-109 173.5t-40.5 248q0 140 40.5 249t109 173.5t151.5 97.5t175 33q119 0 214 -50t142 -138v537h207v-1434h-207v168q-47 -88 -142 -138t-214 -50zM260 532q0 -94 26.5 -168t72.5 -119t102.5 -68t120.5 -23q63 0 120 23t103 68
t73 119t27 168t-27 168.5t-73 119.5t-103 68t-120 23q-64 0 -120.5 -23t-102.5 -68t-72.5 -119.5t-26.5 -168.5z" />
    <glyph glyph-name="e" unicode="e" horiz-adv-x="1120" 
d="M580 -20q-110 0 -202 32.5t-163.5 98t-111.5 172.5t-40 247q0 142 40.5 251t111.5 174t160.5 97.5t195.5 32.5q105 0 192 -32t153.5 -96.5t103.5 -169t37 -240.5q0 -45 -6 -80h-789q23 -326 320 -326q214 0 276 172h184q-31 -115 -100 -191.5t-159.5 -109t-202.5 -32.5z
M264 623h596q-3 141 -79.5 221t-211.5 80q-131 0 -211.5 -76t-93.5 -225z" />
    <glyph glyph-name="f" unicode="f" horiz-adv-x="671" 
d="M190 1184q0 282 302 282h129v-161h-78q-79 0 -112.5 -35.5t-33.5 -114.5v-90h217v-162h-217v-903h-207v903h-147v162h147v119z" />
    <glyph glyph-name="g" unicode="g" horiz-adv-x="1204" 
d="M526 25q-72 0 -138 18.5t-125.5 60t-103.5 102t-70 150t-26 199.5q0 136 39.5 241t106 166.5t147 92t170.5 30.5q115 0 210 -46.5t147 -129.5v156h207v-1042q0 -106 -33.5 -187.5t-85.5 -130t-124 -80t-139.5 -42.5t-140.5 -11q-68 0 -130.5 9.5t-126 34t-110 62.5
t-76 99t-30.5 139h182q4 -87 86 -134.5t201 -47.5q142 0 231 71.5t89 217.5v178q-52 -83 -147 -129.5t-210 -46.5zM258 555q0 -173 91.5 -265.5t225.5 -92.5q63 0 119 22t101 65t71.5 113t26.5 158t-26.5 158t-71.5 112t-101 64t-119 22q-134 0 -225.5 -91.5t-91.5 -264.5z
" />
    <glyph glyph-name="h" unicode="h" 
d="M115 0v1434h207v-582h6q8 34 31.5 71t64 75t109.5 62.5t153 24.5q81 0 147.5 -24t119 -73t81.5 -131.5t29 -192.5v-664h-207v616q0 144 -62.5 219.5t-187.5 75.5q-129 0 -206.5 -77.5t-77.5 -217.5v-616h-207z" />
    <glyph glyph-name="i" unicode="i" horiz-adv-x="436" 
d="M115 0v1065h207v-1065h-207zM94 1372q0 51 36.5 87t86.5 36t86.5 -36t36.5 -87q0 -52 -36.5 -87.5t-86.5 -35.5t-86.5 35.5t-36.5 87.5z" />
    <glyph glyph-name="j" unicode="j" horiz-adv-x="466" 
d="M53 -389q-86 0 -133 6v162h80q80 0 113.5 35.5t33.5 115.5v1135h207v-1169q0 -285 -301 -285zM127 1372q0 51 36.5 87t86.5 36t86.5 -36t36.5 -87q0 -52 -36.5 -87.5t-86.5 -35.5t-86.5 35.5t-36.5 87.5z" />
    <glyph glyph-name="k" unicode="k" horiz-adv-x="1134" 
d="M115 0v1434h207v-904l499 535h234l-445 -459l502 -606h-231l-400 473l-159 -164v-309h-207z" />
    <glyph glyph-name="l" unicode="l" horiz-adv-x="436" 
d="M115 0v1434h207v-1434h-207z" />
    <glyph glyph-name="m" unicode="m" horiz-adv-x="1816" 
d="M1495 616q0 295 -229 295q-115 0 -184.5 -77.5t-69.5 -217.5v-616h-207v616q0 144 -58 219.5t-172 75.5q-115 0 -184 -77.5t-69 -217.5v-616h-207v1065h207v-213h6q7 33 29.5 70.5t61 75.5t101.5 62.5t137 24.5q119 0 206 -59.5t124 -181.5q11 36 35.5 74.5t65.5 77.5
t106.5 64t144.5 25q165 0 264 -103t99 -318v-664h-207v616z" />
    <glyph glyph-name="n" unicode="n" 
d="M856 616q0 144 -62.5 219.5t-187.5 75.5q-129 0 -206.5 -77.5t-77.5 -217.5v-616h-207v1065h207v-213h6q8 34 31.5 71t64 75t109.5 62.5t153 24.5q81 0 147.5 -24t119 -73t81.5 -131.5t29 -192.5v-664h-207v616z" />
    <glyph glyph-name="o" unicode="o" horiz-adv-x="1165" 
d="M582 -20q-102 0 -193 33.5t-165 99t-117.5 173.5t-43.5 246q0 111 28.5 203.5t78 156t116 108t141 65t155.5 20.5q102 0 193.5 -33.5t165.5 -99t117.5 -174t43.5 -246.5t-43.5 -246t-117.5 -173.5t-165.5 -99t-193.5 -33.5zM260 532q0 -186 91.5 -282t230.5 -96t231 96
t92 282t-92 282.5t-231 96.5t-230.5 -96.5t-91.5 -282.5z" />
    <glyph glyph-name="p" unicode="p" horiz-adv-x="1216" 
d="M115 -389v1454h207v-168q47 88 142 138t214 50q92 0 175 -33t151 -97.5t108.5 -173.5t40.5 -249q0 -139 -40.5 -248t-108.5 -173.5t-151 -97.5t-175 -33q-119 0 -214 50t-142 138v-557h-207zM311 532q0 -94 27.5 -168t73.5 -119t103 -68t120 -23q64 0 120.5 23t102 68
t72 119t26.5 168t-26.5 168.5t-72 119.5t-102 68t-120.5 23q-63 0 -120 -23t-103 -68t-73.5 -119.5t-27.5 -168.5z" />
    <glyph glyph-name="q" unicode="q" horiz-adv-x="1216" 
d="M1102 -389h-207v557q-47 -88 -142 -138t-214 -50q-92 0 -175 33t-151.5 97.5t-109 173.5t-40.5 248q0 140 40.5 249t109 173.5t151.5 97.5t175 33q119 0 214 -50t142 -138v168h207v-1454zM260 532q0 -94 26.5 -168t72.5 -119t102.5 -68t120.5 -23q63 0 120 23t103 68
t73 119t27 168t-27 168.5t-73 119.5t-103 68t-120 23q-64 0 -120.5 -23t-102.5 -68t-72.5 -119.5t-26.5 -168.5z" />
    <glyph glyph-name="r" unicode="r" horiz-adv-x="776" 
d="M322 532v-532h-207v1065h207v-246h4q28 107 110 180.5t217 73.5q49 0 80 -10v-174q-40 6 -78 6q-153 0 -243 -94t-90 -269z" />
    <glyph glyph-name="s" unicode="s" horiz-adv-x="997" 
d="M498 -20q-200 0 -320.5 85t-124.5 252h187q8 -63 46 -104t91.5 -57.5t122.5 -16.5q105 0 169 40t64 122q0 61 -39.5 92.5t-120.5 50.5l-198 45q-291 68 -291 293q0 144 112.5 223.5t301.5 79.5q192 0 301 -85t116 -248h-174q-13 94 -74 134t-167 40q-105 0 -160 -35.5
t-55 -104.5q0 -56 37 -90t120 -53l201 -45q70 -17 120.5 -38t93.5 -55t65 -84t22 -116q0 -85 -36.5 -149.5t-100 -102t-141 -55.5t-168.5 -18z" />
    <glyph glyph-name="t" unicode="t" horiz-adv-x="702" 
d="M516 -14q-299 0 -299 284v631h-174v164h174v268h207v-268h211v-164h-211v-596q0 -81 32.5 -116t116.5 -35q43 0 76 4v-156q-62 -16 -133 -16z" />
    <glyph glyph-name="u" unicode="u" 
d="M322 449q0 -144 62 -219.5t187 -75.5q129 0 207 77.5t78 217.5v616h207v-1065h-207v213h-6q-8 -34 -31.5 -71t-64 -75t-109.5 -62.5t-153 -24.5q-81 0 -147.5 24t-119 73t-81.5 131.5t-29 192.5v664h207v-616z" />
    <glyph glyph-name="v" unicode="v" horiz-adv-x="1153" 
d="M446 0l-403 1065h211l319 -868h9l319 868h211l-405 -1065h-261z" />
    <glyph glyph-name="w" unicode="w" horiz-adv-x="1650" 
d="M340 0l-297 1065h199l223 -858h8l262 858h180l263 -858h8l223 858h199l-299 -1065h-234l-250 791l-252 -791h-233z" />
    <glyph glyph-name="x" unicode="x" horiz-adv-x="1112" 
d="M63 0l377 539l-362 526h227l250 -375l252 375h227l-362 -526l377 -539h-228l-266 387l-266 -387h-226z" />
    <glyph glyph-name="y" unicode="y" horiz-adv-x="1124" 
d="M152 -221q52 -9 93.5 -4t71.5 15.5t53.5 32t39 45.5t28.5 56q17 42 17.5 74t-13.5 68l-399 999h213l305 -813l307 813h213l-450 -1126q-83 -206 -192 -283t-287 -55v178z" />
    <glyph glyph-name="z" unicode="z" horiz-adv-x="1026" 
d="M82 0v176l616 713h-596v176h842v-176l-616 -713h616v-176h-862z" />
    <glyph glyph-name="braceleft" unicode="{" horiz-adv-x="626" 
d="M377 -266q-35 0 -67.5 10t-61.5 31.5t-46.5 60.5t-17.5 92v553l-92 146l92 149v555q0 53 17.5 92.5t46.5 61t61.5 31.5t67.5 10h158v-178h-72q-33 0 -52.5 -18t-19.5 -50v-514l-98 -139l98 -135v-512q0 -32 19.5 -50t52.5 -18h72v-178h-158z" />
    <glyph glyph-name="bar" unicode="|" horiz-adv-x="487" 
d="M154 -389v2027h180v-2027h-180z" />
    <glyph glyph-name="braceright" unicode="}" horiz-adv-x="626" 
d="M250 -266h-158v178h72q33 0 52.5 18t19.5 50v512l98 135l-98 139v514q0 32 -19.5 50t-52.5 18h-72v178h158q77 0 134.5 -47t57.5 -148v-555l93 -149l-93 -146v-553q0 -53 -17 -92t-46 -60.5t-61.5 -31.5t-67.5 -10z" />
    <glyph glyph-name="asciitilde" unicode="~" horiz-adv-x="1105" 
d="M764 432q-51 0 -99 19t-85 46.5t-72.5 55t-75 46.5t-78.5 19q-54 0 -83 -32t-29 -76h-127q-4 105 60.5 170t164.5 65q51 0 99 -19t85 -46t72.5 -54t75 -46t78.5 -19q55 0 84.5 32t29.5 77h127q3 -106 -61.5 -172t-165.5 -66z" />
    <glyph glyph-name="uni00A0" unicode="&#xa0;" horiz-adv-x="471" 
 />
    <glyph glyph-name="exclamdown" unicode="&#xa1;" horiz-adv-x="501" 
d="M170 631h162l24 -1000h-211zM115 950q0 57 39.5 96t95.5 39q57 0 97 -39t40 -96q0 -56 -40 -95.5t-97 -39.5q-56 0 -95.5 39.5t-39.5 95.5z" />
    <glyph glyph-name="cent" unicode="&#xa2;" horiz-adv-x="1110" 
d="M526 -82v217q-95 9 -176.5 45.5t-146.5 100.5t-102.5 165t-37.5 228t37.5 228t102.5 165.5t146.5 101t176.5 45.5v220h84v-217q59 -3 113 -15t110 -41t99 -71.5t74.5 -110.5t42.5 -154h-189q-19 107 -85.5 160t-164.5 59v-739q99 8 165 62t85 161h189q-10 -87 -41 -155.5
t-74 -111.5t-99 -72t-110.5 -41t-114.5 -15v-215h-84zM258 674q0 -157 71.5 -252t196.5 -113v731q-125 -19 -196.5 -114.5t-71.5 -251.5z" />
    <glyph glyph-name="sterling" unicode="&#xa3;" horiz-adv-x="1138" 
d="M96 113q197 194 197 374q0 56 -19 111h-180v119h127q-3 5 -15.5 30t-16.5 32.5t-15 30.5t-15 34.5t-12.5 33.5t-12 38t-8 37t-6 42t-1.5 43q0 187 131 298.5t332 111.5t331.5 -114t130.5 -312v-39h-196v33q0 113 -69 183.5t-195 70.5q-124 0 -194.5 -67t-70.5 -173
q0 -40 12.5 -85t25.5 -73.5t39.5 -80t37.5 -74.5h260v-119h-217q10 -45 10 -86q0 -186 -190 -352q72 26 145.5 30t139.5 -6t133 -21t149 -9.5t164 24.5v-178q-76 -19 -154.5 -21t-141 8.5t-133 21.5t-132.5 17.5t-137.5 -4t-149.5 -42.5z" />
    <glyph glyph-name="currency" unicode="&#xa4;" horiz-adv-x="1179" 
d="M588 516q-146 0 -266 84l-84 -84l-136 131l93 92q-66 109 -66 236q0 128 68 239l-95 95l136 133l90 -90q119 82 260 82q142 0 264 -82l90 90l135 -133l-96 -97q66 -113 66 -237q0 -125 -64 -234l94 -94l-135 -131l-86 86q-123 -86 -268 -86zM301 975q0 -49 19 -98.5
t54 -92t91 -69.5t123 -27t123.5 27t91.5 69.5t54.5 92t19.5 98.5q0 48 -19.5 98t-54.5 92.5t-91.5 69.5t-123.5 27t-123 -27t-91 -70t-54 -92.5t-19 -97.5z" />
    <glyph glyph-name="yen" unicode="&#xa5;" horiz-adv-x="1370" 
d="M315 440v113h258l-520 881h240l391 -678l393 678h240l-520 -881h260v-113h-262v-94h262v-110h-262v-236h-220v236h-260v110h260v94h-260z" />
    <glyph glyph-name="brokenbar" unicode="&#xa6;" horiz-adv-x="487" 
d="M154 983v655h180v-655h-180zM154 -389v655h180v-655h-180z" />
    <glyph glyph-name="section" unicode="&#xa7;" horiz-adv-x="1339" 
d="M662 -483q-254 0 -396.5 115.5t-163.5 324.5h230q19 -118 96 -183t236 -65q160 0 241.5 57t81.5 160q0 104 -62 157.5t-186 80.5l-200 43q-193 43 -295.5 134.5t-102.5 258.5q0 144 92 242q-71 90 -71 225q0 175 134.5 279t373.5 104q230 0 364.5 -99.5t157.5 -287.5
h-227q-27 194 -295 194q-145 0 -213 -55t-68 -141q0 -78 48.5 -129.5t160.5 -75.5l199 -45q224 -48 332 -145.5t108 -276.5q0 -140 -86 -239q66 -91 66 -226q0 -134 -71 -226.5t-194 -136.5t-290 -44zM369 594q0 -78 48.5 -129.5t160.5 -75.5l198 -45q116 -24 201 -61
q31 45 31 106q0 105 -62.5 160t-185.5 82l-201 43q-87 21 -141 43q-49 -49 -49 -123z" />
    <glyph glyph-name="dieresis" unicode="&#xa8;" horiz-adv-x="665" 
d="M543 1249q-50 0 -86.5 35.5t-36.5 85.5t36.5 85.5t86.5 35.5t86.5 -35.5t36.5 -85.5t-36.5 -85.5t-86.5 -35.5zM0 1370q0 50 36.5 85.5t86.5 35.5t86.5 -35.5t36.5 -85.5t-36.5 -85.5t-86.5 -35.5t-86.5 35.5t-36.5 85.5z" />
    <glyph glyph-name="copyright" unicode="&#xa9;" horiz-adv-x="1630" 
d="M815 -14q-200 0 -367 93.5t-265.5 261.5t-98.5 376q0 155 58 291.5t156.5 232t233 150.5t283.5 55t283.5 -55t233 -150.5t156.5 -232t58 -291.5q0 -208 -98.5 -376t-265.5 -261.5t-367 -93.5zM209 717q0 -174 81 -314t219.5 -217t305.5 -77q166 0 304 77t219 217t81 314
q0 173 -81 312.5t-219 216.5t-304 77q-167 0 -305.5 -77t-219.5 -216.5t-81 -312.5zM412 717q0 194 118 308t289 114q55 0 107 -13.5t102.5 -42.5t89.5 -84t58 -131h-136q-21 72 -81 108t-140 36q-120 0 -196 -77t-76 -218q0 -142 76 -219.5t196 -77.5q81 0 141 36t84 111
h134q-18 -76 -57.5 -132t-90.5 -85.5t-103.5 -43t-107.5 -13.5q-171 0 -289 115t-118 309z" />
    <glyph glyph-name="ordfeminine" unicode="&#xaa;" horiz-adv-x="768" 
d="M283 776q-95 0 -157.5 48.5t-62.5 146.5q0 97 62 140.5t170 51.5l223 19q0 89 -31.5 125t-113.5 36q-146 0 -146 -104h-127q3 217 275 217q157 0 217.5 -73t60.5 -234v-369h-116l-7 117q-34 -52 -98.5 -86.5t-148.5 -34.5zM207 985q0 -43 31 -67.5t90 -24.5q78 0 128 36
t62 81v84l-196 -15q-115 -9 -115 -94z" />
    <glyph glyph-name="guillemotleft" unicode="&#xab;" horiz-adv-x="864" 
d="M782 260l-319 266v168l319 267v-193l-184 -158l184 -157v-193zM82 526v168l319 267v-193l-186 -158l186 -157v-193z" />
    <glyph glyph-name="logicalnot" unicode="&#xac;" horiz-adv-x="1069" 
d="M748 252v223h-633v164h839v-387h-206z" />
    <glyph glyph-name="uni00AD" unicode="&#xad;" horiz-adv-x="749" 
d="M82 492v157h586v-157h-586z" />
    <glyph glyph-name="registered" unicode="&#xae;" horiz-adv-x="1630" 
d="M815 -14q-200 0 -367 93.5t-265.5 261.5t-98.5 376q0 155 58 291.5t156.5 232t233 150.5t283.5 55t283.5 -55t233 -150.5t156.5 -232t58 -291.5q0 -208 -98.5 -376t-265.5 -261.5t-367 -93.5zM209 717q0 -174 81 -314t219.5 -217t305.5 -77q166 0 304 77t219 217t81 314
q0 173 -81 312.5t-219 216.5t-304 77q-167 0 -305.5 -77t-219.5 -216.5t-81 -312.5zM518 346v741h369q132 0 206 -65t72 -178q-2 -87 -47 -147t-129 -83l180 -268h-141l-168 256h-209v-256h-133zM651 709h223q83 0 123.5 37t40.5 100q0 60 -40.5 96.5t-123.5 36.5h-223v-270
z" />
    <glyph glyph-name="macron" unicode="&#xaf;" horiz-adv-x="626" 
d="M0 1339v125h627v-125h-627z" />
    <glyph glyph-name="degree" unicode="&#xb0;" horiz-adv-x="751" 
d="M375 864q-129 0 -215 86.5t-86 214.5t86 214.5t215 86.5q130 0 216.5 -86.5t86.5 -214.5t-86.5 -214.5t-216.5 -86.5zM217 1165q0 -67 43.5 -112t114.5 -45q72 0 116 45t44 112q0 68 -44 113t-116 45q-71 0 -114.5 -45.5t-43.5 -112.5z" />
    <glyph glyph-name="plusminus" unicode="&#xb1;" horiz-adv-x="1153" 
d="M479 342v369h-364v180h364v364h193v-364h366v-180h-366v-369h-193zM225 0v160h703v-160h-703z" />
    <glyph glyph-name="uni00B2" unicode="&#xb2;" horiz-adv-x="526" 
d="M82 918q0 81 32 137t117 108q6 3 21.5 12.5t20.5 12.5t17 11t16 12t12 11.5t10.5 13t7 14t5.5 17.5t1 19q0 36 -24.5 58t-61.5 22q-38 0 -63 -24t-25 -68v-14h-86v14q0 76 45 123t129 47q83 0 129.5 -44.5t46.5 -113.5q0 -33 -11.5 -60t-37 -50.5t-48 -38.5t-63.5 -39
q-94 -56 -94 -113v-6h256v-78h-352v17z" />
    <glyph glyph-name="uni00B3" unicode="&#xb3;" horiz-adv-x="555" 
d="M276 893q-94 0 -144 47.5t-50 126.5h82q1 -51 31.5 -76.5t83.5 -25.5q50 0 80 23.5t30 68.5t-32.5 68.5t-90.5 23.5h-22v63h22q51 0 76 25t25 59t-24.5 55t-66.5 21q-45 0 -71.5 -24t-26.5 -72h-78q0 79 48.5 123.5t130.5 44.5q80 0 125 -39.5t45 -101.5q0 -45 -27.5 -76
t-65.5 -41q43 -6 80 -39.5t37 -93.5q0 -71 -52.5 -115.5t-144.5 -44.5z" />
    <glyph glyph-name="acute" unicode="&#xb4;" horiz-adv-x="393" 
d="M0 1190l209 274h184l-209 -274h-184z" />
    <glyph glyph-name="uni00B5" unicode="&#xb5;" 
d="M115 -389v1454h207v-616q0 -144 62 -219.5t187 -75.5q129 0 207 77.5t78 217.5v616h207v-1065h-207v213h-6q-8 -34 -31.5 -71t-64 -75t-109.5 -62.5t-153 -24.5q-99 0 -170 32v-401h-207z" />
    <glyph glyph-name="paragraph" unicode="&#xb6;" horiz-adv-x="1282" 
d="M631 -451v1067h-127q-104 0 -188.5 32.5t-139 88.5t-84 129.5t-29.5 157.5q0 175 117.5 292.5t323.5 117.5h663v-1885h-170v1756h-182v-1756h-184z" />
    <glyph glyph-name="periodcentered" unicode="&#xb7;" horiz-adv-x="460" 
d="M229 438q-56 0 -95.5 39t-39.5 96q0 56 40 96t95 40q57 0 97.5 -40t40.5 -96q0 -57 -40.5 -96t-97.5 -39z" />
    <glyph glyph-name="cedilla" unicode="&#xb8;" horiz-adv-x="356" 
d="M55 -362q71 -2 112.5 20.5t41.5 67.5q0 51 -46.5 69t-101.5 -10l-61 76l119 139h147l-98 -104q6 2 22 2q70 0 118 -47.5t48 -124.5q0 -54 -25 -94.5t-68.5 -63t-95 -33t-112.5 -10.5v113z" />
    <glyph glyph-name="uni00B9" unicode="&#xb9;" horiz-adv-x="368" 
d="M195 1321q-13 -25 -44.5 -36t-68.5 -5v80q36 -3 69 20.5t44 53.5h81v-535h-81v422z" />
    <glyph glyph-name="ordmasculine" unicode="&#xba;" horiz-adv-x="796" 
d="M397 776q-138 0 -236 92.5t-98 249.5q0 156 98 247t236 91q89 0 164.5 -38.5t123.5 -117t48 -182.5q0 -157 -99 -249.5t-237 -92.5zM201 1118q0 -95 55.5 -152t140.5 -57q86 0 142.5 56.5t56.5 152.5q0 94 -56.5 149.5t-142.5 55.5q-85 0 -140.5 -55.5t-55.5 -149.5z" />
    <glyph glyph-name="guillemotright" unicode="&#xbb;" horiz-adv-x="845" 
d="M74 260v193l184 157l-184 158v193l319 -267v-168zM455 260v193l186 157l-186 158v193l319 -267v-168z" />
    <glyph glyph-name="onequarter" unicode="&#xbc;" horiz-adv-x="1216" 
d="M195 1321q-13 -25 -44.5 -36t-68.5 -5v80q36 -3 69 20.5t44 53.5h81v-535h-81v422zM88 0l895 1434h109l-893 -1434h-111zM737 135v68l242 332h84v-332h61v-68h-61v-135h-84v135h-242zM813 203h166v229z" />
    <glyph glyph-name="onehalf" unicode="&#xbd;" horiz-adv-x="1204" 
d="M197 1321q-13 -25 -44.5 -36t-68.5 -5v80q36 -3 69 20.5t44 53.5h82v-535h-82v422zM106 0l895 1434h109l-893 -1434h-111zM758 0v16q0 81 32 137.5t117 108.5q6 3 21.5 12.5t20.5 12.5t17 11t16 12t12 11.5t10.5 13t7 14t5.5 17.5t1 19q0 36 -24.5 58t-61.5 22
q-38 0 -63 -24t-25 -68v-15h-86v15q0 76 45 123t129 47q83 0 129.5 -44.5t46.5 -113.5q0 -33 -11.5 -60t-37 -50.5t-48 -38.5t-63.5 -39q-94 -56 -94 -113v-6h256v-78h-352z" />
    <glyph glyph-name="threequarters" unicode="&#xbe;" horiz-adv-x="1255" 
d="M276 893q-94 0 -144 47.5t-50 126.5h82q1 -51 31.5 -76.5t83.5 -25.5q50 0 80 23.5t30 68.5t-32.5 68.5t-90.5 23.5h-22v63h22q51 0 76 25t25 59t-24.5 55t-66.5 21q-45 0 -71.5 -24t-26.5 -72h-78q0 79 48.5 123.5t130.5 44.5q80 0 125 -39.5t45 -101.5q0 -45 -27.5 -76
t-65.5 -41q43 -6 80 -39.5t37 -93.5q0 -71 -52.5 -115.5t-144.5 -44.5zM143 0l895 1434h109l-893 -1434h-111zM780 135v68l242 332h84v-332h61v-68h-61v-135h-84v135h-242zM856 203h166v229z" />
    <glyph glyph-name="questiondown" unicode="&#xbf;" horiz-adv-x="1099" 
d="M641 567q0 -70 -19 -126.5t-49 -94t-66.5 -69.5t-73 -59t-66.5 -55t-49 -65.5t-19 -83.5q0 -99 63 -159t179 -60q125 0 192.5 77t67.5 216h207q1 -119 -34 -210.5t-99.5 -147.5t-148.5 -84.5t-185 -28.5q-199 0 -324 105t-125 292q0 65 18 116.5t47.5 85t64.5 62.5
t70 56.5t64.5 57.5t47.5 74.5t18 100.5v76h219v-76zM395 950q0 57 40 96t97 39q56 0 96 -39t40 -96q0 -55 -40 -95t-96 -40q-57 0 -97 39.5t-40 95.5z" />
    <glyph glyph-name="Agrave" unicode="&#xc0;" horiz-adv-x="1429" 
d="M43 0l539 1434h266l538 -1434h-223l-121 330h-655l-121 -330h-223zM440 1833h185l209 -274h-185zM446 492h537l-262 718h-12z" />
    <glyph glyph-name="Aacute" unicode="&#xc1;" horiz-adv-x="1429" 
d="M43 0l539 1434h266l538 -1434h-223l-121 330h-655l-121 -330h-223zM446 492h537l-262 718h-12zM616 1559l209 274h185l-209 -274h-185z" />
    <glyph glyph-name="Acircumflex" unicode="&#xc2;" horiz-adv-x="1429" 
d="M43 0l539 1434h266l538 -1434h-223l-121 330h-655l-121 -330h-223zM367 1563l204 270h283l205 -270h-189l-157 211l-158 -211h-188zM446 492h537l-262 718h-12z" />
    <glyph glyph-name="Atilde" unicode="&#xc3;" horiz-adv-x="1429" 
d="M43 0l539 1434h266l538 -1434h-223l-121 330h-655l-121 -330h-223zM383 1647q0 100 49 154t135 54q42 0 77 -13.5t59 -32.5t45 -38.5t45 -33t49 -13.5q35 0 57.5 23.5t22.5 56.5h129q0 -100 -50 -154.5t-137 -54.5q-51 0 -93 20.5t-65.5 45t-54 45t-59.5 20.5
q-35 0 -58.5 -23t-23.5 -56h-127zM446 492h537l-262 718h-12z" />
    <glyph glyph-name="Adieresis" unicode="&#xc4;" horiz-adv-x="1429" 
d="M43 0l539 1434h266l538 -1434h-223l-121 330h-655l-121 -330h-223zM381 1739q0 50 36.5 85.5t86.5 35.5t86.5 -35.5t36.5 -85.5t-36.5 -85.5t-86.5 -35.5t-86.5 35.5t-36.5 85.5zM446 492h537l-262 718h-12zM801 1739q0 50 36.5 85.5t86.5 35.5t86.5 -35.5t36.5 -85.5
t-36.5 -85.5t-86.5 -35.5t-86.5 35.5t-36.5 85.5z" />
    <glyph glyph-name="Aring" unicode="&#xc5;" horiz-adv-x="1429" 
d="M43 0l539 1434h266l538 -1434h-223l-121 330h-655l-121 -330h-223zM446 492h537l-262 718h-12zM526 1714q0 77 55 130.5t136 53.5t135.5 -53.5t54.5 -130.5t-54.5 -130.5t-135.5 -53.5t-136 53.5t-55 130.5zM631 1714q0 -38 24.5 -63t61.5 -25t61.5 25t24.5 63
q0 37 -24.5 61.5t-61.5 24.5t-61.5 -24.5t-24.5 -61.5z" />
    <glyph glyph-name="AE" unicode="&#xc6;" horiz-adv-x="2033" 
d="M43 0l930 1434h977v-187h-719v-430h657v-170h-657v-461h739v-186h-952v334h-533l-215 -334h-227zM592 498h426v663z" />
    <glyph glyph-name="Ccedilla" unicode="&#xc7;" horiz-adv-x="1372" 
d="M610 -362q71 -2 112.5 20.5t41.5 67.5q0 51 -46 69t-102 -10l-61 76l104 123q-265 25 -420 215.5t-155 517.5q0 350 178 542.5t479 192.5q232 0 386 -118t184 -345h-209q-33 137 -129.5 208t-237.5 71q-205 0 -320.5 -146.5t-115.5 -404.5q0 -259 115 -406t321 -147
q141 0 237.5 71t129.5 209h209q-28 -213 -163.5 -329.5t-342.5 -132.5l-82 -86q6 2 22 2q70 0 118 -47.5t48 -124.5q0 -54 -25 -94.5t-68.5 -63t-95 -33t-112.5 -10.5v113z" />
    <glyph glyph-name="Egrave" unicode="&#xc8;" horiz-adv-x="1130" 
d="M115 0v1434h932v-187h-719v-430h657v-170h-657v-461h739v-186h-952zM315 1833h185l209 -274h-185z" />
    <glyph glyph-name="Eacute" unicode="&#xc9;" horiz-adv-x="1130" 
d="M115 0v1434h932v-187h-719v-430h657v-170h-657v-461h739v-186h-952zM492 1559l208 274h185l-209 -274h-184z" />
    <glyph glyph-name="Ecircumflex" unicode="&#xca;" horiz-adv-x="1130" 
d="M115 0v1434h932v-187h-719v-430h657v-170h-657v-461h739v-186h-952zM242 1563l204 270h283l205 -270h-189l-157 211l-158 -211h-188z" />
    <glyph glyph-name="Edieresis" unicode="&#xcb;" horiz-adv-x="1130" 
d="M115 0v1434h932v-187h-719v-430h657v-170h-657v-461h739v-186h-952zM256 1739q0 50 36.5 85.5t86.5 35.5t86.5 -35.5t36.5 -85.5t-36.5 -85.5t-86.5 -35.5t-86.5 35.5t-36.5 85.5zM676 1739q0 50 36.5 85.5t86.5 35.5t86.5 -35.5t36.5 -85.5t-36.5 -85.5t-86.5 -35.5
t-86.5 35.5t-36.5 85.5z" />
    <glyph glyph-name="Igrave" unicode="&#xcc;" horiz-adv-x="440" 
d="M115 0v1434h213v-1434h-213zM-55 1833h184l209 -274h-184z" />
    <glyph glyph-name="Iacute" unicode="&#xcd;" horiz-adv-x="440" 
d="M115 0v1434h213v-1434h-213zM121 1559l209 274h184l-209 -274h-184z" />
    <glyph glyph-name="Icircumflex" unicode="&#xce;" horiz-adv-x="440" 
d="M115 0v1434h213v-1434h-213zM-129 1563l205 270h282l205 -270h-188l-158 211l-158 -211h-188z" />
    <glyph glyph-name="Idieresis" unicode="&#xcf;" horiz-adv-x="440" 
d="M115 0v1434h213v-1434h-213zM-115 1739q0 50 36.5 85.5t86.5 35.5t86.5 -35.5t36.5 -85.5t-36.5 -85.5t-86.5 -35.5t-86.5 35.5t-36.5 85.5zM305 1739q0 50 36.5 85.5t86.5 35.5t86.5 -35.5t36.5 -85.5t-36.5 -85.5t-86.5 -35.5t-86.5 35.5t-36.5 85.5z" />
    <glyph glyph-name="Eth" unicode="&#xd0;" horiz-adv-x="1419" 
d="M170 0v631h-129v157h129v646h489q335 0 506.5 -184.5t171.5 -532.5t-171.5 -532.5t-506.5 -184.5h-489zM383 186h256q252 0 366.5 129t114.5 402q0 274 -114 402t-367 128h-256v-459h244v-157h-244v-445z" />
    <glyph glyph-name="Ntilde" unicode="&#xd1;" horiz-adv-x="1378" 
d="M115 0v1434h229l700 -1100h7v1100h213v-1434h-238l-694 1090h-4v-1090h-213zM356 1647q0 100 49.5 154t135.5 54q51 0 93 -20.5t66 -45t54.5 -45t60.5 -20.5q35 0 57.5 23.5t22.5 56.5h129q0 -100 -49.5 -154.5t-136.5 -54.5q-42 0 -77 13.5t-58.5 32.5t-45 38.5t-45 33
t-47.5 13.5q-35 0 -58.5 -23t-23.5 -56h-127z" />
    <glyph glyph-name="Ograve" unicode="&#xd2;" horiz-adv-x="1488" 
d="M745 -20q-145 0 -266.5 50.5t-209 144t-136.5 232.5t-49 310t49 310t136.5 232t209 143t266.5 50q294 0 477 -197t183 -538t-183 -539t-477 -198zM301 717q0 -262 121 -407.5t323 -145.5q201 0 322 145.5t121 407.5t-121 406.5t-322 144.5q-202 0 -323 -144.5
t-121 -406.5zM469 1833h184l209 -274h-184z" />
    <glyph glyph-name="Oacute" unicode="&#xd3;" horiz-adv-x="1488" 
d="M745 -20q-145 0 -266.5 50.5t-209 144t-136.5 232.5t-49 310t49 310t136.5 232t209 143t266.5 50q294 0 477 -197t183 -538t-183 -539t-477 -198zM301 717q0 -262 121 -407.5t323 -145.5q201 0 322 145.5t121 407.5t-121 406.5t-322 144.5q-202 0 -323 -144.5
t-121 -406.5zM647 1559l209 274h184l-209 -274h-184z" />
    <glyph glyph-name="Ocircumflex" unicode="&#xd4;" horiz-adv-x="1488" 
d="M745 -20q-145 0 -266.5 50.5t-209 144t-136.5 232.5t-49 310t49 310t136.5 232t209 143t266.5 50q294 0 477 -197t183 -538t-183 -539t-477 -198zM301 717q0 -262 121 -407.5t323 -145.5q201 0 322 145.5t121 407.5t-121 406.5t-322 144.5q-202 0 -323 -144.5
t-121 -406.5zM397 1563l205 270h283l205 -270h-189l-158 211l-157 -211h-189z" />
    <glyph glyph-name="Otilde" unicode="&#xd5;" horiz-adv-x="1488" 
d="M745 -20q-145 0 -266.5 50.5t-209 144t-136.5 232.5t-49 310t49 310t136.5 232t209 143t266.5 50q294 0 477 -197t183 -538t-183 -539t-477 -198zM301 717q0 -262 121 -407.5t323 -145.5q201 0 322 145.5t121 407.5t-121 406.5t-322 144.5q-202 0 -323 -144.5
t-121 -406.5zM412 1647q0 100 49 154t135 54q51 0 93 -20.5t66 -45t54.5 -45t60.5 -20.5q35 0 57.5 23.5t22.5 56.5h129q0 -100 -49.5 -154.5t-136.5 -54.5q-51 0 -93 20.5t-65.5 45t-54 45t-59.5 20.5q-35 0 -58.5 -23t-23.5 -56h-127z" />
    <glyph glyph-name="Odieresis" unicode="&#xd6;" horiz-adv-x="1488" 
d="M745 -20q-145 0 -266.5 50.5t-209 144t-136.5 232.5t-49 310t49 310t136.5 232t209 143t266.5 50q294 0 477 -197t183 -538t-183 -539t-477 -198zM301 717q0 -262 121 -407.5t323 -145.5q201 0 322 145.5t121 407.5t-121 406.5t-322 144.5q-202 0 -323 -144.5
t-121 -406.5zM410 1739q0 51 36 86t86 35t86.5 -35.5t36.5 -85.5t-36.5 -85.5t-86.5 -35.5t-86 35t-36 86zM829 1739q0 50 36.5 85.5t86.5 35.5t86.5 -35.5t36.5 -85.5t-36.5 -85.5t-86.5 -35.5t-86.5 35.5t-36.5 85.5z" />
    <glyph glyph-name="multiply" unicode="&#xd7;" horiz-adv-x="985" 
d="M231 123l-129 127l265 264l-265 262l129 127l263 -262l262 262l127 -127l-262 -262l262 -264l-127 -127l-262 262z" />
    <glyph glyph-name="Oslash" unicode="&#xd8;" horiz-adv-x="1488" 
d="M242 -102l104 206q-124 94 -193 251t-69 362q0 171 49 310t136.5 232t209 143t266.5 50q144 0 263 -49l61 123h178l-102 -201q124 -94 192 -249.5t68 -358.5q0 -341 -183 -539t-477 -198q-142 0 -260 47l-65 -129h-178zM301 717q0 -280 139 -428l482 944q-81 35 -177 35
q-202 0 -323 -144.5t-121 -406.5zM571 197q76 -33 174 -33q201 0 322 145.5t121 407.5q0 276 -135 424z" />
    <glyph glyph-name="Ugrave" unicode="&#xd9;" horiz-adv-x="1355" 
d="M678 -20q-262 0 -412.5 145.5t-150.5 417.5v891h213v-877q0 -189 92 -290t258 -101t258 101t92 290v877h215v-891q0 -271 -152 -417t-413 -146zM391 1833h184l209 -274h-184z" />
    <glyph glyph-name="Uacute" unicode="&#xda;" horiz-adv-x="1355" 
d="M678 -20q-262 0 -412.5 145.5t-150.5 417.5v891h213v-877q0 -189 92 -290t258 -101t258 101t92 290v877h215v-891q0 -271 -152 -417t-413 -146zM567 1559l209 274h185l-209 -274h-185z" />
    <glyph glyph-name="Ucircumflex" unicode="&#xdb;" horiz-adv-x="1355" 
d="M678 -20q-262 0 -412.5 145.5t-150.5 417.5v891h213v-877q0 -189 92 -290t258 -101t258 101t92 290v877h215v-891q0 -271 -152 -417t-413 -146zM317 1563l205 270h283l205 -270h-189l-157 211l-158 -211h-189z" />
    <glyph glyph-name="Udieresis" unicode="&#xdc;" horiz-adv-x="1355" 
d="M678 -20q-262 0 -412.5 145.5t-150.5 417.5v891h213v-877q0 -189 92 -290t258 -101t258 101t92 290v877h215v-891q0 -271 -152 -417t-413 -146zM332 1739q0 50 36.5 85.5t86.5 35.5t86.5 -35.5t36.5 -85.5t-36.5 -85.5t-86.5 -35.5t-86.5 35.5t-36.5 85.5zM752 1739
q0 51 36 86t86 35t86.5 -35.5t36.5 -85.5t-36.5 -85.5t-86.5 -35.5t-86 35t-36 86z" />
    <glyph glyph-name="Yacute" unicode="&#xdd;" horiz-adv-x="1370" 
d="M575 0v549l-522 885h240l391 -678l393 678h240l-522 -885v-549h-220zM586 1559l209 274h184l-209 -274h-184z" />
    <glyph glyph-name="Thorn" unicode="&#xde;" horiz-adv-x="1236" 
d="M115 0v1434h213v-265h327q256 0 387.5 -120.5t131.5 -331.5t-131.5 -332t-387.5 -121h-327v-264h-213zM328 453h319q153 0 231 68t78 196q0 129 -77.5 197.5t-231.5 68.5h-319v-530z" />
    <glyph glyph-name="germandbls" unicode="&#xdf;" horiz-adv-x="1210" 
d="M115 1022q0 430 473 430q221 0 346 -89t125 -267q0 -123 -61.5 -200t-157.5 -93q139 -23 224 -119.5t85 -261.5q0 -204 -136.5 -313t-410.5 -109h-110v180h106q344 0 344 260q0 140 -97.5 203.5t-258.5 63.5h-94v161h94q266 0 266 199q0 107 -69.5 157t-192.5 50
q-137 0 -202.5 -61.5t-65.5 -190.5v-1022h-207v1022z" />
    <glyph glyph-name="agrave" unicode="&#xe0;" horiz-adv-x="1118" 
d="M420 -20q-159 0 -258 74t-99 225q0 270 340 311l265 31q72 9 101.5 23.5t29.5 39.5v29q0 121 -59 168t-179 47q-121 0 -180 -41t-59 -139v-25h-199v43q0 319 442 319q227 0 334 -89t107 -281v-715h-195v172h-8q-8 -17 -22 -36.5t-46 -48.5t-72.5 -51.5t-104.5 -39
t-138 -16.5zM270 289q0 -148 201 -148q81 0 145.5 23t103.5 61t59 81.5t20 88.5v117q-11 -18 -41.5 -29t-104.5 -20l-200 -27q-98 -12 -140.5 -47.5t-42.5 -99.5zM279 1464h184l209 -274h-185z" />
    <glyph glyph-name="aacute" unicode="&#xe1;" horiz-adv-x="1118" 
d="M420 -20q-159 0 -258 74t-99 225q0 270 340 311l265 31q72 9 101.5 23.5t29.5 39.5v29q0 121 -59 168t-179 47q-121 0 -180 -41t-59 -139v-25h-199v43q0 319 442 319q227 0 334 -89t107 -281v-715h-195v172h-8q-8 -17 -22 -36.5t-46 -48.5t-72.5 -51.5t-104.5 -39
t-138 -16.5zM270 289q0 -148 201 -148q81 0 145.5 23t103.5 61t59 81.5t20 88.5v117q-11 -18 -41.5 -29t-104.5 -20l-200 -27q-98 -12 -140.5 -47.5t-42.5 -99.5zM455 1190l209 274h184l-209 -274h-184z" />
    <glyph glyph-name="acircumflex" unicode="&#xe2;" horiz-adv-x="1118" 
d="M420 -20q-159 0 -258 74t-99 225q0 270 340 311l265 31q72 9 101.5 23.5t29.5 39.5v29q0 121 -59 168t-179 47q-121 0 -180 -41t-59 -139v-25h-199v43q0 319 442 319q227 0 334 -89t107 -281v-715h-195v172h-8q-8 -17 -22 -36.5t-46 -48.5t-72.5 -51.5t-104.5 -39
t-138 -16.5zM205 1194l205 270h282l205 -270h-188l-158 211l-158 -211h-188zM270 289q0 -148 201 -148q81 0 145.5 23t103.5 61t59 81.5t20 88.5v117q-11 -18 -41.5 -29t-104.5 -20l-200 -27q-98 -12 -140.5 -47.5t-42.5 -99.5z" />
    <glyph glyph-name="atilde" unicode="&#xe3;" horiz-adv-x="1118" 
d="M420 -20q-159 0 -258 74t-99 225q0 270 340 311l265 31q72 9 101.5 23.5t29.5 39.5v29q0 121 -59 168t-179 47q-121 0 -180 -41t-59 -139v-25h-199v43q0 319 442 319q227 0 334 -89t107 -281v-715h-195v172h-8q-8 -17 -22 -36.5t-46 -48.5t-72.5 -51.5t-104.5 -39
t-138 -16.5zM219 1278q0 100 49 154.5t135 54.5q42 0 77 -13.5t59 -32.5t45 -38.5t45 -33t49 -13.5q35 0 57.5 23.5t22.5 56.5h129q0 -100 -50 -154.5t-137 -54.5q-51 0 -93 20.5t-65.5 45t-54 45t-59.5 20.5q-35 0 -58.5 -23.5t-23.5 -56.5h-127zM270 289q0 -148 201 -148
q81 0 145.5 23t103.5 61t59 81.5t20 88.5v117q-11 -18 -41.5 -29t-104.5 -20l-200 -27q-98 -12 -140.5 -47.5t-42.5 -99.5z" />
    <glyph glyph-name="adieresis" unicode="&#xe4;" horiz-adv-x="1118" 
d="M420 -20q-159 0 -258 74t-99 225q0 270 340 311l265 31q72 9 101.5 23.5t29.5 39.5v29q0 121 -59 168t-179 47q-121 0 -180 -41t-59 -139v-25h-199v43q0 319 442 319q227 0 334 -89t107 -281v-715h-195v172h-8q-8 -17 -22 -36.5t-46 -48.5t-72.5 -51.5t-104.5 -39
t-138 -16.5zM219 1370q0 50 36.5 85.5t86.5 35.5t86.5 -35.5t36.5 -85.5t-36.5 -85.5t-86.5 -35.5t-86.5 35.5t-36.5 85.5zM270 289q0 -148 201 -148q81 0 145.5 23t103.5 61t59 81.5t20 88.5v117q-11 -18 -41.5 -29t-104.5 -20l-200 -27q-98 -12 -140.5 -47.5t-42.5 -99.5z
M639 1370q0 50 36.5 85.5t86.5 35.5t86.5 -35.5t36.5 -85.5t-36.5 -85.5t-86.5 -35.5t-86.5 35.5t-36.5 85.5z" />
    <glyph glyph-name="aring" unicode="&#xe5;" horiz-adv-x="1118" 
d="M420 -20q-159 0 -258 74t-99 225q0 270 340 311l265 31q72 9 101.5 23.5t29.5 39.5v29q0 121 -59 168t-179 47q-121 0 -180 -41t-59 -139v-25h-199v43q0 319 442 319q227 0 334 -89t107 -281v-715h-195v172h-8q-8 -17 -22 -36.5t-46 -48.5t-72.5 -51.5t-104.5 -39
t-138 -16.5zM270 289q0 -148 201 -148q81 0 145.5 23t103.5 61t59 81.5t20 88.5v117q-11 -18 -41.5 -29t-104.5 -20l-200 -27q-98 -12 -140.5 -47.5t-42.5 -99.5zM362 1346q0 77 55 130.5t136 53.5t135.5 -53.5t54.5 -130.5t-54.5 -131t-135.5 -54t-136 54t-55 131z
M467 1346q0 -38 24.5 -63.5t61.5 -25.5t61.5 25.5t24.5 63.5q0 37 -24.5 61.5t-61.5 24.5t-61.5 -24.5t-24.5 -61.5z" />
    <glyph glyph-name="ae" unicode="&#xe6;" horiz-adv-x="1845" 
d="M426 -20q-166 0 -264.5 77.5t-98.5 231.5q0 156 104.5 232.5t283.5 76.5h335v141q0 187 -233 187q-234 0 -234 -170v-21l-188 -2v43q0 151 111.5 230t318.5 79q273 0 354 -155q137 155 381 155q105 0 192 -32t153.5 -96.5t103.5 -169t37 -240.5q0 -45 -6 -80h-789
q23 -326 320 -326q214 0 276 172h184q-31 -115 -100 -191.5t-159.5 -109t-202.5 -32.5q-144 0 -259 56.5t-182 168.5q-21 -40 -57.5 -77t-89.5 -71.5t-129 -55.5t-162 -21zM270 301q0 -77 55.5 -121.5t155.5 -44.5q74 0 135 25t96.5 63.5t54.5 80.5t19 81v88h-284
q-119 0 -175.5 -48t-56.5 -124zM989 623h596q-3 141 -79.5 221t-211.5 80q-131 0 -211.5 -76t-93.5 -225z" />
    <glyph glyph-name="ccedilla" unicode="&#xe7;" horiz-adv-x="1110" 
d="M449 -362q71 -2 112 20.5t41 67.5q0 51 -46 69t-101 -10l-62 76l107 125q-91 12 -168 50.5t-138.5 103.5t-96 165t-34.5 225q0 112 28.5 205t77.5 157t116 108t142 64.5t157 20.5q61 0 118 -10.5t116.5 -39t105 -72t80 -115t45.5 -162.5h-189q-21 116 -95.5 169.5
t-182.5 53.5q-148 0 -236 -100.5t-88 -278.5q0 -177 87.5 -275.5t236.5 -98.5q109 0 183 54.5t95 172.5h189q-11 -104 -50.5 -181.5t-98.5 -122t-122 -68t-135 -29.5l-82 -86q6 2 23 2q70 0 118 -47.5t48 -124.5q0 -54 -25 -94.5t-68.5 -63t-95 -33t-112.5 -10.5v113z" />
    <glyph glyph-name="egrave" unicode="&#xe8;" horiz-adv-x="1120" 
d="M580 -20q-110 0 -202 32.5t-163.5 98t-111.5 172.5t-40 247q0 142 40.5 251t111.5 174t160.5 97.5t195.5 32.5q105 0 192 -32t153.5 -96.5t103.5 -169t37 -240.5q0 -45 -6 -80h-789q23 -326 320 -326q214 0 276 172h184q-31 -115 -100 -191.5t-159.5 -109t-202.5 -32.5z
M264 623h596q-3 141 -79.5 221t-211.5 80q-131 0 -211.5 -76t-93.5 -225zM289 1464h184l209 -274h-184z" />
    <glyph glyph-name="eacute" unicode="&#xe9;" horiz-adv-x="1120" 
d="M580 -20q-110 0 -202 32.5t-163.5 98t-111.5 172.5t-40 247q0 142 40.5 251t111.5 174t160.5 97.5t195.5 32.5q105 0 192 -32t153.5 -96.5t103.5 -169t37 -240.5q0 -45 -6 -80h-789q23 -326 320 -326q214 0 276 172h184q-31 -115 -100 -191.5t-159.5 -109t-202.5 -32.5z
M264 623h596q-3 141 -79.5 221t-211.5 80q-131 0 -211.5 -76t-93.5 -225zM465 1190l209 274h184l-209 -274h-184z" />
    <glyph glyph-name="ecircumflex" unicode="&#xea;" horiz-adv-x="1120" 
d="M580 -20q-110 0 -202 32.5t-163.5 98t-111.5 172.5t-40 247q0 142 40.5 251t111.5 174t160.5 97.5t195.5 32.5q105 0 192 -32t153.5 -96.5t103.5 -169t37 -240.5q0 -45 -6 -80h-789q23 -326 320 -326q214 0 276 172h184q-31 -115 -100 -191.5t-159.5 -109t-202.5 -32.5z
M215 1194l205 270h282l205 -270h-188l-158 211l-158 -211h-188zM264 623h596q-3 141 -79.5 221t-211.5 80q-131 0 -211.5 -76t-93.5 -225z" />
    <glyph glyph-name="edieresis" unicode="&#xeb;" horiz-adv-x="1120" 
d="M580 -20q-110 0 -202 32.5t-163.5 98t-111.5 172.5t-40 247q0 142 40.5 251t111.5 174t160.5 97.5t195.5 32.5q105 0 192 -32t153.5 -96.5t103.5 -169t37 -240.5q0 -45 -6 -80h-789q23 -326 320 -326q214 0 276 172h184q-31 -115 -100 -191.5t-159.5 -109t-202.5 -32.5z
M227 1370q0 50 36.5 85.5t86.5 35.5t86.5 -35.5t36.5 -85.5t-36.5 -85.5t-86.5 -35.5t-86.5 35.5t-36.5 85.5zM264 623h596q-3 141 -79.5 221t-211.5 80q-131 0 -211.5 -76t-93.5 -225zM647 1370q0 50 36.5 85.5t86.5 35.5t86.5 -35.5t36.5 -85.5t-36.5 -85.5t-86.5 -35.5
t-86.5 35.5t-36.5 85.5z" />
    <glyph glyph-name="igrave" unicode="&#xec;" horiz-adv-x="397" 
d="M94 0v1065h207v-1065h-207zM-76 1464h185l208 -274h-184z" />
    <glyph glyph-name="iacute" unicode="&#xed;" horiz-adv-x="397" 
d="M94 0v1065h207v-1065h-207zM100 1190l209 274h185l-209 -274h-185z" />
    <glyph glyph-name="icircumflex" unicode="&#xee;" horiz-adv-x="397" 
d="M94 0v1065h207v-1065h-207zM-150 1194l205 270h283l205 -270h-189l-157 211l-158 -211h-189z" />
    <glyph glyph-name="idieresis" unicode="&#xef;" horiz-adv-x="397" 
d="M94 0v1065h207v-1065h-207zM-137 1370q0 50 36.5 85.5t86.5 35.5t86.5 -35.5t36.5 -85.5t-36.5 -85.5t-86.5 -35.5t-86.5 35.5t-36.5 85.5zM283 1370q0 50 36.5 85.5t86.5 35.5t86 -35t36 -86t-36 -86t-86 -35t-86.5 35.5t-36.5 85.5z" />
    <glyph glyph-name="eth" unicode="&#xf0;" horiz-adv-x="1185" 
d="M567 -20q-102 0 -192 34.5t-160.5 101.5t-111 175t-40.5 244q0 250 129.5 390t344.5 140q148 0 247 -84q-79 140 -161 248h-244v100h162q-31 35 -97 105h213l84 -105h281v-100h-205q151 -202 203.5 -342.5t52.5 -333.5q0 -143 -40.5 -254.5t-111.5 -180t-160.5 -103.5
t-193.5 -35zM268 535q0 -97 24.5 -171t67 -117.5t95.5 -65t114 -21.5q129 0 213 93t84 282q0 179 -80 265.5t-217 86.5q-139 0 -220 -86.5t-81 -265.5z" />
    <glyph glyph-name="ntilde" unicode="&#xf1;" 
d="M856 616q0 144 -62.5 219.5t-187.5 75.5q-129 0 -206.5 -77.5t-77.5 -217.5v-616h-207v1065h207v-213h6q8 34 31.5 71t64 75t109.5 62.5t153 24.5q81 0 147.5 -24t119 -73t81.5 -131.5t29 -192.5v-664h-207v616zM258 1278q0 100 49 154.5t135 54.5q42 0 77 -13.5
t59 -32.5t45 -38.5t45 -33t49 -13.5q35 0 57.5 23.5t22.5 56.5h129q0 -100 -50 -154.5t-137 -54.5q-51 0 -93 20.5t-65.5 45t-54 45t-59.5 20.5q-35 0 -58.5 -23.5t-23.5 -56.5h-127z" />
    <glyph glyph-name="ograve" unicode="&#xf2;" horiz-adv-x="1165" 
d="M582 -20q-102 0 -193 33.5t-165 99t-117.5 173.5t-43.5 246q0 111 28.5 203.5t78 156t116 108t141 65t155.5 20.5q102 0 193.5 -33.5t165.5 -99t117.5 -174t43.5 -246.5t-43.5 -246t-117.5 -173.5t-165.5 -99t-193.5 -33.5zM260 532q0 -186 91.5 -282t230.5 -96t231 96
t92 282t-92 282.5t-231 96.5t-230.5 -96.5t-91.5 -282.5zM307 1464h185l208 -274h-184z" />
    <glyph glyph-name="oacute" unicode="&#xf3;" horiz-adv-x="1165" 
d="M582 -20q-102 0 -193 33.5t-165 99t-117.5 173.5t-43.5 246q0 111 28.5 203.5t78 156t116 108t141 65t155.5 20.5q102 0 193.5 -33.5t165.5 -99t117.5 -174t43.5 -246.5t-43.5 -246t-117.5 -173.5t-165.5 -99t-193.5 -33.5zM260 532q0 -186 91.5 -282t230.5 -96t231 96
t92 282t-92 282.5t-231 96.5t-230.5 -96.5t-91.5 -282.5zM483 1190l209 274h185l-209 -274h-185z" />
    <glyph glyph-name="ocircumflex" unicode="&#xf4;" horiz-adv-x="1165" 
d="M582 -20q-102 0 -193 33.5t-165 99t-117.5 173.5t-43.5 246q0 111 28.5 203.5t78 156t116 108t141 65t155.5 20.5q102 0 193.5 -33.5t165.5 -99t117.5 -174t43.5 -246.5t-43.5 -246t-117.5 -173.5t-165.5 -99t-193.5 -33.5zM233 1194l205 270h283l205 -270h-189l-157 211
l-158 -211h-189zM260 532q0 -186 91.5 -282t230.5 -96t231 96t92 282t-92 282.5t-231 96.5t-230.5 -96.5t-91.5 -282.5z" />
    <glyph glyph-name="otilde" unicode="&#xf5;" horiz-adv-x="1165" 
d="M582 -20q-102 0 -193 33.5t-165 99t-117.5 173.5t-43.5 246q0 111 28.5 203.5t78 156t116 108t141 65t155.5 20.5q102 0 193.5 -33.5t165.5 -99t117.5 -174t43.5 -246.5t-43.5 -246t-117.5 -173.5t-165.5 -99t-193.5 -33.5zM250 1278q0 100 49 154.5t135 54.5
q42 0 77 -13.5t59 -32.5t45 -38.5t45 -33t49 -13.5q34 0 56.5 23.5t22.5 56.5h130q0 -100 -50 -154.5t-137 -54.5q-51 0 -93 20.5t-65.5 45t-54 45t-59.5 20.5q-35 0 -58.5 -23.5t-23.5 -56.5h-127zM260 532q0 -186 91.5 -282t230.5 -96t231 96t92 282t-92 282.5t-231 96.5
t-230.5 -96.5t-91.5 -282.5z" />
    <glyph glyph-name="odieresis" unicode="&#xf6;" horiz-adv-x="1165" 
d="M582 -20q-102 0 -193 33.5t-165 99t-117.5 173.5t-43.5 246q0 111 28.5 203.5t78 156t116 108t141 65t155.5 20.5q102 0 193.5 -33.5t165.5 -99t117.5 -174t43.5 -246.5t-43.5 -246t-117.5 -173.5t-165.5 -99t-193.5 -33.5zM248 1370q0 50 36.5 85.5t86.5 35.5
t86.5 -35.5t36.5 -85.5t-36.5 -85.5t-86.5 -35.5t-86.5 35.5t-36.5 85.5zM260 532q0 -186 91.5 -282t230.5 -96t231 96t92 282t-92 282.5t-231 96.5t-230.5 -96.5t-91.5 -282.5zM668 1370q0 50 36.5 85.5t86.5 35.5t86 -35t36 -86t-36 -86t-86 -35t-86.5 35.5t-36.5 85.5z
" />
    <glyph glyph-name="divide" unicode="&#xf7;" horiz-adv-x="862" 
d="M432 807q-40 0 -67 28t-27 68q0 39 27.5 66.5t66.5 27.5q38 0 66 -28t28 -66q0 -40 -28 -68t-66 -28zM115 492v157h633v-157h-633zM338 240q0 39 27.5 66.5t66.5 27.5q38 0 66 -28t28 -66q0 -40 -28 -68.5t-66 -28.5q-39 0 -66.5 28.5t-27.5 68.5z" />
    <glyph glyph-name="oslash" unicode="&#xf8;" horiz-adv-x="1165" 
d="M193 -102l83 172q-99 70 -156 186t-57 276q0 111 28.5 203.5t78 156t116 108t141 65t155.5 20.5q97 0 176 -26l61 125h156l-90 -187q100 -68 158.5 -185.5t58.5 -279.5q0 -138 -43.5 -246t-117.5 -173.5t-165.5 -99t-193.5 -33.5q-92 0 -181 28l-53 -110h-155zM260 532
q0 -190 100 -290l320 655q-43 14 -98 14q-139 0 -230.5 -96.5t-91.5 -282.5zM479 168q46 -14 103 -14q139 0 231 96t92 282q0 194 -104 295z" />
    <glyph glyph-name="ugrave" unicode="&#xf9;" 
d="M322 449q0 -144 62 -219.5t187 -75.5q129 0 207 77.5t78 217.5v616h207v-1065h-207v213h-6q-8 -34 -31.5 -71t-64 -75t-109.5 -62.5t-153 -24.5q-81 0 -147.5 24t-119 73t-81.5 131.5t-29 192.5v664h207v-616zM307 1464h185l208 -274h-184z" />
    <glyph glyph-name="uacute" unicode="&#xfa;" 
d="M322 449q0 -144 62 -219.5t187 -75.5q129 0 207 77.5t78 217.5v616h207v-1065h-207v213h-6q-8 -34 -31.5 -71t-64 -75t-109.5 -62.5t-153 -24.5q-81 0 -147.5 24t-119 73t-81.5 131.5t-29 192.5v664h207v-616zM483 1190l209 274h185l-209 -274h-185z" />
    <glyph glyph-name="ucircumflex" unicode="&#xfb;" 
d="M322 449q0 -144 62 -219.5t187 -75.5q129 0 207 77.5t78 217.5v616h207v-1065h-207v213h-6q-8 -34 -31.5 -71t-64 -75t-109.5 -62.5t-153 -24.5q-81 0 -147.5 24t-119 73t-81.5 131.5t-29 192.5v664h207v-616zM233 1194l205 270h283l205 -270h-189l-157 211l-158 -211
h-189z" />
    <glyph glyph-name="udieresis" unicode="&#xfc;" 
d="M322 449q0 -144 62 -219.5t187 -75.5q129 0 207 77.5t78 217.5v616h207v-1065h-207v213h-6q-8 -34 -31.5 -71t-64 -75t-109.5 -62.5t-153 -24.5q-81 0 -147.5 24t-119 73t-81.5 131.5t-29 192.5v664h207v-616zM248 1370q0 50 36.5 85.5t86.5 35.5t86.5 -35.5t36.5 -85.5
t-36.5 -85.5t-86.5 -35.5t-86.5 35.5t-36.5 85.5zM668 1370q0 50 36.5 85.5t86.5 35.5t86 -35t36 -86t-36 -86t-86 -35t-86.5 35.5t-36.5 85.5z" />
    <glyph glyph-name="yacute" unicode="&#xfd;" horiz-adv-x="1124" 
d="M152 -221q52 -9 93.5 -4t71.5 15.5t53.5 32t39 45.5t28.5 56q17 42 17.5 74t-13.5 68l-399 999h213l305 -813l307 813h213l-450 -1126q-83 -206 -192 -283t-287 -55v178zM465 1190l209 274h184l-209 -274h-184z" />
    <glyph glyph-name="thorn" unicode="&#xfe;" horiz-adv-x="1216" 
d="M115 -389v1823h207v-537q47 87 143 137.5t213 50.5q92 0 175 -33t151 -97.5t108.5 -173.5t40.5 -249q0 -139 -40.5 -248t-108.5 -173.5t-151 -97.5t-175 -33q-117 0 -213 50.5t-143 137.5v-557h-207zM311 532q0 -94 27.5 -168t73.5 -119t103 -68t120 -23q64 0 120.5 23
t102 68t72 119t26.5 168t-26.5 168.5t-72 119.5t-102 68t-120.5 23q-63 0 -120 -23t-103 -68t-73.5 -119.5t-27.5 -168.5z" />
    <glyph glyph-name="ydieresis" unicode="&#xff;" horiz-adv-x="1124" 
d="M152 -221q52 -9 93.5 -4t71.5 15.5t53.5 32t39 45.5t28.5 56q17 42 17.5 74t-13.5 68l-399 999h213l305 -813l307 813h213l-450 -1126q-83 -206 -192 -283t-287 -55v178zM229 1370q0 50 36.5 85.5t86.5 35.5t86.5 -35.5t36.5 -85.5t-36.5 -85.5t-86.5 -35.5t-86.5 35.5
t-36.5 85.5zM649 1370q0 50 36.5 85.5t86.5 35.5t86.5 -35.5t36.5 -85.5t-36.5 -85.5t-86.5 -35.5t-86.5 35.5t-36.5 85.5z" />
    <glyph glyph-name="Amacron" unicode="&#x100;" horiz-adv-x="1429" 
d="M43 0l539 1434h266l538 -1434h-223l-121 330h-655l-121 -330h-223zM403 1708v125h627v-125h-627zM446 492h537l-262 718h-12z" />
    <glyph glyph-name="amacron" unicode="&#x101;" horiz-adv-x="1118" 
d="M420 -20q-159 0 -258 74t-99 225q0 270 340 311l265 31q72 9 101.5 23.5t29.5 39.5v29q0 121 -59 168t-179 47q-121 0 -180 -41t-59 -139v-25h-199v43q0 319 442 319q227 0 334 -89t107 -281v-715h-195v172h-8q-8 -17 -22 -36.5t-46 -48.5t-72.5 -51.5t-104.5 -39
t-138 -16.5zM240 1339v125h626v-125h-626zM270 289q0 -148 201 -148q81 0 145.5 23t103.5 61t59 81.5t20 88.5v117q-11 -18 -41.5 -29t-104.5 -20l-200 -27q-98 -12 -140.5 -47.5t-42.5 -99.5z" />
    <glyph glyph-name="Abreve" unicode="&#x102;" horiz-adv-x="1429" 
d="M43 0l539 1434h266l538 -1434h-223l-121 330h-655l-121 -330h-223zM414 1833h139q6 -154 162 -154t162 154h139q0 -125 -75.5 -202t-225.5 -77t-225.5 77t-75.5 202zM446 492h537l-262 718h-12z" />
    <glyph glyph-name="abreve" unicode="&#x103;" horiz-adv-x="1118" 
d="M420 -20q-159 0 -258 74t-99 225q0 270 340 311l265 31q72 9 101.5 23.5t29.5 39.5v29q0 121 -59 168t-179 47q-121 0 -180 -41t-59 -139v-25h-199v43q0 319 442 319q227 0 334 -89t107 -281v-715h-195v172h-8q-8 -17 -22 -36.5t-46 -48.5t-72.5 -51.5t-104.5 -39
t-138 -16.5zM252 1464h139q6 -153 162 -153t162 153h139q0 -125 -75.5 -201.5t-225.5 -76.5t-225.5 76.5t-75.5 201.5zM270 289q0 -148 201 -148q81 0 145.5 23t103.5 61t59 81.5t20 88.5v117q-11 -18 -41.5 -29t-104.5 -20l-200 -27q-98 -12 -140.5 -47.5t-42.5 -99.5z" />
    <glyph glyph-name="Aogonek" unicode="&#x104;" horiz-adv-x="1429" 
d="M43 0l539 1434h266l538 -1432l3 -2q-121 0 -184.5 -46.5t-63.5 -115.5q0 -61 47.5 -89t120.5 -13v-119q-36 -8 -78.5 -10.5t-86.5 12t-80 37t-58.5 65t-22.5 95.5q0 82 46.5 139t119.5 84l-107 291h-655l-121 -330h-223zM446 492h537l-262 718h-12z" />
    <glyph glyph-name="aogonek" unicode="&#x105;" horiz-adv-x="1118" 
d="M420 -20q-159 0 -258 74t-99 225q0 270 340 311l265 31q72 9 101.5 23.5t29.5 39.5v29q0 121 -59 168t-179 47q-121 0 -180 -41t-59 -139v-25h-199v43q0 319 442 319q227 0 334 -89t107 -281v-715h-2q-121 0 -184.5 -46.5t-63.5 -115.5q0 -61 47.5 -89t120.5 -13v-119
q-36 -8 -78.5 -10.5t-86.5 12t-80 37t-58.5 65t-22.5 95.5q0 95 62 157t151 78v121h-8q-8 -17 -22 -36.5t-46 -48.5t-72.5 -51.5t-104.5 -39t-138 -16.5zM270 289q0 -148 201 -148q81 0 145.5 23t103.5 61t59 81.5t20 88.5v117q-11 -18 -41.5 -29t-104.5 -20l-200 -27
q-98 -12 -140.5 -47.5t-42.5 -99.5z" />
    <glyph glyph-name="Cacute" unicode="&#x106;" horiz-adv-x="1372" 
d="M739 -20q-299 0 -477 193t-178 544q0 350 178 542.5t479 192.5q232 0 386 -118t184 -345h-209q-33 137 -129.5 208t-237.5 71q-205 0 -320.5 -146.5t-115.5 -404.5q0 -259 115 -406t321 -147q141 0 237.5 71t129.5 209h209q-30 -229 -184.5 -346.5t-387.5 -117.5z
M645 1559l209 274h184l-209 -274h-184z" />
    <glyph glyph-name="cacute" unicode="&#x107;" horiz-adv-x="1110" 
d="M584 -20q-82 0 -157 20t-142 63.5t-116 106.5t-77.5 155.5t-28.5 204.5t28.5 205t77.5 157t116 108t142 64.5t157 20.5q61 0 118 -10.5t116.5 -39t105 -72t80 -115t45.5 -162.5h-189q-21 116 -95.5 169.5t-182.5 53.5q-148 0 -236 -100.5t-88 -278.5q0 -177 87.5 -275.5
t236.5 -98.5q109 0 183 54.5t95 172.5h189q-10 -93 -44 -165t-80 -116t-106 -72.5t-117 -39t-118 -10.5zM473 1190l209 274h184l-209 -274h-184z" />
    <glyph glyph-name="Ccircumflex" unicode="&#x108;" horiz-adv-x="1372" 
d="M739 -20q-299 0 -477 193t-178 544q0 350 178 542.5t479 192.5q232 0 386 -118t184 -345h-209q-33 137 -129.5 208t-237.5 71q-205 0 -320.5 -146.5t-115.5 -404.5q0 -259 115 -406t321 -147q141 0 237.5 71t129.5 209h209q-30 -229 -184.5 -346.5t-387.5 -117.5z
M397 1563l205 270h283l205 -270h-189l-158 211l-157 -211h-189z" />
    <glyph glyph-name="ccircumflex" unicode="&#x109;" horiz-adv-x="1110" 
d="M584 -20q-82 0 -157 20t-142 63.5t-116 106.5t-77.5 155.5t-28.5 204.5t28.5 205t77.5 157t116 108t142 64.5t157 20.5q61 0 118 -10.5t116.5 -39t105 -72t80 -115t45.5 -162.5h-189q-21 116 -95.5 169.5t-182.5 53.5q-148 0 -236 -100.5t-88 -278.5q0 -177 87.5 -275.5
t236.5 -98.5q109 0 183 54.5t95 172.5h189q-10 -93 -44 -165t-80 -116t-106 -72.5t-117 -39t-118 -10.5zM223 1194l205 270h283l204 -270h-188l-158 211l-157 -211h-189z" />
    <glyph glyph-name="Cdotaccent" unicode="&#x10a;" horiz-adv-x="1372" 
d="M739 -20q-299 0 -477 193t-178 544q0 350 178 542.5t479 192.5q232 0 386 -118t184 -345h-209q-33 137 -129.5 208t-237.5 71q-205 0 -320.5 -146.5t-115.5 -404.5q0 -259 115 -406t321 -147q141 0 237.5 71t129.5 209h209q-30 -229 -184.5 -346.5t-387.5 -117.5z
M623 1739q0 51 36 86t86 35t86.5 -35.5t36.5 -85.5t-36.5 -85.5t-86.5 -35.5t-86 35t-36 86z" />
    <glyph glyph-name="cdotaccent" unicode="&#x10b;" horiz-adv-x="1110" 
d="M584 -20q-82 0 -157 20t-142 63.5t-116 106.5t-77.5 155.5t-28.5 204.5t28.5 205t77.5 157t116 108t142 64.5t157 20.5q61 0 118 -10.5t116.5 -39t105 -72t80 -115t45.5 -162.5h-189q-21 116 -95.5 169.5t-182.5 53.5q-148 0 -236 -100.5t-88 -278.5q0 -177 87.5 -275.5
t236.5 -98.5q109 0 183 54.5t95 172.5h189q-10 -93 -44 -165t-80 -116t-106 -72.5t-117 -39t-118 -10.5zM451 1370q0 51 36 86t86 35t86.5 -35.5t36.5 -85.5t-36.5 -85.5t-86.5 -35.5t-86 35t-36 86z" />
    <glyph glyph-name="Ccaron" unicode="&#x10c;" horiz-adv-x="1372" 
d="M739 -20q-299 0 -477 193t-178 544q0 350 178 542.5t479 192.5q232 0 386 -118t184 -345h-209q-33 137 -129.5 208t-237.5 71q-205 0 -320.5 -146.5t-115.5 -404.5q0 -259 115 -406t321 -147q141 0 237.5 71t129.5 209h209q-30 -229 -184.5 -346.5t-387.5 -117.5z
M385 1831h188l158 -211l158 211h188l-205 -270h-282z" />
    <glyph glyph-name="ccaron" unicode="&#x10d;" horiz-adv-x="1110" 
d="M584 -20q-82 0 -157 20t-142 63.5t-116 106.5t-77.5 155.5t-28.5 204.5t28.5 205t77.5 157t116 108t142 64.5t157 20.5q61 0 118 -10.5t116.5 -39t105 -72t80 -115t45.5 -162.5h-189q-21 116 -95.5 169.5t-182.5 53.5q-148 0 -236 -100.5t-88 -278.5q0 -177 87.5 -275.5
t236.5 -98.5q109 0 183 54.5t95 172.5h189q-10 -93 -44 -165t-80 -116t-106 -72.5t-117 -39t-118 -10.5zM213 1462h188l158 -211l158 211h188l-205 -270h-282z" />
    <glyph glyph-name="Dcaron" unicode="&#x10e;" horiz-adv-x="1363" 
d="M115 0v1434h489q335 0 506.5 -184.5t171.5 -532.5t-171.5 -532.5t-506.5 -184.5h-489zM322 1831h188l158 -211l157 211h189l-205 -270h-283zM328 186h256q252 0 366.5 129t114.5 402q0 274 -114 402t-367 128h-256v-1061z" />
    <glyph glyph-name="dcaron" unicode="&#x10f;" horiz-adv-x="1273" 
d="M539 -20q-92 0 -175 33t-151.5 97.5t-109 173.5t-40.5 248q0 140 40.5 249t109 173.5t151.5 97.5t175 33q119 0 214 -50t142 -138v537h207v-1434h-207v168q-47 -88 -142 -138t-214 -50zM260 532q0 -94 26.5 -168t72.5 -119t102.5 -68t120.5 -23q63 0 120 23t103 68
t73 119t27 168t-27 168.5t-73 119.5t-103 68t-120 23q-64 0 -120.5 -23t-102.5 -68t-72.5 -119.5t-26.5 -168.5zM1161 1159l209 275h184l-208 -275h-185z" />
    <glyph glyph-name="Dcroat" unicode="&#x110;" horiz-adv-x="1419" 
d="M170 0v631h-129v157h129v646h489q335 0 506.5 -184.5t171.5 -532.5t-171.5 -532.5t-506.5 -184.5h-489zM383 186h256q252 0 366.5 129t114.5 402q0 274 -114 402t-367 128h-256v-459h244v-157h-244v-445z" />
    <glyph glyph-name="dcroat" unicode="&#x111;" horiz-adv-x="1284" 
d="M586 1229v100h309v105h207v-105h127v-100h-127v-1229h-207v168q-47 -88 -142 -138t-214 -50q-92 0 -175 33t-151.5 97.5t-109 173.5t-40.5 248q0 140 40.5 249t109 173.5t151.5 97.5t175 33q119 0 214 -50t142 -138v332h-309zM260 532q0 -94 26.5 -168t72.5 -119
t102.5 -68t120.5 -23q63 0 120 23t103 68t73 119t27 168t-27 168.5t-73 119.5t-103 68t-120 23q-64 0 -120.5 -23t-102.5 -68t-72.5 -119.5t-26.5 -168.5z" />
    <glyph glyph-name="Emacron" unicode="&#x112;" horiz-adv-x="1130" 
d="M115 0v1434h932v-187h-719v-430h657v-170h-657v-461h739v-186h-952zM276 1708v125h627v-125h-627z" />
    <glyph glyph-name="emacron" unicode="&#x113;" horiz-adv-x="1120" 
d="M580 -20q-110 0 -202 32.5t-163.5 98t-111.5 172.5t-40 247q0 142 40.5 251t111.5 174t160.5 97.5t195.5 32.5q105 0 192 -32t153.5 -96.5t103.5 -169t37 -240.5q0 -45 -6 -80h-789q23 -326 320 -326q214 0 276 172h184q-31 -115 -100 -191.5t-159.5 -109t-202.5 -32.5z
M250 1339v125h627v-125h-627zM264 623h596q-3 141 -79.5 221t-211.5 80q-131 0 -211.5 -76t-93.5 -225z" />
    <glyph glyph-name="Edotaccent" unicode="&#x116;" horiz-adv-x="1130" 
d="M115 0v1434h932v-187h-719v-430h657v-170h-657v-461h739v-186h-952zM469 1739q0 50 36.5 85.5t86.5 35.5t86.5 -35.5t36.5 -85.5t-36.5 -85.5t-86.5 -35.5t-86.5 35.5t-36.5 85.5z" />
    <glyph glyph-name="edotaccent" unicode="&#x117;" horiz-adv-x="1120" 
d="M580 -20q-110 0 -202 32.5t-163.5 98t-111.5 172.5t-40 247q0 142 40.5 251t111.5 174t160.5 97.5t195.5 32.5q105 0 192 -32t153.5 -96.5t103.5 -169t37 -240.5q0 -45 -6 -80h-789q23 -326 320 -326q214 0 276 172h184q-31 -115 -100 -191.5t-159.5 -109t-202.5 -32.5z
M264 623h596q-3 141 -79.5 221t-211.5 80q-131 0 -211.5 -76t-93.5 -225zM442 1370q0 50 36.5 85.5t86.5 35.5t86.5 -35.5t36.5 -85.5t-36.5 -85.5t-86.5 -35.5t-86.5 35.5t-36.5 85.5z" />
    <glyph glyph-name="Eogonek" unicode="&#x118;" horiz-adv-x="1130" 
d="M115 0v1434h932v-187h-719v-430h657v-170h-657v-461h739v-186h2q-121 0 -184.5 -46.5t-63.5 -115.5q0 -61 47.5 -89t120.5 -13v-119q-36 -8 -78.5 -10.5t-86.5 12t-79.5 37t-58 65t-22.5 95.5q0 114 94 184h-643z" />
    <glyph glyph-name="eogonek" unicode="&#x119;" horiz-adv-x="1120" 
d="M735 -383q-36 -8 -78.5 -10.5t-86.5 12t-79.5 37t-58 65t-22.5 95.5q0 102 75 170q-192 28 -307 164t-115 380q0 142 40.5 251t111.5 174t160.5 97.5t195.5 32.5q105 0 192 -32t153.5 -96.5t103.5 -169t37 -240.5q0 -45 -6 -80h-789q23 -326 320 -326q214 0 276 172h184
q-69 -259 -321 -317l2 -4q-76 -17 -116 -58.5t-40 -95.5q0 -61 47.5 -89t120.5 -13v-119zM264 623h596q-3 141 -79.5 221t-211.5 80q-131 0 -211.5 -76t-93.5 -225z" />
    <glyph glyph-name="Ecaron" unicode="&#x11a;" horiz-adv-x="1130" 
d="M115 0v1434h932v-187h-719v-430h657v-170h-657v-461h739v-186h-952zM231 1831h189l158 -211l157 211h189l-205 -270h-283z" />
    <glyph glyph-name="ecaron" unicode="&#x11b;" horiz-adv-x="1120" 
d="M580 -20q-110 0 -202 32.5t-163.5 98t-111.5 172.5t-40 247q0 142 40.5 251t111.5 174t160.5 97.5t195.5 32.5q105 0 192 -32t153.5 -96.5t103.5 -169t37 -240.5q0 -45 -6 -80h-789q23 -326 320 -326q214 0 276 172h184q-31 -115 -100 -191.5t-159.5 -109t-202.5 -32.5z
M205 1462h188l158 -211l158 211h188l-205 -270h-282zM264 623h596q-3 141 -79.5 221t-211.5 80q-131 0 -211.5 -76t-93.5 -225z" />
    <glyph glyph-name="Gcircumflex" unicode="&#x11c;" horiz-adv-x="1437" 
d="M739 -20q-307 0 -481 191.5t-174 541.5q0 353 177.5 546t475.5 193q221 0 374 -106.5t192 -307.5h-211q-37 116 -130.5 173t-224.5 57q-213 0 -326.5 -144t-113.5 -405q0 -262 115.5 -408.5t328.5 -146.5q176 0 284.5 103.5t107.5 312.5h-332v172h542v-115
q0 -320 -158 -488.5t-446 -168.5zM387 1563l205 270h282l205 -270h-188l-158 211l-158 -211h-188z" />
    <glyph glyph-name="gcircumflex" unicode="&#x11d;" horiz-adv-x="1204" 
d="M526 25q-72 0 -138 18.5t-125.5 60t-103.5 102t-70 150t-26 199.5q0 136 39.5 241t106 166.5t147 92t170.5 30.5q115 0 210 -46.5t147 -129.5v156h207v-1042q0 -106 -33.5 -187.5t-85.5 -130t-124 -80t-139.5 -42.5t-140.5 -11q-68 0 -130.5 9.5t-126 34t-110 62.5
t-76 99t-30.5 139h182q4 -87 86 -134.5t201 -47.5q142 0 231 71.5t89 217.5v178q-52 -83 -147 -129.5t-210 -46.5zM240 1194l204 270h283l205 -270h-189l-157 211l-158 -211h-188zM258 555q0 -173 91.5 -265.5t225.5 -92.5q63 0 119 22t101 65t71.5 113t26.5 158t-26.5 158
t-71.5 112t-101 64t-119 22q-134 0 -225.5 -91.5t-91.5 -264.5z" />
    <glyph glyph-name="Gbreve" unicode="&#x11e;" horiz-adv-x="1437" 
d="M739 -20q-307 0 -481 191.5t-174 541.5q0 353 177.5 546t475.5 193q221 0 374 -106.5t192 -307.5h-211q-37 116 -130.5 173t-224.5 57q-213 0 -326.5 -144t-113.5 -405q0 -262 115.5 -408.5t328.5 -146.5q176 0 284.5 103.5t107.5 312.5h-332v172h542v-115
q0 -320 -158 -488.5t-446 -168.5zM434 1833h139q6 -154 162 -154t162 154h139q0 -125 -75.5 -202t-225.5 -77t-225.5 77t-75.5 202z" />
    <glyph glyph-name="gbreve" unicode="&#x11f;" horiz-adv-x="1204" 
d="M526 25q-72 0 -138 18.5t-125.5 60t-103.5 102t-70 150t-26 199.5q0 136 39.5 241t106 166.5t147 92t170.5 30.5q115 0 210 -46.5t147 -129.5v156h207v-1042q0 -106 -33.5 -187.5t-85.5 -130t-124 -80t-139.5 -42.5t-140.5 -11q-68 0 -130.5 9.5t-126 34t-110 62.5
t-76 99t-30.5 139h182q4 -87 86 -134.5t201 -47.5q142 0 231 71.5t89 217.5v178q-52 -83 -147 -129.5t-210 -46.5zM258 555q0 -173 91.5 -265.5t225.5 -92.5q63 0 119 22t101 65t71.5 113t26.5 158t-26.5 158t-71.5 112t-101 64t-119 22q-134 0 -225.5 -91.5t-91.5 -264.5z
M287 1464h139q6 -153 162 -153t162 153h139q0 -125 -75.5 -201.5t-225.5 -76.5t-225.5 76.5t-75.5 201.5z" />
    <glyph glyph-name="Gdotaccent" unicode="&#x120;" horiz-adv-x="1437" 
d="M739 -20q-307 0 -481 191.5t-174 541.5q0 353 177.5 546t475.5 193q221 0 374 -106.5t192 -307.5h-211q-37 116 -130.5 173t-224.5 57q-213 0 -326.5 -144t-113.5 -405q0 -262 115.5 -408.5t328.5 -146.5q176 0 284.5 103.5t107.5 312.5h-332v172h542v-115
q0 -320 -158 -488.5t-446 -168.5zM614 1739q0 50 36.5 85.5t86.5 35.5t86.5 -35.5t36.5 -85.5t-36.5 -85.5t-86.5 -35.5t-86.5 35.5t-36.5 85.5z" />
    <glyph glyph-name="gdotaccent" unicode="&#x121;" horiz-adv-x="1204" 
d="M526 25q-72 0 -138 18.5t-125.5 60t-103.5 102t-70 150t-26 199.5q0 136 39.5 241t106 166.5t147 92t170.5 30.5q115 0 210 -46.5t147 -129.5v156h207v-1042q0 -106 -33.5 -187.5t-85.5 -130t-124 -80t-139.5 -42.5t-140.5 -11q-68 0 -130.5 9.5t-126 34t-110 62.5
t-76 99t-30.5 139h182q4 -87 86 -134.5t201 -47.5q142 0 231 71.5t89 217.5v178q-52 -83 -147 -129.5t-210 -46.5zM258 555q0 -173 91.5 -265.5t225.5 -92.5q63 0 119 22t101 65t71.5 113t26.5 158t-26.5 158t-71.5 112t-101 64t-119 22q-134 0 -225.5 -91.5t-91.5 -264.5z
M467 1370q0 50 36.5 85.5t86.5 35.5t86.5 -35.5t36.5 -85.5t-36.5 -85.5t-86.5 -35.5t-86.5 35.5t-36.5 85.5z" />
    <glyph glyph-name="uni0122" unicode="&#x122;" horiz-adv-x="1437" 
d="M739 -20q-307 0 -481 191.5t-174 541.5q0 353 177.5 546t475.5 193q221 0 374 -106.5t192 -307.5h-211q-37 116 -130.5 173t-224.5 57q-213 0 -326.5 -144t-113.5 -405q0 -262 115.5 -408.5t328.5 -146.5q176 0 284.5 103.5t107.5 312.5h-332v172h542v-115
q0 -320 -158 -488.5t-446 -168.5zM608 -182q0 56 37.5 92.5t95.5 36.5q69 0 112.5 -52.5t43.5 -156.5q0 -127 -66 -200t-174 -73h-16v93q70 3 100.5 33t30.5 90q-76 0 -120 38.5t-44 98.5z" />
    <glyph glyph-name="uni0123" unicode="&#x123;" horiz-adv-x="1204" 
d="M526 25q-72 0 -138 18.5t-125.5 60t-103.5 102t-70 150t-26 199.5q0 136 39.5 241t106 166.5t147 92t170.5 30.5q115 0 210 -46.5t147 -129.5v156h207v-1042q0 -106 -33.5 -187.5t-85.5 -130t-124 -80t-139.5 -42.5t-140.5 -11q-68 0 -130.5 9.5t-126 34t-110 62.5
t-76 99t-30.5 139h182q4 -87 86 -134.5t201 -47.5q142 0 231 71.5t89 217.5v178q-52 -83 -147 -129.5t-210 -46.5zM258 555q0 -173 91.5 -265.5t225.5 -92.5q63 0 119 22t101 65t71.5 113t26.5 158t-26.5 158t-71.5 112t-101 64t-119 22q-134 0 -225.5 -91.5t-91.5 -264.5z
M412 1372q0 127 66 200t173 73h17v-93q-70 -3 -100.5 -32.5t-30.5 -89.5q76 0 119.5 -39t43.5 -99q0 -56 -37.5 -92.5t-95.5 -36.5q-69 0 -112 52.5t-43 156.5z" />
    <glyph glyph-name="Hcircumflex" unicode="&#x124;" horiz-adv-x="1347" 
d="M1022 0v618h-694v-618h-213v1434h213v-639h694v639h211v-1434h-211zM328 1563l204 270h283l205 -270h-189l-157 211l-158 -211h-188z" />
    <glyph glyph-name="hcircumflex" unicode="&#x125;" 
d="M115 0v1434h207v-129l120 159h283l205 -270h-189l-157 211l-158 -211h-104v-342h6q8 34 31.5 71t64 75t109.5 62.5t153 24.5q81 0 147.5 -24t119 -73t81.5 -131.5t29 -192.5v-664h-207v616q0 144 -62.5 219.5t-187.5 75.5q-129 0 -206.5 -77.5t-77.5 -217.5v-616h-207z
" />
    <glyph glyph-name="Hbar" unicode="&#x126;" horiz-adv-x="1347" 
d="M1022 0v618h-694v-618h-213v1434h213v-291h694v291h211v-1434h-211zM328 795h694v172h-694v-172z" />
    <glyph glyph-name="hbar" unicode="&#x127;" 
d="M-18 1229v100h133v105h207v-105h303v-100h-303v-377h6q8 34 31.5 71t64 75t109.5 62.5t153 24.5q81 0 147.5 -24t119 -73t81.5 -131.5t29 -192.5v-664h-207v616q0 144 -62.5 219.5t-187.5 75.5q-129 0 -206.5 -77.5t-77.5 -217.5v-616h-207v1229h-133z" />
    <glyph glyph-name="Itilde" unicode="&#x128;" horiz-adv-x="440" 
d="M115 0v1434h213v-1434h-213zM-115 1647q0 100 49.5 154t135.5 54q51 0 93 -20.5t66 -45t54.5 -45t60.5 -20.5q35 0 57.5 23.5t22.5 56.5h129q0 -100 -49.5 -154.5t-136.5 -54.5q-42 0 -77 13.5t-58.5 32.5t-45 38.5t-45 33t-47.5 13.5q-35 0 -58.5 -23t-23.5 -56h-127z
" />
    <glyph glyph-name="itilde" unicode="&#x129;" horiz-adv-x="397" 
d="M94 0v1065h207v-1065h-207zM-135 1278q0 100 49 154.5t135 54.5q42 0 77 -13.5t59 -32.5t45 -38.5t45 -33t49 -13.5q34 0 56.5 23.5t22.5 56.5h129q0 -100 -49.5 -154.5t-136.5 -54.5q-51 0 -93 20.5t-65.5 45t-54 45t-59.5 20.5q-35 0 -58.5 -23.5t-23.5 -56.5h-127z
" />
    <glyph glyph-name="Imacron" unicode="&#x12a;" horiz-adv-x="440" 
d="M115 0v1434h213v-1434h-213zM-94 1708v125h626v-125h-626z" />
    <glyph glyph-name="imacron" unicode="&#x12b;" horiz-adv-x="397" 
d="M94 0v1065h207v-1065h-207zM-115 1339v125h627v-125h-627z" />
    <glyph glyph-name="Iogonek" unicode="&#x12e;" horiz-adv-x="440" 
d="M248 -383q-36 -8 -78.5 -10.5t-86.5 12t-80 37t-58.5 65t-22.5 95.5q0 88 55.5 148.5t137.5 82.5v1387h213v-1434q-121 0 -184.5 -46.5t-63.5 -115.5q0 -61 47.5 -89t120.5 -13v-119z" />
    <glyph glyph-name="iogonek" unicode="&#x12f;" horiz-adv-x="397" 
d="M201 1249q-50 0 -86.5 35.5t-36.5 85.5t36.5 85.5t86.5 35.5t86.5 -35.5t36.5 -85.5t-36.5 -85.5t-86.5 -35.5zM-102 -184q0 90 56.5 150.5t139.5 82.5v1016h207v-1065h2q-121 0 -184.5 -46.5t-63.5 -115.5q0 -61 47.5 -89t120.5 -13v-119q-36 -8 -78.5 -10.5t-86.5 12
t-79.5 37t-58 65t-22.5 95.5z" />
    <glyph glyph-name="Idotaccent" unicode="&#x130;" horiz-adv-x="440" 
d="M115 0v1434h213v-1434h-213zM98 1739q0 50 36.5 85.5t86.5 35.5t86.5 -35.5t36.5 -85.5t-36.5 -85.5t-86.5 -35.5t-86.5 35.5t-36.5 85.5z" />
    <glyph glyph-name="dotlessi" unicode="&#x131;" horiz-adv-x="397" 
d="M94 0v1065h207v-1065h-207z" />
    <glyph glyph-name="IJ" unicode="&#x132;" horiz-adv-x="1785" 
d="M115 0v1434h213v-1434h-213zM555 537h213q0 -179 91 -275t253 -96q164 0 255 99.5t91 291.5v877h213v-893q0 -270 -150.5 -415.5t-410.5 -145.5q-258 0 -406.5 144t-148.5 413z" />
    <glyph glyph-name="ij" unicode="&#x133;" horiz-adv-x="882" 
d="M115 0v1065h207v-1065h-207zM94 1372q0 51 36.5 87t86.5 36t86.5 -36t36.5 -87q0 -52 -36.5 -87.5t-86.5 -35.5t-86.5 35.5t-36.5 87.5zM336 -383v162h80q80 0 113.5 35.5t33.5 115.5v1135h207v-1169q0 -285 -301 -285q-86 0 -133 6zM543 1372q0 51 36.5 87t86.5 36
t86 -36t36 -87q0 -52 -36 -87.5t-86 -35.5t-86.5 35.5t-36.5 87.5z" />
    <glyph glyph-name="Jcircumflex" unicode="&#x134;" horiz-adv-x="1343" 
d="M670 -20q-258 0 -406.5 144t-148.5 413h213q0 -179 91 -275t253 -96q164 0 255 99.5t91 291.5v877h213v-893q0 -270 -150.5 -415.5t-410.5 -145.5zM782 1563l205 270h283l205 -270h-189l-158 211l-157 -211h-189z" />
    <glyph glyph-name="jcircumflex" unicode="&#x135;" horiz-adv-x="448" 
d="M53 -389q-86 0 -133 6v162h80q80 0 113.5 35.5t33.5 115.5v1135h207v-1169q0 -285 -301 -285zM-98 1194l204 270h283l205 -270h-188l-158 211l-158 -211h-188z" />
    <glyph glyph-name="uni0136" unicode="&#x136;" horiz-adv-x="1343" 
d="M115 0v1434h213v-760l667 760h254l-577 -654l628 -780h-247l-514 629l-211 -238v-391h-213zM541 -182q0 56 37.5 92.5t95.5 36.5q69 0 112 -52.5t43 -156.5q0 -127 -66 -200t-173 -73h-17v93q70 3 101 33t31 90q-76 0 -120 38.5t-44 98.5z" />
    <glyph glyph-name="uni0137" unicode="&#x137;" horiz-adv-x="1134" 
d="M115 0v1434h207v-904l499 535h234l-445 -459l502 -606h-231l-400 473l-159 -164v-309h-207zM449 -182q0 56 37.5 92.5t95.5 36.5q69 0 112 -52.5t43 -156.5q0 -127 -66 -200t-173 -73h-17v93q70 3 100.5 33t30.5 90q-76 0 -119.5 38.5t-43.5 98.5z" />
    <glyph glyph-name="Lacute" unicode="&#x139;" horiz-adv-x="1099" 
d="M115 0v1434h213v-1248h710v-186h-923zM119 1559l209 274h184l-209 -274h-184z" />
    <glyph glyph-name="lacute" unicode="&#x13a;" horiz-adv-x="436" 
d="M115 0v1434h207v-1434h-207zM119 1559l209 274h184l-209 -274h-184z" />
    <glyph glyph-name="uni013B" unicode="&#x13b;" horiz-adv-x="1099" 
d="M115 0v1434h213v-1248h710v-186h-923zM434 -193q0 56 37.5 93t95.5 37q69 0 112.5 -52.5t43.5 -156.5q0 -127 -66 -200t-174 -73h-16v92q70 3 100.5 33t30.5 90q-76 0 -120 38.5t-44 98.5z" />
    <glyph glyph-name="uni013C" unicode="&#x13c;" horiz-adv-x="436" 
d="M115 0v1434h207v-1434h-207zM80 -182q0 56 37.5 92.5t95.5 36.5q69 0 112.5 -52.5t43.5 -156.5q0 -127 -66 -200t-174 -73h-16v93q70 3 100.5 33t30.5 90q-76 0 -120 38.5t-44 98.5z" />
    <glyph glyph-name="Lcaron" unicode="&#x13d;" horiz-adv-x="1099" 
d="M115 0v1434h213v-1248h710v-186h-923zM541 1325q0 56 37.5 92.5t95.5 36.5q69 0 112 -52.5t43 -156.5q0 -127 -65.5 -199.5t-173.5 -72.5h-17v92q70 3 101 33t31 90q-76 0 -120 38.5t-44 98.5z" />
    <glyph glyph-name="lcaron" unicode="&#x13e;" horiz-adv-x="522" 
d="M412 901l84 533h170l-84 -533h-170zM115 0v1434h207v-1434h-207z" />
    <glyph glyph-name="Lslash" unicode="&#x141;" horiz-adv-x="1157" 
d="M33 317v215l139 148v754h213v-531l209 221h2v-213l-211 -223v-502h711v-186h-924v465z" />
    <glyph glyph-name="lslash" unicode="&#x142;" horiz-adv-x="481" 
d="M10 334v203l129 163v734h207v-471l123 155h2v-203l-125 -157v-758h-207v498z" />
    <glyph glyph-name="Nacute" unicode="&#x143;" horiz-adv-x="1378" 
d="M115 0v1434h229l700 -1100h7v1100h213v-1434h-238l-694 1090h-4v-1090h-213zM592 1559l209 274h184l-209 -274h-184z" />
    <glyph glyph-name="nacute" unicode="&#x144;" 
d="M856 616q0 144 -62.5 219.5t-187.5 75.5q-129 0 -206.5 -77.5t-77.5 -217.5v-616h-207v1065h207v-213h6q8 34 31.5 71t64 75t109.5 62.5t153 24.5q81 0 147.5 -24t119 -73t81.5 -131.5t29 -192.5v-664h-207v616zM494 1190l208 274h185l-209 -274h-184z" />
    <glyph glyph-name="uni0145" unicode="&#x145;" horiz-adv-x="1378" 
d="M115 0v1434h229l700 -1100h7v1100h213v-1434h-238l-694 1090h-4v-1090h-213zM553 -182q0 56 37.5 92.5t95.5 36.5q69 0 112.5 -52.5t43.5 -156.5q0 -127 -66 -200t-174 -73h-16v93q70 3 100.5 33t30.5 90q-76 0 -120 38.5t-44 98.5z" />
    <glyph glyph-name="uni0146" unicode="&#x146;" 
d="M856 616q0 144 -62.5 219.5t-187.5 75.5q-129 0 -206.5 -77.5t-77.5 -217.5v-616h-207v1065h207v-213h6q8 34 31.5 71t64 75t109.5 62.5t153 24.5q81 0 147.5 -24t119 -73t81.5 -131.5t29 -192.5v-664h-207v616zM455 -182q0 56 37.5 92.5t95.5 36.5q69 0 112 -52.5
t43 -156.5q0 -127 -66 -200t-173 -73h-17v93q70 3 100.5 33t30.5 90q-76 0 -119.5 38.5t-43.5 98.5z" />
    <glyph glyph-name="Ncaron" unicode="&#x147;" horiz-adv-x="1378" 
d="M115 0v1434h229l700 -1100h7v1100h213v-1434h-238l-694 1090h-4v-1090h-213zM332 1831h188l158 -211l158 211h188l-205 -270h-282z" />
    <glyph glyph-name="ncaron" unicode="&#x148;" 
d="M856 616q0 144 -62.5 219.5t-187.5 75.5q-129 0 -206.5 -77.5t-77.5 -217.5v-616h-207v1065h207v-213h6q8 34 31.5 71t64 75t109.5 62.5t153 24.5q81 0 147.5 -24t119 -73t81.5 -131.5t29 -192.5v-664h-207v616zM231 1462h189l158 -211l157 211h189l-205 -270h-283z" />
    <glyph glyph-name="Eng" unicode="&#x14a;" horiz-adv-x="1378" 
d="M707 -451q-154 0 -256 54v196q113 -63 247 -63t220.5 65t117.5 191l-704 1093h-4v-1085h-213v1434h223l706 -1098h7v1098h213v-1321q0 -271 -150.5 -417.5t-406.5 -146.5z" />
    <glyph glyph-name="eng" unicode="&#x14b;" horiz-adv-x="1181" 
d="M784 -451q-123 0 -200 41v172q79 -32 151 -32q67 0 96 40.5t29 104.5v125h-4v616q0 144 -62.5 219.5t-187.5 75.5q-129 0 -206.5 -77.5t-77.5 -217.5v-616h-207v1065h207v-213h6q8 34 31.5 71t64 75t109.5 62.5t153 24.5q81 0 147.5 -24t119 -73t81.5 -131.5t29 -192.5
v-664h4v-150q0 -155 -74.5 -228t-208.5 -73z" />
    <glyph glyph-name="Omacron" unicode="&#x14c;" horiz-adv-x="1488" 
d="M745 -20q-145 0 -266.5 50.5t-209 144t-136.5 232.5t-49 310t49 310t136.5 232t209 143t266.5 50q294 0 477 -197t183 -538t-183 -539t-477 -198zM301 717q0 -262 121 -407.5t323 -145.5q201 0 322 145.5t121 407.5t-121 406.5t-322 144.5q-202 0 -323 -144.5
t-121 -406.5zM432 1708v125h627v-125h-627z" />
    <glyph glyph-name="omacron" unicode="&#x14d;" horiz-adv-x="1165" 
d="M582 -20q-102 0 -193 33.5t-165 99t-117.5 173.5t-43.5 246q0 111 28.5 203.5t78 156t116 108t141 65t155.5 20.5q102 0 193.5 -33.5t165.5 -99t117.5 -174t43.5 -246.5t-43.5 -246t-117.5 -173.5t-165.5 -99t-193.5 -33.5zM260 532q0 -186 91.5 -282t230.5 -96t231 96
t92 282t-92 282.5t-231 96.5t-230.5 -96.5t-91.5 -282.5zM270 1339v125h627v-125h-627z" />
    <glyph glyph-name="Ohungarumlaut" unicode="&#x150;" horiz-adv-x="1488" 
d="M745 -20q-145 0 -266.5 50.5t-209 144t-136.5 232.5t-49 310t49 310t136.5 232t209 143t266.5 50q294 0 477 -197t183 -538t-183 -539t-477 -198zM301 717q0 -262 121 -407.5t323 -145.5q201 0 322 145.5t121 407.5t-121 406.5t-322 144.5q-202 0 -323 -144.5
t-121 -406.5zM457 1559l209 274h184l-209 -274h-184zM772 1559l209 274h184l-209 -274h-184z" />
    <glyph glyph-name="ohungarumlaut" unicode="&#x151;" horiz-adv-x="1165" 
d="M582 -20q-102 0 -193 33.5t-165 99t-117.5 173.5t-43.5 246q0 111 28.5 203.5t78 156t116 108t141 65t155.5 20.5q102 0 193.5 -33.5t165.5 -99t117.5 -174t43.5 -246.5t-43.5 -246t-117.5 -173.5t-165.5 -99t-193.5 -33.5zM260 532q0 -186 91.5 -282t230.5 -96t231 96
t92 282t-92 282.5t-231 96.5t-230.5 -96.5t-91.5 -282.5zM295 1190l209 274h184l-209 -274h-184zM610 1190l209 274h185l-209 -274h-185z" />
    <glyph glyph-name="OE" unicode="&#x152;" horiz-adv-x="2207" 
d="M745 -20q-145 0 -266.5 50.5t-209 144t-136.5 232.5t-49 310t49 310t136.5 232t209 143t266.5 50q272 0 447 -166v148h932v-187h-719v-430h657v-170h-657v-461h739v-186h-952v147q-176 -167 -447 -167zM301 717q0 -262 121 -407.5t323 -145.5q201 0 322 145.5t121 407.5
t-121 406.5t-322 144.5q-202 0 -323 -144.5t-121 -406.5z" />
    <glyph glyph-name="oe" unicode="&#x153;" horiz-adv-x="1966" 
d="M582 -20q-102 0 -193 33.5t-165 99t-117.5 173.5t-43.5 246q0 111 28.5 203.5t78 156t116 108t141 65t155.5 20.5q128 0 238 -50.5t181 -151.5q67 102 175 152t241 50q105 0 192 -32t153.5 -96.5t103.5 -169t37 -240.5q0 -40 -7 -80h-788q23 -326 319 -326q215 0 277 172
h184q-31 -115 -100.5 -191.5t-160 -109t-202.5 -32.5q-137 0 -247 50.5t-177 151.5q-71 -101 -181 -151.5t-238 -50.5zM260 532q0 -186 91.5 -282t230.5 -96t231 96t92 282t-92 282.5t-231 96.5t-230.5 -96.5t-91.5 -282.5zM1110 623h596q-3 141 -79.5 221t-211.5 80
q-131 0 -211.5 -76t-93.5 -225z" />
    <glyph glyph-name="Racute" unicode="&#x154;" horiz-adv-x="1300" 
d="M985 0q-20 41 -20 160v178q0 227 -263 227h-374v-565h-213v1434h571q247 0 371.5 -111t124.5 -299q0 -134 -62.5 -225t-175.5 -133q122 -36 177 -116t55 -212v-178q0 -119 20 -160h-211zM328 737h348q142 0 215.5 66.5t73.5 193.5q0 250 -289 250h-348v-510zM506 1559
l209 274h184l-209 -274h-184z" />
    <glyph glyph-name="racute" unicode="&#x155;" horiz-adv-x="776" 
d="M322 532v-532h-207v1065h207v-246h4q28 107 110 180.5t217 73.5q49 0 80 -10v-174q-40 6 -78 6q-153 0 -243 -94t-90 -269zM317 1190l209 274h185l-209 -274h-185z" />
    <glyph glyph-name="uni0156" unicode="&#x156;" horiz-adv-x="1300" 
d="M985 0q-20 41 -20 160v178q0 227 -263 227h-374v-565h-213v1434h571q247 0 371.5 -111t124.5 -299q0 -134 -62.5 -225t-175.5 -133q122 -36 177 -116t55 -212v-178q0 -119 20 -160h-211zM328 737h348q142 0 215.5 66.5t73.5 193.5q0 250 -289 250h-348v-510zM467 -182
q0 56 37.5 92.5t95.5 36.5q69 0 112.5 -52.5t43.5 -156.5q0 -127 -66 -200t-174 -73h-16v93q70 3 100.5 33t30.5 90q-76 0 -120 38.5t-44 98.5z" />
    <glyph glyph-name="uni0157" unicode="&#x157;" horiz-adv-x="776" 
d="M322 532v-532h-207v1065h207v-246h4q28 107 110 180.5t217 73.5q49 0 80 -10v-174q-40 6 -78 6q-153 0 -243 -94t-90 -269zM82 -182q0 56 37.5 92.5t95.5 36.5q69 0 112.5 -52.5t43.5 -156.5q0 -127 -66 -200t-174 -73h-16v93q70 3 100.5 33t30.5 90q-76 0 -120 38.5
t-44 98.5z" />
    <glyph glyph-name="Rcaron" unicode="&#x158;" horiz-adv-x="1300" 
d="M985 0q-20 41 -20 160v178q0 227 -263 227h-374v-565h-213v1434h571q247 0 371.5 -111t124.5 -299q0 -134 -62.5 -225t-175.5 -133q122 -36 177 -116t55 -212v-178q0 -119 20 -160h-211zM246 1831h188l158 -211l158 211h188l-205 -270h-282zM328 737h348
q142 0 215.5 66.5t73.5 193.5q0 250 -289 250h-348v-510z" />
    <glyph glyph-name="rcaron" unicode="&#x159;" horiz-adv-x="776" 
d="M322 532v-532h-207v1065h207v-246h4q28 107 110 180.5t217 73.5q49 0 80 -10v-174q-40 6 -78 6q-153 0 -243 -94t-90 -269zM57 1462h189l157 -211l158 211h189l-205 -270h-283z" />
    <glyph glyph-name="Sacute" unicode="&#x15a;" horiz-adv-x="1280" 
d="M647 -20q-268 0 -415.5 122t-147.5 332h217q6 -124 92 -199t256 -75q157 0 240.5 64.5t83.5 176.5q0 100 -65.5 153.5t-192.5 78.5l-193 39q-397 80 -397 385q0 186 135.5 290.5t378.5 104.5t379.5 -106t136.5 -295h-217q-2 103 -80 162t-223 59q-147 0 -218 -59.5
t-71 -155.5q0 -165 232 -213l184 -37q220 -44 327 -140t107 -264q0 -205 -148 -314t-401 -109zM530 1559l209 274h185l-209 -274h-185z" />
    <glyph glyph-name="sacute" unicode="&#x15b;" horiz-adv-x="997" 
d="M498 -20q-200 0 -320.5 85t-124.5 252h187q8 -63 46 -104t91.5 -57.5t122.5 -16.5q105 0 169 40t64 122q0 61 -39.5 92.5t-120.5 50.5l-198 45q-291 68 -291 293q0 144 112.5 223.5t301.5 79.5q192 0 301 -85t116 -248h-174q-13 94 -74 134t-167 40q-105 0 -160 -35.5
t-55 -104.5q0 -56 37 -90t120 -53l201 -45q70 -17 120.5 -38t93.5 -55t65 -84t22 -116q0 -85 -36.5 -149.5t-100 -102t-141 -55.5t-168.5 -18zM399 1190l209 274h185l-209 -274h-185z" />
    <glyph glyph-name="Scircumflex" unicode="&#x15c;" horiz-adv-x="1280" 
d="M647 -20q-268 0 -415.5 122t-147.5 332h217q6 -124 92 -199t256 -75q157 0 240.5 64.5t83.5 176.5q0 100 -65.5 153.5t-192.5 78.5l-193 39q-397 80 -397 385q0 186 135.5 290.5t378.5 104.5t379.5 -106t136.5 -295h-217q-2 103 -80 162t-223 59q-147 0 -218 -59.5
t-71 -155.5q0 -165 232 -213l184 -37q220 -44 327 -140t107 -264q0 -205 -148 -314t-401 -109zM281 1563l204 270h283l205 -270h-189l-157 211l-158 -211h-188z" />
    <glyph glyph-name="scircumflex" unicode="&#x15d;" horiz-adv-x="997" 
d="M498 -20q-200 0 -320.5 85t-124.5 252h187q8 -63 46 -104t91.5 -57.5t122.5 -16.5q105 0 169 40t64 122q0 61 -39.5 92.5t-120.5 50.5l-198 45q-291 68 -291 293q0 144 112.5 223.5t301.5 79.5q192 0 301 -85t116 -248h-174q-13 94 -74 134t-167 40q-105 0 -160 -35.5
t-55 -104.5q0 -56 37 -90t120 -53l201 -45q70 -17 120.5 -38t93.5 -55t65 -84t22 -116q0 -85 -36.5 -149.5t-100 -102t-141 -55.5t-168.5 -18zM152 1194l204 270h283l205 -270h-189l-157 211l-158 -211h-188z" />
    <glyph glyph-name="Scedilla" unicode="&#x15e;" horiz-adv-x="1280" 
d="M496 -362q71 -2 112 20.5t41 67.5q0 51 -45.5 69t-101.5 -10l-62 76l107 123q-222 23 -342.5 142t-120.5 308h217q6 -124 92 -199t256 -75q157 0 240.5 64.5t83.5 176.5q0 100 -65.5 153.5t-192.5 78.5l-193 39q-397 80 -397 385q0 186 135.5 290.5t378.5 104.5
t379.5 -106t136.5 -295h-217q-2 103 -80 162t-223 59q-147 0 -218 -59.5t-71 -155.5q0 -165 232 -213l184 -37q220 -44 327 -140t107 -264q0 -195 -136 -304.5t-372 -118.5l-80 -84q6 2 23 2q70 0 118 -47.5t48 -124.5q0 -54 -25 -94.5t-68.5 -63t-95 -33t-112.5 -10.5v113z
" />
    <glyph glyph-name="scedilla" unicode="&#x15f;" horiz-adv-x="997" 
d="M369 -362q71 -2 112 20.5t41 67.5q0 51 -46 69t-101 -10l-62 76l105 123q-166 16 -263.5 99.5t-101.5 233.5h187q8 -63 46 -104t91.5 -57.5t122.5 -16.5q105 0 169 40t64 122q0 61 -39.5 92.5t-120.5 50.5l-198 45q-291 68 -291 293q0 144 112.5 223.5t301.5 79.5
q192 0 301 -85t116 -248h-174q-13 94 -74 134t-167 40q-105 0 -160 -35.5t-55 -104.5q0 -56 37 -90t120 -53l201 -45q70 -17 120.5 -38t93.5 -55t65 -84t22 -116q0 -77 -30 -137.5t-83.5 -98.5t-120.5 -59.5t-147 -27.5l-82 -86q6 2 23 2q70 0 118 -47.5t48 -124.5
q0 -54 -25 -94.5t-68.5 -63t-95 -33t-112.5 -10.5v113z" />
    <glyph glyph-name="Scaron" unicode="&#x160;" horiz-adv-x="1280" 
d="M647 -20q-268 0 -415.5 122t-147.5 332h217q6 -124 92 -199t256 -75q157 0 240.5 64.5t83.5 176.5q0 100 -65.5 153.5t-192.5 78.5l-193 39q-397 80 -397 385q0 186 135.5 290.5t378.5 104.5t379.5 -106t136.5 -295h-217q-2 103 -80 162t-223 59q-147 0 -218 -59.5
t-71 -155.5q0 -165 232 -213l184 -37q220 -44 327 -140t107 -264q0 -205 -148 -314t-401 -109zM270 1831h189l157 -211l158 211h189l-205 -270h-283z" />
    <glyph glyph-name="scaron" unicode="&#x161;" horiz-adv-x="997" 
d="M498 -20q-200 0 -320.5 85t-124.5 252h187q8 -63 46 -104t91.5 -57.5t122.5 -16.5q105 0 169 40t64 122q0 61 -39.5 92.5t-120.5 50.5l-198 45q-291 68 -291 293q0 144 112.5 223.5t301.5 79.5q192 0 301 -85t116 -248h-174q-13 94 -74 134t-167 40q-105 0 -160 -35.5
t-55 -104.5q0 -56 37 -90t120 -53l201 -45q70 -17 120.5 -38t93.5 -55t65 -84t22 -116q0 -85 -36.5 -149.5t-100 -102t-141 -55.5t-168.5 -18zM139 1462h189l157 -211l158 211h188l-204 -270h-283z" />
    <glyph glyph-name="uni0162" unicode="&#x162;" horiz-adv-x="1200" 
d="M494 0v1243h-441v191h1094v-191h-440v-1243h-66l-98 -104q6 2 22 2q70 0 118 -47.5t48 -124.5q0 -54 -25 -94.5t-68.5 -63t-95 -33t-112.5 -10.5v113q71 -2 112.5 20.5t41.5 67.5q0 51 -46 69t-102 -10l-61 76z" />
    <glyph glyph-name="uni0163" unicode="&#x163;" horiz-adv-x="702" 
d="M43 901v164h174v268h207v-268h211v-164h-211v-596q0 -81 32.5 -116t116.5 -35q43 0 76 4v-156q-59 -16 -125 -16l-84 -90q6 2 23 2q70 0 118 -47.5t48 -124.5q0 -54 -25 -94.5t-68.5 -63t-95 -33t-112.5 -10.5v113q71 -2 112 20.5t41 67.5q0 51 -45.5 69t-101.5 -10
l-62 76l119 139h6q-180 50 -180 270v631h-174z" />
    <glyph glyph-name="Tcaron" unicode="&#x164;" horiz-adv-x="1200" 
d="M494 0v1243h-441v191h1094v-191h-440v-1243h-213zM242 1831h188l158 -211l157 211h189l-205 -270h-283z" />
    <glyph glyph-name="tcaron" unicode="&#x165;" horiz-adv-x="690" 
d="M516 -14q-299 0 -299 284v631h-174v164h174v268h207v-268h211v-164h-211v-596q0 -81 32.5 -116t116.5 -35q43 0 76 4v-156q-62 -16 -133 -16zM473 1184l209 274h184l-209 -274h-184z" />
    <glyph glyph-name="Tbar" unicode="&#x166;" horiz-adv-x="1200" 
d="M205 872v148h289v223h-441v191h1094v-191h-440v-223h286v-148h-286v-872h-213v872h-289z" />
    <glyph glyph-name="tbar" unicode="&#x167;" horiz-adv-x="702" 
d="M43 598v164h174v139h-174v164h174v268h207v-268h211v-164h-211v-139h211v-164h-211v-293q0 -81 32.5 -116t116.5 -35q43 0 76 4v-156q-62 -16 -133 -16q-299 0 -299 284v328h-174z" />
    <glyph glyph-name="Utilde" unicode="&#x168;" horiz-adv-x="1355" 
d="M678 -20q-262 0 -412.5 145.5t-150.5 417.5v891h213v-877q0 -189 92 -290t258 -101t258 101t92 290v877h215v-891q0 -271 -152 -417t-413 -146zM334 1647q0 100 49 154t135 54q42 0 77 -13.5t59 -32.5t45 -38.5t45 -33t49 -13.5q34 0 56.5 23.5t22.5 56.5h129
q0 -100 -49.5 -154.5t-136.5 -54.5q-51 0 -93 20.5t-65.5 45t-54 45t-59.5 20.5q-35 0 -58.5 -23t-23.5 -56h-127z" />
    <glyph glyph-name="utilde" unicode="&#x169;" 
d="M322 449q0 -144 62 -219.5t187 -75.5q129 0 207 77.5t78 217.5v616h207v-1065h-207v213h-6q-8 -34 -31.5 -71t-64 -75t-109.5 -62.5t-153 -24.5q-81 0 -147.5 24t-119 73t-81.5 131.5t-29 192.5v664h207v-616zM248 1278q0 100 49 154.5t135 54.5q42 0 77 -13.5t59 -32.5
t45 -38.5t45 -33t49 -13.5q34 0 56.5 23.5t22.5 56.5h129q0 -100 -49.5 -154.5t-136.5 -54.5q-51 0 -93 20.5t-65.5 45t-54 45t-59.5 20.5q-35 0 -58.5 -23.5t-23.5 -56.5h-127z" />
    <glyph glyph-name="Umacron" unicode="&#x16a;" horiz-adv-x="1355" 
d="M678 -20q-262 0 -412.5 145.5t-150.5 417.5v891h213v-877q0 -189 92 -290t258 -101t258 101t92 290v877h215v-891q0 -271 -152 -417t-413 -146zM354 1708v125h627v-125h-627z" />
    <glyph glyph-name="umacron" unicode="&#x16b;" 
d="M322 449q0 -144 62 -219.5t187 -75.5q129 0 207 77.5t78 217.5v616h207v-1065h-207v213h-6q-8 -34 -31.5 -71t-64 -75t-109.5 -62.5t-153 -24.5q-81 0 -147.5 24t-119 73t-81.5 131.5t-29 192.5v664h207v-616zM268 1339v125h627v-125h-627z" />
    <glyph glyph-name="Ubreve" unicode="&#x16c;" horiz-adv-x="1355" 
d="M678 -20q-262 0 -412.5 145.5t-150.5 417.5v891h213v-877q0 -189 92 -290t258 -101t258 101t92 290v877h215v-891q0 -271 -152 -417t-413 -146zM365 1833h139q6 -154 162 -154q155 0 161 154h140q0 -125 -75.5 -202t-225.5 -77t-225.5 77t-75.5 202z" />
    <glyph glyph-name="ubreve" unicode="&#x16d;" 
d="M322 449q0 -144 62 -219.5t187 -75.5q129 0 207 77.5t78 217.5v616h207v-1065h-207v213h-6q-8 -34 -31.5 -71t-64 -75t-109.5 -62.5t-153 -24.5q-81 0 -147.5 24t-119 73t-81.5 131.5t-29 192.5v664h207v-616zM281 1464h139q6 -153 162 -153q155 0 161 153h140
q0 -125 -75.5 -201.5t-225.5 -76.5t-225.5 76.5t-75.5 201.5z" />
    <glyph glyph-name="Uring" unicode="&#x16e;" horiz-adv-x="1355" 
d="M678 -20q-262 0 -412.5 145.5t-150.5 417.5v891h213v-877q0 -189 92 -290t258 -101t258 101t92 290v877h215v-891q0 -271 -152 -417t-413 -146zM477 1714q0 77 55 130.5t136 53.5t135.5 -53.5t54.5 -130.5t-54.5 -130.5t-135.5 -53.5t-136 53.5t-55 130.5zM582 1714
q0 -38 24.5 -63t61.5 -25t61.5 25t24.5 63q0 37 -24.5 61.5t-61.5 24.5t-61.5 -24.5t-24.5 -61.5z" />
    <glyph glyph-name="uring" unicode="&#x16f;" 
d="M322 449q0 -144 62 -219.5t187 -75.5q129 0 207 77.5t78 217.5v616h207v-1065h-207v213h-6q-8 -34 -31.5 -71t-64 -75t-109.5 -62.5t-153 -24.5q-81 0 -147.5 24t-119 73t-81.5 131.5t-29 192.5v664h207v-616zM391 1346q0 77 55 130.5t136 53.5t135.5 -53.5t54.5 -130.5
t-54.5 -131t-135.5 -54t-136 54t-55 131zM496 1346q0 -38 24.5 -63.5t61.5 -25.5t61.5 25.5t24.5 63.5q0 37 -24.5 61.5t-61.5 24.5t-61.5 -24.5t-24.5 -61.5z" />
    <glyph glyph-name="Uhungarumlaut" unicode="&#x170;" horiz-adv-x="1355" 
d="M678 -20q-262 0 -412.5 145.5t-150.5 417.5v891h213v-877q0 -189 92 -290t258 -101t258 101t92 290v877h215v-891q0 -271 -152 -417t-413 -146zM379 1559l209 274h184l-209 -274h-184zM694 1559l209 274h184l-208 -274h-185z" />
    <glyph glyph-name="uhungarumlaut" unicode="&#x171;" 
d="M322 449q0 -144 62 -219.5t187 -75.5q129 0 207 77.5t78 217.5v616h207v-1065h-207v213h-6q-8 -34 -31.5 -71t-64 -75t-109.5 -62.5t-153 -24.5q-81 0 -147.5 24t-119 73t-81.5 131.5t-29 192.5v664h207v-616zM293 1190l209 274h184l-209 -274h-184zM608 1190l209 274
h184l-208 -274h-185z" />
    <glyph glyph-name="Uogonek" unicode="&#x172;" horiz-adv-x="1355" 
d="M829 -383q-36 -8 -78 -10.5t-86 12t-79.5 37t-58.5 65t-23 95.5q0 101 76 170q-218 27 -341.5 170t-123.5 387v891h213v-877q0 -189 92 -290t258 -101t258 101t92 290v877h215v-891q0 -232 -112.5 -372.5t-311.5 -178.5q-77 -17 -117 -58t-40 -96q0 -61 48 -89t119 -13
v-119z" />
    <glyph glyph-name="uogonek" unicode="&#x173;" 
d="M322 449q0 -144 62 -219.5t187 -75.5q129 0 207 77.5t78 217.5v616h207v-1065h2q-121 0 -184.5 -46.5t-63.5 -115.5q0 -61 47.5 -89t120.5 -13v-119q-36 -8 -78.5 -10.5t-86.5 12t-80 37t-58.5 65t-22.5 95.5q0 90 56.5 150.5t140.5 82.5v164h-6q-8 -34 -31.5 -71
t-64 -75t-109.5 -62.5t-153 -24.5q-81 0 -147.5 24t-119 73t-81.5 131.5t-29 192.5v664h207v-616z" />
    <glyph glyph-name="Wcircumflex" unicode="&#x174;" horiz-adv-x="2015" 
d="M434 0l-381 1434h217l283 -1135h10l334 1135h223l332 -1135h10l283 1135h217l-379 -1434h-225l-350 1163l-351 -1163h-223zM659 1563l205 270h283l205 -270h-189l-157 211l-158 -211h-189z" />
    <glyph glyph-name="wcircumflex" unicode="&#x175;" horiz-adv-x="1650" 
d="M340 0l-297 1065h199l223 -858h8l262 858h180l263 -858h8l223 858h199l-299 -1065h-234l-250 791l-252 -791h-233zM477 1194l205 270h283l204 -270h-188l-158 211l-157 -211h-189z" />
    <glyph glyph-name="Ycircumflex" unicode="&#x176;" horiz-adv-x="1370" 
d="M575 0v549l-522 885h240l391 -678l393 678h240l-522 -885v-549h-220zM336 1563l205 270h282l205 -270h-188l-158 211l-158 -211h-188z" />
    <glyph glyph-name="ycircumflex" unicode="&#x177;" horiz-adv-x="1124" 
d="M152 -221q52 -9 93.5 -4t71.5 15.5t53.5 32t39 45.5t28.5 56q17 42 17.5 74t-13.5 68l-399 999h213l305 -813l307 813h213l-450 -1126q-83 -206 -192 -283t-287 -55v178zM215 1194l205 270h282l205 -270h-188l-158 211l-158 -211h-188z" />
    <glyph glyph-name="Ydieresis" unicode="&#x178;" horiz-adv-x="1370" 
d="M575 0v549l-522 885h240l391 -678l393 678h240l-522 -885v-549h-220zM350 1739q0 50 36.5 85.5t86.5 35.5t86.5 -35.5t36.5 -85.5t-36.5 -85.5t-86.5 -35.5t-86.5 35.5t-36.5 85.5zM770 1739q0 50 36.5 85.5t86.5 35.5t86.5 -35.5t36.5 -85.5t-36.5 -85.5t-86.5 -35.5
t-86.5 35.5t-36.5 85.5z" />
    <glyph glyph-name="Zacute" unicode="&#x179;" horiz-adv-x="1257" 
d="M82 0v186l848 1061h-819v187h1056l-2 -187l-848 -1061h859v-186h-1094zM545 1559l209 274h184l-209 -274h-184z" />
    <glyph glyph-name="zacute" unicode="&#x17a;" horiz-adv-x="1026" 
d="M82 0v176l616 713h-596v176h842v-176l-616 -713h616v-176h-862zM408 1190l208 274h185l-209 -274h-184z" />
    <glyph glyph-name="Zdotaccent" unicode="&#x17b;" horiz-adv-x="1257" 
d="M82 0v186l848 1061h-819v187h1056l-2 -187l-848 -1061h859v-186h-1094zM522 1739q0 50 36.5 85.5t86.5 35.5t86.5 -35.5t36.5 -85.5t-36.5 -85.5t-86.5 -35.5t-86.5 35.5t-36.5 85.5z" />
    <glyph glyph-name="zdotaccent" unicode="&#x17c;" horiz-adv-x="1026" 
d="M82 0v176l616 713h-596v176h842v-176l-616 -713h616v-176h-862zM385 1370q0 50 36.5 85.5t86.5 35.5t86.5 -35.5t36.5 -85.5t-36.5 -85.5t-86.5 -35.5t-86.5 35.5t-36.5 85.5z" />
    <glyph glyph-name="Zcaron" unicode="&#x17d;" horiz-adv-x="1257" 
d="M82 0v186l848 1061h-819v187h1056l-2 -187l-848 -1061h859v-186h-1094zM285 1831h188l158 -211l157 211h189l-205 -270h-283z" />
    <glyph glyph-name="zcaron" unicode="&#x17e;" horiz-adv-x="1026" 
d="M82 0v176l616 713h-596v176h842v-176l-616 -713h616v-176h-862zM147 1462h189l158 -211l157 211h189l-205 -270h-283z" />
    <glyph glyph-name="uni018F" unicode="&#x18f;" horiz-adv-x="1427" 
d="M686 -20q-287 0 -444.5 168t-157.5 489v115h1042q-8 246 -119.5 381t-316.5 135q-130 0 -223.5 -57t-130.5 -173h-211q39 201 191.5 307.5t373.5 106.5q298 0 475.5 -193t177.5 -546q0 -350 -174 -541.5t-483 -191.5zM293 580q0 -209 109 -312.5t284 -103.5
q182 0 292 108.5t138 307.5h-823z" />
    <glyph glyph-name="florin" unicode="&#x192;" horiz-adv-x="620" 
d="M43 -211q85 0 122.5 51.5t37.5 157.5v694h-156v180h156v215q0 183 86 266t280 83v-179q-83 0 -121 -49.5t-38 -158.5v-177h159v-180h-159v-733q0 -189 -90 -268.5t-277 -79.5v178z" />
    <glyph glyph-name="Ohorn" unicode="&#x1a0;" horiz-adv-x="1488" 
d="M745 -20q-145 0 -266.5 50.5t-209 144t-136.5 232.5t-49 310t49 310t136.5 232t209 143t266.5 50h478v162h178v-324h-213q104 -96 160.5 -242t56.5 -331q0 -341 -183 -539t-477 -198zM301 717q0 -262 121 -407.5t323 -145.5q201 0 322 145.5t121 407.5t-121 406.5
t-322 144.5q-202 0 -323 -144.5t-121 -406.5z" />
    <glyph glyph-name="ohorn" unicode="&#x1a1;" horiz-adv-x="1165" 
d="M582 -20q-102 0 -193 33.5t-165 99t-117.5 173.5t-43.5 246q0 111 28.5 203.5t78 156t116 108t141 65t155.5 20.5h346v160h168v-319h-129q135 -148 135 -394q0 -138 -43.5 -246t-117.5 -173.5t-165.5 -99t-193.5 -33.5zM260 532q0 -186 91.5 -282t230.5 -96t231 96
t92 282t-92 282.5t-231 96.5t-230.5 -96.5t-91.5 -282.5z" />
    <glyph glyph-name="Uhorn" unicode="&#x1af;" horiz-adv-x="1355" 
d="M678 -20q-262 0 -412.5 145.5t-150.5 417.5v891h213v-877q0 -189 92 -290t258 -101t258 101t92 290v877h250v180h178v-344h-213v-727q0 -271 -152 -417t-413 -146z" />
    <glyph glyph-name="uhorn" unicode="&#x1b0;" 
d="M322 449q0 -144 62 -219.5t187 -75.5q129 0 207 77.5t78 217.5v616h250v180h178v-344h-221v-901h-207v213h-6q-8 -34 -31.5 -71t-64 -75t-109.5 -62.5t-153 -24.5q-81 0 -147.5 24t-119 73t-81.5 131.5t-29 192.5v664h207v-616z" />
    <glyph glyph-name="uni01CD" unicode="&#x1cd;" horiz-adv-x="1429" 
d="M43 0l539 1434h266l538 -1434h-223l-121 330h-655l-121 -330h-223zM356 1831h189l157 -211l158 211h189l-205 -270h-283zM446 492h537l-262 718h-12z" />
    <glyph glyph-name="uni01CE" unicode="&#x1ce;" horiz-adv-x="1118" 
d="M420 -20q-159 0 -258 74t-99 225q0 270 340 311l265 31q72 9 101.5 23.5t29.5 39.5v29q0 121 -59 168t-179 47q-121 0 -180 -41t-59 -139v-25h-199v43q0 319 442 319q227 0 334 -89t107 -281v-715h-195v172h-8q-8 -17 -22 -36.5t-46 -48.5t-72.5 -51.5t-104.5 -39
t-138 -16.5zM195 1462h188l158 -211l157 211h189l-205 -270h-283zM270 289q0 -148 201 -148q81 0 145.5 23t103.5 61t59 81.5t20 88.5v117q-11 -18 -41.5 -29t-104.5 -20l-200 -27q-98 -12 -140.5 -47.5t-42.5 -99.5z" />
    <glyph glyph-name="uni01CF" unicode="&#x1cf;" horiz-adv-x="440" 
d="M115 0v1434h213v-1434h-213zM-139 1831h188l158 -211l158 211h188l-205 -270h-282z" />
    <glyph glyph-name="uni01D0" unicode="&#x1d0;" horiz-adv-x="397" 
d="M94 0v1065h207v-1065h-207zM-160 1462h189l157 -211l158 211h188l-204 -270h-283z" />
    <glyph glyph-name="uni01D1" unicode="&#x1d1;" horiz-adv-x="1488" 
d="M745 -20q-145 0 -266.5 50.5t-209 144t-136.5 232.5t-49 310t49 310t136.5 232t209 143t266.5 50q294 0 477 -197t183 -538t-183 -539t-477 -198zM301 717q0 -262 121 -407.5t323 -145.5q201 0 322 145.5t121 407.5t-121 406.5t-322 144.5q-202 0 -323 -144.5
t-121 -406.5zM387 1831h188l158 -211l158 211h188l-205 -270h-282z" />
    <glyph glyph-name="uni01D2" unicode="&#x1d2;" horiz-adv-x="1165" 
d="M582 -20q-102 0 -193 33.5t-165 99t-117.5 173.5t-43.5 246q0 111 28.5 203.5t78 156t116 108t141 65t155.5 20.5q102 0 193.5 -33.5t165.5 -99t117.5 -174t43.5 -246.5t-43.5 -246t-117.5 -173.5t-165.5 -99t-193.5 -33.5zM223 1462h189l157 -211l158 211h188l-204 -270
h-283zM260 532q0 -186 91.5 -282t230.5 -96t231 96t92 282t-92 282.5t-231 96.5t-230.5 -96.5t-91.5 -282.5z" />
    <glyph glyph-name="uni01D3" unicode="&#x1d3;" horiz-adv-x="1355" 
d="M678 -20q-262 0 -412.5 145.5t-150.5 417.5v891h213v-877q0 -189 92 -290t258 -101t258 101t92 290v877h215v-891q0 -271 -152 -417t-413 -146zM307 1831h189l157 -211l158 211h188l-204 -270h-283z" />
    <glyph glyph-name="uni01D4" unicode="&#x1d4;" 
d="M322 449q0 -144 62 -219.5t187 -75.5q129 0 207 77.5t78 217.5v616h207v-1065h-207v213h-6q-8 -34 -31.5 -71t-64 -75t-109.5 -62.5t-153 -24.5q-81 0 -147.5 24t-119 73t-81.5 131.5t-29 192.5v664h207v-616zM223 1462h189l157 -211l158 211h188l-204 -270h-283z" />
    <glyph glyph-name="uni01D5" unicode="&#x1d5;" horiz-adv-x="1355" 
d="M678 -20q-262 0 -412.5 145.5t-150.5 417.5v891h213v-877q0 -189 92 -290t258 -101t258 101t92 290v877h215v-891q0 -271 -152 -417t-413 -146zM334 1739q0 50 36.5 85.5t86.5 35.5t86.5 -35.5t36.5 -85.5t-36.5 -85.5t-86.5 -35.5t-86.5 35.5t-36.5 85.5zM354 2073v125
h627v-125h-627zM754 1739q0 50 36.5 85.5t86.5 35.5t86 -35t36 -86t-36 -86t-86 -35t-86.5 35.5t-36.5 85.5z" />
    <glyph glyph-name="uni01D6" unicode="&#x1d6;" 
d="M322 449q0 -144 62 -219.5t187 -75.5q129 0 207 77.5t78 217.5v616h207v-1065h-207v213h-6q-8 -34 -31.5 -71t-64 -75t-109.5 -62.5t-153 -24.5q-81 0 -147.5 24t-119 73t-81.5 131.5t-29 192.5v664h207v-616zM250 1370q0 50 36.5 85.5t86.5 35.5t86.5 -35.5t36.5 -85.5
t-36.5 -85.5t-86.5 -35.5t-86.5 35.5t-36.5 85.5zM268 1704v125h627v-125h-627zM670 1370q0 50 36.5 85.5t86.5 35.5t86 -35t36 -86t-36 -86t-86 -35t-86.5 35.5t-36.5 85.5z" />
    <glyph glyph-name="uni01D7" unicode="&#x1d7;" horiz-adv-x="1355" 
d="M678 -20q-262 0 -412.5 145.5t-150.5 417.5v891h213v-877q0 -189 92 -290t258 -101t258 101t92 290v877h215v-891q0 -271 -152 -417t-413 -146zM334 1739q0 50 36.5 85.5t86.5 35.5t86.5 -35.5t36.5 -85.5t-36.5 -85.5t-86.5 -35.5t-86.5 35.5t-36.5 85.5zM559 1923
l209 275h184l-209 -275h-184zM754 1739q0 50 36.5 85.5t86.5 35.5t86 -35t36 -86t-36 -86t-86 -35t-86.5 35.5t-36.5 85.5z" />
    <glyph glyph-name="uni01D8" unicode="&#x1d8;" 
d="M322 449q0 -144 62 -219.5t187 -75.5q129 0 207 77.5t78 217.5v616h207v-1065h-207v213h-6q-8 -34 -31.5 -71t-64 -75t-109.5 -62.5t-153 -24.5q-81 0 -147.5 24t-119 73t-81.5 131.5t-29 192.5v664h207v-616zM250 1370q0 50 36.5 85.5t86.5 35.5t86.5 -35.5t36.5 -85.5
t-36.5 -85.5t-86.5 -35.5t-86.5 35.5t-36.5 85.5zM475 1554l209 275h184l-209 -275h-184zM670 1370q0 50 36.5 85.5t86.5 35.5t86 -35t36 -86t-36 -86t-86 -35t-86.5 35.5t-36.5 85.5z" />
    <glyph glyph-name="uni01D9" unicode="&#x1d9;" horiz-adv-x="1355" 
d="M678 -20q-262 0 -412.5 145.5t-150.5 417.5v891h213v-877q0 -189 92 -290t258 -101t258 101t92 290v877h215v-891q0 -271 -152 -417t-413 -146zM319 2195h189l158 -210l157 210h189l-205 -270h-283zM334 1739q0 50 36.5 85.5t86.5 35.5t86.5 -35.5t36.5 -85.5
t-36.5 -85.5t-86.5 -35.5t-86.5 35.5t-36.5 85.5zM754 1739q0 50 36.5 85.5t86.5 35.5t86 -35t36 -86t-36 -86t-86 -35t-86.5 35.5t-36.5 85.5z" />
    <glyph glyph-name="uni01DA" unicode="&#x1da;" 
d="M322 449q0 -144 62 -219.5t187 -75.5q129 0 207 77.5t78 217.5v616h207v-1065h-207v213h-6q-8 -34 -31.5 -71t-64 -75t-109.5 -62.5t-153 -24.5q-81 0 -147.5 24t-119 73t-81.5 131.5t-29 192.5v664h207v-616zM236 1827h188l158 -211l157 211h189l-205 -271h-283z
M250 1370q0 50 36.5 85.5t86.5 35.5t86.5 -35.5t36.5 -85.5t-36.5 -85.5t-86.5 -35.5t-86.5 35.5t-36.5 85.5zM670 1370q0 50 36.5 85.5t86.5 35.5t86 -35t36 -86t-36 -86t-86 -35t-86.5 35.5t-36.5 85.5z" />
    <glyph glyph-name="uni01DB" unicode="&#x1db;" horiz-adv-x="1355" 
d="M678 -20q-262 0 -412.5 145.5t-150.5 417.5v891h213v-877q0 -189 92 -290t258 -101t258 101t92 290v877h215v-891q0 -271 -152 -417t-413 -146zM334 1739q0 50 36.5 85.5t86.5 35.5t86.5 -35.5t36.5 -85.5t-36.5 -85.5t-86.5 -35.5t-86.5 35.5t-36.5 85.5zM371 2198h184
l209 -275h-184zM754 1739q0 50 36.5 85.5t86.5 35.5t86 -35t36 -86t-36 -86t-86 -35t-86.5 35.5t-36.5 85.5z" />
    <glyph glyph-name="uni01DC" unicode="&#x1dc;" 
d="M322 449q0 -144 62 -219.5t187 -75.5q129 0 207 77.5t78 217.5v616h207v-1065h-207v213h-6q-8 -34 -31.5 -71t-64 -75t-109.5 -62.5t-153 -24.5q-81 0 -147.5 24t-119 73t-81.5 131.5t-29 192.5v664h207v-616zM250 1370q0 50 36.5 85.5t86.5 35.5t86.5 -35.5t36.5 -85.5
t-36.5 -85.5t-86.5 -35.5t-86.5 35.5t-36.5 85.5zM287 1829h184l209 -275h-184zM670 1370q0 50 36.5 85.5t86.5 35.5t86 -35t36 -86t-36 -86t-86 -35t-86.5 35.5t-36.5 85.5z" />
    <glyph glyph-name="Gcaron" unicode="&#x1e6;" horiz-adv-x="1437" 
d="M739 -20q-307 0 -481 191.5t-174 541.5q0 353 177.5 546t475.5 193q221 0 374 -106.5t192 -307.5h-211q-37 116 -130.5 173t-224.5 57q-213 0 -326.5 -144t-113.5 -405q0 -262 115.5 -408.5t328.5 -146.5q176 0 284.5 103.5t107.5 312.5h-332v172h542v-115
q0 -320 -158 -488.5t-446 -168.5zM387 1831h188l158 -211l158 211h188l-205 -270h-282z" />
    <glyph glyph-name="gcaron" unicode="&#x1e7;" horiz-adv-x="1204" 
d="M526 25q-72 0 -138 18.5t-125.5 60t-103.5 102t-70 150t-26 199.5q0 136 39.5 241t106 166.5t147 92t170.5 30.5q115 0 210 -46.5t147 -129.5v156h207v-1042q0 -106 -33.5 -187.5t-85.5 -130t-124 -80t-139.5 -42.5t-140.5 -11q-68 0 -130.5 9.5t-126 34t-110 62.5
t-76 99t-30.5 139h182q4 -87 86 -134.5t201 -47.5q142 0 231 71.5t89 217.5v178q-52 -83 -147 -129.5t-210 -46.5zM240 1462h188l158 -211l157 211h189l-205 -270h-283zM258 555q0 -173 91.5 -265.5t225.5 -92.5q63 0 119 22t101 65t71.5 113t26.5 158t-26.5 158t-71.5 112
t-101 64t-119 22q-134 0 -225.5 -91.5t-91.5 -264.5z" />
    <glyph glyph-name="uni01E8" unicode="&#x1e8;" horiz-adv-x="1343" 
d="M115 0v1434h213v-760l667 760h254l-577 -654l628 -780h-247l-514 629l-211 -238v-391h-213zM332 1831h188l158 -211l158 211h188l-205 -270h-282z" />
    <glyph glyph-name="uni01E9" unicode="&#x1e9;" horiz-adv-x="1134" 
d="M115 0v1434h207v-904l499 535h234l-445 -459l502 -606h-231l-400 473l-159 -164v-309h-207zM-133 1831h188l158 -211l158 211h188l-205 -270h-282z" />
    <glyph glyph-name="uni01EA" unicode="&#x1ea;" horiz-adv-x="1488" 
d="M891 -383q-36 -8 -78 -10.5t-86 12t-80 37t-59 65t-23 95.5q0 105 78 170q-254 34 -406.5 227.5t-152.5 503.5q0 171 49 310t136.5 232t209 143t266.5 50q294 0 477 -197t183 -538q0 -302 -145 -493.5t-386 -233.5q-74 -17 -112.5 -58t-38.5 -94q0 -61 47.5 -89
t120.5 -13v-119zM301 717q0 -262 121 -407.5t323 -145.5q201 0 322 145.5t121 407.5t-121 406.5t-322 144.5q-202 0 -323 -144.5t-121 -406.5z" />
    <glyph glyph-name="uni01EB" unicode="&#x1eb;" horiz-adv-x="1165" 
d="M715 -383q-36 -8 -78.5 -10.5t-86.5 12t-80 37t-58.5 65t-22.5 95.5q0 104 80 174q-177 35 -291.5 173t-114.5 369q0 111 28.5 203.5t78 156t116 108t141 65t155.5 20.5q102 0 193.5 -33.5t165.5 -99t117.5 -174t43.5 -246.5q0 -117 -31 -213t-86.5 -161t-125.5 -106.5
t-154 -59.5q-77 -17 -117.5 -58.5t-40.5 -95.5q0 -61 47.5 -89t120.5 -13v-119zM260 532q0 -186 91.5 -282t230.5 -96t231 96t92 282t-92 282.5t-231 96.5t-230.5 -96.5t-91.5 -282.5z" />
    <glyph glyph-name="uni0218" unicode="&#x218;" horiz-adv-x="1280" 
d="M647 -20q-268 0 -415.5 122t-147.5 332h217q6 -124 92 -199t256 -75q157 0 240.5 64.5t83.5 176.5q0 100 -65.5 153.5t-192.5 78.5l-193 39q-397 80 -397 385q0 186 135.5 290.5t378.5 104.5t379.5 -106t136.5 -295h-217q-2 103 -80 162t-223 59q-147 0 -218 -59.5
t-71 -155.5q0 -165 232 -213l184 -37q220 -44 327 -140t107 -264q0 -205 -148 -314t-401 -109zM492 -182q0 56 37.5 92.5t95.5 36.5q69 0 112 -52.5t43 -156.5q0 -127 -66 -200t-173 -73h-17v93q70 3 100.5 33t30.5 90q-76 0 -119.5 38.5t-43.5 98.5z" />
    <glyph glyph-name="uni0219" unicode="&#x219;" horiz-adv-x="997" 
d="M498 -20q-200 0 -320.5 85t-124.5 252h187q8 -63 46 -104t91.5 -57.5t122.5 -16.5q105 0 169 40t64 122q0 61 -39.5 92.5t-120.5 50.5l-198 45q-291 68 -291 293q0 144 112.5 223.5t301.5 79.5q192 0 301 -85t116 -248h-174q-13 94 -74 134t-167 40q-105 0 -160 -35.5
t-55 -104.5q0 -56 37 -90t120 -53l201 -45q70 -17 120.5 -38t93.5 -55t65 -84t22 -116q0 -85 -36.5 -149.5t-100 -102t-141 -55.5t-168.5 -18zM367 -203q0 56 37.5 92.5t95.5 36.5q69 0 112 -52.5t43 -156.5q0 -127 -65.5 -199.5t-173.5 -72.5h-17v92q70 3 100.5 33t30.5 90
q-76 0 -119.5 38.5t-43.5 98.5z" />
    <glyph glyph-name="uni021A" unicode="&#x21a;" horiz-adv-x="1200" 
d="M494 0v1243h-441v191h1094v-191h-440v-1243h-213zM426 -182q0 56 37.5 92.5t95.5 36.5q69 0 112.5 -52.5t43.5 -156.5q0 -127 -66 -200t-174 -73h-16v93q70 3 100.5 33t30.5 90q-76 0 -120 38.5t-44 98.5z" />
    <glyph glyph-name="uni021B" unicode="&#x21b;" horiz-adv-x="702" 
d="M516 -14q-299 0 -299 284v631h-174v164h174v268h207v-268h211v-164h-211v-596q0 -81 32.5 -116t116.5 -35q43 0 76 4v-156q-62 -16 -133 -16zM324 -182q0 56 37.5 92.5t95.5 36.5q69 0 112 -52.5t43 -156.5q0 -127 -66 -200t-173 -73h-17v93q70 3 100.5 33t30.5 90
q-76 0 -119.5 38.5t-43.5 98.5z" />
    <glyph glyph-name="uni0237" unicode="&#x237;" horiz-adv-x="448" 
d="M53 -389q-86 0 -133 6v162h80q80 0 113.5 35.5t33.5 115.5v1135h207v-1169q0 -285 -301 -285z" />
    <glyph glyph-name="uni0259" unicode="&#x259;" horiz-adv-x="1120" 
d="M549 -25q-105 0 -192 32.5t-153.5 96.5t-103.5 168t-37 240q0 36 7 80h790q-20 332 -319 332q-217 0 -279 -172h-184q45 170 167.5 251.5t293.5 81.5q111 0 203.5 -33t163.5 -98.5t111 -173.5t40 -248q0 -142 -40.5 -251t-111.5 -174.5t-160.5 -98.5t-195.5 -33zM260 442
q3 -142 79 -223.5t212 -81.5q132 0 213 77.5t96 227.5h-600z" />
    <glyph glyph-name="circumflex" unicode="&#x2c6;" horiz-adv-x="692" 
d="M0 1194l205 270h282l205 -270h-188l-158 211l-158 -211h-188z" />
    <glyph glyph-name="caron" unicode="&#x2c7;" horiz-adv-x="710" 
d="M0 1462h188l158 -211l158 211h188l-205 -270h-282z" />
    <glyph glyph-name="breve" unicode="&#x2d8;" horiz-adv-x="622" 
d="M311 1186q-150 0 -225.5 76.5t-75.5 201.5h140q6 -153 161 -153q156 0 162 153h139q0 -125 -75.5 -201.5t-225.5 -76.5z" />
    <glyph glyph-name="dotaccent" unicode="&#x2d9;" horiz-adv-x="245" 
d="M123 1249q-50 0 -86.5 35.5t-36.5 85.5t36.5 85.5t86.5 35.5t86.5 -35.5t36.5 -85.5t-36.5 -85.5t-86.5 -35.5z" />
    <glyph glyph-name="ring" unicode="&#x2da;" horiz-adv-x="380" 
d="M190 1161q-81 0 -135.5 54t-54.5 131t54.5 130.5t135.5 53.5t136 -53.5t55 -130.5t-55 -131t-136 -54zM104 1346q0 -38 24.5 -63.5t61.5 -25.5t61.5 25.5t24.5 63.5q0 37 -24.5 61.5t-61.5 24.5t-61.5 -24.5t-24.5 -61.5z" />
    <glyph glyph-name="ogonek" unicode="&#x2db;" horiz-adv-x="405" 
d="M326 -383q-36 -8 -78.5 -10.5t-86.5 12t-80 37t-58.5 65t-22.5 95.5q0 111 82.5 176t187.5 65l136 -57q-121 0 -184.5 -46.5t-63.5 -115.5q0 -61 47.5 -89t120.5 -13v-119z" />
    <glyph glyph-name="tilde" unicode="&#x2dc;" horiz-adv-x="688" 
d="M492 1227q-42 0 -77 13.5t-58.5 32.5t-45 38.5t-45 33t-47.5 13.5q-35 0 -58.5 -23.5t-23.5 -56.5h-127q0 100 49.5 154.5t135.5 54.5q51 0 93 -20.5t66 -45t54.5 -45t60.5 -20.5q35 0 57.5 23.5t22.5 56.5h129q0 -100 -49.5 -154.5t-136.5 -54.5z" />
    <glyph glyph-name="hungarumlaut" unicode="&#x2dd;" horiz-adv-x="710" 
d="M315 1190l209 274h185l-209 -274h-185zM0 1190l209 274h184l-209 -274h-184z" />
    <glyph glyph-name="gravecomb" unicode="&#x300;" horiz-adv-x="0" 
d="M209 1190l-209 274h184l209 -274h-184z" />
    <glyph glyph-name="acutecomb" unicode="&#x301;" horiz-adv-x="0" 
d="M0 1190l209 274h184l-209 -274h-184z" />
    <glyph glyph-name="uni0302" unicode="&#x302;" horiz-adv-x="0" 
d="M0 1194l205 270h282l205 -270h-188l-158 211l-158 -211h-188z" />
    <glyph glyph-name="tildecomb" unicode="&#x303;" horiz-adv-x="0" 
d="M492 1227q-42 0 -77 13.5t-58.5 32.5t-45 38.5t-45 33t-47.5 13.5q-35 0 -58.5 -23.5t-23.5 -56.5h-127q0 100 49.5 154.5t135.5 54.5q51 0 93 -20.5t66 -45t54.5 -45t60.5 -20.5q35 0 57.5 23.5t22.5 56.5h129q0 -100 -49.5 -154.5t-136.5 -54.5z" />
    <glyph glyph-name="uni0304" unicode="&#x304;" horiz-adv-x="0" 
d="M0 1339v125h627v-125h-627z" />
    <glyph glyph-name="uni0306" unicode="&#x306;" horiz-adv-x="0" 
d="M311 1186q-150 0 -225.5 76.5t-75.5 201.5h140q6 -153 161 -153q156 0 162 153h139q0 -125 -75.5 -201.5t-225.5 -76.5z" />
    <glyph glyph-name="uni0307" unicode="&#x307;" horiz-adv-x="0" 
d="M123 1249q-50 0 -86.5 35.5t-36.5 85.5t36.5 85.5t86.5 35.5t86.5 -35.5t36.5 -85.5t-36.5 -85.5t-86.5 -35.5z" />
    <glyph glyph-name="uni0308" unicode="&#x308;" horiz-adv-x="0" 
d="M543 1249q-50 0 -86.5 35.5t-36.5 85.5t36.5 85.5t86.5 35.5t86.5 -35.5t36.5 -85.5t-36.5 -85.5t-86.5 -35.5zM0 1370q0 50 36.5 85.5t86.5 35.5t86.5 -35.5t36.5 -85.5t-36.5 -85.5t-86.5 -35.5t-86.5 35.5t-36.5 85.5z" />
    <glyph glyph-name="hookabovecomb" unicode="&#x309;" horiz-adv-x="0" 
d="M254 1253q55 1 85 27t30 72q0 43 -24.5 67.5t-63.5 24.5q-35 0 -58 -20.5t-26 -57.5h-111q0 96 58.5 144.5t138.5 48.5q84 0 145 -52.5t61 -146.5q0 -86 -51.5 -137.5t-126.5 -59.5z" />
    <glyph glyph-name="uni030A" unicode="&#x30a;" horiz-adv-x="0" 
d="M190 1161q-81 0 -135.5 54t-54.5 131t54.5 130.5t135.5 53.5t136 -53.5t55 -130.5t-55 -131t-136 -54zM104 1346q0 -38 24.5 -63.5t61.5 -25.5t61.5 25.5t24.5 63.5q0 37 -24.5 61.5t-61.5 24.5t-61.5 -24.5t-24.5 -61.5z" />
    <glyph glyph-name="uni030B" unicode="&#x30b;" horiz-adv-x="0" 
d="M315 1190l209 274h185l-209 -274h-185zM0 1190l209 274h184l-209 -274h-184z" />
    <glyph glyph-name="uni030C" unicode="&#x30c;" horiz-adv-x="0" 
d="M0 1462h188l158 -211l158 211h188l-205 -270h-282z" />
    <glyph glyph-name="uni0312" unicode="&#x312;" horiz-adv-x="0" 
d="M330 1335q-70 -3 -100.5 -33t-30.5 -90q76 0 119.5 -38.5t43.5 -98.5q0 -56 -37.5 -92.5t-97.5 -36.5q-68 0 -110.5 52.5t-42.5 156.5q0 127 65.5 199.5t173.5 72.5h17v-92z" />
    <glyph glyph-name="uni031B" unicode="&#x31b;" horiz-adv-x="0" 
d="M0 901v164h250v180h178v-344h-428z" />
    <glyph glyph-name="dotbelowcomb" unicode="&#x323;" horiz-adv-x="0" 
d="M240 -471q-57 0 -97.5 39t-40.5 96q0 56 40.5 95.5t97.5 39.5q56 0 95.5 -39.5t39.5 -95.5q0 -57 -39.5 -96t-95.5 -39z" />
    <glyph glyph-name="uni0326" unicode="&#x326;" horiz-adv-x="0" 
d="M14 -442q70 3 100.5 33t30.5 90q-76 0 -119.5 38.5t-43.5 98.5q0 56 37.5 92.5t95.5 36.5q69 0 112 -52.5t43 -156.5q0 -127 -66 -200t-173 -73h-17v93z" />
    <glyph glyph-name="uni0327" unicode="&#x327;" horiz-adv-x="0" 
d="M55 -362q71 -2 112.5 20.5t41.5 67.5q0 51 -46.5 69t-101.5 -10l-61 76l119 139h147l-98 -104q6 2 22 2q70 0 118 -47.5t48 -124.5q0 -54 -25 -94.5t-68.5 -63t-95 -33t-112.5 -10.5v113z" />
    <glyph glyph-name="uni0328" unicode="&#x328;" horiz-adv-x="0" 
d="M326 -383q-36 -8 -78.5 -10.5t-86.5 12t-80 37t-58.5 65t-22.5 95.5q0 111 82.5 176t187.5 65l136 -57q-121 0 -184.5 -46.5t-63.5 -115.5q0 -61 47.5 -89t120.5 -13v-119z" />
    <glyph glyph-name="uni0394" unicode="&#x394;" horiz-adv-x="1382" 
d="M43 0l647 1460h2l647 -1460h-1296zM305 166h772l-385 909z" />
    <glyph glyph-name="uni03A9" unicode="&#x3a9;" horiz-adv-x="1595" 
d="M129 0v170h283q-328 209 -328 573q0 151 58.5 284t156.5 224.5t228 144t270 52.5q141 0 271 -52.5t228 -144t156.5 -224.5t58.5 -284q0 -365 -327 -573h282v-170h-481v258q155 78 235 204.5t80 280.5q0 147 -69.5 264t-184 179.5t-249.5 62.5q-134 0 -248.5 -62.5
t-184 -179.5t-69.5 -264q0 -154 80 -280.5t235 -204.5v-258h-481z" />
    <glyph glyph-name="uni03BC" unicode="&#x3bc;" 
d="M115 -389v1454h207v-616q0 -144 62 -219.5t187 -75.5q129 0 207 77.5t78 217.5v616h207v-1065h-207v213h-6q-8 -34 -31.5 -71t-64 -75t-109.5 -62.5t-153 -24.5q-99 0 -170 32v-401h-207z" />
    <glyph glyph-name="pi" unicode="&#x3c0;" horiz-adv-x="1404" 
d="M1147 -12q-50 0 -92.5 11.5t-81.5 37.5t-61.5 77t-22.5 122v651h-383v-887h-207v887h-205v178h1204v-178h-202v-606q0 -64 27 -89.5t83 -25.5q58 0 115 29v-162q-54 -45 -174 -45z" />
    <glyph glyph-name="uni0401" unicode="&#x401;" horiz-adv-x="1130" 
d="M115 0v1434h932v-187h-719v-430h657v-170h-657v-461h739v-186h-952zM256 1739q0 50 36.5 85.5t86.5 35.5t86.5 -35.5t36.5 -85.5t-36.5 -85.5t-86.5 -35.5t-86.5 35.5t-36.5 85.5zM676 1739q0 50 36.5 85.5t86.5 35.5t86.5 -35.5t36.5 -85.5t-36.5 -85.5t-86.5 -35.5
t-86.5 35.5t-36.5 85.5z" />
    <glyph glyph-name="uni0403" unicode="&#x403;" horiz-adv-x="1038" 
d="M115 0v1434h872v-189h-657v-1245h-215zM459 1559l209 274h184l-209 -274h-184z" />
    <glyph glyph-name="uni0404" unicode="&#x404;" horiz-adv-x="1372" 
d="M739 -20q-299 0 -477 193t-178 544q0 350 178 542.5t479 192.5q232 0 386 -118t184 -345h-209q-33 137 -129.5 208t-237.5 71q-184 0 -296 -117.5t-134 -329.5h477v-176h-481q15 -227 129 -354t305 -127q141 0 237.5 71t129.5 209h209q-30 -229 -184.5 -346.5
t-387.5 -117.5z" />
    <glyph glyph-name="uni0407" unicode="&#x407;" horiz-adv-x="440" 
d="M115 0v1434h213v-1434h-213zM-115 1739q0 50 36.5 85.5t86.5 35.5t86.5 -35.5t36.5 -85.5t-36.5 -85.5t-86.5 -35.5t-86.5 35.5t-36.5 85.5zM305 1739q0 50 36.5 85.5t86.5 35.5t86.5 -35.5t36.5 -85.5t-36.5 -85.5t-86.5 -35.5t-86.5 35.5t-36.5 85.5z" />
    <glyph glyph-name="uni040C" unicode="&#x40c;" horiz-adv-x="1343" 
d="M115 0v1434h213v-760l667 760h254l-577 -654l628 -780h-247l-514 629l-211 -238v-391h-213zM580 1559l208 274h185l-209 -274h-184z" />
    <glyph glyph-name="uni040E" unicode="&#x40e;" horiz-adv-x="1183" 
d="M188 172q116 -14 174 23t91 118q36 81 -7 185l-393 936h236l301 -772l305 772h238l-474 -1117q-87 -205 -193 -282.5t-278 -57.5v195zM291 1833h139q6 -154 162 -154t162 154h139q0 -125 -75.5 -202t-225.5 -77t-225.5 77t-75.5 202z" />
    <glyph glyph-name="uni0410" unicode="&#x410;" horiz-adv-x="1429" 
d="M43 0l539 1434h266l538 -1434h-223l-121 330h-655l-121 -330h-223zM446 492h537l-262 718h-12z" />
    <glyph glyph-name="uni0411" unicode="&#x411;" horiz-adv-x="1236" 
d="M115 0v1434h872v-189h-657v-319h327q253 0 385 -122t132 -339q0 -219 -132 -342t-385 -123h-542zM330 186h319q145 0 220 71.5t75 207.5q0 133 -75 203.5t-220 70.5h-319v-553z" />
    <glyph glyph-name="uni0412" unicode="&#x412;" horiz-adv-x="1261" 
d="M115 0v1434h547q221 0 331.5 -94.5t110.5 -256.5q0 -226 -199 -297q142 -39 217.5 -132.5t75.5 -237.5q0 -187 -133 -301.5t-391 -114.5h-559zM328 182h334q155 0 233 67.5t78 180.5q0 112 -78 178t-233 66h-334v-492zM328 854h319q115 0 176.5 52t61.5 151
q0 96 -61.5 146t-176.5 50h-319v-399z" />
    <glyph glyph-name="uni0413" unicode="&#x413;" horiz-adv-x="1038" 
d="M115 0v1434h872v-189h-657v-1245h-215z" />
    <glyph glyph-name="uni0414" unicode="&#x414;" horiz-adv-x="1462" 
d="M43 -141v321h80q90 80 131 287t41 610v357h997v-1254h107v-321h-207v141h-942v-141h-207zM352 180h723v1065h-565v-168q0 -406 -37 -612t-121 -285z" />
    <glyph glyph-name="uni0415" unicode="&#x415;" horiz-adv-x="1130" 
d="M115 0v1434h932v-187h-719v-430h657v-170h-657v-461h739v-186h-952z" />
    <glyph glyph-name="uni0416" unicode="&#x416;" horiz-adv-x="1927" 
d="M1636 0l-565 639v-639h-215v637l-565 -637h-248l639 729l-616 705h249l541 -613v613h215v-615l543 615h248l-617 -705l641 -729h-250z" />
    <glyph glyph-name="uni0417" unicode="&#x417;" horiz-adv-x="1191" 
d="M584 -20q-251 0 -380.5 131.5t-129.5 355.5h194q1 -150 89.5 -229.5t234.5 -79.5q135 0 226 70t91 196q0 119 -88 188.5t-252 69.5h-69v156h59q82 0 141.5 19.5t89.5 53t43 69.5t13 77q0 102 -70 159.5t-186 57.5q-121 0 -198 -69.5t-77 -219.5h-194q0 227 124 347
t349 120q211 0 332 -101t121 -264q0 -120 -66 -203t-172 -112q42 -6 83.5 -22.5t82.5 -46t72.5 -69.5t51 -97.5t19.5 -124.5q0 -192 -146 -312t-388 -120z" />
    <glyph glyph-name="uni0418" unicode="&#x418;" horiz-adv-x="1378" 
d="M1264 0h-213v1090h-4l-695 -1090h-237v1434h213v-1100h6l700 1100h230v-1434z" />
    <glyph glyph-name="uni0419" unicode="&#x419;" horiz-adv-x="1378" 
d="M1264 0h-213v1090h-4l-695 -1090h-237v1434h213v-1100h6l700 1100h230v-1434zM387 1833h139q6 -154 162 -154t162 154h139q0 -125 -75.5 -202t-225.5 -77t-225.5 77t-75.5 202z" />
    <glyph glyph-name="uni041A" unicode="&#x41a;" horiz-adv-x="1343" 
d="M115 0v1434h213v-760l667 760h254l-577 -654l628 -780h-247l-514 629l-211 -238v-391h-213z" />
    <glyph glyph-name="uni041B" unicode="&#x41b;" horiz-adv-x="1390" 
d="M31 174q55 -1 95.5 10.5t75.5 41.5t53.5 88.5t18.5 144.5v975h1002v-1434h-215v1245h-569v-794q0 -129 -34.5 -223.5t-97.5 -149t-145.5 -77.5t-183.5 -15v188z" />
    <glyph glyph-name="uni041C" unicode="&#x41c;" horiz-adv-x="1710" 
d="M115 0v1434h262l479 -1151l479 1151h262v-1434h-213v1053h-8l-436 -1053h-168l-438 1053h-6v-1053h-213z" />
    <glyph glyph-name="uni041D" unicode="&#x41d;" horiz-adv-x="1347" 
d="M1022 0v618h-694v-618h-213v1434h213v-639h694v639h211v-1434h-211z" />
    <glyph glyph-name="uni041E" unicode="&#x41e;" horiz-adv-x="1488" 
d="M745 -20q-145 0 -266.5 50.5t-209 144t-136.5 232.5t-49 310t49 310t136.5 232t209 143t266.5 50q294 0 477 -197t183 -538t-183 -539t-477 -198zM301 717q0 -262 121 -407.5t323 -145.5q201 0 322 145.5t121 407.5t-121 406.5t-322 144.5q-202 0 -323 -144.5
t-121 -406.5z" />
    <glyph glyph-name="uni041F" unicode="&#x41f;" horiz-adv-x="1347" 
d="M115 0v1434h1118v-1434h-215v1245h-688v-1245h-215z" />
    <glyph glyph-name="uni0420" unicode="&#x420;" horiz-adv-x="1236" 
d="M115 0v1434h540q256 0 387.5 -121t131.5 -334q0 -210 -131.5 -330.5t-387.5 -120.5h-327v-528h-213zM328 715h319q153 0 231 68.5t78 195.5q0 129 -78 198.5t-231 69.5h-319v-532z" />
    <glyph glyph-name="uni0421" unicode="&#x421;" horiz-adv-x="1372" 
d="M739 -20q-299 0 -477 193t-178 544q0 350 178 542.5t479 192.5q232 0 386 -118t184 -345h-209q-33 137 -129.5 208t-237.5 71q-205 0 -320.5 -146.5t-115.5 -404.5q0 -259 115 -406t321 -147q141 0 237.5 71t129.5 209h209q-30 -229 -184.5 -346.5t-387.5 -117.5z" />
    <glyph glyph-name="uni0422" unicode="&#x422;" horiz-adv-x="1200" 
d="M494 0v1243h-441v191h1094v-191h-440v-1243h-213z" />
    <glyph glyph-name="uni0423" unicode="&#x423;" horiz-adv-x="1183" 
d="M188 172q116 -14 174 23t91 118q36 81 -7 185l-393 936h236l301 -772l305 772h238l-474 -1117q-87 -205 -193 -282.5t-278 -57.5v195z" />
    <glyph glyph-name="uni0424" unicode="&#x424;" horiz-adv-x="1478" 
d="M631 -31v156q-252 28 -399.5 182.5t-147.5 409.5q0 256 147 410t400 182v155h217v-155q253 -28 400 -182t147 -410q0 -255 -147.5 -409.5t-399.5 -182.5v-156h-217zM291 717q0 -178 88.5 -287t251.5 -137v848q-163 -28 -251.5 -137t-88.5 -287zM848 293q163 28 251.5 137
t88.5 287t-88.5 287t-251.5 137v-848z" />
    <glyph glyph-name="uni0425" unicode="&#x425;" horiz-adv-x="1343" 
d="M1061 0l-389 565l-389 -565h-240l510 739l-479 695h239l359 -521l358 521h238l-477 -695l509 -739h-239z" />
    <glyph glyph-name="uni0426" unicode="&#x426;" horiz-adv-x="1384" 
d="M115 0v1434h215v-1246h688v1246h215v-1246h108v-477h-206v289h-1020z" />
    <glyph glyph-name="uni0427" unicode="&#x427;" horiz-adv-x="1302" 
d="M504 328q-90 0 -164 25t-132.5 78t-91 143t-32.5 212v648h215v-639q0 -143 77.5 -210t211.5 -67q82 0 154.5 28t118.5 69.5t75 85t35 79.5v654h217v-1434h-217v592q-11 -32 -45.5 -74t-90.5 -86t-144 -74t-187 -30z" />
    <glyph glyph-name="uni0428" unicode="&#x428;" horiz-adv-x="1646" 
d="M115 0v1434h215v-1246h385v1246h217v-1246h385v1246h217v-1434h-1419z" />
    <glyph glyph-name="uni0429" unicode="&#x429;" horiz-adv-x="1685" 
d="M115 0v1434h215v-1246h385v1246h217v-1246h385v1246h217v-1246h108v-477h-206v289h-1321z" />
    <glyph glyph-name="uni042A" unicode="&#x42a;" horiz-adv-x="1337" 
d="M43 1245v189h389v-189h-2v-319h320q259 0 391.5 -122t132.5 -339q0 -220 -132.5 -342.5t-391.5 -122.5h-535v1245h-172zM430 186h320q145 0 219.5 71.5t74.5 207.5q0 133 -74.5 203.5t-219.5 70.5h-320v-553z" />
    <glyph glyph-name="uni042B" unicode="&#x42b;" horiz-adv-x="1652" 
d="M115 0v1434h215v-508h319q259 0 392 -122t133 -339q0 -220 -133 -342.5t-392 -122.5h-534zM330 186h319q145 0 220 71.5t75 207.5q0 133 -75 203.5t-220 70.5h-319v-553zM1327 0v1434h213v-1434h-213z" />
    <glyph glyph-name="uni042C" unicode="&#x42c;" horiz-adv-x="1236" 
d="M115 0v1434h215v-508h319q259 0 392 -122t133 -339q0 -220 -133 -342.5t-392 -122.5h-534zM330 186h319q145 0 220 71.5t75 207.5q0 133 -75 203.5t-220 70.5h-319v-553z" />
    <glyph glyph-name="uni042D" unicode="&#x42d;" horiz-adv-x="1374" 
d="M592 645v176h477q-22 212 -134 329.5t-296 117.5q-141 0 -237.5 -71t-129.5 -208h-209q30 227 184 345t386 118q301 0 479 -192.5t178 -542.5q0 -351 -178 -544t-477 -193q-233 0 -387.5 117.5t-184.5 346.5h209q33 -138 129.5 -209t237.5 -71q191 0 305 127t129 354
h-481z" />
    <glyph glyph-name="uni042E" unicode="&#x42e;" horiz-adv-x="1943" 
d="M115 0v1434h213v-639h213q23 308 202 482.5t457 174.5q294 0 477 -197t183 -538t-183 -539t-477 -198q-272 0 -451 170t-206 468h-215v-618h-213zM756 717q0 -262 121 -407.5t323 -145.5q201 0 321.5 145.5t120.5 407.5t-120.5 406.5t-321.5 144.5q-202 0 -323 -144.5
t-121 -406.5z" />
    <glyph glyph-name="uni042F" unicode="&#x42f;" horiz-adv-x="1249" 
d="M276 0h-213l326 553q-155 42 -234 152.5t-79 273.5q0 213 131 334t387 121h541v-1434h-213v528h-328h-8zM293 979q0 -127 78 -195.5t231 -68.5h320v532h-320q-153 0 -231 -69.5t-78 -198.5z" />
    <glyph glyph-name="uni0430" unicode="&#x430;" horiz-adv-x="1097" 
d="M406 -20q-151 0 -247 72t-96 214q0 72 26 126t76.5 88.5t113 54.5t145.5 32l219 29q79 12 110 32.5t31 59.5v39q0 111 -58 157t-171 46q-231 0 -231 -178v-15l-197 -2v35q0 315 436 315q223 0 325.5 -84.5t102.5 -267.5v-530q0 -41 15 -55.5t51 -14.5v-125
q-29 -20 -88 -20q-77 0 -125.5 37t-48.5 112v56h-9q-9 -27 -34 -59.5t-69 -69t-117 -60.5t-160 -24zM268 291q0 -75 53 -115.5t150 -40.5q76 0 139 24.5t99 61t55.5 73.5t19.5 68v166q-10 -35 -133 -51l-178 -26q-108 -15 -156.5 -54.5t-48.5 -105.5z" />
    <glyph glyph-name="uni0431" unicode="&#x431;" horiz-adv-x="1157" 
d="M588 -18q-72 0 -141 19.5t-136 66.5t-117 117t-80.5 178.5t-29.5 242.5v326q0 502 463 502h119q108 0 157 45h189q-42 -117 -114 -163t-218 -46h-133q-124 0 -195 -71.5t-71 -190.5v-125q35 86 130 137t210 51q67 0 132.5 -19t127.5 -61.5t109 -104t75.5 -154
t28.5 -204.5q0 -114 -30.5 -207.5t-81 -155t-117 -104t-136 -61t-141.5 -18.5zM283 528q0 -185 89 -280.5t218 -95.5q61 0 115 22.5t98 66.5t70 118t26 169q0 96 -26 171.5t-70 120.5t-98 68t-115 23t-115 -23t-97.5 -68t-69 -120.5t-25.5 -171.5z" />
    <glyph glyph-name="uni0432" unicode="&#x432;" horiz-adv-x="1157" 
d="M115 0v1065h530q170 0 268.5 -68t98.5 -194q0 -159 -152 -213q115 -32 174.5 -106t59.5 -177q0 -151 -115.5 -229t-310.5 -78h-553zM322 170h315q252 0 252 164q0 34 -11.5 62.5t-38 53.5t-78 39.5t-122.5 14.5h-317v-334zM322 631h311q188 0 188 133q0 131 -188 131
h-311v-264z" />
    <glyph glyph-name="uni0433" unicode="&#x433;" horiz-adv-x="862" 
d="M115 0v1065h706v-164h-499v-901h-207z" />
    <glyph glyph-name="uni0434" unicode="&#x434;" horiz-adv-x="1251" 
d="M231 0v-125h-188v289h78q34 38 54.5 93t29.5 146.5t11.5 173t2.5 232.5v256h907v-901h82v-289h-188v125h-789zM322 164h598v737h-494v-92q0 -292 -18 -432.5t-86 -212.5z" />
    <glyph glyph-name="uni0435" unicode="&#x435;" horiz-adv-x="1120" 
d="M580 -20q-110 0 -202 32.5t-163.5 98t-111.5 172.5t-40 247q0 142 40.5 251t111.5 174t160.5 97.5t195.5 32.5q105 0 192 -32t153.5 -96.5t103.5 -169t37 -240.5q0 -45 -6 -80h-789q23 -326 320 -326q214 0 276 172h184q-31 -115 -100 -191.5t-159.5 -109t-202.5 -32.5z
M264 623h596q-3 141 -79.5 221t-211.5 80q-131 0 -211.5 -76t-93.5 -225z" />
    <glyph glyph-name="uni0436" unicode="&#x436;" horiz-adv-x="1619" 
d="M1341 0l-428 440v-440h-206v440l-428 -440h-256l528 535l-514 530h256l414 -434v434h206v-434l414 434h256l-514 -530l528 -535h-256z" />
    <glyph glyph-name="uni0437" unicode="&#x437;" horiz-adv-x="1056" 
d="M520 -18q-223 0 -340 103.5t-117 291.5h187q0 -108 72 -175t204 -67q114 0 183 49.5t69 132.5q0 88 -79 137t-226 48v114q137 1 199.5 44.5t62.5 111.5q0 72 -60 113t-153 41q-105 0 -168 -53.5t-63 -141.5h-189q0 163 110.5 255.5t309.5 92.5q184 0 296 -77.5
t112 -208.5q0 -94 -58 -150t-143 -78q40 -6 80.5 -22.5t81.5 -46.5t66.5 -80.5t25.5 -114.5q0 -99 -61 -172t-165 -110t-237 -37z" />
    <glyph glyph-name="uni0438" unicode="&#x438;" horiz-adv-x="1210" 
d="M115 0v1065h207v-782h6l549 782h219v-1065h-207v772h-6l-543 -772h-225z" />
    <glyph glyph-name="uni0439" unicode="&#x439;" horiz-adv-x="1210" 
d="M115 0v1065h207v-782h6l549 782h219v-1065h-207v772h-6l-543 -772h-225zM305 1464h139q6 -153 162 -153t162 153h139q0 -125 -75.5 -201.5t-225.5 -76.5t-225.5 76.5t-75.5 201.5z" />
    <glyph glyph-name="uni043A" unicode="&#x43a;" horiz-adv-x="1130" 
d="M115 0v1065h207v-520l485 520h237l-438 -461l502 -604h-229l-402 467l-155 -164v-303h-207z" />
    <glyph glyph-name="uni043B" unicode="&#x43b;" horiz-adv-x="1236" 
d="M31 156q54 -1 94.5 11.5t74 44t51 91.5t17.5 148v614h854v-1065h-198l-6 901h-443v-459q0 -130 -31.5 -222t-92 -143.5t-139.5 -72t-181 -12.5v164z" />
    <glyph glyph-name="uni043C" unicode="&#x43c;" horiz-adv-x="1462" 
d="M115 0v1065h237l379 -827l379 827h238v-1065h-207v721h-8l-322 -721h-160l-321 721h-8v-721h-207z" />
    <glyph glyph-name="uni043D" unicode="&#x43d;" horiz-adv-x="1114" 
d="M115 0v1065h207v-428h471v428h206v-1065h-206v471h-471v-471h-207z" />
    <glyph glyph-name="uni043E" unicode="&#x43e;" horiz-adv-x="1165" 
d="M582 -20q-102 0 -193 33.5t-165 99t-117.5 173.5t-43.5 246q0 111 28.5 203.5t78 156t116 108t141 65t155.5 20.5q102 0 193.5 -33.5t165.5 -99t117.5 -174t43.5 -246.5t-43.5 -246t-117.5 -173.5t-165.5 -99t-193.5 -33.5zM260 532q0 -186 91.5 -282t230.5 -96t231 96
t92 282t-92 282.5t-231 96.5t-230.5 -96.5t-91.5 -282.5z" />
    <glyph glyph-name="uni043F" unicode="&#x43f;" horiz-adv-x="1118" 
d="M115 0v1065h889v-1065h-207v901h-475v-901h-207z" />
    <glyph glyph-name="uni0440" unicode="&#x440;" horiz-adv-x="1216" 
d="M115 -389v1454h207v-168q47 88 142 138t214 50q92 0 175 -33t151 -97.5t108.5 -173.5t40.5 -249q0 -139 -40.5 -248t-108.5 -173.5t-151 -97.5t-175 -33q-119 0 -214 50t-142 138v-557h-207zM311 532q0 -94 27.5 -168t73.5 -119t103 -68t120 -23q64 0 120.5 23t102 68
t72 119t26.5 168t-26.5 168.5t-72 119.5t-102 68t-120.5 23q-63 0 -120 -23t-103 -68t-73.5 -119.5t-27.5 -168.5z" />
    <glyph glyph-name="uni0441" unicode="&#x441;" horiz-adv-x="1110" 
d="M584 -20q-82 0 -157 20t-142 63.5t-116 106.5t-77.5 155.5t-28.5 204.5t28.5 205t77.5 157t116 108t142 64.5t157 20.5q61 0 118 -10.5t116.5 -39t105 -72t80 -115t45.5 -162.5h-189q-21 116 -95.5 169.5t-182.5 53.5q-148 0 -236 -100.5t-88 -278.5q0 -177 87.5 -275.5
t236.5 -98.5q109 0 183 54.5t95 172.5h189q-10 -93 -44 -165t-80 -116t-106 -72.5t-117 -39t-118 -10.5z" />
    <glyph glyph-name="uni0442" unicode="&#x442;" horiz-adv-x="1009" 
d="M401 0v901h-340v164h887v-164h-340v-901h-207z" />
    <glyph glyph-name="uni0443" unicode="&#x443;" horiz-adv-x="1124" 
d="M152 -221q52 -9 93.5 -4t71.5 15.5t53.5 32t39 45.5t28.5 56q17 42 17.5 74t-13.5 68l-399 999h213l305 -813l307 813h213l-450 -1126q-83 -206 -192 -283t-287 -55v178z" />
    <glyph glyph-name="uni0444" unicode="&#x444;" horiz-adv-x="1220" 
d="M514 -389v379q-92 14 -170.5 52t-143 102t-101 162.5t-36.5 221.5t37 222.5t101 164.5t142.5 104.5t170.5 53.5v361h195v-363q91 -14 169.5 -53t142.5 -103.5t101 -164t37 -222.5t-37 -222t-101 -163t-142.5 -102.5t-169.5 -52.5v-377h-195zM236 528q0 -166 74 -260.5
t204 -120.5v766q-130 -26 -204 -122.5t-74 -262.5zM709 147q130 26 204 121.5t74 259.5q0 166 -74 262.5t-204 122.5v-766z" />
    <glyph glyph-name="uni0445" unicode="&#x445;" horiz-adv-x="1112" 
d="M63 0l377 539l-362 526h227l250 -375l252 375h227l-362 -526l377 -539h-228l-266 387l-266 -387h-226z" />
    <glyph glyph-name="uni0446" unicode="&#x446;" horiz-adv-x="1218" 
d="M115 0v1065h207v-901h475v901h207v-901h102v-451h-199v287h-792z" />
    <glyph glyph-name="uni0447" unicode="&#x447;" horiz-adv-x="1130" 
d="M440 276q-80 0 -146 22.5t-119 69.5t-82.5 128t-29.5 190v379h207v-356q0 -134 67 -196t177 -62q68 0 125 23.5t93.5 61t56.5 83t20 90.5v356h207v-1065h-207v498q-7 -31 -33 -66.5t-69.5 -71.5t-114 -60t-152.5 -24z" />
    <glyph glyph-name="uni0448" unicode="&#x448;" horiz-adv-x="1579" 
d="M115 0v1065h207v-901h370v901h195v-901h370v901h207v-1065h-1349z" />
    <glyph glyph-name="uni0449" unicode="&#x449;" horiz-adv-x="1679" 
d="M1368 -287v287h-1253v1065h207v-901h370v901h195v-901h370v901h207v-901h103v-451h-199z" />
    <glyph glyph-name="uni044A" unicode="&#x44a;" horiz-adv-x="1226" 
d="M43 901v164h391v-377h316q200 0 306.5 -91t106.5 -253q0 -164 -106 -254t-307 -90h-523v901h-184zM434 164h307q115 0 170.5 48t55.5 132t-55.5 132t-170.5 48h-307v-360z" />
    <glyph glyph-name="uni044B" unicode="&#x44b;" horiz-adv-x="1486" 
d="M115 0v1065h207v-377h315q200 0 307 -91t107 -253q0 -164 -106.5 -254t-307.5 -90h-522zM322 164h307q115 0 170 48t55 132t-55 132t-170 48h-307v-360zM1165 0v1065h207v-1065h-207z" />
    <glyph glyph-name="uni044C" unicode="&#x44c;" horiz-adv-x="1114" 
d="M115 0v1065h207v-377h315q200 0 307 -91t107 -253q0 -164 -106.5 -254t-307.5 -90h-522zM322 164h307q115 0 170 48t55 132t-55 132t-170 48h-307v-360z" />
    <glyph glyph-name="uni044D" unicode="&#x44d;" horiz-adv-x="1112" 
d="M504 477v131h346q-20 144 -105 222.5t-215 78.5q-108 0 -182.5 -53.5t-95.5 -169.5h-189q11 91 45.5 162.5t80 115t105 72t116.5 39t118 10.5q82 0 157 -20.5t142 -64.5t116 -108t77.5 -157t28.5 -205t-28.5 -204.5t-77.5 -155.5t-116 -106.5t-142 -63.5t-157 -20
q-61 0 -118 10.5t-117 39t-106 72.5t-80 116t-44 165h189q21 -118 95 -172.5t183 -54.5q137 0 223 84t99 237h-348z" />
    <glyph glyph-name="uni044E" unicode="&#x44e;" horiz-adv-x="1538" 
d="M94 0v1065h207v-451h141q13 118 60.5 210t118.5 148t156 84.5t179 28.5q81 0 156 -20.5t142 -65t116.5 -108t78 -156t28.5 -203.5q0 -138 -43.5 -246t-117.5 -173.5t-165.5 -99t-194.5 -33.5q-94 0 -179 28.5t-156 84.5t-118.5 147.5t-60.5 208.5h-141v-449h-207z
M635 532q0 -186 91 -282t230 -96t231.5 96t92.5 282t-92.5 282.5t-231.5 96.5t-230 -96.5t-91 -282.5z" />
    <glyph glyph-name="uni044F" unicode="&#x44f;" horiz-adv-x="1124" 
d="M78 0l268 391q-133 29 -202.5 114.5t-69.5 215.5q0 164 106 254t307 90h523v-1065h-207v377h-254l-252 -377h-219zM270 721q0 -84 55.5 -132t170.5 -48h307v360h-307q-115 0 -170.5 -48t-55.5 -132z" />
    <glyph glyph-name="uni0451" unicode="&#x451;" horiz-adv-x="1120" 
d="M580 -20q-110 0 -202 32.5t-163.5 98t-111.5 172.5t-40 247q0 142 40.5 251t111.5 174t160.5 97.5t195.5 32.5q105 0 192 -32t153.5 -96.5t103.5 -169t37 -240.5q0 -45 -6 -80h-789q23 -326 320 -326q214 0 276 172h184q-31 -115 -100 -191.5t-159.5 -109t-202.5 -32.5z
M227 1370q0 50 36.5 85.5t86.5 35.5t86.5 -35.5t36.5 -85.5t-36.5 -85.5t-86.5 -35.5t-86.5 35.5t-36.5 85.5zM264 623h596q-3 141 -79.5 221t-211.5 80q-131 0 -211.5 -76t-93.5 -225zM647 1370q0 50 36.5 85.5t86.5 35.5t86.5 -35.5t36.5 -85.5t-36.5 -85.5t-86.5 -35.5
t-86.5 35.5t-36.5 85.5z" />
    <glyph glyph-name="uni0453" unicode="&#x453;" horiz-adv-x="862" 
d="M115 0v1065h706v-164h-499v-901h-207zM338 1190l209 274h184l-209 -274h-184z" />
    <glyph glyph-name="uni0454" unicode="&#x454;" horiz-adv-x="1110" 
d="M584 -20q-82 0 -157 20t-142 63.5t-116 106.5t-77.5 155.5t-28.5 204.5t28.5 205t77.5 157t116 108t142 64.5t157 20.5q61 0 118 -10.5t116.5 -39t105 -72t80 -115t45.5 -162.5h-189q-21 116 -95.5 169.5t-182.5 53.5q-130 0 -215 -78.5t-105 -222.5h346v-131h-348
q13 -153 99 -237t223 -84q109 0 183 54.5t95 172.5h189q-10 -93 -44 -165t-80 -116t-106 -72.5t-117 -39t-118 -10.5z" />
    <glyph glyph-name="uni0457" unicode="&#x457;" horiz-adv-x="397" 
d="M94 0v1065h207v-1065h-207zM-137 1370q0 50 36.5 85.5t86.5 35.5t86.5 -35.5t36.5 -85.5t-36.5 -85.5t-86.5 -35.5t-86.5 35.5t-36.5 85.5zM283 1370q0 50 36.5 85.5t86.5 35.5t86 -35t36 -86t-36 -86t-86 -35t-86.5 35.5t-36.5 85.5z" />
    <glyph glyph-name="uni045C" unicode="&#x45c;" horiz-adv-x="1130" 
d="M115 0v1065h207v-520l485 520h237l-438 -461l502 -604h-229l-402 467l-155 -164v-303h-207zM467 1190l209 274h184l-209 -274h-184z" />
    <glyph glyph-name="uni045E" unicode="&#x45e;" horiz-adv-x="1124" 
d="M152 -221q52 -9 93.5 -4t71.5 15.5t53.5 32t39 45.5t28.5 56q17 42 17.5 74t-13.5 68l-399 999h213l305 -813l307 813h213l-450 -1126q-83 -206 -192 -283t-287 -55v178zM260 1464h139q6 -153 162 -153t162 153h139q0 -125 -75.5 -201.5t-225.5 -76.5t-225.5 76.5
t-75.5 201.5z" />
    <glyph glyph-name="uni0490" unicode="&#x490;" horiz-adv-x="1038" 
d="M330 1245v-1245h-215v1434h655v204h217v-393h-657z" />
    <glyph glyph-name="uni0491" unicode="&#x491;" horiz-adv-x="862" 
d="M322 901v-901h-207v1065h526v135h180v-299h-499z" />
    <glyph glyph-name="uni1E0C" unicode="&#x1e0c;" horiz-adv-x="1363" 
d="M115 0v1434h489q335 0 506.5 -184.5t171.5 -532.5t-171.5 -532.5t-506.5 -184.5h-489zM328 186h256q252 0 366.5 129t114.5 402q0 274 -114 402t-367 128h-256v-1061zM547 -336q0 56 40 95.5t97 39.5q56 0 95.5 -39.5t39.5 -95.5q0 -57 -39.5 -96t-95.5 -39q-57 0 -97 39
t-40 96z" />
    <glyph glyph-name="uni1E0D" unicode="&#x1e0d;" horiz-adv-x="1216" 
d="M539 -20q-92 0 -175 33t-151.5 97.5t-109 173.5t-40.5 248q0 140 40.5 249t109 173.5t151.5 97.5t175 33q119 0 214 -50t142 -138v537h207v-1434h-207v168q-47 -88 -142 -138t-214 -50zM260 532q0 -94 26.5 -168t72.5 -119t102.5 -68t120.5 -23q63 0 120 23t103 68
t73 119t27 168t-27 168.5t-73 119.5t-103 68t-120 23q-64 0 -120.5 -23t-102.5 -68t-72.5 -119.5t-26.5 -168.5zM467 -336q0 56 40 95.5t97 39.5q56 0 95.5 -39.5t39.5 -95.5q0 -57 -39.5 -96t-95.5 -39q-57 0 -97 39t-40 96z" />
    <glyph glyph-name="uni1E20" unicode="&#x1e20;" horiz-adv-x="1437" 
d="M739 -20q-307 0 -481 191.5t-174 541.5q0 353 177.5 546t475.5 193q221 0 374 -106.5t192 -307.5h-211q-37 116 -130.5 173t-224.5 57q-213 0 -326.5 -144t-113.5 -405q0 -262 115.5 -408.5t328.5 -146.5q176 0 284.5 103.5t107.5 312.5h-332v172h542v-115
q0 -320 -158 -488.5t-446 -168.5zM422 1708v125h627v-125h-627z" />
    <glyph glyph-name="uni1E21" unicode="&#x1e21;" horiz-adv-x="1204" 
d="M526 25q-72 0 -138 18.5t-125.5 60t-103.5 102t-70 150t-26 199.5q0 136 39.5 241t106 166.5t147 92t170.5 30.5q115 0 210 -46.5t147 -129.5v156h207v-1042q0 -106 -33.5 -187.5t-85.5 -130t-124 -80t-139.5 -42.5t-140.5 -11q-68 0 -130.5 9.5t-126 34t-110 62.5
t-76 99t-30.5 139h182q4 -87 86 -134.5t201 -47.5q142 0 231 71.5t89 217.5v178q-52 -83 -147 -129.5t-210 -46.5zM258 555q0 -173 91.5 -265.5t225.5 -92.5q63 0 119 22t101 65t71.5 113t26.5 158t-26.5 158t-71.5 112t-101 64t-119 22q-134 0 -225.5 -91.5t-91.5 -264.5z
M274 1339v125h627v-125h-627z" />
    <glyph glyph-name="uni1E24" unicode="&#x1e24;" horiz-adv-x="1347" 
d="M1022 0v618h-694v-618h-213v1434h213v-639h694v639h211v-1434h-211zM537 -336q0 56 40 95.5t97 39.5q56 0 95.5 -39.5t39.5 -95.5q0 -57 -39.5 -96t-95.5 -39q-57 0 -97 39t-40 96z" />
    <glyph glyph-name="uni1E25" unicode="&#x1e25;" 
d="M115 0v1434h207v-582h6q8 34 31.5 71t64 75t109.5 62.5t153 24.5q81 0 147.5 -24t119 -73t81.5 -131.5t29 -192.5v-664h-207v616q0 144 -62.5 219.5t-187.5 75.5q-129 0 -206.5 -77.5t-77.5 -217.5v-616h-207zM446 -336q0 56 40.5 95.5t97.5 39.5q56 0 95.5 -39.5
t39.5 -95.5q0 -57 -39.5 -96t-95.5 -39q-57 0 -97.5 39t-40.5 96z" />
    <glyph glyph-name="uni1E62" unicode="&#x1e62;" horiz-adv-x="1280" 
d="M647 -20q-268 0 -415.5 122t-147.5 332h217q6 -124 92 -199t256 -75q157 0 240.5 64.5t83.5 176.5q0 100 -65.5 153.5t-192.5 78.5l-193 39q-397 80 -397 385q0 186 135.5 290.5t378.5 104.5t379.5 -106t136.5 -295h-217q-2 103 -80 162t-223 59q-147 0 -218 -59.5
t-71 -155.5q0 -165 232 -213l184 -37q220 -44 327 -140t107 -264q0 -205 -148 -314t-401 -109zM494 -336q0 56 40 95.5t97 39.5q55 0 95 -39.5t40 -95.5q0 -57 -39.5 -96t-95.5 -39q-57 0 -97 39t-40 96z" />
    <glyph glyph-name="uni1E63" unicode="&#x1e63;" horiz-adv-x="997" 
d="M498 -20q-200 0 -320.5 85t-124.5 252h187q8 -63 46 -104t91.5 -57.5t122.5 -16.5q105 0 169 40t64 122q0 61 -39.5 92.5t-120.5 50.5l-198 45q-291 68 -291 293q0 144 112.5 223.5t301.5 79.5q192 0 301 -85t116 -248h-174q-13 94 -74 134t-167 40q-105 0 -160 -35.5
t-55 -104.5q0 -56 37 -90t120 -53l201 -45q70 -17 120.5 -38t93.5 -55t65 -84t22 -116q0 -85 -36.5 -149.5t-100 -102t-141 -55.5t-168.5 -18zM367 -336q0 56 40 95.5t97 39.5q56 0 95.5 -39.5t39.5 -95.5q0 -57 -39.5 -96t-95.5 -39q-57 0 -97 39t-40 96z" />
    <glyph glyph-name="uni1E6C" unicode="&#x1e6c;" horiz-adv-x="1200" 
d="M494 0v1243h-441v191h1094v-191h-440v-1243h-213zM426 -336q0 56 40 95.5t97 39.5q55 0 95 -39.5t40 -95.5q0 -57 -39.5 -96t-95.5 -39q-57 0 -97 39t-40 96z" />
    <glyph glyph-name="uni1E6D" unicode="&#x1e6d;" horiz-adv-x="702" 
d="M516 -14q-299 0 -299 284v631h-174v164h174v268h207v-268h211v-164h-211v-596q0 -81 32.5 -116t116.5 -35q43 0 76 4v-156q-62 -16 -133 -16zM324 -336q0 56 40 95.5t97 39.5q55 0 95 -39.5t40 -95.5q0 -57 -39.5 -96t-95.5 -39q-57 0 -97 39t-40 96z" />
    <glyph glyph-name="Wgrave" unicode="&#x1e80;" horiz-adv-x="2015" 
d="M434 0l-381 1434h217l283 -1135h10l334 1135h223l332 -1135h10l283 1135h217l-379 -1434h-225l-350 1163l-351 -1163h-223zM733 1833h185l208 -274h-184z" />
    <glyph glyph-name="wgrave" unicode="&#x1e81;" horiz-adv-x="1650" 
d="M340 0l-297 1065h199l223 -858h8l262 858h180l263 -858h8l223 858h199l-299 -1065h-234l-250 791l-252 -791h-233zM551 1464h184l209 -274h-184z" />
    <glyph glyph-name="Wacute" unicode="&#x1e82;" horiz-adv-x="2015" 
d="M434 0l-381 1434h217l283 -1135h10l334 1135h223l332 -1135h10l283 1135h217l-379 -1434h-225l-350 1163l-351 -1163h-223zM909 1559l209 274h185l-209 -274h-185z" />
    <glyph glyph-name="wacute" unicode="&#x1e83;" horiz-adv-x="1650" 
d="M340 0l-297 1065h199l223 -858h8l262 858h180l263 -858h8l223 858h199l-299 -1065h-234l-250 791l-252 -791h-233zM727 1190l209 274h184l-209 -274h-184z" />
    <glyph glyph-name="Wdieresis" unicode="&#x1e84;" horiz-adv-x="2015" 
d="M434 0l-381 1434h217l283 -1135h10l334 1135h223l332 -1135h10l283 1135h217l-379 -1434h-225l-350 1163l-351 -1163h-223zM674 1739q0 50 36.5 85.5t86.5 35.5t86.5 -35.5t36.5 -85.5t-36.5 -85.5t-86.5 -35.5t-86.5 35.5t-36.5 85.5zM1094 1739q0 50 36.5 85.5
t86.5 35.5t86 -35t36 -86t-36 -86t-86 -35t-86.5 35.5t-36.5 85.5z" />
    <glyph glyph-name="wdieresis" unicode="&#x1e85;" horiz-adv-x="1650" 
d="M340 0l-297 1065h199l223 -858h8l262 858h180l263 -858h8l223 858h199l-299 -1065h-234l-250 791l-252 -791h-233zM492 1370q0 51 36 86t86 35t86.5 -35.5t36.5 -85.5t-36.5 -85.5t-86.5 -35.5t-86 35t-36 86zM911 1370q0 50 36.5 85.5t86.5 35.5t86.5 -35.5t36.5 -85.5
t-36.5 -85.5t-86.5 -35.5t-86.5 35.5t-36.5 85.5z" />
    <glyph glyph-name="uni1E92" unicode="&#x1e92;" horiz-adv-x="1257" 
d="M82 0v186l848 1061h-819v187h1056l-2 -187l-848 -1061h859v-186h-1094zM506 -336q0 56 40 95.5t97 39.5q55 0 95 -39.5t40 -95.5q0 -57 -39.5 -96t-95.5 -39q-57 0 -97 39t-40 96z" />
    <glyph glyph-name="uni1E93" unicode="&#x1e93;" horiz-adv-x="1026" 
d="M82 0v176l616 713h-596v176h842v-176l-616 -713h616v-176h-862zM377 -336q0 56 40 95.5t97 39.5q56 0 95.5 -39.5t39.5 -95.5q0 -57 -39.5 -96t-95.5 -39q-57 0 -97 39t-40 96z" />
    <glyph glyph-name="uni1E9E" unicode="&#x1e9e;" horiz-adv-x="1417" 
d="M874 -20q-204 0 -312.5 111.5t-108.5 314.5h194q0 -100 58 -170t169 -70q116 0 175 74.5t59 183.5q0 135 -92.5 215t-265.5 80h-162l334 547h-406q-104 0 -145 -46t-41 -145v-1075h-215v1092q0 193 92.5 277.5t290.5 84.5h737l-356 -567q132 -10 232.5 -63.5t161 -156.5
t60.5 -243q0 -202 -121 -323t-338 -121z" />
    <glyph glyph-name="uni1EA0" unicode="&#x1ea0;" horiz-adv-x="1429" 
d="M43 0l539 1434h266l538 -1434h-223l-121 330h-655l-121 -330h-223zM446 492h537l-262 718h-12zM580 -336q0 56 40 95.5t97 39.5q55 0 95 -39.5t40 -95.5q0 -57 -39.5 -96t-95.5 -39q-57 0 -97 39t-40 96z" />
    <glyph glyph-name="uni1EA1" unicode="&#x1ea1;" horiz-adv-x="1118" 
d="M420 -20q-159 0 -258 74t-99 225q0 270 340 311l265 31q72 9 101.5 23.5t29.5 39.5v29q0 121 -59 168t-179 47q-121 0 -180 -41t-59 -139v-25h-199v43q0 319 442 319q227 0 334 -89t107 -281v-715h-195v172h-8q-8 -17 -22 -36.5t-46 -48.5t-72.5 -51.5t-104.5 -39
t-138 -16.5zM270 289q0 -148 201 -148q81 0 145.5 23t103.5 61t59 81.5t20 88.5v117q-11 -18 -41.5 -29t-104.5 -20l-200 -27q-98 -12 -140.5 -47.5t-42.5 -99.5zM424 -336q0 56 40 95.5t97 39.5q55 0 95 -39.5t40 -95.5q0 -57 -39.5 -96t-95.5 -39q-57 0 -97 39t-40 96z
" />
    <glyph glyph-name="uni1EA2" unicode="&#x1ea2;" horiz-adv-x="1429" 
d="M43 0l539 1434h266l538 -1434h-223l-121 330h-655l-121 -330h-223zM446 492h537l-262 718h-12zM530 1735q0 96 58 144t139 48q85 0 146 -52t61 -146q0 -86 -51.5 -137.5t-126.5 -59.5l-58 90q55 1 85 26.5t30 71.5q0 43 -24.5 67.5t-63.5 24.5q-35 0 -58 -20t-26 -57
h-111z" />
    <glyph glyph-name="uni1EA3" unicode="&#x1ea3;" horiz-adv-x="1118" 
d="M420 -20q-159 0 -258 74t-99 225q0 270 340 311l265 31q72 9 101.5 23.5t29.5 39.5v29q0 121 -59 168t-179 47q-121 0 -180 -41t-59 -139v-25h-199v43q0 319 442 319q227 0 334 -89t107 -281v-715h-195v172h-8q-8 -17 -22 -36.5t-46 -48.5t-72.5 -51.5t-104.5 -39
t-138 -16.5zM270 289q0 -148 201 -148q81 0 145.5 23t103.5 61t59 81.5t20 88.5v117q-11 -18 -41.5 -29t-104.5 -20l-200 -27q-98 -12 -140.5 -47.5t-42.5 -99.5zM367 1366q0 96 58 144.5t138 48.5q84 0 145.5 -52.5t61.5 -146.5q0 -86 -51.5 -137.5t-126.5 -59.5l-57 90
q55 1 84.5 27t29.5 72q0 43 -24.5 67.5t-63.5 24.5q-35 0 -58 -20.5t-26 -57.5h-110z" />
    <glyph glyph-name="uni1EA4" unicode="&#x1ea4;" horiz-adv-x="1429" 
d="M43 0l539 1434h266l538 -1434h-223l-121 330h-655l-121 -330h-223zM369 1563l204 270h283l205 -270h-189l-157 211l-158 -211h-188zM446 492h537l-262 718h-12zM969 1761l209 275h184l-209 -275h-184z" />
    <glyph glyph-name="uni1EA5" unicode="&#x1ea5;" horiz-adv-x="1118" 
d="M420 -20q-159 0 -258 74t-99 225q0 270 340 311l265 31q72 9 101.5 23.5t29.5 39.5v29q0 121 -59 168t-179 47q-121 0 -180 -41t-59 -139v-25h-199v43q0 319 442 319q227 0 334 -89t107 -281v-715h-195v172h-8q-8 -17 -22 -36.5t-46 -48.5t-72.5 -51.5t-104.5 -39
t-138 -16.5zM207 1194l205 270h282l205 -270h-188l-158 211l-158 -211h-188zM270 289q0 -148 201 -148q81 0 145.5 23t103.5 61t59 81.5t20 88.5v117q-11 -18 -41.5 -29t-104.5 -20l-200 -27q-98 -12 -140.5 -47.5t-42.5 -99.5zM807 1393l209 274h184l-209 -274h-184z" />
    <glyph glyph-name="uni1EA6" unicode="&#x1ea6;" horiz-adv-x="1429" 
d="M43 0l539 1434h266l538 -1434h-223l-121 330h-655l-121 -330h-223zM369 1563l204 270h283l205 -270h-189l-157 211l-158 -211h-188zM446 492h537l-262 718h-12zM834 2036h184l190 -275h-182z" />
    <glyph glyph-name="uni1EA7" unicode="&#x1ea7;" horiz-adv-x="1118" 
d="M420 -20q-159 0 -258 74t-99 225q0 270 340 311l265 31q72 9 101.5 23.5t29.5 39.5v29q0 121 -59 168t-179 47q-121 0 -180 -41t-59 -139v-25h-199v43q0 319 442 319q227 0 334 -89t107 -281v-715h-195v172h-8q-8 -17 -22 -36.5t-46 -48.5t-72.5 -51.5t-104.5 -39
t-138 -16.5zM207 1194l205 270h282l205 -270h-188l-158 211l-158 -211h-188zM270 289q0 -148 201 -148q81 0 145.5 23t103.5 61t59 81.5t20 88.5v117q-11 -18 -41.5 -29t-104.5 -20l-200 -27q-98 -12 -140.5 -47.5t-42.5 -99.5zM672 1667h184l191 -274h-183z" />
    <glyph glyph-name="uni1EA8" unicode="&#x1ea8;" horiz-adv-x="1429" 
d="M43 0l539 1434h266l538 -1434h-223l-121 330h-655l-121 -330h-223zM369 1563l204 270h283l205 -270h-189l-157 211l-158 -211h-188zM446 492h537l-262 718h-12zM788 1999q0 96 58 144t139 48q85 0 146 -52t61 -146q0 -86 -51.5 -137.5t-126.5 -59.5l-58 90q55 1 85 27
t30 72q0 43 -24.5 67.5t-63.5 24.5q-35 0 -58 -20.5t-26 -57.5h-111z" />
    <glyph glyph-name="uni1EA9" unicode="&#x1ea9;" horiz-adv-x="1118" 
d="M420 -20q-159 0 -258 74t-99 225q0 270 340 311l265 31q72 9 101.5 23.5t29.5 39.5v29q0 121 -59 168t-179 47q-121 0 -180 -41t-59 -139v-25h-199v43q0 319 442 319q227 0 334 -89t107 -281v-715h-195v172h-8q-8 -17 -22 -36.5t-46 -48.5t-72.5 -51.5t-104.5 -39
t-138 -16.5zM207 1194l205 270h282l205 -270h-188l-158 211l-158 -211h-188zM270 289q0 -148 201 -148q81 0 145.5 23t103.5 61t59 81.5t20 88.5v117q-11 -18 -41.5 -29t-104.5 -20l-200 -27q-98 -12 -140.5 -47.5t-42.5 -99.5zM627 1630q0 96 58 144.5t138 48.5
q84 0 145.5 -52.5t61.5 -146.5q0 -86 -51.5 -137.5t-126.5 -59.5l-57 91q55 1 84.5 26.5t29.5 71.5q0 43 -24.5 67.5t-63.5 24.5q-35 0 -58 -20.5t-26 -57.5h-110z" />
    <glyph glyph-name="uni1EAA" unicode="&#x1eaa;" horiz-adv-x="1429" 
d="M43 0l539 1434h266l538 -1434h-223l-121 330h-655l-121 -330h-223zM369 1563l204 270h283l205 -270h-189l-157 211l-158 -211h-188zM383 1974q0 100 49 154.5t135 54.5q42 0 77 -13.5t59 -32.5t45 -38.5t45 -33t49 -13.5q35 0 57.5 23.5t22.5 56.5h129q0 -100 -50 -154.5
t-137 -54.5q-51 0 -93 20.5t-65.5 45t-54 45t-59.5 20.5q-35 0 -58.5 -23.5t-23.5 -56.5h-127zM446 492h537l-262 718h-12z" />
    <glyph glyph-name="uni1EAB" unicode="&#x1eab;" horiz-adv-x="1118" 
d="M420 -20q-159 0 -258 74t-99 225q0 270 340 311l265 31q72 9 101.5 23.5t29.5 39.5v29q0 121 -59 168t-179 47q-121 0 -180 -41t-59 -139v-25h-199v43q0 319 442 319q227 0 334 -89t107 -281v-715h-195v172h-8q-8 -17 -22 -36.5t-46 -48.5t-72.5 -51.5t-104.5 -39
t-138 -16.5zM207 1194l205 270h282l205 -270h-188l-158 211l-158 -211h-188zM221 1606q0 100 49.5 154.5t135.5 54.5q51 0 93 -20.5t66 -45.5t54.5 -45.5t60.5 -20.5q35 0 57.5 23.5t22.5 56.5h129q0 -100 -50 -154.5t-137 -54.5q-42 0 -77 13.5t-58.5 33t-44.5 39t-44.5 33
t-47.5 13.5q-35 0 -58.5 -23.5t-23.5 -56.5h-127zM270 289q0 -148 201 -148q81 0 145.5 23t103.5 61t59 81.5t20 88.5v117q-11 -18 -41.5 -29t-104.5 -20l-200 -27q-98 -12 -140.5 -47.5t-42.5 -99.5z" />
    <glyph glyph-name="uni1EAC" unicode="&#x1eac;" horiz-adv-x="1429" 
d="M43 0l539 1434h266l538 -1434h-223l-121 330h-655l-121 -330h-223zM369 1563l204 270h283l205 -270h-189l-157 211l-158 -211h-188zM446 492h537l-262 718h-12zM580 -336q0 56 40 95.5t97 39.5q55 0 95 -39.5t40 -95.5q0 -57 -39.5 -96t-95.5 -39q-57 0 -97 39t-40 96z
" />
    <glyph glyph-name="uni1EAD" unicode="&#x1ead;" horiz-adv-x="1118" 
d="M420 -20q-159 0 -258 74t-99 225q0 270 340 311l265 31q72 9 101.5 23.5t29.5 39.5v29q0 121 -59 168t-179 47q-121 0 -180 -41t-59 -139v-25h-199v43q0 319 442 319q227 0 334 -89t107 -281v-715h-195v172h-8q-8 -17 -22 -36.5t-46 -48.5t-72.5 -51.5t-104.5 -39
t-138 -16.5zM207 1194l205 270h282l205 -270h-188l-158 211l-158 -211h-188zM270 289q0 -148 201 -148q81 0 145.5 23t103.5 61t59 81.5t20 88.5v117q-11 -18 -41.5 -29t-104.5 -20l-200 -27q-98 -12 -140.5 -47.5t-42.5 -99.5zM424 -336q0 56 40 95.5t97 39.5
q55 0 95 -39.5t40 -95.5q0 -57 -39.5 -96t-95.5 -39q-57 0 -97 39t-40 96z" />
    <glyph glyph-name="uni1EAE" unicode="&#x1eae;" horiz-adv-x="1429" 
d="M43 0l539 1434h266l538 -1434h-223l-121 330h-655l-121 -330h-223zM414 1833h139q6 -154 162 -154t162 154h139q0 -125 -75.5 -202t-225.5 -77t-225.5 77t-75.5 202zM446 492h537l-262 718h-12zM608 1896l209 275h184l-208 -275h-185z" />
    <glyph glyph-name="uni1EAF" unicode="&#x1eaf;" horiz-adv-x="1118" 
d="M420 -20q-159 0 -258 74t-99 225q0 270 340 311l265 31q72 9 101.5 23.5t29.5 39.5v29q0 121 -59 168t-179 47q-121 0 -180 -41t-59 -139v-25h-199v43q0 319 442 319q227 0 334 -89t107 -281v-715h-195v172h-8q-8 -17 -22 -36.5t-46 -48.5t-72.5 -51.5t-104.5 -39
t-138 -16.5zM252 1464h139q6 -153 162 -153t162 153h139q0 -125 -75.5 -201.5t-225.5 -76.5t-225.5 76.5t-75.5 201.5zM270 289q0 -148 201 -148q81 0 145.5 23t103.5 61t59 81.5t20 88.5v117q-11 -18 -41.5 -29t-104.5 -20l-200 -27q-98 -12 -140.5 -47.5t-42.5 -99.5z
M446 1528l209 274h185l-209 -274h-185z" />
    <glyph glyph-name="uni1EB0" unicode="&#x1eb0;" horiz-adv-x="1429" 
d="M43 0l539 1434h266l538 -1434h-223l-121 330h-655l-121 -330h-223zM414 1833h139q6 -154 162 -154t162 154h139q0 -125 -75.5 -202t-225.5 -77t-225.5 77t-75.5 202zM420 2171h184l209 -275h-184zM446 492h537l-262 718h-12z" />
    <glyph glyph-name="uni1EB1" unicode="&#x1eb1;" horiz-adv-x="1118" 
d="M420 -20q-159 0 -258 74t-99 225q0 270 340 311l265 31q72 9 101.5 23.5t29.5 39.5v29q0 121 -59 168t-179 47q-121 0 -180 -41t-59 -139v-25h-199v43q0 319 442 319q227 0 334 -89t107 -281v-715h-195v172h-8q-8 -17 -22 -36.5t-46 -48.5t-72.5 -51.5t-104.5 -39
t-138 -16.5zM252 1464h139q6 -153 162 -153t162 153h139q0 -125 -75.5 -201.5t-225.5 -76.5t-225.5 76.5t-75.5 201.5zM258 1802h184l209 -274h-184zM270 289q0 -148 201 -148q81 0 145.5 23t103.5 61t59 81.5t20 88.5v117q-11 -18 -41.5 -29t-104.5 -20l-200 -27
q-98 -12 -140.5 -47.5t-42.5 -99.5z" />
    <glyph glyph-name="uni1EB2" unicode="&#x1eb2;" horiz-adv-x="1429" 
d="M43 0l539 1434h266l538 -1434h-223l-121 330h-655l-121 -330h-223zM414 1833h139q6 -154 162 -154t162 154h139q0 -125 -75.5 -202t-225.5 -77t-225.5 77t-75.5 202zM446 492h537l-262 718h-12zM461 2005q0 96 58 144.5t138 48.5q84 0 145.5 -52.5t61.5 -146.5
q0 -86 -51.5 -137.5t-126.5 -59.5l-57 90q55 1 84.5 27t29.5 72q0 43 -24.5 67.5t-63.5 24.5q-35 0 -58 -20.5t-26 -57.5h-110z" />
    <glyph glyph-name="uni1EB3" unicode="&#x1eb3;" horiz-adv-x="1118" 
d="M420 -20q-159 0 -258 74t-99 225q0 270 340 311l265 31q72 9 101.5 23.5t29.5 39.5v29q0 121 -59 168t-179 47q-121 0 -180 -41t-59 -139v-25h-199v43q0 319 442 319q227 0 334 -89t107 -281v-715h-195v172h-8q-8 -17 -22 -36.5t-46 -48.5t-72.5 -51.5t-104.5 -39
t-138 -16.5zM252 1464h139q6 -153 162 -153t162 153h139q0 -125 -75.5 -201.5t-225.5 -76.5t-225.5 76.5t-75.5 201.5zM270 289q0 -148 201 -148q81 0 145.5 23t103.5 61t59 81.5t20 88.5v117q-11 -18 -41.5 -29t-104.5 -20l-200 -27q-98 -12 -140.5 -47.5t-42.5 -99.5z
M299 1636q0 96 58.5 144.5t138.5 48.5q84 0 145 -52.5t61 -146.5q0 -86 -51.5 -137t-126.5 -59l-57 90q55 1 85 26.5t30 71.5q0 43 -24.5 67.5t-63.5 24.5q-35 0 -58 -20.5t-26 -57.5h-111z" />
    <glyph glyph-name="uni1EB4" unicode="&#x1eb4;" horiz-adv-x="1429" 
d="M43 0l539 1434h266l538 -1434h-223l-121 330h-655l-121 -330h-223zM381 1985q0 100 49 154t135 54q42 0 77 -13.5t59 -32.5t45 -38.5t45 -33t49 -13.5q35 0 57.5 23.5t22.5 56.5h129q0 -100 -50 -154.5t-137 -54.5q-51 0 -93 20.5t-65.5 45t-54 45t-59.5 20.5
q-35 0 -58.5 -23t-23.5 -56h-127zM414 1833h139q6 -154 162 -154t162 154h139q0 -125 -75.5 -202t-225.5 -77t-225.5 77t-75.5 202zM446 492h537l-262 718h-12z" />
    <glyph glyph-name="uni1EB5" unicode="&#x1eb5;" horiz-adv-x="1118" 
d="M420 -20q-159 0 -258 74t-99 225q0 270 340 311l265 31q72 9 101.5 23.5t29.5 39.5v29q0 121 -59 168t-179 47q-121 0 -180 -41t-59 -139v-25h-199v43q0 319 442 319q227 0 334 -89t107 -281v-715h-195v172h-8q-8 -17 -22 -36.5t-46 -48.5t-72.5 -51.5t-104.5 -39
t-138 -16.5zM219 1616q0 100 49 154.5t135 54.5q42 0 77 -13.5t59 -32.5t45 -38.5t45 -33t49 -13.5q35 0 57.5 23.5t22.5 56.5h129q0 -100 -50 -154.5t-137 -54.5q-51 0 -93 20.5t-65.5 45t-54 45t-59.5 20.5q-35 0 -58.5 -23.5t-23.5 -56.5h-127zM252 1464h139
q6 -153 162 -153t162 153h139q0 -125 -75.5 -201.5t-225.5 -76.5t-225.5 76.5t-75.5 201.5zM270 289q0 -148 201 -148q81 0 145.5 23t103.5 61t59 81.5t20 88.5v117q-11 -18 -41.5 -29t-104.5 -20l-200 -27q-98 -12 -140.5 -47.5t-42.5 -99.5z" />
    <glyph glyph-name="uni1EB6" unicode="&#x1eb6;" horiz-adv-x="1429" 
d="M43 0l539 1434h266l538 -1434h-223l-121 330h-655l-121 -330h-223zM414 1833h139q6 -154 162 -154t162 154h139q0 -125 -75.5 -202t-225.5 -77t-225.5 77t-75.5 202zM446 492h537l-262 718h-12zM580 -336q0 56 40 95.5t97 39.5q55 0 95 -39.5t40 -95.5q0 -57 -39.5 -96
t-95.5 -39q-57 0 -97 39t-40 96z" />
    <glyph glyph-name="uni1EB7" unicode="&#x1eb7;" horiz-adv-x="1118" 
d="M420 -20q-159 0 -258 74t-99 225q0 270 340 311l265 31q72 9 101.5 23.5t29.5 39.5v29q0 121 -59 168t-179 47q-121 0 -180 -41t-59 -139v-25h-199v43q0 319 442 319q227 0 334 -89t107 -281v-715h-195v172h-8q-8 -17 -22 -36.5t-46 -48.5t-72.5 -51.5t-104.5 -39
t-138 -16.5zM252 1464h139q6 -153 162 -153t162 153h139q0 -125 -75.5 -201.5t-225.5 -76.5t-225.5 76.5t-75.5 201.5zM270 289q0 -148 201 -148q81 0 145.5 23t103.5 61t59 81.5t20 88.5v117q-11 -18 -41.5 -29t-104.5 -20l-200 -27q-98 -12 -140.5 -47.5t-42.5 -99.5z
M424 -336q0 56 40 95.5t97 39.5q55 0 95 -39.5t40 -95.5q0 -57 -39.5 -96t-95.5 -39q-57 0 -97 39t-40 96z" />
    <glyph glyph-name="uni1EB8" unicode="&#x1eb8;" horiz-adv-x="1130" 
d="M115 0v1434h932v-187h-719v-430h657v-170h-657v-461h739v-186h-952zM453 -336q0 56 40 95.5t97 39.5q56 0 95.5 -39.5t39.5 -95.5q0 -57 -39.5 -96t-95.5 -39q-57 0 -97 39t-40 96z" />
    <glyph glyph-name="uni1EB9" unicode="&#x1eb9;" horiz-adv-x="1120" 
d="M580 -20q-110 0 -202 32.5t-163.5 98t-111.5 172.5t-40 247q0 142 40.5 251t111.5 174t160.5 97.5t195.5 32.5q105 0 192 -32t153.5 -96.5t103.5 -169t37 -240.5q0 -45 -6 -80h-789q23 -326 320 -326q214 0 276 172h184q-31 -115 -100 -191.5t-159.5 -109t-202.5 -32.5z
M264 623h596q-3 141 -79.5 221t-211.5 80q-131 0 -211.5 -76t-93.5 -225zM426 -336q0 56 40 95.5t97 39.5q55 0 95 -39.5t40 -95.5q0 -57 -39.5 -96t-95.5 -39q-57 0 -97 39t-40 96z" />
    <glyph glyph-name="uni1EBA" unicode="&#x1eba;" horiz-adv-x="1130" 
d="M115 0v1434h932v-187h-719v-430h657v-170h-657v-461h739v-186h-952zM403 1735q0 96 58 144t139 48q85 0 146 -52t61 -146q0 -86 -51.5 -137.5t-126.5 -59.5l-58 90q55 1 85 26.5t30 71.5q0 43 -24.5 67.5t-63.5 24.5q-35 0 -58 -20t-26 -57h-111z" />
    <glyph glyph-name="uni1EBB" unicode="&#x1ebb;" horiz-adv-x="1120" 
d="M580 -20q-110 0 -202 32.5t-163.5 98t-111.5 172.5t-40 247q0 142 40.5 251t111.5 174t160.5 97.5t195.5 32.5q105 0 192 -32t153.5 -96.5t103.5 -169t37 -240.5q0 -45 -6 -80h-789q23 -326 320 -326q214 0 276 172h184q-31 -115 -100 -191.5t-159.5 -109t-202.5 -32.5z
M264 623h596q-3 141 -79.5 221t-211.5 80q-131 0 -211.5 -76t-93.5 -225zM377 1366q0 96 58 144.5t138 48.5q84 0 145.5 -52.5t61.5 -146.5q0 -86 -51.5 -137.5t-126.5 -59.5l-57 90q55 1 84.5 27t29.5 72q0 43 -24.5 67.5t-63.5 24.5q-35 0 -58 -20.5t-26 -57.5h-110z" />
    <glyph glyph-name="uni1EBC" unicode="&#x1ebc;" horiz-adv-x="1130" 
d="M115 0v1434h932v-187h-719v-430h657v-170h-657v-461h739v-186h-952zM256 1647q0 100 49 154t135 54q42 0 77 -13.5t59 -32.5t45 -38.5t45 -33t49 -13.5q35 0 57.5 23.5t22.5 56.5h129q0 -100 -50 -154.5t-137 -54.5q-51 0 -93 20.5t-65.5 45t-54 45t-59.5 20.5
q-35 0 -58.5 -23t-23.5 -56h-127z" />
    <glyph glyph-name="uni1EBD" unicode="&#x1ebd;" horiz-adv-x="1120" 
d="M580 -20q-110 0 -202 32.5t-163.5 98t-111.5 172.5t-40 247q0 142 40.5 251t111.5 174t160.5 97.5t195.5 32.5q105 0 192 -32t153.5 -96.5t103.5 -169t37 -240.5q0 -45 -6 -80h-789q23 -326 320 -326q214 0 276 172h184q-31 -115 -100 -191.5t-159.5 -109t-202.5 -32.5z
M229 1278q0 100 49.5 154.5t135.5 54.5q51 0 93 -20.5t66 -45t54.5 -45t60.5 -20.5q35 0 57.5 23.5t22.5 56.5h129q0 -100 -49.5 -154.5t-136.5 -54.5q-42 0 -77 13.5t-58.5 32.5t-45 38.5t-45 33t-47.5 13.5q-35 0 -58.5 -23.5t-23.5 -56.5h-127zM264 623h596
q-3 141 -79.5 221t-211.5 80q-131 0 -211.5 -76t-93.5 -225z" />
    <glyph glyph-name="uni1EBE" unicode="&#x1ebe;" horiz-adv-x="1130" 
d="M115 0v1434h932v-187h-719v-430h657v-170h-657v-461h739v-186h-952zM244 1563l205 270h282l205 -270h-188l-158 211l-158 -211h-188zM844 1761l209 275h184l-209 -275h-184z" />
    <glyph glyph-name="uni1EBF" unicode="&#x1ebf;" horiz-adv-x="1120" 
d="M580 -20q-110 0 -202 32.5t-163.5 98t-111.5 172.5t-40 247q0 142 40.5 251t111.5 174t160.5 97.5t195.5 32.5q105 0 192 -32t153.5 -96.5t103.5 -169t37 -240.5q0 -45 -6 -80h-789q23 -326 320 -326q214 0 276 172h184q-31 -115 -100 -191.5t-159.5 -109t-202.5 -32.5z
M217 1194l205 270h283l204 -270h-188l-158 211l-157 -211h-189zM264 623h596q-3 141 -79.5 221t-211.5 80q-131 0 -211.5 -76t-93.5 -225zM817 1393l209 274h184l-209 -274h-184z" />
    <glyph glyph-name="uni1EC0" unicode="&#x1ec0;" horiz-adv-x="1130" 
d="M115 0v1434h932v-187h-719v-430h657v-170h-657v-461h739v-186h-952zM244 1563l205 270h282l205 -270h-188l-158 211l-158 -211h-188zM709 2036h184l190 -275h-182z" />
    <glyph glyph-name="uni1EC1" unicode="&#x1ec1;" horiz-adv-x="1120" 
d="M580 -20q-110 0 -202 32.5t-163.5 98t-111.5 172.5t-40 247q0 142 40.5 251t111.5 174t160.5 97.5t195.5 32.5q105 0 192 -32t153.5 -96.5t103.5 -169t37 -240.5q0 -45 -6 -80h-789q23 -326 320 -326q214 0 276 172h184q-31 -115 -100 -191.5t-159.5 -109t-202.5 -32.5z
M217 1194l205 270h283l204 -270h-188l-158 211l-157 -211h-189zM264 623h596q-3 141 -79.5 221t-211.5 80q-131 0 -211.5 -76t-93.5 -225zM682 1667h184l191 -274h-183z" />
    <glyph glyph-name="uni1EC2" unicode="&#x1ec2;" horiz-adv-x="1130" 
d="M115 0v1434h932v-187h-719v-430h657v-170h-657v-461h739v-186h-952zM244 1563l205 270h282l205 -270h-188l-158 211l-158 -211h-188zM664 1999q0 96 57.5 144t138.5 48q85 0 146 -52t61 -146q0 -86 -51.5 -137.5t-126.5 -59.5l-58 90q55 1 85 27t30 72q0 43 -24.5 67.5
t-63.5 24.5q-35 0 -58 -20.5t-26 -57.5h-110z" />
    <glyph glyph-name="uni1EC3" unicode="&#x1ec3;" horiz-adv-x="1120" 
d="M580 -20q-110 0 -202 32.5t-163.5 98t-111.5 172.5t-40 247q0 142 40.5 251t111.5 174t160.5 97.5t195.5 32.5q105 0 192 -32t153.5 -96.5t103.5 -169t37 -240.5q0 -45 -6 -80h-789q23 -326 320 -326q214 0 276 172h184q-31 -115 -100 -191.5t-159.5 -109t-202.5 -32.5z
M217 1194l205 270h283l204 -270h-188l-158 211l-157 -211h-189zM264 623h596q-3 141 -79.5 221t-211.5 80q-131 0 -211.5 -76t-93.5 -225zM637 1630q0 96 58.5 144.5t138.5 48.5q84 0 145 -52.5t61 -146.5q0 -86 -51.5 -137.5t-126.5 -59.5l-57 91q55 1 85 26.5t30 71.5
q0 43 -25 67.5t-64 24.5q-35 0 -57.5 -20.5t-25.5 -57.5h-111z" />
    <glyph glyph-name="uni1EC4" unicode="&#x1ec4;" horiz-adv-x="1130" 
d="M115 0v1434h932v-187h-719v-430h657v-170h-657v-461h739v-186h-952zM244 1563l205 270h282l205 -270h-188l-158 211l-158 -211h-188zM258 1974q0 100 49 154.5t135 54.5q42 0 77 -13.5t59 -32.5t45 -38.5t45 -33t49 -13.5q35 0 57.5 23.5t22.5 56.5h129
q0 -100 -50 -154.5t-137 -54.5q-51 0 -93 20.5t-65.5 45t-54 45t-59.5 20.5q-35 0 -58.5 -23.5t-23.5 -56.5h-127z" />
    <glyph glyph-name="uni1EC5" unicode="&#x1ec5;" horiz-adv-x="1120" 
d="M580 -20q-110 0 -202 32.5t-163.5 98t-111.5 172.5t-40 247q0 142 40.5 251t111.5 174t160.5 97.5t195.5 32.5q105 0 192 -32t153.5 -96.5t103.5 -169t37 -240.5q0 -45 -6 -80h-789q23 -326 320 -326q214 0 276 172h184q-31 -115 -100 -191.5t-159.5 -109t-202.5 -32.5z
M217 1194l205 270h283l204 -270h-188l-158 211l-157 -211h-189zM231 1606q0 100 49.5 154.5t135.5 54.5q51 0 93 -20.5t66 -45.5t54.5 -45.5t60.5 -20.5q35 0 57.5 23.5t22.5 56.5h129q0 -100 -49.5 -154.5t-136.5 -54.5q-42 0 -77 13.5t-58.5 33t-45 39t-45 33t-47.5 13.5
q-35 0 -58.5 -23.5t-23.5 -56.5h-127zM264 623h596q-3 141 -79.5 221t-211.5 80q-131 0 -211.5 -76t-93.5 -225z" />
    <glyph glyph-name="uni1EC6" unicode="&#x1ec6;" horiz-adv-x="1130" 
d="M115 0v1434h932v-187h-719v-430h657v-170h-657v-461h739v-186h-952zM244 1563l205 270h282l205 -270h-188l-158 211l-158 -211h-188zM453 -336q0 56 40 95.5t97 39.5q56 0 95.5 -39.5t39.5 -95.5q0 -57 -39.5 -96t-95.5 -39q-57 0 -97 39t-40 96z" />
    <glyph glyph-name="uni1EC7" unicode="&#x1ec7;" horiz-adv-x="1120" 
d="M580 -20q-110 0 -202 32.5t-163.5 98t-111.5 172.5t-40 247q0 142 40.5 251t111.5 174t160.5 97.5t195.5 32.5q105 0 192 -32t153.5 -96.5t103.5 -169t37 -240.5q0 -45 -6 -80h-789q23 -326 320 -326q214 0 276 172h184q-31 -115 -100 -191.5t-159.5 -109t-202.5 -32.5z
M217 1194l205 270h283l204 -270h-188l-158 211l-157 -211h-189zM264 623h596q-3 141 -79.5 221t-211.5 80q-131 0 -211.5 -76t-93.5 -225zM426 -336q0 56 40 95.5t97 39.5q55 0 95 -39.5t40 -95.5q0 -57 -39.5 -96t-95.5 -39q-57 0 -97 39t-40 96z" />
    <glyph glyph-name="uni1EC8" unicode="&#x1ec8;" horiz-adv-x="440" 
d="M115 0v1434h213v-1434h-213zM33 1735q0 96 57.5 144t138.5 48q85 0 146 -52t61 -146q0 -86 -51.5 -137.5t-126.5 -59.5l-57 90q55 1 84.5 26.5t29.5 71.5q0 43 -24.5 67.5t-63.5 24.5q-35 0 -58 -20t-26 -57h-110z" />
    <glyph glyph-name="uni1EC9" unicode="&#x1ec9;" horiz-adv-x="397" 
d="M94 0v1065h207v-1065h-207zM12 1366q0 96 58.5 144.5t138.5 48.5q84 0 145.5 -52.5t61.5 -146.5q0 -86 -51.5 -137.5t-126.5 -59.5l-58 90q55 1 85 27t30 72q0 43 -24.5 67.5t-63.5 24.5q-35 0 -58 -20.5t-26 -57.5h-111z" />
    <glyph glyph-name="uni1ECA" unicode="&#x1eca;" horiz-adv-x="440" 
d="M115 0v1434h213v-1434h-213zM84 -336q0 56 40 95.5t97 39.5q55 0 95 -39.5t40 -95.5q0 -57 -39.5 -96t-95.5 -39q-57 0 -97 39t-40 96z" />
    <glyph glyph-name="uni1ECB" unicode="&#x1ecb;" horiz-adv-x="436" 
d="M115 0v1065h207v-1065h-207zM94 1372q0 51 36.5 87t86.5 36t86.5 -36t36.5 -87q0 -52 -36.5 -87.5t-86.5 -35.5t-86.5 35.5t-36.5 87.5zM102 -336q0 56 40.5 95.5t97.5 39.5q56 0 95.5 -39.5t39.5 -95.5q0 -57 -39.5 -96t-95.5 -39q-57 0 -97.5 39t-40.5 96z" />
    <glyph glyph-name="uni1ECC" unicode="&#x1ecc;" horiz-adv-x="1488" 
d="M745 -20q-145 0 -266.5 50.5t-209 144t-136.5 232.5t-49 310t49 310t136.5 232t209 143t266.5 50q294 0 477 -197t183 -538t-183 -539t-477 -198zM301 717q0 -262 121 -407.5t323 -145.5q201 0 322 145.5t121 407.5t-121 406.5t-322 144.5q-202 0 -323 -144.5
t-121 -406.5zM608 -336q0 56 40 95.5t97 39.5q56 0 96 -40t40 -95q0 -57 -40 -96t-96 -39q-57 0 -97 39t-40 96z" />
    <glyph glyph-name="uni1ECD" unicode="&#x1ecd;" horiz-adv-x="1165" 
d="M582 -20q-102 0 -193 33.5t-165 99t-117.5 173.5t-43.5 246q0 111 28.5 203.5t78 156t116 108t141 65t155.5 20.5q102 0 193.5 -33.5t165.5 -99t117.5 -174t43.5 -246.5t-43.5 -246t-117.5 -173.5t-165.5 -99t-193.5 -33.5zM260 532q0 -186 91.5 -282t230.5 -96t231 96
t92 282t-92 282.5t-231 96.5t-230.5 -96.5t-91.5 -282.5zM446 -336q0 56 40.5 95.5t97.5 39.5q56 0 95.5 -39.5t39.5 -95.5q0 -57 -39.5 -96t-95.5 -39q-57 0 -97.5 39t-40.5 96z" />
    <glyph glyph-name="uni1ECE" unicode="&#x1ece;" horiz-adv-x="1488" 
d="M745 -20q-145 0 -266.5 50.5t-209 144t-136.5 232.5t-49 310t49 310t136.5 232t209 143t266.5 50q294 0 477 -197t183 -538t-183 -539t-477 -198zM301 717q0 -262 121 -407.5t323 -145.5q201 0 322 145.5t121 407.5t-121 406.5t-322 144.5q-202 0 -323 -144.5
t-121 -406.5zM559 1735q0 96 58 144t139 48q85 0 146 -52t61 -146q0 -86 -52 -137.5t-127 -59.5l-57 90q55 1 85 26.5t30 71.5q0 43 -24.5 67.5t-63.5 24.5q-35 0 -58 -20t-26 -57h-111z" />
    <glyph glyph-name="uni1ECF" unicode="&#x1ecf;" horiz-adv-x="1165" 
d="M582 -20q-102 0 -193 33.5t-165 99t-117.5 173.5t-43.5 246q0 111 28.5 203.5t78 156t116 108t141 65t155.5 20.5q102 0 193.5 -33.5t165.5 -99t117.5 -174t43.5 -246.5t-43.5 -246t-117.5 -173.5t-165.5 -99t-193.5 -33.5zM260 532q0 -186 91.5 -282t230.5 -96t231 96
t92 282t-92 282.5t-231 96.5t-230.5 -96.5t-91.5 -282.5zM395 1366q0 96 58.5 144.5t138.5 48.5q84 0 145.5 -52.5t61.5 -146.5q0 -86 -51.5 -137.5t-126.5 -59.5l-58 90q55 1 85 27t30 72q0 43 -24.5 67.5t-63.5 24.5q-35 0 -58 -20.5t-26 -57.5h-111z" />
    <glyph glyph-name="uni1ED0" unicode="&#x1ed0;" horiz-adv-x="1488" 
d="M745 -20q-145 0 -266.5 50.5t-209 144t-136.5 232.5t-49 310t49 310t136.5 232t209 143t266.5 50q294 0 477 -197t183 -538t-183 -539t-477 -198zM301 717q0 -262 121 -407.5t323 -145.5q201 0 322 145.5t121 407.5t-121 406.5t-322 144.5q-202 0 -323 -144.5
t-121 -406.5zM397 1563l205 270h283l205 -270h-189l-158 211l-157 -211h-189zM997 1761l209 275h185l-209 -275h-185z" />
    <glyph glyph-name="uni1ED1" unicode="&#x1ed1;" horiz-adv-x="1165" 
d="M582 -20q-102 0 -193 33.5t-165 99t-117.5 173.5t-43.5 246q0 111 28.5 203.5t78 156t116 108t141 65t155.5 20.5q102 0 193.5 -33.5t165.5 -99t117.5 -174t43.5 -246.5t-43.5 -246t-117.5 -173.5t-165.5 -99t-193.5 -33.5zM236 1194l204 270h283l205 -270h-189l-157 211
l-158 -211h-188zM260 532q0 -186 91.5 -282t230.5 -96t231 96t92 282t-92 282.5t-231 96.5t-230.5 -96.5t-91.5 -282.5zM836 1393l208 274h185l-209 -274h-184z" />
    <glyph glyph-name="uni1ED2" unicode="&#x1ed2;" horiz-adv-x="1488" 
d="M745 -20q-145 0 -266.5 50.5t-209 144t-136.5 232.5t-49 310t49 310t136.5 232t209 143t266.5 50q294 0 477 -197t183 -538t-183 -539t-477 -198zM301 717q0 -262 121 -407.5t323 -145.5q201 0 322 145.5t121 407.5t-121 406.5t-322 144.5q-202 0 -323 -144.5
t-121 -406.5zM397 1563l205 270h283l205 -270h-189l-158 211l-157 -211h-189zM862 2036h185l190 -275h-182z" />
    <glyph glyph-name="uni1ED3" unicode="&#x1ed3;" horiz-adv-x="1165" 
d="M582 -20q-102 0 -193 33.5t-165 99t-117.5 173.5t-43.5 246q0 111 28.5 203.5t78 156t116 108t141 65t155.5 20.5q102 0 193.5 -33.5t165.5 -99t117.5 -174t43.5 -246.5t-43.5 -246t-117.5 -173.5t-165.5 -99t-193.5 -33.5zM236 1194l204 270h283l205 -270h-189l-157 211
l-158 -211h-188zM260 532q0 -186 91.5 -282t230.5 -96t231 96t92 282t-92 282.5t-231 96.5t-230.5 -96.5t-91.5 -282.5zM700 1667h185l190 -274h-182z" />
    <glyph glyph-name="uni1ED4" unicode="&#x1ed4;" horiz-adv-x="1488" 
d="M745 -20q-145 0 -266.5 50.5t-209 144t-136.5 232.5t-49 310t49 310t136.5 232t209 143t266.5 50q294 0 477 -197t183 -538t-183 -539t-477 -198zM301 717q0 -262 121 -407.5t323 -145.5q201 0 322 145.5t121 407.5t-121 406.5t-322 144.5q-202 0 -323 -144.5
t-121 -406.5zM397 1563l205 270h283l205 -270h-189l-158 211l-157 -211h-189zM817 1999q0 96 58 144t139 48q85 0 146 -52t61 -146q0 -86 -52 -137.5t-127 -59.5l-57 90q55 1 85 27t30 72q0 43 -24.5 67.5t-63.5 24.5q-35 0 -58 -20.5t-26 -57.5h-111z" />
    <glyph glyph-name="uni1ED5" unicode="&#x1ed5;" horiz-adv-x="1165" 
d="M582 -20q-102 0 -193 33.5t-165 99t-117.5 173.5t-43.5 246q0 111 28.5 203.5t78 156t116 108t141 65t155.5 20.5q102 0 193.5 -33.5t165.5 -99t117.5 -174t43.5 -246.5t-43.5 -246t-117.5 -173.5t-165.5 -99t-193.5 -33.5zM236 1194l204 270h283l205 -270h-189l-157 211
l-158 -211h-188zM260 532q0 -186 91.5 -282t230.5 -96t231 96t92 282t-92 282.5t-231 96.5t-230.5 -96.5t-91.5 -282.5zM655 1630q0 96 58.5 144.5t138.5 48.5q84 0 145.5 -52.5t61.5 -146.5q0 -86 -51.5 -137.5t-126.5 -59.5l-58 91q55 1 85 26.5t30 71.5q0 43 -24.5 67.5
t-63.5 24.5q-35 0 -58 -20.5t-26 -57.5h-111z" />
    <glyph glyph-name="uni1ED6" unicode="&#x1ed6;" horiz-adv-x="1488" 
d="M745 -20q-145 0 -266.5 50.5t-209 144t-136.5 232.5t-49 310t49 310t136.5 232t209 143t266.5 50q294 0 477 -197t183 -538t-183 -539t-477 -198zM301 717q0 -262 121 -407.5t323 -145.5q201 0 322 145.5t121 407.5t-121 406.5t-322 144.5q-202 0 -323 -144.5
t-121 -406.5zM397 1563l205 270h283l205 -270h-189l-158 211l-157 -211h-189zM412 1974q0 100 49 154.5t135 54.5q51 0 93 -20.5t66 -45t54.5 -45t60.5 -20.5q35 0 57.5 23.5t22.5 56.5h129q0 -100 -49.5 -154.5t-136.5 -54.5q-51 0 -93 20.5t-65.5 45t-54 45t-59.5 20.5
q-35 0 -58.5 -23.5t-23.5 -56.5h-127z" />
    <glyph glyph-name="uni1ED7" unicode="&#x1ed7;" horiz-adv-x="1165" 
d="M582 -20q-102 0 -193 33.5t-165 99t-117.5 173.5t-43.5 246q0 111 28.5 203.5t78 156t116 108t141 65t155.5 20.5q102 0 193.5 -33.5t165.5 -99t117.5 -174t43.5 -246.5t-43.5 -246t-117.5 -173.5t-165.5 -99t-193.5 -33.5zM236 1194l204 270h283l205 -270h-189l-157 211
l-158 -211h-188zM250 1606q0 100 49 154.5t135 54.5q42 0 77 -13.5t59 -33t45 -39t45 -33t49 -13.5q34 0 56.5 23.5t22.5 56.5h130q0 -100 -50 -154.5t-137 -54.5q-42 0 -77 13.5t-58.5 33t-44.5 39t-44.5 33t-47.5 13.5q-35 0 -58.5 -23.5t-23.5 -56.5h-127zM260 532
q0 -186 91.5 -282t230.5 -96t231 96t92 282t-92 282.5t-231 96.5t-230.5 -96.5t-91.5 -282.5z" />
    <glyph glyph-name="uni1ED8" unicode="&#x1ed8;" horiz-adv-x="1488" 
d="M745 -20q-145 0 -266.5 50.5t-209 144t-136.5 232.5t-49 310t49 310t136.5 232t209 143t266.5 50q294 0 477 -197t183 -538t-183 -539t-477 -198zM301 717q0 -262 121 -407.5t323 -145.5q201 0 322 145.5t121 407.5t-121 406.5t-322 144.5q-202 0 -323 -144.5
t-121 -406.5zM397 1563l205 270h283l205 -270h-189l-158 211l-157 -211h-189zM608 -336q0 56 40 95.5t97 39.5q56 0 96 -40t40 -95q0 -57 -40 -96t-96 -39q-57 0 -97 39t-40 96z" />
    <glyph glyph-name="uni1ED9" unicode="&#x1ed9;" horiz-adv-x="1165" 
d="M582 -20q-102 0 -193 33.5t-165 99t-117.5 173.5t-43.5 246q0 111 28.5 203.5t78 156t116 108t141 65t155.5 20.5q102 0 193.5 -33.5t165.5 -99t117.5 -174t43.5 -246.5t-43.5 -246t-117.5 -173.5t-165.5 -99t-193.5 -33.5zM236 1194l204 270h283l205 -270h-189l-157 211
l-158 -211h-188zM260 532q0 -186 91.5 -282t230.5 -96t231 96t92 282t-92 282.5t-231 96.5t-230.5 -96.5t-91.5 -282.5zM446 -336q0 56 40.5 95.5t97.5 39.5q56 0 95.5 -39.5t39.5 -95.5q0 -57 -39.5 -96t-95.5 -39q-57 0 -97.5 39t-40.5 96z" />
    <glyph glyph-name="uni1EDA" unicode="&#x1eda;" horiz-adv-x="1488" 
d="M745 -20q-145 0 -266.5 50.5t-209 144t-136.5 232.5t-49 310t49 310t136.5 232t209 143t266.5 50h478v162h178v-324h-213q104 -96 160.5 -242t56.5 -331q0 -341 -183 -539t-477 -198zM301 717q0 -262 121 -407.5t323 -145.5q201 0 322 145.5t121 407.5t-121 406.5
t-322 144.5q-202 0 -323 -144.5t-121 -406.5zM637 1559l209 274h184l-209 -274h-184z" />
    <glyph glyph-name="uni1EDB" unicode="&#x1edb;" horiz-adv-x="1165" 
d="M582 -20q-102 0 -193 33.5t-165 99t-117.5 173.5t-43.5 246q0 111 28.5 203.5t78 156t116 108t141 65t155.5 20.5h346v160h168v-319h-129q135 -148 135 -394q0 -138 -43.5 -246t-117.5 -173.5t-165.5 -99t-193.5 -33.5zM260 532q0 -186 91.5 -282t230.5 -96t231 96
t92 282t-92 282.5t-231 96.5t-230.5 -96.5t-91.5 -282.5zM475 1190l209 274h184l-209 -274h-184z" />
    <glyph glyph-name="uni1EDC" unicode="&#x1edc;" horiz-adv-x="1488" 
d="M745 -20q-145 0 -266.5 50.5t-209 144t-136.5 232.5t-49 310t49 310t136.5 232t209 143t266.5 50h478v162h178v-324h-213q104 -96 160.5 -242t56.5 -331q0 -341 -183 -539t-477 -198zM301 717q0 -262 121 -407.5t323 -145.5q201 0 322 145.5t121 407.5t-121 406.5
t-322 144.5q-202 0 -323 -144.5t-121 -406.5zM449 1833h184l209 -274h-185z" />
    <glyph glyph-name="uni1EDD" unicode="&#x1edd;" horiz-adv-x="1165" 
d="M582 -20q-102 0 -193 33.5t-165 99t-117.5 173.5t-43.5 246q0 111 28.5 203.5t78 156t116 108t141 65t155.5 20.5h346v160h168v-319h-129q135 -148 135 -394q0 -138 -43.5 -246t-117.5 -173.5t-165.5 -99t-193.5 -33.5zM260 532q0 -186 91.5 -282t230.5 -96t231 96
t92 282t-92 282.5t-231 96.5t-230.5 -96.5t-91.5 -282.5zM287 1464h184l209 -274h-184z" />
    <glyph glyph-name="uni1EDE" unicode="&#x1ede;" horiz-adv-x="1488" 
d="M745 -20q-145 0 -266.5 50.5t-209 144t-136.5 232.5t-49 310t49 310t136.5 232t209 143t266.5 50h478v162h178v-324h-213q104 -96 160.5 -242t56.5 -331q0 -341 -183 -539t-477 -198zM301 717q0 -262 121 -407.5t323 -145.5q201 0 322 145.5t121 407.5t-121 406.5
t-322 144.5q-202 0 -323 -144.5t-121 -406.5zM559 1735q0 96 58 144t139 48q85 0 146 -52t61 -146q0 -86 -52 -137.5t-127 -59.5l-57 90q55 1 85 26.5t30 71.5q0 43 -24.5 67.5t-63.5 24.5q-35 0 -58 -20t-26 -57h-111z" />
    <glyph glyph-name="uni1EDF" unicode="&#x1edf;" horiz-adv-x="1165" 
d="M582 -20q-102 0 -193 33.5t-165 99t-117.5 173.5t-43.5 246q0 111 28.5 203.5t78 156t116 108t141 65t155.5 20.5h346v160h168v-319h-129q135 -148 135 -394q0 -138 -43.5 -246t-117.5 -173.5t-165.5 -99t-193.5 -33.5zM260 532q0 -186 91.5 -282t230.5 -96t231 96
t92 282t-92 282.5t-231 96.5t-230.5 -96.5t-91.5 -282.5zM395 1366q0 96 58.5 144.5t138.5 48.5q84 0 145.5 -52.5t61.5 -146.5q0 -86 -51.5 -137.5t-126.5 -59.5l-58 90q55 1 85 27t30 72q0 43 -24.5 67.5t-63.5 24.5q-35 0 -58 -20.5t-26 -57.5h-111z" />
    <glyph glyph-name="uni1EE0" unicode="&#x1ee0;" horiz-adv-x="1488" 
d="M745 -20q-145 0 -266.5 50.5t-209 144t-136.5 232.5t-49 310t49 310t136.5 232t209 143t266.5 50h478v162h178v-324h-213q104 -96 160.5 -242t56.5 -331q0 -341 -183 -539t-477 -198zM301 717q0 -262 121 -407.5t323 -145.5q201 0 322 145.5t121 407.5t-121 406.5
t-322 144.5q-202 0 -323 -144.5t-121 -406.5zM412 1647q0 100 49 154t135 54q51 0 93 -20.5t66 -45t54.5 -45t60.5 -20.5q35 0 57.5 23.5t22.5 56.5h129q0 -100 -49.5 -154.5t-136.5 -54.5q-51 0 -93 20.5t-65.5 45t-54 45t-59.5 20.5q-35 0 -58.5 -23t-23.5 -56h-127z" />
    <glyph glyph-name="uni1EE1" unicode="&#x1ee1;" horiz-adv-x="1165" 
d="M582 -20q-102 0 -193 33.5t-165 99t-117.5 173.5t-43.5 246q0 111 28.5 203.5t78 156t116 108t141 65t155.5 20.5h346v160h168v-319h-129q135 -148 135 -394q0 -138 -43.5 -246t-117.5 -173.5t-165.5 -99t-193.5 -33.5zM250 1278q0 100 49 154.5t135 54.5q42 0 77 -13.5
t59 -32.5t45 -38.5t45 -33t49 -13.5q34 0 56.5 23.5t22.5 56.5h130q0 -100 -50 -154.5t-137 -54.5q-51 0 -93 20.5t-65.5 45t-54 45t-59.5 20.5q-35 0 -58.5 -23.5t-23.5 -56.5h-127zM260 532q0 -186 91.5 -282t230.5 -96t231 96t92 282t-92 282.5t-231 96.5t-230.5 -96.5
t-91.5 -282.5z" />
    <glyph glyph-name="uni1EE2" unicode="&#x1ee2;" horiz-adv-x="1488" 
d="M745 -20q-145 0 -266.5 50.5t-209 144t-136.5 232.5t-49 310t49 310t136.5 232t209 143t266.5 50h478v162h178v-324h-213q104 -96 160.5 -242t56.5 -331q0 -341 -183 -539t-477 -198zM301 717q0 -262 121 -407.5t323 -145.5q201 0 322 145.5t121 407.5t-121 406.5
t-322 144.5q-202 0 -323 -144.5t-121 -406.5zM608 -336q0 56 40 95.5t97 39.5q56 0 96 -40t40 -95q0 -57 -40 -96t-96 -39q-57 0 -97 39t-40 96z" />
    <glyph glyph-name="uni1EE3" unicode="&#x1ee3;" horiz-adv-x="1165" 
d="M582 -20q-102 0 -193 33.5t-165 99t-117.5 173.5t-43.5 246q0 111 28.5 203.5t78 156t116 108t141 65t155.5 20.5h346v160h168v-319h-129q135 -148 135 -394q0 -138 -43.5 -246t-117.5 -173.5t-165.5 -99t-193.5 -33.5zM260 532q0 -186 91.5 -282t230.5 -96t231 96
t92 282t-92 282.5t-231 96.5t-230.5 -96.5t-91.5 -282.5zM446 -336q0 56 40.5 95.5t97.5 39.5q56 0 95.5 -39.5t39.5 -95.5q0 -57 -39.5 -96t-95.5 -39q-57 0 -97.5 39t-40.5 96z" />
    <glyph glyph-name="uni1EE4" unicode="&#x1ee4;" horiz-adv-x="1355" 
d="M678 -20q-262 0 -412.5 145.5t-150.5 417.5v891h213v-877q0 -189 92 -290t258 -101t258 101t92 290v877h215v-891q0 -271 -152 -417t-413 -146zM543 -336q0 56 40 95.5t97 39.5q56 0 95.5 -39.5t39.5 -95.5q0 -57 -39.5 -96t-95.5 -39q-57 0 -97 39t-40 96z" />
    <glyph glyph-name="uni1EE5" unicode="&#x1ee5;" 
d="M322 449q0 -144 62 -219.5t187 -75.5q129 0 207 77.5t78 217.5v616h207v-1065h-207v213h-6q-8 -34 -31.5 -71t-64 -75t-109.5 -62.5t-153 -24.5q-81 0 -147.5 24t-119 73t-81.5 131.5t-29 192.5v664h207v-616zM459 -336q0 56 40 95.5t97 39.5q56 0 95.5 -39.5t39.5 -95.5
q0 -57 -39.5 -96t-95.5 -39q-57 0 -97 39t-40 96z" />
    <glyph glyph-name="uni1EE6" unicode="&#x1ee6;" horiz-adv-x="1355" 
d="M678 -20q-262 0 -412.5 145.5t-150.5 417.5v891h213v-877q0 -189 92 -290t258 -101t258 101t92 290v877h215v-891q0 -271 -152 -417t-413 -146zM479 1735q0 96 58 144t139 48q85 0 146 -52t61 -146q0 -86 -51.5 -137.5t-126.5 -59.5l-58 90q55 1 85 26.5t30 71.5
q0 43 -24.5 67.5t-63.5 24.5q-35 0 -58 -20t-26 -57h-111z" />
    <glyph glyph-name="uni1EE7" unicode="&#x1ee7;" 
d="M322 449q0 -144 62 -219.5t187 -75.5q129 0 207 77.5t78 217.5v616h207v-1065h-207v213h-6q-8 -34 -31.5 -71t-64 -75t-109.5 -62.5t-153 -24.5q-81 0 -147.5 24t-119 73t-81.5 131.5t-29 192.5v664h207v-616zM395 1366q0 96 58.5 144.5t138.5 48.5q84 0 145.5 -52.5
t61.5 -146.5q0 -86 -51.5 -137.5t-126.5 -59.5l-58 90q55 1 85 27t30 72q0 43 -24.5 67.5t-63.5 24.5q-35 0 -58 -20.5t-26 -57.5h-111z" />
    <glyph glyph-name="uni1EE8" unicode="&#x1ee8;" horiz-adv-x="1355" 
d="M678 -20q-262 0 -412.5 145.5t-150.5 417.5v891h213v-877q0 -189 92 -290t258 -101t258 101t92 290v877h250v180h178v-344h-213v-727q0 -271 -152 -417t-413 -146zM571 1559l209 274h185l-209 -274h-185z" />
    <glyph glyph-name="uni1EE9" unicode="&#x1ee9;" 
d="M322 449q0 -144 62 -219.5t187 -75.5q129 0 207 77.5t78 217.5v616h250v180h178v-344h-221v-901h-207v213h-6q-8 -34 -31.5 -71t-64 -75t-109.5 -62.5t-153 -24.5q-81 0 -147.5 24t-119 73t-81.5 131.5t-29 192.5v664h207v-616zM481 1190l209 274h184l-208 -274h-185z
" />
    <glyph glyph-name="uni1EEA" unicode="&#x1eea;" horiz-adv-x="1355" 
d="M678 -20q-262 0 -412.5 145.5t-150.5 417.5v891h213v-877q0 -189 92 -290t258 -101t258 101t92 290v877h250v180h178v-344h-213v-727q0 -271 -152 -417t-413 -146zM383 1833h184l209 -274h-184z" />
    <glyph glyph-name="uni1EEB" unicode="&#x1eeb;" 
d="M322 449q0 -144 62 -219.5t187 -75.5q129 0 207 77.5t78 217.5v616h250v180h178v-344h-221v-901h-207v213h-6q-8 -34 -31.5 -71t-64 -75t-109.5 -62.5t-153 -24.5q-81 0 -147.5 24t-119 73t-81.5 131.5t-29 192.5v664h207v-616zM293 1464h184l209 -274h-184z" />
    <glyph glyph-name="uni1EEC" unicode="&#x1eec;" horiz-adv-x="1355" 
d="M678 -20q-262 0 -412.5 145.5t-150.5 417.5v891h213v-877q0 -189 92 -290t258 -101t258 101t92 290v877h250v180h178v-344h-213v-727q0 -271 -152 -417t-413 -146zM492 1735q0 96 57.5 144t138.5 48q85 0 146 -52t61 -146q0 -86 -51.5 -137.5t-126.5 -59.5l-58 90
q55 1 85 26.5t30 71.5q0 43 -24.5 67.5t-63.5 24.5q-35 0 -58 -20t-26 -57h-110z" />
    <glyph glyph-name="uni1EED" unicode="&#x1eed;" 
d="M322 449q0 -144 62 -219.5t187 -75.5q129 0 207 77.5t78 217.5v616h250v180h178v-344h-221v-901h-207v213h-6q-8 -34 -31.5 -71t-64 -75t-109.5 -62.5t-153 -24.5q-81 0 -147.5 24t-119 73t-81.5 131.5t-29 192.5v664h207v-616zM403 1366q0 96 58.5 144.5t138.5 48.5
q84 0 145.5 -52.5t61.5 -146.5q0 -86 -51.5 -137.5t-126.5 -59.5l-58 90q55 1 85 27t30 72q0 43 -24.5 67.5t-63.5 24.5q-35 0 -58 -20.5t-26 -57.5h-111z" />
    <glyph glyph-name="uni1EEE" unicode="&#x1eee;" horiz-adv-x="1355" 
d="M678 -20q-262 0 -412.5 145.5t-150.5 417.5v891h213v-877q0 -189 92 -290t258 -101t258 101t92 290v877h250v180h178v-344h-213v-727q0 -271 -152 -417t-413 -146zM344 1647q0 100 49 154t135 54q42 0 77 -13.5t59 -32.5t45 -38.5t45 -33t49 -13.5q35 0 57.5 23.5
t22.5 56.5h129q0 -100 -50 -154.5t-137 -54.5q-51 0 -93 20.5t-65.5 45t-54 45t-59.5 20.5q-35 0 -58.5 -23t-23.5 -56h-127z" />
    <glyph glyph-name="uni1EEF" unicode="&#x1eef;" 
d="M322 449q0 -144 62 -219.5t187 -75.5q129 0 207 77.5t78 217.5v616h250v180h178v-344h-221v-901h-207v213h-6q-8 -34 -31.5 -71t-64 -75t-109.5 -62.5t-153 -24.5q-81 0 -147.5 24t-119 73t-81.5 131.5t-29 192.5v664h207v-616zM256 1278q0 100 49 154.5t135 54.5
q42 0 77 -13.5t59 -32.5t45 -38.5t45 -33t49 -13.5q35 0 57.5 23.5t22.5 56.5h129q0 -100 -50 -154.5t-137 -54.5q-51 0 -93 20.5t-65.5 45t-54 45t-59.5 20.5q-35 0 -58.5 -23.5t-23.5 -56.5h-127z" />
    <glyph glyph-name="uni1EF0" unicode="&#x1ef0;" horiz-adv-x="1355" 
d="M678 -20q-262 0 -412.5 145.5t-150.5 417.5v891h213v-877q0 -189 92 -290t258 -101t258 101t92 290v877h250v180h178v-344h-213v-727q0 -271 -152 -417t-413 -146zM543 -336q0 56 40 95.5t97 39.5q56 0 95.5 -39.5t39.5 -95.5q0 -57 -39.5 -96t-95.5 -39q-57 0 -97 39
t-40 96z" />
    <glyph glyph-name="uni1EF1" unicode="&#x1ef1;" 
d="M322 449q0 -144 62 -219.5t187 -75.5q129 0 207 77.5t78 217.5v616h250v180h178v-344h-221v-901h-207v213h-6q-8 -34 -31.5 -71t-64 -75t-109.5 -62.5t-153 -24.5q-81 0 -147.5 24t-119 73t-81.5 131.5t-29 192.5v664h207v-616zM453 -336q0 56 40 95.5t97 39.5
q56 0 95.5 -39.5t39.5 -95.5q0 -57 -39.5 -96t-95.5 -39q-57 0 -97 39t-40 96z" />
    <glyph glyph-name="Ygrave" unicode="&#x1ef2;" horiz-adv-x="1370" 
d="M575 0v549l-522 885h240l391 -678l393 678h240l-522 -885v-549h-220zM410 1833h184l209 -274h-185z" />
    <glyph glyph-name="ygrave" unicode="&#x1ef3;" horiz-adv-x="1124" 
d="M152 -221q52 -9 93.5 -4t71.5 15.5t53.5 32t39 45.5t28.5 56q17 42 17.5 74t-13.5 68l-399 999h213l305 -813l307 813h213l-450 -1126q-83 -206 -192 -283t-287 -55v178zM289 1464h184l209 -274h-184z" />
    <glyph glyph-name="uni1EF4" unicode="&#x1ef4;" horiz-adv-x="1370" 
d="M575 0v549l-522 885h240l391 -678l393 678h240l-522 -885v-549h-220zM549 -336q0 56 40 95.5t97 39.5q56 0 95.5 -39.5t39.5 -95.5q0 -57 -39.5 -96t-95.5 -39q-57 0 -97 39t-40 96z" />
    <glyph glyph-name="uni1EF5" unicode="&#x1ef5;" horiz-adv-x="1124" 
d="M152 -221q52 -9 93.5 -4t71.5 15.5t53.5 32t39 45.5t28.5 56q17 42 17.5 74t-13.5 68l-399 999h213l305 -813l307 813h213l-450 -1126q-83 -206 -192 -283t-287 -55v178zM678 -336q0 56 40 95.5t97 39.5q55 0 95 -39.5t40 -95.5q0 -57 -39.5 -96t-95.5 -39q-57 0 -97 39
t-40 96z" />
    <glyph glyph-name="uni1EF6" unicode="&#x1ef6;" horiz-adv-x="1370" 
d="M575 0v549l-522 885h240l391 -678l393 678h240l-522 -885v-549h-220zM500 1735q0 96 57.5 144t138.5 48q85 0 146 -52t61 -146q0 -86 -51.5 -137.5t-126.5 -59.5l-57 90q55 1 84.5 26.5t29.5 71.5q0 43 -24.5 67.5t-63.5 24.5q-35 0 -58 -20t-26 -57h-110z" />
    <glyph glyph-name="uni1EF7" unicode="&#x1ef7;" horiz-adv-x="1124" 
d="M152 -221q52 -9 93.5 -4t71.5 15.5t53.5 32t39 45.5t28.5 56q17 42 17.5 74t-13.5 68l-399 999h213l305 -813l307 813h213l-450 -1126q-83 -206 -192 -283t-287 -55v178zM377 1366q0 96 58 144.5t138 48.5q84 0 145.5 -52.5t61.5 -146.5q0 -86 -51.5 -137.5t-126.5 -59.5
l-57 90q55 1 84.5 27t29.5 72q0 43 -24.5 67.5t-63.5 24.5q-35 0 -58 -20.5t-26 -57.5h-110z" />
    <glyph glyph-name="uni1EF8" unicode="&#x1ef8;" horiz-adv-x="1370" 
d="M575 0v549l-522 885h240l391 -678l393 678h240l-522 -885v-549h-220zM352 1647q0 100 49.5 154t135.5 54q51 0 93 -20.5t66 -45t54.5 -45t60.5 -20.5q35 0 57.5 23.5t22.5 56.5h129q0 -100 -49.5 -154.5t-136.5 -54.5q-42 0 -77 13.5t-58.5 32.5t-45 38.5t-45 33
t-47.5 13.5q-35 0 -58.5 -23t-23.5 -56h-127z" />
    <glyph glyph-name="uni1EF9" unicode="&#x1ef9;" horiz-adv-x="1124" 
d="M152 -221q52 -9 93.5 -4t71.5 15.5t53.5 32t39 45.5t28.5 56q17 42 17.5 74t-13.5 68l-399 999h213l305 -813l307 813h213l-450 -1126q-83 -206 -192 -283t-287 -55v178zM231 1278q0 100 49.5 154.5t135.5 54.5q51 0 93 -20.5t66 -45t54.5 -45t60.5 -20.5q35 0 57.5 23.5
t22.5 56.5h129q0 -100 -49.5 -154.5t-136.5 -54.5q-42 0 -77 13.5t-58.5 32.5t-45 38.5t-45 33t-47.5 13.5q-35 0 -58.5 -23.5t-23.5 -56.5h-127z" />
    <glyph glyph-name="endash" unicode="&#x2013;" horiz-adv-x="1228" 
d="M92 492v157h1045v-157h-1045z" />
    <glyph glyph-name="emdash" unicode="&#x2014;" horiz-adv-x="1351" 
d="M92 492v157h1168v-157h-1168z" />
    <glyph glyph-name="quoteleft" unicode="&#x2018;" horiz-adv-x="446" 
d="M330 1354q-70 -3 -100.5 -33t-30.5 -90q76 0 119.5 -38.5t43.5 -98.5q0 -56 -37.5 -92.5t-97.5 -36.5q-68 0 -110.5 52.5t-42.5 156.5q0 127 65.5 199.5t173.5 72.5h17v-92z" />
    <glyph glyph-name="quoteright" unicode="&#x2019;" horiz-adv-x="446" 
d="M117 1063q70 3 100.5 33t30.5 90q-76 0 -120 38.5t-44 98.5q0 56 37.5 92.5t95.5 36.5q69 0 112.5 -52.5t43.5 -156.5q0 -127 -66 -199.5t-174 -72.5h-16v92z" />
    <glyph glyph-name="quotesinglbase" unicode="&#x201a;" horiz-adv-x="456" 
d="M117 -139q70 3 100.5 33t30.5 90q-76 0 -120 38.5t-44 98.5q0 56 37.5 92.5t95.5 36.5q69 0 112.5 -52.5t43.5 -156.5q0 -127 -66 -199.5t-174 -72.5h-16v92z" />
    <glyph glyph-name="quotedblleft" unicode="&#x201c;" horiz-adv-x="811" 
d="M330 1354q-70 -3 -100.5 -33t-30.5 -90q76 0 119.5 -38.5t43.5 -98.5q0 -56 -37.5 -92.5t-97.5 -36.5q-68 0 -110.5 52.5t-42.5 156.5q0 127 65.5 199.5t173.5 72.5h17v-92zM438 1174q0 127 66 199.5t174 72.5h16v-92q-70 -3 -100.5 -33t-30.5 -90q76 0 120 -38.5
t44 -98.5q0 -56 -37.5 -92.5t-95.5 -36.5q-69 0 -112.5 52.5t-43.5 156.5z" />
    <glyph glyph-name="quotedblright" unicode="&#x201d;" horiz-adv-x="811" 
d="M117 1063q70 3 100.5 33t30.5 90q-76 0 -120 38.5t-44 98.5q0 56 37.5 92.5t95.5 36.5q69 0 112.5 -52.5t43.5 -156.5q0 -127 -66 -199.5t-174 -72.5h-16v92zM449 1323q0 56 37.5 92.5t95.5 36.5q69 0 112 -52.5t43 -156.5q0 -127 -65.5 -199.5t-173.5 -72.5h-17v92
q70 3 100.5 33t30.5 90q-76 0 -119.5 38.5t-43.5 98.5z" />
    <glyph glyph-name="quotedblbase" unicode="&#x201e;" horiz-adv-x="821" 
d="M481 -158q70 3 100.5 33t30.5 90q-76 0 -119.5 38.5t-43.5 98.5q0 56 37.5 92.5t95.5 36.5q69 0 112 -52t43 -156q0 -127 -66 -200t-173 -73h-17v92zM84 102q0 56 37.5 92.5t95.5 36.5q69 0 112.5 -52t43.5 -156q0 -127 -66 -200t-174 -73h-16v92q70 3 100.5 33t30.5 90
q-76 0 -120 38.5t-44 98.5z" />
    <glyph glyph-name="dagger" unicode="&#x2020;" horiz-adv-x="751" 
d="M293 494v516h-191v157h191v267h168v-267h188v-157h-188v-516h-168z" />
    <glyph glyph-name="daggerdbl" unicode="&#x2021;" horiz-adv-x="751" 
d="M293 0v299h-191v158h191v520h-191v158h191v299h168v-299h188v-158h-188v-520h188v-158h-188v-299h-168z" />
    <glyph glyph-name="bullet" unicode="&#x2022;" horiz-adv-x="546" 
d="M274 369q-72 0 -122 50.5t-50 121.5q0 69 50 119.5t122 50.5q69 0 119.5 -50.5t50.5 -119.5q0 -70 -50.5 -121t-119.5 -51z" />
    <glyph glyph-name="ellipsis" unicode="&#x2026;" horiz-adv-x="1349" 
d="M674 -20q-56 0 -95.5 39t-39.5 96q0 55 39.5 95t95.5 40q57 0 97 -39.5t40 -95.5q0 -57 -40 -96t-97 -39zM84 115q0 55 40 95t95 40q57 0 97 -39.5t40 -95.5q0 -57 -40 -96t-97 -39q-56 0 -95.5 39t-39.5 96zM993 115q0 55 39.5 95t95.5 40q57 0 97.5 -39.5t40.5 -95.5
q0 -57 -40.5 -96t-97.5 -39q-56 0 -95.5 39t-39.5 96z" />
    <glyph glyph-name="perthousand" unicode="&#x2030;" horiz-adv-x="2177" 
d="M1808 -18q-127 0 -206.5 83.5t-79.5 237.5q0 149 80 233.5t206 84.5q124 0 204.5 -84.5t80.5 -233.5q0 -154 -80 -237.5t-205 -83.5zM84 1133q0 149 80.5 233t204.5 84t204 -84t80 -233q0 -153 -79.5 -236.5t-204.5 -83.5q-126 0 -205.5 83.5t-79.5 236.5zM141 365
l1129 823l88 -121l-1129 -823zM236 1133q0 -90 37.5 -134.5t95.5 -44.5t95.5 44.5t37.5 134.5t-37 133t-96 43t-96 -43t-37 -133zM846 303q0 149 80 233.5t204 84.5t204.5 -84.5t80.5 -233.5q0 -154 -80 -237.5t-205 -83.5t-204.5 83.5t-79.5 237.5zM997 303
q0 -91 37 -134.5t96 -43.5t96.5 43.5t37.5 134.5q0 88 -37.5 131t-96.5 43t-96 -43t-37 -131zM1675 303q0 -92 36.5 -135t96.5 -43q59 0 96.5 43.5t37.5 134.5q0 88 -37.5 131t-96.5 43q-60 0 -96.5 -42.5t-36.5 -131.5z" />
    <glyph glyph-name="guilsinglleft" unicode="&#x2039;" horiz-adv-x="483" 
d="M401 262l-319 266v162l319 271v-193l-186 -156l186 -157v-193z" />
    <glyph glyph-name="guilsinglright" unicode="&#x203a;" horiz-adv-x="462" 
d="M72 262v193l186 157l-186 156v193l319 -271v-162z" />
    <glyph glyph-name="fraction" unicode="&#x2044;" horiz-adv-x="311" 
d="M-346 0l895 1434h108l-893 -1434h-110z" />
    <glyph glyph-name="Euro" unicode="&#x20ac;" horiz-adv-x="1464" 
d="M72 750v110h112q36 284 209 438t441 154q232 0 385.5 -118t183.5 -345h-209q-33 137 -129.5 208t-237.5 71q-174 0 -284.5 -107t-141.5 -301h357v-110h-367v-33q0 -53 2 -78h365v-111h-348q37 -173 145 -268.5t272 -95.5q141 0 237.5 71t129.5 209h209
q-30 -229 -184.5 -346.5t-387.5 -117.5q-255 0 -424.5 142t-216.5 406h-118v111h106q-2 25 -2 78v33h-104z" />
    <glyph glyph-name="trademark" unicode="&#x2122;" horiz-adv-x="1028" 
d="M500 1065v369h96l127 -287l125 287h98v-369h-92v213l-92 -213h-78l-92 213v-213h-92zM82 1356v78h348v-78h-129v-291h-92v291h-127z" />
    <glyph glyph-name="partialdiff" unicode="&#x2202;" horiz-adv-x="1210" 
d="M598 -20q-98 0 -187 31t-160.5 90t-114 155.5t-42.5 218.5q0 118 38.5 211t104 150.5t147.5 87.5t175 30q122 0 218 -50t155 -136q-1 77 -9.5 143.5t-32 138t-60 121.5t-99 82.5t-143.5 32.5q-113 0 -186 -58t-83 -157h-182q0 70 27.5 136.5t80.5 122t141.5 89
t199.5 33.5q119 0 212.5 -40t154 -108t100.5 -164.5t56.5 -203t16.5 -229.5q0 -188 -39 -329t-110.5 -227t-166 -128.5t-212.5 -42.5zM291 477q0 -151 87 -239t220 -88q132 0 219.5 88t87.5 239q0 149 -87 233.5t-220 84.5q-134 0 -220.5 -84.5t-86.5 -233.5z" />
    <glyph glyph-name="product" unicode="&#x220f;" horiz-adv-x="1431" 
d="M92 -389v2027h1247v-2027h-196v1839h-854v-1839h-197z" />
    <glyph glyph-name="summation" unicode="&#x2211;" horiz-adv-x="1380" 
d="M92 -389l563 1014l-563 1013h1196v-188h-864l457 -825l-457 -826h864v-188h-1196z" />
    <glyph glyph-name="minus" unicode="&#x2212;" horiz-adv-x="862" 
d="M115 449v157h633v-157h-633z" />
    <glyph glyph-name="radical" unicode="&#x221a;" horiz-adv-x="1566" 
d="M694 -389l-366 919h-236v220h373l334 -865l473 1753h203l-549 -2027h-232z" />
    <glyph glyph-name="infinity" unicode="&#x221e;" horiz-adv-x="1669" 
d="M434 186q-146 0 -248 98.5t-102 252.5q0 153 101.5 248.5t248.5 95.5q201 0 400 -217q199 217 401 217q147 0 248.5 -95.5t101.5 -248.5q0 -154 -102 -252.5t-248 -98.5q-203 0 -401 220q-198 -220 -400 -220zM266 537q0 -79 52.5 -134t136.5 -55q77 0 143.5 50
t130.5 139q-136 186 -274 186q-84 0 -136.5 -53.5t-52.5 -132.5zM940 537q64 -90 129.5 -139.5t144.5 -49.5q84 0 136.5 55t52.5 134t-52.5 132.5t-136.5 53.5q-79 0 -144.5 -49t-129.5 -137z" />
    <glyph glyph-name="integral" unicode="&#x222b;" horiz-adv-x="620" 
d="M43 -211q85 0 122.5 51.5t37.5 157.5v1089q0 183 86 266t280 83v-179q-83 0 -121 -49.5t-38 -158.5v-1090q0 -189 -90 -268.5t-277 -79.5v178z" />
    <glyph glyph-name="approxequal" unicode="&#x2248;" horiz-adv-x="1105" 
d="M764 244q-51 0 -99 19t-85 46.5t-72.5 55t-75 46.5t-78.5 19q-54 0 -83 -32t-29 -76h-127q-4 105 60.5 170t164.5 65q51 0 99 -19t85 -46t72.5 -54t75 -46t78.5 -19q55 0 84.5 31.5t29.5 76.5h127q3 -106 -61.5 -171.5t-165.5 -65.5zM115 649q-4 105 60.5 170.5
t164.5 65.5q51 0 99 -19t85 -46.5t72.5 -54.5t75 -46t78.5 -19q55 0 84.5 32t29.5 77h127q3 -106 -61.5 -172t-165.5 -66q-51 0 -99 19.5t-85 46.5t-72.5 54.5t-75 47t-78.5 19.5q-53 0 -82.5 -32.5t-29.5 -76.5h-127z" />
    <glyph glyph-name="notequal" unicode="&#x2260;" horiz-adv-x="862" 
d="M139 0l129 328h-153v157h217l67 170h-284v158h346l133 336h131l-133 -336h156v-158h-220l-67 -170h287v-157h-349l-131 -328h-129z" />
    <glyph glyph-name="lessequal" unicode="&#x2264;" horiz-adv-x="907" 
d="M805 322l-703 362v170l703 363v-179l-549 -270l549 -268v-178zM102 0v160h703v-160h-703z" />
    <glyph glyph-name="greaterequal" unicode="&#x2265;" horiz-adv-x="909" 
d="M104 322v178l549 268l-549 270v179l703 -363v-170zM104 0v160h703v-160h-703z" />
    <glyph glyph-name="lozenge" unicode="&#x25ca;" horiz-adv-x="1103" 
d="M410 0l-318 717l318 717h284l318 -717l-318 -717h-284zM303 717l250 -561l248 561l-248 561z" />
    <glyph glyph-name="uniA78B" unicode="&#xa78b;" horiz-adv-x="440" 
d="M115 492v942h213v-942h-213z" />
    <glyph glyph-name="uniA78C" unicode="&#xa78c;" horiz-adv-x="436" 
d="M115 610v824h207v-824h-207z" />
    <glyph glyph-name="uni004A0301" horiz-adv-x="1343" 
d="M670 -20q-258 0 -406.5 144t-148.5 413h213q0 -179 91 -275t253 -96q164 0 255 99.5t91 291.5v877h213v-893q0 -270 -150.5 -415.5t-410.5 -145.5zM1020 1559l209 274h184l-209 -274h-184z" />
    <glyph glyph-name="G.ss01" horiz-adv-x="1429" 
d="M709 -20q-136 0 -250 48.5t-197.5 140t-130.5 232t-47 316.5t49 316.5t138 231.5t210 139t267 48q219 0 367 -105t190 -309h-218q-75 230 -337 230q-212 0 -330.5 -143.5t-118.5 -407.5q0 -259 122.5 -405t328.5 -148q171 -2 277 96.5t106 261.5v58h-342v172h542v-752
h-198v205q-135 -225 -428 -225z" />
    <glyph glyph-name="R.ss01" horiz-adv-x="1300" 
d="M985 0q-20 41 -20 160v178q0 227 -263 227h-374v-565h-213v1434h571q247 0 371.5 -111t124.5 -299q0 -134 -62.5 -225t-175.5 -133q122 -36 177 -116t55 -212v-178q0 -119 20 -160h-211zM328 737h348q142 0 215.5 66.5t73.5 193.5q0 250 -289 250h-348v-510z" />
    <glyph glyph-name="G.ss05" horiz-adv-x="1429" 
d="M709 -20q-136 0 -250 48.5t-197.5 140t-130.5 232t-47 316.5t49 316.5t138 231.5t210 139t267 48q219 0 367 -105t190 -309h-218q-75 230 -337 230q-212 0 -330.5 -143.5t-118.5 -407.5q0 -259 122.5 -405t328.5 -148q171 -2 277 96.5t106 261.5v58h-342v172h542v-752
h-198v205q-135 -225 -428 -225z" />
    <glyph glyph-name="i.loclTRK" horiz-adv-x="397" 
d="M94 0v1065h207v-1065h-207zM78 1370q0 50 36.5 85.5t86.5 35.5t86.5 -35.5t36.5 -85.5t-36.5 -85.5t-86.5 -35.5t-86.5 35.5t-36.5 85.5z" />
    <glyph glyph-name="uni006A0301" horiz-adv-x="448" 
d="M53 -389q-86 0 -133 6v162h80q80 0 113.5 35.5t33.5 115.5v1135h207v-1169q0 -285 -301 -285zM152 1190l208 274h185l-209 -274h-184z" />
    <glyph glyph-name="a.ss01" horiz-adv-x="1216" 
d="M539 -20q-93 0 -176 33t-151.5 98t-108.5 173.5t-40 247.5q0 113 26.5 206t72 156.5t106.5 107t129 63.5t142 20q117 0 213 -50.5t143 -137.5v168h207v-1065h-207v168q-47 -87 -143 -137.5t-213 -50.5zM260 532q0 -93 26.5 -167t72.5 -118.5t102.5 -67.5t120.5 -23
q63 0 120 23t103 67.5t73 118.5t27 167t-27 167t-73 119t-103 68t-120 23q-64 0 -120.5 -23t-102.5 -68t-72.5 -119t-26.5 -167z" />
    <glyph glyph-name="aacute.ss01" horiz-adv-x="1216" 
d="M539 -20q-93 0 -176 33t-151.5 98t-108.5 173.5t-40 247.5q0 113 26.5 206t72 156.5t106.5 107t129 63.5t142 20q117 0 213 -50.5t143 -137.5v168h207v-1065h-207v168q-47 -87 -143 -137.5t-213 -50.5zM260 532q0 -93 26.5 -167t72.5 -118.5t102.5 -67.5t120.5 -23
q63 0 120 23t103 67.5t73 118.5t27 167t-27 167t-73 119t-103 68t-120 23q-64 0 -120.5 -23t-102.5 -68t-72.5 -119t-26.5 -167zM514 1190l209 274h184l-209 -274h-184z" />
    <glyph glyph-name="abreve.ss01" horiz-adv-x="1216" 
d="M539 -20q-93 0 -176 33t-151.5 98t-108.5 173.5t-40 247.5q0 113 26.5 206t72 156.5t106.5 107t129 63.5t142 20q117 0 213 -50.5t143 -137.5v168h207v-1065h-207v168q-47 -87 -143 -137.5t-213 -50.5zM260 532q0 -93 26.5 -167t72.5 -118.5t102.5 -67.5t120.5 -23
q63 0 120 23t103 67.5t73 118.5t27 167t-27 167t-73 119t-103 68t-120 23q-64 0 -120.5 -23t-102.5 -68t-72.5 -119t-26.5 -167zM311 1464h140q6 -153 161 -153q156 0 162 153h139q0 -125 -75.5 -201.5t-225.5 -76.5t-225.5 76.5t-75.5 201.5z" />
    <glyph glyph-name="uni01CE.ss01" horiz-adv-x="1216" 
d="M539 -20q-93 0 -176 33t-151.5 98t-108.5 173.5t-40 247.5q0 113 26.5 206t72 156.5t106.5 107t129 63.5t142 20q117 0 213 -50.5t143 -137.5v168h207v-1065h-207v168q-47 -87 -143 -137.5t-213 -50.5zM254 1462h188l158 -211l158 211h188l-205 -270h-282zM260 532
q0 -93 26.5 -167t72.5 -118.5t102.5 -67.5t120.5 -23q63 0 120 23t103 67.5t73 118.5t27 167t-27 167t-73 119t-103 68t-120 23q-64 0 -120.5 -23t-102.5 -68t-72.5 -119t-26.5 -167z" />
    <glyph glyph-name="acircumflex.ss01" horiz-adv-x="1216" 
d="M539 -20q-93 0 -176 33t-151.5 98t-108.5 173.5t-40 247.5q0 113 26.5 206t72 156.5t106.5 107t129 63.5t142 20q117 0 213 -50.5t143 -137.5v168h207v-1065h-207v168q-47 -87 -143 -137.5t-213 -50.5zM260 532q0 -93 26.5 -167t72.5 -118.5t102.5 -67.5t120.5 -23
q63 0 120 23t103 67.5t73 118.5t27 167t-27 167t-73 119t-103 68t-120 23q-64 0 -120.5 -23t-102.5 -68t-72.5 -119t-26.5 -167zM264 1194l205 270h283l204 -270h-188l-158 211l-157 -211h-189z" />
    <glyph glyph-name="adieresis.ss01" horiz-adv-x="1216" 
d="M539 -20q-93 0 -176 33t-151.5 98t-108.5 173.5t-40 247.5q0 113 26.5 206t72 156.5t106.5 107t129 63.5t142 20q117 0 213 -50.5t143 -137.5v168h207v-1065h-207v168q-47 -87 -143 -137.5t-213 -50.5zM260 532q0 -93 26.5 -167t72.5 -118.5t102.5 -67.5t120.5 -23
q63 0 120 23t103 67.5t73 118.5t27 167t-27 167t-73 119t-103 68t-120 23q-64 0 -120.5 -23t-102.5 -68t-72.5 -119t-26.5 -167zM279 1370q0 51 36 86t86 35t86.5 -35.5t36.5 -85.5t-36.5 -85.5t-86.5 -35.5t-86 35t-36 86zM698 1370q0 50 36.5 85.5t86.5 35.5t86.5 -35.5
t36.5 -85.5t-36.5 -85.5t-86.5 -35.5t-86.5 35.5t-36.5 85.5z" />
    <glyph glyph-name="agrave.ss01" horiz-adv-x="1216" 
d="M539 -20q-93 0 -176 33t-151.5 98t-108.5 173.5t-40 247.5q0 113 26.5 206t72 156.5t106.5 107t129 63.5t142 20q117 0 213 -50.5t143 -137.5v168h207v-1065h-207v168q-47 -87 -143 -137.5t-213 -50.5zM260 532q0 -93 26.5 -167t72.5 -118.5t102.5 -67.5t120.5 -23
q63 0 120 23t103 67.5t73 118.5t27 167t-27 167t-73 119t-103 68t-120 23q-64 0 -120.5 -23t-102.5 -68t-72.5 -119t-26.5 -167zM338 1464h184l209 -274h-184z" />
    <glyph glyph-name="amacron.ss01" horiz-adv-x="1216" 
d="M539 -20q-93 0 -176 33t-151.5 98t-108.5 173.5t-40 247.5q0 113 26.5 206t72 156.5t106.5 107t129 63.5t142 20q117 0 213 -50.5t143 -137.5v168h207v-1065h-207v168q-47 -87 -143 -137.5t-213 -50.5zM260 532q0 -93 26.5 -167t72.5 -118.5t102.5 -67.5t120.5 -23
q63 0 120 23t103 67.5t73 118.5t27 167t-27 167t-73 119t-103 68t-120 23q-64 0 -120.5 -23t-102.5 -68t-72.5 -119t-26.5 -167zM299 1339v125h627v-125h-627z" />
    <glyph glyph-name="aogonek.ss01" horiz-adv-x="1216" 
d="M539 -20q-93 0 -176 33t-151.5 98t-108.5 173.5t-40 247.5q0 113 26.5 206t72 156.5t106.5 107t129 63.5t142 20q117 0 213 -50.5t143 -137.5v168h207v-1065q-121 0 -184.5 -46.5t-63.5 -115.5q0 -61 47.5 -89t120.5 -13v-119q-36 -8 -78.5 -10.5t-86.5 12t-80 37
t-58.5 65t-22.5 95.5q0 91 57 151t142 82v119q-47 -87 -143 -137.5t-213 -50.5zM260 532q0 -93 26.5 -167t72.5 -118.5t102.5 -67.5t120.5 -23q63 0 120 23t103 67.5t73 118.5t27 167t-27 167t-73 119t-103 68t-120 23q-64 0 -120.5 -23t-102.5 -68t-72.5 -119t-26.5 -167z
" />
    <glyph glyph-name="aring.ss01" horiz-adv-x="1216" 
d="M539 -20q-93 0 -176 33t-151.5 98t-108.5 173.5t-40 247.5q0 113 26.5 206t72 156.5t106.5 107t129 63.5t142 20q117 0 213 -50.5t143 -137.5v168h207v-1065h-207v168q-47 -87 -143 -137.5t-213 -50.5zM260 532q0 -93 26.5 -167t72.5 -118.5t102.5 -67.5t120.5 -23
q63 0 120 23t103 67.5t73 118.5t27 167t-27 167t-73 119t-103 68t-120 23q-64 0 -120.5 -23t-102.5 -68t-72.5 -119t-26.5 -167zM422 1346q0 77 54.5 130.5t135.5 53.5t136 -53.5t55 -130.5t-55 -131t-136 -54t-135.5 54t-54.5 131zM526 1346q0 -38 24.5 -63.5t61.5 -25.5
t61.5 25.5t24.5 63.5q0 37 -24.5 61.5t-61.5 24.5t-61.5 -24.5t-24.5 -61.5z" />
    <glyph glyph-name="atilde.ss01" horiz-adv-x="1216" 
d="M539 -20q-93 0 -176 33t-151.5 98t-108.5 173.5t-40 247.5q0 113 26.5 206t72 156.5t106.5 107t129 63.5t142 20q117 0 213 -50.5t143 -137.5v168h207v-1065h-207v168q-47 -87 -143 -137.5t-213 -50.5zM260 532q0 -93 26.5 -167t72.5 -118.5t102.5 -67.5t120.5 -23
q63 0 120 23t103 67.5t73 118.5t27 167t-27 167t-73 119t-103 68t-120 23q-64 0 -120.5 -23t-102.5 -68t-72.5 -119t-26.5 -167zM279 1278q0 100 49 154.5t135 54.5q51 0 93 -20.5t66 -45t54.5 -45t60.5 -20.5q35 0 57.5 23.5t22.5 56.5h129q0 -100 -49.5 -154.5
t-136.5 -54.5q-42 0 -77 13.5t-58.5 32.5t-45 38.5t-45 33t-47.5 13.5q-35 0 -58 -23.5t-23 -56.5h-127z" />
    <glyph glyph-name="g.ss01" horiz-adv-x="1097" 
d="M541 -410q-95 0 -177.5 18.5t-151.5 57t-109 105t-40 153.5q0 108 55.5 176t145.5 99q-78 2 -132 45t-54 116q0 60 36.5 101t98.5 53q-74 87 -74 217q0 161 109 253.5t284 92.5q179 0 287 -94q61 85 191 82v-154q-73 0 -115 -30q31 -67 31 -150q0 -161 -109 -252.5
t-285 -91.5q-124 0 -213 45q-75 -6 -75 -70q0 -45 47 -63t143 -18h109q94 0 176 -18t153 -56t112.5 -106.5t41.5 -161.5q0 -75 -28 -135t-74 -99.5t-109.5 -66t-131.5 -37.5t-142 -11zM260 -61q0 -94 76.5 -146.5t208.5 -52.5q130 0 206 52.5t76 146.5t-75 145t-207 51
q-133 0 -209 -50.5t-76 -145.5zM313 731q0 -84 55.5 -139t163.5 -55q109 0 164.5 55t55.5 139q0 86 -55.5 141.5t-164.5 55.5q-108 0 -163.5 -56t-55.5 -141z" />
    </font>
</defs>
</svg>
