<?xml version="1.0" standalone="no"?>
<!DOCTYPE svg PUBLIC "-//W3C//DTD SVG 1.1//EN" "http://www.w3.org/Graphics/SVG/1.1/DTD/svg11.dtd" >
<svg xmlns="http://www.w3.org/2000/svg" xmlns:xlink="http://www.w3.org/1999/xlink" version="1.1">
<metadata>
Created by FontForge 20170731 at Sun Aug  6 18:04:32 2023
 By Aleksey,,,
Copyright (c) 2021 by Connary Fagen. All rights reserved.
</metadata>
<defs>
<font id="ArticulatCF-RegularOblique" horiz-adv-x="1095" >
  <font-face 
    font-family="Articulat CF"
    font-weight="400"
    font-style="oblique"
    font-stretch="normal"
    units-per-em="2048"
    panose-1="0 0 0 0 0 0 0 0 0 0"
    ascent="1638"
    descent="-410"
    x-height="1065"
    cap-height="1434"
    bbox="-422 -494 2275 2191"
    underline-thickness="102"
    underline-position="-358"
    slope="-9"
    unicode-range="U+0020-A78C"
  />
<missing-glyph horiz-adv-x="1486" 
d="M37 0l225 1434h1249l-225 -1434h-1249zM160 106h1036l193 1221h-1037zM248 184l469 539l-295 526h119l245 -446l385 446h119l-463 -526l301 -539h-118l-250 461l-393 -461h-119z" />
    <glyph glyph-name=".notdef" horiz-adv-x="1486" 
d="M37 0l225 1434h1249l-225 -1434h-1249zM160 106h1036l193 1221h-1037zM248 184l469 539l-295 526h119l245 -446l385 446h119l-463 -526l301 -539h-118l-250 461l-393 -461h-119z" />
    <glyph glyph-name=".null" horiz-adv-x="0" 
 />
    <glyph glyph-name="nonmarkingreturn" horiz-adv-x="682" 
 />
    <glyph glyph-name="space" unicode=" " horiz-adv-x="471" 
 />
    <glyph glyph-name="exclam" unicode="!" horiz-adv-x="471" 
d="M147 406l146 1028h168l-180 -1028h-134zM49 94q0 47 35 81t82 34t81 -34t34 -81t-34 -80.5t-81 -33.5q-48 0 -82.5 33.5t-34.5 80.5z" />
    <glyph glyph-name="quotedbl" unicode="&#x22;" horiz-adv-x="618" 
d="M444 934l80 500h156l-80 -500h-156zM145 934l80 500h156l-80 -500h-156z" />
    <glyph glyph-name="numbersign" unicode="#" horiz-adv-x="1222" 
d="M621 0l100 391h-330l-100 -391h-109l101 391h-207l16 111h219l113 432h-211l18 108h222l100 392h109l-101 -392h330l100 392h109l-101 -392h207l-18 -108h-217l-113 -432h209l-16 -111h-222l-100 -391h-108zM420 502h330l112 432h-330z" />
    <glyph glyph-name="dollar" unicode="$" horiz-adv-x="1212" 
d="M451 -184l26 166q-222 13 -329.5 132t-77.5 304h161q-10 -120 56.5 -199t212.5 -92l86 551l-60 12q-160 36 -241.5 118t-81.5 220q0 189 140.5 303.5t365.5 120.5l26 166h82l-26 -168q195 -13 294 -115.5t76 -263.5h-164q9 96 -49 159.5t-180 76.5l-80 -506l70 -15
q85 -18 146 -44.5t107.5 -66.5t69.5 -98.5t23 -136.5q0 -205 -151 -328.5t-394 -131.5l-27 -164h-81zM375 1040q0 -86 52 -140t171 -79l10 -2l78 490q-145 -6 -228 -78t-83 -191zM582 125q161 6 255.5 86.5t94.5 212.5q0 103 -60 153.5t-184 77.5l-22 4z" />
    <glyph glyph-name="percent" unicode="%" horiz-adv-x="1484" 
d="M170 254l-53 98l1255 826l55 -101zM178 1073q0 152 92.5 263.5t239.5 111.5q106 0 169.5 -64.5t63.5 -185.5q0 -99 -39 -184t-115.5 -139t-174.5 -54q-108 0 -172 64.5t-64 187.5zM303 1087q0 -76 34.5 -112.5t94.5 -36.5q61 0 104.5 38t62.5 91.5t19 114.5
q0 149 -126 149q-62 0 -106.5 -37.5t-63.5 -91t-19 -115.5zM801 233q0 99 39 183.5t115.5 138t174.5 53.5q108 0 172 -64.5t64 -185.5q0 -98 -40 -183.5t-117 -139t-175 -53.5q-106 0 -169.5 64.5t-63.5 186.5zM926 248q0 -77 33.5 -113.5t93.5 -36.5q91 0 139.5 73.5
t48.5 170.5q0 150 -129 150q-90 0 -138 -73t-48 -171z" />
    <glyph glyph-name="ampersand" unicode="&#x26;" horiz-adv-x="1392" 
d="M500 -20q-200 0 -318.5 99.5t-118.5 268.5q0 82 30 154t86.5 130t125 103.5t158.5 87.5q-55 80 -86 149.5t-31 147.5q0 66 23.5 125t69 105.5t118.5 74t164 27.5q147 0 228 -68.5t81 -187.5q0 -124 -89 -229.5t-265 -182.5l305 -415q102 152 137 372h148
q-46 -296 -199 -489l186 -252h-186l-104 143q-200 -163 -463 -163zM236 371q0 -114 81 -183t220 -69q196 0 346 135l-346 471q-146 -67 -223.5 -156.5t-77.5 -197.5zM492 1135q0 -61 28.5 -120.5t79.5 -129.5q285 125 285 295q0 73 -48 112t-128 39q-98 0 -157.5 -53.5
t-59.5 -142.5z" />
    <glyph glyph-name="quotesingle" unicode="'" horiz-adv-x="319" 
d="M145 934l80 500h156l-80 -500h-156z" />
    <glyph glyph-name="parenleft" unicode="(" horiz-adv-x="555" 
d="M182 -266q-154 387 -69 921q80 510 354 871h154q-267 -376 -345 -871q-83 -522 60 -921h-154z" />
    <glyph glyph-name="parenright" unicode=")" horiz-adv-x="552" 
d="M403 1526q155 -389 70 -922q-80 -509 -354 -870h-154q266 374 344 870q84 524 -59 922h153z" />
    <glyph glyph-name="asterisk" unicode="*" horiz-adv-x="1011" 
d="M362 715l-86 69l213 240l76 -63zM219 1112l49 111l264 -84l-45 -103zM549 1149l41 285h117l-50 -285h-108zM582 961l94 63l137 -240l-106 -69zM670 1139l291 84l14 -111l-291 -76z" />
    <glyph glyph-name="plus" unicode="+" horiz-adv-x="1112" 
d="M416 141l57 365h-358l22 145h361l57 361h154l-58 -361h363l-23 -145h-364l-58 -365h-153z" />
    <glyph glyph-name="comma" unicode="," horiz-adv-x="425" 
d="M0 -137q66 5 101 33.5t42 85.5q-59 0 -92 30t-33 78q0 50 34 84.5t87 34.5q54 0 87.5 -38t33.5 -114q0 -109 -67.5 -190.5t-190.5 -81.5h-14z" />
    <glyph glyph-name="hyphen" unicode="-" horiz-adv-x="727" 
d="M78 510l22 127h564l-23 -127h-563z" />
    <glyph glyph-name="period" unicode="." horiz-adv-x="409" 
d="M135 -20q-48 0 -82.5 33.5t-34.5 80.5t35 81t82 34t81 -34t34 -81t-34 -80.5t-81 -33.5z" />
    <glyph glyph-name="slash" unicode="/" horiz-adv-x="841" 
d="M-23 2l781 1432h166l-779 -1432h-168z" />
    <glyph glyph-name="zero" unicode="0" horiz-adv-x="1282" 
d="M557 -20q-209 0 -331 141.5t-122 419.5q0 136 28 267t85.5 247.5t137 205t190 140t237.5 51.5q209 0 331 -142t122 -419q0 -135 -28 -266t-85.5 -247.5t-137 -205t-190 -140.5t-237.5 -52zM262 553q0 -211 80.5 -321.5t232.5 -110.5q97 0 180 46t141.5 122t100 175
t61 205t19.5 212q0 209 -80.5 320.5t-232.5 111.5q-97 0 -180 -46t-141.5 -122t-100 -175t-61 -205t-19.5 -212z" />
    <glyph glyph-name="one" unicode="1" horiz-adv-x="671" 
d="M459 1212q-50 -47 -124.5 -79t-158.5 -35l23 137q99 9 179 64t116 135h163l-227 -1434h-164z" />
    <glyph glyph-name="two" unicode="2" horiz-adv-x="1116" 
d="M8 59q29 190 140 321t354 265q193 107 259 154q132 97 165 210q5 18 8 38q20 124 -52.5 194t-201.5 70q-134 0 -229 -79t-117 -228l-4 -29h-160l6 37q33 199 170 319.5t354 120.5q213 0 319.5 -112t78.5 -289q-8 -52 -27.5 -98.5t-42 -83t-61.5 -74.5t-70 -63.5
t-84.5 -60t-88 -54t-97.5 -54.5q-202 -109 -303 -201t-117 -206l-2 -17h756l-21 -139h-942z" />
    <glyph glyph-name="three" unicode="3" horiz-adv-x="1177" 
d="M498 -20q-240 0 -352.5 131t-79.5 348h151q-23 -158 59 -247t242 -89q170 0 286 95.5t116 240.5q0 117 -84.5 180t-245.5 63h-62l19 129h53q158 0 254 75t96 198q0 100 -65 152.5t-183 52.5q-136 0 -230.5 -76t-119.5 -240h-153q32 225 170 342t354 117q187 0 289 -84.5
t102 -224.5q0 -127 -82.5 -228.5t-214.5 -136.5q52 -9 98 -31.5t85.5 -59.5t62 -94.5t22.5 -129.5q0 -139 -79 -250.5t-213 -172t-295 -60.5z" />
    <glyph glyph-name="four" unicode="4" horiz-adv-x="1146" 
d="M659 0l60 381h-666l23 135l811 918h164l-146 -918h164l-22 -135h-164l-60 -381h-164zM225 516h516l111 711z" />
    <glyph glyph-name="five" unicode="5" horiz-adv-x="1169" 
d="M508 -20q-228 0 -342 127t-84 327h149q-19 -145 64.5 -231t234.5 -86q124 0 218.5 61t142 158t47.5 211q0 147 -80.5 222t-212.5 75q-98 0 -183.5 -40.5t-146.5 -117.5h-161l237 748h733l-22 -131h-617l-153 -480q56 62 153 106t215 44q182 0 291 -106t109 -304
q0 -163 -73.5 -295.5t-209.5 -210t-309 -77.5z" />
    <glyph glyph-name="six" unicode="6" horiz-adv-x="1198" 
d="M535 -20q-202 0 -315.5 124t-113.5 373q0 93 19 223q19 121 50.5 226t84.5 203.5t122.5 168.5t169 112t218.5 42q96 0 171 -26t120 -70.5t67.5 -99t22.5 -115.5q0 -22 -4 -54h-143q5 102 -61.5 167t-192.5 65q-87 0 -159 -33.5t-121 -87.5t-87.5 -131.5t-60.5 -155
t-37 -168.5q73 102 184.5 157.5t241.5 55.5q177 0 286 -103.5t109 -295.5q0 -160 -73.5 -292t-205 -208.5t-292.5 -76.5zM262 416q0 -138 78.5 -218.5t210.5 -80.5q114 0 206 59.5t140.5 156t48.5 208.5q0 137 -77 211.5t-210 74.5q-176 0 -286.5 -120.5t-110.5 -290.5z" />
    <glyph glyph-name="seven" unicode="7" horiz-adv-x="995" 
d="M176 0q160 629 709 1296h-703l23 138h862l-23 -138q-559 -693 -708 -1296h-160z" />
    <glyph glyph-name="eight" unicode="8" horiz-adv-x="1161" 
d="M496 -20q-201 0 -322 95.5t-121 268.5q0 151 93.5 269.5t254.5 174.5q-70 33 -110.5 101t-40.5 160q0 81 33 154.5t93 128.5t149.5 87.5t195.5 32.5q176 0 272.5 -84t96.5 -223q0 -121 -70 -217t-178 -140q107 -41 167 -123t60 -202q0 -139 -76 -250t-206.5 -172
t-290.5 -61zM213 373q0 -119 82 -185.5t219 -66.5q171 0 283 96.5t112 241.5q0 121 -81 188.5t-220 67.5q-170 0 -282.5 -99t-112.5 -243zM403 1051q0 -93 61 -145t171 -52q137 0 219 76.5t82 187.5q0 93 -60.5 145t-170.5 52q-138 0 -220 -76.5t-82 -187.5z" />
    <glyph glyph-name="nine" unicode="9" horiz-adv-x="1198" 
d="M721 1450q201 0 314.5 -124.5t113.5 -373.5q0 -93 -19 -223q-19 -121 -50.5 -226t-84.5 -203.5t-122.5 -168.5t-169 -112t-218.5 -42q-96 0 -171 26t-120 71t-67.5 99.5t-22.5 115.5q0 13 5 53h143q-5 -102 61.5 -166.5t192.5 -64.5q369 0 465 575
q-73 -102 -184.5 -157.5t-241.5 -55.5q-177 0 -286 103.5t-109 295.5q0 160 73.5 292.5t205 209t292.5 76.5zM309 889q0 -137 77 -212t210 -75q176 0 286.5 121t110.5 291q0 139 -78.5 219t-209.5 80q-114 0 -206 -59.5t-141 -156t-49 -208.5z" />
    <glyph glyph-name="colon" unicode=":" horiz-adv-x="409" 
d="M135 -20q-48 0 -82.5 33.5t-34.5 80.5t35 81t82 34t81 -34t34 -81t-34 -80.5t-81 -33.5zM156 950q0 47 34.5 81t81.5 34t81 -34t34 -81t-34 -80.5t-81 -33.5t-81.5 33.5t-34.5 80.5z" />
    <glyph glyph-name="semicolon" unicode=";" horiz-adv-x="425" 
d="M272 836q-47 0 -81.5 33.5t-34.5 80.5t34.5 81t81.5 34t81 -34t34 -81t-34 -80.5t-81 -33.5zM-12 -215l12 78q66 5 101 33.5t42 85.5q-59 0 -92 30t-33 78q0 50 34 84.5t87 34.5q54 0 87.5 -38t33.5 -114q0 -109 -67.5 -190.5t-190.5 -81.5h-14z" />
    <glyph glyph-name="less" unicode="&#x3c;" horiz-adv-x="1038" 
d="M862 0l-788 416l24 155l920 416l-25 -162l-760 -336l654 -331z" />
    <glyph glyph-name="equal" unicode="=" horiz-adv-x="851" 
d="M88 346l25 127h610l-25 -127h-610zM143 674l25 127h608l-24 -127h-609z" />
    <glyph glyph-name="greater" unicode="&#x3e;" horiz-adv-x="1038" 
d="M164 987l788 -416l-24 -155l-920 -416l25 162l760 336l-654 331z" />
    <glyph glyph-name="question" unicode="?" horiz-adv-x="1073" 
d="M455 487q12 71 40.5 128t66 94.5t80 69t85 59.5t78 58.5t62 73t34.5 95.5q19 111 -45 175.5t-188 64.5q-137 0 -227 -81t-111 -235h-164q28 223 168 341t348 118q196 0 303.5 -102t79.5 -283q-10 -67 -37.5 -120t-63.5 -87.5t-78 -64.5t-83.5 -58t-77 -60t-62 -79
t-36.5 -107l-15 -88h-172zM367 94q0 47 34.5 81t81.5 34t81 -34t34 -81t-34 -80.5t-81 -33.5t-81.5 33.5t-34.5 80.5z" />
    <glyph glyph-name="at" unicode="@" horiz-adv-x="1634" 
d="M784 -20q-198 0 -349 73.5t-236.5 218t-85.5 342.5q0 174 66.5 329.5t180 267t271 176.5t332.5 65q284 0 455 -161t171 -433q0 -132 -39 -247.5t-119 -192t-186 -76.5q-91 0 -141.5 53.5t-48.5 136.5q-37 -84 -117.5 -138t-173.5 -54q-113 0 -190.5 81t-77.5 230
q0 176 105 296t261 120q104 0 173 -56t65 -139l37 172h84l-66 -417q-5 -49 -1 -92t31 -72t72 -29q71 0 124.5 66.5t78.5 160t25 193.5q0 232 -143.5 365t-387.5 133q-211 0 -381.5 -99.5t-264 -265.5t-93.5 -364q0 -259 161 -401t427 -142q134 0 217 29l-14 -99
q-80 -30 -222 -30zM602 657q0 -104 50.5 -162.5t133.5 -58.5q114 0 192.5 100.5t78.5 225.5q0 99 -53 154t-140 55q-117 0 -189.5 -92t-72.5 -222z" />
    <glyph glyph-name="A" unicode="A" horiz-adv-x="1396" 
d="M-39 0l776 1434h209l320 -1434h-174l-78 358h-680l-191 -358h-182zM406 489h579l-164 762h-10z" />
    <glyph glyph-name="B" unicode="B" horiz-adv-x="1239" 
d="M35 0l227 1434h529q190 0 285 -80.5t95 -220.5q0 -123 -68.5 -216.5t-193.5 -134.5q118 -30 182 -110t64 -211q0 -214 -159.5 -337.5t-415.5 -123.5h-545zM225 145h359q178 0 287.5 88t109.5 232q0 231 -301 231h-367zM338 842h344q143 0 228 73t85 193q0 91 -57 135.5
t-176 44.5h-354z" />
    <glyph glyph-name="C" unicode="C" horiz-adv-x="1355" 
d="M666 -20q-259 0 -408 152t-149 450q0 139 32.5 267.5t97 238t154.5 191t213 127.5t264 46q225 0 361 -113t139 -323h-160q-15 143 -108.5 216t-245.5 73q-110 0 -204.5 -40t-162 -108.5t-115.5 -159.5t-71.5 -193t-23.5 -208q0 -230 108.5 -349.5t296.5 -119.5
q151 0 259 75t169 218h164q-67 -218 -228.5 -329t-381.5 -111z" />
    <glyph glyph-name="D" unicode="D" horiz-adv-x="1347" 
d="M35 0l227 1434h459q288 0 431.5 -144.5t143.5 -439.5q0 -181 -52.5 -335.5t-151 -269.5t-250.5 -180t-340 -65h-467zM227 150h275q125 0 228 35.5t176 98.5t123 150.5t73.5 191t23.5 220.5q0 234 -103.5 336t-328.5 102h-288z" />
    <glyph glyph-name="E" unicode="E" horiz-adv-x="1116" 
d="M35 0l227 1434h912l-25 -150h-743l-76 -479h682l-23 -137h-680l-82 -518h762l-22 -150h-932z" />
    <glyph glyph-name="F" unicode="F" horiz-adv-x="1091" 
d="M35 0l227 1434h912l-25 -150h-743l-78 -498h608l-23 -141h-608l-102 -645h-168z" />
    <glyph glyph-name="G" unicode="G" horiz-adv-x="1429" 
d="M672 -20q-266 0 -413.5 152t-147.5 450q0 175 52.5 332t148.5 277t242.5 190.5t322.5 70.5q215 0 344.5 -100t144.5 -287h-164q-24 120 -110 180t-224 60q-112 0 -208.5 -39.5t-165.5 -107.5t-118 -158.5t-73 -193.5t-24 -212q0 -232 106.5 -349.5t300.5 -117.5
q197 0 326.5 120.5t165.5 354.5l-361 -6l23 139h524l-14 -94q-54 -330 -225.5 -495.5t-452.5 -165.5z" />
    <glyph glyph-name="H" unicode="H" horiz-adv-x="1327" 
d="M956 0l101 633h-754l-100 -633h-168l227 1434h168l-104 -660h753l105 660h170l-228 -1434h-170z" />
    <glyph glyph-name="I" unicode="I" horiz-adv-x="405" 
d="M35 0l227 1434h168l-227 -1434h-168z" />
    <glyph glyph-name="J" unicode="J" horiz-adv-x="1331" 
d="M596 -20q-256 0 -387 148.5t-88 414.5h170q-32 -196 56 -305t267 -109q178 0 290.5 109t144.5 315l139 881h170l-141 -891q-43 -270 -205.5 -416.5t-415.5 -146.5z" />
    <glyph glyph-name="K" unicode="K" horiz-adv-x="1300" 
d="M35 0l227 1434h168l-127 -799l840 799h205l-699 -662l522 -772h-196l-449 655l-258 -245l-65 -410h-168z" />
    <glyph glyph-name="L" unicode="L" horiz-adv-x="1087" 
d="M35 0l227 1434h168l-203 -1284h734l-23 -150h-903z" />
    <glyph glyph-name="M" unicode="M" horiz-adv-x="1689" 
d="M35 0l227 1434h203l332 -1215l708 1215h211l-227 -1434h-170l178 1122h-6l-653 -1122h-146l-305 1122h-6l-178 -1122h-168z" />
    <glyph glyph-name="N" unicode="N" horiz-adv-x="1351" 
d="M35 0l227 1434h189l567 -1172h4l186 1172h170l-227 -1434h-195l-563 1167h-6l-184 -1167h-168z" />
    <glyph glyph-name="O" unicode="O" horiz-adv-x="1470" 
d="M662 -20q-254 0 -403.5 153.5t-149.5 444.5q0 173 53 330.5t149 278.5t240.5 193t316.5 72q255 0 404 -153t149 -445q0 -137 -33.5 -266t-99 -239t-156 -192.5t-212 -129.5t-258.5 -47zM279 582q0 -227 105 -341t288 -114q110 0 204.5 41t162.5 111t116.5 162.5t72 196.5
t23.5 212q0 227 -105.5 341t-287.5 114q-136 0 -248.5 -62.5t-183 -165.5t-109 -231t-38.5 -264z" />
    <glyph glyph-name="P" unicode="P" horiz-adv-x="1212" 
d="M35 0l227 1434h518q221 0 332 -95.5t111 -279.5q0 -232 -159 -369t-423 -137h-350l-88 -553h-168zM315 702h344q182 0 286 90.5t104 243.5q0 248 -299 248h-344z" />
    <glyph glyph-name="Q" unicode="Q" horiz-adv-x="1472" 
d="M1196 -29l-117 142q-182 -133 -417 -133q-254 0 -403.5 153.5t-149.5 444.5q0 173 53 330.5t149 278.5t240.5 193t316.5 72q255 0 404 -153t149 -445q0 -183 -59.5 -349.5t-169.5 -289.5l121 -145zM279 582q0 -227 105 -341t288 -114q172 0 311 102l-223 269l117 98
l213 -258q78 101 119.5 235.5t41.5 276.5q0 227 -105.5 341t-287.5 114q-136 0 -248.5 -62.5t-183 -165.5t-109 -231t-38.5 -264z" />
    <glyph glyph-name="R" unicode="R" horiz-adv-x="1224" 
d="M903 0l-239 553h-23h-350l-88 -553h-168l227 1434h518q221 0 332 -95.5t111 -279.5q0 -189 -107 -316.5t-293 -169.5l250 -573h-170zM315 702h344q182 0 286 90.5t104 243.5q0 248 -299 248h-344z" />
    <glyph glyph-name="S" unicode="S" horiz-adv-x="1255" 
d="M553 -20q-259 0 -386.5 121t-96.5 317h170q-13 -131 70 -212t265 -81q181 0 286.5 81t105.5 218q0 104 -62 154t-190 77l-170 35q-166 36 -251 118t-85 220q0 194 153 309t396 115q231 0 352.5 -103.5t95.5 -277.5h-170q11 106 -65 172t-232 66q-162 0 -257 -73t-95 -196
q0 -86 55 -139.5t179 -79.5l165 -35q180 -38 270.5 -116.5t90.5 -229.5q0 -141 -77 -246t-211 -159.5t-306 -54.5z" />
    <glyph glyph-name="T" unicode="T" horiz-adv-x="1187" 
d="M426 0l203 1284h-453l25 150h1073l-25 -150h-452l-203 -1284h-168z" />
    <glyph glyph-name="U" unicode="U" horiz-adv-x="1337" 
d="M588 -20q-257 0 -383 147.5t-84 415.5l141 891h170l-141 -881q-32 -203 54.5 -313.5t268.5 -110.5q180 0 293.5 109.5t145.5 314.5l139 881h170l-141 -891q-42 -269 -209.5 -416t-423.5 -147z" />
    <glyph glyph-name="V" unicode="V" horiz-adv-x="1417" 
d="M520 0l-319 1434h174l270 -1252h10l668 1252h180l-774 -1434h-209z" />
    <glyph glyph-name="W" unicode="W" horiz-adv-x="1986" 
d="M356 0l-155 1434h172l116 -1196h9l546 1196h181l170 -1196h8l495 1196h177l-611 -1434h-182l-180 1219l-561 -1219h-185z" />
    <glyph glyph-name="X" unicode="X" horiz-adv-x="1320" 
d="M-39 0l637 741l-375 693h191l301 -557l479 557h192l-595 -695l401 -739h-191l-327 604l-518 -604h-195z" />
    <glyph glyph-name="Y" unicode="Y" horiz-adv-x="1335" 
d="M498 0l88 561l-385 873h190l307 -709l531 709h194l-665 -873l-88 -561h-172z" />
    <glyph glyph-name="Z" unicode="Z" horiz-adv-x="1249" 
d="M-2 0l25 150l1062 1134h-849l24 150h1043l-25 -150l-1065 -1134h895l-25 -150h-1085z" />
    <glyph glyph-name="bracketleft" unicode="[" horiz-adv-x="573" 
d="M-10 -266l286 1792h338l-22 -144h-174l-240 -1505h174l-22 -143h-340z" />
    <glyph glyph-name="backslash" unicode="\" horiz-adv-x="841" 
d="M539 2l-334 1432h157l334 -1432h-157z" />
    <glyph glyph-name="bracketright" unicode="]" horiz-adv-x="573" 
d="M614 1526l-286 -1792h-338l22 143h174l240 1505h-174l22 144h340z" />
    <glyph glyph-name="asciicircum" unicode="^" horiz-adv-x="983" 
d="M158 952l424 482h108l266 -482h-131l-204 371l-324 -371h-139z" />
    <glyph glyph-name="underscore" unicode="_" horiz-adv-x="1208" 
d="M-14 -143l22 143h1024l-22 -143h-1024z" />
    <glyph glyph-name="grave" unicode="`" horiz-adv-x="360" 
d="M322 1192l-170 268h145l168 -268h-143z" />
    <glyph glyph-name="a" unicode="a" 
d="M336 -20q-144 0 -227.5 63t-83.5 190q0 144 103 233.5t284 111.5l270 30q86 11 118.5 26.5t39.5 51.5l6 35q24 131 -34 185.5t-194 54.5q-132 0 -204.5 -48t-89.5 -153l-5 -25h-157l6 39q52 311 473 311q218 0 307.5 -87t59.5 -277l-113 -721h-156l29 180h-8
q-16 -25 -46 -54t-81 -64.5t-129.5 -58.5t-167.5 -23zM188 256q0 -145 199 -145q88 0 164 26.5t125.5 67.5t79.5 87.5t37 90.5l22 152q-20 -39 -164 -54l-219 -26q-114 -14 -179 -63.5t-65 -135.5z" />
    <glyph glyph-name="b" unicode="b" horiz-adv-x="1204" 
d="M575 -20q-124 0 -216.5 51.5t-131.5 146.5l-28 -178h-164l227 1434h164l-86 -545q68 95 175 145.5t230 50.5q83 0 154.5 -26t127.5 -77t88 -136t32 -195q0 -180 -70.5 -332.5t-203 -245.5t-298.5 -93zM266 440q0 -158 85 -239.5t218 -81.5q123 0 220.5 71.5t148.5 184.5
t51 243q0 163 -83.5 246.5t-215.5 83.5q-93 0 -173 -42t-134.5 -112t-85.5 -162.5t-31 -191.5z" />
    <glyph glyph-name="c" unicode="c" 
d="M498 -20q-93 0 -171 27t-138 80.5t-94 141.5t-34 203q0 131 43 249.5t119.5 208t191 142.5t249.5 53q62 0 117 -11t108.5 -38t91 -69.5t60 -110t20.5 -154.5h-148q-3 126 -78 185t-190 59q-130 0 -229.5 -72t-149 -184.5t-49.5 -243.5q0 -162 79.5 -243.5t219.5 -81.5
q116 0 208.5 59t135.5 189h148q-24 -88 -67.5 -157t-94 -112t-112 -70.5t-119 -38.5t-117.5 -11z" />
    <glyph glyph-name="d" unicode="d" horiz-adv-x="1204" 
d="M459 -20q-83 0 -153.5 26t-126.5 77.5t-88 137t-32 195.5q0 133 41 254t113.5 213t181 147t234.5 55q124 0 217 -50.5t133 -145.5l86 545h164l-228 -1434h-163l28 178q-69 -95 -177.5 -146.5t-229.5 -51.5zM217 449q0 -164 82.5 -247t214.5 -83q93 0 173 41.5t134.5 111
t85.5 159.5t31 187q0 162 -86 246t-217 84q-123 0 -220 -71.5t-147.5 -185t-50.5 -242.5z" />
    <glyph glyph-name="e" unicode="e" horiz-adv-x="1105" 
d="M492 -23q-201 0 -317 110.5t-116 336.5q0 132 40.5 251t114 210.5t186 145.5t247.5 54q188 0 298 -101t110 -296q0 -123 -29 -205h-807q-2 -16 -2 -47q0 -172 75 -249.5t222 -77.5q230 0 326 188h147q-49 -114 -129.5 -187.5t-170 -103t-195.5 -29.5zM236 604h657
q29 167 -42 259.5t-222 92.5q-156 0 -256.5 -98t-136.5 -254z" />
    <glyph glyph-name="f" unicode="f" horiz-adv-x="634" 
d="M301 1206q41 260 315 260h115l-18 -129h-74q-84 0 -124.5 -35.5t-53.5 -121.5l-19 -115h220l-19 -131h-221l-148 -934h-163l147 934h-147l20 131h148z" />
    <glyph glyph-name="g" unicode="g" horiz-adv-x="1193" 
d="M455 23q-81 0 -151 24t-125 72.5t-86.5 129.5t-31.5 187q0 131 40 249t111 206.5t176.5 141t229.5 52.5q122 0 217.5 -49.5t135.5 -140.5l26 170h164l-149 -940l-17 -109q-16 -103 -60.5 -182.5t-101.5 -128t-130.5 -79.5t-142.5 -42.5t-142 -11.5q-70 0 -133 10.5
t-120.5 35.5t-97 62t-58 94.5t-7.5 129.5h143q-10 -95 69.5 -149t215.5 -54q75 0 139.5 17.5t119 54t92 98.5t50.5 145l17 109l14 88q-72 -92 -180.5 -141t-226.5 -49zM219 471q0 -152 82 -230.5t211 -78.5q121 0 218.5 66t149.5 173.5t52 233.5q0 154 -83.5 233.5
t-215.5 79.5q-121 0 -217 -66.5t-146.5 -174.5t-50.5 -236z" />
    <glyph glyph-name="h" unicode="h" horiz-adv-x="1153" 
d="M203 1065l59 369h164l-59 -369l-33 -209h4q13 31 42 67t77 74t123 63t161 25q82 0 145 -23t109.5 -74t60.5 -132.5t-1 -198.5l-105 -657h-164l99 625q25 155 -31 238t-195 83q-137 0 -233 -79.5t-125 -219.5l-102 -647h-164z" />
    <glyph glyph-name="i" unicode="i" horiz-adv-x="401" 
d="M35 0l168 1065h164l-168 -1065h-164zM231 1378q0 42 30.5 72.5t72.5 30.5t73 -30.5t31 -72.5q0 -41 -31.5 -71.5t-72.5 -30.5t-72 30.5t-31 71.5z" />
    <glyph glyph-name="j" unicode="j" horiz-adv-x="436" 
d="M-102 -385q-74 0 -115 6l20 129h68q88 0 129 36t55 122l183 1157h163l-188 -1188q-39 -262 -315 -262zM266 1378q0 42 31.5 72.5t73.5 30.5q41 0 71.5 -30.5t30.5 -72.5q0 -41 -30.5 -71.5t-71.5 -30.5q-42 0 -73.5 30.5t-31.5 71.5z" />
    <glyph glyph-name="k" unicode="k" horiz-adv-x="1105" 
d="M35 0l227 1434h164l-150 -940l642 571h188l-526 -461l417 -604h-180l-352 502l-217 -191l-49 -311h-164z" />
    <glyph glyph-name="l" unicode="l" horiz-adv-x="399" 
d="M35 0l227 1434h164l-227 -1434h-164z" />
    <glyph glyph-name="m" unicode="m" horiz-adv-x="1802" 
d="M1536 625q25 155 -26 238t-179 83q-122 0 -209 -75t-118 -209v-5l-105 -657h-164l99 625q25 155 -25 238t-180 83q-125 0 -212.5 -79.5t-115.5 -219.5l-102 -647h-164l168 1065h164l-33 -209h4q13 31 40 66.5t71.5 74t113.5 63.5t148 25q121 0 200 -58t97 -181
q19 36 48 71.5t77 76t119.5 66t154.5 25.5q166 0 249.5 -103t47.5 -325l-102 -657h-164z" />
    <glyph glyph-name="n" unicode="n" horiz-adv-x="1153" 
d="M885 625q25 155 -31 238t-195 83q-137 0 -233 -79.5t-125 -219.5l-102 -647h-164l168 1065h164l-33 -209h4q13 31 42 67t77 74t123 63t161 25q82 0 145 -23t109.5 -74t60.5 -132.5t-1 -198.5l-105 -657h-164z" />
    <glyph glyph-name="o" unicode="o" horiz-adv-x="1157" 
d="M498 -20q-91 0 -169 27t-139 80.5t-96 141.5t-35 201q0 129 43.5 247.5t120.5 209t191 144.5t245 54q92 0 170 -27t139 -80t95.5 -140.5t34.5 -200.5q0 -103 -27.5 -201t-80.5 -180t-125 -144t-167 -97t-200 -35zM219 444q0 -164 82.5 -244.5t214.5 -80.5q76 0 144 27.5
t118 76t86.5 112t55 137t18.5 149.5q0 165 -82.5 246t-214.5 81q-95 0 -176 -42.5t-134 -113.5t-82.5 -161.5t-29.5 -186.5z" />
    <glyph glyph-name="p" unicode="p" horiz-adv-x="1204" 
d="M-29 -389l232 1454h164l-29 -176q69 95 174.5 145.5t226.5 50.5q84 0 156 -26t129 -76.5t90 -135.5t33 -194q0 -135 -42 -257.5t-116 -214.5t-182.5 -146.5t-235.5 -54.5q-121 0 -213 51.5t-131 146.5l-90 -567h-166zM266 444q0 -160 84.5 -242.5t214.5 -82.5
q93 0 173.5 42t134 112t84 161t30.5 189q0 160 -83 242.5t-214 82.5q-93 0 -173.5 -42t-135 -112t-85 -161t-30.5 -189z" />
    <glyph glyph-name="q" unicode="q" horiz-adv-x="1204" 
d="M778 -389l88 567q-69 -95 -177.5 -146.5t-229.5 -51.5q-83 0 -153.5 26t-126.5 77.5t-88 137t-32 195.5q0 133 41 254t113.5 213t181 147t234.5 55q124 0 217.5 -50.5t132.5 -145.5l29 176h163l-229 -1454h-164zM217 449q0 -164 82.5 -247t214.5 -83q93 0 173 41.5
t134.5 111t85.5 159.5t31 187q0 162 -86 246t-217 84q-123 0 -220 -71.5t-147.5 -185t-50.5 -242.5z" />
    <glyph glyph-name="r" unicode="r" horiz-adv-x="747" 
d="M35 0l168 1065h164l-37 -238h4q42 99 137 172.5t236 73.5q48 0 79 -10l-22 -139q-40 6 -78 6q-154 0 -258.5 -91.5t-136.5 -252.5l-92 -586h-164z" />
    <glyph glyph-name="s" unicode="s" horiz-adv-x="983" 
d="M414 -20q-190 0 -301.5 82t-92.5 241h150q-2 -52 18.5 -90.5t58.5 -60t83.5 -31.5t99.5 -10q128 0 209.5 52.5t81.5 149.5q0 66 -41 98t-133 54l-174 43q-124 31 -184 93t-60 161q0 150 122.5 236.5t317.5 86.5q181 0 279.5 -80t83.5 -235h-139q0 184 -238 184
q-123 0 -195.5 -45t-72.5 -129q0 -57 39 -92.5t131 -58.5l172 -43q129 -33 195.5 -89t66.5 -167q0 -112 -66 -192.5t-172.5 -119t-238.5 -38.5z" />
    <glyph glyph-name="t" unicode="t" horiz-adv-x="665" 
d="M408 -14q-276 0 -234 264l109 684h-172l20 131h172l41 266h164l-43 -266h213l-19 -131h-215l-102 -653q-14 -86 16 -123t115 -37h72l-21 -129q-39 -6 -116 -6z" />
    <glyph glyph-name="u" unicode="u" horiz-adv-x="1153" 
d="M268 440q-25 -155 31 -238t195 -83q137 0 233 79.5t125 219.5l102 647h164l-168 -1065h-164l33 209h-4q-13 -31 -42 -67t-77 -74t-123 -63t-161 -25q-82 0 -145 23t-109.5 74t-60.5 132.5t1 198.5l105 657h164z" />
    <glyph glyph-name="v" unicode="v" horiz-adv-x="1122" 
d="M375 0l-244 1065h164l203 -909h6l485 909h172l-577 -1065h-209z" />
    <glyph glyph-name="w" unicode="w" horiz-adv-x="1628" 
d="M266 0l-135 1065h156l104 -897h8l422 897h148l147 -897h8l383 897h160l-467 -1065h-192l-144 848l-403 -848h-195z" />
    <glyph glyph-name="x" unicode="x" horiz-adv-x="1075" 
d="M-18 0l464 539l-284 526h178l215 -406l342 406h184l-452 -526l297 -539h-178l-226 420l-354 -420h-186z" />
    <glyph glyph-name="y" unicode="y" 
d="M33 -254q111 -14 183 28t126 134q47 82 31 145l-242 1012h166l195 -875l471 875h172l-639 -1153q-104 -185 -217.5 -256t-266.5 -51z" />
    <glyph glyph-name="z" unicode="z" horiz-adv-x="1019" 
d="M-2 0l22 141l783 785h-639l22 139h836l-23 -139l-782 -785h660l-23 -141h-856z" />
    <glyph glyph-name="braceleft" unicode="{" horiz-adv-x="583" 
d="M233 -266q-72 0 -116 45t-31 133l90 569l-70 146l117 149l90 572q14 88 73 133t132 45h131l-22 -144h-72q-33 0 -55.5 -17.5t-26.5 -49.5l-88 -549l-115 -139l72 -135l-86 -547q-4 -32 11.5 -50t47.5 -18h72l-22 -143h-132z" />
    <glyph glyph-name="bar" unicode="|" horiz-adv-x="450" 
d="M8 -389l322 2027h143l-321 -2027h-144z" />
    <glyph glyph-name="braceright" unicode="}" horiz-adv-x="583" 
d="M381 1526q72 0 116 -45t31 -133l-90 -570l70 -145l-117 -150l-90 -571q-14 -88 -73 -133t-132 -45h-131l23 143h71q33 0 55.5 18t26.5 50l88 549l115 139l-72 135l86 547q4 32 -11.5 49.5t-47.5 17.5h-72l23 144h131z" />
    <glyph glyph-name="asciitilde" unicode="~" horiz-adv-x="974" 
d="M662 453q-52 0 -101.5 24.5t-82.5 54t-77.5 54t-87.5 24.5q-54 0 -84 -28.5t-28 -63.5h-82q0 98 60.5 157.5t154.5 59.5q42 0 81.5 -16t70 -39.5t60 -46.5t65 -39t71.5 -16q53 0 83 29t28 63h81q0 -98 -60 -157.5t-152 -59.5z" />
    <glyph glyph-name="uni00A0" unicode="&#xa0;" horiz-adv-x="471" 
 />
    <glyph glyph-name="exclamdown" unicode="&#xa1;" horiz-adv-x="471" 
d="M322 659l-146 -1028h-168l180 1028h134zM190 971q0 47 34 80.5t81 33.5q48 0 82.5 -33.5t34.5 -80.5t-35 -81t-82 -34q-49 0 -82 33.5t-33 81.5z" />
    <glyph glyph-name="cent" unicode="&#xa2;" 
d="M436 -82l35 217q-174 14 -280.5 125t-106.5 318q0 165 67 305.5t196 230.5t296 100l35 220h76l-35 -217q58 -3 109 -16t100 -41t83 -69.5t54 -105t18 -143.5h-147q-3 115 -69 173t-171 66l-127 -809q107 7 190.5 65t123.5 177h147q-29 -102 -82.5 -177.5t-121.5 -117.5
t-136.5 -62.5t-142.5 -23.5l-35 -215h-76zM240 592q0 -147 66.5 -226.5t187.5 -91.5l127 805q-175 -20 -278 -160t-103 -327z" />
    <glyph glyph-name="sterling" unicode="&#xa3;" horiz-adv-x="1116" 
d="M31 92q262 226 262 447q0 33 -6 63h-178l16 98h137q-5 15 -16.5 50t-17.5 55.5t-14 52t-11.5 61.5t-3.5 62q0 203 145.5 335t364.5 132q200 0 309.5 -114t79.5 -312l-6 -39h-156l6 35q20 134 -48 210.5t-204 76.5q-147 0 -239.5 -86.5t-92.5 -225.5q0 -46 10.5 -92.5
t31.5 -110t28 -90.5h277l-17 -98h-239q2 -16 2 -49q0 -126 -67 -228.5t-187 -199.5q79 28 156.5 32t143.5 -6.5t132 -21.5t148 -10t165 24l-22 -143q-76 -19 -153 -21t-136 8.5t-127 21t-127.5 17t-136 -4t-154.5 -41.5z" />
    <glyph glyph-name="currency" unicode="&#xa4;" horiz-adv-x="1263" 
d="M700 516q-151 0 -274 92l-88 -88l-109 107l90 90q-77 116 -77 258q0 141 82 260l-95 94l109 107l90 -90q122 88 272 88q154 0 275 -91l92 93l109 -107l-97 -96q80 -116 80 -258q0 -139 -78 -254l95 -94l-109 -107l-88 88q-126 -92 -279 -92zM381 975q0 -124 91 -222
t228 -98q139 0 231.5 98t92.5 222q0 123 -92.5 222t-231.5 99q-91 0 -166 -48t-114 -121t-39 -152z" />
    <glyph glyph-name="yen" unicode="&#xa5;" horiz-adv-x="1335" 
d="M301 457l16 102h269v2l-385 873h190l307 -709l531 709h194l-665 -873v-2h272l-16 -102h-273l-16 -107h272l-16 -102h-272l-39 -248h-172l39 248h-269l17 102h268l16 107h-268z" />
    <glyph glyph-name="brokenbar" unicode="&#xa6;" horiz-adv-x="450" 
d="M225 983l105 655h143l-104 -655h-144zM8 -389l103 655h143l-102 -655h-144z" />
    <glyph glyph-name="section" unicode="&#xa7;" horiz-adv-x="1302" 
d="M481 -483q-248 0 -365 112t-108 310h180q0 -127 72 -199t248 -72q178 0 276 65t117 183q19 116 -42 177.5t-185 88.5l-201 43q-179 40 -262 133t-59 250q25 148 133 242q-60 90 -39 225q27 169 171.5 272t379.5 103q226 0 336.5 -96t105.5 -273h-178q0 104 -67 160.5
t-222 56.5q-162 0 -246.5 -63t-99.5 -164q-14 -90 32.5 -149t166.5 -86l184 -41q206 -45 300 -141.5t67 -272.5q-20 -142 -125 -242q50 -90 30 -223q-30 -193 -189 -296t-411 -103zM330 604q-29 -184 200 -235l185 -41q131 -27 221 -80q46 51 59 135q19 115 -42 177t-185 89
l-201 43q-99 23 -159 56q-65 -56 -78 -144z" />
    <glyph glyph-name="dieresis" unicode="&#xa8;" horiz-adv-x="593" 
d="M625 1276q-42 0 -73.5 30.5t-31.5 71.5q0 42 31.5 72.5t73.5 30.5q41 0 71.5 -30.5t30.5 -72.5q0 -41 -30.5 -71.5t-71.5 -30.5zM135 1378q0 42 31.5 72.5t73.5 30.5t72 -30.5t30 -72.5q0 -41 -30.5 -71.5t-71.5 -30.5q-42 0 -73.5 30.5t-31.5 71.5z" />
    <glyph glyph-name="copyright" unicode="&#xa9;" horiz-adv-x="1640" 
d="M739 -14q-181 0 -324.5 76.5t-224.5 217t-81 322.5q0 168 69 324t184.5 270t273 182t327.5 68q275 0 451.5 -170t176.5 -442q0 -168 -69 -324.5t-183.5 -271t-272.5 -183.5t-327 -69zM213 616q0 -237 151 -382.5t388 -145.5q148 0 284 59.5t234 158.5t156.5 233.5
t58.5 277.5q0 236 -150.5 382.5t-386.5 146.5q-147 0 -283.5 -60t-235 -159t-157.5 -233.5t-59 -277.5zM434 645q0 134 62.5 249t174.5 184t247 69q45 0 86 -7.5t81 -26.5t70.5 -48t52.5 -74t29 -102h-111q-14 76 -74.5 114.5t-148.5 38.5q-158 0 -257 -112t-99 -271
q0 -130 69.5 -199t188.5 -69q89 0 160 38.5t110 119.5h111q-31 -72 -77.5 -125t-100.5 -82t-107.5 -42t-109.5 -13q-157 0 -257 94.5t-100 263.5z" />
    <glyph glyph-name="ordfeminine" unicode="&#xaa;" horiz-adv-x="753" 
d="M322 782q-84 0 -135.5 41.5t-51.5 126.5q0 95 67 148.5t187 62.5l238 19q14 98 -13.5 139t-119.5 41q-161 0 -175 -115h-104q15 109 88 158t201 49q156 0 204.5 -70.5t24.5 -226.5l-57 -369h-98l12 117q-41 -51 -113.5 -86t-154.5 -35zM254 971q0 -94 117 -94
q81 0 142 40.5t87 86.5l14 102l-217 -21q-143 -10 -143 -114z" />
    <glyph glyph-name="guillemotleft" unicode="&#xab;" horiz-adv-x="825" 
d="M702 289l-260 258l21 131l342 256l-25 -160l-215 -164l164 -164zM84 547l20 131l345 256l-25 -160l-217 -164l164 -164l-25 -157z" />
    <glyph glyph-name="logicalnot" unicode="&#xac;" horiz-adv-x="1054" 
d="M733 272l37 236h-655l20 131h819l-57 -367h-164z" />
    <glyph glyph-name="uni00AD" unicode="&#xad;" horiz-adv-x="727" 
d="M78 510l22 127h564l-23 -127h-563z" />
    <glyph glyph-name="registered" unicode="&#xae;" horiz-adv-x="1640" 
d="M739 -14q-181 0 -324.5 76.5t-224.5 217t-81 322.5q0 168 69 324t184.5 270t273 182t327.5 68q275 0 451.5 -170t176.5 -442q0 -168 -69 -324.5t-183.5 -271t-272.5 -183.5t-327 -69zM213 616q0 -237 151 -382.5t388 -145.5q148 0 284 59.5t234 158.5t156.5 233.5
t58.5 277.5q0 236 -150.5 382.5t-386.5 146.5q-147 0 -283.5 -60t-235 -159t-157.5 -233.5t-59 -277.5zM492 334l122 766h365q118 0 182 -55.5t64 -157.5q0 -103 -63 -175t-167 -96l146 -282h-117l-137 272h-242l-43 -272h-110zM659 696h244q101 0 159 50t58 128
q0 136 -166 136h-245z" />
    <glyph glyph-name="macron" unicode="&#xaf;" horiz-adv-x="604" 
d="M131 1358l16 102h605l-17 -102h-604z" />
    <glyph glyph-name="degree" unicode="&#xb0;" horiz-adv-x="763" 
d="M483 866q-129 0 -215 86t-86 215q0 128 86 213.5t215 85.5q128 0 214.5 -86t86.5 -213q0 -129 -86.5 -215t-214.5 -86zM299 1167q0 -80 51.5 -132t132.5 -52t132 52t51 132t-51 131.5t-132 51.5t-132.5 -51.5t-51.5 -131.5z" />
    <glyph glyph-name="plusminus" unicode="&#xb1;" horiz-adv-x="1114" 
d="M139 0l21 129h704l-20 -129h-705zM147 707l23 145h360l58 360h153l-57 -360h363l-23 -145h-365l-57 -365h-153l57 365h-359z" />
    <glyph glyph-name="uni00B2" unicode="&#xb2;" horiz-adv-x="522" 
d="M145 922q8 75 52 131t139 108q5 3 24.5 13.5t23.5 13t19 11t19 12.5t14.5 12t13.5 14t9 15t9 18t5 20q6 38 -17.5 63t-66.5 25q-44 0 -76 -27t-39 -73l-2 -14h-71l2 14q11 75 62.5 120.5t133.5 45.5q79 0 117 -43t29 -109q-5 -32 -20 -58.5t-43 -50t-52 -39t-68 -40.5
q-123 -66 -129 -129v-8h267l-11 -66h-346z" />
    <glyph glyph-name="uni00B3" unicode="&#xb3;" horiz-adv-x="550" 
d="M336 893q-92 0 -136 48t-32 126h70q-7 -57 21.5 -85t86.5 -28q55 0 91.5 26t43.5 75q7 47 -23.5 72.5t-92.5 25.5h-23l8 55h23q54 0 87.5 24.5t39.5 61.5q6 40 -17.5 64t-72.5 24q-50 0 -82.5 -26.5t-38.5 -79.5h-70q10 79 64 123.5t135 44.5q80 0 119 -40.5t30 -103.5
q-7 -44 -38 -73.5t-74 -40.5q44 -7 74 -42t22 -95q-11 -69 -67.5 -112.5t-147.5 -43.5z" />
    <glyph glyph-name="acute" unicode="&#xb4;" horiz-adv-x="356" 
d="M104 1192l250 268h148l-248 -268h-150z" />
    <glyph glyph-name="uni00B5" unicode="&#xb5;" horiz-adv-x="1153" 
d="M-29 -389l232 1454h164l-99 -625q-25 -155 31 -238t195 -83q137 0 233 79.5t125 219.5l102 647h164l-168 -1065h-164l33 209h-4q-13 -31 -42 -67t-77 -74t-123 -63t-161 -25q-129 0 -207 55l-68 -424h-166z" />
    <glyph glyph-name="paragraph" unicode="&#xb6;" horiz-adv-x="1214" 
d="M479 -451l170 1078h-141q-177 0 -272 92.5t-95 247.5q0 130 64 236.5t178 168.5t254 62h602l-16 -109l-283 -1776h-135l282 1776h-178l-282 -1776h-148z" />
    <glyph glyph-name="periodcentered" unicode="&#xb7;" horiz-adv-x="430" 
d="M223 459q-48 0 -82.5 33.5t-34.5 80.5t35 81t82 34t81 -34t34 -81t-34 -80.5t-81 -33.5z" />
    <glyph glyph-name="cedilla" unicode="&#xb8;" horiz-adv-x="327" 
d="M-94 -360q78 -2 127 27t49 81q0 48 -41.5 64.5t-101.5 -9.5l-45 64l133 133h125l-113 -104q8 2 27 2q60 0 98.5 -36.5t38.5 -103.5q0 -71 -44.5 -120.5t-114 -72t-155.5 -22.5z" />
    <glyph glyph-name="uni00B9" unicode="&#xb9;" horiz-adv-x="354" 
d="M319 1337q-17 -25 -48 -36.5t-66 -6.5l8 66q36 -1 71.5 21.5t51.5 52.5h70l-84 -535h-70z" />
    <glyph glyph-name="ordmasculine" unicode="&#xba;" horiz-adv-x="792" 
d="M444 782q-122 0 -205 74t-83 209q0 160 110.5 273.5t268.5 113.5q122 0 205 -74t83 -209q0 -159 -111.5 -273t-267.5 -114zM272 1077q0 -89 51.5 -137.5t131.5 -48.5q107 0 179.5 78.5t72.5 187.5q0 89 -51 137.5t-132 48.5q-106 0 -179 -78t-73 -188z" />
    <glyph glyph-name="guillemotright" unicode="&#xbb;" horiz-adv-x="825" 
d="M147 934l261 -258l-21 -131l-342 -256l25 160l215 163l-164 164zM401 289l25 160l217 163l-164 164l25 158l262 -258l-21 -131z" />
    <glyph glyph-name="onequarter" unicode="&#xbc;" horiz-adv-x="1202" 
d="M319 1337q-17 -25 -48 -36.5t-66 -6.5l8 66q36 -1 71.5 21.5t51.5 52.5h70l-84 -535h-70zM12 0l1121 1434h90l-1121 -1434h-90zM674 135l10 58l297 342h70l-54 -342h62l-10 -58h-62l-20 -135h-70l21 135h-244zM750 193h178l39 251z" />
    <glyph glyph-name="onehalf" unicode="&#xbd;" horiz-adv-x="1200" 
d="M326 1337q-17 -25 -48 -36.5t-67 -6.5l8 66q36 -1 71.5 21.5t51.5 52.5h70l-84 -535h-70zM35 0l1120 1434h90l-1120 -1434h-90zM680 0l2 20q8 76 52 132t138 108q6 4 24 13.5t23.5 12.5t19.5 11.5t19 12.5l15 12t14 14t9.5 15t8.5 18t5 20q6 38 -17.5 63t-66.5 25
q-44 0 -76 -27t-39 -73l-2 -15h-72l2 15q11 75 63 120.5t134 45.5q79 0 116.5 -43t28.5 -109q-5 -32 -20 -58.5t-42.5 -50t-52 -39.5t-67.5 -40q-123 -66 -129 -129v-8h266l-10 -66h-346z" />
    <glyph glyph-name="threequarters" unicode="&#xbe;" horiz-adv-x="1261" 
d="M336 893q-92 0 -136 48t-32 126h70q-7 -57 21.5 -85t86.5 -28q55 0 91.5 26t43.5 75q7 47 -23.5 72.5t-92.5 25.5h-23l8 55h23q54 0 87.5 24.5t39.5 61.5q6 40 -17.5 64t-72.5 24q-50 0 -82.5 -26.5t-38.5 -79.5h-70q10 79 64 123.5t135 44.5q80 0 119 -40.5t30 -103.5
q-7 -44 -38 -73.5t-74 -40.5q44 -7 74 -42t22 -95q-11 -69 -67.5 -112.5t-147.5 -43.5zM96 0l1121 1434h90l-1121 -1434h-90zM717 135l10 58l297 342h70l-54 -342h62l-10 -58h-62l-20 -135h-70l21 135h-244zM793 193h178l39 251z" />
    <glyph glyph-name="questiondown" unicode="&#xbf;" horiz-adv-x="1073" 
d="M618 578q-12 -71 -40.5 -128t-66 -94.5t-80 -69t-85 -59.5t-78 -58.5t-62 -73t-34.5 -95.5q-19 -111 45.5 -175.5t188.5 -64.5q136 0 226 81t111 235h164q-28 -223 -168 -341t-348 -118q-196 0 -303.5 102t-79.5 283q10 67 37.5 120t63.5 87.5t78 64.5t83.5 58t77 60
t62 79t36.5 107l15 88h172zM475 971q0 47 34 80.5t81 33.5q48 0 82.5 -33.5t34.5 -80.5t-35 -81t-82 -34t-81 34t-34 81z" />
    <glyph glyph-name="Agrave" unicode="&#xc0;" horiz-adv-x="1396" 
d="M-39 0l776 1434h209l320 -1434h-174l-78 358h-680l-191 -358h-182zM406 489h579l-164 762h-10zM618 1829h146l168 -268h-144z" />
    <glyph glyph-name="Aacute" unicode="&#xc1;" horiz-adv-x="1396" 
d="M-39 0l776 1434h209l320 -1434h-174l-78 358h-680l-191 -358h-182zM406 489h579l-164 762h-10zM756 1561l250 268h147l-248 -268h-149z" />
    <glyph glyph-name="Acircumflex" unicode="&#xc2;" horiz-adv-x="1396" 
d="M-39 0l776 1434h209l320 -1434h-174l-78 358h-680l-191 -358h-182zM406 489h579l-164 762h-10zM543 1563l248 266h229l162 -266h-154l-131 211l-192 -211h-162z" />
    <glyph glyph-name="Atilde" unicode="&#xc3;" horiz-adv-x="1396" 
d="M-39 0l776 1434h209l320 -1434h-174l-78 358h-680l-191 -358h-182zM406 489h579l-164 762h-10zM555 1655q13 96 66.5 146t132.5 50q41 0 74.5 -14.5t55 -35t41 -40.5t43.5 -34.5t52 -14.5q40 0 67.5 27.5t30.5 62.5h107q-13 -96 -66.5 -146t-132.5 -50q-41 0 -73.5 14.5
t-54 35t-41.5 40.5t-44.5 34.5t-52.5 14.5q-42 0 -68.5 -27.5t-29.5 -62.5h-107z" />
    <glyph glyph-name="Adieresis" unicode="&#xc4;" horiz-adv-x="1396" 
d="M-39 0l776 1434h209l320 -1434h-174l-78 358h-680l-191 -358h-182zM406 489h579l-164 762h-10zM598 1747q0 42 31 72t73 30t72.5 -30t30.5 -72q0 -41 -31 -71.5t-72 -30.5t-72.5 30.5t-31.5 71.5zM983 1747q0 42 31 72t73 30t72.5 -30t30.5 -72q0 -41 -31 -71.5
t-72 -30.5t-72.5 30.5t-31.5 71.5z" />
    <glyph glyph-name="Aring" unicode="&#xc5;" horiz-adv-x="1396" 
d="M-39 0l776 1434h209l320 -1434h-174l-78 358h-680l-191 -358h-182zM406 489h579l-164 762h-10zM711 1712q0 73 52 124.5t128 51.5t128 -51.5t52 -124.5q0 -72 -52 -123t-128 -51t-128 51t-52 123zM799 1712q0 -39 26.5 -65.5t65.5 -26.5q40 0 67 26t27 66t-27 67t-67 27
q-38 0 -65 -27t-27 -67z" />
    <glyph glyph-name="AE" unicode="&#xc6;" horiz-adv-x="2023" 
d="M-39 0l1206 1434h914l-25 -150h-743l-76 -479h682l-23 -137h-679l-82 -518h761l-22 -150h-932l57 367h-546l-308 -367h-184zM567 504h455l106 667z" />
    <glyph glyph-name="Ccedilla" unicode="&#xc7;" horiz-adv-x="1355" 
d="M471 -360q78 -2 127 27t49 81q0 48 -41.5 64.5t-101.5 -9.5l-45 64l116 117q-219 26 -342.5 176.5t-123.5 421.5q0 139 32.5 267.5t97 238t154.5 191t213 127.5t264 46q225 0 361 -113t139 -323h-160q-15 143 -108.5 216t-245.5 73q-110 0 -204.5 -40t-162 -108.5
t-115.5 -159.5t-71.5 -193t-23.5 -208q0 -230 108.5 -349.5t296.5 -119.5q151 0 259 75t169 218h164q-64 -210 -218 -321t-364 -119l-90 -84q8 2 27 2q60 0 98.5 -36.5t38.5 -103.5q0 -71 -44.5 -120.5t-113.5 -72t-155 -22.5z" />
    <glyph glyph-name="Egrave" unicode="&#xc8;" horiz-adv-x="1116" 
d="M35 0l227 1434h912l-25 -150h-743l-76 -479h682l-23 -137h-680l-82 -518h762l-22 -150h-932zM494 1829h145l168 -268h-143z" />
    <glyph glyph-name="Eacute" unicode="&#xc9;" horiz-adv-x="1116" 
d="M35 0l227 1434h912l-25 -150h-743l-76 -479h682l-23 -137h-680l-82 -518h762l-22 -150h-932zM631 1561l250 268h147l-248 -268h-149z" />
    <glyph glyph-name="Ecircumflex" unicode="&#xca;" horiz-adv-x="1116" 
d="M35 0l227 1434h912l-25 -150h-743l-76 -479h682l-23 -137h-680l-82 -518h762l-22 -150h-932zM418 1563l248 266h229l162 -266h-154l-131 211l-192 -211h-162z" />
    <glyph glyph-name="Edieresis" unicode="&#xcb;" horiz-adv-x="1116" 
d="M35 0l227 1434h912l-25 -150h-743l-76 -479h682l-23 -137h-680l-82 -518h762l-22 -150h-932zM473 1747q0 42 31.5 72t73.5 30t72 -30t30 -72q0 -41 -30.5 -71.5t-71.5 -30.5q-42 0 -73.5 30.5t-31.5 71.5zM858 1747q0 42 31.5 72t73.5 30t72 -30t30 -72
q0 -41 -30.5 -71.5t-71.5 -30.5q-42 0 -73.5 30.5t-31.5 71.5z" />
    <glyph glyph-name="Igrave" unicode="&#xcc;" horiz-adv-x="405" 
d="M35 0l227 1434h168l-227 -1434h-168zM119 1829h145l168 -268h-143z" />
    <glyph glyph-name="Iacute" unicode="&#xcd;" horiz-adv-x="405" 
d="M35 0l227 1434h168l-227 -1434h-168zM256 1561l250 268h147l-247 -268h-150z" />
    <glyph glyph-name="Icircumflex" unicode="&#xce;" horiz-adv-x="405" 
d="M35 0l227 1434h168l-227 -1434h-168zM43 1563l248 266h229l162 -266h-154l-131 211l-192 -211h-162z" />
    <glyph glyph-name="Idieresis" unicode="&#xcf;" horiz-adv-x="405" 
d="M35 0l227 1434h168l-227 -1434h-168zM98 1747q0 42 31.5 72t73.5 30t72 -30t30 -72q0 -41 -30.5 -71.5t-71.5 -30.5q-42 0 -73.5 30.5t-31.5 71.5zM483 1747q0 42 31.5 72t73.5 30t72 -30t30 -72q0 -41 -30.5 -71.5t-71.5 -30.5q-42 0 -73.5 30.5t-31.5 71.5z" />
    <glyph glyph-name="Eth" unicode="&#xd0;" horiz-adv-x="1394" 
d="M82 0l102 649h-145l22 127h144l104 658h459q288 0 431.5 -144.5t143.5 -439.5q0 -181 -52.5 -335.5t-151 -269.5t-250.5 -180t-340 -65h-467zM274 150h275q125 0 228.5 35.5t176 98.5t122.5 150.5t74 191t24 220.5q0 233 -103.5 335.5t-329.5 102.5h-288l-80 -508h252
l-23 -127h-250z" />
    <glyph glyph-name="Ntilde" unicode="&#xd1;" horiz-adv-x="1351" 
d="M35 0l227 1434h189l567 -1172h4l186 1172h170l-227 -1434h-195l-563 1167h-6l-184 -1167h-168zM532 1655q13 96 66.5 146t132.5 50q41 0 74.5 -14.5t55 -35t41 -40.5t43.5 -34.5t52 -14.5q41 0 68.5 27.5t30.5 62.5h106q-13 -96 -66 -146t-132 -50q-41 0 -73.5 14.5
t-54.5 35t-42 40.5t-44.5 34.5t-52.5 14.5q-42 0 -68.5 -27.5t-29.5 -62.5h-107z" />
    <glyph glyph-name="Ograve" unicode="&#xd2;" horiz-adv-x="1470" 
d="M662 -20q-254 0 -403.5 153.5t-149.5 444.5q0 173 53 330.5t149 278.5t240.5 193t316.5 72q255 0 404 -153t149 -445q0 -137 -33.5 -266t-99 -239t-156 -192.5t-212 -129.5t-258.5 -47zM279 582q0 -227 105 -341t288 -114q110 0 204.5 41t162.5 111t116.5 162.5t72 196.5
t23.5 212q0 227 -105.5 341t-287.5 114q-136 0 -248.5 -62.5t-183 -165.5t-109 -231t-38.5 -264zM653 1829h146l168 -268h-144z" />
    <glyph glyph-name="Oacute" unicode="&#xd3;" horiz-adv-x="1470" 
d="M662 -20q-254 0 -403.5 153.5t-149.5 444.5q0 173 53 330.5t149 278.5t240.5 193t316.5 72q255 0 404 -153t149 -445q0 -137 -33.5 -266t-99 -239t-156 -192.5t-212 -129.5t-258.5 -47zM279 582q0 -227 105 -341t288 -114q110 0 204.5 41t162.5 111t116.5 162.5t72 196.5
t23.5 212q0 227 -105.5 341t-287.5 114q-136 0 -248.5 -62.5t-183 -165.5t-109 -231t-38.5 -264zM791 1561l249 268h148l-248 -268h-149z" />
    <glyph glyph-name="Ocircumflex" unicode="&#xd4;" horiz-adv-x="1470" 
d="M662 -20q-254 0 -403.5 153.5t-149.5 444.5q0 173 53 330.5t149 278.5t240.5 193t316.5 72q255 0 404 -153t149 -445q0 -137 -33.5 -266t-99 -239t-156 -192.5t-212 -129.5t-258.5 -47zM279 582q0 -227 105 -341t288 -114q110 0 204.5 41t162.5 111t116.5 162.5t72 196.5
t23.5 212q0 227 -105.5 341t-287.5 114q-136 0 -248.5 -62.5t-183 -165.5t-109 -231t-38.5 -264zM578 1563l247 266h230l162 -266h-154l-131 211l-193 -211h-161z" />
    <glyph glyph-name="Otilde" unicode="&#xd5;" horiz-adv-x="1470" 
d="M662 -20q-254 0 -403.5 153.5t-149.5 444.5q0 173 53 330.5t149 278.5t240.5 193t316.5 72q255 0 404 -153t149 -445q0 -137 -33.5 -266t-99 -239t-156 -192.5t-212 -129.5t-258.5 -47zM279 582q0 -227 105 -341t288 -114q110 0 204.5 41t162.5 111t116.5 162.5t72 196.5
t23.5 212q0 227 -105.5 341t-287.5 114q-136 0 -248.5 -62.5t-183 -165.5t-109 -231t-38.5 -264zM590 1655q13 96 66 146t132 50q41 0 74.5 -14.5t55.5 -35t41.5 -40.5t43.5 -34.5t52 -14.5q40 0 67.5 27.5t30.5 62.5h107q-13 -96 -66.5 -146t-132.5 -50q-41 0 -73.5 14.5
t-54 35t-41.5 40.5t-44.5 34.5t-52.5 14.5q-42 0 -69 -27.5t-30 -62.5h-106z" />
    <glyph glyph-name="Odieresis" unicode="&#xd6;" horiz-adv-x="1470" 
d="M662 -20q-254 0 -403.5 153.5t-149.5 444.5q0 173 53 330.5t149 278.5t240.5 193t316.5 72q255 0 404 -153t149 -445q0 -137 -33.5 -266t-99 -239t-156 -192.5t-212 -129.5t-258.5 -47zM279 582q0 -227 105 -341t288 -114q110 0 204.5 41t162.5 111t116.5 162.5t72 196.5
t23.5 212q0 227 -105.5 341t-287.5 114q-136 0 -248.5 -62.5t-183 -165.5t-109 -231t-38.5 -264zM633 1747q0 42 31 72t73 30t72.5 -30t30.5 -72q0 -41 -31 -71.5t-72 -30.5t-72.5 30.5t-31.5 71.5zM1018 1747q0 42 31 72t73 30t72.5 -30t30.5 -72q0 -41 -31 -71.5
t-72 -30.5t-72.5 30.5t-31.5 71.5z" />
    <glyph glyph-name="multiply" unicode="&#xd7;" horiz-adv-x="925" 
d="M145 154l-86 100l299 260l-217 260l119 100l215 -258l299 258l86 -100l-299 -260l217 -260l-119 -100l-215 258z" />
    <glyph glyph-name="Oslash" unicode="&#xd8;" horiz-adv-x="1470" 
d="M156 -102l135 204q-182 155 -182 476q0 173 53 330.5t149 278.5t240.5 193t316.5 72q159 0 273 -57l86 131h143l-129 -197q180 -153 180 -475q0 -137 -33.5 -266t-99 -239t-156 -192.5t-212 -129.5t-258.5 -47q-157 0 -271 57l-90 -139h-145zM279 582q0 -224 104 -340
l670 1020q-82 43 -195 43q-136 0 -248.5 -62.5t-183 -165.5t-109 -231t-38.5 -264zM479 168q84 -41 193 -41q110 0 204.5 41t162.5 111t116.5 162.5t72 196.5t23.5 212q0 224 -102 338z" />
    <glyph glyph-name="Ugrave" unicode="&#xd9;" horiz-adv-x="1337" 
d="M588 -20q-257 0 -383 147.5t-84 415.5l141 891h170l-141 -881q-32 -203 54.5 -313.5t268.5 -110.5q180 0 293.5 109.5t145.5 314.5l139 881h170l-141 -891q-42 -269 -209.5 -416t-423.5 -147zM582 1829h145l168 -268h-143z" />
    <glyph glyph-name="Uacute" unicode="&#xda;" horiz-adv-x="1337" 
d="M588 -20q-257 0 -383 147.5t-84 415.5l141 891h170l-141 -881q-32 -203 54.5 -313.5t268.5 -110.5q180 0 293.5 109.5t145.5 314.5l139 881h170l-141 -891q-42 -269 -209.5 -416t-423.5 -147zM717 1561l250 268h147l-248 -268h-149z" />
    <glyph glyph-name="Ucircumflex" unicode="&#xdb;" horiz-adv-x="1337" 
d="M588 -20q-257 0 -383 147.5t-84 415.5l141 891h170l-141 -881q-32 -203 54.5 -313.5t268.5 -110.5q180 0 293.5 109.5t145.5 314.5l139 881h170l-141 -891q-42 -269 -209.5 -416t-423.5 -147zM506 1563l248 266h229l162 -266h-154l-131 211l-192 -211h-162z" />
    <glyph glyph-name="Udieresis" unicode="&#xdc;" horiz-adv-x="1337" 
d="M588 -20q-257 0 -383 147.5t-84 415.5l141 891h170l-141 -881q-32 -203 54.5 -313.5t268.5 -110.5q180 0 293.5 109.5t145.5 314.5l139 881h170l-141 -891q-42 -269 -209.5 -416t-423.5 -147zM559 1747q0 42 31.5 72t73.5 30t72 -30t30 -72q0 -41 -30.5 -71.5
t-71.5 -30.5q-42 0 -73.5 30.5t-31.5 71.5zM944 1747q0 42 31.5 72t73.5 30t72 -30t30 -72q0 -41 -30.5 -71.5t-71.5 -30.5q-42 0 -73.5 30.5t-31.5 71.5z" />
    <glyph glyph-name="Yacute" unicode="&#xdd;" horiz-adv-x="1335" 
d="M498 0l88 561l-385 873h190l307 -709l531 709h194l-665 -873l-88 -561h-172zM723 1561l250 268h147l-248 -268h-149z" />
    <glyph glyph-name="Thorn" unicode="&#xde;" horiz-adv-x="1255" 
d="M35 0l227 1434h168l-43 -275h393q221 0 332 -96t111 -281q0 -231 -159.5 -368.5t-422.5 -137.5h-395l-43 -276h-168zM270 426h389q182 0 286 90.5t104 245.5q0 248 -299 248h-388z" />
    <glyph glyph-name="germandbls" unicode="&#xdf;" horiz-adv-x="1185" 
d="M201 1049q62 403 514 403q196 0 302.5 -79t106.5 -232q0 -128 -72.5 -217.5t-203.5 -118.5q256 -60 256 -330q0 -227 -163 -351t-443 -124h-129l22 143h121q199 0 313.5 86t114.5 244q0 136 -89 195t-251 59h-117l21 131h117q159 0 247 65.5t88 188.5q0 105 -66 151
t-194 46q-150 0 -230.5 -63t-100.5 -197l-166 -1049h-164z" />
    <glyph glyph-name="agrave" unicode="&#xe0;" 
d="M336 -20q-144 0 -227.5 63t-83.5 190q0 144 103 233.5t284 111.5l270 30q86 11 118.5 26.5t39.5 51.5l6 35q24 131 -34 185.5t-194 54.5q-132 0 -204.5 -48t-89.5 -153l-5 -25h-157l6 39q52 311 473 311q218 0 307.5 -87t59.5 -277l-113 -721h-156l29 180h-8
q-16 -25 -46 -54t-81 -64.5t-129.5 -58.5t-167.5 -23zM188 256q0 -145 199 -145q88 0 164 26.5t125.5 67.5t79.5 87.5t37 90.5l22 152q-20 -39 -164 -54l-219 -26q-114 -14 -179 -63.5t-65 -135.5zM408 1460h145l168 -268h-143z" />
    <glyph glyph-name="aacute" unicode="&#xe1;" 
d="M336 -20q-144 0 -227.5 63t-83.5 190q0 144 103 233.5t284 111.5l270 30q86 11 118.5 26.5t39.5 51.5l6 35q24 131 -34 185.5t-194 54.5q-132 0 -204.5 -48t-89.5 -153l-5 -25h-157l6 39q52 311 473 311q218 0 307.5 -87t59.5 -277l-113 -721h-156l29 180h-8
q-16 -25 -46 -54t-81 -64.5t-129.5 -58.5t-167.5 -23zM188 256q0 -145 199 -145q88 0 164 26.5t125.5 67.5t79.5 87.5t37 90.5l22 152q-20 -39 -164 -54l-219 -26q-114 -14 -179 -63.5t-65 -135.5zM543 1192l250 268h147l-248 -268h-149z" />
    <glyph glyph-name="acircumflex" unicode="&#xe2;" 
d="M336 -20q-144 0 -227.5 63t-83.5 190q0 144 103 233.5t284 111.5l270 30q86 11 118.5 26.5t39.5 51.5l6 35q24 131 -34 185.5t-194 54.5q-132 0 -204.5 -48t-89.5 -153l-5 -25h-157l6 39q52 311 473 311q218 0 307.5 -87t59.5 -277l-113 -721h-156l29 180h-8
q-16 -25 -46 -54t-81 -64.5t-129.5 -58.5t-167.5 -23zM188 256q0 -145 199 -145q88 0 164 26.5t125.5 67.5t79.5 87.5t37 90.5l22 152q-20 -39 -164 -54l-219 -26q-114 -14 -179 -63.5t-65 -135.5zM332 1194l248 266h229l162 -266h-154l-131 211l-192 -211h-162z" />
    <glyph glyph-name="atilde" unicode="&#xe3;" 
d="M336 -20q-144 0 -227.5 63t-83.5 190q0 144 103 233.5t284 111.5l270 30q86 11 118.5 26.5t39.5 51.5l6 35q24 131 -34 185.5t-194 54.5q-132 0 -204.5 -48t-89.5 -153l-5 -25h-157l6 39q52 311 473 311q218 0 307.5 -87t59.5 -277l-113 -721h-156l29 180h-8
q-16 -25 -46 -54t-81 -64.5t-129.5 -58.5t-167.5 -23zM188 256q0 -145 199 -145q88 0 164 26.5t125.5 67.5t79.5 87.5t37 90.5l22 152q-20 -39 -164 -54l-219 -26q-114 -14 -179 -63.5t-65 -135.5zM344 1286q13 96 66.5 146.5t132.5 50.5q41 0 74.5 -14.5t55 -35t41 -41
t43.5 -35t52 -14.5q40 0 67.5 28t30.5 63h107q-13 -96 -66.5 -146.5t-132.5 -50.5q-41 0 -73.5 14.5t-54 35t-41.5 40.5t-44.5 34.5t-52.5 14.5q-42 0 -68.5 -27.5t-29.5 -62.5h-107z" />
    <glyph glyph-name="adieresis" unicode="&#xe4;" 
d="M336 -20q-144 0 -227.5 63t-83.5 190q0 144 103 233.5t284 111.5l270 30q86 11 118.5 26.5t39.5 51.5l6 35q24 131 -34 185.5t-194 54.5q-132 0 -204.5 -48t-89.5 -153l-5 -25h-157l6 39q52 311 473 311q218 0 307.5 -87t59.5 -277l-113 -721h-156l29 180h-8
q-16 -25 -46 -54t-81 -64.5t-129.5 -58.5t-167.5 -23zM188 256q0 -145 199 -145q88 0 164 26.5t125.5 67.5t79.5 87.5t37 90.5l22 152q-20 -39 -164 -54l-219 -26q-114 -14 -179 -63.5t-65 -135.5zM385 1378q0 42 31 72.5t73 30.5t72.5 -30.5t30.5 -72.5q0 -41 -31 -71.5
t-72 -30.5t-72.5 30.5t-31.5 71.5zM770 1378q0 42 31 72.5t73 30.5t72.5 -30.5t30.5 -72.5q0 -41 -31 -71.5t-72 -30.5t-72.5 30.5t-31.5 71.5z" />
    <glyph glyph-name="aring" unicode="&#xe5;" 
d="M336 -20q-144 0 -227.5 63t-83.5 190q0 144 103 233.5t284 111.5l270 30q86 11 118.5 26.5t39.5 51.5l6 35q24 131 -34 185.5t-194 54.5q-132 0 -204.5 -48t-89.5 -153l-5 -25h-157l6 39q52 311 473 311q218 0 307.5 -87t59.5 -277l-113 -721h-156l29 180h-8
q-16 -25 -46 -54t-81 -64.5t-129.5 -58.5t-167.5 -23zM188 256q0 -145 199 -145q88 0 164 26.5t125.5 67.5t79.5 87.5t37 90.5l22 152q-20 -39 -164 -54l-219 -26q-114 -14 -179 -63.5t-65 -135.5zM498 1343q0 73 52 125t128 52t128 -52t52 -125q0 -72 -52 -123t-128 -51
t-128 51t-52 123zM586 1343q0 -39 26.5 -65.5t65.5 -26.5q40 0 67 26t27 66t-27 67.5t-67 27.5q-38 0 -65 -27.5t-27 -67.5z" />
    <glyph glyph-name="ae" unicode="&#xe6;" horiz-adv-x="1853" 
d="M346 -20q-153 0 -236 67t-83 197q0 159 118 252.5t318 93.5h358l25 155q18 112 -42.5 162.5t-191.5 50.5q-252 0 -286 -184l-4 -24h-150l6 43q51 292 455 292q149 0 234.5 -43.5t109.5 -136.5q162 180 418 180q188 0 297.5 -101t109.5 -296q0 -126 -28 -205h-807
q-2 -16 -2 -47q0 -172 75 -249.5t222 -77.5q229 0 325 188h148q-49 -114 -129.5 -187.5t-170.5 -103t-196 -29.5q-151 0 -255.5 63t-147.5 191q-66 -103 -192.5 -177t-297.5 -74zM193 268q0 -81 53.5 -121.5t150.5 -40.5q83 0 156.5 28.5t121 72t77.5 90t36 86.5l17 104
h-320q-129 0 -210.5 -59t-81.5 -160zM983 604h657q29 167 -42 259.5t-222 92.5q-156 0 -256.5 -98t-136.5 -254z" />
    <glyph glyph-name="ccedilla" unicode="&#xe7;" 
d="M315 -360q78 -2 127.5 27.5t49.5 80.5q0 48 -42 64.5t-102 -9.5l-45 64l117 117q-163 23 -261 135t-98 313q0 131 43 249.5t119.5 208t191 142.5t249.5 53q62 0 117 -11t108.5 -38t91 -69.5t60 -110t20.5 -154.5h-148q-3 126 -78 185t-190 59q-130 0 -229.5 -72
t-149 -184.5t-49.5 -243.5q0 -162 79.5 -243.5t219.5 -81.5q116 0 208.5 59t135.5 189h148q-28 -102 -79.5 -177.5t-117 -118.5t-131.5 -64.5t-139 -26.5l-92 -86q8 2 26 2q60 0 98.5 -36.5t38.5 -103.5q0 -71 -44.5 -120.5t-113.5 -72t-155 -22.5z" />
    <glyph glyph-name="egrave" unicode="&#xe8;" horiz-adv-x="1105" 
d="M492 -23q-201 0 -317 110.5t-116 336.5q0 132 40.5 251t114 210.5t186 145.5t247.5 54q188 0 298 -101t110 -296q0 -123 -29 -205h-807q-2 -16 -2 -47q0 -172 75 -249.5t222 -77.5q230 0 326 188h147q-49 -114 -129.5 -187.5t-170 -103t-195.5 -29.5zM236 604h657
q29 167 -42 259.5t-222 92.5q-156 0 -256.5 -98t-136.5 -254zM416 1460h145l168 -268h-143z" />
    <glyph glyph-name="eacute" unicode="&#xe9;" horiz-adv-x="1105" 
d="M492 -23q-201 0 -317 110.5t-116 336.5q0 132 40.5 251t114 210.5t186 145.5t247.5 54q188 0 298 -101t110 -296q0 -123 -29 -205h-807q-2 -16 -2 -47q0 -172 75 -249.5t222 -77.5q230 0 326 188h147q-49 -114 -129.5 -187.5t-170 -103t-195.5 -29.5zM236 604h657
q29 167 -42 259.5t-222 92.5q-156 0 -256.5 -98t-136.5 -254zM553 1192l250 268h147l-248 -268h-149z" />
    <glyph glyph-name="ecircumflex" unicode="&#xea;" horiz-adv-x="1105" 
d="M492 -23q-201 0 -317 110.5t-116 336.5q0 132 40.5 251t114 210.5t186 145.5t247.5 54q188 0 298 -101t110 -296q0 -123 -29 -205h-807q-2 -16 -2 -47q0 -172 75 -249.5t222 -77.5q230 0 326 188h147q-49 -114 -129.5 -187.5t-170 -103t-195.5 -29.5zM236 604h657
q29 167 -42 259.5t-222 92.5q-156 0 -256.5 -98t-136.5 -254zM340 1194l248 266h229l162 -266h-154l-131 211l-192 -211h-162z" />
    <glyph glyph-name="edieresis" unicode="&#xeb;" horiz-adv-x="1105" 
d="M492 -23q-201 0 -317 110.5t-116 336.5q0 132 40.5 251t114 210.5t186 145.5t247.5 54q188 0 298 -101t110 -296q0 -123 -29 -205h-807q-2 -16 -2 -47q0 -172 75 -249.5t222 -77.5q230 0 326 188h147q-49 -114 -129.5 -187.5t-170 -103t-195.5 -29.5zM236 604h657
q29 167 -42 259.5t-222 92.5q-156 0 -256.5 -98t-136.5 -254zM395 1378q0 42 31.5 72.5t73.5 30.5t72 -30.5t30 -72.5q0 -41 -30.5 -71.5t-71.5 -30.5q-42 0 -73.5 30.5t-31.5 71.5zM780 1378q0 42 31.5 72.5t73.5 30.5q41 0 71.5 -30.5t30.5 -72.5q0 -41 -30.5 -71.5
t-71.5 -30.5q-42 0 -73.5 30.5t-31.5 71.5z" />
    <glyph glyph-name="igrave" unicode="&#xec;" horiz-adv-x="356" 
d="M12 0l168 1065h164l-168 -1065h-164zM35 1460h145l168 -268h-143z" />
    <glyph glyph-name="iacute" unicode="&#xed;" horiz-adv-x="356" 
d="M12 0l168 1065h164l-168 -1065h-164zM172 1192l250 268h147l-247 -268h-150z" />
    <glyph glyph-name="icircumflex" unicode="&#xee;" horiz-adv-x="356" 
d="M12 0l168 1065h164l-168 -1065h-164zM-41 1194l248 266h229l162 -266h-154l-131 211l-192 -211h-162z" />
    <glyph glyph-name="idieresis" unicode="&#xef;" horiz-adv-x="356" 
d="M12 0l168 1065h164l-168 -1065h-164zM14 1378q0 42 31.5 72.5t73.5 30.5q41 0 71.5 -30.5t30.5 -72.5q0 -41 -30.5 -71.5t-71.5 -30.5q-42 0 -73.5 30.5t-31.5 71.5zM399 1378q0 42 31.5 72.5t73.5 30.5t72 -30.5t30 -72.5q0 -41 -30.5 -71.5t-71.5 -30.5
q-42 0 -73.5 30.5t-31.5 71.5z" />
    <glyph glyph-name="eth" unicode="&#xf0;" horiz-adv-x="1177" 
d="M479 -20q-189 0 -304.5 112t-115.5 324q0 179 66.5 325.5t197 235t302.5 88.5q170 0 252 -94q-59 135 -142 270h-219l12 86h152q-57 80 -78 107h172l68 -107h288l-12 -86h-223q99 -165 139.5 -284t40.5 -244q0 -151 -41 -284t-116.5 -233t-189 -158t-249.5 -58zM223 434
q0 -158 74.5 -234.5t202.5 -76.5q77 0 143.5 29t113.5 79t81 115.5t50.5 139.5t16.5 151q0 285 -278 285q-131 0 -224.5 -68.5t-136.5 -176.5t-43 -243z" />
    <glyph glyph-name="ntilde" unicode="&#xf1;" horiz-adv-x="1153" 
d="M885 625q25 155 -31 238t-195 83q-137 0 -233 -79.5t-125 -219.5l-102 -647h-164l168 1065h164l-33 -209h4q13 31 42 67t77 74t123 63t161 25q82 0 145 -23t109.5 -74t60.5 -132.5t-1 -198.5l-105 -657h-164zM375 1286q13 96 66 146.5t132 50.5q41 0 74.5 -14.5t55.5 -35
t41.5 -41t43.5 -35t52 -14.5q40 0 67.5 28t30.5 63h106q-13 -96 -66 -146.5t-132 -50.5q-41 0 -73.5 14.5t-54 35t-41.5 40.5t-44.5 34.5t-52.5 14.5q-42 0 -69 -27.5t-30 -62.5h-106z" />
    <glyph glyph-name="ograve" unicode="&#xf2;" horiz-adv-x="1157" 
d="M498 -20q-91 0 -169 27t-139 80.5t-96 141.5t-35 201q0 129 43.5 247.5t120.5 209t191 144.5t245 54q92 0 170 -27t139 -80t95.5 -140.5t34.5 -200.5q0 -103 -27.5 -201t-80.5 -180t-125 -144t-167 -97t-200 -35zM219 444q0 -164 82.5 -244.5t214.5 -80.5q76 0 144 27.5
t118 76t86.5 112t55 137t18.5 149.5q0 165 -82.5 246t-214.5 81q-95 0 -176 -42.5t-134 -113.5t-82.5 -161.5t-29.5 -186.5zM438 1460h146l168 -268h-144z" />
    <glyph glyph-name="oacute" unicode="&#xf3;" horiz-adv-x="1157" 
d="M498 -20q-91 0 -169 27t-139 80.5t-96 141.5t-35 201q0 129 43.5 247.5t120.5 209t191 144.5t245 54q92 0 170 -27t139 -80t95.5 -140.5t34.5 -200.5q0 -103 -27.5 -201t-80.5 -180t-125 -144t-167 -97t-200 -35zM219 444q0 -164 82.5 -244.5t214.5 -80.5q76 0 144 27.5
t118 76t86.5 112t55 137t18.5 149.5q0 165 -82.5 246t-214.5 81q-95 0 -176 -42.5t-134 -113.5t-82.5 -161.5t-29.5 -186.5zM573 1192l250 268h148l-248 -268h-150z" />
    <glyph glyph-name="ocircumflex" unicode="&#xf4;" horiz-adv-x="1157" 
d="M498 -20q-91 0 -169 27t-139 80.5t-96 141.5t-35 201q0 129 43.5 247.5t120.5 209t191 144.5t245 54q92 0 170 -27t139 -80t95.5 -140.5t34.5 -200.5q0 -103 -27.5 -201t-80.5 -180t-125 -144t-167 -97t-200 -35zM219 444q0 -164 82.5 -244.5t214.5 -80.5q76 0 144 27.5
t118 76t86.5 112t55 137t18.5 149.5q0 165 -82.5 246t-214.5 81q-95 0 -176 -42.5t-134 -113.5t-82.5 -161.5t-29.5 -186.5zM362 1194l248 266h230l161 -266h-153l-131 211l-193 -211h-162z" />
    <glyph glyph-name="otilde" unicode="&#xf5;" horiz-adv-x="1157" 
d="M498 -20q-91 0 -169 27t-139 80.5t-96 141.5t-35 201q0 129 43.5 247.5t120.5 209t191 144.5t245 54q92 0 170 -27t139 -80t95.5 -140.5t34.5 -200.5q0 -103 -27.5 -201t-80.5 -180t-125 -144t-167 -97t-200 -35zM219 444q0 -164 82.5 -244.5t214.5 -80.5q76 0 144 27.5
t118 76t86.5 112t55 137t18.5 149.5q0 165 -82.5 246t-214.5 81q-95 0 -176 -42.5t-134 -113.5t-82.5 -161.5t-29.5 -186.5zM375 1286q13 96 66 146.5t132 50.5q41 0 74.5 -14.5t55.5 -35t41.5 -41t43.5 -35t52 -14.5q40 0 67.5 28t30.5 63h106q-13 -96 -66 -146.5
t-132 -50.5q-41 0 -73.5 14.5t-54 35t-41.5 40.5t-44.5 34.5t-52.5 14.5q-42 0 -69 -27.5t-30 -62.5h-106z" />
    <glyph glyph-name="odieresis" unicode="&#xf6;" horiz-adv-x="1157" 
d="M498 -20q-91 0 -169 27t-139 80.5t-96 141.5t-35 201q0 129 43.5 247.5t120.5 209t191 144.5t245 54q92 0 170 -27t139 -80t95.5 -140.5t34.5 -200.5q0 -103 -27.5 -201t-80.5 -180t-125 -144t-167 -97t-200 -35zM219 444q0 -164 82.5 -244.5t214.5 -80.5q76 0 144 27.5
t118 76t86.5 112t55 137t18.5 149.5q0 165 -82.5 246t-214.5 81q-95 0 -176 -42.5t-134 -113.5t-82.5 -161.5t-29.5 -186.5zM416 1378q0 42 31 72.5t73 30.5t72.5 -30.5t30.5 -72.5q0 -41 -31 -71.5t-72 -30.5t-72.5 30.5t-31.5 71.5zM801 1378q0 42 31 72.5t73 30.5
t72.5 -30.5t30.5 -72.5q0 -41 -31 -71.5t-72 -30.5t-72.5 30.5t-31.5 71.5z" />
    <glyph glyph-name="divide" unicode="&#xf7;" horiz-adv-x="847" 
d="M471 817q-33 0 -56.5 23.5t-23.5 56.5q0 32 24 55t56 23t56 -23t24 -55q0 -33 -23.5 -56.5t-56.5 -23.5zM115 510l24 127h609l-25 -127h-608zM291 250q0 33 23.5 56.5t56.5 23.5q32 0 55 -24t23 -56t-23 -56t-55 -24q-33 0 -56.5 23.5t-23.5 56.5z" />
    <glyph glyph-name="oslash" unicode="&#xf8;" horiz-adv-x="1157" 
d="M102 -102l111 170q-154 121 -154 362q0 129 43.5 247.5t120.5 209t191 144.5t245 54q108 0 187 -32l84 131h129l-119 -183q158 -119 158 -364q0 -103 -27.5 -201t-80.5 -180t-125 -144t-167 -97t-200 -35q-106 0 -193 34l-76 -116h-127zM219 444q0 -154 80 -241l465 723
q-51 22 -123 22q-95 0 -176 -42.5t-134 -113.5t-82.5 -161.5t-29.5 -186.5zM387 141q61 -22 129 -22q76 0 144 27.5t118 76t86.5 112t55 137t18.5 149.5q0 164 -84 245z" />
    <glyph glyph-name="ugrave" unicode="&#xf9;" horiz-adv-x="1153" 
d="M268 440q-25 -155 31 -238t195 -83q137 0 233 79.5t125 219.5l102 647h164l-168 -1065h-164l33 209h-4q-13 -31 -42 -67t-77 -74t-123 -63t-161 -25q-82 0 -145 23t-109.5 74t-60.5 132.5t1 198.5l105 657h164zM428 1460h145l168 -268h-143z" />
    <glyph glyph-name="uacute" unicode="&#xfa;" horiz-adv-x="1153" 
d="M268 440q-25 -155 31 -238t195 -83q137 0 233 79.5t125 219.5l102 647h164l-168 -1065h-164l33 209h-4q-13 -31 -42 -67t-77 -74t-123 -63t-161 -25q-82 0 -145 23t-109.5 74t-60.5 132.5t1 198.5l105 657h164zM563 1192l250 268h148l-248 -268h-150z" />
    <glyph glyph-name="ucircumflex" unicode="&#xfb;" horiz-adv-x="1153" 
d="M268 440q-25 -155 31 -238t195 -83q137 0 233 79.5t125 219.5l102 647h164l-168 -1065h-164l33 209h-4q-13 -31 -42 -67t-77 -74t-123 -63t-161 -25q-82 0 -145 23t-109.5 74t-60.5 132.5t1 198.5l105 657h164zM352 1194l248 266h229l162 -266h-153l-131 211l-193 -211
h-162z" />
    <glyph glyph-name="udieresis" unicode="&#xfc;" horiz-adv-x="1153" 
d="M268 440q-25 -155 31 -238t195 -83q137 0 233 79.5t125 219.5l102 647h164l-168 -1065h-164l33 209h-4q-13 -31 -42 -67t-77 -74t-123 -63t-161 -25q-82 0 -145 23t-109.5 74t-60.5 132.5t1 198.5l105 657h164zM406 1378q0 42 31 72.5t73 30.5t72 -30.5t30 -72.5
q0 -41 -30.5 -71.5t-71.5 -30.5t-72.5 30.5t-31.5 71.5zM791 1378q0 42 31 72.5t73 30.5q41 0 71.5 -30.5t30.5 -72.5q0 -41 -30.5 -71.5t-71.5 -30.5t-72.5 30.5t-31.5 71.5z" />
    <glyph glyph-name="yacute" unicode="&#xfd;" 
d="M33 -254q111 -14 183 28t126 134q47 82 31 145l-242 1012h166l195 -875l471 875h172l-639 -1153q-104 -185 -217.5 -256t-266.5 -51zM547 1192l250 268h147l-248 -268h-149z" />
    <glyph glyph-name="thorn" unicode="&#xfe;" horiz-adv-x="1204" 
d="M-29 -389l291 1823h164l-86 -545q68 95 175 145.5t230 50.5q83 0 154.5 -26t127.5 -77t88 -136t32 -195q0 -180 -70.5 -332.5t-203 -245.5t-298.5 -93q-124 0 -216.5 51.5t-131.5 146.5l-90 -567h-166zM266 440q0 -158 85 -239.5t218 -81.5q123 0 220.5 71.5t148.5 184.5
t51 243q0 163 -83.5 246.5t-215.5 83.5q-93 0 -173 -42t-134.5 -112t-85.5 -162.5t-31 -191.5z" />
    <glyph glyph-name="ydieresis" unicode="&#xff;" 
d="M33 -254q111 -14 183 28t126 134q47 82 31 145l-242 1012h166l195 -875l471 875h172l-639 -1153q-104 -185 -217.5 -256t-266.5 -51zM389 1378q0 42 31.5 72.5t73.5 30.5t72 -30.5t30 -72.5q0 -41 -30.5 -71.5t-71.5 -30.5q-42 0 -73.5 30.5t-31.5 71.5zM774 1378
q0 42 31.5 72.5t73.5 30.5q41 0 71.5 -30.5t30.5 -72.5q0 -41 -30.5 -71.5t-71.5 -30.5q-42 0 -73.5 30.5t-31.5 71.5z" />
    <glyph glyph-name="Amacron" unicode="&#x100;" horiz-adv-x="1396" 
d="M-39 0l776 1434h209l320 -1434h-174l-78 358h-680l-191 -358h-182zM406 489h579l-164 762h-10zM590 1726l16 103h604l-16 -103h-604z" />
    <glyph glyph-name="amacron" unicode="&#x101;" 
d="M336 -20q-144 0 -227.5 63t-83.5 190q0 144 103 233.5t284 111.5l270 30q86 11 118.5 26.5t39.5 51.5l6 35q24 131 -34 185.5t-194 54.5q-132 0 -204.5 -48t-89.5 -153l-5 -25h-157l6 39q52 311 473 311q218 0 307.5 -87t59.5 -277l-113 -721h-156l29 180h-8
q-16 -25 -46 -54t-81 -64.5t-129.5 -58.5t-167.5 -23zM188 256q0 -145 199 -145q88 0 164 26.5t125.5 67.5t79.5 87.5t37 90.5l22 152q-20 -39 -164 -54l-219 -26q-114 -14 -179 -63.5t-65 -135.5zM377 1358l16 102h604l-16 -102h-604z" />
    <glyph glyph-name="Abreve" unicode="&#x102;" horiz-adv-x="1396" 
d="M-39 0l776 1434h209l320 -1434h-174l-78 358h-680l-191 -358h-182zM406 489h579l-164 762h-10zM616 1829h113q-13 -162 156 -162q173 0 200 162h115q-19 -116 -100 -189t-228 -73q-150 0 -212.5 74t-43.5 188z" />
    <glyph glyph-name="abreve" unicode="&#x103;" 
d="M336 -20q-144 0 -227.5 63t-83.5 190q0 144 103 233.5t284 111.5l270 30q86 11 118.5 26.5t39.5 51.5l6 35q24 131 -34 185.5t-194 54.5q-132 0 -204.5 -48t-89.5 -153l-5 -25h-157l6 39q52 311 473 311q218 0 307.5 -87t59.5 -277l-113 -721h-156l29 180h-8
q-16 -25 -46 -54t-81 -64.5t-129.5 -58.5t-167.5 -23zM188 256q0 -145 199 -145q88 0 164 26.5t125.5 67.5t79.5 87.5t37 90.5l22 152q-20 -39 -164 -54l-219 -26q-114 -14 -179 -63.5t-65 -135.5zM403 1460h113q-14 -162 156 -162q173 0 200 162h115q-19 -116 -100 -189
t-228 -73q-150 0 -212.5 74t-43.5 188z" />
    <glyph glyph-name="Aogonek" unicode="&#x104;" horiz-adv-x="1396" 
d="M-39 0l776 1434h209l320 -1432l2 -2q-118 0 -192.5 -50.5t-74.5 -131.5q0 -60 44 -85.5t118 -13.5l-14 -98q-46 -14 -95.5 -8.5t-90 23t-67 57t-26.5 94.5q0 86 60 152.5t153 95.5l-69 323h-680l-191 -358h-182zM406 489h579l-164 762h-10z" />
    <glyph glyph-name="aogonek" unicode="&#x105;" 
d="M336 -20q-144 0 -227.5 63t-83.5 190q0 144 103 233.5t284 111.5l270 30q86 11 118.5 26.5t39.5 51.5l6 35q24 131 -34 185.5t-194 54.5q-132 0 -204.5 -48t-89.5 -153l-5 -25h-157l6 39q52 311 473 311q218 0 307.5 -87t59.5 -277l-113 -721q-118 0 -192 -50.5
t-74 -131.5q0 -60 44 -85.5t118 -13.5l-15 -98q-46 -14 -95.5 -8.5t-90 23t-66.5 57t-26 94.5q0 94 71 163.5t176 92.5l23 137h-8q-16 -25 -46 -54t-81 -64.5t-129.5 -58.5t-167.5 -23zM188 256q0 -145 199 -145q88 0 164 26.5t125.5 67.5t79.5 87.5t37 90.5l22 152
q-20 -39 -164 -54l-219 -26q-114 -14 -179 -63.5t-65 -135.5z" />
    <glyph glyph-name="Cacute" unicode="&#x106;" horiz-adv-x="1355" 
d="M666 -20q-259 0 -408 152t-149 450q0 139 32.5 267.5t97 238t154.5 191t213 127.5t264 46q225 0 361 -113t139 -323h-160q-15 143 -108.5 216t-245.5 73q-110 0 -204.5 -40t-162 -108.5t-115.5 -159.5t-71.5 -193t-23.5 -208q0 -230 108.5 -349.5t296.5 -119.5
q151 0 259 75t169 218h164q-67 -218 -228.5 -329t-381.5 -111zM791 1561l249 268h148l-248 -268h-149z" />
    <glyph glyph-name="cacute" unicode="&#x107;" 
d="M498 -20q-93 0 -171 27t-138 80.5t-94 141.5t-34 203q0 131 43 249.5t119.5 208t191 142.5t249.5 53q62 0 117 -11t108.5 -38t91 -69.5t60 -110t20.5 -154.5h-148q-3 126 -78 185t-190 59q-130 0 -229.5 -72t-149 -184.5t-49.5 -243.5q0 -162 79.5 -243.5t219.5 -81.5
q116 0 208.5 59t135.5 189h148q-24 -88 -67.5 -157t-94 -112t-112 -70.5t-119 -38.5t-117.5 -11zM565 1192l250 268h148l-248 -268h-150z" />
    <glyph glyph-name="Ccircumflex" unicode="&#x108;" horiz-adv-x="1355" 
d="M666 -20q-259 0 -408 152t-149 450q0 139 32.5 267.5t97 238t154.5 191t213 127.5t264 46q225 0 361 -113t139 -323h-160q-15 143 -108.5 216t-245.5 73q-110 0 -204.5 -40t-162 -108.5t-115.5 -159.5t-71.5 -193t-23.5 -208q0 -230 108.5 -349.5t296.5 -119.5
q151 0 259 75t169 218h164q-67 -218 -228.5 -329t-381.5 -111zM580 1563l247 266h230l162 -266h-154l-131 211l-193 -211h-161z" />
    <glyph glyph-name="ccircumflex" unicode="&#x109;" 
d="M498 -20q-93 0 -171 27t-138 80.5t-94 141.5t-34 203q0 131 43 249.5t119.5 208t191 142.5t249.5 53q62 0 117 -11t108.5 -38t91 -69.5t60 -110t20.5 -154.5h-148q-3 126 -78 185t-190 59q-130 0 -229.5 -72t-149 -184.5t-49.5 -243.5q0 -162 79.5 -243.5t219.5 -81.5
q116 0 208.5 59t135.5 189h148q-24 -88 -67.5 -157t-94 -112t-112 -70.5t-119 -38.5t-117.5 -11zM354 1194l248 266h229l162 -266h-153l-131 211l-193 -211h-162z" />
    <glyph glyph-name="Cdotaccent" unicode="&#x10a;" horiz-adv-x="1355" 
d="M666 -20q-259 0 -408 152t-149 450q0 139 32.5 267.5t97 238t154.5 191t213 127.5t264 46q225 0 361 -113t139 -323h-160q-15 143 -108.5 216t-245.5 73q-110 0 -204.5 -40t-162 -108.5t-115.5 -159.5t-71.5 -193t-23.5 -208q0 -230 108.5 -349.5t296.5 -119.5
q151 0 259 75t169 218h164q-67 -218 -228.5 -329t-381.5 -111zM827 1747q0 42 31.5 72t73.5 30t72 -30t30 -72q0 -41 -30.5 -71.5t-71.5 -30.5q-42 0 -73.5 30.5t-31.5 71.5z" />
    <glyph glyph-name="cdotaccent" unicode="&#x10b;" 
d="M498 -20q-93 0 -171 27t-138 80.5t-94 141.5t-34 203q0 131 43 249.5t119.5 208t191 142.5t249.5 53q62 0 117 -11t108.5 -38t91 -69.5t60 -110t20.5 -154.5h-148q-3 126 -78 185t-190 59q-130 0 -229.5 -72t-149 -184.5t-49.5 -243.5q0 -162 79.5 -243.5t219.5 -81.5
q116 0 208.5 59t135.5 189h148q-24 -88 -67.5 -157t-94 -112t-112 -70.5t-119 -38.5t-117.5 -11zM602 1378q0 42 31.5 72.5t73.5 30.5q41 0 71.5 -30.5t30.5 -72.5q0 -41 -30.5 -71.5t-71.5 -30.5q-42 0 -73.5 30.5t-31.5 71.5z" />
    <glyph glyph-name="Ccaron" unicode="&#x10c;" horiz-adv-x="1355" 
d="M666 -20q-259 0 -408 152t-149 450q0 139 32.5 267.5t97 238t154.5 191t213 127.5t264 46q225 0 361 -113t139 -323h-160q-15 143 -108.5 216t-245.5 73q-110 0 -204.5 -40t-162 -108.5t-115.5 -159.5t-71.5 -193t-23.5 -208q0 -230 108.5 -349.5t296.5 -119.5
q151 0 259 75t169 218h164q-67 -218 -228.5 -329t-381.5 -111zM621 1829h153l131 -211l193 211h162l-248 -266h-230z" />
    <glyph glyph-name="ccaron" unicode="&#x10d;" 
d="M498 -20q-93 0 -171 27t-138 80.5t-94 141.5t-34 203q0 131 43 249.5t119.5 208t191 142.5t249.5 53q62 0 117 -11t108.5 -38t91 -69.5t60 -110t20.5 -154.5h-148q-3 126 -78 185t-190 59q-130 0 -229.5 -72t-149 -184.5t-49.5 -243.5q0 -162 79.5 -243.5t219.5 -81.5
q116 0 208.5 59t135.5 189h148q-24 -88 -67.5 -157t-94 -112t-112 -70.5t-119 -38.5t-117.5 -11zM395 1460h154l131 -211l192 211h162l-248 -266h-229z" />
    <glyph glyph-name="Dcaron" unicode="&#x10e;" horiz-adv-x="1347" 
d="M35 0l227 1434h459q288 0 431.5 -144.5t143.5 -439.5q0 -181 -52.5 -335.5t-151 -269.5t-250.5 -180t-340 -65h-467zM227 150h275q125 0 228 35.5t176 98.5t123 150.5t73.5 191t23.5 220.5q0 234 -103.5 336t-328.5 102h-288zM563 1829h154l131 -211l192 211h162
l-248 -266h-229z" />
    <glyph glyph-name="dcaron" unicode="&#x10f;" horiz-adv-x="1265" 
d="M1255 1165l189 269h149l-188 -269h-150zM59 416q0 133 41 254t113.5 213t181 147t234.5 55q124 0 217 -50.5t133 -145.5l86 545h164l-228 -1434h-163l28 178q-69 -95 -177.5 -146.5t-229.5 -51.5q-83 0 -153.5 26t-126.5 77.5t-88 137t-32 195.5zM217 449
q0 -164 82.5 -247t214.5 -83q93 0 173 41.5t134.5 111t85.5 159.5t31 187q0 162 -86 246t-217 84q-123 0 -220 -71.5t-147.5 -185t-50.5 -242.5z" />
    <glyph glyph-name="Dcroat" unicode="&#x110;" horiz-adv-x="1394" 
d="M82 0l102 649h-145l22 127h144l104 658h459q288 0 431.5 -144.5t143.5 -439.5q0 -181 -52.5 -335.5t-151 -269.5t-250.5 -180t-340 -65h-467zM274 150h275q125 0 228.5 35.5t176 98.5t122.5 150.5t74 191t24 220.5q0 233 -103.5 335.5t-329.5 102.5h-288l-80 -508h252
l-23 -127h-250z" />
    <glyph glyph-name="dcroat" unicode="&#x111;" horiz-adv-x="1275" 
d="M754 1241l12 86h283l16 107h164l-17 -107h158l-12 -86h-160l-197 -1241h-163l28 178q-69 -95 -177.5 -146.5t-229.5 -51.5q-83 0 -153.5 26t-126.5 77.5t-88 137t-32 195.5q0 133 41 254t113.5 213t181 147t234.5 55q124 0 217 -50.5t133 -145.5l55 352h-280zM217 449
q0 -164 82.5 -247t214.5 -83q93 0 173 41.5t134.5 111t85.5 159.5t31 187q0 162 -86 246t-217 84q-123 0 -220 -71.5t-147.5 -185t-50.5 -242.5z" />
    <glyph glyph-name="Emacron" unicode="&#x112;" horiz-adv-x="1116" 
d="M35 0l227 1434h912l-25 -150h-743l-76 -479h682l-23 -137h-680l-82 -518h762l-22 -150h-932zM465 1726l16 103h604l-16 -103h-604z" />
    <glyph glyph-name="emacron" unicode="&#x113;" horiz-adv-x="1105" 
d="M492 -23q-201 0 -317 110.5t-116 336.5q0 132 40.5 251t114 210.5t186 145.5t247.5 54q188 0 298 -101t110 -296q0 -123 -29 -205h-807q-2 -16 -2 -47q0 -172 75 -249.5t222 -77.5q230 0 326 188h147q-49 -114 -129.5 -187.5t-170 -103t-195.5 -29.5zM236 604h657
q29 167 -42 259.5t-222 92.5q-156 0 -256.5 -98t-136.5 -254zM387 1358l16 102h605l-17 -102h-604z" />
    <glyph glyph-name="Edotaccent" unicode="&#x116;" horiz-adv-x="1116" 
d="M35 0l227 1434h912l-25 -150h-743l-76 -479h682l-23 -137h-680l-82 -518h762l-22 -150h-932zM668 1747q0 42 31 72t73 30t72 -30t30 -72q0 -41 -30.5 -71.5t-71.5 -30.5t-72.5 30.5t-31.5 71.5z" />
    <glyph glyph-name="edotaccent" unicode="&#x117;" horiz-adv-x="1105" 
d="M492 -23q-201 0 -317 110.5t-116 336.5q0 132 40.5 251t114 210.5t186 145.5t247.5 54q188 0 298 -101t110 -296q0 -123 -29 -205h-807q-2 -16 -2 -47q0 -172 75 -249.5t222 -77.5q230 0 326 188h147q-49 -114 -129.5 -187.5t-170 -103t-195.5 -29.5zM236 604h657
q29 167 -42 259.5t-222 92.5q-156 0 -256.5 -98t-136.5 -254zM590 1378q0 42 31 72.5t73 30.5t72.5 -30.5t30.5 -72.5q0 -41 -31 -71.5t-72 -30.5t-72.5 30.5t-31.5 71.5z" />
    <glyph glyph-name="Eogonek" unicode="&#x118;" horiz-adv-x="1116" 
d="M35 0l227 1434h912l-25 -150h-743l-76 -479h682l-23 -137h-680l-82 -518h762l-22 -150q-118 0 -192.5 -50.5t-74.5 -131.5q0 -60 44 -85.5t118 -13.5l-14 -98q-46 -14 -95.5 -8.5t-90 23t-67 57t-26.5 94.5q0 65 37 120.5t99 92.5h-670z" />
    <glyph glyph-name="eogonek" unicode="&#x119;" horiz-adv-x="1105" 
d="M594 -379q-46 -14 -95 -8.5t-89.5 23t-66.5 57t-26 94.5q0 117 105 195q-170 18 -266.5 127t-96.5 315q0 132 40.5 251t114 210.5t186 145.5t247.5 54q188 0 298 -101t110 -296q0 -123 -29 -205h-807q-2 -16 -2 -47q0 -172 75 -249.5t222 -77.5q230 0 326 188h147
q-112 -256 -375 -309q-75 -19 -119 -63.5t-44 -106.5q0 -60 43.5 -85.5t117.5 -13.5zM236 604h657q29 167 -42 259.5t-222 92.5q-156 0 -256.5 -98t-136.5 -254z" />
    <glyph glyph-name="Ecaron" unicode="&#x11a;" horiz-adv-x="1116" 
d="M35 0l227 1434h912l-25 -150h-743l-76 -479h682l-23 -137h-680l-82 -518h762l-22 -150h-932zM461 1829h153l131 -211l193 211h162l-248 -266h-229z" />
    <glyph glyph-name="ecaron" unicode="&#x11b;" horiz-adv-x="1105" 
d="M492 -23q-201 0 -317 110.5t-116 336.5q0 132 40.5 251t114 210.5t186 145.5t247.5 54q188 0 298 -101t110 -296q0 -123 -29 -205h-807q-2 -16 -2 -47q0 -172 75 -249.5t222 -77.5q230 0 326 188h147q-49 -114 -129.5 -187.5t-170 -103t-195.5 -29.5zM236 604h657
q29 167 -42 259.5t-222 92.5q-156 0 -256.5 -98t-136.5 -254zM383 1460h154l131 -211l192 211h162l-248 -266h-229z" />
    <glyph glyph-name="Gcircumflex" unicode="&#x11c;" horiz-adv-x="1429" 
d="M672 -20q-266 0 -413.5 152t-147.5 450q0 175 52.5 332t148.5 277t242.5 190.5t322.5 70.5q215 0 344.5 -100t144.5 -287h-164q-24 120 -110 180t-224 60q-112 0 -208.5 -39.5t-165.5 -107.5t-118 -158.5t-73 -193.5t-24 -212q0 -232 106.5 -349.5t300.5 -117.5
q197 0 326.5 120.5t165.5 354.5l-361 -6l23 139h524l-14 -94q-54 -330 -225.5 -495.5t-452.5 -165.5zM580 1563l247 266h230l162 -266h-154l-131 211l-193 -211h-161z" />
    <glyph glyph-name="gcircumflex" unicode="&#x11d;" horiz-adv-x="1193" 
d="M455 23q-81 0 -151 24t-125 72.5t-86.5 129.5t-31.5 187q0 131 40 249t111 206.5t176.5 141t229.5 52.5q122 0 217.5 -49.5t135.5 -140.5l26 170h164l-149 -940l-17 -109q-16 -103 -60.5 -182.5t-101.5 -128t-130.5 -79.5t-142.5 -42.5t-142 -11.5q-70 0 -133 10.5
t-120.5 35.5t-97 62t-58 94.5t-7.5 129.5h143q-10 -95 69.5 -149t215.5 -54q75 0 139.5 17.5t119 54t92 98.5t50.5 145l17 109l14 88q-72 -92 -180.5 -141t-226.5 -49zM219 471q0 -152 82 -230.5t211 -78.5q121 0 218.5 66t149.5 173.5t52 233.5q0 154 -83.5 233.5
t-215.5 79.5q-121 0 -217 -66.5t-146.5 -174.5t-50.5 -236zM371 1194l247 266h230l162 -266h-154l-131 211l-193 -211h-161z" />
    <glyph glyph-name="Gbreve" unicode="&#x11e;" horiz-adv-x="1429" 
d="M672 -20q-266 0 -413.5 152t-147.5 450q0 175 52.5 332t148.5 277t242.5 190.5t322.5 70.5q215 0 344.5 -100t144.5 -287h-164q-24 120 -110 180t-224 60q-112 0 -208.5 -39.5t-165.5 -107.5t-118 -158.5t-73 -193.5t-24 -212q0 -232 106.5 -349.5t300.5 -117.5
q197 0 326.5 120.5t165.5 354.5l-361 -6l23 139h524l-14 -94q-54 -330 -225.5 -495.5t-452.5 -165.5zM649 1829h113q-14 -162 156 -162q173 0 200 162h115q-19 -116 -100 -189t-228 -73q-150 0 -212.5 74t-43.5 188z" />
    <glyph glyph-name="gbreve" unicode="&#x11f;" horiz-adv-x="1193" 
d="M455 23q-81 0 -151 24t-125 72.5t-86.5 129.5t-31.5 187q0 131 40 249t111 206.5t176.5 141t229.5 52.5q122 0 217.5 -49.5t135.5 -140.5l26 170h164l-149 -940l-17 -109q-16 -103 -60.5 -182.5t-101.5 -128t-130.5 -79.5t-142.5 -42.5t-142 -11.5q-70 0 -133 10.5
t-120.5 35.5t-97 62t-58 94.5t-7.5 129.5h143q-10 -95 69.5 -149t215.5 -54q75 0 139.5 17.5t119 54t92 98.5t50.5 145l17 109l14 88q-72 -92 -180.5 -141t-226.5 -49zM219 471q0 -152 82 -230.5t211 -78.5q121 0 218.5 66t149.5 173.5t52 233.5q0 154 -83.5 233.5
t-215.5 79.5q-121 0 -217 -66.5t-146.5 -174.5t-50.5 -236zM442 1460h113q-13 -162 156 -162q173 0 200 162h115q-19 -116 -100 -189t-228 -73q-150 0 -212.5 74t-43.5 188z" />
    <glyph glyph-name="Gdotaccent" unicode="&#x120;" horiz-adv-x="1429" 
d="M672 -20q-266 0 -413.5 152t-147.5 450q0 175 52.5 332t148.5 277t242.5 190.5t322.5 70.5q215 0 344.5 -100t144.5 -287h-164q-24 120 -110 180t-224 60q-112 0 -208.5 -39.5t-165.5 -107.5t-118 -158.5t-73 -193.5t-24 -212q0 -232 106.5 -349.5t300.5 -117.5
q197 0 326.5 120.5t165.5 354.5l-361 -6l23 139h524l-14 -94q-54 -330 -225.5 -495.5t-452.5 -165.5zM825 1747q0 42 31.5 72t73.5 30t72 -30t30 -72q0 -41 -30.5 -71.5t-71.5 -30.5q-42 0 -73.5 30.5t-31.5 71.5z" />
    <glyph glyph-name="gdotaccent" unicode="&#x121;" horiz-adv-x="1193" 
d="M455 23q-81 0 -151 24t-125 72.5t-86.5 129.5t-31.5 187q0 131 40 249t111 206.5t176.5 141t229.5 52.5q122 0 217.5 -49.5t135.5 -140.5l26 170h164l-149 -940l-17 -109q-16 -103 -60.5 -182.5t-101.5 -128t-130.5 -79.5t-142.5 -42.5t-142 -11.5q-70 0 -133 10.5
t-120.5 35.5t-97 62t-58 94.5t-7.5 129.5h143q-10 -95 69.5 -149t215.5 -54q75 0 139.5 17.5t119 54t92 98.5t50.5 145l17 109l14 88q-72 -92 -180.5 -141t-226.5 -49zM219 471q0 -152 82 -230.5t211 -78.5q121 0 218.5 66t149.5 173.5t52 233.5q0 154 -83.5 233.5
t-215.5 79.5q-121 0 -217 -66.5t-146.5 -174.5t-50.5 -236zM618 1378q0 42 31.5 72.5t73.5 30.5q41 0 71.5 -30.5t30.5 -72.5q0 -41 -30.5 -71.5t-71.5 -30.5q-42 0 -73.5 30.5t-31.5 71.5z" />
    <glyph glyph-name="uni0122" unicode="&#x122;" horiz-adv-x="1429" 
d="M672 -20q-266 0 -413.5 152t-147.5 450q0 175 52.5 332t148.5 277t242.5 190.5t322.5 70.5q215 0 344.5 -100t144.5 -287h-164q-24 120 -110 180t-224 60q-112 0 -208.5 -39.5t-165.5 -107.5t-118 -158.5t-73 -193.5t-24 -212q0 -232 106.5 -349.5t300.5 -117.5
q197 0 326.5 120.5t165.5 354.5l-361 -6l23 139h524l-14 -94q-54 -330 -225.5 -495.5t-452.5 -165.5zM477 -471l12 78q130 9 144 119q-59 0 -92 30t-33 78q0 50 34 84.5t87 34.5q54 0 87.5 -38t33.5 -114q0 -109 -67.5 -190.5t-190.5 -81.5h-15z" />
    <glyph glyph-name="uni0123" unicode="&#x123;" horiz-adv-x="1193" 
d="M455 23q-81 0 -151 24t-125 72.5t-86.5 129.5t-31.5 187q0 131 40 249t111 206.5t176.5 141t229.5 52.5q122 0 217.5 -49.5t135.5 -140.5l26 170h164l-149 -940l-17 -109q-16 -103 -60.5 -182.5t-101.5 -128t-130.5 -79.5t-142.5 -42.5t-142 -11.5q-70 0 -133 10.5
t-120.5 35.5t-97 62t-58 94.5t-7.5 129.5h143q-10 -95 69.5 -149t215.5 -54q75 0 139.5 17.5t119 54t92 98.5t50.5 145l17 109l14 88q-72 -92 -180.5 -141t-226.5 -49zM219 471q0 -152 82 -230.5t211 -78.5q121 0 218.5 66t149.5 173.5t52 233.5q0 154 -83.5 233.5
t-215.5 79.5q-121 0 -217 -66.5t-146.5 -174.5t-50.5 -236zM512 1315q0 109 67.5 190.5t190.5 81.5h14l-12 -78q-66 -5 -101 -33t-42 -85q59 0 92 -30.5t33 -78.5q0 -50 -34 -84.5t-87 -34.5q-54 0 -87.5 38t-33.5 114z" />
    <glyph glyph-name="Hcircumflex" unicode="&#x124;" horiz-adv-x="1327" 
d="M956 0l101 633h-754l-100 -633h-168l227 1434h168l-104 -660h753l105 660h170l-228 -1434h-170zM506 1563l248 266h229l162 -266h-154l-131 211l-192 -211h-162z" />
    <glyph glyph-name="hcircumflex" unicode="&#x125;" horiz-adv-x="1153" 
d="M203 1065l59 369h164l-35 -211l221 237h230l162 -266h-154l-131 211l-193 -211h-139l-20 -129l-33 -209h4q13 31 42 67t77 74t123 63t161 25q82 0 145 -23t109.5 -74t60.5 -132.5t-1 -198.5l-105 -657h-164l99 625q25 155 -31 238t-195 83q-137 0 -233 -79.5t-125 -219.5
l-102 -647h-164z" />
    <glyph glyph-name="Hbar" unicode="&#x126;" horiz-adv-x="1331" 
d="M956 0l101 633h-754l-100 -633h-168l227 1434h168l-51 -322h754l51 322h170l-228 -1434h-170zM326 774h753l31 197h-754z" />
    <glyph glyph-name="hbar" unicode="&#x127;" horiz-adv-x="1153" 
d="M94 1241l12 86h140l16 107h164l-16 -107h299l-13 -86h-301l-28 -176l-33 -209h4q13 31 42 67t77 74t123 63t161 25q82 0 145 -23t109.5 -74t60.5 -132.5t-1 -198.5l-105 -657h-164l99 625q25 155 -31 238t-195 83q-137 0 -233 -79.5t-125 -219.5l-102 -647h-164l168 1065
l28 176h-137z" />
    <glyph glyph-name="Itilde" unicode="&#x128;" horiz-adv-x="405" 
d="M35 0l227 1434h168l-227 -1434h-168zM53 1655q13 96 66.5 146t132.5 50q41 0 74.5 -14.5t55 -35t41 -40.5t43.5 -34.5t52 -14.5q40 0 67.5 27.5t30.5 62.5h107q-13 -96 -66.5 -146t-132.5 -50q-41 0 -73.5 14.5t-54 35t-41.5 40.5t-44.5 34.5t-52.5 14.5
q-42 0 -68.5 -27.5t-29.5 -62.5h-107z" />
    <glyph glyph-name="itilde" unicode="&#x129;" horiz-adv-x="356" 
d="M12 0l168 1065h164l-168 -1065h-164zM-31 1286q13 96 66.5 146.5t132.5 50.5q41 0 74.5 -14.5t55 -35t41 -41t43.5 -35t52 -14.5q40 0 67.5 28t30.5 63h107q-13 -96 -66.5 -146.5t-132.5 -50.5q-41 0 -73.5 14.5t-54 35t-41.5 40.5t-44.5 34.5t-52.5 14.5
q-42 0 -68.5 -27.5t-29.5 -62.5h-107z" />
    <glyph glyph-name="Imacron" unicode="&#x12a;" horiz-adv-x="405" 
d="M35 0l227 1434h168l-227 -1434h-168zM90 1726l16 103h605l-17 -103h-604z" />
    <glyph glyph-name="imacron" unicode="&#x12b;" horiz-adv-x="356" 
d="M12 0l168 1065h164l-168 -1065h-164zM6 1358l17 102h604l-17 -102h-604z" />
    <glyph glyph-name="Iogonek" unicode="&#x12e;" horiz-adv-x="405" 
d="M84 -379q-46 -14 -95.5 -8.5t-90 23t-67 57t-26.5 94.5q0 91 67 159.5t169 94.5l221 1393h168l-227 -1434q-118 0 -192 -50.5t-74 -131.5q0 -60 43.5 -85.5t117.5 -13.5z" />
    <glyph glyph-name="iogonek" unicode="&#x12f;" horiz-adv-x="356" 
d="M313 1276q-41 0 -72.5 30.5t-31.5 71.5q0 42 31 72.5t73 30.5t72.5 -30.5t30.5 -72.5q0 -41 -31 -71.5t-72 -30.5zM-221 -213q0 92 68 161t171 93l162 1024h164l-168 -1065q-118 0 -192 -50.5t-74 -131.5q0 -60 44 -85.5t118 -13.5l-15 -98q-46 -14 -95.5 -8.5t-90 23
t-66.5 57t-26 94.5z" />
    <glyph glyph-name="Idotaccent" unicode="&#x130;" horiz-adv-x="405" 
d="M35 0l227 1434h168l-227 -1434h-168zM293 1747q0 42 31 72t73 30t72.5 -30t30.5 -72q0 -41 -31 -71.5t-72 -30.5t-72.5 30.5t-31.5 71.5z" />
    <glyph glyph-name="dotlessi" unicode="&#x131;" horiz-adv-x="356" 
d="M12 0l168 1065h164l-168 -1065h-164z" />
    <glyph glyph-name="IJ" unicode="&#x132;" horiz-adv-x="1736" 
d="M35 0l227 1434h168l-227 -1434h-168zM526 543h170q-32 -195 56.5 -304.5t267.5 -109.5q178 0 290 109t144 315l139 881h170l-141 -891q-43 -270 -205.5 -416.5t-415.5 -146.5q-256 0 -387 148.5t-88 414.5z" />
    <glyph glyph-name="ij" unicode="&#x133;" horiz-adv-x="817" 
d="M35 0l168 1065h164l-168 -1065h-164zM164 -379l20 129h68q88 0 129 36t55 122l182 1157h164l-188 -1188q-39 -262 -315 -262q-74 0 -115 6zM231 1378q0 42 30.5 72.5t72.5 30.5t73 -30.5t31 -72.5q0 -41 -31.5 -71.5t-72.5 -30.5t-72 30.5t-31 71.5zM647 1378
q0 42 31.5 72.5t73.5 30.5t72 -30.5t30 -72.5q0 -41 -30.5 -71.5t-71.5 -30.5q-42 0 -73.5 30.5t-31.5 71.5z" />
    <glyph glyph-name="Jcircumflex" unicode="&#x134;" horiz-adv-x="1331" 
d="M596 -20q-256 0 -387 148.5t-88 414.5h170q-32 -196 56 -305t267 -109q178 0 290.5 109t144.5 315l139 881h170l-141 -891q-43 -270 -205.5 -416.5t-415.5 -146.5zM969 1563l248 266h229l162 -266h-154l-131 211l-193 -211h-161z" />
    <glyph glyph-name="jcircumflex" unicode="&#x135;" horiz-adv-x="413" 
d="M-102 -385q-74 0 -115 6l20 129h68q88 0 129 36t55 122l183 1157h163l-188 -1188q-41 -262 -315 -262zM18 1194l248 266h230l161 -266h-153l-131 211l-193 -211h-162z" />
    <glyph glyph-name="uni0136" unicode="&#x136;" horiz-adv-x="1300" 
d="M35 0l227 1434h168l-127 -799l840 799h205l-699 -662l522 -772h-196l-449 655l-258 -245l-65 -410h-168zM397 -471l13 78q66 5 101 33.5t42 85.5q-59 0 -92 30t-33 78q0 50 34 84.5t87 34.5q54 0 87.5 -38t33.5 -114q0 -109 -67.5 -190.5t-190.5 -81.5h-15z" />
    <glyph glyph-name="uni0137" unicode="&#x137;" horiz-adv-x="1105" 
d="M35 0l227 1434h164l-150 -940l642 571h188l-526 -461l417 -604h-180l-352 502l-217 -191l-49 -311h-164zM303 -471l12 78q130 9 144 119q-59 0 -92 30t-33 78q0 50 34 84.5t87 34.5q54 0 87 -38t33 -114q0 -109 -67.5 -190.5t-190.5 -81.5h-14z" />
    <glyph glyph-name="Lacute" unicode="&#x139;" horiz-adv-x="1087" 
d="M35 0l227 1434h168l-203 -1284h734l-23 -150h-903zM279 1561l249 268h148l-248 -268h-149z" />
    <glyph glyph-name="lacute" unicode="&#x13a;" horiz-adv-x="399" 
d="M35 0l227 1434h164l-227 -1434h-164zM254 1561l250 268h147l-248 -268h-149z" />
    <glyph glyph-name="uni013B" unicode="&#x13b;" horiz-adv-x="1087" 
d="M35 0l227 1434h168l-203 -1284h734l-23 -150h-903zM297 -481l12 78q66 5 101.5 33t42.5 85q-59 0 -92 30.5t-33 78.5q0 50 34 84.5t87 34.5q54 0 87 -38t33 -114q0 -109 -67.5 -190.5t-190.5 -81.5h-14z" />
    <glyph glyph-name="uni013C" unicode="&#x13c;" horiz-adv-x="399" 
d="M35 0l227 1434h164l-227 -1434h-164zM-68 -471l13 78q67 4 102 33t43 86q-59 0 -93 30t-34 78q0 50 35 84.5t88 34.5q54 0 87.5 -38t33.5 -114q0 -69 -27 -129t-87.5 -101.5t-145.5 -41.5h-15z" />
    <glyph glyph-name="Lcaron" unicode="&#x13d;" horiz-adv-x="1087" 
d="M35 0l227 1434h168l-203 -1284h734l-23 -150h-903zM588 1030l12 78q66 5 101 33.5t42 85.5q-59 0 -92 30t-33 78q0 50 34 84.5t87 34.5q54 0 87.5 -37.5t33.5 -113.5q0 -109 -67.5 -191t-190.5 -82h-14z" />
    <glyph glyph-name="lcaron" unicode="&#x13e;" horiz-adv-x="460" 
d="M422 934l131 500h143l-131 -500h-143zM35 0l227 1434h164l-227 -1434h-164z" />
    <glyph glyph-name="Lslash" unicode="&#x141;" horiz-adv-x="1150" 
d="M6 342l29 176l170 152l121 764h168l-93 -588l275 248h2l-27 -174l-278 -250l-82 -520h733l-23 -150h-903l78 496z" />
    <glyph glyph-name="lslash" unicode="&#x142;" horiz-adv-x="452" 
d="M-20 348l28 174l168 185l115 727h164l-80 -508l153 170h2l-26 -170l-158 -174l-119 -752h-164l84 535z" />
    <glyph glyph-name="Nacute" unicode="&#x143;" horiz-adv-x="1351" 
d="M35 0l227 1434h189l567 -1172h4l186 1172h170l-227 -1434h-195l-563 1167h-6l-184 -1167h-168zM731 1561l250 268h147l-247 -268h-150z" />
    <glyph glyph-name="nacute" unicode="&#x144;" horiz-adv-x="1153" 
d="M885 625q25 155 -31 238t-195 83q-137 0 -233 -79.5t-125 -219.5l-102 -647h-164l168 1065h164l-33 -209h4q13 31 42 67t77 74t123 63t161 25q82 0 145 -23t109.5 -74t60.5 -132.5t-1 -198.5l-105 -657h-164zM573 1192l250 268h148l-248 -268h-150z" />
    <glyph glyph-name="uni0145" unicode="&#x145;" horiz-adv-x="1351" 
d="M35 0l227 1434h189l567 -1172h4l186 1172h170l-227 -1434h-195l-563 1167h-6l-184 -1167h-168zM412 -471l12 78q66 5 101 33.5t42 85.5q-59 0 -92 30t-33 78q0 50 34 84.5t87 34.5q54 0 87.5 -38t33.5 -114q0 -109 -67.5 -190.5t-190.5 -81.5h-14z" />
    <glyph glyph-name="uni0146" unicode="&#x146;" horiz-adv-x="1153" 
d="M885 625q25 155 -31 238t-195 83q-137 0 -233 -79.5t-125 -219.5l-102 -647h-164l168 1065h164l-33 -209h4q13 31 42 67t77 74t123 63t161 25q82 0 145 -23t109.5 -74t60.5 -132.5t-1 -198.5l-105 -657h-164zM313 -471l13 78q66 5 101 33.5t42 85.5q-59 0 -92 30t-33 78
q0 50 34 84.5t87 34.5q54 0 87.5 -38t33.5 -114q0 -109 -67.5 -190.5t-190.5 -81.5h-15z" />
    <glyph glyph-name="Ncaron" unicode="&#x147;" horiz-adv-x="1351" 
d="M35 0l227 1434h189l567 -1172h4l186 1172h170l-227 -1434h-195l-563 1167h-6l-184 -1167h-168zM563 1829h154l131 -211l192 211h162l-248 -266h-229z" />
    <glyph glyph-name="ncaron" unicode="&#x148;" horiz-adv-x="1153" 
d="M885 625q25 155 -31 238t-195 83q-137 0 -233 -79.5t-125 -219.5l-102 -647h-164l168 1065h164l-33 -209h4q13 31 42 67t77 74t123 63t161 25q82 0 145 -23t109.5 -74t60.5 -132.5t-1 -198.5l-105 -657h-164zM406 1460h153l131 -211l193 211h161l-247 -266h-230z" />
    <glyph glyph-name="Eng" unicode="&#x14a;" horiz-adv-x="1355" 
d="M535 -451q-148 0 -242 52l24 159q96 -61 236 -61q150 0 258 74t160 215l-578 1177h-6l-184 -1165h-168l227 1434h184l576 -1174h4l186 1174h170l-211 -1321q-42 -268 -212 -416t-424 -148z" />
    <glyph glyph-name="eng" unicode="&#x14b;" horiz-adv-x="1153" 
d="M618 -451q-119 0 -184 43l21 138q82 -37 153 -37q67 0 105 42t49 113l24 152l99 625q25 155 -31 238t-195 83q-137 0 -233 -79.5t-125 -219.5l-102 -647h-164l168 1065h164l-33 -209h4q13 31 42 67t77 74t123 63t161 25q82 0 145 -23t109.5 -74t60.5 -132.5t-1 -198.5
l-105 -657l-26 -166q-45 -285 -306 -285z" />
    <glyph glyph-name="Omacron" unicode="&#x14c;" horiz-adv-x="1470" 
d="M662 -20q-254 0 -403.5 153.5t-149.5 444.5q0 173 53 330.5t149 278.5t240.5 193t316.5 72q255 0 404 -153t149 -445q0 -137 -33.5 -266t-99 -239t-156 -192.5t-212 -129.5t-258.5 -47zM279 582q0 -227 105 -341t288 -114q110 0 204.5 41t162.5 111t116.5 162.5t72 196.5
t23.5 212q0 227 -105.5 341t-287.5 114q-136 0 -248.5 -62.5t-183 -165.5t-109 -231t-38.5 -264zM625 1726l16 103h604l-16 -103h-604z" />
    <glyph glyph-name="omacron" unicode="&#x14d;" horiz-adv-x="1157" 
d="M498 -20q-91 0 -169 27t-139 80.5t-96 141.5t-35 201q0 129 43.5 247.5t120.5 209t191 144.5t245 54q92 0 170 -27t139 -80t95.5 -140.5t34.5 -200.5q0 -103 -27.5 -201t-80.5 -180t-125 -144t-167 -97t-200 -35zM219 444q0 -164 82.5 -244.5t214.5 -80.5q76 0 144 27.5
t118 76t86.5 112t55 137t18.5 149.5q0 165 -82.5 246t-214.5 81q-95 0 -176 -42.5t-134 -113.5t-82.5 -161.5t-29.5 -186.5zM408 1358l16 102h604l-16 -102h-604z" />
    <glyph glyph-name="Ohungarumlaut" unicode="&#x150;" horiz-adv-x="1470" 
d="M662 -20q-254 0 -403.5 153.5t-149.5 444.5q0 173 53 330.5t149 278.5t240.5 193t316.5 72q255 0 404 -153t149 -445q0 -137 -33.5 -266t-99 -239t-156 -192.5t-212 -129.5t-258.5 -47zM279 582q0 -227 105 -341t288 -114q110 0 204.5 41t162.5 111t116.5 162.5t72 196.5
t23.5 212q0 227 -105.5 341t-287.5 114q-136 0 -248.5 -62.5t-183 -165.5t-109 -231t-38.5 -264zM641 1561l250 268h147l-247 -268h-150zM930 1561l250 268h147l-248 -268h-149z" />
    <glyph glyph-name="ohungarumlaut" unicode="&#x151;" horiz-adv-x="1157" 
d="M498 -20q-91 0 -169 27t-139 80.5t-96 141.5t-35 201q0 129 43.5 247.5t120.5 209t191 144.5t245 54q92 0 170 -27t139 -80t95.5 -140.5t34.5 -200.5q0 -103 -27.5 -201t-80.5 -180t-125 -144t-167 -97t-200 -35zM219 444q0 -164 82.5 -244.5t214.5 -80.5q76 0 144 27.5
t118 76t86.5 112t55 137t18.5 149.5q0 165 -82.5 246t-214.5 81q-95 0 -176 -42.5t-134 -113.5t-82.5 -161.5t-29.5 -186.5zM426 1192l250 268h147l-248 -268h-149zM715 1192l250 268h147l-248 -268h-149z" />
    <glyph glyph-name="OE" unicode="&#x152;" horiz-adv-x="2217" 
d="M662 -20q-254 0 -403.5 153.5t-149.5 444.5q0 173 53 330.5t149 278.5t240.5 193t316.5 72q320 0 463 -229l33 211h911l-24 -150h-744l-75 -479h682l-23 -137h-680l-82 -518h762l-23 -150h-931l30 188q-208 -208 -505 -208zM279 582q0 -227 105 -341t288 -114
q110 0 204.5 41t162.5 111t116.5 162.5t72 196.5t23.5 212q0 227 -105.5 341t-287.5 114q-136 0 -248.5 -62.5t-183 -165.5t-109 -231t-38.5 -264z" />
    <glyph glyph-name="oe" unicode="&#x153;" horiz-adv-x="1978" 
d="M498 -20q-91 0 -169 27t-139 80.5t-96 141.5t-35 201q0 129 43.5 247.5t120.5 209t191 144.5t245 54q138 0 243.5 -59t156.5 -176q78 110 195.5 172.5t265.5 62.5q188 0 297.5 -101t109.5 -296q0 -123 -29 -205h-806q-2 -16 -2 -47q0 -172 74.5 -249.5t221.5 -77.5
q230 0 326 188h148q-49 -114 -129.5 -187.5t-170.5 -103t-196 -29.5q-147 0 -251 60t-148 182q-80 -112 -200.5 -175.5t-266.5 -63.5zM219 444q0 -164 82.5 -244.5t214.5 -80.5q76 0 144 27.5t118 76t86.5 112t55 137t18.5 149.5q0 165 -82.5 246t-214.5 81
q-95 0 -176 -42.5t-134 -113.5t-82.5 -161.5t-29.5 -186.5zM1108 604h657q29 167 -42 259.5t-222 92.5q-156 0 -256.5 -98t-136.5 -254z" />
    <glyph glyph-name="Racute" unicode="&#x154;" horiz-adv-x="1316" 
d="M954 0q-34 42 -4 238l19 116q20 125 -42.5 178.5t-176.5 53.5h-455l-92 -586h-168l227 1434h567q213 0 318.5 -90.5t105.5 -256.5q0 -148 -81.5 -260t-223.5 -159q124 -32 169 -107t24 -203l-21 -120q-30 -196 4 -238h-170zM317 725h390q172 0 271 91.5t99 238.5
q0 119 -70.5 175t-211.5 56h-387zM672 1561l250 268h147l-248 -268h-149z" />
    <glyph glyph-name="racute" unicode="&#x155;" horiz-adv-x="747" 
d="M35 0l168 1065h164l-37 -238h4q42 99 137 172.5t236 73.5q48 0 79 -10l-22 -139q-40 6 -78 6q-154 0 -258.5 -91.5t-136.5 -252.5l-92 -586h-164zM391 1192l250 268h147l-247 -268h-150z" />
    <glyph glyph-name="uni0156" unicode="&#x156;" horiz-adv-x="1316" 
d="M954 0q-34 42 -4 238l19 116q20 125 -42.5 178.5t-176.5 53.5h-455l-92 -586h-168l227 1434h567q213 0 318.5 -90.5t105.5 -256.5q0 -148 -81.5 -260t-223.5 -159q124 -32 169 -107t24 -203l-21 -120q-30 -196 4 -238h-170zM317 725h390q172 0 271 91.5t99 238.5
q0 119 -70.5 175t-211.5 56h-387zM352 -471l13 78q66 5 101 33.5t42 85.5q-59 0 -92 30t-33 78q0 50 34 84.5t87 34.5q54 0 87.5 -38t33.5 -114q0 -109 -67.5 -190.5t-190.5 -81.5h-15z" />
    <glyph glyph-name="uni0157" unicode="&#x157;" horiz-adv-x="747" 
d="M35 0l168 1065h164l-37 -238h4q42 99 137 172.5t236 73.5q48 0 79 -10l-22 -139q-40 6 -78 6q-154 0 -258.5 -91.5t-136.5 -252.5l-92 -586h-164zM-66 -471l13 78q67 4 102 33t43 86q-59 0 -93 30t-34 78q0 50 35 84.5t88 34.5q54 0 87.5 -38t33.5 -114q0 -69 -27 -129
t-87.5 -101.5t-145.5 -41.5h-15z" />
    <glyph glyph-name="Rcaron" unicode="&#x158;" horiz-adv-x="1316" 
d="M954 0q-34 42 -4 238l19 116q20 125 -42.5 178.5t-176.5 53.5h-455l-92 -586h-168l227 1434h567q213 0 318.5 -90.5t105.5 -256.5q0 -148 -81.5 -260t-223.5 -159q124 -32 169 -107t24 -203l-21 -120q-30 -196 4 -238h-170zM317 725h390q172 0 271 91.5t99 238.5
q0 119 -70.5 175t-211.5 56h-387zM502 1829h153l131 -211l193 211h162l-248 -266h-229z" />
    <glyph glyph-name="rcaron" unicode="&#x159;" horiz-adv-x="747" 
d="M35 0l168 1065h164l-37 -238h4q42 99 137 172.5t236 73.5q48 0 79 -10l-22 -139q-40 6 -78 6q-154 0 -258.5 -91.5t-136.5 -252.5l-92 -586h-164zM223 1460h154l131 -211l192 211h162l-248 -266h-229z" />
    <glyph glyph-name="Sacute" unicode="&#x15a;" horiz-adv-x="1255" 
d="M553 -20q-259 0 -386.5 121t-96.5 317h170q-13 -131 70 -212t265 -81q181 0 286.5 81t105.5 218q0 104 -62 154t-190 77l-170 35q-166 36 -251 118t-85 220q0 194 153 309t396 115q231 0 352.5 -103.5t95.5 -277.5h-170q11 106 -65 172t-232 66q-162 0 -257 -73t-95 -196
q0 -86 55 -139.5t179 -79.5l165 -35q180 -38 270.5 -116.5t90.5 -229.5q0 -141 -77 -246t-211 -159.5t-306 -54.5zM672 1561l250 268h147l-248 -268h-149z" />
    <glyph glyph-name="sacute" unicode="&#x15b;" horiz-adv-x="983" 
d="M414 -20q-190 0 -301.5 82t-92.5 241h150q-2 -52 18.5 -90.5t58.5 -60t83.5 -31.5t99.5 -10q128 0 209.5 52.5t81.5 149.5q0 66 -41 98t-133 54l-174 43q-124 31 -184 93t-60 161q0 150 122.5 236.5t317.5 86.5q181 0 279.5 -80t83.5 -235h-139q0 184 -238 184
q-123 0 -195.5 -45t-72.5 -129q0 -57 39 -92.5t131 -58.5l172 -43q129 -33 195.5 -89t66.5 -167q0 -112 -66 -192.5t-172.5 -119t-238.5 -38.5zM487 1192l250 268h148l-248 -268h-150z" />
    <glyph glyph-name="Scircumflex" unicode="&#x15c;" horiz-adv-x="1255" 
d="M553 -20q-259 0 -386.5 121t-96.5 317h170q-13 -131 70 -212t265 -81q181 0 286.5 81t105.5 218q0 104 -62 154t-190 77l-170 35q-166 36 -251 118t-85 220q0 194 153 309t396 115q231 0 352.5 -103.5t95.5 -277.5h-170q11 106 -65 172t-232 66q-162 0 -257 -73t-95 -196
q0 -86 55 -139.5t179 -79.5l165 -35q180 -38 270.5 -116.5t90.5 -229.5q0 -141 -77 -246t-211 -159.5t-306 -54.5zM461 1563l248 266h229l162 -266h-154l-131 211l-192 -211h-162z" />
    <glyph glyph-name="scircumflex" unicode="&#x15d;" horiz-adv-x="983" 
d="M414 -20q-190 0 -301.5 82t-92.5 241h150q-2 -52 18.5 -90.5t58.5 -60t83.5 -31.5t99.5 -10q128 0 209.5 52.5t81.5 149.5q0 66 -41 98t-133 54l-174 43q-124 31 -184 93t-60 161q0 150 122.5 236.5t317.5 86.5q181 0 279.5 -80t83.5 -235h-139q0 184 -238 184
q-123 0 -195.5 -45t-72.5 -129q0 -57 39 -92.5t131 -58.5l172 -43q129 -33 195.5 -89t66.5 -167q0 -112 -66 -192.5t-172.5 -119t-238.5 -38.5zM276 1194l248 266h230l161 -266h-153l-131 211l-193 -211h-162z" />
    <glyph glyph-name="Scedilla" unicode="&#x15e;" horiz-adv-x="1255" 
d="M358 -360q78 -2 127.5 27.5t49.5 80.5q0 48 -42 64.5t-102 -9.5l-45 64l117 117q-215 21 -318 138.5t-75 295.5h170q-13 -131 70 -212t265 -81q181 0 286.5 81t105.5 218q0 104 -62 154t-190 77l-170 35q-166 36 -251 118t-85 220q0 194 153 309t396 115
q231 0 352.5 -103.5t95.5 -277.5h-170q11 106 -65 172t-232 66q-162 0 -257 -73t-95 -196q0 -86 55 -139.5t179 -79.5l165 -35q180 -38 270.5 -116.5t90.5 -229.5q0 -206 -156.5 -329t-408.5 -131l-90 -84q8 2 26 2q60 0 98.5 -36.5t38.5 -103.5q0 -71 -44.5 -120.5
t-113.5 -72t-155 -22.5z" />
    <glyph glyph-name="scedilla" unicode="&#x15f;" horiz-adv-x="983" 
d="M236 -360q78 -2 127 27t49 81q0 48 -42 64.5t-102 -9.5l-45 64l117 117q-160 14 -249 95t-71 224h150q-2 -52 18.5 -90.5t58.5 -60t83.5 -31.5t99.5 -10q128 0 209.5 52.5t81.5 149.5q0 66 -41 98t-133 54l-174 43q-124 31 -184 93t-60 161q0 150 122.5 236.5t317.5 86.5
q181 0 279.5 -80t83.5 -235h-139q0 184 -238 184q-123 0 -195.5 -45t-72.5 -129q0 -57 39 -92.5t131 -58.5l172 -43q129 -33 195.5 -89t66.5 -167q0 -156 -121.5 -247.5t-308.5 -100.5l-92 -86q8 2 26 2q60 0 98.5 -36.5t38.5 -103.5q0 -71 -44.5 -120.5t-113.5 -72
t-155 -22.5z" />
    <glyph glyph-name="Scaron" unicode="&#x160;" horiz-adv-x="1255" 
d="M553 -20q-259 0 -386.5 121t-96.5 317h170q-13 -131 70 -212t265 -81q181 0 286.5 81t105.5 218q0 104 -62 154t-190 77l-170 35q-166 36 -251 118t-85 220q0 194 153 309t396 115q231 0 352.5 -103.5t95.5 -277.5h-170q11 106 -65 172t-232 66q-162 0 -257 -73t-95 -196
q0 -86 55 -139.5t179 -79.5l165 -35q180 -38 270.5 -116.5t90.5 -229.5q0 -141 -77 -246t-211 -159.5t-306 -54.5zM502 1829h153l131 -211l193 211h162l-248 -266h-229z" />
    <glyph glyph-name="scaron" unicode="&#x161;" horiz-adv-x="983" 
d="M414 -20q-190 0 -301.5 82t-92.5 241h150q-2 -52 18.5 -90.5t58.5 -60t83.5 -31.5t99.5 -10q128 0 209.5 52.5t81.5 149.5q0 66 -41 98t-133 54l-174 43q-124 31 -184 93t-60 161q0 150 122.5 236.5t317.5 86.5q181 0 279.5 -80t83.5 -235h-139q0 184 -238 184
q-123 0 -195.5 -45t-72.5 -129q0 -57 39 -92.5t131 -58.5l172 -43q129 -33 195.5 -89t66.5 -167q0 -112 -66 -192.5t-172.5 -119t-238.5 -38.5zM317 1460h154l131 -211l193 211h161l-247 -266h-230z" />
    <glyph glyph-name="uni0162" unicode="&#x162;" horiz-adv-x="1187" 
d="M426 0l203 1284h-453l25 150h1073l-25 -150h-452l-203 -1284h-43l-113 -104q8 2 27 2q60 0 98.5 -36.5t38.5 -103.5q0 -71 -44.5 -120.5t-113.5 -72t-155 -22.5l16 97q78 -2 127 27t49 81q0 48 -41.5 64.5t-101.5 -9.5l-45 64z" />
    <glyph glyph-name="uni0163" unicode="&#x163;" horiz-adv-x="665" 
d="M408 -14h-11l-96 -90q8 2 27 2q60 0 98.5 -36.5t38.5 -103.5q0 -71 -44.5 -120.5t-113.5 -72t-155 -22.5l16 97q78 -2 127 27t49 81q0 48 -41.5 64.5t-101.5 -9.5l-45 64l133 133h8q-155 49 -123 250l109 684h-172l20 131h172l41 266h164l-43 -266h213l-19 -131h-215
l-102 -653q-14 -86 16 -123t115 -37h72l-21 -129q-39 -6 -116 -6z" />
    <glyph glyph-name="Tcaron" unicode="&#x164;" horiz-adv-x="1187" 
d="M426 0l203 1284h-453l25 150h1073l-25 -150h-452l-203 -1284h-168zM477 1829h154l131 -211l192 211h162l-248 -266h-229z" />
    <glyph glyph-name="tcaron" unicode="&#x165;" horiz-adv-x="651" 
d="M408 -14q-276 0 -234 264l109 684h-172l20 131h172l41 266h164l-43 -266h213l-19 -131h-215l-102 -653q-14 -86 16 -123t115 -37h72l-21 -129q-39 -6 -116 -6zM539 1186l249 268h148l-248 -268h-149z" />
    <glyph glyph-name="Tbar" unicode="&#x166;" horiz-adv-x="1187" 
d="M283 920l20 120h287l39 244h-453l25 150h1073l-25 -150h-452l-39 -244h289l-21 -120h-287l-145 -920h-168l145 920h-288z" />
    <glyph glyph-name="tbar" unicode="&#x167;" horiz-adv-x="665" 
d="M63 643l21 131h172l27 160h-172l20 131h172l41 266h164l-43 -266h213l-19 -131h-215l-24 -160h213l-21 -131h-213l-57 -362q-14 -86 16 -123t115 -37h72l-21 -129q-39 -6 -116 -6q-276 0 -234 264l62 393h-173z" />
    <glyph glyph-name="Utilde" unicode="&#x168;" horiz-adv-x="1337" 
d="M588 -20q-257 0 -383 147.5t-84 415.5l141 891h170l-141 -881q-32 -203 54.5 -313.5t268.5 -110.5q180 0 293.5 109.5t145.5 314.5l139 881h170l-141 -891q-42 -269 -209.5 -416t-423.5 -147zM518 1655q13 96 66.5 146t132.5 50q41 0 74.5 -14.5t55 -35t41 -40.5
t43.5 -34.5t52 -14.5q40 0 67.5 27.5t30.5 62.5h107q-13 -96 -66.5 -146t-132.5 -50q-41 0 -73.5 14.5t-54 35t-41.5 40.5t-44.5 34.5t-52.5 14.5q-42 0 -68.5 -27.5t-29.5 -62.5h-107z" />
    <glyph glyph-name="utilde" unicode="&#x169;" horiz-adv-x="1153" 
d="M268 440q-25 -155 31 -238t195 -83q137 0 233 79.5t125 219.5l102 647h164l-168 -1065h-164l33 209h-4q-13 -31 -42 -67t-77 -74t-123 -63t-161 -25q-82 0 -145 23t-109.5 74t-60.5 132.5t1 198.5l105 657h164zM365 1286q13 96 66 146.5t132 50.5q41 0 74.5 -14.5t55 -35
t41 -41t43.5 -35t52 -14.5q40 0 68 28t31 63h106q-13 -96 -66 -146.5t-132 -50.5q-41 0 -73.5 14.5t-54.5 35t-42 40.5t-44.5 34.5t-52.5 14.5q-42 0 -68.5 -27.5t-29.5 -62.5h-106z" />
    <glyph glyph-name="Umacron" unicode="&#x16a;" horiz-adv-x="1337" 
d="M588 -20q-257 0 -383 147.5t-84 415.5l141 891h170l-141 -881q-32 -203 54.5 -313.5t268.5 -110.5q180 0 293.5 109.5t145.5 314.5l139 881h170l-141 -891q-42 -269 -209.5 -416t-423.5 -147zM551 1726l16 103h604l-16 -103h-604z" />
    <glyph glyph-name="umacron" unicode="&#x16b;" horiz-adv-x="1153" 
d="M268 440q-25 -155 31 -238t195 -83q137 0 233 79.5t125 219.5l102 647h164l-168 -1065h-164l33 209h-4q-13 -31 -42 -67t-77 -74t-123 -63t-161 -25q-82 0 -145 23t-109.5 74t-60.5 132.5t1 198.5l105 657h164zM397 1358l17 102h604l-17 -102h-604z" />
    <glyph glyph-name="Ubreve" unicode="&#x16c;" horiz-adv-x="1337" 
d="M588 -20q-257 0 -383 147.5t-84 415.5l141 891h170l-141 -881q-32 -203 54.5 -313.5t268.5 -110.5q180 0 293.5 109.5t145.5 314.5l139 881h170l-141 -891q-42 -269 -209.5 -416t-423.5 -147zM578 1829h112q-14 -162 156 -162q174 0 201 162h114q-19 -116 -99.5 -189
t-227.5 -73q-150 0 -212.5 74t-43.5 188z" />
    <glyph glyph-name="ubreve" unicode="&#x16d;" horiz-adv-x="1153" 
d="M268 440q-25 -155 31 -238t195 -83q137 0 233 79.5t125 219.5l102 647h164l-168 -1065h-164l33 209h-4q-13 -31 -42 -67t-77 -74t-123 -63t-161 -25q-82 0 -145 23t-109.5 74t-60.5 132.5t1 198.5l105 657h164zM424 1460h113q-13 -162 155 -162q174 0 201 162h115
q-19 -116 -100 -189t-228 -73q-150 0 -212.5 74t-43.5 188z" />
    <glyph glyph-name="Uring" unicode="&#x16e;" horiz-adv-x="1337" 
d="M588 -20q-257 0 -383 147.5t-84 415.5l141 891h170l-141 -881q-32 -203 54.5 -313.5t268.5 -110.5q180 0 293.5 109.5t145.5 314.5l139 881h170l-141 -891q-42 -269 -209.5 -416t-423.5 -147zM672 1712q0 73 52 124.5t128 51.5t128 -51.5t52 -124.5q0 -72 -52 -123
t-128 -51t-128 51t-52 123zM760 1712q0 -39 26.5 -65.5t65.5 -26.5q40 0 67 26t27 66t-27 67t-67 27q-38 0 -65 -27t-27 -67z" />
    <glyph glyph-name="uring" unicode="&#x16f;" horiz-adv-x="1153" 
d="M268 440q-25 -155 31 -238t195 -83q137 0 233 79.5t125 219.5l102 647h164l-168 -1065h-164l33 209h-4q-13 -31 -42 -67t-77 -74t-123 -63t-161 -25q-82 0 -145 23t-109.5 74t-60.5 132.5t1 198.5l105 657h164zM518 1343q0 73 52 125t128 52t128.5 -52t52.5 -125
q0 -72 -52.5 -123t-128.5 -51t-128 51t-52 123zM606 1343q0 -39 26.5 -65.5t65.5 -26.5q40 0 67.5 26.5t27.5 65.5q0 40 -27.5 67.5t-67.5 27.5q-38 0 -65 -27.5t-27 -67.5z" />
    <glyph glyph-name="Uhungarumlaut" unicode="&#x170;" horiz-adv-x="1337" 
d="M588 -20q-257 0 -383 147.5t-84 415.5l141 891h170l-141 -881q-32 -203 54.5 -313.5t268.5 -110.5q180 0 293.5 109.5t145.5 314.5l139 881h170l-141 -891q-42 -269 -209.5 -416t-423.5 -147zM569 1561l250 268h148l-248 -268h-150zM858 1561l250 268h147l-247 -268h-150
z" />
    <glyph glyph-name="uhungarumlaut" unicode="&#x171;" horiz-adv-x="1153" 
d="M268 440q-25 -155 31 -238t195 -83q137 0 233 79.5t125 219.5l102 647h164l-168 -1065h-164l33 209h-4q-13 -31 -42 -67t-77 -74t-123 -63t-161 -25q-82 0 -145 23t-109.5 74t-60.5 132.5t1 198.5l105 657h164zM416 1192l250 268h147l-248 -268h-149zM705 1192l249 268
h148l-248 -268h-149z" />
    <glyph glyph-name="Uogonek" unicode="&#x172;" horiz-adv-x="1337" 
d="M694 -379q-46 -14 -95 -8.5t-89 23t-66 57t-26 94.5q0 120 106 195q-226 19 -334 164.5t-69 396.5l141 891h170l-141 -881q-32 -203 54.5 -313.5t268.5 -110.5q180 0 293.5 109.5t145.5 314.5l139 881h170l-141 -891q-36 -231 -165 -372.5t-329 -178.5
q-83 -18 -131.5 -63.5t-48.5 -110.5q0 -60 44 -85.5t118 -13.5z" />
    <glyph glyph-name="uogonek" unicode="&#x173;" horiz-adv-x="1153" 
d="M268 440q-25 -155 31 -238t195 -83q137 0 233 79.5t125 219.5l102 647h164l-168 -1063l2 -2q-118 0 -192 -50.5t-74 -131.5q0 -60 44 -85.5t118 -13.5l-14 -98q-46 -14 -95.5 -8.5t-90 23t-67 57t-26.5 94.5q0 91 68 160.5t170 93.5l26 168h-4q-13 -31 -42 -67t-77 -74
t-123 -63t-161 -25q-82 0 -145 23t-109.5 74t-60.5 132.5t1 198.5l105 657h164z" />
    <glyph glyph-name="Wcircumflex" unicode="&#x174;" horiz-adv-x="1986" 
d="M356 0l-155 1434h172l116 -1196h9l546 1196h181l170 -1196h8l495 1196h177l-611 -1434h-182l-180 1219l-561 -1219h-185zM836 1563l247 266h230l162 -266h-154l-131 211l-193 -211h-161z" />
    <glyph glyph-name="wcircumflex" unicode="&#x175;" horiz-adv-x="1628" 
d="M266 0l-135 1065h156l104 -897h8l422 897h148l147 -897h8l383 897h160l-467 -1065h-192l-144 848l-403 -848h-195zM598 1194l248 266h229l162 -266h-154l-131 211l-192 -211h-162z" />
    <glyph glyph-name="Ycircumflex" unicode="&#x176;" horiz-adv-x="1335" 
d="M498 0l88 561l-385 873h190l307 -709l531 709h194l-665 -873l-88 -561h-172zM510 1563l248 266h229l162 -266h-154l-131 211l-192 -211h-162z" />
    <glyph glyph-name="ycircumflex" unicode="&#x177;" 
d="M33 -254q111 -14 183 28t126 134q47 82 31 145l-242 1012h166l195 -875l471 875h172l-639 -1153q-104 -185 -217.5 -256t-266.5 -51zM334 1194l248 266h229l162 -266h-154l-131 211l-192 -211h-162z" />
    <glyph glyph-name="Ydieresis" unicode="&#x178;" horiz-adv-x="1335" 
d="M498 0l88 561l-385 873h190l307 -709l531 709h194l-665 -873l-88 -561h-172zM565 1747q0 42 31.5 72t73.5 30t72 -30t30 -72q0 -41 -30.5 -71.5t-71.5 -30.5q-42 0 -73.5 30.5t-31.5 71.5zM950 1747q0 42 31.5 72t73.5 30t72 -30t30 -72q0 -41 -30.5 -71.5t-71.5 -30.5
q-42 0 -73.5 30.5t-31.5 71.5z" />
    <glyph glyph-name="Zacute" unicode="&#x179;" horiz-adv-x="1249" 
d="M-2 0l25 150l1062 1134h-849l24 150h1043l-25 -150l-1065 -1134h895l-25 -150h-1085zM690 1561l250 268h147l-247 -268h-150z" />
    <glyph glyph-name="zacute" unicode="&#x17a;" horiz-adv-x="1019" 
d="M-2 0l22 141l783 785h-639l22 139h836l-23 -139l-782 -785h660l-23 -141h-856zM500 1192l250 268h147l-248 -268h-149z" />
    <glyph glyph-name="Zdotaccent" unicode="&#x17b;" horiz-adv-x="1249" 
d="M-2 0l25 150l1062 1134h-849l24 150h1043l-25 -150l-1065 -1134h895l-25 -150h-1085zM727 1747q0 42 31 72t73 30t72.5 -30t30.5 -72q0 -41 -31 -71.5t-72 -30.5t-72.5 30.5t-31.5 71.5z" />
    <glyph glyph-name="zdotaccent" unicode="&#x17c;" horiz-adv-x="1019" 
d="M-2 0l22 141l783 785h-639l22 139h836l-23 -139l-782 -785h660l-23 -141h-856zM537 1378q0 42 31 72.5t73 30.5q41 0 71.5 -30.5t30.5 -72.5q0 -41 -30.5 -71.5t-71.5 -30.5t-72.5 30.5t-31.5 71.5z" />
    <glyph glyph-name="Zcaron" unicode="&#x17d;" horiz-adv-x="1249" 
d="M-2 0l25 150l1062 1134h-849l24 150h1043l-25 -150l-1065 -1134h895l-25 -150h-1085zM522 1829h154l131 -211l192 211h162l-248 -266h-229z" />
    <glyph glyph-name="zcaron" unicode="&#x17e;" horiz-adv-x="1019" 
d="M-2 0l22 141l783 785h-639l22 139h836l-23 -139l-782 -785h660l-23 -141h-856zM330 1460h153l131 -211l193 211h162l-248 -266h-229z" />
    <glyph glyph-name="uni018F" unicode="&#x18f;" horiz-adv-x="1419" 
d="M598 -20q-281 0 -413 171t-79 496l15 88h1071q6 59 6 117q0 227 -99.5 340t-291.5 113q-143 0 -250.5 -61t-167.5 -179h-168q72 189 230.5 288t371.5 99q256 0 401.5 -147.5t145.5 -436.5q0 -96 -15.5 -189t-48 -181t-78.5 -166t-110.5 -142.5t-141.5 -111t-173.5 -72.5
t-204.5 -26zM264 596q-38 -234 58.5 -351.5t293.5 -117.5q110 0 203.5 37t160 102t113 148t72.5 182h-901z" />
    <glyph glyph-name="florin" unicode="&#x192;" horiz-adv-x="610" 
d="M-78 -246q89 0 140 50.5t69 164.5l121 764h-162l23 144h161l37 229q28 182 123 259t268 77l-22 -144q-88 0 -138.5 -49.5t-70.5 -165.5l-33 -206h174l-22 -144h-174l-125 -788q-15 -95 -49 -161.5t-86 -103.5t-113.5 -53t-142.5 -16z" />
    <glyph glyph-name="Ohorn" unicode="&#x1a0;" horiz-adv-x="1470" 
d="M662 -20q-254 0 -403.5 153.5t-149.5 444.5q0 173 53 330.5t149 278.5t240.5 193t316.5 72h504l27 162h141l-47 -291h-246q174 -154 174 -469q0 -137 -33.5 -266t-99 -239t-156 -192.5t-212 -129.5t-258.5 -47zM279 582q0 -227 105 -341t288 -114q110 0 204.5 41
t162.5 111t116.5 162.5t72 196.5t23.5 212q0 227 -105.5 341t-287.5 114q-136 0 -248.5 -62.5t-183 -165.5t-109 -231t-38.5 -264z" />
    <glyph glyph-name="ohorn" unicode="&#x1a1;" horiz-adv-x="1157" 
d="M498 -20q-91 0 -169 27t-139 80.5t-96 141.5t-35 201q0 129 43.5 247.5t120.5 209t191 144.5t245 54h349l24 160h135l-45 -287h-135q111 -117 111 -321q0 -103 -27.5 -201t-80.5 -180t-125 -144t-167 -97t-200 -35zM219 444q0 -164 82.5 -244.5t214.5 -80.5
q76 0 144 27.5t118 76t86.5 112t55 137t18.5 149.5q0 165 -82.5 246t-214.5 81q-95 0 -176 -42.5t-134 -113.5t-82.5 -161.5t-29.5 -186.5z" />
    <glyph glyph-name="Uhorn" unicode="&#x1af;" horiz-adv-x="1337" 
d="M588 -20q-257 0 -383 147.5t-84 415.5l141 891h170l-141 -881q-32 -203 54.5 -313.5t268.5 -110.5q180 0 293.5 109.5t145.5 314.5l139 881h227l29 180h143l-49 -314h-201l-120 -757q-42 -269 -209.5 -416t-423.5 -147z" />
    <glyph glyph-name="uhorn" unicode="&#x1b0;" horiz-adv-x="1153" 
d="M268 440q-25 -155 31 -238t195 -83q137 0 233 79.5t125 219.5l102 647h164l-168 -1065h-164l33 209h-4q-13 -31 -42 -67t-77 -74t-123 -63t-161 -25q-82 0 -145 23t-109.5 74t-60.5 132.5t1 198.5l105 657h164zM1208 932l23 133h223l29 180h143l-49 -313h-369z" />
    <glyph glyph-name="uni01CD" unicode="&#x1cd;" horiz-adv-x="1396" 
d="M-39 0l776 1434h209l320 -1434h-174l-78 358h-680l-191 -358h-182zM406 489h579l-164 762h-10zM586 1829h153l131 -211l193 211h162l-248 -266h-229z" />
    <glyph glyph-name="uni01CE" unicode="&#x1ce;" 
d="M336 -20q-144 0 -227.5 63t-83.5 190q0 144 103 233.5t284 111.5l270 30q86 11 118.5 26.5t39.5 51.5l6 35q24 131 -34 185.5t-194 54.5q-132 0 -204.5 -48t-89.5 -153l-5 -25h-157l6 39q52 311 473 311q218 0 307.5 -87t59.5 -277l-113 -721h-156l29 180h-8
q-16 -25 -46 -54t-81 -64.5t-129.5 -58.5t-167.5 -23zM188 256q0 -145 199 -145q88 0 164 26.5t125.5 67.5t79.5 87.5t37 90.5l22 152q-20 -39 -164 -54l-219 -26q-114 -14 -179 -63.5t-65 -135.5zM375 1460h153l131 -211l193 211h162l-248 -266h-229z" />
    <glyph glyph-name="uni01CF" unicode="&#x1cf;" horiz-adv-x="405" 
d="M35 0l227 1434h168l-227 -1434h-168zM86 1829h154l131 -211l192 211h162l-248 -266h-229z" />
    <glyph glyph-name="uni01D0" unicode="&#x1d0;" horiz-adv-x="356" 
d="M12 0l168 1065h164l-168 -1065h-164zM2 1460h154l131 -211l192 211h162l-248 -266h-229z" />
    <glyph glyph-name="uni01D1" unicode="&#x1d1;" horiz-adv-x="1470" 
d="M662 -20q-254 0 -403.5 153.5t-149.5 444.5q0 173 53 330.5t149 278.5t240.5 193t316.5 72q255 0 404 -153t149 -445q0 -137 -33.5 -266t-99 -239t-156 -192.5t-212 -129.5t-258.5 -47zM279 582q0 -227 105 -341t288 -114q110 0 204.5 41t162.5 111t116.5 162.5t72 196.5
t23.5 212q0 227 -105.5 341t-287.5 114q-136 0 -248.5 -62.5t-183 -165.5t-109 -231t-38.5 -264zM621 1829h153l131 -211l193 211h162l-248 -266h-230z" />
    <glyph glyph-name="uni01D2" unicode="&#x1d2;" horiz-adv-x="1157" 
d="M498 -20q-91 0 -169 27t-139 80.5t-96 141.5t-35 201q0 129 43.5 247.5t120.5 209t191 144.5t245 54q92 0 170 -27t139 -80t95.5 -140.5t34.5 -200.5q0 -103 -27.5 -201t-80.5 -180t-125 -144t-167 -97t-200 -35zM219 444q0 -164 82.5 -244.5t214.5 -80.5q76 0 144 27.5
t118 76t86.5 112t55 137t18.5 149.5q0 165 -82.5 246t-214.5 81q-95 0 -176 -42.5t-134 -113.5t-82.5 -161.5t-29.5 -186.5zM406 1460h153l131 -211l193 211h161l-247 -266h-230z" />
    <glyph glyph-name="uni01D3" unicode="&#x1d3;" horiz-adv-x="1337" 
d="M588 -20q-257 0 -383 147.5t-84 415.5l141 891h170l-141 -881q-32 -203 54.5 -313.5t268.5 -110.5q180 0 293.5 109.5t145.5 314.5l139 881h170l-141 -891q-42 -269 -209.5 -416t-423.5 -147zM549 1829h153l132 -211l192 211h162l-248 -266h-229z" />
    <glyph glyph-name="uni01D4" unicode="&#x1d4;" horiz-adv-x="1153" 
d="M268 440q-25 -155 31 -238t195 -83q137 0 233 79.5t125 219.5l102 647h164l-168 -1065h-164l33 209h-4q-13 -31 -42 -67t-77 -74t-123 -63t-161 -25q-82 0 -145 23t-109.5 74t-60.5 132.5t1 198.5l105 657h164zM395 1460h154l131 -211l192 211h162l-248 -266h-229z" />
    <glyph glyph-name="uni01D5" unicode="&#x1d5;" horiz-adv-x="1337" 
d="M588 -20q-257 0 -383 147.5t-84 415.5l141 891h170l-141 -881q-32 -203 54.5 -313.5t268.5 -110.5q180 0 293.5 109.5t145.5 314.5l139 881h170l-141 -891q-42 -269 -209.5 -416t-423.5 -147zM561 1747q0 42 31.5 72t73.5 30t72 -30t30 -72q0 -41 -30.5 -71.5
t-71.5 -30.5q-42 0 -73.5 30.5t-31.5 71.5zM598 2081l16 102h605l-17 -102h-604zM946 1747q0 42 31.5 72t73.5 30t72 -30t30 -72q0 -41 -30.5 -71.5t-71.5 -30.5q-42 0 -73.5 30.5t-31.5 71.5z" />
    <glyph glyph-name="uni01D6" unicode="&#x1d6;" horiz-adv-x="1153" 
d="M268 440q-25 -155 31 -238t195 -83q137 0 233 79.5t125 219.5l102 647h164l-168 -1065h-164l33 209h-4q-13 -31 -42 -67t-77 -74t-123 -63t-161 -25q-82 0 -145 23t-109.5 74t-60.5 132.5t1 198.5l105 657h164zM408 1378q0 42 31 72.5t73 30.5t72 -30.5t30 -72.5
q0 -41 -30.5 -71.5t-71.5 -30.5t-72.5 30.5t-31.5 71.5zM444 1712l17 103h604l-16 -103h-605zM793 1378q0 42 31 72.5t73 30.5q41 0 71.5 -30.5t30.5 -72.5q0 -41 -30.5 -71.5t-71.5 -30.5t-72.5 30.5t-31.5 71.5z" />
    <glyph glyph-name="uni01D7" unicode="&#x1d7;" horiz-adv-x="1337" 
d="M588 -20q-257 0 -383 147.5t-84 415.5l141 891h170l-141 -881q-32 -203 54.5 -313.5t268.5 -110.5q180 0 293.5 109.5t145.5 314.5l139 881h170l-141 -891q-42 -269 -209.5 -416t-423.5 -147zM561 1747q0 42 31.5 72t73.5 30t72 -30t30 -72q0 -41 -30.5 -71.5
t-71.5 -30.5q-42 0 -73.5 30.5t-31.5 71.5zM791 1915l249 268h148l-248 -268h-149zM946 1747q0 42 31.5 72t73.5 30t72 -30t30 -72q0 -41 -30.5 -71.5t-71.5 -30.5q-42 0 -73.5 30.5t-31.5 71.5z" />
    <glyph glyph-name="uni01D8" unicode="&#x1d8;" horiz-adv-x="1153" 
d="M268 440q-25 -155 31 -238t195 -83q137 0 233 79.5t125 219.5l102 647h164l-168 -1065h-164l33 209h-4q-13 -31 -42 -67t-77 -74t-123 -63t-161 -25q-82 0 -145 23t-109.5 74t-60.5 132.5t1 198.5l105 657h164zM408 1378q0 42 31 72.5t73 30.5t72 -30.5t30 -72.5
q0 -41 -30.5 -71.5t-71.5 -30.5t-72.5 30.5t-31.5 71.5zM637 1546l250 269h147l-248 -269h-149zM793 1378q0 42 31 72.5t73 30.5q41 0 71.5 -30.5t30.5 -72.5q0 -41 -30.5 -71.5t-71.5 -30.5t-72.5 30.5t-31.5 71.5z" />
    <glyph glyph-name="uni01D9" unicode="&#x1d9;" horiz-adv-x="1337" 
d="M588 -20q-257 0 -383 147.5t-84 415.5l141 891h170l-141 -881q-32 -203 54.5 -313.5t268.5 -110.5q180 0 293.5 109.5t145.5 314.5l139 881h170l-141 -891q-42 -269 -209.5 -416t-423.5 -147zM561 1747q0 42 31.5 72t73.5 30t72 -30t30 -72q0 -41 -30.5 -71.5
t-71.5 -30.5q-42 0 -73.5 30.5t-31.5 71.5zM596 2183h154l131 -211l192 211h162l-248 -266h-229zM946 1747q0 42 31.5 72t73.5 30t72 -30t30 -72q0 -41 -30.5 -71.5t-71.5 -30.5q-42 0 -73.5 30.5t-31.5 71.5z" />
    <glyph glyph-name="uni01DA" unicode="&#x1da;" horiz-adv-x="1153" 
d="M268 440q-25 -155 31 -238t195 -83q137 0 233 79.5t125 219.5l102 647h164l-168 -1065h-164l33 209h-4q-13 -31 -42 -67t-77 -74t-123 -63t-161 -25q-82 0 -145 23t-109.5 74t-60.5 132.5t1 198.5l105 657h164zM408 1378q0 42 31 72.5t73 30.5t72 -30.5t30 -72.5
q0 -41 -30.5 -71.5t-71.5 -30.5t-72.5 30.5t-31.5 71.5zM442 1815h154l131 -211l193 211h161l-247 -267h-230zM793 1378q0 42 31 72.5t73 30.5q41 0 71.5 -30.5t30.5 -72.5q0 -41 -30.5 -71.5t-71.5 -30.5t-72.5 30.5t-31.5 71.5z" />
    <glyph glyph-name="uni01DB" unicode="&#x1db;" horiz-adv-x="1337" 
d="M588 -20q-257 0 -383 147.5t-84 415.5l141 891h170l-141 -881q-32 -203 54.5 -313.5t268.5 -110.5q180 0 293.5 109.5t145.5 314.5l139 881h170l-141 -891q-42 -269 -209.5 -416t-423.5 -147zM561 1747q0 42 31.5 72t73.5 30t72 -30t30 -72q0 -41 -30.5 -71.5
t-71.5 -30.5q-42 0 -73.5 30.5t-31.5 71.5zM629 2183h145l168 -268h-143zM946 1747q0 42 31.5 72t73.5 30t72 -30t30 -72q0 -41 -30.5 -71.5t-71.5 -30.5q-42 0 -73.5 30.5t-31.5 71.5z" />
    <glyph glyph-name="uni01DC" unicode="&#x1dc;" horiz-adv-x="1153" 
d="M268 440q-25 -155 31 -238t195 -83q137 0 233 79.5t125 219.5l102 647h164l-168 -1065h-164l33 209h-4q-13 -31 -42 -67t-77 -74t-123 -63t-161 -25q-82 0 -145 23t-109.5 74t-60.5 132.5t1 198.5l105 657h164zM408 1378q0 42 31 72.5t73 30.5t72 -30.5t30 -72.5
q0 -41 -30.5 -71.5t-71.5 -30.5t-72.5 30.5t-31.5 71.5zM475 1815h146l167 -269h-143zM793 1378q0 42 31 72.5t73 30.5q41 0 71.5 -30.5t30.5 -72.5q0 -41 -30.5 -71.5t-71.5 -30.5t-72.5 30.5t-31.5 71.5z" />
    <glyph glyph-name="Gcaron" unicode="&#x1e6;" horiz-adv-x="1429" 
d="M672 -20q-266 0 -413.5 152t-147.5 450q0 175 52.5 332t148.5 277t242.5 190.5t322.5 70.5q215 0 344.5 -100t144.5 -287h-164q-24 120 -110 180t-224 60q-112 0 -208.5 -39.5t-165.5 -107.5t-118 -158.5t-73 -193.5t-24 -212q0 -232 106.5 -349.5t300.5 -117.5
q197 0 326.5 120.5t165.5 354.5l-361 -6l23 139h524l-14 -94q-54 -330 -225.5 -495.5t-452.5 -165.5zM621 1829h153l131 -211l193 211h162l-248 -266h-230z" />
    <glyph glyph-name="gcaron" unicode="&#x1e7;" horiz-adv-x="1193" 
d="M455 23q-81 0 -151 24t-125 72.5t-86.5 129.5t-31.5 187q0 131 40 249t111 206.5t176.5 141t229.5 52.5q122 0 217.5 -49.5t135.5 -140.5l26 170h164l-149 -940l-17 -109q-16 -103 -60.5 -182.5t-101.5 -128t-130.5 -79.5t-142.5 -42.5t-142 -11.5q-70 0 -133 10.5
t-120.5 35.5t-97 62t-58 94.5t-7.5 129.5h143q-10 -95 69.5 -149t215.5 -54q75 0 139.5 17.5t119 54t92 98.5t50.5 145l17 109l14 88q-72 -92 -180.5 -141t-226.5 -49zM219 471q0 -152 82 -230.5t211 -78.5q121 0 218.5 66t149.5 173.5t52 233.5q0 154 -83.5 233.5
t-215.5 79.5q-121 0 -217 -66.5t-146.5 -174.5t-50.5 -236zM412 1460h153l131 -211l193 211h162l-248 -266h-230z" />
    <glyph glyph-name="uni01E8" unicode="&#x1e8;" horiz-adv-x="1300" 
d="M35 0l227 1434h168l-127 -799l840 799h205l-699 -662l522 -772h-196l-449 655l-258 -245l-65 -410h-168zM547 1829h153l131 -211l193 211h162l-248 -266h-229z" />
    <glyph glyph-name="uni01E9" unicode="&#x1e9;" horiz-adv-x="1105" 
d="M35 0l227 1434h164l-150 -940l642 571h188l-526 -461l417 -604h-180l-352 502l-217 -191l-49 -311h-164zM76 1829h153l131 -211l193 211h162l-248 -266h-229z" />
    <glyph glyph-name="uni01EA" unicode="&#x1ea;" horiz-adv-x="1470" 
d="M764 -379q-46 -14 -95 -8.5t-89.5 23t-66.5 57t-26 94.5q0 115 107 195q-226 21 -355.5 173.5t-129.5 422.5q0 173 53 330.5t149 278.5t240.5 193t316.5 72q255 0 404 -153t149 -445q0 -155 -43.5 -299t-123 -260t-199 -196.5t-262.5 -106.5q-81 -19 -129 -65t-48 -109
q0 -60 44 -85.5t118 -13.5zM279 582q0 -227 105 -341t288 -114q110 0 204.5 41t162.5 111t116.5 162.5t72 196.5t23.5 212q0 227 -105.5 341t-287.5 114q-136 0 -248.5 -62.5t-183 -165.5t-109 -231t-38.5 -264z" />
    <glyph glyph-name="uni01EB" unicode="&#x1eb;" horiz-adv-x="1157" 
d="M586 -379q-46 -14 -95 -8.5t-89.5 23t-66.5 57t-26 94.5q0 122 111 199q-162 21 -261.5 133.5t-99.5 310.5q0 129 43.5 247.5t120.5 209t191 144.5t245 54q92 0 170 -27t139 -80t95.5 -140.5t34.5 -200.5q0 -154 -58.5 -290t-170 -231.5t-255.5 -123.5q-80 -19 -127 -65
t-47 -109q0 -60 44 -85.5t118 -13.5zM219 444q0 -164 82.5 -244.5t214.5 -80.5q76 0 144 27.5t118 76t86.5 112t55 137t18.5 149.5q0 165 -82.5 246t-214.5 81q-95 0 -176 -42.5t-134 -113.5t-82.5 -161.5t-29.5 -186.5z" />
    <glyph glyph-name="uni0218" unicode="&#x218;" horiz-adv-x="1255" 
d="M553 -20q-259 0 -386.5 121t-96.5 317h170q-13 -131 70 -212t265 -81q181 0 286.5 81t105.5 218q0 104 -62 154t-190 77l-170 35q-166 36 -251 118t-85 220q0 194 153 309t396 115q231 0 352.5 -103.5t95.5 -277.5h-170q11 106 -65 172t-232 66q-162 0 -257 -73t-95 -196
q0 -86 55 -139.5t179 -79.5l165 -35q180 -38 270.5 -116.5t90.5 -229.5q0 -141 -77 -246t-211 -159.5t-306 -54.5zM356 -471l13 78q66 5 101 33.5t42 85.5q-59 0 -92 30t-33 78q0 50 34 84.5t87 34.5q54 0 87.5 -38t33.5 -114q0 -109 -67.5 -190.5t-190.5 -81.5h-15z" />
    <glyph glyph-name="uni0219" unicode="&#x219;" horiz-adv-x="983" 
d="M414 -20q-190 0 -301.5 82t-92.5 241h150q-2 -52 18.5 -90.5t58.5 -60t83.5 -31.5t99.5 -10q128 0 209.5 52.5t81.5 149.5q0 66 -41 98t-133 54l-174 43q-124 31 -184 93t-60 161q0 150 122.5 236.5t317.5 86.5q181 0 279.5 -80t83.5 -235h-139q0 184 -238 184
q-123 0 -195.5 -45t-72.5 -129q0 -57 39 -92.5t131 -58.5l172 -43q129 -33 195.5 -89t66.5 -167q0 -112 -66 -192.5t-172.5 -119t-238.5 -38.5zM258 -494l12 78q130 9 144 119q-59 0 -92 30.5t-33 78.5q0 50 34 84t87 34q54 0 87 -37.5t33 -113.5q0 -109 -67.5 -191
t-190.5 -82h-14z" />
    <glyph glyph-name="uni021A" unicode="&#x21a;" horiz-adv-x="1187" 
d="M426 0l203 1284h-453l25 150h1073l-25 -150h-452l-203 -1284h-168zM303 -471l12 78q130 9 144 119q-59 0 -92 30t-33 78q0 50 34 84.5t87 34.5q54 0 87 -38t33 -114q0 -109 -67.5 -190.5t-190.5 -81.5h-14z" />
    <glyph glyph-name="uni021B" unicode="&#x21b;" horiz-adv-x="665" 
d="M408 -14q-276 0 -234 264l109 684h-172l20 131h172l41 266h164l-43 -266h213l-19 -131h-215l-102 -653q-14 -86 16 -123t115 -37h72l-21 -129q-39 -6 -116 -6zM166 -471l12 78q130 9 144 119q-59 0 -92 30t-33 78q0 50 33.5 84.5t86.5 34.5q54 0 87.5 -38t33.5 -114
q0 -109 -67.5 -190.5t-190.5 -81.5h-14z" />
    <glyph glyph-name="uni0237" unicode="&#x237;" horiz-adv-x="413" 
d="M-102 -385q-74 0 -115 6l20 129h68q88 0 129 36t55 122l183 1157h163l-188 -1188q-41 -262 -315 -262z" />
    <glyph glyph-name="uni0259" unicode="&#x259;" horiz-adv-x="1105" 
d="M459 -23q-186 0 -296 102t-110 296q0 129 27 205h809q2 16 2 49q0 172 -73.5 249.5t-217.5 77.5q-110 0 -198.5 -46t-133.5 -144h-149q65 166 197 242.5t298 76.5q201 0 317 -110t116 -336q0 -132 -40 -251t-113.5 -211t-186 -146t-248.5 -54zM213 461
q-29 -168 42.5 -260t221.5 -92q158 0 258.5 98t136.5 254h-659z" />
    <glyph glyph-name="circumflex" unicode="&#x2c6;" horiz-adv-x="638" 
d="M104 1194l248 266h230l161 -266h-153l-131 211l-193 -211h-162z" />
    <glyph glyph-name="caron" unicode="&#x2c7;" horiz-adv-x="638" 
d="M784 1460l-247 -266h-230l-162 266h154l131 -211l193 211h161z" />
    <glyph glyph-name="breve" unicode="&#x2d8;" horiz-adv-x="583" 
d="M403 1198q-150 0 -212.5 74t-43.5 188h113q-14 -162 156 -162q173 0 200 162h115q-19 -116 -100 -189t-228 -73z" />
    <glyph glyph-name="dotaccent" unicode="&#x2d9;" horiz-adv-x="208" 
d="M240 1276q-42 0 -73.5 30.5t-31.5 71.5q0 42 31.5 72.5t73.5 30.5t72 -30.5t30 -72.5q0 -41 -30.5 -71.5t-71.5 -30.5z" />
    <glyph glyph-name="ring" unicode="&#x2da;" horiz-adv-x="364" 
d="M311 1169q-76 0 -128 51t-52 123q0 73 52 125t128 52t128.5 -52t52.5 -125q0 -72 -52.5 -123t-128.5 -51zM219 1343q0 -39 26.5 -65.5t65.5 -26.5q40 0 67.5 26.5t27.5 65.5q0 40 -27.5 67.5t-67.5 27.5q-38 0 -65 -27.5t-27 -67.5z" />
    <glyph glyph-name="ogonek" unicode="&#x2db;" horiz-adv-x="364" 
d="M162 -379q-46 -14 -95.5 -8.5t-90 23t-67 57t-26.5 94.5q0 113 98.5 188.5t229.5 75.5l70 -51q-118 0 -192.5 -50.5t-74.5 -131.5q0 -60 44 -85.5t118 -13.5z" />
    <glyph glyph-name="tilde" unicode="&#x2dc;" horiz-adv-x="686" 
d="M610 1237q-41 0 -73.5 14.5t-54 35t-41.5 40.5t-44.5 34.5t-52.5 14.5q-42 0 -68.5 -27.5t-29.5 -62.5h-107q13 96 66.5 146.5t132.5 50.5q41 0 74.5 -14.5t55 -35t41 -41t43.5 -35t52 -14.5q40 0 67.5 28t30.5 63h107q-13 -96 -66.5 -146.5t-132.5 -50.5z" />
    <glyph glyph-name="hungarumlaut" unicode="&#x2dd;" horiz-adv-x="645" 
d="M393 1192l250 268h148l-248 -268h-150zM104 1192l250 268h148l-248 -268h-150z" />
    <glyph glyph-name="gravecomb" unicode="&#x300;" horiz-adv-x="0" 
d="M322 1192l-170 268h145l168 -268h-143z" />
    <glyph glyph-name="acutecomb" unicode="&#x301;" horiz-adv-x="0" 
d="M104 1192l250 268h148l-248 -268h-150z" />
    <glyph glyph-name="uni0302" unicode="&#x302;" horiz-adv-x="0" 
d="M104 1194l248 266h230l161 -266h-153l-131 211l-193 -211h-162z" />
    <glyph glyph-name="tildecomb" unicode="&#x303;" horiz-adv-x="0" 
d="M610 1237q-41 0 -73.5 14.5t-54 35t-41.5 40.5t-44.5 34.5t-52.5 14.5q-42 0 -68.5 -27.5t-29.5 -62.5h-107q13 96 66.5 146.5t132.5 50.5q41 0 74.5 -14.5t55 -35t41 -41t43.5 -35t52 -14.5q40 0 67.5 28t30.5 63h107q-13 -96 -66.5 -146.5t-132.5 -50.5z" />
    <glyph glyph-name="uni0304" unicode="&#x304;" horiz-adv-x="0" 
d="M131 1358l16 102h605l-17 -102h-604z" />
    <glyph glyph-name="uni0306" unicode="&#x306;" horiz-adv-x="0" 
d="M403 1198q-150 0 -212.5 74t-43.5 188h113q-14 -162 156 -162q173 0 200 162h115q-19 -116 -100 -189t-228 -73z" />
    <glyph glyph-name="uni0307" unicode="&#x307;" horiz-adv-x="0" 
d="M240 1276q-42 0 -73.5 30.5t-31.5 71.5q0 42 31.5 72.5t73.5 30.5t72 -30.5t30 -72.5q0 -41 -30.5 -71.5t-71.5 -30.5z" />
    <glyph glyph-name="uni0308" unicode="&#x308;" horiz-adv-x="0" 
d="M625 1276q-42 0 -73.5 30.5t-31.5 71.5q0 42 31.5 72.5t73.5 30.5q41 0 71.5 -30.5t30.5 -72.5q0 -41 -30.5 -71.5t-71.5 -30.5zM135 1378q0 42 31.5 72.5t73.5 30.5t72 -30.5t30 -72.5q0 -41 -30.5 -71.5t-71.5 -30.5q-42 0 -73.5 30.5t-31.5 71.5z" />
    <glyph glyph-name="hookabovecomb" unicode="&#x309;" horiz-adv-x="0" 
d="M301 1237q59 2 92 31.5t33 81.5q0 50 -28 78t-72 28q-41 0 -68.5 -23.5t-30.5 -66.5h-92q0 89 57 136.5t134 47.5q82 0 140 -51t58 -143q0 -84 -53 -135.5t-129 -59.5z" />
    <glyph glyph-name="uni030A" unicode="&#x30a;" horiz-adv-x="0" 
d="M311 1169q-76 0 -128 51t-52 123q0 73 52 125t128 52t128.5 -52t52.5 -125q0 -72 -52.5 -123t-128.5 -51zM219 1343q0 -39 26.5 -65.5t65.5 -26.5q40 0 67.5 26.5t27.5 65.5q0 40 -27.5 67.5t-67.5 27.5q-38 0 -65 -27.5t-27 -67.5z" />
    <glyph glyph-name="uni030B" unicode="&#x30b;" horiz-adv-x="0" 
d="M393 1192l250 268h148l-248 -268h-150zM104 1192l250 268h148l-248 -268h-150z" />
    <glyph glyph-name="uni030C" unicode="&#x30c;" horiz-adv-x="0" 
d="M784 1460l-247 -266h-230l-162 266h154l131 -211l193 211h161z" />
    <glyph glyph-name="uni0312" unicode="&#x312;" horiz-adv-x="0" 
d="M440 1356q-66 -5 -101 -33.5t-42 -85.5q59 0 92 -30.5t33 -78.5q0 -50 -34 -84t-87 -34q-56 0 -89 37.5t-32 113.5q0 109 67.5 191t190.5 82h15z" />
    <glyph glyph-name="uni031B" unicode="&#x31b;" horiz-adv-x="0" 
d="M63 932l23 133h223l29 180h143l-49 -313h-369z" />
    <glyph glyph-name="dotbelowcomb" unicode="&#x323;" horiz-adv-x="0" 
d="M80 -471q-47 0 -82 34t-35 81t34.5 80.5t82.5 33.5q47 0 81 -33.5t34 -80.5t-34 -81t-81 -34z" />
    <glyph glyph-name="uni0326" unicode="&#x326;" horiz-adv-x="0" 
d="M-129 -393q131 9 145 119q-60 0 -93.5 30t-33.5 78q0 50 34.5 84.5t88.5 34.5t87.5 -38t33.5 -114q0 -69 -27 -129t-87.5 -101.5t-145.5 -41.5h-14z" />
    <glyph glyph-name="uni0327" unicode="&#x327;" horiz-adv-x="0" 
d="M-94 -360q78 -2 127 27t49 81q0 48 -41.5 64.5t-101.5 -9.5l-45 64l133 133h125l-113 -104q8 2 27 2q60 0 98.5 -36.5t38.5 -103.5q0 -71 -44.5 -120.5t-114 -72t-155.5 -22.5z" />
    <glyph glyph-name="uni0328" unicode="&#x328;" horiz-adv-x="0" 
d="M162 -379q-46 -14 -95.5 -8.5t-90 23t-67 57t-26.5 94.5q0 113 98.5 188.5t229.5 75.5l70 -51q-118 0 -192.5 -50.5t-74.5 -131.5q0 -60 44 -85.5t118 -13.5z" />
    <glyph glyph-name="uni0394" unicode="&#x394;" horiz-adv-x="1388" 
d="M-39 0l881 1460h2l416 -1460h-1299zM201 135h866l-270 1012z" />
    <glyph glyph-name="uni03A9" unicode="&#x3a9;" horiz-adv-x="1603" 
d="M53 0l21 137h327q-286 183 -286 508q0 126 43.5 248t121.5 221t180 174.5t226 117.5t252 42q174 0 314.5 -74.5t222 -212t81.5 -313.5q0 -222 -128.5 -407.5t-350.5 -303.5h326l-21 -137h-452l37 227q196 96 309 256t113 348q0 141 -64 247t-171 160t-239 54
q-168 0 -314 -86t-232 -231.5t-86 -312.5q0 -287 258 -435l-37 -227h-451z" />
    <glyph glyph-name="uni03BC" unicode="&#x3bc;" horiz-adv-x="1153" 
d="M-29 -389l232 1454h164l-99 -625q-25 -155 31 -238t195 -83q137 0 233 79.5t125 219.5l102 647h164l-168 -1065h-164l33 209h-4q-13 -31 -42 -67t-77 -74t-123 -63t-161 -25q-129 0 -207 55l-68 -424h-166z" />
    <glyph glyph-name="pi" unicode="&#x3c0;" horiz-adv-x="1368" 
d="M1042 -12q-104 0 -160.5 57.5t-37.5 175.5l110 701h-426l-145 -922h-164l146 922h-205l22 143h1161l-22 -143h-203l-106 -678q-10 -62 10 -87.5t72 -25.5q61 0 131 37l-23 -141q-76 -39 -160 -39z" />
    <glyph glyph-name="uni0401" unicode="&#x401;" horiz-adv-x="1116" 
d="M35 0l227 1434h912l-25 -150h-743l-76 -479h682l-23 -137h-680l-82 -518h762l-22 -150h-932zM473 1747q0 42 31.5 72t73.5 30t72 -30t30 -72q0 -41 -30.5 -71.5t-71.5 -30.5q-42 0 -73.5 30.5t-31.5 71.5zM858 1747q0 42 31.5 72t73.5 30t72 -30t30 -72
q0 -41 -30.5 -71.5t-71.5 -30.5q-42 0 -73.5 30.5t-31.5 71.5z" />
    <glyph glyph-name="uni0403" unicode="&#x403;" horiz-adv-x="1021" 
d="M35 0l227 1434h848l-25 -150h-677l-203 -1284h-170zM610 1561l250 268h148l-248 -268h-150z" />
    <glyph glyph-name="uni0404" unicode="&#x404;" horiz-adv-x="1355" 
d="M666 -20q-259 0 -408 152t-149 450q0 139 32.5 267.5t97 238t154.5 191t213 127.5t264 46q225 0 361 -113t139 -323h-160q-15 143 -108.5 216t-245.5 73q-110 0 -204 -39.5t-162.5 -108.5t-115.5 -158t-71 -192h516l-22 -139h-516q-2 -25 -2 -72q0 -230 108.5 -349.5
t296.5 -119.5q151 0 259 75t169 218h164q-67 -218 -228.5 -329t-381.5 -111z" />
    <glyph glyph-name="uni0407" unicode="&#x407;" horiz-adv-x="405" 
d="M35 0l227 1434h168l-227 -1434h-168zM98 1747q0 42 31.5 72t73.5 30t72 -30t30 -72q0 -41 -30.5 -71.5t-71.5 -30.5q-42 0 -73.5 30.5t-31.5 71.5zM483 1747q0 42 31.5 72t73.5 30t72 -30t30 -72q0 -41 -30.5 -71.5t-71.5 -30.5q-42 0 -73.5 30.5t-31.5 71.5z" />
    <glyph glyph-name="uni040C" unicode="&#x40c;" horiz-adv-x="1300" 
d="M35 0l227 1434h168l-127 -799l840 799h205l-699 -662l522 -772h-196l-449 655l-258 -245l-65 -410h-168zM567 1561l250 268h148l-248 -268h-150z" />
    <glyph glyph-name="uni040E" unicode="&#x40e;" horiz-adv-x="1157" 
d="M129 139q108 -14 176 26.5t119 131.5q26 49 33 88t-4 82l-252 967h184l203 -840l469 840h188l-661 -1143q-107 -184 -219 -256t-261 -53zM494 1829h112q-14 -162 156 -162q174 0 201 162h114q-19 -116 -99.5 -189t-227.5 -73q-150 0 -212.5 74t-43.5 188z" />
    <glyph glyph-name="uni0410" unicode="&#x410;" horiz-adv-x="1396" 
d="M-39 0l776 1434h209l320 -1434h-174l-78 358h-680l-191 -358h-182zM406 489h579l-164 762h-10z" />
    <glyph glyph-name="uni0411" unicode="&#x411;" horiz-adv-x="1218" 
d="M35 0l227 1434h848l-25 -150h-677l-60 -371h357q217 0 327.5 -98t110.5 -285q0 -239 -159.5 -384.5t-424.5 -145.5h-524zM229 152h342q182 0 286 99t104 259q0 252 -293 252h-342z" />
    <glyph glyph-name="uni0412" unicode="&#x412;" horiz-adv-x="1239" 
d="M35 0l227 1434h529q190 0 285 -80.5t95 -220.5q0 -123 -68.5 -216.5t-193.5 -134.5q118 -30 182 -110t64 -211q0 -214 -159.5 -337.5t-415.5 -123.5h-545zM225 145h359q178 0 287.5 88t109.5 232q0 231 -301 231h-367zM338 842h344q143 0 228 73t85 193q0 91 -57 135.5
t-176 44.5h-354z" />
    <glyph glyph-name="uni0413" unicode="&#x413;" horiz-adv-x="1021" 
d="M35 0l227 1434h848l-25 -150h-677l-203 -1284h-170z" />
    <glyph glyph-name="uni0414" unicode="&#x414;" horiz-adv-x="1409" 
d="M-61 -141l45 284h71q108 87 179.5 307t140.5 656l53 328h965l-205 -1291h92l-45 -284h-164l23 141h-967l-23 -141h-165zM240 143h778l180 1141h-623l-28 -178q-69 -439 -137 -657.5t-170 -305.5z" />
    <glyph glyph-name="uni0415" unicode="&#x415;" horiz-adv-x="1116" 
d="M35 0l227 1434h912l-25 -150h-743l-76 -479h682l-23 -137h-680l-82 -518h762l-22 -150h-932z" />
    <glyph glyph-name="uni0416" unicode="&#x416;" horiz-adv-x="1853" 
d="M-39 0l782 731l-522 703h199l467 -621l98 621h172l-100 -635l663 635h201l-733 -703l536 -731h-198l-492 664l-104 -664h-172l102 649l-696 -649h-203z" />
    <glyph glyph-name="uni0417" unicode="&#x417;" horiz-adv-x="1177" 
d="M498 -20q-240 0 -352.5 131t-79.5 348h151q-23 -158 59 -247t242 -89q170 0 286 95.5t116 240.5q0 117 -84.5 180t-245.5 63h-62l19 129h53q158 0 254 75t96 198q0 100 -65 152.5t-183 52.5q-136 0 -230.5 -76t-119.5 -240h-153q32 225 170 342t354 117q187 0 289 -84.5
t102 -224.5q0 -127 -82.5 -228.5t-214.5 -136.5q52 -9 98 -31.5t85.5 -59.5t62 -94.5t22.5 -129.5q0 -139 -79 -250.5t-213 -172t-295 -60.5z" />
    <glyph glyph-name="uni0418" unicode="&#x418;" horiz-adv-x="1355" 
d="M35 0l227 1434h168l-186 -1174h6l944 1174h188l-227 -1434h-170l186 1169h-6l-938 -1169h-192z" />
    <glyph glyph-name="uni0419" unicode="&#x419;" horiz-adv-x="1355" 
d="M846 1567q-150 0 -212.5 74t-43.5 188h112q-14 -162 156 -162q174 0 201 162h115q-19 -116 -100 -189t-228 -73zM35 0l227 1434h168l-186 -1174h6l944 1174h188l-227 -1434h-170l186 1169h-6l-938 -1169h-192z" />
    <glyph glyph-name="uni041A" unicode="&#x41a;" horiz-adv-x="1300" 
d="M35 0l227 1434h168l-127 -799l840 799h205l-699 -662l522 -772h-196l-449 655l-258 -245l-65 -410h-168z" />
    <glyph glyph-name="uni041B" unicode="&#x41b;" horiz-adv-x="1382" 
d="M-33 137q58 -1 104.5 13t89.5 48t73 99.5t45 159.5l155 977h975l-227 -1434h-172l202 1284h-630l-131 -833q-21 -129 -68.5 -223.5t-115.5 -148t-148.5 -76.5t-173.5 -17z" />
    <glyph glyph-name="uni041C" unicode="&#x41c;" horiz-adv-x="1689" 
d="M35 0l227 1434h203l332 -1215l708 1215h211l-227 -1434h-170l178 1122h-6l-653 -1122h-146l-305 1122h-6l-178 -1122h-168z" />
    <glyph glyph-name="uni041D" unicode="&#x41d;" horiz-adv-x="1327" 
d="M956 0l101 633h-754l-100 -633h-168l227 1434h168l-104 -660h753l105 660h170l-228 -1434h-170z" />
    <glyph glyph-name="uni041E" unicode="&#x41e;" horiz-adv-x="1470" 
d="M662 -20q-254 0 -403.5 153.5t-149.5 444.5q0 173 53 330.5t149 278.5t240.5 193t316.5 72q255 0 404 -153t149 -445q0 -137 -33.5 -266t-99 -239t-156 -192.5t-212 -129.5t-258.5 -47zM279 582q0 -227 105 -341t288 -114q110 0 204.5 41t162.5 111t116.5 162.5t72 196.5
t23.5 212q0 227 -105.5 341t-287.5 114q-136 0 -248.5 -62.5t-183 -165.5t-109 -231t-38.5 -264z" />
    <glyph glyph-name="uni041F" unicode="&#x41f;" horiz-adv-x="1329" 
d="M35 0l227 1434h1094l-228 -1434h-172l203 1284h-751l-203 -1284h-170z" />
    <glyph glyph-name="uni0420" unicode="&#x420;" horiz-adv-x="1212" 
d="M35 0l227 1434h518q221 0 332 -95.5t111 -279.5q0 -232 -159 -369t-423 -137h-350l-88 -553h-168zM315 702h344q182 0 286 90.5t104 243.5q0 248 -299 248h-344z" />
    <glyph glyph-name="uni0421" unicode="&#x421;" horiz-adv-x="1355" 
d="M666 -20q-259 0 -408 152t-149 450q0 139 32.5 267.5t97 238t154.5 191t213 127.5t264 46q225 0 361 -113t139 -323h-160q-15 143 -108.5 216t-245.5 73q-110 0 -204.5 -40t-162 -108.5t-115.5 -159.5t-71.5 -193t-23.5 -208q0 -230 108.5 -349.5t296.5 -119.5
q151 0 259 75t169 218h164q-67 -218 -228.5 -329t-381.5 -111z" />
    <glyph glyph-name="uni0422" unicode="&#x422;" horiz-adv-x="1187" 
d="M426 0l203 1284h-453l25 150h1073l-25 -150h-452l-203 -1284h-168z" />
    <glyph glyph-name="uni0423" unicode="&#x423;" horiz-adv-x="1157" 
d="M129 139q108 -14 176 26.5t119 131.5q26 49 33 88t-4 82l-252 967h184l203 -840l469 840h188l-661 -1143q-107 -184 -219 -256t-261 -53z" />
    <glyph glyph-name="uni0424" unicode="&#x424;" horiz-adv-x="1468" 
d="M559 -31l25 154q-223 21 -349 144t-126 337q0 294 183 488.5t480 220.5l25 151h172l-25 -151q224 -19 349.5 -142.5t125.5 -339.5q0 -295 -182 -488.5t-481 -219.5l-25 -154h-172zM274 625q0 -163 86.5 -256.5t243.5 -114.5l148 924q-219 -26 -348.5 -178.5
t-129.5 -374.5zM776 254q220 27 348.5 180t128.5 377q0 162 -86 255t-243 114z" />
    <glyph glyph-name="uni0425" unicode="&#x425;" horiz-adv-x="1320" 
d="M-39 0l637 741l-375 693h191l301 -557l479 557h192l-595 -695l401 -739h-191l-327 604l-518 -604h-195z" />
    <glyph glyph-name="uni0426" unicode="&#x426;" horiz-adv-x="1349" 
d="M35 0l227 1434h170l-203 -1282h752l203 1282h172l-203 -1282h90l-69 -441h-164l45 289h-1020z" />
    <glyph glyph-name="uni0427" unicode="&#x427;" horiz-adv-x="1280" 
d="M494 334q-90 0 -162.5 24.5t-126.5 76t-75 140.5t-3 209l104 650h170l-102 -643q-13 -80 3 -140.5t55 -96t92 -52.5t120 -17q73 0 141.5 20t120 51.5t93.5 70t67.5 75t36.5 68.5v-8l107 672h172l-228 -1434h-172l90 573q-32 -41 -78 -80t-108.5 -76.5t-145.5 -60
t-171 -22.5z" />
    <glyph glyph-name="uni0428" unicode="&#x428;" horiz-adv-x="1615" 
d="M35 0l227 1434h170l-203 -1282h433l204 1282h170l-202 -1282h432l204 1282h170l-227 -1434h-1378z" />
    <glyph glyph-name="uni0429" unicode="&#x429;" horiz-adv-x="1640" 
d="M35 0l227 1434h170l-203 -1282h433l204 1282h170l-202 -1282h432l204 1282h170l-202 -1282h96l-72 -441h-164l45 289h-1308z" />
    <glyph glyph-name="uni042A" unicode="&#x42a;" horiz-adv-x="1310" 
d="M166 1284l24 150h340l-81 -521h339q223 0 336 -98t113 -285q0 -239 -162.5 -384.5t-429.5 -145.5h-512l203 1284h-170zM328 152h342q179 0 282 99.5t103 258.5q0 252 -289 252h-342z" />
    <glyph glyph-name="uni042B" unicode="&#x42b;" horiz-adv-x="1587" 
d="M35 0l227 1434h170l-82 -521h340q223 0 336 -98t113 -285q0 -239 -162.5 -384.5t-429.5 -145.5h-512zM229 152h342q179 0 282 99.5t103 258.5q0 252 -288 252h-342zM1219 0l227 1434h168l-228 -1434h-167z" />
    <glyph glyph-name="uni042C" unicode="&#x42c;" horiz-adv-x="1214" 
d="M35 0l227 1434h170l-82 -521h340q223 0 336 -98t113 -285q0 -239 -162.5 -384.5t-429.5 -145.5h-512zM229 152h342q179 0 282 99.5t103 258.5q0 252 -288 252h-342z" />
    <glyph glyph-name="uni042D" unicode="&#x42d;" horiz-adv-x="1361" 
d="M594 625l20 141h525q2 23 2 70q0 230 -109 349.5t-297 119.5q-151 0 -259 -75t-169 -218h-164q67 218 229 329t382 111q259 0 408 -152t149 -450q-1 -174 -53.5 -330.5t-147.5 -277t-241 -191.5t-322 -71q-225 0 -361 113t-139 323h160q15 -143 108.5 -216t245.5 -73
q109 0 203.5 39.5t163 108.5t116 157.5t72.5 192.5h-522z" />
    <glyph glyph-name="uni042E" unicode="&#x42e;" horiz-adv-x="1894" 
d="M35 0l227 1434h168l-104 -660h225q26 142 89.5 264.5t156.5 215t220.5 145.5t274.5 53q255 0 404 -153t149 -445q0 -137 -33.5 -266t-99.5 -239t-156.5 -192.5t-212 -129.5t-258.5 -47q-254 0 -403.5 153.5t-149.5 444.5l3 55h-232l-100 -633h-168zM702 582
q0 -226 105.5 -340.5t288.5 -114.5q110 0 204.5 41t162.5 111t116.5 162.5t72 196.5t23.5 212q0 227 -105.5 341t-287.5 114q-136 0 -248.5 -62.5t-183.5 -165.5t-109.5 -231t-38.5 -264z" />
    <glyph glyph-name="uni042F" unicode="&#x42f;" horiz-adv-x="1224" 
d="M854 0l86 553h-328l-442 -553h-188l456 565q-295 58 -295 361q0 231 160.5 369.5t423.5 138.5h522l-227 -1434h-168zM317 950q0 -248 299 -248h349l92 582h-350q-182 0 -286 -90.5t-104 -243.5z" />
    <glyph glyph-name="uni0430" unicode="&#x430;" 
d="M336 -20q-144 0 -227.5 63t-83.5 190q0 144 103 233.5t284 111.5l270 30q86 11 118.5 26.5t39.5 51.5l6 35q24 131 -34 185.5t-194 54.5q-132 0 -204.5 -48t-89.5 -153l-5 -25h-157l6 39q52 311 473 311q218 0 307.5 -87t59.5 -277l-113 -721h-156l29 180h-8
q-16 -25 -46 -54t-81 -64.5t-129.5 -58.5t-167.5 -23zM188 256q0 -145 199 -145q88 0 164 26.5t125.5 67.5t79.5 87.5t37 90.5l22 152q-20 -39 -164 -54l-219 -26q-114 -14 -179 -63.5t-65 -135.5z" />
    <glyph glyph-name="uni0431" unicode="&#x431;" horiz-adv-x="1144" 
d="M504 -18q-101 0 -179 31t-127 87.5t-78 135t-32 173.5t12 203l56 353q36 232 171.5 350.5t356.5 118.5h154q69 0 103 10.5t48 34.5h156q-26 -98 -94 -137t-213 -39h-164q-149 0 -242 -83.5t-119 -246.5l-18 -113q59 103 167.5 158t227.5 55q78 0 147.5 -25.5t125.5 -75.5
t89 -134.5t33 -192.5q0 -178 -75 -330t-209.5 -242.5t-296.5 -90.5zM238 438q0 -159 79.5 -239t204.5 -80q91 0 168.5 43.5t128.5 115t80 162t29 185.5q0 159 -80 239t-205 80q-91 0 -169 -44t-128.5 -115.5t-79 -162t-28.5 -184.5z" />
    <glyph glyph-name="uni0432" unicode="&#x432;" horiz-adv-x="1132" 
d="M35 0l168 1065h506q150 0 234.5 -61.5t84.5 -169.5q0 -83 -51 -149t-152 -97q101 -24 153 -88.5t52 -161.5q0 -110 -65 -187.5t-172.5 -114t-247.5 -36.5h-510zM219 137h342q152 0 230.5 56t78.5 155q0 80 -56 125t-191 45h-344zM297 627h334q113 0 176 48.5t63 125.5
q0 127 -194 127h-332z" />
    <glyph glyph-name="uni0433" unicode="&#x433;" horiz-adv-x="845" 
d="M35 0l168 1065h680l-21 -131h-516l-147 -934h-164z" />
    <glyph glyph-name="uni0434" unicode="&#x434;" horiz-adv-x="1208" 
d="M113 0l-23 -131h-149l41 264h79q31 28 55.5 75.5t41.5 95.5t36 143t31 166t35 216l37 236h874l-147 -932h74l-41 -264h-150l21 131h-815zM223 133h637l127 801h-547l-24 -156q-48 -310 -86.5 -447t-106.5 -198z" />
    <glyph glyph-name="uni0435" unicode="&#x435;" horiz-adv-x="1105" 
d="M492 -23q-201 0 -317 110.5t-116 336.5q0 132 40.5 251t114 210.5t186 145.5t247.5 54q188 0 298 -101t110 -296q0 -123 -29 -205h-807q-2 -16 -2 -47q0 -172 75 -249.5t222 -77.5q230 0 326 188h147q-49 -114 -129.5 -187.5t-170 -103t-195.5 -29.5zM236 604h657
q29 167 -42 259.5t-222 92.5q-156 0 -256.5 -98t-136.5 -254z" />
    <glyph glyph-name="uni0436" unicode="&#x436;" horiz-adv-x="1533" 
d="M-59 0l622 539l-436 526h203l366 -451l72 451h164l-72 -451l510 451h205l-602 -526l450 -539h-202l-383 465l-74 -465h-164l74 463l-527 -463h-206z" />
    <glyph glyph-name="uni0437" unicode="&#x437;" horiz-adv-x="1044" 
d="M430 -18q-213 0 -315.5 103t-75.5 280h149q-18 -115 51.5 -187t211.5 -72q132 0 221.5 63.5t89.5 164.5q0 89 -78.5 135.5t-220.5 44.5l14 96q137 2 226.5 51.5t89.5 139.5q0 73 -58 114t-155 41q-117 0 -194.5 -58t-92.5 -150h-150q24 151 141 241t308 90q164 0 261 -67
t97 -181q0 -96 -69 -166.5t-181 -95.5q91 -14 157.5 -72.5t66.5 -162.5q0 -107 -69.5 -188.5t-180.5 -122.5t-244 -41z" />
    <glyph glyph-name="uni0438" unicode="&#x438;" horiz-adv-x="1189" 
d="M35 0l168 1065h164l-136 -848h7l737 848h180l-168 -1065h-164l133 842h-4l-731 -842h-186z" />
    <glyph glyph-name="uni0439" unicode="&#x439;" horiz-adv-x="1189" 
d="M35 0l168 1065h164l-136 -848h7l737 848h180l-168 -1065h-164l133 842h-4l-731 -842h-186zM451 1460h112q-13 -162 156 -162q174 0 201 162h114q-19 -116 -99.5 -189t-227.5 -73q-150 0 -212.5 74t-43.5 188z" />
    <glyph glyph-name="uni043A" unicode="&#x43a;" horiz-adv-x="1103" 
d="M35 0l168 1065h164l-91 -565l625 565h195l-518 -463l415 -602h-180l-352 498l-213 -191l-49 -307h-164z" />
    <glyph glyph-name="uni043B" unicode="&#x43b;" horiz-adv-x="1218" 
d="M-35 123q121 -2 197 69t106 257l97 616h821l-168 -1065h-160l143 934h-493l-78 -492q-74 -479 -485 -452z" />
    <glyph glyph-name="uni043C" unicode="&#x43c;" horiz-adv-x="1433" 
d="M35 0l168 1065h182l277 -879l552 879h187l-168 -1065h-164l123 776h-8l-482 -776h-131l-243 776h-6l-123 -776h-164z" />
    <glyph glyph-name="uni043D" unicode="&#x43d;" horiz-adv-x="1085" 
d="M35 0l168 1065h164l-70 -444h522l70 444h164l-168 -1065h-164l76 487h-523l-75 -487h-164z" />
    <glyph glyph-name="uni043E" unicode="&#x43e;" horiz-adv-x="1157" 
d="M498 -20q-91 0 -169 27t-139 80.5t-96 141.5t-35 201q0 129 43.5 247.5t120.5 209t191 144.5t245 54q92 0 170 -27t139 -80t95.5 -140.5t34.5 -200.5q0 -103 -27.5 -201t-80.5 -180t-125 -144t-167 -97t-200 -35zM219 444q0 -164 82.5 -244.5t214.5 -80.5q76 0 144 27.5
t118 76t86.5 112t55 137t18.5 149.5q0 165 -82.5 246t-214.5 81q-95 0 -176 -42.5t-134 -113.5t-82.5 -161.5t-29.5 -186.5z" />
    <glyph glyph-name="uni043F" unicode="&#x43f;" 
d="M35 0l168 1065h860l-168 -1065h-164l148 934h-533l-147 -934h-164z" />
    <glyph glyph-name="uni0440" unicode="&#x440;" horiz-adv-x="1204" 
d="M-29 -389l232 1454h164l-29 -176q69 95 174.5 145.5t226.5 50.5q84 0 156 -26t129 -76.5t90 -135.5t33 -194q0 -135 -42 -257.5t-116 -214.5t-182.5 -146.5t-235.5 -54.5q-121 0 -213 51.5t-131 146.5l-90 -567h-166zM266 444q0 -160 84.5 -242.5t214.5 -82.5
q93 0 173.5 42t134 112t84 161t30.5 189q0 160 -83 242.5t-214 82.5q-93 0 -173.5 -42t-135 -112t-85 -161t-30.5 -189z" />
    <glyph glyph-name="uni0441" unicode="&#x441;" 
d="M498 -20q-93 0 -171 27t-138 80.5t-94 141.5t-34 203q0 131 43 249.5t119.5 208t191 142.5t249.5 53q62 0 117 -11t108.5 -38t91 -69.5t60 -110t20.5 -154.5h-148q-3 126 -78 185t-190 59q-130 0 -229.5 -72t-149 -184.5t-49.5 -243.5q0 -162 79.5 -243.5t219.5 -81.5
q116 0 208.5 59t135.5 189h148q-24 -88 -67.5 -157t-94 -112t-112 -70.5t-119 -38.5t-117.5 -11z" />
    <glyph glyph-name="uni0442" unicode="&#x442;" horiz-adv-x="972" 
d="M322 0l145 934h-342l20 131h850l-20 -131h-344l-146 -934h-163z" />
    <glyph glyph-name="uni0443" unicode="&#x443;" 
d="M33 -254q111 -14 183 28t126 134q47 82 31 145l-242 1012h166l195 -875l471 875h172l-639 -1153q-104 -185 -217.5 -256t-266.5 -51z" />
    <glyph glyph-name="uni0444" unicode="&#x444;" horiz-adv-x="1206" 
d="M383 -389l59 375q-169 22 -276 131.5t-107 300.5q0 262 155 445.5t400 211.5l58 359h151l-57 -359q168 -22 275.5 -132.5t107.5 -301.5q0 -262 -155 -445.5t-400 -209.5l-59 -375h-152zM199 430q0 -141 70 -219t194 -98l131 835q-186 -27 -290.5 -169.5t-104.5 -348.5z
M614 115q184 26 290 168t106 346q0 140 -71 219.5t-194 97.5z" />
    <glyph glyph-name="uni0445" unicode="&#x445;" horiz-adv-x="1075" 
d="M-18 0l464 539l-284 526h178l215 -406l342 406h184l-452 -526l297 -539h-178l-226 420l-354 -420h-186z" />
    <glyph glyph-name="uni0446" unicode="&#x446;" horiz-adv-x="1183" 
d="M35 0l168 1065h164l-148 -932h533l147 932h164l-148 -932h86l-65 -420h-156l45 287h-790z" />
    <glyph glyph-name="uni0447" unicode="&#x447;" horiz-adv-x="1105" 
d="M821 508q-15 -33 -48.5 -70t-84 -74t-126 -61t-159.5 -24q-79 0 -141.5 22t-108.5 68.5t-63 126.5t0 188l62 381h163l-57 -363q-11 -80 -1 -134.5t43 -87.5t76.5 -47.5t100.5 -14.5q76 0 144.5 26t115 67t76.5 89.5t37 95.5l59 369h164l-168 -1065h-164z" />
    <glyph glyph-name="uni0448" unicode="&#x448;" horiz-adv-x="1552" 
d="M35 0l168 1065h164l-148 -932h416l147 932h156l-147 -932h417l148 932h164l-168 -1065h-1317z" />
    <glyph glyph-name="uni0449" unicode="&#x449;" horiz-adv-x="1640" 
d="M1237 -287l45 287h-1247l168 1065h164l-148 -932h416l147 932h156l-147 -932h417l148 932h164l-148 -932h86l-65 -420h-156z" />
    <glyph glyph-name="uni044A" unicode="&#x44a;" horiz-adv-x="1198" 
d="M111 934l20 131h348l-61 -387h325q177 0 269 -73.5t92 -213.5q0 -181 -128.5 -286t-338.5 -105h-490l148 934h-184zM332 133h315q139 0 217 62.5t78 175.5q0 89 -54 132.5t-175 43.5h-316z" />
    <glyph glyph-name="uni044B" unicode="&#x44b;" horiz-adv-x="1413" 
d="M35 0l168 1065h164l-62 -387h326q177 0 268.5 -73.5t91.5 -213.5q0 -181 -128.5 -286t-338.5 -105h-489zM219 133h316q139 0 216.5 62.5t77.5 175.5q0 89 -54 132.5t-175 43.5h-315zM1049 0l168 1065h163l-168 -1065h-163z" />
    <glyph glyph-name="uni044C" unicode="&#x44c;" horiz-adv-x="1085" 
d="M35 0l168 1065h164l-62 -387h326q177 0 268.5 -73.5t91.5 -213.5q0 -181 -128.5 -286t-338.5 -105h-489zM219 133h316q139 0 216.5 62.5t77.5 175.5q0 89 -54 132.5t-175 43.5h-315z" />
    <glyph glyph-name="uni044D" unicode="&#x44d;" horiz-adv-x="1101" 
d="M500 494l16 106h369v18q0 162 -79.5 244t-219.5 82q-116 0 -208.5 -59t-135.5 -189h-148q24 88 67.5 157t94 112t112 70.5t119 38.5t117.5 11q93 0 170.5 -27t138 -80.5t94 -141.5t33.5 -203q-1 -131 -44 -249.5t-119.5 -208t-191 -142.5t-249.5 -53q-62 0 -117 10.5
t-108 38t-90.5 69.5t-59.5 109.5t-20 154.5h145q3 -126 78.5 -184.5t190.5 -58.5q162 0 271.5 106t143.5 269h-370z" />
    <glyph glyph-name="uni044E" unicode="&#x44e;" horiz-adv-x="1495" 
d="M12 0l168 1065h164l-74 -467h146q52 211 207.5 349t373.5 138q92 0 170 -27t139 -80t95.5 -140.5t34.5 -200.5q0 -103 -27.5 -201t-80.5 -180t-125 -144t-167 -97t-200 -35q-91 0 -169 27t-139 80.5t-96 141.5t-35 201v35h-147l-74 -465h-164zM557 444
q0 -164 82.5 -244.5t214.5 -80.5q76 0 144 27.5t118 76t86.5 112t55 137t18.5 149.5q0 165 -82.5 246t-214.5 81q-95 0 -176 -42.5t-134 -113.5t-82.5 -161.5t-29.5 -186.5z" />
    <glyph glyph-name="uni044F" unicode="&#x44f;" 
d="M731 0l62 387h-295l-326 -387h-176l340 399q-230 51 -230 285q0 176 128 278.5t339 102.5h490l-168 -1065h-164zM264 698q0 -88 56 -133t176 -45h317l66 414h-318q-142 0 -219.5 -64t-77.5 -172z" />
    <glyph glyph-name="uni0451" unicode="&#x451;" horiz-adv-x="1105" 
d="M492 -23q-201 0 -317 110.5t-116 336.5q0 132 40.5 251t114 210.5t186 145.5t247.5 54q188 0 298 -101t110 -296q0 -123 -29 -205h-807q-2 -16 -2 -47q0 -172 75 -249.5t222 -77.5q230 0 326 188h147q-49 -114 -129.5 -187.5t-170 -103t-195.5 -29.5zM236 604h657
q29 167 -42 259.5t-222 92.5q-156 0 -256.5 -98t-136.5 -254zM395 1378q0 42 31.5 72.5t73.5 30.5t72 -30.5t30 -72.5q0 -41 -30.5 -71.5t-71.5 -30.5q-42 0 -73.5 30.5t-31.5 71.5zM780 1378q0 42 31.5 72.5t73.5 30.5q41 0 71.5 -30.5t30.5 -72.5q0 -41 -30.5 -71.5
t-71.5 -30.5q-42 0 -73.5 30.5t-31.5 71.5z" />
    <glyph glyph-name="uni0453" unicode="&#x453;" horiz-adv-x="845" 
d="M35 0l168 1065h680l-21 -131h-516l-147 -934h-164zM424 1192l250 268h147l-248 -268h-149z" />
    <glyph glyph-name="uni0454" unicode="&#x454;" 
d="M498 -20q-93 0 -171 27t-138 80.5t-94 141.5t-34 203q0 131 43 249.5t119.5 208t191 142.5t249.5 53q62 0 117 -11t108.5 -38t91 -69.5t60 -110t20.5 -154.5h-148q-3 126 -78 185t-190 59q-155 0 -262 -96.5t-147 -249.5h368l-16 -106h-369q-2 -16 -2 -48
q0 -162 79.5 -243.5t219.5 -81.5q116 0 208.5 59t135.5 189h148q-24 -88 -67.5 -157t-94 -112t-112 -70.5t-119 -38.5t-117.5 -11z" />
    <glyph glyph-name="uni0457" unicode="&#x457;" horiz-adv-x="356" 
d="M12 0l168 1065h164l-168 -1065h-164zM14 1378q0 42 31.5 72.5t73.5 30.5q41 0 71.5 -30.5t30.5 -72.5q0 -41 -30.5 -71.5t-71.5 -30.5q-42 0 -73.5 30.5t-31.5 71.5zM399 1378q0 42 31.5 72.5t73.5 30.5t72 -30.5t30 -72.5q0 -41 -30.5 -71.5t-71.5 -30.5
q-42 0 -73.5 30.5t-31.5 71.5z" />
    <glyph glyph-name="uni045C" unicode="&#x45c;" horiz-adv-x="1103" 
d="M35 0l168 1065h164l-91 -565l625 565h195l-518 -463l415 -602h-180l-352 498l-213 -191l-49 -307h-164zM547 1192l250 268h147l-248 -268h-149z" />
    <glyph glyph-name="uni045E" unicode="&#x45e;" 
d="M33 -254q111 -14 183 28t126 134q47 82 31 145l-242 1012h166l195 -875l471 875h172l-639 -1153q-104 -185 -217.5 -256t-266.5 -51zM319 1460h113q-14 -162 156 -162q173 0 200 162h115q-19 -116 -100 -189t-228 -73q-150 0 -212.5 74t-43.5 188z" />
    <glyph glyph-name="uni0490" unicode="&#x490;" horiz-adv-x="1021" 
d="M938 1434l33 204h172l-33 -204l-25 -150h-677l-203 -1284h-170l227 1434h676z" />
    <glyph glyph-name="uni0491" unicode="&#x491;" horiz-adv-x="845" 
d="M739 1065l23 135h143l-22 -135l-21 -131h-516l-147 -934h-164l168 1065h536z" />
    <glyph glyph-name="uni1E0C" unicode="&#x1e0c;" horiz-adv-x="1347" 
d="M35 0l227 1434h459q288 0 431.5 -144.5t143.5 -439.5q0 -181 -52.5 -335.5t-151 -269.5t-250.5 -180t-340 -65h-467zM227 150h275q125 0 228 35.5t176 98.5t123 150.5t73.5 191t23.5 220.5q0 234 -103.5 336t-328.5 102h-288zM422 -356q0 47 34.5 80.5t82.5 33.5
q47 0 80.5 -33.5t33.5 -80.5t-33.5 -81t-80.5 -34t-82 34t-35 81z" />
    <glyph glyph-name="uni1E0D" unicode="&#x1e0d;" horiz-adv-x="1204" 
d="M459 -20q-83 0 -153.5 26t-126.5 77.5t-88 137t-32 195.5q0 133 41 254t113.5 213t181 147t234.5 55q124 0 217 -50.5t133 -145.5l86 545h164l-228 -1434h-163l28 178q-69 -95 -177.5 -146.5t-229.5 -51.5zM217 449q0 -164 82.5 -247t214.5 -83q93 0 173 41.5t134.5 111
t85.5 159.5t31 187q0 162 -86 246t-217 84q-123 0 -220 -71.5t-147.5 -185t-50.5 -242.5zM352 -356q0 47 34.5 80.5t82.5 33.5q47 0 81 -33.5t34 -80.5t-34 -81t-81 -34t-82 34t-35 81z" />
    <glyph glyph-name="uni1E20" unicode="&#x1e20;" horiz-adv-x="1429" 
d="M672 -20q-266 0 -413.5 152t-147.5 450q0 175 52.5 332t148.5 277t242.5 190.5t322.5 70.5q215 0 344.5 -100t144.5 -287h-164q-24 120 -110 180t-224 60q-112 0 -208.5 -39.5t-165.5 -107.5t-118 -158.5t-73 -193.5t-24 -212q0 -232 106.5 -349.5t300.5 -117.5
q197 0 326.5 120.5t165.5 354.5l-361 -6l23 139h524l-14 -94q-54 -330 -225.5 -495.5t-452.5 -165.5zM623 1726l16 103h604l-16 -103h-604z" />
    <glyph glyph-name="uni1E21" unicode="&#x1e21;" horiz-adv-x="1193" 
d="M455 23q-81 0 -151 24t-125 72.5t-86.5 129.5t-31.5 187q0 131 40 249t111 206.5t176.5 141t229.5 52.5q122 0 217.5 -49.5t135.5 -140.5l26 170h164l-149 -940l-17 -109q-16 -103 -60.5 -182.5t-101.5 -128t-130.5 -79.5t-142.5 -42.5t-142 -11.5q-70 0 -133 10.5
t-120.5 35.5t-97 62t-58 94.5t-7.5 129.5h143q-10 -95 69.5 -149t215.5 -54q75 0 139.5 17.5t119 54t92 98.5t50.5 145l17 109l14 88q-72 -92 -180.5 -141t-226.5 -49zM219 471q0 -152 82 -230.5t211 -78.5q121 0 218.5 66t149.5 173.5t52 233.5q0 154 -83.5 233.5
t-215.5 79.5q-121 0 -217 -66.5t-146.5 -174.5t-50.5 -236zM416 1358l16 102h604l-16 -102h-604z" />
    <glyph glyph-name="uni1E24" unicode="&#x1e24;" horiz-adv-x="1327" 
d="M956 0l101 633h-754l-100 -633h-168l227 1434h168l-104 -660h753l105 660h170l-228 -1434h-170zM410 -356q0 47 34.5 80.5t81.5 33.5t81 -33.5t34 -80.5t-34 -81t-81 -34t-81.5 34t-34.5 81z" />
    <glyph glyph-name="uni1E25" unicode="&#x1e25;" horiz-adv-x="1153" 
d="M203 1065l59 369h164l-59 -369l-33 -209h4q13 31 42 67t77 74t123 63t161 25q82 0 145 -23t109.5 -74t60.5 -132.5t-1 -198.5l-105 -657h-164l99 625q25 155 -31 238t-195 83q-137 0 -233 -79.5t-125 -219.5l-102 -647h-164zM328 -356q0 47 34.5 80.5t81.5 33.5t81 -33.5
t34 -80.5t-34 -81t-81 -34t-81.5 34t-34.5 81z" />
    <glyph glyph-name="uni1E62" unicode="&#x1e62;" horiz-adv-x="1255" 
d="M553 -20q-259 0 -386.5 121t-96.5 317h170q-13 -131 70 -212t265 -81q181 0 286.5 81t105.5 218q0 104 -62 154t-190 77l-170 35q-166 36 -251 118t-85 220q0 194 153 309t396 115q231 0 352.5 -103.5t95.5 -277.5h-170q11 106 -65 172t-232 66q-162 0 -257 -73t-95 -196
q0 -86 55 -139.5t179 -79.5l165 -35q180 -38 270.5 -116.5t90.5 -229.5q0 -141 -77 -246t-211 -159.5t-306 -54.5zM371 -356q0 47 34.5 80.5t81.5 33.5t81 -33.5t34 -80.5t-34 -81t-81 -34t-81.5 34t-34.5 81z" />
    <glyph glyph-name="uni1E63" unicode="&#x1e63;" horiz-adv-x="983" 
d="M414 -20q-190 0 -301.5 82t-92.5 241h150q-2 -52 18.5 -90.5t58.5 -60t83.5 -31.5t99.5 -10q128 0 209.5 52.5t81.5 149.5q0 66 -41 98t-133 54l-174 43q-124 31 -184 93t-60 161q0 150 122.5 236.5t317.5 86.5q181 0 279.5 -80t83.5 -235h-139q0 184 -238 184
q-123 0 -195.5 -45t-72.5 -129q0 -57 39 -92.5t131 -58.5l172 -43q129 -33 195.5 -89t66.5 -167q0 -112 -66 -192.5t-172.5 -119t-238.5 -38.5zM248 -356q0 47 34.5 80.5t82.5 33.5q47 0 80.5 -33.5t33.5 -80.5t-33.5 -81t-80.5 -34t-82 34t-35 81z" />
    <glyph glyph-name="uni1E6C" unicode="&#x1e6c;" horiz-adv-x="1187" 
d="M426 0l203 1284h-453l25 150h1073l-25 -150h-452l-203 -1284h-168zM317 -356q0 47 34.5 80.5t82.5 33.5q47 0 81 -33.5t34 -80.5t-34 -81t-81 -34t-82 34t-35 81z" />
    <glyph glyph-name="uni1E6D" unicode="&#x1e6d;" horiz-adv-x="665" 
d="M408 -14q-276 0 -234 264l109 684h-172l20 131h172l41 266h164l-43 -266h213l-19 -131h-215l-102 -653q-14 -86 16 -123t115 -37h72l-21 -129q-39 -6 -116 -6zM180 -356q0 47 34.5 80.5t82.5 33.5q47 0 81 -33.5t34 -80.5t-34 -81t-81 -34t-82 34t-35 81z" />
    <glyph glyph-name="Wgrave" unicode="&#x1e80;" horiz-adv-x="1986" 
d="M356 0l-155 1434h172l116 -1196h9l546 1196h181l170 -1196h8l495 1196h177l-611 -1434h-182l-180 1219l-561 -1219h-185zM911 1829h146l168 -268h-144z" />
    <glyph glyph-name="wgrave" unicode="&#x1e81;" horiz-adv-x="1628" 
d="M266 0l-135 1065h156l104 -897h8l422 897h148l147 -897h8l383 897h160l-467 -1065h-192l-144 848l-403 -848h-195zM674 1460h145l168 -268h-143z" />
    <glyph glyph-name="Wacute" unicode="&#x1e82;" horiz-adv-x="1986" 
d="M356 0l-155 1434h172l116 -1196h9l546 1196h181l170 -1196h8l495 1196h177l-611 -1434h-182l-180 1219l-561 -1219h-185zM1049 1561l249 268h148l-248 -268h-149z" />
    <glyph glyph-name="wacute" unicode="&#x1e83;" horiz-adv-x="1628" 
d="M266 0l-135 1065h156l104 -897h8l422 897h148l147 -897h8l383 897h160l-467 -1065h-192l-144 848l-403 -848h-195zM811 1192l250 268h147l-247 -268h-150z" />
    <glyph glyph-name="Wdieresis" unicode="&#x1e84;" horiz-adv-x="1986" 
d="M356 0l-155 1434h172l116 -1196h9l546 1196h181l170 -1196h8l495 1196h177l-611 -1434h-182l-180 1219l-561 -1219h-185zM891 1747q0 42 31 72t73 30t72.5 -30t30.5 -72q0 -41 -31 -71.5t-72 -30.5t-72.5 30.5t-31.5 71.5zM1276 1747q0 42 31 72t73 30t72.5 -30t30.5 -72
q0 -41 -31 -71.5t-72 -30.5t-72.5 30.5t-31.5 71.5z" />
    <glyph glyph-name="wdieresis" unicode="&#x1e85;" horiz-adv-x="1628" 
d="M266 0l-135 1065h156l104 -897h8l422 897h148l147 -897h8l383 897h160l-467 -1065h-192l-144 848l-403 -848h-195zM653 1378q0 42 31.5 72.5t73.5 30.5t72 -30.5t30 -72.5q0 -41 -30.5 -71.5t-71.5 -30.5q-42 0 -73.5 30.5t-31.5 71.5zM1038 1378q0 42 31.5 72.5
t73.5 30.5q41 0 71.5 -30.5t30.5 -72.5q0 -41 -30.5 -71.5t-71.5 -30.5q-42 0 -73.5 30.5t-31.5 71.5z" />
    <glyph glyph-name="uni1E92" unicode="&#x1e92;" horiz-adv-x="1249" 
d="M-2 0l25 150l1062 1134h-849l24 150h1043l-25 -150l-1065 -1134h895l-25 -150h-1085zM385 -356q0 47 34.5 80.5t82.5 33.5q47 0 80.5 -33.5t33.5 -80.5t-33.5 -81t-80.5 -34t-82 34t-35 81z" />
    <glyph glyph-name="uni1E93" unicode="&#x1e93;" horiz-adv-x="1019" 
d="M-2 0l22 141l783 785h-639l22 139h836l-23 -139l-782 -785h660l-23 -141h-856zM258 -356q0 47 34.5 80.5t82.5 33.5q47 0 80.5 -33.5t33.5 -80.5t-33.5 -81t-80.5 -34t-82 34t-35 81z" />
    <glyph glyph-name="uni1E9E" unicode="&#x1e9e;" horiz-adv-x="1378" 
d="M756 -20q-198 0 -291 109t-62 304h158q-16 -109 39 -185.5t178 -76.5q140 0 229 100.5t89 237.5q0 131 -90.5 203.5t-257.5 72.5h-121l434 558h-457q-108 0 -157.5 -47t-67.5 -152l-174 -1104h-170l176 1114q29 184 125 262t280 78h725l-456 -573q178 -16 284.5 -117.5
t106.5 -280.5q0 -216 -145.5 -359.5t-374.5 -143.5z" />
    <glyph glyph-name="uni1EA0" unicode="&#x1ea0;" horiz-adv-x="1396" 
d="M-39 0l776 1434h209l320 -1434h-174l-78 358h-680l-191 -358h-182zM406 489h579l-164 762h-10zM449 -356q0 47 34.5 80.5t81.5 33.5t81 -33.5t34 -80.5t-34 -81t-81 -34t-81.5 34t-34.5 81z" />
    <glyph glyph-name="uni1EA1" unicode="&#x1ea1;" 
d="M336 -20q-144 0 -227.5 63t-83.5 190q0 144 103 233.5t284 111.5l270 30q86 11 118.5 26.5t39.5 51.5l6 35q24 131 -34 185.5t-194 54.5q-132 0 -204.5 -48t-89.5 -153l-5 -25h-157l6 39q52 311 473 311q218 0 307.5 -87t59.5 -277l-113 -721h-156l29 180h-8
q-16 -25 -46 -54t-81 -64.5t-129.5 -58.5t-167.5 -23zM188 256q0 -145 199 -145q88 0 164 26.5t125.5 67.5t79.5 87.5t37 90.5l22 152q-20 -39 -164 -54l-219 -26q-114 -14 -179 -63.5t-65 -135.5zM299 -356q0 47 34.5 80.5t82.5 33.5q47 0 80.5 -33.5t33.5 -80.5t-33.5 -81
t-80.5 -34t-82 34t-35 81z" />
    <glyph glyph-name="uni1EA2" unicode="&#x1ea2;" horiz-adv-x="1396" 
d="M-39 0l776 1434h209l320 -1434h-174l-78 358h-680l-191 -358h-182zM406 489h579l-164 762h-10zM676 1735q0 89 57 136.5t133 47.5q82 0 140.5 -51.5t58.5 -143.5q0 -84 -53 -135t-129 -59l-41 76q59 2 92 31t33 81q0 50 -28.5 78.5t-72.5 28.5q-41 0 -68 -23.5t-30 -66.5
h-92z" />
    <glyph glyph-name="uni1EA3" unicode="&#x1ea3;" 
d="M336 -20q-144 0 -227.5 63t-83.5 190q0 144 103 233.5t284 111.5l270 30q86 11 118.5 26.5t39.5 51.5l6 35q24 131 -34 185.5t-194 54.5q-132 0 -204.5 -48t-89.5 -153l-5 -25h-157l6 39q52 311 473 311q218 0 307.5 -87t59.5 -277l-113 -721h-156l29 180h-8
q-16 -25 -46 -54t-81 -64.5t-129.5 -58.5t-167.5 -23zM188 256q0 -145 199 -145q88 0 164 26.5t125.5 67.5t79.5 87.5t37 90.5l22 152q-20 -39 -164 -54l-219 -26q-114 -14 -179 -63.5t-65 -135.5zM463 1366q0 89 57 136.5t133 47.5q82 0 140.5 -51t58.5 -143
q0 -84 -53 -135.5t-129 -59.5l-41 76q59 2 92 31.5t33 81.5q0 50 -28.5 78t-72.5 28q-41 0 -68 -23.5t-30 -66.5h-92z" />
    <glyph glyph-name="uni1EA4" unicode="&#x1ea4;" horiz-adv-x="1396" 
d="M-39 0l776 1434h209l320 -1434h-174l-78 358h-680l-191 -358h-182zM406 489h579l-164 762h-10zM545 1563l248 266h229l162 -266h-154l-131 211l-192 -211h-162zM1118 1763l250 269h148l-248 -269h-150z" />
    <glyph glyph-name="uni1EA5" unicode="&#x1ea5;" 
d="M336 -20q-144 0 -227.5 63t-83.5 190q0 144 103 233.5t284 111.5l270 30q86 11 118.5 26.5t39.5 51.5l6 35q24 131 -34 185.5t-194 54.5q-132 0 -204.5 -48t-89.5 -153l-5 -25h-157l6 39q52 311 473 311q218 0 307.5 -87t59.5 -277l-113 -721h-156l29 180h-8
q-16 -25 -46 -54t-81 -64.5t-129.5 -58.5t-167.5 -23zM188 256q0 -145 199 -145q88 0 164 26.5t125.5 67.5t79.5 87.5t37 90.5l22 152q-20 -39 -164 -54l-219 -26q-114 -14 -179 -63.5t-65 -135.5zM334 1194l248 266h229l162 -266h-154l-131 211l-192 -211h-162zM907 1395
l250 268h148l-248 -268h-150z" />
    <glyph glyph-name="uni1EA6" unicode="&#x1ea6;" horiz-adv-x="1396" 
d="M-39 0l776 1434h209l320 -1434h-174l-78 358h-680l-191 -358h-182zM406 489h579l-164 762h-10zM545 1563l248 266h229l162 -266h-154l-131 211l-192 -211h-162zM1004 2030h145l149 -269h-145z" />
    <glyph glyph-name="uni1EA7" unicode="&#x1ea7;" 
d="M336 -20q-144 0 -227.5 63t-83.5 190q0 144 103 233.5t284 111.5l270 30q86 11 118.5 26.5t39.5 51.5l6 35q24 131 -34 185.5t-194 54.5q-132 0 -204.5 -48t-89.5 -153l-5 -25h-157l6 39q52 311 473 311q218 0 307.5 -87t59.5 -277l-113 -721h-156l29 180h-8
q-16 -25 -46 -54t-81 -64.5t-129.5 -58.5t-167.5 -23zM188 256q0 -145 199 -145q88 0 164 26.5t125.5 67.5t79.5 87.5t37 90.5l22 152q-20 -39 -164 -54l-219 -26q-114 -14 -179 -63.5t-65 -135.5zM334 1194l248 266h229l162 -266h-154l-131 211l-192 -211h-162zM793 1661
h145l149 -268h-145z" />
    <glyph glyph-name="uni1EA8" unicode="&#x1ea8;" horiz-adv-x="1396" 
d="M-39 0l776 1434h209l320 -1434h-174l-78 358h-680l-191 -358h-182zM406 489h579l-164 762h-10zM545 1563l248 266h229l162 -266h-154l-131 211l-192 -211h-162zM958 2005q0 89 57 136.5t134 47.5q82 0 140.5 -51t58.5 -143q0 -84 -53.5 -135.5t-129.5 -59.5l-41 76
q59 2 92 31.5t33 81.5q0 50 -28 78t-72 28q-41 0 -68 -23.5t-30 -66.5h-93z" />
    <glyph glyph-name="uni1EA9" unicode="&#x1ea9;" 
d="M336 -20q-144 0 -227.5 63t-83.5 190q0 144 103 233.5t284 111.5l270 30q86 11 118.5 26.5t39.5 51.5l6 35q24 131 -34 185.5t-194 54.5q-132 0 -204.5 -48t-89.5 -153l-5 -25h-157l6 39q52 311 473 311q218 0 307.5 -87t59.5 -277l-113 -721h-156l29 180h-8
q-16 -25 -46 -54t-81 -64.5t-129.5 -58.5t-167.5 -23zM188 256q0 -145 199 -145q88 0 164 26.5t125.5 67.5t79.5 87.5t37 90.5l22 152q-20 -39 -164 -54l-219 -26q-114 -14 -179 -63.5t-65 -135.5zM334 1194l248 266h229l162 -266h-154l-131 211l-192 -211h-162zM748 1636
q0 89 57 137t133 48q82 0 140.5 -51.5t58.5 -143.5q0 -84 -53.5 -135t-129.5 -59l-41 75q59 2 92 31.5t33 81.5q0 50 -28 78t-72 28q-41 0 -68 -23.5t-30 -66.5h-92z" />
    <glyph glyph-name="uni1EAA" unicode="&#x1eaa;" horiz-adv-x="1396" 
d="M-39 0l776 1434h209l320 -1434h-174l-78 358h-680l-191 -358h-182zM406 489h579l-164 762h-10zM545 1563l248 266h229l162 -266h-154l-131 211l-192 -211h-162zM606 1978q13 96 66.5 146.5t132.5 50.5q41 0 74.5 -14.5t55 -34.5t41 -40.5t43.5 -35t52 -14.5
q40 0 67.5 27.5t30.5 62.5h107q-13 -96 -66.5 -146.5t-132.5 -50.5q-41 0 -73.5 14.5t-54 35t-41.5 40.5t-44.5 34.5t-52.5 14.5q-42 0 -68.5 -27.5t-29.5 -62.5h-107z" />
    <glyph glyph-name="uni1EAB" unicode="&#x1eab;" 
d="M336 -20q-144 0 -227.5 63t-83.5 190q0 144 103 233.5t284 111.5l270 30q86 11 118.5 26.5t39.5 51.5l6 35q24 131 -34 185.5t-194 54.5q-132 0 -204.5 -48t-89.5 -153l-5 -25h-157l6 39q52 311 473 311q218 0 307.5 -87t59.5 -277l-113 -721h-156l29 180h-8
q-16 -25 -46 -54t-81 -64.5t-129.5 -58.5t-167.5 -23zM188 256q0 -145 199 -145q88 0 164 26.5t125.5 67.5t79.5 87.5t37 90.5l22 152q-20 -39 -164 -54l-219 -26q-114 -14 -179 -63.5t-65 -135.5zM334 1194l248 266h229l162 -266h-154l-131 211l-192 -211h-162zM395 1610
q13 96 66.5 146t132.5 50q41 0 74.5 -14.5t55 -35t41 -40.5t43.5 -34.5t52 -14.5q40 0 67.5 27.5t30.5 62.5h107q-13 -96 -66.5 -146t-132.5 -50q-41 0 -73.5 14.5t-54 35t-41.5 40.5t-44.5 34.5t-52.5 14.5q-42 0 -68.5 -27.5t-29.5 -62.5h-107z" />
    <glyph glyph-name="uni1EAC" unicode="&#x1eac;" horiz-adv-x="1396" 
d="M-39 0l776 1434h209l320 -1434h-174l-78 358h-680l-191 -358h-182zM406 489h579l-164 762h-10zM449 -356q0 47 34.5 80.5t81.5 33.5t81 -33.5t34 -80.5t-34 -81t-81 -34t-81.5 34t-34.5 81zM545 1563l248 266h229l162 -266h-154l-131 211l-192 -211h-162z" />
    <glyph glyph-name="uni1EAD" unicode="&#x1ead;" 
d="M336 -20q-144 0 -227.5 63t-83.5 190q0 144 103 233.5t284 111.5l270 30q86 11 118.5 26.5t39.5 51.5l6 35q24 131 -34 185.5t-194 54.5q-132 0 -204.5 -48t-89.5 -153l-5 -25h-157l6 39q52 311 473 311q218 0 307.5 -87t59.5 -277l-113 -721h-156l29 180h-8
q-16 -25 -46 -54t-81 -64.5t-129.5 -58.5t-167.5 -23zM188 256q0 -145 199 -145q88 0 164 26.5t125.5 67.5t79.5 87.5t37 90.5l22 152q-20 -39 -164 -54l-219 -26q-114 -14 -179 -63.5t-65 -135.5zM299 -356q0 47 34.5 80.5t82.5 33.5q47 0 80.5 -33.5t33.5 -80.5t-33.5 -81
t-80.5 -34t-82 34t-35 81zM334 1194l248 266h229l162 -266h-154l-131 211l-192 -211h-162z" />
    <glyph glyph-name="uni1EAE" unicode="&#x1eae;" horiz-adv-x="1396" 
d="M-39 0l776 1434h209l320 -1434h-174l-78 358h-680l-191 -358h-182zM406 489h579l-164 762h-10zM616 1829h113q-13 -162 156 -162q173 0 200 162h115q-19 -116 -100 -189t-228 -73q-150 0 -212.5 74t-43.5 188zM834 1894l249 269h148l-248 -269h-149z" />
    <glyph glyph-name="uni1EAF" unicode="&#x1eaf;" 
d="M336 -20q-144 0 -227.5 63t-83.5 190q0 144 103 233.5t284 111.5l270 30q86 11 118.5 26.5t39.5 51.5l6 35q24 131 -34 185.5t-194 54.5q-132 0 -204.5 -48t-89.5 -153l-5 -25h-157l6 39q52 311 473 311q218 0 307.5 -87t59.5 -277l-113 -721h-156l29 180h-8
q-16 -25 -46 -54t-81 -64.5t-129.5 -58.5t-167.5 -23zM188 256q0 -145 199 -145q88 0 164 26.5t125.5 67.5t79.5 87.5t37 90.5l22 152q-20 -39 -164 -54l-219 -26q-114 -14 -179 -63.5t-65 -135.5zM403 1460h113q-14 -162 156 -162q173 0 200 162h115q-19 -116 -100 -189
t-228 -73q-150 0 -212.5 74t-43.5 188zM621 1526l249 268h148l-248 -268h-149z" />
    <glyph glyph-name="uni1EB0" unicode="&#x1eb0;" horiz-adv-x="1396" 
d="M-39 0l776 1434h209l320 -1434h-174l-78 358h-680l-191 -358h-182zM406 489h579l-164 762h-10zM616 1829h113q-13 -162 156 -162q173 0 200 162h115q-19 -116 -100 -189t-228 -73q-150 0 -212.5 74t-43.5 188zM672 2163h145l168 -269h-143z" />
    <glyph glyph-name="uni1EB1" unicode="&#x1eb1;" 
d="M336 -20q-144 0 -227.5 63t-83.5 190q0 144 103 233.5t284 111.5l270 30q86 11 118.5 26.5t39.5 51.5l6 35q24 131 -34 185.5t-194 54.5q-132 0 -204.5 -48t-89.5 -153l-5 -25h-157l6 39q52 311 473 311q218 0 307.5 -87t59.5 -277l-113 -721h-156l29 180h-8
q-16 -25 -46 -54t-81 -64.5t-129.5 -58.5t-167.5 -23zM188 256q0 -145 199 -145q88 0 164 26.5t125.5 67.5t79.5 87.5t37 90.5l22 152q-20 -39 -164 -54l-219 -26q-114 -14 -179 -63.5t-65 -135.5zM403 1460h113q-14 -162 156 -162q173 0 200 162h115q-19 -116 -100 -189
t-228 -73q-150 0 -212.5 74t-43.5 188zM459 1794h145l168 -268h-143z" />
    <glyph glyph-name="uni1EB2" unicode="&#x1eb2;" horiz-adv-x="1396" 
d="M-39 0l776 1434h209l320 -1434h-174l-78 358h-680l-191 -358h-182zM406 489h579l-164 762h-10zM616 1829h113q-13 -162 156 -162q173 0 200 162h115q-19 -116 -100 -189t-228 -73q-150 0 -212.5 74t-43.5 188zM670 2007q0 89 57 136.5t133 47.5q82 0 140.5 -51t58.5 -143
q0 -84 -53 -135.5t-129 -59.5l-41 76q59 2 92 31.5t33 81.5q0 50 -28.5 78t-72.5 28q-41 0 -68 -23.5t-30 -66.5h-92z" />
    <glyph glyph-name="uni1EB3" unicode="&#x1eb3;" 
d="M336 -20q-144 0 -227.5 63t-83.5 190q0 144 103 233.5t284 111.5l270 30q86 11 118.5 26.5t39.5 51.5l6 35q24 131 -34 185.5t-194 54.5q-132 0 -204.5 -48t-89.5 -153l-5 -25h-157l6 39q52 311 473 311q218 0 307.5 -87t59.5 -277l-113 -721h-156l29 180h-8
q-16 -25 -46 -54t-81 -64.5t-129.5 -58.5t-167.5 -23zM188 256q0 -145 199 -145q88 0 164 26.5t125.5 67.5t79.5 87.5t37 90.5l22 152q-20 -39 -164 -54l-219 -26q-114 -14 -179 -63.5t-65 -135.5zM403 1460h113q-14 -162 156 -162q173 0 200 162h115q-19 -116 -100 -189
t-228 -73q-150 0 -212.5 74t-43.5 188zM457 1638q0 89 57 137t133 48q82 0 140.5 -51.5t58.5 -143.5q0 -84 -53 -135t-129 -59l-41 75q59 2 92 31.5t33 81.5q0 50 -28.5 78.5t-72.5 28.5q-41 0 -68 -24t-30 -67h-92z" />
    <glyph glyph-name="uni1EB4" unicode="&#x1eb4;" horiz-adv-x="1396" 
d="M-39 0l776 1434h209l320 -1434h-174l-78 358h-680l-191 -358h-182zM406 489h579l-164 762h-10zM606 1989q13 96 66.5 146t132.5 50q41 0 74.5 -14.5t55 -34.5t41 -40.5t43.5 -35t52 -14.5q40 0 67.5 27.5t30.5 62.5h107q-13 -96 -66.5 -146.5t-132.5 -50.5
q-41 0 -73.5 14.5t-54 35t-41.5 41t-44.5 35t-52.5 14.5q-42 0 -68.5 -27.5t-29.5 -62.5h-107zM616 1829h113q-13 -162 156 -162q173 0 200 162h115q-19 -116 -100 -189t-228 -73q-150 0 -212.5 74t-43.5 188z" />
    <glyph glyph-name="uni1EB5" unicode="&#x1eb5;" 
d="M336 -20q-144 0 -227.5 63t-83.5 190q0 144 103 233.5t284 111.5l270 30q86 11 118.5 26.5t39.5 51.5l6 35q24 131 -34 185.5t-194 54.5q-132 0 -204.5 -48t-89.5 -153l-5 -25h-157l6 39q52 311 473 311q218 0 307.5 -87t59.5 -277l-113 -721h-156l29 180h-8
q-16 -25 -46 -54t-81 -64.5t-129.5 -58.5t-167.5 -23zM188 256q0 -145 199 -145q88 0 164 26.5t125.5 67.5t79.5 87.5t37 90.5l22 152q-20 -39 -164 -54l-219 -26q-114 -14 -179 -63.5t-65 -135.5zM393 1620q13 96 66.5 146.5t132.5 50.5q41 0 74.5 -14.5t55 -35t41 -41
t43.5 -35t52 -14.5q40 0 67.5 27.5t30.5 62.5h107q-13 -96 -66.5 -146t-132.5 -50q-41 0 -73.5 14.5t-54 35t-41.5 40.5t-44.5 34.5t-52.5 14.5q-42 0 -68.5 -27.5t-29.5 -62.5h-107zM403 1460h113q-14 -162 156 -162q173 0 200 162h115q-19 -116 -100 -189t-228 -73
q-150 0 -212.5 74t-43.5 188z" />
    <glyph glyph-name="uni1EB6" unicode="&#x1eb6;" horiz-adv-x="1396" 
d="M-39 0l776 1434h209l320 -1434h-174l-78 358h-680l-191 -358h-182zM406 489h579l-164 762h-10zM449 -356q0 47 34.5 80.5t81.5 33.5t81 -33.5t34 -80.5t-34 -81t-81 -34t-81.5 34t-34.5 81zM616 1829h113q-13 -162 156 -162q173 0 200 162h115q-19 -116 -100 -189
t-228 -73q-150 0 -212.5 74t-43.5 188z" />
    <glyph glyph-name="uni1EB7" unicode="&#x1eb7;" 
d="M336 -20q-144 0 -227.5 63t-83.5 190q0 144 103 233.5t284 111.5l270 30q86 11 118.5 26.5t39.5 51.5l6 35q24 131 -34 185.5t-194 54.5q-132 0 -204.5 -48t-89.5 -153l-5 -25h-157l6 39q52 311 473 311q218 0 307.5 -87t59.5 -277l-113 -721h-156l29 180h-8
q-16 -25 -46 -54t-81 -64.5t-129.5 -58.5t-167.5 -23zM188 256q0 -145 199 -145q88 0 164 26.5t125.5 67.5t79.5 87.5t37 90.5l22 152q-20 -39 -164 -54l-219 -26q-114 -14 -179 -63.5t-65 -135.5zM299 -356q0 47 34.5 80.5t82.5 33.5q47 0 80.5 -33.5t33.5 -80.5t-33.5 -81
t-80.5 -34t-82 34t-35 81zM403 1460h113q-14 -162 156 -162q173 0 200 162h115q-19 -116 -100 -189t-228 -73q-150 0 -212.5 74t-43.5 188z" />
    <glyph glyph-name="uni1EB8" unicode="&#x1eb8;" horiz-adv-x="1116" 
d="M35 0l227 1434h912l-25 -150h-743l-76 -479h682l-23 -137h-680l-82 -518h762l-22 -150h-932zM324 -356q0 47 34.5 80.5t81.5 33.5t81 -33.5t34 -80.5t-34 -81t-81 -34t-81.5 34t-34.5 81z" />
    <glyph glyph-name="uni1EB9" unicode="&#x1eb9;" horiz-adv-x="1105" 
d="M492 -23q-201 0 -317 110.5t-116 336.5q0 132 40.5 251t114 210.5t186 145.5t247.5 54q188 0 298 -101t110 -296q0 -123 -29 -205h-807q-2 -16 -2 -47q0 -172 75 -249.5t222 -77.5q230 0 326 188h147q-49 -114 -129.5 -187.5t-170 -103t-195.5 -29.5zM236 604h657
q29 167 -42 259.5t-222 92.5q-156 0 -256.5 -98t-136.5 -254zM301 -356q0 47 34.5 80.5t82.5 33.5q47 0 80.5 -33.5t33.5 -80.5t-33.5 -81t-80.5 -34t-82 34t-35 81z" />
    <glyph glyph-name="uni1EBA" unicode="&#x1eba;" horiz-adv-x="1116" 
d="M35 0l227 1434h912l-25 -150h-743l-76 -479h682l-23 -137h-680l-82 -518h762l-22 -150h-932zM551 1735q0 89 57 136.5t133 47.5q82 0 140.5 -51.5t58.5 -143.5q0 -84 -53 -135t-129 -59l-41 76q59 2 92 31t33 81q0 50 -28.5 78.5t-72.5 28.5q-41 0 -68 -23.5t-30 -66.5
h-92z" />
    <glyph glyph-name="uni1EBB" unicode="&#x1ebb;" horiz-adv-x="1105" 
d="M492 -23q-201 0 -317 110.5t-116 336.5q0 132 40.5 251t114 210.5t186 145.5t247.5 54q188 0 298 -101t110 -296q0 -123 -29 -205h-807q-2 -16 -2 -47q0 -172 75 -249.5t222 -77.5q230 0 326 188h147q-49 -114 -129.5 -187.5t-170 -103t-195.5 -29.5zM236 604h657
q29 167 -42 259.5t-222 92.5q-156 0 -256.5 -98t-136.5 -254zM473 1366q0 89 57 136.5t134 47.5q82 0 140 -51t58 -143q0 -84 -53 -135.5t-129 -59.5l-41 76q59 2 92 31.5t33 81.5q0 50 -28 78t-72 28q-41 0 -68.5 -23.5t-30.5 -66.5h-92z" />
    <glyph glyph-name="uni1EBC" unicode="&#x1ebc;" horiz-adv-x="1116" 
d="M35 0l227 1434h912l-25 -150h-743l-76 -479h682l-23 -137h-680l-82 -518h762l-22 -150h-932zM428 1655q13 96 66.5 146t132.5 50q41 0 74.5 -14.5t55 -35t41 -40.5t43.5 -34.5t52 -14.5q40 0 67.5 27.5t30.5 62.5h107q-13 -96 -66.5 -146t-132.5 -50q-41 0 -73.5 14.5
t-54 35t-41.5 40.5t-44.5 34.5t-52.5 14.5q-42 0 -68.5 -27.5t-29.5 -62.5h-107z" />
    <glyph glyph-name="uni1EBD" unicode="&#x1ebd;" horiz-adv-x="1105" 
d="M492 -23q-201 0 -317 110.5t-116 336.5q0 132 40.5 251t114 210.5t186 145.5t247.5 54q188 0 298 -101t110 -296q0 -123 -29 -205h-807q-2 -16 -2 -47q0 -172 75 -249.5t222 -77.5q230 0 326 188h147q-49 -114 -129.5 -187.5t-170 -103t-195.5 -29.5zM236 604h657
q29 167 -42 259.5t-222 92.5q-156 0 -256.5 -98t-136.5 -254zM350 1286q13 96 66.5 146.5t132.5 50.5q41 0 74.5 -14.5t55 -35t41 -41t43.5 -35t52 -14.5q40 0 67.5 28t30.5 63h107q-13 -96 -66.5 -146.5t-132.5 -50.5q-41 0 -73.5 14.5t-54 35t-41.5 40.5t-44.5 34.5
t-52.5 14.5q-42 0 -68.5 -27.5t-29.5 -62.5h-107z" />
    <glyph glyph-name="uni1EBE" unicode="&#x1ebe;" horiz-adv-x="1116" 
d="M35 0l227 1434h912l-25 -150h-743l-76 -479h682l-23 -137h-680l-82 -518h762l-22 -150h-932zM420 1563l248 266h229l162 -266h-154l-131 211l-192 -211h-162zM993 1763l250 269h148l-248 -269h-150z" />
    <glyph glyph-name="uni1EBF" unicode="&#x1ebf;" horiz-adv-x="1105" 
d="M492 -23q-201 0 -317 110.5t-116 336.5q0 132 40.5 251t114 210.5t186 145.5t247.5 54q188 0 298 -101t110 -296q0 -123 -29 -205h-807q-2 -16 -2 -47q0 -172 75 -249.5t222 -77.5q230 0 326 188h147q-49 -114 -129.5 -187.5t-170 -103t-195.5 -29.5zM236 604h657
q29 167 -42 259.5t-222 92.5q-156 0 -256.5 -98t-136.5 -254zM342 1194l248 266h229l162 -266h-154l-131 211l-192 -211h-162zM915 1395l250 268h148l-248 -268h-150z" />
    <glyph glyph-name="uni1EC0" unicode="&#x1ec0;" horiz-adv-x="1116" 
d="M35 0l227 1434h912l-25 -150h-743l-76 -479h682l-23 -137h-680l-82 -518h762l-22 -150h-932zM420 1563l248 266h229l162 -266h-154l-131 211l-192 -211h-162zM879 2030h145l150 -269h-146z" />
    <glyph glyph-name="uni1EC1" unicode="&#x1ec1;" horiz-adv-x="1105" 
d="M492 -23q-201 0 -317 110.5t-116 336.5q0 132 40.5 251t114 210.5t186 145.5t247.5 54q188 0 298 -101t110 -296q0 -123 -29 -205h-807q-2 -16 -2 -47q0 -172 75 -249.5t222 -77.5q230 0 326 188h147q-49 -114 -129.5 -187.5t-170 -103t-195.5 -29.5zM236 604h657
q29 167 -42 259.5t-222 92.5q-156 0 -256.5 -98t-136.5 -254zM342 1194l248 266h229l162 -266h-154l-131 211l-192 -211h-162zM801 1661h145l150 -268h-146z" />
    <glyph glyph-name="uni1EC2" unicode="&#x1ec2;" horiz-adv-x="1116" 
d="M35 0l227 1434h912l-25 -150h-743l-76 -479h682l-23 -137h-680l-82 -518h762l-22 -150h-932zM420 1563l248 266h229l162 -266h-154l-131 211l-192 -211h-162zM834 2005q0 89 57 136.5t133 47.5q82 0 140.5 -51t58.5 -143q0 -84 -53.5 -135.5t-129.5 -59.5l-41 76
q59 2 92 31.5t33 81.5q0 50 -28 78t-72 28q-41 0 -68 -23.5t-30 -66.5h-92z" />
    <glyph glyph-name="uni1EC3" unicode="&#x1ec3;" horiz-adv-x="1105" 
d="M492 -23q-201 0 -317 110.5t-116 336.5q0 132 40.5 251t114 210.5t186 145.5t247.5 54q188 0 298 -101t110 -296q0 -123 -29 -205h-807q-2 -16 -2 -47q0 -172 75 -249.5t222 -77.5q230 0 326 188h147q-49 -114 -129.5 -187.5t-170 -103t-195.5 -29.5zM236 604h657
q29 167 -42 259.5t-222 92.5q-156 0 -256.5 -98t-136.5 -254zM342 1194l248 266h229l162 -266h-154l-131 211l-192 -211h-162zM756 1636q0 89 57 137t133 48q82 0 140.5 -51.5t58.5 -143.5q0 -84 -53 -135t-129 -59l-41 75q59 2 92 31.5t33 81.5q0 50 -28.5 78t-72.5 28
q-41 0 -68 -23.5t-30 -66.5h-92z" />
    <glyph glyph-name="uni1EC4" unicode="&#x1ec4;" horiz-adv-x="1116" 
d="M35 0l227 1434h912l-25 -150h-743l-76 -479h682l-23 -137h-680l-82 -518h762l-22 -150h-932zM420 1563l248 266h229l162 -266h-154l-131 211l-192 -211h-162zM481 1978q13 96 66.5 146.5t132.5 50.5q41 0 74.5 -14.5t55 -34.5t41 -40.5t43.5 -35t52 -14.5q40 0 67.5 27.5
t30.5 62.5h107q-13 -96 -66.5 -146.5t-132.5 -50.5q-41 0 -73.5 14.5t-54 35t-41.5 40.5t-44.5 34.5t-52.5 14.5q-42 0 -68.5 -27.5t-29.5 -62.5h-107z" />
    <glyph glyph-name="uni1EC5" unicode="&#x1ec5;" horiz-adv-x="1105" 
d="M492 -23q-201 0 -317 110.5t-116 336.5q0 132 40.5 251t114 210.5t186 145.5t247.5 54q188 0 298 -101t110 -296q0 -123 -29 -205h-807q-2 -16 -2 -47q0 -172 75 -249.5t222 -77.5q230 0 326 188h147q-49 -114 -129.5 -187.5t-170 -103t-195.5 -29.5zM236 604h657
q29 167 -42 259.5t-222 92.5q-156 0 -256.5 -98t-136.5 -254zM342 1194l248 266h229l162 -266h-154l-131 211l-192 -211h-162zM403 1610q13 96 66.5 146t132.5 50q41 0 74.5 -14.5t55 -35t41 -40.5t43.5 -34.5t52 -14.5q40 0 68 27.5t31 62.5h106q-13 -96 -66.5 -146
t-132.5 -50q-41 0 -73.5 14.5t-54 35t-41.5 40.5t-44.5 34.5t-52.5 14.5q-42 0 -68.5 -27.5t-29.5 -62.5h-107z" />
    <glyph glyph-name="uni1EC6" unicode="&#x1ec6;" horiz-adv-x="1116" 
d="M35 0l227 1434h912l-25 -150h-743l-76 -479h682l-23 -137h-680l-82 -518h762l-22 -150h-932zM324 -356q0 47 34.5 80.5t81.5 33.5t81 -33.5t34 -80.5t-34 -81t-81 -34t-81.5 34t-34.5 81zM420 1563l248 266h229l162 -266h-154l-131 211l-192 -211h-162z" />
    <glyph glyph-name="uni1EC7" unicode="&#x1ec7;" horiz-adv-x="1105" 
d="M492 -23q-201 0 -317 110.5t-116 336.5q0 132 40.5 251t114 210.5t186 145.5t247.5 54q188 0 298 -101t110 -296q0 -123 -29 -205h-807q-2 -16 -2 -47q0 -172 75 -249.5t222 -77.5q230 0 326 188h147q-49 -114 -129.5 -187.5t-170 -103t-195.5 -29.5zM236 604h657
q29 167 -42 259.5t-222 92.5q-156 0 -256.5 -98t-136.5 -254zM301 -356q0 47 34.5 80.5t82.5 33.5q47 0 80.5 -33.5t33.5 -80.5t-33.5 -81t-80.5 -34t-82 34t-35 81zM342 1194l248 266h229l162 -266h-154l-131 211l-192 -211h-162z" />
    <glyph glyph-name="uni1EC8" unicode="&#x1ec8;" horiz-adv-x="405" 
d="M35 0l227 1434h168l-227 -1434h-168zM176 1735q0 89 57 136.5t134 47.5q82 0 140 -51.5t58 -143.5q0 -84 -53 -135t-129 -59l-41 76q59 2 92 31t33 81q0 50 -28 78.5t-72 28.5q-41 0 -68.5 -23.5t-30.5 -66.5h-92z" />
    <glyph glyph-name="uni1EC9" unicode="&#x1ec9;" horiz-adv-x="356" 
d="M12 0l168 1065h164l-168 -1065h-164zM92 1366q0 89 57 136.5t134 47.5q82 0 140 -51t58 -143q0 -84 -53 -135.5t-129 -59.5l-41 76q59 2 92 31.5t33 81.5q0 50 -28 78t-72 28q-41 0 -68.5 -23.5t-30.5 -66.5h-92z" />
    <glyph glyph-name="uni1ECA" unicode="&#x1eca;" horiz-adv-x="405" 
d="M35 0l227 1434h168l-227 -1434h-168zM-51 -356q0 47 34.5 80.5t82.5 33.5q47 0 80.5 -33.5t33.5 -80.5t-33.5 -81t-80.5 -34t-82 34t-35 81z" />
    <glyph glyph-name="uni1ECB" unicode="&#x1ecb;" horiz-adv-x="401" 
d="M35 0l168 1065h164l-168 -1065h-164zM-37 -356q0 47 34.5 80.5t82.5 33.5q47 0 81 -33.5t34 -80.5t-34 -81t-81 -34t-82 34t-35 81zM231 1378q0 42 30.5 72.5t72.5 30.5t73 -30.5t31 -72.5q0 -41 -31.5 -71.5t-72.5 -30.5t-72 30.5t-31 71.5z" />
    <glyph glyph-name="uni1ECC" unicode="&#x1ecc;" horiz-adv-x="1470" 
d="M662 -20q-254 0 -403.5 153.5t-149.5 444.5q0 173 53 330.5t149 278.5t240.5 193t316.5 72q255 0 404 -153t149 -445q0 -137 -33.5 -266t-99 -239t-156 -192.5t-212 -129.5t-258.5 -47zM279 582q0 -227 105 -341t288 -114q110 0 204.5 41t162.5 111t116.5 162.5t72 196.5
t23.5 212q0 227 -105.5 341t-287.5 114q-136 0 -248.5 -62.5t-183 -165.5t-109 -231t-38.5 -264zM489 -356q0 47 34.5 80.5t82.5 33.5q47 0 81 -33.5t34 -80.5t-34 -81t-81 -34t-82 34t-35 81z" />
    <glyph glyph-name="uni1ECD" unicode="&#x1ecd;" horiz-adv-x="1157" 
d="M498 -20q-91 0 -169 27t-139 80.5t-96 141.5t-35 201q0 129 43.5 247.5t120.5 209t191 144.5t245 54q92 0 170 -27t139 -80t95.5 -140.5t34.5 -200.5q0 -103 -27.5 -201t-80.5 -180t-125 -144t-167 -97t-200 -35zM219 444q0 -164 82.5 -244.5t214.5 -80.5q76 0 144 27.5
t118 76t86.5 112t55 137t18.5 149.5q0 165 -82.5 246t-214.5 81q-95 0 -176 -42.5t-134 -113.5t-82.5 -161.5t-29.5 -186.5zM328 -356q0 47 34.5 80.5t81.5 33.5t81 -33.5t34 -80.5t-34 -81t-81 -34t-81.5 34t-34.5 81z" />
    <glyph glyph-name="uni1ECE" unicode="&#x1ece;" horiz-adv-x="1470" 
d="M662 -20q-254 0 -403.5 153.5t-149.5 444.5q0 173 53 330.5t149 278.5t240.5 193t316.5 72q255 0 404 -153t149 -445q0 -137 -33.5 -266t-99 -239t-156 -192.5t-212 -129.5t-258.5 -47zM279 582q0 -227 105 -341t288 -114q110 0 204.5 41t162.5 111t116.5 162.5t72 196.5
t23.5 212q0 227 -105.5 341t-287.5 114q-136 0 -248.5 -62.5t-183 -165.5t-109 -231t-38.5 -264zM711 1735q0 89 57 136.5t133 47.5q82 0 140.5 -51.5t58.5 -143.5q0 -84 -53 -135t-129 -59l-41 76q59 2 91.5 31t32.5 81q0 50 -28 78.5t-72 28.5q-41 0 -68 -23.5t-30 -66.5
h-92z" />
    <glyph glyph-name="uni1ECF" unicode="&#x1ecf;" horiz-adv-x="1157" 
d="M498 -20q-91 0 -169 27t-139 80.5t-96 141.5t-35 201q0 129 43.5 247.5t120.5 209t191 144.5t245 54q92 0 170 -27t139 -80t95.5 -140.5t34.5 -200.5q0 -103 -27.5 -201t-80.5 -180t-125 -144t-167 -97t-200 -35zM219 444q0 -164 82.5 -244.5t214.5 -80.5q76 0 144 27.5
t118 76t86.5 112t55 137t18.5 149.5q0 165 -82.5 246t-214.5 81q-95 0 -176 -42.5t-134 -113.5t-82.5 -161.5t-29.5 -186.5zM494 1366q0 89 57 136.5t133 47.5q82 0 140.5 -51t58.5 -143q0 -84 -53.5 -135.5t-129.5 -59.5l-41 76q59 2 92 31.5t33 81.5q0 50 -28 78t-72 28
q-41 0 -68 -23.5t-30 -66.5h-92z" />
    <glyph glyph-name="uni1ED0" unicode="&#x1ed0;" horiz-adv-x="1470" 
d="M662 -20q-254 0 -403.5 153.5t-149.5 444.5q0 173 53 330.5t149 278.5t240.5 193t316.5 72q255 0 404 -153t149 -445q0 -137 -33.5 -266t-99 -239t-156 -192.5t-212 -129.5t-258.5 -47zM279 582q0 -227 105 -341t288 -114q110 0 204.5 41t162.5 111t116.5 162.5t72 196.5
t23.5 212q0 227 -105.5 341t-287.5 114q-136 0 -248.5 -62.5t-183 -165.5t-109 -231t-38.5 -264zM580 1563l247 266h230l162 -266h-154l-131 211l-193 -211h-161zM1153 1763l250 269h147l-247 -269h-150z" />
    <glyph glyph-name="uni1ED1" unicode="&#x1ed1;" horiz-adv-x="1157" 
d="M498 -20q-91 0 -169 27t-139 80.5t-96 141.5t-35 201q0 129 43.5 247.5t120.5 209t191 144.5t245 54q92 0 170 -27t139 -80t95.5 -140.5t34.5 -200.5q0 -103 -27.5 -201t-80.5 -180t-125 -144t-167 -97t-200 -35zM219 444q0 -164 82.5 -244.5t214.5 -80.5q76 0 144 27.5
t118 76t86.5 112t55 137t18.5 149.5q0 165 -82.5 246t-214.5 81q-95 0 -176 -42.5t-134 -113.5t-82.5 -161.5t-29.5 -186.5zM365 1194l247 266h230l162 -266h-154l-131 211l-193 -211h-161zM938 1395l250 268h147l-248 -268h-149z" />
    <glyph glyph-name="uni1ED2" unicode="&#x1ed2;" horiz-adv-x="1470" 
d="M662 -20q-254 0 -403.5 153.5t-149.5 444.5q0 173 53 330.5t149 278.5t240.5 193t316.5 72q255 0 404 -153t149 -445q0 -137 -33.5 -266t-99 -239t-156 -192.5t-212 -129.5t-258.5 -47zM279 582q0 -227 105 -341t288 -114q110 0 204.5 41t162.5 111t116.5 162.5t72 196.5
t23.5 212q0 227 -105.5 341t-287.5 114q-136 0 -248.5 -62.5t-183 -165.5t-109 -231t-38.5 -264zM580 1563l247 266h230l162 -266h-154l-131 211l-193 -211h-161zM1038 2030h146l149 -269h-145z" />
    <glyph glyph-name="uni1ED3" unicode="&#x1ed3;" horiz-adv-x="1157" 
d="M498 -20q-91 0 -169 27t-139 80.5t-96 141.5t-35 201q0 129 43.5 247.5t120.5 209t191 144.5t245 54q92 0 170 -27t139 -80t95.5 -140.5t34.5 -200.5q0 -103 -27.5 -201t-80.5 -180t-125 -144t-167 -97t-200 -35zM219 444q0 -164 82.5 -244.5t214.5 -80.5q76 0 144 27.5
t118 76t86.5 112t55 137t18.5 149.5q0 165 -82.5 246t-214.5 81q-95 0 -176 -42.5t-134 -113.5t-82.5 -161.5t-29.5 -186.5zM365 1194l247 266h230l162 -266h-154l-131 211l-193 -211h-161zM823 1661h146l149 -268h-145z" />
    <glyph glyph-name="uni1ED4" unicode="&#x1ed4;" horiz-adv-x="1470" 
d="M662 -20q-254 0 -403.5 153.5t-149.5 444.5q0 173 53 330.5t149 278.5t240.5 193t316.5 72q255 0 404 -153t149 -445q0 -137 -33.5 -266t-99 -239t-156 -192.5t-212 -129.5t-258.5 -47zM279 582q0 -227 105 -341t288 -114q110 0 204.5 41t162.5 111t116.5 162.5t72 196.5
t23.5 212q0 227 -105.5 341t-287.5 114q-136 0 -248.5 -62.5t-183 -165.5t-109 -231t-38.5 -264zM580 1563l247 266h230l162 -266h-154l-131 211l-193 -211h-161zM993 2005q0 89 57 136.5t134 47.5q82 0 140 -51t58 -143q0 -84 -53 -135.5t-129 -59.5l-41 76q59 2 92 31.5
t33 81.5q0 50 -28 78t-72 28q-41 0 -68.5 -23.5t-30.5 -66.5h-92z" />
    <glyph glyph-name="uni1ED5" unicode="&#x1ed5;" horiz-adv-x="1157" 
d="M498 -20q-91 0 -169 27t-139 80.5t-96 141.5t-35 201q0 129 43.5 247.5t120.5 209t191 144.5t245 54q92 0 170 -27t139 -80t95.5 -140.5t34.5 -200.5q0 -103 -27.5 -201t-80.5 -180t-125 -144t-167 -97t-200 -35zM219 444q0 -164 82.5 -244.5t214.5 -80.5q76 0 144 27.5
t118 76t86.5 112t55 137t18.5 149.5q0 165 -82.5 246t-214.5 81q-95 0 -176 -42.5t-134 -113.5t-82.5 -161.5t-29.5 -186.5zM365 1194l247 266h230l162 -266h-154l-131 211l-193 -211h-161zM778 1636q0 89 57.5 137t133.5 48q82 0 140 -51.5t58 -143.5q0 -84 -53 -135
t-129 -59l-41 75q59 2 92 31.5t33 81.5q0 50 -28 78t-72 28q-41 0 -68.5 -23.5t-30.5 -66.5h-92z" />
    <glyph glyph-name="uni1ED6" unicode="&#x1ed6;" horiz-adv-x="1470" 
d="M662 -20q-254 0 -403.5 153.5t-149.5 444.5q0 173 53 330.5t149 278.5t240.5 193t316.5 72q255 0 404 -153t149 -445q0 -137 -33.5 -266t-99 -239t-156 -192.5t-212 -129.5t-258.5 -47zM279 582q0 -227 105 -341t288 -114q110 0 204.5 41t162.5 111t116.5 162.5t72 196.5
t23.5 212q0 227 -105.5 341t-287.5 114q-136 0 -248.5 -62.5t-183 -165.5t-109 -231t-38.5 -264zM580 1563l247 266h230l162 -266h-154l-131 211l-193 -211h-161zM641 1978q13 96 66.5 146.5t132.5 50.5q41 0 74.5 -14.5t55 -34.5t41 -40.5t43.5 -35t52 -14.5
q40 0 67.5 27.5t30.5 62.5h107q-13 -96 -66.5 -146.5t-132.5 -50.5q-41 0 -73.5 14.5t-54 35t-41.5 40.5t-44.5 34.5t-52.5 14.5q-42 0 -68.5 -27.5t-29.5 -62.5h-107z" />
    <glyph glyph-name="uni1ED7" unicode="&#x1ed7;" horiz-adv-x="1157" 
d="M498 -20q-91 0 -169 27t-139 80.5t-96 141.5t-35 201q0 129 43.5 247.5t120.5 209t191 144.5t245 54q92 0 170 -27t139 -80t95.5 -140.5t34.5 -200.5q0 -103 -27.5 -201t-80.5 -180t-125 -144t-167 -97t-200 -35zM219 444q0 -164 82.5 -244.5t214.5 -80.5q76 0 144 27.5
t118 76t86.5 112t55 137t18.5 149.5q0 165 -82.5 246t-214.5 81q-95 0 -176 -42.5t-134 -113.5t-82.5 -161.5t-29.5 -186.5zM365 1194l247 266h230l162 -266h-154l-131 211l-193 -211h-161zM426 1610q13 96 66.5 146t132.5 50q41 0 74.5 -14.5t55 -35t41 -40.5t43.5 -34.5
t52 -14.5q40 0 67.5 27.5t30.5 62.5h107q-13 -96 -66.5 -146t-132.5 -50q-41 0 -73.5 14.5t-54 35t-41.5 40.5t-44.5 34.5t-52.5 14.5q-42 0 -69 -27.5t-30 -62.5h-106z" />
    <glyph glyph-name="uni1ED8" unicode="&#x1ed8;" horiz-adv-x="1470" 
d="M662 -20q-254 0 -403.5 153.5t-149.5 444.5q0 173 53 330.5t149 278.5t240.5 193t316.5 72q255 0 404 -153t149 -445q0 -137 -33.5 -266t-99 -239t-156 -192.5t-212 -129.5t-258.5 -47zM279 582q0 -227 105 -341t288 -114q110 0 204.5 41t162.5 111t116.5 162.5t72 196.5
t23.5 212q0 227 -105.5 341t-287.5 114q-136 0 -248.5 -62.5t-183 -165.5t-109 -231t-38.5 -264zM489 -356q0 47 34.5 80.5t82.5 33.5q47 0 81 -33.5t34 -80.5t-34 -81t-81 -34t-82 34t-35 81zM580 1563l247 266h230l162 -266h-154l-131 211l-193 -211h-161z" />
    <glyph glyph-name="uni1ED9" unicode="&#x1ed9;" horiz-adv-x="1157" 
d="M498 -20q-91 0 -169 27t-139 80.5t-96 141.5t-35 201q0 129 43.5 247.5t120.5 209t191 144.5t245 54q92 0 170 -27t139 -80t95.5 -140.5t34.5 -200.5q0 -103 -27.5 -201t-80.5 -180t-125 -144t-167 -97t-200 -35zM219 444q0 -164 82.5 -244.5t214.5 -80.5q76 0 144 27.5
t118 76t86.5 112t55 137t18.5 149.5q0 165 -82.5 246t-214.5 81q-95 0 -176 -42.5t-134 -113.5t-82.5 -161.5t-29.5 -186.5zM328 -356q0 47 34.5 80.5t81.5 33.5t81 -33.5t34 -80.5t-34 -81t-81 -34t-81.5 34t-34.5 81zM365 1194l247 266h230l162 -266h-154l-131 211
l-193 -211h-161z" />
    <glyph glyph-name="uni1EDA" unicode="&#x1eda;" horiz-adv-x="1470" 
d="M662 -20q-254 0 -403.5 153.5t-149.5 444.5q0 173 53 330.5t149 278.5t240.5 193t316.5 72h504l27 162h141l-47 -291h-246q174 -154 174 -469q0 -137 -33.5 -266t-99 -239t-156 -192.5t-212 -129.5t-258.5 -47zM279 582q0 -227 105 -341t288 -114q110 0 204.5 41
t162.5 111t116.5 162.5t72 196.5t23.5 212q0 227 -105.5 341t-287.5 114q-136 0 -248.5 -62.5t-183 -165.5t-109 -231t-38.5 -264zM815 1561l250 268h147l-247 -268h-150z" />
    <glyph glyph-name="uni1EDB" unicode="&#x1edb;" horiz-adv-x="1157" 
d="M498 -20q-91 0 -169 27t-139 80.5t-96 141.5t-35 201q0 129 43.5 247.5t120.5 209t191 144.5t245 54h349l24 160h135l-45 -287h-135q111 -117 111 -321q0 -103 -27.5 -201t-80.5 -180t-125 -144t-167 -97t-200 -35zM219 444q0 -164 82.5 -244.5t214.5 -80.5
q76 0 144 27.5t118 76t86.5 112t55 137t18.5 149.5q0 165 -82.5 246t-214.5 81q-95 0 -176 -42.5t-134 -113.5t-82.5 -161.5t-29.5 -186.5zM600 1192l250 268h147l-247 -268h-150z" />
    <glyph glyph-name="uni1EDC" unicode="&#x1edc;" horiz-adv-x="1470" 
d="M662 -20q-254 0 -403.5 153.5t-149.5 444.5q0 173 53 330.5t149 278.5t240.5 193t316.5 72h504l27 162h141l-47 -291h-246q174 -154 174 -469q0 -137 -33.5 -266t-99 -239t-156 -192.5t-212 -129.5t-258.5 -47zM279 582q0 -227 105 -341t288 -114q110 0 204.5 41
t162.5 111t116.5 162.5t72 196.5t23.5 212q0 227 -105.5 341t-287.5 114q-136 0 -248.5 -62.5t-183 -165.5t-109 -231t-38.5 -264zM653 1829h146l168 -268h-144z" />
    <glyph glyph-name="uni1EDD" unicode="&#x1edd;" horiz-adv-x="1157" 
d="M498 -20q-91 0 -169 27t-139 80.5t-96 141.5t-35 201q0 129 43.5 247.5t120.5 209t191 144.5t245 54h349l24 160h135l-45 -287h-135q111 -117 111 -321q0 -103 -27.5 -201t-80.5 -180t-125 -144t-167 -97t-200 -35zM219 444q0 -164 82.5 -244.5t214.5 -80.5
q76 0 144 27.5t118 76t86.5 112t55 137t18.5 149.5q0 165 -82.5 246t-214.5 81q-95 0 -176 -42.5t-134 -113.5t-82.5 -161.5t-29.5 -186.5zM438 1460h146l168 -268h-144z" />
    <glyph glyph-name="uni1EDE" unicode="&#x1ede;" horiz-adv-x="1470" 
d="M662 -20q-254 0 -403.5 153.5t-149.5 444.5q0 173 53 330.5t149 278.5t240.5 193t316.5 72h504l27 162h141l-47 -291h-246q174 -154 174 -469q0 -137 -33.5 -266t-99 -239t-156 -192.5t-212 -129.5t-258.5 -47zM279 582q0 -227 105 -341t288 -114q110 0 204.5 41
t162.5 111t116.5 162.5t72 196.5t23.5 212q0 227 -105.5 341t-287.5 114q-136 0 -248.5 -62.5t-183 -165.5t-109 -231t-38.5 -264zM711 1735q0 89 57 136.5t133 47.5q82 0 140.5 -51.5t58.5 -143.5q0 -84 -53 -135t-129 -59l-41 76q59 2 91.5 31t32.5 81q0 50 -28 78.5
t-72 28.5q-41 0 -68 -23.5t-30 -66.5h-92z" />
    <glyph glyph-name="uni1EDF" unicode="&#x1edf;" horiz-adv-x="1157" 
d="M498 -20q-91 0 -169 27t-139 80.5t-96 141.5t-35 201q0 129 43.5 247.5t120.5 209t191 144.5t245 54h349l24 160h135l-45 -287h-135q111 -117 111 -321q0 -103 -27.5 -201t-80.5 -180t-125 -144t-167 -97t-200 -35zM219 444q0 -164 82.5 -244.5t214.5 -80.5
q76 0 144 27.5t118 76t86.5 112t55 137t18.5 149.5q0 165 -82.5 246t-214.5 81q-95 0 -176 -42.5t-134 -113.5t-82.5 -161.5t-29.5 -186.5zM494 1366q0 89 57 136.5t133 47.5q82 0 140.5 -51t58.5 -143q0 -84 -53.5 -135.5t-129.5 -59.5l-41 76q59 2 92 31.5t33 81.5
q0 50 -28 78t-72 28q-41 0 -68 -23.5t-30 -66.5h-92z" />
    <glyph glyph-name="uni1EE0" unicode="&#x1ee0;" horiz-adv-x="1470" 
d="M662 -20q-254 0 -403.5 153.5t-149.5 444.5q0 173 53 330.5t149 278.5t240.5 193t316.5 72h504l27 162h141l-47 -291h-246q174 -154 174 -469q0 -137 -33.5 -266t-99 -239t-156 -192.5t-212 -129.5t-258.5 -47zM279 582q0 -227 105 -341t288 -114q110 0 204.5 41
t162.5 111t116.5 162.5t72 196.5t23.5 212q0 227 -105.5 341t-287.5 114q-136 0 -248.5 -62.5t-183 -165.5t-109 -231t-38.5 -264zM588 1655q13 96 66 146t132 50q41 0 74.5 -14.5t55.5 -35t41.5 -40.5t43.5 -34.5t52 -14.5q40 0 67.5 27.5t30.5 62.5h106q-13 -96 -66 -146
t-132 -50q-41 0 -73.5 14.5t-54 35t-41.5 40.5t-44.5 34.5t-52.5 14.5q-42 0 -69 -27.5t-30 -62.5h-106z" />
    <glyph glyph-name="uni1EE1" unicode="&#x1ee1;" horiz-adv-x="1157" 
d="M498 -20q-91 0 -169 27t-139 80.5t-96 141.5t-35 201q0 129 43.5 247.5t120.5 209t191 144.5t245 54h349l24 160h135l-45 -287h-135q111 -117 111 -321q0 -103 -27.5 -201t-80.5 -180t-125 -144t-167 -97t-200 -35zM219 444q0 -164 82.5 -244.5t214.5 -80.5
q76 0 144 27.5t118 76t86.5 112t55 137t18.5 149.5q0 165 -82.5 246t-214.5 81q-95 0 -176 -42.5t-134 -113.5t-82.5 -161.5t-29.5 -186.5zM373 1286q13 96 66 146.5t132 50.5q51 0 90.5 -22t61 -48t52 -48t63.5 -22q40 0 67.5 28t30.5 63h106q-13 -96 -66 -146.5
t-132 -50.5q-41 0 -73.5 14.5t-54 35t-41.5 40.5t-44.5 34.5t-52.5 14.5q-42 0 -69 -27.5t-30 -62.5h-106z" />
    <glyph glyph-name="uni1EE2" unicode="&#x1ee2;" horiz-adv-x="1470" 
d="M662 -20q-254 0 -403.5 153.5t-149.5 444.5q0 173 53 330.5t149 278.5t240.5 193t316.5 72h504l27 162h141l-47 -291h-246q174 -154 174 -469q0 -137 -33.5 -266t-99 -239t-156 -192.5t-212 -129.5t-258.5 -47zM279 582q0 -227 105 -341t288 -114q110 0 204.5 41
t162.5 111t116.5 162.5t72 196.5t23.5 212q0 227 -105.5 341t-287.5 114q-136 0 -248.5 -62.5t-183 -165.5t-109 -231t-38.5 -264zM483 -356q0 47 34.5 80.5t82.5 33.5q47 0 81 -33.5t34 -80.5t-34 -81t-81 -34t-82 34t-35 81z" />
    <glyph glyph-name="uni1EE3" unicode="&#x1ee3;" horiz-adv-x="1157" 
d="M498 -20q-91 0 -169 27t-139 80.5t-96 141.5t-35 201q0 129 43.5 247.5t120.5 209t191 144.5t245 54h349l24 160h135l-45 -287h-135q111 -117 111 -321q0 -103 -27.5 -201t-80.5 -180t-125 -144t-167 -97t-200 -35zM219 444q0 -164 82.5 -244.5t214.5 -80.5
q76 0 144 27.5t118 76t86.5 112t55 137t18.5 149.5q0 165 -82.5 246t-214.5 81q-95 0 -176 -42.5t-134 -113.5t-82.5 -161.5t-29.5 -186.5zM328 -356q0 47 34.5 80.5t81.5 33.5t81 -33.5t34 -80.5t-34 -81t-81 -34t-81.5 34t-34.5 81z" />
    <glyph glyph-name="uni1EE4" unicode="&#x1ee4;" horiz-adv-x="1337" 
d="M588 -20q-257 0 -383 147.5t-84 415.5l141 891h170l-141 -881q-32 -203 54.5 -313.5t268.5 -110.5q180 0 293.5 109.5t145.5 314.5l139 881h170l-141 -891q-42 -269 -209.5 -416t-423.5 -147zM418 -356q0 47 34.5 80.5t82.5 33.5q47 0 80.5 -33.5t33.5 -80.5t-33.5 -81
t-80.5 -34t-82 34t-35 81z" />
    <glyph glyph-name="uni1EE5" unicode="&#x1ee5;" horiz-adv-x="1153" 
d="M268 440q-25 -155 31 -238t195 -83q137 0 233 79.5t125 219.5l102 647h164l-168 -1065h-164l33 209h-4q-13 -31 -42 -67t-77 -74t-123 -63t-161 -25q-82 0 -145 23t-109.5 74t-60.5 132.5t1 198.5l105 657h164zM326 -356q0 47 34.5 80.5t81.5 33.5t81 -33.5t34 -80.5
t-34 -81t-81 -34t-81.5 34t-34.5 81z" />
    <glyph glyph-name="uni1EE6" unicode="&#x1ee6;" horiz-adv-x="1337" 
d="M588 -20q-257 0 -383 147.5t-84 415.5l141 891h170l-141 -881q-32 -203 54.5 -313.5t268.5 -110.5q180 0 293.5 109.5t145.5 314.5l139 881h170l-141 -891q-42 -269 -209.5 -416t-423.5 -147zM637 1735q0 89 57 136.5t133 47.5q82 0 140.5 -51.5t58.5 -143.5
q0 -84 -53 -135t-129 -59l-41 76q59 2 92 31t33 81q0 50 -28.5 78.5t-72.5 28.5q-41 0 -68 -23.5t-30 -66.5h-92z" />
    <glyph glyph-name="uni1EE7" unicode="&#x1ee7;" horiz-adv-x="1153" 
d="M268 440q-25 -155 31 -238t195 -83q137 0 233 79.5t125 219.5l102 647h164l-168 -1065h-164l33 209h-4q-13 -31 -42 -67t-77 -74t-123 -63t-161 -25q-82 0 -145 23t-109.5 74t-60.5 132.5t1 198.5l105 657h164zM483 1366q0 89 57 136.5t134 47.5q82 0 140 -51t58 -143
q0 -84 -53 -135.5t-129 -59.5l-41 76q59 2 92 31.5t33 81.5q0 50 -28 78t-72 28q-41 0 -68.5 -23.5t-30.5 -66.5h-92z" />
    <glyph glyph-name="uni1EE8" unicode="&#x1ee8;" horiz-adv-x="1337" 
d="M588 -20q-257 0 -383 147.5t-84 415.5l141 891h170l-141 -881q-32 -203 54.5 -313.5t268.5 -110.5q180 0 293.5 109.5t145.5 314.5l139 881h227l29 180h143l-49 -314h-201l-120 -757q-42 -269 -209.5 -416t-423.5 -147zM750 1561l249 268h148l-248 -268h-149z" />
    <glyph glyph-name="uni1EE9" unicode="&#x1ee9;" horiz-adv-x="1153" 
d="M268 440q-25 -155 31 -238t195 -83q137 0 233 79.5t125 219.5l102 647h164l-168 -1065h-164l33 209h-4q-13 -31 -42 -67t-77 -74t-123 -63t-161 -25q-82 0 -145 23t-109.5 74t-60.5 132.5t1 198.5l105 657h164zM598 1192l250 268h147l-247 -268h-150zM1208 932l23 133
h223l29 180h143l-49 -313h-369z" />
    <glyph glyph-name="uni1EEA" unicode="&#x1eea;" horiz-adv-x="1337" 
d="M588 -20q-257 0 -383 147.5t-84 415.5l141 891h170l-141 -881q-32 -203 54.5 -313.5t268.5 -110.5q180 0 293.5 109.5t145.5 314.5l139 881h227l29 180h143l-49 -314h-201l-120 -757q-42 -269 -209.5 -416t-423.5 -147zM588 1829h145l168 -268h-143z" />
    <glyph glyph-name="uni1EEB" unicode="&#x1eeb;" horiz-adv-x="1153" 
d="M268 440q-25 -155 31 -238t195 -83q137 0 233 79.5t125 219.5l102 647h164l-168 -1065h-164l33 209h-4q-13 -31 -42 -67t-77 -74t-123 -63t-161 -25q-82 0 -145 23t-109.5 74t-60.5 132.5t1 198.5l105 657h164zM436 1460h146l168 -268h-144zM1208 932l23 133h223l29 180
h143l-49 -313h-369z" />
    <glyph glyph-name="uni1EEC" unicode="&#x1eec;" horiz-adv-x="1337" 
d="M588 -20q-257 0 -383 147.5t-84 415.5l141 891h170l-141 -881q-32 -203 54.5 -313.5t268.5 -110.5q180 0 293.5 109.5t145.5 314.5l139 881h227l29 180h143l-49 -314h-201l-120 -757q-42 -269 -209.5 -416t-423.5 -147zM643 1735q0 89 57 136.5t134 47.5q82 0 140 -51.5
t58 -143.5q0 -84 -53 -135t-129 -59l-41 76q59 2 92 31t33 81q0 50 -28 78.5t-72 28.5q-41 0 -68.5 -23.5t-30.5 -66.5h-92z" />
    <glyph glyph-name="uni1EED" unicode="&#x1eed;" horiz-adv-x="1153" 
d="M268 440q-25 -155 31 -238t195 -83q137 0 233 79.5t125 219.5l102 647h164l-168 -1065h-164l33 209h-4q-13 -31 -42 -67t-77 -74t-123 -63t-161 -25q-82 0 -145 23t-109.5 74t-60.5 132.5t1 198.5l105 657h164zM492 1366q0 89 57 136.5t133 47.5q82 0 140.5 -51
t58.5 -143q0 -84 -53.5 -135.5t-129.5 -59.5l-41 76q59 2 92 31.5t33 81.5q0 50 -28 78t-72 28q-41 0 -68 -23.5t-30 -66.5h-92zM1208 932l23 133h223l29 180h143l-49 -313h-369z" />
    <glyph glyph-name="uni1EEE" unicode="&#x1eee;" horiz-adv-x="1337" 
d="M588 -20q-257 0 -383 147.5t-84 415.5l141 891h170l-141 -881q-32 -203 54.5 -313.5t268.5 -110.5q180 0 293.5 109.5t145.5 314.5l139 881h227l29 180h143l-49 -314h-201l-120 -757q-42 -269 -209.5 -416t-423.5 -147zM522 1655q13 96 66.5 146t132.5 50
q41 0 74.5 -14.5t55 -35t41 -40.5t43.5 -34.5t52 -14.5q40 0 67.5 27.5t30.5 62.5h107q-13 -96 -66.5 -146t-132.5 -50q-41 0 -73.5 14.5t-54 35t-41.5 40.5t-44.5 34.5t-52.5 14.5q-42 0 -68.5 -27.5t-29.5 -62.5h-107z" />
    <glyph glyph-name="uni1EEF" unicode="&#x1eef;" horiz-adv-x="1153" 
d="M268 440q-25 -155 31 -238t195 -83q137 0 233 79.5t125 219.5l102 647h164l-168 -1065h-164l33 209h-4q-13 -31 -42 -67t-77 -74t-123 -63t-161 -25q-82 0 -145 23t-109.5 74t-60.5 132.5t1 198.5l105 657h164zM371 1286q13 96 66 146.5t132 50.5q41 0 74.5 -14.5
t55.5 -35t41.5 -41t43.5 -35t52 -14.5q40 0 67.5 28t30.5 63h106q-13 -96 -66 -146.5t-132 -50.5q-41 0 -73.5 14.5t-54.5 35t-42 40.5t-44.5 34.5t-52.5 14.5q-42 0 -68.5 -27.5t-29.5 -62.5h-106zM1208 932l23 133h223l29 180h143l-49 -313h-369z" />
    <glyph glyph-name="uni1EF0" unicode="&#x1ef0;" horiz-adv-x="1337" 
d="M588 -20q-257 0 -383 147.5t-84 415.5l141 891h170l-141 -881q-32 -203 54.5 -313.5t268.5 -110.5q180 0 293.5 109.5t145.5 314.5l139 881h227l29 180h143l-49 -314h-201l-120 -757q-42 -269 -209.5 -416t-423.5 -147zM418 -356q0 47 34.5 80.5t82.5 33.5
q47 0 80.5 -33.5t33.5 -80.5t-33.5 -81t-80.5 -34t-82 34t-35 81z" />
    <glyph glyph-name="uni1EF1" unicode="&#x1ef1;" horiz-adv-x="1153" 
d="M268 440q-25 -155 31 -238t195 -83q137 0 233 79.5t125 219.5l102 647h164l-168 -1065h-164l33 209h-4q-13 -31 -42 -67t-77 -74t-123 -63t-161 -25q-82 0 -145 23t-109.5 74t-60.5 132.5t1 198.5l105 657h164zM326 -356q0 47 34.5 80.5t81.5 33.5t81 -33.5t34 -80.5
t-34 -81t-81 -34t-81.5 34t-34.5 81zM1208 932l23 133h223l29 180h143l-49 -313h-369z" />
    <glyph glyph-name="Ygrave" unicode="&#x1ef2;" horiz-adv-x="1335" 
d="M498 0l88 561l-385 873h190l307 -709l531 709h194l-665 -873l-88 -561h-172zM586 1829h145l168 -268h-143z" />
    <glyph glyph-name="ygrave" unicode="&#x1ef3;" 
d="M33 -254q111 -14 183 28t126 134q47 82 31 145l-242 1012h166l195 -875l471 875h172l-639 -1153q-104 -185 -217.5 -256t-266.5 -51zM410 1460h145l168 -268h-143z" />
    <glyph glyph-name="uni1EF4" unicode="&#x1ef4;" horiz-adv-x="1335" 
d="M498 0l88 561l-385 873h190l307 -709l531 709h194l-665 -873l-88 -561h-172zM416 -356q0 47 34.5 80.5t81.5 33.5t81 -33.5t34 -80.5t-34 -81t-81 -34t-81.5 34t-34.5 81z" />
    <glyph glyph-name="uni1EF5" unicode="&#x1ef5;" 
d="M33 -254q111 -14 183 28t126 134q47 82 31 145l-242 1012h166l195 -875l471 875h172l-639 -1153q-104 -185 -217.5 -256t-266.5 -51zM508 -356q0 47 34.5 80.5t82.5 33.5q47 0 80.5 -33.5t33.5 -80.5t-33.5 -81t-80.5 -34t-82 34t-35 81z" />
    <glyph glyph-name="uni1EF6" unicode="&#x1ef6;" horiz-adv-x="1335" 
d="M498 0l88 561l-385 873h190l307 -709l531 709h194l-665 -873l-88 -561h-172zM643 1735q0 89 57 136.5t134 47.5q82 0 140 -51.5t58 -143.5q0 -84 -53 -135t-129 -59l-41 76q59 2 92 31t33 81q0 50 -28 78.5t-72 28.5q-41 0 -68.5 -23.5t-30.5 -66.5h-92z" />
    <glyph glyph-name="uni1EF7" unicode="&#x1ef7;" 
d="M33 -254q111 -14 183 28t126 134q47 82 31 145l-242 1012h166l195 -875l471 875h172l-639 -1153q-104 -185 -217.5 -256t-266.5 -51zM467 1366q0 89 57 136.5t133 47.5q82 0 140.5 -51t58.5 -143q0 -84 -53 -135.5t-129 -59.5l-41 76q59 2 92 31.5t33 81.5q0 50 -28.5 78
t-72.5 28q-41 0 -68 -23.5t-30 -66.5h-92z" />
    <glyph glyph-name="uni1EF8" unicode="&#x1ef8;" horiz-adv-x="1335" 
d="M498 0l88 561l-385 873h190l307 -709l531 709h194l-665 -873l-88 -561h-172zM520 1655q13 96 66.5 146t132.5 50q41 0 74.5 -14.5t55 -35t41 -40.5t43.5 -34.5t52 -14.5q40 0 67.5 27.5t30.5 62.5h107q-13 -96 -66.5 -146t-132.5 -50q-41 0 -73.5 14.5t-54 35t-41.5 40.5
t-44.5 34.5t-52.5 14.5q-42 0 -68.5 -27.5t-29.5 -62.5h-107z" />
    <glyph glyph-name="uni1EF9" unicode="&#x1ef9;" 
d="M33 -254q111 -14 183 28t126 134q47 82 31 145l-242 1012h166l195 -875l471 875h172l-639 -1153q-104 -185 -217.5 -256t-266.5 -51zM344 1286q13 96 66.5 146.5t132.5 50.5q41 0 74.5 -14.5t55 -35t41 -41t43.5 -35t52 -14.5q40 0 67.5 28t30.5 63h107
q-13 -96 -66.5 -146.5t-132.5 -50.5q-41 0 -73.5 14.5t-54 35t-41.5 40.5t-44.5 34.5t-52.5 14.5q-42 0 -68.5 -27.5t-29.5 -62.5h-107z" />
    <glyph glyph-name="endash" unicode="&#x2013;" horiz-adv-x="1228" 
d="M88 510l23 127h1044l-22 -127h-1045z" />
    <glyph glyph-name="emdash" unicode="&#x2014;" horiz-adv-x="1351" 
d="M88 510l23 127h1167l-23 -127h-1167z" />
    <glyph glyph-name="quoteleft" unicode="&#x2018;" horiz-adv-x="415" 
d="M442 1370q-66 -5 -101 -33.5t-42 -85.5q59 0 92 -30t33 -78q0 -50 -34 -84.5t-87 -34.5q-56 0 -89 38t-32 114q0 109 67.5 190.5t190.5 81.5h15z" />
    <glyph glyph-name="quoteright" unicode="&#x2019;" horiz-adv-x="415" 
d="M199 1106q66 5 101 33.5t42 85.5q-59 0 -92 30t-33 78q0 50 34 84.5t87 34.5q54 0 87.5 -38t33.5 -114q0 -109 -67.5 -190.5t-190.5 -81.5h-15z" />
    <glyph glyph-name="quotesinglbase" unicode="&#x201a;" horiz-adv-x="425" 
d="M0 -137q66 5 101 33.5t42 85.5q-59 0 -92 30t-33 78q0 50 34 84.5t87 34.5q54 0 87.5 -38t33.5 -114q0 -109 -67.5 -190.5t-190.5 -81.5h-14z" />
    <glyph glyph-name="quotedblleft" unicode="&#x201c;" horiz-adv-x="733" 
d="M442 1370q-66 -5 -101 -33.5t-42 -85.5q59 0 92 -30t33 -78q0 -50 -34 -84.5t-87 -34.5q-56 0 -89 38t-32 114q0 109 67.5 190.5t190.5 81.5h15zM502 1176q0 109 67.5 190.5t190.5 81.5h14l-12 -78q-130 -9 -144 -119q59 0 92 -30t33 -78q0 -50 -33.5 -84.5t-86.5 -34.5
q-54 0 -87.5 38t-33.5 114z" />
    <glyph glyph-name="quotedblright" unicode="&#x201d;" horiz-adv-x="735" 
d="M199 1106q66 5 101 33.5t42 85.5q-59 0 -92 30t-33 78q0 50 34 84.5t87 34.5q54 0 87.5 -38t33.5 -114q0 -109 -67.5 -190.5t-190.5 -81.5h-15zM506 1028l12 78q130 9 144 119q-59 0 -92 30t-33 78q0 50 33.5 84.5t86.5 34.5q54 0 87.5 -38t33.5 -114
q0 -109 -67.5 -190.5t-190.5 -81.5h-14z" />
    <glyph glyph-name="quotedblbase" unicode="&#x201e;" horiz-adv-x="745" 
d="M315 -152q130 9 144 119q-59 0 -92 30.5t-33 78.5q0 50 34 84.5t87 34.5q54 0 87 -38t33 -114q0 -109 -67.5 -190.5t-190.5 -81.5h-14zM-16 -229l12 77q66 5 101 33.5t42 85.5q-59 0 -92 30.5t-33 78.5q0 50 34 84.5t87 34.5q54 0 87.5 -38t33.5 -114
q0 -109 -67.5 -190.5t-190.5 -81.5h-14z" />
    <glyph glyph-name="dagger" unicode="&#x2020;" horiz-adv-x="694" 
d="M283 537l84 522h-181l21 127h180l39 248h133l-39 -248h176l-20 -127h-176l-84 -522h-133z" />
    <glyph glyph-name="daggerdbl" unicode="&#x2021;" horiz-adv-x="694" 
d="M199 0l49 311h-180l20 127h180l88 559h-180l21 127h180l49 310h133l-49 -310h176l-20 -127h-177l-88 -559h177l-21 -127h-176l-49 -311h-133z" />
    <glyph glyph-name="bullet" unicode="&#x2022;" horiz-adv-x="538" 
d="M272 375q-69 0 -117.5 48.5t-48.5 117.5q0 68 48.5 116t117.5 48q68 0 116 -48.5t48 -115.5q0 -69 -48 -117.5t-116 -48.5z" />
    <glyph glyph-name="ellipsis" unicode="&#x2026;" horiz-adv-x="1269" 
d="M565 -20q-47 0 -81.5 33.5t-34.5 80.5t34.5 81t81.5 34t81 -34t34 -81t-34 -80.5t-81 -33.5zM18 94q0 47 35 81t82 34t81 -34t34 -81t-34 -80.5t-81 -33.5q-48 0 -82.5 33.5t-34.5 80.5zM879 94q0 47 34.5 81t81.5 34t81 -34t34 -81t-34 -80.5t-81 -33.5t-81.5 33.5
t-34.5 80.5z" />
    <glyph glyph-name="perthousand" unicode="&#x2030;" horiz-adv-x="2140" 
d="M170 254l-53 98l1255 826l55 -101zM178 1073q0 152 92.5 263.5t239.5 111.5q106 0 169.5 -64.5t63.5 -185.5q0 -99 -39 -184t-115.5 -139t-174.5 -54q-108 0 -172 64.5t-64 187.5zM303 1087q0 -76 34.5 -112.5t94.5 -36.5q61 0 104.5 38t62.5 91.5t19 114.5
q0 149 -126 149q-62 0 -106.5 -37.5t-63.5 -91t-19 -115.5zM801 233q0 99 39 183.5t115.5 138t174.5 53.5q108 0 172 -64.5t64 -185.5q0 -98 -40 -183.5t-117 -139t-175 -53.5q-106 0 -169.5 64.5t-63.5 186.5zM926 248q0 -77 33.5 -113.5t93.5 -36.5q91 0 139.5 73.5
t48.5 170.5q0 150 -129 150q-90 0 -138 -73t-48 -171zM1456 233q0 99 39.5 183.5t116 138t174.5 53.5q107 0 171 -64.5t64 -185.5q0 -99 -39.5 -184t-116.5 -138.5t-175 -53.5q-106 0 -170 64.5t-64 186.5zM1581 248q0 -77 33.5 -113.5t93.5 -36.5q91 0 139.5 73.5
t48.5 170.5q0 150 -129 150q-90 0 -138 -73t-48 -171z" />
    <glyph glyph-name="guilsinglleft" unicode="&#x2039;" horiz-adv-x="466" 
d="M346 289l-262 258l20 127l345 260l-25 -160l-217 -164l164 -164z" />
    <glyph glyph-name="guilsinglright" unicode="&#x203a;" horiz-adv-x="468" 
d="M145 934l263 -258l-21 -127l-344 -260l25 160l217 163l-164 164z" />
    <glyph glyph-name="fraction" unicode="&#x2044;" horiz-adv-x="307" 
d="M-422 0l1120 1434h90l-1120 -1434h-90z" />
    <glyph glyph-name="Euro" unicode="&#x20ac;" horiz-adv-x="1449" 
d="M109 762l16 106h117q71 260 260 422t463 162q224 0 360 -113t139 -323h-159q-15 143 -109 216t-246 73q-101 0 -189 -34t-154 -94t-114.5 -138t-78.5 -171h383l-17 -106h-393q-11 -57 -14 -131h387l-17 -107h-368q18 -196 124 -296.5t279 -100.5q151 0 259 75t169 218
h164q-67 -218 -228.5 -329t-381.5 -111q-245 0 -392.5 137.5t-162.5 406.5h-133l16 107h117q0 45 12 131h-108z" />
    <glyph glyph-name="trademark" unicode="&#x2122;" horiz-adv-x="1011" 
d="M580 1065l59 369h84l86 -291l174 291h90l-59 -369h-80l37 229l-137 -229h-68l-70 229l-37 -229h-79zM213 1364l12 70h340l-12 -70h-129l-47 -299h-80l47 299h-131z" />
    <glyph glyph-name="partialdiff" unicode="&#x2202;" horiz-adv-x="1193" 
d="M504 -20q-103 0 -187 34.5t-141 98t-80.5 158.5t-5.5 210q23 148 102 257.5t190.5 163.5t242.5 54q130 0 225 -56.5t135 -158.5q11 75 14.5 141.5t-1.5 134t-25 120.5t-53 95t-87.5 64.5t-127.5 22.5q-127 0 -214.5 -65t-113.5 -167h-146q12 69 49.5 132.5t97.5 116.5
t149.5 84.5t195.5 31.5q120 0 206.5 -42t134 -112t69.5 -168.5t20.5 -203.5t-20.5 -226q-57 -361 -222 -540.5t-407 -179.5zM246 479q-26 -163 50.5 -262.5t227.5 -99.5q149 0 259.5 100.5t136.5 261.5q24 160 -55.5 254t-231.5 94q-151 0 -256 -93.5t-131 -254.5z" />
    <glyph glyph-name="product" unicode="&#x220f;" horiz-adv-x="1388" 
d="M-53 -389l321 2027h1205l-322 -2027h-154l297 1880h-895l-297 -1880h-155z" />
    <glyph glyph-name="summation" unicode="&#x2211;" horiz-adv-x="1357" 
d="M-53 -389l723 1014l-402 1013h1174l-25 -149h-909l342 -864l-612 -865h907l-25 -149h-1173z" />
    <glyph glyph-name="minus" unicode="&#x2212;" horiz-adv-x="847" 
d="M109 469l24 127h608l-24 -127h-608z" />
    </font>
</defs>
</svg>
