<?xml version="1.0" standalone="no"?>
<!DOCTYPE svg PUBLIC "-//W3C//DTD SVG 1.1//EN" "http://www.w3.org/Graphics/SVG/1.1/DTD/svg11.dtd" >
<svg xmlns="http://www.w3.org/2000/svg" xmlns:xlink="http://www.w3.org/1999/xlink" version="1.1">
<metadata>
Created by FontForge 20170731 at Sun Jun 11 22:27:12 2023
 By Aleksey,,,
Copyright (c) 2023 by Letterhend Studio. All rights reserved.
</metadata>
<defs>
<font id="BlissfulBeauty-Regular" horiz-adv-x="212" >
  <font-face 
    font-family="Blissful Beauty"
    font-weight="400"
    font-stretch="normal"
    units-per-em="1000"
    panose-1="0 0 0 0 0 0 0 0 0 0"
    ascent="750"
    descent="-250"
    x-height="466"
    cap-height="700"
    bbox="-1497 -1199 2688 1752"
    underline-thickness="50"
    underline-position="-175"
    unicode-range="U+000D-FB06"
  />
<missing-glyph horiz-adv-x="250" 
 />
    <glyph glyph-name="fi" unicode="fi" horiz-adv-x="453" 
d="M43 0q-4 0 -4.5 4t4.5 5q17 2 25.5 8.5t8.5 24.5v409h-45q-7 0 -7 7v1q0 7 7 7h45v19q0 64 42 97.5t117 33.5q25 0 51.5 -2.5t48.5 -8.5t36 -17t14 -28q0 -18 -11 -29.5t-29 -11.5q-19 0 -29.5 11.5t-11.5 29.5q-1 16 -17.5 26.5t-54.5 10.5q-26 0 -42.5 -11t-26 -28.5
t-13.5 -39.5t-4 -44v-8h237v-424q0 -18 8.5 -24.5t25.5 -8.5q5 -1 4.5 -5t-4.5 -4h-138q-4 0 -4.5 4t4.5 5q17 2 25.5 8.5t8.5 24.5v353q0 27 -9 41.5t-33 14.5h-125v-409q0 -18 8.5 -24.5t25.5 -8.5q5 -1 4.5 -5t-4.5 -4h-138v0z" />
    <glyph glyph-name="fl" unicode="fl" horiz-adv-x="484" 
d="M43 0q-4 0 -4.5 4t4.5 5q17 2 25.5 8.5t8.5 24.5v409h-45q-7 0 -7 7v1q0 7 7 7h45v19q0 64 43 97.5t119 33.5q93 0 134.5 -34.5t41.5 -107.5v-432q0 -18 8.5 -24.5t25.5 -8.5q5 -1 4.5 -5t-4.5 -4h-138q-4 0 -4.5 4t4.5 5q17 2 25.5 8.5t8.5 24.5v438q0 57 -27 87t-73 30
q-31 0 -50 -11t-29.5 -28.5t-14.5 -39.5t-4 -44v-8h87q7 0 7 -8q0 -7 -7 -7h-87v-409q0 -18 8.5 -24.5t25.5 -8.5q5 -1 4.5 -5t-4.5 -4h-138v0z" />
    <glyph glyph-name=".notdef" horiz-adv-x="250" 
 />
    <glyph glyph-name="uni0000" horiz-adv-x="0" 
 />
    <glyph glyph-name="uni0000" horiz-adv-x="0" 
 />
    <glyph glyph-name="nonmarkingreturn" unicode="&#xd;" horiz-adv-x="360" 
 />
    <glyph glyph-name="space" unicode=" " horiz-adv-x="360" 
 />
    <glyph glyph-name="exclam" unicode="!" horiz-adv-x="153" 
d="M43 700h70l-22 -586h-26zM40 31q0 16 10 26t27 10q16 0 26 -10t10 -26q0 -17 -10 -27t-26 -10q-17 0 -27 10t-10 27z" />
    <glyph glyph-name="quotedbl" unicode="&#x22;" horiz-adv-x="316" 
d="M133 699q-9 -5 -16.5 -12t-11 -14t-3 -14t7.5 -11q16 -5 23.5 -17.5t7.5 -29.5q0 -22 -14 -36t-37 -14q-25 0 -38 16t-11 39q1 14 7.5 30t17.5 30.5t25.5 25.5t32.5 16q11 3 14 -0.5t-5 -8.5zM268 699q-9 -5 -16.5 -12t-11 -14t-3 -14t7.5 -11q16 -5 23.5 -17.5
t7.5 -29.5q0 -22 -14 -36t-37 -14q-25 0 -38 16t-11 39q1 14 7.5 30t17.5 30.5t25.5 25.5t32.5 16q11 3 14 -0.5t-5 -8.5z" />
    <glyph glyph-name="numbersign" unicode="#" horiz-adv-x="612" 
d="M44 57l77 177h-74q-7 0 -7 7v1q0 7 7 7h80l71 163h-89q-7 0 -7 7v1q0 7 7 7h95l67 154h60l-67 -154h167l67 154h60l-67 -154h74q7 0 7 -7q0 -8 -7 -8h-80l-71 -163h89q7 0 7 -7q0 -8 -7 -8h-95l-77 -177h-60l77 177h-167l-77 -177h-60zM187 249h167l71 163h-167z" />
    <glyph glyph-name="dollar" unicode="$" horiz-adv-x="505" 
d="M50 475q0 36 12 64.5t33.5 49t50.5 32.5t62 16v51q0 8 8 8q9 0 9 -8v-49q16 0 31 -1t31 -4v54q0 8 8 8q9 0 9 -8v-58q31 -10 55.5 -24t59.5 -24q-14 -33 -18.5 -68t-6.5 -89q0 -8 -5.5 -7.5t-5.5 7.5q0 27 -3.5 55.5t-12 54t-24 45.5t-39.5 32v-270q30 -11 57 -24t48 -32
t33.5 -46t12.5 -66q0 -73 -41.5 -120.5t-109.5 -58.5v-45q0 -17 -8 -17h-1q-8 0 -8 17v43q-6 -1 -12 -1h-13q-21 0 -37 4v-46q0 -17 -8 -17h-1q-8 0 -8 17v51q-24 8 -43.5 21t-35.5 25t-27.5 20.5t-20.5 8.5t-11.5 -10.5t-2.5 -21.5v-44q0 -6 -7.5 -6t-7.5 6v182q0 11 7 11
t8 -8q3 -30 16.5 -56.5t33 -48t43.5 -37t48 -24.5v289q-31 11 -59.5 24.5t-50.5 32t-35 45.5t-13 65zM225 370q15 -6 30.5 -11.5t31.5 -10.5v270q-18 6 -42 6h-10t-10 -1v-253zM208 620q-43 -9 -70.5 -39.5t-27.5 -81.5q0 -50 28.5 -77.5t69.5 -44.5v243zM225 13
q8 -2 16.5 -3t16.5 -1q14 0 29 3v267q-15 6 -30.5 12t-31.5 11v-289zM304 16q39 11 68.5 41.5t29.5 81.5q0 27 -7.5 47.5t-21 36t-31 27.5t-38.5 22v-256z" />
    <glyph glyph-name="percent" unicode="%" horiz-adv-x="497" 
d="M50 583q0 57 27 91t69 34q44 0 69.5 -34t25.5 -91t-25.5 -91t-69.5 -34q-42 0 -69 34t-27 91zM85 583q0 -60 17 -89t44 -29q26 0 43 29t17 89t-17 89t-43 29q-27 0 -44 -29t-17 -89zM345 700h26l-223 -700h-26zM256 117q0 57 27 91t69 34q44 0 69.5 -34t25.5 -91
t-25.5 -91t-69.5 -34q-42 0 -69 34t-27 91zM291 117q0 -60 17 -89t44 -29q26 0 43 29t17 89t-17 89t-43 29q-27 0 -44 -29t-17 -89z" />
    <glyph glyph-name="ampersand" unicode="&#x26;" horiz-adv-x="633" 
d="M536 371q6 0 6 -6q0 -7 -6 -7h-71v-212q0 -46 4 -73.5t11 -42.5t16.5 -20t20.5 -5q19 0 34 7t26.5 16t18 17t8.5 11q4 5 7 2.5t0 -8.5q0 -1 -6 -10.5t-19 -20t-33 -19t-48 -8.5q-54 0 -78 28.5t-30 82.5q-8 -21 -22 -41t-33 -35.5t-44 -25t-55 -9.5q-46 0 -82 14.5
t-60.5 39.5t-37.5 59.5t-13 73.5q0 74 42.5 123t119.5 65q-42 11 -71 40.5t-29 89.5q0 74 43 108t130 34q19 0 33.5 -4t26.5 -9t22.5 -9t23.5 -4q17 0 31 20q3 5 8.5 4t-0.5 -11q-15 -26 -21 -55.5t-7 -74.5q0 -8 -5.5 -7.5t-5.5 7.5q-1 20 -5.5 42.5t-15 41.5t-29 31.5
t-48.5 12.5q-28 0 -48.5 -9.5t-33.5 -26t-19.5 -37.5t-6.5 -45q0 -55 15.5 -83t43 -39.5t65.5 -12t82 -0.5h4v22q0 30 -10 41.5t-23 9.5q-6 -1 -8 2t6 5l105 20v-100h71zM395 358h-4q-21 0 -47.5 -1t-53.5 0q-46 2 -77.5 -12.5t-51.5 -40.5t-29 -60.5t-9 -72.5
q0 -31 5.5 -60.5t19.5 -53t39 -37.5t64 -14q29 0 55.5 14t46 37.5t31 55.5t11.5 68v177z" />
    <glyph glyph-name="quotesingle" unicode="'" horiz-adv-x="181" 
d="M133 699q-9 -5 -16.5 -12t-11 -14t-3 -14t7.5 -11q16 -5 23.5 -17.5t7.5 -29.5q0 -22 -14 -36t-37 -14q-25 0 -38 16t-11 39q1 14 7.5 30t17.5 30.5t25.5 25.5t32.5 16q11 3 14 -0.5t-5 -8.5z" />
    <glyph glyph-name="parenleft" unicode="(" horiz-adv-x="255" 
d="M212 718q3 0 2.5 -3.5t-2.5 -3.5q-26 -2 -45.5 -32t-33 -79t-20.5 -112.5t-7 -131.5t7 -131.5t20.5 -112.5t33 -79t45.5 -32q2 0 2.5 -3.5t-2.5 -3.5q-36 0 -66 27.5t-51 76.5t-33 115t-12 143t12 143t33 115t51 76.5t66 27.5z" />
    <glyph glyph-name="parenright" unicode=")" horiz-adv-x="255" 
d="M43 718q36 0 66 -27.5t51 -76.5t33 -115t12 -143t-12 -143t-33 -115t-51 -76.5t-66 -27.5q-3 0 -2.5 3.5t2.5 3.5q25 2 45 32t33.5 79t20.5 112.5t7 131.5t-7 131.5t-20.5 112.5t-33.5 79t-45 32q-2 0 -2.5 3.5t2.5 3.5z" />
    <glyph glyph-name="asterisk" unicode="*" horiz-adv-x="197" 
d="M63 536l-19 13l48 54l-70 15l7 22l65 -29l-7 71h23l-7 -71l65 29l7 -22l-70 -15l48 -54l-19 -13l-35 63z" />
    <glyph glyph-name="plus" unicode="+" horiz-adv-x="435" 
d="M50 362h156v156h23v-156h156v-23h-156v-156h-23v156h-156v23z" />
    <glyph glyph-name="comma" unicode="," horiz-adv-x="146" 
d="M37 -48q16 10 24 22.5t-4 20.5q-27 10 -27 41q0 18 12 30t32 12q21 0 31.5 -13.5t10.5 -33.5q-1 -12 -6.5 -25.5t-15 -26t-22 -22t-27.5 -13.5q-9 -3 -12 0.5t4 7.5z" />
    <glyph glyph-name="hyphen" unicode="-" horiz-adv-x="435" 
d="M50 362h335v-23h-335v23z" />
    <glyph glyph-name="period" unicode="." horiz-adv-x="146" 
d="M30 36q0 18 12 30t32 12q18 0 30 -12t12 -30q0 -20 -12 -32t-30 -12q-20 0 -32 12t-12 32z" />
    <glyph glyph-name="slash" unicode="/" horiz-adv-x="482" 
d="M40 0l357 700h45l-357 -700h-45z" />
    <glyph glyph-name="zero" unicode="0" horiz-adv-x="491" 
d="M50 315q0 73 14 133t39.5 102.5t61.5 65.5t80 23t80.5 -23t62 -65.5t39.5 -102.5t14 -133t-14 -132.5t-39.5 -102t-62 -65.5t-80.5 -23t-80 23t-61.5 65.5t-39.5 102t-14 132.5zM123 315q0 -155 33.5 -231t88.5 -76q56 0 89.5 76t33.5 231q0 156 -33.5 232t-89.5 76
q-55 0 -88.5 -76t-33.5 -232z" />
    <glyph glyph-name="one" unicode="1" horiz-adv-x="244" 
d="M61 0q-4 0 -4.5 4t4.5 5q17 2 25.5 8.5t8.5 24.5v527l-41 -36q-7 -6 -11.5 0t1.5 11l94 87h27v-589q0 -18 8.5 -24.5t25.5 -8.5q5 -1 4.5 -5t-4.5 -4h-138v0z" />
    <glyph glyph-name="two" unicode="2" horiz-adv-x="442" 
d="M402 484q0 -44 -17.5 -88t-45.5 -86t-62.5 -81t-68 -71.5t-62 -58.5t-45.5 -42h176q28 0 45.5 7.5t28 21t17 32.5t13.5 42q2 8 9.5 8.5t5.5 -10.5l-37 -158h-319v27q8 9 32.5 33t57 59t67.5 79.5t64.5 94t48.5 102t19 104.5q0 24 -7 46.5t-21.5 40t-35.5 28t-49 10.5
q-41 0 -65 -17.5t-36 -45.5t-15 -64t-1 -72q0 -7 -5 -7.5t-6 7.5q-5 45 -11.5 87.5t-17.5 70.5q26 6 43.5 15.5t34 18.5t37.5 15.5t55 6.5q87 0 130 -40.5t43 -114.5z" />
    <glyph glyph-name="three" unicode="3" horiz-adv-x="459" 
d="M389 497q0 -63 -41.5 -98.5t-104.5 -49.5q35 -3 65.5 -12.5t53 -27.5t35 -47t12.5 -72t-14 -79t-41 -62.5t-66.5 -41.5t-91.5 -15q-63 0 -102.5 24.5t-52.5 83.5q-2 11 4 13t8 -6q9 -31 23.5 -50t31.5 -29.5t35 -14t34 -3.5q39 0 69 15.5t50 40.5t30 57t10 65
q0 58 -21.5 89t-53.5 44t-68.5 14.5t-67.5 1.5q-7 0 -7 7q0 6 7 6h5l12 1h5q29 2 59 10.5t54.5 26t40 44.5t15.5 67q0 24 -6.5 46.5t-19.5 40t-33.5 28t-48.5 10.5q-41 0 -65 -17.5t-36 -45.5t-15 -64t-1 -72q0 -7 -5 -7.5t-6 7.5q-5 45 -11.5 87.5t-17.5 70.5
q26 6 43.5 15.5t34 18.5t37.5 15.5t55 6.5q87 0 127.5 -36.5t40.5 -105.5z" />
    <glyph glyph-name="four" unicode="4" horiz-adv-x="463" 
d="M280 0q-4 0 -4.5 4t4.5 5q17 2 25.5 8.5t8.5 24.5v157h-294l313 432h51v-589q0 -18 8.5 -24.5t25.5 -8.5q5 -1 4.5 -5t-4.5 -4h-138zM314 217v359l-260 -359h260z" />
    <glyph glyph-name="five" unicode="5" horiz-adv-x="459" 
d="M409 218q0 -50 -14 -91.5t-41 -71.5t-66.5 -46.5t-91.5 -16.5q-63 0 -102.5 24.5t-52.5 83.5q-2 11 4 13t8 -6q9 -31 23.5 -50t31.5 -29.5t35 -14t34 -3.5q39 0 69 17t50 45.5t30 65.5t10 76q0 56 -15.5 95t-41.5 64t-61.5 36t-75.5 11q-18 0 -36 -2t-37 -6v219h268
l32 -137q2 -11 -5.5 -10.5t-9.5 8.5q-6 20 -11.5 35.5t-15.5 26t-27 15.5t-45 5h-167v-138q71 6 130 -2t101.5 -34t66 -70.5t23.5 -111.5z" />
    <glyph glyph-name="six" unicode="6" horiz-adv-x="485" 
d="M50 267q0 69 17.5 136t51 119.5t82.5 84.5t112 32q14 0 24.5 -5t13.5 -10l-9 -9q-14 6 -28 6q-26 0 -54.5 -18.5t-54 -53t-46 -83.5t-29.5 -110q17 32 49 57.5t82 25.5q35 0 66.5 -14.5t55.5 -42t38 -66.5t14 -88q0 -53 -15 -96.5t-41 -74.5t-62 -48t-79 -17
q-86 0 -137 69.5t-51 205.5zM240 10q26 0 48.5 15.5t39 43.5t25.5 68t9 89q0 94 -27.5 145.5t-83.5 51.5q-30 0 -53 -14t-39 -37t-25 -51.5t-11 -57.5q0 -65 9.5 -112.5t25.5 -78.5t37.5 -46.5t44.5 -15.5z" />
    <glyph glyph-name="seven" unicode="7" horiz-adv-x="436" 
d="M24 0q-4 0 -3.5 4t5.5 5q17 2 27.5 8.5t16.5 24.5q18 56 45 122.5t63 136.5t81 140t100 133h-174q-28 0 -45 -5t-27 -15.5t-15.5 -26t-11.5 -35.5q-2 -8 -9.5 -8.5t-5.5 10.5l32 137h308v-14q-46 -64 -88 -138t-76.5 -150.5t-60.5 -150t-39 -136.5q-4 -18 2 -24.5
t22 -8.5q5 -1 3.5 -5t-5.5 -4h-145z" />
    <glyph glyph-name="eight" unicode="8" horiz-adv-x="482" 
d="M178 356q-32 31 -54 65.5t-22 78.5q0 33 13 59t35 43.5t51 27t61 9.5q70 0 105.5 -39.5t35.5 -96.5q0 -53 -32 -92t-78 -58q26 -20 51 -40.5t44.5 -43.5t31.5 -48.5t12 -55.5t-9.5 -61t-31 -56t-57 -40.5t-86.5 -15.5q-46 0 -82.5 13t-62 36.5t-39.5 56t-14 70.5
t10.5 68.5t28.5 54t41 40t48 25.5zM262 624q-49 0 -77 -25.5t-28 -75.5q0 -23 10 -44t26.5 -40.5t38.5 -37.5t45 -36q15 6 30 17.5t27 29t20 40.5t8 51q0 55 -25.5 88t-74.5 33zM192 343q-16 -8 -29 -24.5t-22 -39.5t-14 -49.5t-5 -53.5q0 -78 32 -121.5t92 -43.5
q26 0 51.5 5.5t45 19t31.5 34.5t12 53q0 33 -18.5 61t-47 54t-63 51.5t-65.5 53.5z" />
    <glyph glyph-name="nine" unicode="9" horiz-adv-x="485" 
d="M435 364q0 -69 -17.5 -136t-51 -119.5t-82.5 -84.5t-112 -32q-14 0 -24.5 5t-13.5 10l9 9q13 -6 28 -6q26 0 54.5 18.5t54 53t46 83.5t29.5 110q-17 -32 -49 -57.5t-82 -25.5q-35 0 -66.5 14.5t-55.5 42t-38 66.5t-14 88q0 53 14.5 96.5t41 74.5t62.5 48t79 17
q86 0 137 -69.5t51 -205.5zM234 208q30 0 53 14t39 37t25 51.5t11 57.5q0 64 -9.5 112t-25.5 79t-37.5 46.5t-44.5 15.5q-26 0 -48.5 -15.5t-39 -43.5t-25.5 -68t-9 -89q0 -94 27.5 -145.5t83.5 -51.5z" />
    <glyph glyph-name="colon" unicode=":" horiz-adv-x="166" 
d="M40 541q0 18 12 30t32 12q18 0 30 -12t12 -30q0 -20 -12 -32t-30 -12q-20 0 -32 12t-12 32zM40 162q0 18 12 30t32 12q18 0 30 -12t12 -30q0 -20 -12 -32t-30 -12q-20 0 -32 12t-12 32z" />
    <glyph glyph-name="semicolon" unicode=";" horiz-adv-x="166" 
d="M40 541q0 18 12 30t32 12q18 0 30 -12t12 -30q0 -20 -12 -32t-30 -12q-20 0 -32 12t-12 32zM47 78q16 10 24 22.5t-4 20.5q-27 10 -27 41q0 18 12 30t32 12q21 0 31.5 -13.5t10.5 -33.5q-1 -12 -6.5 -25.5t-15 -26t-22 -22t-27.5 -13.5q-9 -3 -12 0.5t4 7.5z" />
    <glyph glyph-name="less" unicode="&#x3c;" horiz-adv-x="364" 
d="M324 545v-53l-242 -114l242 -114v-53l-284 158v18z" />
    <glyph glyph-name="equal" unicode="=" horiz-adv-x="435" 
d="M50 408h335v-23h-335v23zM50 244h335v-23h-335v23z" />
    <glyph glyph-name="greater" unicode="&#x3e;" horiz-adv-x="364" 
d="M40 545l284 -158v-18l-284 -158v53l242 114l-242 114v53z" />
    <glyph glyph-name="question" unicode="?" horiz-adv-x="423" 
d="M383 560q0 -44 -15 -74.5t-37 -56t-48 -51t-48 -60.5t-37 -84t-15 -121h-22q-6 70 2.5 121.5t25.5 90.5t37.5 69.5t39.5 58.5t31.5 56.5t12.5 65.5q0 24 -7 45t-21.5 37.5t-35.5 26t-49 9.5q-41 0 -63.5 -24.5t-32.5 -61t-11 -79.5t1 -79q0 -7 -5 -7.5t-6 7.5
q-2 22 -6.5 51.5t-10.5 58.5t-12 54t-11 39q26 6 43.5 15.5t34 18.5t37.5 15.5t55 6.5q173 0 173 -148zM135 31q0 16 10 26t27 10q16 0 26 -10t10 -26q0 -17 -10 -27t-26 -10q-17 0 -27 10t-10 27z" />
    <glyph glyph-name="at" unicode="@" horiz-adv-x="717" 
d="M430 157q-11 -25 -39 -48t-72 -23q-23 0 -44 5.5t-37 19t-25.5 35.5t-9.5 54q0 30 9 50t26 34t41 24t54 20q17 6 34 12.5t30.5 13t22 13t10.5 12.5q-2 34 -17 57t-52 23q-53 0 -76.5 -28.5t-23.5 -66.5q0 -2 -4 -2.5t-4 2.5q-3 27 -5 45.5t-8 34.5q9 2 24 7t32.5 10
t34.5 9t31 4q18 0 40 -6t40.5 -19.5t31.5 -36t13 -54.5v-202q0 -49 8.5 -79t40.5 -30q24 0 40.5 17t26.5 45.5t14.5 66.5t4.5 80q0 71 -13.5 126t-43.5 93t-78.5 58t-118.5 20q-141 0 -207 -79t-66 -218q0 -60 19 -110t52 -85.5t76.5 -55t92.5 -19.5q31 0 59 7q8 2 9.5 -8.5
t-3.5 -12.5q-35 -11 -80 -11q-44 0 -91.5 13.5t-87.5 47.5t-65.5 91t-25.5 143q0 73 22 132.5t63 101.5t100 65t133 23q73 0 129 -22.5t94 -63.5t57 -99.5t19 -131.5q0 -43 -6 -85t-21.5 -75t-41.5 -53.5t-66 -20.5q-53 0 -77.5 32.5t-24.5 78.5v19zM430 360
q-13 -13 -37.5 -23.5t-49.5 -21.5q-39 -18 -60 -44t-21 -71q0 -43 17 -70t50 -27q22 0 40.5 10t32 25t21 32t7.5 32v158z" />
    <glyph glyph-name="A" unicode="A" horiz-adv-x="678" 
d="M260 691q-5 1 -4.5 5t4.5 4h108l212 -621q9 -26 29 -46.5t44 -23.5q5 -1 4.5 -5t-4.5 -4h-171q-4 0 -4.5 4t4.5 5q20 2 27.5 17.5t-0.5 38.5l-52 151h-294l-52 -151q-8 -23 -0.5 -38.5t27.5 -17.5q5 -1 4.5 -5t-4.5 -4h-113q-4 0 -4.5 4t4.5 5q24 3 44 23.5t29 46.5
l202 592q-7 11 -16.5 14.5t-23.5 5.5zM452 231l-142 416l-142 -416h284z" />
    <glyph glyph-name="B" unicode="B" horiz-adv-x="565" 
d="M45 691q-5 1 -4.5 5t4.5 4h181q72 0 117.5 -11t71 -30t35 -44.5t9.5 -54.5q0 -23 -5.5 -45.5t-20 -42t-40 -34.5t-65.5 -24q52 -8 88 -26.5t58 -44t31.5 -57t9.5 -66.5q0 -41 -13 -80.5t-45 -70.5t-85.5 -50t-134.5 -19h-192q-4 0 -4.5 4t4.5 5q17 2 25.5 8.5t8.5 24.5
v616q0 18 -8.5 24.5t-25.5 8.5zM239 420q80 0 113.5 38t33.5 107q0 31 -8 54t-26.5 37.5t-49.5 21.5t-76 7h-43q-17 0 -25.5 -4.5t-8.5 -22.5v-238h90zM187 15h54q102 0 151.5 55t49.5 150q0 47 -14 82t-39 58t-60 34t-78 11h-102v-363q0 -18 8.5 -22.5t25.5 -4.5q1 0 2 -1z
" />
    <glyph glyph-name="C" unicode="C" horiz-adv-x="588" 
d="M123 350q0 -86 16 -150.5t45 -107t70.5 -63.5t91.5 -21q33 0 60.5 8t49.5 20.5t39 29t29 33.5q5 6 10 2.5t1 -9.5q-11 -18 -28.5 -36t-41 -32.5t-53.5 -23t-66 -8.5q-67 0 -121.5 25.5t-93.5 72.5t-60 113t-21 147t21 147t60 113t93.5 72.5t121.5 25.5q33 0 60 -7t47 -19
q13 -7 23.5 -11t19.5 -4q15 0 23 10.5t13 36.5q2 8 9 6t6 -7l-21 -199q-1 -8 -8.5 -7t-6.5 8q4 36 -3 68t-27.5 56.5t-53.5 38.5t-81 14q-50 0 -91.5 -21t-70.5 -63.5t-45 -107t-16 -150.5z" />
    <glyph glyph-name="D" unicode="D" horiz-adv-x="541" 
d="M45 691q-5 1 -4.5 5t4.5 4h181q76 0 127 -27.5t81.5 -75.5t43.5 -112.5t13 -138.5t-13 -137.5t-43.5 -110t-81 -72.5t-125.5 -26h-183q-4 0 -4.5 4t4.5 5q17 2 25.5 8.5t8.5 24.5v616q0 18 -8.5 24.5t-25.5 8.5zM149 42q0 -18 8.5 -22.5t25.5 -4.5h45q48 0 84 16t59.5 54
t35 101.5t11.5 159.5t-11.5 160.5t-35.5 104.5t-60 57t-85 17h-43q-17 0 -25.5 -4.5t-8.5 -22.5v-616z" />
    <glyph glyph-name="E" unicode="E" horiz-adv-x="504" 
d="M45 691q-5 1 -4.5 5t4.5 4h385l13 -112q1 -6 -3.5 -6.5t-5.5 6.5q-5 30 -12 49t-17.5 29.5t-24.5 14.5t-31 4h-166q-17 0 -25.5 -4.5t-8.5 -22.5v-255h103q19 0 34 2t25.5 10t17 24t8.5 44q1 7 5 6.5t4 -6.5v-175q0 -6 -4 -6.5t-5 6.5q-2 28 -8.5 44t-17 24t-25.5 10
t-34 2h-103v-346q0 -18 8.5 -22.5t25.5 -4.5h166q45 0 70.5 22t34.5 82q1 7 5.5 6.5t3.5 -6.5l-14 -119h-404q-4 0 -4.5 4t4.5 5q17 2 25.5 8.5t8.5 24.5v616q0 18 -8.5 24.5t-25.5 8.5z" />
    <glyph glyph-name="F" unicode="F" horiz-adv-x="484" 
d="M45 691q-5 1 -4.5 5t4.5 4h385l13 -112q1 -6 -3.5 -6.5t-5.5 6.5q-5 30 -12 49t-17.5 29.5t-24.5 14.5t-31 4h-166q-17 0 -25.5 -4.5t-8.5 -22.5v-274h103q19 0 34 2t25.5 10t17 24t8.5 44q1 7 5 6.5t4 -6.5v-175q0 -6 -4 -6.5t-5 6.5q-2 28 -8.5 44t-17 24t-25.5 10
t-34 2h-103v-327q0 -18 8.5 -24.5t25.5 -8.5q5 -1 4.5 -5t-4.5 -4h-138q-4 0 -4.5 4t4.5 5q17 2 25.5 8.5t8.5 24.5v616q0 18 -8.5 24.5t-25.5 8.5z" />
    <glyph glyph-name="G" unicode="G" horiz-adv-x="627" 
d="M123 350q0 -86 16 -150.5t45 -107t70.5 -63.5t91.5 -21q32 0 58.5 7.5t49.5 20.5h1l1 1h1q13 8 17 19t4 23v287q0 18 -8.5 24.5t-25.5 8.5q-5 1 -4.5 5t4.5 4h138q4 0 4.5 -4t-4.5 -5q-17 -2 -25.5 -8.5t-8.5 -24.5v-352q0 -6 -0.5 -10t-5.5 -4t-5 11q0 25 -22 25
q-12 0 -29 -6t-37 -15q-22 -11 -47.5 -17t-55.5 -6q-67 0 -121.5 25.5t-93.5 72.5t-60 113t-21 147t21 147t60 113t93.5 72.5t121.5 25.5q33 0 60 -7t47 -19q13 -7 23.5 -11t19.5 -4q15 0 23 10.5t13 36.5q2 8 9 6t6 -7l-21 -199q-1 -8 -8.5 -7t-6.5 8q4 36 -3 68
t-27.5 56.5t-53.5 38.5t-81 14q-50 0 -91.5 -21t-70.5 -63.5t-45 -107t-16 -150.5z" />
    <glyph glyph-name="H" unicode="H" horiz-adv-x="610" 
d="M427 691q-5 1 -4.5 5t4.5 4h138q4 0 4.5 -4t-4.5 -5q-17 -2 -25.5 -8.5t-8.5 -24.5v-616q0 -18 8.5 -24.5t25.5 -8.5q5 -1 4.5 -5t-4.5 -4h-138q-4 0 -4.5 4t4.5 5q17 2 25.5 8.5t8.5 24.5v333h-312v-333q0 -18 8.5 -24.5t25.5 -8.5q5 -1 4.5 -5t-4.5 -4h-138
q-4 0 -4.5 4t4.5 5q17 2 25.5 8.5t8.5 24.5v616q0 18 -8.5 24.5t-25.5 8.5q-5 1 -4.5 5t4.5 4h138q4 0 4.5 -4t-4.5 -5q-17 -2 -25.5 -8.5t-8.5 -24.5v-268h312v268q0 18 -8.5 24.5t-25.5 8.5z" />
    <glyph glyph-name="I" unicode="I" horiz-adv-x="228" 
d="M45 691q-5 1 -4.5 5t4.5 4h138q4 0 4.5 -4t-4.5 -5q-17 -2 -25.5 -8.5t-8.5 -24.5v-616q0 -18 8.5 -24.5t25.5 -8.5q5 -1 4.5 -5t-4.5 -4h-138q-4 0 -4.5 4t4.5 5q17 2 25.5 8.5t8.5 24.5v616q0 18 -8.5 24.5t-25.5 8.5z" />
    <glyph glyph-name="J" unicode="J" horiz-adv-x="407" 
d="M224 691q-5 1 -4.5 5t4.5 4h138q4 0 4.5 -4t-4.5 -5q-17 -2 -25.5 -8.5t-8.5 -24.5v-438q0 -51 -9 -93t-29.5 -72t-53 -46.5t-79.5 -16.5q-32 0 -55.5 8.5t-40.5 20.5t-27 26t-13 25q-2 8 2.5 9.5t6.5 -4.5q4 -11 13.5 -22.5t23.5 -21t32 -16t40 -6.5q24 0 46 10t38 32.5
t25.5 58.5t9.5 89v457q0 18 -8.5 24.5t-25.5 8.5z" />
    <glyph glyph-name="K" unicode="K" horiz-adv-x="577" 
d="M45 691q-5 1 -4.5 5t4.5 4h138q4 0 4.5 -4t-4.5 -5q-17 -2 -25.5 -8.5t-8.5 -24.5v-293l236 267q13 15 15.5 26t-1.5 18t-12 10.5t-15 4.5q-4 1 -3.5 5t4.5 4h137q4 0 4.5 -4t-4.5 -5q-19 -2 -47.5 -15.5t-60.5 -49.5l-108 -123l187 -451q7 -17 20.5 -29t30.5 -14
q5 -1 4.5 -5t-4.5 -4h-146q-4 0 -4 4t4 5q33 5 17 43l-163 391l-91 -104v-297q0 -18 8.5 -24.5t25.5 -8.5q5 -1 4.5 -5t-4.5 -4h-138q-4 0 -4.5 4t4.5 5q17 2 25.5 8.5t8.5 24.5v616q0 18 -8.5 24.5t-25.5 8.5z" />
    <glyph glyph-name="L" unicode="L" horiz-adv-x="479" 
d="M45 9q17 2 25.5 8.5t8.5 24.5v616q0 18 -8.5 24.5t-25.5 8.5q-5 1 -4.5 5t4.5 4h138q4 0 4.5 -4t-4.5 -5q-17 -2 -25.5 -8.5t-8.5 -24.5v-616q0 -18 8.5 -22.5t25.5 -4.5h161q17 0 31 4t24.5 14.5t17.5 29.5t12 49q1 7 5.5 6.5t3.5 -6.5l-13 -112h-380q-4 0 -4.5 4t4.5 5
z" />
    <glyph glyph-name="M" unicode="M" horiz-adv-x="777" 
d="M71 691q-5 1 -5 5t5 4h90l224 -588l234 588h87q5 0 5 -4t-5 -5q-16 -2 -26.5 -8.5t-9.5 -24.5l32 -616q1 -18 12 -24.5t28 -8.5q5 -1 5 -5t-5 -4h-148q-5 0 -5 4t5 5q16 2 26.5 8.5t9.5 24.5l-29 565l-242 -607h-8l-232 606l-29 -564q-1 -18 9.5 -24.5t26.5 -8.5
q5 -1 5 -5t-5 -4h-91q-5 0 -5 4t5 5q17 2 28 8.5t12 24.5l32 616q1 18 -9.5 24.5t-26.5 8.5z" />
    <glyph glyph-name="N" unicode="N" horiz-adv-x="569" 
d="M47 691q-5 1 -5 5t5 4h90l332 -598v556q0 18 -10.5 24.5t-27.5 8.5q-5 1 -5 5t5 4h91q5 0 5 -4t-5 -5q-17 -2 -27.5 -8.5t-10.5 -24.5v-658h-41l-343 618v-576q0 -18 10.5 -24.5t27.5 -8.5q5 -1 5 -5t-5 -4h-91q-5 0 -5 4t5 5q17 2 27.5 8.5t10.5 24.5v616
q0 18 -10.5 24.5t-27.5 8.5z" />
    <glyph glyph-name="O" unicode="O" horiz-adv-x="692" 
d="M50 350q0 81 21 147t60 113t93.5 72.5t121.5 25.5t121.5 -25.5t93.5 -72.5t60 -113t21 -147t-21 -147t-60 -113t-93.5 -72.5t-121.5 -25.5t-121.5 25.5t-93.5 72.5t-60 113t-21 147zM123 350q0 -86 16 -150.5t45 -107t70.5 -63.5t91.5 -21t91 21t70.5 63.5t45.5 107
t16 150.5t-16 150.5t-45.5 107t-70.5 63.5t-91 21t-91.5 -21t-70.5 -63.5t-45 -107t-16 -150.5z" />
    <glyph glyph-name="P" unicode="P" horiz-adv-x="504" 
d="M45 691q-5 1 -4.5 5t4.5 4h181q72 0 117 -13t69.5 -35.5t33 -52t8.5 -62.5t-8.5 -64t-33 -55t-68.5 -39t-116 -15h-79v-322q0 -18 8.5 -24.5t25.5 -8.5q5 -1 4.5 -5t-4.5 -4h-138q-4 0 -4.5 4t4.5 5q17 2 25.5 8.5t8.5 24.5v616q0 18 -8.5 24.5t-25.5 8.5zM239 379
q79 0 110.5 43t31.5 121q0 36 -7 63t-25 44.5t-48 26t-75 8.5h-43q-17 0 -25.5 -4.5t-8.5 -22.5v-279h90z" />
    <glyph glyph-name="Q" unicode="Q" horiz-adv-x="692" 
d="M50 350q0 81 21 147t60 113t93.5 72.5t121.5 25.5t121.5 -25.5t93.5 -72.5t60 -113t21 -147t-21 -147t-60 -113t-93.5 -72.5t-121.5 -25.5q-9 0 -18 0.5t-18 1.5q17 -14 46 -26.5t65 -12.5q38 0 62.5 13t32.5 24l43 -59q-8 -8 -30 -16.5t-54 -8.5q-39 0 -69 7.5t-53 20
t-42 29t-35 35.5q-52 12 -93.5 42.5t-71 75.5t-45.5 104t-16 128zM123 350q0 -86 16 -150.5t45 -107t70.5 -63.5t91.5 -21t91 21t70.5 63.5t45.5 107t16 150.5t-16 150.5t-45.5 107t-70.5 63.5t-91 21t-91.5 -21t-70.5 -63.5t-45 -107t-16 -150.5z" />
    <glyph glyph-name="R" unicode="R" horiz-adv-x="535" 
d="M45 691q-5 1 -4.5 5t4.5 4h181q72 0 117 -13t69.5 -35.5t33 -52t8.5 -62.5q0 -26 -5.5 -51.5t-20 -47.5t-40.5 -39t-67 -26l133 -321q7 -17 20.5 -29t30.5 -14q5 -1 4.5 -5t-4.5 -4h-146q-4 0 -4 4t4 5q33 5 17 43l-130 312h-97v-322q0 -18 8.5 -24.5t25.5 -8.5
q5 -1 4.5 -5t-4.5 -4h-138q-4 0 -4.5 4t4.5 5q17 2 25.5 8.5t8.5 24.5v616q0 18 -8.5 24.5t-25.5 8.5zM239 379q79 0 110.5 43t31.5 121q0 36 -7 63t-25 44.5t-48 26t-75 8.5h-43q-17 0 -25.5 -4.5t-8.5 -22.5v-279h90z" />
    <glyph glyph-name="S" unicode="S" horiz-adv-x="564" 
d="M50 526q0 45 17.5 79t48 57t71 34.5t86.5 11.5q37 0 63.5 -6.5t48.5 -15.5t43.5 -18.5t49.5 -16.5q-14 -33 -18.5 -68t-6.5 -89q0 -8 -5.5 -7.5t-5.5 7.5q0 34 -6.5 69.5t-25 64.5t-51 47t-84.5 18q-35 0 -65 -9t-52.5 -26t-35 -43t-12.5 -60q0 -40 17.5 -66t46 -44
t64.5 -31t74 -25t74 -26.5t64.5 -36.5t46 -53.5t17.5 -78.5t-16.5 -84t-46.5 -63.5t-71.5 -40.5t-90.5 -14q-42 0 -75.5 13t-59 29t-43.5 29t-29 13q-10 0 -12.5 -10.5t-2.5 -21.5v-44q0 -6 -7.5 -6t-7.5 6v182q0 11 7 11t8 -8q5 -39 28.5 -71t56 -55.5t70 -36.5t69.5 -13
q29 0 59.5 9t55 27t40 45t15.5 63q0 42 -17.5 71t-46.5 49t-66 33.5t-75.5 27t-75.5 28t-66 36t-46.5 52.5t-17.5 76z" />
    <glyph glyph-name="T" unicode="T" horiz-adv-x="532" 
d="M197 0q-4 0 -4.5 4t4.5 5q17 2 25.5 8.5t8.5 24.5v616q0 18 -8.5 22.5t-25.5 4.5h-34q-50 0 -77.5 -28t-40.5 -91q-2 -7 -6 -6.5t-3 6.5l23 134h414l23 -134q1 -6 -3 -6.5t-6 6.5q-13 63 -40.5 91t-77.5 28h-34q-17 0 -25.5 -4.5t-8.5 -22.5v-616q0 -18 8.5 -24.5
t25.5 -8.5q5 -1 4.5 -5t-4.5 -4h-138v0z" />
    <glyph glyph-name="U" unicode="U" horiz-adv-x="556" 
d="M45 691q-5 1 -4.5 5t4.5 4h138q4 0 4.5 -4t-4.5 -5q-17 -2 -25.5 -8.5t-8.5 -24.5v-464q0 -93 33 -138.5t113 -45.5q46 0 78 16t51 41.5t27.5 58t8.5 66.5v466q0 18 -8.5 24.5t-25.5 8.5q-5 1 -4.5 5t4.5 4h83q4 0 4.5 -4t-4.5 -5q-17 -2 -25.5 -8.5t-8.5 -24.5v-468
q0 -41 -10.5 -77t-34 -63t-62.5 -42.5t-96 -15.5q-53 0 -90 14t-60 41.5t-33 67.5t-10 92v451q0 18 -8.5 24.5t-25.5 8.5z" />
    <glyph glyph-name="V" unicode="V" horiz-adv-x="650" 
d="M295 0l-197 621q-8 26 -28.5 46.5t-44.5 23.5q-5 1 -4.5 5t4.5 4h171q4 0 4.5 -4t-4.5 -5q-20 -2 -27.5 -17.5t0.5 -38.5l184 -580l186 580q8 23 0.5 38.5t-27.5 17.5q-5 1 -4.5 5t4.5 4h113q4 0 4.5 -4t-4.5 -5q-24 -3 -44.5 -23.5t-28.5 -46.5l-199 -621h-58z" />
    <glyph glyph-name="W" unicode="W" horiz-adv-x="949" 
d="M295 0l-197 621q-8 26 -28.5 46.5t-44.5 23.5q-5 1 -4.5 5t4.5 4h171q4 0 4.5 -4t-4.5 -5q-20 -2 -27.5 -17.5t0.5 -38.5l184 -580l112 351l-68 215q-8 26 -28.5 46.5t-44.5 23.5q-5 1 -4.5 5t4.5 4h301q4 0 4.5 -4t-4.5 -5q-24 -3 -44.5 -23.5t-28.5 -46.5l-40 -125
l140 -441l186 580q8 23 0.5 38.5t-27.5 17.5q-5 1 -4.5 5t4.5 4h113q4 0 4.5 -4t-4.5 -5q-24 -3 -44.5 -23.5t-28.5 -46.5l-199 -621h-58l-120 378l-121 -378h-58zM539 635q8 23 -0.5 39.5t-34.5 16.5t-35 -16.5t-1 -39.5l35 -111z" />
    <glyph glyph-name="X" unicode="X" horiz-adv-x="632" 
d="M282 337l-148 284q-14 26 -39 46.5t-50 23.5q-5 1 -4.5 5t4.5 4h179q4 0 4.5 -4t-4.5 -5q-20 -2 -24 -17.5t8 -38.5l116 -223l125 223q13 23 10.5 38.5t-22.5 17.5q-5 1 -3.5 5t5.5 4h113q4 0 3.5 -4t-5.5 -5q-25 -3 -49.5 -23.5t-39.5 -46.5l-127 -227l164 -315
q14 -26 39 -46.5t50 -23.5q5 -1 4.5 -5t-4.5 -4h-179q-4 0 -4.5 4t4.5 5q20 2 24 17.5t-8 38.5l-132 253l-142 -253q-13 -23 -10.5 -38.5t22.5 -17.5q5 -1 3.5 -5t-5.5 -4h-113q-4 0 -3.5 4t5.5 5q25 3 49.5 23.5t39.5 46.5z" />
    <glyph glyph-name="Y" unicode="Y" horiz-adv-x="569" 
d="M221 0q-4 0 -4.5 4t4.5 5q17 2 25.5 8.5t8.5 24.5v296l-141 283q-14 26 -39 46.5t-50 23.5q-5 1 -4.5 5t4.5 4h179q4 0 4.5 -4t-4.5 -5q-20 -2 -24 -17.5t8 -38.5l123 -248l131 248q13 23 10.5 38.5t-22.5 17.5q-5 1 -3.5 5t5.5 4h113q4 0 3.5 -4t-5.5 -5
q-25 -3 -50 -23.5t-39 -46.5l-129 -243v-336q0 -18 8.5 -24.5t25.5 -8.5q5 -1 4.5 -5t-4.5 -4h-138v0z" />
    <glyph glyph-name="Z" unicode="Z" horiz-adv-x="581" 
d="M192 685q-17 0 -31 -4t-24.5 -14.5t-18 -29.5t-11.5 -49q-1 -7 -5.5 -6.5t-3.5 6.5l13 112h420l-3 -36l-362 -610q-11 -19 -2.5 -29t29.5 -10h205q45 0 70.5 22t34.5 82q1 7 5.5 6.5t3.5 -6.5l-14 -119h-448l391 658q9 16 6.5 21.5t-28.5 5.5h-227z" />
    <glyph glyph-name="bracketleft" unicode="[" horiz-adv-x="197" 
d="M40 -6v727h111q6 0 6 -6q0 -7 -6 -7h-60v-701h60q6 0 6 -7q0 -6 -6 -6h-111z" />
    <glyph glyph-name="backslash" unicode="\" horiz-adv-x="482" 
d="M442 0h-45l-357 700h45z" />
    <glyph glyph-name="bracketright" unicode="]" horiz-adv-x="197" 
d="M46 -6q-6 0 -6 6q0 7 6 7h60v701h-60q-6 0 -6 7q0 6 6 6h111v-727h-111v0z" />
    <glyph glyph-name="asciicircum" unicode="^" horiz-adv-x="414" 
d="M374 389h-53l-114 277l-114 -277h-53l158 319h18z" />
    <glyph glyph-name="underscore" unicode="_" horiz-adv-x="381" 
d="M0 0h381v-30h-381v30z" />
    <glyph glyph-name="grave" unicode="`" horiz-adv-x="218" 
d="M176 638l-136 51l4 31l134 -70z" />
    <glyph glyph-name="a" unicode="a" horiz-adv-x="461" 
d="M342 0q-20 0 -20 20v61q-7 -15 -19.5 -31t-29.5 -29t-39.5 -21t-49.5 -8q-29 0 -55 7.5t-46 24t-31.5 43.5t-11.5 66q0 37 11.5 62.5t32.5 42.5t51 29.5t67 24.5q21 7 42 15t37.5 16.5t27.5 17t13 16.5q-1 20 -6 38t-15 31.5t-26 21t-39 7.5q-33 0 -56.5 -9.5t-39 -25.5
t-22.5 -37t-7 -45q0 -4 -4 -4.5t-5 4.5q-3 33 -6 56t-10 43q12 3 30.5 9t39.5 12t42.5 11t39.5 5q22 0 49 -7.5t50 -24.5t39 -45t16 -68v-287q0 -18 8.5 -24.5t25.5 -8.5q5 -1 4.5 -5t-4.5 -4h-84zM322 333q-15 -16 -46 -29.5t-63 -27.5q-49 -21 -74.5 -53.5t-25.5 -89.5
q0 -52 21 -86t62 -34q27 0 50.5 12.5t40 31.5t26 40t9.5 39v197z" />
    <glyph glyph-name="b" unicode="b" horiz-adv-x="487" 
d="M39 0q-4 0 -4.5 4t4.5 5q17 2 25.5 8.5t8.5 24.5v518q0 21 -9 34.5t-33 13.5q-5 0 -6 2.5t7 4.5l111 24v-224q41 59 120 59q39 0 72.5 -14t58 -43t39 -75t14.5 -109t-14.5 -109t-39 -75t-58 -43t-72.5 -14q-79 0 -120 59v-31q0 -20 -20 -20h-84zM143 84q18 -40 45.5 -58
t62.5 -18q58 0 90.5 51.5t32.5 173.5t-32.5 173.5t-90.5 51.5q-35 0 -62.5 -18t-45.5 -58v-298z" />
    <glyph glyph-name="c" unicode="c" horiz-adv-x="424" 
d="M113 233q0 -61 10.5 -103.5t28.5 -69t42 -38.5t51 -12q33 0 59.5 13t49.5 49q4 6 11 4t1 -12q-7 -11 -17.5 -24t-26 -23.5t-37 -17.5t-51.5 -7q-87 0 -140.5 59.5t-53.5 181.5q0 121 53.5 181t140.5 60q22 0 41 -4t37 -10t35.5 -12.5t36.5 -10.5q-7 -20 -10 -43t-6 -56
q-1 -5 -5 -4.5t-4 4.5q0 24 -7 45.5t-22.5 38t-39.5 26.5t-57 10q-27 0 -49 -12.5t-38 -39.5t-24.5 -69.5t-8.5 -103.5z" />
    <glyph glyph-name="d" unicode="d" horiz-adv-x="483" 
d="M364 0q-20 0 -20 20v31q-41 -59 -120 -59q-39 0 -72.5 14t-58 43t-39 75t-14.5 109t14.5 109t39 75t58 43t72.5 14q79 0 120 -59v145q0 21 -9 34.5t-33 13.5q-5 0 -6 2.5t7 4.5l111 24v-597q0 -18 8.5 -24.5t25.5 -8.5q5 -1 4.5 -5t-4.5 -4h-84zM344 382q-18 40 -45.5 58
t-62.5 18q-58 0 -90.5 -51.5t-32.5 -173.5t32.5 -173.5t90.5 -51.5q35 0 62.5 18t45.5 58v298z" />
    <glyph glyph-name="e" unicode="e" horiz-adv-x="432" 
d="M118 156q12 -79 47.5 -112.5t79.5 -33.5q33 0 59.5 13t49.5 49q4 6 11 4t1 -12q-7 -11 -17.5 -24t-26 -23.5t-37 -17.5t-51.5 -7q-87 0 -140.5 59.5t-53.5 181.5q0 121 53.5 181t140.5 60q44 0 74.5 -11.5t49 -31t26.5 -44t8 -49.5q0 -50 -22 -85.5t-55 -58.5t-72.5 -34
t-74.5 -11q-14 0 -26.5 2t-23.5 5zM115 180q16 -14 46 -14q25 0 54.5 10.5t55 32.5t42.5 56t17 81q0 18 -3.5 37.5t-14 36t-29.5 27.5t-50 11q-27 0 -49 -12.5t-38 -39.5t-24.5 -69.5t-8.5 -103.5v-27.5t2 -25.5z" />
    <glyph glyph-name="f" unicode="f" horiz-adv-x="322" 
d="M43 0q-4 0 -4.5 4t4.5 5q17 2 25.5 8.5t8.5 24.5v409h-45q-7 0 -7 7v1q0 7 7 7h45v19q0 64 31.5 97.5t85.5 33.5q18 0 34 -5t31 -11t28 -12t25 -9q-7 -20 -10 -43t-6 -56q-1 -5 -5 -4.5t-4 4.5q0 24 -5 45t-15.5 37t-27 25.5t-39.5 9.5q-20 0 -30.5 -11t-15.5 -28.5
t-6 -39.5t-1 -44v-8h68q7 0 7 -8q0 -7 -7 -7h-68v-409q0 -18 8.5 -24.5t25.5 -8.5q5 -1 4.5 -5t-4.5 -4h-138v0z" />
    <glyph glyph-name="g" unicode="g" horiz-adv-x="484" 
d="M447 466q8 0 7 -4.5t-6 -4.5q-13 0 -20 -6t-10 -15t-3.5 -20t-0.5 -21v-363q0 -62 -17.5 -107.5t-46 -74.5t-66.5 -43t-78 -14q-36 0 -61 9t-41 21.5t-24 25t-11 19.5q-2 4 2 6t6 -2q4 -7 13 -17.5t24 -20t36 -16.5t50 -7q72 0 108 51t36 145v44q-41 -59 -120 -59
q-39 0 -72.5 14t-58 43t-39 75t-14.5 109t14.5 109t39 75t58 43t72.5 14q79 0 120 -59v39q0 12 12 12h91zM344 382q-18 40 -45.5 58t-62.5 18q-58 0 -90.5 -51.5t-32.5 -173.5t32.5 -173.5t90.5 -51.5q35 0 62.5 18t45.5 58v298z" />
    <glyph glyph-name="h" unicode="h" horiz-adv-x="471" 
d="M39 0q-4 0 -4.5 4t4.5 5q17 2 25.5 8.5t8.5 24.5v518q0 21 -9 34.5t-33 13.5q-5 0 -6 2.5t7 4.5l111 24v-216q17 21 43.5 36t66.5 15q73 0 111 -38.5t38 -101.5v-292q0 -18 8.5 -24.5t25.5 -8.5q5 -1 4.5 -5t-4.5 -4h-138q-4 0 -4.5 4t4.5 5q17 2 25.5 8.5t8.5 24.5v295
q0 55 -23.5 86.5t-69.5 31.5q-23 0 -41 -9t-30 -21.5t-18.5 -25.5t-6.5 -22v-335q0 -18 8.5 -24.5t25.5 -8.5q5 -1 4.5 -5t-4.5 -4h-138v0z" />
    <glyph glyph-name="i" unicode="i" 
d="M64 560q0 18 11 29.5t30 11.5q18 0 29 -11.5t11 -29.5t-11 -29.5t-29 -11.5q-19 0 -30 11.5t-11 29.5zM39 0q-4 0 -4.5 4t4.5 5q17 2 25.5 8.5t8.5 24.5v353q0 21 -9 34.5t-33 13.5q-5 0 -6 2.5t7 4.5l111 24v-432q0 -18 8.5 -24.5t25.5 -8.5q5 -1 4.5 -5t-4.5 -4h-138z
" />
    <glyph glyph-name="j" unicode="j" horiz-adv-x="207" 
d="M61 560q0 18 11 29.5t30 11.5q18 0 29 -11.5t11 -29.5t-11 -29.5t-29 -11.5q-19 0 -30 11.5t-11 29.5zM139 32q0 -62 -17.5 -107.5t-46 -74.5t-66.5 -43t-78 -14q-36 0 -61 9t-41 21.5t-24 25t-11 19.5q-2 4 2 6t6 -2q4 -7 13 -17.5t24 -20t36 -16.5t50 -7q72 0 108 51
t36 145v388q0 21 -9 34.5t-33 13.5q-5 0 -6 2.5t7 4.5l111 24v-442z" />
    <glyph glyph-name="k" unicode="k" horiz-adv-x="452" 
d="M39 0q-4 0 -4.5 4t4.5 5q17 2 25.5 8.5t8.5 24.5v518q0 21 -9 34.5t-33 13.5q-5 0 -6 2.5t7 4.5l111 24v-389l131 148q13 15 18 26t3.5 18t-7.5 10.5t-13 4.5q-4 1 -3.5 5t4.5 4h123q4 0 4.5 -4t-4.5 -5q-19 -2 -47.5 -15.5t-60.5 -49.5l-46 -52l141 -288q8 -16 21 -28.5
t30 -14.5q5 -1 4.5 -5t-4.5 -4h-146q-4 0 -4 4t4 5q16 2 19 14t-5 29l-112 229l-50 -57v-182q0 -18 8.5 -24.5t25.5 -8.5q5 -1 4.5 -5t-4.5 -4h-138v0z" />
    <glyph glyph-name="l" unicode="l" 
d="M39 0q-4 0 -4.5 4t4.5 5q17 2 25.5 8.5t8.5 24.5v518q0 21 -9 34.5t-33 13.5q-5 0 -6 2.5t7 4.5l111 24v-597q0 -18 8.5 -24.5t25.5 -8.5q5 -1 4.5 -5t-4.5 -4h-138v0z" />
    <glyph glyph-name="m" unicode="m" horiz-adv-x="725" 
d="M39 0q-4 0 -4.5 4t4.5 5q17 2 25.5 8.5t8.5 24.5v353q0 21 -9 34.5t-33 13.5q-5 0 -6 2.5t7 4.5l111 24v-51q17 21 43.5 36t66.5 15q49 0 82.5 -18t50.5 -50q15 27 44 47.5t77 20.5q73 0 111 -38.5t38 -101.5v-292q0 -18 8.5 -24.5t25.5 -8.5q5 -1 4.5 -5t-4.5 -4h-138
q-4 0 -4.5 4t4.5 5q17 2 25.5 8.5t8.5 24.5v295q0 55 -23.5 86.5t-69.5 31.5q-23 0 -41 -9t-30 -21.5t-18.5 -25.5t-6.5 -22q5 -22 5 -43v-292q0 -18 8.5 -24.5t25.5 -8.5q5 -1 4.5 -5t-4.5 -4h-138q-4 0 -4.5 4t4.5 5q17 2 25.5 8.5t8.5 24.5v295q0 55 -23.5 86.5
t-69.5 31.5q-23 0 -41 -9t-30 -21.5t-18.5 -25.5t-6.5 -22v-335q0 -18 8.5 -24.5t25.5 -8.5q5 -1 4.5 -5t-4.5 -4h-138v0z" />
    <glyph glyph-name="n" unicode="n" horiz-adv-x="471" 
d="M39 0q-4 0 -4.5 4t4.5 5q17 2 25.5 8.5t8.5 24.5v353q0 21 -9 34.5t-33 13.5q-5 0 -6 2.5t7 4.5l111 24v-51q17 21 43.5 36t66.5 15q73 0 111 -38.5t38 -101.5v-292q0 -18 8.5 -24.5t25.5 -8.5q5 -1 4.5 -5t-4.5 -4h-138q-4 0 -4.5 4t4.5 5q17 2 25.5 8.5t8.5 24.5v295
q0 55 -23.5 86.5t-69.5 31.5q-23 0 -41 -9t-30 -21.5t-18.5 -25.5t-6.5 -22v-335q0 -18 8.5 -24.5t25.5 -8.5q5 -1 4.5 -5t-4.5 -4h-138v0z" />
    <glyph glyph-name="o" unicode="o" horiz-adv-x="466" 
d="M40 233q0 121 53.5 181t140.5 60q43 0 78 -15t60.5 -45t39.5 -75t14 -106t-14 -106t-39.5 -75t-60.5 -45t-78 -15q-87 0 -140.5 59.5t-53.5 181.5zM113 233q0 -61 8.5 -103.5t24.5 -69.5t38 -39.5t49 -12.5t49 12.5t38 39.5t24.5 69.5t8.5 103.5t-8.5 103.5t-24.5 69.5
t-38 39.5t-49 12.5t-49 -12.5t-38 -39.5t-24.5 -69.5t-8.5 -103.5z" />
    <glyph glyph-name="p" unicode="p" horiz-adv-x="487" 
d="M39 -165q-4 0 -4.5 4t4.5 5q17 2 25.5 8.5t8.5 24.5v518q0 21 -9 34.5t-33 13.5q-5 0 -6 2.5t7 4.5l111 24v-59q41 59 120 59q39 0 72.5 -14t58 -43t39 -75t14.5 -109t-14.5 -109t-39 -75t-58 -43t-72.5 -14q-79 0 -120 59v-174q0 -18 8.5 -24.5t25.5 -8.5q5 -1 4.5 -5
t-4.5 -4h-138zM143 84q18 -40 45.5 -58t62.5 -18q58 0 90.5 51.5t32.5 173.5t-32.5 173.5t-90.5 51.5q-35 0 -62.5 -18t-45.5 -58v-298z" />
    <glyph glyph-name="q" unicode="q" horiz-adv-x="484" 
d="M447 466q8 0 7 -4.5t-6 -4.5q-13 0 -20 -6t-10 -15t-3.5 -20t-0.5 -21v-518q0 -18 8.5 -24.5t25.5 -8.5q5 -1 4.5 -5t-4.5 -4h-138q-4 0 -4.5 4t4.5 5q17 2 25.5 8.5t8.5 24.5v174q-41 -59 -120 -59q-39 0 -72.5 14t-58 43t-39 75t-14.5 109t14.5 109t39 75t58 43
t72.5 14q79 0 120 -59v39q0 12 12 12h91zM344 382q-18 40 -45.5 58t-62.5 18q-58 0 -90.5 -51.5t-32.5 -173.5t32.5 -173.5t90.5 -51.5q35 0 62.5 18t45.5 58v298z" />
    <glyph glyph-name="r" unicode="r" horiz-adv-x="366" 
d="M39 0q-4 0 -4.5 4t4.5 5q17 2 25.5 8.5t8.5 24.5v353q0 21 -9 34.5t-33 13.5q-5 0 -6 2.5t7 4.5l111 24v-50q14 21 36.5 35.5t48.5 14.5q18 0 34 -5t31 -11t28 -12t25 -9q-7 -20 -10 -43t-6 -56q-1 -5 -5 -4.5t-4 4.5q0 24 -5.5 45t-17 37t-28.5 25.5t-40 9.5
q-21 0 -37.5 -9t-27.5 -21.5t-16.5 -25.5t-5.5 -22v-335q0 -18 8.5 -24.5t25.5 -8.5q5 -1 4.5 -5t-4.5 -4h-138v0z" />
    <glyph glyph-name="s" unicode="s" horiz-adv-x="390" 
d="M40 352q0 30 11 53t30.5 38t45.5 23t55 8q24 0 43 -4.5t36 -11.5t33 -14t35 -12q-11 -25 -14 -51t-5 -66q0 -6 -7.5 -5.5t-7.5 5.5q0 25 -5 50.5t-18 46t-34 33t-53 12.5q-37 0 -60 -23t-23 -64q0 -32 18.5 -50t46 -30.5t59.5 -22.5t59.5 -26.5t46 -42.5t18.5 -70
q0 -32 -12 -57t-33 -42.5t-48.5 -27t-58.5 -9.5q-27 0 -46.5 6t-34 13.5t-25.5 13.5t-20 6q-11 0 -13.5 -8.5t-2.5 -16.5v-8q0 -5 -7.5 -5t-7.5 5v136q0 8 7 7.5t8 -5.5q3 -29 17.5 -52.5t35 -40t43.5 -25.5t43 -9q18 0 36 5t32.5 16.5t23 29t8.5 42.5q0 33 -19 52.5
t-47 32.5t-61.5 23.5t-61.5 27.5t-47 43.5t-19 70.5z" />
    <glyph glyph-name="t" unicode="t" horiz-adv-x="323" 
d="M145 102q0 -29 4 -47t11.5 -28t17.5 -13.5t21 -3.5q18 0 32 5.5t24 13.5t17 17t12 16q2 4 6 2t2 -6q-3 -7 -11 -18t-22 -21.5t-33 -18.5t-44 -8q-37 0 -58.5 14t-32 35.5t-13.5 48t-3 51.5v310h-43q-7 0 -7 7v1q0 7 7 7h43v24q0 21 -9 34.5t-33 13.5q-5 0 -6 2.5t7 4.5
l111 24v-103h104q7 0 7 -8q0 -7 -7 -7h-104v-349v0z" />
    <glyph glyph-name="u" unicode="u" horiz-adv-x="471" 
d="M332 43q-17 -21 -43.5 -36t-66.5 -15q-73 0 -111 38.5t-38 101.5v263q0 21 -9 34.5t-33 13.5q-5 0 -6 2.5t7 4.5l111 24v-345q0 -55 23.5 -86.5t69.5 -31.5q23 0 41 9t30 21.5t18.5 25.5t6.5 22v306q0 21 -9 34.5t-33 13.5q-5 0 -6 2.5t7 4.5l111 24v-432
q0 -18 8.5 -24.5t25.5 -8.5q5 -1 4.5 -5t-4.5 -4h-87q-17 0 -17 17v26z" />
    <glyph glyph-name="v" unicode="v" horiz-adv-x="461" 
d="M198 0l-123 387q-8 26 -22 46.5t-38 23.5q-5 1 -4.5 5t4.5 4h158q4 0 4.5 -4t-4.5 -5q-20 -2 -27.5 -17.5t0.5 -38.5l107 -336l107 336q8 23 0.5 38.5t-27.5 17.5q-5 1 -4.5 5t4.5 4h113q4 0 4.5 -4t-4.5 -5q-24 -3 -44.5 -23.5t-28.5 -46.5l-123 -387h-52z" />
    <glyph glyph-name="w" unicode="w" horiz-adv-x="653" 
d="M198 0l-123 387q-8 26 -22 46.5t-38 23.5q-5 1 -4.5 5t4.5 4h152q4 0 4.5 -4t-4.5 -5q-20 -2 -24.5 -17.5t3.5 -38.5l107 -336l58 183l-44 139q-8 26 -19 46.5t-30 23.5q-5 1 -4.5 5t4.5 4h233q4 0 4.5 -4.5t-4.5 -4.5q-35 -2 -52.5 -23t-25.5 -47l-15 -48l87 -274
l107 336q8 23 -5 38.5t-33 17.5q-5 1 -4.5 5t4.5 4h124q4 0 4.5 -4t-4.5 -5q-24 -3 -44.5 -23.5t-28.5 -46.5l-123 -387h-52l-70 220l-70 -220h-52zM360 401q12 37 -11 51q-23 -14 -11 -51l11 -35z" />
    <glyph glyph-name="x" unicode="x" horiz-adv-x="486" 
d="M206 222l-86 165q-14 26 -33 46.5t-44 23.5q-5 1 -4.5 5t4.5 4h167q4 0 4.5 -4t-4.5 -5q-20 -2 -24 -17.5t8 -38.5l55 -106l64 106q14 23 11 38.5t-23 17.5q-5 1 -3.5 5t5.5 4h109q4 0 3.5 -4t-5.5 -5q-25 -3 -47 -23.5t-38 -46.5l-66 -110l103 -198q14 -26 39 -46.5
t50 -23.5q5 -1 4.5 -5t-4.5 -4h-179q-4 0 -4.5 4t4.5 5q20 2 24 17.5t-8 38.5l-73 139l-83 -139q-14 -23 -11 -38.5t23 -17.5q5 -1 3.5 -5t-5.5 -4h-113q-4 0 -3.5 4t5.5 5q25 3 49 23.5t40 46.5z" />
    <glyph glyph-name="y" unicode="y" horiz-adv-x="459" 
d="M247 -3q-13 -40 -28 -77t-35.5 -65.5t-48 -45.5t-66.5 -17t-64.5 16.5t-33.5 40.5q-2 5 4 7t10 -5q11 -20 33.5 -31.5t51.5 -11.5q36 0 61.5 18.5t44 46.5t31.5 62t23 65h-34l-123 387q-8 26 -22 46.5t-38 23.5q-5 1 -4.5 5t4.5 4h158q4 0 4.5 -4t-4.5 -5
q-20 -2 -27.5 -17.5t0.5 -38.5l107 -336l107 336q8 23 0.5 38.5t-27.5 17.5q-5 1 -4.5 5t4.5 4h113q4 0 4.5 -4t-4.5 -5q-24 -3 -44.5 -23.5t-28.5 -46.5l-124 -390v0z" />
    <glyph glyph-name="z" unicode="z" horiz-adv-x="415" 
d="M285 424q10 16 7 21.5t-29 5.5h-97q-35 0 -48 -22.5t-20 -74.5q-1 -7 -4.5 -6.5t-4.5 6.5l-10 112h296l-3 -36l-223 -376q-11 -19 -2.5 -29t29.5 -10h86q22 0 36.5 6.5t23.5 21t14.5 36t10.5 51.5q1 7 5 6.5t4 -6.5l6 -130h-310q-19 0 -9 17z" />
    <glyph glyph-name="braceleft" unicode="{" horiz-adv-x="295" 
d="M252 718q3 0 2.5 -3.5t-2.5 -3.5q-16 0 -27.5 -10t-19 -26t-12 -37.5t-6.5 -43.5q-4 -45 -5.5 -84.5t-5 -70.5t-12.5 -52.5t-29 -30.5q20 -9 29 -30.5t12.5 -52.5t5 -70.5t5.5 -84.5q2 -23 6.5 -44t12 -37t19 -26t27.5 -10q2 0 2.5 -3.5t-2.5 -3.5q-27 0 -49.5 14t-39 38
t-26 56.5t-9.5 70.5q0 29 -1.5 58t-5.5 52.5t-12 39.5t-22 20q-12 -3 -24 -3q-10 0 -16.5 3.5t-6.5 12.5t6.5 12.5t16.5 3.5q12 0 24 -3q14 4 22 20t12 39.5t5.5 52.5t1.5 58q0 37 9.5 70t26 57t39 38t49.5 14z" />
    <glyph glyph-name="bar" unicode="|" horiz-adv-x="180" 
d="M70 -50v800h40v-800h-40z" />
    <glyph glyph-name="braceright" unicode="}" horiz-adv-x="295" 
d="M43 718q27 0 49.5 -14t39 -38t26 -57t9.5 -70q0 -29 1.5 -58t5.5 -52.5t12 -39.5t22 -20q12 3 24 3q10 0 16.5 -3.5t6.5 -12.5t-6.5 -12.5t-16.5 -3.5q-12 0 -24 3q-14 -4 -22 -20t-12 -39.5t-5.5 -52.5t-1.5 -58q0 -38 -9.5 -70.5t-26 -56.5t-39 -38t-49.5 -14
q-3 0 -2.5 3.5t2.5 3.5q16 0 27.5 10t19 26t12 37t6.5 44q4 45 5 84.5t5 70.5t13 52.5t29 30.5q-20 9 -29 30.5t-13 52.5t-5 70.5t-5 84.5q-2 22 -6.5 43.5t-12 37.5t-19 26t-27.5 10q-2 0 -2.5 3.5t2.5 3.5z" />
    <glyph glyph-name="asciitilde" unicode="~" horiz-adv-x="422" 
d="M371 403q1 8 6 7.5t5 -7.5q0 -13 -4 -30t-14 -32.5t-26.5 -26t-41.5 -10.5q-29 0 -51.5 11.5t-43 25.5t-42 25.5t-48.5 11.5q-23 0 -39.5 -18t-18.5 -47q0 -7 -6.5 -7t-6.5 8q0 18 6 35t17.5 30.5t27 21.5t34.5 8q27 0 49 -11.5t42.5 -25t43 -24.5t51.5 -11q27 0 41 18.5
t19 47.5z" />
    <glyph glyph-name="exclamdown" unicode="&#xa1;" horiz-adv-x="153" 
d="M113 663q0 -16 -10 -26t-27 -10q-16 0 -26 10t-10 26q0 17 10 27t26 10q17 0 27 -10t10 -27zM110 -6h-70l22 586h26z" />
    <glyph glyph-name="cent" unicode="&#xa2;" horiz-adv-x="392" 
d="M175 591q0 8 8 8q9 0 9 -8v-90q10 2 19.5 3t20.5 1l5 -1h3v87q0 8 8 8q9 0 9 -8v-89q28 -7 48 -20.5t37 -19.5l-8 -88q-1 -8 -8.5 -7t-6.5 8q2 43 -15.5 72t-46.5 39v-381q29 5 43.5 19t22.5 30q4 7 9 3.5t2 -10.5q-8 -17 -26.5 -35t-50.5 -26v-99q0 -17 -8 -17h-1
q-8 0 -8 17v96q-5 -1 -10 -1h-10q-15 0 -28 3v-98q0 -17 -8 -17h-1q-8 0 -8 17v102q-54 17 -89.5 71.5t-35.5 134.5q0 79 34 131.5t91 70.5v94zM240 490q-4 1 -12 1q-20 0 -36 -9v-371q15 -8 36 -8h12v387zM123 295q0 -67 14 -109.5t38 -62.5v347q-23 -22 -37.5 -65.5
t-14.5 -109.5z" />
    <glyph glyph-name="sterling" unicode="&#xa3;" horiz-adv-x="480" 
d="M112 484q0 37 12 65.5t32.5 48.5t48 30.5t58.5 10.5q44 0 74 -10t48 -10q12 0 19.5 7.5t10.5 27.5q1 7 6.5 8t3.5 -13q-2 -15 -4 -35t-4.5 -43t-5 -47t-4.5 -46q-1 -8 -6 -7.5t-5 7.5q1 20 -1 45.5t-13 48t-34.5 37.5t-64.5 15q-51 0 -77.5 -29t-26.5 -77q0 -23 3.5 -42
t9 -36.5t12 -34t11.5 -34.5h121q8 0 8 -8q0 -9 -8 -9h-117q3 -13 5 -27t2 -30q0 -15 -1.5 -28.5t-3.5 -26.5h115q8 0 8 -8q0 -9 -8 -9h-119q-8 -32 -22 -58.5t-30 -47.5t-32.5 -36.5t-30.5 -25.5h202q28 0 46 4t30.5 14t22 25t20.5 38q4 7 11.5 7.5t3.5 -9.5l-52 -136h-342
v38q17 8 36.5 23.5t36.5 39t29.5 54.5t15.5 70h-113q-9 0 -9 8v1q0 8 9 8h114q0 31 -6 57t-16 55h-92q-9 0 -9 8v1q0 8 9 8h86q-9 26 -16 53.5t-7 59.5z" />
    <glyph glyph-name="yen" unicode="&#xa5;" horiz-adv-x="569" 
d="M221 0q-4 0 -4.5 4t4.5 5q17 2 25.5 8.5t8.5 24.5v139h-117q-9 0 -9 8v1q0 8 9 8h117v71l-20 41h-97q-9 0 -9 8v1q0 8 9 8h88l-112 225q-14 26 -39 46.5t-50 23.5q-5 1 -4.5 5t4.5 4h179q4 0 4.5 -4t-4.5 -5q-20 -2 -24 -17.5t8 -38.5l119 -239h9l126 239
q13 23 10.5 38.5t-22.5 17.5q-5 1 -3.5 5t5.5 4h113q4 0 3.5 -4t-5.5 -5q-25 -3 -50 -23.5t-39 -46.5l-120 -225h91q8 0 8 -8q0 -9 -8 -9h-100v-112h100q8 0 8 -8q0 -9 -8 -9h-100v-139q0 -18 8.5 -24.5t25.5 -8.5q5 -1 4.5 -5t-4.5 -4h-138v0z" />
    <glyph glyph-name="dieresis" unicode="&#xa8;" horiz-adv-x="239" 
d="M40 667q0 14 9.5 23.5t24.5 9.5q14 0 23.5 -9.5t9.5 -23.5q0 -15 -9.5 -24.5t-23.5 -9.5q-15 0 -24.5 9.5t-9.5 24.5zM132 667q0 14 9.5 23.5t24.5 9.5q14 0 23.5 -9.5t9.5 -23.5q0 -15 -9.5 -24.5t-23.5 -9.5q-15 0 -24.5 9.5t-9.5 24.5z" />
    <glyph glyph-name="copyright" unicode="&#xa9;" horiz-adv-x="744" 
d="M50 350q0 90 23 153.5t65.5 104.5t102 60t131.5 19t131.5 -19t102 -60t65.5 -104.5t23 -153.5t-23 -153.5t-65.5 -104.5t-102 -60t-131.5 -19t-131.5 19t-102 60t-65.5 104.5t-23 153.5zM81 350q0 -84 20.5 -144t58.5 -98.5t91.5 -57t120.5 -18.5t120.5 18.5t91.5 57
t58.5 98.5t20.5 144t-20.5 144t-58.5 98.5t-91.5 57t-120.5 18.5t-120.5 -18.5t-91.5 -57t-58.5 -98.5t-20.5 -144zM238 352q0 -113 40.5 -168t106.5 -55q44 0 72 18.5t44 40.5q3 5 6.5 2.5t1.5 -7.5q-15 -24 -45.5 -44t-78.5 -20q-44 0 -79.5 16.5t-61 47t-39.5 73.5
t-14 96t14 96.5t39.5 74t61 47.5t79.5 17q41 0 69 -17v1q9 -5 16 -7.5t13 -2.5q10 0 15 6.5t9 23.5q1 5 5 4t4 -4l-14 -131q-1 -5 -5.5 -4.5t-3.5 5.5q3 23 -2 44t-18 37t-35 25.5t-53 9.5q-66 0 -106.5 -55t-40.5 -170z" />
    <glyph glyph-name="registered" unicode="&#xae;" horiz-adv-x="744" 
d="M50 350q0 90 23 153.5t65.5 104.5t102 60t131.5 19t131.5 -19t102 -60t65.5 -104.5t23 -153.5t-23 -153.5t-65.5 -104.5t-102 -60t-131.5 -19t-131.5 19t-102 60t-65.5 104.5t-23 153.5zM81 350q0 -84 20.5 -144t58.5 -98.5t91.5 -57t120.5 -18.5t120.5 18.5t91.5 57
t58.5 98.5t20.5 144t-20.5 144t-58.5 98.5t-91.5 57t-120.5 18.5t-120.5 -18.5t-91.5 -57t-58.5 -98.5t-20.5 -144zM238 579q-3 0 -3 3t3 3h120q48 0 78 -8.5t46.5 -23.5t22.5 -35t6 -42q0 -18 -3.5 -35t-13.5 -31.5t-27.5 -26t-44.5 -17.5l89 -214q5 -11 13.5 -19t20.5 -10
q3 0 2.5 -3t-2.5 -3h-98q-2 0 -2 3t2 3q23 3 12 29l-87 208h-65v-215q0 -12 6 -16t17 -6q3 0 2.5 -3t-2.5 -3h-92q-3 0 -3 3t3 3q11 2 16.5 6t5.5 16v412q0 12 -5.5 16t-16.5 6zM367 370q54 0 74.5 28.5t20.5 81.5q0 49 -21.5 72t-82.5 23h-28q-11 0 -17 -3t-6 -15v-187h60z
" />
    <glyph glyph-name="macron" unicode="&#xaf;" horiz-adv-x="320" 
d="M50 700h220v-23h-220v23z" />
    <glyph glyph-name="degree" unicode="&#xb0;" horiz-adv-x="256" 
d="M40 558q0 24 7.5 39.5t20 24.5t28.5 13t33 4q16 0 31.5 -4t28 -13t20 -24.5t7.5 -39.5t-7.5 -40t-20 -26t-28 -14t-31.5 -4q-17 0 -33 4t-28.5 14t-20 26t-7.5 40zM79 558q0 -32 14 -47.5t36 -15.5q20 0 34 15.5t14 47.5t-14 46t-34 14q-22 0 -36 -14t-14 -46z" />
    <glyph glyph-name="plusminus" unicode="&#xb1;" horiz-adv-x="435" 
d="M50 380h156v156h23v-156h156v-23h-156v-156h-23v156h-156v23zM50 149h335v-23h-335v23z" />
    <glyph glyph-name="acute" unicode="&#xb4;" horiz-adv-x="218" 
d="M174 701l4 -31l-136 -51l-2 12z" />
    <glyph glyph-name="cedilla" unicode="&#xb8;" horiz-adv-x="179" 
d="M113 6l17 -6l-22 -58q14 -6 25 -20.5t11 -33.5q0 -34 -19.5 -51.5t-45.5 -17.5q-20 0 -35.5 10.5t-17.5 30.5l21 7q2 -14 8.5 -24t24.5 -10q17 0 27.5 13.5t10.5 39.5q0 20 -9 34t-28 19z" />
    <glyph glyph-name="questiondown" unicode="&#xbf;" horiz-adv-x="423" 
d="M288 671q0 -16 -10 -26t-27 -10q-16 0 -26 10t-10 26q0 17 10 27t26 10q17 0 27 -10t10 -27zM40 142q0 44 15 74.5t37 56t48 51t48 60.5t37 84t15 121h22q6 -70 -2.5 -121.5t-25.5 -90.5t-37.5 -69.5t-39.5 -58.5t-31.5 -57t-12.5 -65q0 -24 7 -45t21.5 -37.5t35.5 -26
t49 -9.5q41 0 63.5 24.5t32.5 61t10.5 79.5t-0.5 79q0 7 5 7.5t6 -7.5q2 -22 6.5 -51.5t10.5 -58.5t12 -54t11 -39q-26 -6 -43.5 -15.5t-34 -18.5t-37.5 -15.5t-55 -6.5q-173 0 -173 148z" />
    <glyph glyph-name="Agrave" unicode="&#xc0;" horiz-adv-x="678" 
d="M377 720l-136 51l4 31l134 -70zM260 691q-5 1 -4.5 5t4.5 4h108l212 -621q9 -26 29 -46.5t44 -23.5q5 -1 4.5 -5t-4.5 -4h-171q-4 0 -4.5 4t4.5 5q20 2 27.5 17.5t-0.5 38.5l-52 151h-294l-52 -151q-8 -23 -0.5 -38.5t27.5 -17.5q5 -1 4.5 -5t-4.5 -4h-113q-4 0 -4.5 4
t4.5 5q24 3 44 23.5t29 46.5l202 592q-7 11 -16.5 14.5t-23.5 5.5zM452 231l-142 416l-142 -416h284z" />
    <glyph glyph-name="Aacute" unicode="&#xc1;" horiz-adv-x="678" 
d="M404 800l4 -31l-136 -51l-2 12zM260 691q-5 1 -4.5 5t4.5 4h108l212 -621q9 -26 29 -46.5t44 -23.5q5 -1 4.5 -5t-4.5 -4h-171q-4 0 -4.5 4t4.5 5q20 2 27.5 17.5t-0.5 38.5l-52 151h-294l-52 -151q-8 -23 -0.5 -38.5t27.5 -17.5q5 -1 4.5 -5t-4.5 -4h-113q-4 0 -4.5 4
t4.5 5q24 3 44 23.5t29 46.5l202 592q-7 11 -16.5 14.5t-23.5 5.5zM452 231l-142 416l-142 -416h284z" />
    <glyph glyph-name="Acircumflex" unicode="&#xc2;" horiz-adv-x="678" 
d="M420 732l-26 -10l-66 89l-65 -89l-27 10l86 94h12zM260 691q-5 1 -4.5 5t4.5 4h108l212 -621q9 -26 29 -46.5t44 -23.5q5 -1 4.5 -5t-4.5 -4h-171q-4 0 -4.5 4t4.5 5q20 2 27.5 17.5t-0.5 38.5l-52 151h-294l-52 -151q-8 -23 -0.5 -38.5t27.5 -17.5q5 -1 4.5 -5t-4.5 -4
h-113q-4 0 -4.5 4t4.5 5q24 3 44 23.5t29 46.5l202 592q-7 11 -16.5 14.5t-23.5 5.5zM452 231l-142 416l-142 -416h284z" />
    <glyph glyph-name="Atilde" unicode="&#xc3;" horiz-adv-x="678" 
d="M431 786q1 5 4 5t3 -5q0 -8 -2.5 -19t-9 -21t-17.5 -17t-27 -7q-19 0 -33.5 7.5t-28 16.5t-27 16.5t-31.5 7.5q-15 0 -25.5 -11.5t-12.5 -30.5q0 -5 -4 -5t-4 5q0 24 15.5 43t39.5 19q18 0 32 -7.5t27.5 -16t28 -16t33.5 -7.5q17 0 26.5 12.5t12.5 30.5zM260 691
q-5 1 -4.5 5t4.5 4h108l212 -621q9 -26 29 -46.5t44 -23.5q5 -1 4.5 -5t-4.5 -4h-171q-4 0 -4.5 4t4.5 5q20 2 27.5 17.5t-0.5 38.5l-52 151h-294l-52 -151q-8 -23 -0.5 -38.5t27.5 -17.5q5 -1 4.5 -5t-4.5 -4h-113q-4 0 -4.5 4t4.5 5q24 3 44 23.5t29 46.5l202 592
q-7 11 -16.5 14.5t-23.5 5.5zM452 231l-142 416l-142 -416h284z" />
    <glyph glyph-name="Adieresis" unicode="&#xc4;" horiz-adv-x="678" 
d="M248 763q0 14 9.5 23.5t24.5 9.5q14 0 23.5 -9.5t9.5 -23.5q0 -15 -9.5 -24.5t-23.5 -9.5q-15 0 -24.5 9.5t-9.5 24.5zM340 763q0 14 9.5 23.5t24.5 9.5q14 0 23.5 -9.5t9.5 -23.5q0 -15 -9.5 -24.5t-23.5 -9.5q-15 0 -24.5 9.5t-9.5 24.5zM260 691q-5 1 -4.5 5t4.5 4
h108l212 -621q9 -26 29 -46.5t44 -23.5q5 -1 4.5 -5t-4.5 -4h-171q-4 0 -4.5 4t4.5 5q20 2 27.5 17.5t-0.5 38.5l-52 151h-294l-52 -151q-8 -23 -0.5 -38.5t27.5 -17.5q5 -1 4.5 -5t-4.5 -4h-113q-4 0 -4.5 4t4.5 5q24 3 44 23.5t29 46.5l202 592q-7 11 -16.5 14.5
t-23.5 5.5zM452 231l-142 416l-142 -416h284z" />
    <glyph glyph-name="Aring" unicode="&#xc5;" horiz-adv-x="678" 
d="M261 784q0 31 20.5 42t46.5 11q12 0 23.5 -2.5t20.5 -8.5t15 -16.5t6 -25.5q0 -17 -6 -27.5t-15 -17t-20.5 -9t-23.5 -2.5q-26 0 -46.5 11.5t-20.5 44.5zM291 784q0 -20 10 -30.5t27 -10.5q15 0 25 10.5t10 30.5t-10 29t-25 9q-17 0 -27 -9t-10 -29zM260 691q-5 1 -4.5 5
t4.5 4h108l212 -621q9 -26 29 -46.5t44 -23.5q5 -1 4.5 -5t-4.5 -4h-171q-4 0 -4.5 4t4.5 5q20 2 27.5 17.5t-0.5 38.5l-52 151h-294l-52 -151q-8 -23 -0.5 -38.5t27.5 -17.5q5 -1 4.5 -5t-4.5 -4h-113q-4 0 -4.5 4t4.5 5q24 3 44 23.5t29 46.5l202 592q-7 11 -16.5 14.5
t-23.5 5.5zM452 231l-142 416l-142 -416h284z" />
    <glyph glyph-name="AE" unicode="&#xc6;" horiz-adv-x="797" 
d="M723 700l13 -112q1 -6 -3.5 -6.5t-5.5 6.5q-5 30 -12 49t-17.5 29.5t-24.5 14.5t-31 4h-166q-17 0 -25.5 -4.5t-8.5 -22.5v-255h103q19 0 34 2t25.5 10t17 24t8.5 44q1 7 5 6.5t4 -6.5v-175q0 -6 -4 -6.5t-5 6.5q-2 28 -8.5 44t-17 24t-25.5 10t-34 2h-103v-346
q0 -18 8.5 -22.5t25.5 -4.5h166q45 0 70.5 22t34.5 82q1 7 5.5 6.5t3.5 -6.5l-14 -119h-404q-4 0 -4.5 4t4.5 5q17 2 25.5 8.5t8.5 24.5v174h-209l-52 -151q-8 -23 -0.5 -38.5t27.5 -17.5q5 -1 4.5 -5t-4.5 -4h-113q-4 0 -4.5 4t4.5 5q24 3 44 23.5t29 46.5l212 621h413z
M372 231v427q0 17 -8.5 22t-40.5 5l-155 -454h204z" />
    <glyph glyph-name="Ccedilla" unicode="&#xc7;" horiz-adv-x="588" 
d="M123 350q0 -86 16 -150.5t45 -107t70.5 -63.5t91.5 -21q33 0 60.5 8t49.5 20.5t39 29t29 33.5q5 6 10 2.5t1 -9.5q-11 -18 -27.5 -35t-39 -31.5t-51 -23.5t-62.5 -10l-20 -53q14 -6 25 -20.5t11 -33.5q0 -34 -19.5 -51.5t-45.5 -17.5q-20 0 -35.5 10.5t-17.5 30.5l21 7
q2 -14 8.5 -24t24.5 -10q17 0 27.5 13.5t10.5 39.5q0 20 -9 34t-28 19l27 56q-65 2 -117.5 29t-89.5 73.5t-57.5 111.5t-20.5 144q0 81 21 147t60 113t93.5 72.5t121.5 25.5q33 0 60 -7t47 -19q13 -7 23.5 -11t19.5 -4q15 0 23 10.5t13 36.5q2 8 9 6t6 -7l-21 -199
q-1 -8 -8.5 -7t-6.5 8q4 36 -3 68t-27.5 56.5t-53.5 38.5t-81 14q-50 0 -91.5 -21t-70.5 -63.5t-45 -107t-16 -150.5z" />
    <glyph glyph-name="Egrave" unicode="&#xc8;" horiz-adv-x="504" 
d="M307 725l-136 51l4 31l134 -70zM45 691q-5 1 -4.5 5t4.5 4h385l13 -112q1 -6 -3.5 -6.5t-5.5 6.5q-5 30 -12 49t-17.5 29.5t-24.5 14.5t-31 4h-166q-17 0 -25.5 -4.5t-8.5 -22.5v-255h103q19 0 34 2t25.5 10t17 24t8.5 44q1 7 5 6.5t4 -6.5v-175q0 -6 -4 -6.5t-5 6.5
q-2 28 -8.5 44t-17 24t-25.5 10t-34 2h-103v-346q0 -18 8.5 -22.5t25.5 -4.5h166q45 0 70.5 22t34.5 82q1 7 5.5 6.5t3.5 -6.5l-14 -119h-404q-4 0 -4.5 4t4.5 5q17 2 25.5 8.5t8.5 24.5v616q0 18 -8.5 24.5t-25.5 8.5z" />
    <glyph glyph-name="Eacute" unicode="&#xc9;" horiz-adv-x="504" 
d="M334 805l4 -31l-136 -51l-2 12zM45 691q-5 1 -4.5 5t4.5 4h385l13 -112q1 -6 -3.5 -6.5t-5.5 6.5q-5 30 -12 49t-17.5 29.5t-24.5 14.5t-31 4h-166q-17 0 -25.5 -4.5t-8.5 -22.5v-255h103q19 0 34 2t25.5 10t17 24t8.5 44q1 7 5 6.5t4 -6.5v-175q0 -6 -4 -6.5t-5 6.5
q-2 28 -8.5 44t-17 24t-25.5 10t-34 2h-103v-346q0 -18 8.5 -22.5t25.5 -4.5h166q45 0 70.5 22t34.5 82q1 7 5.5 6.5t3.5 -6.5l-14 -119h-404q-4 0 -4.5 4t4.5 5q17 2 25.5 8.5t8.5 24.5v616q0 18 -8.5 24.5t-25.5 8.5z" />
    <glyph glyph-name="Ecircumflex" unicode="&#xca;" horiz-adv-x="504" 
d="M350 737l-26 -10l-66 89l-65 -89l-27 10l86 94h12zM45 691q-5 1 -4.5 5t4.5 4h385l13 -112q1 -6 -3.5 -6.5t-5.5 6.5q-5 30 -12 49t-17.5 29.5t-24.5 14.5t-31 4h-166q-17 0 -25.5 -4.5t-8.5 -22.5v-255h103q19 0 34 2t25.5 10t17 24t8.5 44q1 7 5 6.5t4 -6.5v-175
q0 -6 -4 -6.5t-5 6.5q-2 28 -8.5 44t-17 24t-25.5 10t-34 2h-103v-346q0 -18 8.5 -22.5t25.5 -4.5h166q45 0 70.5 22t34.5 82q1 7 5.5 6.5t3.5 -6.5l-14 -119h-404q-4 0 -4.5 4t4.5 5q17 2 25.5 8.5t8.5 24.5v616q0 18 -8.5 24.5t-25.5 8.5z" />
    <glyph glyph-name="Edieresis" unicode="&#xcb;" horiz-adv-x="504" 
d="M178 768q0 14 9.5 23.5t24.5 9.5q14 0 23.5 -9.5t9.5 -23.5q0 -15 -9.5 -24.5t-23.5 -9.5q-15 0 -24.5 9.5t-9.5 24.5zM270 768q0 14 9.5 23.5t24.5 9.5q14 0 23.5 -9.5t9.5 -23.5q0 -15 -9.5 -24.5t-23.5 -9.5q-15 0 -24.5 9.5t-9.5 24.5zM45 691q-5 1 -4.5 5t4.5 4h385
l13 -112q1 -6 -3.5 -6.5t-5.5 6.5q-5 30 -12 49t-17.5 29.5t-24.5 14.5t-31 4h-166q-17 0 -25.5 -4.5t-8.5 -22.5v-255h103q19 0 34 2t25.5 10t17 24t8.5 44q1 7 5 6.5t4 -6.5v-175q0 -6 -4 -6.5t-5 6.5q-2 28 -8.5 44t-17 24t-25.5 10t-34 2h-103v-346q0 -18 8.5 -22.5
t25.5 -4.5h166q45 0 70.5 22t34.5 82q1 7 5.5 6.5t3.5 -6.5l-14 -119h-404q-4 0 -4.5 4t4.5 5q17 2 25.5 8.5t8.5 24.5v616q0 18 -8.5 24.5t-25.5 8.5z" />
    <glyph glyph-name="Igrave" unicode="&#xcc;" horiz-adv-x="228" 
d="M163 720l-136 51l4 31l134 -70zM45 691q-5 1 -4.5 5t4.5 4h138q4 0 4.5 -4t-4.5 -5q-17 -2 -25.5 -8.5t-8.5 -24.5v-616q0 -18 8.5 -24.5t25.5 -8.5q5 -1 4.5 -5t-4.5 -4h-138q-4 0 -4.5 4t4.5 5q17 2 25.5 8.5t8.5 24.5v616q0 18 -8.5 24.5t-25.5 8.5z" />
    <glyph glyph-name="Iacute" unicode="&#xcd;" horiz-adv-x="228" 
d="M190 800l4 -31l-136 -51l-2 12zM45 691q-5 1 -4.5 5t4.5 4h138q4 0 4.5 -4t-4.5 -5q-17 -2 -25.5 -8.5t-8.5 -24.5v-616q0 -18 8.5 -24.5t25.5 -8.5q5 -1 4.5 -5t-4.5 -4h-138q-4 0 -4.5 4t4.5 5q17 2 25.5 8.5t8.5 24.5v616q0 18 -8.5 24.5t-25.5 8.5z" />
    <glyph glyph-name="Icircumflex" unicode="&#xce;" horiz-adv-x="228" 
d="M206 732l-26 -10l-66 89l-65 -89l-27 10l86 94h12zM45 691q-5 1 -4.5 5t4.5 4h138q4 0 4.5 -4t-4.5 -5q-17 -2 -25.5 -8.5t-8.5 -24.5v-616q0 -18 8.5 -24.5t25.5 -8.5q5 -1 4.5 -5t-4.5 -4h-138q-4 0 -4.5 4t4.5 5q17 2 25.5 8.5t8.5 24.5v616q0 18 -8.5 24.5t-25.5 8.5
z" />
    <glyph glyph-name="Idieresis" unicode="&#xcf;" horiz-adv-x="228" 
d="M34 763q0 14 9.5 23.5t24.5 9.5q14 0 23.5 -9.5t9.5 -23.5q0 -15 -9.5 -24.5t-23.5 -9.5q-15 0 -24.5 9.5t-9.5 24.5zM126 763q0 14 9.5 23.5t24.5 9.5q14 0 23.5 -9.5t9.5 -23.5q0 -15 -9.5 -24.5t-23.5 -9.5q-15 0 -24.5 9.5t-9.5 24.5zM45 691q-5 1 -4.5 5t4.5 4h138
q4 0 4.5 -4t-4.5 -5q-17 -2 -25.5 -8.5t-8.5 -24.5v-616q0 -18 8.5 -24.5t25.5 -8.5q5 -1 4.5 -5t-4.5 -4h-138q-4 0 -4.5 4t4.5 5q17 2 25.5 8.5t8.5 24.5v616q0 18 -8.5 24.5t-25.5 8.5z" />
    <glyph glyph-name="Eth" unicode="&#xd0;" horiz-adv-x="541" 
d="M45 691q-5 1 -4.5 5t4.5 4h181q76 0 127 -27.5t81.5 -75.5t43.5 -112.5t13 -138.5t-13 -137.5t-43.5 -110t-81 -72.5t-125.5 -26h-183q-4 0 -4.5 4t4.5 5q17 2 25.5 8.5t8.5 24.5v297h-88v23h88v296q0 18 -8.5 24.5t-25.5 8.5zM149 42q0 -18 8.5 -22.5t25.5 -4.5h45
q48 0 84 16t59.5 54t35 101.5t11.5 159.5t-11.5 160.5t-35.5 104.5t-60 57t-85 17h-43q-17 0 -25.5 -4.5t-8.5 -22.5v-296h177v-23h-177v-297z" />
    <glyph glyph-name="Ntilde" unicode="&#xd1;" horiz-adv-x="569" 
d="M395 786q1 5 4 5t3 -5q0 -8 -2.5 -19t-9 -21t-17.5 -17t-27 -7q-19 0 -33.5 7.5t-28 16.5t-27 16.5t-31.5 7.5q-15 0 -25.5 -11.5t-12.5 -30.5q0 -5 -4 -5t-4 5q0 24 15.5 43t39.5 19q18 0 32 -7.5t27.5 -16t28 -16t33.5 -7.5q17 0 26.5 12.5t12.5 30.5zM47 691
q-5 1 -5 5t5 4h90l332 -598v556q0 18 -10.5 24.5t-27.5 8.5q-5 1 -5 5t5 4h91q5 0 5 -4t-5 -5q-17 -2 -27.5 -8.5t-10.5 -24.5v-658h-41l-343 618v-576q0 -18 10.5 -24.5t27.5 -8.5q5 -1 5 -5t-5 -4h-91q-5 0 -5 4t5 5q17 2 27.5 8.5t10.5 24.5v616q0 18 -10.5 24.5
t-27.5 8.5z" />
    <glyph glyph-name="Ograve" unicode="&#xd2;" horiz-adv-x="692" 
d="M395 720l-136 51l4 31l134 -70zM50 350q0 81 21 147t60 113t93.5 72.5t121.5 25.5t121.5 -25.5t93.5 -72.5t60 -113t21 -147t-21 -147t-60 -113t-93.5 -72.5t-121.5 -25.5t-121.5 25.5t-93.5 72.5t-60 113t-21 147zM123 350q0 -86 16 -150.5t45 -107t70.5 -63.5t91.5 -21
t91 21t70.5 63.5t45.5 107t16 150.5t-16 150.5t-45.5 107t-70.5 63.5t-91 21t-91.5 -21t-70.5 -63.5t-45 -107t-16 -150.5z" />
    <glyph glyph-name="Oacute" unicode="&#xd3;" horiz-adv-x="692" 
d="M422 800l4 -31l-136 -51l-2 12zM50 350q0 81 21 147t60 113t93.5 72.5t121.5 25.5t121.5 -25.5t93.5 -72.5t60 -113t21 -147t-21 -147t-60 -113t-93.5 -72.5t-121.5 -25.5t-121.5 25.5t-93.5 72.5t-60 113t-21 147zM123 350q0 -86 16 -150.5t45 -107t70.5 -63.5t91.5 -21
t91 21t70.5 63.5t45.5 107t16 150.5t-16 150.5t-45.5 107t-70.5 63.5t-91 21t-91.5 -21t-70.5 -63.5t-45 -107t-16 -150.5z" />
    <glyph glyph-name="Ocircumflex" unicode="&#xd4;" horiz-adv-x="692" 
d="M438 732l-26 -10l-66 89l-65 -89l-27 10l86 94h12zM50 350q0 81 21 147t60 113t93.5 72.5t121.5 25.5t121.5 -25.5t93.5 -72.5t60 -113t21 -147t-21 -147t-60 -113t-93.5 -72.5t-121.5 -25.5t-121.5 25.5t-93.5 72.5t-60 113t-21 147zM123 350q0 -86 16 -150.5t45 -107
t70.5 -63.5t91.5 -21t91 21t70.5 63.5t45.5 107t16 150.5t-16 150.5t-45.5 107t-70.5 63.5t-91 21t-91.5 -21t-70.5 -63.5t-45 -107t-16 -150.5z" />
    <glyph glyph-name="Otilde" unicode="&#xd5;" horiz-adv-x="692" 
d="M449 786q1 5 4 5t3 -5q0 -8 -2.5 -19t-9 -21t-17.5 -17t-27 -7q-19 0 -33.5 7.5t-28 16.5t-27 16.5t-31.5 7.5q-15 0 -25.5 -11.5t-12.5 -30.5q0 -5 -4 -5t-4 5q0 24 15.5 43t39.5 19q18 0 32 -7.5t27.5 -16t28 -16t33.5 -7.5q17 0 26.5 12.5t12.5 30.5zM50 350
q0 81 21 147t60 113t93.5 72.5t121.5 25.5t121.5 -25.5t93.5 -72.5t60 -113t21 -147t-21 -147t-60 -113t-93.5 -72.5t-121.5 -25.5t-121.5 25.5t-93.5 72.5t-60 113t-21 147zM123 350q0 -86 16 -150.5t45 -107t70.5 -63.5t91.5 -21t91 21t70.5 63.5t45.5 107t16 150.5
t-16 150.5t-45.5 107t-70.5 63.5t-91 21t-91.5 -21t-70.5 -63.5t-45 -107t-16 -150.5z" />
    <glyph glyph-name="Odieresis" unicode="&#xd6;" horiz-adv-x="692" 
d="M266 763q0 14 9.5 23.5t24.5 9.5q14 0 23.5 -9.5t9.5 -23.5q0 -15 -9.5 -24.5t-23.5 -9.5q-15 0 -24.5 9.5t-9.5 24.5zM358 763q0 14 9.5 23.5t24.5 9.5q14 0 23.5 -9.5t9.5 -23.5q0 -15 -9.5 -24.5t-23.5 -9.5q-15 0 -24.5 9.5t-9.5 24.5zM50 350q0 81 21 147t60 113
t93.5 72.5t121.5 25.5t121.5 -25.5t93.5 -72.5t60 -113t21 -147t-21 -147t-60 -113t-93.5 -72.5t-121.5 -25.5t-121.5 25.5t-93.5 72.5t-60 113t-21 147zM123 350q0 -86 16 -150.5t45 -107t70.5 -63.5t91.5 -21t91 21t70.5 63.5t45.5 107t16 150.5t-16 150.5t-45.5 107
t-70.5 63.5t-91 21t-91.5 -21t-70.5 -63.5t-45 -107t-16 -150.5z" />
    <glyph glyph-name="multiply" unicode="&#xd7;" horiz-adv-x="353" 
d="M66 477l111 -110l110 110l16 -16l-110 -110l110 -111l-16 -16l-110 111l-111 -111l-16 16l111 111l-111 110z" />
    <glyph glyph-name="Oslash" unicode="&#xd8;" horiz-adv-x="692" 
d="M97 -8l52 79q-48 48 -73.5 118.5t-25.5 160.5q0 81 21 147t60 113t93.5 72.5t121.5 25.5q105 0 179 -62l35 54h33l-48 -73q46 -48 71.5 -118t25.5 -159q0 -81 -21 -147t-60 -113t-93.5 -72.5t-121.5 -25.5q-103 0 -177 60l-39 -60h-33zM123 350q0 -78 13.5 -138.5
t37.5 -102.5l329 504q-58 79 -157 79q-50 0 -91.5 -21t-70.5 -63.5t-45 -107t-16 -150.5zM190 84q58 -76 156 -76q50 0 91 21t70.5 63.5t45.5 107t16 150.5q0 152 -49 238z" />
    <glyph glyph-name="Ugrave" unicode="&#xd9;" horiz-adv-x="556" 
d="M346 720l-136 51l4 31l134 -70zM45 691q-5 1 -4.5 5t4.5 4h138q4 0 4.5 -4t-4.5 -5q-17 -2 -25.5 -8.5t-8.5 -24.5v-464q0 -93 33 -138.5t113 -45.5q46 0 78 16t51 41.5t27.5 58t8.5 66.5v466q0 18 -8.5 24.5t-25.5 8.5q-5 1 -4.5 5t4.5 4h83q4 0 4.5 -4t-4.5 -5
q-17 -2 -25.5 -8.5t-8.5 -24.5v-468q0 -41 -10.5 -77t-34 -63t-62.5 -42.5t-96 -15.5q-53 0 -90 14t-60 41.5t-33 67.5t-10 92v451q0 18 -8.5 24.5t-25.5 8.5z" />
    <glyph glyph-name="Uacute" unicode="&#xda;" horiz-adv-x="556" 
d="M373 800l4 -31l-136 -51l-2 12zM45 691q-5 1 -4.5 5t4.5 4h138q4 0 4.5 -4t-4.5 -5q-17 -2 -25.5 -8.5t-8.5 -24.5v-464q0 -93 33 -138.5t113 -45.5q46 0 78 16t51 41.5t27.5 58t8.5 66.5v466q0 18 -8.5 24.5t-25.5 8.5q-5 1 -4.5 5t4.5 4h83q4 0 4.5 -4t-4.5 -5
q-17 -2 -25.5 -8.5t-8.5 -24.5v-468q0 -41 -10.5 -77t-34 -63t-62.5 -42.5t-96 -15.5q-53 0 -90 14t-60 41.5t-33 67.5t-10 92v451q0 18 -8.5 24.5t-25.5 8.5z" />
    <glyph glyph-name="Ucircumflex" unicode="&#xdb;" horiz-adv-x="556" 
d="M389 732l-26 -10l-66 89l-65 -89l-27 10l86 94h12zM45 691q-5 1 -4.5 5t4.5 4h138q4 0 4.5 -4t-4.5 -5q-17 -2 -25.5 -8.5t-8.5 -24.5v-464q0 -93 33 -138.5t113 -45.5q46 0 78 16t51 41.5t27.5 58t8.5 66.5v466q0 18 -8.5 24.5t-25.5 8.5q-5 1 -4.5 5t4.5 4h83
q4 0 4.5 -4t-4.5 -5q-17 -2 -25.5 -8.5t-8.5 -24.5v-468q0 -41 -10.5 -77t-34 -63t-62.5 -42.5t-96 -15.5q-53 0 -90 14t-60 41.5t-33 67.5t-10 92v451q0 18 -8.5 24.5t-25.5 8.5z" />
    <glyph glyph-name="Udieresis" unicode="&#xdc;" horiz-adv-x="556" 
d="M217 763q0 14 9.5 23.5t24.5 9.5q14 0 23.5 -9.5t9.5 -23.5q0 -15 -9.5 -24.5t-23.5 -9.5q-15 0 -24.5 9.5t-9.5 24.5zM309 763q0 14 9.5 23.5t24.5 9.5q14 0 23.5 -9.5t9.5 -23.5q0 -15 -9.5 -24.5t-23.5 -9.5q-15 0 -24.5 9.5t-9.5 24.5zM45 691q-5 1 -4.5 5t4.5 4h138
q4 0 4.5 -4t-4.5 -5q-17 -2 -25.5 -8.5t-8.5 -24.5v-464q0 -93 33 -138.5t113 -45.5q46 0 78 16t51 41.5t27.5 58t8.5 66.5v466q0 18 -8.5 24.5t-25.5 8.5q-5 1 -4.5 5t4.5 4h83q4 0 4.5 -4t-4.5 -5q-17 -2 -25.5 -8.5t-8.5 -24.5v-468q0 -41 -10.5 -77t-34 -63t-62.5 -42.5
t-96 -15.5q-53 0 -90 14t-60 41.5t-33 67.5t-10 92v451q0 18 -8.5 24.5t-25.5 8.5z" />
    <glyph glyph-name="Yacute" unicode="&#xdd;" horiz-adv-x="569" 
d="M381 800l4 -31l-136 -51l-2 12zM221 0q-4 0 -4.5 4t4.5 5q17 2 25.5 8.5t8.5 24.5v296l-141 283q-14 26 -39 46.5t-50 23.5q-5 1 -4.5 5t4.5 4h179q4 0 4.5 -4t-4.5 -5q-20 -2 -24 -17.5t8 -38.5l123 -248l131 248q13 23 10.5 38.5t-22.5 17.5q-5 1 -3.5 5t5.5 4h113
q4 0 3.5 -4t-5.5 -5q-25 -3 -50 -23.5t-39 -46.5l-129 -243v-336q0 -18 8.5 -24.5t25.5 -8.5q5 -1 4.5 -5t-4.5 -4h-138z" />
    <glyph glyph-name="germandbls" unicode="&#xdf;" horiz-adv-x="565" 
d="M375 404q39 -12 65.5 -30.5t43 -42.5t24 -52t7.5 -59q0 -41 -13 -80.5t-45 -70.5t-85.5 -50t-134.5 -19h-23v15h27q102 0 151.5 55t49.5 150q0 46 -13.5 80.5t-37.5 57t-58 34.5t-75 13q-7 0 -7 8q0 7 7 7q37 1 62 11t39.5 29t20.5 45.5t6 59.5q0 63 -32 91.5t-90 28.5
q-36 0 -58 -12.5t-35 -35t-17.5 -53.5t-4.5 -67v-517h-104q-4 0 -4.5 4t4.5 5q17 2 25.5 8.5t8.5 24.5v475q0 54 14 89.5t38.5 56t58.5 29t74 8.5q56 0 93.5 -11t60 -30t32 -44.5t9.5 -54.5q0 -19 -3.5 -38t-13.5 -36.5t-26.5 -32t-41.5 -25.5q-20 -8 -19.5 -13t20.5 -11z
" />
    <glyph glyph-name="agrave" unicode="&#xe0;" horiz-adv-x="461" 
d="M280 499l-136 51l4 31l134 -70zM342 0q-20 0 -20 20v61q-7 -15 -19.5 -31t-29.5 -29t-39.5 -21t-49.5 -8q-29 0 -55 7.5t-46 24t-31.5 43.5t-11.5 66q0 37 11.5 62.5t32.5 42.5t51 29.5t67 24.5q21 7 42 15t37.5 16.5t27.5 17t13 16.5q-1 20 -6 38t-15 31.5t-26 21
t-39 7.5q-33 0 -56.5 -9.5t-39 -25.5t-22.5 -37t-7 -45q0 -4 -4 -4.5t-5 4.5q-3 33 -6 56t-10 43q12 3 30.5 9t39.5 12t42.5 11t39.5 5q22 0 49 -7.5t50 -24.5t39 -45t16 -68v-287q0 -18 8.5 -24.5t25.5 -8.5q5 -1 4.5 -5t-4.5 -4h-84zM322 333q-15 -16 -46 -29.5t-63 -27.5
q-49 -21 -74.5 -53.5t-25.5 -89.5q0 -52 21 -86t62 -34q27 0 50.5 12.5t40 31.5t26 40t9.5 39v197z" />
    <glyph glyph-name="aacute" unicode="&#xe1;" horiz-adv-x="461" 
d="M307 579l4 -31l-136 -51l-2 12zM342 0q-20 0 -20 20v61q-7 -15 -19.5 -31t-29.5 -29t-39.5 -21t-49.5 -8q-29 0 -55 7.5t-46 24t-31.5 43.5t-11.5 66q0 37 11.5 62.5t32.5 42.5t51 29.5t67 24.5q21 7 42 15t37.5 16.5t27.5 17t13 16.5q-1 20 -6 38t-15 31.5t-26 21
t-39 7.5q-33 0 -56.5 -9.5t-39 -25.5t-22.5 -37t-7 -45q0 -4 -4 -4.5t-5 4.5q-3 33 -6 56t-10 43q12 3 30.5 9t39.5 12t42.5 11t39.5 5q22 0 49 -7.5t50 -24.5t39 -45t16 -68v-287q0 -18 8.5 -24.5t25.5 -8.5q5 -1 4.5 -5t-4.5 -4h-84zM322 333q-15 -16 -46 -29.5t-63 -27.5
q-49 -21 -74.5 -53.5t-25.5 -89.5q0 -52 21 -86t62 -34q27 0 50.5 12.5t40 31.5t26 40t9.5 39v197z" />
    <glyph glyph-name="acircumflex" unicode="&#xe2;" horiz-adv-x="461" 
d="M323 511l-26 -10l-66 89l-65 -89l-27 10l86 94h12zM342 0q-20 0 -20 20v61q-7 -15 -19.5 -31t-29.5 -29t-39.5 -21t-49.5 -8q-29 0 -55 7.5t-46 24t-31.5 43.5t-11.5 66q0 37 11.5 62.5t32.5 42.5t51 29.5t67 24.5q21 7 42 15t37.5 16.5t27.5 17t13 16.5q-1 20 -6 38
t-15 31.5t-26 21t-39 7.5q-33 0 -56.5 -9.5t-39 -25.5t-22.5 -37t-7 -45q0 -4 -4 -4.5t-5 4.5q-3 33 -6 56t-10 43q12 3 30.5 9t39.5 12t42.5 11t39.5 5q22 0 49 -7.5t50 -24.5t39 -45t16 -68v-287q0 -18 8.5 -24.5t25.5 -8.5q5 -1 4.5 -5t-4.5 -4h-84zM322 333
q-15 -16 -46 -29.5t-63 -27.5q-49 -21 -74.5 -53.5t-25.5 -89.5q0 -52 21 -86t62 -34q27 0 50.5 12.5t40 31.5t26 40t9.5 39v197z" />
    <glyph glyph-name="atilde" unicode="&#xe3;" horiz-adv-x="461" 
d="M334 565q1 5 4 5t3 -5q0 -8 -2.5 -19t-9 -21t-17.5 -17t-27 -7q-19 0 -33.5 7.5t-28 16.5t-27 16.5t-31.5 7.5q-15 0 -25.5 -11.5t-12.5 -30.5q0 -5 -4 -5t-4 5q0 24 15.5 43t39.5 19q18 0 32 -7.5t27.5 -16t28 -16t33.5 -7.5q17 0 26.5 12.5t12.5 30.5zM342 0
q-20 0 -20 20v61q-7 -15 -19.5 -31t-29.5 -29t-39.5 -21t-49.5 -8q-29 0 -55 7.5t-46 24t-31.5 43.5t-11.5 66q0 37 11.5 62.5t32.5 42.5t51 29.5t67 24.5q21 7 42 15t37.5 16.5t27.5 17t13 16.5q-1 20 -6 38t-15 31.5t-26 21t-39 7.5q-33 0 -56.5 -9.5t-39 -25.5t-22.5 -37
t-7 -45q0 -4 -4 -4.5t-5 4.5q-3 33 -6 56t-10 43q12 3 30.5 9t39.5 12t42.5 11t39.5 5q22 0 49 -7.5t50 -24.5t39 -45t16 -68v-287q0 -18 8.5 -24.5t25.5 -8.5q5 -1 4.5 -5t-4.5 -4h-84zM322 333q-15 -16 -46 -29.5t-63 -27.5q-49 -21 -74.5 -53.5t-25.5 -89.5q0 -52 21 -86
t62 -34q27 0 50.5 12.5t40 31.5t26 40t9.5 39v197z" />
    <glyph glyph-name="adieresis" unicode="&#xe4;" horiz-adv-x="461" 
d="M151 542q0 14 9.5 23.5t24.5 9.5q14 0 23.5 -9.5t9.5 -23.5q0 -15 -9.5 -24.5t-23.5 -9.5q-15 0 -24.5 9.5t-9.5 24.5zM243 542q0 14 9.5 23.5t24.5 9.5q14 0 23.5 -9.5t9.5 -23.5q0 -15 -9.5 -24.5t-23.5 -9.5q-15 0 -24.5 9.5t-9.5 24.5zM342 0q-20 0 -20 20v61
q-7 -15 -19.5 -31t-29.5 -29t-39.5 -21t-49.5 -8q-29 0 -55 7.5t-46 24t-31.5 43.5t-11.5 66q0 37 11.5 62.5t32.5 42.5t51 29.5t67 24.5q21 7 42 15t37.5 16.5t27.5 17t13 16.5q-1 20 -6 38t-15 31.5t-26 21t-39 7.5q-33 0 -56.5 -9.5t-39 -25.5t-22.5 -37t-7 -45
q0 -4 -4 -4.5t-5 4.5q-3 33 -6 56t-10 43q12 3 30.5 9t39.5 12t42.5 11t39.5 5q22 0 49 -7.5t50 -24.5t39 -45t16 -68v-287q0 -18 8.5 -24.5t25.5 -8.5q5 -1 4.5 -5t-4.5 -4h-84zM322 333q-15 -16 -46 -29.5t-63 -27.5q-49 -21 -74.5 -53.5t-25.5 -89.5q0 -52 21 -86t62 -34
q27 0 50.5 12.5t40 31.5t26 40t9.5 39v197z" />
    <glyph glyph-name="aring" unicode="&#xe5;" horiz-adv-x="461" 
d="M164 563q0 31 20.5 42t46.5 11q12 0 23.5 -2.5t20.5 -8.5t15 -16.5t6 -25.5q0 -17 -6 -27.5t-15 -17t-20.5 -9t-23.5 -2.5q-26 0 -46.5 11.5t-20.5 44.5zM194 563q0 -20 10 -30.5t27 -10.5q15 0 25 10.5t10 30.5t-10 29t-25 9q-17 0 -27 -9t-10 -29zM342 0q-20 0 -20 20
v61q-7 -15 -19.5 -31t-29.5 -29t-39.5 -21t-49.5 -8q-29 0 -55 7.5t-46 24t-31.5 43.5t-11.5 66q0 37 11.5 62.5t32.5 42.5t51 29.5t67 24.5q21 7 42 15t37.5 16.5t27.5 17t13 16.5q-1 20 -6 38t-15 31.5t-26 21t-39 7.5q-33 0 -56.5 -9.5t-39 -25.5t-22.5 -37t-7 -45
q0 -4 -4 -4.5t-5 4.5q-3 33 -6 56t-10 43q12 3 30.5 9t39.5 12t42.5 11t39.5 5q22 0 49 -7.5t50 -24.5t39 -45t16 -68v-287q0 -18 8.5 -24.5t25.5 -8.5q5 -1 4.5 -5t-4.5 -4h-84zM322 333q-15 -16 -46 -29.5t-63 -27.5q-49 -21 -74.5 -53.5t-25.5 -89.5q0 -52 21 -86t62 -34
q27 0 50.5 12.5t40 31.5t26 40t9.5 39v197z" />
    <glyph glyph-name="ae" unicode="&#xe6;" horiz-adv-x="716" 
d="M340 121q-3 -27 -15.5 -51t-32.5 -41t-47.5 -27t-60.5 -10q-29 0 -55 7.5t-46 24t-31.5 43.5t-11.5 66q0 37 11.5 62.5t32.5 42.5t51 29.5t67 24.5q21 7 42 15t37.5 16.5t27.5 17t13 16.5q-1 20 -6 38t-15 31.5t-26 21t-39 7.5q-33 0 -56.5 -9.5t-39 -25.5t-22.5 -37
t-7 -45q0 -4 -4 -4.5t-5 4.5q-3 33 -6 56t-10 43q12 3 30.5 9t39.5 12t42.5 11t39.5 5q16 0 34.5 -3.5t36.5 -12t34 -21.5t28 -31q26 34 63 51t84 17q44 0 74.5 -11.5t49 -31t26.5 -44t8 -49.5q0 -50 -22 -85.5t-55 -58.5t-72.5 -34t-74.5 -11q-14 0 -26.5 2t-23.5 5
q12 -79 47.5 -112.5t79.5 -33.5q33 0 59.5 13t49.5 49q4 6 11 4t1 -12q-7 -11 -17.5 -24t-26 -23.5t-37 -17.5t-51.5 -7q-64 0 -110.5 32t-67.5 97zM399 180q16 -14 46 -14q25 0 54.5 10.5t55 32.5t42.5 56t17 81q0 18 -3.5 37.5t-14 36t-29.5 27.5t-50 11q-27 0 -49 -12.5
t-38 -39.5t-24.5 -69.5t-8.5 -103.5v-27.5t2 -25.5zM322 333q-15 -16 -46 -29.5t-63 -27.5q-49 -21 -74.5 -53.5t-25.5 -89.5q0 -52 21 -86t62 -34q31 0 54.5 12.5t39.5 31.5t24 40t8 39v197z" />
    <glyph glyph-name="ccedilla" unicode="&#xe7;" horiz-adv-x="424" 
d="M113 233q0 -61 10.5 -103.5t28.5 -69t42 -38.5t51 -12q33 0 59.5 13t49.5 49q4 6 11 4t1 -12q-7 -11 -16.5 -23t-24 -22.5t-35 -18t-47.5 -8.5l-20 -53q14 -6 25 -20.5t11 -33.5q0 -34 -19.5 -51.5t-45.5 -17.5q-20 0 -35.5 10.5t-17.5 30.5l21 7q2 -14 8.5 -24t24.5 -10
q17 0 27.5 13.5t10.5 39.5q0 20 -9 34t-28 19l27 56q-83 4 -133 63.5t-50 177.5q0 121 53.5 181t140.5 60q22 0 41 -4t37 -10t35.5 -12.5t36.5 -10.5q-7 -20 -10 -43t-6 -56q-1 -5 -5 -4.5t-4 4.5q0 24 -7 45.5t-22.5 38t-39.5 26.5t-57 10q-27 0 -49 -12.5t-38 -39.5
t-24.5 -69.5t-8.5 -103.5z" />
    <glyph glyph-name="egrave" unicode="&#xe8;" horiz-adv-x="432" 
d="M285 499l-136 51l4 31l134 -70zM118 156q12 -79 47.5 -112.5t79.5 -33.5q33 0 59.5 13t49.5 49q4 6 11 4t1 -12q-7 -11 -17.5 -24t-26 -23.5t-37 -17.5t-51.5 -7q-87 0 -140.5 59.5t-53.5 181.5q0 121 53.5 181t140.5 60q44 0 74.5 -11.5t49 -31t26.5 -44t8 -49.5
q0 -50 -22 -85.5t-55 -58.5t-72.5 -34t-74.5 -11q-14 0 -26.5 2t-23.5 5zM115 180q16 -14 46 -14q25 0 54.5 10.5t55 32.5t42.5 56t17 81q0 18 -3.5 37.5t-14 36t-29.5 27.5t-50 11q-27 0 -49 -12.5t-38 -39.5t-24.5 -69.5t-8.5 -103.5v-27.5t2 -25.5z" />
    <glyph glyph-name="eacute" unicode="&#xe9;" horiz-adv-x="432" 
d="M312 579l4 -31l-136 -51l-2 12zM118 156q12 -79 47.5 -112.5t79.5 -33.5q33 0 59.5 13t49.5 49q4 6 11 4t1 -12q-7 -11 -17.5 -24t-26 -23.5t-37 -17.5t-51.5 -7q-87 0 -140.5 59.5t-53.5 181.5q0 121 53.5 181t140.5 60q44 0 74.5 -11.5t49 -31t26.5 -44t8 -49.5
q0 -50 -22 -85.5t-55 -58.5t-72.5 -34t-74.5 -11q-14 0 -26.5 2t-23.5 5zM115 180q16 -14 46 -14q25 0 54.5 10.5t55 32.5t42.5 56t17 81q0 18 -3.5 37.5t-14 36t-29.5 27.5t-50 11q-27 0 -49 -12.5t-38 -39.5t-24.5 -69.5t-8.5 -103.5v-27.5t2 -25.5z" />
    <glyph glyph-name="ecircumflex" unicode="&#xea;" horiz-adv-x="432" 
d="M328 511l-26 -10l-66 89l-65 -89l-27 10l86 94h12zM118 156q12 -79 47.5 -112.5t79.5 -33.5q33 0 59.5 13t49.5 49q4 6 11 4t1 -12q-7 -11 -17.5 -24t-26 -23.5t-37 -17.5t-51.5 -7q-87 0 -140.5 59.5t-53.5 181.5q0 121 53.5 181t140.5 60q44 0 74.5 -11.5t49 -31
t26.5 -44t8 -49.5q0 -50 -22 -85.5t-55 -58.5t-72.5 -34t-74.5 -11q-14 0 -26.5 2t-23.5 5zM115 180q16 -14 46 -14q25 0 54.5 10.5t55 32.5t42.5 56t17 81q0 18 -3.5 37.5t-14 36t-29.5 27.5t-50 11q-27 0 -49 -12.5t-38 -39.5t-24.5 -69.5t-8.5 -103.5v-27.5t2 -25.5z" />
    <glyph glyph-name="edieresis" unicode="&#xeb;" horiz-adv-x="432" 
d="M156 542q0 14 9.5 23.5t24.5 9.5q14 0 23.5 -9.5t9.5 -23.5q0 -15 -9.5 -24.5t-23.5 -9.5q-15 0 -24.5 9.5t-9.5 24.5zM248 542q0 14 9.5 23.5t24.5 9.5q14 0 23.5 -9.5t9.5 -23.5q0 -15 -9.5 -24.5t-23.5 -9.5q-15 0 -24.5 9.5t-9.5 24.5zM118 156q12 -79 47.5 -112.5
t79.5 -33.5q33 0 59.5 13t49.5 49q4 6 11 4t1 -12q-7 -11 -17.5 -24t-26 -23.5t-37 -17.5t-51.5 -7q-87 0 -140.5 59.5t-53.5 181.5q0 121 53.5 181t140.5 60q44 0 74.5 -11.5t49 -31t26.5 -44t8 -49.5q0 -50 -22 -85.5t-55 -58.5t-72.5 -34t-74.5 -11q-14 0 -26.5 2
t-23.5 5zM115 180q16 -14 46 -14q25 0 54.5 10.5t55 32.5t42.5 56t17 81q0 18 -3.5 37.5t-14 36t-29.5 27.5t-50 11q-27 0 -49 -12.5t-38 -39.5t-24.5 -69.5t-8.5 -103.5v-27.5t2 -25.5z" />
    <glyph glyph-name="igrave" unicode="&#xec;" 
d="M153 499l-136 51l4 31l134 -70zM39 0q-4 0 -4.5 4t4.5 5q17 2 25.5 8.5t8.5 24.5v353q0 21 -9 34.5t-33 13.5q-5 0 -6 2.5t7 4.5l111 24v-432q0 -18 8.5 -24.5t25.5 -8.5q5 -1 4.5 -5t-4.5 -4h-138z" />
    <glyph glyph-name="iacute" unicode="&#xed;" 
d="M180 579l4 -31l-136 -51l-2 12zM39 0q-4 0 -4.5 4t4.5 5q17 2 25.5 8.5t8.5 24.5v353q0 21 -9 34.5t-33 13.5q-5 0 -6 2.5t7 4.5l111 24v-432q0 -18 8.5 -24.5t25.5 -8.5q5 -1 4.5 -5t-4.5 -4h-138z" />
    <glyph glyph-name="icircumflex" unicode="&#xee;" 
d="M196 511l-26 -10l-66 89l-65 -89l-27 10l86 94h12zM39 0q-4 0 -4.5 4t4.5 5q17 2 25.5 8.5t8.5 24.5v353q0 21 -9 34.5t-33 13.5q-5 0 -6 2.5t7 4.5l111 24v-432q0 -18 8.5 -24.5t25.5 -8.5q5 -1 4.5 -5t-4.5 -4h-138z" />
    <glyph glyph-name="idieresis" unicode="&#xef;" 
d="M24 542q0 14 9.5 23.5t24.5 9.5q14 0 23.5 -9.5t9.5 -23.5q0 -15 -9.5 -24.5t-23.5 -9.5q-15 0 -24.5 9.5t-9.5 24.5zM116 542q0 14 9.5 23.5t24.5 9.5q14 0 23.5 -9.5t9.5 -23.5q0 -15 -9.5 -24.5t-23.5 -9.5q-15 0 -24.5 9.5t-9.5 24.5zM39 0q-4 0 -4.5 4t4.5 5
q17 2 25.5 8.5t8.5 24.5v353q0 21 -9 34.5t-33 13.5q-5 0 -6 2.5t7 4.5l111 24v-432q0 -18 8.5 -24.5t25.5 -8.5q5 -1 4.5 -5t-4.5 -4h-138z" />
    <glyph glyph-name="ntilde" unicode="&#xf1;" horiz-adv-x="471" 
d="M342 565q1 5 4 5t3 -5q0 -8 -2.5 -19t-9 -21t-17.5 -17t-27 -7q-19 0 -33.5 7.5t-28 16.5t-27 16.5t-31.5 7.5q-15 0 -25.5 -11.5t-12.5 -30.5q0 -5 -4 -5t-4 5q0 24 15.5 43t39.5 19q18 0 32 -7.5t27.5 -16t28 -16t33.5 -7.5q17 0 26.5 12.5t12.5 30.5zM39 0
q-4 0 -4.5 4t4.5 5q17 2 25.5 8.5t8.5 24.5v353q0 21 -9 34.5t-33 13.5q-5 0 -6 2.5t7 4.5l111 24v-51q17 21 43.5 36t66.5 15q73 0 111 -38.5t38 -101.5v-292q0 -18 8.5 -24.5t25.5 -8.5q5 -1 4.5 -5t-4.5 -4h-138q-4 0 -4.5 4t4.5 5q17 2 25.5 8.5t8.5 24.5v295
q0 55 -23.5 86.5t-69.5 31.5q-23 0 -41 -9t-30 -21.5t-18.5 -25.5t-6.5 -22v-335q0 -18 8.5 -24.5t25.5 -8.5q5 -1 4.5 -5t-4.5 -4h-138z" />
    <glyph glyph-name="ograve" unicode="&#xf2;" horiz-adv-x="466" 
d="M282 497l-136 51l4 31l134 -70zM40 233q0 121 53.5 181t140.5 60q43 0 78 -15t60.5 -45t39.5 -75t14 -106t-14 -106t-39.5 -75t-60.5 -45t-78 -15q-87 0 -140.5 59.5t-53.5 181.5zM113 233q0 -61 8.5 -103.5t24.5 -69.5t38 -39.5t49 -12.5t49 12.5t38 39.5t24.5 69.5
t8.5 103.5t-8.5 103.5t-24.5 69.5t-38 39.5t-49 12.5t-49 -12.5t-38 -39.5t-24.5 -69.5t-8.5 -103.5z" />
    <glyph glyph-name="oacute" unicode="&#xf3;" horiz-adv-x="466" 
d="M309 577l4 -31l-136 -51l-2 12zM40 233q0 121 53.5 181t140.5 60q43 0 78 -15t60.5 -45t39.5 -75t14 -106t-14 -106t-39.5 -75t-60.5 -45t-78 -15q-87 0 -140.5 59.5t-53.5 181.5zM113 233q0 -61 8.5 -103.5t24.5 -69.5t38 -39.5t49 -12.5t49 12.5t38 39.5t24.5 69.5
t8.5 103.5t-8.5 103.5t-24.5 69.5t-38 39.5t-49 12.5t-49 -12.5t-38 -39.5t-24.5 -69.5t-8.5 -103.5z" />
    <glyph glyph-name="ocircumflex" unicode="&#xf4;" horiz-adv-x="466" 
d="M325 509l-26 -10l-66 89l-65 -89l-27 10l86 94h12zM40 233q0 121 53.5 181t140.5 60q43 0 78 -15t60.5 -45t39.5 -75t14 -106t-14 -106t-39.5 -75t-60.5 -45t-78 -15q-87 0 -140.5 59.5t-53.5 181.5zM113 233q0 -61 8.5 -103.5t24.5 -69.5t38 -39.5t49 -12.5t49 12.5
t38 39.5t24.5 69.5t8.5 103.5t-8.5 103.5t-24.5 69.5t-38 39.5t-49 12.5t-49 -12.5t-38 -39.5t-24.5 -69.5t-8.5 -103.5z" />
    <glyph glyph-name="otilde" unicode="&#xf5;" horiz-adv-x="466" 
d="M336 563q1 5 4 5t3 -5q0 -8 -2.5 -19t-9 -21t-17.5 -17t-27 -7q-19 0 -33.5 7.5t-28 16.5t-27 16.5t-31.5 7.5q-15 0 -25.5 -11.5t-12.5 -30.5q0 -5 -4 -5t-4 5q0 24 15.5 43t39.5 19q18 0 32 -7.5t27.5 -16t28 -16t33.5 -7.5q17 0 26.5 12.5t12.5 30.5zM40 233
q0 121 53.5 181t140.5 60q43 0 78 -15t60.5 -45t39.5 -75t14 -106t-14 -106t-39.5 -75t-60.5 -45t-78 -15q-87 0 -140.5 59.5t-53.5 181.5zM113 233q0 -61 8.5 -103.5t24.5 -69.5t38 -39.5t49 -12.5t49 12.5t38 39.5t24.5 69.5t8.5 103.5t-8.5 103.5t-24.5 69.5t-38 39.5
t-49 12.5t-49 -12.5t-38 -39.5t-24.5 -69.5t-8.5 -103.5z" />
    <glyph glyph-name="odieresis" unicode="&#xf6;" horiz-adv-x="466" 
d="M153 540q0 14 9.5 23.5t24.5 9.5q14 0 23.5 -9.5t9.5 -23.5q0 -15 -9.5 -24.5t-23.5 -9.5q-15 0 -24.5 9.5t-9.5 24.5zM245 540q0 14 9.5 23.5t24.5 9.5q14 0 23.5 -9.5t9.5 -23.5q0 -15 -9.5 -24.5t-23.5 -9.5q-15 0 -24.5 9.5t-9.5 24.5zM40 233q0 121 53.5 181
t140.5 60q43 0 78 -15t60.5 -45t39.5 -75t14 -106t-14 -106t-39.5 -75t-60.5 -45t-78 -15q-87 0 -140.5 59.5t-53.5 181.5zM113 233q0 -61 8.5 -103.5t24.5 -69.5t38 -39.5t49 -12.5t49 12.5t38 39.5t24.5 69.5t8.5 103.5t-8.5 103.5t-24.5 69.5t-38 39.5t-49 12.5
t-49 -12.5t-38 -39.5t-24.5 -69.5t-8.5 -103.5z" />
    <glyph glyph-name="oslash" unicode="&#xf8;" horiz-adv-x="466" 
d="M54 -70l54 106q-32 29 -50 78.5t-18 118.5q0 121 53.5 181t140.5 60q50 0 88 -19l41 81h31l-49 -96q38 -28 59.5 -79.5t21.5 -127.5q0 -61 -14 -106t-39.5 -75t-60.5 -45t-78 -15q-60 0 -103 27l-46 -89h-31zM113 233q0 -48 5.5 -84.5t15.5 -62.5l173 339q-29 33 -74 33
q-27 0 -49 -12.5t-38 -39.5t-24.5 -69.5t-8.5 -103.5zM149 55q16 -25 37 -36t47 -11q27 0 49 12.5t38 39.5t24.5 69.5t8.5 103.5q0 57 -7.5 98t-21.5 68z" />
    <glyph glyph-name="ugrave" unicode="&#xf9;" horiz-adv-x="471" 
d="M281 492l-136 51l4 31l134 -70zM332 43q-17 -21 -43.5 -36t-66.5 -15q-73 0 -111 38.5t-38 101.5v263q0 21 -9 34.5t-33 13.5q-5 0 -6 2.5t7 4.5l111 24v-345q0 -55 23.5 -86.5t69.5 -31.5q23 0 41 9t30 21.5t18.5 25.5t6.5 22v306q0 21 -9 34.5t-33 13.5q-5 0 -6 2.5
t7 4.5l111 24v-432q0 -18 8.5 -24.5t25.5 -8.5q5 -1 4.5 -5t-4.5 -4h-87q-17 0 -17 17v26z" />
    <glyph glyph-name="uacute" unicode="&#xfa;" horiz-adv-x="471" 
d="M308 572l4 -31l-136 -51l-2 12zM332 43q-17 -21 -43.5 -36t-66.5 -15q-73 0 -111 38.5t-38 101.5v263q0 21 -9 34.5t-33 13.5q-5 0 -6 2.5t7 4.5l111 24v-345q0 -55 23.5 -86.5t69.5 -31.5q23 0 41 9t30 21.5t18.5 25.5t6.5 22v306q0 21 -9 34.5t-33 13.5q-5 0 -6 2.5
t7 4.5l111 24v-432q0 -18 8.5 -24.5t25.5 -8.5q5 -1 4.5 -5t-4.5 -4h-87q-17 0 -17 17v26z" />
    <glyph glyph-name="ucircumflex" unicode="&#xfb;" horiz-adv-x="471" 
d="M324 504l-26 -10l-66 89l-65 -89l-27 10l86 94h12zM332 43q-17 -21 -43.5 -36t-66.5 -15q-73 0 -111 38.5t-38 101.5v263q0 21 -9 34.5t-33 13.5q-5 0 -6 2.5t7 4.5l111 24v-345q0 -55 23.5 -86.5t69.5 -31.5q23 0 41 9t30 21.5t18.5 25.5t6.5 22v306q0 21 -9 34.5
t-33 13.5q-5 0 -6 2.5t7 4.5l111 24v-432q0 -18 8.5 -24.5t25.5 -8.5q5 -1 4.5 -5t-4.5 -4h-87q-17 0 -17 17v26z" />
    <glyph glyph-name="udieresis" unicode="&#xfc;" horiz-adv-x="471" 
d="M152 535q0 14 9.5 23.5t24.5 9.5q14 0 23.5 -9.5t9.5 -23.5q0 -15 -9.5 -24.5t-23.5 -9.5q-15 0 -24.5 9.5t-9.5 24.5zM244 535q0 14 9.5 23.5t24.5 9.5q14 0 23.5 -9.5t9.5 -23.5q0 -15 -9.5 -24.5t-23.5 -9.5q-15 0 -24.5 9.5t-9.5 24.5zM332 43q-17 -21 -43.5 -36
t-66.5 -15q-73 0 -111 38.5t-38 101.5v263q0 21 -9 34.5t-33 13.5q-5 0 -6 2.5t7 4.5l111 24v-345q0 -55 23.5 -86.5t69.5 -31.5q23 0 41 9t30 21.5t18.5 25.5t6.5 22v306q0 21 -9 34.5t-33 13.5q-5 0 -6 2.5t7 4.5l111 24v-432q0 -18 8.5 -24.5t25.5 -8.5q5 -1 4.5 -5
t-4.5 -4h-87q-17 0 -17 17v26z" />
    <glyph glyph-name="yacute" unicode="&#xfd;" horiz-adv-x="465" 
d="M319 573l4 -31l-136 -51l-2 12zM253 -3q-13 -40 -28 -77t-35.5 -65.5t-48 -45.5t-66.5 -17t-64.5 16.5t-33.5 40.5q-2 5 4 7t10 -5q11 -20 33.5 -31.5t51.5 -11.5q36 0 61.5 18.5t44 46.5t31.5 62t23 65h-34l-123 387q-8 26 -22 46.5t-38 23.5q-5 1 -4.5 5t4.5 4h158
q4 0 4.5 -4t-4.5 -5q-20 -2 -27.5 -17.5t0.5 -38.5l107 -336l107 336q8 23 0.5 38.5t-27.5 17.5q-5 1 -4.5 5t4.5 4h113q4 0 4.5 -4t-4.5 -5q-24 -3 -44.5 -23.5t-28.5 -46.5z" />
    <glyph glyph-name="ydieresis" unicode="&#xff;" horiz-adv-x="464" 
d="M162 536q0 14 9.5 23.5t24.5 9.5q14 0 23.5 -9.5t9.5 -23.5q0 -15 -9.5 -24.5t-23.5 -9.5q-15 0 -24.5 9.5t-9.5 24.5zM254 536q0 14 9.5 23.5t24.5 9.5q14 0 23.5 -9.5t9.5 -23.5q0 -15 -9.5 -24.5t-23.5 -9.5q-15 0 -24.5 9.5t-9.5 24.5zM252 -3q-13 -40 -28 -77
t-35.5 -65.5t-48 -45.5t-66.5 -17t-64.5 16.5t-33.5 40.5q-2 5 4 7t10 -5q11 -20 33.5 -31.5t51.5 -11.5q36 0 61.5 18.5t44 46.5t31.5 62t23 65h-34l-123 387q-8 26 -22 46.5t-38 23.5q-5 1 -4.5 5t4.5 4h158q4 0 4.5 -4t-4.5 -5q-20 -2 -27.5 -17.5t0.5 -38.5l107 -336
l107 336q8 23 0.5 38.5t-27.5 17.5q-5 1 -4.5 5t4.5 4h113q4 0 4.5 -4t-4.5 -5q-24 -3 -44.5 -23.5t-28.5 -46.5z" />
    <glyph glyph-name="Dcroat" unicode="&#x110;" horiz-adv-x="541" 
d="M45 691q-5 1 -4.5 5t4.5 4h181q76 0 127 -27.5t81.5 -75.5t43.5 -112.5t13 -138.5t-13 -137.5t-43.5 -110t-81 -72.5t-125.5 -26h-183q-4 0 -4.5 4t4.5 5q17 2 25.5 8.5t8.5 24.5v297h-88v23h88v296q0 18 -8.5 24.5t-25.5 8.5zM149 42q0 -18 8.5 -22.5t25.5 -4.5h45
q48 0 84 16t59.5 54t35 101.5t11.5 159.5t-11.5 160.5t-35.5 104.5t-60 57t-85 17h-43q-17 0 -25.5 -4.5t-8.5 -22.5v-296h177v-23h-177v-297z" />
    <glyph glyph-name="dcroat" unicode="&#x111;" horiz-adv-x="483" 
d="M364 0q-20 0 -20 20v31q-41 -59 -120 -59q-39 0 -72.5 14t-58 43t-39 75t-14.5 109t14.5 109t39 75t58 43t72.5 14q79 0 120 -59v105h-158v23h158v17q0 21 -9 34.5t-33 13.5q-5 0 -6 2.5t7 4.5l111 24v-96h35v-23h-35v-478q0 -18 8.5 -24.5t25.5 -8.5q5 -1 4.5 -5
t-4.5 -4h-84zM344 382q-18 40 -45.5 58t-62.5 18q-58 0 -90.5 -51.5t-32.5 -173.5t32.5 -173.5t90.5 -51.5q35 0 62.5 18t45.5 58v298z" />
    <glyph glyph-name="dotlessi" unicode="&#x131;" 
d="M39 0q-4 0 -4.5 4t4.5 5q17 2 25.5 8.5t8.5 24.5v353q0 21 -9 34.5t-33 13.5q-5 0 -6 2.5t7 4.5l111 24v-432q0 -18 8.5 -24.5t25.5 -8.5q5 -1 4.5 -5t-4.5 -4h-138v0z" />
    <glyph glyph-name="Lslash" unicode="&#x141;" horiz-adv-x="479" 
d="M45 9q17 2 25.5 8.5t8.5 24.5v241l-64 -61l-17 16l81 77v343q0 18 -8.5 24.5t-25.5 8.5q-5 1 -4.5 5t4.5 4h138q4 0 4.5 -4t-4.5 -5q-17 -2 -25.5 -8.5t-8.5 -24.5v-276l91 87l17 -16l-108 -103v-308q0 -18 8.5 -22.5t25.5 -4.5h161q17 0 31 4t24.5 14.5t17.5 29.5t12 49
q1 7 5.5 6.5t3.5 -6.5l-13 -112h-380q-4 0 -4.5 4t4.5 5z" />
    <glyph glyph-name="lslash" unicode="&#x142;" 
d="M39 0q-4 0 -4.5 4t4.5 5q17 2 25.5 8.5t8.5 24.5v215l-84 -96l-17 15l101 115v269q0 21 -9 34.5t-33 13.5q-5 0 -6 2.5t7 4.5l111 24v-268l79 90l17 -15l-96 -109v-295q0 -18 8.5 -24.5t25.5 -8.5q5 -1 4.5 -5t-4.5 -4h-138v0z" />
    <glyph glyph-name="OE" unicode="&#x152;" horiz-adv-x="997" 
d="M50 350q0 81 21 147t60 113t93.5 72.5t121.5 25.5q72 0 129.5 -29.5t96.5 -83.5v63q0 18 -8.5 24.5t-25.5 8.5q-5 1 -4.5 5t4.5 4h385l13 -112q1 -6 -3.5 -6.5t-5.5 6.5q-5 30 -12 49t-17.5 29.5t-24.5 14.5t-31 4h-166q-17 0 -25.5 -4.5t-8.5 -22.5v-255h103q19 0 34 2
t25.5 10t17 24t8.5 44q1 7 5 6.5t4 -6.5v-175q0 -6 -4 -6.5t-5 6.5q-2 28 -8.5 44t-17 24t-25.5 10t-34 2h-103v-346q0 -18 8.5 -22.5t25.5 -4.5h166q45 0 70.5 22t34.5 82q1 7 5.5 6.5t3.5 -6.5l-14 -119h-404q-4 0 -4.5 4t4.5 5q17 2 25.5 8.5t8.5 24.5v63
q-39 -54 -96.5 -83.5t-129.5 -29.5q-67 0 -121.5 25.5t-93.5 72.5t-60 113t-21 147zM123 350q0 -86 16 -150.5t45 -107t70.5 -63.5t91.5 -21t91 21t70.5 63.5t45.5 107t16 150.5t-16 150.5t-45.5 107t-70.5 63.5t-91 21t-91.5 -21t-70.5 -63.5t-45 -107t-16 -150.5z" />
    <glyph glyph-name="oe" unicode="&#x153;" horiz-adv-x="745" 
d="M40 233q0 121 53.5 181t140.5 60q51 0 90.5 -20.5t65.5 -62.5q26 42 66 62.5t91 20.5q44 0 74.5 -11.5t49 -31t26.5 -44t8 -49.5q0 -50 -22 -85.5t-55 -58.5t-72.5 -34t-74.5 -11q-14 0 -26.5 2t-23.5 5q12 -79 47.5 -112.5t79.5 -33.5q33 0 59.5 13t49.5 49q4 6 11 4
t1 -12q-7 -11 -17.5 -24t-26 -23.5t-37 -17.5t-51.5 -7q-51 0 -91 20.5t-66 62.5q-26 -42 -65.5 -62.5t-90.5 -20.5q-87 0 -140.5 59.5t-53.5 181.5zM113 233q0 -61 8.5 -103.5t24.5 -69.5t38 -39.5t49 -12.5t49 12.5t38 39.5t24.5 69.5t8.5 103.5t-8.5 103.5t-24.5 69.5
t-38 39.5t-49 12.5t-49 -12.5t-38 -39.5t-24.5 -69.5t-8.5 -103.5zM428 180q16 -14 46 -14q25 0 54.5 10.5t55 32.5t42.5 56t17 81q0 18 -3.5 37.5t-14 36t-29.5 27.5t-50 11q-27 0 -49 -12.5t-38 -39.5t-24.5 -69.5t-8.5 -103.5v-27.5t2 -25.5z" />
    <glyph glyph-name="Scaron" unicode="&#x160;" horiz-adv-x="564" 
d="M374 815l-86 -94h-12l-86 94l27 10l65 -89l66 89zM50 526q0 45 17.5 79t48 57t71 34.5t86.5 11.5q37 0 63.5 -6.5t48.5 -15.5t43.5 -18.5t49.5 -16.5q-14 -33 -18.5 -68t-6.5 -89q0 -8 -5.5 -7.5t-5.5 7.5q0 34 -6.5 69.5t-25 64.5t-51 47t-84.5 18q-35 0 -65 -9
t-52.5 -26t-35 -43t-12.5 -60q0 -40 17.5 -66t46 -44t64.5 -31t74 -25t74 -26.5t64.5 -36.5t46 -53.5t17.5 -78.5t-16.5 -84t-46.5 -63.5t-71.5 -40.5t-90.5 -14q-42 0 -75.5 13t-59 29t-43.5 29t-29 13q-10 0 -12.5 -10.5t-2.5 -21.5v-44q0 -6 -7.5 -6t-7.5 6v182
q0 11 7 11t8 -8q5 -39 28.5 -71t56 -55.5t70 -36.5t69.5 -13q29 0 59.5 9t55 27t40 45t15.5 63q0 42 -17.5 71t-46.5 49t-66 33.5t-75.5 27t-75.5 28t-66 36t-46.5 52.5t-17.5 76z" />
    <glyph glyph-name="scaron" unicode="&#x161;" horiz-adv-x="390" 
d="M280 590l-86 -94h-12l-86 94l27 10l65 -89l66 89zM40 352q0 30 11 53t30.5 38t45.5 23t55 8q24 0 43 -4.5t36 -11.5t33 -14t35 -12q-11 -25 -14 -51t-5 -66q0 -6 -7.5 -5.5t-7.5 5.5q0 25 -5 50.5t-18 46t-34 33t-53 12.5q-37 0 -60 -23t-23 -64q0 -32 18.5 -50t46 -30.5
t59.5 -22.5t59.5 -26.5t46 -42.5t18.5 -70q0 -32 -12 -57t-33 -42.5t-48.5 -27t-58.5 -9.5q-27 0 -46.5 6t-34 13.5t-25.5 13.5t-20 6q-11 0 -13.5 -8.5t-2.5 -16.5v-8q0 -5 -7.5 -5t-7.5 5v136q0 8 7 7.5t8 -5.5q3 -29 17.5 -52.5t35 -40t43.5 -25.5t43 -9q18 0 36 5
t32.5 16.5t23 29t8.5 42.5q0 33 -19 52.5t-47 32.5t-61.5 23.5t-61.5 27.5t-47 43.5t-19 70.5z" />
    <glyph glyph-name="Ydieresis" unicode="&#x178;" horiz-adv-x="569" 
d="M225 763q0 14 9.5 23.5t24.5 9.5q14 0 23.5 -9.5t9.5 -23.5q0 -15 -9.5 -24.5t-23.5 -9.5q-15 0 -24.5 9.5t-9.5 24.5zM317 763q0 14 9.5 23.5t24.5 9.5q14 0 23.5 -9.5t9.5 -23.5q0 -15 -9.5 -24.5t-23.5 -9.5q-15 0 -24.5 9.5t-9.5 24.5zM221 0q-4 0 -4.5 4t4.5 5
q17 2 25.5 8.5t8.5 24.5v296l-141 283q-14 26 -39 46.5t-50 23.5q-5 1 -4.5 5t4.5 4h179q4 0 4.5 -4t-4.5 -5q-20 -2 -24 -17.5t8 -38.5l123 -248l131 248q13 23 10.5 38.5t-22.5 17.5q-5 1 -3.5 5t5.5 4h113q4 0 3.5 -4t-5.5 -5q-25 -3 -50 -23.5t-39 -46.5l-129 -243v-336
q0 -18 8.5 -24.5t25.5 -8.5q5 -1 4.5 -5t-4.5 -4h-138z" />
    <glyph glyph-name="Zcaron" unicode="&#x17d;" horiz-adv-x="581" 
d="M414 815l-86 -94h-12l-86 94l27 10l65 -89l66 89zM192 685q-17 0 -31 -4t-24.5 -14.5t-18 -29.5t-11.5 -49q-1 -7 -5.5 -6.5t-3.5 6.5l13 112h420l-3 -36l-362 -610q-11 -19 -2.5 -29t29.5 -10h205q45 0 70.5 22t34.5 82q1 7 5.5 6.5t3.5 -6.5l-14 -119h-448l391 658
q9 16 6.5 21.5t-28.5 5.5h-227z" />
    <glyph glyph-name="zcaron" unicode="&#x17e;" horiz-adv-x="415" 
d="M323 589l-86 -94h-12l-86 94l27 10l65 -89l66 89zM285 424q10 16 7 21.5t-29 5.5h-97q-35 0 -48 -22.5t-20 -74.5q-1 -7 -4.5 -6.5t-4.5 6.5l-10 112h296l-3 -36l-223 -376q-11 -19 -2.5 -29t29.5 -10h86q22 0 36.5 6.5t23.5 21t14.5 36t10.5 51.5q1 7 5 6.5t4 -6.5
l6 -130h-310q-19 0 -9 17z" />
    <glyph glyph-name="circumflex" unicode="&#x2c6;" horiz-adv-x="264" 
d="M224 614l-26 -10l-66 89l-65 -89l-27 10l86 94h12z" />
    <glyph glyph-name="caron" unicode="&#x2c7;" horiz-adv-x="264" 
d="M224 698l-86 -94h-12l-86 94l27 10l65 -89l66 89z" />
    <glyph glyph-name="breve" unicode="&#x2d8;" 
d="M71 700q0 -11 0.5 -23t4 -22t10.5 -17t20 -7t20 7t10.5 17t4 22t0.5 23h30q1 -23 -4 -38.5t-14.5 -25t-21.5 -13.5t-25 -4t-25 4t-21.5 13.5t-15 25t-3.5 38.5h30z" />
    <glyph glyph-name="dotaccent" unicode="&#x2d9;" horiz-adv-x="159" 
d="M40 661q0 16 11 27.5t29 11.5q16 0 27.5 -11.5t11.5 -27.5q0 -18 -11.5 -29t-27.5 -11q-18 0 -29 11t-11 29z" />
    <glyph glyph-name="ring" unicode="&#x2da;" 
d="M40 641q0 31 20.5 42t46.5 11q12 0 23.5 -2.5t20.5 -8.5t15 -16.5t6 -25.5q0 -17 -6 -27.5t-15 -17t-20.5 -9t-23.5 -2.5q-26 0 -46.5 11.5t-20.5 44.5zM70 641q0 -20 10 -30.5t27 -10.5q15 0 25 10.5t10 30.5t-10 29t-25 9q-17 0 -27 -9t-10 -29z" />
    <glyph glyph-name="ogonek" unicode="&#x2db;" horiz-adv-x="184" 
d="M144 -1l-24 -53q-23 -5 -39.5 -23t-16.5 -45q0 -22 9.5 -31t20.5 -9q14 0 17 11l17 -15q-3 -5 -12 -10t-21 -5q-23 0 -39 14t-16 42q0 27 16.5 50.5t46.5 33.5l23 43z" />
    <glyph glyph-name="tilde" unicode="&#x2dc;" horiz-adv-x="302" 
d="M255 713q1 5 4 5t3 -5q0 -8 -2.5 -19t-9 -21t-17.5 -17t-27 -7q-19 0 -33.5 7.5t-28 16.5t-27 16.5t-31.5 7.5q-15 0 -25.5 -11.5t-12.5 -30.5q0 -5 -4 -5t-4 5q0 24 15.5 43t39.5 19q18 0 32 -7.5t27.5 -16t28 -16t33.5 -7.5q17 0 26.5 12.5t12.5 30.5z" />
    <glyph glyph-name="endash" unicode="&#x2013;" horiz-adv-x="435" 
d="M50 362h335v-23h-335v23z" />
    <glyph glyph-name="emdash" unicode="&#x2014;" horiz-adv-x="700" 
d="M50 362h600v-23h-600v23z" />
    <glyph glyph-name="quoteleft" unicode="&#x2018;" horiz-adv-x="181" 
d="M133 699q-9 -5 -16.5 -12t-11 -14t-3 -14t7.5 -11q16 -5 23.5 -17.5t7.5 -29.5q0 -22 -14 -36t-37 -14q-25 0 -38 16t-11 39q1 14 7.5 30t17.5 30.5t25.5 25.5t32.5 16q11 3 14 -0.5t-5 -8.5z" />
    <glyph glyph-name="quoteright" unicode="&#x2019;" horiz-adv-x="181" 
d="M48 561q19 10 27.5 26t-4.5 25q-16 5 -23.5 17.5t-7.5 29.5q0 22 14 36t37 14q25 0 38 -16t11 -39q-1 -14 -7.5 -30t-17.5 -30.5t-25.5 -25.5t-32.5 -16q-11 -3 -14 0.5t5 8.5z" />
    <glyph glyph-name="quotedblleft" unicode="&#x201c;" horiz-adv-x="316" 
d="M133 699q-9 -5 -16.5 -12t-11 -14t-3 -14t7.5 -11q16 -5 23.5 -17.5t7.5 -29.5q0 -22 -14 -36t-37 -14q-25 0 -38 16t-11 39q1 14 7.5 30t17.5 30.5t25.5 25.5t32.5 16q11 3 14 -0.5t-5 -8.5zM268 699q-9 -5 -16.5 -12t-11 -14t-3 -14t7.5 -11q16 -5 23.5 -17.5
t7.5 -29.5q0 -22 -14 -36t-37 -14q-25 0 -38 16t-11 39q1 14 7.5 30t17.5 30.5t25.5 25.5t32.5 16q11 3 14 -0.5t-5 -8.5z" />
    <glyph glyph-name="quotedblright" unicode="&#x201d;" horiz-adv-x="316" 
d="M183 561q19 10 27.5 26t-4.5 25q-16 5 -23.5 17.5t-7.5 29.5q0 22 14 36t37 14q25 0 38 -16t11 -39q-1 -14 -7.5 -30t-17.5 -30.5t-25.5 -25.5t-32.5 -16q-11 -3 -14 0.5t5 8.5zM48 561q19 10 27.5 26t-4.5 25q-16 5 -23.5 17.5t-7.5 29.5q0 22 14 36t37 14q25 0 38 -16
t11 -39q-1 -14 -7.5 -30t-17.5 -30.5t-25.5 -25.5t-32.5 -16q-11 -3 -14 0.5t5 8.5z" />
    <glyph glyph-name="ellipsis" unicode="&#x2026;" horiz-adv-x="438" 
d="M30 36q0 18 12 30t32 12q18 0 30 -12t12 -30q0 -20 -12 -32t-30 -12q-20 0 -32 12t-12 32zM176 36q0 18 12 30t32 12q18 0 30 -12t12 -30q0 -20 -12 -32t-30 -12q-20 0 -32 12t-12 32zM322 36q0 18 12 30t32 12q18 0 30 -12t12 -30q0 -20 -12 -32t-30 -12q-20 0 -32 12
t-12 32z" />
    <glyph glyph-name="fraction" unicode="&#x2044;" horiz-adv-x="482" 
d="M40 0l357 700h45l-357 -700h-45z" />
    <glyph glyph-name="Euro" unicode="&#x20ac;" horiz-adv-x="625" 
d="M197 316q0 -14 0.5 -27.5t1.5 -26.5h189q8 0 8 -8q0 -9 -8 -9h-187q13 -120 66.5 -178.5t134.5 -58.5q30 0 55.5 8t45.5 20.5t36.5 29t28.5 33.5q5 6 10 2.5t1 -9.5q-11 -18 -27.5 -36t-39 -32.5t-50.5 -23t-62 -8.5q-54 0 -100 18t-81 51t-58 79.5t-32 104.5h-80
q-9 0 -9 8v1q0 8 9 8h78q-3 25 -3 54q0 28 3 55h-78q-9 0 -9 8v1q0 8 9 8h80q8 58 30 104.5t55.5 79.5t78 50.5t98.5 17.5q39 0 68.5 -9t49.5 -26q13 -6 24 -6q15 0 23 10.5t13 36.5q2 8 9 6t6 -7l-21 -199q-1 -8 -8.5 -7t-6.5 8q2 35 -4.5 67t-24.5 56.5t-49 39t-79 14.5
q-75 0 -126 -58.5t-64 -177.5h187q8 0 8 -8q0 -9 -8 -9h-189q-1 -13 -1.5 -27t-0.5 -28z" />
    <glyph glyph-name="trademark" unicode="&#x2122;" horiz-adv-x="767" 
d="M126 305q-2 0 -2 2.5t2 2.5q10 2 14.5 5t4.5 14v347q0 11 -4.5 13.5t-14.5 2.5h-19q-28 0 -43.5 -16t-23.5 -51q-1 -5 -3 -4.5t-2 4.5l13 75h234l13 -75q1 -4 -1.5 -4.5t-3.5 4.5q-8 35 -23 51t-44 16h-19q-9 0 -14 -2.5t-5 -13.5v-347q0 -11 5 -14t14 -5q3 0 2.5 -2.5
t-2.5 -2.5h-78zM355 695q-3 1 -2.5 3t2.5 2h51l126 -332l132 332h50q2 0 2 -2t-2 -3q-9 -2 -15 -5t-6 -14l18 -347q1 -11 7 -14t16 -5q3 0 2.5 -2.5t-2.5 -2.5h-84q-2 0 -2.5 2.5t2.5 2.5q9 2 15 5t6 14l-17 319l-136 -343h-5l-131 342l-16 -318q-1 -11 5 -14t15 -5
q3 0 3 -2.5t-3 -2.5h-51q-3 0 -3 2.5t3 2.5q10 2 16 5t6 14l18 347q1 11 -5 14t-15 5z" />
    <glyph glyph-name="minus" unicode="&#x2212;" horiz-adv-x="435" 
d="M50 362h335v-23h-335v23z" />
    <glyph glyph-name="ampersand.alt1" unicode="&#xe000;" horiz-adv-x="631" 
d="M591 0h-93l-71 91q-30 -44 -76 -71.5t-114 -27.5q-92 0 -144.5 52.5t-52.5 152.5q0 42 11 76.5t30.5 61t46.5 43.5t58 24q-22 32 -32.5 60.5t-10.5 60.5q0 52 36.5 84t105.5 32q19 0 35.5 -4t31 -9t27.5 -9t26 -4q17 0 31 20q3 5 8.5 4t-0.5 -11q-15 -26 -21 -55.5
t-7 -74.5q0 -8 -5.5 -7.5t-5.5 7.5q-1 20 -7.5 42.5t-19.5 41.5t-33.5 31.5t-50.5 12.5q-37 0 -60.5 -17t-23.5 -54q0 -41 24 -85t65 -95l152 -194q14 40 22.5 82.5t12.5 84.5q2 16 -8.5 27.5t-34.5 14.5q-4 1 -4.5 5.5t4.5 4.5h114q11 0 9.5 -7t-9.5 -7q-25 0 -37 -11.5
t-14 -30.5q-5 -42 -14.5 -88.5t-27.5 -91.5zM232 340q-10 13 -19 24.5t-17 22.5q-20 -7 -35.5 -25.5t-26 -43.5t-16 -55.5t-5.5 -61.5q0 -41 6 -75.5t21 -60t40.5 -40t64.5 -14.5q60 0 101 26.5t69 68.5z" />
    <glyph glyph-name="a.ss01" unicode="&#xe001;" horiz-adv-x="461" 
d="M342 0q-20 0 -20 20v61q-7 -15 -19.5 -31t-29.5 -29t-39.5 -21t-49.5 -8q-29 0 -55 7.5t-46 24t-31.5 43.5t-11.5 66q0 37 11.5 62.5t32.5 42.5t51 29.5t67 24.5q21 7 42 15t37.5 16.5t27.5 17t13 16.5q-1 20 -6 38t-15 31.5t-26 21t-39 7.5q-33 0 -56.5 -9.5t-39 -25.5
t-22.5 -37t-7 -45q0 -4 -4 -4.5t-5 4.5q-3 30 -6 51.5t-8 40.5q-3 4 -3 7q-21 85 -62.5 165t-98.5 153q-62 -42 -128.5 -79.5t-140.5 -65t-158 -44t-181 -16.5q-50 0 -101.5 6.5t-99.5 20.5t-90 37t-73.5 56t-50 77t-18.5 101q0 72 34 125t88 88.5t121 53t133 17.5
q90 0 181.5 -25t178.5 -70.5t165.5 -111t143.5 -146.5q28 20 55 39.5t54 39.5q-48 50 -86.5 105t-66.5 115q-20 41 -31.5 70.5t-11.5 62.5q0 19 7 27t15 8q16 0 29.5 -2.5t11.5 -3.5q-20 -3 -28.5 -23t-0.5 -52q23 -84 68 -158.5t107 -139.5q73 54 147 105.5t154.5 91.5
t171.5 64.5t198 24.5q84 0 158 -15.5t129.5 -50.5t88 -91.5t32.5 -139.5q0 -85 -33.5 -144t-88 -96t-125 -54t-144.5 -17q-93 0 -187 21.5t-182.5 60.5t-170 94.5t-148.5 123.5q-27 -20 -54.5 -40t-56.5 -40q55 -72 96.5 -153t66.5 -171q13 4 30.5 9.5t36 11t36.5 9t33 3.5
q22 0 49 -7.5t50 -24.5t39 -45t16 -68v-287q0 -18 8.5 -24.5t25.5 -8.5q5 -1 4.5 -5t-4.5 -4h-84zM63 854q67 -68 148 -122t169.5 -91.5t180.5 -58t181 -20.5q69 0 135.5 15.5t118 50.5t83.5 91t32 137q0 79 -30.5 132.5t-83.5 86.5t-123.5 47t-150.5 14q-105 0 -193.5 -24
t-168 -63.5t-152.5 -90t-146 -104.5zM-87 769q-62 76 -137.5 139.5t-160 109.5t-175 71.5t-181.5 25.5q-65 0 -129 -16t-115 -49.5t-82.5 -85t-31.5 -122.5q0 -53 18 -93.5t49 -71t72.5 -51.5t87.5 -34t94 -19t93 -6q95 0 177.5 16t155.5 43.5t138.5 64t126.5 78.5zM322 333
q-15 -16 -46 -29.5t-63 -27.5q-49 -21 -74.5 -53.5t-25.5 -89.5q0 -52 21 -86t62 -34q27 0 50.5 12.5t40 31.5t26 40t9.5 39v197z" />
    <glyph glyph-name="b.ss01" unicode="&#xe002;" horiz-adv-x="487" 
d="M39 0q-4 0 -4.5 4t4.5 5q17 2 25.5 8.5t8.5 24.5v360q0 104 21.5 194t62.5 168q-32 22 -62 43.5t-61 44.5q-56 -62 -128 -117.5t-157 -97.5t-182 -67t-203 -25q-74 0 -144.5 17t-125.5 54t-88 96t-33 144q0 83 33.5 139.5t90.5 91.5t132.5 50.5t159.5 15.5
q99 0 184 -23.5t162.5 -61.5t149.5 -88t144 -102q54 64 92.5 136t55.5 151q7 32 -1 52t-28 23q-2 1 11.5 3.5t29.5 2.5q8 0 14.5 -8t7.5 -27q1 -34 -9.5 -75t-31.5 -86t-52.5 -91.5t-71.5 -92.5q29 -22 59 -43.5t61 -42.5q46 84 112 149.5t145.5 110.5t170 68.5t186.5 23.5
q95 0 175.5 -17.5t139 -53t91.5 -88.5t33 -125q0 -57 -18.5 -101t-50 -77t-73.5 -56t-90 -37t-99.5 -20.5t-101.5 -6.5q-92 0 -172.5 14.5t-152.5 40t-137 59.5t-125 73q-56 -136 -56 -312v-10q41 59 120 59q39 0 72.5 -14t58 -43t39 -75t14.5 -109t-14.5 -109t-39 -75
t-58 -43t-72.5 -14q-79 0 -120 59v-31q0 -20 -20 -20h-84zM17 864q-71 52 -142.5 101t-147.5 87t-160 61t-180 23q-80 0 -152 -14t-126 -47t-86 -86.5t-32 -132.5q0 -81 32 -137t83.5 -91t118 -50.5t135.5 -15.5q90 0 180.5 21.5t176 61t162.5 95t138 124.5zM207 753
q60 -39 124 -72.5t135.5 -59t151 -40t169.5 -14.5q45 0 93 6t94 19t87.5 34t72.5 51.5t49 71t18 93.5q0 71 -34 122.5t-89.5 85t-126.5 49.5t-146 16q-104 0 -196.5 -24t-169 -70t-135.5 -113.5t-97 -154.5zM143 84q18 -40 45.5 -58t62.5 -18q58 0 90.5 51.5t32.5 173.5
t-32.5 173.5t-90.5 51.5q-35 0 -62.5 -18t-45.5 -58v-298z" />
    <glyph glyph-name="c.ss01" unicode="&#xe003;" horiz-adv-x="424" 
d="M113 233q0 -61 10.5 -103.5t28.5 -69t42 -38.5t51 -12q33 0 59.5 13t49.5 49q4 6 11 4t1 -12q-7 -11 -17.5 -24t-26 -23.5t-37 -17.5t-51.5 -7q-87 0 -140.5 59.5t-53.5 181.5q0 121 53.5 181t140.5 60q38 0 68.5 -11.5t62.5 -20.5l-1 1q20 84 6.5 165t-52.5 156
q-64 -43 -132.5 -81.5t-145 -68t-162.5 -46.5t-185 -17q-50 0 -101.5 6.5t-99.5 20.5t-90 37t-73.5 56t-50 77t-18.5 101q0 72 31.5 125t88 88.5t135 53t173.5 17.5q102 0 198 -25t179.5 -70t150.5 -107.5t111 -138.5q25 17 49 34.5t48 34.5q-47 50 -84.5 103.5t-65.5 113.5
q-20 41 -31.5 70.5t-11.5 62.5q0 19 7 27t15 8q16 0 29.5 -2.5t11.5 -3.5q-20 -3 -28.5 -23t-0.5 -52q25 -81 70.5 -154t106.5 -138q73 53 147.5 103.5t155 89.5t170.5 63t196 24q84 0 158 -15.5t129.5 -50.5t88 -91.5t32.5 -139.5q0 -85 -33.5 -144t-88 -96t-125 -54
t-144.5 -17q-93 0 -187.5 21.5t-184 61.5t-171 95.5t-148.5 124.5l-50 -36t-51 -36q41 -76 54.5 -161.5t-6.5 -177.5q-7 -20 -10 -43t-6 -56q-1 -5 -5 -4.5t-4 4.5q0 24 -7 45.5t-22.5 38t-39.5 26.5t-57 10q-27 0 -49 -12.5t-38 -39.5t-24.5 -69.5t-8.5 -103.5zM454 860
q67 -68 147.5 -123t169 -94t180.5 -60t181 -21q69 0 135.5 15.5t118 50.5t83.5 91t32 137q0 79 -30.5 132.5t-83.5 86.5t-123.5 47t-150.5 14q-104 0 -192.5 -23.5t-168 -62t-152.5 -88.5t-146 -102zM310 780q-41 72 -105 133.5t-144.5 106.5t-175 70.5t-197.5 25.5
q-86 0 -160.5 -16t-130 -49.5t-87.5 -85t-32 -122.5q0 -53 18 -93.5t49 -71t72.5 -51.5t87.5 -34t94 -19t93 -6q98 0 183 17t160.5 46t143 67.5t131.5 81.5z" />
    <glyph glyph-name="d.ss01" unicode="&#xe004;" horiz-adv-x="483" 
d="M364 0q-20 0 -20 20v31q-41 -59 -120 -59q-39 0 -72.5 14t-58 43t-39 75t-14.5 109t14.5 109t39 75t58 43t72.5 14q79 0 120 -59v10q0 176 -56 312q-60 -39 -125 -73t-137 -59.5t-153 -40t-172 -14.5q-50 0 -101.5 6.5t-99.5 20.5t-90 37t-73.5 56t-50 77t-18.5 101
q0 72 33 125t91.5 88.5t139 53t175.5 17.5q96 0 186.5 -23.5t170 -68.5t145 -110.5t112.5 -149.5q27 18 52.5 36.5t51.5 37.5q-99 102 -156 224q-20 41 -31.5 70.5t-11.5 62.5q0 19 7 27t15 8q16 0 29.5 -2.5t11.5 -3.5q-20 -3 -28.5 -23t-0.5 -52q23 -85 69 -160.5
t109 -141.5q75 54 149 106.5t153.5 93t167.5 65.5t190 25q84 0 159.5 -15.5t132.5 -50.5t90.5 -91.5t33.5 -139.5q0 -85 -33.5 -144t-88 -96t-125 -54t-144.5 -17q-92 0 -185.5 21t-182 59.5t-169.5 93t-148 122.5q-27 -20 -53.5 -39t-54.5 -38q41 -78 62.5 -168t21.5 -194
v-360q0 -18 8.5 -24.5t25.5 -8.5q5 -1 4.5 -5t-4.5 -4h-84zM451 851q67 -67 148 -120.5t169 -91t179.5 -57.5t179.5 -20q69 0 135.5 15.5t118 50.5t83.5 91t32 137q0 79 -32 132.5t-86 86.5t-126 47t-152 14q-100 0 -186 -24.5t-164.5 -64t-151.5 -91t-147 -105.5zM280 753
q-38 87 -97.5 154.5t-136 113.5t-168.5 70t-196 24q-75 0 -146 -16t-126.5 -49.5t-89.5 -85t-34 -122.5q0 -53 18 -93.5t49 -71t72.5 -51.5t87.5 -34t94 -19t93 -6q90 0 169.5 14.5t151 40t135.5 59t124 72.5zM344 382q-18 40 -45.5 58t-62.5 18q-58 0 -90.5 -51.5
t-32.5 -173.5t32.5 -173.5t90.5 -51.5q35 0 62.5 18t45.5 58v298z" />
    <glyph glyph-name="e.ss01" unicode="&#xe005;" horiz-adv-x="432" 
d="M763 1132q76 0 144.5 -17.5t120 -53t81.5 -88.5t30 -125q0 -57 -18.5 -101t-50 -77t-73.5 -56t-90 -37t-99.5 -20.5t-101.5 -6.5q-94 0 -176 15.5t-155 42t-138 62t-126 76.5q-56 -95 -74 -201t14 -217q19 74 66.5 110t116.5 36q44 0 74.5 -11.5t49 -31t26.5 -44t8 -49.5
q0 -41 -16 -72t-42 -52t-58.5 -31.5t-66.5 -10.5q-26 0 -50 6t-45 19q3 -51 14.5 -86.5t29 -58t40 -32.5t47.5 -10q33 0 59.5 13t49.5 49q4 6 11 4t1 -12q-7 -11 -17.5 -24t-26 -23.5t-37 -17.5t-51.5 -7q-87 0 -140.5 59.5t-53.5 181.5q0 29 3 55q-43 126 -25.5 245
t78.5 223q-32 22 -63 44t-61 45q-68 -68 -149 -123.5t-169.5 -94.5t-182.5 -60.5t-187 -21.5q-74 0 -144.5 17t-125.5 54t-88 96t-33 144q0 83 32 139.5t87.5 91.5t130 50.5t158.5 15.5q107 0 198 -24.5t171.5 -64.5t154.5 -91.5t147 -105.5q62 65 107 139.5t68 158.5
q8 32 -0.5 52t-28.5 23q-2 1 11.5 3.5t29.5 2.5q8 0 15 -8t7 -27q0 -33 -12 -62.5t-31 -70.5q-28 -60 -66.5 -115t-86.5 -105q29 -22 59 -43.5t61 -42.5q50 79 121.5 145.5t158 114t183 74t195.5 26.5zM-41 854q-73 54 -146 104.5t-152.5 90t-168 63.5t-193.5 24
q-80 0 -150.5 -14t-123.5 -47t-83.5 -86.5t-30.5 -132.5q0 -81 32 -137t83.5 -91t118 -50.5t135.5 -15.5q89 0 181 20.5t180.5 58t169.5 91.5t148 122zM120 762q60 -40 124.5 -75.5t136.5 -62t152.5 -42t173.5 -15.5q45 0 93 6t94 19t87.5 34t72.5 51.5t49 71t18 93.5
q0 71 -29 122.5t-78 85t-114 49.5t-137 16q-98 0 -192.5 -26t-178.5 -73t-154 -112t-118 -142zM113 219q15 -14 35.5 -20.5t42.5 -6.5q25 0 49.5 9t44.5 28t32.5 48t12.5 69q0 18 -3.5 37.5t-14 36t-29.5 27.5t-50 11q-43 0 -67 -26t-36 -63t-14.5 -78.5t-2.5 -71.5z" />
    <glyph glyph-name="f.ss01" unicode="&#xe006;" horiz-adv-x="322" 
d="M43 0q-4 0 -4.5 4t4.5 5q17 2 25.5 8.5t8.5 24.5v409h-45q-7 0 -7 7v1q0 7 7 7h45v19q0 64 31.5 97.5t85.5 33.5q29 0 53 -11t45 -19q7 45 -4 92.5t-38 96.5q-66 -45 -136 -85.5t-148 -71.5t-166.5 -49t-190.5 -18q-50 0 -101.5 6.5t-99.5 20.5t-90 37t-73.5 56t-50 77
t-18.5 101q0 72 31.5 125t88 88.5t135 53t173.5 17.5q110 0 211 -26.5t186 -71.5t151 -105t107 -127q5 4 10 7.5t10 6.5l41 30q5 3 10 6.5t10 7.5q-47 50 -84.5 103.5t-65.5 113.5q-20 41 -31.5 70.5t-11.5 62.5q0 19 7 27t15 8q16 0 29.5 -2.5t11.5 -3.5q-20 -3 -28.5 -23
t-0.5 -52q25 -81 70.5 -154t106.5 -138q73 53 147.5 103.5t155 89.5t170.5 63t196 24q84 0 158 -15.5t129.5 -50.5t88 -91.5t32.5 -139.5q0 -85 -33.5 -144t-88 -96t-125 -54t-144.5 -17q-93 0 -187.5 21.5t-184 61.5t-171 95.5t-148.5 124.5l-85 -61q29 -51 40.5 -104
t3.5 -104q-5 -21 -9 -43.5t-7 -55.5q-1 -5 -5 -4.5t-4 4.5q0 24 -5 45t-15.5 37t-27 25.5t-39.5 9.5q-20 0 -30.5 -11t-15.5 -28.5t-6 -39.5t-1 -44v-8h68q7 0 7 -8q0 -7 -7 -7h-68v-409q0 -18 8.5 -24.5t25.5 -8.5q5 -1 4.5 -5t-4.5 -4h-138zM370 860q67 -68 147.5 -123
t169 -94t180.5 -60t181 -21q69 0 135.5 15.5t118 50.5t83.5 91t32 137q0 79 -30.5 132.5t-83.5 86.5t-123.5 47t-150.5 14q-104 0 -192.5 -23.5t-168 -62t-152.5 -88.5t-146 -102zM241 790q-38 63 -100.5 122t-144.5 104.5t-181.5 72.5t-210.5 27q-86 0 -160.5 -16
t-130 -49.5t-87.5 -85t-32 -122.5q0 -53 18 -93.5t49 -71t72.5 -51.5t87.5 -34t94 -19t93 -6q101 0 188 18t164 48.5t146.5 70.5t134.5 85z" />
    <glyph glyph-name="g.ss01" unicode="&#xe007;" horiz-adv-x="484" 
d="M447 466q8 0 7 -4.5t-6 -4.5q-13 0 -20 -6t-10 -15t-3.5 -20t-0.5 -21v-363q0 -66 -15 -127.5t-39 -117.5t-54.5 -105t-61.5 -88q23 -15 47 -30.5t47 -31.5q73 90 172 164t210 126.5t226 81.5t220 29q91 0 180.5 -18t160 -61t114.5 -115t44 -179q0 -90 -33.5 -163
t-96.5 -124.5t-153 -79.5t-203 -28q-121 0 -230 29.5t-211.5 77.5t-200.5 110t-196 128q-60 -78 -94 -165t-34 -182q0 -17 4 -39t13.5 -41.5t24.5 -32.5t37 -13q9 0 18 3q3 2 4.5 -0.5t-2.5 -5.5q-2 -1 -9.5 -5.5t-17 -9t-18 -8t-12.5 -3.5q-17 0 -29 15.5t-19 39t-10 50
t-3 48.5q0 98 36 188t98 171q-23 16 -47 31t-47 30q-20 -25 -38.5 -44.5t-34.5 -34.5q-80 -79 -171 -147t-191.5 -118.5t-209 -79.5t-223.5 -29q-81 0 -163 22.5t-148 68t-108 114.5t-42 162q0 107 38.5 183.5t105.5 125t157.5 71.5t195.5 23q123 0 234 -24t212.5 -64.5
t195 -93.5t183.5 -111q21 29 42 67.5t37.5 88t27 110.5t10.5 136v44q-41 -59 -120 -59q-39 0 -72.5 14t-58 43t-39 75t-14.5 109t14.5 109t39 75t58 43t72.5 14q79 0 120 -59v39q0 12 12 12h91zM344 382q-18 40 -45.5 58t-62.5 18q-58 0 -90.5 -51.5t-32.5 -173.5
t32.5 -173.5t90.5 -51.5q35 0 62.5 18t45.5 58v298zM352 -477q97 -65 194 -126.5t198 -109t208.5 -76.5t226.5 -29q109 0 196 26.5t147.5 76t92.5 119.5t32 156q0 103 -42.5 172t-110.5 109.5t-154.5 57.5t-173.5 17q-104 0 -217 -28t-222 -80t-206.5 -124.5t-168.5 -160.5z
M-634 -855q92 0 180 19t171 53.5t160.5 82.5t148.5 105q32 26 62 53t59 55q12 14 30.5 33t39.5 46q-89 57 -182 109.5t-193 92.5t-209.5 63.5t-230.5 23.5q-95 0 -181.5 -21t-152.5 -67t-105 -120t-39 -180q0 -59 19.5 -107.5t52.5 -87t77 -67.5t93 -48t100.5 -28.5
t99.5 -9.5z" />
    <glyph glyph-name="h.ss01" unicode="&#xe008;" horiz-adv-x="471" 
d="M39 0q-4 0 -4.5 4t4.5 5q17 2 25.5 8.5t8.5 24.5v360q0 104 21.5 194t62.5 168q-32 22 -62 43.5t-61 44.5q-56 -62 -128 -117.5t-157 -97.5t-182 -67t-203 -25q-74 0 -144.5 17t-125.5 54t-88 96t-33 144q0 83 33.5 139.5t90.5 91.5t132.5 50.5t159.5 15.5
q99 0 184 -23.5t162.5 -61.5t149.5 -88t144 -102q54 64 92.5 136t55.5 151q7 32 -1 52t-28 23q-2 1 11.5 3.5t29.5 2.5q8 0 14.5 -8t7.5 -27q1 -34 -9.5 -75t-31.5 -86t-52.5 -91.5t-71.5 -92.5q29 -22 59 -43.5t61 -42.5q46 84 112 149.5t145.5 110.5t170 68.5t186.5 23.5
q95 0 175.5 -17.5t139 -53t91.5 -88.5t33 -125q0 -57 -18.5 -101t-50 -77t-73.5 -56t-90 -37t-99.5 -20.5t-101.5 -6.5q-92 0 -172.5 14.5t-152.5 40t-137 59.5t-125 73q-56 -136 -56 -312v-2q17 21 43.5 36t66.5 15q73 0 111 -38.5t38 -101.5v-292q0 -18 8.5 -24.5
t25.5 -8.5q5 -1 4.5 -5t-4.5 -4h-138q-4 0 -4.5 4t4.5 5q17 2 25.5 8.5t8.5 24.5v295q0 55 -23.5 86.5t-69.5 31.5q-23 0 -41 -9t-30 -21.5t-18.5 -25.5t-6.5 -22v-335q0 -18 8.5 -24.5t25.5 -8.5q5 -1 4.5 -5t-4.5 -4h-138zM17 864q-71 52 -142.5 101t-147.5 87t-160 61
t-180 23q-80 0 -152 -14t-126 -47t-86 -86.5t-32 -132.5q0 -81 32 -137t83.5 -91t118 -50.5t135.5 -15.5q90 0 180.5 21.5t176 61t162.5 95t138 124.5zM207 753q60 -39 124 -72.5t135.5 -59t151 -40t169.5 -14.5q45 0 93 6t94 19t87.5 34t72.5 51.5t49 71t18 93.5
q0 71 -34 122.5t-89.5 85t-126.5 49.5t-146 16q-104 0 -196.5 -24t-169 -70t-135.5 -113.5t-97 -154.5z" />
    <glyph glyph-name="i.ss01" unicode="&#xe009;" 
d="M64 560q0 18 11 29.5t30 11.5q11 0 21 -5q0 37 -7 74t-20 74q-61 -40 -126.5 -75t-138.5 -61.5t-154.5 -41.5t-174.5 -15q-50 0 -101.5 6.5t-99.5 20.5t-90 37t-73.5 56t-50 77t-18.5 101q0 72 31.5 125t88 88.5t135 53t173.5 17.5q116 0 214.5 -27.5t176.5 -76
t133.5 -114.5t86.5 -142q32 22 63 43.5t62 44.5q-47 50 -84.5 103.5t-65.5 113.5q-20 41 -31.5 70.5t-11.5 62.5q0 19 7 27t15 8q16 0 29.5 -2.5t11.5 -3.5q-20 -3 -28.5 -23t-0.5 -52q25 -81 70.5 -154t106.5 -138q73 53 147.5 103.5t155 89.5t170.5 63t196 24
q84 0 158 -15.5t129.5 -50.5t88 -91.5t32.5 -139.5q0 -85 -33.5 -144t-88 -96t-125 -54t-144.5 -17q-93 0 -187.5 21.5t-184 61.5t-171 95.5t-148.5 124.5q-32 -23 -65 -46.5t-67 -46.5q17 -47 24.5 -95.5t3.5 -99.5q0 -18 -11 -29.5t-29 -11.5q-19 0 -30 11.5t-11 29.5z
M266 860q67 -68 147.5 -123t169 -94t180.5 -60t181 -21q69 0 135.5 15.5t118 50.5t83.5 91t32 137q0 79 -30.5 132.5t-83.5 86.5t-123.5 47t-150.5 14q-104 0 -192.5 -23.5t-168 -62t-152.5 -88.5t-146 -102zM93 761q-28 71 -80 135.5t-126.5 113t-171.5 77.5t-215 29
q-86 0 -160.5 -16t-130 -49.5t-87.5 -85t-32 -122.5q0 -53 18 -93.5t49 -71t72.5 -51.5t87.5 -34t94 -19t93 -6q92 0 173 15t153 41.5t137 61.5t126 75zM39 0q-4 0 -4.5 4t4.5 5q17 2 25.5 8.5t8.5 24.5v353q0 21 -9 34.5t-33 13.5q-5 0 -6 2.5t7 4.5l111 24v-432
q0 -18 8.5 -24.5t25.5 -8.5q5 -1 4.5 -5t-4.5 -4h-138z" />
    <glyph glyph-name="j.ss01" unicode="&#xe00a;" horiz-adv-x="207" 
d="M61 560q0 18 11 29.5t30 11.5q18 0 29 -11.5t11 -29.5t-11 -29.5t-29 -11.5q-19 0 -30 11.5t-11 29.5zM139 32q0 -66 -15 -127.5t-39 -117.5t-54.5 -105t-61.5 -88q23 -15 47 -30.5t47 -31.5q73 90 172 164t210 126.5t226 81.5t220 29q91 0 180.5 -18t160 -61t114.5 -115
t44 -179q0 -90 -33.5 -163t-96.5 -124.5t-153 -79.5t-203 -28q-121 0 -230 29.5t-211.5 77.5t-200.5 110t-196 128q-60 -78 -94 -165t-34 -182q0 -17 4 -39t13.5 -41.5t24.5 -32.5t37 -13q9 0 18 3q3 2 4.5 -0.5t-2.5 -5.5q-2 -1 -9.5 -5.5t-17 -9t-18 -8t-12.5 -3.5
q-17 0 -29 15.5t-19 39t-10 50t-3 48.5q0 98 36 188t98 171q-23 16 -47 31t-47 30q-20 -25 -38.5 -44.5t-34.5 -34.5q-80 -79 -171 -147t-191.5 -118.5t-209 -79.5t-223.5 -29q-81 0 -163 22.5t-148 68t-108 114.5t-42 162q0 107 38.5 183.5t105.5 125t157.5 71.5t195.5 23
q123 0 234 -24t212.5 -64.5t195 -93.5t183.5 -111q21 29 42 67.5t37.5 88t27 110.5t10.5 136v388q0 21 -9 34.5t-33 13.5q-5 0 -6 2.5t7 4.5l111 24v-442zM77 -477q97 -65 194 -126.5t198 -109t208.5 -76.5t226.5 -29q109 0 196 26.5t147.5 76t92.5 119.5t32 156
q0 103 -42.5 172t-110.5 109.5t-154.5 57.5t-173.5 17q-104 0 -217 -28t-222 -80t-206.5 -124.5t-168.5 -160.5zM-909 -855q92 0 180 19t171 53.5t160.5 82.5t148.5 105q32 26 62 53t59 55q12 14 30.5 33t39.5 46q-89 57 -182 109.5t-193 92.5t-209.5 63.5t-230.5 23.5
q-95 0 -181.5 -21t-152.5 -67t-105 -120t-39 -180q0 -59 19.5 -107.5t52.5 -87t77 -67.5t93 -48t100.5 -28.5t99.5 -9.5z" />
    <glyph glyph-name="k.ss01" unicode="&#xe00b;" horiz-adv-x="452" 
d="M39 0q-4 0 -4.5 4t4.5 5q17 2 25.5 8.5t8.5 24.5v360q0 104 21.5 194t62.5 168q-32 22 -62 43.5t-61 44.5q-56 -62 -128 -117.5t-157 -97.5t-182 -67t-203 -25q-74 0 -144.5 17t-125.5 54t-88 96t-33 144q0 83 33.5 139.5t90.5 91.5t132.5 50.5t159.5 15.5
q99 0 184 -23.5t162.5 -61.5t149.5 -88t144 -102q54 64 92.5 136t55.5 151q7 32 -1 52t-28 23q-2 1 11.5 3.5t29.5 2.5q8 0 14.5 -8t7.5 -27q1 -34 -9.5 -75t-31.5 -86t-52.5 -91.5t-71.5 -92.5q29 -22 59 -43.5t61 -42.5q46 84 112 149.5t145.5 110.5t170 68.5t186.5 23.5
q95 0 175.5 -17.5t139 -53t91.5 -88.5t33 -125q0 -57 -18.5 -101t-50 -77t-73.5 -56t-90 -37t-99.5 -20.5t-101.5 -6.5q-92 0 -172.5 14.5t-152.5 40t-137 59.5t-125 73q-56 -136 -56 -312v-175l131 148q13 15 18 26t3.5 18t-7.5 10.5t-13 4.5q-4 1 -3.5 5t4.5 4h123
q4 0 4.5 -4t-4.5 -5q-19 -2 -47.5 -15.5t-60.5 -49.5l-46 -52l141 -288q8 -16 21 -28.5t30 -14.5q5 -1 4.5 -5t-4.5 -4h-146q-4 0 -4 4t4 5q16 2 19 14t-5 29l-112 229l-50 -57v-182q0 -18 8.5 -24.5t25.5 -8.5q5 -1 4.5 -5t-4.5 -4h-138zM17 864q-71 52 -142.5 101
t-147.5 87t-160 61t-180 23q-80 0 -152 -14t-126 -47t-86 -86.5t-32 -132.5q0 -81 32 -137t83.5 -91t118 -50.5t135.5 -15.5q90 0 180.5 21.5t176 61t162.5 95t138 124.5zM207 753q60 -39 124 -72.5t135.5 -59t151 -40t169.5 -14.5q45 0 93 6t94 19t87.5 34t72.5 51.5t49 71
t18 93.5q0 71 -34 122.5t-89.5 85t-126.5 49.5t-146 16q-104 0 -196.5 -24t-169 -70t-135.5 -113.5t-97 -154.5z" />
    <glyph glyph-name="l.ss01" unicode="&#xe00c;" 
d="M39 0q-4 0 -4.5 4t4.5 5q17 2 25.5 8.5t8.5 24.5v360q0 104 21.5 194t62.5 168q-32 22 -62 43.5t-61 44.5q-56 -62 -128 -117.5t-157 -97.5t-182 -67t-203 -25q-74 0 -144.5 17t-125.5 54t-88 96t-33 144q0 83 33.5 139.5t90.5 91.5t132.5 50.5t159.5 15.5
q99 0 184 -23.5t162.5 -61.5t149.5 -88t144 -102q54 64 92.5 136t55.5 151q7 32 -1 52t-28 23q-2 1 11.5 3.5t29.5 2.5q8 0 14.5 -8t7.5 -27q1 -34 -9.5 -75t-31.5 -86t-52.5 -91.5t-71.5 -92.5q29 -22 59 -43.5t61 -42.5q46 84 112 149.5t145.5 110.5t170 68.5t186.5 23.5
q95 0 175.5 -17.5t139 -53t91.5 -88.5t33 -125q0 -57 -18.5 -101t-50 -77t-73.5 -56t-90 -37t-99.5 -20.5t-101.5 -6.5q-92 0 -172.5 14.5t-152.5 40t-137 59.5t-125 73q-56 -136 -56 -312v-383q0 -18 8.5 -24.5t25.5 -8.5q5 -1 4.5 -5t-4.5 -4h-138zM17 864
q-71 52 -142.5 101t-147.5 87t-160 61t-180 23q-80 0 -152 -14t-126 -47t-86 -86.5t-32 -132.5q0 -81 32 -137t83.5 -91t118 -50.5t135.5 -15.5q90 0 180.5 21.5t176 61t162.5 95t138 124.5zM207 753q60 -39 124 -72.5t135.5 -59t151 -40t169.5 -14.5q45 0 93 6t94 19
t87.5 34t72.5 51.5t49 71t18 93.5q0 71 -34 122.5t-89.5 85t-126.5 49.5t-146 16q-104 0 -196.5 -24t-169 -70t-135.5 -113.5t-97 -154.5z" />
    <glyph glyph-name="m.ss01" unicode="&#xe00d;" horiz-adv-x="725" 
d="M39 0q-4 0 -4.5 4t4.5 5q17 2 25.5 8.5t8.5 24.5v353q0 21 -9 34.5t-33 13.5q-5 0 -6 2.5t7 4.5l111 24v-51q17 21 43.5 36t66.5 15q49 0 82.5 -18t50.5 -50q15 27 44 47.5t77 20.5q73 0 111 -38.5t38 -101.5v-327q0 -75 10.5 -136t27 -110.5t37.5 -88t42 -67.5
q90 58 183.5 111t195 93.5t212.5 64.5t234 24q105 0 195.5 -23t157.5 -71.5t105.5 -125t38.5 -183.5q0 -93 -42 -162t-108 -114.5t-148 -68t-163 -22.5q-115 0 -223.5 29t-209 79.5t-191.5 118.5t-171 147q-16 15 -34.5 34.5t-38.5 44.5q-23 -15 -47 -30t-47 -31
q62 -81 98 -171t36 -188q0 -22 -3 -48.5t-10 -50t-19 -39t-29 -15.5q-4 0 -12.5 3.5t-18 8t-17.5 9t-9 5.5q-4 3 -2.5 5.5t4.5 0.5q9 -3 18 -3q22 0 37 13t24.5 32.5t13.5 41.5t4 39q0 95 -34 182t-94 165q-98 -66 -196 -128t-200.5 -110t-211.5 -77.5t-230 -29.5
q-113 0 -203 28t-153 79.5t-96.5 124.5t-33.5 163q0 107 44 179t114.5 115t160 61t180.5 18q105 0 220 -28.5t226 -81t210 -126.5t172 -164q23 16 47 31t47 30q-31 39 -61.5 88t-54.5 105t-39 117.5t-15 127.5v305q0 55 -23.5 86.5t-69.5 31.5q-23 0 -41 -9t-30 -21.5
t-18.5 -25.5t-6.5 -22q5 -22 5 -43v-292q0 -18 8.5 -24.5t25.5 -8.5q5 -1 4.5 -5t-4.5 -4h-138q-4 0 -4.5 4t4.5 5q17 2 25.5 8.5t8.5 24.5v295q0 55 -23.5 86.5t-69.5 31.5q-23 0 -41 -9t-30 -21.5t-18.5 -25.5t-6.5 -22v-335q0 -18 8.5 -24.5t25.5 -8.5q5 -1 4.5 -5
t-4.5 -4h-138zM648 -477q-71 88 -168.5 160.5t-206.5 124.5t-222.5 80t-216.5 28q-87 0 -173.5 -17t-154.5 -57.5t-110.5 -109.5t-42.5 -172q0 -86 32 -156t92.5 -119.5t147.5 -76t196 -26.5q119 0 226.5 29t208.5 76.5t197.5 109t194.5 126.5zM1634 -855q48 0 99.5 9.5
t100.5 28.5t93 48t77 67.5t52.5 87t19.5 107.5q0 106 -39 180t-105 120t-152.5 67t-181.5 21q-122 0 -231 -23.5t-209 -63.5t-193 -92.5t-182 -109.5q21 -27 39.5 -46t30.5 -33q29 -28 59 -55t62 -53q71 -57 148.5 -105t160.5 -82.5t171 -53.5t180 -19z" />
    <glyph glyph-name="n.ss01" unicode="&#xe00e;" horiz-adv-x="471" 
d="M39 0q-4 0 -4.5 4t4.5 5q17 2 25.5 8.5t8.5 24.5v353q0 21 -9 34.5t-33 13.5q-5 0 -6 2.5t7 4.5l111 24v-51q17 21 43.5 36t66.5 15q73 0 111 -38.5t38 -101.5v-327q0 -75 10.5 -136t27 -110.5t37.5 -88t42 -67.5q90 58 183.5 111t195 93.5t212.5 64.5t234 24
q105 0 195.5 -23t157.5 -71.5t105.5 -125t38.5 -183.5q0 -93 -42 -162t-108 -114.5t-148 -68t-163 -22.5q-115 0 -223.5 29t-209 79.5t-191.5 118.5t-171 147q-16 15 -34.5 34.5t-38.5 44.5q-23 -15 -47 -30t-47 -31q62 -81 98 -171t36 -188q0 -22 -3 -48.5t-10 -50t-19 -39
t-29 -15.5q-4 0 -12.5 3.5t-18 8t-17.5 9t-9 5.5q-4 3 -2.5 5.5t4.5 0.5q9 -3 18 -3q22 0 37 13t24.5 32.5t13.5 41.5t4 39q0 95 -34 182t-94 165q-98 -66 -196 -128t-200.5 -110t-211.5 -77.5t-230 -29.5q-113 0 -203 28t-153 79.5t-96.5 124.5t-33.5 163q0 107 44 179
t114.5 115t160 61t180.5 18q105 0 220 -28.5t226 -81t210 -126.5t172 -164q23 16 47 31t47 30q-31 39 -61.5 88t-54.5 105t-39 117.5t-15 127.5v305q0 55 -23.5 86.5t-69.5 31.5q-23 0 -41 -9t-30 -21.5t-18.5 -25.5t-6.5 -22v-335q0 -18 8.5 -24.5t25.5 -8.5q5 -1 4.5 -5
t-4.5 -4h-138zM394 -477q-71 88 -168.5 160.5t-206.5 124.5t-222.5 80t-216.5 28q-87 0 -173.5 -17t-154.5 -57.5t-110.5 -109.5t-42.5 -172q0 -86 32 -156t92.5 -119.5t147.5 -76t196 -26.5q119 0 226.5 29t208.5 76.5t197.5 109t194.5 126.5zM1380 -855q48 0 99.5 9.5
t100.5 28.5t93 48t77 67.5t52.5 87t19.5 107.5q0 106 -39 180t-105 120t-152.5 67t-181.5 21q-122 0 -231 -23.5t-209 -63.5t-193 -92.5t-182 -109.5q21 -27 39.5 -46t30.5 -33q29 -28 59 -55t62 -53q71 -57 148.5 -105t160.5 -82.5t171 -53.5t180 -19z" />
    <glyph glyph-name="p.ss01" unicode="&#xe00f;" horiz-adv-x="487" 
d="M143 32q0 -66 -15 -127.5t-39 -117.5t-54.5 -105t-61.5 -88q23 -15 47 -30.5t47 -31.5q73 90 172 164t210 126.5t226 81.5t220 29q91 0 180.5 -18t160 -61t114.5 -115t44 -179q0 -90 -33.5 -163t-96.5 -124.5t-153 -79.5t-203 -28q-121 0 -230 29.5t-211.5 77.5
t-200.5 110t-196 128q-60 -78 -94 -165t-34 -182q0 -17 4 -39t13.5 -41.5t24.5 -32.5t37 -13q9 0 18 3q3 2 4.5 -0.5t-2.5 -5.5q-2 -1 -9.5 -5.5t-17 -9t-18 -8t-12.5 -3.5q-17 0 -29 15.5t-19 39t-10 50t-3 48.5q0 98 36 188t98 171q-23 16 -47 31t-47 30
q-20 -25 -38.5 -44.5t-34.5 -34.5q-80 -79 -171 -147t-191.5 -118.5t-209 -79.5t-223.5 -29q-81 0 -163 22.5t-148 68t-108 114.5t-42 162q0 107 38.5 183.5t105.5 125t157.5 71.5t195.5 23q123 0 234 -24t212.5 -64.5t195 -93.5t183.5 -111q21 29 42 67.5t37.5 88t27 110.5
t10.5 136v388q0 21 -9 34.5t-33 13.5q-5 0 -6 2.5t7 4.5l111 24v-59q41 59 120 59q39 0 72.5 -14t58 -43t39 -75t14.5 -109t-14.5 -109t-39 -75t-58 -43t-72.5 -14q-79 0 -120 59v-19zM143 84q18 -40 45.5 -58t62.5 -18q58 0 90.5 51.5t32.5 173.5t-32.5 173.5t-90.5 51.5
q-35 0 -62.5 -18t-45.5 -58v-298zM81 -477q97 -65 194 -126.5t198 -109t208.5 -76.5t226.5 -29q109 0 196 26.5t147.5 76t92.5 119.5t32 156q0 103 -42.5 172t-110.5 109.5t-154.5 57.5t-173.5 17q-104 0 -217 -28t-222 -80t-206.5 -124.5t-168.5 -160.5zM-905 -855
q92 0 180 19t171 53.5t160.5 82.5t148.5 105q32 26 62 53t59 55q12 14 30.5 33t39.5 46q-89 57 -182 109.5t-193 92.5t-209.5 63.5t-230.5 23.5q-95 0 -181.5 -21t-152.5 -67t-105 -120t-39 -180q0 -59 19.5 -107.5t52.5 -87t77 -67.5t93 -48t100.5 -28.5t99.5 -9.5z" />
    <glyph glyph-name="q.ss01" unicode="&#xe010;" horiz-adv-x="484" 
d="M447 466q8 0 7 -4.5t-6 -4.5q-13 0 -20 -6t-10 -15t-3.5 -20t-0.5 -21v-388q0 -75 10.5 -136t27 -110.5t37.5 -88t42 -67.5q90 58 183.5 111t195 93.5t212.5 64.5t234 24q105 0 195.5 -23t157.5 -71.5t105.5 -125t38.5 -183.5q0 -93 -42 -162t-108 -114.5t-148 -68
t-163 -22.5q-115 0 -223.5 29t-209 79.5t-191.5 118.5t-171 147q-16 15 -34.5 34.5t-38.5 44.5q-23 -15 -47 -30t-47 -31q62 -81 98 -171t36 -188q0 -22 -3 -48.5t-10 -50t-19 -39t-29 -15.5q-4 0 -12.5 3.5t-18 8t-17.5 9t-9 5.5q-4 3 -2.5 5.5t4.5 0.5q9 -3 18 -3
q22 0 37 13t24.5 32.5t13.5 41.5t4 39q0 95 -34 182t-94 165q-98 -66 -196 -128t-200.5 -110t-211.5 -77.5t-230 -29.5q-113 0 -203 28t-153 79.5t-96.5 124.5t-33.5 163q0 107 44 179t114.5 115t160 61t180.5 18q105 0 220 -28.5t226 -81t210 -126.5t172 -164q23 16 47 31
t47 30q-31 39 -61.5 88t-54.5 105t-39 117.5t-15 127.5v19q-41 -59 -120 -59q-39 0 -72.5 14t-58 43t-39 75t-14.5 109t14.5 109t39 75t58 43t72.5 14q79 0 120 -59v39q0 12 12 12h91zM344 382q-18 40 -45.5 58t-62.5 18q-58 0 -90.5 -51.5t-32.5 -173.5t32.5 -173.5
t90.5 -51.5q35 0 62.5 18t45.5 58v298zM406 -477q-71 88 -168.5 160.5t-206.5 124.5t-222.5 80t-216.5 28q-87 0 -173.5 -17t-154.5 -57.5t-110.5 -109.5t-42.5 -172q0 -86 32 -156t92.5 -119.5t147.5 -76t196 -26.5q119 0 226.5 29t208.5 76.5t197.5 109t194.5 126.5z
M1392 -855q48 0 99.5 9.5t100.5 28.5t93 48t77 67.5t52.5 87t19.5 107.5q0 106 -39 180t-105 120t-152.5 67t-181.5 21q-122 0 -231 -23.5t-209 -63.5t-193 -92.5t-182 -109.5q21 -27 39.5 -46t30.5 -33q29 -28 59 -55t62 -53q71 -57 148.5 -105t160.5 -82.5t171 -53.5
t180 -19z" />
    <glyph glyph-name="r.ss01" unicode="&#xe011;" horiz-adv-x="366" 
d="M39 0q-4 0 -4.5 4t4.5 5q17 2 25.5 8.5t8.5 24.5v353q0 21 -9 34.5t-33 13.5q-5 0 -6 2.5t7 4.5l111 24v-50q14 21 36.5 35.5t48.5 14.5q29 0 53 -11t45 -19q20 84 6.5 164.5t-52.5 155.5q-64 -43 -132.5 -81.5t-145 -68t-162.5 -46.5t-185 -17q-50 0 -101.5 6.5
t-99.5 20.5t-90 37t-73.5 56t-50 77t-18.5 101q0 72 31.5 125t88 88.5t135 53t173.5 17.5q102 0 198 -25t179.5 -70t150.5 -107.5t111 -138.5q25 17 49 34.5t48 34.5q-47 50 -84.5 103.5t-65.5 113.5q-20 41 -31.5 70.5t-11.5 62.5q0 19 7 27t15 8q16 0 29.5 -2.5t11.5 -3.5
q-20 -3 -28.5 -23t-0.5 -52q25 -81 70.5 -154t106.5 -138q73 53 147.5 103.5t155 89.5t170.5 63t196 24q84 0 158 -15.5t129.5 -50.5t88 -91.5t32.5 -139.5q0 -85 -33.5 -144t-88 -96t-125 -54t-144.5 -17q-93 0 -187.5 21.5t-184 61.5t-171 95.5t-148.5 124.5l-50 -36
t-51 -36q41 -76 54.5 -161.5t-6.5 -177.5q-7 -20 -10 -43t-6 -56q-1 -5 -5 -4.5t-4 4.5q0 24 -5.5 45t-17 37t-28.5 25.5t-40 9.5q-21 0 -37.5 -9t-27.5 -21.5t-16.5 -25.5t-5.5 -22v-335q0 -18 8.5 -24.5t25.5 -8.5q5 -1 4.5 -5t-4.5 -4h-138zM416 860q67 -68 147.5 -123
t169 -94t180.5 -60t181 -21q69 0 135.5 15.5t118 50.5t83.5 91t32 137q0 79 -30.5 132.5t-83.5 86.5t-123.5 47t-150.5 14q-104 0 -192.5 -23.5t-168 -62t-152.5 -88.5t-146 -102zM272 780q-41 72 -105 133.5t-144.5 106.5t-175 70.5t-197.5 25.5q-86 0 -160.5 -16
t-130 -49.5t-87.5 -85t-32 -122.5q0 -53 18 -93.5t49 -71t72.5 -51.5t87.5 -34t94 -19t93 -6q98 0 183 17t160.5 46t143 67.5t131.5 81.5z" />
    <glyph glyph-name="s.ss01" unicode="&#xe012;" horiz-adv-x="390" 
d="M40 352q0 30 11 53t30.5 38t45.5 23t55 8q21 0 37.5 -3.5t31.5 -9t29 -12t29 -11.5q25 80 11.5 163.5t-58.5 161.5q-64 -43 -132.5 -81.5t-144.5 -67.5t-162 -46t-185 -17q-50 0 -101.5 6.5t-99.5 20.5t-90 37t-73.5 56t-50 77t-18.5 101q0 72 31.5 125t88 88.5t135 53
t173.5 17.5q99 0 194 -26t178 -72t151.5 -109t113.5 -136q26 17 50 35t49 36q-47 50 -84.5 103.5t-65.5 113.5q-20 41 -31.5 70.5t-11.5 62.5q0 19 7 27t15 8q16 0 29.5 -2.5t11.5 -3.5q-20 -3 -28.5 -23t-0.5 -52q25 -81 70.5 -154t106.5 -138q73 53 147.5 103.5t155 89.5
t170.5 63t196 24q84 0 158 -15.5t129.5 -50.5t88 -91.5t32.5 -139.5q0 -85 -33.5 -144t-88 -96t-125 -54t-144.5 -17q-93 0 -187.5 21.5t-184 61.5t-171 95.5t-148.5 124.5q-26 -18 -51.5 -36.5t-51.5 -36.5q46 -80 61 -167.5t-11 -175.5q-8 -25 -12.5 -51t-6.5 -66
q0 -6 -7.5 -5.5t-7.5 5.5q0 25 -5 50.5t-18 46t-34 33t-53 12.5q-37 0 -60 -23t-23 -64q0 -32 18.5 -50t46 -30.5t59.5 -22.5t59.5 -26.5t46 -42.5t18.5 -70q0 -32 -12 -57t-33 -42.5t-48.5 -27t-58.5 -9.5q-27 0 -46.5 6t-34 13.5t-25.5 13.5t-20 6q-11 0 -13.5 -8.5
t-2.5 -16.5v-8q0 -5 -7.5 -5t-7.5 5v136q0 8 7 7.5t8 -5.5q3 -29 17.5 -52.5t35 -40t43.5 -25.5t43 -9q18 0 36 5t32.5 16.5t23 29t8.5 42.5q0 33 -19 52.5t-47 32.5t-61.5 23.5t-61.5 27.5t-47 43.5t-19 70.5zM399 860q67 -68 147.5 -123t169 -94t180.5 -60t181 -21
q69 0 135.5 15.5t118 50.5t83.5 91t32 137q0 79 -30.5 132.5t-83.5 86.5t-123.5 47t-150.5 14q-104 0 -192.5 -23.5t-168 -62t-152.5 -88.5t-146 -102zM253 779q-43 70 -108 131.5t-145 107t-173.5 72t-193.5 26.5q-86 0 -160.5 -16t-130 -49.5t-87.5 -85t-32 -122.5
q0 -53 18 -93.5t49 -71t72.5 -51.5t87.5 -34t94 -19t93 -6q97 0 182 17t160 46t143 67t131 81z" />
    <glyph glyph-name="t.ss01" unicode="&#xe013;" horiz-adv-x="271" 
d="M25 459q0 7 7 7h43v24q0 21 -9 34.5t-33 13.5q-5 0 -6 2.5t7 4.5l111 24v-103h104q7 0 7 -8q0 -7 -7 -7h-104v-444q0 -75 10.5 -136t27 -110.5t37.5 -88t42 -67.5q90 58 183.5 111t195 93.5t212.5 64.5t234 24q105 0 195.5 -23t157.5 -71.5t105.5 -125t38.5 -183.5
q0 -93 -42 -162t-108 -114.5t-148 -68t-163 -22.5q-115 0 -223.5 29t-209 79.5t-191.5 118.5t-171 147q-16 15 -34.5 34.5t-38.5 44.5q-23 -15 -47 -30t-47 -31q62 -81 98 -171t36 -188q0 -22 -3 -48.5t-10 -50t-19 -39t-29 -15.5q-4 0 -12.5 3.5t-18 8t-17.5 9t-9 5.5
q-4 3 -2.5 5.5t4.5 0.5q9 -3 18 -3q22 0 37 13t24.5 32.5t13.5 41.5t4 39q0 95 -34 182t-94 165q-98 -66 -196 -128t-200.5 -110t-211.5 -77.5t-230 -29.5q-113 0 -203 28t-153 79.5t-96.5 124.5t-33.5 163q0 107 44 179t114.5 115t160 61t180.5 18q105 0 220 -28.5t226 -81
t210 -126.5t172 -164q23 16 47 31t47 30q-31 39 -61.5 88t-54.5 105t-39 117.5t-15 127.5v419h-43q-7 0 -7 7v1zM137 -477q-71 88 -168.5 160.5t-206.5 124.5t-222.5 80t-216.5 28q-87 0 -173.5 -17t-154.5 -57.5t-110.5 -109.5t-42.5 -172q0 -86 32 -156t92.5 -119.5
t147.5 -76t196 -26.5q119 0 226.5 29t208.5 76.5t197.5 109t194.5 126.5zM342 -487q29 -28 59 -55t62 -53q71 -57 148.5 -105t160.5 -82.5t171 -53.5t180 -19q48 0 99.5 9.5t100.5 28.5t93 48t77 67.5t52.5 87t19.5 107.5q0 106 -39 180t-105 120t-152.5 67t-181.5 21
q-122 0 -231 -23.5t-209 -63.5t-193 -92.5t-182 -109.5q21 -27 39.5 -46t30.5 -33z" />
    <glyph glyph-name="u.ss01" unicode="&#xe014;" horiz-adv-x="471" 
d="M143 129q0 -55 23.5 -86.5t69.5 -31.5q23 0 41 9t30 21.5t18.5 25.5t6.5 22v306q0 21 -9 34.5t-33 13.5q-5 0 -6 2.5t7 4.5l111 24v-467q0 -75 10.5 -136t27 -110.5t37.5 -88t42 -67.5q90 58 183.5 111t195 93.5t212.5 64.5t234 24q105 0 195.5 -23t157.5 -71.5
t105.5 -125t38.5 -183.5q0 -93 -42 -162t-108 -114.5t-148 -68t-163 -22.5q-115 0 -223.5 29t-209 79.5t-191.5 118.5t-171 147q-16 15 -34.5 34.5t-38.5 44.5q-23 -15 -47 -30t-47 -31q62 -81 98 -171t36 -188q0 -22 -3 -48.5t-10 -50t-19 -39t-29 -15.5q-4 0 -12.5 3.5
t-18 8t-17.5 9t-9 5.5q-4 3 -2.5 5.5t4.5 0.5q9 -3 18 -3q22 0 37 13t24.5 32.5t13.5 41.5t4 39q0 95 -34 182t-94 165q-98 -66 -196 -128t-200.5 -110t-211.5 -77.5t-230 -29.5q-113 0 -203 28t-153 79.5t-96.5 124.5t-33.5 163q0 107 44 179t114.5 115t160 61t180.5 18
q105 0 220 -28.5t226 -81t210 -126.5t172 -164q23 16 47 31t47 30q-31 39 -61.5 88t-54.5 105t-39 117.5t-15 127.5v11q-17 -21 -43.5 -36t-66.5 -15q-73 0 -111 38.5t-38 101.5v263q0 21 -9 34.5t-33 13.5q-5 0 -6 2.5t7 4.5l111 24v-345zM394 -477q-71 88 -168.5 160.5
t-206.5 124.5t-222.5 80t-216.5 28q-87 0 -173.5 -17t-154.5 -57.5t-110.5 -109.5t-42.5 -172q0 -86 32 -156t92.5 -119.5t147.5 -76t196 -26.5q119 0 226.5 29t208.5 76.5t197.5 109t194.5 126.5zM599 -487q29 -28 59 -55t62 -53q71 -57 148.5 -105t160.5 -82.5t171 -53.5
t180 -19q48 0 99.5 9.5t100.5 28.5t93 48t77 67.5t52.5 87t19.5 107.5q0 106 -39 180t-105 120t-152.5 67t-181.5 21q-122 0 -231 -23.5t-209 -63.5t-193 -92.5t-182 -109.5q21 -27 39.5 -46t30.5 -33z" />
    <glyph glyph-name="v.ss01" unicode="&#xe015;" horiz-adv-x="461" 
d="M198 0l-123 387q-8 26 -22 46.5t-38 23.5q-5 1 -4.5 5t4.5 4h158q4 0 4.5 -4t-4.5 -5q-20 -2 -27.5 -17.5t0.5 -38.5l107 -336l107 336q36 104 83.5 193.5t104.5 165.5l-60 42t-59 43q-68 -68 -149 -123.5t-169.5 -94.5t-182.5 -60.5t-187 -21.5q-74 0 -144.5 17
t-125.5 54t-88 96t-33 144q0 83 32 139.5t87.5 91.5t130 50.5t158.5 15.5q107 0 198 -24.5t171.5 -64.5t154.5 -91.5t147 -105.5q62 65 107 139.5t68 158.5q8 32 -0.5 52t-28.5 23q-2 1 11.5 3.5t29.5 2.5q8 0 15 -8t7 -27q0 -33 -12 -62.5t-31 -70.5q-28 -60 -66.5 -115
t-86.5 -105q29 -21 58 -42.5t59 -41.5q67 87 144.5 153.5t161.5 112t173.5 69t181.5 23.5q69 0 136 -17.5t120.5 -53t86.5 -88.5t33 -125q0 -57 -18.5 -101t-50 -77t-73.5 -56t-90 -37t-99.5 -20.5t-101.5 -6.5q-95 0 -177.5 16t-156 43t-139 63t-126.5 77
q-60 -78 -108 -168.5t-83 -193.5l-123 -387h-52zM416 854q-73 54 -146 104.5t-152.5 90t-168 63.5t-193.5 24q-80 0 -150.5 -14t-123.5 -47t-83.5 -86.5t-30.5 -132.5q0 -81 32 -137t83.5 -91t118 -50.5t135.5 -15.5q89 0 181 20.5t180.5 58t169.5 91.5t148 122zM575 763
q60 -41 124.5 -76.5t136.5 -62t153.5 -42t174.5 -15.5q45 0 93 6t94 19t87.5 34t72.5 51.5t49 71t18 93.5q0 71 -32 122.5t-83 85t-115 49.5t-128 16q-91 0 -179 -24.5t-170.5 -70t-157 -110.5t-138.5 -147z" />
    <glyph glyph-name="w.ss01" unicode="&#xe016;" horiz-adv-x="653" 
d="M198 0l-123 387q-8 26 -22 46.5t-38 23.5q-5 1 -4.5 5t4.5 4h152q4 0 4.5 -4t-4.5 -5q-20 -2 -24.5 -17.5t3.5 -38.5l107 -336l58 183l-44 139q-8 26 -18.5 47t-24.5 23q-5 1 -4.5 5t4.5 4h227q4 0 4.5 -4.5t-4.5 -4.5q-35 -2 -52.5 -23t-25.5 -47l-15 -48l87 -274
l107 336q36 104 83.5 193.5t104.5 165.5l-60 42t-59 43q-68 -68 -149 -123.5t-169.5 -94.5t-182.5 -60.5t-187 -21.5q-74 0 -144.5 17t-125.5 54t-88 96t-33 144q0 83 32 139.5t87.5 91.5t130 50.5t158.5 15.5q107 0 198 -24.5t171.5 -64.5t154.5 -91.5t147 -105.5
q62 65 107 139.5t68 158.5q8 32 -0.5 52t-28.5 23q-2 1 11.5 3.5t29.5 2.5q8 0 15 -8t7 -27q0 -33 -12 -62.5t-31 -70.5q-28 -60 -66.5 -115t-86.5 -105q29 -21 58 -42.5t59 -41.5q67 87 144.5 153.5t161.5 112t173.5 69t181.5 23.5q69 0 136 -17.5t120.5 -53t86.5 -88.5
t33 -125q0 -57 -18.5 -101t-50 -77t-73.5 -56t-90 -37t-99.5 -20.5t-101.5 -6.5q-95 0 -177.5 16t-156 43t-139 63t-126.5 77q-60 -78 -108 -168.5t-83 -193.5l-123 -387h-52l-70 220l-70 -220h-52zM608 854q-73 54 -146 104.5t-152.5 90t-168 63.5t-193.5 24
q-80 0 -150.5 -14t-123.5 -47t-83.5 -86.5t-30.5 -132.5q0 -81 32 -137t83.5 -91t118 -50.5t135.5 -15.5q89 0 181 20.5t180.5 58t169.5 91.5t148 122zM767 763q60 -41 124.5 -76.5t136.5 -62t153.5 -42t174.5 -15.5q45 0 93 6t94 19t87.5 34t72.5 51.5t49 71t18 93.5
q0 71 -32 122.5t-83 85t-115 49.5t-128 16q-91 0 -179 -24.5t-170.5 -70t-157 -110.5t-138.5 -147zM360 401q8 25 4.5 36.5t-15.5 16.5q-12 -5 -15.5 -16.5t4.5 -36.5l11 -35z" />
    <glyph glyph-name="x.ss01" unicode="&#xe017;" horiz-adv-x="486" 
d="M206 222l-86 165q-14 26 -33 46.5t-44 23.5q-5 1 -4.5 5t4.5 4h167q4 0 4.5 -4t-4.5 -5q-20 -2 -24 -17.5t8 -38.5l55 -106l64 106q55 98 111.5 185t116.5 162q-35 23 -69 47.5t-67 49.5q-68 -68 -149 -123.5t-169.5 -94.5t-182.5 -60.5t-187 -21.5q-74 0 -144.5 17
t-125.5 54t-88 96t-33 144q0 83 32 139.5t87.5 91.5t130 50.5t158.5 15.5q107 0 198 -24.5t171.5 -64.5t154.5 -91.5t147 -105.5q62 65 107 139.5t68 158.5q8 32 -0.5 52t-28.5 23q-2 1 11.5 3.5t29.5 2.5q8 0 15 -8t7 -27q0 -33 -12 -62.5t-31 -70.5q-28 -60 -66.5 -115
t-86.5 -105q33 -24 66 -48.5t68 -47.5q71 87 146 155.5t155.5 116.5t165.5 73t177 25q69 0 136 -17.5t120.5 -53t86.5 -88.5t33 -125q0 -57 -18.5 -101t-50 -77t-73.5 -56t-90 -37t-99.5 -20.5t-101.5 -6.5q-92 0 -172 14.5t-151.5 40t-135 59.5t-123.5 73
q-62 -78 -119.5 -165.5t-112.5 -184.5l-66 -110l103 -198q14 -26 39 -46.5t50 -23.5q5 -1 4.5 -5t-4.5 -4h-179q-4 0 -4.5 4t4.5 5q20 2 24 17.5t-8 38.5l-73 139l-83 -139q-14 -23 -11 -38.5t23 -17.5q5 -1 3.5 -5t-5.5 -4h-113q-4 0 -3.5 4t5.5 5q25 3 49 23.5t40 46.5z
M392 854q-73 54 -146 104.5t-152.5 90t-168 63.5t-193.5 24q-80 0 -150.5 -14t-123.5 -47t-83.5 -86.5t-30.5 -132.5q0 -81 32 -137t83.5 -91t118 -50.5t135.5 -15.5q89 0 181 20.5t180.5 58t169.5 91.5t148 122zM568 751q58 -39 121 -72.5t133.5 -58t149 -39t168.5 -14.5
q45 0 93 6t94 19t87.5 34t72.5 51.5t49 71t18 93.5q0 71 -32 122.5t-83 85t-115 49.5t-128 16q-92 0 -176 -26t-162 -73.5t-150.5 -115t-139.5 -149.5z" />
    <glyph glyph-name="y.ss01" unicode="&#xe018;" horiz-adv-x="464" 
d="M252 -3q-13 -40 -28 -77t-35.5 -65.5t-48 -45.5t-66.5 -17t-64.5 16.5t-33.5 40.5q-2 5 4 7t10 -5q11 -20 33.5 -31.5t51.5 -11.5q36 0 61.5 18.5t44 46.5t31.5 62t23 65h-34l-123 387q-8 26 -22 46.5t-38 23.5q-5 1 -4.5 5t4.5 4h158q4 0 4.5 -4t-4.5 -5
q-20 -2 -27.5 -17.5t0.5 -38.5l107 -336l107 336q35 103 80.5 192t101.5 165q-31 21 -61 43l-60 44q-68 -68 -149 -123.5t-169.5 -94.5t-182.5 -60.5t-187 -21.5q-74 0 -144.5 17t-125.5 54t-88 96t-33 144q0 83 32 139.5t87.5 91.5t130 50.5t158.5 15.5q107 0 198 -24.5
t171.5 -64.5t154.5 -91.5t147 -105.5q62 65 107 139.5t68 158.5q8 32 -0.5 52t-28.5 23q-2 1 11.5 3.5t29.5 2.5q8 0 15 -8t7 -27q0 -33 -12 -62.5t-31 -70.5q-28 -60 -66.5 -115t-86.5 -105q29 -22 58.5 -43t59.5 -42q66 87 143 154t161.5 112.5t174 69t181.5 23.5
q69 0 136 -17.5t120.5 -53t86.5 -88.5t33 -125q0 -57 -18.5 -101t-50 -77t-73.5 -56t-90 -37t-99.5 -20.5t-101.5 -6.5q-95 0 -177.5 15.5t-155.5 42.5t-138 63t-126 77q-58 -78 -105 -168.5t-80 -192.5zM411 854q-73 54 -146 104.5t-152.5 90t-168 63.5t-193.5 24
q-80 0 -150.5 -14t-123.5 -47t-83.5 -86.5t-30.5 -132.5q0 -81 32 -137t83.5 -91t118 -50.5t135.5 -15.5q89 0 181 20.5t180.5 58t169.5 91.5t148 122zM571 762q60 -40 124.5 -75.5t136.5 -62t153 -42t174 -15.5q45 0 93 6t94 19t87.5 34t72.5 51.5t49 71t18 93.5
q0 71 -32 122.5t-83 85t-115 49.5t-128 16q-91 0 -179.5 -24.5t-170.5 -70t-156.5 -111t-137.5 -147.5z" />
    <glyph glyph-name="z.ss01" unicode="&#xe019;" horiz-adv-x="415" 
d="M285 424q10 16 7 21.5t-29 5.5h-97q-35 0 -48 -22.5t-20 -74.5q-1 -7 -4.5 -6.5t-4.5 6.5l-8 94q-11 77 -40 150.5t-74 141.5q-60 -39 -124.5 -74t-136.5 -60.5t-152.5 -40.5t-173.5 -15q-50 0 -101.5 6.5t-99.5 20.5t-90 37t-73.5 56t-50 77t-18.5 101q0 72 34 125
t88 88.5t121 53t133 17.5q91 0 183 -26t177 -74t159 -115.5t131 -150.5q33 23 64.5 46t63.5 46q-48 50 -86.5 105t-66.5 115q-20 41 -31.5 70.5t-11.5 62.5q0 19 7 27t15 8q16 0 29.5 -2.5t11.5 -3.5q-20 -3 -28.5 -23t-0.5 -52q23 -84 68 -158.5t107 -139.5
q73 54 147 105.5t154.5 91.5t171.5 64.5t198 24.5q84 0 158 -15.5t129.5 -50.5t88 -91.5t32.5 -139.5q0 -85 -33.5 -144t-88 -96t-125 -54t-144.5 -17q-93 0 -187 21.5t-182.5 60.5t-170 94.5t-148.5 123.5q-32 -24 -65 -47.5t-67 -46.5q42 -64 71.5 -135.5t43.5 -149.5h278
l-3 -36l-223 -376q-11 -19 -2.5 -29t29.5 -10h86q22 0 36.5 6.5t23.5 21t14.5 36t10.5 51.5q1 7 5 6.5t4 -6.5l6 -130h-310q-19 0 -9 17zM127 854q67 -68 148 -122t169.5 -91.5t180.5 -58t181 -20.5q69 0 135.5 15.5t118 50.5t83.5 91t32 137q0 79 -30.5 132.5t-83.5 86.5
t-123.5 47t-150.5 14q-105 0 -193.5 -24t-168 -63.5t-152.5 -90t-146 -104.5zM-43 755q-54 78 -125 144t-153.5 114t-173 75t-182.5 27q-65 0 -129 -16t-115 -49.5t-82.5 -85t-31.5 -122.5q0 -53 18 -93.5t49 -71t72.5 -51.5t87.5 -34t94 -19t93 -6q91 0 170.5 14.5t150 40
t134.5 60t123 73.5z" />
    <glyph glyph-name="t_t" unicode="&#xe01a;" horiz-adv-x="533" 
d="M25 459q0 7 7 7h43v24q0 21 -9 34.5t-33 13.5q-5 0 -6 2.5t7 4.5l111 24v-103h140v24q0 21 -9 34.5t-33 13.5q-5 0 -6 2.5t7 4.5l111 24v-103h104q7 0 7 -8q0 -7 -7 -7h-104v-349q0 -29 4 -47t11.5 -28t17.5 -13.5t21 -3.5q18 0 32 5.5t24 13.5t17 17t12 16q2 4 6 2t2 -6
q-3 -7 -11 -18t-22 -21.5t-33 -18.5t-44 -8q-38 0 -59.5 15t-32.5 38q-13 -17 -42 -35t-71 -18q-39 0 -61.5 14t-33.5 35.5t-14 48t-3 51.5v310h-43q-7 0 -7 7v1zM145 102q0 -29 4.5 -47t12.5 -28t19 -13.5t23 -3.5q35 0 58 16t34 30q-7 20 -9 42t-2 43v310h-140v-349z" />
    <glyph glyph-name="a.ss02" unicode="&#xe01b;" horiz-adv-x="2517" 
d="M831 -94q-55 -25 -113 -40t-119 -15q-45 0 -94 15t-89.5 42.5t-67 68t-26.5 91.5v13q-7 -15 -19.5 -31t-29.5 -29t-39.5 -21t-49.5 -8q-29 0 -55 7.5t-46 24t-31.5 43.5t-11.5 66q0 37 11.5 62.5t32.5 42.5t51 29.5t67 24.5q21 7 42 15t37.5 16.5t27.5 17t13 16.5
q-1 20 -6 38t-15 31.5t-26 21t-39 7.5q-33 0 -56.5 -9.5t-39 -25.5t-22.5 -37t-7 -45q0 -4 -4 -4.5t-5 4.5q-3 33 -6 56t-10 43q12 3 30.5 9t39.5 12t42.5 11t39.5 5q22 0 49 -7.5t50 -24.5t39 -45t16 -68v-243q0 -47 15 -87t42.5 -69t67.5 -45.5t91 -16.5q30 3 55.5 6
t49.5 8.5t48.5 13.5t52.5 20q-48 31 -89.5 69.5t-71.5 83.5t-47 97.5t-17 112.5q0 74 26.5 132t71 101.5t103.5 73.5t124 49t131.5 27.5t126.5 8.5q65 0 134 -11.5t136 -34.5t129 -57t114 -79q77 32 158.5 50.5t170.5 18.5q79 0 153 -19t131 -59.5t91.5 -104t34.5 -151.5
q0 -54 -17 -104.5t-48 -94.5q-63 -89 -158.5 -146.5t-205.5 -92t-224.5 -48t-216.5 -13.5q-89 0 -184.5 10.5t-190 33t-183.5 56.5t-165 81zM833 -76q75 35 144.5 83.5t130.5 95.5q66 51 133 104t136 103t141 94.5t149 77.5q-50 42 -110 74.5t-124 54t-130.5 32.5t-130.5 11
q-57 0 -121.5 -8t-127.5 -26t-120.5 -46.5t-101 -70.5t-69.5 -97.5t-26 -126.5q0 -60 17.5 -111.5t48 -95.5t72 -81t89.5 -67zM849 -86q74 -44 161.5 -76.5t179.5 -53.5t185 -31.5t179 -10.5q94 0 202 12.5t212 42.5t196.5 80.5t156.5 126.5q40 48 62.5 102.5t22.5 117.5
q0 85 -33 145t-88 98t-125.5 56t-145.5 18q-85 0 -163 -17t-152 -47q25 -24 49.5 -53t43 -61.5t30 -67.5t11.5 -71q0 -41 -8 -64.5t-23 -34.5t-35.5 -13.5t-45.5 -2.5q-3 0 -3 2t3 3q7 1 22 9.5t29.5 24t25.5 38t11 51.5q0 36 -10.5 68t-28.5 60.5t-41 54.5t-48 49
q-79 -34 -153 -79t-144 -96t-137.5 -104.5t-133.5 -104t-132 -95t-132 -76.5zM322 333q-15 -16 -46 -29.5t-63 -27.5q-49 -21 -74.5 -53.5t-25.5 -89.5q0 -52 21 -86t62 -34q27 0 50.5 12.5t40 31.5t26 40t9.5 39v197z" />
    <glyph glyph-name="b.ss02" unicode="&#xe01c;" horiz-adv-x="2482" 
d="M143 20q0 -20 -20 -20h-84q-4 0 -4.5 4t4.5 5q17 2 25.5 8.5t8.5 24.5v518q0 21 -9 34.5t-33 13.5q-5 0 -6 2.5t7 4.5l111 24v-224q41 59 120 59q39 0 72.5 -14t58 -43t39 -75t14.5 -109v-22t-2 -22q39 18 83 38.5t93 42.5q-8 26 -12 53t-4 56q0 74 26.5 132t71 101.5
t103.5 73.5t124 49t131.5 27.5t126.5 8.5t122.5 -9.5t124 -28.5t119.5 -47.5t109 -65.5q95 18 187 28t180 10q79 0 153 -19t131 -59.5t91.5 -104t34.5 -151.5q0 -54 -17 -104.5t-48 -94.5q-63 -89 -158.5 -146.5t-205.5 -92t-224.5 -48t-216.5 -13.5q-77 0 -169 9.5
t-187 30.5t-188 54.5t-172 80.5t-139 109.5t-88 142.5q-51 -23 -97 -43.5t-87 -39.5q-14 -93 -63.5 -135t-116.5 -42q-42 0 -61.5 11.5t-19.5 28.5q0 36 62 62q19 8 50 23.5t75 36.5q2 17 3.5 36.5t1.5 42.5q0 122 -32.5 173.5t-90.5 51.5q-35 0 -62.5 -18t-45.5 -58v-362z
M637 277q103 45 222 93.5t248 94t264 84.5t269 66q-49 34 -104 60t-113.5 43.5t-118 26.5t-116.5 9q-58 0 -122 -8t-127 -26t-120.5 -46.5t-101 -70.5t-69.5 -97.5t-26 -126.5q0 -27 4 -52.5t11 -49.5zM642 259q27 -77 86 -138.5t137 -107.5t170 -78.5t185.5 -53t184 -30
t165.5 -9.5q94 0 202 12.5t212 42.5t196.5 80.5t156.5 126.5q40 48 62.5 102.5t22.5 117.5q0 85 -33 145t-88 98t-125.5 56t-145.5 18q-84 0 -170.5 -9t-177.5 -26q31 -24 61 -56t53.5 -68.5t38 -76.5t14.5 -81t-8 -64.5t-23 -34.5t-35.5 -13.5t-45.5 -2.5q-3 0 -3 2t3 3
q7 1 22 9.5t29.5 24t25.5 38t11 51.5q0 41 -14.5 78.5t-38 71t-53 62t-60.5 52.5q-135 -26 -271.5 -65.5t-267 -85.5t-252 -95.5t-226.5 -95.5zM244 78q-39 -17 -39 -41q0 -29 46 -29q45 0 74 29t40 96q-41 -19 -71 -33t-50 -22z" />
    <glyph glyph-name="c.ss02" unicode="&#xe01d;" horiz-adv-x="2561" 
d="M113 233q0 -61 15.5 -111t47 -86t80.5 -55.5t117 -19.5q101 0 198.5 27.5t194.5 74.5q-72 60 -116.5 138t-44.5 178q0 74 26.5 132t71 101.5t103.5 73.5t124 49t131.5 27.5t126.5 8.5q64 0 132.5 -11t135 -33.5t128 -56t113.5 -77.5q81 30 163.5 47.5t169.5 17.5
q79 0 153 -19t131 -59.5t91.5 -104t34.5 -151.5q0 -54 -17 -104.5t-48 -94.5q-63 -89 -158.5 -146.5t-205.5 -92t-224.5 -48t-216.5 -13.5q-96 0 -202.5 13t-211 40.5t-201.5 70t-173 102.5q-97 -46 -198.5 -76t-210.5 -30q-92 0 -155 22t-103 61t-57.5 91.5t-17.5 113.5
q0 121 53.5 181t140.5 60q22 0 41 -4t37 -10t35.5 -12.5t36.5 -10.5q-7 -20 -10 -43t-6 -56q-1 -5 -5 -4.5t-4 4.5q0 24 -7 45.5t-22.5 38t-39.5 26.5t-57 10q-27 0 -49 -12.5t-38 -39.5t-24.5 -69.5t-8.5 -103.5zM783 71q110 54 219.5 124t220.5 141.5t224.5 137.5
t230.5 112q-50 41 -109.5 72.5t-123 52.5t-129 32t-128.5 11q-58 0 -122 -8t-127 -26t-120.5 -46.5t-101 -70.5t-69.5 -97.5t-26 -126.5q0 -98 45 -174t116 -134zM799 59q75 -57 170 -98t197.5 -67.5t206.5 -39t197 -12.5q94 0 202 12.5t212 42.5t196.5 80.5t156.5 126.5
q40 48 62.5 102.5t22.5 117.5q0 85 -33 145t-88 98t-125.5 56t-145.5 18q-82 0 -161 -16t-157 -45q26 -24 51 -53t44 -62t30.5 -68.5t11.5 -72.5q0 -41 -8 -64.5t-23 -34.5t-35.5 -13.5t-45.5 -2.5q-3 0 -3 2t3 3q7 1 22 9.5t29.5 24t25.5 38t11 51.5q0 36 -11 69t-29 62.5
t-42 55.5t-50 49q-116 -45 -228.5 -110t-223.5 -136.5t-221 -142t-221 -125.5z" />
    <glyph glyph-name="d.ss02" unicode="&#xe01e;" horiz-adv-x="2512" 
d="M626 -149q-44 0 -91.5 13t-88 38.5t-68.5 63t-33 86.5l-1 -1q-41 -59 -120 -59q-39 0 -72.5 14t-58 43t-39 75t-14.5 109t14.5 109t39 75t58 43t72.5 14q79 0 120 -59v145q0 21 -9 34.5t-33 13.5q-5 0 -6 2.5t7 4.5l111 24v-553q0 -47 15 -87t42.5 -69t67.5 -45.5
t91 -16.5q30 3 55.5 6t49.5 8.5t48.5 13.5t52.5 20q-48 31 -89.5 69.5t-71.5 83.5t-47 97.5t-17 112.5q0 74 26.5 132t71 101.5t103.5 73.5t124 49t131.5 27.5t126.5 8.5q65 0 134 -11.5t136 -34.5t129 -57t114 -79q77 32 158.5 50.5t170.5 18.5q79 0 153 -19t131 -59.5
t91.5 -104t34.5 -151.5q0 -54 -17 -104.5t-48 -94.5q-63 -89 -158.5 -146.5t-205.5 -92t-224.5 -48t-216.5 -13.5q-89 0 -184.5 10.5t-190 33t-183.5 56.5t-165 81q-53 -24 -111 -39.5t-116 -15.5zM855 -76q75 35 144.5 83.5t130.5 95.5q66 51 133 104t136 103t141 94.5
t149 77.5q-50 42 -110 74.5t-124 54t-130.5 32.5t-130.5 11q-58 0 -122 -8t-127 -26t-120.5 -46.5t-101 -70.5t-69.5 -97.5t-26 -126.5q0 -60 17.5 -111.5t48 -95.5t72 -81t89.5 -67zM871 -86q74 -44 161.5 -76.5t179.5 -53.5t185 -31.5t179 -10.5q94 0 202 12.5t212 42.5
t196.5 80.5t156.5 126.5q40 48 62.5 102.5t22.5 117.5q0 85 -33 145t-88 98t-125.5 56t-145.5 18q-85 0 -163 -17t-152 -47q25 -24 49.5 -53t43 -61.5t30 -67.5t11.5 -71q0 -41 -8 -64.5t-23 -34.5t-35.5 -13.5t-45.5 -2.5q-3 0 -3 2t3 3q7 1 22 9.5t29.5 24t25.5 38
t11 51.5q0 36 -10.5 68t-28.5 60.5t-41 54.5t-48 49q-79 -34 -153 -79t-144 -96t-137.5 -104.5t-133.5 -104t-132 -95t-132 -76.5zM344 382q-18 40 -45.5 58t-62.5 18q-58 0 -90.5 -51.5t-32.5 -173.5t32.5 -173.5t90.5 -51.5q35 0 62.5 18t45.5 58v298z" />
    <glyph glyph-name="e.ss02" unicode="&#xe01f;" horiz-adv-x="2453" 
d="M358 -55q-82 0 -142 22t-99 61t-58 91.5t-19 113.5q0 121 53.5 181t140.5 60q44 0 74.5 -11.5t49 -31t26.5 -44t8 -49.5q0 -50 -22 -85.5t-55 -58.5t-72 -33.5t-74 -10.5q-28 0 -49 6q17 -90 74.5 -142.5t163.5 -52.5q91 0 177.5 23.5t171.5 62.5q-40 30 -73.5 65.5
t-57.5 77t-37.5 88.5t-13.5 101q0 74 26.5 132t71 101.5t103.5 73.5t124 49t131.5 27.5t126.5 8.5q65 0 133.5 -11t135 -33.5t128.5 -56t114 -78.5q79 31 161 48.5t170 17.5q79 0 153 -19t131 -59.5t91.5 -104t34.5 -151.5q0 -54 -17 -104.5t-48 -94.5
q-63 -89 -158.5 -146.5t-205.5 -92t-224.5 -48t-216.5 -13.5q-93 0 -196 12t-204 37.5t-195.5 65t-170.5 94.5q-88 -41 -178.5 -65t-187.5 -24zM724 55q109 52 215.5 123.5t214.5 145.5t218.5 143t227.5 117q-50 42 -109.5 74t-123.5 53t-130 32t-129 11q-58 0 -122 -8
t-127 -26t-120.5 -46.5t-101 -70.5t-69.5 -97.5t-26 -126.5q0 -53 13.5 -99t37.5 -86t57.5 -74.5t73.5 -64.5zM741 43q76 -53 168 -90.5t191 -62.5t199 -36.5t191 -11.5q94 0 202 12.5t212 42.5t196.5 80.5t156.5 126.5q40 48 62.5 102.5t22.5 117.5q0 85 -33 145t-88 98
t-125.5 56t-145.5 18q-84 0 -162.5 -17t-154.5 -46q26 -24 50.5 -53t43.5 -61.5t30.5 -67.5t11.5 -72q0 -41 -8 -64.5t-23 -34.5t-35.5 -13.5t-45.5 -2.5q-3 0 -3 2t3 3q7 1 22 9.5t29.5 24t25.5 38t11 51.5q0 36 -11 68.5t-29 61.5t-41.5 55t-48.5 49
q-116 -47 -225.5 -115.5t-216.5 -142.5t-214 -145.5t-218 -124.5zM116 179q8 -7 20 -10t26 -3q25 0 54 10.5t54.5 32.5t42.5 56t17 81q0 18 -3.5 37.5t-14 36t-29.5 27.5t-50 11q-27 0 -49 -12.5t-38 -39.5t-24.5 -69.5t-8.5 -103.5q0 -29 3 -54z" />
    <glyph glyph-name="g.ss02" unicode="&#xe020;" horiz-adv-x="2518" 
d="M447 466q8 0 7 -4.5t-6 -4.5q-13 0 -20 -6t-10 -15t-3.5 -20t-0.5 -21v-363q0 -16 -1.5 -30t-3.5 -28q66 17 127 37.5t120 43.5q-35 48 -55.5 104.5t-20.5 122.5q0 74 26.5 132t71 101.5t103.5 73.5t124 49t131.5 27.5t126.5 8.5q61 0 126 -10.5t128.5 -30.5t123.5 -50.5
t111 -70.5q82 23 169 36t184 13q79 0 153 -19t131 -59.5t91.5 -104t34.5 -151.5q0 -54 -17 -104.5t-48 -94.5q-63 -89 -158.5 -146.5t-205.5 -92t-224.5 -48t-216.5 -13.5q-71 0 -150.5 7.5t-162 23.5t-163.5 40.5t-155 59t-137 79.5t-109 102q-62 -24 -127.5 -45.5
t-136.5 -39.5q-11 -42 -34 -73.5t-53.5 -51.5t-66 -30t-71.5 -10q-31 0 -52.5 6t-35 15.5t-20 21.5t-6.5 24q0 54 107 69q44 6 85.5 14t82.5 17q2 12 3 24t1 26v44q-41 -59 -120 -59q-39 0 -72.5 14t-58 43t-39 75t-14.5 109t14.5 109t39 75t58 43t72.5 14q79 0 120 -59v39
q0 12 12 12h91zM673 61q135 54 255.5 116.5t235.5 123.5t229.5 115t237.5 90q-50 37 -107 65.5t-117.5 47.5t-122.5 28.5t-121 9.5q-57 0 -121.5 -8t-127.5 -26t-120.5 -46.5t-101 -70.5t-69.5 -97.5t-26 -126.5q0 -65 20.5 -119.5t55.5 -101.5zM684 46q45 -54 107 -97.5
t134.5 -77t153 -57.5t161 -39.5t158.5 -22.5t147 -7q94 0 202 12.5t212 42.5t196.5 80.5t156.5 126.5q40 48 62.5 102.5t22.5 117.5q0 85 -33 145t-88 98t-125.5 56t-145.5 18q-92 0 -175 -12t-161 -33q29 -24 57 -55t49.5 -66t35 -73.5t13.5 -77.5q0 -41 -8 -64.5
t-23 -34.5t-35.5 -13.5t-45.5 -2.5q-3 0 -3 2t3 3q7 1 22 9.5t29.5 24t25.5 38t11 51.5q0 39 -13 74.5t-34 67.5t-48.5 60t-56.5 51q-123 -36 -237.5 -89.5t-230 -115t-237 -124.5t-259.5 -118zM344 382q-18 40 -45.5 58t-62.5 18q-58 0 -90.5 -51.5t-32.5 -173.5
t32.5 -173.5t90.5 -51.5q35 0 62.5 18t45.5 58v298zM176 -89q-1 0 -2 -0.5t-3 -0.5q-38 -5 -61 -18.5t-23 -33.5q0 -19 20 -33t61 -14q64 0 108 33t60 95q-38 -8 -78 -15t-82 -13z" />
    <glyph glyph-name="h.ss02" unicode="&#xe021;" horiz-adv-x="2506" 
d="M39 0q-4 0 -4.5 4t4.5 5q17 2 25.5 8.5t8.5 24.5v518q0 21 -9 34.5t-33 13.5q-5 0 -6 2.5t7 4.5l111 24v-216q17 21 43.5 36t66.5 15q73 0 111 -38.5t38 -101.5v-248q0 -47 15 -87t42.5 -69t67.5 -45.5t91 -16.5q30 3 55.5 6t49.5 8.5t48.5 13.5t52.5 20
q-48 31 -89.5 69.5t-71.5 83.5t-47 97.5t-17 112.5q0 74 26.5 132t71 101.5t103.5 73.5t124 49t131.5 27.5t126.5 8.5q65 0 134 -11.5t136 -34.5t129 -57t114 -79q77 32 158.5 50.5t170.5 18.5q79 0 153 -19t131 -59.5t91.5 -104t34.5 -151.5q0 -54 -17 -104.5t-48 -94.5
q-63 -89 -158.5 -146.5t-205.5 -92t-224.5 -48t-216.5 -13.5q-89 0 -184.5 10.5t-190 33t-183.5 56.5t-165 81q-53 -24 -111 -39.5t-116 -15.5h-7q-59 2 -109.5 20.5t-87 48t-57.5 68t-21 80.5v269q0 55 -23.5 86.5t-69.5 31.5q-23 0 -41 -9t-30 -21.5t-18.5 -25.5t-6.5 -22
v-335q0 -18 8.5 -24.5t25.5 -8.5q5 -1 4.5 -5t-4.5 -4h-138zM843 -76q75 35 144.5 83.5t130.5 95.5q66 51 133 104t136 103t141 94.5t149 77.5q-50 42 -110 74.5t-124 54t-130.5 32.5t-130.5 11q-58 0 -122 -8t-127 -26t-120.5 -46.5t-101 -70.5t-69.5 -97.5t-26 -126.5
q0 -60 17.5 -111.5t48 -95.5t72 -81t89.5 -67zM859 -86q74 -44 161.5 -76.5t179.5 -53.5t185 -31.5t179 -10.5q94 0 202 12.5t212 42.5t196.5 80.5t156.5 126.5q40 48 62.5 102.5t22.5 117.5q0 85 -33 145t-88 98t-125.5 56t-145.5 18q-85 0 -163 -17t-152 -47
q25 -24 49.5 -53t43 -61.5t30 -67.5t11.5 -71q0 -41 -8 -64.5t-23 -34.5t-35.5 -13.5t-45.5 -2.5q-3 0 -3 2t3 3q7 1 22 9.5t29.5 24t25.5 38t11 51.5q0 36 -10.5 68t-28.5 60.5t-41 54.5t-48 49q-79 -34 -153 -79t-144 -96t-137.5 -104.5t-133.5 -104t-132 -95t-132 -76.5z
" />
    <glyph glyph-name="i.ss02" unicode="&#xe022;" horiz-adv-x="2271" 
d="M143 86q0 -47 15 -87t42.5 -69t67.5 -45.5t91 -16.5q30 3 55.5 6t49.5 8.5t48.5 13.5t52.5 20q-48 31 -89.5 69.5t-71.5 83.5t-47 97.5t-17 112.5q0 74 26.5 132t71 101.5t103.5 73.5t124 49t131.5 27.5t126.5 8.5q65 0 134 -11.5t136 -34.5t129 -57t114 -79
q77 32 158.5 50.5t170.5 18.5q79 0 153 -19t131 -59.5t91.5 -104t34.5 -151.5q0 -54 -17 -104.5t-48 -94.5q-63 -89 -158.5 -146.5t-205.5 -92t-224.5 -48t-216.5 -13.5q-89 0 -184.5 10.5t-190 33t-183.5 56.5t-165 81q-53 -24 -111 -39.5t-116 -15.5h-7q-59 2 -109.5 20.5
t-87 48t-57.5 68t-21 80.5v327q0 21 -9 34.5t-33 13.5q-5 0 -6 2.5t7 4.5l111 24v-388zM584 -76q75 35 144.5 83.5t130.5 95.5q66 51 133 104t136 103t141 94.5t149 77.5q-50 42 -110 74.5t-124 54t-130.5 32.5t-130.5 11q-57 0 -121.5 -8t-127.5 -26t-120.5 -46.5
t-101 -70.5t-69.5 -97.5t-26 -126.5q0 -60 17.5 -111.5t48 -95.5t72 -81t89.5 -67zM64 560q0 18 11 29.5t30 11.5q18 0 29 -11.5t11 -29.5t-11 -29.5t-29 -11.5q-19 0 -30 11.5t-11 29.5zM600 -86q74 -44 161.5 -76.5t179.5 -53.5t185 -31.5t179 -10.5q94 0 202 12.5
t212 42.5t196.5 80.5t156.5 126.5q40 48 62.5 102.5t22.5 117.5q0 85 -33 145t-88 98t-125.5 56t-145.5 18q-85 0 -163 -17t-152 -47q25 -24 49.5 -53t43 -61.5t30 -67.5t11.5 -71q0 -41 -8 -64.5t-23 -34.5t-35.5 -13.5t-45.5 -2.5q-3 0 -3 2t3 3q7 1 22 9.5t29.5 24
t25.5 38t11 51.5q0 36 -10.5 68t-28.5 60.5t-41 54.5t-48 49q-79 -34 -153 -79t-144 -96t-137.5 -104.5t-133.5 -104t-132 -95t-132 -76.5z" />
    <glyph glyph-name="j.ss02" unicode="&#xe023;" horiz-adv-x="2220" 
d="M139 35q0 -17 -1.5 -32t-3.5 -29q66 17 127 37.5t120 43.5q-35 48 -55.5 104.5t-20.5 122.5q0 74 26.5 132t71 101.5t103.5 73.5t124 49t131.5 27.5t126.5 8.5q61 0 126 -10.5t128.5 -30.5t123.5 -50.5t111 -70.5q82 23 169 36t184 13q79 0 153 -19t131 -59.5t91.5 -104
t34.5 -151.5q0 -54 -17 -104.5t-48 -94.5q-63 -89 -158.5 -146.5t-205.5 -92t-224.5 -48t-216.5 -13.5q-71 0 -150.5 7.5t-162 23.5t-163.5 40.5t-155 59t-137 79.5t-109 102q-124 -48 -262 -84q-11 -46 -33 -77.5t-52.5 -51t-67 -28.5t-74.5 -9q-31 0 -52.5 6t-35 15.5
t-20 21.5t-6.5 24q0 54 107 69q44 6 85.5 14t82.5 17q2 12 3 24t1 26v388q0 21 -9 34.5t-33 13.5q-5 0 -6 2.5t7 4.5l111 24v-439zM398 61q135 54 255.5 116.5t235.5 123.5t229.5 115t237.5 90q-50 37 -107 65.5t-117.5 47.5t-122.5 28.5t-121 9.5q-57 0 -121.5 -8
t-127.5 -26t-120.5 -46.5t-101 -70.5t-69.5 -97.5t-26 -126.5q0 -65 20.5 -119.5t55.5 -101.5zM61 560q0 18 11 29.5t30 11.5q18 0 29 -11.5t11 -29.5t-11 -29.5t-29 -11.5q-19 0 -30 11.5t-11 29.5zM409 46q45 -54 107 -97.5t134.5 -77t153 -57.5t161 -39.5t158.5 -22.5
t147 -7q94 0 202 12.5t212 42.5t196.5 80.5t156.5 126.5q40 48 62.5 102.5t22.5 117.5q0 85 -33 145t-88 98t-125.5 56t-145.5 18q-92 0 -175 -12t-161 -33q29 -24 57 -55t49.5 -66t35 -73.5t13.5 -77.5q0 -41 -8 -64.5t-23 -34.5t-35.5 -13.5t-45.5 -2.5q-3 0 -3 2t3 3
q7 1 22 9.5t29.5 24t25.5 38t11 51.5q0 39 -13 74.5t-34 67.5t-48.5 60t-56.5 51q-123 -36 -237.5 -89.5t-230 -115t-237 -124.5t-259.5 -118zM-99 -89q-1 0 -2 -0.5t-3 -0.5q-38 -5 -61 -18.5t-23 -33.5q0 -19 20 -33t61 -14q64 0 108 33t60 95q-38 -8 -78 -15t-82 -13z
" />
    <glyph glyph-name="k.ss02" unicode="&#xe024;" horiz-adv-x="2515" 
d="M39 0q-4 0 -4.5 4t4.5 5q17 2 25.5 8.5t8.5 24.5v518q0 21 -9 34.5t-33 13.5q-5 0 -6 2.5t7 4.5l111 24v-389l131 148q13 15 18 26t3.5 18t-7.5 10.5t-13 4.5q-4 1 -3.5 5t4.5 4h123q4 0 4.5 -4t-4.5 -5q-19 -2 -47.5 -15.5t-60.5 -49.5l-46 -52l87 -177q21 -42 43 -82
t51 -70.5t66 -49.5t88 -19v-1q42 1 83.5 9.5t83.5 22.5q-67 59 -108.5 134t-41.5 172q0 74 26.5 132t71 101.5t103.5 73.5t124 49t131.5 27.5t126.5 8.5q64 0 132.5 -11t135 -33.5t128 -56t113.5 -77.5q81 30 163 47.5t170 17.5q79 0 153 -19t131 -59.5t91.5 -104
t34.5 -151.5q0 -54 -17 -104.5t-48 -94.5q-63 -89 -158.5 -146.5t-205.5 -92t-224.5 -48t-216.5 -13.5q-98 0 -206 13.5t-214.5 42t-204.5 73t-174 106.5q-45 -16 -92 -25.5t-95 -9.5h-7q-66 2 -115.5 22t-86 50.5t-62 68.5t-44.5 76l-68 139l-50 -57v-182q0 -18 8.5 -24.5
t25.5 -8.5q5 -1 4.5 -5t-4.5 -4h-138zM765 -20q69 25 139 63.5t142.5 83.5t147.5 94.5t153 97.5t158.5 91t164.5 76q-50 41 -109.5 72.5t-123 52.5t-129 32t-128.5 11q-57 0 -121.5 -8t-127.5 -26t-120.5 -46.5t-101 -70.5t-69.5 -97.5t-26 -126.5q0 -95 42 -168.5
t109 -130.5zM781 -34q75 -59 171 -101.5t200 -69.5t209.5 -40t200.5 -13q94 0 202 12.5t212 42.5t196.5 80.5t156.5 126.5q40 48 62.5 102.5t22.5 117.5q0 85 -33 145t-88 98t-125.5 56t-145.5 18q-84 0 -163 -16.5t-156 -44.5q26 -24 51 -53t44.5 -62t31 -68.5t11.5 -72.5
q0 -41 -8 -64.5t-23 -34.5t-35.5 -13.5t-45.5 -2.5q-3 0 -3 2t3 3q7 1 22 9.5t29.5 24t25.5 38t11 51.5q0 36 -11 69t-29.5 63t-42.5 56t-49 49q-83 -32 -162.5 -75t-156.5 -90.5t-151.5 -97.5t-147 -95.5t-144 -84.5t-142.5 -65z" />
    <glyph glyph-name="l.ss02" unicode="&#xe025;" horiz-adv-x="2269" 
d="M582 -94q-55 -25 -113 -40t-119 -15q-45 0 -94 15t-89.5 42.5t-67 68t-26.5 91.5v492q0 21 -9 34.5t-33 13.5q-5 0 -6 2.5t7 4.5l111 24v-553q0 -47 15 -87t42.5 -69t67.5 -45.5t91 -16.5q30 3 55.5 6t49.5 8.5t48.5 13.5t52.5 20q-48 31 -89.5 69.5t-71.5 83.5t-47 97.5
t-17 112.5q0 74 26.5 132t71 101.5t103.5 73.5t124 49t131.5 27.5t126.5 8.5q65 0 134 -11.5t136 -34.5t129 -57t114 -79q77 32 158.5 50.5t170.5 18.5q79 0 153 -19t131 -59.5t91.5 -104t34.5 -151.5q0 -54 -17 -104.5t-48 -94.5q-63 -89 -158.5 -146.5t-205.5 -92
t-224.5 -48t-216.5 -13.5q-89 0 -184.5 10.5t-190 33t-183.5 56.5t-165 81zM584 -76q75 35 144.5 83.5t130.5 95.5q66 51 133 104t136 103t141 94.5t149 77.5q-50 42 -110 74.5t-124 54t-130.5 32.5t-130.5 11q-57 0 -121.5 -8t-127.5 -26t-120.5 -46.5t-101 -70.5
t-69.5 -97.5t-26 -126.5q0 -60 17.5 -111.5t48 -95.5t72 -81t89.5 -67zM600 -86q74 -44 161.5 -76.5t179.5 -53.5t185 -31.5t179 -10.5q94 0 202 12.5t212 42.5t196.5 80.5t156.5 126.5q40 48 62.5 102.5t22.5 117.5q0 85 -33 145t-88 98t-125.5 56t-145.5 18
q-85 0 -163 -17t-152 -47q25 -24 49.5 -53t43 -61.5t30 -67.5t11.5 -71q0 -41 -8 -64.5t-23 -34.5t-35.5 -13.5t-45.5 -2.5q-3 0 -3 2t3 3q7 1 22 9.5t29.5 24t25.5 38t11 51.5q0 36 -10.5 68t-28.5 60.5t-41 54.5t-48 49q-79 -34 -153 -79t-144 -96t-137.5 -104.5
t-133.5 -104t-132 -95t-132 -76.5z" />
    <glyph glyph-name="m.ss02" unicode="&#xe026;" horiz-adv-x="2799" 
d="M39 0q-4 0 -4.5 4t4.5 5q17 2 25.5 8.5t8.5 24.5v353q0 21 -9 34.5t-33 13.5q-5 0 -6 2.5t7 4.5l111 24v-51q17 21 43.5 36t66.5 15q49 0 82.5 -18t50.5 -50q15 27 44 47.5t77 20.5q73 0 111 -38.5t38 -101.5v-248q0 -47 15 -87t42.5 -69t67.5 -45.5t91 -16.5
q30 3 55.5 6t49.5 8.5t48.5 13.5t52.5 20q-48 31 -89.5 69.5t-71.5 83.5t-47 97.5t-17 112.5q0 74 26.5 132t71 101.5t103.5 73.5t124 49t131.5 27.5t126.5 8.5q65 0 134 -11.5t136 -34.5t129 -57t114 -79q77 32 158.5 50.5t170.5 18.5q79 0 153 -19t131 -59.5t91.5 -104
t34.5 -151.5q0 -54 -17 -104.5t-48 -94.5q-63 -89 -158.5 -146.5t-205.5 -92t-224.5 -48t-216.5 -13.5q-89 0 -184.5 10.5t-190 33t-183.5 56.5t-165 81q-53 -24 -111 -39.5t-116 -15.5h-7q-59 2 -109.5 20.5t-87 48t-57.5 68t-21 80.5v269q0 55 -23.5 86.5t-69.5 31.5
q-23 0 -41 -9t-30 -21.5t-18.5 -25.5t-6.5 -22q5 -22 5 -43v-292q0 -18 8.5 -24.5t25.5 -8.5q5 -1 4.5 -5t-4.5 -4h-138q-4 0 -4.5 4t4.5 5q17 2 25.5 8.5t8.5 24.5v295q0 55 -23.5 86.5t-69.5 31.5q-23 0 -41 -9t-30 -21.5t-18.5 -25.5t-6.5 -22v-335q0 -18 8.5 -24.5
t25.5 -8.5q5 -1 4.5 -5t-4.5 -4h-138zM1097 -76q75 35 144.5 83.5t130.5 95.5q66 51 133 104t136 103t141 94.5t149 77.5q-50 42 -110 74.5t-124 54t-130.5 32.5t-130.5 11q-58 0 -122 -8t-127 -26t-120.5 -46.5t-101 -70.5t-69.5 -97.5t-26 -126.5q0 -60 17.5 -111.5
t48 -95.5t72 -81t89.5 -67zM1113 -86q74 -44 161.5 -76.5t179.5 -53.5t185 -31.5t179 -10.5q94 0 202 12.5t212 42.5t196.5 80.5t156.5 126.5q40 48 62.5 102.5t22.5 117.5q0 85 -33 145t-88 98t-125.5 56t-145.5 18q-85 0 -163 -17t-152 -47q25 -24 49.5 -53t43 -61.5
t30 -67.5t11.5 -71q0 -41 -8 -64.5t-23 -34.5t-35.5 -13.5t-45.5 -2.5q-3 0 -3 2t3 3q7 1 22 9.5t29.5 24t25.5 38t11 51.5q0 36 -10.5 68t-28.5 60.5t-41 54.5t-48 49q-79 -34 -153 -79t-144 -96t-137.5 -104.5t-133.5 -104t-132 -95t-132 -76.5z" />
    <glyph glyph-name="n.ss02" unicode="&#xe027;" horiz-adv-x="2503" 
d="M39 0q-4 0 -4.5 4t4.5 5q17 2 25.5 8.5t8.5 24.5v353q0 21 -9 34.5t-33 13.5q-5 0 -6 2.5t7 4.5l111 24v-51q17 21 43.5 36t66.5 15q73 0 111 -38.5t38 -101.5v-248q0 -47 15 -87t42.5 -69t67.5 -45.5t91 -16.5q30 3 55.5 6t49.5 8.5t48.5 13.5t52.5 20
q-48 31 -89.5 69.5t-71.5 83.5t-47 97.5t-17 112.5q0 74 26.5 132t71 101.5t103.5 73.5t124 49t131.5 27.5t126.5 8.5q65 0 134 -11.5t136 -34.5t129 -57t114 -79q77 32 158.5 50.5t170.5 18.5q79 0 153 -19t131 -59.5t91.5 -104t34.5 -151.5q0 -54 -17 -104.5t-48 -94.5
q-63 -89 -158.5 -146.5t-205.5 -92t-224.5 -48t-216.5 -13.5q-89 0 -184.5 10.5t-190 33t-183.5 56.5t-165 81q-53 -24 -111 -39.5t-116 -15.5h-7q-59 2 -109.5 20.5t-87 48t-57.5 68t-21 80.5v269q0 55 -23.5 86.5t-69.5 31.5q-23 0 -41 -9t-30 -21.5t-18.5 -25.5t-6.5 -22
v-335q0 -18 8.5 -24.5t25.5 -8.5q5 -1 4.5 -5t-4.5 -4h-138zM843 -76q75 35 144.5 83.5t130.5 95.5q66 51 133 104t136 103t141 94.5t149 77.5q-50 42 -110 74.5t-124 54t-130.5 32.5t-130.5 11q-58 0 -122 -8t-127 -26t-120.5 -46.5t-101 -70.5t-69.5 -97.5t-26 -126.5
q0 -60 17.5 -111.5t48 -95.5t72 -81t89.5 -67zM859 -86q74 -44 161.5 -76.5t179.5 -53.5t185 -31.5t179 -10.5q94 0 202 12.5t212 42.5t196.5 80.5t156.5 126.5q40 48 62.5 102.5t22.5 117.5q0 85 -33 145t-88 98t-125.5 56t-145.5 18q-85 0 -163 -17t-152 -47
q25 -24 49.5 -53t43 -61.5t30 -67.5t11.5 -71q0 -41 -8 -64.5t-23 -34.5t-35.5 -13.5t-45.5 -2.5q-3 0 -3 2t3 3q7 1 22 9.5t29.5 24t25.5 38t11 51.5q0 36 -10.5 68t-28.5 60.5t-41 54.5t-48 49q-79 -34 -153 -79t-144 -96t-137.5 -104.5t-133.5 -104t-132 -95t-132 -76.5z
" />
    <glyph glyph-name="p.ss02" unicode="&#xe028;" horiz-adv-x="2496" 
d="M39 -165q-4 0 -4.5 4t4.5 5q17 2 25.5 8.5t8.5 24.5v518q0 21 -9 34.5t-33 13.5q-5 0 -6 2.5t7 4.5l111 24v-59q41 59 120 59q39 0 72.5 -14t58 -43t39 -75t14.5 -109v-22t-2 -22q39 18 83 38.5t93 42.5q-8 26 -12 53t-4 56q0 74 26.5 132t71 101.5t103.5 73.5t124 49
t131.5 27.5t126.5 8.5t122.5 -9.5t124 -28.5t119.5 -47.5t109 -65.5q95 18 187 28t180 10q79 0 153 -19t131 -59.5t91.5 -104t34.5 -151.5q0 -54 -17 -104.5t-48 -94.5q-63 -89 -158.5 -146.5t-205.5 -92t-224.5 -48t-216.5 -13.5q-77 0 -169 9.5t-187 30.5t-188 54.5
t-172 80.5t-139 109.5t-88 142.5q-51 -23 -97 -43.5t-87 -39.5q-14 -93 -63.5 -135t-116.5 -42q-42 0 -61.5 11.5t-19.5 28.5q0 36 62 62q19 8 50 23.5t75 36.5q2 17 3.5 36.5t1.5 42.5q0 122 -32.5 173.5t-90.5 51.5q-35 0 -62.5 -18t-45.5 -58v-505q0 -18 8.5 -24.5
t25.5 -8.5q5 -1 4.5 -5t-4.5 -4h-138zM637 277q103 45 222 93.5t248 94t264 84.5t269 66q-49 34 -104 60t-113.5 43.5t-118 26.5t-116.5 9q-58 0 -122 -8t-127 -26t-120.5 -46.5t-101 -70.5t-69.5 -97.5t-26 -126.5q0 -27 4 -52.5t11 -49.5zM642 259q27 -77 86 -138.5
t137 -107.5t170 -78.5t185.5 -53t184 -30t165.5 -9.5q94 0 202 12.5t212 42.5t196.5 80.5t156.5 126.5q40 48 62.5 102.5t22.5 117.5q0 85 -33 145t-88 98t-125.5 56t-145.5 18q-84 0 -170.5 -9t-177.5 -26q31 -24 61 -56t53.5 -68.5t38 -76.5t14.5 -81t-8 -64.5t-23 -34.5
t-35.5 -13.5t-45.5 -2.5q-3 0 -3 2t3 3q7 1 22 9.5t29.5 24t25.5 38t11 51.5q0 41 -14.5 78.5t-38 71t-53 62t-60.5 52.5q-135 -26 -271.5 -65.5t-267 -85.5t-252 -95.5t-226.5 -95.5zM244 78q-39 -17 -39 -41q0 -29 46 -29q45 0 74 29t40 96q-41 -19 -71 -33t-50 -22z" />
    <glyph glyph-name="s.ss02" unicode="&#xe029;" horiz-adv-x="2469" 
d="M40 352q0 30 11 53t30.5 38t45.5 23t55 8q24 0 43 -4.5t36 -11.5t33 -14t35 -12q-11 -25 -14 -51t-5 -66q0 -6 -7.5 -5.5t-7.5 5.5q0 25 -5 50.5t-18 46t-34 33t-53 12.5q-37 0 -60 -23t-23 -64q0 -31 17 -49t43.5 -30t57 -22t58 -24.5t47.5 -38t24 -61.5q32 5 63.5 11
t60.5 12q-8 26 -13 54.5t-5 59.5q0 74 26.5 132t71 101.5t103.5 73.5t124 49t131.5 27.5t126.5 8.5t122.5 -9.5t124 -28.5t120 -47.5t109.5 -66.5q81 18 171 28.5t195 10.5q79 0 153 -19t131 -59.5t91.5 -104t34.5 -151.5q0 -54 -17 -104.5t-48 -94.5q-63 -89 -158.5 -146.5
t-205.5 -92t-224.5 -48t-216.5 -13.5q-77 0 -168.5 9.5t-186.5 30.5t-187.5 54t-171.5 80t-139 109t-89 141q-31 -6 -62.5 -12t-65.5 -11q0 -32 -12.5 -57.5t-35 -43t-54 -27t-68.5 -9.5q-63 0 -92.5 15.5t-29.5 44.5q0 37 33.5 51t91.5 21q27 3 53 5.5t52 6.5
q-10 22 -32.5 35.5t-50 24.5t-57 22t-53.5 27.5t-39.5 41.5t-15.5 65zM489 171q162 35 291.5 82t245 95.5t227.5 93.5t238 75q-49 34 -104.5 60.5t-114 44t-118 26.5t-116.5 9q-58 0 -122 -8t-127 -26t-120.5 -46.5t-101 -70.5t-69.5 -97.5t-26 -126.5q0 -58 17 -111z
M495 155q29 -76 88 -136t137 -105.5t169 -77.5t184 -52t182.5 -29.5t164.5 -9.5q94 0 202 12.5t212 42.5t196.5 80.5t156.5 126.5q40 48 62.5 102.5t22.5 117.5q0 85 -33 145t-88 98t-125.5 56t-145.5 18q-100 0 -185 -9.5t-163 -26.5q31 -25 61 -56.5t53.5 -67.5t38 -75.5
t14.5 -81.5q0 -41 -8 -64.5t-23 -34.5t-35.5 -13.5t-45.5 -2.5q-3 0 -3 2t3 3q7 1 22 9.5t29.5 24t25.5 38t11 51.5q0 41 -14.5 78.5t-37.5 70.5t-52.5 61.5t-60.5 52.5q-85 -20 -162 -47t-153 -57.5t-153 -63.5t-161.5 -65.5t-179.5 -62t-206 -52.5zM183 108
q-18 -3 -36.5 -6.5t-33 -9t-24 -14t-9.5 -21.5q0 -15 9.5 -24.5t24 -14.5t31.5 -7t32 -2q50 0 84 21.5t34 71.5q0 5 -0.5 9.5t-1.5 9.5q-26 -4 -53.5 -7t-56.5 -6z" />
    <glyph glyph-name="t.ss02" unicode="&#xe02a;" horiz-adv-x="2231" 
d="M25 459q0 7 7 7h43v24q0 21 -9 34.5t-33 13.5q-5 0 -6 2.5t7 4.5l111 24v-103h104q7 0 7 -8q0 -7 -7 -7h-104v-365q0 -47 15 -87t42.5 -69t67.5 -45.5t91 -16.5q30 3 55.5 6t49.5 8.5t48.5 13.5t52.5 20q-48 31 -89.5 69.5t-71.5 83.5t-47 97.5t-17 112.5q0 74 26.5 132
t71 101.5t103.5 73.5t124 49t131.5 27.5t126.5 8.5q65 0 134 -11.5t136 -34.5t129 -57t114 -79q77 32 158.5 50.5t170.5 18.5q79 0 153 -19t131 -59.5t91.5 -104t34.5 -151.5q0 -54 -17 -104.5t-48 -94.5q-63 -89 -158.5 -146.5t-205.5 -92t-224.5 -48t-216.5 -13.5
q-89 0 -184.5 10.5t-190 33t-183.5 56.5t-165 81q-53 -24 -111 -39.5t-116 -15.5h-7q-59 2 -109.5 20.5t-87 48t-57.5 68t-21 80.5v383h-43q-7 0 -7 7v1zM586 -76q75 35 144.5 83.5t130.5 95.5q66 51 133 104t136 103t141 94.5t149 77.5q-50 42 -110 74.5t-124 54
t-130.5 32.5t-130.5 11q-58 0 -122 -8t-127 -26t-120.5 -46.5t-101 -70.5t-69.5 -97.5t-26 -126.5q0 -60 17.5 -111.5t48 -95.5t72 -81t89.5 -67zM602 -86q74 -44 161.5 -76.5t179.5 -53.5t185 -31.5t179 -10.5q94 0 202 12.5t212 42.5t196.5 80.5t156.5 126.5
q40 48 62.5 102.5t22.5 117.5q0 85 -33 145t-88 98t-125.5 56t-145.5 18q-85 0 -163 -17t-152 -47q25 -24 49.5 -53t43 -61.5t30 -67.5t11.5 -71q0 -41 -8 -64.5t-23 -34.5t-35.5 -13.5t-45.5 -2.5q-3 0 -3 2t3 3q7 1 22 9.5t29.5 24t25.5 38t11 51.5q0 36 -10.5 68
t-28.5 60.5t-41 54.5t-48 49q-79 -34 -153 -79t-144 -96t-137.5 -104.5t-133.5 -104t-132 -95t-132 -76.5z" />
    <glyph glyph-name="u.ss02" unicode="&#xe02b;" horiz-adv-x="2501" 
d="M614 -149q-44 0 -90.5 12.5t-86 37t-68 60.5t-35.5 84q-17 -22 -44 -37.5t-68 -15.5q-73 0 -111 38.5t-38 101.5v263q0 21 -9 34.5t-33 13.5q-5 0 -6 2.5t7 4.5l111 24v-345q0 -55 23.5 -86.5t69.5 -31.5q23 0 41 9t30 21.5t18.5 25.5t6.5 22v306q0 21 -9 34.5t-33 13.5
q-5 0 -6 2.5t7 4.5l111 24v-388q0 -47 15 -87t42.5 -69t67.5 -45.5t91 -16.5q30 3 55.5 6t49.5 8.5t48.5 13.5t52.5 20q-48 31 -89.5 69.5t-71.5 83.5t-47 97.5t-17 112.5q0 74 26.5 132t71 101.5t103.5 73.5t124 49t131.5 27.5t126.5 8.5q65 0 134 -11.5t136 -34.5t129 -57
t114 -79q77 32 158.5 50.5t170.5 18.5q79 0 153 -19t131 -59.5t91.5 -104t34.5 -151.5q0 -54 -17 -104.5t-48 -94.5q-63 -89 -158.5 -146.5t-205.5 -92t-224.5 -48t-216.5 -13.5q-89 0 -184.5 10.5t-190 33t-183.5 56.5t-165 81q-53 -24 -111 -39.5t-116 -15.5zM843 -76
q75 35 144.5 83.5t130.5 95.5q66 51 133 104t136 103t141 94.5t149 77.5q-50 42 -110 74.5t-124 54t-130.5 32.5t-130.5 11q-58 0 -122 -8t-127 -26t-120.5 -46.5t-101 -70.5t-69.5 -97.5t-26 -126.5q0 -60 17.5 -111.5t48 -95.5t72 -81t89.5 -67zM859 -86
q74 -44 161.5 -76.5t179.5 -53.5t185 -31.5t179 -10.5q94 0 202 12.5t212 42.5t196.5 80.5t156.5 126.5q40 48 62.5 102.5t22.5 117.5q0 85 -33 145t-88 98t-125.5 56t-145.5 18q-85 0 -163 -17t-152 -47q25 -24 49.5 -53t43 -61.5t30 -67.5t11.5 -71q0 -41 -8 -64.5
t-23 -34.5t-35.5 -13.5t-45.5 -2.5q-3 0 -3 2t3 3q7 1 22 9.5t29.5 24t25.5 38t11 51.5q0 36 -10.5 68t-28.5 60.5t-41 54.5t-48 49q-79 -34 -153 -79t-144 -96t-137.5 -104.5t-133.5 -104t-132 -95t-132 -76.5z" />
    <glyph glyph-name="v.ss02" unicode="&#xe02c;" horiz-adv-x="2508" 
d="M198 0l-123 387q-8 26 -22 46.5t-38 23.5q-5 1 -4.5 5t4.5 4h158q4 0 4.5 -4t-4.5 -5q-20 -2 -27.5 -17.5t0.5 -38.5l107 -336l92 290q19 61 48 101.5t66 64t81 33t94 9.5q42 0 83 -8.5t84 -22.5q77 53 170 91.5t192.5 63t200.5 36.5t194 12q102 0 216.5 -13.5t224.5 -48
t205.5 -92.5t158.5 -146q31 -44 48 -94.5t17 -104.5q0 -89 -34.5 -152t-91.5 -103.5t-131 -59.5t-153 -19q-81 0 -160.5 21.5t-158.5 56.5q-52 -47 -115 -83t-131 -60t-139 -36t-138 -12q-60 0 -126.5 8.5t-131.5 27.5t-124 49t-103.5 73.5t-71 101.5t-26.5 132
q0 55 14.5 103.5t40 91t61 79t77.5 67.5q-40 13 -78.5 20t-76.5 7q-47 0 -89 -10.5t-76.5 -34.5t-61.5 -63t-45 -95v-3l-1 -2l-108 -341h-52zM821 525q68 -25 138.5 -64t142.5 -85.5t145.5 -97.5t148 -101t149.5 -95.5t151 -80.5q24 22 45 47t37 52.5t25.5 58t9.5 64.5
q0 29 -11 51.5t-25.5 38t-29.5 23.5t-22 10q-3 1 -3 3t3 2q25 0 45.5 -2.5t35.5 -14t23 -34.5t8 -64q0 -35 -10.5 -68.5t-27.5 -64.5t-39.5 -59t-46.5 -51q76 -34 152.5 -54t152.5 -20q75 0 145.5 17.5t125.5 56t88 98.5t33 145q0 63 -22.5 117.5t-62.5 102.5
q-64 76 -156.5 126.5t-196.5 80.5t-212 42.5t-202 12.5q-90 0 -188 -11.5t-195 -35t-188 -60t-166 -86.5zM806 515q-42 -30 -78 -65.5t-62.5 -77t-41 -89t-14.5 -102.5q0 -71 26 -126.5t69.5 -97.5t101 -70.5t120.5 -46.5t127 -26t122 -8q65 0 133.5 11.5t134.5 34.5
t126.5 57t111.5 79q-77 36 -153 82t-151 96.5t-148 102t-145 98t-141.5 85t-137.5 63.5z" />
    <glyph glyph-name="w.ss02" unicode="&#xe02d;" horiz-adv-x="2714" 
d="M198 0l-123 387q-8 26 -22 46.5t-38 23.5q-5 1 -4.5 5t4.5 4h152q4 0 4.5 -4t-4.5 -5q-20 -2 -24.5 -17.5t3.5 -38.5l107 -336l58 183l-44 139q-8 26 -19 46.5t-30 23.5q-5 1 -4.5 5t4.5 4h233q4 0 4.5 -4.5t-4.5 -4.5q-35 -2 -52.5 -23t-25.5 -47l-15 -48l87 -274
l92 290q19 61 48 101.5t66 64t81 33t94 9.5q42 0 83 -8.5t84 -22.5q77 53 170 91.5t192.5 63t200.5 36.5t194 12q102 0 216.5 -13.5t224.5 -48t205.5 -92.5t158.5 -146q31 -44 48 -94.5t17 -104.5q0 -89 -34.5 -152t-91.5 -103.5t-131 -59.5t-153 -19q-81 0 -160.5 21.5
t-158.5 56.5q-52 -47 -115 -83t-131 -60t-139 -36t-138 -12q-60 0 -126.5 8.5t-131.5 27.5t-124 49t-103.5 73.5t-71 101.5t-26.5 132q0 55 14.5 103.5t40 91t61 79t77.5 67.5q-40 13 -78.5 20t-76.5 7q-91 0 -159.5 -41.5t-105.5 -141.5l-116 -366h-52l-70 220l-70 -220
h-52zM1013 525q68 -25 138.5 -64t142.5 -85.5t145.5 -97.5t148 -101t149.5 -95.5t151 -80.5q24 22 45 47t37 52.5t25.5 58t9.5 64.5q0 29 -11 51.5t-25.5 38t-29.5 23.5t-22 10q-3 1 -3 3t3 2q25 0 45.5 -2.5t35.5 -14t23 -34.5t8 -64q0 -35 -10.5 -68.5t-27.5 -64.5
t-39.5 -59t-46.5 -51q76 -34 152.5 -54t152.5 -20q75 0 145.5 17.5t125.5 56t88 98.5t33 145q0 63 -22.5 117.5t-62.5 102.5q-64 76 -156.5 126.5t-196.5 80.5t-212 42.5t-202 12.5q-90 0 -188 -11.5t-195 -35t-188 -60t-166 -86.5zM998 515q-42 -30 -78 -65.5t-62.5 -77
t-41 -89t-14.5 -102.5q0 -71 26 -126.5t69.5 -97.5t101 -70.5t120.5 -46.5t127 -26t122 -8q65 0 133.5 11.5t134.5 34.5t126.5 57t111.5 79q-77 36 -153 82t-151 96.5t-148 102t-145 98t-141.5 85t-137.5 63.5zM360 401q12 37 -11 51q-23 -14 -11 -51l11 -35z" />
    <glyph glyph-name="x.ss02" unicode="&#xe02e;" horiz-adv-x="2464" 
d="M206 222l-86 165q-14 26 -33 46.5t-44 23.5q-5 1 -4.5 5t4.5 4h167q4 0 4.5 -4t-4.5 -5q-20 -2 -24 -17.5t8 -38.5l55 -106l36 59q30 54 65.5 90.5t76 58t86 31t95.5 9.5q32 0 63.5 -5t63.5 -13q77 55 171 95t195.5 65.5t204 37.5t196.5 12q102 0 216.5 -13.5t224.5 -48
t205.5 -92.5t158.5 -146q31 -44 48 -94.5t17 -104.5q0 -89 -34.5 -152t-91.5 -103.5t-131 -59.5t-153 -19q-81 0 -161 21t-158 56q-52 -47 -115 -82.5t-131.5 -59.5t-139 -36t-137.5 -12q-60 0 -126.5 8.5t-131.5 27.5t-124 49t-103.5 73.5t-71 101.5t-26.5 132
q0 54 13.5 101t38 88.5t58 77.5t73.5 66q-59 15 -115 15q-92 0 -166 -39.5t-130 -129.5l-50 -83l103 -198q14 -26 39 -46.5t50 -23.5q5 -1 4.5 -5t-4.5 -4h-179q-4 0 -4.5 4t4.5 5q20 2 24 17.5t-8 38.5l-73 139l-83 -139q-14 -23 -11 -38.5t23 -17.5q5 -1 3.5 -5t-5.5 -4
h-113q-4 0 -3.5 4t5.5 5q25 3 49 23.5t40 46.5zM756 519q70 -21 141 -58t143.5 -82.5t146.5 -97t148.5 -102t151 -97t153.5 -82.5q23 22 44.5 47t37.5 53t25.5 59t9.5 64q0 29 -11 51.5t-25.5 38t-29.5 23.5t-22 10q-3 1 -3 3t3 2q25 0 45.5 -2.5t35.5 -14t23 -34.5t8 -64
q0 -35 -10.5 -68.5t-27.5 -65t-39.5 -59.5t-46.5 -51q76 -34 151.5 -53.5t153.5 -19.5q75 0 145.5 17.5t125.5 56t88 98.5t33 145q0 63 -22.5 117.5t-62.5 102.5q-64 76 -156.5 126.5t-196.5 80.5t-212 42.5t-202 12.5q-91 0 -190.5 -11.5t-198 -36t-190 -62t-167.5 -89.5z
M740 508q-41 -30 -75 -64.5t-58.5 -75t-38.5 -87.5t-14 -100q0 -71 26 -126.5t69.5 -97.5t101 -70.5t120.5 -46.5t127 -26t122 -8q65 0 133 11.5t134 34.5t126.5 56.5t111.5 78.5q-79 37 -155.5 84t-152 98.5t-149 103t-146 97.5t-143 82t-139.5 56z" />
    <glyph glyph-name="y.ss02" unicode="&#xe02f;" horiz-adv-x="2503" 
d="M251 -3q-13 -40 -28 -77t-35.5 -65.5t-48 -45.5t-66.5 -17t-64.5 16.5t-33.5 40.5q-2 5 4 7t10 -5q11 -20 33.5 -31.5t51.5 -11.5q36 0 61.5 18.5t44.5 46.5t31.5 62t22.5 65h-34l-123 387q-8 26 -22 46.5t-38 23.5q-5 1 -4.5 5t4.5 4h158q4 0 4.5 -4t-4.5 -5
q-20 -2 -27.5 -17.5t0.5 -38.5l107 -336l92 290q19 61 48 101.5t66 64t81 33t94 9.5q42 0 83 -8.5t84 -22.5q77 53 170 91.5t192.5 63t200.5 36.5t194 12q102 0 216.5 -13.5t224.5 -48t205.5 -92.5t158.5 -146q31 -44 48 -94.5t17 -104.5q0 -89 -34.5 -152t-91.5 -103.5
t-131 -59.5t-153 -19q-81 0 -160.5 21.5t-158.5 56.5q-52 -47 -115 -83t-131 -60t-139 -36t-138 -12q-60 0 -126.5 8.5t-131.5 27.5t-124 49t-103.5 73.5t-71 101.5t-26.5 132q0 55 14.5 103.5t40 91t61 79t77.5 67.5q-40 13 -78.5 20t-76.5 7q-46 0 -87 -10.5t-75 -33.5
t-61 -59.5t-45 -89.5zM823 525q68 -25 138.5 -64t142.5 -85.5t145.5 -97.5t148 -101t149.5 -95.5t151 -80.5q24 22 45 47t37 52.5t25.5 58t9.5 64.5q0 29 -11 51.5t-25.5 38t-29.5 23.5t-22 10q-3 1 -3 3t3 2q25 0 45.5 -2.5t35.5 -14t23 -34.5t8 -64q0 -35 -10.5 -68.5
t-27.5 -64.5t-39.5 -59t-46.5 -51q76 -34 152.5 -54t152.5 -20q75 0 145.5 17.5t125.5 56t88 98.5t33 145q0 63 -22.5 117.5t-62.5 102.5q-64 76 -156.5 126.5t-196.5 80.5t-212 42.5t-202 12.5q-90 0 -188 -11.5t-195 -35t-188 -60t-166 -86.5zM808 515q-42 -30 -78 -65.5
t-62.5 -77t-41 -89t-14.5 -102.5q0 -71 26 -126.5t69.5 -97.5t101 -70.5t120.5 -46.5t127 -26t122 -8q65 0 133.5 11.5t134.5 34.5t126.5 57t111.5 79q-77 36 -153 82t-151 96.5t-148 102t-145 98t-141.5 85t-137.5 63.5z" />
    <glyph glyph-name="a.ss03" unicode="&#xe030;" horiz-adv-x="1480" 
d="M741 -190q-37 0 -81 5.5t-88 18t-86 32.5t-76 50t-57 70t-29 92l-2 3q-7 -15 -19.5 -31t-29.5 -29t-39.5 -21t-49.5 -8q-29 0 -55 7.5t-46 24t-31.5 43.5t-11.5 66q0 37 11.5 62.5t32.5 42.5t51 29.5t67 24.5q21 7 42 15t37.5 16.5t27.5 17t13 16.5q-1 20 -6 38t-15 31.5
t-26 21t-39 7.5q-33 0 -56.5 -9.5t-39 -25.5t-22.5 -37t-7 -45q0 -4 -4 -4.5t-5 4.5q-3 33 -6 56t-10 43q12 3 30.5 9t39.5 12t42.5 11t39.5 5q22 0 49 -7.5t50 -24.5t39 -45t16 -68v-165q0 -93 28 -157t76.5 -104t114.5 -57.5t141 -17.5q127 0 241.5 31.5t200 97.5
t136 168.5t50.5 244.5q0 115 -46.5 204.5t-124 152.5t-177 98t-205.5 42q51 -68 80 -152t29 -188q0 -81 -21 -159t-63.5 -139t-106 -98.5t-148.5 -37.5q-8 0 -8 8t8 8q83 7 143.5 43.5t100.5 93.5t59 130t19 151q0 106 -30 190t-84 151h-7l-15 1h-7q-80 0 -158.5 -14.5
t-156 -36t-155.5 -46.5t-156.5 -46.5t-159 -36t-163.5 -14.5q-51 0 -111.5 8.5t-112 32.5t-86 65.5t-34.5 107.5q0 59 32.5 102.5t84.5 74.5t117 50.5t131 30.5t126 15t101 4q102 0 207 -16t202.5 -50t182 -87t146.5 -128q110 -5 215.5 -41t187.5 -101t132 -158.5t50 -214.5
q0 -138 -48 -242.5t-135 -175t-208 -106.5t-266 -36zM790 886q-62 71 -145 121t-177.5 81.5t-195.5 46t-197 14.5q-39 0 -97 -3.5t-122 -14t-127.5 -28.5t-114 -47.5t-82 -71t-31.5 -98.5q0 -60 33.5 -98t83 -59.5t106 -29t103.5 -7.5q83 0 163 14.5t158.5 36t156 46.5
t155.5 46.5t156.5 36t159.5 14.5h14zM322 333q-15 -16 -46 -29.5t-63 -27.5q-49 -21 -74.5 -53.5t-25.5 -89.5q0 -52 21 -86t62 -34q27 0 50.5 12.5t40 31.5t26 40t9.5 39v197z" />
    <glyph glyph-name="c.ss03" unicode="&#xe031;" horiz-adv-x="1269" 
d="M113 233q0 -84 24.5 -145.5t64.5 -104t91 -69t104 -41t103.5 -19.5t89.5 -5q67 0 137.5 12.5t137.5 38.5t126.5 67.5t104.5 99.5t71 133t26 170q0 115 -46.5 204.5t-124 152.5t-177 98t-205.5 42q51 -68 80 -152t29 -188q0 -81 -21 -159t-63.5 -139t-106 -98.5
t-148.5 -37.5q-8 0 -8 8t8 8q83 7 143.5 43.5t100.5 93.5t59 130t19 151q0 106 -30 190t-84 151h-7l-15 1h-7q-80 0 -158.5 -14.5t-156 -36t-155.5 -46.5t-156.5 -46.5t-159 -36t-163.5 -14.5q-51 0 -111.5 8.5t-112 32.5t-86 65.5t-34.5 107.5q0 59 32.5 102.5t84.5 74.5
t117 50.5t131 30.5t126 15t101 4q102 0 207 -16t202.5 -50t182 -87t146.5 -128q110 -5 215.5 -41t187.5 -101t132 -158.5t50 -214.5q0 -92 -25 -167.5t-69 -135.5t-104 -104.5t-130.5 -73.5t-148 -43.5t-155.5 -14.5q-49 0 -108 7t-119 24.5t-116 47t-99.5 74.5t-70 106
t-26.5 143q0 121 53.5 181t140.5 60q22 0 41 -4t37 -10t35.5 -12.5t36.5 -10.5q-7 -20 -10 -43t-6 -56q-1 -5 -5 -4.5t-4 4.5q0 24 -7 45.5t-22.5 38t-39.5 26.5t-57 10q-27 0 -49 -12.5t-38 -39.5t-24.5 -69.5t-8.5 -103.5zM603 886q-62 71 -145 121t-177.5 81.5t-195.5 46
t-197 14.5q-39 0 -97 -3.5t-122 -14t-127.5 -28.5t-114 -47.5t-82 -71t-31.5 -98.5q0 -60 33.5 -98t83 -59.5t106 -29t103.5 -7.5q83 0 163 14.5t158.5 36t156 46.5t155.5 46.5t156.5 36t159.5 14.5h14z" />
    <glyph glyph-name="d.ss03" unicode="&#xe032;" horiz-adv-x="1503" 
d="M763 -190q-53 0 -118.5 11.5t-125.5 39t-106 74t-62 116.5h-7q-41 -59 -120 -59q-39 0 -72.5 14t-58 43t-39 75t-14.5 109t14.5 109t39 75t58 43t72.5 14q79 0 120 -59v145q0 21 -9 34.5t-33 13.5q-5 0 -6 2.5t7 4.5l111 24v-475q0 -93 28 -157t76.5 -104t114.5 -57.5
t141 -17.5q127 0 241.5 31.5t200 97.5t136 168.5t50.5 244.5q0 115 -46.5 204.5t-124 152.5t-177 98t-205.5 42q51 -68 80 -152t29 -188q0 -81 -21 -159t-63.5 -139t-106 -98.5t-148.5 -37.5q-8 0 -8 8t8 8q83 7 143.5 43.5t100.5 93.5t59 130t19 151q0 106 -30 190t-84 151
h-7l-15 1h-7q-80 0 -158.5 -14.5t-156 -36t-155.5 -46.5t-156.5 -46.5t-159 -36t-163.5 -14.5q-51 0 -111.5 8.5t-112 32.5t-86 65.5t-34.5 107.5q0 59 32.5 102.5t84.5 74.5t117 50.5t131 30.5t126 15t101 4q102 0 207 -16t202.5 -50t182 -87t146.5 -128q110 -5 215.5 -41
t187.5 -101t132 -158.5t50 -214.5q0 -138 -48 -242.5t-135 -175t-208 -106.5t-266 -36zM812 886q-62 71 -145 121t-177.5 81.5t-195.5 46t-197 14.5q-39 0 -97 -3.5t-122 -14t-127.5 -28.5t-114 -47.5t-82 -71t-31.5 -98.5q0 -60 33.5 -98t83 -59.5t106 -29t103.5 -7.5
q83 0 163 14.5t158.5 36t156 46.5t155.5 46.5t156.5 36t159.5 14.5h14zM344 382q-18 40 -45.5 58t-62.5 18q-58 0 -90.5 -51.5t-32.5 -173.5t32.5 -173.5t90.5 -51.5q35 0 62.5 18t45.5 58v298z" />
    <glyph glyph-name="e.ss03" unicode="&#xe033;" horiz-adv-x="1317" 
d="M579 -169q-49 0 -108 7t-119 24.5t-116 47t-99.5 74.5t-70 106t-26.5 143q0 121 53.5 181t140.5 60q44 0 74.5 -11.5t49 -31t26.5 -44t8 -49.5q0 -50 -22 -85.5t-55 -58.5t-72 -34t-74 -11q-28 0 -49 6q12 -64 41.5 -112t70 -82t89 -56t96.5 -34.5t93 -17t80 -4.5
q67 0 137.5 12.5t137.5 38.5t126.5 67.5t104.5 99.5t71 133t26 170q0 115 -46.5 204.5t-124 152.5t-177 98t-205.5 42q51 -68 80 -152t29 -188q0 -81 -21 -159t-63.5 -139t-106 -98.5t-148.5 -37.5q-8 0 -8 8t8 8q83 7 143.5 43.5t100.5 93.5t59 130t19 151q0 106 -30 190
t-84 151h-7l-15 1h-7q-80 0 -158.5 -14.5t-156 -36t-155.5 -46.5t-156.5 -46.5t-159 -36t-163.5 -14.5q-51 0 -111.5 8.5t-112 32.5t-86 65.5t-34.5 107.5q0 59 32.5 102.5t84.5 74.5t117 50.5t131 30.5t126 15t101 4q102 0 207 -16t202.5 -50t182 -87t146.5 -128
q110 -5 215.5 -41t187.5 -101t132 -158.5t50 -214.5q0 -92 -25 -167.5t-69 -135.5t-104 -104.5t-130.5 -73.5t-148 -43.5t-155.5 -14.5zM603 886q-62 71 -145 121t-177.5 81.5t-195.5 46t-197 14.5q-39 0 -97 -3.5t-122 -14t-127.5 -28.5t-114 -47.5t-82 -71t-31.5 -98.5
q0 -60 33.5 -98t83 -59.5t106 -29t103.5 -7.5q83 0 163 14.5t158.5 36t156 46.5t155.5 46.5t156.5 36t159.5 14.5h14zM116 179q8 -7 20 -10t26 -3q25 0 54 10.5t54.5 32.5t42.5 56t17 81q0 18 -3.5 37.5t-14 36t-29.5 27.5t-50 11q-27 0 -49 -12.5t-38 -39.5t-24.5 -69.5
t-8.5 -103.5q0 -29 3 -54z" />
    <glyph glyph-name="g.ss03" unicode="&#xe034;" horiz-adv-x="484" 
d="M449 466q8 0 7 -4.5t-6 -4.5q-13 0 -20 -6t-10 -15t-3.5 -20t-0.5 -21v-363q0 -63 -5 -121.5t-15 -112.5q83 -27 163.5 -62t152 -78t132 -93.5t104.5 -109.5t68.5 -126t24.5 -143q0 -71 -23 -126.5t-62 -98.5t-91.5 -73.5t-111.5 -49.5t-122.5 -28t-123.5 -9
q-89 0 -178.5 18t-174.5 51.5t-162 80.5t-141 105q-100 -56 -210.5 -86.5t-231.5 -30.5q-96 0 -179.5 26.5t-145.5 78.5t-97.5 129t-35.5 179q0 108 37 191.5t100 145t146.5 103.5t175.5 67.5t187.5 36.5t183.5 11q54 0 118.5 -5.5t136.5 -17t148.5 -28.5t154.5 -40
q3 42 5 89.5t2 101.5v44q-41 -59 -120 -59q-39 0 -72.5 14t-58 43t-39 75t-14.5 109t14.5 109t39 75t58 43t72.5 14q79 0 120 -59v39q0 12 12 12h91zM346 382q-18 40 -45.5 58t-62.5 18q-58 0 -90.5 -51.5t-32.5 -173.5t32.5 -173.5t90.5 -51.5q35 0 62.5 18t45.5 58v298z
M-591 -1044q118 0 225 29.5t204 83.5q-47 44 -84.5 93.5t-64.5 103t-41.5 111t-14.5 117.5q0 3 7.5 11t17 16t19.5 14.5t16 8.5q4 1 4.5 -1t0.5 -4t-6.5 -6.5t-14.5 -18.5q-5 -9 -10 -23.5t-5 -33.5q0 -99 53 -195.5t144 -180.5q92 54 171.5 125.5t146.5 159.5
q23 29 42.5 59t39.5 61q25 42 46.5 116t32.5 196q-78 24 -155 41t-149 28.5t-136.5 17t-116.5 5.5q-85 0 -178.5 -10.5t-183.5 -35t-172 -65t-144 -100.5t-98.5 -141t-36.5 -186q0 -98 34.5 -172.5t94 -124t140 -74.5t172.5 -25zM267 -533q-7 -12 -18.5 -29t-23.5 -34
t-22 -31t-13 -18q-68 -88 -147.5 -160t-170.5 -126q61 -55 135.5 -101t156.5 -79.5t169 -52t174 -18.5q59 0 120.5 8t119 26.5t108 47.5t88 71t59 97t21.5 126q0 108 -52.5 197.5t-140 162.5t-201.5 129t-236 97q-38 -194 -125 -313h-1z" />
    <glyph glyph-name="h.ss03" unicode="&#xe035;" horiz-adv-x="1553" 
d="M39 0q-4 0 -4.5 4t4.5 5q17 2 25.5 8.5t8.5 24.5v518q0 21 -9 34.5t-33 13.5q-5 0 -6 2.5t7 4.5l111 24v-216q17 21 43.5 36t66.5 15q73 0 111 -38.5t38 -101.5v-170q0 -93 28 -157t76.5 -104t114.5 -57.5t141 -17.5q127 0 241.5 31.5t200 97.5t136 168.5t50.5 244.5
q0 115 -46.5 204.5t-124 152.5t-177 98t-205.5 42q51 -68 80 -152t29 -188q0 -81 -21 -159t-63.5 -139t-106 -98.5t-148.5 -37.5q-8 0 -8 8t8 8q83 7 143.5 43.5t100.5 93.5t59 130t19 151q0 106 -30 190t-84 151h-7l-15 1h-7q-80 0 -158.5 -14.5t-156 -36t-155.5 -46.5
t-156.5 -46.5t-159 -36t-163.5 -14.5q-51 0 -111.5 8.5t-112 32.5t-86 65.5t-34.5 107.5q0 59 32.5 102.5t84.5 74.5t117 50.5t131 30.5t126 15t101 4q102 0 207 -16t202.5 -50t182 -87t146.5 -128q110 -5 215.5 -41t187.5 -101t132 -158.5t50 -214.5q0 -138 -48 -242.5
t-135 -175t-208 -106.5t-266 -36q-39 0 -85.5 6t-93 20t-90 37t-77 57t-53.5 79.5t-20 104.5v223q0 55 -23.5 86.5t-69.5 31.5q-23 0 -41 -9t-30 -21.5t-18.5 -25.5t-6.5 -22v-335q0 -18 8.5 -24.5t25.5 -8.5q5 -1 4.5 -5t-4.5 -4h-138zM800 886q-62 71 -145 121
t-177.5 81.5t-195.5 46t-197 14.5q-39 0 -97 -3.5t-122 -14t-127.5 -28.5t-114 -47.5t-82 -71t-31.5 -98.5q0 -60 33.5 -98t83 -59.5t106 -29t103.5 -7.5q83 0 163 14.5t158.5 36t156 46.5t155.5 46.5t156.5 36t159.5 14.5h14z" />
    <glyph glyph-name="i.ss03" unicode="&#xe036;" horiz-adv-x="1255" 
d="M492 -190q-39 0 -85.5 6t-93 20t-90 37t-77 57t-53.5 79.5t-20 104.5v281q0 21 -9 34.5t-33 13.5q-5 0 -6 2.5t7 4.5l111 24v-310q0 -93 28 -157t76.5 -104t114.5 -57.5t141 -17.5q127 0 241.5 31.5t200 97.5t136 168.5t50.5 244.5q0 115 -46.5 204.5t-124 152.5t-177 98
t-205.5 42q51 -68 80 -152t29 -188q0 -81 -21 -159t-63.5 -139t-106 -98.5t-148.5 -37.5q-8 0 -8 8t8 8q83 7 143.5 43.5t100.5 93.5t59 130t19 151q0 106 -30 190t-84 151h-7l-15 1h-7q-80 0 -158.5 -14.5t-156 -36t-155.5 -46.5t-156.5 -46.5t-159 -36t-163.5 -14.5
q-51 0 -111.5 8.5t-112 32.5t-86 65.5t-34.5 107.5q0 59 32.5 102.5t84.5 74.5t117 50.5t131 30.5t126 15t101 4q102 0 207 -16t202.5 -50t182 -87t146.5 -128q110 -5 215.5 -41t187.5 -101t132 -158.5t50 -214.5q0 -138 -48 -242.5t-135 -175t-208 -106.5t-266 -36z
M541 886q-62 71 -145 121t-177.5 81.5t-195.5 46t-197 14.5q-39 0 -97 -3.5t-122 -14t-127.5 -28.5t-114 -47.5t-82 -71t-31.5 -98.5q0 -60 33.5 -98t83 -59.5t106 -29t103.5 -7.5q83 0 163 14.5t158.5 36t156 46.5t155.5 46.5t156.5 36t159.5 14.5h14zM64 560q0 18 11 29.5
t30 11.5q18 0 29 -11.5t11 -29.5t-11 -29.5t-29 -11.5q-19 0 -30 11.5t-11 29.5z" />
    <glyph glyph-name="j.ss03" unicode="&#xe037;" horiz-adv-x="207" 
d="M61 560q0 18 11 29.5t30 11.5q18 0 29 -11.5t11 -29.5t-11 -29.5t-29 -11.5q-19 0 -30 11.5t-11 29.5zM139 32q0 -63 -5 -121.5t-15 -112.5q83 -27 163.5 -62t152 -78t132 -93.5t104.5 -109.5t68.5 -126t24.5 -143q0 -71 -22.5 -126.5t-62 -98.5t-92 -73.5t-111.5 -49.5
t-122.5 -28t-123.5 -9q-89 0 -178.5 18t-174.5 51.5t-162 80.5t-141 105q-100 -56 -210.5 -86.5t-231.5 -30.5q-96 0 -179.5 26.5t-145.5 78.5t-97.5 129t-35.5 179q0 108 37 191.5t100 145t146.5 103.5t175.5 67.5t187.5 36.5t183.5 11q54 0 118.5 -5.5t136.5 -17
t148.5 -28.5t154.5 -40q3 42 5 89.5t2 101.5v388q0 21 -9 34.5t-33 13.5q-5 0 -6 2.5t7 4.5l111 24v-442zM-868 -1044q118 0 225 29.5t204 83.5q-47 44 -84.5 93.5t-64.5 103t-41.5 111t-14.5 117.5q0 3 7.5 11t17 16t19.5 14.5t16 8.5q4 1 4.5 -1t0.5 -4t-6.5 -6.5
t-14.5 -18.5q-5 -9 -10 -23.5t-5 -33.5q0 -99 53 -195.5t144 -180.5q92 54 171.5 125.5t146.5 159.5q23 29 42.5 59t39.5 61q25 42 46.5 116t32.5 196q-78 24 -155 41t-149 28.5t-136.5 17t-116.5 5.5q-85 0 -178.5 -10.5t-183.5 -35t-172 -65t-144 -100.5t-98.5 -141
t-36.5 -186q0 -98 34.5 -172.5t94 -124t140 -74.5t172.5 -25zM-10 -533q-7 -12 -18.5 -29t-23.5 -34t-22 -31t-13 -18q-68 -88 -147.5 -160t-170.5 -126q61 -55 135.5 -101t156.5 -79.5t169 -52t174 -18.5q59 0 120.5 8t119 26.5t108 47.5t88 71t59 97t21.5 126
q0 108 -52.5 197.5t-140 162.5t-201.5 129t-236 97q-38 -194 -125 -313h-1z" />
    <glyph glyph-name="k.ss03" unicode="&#xe038;" horiz-adv-x="452" 
d="M39 0q-4 0 -4.5 4t4.5 5q17 2 25.5 8.5t8.5 24.5v518q0 21 -9 34.5t-33 13.5q-5 0 -6 2.5t7 4.5l111 24v-389l131 148q13 15 18 26t3.5 18t-7.5 10.5t-13 4.5q-4 1 -3.5 5t4.5 4h123q4 0 4.5 -4t-4.5 -5q-19 -2 -47.5 -15.5t-60.5 -49.5l-46 -52l122 -248
q28 -59 65 -107.5t89 -83t123 -54t167 -19.5q127 0 233.5 31.5t183.5 97.5t119.5 168.5t42.5 244.5q0 115 -46.5 204.5t-124 152.5t-177 98t-205.5 42q51 -68 80 -152t29 -188q0 -81 -21 -159t-63.5 -139t-106 -98.5t-148.5 -37.5q-8 0 -8 8t8 8q83 7 143.5 43.5t100.5 93.5
t59 130t19 151q0 106 -30 190t-84 151h-7l-15 1h-7q-80 0 -158.5 -14.5t-156 -36t-155.5 -46.5t-156.5 -46.5t-159 -36t-163.5 -14.5q-51 0 -111.5 8.5t-112 32.5t-86 65.5t-34.5 107.5q0 59 32.5 102.5t84.5 74.5t117 50.5t131 30.5t126 15t101 4q102 0 207 -16t202.5 -50
t182 -87t146.5 -128q110 -5 215.5 -41t187.5 -101t132 -158.5t50 -214.5q0 -138 -40.5 -242.5t-118.5 -175t-191 -106.5t-258 -36q-80 0 -155.5 12.5t-141 42.5t-118.5 79.5t-88 123.5l-104 213l-50 -57v-182q0 -18 8.5 -24.5t25.5 -8.5q5 -1 4.5 -5t-4.5 -4h-138zM800 886
q-62 71 -145 121t-177.5 81.5t-195.5 46t-197 14.5q-39 0 -97 -3.5t-122 -14t-127.5 -28.5t-114 -47.5t-82 -71t-31.5 -98.5q0 -60 33.5 -98t83 -59.5t106 -29t103.5 -7.5q83 0 163 14.5t158.5 36t156 46.5t155.5 46.5t156.5 36t159.5 14.5h14z" />
    <glyph glyph-name="l.ss03" unicode="&#xe039;" horiz-adv-x="1289" 
d="M492 -190q-39 0 -85.5 6t-93 20t-90 37t-77 57t-53.5 79.5t-20 104.5v446q0 21 -9 34.5t-33 13.5q-5 0 -6 2.5t7 4.5l111 24v-475q0 -93 28 -157t76.5 -104t114.5 -57.5t141 -17.5q127 0 241.5 31.5t200 97.5t136 168.5t50.5 244.5q0 115 -46.5 204.5t-124 152.5t-177 98
t-205.5 42q51 -68 80 -152t29 -188q0 -81 -21 -159t-63.5 -139t-106 -98.5t-148.5 -37.5q-8 0 -8 8t8 8q83 7 143.5 43.5t100.5 93.5t59 130t19 151q0 106 -30 190t-84 151h-7l-15 1h-7q-80 0 -158.5 -14.5t-156 -36t-155.5 -46.5t-156.5 -46.5t-159 -36t-163.5 -14.5
q-51 0 -111.5 8.5t-112 32.5t-86 65.5t-34.5 107.5q0 59 32.5 102.5t84.5 74.5t117 50.5t131 30.5t126 15t101 4q102 0 207 -16t202.5 -50t182 -87t146.5 -128q110 -5 215.5 -41t187.5 -101t132 -158.5t50 -214.5q0 -138 -48 -242.5t-135 -175t-208 -106.5t-266 -36z
M541 886q-62 71 -145 121t-177.5 81.5t-195.5 46t-197 14.5q-39 0 -97 -3.5t-122 -14t-127.5 -28.5t-114 -47.5t-82 -71t-31.5 -98.5q0 -60 33.5 -98t83 -59.5t106 -29t103.5 -7.5q83 0 163 14.5t158.5 36t156 46.5t155.5 46.5t156.5 36t159.5 14.5h14z" />
    <glyph glyph-name="m.ss03" unicode="&#xe03a;" horiz-adv-x="1761" 
d="M39 0q-4 0 -4.5 4t4.5 5q17 2 25.5 8.5t8.5 24.5v353q0 21 -9 34.5t-33 13.5q-5 0 -6 2.5t7 4.5l111 24v-51q17 21 43.5 36t66.5 15q49 0 82.5 -18t50.5 -50q15 27 44 47.5t77 20.5q73 0 111 -38.5t38 -101.5v-170q0 -93 28 -157t76.5 -104t114.5 -57.5t141 -17.5
q127 0 241.5 31.5t200 97.5t136 168.5t50.5 244.5q0 115 -46.5 204.5t-124 152.5t-177 98t-205.5 42q51 -68 80 -152t29 -188q0 -81 -21 -159t-63.5 -139t-106 -98.5t-148.5 -37.5q-8 0 -8 8t8 8q83 7 143.5 43.5t100.5 93.5t59 130t19 151q0 106 -30 190t-84 151h-7l-15 1
h-7q-80 0 -158.5 -14.5t-156 -36t-155.5 -46.5t-156.5 -46.5t-159 -36t-163.5 -14.5q-51 0 -111.5 8.5t-112 32.5t-86 65.5t-34.5 107.5q0 59 32.5 102.5t84.5 74.5t117 50.5t131 30.5t126 15t101 4q102 0 207 -16t202.5 -50t182 -87t146.5 -128q110 -5 215.5 -41
t187.5 -101t132 -158.5t50 -214.5q0 -138 -48 -242.5t-135 -175t-208 -106.5t-266 -36q-39 0 -85.5 6t-93 20t-90 37t-77 57t-53.5 79.5t-20 104.5v223q0 55 -23.5 86.5t-69.5 31.5q-23 0 -41 -9t-30 -21.5t-18.5 -25.5t-6.5 -22q5 -22 5 -43v-292q0 -18 8.5 -24.5
t25.5 -8.5q5 -1 4.5 -5t-4.5 -4h-138q-4 0 -4.5 4t4.5 5q17 2 25.5 8.5t8.5 24.5v295q0 55 -23.5 86.5t-69.5 31.5q-23 0 -41 -9t-30 -21.5t-18.5 -25.5t-6.5 -22v-335q0 -18 8.5 -24.5t25.5 -8.5q5 -1 4.5 -5t-4.5 -4h-138zM1054 886q-62 71 -145 121t-177.5 81.5
t-195.5 46t-197 14.5q-39 0 -97 -3.5t-122 -14t-127.5 -28.5t-114 -47.5t-82 -71t-31.5 -98.5q0 -60 33.5 -98t83 -59.5t106 -29t103.5 -7.5q83 0 163 14.5t158.5 36t156 46.5t155.5 46.5t156.5 36t159.5 14.5h14z" />
    <glyph glyph-name="n.ss03" unicode="&#xe03b;" horiz-adv-x="1530" 
d="M39 0q-4 0 -4.5 4t4.5 5q17 2 25.5 8.5t8.5 24.5v353q0 21 -9 34.5t-33 13.5q-5 0 -6 2.5t7 4.5l111 24v-51q17 21 43.5 36t66.5 15q73 0 111 -38.5t38 -101.5v-170q0 -93 28 -157t76.5 -104t114.5 -57.5t141 -17.5q127 0 241.5 31.5t200 97.5t136 168.5t50.5 244.5
q0 115 -46.5 204.5t-124 152.5t-177 98t-205.5 42q51 -68 80 -152t29 -188q0 -81 -21 -159t-63.5 -139t-106 -98.5t-148.5 -37.5q-8 0 -8 8t8 8q83 7 143.5 43.5t100.5 93.5t59 130t19 151q0 106 -30 190t-84 151h-7l-15 1h-7q-80 0 -158.5 -14.5t-156 -36t-155.5 -46.5
t-156.5 -46.5t-159 -36t-163.5 -14.5q-51 0 -111.5 8.5t-112 32.5t-86 65.5t-34.5 107.5q0 59 32.5 102.5t84.5 74.5t117 50.5t131 30.5t126 15t101 4q102 0 207 -16t202.5 -50t182 -87t146.5 -128q110 -5 215.5 -41t187.5 -101t132 -158.5t50 -214.5q0 -138 -48 -242.5
t-135 -175t-208 -106.5t-266 -36q-39 0 -85.5 6t-93 20t-90 37t-77 57t-53.5 79.5t-20 104.5v223q0 55 -23.5 86.5t-69.5 31.5q-23 0 -41 -9t-30 -21.5t-18.5 -25.5t-6.5 -22v-335q0 -18 8.5 -24.5t25.5 -8.5q5 -1 4.5 -5t-4.5 -4h-138zM800 886q-62 71 -145 121
t-177.5 81.5t-195.5 46t-197 14.5q-39 0 -97 -3.5t-122 -14t-127.5 -28.5t-114 -47.5t-82 -71t-31.5 -98.5q0 -60 33.5 -98t83 -59.5t106 -29t103.5 -7.5q83 0 163 14.5t158.5 36t156 46.5t155.5 46.5t156.5 36t159.5 14.5h14z" />
    <glyph glyph-name="s.ss03" unicode="&#xe03c;" horiz-adv-x="390" 
d="M823 -122q-77 0 -144 19.5t-127.5 48t-114.5 60.5t-104 58q-20 -34 -60 -53t-93 -19q-122 0 -122 69q0 30 30.5 48.5t90.5 18.5q29 0 58 -7t58 -19q0 33 -19 52.5t-47 32.5t-61.5 23.5t-61.5 27.5t-47 43.5t-19 70.5q0 30 11 53t30.5 38t45.5 23t55 8q24 0 43 -4.5
t36 -11.5t33 -14t35 -12q-11 -25 -14 -51t-5 -66q0 -6 -7.5 -5.5t-7.5 5.5q0 25 -5 50.5t-18 46t-34 33t-53 12.5q-37 0 -60 -23t-23 -64q0 -32 18.5 -50t46 -30.5t59.5 -22.5t59.5 -26.5t46 -42.5t18.5 -70q0 -28 -8 -47q51 -26 104.5 -58t113.5 -60t127.5 -47.5
t146.5 -19.5q127 0 224 40t162.5 112t98.5 171.5t33 218.5q0 115 -46.5 204.5t-124 152.5t-177 98t-205.5 42q51 -68 80 -152t29 -188q0 -81 -21 -159t-63.5 -139t-106 -98.5t-148.5 -37.5q-8 0 -8 8t8 8q83 7 143.5 43.5t100.5 93.5t59 130t19 151q0 106 -30 190t-84 151
h-7l-15 1h-7q-80 0 -158.5 -14.5t-156 -36t-155.5 -46.5t-156.5 -46.5t-159 -36t-163.5 -14.5q-51 0 -111.5 8.5t-112 32.5t-86 65.5t-34.5 107.5q0 59 32.5 102.5t84.5 74.5t117 50.5t131 30.5t126 15t101 4q102 0 207 -16t202.5 -50t182 -87t146.5 -128q110 -5 215.5 -41
t187.5 -101t132 -158.5t50 -214.5q0 -115 -31 -216.5t-97.5 -178t-170 -121t-248.5 -44.5zM762 954q-62 71 -145 121t-177.5 81.5t-195.5 46t-197 14.5q-39 0 -97 -3.5t-122 -14t-127.5 -28.5t-114 -47.5t-82 -71t-31.5 -98.5q0 -60 33.5 -98t83 -59.5t106 -29t103.5 -7.5
q83 0 163 14.5t158.5 36t156 46.5t155.5 46.5t156.5 36t159.5 14.5h14zM293 83q-30 14 -59 21.5t-58 7.5q-50 0 -73 -12.5t-23 -38.5q0 -15 9.5 -25t24 -16t31.5 -8.5t32 -2.5q45 0 77 17.5t39 56.5z" />
    <glyph glyph-name="t.ss03" unicode="&#xe03d;" horiz-adv-x="1239" 
d="M25 459q0 7 7 7h43v24q0 21 -9 34.5t-33 13.5q-5 0 -6 2.5t7 4.5l111 24v-103h104q7 0 7 -8q0 -7 -7 -7h-104v-287q0 -93 21 -157t64.5 -104t111.5 -57.5t163 -17.5q127 0 241.5 31.5t200 97.5t136 168.5t50.5 244.5q0 115 -46.5 204.5t-124 152.5t-177 98t-205.5 42
q51 -68 80 -152t29 -188q0 -81 -21 -159t-63.5 -139t-106 -98.5t-148.5 -37.5q-8 0 -8 8t8 8q83 7 143.5 43.5t100.5 93.5t59 130t19 151q0 106 -30 190t-84 151h-7l-15 1h-7q-80 0 -158.5 -14.5t-156 -36t-155.5 -46.5t-156.5 -46.5t-159 -36t-163.5 -14.5
q-51 0 -111.5 8.5t-112 32.5t-86 65.5t-34.5 107.5q0 59 32.5 102.5t84.5 74.5t117 50.5t131 30.5t126 15t101 4q102 0 207 -16t202.5 -50t182 -87t146.5 -128q110 -5 215.5 -41t187.5 -101t132 -158.5t50 -214.5q0 -138 -48 -242.5t-135 -175t-208 -106.5t-266 -36
q-80 0 -155.5 14t-134 49t-94 93.5t-35.5 147.5v337h-43q-7 0 -7 7v1zM543 886q-62 71 -145 121t-177.5 81.5t-195.5 46t-197 14.5q-39 0 -97 -3.5t-122 -14t-127.5 -28.5t-114 -47.5t-82 -71t-31.5 -98.5q0 -60 33.5 -98t83 -59.5t106 -29t103.5 -7.5q83 0 163 14.5
t158.5 36t156 46.5t155.5 46.5t156.5 36t159.5 14.5h14z" />
    <glyph glyph-name="u.ss03" unicode="&#xe03e;" horiz-adv-x="1495" 
d="M751 -190q-53 0 -117.5 11.5t-124 38.5t-106 72.5t-63.5 113.5l-5 1q-17 -23 -44 -39t-69 -16q-73 0 -111 38.5t-38 101.5v263q0 21 -9 34.5t-33 13.5q-5 0 -6 2.5t7 4.5l111 24v-345q0 -55 23.5 -86.5t69.5 -31.5q23 0 41 9t30 21.5t18.5 25.5t6.5 22v306q0 21 -9 34.5
t-33 13.5q-5 0 -6 2.5t7 4.5l111 24v-310q0 -93 28 -157t76.5 -104t114.5 -57.5t141 -17.5q127 0 241.5 31.5t200 97.5t136 168.5t50.5 244.5q0 115 -46.5 204.5t-124 152.5t-177 98t-205.5 42q51 -68 80 -152t29 -188q0 -81 -21 -159t-63.5 -139t-106 -98.5t-148.5 -37.5
q-8 0 -8 8t8 8q83 7 143.5 43.5t100.5 93.5t59 130t19 151q0 106 -30 190t-84 151h-7l-15 1h-7q-80 0 -158.5 -14.5t-156 -36t-155.5 -46.5t-156.5 -46.5t-159 -36t-163.5 -14.5q-51 0 -111.5 8.5t-112 32.5t-86 65.5t-34.5 107.5q0 59 32.5 102.5t84.5 74.5t117 50.5
t131 30.5t126 15t101 4q102 0 207 -16t202.5 -50t182 -87t146.5 -128q110 -5 215.5 -41t187.5 -101t132 -158.5t50 -214.5q0 -138 -48 -242.5t-135 -175t-208 -106.5t-266 -36zM800 886q-62 71 -145 121t-177.5 81.5t-195.5 46t-197 14.5q-39 0 -97 -3.5t-122 -14
t-127.5 -28.5t-114 -47.5t-82 -71t-31.5 -98.5q0 -60 33.5 -98t83 -59.5t106 -29t103.5 -7.5q83 0 163 14.5t158.5 36t156 46.5t155.5 46.5t156.5 36t159.5 14.5h14z" />
    <glyph glyph-name="a.ss04" unicode="&#xe03f;" horiz-adv-x="461" 
d="M1029 -651q-96 0 -186.5 23.5t-170 68.5t-145.5 110.5t-112 149.5q-31 -21 -61 -42.5t-59 -43.5q40 -46 71.5 -92.5t52.5 -91.5t31.5 -86t9.5 -75q-1 -19 -7.5 -27t-14.5 -8q-16 0 -29.5 2.5t-11.5 3.5q20 3 28 23t1 52q-17 79 -55.5 151t-92.5 136q-72 -53 -144 -102.5
t-149.5 -87.5t-162.5 -61.5t-184 -23.5q-84 0 -159.5 15.5t-132.5 50.5t-90.5 91.5t-33.5 139.5q0 85 33 144t88 96t125.5 54t144.5 17q106 0 203 -25t182 -67t157 -98t128 -117q31 23 61 44.5t62 43.5q-41 78 -62.5 168t-21.5 194v2q-7 -15 -19.5 -31t-29.5 -29t-39.5 -21
t-49.5 -8q-29 0 -55 7.5t-46 24t-31.5 43.5t-11.5 66q0 37 11.5 62.5t32.5 42.5t51 29.5t67 24.5q21 7 42 15t37.5 16.5t27.5 17t13 16.5q-1 20 -6 38t-15 31.5t-26 21t-39 7.5q-33 0 -56.5 -9.5t-39 -25.5t-22.5 -37t-7 -45q0 -4 -4 -4.5t-5 4.5q-3 33 -6 56t-10 43
q12 3 30.5 9t39.5 12t42.5 11t39.5 5q22 0 49 -7.5t50 -24.5t39 -45t16 -68v-273q0 -176 56 -312q60 39 125 73t137 59.5t152.5 40t172.5 14.5q50 0 101.5 -6.5t99.5 -20.5t90 -37t73.5 -56t50 -77.5t18.5 -100.5q0 -72 -33 -125t-91.5 -88.5t-139 -53t-175.5 -17.5z
M322 333q-15 -16 -46 -29.5t-63 -27.5q-49 -21 -74.5 -53.5t-25.5 -89.5q0 -52 21 -86t62 -34q27 0 50.5 12.5t40 31.5t26 40t9.5 39v197zM266 -383q-61 69 -138 124.5t-162.5 95t-176 61t-180.5 21.5q-69 0 -135.5 -15.5t-118 -50.5t-83.5 -91t-32 -137q0 -79 32 -132.5
t86 -86.5t126 -47t152 -14q96 0 180 23t160 61t147.5 87t142.5 101zM456 -272q38 -87 97 -154.5t135.5 -113.5t169 -70t196.5 -24q75 0 146 16t126.5 49.5t89.5 85t34 122.5q0 52 -18 93t-49 71.5t-72.5 51.5t-87.5 34t-94 19t-93 6q-90 0 -169.5 -14.5t-151 -40t-135.5 -59
t-124 -72.5z" />
    <glyph glyph-name="c.ss04" unicode="&#xe040;" horiz-adv-x="424" 
d="M113 233q0 -61 10.5 -103.5t28.5 -69t42 -38.5t51 -12h9q0 1 -1 2v4q-1 1 -1 2q-8 32 -9 61.5t6.5 52t23.5 36t43 13.5q21 0 35 -11.5t20.5 -28.5t5 -37.5t-10.5 -39.5q-2 -4 -7.5 -13t-17 -19.5t-28 -20t-38.5 -14.5q23 -75 61.5 -147t89.5 -138q61 42 127.5 78.5
t140 64t157 43.5t179.5 16q50 0 101.5 -6.5t99.5 -20.5t90 -37t73.5 -56t50 -77.5t18.5 -100.5q0 -72 -34 -125t-88 -88.5t-121 -53t-133 -17.5q-90 0 -181.5 26t-177.5 73t-164.5 112.5t-141.5 144.5q-29 -20 -57 -41t-56 -41q48 -50 86.5 -105t66.5 -115q19 -41 31 -70.5
t12 -62.5q0 -19 -7 -27t-15 -8q-16 0 -29.5 2.5t-11.5 3.5q20 3 28.5 23t0.5 52q-23 84 -68 158.5t-107 139.5q-73 -54 -147 -105.5t-154.5 -91.5t-171.5 -64.5t-198 -24.5q-84 0 -158.5 15.5t-130 50.5t-87.5 91.5t-32 139.5q0 85 33 144t88 96t125.5 54t144.5 17
q93 0 187 -21.5t182.5 -60.5t169.5 -94.5t149 -123.5q29 21 57.5 42t57.5 41q-52 66 -90.5 140t-61.5 152q-6 -1 -12 -1.5t-13 -0.5q-87 0 -140.5 59.5t-53.5 181.5q0 121 53.5 181t140.5 60q22 0 41 -4t37 -10t35.5 -12.5t36.5 -10.5q-7 -20 -10 -43t-6 -56q-1 -5 -5 -4.5
t-4 4.5q0 24 -7 45.5t-22.5 38t-39.5 26.5t-57 10q-27 0 -49 -12.5t-38 -39.5t-24.5 -69.5t-8.5 -103.5zM270 12q31 6 52.5 23t31.5 37q7 14 8.5 31t-3.5 32t-15.5 25.5t-27.5 10.5t-30.5 -10t-21 -29.5t-7 -49.5t12.5 -70zM283 -390q-67 67 -148 121.5t-169.5 92t-180.5 58
t-181 20.5q-69 0 -135.5 -15.5t-118 -50.5t-83.5 -91t-32 -137q0 -79 30.5 -132.5t83.5 -86.5t123.5 -47t150.5 -14q105 0 193.5 24t168 63.5t152.5 90t146 104.5zM437 -302q61 -75 135.5 -139t158.5 -110.5t174 -73t182 -26.5q64 0 128 16t115 49.5t83 85t32 122.5
q0 52 -18 93t-49 71.5t-72.5 51.5t-87.5 34t-94 19t-93 6q-94 0 -176 -16t-154.5 -43t-137.5 -63t-126 -77z" />
    <glyph glyph-name="d.ss04" unicode="&#xe041;" horiz-adv-x="483" 
d="M1051 -651q-96 0 -186.5 23.5t-170 68.5t-145.5 110.5t-112 149.5q-31 -21 -61 -42.5t-59 -43.5q40 -46 71.5 -92.5t52.5 -91.5t31.5 -86t9.5 -75q-1 -19 -7.5 -27t-14.5 -8q-16 0 -29.5 2.5t-11.5 3.5q20 3 28 23t1 52q-17 79 -55.5 151t-92.5 136q-72 -53 -144 -102.5
t-149.5 -87.5t-162.5 -61.5t-184 -23.5q-84 0 -159.5 15.5t-132.5 50.5t-90.5 91.5t-33.5 139.5q0 85 33 144t88 96t125.5 54t144.5 17q106 0 203 -25t182 -67t157 -98t128 -117q31 23 61 44.5t62 43.5q-38 72 -59.5 155t-24.5 178v1q-41 -59 -120 -59q-39 0 -72.5 14
t-58 43t-39 75t-14.5 109t14.5 109t39 75t58 43t72.5 14q79 0 120 -59v145q0 21 -9 34.5t-33 13.5q-5 0 -6 2.5t7 4.5l111 24v-583q0 -176 56 -312q60 39 125 73t137 59.5t152.5 40t172.5 14.5q50 0 101.5 -6.5t99.5 -20.5t90 -37t73.5 -56t50 -77.5t18.5 -100.5
q0 -72 -33 -125t-91.5 -88.5t-139 -53t-175.5 -17.5zM344 382q-18 40 -45.5 58t-62.5 18q-58 0 -90.5 -51.5t-32.5 -173.5t32.5 -173.5t90.5 -51.5q35 0 62.5 18t45.5 58v298zM288 -383q-61 69 -138 124.5t-162.5 95t-176 61t-180.5 21.5q-69 0 -135.5 -15.5t-118 -50.5
t-83.5 -91t-32 -137q0 -79 32 -132.5t86 -86.5t126 -47t152 -14q96 0 180 23t160 61t147.5 87t142.5 101zM478 -272q38 -87 97 -154.5t135.5 -113.5t169 -70t196.5 -24q75 0 146 16t126.5 49.5t89.5 85t34 122.5q0 52 -18 93t-49 71.5t-72.5 51.5t-87.5 34t-94 19t-93 6
q-90 0 -169.5 -14.5t-151 -40t-135.5 -59t-124 -72.5z" />
    <glyph glyph-name="e.ss04" unicode="&#xe042;" horiz-adv-x="432" 
d="M1087 -668q-90 0 -181.5 26t-177.5 73t-164.5 112.5t-141.5 144.5q-29 -20 -57 -41t-56 -41q48 -50 86.5 -105t66.5 -115q19 -41 31 -70.5t12 -62.5q0 -19 -7 -27t-15 -8q-16 0 -29.5 2.5t-11.5 3.5q20 3 28.5 23t0.5 52q-23 84 -68 158.5t-107 139.5
q-73 -54 -147 -105.5t-154.5 -91.5t-171.5 -64.5t-198 -24.5q-84 0 -158.5 15.5t-130 50.5t-87.5 91.5t-32 139.5q0 85 33 144t88 96t125.5 54t144.5 17q93 0 187 -21.5t182.5 -60.5t169.5 -94.5t149 -123.5q29 21 57.5 42t57.5 41q-51 66 -90 139.5t-62 151.5q-6 -1 -12 -1
h-13q-87 0 -140.5 59.5t-53.5 181.5q0 121 53.5 181t140.5 60q44 0 74.5 -11.5t49 -31t26.5 -44t8 -49.5q0 -50 -22 -85.5t-55 -58.5t-72.5 -34t-74.5 -11q-14 0 -26.5 2t-23.5 5q4 -30 13.5 -57t25.5 -46.5t40 -31t57 -11.5q0 1 -1 2v4q-1 1 -1 2q-17 64 0.5 99.5
t63.5 35.5q16 0 28.5 -7.5t20 -20.5t8 -30t-7.5 -35q0 -1 -2 -3q-9 -16 -29.5 -34.5t-58.5 -26.5q23 -75 61.5 -146.5t89.5 -137.5q61 42 127.5 78.5t140 64t157 43.5t179.5 16q50 0 101.5 -6.5t99.5 -20.5t90 -37t73.5 -56t50 -77.5t18.5 -100.5q0 -72 -34 -125t-88 -88.5
t-121 -53t-133 -17.5zM115 180q16 -14 46 -14q25 0 54.5 10.5t55 32.5t42.5 56t17 81q0 18 -3.5 37.5t-14 36t-29.5 27.5t-50 11q-27 0 -49 -12.5t-38 -39.5t-24.5 -69.5t-8.5 -103.5v-27.5t2 -25.5zM270 12q26 5 48 17.5t33 35.5q7 14 7.5 28t-5 25t-15 18t-22.5 7
q-12 0 -25 -5.5t-21.5 -20t-10 -40t10.5 -65.5zM283 -390q-67 67 -148 121.5t-169.5 92t-180.5 58t-181 20.5q-69 0 -135.5 -15.5t-118 -50.5t-83.5 -91t-32 -137q0 -79 30.5 -132.5t83.5 -86.5t123.5 -47t150.5 -14q105 0 193.5 24t168 63.5t152.5 90t146 104.5zM437 -302
q61 -75 135.5 -139t158.5 -110.5t174 -73t182 -26.5q64 0 128 16t115 49.5t83 85t32 122.5q0 52 -18 93t-49 71.5t-72.5 51.5t-87.5 34t-94 19t-93 6q-94 0 -176 -16t-154.5 -43t-137.5 -63t-126 -77z" />
    <glyph glyph-name="f.ss04" unicode="&#xe043;" horiz-adv-x="322" 
d="M147 79q0 -104 -21.5 -194t-62.5 -168q32 -22 62 -43.5t61 -44.5q56 61 128 117t157 98t181.5 67t203.5 25q74 0 144.5 -17t125 -54t88 -96t33.5 -144q0 -83 -33.5 -139.5t-90.5 -91.5t-132.5 -50.5t-159.5 -15.5q-99 0 -184 23.5t-162.5 61.5t-149.5 87.5t-144 102.5
q-54 -64 -92.5 -136t-55.5 -151q-7 -32 1 -52t28 -23q2 -1 -11.5 -3.5t-29.5 -2.5q-8 0 -14.5 8t-7.5 27q-1 34 9.5 75t31.5 86t52 91.5t72 92.5q-29 22 -59 43.5t-61 42.5q-47 -84 -112.5 -149.5t-145 -110.5t-170 -68.5t-186.5 -23.5q-95 0 -175.5 17.5t-139 53
t-91.5 88.5t-33 125q0 56 18.5 100.5t50 77.5t73.5 56t90 37t99.5 20.5t101.5 6.5q91 0 172 -14.5t153 -40t137 -59.5t125 -73q56 136 56 312v395h-45q-7 0 -7 7v1q0 7 7 7h45v19q0 64 31.5 97.5t85.5 33.5q18 0 34 -5t31 -11t28 -12t25 -9q-7 -20 -10 -43t-6 -56
q-1 -5 -5 -4.5t-4 4.5q0 24 -5 45t-15.5 37t-27 25.5t-39.5 9.5q-20 0 -30.5 -11t-15.5 -28.5t-6 -39.5t-1 -44v-8h68q7 0 7 -8q0 -7 -7 -7h-68v-372zM203 -383q71 -52 142.5 -101t147.5 -87t160 -61t180 -23q80 0 152 14t126 47t86 86.5t32 132.5q0 81 -32 137t-83.5 91
t-118 50.5t-135.5 15.5q-90 0 -181 -21.5t-176.5 -61t-162 -95t-137.5 -124.5zM13 -272q-60 39 -124 72.5t-135.5 59t-151 40t-169.5 14.5q-45 0 -93 -6t-94 -19t-87.5 -34t-72.5 -51.5t-49 -71.5t-18 -93q0 -71 34 -122.5t89.5 -85t126.5 -49.5t146 -16q104 0 196 24
t168.5 70t136 113.5t97.5 154.5z" />
    <glyph glyph-name="g.ss04" unicode="&#xe044;" horiz-adv-x="484" 
d="M447 466q8 0 7 -4.5t-6 -4.5q-13 0 -20 -6t-10 -15t-3.5 -20t-0.5 -21v-363q0 -88 -25.5 -167t-63.5 -146q43 -23 85.5 -44.5t87.5 -41.5q64 70 142.5 126t165 96t178.5 61.5t182 21.5q91 0 180.5 -18t160 -61t114.5 -115t44 -179q0 -86 -25 -153.5t-68.5 -118
t-103 -85.5t-128.5 -57t-144 -31.5t-150 -9.5q-93 0 -183.5 15.5t-179 42.5t-174.5 63t-169 77q-8 -34 -12 -69t-4 -71q0 -17 4 -39t13.5 -41.5t24.5 -32.5t37 -13q9 0 18 3q3 2 4.5 -0.5t-2.5 -5.5q-2 -1 -9.5 -5.5t-17 -9t-18 -8t-12.5 -3.5q-17 0 -29 15.5t-19 39t-10 50
t-3 48.5q0 76 18 150q-60 29 -118.5 60t-116.5 63q-75 -66 -159 -122t-175 -97t-188.5 -64t-199.5 -23q-81 0 -160.5 17.5t-142.5 56.5t-102 102t-39 155q0 69 26.5 123t71 92.5t103.5 60.5t124 25q23 55 64 93t94 61.5t114.5 34t125.5 10.5q85 0 166.5 -20t162 -52.5
t161 -73.5t161.5 -84q21 53 34.5 120t13.5 153v44q-41 -59 -120 -59q-39 0 -72.5 14t-58 43t-39 75t-14.5 109t14.5 109t39 75t58 43t72.5 14q79 0 120 -59v39q0 12 12 12h91zM344 382q-18 40 -45.5 58t-62.5 18q-58 0 -90.5 -51.5t-32.5 -173.5t32.5 -173.5t90.5 -51.5
q35 0 62.5 18t45.5 58v298zM-731 -234q99 0 204.5 -29.5t211 -74.5t207.5 -99t193 -103l7.5 7.5t8.5 6.5l30 30q5 3 8.5 6.5l7.5 7.5q12 12 29 29.5t36 41.5t39 55.5t38 72.5l-132 69q-59 30 -121 59t-126 51.5t-130.5 36.5t-134.5 14q-60 0 -118 -9.5t-108.5 -30.5
t-90 -55.5t-62.5 -85.5h3zM345 -675q83 -41 168.5 -77t173.5 -63t177.5 -42.5t181.5 -15.5q73 0 145.5 9t139.5 30t124.5 54.5t100 82t67 113.5t24.5 149q0 103 -42.5 172t-110.5 109.5t-154.5 57.5t-173.5 17q-89 0 -178.5 -21t-174 -59t-161 -93t-138.5 -122
q108 -48 220.5 -79t234.5 -31q43 0 88.5 7t87 24t75.5 45t55 69q3 5 8 5q4 0 7.5 -2t1.5 -6q-12 -38 -42.5 -67.5t-73 -50t-96 -31t-111.5 -10.5q-125 0 -240 32.5t-227 81.5q-56 -63 -96 -135.5t-61 -152.5zM-634 -850q100 0 195 22.5t184 62.5t171 94.5t156 118.5
q-90 49 -190.5 102t-204.5 97t-208 73t-200 29h-10q-9 -25 -14 -53t-5 -60q0 -45 15.5 -88.5t44 -79t67.5 -59.5t86 -29q5 -1 9 -1.5t4 -6.5t-4 -8t-9 -1q-48 5 -89.5 28.5t-73 60t-49.5 84t-18 100.5q0 61 17 112q-62 -4 -116.5 -25t-95 -57.5t-64.5 -89t-24 -119.5
q0 -87 39.5 -145.5t101 -94.5t137.5 -51.5t148 -15.5zM101 -549q13 -7 26 -13.5t25 -13.5q43 -23 87 -45.5t89 -45.5q22 80 62.5 152t95.5 135q-43 20 -85.5 40.5t-84.5 42.5q-44 -75 -98 -135t-117 -117z" />
    <glyph glyph-name="h.ss04" unicode="&#xe045;" horiz-adv-x="471" 
d="M39 0q-4 0 -4.5 4t4.5 5q17 2 25.5 8.5t8.5 24.5v518q0 21 -9 34.5t-33 13.5q-5 0 -6 2.5t7 4.5l111 24v-216q17 21 43.5 36t66.5 15q73 0 111 -38.5t38 -101.5v-278q0 -176 56 -312q60 39 125 73t137 59.5t152.5 40t172.5 14.5q50 0 101.5 -6.5t99.5 -20.5t90 -37
t73.5 -56t50 -77.5t18.5 -100.5q0 -72 -33 -125t-91.5 -88.5t-139 -53t-175.5 -17.5q-96 0 -186.5 23.5t-170 68.5t-145.5 110.5t-112 149.5q-31 -21 -61 -42.5t-59 -43.5q40 -46 71.5 -92.5t52.5 -91.5t31.5 -86t9.5 -75q-1 -19 -7.5 -27t-14.5 -8q-16 0 -29.5 2.5
t-11.5 3.5q20 3 28 23t1 52q-17 79 -55.5 151t-92.5 136q-72 -53 -144 -102.5t-149.5 -87.5t-162.5 -61.5t-184 -23.5q-84 0 -159.5 15.5t-132.5 50.5t-90.5 91.5t-33.5 139.5q0 85 33 144t88 96t125.5 54t144.5 17q106 0 203 -25t182 -67t157 -98t128 -117q31 23 61 44.5
t62 43.5q-41 78 -62.5 168t-21.5 194v258q0 55 -23.5 86.5t-69.5 31.5q-23 0 -41 -9t-30 -21.5t-18.5 -25.5t-6.5 -22v-335q0 -18 8.5 -24.5t25.5 -8.5q5 -1 4.5 -5t-4.5 -4h-138zM276 -383q-61 69 -138 124.5t-162.5 95t-176 61t-180.5 21.5q-69 0 -135.5 -15.5t-118 -50.5
t-83.5 -91t-32 -137q0 -79 32 -132.5t86 -86.5t126 -47t152 -14q96 0 180 23t160 61t147.5 87t142.5 101zM466 -272q38 -87 97 -154.5t135.5 -113.5t169 -70t196.5 -24q75 0 146 16t126.5 49.5t89.5 85t34 122.5q0 52 -18 93t-49 71.5t-72.5 51.5t-87.5 34t-94 19t-93 6
q-90 0 -169.5 -14.5t-151 -40t-135.5 -59t-124 -72.5z" />
    <glyph glyph-name="j.ss04" unicode="&#xe046;" horiz-adv-x="207" 
d="M61 560q0 18 11 29.5t30 11.5q18 0 29 -11.5t11 -29.5t-11 -29.5t-29 -11.5q-19 0 -30 11.5t-11 29.5zM139 32q0 -88 -25.5 -167t-63.5 -146q43 -23 85.5 -44.5t87.5 -41.5q64 70 142.5 126t165 96t178.5 61.5t182 21.5q91 0 180.5 -18t160 -61t114.5 -115t44 -179
q0 -86 -25 -153.5t-68.5 -118t-103 -85.5t-128.5 -57t-144 -31.5t-150 -9.5q-93 0 -183.5 15.5t-179 42.5t-174.5 63t-169 77q-8 -34 -12 -69t-4 -71q0 -17 4 -39t13.5 -41.5t24.5 -32.5t37 -13q9 0 18 3q3 2 4.5 -0.5t-2.5 -5.5q-2 -1 -9.5 -5.5t-17 -9t-18 -8t-12.5 -3.5
q-17 0 -29 15.5t-19 39t-10 50t-3 48.5q0 76 18 150q-60 29 -118.5 60t-116.5 63q-75 -66 -159 -122t-175 -97t-188.5 -64t-199.5 -23q-81 0 -160.5 17.5t-142.5 56.5t-102 102t-39 155q0 69 26.5 123t71 92.5t103.5 60.5t124 25q23 55 64 93t94 61.5t114.5 34t125.5 10.5
q85 0 166.5 -20t162 -52.5t161 -73.5t161.5 -84q21 53 34.5 120t13.5 153v388q0 21 -9 34.5t-33 13.5q-5 0 -6 2.5t7 4.5l111 24v-442zM-1006 -234q99 0 204.5 -29.5t211 -74.5t207.5 -99t193 -103l7.5 7.5t8.5 6.5l30 30q5 3 8.5 6.5l7.5 7.5q12 12 29 29.5t36 41.5
t39 55.5t38 72.5l-132 69q-59 30 -121 59t-126 51.5t-130.5 36.5t-134.5 14q-60 0 -118 -9.5t-108.5 -30.5t-90 -55.5t-62.5 -85.5h3zM70 -675q83 -41 168.5 -77t173.5 -63t177.5 -42.5t181.5 -15.5q73 0 145.5 9t139.5 30t124.5 54.5t100 82t67 113.5t24.5 149
q0 103 -42.5 172t-110.5 109.5t-154.5 57.5t-173.5 17q-89 0 -178.5 -21t-174 -59t-161 -93t-138.5 -122q108 -48 220.5 -79t234.5 -31q43 0 88.5 7t87 24t75.5 45t55 69q3 5 8 5q4 0 7.5 -2t1.5 -6q-12 -38 -42.5 -67.5t-73 -50t-96 -31t-111.5 -10.5q-125 0 -240 32.5
t-227 81.5q-56 -63 -96 -135.5t-61 -152.5zM-909 -850q100 0 195 22.5t184 62.5t171 94.5t156 118.5q-90 49 -190.5 102t-204.5 97t-208 73t-200 29h-10q-9 -25 -14 -53t-5 -60q0 -45 15.5 -88.5t44 -79t67.5 -59.5t86 -29q5 -1 9 -1.5t4 -6.5t-4 -8t-9 -1q-48 5 -89.5 28.5
t-73 60t-49.5 84t-18 100.5q0 61 17 112q-62 -4 -116.5 -25t-95 -57.5t-64.5 -89t-24 -119.5q0 -87 39.5 -145.5t101 -94.5t137.5 -51.5t148 -15.5zM-174 -549q13 -7 26 -13.5t25 -13.5q43 -23 87 -45.5t89 -45.5q22 80 62.5 152t95.5 135q-43 20 -85.5 40.5t-84.5 42.5
q-44 -75 -98 -135t-117 -117z" />
    <glyph glyph-name="k.ss04" unicode="&#xe047;" horiz-adv-x="452" 
d="M39 0q-4 0 -4.5 4t4.5 5q17 2 25.5 8.5t8.5 24.5v518q0 21 -9 34.5t-33 13.5q-5 0 -6 2.5t7 4.5l111 24v-389l131 148q13 15 18 26t3.5 18t-7.5 10.5t-13 4.5q-4 1 -3.5 5t4.5 4h123q4 0 4.5 -4t-4.5 -5q-19 -2 -47.5 -15.5t-60.5 -49.5l-46 -52l121 -248
q38 -87 80.5 -172t92.5 -163q58 37 121 68.5t133 55t147.5 37t165.5 13.5q50 0 101.5 -6.5t99.5 -20.5t90 -37t73.5 -56t50 -77.5t18.5 -100.5q0 -72 -33 -125t-91.5 -88.5t-139 -53t-175.5 -17.5q-91 0 -174.5 27.5t-158.5 75.5t-142 114.5t-125 144.5q-35 -23 -68 -47.5
t-66 -48.5q40 -46 71.5 -92.5t52.5 -91.5t31.5 -86t9.5 -75q-1 -19 -7.5 -27t-14.5 -8q-16 0 -29.5 2.5t-11.5 3.5q20 3 28 23t1 52q-17 79 -55.5 151t-92.5 136q-72 -53 -144 -102.5t-149.5 -87.5t-162.5 -61.5t-184 -23.5q-84 0 -159.5 15.5t-132.5 50.5t-90.5 91.5
t-33.5 139.5q0 85 33 144t88 96t125.5 54t144.5 17q106 0 203 -25t182 -67t157 -98t128 -117q33 24 67 48.5t69 47.5q-62 85 -112.5 178t-92.5 189l-92 189l-50 -57v-182q0 -18 8.5 -24.5t25.5 -8.5q5 -1 4.5 -5t-4.5 -4h-138zM337 -383q-61 69 -138 124.5t-162.5 95
t-176 61t-180.5 21.5q-69 0 -135.5 -15.5t-118 -50.5t-83.5 -91t-32 -137q0 -79 32 -132.5t86 -86.5t126 -47t152 -14q96 0 180 23t160 61t147.5 87t142.5 101zM549 -258q52 -80 112 -149t131 -119.5t153.5 -79t179.5 -28.5q75 0 146 16t126.5 49.5t89.5 85t34 122.5
q0 52 -18 93t-49 71.5t-72.5 51.5t-87.5 34t-94 19t-93 6q-86 0 -162.5 -13t-145 -36.5t-130.5 -55t-120 -67.5z" />
    <glyph glyph-name="l.ss04" unicode="&#xe048;" 
d="M780 -651q-96 0 -186.5 23.5t-170 68.5t-145.5 110.5t-112 149.5q-31 -21 -61 -42.5t-59 -43.5q40 -46 71.5 -92.5t52.5 -91.5t31.5 -86t9.5 -75q-1 -19 -7.5 -27t-14.5 -8q-16 0 -29.5 2.5t-11.5 3.5q20 3 28 23t1 52q-17 79 -55.5 151t-92.5 136q-72 -53 -144 -102.5
t-149.5 -87.5t-162.5 -61.5t-184 -23.5q-84 0 -159.5 15.5t-132.5 50.5t-90.5 91.5t-33.5 139.5q0 85 33 144t88 96t125.5 54t144.5 17q106 0 203 -25t182 -67t157 -98t128 -117q31 23 61 44.5t62 43.5q-41 78 -62.5 168t-21.5 194v481q0 21 -9 34.5t-33 13.5q-5 0 -6 2.5
t7 4.5l111 24v-583q0 -176 56 -312q60 39 125 73t137 59.5t152.5 40t172.5 14.5q50 0 101.5 -6.5t99.5 -20.5t90 -37t73.5 -56t50 -77.5t18.5 -100.5q0 -72 -33 -125t-91.5 -88.5t-139 -53t-175.5 -17.5zM17 -383q-61 69 -138 124.5t-162.5 95t-176 61t-180.5 21.5
q-69 0 -135.5 -15.5t-118 -50.5t-83.5 -91t-32 -137q0 -79 32 -132.5t86 -86.5t126 -47t152 -14q96 0 180 23t160 61t147.5 87t142.5 101zM207 -272q38 -87 97 -154.5t135.5 -113.5t169 -70t196.5 -24q75 0 146 16t126.5 49.5t89.5 85t34 122.5q0 52 -18 93t-49 71.5
t-72.5 51.5t-87.5 34t-94 19t-93 6q-90 0 -169.5 -14.5t-151 -40t-135.5 -59t-124 -72.5z" />
    <glyph glyph-name="m.ss04" unicode="&#xe049;" horiz-adv-x="725" 
d="M660 -692q-83 -41 -169 -77t-174.5 -63t-179 -42.5t-183.5 -15.5q-75 0 -150 9.5t-144 31.5t-128.5 57t-103 85.5t-68.5 118t-25 153.5q0 107 44 179t114.5 115t160 61t180.5 18q90 0 182 -21.5t178.5 -61.5t164.5 -96t142 -126q45 20 88 41.5t86 44.5q-38 67 -63.5 146
t-25.5 167v305q0 55 -23.5 86.5t-69.5 31.5q-23 0 -41 -9t-30 -21.5t-18.5 -25.5t-6.5 -22q5 -22 5 -43v-292q0 -18 8.5 -24.5t25.5 -8.5q5 -1 4.5 -5t-4.5 -4h-138q-4 0 -4.5 4t4.5 5q17 2 25.5 8.5t8.5 24.5v295q0 55 -23.5 86.5t-69.5 31.5q-23 0 -41 -9t-30 -21.5
t-18.5 -25.5t-6.5 -22v-335q0 -18 8.5 -24.5t25.5 -8.5q5 -1 4.5 -5t-4.5 -4h-138q-4 0 -4.5 4t4.5 5q17 2 25.5 8.5t8.5 24.5v353q0 21 -9 34.5t-33 13.5q-5 0 -6 2.5t7 4.5l111 24v-51q17 21 43.5 36t66.5 15q49 0 82.5 -18t50.5 -50q15 27 44 47.5t77 20.5
q73 0 111 -38.5t38 -101.5v-327q0 -86 13.5 -153t34.5 -120q81 43 161.5 84t161 73.5t162 52.5t166.5 20q64 0 125.5 -10.5t114.5 -34t94 -61.5t64 -93q65 -3 124 -25t103.5 -60.5t71 -92.5t26.5 -123q0 -92 -39 -155t-102 -102t-142.5 -56.5t-160.5 -17.5q-102 0 -199.5 23
t-188 64t-174.5 97t-160 122q-58 -32 -116.5 -63t-118.5 -60q18 -74 18 -150q0 -22 -3 -48.5t-10 -50t-19 -39t-29 -15.5q-4 0 -12.5 3.5t-18 8t-17.5 9t-9 5.5q-4 3 -2.5 5.5t4.5 0.5q9 -3 18 -3q22 0 37 13t24.5 32.5t13.5 41.5t4 39q0 36 -4 71t-12 69zM853 -482
q15 -14 30.5 -29t31.5 -29q61 33 126.5 68.5t134.5 69.5t139.5 64.5t141 53.5t139.5 36.5t135 13.5h3q-23 51 -62.5 85.5t-90 55.5t-108.5 30.5t-118 9.5q-68 0 -134.5 -14t-130.5 -36.5t-126 -51.5t-121 -59l-132 -69q18 -41 38 -72.5t39 -55.5t36 -41.5t29 -29.5z
M655 -675q-21 80 -61.5 152t-96.5 135q-111 -49 -226 -81t-240 -32q-59 0 -112 10.5t-95.5 31t-73 50t-42.5 67.5q-2 4 1.5 6t7.5 2q5 0 8 -5q21 -41 55 -69t75.5 -45t87 -24t88.5 -7q122 0 234 31t220 79q-62 68 -138.5 122.5t-161 93t-174 59t-177.5 20.5
q-87 0 -173.5 -17t-154.5 -57.5t-110.5 -109.5t-42.5 -172q0 -84 24.5 -149t67 -113.5t100 -82t124.5 -54.5t139.5 -30t145.5 -9q91 0 181 15.5t178 42.5t173.5 63t168.5 77zM1634 -850q72 0 148 15.5t137.5 51.5t101 94.5t39.5 145.5q0 67 -24 119.5t-64.5 89t-95.5 57.5
t-116 25q17 -51 17 -112q0 -53 -18 -100.5t-49.5 -84t-73 -60t-89.5 -28.5q-5 -1 -9 1t-4 8t4 6.5t9 1.5q47 5 86 29t67.5 59.5t44 79t15.5 88.5q0 32 -5 60t-14 53h-10q-96 0 -199.5 -29t-207.5 -73t-204.5 -97t-190.5 -102q74 -64 156 -118.5t170.5 -94.5t183.5 -62.5
t195 -22.5zM672 -667q45 23 89 45.5t87 45.5q12 7 25 13.5t26 13.5q-63 54 -118 117t-97 135q-42 -22 -84.5 -42.5t-85.5 -40.5q55 -63 95.5 -135t62.5 -152z" />
    <glyph glyph-name="n.ss04" unicode="&#xe04a;" horiz-adv-x="471" 
d="M39 0q-4 0 -4.5 4t4.5 5q17 2 25.5 8.5t8.5 24.5v353q0 21 -9 34.5t-33 13.5q-5 0 -6 2.5t7 4.5l111 24v-51q17 21 43.5 36t66.5 15q73 0 111 -38.5t38 -101.5v-327q0 -86 13.5 -153t34.5 -120q81 43 161 84t160.5 73.5t162.5 52.5t167 20q64 0 125.5 -10.5t114.5 -34
t94 -61.5t64 -93q65 -3 124 -24.5t103.5 -60t71 -93t26.5 -123.5q0 -92 -39 -155t-102 -102t-142.5 -56.5t-160.5 -17.5q-102 0 -199.5 23t-188.5 64t-175 97t-159 122q-59 -32 -117 -63t-118 -60q18 -72 18 -150q0 -22 -3 -48.5t-10 -50t-19 -39t-29 -15.5q-4 0 -12.5 3.5
t-18 8t-17.5 9t-9 5.5q-4 3 -2.5 5.5t4.5 0.5q9 -3 18 -3q22 0 37 13t24.5 32.5t13.5 41.5t4 39q0 36 -4 71t-12 69q-83 -41 -169 -77t-174.5 -63t-179 -42.5t-183.5 -15.5q-75 0 -150 9.5t-144 31.5t-128.5 57t-103 85.5t-68.5 118t-25 153.5q0 107 44 179t114.5 115
t160 61t180.5 18q90 0 182 -21.5t178.5 -61t165 -96t142.5 -126.5q44 20 87 41.5t86 44.5q-38 67 -63.5 146t-25.5 167v305q0 55 -23.5 86.5t-69.5 31.5q-23 0 -41 -9t-30 -21.5t-18.5 -25.5t-6.5 -22v-335q0 -18 8.5 -24.5t25.5 -8.5q5 -1 4.5 -5t-4.5 -4h-138zM599 -482
q15 -15 30.5 -29.5t31.5 -28.5q91 49 193 103t207.5 99t211 74.5t204.5 29.5h3q-23 51 -62.5 85.5t-89.5 55.5t-108.5 30.5t-118.5 9.5q-68 0 -134.5 -14t-130.5 -36.5t-126 -51.5t-121 -59l-132 -69q18 -41 38 -72.5t39 -55.5t36 -41.5t29 -29.5zM-529 -339q21 -41 55 -69
t75.5 -45t87 -24t88.5 -7q122 0 234.5 31t220.5 79q-62 68 -138.5 122.5t-161 93t-174.5 59t-178 20.5q-87 0 -173.5 -17t-154.5 -57.5t-110.5 -109.5t-42.5 -172q0 -84 24.5 -149t67 -113.5t100 -82t124.5 -54.5t139.5 -30t145.5 -9q91 0 181.5 15.5t178 42.5t173 63
t168.5 77q-21 81 -61 153t-96 135q-112 -50 -227 -82t-240 -32q-59 0 -112 10.5t-95.5 31t-73 50t-42.5 67.5q-2 4 1.5 6t7.5 2q5 0 8 -5zM1380 -850q72 0 148 15.5t137.5 51.5t101 94.5t39.5 145.5q0 67 -24 119.5t-65 89t-95.5 57.5t-115.5 25q17 -51 17 -112
q0 -53 -18 -100.5t-49.5 -84t-73 -60t-89.5 -28.5q-5 -1 -9 1t-4 8t4 6.5t9 1.5q47 5 86 29t67.5 59.5t44 79t15.5 88.5q0 32 -5 60t-14 53h-10q-96 0 -199.5 -29t-207.5 -73t-204.5 -97t-190.5 -102q73 -64 155 -118.5t171 -94.5t184.5 -62.5t194.5 -22.5zM645 -549
q-63 54 -118 117t-97 135q-42 -22 -84.5 -42.5t-85.5 -40.5q55 -63 95.5 -135t62.5 -152q57 29 113.5 58.5t113.5 59.5z" />
    </font>
</defs>
</svg>
