<?xml version="1.0" standalone="no"?>
<!DOCTYPE svg PUBLIC "-//W3C//DTD SVG 1.1//EN" "http://www.w3.org/Graphics/SVG/1.1/DTD/svg11.dtd" >
<svg xmlns="http://www.w3.org/2000/svg" xmlns:xlink="http://www.w3.org/1999/xlink" version="1.1">
<metadata>
Created by FontForge 20170731 at Thu May 25 22:25:59 2023
 By Aleksey,,,
Copyright (c) 2023 by Letterhend Studio. All rights reserved
</metadata>
<defs>
<font id="DaisyViolette-Regular" horiz-adv-x="638" >
  <font-face 
    font-family="Daisy &#38; Violette"
    font-weight="400"
    font-stretch="normal"
    units-per-em="1000"
    panose-1="0 0 0 0 0 0 0 0 0 0"
    ascent="800"
    descent="-200"
    x-height="500"
    cap-height="700"
    bbox="-1944 -1184 3003 1723"
    underline-thickness="50"
    underline-position="-175"
    unicode-range="U+000D-FB02"
  />
<missing-glyph horiz-adv-x="250" 
 />
    <glyph glyph-name="fi" unicode="fi" horiz-adv-x="663" 
d="M472 20q16 0 25.5 9.5t9.5 25.5v390q0 16 -9.5 25.5t-25.5 9.5h-311v-425q0 -16 9 -25.5t25 -9.5h26v-20h-176v20h26q16 0 25.5 9.5t9.5 25.5v425h-65v20h65v23q0 51 20 86.5t55 57t81.5 31.5t100.5 10q39 0 76 -3.5t66.5 -11.5t47 -21.5t17.5 -34.5q0 -18 -7 -25t-33 -7
q-25 0 -32 7t-7 25q0 23 -34.5 36t-91.5 13q-59 0 -98.5 -12.5t-63 -33t-33 -47.5t-9.5 -56v-37h401v-440q0 -18 9.5 -29t25.5 -11h25v-20h-175v20h25z" />
    <glyph glyph-name="fl" unicode="fl" horiz-adv-x="650" 
d="M161 500h230v-20h-230v-425q0 -16 9 -25.5t25 -9.5h26v-20h-176v20h26q16 0 25.5 9.5t9.5 25.5v425h-65v20h65v23q0 51 17 86.5t46.5 57t70.5 31.5t89 10q111 0 166 -44t55 -141v-447q0 -26 9.5 -41t24.5 -15h26v-20h-176v20h26q16 0 25.5 14t9.5 37v466q0 29 -6 56
t-24 47.5t-50.5 33t-85.5 12.5t-86 -12.5t-51 -33t-24.5 -47.5t-6.5 -56v-37z" />
    <glyph glyph-name=".notdef" horiz-adv-x="250" 
 />
    <glyph glyph-name="uni0000" horiz-adv-x="0" 
 />
    <glyph glyph-name="uni0000" horiz-adv-x="0" 
 />
    <glyph glyph-name="nonmarkingreturn" unicode="&#xd;" horiz-adv-x="390" 
 />
    <glyph glyph-name="space" unicode=" " horiz-adv-x="390" 
 />
    <glyph glyph-name="exclam" unicode="!" horiz-adv-x="216" 
d="M101 174l-17 471q-1 16 -3 25.5t-10 9.5h-4v20h74l-19 -526h-21zM112 90q26 0 33 -11t7 -38t-7 -38t-33 -11q-25 0 -32.5 11t-6.5 38q0 27 7 38t32 11z" />
    <glyph glyph-name="quotedbl" unicode="&#x22;" horiz-adv-x="341" 
d="M274 696q-25 -20 -34.5 -47t1.5 -42q25 0 32.5 -11t7.5 -38t-7.5 -38t-32.5 -11t-32.5 11t-7.5 38q0 46 11.5 85t53.5 65zM133 696q-12 -10 -21 -22t-13.5 -24.5t-4 -24t6.5 -18.5q25 0 32 -11t7 -38t-7 -38t-32 -11q-26 0 -33 11t-7 38q0 46 11.5 85t52.5 65z" />
    <glyph glyph-name="numbersign" unicode="#" horiz-adv-x="815" 
d="M123 0l87 228h-163v35h177l78 202h-199v35h212l77 200h37l-77 -200h212l77 200h37l-77 -200h167v-35h-181l-77 -202h202v-35h-216l-88 -228h-37l88 228h-212l-87 -228h-37zM261 263h212l77 202h-211z" />
    <glyph glyph-name="dollar" unicode="$" horiz-adv-x="744" 
d="M348 -8q-44 2 -83.5 9t-73.5 18q-14 5 -27 7.5t-24 2.5q-17 0 -26.5 -9.5t-4.5 -32.5l-20 -1l-28 144h19q12 -23 38 -42.5t61.5 -35t79 -25.5t89.5 -13v339q-53 9 -104 19.5t-91 29.5t-64.5 48.5t-24.5 76.5t22 80.5t60.5 55t90 32t111.5 12.5v80h35v-80q36 0 73.5 -5
t70.5 -16q20 -7 38.5 -12t32.5 -5q17 0 24.5 9.5t2.5 33.5h20l28 -143h-20q-11 24 -38 44.5t-64 36t-80.5 25.5t-87.5 12v-283q55 -10 109 -22.5t96.5 -35.5t69 -59t26.5 -92q0 -53 -23 -91t-63.5 -62.5t-95.5 -36.5t-119 -13v-82h-35v82zM348 687q-51 -1 -93.5 -10.5
t-73 -27t-48 -43.5t-17.5 -59q0 -34 19 -56.5t51 -37.5t74 -24.5t88 -17.5v276zM383 13q55 0 101 11.5t78.5 33.5t50.5 53.5t18 71.5q0 42 -20.5 69.5t-55 45.5t-79.5 29t-93 20v-334z" />
    <glyph glyph-name="percent" unicode="%" horiz-adv-x="833" 
d="M214 349q-73 0 -117 44.5t-44 135.5t44.5 135.5t116.5 44.5q74 0 118 -44.5t44 -135.5t-44.5 -135.5t-117.5 -44.5zM100 0l585 700h45l-585 -700h-45zM214 370q31 0 53.5 12t36.5 33t20.5 50t6.5 64q0 34 -6.5 63t-20.5 50.5t-36.5 33.5t-53.5 12t-53 -12t-36 -33
t-20.5 -50.5t-6.5 -63.5q0 -35 6.5 -64t20.5 -50t36 -33t53 -12zM621 -8q-72 0 -116.5 44.5t-44.5 135.5t44.5 135t116.5 44q74 0 118 -44t44 -135t-44.5 -135.5t-117.5 -44.5zM621 12q31 0 53.5 12t36.5 33.5t20.5 50.5t6.5 64q0 34 -6.5 63t-20.5 50.5t-36.5 33.5
t-53.5 12t-53 -12t-36 -33.5t-20.5 -50.5t-6.5 -63q0 -35 6.5 -64t20.5 -50.5t36 -33.5t53 -12z" />
    <glyph glyph-name="ampersand" unicode="&#x26;" horiz-adv-x="793" 
d="M774 78q6 -2 12.5 -15.5t6 -29t-13 -28.5t-44.5 -13q-33 0 -79 21t-98 56q-42 -32 -103 -54.5t-155 -22.5q-131 0 -200.5 49t-69.5 140q0 46 20 80t51 58.5t68 40.5t72 27q-33 50 -52.5 95.5t-19.5 83.5q0 29 9.5 55t32.5 46t61 32t96 12q101 0 145.5 -37t44.5 -98
q0 -39 -16.5 -67t-48 -50t-77.5 -39t-106 -33q27 -37 60.5 -73.5t70 -71t74 -65.5t73.5 -55q28 25 46 56.5t27.5 65.5t12 67t0 61.5t-10 49.5t-16.5 30q0 10 9 17.5t22 7.5q17 0 30 -16q15 -19 19 -59.5t-7 -91t-38.5 -104t-75.5 -97.5q42 -27 77.5 -43t59.5 -16q12 0 18 3
t9 7.5t3.5 9t0.5 8.5zM298 403q40 13 77 27.5t64.5 34.5t44 47t16.5 65q0 55 -30.5 84.5t-101.5 29.5q-70 0 -105.5 -29.5t-35.5 -95.5q0 -34 19.5 -76t51.5 -87zM252 370q-32 -11 -61.5 -26t-52.5 -37.5t-36.5 -52.5t-13.5 -70q0 -76 60.5 -116t164.5 -40q81 0 138.5 17.5
t88.5 37.5q-39 28 -78 61.5t-76.5 70.5t-71.5 76.5t-62 78.5z" />
    <glyph glyph-name="quotesingle" unicode="'" horiz-adv-x="201" 
d="M133 696q-12 -10 -21 -22t-13.5 -24.5t-4 -24t6.5 -18.5q25 0 32 -11t7 -38t-7 -38t-32 -11q-26 0 -33 11t-7 38q0 46 11.5 85t52.5 65z" />
    <glyph glyph-name="parenleft" unicode="(" horiz-adv-x="398" 
d="M387 -36q-81 0 -142.5 29.5t-102.5 81.5t-61 122.5t-20 152.5t20.5 152t61.5 122t102 81.5t142 29.5v-20q-57 0 -106 -23t-85 -69t-56.5 -114.5t-20.5 -158.5t20.5 -158.5t56.5 -114.5t85 -69.5t106 -23.5v-20z" />
    <glyph glyph-name="parenright" unicode=")" horiz-adv-x="397" 
d="M10 -16q57 0 106.5 23.5t85.5 69.5t56 114.5t20 158.5t-20.5 158.5t-56.5 114.5t-85 69t-106 23v20q81 0 142 -29.5t102 -81.5t62 -122t21 -152t-20.5 -152.5t-61.5 -122.5t-102.5 -81.5t-142.5 -29.5v20z" />
    <glyph glyph-name="asterisk" unicode="*" horiz-adv-x="592" 
d="M128 289l150 173l-223 51l19 56l210 -89l-20 228h59l-20 -228l211 89l18 -56l-223 -51l150 -173l-48 -35l-117 196l-118 -196z" />
    <glyph glyph-name="plus" unicode="+" horiz-adv-x="564" 
d="M60 370h204v204h35v-204h204v-35h-204v-204h-35v204h-204v35z" />
    <glyph glyph-name="comma" unicode="," horiz-adv-x="200" 
d="M67 -97q25 20 34.5 47t-1.5 42l4 45l36 -5q0 -48 -14.5 -83t-50.5 -58zM100 90q25 0 32.5 -11t7.5 -38t-7.5 -38t-32.5 -11q-26 0 -33 11t-7 38t7 38t33 11z" />
    <glyph glyph-name="hyphen" unicode="-" horiz-adv-x="546" 
d="M60 370h425v-35h-425v35z" />
    <glyph glyph-name="period" unicode="." horiz-adv-x="200" 
d="M100 90q25 0 32.5 -11t7.5 -38t-7.5 -38t-32.5 -11q-26 0 -33 11t-7 38t7 38t33 11z" />
    <glyph glyph-name="slash" unicode="/" horiz-adv-x="608" 
d="M40 0l485 700h43l-485 -700h-43z" />
    <glyph glyph-name="zero" unicode="0" horiz-adv-x="795" 
d="M398 -8q-76 0 -138 22.5t-106.5 67.5t-68.5 112t-24 156q0 90 24 157.5t68.5 112t106.5 67t138 22.5t138 -22.5t106.5 -67.5t68.5 -112t24 -157q0 -89 -24.5 -156t-68.5 -112t-106 -67.5t-138 -22.5zM398 15q71 0 123.5 25t87 70t51 106.5t16.5 133.5t-16.5 133.5
t-51 106t-86.5 70t-124 25.5t-124.5 -25t-87 -70t-51 -106.5t-16.5 -133.5t16.5 -133.5t51 -106.5t87 -70t124.5 -25z" />
    <glyph glyph-name="one" unicode="1" horiz-adv-x="267" 
d="M71 20q16 0 25.5 12t9.5 32v490q0 16 -9.5 25.5t-25.5 9.5h-25v20q15 0 30.5 6.5t29 19t23.5 31t12 42.5h20v-631q0 -26 9.5 -41.5t25.5 -15.5h25v-20h-175v20h25z" />
    <glyph glyph-name="two" unicode="2" horiz-adv-x="733" 
d="M648 121l20 -5l-46 -116h-576v55q0 62 24.5 107.5t64.5 80t91 59.5t104 46.5t104 41.5t91 44t64.5 53.5t24.5 70.5q0 34 -18.5 58.5t-51 40.5t-77 23t-97.5 7q-46 0 -93 -9t-87.5 -24.5t-70 -37.5t-40.5 -47h-20l27 143h20q-5 -24 2 -33t22 -9q14 0 32.5 5t39.5 11
q14 4 33.5 8t40.5 7t42.5 5t41.5 2q63 0 119 -7t97.5 -25t65.5 -49.5t24 -80.5q0 -52 -25.5 -88.5t-67 -63.5t-94.5 -46.5t-108.5 -37.5t-108.5 -37t-94.5 -45t-67 -61.5t-25.5 -86.5q0 -17 9 -21t23 -4h472q23 0 36 8.5t19 23.5z" />
    <glyph glyph-name="three" unicode="3" horiz-adv-x="718" 
d="M46 131h20q11 -26 40.5 -47.5t70 -36.5t87.5 -23.5t93 -8.5q53 0 96.5 9t75 29t49 51.5t17.5 75.5t-19 76t-55 53t-87 31t-115 10h-115v20h115q64 0 115 7t87 24t55 45.5t19 72.5t-17.5 75.5t-49 51.5t-75 29.5t-96.5 9.5q-46 0 -93 -8.5t-87.5 -24t-70 -37t-40.5 -46.5
h-20l27 143h20q-5 -24 2 -33t22 -9q14 0 32.5 5t39.5 11q14 4 33.5 8t40.5 7t42.5 5t41.5 2q63 0 119 -8t97.5 -29t65.5 -58.5t24 -95.5q0 -76 -44.5 -112t-129.5 -46q85 -17 129.5 -58.5t44.5 -117.5q0 -59 -24 -96t-65.5 -58t-97.5 -29t-119 -8q-20 0 -41.5 2t-42.5 5
t-40.5 7t-33.5 8q-21 5 -39 10t-32 5q-16 0 -23 -9t-2 -33h-20z" />
    <glyph glyph-name="four" unicode="4" horiz-adv-x="640" 
d="M479 191h-453v45l447 464h61v-459h60v-50h-60v-114q0 -26 9.5 -41.5t25.5 -15.5h25v-20h-175v20h25q16 0 25.5 12t9.5 32v127zM479 241v424l-409 -424h409z" />
    <glyph glyph-name="five" unicode="5" horiz-adv-x="761" 
d="M636 613q-7 16 -19.5 24.5t-35.5 8.5h-402q-11 0 -17.5 -4.5t-8.5 -20.5l-32 -245q8 10 27 25t51.5 29.5t79 24.5t109.5 10q50 0 104.5 -9t99.5 -34t74.5 -70.5t29.5 -117.5q0 -65 -24.5 -111t-66.5 -75t-98.5 -42t-119.5 -13q-20 0 -41.5 2t-42.5 5t-40.5 7t-33.5 8
q-22 6 -41.5 10.5t-33 4t-20 -9.5t-1.5 -31h-20l-27 143h20q11 -26 40.5 -48t70 -37.5t87.5 -24.5t93 -9q53 0 97 14t76 41.5t49.5 69t17.5 96.5t-18 94.5t-51.5 64.5t-81.5 37t-108 12q-97 0 -161 -27.5t-101 -73.5h-30l47 359h490l46 -115l-20 -5l-13 33v0z" />
    <glyph glyph-name="six" unicode="6" horiz-adv-x="770" 
d="M571 680q-91 0 -169.5 -21t-138 -62.5t-96.5 -104t-46 -146.5q14 17 38.5 36.5t60.5 35.5t84 26.5t110 10.5q67 0 121.5 -13t93.5 -39.5t60 -66.5t21 -95q0 -51 -17 -96t-55 -79t-99.5 -54t-151.5 -20q-93 0 -156 25.5t-101 67.5t-54 97t-16 115q0 86 33.5 159.5
t98.5 127.5t160 85t219 31v-20zM118 296q0 -78 22.5 -131.5t60 -87t87 -48t104.5 -14.5q48 0 94.5 10t83 35.5t59.5 70t23 113.5q0 54 -20 90t-54 58.5t-79 32t-94 9.5q-62 0 -113 -15.5t-88.5 -37t-59.5 -45.5t-26 -40z" />
    <glyph glyph-name="seven" unicode="7" horiz-adv-x="742" 
d="M429 331l-179 87l10 21l182 -88l172 270q8 14 0.5 19.5t-18.5 5.5h-427q-23 0 -36 -8.5t-19 -24.5l-13 -33l-20 5l45 115h555l-207 -365l139 -67l-10 -21l-140 68l-178 -315h-108v20h19q17 0 31.5 9t23.5 23z" />
    <glyph glyph-name="eight" unicode="8" horiz-adv-x="776" 
d="M237 411q-27 9 -51 20.5t-43 28t-30 39t-11 51.5q0 75 76 116.5t213 41.5q129 0 203 -41t74 -120q0 -28 -10.5 -52t-28.5 -44t-42.5 -35.5t-52.5 -25.5q88 -29 135 -68t47 -106q0 -50 -22 -91t-64 -70.5t-102.5 -46t-137.5 -16.5q-71 0 -131 13t-104.5 39.5t-69.5 67
t-25 96.5q0 41 13.5 75.5t37.5 60.5t56.5 43t69.5 24zM506 399q47 22 79 58.5t32 87.5q0 37 -17 64t-47.5 43.5t-74 24.5t-96.5 8q-45 0 -86.5 -6.5t-73 -20t-50 -34t-18.5 -49.5q0 -36 29 -61t69.5 -42.5t83.5 -28t71 -17.5q26 -7 51 -13.5t48 -13.5zM325 387
q-11 3 -23.5 6t-24.5 6q-36 -6 -65.5 -21t-50 -38.5t-32 -54.5t-11.5 -68q0 -96 69.5 -149t206.5 -53q57 0 106.5 12.5t86 35t57 54t20.5 69.5q0 50 -31.5 82.5t-80.5 54t-109.5 36t-117.5 28.5z" />
    <glyph glyph-name="nine" unicode="9" horiz-adv-x="770" 
d="M199 12q91 0 169.5 21t138 63t96.5 104.5t46 145.5q-14 -17 -38.5 -36.5t-60.5 -35.5t-84.5 -26.5t-109.5 -10.5q-68 0 -122.5 13t-93 39.5t-59.5 66.5t-21 95q0 51 17 96t55 79t99.5 54t151.5 20q93 0 156 -25t101 -67.5t54 -97.5t16 -115q0 -86 -33.5 -159.5
t-98.5 -127.5t-160.5 -85t-218.5 -31v20zM652 397q0 78 -22.5 131.5t-60 86.5t-87.5 47.5t-105 14.5q-47 0 -93.5 -10t-83.5 -35.5t-59.5 -70t-22.5 -113.5q0 -54 20 -90t53.5 -58.5t78 -32t94.5 -9.5q62 0 113.5 15.5t89 37t59.5 45.5t26 41z" />
    <glyph glyph-name="colon" unicode=":" horiz-adv-x="200" 
d="M100 595q25 0 32.5 -11t7.5 -38q0 -28 -7.5 -38.5t-32.5 -10.5q-26 0 -33 10.5t-7 38.5q0 27 7.5 38t32.5 11zM100 206q25 0 32.5 -11t7.5 -38q0 -28 -7.5 -38.5t-32.5 -10.5q-26 0 -33 10.5t-7 38.5q0 27 7.5 38t32.5 11z" />
    <glyph glyph-name="semicolon" unicode=";" horiz-adv-x="200" 
d="M67 19q12 9 21 21.5t13.5 25t4.5 23.5t-6 19l4 44l36 -4q0 -49 -14.5 -83.5t-50.5 -57.5zM100 206q25 0 32.5 -11t7.5 -38q0 -28 -7.5 -38.5t-32.5 -10.5q-26 0 -33 10.5t-7 38.5q0 27 7 38t33 11zM100 595q25 0 32.5 -11t7.5 -38q0 -28 -7.5 -38.5t-32.5 -10.5
q-26 0 -33 10.5t-7 38.5q0 27 7 38t33 11z" />
    <glyph glyph-name="less" unicode="&#x3c;" horiz-adv-x="432" 
d="M371 581l-274 -231l274 -231v-45l-310 260v32l310 260v-45z" />
    <glyph glyph-name="equal" unicode="=" horiz-adv-x="523" 
d="M61 464h402v-34h-402v34zM61 265h402v-35h-402v35z" />
    <glyph glyph-name="greater" unicode="&#x3e;" horiz-adv-x="432" 
d="M61 581v45l310 -260v-32l-310 -260v45l274 231z" />
    <glyph glyph-name="question" unicode="?" horiz-adv-x="728" 
d="M303 174v10q0 61 23 100t58 65.5t75.5 45t75.5 39.5t58 49.5t23 74.5q0 34 -18 58.5t-49 40.5t-71.5 23t-86.5 7q-53 0 -104 -9t-93 -24.5t-72 -37.5t-41 -47h-20l27 143h20q-5 -24 2 -33t22 -9q14 0 32.5 5t39.5 11q29 8 78 15t112 7q51 0 100.5 -7t88 -25t62 -49.5
t23.5 -80.5q0 -60 -25.5 -96t-63.5 -59.5t-83 -40t-83 -36.5t-63.5 -49.5t-25.5 -78.5v-12h-21zM315 90q25 0 32.5 -11t7.5 -38t-7 -38t-33 -11q-25 0 -32.5 11t-7.5 38t7.5 38t32.5 11z" />
    <glyph glyph-name="at" unicode="@" horiz-adv-x="882" 
d="M691 76q-98 0 -98 106v22q-23 -51 -76.5 -76.5t-118.5 -25.5q-36 0 -67.5 7.5t-55 22.5t-37.5 38.5t-14 55.5q0 35 17.5 61t47 44t67.5 29.5t79 17.5t82 8.5t76 2.5q-2 19 -9 37.5t-23.5 32.5t-44 22.5t-68.5 8.5q-31 0 -60 -6.5t-53 -17t-42.5 -24.5t-27.5 -30h-20
q4 18 22 35.5t45.5 31.5t63 22.5t76.5 8.5q88 0 142 -35t54 -111v-176q0 -52 13 -71.5t39 -19.5q42 0 62.5 48.5t20.5 133.5q0 83 -20.5 150t-62 114t-103.5 72t-145 25t-148.5 -27t-111 -75t-69.5 -113.5t-24 -142.5q0 -73 25.5 -135.5t72.5 -108t112 -71.5t145 -26
q43 0 76 5.5t57 14t41 19t28 21.5q11 8 15.5 5t-5.5 -14q-26 -30 -82 -53.5t-144 -23.5q-72 0 -143.5 22t-128 67t-92 114t-35.5 164q0 94 33 165.5t89 118.5t130.5 71t158.5 24q83 0 154.5 -22t123.5 -65.5t81.5 -110t29.5 -154.5q0 -56 -12 -99.5t-32 -73t-47.5 -45
t-58.5 -15.5zM593 369q-73 0 -131 -7.5t-98 -24.5t-61 -44.5t-21 -68.5q0 -92 136 -92q32 0 63.5 10t56 29.5t40 48t15.5 65.5v84z" />
    <glyph glyph-name="A" unicode="A" horiz-adv-x="809" 
d="M56 20q26 0 42.5 17.5t33.5 54.5l223 516q17 37 13.5 54.5t-18.5 17.5h-28v20h161v-20h-32q-14 -1 -12.5 -10t8.5 -25l258 -590q7 -16 18 -25.5t29 -9.5h27v-20h-185v20h26q21 0 26 9.5t-2 25.5l-95 217h-316l-78 -180q-17 -37 -13.5 -54.5t19.5 -17.5h37v-20h-168v20h26
zM243 295h296l-148 339q-3 -6 -6.5 -12t-6.5 -14z" />
    <glyph glyph-name="B" unicode="B" horiz-adv-x="740" 
d="M494 360q30 -1 63 -10t60 -29.5t45 -54t18 -82.5q0 -65 -24.5 -102t-66 -55t-95.5 -22.5t-113 -4.5h-335v20h25q16 0 25.5 9.5t9.5 25.5v590q0 16 -9.5 25.5t-25.5 9.5h-25v20h349q52 0 99 -5.5t83 -22.5t57 -50t21 -88q0 -50 -17.5 -82.5t-43 -52.5t-53 -28.5
t-47.5 -10.5zM161 410q0 -18 11 -29t29 -11h196q57 0 95 11t61.5 31t33.5 49t10 64q0 47 -14 77t-40.5 47.5t-64 24t-83.5 6.5h-199q-16 0 -25.5 -11t-9.5 -28v-231zM201 350q-18 0 -29 -11t-11 -29v-259q0 -14 9.5 -22.5t25.5 -8.5h185q54 0 98 6.5t76 24.5t49.5 51.5
t17.5 87.5q0 79 -55 119.5t-170 40.5h-196z" />
    <glyph glyph-name="C" unicode="C" horiz-adv-x="776" 
d="M431 30q93 0 158 31t97 82h20q-32 -74 -105 -112.5t-179 -38.5q-83 0 -149.5 23.5t-113.5 69t-72.5 112.5t-25.5 153t25 152.5t72 112t114 69.5t150 24t145 -24l2 2q20 -8 36.5 -13t27.5 -5q14 0 19 9.5t0 34.5h20l28 -143h-22q-33 54 -96.5 85t-150.5 31
q-79 0 -137.5 -25.5t-97.5 -70t-58 -104t-19 -127.5t18.5 -127.5t57 -104t97.5 -70.5t139 -26z" />
    <glyph glyph-name="D" unicode="D" horiz-adv-x="740" 
d="M680 354q0 -84 -20 -150t-63.5 -111.5t-111 -69t-162.5 -23.5h-277v20h25q16 0 25.5 9.5t9.5 25.5v590q0 16 -9.5 25.5t-25.5 9.5h-25v20h292q178 0 260 -88.5t82 -257.5zM161 51q0 -14 9.5 -22.5t25.5 -8.5h127q66 0 121 17t94.5 56t61.5 103t22 158t-21.5 157
t-60 100.5t-90.5 53t-112 15.5h-142q-16 0 -25.5 -11t-9.5 -28v-590z" />
    <glyph glyph-name="E" unicode="E" horiz-adv-x="650" 
d="M467 239q4 22 3 42.5t-8.5 35.5t-22.5 24t-40 9h-239v-295q0 -16 9.5 -25.5t25.5 -9.5h268q53 1 81 30.5t40 80.5h20l-29 -162h-20q3 21 -8 26t-32 5h-470v20h26q16 0 25 9.5t9 25.5v590q0 16 -9 25.5t-25 9.5h-26v20h470q21 0 32 5t8 26h20l29 -162h-20
q-12 49 -38.5 78.5t-76.5 32.5h-274q-16 0 -25.5 -9.5t-9.5 -25.5v-275h237q26 0 41.5 9t23 24t8.5 35t-3 43h19l22 -120l-22 -122h-19z" />
    <glyph glyph-name="F" unicode="F" horiz-adv-x="650" 
d="M489 239q0 58 -14.5 84t-61.5 27h-253v-295q0 -16 9.5 -25.5t25.5 -9.5h26v-20h-176v20h26q15 0 24.5 9.5t9.5 25.5v590q0 16 -9.5 25.5t-24.5 9.5h-26v20h470q21 0 32 5t8 26h20l29 -162h-20q-12 49 -38.5 78.5t-76.5 32.5h-274q-16 0 -25.5 -9.5t-9.5 -25.5v-275h251
h-1q49 0 64 26t15 85h19v-242h-19z" />
    <glyph glyph-name="G" unicode="G" horiz-adv-x="785" 
d="M396 30q44 0 90.5 11t85 37t63 69.5t24.5 108.5v94h-236v20h291v-370h-20l-28 167q-14 -50 -43 -83.5t-66.5 -54t-81.5 -29t-87 -8.5q-154 0 -240.5 92.5t-86.5 265.5q0 86 25 152.5t71 112t112 69.5t148 24q79 0 142 -23l1 1q20 -8 36.5 -13t27.5 -5q14 0 19 9.5t0 34.5
h20l28 -143h-21q-33 54 -95.5 85t-148.5 31q-78 0 -135.5 -25.5t-95.5 -70t-57 -104t-19 -127.5t15 -127.5t48 -104t85.5 -70.5t128.5 -26z" />
    <glyph glyph-name="H" unicode="H" horiz-adv-x="722" 
d="M71 20q16 0 25.5 9.5t9.5 25.5v590q0 16 -9.5 25.5t-25.5 9.5h-25v20h175v-20h-25q-16 0 -25.5 -9.5t-9.5 -25.5v-275h400v275q0 16 -9.5 25.5t-25.5 9.5h-25v20h175v-20h-25q-16 0 -25.5 -9.5t-9.5 -25.5v-590q0 -16 9.5 -25.5t25.5 -9.5h25v-20h-175v20h25
q16 0 25.5 9.5t9.5 25.5v295h-400v-295q0 -16 9.5 -25.5t25.5 -9.5h25v-20h-175v20h25z" />
    <glyph glyph-name="I" unicode="I" horiz-adv-x="267" 
d="M71 20q16 0 25.5 9.5t9.5 25.5v590q0 16 -9.5 25.5t-25.5 9.5h-25v20h175v-20h-25q-16 0 -25.5 -9.5t-9.5 -25.5v-590q0 -16 9.5 -25.5t25.5 -9.5h25v-20h-175v20h25z" />
    <glyph glyph-name="J" unicode="J" horiz-adv-x="665" 
d="M559 243q0 -69 -18.5 -116.5t-53 -77.5t-84 -43.5t-112.5 -13.5q-73 0 -121.5 15t-78.5 38.5t-44 51t-17 52.5h20q3 -17 16.5 -37.5t40 -38.5t68 -30.5t101.5 -12.5q48 0 89.5 10t72 35.5t48.5 68.5t18 108v394q0 15 -10.5 24.5t-27.5 9.5h-277q-53 -1 -81 -30.5
t-40 -80.5h-20l29 162h20q-3 -21 8 -26t32 -5h482v-20h-25q-16 0 -25.5 -9.5t-9.5 -25.5v-402z" />
    <glyph glyph-name="K" unicode="K" horiz-adv-x="744" 
d="M71 20q16 0 25.5 9.5t9.5 25.5v590q0 16 -9.5 25.5t-25.5 9.5h-25v20h175v-20h-25q-16 0 -25.5 -9.5t-9.5 -25.5v-363l333 346q16 17 22.5 27t5 15.5t-8.5 7.5t-18 2h-19v20h166v-20h-24q-26 0 -51 -17t-50 -43l-162 -168l234 -387q9 -14 25.5 -29.5t34.5 -15.5h24v-20
h-186v20h22q21 0 23.5 13.5t-8.5 31.5l-209 345l-154 -160v-195q0 -16 9.5 -25.5t25.5 -9.5h25v-20h-175v20h25z" />
    <glyph glyph-name="L" unicode="L" horiz-adv-x="650" 
d="M71 20q15 0 24.5 9.5t9.5 25.5v590q0 16 -9.5 25.5t-24.5 9.5h-26v20h176v-20h-26q-16 0 -25.5 -9.5t-9.5 -25.5v-590q0 -16 9.5 -25.5t25.5 -9.5h268q53 1 81 30.5t40 80.5h20l-29 -162h-20q3 21 -8 26t-32 5h-470v20h26z" />
    <glyph glyph-name="M" unicode="M" horiz-adv-x="814" 
d="M77 20q16 0 25.5 17.5t9.5 54.5v553q0 16 -9.5 25.5t-25.5 9.5h-37v20h124l256 -391l243 391h106v-20h-26q-15 0 -24.5 -9.5t-9.5 -25.5v-590q0 -16 9.5 -25.5t24.5 -9.5h26v-20h-175v20h25q16 0 25.5 9.5t9.5 25.5v585l-240 -385h-28l-254 388v-551q0 -37 9.5 -54.5
t25.5 -17.5h37v-20h-164v20h37z" />
    <glyph glyph-name="N" unicode="N" horiz-adv-x="712" 
d="M77 20q16 0 25.5 17.5t9.5 54.5v553q0 16 -9.5 25.5t-25.5 9.5h-37v20h124l416 -641v549q0 37 -9.5 54.5t-24.5 17.5h-38v20h164v-20h-37q-16 0 -25.5 -17.5t-9.5 -54.5v-553q0 -16 9.5 -25.5t25.5 -9.5h37v-20h-122l-418 643v-551q0 -37 9.5 -54.5t25.5 -17.5h37v-20
h-164v20h37z" />
    <glyph glyph-name="O" unicode="O" horiz-adv-x="797" 
d="M399 -8q-162 0 -250 92t-88 266t87 265.5t251 92.5q163 0 250.5 -92t87.5 -266t-88 -266t-250 -92zM399 15q78 0 131.5 26.5t86.5 72t47.5 106.5t14.5 130t-15 130t-48 106.5t-86.5 72t-130.5 26.5t-130.5 -26t-86.5 -71.5t-48 -106.5t-15 -131q0 -69 14 -130t47 -106.5
t86.5 -72t132.5 -26.5z" />
    <glyph glyph-name="P" unicode="P" horiz-adv-x="715" 
d="M201 299q-18 0 -29 -11t-11 -29v-204q0 -16 9.5 -25.5t24.5 -9.5h26v-20h-176v20h26q16 0 25.5 9.5t9.5 25.5v590q0 16 -9.5 25.5t-25.5 9.5h-26v20h350q52 0 99 -7t82.5 -28t56.5 -60.5t21 -105.5q0 -69 -23 -109t-60 -60t-82.5 -25.5t-91.5 -5.5h-196zM161 359
q0 -18 11 -29t29 -11h196q56 0 94.5 13t62 36.5t33.5 57t10 74.5q0 55 -14 90t-40.5 55t-64 27.5t-83.5 7.5h-200q-15 0 -24.5 -9.5t-9.5 -25.5v-286z" />
    <glyph glyph-name="Q" unicode="Q" horiz-adv-x="797" 
d="M399 -8q-162 0 -250 92t-88 266t87 265.5t251 92.5q163 0 250.5 -92t87.5 -266q0 -97 -28.5 -169t-82.5 -118l93 -114l-20 -15l-93 114q-82 -56 -207 -56zM399 15q61 0 106.5 16t77.5 45l-148 181l20 15l146 -178q42 46 60 112.5t18 143.5q0 69 -15 130t-48 106.5
t-86.5 72t-130.5 26.5t-130.5 -26t-86.5 -71.5t-48 -106.5t-15 -131q0 -69 14 -130t47 -106.5t86.5 -72t132.5 -26.5z" />
    <glyph glyph-name="R" unicode="R" horiz-adv-x="731" 
d="M201 350q-18 0 -29 -11t-11 -29v-255q0 -16 9.5 -25.5t24.5 -9.5h26v-20h-176v20h26q16 0 25.5 9.5t9.5 25.5v590q0 16 -9.5 25.5t-25.5 9.5h-26v20h350q52 0 99 -6t82.5 -24t56.5 -51.5t21 -88.5q0 -51 -16 -84.5t-42 -53t-61 -28.5t-72 -12l130 -297q7 -16 19.5 -25.5
t30.5 -9.5h27v-20h-178v20h25q21 0 24.5 9.5t-3.5 25.5l-129 295h-12h-196zM161 410q0 -18 11 -29t29 -11h196q56 0 94.5 11t62 31t33.5 49t10 64q0 47 -14 77t-40.5 47.5t-64 24t-83.5 6.5h-200q-15 0 -24.5 -11t-9.5 -28v-231z" />
    <glyph glyph-name="S" unicode="S" horiz-adv-x="744" 
d="M360 687q-53 0 -97.5 -9t-77 -26.5t-51 -44t-18.5 -61.5q0 -39 24.5 -62.5t64.5 -38.5t91 -24.5t104 -19.5t104 -23t91 -35.5t64.5 -58t24.5 -89.5q0 -55 -24.5 -93.5t-67 -63t-100.5 -35.5t-125 -11q-49 0 -93.5 7.5t-82.5 19.5q-14 5 -27 7.5t-24 2.5q-17 0 -26.5 -9.5
t-4.5 -32.5l-20 -1l-28 144h19q12 -24 41.5 -45.5t70 -37.5t89 -25t98.5 -9q56 0 102.5 11.5t79.5 33t51.5 53t18.5 72.5q0 46 -24.5 75t-64 47t-90.5 28.5t-104.5 19.5t-104.5 20t-90.5 29.5t-64 48t-24.5 76.5q0 49 24 83t65.5 56t97.5 32t119 10q38 0 79.5 -5t77.5 -17
q20 -7 38.5 -12t32.5 -5q17 0 24.5 9.5t2.5 33.5h20l28 -143h-20q-11 25 -41 47t-71 37.5t-88 24.5t-93 9z" />
    <glyph glyph-name="T" unicode="T" horiz-adv-x="737" 
d="M46 569l29 162h20q-3 -21 8 -26t31 -5h468q21 0 32 5t8 26h20l29 -162h-20q-12 49 -39 80t-77 31h-125q-16 0 -25.5 -9.5t-9.5 -25.5v-590q0 -16 9.5 -25.5t25.5 -9.5h26v-20h-176v20h26q16 0 25 9.5t9 25.5v590q0 16 -9 25.5t-25 9.5h-125q-50 0 -77 -31t-38 -80h-20z
" />
    <glyph glyph-name="U" unicode="U" horiz-adv-x="742" 
d="M106 645q0 16 -9.5 25.5t-25.5 9.5h-25v20h175v-20h-25q-16 0 -25.5 -9.5t-9.5 -25.5v-396q0 -66 16.5 -109t46 -68.5t69.5 -35.5t87 -10q110 0 167.5 53t57.5 170v359q0 37 -9.5 54.5t-25.5 17.5h-38v20h164v-20h-37q-15 0 -24.5 -17.5t-9.5 -54.5v-358
q0 -134 -61.5 -196t-196.5 -62q-63 0 -111.5 13.5t-81.5 43.5t-50.5 77.5t-17.5 116.5v402z" />
    <glyph glyph-name="V" unicode="V" horiz-adv-x="809" 
d="M753 680q-26 0 -42.5 -17.5t-32.5 -54.5l-224 -516q-16 -37 -13 -54.5t19 -17.5h27v-20h-160l-1 20h30h2q14 1 12 10t-8 25l-259 590q-7 16 -17.5 25.5t-28.5 9.5h-27v20h185v-20h-26q-20 0 -26 -9.5t1 -25.5l254 -580q3 6 6.5 12.5t6.5 14.5l224 516q16 37 12.5 54.5
t-18.5 17.5h-38v20h168v-20h-26z" />
    <glyph glyph-name="W" unicode="W" horiz-adv-x="1265" 
d="M657 560l217 -495q3 6 6 12.5t7 14.5l223 516q17 37 13.5 54.5t-19.5 17.5h-37v20h168v-20h-26q-26 0 -42.5 -17.5t-33.5 -54.5l-223 -516q-17 -37 -13.5 -54.5t18.5 -17.5h28v-20h-161v20h30h2q14 1 12 10t-9 25l-190 435l-173 -398q-16 -37 -13 -54.5t19 -17.5h27v-20
h-160l-1 20h30h2q14 1 12 10t-8 25l-259 590q-7 16 -17.5 25.5t-28.5 9.5h-27v20h185v-20h-26q-20 0 -26 -9.5t1 -25.5l254 -580q3 6 6.5 12.5t6.5 14.5l204 469z" />
    <glyph glyph-name="X" unicode="X" horiz-adv-x="757" 
d="M52 680v20h195v-20h-26q-21 0 -23 -9.5t9 -25.5l185 -257l158 220q26 37 28.5 54.5t-13.5 17.5h-38v20h176v-20h-31q-26 0 -48 -17.5t-48 -54.5l-171 -238l227 -315q11 -16 20.5 -25.5t25.5 -9.5h33v-20h-162v20h22q16 0 9.5 9.5t-17.5 25.5l-195 270l-167 -233
q-26 -37 -28 -54.5t13 -17.5h24v-20h-164l1 20h34q23 0 45.5 17.5t48.5 54.5l180 251l-217 302q-11 16 -23 25.5t-30 9.5h-33z" />
    <glyph glyph-name="Y" unicode="Y" horiz-adv-x="731" 
d="M30 680v20h195v-20h-26q-40 0 -20 -35l202 -348l175 311q22 40 22 56t-16 16h-38v20h176v-20h-31q-26 0 -45 -16t-42 -56l-188 -330v-223q0 -16 9.5 -25.5t25.5 -9.5h26v-20h-176v20h26q15 0 24.5 9.5t9.5 25.5v203l-226 387q-10 17 -21 26t-29 9h-33z" />
    <glyph glyph-name="Z" unicode="Z" horiz-adv-x="684" 
d="M188 680q-50 0 -76.5 -31t-38.5 -80h-20l29 162h20q-3 -21 8 -26t32 -5h463v-20l-456 -615q-16 -22 -11 -33.5t21 -11.5h339q52 0 80 30t40 81h21l-30 -162h-20q3 21 -8 26t-31 5h-504v20l462 623q12 17 6.5 27t-25.5 10h-301z" />
    <glyph glyph-name="bracketleft" unicode="[" horiz-adv-x="354" 
d="M61 -36v771l282 1v-19h-227v-733h227v-20h-282z" />
    <glyph glyph-name="backslash" unicode="\" horiz-adv-x="608" 
d="M568 0h-43l-485 700h43z" />
    <glyph glyph-name="bracketright" unicode="]" horiz-adv-x="354" 
d="M293 -36h-282v20h227v733h-227v19l282 -1v-771z" />
    <glyph glyph-name="asciicircum" unicode="^" horiz-adv-x="572" 
d="M483 368l-197 281l-197 -281l-29 20l226 324l226 -324z" />
    <glyph glyph-name="underscore" unicode="_" horiz-adv-x="541" 
d="M535 -35h-530v35h530v-35z" />
    <glyph glyph-name="grave" unicode="`" horiz-adv-x="161" 
d="M97 771h45q-28 -41 -51 -74q-20 -28 -36 -51.5t-18 -25.5h-20z" />
    <glyph glyph-name="a" unicode="a" horiz-adv-x="625" 
d="M67 381q6 23 23.5 45.5t46.5 40.5t70 29.5t94 11.5q116 0 170 -45t54 -146v-258q0 -17 9 -28t25 -11h26v-20h-115v128q-24 -63 -87 -99.5t-152 -36.5t-140 38.5t-51 115.5q0 48 24 82t62.5 56.5t86 35.5t95.5 20t90.5 8.5t70.5 1.5q-1 25 -8 49t-25.5 43t-52 30t-87.5 11
q-81 0 -135.5 -28.5t-73.5 -73.5h-20zM470 330q-68 0 -134.5 -8.5t-119 -29t-85.5 -56.5t-33 -92q0 -26 9 -49t28 -39.5t49 -26t73 -9.5q42 0 81 13.5t68 37t46.5 56t17.5 70.5v133z" />
    <glyph glyph-name="b" unicode="b" horiz-adv-x="660" 
d="M66 20q16 0 25.5 9.5t9.5 25.5v590q0 16 -9.5 25.5t-25.5 9.5h-25v20h115v-308q26 59 80 87.5t130 28.5q118 0 186 -67t68 -195q0 -61 -16.5 -108t-46.5 -79.5t-72.5 -49.5t-93.5 -17q-88 0 -147.5 36t-87.5 114v-142h-115v20h25zM372 18q48 0 84 18t59 49t34.5 72.5
t11.5 87.5q0 51 -12 95.5t-37.5 76.5t-65.5 50.5t-96 18.5q-48 0 -83.5 -15t-59.5 -41t-37 -62t-14 -79v-1q0 -58 11.5 -107.5t37 -85.5t67 -56.5t100.5 -20.5z" />
    <glyph glyph-name="c" unicode="c" horiz-adv-x="585" 
d="M322 26q73 0 123 28t69 70h20q-10 -27 -29.5 -51t-49 -42t-67.5 -28.5t-84 -10.5q-58 0 -106.5 17t-83 50t-54 81t-19.5 110t18.5 110t53 81t83 50t108.5 17q26 0 53.5 -4t52.5 -14q1 0 2 -0.5t2 -0.5q11 -5 20.5 -8t17.5 -3q10 0 14 7.5t-1 25.5h20l31 -117h-21
q-11 18 -26.5 35t-37 30t-49.5 21t-64 8q-55 0 -96 -18t-68.5 -49.5t-41 -73.5t-13.5 -90t13.5 -90t41.5 -73.5t69.5 -49.5t98.5 -18z" />
    <glyph glyph-name="d" unicode="d" horiz-adv-x="661" 
d="M505 700h115v-20h-25q-16 0 -25.5 -9.5t-9.5 -25.5v-590q0 -16 9.5 -25.5t25.5 -9.5h25v-20h-115v143q-28 -78 -88 -114.5t-148 -36.5q-51 0 -93 17t-72 49.5t-46.5 79.5t-16.5 108q0 128 68 195t186 67q76 0 130 -28.5t80 -87.5v308zM289 18q59 0 100.5 20.5t67 56.5
t37 85.5t11.5 107.5q-2 43 -14.5 79t-36.5 62.5t-59.5 41.5t-83.5 15q-56 0 -96 -18.5t-66 -50.5t-38 -76.5t-12 -95.5q0 -46 11.5 -87t35 -72t59.5 -49.5t84 -18.5z" />
    <glyph glyph-name="e" unicode="e" horiz-adv-x="601" 
d="M532 124q-3 -17 -17 -39.5t-41.5 -43t-69 -35t-99.5 -14.5q-70 0 -120 21t-82.5 56t-47.5 80t-15 93q0 62 15.5 112t48 85.5t83 54.5t119.5 19q86 0 139 -28t80.5 -70t33 -90t-4.5 -87h-458q5 -106 62 -159t160 -53q50 0 85 11.5t58 27.5t35 32.5t16 26.5h20zM503 282
q2 47 -8 86t-33.5 66.5t-61 43t-90.5 15.5q-45 0 -84 -13.5t-67.5 -42.5t-45.5 -73.5t-17 -105.5h381q16 0 20.5 6.5t5.5 17.5z" />
    <glyph glyph-name="f" unicode="f" horiz-adv-x="488" 
d="M161 500h230v-20h-230v-425q0 -16 9.5 -25.5t24.5 -9.5h26v-20h-176v20h26q16 0 25.5 9.5t9.5 25.5v425h-65v20h65v23q0 51 14.5 86.5t40 57t60 31.5t73.5 10q19 0 37.5 -2t35.5 -8q20 -5 27 -5q15 0 11 19h20l23 -88h-20q-8 22 -38.5 42t-87.5 20q-41 0 -68.5 -12.5
t-43.5 -33t-22.5 -47.5t-6.5 -56v-37z" />
    <glyph glyph-name="g" unicode="g" horiz-adv-x="667" 
d="M341 106q-42 0 -77 4.5t-65 15.5q-67 0 -93.5 -14t-26.5 -35t24.5 -31t64 -14.5t89.5 -4.5h101q64 0 117 -7t90 -23.5t57.5 -44.5t20.5 -70q0 -48 -24 -81.5t-65.5 -54t-96 -29.5t-114.5 -9q-68 0 -123.5 9.5t-95.5 29t-61.5 50t-21.5 71.5q0 29 9.5 49t24.5 33.5
t33.5 21t36.5 10.5q-42 10 -67.5 30t-25.5 57t28.5 55t77.5 19q-95 52 -95 164q0 97 71.5 149t206.5 52q93 0 157 -26q-24 36 -29 75.5t8 73t43.5 55.5t76.5 22l42 -100l-19 -5l-11 25q-6 12 -13.5 16.5t-21.5 4.5q-24 0 -40.5 -19t-23.5 -47t-3 -59.5t23 -56.5
q89 -52 89 -160q0 -97 -72 -149t-206 -52zM341 129q61 0 103.5 14t68 38t37 56.5t11.5 69.5t-11.5 69.5t-37.5 57t-68 38.5t-103 14t-103 -14t-68 -38.5t-37.5 -57t-11.5 -69.5t11 -69.5t37 -56.5t68 -38t104 -14zM206 -26q-20 0 -44 -4.5t-46 -16t-36.5 -30.5t-14.5 -49
q0 -33 22.5 -57.5t61 -40.5t89.5 -24t108 -8q128 0 195 36t67 99q0 26 -13.5 43.5t-43.5 28t-77 15t-114 4.5q-40 0 -79 0.5t-75 3.5z" />
    <glyph glyph-name="h" unicode="h" 
d="M157 357q5 23 18.5 49.5t37 49t58.5 37.5t85 15q98 0 140 -45t42 -146v-257q0 -18 9.5 -29t24.5 -11h26v-20h-175v20h25q16 0 25.5 9.5t9.5 25.5v278q0 28 -5.5 55t-20.5 48t-41.5 34t-68.5 13t-77 -15.5t-60.5 -45.5t-39.5 -74t-14 -100v-188q0 -18 9.5 -29t25.5 -11h25
v-20h-175v20h25q16 0 25.5 9.5t9.5 25.5v590q0 16 -9.5 25.5t-25.5 9.5h-25v20h115v-344z" />
    <glyph glyph-name="i" unicode="i" horiz-adv-x="257" 
d="M124 708q26 0 33 -11.5t7 -40.5t-7 -40t-33 -11q-25 0 -32 11t-7 40t7 40.5t32 11.5zM66 20q16 0 25.5 9.5t9.5 25.5v390q0 16 -9.5 25.5t-25.5 9.5h-25v20h115v-440q0 -18 9.5 -29t25.5 -11h25v-20h-175v20h25z" />
    <glyph glyph-name="j" unicode="j" horiz-adv-x="240" 
d="M124 708q26 0 33 -11.5t7 -40.5t-7 -40t-33 -11q-25 0 -32 11t-7 40t7 40.5t32 11.5zM101 445q0 16 -9.5 25.5t-25.5 9.5h-25v20h115v-625q0 -64 -26 -96t-89 -32v20q10 0 20.5 3.5t19.5 15t14.5 33.5t5.5 59v567z" />
    <glyph glyph-name="k" unicode="k" horiz-adv-x="618" 
d="M66 20q16 0 25.5 9.5t9.5 25.5v590q0 16 -9.5 25.5t-25.5 9.5h-25v20h115v-455l242 186q29 23 30.5 36t-20.5 13h-19v20h166v-20h-24q-26 0 -54 -18.5t-56 -40.5l-101 -78l168 -278q4 -7 11.5 -15t16.5 -14.5t18.5 -11t18.5 -4.5h24v-20h-186v20h22q21 0 21 13.5
t-11 31.5l-148 244l-119 -92v-157q0 -18 9.5 -29t25.5 -11h25v-20h-175v20h25z" />
    <glyph glyph-name="l" unicode="l" horiz-adv-x="257" 
d="M66 20q16 0 25.5 14t9.5 37v574q0 16 -9.5 25.5t-25.5 9.5h-25v20h115v-624q0 -26 9.5 -41t25.5 -15h25v-20h-175v20h25z" />
    <glyph glyph-name="m" unicode="m" horiz-adv-x="1020" 
d="M66 20q16 0 25.5 9.5t9.5 25.5v390q0 16 -9.5 25.5t-25.5 9.5h-25v20h115v-137q6 23 19.5 48.5t37.5 47t59 35.5t84 14q87 0 129.5 -35t50.5 -113q5 23 19 49t38 48t60 36.5t85 14.5q98 0 140 -45t42 -146v-257q0 -18 9 -29t25 -11h26v-20h-176v20h26q16 0 25.5 9.5
t9.5 25.5v278q0 28 -5.5 55t-21 48t-42 34t-68.5 13t-76.5 -15.5t-60 -45.5t-39.5 -74t-14 -100v-188q0 -18 9.5 -29t24.5 -11h26v-20h-175v20h25q16 0 25.5 9.5t9.5 25.5v278q0 28 -5.5 55t-20.5 48t-42 34t-69 13t-76.5 -15.5t-60 -45.5t-39.5 -74t-14 -100v-188
q0 -18 9.5 -29t25.5 -11h25v-20h-175v20h25z" />
    <glyph glyph-name="n" unicode="n" 
d="M66 20q16 0 25.5 9.5t9.5 25.5v390q0 16 -9.5 25.5t-25.5 9.5h-25v20h115v-137q6 23 19.5 48.5t37.5 47t59 35.5t84 14q98 0 140 -45t42 -146v-257q0 -18 9.5 -29t24.5 -11h26v-20h-175v20h25q16 0 25.5 9.5t9.5 25.5v278q0 28 -5.5 55t-20.5 48t-41.5 34t-68.5 13
t-77 -15.5t-60.5 -45.5t-39.5 -74t-14 -100v-188q0 -18 9.5 -29t25.5 -11h25v-20h-175v20h25z" />
    <glyph glyph-name="o" unicode="o" horiz-adv-x="613" 
d="M306 -8q-127 0 -196 66.5t-69 191.5t68.5 191.5t196.5 66.5q129 0 197.5 -66.5t68.5 -191.5t-69 -191.5t-197 -66.5zM307 15q58 0 97.5 18.5t64 50.5t35 75t10.5 92q0 48 -11 91t-35.5 75t-64 50.5t-96.5 18.5t-97 -18.5t-64.5 -50.5t-35.5 -74.5t-11 -91.5t10.5 -92
t35 -75t64 -50.5t98.5 -18.5z" />
    <glyph glyph-name="p" unicode="p" horiz-adv-x="660" 
d="M66 -180q16 0 25.5 9.5t9.5 25.5v590q0 16 -9.5 25.5t-25.5 9.5h-25v20h115v-108q26 59 80 87.5t130 28.5q118 0 186 -67t68 -195q0 -61 -16.5 -108t-46.5 -79.5t-72.5 -49.5t-93.5 -17q-88 0 -147.5 36t-87.5 114v-342h-115v20h25zM372 18q48 0 84 18t59 49t34.5 72.5
t11.5 87.5q0 51 -12 95.5t-37.5 76.5t-65.5 50.5t-96 18.5q-48 0 -83.5 -15t-59.5 -41t-37 -62t-14 -79v-1q0 -58 11.5 -107.5t37 -85.5t67 -56.5t100.5 -20.5z" />
    <glyph glyph-name="q" unicode="q" horiz-adv-x="661" 
d="M505 500h115v-20h-25q-16 0 -25.5 -9.5t-9.5 -25.5v-586q0 -17 8.5 -28t25.5 -11h26v-20h-175v20h25q16 0 25.5 9.5t9.5 25.5v288q-28 -78 -88 -114.5t-148 -36.5q-51 0 -93 17t-72 49.5t-46.5 79.5t-16.5 108q0 128 68 195t186 67q76 0 130 -28.5t80 -87.5v108zM289 18
q59 0 100.5 20.5t67 56.5t37 85.5t11.5 107.5q-2 43 -14.5 79t-36.5 62.5t-59.5 41.5t-83.5 15q-56 0 -96 -18.5t-66 -50.5t-38 -76.5t-12 -95.5q0 -46 11.5 -87.5t35 -72.5t59.5 -49t84 -18z" />
    <glyph glyph-name="r" unicode="r" horiz-adv-x="478" 
d="M411 422q-5 20 -14.5 29.5t-32.5 9.5q-43 0 -80.5 -15.5t-66 -43.5t-45 -67.5t-16.5 -86.5v-189q0 -17 9.5 -28t25.5 -11h25v-20h-175v20h25q16 0 25.5 9.5t9.5 25.5v390q0 16 -9.5 25.5t-25.5 9.5h-25v20h115v-158q4 20 21 48.5t44.5 54.5t64.5 44.5t83 18.5q20 0 30 -2
t19 -6l20 -113h-19z" />
    <glyph glyph-name="s" unicode="s" horiz-adv-x="608" 
d="M292 487q-35 0 -66 -6t-55 -17.5t-38 -29t-14 -42.5q0 -35 31.5 -52.5t79.5 -28t103 -19t103 -25t79.5 -46t31.5 -82.5q0 -40 -19.5 -68t-52.5 -45.5t-76 -25.5t-89 -8q-47 0 -86 6.5t-66 15.5q-27 8 -39.5 5t-7.5 -30h-27l-24 117h21q10 -18 32 -34.5t53 -29.5t68 -21
t76 -8q88 0 136.5 29t48.5 88q0 31 -18.5 50.5t-48.5 32t-68.5 20t-79 14.5t-79 15.5t-68.5 23t-48.5 36.5t-18.5 56q0 35 19 60t51 40.5t75 22.5t90 7q38 0 69 -4t58 -12q15 -5 27.5 -8.5t20.5 -2.5t11 7.5t0 22.5h27l24 -117h-21q-8 18 -28 35t-49.5 30t-67 20.5
t-80.5 7.5z" />
    <glyph glyph-name="t" unicode="t" horiz-adv-x="364" 
d="M129 638h20v-138h175v-20h-175v-321q0 -44 8.5 -71.5t23.5 -44t36 -22.5t47 -6q14 0 28.5 1.5t31.5 3.5v-20q-23 -4 -44 -6t-41 -2q-33 0 -60 7.5t-46 25.5t-29 47.5t-10 73.5l1 334h-104v20h104z" />
    <glyph glyph-name="u" unicode="u" 
d="M482 143q-5 -23 -18.5 -49.5t-37 -49t-59 -37.5t-85.5 -15q-97 0 -139 45t-42 145v258q0 18 -9.5 29t-25.5 11h-25v20h115v-333q0 -28 5.5 -55t20.5 -48t41.5 -34t68.5 -13t77 15.5t60.5 45.5t39.5 74t14 100v188q0 18 -9.5 29t-25.5 11h-25v20h115v-445q0 -16 9.5 -25.5
t25.5 -9.5h25v-20h-115v144z" />
    <glyph glyph-name="v" unicode="v" horiz-adv-x="559" 
d="M543 480q-26 0 -42.5 -17.5t-33.5 -54.5l-137 -316q-20 -46 -10 -64q8 -8 22 -8h20v-20h-152v20h23q8 0 17 3q5 4 2 12t-8 20l-171 390q-7 16 -17.5 25.5t-28.5 9.5h-27v20h185v-20h-26q-21 0 -26.5 -9.5t1.5 -25.5l163 -373q3 5 5.5 10t4.5 10l137 316q17 37 13.5 54.5
t-19.5 17.5h-37v20h168v-20h-26z" />
    <glyph glyph-name="w" unicode="w" horiz-adv-x="874" 
d="M483 480l-17 -42l146 -366q3 5 5.5 10t4.5 10l137 316q17 37 13.5 54.5t-19.5 17.5h-38v20h168v-20h-25q-26 0 -42.5 -17.5t-33.5 -54.5l-137 -316q-11 -25 -13 -40.5t3 -23.5q5 -4 9.5 -6t12.5 -2h20v-20h-152v20h22q9 0 17 3q5 3 2 11.5t-8 20.5l-121 309l-107 -272
q-19 -48 -9 -64q8 -8 21 -8h20v-20h-152v20h22q7 0 17 2q5 4 2.5 12.5t-7.5 20.5l-171 390q-7 16 -17.5 25.5t-28.5 9.5h-27v20h185v-20h-26q-21 0 -26.5 -9.5t1.5 -25.5l164 -374q4 9 9 21l153 388h23z" />
    <glyph glyph-name="x" unicode="x" horiz-adv-x="625" 
d="M46 480v20h199v-20h-26q-21 0 -20 -9t12 -26l115 -165l92 128q26 37 28.5 54.5t-13.5 17.5h-38v20h176v-20h-31q-26 0 -48 -17.5t-48 -54.5l-105 -147l137 -196q19 -28 35.5 -36.5t39.5 -8.5h28v-20h-193v20h16q16 0 17.5 10.5t-9.5 26.5l-116 165l-93 -130
q-27 -37 -29 -54.5t14 -17.5h24v-20h-165l1 20h35q23 0 45.5 17.5t48.5 54.5l106 149l-143 204q-11 17 -25.5 26t-37.5 9h-29z" />
    <glyph glyph-name="y" unicode="y" horiz-adv-x="559" 
d="M0 480v20h185v-20h-26q-21 0 -26.5 -9.5t1.5 -25.5l164 -374l146 337q17 37 13.5 54.5t-19.5 17.5h-37v20h168v-20h-26q-26 0 -42.5 -17.5t-33.5 -54.5l-176 -406q-26 -60 -57.5 -98t-65 -58t-67 -23t-63.5 8l-29 102l20 6l9 -31q6 -21 21 -27t36 -6q43 0 89.5 30.5
t81.5 97.5l-193 442q-7 16 -17.5 25.5t-28.5 9.5h-27z" />
    <glyph glyph-name="z" unicode="z" horiz-adv-x="580" 
d="M190 480q-50 0 -76.5 -31t-38.5 -80h-20l29 162h20q-3 -21 8 -26t32 -5h369l-1 -20l-358 -418q-17 -20 -14 -31t19 -11h235q53 0 81 30t39 81h21l-30 -162h-20q4 21 -7 26t-32 5h-400v20l364 425q13 16 9.5 25.5t-23.5 9.5h-206z" />
    <glyph glyph-name="braceleft" unicode="{" horiz-adv-x="462" 
d="M150 187q0 49 -3 78.5t-13 46t-27.5 22t-45.5 5.5v20q28 0 45.5 5t27.5 21t13 47t3 84q0 49 13 84.5t35.5 59.5t52 39t62.5 23t68 10.5t68 2.5v-20q-36 0 -78 -5t-78.5 -25t-60.5 -59.5t-24 -109.5q0 -52 -6 -83.5t-16.5 -48.5t-24 -24t-28.5 -10q15 -3 28.5 -10
t24 -24.5t16.5 -48t6 -80.5q0 -70 24.5 -110.5t61 -61t79 -26t78.5 -5.5v-20q-49 0 -102 7.5t-97.5 30.5t-73 67t-28.5 118z" />
    <glyph glyph-name="bar" unicode="|" horiz-adv-x="205" 
d="M85 -71v830h35v-830h-35z" />
    <glyph glyph-name="braceright" unicode="}" horiz-adv-x="462" 
d="M312 187q0 -74 -28.5 -118t-72.5 -67t-97.5 -30.5t-102.5 -7.5v20q36 0 78.5 5.5t79 26t61 61t24.5 110.5q0 50 6 80.5t16.5 48t24 24.5t28.5 10q-15 3 -28.5 10t-24 24t-16.5 48.5t-6 83.5q0 70 -24 109.5t-60 59.5t-78.5 25t-78.5 5v20q49 0 102 -6.5t97 -29.5
t72 -66.5t28 -116.5q0 -53 3.5 -84t13 -47t27 -21t45.5 -5v-20q-28 0 -45.5 -5.5t-27 -22t-13 -46t-3.5 -78.5z" />
    <glyph glyph-name="asciitilde" unicode="~" horiz-adv-x="567" 
d="M60 291h-20l9 31q11 41 35 56.5t56 15.5q31 0 68 -11t75 -24t74 -24t66 -11q27 0 47 12t30 42l6 18h20l-9 -31q-12 -42 -36.5 -58.5t-56.5 -16.5t-69.5 11.5t-75.5 25t-74 25t-66 11.5q-26 0 -45 -12t-28 -42z" />
    <glyph glyph-name="exclamdown" unicode="&#xa1;" horiz-adv-x="216" 
d="M107 603q-26 0 -33 10.5t-7 37.5t7 38t33 11q25 0 32.5 -11t6.5 -38q0 -27 -7 -37.5t-32 -10.5zM118 518l17 -471q1 -16 3 -25.5t10 -9.5h4v-20h-74l19 526h21z" />
    <glyph glyph-name="cent" unicode="&#xa2;" horiz-adv-x="585" 
d="M295 92q-58 1 -105 19.5t-80 51.5t-51 80.5t-18 106.5t18 106.5t51 80.5t80 51t105 20v92h35v-93q81 -6 133.5 -43t70.5 -88h-20q-18 41 -66 68.5t-118 29.5v-448q70 2 118 29.5t66 68.5h20q-18 -51 -70.5 -88t-133.5 -43v-93h-35v92zM295 573q-94 -8 -145 -66.5
t-51 -156.5t51 -156.5t145 -66.5v446z" />
    <glyph glyph-name="sterling" unicode="&#xa3;" horiz-adv-x="733" 
d="M26 55q34 0 79.5 13t86.5 37t69.5 58t28.5 76q0 29 -12 52t-30 44h-210v35h175q-21 19 -42.5 39t-39.5 41.5t-29 46t-11 54.5t15 58.5t49.5 50.5t89 35t134.5 13q42 0 82 -5.5t79 -16.5q21 -6 39.5 -11t32.5 -5q15 0 22 9t2 33h20l28 -143h-20q-11 24 -38.5 45t-65 37
t-82 25.5t-88.5 11.5q-118 0 -179.5 -38.5t-61.5 -95.5q0 -30 11.5 -55t29 -46.5t38.5 -41.5t41 -41h349v-35h-320q14 -19 22 -40t8 -46q0 -42 -17 -72.5t-44 -53t-60.5 -39t-66.5 -28.5l492 -1q38 3 49 33l14 33l20 -5l-45 -115v-1h-644v55z" />
    <glyph glyph-name="yen" unicode="&#xa5;" horiz-adv-x="731" 
d="M31 680v20h194v-20h-26q-40 0 -20 -35l187 -322h30l160 285q22 40 22 56t-16 16h-38v20h176v-20h-31q-26 0 -45 -16t-42 -56l-162 -285h218v-35h-238l-6 -10v-92h244v-35h-244v-96q0 -16 9.5 -25.5t25.5 -9.5h26v-20h-176v20h26q16 0 25 9.5t9 25.5v96h-240v35h240v72
l-17 30h-223v35h202l-188 322q-10 17 -21 26t-29 9h-32z" />
    <glyph glyph-name="dieresis" unicode="&#xa8;" horiz-adv-x="261" 
d="M63 730q29 0 37.5 -12t8.5 -44t-8.5 -44.5t-37.5 -12.5t-37.5 12.5t-8.5 44.5t8.5 44t37.5 12zM195 730q29 0 37.5 -12t8.5 -44q1 -32 -8 -44.5t-38 -12.5t-37.5 12.5t-7.5 44.5q0 32 8 44t37 12z" />
    <glyph glyph-name="copyright" unicode="&#xa9;" horiz-adv-x="858" 
d="M429 707q96 0 169 -26.5t121.5 -74t73 -113.5t24.5 -146t-24.5 -145.5t-73 -112t-121 -72t-169.5 -25.5t-169.5 25.5t-121.5 72.5t-73 112t-24 145q0 79 24.5 145.5t73.5 114t121.5 74t168.5 26.5zM430 687q-89 0 -151.5 -27t-102.5 -73t-58.5 -108t-18.5 -132t18 -131
t58 -106.5t102.5 -71.5t151.5 -26t152 26.5t102.5 72t57.5 106.5t18 130t-19 130.5t-59.5 108t-102.5 74t-148 27.5zM444 136q62 0 105.5 20.5t64.5 55.5h14q-22 -50 -70.5 -75.5t-119.5 -25.5q-55 0 -99.5 15.5t-76 46t-48.5 75t-17 102.5q0 115 65 177t176 62q28 0 52 -4
t45 -12l1 1q14 -5 24.5 -8t18.5 -3q9 0 12.5 6t0.5 23h13l18 -96h-13h-1q-22 36 -64.5 57t-100.5 21q-53 0 -92 -17t-64.5 -47t-38.5 -70t-13 -85t12.5 -85t38 -70t64.5 -47t93 -17z" />
    <glyph glyph-name="ordfeminine" unicode="&#xaa;" horiz-adv-x="384" 
d="M49 627q4 14 14.5 27.5t28 24.5t42.5 18t57 7q70 0 102.5 -27t32.5 -88v-156q0 -24 22 -24h15v-12h-70v77q-14 -38 -52 -60t-92 -22t-85 23.5t-31 69.5q0 44 31 69t73.5 37t86 15t69.5 3q-1 15 -5 29.5t-15.5 26t-31.5 18t-53 6.5q-49 0 -82 -17.5t-45 -44.5h-12z
M293 597q-41 0 -81 -5t-72 -18t-52 -34.5t-20 -55.5q0 -32 22.5 -53.5t74.5 -21.5q25 0 48.5 8t41 22.5t28 34t10.5 42.5v81z" />
    <glyph glyph-name="registered" unicode="&#xae;" horiz-adv-x="858" 
d="M429 707q96 0 169 -26.5t121.5 -74t73 -113.5t24.5 -146t-24.5 -145.5t-73 -112t-121 -72t-169.5 -25.5t-169.5 25.5t-121.5 72.5t-73 112t-24 145q0 79 24.5 145.5t73.5 114t121.5 74t168.5 26.5zM430 687q-89 0 -151.5 -27t-102.5 -73t-58.5 -108t-18.5 -132t18 -131
t58 -106.5t102.5 -71.5t151.5 -26t152 26.5t102.5 72t57.5 106.5t18 130t-19 130.5t-59.5 108t-102.5 74t-148 27.5zM339 349q-11 0 -18.5 -7t-7.5 -19v-168q0 -23 23 -23h17v-13h-116v13h17q23 0 23 23v389q0 10 -6 16.5t-17 6.5h-17v13h230q34 0 65 -4t54.5 -16t37.5 -34
t14 -58q0 -34 -10.5 -55.5t-28 -34.5t-40 -19t-47.5 -8l86 -196q10 -23 33 -23h18v-13h-118v13h17q14 0 16 6t-3 17l-85 194h-8h-129zM313 389q0 -12 7.5 -19.5t18.5 -7.5h129q75 0 103.5 28t28.5 75q0 31 -9.5 50.5t-26.5 31t-41.5 16t-55.5 4.5h-131q-11 0 -17 -7.5
t-6 -18.5v-152z" />
    <glyph glyph-name="macron" unicode="&#xaf;" horiz-adv-x="307" 
d="M18 677h270v-35h-270v35z" />
    <glyph glyph-name="degree" unicode="&#xb0;" horiz-adv-x="403" 
d="M202 405q-43 0 -75 7.5t-53.5 25t-32 46.5t-10.5 72q0 85 42.5 118.5t128.5 33.5q85 0 128 -33.5t43 -118.5q0 -43 -10.5 -72t-32 -46.5t-53.5 -25t-75 -7.5zM201 425q36 0 61.5 6.5t41 22t22.5 40.5t7 62t-7 62t-22.5 40.5t-41 22t-61.5 6.5t-61 -6.5t-40.5 -22
t-22 -40.5t-6.5 -62t6.5 -62t22 -40.5t40.5 -22t61 -6.5z" />
    <glyph glyph-name="plusminus" unicode="&#xb1;" horiz-adv-x="564" 
d="M60 443h204v204h35v-204h204v-35h-204v-204h-35v204h-204v35zM60 118h443v-35h-443v35z" />
    <glyph glyph-name="twosuperior" unicode="&#xb2;" horiz-adv-x="379" 
d="M321 426l9 -3l-22 -55h-276v26q0 40 20 66t50.5 44t65.5 31t65.5 27t50.5 31t20 43q0 33 -33 47.5t-84 14.5q-22 0 -44.5 -4.5t-42 -12t-33.5 -18t-19 -22.5h-10l13 69h10q-4 -20 12 -20q6 0 15 2.5t19 4.5q14 4 35.5 7.5t39.5 3.5q31 0 57.5 -3.5t46.5 -12t31.5 -23.5
t11.5 -39q0 -33 -21 -54t-52.5 -35t-68 -24.5t-68 -24.5t-52.5 -34t-21 -52q0 -8 4 -10t11 -2h227q20 0 26 16z" />
    <glyph glyph-name="threesuperior" unicode="&#xb3;" horiz-adv-x="325" 
d="M24 434h9q5 -12 19 -22t33.5 -17t41.5 -11t44 -4q51 0 82 18t31 60t-35 61t-96 19h-55v10h55q61 0 96 14.5t35 55.5q0 42 -31 60.5t-82 18.5q-22 0 -44 -4t-41.5 -11.5t-33.5 -17.5t-19 -22h-9l13 68h9q-4 -20 12 -20q6 0 14.5 2.5t18.5 4.5q14 4 35.5 7.5t39.5 3.5
q30 0 56.5 -4t46 -14t31 -27.5t11.5 -45.5q0 -36 -21 -53t-61 -22q40 -8 61 -27.5t21 -55.5q0 -28 -11.5 -45.5t-31 -27.5t-46 -13.5t-56.5 -3.5q-18 0 -39.5 3t-35.5 7q-10 2 -18.5 4.5t-15.5 2.5t-10 -4t-1 -15h-9z" />
    <glyph glyph-name="acute" unicode="&#xb4;" horiz-adv-x="161" 
d="M122 620q-2 2 -18 25.5t-36 51.5q-23 33 -51 74h45l80 -151h-20z" />
    <glyph glyph-name="cedilla" unicode="&#xb8;" horiz-adv-x="226" 
d="M104 26h26l-15 -61q15 0 31 -3.5t29.5 -13t22.5 -26t9 -42.5q0 -24 -9 -43t-25 -32.5t-36.5 -20.5t-43.5 -7q-19 0 -38 5t-37 16v34q14 -9 32.5 -14t36.5 -5q16 0 31 4t27 12t19 21t7 31q0 37 -24 51t-62 14z" />
    <glyph glyph-name="onesuperior" unicode="&#xb9;" horiz-adv-x="132" 
d="M35 378q16 0 16 21v235q0 17 -16 17h-13v9q14 0 29 12.5t17 35.5h10v-303q0 -27 16 -27h13v-10h-85v10h13z" />
    <glyph glyph-name="ordmasculine" unicode="&#xba;" horiz-adv-x="414" 
d="M202 360q-74 0 -118.5 43t-44.5 131t45 130.5t118 42.5q75 0 119.5 -42.5t44.5 -130.5t-45 -131t-119 -43zM202 371q35 0 60.5 12t42 34t24.5 52t8 65t-8 64.5t-24.5 51.5t-42 34t-60.5 12t-60 -12t-41.5 -34t-24.5 -51.5t-8 -64.5t8 -65t24.5 -52t41.5 -34t60 -12z" />
    <glyph glyph-name="onequarter" unicode="&#xbc;" horiz-adv-x="596" 
d="M46 361q17 0 17 22v242q0 17 -17 17h-13v10q14 0 29.5 13t17.5 36h10v-312q0 -28 17 -28h13v-10h-87v10h13zM29 1l473 700h44l-473 -700h-44zM519 100h-234v23l231 240h31v-237h31v-26h-31v-59q0 -14 5 -22t13 -8h13v-10h-90v10h13q18 0 18 23v66zM519 126v219l-212 -219
h212z" />
    <glyph glyph-name="onehalf" unicode="&#xbd;" horiz-adv-x="714" 
d="M80 360q17 0 17 22v248q0 18 -17 18h-13v10q15 0 30.5 13t17.5 37h10v-319q0 -13 5 -21t13 -8h13v-10h-89v10h13zM31 1l473 700h44l-473 -700h-44zM675 64l11 -3l-24 -60h-300v29q0 43 22 71t55 47.5t71 33.5t71 29t55 33.5t22 46.5q0 36 -36 51.5t-91 15.5
q-24 0 -48.5 -4.5t-45.5 -13t-36 -19.5t-21 -24h-11l15 74h10q-3 -12 0.5 -16.5t11.5 -4.5q7 0 17 2.5t21 5.5q14 4 38 7.5t44 3.5q33 0 62 -3.5t50.5 -13t34 -26t12.5 -41.5q0 -36 -22.5 -58.5t-57 -37.5t-74 -27t-74 -26.5t-57 -36.5t-22.5 -57q0 -8 4.5 -10t11.5 -2h246
q22 0 28 16z" />
    <glyph glyph-name="threequarters" unicode="&#xbe;" horiz-adv-x="696" 
d="M35 413h10q5 -13 20 -23.5t35 -18t43.5 -11.5t46.5 -4q53 0 85.5 18.5t32.5 63.5t-36.5 65t-100.5 20h-58v10h58q64 0 100.5 15t36.5 59q0 45 -32.5 64t-85.5 19q-23 0 -46.5 -4.5t-43.5 -12t-35 -18t-20 -23.5h-10l13 71h10q-4 -20 12 -20q8 0 16.5 2.5t19.5 4.5
q14 4 36.5 7.5t42.5 3.5q31 0 59 -4t48.5 -14.5t32.5 -29t12 -47.5q0 -38 -22 -56t-65 -23q43 -8 65 -29t22 -59q0 -29 -12 -47.5t-32.5 -29t-48.5 -14.5t-59 -4q-20 0 -42.5 3.5t-36.5 7.5q-11 3 -20 5.5t-16 2.5q-8 0 -11 -4.5t-1 -16.5h-10zM142 1l473 700h44l-473 -700
h-44zM617 100h-235v23l232 240h31v-237h31v-26h-31v-59q0 -14 5 -22t13 -8h13v-10h-90v10h13q18 0 18 23v66zM617 126v219l-212 -219h212z" />
    <glyph glyph-name="questiondown" unicode="&#xbf;" horiz-adv-x="728" 
d="M414 615q-26 0 -33 10.5t-7 37.5t7 38t33 11q25 0 32.5 -11t6.5 -38q0 -27 -7 -37.5t-32 -10.5zM426 530v-10q0 -61 -23 -100t-58 -65.5t-75.5 -45t-75.5 -39.5t-58 -49.5t-23 -74.5q0 -35 18 -59t48.5 -40t71.5 -23t87 -7q53 0 104 9t93 24.5t72 37t41 47.5h20l-28 -143
h-20q5 24 -2 33t-22 9q-14 0 -32.5 -5t-39.5 -11q-28 -8 -77.5 -15t-112.5 -7q-51 0 -100 7t-87.5 25t-62 49.5t-23.5 80.5q0 60 25.5 96.5t63.5 60t83 39.5t83 36t63.5 49.5t25.5 78.5v12h21z" />
    <glyph glyph-name="Agrave" unicode="&#xc0;" horiz-adv-x="810" 
d="M454 882h45q-28 -41 -51 -74q-20 -28 -36 -51.5t-18 -25.5h-20zM56 20q26 0 42.5 17.5t33.5 54.5l223 516q17 37 13.5 54.5t-18.5 17.5h-28v20h161v-20h-32q-14 -1 -12.5 -10t8.5 -25l258 -590q7 -16 18 -25.5t29 -9.5h27v-20h-185v20h26q21 0 26 9.5t-2 25.5l-95 217
h-316l-78 -180q-17 -37 -13.5 -54.5t19.5 -17.5h37v-20h-168v20h26zM243 295h296l-148 339q-3 -6 -6.5 -12t-6.5 -14z" />
    <glyph glyph-name="Aacute" unicode="&#xc1;" horiz-adv-x="810" 
d="M415 728q-2 2 -18 25.5t-36 51.5q-23 33 -51 74h45l80 -151h-20zM56 20q26 0 42.5 17.5t33.5 54.5l223 516q17 37 13.5 54.5t-18.5 17.5h-28v20h161v-20h-32q-14 -1 -12.5 -10t8.5 -25l258 -590q7 -16 18 -25.5t29 -9.5h27v-20h-185v20h26q21 0 26 9.5t-2 25.5l-95 217
h-316l-78 -180q-17 -37 -13.5 -54.5t19.5 -17.5h37v-20h-168v20h26zM243 295h296l-148 339q-3 -6 -6.5 -12t-6.5 -14z" />
    <glyph glyph-name="Acircumflex" unicode="&#xc2;" horiz-adv-x="810" 
d="M326 738h-46l110 144h18l112 -144h-46l-74 125zM56 20q26 0 42.5 17.5t33.5 54.5l223 516q17 37 13.5 54.5t-18.5 17.5h-28v20h161v-20h-32q-14 -1 -12.5 -10t8.5 -25l258 -590q7 -16 18 -25.5t29 -9.5h27v-20h-185v20h26q21 0 26 9.5t-2 25.5l-95 217h-316l-78 -180
q-17 -37 -13.5 -54.5t19.5 -17.5h37v-20h-168v20h26zM243 295h296l-148 339q-3 -6 -6.5 -12t-6.5 -14z" />
    <glyph glyph-name="Atilde" unicode="&#xc3;" horiz-adv-x="810" 
d="M277 735h-20l8 31q11 42 28.5 58t38.5 16q20 0 42.5 -10.5t45 -23t44 -23t39.5 -10.5q17 0 30 11t22 38l6 18h21l-9 -32q-12 -43 -29.5 -59t-38.5 -16q-20 0 -42.5 11t-45 24t-44.5 24t-40 11q-16 0 -29 -11t-21 -39zM56 20q26 0 42.5 17.5t33.5 54.5l223 516
q17 37 13.5 54.5t-18.5 17.5h-28v20h161v-20h-32q-14 -1 -12.5 -10t8.5 -25l258 -590q7 -16 18 -25.5t29 -9.5h27v-20h-185v20h26q21 0 26 9.5t-2 25.5l-95 217h-316l-78 -180q-17 -37 -13.5 -54.5t19.5 -17.5h37v-20h-168v20h26zM243 295h296l-148 339q-3 -6 -6.5 -12
t-6.5 -14z" />
    <glyph glyph-name="Adieresis" unicode="&#xc4;" horiz-adv-x="810" 
d="M334 855q29 0 37.5 -12t8.5 -44t-8.5 -44.5t-37.5 -12.5t-37.5 12.5t-8.5 44.5t8.5 44t37.5 12zM466 855q29 0 37.5 -12t8.5 -44q1 -32 -8 -44.5t-38 -12.5t-37.5 12.5t-7.5 44.5q0 32 8 44t37 12zM56 20q26 0 42.5 17.5t33.5 54.5l223 516q17 37 13.5 54.5t-18.5 17.5
h-28v20h161v-20h-32q-14 -1 -12.5 -10t8.5 -25l258 -590q7 -16 18 -25.5t29 -9.5h27v-20h-185v20h26q21 0 26 9.5t-2 25.5l-95 217h-316l-78 -180q-17 -37 -13.5 -54.5t19.5 -17.5h37v-20h-168v20h26zM243 295h296l-148 339q-3 -6 -6.5 -12t-6.5 -14z" />
    <glyph glyph-name="Aring" unicode="&#xc5;" horiz-adv-x="810" 
d="M400 886q41 0 61 -17.5t20 -56.5t-20 -56t-61 -17t-61 17.5t-20 55.5q1 39 20.5 56t60.5 18zM402 759q22 0 33 11t11 43t-10.5 42.5t-33.5 10.5q-25 0 -36.5 -10.5t-11.5 -42.5t12 -43t36 -11zM56 20q26 0 42.5 17.5t33.5 54.5l223 516q17 37 13.5 54.5t-18.5 17.5h-28
v20h161v-20h-32q-14 -1 -12.5 -10t8.5 -25l258 -590q7 -16 18 -25.5t29 -9.5h27v-20h-185v20h26q21 0 26 9.5t-2 25.5l-95 217h-316l-78 -180q-17 -37 -13.5 -54.5t19.5 -17.5h37v-20h-168v20h26zM243 295h296l-148 339q-3 -6 -6.5 -12t-6.5 -14z" />
    <glyph glyph-name="AE" unicode="&#xc6;" horiz-adv-x="1071" 
d="M888 239q4 22 3 42.5t-8.5 35.5t-22.5 24t-40 9h-239v-295q0 -16 9.5 -25.5t25.5 -9.5h268q53 1 81 30.5t40 80.5h20l-29 -162h-20q3 21 -8 26t-32 5h-470v20h26q15 0 24.5 9.5t9.5 25.5v217h-293l-76 -180q-16 -37 -13 -54.5t19 -17.5h36v-20h-168v20h23q26 0 42 17.5
t33 54.5l227 516q16 37 13 54.5t-19 17.5h-28v20h614q21 0 32 5t8 26h20l29 -162h-20q-12 49 -38.5 78.5t-76.5 32.5h-274q-16 0 -25.5 -9.5t-9.5 -25.5v-275h237q26 0 41.5 9t23 24t8.5 35t-3 43h19l22 -121l-22 -121h-19zM243 295h283v350q0 16 -9.5 25.5t-24.5 9.5h-44
q-17 0 -33.5 -14t-35.5 -58z" />
    <glyph glyph-name="Ccedilla" unicode="&#xc7;" horiz-adv-x="776" 
d="M431 30q93 0 158 31t97 82h20q-32 -72 -101 -110.5t-170 -40.5l-13 -52q15 0 31 -3.5t29.5 -13t22.5 -26t9 -43.5q0 -24 -9.5 -43t-25 -32.5t-36.5 -20.5t-44 -7q-38 0 -74 21v35q14 -9 32.5 -14t36.5 -5q16 0 31 4t27 12t19 21t7 31q0 37 -24 51t-62 14l17 71
q-80 2 -144.5 26.5t-109.5 70t-69.5 111.5t-24.5 150q0 86 25 152.5t72 112t114 69.5t150 24t145 -24l2 2q20 -8 36.5 -13t27.5 -5q14 0 19 9.5t0 34.5h20l28 -143h-22q-33 54 -96.5 85t-150.5 31q-79 0 -137.5 -25.5t-97.5 -70t-58 -104t-19 -127.5t18.5 -127.5t57 -104
t97.5 -70.5t139 -26z" />
    <glyph glyph-name="Egrave" unicode="&#xc8;" horiz-adv-x="650" 
d="M386 882h45q-28 -41 -51 -74q-20 -28 -36 -51.5t-18 -25.5h-20zM467 239q4 22 3 42.5t-8.5 35.5t-22.5 24t-40 9h-239v-295q0 -16 9.5 -25.5t25.5 -9.5h268q53 1 81 30.5t40 80.5h20l-29 -162h-20q3 21 -8 26t-32 5h-470v20h26q16 0 25 9.5t9 25.5v590q0 16 -9 25.5
t-25 9.5h-26v20h470q21 0 32 5t8 26h20l29 -162h-20q-12 49 -38.5 78.5t-76.5 32.5h-274q-16 0 -25.5 -9.5t-9.5 -25.5v-275h237q26 0 41.5 9t23 24t8.5 35t-3 43h19l22 -120l-22 -122h-19z" />
    <glyph glyph-name="Eacute" unicode="&#xc9;" horiz-adv-x="650" 
d="M347 728q-2 2 -18 25.5t-36 51.5q-23 33 -51 74h45l80 -151h-20zM467 239q4 22 3 42.5t-8.5 35.5t-22.5 24t-40 9h-239v-295q0 -16 9.5 -25.5t25.5 -9.5h268q53 1 81 30.5t40 80.5h20l-29 -162h-20q3 21 -8 26t-32 5h-470v20h26q16 0 25 9.5t9 25.5v590q0 16 -9 25.5
t-25 9.5h-26v20h470q21 0 32 5t8 26h20l29 -162h-20q-12 49 -38.5 78.5t-76.5 32.5h-274q-16 0 -25.5 -9.5t-9.5 -25.5v-275h237q26 0 41.5 9t23 24t8.5 35t-3 43h19l22 -120l-22 -122h-19z" />
    <glyph glyph-name="Ecircumflex" unicode="&#xca;" horiz-adv-x="650" 
d="M258 738h-46l110 144h18l112 -144h-46l-74 125zM467 239q4 22 3 42.5t-8.5 35.5t-22.5 24t-40 9h-239v-295q0 -16 9.5 -25.5t25.5 -9.5h268q53 1 81 30.5t40 80.5h20l-29 -162h-20q3 21 -8 26t-32 5h-470v20h26q16 0 25 9.5t9 25.5v590q0 16 -9 25.5t-25 9.5h-26v20h470
q21 0 32 5t8 26h20l29 -162h-20q-12 49 -38.5 78.5t-76.5 32.5h-274q-16 0 -25.5 -9.5t-9.5 -25.5v-275h237q26 0 41.5 9t23 24t8.5 35t-3 43h19l22 -120l-22 -122h-19z" />
    <glyph glyph-name="Edieresis" unicode="&#xcb;" horiz-adv-x="650" 
d="M467 239q4 22 3 42.5t-8.5 35.5t-22.5 24t-40 9h-239v-295q0 -16 9.5 -25.5t25.5 -9.5h268q53 1 81 30.5t40 80.5h20l-29 -162h-20q3 21 -8 26t-32 5h-470v20h26q15 0 24.5 9.5t9.5 25.5v590q0 16 -9.5 25.5t-24.5 9.5h-26v20h60h410q21 0 32 5t8 26h20l29 -162h-20
q-12 49 -38.5 78.5t-76.5 32.5h-248h-26q-16 0 -25.5 -9.5t-9.5 -25.5v-275h237q26 0 41.5 9t23 24t8.5 35t-3 43h19l22 -121l-22 -121h-19zM266 855q29 0 37.5 -12t8.5 -44t-8.5 -44.5t-37.5 -12.5t-37.5 12.5t-8.5 44.5t8.5 44t37.5 12zM398 855q29 0 37.5 -12t8.5 -44
q1 -32 -8 -44.5t-38 -12.5t-37.5 12.5t-8.5 44.5q1 32 9 44t37 12z" />
    <glyph glyph-name="Igrave" unicode="&#xcc;" horiz-adv-x="267" 
d="M188 882h45q-28 -41 -51 -74q-20 -28 -36 -51.5t-18 -25.5h-20zM71 20q16 0 25.5 9.5t9.5 25.5v590q0 16 -9.5 25.5t-25.5 9.5h-25v20h175v-20h-25q-16 0 -25.5 -9.5t-9.5 -25.5v-590q0 -16 9.5 -25.5t25.5 -9.5h25v-20h-175v20h25z" />
    <glyph glyph-name="Iacute" unicode="&#xcd;" horiz-adv-x="267" 
d="M149 728q-2 2 -18 25.5t-36 51.5q-23 33 -51 74h45l80 -151h-20zM71 20q16 0 25.5 9.5t9.5 25.5v590q0 16 -9.5 25.5t-25.5 9.5h-25v20h175v-20h-25q-16 0 -25.5 -9.5t-9.5 -25.5v-590q0 -16 9.5 -25.5t25.5 -9.5h25v-20h-175v20h25z" />
    <glyph glyph-name="Icircumflex" unicode="&#xce;" horiz-adv-x="267" 
d="M60 738h-46l110 144h18l112 -144h-46l-74 125zM71 20q16 0 25.5 9.5t9.5 25.5v590q0 16 -9.5 25.5t-25.5 9.5h-25v20h175v-20h-25q-16 0 -25.5 -9.5t-9.5 -25.5v-590q0 -16 9.5 -25.5t25.5 -9.5h25v-20h-175v20h25z" />
    <glyph glyph-name="Idieresis" unicode="&#xcf;" horiz-adv-x="267" 
d="M68 855q29 0 37.5 -12t8.5 -44t-8.5 -44.5t-37.5 -12.5t-37.5 12.5t-8.5 44.5t8.5 44t37.5 12zM200 855q29 0 37.5 -12t8.5 -44q1 -32 -8 -44.5t-38 -12.5t-37.5 12.5t-7.5 44.5q0 32 8 44t37 12zM71 20q16 0 25.5 9.5t9.5 25.5v590q0 16 -9.5 25.5t-25.5 9.5h-25v20h175
v-20h-25q-16 0 -25.5 -9.5t-9.5 -25.5v-590q0 -16 9.5 -25.5t25.5 -9.5h25v-20h-175v20h25z" />
    <glyph glyph-name="Eth" unicode="&#xd0;" horiz-adv-x="740" 
d="M-4 370h110v275q0 16 -9.5 25.5t-25.5 9.5h-25v20h292q178 0 260 -88.5t82 -257.5q0 -84 -20 -150t-63.5 -111.5t-111 -69t-162.5 -23.5h-277v20h25q16 0 25.5 9.5t9.5 25.5v280h-110v35zM161 51q0 -14 9.5 -22.5t25.5 -8.5h127q66 0 121 17t94.5 56t61.5 103t22 158
t-21.5 157t-60 100.5t-90.5 53t-112 15.5h-142q-16 0 -25.5 -11t-9.5 -28v-271h260v-35h-260v-284z" />
    <glyph glyph-name="Ntilde" unicode="&#xd1;" horiz-adv-x="722" 
d="M238 735h-20l8 31q11 42 28.5 58t38.5 16q20 0 42.5 -10.5t45 -23t44 -23t39.5 -10.5q17 0 30 11t22 38l6 18h21l-9 -32q-12 -43 -29.5 -59t-38.5 -16q-20 0 -42.5 11t-45 24t-44.5 24t-40 11q-16 0 -29 -11t-21 -39zM82 20q16 0 25.5 17.5t9.5 54.5v553q0 16 -9.5 25.5
t-25.5 9.5h-37v20h124l416 -641v549q0 37 -9.5 54.5t-24.5 17.5h-38v20h164v-20h-37q-16 0 -25.5 -17.5t-9.5 -54.5v-553q0 -16 9.5 -25.5t25.5 -9.5h37v-20h-122l-418 643v-551q0 -37 9.5 -54.5t25.5 -17.5h37v-20h-164v20h37z" />
    <glyph glyph-name="Ograve" unicode="&#xd2;" horiz-adv-x="797" 
d="M450 882h45q-28 -41 -51 -74q-20 -28 -36 -51.5t-18 -25.5h-20zM399 -8q-162 0 -250 92t-88 266t87 265.5t251 92.5q163 0 250.5 -92t87.5 -266t-88 -266t-250 -92zM399 15q78 0 131.5 26.5t86.5 72t47.5 106.5t14.5 130t-15 130t-48 106.5t-86.5 72t-130.5 26.5
t-130.5 -26t-86.5 -71.5t-48 -106.5t-15 -131q0 -69 14 -130t47 -106.5t86.5 -72t132.5 -26.5z" />
    <glyph glyph-name="Oacute" unicode="&#xd3;" horiz-adv-x="797" 
d="M411 728q-2 2 -18 25.5t-36 51.5q-23 33 -51 74h45l80 -151h-20zM399 -8q-162 0 -250 92t-88 266t87 265.5t251 92.5q163 0 250.5 -92t87.5 -266t-88 -266t-250 -92zM399 15q78 0 131.5 26.5t86.5 72t47.5 106.5t14.5 130t-15 130t-48 106.5t-86.5 72t-130.5 26.5
t-130.5 -26t-86.5 -71.5t-48 -106.5t-15 -131q0 -69 14 -130t47 -106.5t86.5 -72t132.5 -26.5z" />
    <glyph glyph-name="Ocircumflex" unicode="&#xd4;" horiz-adv-x="797" 
d="M322 738h-46l110 144h18l112 -144h-46l-74 125zM399 -8q-162 0 -250 92t-88 266t87 265.5t251 92.5q163 0 250.5 -92t87.5 -266t-88 -266t-250 -92zM399 15q78 0 131.5 26.5t86.5 72t47.5 106.5t14.5 130t-15 130t-48 106.5t-86.5 72t-130.5 26.5t-130.5 -26t-86.5 -71.5
t-48 -106.5t-15 -131q0 -69 14 -130t47 -106.5t86.5 -72t132.5 -26.5z" />
    <glyph glyph-name="Otilde" unicode="&#xd5;" horiz-adv-x="797" 
d="M273 735h-20l8 31q11 42 28.5 58t38.5 16q20 0 42.5 -10.5t45 -23t44 -23t39.5 -10.5q17 0 30 11t22 38l6 18h21l-9 -32q-12 -43 -29.5 -59t-38.5 -16q-20 0 -42.5 11t-45 24t-44.5 24t-40 11q-16 0 -29 -11t-21 -39zM399 -8q-162 0 -250 92t-88 266t87 265.5t251 92.5
q163 0 250.5 -92t87.5 -266t-88 -266t-250 -92zM399 15q78 0 131.5 26.5t86.5 72t47.5 106.5t14.5 130t-15 130t-48 106.5t-86.5 72t-130.5 26.5t-130.5 -26t-86.5 -71.5t-48 -106.5t-15 -131q0 -69 14 -130t47 -106.5t86.5 -72t132.5 -26.5z" />
    <glyph glyph-name="Odieresis" unicode="&#xd6;" horiz-adv-x="797" 
d="M330 855q29 0 37.5 -12t8.5 -44t-8.5 -44.5t-37.5 -12.5t-37.5 12.5t-8.5 44.5t8.5 44t37.5 12zM462 855q29 0 37.5 -12t8.5 -44q1 -32 -8 -44.5t-38 -12.5t-37.5 12.5t-7.5 44.5q0 32 8 44t37 12zM399 -8q-162 0 -250 92t-88 266t87 265.5t251 92.5q163 0 250.5 -92
t87.5 -266t-88 -266t-250 -92zM399 15q78 0 131.5 26.5t86.5 72t47.5 106.5t14.5 130t-15 130t-48 106.5t-86.5 72t-130.5 26.5t-130.5 -26t-86.5 -71.5t-48 -106.5t-15 -131q0 -69 14 -130t47 -106.5t86.5 -72t132.5 -26.5z" />
    <glyph glyph-name="multiply" unicode="&#xd7;" horiz-adv-x="459" 
d="M86 521l144 -144l144 144l25 -24l-144 -145l144 -144l-25 -24l-144 144l-144 -144l-25 24l144 144l-144 145z" />
    <glyph glyph-name="Oslash" unicode="&#xd8;" horiz-adv-x="797" 
d="M399 -8q-116 0 -194 48l-27 -40h-43l41 60q-57 45 -86 117.5t-29 172.5q0 174 87 265.5t251 92.5q114 0 193 -47l27 39h43l-41 -59q116 -92 116 -291q0 -174 -88 -266t-250 -92zM572 632q-32 26 -74.5 39.5t-98.5 13.5q-77 0 -130.5 -26t-86.5 -71.5t-48 -106.5t-15 -131
q0 -78 18 -145t61 -114zM399 15q78 0 131.5 26.5t86.5 72t47.5 106.5t14.5 130q0 78 -18.5 144.5t-61.5 113.5l-375 -541q32 -25 75 -38.5t100 -13.5z" />
    <glyph glyph-name="Ugrave" unicode="&#xd9;" horiz-adv-x="742" 
d="M442 882h45q-28 -41 -51 -74q-20 -28 -36 -51.5t-18 -25.5h-20zM106 645q0 16 -9.5 25.5t-25.5 9.5h-25v20h175v-20h-25q-16 0 -25.5 -9.5t-9.5 -25.5v-396q0 -66 16.5 -109t46 -68.5t69.5 -35.5t87 -10q110 0 167.5 53t57.5 170v359q0 37 -9.5 54.5t-25.5 17.5h-38v20
h164v-20h-37q-15 0 -24.5 -17.5t-9.5 -54.5v-358q0 -134 -61.5 -196t-196.5 -62q-63 0 -111.5 13.5t-81.5 43.5t-50.5 77.5t-17.5 116.5v402z" />
    <glyph glyph-name="Uacute" unicode="&#xda;" horiz-adv-x="742" 
d="M403 728q-2 2 -18 25.5t-36 51.5q-23 33 -51 74h45l80 -151h-20zM106 645q0 16 -9.5 25.5t-25.5 9.5h-25v20h175v-20h-25q-16 0 -25.5 -9.5t-9.5 -25.5v-396q0 -66 16.5 -109t46 -68.5t69.5 -35.5t87 -10q110 0 167.5 53t57.5 170v359q0 37 -9.5 54.5t-25.5 17.5h-38v20
h164v-20h-37q-15 0 -24.5 -17.5t-9.5 -54.5v-358q0 -134 -61.5 -196t-196.5 -62q-63 0 -111.5 13.5t-81.5 43.5t-50.5 77.5t-17.5 116.5v402z" />
    <glyph glyph-name="Ucircumflex" unicode="&#xdb;" horiz-adv-x="742" 
d="M314 738h-46l110 144h18l112 -144h-46l-74 125zM106 645q0 16 -9.5 25.5t-25.5 9.5h-25v20h175v-20h-25q-16 0 -25.5 -9.5t-9.5 -25.5v-396q0 -66 16.5 -109t46 -68.5t69.5 -35.5t87 -10q110 0 167.5 53t57.5 170v359q0 37 -9.5 54.5t-25.5 17.5h-38v20h164v-20h-37
q-15 0 -24.5 -17.5t-9.5 -54.5v-358q0 -134 -61.5 -196t-196.5 -62q-63 0 -111.5 13.5t-81.5 43.5t-50.5 77.5t-17.5 116.5v402z" />
    <glyph glyph-name="Udieresis" unicode="&#xdc;" horiz-adv-x="742" 
d="M322 855q29 0 37.5 -12t8.5 -44t-8.5 -44.5t-37.5 -12.5t-37.5 12.5t-8.5 44.5t8.5 44t37.5 12zM454 855q29 0 37.5 -12t8.5 -44q1 -32 -8 -44.5t-38 -12.5t-37.5 12.5t-7.5 44.5q0 32 8 44t37 12zM106 645q0 16 -9.5 25.5t-25.5 9.5h-25v20h175v-20h-25
q-16 0 -25.5 -9.5t-9.5 -25.5v-396q0 -66 16.5 -109t46 -68.5t69.5 -35.5t87 -10q110 0 167.5 53t57.5 170v359q0 37 -9.5 54.5t-25.5 17.5h-38v20h164v-20h-37q-15 0 -24.5 -17.5t-9.5 -54.5v-358q0 -134 -61.5 -196t-196.5 -62q-63 0 -111.5 13.5t-81.5 43.5t-50.5 77.5
t-17.5 116.5v402z" />
    <glyph glyph-name="Yacute" unicode="&#xdd;" horiz-adv-x="731" 
d="M384 728q-2 2 -18 25.5t-36 51.5q-23 33 -51 74h45l80 -151h-20zM31 680v20h194v-20h-26q-40 0 -20 -35l202 -348l175 311q22 40 22 56t-16 16h-38v20h176v-20h-31q-26 0 -45 -16t-42 -56l-188 -330v-223q0 -16 9.5 -25.5t25.5 -9.5h26v-20h-176v20h26q16 0 25 9.5
t9 25.5v203l-226 387q-10 17 -21 26t-29 9h-32z" />
    <glyph glyph-name="Thorn" unicode="&#xde;" horiz-adv-x="653" 
d="M66 20q16 0 25.5 9.5t9.5 25.5v590q0 16 -9.5 25.5t-25.5 9.5h-25v20h175v-20h-25q-16 0 -25.5 -9.5t-9.5 -25.5v-98h227q65 0 109 -14t70.5 -39.5t38 -61.5t11.5 -80t-11.5 -80.5t-39.5 -62.5t-75 -40.5t-117 -14.5h-213v-99q0 -16 9.5 -25.5t25.5 -9.5h25v-20h-175v20
h25zM156 174h187q109 -1 160 40.5t51 137.5t-49 135.5t-148 39.5h-201v-353z" />
    <glyph glyph-name="germandbls" unicode="&#xdf;" horiz-adv-x="740" 
d="M525 419q35 21 53.5 47.5t18.5 58.5q0 47 -18 77t-48 47.5t-68 24t-77 6.5q-65 0 -108 -16t-69 -46t-37 -73.5t-11 -98.5v-446h-115v20h25q16 0 25.5 9.5t9.5 25.5v396q0 59 15.5 105t49.5 78t87 49t128 17q45 0 92.5 -5.5t86.5 -22.5t64.5 -50t25.5 -88
q0 -60 -30.5 -95.5t-78.5 -53.5q-46 -17 -46 -23t47 -18q60 -14 96.5 -48.5t36.5 -99.5q0 -72 -28.5 -111.5t-78 -58t-116 -22.5t-142.5 -4v20q68 0 124.5 4.5t97 23t63 55.5t22.5 100q0 38 -25 65.5t-69 46.5q-35 15 -53 25.5t-18 21t17 23.5t51 34z" />
    <glyph glyph-name="agrave" unicode="&#xe0;" horiz-adv-x="625" 
d="M347 696h45q-28 -41 -51 -74q-20 -28 -36 -51.5t-18 -25.5h-20zM67 381q6 23 23.5 45.5t46.5 40.5t70 29.5t94 11.5q116 0 170 -45t54 -146v-257q0 -18 9.5 -29t24.5 -11h26v-20h-115v128q-24 -63 -87 -99.5t-152 -36.5t-140 38.5t-51 115.5q0 48 24 82t62.5 56.5
t86 35.5t95.5 20t90.5 8.5t70.5 1.5q-1 25 -8 49t-25.5 43t-52 30t-87.5 11q-81 0 -135.5 -28.5t-73.5 -73.5h-20zM470 330q-68 0 -134.5 -8.5t-119 -29t-85.5 -56.5t-33 -92q0 -26 9 -49t28 -39.5t49 -26t73 -9.5q42 0 81 13.5t68 37t46.5 56t17.5 70.5v133z" />
    <glyph glyph-name="aacute" unicode="&#xe1;" horiz-adv-x="625" 
d="M308 542q-2 2 -18 25.5t-36 51.5q-23 33 -51 74h45l80 -151h-20zM67 381q6 23 23.5 45.5t46.5 40.5t70 29.5t94 11.5q116 0 170 -45t54 -146v-257q0 -18 9.5 -29t24.5 -11h26v-20h-115v128q-24 -63 -87 -99.5t-152 -36.5t-140 38.5t-51 115.5q0 48 24 82t62.5 56.5
t86 35.5t95.5 20t90.5 8.5t70.5 1.5q-1 25 -8 49t-25.5 43t-52 30t-87.5 11q-81 0 -135.5 -28.5t-73.5 -73.5h-20zM470 330q-68 0 -134.5 -8.5t-119 -29t-85.5 -56.5t-33 -92q0 -26 9 -49t28 -39.5t49 -26t73 -9.5q42 0 81 13.5t68 37t46.5 56t17.5 70.5v133z" />
    <glyph glyph-name="acircumflex" unicode="&#xe2;" horiz-adv-x="625" 
d="M219 552h-46l110 144h18l112 -144h-46l-74 125zM67 381q6 23 23.5 45.5t46.5 40.5t70 29.5t94 11.5q116 0 170 -45t54 -146v-257q0 -18 9.5 -29t24.5 -11h26v-20h-115v128q-24 -63 -87 -99.5t-152 -36.5t-140 38.5t-51 115.5q0 48 24 82t62.5 56.5t86 35.5t95.5 20
t90.5 8.5t70.5 1.5q-1 25 -8 49t-25.5 43t-52 30t-87.5 11q-81 0 -135.5 -28.5t-73.5 -73.5h-20zM470 330q-68 0 -134.5 -8.5t-119 -29t-85.5 -56.5t-33 -92q0 -26 9 -49t28 -39.5t49 -26t73 -9.5q42 0 81 13.5t68 37t46.5 56t17.5 70.5v133z" />
    <glyph glyph-name="atilde" unicode="&#xe3;" horiz-adv-x="625" 
d="M170 549h-20l8 31q11 42 28.5 58t38.5 16q20 0 42.5 -10.5t45 -23t44 -23t39.5 -10.5q17 0 30 11t22 38l6 18h21l-9 -32q-12 -43 -29.5 -59t-38.5 -16q-20 0 -42.5 11t-45 24t-44.5 24t-40 11q-16 0 -29 -11t-21 -39zM67 381q6 23 23.5 45.5t46.5 40.5t70 29.5t94 11.5
q116 0 170 -45t54 -146v-257q0 -18 9.5 -29t24.5 -11h26v-20h-115v128q-24 -63 -87 -99.5t-152 -36.5t-140 38.5t-51 115.5q0 48 24 82t62.5 56.5t86 35.5t95.5 20t90.5 8.5t70.5 1.5q-1 25 -8 49t-25.5 43t-52 30t-87.5 11q-81 0 -135.5 -28.5t-73.5 -73.5h-20zM470 330
q-68 0 -134.5 -8.5t-119 -29t-85.5 -56.5t-33 -92q0 -26 9 -49t28 -39.5t49 -26t73 -9.5q42 0 81 13.5t68 37t46.5 56t17.5 70.5v133z" />
    <glyph glyph-name="adieresis" unicode="&#xe4;" horiz-adv-x="625" 
d="M227 669q29 0 37.5 -12t8.5 -44t-8.5 -44.5t-37.5 -12.5t-37.5 12.5t-8.5 44.5t8.5 44t37.5 12zM359 669q29 0 37.5 -12t8.5 -44q1 -32 -8 -44.5t-38 -12.5t-37.5 12.5t-7.5 44.5q0 32 8 44t37 12zM67 381q6 23 23.5 45.5t46.5 40.5t70 29.5t94 11.5q116 0 170 -45
t54 -146v-257q0 -18 9.5 -29t24.5 -11h26v-20h-115v128q-24 -63 -87 -99.5t-152 -36.5t-140 38.5t-51 115.5q0 48 24 82t62.5 56.5t86 35.5t95.5 20t90.5 8.5t70.5 1.5q-1 25 -8 49t-25.5 43t-52 30t-87.5 11q-81 0 -135.5 -28.5t-73.5 -73.5h-20zM470 330
q-68 0 -134.5 -8.5t-119 -29t-85.5 -56.5t-33 -92q0 -26 9 -49t28 -39.5t49 -26t73 -9.5q42 0 81 13.5t68 37t46.5 56t17.5 70.5v133z" />
    <glyph glyph-name="aring" unicode="&#xe5;" horiz-adv-x="625" 
d="M293 700q41 0 61 -17.5t20 -56.5t-20 -56t-61 -17t-61 17.5t-20 55.5q1 39 20.5 56t60.5 18zM295 573q22 0 33 11t11 43t-10.5 42.5t-33.5 10.5q-25 0 -36.5 -10.5t-11.5 -42.5t12 -43t36 -11zM67 381q6 23 23.5 45.5t46.5 40.5t70 29.5t94 11.5q116 0 170 -45t54 -146
v-257q0 -18 9.5 -29t24.5 -11h26v-20h-115v128q-24 -63 -87 -99.5t-152 -36.5t-140 38.5t-51 115.5q0 48 24 82t62.5 56.5t86 35.5t95.5 20t90.5 8.5t70.5 1.5q-1 25 -8 49t-25.5 43t-52 30t-87.5 11q-81 0 -135.5 -28.5t-73.5 -73.5h-20zM470 330q-68 0 -134.5 -8.5
t-119 -29t-85.5 -56.5t-33 -92q0 -26 9 -49t28 -39.5t49 -26t73 -9.5q42 0 81 13.5t68 37t46.5 56t17.5 70.5v133z" />
    <glyph glyph-name="ae" unicode="&#xe6;" horiz-adv-x="1032" 
d="M67 381q6 23 23.5 45.5t46.5 40.5t70 29.5t94 11.5q86 0 137.5 -24t71.5 -77q31 51 86.5 78.5t140.5 27.5q86 0 139 -28t80.5 -70t33 -90t-4.5 -87h-458q5 -106 62 -159t160 -53q50 0 85 11.5t58 27.5t35 32.5t16 26.5h20q-3 -17 -17 -39.5t-41.5 -43t-69 -35
t-99.5 -14.5q-57 0 -100.5 14t-75 38t-51.5 56.5t-29 69.5q-5 -41 -25.5 -74t-53 -56t-76 -35.5t-94.5 -12.5q-89 0 -140 38.5t-51 115.5q0 48 24 82t62.5 56.5t86 35.5t95.5 20t90.5 8.5t70.5 1.5q-1 25 -8 49t-25.5 43t-52 30t-87.5 11q-81 0 -135.5 -28.5t-73.5 -73.5
h-20zM934 282q2 47 -8 86t-33.5 66.5t-61 43t-90.5 15.5q-45 0 -84 -13.5t-67.5 -42.5t-45.5 -73.5t-17 -105.5h381q16 0 20.5 6.5t5.5 17.5zM470 330q-68 0 -134 -8.5t-119 -29t-85.5 -56.5t-32.5 -92q0 -26 8.5 -49t27.5 -39.5t49 -26t73 -9.5q42 0 81 13.5t68 37t46.5 56
t17.5 70.5v133z" />
    <glyph glyph-name="ccedilla" unicode="&#xe7;" horiz-adv-x="585" 
d="M322 26q73 0 123 28t69 70h20q-10 -27 -29 -50.5t-47 -41t-64.5 -28.5t-80.5 -12l-13 -52q15 0 31 -3.5t29.5 -13t22.5 -26t9 -43.5q0 -24 -9 -43t-25 -32.5t-36.5 -20.5t-43.5 -7q-19 0 -38 5t-37 16v35q14 -9 32.5 -14t36.5 -5q16 0 31 4t27 12t19 21t7 31q0 37 -24 51
t-62 14l17 71q-55 3 -100 21t-77.5 50.5t-50.5 79.5t-18 107q0 62 18.5 110t53 81t83 50t108.5 17q26 0 53.5 -4t52.5 -14q1 0 2 -0.5t2 -0.5q11 -5 20.5 -8t17.5 -3q10 0 14 7.5t-1 25.5h20l31 -117h-21q-11 18 -26.5 35t-37 30t-49.5 21t-64 8q-55 0 -96 -18t-68.5 -49.5
t-41 -73.5t-13.5 -90t13.5 -90t41.5 -73.5t69.5 -49.5t98.5 -18z" />
    <glyph glyph-name="egrave" unicode="&#xe8;" horiz-adv-x="601" 
d="M355 696h45q-28 -41 -51 -74q-20 -28 -36 -51.5t-18 -25.5h-20zM532 124q-3 -17 -17 -39.5t-41.5 -43t-69 -35t-99.5 -14.5q-70 0 -120 21t-82.5 56t-47.5 80t-15 93q0 62 15.5 112t48 85.5t83 54.5t119.5 19q86 0 139 -28t80.5 -70t33 -90t-4.5 -87h-458q5 -106 62 -159
t160 -53q50 0 85 11.5t58 27.5t35 32.5t16 26.5h20zM503 282q2 47 -8 86t-33.5 66.5t-61 43t-90.5 15.5q-45 0 -84 -13.5t-67.5 -42.5t-45.5 -73.5t-17 -105.5h382q15 0 19.5 6.5t5.5 17.5z" />
    <glyph glyph-name="eacute" unicode="&#xe9;" horiz-adv-x="601" 
d="M316 542q-2 2 -18 25.5t-36 51.5q-23 33 -51 74h45l80 -151h-20zM532 124q-3 -17 -17 -39.5t-41.5 -43t-69 -35t-99.5 -14.5q-70 0 -120 21t-82.5 56t-47.5 80t-15 93q0 62 15.5 112t48 85.5t83 54.5t119.5 19q86 0 139 -28t80.5 -70t33 -90t-4.5 -87h-458
q5 -106 62 -159t160 -53q50 0 85 11.5t58 27.5t35 32.5t16 26.5h20zM503 282q2 47 -8 86t-33.5 66.5t-61 43t-90.5 15.5q-45 0 -84 -13.5t-67.5 -42.5t-45.5 -73.5t-17 -105.5h382q15 0 19.5 6.5t5.5 17.5z" />
    <glyph glyph-name="ecircumflex" unicode="&#xea;" horiz-adv-x="601" 
d="M227 552h-46l110 144h18l112 -144h-46l-74 125zM532 124q-3 -17 -17 -39.5t-41.5 -43t-69 -35t-99.5 -14.5q-70 0 -120 21t-82.5 56t-47.5 80t-15 93q0 62 15.5 112t48 85.5t83 54.5t119.5 19q86 0 139 -28t80.5 -70t33 -90t-4.5 -87h-458q5 -106 62 -159t160 -53
q50 0 85 11.5t58 27.5t35 32.5t16 26.5h20zM503 282q2 47 -8 86t-33.5 66.5t-61 43t-90.5 15.5q-45 0 -84 -13.5t-67.5 -42.5t-45.5 -73.5t-17 -105.5h382q15 0 19.5 6.5t5.5 17.5z" />
    <glyph glyph-name="edieresis" unicode="&#xeb;" horiz-adv-x="601" 
d="M235 669q29 0 37.5 -12t8.5 -44t-8.5 -44.5t-37.5 -12.5t-37.5 12.5t-8.5 44.5t8.5 44t37.5 12zM367 669q29 0 37.5 -12t8.5 -44q1 -32 -8 -44.5t-38 -12.5t-37.5 12.5t-7.5 44.5q0 32 8 44t37 12zM532 124q-3 -17 -17 -39.5t-41.5 -43t-69 -35t-99.5 -14.5
q-70 0 -120 21t-82.5 56t-47.5 80t-15 93q0 62 15.5 112t48 85.5t83 54.5t119.5 19q86 0 139 -28t80.5 -70t33 -90t-4.5 -87h-458q5 -106 62 -159t160 -53q50 0 85 11.5t58 27.5t35 32.5t16 26.5h20zM503 282q2 47 -8 86t-33.5 66.5t-61 43t-90.5 15.5q-45 0 -84 -13.5
t-67.5 -42.5t-45.5 -73.5t-17 -105.5h382q15 0 19.5 6.5t5.5 17.5z" />
    <glyph glyph-name="igrave" unicode="&#xec;" horiz-adv-x="257" 
d="M182 696h45q-28 -41 -51 -74q-20 -28 -36 -51.5t-18 -25.5h-20zM66 20q16 0 25.5 9.5t9.5 25.5v390q0 16 -9.5 25.5t-25.5 9.5h-25v20h115v-440q0 -18 9.5 -29t25.5 -11h25v-20h-175v20h25z" />
    <glyph glyph-name="iacute" unicode="&#xed;" horiz-adv-x="257" 
d="M143 542q-2 2 -18 25.5t-36 51.5q-23 33 -51 74h45l80 -151h-20zM66 20q16 0 25.5 9.5t9.5 25.5v390q0 16 -9.5 25.5t-25.5 9.5h-25v20h115v-440q0 -18 9.5 -29t25.5 -11h25v-20h-175v20h25z" />
    <glyph glyph-name="icircumflex" unicode="&#xee;" horiz-adv-x="257" 
d="M54 552h-46l110 144h18l112 -144h-46l-74 125zM66 20q16 0 25.5 9.5t9.5 25.5v390q0 16 -9.5 25.5t-25.5 9.5h-25v20h115v-440q0 -18 9.5 -29t25.5 -11h25v-20h-175v20h25z" />
    <glyph glyph-name="idieresis" unicode="&#xef;" horiz-adv-x="257" 
d="M62 669q29 0 37.5 -12t8.5 -44t-8.5 -44.5t-37.5 -12.5t-37.5 12.5t-8.5 44.5t8.5 44t37.5 12zM194 669q29 0 37.5 -12t8.5 -44q1 -32 -8 -44.5t-38 -12.5t-37.5 12.5t-7.5 44.5q0 32 8 44t37 12zM66 20q16 0 25.5 9.5t9.5 25.5v390q0 16 -9.5 25.5t-25.5 9.5h-25v20h115
v-440q0 -18 9.5 -29t25.5 -11h25v-20h-175v20h25z" />
    <glyph glyph-name="eth" unicode="&#xf0;" horiz-adv-x="730" 
d="M276 563l202 68q-36 25 -76.5 37t-82.5 12v20q56 0 105.5 -15t91.5 -42l136 46l12 -32l-115 -38q66 -55 103.5 -138t37.5 -184q0 -60 -16 -115t-54 -97t-101 -67.5t-156 -25.5q-90 0 -151.5 20t-99.5 54t-55 79t-17 96q0 55 21 95t59.5 66.5t93 39.5t122.5 13
q61 0 109.5 -10.5t84.5 -27t61 -36t39 -36.5q-8 89 -40 154t-79 107l-224 -74zM631 295q-3 17 -25.5 41t-60 45.5t-88.5 37t-113 15.5q-50 0 -94.5 -9.5t-78 -32t-53.5 -58.5t-20 -90q0 -69 22.5 -113.5t59.5 -70t83.5 -35.5t93.5 -10q55 0 105 14.5t87.5 47.5t59.5 86.5
t22 131.5z" />
    <glyph glyph-name="ntilde" unicode="&#xf1;" 
d="M213 549h-20l8 31q11 42 28.5 58t38.5 16q20 0 42.5 -10.5t45 -23t44 -23t39.5 -10.5q17 0 30 11t22 38l6 18h21l-9 -32q-12 -43 -29.5 -59t-38.5 -16q-20 0 -42.5 11t-45 24t-44.5 24t-40 11q-16 0 -29 -11t-21 -39zM66 20q16 0 25.5 9.5t9.5 25.5v390q0 16 -9.5 25.5
t-25.5 9.5h-25v20h115v-137q6 23 19.5 48.5t37.5 47t59 35.5t84 14q98 0 140 -45t42 -146v-257q0 -18 9.5 -29t24.5 -11h26v-20h-175v20h25q16 0 25.5 9.5t9.5 25.5v278q0 28 -5.5 55t-20.5 48t-41.5 34t-68.5 13t-77 -15.5t-60.5 -45.5t-39.5 -74t-14 -100v-188
q0 -18 9.5 -29t25.5 -11h25v-20h-175v20h25z" />
    <glyph glyph-name="ograve" unicode="&#xf2;" horiz-adv-x="613" 
d="M360 696h45q-28 -41 -51 -74q-20 -28 -36 -51.5t-18 -25.5h-20zM306 -8q-127 0 -196 66.5t-69 191.5t68.5 191.5t197.5 66.5q128 0 196.5 -66.5t68.5 -191.5t-69 -191.5t-197 -66.5zM307 15q58 0 97.5 18.5t64 50.5t35 75t10.5 92q0 48 -11 91t-35.5 75t-64 50.5
t-96.5 18.5t-97 -18.5t-64.5 -50.5t-35.5 -74.5t-11 -91.5t10.5 -92t35 -75t64 -50.5t98.5 -18.5z" />
    <glyph glyph-name="oacute" unicode="&#xf3;" horiz-adv-x="613" 
d="M321 542q-2 2 -18 25.5t-36 51.5q-23 33 -51 74h45l80 -151h-20zM306 -8q-127 0 -196 66.5t-69 191.5t68.5 191.5t197.5 66.5q128 0 196.5 -66.5t68.5 -191.5t-69 -191.5t-197 -66.5zM307 15q58 0 97.5 18.5t64 50.5t35 75t10.5 92q0 48 -11 91t-35.5 75t-64 50.5
t-96.5 18.5t-97 -18.5t-64.5 -50.5t-35.5 -74.5t-11 -91.5t10.5 -92t35 -75t64 -50.5t98.5 -18.5z" />
    <glyph glyph-name="ocircumflex" unicode="&#xf4;" horiz-adv-x="613" 
d="M232 552h-46l110 144h18l112 -144h-46l-74 125zM306 -8q-127 0 -196 66.5t-69 191.5t68.5 191.5t197.5 66.5q128 0 196.5 -66.5t68.5 -191.5t-69 -191.5t-197 -66.5zM307 15q58 0 97.5 18.5t64 50.5t35 75t10.5 92q0 48 -11 91t-35.5 75t-64 50.5t-96.5 18.5t-97 -18.5
t-64.5 -50.5t-35.5 -74.5t-11 -91.5t10.5 -92t35 -75t64 -50.5t98.5 -18.5z" />
    <glyph glyph-name="otilde" unicode="&#xf5;" horiz-adv-x="613" 
d="M183 549h-20l8 31q11 42 28.5 58t38.5 16q20 0 42.5 -10.5t45 -23t44 -23t39.5 -10.5q17 0 30 11t22 38l6 18h21l-9 -32q-12 -43 -29.5 -59t-38.5 -16q-20 0 -42.5 11t-45 24t-44.5 24t-40 11q-16 0 -29 -11t-21 -39zM306 -8q-127 0 -196 66.5t-69 191.5t68.5 191.5
t197.5 66.5q128 0 196.5 -66.5t68.5 -191.5t-69 -191.5t-197 -66.5zM307 15q58 0 97.5 18.5t64 50.5t35 75t10.5 92q0 48 -11 91t-35.5 75t-64 50.5t-96.5 18.5t-97 -18.5t-64.5 -50.5t-35.5 -74.5t-11 -91.5t10.5 -92t35 -75t64 -50.5t98.5 -18.5z" />
    <glyph glyph-name="odieresis" unicode="&#xf6;" horiz-adv-x="613" 
d="M240 669q29 0 37.5 -12t8.5 -44t-8.5 -44.5t-37.5 -12.5t-37.5 12.5t-8.5 44.5t8.5 44t37.5 12zM372 669q29 0 37.5 -12t8.5 -44q1 -32 -8 -44.5t-38 -12.5t-37.5 12.5t-7.5 44.5q0 32 8 44t37 12zM306 -8q-127 0 -196 66.5t-69 191.5t68.5 191.5t197.5 66.5
q128 0 196.5 -66.5t68.5 -191.5t-69 -191.5t-197 -66.5zM307 15q58 0 97.5 18.5t64 50.5t35 75t10.5 92q0 48 -11 91t-35.5 75t-64 50.5t-96.5 18.5t-97 -18.5t-64.5 -50.5t-35.5 -74.5t-11 -91.5t10.5 -92t35 -75t64 -50.5t98.5 -18.5z" />
    <glyph glyph-name="oslash" unicode="&#xf8;" horiz-adv-x="613" 
d="M306 -8q-82 0 -139 28l-53 -77h-43l65 94q-95 66 -95 213q0 125 68.5 191.5t196.5 66.5q80 0 138 -26l44 64h43l-56 -82q48 -32 72.5 -85.5t24.5 -128.5q0 -125 -69 -191.5t-197 -66.5zM426 455q-23 14 -52.5 22.5t-66.5 8.5q-57 0 -97 -18.5t-64.5 -50.5t-35.5 -74.5
t-11 -91.5q0 -56 13.5 -103t45.5 -80zM307 15q58 0 97.5 18.5t64 50.5t35 75t10.5 92q0 55 -14 102.5t-47 79.5l-268 -387q48 -31 122 -31z" />
    <glyph glyph-name="ugrave" unicode="&#xf9;" 
d="M373 696h45q-28 -41 -51 -74q-20 -28 -36 -51.5t-18 -25.5h-20zM482 143q-5 -23 -18.5 -49.5t-37 -49t-59 -37.5t-85.5 -15q-97 0 -139 45t-42 145v258q0 18 -9.5 29t-25.5 11h-25v20h115v-333q0 -28 5.5 -55t20.5 -48t41.5 -34t68.5 -13t77 15.5t60.5 45.5t39.5 74
t14 100v188q0 18 -9.5 29t-25.5 11h-25v20h115v-445q0 -16 9.5 -25.5t25.5 -9.5h25v-20h-115v144z" />
    <glyph glyph-name="uacute" unicode="&#xfa;" 
d="M334 542q-2 2 -18 25.5t-36 51.5q-23 33 -51 74h45l80 -151h-20zM482 143q-5 -23 -18.5 -49.5t-37 -49t-59 -37.5t-85.5 -15q-97 0 -139 45t-42 145v258q0 18 -9.5 29t-25.5 11h-25v20h115v-333q0 -28 5.5 -55t20.5 -48t41.5 -34t68.5 -13t77 15.5t60.5 45.5t39.5 74
t14 100v188q0 18 -9.5 29t-25.5 11h-25v20h115v-445q0 -16 9.5 -25.5t25.5 -9.5h25v-20h-115v144z" />
    <glyph glyph-name="ucircumflex" unicode="&#xfb;" 
d="M245 552h-46l110 144h18l112 -144h-46l-74 125zM482 143q-5 -23 -18.5 -49.5t-37 -49t-59 -37.5t-85.5 -15q-97 0 -139 45t-42 145v258q0 18 -9.5 29t-25.5 11h-25v20h115v-333q0 -28 5.5 -55t20.5 -48t41.5 -34t68.5 -13t77 15.5t60.5 45.5t39.5 74t14 100v188
q0 18 -9.5 29t-25.5 11h-25v20h115v-445q0 -16 9.5 -25.5t25.5 -9.5h25v-20h-115v144z" />
    <glyph glyph-name="udieresis" unicode="&#xfc;" 
d="M253 669q29 0 37.5 -12t8.5 -44t-8.5 -44.5t-37.5 -12.5t-37.5 12.5t-8.5 44.5t8.5 44t37.5 12zM385 669q29 0 37.5 -12t8.5 -44q1 -32 -8 -44.5t-38 -12.5t-37.5 12.5t-7.5 44.5q0 32 8 44t37 12zM482 143q-5 -23 -18.5 -49.5t-37 -49t-59 -37.5t-85.5 -15
q-97 0 -139 45t-42 145v258q0 18 -9.5 29t-25.5 11h-25v20h115v-333q0 -28 5.5 -55t20.5 -48t41.5 -34t68.5 -13t77 15.5t60.5 45.5t39.5 74t14 100v188q0 18 -9.5 29t-25.5 11h-25v20h115v-445q0 -16 9.5 -25.5t25.5 -9.5h25v-20h-115v144z" />
    <glyph glyph-name="yacute" unicode="&#xfd;" horiz-adv-x="560" 
d="M315 542q-2 2 -18 25.5t-36 51.5q-23 33 -51 74h45l80 -151h-20zM0 480v20h185v-20h-26q-21 0 -26.5 -9.5t1.5 -25.5l164 -374l146 337q17 37 13.5 54.5t-19.5 17.5h-37v20h168v-20h-26q-26 0 -42.5 -17.5t-33.5 -54.5l-176 -406q-21 -48 -45.5 -82t-51 -56t-54 -32
t-53.5 -10q-25 0 -49 9l-29 102l21 6l8 -31q6 -21 21 -27t36 -6q43 0 90 30.5t82 97.5l-194 442q-7 16 -17.5 25.5t-28.5 9.5h-27z" />
    <glyph glyph-name="thorn" unicode="&#xfe;" horiz-adv-x="653" 
d="M66 -134q16 0 25.5 9.5t9.5 25.5v736q0 20 -9.5 31.5t-25.5 11.5h-25v20h175v-20h-25q-16 0 -25.5 -9.5t-9.5 -25.5v-98h227q65 0 109 -19.5t70.5 -55t38 -85.5t11.5 -111q0 -62 -11.5 -112.5t-39.5 -87t-75 -56.5t-117 -20h-213v-99q0 -16 9.5 -25.5t25.5 -9.5h25v-20
h-175v20h25zM156 20h187q109 0 160 59.5t51 196.5q0 69 -12 117t-37 77.5t-62 43t-86 13.5h-201v-507z" />
    <glyph glyph-name="ydieresis" unicode="&#xff;" horiz-adv-x="560" 
d="M234 669q29 0 37.5 -12t8.5 -44t-8.5 -44.5t-37.5 -12.5t-37.5 12.5t-8.5 44.5t8.5 44t37.5 12zM366 669q29 0 37.5 -12t8.5 -44q1 -32 -8 -44.5t-38 -12.5t-37.5 12.5t-7.5 44.5q0 32 8 44t37 12zM0 480v20h185v-20h-26q-21 0 -26.5 -9.5t1.5 -25.5l164 -374l146 337
q17 37 13.5 54.5t-19.5 17.5h-37v20h168v-20h-26q-26 0 -42.5 -17.5t-33.5 -54.5l-176 -406q-21 -48 -45.5 -82t-51 -56t-54 -32t-53.5 -10q-25 0 -49 9l-29 102l21 6l8 -31q6 -21 21 -27t36 -6q43 0 90 30.5t82 97.5l-194 442q-7 16 -17.5 25.5t-28.5 9.5h-27z" />
    <glyph glyph-name="Dcroat" unicode="&#x110;" horiz-adv-x="740" 
d="M-4 370h110v275q0 16 -9.5 25.5t-25.5 9.5h-25v20h292q178 0 260 -88.5t82 -257.5q0 -84 -20 -150t-63.5 -111.5t-111 -69t-162.5 -23.5h-277v20h25q16 0 25.5 9.5t9.5 25.5v280h-110v35zM161 51q0 -14 9.5 -22.5t25.5 -8.5h127q66 0 121 17t94.5 56t61.5 103t22 158
t-21.5 157t-60 100.5t-90.5 53t-112 15.5h-142q-16 0 -25.5 -11t-9.5 -28v-271h260v-35h-260v-284z" />
    <glyph glyph-name="dcroat" unicode="&#x111;" horiz-adv-x="661" 
d="M505 700h115v-20h-25q-16 0 -25.5 -9.5t-9.5 -25.5v-42h71v-36h-71v-512q0 -16 9.5 -25.5t25.5 -9.5h25v-20h-115v143q-28 -78 -88 -114.5t-148 -36.5q-51 0 -93 17t-72 49.5t-46.5 79.5t-16.5 108q0 128 68 195t186 67q76 0 130 -28.5t80 -87.5v175h-144v36h144v97z
M289 18q59 0 100.5 20.5t67 56.5t37 85.5t11.5 107.5q-2 43 -14.5 79t-36.5 62.5t-59.5 41.5t-83.5 15q-56 0 -96 -18.5t-66 -50.5t-38 -76.5t-12 -95.5q0 -46 11.5 -87.5t35 -72.5t59.5 -49t84 -18z" />
    <glyph glyph-name="dotlessi" unicode="&#x131;" horiz-adv-x="257" 
d="M66 20q16 0 25.5 9.5t9.5 25.5v390q0 16 -9.5 25.5t-25.5 9.5h-25v20h115v-440q0 -18 9.5 -29t25.5 -11h25v-20h-175v20h25z" />
    <glyph glyph-name="Lslash" unicode="&#x141;" horiz-adv-x="650" 
d="M71 20q16 0 25 9.5t9 25.5v213l-111 -100l-23 26l134 121v330q0 16 -9 25.5t-25 9.5h-26v20h176v-20h-26q-16 0 -25.5 -9.5t-9.5 -25.5v-281l128 114l23 -26l-151 -135v-262q0 -16 9.5 -25.5t25.5 -9.5h268q53 1 81 30.5t40 80.5h20l-29 -162h-20q3 21 -8 26t-32 5h-470
v20h26z" />
    <glyph glyph-name="lslash" unicode="&#x142;" horiz-adv-x="257" 
d="M66 20q16 0 25.5 14t9.5 37v228l-107 -112l-26 25l133 137v296q0 16 -9.5 25.5t-25.5 9.5h-25v20h115v-294l107 112l26 -25l-133 -137v-280q0 -26 9.5 -41t25.5 -15h25v-20h-175v20h25z" />
    <glyph glyph-name="OE" unicode="&#x152;" horiz-adv-x="1229" 
d="M399 -8q-162 0 -250 92t-88 266t87 265.5t251 91.5q100 1 171.5 -34.5t113.5 -103.5v76q0 16 -9.5 25.5t-24.5 9.5h-26v20h60h410q21 0 32 5t8 26h20l29 -162h-20q-12 49 -38.5 78.5t-76.5 32.5h-248h-26q-16 0 -25.5 -9.5t-9.5 -25.5v-275h237q26 0 41.5 9t23 24t8.5 35
t-3 43h19l22 -121l-22 -121h-19q4 22 3 42.5t-8.5 35.5t-22.5 24t-40 9h-239v-295q0 -16 9.5 -25.5t25.5 -9.5h268q53 1 81 30.5t40 80.5h20l-29 -162h-20q3 21 -8 26t-32 5h-470v20h26q15 0 24.5 9.5t9.5 25.5v77q-42 -69 -113.5 -104.5t-171.5 -35.5zM399 15
q78 0 131.5 26.5t86.5 72t47.5 106.5t14.5 130t-15 130t-48 106.5t-86.5 72t-130.5 26.5t-130.5 -26t-86.5 -71.5t-48 -106.5t-15 -131q0 -69 14 -130t47 -106.5t86.5 -72t132.5 -26.5z" />
    <glyph glyph-name="oe" unicode="&#x153;" horiz-adv-x="1080" 
d="M307 -8q-128 0 -197 66.5t-69 191.5t68.5 191.5t197.5 66.5q88 0 148.5 -32t90.5 -93q28 62 86.5 96t152.5 34q86 0 139 -28t80.5 -70t33 -90t-4.5 -87h-458q5 -106 62 -159t160 -53q50 0 85 11.5t58 27.5t35 32.5t16 26.5h20q-3 -17 -17 -39.5t-41.5 -43t-69 -35
t-99.5 -14.5q-93 0 -151 36t-86 92q-30 -63 -91 -95.5t-149 -32.5zM982 282q2 47 -8 86t-33.5 66.5t-61 43t-90.5 15.5q-45 0 -84 -13.5t-67.5 -42.5t-45.5 -73.5t-17 -105.5h381q16 0 20.5 6.5t5.5 17.5zM307 15q58 0 98 18.5t64.5 50.5t35 75t10.5 92q0 48 -11 91
t-35.5 75t-64.5 50.5t-97 18.5t-97 -18.5t-64.5 -50.5t-35.5 -74.5t-11 -91.5t10.5 -92t35 -75t64 -50.5t98.5 -18.5z" />
    <glyph glyph-name="Scaron" unicode="&#x160;" horiz-adv-x="744" 
d="M286 872l75 -125l74 125h46l-112 -144h-19l-109 144h45zM360 687q-53 0 -97.5 -9t-77 -26.5t-51 -44t-18.5 -61.5q0 -39 24.5 -62.5t64.5 -38.5t91 -24.5t104 -19.5t104 -23t91 -35.5t64.5 -58t24.5 -89.5q0 -55 -24.5 -93.5t-67 -63t-100.5 -35.5t-125 -11
q-49 0 -93.5 7.5t-82.5 19.5q-14 5 -27 7.5t-24 2.5q-17 0 -26.5 -9.5t-4.5 -32.5l-20 -1l-28 144h19q12 -24 41.5 -45.5t70 -37.5t89 -25t98.5 -9q56 0 102.5 11.5t79.5 33t51.5 53t18.5 72.5q0 46 -24.5 75t-64 47t-90.5 28.5t-104.5 19.5t-104.5 20t-90.5 29.5t-64 48
t-24.5 76.5q0 49 24 83t65.5 56t97.5 32t119 10q38 0 79.5 -5t77.5 -17q20 -7 38.5 -12t32.5 -5q17 0 24.5 9.5t2.5 33.5h20l28 -143h-20q-11 25 -41 47t-71 37.5t-88 24.5t-93 9z" />
    <glyph glyph-name="scaron" unicode="&#x161;" horiz-adv-x="608" 
d="M232 686l74 -125l74 125h46l-112 -144h-18l-110 144h46zM292 487q-35 0 -66 -5.5t-55 -17t-38 -29.5t-14 -43q0 -35 31.5 -52.5t79.5 -28t103 -19t103 -25t79.5 -46t31.5 -82.5q0 -40 -19.5 -68t-52.5 -45.5t-76 -25.5t-89 -8q-47 0 -86 6.5t-66 15.5q-20 6 -31 6t-15 -7
t-1 -24h-27l-24 117h21q10 -18 32 -34.5t53 -29.5t68 -21t76 -8q88 0 136.5 29t48.5 88q0 31 -18.5 50.5t-48.5 32t-68.5 20t-79 14.5t-79 15.5t-68.5 23t-48.5 36.5t-18.5 56q0 35 19 60t51 40.5t75 22.5t90 7q38 0 69 -4t58 -12q14 -5 26 -8t20 -3q9 0 13 6.5t0 23.5h27
l24 -117h-21q-8 19 -28 35.5t-49.5 29.5t-67 20.5t-80.5 7.5z" />
    <glyph glyph-name="Ydieresis" unicode="&#x178;" horiz-adv-x="731" 
d="M303 855q29 0 37.5 -12t8.5 -44t-8.5 -44.5t-37.5 -12.5t-37.5 12.5t-8.5 44.5t8.5 44t37.5 12zM435 855q29 0 37.5 -12t8.5 -44q1 -32 -8 -44.5t-38 -12.5t-37.5 12.5t-7.5 44.5q0 32 8 44t37 12zM31 680v20h194v-20h-26q-40 0 -20 -35l202 -348l175 311q22 40 22 56
t-16 16h-38v20h176v-20h-31q-26 0 -45 -16t-42 -56l-188 -330v-223q0 -16 9.5 -25.5t25.5 -9.5h26v-20h-176v20h26q16 0 25 9.5t9 25.5v203l-226 387q-10 17 -21 26t-29 9h-32z" />
    <glyph glyph-name="Zcaron" unicode="&#x17d;" horiz-adv-x="684" 
d="M272 872l74 -125l74 125h46l-112 -144h-18l-110 144h46zM188 680q-50 0 -76.5 -31t-38.5 -80h-20l29 162h20q-3 -21 8 -26t32 -5h463v-20l-456 -615q-16 -22 -11 -33.5t21 -11.5h339q52 0 80 30t40 81h21l-30 -162h-20q3 21 -8 26t-31 5h-504v20l462 623q12 17 6.5 27
t-25.5 10h-301z" />
    <glyph glyph-name="zcaron" unicode="&#x17e;" horiz-adv-x="580" 
d="M235 686l74 -125l74 125h46l-112 -144h-18l-110 144h46zM190 480q-50 0 -76.5 -31t-38.5 -80h-20l29 162h20q-3 -21 8 -26t32 -5h369l-1 -20l-358 -418q-17 -20 -14 -31t19 -11h235q53 0 81 30t39 81h21l-30 -162h-20q4 21 -7 26t-32 5h-400v20l364 425q13 16 9.5 25.5
t-23.5 9.5h-206z" />
    <glyph glyph-name="circumflex" unicode="&#x2c6;" horiz-adv-x="276" 
d="M63 610h-46l110 144h18l112 -144h-46l-74 125z" />
    <glyph glyph-name="caron" unicode="&#x2c7;" horiz-adv-x="276" 
d="M63 754l74 -125l74 125h46l-112 -144h-18l-110 144h46z" />
    <glyph glyph-name="dotaccent" unicode="&#x2d9;" horiz-adv-x="129" 
d="M64 715q29 0 37.5 -12t8.5 -44t-8.5 -44.5t-37.5 -12.5t-37.5 12.5t-8.5 44.5t8.5 44t37.5 12z" />
    <glyph glyph-name="ring" unicode="&#x2da;" horiz-adv-x="199" 
d="M98 739q41 0 61 -17.5t20 -56.5t-20 -56t-61 -17t-61 17.5t-20 55.5q1 39 20.5 56t60.5 18zM100 612q22 0 33 11t11 43t-10.5 42.5t-33.5 10.5q-25 0 -36.5 -10.5t-11.5 -42.5t12 -43t36 -11z" />
    <glyph glyph-name="tilde" unicode="&#x2dc;" horiz-adv-x="362" 
d="M38 621h-20l8 31q11 42 28.5 58t38.5 16q20 0 42.5 -10.5t45 -23t44 -23t39.5 -10.5q17 0 30 11t22 38l6 18h21l-9 -32q-12 -43 -29.5 -59t-38.5 -16q-20 0 -42.5 11t-45 24t-44.5 24t-40 11q-16 0 -29 -11t-21 -39z" />
    <glyph glyph-name="endash" unicode="&#x2013;" horiz-adv-x="546" 
d="M60 370h425v-35h-425v35z" />
    <glyph glyph-name="emdash" unicode="&#x2014;" horiz-adv-x="850" 
d="M60 370h730v-35h-730v35z" />
    <glyph glyph-name="quoteleft" unicode="&#x2018;" horiz-adv-x="201" 
d="M133 696q-12 -10 -21 -22t-13.5 -24.5t-4 -24t6.5 -18.5q25 0 32 -11t7 -38t-7 -38t-32 -11q-26 0 -33 11t-7 38q0 46 11.5 85t52.5 65z" />
    <glyph glyph-name="quoteright" unicode="&#x2019;" horiz-adv-x="201" 
d="M68 521q25 20 34.5 47t-1.5 42q-26 0 -33 10.5t-7 38.5q0 27 7 38t33 11q25 0 32 -11t7 -38q1 -46 -10.5 -85t-53.5 -65z" />
    <glyph glyph-name="quotedblleft" unicode="&#x201c;" horiz-adv-x="341" 
d="M274 696q-25 -20 -34.5 -47t1.5 -42q25 0 32.5 -11t7.5 -38t-7.5 -38t-32.5 -11t-32.5 11t-7.5 38q0 46 11.5 85t53.5 65zM133 696q-12 -10 -21 -22t-13.5 -24.5t-4 -24t6.5 -18.5q25 0 32 -11t7 -38t-7 -38t-32 -11q-26 0 -33 11t-7 38q0 46 11.5 85t52.5 65z" />
    <glyph glyph-name="quotedblright" unicode="&#x201d;" horiz-adv-x="341" 
d="M68 521q25 20 34.5 47t-1.5 42q-26 0 -33 10.5t-7 38.5q0 27 7 38t33 11q25 0 32 -11t7 -38q1 -46 -10.5 -85t-53.5 -65zM208 521q25 20 34.5 47t-1.5 42q-26 0 -33 10.5t-7 38.5q0 27 7 38t33 11q25 0 32.5 -11t7.5 -38q0 -46 -11.5 -85t-53.5 -65z" />
    <glyph glyph-name="bullet" unicode="&#x2022;" horiz-adv-x="240" 
d="M120 399q25 0 32.5 -11t7.5 -38t-7.5 -38t-32.5 -11q-26 0 -33 11t-7 38t7.5 38t32.5 11z" />
    <glyph glyph-name="ellipsis" unicode="&#x2026;" horiz-adv-x="600" 
d="M100 90q25 0 32.5 -11t7.5 -38t-7.5 -38t-32.5 -11q-26 0 -33 11t-7 38t7.5 38t32.5 11zM300 90q25 0 32.5 -11t7.5 -38t-7.5 -38t-32.5 -11q-26 0 -33 11t-7 38t7.5 38t32.5 11zM500 90q25 0 32.5 -11t7.5 -38t-7.5 -38t-32.5 -11q-26 0 -33 11t-7 38t7.5 38t32.5 11z
" />
    <glyph glyph-name="perthousand" unicode="&#x2030;" horiz-adv-x="1226" 
d="M214 349q-73 0 -117 44.5t-44 135.5t44.5 135.5t116.5 44.5q74 0 118 -44.5t44 -135.5t-44.5 -135.5t-117.5 -44.5zM100 0l585 700h45l-585 -700h-45zM214 370q31 0 53.5 12t36.5 33t20.5 50t6.5 64q0 34 -6.5 63t-20.5 50.5t-36.5 33.5t-53.5 12t-53 -12t-36 -33
t-20.5 -50.5t-6.5 -63.5q0 -35 6.5 -64t20.5 -50t36 -33t53 -12zM621 -8q-72 0 -116.5 44.5t-44.5 135.5t44.5 135t116.5 44q74 0 118 -44t44 -135t-44.5 -135.5t-117.5 -44.5zM1014 -8q-72 0 -116.5 44.5t-44.5 135.5t44.5 135t116.5 44q74 0 118 -44t44 -135t-44.5 -135.5
t-117.5 -44.5zM621 12q31 0 53.5 12t36.5 33.5t20.5 50.5t6.5 64q0 34 -6.5 63t-20.5 50.5t-36.5 33.5t-53.5 12t-53 -12t-36 -33.5t-20.5 -50.5t-6.5 -63q0 -35 6.5 -64t20.5 -50.5t36 -33.5t53 -12zM1014 12q31 0 53.5 12t36.5 33.5t20.5 50.5t6.5 64q0 34 -6.5 63
t-20.5 50.5t-36.5 33.5t-53.5 12t-53 -12t-36 -33.5t-20.5 -50.5t-6.5 -63q0 -35 6.5 -64t20.5 -50.5t36 -33.5t53 -12z" />
    <glyph glyph-name="fraction" unicode="&#x2044;" horiz-adv-x="608" 
d="M40 0l485 700h43l-485 -700h-43z" />
    <glyph glyph-name="uni2074" unicode="&#x2074;" horiz-adv-x="302" 
d="M231 459h-215v21l212 220h29v-218h28v-23h-28v-55q0 -26 16 -26h12v-10h-83v10h12q17 0 17 20v61zM231 482v201l-194 -201h194z" />
    <glyph glyph-name="Euro" unicode="&#x20ac;" horiz-adv-x="893" 
d="M548 30q93 0 158 31t97 82h20q-32 -74 -105 -112.5t-179 -38.5q-140 0 -231.5 65t-119.5 190h-128v35h122q-2 17 -3 33.5t-1 34.5q0 20 1 38.5t4 36.5h-123v35h130q29 121 120 184t229 64q103 0 174 -35.5t104 -103.5h-22q-35 47 -97.5 74t-149.5 27q-60 0 -108.5 -15.5
t-86 -43t-63.5 -66.5t-39 -85h428v-35h-436q-7 -34 -7 -75q0 -17 1.5 -34t3.5 -34h438v-35h-431q12 -48 36.5 -88t61.5 -68.5t87.5 -44.5t114.5 -16z" />
    <glyph glyph-name="trademark" unicode="&#x2122;" horiz-adv-x="950" 
d="M46 632l18 99h12q-2 -13 4.5 -16t19.5 -3h285q13 0 19.5 3t4.5 16h12l18 -99h-12q-8 30 -24 49t-47 19h-76q-21 0 -21 -21v-360q0 -21 21 -21h16v-13h-107v13h15q21 0 21 21v360q0 21 -21 21h-76q-30 0 -46.5 -19t-23.5 -49h-12zM483 298q9 0 15 10.5t6 32.5v338
q0 10 -6 15.5t-15 5.5h-23v12h75l157 -238l148 238h64v-12h-15q-21 0 -21 -21v-360q0 -21 21 -21h15v-13h-107v13h16q21 0 21 21v356l-146 -234h-17l-155 236v-336q0 -22 6 -32.5t15 -10.5h23v-13h-100v13h23z" />
    <glyph glyph-name="minus" unicode="&#x2212;" horiz-adv-x="546" 
d="M60 370h425v-35h-425v35z" />
    <glyph glyph-name="T_T" horiz-adv-x="1089" 
d="M46 569l29 162h20q-3 -21 8 -26t31 -5h821q21 0 32 5t7 26h20l30 -162h-21q-11 49 -38 80t-77 31h-125q-16 0 -25.5 -9.5t-9.5 -25.5v-590q0 -16 9.5 -25.5t25.5 -9.5h25v-20h-175v20h25q16 0 25.5 9.5t9.5 25.5v590q0 16 -9.5 25.5t-25.5 9.5h-237q-11 0 -18.5 -9.5
t-7.5 -25.5v-590q0 -16 9.5 -25.5t25.5 -9.5h26v-20h-176v20h26q15 0 24.5 9.5t9.5 25.5v590q0 16 -9.5 25.5t-24.5 9.5h-125q-50 0 -77 -31t-38 -80h-20z" />
    <glyph glyph-name="t_t" horiz-adv-x="661" 
d="M129 638h20v-138h242l35 138h20v-138h175v-20h-175v-321q0 -55 13 -85.5t36.5 -44t55.5 -14t70 4.5v-20q-51 -9 -93.5 -8.5t-73 16t-47 48.5t-16.5 90v334h-242v-321q0 -55 13 -85.5t36.5 -44t55.5 -14t70 4.5v-20q-51 -9 -93.5 -8.5t-73 16t-47 48.5t-16.5 90v334h-103
v20h104z" />
    <glyph glyph-name="a.ss01" horiz-adv-x="625" 
d="M67 381q6 23 23.5 45.5t46.5 40.5t70 29.5t94 11.5q116 0 170 -45t54 -146v-240q1 -141 30 -251.5t85 -195.5q101 35 202 66t205.5 54.5t212.5 37t222 13.5q44 0 100.5 -1.5t115.5 -8.5t115 -21.5t100.5 -41.5t71.5 -67.5t27 -98.5t-25.5 -101t-69.5 -73t-102.5 -49.5
t-124 -30.5t-134.5 -15t-134 -4q-136 0 -258 18t-226 56t-188.5 96t-144.5 139q-83 -29 -166 -58.5t-168 -58.5q45 -58 70 -128.5t25 -156.5q0 -54 -13.5 -97t-36.5 -74.5t-53 -51t-63 -25.5q-2 0 -7 -0.5t-10.5 0t-10.5 4t-6 10.5q-4 17 6 23.5t20 9.5q34 9 61 29
t45.5 48.5t28 64.5t9.5 75q0 78 -23 143t-65 119q-106 -35 -216.5 -66.5t-228 -55t-242.5 -37.5t-261 -14q-51 0 -112 4t-122.5 14t-118.5 28t-101 46t-70.5 67.5t-26.5 93.5q0 45 21 80t56 61t80.5 43.5t94.5 29.5t98.5 18.5t92.5 10t76.5 4t49.5 0.5q84 0 173.5 -6.5
t178 -21.5t173.5 -38.5t161.5 -57.5t141 -79t112.5 -102q86 29 169 59t166 59q-60 86 -91.5 195.5t-31.5 247.5v71q-24 -63 -87 -99.5t-152 -36.5t-140 38.5t-51 115.5q0 48 24 82t62.5 56.5t86 35.5t95.5 20t90.5 8.5t70.5 1.5q-1 25 -8 49t-25.5 43t-52 30t-87.5 11
q-81 0 -135.5 -28.5t-73.5 -73.5h-20zM470 330q-68 0 -134.5 -8.5t-119 -29t-85.5 -56.5t-33 -92q0 -26 9 -49t28 -39.5t49 -26t73 -9.5q42 0 81 13.5t68 37t46.5 56t17.5 70.5v133zM236 -511q-70 82 -177 137.5t-234 90t-265 49.5t-269 15q-13 0 -57 -1.5t-101.5 -8
t-121.5 -20.5t-117 -39.5t-88 -64t-35 -93.5q0 -50 26.5 -86.5t71 -62.5t101.5 -42.5t117.5 -25.5t120 -12.5t108.5 -3.5q131 0 252 13.5t235 36t221.5 53t211.5 65.5zM651 -386q57 -81 137.5 -138.5t182 -94t223 -53t259.5 -16.5q55 0 116 4t120.5 14.5t114 28.5t96 45.5
t66 66.5t24.5 92q0 54 -26.5 91t-70 61t-98.5 37.5t-111.5 20t-109.5 7.5t-92 1q-113 0 -219.5 -13.5t-209 -36t-202.5 -53t-200 -64.5z" />
    <glyph glyph-name="c.ss01" horiz-adv-x="585" 
d="M495 394q-11 18 -26.5 35t-37 30t-49.5 21t-64 8q-55 0 -96 -18t-68.5 -49.5t-41 -73.5t-13.5 -90q0 -41 11 -77.5t32 -65.5t50.5 -49.5t66.5 -30.5q3 49 16.5 91t35.5 72.5t53 47.5t69 17q48 0 74.5 -27t26.5 -81q0 -35 -13.5 -65t-40 -51.5t-65.5 -33.5t-91 -12
q-11 0 -21.5 0.5t-21.5 1.5q2 -110 45 -211t128 -186q112 40 224.5 77t228 65t236 45t248.5 17q44 0 100.5 -1.5t115.5 -8.5t115 -21.5t100.5 -41.5t71.5 -67.5t27 -98.5t-25.5 -101t-69.5 -73t-102.5 -49.5t-124 -30.5t-134.5 -15t-134 -4q-155 0 -287.5 20.5t-243.5 58
t-199.5 90t-154.5 116.5q-66 -23 -132 -46.5t-134 -46.5q45 -59 70 -129.5t25 -155.5q0 -54 -13.5 -97t-36.5 -74.5t-53 -51t-63 -25.5q-2 0 -7 -0.5t-10.5 0t-10.5 4t-6 10.5q-4 17 6 23.5t20 9.5q34 9 61 29t45.5 48.5t28 64.5t9.5 75q0 78 -23 142.5t-65 118.5
q-105 -35 -215.5 -66t-227.5 -54.5t-242.5 -37.5t-261.5 -14q-52 0 -112.5 4t-122 14t-119 28t-101.5 46t-70.5 67.5t-26.5 93.5q0 45 21 80t56 61t80.5 43.5t94.5 29.5t98.5 18.5t92.5 10t76.5 4t49.5 0.5q84 0 173.5 -6.5t178 -21.5t173.5 -38.5t161.5 -57.5t141 -78.5
t112.5 -101.5q67 23 132.5 46t130.5 46q-86 88 -129 192.5t-44 216.5q-47 8 -87 28.5t-68.5 52.5t-44.5 75t-16 96q0 62 18.5 110t53 81t83 50t108.5 17q26 0 53.5 -4t52.5 -14q1 0 2 -0.5t2 -0.5q13 -5 24 -8.5t18.5 -2t10 9t-1.5 23.5h20l31 -117h-20h-1zM326 26
q92 0 140 37t48 94q0 48 -23 66t-62 18q-37 0 -64 -19.5t-44.5 -50t-27 -68t-11.5 -74.5q21 -3 44 -3zM144 -511q-46 54 -109.5 97t-139.5 75.5t-161 55t-174.5 37t-181 21t-178.5 6.5q-13 0 -56.5 -1.5t-101.5 -8t-121.5 -20.5t-117 -39.5t-88.5 -64t-35 -93.5
q0 -50 26.5 -86.5t71 -62.5t101.5 -42.5t117.5 -25.5t120 -12.5t108.5 -3.5q131 0 252.5 13.5t235 36t221 53t210.5 65.5zM470 -418q65 -61 152.5 -111t197 -85t242 -54.5t287.5 -19.5q54 0 116 4t123.5 14.5t117.5 28.5t99 45.5t68.5 66.5t25.5 92q0 54 -26.5 91t-70 61
t-98.5 37.5t-111.5 20t-109.5 7.5t-92 1q-126 0 -243.5 -16.5t-231 -44t-224.5 -63.5t-222 -75z" />
    <glyph glyph-name="d.ss01" horiz-adv-x="661" 
d="M505 700h115v-20h-25q-16 0 -25.5 -9.5t-9.5 -25.5v-568q1 -141 30.5 -251.5t84.5 -195.5q101 35 202.5 66t205.5 54.5t212 37t222 13.5q44 0 100.5 -1.5t115.5 -8.5t115 -21.5t100.5 -41.5t71.5 -67.5t27 -98.5t-25.5 -101t-69.5 -73t-102.5 -49.5t-124 -30.5
t-134.5 -15t-134 -4q-136 0 -258 18t-226 56t-188.5 96t-144.5 139q-83 -29 -165.5 -58.5t-168.5 -58.5q45 -58 70 -128.5t25 -156.5q0 -54 -13.5 -97t-36.5 -74.5t-53 -51t-63 -25.5q-2 0 -7 -0.5t-10 0t-10 4t-6 10.5q-4 17 5.5 23.5t19.5 9.5q34 9 61 29t46 48.5
t28.5 64.5t9.5 75q0 78 -23.5 143t-65.5 119q-106 -35 -216 -66.5t-227.5 -55t-242.5 -37.5t-261 -14q-51 0 -112 4t-122.5 14t-119 28t-101.5 46t-70.5 67.5t-26.5 93.5q0 60 36 102t92 69.5t124 42.5t131 22.5t114 9t73 1.5q126 0 261.5 -15.5t262.5 -51t235.5 -94
t180.5 -144.5q86 29 169 59t166 59q-60 86 -92 195.5t-32 247.5v86q-28 -78 -88 -114.5t-148 -36.5q-51 0 -93 17t-72 49.5t-46.5 79.5t-16.5 108q0 128 68 195t186 67q76 0 130 -28.5t80 -87.5v308zM289 18q59 0 100.5 20.5t67 56.5t37 85.5t11.5 107.5q-2 43 -14.5 79
t-36.5 62.5t-59.5 41.5t-83.5 15q-56 0 -96 -18.5t-66 -50.5t-38 -76.5t-12 -95.5q0 -46 11.5 -87.5t35 -72.5t59.5 -49t84 -18zM271 -511q-70 82 -177 137.5t-234 90t-265 49.5t-269 15q-13 0 -56.5 -1.5t-101 -8t-121.5 -20.5t-117 -39.5t-88 -64t-35 -93.5
q0 -50 26.5 -86.5t70.5 -62.5t101 -42.5t117.5 -25.5t120 -12.5t108.5 -3.5q131 0 252 13.5t235 36t221.5 53t211.5 65.5zM686 -386q57 -81 137.5 -138.5t182.5 -94t223.5 -53t259.5 -16.5q55 0 116 4t120.5 14.5t113.5 28.5t95.5 45.5t66 66.5t24.5 92q0 54 -26.5 91
t-70 61t-98.5 37.5t-111.5 20t-109.5 7.5t-92 1q-113 0 -219.5 -13.5t-209 -36t-202.5 -53t-200 -64.5z" />
    <glyph glyph-name="e.ss01" horiz-adv-x="601" 
d="M449 198q19 0 36.5 -4t31 -12.5t22 -22.5t8.5 -35q0 -30 -17.5 -54.5t-48 -41.5t-71 -26.5t-86.5 -9.5h-21t-20 2q-1 -8 -1.5 -16t-0.5 -16q0 -95 42.5 -189t128.5 -176q113 40 225.5 77t228.5 65t236.5 45t248.5 17q44 0 100.5 -1.5t115.5 -8.5t115 -21.5t100.5 -41.5
t71.5 -67.5t27 -98.5t-25.5 -101t-69.5 -73t-102.5 -49.5t-124 -30.5t-134.5 -15t-134 -4q-155 0 -288 21.5t-244 59.5t-199.5 90t-154.5 113q-66 -23 -131.5 -46t-133.5 -46q45 -59 70 -129.5t25 -155.5q0 -54 -13.5 -97t-36.5 -74.5t-53 -51t-63 -25.5q-2 0 -7 -0.5
t-10.5 0t-10.5 4t-6 10.5q-4 17 6 23.5t20 9.5q34 9 61 29t45.5 48.5t28 64.5t9.5 75q0 78 -23 142.5t-65 118.5q-105 -35 -215.5 -66t-227.5 -54.5t-242.5 -37.5t-261.5 -14q-52 0 -112.5 4t-122 14t-119 28t-101.5 46t-70.5 67.5t-26.5 93.5q0 45 21 80t56 61t80.5 43.5
t94.5 29.5t98.5 18.5t92.5 10t76.5 4t49.5 0.5q84 0 173.5 -6.5t178 -21.5t173.5 -38.5t161.5 -57.5t141 -78.5t112.5 -101.5q67 23 132 45.5t130 45.5q-86 85 -129 180t-43 190q0 10 0.5 19.5t1.5 18.5q-59 9 -100.5 32.5t-67.5 57t-38.5 74t-12.5 82.5q0 62 15.5 112
t48 85.5t83 54.5t119.5 19q86 0 139 -28t80.5 -70t33 -90t-4.5 -87h-458q4 -89 44.5 -143t123.5 -69q16 81 66 127t119 45zM503 282q2 47 -8 86t-33.5 66.5t-61 43t-90.5 15.5q-45 0 -84 -13.5t-67.5 -42.5t-45.5 -73.5t-17 -105.5h382q15 0 19.5 6.5t5.5 17.5zM288 22
q10 -1 21 -1.5t22 -0.5q40 0 75 7t61.5 20.5t42 33t15.5 43.5q0 29 -22.5 41t-57.5 12q-33 0 -59 -12.5t-45.5 -34t-33 -49.5t-19.5 -59zM144 -511q-46 54 -109.5 97t-139.5 75.5t-161 55t-174.5 37t-181 21t-178.5 6.5q-13 0 -56.5 -1.5t-101.5 -8t-121.5 -20.5t-117 -39.5
t-88.5 -64t-35 -93.5q0 -50 26.5 -86.5t71 -62.5t101.5 -42.5t117.5 -25.5t120 -12.5t108.5 -3.5q131 0 252.5 13.5t235 36t221 53t210.5 65.5zM469 -418q65 -59 152.5 -108.5t197.5 -85.5t242.5 -56t287.5 -20q54 0 116 4t123.5 14.5t117.5 28.5t99 45.5t68.5 66.5t25.5 92
q0 54 -26.5 91t-70 61t-98.5 37.5t-111.5 20t-109.5 7.5t-92 1q-126 0 -244 -16.5t-231.5 -44t-224.5 -63.5t-222 -75z" />
    <glyph glyph-name="f.ss01" horiz-adv-x="469" 
d="M161 500h230v-20h-230v-525q0 -100 -22.5 -185.5t-67.5 -155.5q84 -29 167 -59t170 -59q48 57 112.5 102t141 79t162 57.5t174 38.5t177.5 21.5t173 6.5q16 0 49.5 -0.5t76.5 -4t92.5 -10t98.5 -18.5t94.5 -29.5t80.5 -43.5t56 -61t21 -80q0 -54 -26.5 -93.5t-70.5 -67.5
t-101 -46t-118.5 -28t-122.5 -14t-112 -4q-136 0 -261 14t-242.5 37.5t-228 55t-216.5 66.5q-42 -54 -65 -119t-23 -143q0 -39 9.5 -75t28 -64.5t45 -48.5t61.5 -29q11 -3 20.5 -9.5t5.5 -23.5q-2 -7 -6.5 -10.5t-10 -4t-10.5 0t-7 0.5q-33 6 -63 25.5t-53 51t-36.5 74.5
t-13.5 97q0 85 25.5 156t70.5 129q-86 29 -169 58.5t-166 58.5q-54 -78 -134.5 -136.5t-184 -96.5t-229 -57t-269.5 -19q-65 0 -133.5 4t-134 15t-124 30.5t-102.5 49.5t-69.5 73t-25.5 101q0 59 27 99t71.5 67t100.5 41.5t115 21.5t115.5 8.5t100.5 1.5q114 0 221.5 -13.5
t211 -36.5t204.5 -54t202 -66q40 69 61 154t21 188v507h-65v20h65v23q0 51 14.5 86.5t40 57t60 31.5t73.5 10q19 0 37.5 -2t35.5 -8q23 -6 32.5 -4.5t5.5 18.5h20l23 -88h-20q-8 22 -38.5 42t-87.5 20q-41 0 -68.5 -12.5t-43.5 -33t-22.5 -47.5t-6.5 -56v-37zM431 -511
q103 -35 210.5 -65.5t221.5 -53t235.5 -36t252.5 -13.5q49 0 108.5 3.5t120 12.5t117.5 25.5t101 42.5t70.5 62.5t26.5 86.5q0 56 -35 94t-88 63.5t-117 39.5t-121.5 20.5t-101.5 8t-57 1.5q-87 0 -178.5 -6.5t-181 -21t-174.5 -37t-161 -55t-139.5 -75.5t-109.5 -97z
M14 -385q-100 34 -200 64.5t-202.5 53t-208.5 35.5t-218 13q-39 0 -92 -1t-109.5 -7.5t-111.5 -20t-98.5 -37.5t-70 -61t-26.5 -91q0 -53 24.5 -92t66 -66.5t95.5 -45.5t113.5 -28.5t120.5 -14.5t116 -4q147 0 271.5 17.5t225.5 54t177.5 94t126.5 137.5z" />
    <glyph glyph-name="g.ss01" horiz-adv-x="667" 
d="M341 106q-42 0 -77 4.5t-65 15.5q-67 0 -93.5 -14t-26.5 -35t24.5 -31t64 -14.5t89.5 -4.5h101q64 0 117 -7t90 -23.5t57.5 -44.5t20.5 -71q0 -52 -32 -90q41 -27 79 -57t76 -62q85 28 171.5 51.5t175.5 40.5t181 27t188 10q44 0 100.5 -1.5t115.5 -8.5t115 -21.5
t100.5 -41.5t71.5 -67.5t27 -98.5t-25.5 -101t-66.5 -73t-94 -49.5t-108.5 -30.5t-108.5 -15t-95 -4q-136 0 -243.5 32.5t-197 84.5t-166.5 116t-151 127q-121 -39 -240.5 -82.5t-244.5 -85.5q45 -58 70 -128.5t25 -156.5q0 -54 -13.5 -97t-36.5 -74.5t-53 -51t-63 -25.5
q-2 0 -7 -0.5t-10.5 0t-10.5 4t-6 10.5q-4 17 6 23.5t20 9.5q34 9 61 29t45.5 48.5t28 64.5t9.5 75q0 78 -23 143t-65 119q-106 -35 -216.5 -66.5t-228 -55t-242.5 -37.5t-261 -14q-51 0 -112 4t-122.5 14t-118.5 28t-101 46t-70.5 67.5t-26.5 93.5q0 45 21 80t56 61
t80.5 43.5t94.5 29.5t98.5 18.5t92.5 10t76.5 4t49.5 0.5q84 0 173.5 -6.5t178 -21.5t173.5 -38.5t161.5 -57.5t141 -79t112.5 -102q124 42 242.5 85t238.5 83q-35 29 -70.5 57t-72.5 54q-41 -36 -108 -51.5t-145 -15.5q-68 0 -123.5 7.5t-95.5 23t-61.5 39.5t-21.5 56
q0 26 13.5 43t35.5 27t49.5 14t54.5 4q58 0 110.5 -8t100.5 -23t91.5 -35.5t84.5 -45.5q27 28 27 69q0 26 -13.5 43.5t-43.5 28t-77 15t-114 4.5q-57 0 -112 1.5t-98.5 10.5t-70.5 29t-27 58q0 37 28.5 55t77.5 19q-95 52 -95 164q0 97 72 149t206 52q93 0 157 -26
q-24 36 -29 75.5t8 73t43.5 55.5t76.5 22l42 -100l-19 -5l-11 25q-6 12 -13.5 16.5t-21.5 4.5q-24 0 -40.5 -19t-23.5 -47t-3 -59.5t23 -56.5q89 -52 89 -160q0 -97 -72 -149t-206 -52zM341 129q61 0 103.5 14t68 38t37 56.5t11.5 69.5t-11.5 69.5t-37.5 57t-68 38.5
t-103 14t-103 -14t-68 -38.5t-37.5 -57t-11.5 -69.5t11 -69.5t37 -56.5t68 -38t104 -14zM206 -99q-68 0 -102.5 -14t-34.5 -47q0 -25 22 -43t59.5 -30t88 -17.5t107.5 -5.5q152 0 218 51q-77 48 -163.5 77t-194.5 29zM236 -511q-70 82 -177 137.5t-234 90t-265 49.5t-269 15
q-13 0 -57 -1.5t-101.5 -8t-121.5 -20.5t-117 -39.5t-88 -64t-35 -93.5q0 -50 26.5 -86.5t71 -62.5t101.5 -42.5t117.5 -25.5t120 -12.5t108.5 -3.5q131 0 252 13.5t235 36t221.5 53t211.5 65.5zM784 -342q73 -62 148 -123.5t161 -111t187 -80.5t227 -31q41 0 93 4
t105.5 14.5t105 28.5t91 45.5t64 66.5t24.5 92q0 54 -26.5 91t-70 61t-98.5 37.5t-111.5 20t-109.5 7.5t-92 1q-94 0 -183.5 -9.5t-176 -26t-171 -39t-167.5 -48.5z" />
    <glyph glyph-name="h.ss01" horiz-adv-x="627" 
d="M157 357q5 23 18.5 49.5t37 49t58.5 37.5t85 15q98 0 140 -45t42 -146v-344q0 -103 21 -188t61 -154q100 35 201.5 66t205 54t211 36.5t221.5 13.5q44 0 100.5 -1.5t115.5 -8.5t115 -21.5t100.5 -41.5t71.5 -67.5t27 -98.5t-25.5 -101t-69.5 -73t-102.5 -49.5t-124 -30.5
t-134.5 -15t-134 -4q-144 0 -269 19t-228.5 57t-184 96.5t-134.5 136.5q-83 -29 -166 -58.5t-169 -58.5q45 -58 70 -129t25 -156q0 -54 -13.5 -97t-36.5 -74.5t-53 -51t-63 -25.5q-2 0 -7 -0.5t-10 0t-10 4t-6 10.5q-4 17 5.5 23.5t19.5 9.5q34 9 61 29t46 48.5t28.5 64.5
t9.5 75q0 78 -23.5 143t-65.5 119q-106 -35 -216 -66.5t-227.5 -55t-242.5 -37.5t-261 -14q-52 0 -112.5 4t-122 14t-118.5 28t-101 46t-70.5 67.5t-26.5 93.5q0 60 36 102t92 69.5t123.5 42.5t131 22.5t114 9t72.5 1.5q84 0 173 -6.5t177.5 -21.5t174 -38.5t162 -57.5
t141 -79t112.5 -102q87 29 170 59t166 59q-44 70 -66.5 154t-22.5 186v379q0 28 -5.5 55t-20.5 48t-41.5 34t-68.5 13t-77 -15.5t-60.5 -45.5t-39.5 -74t-14 -100v-188q0 -18 9.5 -29t25.5 -11h25v-20h-175v20h25q16 0 25.5 9.5t9.5 25.5v590q0 16 -9.5 25.5t-25.5 9.5h-25
v20h115v-344zM213 -511q-46 54 -109.5 97t-139.5 75.5t-161.5 55t-175 37t-180.5 21t-179 6.5q-13 0 -56.5 -1.5t-101 -8t-121.5 -20.5t-117 -39.5t-88 -64t-35 -93.5q0 -50 26.5 -86.5t70.5 -62.5t101 -42.5t117.5 -25.5t120 -12.5t108.5 -3.5q131 0 252.5 13.5t235.5 36
t221 53t211 65.5zM630 -385q50 -80 126.5 -137.5t177.5 -94t225.5 -54t271.5 -17.5q55 0 116 4t120.5 14.5t113.5 28.5t95.5 45.5t66 66.5t24.5 92q0 54 -26.5 91t-70 61t-98.5 37.5t-111.5 20t-109.5 7.5t-92 1q-112 0 -218 -13t-208.5 -35.5t-202.5 -53t-200 -64.5z" />
    <glyph glyph-name="i.ss01" horiz-adv-x="246" 
d="M124 708q26 0 33 -11.5t7 -40.5t-7 -40t-33 -11q-25 0 -32 11t-7 40t7 40.5t32 11.5zM101 445q0 16 -9.5 25.5t-25.5 9.5h-25v20h115v-527q0 -103 21 -188t61 -154q101 35 202 66t204.5 54t211 36.5t221.5 13.5q44 0 100.5 -1.5t115.5 -8.5t115.5 -21.5t101 -41.5
t71.5 -67.5t27 -98.5t-25.5 -101t-69.5 -73t-102.5 -49.5t-124 -30.5t-134.5 -15t-134 -4q-144 0 -269 19t-229 57t-184.5 96.5t-134.5 136.5q-83 -29 -166 -58.5t-169 -58.5q45 -58 70.5 -129t25.5 -156q0 -54 -13.5 -97t-36.5 -74.5t-53 -51t-63 -25.5q-2 0 -7 -0.5
t-10.5 0t-10.5 4t-6 10.5q-4 17 5.5 23.5t20.5 9.5q34 9 61 29t45.5 48.5t28 64.5t9.5 75q0 78 -23 143t-65 119q-106 -35 -216.5 -66.5t-228 -55t-242.5 -37.5t-261 -14q-52 0 -112.5 4t-122 14t-118.5 28t-101 46t-70.5 67.5t-26.5 93.5q0 45 21 80t56 61t80.5 43.5
t94.5 29.5t98.5 18.5t92.5 10t76.5 4t49.5 0.5q84 0 173 -6.5t177.5 -21.5t174 -38.5t162 -57.5t141 -79t112.5 -102q87 29 170 59t167 59q-45 70 -67.5 154t-22.5 185v492zM-169 -511q-46 54 -109.5 97t-139.5 75.5t-161 55t-174.5 37t-181 21t-178.5 6.5q-13 0 -57 -1.5
t-101.5 -8t-121.5 -20.5t-117 -39.5t-88 -64t-35 -93.5q0 -50 26.5 -86.5t71 -62.5t101 -42.5t117 -25.5t120 -12.5t108.5 -3.5q131 0 252.5 13.5t235.5 36t221.5 53t210.5 65.5zM248 -385q50 -80 126.5 -137.5t177.5 -94t225.5 -54t271.5 -17.5q55 0 116 4t120.5 14.5
t113.5 28.5t95.5 45.5t66 66.5t24.5 92q0 54 -26.5 91t-70 61t-98.5 37.5t-111.5 20t-109.5 7.5t-92 1q-112 0 -218 -13t-208.5 -35.5t-202.5 -53t-200 -64.5z" />
    <glyph glyph-name="j.ss01" horiz-adv-x="240" 
d="M124 708q26 0 33 -11.5t7 -40.5t-7 -40t-33 -11q-25 0 -32 11t-7 40t7 40.5t32 11.5zM156 -47q0 -101 -22.5 -185t-67.5 -154q84 -29 167 -59t169 -59q48 57 113 102t141.5 79t161.5 57.5t173.5 38.5t178 21.5t173.5 6.5q16 0 49.5 -0.5t76.5 -4t92.5 -10t98.5 -18.5
t94.5 -29.5t80.5 -43.5t56 -61t21 -80q0 -54 -26.5 -93.5t-70.5 -67.5t-101.5 -46t-119 -28t-122.5 -14t-112 -4q-136 0 -261 14t-242 37.5t-227.5 55t-216.5 66.5q-42 -54 -65 -119t-23 -143q0 -39 9.5 -75t28 -64.5t45 -48.5t61.5 -29q10 -3 20 -9.5t6 -23.5
q-2 -7 -6.5 -10.5t-10 -4t-10.5 0t-7 0.5q-33 6 -63 25.5t-53 51t-36.5 74.5t-13.5 97q0 85 25 156t70 129q-86 29 -168.5 58.5t-165.5 58.5q-54 -78 -134.5 -136.5t-184.5 -96.5t-229 -57t-269 -19q-65 0 -134 4t-134.5 15t-124 30.5t-102.5 49.5t-69.5 73t-25.5 101
q0 59 27 99t71.5 67t100.5 41.5t115 21.5t115.5 8.5t100.5 1.5q114 0 221.5 -13.5t211.5 -36.5t204.5 -54t201.5 -66q40 69 61.5 154t21.5 188v472q0 16 -9.5 25.5t-25.5 9.5h-25v20h115v-547zM425 -511q103 -35 211 -65.5t222 -53t235 -36t252 -13.5q49 0 108.5 3.5
t120 12.5t117.5 25.5t101.5 42.5t71 62.5t26.5 86.5q0 56 -35 94t-88.5 63.5t-117 39.5t-121.5 20.5t-101.5 8t-56.5 1.5q-131 0 -269 -15t-265 -49.5t-234 -90t-177 -137.5zM9 -385q-100 34 -200 64.5t-202.5 53t-209 35.5t-218.5 13q-39 0 -92 -1t-109.5 -7.5t-111.5 -20
t-98.5 -37.5t-70 -61t-26.5 -91q0 -53 24.5 -92t66 -66.5t96 -45.5t114 -28.5t120 -14.5t115.5 -4q294 0 497.5 71.5t304.5 231.5z" />
    <glyph glyph-name="k.ss01" horiz-adv-x="604" 
d="M66 20q16 0 25.5 9.5t9.5 25.5v590q0 16 -9.5 25.5t-25.5 9.5h-25v20h115v-455l242 186q29 23 30.5 36t-20.5 13h-19v20h166v-20h-24q-26 0 -54 -18.5t-56 -40.5l-101 -78l221 -370q54 -92 114 -181t135 -165q102 36 204 67.5t207 55t214 37.5t225 14q44 0 100.5 -1.5
t115.5 -8.5t115 -21.5t100.5 -41.5t71.5 -67.5t27 -98.5t-25.5 -101t-69.5 -73t-102.5 -49.5t-124 -30.5t-134.5 -15t-134 -4q-132 0 -249 22.5t-219 63.5t-190 97.5t-161 124.5q-65 -22 -129 -45t-130 -46q58 -62 90.5 -138.5t32.5 -171.5q0 -54 -13.5 -97t-36.5 -74.5
t-53 -51t-63 -25.5q-2 0 -7 -0.5t-10 0t-10 4t-6 10.5q-4 17 5.5 23.5t19.5 9.5q34 9 61 29t46 48.5t28.5 64.5t9.5 75q0 88 -31 158.5t-86 127.5q-114 -39 -232 -74.5t-244 -63t-261.5 -43.5t-282.5 -16q-51 0 -112 4t-122.5 14t-119 28t-101.5 46t-70.5 67.5t-26.5 93.5
q0 45 22 80t59.5 61t85.5 43.5t100.5 29.5t105 18.5t98.5 10t81.5 4t52.5 0.5q86 0 177 -6t182 -20t178.5 -35.5t167.5 -52.5t149 -72.5t122 -93.5q66 23 129.5 45.5t128.5 45.5q-81 77 -144 164.5t-115 176.5l-212 356l-119 -92v-157q0 -18 9.5 -29t25.5 -11h25v-20h-175
v20h25zM465 -487q-78 75 -190.5 126t-244 82.5t-272.5 45.5t-275 14q-14 0 -60.5 -1.5t-108 -8t-129.5 -20.5t-125 -39.5t-94 -64t-37 -93.5q0 -50 26.5 -86.5t71 -62.5t101.5 -42.5t117.5 -25.5t120 -12.5t108.5 -3.5q142 0 273 15.5t253.5 42t238 61.5t226.5 73zM805 -387
q70 -68 154.5 -123.5t184.5 -95t216.5 -61t251.5 -21.5q54 0 115 4t120.5 14.5t114 28.5t96 45.5t66 66.5t24.5 92q0 54 -26.5 91t-70 61t-98.5 37.5t-111.5 20t-109.5 7.5t-92 1q-113 0 -220 -13.5t-210 -36t-204 -53.5t-201 -65z" />
    <glyph glyph-name="l.ss01" horiz-adv-x="257" 
d="M101 645q0 16 -9.5 25.5t-25.5 9.5h-25v20h115v-624q0 -141 29.5 -251t85.5 -195q101 35 202 66t205.5 54.5t212.5 37t222 13.5q44 0 100.5 -1.5t115.5 -8.5t115 -21.5t100.5 -41.5t71.5 -67.5t27 -98.5t-25.5 -101t-69.5 -73t-102.5 -49.5t-124 -30.5t-134.5 -15
t-134 -4q-136 0 -258 18t-226 56t-188.5 96t-144.5 139q-83 -29 -165.5 -58.5t-168.5 -58.5q45 -58 70 -128.5t25 -156.5q0 -54 -13.5 -97t-36.5 -74.5t-53 -51t-63 -25.5q-2 0 -7 -0.5t-10.5 0t-10 4t-5.5 10.5q-4 17 5.5 23.5t19.5 9.5q34 9 61 29t46 48.5t28.5 64.5
t9.5 75q0 78 -23.5 143t-65.5 119q-106 -35 -216 -66.5t-227.5 -55t-242.5 -37.5t-261 -14q-51 0 -112 4t-122.5 14t-119 28t-101.5 46t-70.5 67.5t-26.5 93.5q0 45 21 80t56 61t80.5 43.5t94.5 29.5t98.5 18.5t92.5 10t76.5 4t49.5 0.5q84 0 173.5 -6.5t178 -21.5
t173.5 -38.5t161.5 -57.5t141.5 -79t113 -102q86 29 169 59t166 59q-60 86 -92 195.5t-32 247.5v588zM-133 -511q-70 82 -177 137.5t-234 90t-265 49.5t-269 15q-13 0 -56.5 -1.5t-101.5 -8t-121.5 -20.5t-117 -39.5t-88.5 -64t-35 -93.5q0 -50 26.5 -86.5t71 -62.5
t101.5 -42.5t117.5 -25.5t120 -12.5t108.5 -3.5q131 0 252 13.5t235 36t221.5 53t211.5 65.5zM282 -386q57 -81 137.5 -138.5t182 -94t223 -53t260.5 -16.5q54 0 115 4t120.5 14.5t114 28.5t96 45.5t66 66.5t24.5 92q0 54 -26.5 91t-70 61t-98.5 37.5t-111.5 20t-109.5 7.5
t-92 1q-113 0 -219.5 -13.5t-209 -36t-202.5 -53t-200 -64.5z" />
    <glyph glyph-name="m.ss01" horiz-adv-x="1020" 
d="M66 20q16 0 25.5 9.5t9.5 25.5v390q0 16 -9.5 25.5t-25.5 9.5h-25v20h115v-137q6 23 19.5 48.5t37.5 47t59 35.5t84 14q87 0 129.5 -35t50.5 -113q5 23 19 49t38 48t60 36.5t85 14.5q98 0 140 -45t42 -146v-240q1 -141 30 -251.5t85 -195.5q101 35 202 66t205.5 54.5
t212.5 37t222 13.5q44 0 100.5 -1.5t115.5 -8.5t115 -21.5t100.5 -41.5t71.5 -67.5t27 -98.5t-25.5 -101t-69.5 -73t-102.5 -49.5t-124 -30.5t-134.5 -15t-134 -4q-136 0 -258 18t-226 56t-188.5 96t-144.5 139q-83 -29 -166 -58.5t-168 -58.5q45 -58 70 -128.5t25 -156.5
q0 -54 -13.5 -97t-36.5 -74.5t-53 -51t-63 -25.5q-2 0 -7 -0.5t-10.5 0t-10.5 4t-6 10.5q-4 17 6 23.5t20 9.5q34 9 61 29t45.5 48.5t28 64.5t9.5 75q0 78 -23 143t-65 119q-106 -35 -216.5 -66.5t-228 -55t-242.5 -37.5t-261 -14q-52 0 -112.5 4t-122 14t-118.5 28t-101 46
t-70.5 67.5t-26.5 93.5q0 45 21 80t56 61t80.5 43.5t94.5 29.5t98.5 18.5t92.5 10t76.5 4t49.5 0.5q84 0 173.5 -6.5t178 -21.5t173.5 -38.5t161.5 -57.5t141.5 -79t113 -102q85 29 168 59t166 59q-60 86 -91.5 195.5t-31.5 249.5v274q0 28 -6 55t-21 48t-41.5 34t-68.5 13
t-76.5 -15.5t-60 -45.5t-39.5 -74t-14 -100v-188q0 -18 9.5 -29t24.5 -11h26v-20h-175v20h25q16 0 25.5 9.5t9.5 25.5v278q0 28 -5.5 55t-20.5 48t-41.5 34t-68.5 13t-77 -15.5t-60.5 -45.5t-39.5 -74t-14 -100v-188q0 -18 9.5 -29t25.5 -11h25v-20h-175v20h25zM631 -511
q-70 82 -177 137.5t-234 90t-265 49.5t-269 15q-13 0 -57 -1.5t-101.5 -8t-121.5 -20.5t-117 -39.5t-88 -64t-35 -93.5q0 -50 26.5 -86.5t71 -62.5t101.5 -42.5t117.5 -25.5t120 -12.5t108.5 -3.5q131 0 252 13.5t235 36t221.5 53t211.5 65.5zM1046 -386
q57 -81 137.5 -138.5t182 -94t223 -53t259.5 -16.5q55 0 116 4t120.5 14.5t114 28.5t96 45.5t66 66.5t24.5 92q0 54 -26.5 91t-70 61t-98.5 37.5t-111.5 20t-109.5 7.5t-92 1q-113 0 -219.5 -13.5t-209 -36t-202.5 -53t-200 -64.5z" />
    <glyph glyph-name="n.ss01" 
d="M66 20q16 0 25.5 9.5t9.5 25.5v390q0 16 -9.5 25.5t-25.5 9.5h-25v20h115v-137q6 23 19.5 48.5t37.5 47t59 35.5t84 14q98 0 140 -45t42 -146v-240q0 -141 29.5 -251.5t85.5 -195.5q101 35 202 66t205.5 54.5t212.5 37t222 13.5q44 0 100.5 -1.5t115.5 -8.5t115 -21.5
t100.5 -41.5t71.5 -67.5t27 -98.5t-25.5 -101t-69.5 -73t-102.5 -49.5t-124 -30.5t-134.5 -15t-134 -4q-136 0 -258 18t-226 56t-188.5 96t-144.5 139q-83 -29 -166 -58.5t-168 -58.5q45 -58 70 -128.5t25 -156.5q0 -54 -13.5 -97t-36.5 -74.5t-53 -51t-63 -25.5
q-2 0 -7 -0.5t-10.5 0t-10.5 4t-6 10.5q-4 17 6 23.5t20 9.5q34 9 61 29t45.5 48.5t28 64.5t9.5 75q0 78 -23 143t-65 119q-106 -35 -216 -66.5t-227.5 -55t-242.5 -37.5t-261 -14q-52 0 -112.5 4t-122 14t-119 28t-101.5 46t-70.5 67.5t-26.5 93.5q0 45 21 80t56 61
t80.5 43.5t94.5 29.5t98.5 18.5t92.5 10t76.5 4t49.5 0.5q84 0 173.5 -6.5t178 -21.5t173.5 -38.5t161.5 -57.5t141.5 -79t113 -102q86 29 168.5 59t166.5 59q-60 86 -92 195.5t-32 247.5v276q0 28 -5.5 55t-20.5 48t-41.5 34t-68.5 13t-77 -15.5t-60.5 -45.5t-39.5 -74
t-14 -100v-188q0 -18 9.5 -29t25.5 -11h25v-20h-175v20h25zM249 -511q-70 82 -177 137.5t-234 90t-265 49.5t-269 15q-13 0 -56.5 -1.5t-101.5 -8t-121.5 -20.5t-117 -39.5t-88.5 -64t-35 -93.5q0 -50 26.5 -86.5t71 -62.5t101.5 -42.5t117.5 -25.5t120 -12.5t108.5 -3.5
q131 0 252 13.5t235 36t221.5 53t211.5 65.5zM664 -386q57 -81 137.5 -138.5t182 -94t223 -53t260.5 -16.5q55 0 115.5 4t120 14.5t114 28.5t96 45.5t66 66.5t24.5 92q0 54 -26.5 91t-70 61t-98.5 37.5t-111.5 20t-109.5 7.5t-92 1q-113 0 -219.5 -13.5t-209 -36t-202.5 -53
t-200 -64.5z" />
    <glyph glyph-name="p.ss01" horiz-adv-x="660" 
d="M156 -47q0 -101 -22.5 -185t-67.5 -154q84 -29 167 -59t169 -59q48 57 113 102t141.5 79t161.5 57.5t173.5 38.5t178 21.5t173.5 6.5q16 0 49.5 -0.5t76.5 -4t92.5 -10t98.5 -18.5t94.5 -29.5t80.5 -43.5t56 -61t21 -80q0 -54 -26.5 -93.5t-70.5 -67.5t-101.5 -46
t-118.5 -28t-122 -14t-112 -4q-136 0 -261.5 14t-242.5 37.5t-227.5 55t-216.5 66.5q-42 -54 -65 -119t-23 -143q0 -39 9.5 -75t28 -64.5t45 -48.5t61.5 -29q10 -3 20 -9.5t6 -23.5q-2 -7 -6.5 -10.5t-10 -4t-10.5 0t-7 0.5q-33 6 -63 25.5t-53 51t-36.5 74.5t-13.5 97
q0 86 25 156.5t70 128.5q-86 29 -168.5 58.5t-165.5 58.5q-54 -78 -134.5 -136.5t-184.5 -96.5t-229 -57t-269 -19q-65 0 -134 4t-134.5 15t-124 30.5t-102.5 49.5t-69.5 73t-25.5 101q0 59 27 99t71.5 67t100.5 41.5t115 21.5t115.5 8.5t100.5 1.5q114 0 221.5 -13.5
t211.5 -36.5t204.5 -54t201.5 -66q40 69 61.5 154t21.5 188v472q0 16 -9.5 25.5t-25.5 9.5h-25v20h115v-108q26 59 80 87.5t130 28.5q118 0 186 -67t68 -195q0 -61 -16.5 -108t-46.5 -79.5t-72.5 -49.5t-93.5 -17q-88 0 -147.5 36t-87.5 114v-189zM372 18q48 0 84 18t59 49
t34.5 72.5t11.5 87.5q0 51 -12 95.5t-37.5 76.5t-65.5 50.5t-96 18.5q-48 0 -83.5 -15t-59.5 -41t-37 -62t-14 -79v-1q0 -58 11.5 -107.5t37 -85.5t67 -56.5t100.5 -20.5zM425 -511q103 -35 211 -65.5t222 -53t235 -36t252 -13.5q49 0 108.5 3.5t120 12.5t117.5 25.5
t101.5 42.5t71 62.5t26.5 86.5q0 56 -35 94t-88.5 63.5t-117 39.5t-121.5 20.5t-101.5 8t-56.5 1.5q-131 0 -269 -15t-265 -49.5t-234 -90t-177 -137.5zM9 -385q-100 34 -200 64.5t-202.5 53t-209 35.5t-218.5 13q-39 0 -92 -1t-109.5 -7.5t-111.5 -20t-98.5 -37.5t-70 -61
t-26.5 -91q0 -53 24.5 -92t66 -66.5t96 -45.5t114 -28.5t120.5 -14.5t116 -4q147 0 271.5 17.5t225.5 54t177.5 94t126.5 137.5z" />
    <glyph glyph-name="q.ss01" horiz-adv-x="661" 
d="M505 500h115v-20h-25q-16 0 -25.5 -9.5t-9.5 -25.5v-472q0 -103 21 -188t61 -154q101 35 202 66t205 54t211.5 36.5t221.5 13.5q44 0 100.5 -1.5t115.5 -8.5t115 -21.5t100.5 -41.5t71.5 -67.5t27 -98.5t-25.5 -101t-69.5 -73t-102.5 -49.5t-124 -30.5t-134.5 -15
t-134 -4q-144 0 -269 19t-229 57t-184.5 96.5t-134.5 136.5q-83 -29 -166 -58.5t-168 -58.5q45 -58 70 -128.5t25 -156.5q0 -54 -13.5 -97t-36.5 -74.5t-53 -51t-63 -25.5q-2 0 -7 -0.5t-10.5 0t-10.5 4t-6 10.5q-4 17 6 23.5t20 9.5q34 9 61 29t45.5 48.5t28 64.5t9.5 75
q0 78 -23 143t-65 119q-106 -35 -216.5 -66.5t-228 -55t-242.5 -37.5t-261 -14q-51 0 -112 4t-122.5 14t-118.5 28t-101 46t-70.5 67.5t-26.5 93.5q0 45 21 80t56 61t80.5 43.5t94.5 29.5t98.5 18.5t92.5 10t76.5 4t49.5 0.5q84 0 173.5 -6.5t178 -21.5t173.5 -38.5
t161.5 -57.5t141 -79t112.5 -102q87 29 170 59t167 59q-45 70 -67.5 154t-22.5 185v190q-28 -78 -88 -114.5t-148 -36.5q-51 0 -93 17t-72 49.5t-46.5 79.5t-16.5 108q0 128 68 195t186 67q76 0 130 -28.5t80 -87.5v108zM289 18q59 0 100.5 20.5t67 56.5t37 85.5t11.5 107.5
q-2 43 -14.5 79t-36.5 62.5t-59.5 41.5t-83.5 15q-56 0 -96 -18.5t-66 -50.5t-38 -76.5t-12 -95.5q0 -46 11.5 -87.5t35 -72.5t59.5 -49t84 -18zM236 -511q-70 82 -177 137.5t-234 90t-265 49.5t-269 15q-13 0 -57 -1.5t-101.5 -8t-121.5 -20.5t-117 -39.5t-88 -64
t-35 -93.5q0 -50 26.5 -86.5t71 -62.5t101.5 -42.5t117.5 -25.5t120 -12.5t108.5 -3.5q131 0 252 13.5t235 36t221.5 53t211.5 65.5zM652 -385q50 -80 126.5 -137.5t177.5 -94t225.5 -54t271.5 -17.5q55 0 116 4t120.5 14.5t114 28.5t96 45.5t66 66.5t24.5 92q0 54 -26.5 91
t-70 61t-98.5 37.5t-111.5 20t-109.5 7.5t-92 1q-113 0 -219 -13t-208.5 -35.5t-202.5 -53t-200 -64.5z" />
    <glyph glyph-name="r.ss01" horiz-adv-x="478" 
d="M411 422q-5 20 -14.5 29.5t-32.5 9.5q-43 0 -80.5 -15.5t-66 -43.5t-45 -67.5t-16.5 -86.5v-295q0 -101 -22.5 -185t-67.5 -154q84 -29 167 -59t169 -59q48 57 113 102t141.5 79t161.5 57.5t173.5 38.5t178 21.5t173.5 6.5q16 0 49.5 -0.5t76.5 -4t92.5 -10t98.5 -18.5
t94.5 -29.5t80.5 -43.5t56 -61t21 -80q0 -54 -26.5 -93.5t-70.5 -67.5t-101.5 -46t-119 -28t-122.5 -14t-112 -4q-136 0 -261 14t-242 37.5t-227.5 55t-216.5 66.5q-42 -54 -65 -119t-23 -143q0 -39 9.5 -75t28 -64.5t45 -48.5t61.5 -29q10 -3 20 -9.5t6 -23.5
q-2 -7 -6.5 -10.5t-10 -4t-10.5 0t-7 0.5q-33 6 -63 25.5t-53 51t-36.5 74.5t-13.5 97q0 86 25 156.5t70 128.5q-86 29 -168.5 58.5t-165.5 58.5q-54 -78 -134.5 -136.5t-184.5 -96.5t-229 -57t-269 -19q-65 0 -134 4t-134.5 15t-124 30.5t-102.5 49.5t-69.5 73t-25.5 101
q0 59 27 99t71.5 67t100.5 41.5t115 21.5t115.5 8.5t100.5 1.5q114 0 221.5 -13.5t211.5 -36.5t204.5 -54t201.5 -66q40 69 61.5 154t21.5 188v472q0 16 -9.5 25.5t-25.5 9.5h-25v20h115v-158q4 20 21 48.5t44.5 54.5t64.5 44.5t83 18.5q20 0 30 -2t19 -6l20 -113h-19z
M425 -511q103 -35 211 -65.5t222 -53t235 -36t252 -13.5q49 0 108.5 3.5t120 12.5t117.5 25.5t101.5 42.5t71 62.5t26.5 86.5q0 56 -35 94t-88.5 63.5t-117 39.5t-121.5 20.5t-101.5 8t-56.5 1.5q-131 0 -269 -15t-265 -49.5t-234 -90t-177 -137.5zM9 -385
q-100 34 -200 64.5t-202.5 53t-209 35.5t-218.5 13q-39 0 -92 -1t-109.5 -7.5t-111.5 -20t-98.5 -37.5t-70 -61t-26.5 -91q0 -53 24.5 -92t66 -66.5t96 -45.5t114 -28.5t120 -14.5t115.5 -4q294 0 497.5 71.5t304.5 231.5z" />
    <glyph glyph-name="s.ss01" horiz-adv-x="608" 
d="M292 487q-35 0 -66 -5.5t-55 -17t-38 -29.5t-14 -43q0 -35 31.5 -52.5t79.5 -28t103 -19t103 -25t79.5 -46t31.5 -82.5q0 -34 -14 -59t-38 -42q41 -39 83 -85.5t85.5 -96t90.5 -100.5t98 -101q92 30 184.5 57t188 46.5t194 31t202.5 11.5q44 0 100.5 -1.5t115.5 -8.5
t115 -21.5t100.5 -41.5t71.5 -67.5t27 -98.5t-25 -101t-66.5 -73t-94.5 -49.5t-108.5 -30.5t-108.5 -15t-95 -4q-142 0 -260 27.5t-217.5 74.5t-182.5 109t-154 131q-88 -30 -175.5 -61.5t-178.5 -62.5q58 -62 90.5 -139t32.5 -172q0 -54 -13.5 -97t-36.5 -74.5t-53 -51
t-63 -25.5q-2 0 -7 -0.5t-10 0t-10 4t-6 10.5q-4 17 5.5 23.5t19.5 9.5q34 9 61 29t46 48.5t28.5 64.5t9.5 75q0 88 -31 159t-86 128q-114 -39 -232.5 -75t-244.5 -63t-261.5 -43.5t-283.5 -16.5q-51 0 -112 4t-122.5 14t-119 28t-101.5 46t-70.5 67.5t-26.5 93.5
q0 60 38.5 102t98 69.5t131.5 42.5t139.5 22.5t121.5 9t77 1.5q86 0 177 -6t182 -20t179 -35.5t168 -52.5t149 -72.5t122 -93.5q90 32 177.5 63.5t175.5 60.5q-51 50 -97 101.5t-88.5 101t-83 95t-79.5 83.5q-33 -17 -76 -25.5t-90 -8.5q-132 0 -189.5 30t-57.5 79
q0 24 11 40.5t29 27t42 15t51 4.5q77 0 143 -34.5t130 -91.5q26 26 26 68q0 31 -18.5 50.5t-48.5 32t-68.5 20t-79 14.5t-79 15.5t-68.5 23t-48.5 36.5t-18.5 56q0 35 19 60t51 40.5t75 22.5t90 7q38 0 69 -4t58 -12q15 -5 27.5 -8.5t20.5 -2.5t11 7.5t0 22.5h27l24 -117
h-21q-8 18 -28 35t-49.5 30t-67 20.5t-80.5 7.5zM204 165q-39 0 -67 -14t-28 -46q0 -43 52 -67.5t149 -24.5q94 0 143 34q-59 54 -119.5 86t-129.5 32zM448 -487q-78 75 -191 126t-244.5 82.5t-272.5 45.5t-276 14q-14 0 -60 -1.5t-107.5 -8t-129.5 -20.5t-125 -39.5
t-94 -64t-37 -93.5q0 -50 26.5 -86.5t70.5 -62.5t101 -42.5t117.5 -25.5t120 -12.5t108.5 -3.5q142 0 273.5 15.5t254 42t238.5 61.5t227 73zM867 -360q70 -66 150.5 -125.5t176 -104.5t207.5 -71.5t246 -26.5q41 0 93 4t105.5 14.5t104.5 28.5t91 45.5t64 66.5t24 92
q0 54 -26.5 91t-70 61t-98.5 37.5t-111.5 20t-109.5 7.5t-92 1q-102 0 -198.5 -11t-190 -30t-184.5 -44.5t-181 -55.5z" />
    <glyph glyph-name="t.ss01" horiz-adv-x="364" 
d="M95 480h-104v20h104l34 138h20v-138h175v-20h-175v-365q0 -146 30.5 -263t87.5 -209q96 33 193 61.5t196.5 50t202.5 34t212 12.5q44 0 100.5 -1.5t115.5 -8.5t115 -21.5t100.5 -41.5t71.5 -67.5t27 -98.5t-25.5 -101t-69.5 -73t-102.5 -49.5t-124 -30.5t-134.5 -15
t-134 -4q-264 0 -463.5 81t-314.5 242q-93 -32 -185 -65.5t-188 -65.5q45 -58 70 -128.5t25 -156.5q0 -54 -13.5 -97t-36.5 -74.5t-53 -51t-63 -25.5q-2 0 -7 -0.5t-10.5 0t-10.5 4t-6 10.5q-4 17 6 23.5t20 9.5q34 9 61 29t45.5 48.5t28 64.5t9.5 75q0 78 -23 143t-65 119
q-106 -35 -216 -66.5t-227.5 -55t-242.5 -37.5t-261 -14q-51 0 -112 4t-122.5 14t-119 28t-101.5 46t-70.5 67.5t-26.5 93.5q0 45 21 80t56 61t80.5 43.5t94.5 29.5t98.5 18.5t92.5 10t76.5 4t49.5 0.5q84 0 173.5 -6.5t178 -21.5t173.5 -38.5t161.5 -57.5t141.5 -79
t113 -102q96 32 188 65.5t186 65.5q-63 93 -95.5 209.5t-32.5 260.5zM-175 -511q-70 82 -177 137.5t-234 90t-265 49.5t-269 15q-13 0 -56.5 -1.5t-101.5 -8t-121.5 -20.5t-117 -39.5t-88.5 -64t-35 -93.5q0 -50 26.5 -86.5t71 -62.5t101.5 -42.5t117.5 -25.5t120 -12.5
t108.5 -3.5q131 0 252 13.5t235 36t221.5 53t211.5 65.5zM278 -373q109 -162 301.5 -238.5t463.5 -76.5q54 0 115 4t120.5 14.5t114 28.5t96 45.5t66 66.5t24.5 92q0 54 -26.5 91t-70 61t-98.5 37.5t-111.5 20t-109.5 7.5t-92 1q-107 0 -209 -12t-200 -33t-193.5 -49
t-190.5 -60z" />
    <glyph glyph-name="u.ss01" 
d="M482 143q-5 -23 -18.5 -49.5t-37 -49t-59 -37.5t-85.5 -15q-97 0 -139 45t-42 145v258q0 18 -9.5 29t-25.5 11h-25v20h115v-333q0 -28 5.5 -55t20.5 -48t41.5 -34t68.5 -13t77 15.5t60.5 45.5t39.5 74t14 100v188q0 18 -9.5 29t-25.5 11h-25v20h115v-527
q0 -101 22.5 -185.5t65.5 -154.5q100 34 200 65t203 53.5t210 36t220 13.5q44 0 100.5 -1.5t115.5 -8.5t115 -21.5t100.5 -41.5t71.5 -67.5t27 -98.5t-25.5 -101t-69.5 -73t-102.5 -49.5t-124 -30.5t-134.5 -15t-134 -4q-141 0 -264.5 20t-226.5 59.5t-183 98t-135 134.5
q-85 -29 -169.5 -60t-172.5 -60q45 -58 70 -128.5t25 -156.5q0 -54 -13.5 -97t-36.5 -74.5t-53 -51t-62 -25.5q-2 0 -7 -0.5t-10.5 0t-10.5 4t-6 10.5q-4 17 5.5 23.5t19.5 9.5q34 9 61 29t46 48.5t28.5 64.5t9.5 75q0 78 -23.5 143t-65.5 119q-106 -35 -216 -66.5
t-227.5 -55t-242.5 -37.5t-261 -14q-52 0 -112.5 4t-122 14t-118.5 28t-101 46t-70.5 67.5t-26.5 93.5q0 60 36 102t92 69.5t123.5 42.5t131 22.5t114 9t72.5 1.5q84 0 173 -6.5t177.5 -21.5t174 -38.5t162 -57.5t141 -79t112.5 -102q88 30 173 60.5t170 60.5
q-48 70 -72 154t-24 182v191zM213 -511q-46 54 -109.5 97t-139.5 75.5t-161.5 55t-175 37t-180.5 21t-179 6.5q-13 0 -56.5 -1.5t-101 -8t-121.5 -20.5t-117 -39.5t-88 -64t-35 -93.5q0 -50 26.5 -86.5t70.5 -62.5t101 -42.5t117.5 -25.5t120 -12.5t108.5 -3.5
q131 0 252.5 13.5t235.5 36t221 53t211 65.5zM637 -383q103 -155 303 -230t491 -75q55 0 116 4t120.5 14.5t113.5 28.5t95.5 45.5t66 66.5t24.5 92q0 54 -26.5 91t-70 61t-98.5 37.5t-111.5 20t-109.5 7.5t-92 1q-111 0 -216.5 -13t-207 -35.5t-200.5 -52t-198 -63.5z" />
    <glyph glyph-name="x.ss01" horiz-adv-x="625" 
d="M46 480v20h199v-20h-26q-21 0 -22 -9t10 -26l117 -168l94 131q26 37 28.5 54.5t-13.5 17.5h-38v20h176v-20h-31q-26 0 -48 -17.5t-48 -54.5l-107 -149l200 -286q61 -88 132.5 -179t147.5 -167q102 36 204 67.5t207 55t214 37.5t224 14q44 0 100.5 -1.5t115.5 -8.5
t115 -21.5t100.5 -41.5t71.5 -67.5t27 -98.5t-25.5 -101t-69.5 -73t-102.5 -49.5t-124 -30.5t-134.5 -15t-134 -4q-132 0 -249 22.5t-219 63.5t-189.5 97.5t-161.5 124.5q-64 -22 -128.5 -45t-130.5 -46q58 -62 90.5 -138.5t32.5 -171.5q0 -54 -13.5 -97t-36.5 -74.5
t-53 -51t-63 -25.5q-2 0 -7 -0.5t-10 0t-10 4t-6 10.5q-4 17 5.5 23.5t19.5 9.5q34 9 61 29t46 48.5t28.5 64.5t9.5 75q0 88 -30.5 158.5t-85.5 127.5q-114 -39 -232.5 -74.5t-244.5 -63t-261 -43.5t-283 -16q-51 0 -112 4t-122.5 14t-119 28t-101.5 46t-70.5 67.5
t-26.5 93.5q0 45 22 80t59.5 61t85.5 43.5t100.5 29.5t105 18.5t98.5 10t81.5 4t52.5 0.5q129 0 268 -14t270 -47t244.5 -86.5t193.5 -132.5q66 23 130 45.5t128 45.5q-81 77 -155.5 166.5t-133.5 174.5l-189 269l-93 -130q-27 -37 -29 -54.5t14 -17.5h24v-20h-165l1 20h35
q23 0 45 17.5t49 54.5l106 149l-143 204q-11 17 -25.5 26t-37.5 9h-29zM491 -487q-78 75 -190.5 126t-243.5 82.5t-272 45.5t-276 14q-14 0 -60.5 -1.5t-108 -8t-129 -20.5t-124.5 -39.5t-94 -64t-37 -93.5q0 -50 26.5 -86.5t70.5 -62.5t101 -42.5t117.5 -25.5t120 -12.5
t108.5 -3.5q142 0 273.5 15.5t253.5 42t237.5 61.5t226.5 73zM831 -387q71 -68 155.5 -123.5t184 -95t216 -61t251.5 -21.5q55 0 116 4t120.5 14.5t113.5 28.5t95.5 45.5t66 66.5t24.5 92q0 54 -26.5 91t-70 61t-98.5 37.5t-111.5 20t-109.5 7.5t-92 1q-113 0 -220 -13.5
t-210 -36t-204 -53.5t-201 -65z" />
    <glyph glyph-name="y.ss01" horiz-adv-x="560" 
d="M300 20q-60 -121 -132.5 -222.5t-159.5 -184.5q66 -23 131 -46t131 -46q53 52 122 93.5t149 72.5t168 52.5t179 35.5t182 20t177 6q23 0 76.5 -1.5t121 -9t139 -22.5t131 -42.5t98 -69.5t38.5 -102q0 -54 -26.5 -93.5t-70.5 -67.5t-101 -46t-118.5 -28t-122.5 -14
t-112 -4q-148 0 -283 16t-261 43.5t-244.5 63t-232.5 74.5q-55 -57 -85.5 -127.5t-30.5 -158.5q0 -39 9.5 -75t28 -64.5t45 -48.5t61.5 -29q11 -3 20.5 -9.5t5.5 -23.5q-2 -7 -6.5 -10.5t-10 -4t-10.5 0t-7 0.5q-33 6 -63 25.5t-53 51t-36.5 74.5t-13.5 97q0 95 33 171.5
t91 138.5q-68 23 -133 46.5t-131 46.5q-163 -152 -366.5 -231t-447.5 -79q-65 0 -134 4t-134.5 15t-124 30.5t-102.5 49.5t-69.5 73t-25.5 101q0 59 27 99t71.5 67t100.5 41.5t115 21.5t115.5 8.5t100.5 1.5q116 0 227 -14.5t218 -39t211 -57t207 -68.5q81 78 151 173
t134 210l-193 440q-7 16 -17.5 25.5t-28.5 9.5h-27v20h185v-20h-26q-21 0 -26.5 -9.5t1.5 -25.5l164 -374l146 337q17 37 13.5 54.5t-19.5 17.5h-37v20h168v-20h-26q-26 0 -42.5 -17.5t-33.5 -54.5l-164 -379q-2 -6 -4 -9zM293 -487q111 -38 226.5 -73t238 -61.5t253.5 -42
t274 -15.5q49 0 108.5 3.5t120 12.5t117.5 25.5t101 42.5t70.5 62.5t26.5 86.5q0 56 -37 94t-94 63.5t-124.5 39.5t-129 20.5t-108 8t-60.5 1.5q-135 0 -276 -14t-272.5 -45.5t-244 -82.5t-190.5 -126zM-33 -392q-102 35 -204.5 66.5t-207.5 55t-213.5 37.5t-222.5 14
q-39 0 -92 -1t-109.5 -7.5t-111.5 -20t-98.5 -37.5t-70 -61t-26.5 -91q0 -53 24.5 -92t66 -66.5t95.5 -45.5t113.5 -28.5t120.5 -14.5t116 -4q259 0 460 74t360 222z" />
    <glyph glyph-name="z.ss01" horiz-adv-x="562" 
d="M190 480q-50 0 -76.5 -31t-38.5 -80h-20l29 162h20q-3 -21 8 -26t32 -5h368v-20l-358 -418q-17 -20 -14 -31t19 -11h20q105 0 201 -27.5t188.5 -78.5t186 -124t194.5 -163q102 36 204 67.5t207 55t214 37.5t224 14q44 0 100.5 -1.5t115.5 -8.5t115 -21.5t100.5 -41.5
t71.5 -67.5t27 -98.5t-25.5 -101t-69.5 -73t-102.5 -49.5t-124 -30.5t-134.5 -15t-134 -4q-132 0 -249 22.5t-219 63.5t-189.5 97.5t-161.5 124.5q-64 -22 -128 -45t-130 -46q57 -62 90 -138.5t33 -171.5q0 -54 -13.5 -97t-36.5 -74.5t-53 -51t-63 -25.5q-2 0 -7 -0.5
t-10.5 0.5t-10.5 4t-6 10q-4 17 5.5 23.5t20.5 9.5q34 9 61 29t45.5 48.5t28 64.5t9.5 75q0 88 -30.5 158.5t-85.5 127.5q-114 -39 -232.5 -74.5t-244.5 -63t-261 -43.5t-283 -16q-52 0 -112.5 4t-122 14t-118.5 28t-101 46t-70.5 67.5t-26.5 93.5q0 60 38.5 102t98 69.5
t131 42.5t139 22.5t121 9t76.5 1.5q86 0 177 -6t182 -20t179 -35.5t168 -52.5t149 -72.5t122 -93.5q65 23 129 45.5t128 45.5q-89 84 -179 155t-182 122.5t-186.5 81t-192.5 29.5h-118v20l363 425q14 16 10.5 25.5t-23.5 9.5h-206zM624 -487q-78 75 -190.5 126t-244 82.5
t-272.5 45.5t-276 14q-14 0 -60.5 -1.5t-108 -8t-129 -20.5t-124.5 -39t-94 -63.5t-37 -93.5q0 -50 26.5 -87t70.5 -63t101 -42t117.5 -25.5t120 -13t108.5 -3.5q142 0 273.5 15.5t254 42t238 61.5t226.5 73zM964 -387q70 -68 154.5 -123.5t184.5 -95t216 -61t251 -21.5
q55 0 116 4t120.5 14.5t113.5 28.5t95.5 45.5t66 66.5t24.5 92q0 54 -26.5 91t-70 61t-98.5 37.5t-111.5 20t-109.5 7.5t-92 1q-113 0 -220 -13.5t-210 -36t-203.5 -53.5t-200.5 -65z" />
    <glyph glyph-name="a.ss02" horiz-adv-x="607" 
d="M67 381q6 23 23.5 45.5t46.5 40.5t70 29.5t94 11.5q116 0 170 -45t54 -146v-240q0 -141 29.5 -251t84.5 -195q101 34 202.5 65t206 54.5t212.5 37t222 13.5q44 0 100.5 -1.5t115.5 -8.5t115 -21.5t100.5 -41.5t71.5 -67.5t27 -98.5t-25.5 -101t-69.5 -73t-102.5 -49.5
t-124 -30.5t-134.5 -15t-134 -4q-136 0 -258 18t-226 56t-188.5 96t-144.5 139q-146 -51 -295.5 -103.5t-309 -95.5t-332.5 -70.5t-368 -27.5q-56 0 -118.5 4.5t-124 16t-117.5 31t-98.5 49t-68 69.5t-25.5 94q0 57 16.5 91t36.5 34q9 0 13 -7.5t4 -18.5t-4.5 -22.5
t-9.5 -25t-9.5 -29.5t-4.5 -36q0 -47 25.5 -82.5t67.5 -61t96.5 -42t113 -26t116.5 -13t107 -3.5q189 0 358 26.5t325 68.5t303 94t291 103q-60 85 -91.5 195t-31.5 247v71q-24 -63 -87 -99.5t-152 -36.5q-90 0 -140.5 38.5t-50.5 115.5q0 48 24 82t62.5 56.5t86 35.5
t95.5 20t90.5 8.5t70.5 1.5q-1 25 -8 49t-25.5 43t-52 30t-87.5 11q-81 0 -135.5 -28.5t-73.5 -73.5h-20zM470 330q-68 0 -134.5 -8.5t-119 -29t-85.5 -56.5t-33 -92q0 -26 9 -49t28 -39.5t49 -26t73 -9.5q42 0 81 13.5t68 37t46.5 56t17.5 70.5v133zM651 -386
q57 -81 137.5 -138.5t182 -94t223 -53t259.5 -16.5q55 0 116 4t120.5 14.5t114 28.5t96 45.5t66 66.5t24.5 92q0 54 -26.5 91t-70 61t-98.5 37.5t-111.5 20t-109.5 7.5t-92 1q-113 0 -219.5 -13.5t-209 -36t-202.5 -53t-200 -64.5z" />
    <glyph glyph-name="c.ss02" horiz-adv-x="585" 
d="M495 394q-11 18 -26.5 35t-37 30t-49.5 21t-64 8q-55 0 -96 -18t-68.5 -49.5t-41 -73.5t-13.5 -90q0 -41 11 -77.5t32 -65.5t50.5 -49.5t66.5 -30.5q3 49 16.5 91t35.5 72.5t53 47.5t69 17q48 0 74.5 -27t26.5 -81q0 -35 -13.5 -65t-40 -51.5t-65.5 -33.5t-91 -12
q-11 0 -21.5 0.5t-21.5 1.5q2 -110 45 -211t128 -186q112 40 224.5 77t228 65t236 45t248.5 17q44 0 100.5 -1.5t115.5 -8.5t115 -21.5t100.5 -41.5t71.5 -67.5t27 -98.5t-25.5 -101t-69.5 -73t-102.5 -49.5t-124 -30.5t-134.5 -15t-134 -4q-155 0 -287.5 20.5t-243.5 58
t-199.5 90t-154.5 116.5q-137 -49 -278.5 -97.5t-293 -87.5t-316 -63.5t-348.5 -24.5q-52 0 -112.5 4t-122 14t-119 28t-101.5 46t-70.5 67.5t-26.5 93.5q0 74 16 105t36 31q9 0 13 -7.5t4 -18.5t-4.5 -22.5t-9.5 -25t-9.5 -29.5t-4.5 -36q0 -50 25.5 -86.5t67.5 -62
t96.5 -41.5t113 -25t116.5 -12t107 -3q177 0 337 24t307.5 62t286.5 86t274 96q-86 88 -129 192.5t-44 216.5q-47 8 -87 28.5t-68.5 52.5t-44.5 75t-16 96q0 62 18.5 110t53 81t83 50t108.5 17q26 0 53.5 -4t52.5 -14q1 0 2 -0.5t2 -0.5q13 -5 24 -8.5t18.5 -2t10 9
t-1.5 23.5h20l31 -117h-20h-1zM326 26q92 0 140 37t48 94q0 48 -23 66t-62 18q-37 0 -64 -19.5t-44.5 -50t-27 -68t-11.5 -74.5q21 -3 44 -3zM470 -418q65 -61 152.5 -111t197 -85t242 -54.5t287.5 -19.5q54 0 116 4t123.5 14.5t117.5 28.5t99 45.5t68.5 66.5t25.5 92
q0 54 -26.5 91t-70 61t-98.5 37.5t-111.5 20t-109.5 7.5t-92 1q-126 0 -243.5 -16.5t-231 -44t-224.5 -63.5t-222 -75z" />
    <glyph glyph-name="d.ss02" horiz-adv-x="661" 
d="M505 700h115v-20h-25q-16 0 -25.5 -9.5t-9.5 -25.5v-568q0 -141 30 -251t85 -195q101 34 202 65t205.5 54.5t212.5 37t222 13.5q44 0 100.5 -1.5t115.5 -8.5t115 -21.5t100.5 -41.5t71.5 -67.5t27 -98.5t-25.5 -101t-69.5 -73t-102.5 -49.5t-124 -30.5t-134.5 -15
t-134 -4q-136 0 -258 18t-226 56t-188.5 96t-144.5 139q-146 -51 -295 -103.5t-308.5 -95.5t-333 -70.5t-367.5 -27.5q-56 0 -118.5 4.5t-124 16t-117.5 31t-98.5 49t-68 69.5t-25.5 94q0 57 16.5 91t36.5 34q8 0 12 -7.5t4 -18.5t-4 -22.5t-9.5 -25t-9.5 -29.5t-4 -36
q0 -47 25 -82.5t67 -61t96.5 -42t113 -26t116.5 -13t107 -3.5q189 0 358.5 26.5t325.5 68.5t302.5 94t290.5 102q-60 86 -91.5 195.5t-31.5 247.5v86q-28 -78 -88 -114.5t-148 -36.5q-51 0 -93 17t-72 49.5t-46.5 79.5t-16.5 108q0 128 68 195t186 67q76 0 130 -28.5
t80 -87.5v308zM289 18q59 0 100.5 20.5t67 56.5t37 85.5t11.5 107.5q-2 43 -14.5 79t-36.5 62.5t-59.5 41.5t-83.5 15q-56 0 -96 -18.5t-66 -50.5t-38 -76.5t-12 -95.5q0 -46 11.5 -87.5t35 -72.5t59.5 -49t84 -18zM686 -386q57 -81 137.5 -138.5t182.5 -94t223.5 -53
t259.5 -16.5q55 0 116 4t120.5 14.5t113.5 28.5t95.5 45.5t66 66.5t24.5 92q0 54 -26.5 91t-70 61t-98.5 37.5t-111.5 20t-109.5 7.5t-92 1q-113 0 -219.5 -13.5t-209 -36t-202.5 -53t-200 -64.5z" />
    <glyph glyph-name="e.ss02" horiz-adv-x="601" 
d="M449 198q19 0 36.5 -4t31 -12.5t22 -22.5t8.5 -35q0 -30 -17.5 -54.5t-48 -41.5t-71 -26.5t-86.5 -9.5h-21t-20 2q-1 -8 -1.5 -16t-0.5 -16q0 -95 42.5 -189t128.5 -176q113 40 225.5 77t228.5 65t236.5 45t248.5 17q44 0 100.5 -1.5t115.5 -8.5t115 -21.5t100.5 -41.5
t71.5 -67.5t27 -98.5t-25.5 -101t-69.5 -73t-102.5 -49.5t-124 -30.5t-134.5 -15t-134 -4q-155 0 -288 21.5t-244 59.5t-199.5 90t-154.5 113q-137 -48 -278.5 -96.5t-292.5 -87.5t-315.5 -63.5t-348.5 -24.5q-52 0 -112.5 4t-122 14t-119 28t-101.5 46t-70.5 67.5
t-26.5 93.5q0 74 16 105t36 31q9 0 13 -7.5t4 -18.5t-4.5 -22.5t-9.5 -25t-9.5 -29.5t-4.5 -36q0 -50 25.5 -86.5t67.5 -62t96.5 -41.5t113 -25t116.5 -12t107 -3q177 0 336.5 23.5t307 62t286.5 86t274 95.5q-86 85 -129 180t-43 190q0 10 0.5 19.5t1.5 18.5
q-59 9 -100.5 32.5t-67.5 57t-38.5 74t-12.5 82.5q0 62 15.5 112t48 85.5t83 54.5t119.5 19q86 0 139 -28t80.5 -70t33 -90t-4.5 -87h-458q4 -89 44.5 -143t123.5 -69q16 81 66 127t119 45zM503 282q2 47 -8 86t-33.5 66.5t-61 43t-90.5 15.5q-45 0 -84 -13.5t-67.5 -42.5
t-45.5 -73.5t-17 -105.5h382q15 0 19.5 6.5t5.5 17.5zM288 22q10 -1 21 -1.5t22 -0.5q40 0 75 7t61.5 20.5t42 33t15.5 43.5q0 29 -22.5 41t-57.5 12q-33 0 -59 -12.5t-45.5 -34t-33 -49.5t-19.5 -59zM469 -418q65 -59 152.5 -108.5t197.5 -85.5t242.5 -56t287.5 -20
q54 0 116 4t123.5 14.5t117.5 28.5t99 45.5t68.5 66.5t25.5 92q0 54 -26.5 91t-70 61t-98.5 37.5t-111.5 20t-109.5 7.5t-92 1q-126 0 -244 -16.5t-231.5 -44t-224.5 -63.5t-222 -75z" />
    <glyph glyph-name="f.ss02" horiz-adv-x="488" 
d="M161 500h230v-20h-230v-423q0 -137 -32 -247t-92 -195q144 -51 291 -103t303 -94t325.5 -68.5t358.5 -26.5q49 0 107 3.5t116.5 13t112.5 26t96 42t67.5 60.5t25.5 83q0 20 -4.5 36t-9.5 29.5t-9.5 25t-4.5 22.5t4 18.5t13 7.5q20 0 36.5 -34t16.5 -91q0 -53 -25.5 -93.5
t-68 -70t-98.5 -49t-117.5 -31t-124 -16t-118.5 -4.5q-195 0 -368 27.5t-332.5 70.5t-309 95.5t-295.5 103.5q-60 -81 -144.5 -139t-188.5 -96t-226 -56t-258 -18q-65 0 -134 4t-134.5 15t-124 30.5t-102.5 49.5t-69.5 73t-25.5 101q0 59 27 99t71.5 67t101 41.5t115.5 21.5
t115.5 8.5t100.5 1.5q114 0 222 -13.5t212 -37t205.5 -54.5t202.5 -65q55 85 84 195t31 251v403h-65v20h65v23q0 51 14.5 86.5t40 57t60 31.5t73.5 10q37 0 64.5 -7.5t46 -19.5t29 -27t14.5 -30h-20q-7 21 -38 41.5t-88 20.5q-41 0 -68.5 -12.5t-43.5 -33t-22.5 -47.5
t-6.5 -56v-37zM-20 -386q-100 34 -200 64.5t-203 53t-209.5 36t-218.5 13.5q-39 0 -92 -1t-109.5 -7.5t-111.5 -20t-98.5 -37.5t-70 -61t-26.5 -91q0 -53 24.5 -92t66 -66.5t95.5 -45.5t113.5 -28.5t120.5 -14.5t116 -4q138 0 259.5 16.5t223.5 53t182.5 94t137.5 138.5z
M428 624q-1 7 -7.5 17t-17.5 20t-26 18.5t-33 13.5l8 9q31 -8 44.5 -9t8.5 19h20l23 -88h-20z" />
    <glyph glyph-name="g.ss02" horiz-adv-x="667" 
d="M341 106q-42 0 -77 4.5t-65 15.5q-67 0 -93.5 -14t-26.5 -35t24.5 -31t64 -14.5t89.5 -4.5h101q64 0 117 -7t90 -23.5t57.5 -44.5t20.5 -71q0 -52 -32 -90q41 -27 79 -57t76 -62q85 28 171.5 51.5t175.5 40.5t181 27t188 10q44 0 100.5 -1.5t115.5 -8.5t115 -21.5
t100.5 -41.5t71.5 -67.5t27 -98.5t-25.5 -101t-66.5 -73t-94 -49.5t-108.5 -30.5t-108.5 -15t-95 -4q-136 0 -243.5 32.5t-197 84.5t-166.5 116t-151 127q-110 -35 -220 -75t-223 -78.5t-230.5 -74t-242.5 -62t-259.5 -42.5t-280.5 -16q-52 0 -112.5 4.5t-122 16t-118.5 31
t-101.5 49t-71 69.5t-26.5 94q0 57 16.5 91t36.5 34q9 0 13 -7.5t4 -18.5t-4.5 -22.5t-9.5 -25t-9.5 -29.5t-4.5 -36q0 -48 25.5 -83.5t67.5 -61t96.5 -42t113 -26t116.5 -13.5t107 -4q213 0 401 33.5t361 84.5t336 111.5t325 113.5q-35 29 -70.5 57t-72.5 54
q-41 -36 -108 -51.5t-145 -15.5q-68 0 -123.5 7.5t-95.5 23t-61.5 39.5t-21.5 56q0 26 13.5 43t35.5 27t49.5 14t54.5 4q58 0 110.5 -8t100.5 -23t91.5 -35.5t84.5 -45.5q27 28 27 69q0 26 -13.5 43.5t-43.5 28t-77 15t-114 4.5q-57 0 -112 1.5t-98.5 10.5t-70.5 29t-27 58
q0 37 28.5 55t77.5 19q-95 52 -95 164q0 97 72 149t206 52q93 0 157 -26q-24 36 -29 75.5t8 73t43.5 55.5t76.5 22l42 -100l-19 -5l-11 25q-6 12 -13.5 16.5t-21.5 4.5q-24 0 -40.5 -19t-23.5 -47t-3 -59.5t23 -56.5q89 -52 89 -160q0 -97 -72 -149t-206 -52zM341 129
q61 0 103.5 14t68 38t37 56.5t11.5 69.5t-11.5 69.5t-37.5 57t-68 38.5t-103 14t-103 -14t-68 -38.5t-37.5 -57t-11.5 -69.5t11 -69.5t37 -56.5t68 -38t104 -14zM206 -99q-68 0 -102.5 -14t-34.5 -47q0 -25 22 -43t59.5 -30t88 -17.5t107.5 -5.5q152 0 218 51
q-77 48 -163.5 77t-194.5 29zM784 -342q73 -62 148 -123.5t161 -111t187 -80.5t227 -31q41 0 93 4t105.5 14.5t105 28.5t91 45.5t64 66.5t24.5 92q0 54 -26.5 91t-70 61t-98.5 37.5t-111.5 20t-109.5 7.5t-92 1q-94 0 -183.5 -9.5t-176 -26t-171 -39t-167.5 -48.5z" />
    <glyph glyph-name="h.ss02" 
d="M157 357q5 23 18.5 49.5t37 49t58.5 37.5t85 15q98 0 140 -45t42 -146v-240q0 -141 29.5 -251t85.5 -195q101 34 202 65t205.5 54.5t212.5 37t222 13.5q44 0 100.5 -1.5t115.5 -8.5t115 -21.5t100.5 -41.5t71.5 -67.5t27 -98.5t-25.5 -101t-69.5 -73t-102.5 -49.5
t-124 -30.5t-134.5 -15t-134 -4q-136 0 -258 18t-226 56t-188.5 96t-144.5 139q-146 -51 -295 -103.5t-308.5 -95.5t-333 -70.5t-367.5 -27.5q-56 0 -118.5 4.5t-124 16t-118 31t-99 49t-68 69.5t-25.5 94q0 57 16.5 91t36.5 34q9 0 13 -7.5t4 -18.5t-4.5 -22.5t-9.5 -25
t-9.5 -29.5t-4.5 -36q0 -47 25.5 -82.5t67.5 -61t96.5 -42t113 -26t116.5 -13t107 -3.5q189 0 358 26.5t325.5 68.5t303 94t290.5 103q-60 85 -91.5 195t-31.5 247v276q0 28 -5.5 55t-20.5 48t-41.5 34t-68.5 13t-77 -15.5t-60.5 -45.5t-39.5 -74t-14 -100v-188
q0 -18 9.5 -29t25.5 -11h25v-20h-175v20h25q16 0 25.5 9.5t9.5 25.5v590q0 16 -9.5 25.5t-25.5 9.5h-25v20h115v-344zM664 -386q57 -81 137.5 -138.5t182 -94t223 -53t260.5 -16.5q55 0 115.5 4t120 14.5t114 28.5t96 45.5t66 66.5t24.5 92q0 54 -26.5 91t-70 61t-98.5 37.5
t-111.5 20t-109.5 7.5t-92 1q-113 0 -219.5 -13.5t-209 -36t-202.5 -53t-200 -64.5z" />
    <glyph glyph-name="i.ss02" horiz-adv-x="257" 
d="M124 708q26 0 33 -11.5t7 -40.5t-7 -40t-33 -11q-25 0 -32 11t-7 40t7 40.5t32 11.5zM101 445q0 16 -9.5 25.5t-25.5 9.5h-25v20h115v-423q0 -141 29.5 -251t85.5 -195q101 34 202 65t205.5 54.5t212.5 37t222 13.5q44 0 100.5 -1.5t115.5 -8.5t115 -21.5t100.5 -41.5
t71.5 -67.5t27 -98.5t-25.5 -101t-69.5 -73t-102.5 -49.5t-124 -30.5t-134.5 -15t-134 -4q-136 0 -258 18t-226 56t-188.5 96t-144.5 139q-146 -51 -295 -103.5t-308.5 -95.5t-333 -70.5t-367.5 -27.5q-56 0 -118.5 4.5t-124 16t-117.5 31t-99 49t-68.5 69.5t-25.5 94
q0 57 17 91t37 34q8 0 12 -7.5t4 -18.5t-4 -22.5t-9.5 -25t-9.5 -29.5t-4 -36q0 -47 25 -82.5t67 -61t96.5 -42t113 -26t116.5 -13t107 -3.5q189 0 358.5 26.5t325.5 68.5t302.5 94t290.5 103q-60 85 -91.5 195t-31.5 247v388zM282 -386q57 -81 137.5 -138.5t182.5 -94
t223.5 -53t259.5 -16.5q55 0 116 4t120.5 14.5t113.5 28.5t95.5 45.5t66 66.5t24.5 92q0 54 -26.5 91t-70 61t-98.5 37.5t-111.5 20t-109.5 7.5t-92 1q-113 0 -219.5 -13.5t-209 -36t-202.5 -53t-200 -64.5z" />
    <glyph glyph-name="j.ss02" horiz-adv-x="240" 
d="M124 708q26 0 33 -11.5t7 -40.5t-7 -40t-33 -11q-25 0 -32 11t-7 40t7 40.5t32 11.5zM156 57q0 -137 -32 -247t-92 -195q144 -51 291 -103t303 -94t325.5 -68.5t358.5 -26.5q49 0 107 3.5t116.5 13t113 26t96.5 42t67 60.5t25 83q0 20 -4 36t-9.5 29.5t-9.5 25t-4 22.5
t4 18.5t12 7.5q20 0 36.5 -34t16.5 -91q0 -53 -25.5 -93.5t-68 -70t-98.5 -49t-117.5 -31t-124 -16t-118.5 -4.5q-194 0 -367.5 27.5t-333 70.5t-308.5 95.5t-295 103.5q-61 -81 -145 -139t-188.5 -96t-226 -56t-257.5 -18q-65 0 -134 4t-134.5 15t-124 30.5t-102.5 49.5
t-69.5 73t-25.5 101q0 59 27 99t71.5 67t100.5 41.5t115 21.5t115.5 8.5t100.5 1.5q114 0 222 -13.5t212.5 -37t205.5 -54.5t202 -65q55 85 85 195t30 251v368q0 16 -9.5 25.5t-25.5 9.5h-25v20h115v-443zM-25 -386q-100 34 -200 64.5t-203 53t-209.5 36t-218.5 13.5
q-39 0 -92 -1t-109.5 -7.5t-111.5 -20t-98.5 -37.5t-70 -61t-26.5 -91q0 -53 24.5 -92t66 -66.5t95.5 -45.5t113.5 -28.5t120.5 -14.5t116 -4q138 0 259.5 16.5t223.5 53t182.5 94t137.5 138.5z" />
    <glyph glyph-name="k.ss02" horiz-adv-x="618" 
d="M275 309l-119 -92v-157q0 -18 9.5 -29t25.5 -11h25v-20h-175v20h25q16 0 25.5 9.5t9.5 25.5v590q0 16 -9.5 25.5t-25.5 9.5h-25v20h115v-455l242 186q29 23 30.5 36t-20.5 13h-19v20h166v-20h-24q-26 0 -54 -18.5t-56 -40.5l-101 -78l209 -351q55 -100 120.5 -191
t146.5 -171q101 35 203 66t206 54.5t212.5 37t222.5 13.5q44 0 100.5 -1.5t115.5 -8.5t115 -21.5t100.5 -41.5t71.5 -67.5t27 -98.5t-25.5 -101t-69.5 -73t-102.5 -49.5t-124 -30.5t-134.5 -15t-134 -4q-134 0 -250.5 22.5t-217.5 63.5t-188 97.5t-161 125.5
q-146 -51 -295.5 -104t-308.5 -95.5t-332.5 -70t-367.5 -27.5q-56 0 -118.5 4.5t-124 16t-118 31t-99 49t-68 69.5t-25.5 94q0 57 16.5 91t36.5 34q9 0 13 -7.5t4 -18.5t-4.5 -22.5t-9.5 -25t-9.5 -29.5t-4.5 -36q0 -47 25.5 -82.5t67.5 -61t96.5 -42t113 -26t116.5 -13
t107 -3.5q188 0 357 26.5t324.5 68.5t302 93.5t289.5 101.5q-79 76 -143 162t-117 178zM812 -385q72 -68 156 -124t183 -95.5t213.5 -61.5t247.5 -22q54 0 115 4t120.5 14.5t114 28.5t96 45.5t66 66.5t24.5 92q0 54 -26.5 91t-70 61t-98.5 37.5t-111.5 20t-109.5 7.5t-92 1
q-112 0 -218 -13t-208.5 -35.5t-202.5 -53t-199 -64.5z" />
    <glyph glyph-name="l.ss02" horiz-adv-x="257" 
d="M101 645q0 16 -9.5 25.5t-25.5 9.5h-25v20h115v-623q0 -141 29.5 -251t85.5 -195q101 34 202 65t205.5 54.5t212.5 37t222 13.5q44 0 100.5 -1.5t115.5 -8.5t115 -21.5t100.5 -41.5t71.5 -67.5t27 -98.5t-25.5 -101t-69.5 -73t-102.5 -49.5t-124 -30.5t-134.5 -15
t-134 -4q-136 0 -258 18t-226 56t-188.5 96t-144.5 139q-146 -51 -295 -103.5t-308.5 -95.5t-333 -70.5t-367.5 -27.5q-56 0 -118.5 4.5t-124 16t-118 31t-99 49t-68 69.5t-25.5 94q0 57 17 91t37 34q8 0 12 -7.5t4 -18.5t-4 -22.5t-9.5 -25t-9.5 -29.5t-4 -36
q0 -47 25 -82.5t67 -61t96.5 -42t113 -26t116.5 -13t107 -3.5q189 0 358.5 26.5t325.5 68.5t302.5 94t290.5 103q-60 85 -91.5 195t-31.5 247v588zM282 -386q57 -81 137.5 -138.5t182 -94t223 -53t260.5 -16.5q55 0 116 4t120.5 14.5t113.5 28.5t95.5 45.5t66 66.5t24.5 92
q0 54 -26.5 91t-70 61t-98.5 37.5t-111.5 20t-109.5 7.5t-92 1q-113 0 -219.5 -13.5t-209 -36t-202.5 -53t-200 -64.5z" />
    <glyph glyph-name="m.ss02" horiz-adv-x="1020" 
d="M66 20q16 0 25.5 9.5t9.5 25.5v390q0 16 -9.5 25.5t-25.5 9.5h-25v20h115v-137q6 23 19.5 48.5t37.5 47t59 35.5t84 14q87 0 129.5 -35t50.5 -113q5 23 19 49t38 48t60 36.5t85 14.5q98 0 140 -45t42 -146v-239q0 -142 29.5 -252t84.5 -195q101 34 202.5 65t206 54.5
t212.5 37t222 13.5q44 0 100.5 -1.5t115.5 -8.5t115 -21.5t100.5 -41.5t71.5 -67.5t27 -98.5t-25.5 -101t-69.5 -73t-102.5 -49.5t-124 -30.5t-134.5 -15t-134 -4q-136 0 -258 18t-226 56t-188.5 96t-144.5 139q-146 -51 -295 -103.5t-308.5 -95.5t-333 -70.5t-367.5 -27.5
q-56 0 -118.5 4.5t-124 16t-118 31t-99 49t-68 69.5t-25.5 94q0 57 16.5 91t36.5 34q9 0 13 -7.5t4 -18.5t-4.5 -22.5t-9.5 -25t-9.5 -29.5t-4.5 -36q0 -47 25.5 -82.5t67.5 -61t96.5 -42t113 -26t116.5 -13t107 -3.5q189 0 358 26.5t325 68.5t303 94t291 103
q-60 85 -91.5 195t-31.5 247v276q0 28 -5.5 55t-21 48t-42 34t-68.5 13t-76.5 -15.5t-60 -45.5t-39.5 -74t-14 -100v-188q0 -18 9.5 -29t24.5 -11h26v-20h-175v20h25q16 0 25.5 9.5t9.5 25.5v278q0 28 -5.5 55t-20.5 48t-42 34t-69 13t-76.5 -15.5t-60 -45.5t-39.5 -74
t-14 -100v-188q0 -18 9.5 -29t25.5 -11h25v-20h-175v20h25zM1046 -386q57 -81 137.5 -138.5t182 -94t223 -53t259.5 -16.5q55 0 116 4t120.5 14.5t114 28.5t96 45.5t66 66.5t24.5 92q0 54 -26.5 91t-70 61t-98.5 37.5t-111.5 20t-109.5 7.5t-92 1q-113 0 -219.5 -13.5
t-209 -36t-202.5 -53t-200 -64.5z" />
    <glyph glyph-name="n.ss02" 
d="M66 20q16 0 25.5 9.5t9.5 25.5v390q0 16 -9.5 25.5t-25.5 9.5h-25v20h115v-137q6 23 19.5 48.5t37.5 47t59 35.5t84 14q98 0 140 -45t42 -146v-240q0 -141 29.5 -251t85.5 -195q101 34 202 65t205.5 54.5t212.5 37t222 13.5q44 0 100.5 -1.5t115.5 -8.5t115 -21.5
t100.5 -41.5t71.5 -67.5t27 -98.5t-25.5 -101t-69.5 -73t-102.5 -49.5t-124 -30.5t-134.5 -15t-134 -4q-136 0 -258 18t-226 56t-188.5 96t-144.5 139q-146 -51 -295 -103.5t-308.5 -95.5t-333 -70.5t-367.5 -27.5q-56 0 -118.5 4.5t-124 16t-118 31t-99 49t-68 69.5
t-25.5 94q0 57 16.5 91t36.5 34q9 0 13 -7.5t4 -18.5t-4.5 -22.5t-9.5 -25t-9.5 -29.5t-4.5 -36q0 -47 25.5 -82.5t67.5 -61t96.5 -42t113 -26t116.5 -13t107 -3.5q189 0 358 26.5t325 68.5t303 94t291 103q-60 85 -91.5 195t-31.5 247v276q0 28 -5.5 55t-20.5 48t-42 34
t-69 13t-76.5 -15.5t-60 -45.5t-39.5 -74t-14 -100v-188q0 -18 9.5 -29t25.5 -11h25v-20h-175v20h25zM664 -386q57 -81 137.5 -138.5t182 -94t223 -53t260.5 -16.5q55 0 115.5 4t120 14.5t114 28.5t96 45.5t66 66.5t24.5 92q0 54 -26.5 91t-70 61t-98.5 37.5t-111.5 20
t-109.5 7.5t-92 1q-113 0 -219.5 -13.5t-209 -36t-202.5 -53t-200 -64.5z" />
    <glyph glyph-name="p.ss02" horiz-adv-x="660" 
d="M156 57q0 -137 -31.5 -247t-91.5 -195q144 -51 290.5 -103t302.5 -94t325.5 -68.5t358.5 -26.5q49 0 107 3.5t116.5 13t113 26t96.5 42t67 60.5t25 83q0 20 -4.5 36t-9.5 29.5t-9.5 25t-4.5 22.5t4.5 18.5t12.5 7.5q20 0 36.5 -34t16.5 -91q0 -53 -25.5 -93.5t-68 -70
t-98.5 -49t-117.5 -31t-124 -16t-118.5 -4.5q-194 0 -367.5 27.5t-333 70.5t-308.5 95.5t-295 103.5q-60 -81 -144.5 -139t-188.5 -96t-226 -56t-258 -18q-65 0 -134 4t-134.5 15t-124 30.5t-102.5 49.5t-69.5 73t-25.5 101q0 59 27 99t71.5 67t100.5 41.5t115 21.5
t115.5 8.5t100.5 1.5q114 0 222 -13.5t212.5 -37t205.5 -54.5t202 -65q55 85 85 195t30 251v368q0 16 -9.5 25.5t-25.5 9.5h-25v20h115v-108q26 59 80 87.5t130 28.5q118 0 186 -67t68 -195q0 -61 -16.5 -108t-46.5 -79.5t-72.5 -49.5t-93.5 -17q-88 0 -147.5 36t-87.5 114
v-85zM372 18q48 0 84 18t59 49t34.5 72.5t11.5 87.5q0 51 -12 95t-37.5 76.5t-65.5 51t-96 18.5q-48 0 -83.5 -15t-59.5 -41t-37 -62t-14 -79v-1q0 -58 11.5 -107.5t37 -85.5t67 -56.5t100.5 -20.5zM-25 -386q-100 34 -200 64.5t-203 53t-209.5 36t-218.5 13.5q-39 0 -92 -1
t-109.5 -7.5t-111.5 -20t-98.5 -37.5t-70 -61t-26.5 -91q0 -53 24.5 -92t66 -66.5t95.5 -45.5t113.5 -28.5t120.5 -14.5t116 -4q138 0 259.5 16.5t223.5 53t182.5 94t137.5 138.5z" />
    <glyph glyph-name="q.ss02" horiz-adv-x="661" 
d="M505 500h115v-20h-25q-16 0 -25.5 -9.5t-9.5 -25.5v-456q0 -113 24 -203.5t68 -162.5q104 36 208 68.5t211 56.5t218 38.5t228 14.5q44 0 100.5 -1.5t115.5 -8.5t115 -21.5t100.5 -41.5t71.5 -67.5t27 -98.5t-26 -101t-70.5 -73t-105 -49.5t-129.5 -30.5t-143 -15
t-147 -4q-134 0 -255.5 17.5t-225 54t-187 93.5t-140.5 136q-144 -50 -290.5 -101.5t-303.5 -93t-327.5 -68t-360.5 -26.5q-56 0 -118.5 4.5t-124 16t-118 31t-99 49t-68 69.5t-25.5 94q0 57 17 91t37 34q8 0 12 -7.5t4 -18.5t-4 -22.5t-9.5 -25t-9.5 -29.5t-4 -36
q0 -47 25 -82.5t67 -61t96.5 -42t113 -26t116.5 -13t107 -3.5q185 0 351.5 25.5t320 66.5t298 91.5t285.5 100.5q-49 72 -75 162t-26 200v174q-28 -78 -88 -114.5t-148 -36.5q-51 0 -93 17t-72 49.5t-46.5 79.5t-16.5 108q0 128 68 195t186 67q76 0 130 -28.5t80 -87.5v108z
M289 18q59 0 100.5 20.5t67 56.5t37 85.5t11.5 107.5q-2 43 -14.5 79t-36.5 62.5t-59.5 41.5t-83.5 15q-56 0 -96 -18.5t-66 -50.5t-38 -76.5t-12 -95.5q0 -46 11.5 -87.5t35 -72.5t59.5 -49t84 -18zM663 -394q53 -80 129.5 -136t172.5 -91t208.5 -51t237.5 -16
q74 0 148.5 4t142.5 14.5t127 28.5t102.5 45.5t68.5 66.5t25 92q0 54 -26.5 91t-70 61t-98.5 37.5t-111.5 20t-109.5 7.5t-92 1q-116 0 -225.5 -14t-215 -38t-208 -55.5t-205.5 -67.5z" />
    <glyph glyph-name="r.ss02" horiz-adv-x="478" 
d="M411 422q-5 20 -14.5 29.5t-32.5 9.5q-43 0 -80.5 -15.5t-66 -43.5t-45 -67.5t-16.5 -86.5v-190q0 -138 -31.5 -248t-91.5 -195q144 -51 290.5 -103t302.5 -94t325.5 -68.5t358.5 -26.5q49 0 107 3.5t116.5 13t113 26t96.5 42t67.5 60.5t25.5 83q0 20 -4.5 36t-9.5 29.5
t-9.5 25t-4.5 22.5t4 18.5t13 7.5q20 0 36.5 -34t16.5 -91q0 -53 -25.5 -93.5t-68 -70t-99 -49t-118 -31t-124 -16t-118.5 -4.5q-194 0 -367.5 27.5t-333 70.5t-308.5 95.5t-295 103.5q-60 -81 -144.5 -139t-188.5 -96t-226 -56t-258 -18q-65 0 -134 4t-134.5 15t-124 30.5
t-102.5 49.5t-69.5 73t-25.5 101q0 59 27 99t71.5 67t100.5 41.5t115 21.5t115.5 8.5t100.5 1.5q114 0 222 -13.5t212.5 -37t205.5 -54.5t202 -65q56 85 85.5 195t29.5 251v368q0 16 -9.5 25.5t-25.5 9.5h-25v20h115v-158q4 20 21 48.5t44.5 54.5t64.5 44.5t83 18.5
q20 0 30 -2t19 -6l20 -113h-19zM-25 -386q-100 34 -200 64.5t-203 53t-209.5 36t-218.5 13.5q-39 0 -92 -1t-109.5 -7.5t-111.5 -20t-98.5 -37.5t-70 -61t-26.5 -91q0 -53 24.5 -92t66 -66.5t96 -45.5t114 -28.5t120 -14.5t115.5 -4q139 0 260.5 16.5t223 53t182 94
t137.5 138.5z" />
    <glyph glyph-name="s.ss02" horiz-adv-x="608" 
d="M292 487q-35 0 -66 -5.5t-55 -17t-38 -29.5t-14 -43q0 -35 31.5 -52.5t79.5 -28t103 -19t103 -25t79.5 -46t31.5 -82.5q0 -34 -14 -59t-38 -42q41 -39 82.5 -85.5t85 -96t90.5 -100.5t98 -101q92 31 185 57.5t188.5 46t194 31t202.5 11.5q44 0 100.5 -1.5t115.5 -8.5
t115 -21.5t100.5 -41.5t71.5 -67.5t27 -98.5t-25 -101t-66.5 -73t-94.5 -49.5t-108.5 -30.5t-108.5 -15t-95 -4q-142 0 -260 27.5t-217.5 74.5t-182.5 109t-154 131q-158 -53 -317.5 -111t-329.5 -107t-356 -80.5t-396 -31.5q-56 0 -118.5 4.5t-124 16t-117.5 31t-98.5 49
t-68 69.5t-25.5 94q0 57 16.5 91t36.5 34q8 0 12.5 -7.5t4.5 -18.5t-4.5 -22.5t-9.5 -25t-9.5 -29.5t-4.5 -36q0 -47 25 -82.5t67 -61t96.5 -42t113 -26t116.5 -13t107 -3.5q136 0 261.5 14t243 38.5t228.5 56.5t217.5 68t210.5 73.5t207 72.5q-51 50 -96.5 101t-88 100.5
t-83 95t-79.5 83.5q-33 -17 -76 -25.5t-90 -8.5q-132 0 -189.5 30t-57.5 79q0 24 11 40.5t29 27t42 15t51 4.5q77 0 143 -34.5t130 -91.5q26 26 26 68q0 31 -18.5 50.5t-48.5 32t-68.5 20t-79 14.5t-79 15.5t-68.5 23t-48.5 36.5t-18.5 56q0 35 19 60t51 40.5t75 22.5t90 7
q38 0 69 -4t58 -12q15 -5 27.5 -8.5t20.5 -2.5t11 7.5t0 22.5h27l24 -117h-21q-8 18 -28 35t-49.5 30t-67 20.5t-80.5 7.5zM204 165q-39 0 -67 -14t-28 -46q0 -43 52 -67.5t149 -24.5q94 0 143 34q-59 54 -119.5 86t-129.5 32zM867 -360q70 -66 150.5 -125.5t176 -104.5
t207.5 -71.5t246 -26.5q41 0 93 4t105.5 14.5t104.5 28.5t91 45.5t64 66.5t24 92q0 54 -26.5 91t-70 61t-98.5 37.5t-111.5 20t-109.5 7.5t-92 1q-102 0 -198.5 -11t-190 -30t-184.5 -44.5t-181 -55.5z" />
    <glyph glyph-name="t.ss02" horiz-adv-x="364" 
d="M129 638h20v-138h175v-20h-175v-403q1 -141 30 -251t85 -195q101 34 202 65t205.5 54.5t212.5 37t222 13.5q44 0 100.5 -1.5t115.5 -8.5t115 -21.5t100.5 -41.5t71.5 -67.5t27 -98.5t-25.5 -101t-69.5 -73t-102.5 -49.5t-124 -30.5t-134.5 -15t-134 -4q-136 0 -258 18
t-226 56t-188.5 96t-144.5 139q-146 -51 -295 -103.5t-308.5 -95.5t-333 -70.5t-367.5 -27.5q-56 0 -118.5 4.5t-124 16t-118 31t-99 49t-68 69.5t-25.5 94q0 57 17 91t37 34q8 0 12 -7.5t4 -18.5t-4.5 -22.5t-9.5 -25t-9.5 -29.5t-4.5 -36q0 -47 25.5 -82.5t67.5 -61
t96.5 -42t113 -26t116.5 -13t107 -3.5q189 0 358.5 26.5t325.5 68.5t302.5 94t290.5 103q-60 85 -91.5 195t-31.5 247l1 423h-104v20h104zM275 -386q57 -81 137.5 -138.5t182 -94t223 -53t260.5 -16.5q54 0 115 4t120.5 14.5t114 28.5t96 45.5t66 66.5t24.5 92
q0 54 -26.5 91t-70 61t-98.5 37.5t-111.5 20t-109.5 7.5t-92 1q-113 0 -219.5 -13.5t-209 -36t-202.5 -53t-200 -64.5z" />
    <glyph glyph-name="u.ss02" 
d="M482 143q-5 -23 -18.5 -49.5t-37 -49t-59 -37.5t-85.5 -15q-97 0 -139 45t-42 145v258q0 18 -9.5 29t-25.5 11h-25v20h115v-333q0 -28 5.5 -55t20.5 -48t41.5 -34t68.5 -13t77 15.5t60.5 45.5t39.5 74t14 100v188q0 18 -9.5 29t-25.5 11h-25v20h115v-423
q0 -141 29.5 -251t85.5 -195q101 34 202 65t205.5 54.5t212.5 37t222 13.5q44 0 100.5 -1.5t115.5 -8.5t115 -21.5t100.5 -41.5t71.5 -67.5t27 -98.5t-25.5 -101t-69.5 -73t-102.5 -49.5t-124 -30.5t-134.5 -15t-134 -4q-136 0 -258 18t-226 56t-188.5 96t-144.5 139
q-146 -51 -295 -103.5t-308.5 -95.5t-333 -70.5t-367.5 -27.5q-56 0 -118.5 4.5t-124 16t-118 31t-99 49t-68 69.5t-25.5 94q0 57 16.5 91t36.5 34q9 0 13 -7.5t4 -18.5t-4.5 -22.5t-9.5 -25t-9.5 -29.5t-4.5 -36q0 -47 25.5 -82.5t67.5 -61t96.5 -42t113 -26t116.5 -13
t107 -3.5q189 0 358 26.5t325 68.5t303 94t291 103q-60 85 -91.5 195t-31.5 247v87zM664 -386q57 -81 137.5 -138.5t182 -94t223 -53t260.5 -16.5q55 0 115.5 4t120 14.5t114 28.5t96 45.5t66 66.5t24.5 92q0 54 -26.5 91t-70 61t-98.5 37.5t-111.5 20t-109.5 7.5t-92 1
q-113 0 -219.5 -13.5t-209 -36t-202.5 -53t-200 -64.5z" />
    <glyph glyph-name="x.ss02" horiz-adv-x="625" 
d="M46 480v20h199v-20h-26q-21 0 -20 -9t12 -26l115 -165l92 128q26 37 28.5 54.5t-13.5 17.5h-38v20h176v-20h-31q-26 0 -48 -17.5t-48 -54.5l-105 -147l137 -196q71 -103 158 -213.5t195 -210.5q97 33 194.5 62t198 51t204.5 34.5t214 12.5q44 0 100.5 -1.5t115.5 -8.5
t115 -21.5t100.5 -41.5t71.5 -67.5t27 -98.5t-25.5 -101t-69.5 -73t-102.5 -49.5t-124 -30.5t-134.5 -15t-134 -4q-121 0 -230 24t-207.5 66t-186.5 100.5t-166 127.5q-149 -51 -301 -105.5t-315 -99t-339.5 -73t-375.5 -28.5q-56 0 -118.5 4.5t-124 16t-118 31t-99 49
t-68 69.5t-25.5 94q0 57 16.5 91t36.5 34q9 0 13 -7.5t4 -18.5t-4.5 -22.5t-9.5 -25t-9.5 -29.5t-4.5 -36q0 -47 25.5 -82.5t67.5 -61t96.5 -42t113 -26t116.5 -13t107 -3.5q192 0 364 27.5t331 71t308 96.5t296 104q-109 99 -198.5 211t-164.5 224l-116 165l-93 -130
q-27 -37 -29 -54.5t14 -17.5h24v-20h-165l1 20h35q23 0 45 17.5t49 54.5l106 149l-143 204q-11 17 -25.5 26t-37.5 9h-29zM846 -373q74 -67 158 -124.5t179 -100t202 -66.5t227 -24q54 0 115 4t120.5 14.5t114 28.5t96 45.5t66 66.5t24.5 92q0 54 -26.5 91t-70 61
t-98.5 37.5t-111.5 20t-109.5 7.5t-92 1q-107 0 -209 -12t-200 -33t-194 -49t-191 -60z" />
    <glyph glyph-name="y.ss02" horiz-adv-x="560" 
d="M300 20q-60 -121 -132.5 -222.5t-159.5 -184.5q158 -55 318 -107.5t320 -93t320 -65t319 -24.5q49 0 107 3.5t116.5 13t113 26t96.5 42t67 60.5t25 83q0 20 -4.5 36t-9.5 29.5t-9.5 25t-4.5 22.5t4.5 18.5t12.5 7.5q20 0 36.5 -34t16.5 -91q0 -53 -25.5 -93.5t-68 -70
t-98.5 -49t-117.5 -31t-124 -16t-118.5 -4.5q-173 0 -338.5 25.5t-327.5 67.5t-321.5 95.5t-319.5 109.5q-163 -152 -366.5 -231t-447.5 -79q-65 0 -134 4t-134.5 15t-124 30.5t-102.5 49.5t-69.5 73t-25.5 101q0 59 27 99t71.5 67t100.5 41.5t115 21.5t115.5 8.5t100.5 1.5
q116 0 227 -14.5t218 -39t211 -57t207 -68.5q81 78 151 173t134 210l-193 440q-7 16 -17.5 25.5t-28.5 9.5h-27v20h185v-20h-26q-21 0 -26.5 -9.5t1.5 -25.5l164 -374l146 337q17 37 13.5 54.5t-19.5 17.5h-37v20h168v-20h-26q-26 0 -42.5 -17.5t-33.5 -54.5l-164 -379
q-2 -6 -4 -9zM-33 -392q-102 35 -204.5 66.5t-207.5 55t-213.5 37.5t-222.5 14q-39 0 -92 -1t-109.5 -7.5t-111.5 -20t-98.5 -37.5t-70 -61t-26.5 -91q0 -53 24.5 -92t66 -66.5t95.5 -45.5t113.5 -28.5t120.5 -14.5t116 -4q259 0 460 74t360 222z" />
    <glyph glyph-name="z.ss02" horiz-adv-x="580" 
d="M904 -388q-89 84 -179 155t-182 122.5t-186.5 81t-192.5 29.5h-118v20l363 425q14 16 10.5 25.5t-23.5 9.5h-206q-50 0 -76.5 -31t-38.5 -80h-20l29 162h20q-3 -21 8 -26t32 -5h368v-20l-358 -418q-17 -20 -14 -31t19 -11h20q105 0 201 -27.5t188.5 -78.5t186 -124
t194.5 -163q102 36 204 67.5t207 55t214 37.5t224 14q44 0 100.5 -1.5t115.5 -8.5t115 -21.5t100.5 -41.5t71.5 -67.5t27 -98.5t-25.5 -101t-69.5 -73t-102.5 -49.5t-124 -30.5t-134.5 -15t-134 -4q-132 0 -249 22.5t-219 63.5t-189.5 97.5t-161.5 124.5
q-145 -50 -293.5 -102.5t-308 -95.5t-332.5 -70.5t-368 -27.5q-56 0 -118.5 4.5t-124 16t-117.5 31t-98.5 49t-68 69.5t-25.5 94q0 57 16.5 91t36.5 34q8 0 12.5 -7.5t4.5 -18.5t-4.5 -22.5t-9.5 -25t-9.5 -29.5t-4.5 -36q0 -47 25 -82.5t67 -61t96.5 -42t113 -26t116.5 -13
t107 -3.5q189 0 358 26.5t325 68.5t301.5 93t287.5 101zM964 -387q70 -68 154.5 -123.5t184.5 -95t216 -61t251 -21.5q55 0 116 4t120.5 14.5t113.5 28.5t95.5 45.5t66 66.5t24.5 92q0 54 -26.5 91t-70 61t-98.5 37.5t-111.5 20t-109.5 7.5t-92 1q-113 0 -220 -13.5
t-210 -36t-203.5 -53.5t-200.5 -65z" />
    <glyph glyph-name="a.ss03" horiz-adv-x="625" 
d="M67 381q5 17 15 32q31 69 39.5 134t-3.5 126t-43 117t-77 106q-105 -37 -210.5 -70.5t-214 -58.5t-221 -40t-231.5 -15q-44 0 -100.5 1.5t-115.5 8.5t-115 21.5t-100.5 41.5t-71.5 67t-27 99q0 58 25.5 101t69.5 73t102.5 49.5t124 30.5t134.5 15t134 4q127 0 248.5 -22
t228.5 -62.5t197 -96.5t156 -123q79 28 159 56t162 56q-45 59 -70 129.5t-25 156.5q0 54 13.5 97t36.5 74.5t53 50.5t63 25q4 1 17 0.5t16 -13.5q4 -17 -5.5 -24t-19.5 -9q-35 -9 -61.5 -29.5t-45.5 -49t-28.5 -64t-9.5 -75.5q0 -78 23.5 -142.5t65.5 -118.5q106 35 216 66
t227.5 54.5t242.5 37.5t261 14q51 0 112 -4t122.5 -14t118.5 -28t101.5 -46t71 -67.5t26.5 -92.5q0 -61 -36 -103t-92 -69.5t-124 -42.5t-131 -22.5t-114 -9t-73 -1.5q-126 0 -261.5 15.5t-262.5 51t-235.5 94t-180.5 144.5q-82 -27 -161 -55.5t-159 -56.5q45 -49 75 -103
t43 -111t7.5 -117t-31.5 -121q29 24 74.5 39.5t108.5 15.5q116 0 170 -45t54 -146v-257q0 -18 9 -29t25 -11h26v-20h-115v128q-24 -63 -87 -99.5t-152 -36.5t-140 38.5t-51 115.5q0 48 24 82t62.5 56.5t86 35.5t95.5 20t90.5 8.5t70.5 1.5q-1 25 -8 49t-25.5 43t-52 30
t-87.5 11q-81 0 -135.5 -28.5t-73.5 -73.5h-20zM-16 910q-66 67 -157.5 120.5t-199.5 91.5t-229.5 58.5t-248.5 20.5q-55 0 -116 -4t-120.5 -14t-113.5 -28t-95.5 -46t-66 -67t-24.5 -92q0 -54 26.5 -90.5t70 -61t98.5 -38t111.5 -19.5t109.5 -7.5t92 -1.5q117 0 227.5 14.5
t217 38.5t210.5 56.5t208 68.5zM367 1025q69 -82 176.5 -138t234.5 -90.5t265 -49.5t269 -15q13 0 56.5 1.5t101 8t121.5 20.5t117 39.5t88 63.5t35 94q0 50 -26.5 86.5t-70.5 62.5t-101 42.5t-117.5 25.5t-120 12.5t-108.5 3.5q-131 0 -252 -13.5t-235 -36t-222 -53
t-211 -64.5zM470 330q-68 0 -134.5 -8.5t-119 -29t-85.5 -56.5t-33 -92q0 -26 9 -49t28 -39.5t49 -26t73 -9.5q42 0 81 13.5t68 37t46.5 56t17.5 70.5v133z" />
    <glyph glyph-name="b.ss03" horiz-adv-x="660" 
d="M66 20q16 0 25.5 6t9.5 17v421q0 136 31 243.5t88 192.5l-164 58t-167 58q-72 -86 -180.5 -144t-235.5 -93.5t-262.5 -51t-261.5 -15.5q-22 0 -72.5 1.5t-113.5 9t-131 22.5t-124 42.5t-92 69.5t-36 103q0 53 26.5 92.5t71 67.5t101.5 46t118.5 28t122 14t112.5 4
q135 0 260.5 -13.5t243 -37t228 -54.5t216.5 -66q42 54 65 118t23 142q0 40 -9.5 75.5t-28.5 64t-46 49t-61 29.5q-10 2 -19.5 9t-5.5 24q3 13 16 13.5t17 -0.5q33 -6 63 -25t53 -50.5t36.5 -74.5t13.5 -97q0 -86 -24.5 -156.5t-69.5 -128.5q85 -29 167 -57.5t163 -57.5
q60 81 144.5 139t189 95t227 54.5t259.5 17.5q65 0 134 -4t134.5 -15t124 -30.5t102.5 -49.5t69.5 -73t25.5 -101q0 -59 -27 -99t-71.5 -67t-100.5 -41.5t-115 -21.5t-115.5 -8.5t-100.5 -1.5q-116 0 -225 14t-214.5 38t-208.5 55.5t-206 67.5q-50 -78 -76 -178.5
t-27 -227.5v-89q26 59 80 87.5t130 28.5q118 0 186 -67t68 -195q0 -61 -16.5 -108t-46.5 -79.5t-72.5 -49.5t-93.5 -17q-88 0 -147.5 36t-87.5 114v-142h-115v20h25zM271 905q102 -35 204 -66.5t206 -55t211.5 -37.5t220.5 -14q39 0 92 1.5t109.5 7.5t111.5 19.5t98.5 38
t70 61t26.5 90.5q0 53 -24.5 92t-66 67t-95.5 46t-113.5 28t-120.5 14t-116 4q-142 0 -266 -16t-227 -51t-184 -91.5t-137 -137.5zM-134 1024q-104 34 -211.5 65t-221.5 53.5t-235 36t-251 13.5q-49 0 -108.5 -3.5t-120 -12.5t-117.5 -25.5t-101.5 -42.5t-71 -62.5
t-26.5 -86.5q0 -56 35 -94t88.5 -63.5t117 -39.5t121.5 -20.5t101.5 -8t56.5 -1.5q87 0 178.5 6.5t180.5 21t174.5 37t161 55t139 75t110.5 97.5zM372 18q48 0 84 18t59 49t34.5 72.5t11.5 87.5q0 51 -12 95.5t-37.5 76.5t-65.5 50.5t-96 18.5q-48 0 -83.5 -15t-59.5 -41
t-37 -62t-14 -79v-1q0 -58 11.5 -107.5t37 -85.5t67 -56.5t100.5 -20.5z" />
    <glyph glyph-name="c.ss03" horiz-adv-x="585" 
d="M322 26q73 0 123 28t69 70h20q-10 -27 -29.5 -51t-49 -42t-67.5 -28.5t-84 -10.5q-58 0 -106.5 17t-83 50t-54 81t-19.5 110t18.5 110t53 81t83 50t108.5 17q26 0 53.5 -4t52.5 -14q1 0 2 -0.5t2 -0.5q13 -5 24 -8.5t18.5 -2t10 9t-1.5 23.5q-26 96 -59.5 184t-81.5 165
q-92 -31 -185 -58t-189 -47t-195 -31.5t-204 -11.5q-44 0 -100.5 1.5t-115.5 8.5t-115 21.5t-100.5 41.5t-71.5 67t-27 99q0 58 25.5 101t69.5 73t102.5 49.5t124 30.5t134.5 15t134 4q145 0 259.5 -25.5t202.5 -71t153 -108t112 -135.5q106 35 210.5 73t213.5 75
q-45 59 -70 129.5t-25 156.5q0 54 13.5 97t36.5 74.5t53 50.5t63 25q2 0 7 0.5t10.5 0t10 -3.5t6.5 -10q4 -17 -6 -24t-20 -9q-35 -9 -61.5 -29.5t-45 -49t-28 -64t-9.5 -75.5q0 -78 23 -142.5t65 -118.5q106 35 216.5 66t227.5 54.5t242.5 37.5t261.5 14q51 0 112 -4
t122 -14t118.5 -28t101.5 -46t70.5 -67.5t26.5 -92.5q0 -61 -36 -103t-92 -69.5t-124 -42.5t-131 -22.5t-113.5 -9t-72.5 -1.5q-84 0 -173.5 6.5t-178 21.5t-173.5 38.5t-161.5 57.5t-141.5 79t-113 102q-109 -37 -214.5 -75t-211.5 -74q51 -82 82.5 -172.5t54.5 -184.5
l31 -117h-20h-1q-11 18 -26.5 35t-37 30t-49.5 21t-64 8q-55 0 -96 -18t-68.5 -49.5t-41 -73.5t-13.5 -90t13.5 -90t41.5 -73.5t69.5 -49.5t98.5 -18zM313 876q-48 73 -114 133t-154.5 102.5t-203 66t-261.5 23.5q-55 0 -116 -4t-120.5 -14t-114 -28t-96 -46t-66 -67
t-24.5 -92q0 -54 26.5 -90.5t70 -61t98.5 -38t111.5 -19.5t109.5 -7.5t92 -1.5q103 0 200.5 11t192 30.5t186.5 46t183 56.5zM797 1025q70 -82 177 -138t234 -90.5t265 -49.5t269 -15q13 0 56.5 1.5t101.5 8t121.5 20.5t117 39.5t88.5 63.5t35 94q0 50 -26.5 86.5t-71 62.5
t-101.5 42.5t-117.5 25.5t-120 12.5t-108.5 3.5q-131 0 -252 -13.5t-235 -36t-222 -53t-211 -64.5z" />
    <glyph glyph-name="d.ss03" horiz-adv-x="661" 
d="M505 464q0 136 31 243.5t90 192.5q-83 29 -165.5 58t-167.5 58q-72 -86 -180.5 -144t-235.5 -93.5t-262.5 -51t-261.5 -15.5q-22 0 -72.5 1.5t-113.5 9t-131 22.5t-124 42.5t-92 69.5t-36 103q0 53 26.5 92.5t70.5 67.5t101.5 46t119 28t122 14t112.5 4
q135 0 260.5 -13.5t243 -37t228 -54.5t216.5 -66q42 54 65 118t23 142q0 40 -9.5 75.5t-28.5 64t-46 49t-61 29.5q-10 2 -19.5 9t-5.5 24q3 13 16 13.5t17 -0.5q33 -6 63 -25t53 -50.5t36.5 -74.5t13.5 -97q0 -86 -24.5 -156.5t-69.5 -128.5q85 -29 167.5 -58t164.5 -58
q60 81 144.5 139t188.5 95.5t226.5 55t258.5 17.5q65 0 134 -4t134.5 -15t124 -30.5t102.5 -49.5t69.5 -73t25.5 -101q0 -59 -27 -99t-71.5 -67t-100.5 -41.5t-115 -21.5t-115.5 -8.5t-100.5 -1.5q-115 0 -224 14t-214.5 38t-208.5 55.5t-206 66.5q-50 -78 -76 -177.5
t-28 -224.5v-429q0 -16 9.5 -25.5t25.5 -9.5h25v-20h-115v143q-28 -78 -88 -114.5t-148 -36.5q-51 0 -93 17t-72 49.5t-46.5 79.5t-16.5 108q0 128 68 195t186 67q76 0 130 -28.5t80 -87.5v72zM677 904q102 -35 203.5 -66t205.5 -54.5t211 -37.5t220 -14q39 0 92 1.5
t109.5 7.5t111.5 19.5t98.5 38t70 61t26.5 90.5q0 53 -24.5 92t-66 67t-96 46t-114 28t-120.5 14t-115 4q-141 0 -265 -16.5t-226.5 -52t-183.5 -92t-137 -136.5zM270 1024q-104 34 -211.5 65t-221.5 53.5t-235 36t-251 13.5q-49 0 -108.5 -3.5t-120 -12.5t-117.5 -25.5
t-101.5 -42.5t-71 -62.5t-26.5 -86.5q0 -56 35 -94t88.5 -63.5t117 -39.5t121.5 -20.5t101.5 -8t56.5 -1.5q131 0 269 15t264.5 49.5t233.5 90.5t177 137zM289 18q59 0 100.5 20.5t67 56.5t37 85.5t11.5 107.5q-2 43 -14.5 79t-36.5 62.5t-59.5 41.5t-83.5 15
q-56 0 -96 -18.5t-66 -50.5t-38 -76.5t-12 -95.5q0 -46 11.5 -87.5t35 -72.5t59.5 -49t84 -18z" />
    <glyph glyph-name="e.ss03" horiz-adv-x="601" 
d="M145 386q0 10 0.5 19t0.5 19q-23 -29 -36.5 -71t-13.5 -98q0 -114 58 -171.5t164 -57.5q50 0 85 11.5t58 27.5t35 32.5t16 26.5h20q-3 -17 -17 -39.5t-41.5 -43t-69 -35t-99.5 -14.5q-70 0 -120 21t-82.5 56t-47.5 80t-15 93q0 82 27 142.5t85 93.5q21 137 99.5 253
t202.5 209q-54 19 -108.5 38t-110.5 38q-72 -86 -180.5 -144t-235.5 -93.5t-262.5 -51t-261.5 -15.5q-22 0 -72.5 1.5t-113.5 9t-131 22.5t-124 42.5t-92 69.5t-36 103q0 53 26.5 92.5t70.5 67.5t101.5 46t119 28t122 14t112.5 4q135 0 260.5 -13.5t243 -37t228 -54.5
t216.5 -66q42 54 65 118t23 142q0 40 -9.5 75.5t-28.5 64t-46 49t-61 29.5q-10 2 -19.5 9t-5.5 24q3 13 16 13.5t17 -0.5q33 -6 63 -25t53 -50.5t36.5 -74.5t13.5 -97q0 -86 -24.5 -156.5t-69.5 -128.5q57 -20 113 -39t113 -39q89 63 196.5 113t229.5 84.5t255.5 53
t274.5 18.5q57 0 120.5 -4t125.5 -15t118.5 -30.5t99.5 -49.5t68.5 -73t25.5 -101q0 -59 -27 -99t-71.5 -67t-100.5 -41.5t-115 -21.5t-115.5 -8.5t-100.5 -1.5q-134 0 -259 18.5t-246 49t-239 70t-237 81.5q-121 -88 -198 -198t-100 -241q52 21 126 21q86 0 139 -28
t80.5 -70t33 -90t-4.5 -87h-239q-39 0 -70 8t-53.5 25.5t-34.5 45.5t-12 69zM498 946q118 -41 234 -79.5t234.5 -68.5t241 -48t251.5 -18q39 0 92 1.5t109.5 7.5t111.5 19.5t98.5 38t70 61t26.5 90.5q0 53 -24.5 92t-66 67t-96 46t-115 28t-123 14t-118.5 4q-134 0 -263 -17
t-247 -49.5t-223.5 -80t-192.5 -108.5zM212 1024q-104 34 -211.5 65t-221.5 53.5t-235 36t-251 13.5q-49 0 -108.5 -3.5t-120 -12.5t-117.5 -25.5t-101.5 -42.5t-71 -62.5t-26.5 -86.5q0 -56 35 -94t88.5 -63.5t117 -39.5t121.5 -20.5t101.5 -8t56.5 -1.5q87 0 178.5 6.5
t180.5 21t174.5 37t161 55t139 75t110.5 97.5zM503 282q2 47 -8 86t-33.5 66.5t-61 43t-90.5 15.5q-39 0 -73.5 -10t-62.5 -32q-1 -14 -1.5 -27.5t-1.5 -27.5q0 -41 10 -67.5t29 -42t46 -22t62 -6.5h160q15 0 19.5 6.5t5.5 17.5z" />
    <glyph glyph-name="f.ss03" horiz-adv-x="488" 
d="M161 500h230v-20h-230v-425q0 -16 9 -25.5t25 -9.5h26v-20h-176v20h26q16 0 25.5 9.5t9.5 25.5v425h-65v20h65v23q0 51 14.5 86.5t40 57t60 31.5t73.5 10q19 0 37.5 -2t35.5 -8q23 -6 32.5 -4.5t5.5 18.5q-22 79 -65 153q-95 -32 -190 -60t-192.5 -48.5t-198.5 -32.5
t-208 -12q-44 0 -100.5 1.5t-115.5 8.5t-115 21.5t-100.5 41.5t-71.5 67t-27 99q0 58 25.5 101t69.5 73t102.5 49.5t124 30.5t134.5 15t134 4q143 0 259 -25.5t207.5 -70.5t159 -106.5t112.5 -133.5q103 35 205 72t208 72q-45 59 -70 129.5t-25 156.5q0 54 13.5 97
t36.5 74.5t53 50.5t63 25q2 0 7 0.5t10.5 0t10 -3.5t6.5 -10q4 -17 -6 -24t-20 -9q-35 -9 -61.5 -29.5t-45 -49t-28 -64t-9.5 -75.5q0 -78 23 -142.5t65 -118.5q106 35 216.5 66t227.5 54.5t242.5 37.5t261.5 14q51 0 112 -4t122 -14t118.5 -28t101.5 -46t70.5 -67.5
t26.5 -92.5q0 -61 -36 -103t-92 -69.5t-124 -42.5t-131 -22.5t-113.5 -9t-72.5 -1.5q-84 0 -173.5 6.5t-178 21.5t-173.5 38.5t-161.5 57.5t-141.5 79t-113 102q-106 -35 -209 -72.5t-206 -72.5q45 -76 66 -160l23 -88h-20q-8 22 -38.5 42t-87.5 20q-41 0 -68.5 -12.5
t-43.5 -33t-22.5 -47.5t-6.5 -56v-37zM329 881q-46 71 -114.5 130t-161 101t-210.5 65.5t-263 23.5q-55 0 -116 -4t-120.5 -14t-114 -28t-96 -46t-66 -67t-24.5 -92q0 -54 26.5 -90.5t70 -61t98.5 -38t111.5 -19.5t109.5 -7.5t92 -1.5q105 0 205 11.5t196 32t190 47.5
t187 58zM797 1025q70 -82 177 -138t234 -90.5t265 -49.5t269 -15q13 0 56.5 1.5t101.5 8t121.5 20.5t117 39.5t88.5 63.5t35 94q0 50 -26.5 86.5t-71 62.5t-101.5 42.5t-117.5 25.5t-120 12.5t-108.5 3.5q-131 0 -252 -13.5t-235 -36t-222 -53t-211 -64.5z" />
    <glyph glyph-name="g.ss03" horiz-adv-x="667" 
d="M341 106q-42 0 -77 4.5t-65 15.5q-67 0 -93.5 -14t-26.5 -35t24.5 -31t64 -14.5t89.5 -4.5h101q64 0 117 -7t90 -23.5t57.5 -44.5t20.5 -71q0 -48 -24 -81t-65.5 -53.5t-96 -29.5t-114.5 -9q-68 0 -123.5 9.5t-95.5 29t-61.5 50t-21.5 71.5q0 29 9.5 49t24.5 33.5
t33.5 21t36.5 10.5q-42 10 -67.5 30t-25.5 57t28.5 55t77.5 19q-95 52 -95 164q0 97 72 149t206 52q51 0 97 -8q-29 21 -49.5 47.5t-27.5 60.5q-57 13 -107 35.5t-94 51.5t-84.5 63t-78.5 70q-80 -25 -161.5 -46t-165 -36.5t-169.5 -24t-176 -8.5q-44 0 -100.5 1.5
t-115.5 8.5t-115 21.5t-100.5 41t-71.5 66.5t-27 99q0 58 25 101t66.5 73t94.5 49.5t108 30.5t108 15t95 4q93 0 170 -15.5t142 -43t119.5 -63.5t103 -77.5t93 -86t88.5 -87.5q131 41 261 88.5t267 92.5q-45 59 -70 129.5t-25 156.5q0 54 13.5 97t36.5 74.5t53 50.5t63 25
q4 1 17 0.5t16 -13.5q4 -17 -5.5 -24t-19.5 -9q-35 -9 -61.5 -29t-45.5 -49t-28.5 -64.5t-9.5 -75.5q0 -78 23.5 -142.5t65.5 -118.5q106 35 216 66.5t227.5 55t242.5 37.5t261 14q52 0 112.5 -4t122 -14t118.5 -28t101 -46t70.5 -68t26.5 -93q0 -61 -36 -102.5t-92 -69
t-123.5 -43t-131 -23t-114 -9t-72.5 -1.5q-84 0 -173 6.5t-177.5 21.5t-174 38.5t-162 57.5t-141 79t-112.5 102q-135 -45 -264.5 -92t-260.5 -89q36 -35 73.5 -66.5t78 -58.5t86 -48t97.5 -34v11q0 63 43 105t130 42q49 0 80.5 -9.5t49 -24.5t24 -32.5t6.5 -33.5
q0 -43 -41 -69.5t-134 -26.5q-34 0 -64.5 3t-59.5 8q12 -41 44 -70t73 -54q54 -24 82 -67.5t28 -103.5q0 -97 -72 -149t-206 -52zM-19 843q-44 42 -87.5 85t-91 82.5t-100 74.5t-114 60.5t-134 40.5t-159.5 15q-40 0 -91 -4t-104.5 -14t-104 -28t-90.5 -46t-64 -67t-24 -92
q0 -54 26.5 -90.5t70 -60.5t98.5 -37.5t111.5 -20t109 -7.5t92.5 -1q175 0 337 31t319 79zM571 1025q46 -55 109.5 -97.5t139.5 -75t161.5 -55.5t175 -37.5t180.5 -21t179 -6.5q13 0 56.5 1.5t101 8t121.5 20.5t117 39.5t88 63.5t35 94q0 50 -26.5 87t-70.5 63t-101 42
t-117.5 25.5t-120 13t-108.5 3.5q-131 0 -252.5 -13.5t-235.5 -36.5t-221.5 -53.5t-210.5 -64.5zM504 612q75 0 117.5 18.5t42.5 56.5q0 14 -7 28.5t-22 26t-39 19t-59 7.5q-32 0 -59.5 -7.5t-47.5 -23t-32 -39t-12 -55.5v-10t1 -10q28 -5 56.5 -8t60.5 -3zM341 129
q61 0 103.5 14t68 38t37 56.5t11.5 69.5t-11.5 69.5t-37.5 57t-68 38.5t-103 14t-103 -14t-68 -38.5t-37.5 -57t-11.5 -69.5t11 -69.5t37 -56.5t68 -38t104 -14zM206 -26q-20 0 -44 -4.5t-46 -16t-36.5 -30.5t-14.5 -49q0 -33 22.5 -57.5t61 -40.5t89.5 -24t108 -8
q128 0 195 36t67 99q0 26 -13.5 43.5t-43.5 28t-77 15t-114 4.5q-40 0 -79 0.5t-75 3.5z" />
    <glyph glyph-name="h.ss03" 
d="M157 357q5 23 18.5 49.5t37 49t58.5 37.5t85 15q98 0 140 -45t42 -146v-257q0 -18 9.5 -29t24.5 -11h26v-20h-175v20h25q16 0 25.5 9.5t9.5 25.5v278q0 28 -5.5 55t-20.5 48t-41.5 34t-68.5 13t-77 -15.5t-60.5 -45.5t-39.5 -74t-14 -100v-188q0 -18 9.5 -29t25.5 -11h25
v-20h-175v20h25q16 0 25.5 9.5t9.5 25.5v409q0 136 30.5 243.5t88.5 192.5l-164 58t-167 58q-72 -86 -180.5 -144t-235.5 -93.5t-262.5 -51t-261.5 -15.5q-22 0 -72.5 1.5t-113.5 9t-131 22.5t-124 42.5t-92 69.5t-36 103q0 53 26.5 92.5t71 67.5t101.5 46t118.5 28t122 14
t112.5 4q135 0 260.5 -13.5t243 -37t228 -54.5t216.5 -66q42 54 64.5 118t22.5 142q0 40 -9.5 75.5t-28 64t-45.5 49t-61 29.5q-10 2 -20 9t-6 24q1 7 6 10t10.5 3.5t10.5 0t7 -0.5q33 -6 63 -25t53 -50.5t36.5 -74.5t13.5 -97q0 -86 -25 -156.5t-70 -128.5
q85 -29 167.5 -57.5t163.5 -57.5q60 81 144.5 139t189 95t227 54.5t259.5 17.5q65 0 134 -4t134.5 -15t124 -30.5t102.5 -49.5t69.5 -73t25.5 -101q0 -59 -27 -99t-71.5 -67t-100.5 -41.5t-115 -21.5t-115.5 -8.5t-100.5 -1.5q-116 0 -225 14t-214.5 38t-208.5 55.5
t-206 67.5q-50 -78 -76 -178.5t-27 -227.5v-125zM271 905q102 -35 204 -66.5t206 -55t211.5 -37.5t220.5 -14q39 0 92 1.5t109.5 7.5t111.5 19.5t98.5 38t70 61t26.5 90.5q0 53 -24.5 92t-66 67t-96 46t-114 28t-120.5 14t-115 4q-142 0 -266 -16t-227 -51.5t-184 -91.5
t-137 -137zM-134 1024q-104 34 -211.5 65t-221.5 53.5t-235 36t-251 13.5q-49 0 -108.5 -3.5t-120 -12.5t-117.5 -25.5t-101.5 -42.5t-71 -62.5t-26.5 -86.5q0 -56 35 -94t88.5 -63.5t117 -39.5t121.5 -20.5t101.5 -8t56.5 -1.5q87 0 178.5 6.5t180.5 21t174.5 37t161 55
t139 75t110.5 97.5z" />
    <glyph glyph-name="i.ss03" horiz-adv-x="257" 
d="M124 708q26 0 33 -11.5t7 -40.5t-7 -40t-33 -11q-25 0 -32 11t-7 40q0 59 16.5 118.5t51.5 116.5q-90 31 -179 63t-181 63q-48 -57 -113 -102t-141.5 -79t-161.5 -57.5t-173.5 -38.5t-178 -21.5t-173.5 -6.5q-22 0 -72.5 1.5t-113.5 9t-131 22.5t-124 42.5t-92 69.5
t-36 103q0 53 26.5 92.5t70.5 67.5t101.5 46t119 28t122 14t112.5 4q136 0 261 -13.5t242 -37t227.5 -55t216.5 -66.5q42 54 65 118.5t23 142.5q0 40 -9.5 75.5t-28 64t-45.5 49t-61 29.5q-10 2 -20 9t-6 24q1 7 6 10t10.5 3.5t10.5 0t7 -0.5q33 -6 63 -25t53 -50.5
t36.5 -74.5t13.5 -97q0 -86 -25 -156.5t-70 -129.5q92 -31 180.5 -62.5t177.5 -62.5q44 66 114.5 123.5t168.5 100.5t225 68t285 25q65 0 134 -4t134.5 -15t124 -30.5t102.5 -49.5t69.5 -73t25.5 -101q0 -59 -27 -99t-71.5 -67t-100.5 -41.5t-115 -21.5t-115.5 -8.5
t-100.5 -1.5q-114 0 -222 13.5t-211.5 37t-205 54.5t-201.5 66q-52 -84 -63 -176q2 0 5 0.5t6 0.5zM186 899q100 -34 200 -64.5t202.5 -53t208.5 -36t219 -13.5q39 0 92 1.5t109.5 7.5t111.5 19.5t98.5 38t70 61t26.5 90.5q0 53 -26 92t-69 67t-99.5 46t-118 28t-123.5 14
t-117 4q-157 0 -283 -23.5t-223 -64t-166.5 -95.5t-112.5 -119zM-230 1025q-104 34 -211.5 64.5t-221.5 53t-235 36t-252 13.5q-49 0 -108.5 -3.5t-120 -12.5t-117.5 -25.5t-101.5 -42.5t-71 -62.5t-26.5 -86.5q0 -56 35 -94t88.5 -63.5t117 -39.5t121.5 -20.5t101.5 -8
t56.5 -1.5q131 0 269 15t265 49.5t234 90.5t177 138zM66 20q16 0 25.5 9.5t9.5 25.5v390q0 16 -9.5 25.5t-25.5 9.5h-25v20h115v-440q0 -18 9.5 -29t25.5 -11h25v-20h-175v20h25z" />
    <glyph glyph-name="j.ss03" horiz-adv-x="240" 
d="M124 708q26 0 33 -11.5t7 -40.5t-7 -40t-33 -11q-25 0 -32 11t-7 40q0 63 18 122t50 113q-90 31 -179 63t-181 63q-48 -57 -113 -102t-141.5 -79t-161.5 -57.5t-173.5 -38.5t-178 -21.5t-173.5 -6.5q-22 0 -72.5 1.5t-113.5 9t-131 22.5t-124 42.5t-92 69.5t-36 103
q0 53 26.5 92.5t70.5 67.5t101.5 46t119 28t122 14t112.5 4q136 0 261 -13.5t242 -37t227.5 -55t216.5 -66.5q42 54 65 118.5t23 142.5q0 40 -9.5 75.5t-28 64t-45.5 49t-61 29.5q-10 2 -20 9t-6 24q1 7 6 10t10.5 3.5t10.5 0t7 -0.5q33 -6 63 -25t53 -50.5t36.5 -74.5
t13.5 -97q0 -86 -25 -156.5t-70 -129.5q92 -31 180.5 -62.5t177.5 -62.5q44 66 114.5 123.5t168.5 100.5t225 68t285 25q65 0 134 -4t134.5 -15t124 -30.5t102.5 -49.5t69.5 -73t25.5 -101q0 -59 -27 -99t-71.5 -67t-100.5 -41.5t-115 -21.5t-115.5 -8.5t-100.5 -1.5
q-114 0 -222 13.5t-211.5 37t-205 54.5t-201.5 66q-52 -84 -63 -176q2 0 5 0.5t6 0.5zM186 899q100 -34 200 -64.5t202.5 -53t208.5 -36t219 -13.5q39 0 92 1.5t109.5 7.5t111.5 19.5t98.5 38t70 61t26.5 90.5q0 53 -26 92t-69 67t-99.5 46t-118 28t-123.5 14t-117 4
q-157 0 -283 -23.5t-223 -64t-166.5 -95.5t-112.5 -119zM-230 1025q-104 34 -211.5 64.5t-221.5 53t-235 36t-252 13.5q-49 0 -108.5 -3.5t-120 -12.5t-117.5 -25.5t-101.5 -42.5t-71 -62.5t-26.5 -86.5q0 -56 35 -94t88.5 -63.5t117 -39.5t121.5 -20.5t101.5 -8t56.5 -1.5
q131 0 269 15t265 49.5t234 90.5t177 138zM101 445q0 16 -9.5 25.5t-25.5 9.5h-25v20h115v-625q0 -64 -26 -96t-89 -32v20q10 0 20.5 3.5t19.5 15t14.5 33.5t5.5 59v567z" />
    <glyph glyph-name="k.ss03" horiz-adv-x="618" 
d="M66 20q16 0 25.5 9.5t9.5 25.5v409q0 136 30.5 243.5t88.5 192.5l-164 58t-167 58q-72 -86 -180.5 -144t-235.5 -93.5t-262.5 -51t-261.5 -15.5q-22 0 -72.5 1.5t-113.5 9t-131 22.5t-124 42.5t-92 69.5t-36 103q0 53 26.5 92.5t71 67.5t101.5 46t118.5 28t122 14
t112.5 4q135 0 260.5 -13.5t243 -37t228 -54.5t216.5 -66q42 54 64.5 118t22.5 142q0 40 -9.5 75.5t-28 64t-45.5 49t-61 29.5q-10 2 -20 9t-6 24q1 7 6 10t10.5 3.5t10.5 0t7 -0.5q33 -6 63 -25t53 -50.5t36.5 -74.5t13.5 -97q0 -86 -25 -156.5t-70 -128.5
q85 -29 167.5 -57.5t163.5 -57.5q60 81 144.5 139t189 95t227 54.5t259.5 17.5q65 0 134 -3.5t134.5 -14t124 -28.5t102.5 -47.5t69.5 -72t25.5 -100.5q0 -59 -27 -99.5t-71.5 -68t-100.5 -43t-115 -23.5t-115.5 -10t-100.5 -2q-116 0 -225 14t-214.5 38t-208.5 55.5
t-206 67.5q-49 -78 -75 -176t-28 -223v-243l242 186q29 23 30.5 36t-20.5 13h-19v20h166v-20h-24q-26 0 -54 -18.5t-56 -40.5l-101 -78l168 -278q4 -7 11.5 -15t16.5 -14.5t18.5 -11t18.5 -4.5h24v-20h-186v20h22q21 0 21 13.5t-11 31.5l-148 244l-119 -92v-157
q0 -18 9.5 -29t25.5 -11h25v-20h-175v20h25zM271 905q102 -35 204 -66.5t206 -55t211.5 -37.5t220.5 -14q39 0 92 2t109.5 9t111.5 21.5t98.5 39.5t70 62t26.5 91q0 53 -24.5 91.5t-66 65.5t-96 44t-114 26.5t-120.5 13t-115 3.5q-142 0 -266 -16t-227 -51.5t-184 -91.5
t-137 -137zM-134 1024q-104 34 -211.5 65t-221.5 53.5t-235 36t-251 13.5q-49 0 -108.5 -3.5t-120 -12.5t-117.5 -25.5t-101.5 -42.5t-71 -62.5t-26.5 -86.5q0 -56 35 -94t88.5 -63.5t117 -39.5t121.5 -20.5t101.5 -8t56.5 -1.5q87 0 178.5 6.5t180.5 21t174.5 37t161 55
t139 75t110.5 97.5z" />
    <glyph glyph-name="l.ss03" horiz-adv-x="257" 
d="M66 20q16 0 25.5 14t9.5 37v393q0 136 30.5 243.5t88.5 192.5l-164 58t-167 58q-72 -86 -180.5 -144t-235.5 -93.5t-262.5 -51t-261.5 -15.5q-22 0 -72.5 1.5t-113.5 9t-131 22.5t-124 42.5t-92 69.5t-36 103q0 53 26.5 92.5t71 67.5t101.5 46t118.5 28t122 14t112.5 4
q135 0 260.5 -13.5t243 -37t228 -54.5t216.5 -66q42 54 64.5 118t22.5 142q0 40 -9.5 75.5t-28 64t-45.5 49t-61 29.5q-10 2 -20 9t-6 24q1 7 6 10t10.5 3.5t10.5 0t7 -0.5q33 -6 63 -25t53 -50.5t36.5 -74.5t13.5 -97q0 -86 -25 -156.5t-70 -128.5q85 -29 167.5 -57.5
t163.5 -57.5q60 81 144.5 139t189 95t227 54.5t259.5 17.5q65 0 134 -4t134.5 -15t124 -30.5t102.5 -49.5t69.5 -73t25.5 -101q0 -59 -27 -99t-71.5 -67t-100.5 -41.5t-115 -21.5t-115.5 -8.5t-100.5 -1.5q-116 0 -225 14t-214.5 38t-208.5 55.5t-206 67.5
q-50 -78 -76 -178.5t-27 -227.5v-405q0 -26 9.5 -41t25.5 -15h25v-20h-175v20h25zM271 905q102 -35 204 -66.5t206 -55t211.5 -37.5t220.5 -14q39 0 92 1.5t109.5 7.5t111.5 19.5t98.5 38t70 61t26.5 90.5q0 53 -24.5 92t-66 67t-96 46t-114 28t-120.5 14t-115 4
q-142 0 -266 -16t-227 -51.5t-184 -91.5t-137 -137zM-134 1024q-104 34 -211.5 65t-221.5 53.5t-235 36t-251 13.5q-49 0 -108.5 -3.5t-120 -12.5t-117.5 -25.5t-101.5 -42.5t-71 -62.5t-26.5 -86.5q0 -56 35 -94t88.5 -63.5t117 -39.5t121.5 -20.5t101.5 -8t56.5 -1.5
q87 0 178.5 6.5t180.5 21t174.5 37t161 55t139 75t110.5 97.5z" />
    <glyph glyph-name="m.ss03" horiz-adv-x="1020" 
d="M66 20q16 0 25.5 9.5t9.5 25.5v375q0 19 -1 39.5t-6 43t-15 46.5t-27 49q-16 22 -51 59.5t-89.5 83.5t-128.5 97.5t-167 101.5q-125 -45 -249 -87.5t-250.5 -75.5t-258 -53.5t-272.5 -20.5q-44 0 -100.5 1.5t-115.5 8.5t-115 21.5t-100.5 41t-71.5 66.5t-27 99
q0 58 25.5 101t66.5 73t94 49.5t108.5 30.5t108.5 15t95 4q177 0 331.5 -20.5t288 -55t246 -80t205.5 -95.5q43 15 85.5 30t86.5 29q-45 59 -70 129.5t-25 156.5q0 54 13.5 97t36.5 74.5t53 50.5t63 25q2 0 7 0.5t10.5 0t10 -3.5t6.5 -10q4 -17 -6 -24t-20 -9
q-35 -9 -61.5 -29t-45 -49t-28 -64.5t-9.5 -75.5q0 -78 23 -142.5t65 -118.5q106 35 216.5 66.5t228 55t242.5 37.5t261 14q52 0 112.5 -4t122 -14t118.5 -28t101 -46t70.5 -68t26.5 -93q0 -61 -36 -102.5t-92 -69t-124 -43t-131 -23t-113.5 -9t-72.5 -1.5q-84 0 -173.5 6.5
t-178 21.5t-173.5 38.5t-161.5 57.5t-141 79t-112.5 102q-42 -14 -82.5 -28t-80.5 -28q87 -49 156 -98.5t121 -93.5t87 -80.5t54 -58.5q20 -26 36.5 -49.5t28.5 -49t19 -54t7 -63.5v-51q6 23 19.5 48.5t37.5 47t59 35.5t84 14q87 0 129.5 -35t50.5 -113q5 23 19 49t38 48
t60 36.5t85 14.5q98 0 140 -45t42 -146v-257q0 -18 9.5 -29t24.5 -11h26v-20h-176v20h26q16 0 25.5 9.5t9.5 25.5v278q0 28 -5.5 55t-21 48t-42 34t-68.5 13t-76.5 -15.5t-60 -45.5t-39.5 -74t-14 -100v-188q0 -18 9.5 -29t24.5 -11h26v-20h-175v20h25q16 0 25.5 9.5
t9.5 25.5v278q0 28 -5.5 55t-20.5 48t-41.5 34t-68.5 13t-77 -15.5t-60.5 -45.5t-39.5 -74t-14 -100v-188q0 -18 9.5 -29t25.5 -11h25v-20h-175v20h25zM-406 962q-92 48 -203 91.5t-240.5 76t-278 52t-316.5 19.5q-40 0 -91 -4t-104 -14t-104 -28t-90.5 -46t-64 -67
t-24.5 -92q0 -54 26.5 -90.5t70 -60.5t98.5 -37.5t111.5 -20t109.5 -7.5t92 -1q137 0 265.5 19.5t252.5 51.5t245.5 73t244.5 85zM-168 1025q70 -82 177 -138t234 -90.5t265 -49.5t269 -15q13 0 57 1.5t101.5 8t121.5 20.5t117 39.5t88 63.5t35 94q0 50 -26.5 87t-71 63
t-101.5 42t-117.5 25.5t-120 13t-108.5 3.5q-131 0 -252 -13.5t-235 -36.5t-222 -53.5t-211 -64.5z" />
    <glyph glyph-name="n.ss03" 
d="M66 20q16 0 25.5 9.5t9.5 25.5v375q0 19 -1 39.5t-6 43t-15 46.5t-27 49q-16 22 -51 59.5t-89.5 83.5t-128.5 97.5t-167 101.5q-125 -45 -249 -87.5t-250.5 -75.5t-258 -53.5t-272.5 -20.5q-44 0 -100.5 1.5t-115.5 8.5t-115 21.5t-100.5 41t-71.5 66.5t-27 99
q0 58 25.5 101t66.5 73t94 49.5t108.5 30.5t108.5 15t95 4q177 0 331.5 -20.5t288 -55t246 -80t205.5 -95.5q43 15 85.5 30t86.5 29q-45 59 -70 129.5t-25 156.5q0 54 13.5 97t36.5 74.5t53 50.5t63 25q2 0 7 0.5t10.5 0t10 -3.5t6.5 -10q4 -17 -6 -24t-20 -9
q-35 -9 -61.5 -29t-45 -49t-28 -64.5t-9.5 -75.5q0 -78 23 -142.5t65 -118.5q106 35 216.5 66.5t228 55t242.5 37.5t261 14q52 0 112.5 -4t122 -14t118.5 -28t101 -46t70.5 -68t26.5 -93q0 -61 -36 -102.5t-92 -69t-124 -43t-131 -23t-113.5 -9t-72.5 -1.5q-84 0 -173.5 6.5
t-178 21.5t-173.5 38.5t-161.5 57.5t-141 79t-112.5 102q-42 -14 -82.5 -28t-80.5 -28q87 -49 156 -98.5t121 -93.5t87 -80.5t54 -58.5q20 -26 36.5 -49.5t28.5 -49t19 -54t7 -63.5v-51q6 23 19.5 48.5t37.5 47t59 35.5t84 14q98 0 140 -45t42 -146v-257q0 -18 9.5 -29
t24.5 -11h26v-20h-175v20h25q16 0 25.5 9.5t9.5 25.5v278q0 28 -5.5 55t-20.5 48t-41.5 34t-68.5 13t-77 -15.5t-60.5 -45.5t-39.5 -74t-14 -100v-188q0 -18 9.5 -29t25.5 -11h25v-20h-175v20h25zM-406 962q-92 48 -203 91.5t-240.5 76t-278 52t-316.5 19.5q-40 0 -91 -4
t-104 -14t-104 -28t-90.5 -46t-64 -67t-24.5 -92q0 -54 26.5 -90.5t70 -60.5t98.5 -37.5t111.5 -20t109.5 -7.5t92 -1q137 0 265.5 19.5t252.5 51.5t245.5 73t244.5 85zM-168 1025q70 -82 177 -138t234 -90.5t265 -49.5t269 -15q13 0 57 1.5t101.5 8t121.5 20.5t117 39.5
t88 63.5t35 94q0 50 -26.5 87t-71 63t-101.5 42t-117.5 25.5t-120 13t-108.5 3.5q-131 0 -252 -13.5t-235 -36.5t-222 -53.5t-211 -64.5z" />
    <glyph glyph-name="o.ss03" horiz-adv-x="613" 
d="M306 -8q-127 0 -196 66.5t-69 191.5q0 45 10.5 81t26.5 62.5t35.5 43.5t36.5 25l8 -10q-24 -19 -41.5 -65.5t-17.5 -135.5q0 -49 10.5 -92t35 -75t64 -50.5t98.5 -18.5q58 0 97.5 18.5t64 50.5t35 75t10.5 92q0 43 -10.5 86.5t-36.5 78.5q-47 -65 -93 -104.5t-102 -39.5
q-42 0 -70 25.5t-28 77.5q0 58 39.5 95.5t118.5 37.5q45 0 80.5 -11t61.5 -30q28 42 57.5 90t63.5 99t72.5 103.5t83.5 103.5q-110 37 -219 76.5t-222 77.5q-48 -57 -113 -102t-141.5 -79t-161.5 -57.5t-173.5 -38.5t-178 -21.5t-173.5 -6.5q-22 0 -72.5 1.5t-113.5 9
t-131 23t-124 43t-92 69t-36 102.5q0 53 26.5 93t70.5 68t101 46t118.5 28t122 14t112.5 4q136 0 261.5 -14t242.5 -37.5t227.5 -55t216.5 -66.5q42 54 65 118.5t23 142.5q0 40 -9.5 75.5t-28 64.5t-45.5 49t-61 29q-10 2 -20 9t-6 24q1 7 6 10t10.5 3.5t10.5 0t7 -0.5
q33 -6 63 -25t53 -50.5t36.5 -74.5t13.5 -97q0 -86 -25 -156.5t-70 -129.5q114 -38 223.5 -77.5t219.5 -76.5q64 70 142.5 133t176 110t216.5 75t265 28q42 0 95 -4t108.5 -15t108.5 -30.5t94 -49.5t66.5 -73t25.5 -101t-27 -98.5t-71.5 -67t-100.5 -41t-115 -21.5
t-115.5 -8.5t-100.5 -1.5q-102 0 -199 11t-191 30t-185 44.5t-181 55.5q-46 -51 -85 -104t-73.5 -105t-65.5 -101t-60 -92q42 -38 60.5 -93t18.5 -109q0 -125 -69 -191.5t-197 -66.5zM790 870q89 -29 178.5 -54t181.5 -43.5t187.5 -29t195.5 -10.5q39 0 92 1t109.5 7.5
t111.5 20t98.5 37.5t70 60.5t26.5 90.5q0 53 -24.5 92t-64 67t-90.5 46t-104 28t-104 14t-91 4q-140 0 -255 -26.5t-209.5 -71.5t-170.5 -105.5t-138 -127.5zM287 1025q-104 34 -211.5 64.5t-221.5 53.5t-235 36.5t-252 13.5q-49 0 -108.5 -3.5t-120 -13t-117.5 -25.5
t-101.5 -42t-71 -63t-26.5 -87q0 -56 35 -94t88 -63.5t117 -39.5t121.5 -20.5t101.5 -8t57 -1.5q131 0 269 15t265 49.5t234 90.5t177 138zM272 292q50 0 92.5 39t87.5 103q-22 23 -53 37t-73 14q-27 0 -51 -7t-42 -21.5t-28 -35t-10 -47.5q0 -40 22.5 -61t54.5 -21z" />
    <glyph glyph-name="p.ss03" horiz-adv-x="660" 
d="M66 -180q16 0 25.5 9.5t9.5 25.5v590q0 16 -9.5 25.5t-25.5 9.5h-25v20h115v-212q0 -58 11.5 -107.5t37 -85.5t67 -56.5t100.5 -20.5q48 0 84 18t59 49t34.5 72.5t11.5 87.5q0 47 -10 87t-31 72q-45 -54 -92 -85.5t-106 -31.5q-21 0 -41.5 6t-36.5 18.5t-25.5 31.5
t-9.5 45q0 25 9.5 47t29 38t50 25.5t71.5 9.5q100 0 163 -51q30 41 61 89.5t65 101t72.5 106.5t83.5 107q-112 37 -223 77.5t-226 78.5q-48 -57 -113 -102t-141.5 -79t-161.5 -57.5t-173.5 -38.5t-178 -21.5t-173.5 -6.5q-22 0 -72.5 1.5t-113.5 9t-131 23t-124 43t-92 69
t-36 102.5q0 53 26.5 93t70.5 68t101.5 46t119 28t122 14t112.5 4q136 0 261 -14t242.5 -37.5t227.5 -55t216 -66.5q42 54 65.5 118.5t23.5 142.5q0 40 -9.5 75.5t-28.5 64.5t-46 49t-61 29q-10 2 -19.5 9t-5.5 24q3 13 16 13.5t17 -0.5q33 -6 63 -25t53 -50.5t36.5 -74.5
t13.5 -97q0 -86 -25 -156.5t-70 -129.5q116 -38 227 -78.5t223 -77.5q61 70 137.5 133t173 111t216 76t266.5 28q42 0 95 -4t108.5 -15t108.5 -30.5t94.5 -49.5t66.5 -73t25 -101t-27 -98.5t-71.5 -67t-100.5 -41t-115 -21.5t-115.5 -8.5t-100.5 -1.5q-101 0 -197 10.5
t-189 29.5t-183.5 44.5t-179.5 54.5q-46 -53 -85 -108t-74 -108.5t-67 -103t-63 -91.5q33 -33 51.5 -82t18.5 -113q0 -61 -16.5 -108t-46.5 -79.5t-72.5 -49.5t-93.5 -17q-88 0 -147.5 36t-87.5 114v-342h-115v20h25zM852 868q88 -29 177 -53.5t180 -42.5t185.5 -28.5
t193.5 -10.5q39 0 92 1t109.5 7.5t111.5 20t98.5 37.5t70 60.5t26.5 90.5q0 53 -24 92t-64 67t-90.5 46t-104 28t-104.5 14t-91 4q-141 0 -256 -26.5t-208 -72.5t-167.5 -106.5t-134.5 -127.5zM342 1025q-104 34 -211.5 64.5t-221.5 53.5t-235 36.5t-252 13.5
q-49 0 -108.5 -3.5t-120 -13t-117.5 -25.5t-101.5 -42t-71 -63t-26.5 -87q0 -56 35 -94t88.5 -63.5t117 -39.5t121.5 -20.5t101.5 -8t56.5 -1.5q131 0 269 15t265 49.5t234 90.5t177 138zM322 307q54 0 98 31t86 84q-25 30 -61.5 47t-85.5 17q-34 0 -58.5 -8.5t-40 -22
t-23 -31t-7.5 -35.5q0 -38 25 -60t67 -22z" />
    <glyph glyph-name="q.ss03" horiz-adv-x="661" 
d="M505 500h115v-20h-25q-16 0 -25.5 -9.5t-9.5 -25.5v-586q0 -17 8.5 -28t25.5 -11h26v-20h-175v20h25q16 0 25.5 9.5t9.5 25.5v288q-28 -78 -88 -114.5t-148 -36.5q-51 0 -93 17t-72 49.5t-46.5 79.5t-16.5 108q0 64 18 113t52 83q-32 42 -63.5 91.5t-66.5 102.5t-74 108
t-85 108q-90 -29 -180 -54.5t-183 -44.5t-189 -29.5t-197 -10.5q-44 0 -100.5 1.5t-115.5 8.5t-115 21.5t-100.5 41t-71.5 66.5t-27 99q0 58 25 101t66.5 73t94.5 49.5t108 30.5t108 15t95 4q148 0 267 -28t215.5 -76t173 -111t138.5 -133q112 37 223 77.5t227 78.5
q-45 59 -70 129.5t-25 156.5q0 54 13.5 97t36.5 74.5t53 50.5t63 25q4 1 17 0.5t16 -13.5q4 -17 -5.5 -24t-19.5 -9q-35 -9 -61.5 -29t-45.5 -49t-28.5 -64.5t-9.5 -75.5q0 -78 23.5 -142.5t65.5 -118.5q106 35 216 66.5t227.5 55t242.5 37.5t261 14q52 0 112.5 -4t122 -14
t118.5 -28t101 -46t70.5 -68t26.5 -93q0 -61 -36 -102.5t-92 -69t-123.5 -43t-131 -23t-114 -9t-72.5 -1.5q-84 0 -173 6.5t-177.5 21.5t-174 38.5t-162 57.5t-141 79t-112.5 102q-115 -38 -226 -78.5t-223 -77.5q45 -53 83.5 -107.5t72.5 -106.5t64.5 -100.5t60.5 -89.5
q64 51 164 51q41 0 71.5 -9.5t50 -25.5t29 -38t9.5 -47q0 -26 -9.5 -45t-25.5 -31.5t-36.5 -18.5t-42.5 -6q-58 0 -105.5 31.5t-92.5 85.5q-41 -64 -41 -159q0 -46 11.5 -87.5t35 -72.5t59.5 -49t84 -18q59 0 100.5 20.5t67 56.5t37 85.5t11.5 107.5v212zM-192 868
q-60 67 -134 127.5t-167 106.5t-208 72.5t-256 26.5q-40 0 -91 -4t-104.5 -14t-104 -28t-90.5 -46t-64 -67t-24 -92q0 -54 26.5 -90.5t70 -60.5t98.5 -37.5t111.5 -20t109 -7.5t92.5 -1q99 0 193.5 10.5t185.5 28.5t179.5 42.5t176.5 53.5zM319 1025q46 -55 109.5 -97.5
t139.5 -75t161.5 -55.5t175 -37.5t180.5 -21t179 -6.5q13 0 56.5 1.5t101 8t121.5 20.5t117 39.5t88 63.5t35 94q0 50 -26.5 87t-70.5 63t-101 42t-117.5 25.5t-120 13t-108.5 3.5q-131 0 -252.5 -13.5t-235.5 -36.5t-221.5 -53.5t-210.5 -64.5zM338 307q43 0 68 22t25 60
q0 18 -7.5 35.5t-23.5 31t-40 22t-58 8.5q-49 0 -85.5 -17t-62.5 -46q43 -54 87 -85t97 -31z" />
    <glyph glyph-name="r.ss03" horiz-adv-x="478" 
d="M411 422q-5 20 -14.5 29.5t-32.5 9.5q-43 0 -80.5 -15.5t-66 -43.5t-45 -67.5t-16.5 -86.5v-188q0 -18 9.5 -29t25.5 -11h25v-20h-175v20h25q16 0 25.5 9.5t9.5 25.5v375q0 19 -1 39.5t-6 43t-15 46.5t-27 49q-16 22 -51 59.5t-89.5 83.5t-128.5 97.5t-167 101.5
q-125 -45 -249 -87.5t-250.5 -75.5t-258 -53.5t-272.5 -20.5q-44 0 -100.5 1.5t-115.5 8.5t-115 21.5t-100.5 41t-71.5 66.5t-27 99q0 58 23.5 101t62.5 73t90.5 49.5t106.5 30.5t111 15t104 4q177 0 331.5 -20.5t288 -55t246 -80t205.5 -95.5q43 15 85.5 30t86.5 29
q-45 59 -70 129.5t-25 156.5q0 54 13.5 97t36.5 74.5t53 50.5t63 25q2 0 7 0.5t10.5 0t10 -3.5t6.5 -10q4 -17 -6 -24t-20 -9q-35 -9 -61.5 -29t-45 -49t-28 -64.5t-9.5 -75.5q0 -78 23 -142.5t65 -118.5q106 35 216.5 66.5t228 55t242.5 37.5t261 14q52 0 112.5 -4t122 -14
t118.5 -28t101 -46t70.5 -68t26.5 -93q0 -61 -36 -102.5t-92 -69t-124 -43t-131 -23t-113.5 -9t-72.5 -1.5q-84 0 -173.5 6.5t-178 21.5t-173.5 38.5t-161.5 57.5t-141 79t-112.5 102q-42 -14 -82.5 -28t-80.5 -28q87 -49 156 -98.5t121 -93.5t87 -80.5t54 -58.5
q20 -26 36.5 -49.5t28.5 -49t19 -54t7 -63.5v-72q4 20 21 48.5t44.5 54.5t64.5 44.5t83 18.5q20 0 30 -2t19 -6l20 -113h-19zM-406 962q-92 48 -203 91.5t-240.5 76t-278 52t-316.5 19.5q-47 0 -100 -4t-106.5 -14t-102.5 -28t-86.5 -46t-60 -67t-22.5 -92q0 -54 26.5 -90.5
t70 -60.5t98.5 -37.5t111.5 -20t109.5 -7.5t92 -1q137 0 265.5 19.5t252.5 51.5t245.5 73t244.5 85zM-168 1025q70 -82 177 -138t234 -90.5t265 -49.5t269 -15q13 0 57 1.5t101.5 8t121.5 20.5t117 39.5t88 63.5t35 94q0 50 -26.5 87t-71 63t-101.5 42t-117.5 25.5t-120 13
t-108.5 3.5q-131 0 -252 -13.5t-235 -36.5t-222 -53.5t-211 -64.5z" />
    <glyph glyph-name="s.ss03" horiz-adv-x="608" 
d="M292 487q-35 0 -66 -5.5t-55 -17t-38 -29.5t-14 -43q0 -35 31.5 -52.5t79.5 -28t103 -19t103 -25t79.5 -46t31.5 -82.5q0 -40 -19.5 -68t-52.5 -45.5t-76 -25.5t-89 -8q-47 0 -86 6.5t-66 15.5q-27 8 -39.5 5t-7.5 -30h-27l-24 117h21q10 -18 32 -34.5t53 -29.5t68 -21
t76 -8q88 0 136.5 29t48.5 88q0 31 -18.5 50.5t-48.5 32t-68.5 20t-79 14.5t-79 15.5t-68.5 23t-48.5 36.5t-18.5 56q0 35 19 60t51 40.5t75 22.5t90 7q38 0 69 -4t58 -12q15 -5 28 -8.5t21.5 -2.5t11.5 7.5t0 22.5q-26 96 -58.5 183.5t-80.5 164.5q-92 -31 -185 -57.5
t-188.5 -46.5t-194 -31.5t-202.5 -11.5q-44 0 -100.5 1.5t-115.5 8.5t-115 21.5t-100.5 41.5t-71.5 67t-27 99q0 58 25.5 101t69.5 73t102.5 49.5t124 30.5t134.5 15t134 4q145 0 259.5 -25.5t202.5 -71t152.5 -108t111.5 -135.5q106 35 211 73t214 75q-45 59 -70 129.5
t-25 156.5q0 54 13.5 97t36.5 74.5t53 50.5t63 25q4 1 17 0.5t16 -13.5q4 -17 -5.5 -24t-19.5 -9q-35 -9 -61.5 -29.5t-45.5 -49t-28.5 -64t-9.5 -75.5q0 -78 23.5 -142.5t65.5 -118.5q106 35 216 66t227.5 54.5t242.5 37.5t261 14q51 0 112 -4t122.5 -14t119 -28t101.5 -46
t70.5 -67.5t26.5 -92.5q0 -61 -36 -103t-92 -69.5t-124 -42.5t-131 -22.5t-114 -9t-73 -1.5q-84 0 -173 6.5t-177.5 21.5t-174 38.5t-162 57.5t-141 79t-112.5 102q-109 -37 -214.5 -75t-211.5 -74q50 -82 82 -172.5t55 -184.5l24 -117h-21q-8 18 -28 35t-49.5 30t-67 20.5
t-80.5 7.5zM339 875q-48 73 -113 133.5t-153.5 103t-203 66t-261.5 23.5q-55 0 -116 -4t-120.5 -14t-113.5 -28t-95.5 -46t-66 -67t-24.5 -92q0 -54 26.5 -90.5t70 -61t98.5 -38t111.5 -19.5t109.5 -7.5t92 -1.5q102 0 199.5 11t191.5 30.5t185.5 45.5t182.5 56zM826 1025
q46 -55 109.5 -97.5t139.5 -75t161.5 -55.5t175 -37.5t180.5 -21t179 -6.5q13 0 56.5 1.5t101 8t121.5 20.5t117 39.5t88 63.5t35 94q0 50 -26.5 86.5t-70.5 62.5t-101 42.5t-117.5 25.5t-120 12.5t-108.5 3.5q-131 0 -252.5 -13.5t-235.5 -36t-221.5 -53t-210.5 -64.5z" />
    <glyph glyph-name="t.ss03" horiz-adv-x="364" 
d="M149 500h175v-20h-175v-321q0 -55 13 -85.5t36.5 -44t55.5 -14t70 4.5v-20q-51 -9 -93.5 -8.5t-73 16t-47 48.5t-16.5 90l1 334h-104v20h104l10 42q15 94 8.5 178t-38.5 156q-98 -34 -197 -63.5t-200.5 -52t-207 -35.5t-216.5 -13q-44 0 -100.5 1.5t-115.5 8.5t-115 21.5
t-100.5 41.5t-71.5 67t-27 99q0 58 25.5 101t69.5 73t102.5 49.5t124 30.5t134.5 15t134 4q167 0 296.5 -21.5t225 -62.5t160 -100.5t100.5 -136.5q91 32 182.5 64.5t186.5 64.5q-45 59 -70 129.5t-25 156.5q0 54 13.5 97t36.5 74.5t53 50.5t63 25q4 1 17 0.5t16 -13.5
q4 -17 -5.5 -24t-19.5 -9q-35 -9 -61.5 -29.5t-45.5 -49t-28.5 -64t-9.5 -75.5q0 -78 23.5 -142.5t65.5 -118.5q106 35 216 66t227.5 54.5t242.5 37.5t261 14q51 0 112 -4t122.5 -14t118.5 -28t101 -46t70.5 -67.5t26.5 -92.5q0 -61 -36 -103t-92 -69.5t-123.5 -42.5
t-131 -22.5t-114 -9t-72.5 -1.5q-84 0 -173 6.5t-177.5 21.5t-174 38.5t-162 57.5t-141 79t-112.5 102q-96 -32 -188 -65.5t-185 -65.5q23 -54 34 -116.5t11 -131.5v-138zM67 893q-35 71 -99 128t-160 97t-226.5 61.5t-299.5 21.5q-55 0 -116 -4t-120.5 -14t-113.5 -28
t-95.5 -46t-66 -67t-24.5 -92q0 -54 26.5 -90.5t70 -61t98.5 -38t111.5 -19.5t109 -7.5t92.5 -1.5q110 0 214 13t204.5 34.5t198.5 51t196 62.5zM500 1025q46 -55 109.5 -97.5t139.5 -75t161.5 -55.5t175 -37.5t180.5 -21t179 -6.5q13 0 56.5 1.5t101 8t121.5 20.5t117 39.5
t88 63.5t35 94q0 50 -26.5 86.5t-70.5 62.5t-101 42.5t-117.5 25.5t-120 12.5t-108.5 3.5q-131 0 -252.5 -13.5t-235.5 -36t-221.5 -53t-210.5 -64.5z" />
    <glyph glyph-name="u.ss03" 
d="M482 143q-5 -23 -18.5 -49.5t-37 -49t-59 -37.5t-85.5 -15q-97 0 -139 45t-42 145v248q0 19 -1 39.5t-6 43t-15 46.5t-27 49q-16 22 -51 59.5t-89.5 83.5t-128.5 97.5t-167 101.5q-125 -45 -249 -87.5t-250.5 -75.5t-258 -53.5t-272.5 -20.5q-44 0 -100.5 1.5t-115.5 8.5
t-115 21.5t-100.5 41t-71.5 66.5t-27 99q0 58 25.5 101t66.5 73t94 49.5t108.5 30.5t108.5 15t95 4q177 0 331.5 -20.5t288 -55t246 -80t205.5 -95.5q43 15 85.5 30t86.5 29q-45 59 -70 129.5t-25 156.5q0 54 13.5 97t36.5 74.5t53 50.5t63 25q2 0 7 0.5t10.5 0t10 -3.5
t6.5 -10q4 -17 -6 -24t-20 -9q-35 -9 -61.5 -29t-45 -49t-28 -64.5t-9.5 -75.5q0 -78 23 -142.5t65 -118.5q106 35 216.5 66.5t228 55t242.5 37.5t261 14q52 0 112.5 -4t122 -14t118.5 -28t101 -46t70.5 -68t26.5 -93q0 -61 -36 -102.5t-92 -69t-124 -43t-131 -23t-113.5 -9
t-72.5 -1.5q-84 0 -173.5 6.5t-178 21.5t-173.5 38.5t-161.5 57.5t-141 79t-112.5 102q-42 -14 -82.5 -28t-80.5 -28q87 -49 156 -98.5t121 -93.5t87 -80.5t54 -58.5q20 -26 36.5 -49.5t28.5 -49t19 -54t7 -63.5v-247q0 -28 5.5 -55t20.5 -48t41.5 -34t68.5 -13t77 15.5
t60.5 45.5t39.5 74t14 100v188q0 18 -9.5 29t-25.5 11h-25v20h115v-445q0 -16 9.5 -25.5t24.5 -9.5h26v-20h-115v144zM-406 962q-92 48 -203 91.5t-240.5 76t-278 52t-316.5 19.5q-40 0 -91 -4t-104 -14t-104 -28t-90.5 -46t-64 -67t-24.5 -92q0 -54 26.5 -90.5t70 -60.5
t98.5 -37.5t111.5 -20t109.5 -7.5t92 -1q137 0 265.5 19.5t252.5 51.5t245.5 73t244.5 85zM-168 1025q70 -82 177 -138t234 -90.5t265 -49.5t269 -15q13 0 57 1.5t101.5 8t121.5 20.5t117 39.5t88 63.5t35 94q0 50 -26.5 87t-71 63t-101.5 42t-117.5 25.5t-120 13
t-108.5 3.5q-131 0 -252 -13.5t-235 -36.5t-222 -53.5t-211 -64.5z" />
    <glyph glyph-name="v.ss03" horiz-adv-x="560" 
d="M331 92q-20 -46 -10 -64q8 -8 22 -8h20v-20h-152v20h22q9 0 17 3q5 3 2.5 11.5t-7.5 20.5l-171 390q-7 16 -17.5 25.5t-28.5 9.5h-27v20h185v-20h-26q-21 0 -26.5 -9.5t1.5 -25.5l163 -374q3 5 5.5 10.5t4.5 10.5l177 408q24 57 55.5 115.5t72.5 116t94 113t119 106.5
q-47 17 -94.5 33.5t-95.5 32.5q-48 -57 -112.5 -102t-141 -79t-162 -57.5t-174 -38.5t-177.5 -21.5t-173 -6.5q-22 0 -73 1.5t-114 9t-131 23t-124 43t-92 69t-36 102.5q0 53 26.5 93t70.5 68t101.5 46t119 28t122 14t112.5 4q136 0 261 -14t242.5 -37.5t227.5 -55
t216 -66.5q42 54 65.5 118.5t23.5 142.5q0 40 -9.5 75.5t-28.5 64.5t-46 49t-61 29q-10 2 -19.5 9t-5.5 24q3 13 16 13.5t17 -0.5q33 -6 63 -25t53 -50.5t36.5 -74.5t13.5 -97q0 -86 -25 -156.5t-70 -129.5q50 -17 99 -34t97 -34q78 57 177 104.5t222 82t273 54t330 19.5
q47 0 106 -3t119.5 -13t117.5 -28t101.5 -48.5t71.5 -74.5t27 -106q0 -58 -27 -98.5t-71.5 -67t-100.5 -41t-115 -21.5t-115.5 -8.5t-100.5 -1.5q-137 0 -265 19.5t-252 51t-244.5 72.5t-242.5 85q-69 -50 -123.5 -105.5t-96.5 -112t-73 -113.5t-54 -110zM873 954
q120 -43 238.5 -83t240 -70.5t247.5 -49t260 -18.5q39 0 92 1t109.5 7.5t111.5 20t98.5 37.5t70 60.5t26.5 90.5q0 56 -26 96.5t-69 68.5t-98 45t-113 26t-114.5 12t-102.5 3q-173 0 -317 -18.5t-263.5 -51.5t-216.5 -78.5t-174 -98.5zM613 1025q-104 34 -211 64.5
t-221 53.5t-235.5 36.5t-252.5 13.5q-49 0 -108.5 -3.5t-120 -13t-117.5 -25.5t-101 -42t-70.5 -63t-26.5 -87q0 -56 35 -94t88 -63.5t117 -39.5t121.5 -20.5t101 -8t56.5 -1.5q131 0 269 15t265 49.5t234.5 90.5t176.5 138z" />
    <glyph glyph-name="w.ss03" horiz-adv-x="875" 
d="M484 480l-17 -42l146 -366q3 5 5.5 10t4.5 10l177 408q24 57 55.5 115.5t73 116t94 113t119.5 106.5q-48 17 -95 33.5t-96 32.5q-48 -57 -112.5 -102t-141 -79t-161.5 -57.5t-173.5 -38.5t-178 -21.5t-173.5 -6.5q-22 0 -72.5 1.5t-113.5 9t-131 23t-124 43t-92 69
t-36 102.5q0 53 26.5 93t70.5 68t101 46t118.5 28t122 14t112.5 4q136 0 261 -14t242.5 -37.5t228 -55t216.5 -66.5q42 54 65 118.5t23 142.5q0 40 -9.5 75.5t-28 64.5t-45.5 49t-61 29q-10 2 -20 9t-6 24q1 7 6 10t10.5 3.5t10.5 0t7 -0.5q33 -6 63 -25t53 -50.5
t36.5 -74.5t13.5 -97q0 -86 -25.5 -156.5t-70.5 -129.5q51 -17 99.5 -34t97.5 -34q78 57 176.5 104.5t221.5 82t273 54t330 19.5q48 0 106.5 -3t119 -13t118 -28t102 -48.5t71.5 -74.5t27 -106q0 -58 -27 -98.5t-71.5 -67t-101 -41t-115.5 -21.5t-115.5 -8.5t-100.5 -1.5
q-137 0 -265 19.5t-251.5 51t-244.5 72.5t-243 85q-69 -50 -123.5 -105.5t-96.5 -112t-73 -113.5t-54 -110l-177 -408q-11 -25 -13 -40.5t3 -23.5q8 -8 22 -8h20v-20h-152v20h22q9 0 17 3q5 3 2 11.5t-8 20.5l-121 309l-107 -272q-19 -48 -9 -64q8 -8 21 -8h20v-20h-152v20
h22q7 0 17 2q5 4 2.5 12.5t-7.5 20.5l-171 390q-7 16 -17.5 25.5t-28.5 9.5h-27v20h185v-20h-26q-21 0 -26.5 -9.5t1.5 -25.5l164 -374q4 9 9 21l153 388h23zM1189 954q120 -43 238.5 -83t240 -70.5t247 -49t259.5 -18.5q39 0 92 1t109.5 7.5t111.5 20t98.5 37.5t70 60.5
t26.5 90.5q0 56 -26 96.5t-69 68.5t-98 45t-113 26t-114.5 12t-102.5 3q-173 0 -317 -18.5t-263.5 -51.5t-216 -78.5t-173.5 -98.5zM928 1025q-103 34 -210.5 64.5t-221.5 53.5t-235 36.5t-252 13.5q-49 0 -108.5 -3.5t-120 -13t-117.5 -25.5t-101.5 -42t-71 -63t-26.5 -87
q0 -56 35 -94t88 -63.5t117 -39.5t121.5 -20.5t101.5 -8t57 -1.5q87 0 178.5 6.5t181 21t174.5 37.5t161 55.5t139.5 75t109.5 97.5z" />
    <glyph glyph-name="x.ss03" horiz-adv-x="625" 
d="M46 480v20h199v-20h-26q-21 0 -20 -9t12 -26l115 -165l159 220q37 52 79.5 109t93 115t111.5 115.5t135 110.5q-48 17 -96.5 33.5t-97.5 33.5q-48 -57 -113 -102t-141.5 -79t-161.5 -57.5t-173.5 -38.5t-178 -21.5t-173.5 -6.5q-22 0 -72.5 1.5t-113.5 9t-131 23t-124 43
t-92 69t-36 102.5q0 53 26.5 93t70.5 68t101.5 46t118.5 28t122 14t112 4q136 0 261.5 -14t242.5 -37.5t227.5 -55t216.5 -66.5q42 54 65 118.5t23 142.5q0 40 -9.5 75.5t-28 64.5t-45.5 49t-61 29q-10 2 -20 9t-6 24q1 7 6 10t10.5 3.5t10.5 0t7 -0.5q33 -6 63 -25
t53 -50.5t36.5 -74.5t13.5 -97q0 -86 -25 -156.5t-70 -129.5q51 -17 100.5 -34.5t99.5 -35.5q82 56 182.5 104t223 83t269 55t322.5 20q48 0 106.5 -3t119 -13t118 -28t102 -48.5t71.5 -74.5t27 -106q0 -58 -27 -98.5t-71.5 -67t-100.5 -41t-115 -21.5t-115.5 -8.5
t-100.5 -1.5q-137 0 -264.5 19t-250 50.5t-243 72.5t-241.5 84q-77 -53 -139 -110t-113 -114t-93 -112t-78 -103l-172 -239l137 -196q19 -28 35.5 -36.5t39.5 -8.5h28v-20h-193v20h16q16 0 17.5 10.5t-9.5 26.5l-116 165l-93 -130q-27 -37 -29 -54.5t14 -17.5h24v-20h-165
l1 20h35q23 0 45 17.5t49 54.5l106 149l-143 204q-11 17 -25.5 26t-37.5 9h-29zM953 952q119 -42 237 -81.5t238.5 -70t245.5 -49t259 -18.5q39 0 92 1t109.5 7.5t111.5 20t98.5 37.5t70 60.5t26.5 90.5q0 56 -26 96.5t-69 68.5t-98 45t-113.5 26t-115 12t-102.5 3
q-168 0 -310 -19t-260.5 -52.5t-216 -79t-177.5 -98.5zM687 1025q-104 34 -211.5 64.5t-221.5 53.5t-235 36.5t-252 13.5q-49 0 -108.5 -3.5t-120 -13t-117.5 -25.5t-101.5 -42t-71 -63t-26.5 -87q0 -56 35 -94t88.5 -63.5t117 -39.5t121.5 -20.5t101.5 -8t56.5 -1.5
q131 0 269 15t265 49.5t234 90.5t177 138z" />
    <glyph glyph-name="y.ss03" horiz-adv-x="560" 
d="M1 480v20h185v-20h-26q-21 0 -26.5 -9.5t1.5 -25.5l164 -374l186 429q24 57 55.5 115.5t72.5 116t94 113t119 106.5q-47 17 -94.5 33.5t-95.5 32.5q-48 -57 -112.5 -102t-141 -79t-162 -57.5t-174 -38.5t-177.5 -21.5t-173 -6.5q-22 0 -73 1.5t-114 9t-131 23t-124 43
t-92 69t-36 102.5q0 53 26.5 93t70.5 68t101.5 46t119 28t122 14t112.5 4q136 0 261 -14t242.5 -37.5t227.5 -55t216 -66.5q42 54 65.5 118.5t23.5 142.5q0 40 -9.5 75.5t-28.5 64.5t-46 49t-61 29q-10 2 -19.5 9t-5.5 24q3 13 16 13.5t17 -0.5q33 -6 63 -25t53 -50.5
t36.5 -74.5t13.5 -97q0 -86 -25 -156.5t-70 -129.5q50 -17 99 -34t97 -34q78 57 177 104.5t222 82t273 54t330 19.5q47 0 106 -3t119.5 -13t117.5 -28t101.5 -48.5t71.5 -74.5t27 -106q0 -58 -27 -98.5t-71.5 -67t-100.5 -41t-115 -21.5t-115.5 -8.5t-100.5 -1.5
q-137 0 -265 19.5t-252 51t-244.5 72.5t-242.5 85q-69 -50 -123.5 -105.5t-96.5 -112t-73 -113.5t-54 -110l-216 -498q-26 -60 -57.5 -98t-65 -58t-67 -23t-63.5 8l-29 102l20 6l9 -31q6 -21 21 -27t36 -6q43 0 89.5 30.5t81.5 97.5l-193 442q-7 16 -17.5 25.5t-28.5 9.5
h-27zM873 954q120 -43 238.5 -83t240 -70.5t247.5 -49t260 -18.5q39 0 92 1t109.5 7.5t111.5 20t98.5 37.5t70 60.5t26.5 90.5q0 56 -26 96.5t-69 68.5t-98 45t-113 26t-114.5 12t-102.5 3q-173 0 -317 -18.5t-263.5 -51.5t-216.5 -78.5t-174 -98.5zM613 1025
q-104 34 -211 64.5t-221 53.5t-235.5 36.5t-252.5 13.5q-49 0 -108.5 -3.5t-120 -13t-117.5 -25.5t-101 -42t-70.5 -63t-26.5 -87q0 -56 35 -94t88 -63.5t117 -39.5t121.5 -20.5t101 -8t56.5 -1.5q131 0 269 15t265 49.5t234.5 90.5t176.5 138z" />
    <glyph glyph-name="z.ss03" horiz-adv-x="580" 
d="M190 480q-50 0 -76.5 -31t-38.5 -80h-20l27 142q17 94 48 185.5t82 173.5q-104 35 -207.5 73t-211.5 74q-48 -57 -113 -102t-141.5 -79t-161.5 -57.5t-173.5 -38.5t-178 -21.5t-173.5 -6.5q-22 0 -72.5 1.5t-113.5 9t-131 22.5t-124 42.5t-92 69.5t-36 103
q0 53 26.5 92.5t70.5 67.5t101.5 46t119 28t122 14t112.5 4q136 0 261 -13.5t242 -37t227.5 -55t216.5 -66.5q42 54 65 118.5t23 142.5q0 40 -9.5 75.5t-28 64t-45.5 49t-61 29.5q-10 2 -20 9t-6 24q1 7 6 10t10.5 3.5t10.5 0t7 -0.5q33 -6 63 -25t53 -50.5t36.5 -74.5
t13.5 -97q0 -86 -25 -156.5t-70 -129.5q107 -36 210.5 -73t206.5 -72q48 73 114 134.5t155.5 106.5t204.5 70.5t260 25.5q65 0 134 -4t134.5 -15t124 -30.5t102.5 -49.5t69.5 -73t25.5 -101q0 -59 -27 -99t-71.5 -67t-100.5 -41.5t-115 -21.5t-115.5 -8.5t-100.5 -1.5
q-105 0 -204.5 11.5t-196 32t-190 47.5t-186.5 58q-46 -73 -76.5 -156.5t-51.5 -174.5l1 1q-5 -17 3 -24t29 -7h369l-1 -20l-358 -418q-17 -20 -14 -31t19 -11h235q53 0 81 30t39 81h21l-30 -162h-20q4 21 -7 26t-32 5h-400v20l364 425q13 16 9.5 25.5t-23.5 9.5h-206z
M249 878q92 -31 184.5 -57.5t187.5 -46t193 -31t202 -11.5q39 0 92 1.5t109.5 7.5t111.5 19.5t98.5 38t70 61t26.5 90.5q0 53 -24.5 92t-66 67t-96 46t-114 28t-120.5 14t-115 4q-147 0 -262.5 -23t-205.5 -65.5t-156.5 -102t-114.5 -132.5zM-230 1025q-104 34 -211.5 64.5
t-221.5 53t-235 36t-252 13.5q-49 0 -108.5 -3.5t-120 -12.5t-117.5 -25.5t-101.5 -42.5t-71 -62.5t-26.5 -86.5q0 -56 35 -94t88.5 -63.5t117 -39.5t121.5 -20.5t101.5 -8t56.5 -1.5q131 0 269 15t265 49.5t234 90.5t177 138z" />
    <glyph glyph-name="a.ss04" horiz-adv-x="625" 
d="M67 381q5 17 15 32q29 63 38 123.5t1 117t-32 109t-62 100.5q-109 -30 -218 -57.5t-221 -48t-228 -33t-239 -12.5q-44 0 -100.5 1.5t-115.5 8.5t-115 21.5t-100.5 41.5t-71.5 67t-27 99q0 58 25.5 101t69.5 73t102.5 49.5t124 30.5t134.5 15t134 4q135 0 262.5 -25
t239.5 -69.5t203.5 -106.5t153.5 -136q141 39 285.5 78t299 70.5t322.5 51.5t355 20q103 0 202 -14t177 -47t125.5 -87t47.5 -134q0 -57 -16.5 -91t-36.5 -34q-8 0 -12 7.5t-4 18.5q0 10 4 21.5t9.5 25t9.5 29.5t4 36q0 48 -21.5 84.5t-59.5 64t-89 46.5t-109 30.5
t-121 16.5t-125 5q-182 0 -345 -19.5t-314.5 -50t-293.5 -69t-280 -76.5q72 -94 92 -199.5t-28 -217.5q29 24 74.5 39.5t108.5 15.5q116 0 170 -45t54 -146v-257q0 -18 9 -29t25 -11h26v-20h-115v128q-24 -63 -87 -99.5t-152 -36.5t-140 38.5t-51 115.5q0 48 24 82
t62.5 56.5t86 35.5t95.5 20t90.5 8.5t70.5 1.5q-1 25 -8 49t-25.5 43t-52 30t-87.5 11q-81 0 -135.5 -28.5t-73.5 -73.5h-20zM13 879q-63 73 -156 132.5t-205.5 101.5t-240.5 65t-262 23q-55 0 -116 -4t-120.5 -14t-113.5 -28t-95.5 -46t-66 -67t-24.5 -92q0 -54 26.5 -90.5
t70 -61t98.5 -38t111.5 -19.5t109.5 -7.5t92 -1.5q121 0 235 12t224.5 32t217.5 47t215 56zM470 330q-68 0 -134.5 -8.5t-119 -29t-85.5 -56.5t-33 -92q0 -26 9 -49t28 -39.5t49 -26t73 -9.5q42 0 81 13.5t68 37t46.5 56t17.5 70.5v133z" />
    <glyph glyph-name="b.ss04" horiz-adv-x="660" 
d="M66 20q16 0 25.5 6t9.5 17v421q0 135 32 242.5t91 192.5q-144 50 -290.5 102t-302.5 94t-325.5 68.5t-358.5 26.5q-49 0 -107 -3.5t-116.5 -13t-113 -26t-96.5 -41.5t-67.5 -60.5t-25.5 -83.5q0 -20 4.5 -36t9.5 -29.5t9.5 -25t4.5 -21.5q0 -11 -4 -18.5t-12 -7.5
q-20 0 -37 34t-17 91q0 53 25.5 93.5t68 70t99 48.5t118 30.5t124 16t118.5 4.5q194 0 367.5 -27.5t333 -70t308.5 -95.5t295 -104q60 81 144.5 139.5t188.5 96t226 55.5t258 18q65 0 134 -4t134.5 -15t124 -30.5t102.5 -49.5t69.5 -73t25.5 -101q0 -59 -27 -99t-71.5 -67
t-100.5 -41.5t-115 -21.5t-115.5 -8.5t-100.5 -1.5q-114 0 -222 13.5t-212.5 37t-205.5 54.5t-202 66q-56 -85 -85.5 -195t-29.5 -251v-45q26 59 80 87.5t130 28.5q118 0 186 -67t68 -195q0 -61 -16.5 -108t-46.5 -79.5t-72.5 -49.5t-93.5 -17q-88 0 -147.5 36t-87.5 114
v-142h-115v20h25zM282 899q100 -34 200 -64.5t202.5 -53t209 -36t219.5 -13.5q39 0 92 1.5t109.5 7.5t111.5 19.5t98.5 38t70 61t26.5 90.5q0 53 -24.5 92t-66 67t-96 46t-114 28t-120.5 14t-115 4q-139 0 -260.5 -16.5t-223 -53t-182 -94t-137.5 -138.5zM372 18q48 0 84 18
t59 49t34.5 72.5t11.5 87.5q0 51 -12 95.5t-37.5 76.5t-65.5 50.5t-96 18.5q-48 0 -83.5 -15t-59.5 -41t-37 -62t-14 -79v-1q0 -58 11.5 -107.5t37 -85.5t67 -56.5t100.5 -20.5z" />
    <glyph glyph-name="c.ss04" horiz-adv-x="585" 
d="M322 26q73 0 123 28t69 70h20q-10 -27 -29.5 -51t-49 -42t-67.5 -28.5t-84 -10.5q-58 0 -106.5 17t-83 50t-54 81t-19.5 110t18.5 110t53 81t83 50t108.5 17q27 0 56 -4.5t55 -15.5q13 -5 23.5 -8t17 -1.5t9 9t-1.5 23.5q-23 87 -54.5 166.5t-75.5 151.5
q-93 -24 -187.5 -45.5t-191 -37.5t-197 -25t-206.5 -9q-44 0 -100.5 1.5t-115.5 8.5t-115 21.5t-100.5 41.5t-71.5 67t-27 99q0 58 23.5 101t63 73t92.5 49.5t111 30.5t118 15t115 4q163 0 290 -28t224.5 -77.5t168.5 -117.5t121 -147q156 41 314 85.5t326.5 82t352.5 61.5
t392 24q68 0 135.5 -6t129 -19.5t114 -35t91 -53t60.5 -73.5t22 -95q0 -57 -16.5 -91t-36.5 -34q-9 0 -13 7.5t-4 18.5q0 10 4.5 21.5t9.5 25t9.5 29.5t4.5 36q0 48 -21.5 84.5t-59.5 64t-89 46.5t-109.5 30.5t-121.5 16.5t-125 5q-202 0 -382 -23.5t-345.5 -60t-321 -80.5
t-309.5 -85q46 -76 76 -158t50 -167l31 -117h-20h-1q-11 18 -26.5 35t-37 30t-49.5 21t-64 8q-55 0 -96 -18t-68.5 -49.5t-41 -73.5t-13.5 -90t13.5 -90t41.5 -73.5t69.5 -49.5t98.5 -18zM322 847q-51 79 -120 144.5t-162.5 112t-214 72t-273.5 25.5q-55 0 -114 -4
t-115.5 -14t-107 -28t-89 -46t-61 -67t-22.5 -92q0 -54 26.5 -90.5t70 -61t98.5 -38t111.5 -19.5t109.5 -7.5t92 -1.5q104 0 203 9t194.5 24.5t188.5 36.5t185 45z" />
    <glyph glyph-name="d.ss04" horiz-adv-x="661" 
d="M620 0h-115v143q-28 -78 -88 -114.5t-148 -36.5q-51 0 -93 17t-72 49.5t-46.5 79.5t-16.5 108q0 128 68 195t186 67q76 0 130 -28.5t80 -87.5v72q0 135 32 242.5t91 192.5q-144 50 -290.5 102t-302.5 94t-325.5 68.5t-358.5 26.5q-49 0 -107 -3.5t-116.5 -13t-113 -26
t-96.5 -41.5t-67 -60.5t-25 -83.5q0 -20 4 -36t9.5 -29.5t9.5 -25t4 -21.5q0 -11 -4 -18.5t-12 -7.5q-20 0 -37 34t-17 91q0 53 25.5 93.5t68 70t99 48.5t118 30.5t124 16t118.5 4.5q194 0 367.5 -27.5t333 -70t308.5 -95.5t295 -104q60 81 144.5 139.5t188.5 96t226 55.5
t258 18q65 0 134 -4t134.5 -15t124 -30.5t102.5 -49.5t69.5 -73t25.5 -101q0 -59 -27 -99t-71.5 -67t-100.5 -41.5t-115 -21.5t-115.5 -8.5t-100.5 -1.5q-114 0 -222 13.5t-212.5 37t-205.5 54.5t-202 66q-56 -85 -85.5 -195t-29.5 -251v-9v-373q0 -16 9.5 -25.5t25.5 -9.5
h25v-20zM686 899q100 -34 200 -64.5t202.5 -53t209 -36t219.5 -13.5q39 0 92 1.5t109.5 7.5t111.5 19.5t98.5 38t70 61t26.5 90.5q0 53 -24.5 92t-66 67t-96 46t-114 28t-120.5 14t-115 4q-138 0 -259.5 -16.5t-223.5 -53t-182.5 -94t-137.5 -138.5zM289 18q59 0 100.5 20.5
t67 56.5t37 85.5t11.5 107.5q-2 43 -14.5 79t-36.5 62.5t-59.5 41.5t-83.5 15q-56 0 -96 -18.5t-66 -50.5t-38 -76.5t-12 -95.5q0 -46 11.5 -87.5t35 -72.5t59.5 -49t84 -18z" />
    <glyph glyph-name="e.ss04" horiz-adv-x="601" 
d="M145 386q0 10 0.5 19t0.5 19q-23 -29 -36.5 -71t-13.5 -98q0 -114 58 -171.5t164 -57.5q50 0 85 11.5t58 27.5t35 32.5t16 26.5h20q-3 -17 -17 -39.5t-41.5 -43t-69 -35t-99.5 -14.5q-70 0 -120 21t-82.5 56t-47.5 80t-15 93q0 82 27 142.5t85 93.5q21 137 99.5 253
t202.5 209q-131 46 -265.5 91.5t-277 81t-296 57.5t-322.5 22q-49 0 -107 -3t-116.5 -12t-113 -25t-96.5 -41.5t-67 -62t-25 -86.5q0 -20 4 -36t9.5 -29.5t9.5 -25t4 -21.5q0 -11 -4 -18.5t-12 -7.5q-20 0 -36.5 30.5t-16.5 105.5q0 53 26.5 92.5t70.5 67.5t101.5 46t119 28
t122 14t112.5 4q176 0 335 -22.5t306 -59t284.5 -82.5t271.5 -93q89 63 196.5 113t229.5 84.5t255.5 53t274.5 18.5q57 0 120.5 -4t125.5 -15t118.5 -30.5t99.5 -49.5t68.5 -73t25.5 -101q0 -59 -27 -99t-71.5 -67t-100.5 -41.5t-115 -21.5t-115.5 -8.5t-100.5 -1.5
q-134 0 -259 18.5t-246 49t-239 70t-237 81.5q-121 -88 -198 -198t-100 -241q52 21 126 21q86 0 139 -28t80.5 -70t33 -90t-4.5 -87h-239q-39 0 -70 8t-53.5 25.5t-34.5 45.5t-12 69zM498 946q118 -41 234 -79.5t234.5 -68.5t241 -48t251.5 -18q39 0 92 1.5t109.5 7.5
t111.5 19.5t98.5 38t70 61t26.5 90.5q0 53 -24.5 92t-66 67t-96 46t-115 28t-123 14t-118.5 4q-134 0 -263 -17t-247 -49.5t-223.5 -80t-192.5 -108.5zM503 282q2 47 -8 86t-33.5 66.5t-61 43t-90.5 15.5q-39 0 -73.5 -10t-62.5 -32q-1 -14 -1.5 -27.5t-1.5 -27.5
q0 -41 10 -67.5t29 -42t46 -22t62 -6.5h160q15 0 19.5 6.5t5.5 17.5z" />
    <glyph glyph-name="f.ss04" horiz-adv-x="488" 
d="M161 500h230v-20h-230v-425q0 -16 9 -25.5t25 -9.5h26v-20h-176v20h26q16 0 25.5 9.5t9.5 25.5v425h-65v20h65v23q0 51 14.5 86.5t40 57t60 31.5t73.5 10q19 0 37.5 -2t35.5 -8q23 -6 32.5 -4.5t5.5 18.5q-19 66 -49 123q-96 -25 -193 -47.5t-196.5 -39t-203 -26.5
t-212.5 -10q-44 0 -100.5 1.5t-115.5 8.5t-115 21.5t-100.5 41.5t-71.5 67t-27 99q0 58 25.5 101t69.5 73t102.5 49.5t124 30.5t134.5 15t134 4q150 0 271 -28.5t214.5 -77.5t160.5 -116t110 -143q153 41 309 85t322.5 80t348 59.5t386.5 23.5q68 0 135.5 -6t129 -19.5
t114 -35t91 -53t60.5 -73.5t22 -95q0 -57 -16.5 -91t-36.5 -34q-9 0 -13 7.5t-4 18.5q0 10 4.5 21.5t9.5 25t9.5 29.5t4.5 36q0 48 -21.5 84.5t-59.5 64t-89 46.5t-109.5 30.5t-121.5 16.5t-125 5q-199 0 -376.5 -23t-341 -58.5t-317.5 -79t-306 -83.5q32 -61 49 -129
l23 -88h-20q-8 22 -38.5 42t-87.5 20q-41 0 -68.5 -12.5t-43.5 -33t-22.5 -47.5t-6.5 -56v-37zM347 853q-44 77 -112.5 141t-163 110t-217 71.5t-274.5 25.5q-55 0 -116 -4t-120.5 -14t-114 -28t-96 -46t-66 -67t-24.5 -92q0 -54 26.5 -90.5t70 -61t98.5 -38t111.5 -19.5
t109.5 -7.5t92 -1.5q108 0 210 9.5t200 26t194 38.5t192 47z" />
    </font>
</defs>
</svg>
