<?xml version="1.0" standalone="no"?>
<!DOCTYPE svg PUBLIC "-//W3C//DTD SVG 1.1//EN" "http://www.w3.org/Graphics/SVG/1.1/DTD/svg11.dtd" >
<svg xmlns="http://www.w3.org/2000/svg" xmlns:xlink="http://www.w3.org/1999/xlink" version="1.1">
<metadata>
Created by FontForge 20170731 at Tue Jun 27 20:59:05 2023
 By Aleksey,,,
Copyright (c) 2023 by Maulana Creative. All rights reserved.
</metadata>
<defs>
<font id="Elfark" horiz-adv-x="576" >
  <font-face 
    font-family="Elfark"
    font-weight="400"
    font-stretch="normal"
    units-per-em="1000"
    panose-1="2 0 0 0 0 0 0 0 0 0"
    ascent="750"
    descent="-250"
    x-height="451"
    cap-height="678"
    bbox="-345 -289 1209 920"
    underline-thickness="50"
    underline-position="-150"
    unicode-range="U+0020-FB06"
  />
<missing-glyph horiz-adv-x="500" 
d="M93 750h317v-1000h-317v1000zM333 650v33h-165v-33h65v-37h-66v-33h166v33h-66v37h66zM267 484v70h-100v-104h166v34h-66zM200 520h33v-36h-33v36zM333 390v33h-166v-33h66v-37h-66v-33h100v70h66zM333 263v100h-33v-66h-133v-34h166zM333 128v113h-100v-56h34v23h33v-47
h-100v80h-33v-113h166zM333 -45v113h-166v-113h166zM200 35h100v-47h-100v47zM333 -101v33h-166v-33h70l-70 -47v-33h166v33h-102l70 47h32z" />
    <glyph glyph-name="f_f" unicode="ff" horiz-adv-x="657" 
d="M144 0q-30 0 -120 -3l-1 15q63 1 72 28q10 29 10 290q0 51 -1 84q-50 0 -82 -1v23q48 -2 82 -2q0 139 51 203q56 71 160 71q79 0 142 -37q50 52 136 52q69 0 103.5 -34.5t34.5 -78.5q0 -32 -17.5 -52.5t-41.5 -20.5q-18 0 -28.5 11t-10.5 26q0 9 2 15q29 29 29 62
q0 26 -18.5 41.5t-50.5 15.5q-64 0 -89 -63q-12 -29 -14.5 -71t-2.5 -140q63 0 145 2l-1 -23q-39 1 -144 1q0 -326 7 -358q5 -23 19.5 -32.5t52.5 -11.5l-1 -15q-60 3 -113 3q-30 0 -120 -3l-1 15q63 1 72 28q10 29 10 290q0 51 -1 84h-235q0 -326 7 -358q5 -23 19.5 -32.5
t52.5 -11.5l-1 -15q-60 3 -113 3zM206 606q-27 -62 -27 -172h235q0 14 -0.5 45t-0.5 40q0 68 13 102q-12 31 -40.5 51t-66.5 20q-76 0 -113 -86z" />
    <glyph glyph-name="fi" unicode="fi" horiz-adv-x="593" 
d="M144 0q-30 0 -120 -3l-1 15q63 1 72 28q10 29 10 290q0 51 -1 84q-50 0 -82 -1v23q48 -2 82 -2q0 55 1.5 83t10.5 65t28 63q55 78 176 78q87 0 134 -40t47 -91q0 -31 -17.5 -49.5t-41.5 -18.5q-20 0 -31 13t-11 33q26 27 26 62q0 34 -30.5 54.5t-74.5 20.5
q-91 0 -124 -96q-18 -53 -18 -177q45 -1 164 -1q106 0 155 25l6 -4q-11 -101 -11 -246q0 -115 7 -152q5 -23 19.5 -32.5t52.5 -11.5l-1 -15q-60 3 -113 3q-30 0 -120 -3l-1 15q63 1 72 28q10 30 10 180q0 102 -4 142q-3 31 -16 41.5t-42 10.5h-178q0 -326 7 -358
q5 -23 19.5 -32.5t52.5 -11.5l-1 -15q-60 3 -113 3z" />
    <glyph glyph-name="fl" unicode="fl" horiz-adv-x="585" 
d="M144 0q-30 0 -120 -3l-1 15q63 1 72 28q10 29 10 290q0 51 -1 84q-50 0 -82 -1v23q48 -2 82 -2q0 56 1.5 85t10.5 68t28 64q53 72 163 72q86 0 133 -38q30 21 56 47l6 -4q-14 -94 -14 -402q0 -238 7 -270q5 -23 19.5 -32.5t52.5 -11.5l-1 -15q-60 3 -113 3q-30 0 -120 -3
l-1 15q63 1 72 28q10 29 10 274q0 268 -7 315q-6 36 -31 57t-67 21q-81 0 -112 -88q-18 -52 -18 -185q63 0 145 2l-1 -23q-39 1 -144 1q0 -326 7 -358q5 -23 19.5 -32.5t52.5 -11.5l-1 -15q-60 3 -113 3z" />
    <glyph glyph-name="f_f_i" unicode="ffi" horiz-adv-x="903" 
d="M144 0q-30 0 -120 -3l-1 15q63 1 72 28q10 29 10 290q0 51 -1 84q-50 0 -82 -1v23q48 -2 82 -2q0 139 51 203q56 71 160 71q87 0 154 -44q57 59 161 59q87 0 134 -40t47 -91q0 -31 -17.5 -49.5t-41.5 -18.5q-20 0 -31 13t-11 33q26 27 26 62q0 34 -31 54.5t-77 20.5
q-90 0 -121 -88q-18 -52 -18 -185q45 -1 164 -1q106 0 155 25l6 -4q-11 -101 -11 -246q0 -115 7 -152q5 -23 19.5 -32.5t52.5 -11.5l-1 -15q-60 3 -113 3q-30 0 -120 -3l-1 15q63 1 72 28q10 30 10 180q0 102 -4 142q-3 31 -16 41.5t-42 10.5h-178q0 -326 7 -358
q5 -23 19.5 -32.5t52.5 -11.5l-1 -15q-60 3 -113 3q-30 0 -120 -3l-1 15q63 1 72 28q10 29 10 290q0 51 -1 84h-235q0 -326 7 -358q5 -23 19.5 -32.5t52.5 -11.5l-1 -15q-60 3 -113 3zM206 606q-27 -62 -27 -172h235q0 118 18 169q-6 36 -37 62.5t-76 26.5q-76 0 -113 -86z
" />
    <glyph glyph-name="f_f_l" unicode="ffl" horiz-adv-x="895" 
d="M144 0q-30 0 -120 -3l-1 15q63 1 72 28q10 29 10 290q0 51 -1 84q-50 0 -82 -1v23q48 -2 82 -2q0 139 51 203q56 71 160 71q87 0 154 -44q57 59 150 59q84 0 131 -38q30 21 56 47l6 -4q-14 -94 -14 -402q0 -238 7 -270q5 -23 19.5 -32.5t52.5 -11.5l-1 -15q-60 3 -113 3
q-30 0 -120 -3l-1 15q63 1 72 28q10 29 10 274q0 268 -7 315q-6 36 -31 57t-67 21q-81 0 -112 -88q-18 -52 -18 -185q63 0 145 2l-1 -23q-39 1 -144 1q0 -326 7 -358q5 -23 19.5 -32.5t52.5 -11.5l-1 -15q-60 3 -113 3q-30 0 -120 -3l-1 15q63 1 72 28q10 29 10 290
q0 51 -1 84h-235q0 -326 7 -358q5 -23 19.5 -32.5t52.5 -11.5l-1 -15q-60 3 -113 3zM206 606q-27 -62 -27 -172h235q0 118 18 169q-6 36 -37 62.5t-76 26.5q-76 0 -113 -86z" />
    <glyph glyph-name=".notdef" horiz-adv-x="500" 
d="M93 750h317v-1000h-317v1000zM333 650v33h-165v-33h65v-37h-66v-33h166v33h-66v37h66zM267 484v70h-100v-104h166v34h-66zM200 520h33v-36h-33v36zM333 390v33h-166v-33h66v-37h-66v-33h100v70h66zM333 263v100h-33v-66h-133v-34h166zM333 128v113h-100v-56h34v23h33v-47
h-100v80h-33v-113h166zM333 -45v113h-166v-113h166zM200 35h100v-47h-100v47zM333 -101v33h-166v-33h70l-70 -47v-33h166v33h-102l70 47h32z" />
    <glyph glyph-name=".null" horiz-adv-x="0" 
 />
    <glyph glyph-name="nonmarkingreturn" horiz-adv-x="333" 
 />
    <glyph glyph-name="space" unicode=" " horiz-adv-x="303" 
 />
    <glyph glyph-name="exclam" unicode="!" horiz-adv-x="327" 
d="M196 432q-13 -127 -21 -261h-24q-8 134 -21 261q-3 31 -8 76t-7.5 72t-2.5 43q0 77 51 77t51 -77q0 -16 -2.5 -43t-7.5 -72t-8 -76zM220 44q0 -22 -17 -39t-40 -17t-39.5 17t-16.5 39q0 23 16.5 39.5t39.5 16.5t40 -16.5t17 -39.5z" />
    <glyph glyph-name="quotedbl" unicode="&#x22;" horiz-adv-x="316" 
d="M107 549q-9 -61 -12 -97h-14q-3 36 -12 97q-3 21 -7.5 46.5t-6.5 39.5t-2 25q0 16 9 26.5t26 10.5t26 -10.5t9 -26.5q0 -11 -2 -25t-6.5 -39.5t-7.5 -46.5zM247 549q-9 -61 -12 -97h-14q-3 36 -12 97q-3 21 -7.5 46.5t-6.5 39.5t-2 25q0 16 9 26.5t26 10.5t26 -10.5
t9 -26.5q0 -11 -2 -25t-6.5 -39.5t-7.5 -46.5z" />
    <glyph glyph-name="numbersign" unicode="#" horiz-adv-x="675" 
d="M224 212q-21 -108 -40 -229l-27 5q26 126 44 224q-97 0 -163 -3v24q88 -2 166 -2l39 212q-97 0 -163 -3v24q88 -2 166 -2q21 108 40 229l27 -5q-36 -175 -44 -224h182q21 108 40 229l27 -5q-26 -126 -44 -224q97 0 163 3v-24q-88 2 -166 2l-39 -212q97 0 163 3v-24
q-88 2 -166 2q-21 -108 -40 -229l-27 5q36 175 44 224h-182zM448 443h-182l-39 -212h182z" />
    <glyph glyph-name="dollar" unicode="$" horiz-adv-x="541" 
d="M293 -133h-30l2 120q-99 3 -162 50.5t-63 110.5q0 27 13 43t35 16q17 0 28.5 -9t13.5 -22q-4 -14 -4 -35q0 -52 33.5 -92t105.5 -43q2 184 2 293q-48 25 -77.5 43t-60 44.5t-45 58t-14.5 69.5q0 75 53.5 123t141.5 50l-2 120h30l-2 -121q76 -5 131 -41.5t55 -87.5
q0 -22 -10.5 -36.5t-31.5 -14.5q-27 0 -38 21q3 27 3 35q0 38 -26 69t-84 36q-1 -86 -1 -268q46 -24 66.5 -35.5t54.5 -35t49 -42.5t27.5 -48t12.5 -63q0 -78 -54.5 -131t-153.5 -57zM265 668q-57 -2 -92 -29t-35 -78t33.5 -84.5t95.5 -66.5q0 94 -2 258zM289 288
q0 -184 1 -282q61 4 98 36.5t37 87.5q0 53 -34 87.5t-102 70.5z" />
    <glyph glyph-name="percent" unicode="%" horiz-adv-x="625" 
d="M300 511q0 -58 -36 -95t-88 -37t-88 36.5t-36 94.5q0 57 36 94t88 37t88 -36.5t36 -93.5zM176 628q-34 0 -54.5 -32t-20.5 -86t21 -86t54 -32q34 0 54.5 32t20.5 86t-21 86t-54 32zM317 302q-131 -185 -202 -291l-23 16q95 130 216 300q131 185 202 291l23 -16
q-95 -130 -216 -300zM573 119q0 -58 -36 -95t-88 -37t-88 36.5t-36 94.5q0 57 36 94t88 37t88 -36.5t36 -93.5zM449 236q-34 0 -54.5 -32t-20.5 -86t21 -86t54 -32q34 0 54.5 32t20.5 86t-21 86t-54 32z" />
    <glyph glyph-name="ampersand" unicode="&#x26;" horiz-adv-x="733" 
d="M305 251q68 -130 150 -203q41 31 63.5 79t22.5 103q0 76 -38.5 128t-86.5 52q-23 0 -37 -13.5t-14 -36.5q0 -46 50 -61q2 -6 2 -13q0 -12 -8.5 -20t-22.5 -8q-25 0 -43.5 23t-18.5 53q0 35 26 63t78 28q71 0 124.5 -52t53.5 -130q0 -62 -35.5 -118.5t-97.5 -91.5
q60 -47 115 -47q34 0 50.5 18.5t16.5 45.5q0 16 -6 31q0 22 24 22q14 0 25 -10t11 -31q0 -41 -41 -67.5t-98 -26.5q-69 0 -142 43q-58 -21 -119 -21q-62 0 -117.5 18.5t-95 61t-39.5 100.5q0 31 10.5 57.5t33 50t39.5 37t49 36.5q-22 73 -22 146q0 81 31.5 135.5t98.5 54.5
q54 0 87 -35.5t33 -82.5q0 -16 -5 -32.5t-11.5 -29t-20.5 -28t-22.5 -24.5t-28 -23.5t-26.5 -19.5t-28 -19.5t-24 -16.5q22 -65 54 -125zM219 544q0 -69 26 -152q108 86 108 180q0 42 -17 71.5t-48 29.5q-36 0 -52.5 -37.5t-16.5 -91.5zM333 9q40 0 76 14q-87 59 -152 171
q-37 62 -61 136q-55 -58 -55 -134q0 -82 55 -134.5t137 -52.5z" />
    <glyph glyph-name="quotesingle" unicode="'" horiz-adv-x="176" 
d="M107 549q-9 -61 -12 -97h-14q-3 36 -12 97q-3 21 -7.5 46.5t-6.5 39.5t-2 25q0 16 9 26.5t26 10.5t26 -10.5t9 -26.5q0 -11 -2 -25t-6.5 -39.5t-7.5 -46.5z" />
    <glyph glyph-name="parenleft" unicode="(" horiz-adv-x="276" 
d="M243 691q-110 -165 -110 -458t110 -458l-9 -7q-166 200 -166 465t166 465z" />
    <glyph glyph-name="parenright" unicode=")" horiz-adv-x="276" 
d="M42 698q166 -200 166 -465t-166 -465l-9 7q110 165 110 458t-110 458z" />
    <glyph glyph-name="asterisk" unicode="*" horiz-adv-x="502" 
d="M240 272q-36 0 -38 37q44 52 44 141q0 15 -1 23q-28 -21 -63 -52q-23 -21 -33.5 -30t-24.5 -16t-26 -7q-18 0 -31.5 10.5t-13.5 27.5q0 25 20 34q12 -2 27 -2q71 0 136 48q-50 21 -101 35q-71 20 -71 62q0 18 10 29.5t27 11.5q11 0 21 -7q34 -79 120 -118q-5 44 -11 71
q-1 7 -5.5 23.5t-6.5 29t-2 23.5q0 24 12 39.5t33 15.5q36 0 38 -37q-44 -52 -44 -141q0 -15 1 -23q28 21 63 52q23 21 33.5 30t24.5 16t26 7q18 0 31.5 -10.5t13.5 -27.5q0 -25 -20 -34q-12 2 -27 2q-71 0 -136 -48q50 -21 101 -35q71 -20 71 -62q0 -18 -10 -29.5
t-27 -11.5q-11 0 -21 7q-34 79 -120 118q5 -44 11 -71q1 -7 5.5 -23.5t6.5 -29t2 -23.5q0 -24 -12 -39.5t-33 -15.5z" />
    <glyph glyph-name="plus" unicode="+" horiz-adv-x="644" 
d="M310 315q-123 0 -204 -3v29q81 -3 204 -3q0 121 -3 204h30q-3 -83 -3 -204q122 0 204 3v-29q-82 3 -204 3q0 -121 3 -204h-30q3 81 3 204z" />
    <glyph glyph-name="comma" unicode="," horiz-adv-x="322" 
d="M204 -77q-29 -46 -94 -62l-4 13q47 12 72.5 44.5t25.5 80.5q0 14 -1 22h-2q-4 -15 -17.5 -25t-31.5 -10q-24 0 -40.5 16.5t-16.5 43.5q0 26 15.5 44t43.5 18q34 0 53.5 -28t19.5 -71q0 -50 -23 -86z" />
    <glyph glyph-name="hyphen" unicode="-" horiz-adv-x="334" 
d="M163 272q-73 0 -110 -3v32q62 -2 96 -2q57 0 132 5v-36q-39 4 -118 4z" />
    <glyph glyph-name="period" unicode="." horiz-adv-x="313" 
d="M113 6q-18 18 -18 43t18 43.5t43 18.5t43.5 -18.5t18.5 -43.5t-18.5 -43t-43.5 -18t-43 18z" />
    <glyph glyph-name="slash" unicode="/" horiz-adv-x="412" 
d="M219 331q-109 -262 -164 -406l-35 14q102 231 174 403q93 223 163 407l35 -14q-87 -198 -173 -404z" />
    <glyph glyph-name="zero" unicode="0" horiz-adv-x="608" 
d="M552 340q0 -147 -73 -250t-177 -103q-103 0 -174.5 101t-71.5 246q0 147 73 250t177 103q103 0 174.5 -101t71.5 -246zM151 342q0 -336 155 -336q151 0 151 326q0 336 -155 336q-151 0 -151 -326z" />
    <glyph glyph-name="one" unicode="1" horiz-adv-x="412" 
d="M210 0q-50 0 -130 -3l-1 16q39 1 53 6t22 19q18 34 18 305q0 123 -4 156.5t-21 33.5q-7 0 -36 -16q-31 -17 -48 -28l-9 14q73 47 115.5 87.5t84.5 101.5l11 -4q-8 -41 -8 -289q0 -273 9 -331q5 -34 17.5 -42t58.5 -13l-1 -16q-41 3 -131 3z" />
    <glyph glyph-name="two" unicode="2" horiz-adv-x="533" 
d="M449 505q0 -59 -32 -112t-73 -88.5t-108.5 -94t-111.5 -107.5l3 -3q46 29 88 29q33 0 112 -26t99 -26q62 0 73 74l11 -1q-18 -163 -104 -163q-32 0 -128.5 41.5t-144.5 41.5q-65 0 -77 -70q-6 -7 -15 -7q-19 0 -19 18q0 10 9 19q22 24 59 63t67.5 72t60.5 69
q67 79 101.5 140t34.5 126q0 68 -38 118t-102 50q-46 0 -76 -26.5t-30 -67.5q0 -47 45 -81q-1 -18 -14 -31t-34 -13q-29 0 -47 22.5t-18 59.5q0 66 58 111t146 45t146.5 -47t58.5 -135z" />
    <glyph glyph-name="three" unicode="3" horiz-adv-x="545" 
d="M474 539q0 -61 -49.5 -103t-124.5 -64v-2q80 -8 143.5 -54t63.5 -127q0 -89 -76 -145.5t-171 -56.5q-83 0 -148.5 43t-65.5 114q0 35 16.5 58.5t45.5 23.5q40 0 49 -36q-23 -32 -23 -71q0 -56 37.5 -85t91.5 -29q66 0 106.5 44t40.5 116t-41 121t-109 69q-29 -9 -53 -9
q-28 0 -28 15q0 17 43 17q19 0 46 -3q47 20 79.5 63.5t32.5 97.5q0 55 -34.5 93t-92.5 38q-45 0 -76 -23.5t-31 -61.5q0 -43 37 -80q0 -17 -11 -29t-32 -12q-27 0 -45 21.5t-18 56.5q0 65 62 106.5t137 41.5q74 0 136 -39.5t62 -108.5z" />
    <glyph glyph-name="four" unicode="4" horiz-adv-x="548" 
d="M301 171q-178 0 -288 -2l-3 9q233 281 380 514l11 -4q-10 -165 -10 -460q63 0 128 13l14 -80l-3 -3q-56 13 -139 13q1 -92 11 -118q13 -37 82 -41l-1 -16q-76 4 -140 4q-87 0 -136 -4l-1 16q65 2 80 28q12 23 15 131zM297 519q-110 -154 -217 -286l1 -2q66 -3 220 -3
q0 188 -2 290z" />
    <glyph glyph-name="five" unicode="5" horiz-adv-x="549" 
d="M227 397q-73 0 -136 -34l-13 8q29 133 31 287l1 1q55 -6 121 -6q36 0 57.5 1t49.5 6t45.5 14.5t33.5 28t24 45.5l13 -4q-23 -86 -27 -176q-101 17 -299 17q-9 -119 -24 -191l3 -2q64 38 154 38q96 0 168 -57.5t72 -156.5q0 -98 -69.5 -163.5t-171.5 -65.5
q-84 0 -153.5 43t-69.5 119q0 37 17.5 60t46.5 23q21 0 33.5 -11t15.5 -28q-24 -35 -24 -71q0 -53 36.5 -85t89.5 -32q71 0 112.5 55t41.5 142q0 89 -45.5 142t-133.5 53z" />
    <glyph glyph-name="six" unicode="6" horiz-adv-x="572" 
d="M304 373q-75 0 -102 -66q-26 0 -26 16q0 10 13 23q21 20 59 34t81 14q81 0 139.5 -50.5t58.5 -136.5q0 -92 -67 -156t-167 -64q-80 0 -135.5 46.5t-79.5 116t-24 154.5q0 70 17.5 136.5t50.5 122.5t87 90t121 34q71 0 120 -34.5t49 -83.5q0 -27 -14.5 -44.5t-37.5 -17.5
q-34 0 -46 34q10 21 10 42q0 37 -23.5 61t-66.5 24q-47 0 -82 -30t-54 -81.5t-27.5 -108.5t-8.5 -121q0 -55 6.5 -106t22.5 -103t49 -83t80 -31q62 0 93.5 51.5t31.5 133.5q0 81 -32 132.5t-96 51.5z" />
    <glyph glyph-name="seven" unicode="7" horiz-adv-x="531" 
d="M147 598q-39 -7 -54 -28.5t-29 -79.5l-14 2q13 78 13 142q0 20 -2 54l1 1q114 -24 239 -24q108 0 180 8l12 -13q-79 -159 -137 -337q-55 -172 -70 -316q-16 -25 -61 -25q-52 0 -52 48q0 81 142 325q5 8 23 38.5t23 39.5t18.5 34t21 40.5t18.5 39.5t21 49q-86 9 -187 9
q-66 0 -106 -7z" />
    <glyph glyph-name="eight" unicode="8" horiz-adv-x="548" 
d="M46 166q0 63 41.5 114t119.5 84q-129 82 -129 170q0 65 58.5 109t142.5 44q77 0 134.5 -37.5t57.5 -100.5q0 -53 -41 -95t-101 -65q81 -52 127 -104.5t46 -116.5q0 -75 -65.5 -128t-163.5 -53q-93 0 -160 48.5t-67 130.5zM165 573q0 -23 9.5 -45t20.5 -36.5t36.5 -35
t39 -29.5t46.5 -30q33 22 50 58.5t17 76.5q0 58 -33.5 97t-88.5 39q-45 0 -71 -26.5t-26 -68.5zM415 129q0 30 -12.5 58t-26.5 47t-47 45t-50 37.5t-60 39.5q-42 -29 -64 -76.5t-22 -98.5q0 -74 43 -124.5t114 -50.5q57 0 91 34.5t34 88.5z" />
    <glyph glyph-name="nine" unicode="9" horiz-adv-x="572" 
d="M126 167q33 0 47 -34q-10 -20 -10 -41q0 -38 23.5 -62t66.5 -24q62 0 102 53t54 124.5t14 158.5q0 54 -6 104.5t-22 104.5t-49.5 86.5t-81.5 32.5q-62 0 -93 -51t-31 -131q0 -81 31.5 -134t97.5 -53q76 0 101 66q26 0 26 -16q0 -11 -12 -23q-21 -20 -59.5 -34t-81.5 -14
q-81 0 -139.5 51t-58.5 137q0 92 66.5 155.5t166.5 63.5q80 0 135.5 -46.5t80 -117t24.5 -156.5q0 -70 -17 -136t-50 -121.5t-86.5 -89t-119.5 -33.5q-71 0 -120.5 34.5t-49.5 84.5q0 26 14 43.5t37 17.5z" />
    <glyph glyph-name="colon" unicode=":" horiz-adv-x="327" 
d="M203 362q-17 -17 -40 -17t-39.5 16.5t-16.5 39.5t16.5 40t39.5 17t40 -17t17 -28.5v-22.5t-17 -28zM220 44q0 -22 -17 -39t-40 -17t-39.5 17t-16.5 39q0 23 16.5 39.5t39.5 16.5t40 -16.5t17 -39.5z" />
    <glyph glyph-name="semicolon" unicode=";" horiz-adv-x="332" 
d="M203 362q-17 -17 -40 -17t-39.5 16.5t-16.5 39.5t16.5 40t39.5 17t40 -17t17 -28.5v-22.5t-17 -28zM205 -69q-26 -42 -83 -55l-4 11q87 22 87 111q0 12 -1 19h-2q-7 -31 -41 -31q-21 0 -37.5 14.5t-16.5 39.5t14.5 42t39.5 17q31 0 47.5 -24.5t16.5 -68.5q0 -43 -20 -75z
" />
    <glyph glyph-name="less" unicode="&#x3c;" horiz-adv-x="644" 
d="M527 138q-246 104 -421 175l1 21q167 67 419 174l12 -27q-239 -93 -394 -157q173 -71 394 -158z" />
    <glyph glyph-name="equal" unicode="=" horiz-adv-x="644" 
d="M321 393q-129 0 -215 -3v29q86 -3 216 -3t216 3v-29q-87 3 -217 3zM321 259q-129 0 -215 -3v29q86 -3 216 -3t216 3v-29q-87 3 -217 3z" />
    <glyph glyph-name="greater" unicode="&#x3e;" horiz-adv-x="644" 
d="M537 312q-167 -67 -419 -174l-12 27q239 93 394 157q-173 71 -394 158l11 28q246 -104 421 -175z" />
    <glyph glyph-name="question" unicode="?" horiz-adv-x="439" 
d="M208 266q0 -41 40 -53q0 -19 -12.5 -31.5t-33.5 -12.5q-24 0 -40 17.5t-16 43.5t15.5 50t51.5 58t44 43q61 67 61 141q0 59 -34 100.5t-94 41.5q-41 0 -66.5 -20t-25.5 -54q0 -52 53 -80q-3 -15 -14.5 -26t-30.5 -11q-29 0 -49.5 24t-20.5 59q0 55 51.5 90.5t122.5 35.5
q45 0 87.5 -14t74 -48t31.5 -81q0 -29 -14 -55t-28 -39.5t-45.5 -38.5t-43.5 -36q-64 -57 -64 -104zM202 -12q-22 0 -39 17t-17 39q0 23 16.5 39.5t39.5 16.5t40 -16.5t17 -39.5q0 -22 -17 -39t-40 -17z" />
    <glyph glyph-name="at" unicode="@" horiz-adv-x="828" 
d="M515 133q0 26 3 59l-5 1q-30 -204 -134 -204q-56 0 -95 46q-50 59 -50 166q0 108 54 182t146 74q29 0 69 -11q24 -7 36 -7q28 0 37 20l9 -2q-8 -56 -8 -183q0 -115 12 -179.5t45 -64.5t57 60.5t24 153.5q0 149 -62 263q-41 75 -102 115t-132 40q-77 0 -138.5 -44
t-100.5 -117q-59 -110 -59 -259q0 -181 91 -303q96 -129 235 -129q105 0 141 83q6 3 13 3q14 0 21.5 -8t7.5 -19q0 -24 -40 -46q-69 -37 -161 -37q-74 0 -143.5 30.5t-121.5 90.5q-104 120 -104 313q0 172 79 298q50 80 127 125.5t169 45.5q83 0 154 -38t116 -111
q63 -104 63 -251q0 -127 -50 -210.5t-119 -83.5q-84 0 -84 138zM503 329q0 48 -1 67q-40 40 -91 40q-40 0 -65.5 -28.5t-34.5 -68t-9 -90.5q0 -101 34 -163q32 -60 70 -60q32 0 55.5 47.5t33.5 116.5q8 56 8 139z" />
    <glyph glyph-name="A" unicode="A" horiz-adv-x="724" 
d="M197 -4q-70 4 -104 4t-100 -4l-1 16q52 3 74 21.5t41 62.5q66 153 207 533q-24 27 -91 33l2 16q49 -4 85 -4q62 0 96 3q36 -123 114 -332q74 -196 99 -249q21 -43 44 -62t71 -22l-1 -16q-78 4 -121 4q-83 0 -153 -4l-1 16q70 3 70 39q0 19 -15 60l-60 167h-248
q-57 -152 -62 -167q-15 -41 -15 -60q0 -20 17 -28.5t53 -10.5zM329 604l-117 -306h233q-48 134 -113 306h-3z" />
    <glyph glyph-name="B" unicode="B" horiz-adv-x="664" 
d="M152 1q-63 0 -121 -5l-1 16q42 2 58.5 9t25.5 29q19 51 19 330q0 150 -4 198q-4 44 -19.5 57.5t-62.5 21.5l2 16q52 -8 98 -8q37 0 104.5 11t108.5 11q91 0 156 -36.5t65 -112.5q0 -69 -54.5 -111.5t-139.5 -58.5v-5q101 -6 168.5 -56t67.5 -133q0 -87 -76.5 -134.5
t-198.5 -47.5q-28 0 -91 4.5t-105 4.5zM335 668q-48 0 -107 -18q-8 -124 -8 -240q0 -23 9.5 -30t45.5 -7q208 0 208 156q0 70 -40.5 104.5t-107.5 34.5zM220 338q0 -228 7 -263q7 -34 29 -50.5t79 -16.5q87 0 138.5 41.5t51.5 124.5q0 182 -255 182q-31 0 -40.5 -3.5
t-9.5 -14.5z" />
    <glyph glyph-name="C" unicode="C" horiz-adv-x="713" 
d="M418 6q85 0 141.5 52.5t70.5 140.5l16 -1q-4 -56 -4 -93t4 -83q-37 -2 -118 -18.5t-130 -16.5q-149 0 -243 99t-94 253q0 153 92.5 250.5t245.5 97.5q52 0 137.5 -18t111.5 -21q-4 -56 -4 -99q0 -47 3 -81l-15 -2q-42 202 -210 202q-118 0 -190.5 -95.5t-72.5 -236.5
q0 -140 71.5 -235t187.5 -95z" />
    <glyph glyph-name="D" unicode="D" horiz-adv-x="772" 
d="M162 0q-71 0 -126 -4l-1 16q65 2 80 28q18 34 18 298q0 244 -13 283q-12 37 -81 41l2 16q76 -4 142 -4q29 0 91.5 6.5t95.5 6.5q157 0 249.5 -97.5t92.5 -250.5q0 -155 -94.5 -253.5t-250.5 -98.5q-29 0 -95 6.5t-110 6.5zM362 668q-65 0 -128 -15q-14 -120 -14 -319
q0 -208 9 -260q11 -68 114 -68q72 0 126.5 29.5t84.5 78.5t45 105.5t15 117.5q0 140 -70 235.5t-182 95.5z" />
    <glyph glyph-name="E" unicode="E" horiz-adv-x="621" 
d="M35 12q66 1 80 28q18 35 18 298q0 247 -13 285q-12 36 -81 41l2 16q132 -6 264 -6q118 0 225 11q3 -77 24 -166l-14 -4q-19 55 -39 84q-42 60 -177 60q-42 0 -98 -3q-6 -144 -6 -283q54 -2 119 -2q41 0 65 16q12 7 18 27.5t12 51.5l13 -1q-7 -55 -7 -106q0 -52 7 -111
l-13 -1q-8 67 -20 81q-14 15 -29.5 20t-44.5 5q-89 0 -120 -1q0 -158 3 -214q3 -58 13 -79q18 -43 104 -43q78 0 116.5 21t65 87t58.5 218l14 -4q3 23 -24 -181q-14 -107 -23 -162q-85 5 -265 5q-202 0 -246 -4z" />
    <glyph glyph-name="F" unicode="F" horiz-adv-x="565" 
d="M35 12q64 1 80 28q18 35 18 298q0 247 -13 285q-12 36 -81 41l1 16q126 -6 251 -6q138 0 231 10q12 -140 29 -312l-14 -5q-23 133 -45.5 192.5t-58.5 79.5t-110 20q-34 0 -96 -3q-7 -132 -7 -283q58 -2 127 -2q43 0 67 16q12 7 18.5 27.5t11.5 52.5l14 -2
q-10 -73 -10 -140q0 -38 4 -77l-14 -1q-2 23 -4.5 38.5t-7.5 30.5q-13 37 -79 37q-108 0 -127 -1q0 -261 13 -299q12 -36 81 -41l-1 -16q-68 4 -140 4q-93 0 -137 -4z" />
    <glyph glyph-name="G" unicode="G" horiz-adv-x="758" 
d="M658 111q0 -48 3 -111l-11 -1q-14 32 -49 32q-18 0 -79.5 -22t-123.5 -22q-148 0 -242.5 99.5t-94.5 254.5q0 152 92.5 249t249.5 97q41 0 83 -7t89 -18.5t74 -15.5q-4 -66 -4 -105q0 -41 2 -61l-15 -2q-19 84 -71.5 137t-138.5 53q-117 0 -190 -95.5t-73 -238.5
q0 -140 71 -234t194 -94q84 0 120.5 48.5t36.5 144.5q0 67 -16 95q-19 32 -81 32l1 16q42 -4 139 -4q68 0 130 4l1 -16q-63 -1 -78 -25q-19 -31 -19 -190z" />
    <glyph glyph-name="H" unicode="H" horiz-adv-x="802" 
d="M180 0q-95 0 -144 -4l-1 16q65 2 80 28q18 34 18 298q0 244 -13 283q-12 37 -81 41l1 16q76 -4 133 -4q95 0 144 4l1 -16q-65 -2 -80 -28q-18 -33 -18 -267h362q-2 218 -13 254q-12 37 -81 41l1 16q76 -4 133 -4q95 0 144 4l1 -16q-65 -2 -80 -28q-18 -34 -18 -298
q0 -244 13 -283q12 -37 81 -41l-1 -16q-76 4 -133 4q-95 0 -144 -4l-1 16q65 2 80 28q18 34 18 308h-362q0 -256 13 -295q12 -37 81 -41l-1 -16q-76 4 -133 4z" />
    <glyph glyph-name="I" unicode="I" horiz-adv-x="353" 
d="M180 0q-95 0 -144 -4l-1 16q65 2 80 28q18 34 18 298q0 244 -13 283q-12 37 -81 41l1 16q76 -4 133 -4q95 0 144 4l1 -16q-65 -2 -80 -28q-18 -34 -18 -298q0 -244 13 -283q12 -37 81 -41l-1 -16q-76 4 -133 4z" />
    <glyph glyph-name="J" unicode="J" horiz-adv-x="510" 
d="M288 613q-6 26 -27 37t-62 12l1 16q96 -4 149 -4q74 0 134 4l1 -16q-63 -2 -78 -25q-17 -27 -17 -166q0 -68 3 -137t3 -93q0 -129 -43 -184q-56 -70 -159 -70q-87 0 -135 46t-48 108q0 41 21 67t52 26q22 0 35 -13t13 -33t-9 -33q-52 -17 -52 -67q0 -36 30 -59t73 -23
q83 0 113 84q15 44 15 179q0 287 -13 344z" />
    <glyph glyph-name="K" unicode="K" horiz-adv-x="715" 
d="M173 0q-88 0 -137 -4l-1 16q65 2 80 28q18 34 18 298q0 244 -13 283q-12 37 -81 41l1 16q76 -4 140 -4q88 0 137 4l1 -16q-65 -2 -80 -28q-18 -34 -18 -298v-47l108 120q108 119 150 173q34 43 34 55q0 22 -54 25l1 16q60 -4 109 -4q68 0 101 4l1 -16q-59 -5 -80.5 -14.5
t-61.5 -49.5q-42 -41 -168 -182q103 -149 183 -257q68 -91 99 -117q30 -25 82 -29l-1 -16q-51 3 -151 3q-87 0 -125 -3l-2 16q54 4 54 22q0 14 -30 62q-69 111 -171 250l-78 -87q2 -175 13 -207q12 -37 81 -41l-1 -16q-76 4 -140 4z" />
    <glyph glyph-name="L" unicode="L" horiz-adv-x="614" 
d="M214 0q-129 0 -178 -4l-1 16q65 2 80 28q18 34 18 298q0 244 -13 283q-12 37 -81 41l1 16q76 -4 140 -4q88 0 137 4l1 -16q-66 -2 -79 -28q-19 -35 -19 -301q0 -236 18 -274q21 -43 107 -43q54 0 93.5 15.5t65.5 46t41 60.5t30 75l15 -4q-31 -122 -46 -214q-146 5 -330 5
z" />
    <glyph glyph-name="M" unicode="M" horiz-adv-x="895" 
d="M113 0q-56 0 -112 -4l-1 16q57 2 73 18.5t27 69.5q14 68 33 240q23 205 23 255q0 15 -2 24t-9 19.5t-24.5 16.5t-45.5 7l1 16q64 -4 106 -4q47 0 69 1q90 -250 197 -526h2q112 295 196 526q26 -1 69 -1q44 0 107 4l1 -16q-51 -4 -66 -17t-15 -55q0 -63 19 -244
q23 -209 36 -264q9 -38 28 -53t66 -17l-1 -16q-68 4 -140 4q-97 0 -137 -4l-1 16q49 4 66 15t17 49q0 58 -20 259q-13 127 -32 261h-3q-155 -406 -219 -594q-3 -8 -6 -8t-6 8q-68 191 -223 590h-3q-7 -58 -28 -253q-21 -203 -21 -250t15 -59t66 -18l-1 -16q-41 4 -101 4z
" />
    <glyph glyph-name="N" unicode="N" horiz-adv-x="778" 
d="M139 0q-50 0 -103 -4l-1 16q37 2 55.5 7.5t25.5 20.5q17 34 17 298q0 243 -12 283q-6 20 -25 29t-57 12l1 16q59 -4 108 -4q40 0 64 1q241 -311 412 -521h2q3 72 3 194q0 233 -12 273q-6 20 -25 29t-57 12l1 16q59 -4 107 -4q47 0 103 4l1 -16q-68 -1 -81 -28
q-16 -34 -16 -298v-340q0 -13 -8 -13q-5 0 -16 14q-304 391 -467 593h-2q-4 -69 -4 -244q0 -253 12 -293q6 -20 25.5 -29t57.5 -12l-1 -16q-57 4 -108 4z" />
    <glyph glyph-name="O" unicode="O" horiz-adv-x="806" 
d="M746 338q0 -154 -95 -252.5t-250 -98.5q-154 0 -247.5 98t-93.5 251q0 154 95 252.5t250 98.5q154 0 247.5 -98t93.5 -251zM158 342q0 -143 72.5 -239t178.5 -96q104 0 171.5 94t67.5 231q0 143 -72.5 239t-178.5 96q-104 0 -171.5 -94t-67.5 -231z" />
    <glyph glyph-name="P" unicode="P" horiz-adv-x="620" 
d="M554 604.5q36 -46.5 36 -111.5q0 -91 -65 -147q-32 -27 -72.5 -42t-82.5 -15q-45 0 -84 18t-65 53q0 -271 13 -307q12 -36 80 -41l-1 -16q-68 4 -139 4q-93 0 -137 -4l-1 16q65 1 79 28q19 37 19 290q0 187 -6 239q-4 34 -10.5 50t-22.5 24t-50 14l3 16q54 -9 92 -9
q36 0 108 12q75 11 108 11q55 0 108 -17q54 -19 90 -65.5zM453 363.5q39 48.5 39 128.5q0 82 -40.5 129t-114.5 47q-48 0 -111 -16q-5 -108 -5 -267q32 -35 67.5 -52.5t64.5 -17.5q61 0 100 48.5z" />
    <glyph glyph-name="Q" unicode="Q" horiz-adv-x="806" 
d="M542 8q-65 -37 -182 -76l1 -5q8 1 13 1q25 0 55 -12t50 -25t55 -37q102 -71 147 -71q38 0 58.5 32t20.5 79q0 9 -2 29l14 2q4 -19 4 -40q0 -74 -48 -123.5t-115 -49.5q-34 0 -70 16.5t-57 33t-59 48.5q-32 28 -52 43t-51.5 30t-58.5 15q-36 0 -55.5 -21.5t-19.5 -49.5
q0 -17 6 -33q-12 -12 -25 -12q-12 0 -20.5 9.5t-8.5 26.5q0 67 137 108q154 46 223 81l-2 4q-62 -24 -108 -24q-143 0 -237.5 97t-94.5 253q0 154 95.5 252t249.5 98q155 0 248 -98t93 -245q0 -220 -204 -336zM158 338q0 -140 72 -235.5t175 -95.5q104 0 173.5 96t69.5 233
q0 138 -71.5 234.5t-176.5 96.5q-107 0 -174.5 -95t-67.5 -234z" />
    <glyph glyph-name="R" unicode="R" horiz-adv-x="728" 
d="M173 0q-88 0 -137 -4l-1 16q66 2 79 28q19 37 19 290q0 187 -6 239q-5 49 -19.5 64t-63.5 24l3 16q54 -9 94 -9q37 0 102 11.5t105 11.5t77.5 -8.5t72 -26.5t55.5 -53t21 -82q0 -48 -22 -85t-58 -56.5t-73.5 -29.5t-76.5 -10l-1 -4q59 -10 94 -37t70 -86q11 -19 29.5 -54
t31 -56t29.5 -45t35.5 -35.5t38.5 -11.5q23 0 48 11l7 -14q-67 -30 -118 -30q-22 0 -39.5 3.5t-34 16.5t-26.5 22.5t-26.5 36t-24.5 42t-29 55.5q-59 111 -91.5 146t-93.5 35q-15 0 -19 -3.5t-4 -16.5q0 -217 14 -258q7 -21 24 -29.5t55 -11.5l-1 -16q-76 4 -139 4zM325 668
q-44 0 -101 -16q-4 -78 -4 -261q0 -24 12 -33t53 -9q95 0 143 44t48 123q0 73 -40 112.5t-111 39.5z" />
    <glyph glyph-name="S" unicode="S" horiz-adv-x="548" 
d="M59 121q0 46 -4 93l16 1q12 -96 67 -152.5t138 -56.5q64 0 109 33.5t45 93.5q0 26 -11 49t-24 38t-41 33t-45.5 27t-54.5 27q-45 22 -71.5 37.5t-59 41.5t-48 57.5t-15.5 69.5q0 75 59.5 124.5t152.5 49.5q40 0 100.5 -15.5t88.5 -18.5q0 -95 12 -169l-15 -2
q-15 85 -64.5 135.5t-128.5 50.5q-58 0 -97.5 -27.5t-39.5 -80.5q0 -24 10.5 -45.5t22.5 -35t40 -31.5t43 -25.5t52 -25.5q35 -17 55.5 -27.5t48 -27.5t43 -32t31 -35t22.5 -43.5t7 -50.5q0 -83 -64 -138.5t-174 -55.5q-42 0 -112 14t-98 18q4 52 4 102z" />
    <glyph glyph-name="T" unicode="T" horiz-adv-x="635" 
d="M321 0q-95 0 -144 -4l-1 16q65 2 80 28q18 34 18 301q0 224 -9 314q-11 1 -30 1q-71 0 -121 -50.5t-74 -128.5l-14 4q29 101 35 212q107 -19 256 -19q150 0 257 19q6 -111 35 -212l-14 -4q-24 78 -74 128.5t-121 50.5q-19 0 -30 -1q-9 -95 -9 -316q0 -247 13 -286
q12 -37 81 -41l-1 -16q-76 4 -133 4z" />
    <glyph glyph-name="U" unicode="U" horiz-adv-x="739" 
d="M105 621q-7 20 -25.5 29.5t-55.5 11.5l1 16q80 -4 139 -4q86 0 138 4l1 -16q-67 -1 -80 -28q-18 -34 -18 -264q0 -127 6.5 -182t27.5 -91q48 -80 160 -80q115 0 166 83q22 37 28.5 89.5t6.5 175.5q0 216 -12 256q-10 35 -82 41l1 16q56 -4 104 -4q51 0 106 4l1 -16
q-68 -1 -81 -28q-16 -34 -16 -274q0 -125 -6 -179t-31 -96q-59 -98 -215 -98q-137 0 -200 78q-30 37 -40.5 86.5t-10.5 129.5q0 305 -13 340z" />
    <glyph glyph-name="V" unicode="V" horiz-adv-x="694" 
d="M249 473q70 -190 129 -338h3q73 186 129 338q47 128 47 155q0 18 -13.5 24.5t-52.5 9.5l1 16q49 -4 95 -4q43 0 100 4l1 -16q-41 -2 -59 -11.5t-34 -41.5q-17 -32 -113 -276q-83 -210 -131 -343q-3 -7 -5 -7t-5 7q-43 119 -131 344q-91 233 -112 275q-16 31 -34 41
t-58 12l1 16q57 -4 124 -4q80 0 136 4l1 -16q-39 -3 -53 -9t-14 -25q0 -25 48 -155z" />
    <glyph glyph-name="W" unicode="W" horiz-adv-x="1095" 
d="M249 473q70 -190 129 -338h3q73 186 151 398q-20 48 -34 76q-15 31 -33.5 41t-57.5 12l1 16q57 -4 124 -4q80 0 136 4l1 -16q-39 -3 -53 -9t-14 -25q0 -25 48 -155q70 -190 129 -338h3q73 186 129 338q47 128 47 155q0 18 -13.5 24.5t-52.5 9.5l1 16q49 -4 95 -4
q43 0 100 4l1 -16q-41 -2 -59 -11.5t-34 -41.5q-17 -32 -113 -276q-83 -210 -131 -343q-3 -7 -5 -7t-5 7q-79 217 -195 506h-2q-100 -255 -194 -506q-3 -7 -5 -7t-5 7q-63 169 -131 344q-91 233 -112 275q-16 31 -34 41t-58 12l1 16q57 -4 124 -4q80 0 136 4l1 -16
q-39 -3 -53 -9t-14 -25q0 -25 48 -155z" />
    <glyph glyph-name="X" unicode="X" horiz-adv-x="665" 
d="M122 0q-49 0 -109 -4l-1 16q47 5 69 15t45 40q36 48 173 256q-121 191 -189 286q-20 28 -40 39t-63 14l2 16q54 -4 139 -4q80 0 135 4l1 -16q-60 -3 -60 -30q0 -15 21 -52.5t108 -178.5l21 33q68 107 90 145t22 55q0 24 -59 28l1 16q49 -4 96 -4q66 0 108 4l1 -16
q-46 -5 -68.5 -15.5t-45.5 -39.5q-43 -55 -154 -226q141 -224 206 -315q21 -29 41 -40t62 -14l-1 -16q-71 4 -131 4q-89 0 -144 -4l-2 16q61 3 61 31q0 15 -23 56t-123 204q-97 -153 -124 -199t-27 -64q0 -25 58 -28l-1 -16q-49 4 -95 4z" />
    <glyph glyph-name="Y" unicode="Y" horiz-adv-x="639" 
d="M321 0q-88 0 -137 -4l-1 16q66 2 80 28q18 35 18 283q-129 216 -185 291q-21 27 -38 36t-54 12l1 16q55 -4 124 -4q53 0 135 4l1 -16q-64 -5 -64 -27q0 -20 42 -92q39 -68 112 -179q81 131 122 206q26 47 26 63q0 15 -16 20.5t-49 8.5l1 16q56 -4 104 -4q39 0 92 4l1 -16
q-53 -6 -66 -15q-14 -9 -35 -37q-45 -62 -167 -265q0 -253 13 -292q12 -37 81 -41l-1 -16q-76 4 -140 4z" />
    <glyph glyph-name="Z" unicode="Z" horiz-adv-x="580" 
d="M280 0q-154 0 -245 -5l-4 14q119 182 219 348q110 182 173 293l-1 2q-55 4 -115 4q-77 0 -121 -7t-72.5 -29.5t-41 -52t-24.5 -87.5l-17 3q16 99 23 203q117 -12 245 -12q141 0 241 9l5 -13q-65 -102 -212 -342q-161 -263 -161 -291q0 -18 102 -18t153.5 17t75.5 56
t37 122l17 -2q-14 -118 -15 -222q-110 10 -262 10z" />
    <glyph glyph-name="bracketleft" unicode="[" horiz-adv-x="358" 
d="M180 -142q4 -28 24.5 -37.5t88.5 -15.5l-2 -16q-74 6 -171 6q2 112 2 438t-2 438q97 0 171 6l2 -16q-68 -6 -88.5 -15.5t-24.5 -37.5q-6 -46 -6 -375t6 -375z" />
    <glyph glyph-name="backslash" unicode="\" horiz-adv-x="412" 
d="M218 342q72 -172 174 -403l-35 -14q-55 144 -164 406q-86 206 -173 404l35 14q70 -184 163 -407z" />
    <glyph glyph-name="bracketright" unicode="]" horiz-adv-x="358" 
d="M238 -205q-97 0 -171 -6l-2 16q68 6 88.5 15.5t24.5 37.5q6 46 6 375t-6 375q-4 28 -24.5 37.5t-88.5 15.5l2 16q74 -6 171 -6q-2 -112 -2 -438t2 -438z" />
    <glyph glyph-name="asciicircum" unicode="^" horiz-adv-x="568" 
d="M284 415q-73 -106 -161 -218l-17 12q80 120 163 267q7 12 15 12t15 -12q85 -149 163 -267l-16 -12q-88 112 -161 218h-1z" />
    <glyph glyph-name="underscore" unicode="_" horiz-adv-x="414" 
d="M201 -111q-110 0 -191 -3v24q53 -2 186 -2q112 0 208 5v-28q-91 4 -203 4z" />
    <glyph glyph-name="grave" unicode="`" horiz-adv-x="540" 
d="M240 666q33 -72 78 -158l-10 -7q-65 74 -121 130q-12 12 -12 26q0 13 9 23t25 10q20 0 31 -24z" />
    <glyph glyph-name="a" unicode="a" horiz-adv-x="506" 
d="M340 56q0 30 3 53l-4 1q-17 -46 -51 -77q-46 -43 -112 -43q-58 0 -92.5 28.5t-34.5 76.5q0 37 20.5 67.5t55.5 47.5q51 25 137 25q38 0 80 -6q1 12 1 22q0 75 -18 116q-32 71 -111 71q-33 0 -56 -16t-23 -50q0 -31 30 -68q0 -19 -12.5 -31.5t-31.5 -12.5
q-23 0 -37.5 18.5t-14.5 48.5q0 58 50.5 94.5t123.5 36.5q96 0 143 -61q34 -44 34 -132q0 -18 -2 -71.5t-2 -79.5q0 -43 6.5 -63t26.5 -20q16 0 41 14l8 -12q-65 -40 -104 -40q-25 0 -39.5 17t-14.5 46zM314 95q22 46 27 118q-25 6 -55 6q-62 0 -103 -29q-49 -35 -49 -92
q0 -36 21 -58t55 -22q66 0 104 77z" />
    <glyph glyph-name="b" unicode="b" horiz-adv-x="590" 
d="M138 65q-13 0 -23 -16.5t-24 -54.5l-13 3q11 66 14 120.5t3 182.5q0 298 -6 336q-3 17 -8.5 22t-22.5 5q-12 0 -37 -3l-2 15q56 5 90 17.5t68 39.5l6 -4q-14 -97 -14 -332l1 -1q61 63 151 63q85 0 142 -53q73 -67 73 -181t-74 -180q-58 -54 -147 -54q-63 0 -117 39
q-5 3 -20 15t-23.5 16.5t-16.5 4.5zM299 432q-81 0 -130 -67q0 -72 1 -129q1 -90 12 -128q28 -98 119 -98q71 0 110.5 59t39.5 151q0 94 -40 153t-112 59z" />
    <glyph glyph-name="c" unicode="c" horiz-adv-x="498" 
d="M301 13q92 0 150 98l15 -8q-63 -113 -186 -113q-97 0 -162.5 67t-65.5 168q0 97 63.5 165t161.5 68q83 0 132 -43q42 -38 42 -88q0 -28 -14.5 -45t-37.5 -17q-19 0 -30.5 11.5t-12.5 28.5q22 29 22 59q0 36 -26.5 56t-64.5 20q-70 0 -110 -60.5t-40 -149.5
q0 -90 44.5 -153.5t119.5 -63.5z" />
    <glyph glyph-name="d" unicode="d" horiz-adv-x="593" 
d="M419 -19l-5 4l5 69h-1q-58 -64 -147 -64q-86 0 -144 54q-73 65 -73 179q0 113 76 182q59 53 146 53q77 0 145 -54l1 1q0 193 -6 231q-3 17 -8.5 22t-22.5 5q-11 0 -37 -3l-2 15q56 5 90 17.5t68 39.5l6 -4q-14 -94 -14 -409q0 -232 5 -264q2 -9 4 -13t8.5 -8t18.5 -6
t40 -2v-15q-90 0 -153 -30zM294 16q77 0 126 67q2 46 2 159q0 88 -24 132q-35 65 -109 65q-71 0 -110.5 -58.5t-39.5 -149.5q0 -94 41.5 -154.5t113.5 -60.5z" />
    <glyph glyph-name="e" unicode="e" horiz-adv-x="514" 
d="M309 14q87 0 150 96l17 -11q-74 -109 -195 -109q-99 0 -163 70t-64 170q0 106 70 171q61 57 149 57q76 0 128 -41t59 -122l-3 -4h-313q-5 -24 -5 -56q0 -89 46 -155t124 -66zM283 441q-55 0 -89 -38.5t-47 -96.5h230q1 12 1 25q0 48 -22.5 79t-72.5 31z" />
    <glyph glyph-name="f" unicode="f" horiz-adv-x="347" 
d="M144 0q-30 0 -120 -3l-1 15q63 1 72 28q10 29 10 290q0 51 -1 84q-50 0 -82 -1v23q48 -2 82 -2q0 14 -0.5 45t-0.5 40q0 103 42 150q49 54 138 54q69 0 103.5 -34.5t34.5 -78.5q0 -32 -17.5 -52.5t-41.5 -20.5q-18 0 -28.5 11t-10.5 26q0 9 2 15q29 29 29 62
q0 26 -18.5 41.5t-50.5 15.5q-64 0 -89 -63q-12 -29 -14.5 -71t-2.5 -140q63 0 145 2l-1 -23q-39 1 -144 1q0 -326 7 -358q5 -23 19.5 -32.5t52.5 -11.5l-1 -15q-60 3 -113 3z" />
    <glyph glyph-name="g" unicode="g" horiz-adv-x="484" 
d="M6 -131q0 57 47.5 95t104.5 51v2q-73 25 -73 70q0 54 105 65v3q-58 9 -99 46t-41 95q0 61 45.5 105.5t114.5 53.5q12 2 34.5 3.5t40 4t31.5 7.5q43 16 43 62q0 25 -10 39q2 10 12 17.5t25 7.5q23 0 37.5 -16t14.5 -41q0 -43 -43 -65.5t-105 -23.5v-4q60 -10 100 -46.5
t40 -94.5q0 -61 -43.5 -104t-115.5 -54q-10 -2 -30 -3.5t-34 -3.5t-29 -5t-23 -9t-8 -14q0 -17 119 -48q26 -7 40 -11q88 -23 130 -59t42 -89q0 -74 -70.5 -129t-180.5 -55q-96 0 -158.5 42.5t-62.5 105.5zM127 303q0 -58 33 -100.5t84 -42.5q52 0 80.5 42t28.5 97
q0 58 -33 100.5t-84 42.5q-52 0 -80.5 -42t-28.5 -97zM279 -18q-13 3 -34 9t-37.5 10.5t-29.5 8.5q-49 -11 -77 -49.5t-28 -83.5q0 -58 48 -96.5t128 -38.5q78 0 124 36.5t46 88.5q0 22 -9 39.5t-21 28t-34 21t-36 15t-40 11.5z" />
    <glyph glyph-name="h" unicode="h" horiz-adv-x="596" 
d="M135 0q-29 0 -119 -3l-1 15q63 1 72 28q10 29 10 290q0 268 -6 306q-3 17 -8.5 22t-22.5 5q-12 0 -37 -3l-2 15q56 5 90 17.5t68 39.5l6 -4q-15 -101 -15 -426h4q28 60 65 98q56 58 126 58q79 0 117 -61q28 -45 28 -133q0 -17 -2 -69.5t-2 -91.5q0 -51 12.5 -69.5
t62.5 -21.5l-1 -15q-69 3 -109 3q-42 0 -120 -3l-1 15q38 1 51 6.5t18 16.5q12 27 12 163q0 122 -14 169q-21 67 -77 67q-61 0 -112 -79q-57 -90 -57 -214q0 -52 6 -85q4 -22 19 -32t53 -12l-1 -15q-69 3 -113 3z" />
    <glyph glyph-name="i" unicode="i" horiz-adv-x="273" 
d="M172.5 555q-15.5 -15 -36.5 -15t-36 15t-15 36t15 36.5t36 15.5t36.5 -15.5t15.5 -36.5t-15.5 -36zM138 0q-30 0 -120 -3l-1 15q63 1 72 28q10 30 10 180q0 102 -4 142q-1 17 -7.5 22t-23.5 5q-12 0 -37 -3l-2 15q56 7 87.5 19t65.5 38l6 -4q-11 -101 -11 -246
q0 -115 7 -152q5 -23 19.5 -32.5t52.5 -11.5l-1 -15q-60 3 -113 3z" />
    <glyph glyph-name="j" unicode="j" horiz-adv-x="268" 
d="M172.5 555q-15.5 -15 -36.5 -15t-36 15t-15 36t15 36.5t36 15.5t36.5 -15.5t15.5 -36.5t-15.5 -36zM65 389q-14 0 -38 -3l-2 15q55 7 86.5 19t66.5 38l6 -4q-11 -101 -11 -262q0 -60 1.5 -143.5t1.5 -97.5q0 -118 -41.5 -174t-128.5 -56q-62 0 -95.5 35.5t-33.5 80.5
q0 31 16 53.5t44 22.5q20 0 32.5 -11.5t12.5 -29.5q0 -15 -6 -24q-42 -19 -42 -58q0 -24 18 -39t50 -15q67 0 82 65.5t15 298.5q0 218 -4 262q-1 17 -7.5 22t-22.5 5z" />
    <glyph glyph-name="k" unicode="k" horiz-adv-x="540" 
d="M136 0q-30 0 -120 -3l-1 15q63 1 72 28q10 29 10 290q0 268 -6 306q-3 17 -8.5 22t-22.5 5q-12 0 -37 -3l-2 15q56 5 90 17.5t68 39.5l6 -4q-14 -94 -14 -395v-152q72 78 117 130q76 88 76 107q0 8 -9.5 12t-36.5 6l1 15q43 -3 83 -3q42 0 91 3l1 -15q-43 -4 -66.5 -14
t-48.5 -36q-21 -21 -95 -104q46 -65 116 -157q53 -71 78 -90q25 -21 68 -23l-1 -15q-61 3 -117 3q-72 0 -110 -3l-1 15q23 1 33.5 5t10.5 15t-22 44q-33 49 -107 148l-61 -66q1 -74 7 -102q5 -23 19.5 -32.5t52.5 -11.5l-1 -15q-60 3 -113 3z" />
    <glyph glyph-name="l" unicode="l" horiz-adv-x="268" 
d="M136 0q-30 0 -120 -3l-1 15q63 1 72 28q10 29 10 290q0 268 -6 306q-3 17 -8.5 22t-22.5 5q-12 0 -37 -3l-2 15q56 5 90 17.5t68 39.5l6 -4q-14 -94 -14 -395q0 -245 7 -277q5 -23 19.5 -32.5t52.5 -11.5l-1 -15q-60 3 -113 3z" />
    <glyph glyph-name="m" unicode="m" horiz-adv-x="871" 
d="M137 0q-29 0 -119 -3l-1 15q63 1 72 28q10 30 10 173q0 111 -6 149q-2 17 -8.5 22t-22.5 5q-12 0 -37 -3l-2 15q56 5 90 17.5t68 39.5l6 -4q-14 -60 -14 -141h3q24 52 55 87q51 58 118 58q75 0 107 -61q16 -31 20 -84h3q24 51 54 87q50 58 116 58q75 0 110 -61
q25 -44 25 -129q0 -24 -3 -78t-3 -88q0 -52 13.5 -70t63.5 -20l-1 -15q-63 3 -106 3q-58 0 -124 -3l-1 15q63 1 72 28q10 29 10 175q0 108 -12 152q-18 67 -68 67q-53 0 -99 -79q-50 -86 -50 -219q0 -52 6 -80q5 -24 20.5 -33t51.5 -11l-1 -15q-63 3 -107 3q-59 0 -125 -3
l-1 15q63 1 72 28q10 29 10 175q0 108 -12 152q-19 67 -68 67q-53 0 -99 -79q-50 -85 -50 -216q0 -51 6 -83q5 -23 19.5 -32.5t52.5 -11.5l-1 -15q-63 3 -113 3z" />
    <glyph glyph-name="n" unicode="n" horiz-adv-x="598" 
d="M138 0q-30 0 -120 -3l-1 15q63 1 72 28q10 30 10 173q0 111 -6 149q-2 17 -8.5 22t-22.5 5q-12 0 -37 -3l-2 15q56 5 90 17.5t68 39.5l6 -4q-13 -55 -15 -151l4 -1q28 60 65 98q56 58 126 58q79 0 117 -61q28 -45 28 -133q0 -17 -2 -69.5t-2 -91.5q0 -51 12.5 -69.5
t62.5 -21.5l-1 -15q-69 3 -109 3q-42 0 -120 -3l-1 15q37 1 50 6.5t19 16.5q12 24 12 163q0 122 -14 169q-21 67 -77 67q-61 0 -112 -79q-57 -87 -57 -214q0 -52 6 -85q4 -22 19 -32t53 -12l-1 -15q-69 3 -112 3z" />
    <glyph glyph-name="o" unicode="o" 
d="M118 55.5q-65 65.5 -65 168.5t65 168.5t170 65.5t170 -65.5t65 -168.5t-65 -168.5t-170 -65.5t-170 65.5zM138 225q0 -92 41.5 -155t110.5 -63t108.5 63t39.5 153q0 92 -41.5 155t-110.5 63t-108.5 -63t-39.5 -153z" />
    <glyph glyph-name="p" unicode="p" horiz-adv-x="590" 
d="M124 -269q-28 0 -112 -3l-1 15q35 0 50 4.5t21 18.5q8 18 10 80.5t2 253.5q0 225 -4 262q-2 17 -7.5 22t-23.5 5q-11 0 -37 -3l-2 15q56 7 86 19t65 38l6 -4q-4 -29 -6 -60h1q60 64 147 64q86 0 144 -54q73 -65 73 -179q0 -113 -76 -182q-59 -53 -146 -53q-77 0 -145 54
h-1q0 -233 7 -262q5 -20 20 -29t50 -11l-1 -16q-62 5 -120 5zM296 432q-77 0 -126 -67q-2 -46 -2 -159q0 -88 24 -132q35 -65 109 -65q71 0 110.5 58.5t39.5 149.5q0 94 -41.5 154.5t-113.5 60.5z" />
    <glyph glyph-name="q" unicode="q" horiz-adv-x="589" 
d="M460 -269q-30 0 -120 -3l-1 15q63 1 72 28q10 31 10 282h-1q-61 -63 -151 -63q-85 0 -142 53q-73 67 -73 181t74 180q59 54 147 54q98 0 151 -80q33 20 71 78l9 -2q-11 -101 -11 -342q0 -293 7 -325q5 -24 20 -33t52 -11l-1 -15q-60 3 -113 3zM291 16q81 0 130 67
q0 72 -1 129q-2 91 -12 128q-28 98 -119 98q-71 0 -110.5 -59t-39.5 -151q0 -94 40 -153t112 -59z" />
    <glyph glyph-name="r" unicode="r" horiz-adv-x="415" 
d="M138 0q-30 0 -120 -3l-1 15q63 1 72 28q10 30 10 179q0 105 -4 143q-2 17 -7.5 22t-22.5 5q-13 0 -38 -3l-2 15q56 7 87.5 19t65.5 38l6 -4q-9 -68 -12 -166l4 -1q52 171 151 171q36 0 56 -19.5t20 -43.5q0 -17 -11 -31.5t-31 -14.5t-33 11q-1 19 -10.5 33t-29.5 14
q-43 0 -77 -73q-40 -86 -40 -197q0 -44 8 -81q6 -26 19 -33.5t54 -10.5l-1 -15q-60 3 -113 3z" />
    <glyph glyph-name="s" unicode="s" horiz-adv-x="423" 
d="M49 99q0 17 -2 57l13 1q8 -70 47.5 -110t102.5 -40q45 0 73.5 20t28.5 55q0 9 -1.5 16.5t-6 15t-8.5 13t-12.5 12t-14.5 10.5t-18.5 10.5t-20 10.5t-23 12t-24.5 12q-42 21 -66 36.5t-45 44t-21 62.5q0 52 41 86.5t117 34.5q64 0 140 -27q-2 -38 -2 -59q0 -32 3 -68
l-11 -1q-9 64 -46 101t-96 37q-41 0 -65 -17.5t-24 -50.5q0 -21 14 -38.5t30.5 -27t55.5 -28.5l18 -9q77 -38 112 -69t35 -81q0 -58 -46.5 -94t-129.5 -36q-71 0 -152 28q4 54 4 81z" />
    <glyph glyph-name="t" unicode="t" horiz-adv-x="333" 
d="M242 14q35 0 73 40l11 -10q-48 -54 -114 -54t-97 49q-22 35 -22 117q0 25 2 107.5t2 150.5q-53 0 -73 -1v23q38 -2 73 -2q-2 71 -6 112q54 30 86 88l9 -2q-12 -86 -15 -198q58 0 124 2l-1 -23q-37 1 -123 1q-1 -35 -1 -122q0 -184 12 -226q14 -52 60 -52z" />
    <glyph glyph-name="u" unicode="u" horiz-adv-x="578" 
d="M58 422q-23 0 -40 -2l-2 15q87 4 155 21l4 -4q-11 -99 -11 -227q0 -108 13 -150q20 -63 73 -63q29 0 58 21t49 53q48 76 48 213q0 62 -5 92q-3 18 -8.5 24.5t-20.5 6.5q-23 0 -40 -2l-2 15q89 5 156 21l5 -4q-11 -104 -11 -238q0 -113 6 -151q5 -30 19.5 -39t53.5 -12
l-1 -15q-59 3 -151 3q0 85 -2 128h-4q-18 -44 -46 -78q-51 -60 -127 -60q-77 0 -114 57q-27 41 -27 124q0 20 2 64.5t2 68.5q0 60 -3 87q-2 18 -8 24.5t-21 6.5z" />
    <glyph glyph-name="v" unicode="v" horiz-adv-x="521" 
d="M177 345q46 -108 118 -252h1q55 123 100 233q28 68 28 85q0 13 -13.5 18t-47.5 7l1 15q40 -3 83 -3q34 0 78 3l1 -15q-35 -2 -50.5 -10t-26.5 -32q-100 -221 -178 -404q-2 -6 -5 -6q-4 0 -6 6q-112 236 -193 398q-13 27 -28 36t-50 12l1 15q36 -3 106 -3q78 0 120 3
l1 -15q-60 0 -60 -28q0 -17 20 -63z" />
    <glyph glyph-name="w" unicode="w" horiz-adv-x="752" 
d="M164 351q32 -91 99 -248h1q35 90 96 256q-20 47 -41 85l1 5q27 -1 69 -1q39 0 107 3l1 -15q-63 0 -63 -30q0 -15 14 -55q32 -91 99 -248h1q52 136 86 229q23 63 23 78q0 13 -13.5 19t-48.5 7l1 15q44 -3 85 -3q32 0 74 3l2 -15q-35 -2 -52 -10.5t-26 -33.5
q-80 -203 -153 -401q-3 -7 -6 -7q-4 0 -7 6q-3 8 -25.5 62.5t-55.5 134.5t-60 144h-1q-43 -110 -129 -340q-3 -7 -6 -7q-4 0 -7 6q-2 4 -30.5 74t-66 160.5t-66.5 157.5q-8 19 -14.5 28.5t-22 17.5t-40.5 8l1 15q53 -3 100 -3q66 0 122 3l1 -15q-63 0 -63 -30q0 -15 14 -55z
" />
    <glyph glyph-name="x" unicode="x" horiz-adv-x="494" 
d="M102 0q-62 0 -94 -3l-1 15q44 4 61 12.5t40 35.5q31 38 110 150q-94 148 -115 178q-20 28 -35 36t-52 12l1 15q47 -3 110 -3q82 0 118 3l1 -15q-58 -2 -58 -23q0 -10 24 -50q26 -46 53 -89h1l62 89q28 41 28 52q0 19 -56 21l1 15q39 -3 76 -3q60 0 92 3l1 -15
q-40 -3 -58.5 -11.5t-41.5 -36.5q-15 -18 -95 -129q101 -160 128 -199q19 -27 34.5 -35.5t53.5 -12.5l-2 -15q-47 3 -110 3q-81 0 -117 -3l-1 15q58 2 58 22q0 10 -24 51q-28 48 -67 110h-1q-64 -92 -76 -110q-28 -41 -28 -51q0 -20 56 -22l-1 -15q-39 3 -76 3z" />
    <glyph glyph-name="y" unicode="y" horiz-adv-x="521" 
d="M176 345q61 -136 121 -252h1q36 80 97 233q27 67 27 86q0 12 -14 17t-48 7l1 15q41 -3 83 -3q34 0 78 3l1 -15q-35 -2 -50 -10t-26 -32q-96 -219 -164 -382q-54 -128 -75 -166q-58 -103 -124 -103q-28 0 -46.5 15.5t-18.5 39.5q0 37 41 46q37 -30 65 -30q33 0 60 37.5
t74 147.5q-84 171 -194 389q-13 27 -28.5 36t-50.5 12l1 15q36 -3 106 -3q78 0 120 3l1 -15q-59 0 -59 -28q0 -15 21 -63z" />
    <glyph glyph-name="z" unicode="z" horiz-adv-x="439" 
d="M237 0q-102 0 -198 -4l-3 11q173 270 261 423l-1 1q-25 2 -84 2q-48 0 -76 -6t-45.5 -24.5t-26 -42t-16.5 -68.5l-15 2q11 66 16 160q70 -6 169 -6q116 0 179 4l3 -11q-76 -118 -136 -215q-112 -180 -112 -196q0 -15 73 -15q89 0 121 27t51 124l15 -3q-14 -84 -18 -169
q-79 6 -157 6z" />
    <glyph glyph-name="braceleft" unicode="{" horiz-adv-x="350" 
d="M295 -203q18 0 55 7l5 -13q-41 -12 -81 -12q-60 0 -91 31t-31 131q0 18 1 60t1 64q0 105 -22 132q-22 28 -85 28q-16 0 -24 -1v19q10 -2 28 -2q59 0 81 28q22 27 22 132q0 22 -1 64t-1 60q0 100 31 131t91 31q40 0 81 -12l-5 -13q-37 7 -55 7q-44 0 -59 -30
q-11 -22 -11 -66q0 -14 2.5 -55.5t2.5 -69.5q0 -109 -32.5 -157.5t-113.5 -55.5v-4q80 -7 113 -56t33 -156q0 -28 -2.5 -70t-2.5 -56q0 -44 11 -66q15 -30 59 -30z" />
    <glyph glyph-name="bar" unicode="|" horiz-adv-x="333" 
d="M186 697q-3 -168 -3 -493t3 -493h-39q3 168 3 493t-3 493h39z" />
    <glyph glyph-name="braceright" unicode="}" horiz-adv-x="350" 
d="M76 -221q-40 0 -81 12l5 13q37 -7 55 -7q44 0 59 30q11 22 11 66q0 14 -2.5 55.5t-2.5 69.5q0 109 32.5 157.5t113.5 55.5v4q-80 7 -113 56t-33 156q0 28 2.5 70t2.5 56q0 44 -11 66q-15 30 -59 30q-18 0 -55 -7l-5 13q41 12 81 12q60 0 91 -31t31 -131q0 -18 -1 -60
t-1 -64q0 -105 22 -132q22 -28 85 -28q16 0 24 1v-19q-10 2 -28 2q-59 0 -81 -28q-22 -27 -22 -132q0 -22 1 -64t1 -60q0 -100 -31 -131t-91 -31z" />
    <glyph glyph-name="asciitilde" unicode="~" horiz-adv-x="563" 
d="M68 234q0 -16 1 -25l-12 -1q-4 16 -4 37q0 51 27.5 86t76.5 35q50 0 140 -50q36 -21 50 -29t40 -18t45 -10q30 0 46.5 21t16.5 58q0 16 -1 25l12 1q4 -16 4 -37q0 -51 -27.5 -86t-76.5 -35q-54 0 -140 50q-36 21 -50 29t-40 18t-45 10q-30 0 -46.5 -21t-16.5 -58z" />
    <glyph glyph-name="exclamdown" unicode="&#xa1;" horiz-adv-x="327" 
d="M131 14q13 127 21 261h24q8 -134 21 -261q3 -31 8 -76t7.5 -72t2.5 -43q0 -77 -51 -77t-51 77q0 16 2.5 43t7.5 72t8 76zM164 458q22 0 39 -17t17 -39q0 -23 -16.5 -39.5t-39.5 -16.5t-40 16.5t-17 39.5q0 22 17 39t40 17z" />
    <glyph glyph-name="cent" unicode="&#xa2;" horiz-adv-x="498" 
d="M278 -11q0 -55 4 -185h-30q4 128 4 186q-88 8 -146 74.5t-58 159.5q0 91 55.5 157.5t148.5 75.5q0 70 -4 186h30q-4 -102 -4 -185q82 0 131 -43q42 -37 42 -88q0 -28 -14.5 -45t-37.5 -17q-19 0 -30.5 11.5t-12.5 28.5q22 29 22 59q0 36 -26.5 56t-64.5 20h-9v-427
q7 -1 23 -1q91 0 150 99l15 -8q-64 -114 -188 -114zM137 231q0 -76 31 -134.5t88 -77.5v417q-58 -14 -88.5 -72t-30.5 -133z" />
    <glyph glyph-name="sterling" unicode="&#xa3;" horiz-adv-x="558" 
d="M191 262q-6 -56 -24 -101.5t-58 -102.5l2 -2q62 60 137 60q38 0 117 -19.5t103 -19.5q61 0 61 66q0 13 -1 21l10 1q5 -23 5 -47q0 -61 -28.5 -96t-71.5 -35q-32 0 -129 35t-141 35q-91 0 -99 -100q-8 -6 -16 -6q-17 0 -17 18t36 55q20 60 26 103.5t11 134.5q-41 0 -99 -2
v22q50 -3 100 -3q4 76 7 113.5t10.5 82t19.5 76.5q24 64 69.5 100t104.5 36q65 0 106 -39.5t41 -89.5q0 -32 -16.5 -53t-41.5 -21q-37 0 -43 39q32 30 32 69q0 33 -22 55t-61 22q-54 0 -78.5 -45.5t-34.5 -139.5q-4 -36 -8.5 -106.5t-6.5 -98.5q27 0 57 0.5t66.5 1.5t57.5 1
v-22q-55 2 -183 2z" />
    <glyph glyph-name="currency" unicode="&#xa4;" horiz-adv-x="552" 
d="M145 190l-70 -72l-28 28l75 69q-39 48 -39 120t40 123l-76 70l28 28l71 -74q52 46 130 46q79 0 131 -44l70 72l28 -28l-75 -69q39 -48 39 -120t-40 -123l76 -70l-28 -28l-71 74q-52 -46 -130 -46q-79 0 -131 44zM143 337q0 -70 37 -120.5t98 -50.5q62 0 96.5 49t34.5 122
q0 70 -37 120.5t-98 50.5q-62 0 -96.5 -49t-34.5 -122z" />
    <glyph glyph-name="yen" unicode="&#xa5;" horiz-adv-x="597" 
d="M302 0q-88 0 -137 -4l-1 16q66 2 80 28q16 33 18 241q-120 0 -170 -1v21q46 -2 170 -2v24l-29 58q-103 0 -141 -1v20q40 -2 132 -2q-81 162 -117 216q-18 27 -36.5 36t-55.5 12l1 16q55 -4 124 -4q73 0 128 4l2 -16q-64 -5 -64 -27q0 -18 35 -91q41 -86 95 -179
q58 121 93 199q25 56 25 70q0 23 -65 28l1 16q56 -4 100 -4q38 0 91 4l1 -16q-33 -4 -46 -7.5t-26 -14t-28 -34.5q-35 -56 -108 -208q95 0 145 2v-20q-46 1 -153 1q-12 -24 -17 -36v-46q73 0 170 5v-24q-20 0 -78.5 0.5t-91.5 0.5q0 -190 13 -228q13 -37 81 -41l-1 -16
q-76 4 -140 4z" />
    <glyph glyph-name="brokenbar" unicode="&#xa6;" horiz-adv-x="333" 
d="M183 508q0 -126 3 -190h-39q3 64 3 190q0 124 -3 189h39q-3 -65 -3 -189zM186 90q-3 -64 -3 -189t3 -190h-39q3 64 3 190q0 125 -3 189h39z" />
    <glyph glyph-name="section" unicode="&#xa7;" horiz-adv-x="519" 
d="M459 200q0 -61 -41.5 -100t-100.5 -41l-1 -3q107 -84 107 -174q0 -72 -53 -116t-124 -44q-65 0 -120 34.5t-55 91.5q0 49 39 49q29 0 37 -28q-3 -12 -3 -26q0 -46 30.5 -74t80.5 -28q47 0 80 25.5t33 75.5q0 29 -10 53t-35.5 48.5t-41 36.5t-54.5 39l-6 4.5t-5 3.5l-6 4
q-33 23 -53.5 39.5t-46 42.5t-38 55.5t-12.5 61.5q0 57 38 95.5t98 44.5l1 3q-94 80 -94 163q0 65 49 108t123 43q69 0 113.5 -37t44.5 -80q0 -21 -11 -33.5t-27 -12.5q-13 0 -23 8.5t-12 19.5q3 10 3 24q0 40 -29 66t-74 26q-43 0 -72.5 -23.5t-29.5 -68.5q0 -27 11 -51.5
t36 -48.5t42 -37.5t52 -37.5q42 -29 64.5 -47t48 -44t36.5 -52.5t11 -57.5zM119 275q0 -52 38 -94t98 -84q38 -19 68 -19q33 0 55 18.5t22 55.5q0 50 -39 93t-107 90q-32 16 -59 16q-36 0 -56 -20.5t-20 -55.5z" />
    <glyph glyph-name="dieresis" unicode="&#xa8;" 
d="M369 638q20 0 34.5 -14.5t14.5 -33.5t-14.5 -33.5t-34.5 -14.5q-19 0 -33 14.5t-14 33.5t14 33.5t33 14.5zM205 638q20 0 34.5 -14.5t14.5 -33.5t-14.5 -33.5t-34.5 -14.5q-19 0 -33 14.5t-14 33.5t14 33.5t33 14.5z" />
    <glyph glyph-name="copyright" unicode="&#xa9;" horiz-adv-x="792" 
d="M646 87q-99 -100 -250 -100t-250 99.5t-99 250.5t99 251t250 100t250 -99.5t99 -250.5t-99 -251zM163 102.5q93 -94.5 233 -94.5t233 94t93 235t-93 235.5t-233 94.5t-233 -94t-93 -235t93 -235.5zM409 129q54 0 90.5 34t45.5 89l13 -1q-3 -28 -3 -60q0 -35 3 -55
q-24 -1 -78.5 -11.5t-85.5 -10.5q-94 0 -154 63t-60 162q0 97 59.5 159.5t156.5 62.5q33 0 89.5 -11.5t74.5 -13.5q-3 -27 -3 -65q0 -37 2 -52l-13 -2q-28 129 -134 129q-74 0 -119 -60.5t-45 -148.5t44.5 -148t116.5 -60z" />
    <glyph glyph-name="ordfeminine" unicode="&#xaa;" horiz-adv-x="399" 
d="M248 415q0 16 5 33l-3 1q-13 -32 -34 -52q-32 -29 -80 -29q-41 0 -64.5 19.5t-23.5 53.5q0 53 53 78q35 17 94 17q32 0 54 -4q1 12 1 24q0 40 -13 69q-22 47 -74 47q-23 0 -38 -11t-15 -33q0 -21 21 -45q0 -14 -9 -23t-23 -9q-17 0 -27 12.5t-10 33.5q0 40 34.5 65
t87.5 25q67 0 99 -41q24 -30 24 -93q0 -13 -1 -49t-1 -50q0 -56 21 -56q13 0 29 11l7 -11q-45 -28 -75 -28q-39 0 -39 45zM230 440q15 31 18 78q-13 4 -35 4q-43 0 -70 -19q-34 -25 -34 -62q0 -24 14.5 -38.5t36.5 -14.5q44 0 70 52z" />
    <glyph glyph-name="guillemotleft" unicode="&#xab;" horiz-adv-x="427" 
d="M111 226q29 -40 114 -162l-13 -9q-69 74 -176 167q90 77 177 171l11 -9q-61 -89 -113 -158zM260 226q29 -40 114 -162l-13 -9q-69 74 -176 167q90 77 177 171l11 -9q-61 -89 -113 -158z" />
    <glyph glyph-name="logicalnot" unicode="&#xac;" horiz-adv-x="607" 
d="M474 315q-229 0 -368 -3v29q81 -3 204 -3q106 0 188 3q0 -115 3 -198h-30q3 81 3 172z" />
    <glyph glyph-name="uni00AD" unicode="&#xad;" horiz-adv-x="334" 
d="M163 272q-73 0 -110 -3v32q62 -2 96 -2q57 0 132 5v-36q-39 4 -118 4z" />
    <glyph glyph-name="registered" unicode="&#xae;" horiz-adv-x="641" 
d="M481.5 300.5q-64.5 -64.5 -161.5 -64.5t-161 64.5t-64 161.5t64.5 161.5t161.5 64.5t161 -64.5t64 -161.5t-64.5 -161.5zM323 672q-88 0 -148.5 -61t-60.5 -149t59.5 -148t147.5 -60t147 59.5t59 148.5t-58.5 149.5t-145.5 60.5zM254 321q-46 0 -61 -2l-1 11q27 2 34 11
q9 12 9 109q0 88 -3 118q-2 19 -8.5 24.5t-28.5 8.5l2 11q20 -4 42 -4q16 0 44.5 5t47.5 5q40 0 69 -16t29 -53q0 -63 -88 -73v-3q23 -4 35 -20.5t26 -56.5t20 -51.5t15 -11.5q11 0 26 18l6 -5q-28 -35 -56 -35q-16 0 -27 11t-16.5 23.5t-14.5 39.5q-18 52 -29.5 68.5
t-40.5 16.5q-8 0 -8 -4q0 -103 6 -119q5 -15 35 -17l-1 -11q-32 2 -63 2zM317 606q-16 0 -38 -5q-2 -33 -2 -104q0 -10 3.5 -13t17.5 -3q83 0 83 67q0 58 -64 58z" />
    <glyph glyph-name="macron" unicode="&#xaf;" horiz-adv-x="577" 
d="M283 556q-59 0 -116 -3v29q43 -4 103 -4q65 0 140 6v-31q-65 3 -127 3z" />
    <glyph glyph-name="degree" unicode="&#xb0;" horiz-adv-x="451" 
d="M102 396q-49 48 -49 121t49.5 121.5t123.5 48.5t123 -48t49 -121t-49.5 -121.5t-123.5 -48.5t-123 48zM98 518q0 -62 36.5 -107t91.5 -45t91 44t36 107q0 62 -36.5 107t-91.5 45t-91 -44t-36 -107z" />
    <glyph glyph-name="plusminus" unicode="&#xb1;" horiz-adv-x="644" 
d="M321 1q-129 0 -215 -3v29q86 -3 216 -3t216 3v-29q-87 3 -217 3zM310 315q-123 0 -204 -3v29q81 -3 204 -3q0 121 -3 204h30q-3 -83 -3 -204q122 0 204 3v-29q-82 3 -204 3q0 -121 3 -204h-30q3 81 3 204z" />
    <glyph glyph-name="two.superior" unicode="&#xb2;" horiz-adv-x="351" 
d="M288 586q0 -40 -24 -72.5t-76 -74.5t-75 -66l2 -2q21 10 41 10q27 0 66 -13q37 -13 54 -13q32 0 37 38l9 -1q-10 -90 -60 -90q-17 0 -67 20q-60 25 -88 25q-36 0 -43 -38q-3 -4 -8 -4q-12 0 -12 11q0 6 5 11q86 87 118 127q65 81 65 133q0 36 -21 60.5t-57 24.5
q-26 0 -42 -13.5t-16 -33.5q0 -26 23 -44q0 -11 -7.5 -19t-20.5 -8q-17 0 -27.5 13t-10.5 34q0 36 33 61t84 25t84.5 -26t33.5 -75z" />
    <glyph glyph-name="three.superior" unicode="&#xb3;" horiz-adv-x="363" 
d="M305 606q0 -33 -27.5 -56.5t-65.5 -35.5v-2q44 -6 77.5 -30.5t33.5 -68.5q0 -49 -43.5 -80t-97.5 -31q-47 0 -84.5 23.5t-37.5 63.5q0 19 9.5 32t26.5 13q23 0 29 -21q-11 -17 -11 -37q0 -28 20 -44t51 -16q37 0 59 23t22 61q0 40 -23.5 66.5t-59.5 36.5q-18 -5 -30 -5
q-18 0 -18 10t24 10q10 0 28 -2q27 12 45 35.5t18 51.5q0 29 -20.5 49t-53.5 20q-24 0 -39.5 -11.5t-15.5 -30.5q0 -22 19 -44q0 -24 -28 -24q-16 0 -25.5 11.5t-9.5 30.5q0 37 35.5 60t78.5 23q42 0 78 -21.5t36 -59.5z" />
    <glyph glyph-name="acute" unicode="&#xb4;" horiz-adv-x="540" 
d="M353 631q-56 -56 -121 -130l-10 7q45 86 78 158q11 24 31 24q16 0 25 -10t9 -23q0 -14 -12 -26z" />
    <glyph glyph-name="uni00B5" unicode="&#xb5;" horiz-adv-x="578" 
d="M241 -10q-38 0 -68 23l-2 -1q0 -110 -30 -197q-32 -93 -96 -93q-24 0 -41 12t-17 31q0 14 8.5 26.5t23.5 13.5q35 -45 60 -45q28 0 28 55q0 29 -9.5 133.5t-9.5 182.5q0 17 0.5 83.5t0.5 79.5q0 61 -4 97q-2 18 -8 24.5t-21 6.5q-23 0 -40 -2l-2 15q87 4 155 21l4 -4
q-8 -86 -8 -219q0 -116 13 -158q20 -63 73 -63q59 0 106 74q48 76 48 213q0 62 -5 92q-3 18 -8.5 24.5t-20.5 6.5q-23 0 -40 -2l-2 15q89 5 156 21l5 -4q-11 -104 -11 -238q0 -113 6 -151q5 -30 19.5 -39t53.5 -12l-1 -15q-59 3 -151 3q0 85 -2 128h-4q-18 -44 -46 -78
q-50 -60 -113 -60z" />
    <glyph glyph-name="paragraph" unicode="&#xb6;" horiz-adv-x="616" 
d="M242 -218q0 29 27 35q28 -22 57 -22q47 0 68 80.5t27 241.5q-62 2 -122.5 20.5t-113 51.5t-84.5 88t-32 122q0 121 94 204.5t239 83.5q71 0 124 -23q31 -13 44.5 -27.5t13.5 -25.5q0 -8 -8 -14t-20 -6q-22 29 -47 48q-7 -155 -7 -331q0 -194 9.5 -292.5t35.5 -154.5
q34 -74 86 -89q2 -6 2 -12q0 -13 -9.5 -23.5t-30.5 -10.5q-27 0 -47 19.5t-32 66t-19.5 90.5t-10.5 127t-3.5 138t-0.5 160q0 90 4 326q-22 12 -42 15q1 -70 1 -352q0 -248 -16 -382q-12 -102 -38.5 -155t-78.5 -53q-30 0 -50 16.5t-20 39.5zM304 399q0 -230 117 -264
q3 97 3 228q0 122 -2 306q-58 -5 -88 -81t-30 -189z" />
    <glyph glyph-name="periodcentered" unicode="&#xb7;" horiz-adv-x="303" 
d="M191 186q-17 -17 -40 -17t-39.5 16.5t-16.5 39.5t16.5 39.5t39.5 16.5t40 -16.5t17 -28v-22.5t-17 -28z" />
    <glyph glyph-name="cedilla" unicode="&#xb8;" horiz-adv-x="577" 
d="M270 -78q-27 0 -44 -16l-10 7q23 37 47 90h16q-21 -48 -31 -64l2 -2q22 10 45 10q41 0 63.5 -24t22.5 -58q0 -38 -27.5 -67.5t-73.5 -29.5q-37 0 -60.5 20t-23.5 50q0 37 26 37q21 0 21 -19q-9 -19 -9 -37q0 -20 11 -30t27 -10q26 0 41 22.5t15 51.5q0 28 -14.5 48.5
t-43.5 20.5z" />
    <glyph glyph-name="one.superior" unicode="&#xb9;" horiz-adv-x="309" 
d="M236 303q-30 2 -81 2t-78 -2l-1 11q41 3 46 12q10 18 10 168q0 66 -1.5 84.5t-7.5 18.5q-5 0 -25 -15l-26 -21l-8 9q69 54 115 119l8 -3q-5 -28 -5 -180q0 -127 6 -163q3 -16 12 -21.5t37 -7.5z" />
    <glyph glyph-name="ordmasculine" unicode="&#xba;" horiz-adv-x="423" 
d="M212 368q-74 0 -119 44.5t-45 114.5q0 71 45 115.5t119 44.5q73 0 118 -44.5t45 -115.5q0 -70 -45 -114.5t-118 -44.5zM111 526q0 -59 28 -101.5t74 -42.5t73 43t27 104q0 59 -28.5 102t-73.5 43q-47 0 -73.5 -43t-26.5 -105z" />
    <glyph glyph-name="guillemotright" unicode="&#xbb;" horiz-adv-x="427" 
d="M242 226q-90 -77 -177 -171l-11 9q61 89 113 158q-29 40 -114 162l13 9q69 -74 176 -167zM391 226q-90 -77 -177 -171l-11 9q61 89 113 158q-29 40 -114 162l13 9q69 -74 176 -167z" />
    <glyph glyph-name="onequarter" unicode="&#xbc;" horiz-adv-x="669" 
d="M496 101q-74 0 -160 -2l-2 7q128 151 212 277l9 -3q-7 -96 -7 -244q39 0 75 7l6 -49l-2 -2q-33 9 -79 9q2 -59 7 -72q6 -17 47 -20l-1 -11q-42 2 -76 2q-41 0 -83 -2l-1 11q41 1 47 14t8 78zM497 136q0 88 -2 144l-2 1q-51 -70 -112 -144q38 -1 116 -1zM349 330
q-122 -205 -203 -347l-26 16q89 138 212 344q102 171 203 348l26 -16q-152 -244 -212 -345zM236 303q-30 2 -81 2t-78 -2l-1 11q41 3 46 12q10 18 10 168q0 66 -1.5 84.5t-7.5 18.5q-5 0 -25 -15l-26 -21l-8 9q69 54 115 119l8 -3q-5 -28 -5 -180q0 -127 6 -163
q3 -16 12 -21.5t37 -7.5z" />
    <glyph glyph-name="onehalf" unicode="&#xbd;" horiz-adv-x="724" 
d="M349 330q-122 -205 -203 -347l-26 16q89 138 212 344q102 171 203 348l26 -16q-152 -244 -212 -345zM236 303q-30 2 -81 2t-78 -2l-1 11q41 3 46 12q10 18 10 168q0 66 -1.5 84.5t-7.5 18.5q-5 0 -25 -15l-26 -21l-8 9q69 54 115 119l8 -3q-5 -28 -5 -180q0 -127 6 -163
q3 -16 12 -21.5t37 -7.5zM649 278q0 -40 -24 -72.5t-76 -74.5t-75 -66l2 -2q21 10 41 10q27 0 66 -13q37 -13 54 -13q32 0 37 38l9 -1q-10 -90 -60 -90q-17 0 -67 20q-60 25 -88 25q-36 0 -43 -38q-3 -4 -8 -4q-12 0 -12 11q0 6 5 11q86 87 118 127q65 81 65 133
q0 36 -21 60.5t-57 24.5q-26 0 -42 -13.5t-16 -33.5q0 -26 23 -44q0 -11 -7.5 -19t-20.5 -8q-17 0 -27.5 13t-10.5 34q0 36 33 61t84 25t84.5 -26t33.5 -75z" />
    <glyph glyph-name="threequarters" unicode="&#xbe;" horiz-adv-x="691" 
d="M518 101q-74 0 -160 -2l-2 7q128 151 212 277l9 -3q-7 -96 -7 -244q39 0 75 7l6 -49l-2 -2q-33 9 -79 9q2 -59 7 -72q6 -17 47 -20l-1 -11q-42 2 -76 2q-41 0 -83 -2l-1 11q41 1 47 14t8 78zM519 136q0 88 -2 144l-2 1q-51 -70 -112 -144q38 -1 116 -1zM371 330
q-122 -205 -203 -347l-26 16q89 138 212 344q102 171 203 348l26 -16q-152 -244 -212 -345zM287 606q0 -33 -27.5 -56.5t-65.5 -35.5v-2q44 -6 77.5 -30.5t33.5 -68.5q0 -49 -43.5 -80t-97.5 -31q-47 0 -84.5 23.5t-37.5 63.5q0 19 9.5 32t26.5 13q23 0 29 -21
q-11 -17 -11 -37q0 -28 20 -44t51 -16q37 0 59 23t22 61q0 40 -23.5 66.5t-59.5 36.5q-18 -5 -30 -5q-18 0 -18 10t24 10q10 0 28 -2q27 12 45 35.5t18 51.5q0 29 -20.5 49t-53.5 20q-24 0 -39.5 -11.5t-15.5 -30.5q0 -22 19 -44q0 -24 -28 -24q-16 0 -25.5 11.5t-9.5 30.5
q0 37 35.5 60t78.5 23q42 0 78 -21.5t36 -59.5z" />
    <glyph glyph-name="questiondown" unicode="&#xbf;" horiz-adv-x="439" 
d="M231 180q0 41 -40 53q0 19 12.5 31.5t33.5 12.5q24 0 40 -17.5t16 -43.5t-15.5 -50t-51.5 -58t-44 -43q-61 -67 -61 -141q0 -59 34 -100.5t94 -41.5q41 0 66.5 20t25.5 54q0 52 -53 80q3 15 14.5 26t30.5 11q29 0 49.5 -24t20.5 -59q0 -55 -51.5 -90.5t-122.5 -35.5
q-45 0 -87.5 14t-74 48t-31.5 81q0 29 14 55t28 39.5t45.5 38.5t43.5 36q64 57 64 104zM180 402q0 22 17 39t40 17t39.5 -17t16.5 -39q0 -23 -16.5 -39.5t-39.5 -16.5t-40 16.5t-17 39.5z" />
    <glyph glyph-name="Agrave" unicode="&#xc0;" horiz-adv-x="735" 
d="M197 -4q-70 4 -104 4t-100 -4l-1 16q52 3 74 21.5t41 62.5q66 153 207 533q-24 27 -91 33l2 16q49 -4 85 -4q62 0 96 3q36 -123 114 -332q74 -196 99 -249q21 -43 44 -62t71 -22l-1 -16q-78 4 -121 4q-83 0 -153 -4l-1 16q70 3 70 39q0 19 -15 60l-60 167h-248
q-57 -152 -62 -167q-15 -41 -15 -60q0 -20 17 -28.5t53 -10.5zM329 604l-117 -306h233q-48 134 -113 306h-3zM309 876q33 -72 78 -158l-10 -7q-65 74 -121 130q-12 12 -12 26q0 13 9 23t25 10q20 0 31 -24z" />
    <glyph glyph-name="Aacute" unicode="&#xc1;" horiz-adv-x="735" 
d="M197 -4q-70 4 -104 4t-100 -4l-1 16q52 3 74 21.5t41 62.5q66 153 207 533q-24 27 -91 33l2 16q49 -4 85 -4q62 0 96 3q36 -123 114 -332q74 -196 99 -249q21 -43 44 -62t71 -22l-1 -16q-78 4 -121 4q-83 0 -153 -4l-1 16q70 3 70 39q0 19 -15 60l-60 167h-248
q-57 -152 -62 -167q-15 -41 -15 -60q0 -20 17 -28.5t53 -10.5zM329 604l-117 -306h233q-48 134 -113 306h-3zM462 841q-56 -56 -121 -130l-10 7q45 86 78 158q11 24 31 24q16 0 25 -10t9 -23q0 -14 -12 -26z" />
    <glyph glyph-name="Acircumflex" unicode="&#xc2;" horiz-adv-x="735" 
d="M197 -4q-70 4 -104 4t-100 -4l-1 16q52 3 74 21.5t41 62.5q66 153 207 533q-24 27 -91 33l2 16q49 -4 85 -4q62 0 96 3q36 -123 114 -332q74 -196 99 -249q21 -43 44 -62t71 -22l-1 -16q-78 4 -121 4q-83 0 -153 -4l-1 16q70 3 70 39q0 19 -15 60l-60 167h-248
q-57 -152 -62 -167q-15 -41 -15 -60q0 -20 17 -28.5t53 -10.5zM329 604l-117 -306h233q-48 134 -113 306h-3zM359 827q-54 -46 -120 -91l-8 8q77 84 112 138q7 11 16 11t16 -11q35 -54 112 -138l-8 -8q-66 45 -120 91z" />
    <glyph glyph-name="Atilde" unicode="&#xc3;" horiz-adv-x="735" 
d="M197 -4q-70 4 -104 4t-100 -4l-1 16q52 3 74 21.5t41 62.5q66 153 207 533q-24 27 -91 33l2 16q49 -4 85 -4q62 0 96 3q36 -123 114 -332q74 -196 99 -249q21 -43 44 -62t71 -22l-1 -16q-78 4 -121 4q-83 0 -153 -4l-1 16q70 3 70 39q0 19 -15 60l-60 167h-248
q-57 -152 -62 -167q-15 -41 -15 -60q0 -20 17 -28.5t53 -10.5zM329 604l-117 -306h233q-48 134 -113 306h-3zM275 798q-39 0 -50 -57l-10 1q11 103 76 103q28 0 77 -29.5t76 -29.5q39 0 50 57l10 -1q-11 -103 -76 -103q-28 0 -77 29.5t-76 29.5z" />
    <glyph glyph-name="Adieresis" unicode="&#xc4;" horiz-adv-x="735" 
d="M197 -4q-70 4 -104 4t-100 -4l-1 16q52 3 74 21.5t41 62.5q66 153 207 533q-24 27 -91 33l2 16q49 -4 85 -4q62 0 96 3q36 -123 114 -332q74 -196 99 -249q21 -43 44 -62t71 -22l-1 -16q-78 4 -121 4q-83 0 -153 -4l-1 16q70 3 70 39q0 19 -15 60l-60 167h-248
q-57 -152 -62 -167q-15 -41 -15 -60q0 -20 17 -28.5t53 -10.5zM329 604l-117 -306h233q-48 134 -113 306h-3zM440 848q20 0 34.5 -14.5t14.5 -33.5t-14.5 -33.5t-34.5 -14.5q-19 0 -33 14.5t-14 33.5t14 33.5t33 14.5zM276 848q20 0 34.5 -14.5t14.5 -33.5t-14.5 -33.5
t-34.5 -14.5q-19 0 -33 14.5t-14 33.5t14 33.5t33 14.5z" />
    <glyph glyph-name="Aring" unicode="&#xc5;" horiz-adv-x="735" 
d="M197 -4q-70 4 -104 4t-100 -4l-1 16q52 3 74 21.5t41 62.5q66 153 207 533q-24 27 -91 33l2 16q49 -4 85 -4q62 0 96 3q36 -123 114 -332q74 -196 99 -249q21 -43 44 -62t71 -22l-1 -16q-78 4 -121 4q-83 0 -153 -4l-1 16q70 3 70 39q0 19 -15 60l-60 167h-248
q-57 -152 -62 -167q-15 -41 -15 -60q0 -20 17 -28.5t53 -10.5zM329 604l-117 -306h233q-48 134 -113 306h-3zM454 810q0 -38 -27.5 -63.5t-67.5 -25.5t-67.5 25.5t-27.5 63.5q0 37 27.5 62.5t67.5 25.5t67.5 -25.5t27.5 -62.5zM317 757q16 -22 42 -22t42 22t16 53t-16 52.5
t-42 21.5t-42 -21.5t-16 -52.5t16 -53z" />
    <glyph glyph-name="AE" unicode="&#xc6;" horiz-adv-x="936" 
d="M77 0q-44 0 -104 -4l-1 16q50 4 76.5 22.5t53.5 61.5q115 183 316 536q-19 26 -76 32l1 16q141 -6 256 -6q132 0 234 11q3 -78 24 -166l-14 -4q-16 44 -27.5 66t-35 42.5t-59.5 28t-94 7.5q-27 0 -103 -4q4 -175 12 -283q38 -1 106 -1q24 0 40 5t25 10.5t15.5 21t8.5 25
t6 33.5l13 -1q-7 -58 -7 -106t7 -111l-13 -1q-3 24 -5 34t-6 25.5t-9.5 21.5t-15.5 13.5t-24 9.5t-34 2q-62 0 -105 -1q10 -217 28 -275q10 -33 31.5 -47t68.5 -14q94 0 145 49.5t84 147.5l14 -4q-36 -127 -53 -214q-75 5 -256 5q-147 0 -215 -4l-1 16q53 4 66 20t13 72
q0 44 -6 174h-220q-47 -78 -95 -167q-27 -49 -27 -70q0 -26 60 -29l-1 -16q-49 4 -97 4zM428 604l-179 -306h207q-8 180 -25 306h-3z" />
    <glyph glyph-name="Ccedilla" unicode="&#xc7;" horiz-adv-x="713" 
d="M404 -78q-27 0 -44 -16l-10 7q15 26 39 75q-146 3 -237 101t-91 250q0 153 92.5 250.5t245.5 97.5q52 0 137.5 -18t111.5 -21q-4 -56 -4 -99q0 -47 3 -81l-15 -2q-42 202 -210 202q-118 0 -190.5 -95.5t-72.5 -236.5q0 -140 71.5 -235t187.5 -95q85 0 141.5 52.5
t70.5 140.5l16 -1q-4 -56 -4 -93t4 -83q-38 -2 -116.5 -18t-124.5 -17q-15 -33 -23 -48l2 -2q22 10 45 10q41 0 63.5 -24t22.5 -58q0 -38 -27.5 -67.5t-73.5 -29.5q-37 0 -60.5 20t-23.5 50q0 37 26 37q21 0 21 -19q-9 -19 -9 -37q0 -20 11 -30t27 -10q26 0 41 22.5t15 51.5
q0 28 -14.5 48.5t-43.5 20.5z" />
    <glyph glyph-name="Egrave" unicode="&#xc8;" horiz-adv-x="621" 
d="M365 718l-10 -7q-65 74 -121 130q-12 12 -12 26q0 13 9 23t25 10q20 0 31 -24q33 -72 78 -158zM35 12q66 1 80 28q18 35 18 298q0 247 -13 285q-12 36 -81 41l2 16q132 -6 264 -6q118 0 225 11q3 -77 24 -166l-14 -4q-19 55 -39 84q-42 60 -177 60q-42 0 -98 -3
q-6 -144 -6 -283q54 -2 119 -2q41 0 65 16q12 7 18 27.5t12 51.5l13 -1q-7 -55 -7 -106q0 -52 7 -111l-13 -1q-8 67 -20 81q-14 15 -29.5 20t-44.5 5q-89 0 -120 -1q0 -158 3 -214q3 -58 13 -79q18 -43 104 -43q78 0 116.5 21t65 87t58.5 218l14 -4q3 23 -24 -181
q-14 -107 -23 -162q-85 5 -265 5q-202 0 -246 -4z" />
    <glyph glyph-name="Eacute" unicode="&#xc9;" horiz-adv-x="621" 
d="M299 711l-10 7q45 86 78 158q11 24 31 24q16 0 25 -10t9 -23q0 -14 -12 -26q-56 -56 -121 -130zM35 12q66 1 80 28q18 35 18 298q0 247 -13 285q-12 36 -81 41l2 16q132 -6 264 -6q118 0 225 11q3 -77 24 -166l-14 -4q-19 55 -39 84q-42 60 -177 60q-42 0 -98 -3
q-6 -144 -6 -283q54 -2 119 -2q41 0 65 16q12 7 18 27.5t12 51.5l13 -1q-7 -55 -7 -106q0 -52 7 -111l-13 -1q-8 67 -20 81q-14 15 -29.5 20t-44.5 5q-89 0 -120 -1q0 -158 3 -214q3 -58 13 -79q18 -43 104 -43q78 0 116.5 21t65 87t58.5 218l14 -4q3 23 -24 -181
q-14 -107 -23 -162q-85 5 -265 5q-202 0 -246 -4z" />
    <glyph glyph-name="Ecircumflex" unicode="&#xca;" horiz-adv-x="621" 
d="M224 736l-8 8q77 84 112 138q7 11 16 11t16 -11q35 -54 112 -138l-8 -8q-66 45 -120 91q-54 -46 -120 -91zM35 12q66 1 80 28q18 35 18 298q0 247 -13 285q-12 36 -81 41l2 16q132 -6 264 -6q118 0 225 11q3 -77 24 -166l-14 -4q-19 55 -39 84q-42 60 -177 60
q-42 0 -98 -3q-6 -144 -6 -283q54 -2 119 -2q41 0 65 16q12 7 18 27.5t12 51.5l13 -1q-7 -55 -7 -106q0 -52 7 -111l-13 -1q-8 67 -20 81q-14 15 -29.5 20t-44.5 5q-89 0 -120 -1q0 -158 3 -214q3 -58 13 -79q18 -43 104 -43q78 0 116.5 21t65 87t58.5 218l14 -4
q3 23 -24 -181q-14 -107 -23 -162q-85 5 -265 5q-202 0 -246 -4z" />
    <glyph glyph-name="Edieresis" unicode="&#xcb;" horiz-adv-x="621" 
d="M428 752q-19 0 -33 14.5t-14 33.5t14 33.5t33 14.5q20 0 34.5 -14.5t14.5 -33.5t-14.5 -33.5t-34.5 -14.5zM264 752q-19 0 -33 14.5t-14 33.5t14 33.5t33 14.5q20 0 34.5 -14.5t14.5 -33.5t-14.5 -33.5t-34.5 -14.5zM35 12q66 1 80 28q18 35 18 298q0 247 -13 285
q-12 36 -81 41l2 16q132 -6 264 -6q118 0 225 11q3 -77 24 -166l-14 -4q-19 55 -39 84q-42 60 -177 60q-42 0 -98 -3q-6 -144 -6 -283q54 -2 119 -2q41 0 65 16q12 7 18 27.5t12 51.5l13 -1q-7 -55 -7 -106q0 -52 7 -111l-13 -1q-8 67 -20 81q-14 15 -29.5 20t-44.5 5
q-89 0 -120 -1q0 -158 3 -214q3 -58 13 -79q18 -43 104 -43q78 0 116.5 21t65 87t58.5 218l14 -4q3 23 -24 -181q-14 -107 -23 -162q-85 5 -265 5q-202 0 -246 -4z" />
    <glyph glyph-name="Igrave" unicode="&#xcc;" horiz-adv-x="353" 
d="M180 0q-95 0 -144 -4l-1 16q65 2 80 28q18 34 18 298q0 244 -13 283q-12 37 -81 41l1 16q76 -4 133 -4q95 0 144 4l1 -16q-65 -2 -80 -28q-18 -34 -18 -298q0 -244 13 -283q12 -37 81 -41l-1 -16q-76 4 -133 4zM146 876q33 -72 78 -158l-10 -7q-65 74 -121 130
q-12 12 -12 26q0 13 9 23t25 10q20 0 31 -24z" />
    <glyph glyph-name="Iacute" unicode="&#xcd;" horiz-adv-x="353" 
d="M180 0q-95 0 -144 -4l-1 16q65 2 80 28q18 34 18 298q0 244 -13 283q-12 37 -81 41l1 16q76 -4 133 -4q95 0 144 4l1 -16q-65 -2 -80 -28q-18 -34 -18 -298q0 -244 13 -283q12 -37 81 -41l-1 -16q-76 4 -133 4zM259 841q-56 -56 -121 -130l-10 7q45 86 78 158
q11 24 31 24q16 0 25 -10t9 -23q0 -14 -12 -26z" />
    <glyph glyph-name="Icircumflex" unicode="&#xce;" horiz-adv-x="353" 
d="M180 0q-95 0 -144 -4l-1 16q65 2 80 28q18 34 18 298q0 244 -13 283q-12 37 -81 41l1 16q76 -4 133 -4q95 0 144 4l1 -16q-65 -2 -80 -28q-18 -34 -18 -298q0 -244 13 -283q12 -37 81 -41l-1 -16q-76 4 -133 4zM176 827q-54 -46 -120 -91l-8 8q77 84 112 138q7 11 16 11
t16 -11q35 -54 112 -138l-8 -8q-66 45 -120 91z" />
    <glyph glyph-name="Idieresis" unicode="&#xcf;" horiz-adv-x="353" 
d="M180 0q-95 0 -144 -4l-1 16q65 2 80 28q18 34 18 298q0 244 -13 283q-12 37 -81 41l1 16q76 -4 133 -4q95 0 144 4l1 -16q-65 -2 -80 -28q-18 -34 -18 -298q0 -244 13 -283q12 -37 81 -41l-1 -16q-76 4 -133 4zM257 848q20 0 34.5 -14.5t14.5 -33.5t-14.5 -33.5
t-34.5 -14.5q-19 0 -33 14.5t-14 33.5t14 33.5t33 14.5zM93 848q20 0 34.5 -14.5t14.5 -33.5t-14.5 -33.5t-34.5 -14.5q-19 0 -33 14.5t-14 33.5t14 33.5t33 14.5z" />
    <glyph glyph-name="Eth" unicode="&#xd0;" horiz-adv-x="780" 
d="M170 0q-71 0 -126 -4l-1 16q65 2 80 28q18 34 18 298v19q-53 0 -101 -2v24q56 -2 101 -2q-2 208 -13 244q-12 37 -81 41l2 16q76 -4 142 -4q29 0 92 6.5t95 6.5q157 0 249.5 -97.5t92.5 -250.5q0 -155 -94.5 -253.5t-250.5 -98.5q-29 0 -95 6.5t-110 6.5zM385 354
q-86 3 -157 3v-23q0 -208 9 -260q11 -68 114 -68q72 0 126.5 29.5t84.5 78.5t45 105.5t15 117.5q0 140 -70 235.5t-182 95.5q-65 0 -128 -15q-14 -118 -14 -276q70 0 157 4v-27z" />
    <glyph glyph-name="Ntilde" unicode="&#xd1;" horiz-adv-x="778" 
d="M139 0q-50 0 -103 -4l-1 16q37 2 55.5 7.5t25.5 20.5q17 34 17 298q0 243 -12 283q-6 20 -25 29t-57 12l1 16q59 -4 108 -4q40 0 64 1q241 -311 412 -521h2q3 72 3 194q0 233 -12 273q-6 20 -25 29t-57 12l1 16q59 -4 107 -4q47 0 103 4l1 -16q-68 -1 -81 -28
q-16 -34 -16 -298v-340q0 -13 -8 -13q-5 0 -16 14q-304 391 -467 593h-2q-4 -69 -4 -244q0 -253 12 -293q6 -20 25.5 -29t57.5 -12l-1 -16q-57 4 -108 4zM307 798q-39 0 -50 -57l-10 1q11 103 76 103q28 0 77 -29.5t76 -29.5q39 0 50 57l10 -1q-11 -103 -76 -103
q-28 0 -77 29.5t-76 29.5z" />
    <glyph glyph-name="Ograve" unicode="&#xd2;" horiz-adv-x="806" 
d="M746 338q0 -154 -95 -252.5t-250 -98.5q-154 0 -247.5 98t-93.5 251q0 154 95 252.5t250 98.5q154 0 247.5 -98t93.5 -251zM158 342q0 -143 72.5 -239t178.5 -96q104 0 171.5 94t67.5 231q0 143 -72.5 239t-178.5 96q-104 0 -171.5 -94t-67.5 -231zM373 876
q33 -72 78 -158l-10 -7q-65 74 -121 130q-12 12 -12 26q0 13 9 23t25 10q20 0 31 -24z" />
    <glyph glyph-name="Oacute" unicode="&#xd3;" horiz-adv-x="806" 
d="M746 338q0 -154 -95 -252.5t-250 -98.5q-154 0 -247.5 98t-93.5 251q0 154 95 252.5t250 98.5q154 0 247.5 -98t93.5 -251zM158 342q0 -143 72.5 -239t178.5 -96q104 0 171.5 94t67.5 231q0 143 -72.5 239t-178.5 96q-104 0 -171.5 -94t-67.5 -231zM486 841
q-56 -56 -121 -130l-10 7q45 86 78 158q11 24 31 24q16 0 25 -10t9 -23q0 -14 -12 -26z" />
    <glyph glyph-name="Ocircumflex" unicode="&#xd4;" horiz-adv-x="806" 
d="M746 338q0 -154 -95 -252.5t-250 -98.5q-154 0 -247.5 98t-93.5 251q0 154 95 252.5t250 98.5q154 0 247.5 -98t93.5 -251zM158 342q0 -143 72.5 -239t178.5 -96q104 0 171.5 94t67.5 231q0 143 -72.5 239t-178.5 96q-104 0 -171.5 -94t-67.5 -231zM403 827
q-54 -46 -120 -91l-8 8q77 84 112 138q7 11 16 11t16 -11q35 -54 112 -138l-8 -8q-66 45 -120 91z" />
    <glyph glyph-name="Otilde" unicode="&#xd5;" horiz-adv-x="806" 
d="M746 338q0 -154 -95 -252.5t-250 -98.5q-154 0 -247.5 98t-93.5 251q0 154 95 252.5t250 98.5q154 0 247.5 -98t93.5 -251zM158 342q0 -143 72.5 -239t178.5 -96q104 0 171.5 94t67.5 231q0 143 -72.5 239t-178.5 96q-104 0 -171.5 -94t-67.5 -231zM319 798
q-39 0 -50 -57l-10 1q11 103 76 103q28 0 77 -29.5t76 -29.5q39 0 50 57l10 -1q-11 -103 -76 -103q-28 0 -77 29.5t-76 29.5z" />
    <glyph glyph-name="Odieresis" unicode="&#xd6;" horiz-adv-x="806" 
d="M746 338q0 -154 -95 -252.5t-250 -98.5q-154 0 -247.5 98t-93.5 251q0 154 95 252.5t250 98.5q154 0 247.5 -98t93.5 -251zM158 342q0 -143 72.5 -239t178.5 -96q104 0 171.5 94t67.5 231q0 143 -72.5 239t-178.5 96q-104 0 -171.5 -94t-67.5 -231zM484 848
q20 0 34.5 -14.5t14.5 -33.5t-14.5 -33.5t-34.5 -14.5q-19 0 -33 14.5t-14 33.5t14 33.5t33 14.5zM320 848q20 0 34.5 -14.5t14.5 -33.5t-14.5 -33.5t-34.5 -14.5q-19 0 -33 14.5t-14 33.5t14 33.5t33 14.5z" />
    <glyph glyph-name="multiply" unicode="&#xd7;" horiz-adv-x="537" 
d="M268 311q-101 -103 -142 -147l-20 21q78 74 146 142q-68 68 -146 142l20 21q62 -67 142 -147q96 96 142 147l21 -21q-53 -49 -146 -142q93 -93 146 -142l-21 -21q-46 51 -142 147z" />
    <glyph glyph-name="Oslash" unicode="&#xd8;" horiz-adv-x="806" 
d="M211 38q-36 -51 -59 -86l-28 20q39 50 62 83q-126 98 -126 281q0 154 95 252.5t250 98.5q110 0 190 -51q36 51 59 86l28 -20q-39 -50 -62 -83q126 -98 126 -281q0 -154 -95 -252.5t-250 -98.5q-110 0 -190 51zM158 342q0 -136 67 -232l337 478q-71 79 -165 79
q-104 0 -171.5 -94t-67.5 -231zM648 332q0 136 -67 232l-337 -478q71 -79 165 -79q104 0 171.5 94t67.5 231z" />
    <glyph glyph-name="Ugrave" unicode="&#xd9;" horiz-adv-x="740" 
d="M105 621q-7 20 -25.5 29.5t-55.5 11.5l1 16q80 -4 139 -4q86 0 138 4l1 -16q-67 -1 -80 -28q-18 -34 -18 -264q0 -127 6.5 -182t27.5 -91q48 -80 160 -80q115 0 166 83q22 37 28.5 89.5t6.5 175.5q0 216 -12 256q-10 35 -82 41l1 16q56 -4 104 -4q51 0 106 4l1 -16
q-68 -1 -81 -28q-16 -34 -16 -274q0 -125 -6 -179t-31 -96q-59 -98 -215 -98q-137 0 -200 78q-30 37 -40.5 86.5t-10.5 129.5q0 305 -13 340zM365 876q33 -72 78 -158l-10 -7q-65 74 -121 130q-12 12 -12 26q0 13 9 23t25 10q20 0 31 -24z" />
    <glyph glyph-name="Uacute" unicode="&#xda;" horiz-adv-x="740" 
d="M105 621q-7 20 -25.5 29.5t-55.5 11.5l1 16q80 -4 139 -4q86 0 138 4l1 -16q-67 -1 -80 -28q-18 -34 -18 -264q0 -127 6.5 -182t27.5 -91q48 -80 160 -80q115 0 166 83q22 37 28.5 89.5t6.5 175.5q0 216 -12 256q-10 35 -82 41l1 16q56 -4 104 -4q51 0 106 4l1 -16
q-68 -1 -81 -28q-16 -34 -16 -274q0 -125 -6 -179t-31 -96q-59 -98 -215 -98q-137 0 -200 78q-30 37 -40.5 86.5t-10.5 129.5q0 305 -13 340zM498 841q-56 -56 -121 -130l-10 7q45 86 78 158q11 24 31 24q16 0 25 -10t9 -23q0 -14 -12 -26z" />
    <glyph glyph-name="Ucircumflex" unicode="&#xdb;" horiz-adv-x="740" 
d="M105 621q-7 20 -25.5 29.5t-55.5 11.5l1 16q80 -4 139 -4q86 0 138 4l1 -16q-67 -1 -80 -28q-18 -34 -18 -264q0 -127 6.5 -182t27.5 -91q48 -80 160 -80q115 0 166 83q22 37 28.5 89.5t6.5 175.5q0 216 -12 256q-10 35 -82 41l1 16q56 -4 104 -4q51 0 106 4l1 -16
q-68 -1 -81 -28q-16 -34 -16 -274q0 -125 -6 -179t-31 -96q-59 -98 -215 -98q-137 0 -200 78q-30 37 -40.5 86.5t-10.5 129.5q0 305 -13 340zM402 827q-54 -46 -120 -91l-8 8q77 84 112 138q7 11 16 11t16 -11q35 -54 112 -138l-8 -8q-66 45 -120 91z" />
    <glyph glyph-name="Udieresis" unicode="&#xdc;" horiz-adv-x="740" 
d="M105 621q-7 20 -25.5 29.5t-55.5 11.5l1 16q80 -4 139 -4q86 0 138 4l1 -16q-67 -1 -80 -28q-18 -34 -18 -264q0 -127 6.5 -182t27.5 -91q48 -80 160 -80q115 0 166 83q22 37 28.5 89.5t6.5 175.5q0 216 -12 256q-10 35 -82 41l1 16q56 -4 104 -4q51 0 106 4l1 -16
q-68 -1 -81 -28q-16 -34 -16 -274q0 -125 -6 -179t-31 -96q-59 -98 -215 -98q-137 0 -200 78q-30 37 -40.5 86.5t-10.5 129.5q0 305 -13 340zM485 848q20 0 34.5 -14.5t14.5 -33.5t-14.5 -33.5t-34.5 -14.5q-19 0 -33 14.5t-14 33.5t14 33.5t33 14.5zM321 848
q20 0 34.5 -14.5t14.5 -33.5t-14.5 -33.5t-34.5 -14.5q-19 0 -33 14.5t-14 33.5t14 33.5t33 14.5z" />
    <glyph glyph-name="Yacute" unicode="&#xdd;" horiz-adv-x="627" 
d="M315 0q-88 0 -137 -4l-1 16q66 2 80 28q18 35 18 283q-129 216 -185 291q-21 27 -38 36t-54 12l1 16q55 -4 124 -4q53 0 135 4l1 -16q-64 -5 -64 -27q0 -20 42 -92q39 -68 112 -179q81 131 122 206q26 47 26 63q0 15 -16 20.5t-49 8.5l1 16q56 -4 104 -4q39 0 92 4l1 -16
q-53 -6 -66 -15q-14 -9 -35 -37q-45 -62 -167 -265q0 -253 13 -292q12 -37 81 -41l-1 -16q-76 4 -140 4zM427 841q-56 -56 -121 -130l-10 7q45 86 78 158q11 24 31 24q16 0 25 -10t9 -23q0 -14 -12 -26z" />
    <glyph glyph-name="Thorn" unicode="&#xde;" horiz-adv-x="615" 
d="M180 0q-95 0 -144 -4l-1 16q65 2 80 28q18 34 18 298q0 244 -13 283q-12 37 -81 41l1 16q76 -4 133 -4q95 0 144 4l1 -16q-65 -2 -80 -28q-11 -20 -14 -85q101 16 137 16q39 0 77 -11t72 -33t55 -60.5t21 -87.5q0 -93 -66.5 -152.5t-162.5 -59.5q-75 0 -118 57l9 7
q12 -18 37.5 -30t53.5 -12q70 0 108 52t38 135q0 82 -36 128.5t-107 47.5q-53 0 -119 -16q-3 -50 -3 -194q0 -244 13 -283q12 -37 81 -41l-1 -16q-76 4 -133 4z" />
    <glyph glyph-name="germandbls" unicode="&#xdf;" horiz-adv-x="558" 
d="M138 0q-30 0 -120 -3l-1 15q63 1 72 28q10 30 10 180q0 102 -4 142q-1 17 -7.5 22t-23.5 5q-12 0 -37 -3l-2 15q45 7 69 13q0 122 29 188q24 55 70.5 88.5t106.5 33.5q38 0 77.5 -12t69.5 -40.5t30 -66.5q0 -22 -12 -42.5t-23.5 -31.5t-37 -30t-32.5 -25q-45 -38 -45 -75
q0 -20 15.5 -42t30.5 -34.5t57 -45.5q35 -28 54 -46.5t35.5 -48t16.5 -61.5q0 -57 -41.5 -95t-104.5 -38q-59 0 -98.5 31.5t-39.5 75.5q0 25 13 38.5t31 13.5q32 0 35 -30q-7 -12 -7 -35q0 -30 20 -52.5t58 -22.5q36 0 58 20.5t22 53.5q0 32 -21 55.5t-69 61.5l-12 9
q-58 46 -82 77t-24 71q0 18 4 33t15 29t18 22t24 24t23 21q41 41 41 92q0 55 -31.5 90.5t-83.5 35.5q-80 0 -99 -104q-12 -62 -12 -289q0 -224 6 -255q5 -24 22.5 -33t50.5 -11l-1 -15q-60 3 -113 3z" />
    <glyph glyph-name="agrave" unicode="&#xe0;" horiz-adv-x="506" 
d="M340 56q0 30 3 53l-4 1q-17 -46 -51 -77q-46 -43 -112 -43q-58 0 -92.5 28.5t-34.5 76.5q0 37 20.5 67.5t55.5 47.5q51 25 137 25q38 0 80 -6q1 12 1 22q0 75 -18 116q-32 71 -111 71q-33 0 -56 -16t-23 -50q0 -31 30 -68q0 -19 -12.5 -31.5t-31.5 -12.5
q-23 0 -37.5 18.5t-14.5 48.5q0 58 50.5 94.5t123.5 36.5q96 0 143 -61q34 -44 34 -132q0 -18 -2 -71.5t-2 -79.5q0 -43 6.5 -63t26.5 -20q16 0 41 14l8 -12q-65 -40 -104 -40q-25 0 -39.5 17t-14.5 46zM314 95q22 46 27 118q-25 6 -55 6q-62 0 -103 -29q-49 -35 -49 -92
q0 -36 21 -58t55 -22q66 0 104 77zM218 666q33 -72 78 -158l-10 -7q-65 74 -121 130q-12 12 -12 26q0 13 9 23t25 10q20 0 31 -24z" />
    <glyph glyph-name="aacute" unicode="&#xe1;" horiz-adv-x="506" 
d="M340 56q0 30 3 53l-4 1q-17 -46 -51 -77q-46 -43 -112 -43q-58 0 -92.5 28.5t-34.5 76.5q0 37 20.5 67.5t55.5 47.5q51 25 137 25q38 0 80 -6q1 12 1 22q0 75 -18 116q-32 71 -111 71q-33 0 -56 -16t-23 -50q0 -31 30 -68q0 -19 -12.5 -31.5t-31.5 -12.5
q-23 0 -37.5 18.5t-14.5 48.5q0 58 50.5 94.5t123.5 36.5q96 0 143 -61q34 -44 34 -132q0 -18 -2 -71.5t-2 -79.5q0 -43 6.5 -63t26.5 -20q16 0 41 14l8 -12q-65 -40 -104 -40q-25 0 -39.5 17t-14.5 46zM314 95q22 46 27 118q-25 6 -55 6q-62 0 -103 -29q-49 -35 -49 -92
q0 -36 21 -58t55 -22q66 0 104 77zM331 631q-56 -56 -121 -130l-10 7q45 86 78 158q11 24 31 24q16 0 25 -10t9 -23q0 -14 -12 -26z" />
    <glyph glyph-name="acircumflex" unicode="&#xe2;" horiz-adv-x="506" 
d="M340 56q0 30 3 53l-4 1q-17 -46 -51 -77q-46 -43 -112 -43q-58 0 -92.5 28.5t-34.5 76.5q0 37 20.5 67.5t55.5 47.5q51 25 137 25q38 0 80 -6q1 12 1 22q0 75 -18 116q-32 71 -111 71q-33 0 -56 -16t-23 -50q0 -31 30 -68q0 -19 -12.5 -31.5t-31.5 -12.5
q-23 0 -37.5 18.5t-14.5 48.5q0 58 50.5 94.5t123.5 36.5q96 0 143 -61q34 -44 34 -132q0 -18 -2 -71.5t-2 -79.5q0 -43 6.5 -63t26.5 -20q16 0 41 14l8 -12q-65 -40 -104 -40q-25 0 -39.5 17t-14.5 46zM314 95q22 46 27 118q-25 6 -55 6q-62 0 -103 -29q-49 -35 -49 -92
q0 -36 21 -58t55 -22q66 0 104 77zM248 617q-54 -46 -120 -91l-8 8q77 84 112 138q7 11 16 11t16 -11q35 -54 112 -138l-8 -8q-66 45 -120 91z" />
    <glyph glyph-name="atilde" unicode="&#xe3;" horiz-adv-x="506" 
d="M340 56q0 30 3 53l-4 1q-17 -46 -51 -77q-46 -43 -112 -43q-58 0 -92.5 28.5t-34.5 76.5q0 37 20.5 67.5t55.5 47.5q51 25 137 25q38 0 80 -6q1 12 1 22q0 75 -18 116q-32 71 -111 71q-33 0 -56 -16t-23 -50q0 -31 30 -68q0 -19 -12.5 -31.5t-31.5 -12.5
q-23 0 -37.5 18.5t-14.5 48.5q0 58 50.5 94.5t123.5 36.5q96 0 143 -61q34 -44 34 -132q0 -18 -2 -71.5t-2 -79.5q0 -43 6.5 -63t26.5 -20q16 0 41 14l8 -12q-65 -40 -104 -40q-25 0 -39.5 17t-14.5 46zM314 95q22 46 27 118q-25 6 -55 6q-62 0 -103 -29q-49 -35 -49 -92
q0 -36 21 -58t55 -22q66 0 104 77zM164 588q-39 0 -50 -57l-10 1q11 103 76 103q28 0 77 -29.5t76 -29.5q39 0 50 57l10 -1q-11 -103 -76 -103q-28 0 -77 29.5t-76 29.5z" />
    <glyph glyph-name="adieresis" unicode="&#xe4;" horiz-adv-x="506" 
d="M340 56q0 30 3 53l-4 1q-17 -46 -51 -77q-46 -43 -112 -43q-58 0 -92.5 28.5t-34.5 76.5q0 37 20.5 67.5t55.5 47.5q51 25 137 25q38 0 80 -6q1 12 1 22q0 75 -18 116q-32 71 -111 71q-33 0 -56 -16t-23 -50q0 -31 30 -68q0 -19 -12.5 -31.5t-31.5 -12.5
q-23 0 -37.5 18.5t-14.5 48.5q0 58 50.5 94.5t123.5 36.5q96 0 143 -61q34 -44 34 -132q0 -18 -2 -71.5t-2 -79.5q0 -43 6.5 -63t26.5 -20q16 0 41 14l8 -12q-65 -40 -104 -40q-25 0 -39.5 17t-14.5 46zM314 95q22 46 27 118q-25 6 -55 6q-62 0 -103 -29q-49 -35 -49 -92
q0 -36 21 -58t55 -22q66 0 104 77zM329 638q20 0 34.5 -14.5t14.5 -33.5t-14.5 -33.5t-34.5 -14.5q-19 0 -33 14.5t-14 33.5t14 33.5t33 14.5zM165 638q20 0 34.5 -14.5t14.5 -33.5t-14.5 -33.5t-34.5 -14.5q-19 0 -33 14.5t-14 33.5t14 33.5t33 14.5z" />
    <glyph glyph-name="aring" unicode="&#xe5;" horiz-adv-x="506" 
d="M340 56q0 30 3 53l-4 1q-17 -46 -51 -77q-46 -43 -112 -43q-58 0 -92.5 28.5t-34.5 76.5q0 37 20.5 67.5t55.5 47.5q51 25 137 25q38 0 80 -6q1 12 1 22q0 75 -18 116q-32 71 -111 71q-33 0 -56 -16t-23 -50q0 -31 30 -68q0 -19 -12.5 -31.5t-31.5 -12.5
q-23 0 -37.5 18.5t-14.5 48.5q0 58 50.5 94.5t123.5 36.5q96 0 143 -61q34 -44 34 -132q0 -18 -2 -71.5t-2 -79.5q0 -43 6.5 -63t26.5 -20q16 0 41 14l8 -12q-65 -40 -104 -40q-25 0 -39.5 17t-14.5 46zM314 95q22 46 27 118q-25 6 -55 6q-62 0 -103 -29q-49 -35 -49 -92
q0 -36 21 -58t55 -22q66 0 104 77zM342 600q0 -38 -27.5 -63.5t-67.5 -25.5t-67.5 25.5t-27.5 63.5q0 37 27.5 62.5t67.5 25.5t67.5 -25.5t27.5 -62.5zM205 547q16 -22 42 -22t42 22t16 53t-16 52.5t-42 21.5t-42 -21.5t-16 -52.5t16 -53z" />
    <glyph glyph-name="ae" unicode="&#xe6;" horiz-adv-x="755" 
d="M532 -10q-69 0 -120 38t-78 103h-2q-48 -141 -163 -141q-55 0 -87.5 28.5t-32.5 75.5q0 74 79 115q49 26 123 26q33 0 73 -6q0 96 -17 138q-30 71 -99 71q-31 0 -51 -16t-20 -49t28 -69q0 -19 -14.5 -31.5t-33.5 -12.5q-21 0 -35 18.5t-14 48.5q0 57 47.5 94t113.5 37
q45 0 83 -19t58 -55h2q62 74 155 74q70 0 119 -41t56 -122l-3 -4h-293q-4 -25 -4 -54q0 -91 41.5 -157t113.5 -66q85 0 144 96l16 -11q-70 -109 -185 -109zM532 441q-50 0 -80.5 -38.5t-42.5 -96.5h210q1 12 1 25q0 47 -21.5 78.5t-66.5 31.5zM297 95q21 46 26 118
q-24 6 -50 6q-56 0 -93 -29q-44 -35 -44 -92q0 -37 19 -58.5t50 -21.5q56 0 92 77z" />
    <glyph glyph-name="ccedilla" unicode="&#xe7;" horiz-adv-x="498" 
d="M266 -78q-27 0 -44 -16l-10 7q3 5 45 78q-89 8 -147 74t-58 160q0 97 63.5 165t161.5 68q83 0 132 -43q42 -38 42 -88q0 -28 -14.5 -45t-37.5 -17q-19 0 -30.5 11.5t-12.5 28.5q22 29 22 59q0 36 -26.5 56t-64.5 20q-70 0 -110 -60.5t-40 -149.5q0 -90 44.5 -153.5
t119.5 -63.5q92 0 150 98l15 -8q-66 -113 -193 -113l-29 -51l2 -2q22 10 45 10q41 0 63.5 -24t22.5 -58q0 -38 -27.5 -67.5t-73.5 -29.5q-37 0 -60.5 20t-23.5 50q0 37 26 37q21 0 21 -19q-9 -19 -9 -37q0 -20 11 -30t27 -10q26 0 41 22.5t15 51.5q0 28 -14.5 48.5
t-43.5 20.5z" />
    <glyph glyph-name="egrave" unicode="&#xe8;" horiz-adv-x="514" 
d="M309 14q87 0 150 96l17 -11q-74 -109 -195 -109q-99 0 -163 70t-64 170q0 106 70 171q61 57 149 57q76 0 128 -41t59 -122l-3 -4h-313q-5 -24 -5 -56q0 -89 46 -155t124 -66zM283 441q-55 0 -89 -38.5t-47 -96.5h230q1 12 1 25q0 48 -22.5 79t-72.5 31zM235 666
q33 -72 78 -158l-10 -7q-65 74 -121 130q-12 12 -12 26q0 13 9 23t25 10q20 0 31 -24z" />
    <glyph glyph-name="eacute" unicode="&#xe9;" horiz-adv-x="514" 
d="M309 14q87 0 150 96l17 -11q-74 -109 -195 -109q-99 0 -163 70t-64 170q0 106 70 171q61 57 149 57q76 0 128 -41t59 -122l-3 -4h-313q-5 -24 -5 -56q0 -89 46 -155t124 -66zM283 441q-55 0 -89 -38.5t-47 -96.5h230q1 12 1 25q0 48 -22.5 79t-72.5 31zM369 631
q-56 -56 -121 -130l-10 7q45 86 78 158q11 24 31 24q16 0 25 -10t9 -23q0 -14 -12 -26z" />
    <glyph glyph-name="ecircumflex" unicode="&#xea;" horiz-adv-x="514" 
d="M309 14q87 0 150 96l17 -11q-74 -109 -195 -109q-99 0 -163 70t-64 170q0 106 70 171q61 57 149 57q76 0 128 -41t59 -122l-3 -4h-313q-5 -24 -5 -56q0 -89 46 -155t124 -66zM283 441q-55 0 -89 -38.5t-47 -96.5h230q1 12 1 25q0 48 -22.5 79t-72.5 31zM277 617
q-54 -46 -120 -91l-8 8q77 84 112 138q7 11 16 11t16 -11q35 -54 112 -138l-8 -8q-66 45 -120 91z" />
    <glyph glyph-name="edieresis" unicode="&#xeb;" horiz-adv-x="514" 
d="M309 14q87 0 150 96l17 -11q-74 -109 -195 -109q-99 0 -163 70t-64 170q0 106 70 171q61 57 149 57q76 0 128 -41t59 -122l-3 -4h-313q-5 -24 -5 -56q0 -89 46 -155t124 -66zM283 441q-55 0 -89 -38.5t-47 -96.5h230q1 12 1 25q0 48 -22.5 79t-72.5 31zM359 638
q20 0 34.5 -14.5t14.5 -33.5t-14.5 -33.5t-34.5 -14.5q-19 0 -33 14.5t-14 33.5t14 33.5t33 14.5zM195 638q20 0 34.5 -14.5t14.5 -33.5t-14.5 -33.5t-34.5 -14.5q-19 0 -33 14.5t-14 33.5t14 33.5t33 14.5z" />
    <glyph glyph-name="igrave" unicode="&#xec;" horiz-adv-x="273" 
d="M138 0q-30 0 -120 -3l-1 15q63 1 72 28q10 30 10 180q0 102 -4 142q-1 17 -7.5 22t-23.5 5q-12 0 -37 -3l-2 15q56 7 87.5 19t65.5 38l6 -4q-11 -101 -11 -246q0 -115 7 -152q5 -23 19.5 -32.5t52.5 -11.5l-1 -15q-60 3 -113 3zM84 666q33 -72 78 -158l-10 -7
q-65 74 -121 130q-12 12 -12 26q0 13 9 23t25 10q20 0 31 -24z" />
    <glyph glyph-name="iacute" unicode="&#xed;" horiz-adv-x="273" 
d="M138 0q-30 0 -120 -3l-1 15q63 1 72 28q10 30 10 180q0 102 -4 142q-1 17 -7.5 22t-23.5 5q-12 0 -37 -3l-2 15q56 7 87.5 19t65.5 38l6 -4q-11 -101 -11 -246q0 -115 7 -152q5 -23 19.5 -32.5t52.5 -11.5l-1 -15q-60 3 -113 3zM227 631q-56 -56 -121 -130l-10 7
q45 86 78 158q11 24 31 24q16 0 25 -10t9 -23q0 -14 -12 -26z" />
    <glyph glyph-name="icircumflex" unicode="&#xee;" horiz-adv-x="273" 
d="M138 0q-30 0 -120 -3l-1 15q63 1 72 28q10 30 10 180q0 102 -4 142q-1 17 -7.5 22t-23.5 5q-12 0 -37 -3l-2 15q56 7 87.5 19t65.5 38l6 -4q-11 -101 -11 -246q0 -115 7 -152q5 -23 19.5 -32.5t52.5 -11.5l-1 -15q-60 3 -113 3zM136 617q-54 -46 -120 -91l-8 8
q77 84 112 138q7 11 16 11t16 -11q35 -54 112 -138l-8 -8q-66 45 -120 91z" />
    <glyph glyph-name="idieresis" unicode="&#xef;" horiz-adv-x="273" 
d="M138 0q-30 0 -120 -3l-1 15q63 1 72 28q10 30 10 180q0 102 -4 142q-1 17 -7.5 22t-23.5 5q-12 0 -37 -3l-2 15q56 7 87.5 19t65.5 38l6 -4q-11 -101 -11 -246q0 -115 7 -152q5 -23 19.5 -32.5t52.5 -11.5l-1 -15q-60 3 -113 3zM217 638q20 0 34.5 -14.5t14.5 -33.5
t-14.5 -33.5t-34.5 -14.5q-19 0 -33 14.5t-14 33.5t14 33.5t33 14.5zM53 638q20 0 34.5 -14.5t14.5 -33.5t-14.5 -33.5t-34.5 -14.5q-19 0 -33 14.5t-14 33.5t14 33.5t33 14.5z" />
    <glyph glyph-name="eth" unicode="&#xf0;" horiz-adv-x="570" 
d="M328 578q-102 -23 -121 -28l-6 28q32 4 114 21q-45 67 -85 106l12 14q71 -46 130 -108l103 25l7 -31q-41 -5 -92 -14q125 -146 125 -320q0 -75 -23 -137t-75.5 -103t-127.5 -41q-103 0 -170 69t-67 166t67 165t166 68q57 0 111 -25q-27 75 -68 145zM438 214q0 69 -23 159
q-24 30 -60 48.5t-73 18.5q-66 0 -105.5 -59.5t-39.5 -142.5q0 -88 43.5 -158.5t120.5 -70.5q67 0 102 56.5t35 148.5z" />
    <glyph glyph-name="ntilde" unicode="&#xf1;" horiz-adv-x="598" 
d="M138 0q-30 0 -120 -3l-1 15q63 1 72 28q10 30 10 173q0 111 -6 149q-2 17 -8.5 22t-22.5 5q-12 0 -37 -3l-2 15q56 5 90 17.5t68 39.5l6 -4q-13 -55 -15 -151l4 -1q28 60 65 98q56 58 126 58q79 0 117 -61q28 -45 28 -133q0 -17 -2 -69.5t-2 -91.5q0 -51 12.5 -69.5
t62.5 -21.5l-1 -15q-69 3 -109 3q-42 0 -120 -3l-1 15q37 1 50 6.5t19 16.5q12 24 12 163q0 122 -14 169q-21 67 -77 67q-61 0 -112 -79q-57 -87 -57 -214q0 -52 6 -85q4 -22 19 -32t53 -12l-1 -15q-69 3 -112 3zM220 588q-39 0 -50 -57l-10 1q11 103 76 103q28 0 77 -29.5
t76 -29.5q39 0 50 57l10 -1q-11 -103 -76 -103q-28 0 -77 29.5t-76 29.5z" />
    <glyph glyph-name="ograve" unicode="&#xf2;" 
d="M118 55.5q-65 65.5 -65 168.5t65 168.5t170 65.5t170 -65.5t65 -168.5t-65 -168.5t-170 -65.5t-170 65.5zM138 225q0 -92 41.5 -155t110.5 -63t108.5 63t39.5 153q0 92 -41.5 155t-110.5 63t-108.5 -63t-39.5 -153zM258 666q33 -72 78 -158l-10 -7q-65 74 -121 130
q-12 12 -12 26q0 13 9 23t25 10q20 0 31 -24z" />
    <glyph glyph-name="oacute" unicode="&#xf3;" 
d="M118 55.5q-65 65.5 -65 168.5t65 168.5t170 65.5t170 -65.5t65 -168.5t-65 -168.5t-170 -65.5t-170 65.5zM138 225q0 -92 41.5 -155t110.5 -63t108.5 63t39.5 153q0 92 -41.5 155t-110.5 63t-108.5 -63t-39.5 -153zM371 631q-56 -56 -121 -130l-10 7q45 86 78 158
q11 24 31 24q16 0 25 -10t9 -23q0 -14 -12 -26z" />
    <glyph glyph-name="ocircumflex" unicode="&#xf4;" 
d="M118 55.5q-65 65.5 -65 168.5t65 168.5t170 65.5t170 -65.5t65 -168.5t-65 -168.5t-170 -65.5t-170 65.5zM138 225q0 -92 41.5 -155t110.5 -63t108.5 63t39.5 153q0 92 -41.5 155t-110.5 63t-108.5 -63t-39.5 -153zM288 617q-54 -46 -120 -91l-8 8q77 84 112 138
q7 11 16 11t16 -11q35 -54 112 -138l-8 -8q-66 45 -120 91z" />
    <glyph glyph-name="otilde" unicode="&#xf5;" 
d="M118 55.5q-65 65.5 -65 168.5t65 168.5t170 65.5t170 -65.5t65 -168.5t-65 -168.5t-170 -65.5t-170 65.5zM138 225q0 -92 41.5 -155t110.5 -63t108.5 63t39.5 153q0 92 -41.5 155t-110.5 63t-108.5 -63t-39.5 -153zM204 588q-39 0 -50 -57l-10 1q11 103 76 103
q28 0 77 -29.5t76 -29.5q39 0 50 57l10 -1q-11 -103 -76 -103q-28 0 -77 29.5t-76 29.5z" />
    <glyph glyph-name="odieresis" unicode="&#xf6;" 
d="M118 55.5q-65 65.5 -65 168.5t65 168.5t170 65.5t170 -65.5t65 -168.5t-65 -168.5t-170 -65.5t-170 65.5zM138 225q0 -92 41.5 -155t110.5 -63t108.5 63t39.5 153q0 92 -41.5 155t-110.5 63t-108.5 -63t-39.5 -153zM369 638q20 0 34.5 -14.5t14.5 -33.5t-14.5 -33.5
t-34.5 -14.5q-19 0 -33 14.5t-14 33.5t14 33.5t33 14.5zM205 638q20 0 34.5 -14.5t14.5 -33.5t-14.5 -33.5t-34.5 -14.5q-19 0 -33 14.5t-14 33.5t14 33.5t33 14.5z" />
    <glyph glyph-name="divide" unicode="&#xf7;" horiz-adv-x="644" 
d="M269 468q0 23 15.5 38.5t37.5 15.5t38 -16t16 -38t-15.5 -37.5t-38.5 -15.5q-22 0 -37.5 15.5t-15.5 37.5zM321 315q-129 0 -215 -3v29q86 -3 216 -3t216 3v-29q-87 3 -217 3zM322 131q-22 0 -37.5 15.5t-15.5 37.5q0 23 15.5 38.5t37.5 15.5t38 -16t16 -38t-15.5 -37.5
t-38.5 -15.5z" />
    <glyph glyph-name="oslash" unicode="&#xf8;" 
d="M157 25q-23 -32 -63 -90l-24 18q44 55 67 86q-84 67 -84 185q0 103 65 168.5t170 65.5q76 0 131 -35q23 32 63 90l24 -18q-44 -55 -67 -86q84 -67 84 -185q0 -103 -65 -168.5t-170 -65.5q-76 0 -131 35zM138 222q0 -80 32 -138l221 301q-42 56 -105 56
q-69 0 -108.5 -63.5t-39.5 -155.5zM438 226q0 77 -33 137l-221 -301q42 -55 106 -55q69 0 108.5 63.5t39.5 155.5z" />
    <glyph glyph-name="ugrave" unicode="&#xf9;" horiz-adv-x="578" 
d="M58 422q-23 0 -40 -2l-2 15q87 4 155 21l4 -4q-11 -99 -11 -227q0 -108 13 -150q20 -63 73 -63q29 0 58 21t49 53q48 76 48 213q0 62 -5 92q-3 18 -8.5 24.5t-20.5 6.5q-23 0 -40 -2l-2 15q89 5 156 21l5 -4q-11 -104 -11 -238q0 -113 6 -151q5 -30 19.5 -39t53.5 -12
l-1 -15q-59 3 -151 3q0 85 -2 128h-4q-18 -44 -46 -78q-51 -60 -127 -60q-77 0 -114 57q-27 41 -27 124q0 20 2 64.5t2 68.5q0 60 -3 87q-2 18 -8 24.5t-21 6.5zM257 666q33 -72 78 -158l-10 -7q-65 74 -121 130q-12 12 -12 26q0 13 9 23t25 10q20 0 31 -24z" />
    <glyph glyph-name="uacute" unicode="&#xfa;" horiz-adv-x="578" 
d="M58 422q-23 0 -40 -2l-2 15q87 4 155 21l4 -4q-11 -99 -11 -227q0 -108 13 -150q20 -63 73 -63q29 0 58 21t49 53q48 76 48 213q0 62 -5 92q-3 18 -8.5 24.5t-20.5 6.5q-23 0 -40 -2l-2 15q89 5 156 21l5 -4q-11 -104 -11 -238q0 -113 6 -151q5 -30 19.5 -39t53.5 -12
l-1 -15q-59 3 -151 3q0 85 -2 128h-4q-18 -44 -46 -78q-51 -60 -127 -60q-77 0 -114 57q-27 41 -27 124q0 20 2 64.5t2 68.5q0 60 -3 87q-2 18 -8 24.5t-21 6.5zM370 631q-56 -56 -121 -130l-10 7q45 86 78 158q11 24 31 24q16 0 25 -10t9 -23q0 -14 -12 -26z" />
    <glyph glyph-name="ucircumflex" unicode="&#xfb;" horiz-adv-x="578" 
d="M58 422q-23 0 -40 -2l-2 15q87 4 155 21l4 -4q-11 -99 -11 -227q0 -108 13 -150q20 -63 73 -63q29 0 58 21t49 53q48 76 48 213q0 62 -5 92q-3 18 -8.5 24.5t-20.5 6.5q-23 0 -40 -2l-2 15q89 5 156 21l5 -4q-11 -104 -11 -238q0 -113 6 -151q5 -30 19.5 -39t53.5 -12
l-1 -15q-59 3 -151 3q0 85 -2 128h-4q-18 -44 -46 -78q-51 -60 -127 -60q-77 0 -114 57q-27 41 -27 124q0 20 2 64.5t2 68.5q0 60 -3 87q-2 18 -8 24.5t-21 6.5zM289 617q-54 -46 -120 -91l-8 8q77 84 112 138q7 11 16 11t16 -11q35 -54 112 -138l-8 -8q-66 45 -120 91z" />
    <glyph glyph-name="udieresis" unicode="&#xfc;" horiz-adv-x="578" 
d="M58 422q-23 0 -40 -2l-2 15q87 4 155 21l4 -4q-11 -99 -11 -227q0 -108 13 -150q20 -63 73 -63q29 0 58 21t49 53q48 76 48 213q0 62 -5 92q-3 18 -8.5 24.5t-20.5 6.5q-23 0 -40 -2l-2 15q89 5 156 21l5 -4q-11 -104 -11 -238q0 -113 6 -151q5 -30 19.5 -39t53.5 -12
l-1 -15q-59 3 -151 3q0 85 -2 128h-4q-18 -44 -46 -78q-51 -60 -127 -60q-77 0 -114 57q-27 41 -27 124q0 20 2 64.5t2 68.5q0 60 -3 87q-2 18 -8 24.5t-21 6.5zM368 638q20 0 34.5 -14.5t14.5 -33.5t-14.5 -33.5t-34.5 -14.5q-19 0 -33 14.5t-14 33.5t14 33.5t33 14.5z
M204 638q20 0 34.5 -14.5t14.5 -33.5t-14.5 -33.5t-34.5 -14.5q-19 0 -33 14.5t-14 33.5t14 33.5t33 14.5z" />
    <glyph glyph-name="yacute" unicode="&#xfd;" horiz-adv-x="521" 
d="M176 345q61 -136 121 -252h1q36 80 97 233q27 67 27 86q0 12 -14 17t-48 7l1 15q41 -3 83 -3q34 0 78 3l1 -15q-35 -2 -50 -10t-26 -32q-96 -219 -164 -382q-54 -128 -75 -166q-58 -103 -124 -103q-28 0 -46.5 15.5t-18.5 39.5q0 37 41 46q37 -30 65 -30q33 0 60 37.5
t74 147.5q-84 171 -194 389q-13 27 -28.5 36t-50.5 12l1 15q36 -3 106 -3q78 0 120 3l1 -15q-59 0 -59 -28q0 -15 21 -63zM373 631q-56 -56 -121 -130l-10 7q45 86 78 158q11 24 31 24q16 0 25 -10t9 -23q0 -14 -12 -26z" />
    <glyph glyph-name="thorn" unicode="&#xfe;" horiz-adv-x="594" 
d="M128 -269q-28 0 -112 -3l-1 15q35 0 50 4.5t21 18.5q8 18 10 93.5t2 320.5q0 420 -6 456q-3 17 -8.5 22t-22.5 5q-11 0 -37 -3l-2 15q56 5 90 17.5t68 39.5l6 -4q-14 -95 -14 -337h1q61 67 150 67q86 0 144 -54q73 -65 73 -179q0 -113 -76 -182q-59 -53 -146 -53
q-77 0 -145 54h-1q0 -233 7 -262q5 -20 20 -29t50 -11l-1 -16q-62 5 -120 5zM300 432q-78 0 -127 -67q-1 -46 -1 -159q0 -88 24 -132q35 -65 109 -65q71 0 110.5 58.5t39.5 149.5q0 94 -41.5 154.5t-113.5 60.5z" />
    <glyph glyph-name="ydieresis" unicode="&#xff;" horiz-adv-x="521" 
d="M176 345q61 -136 121 -252h1q36 80 97 233q27 67 27 86q0 12 -14 17t-48 7l1 15q41 -3 83 -3q34 0 78 3l1 -15q-35 -2 -50 -10t-26 -32q-96 -219 -164 -382q-54 -128 -75 -166q-58 -103 -124 -103q-28 0 -46.5 15.5t-18.5 39.5q0 37 41 46q37 -30 65 -30q33 0 60 37.5
t74 147.5q-84 171 -194 389q-13 27 -28.5 36t-50.5 12l1 15q36 -3 106 -3q78 0 120 3l1 -15q-59 0 -59 -28q0 -15 21 -63zM350 638q20 0 34.5 -14.5t14.5 -33.5t-14.5 -33.5t-34.5 -14.5q-19 0 -33 14.5t-14 33.5t14 33.5t33 14.5zM186 638q20 0 34.5 -14.5t14.5 -33.5
t-14.5 -33.5t-34.5 -14.5q-19 0 -33 14.5t-14 33.5t14 33.5t33 14.5z" />
    <glyph glyph-name="Amacron" unicode="&#x100;" horiz-adv-x="735" 
d="M197 -4q-70 4 -104 4t-100 -4l-1 16q52 3 74 21.5t41 62.5q66 153 207 533q-24 27 -91 33l2 16q49 -4 85 -4q62 0 96 3q36 -123 114 -332q74 -196 99 -249q21 -43 44 -62t71 -22l-1 -16q-78 4 -121 4q-83 0 -153 -4l-1 16q70 3 70 39q0 19 -15 60l-60 167h-248
q-57 -152 -62 -167q-15 -41 -15 -60q0 -20 17 -28.5t53 -10.5zM329 604l-117 -306h233q-48 134 -113 306h-3zM354 766q-59 0 -116 -3v29q43 -4 103 -4q65 0 140 6v-31q-64 3 -127 3z" />
    <glyph glyph-name="amacron" unicode="&#x101;" horiz-adv-x="506" 
d="M340 56q0 30 3 53l-4 1q-17 -46 -51 -77q-46 -43 -112 -43q-58 0 -92.5 28.5t-34.5 76.5q0 37 20.5 67.5t55.5 47.5q51 25 137 25q38 0 80 -6q1 12 1 22q0 75 -18 116q-32 71 -111 71q-33 0 -56 -16t-23 -50q0 -31 30 -68q0 -19 -12.5 -31.5t-31.5 -12.5
q-23 0 -37.5 18.5t-14.5 48.5q0 58 50.5 94.5t123.5 36.5q96 0 143 -61q34 -44 34 -132q0 -18 -2 -71.5t-2 -79.5q0 -43 6.5 -63t26.5 -20q16 0 41 14l8 -12q-65 -40 -104 -40q-25 0 -39.5 17t-14.5 46zM314 95q22 46 27 118q-25 6 -55 6q-62 0 -103 -29q-49 -35 -49 -92
q0 -36 21 -58t55 -22q66 0 104 77zM243 556q-59 0 -116 -3v29q43 -4 103 -4q65 0 140 6v-31q-65 3 -127 3z" />
    <glyph glyph-name="Abreve" unicode="&#x102;" horiz-adv-x="735" 
d="M197 -4q-70 4 -104 4t-100 -4l-1 16q52 3 74 21.5t41 62.5q66 153 207 533q-24 27 -91 33l2 16q49 -4 85 -4q62 0 96 3q36 -123 114 -332q74 -196 99 -249q21 -43 44 -62t71 -22l-1 -16q-78 4 -121 4q-83 0 -153 -4l-1 16q70 3 70 39q0 19 -15 60l-60 167h-248
q-57 -152 -62 -167q-15 -41 -15 -60q0 -20 17 -28.5t53 -10.5zM329 604l-117 -306h233q-48 134 -113 306h-3zM479 867q-5 -59 -38 -94.5t-82 -35.5t-82 35.5t-38 94.5l11 3q29 -88 109 -88t109 88z" />
    <glyph glyph-name="abreve" unicode="&#x103;" horiz-adv-x="506" 
d="M340 56q0 30 3 53l-4 1q-17 -46 -51 -77q-46 -43 -112 -43q-58 0 -92.5 28.5t-34.5 76.5q0 37 20.5 67.5t55.5 47.5q51 25 137 25q38 0 80 -6q1 12 1 22q0 75 -18 116q-32 71 -111 71q-33 0 -56 -16t-23 -50q0 -31 30 -68q0 -19 -12.5 -31.5t-31.5 -12.5
q-23 0 -37.5 18.5t-14.5 48.5q0 58 50.5 94.5t123.5 36.5q96 0 143 -61q34 -44 34 -132q0 -18 -2 -71.5t-2 -79.5q0 -43 6.5 -63t26.5 -20q16 0 41 14l8 -12q-65 -40 -104 -40q-25 0 -39.5 17t-14.5 46zM314 95q22 46 27 118q-25 6 -55 6q-62 0 -103 -29q-49 -35 -49 -92
q0 -36 21 -58t55 -22q66 0 104 77zM368 657q-5 -59 -38 -94.5t-82 -35.5t-82 35.5t-38 94.5l11 3q29 -88 109 -88t109 88z" />
    <glyph glyph-name="Aogonek" unicode="&#x104;" horiz-adv-x="724" 
d="M197 -4q-70 4 -104 4t-100 -4l-1 16q52 3 74 21.5t41 62.5q66 153 207 533q-24 27 -91 33l2 16q49 -4 85 -4q62 0 96 3q36 -123 114 -332q74 -196 99 -249q21 -43 44 -62t71 -22l-1 -16q-78 4 -127 4q-69 -18 -111 -72t-42 -110q0 -37 19 -60t50 -23q32 0 51 21.5
t26 44.5q4 4 9 4q13 0 13 -15q0 -21 -28.5 -44.5t-82.5 -23.5q-55 0 -93 25.5t-38 72.5q0 53 48 100t127 77v3q-74 -2 -95 -4l-1 16q70 3 70 39q0 19 -15 60l-60 167h-248q-57 -152 -62 -167q-15 -41 -15 -60q0 -20 17 -28.5t53 -10.5zM329 604l-117 -306h233
q-48 134 -113 306h-3z" />
    <glyph glyph-name="aogonek" unicode="&#x105;" horiz-adv-x="506" 
d="M218 -181q0 54 51 99.5t121 73.5v2q-24 1 -37 18t-13 44q0 30 3 53l-4 1q-17 -46 -51 -77q-46 -43 -112 -43q-58 0 -92.5 28.5t-34.5 76.5q0 37 20.5 67.5t55.5 47.5q51 25 137 25q38 0 80 -6q1 12 1 22q0 75 -18 116q-32 71 -110 71q-34 0 -57 -16t-23 -50q0 -31 30 -68
q0 -19 -12.5 -31.5t-31.5 -12.5q-23 0 -37.5 18.5t-14.5 48.5q0 58 50.5 94.5t123.5 36.5q96 0 143 -61q34 -44 34 -132q0 -18 -2 -71.5t-2 -79.5q0 -42 6.5 -62.5t25.5 -20.5q16 0 43 15l7 -13q-206 -99 -206 -216q0 -37 19 -60t50 -23q32 0 51 21.5t26 44.5q4 4 9 4
q13 0 13 -15q0 -21 -29 -44.5t-83 -23.5t-92 26t-38 72zM314 95q22 44 27 118q-25 6 -55 6q-62 0 -103 -29q-49 -35 -49 -93q0 -36 21 -57.5t55 -21.5q66 0 104 77z" />
    <glyph glyph-name="Cacute" unicode="&#x106;" horiz-adv-x="713" 
d="M418 6q85 0 141.5 52.5t70.5 140.5l16 -1q-4 -56 -4 -93t4 -83q-37 -2 -118 -18.5t-130 -16.5q-149 0 -243 99t-94 253q0 153 92.5 250.5t245.5 97.5q52 0 137.5 -18t111.5 -21q-4 -56 -4 -99q0 -47 3 -81l-15 -2q-42 202 -210 202q-118 0 -190.5 -95.5t-72.5 -236.5
q0 -140 71.5 -235t187.5 -95zM504 841q-56 -56 -121 -130l-10 7q45 86 78 158q11 24 31 24q16 0 25 -10t9 -23q0 -14 -12 -26z" />
    <glyph glyph-name="cacute" unicode="&#x107;" horiz-adv-x="498" 
d="M301 13q92 0 150 98l15 -8q-63 -113 -186 -113q-97 0 -162.5 67t-65.5 168q0 97 63.5 165t161.5 68q83 0 132 -43q42 -38 42 -88q0 -28 -14.5 -45t-37.5 -17q-19 0 -30.5 11.5t-12.5 28.5q22 29 22 59q0 36 -26.5 56t-64.5 20q-70 0 -110 -60.5t-40 -149.5
q0 -90 44.5 -153.5t119.5 -63.5zM368 631q-56 -56 -121 -130l-10 7q45 86 78 158q11 24 31 24q16 0 25 -10t9 -23q0 -14 -12 -26z" />
    <glyph glyph-name="Ccircumflex" unicode="&#x108;" horiz-adv-x="713" 
d="M418 6q85 0 141.5 52.5t70.5 140.5l16 -1q-4 -56 -4 -93t4 -83q-37 -2 -118 -18.5t-130 -16.5q-149 0 -243 99t-94 253q0 153 92.5 250.5t245.5 97.5q52 0 137.5 -18t111.5 -21q-4 -56 -4 -99q0 -47 3 -81l-15 -2q-42 202 -210 202q-118 0 -190.5 -95.5t-72.5 -236.5
q0 -140 71.5 -235t187.5 -95zM405 827q-54 -46 -120 -91l-8 8q77 84 112 138q7 11 16 11t16 -11q35 -54 112 -138l-8 -8q-66 45 -120 91z" />
    <glyph glyph-name="ccircumflex" unicode="&#x109;" horiz-adv-x="498" 
d="M301 13q92 0 150 98l15 -8q-63 -113 -186 -113q-97 0 -162.5 67t-65.5 168q0 97 63.5 165t161.5 68q83 0 132 -43q42 -38 42 -88q0 -28 -14.5 -45t-37.5 -17q-19 0 -30.5 11.5t-12.5 28.5q22 29 22 59q0 36 -26.5 56t-64.5 20q-70 0 -110 -60.5t-40 -149.5
q0 -90 44.5 -153.5t119.5 -63.5zM275 617q-54 -46 -120 -91l-8 8q77 84 112 138q7 11 16 11t16 -11q35 -54 112 -138l-8 -8q-66 45 -120 91z" />
    <glyph glyph-name="Cdotaccent" unicode="&#x10a;" horiz-adv-x="713" 
d="M418 6q85 0 141.5 52.5t70.5 140.5l16 -1q-4 -56 -4 -93t4 -83q-37 -2 -118 -18.5t-130 -16.5q-149 0 -243 99t-94 253q0 153 92.5 250.5t245.5 97.5q52 0 137.5 -18t111.5 -21q-4 -56 -4 -99q0 -47 3 -81l-15 -2q-42 202 -210 202q-118 0 -190.5 -95.5t-72.5 -236.5
q0 -140 71.5 -235t187.5 -95zM442 766q-15 -15 -37 -15t-37 15t-15 37t15 37t37 15t37 -15t15 -37t-15 -37z" />
    <glyph glyph-name="cdotaccent" unicode="&#x10b;" horiz-adv-x="498" 
d="M301 13q92 0 150 98l15 -8q-63 -113 -186 -113q-97 0 -162.5 67t-65.5 168q0 97 63.5 165t161.5 68q83 0 132 -43q42 -38 42 -88q0 -28 -14.5 -45t-37.5 -17q-19 0 -30.5 11.5t-12.5 28.5q22 29 22 59q0 36 -26.5 56t-64.5 20q-70 0 -110 -60.5t-40 -149.5
q0 -90 44.5 -153.5t119.5 -63.5zM303 556q-15 -15 -37 -15t-37 15t-15 37t15 37t37 15t37 -15t15 -37t-15 -37z" />
    <glyph glyph-name="Ccaron" unicode="&#x10c;" horiz-adv-x="713" 
d="M418 6q85 0 141.5 52.5t70.5 140.5l16 -1q-4 -56 -4 -93t4 -83q-37 -2 -118 -18.5t-130 -16.5q-149 0 -243 99t-94 253q0 153 92.5 250.5t245.5 97.5q52 0 137.5 -18t111.5 -21q-4 -56 -4 -99q0 -47 3 -81l-15 -2q-42 202 -210 202q-118 0 -190.5 -95.5t-72.5 -236.5
q0 -140 71.5 -235t187.5 -95zM389 747q-35 54 -112 138l8 8q66 -45 120 -91q54 46 120 91l8 -8q-77 -84 -112 -138q-7 -11 -16 -11t-16 11z" />
    <glyph glyph-name="ccaron" unicode="&#x10d;" horiz-adv-x="498" 
d="M301 13q92 0 150 98l15 -8q-63 -113 -186 -113q-97 0 -162.5 67t-65.5 168q0 97 63.5 165t161.5 68q83 0 132 -43q42 -38 42 -88q0 -28 -14.5 -45t-37.5 -17q-19 0 -30.5 11.5t-12.5 28.5q22 29 22 59q0 36 -26.5 56t-64.5 20q-70 0 -110 -60.5t-40 -149.5
q0 -90 44.5 -153.5t119.5 -63.5zM258 537q-35 54 -112 138l8 8q66 -45 120 -91q54 46 120 91l8 -8q-77 -84 -112 -138q-7 -11 -16 -11t-16 11z" />
    <glyph glyph-name="Dcaron" unicode="&#x10e;" horiz-adv-x="772" 
d="M162 0q-71 0 -126 -4l-1 16q65 2 80 28q18 34 18 298q0 244 -13 283q-12 37 -81 41l2 16q76 -4 142 -4q29 0 91.5 6.5t95.5 6.5q157 0 249.5 -97.5t92.5 -250.5q0 -155 -94.5 -253.5t-250.5 -98.5q-29 0 -95 6.5t-110 6.5zM362 668q-65 0 -128 -15q-14 -120 -14 -319
q0 -208 9 -260q11 -68 114 -68q72 0 126.5 29.5t84.5 78.5t45 105.5t15 117.5q0 140 -70 235.5t-182 95.5zM357 747q-35 54 -112 138l8 8q66 -45 120 -91q54 46 120 91l8 -8q-77 -84 -112 -138q-7 -11 -16 -11t-16 11z" />
    <glyph glyph-name="dcaron" unicode="&#x10f;" horiz-adv-x="695" 
d="M419 -19l-5 4l5 69h-1q-58 -64 -147 -64q-86 0 -144 54q-73 65 -73 179q0 113 76 182q59 53 146 53q77 0 145 -54l1 1q0 193 -6 231q-3 17 -8.5 22t-22.5 5q-11 0 -37 -3l-2 15q56 5 90 17.5t68 39.5l6 -4q-14 -94 -14 -409q0 -232 5 -264q2 -9 4 -13t8.5 -8t18.5 -6
t40 -2v-15q-90 0 -153 -30zM294 16q77 0 126 67q2 46 2 159q0 88 -24 132q-35 65 -109 65q-71 0 -110.5 -58.5t-39.5 -149.5q0 -94 41.5 -154.5t113.5 -60.5zM657 559q-21 -33 -62 -46l-5 11q67 26 67 98q0 12 -1 19h-2q-7 -30 -39 -30q-21 0 -36.5 13.5t-15.5 38.5
q0 23 14 38.5t39 15.5q29 0 44.5 -23t15.5 -65q0 -41 -19 -70z" />
    <glyph glyph-name="Dcroat" unicode="&#x110;" horiz-adv-x="780" 
d="M170 0q-71 0 -126 -4l-1 16q65 2 80 28q18 34 18 298v19q-53 0 -101 -2v24q56 -2 101 -2q-2 208 -13 244q-12 37 -81 41l2 16q76 -4 142 -4q29 0 92 6.5t95 6.5q157 0 249.5 -97.5t92.5 -250.5q0 -155 -94.5 -253.5t-250.5 -98.5q-29 0 -95 6.5t-110 6.5zM385 354
q-86 3 -157 3v-23q0 -208 9 -260q11 -68 114 -68q72 0 126.5 29.5t84.5 78.5t45 105.5t15 117.5q0 140 -70 235.5t-182 95.5q-65 0 -128 -15q-14 -118 -14 -276q70 0 157 4v-27z" />
    <glyph glyph-name="dcroat" unicode="&#x111;" horiz-adv-x="595" 
d="M419 -19l-5 4l5 69h-1q-58 -64 -147 -64q-86 0 -144 54q-73 65 -73 179q0 113 76 182q59 53 146 53q77 0 145 -54l1 1q0 96 -1 127q-83 0 -143 -3v23q38 -1 143 -1q-1 62 -5 85q-3 17 -8.5 22t-22.5 5q-11 0 -37 -3l-2 15q56 5 90 17.5t68 39.5l6 -4q-11 -70 -13 -177
q13 0 31.5 0.5t30.5 1t17 0.5v-22q-14 0 -40.5 0.5t-38.5 0.5q-1 -53 -1 -213q0 -232 5 -264q2 -9 4 -13t8.5 -8t18.5 -6t40 -2v-15q-90 0 -153 -30zM294 16q77 0 126 67q2 46 2 159q0 88 -24 132q-35 65 -109 65q-71 0 -110.5 -58.5t-39.5 -149.5q0 -94 41.5 -154.5
t113.5 -60.5z" />
    <glyph glyph-name="Emacron" unicode="&#x112;" horiz-adv-x="621" 
d="M217 763v29q43 -4 103 -4q65 0 140 6v-31q-64 3 -127 3q-59 0 -116 -3zM35 12q66 1 80 28q18 35 18 298q0 247 -13 285q-12 36 -81 41l2 16q132 -6 264 -6q118 0 225 11q3 -77 24 -166l-14 -4q-19 55 -39 84q-42 60 -177 60q-42 0 -98 -3q-6 -144 -6 -283q54 -2 119 -2
q41 0 65 16q12 7 18 27.5t12 51.5l13 -1q-7 -55 -7 -106q0 -52 7 -111l-13 -1q-8 67 -20 81q-14 15 -29.5 20t-44.5 5q-89 0 -120 -1q0 -158 3 -214q3 -58 13 -79q18 -43 104 -43q78 0 116.5 21t65 87t58.5 218l14 -4q3 23 -24 -181q-14 -107 -23 -162q-85 5 -265 5
q-202 0 -246 -4z" />
    <glyph glyph-name="emacron" unicode="&#x113;" horiz-adv-x="514" 
d="M309 14q87 0 150 96l17 -11q-74 -109 -195 -109q-99 0 -163 70t-64 170q0 106 70 171q61 57 149 57q76 0 128 -41t59 -122l-3 -4h-313q-5 -24 -5 -56q0 -89 46 -155t124 -66zM283 441q-55 0 -89 -38.5t-47 -96.5h230q1 12 1 25q0 48 -22.5 79t-72.5 31zM274 556
q-59 0 -116 -3v29q43 -4 103 -4q65 0 140 6v-31q-65 3 -127 3z" />
    <glyph glyph-name="Ebreve" unicode="&#x114;" horiz-adv-x="621" 
d="M217 867l11 3q29 -88 109 -88t109 88l11 -3q-5 -59 -38 -94.5t-82 -35.5t-82 35.5t-38 94.5zM35 12q66 1 80 28q18 35 18 298q0 247 -13 285q-12 36 -81 41l2 16q132 -6 264 -6q118 0 225 11q3 -77 24 -166l-14 -4q-19 55 -39 84q-42 60 -177 60q-42 0 -98 -3
q-6 -144 -6 -283q54 -2 119 -2q41 0 65 16q12 7 18 27.5t12 51.5l13 -1q-7 -55 -7 -106q0 -52 7 -111l-13 -1q-8 67 -20 81q-14 15 -29.5 20t-44.5 5q-89 0 -120 -1q0 -158 3 -214q3 -58 13 -79q18 -43 104 -43q78 0 116.5 21t65 87t58.5 218l14 -4q3 23 -24 -181
q-14 -107 -23 -162q-85 5 -265 5q-202 0 -246 -4z" />
    <glyph glyph-name="ebreve" unicode="&#x115;" horiz-adv-x="514" 
d="M309 14q87 0 150 96l17 -11q-74 -109 -195 -109q-99 0 -163 70t-64 170q0 106 70 171q61 57 149 57q76 0 128 -41t59 -122l-3 -4h-313q-5 -24 -5 -56q0 -89 46 -155t124 -66zM283 441q-55 0 -89 -38.5t-47 -96.5h230q1 12 1 25q0 48 -22.5 79t-72.5 31zM399 657
q-5 -59 -38 -94.5t-82 -35.5t-82 35.5t-38 94.5l11 3q29 -88 109 -88t109 88z" />
    <glyph glyph-name="Edotaccent" unicode="&#x116;" horiz-adv-x="621" 
d="M384 766q-15 -15 -37 -15t-37 15t-15 37t15 37t37 15t37 -15t15 -37t-15 -37zM35 12q66 1 80 28q18 35 18 298q0 247 -13 285q-12 36 -81 41l2 16q132 -6 264 -6q118 0 225 11q3 -77 24 -166l-14 -4q-19 55 -39 84q-42 60 -177 60q-42 0 -98 -3q-6 -144 -6 -283
q54 -2 119 -2q41 0 65 16q12 7 18 27.5t12 51.5l13 -1q-7 -55 -7 -106q0 -52 7 -111l-13 -1q-8 67 -20 81q-14 15 -29.5 20t-44.5 5q-89 0 -120 -1q0 -158 3 -214q3 -58 13 -79q18 -43 104 -43q78 0 116.5 21t65 87t58.5 218l14 -4q3 23 -24 -181q-14 -107 -23 -162
q-85 5 -265 5q-202 0 -246 -4z" />
    <glyph glyph-name="edotaccent" unicode="&#x117;" horiz-adv-x="514" 
d="M309 14q87 0 150 96l17 -11q-74 -109 -195 -109q-99 0 -163 70t-64 170q0 106 70 171q61 57 149 57q76 0 128 -41t59 -122l-3 -4h-313q-5 -24 -5 -56q0 -89 46 -155t124 -66zM283 441q-55 0 -89 -38.5t-47 -96.5h230q1 12 1 25q0 48 -22.5 79t-72.5 31zM316 556
q-15 -15 -37 -15t-37 15t-15 37t15 37t37 15t37 -15t15 -37t-15 -37z" />
    <glyph glyph-name="Eogonek" unicode="&#x118;" horiz-adv-x="621" 
d="M561 -210q0 -15 -13.5 -31t-38.5 -26.5t-59 -10.5q-57 0 -94 26t-37 72q0 51 48.5 99.5t127.5 76.5v1q-78 3 -213 3q-202 0 -246 -4l-1 16q66 1 80 28q18 35 18 298q0 247 -13 285q-12 36 -81 41l2 16q132 -6 264 -6q118 0 225 11q3 -77 24 -166l-14 -4q-19 55 -39 84
q-42 60 -177 60q-42 0 -98 -3q-6 -144 -6 -283q54 -2 119 -2q41 0 65 16q12 7 18 27.5t12 51.5l13 -1q-7 -55 -7 -106q0 -52 7 -111l-13 -1q-8 67 -20 81q-14 15 -29.5 20t-44.5 5q-89 0 -120 -1q0 -158 3 -214q3 -58 13 -79q18 -43 104 -43q78 0 116.5 21t65 87t58.5 218
l14 -4l-21 -161q-19 -139 -25 -177l-1 -5q-45 -8 -80 -35.5t-54.5 -65.5t-19.5 -76q0 -37 19 -60t50 -23q30 0 49.5 19.5t27.5 46.5q4 4 9 4q13 0 13 -15z" />
    <glyph glyph-name="eogonek" unicode="&#x119;" horiz-adv-x="514" 
d="M198 -181q0 28 13.5 53.5t41 50t51 41.5t62.5 41l-1 2q-43 -17 -85 -17q-98 0 -162 70t-64 170q0 106 70 171q61 57 149 57q76 0 128 -41t59 -122l-3 -4h-313q-5 -24 -5 -54q0 -91 46 -157t124 -66q87 0 150 96l17 -11q-18 -26 -40.5 -49t-50.5 -47.5t-41 -37.5
q-72 -72 -72 -147q0 -38 19 -61t50 -23q32 0 51 21.5t26 44.5q4 4 9 4q13 0 13 -15q0 -21 -29 -44.5t-83 -23.5t-92 25.5t-38 72.5zM283 441q-55 0 -89 -38.5t-47 -96.5h230q1 12 1 25q0 48 -22.5 79t-72.5 31z" />
    <glyph glyph-name="Ecaron" unicode="&#x11a;" horiz-adv-x="621" 
d="M219 885l8 8q66 -45 120 -91q54 46 120 91l8 -8q-77 -84 -112 -138q-7 -11 -16 -11t-16 11q-35 54 -112 138zM35 12q66 1 80 28q18 35 18 298q0 247 -13 285q-12 36 -81 41l2 16q132 -6 264 -6q118 0 225 11q3 -77 24 -166l-14 -4q-19 55 -39 84q-42 60 -177 60
q-42 0 -98 -3q-6 -144 -6 -283q54 -2 119 -2q41 0 65 16q12 7 18 27.5t12 51.5l13 -1q-7 -55 -7 -106q0 -52 7 -111l-13 -1q-8 67 -20 81q-14 15 -29.5 20t-44.5 5q-89 0 -120 -1q0 -158 3 -214q3 -58 13 -79q18 -43 104 -43q78 0 116.5 21t65 87t58.5 218l14 -4
q3 23 -24 -181q-14 -107 -23 -162q-85 5 -265 5q-202 0 -246 -4z" />
    <glyph glyph-name="ecaron" unicode="&#x11b;" horiz-adv-x="514" 
d="M309 14q87 0 150 96l17 -11q-74 -109 -195 -109q-99 0 -163 70t-64 170q0 106 70 171q61 57 149 57q76 0 128 -41t59 -122l-3 -4h-313q-5 -24 -5 -56q0 -89 46 -155t124 -66zM283 441q-55 0 -89 -38.5t-47 -96.5h230q1 12 1 25q0 48 -22.5 79t-72.5 31zM266 537
q-35 54 -112 138l8 8q66 -45 120 -91q54 46 120 91l8 -8q-77 -84 -112 -138q-7 -11 -16 -11t-16 11z" />
    <glyph glyph-name="Gcircumflex" unicode="&#x11c;" horiz-adv-x="758" 
d="M658 111q0 -48 3 -111l-11 -1q-14 32 -49 32q-18 0 -79.5 -22t-123.5 -22q-148 0 -242.5 99.5t-94.5 254.5q0 152 92.5 249t249.5 97q41 0 83 -7t89 -18.5t74 -15.5q-4 -66 -4 -105q0 -41 2 -61l-15 -2q-19 84 -71.5 137t-138.5 53q-117 0 -190 -95.5t-73 -238.5
q0 -140 71 -234t194 -94q84 0 120.5 48.5t36.5 144.5q0 67 -16 95q-19 32 -81 32l1 16q42 -4 139 -4q68 0 130 4l1 -16q-63 -1 -78 -25q-19 -31 -19 -190zM411 827q-54 -46 -120 -91l-8 8q77 84 112 138q7 11 16 11t16 -11q35 -54 112 -138l-8 -8q-66 45 -120 91z" />
    <glyph glyph-name="gcircumflex" unicode="&#x11d;" horiz-adv-x="484" 
d="M6 -132q0 57 47.5 95.5t104.5 51.5v2q-73 25 -73 70q0 54 105 65v3q-58 9 -99 46t-41 95q0 61 45.5 105.5t114.5 53.5q10 1 38.5 3t52.5 5.5t42 11.5q43 18 43 60q0 25 -10 39q2 10 12 17.5t25 7.5q23 0 37.5 -16t14.5 -41q0 -42 -55 -67t-120 -25v-4q60 -10 100 -46.5
t40 -94.5q0 -61 -43.5 -104t-115.5 -54q-10 -2 -30 -3.5t-34 -3.5t-29 -5t-23 -9t-8 -14q0 -17 119 -48q26 -7 40 -11q172 -46 172 -149q0 -74 -70.5 -128.5t-180.5 -54.5q-97 0 -159 42t-62 105zM127 303q0 -58 33 -100.5t84 -42.5q52 0 80.5 42t28.5 97q0 58 -33 100.5
t-84 42.5q-52 0 -80.5 -42t-28.5 -97zM279 -18q-13 3 -34 9t-37.5 10.5t-29.5 8.5q-49 -11 -77 -50t-28 -84q0 -58 48 -96t128 -38q78 0 124 36t46 88q0 22 -9 39.5t-21 28.5t-33.5 21t-36.5 15t-40 12zM236 617q-54 -46 -120 -91l-8 8q77 84 112 138q7 11 16 11t16 -11
q35 -54 112 -138l-8 -8q-66 45 -120 91z" />
    <glyph glyph-name="Gbreve" unicode="&#x11e;" horiz-adv-x="758" 
d="M658 111q0 -48 3 -111l-11 -1q-14 32 -49 32q-18 0 -79.5 -22t-123.5 -22q-148 0 -242.5 99.5t-94.5 254.5q0 152 92.5 249t249.5 97q41 0 83 -7t89 -18.5t74 -15.5q-4 -66 -4 -105q0 -41 2 -61l-15 -2q-19 84 -71.5 137t-138.5 53q-117 0 -190 -95.5t-73 -238.5
q0 -140 71 -234t194 -94q84 0 120.5 48.5t36.5 144.5q0 67 -16 95q-19 32 -81 32l1 16q42 -4 139 -4q68 0 130 4l1 -16q-63 -1 -78 -25q-19 -31 -19 -190zM522 867q-5 -59 -38 -94.5t-82 -35.5t-82 35.5t-38 94.5l11 3q29 -88 109 -88t109 88z" />
    <glyph glyph-name="gbreve" unicode="&#x11f;" horiz-adv-x="484" 
d="M6 -132q0 57 47.5 95.5t104.5 51.5v2q-73 25 -73 70q0 54 105 65v3q-58 9 -99 46t-41 95q0 61 45.5 105.5t114.5 53.5q10 1 38.5 3t52.5 5.5t42 11.5q43 18 43 60q0 25 -10 39q2 10 12 17.5t25 7.5q23 0 37.5 -16t14.5 -41q0 -42 -55 -67t-120 -25v-4q60 -10 100 -46.5
t40 -94.5q0 -61 -43.5 -104t-115.5 -54q-10 -2 -30 -3.5t-34 -3.5t-29 -5t-23 -9t-8 -14q0 -17 119 -48q26 -7 40 -11q172 -46 172 -149q0 -74 -70.5 -128.5t-180.5 -54.5q-97 0 -159 42t-62 105zM127 303q0 -58 33 -100.5t84 -42.5q52 0 80.5 42t28.5 97q0 58 -33 100.5
t-84 42.5q-52 0 -80.5 -42t-28.5 -97zM279 -18q-13 3 -34 9t-37.5 10.5t-29.5 8.5q-49 -11 -77 -50t-28 -84q0 -58 48 -96t128 -38q78 0 124 36t46 88q0 22 -9 39.5t-21 28.5t-33.5 21t-36.5 15t-40 12zM356 657q-5 -59 -38 -94.5t-82 -35.5t-82 35.5t-38 94.5l11 3
q29 -88 109 -88t109 88z" />
    <glyph glyph-name="Gdotaccent" unicode="&#x120;" horiz-adv-x="758" 
d="M658 111q0 -48 3 -111l-11 -1q-14 32 -49 32q-18 0 -79.5 -22t-123.5 -22q-148 0 -242.5 99.5t-94.5 254.5q0 152 92.5 249t249.5 97q41 0 83 -7t89 -18.5t74 -15.5q-4 -66 -4 -105q0 -41 2 -61l-15 -2q-19 84 -71.5 137t-138.5 53q-117 0 -190 -95.5t-73 -238.5
q0 -140 71 -234t194 -94q84 0 120.5 48.5t36.5 144.5q0 67 -16 95q-19 32 -81 32l1 16q42 -4 139 -4q68 0 130 4l1 -16q-63 -1 -78 -25q-19 -31 -19 -190zM441 766q-15 -15 -37 -15t-37 15t-15 37t15 37t37 15t37 -15t15 -37t-15 -37z" />
    <glyph glyph-name="gdotaccent" unicode="&#x121;" horiz-adv-x="484" 
d="M6 -131q0 57 47.5 95t104.5 51v2q-73 25 -73 70q0 54 105 65v3q-58 9 -99 46t-41 95q0 61 45.5 105.5t114.5 53.5q12 2 34.5 3.5t40 4t31.5 7.5q43 16 43 62q0 25 -10 39q2 10 12 17.5t25 7.5q23 0 37.5 -16t14.5 -41q0 -43 -43 -65.5t-105 -23.5v-4q60 -10 100 -46.5
t40 -94.5q0 -61 -43.5 -104t-115.5 -54q-10 -2 -30 -3.5t-34 -3.5t-29 -5t-23 -9t-8 -14q0 -17 119 -48q26 -7 40 -11q88 -23 130 -59t42 -89q0 -74 -70.5 -129t-180.5 -55q-96 0 -158.5 42.5t-62.5 105.5zM127 303q0 -58 33 -100.5t84 -42.5q52 0 80.5 42t28.5 97
q0 58 -33 100.5t-84 42.5q-52 0 -80.5 -42t-28.5 -97zM279 -18q-13 3 -34 9t-37.5 10.5t-29.5 8.5q-49 -11 -77 -49.5t-28 -83.5q0 -58 48 -96.5t128 -38.5q78 0 124 36.5t46 88.5q0 22 -9 39.5t-21 28t-34 21t-36 15t-40 11.5zM264 556q-15 -15 -37 -15t-37 15t-15 37
t15 37t37 15t37 -15t15 -37t-15 -37z" />
    <glyph glyph-name="uni0122" unicode="&#x122;" horiz-adv-x="758" 
d="M658 111q0 -48 3 -111l-11 -1q-14 32 -49 32q-18 0 -79.5 -22t-123.5 -22q-148 0 -242.5 99.5t-94.5 254.5q0 152 92.5 249t249.5 97q41 0 83 -7t89 -18.5t74 -15.5q-4 -66 -4 -105q0 -41 2 -61l-15 -2q-19 84 -71.5 137t-138.5 53q-117 0 -190 -95.5t-73 -238.5
q0 -140 71 -234t194 -94q84 0 120.5 48.5t36.5 144.5q0 67 -16 95q-19 32 -81 32l1 16q42 -4 139 -4q68 0 130 4l1 -16q-63 -1 -78 -25q-19 -31 -19 -190zM439 -201q-21 -33 -62 -46l-5 11q67 26 67 98q0 12 -1 19h-2q-7 -30 -39 -30q-21 0 -36.5 13.5t-15.5 38.5
q0 23 14 38.5t39 15.5q29 0 44.5 -23t15.5 -65q0 -41 -19 -70z" />
    <glyph glyph-name="uni0123" unicode="&#x123;" horiz-adv-x="484" 
d="M6 -131q0 57 47.5 95t104.5 51v2q-73 25 -73 70q0 54 105 65v3q-58 9 -99 46t-41 95q0 61 45.5 105.5t114.5 53.5q12 2 34.5 3.5t40 4t31.5 7.5q43 16 43 62q0 25 -10 39q2 10 12 17.5t25 7.5q23 0 37.5 -16t14.5 -41q0 -43 -43 -65.5t-105 -23.5v-4q60 -10 100 -46.5
t40 -94.5q0 -61 -43.5 -104t-115.5 -54q-10 -2 -30 -3.5t-34 -3.5t-29 -5t-23 -9t-8 -14q0 -17 119 -48q26 -7 40 -11q88 -23 130 -59t42 -89q0 -74 -70.5 -129t-180.5 -55q-96 0 -158.5 42.5t-62.5 105.5zM127 303q0 -58 33 -100.5t84 -42.5q52 0 80.5 42t28.5 97
q0 58 -33 100.5t-84 42.5q-52 0 -80.5 -42t-28.5 -97zM279 -18q-13 3 -34 9t-37.5 10.5t-29.5 8.5q-49 -11 -77 -49.5t-28 -83.5q0 -58 48 -96.5t128 -38.5q78 0 124 36.5t46 88.5q0 22 -9 39.5t-21 28t-34 21t-36 15t-40 11.5zM184 607q0 -14 1 -22h2q4 15 17.5 25t31.5 10
q24 0 40.5 -16.5t16.5 -43.5q0 -26 -15.5 -44t-43.5 -18q-34 0 -53.5 28t-19.5 71q0 50 23 86q25 39 78 57l5 -12q-83 -30 -83 -121z" />
    <glyph glyph-name="Hcircumflex" unicode="&#x124;" horiz-adv-x="802" 
d="M180 0q-95 0 -144 -4l-1 16q65 2 80 28q18 34 18 298q0 244 -13 283q-12 37 -81 41l1 16q76 -4 133 -4q95 0 144 4l1 -16q-65 -2 -80 -28q-18 -33 -18 -267h362q-2 218 -13 254q-12 37 -81 41l1 16q76 -4 133 -4q95 0 144 4l1 -16q-65 -2 -80 -28q-18 -34 -18 -298
q0 -244 13 -283q12 -37 81 -41l-1 -16q-76 4 -133 4q-95 0 -144 -4l-1 16q65 2 80 28q18 34 18 308h-362q0 -256 13 -295q12 -37 81 -41l-1 -16q-76 4 -133 4zM401 827q-54 -46 -120 -91l-8 8q77 84 112 138q7 11 16 11t16 -11q35 -54 112 -138l-8 -8q-66 45 -120 91z" />
    <glyph glyph-name="hcircumflex" unicode="&#x125;" horiz-adv-x="598" 
d="M137 0q-29 0 -119 -3l-1 15q63 1 72 28q10 29 10 290q0 268 -6 306q-3 17 -8.5 22t-22.5 5q-12 0 -37 -3l-2 15q56 5 90 17.5t68 39.5l6 -4q-15 -101 -15 -426h4q28 60 65 98q56 58 126 58q79 0 117 -61q28 -45 28 -133q0 -17 -2 -69.5t-2 -91.5q0 -51 12.5 -69.5
t62.5 -21.5l-1 -15q-69 3 -109 3q-42 0 -120 -3l-1 15q38 1 51 6.5t18 16.5q12 27 12 163q0 122 -14 169q-21 67 -77 67q-61 0 -112 -79q-57 -90 -57 -214q0 -52 6 -85q4 -22 19 -32t53 -12l-1 -15q-69 3 -113 3z" />
    <glyph glyph-name="Hbar" unicode="&#x126;" horiz-adv-x="802" 
d="M180 0q-95 0 -144 -4l-1 16q65 2 80 28q18 34 18 298q0 86 -2 176q-64 0 -91 -1v22q50 -2 90 -2q-3 67 -10 88q-12 37 -81 41l1 16q76 -4 133 -4q95 0 144 4l1 -16q-65 -2 -80 -28q-12 -21 -15 -101h356q-3 61 -10 88q-12 37 -81 41l1 16q76 -4 133 -4q95 0 144 4l1 -16
q-65 -2 -80 -28q-12 -21 -15 -101q40 0 90 2v-22q-27 1 -91 1q-2 -48 -2 -178q0 -244 13 -283q12 -37 81 -41l-1 -16q-76 4 -133 4q-95 0 -144 -4l-1 16q65 2 80 28q18 34 18 308h-362q0 -256 13 -295q12 -37 81 -41l-1 -16q-76 4 -133 4zM222 514q-2 -41 -2 -147h362
q-2 132 -3 147h-357z" />
    <glyph glyph-name="hbar" unicode="&#x127;" horiz-adv-x="600" 
d="M139 0q-29 0 -119 -3l-1 15q63 1 72 28q10 29 10 290q0 53 -0.5 119.5t-0.5 82.5q-56 0 -77 -1v22q42 -2 76 -2q-1 51 -4 85q-3 17 -8.5 22t-22.5 5q-12 0 -37 -3l-2 15q56 5 90 17.5t68 39.5l6 -4q-9 -61 -13 -177q101 0 145 3v-25q-66 3 -145 3q-2 -61 -2 -230h4
q28 60 65 98q56 58 126 58q79 0 117 -61q28 -45 28 -133q0 -17 -2 -69.5t-2 -91.5q0 -51 12.5 -69.5t62.5 -21.5l-1 -15q-69 3 -109 3q-42 0 -120 -3l-1 15q38 1 51 6.5t18 16.5q12 27 12 163q0 122 -14 169q-21 67 -77 67q-61 0 -112 -79q-57 -90 -57 -214q0 -52 6 -85
q4 -22 19 -32t53 -12l-1 -15q-69 3 -113 3z" />
    <glyph glyph-name="Itilde" unicode="&#x128;" horiz-adv-x="353" 
d="M180 0q-95 0 -144 -4l-1 16q65 2 80 28q18 34 18 298q0 244 -13 283q-12 37 -81 41l1 16q76 -4 133 -4q95 0 144 4l1 -16q-65 -2 -80 -28q-18 -34 -18 -298q0 -244 13 -283q12 -37 81 -41l-1 -16q-76 4 -133 4zM92 798q-39 0 -50 -57l-10 1q11 103 76 103q28 0 77 -29.5
t76 -29.5q39 0 50 57l10 -1q-11 -103 -76 -103q-28 0 -77 29.5t-76 29.5z" />
    <glyph glyph-name="itilde" unicode="&#x129;" horiz-adv-x="273" 
d="M138 0q-30 0 -120 -3l-1 15q63 1 72 28q10 30 10 180q0 102 -4 142q-1 17 -7.5 22t-23.5 5q-12 0 -37 -3l-2 15q56 7 87.5 19t65.5 38l6 -4q-11 -101 -11 -246q0 -115 7 -152q5 -23 19.5 -32.5t52.5 -11.5l-1 -15q-60 3 -113 3zM52 588q-39 0 -50 -57l-10 1
q11 103 76 103q28 0 77 -29.5t76 -29.5q39 0 50 57l10 -1q-11 -103 -76 -103q-28 0 -77 29.5t-76 29.5z" />
    <glyph glyph-name="Imacron" unicode="&#x12a;" horiz-adv-x="353" 
d="M180 0q-95 0 -144 -4l-1 16q65 2 80 28q18 34 18 298q0 244 -13 283q-12 37 -81 41l1 16q76 -4 133 -4q95 0 144 4l1 -16q-65 -2 -80 -28q-18 -34 -18 -298q0 -244 13 -283q12 -37 81 -41l-1 -16q-76 4 -133 4zM171 766q-59 0 -116 -3v29q43 -4 103 -4q65 0 140 6v-31
q-64 3 -127 3z" />
    <glyph glyph-name="imacron" unicode="&#x12b;" horiz-adv-x="273" 
d="M138 0q-30 0 -120 -3l-1 15q63 1 72 28q10 30 10 180q0 102 -4 142q-1 17 -7.5 22t-23.5 5q-12 0 -37 -3l-2 15q56 7 87.5 19t65.5 38l6 -4q-11 -101 -11 -246q0 -115 7 -152q5 -23 19.5 -32.5t52.5 -11.5l-1 -15q-60 3 -113 3zM131 556q-59 0 -116 -3v29q43 -4 103 -4
q65 0 140 6v-31q-64 3 -127 3z" />
    <glyph glyph-name="Ibreve" unicode="&#x12c;" horiz-adv-x="353" 
d="M180 0q-95 0 -144 -4l-1 16q65 2 80 28q18 34 18 298q0 244 -13 283q-12 37 -81 41l1 16q76 -4 133 -4q95 0 144 4l1 -16q-65 -2 -80 -28q-18 -34 -18 -298q0 -244 13 -283q12 -37 81 -41l-1 -16q-76 4 -133 4zM296 867q-5 -59 -38 -94.5t-82 -35.5t-82 35.5t-38 94.5
l11 3q29 -88 109 -88t109 88z" />
    <glyph glyph-name="ibreve" unicode="&#x12d;" horiz-adv-x="273" 
d="M138 0q-30 0 -120 -3l-1 15q63 1 72 28q10 30 10 180q0 102 -4 142q-1 17 -7.5 22t-23.5 5q-12 0 -37 -3l-2 15q56 7 87.5 19t65.5 38l6 -4q-11 -101 -11 -246q0 -115 7 -152q5 -23 19.5 -32.5t52.5 -11.5l-1 -15q-60 3 -113 3zM256 657q-5 -59 -38 -94.5t-82 -35.5
t-82 35.5t-38 94.5l11 3q29 -88 109 -88t109 88z" />
    <glyph glyph-name="Iogonek" unicode="&#x12e;" horiz-adv-x="353" 
d="M180 0q-95 0 -144 -4l-1 16q65 2 80 28q18 34 18 298q0 244 -13 283q-12 37 -81 41l1 16q76 -4 133 -4q95 0 144 4l1 -16q-65 -2 -80 -28q-18 -34 -18 -298q0 -244 13 -283q12 -37 81 -41l-1 -16q-24 2 -40 2q-66 -20 -105 -72.5t-39 -107.5q0 -37 19 -60t50 -23
q32 0 51 21.5t26 44.5q4 4 9 4q13 0 13 -15q0 -21 -28.5 -44.5t-82.5 -23.5q-55 0 -93 25.5t-38 72.5q0 53 49.5 101t128.5 76l-1 3h-52z" />
    <glyph glyph-name="iogonek" unicode="&#x12f;" horiz-adv-x="273" 
d="M172.5 555q-15.5 -15 -36.5 -15t-36 15t-15 36t15 36.5t36 15.5t36.5 -15.5t15.5 -36.5t-15.5 -36zM170 0q-62 0 -152 -3l-1 15q63 1 72 28q10 30 10 180q0 102 -4 142q-1 17 -7.5 22t-23.5 5q-12 0 -37 -3l-2 15q56 7 87.5 19t65.5 38l6 -4q-11 -101 -11 -246
q0 -115 7 -152q5 -23 19.5 -32.5t52.5 -11.5l-1 -15q-35 3 -53 3q-46 -34 -77 -85.5t-31 -99.5q0 -37 19 -59t50 -22q32 0 51 21.5t26 44.5q4 4 9 4q13 0 13 -15q0 -21 -29 -44.5t-83 -23.5t-92 25.5t-38 74.5q0 90 154 177v2z" />
    <glyph glyph-name="Idotaccent" unicode="&#x130;" horiz-adv-x="353" 
d="M180 0q-95 0 -144 -4l-1 16q65 2 80 28q18 34 18 298q0 244 -13 283q-12 37 -81 41l1 16q76 -4 133 -4q95 0 144 4l1 -16q-65 -2 -80 -28q-18 -34 -18 -298q0 -244 13 -283q12 -37 81 -41l-1 -16q-76 4 -133 4zM213 766q-15 -15 -37 -15t-37 15t-15 37t15 37t37 15
t37 -15t15 -37t-15 -37z" />
    <glyph glyph-name="dotlessi" unicode="&#x131;" horiz-adv-x="273" 
d="M138 0q-30 0 -120 -3l-1 15q63 1 72 28q10 30 10 180q0 102 -4 142q-1 17 -7.5 22t-23.5 5q-12 0 -37 -3l-2 15q56 7 87.5 19t65.5 38l6 -4q-11 -101 -11 -246q0 -115 7 -152q5 -23 19.5 -32.5t52.5 -11.5l-1 -15q-60 3 -113 3z" />
    <glyph glyph-name="IJ" unicode="&#x132;" horiz-adv-x="863" 
d="M180 0q-95 0 -144 -4l-1 16q65 2 80 28q18 34 18 298q0 244 -13 283q-12 37 -81 41l1 16q76 -4 133 -4q95 0 144 4l1 -16q-65 -2 -80 -28q-18 -34 -18 -298q0 -244 13 -283q12 -37 81 -41l-1 -16q-76 4 -133 4zM641 613q-6 26 -27 37t-62 12l1 16q96 -4 149 -4
q74 0 134 4l1 -16q-63 -2 -78 -25q-17 -27 -17 -166q0 -68 3 -137t3 -93q0 -129 -43 -184q-56 -70 -159 -70q-87 0 -135 46t-48 108q0 41 21 67t52 26q22 0 35 -13t13 -33t-9 -33q-52 -17 -52 -67q0 -36 30 -59t73 -23q83 0 113 84q15 44 15 179q0 287 -13 344z" />
    <glyph glyph-name="ij" unicode="&#x133;" horiz-adv-x="541" 
d="M172.5 555q-15.5 -15 -36.5 -15t-36 15t-15 36t15 36.5t36 15.5t36.5 -15.5t15.5 -36.5t-15.5 -36zM138 0q-30 0 -120 -3l-1 15q63 1 72 28q10 30 10 180q0 102 -4 142q-1 17 -7.5 22t-23.5 5q-12 0 -37 -3l-2 15q56 7 87.5 19t65.5 38l6 -4q-11 -101 -11 -246
q0 -115 7 -152q5 -23 19.5 -32.5t52.5 -11.5l-1 -15q-60 3 -113 3zM445.5 555q-15.5 -15 -36.5 -15t-36 15t-15 36t15 36.5t36 15.5t36.5 -15.5t15.5 -36.5t-15.5 -36zM338 389q-14 0 -38 -3l-2 15q55 7 86.5 19t66.5 38l6 -4q-11 -101 -11 -262q0 -60 1.5 -143.5t1.5 -97.5
q0 -118 -41.5 -174t-128.5 -56q-62 0 -95.5 35.5t-33.5 80.5q0 31 16 53.5t44 22.5q20 0 32.5 -11.5t12.5 -29.5q0 -15 -6 -24q-42 -19 -42 -58q0 -24 18 -39t50 -15q67 0 82 65.5t15 298.5q0 218 -4 262q-1 17 -7.5 22t-22.5 5z" />
    <glyph glyph-name="Jcircumflex" unicode="&#x134;" horiz-adv-x="479" 
d="M257 613q-6 26 -27 37t-62 12l1 16q96 -4 149 -4q74 0 134 4l1 -16q-63 -2 -78 -25q-17 -27 -17 -166q0 -68 3 -137t3 -93q0 -129 -43 -184q-56 -70 -159 -70q-87 0 -135 46t-48 108q0 41 21 67t52 26q22 0 35 -13t13 -33t-9 -33q-52 -17 -52 -67q0 -36 30 -59t73 -23
q83 0 113 84q15 44 15 179q0 287 -13 344zM309 791q-54 -46 -120 -91l-8 8q77 84 112 138q7 11 16 11t16 -11q35 -54 112 -138l-8 -8q-66 45 -120 91z" />
    <glyph glyph-name="jcircumflex" unicode="&#x135;" horiz-adv-x="268" 
d="M136 617q-54 -46 -120 -91l-8 8q77 84 112 138q7 11 16 11t16 -11q35 -54 112 -138l-8 -8q-66 45 -120 91zM65 389q-14 0 -38 -3l-2 15q55 7 86.5 19t66.5 38l6 -4q-11 -101 -11 -262q0 -60 1.5 -143t1.5 -97q0 -124 -41 -173q-47 -58 -129 -58q-62 0 -95.5 35.5
t-33.5 80.5q0 31 16 53.5t44 22.5q20 0 32.5 -11.5t12.5 -29.5q0 -15 -6 -24q-42 -19 -42 -58q0 -24 18 -39t50 -15q69 0 86 85q11 54 11 279q0 218 -4 262q-1 17 -7.5 22t-22.5 5z" />
    <glyph glyph-name="uni0136" unicode="&#x136;" horiz-adv-x="715" 
d="M173 0q-88 0 -137 -4l-1 16q65 2 80 28q18 34 18 298q0 244 -13 283q-12 37 -81 41l1 16q76 -4 140 -4q88 0 137 4l1 -16q-65 -2 -80 -28q-18 -34 -18 -298v-47l108 120q108 119 150 173q34 43 34 55q0 22 -54 25l1 16q60 -4 109 -4q68 0 101 4l1 -16q-59 -5 -80.5 -14.5
t-61.5 -49.5q-42 -41 -168 -182q103 -149 183 -257q68 -91 99 -117q30 -25 82 -29l-1 -16q-51 3 -151 3q-87 0 -125 -3l-2 16q54 4 54 22q0 14 -30 62q-69 111 -171 250l-78 -87q2 -175 13 -207q12 -37 81 -41l-1 -16q-76 4 -140 4zM394 -201q-21 -33 -62 -46l-5 11
q67 26 67 98q0 12 -1 19h-2q-7 -30 -39 -30q-21 0 -36.5 13.5t-15.5 38.5q0 23 14 38.5t39 15.5q29 0 44.5 -23t15.5 -65q0 -41 -19 -70z" />
    <glyph glyph-name="uni0137" unicode="&#x137;" horiz-adv-x="540" 
d="M136 0q-30 0 -120 -3l-1 15q63 1 72 28q10 29 10 290q0 268 -6 306q-3 17 -8.5 22t-22.5 5q-12 0 -37 -3l-2 15q56 5 90 17.5t68 39.5l6 -4q-14 -94 -14 -395v-152q72 78 117 130q76 88 76 107q0 8 -9.5 12t-36.5 6l1 15q43 -3 83 -3q42 0 91 3l1 -15q-43 -4 -66.5 -14
t-48.5 -36q-21 -21 -95 -104q46 -65 116 -157q53 -71 78 -90q25 -21 68 -23l-1 -15q-61 3 -117 3q-72 0 -110 -3l-1 15q23 1 33.5 5t10.5 15t-22 44q-33 49 -107 148l-61 -66q1 -74 7 -102q5 -23 19.5 -32.5t52.5 -11.5l-1 -15q-60 3 -113 3zM308 -201q-21 -33 -62 -46
l-5 11q67 26 67 98q0 12 -1 19h-2q-7 -30 -39 -30q-21 0 -36.5 13.5t-15.5 38.5q0 23 14 38.5t39 15.5q29 0 44.5 -23t15.5 -65q0 -41 -19 -70z" />
    <glyph glyph-name="kgreenlandic" unicode="&#x138;" horiz-adv-x="541" 
d="M138 0q-30 0 -120 -3l-1 15q63 1 72 28q10 30 10 180q0 102 -4 142q-1 17 -7.5 22t-23.5 5q-12 0 -37 -3l-2 15q56 7 87.5 19t65.5 38l6 -4q-11 -101 -11 -246v-26q71 77 116 129q76 88 76 107q0 8 -9.5 12t-36.5 6l1 15q44 -3 83 -3q41 0 91 3l1 -15q-43 -4 -66.5 -14
t-48.5 -36q-21 -21 -95 -104q46 -65 116 -157q53 -71 78 -90q25 -21 68 -23l-1 -15q-61 3 -117 3q-73 0 -110 -3l-1 15q23 1 33.5 5t10.5 15t-22 44q-33 49 -107 148l-60 -65q1 -73 7 -103q5 -23 19.5 -32.5t52.5 -11.5l-1 -15q-60 3 -113 3z" />
    <glyph glyph-name="Lacute" unicode="&#x139;" horiz-adv-x="614" 
d="M214 0q-129 0 -178 -4l-1 16q65 2 80 28q18 34 18 298q0 244 -13 283q-12 37 -81 41l1 16q76 -4 140 -4q88 0 137 4l1 -16q-66 -2 -79 -28q-19 -35 -19 -301q0 -236 18 -274q21 -43 107 -43q54 0 93.5 15.5t65.5 46t41 60.5t30 75l15 -4q-31 -122 -46 -214q-146 5 -330 5
zM297 841q-56 -56 -121 -130l-10 7q45 86 78 158q11 24 31 24q16 0 25 -10t9 -23q0 -14 -12 -26z" />
    <glyph glyph-name="lacute" unicode="&#x13a;" horiz-adv-x="268" 
d="M136 0q-30 0 -120 -3l-1 15q63 1 72 28q10 29 10 290q0 268 -6 306q-3 17 -8.5 22t-22.5 5q-12 0 -37 -3l-2 15q56 5 90 17.5t68 39.5l6 -4q-14 -94 -14 -395q0 -245 7 -277q5 -23 19.5 -32.5t52.5 -11.5l-1 -15q-60 3 -113 3zM225 861q-56 -56 -121 -130l-10 7
q45 86 78 158q11 24 31 24q16 0 25 -10t9 -23q0 -14 -12 -26z" />
    <glyph glyph-name="uni013B" unicode="&#x13b;" horiz-adv-x="614" 
d="M214 0q-129 0 -178 -4l-1 16q65 2 80 28q18 34 18 298q0 244 -13 283q-12 37 -81 41l1 16q76 -4 140 -4q88 0 137 4l1 -16q-66 -2 -79 -28q-19 -35 -19 -301q0 -236 18 -274q21 -43 107 -43q54 0 93.5 15.5t65.5 46t41 60.5t30 75l15 -4q-31 -122 -46 -214q-146 5 -330 5
zM381 -201q-21 -33 -62 -46l-5 11q67 26 67 98q0 12 -1 19h-2q-7 -30 -39 -30q-21 0 -36.5 13.5t-15.5 38.5q0 23 14 38.5t39 15.5q29 0 44.5 -23t15.5 -65q0 -41 -19 -70z" />
    <glyph glyph-name="uni013C" unicode="&#x13c;" horiz-adv-x="268" 
d="M136 0q-30 0 -120 -3l-1 15q63 1 72 28q10 29 10 290q0 268 -6 306q-3 17 -8.5 22t-22.5 5q-12 0 -37 -3l-2 15q56 5 90 17.5t68 39.5l6 -4q-14 -94 -14 -395q0 -245 7 -277q5 -23 19.5 -32.5t52.5 -11.5l-1 -15q-60 3 -113 3zM172 -201q-21 -33 -62 -46l-5 11
q67 26 67 98q0 12 -1 19h-2q-7 -30 -39 -30q-21 0 -36.5 13.5t-15.5 38.5q0 23 14 38.5t39 15.5q29 0 44.5 -23t15.5 -65q0 -41 -19 -70z" />
    <glyph glyph-name="Lcaron" unicode="&#x13d;" horiz-adv-x="614" 
d="M214 0q-129 0 -178 -4l-1 16q65 2 80 28q18 34 18 298q0 244 -13 283q-12 37 -81 41l1 16q76 -4 140 -4q88 0 137 4l1 -16q-66 -2 -79 -28q-19 -35 -19 -301q0 -236 18 -274q21 -43 107 -43q54 0 93.5 15.5t65.5 46t41 60.5t30 75l15 -4q-31 -122 -46 -214q-146 5 -330 5
zM478 559q-21 -33 -62 -46l-5 11q67 26 67 98q0 12 -1 19h-2q-7 -30 -39 -30q-21 0 -36.5 13.5t-15.5 38.5q0 23 14 38.5t39 15.5q29 0 44.5 -23t15.5 -65q0 -41 -19 -70z" />
    <glyph glyph-name="lcaron" unicode="&#x13e;" horiz-adv-x="370" 
d="M136 0q-30 0 -120 -3l-1 15q63 1 72 28q10 29 10 290q0 268 -6 306q-3 17 -8.5 22t-22.5 5q-12 0 -37 -3l-2 15q56 5 90 17.5t68 39.5l6 -4q-14 -94 -14 -395q0 -245 7 -277q5 -23 19.5 -32.5t52.5 -11.5l-1 -15q-60 3 -113 3zM332 559q-21 -33 -62 -46l-5 11
q67 26 67 98q0 12 -1 19h-2q-7 -30 -39 -30q-21 0 -36.5 13.5t-15.5 38.5q0 23 14 38.5t39 15.5q29 0 44.5 -23t15.5 -65q0 -41 -19 -70z" />
    <glyph glyph-name="Ldot" unicode="&#x13f;" horiz-adv-x="614" 
d="M214 0q-129 0 -178 -4l-1 16q65 2 80 28q18 34 18 298q0 244 -13 283q-12 37 -81 41l1 16q76 -4 140 -4q88 0 137 4l1 -16q-66 -2 -79 -28q-19 -35 -19 -301q0 -236 18 -274q21 -43 107 -43q54 0 93.5 15.5t65.5 46t41 60.5t30 75l15 -4q-31 -122 -46 -214q-146 5 -330 5
zM410 285q-15 -15 -37 -15t-37 15t-15 37t15 37t37 15t37 -15t15 -37t-15 -37z" />
    <glyph glyph-name="ldot" unicode="&#x140;" horiz-adv-x="343" 
d="M136 0q-30 0 -120 -3l-1 15q63 1 72 28q10 29 10 290q0 268 -6 306q-3 17 -8.5 22t-22.5 5q-12 0 -37 -3l-2 15q56 5 90 17.5t68 39.5l6 -4q-14 -94 -14 -395q0 -245 7 -277q5 -23 19.5 -32.5t52.5 -11.5l-1 -15q-60 3 -113 3zM338 226q-15 -15 -37 -15t-37 15t-15 37
t15 37t37 15t37 -15t15 -37t-15 -37z" />
    <glyph glyph-name="Lslash" unicode="&#x141;" horiz-adv-x="619" 
d="M219 0q-129 0 -178 -4l-1 16q65 2 80 28q16 30 18 239q-44 -31 -90 -67l-16 22q46 29 106 69v35q0 244 -13 283q-12 37 -81 41l1 16q76 -4 140 -4q88 0 137 4l1 -16q-66 -2 -79 -28q-19 -37 -19 -271q65 46 156 114l15 -24q-66 -42 -171 -114v-6q0 -236 18 -274
q21 -43 107 -43q54 0 93.5 15.5t65.5 46t41 60.5t30 75l15 -4q-31 -122 -46 -214q-146 5 -330 5z" />
    <glyph glyph-name="lslash" unicode="&#x142;" horiz-adv-x="276" 
d="M140 0q-30 0 -120 -3l-1 15q63 1 72 28q9 25 10 230q-18 -12 -34 -24t-30 -23t-20 -15l-14 21q40 25 98 65v36q0 268 -6 306q-3 17 -8.5 22t-22.5 5q-12 0 -37 -3l-2 15q56 5 90 17.5t68 39.5l6 -4q-14 -93 -14 -383q23 17 51.5 38.5t32.5 24.5l14 -21q-38 -23 -98 -65
q0 -235 7 -266q5 -23 19.5 -32.5t52.5 -11.5l-1 -15q-60 3 -113 3z" />
    <glyph glyph-name="Nacute" unicode="&#x143;" horiz-adv-x="778" 
d="M139 0q-50 0 -103 -4l-1 16q37 2 55.5 7.5t25.5 20.5q17 34 17 298q0 243 -12 283q-6 20 -25 29t-57 12l1 16q59 -4 108 -4q40 0 64 1q241 -311 412 -521h2q3 72 3 194q0 233 -12 273q-6 20 -25 29t-57 12l1 16q59 -4 107 -4q47 0 103 4l1 -16q-68 -1 -81 -28
q-16 -34 -16 -298v-340q0 -13 -8 -13q-5 0 -16 14q-304 391 -467 593h-2q-4 -69 -4 -244q0 -253 12 -293q6 -20 25.5 -29t57.5 -12l-1 -16q-57 4 -108 4zM494 841q-56 -56 -121 -130l-10 7q45 86 78 158q11 24 31 24q16 0 25 -10t9 -23q0 -14 -12 -26z" />
    <glyph glyph-name="nacute" unicode="&#x144;" horiz-adv-x="598" 
d="M138 0q-30 0 -120 -3l-1 15q63 1 72 28q10 30 10 173q0 111 -6 149q-2 17 -8.5 22t-22.5 5q-12 0 -37 -3l-2 15q56 5 90 17.5t68 39.5l6 -4q-13 -55 -15 -151l4 -1q28 60 65 98q56 58 126 58q79 0 117 -61q28 -45 28 -133q0 -17 -2 -69.5t-2 -91.5q0 -51 12.5 -69.5
t62.5 -21.5l-1 -15q-69 3 -109 3q-42 0 -120 -3l-1 15q37 1 50 6.5t19 16.5q12 24 12 163q0 122 -14 169q-21 67 -77 67q-61 0 -112 -79q-57 -87 -57 -214q0 -52 6 -85q4 -22 19 -32t53 -12l-1 -15q-69 3 -112 3zM397 631q-56 -56 -121 -130l-10 7q45 86 78 158q11 24 31 24
q16 0 25 -10t9 -23q0 -14 -12 -26z" />
    <glyph glyph-name="uni0145" unicode="&#x145;" horiz-adv-x="778" 
d="M139 0q-50 0 -103 -4l-1 16q37 2 55.5 7.5t25.5 20.5q17 34 17 298q0 243 -12 283q-6 20 -25 29t-57 12l1 16q59 -4 108 -4q40 0 64 1q241 -311 412 -521h2q3 72 3 194q0 233 -12 273q-6 20 -25 29t-57 12l1 16q59 -4 107 -4q47 0 103 4l1 -16q-68 -1 -81 -28
q-16 -34 -16 -298v-340q0 -13 -8 -13q-5 0 -16 14q-304 391 -467 593h-2q-4 -69 -4 -244q0 -253 12 -293q6 -20 25.5 -29t57.5 -12l-1 -16q-57 4 -108 4zM429 -201q-21 -33 -62 -46l-5 11q67 26 67 98q0 12 -1 19h-2q-7 -30 -39 -30q-21 0 -36.5 13.5t-15.5 38.5
q0 23 14 38.5t39 15.5q29 0 44.5 -23t15.5 -65q0 -41 -19 -70z" />
    <glyph glyph-name="uni0146" unicode="&#x146;" horiz-adv-x="598" 
d="M138 0q-30 0 -120 -3l-1 15q63 1 72 28q10 30 10 173q0 111 -6 149q-2 17 -8.5 22t-22.5 5q-12 0 -37 -3l-2 15q56 5 90 17.5t68 39.5l6 -4q-13 -55 -15 -151l4 -1q28 60 65 98q56 58 126 58q79 0 117 -61q28 -45 28 -133q0 -17 -2 -69.5t-2 -91.5q0 -51 12.5 -69.5
t62.5 -21.5l-1 -15q-69 3 -109 3q-42 0 -120 -3l-1 15q37 1 50 6.5t19 16.5q12 24 12 163q0 122 -14 169q-21 67 -77 67q-61 0 -112 -79q-57 -87 -57 -214q0 -52 6 -85q4 -22 19 -32t53 -12l-1 -15q-69 3 -112 3zM336 -201q-21 -33 -62 -46l-5 11q67 26 67 98q0 12 -1 19h-2
q-7 -30 -39 -30q-21 0 -36.5 13.5t-15.5 38.5q0 23 14 38.5t39 15.5q29 0 44.5 -23t15.5 -65q0 -41 -19 -70z" />
    <glyph glyph-name="Ncaron" unicode="&#x147;" horiz-adv-x="778" 
d="M139 0q-50 0 -103 -4l-1 16q37 2 55.5 7.5t25.5 20.5q17 34 17 298q0 243 -12 283q-6 20 -25 29t-57 12l1 16q59 -4 108 -4q40 0 64 1q241 -311 412 -521h2q3 72 3 194q0 233 -12 273q-6 20 -25 29t-57 12l1 16q59 -4 107 -4q47 0 103 4l1 -16q-68 -1 -81 -28
q-16 -34 -16 -298v-340q0 -13 -8 -13q-5 0 -16 14q-304 391 -467 593h-2q-4 -69 -4 -244q0 -253 12 -293q6 -20 25.5 -29t57.5 -12l-1 -16q-57 4 -108 4zM375 747q-35 54 -112 138l8 8q66 -45 120 -91q54 46 120 91l8 -8q-77 -84 -112 -138q-7 -11 -16 -11t-16 11z" />
    <glyph glyph-name="ncaron" unicode="&#x148;" horiz-adv-x="598" 
d="M138 0q-30 0 -120 -3l-1 15q63 1 72 28q10 30 10 173q0 111 -6 149q-2 17 -8.5 22t-22.5 5q-12 0 -37 -3l-2 15q56 5 90 17.5t68 39.5l6 -4q-13 -55 -15 -151l4 -1q28 60 65 98q56 58 126 58q79 0 117 -61q28 -45 28 -133q0 -17 -2 -69.5t-2 -91.5q0 -51 12.5 -69.5
t62.5 -21.5l-1 -15q-69 3 -109 3q-42 0 -120 -3l-1 15q37 1 50 6.5t19 16.5q12 24 12 163q0 122 -14 169q-21 67 -77 67q-61 0 -112 -79q-57 -87 -57 -214q0 -52 6 -85q4 -22 19 -32t53 -12l-1 -15q-69 3 -112 3zM288 537q-35 54 -112 138l8 8q66 -45 120 -91q54 46 120 91
l8 -8q-77 -84 -112 -138q-7 -11 -16 -11t-16 11z" />
    <glyph glyph-name="napostrophe" unicode="&#x149;" horiz-adv-x="598" 
d="M138 0q-30 0 -120 -3l-1 15q63 1 72 28q10 30 10 173q0 111 -6 149q-2 17 -8.5 22t-22.5 5q-12 0 -37 -3l-2 15q56 5 90 17.5t68 39.5l6 -4q-13 -55 -15 -151l4 -1q28 60 65 98q56 58 126 58q79 0 117 -61q28 -45 28 -133q0 -17 -2 -69.5t-2 -91.5q0 -51 12.5 -69.5
t62.5 -21.5l-1 -15q-69 3 -109 3q-42 0 -120 -3l-1 15q37 1 50 6.5t19 16.5q12 24 12 163q0 122 -14 169q-21 67 -77 67q-61 0 -112 -79q-57 -87 -57 -214q0 -52 6 -85q4 -22 19 -32t53 -12l-1 -15q-69 3 -112 3zM177 545q-21 -33 -62 -46l-5 11q67 26 67 98q0 12 -1 19h-2
q-7 -30 -39 -30q-21 0 -36.5 13.5t-15.5 38.5q0 23 14 38.5t39 15.5q29 0 44.5 -23t15.5 -65q0 -41 -19 -70z" />
    <glyph glyph-name="Eng" unicode="&#x14a;" horiz-adv-x="781" 
d="M139 0q-50 0 -103 -4l-1 16q37 2 55.5 7.5t25.5 20.5q17 34 17 298q0 243 -12 283q-6 20 -25 29t-57 12l1 16q59 -4 108 -4q40 0 64 1q241 -311 412 -521h2q3 72 3 194q0 233 -12 273q-6 20 -25 29t-57 12l1 16q59 -4 107 -4q47 0 103 4l1 -16q-36 -1 -54 -6.5t-26 -21.5
q-17 -35 -17 -298q0 -106 1.5 -236t1.5 -189q0 -83 -44 -136t-127 -53q-69 0 -112.5 37.5t-43.5 86.5q0 26 13 46t38 20q18 0 28.5 -10.5t10.5 -26.5q-14 -19 -14 -59q0 -35 23 -55t61 -20q55 0 86.5 44t31.5 121q0 79 -32.5 140.5t-107.5 157.5q-200 255 -305 386h-2
q-4 -69 -4 -244q0 -253 12 -293q6 -20 25.5 -29t57.5 -12l-1 -16q-57 4 -108 4z" />
    <glyph glyph-name="eng" unicode="&#x14b;" horiz-adv-x="579" 
d="M138 0q-30 0 -120 -3l-1 15q63 1 72 28q10 30 10 173q0 111 -6 149q-2 17 -8.5 22t-22.5 5q-12 0 -37 -3l-2 15q56 5 90 17.5t68 39.5l6 -4q-13 -55 -15 -151l4 -1q28 60 65 98q56 58 126 58q79 0 117 -61q28 -45 28 -117q0 -16 -2 -64.5t-2 -80.5q0 -46 1 -99t1 -85
q0 -122 -41 -172q-47 -58 -129 -58q-62 0 -95.5 35.5t-33.5 80.5q0 31 16 53.5t44 22.5q20 0 32.5 -11.5t12.5 -29.5q0 -15 -6 -24q-42 -19 -42 -58q0 -24 18 -39t50 -15q69 0 86 85q11 54 11 332q0 105 -2 146t-11 68q-22 67 -78 67q-61 0 -112 -79q-57 -87 -57 -214
q0 -52 6 -85q4 -22 19 -32t53 -12l-1 -15q-69 3 -112 3z" />
    <glyph glyph-name="Omacron" unicode="&#x14c;" horiz-adv-x="806" 
d="M746 338q0 -154 -95 -252.5t-250 -98.5q-154 0 -247.5 98t-93.5 251q0 154 95 252.5t250 98.5q154 0 247.5 -98t93.5 -251zM158 342q0 -143 72.5 -239t178.5 -96q104 0 171.5 94t67.5 231q0 143 -72.5 239t-178.5 96q-104 0 -171.5 -94t-67.5 -231zM398 766
q-59 0 -116 -3v29q43 -4 103 -4q65 0 140 6v-31q-64 3 -127 3z" />
    <glyph glyph-name="omacron" unicode="&#x14d;" 
d="M118 55.5q-65 65.5 -65 168.5t65 168.5t170 65.5t170 -65.5t65 -168.5t-65 -168.5t-170 -65.5t-170 65.5zM138 225q0 -92 41.5 -155t110.5 -63t108.5 63t39.5 153q0 92 -41.5 155t-110.5 63t-108.5 -63t-39.5 -153zM283 556q-59 0 -116 -3v29q43 -4 103 -4q65 0 140 6
v-31q-65 3 -127 3z" />
    <glyph glyph-name="Obreve" unicode="&#x14e;" horiz-adv-x="806" 
d="M746 338q0 -154 -95 -252.5t-250 -98.5q-154 0 -247.5 98t-93.5 251q0 154 95 252.5t250 98.5q154 0 247.5 -98t93.5 -251zM158 342q0 -143 72.5 -239t178.5 -96q104 0 171.5 94t67.5 231q0 143 -72.5 239t-178.5 96q-104 0 -171.5 -94t-67.5 -231zM523 867
q-5 -59 -38 -94.5t-82 -35.5t-82 35.5t-38 94.5l11 3q29 -88 109 -88t109 88z" />
    <glyph glyph-name="obreve" unicode="&#x14f;" 
d="M118 55.5q-65 65.5 -65 168.5t65 168.5t170 65.5t170 -65.5t65 -168.5t-65 -168.5t-170 -65.5t-170 65.5zM138 225q0 -92 41.5 -155t110.5 -63t108.5 63t39.5 153q0 92 -41.5 155t-110.5 63t-108.5 -63t-39.5 -153zM408 657q-5 -59 -38 -94.5t-82 -35.5t-82 35.5
t-38 94.5l11 3q29 -88 109 -88t109 88z" />
    <glyph glyph-name="Ohungarumlaut" unicode="&#x150;" horiz-adv-x="806" 
d="M746 338q0 -154 -95 -252.5t-250 -98.5q-154 0 -247.5 98t-93.5 251q0 154 95 252.5t250 98.5q154 0 247.5 -98t93.5 -251zM158 342q0 -143 72.5 -239t178.5 -96q104 0 171.5 94t67.5 231q0 143 -72.5 239t-178.5 96q-104 0 -171.5 -94t-67.5 -231zM554 841
q-51 -50 -123 -131l-9 7q60 105 86 159q12 23 31 23q12 0 20.5 -9t8.5 -21q0 -14 -14 -28zM423 841q-51 -50 -123 -131l-9 7q60 105 86 159q11 23 31 23q12 0 20.5 -9t8.5 -21q0 -14 -14 -28z" />
    <glyph glyph-name="ohungarumlaut" unicode="&#x151;" 
d="M118 55.5q-65 65.5 -65 168.5t65 168.5t170 65.5t170 -65.5t65 -168.5t-65 -168.5t-170 -65.5t-170 65.5zM138 225q0 -92 41.5 -155t110.5 -63t108.5 63t39.5 153q0 92 -41.5 155t-110.5 63t-108.5 -63t-39.5 -153zM439 631q-51 -50 -123 -131l-9 7q60 105 86 159
q11 23 31 23q12 0 20.5 -9t8.5 -21q0 -14 -14 -28zM308 631q-51 -50 -123 -131l-9 7q60 105 86 159q12 23 31 23q12 0 20.5 -9t8.5 -21q0 -14 -14 -28z" />
    <glyph glyph-name="OE" unicode="&#x152;" horiz-adv-x="985" 
d="M823 465q-7 -58 -7 -106t7 -111l-13 -1q-3 24 -5 34t-6 25.5t-9.5 21.5t-15.5 13.5t-24 9.5t-34 2q-62 0 -108 -1q0 -164 3 -216.5t13 -76.5q6 -14 13 -22t28.5 -14.5t57.5 -6.5q48 0 85.5 11.5t60.5 27t43.5 45t30.5 52t25 61.5l14 -4q-36 -127 -53 -214q-70 5 -371 5
q-30 0 -82 -6.5t-85 -6.5q-156 0 -243.5 96.5t-87.5 251.5q0 157 89.5 254.5t244.5 97.5q29 0 85 -6.5t100 -6.5q117 0 327 9q3 -78 24 -166l-14 -4q-16 43 -28 65.5t-35.5 43t-60 28t-94.5 7.5q-48 0 -84 -3q-6 -144 -6 -281q40 -2 107 -2q24 0 40 5t25 10.5t15.5 21
t8.5 25t6 33.5zM158 335q0 -143 65 -236t187 -93q46 0 69.5 16t31.5 53q10 46 10 252q0 225 -9 273q-6 36 -27.5 52t-70.5 16q-56 0 -100.5 -19.5t-73 -51.5t-47.5 -76t-27 -90t-8 -96z" />
    <glyph glyph-name="oe" unicode="&#x153;" horiz-adv-x="831" 
d="M622 -10q-110 0 -173 93h-2q-59 -93 -175 -93q-98 0 -158.5 65.5t-60.5 168.5t61 168.5t160 65.5q116 0 173 -91h2q67 91 168 91q70 0 119 -41t56 -122l-3 -4h-293q-4 -25 -4 -54q0 -91 41.5 -157t113.5 -66q85 0 144 96l17 -11q-70 -109 -186 -109zM622 441
q-50 0 -80.5 -38.5t-42.5 -96.5h210q1 12 1 25q0 47 -21.5 78.5t-66.5 31.5zM138 225q0 -92 37.5 -155t99.5 -63t98.5 63t36.5 153q0 92 -38 155t-101 63q-62 0 -97.5 -63t-35.5 -153z" />
    <glyph glyph-name="Racute" unicode="&#x154;" horiz-adv-x="675" 
d="M173 0q-88 0 -137 -4l-1 16q66 2 79 28q19 37 19 290q0 187 -6 239q-5 49 -19.5 64t-63.5 24l3 16q54 -9 94 -9q37 0 102 11.5t105 11.5t77.5 -8.5t72 -26.5t55.5 -53t21 -82q0 -48 -22 -85t-58 -56.5t-73.5 -29.5t-76.5 -10l-1 -4q59 -10 94 -37t70 -86q11 -19 29.5 -54
t31 -56t29.5 -45t35.5 -35.5t38.5 -11.5q23 0 48 11l7 -14q-67 -30 -118 -30q-22 0 -39.5 3.5t-34 16.5t-26.5 22.5t-26.5 36t-24.5 42t-29 55.5q-59 111 -91.5 146t-93.5 35q-15 0 -19 -3.5t-4 -16.5q0 -217 14 -258q7 -21 24 -29.5t55 -11.5l-1 -16q-76 4 -139 4zM325 668
q-44 0 -101 -16q-4 -78 -4 -261q0 -24 12 -33t53 -9q95 0 143 44t48 123q0 73 -40 112.5t-111 39.5zM428 841q-56 -56 -121 -130l-10 7q45 86 78 158q11 24 31 24q16 0 25 -10t9 -23q0 -14 -12 -26z" />
    <glyph glyph-name="racute" unicode="&#x155;" horiz-adv-x="415" 
d="M138 0q-30 0 -120 -3l-1 15q63 1 72 28q10 30 10 179q0 105 -4 143q-2 17 -7.5 22t-22.5 5q-13 0 -38 -3l-2 15q56 7 87.5 19t65.5 38l6 -4q-9 -68 -12 -166l4 -1q52 171 151 171q36 0 56 -19.5t20 -43.5q0 -17 -11 -31.5t-31 -14.5t-33 11q-1 19 -10.5 33t-29.5 14
q-43 0 -77 -73q-40 -86 -40 -197q0 -44 8 -81q6 -26 19 -33.5t54 -10.5l-1 -15q-60 3 -113 3zM283 631q-56 -56 -121 -130l-10 7q45 86 78 158q11 24 31 24q16 0 25 -10t9 -23q0 -14 -12 -26z" />
    <glyph glyph-name="uni0156" unicode="&#x156;" horiz-adv-x="675" 
d="M173 0q-88 0 -137 -4l-1 16q66 2 79 28q19 37 19 290q0 187 -6 239q-5 49 -19.5 64t-63.5 24l3 16q54 -9 94 -9q37 0 102 11.5t105 11.5t77.5 -8.5t72 -26.5t55.5 -53t21 -82q0 -48 -22 -85t-58 -56.5t-73.5 -29.5t-76.5 -10l-1 -4q59 -10 94 -37t70 -86q11 -19 29.5 -54
t31 -56t29.5 -45t35.5 -35.5t38.5 -11.5q23 0 48 11l7 -14q-67 -30 -118 -30q-22 0 -39.5 3.5t-34 16.5t-26.5 22.5t-26.5 36t-24.5 42t-29 55.5q-59 111 -91.5 146t-93.5 35q-15 0 -19 -3.5t-4 -16.5q0 -217 14 -258q7 -21 24 -29.5t55 -11.5l-1 -16q-76 4 -139 4zM325 668
q-44 0 -101 -16q-4 -78 -4 -261q0 -24 12 -33t53 -9q95 0 143 44t48 123q0 73 -40 112.5t-111 39.5zM403 -201q-21 -33 -62 -46l-5 11q67 26 67 98q0 12 -1 19h-2q-7 -30 -39 -30q-21 0 -36.5 13.5t-15.5 38.5q0 23 14 38.5t39 15.5q29 0 44.5 -23t15.5 -65q0 -41 -19 -70z
" />
    <glyph glyph-name="uni0157" unicode="&#x157;" horiz-adv-x="415" 
d="M138 0q-30 0 -120 -3l-1 15q63 1 72 28q10 30 10 179q0 105 -4 143q-2 17 -7.5 22t-22.5 5q-13 0 -38 -3l-2 15q56 7 87.5 19t65.5 38l6 -4q-9 -68 -12 -166l4 -1q52 171 151 171q36 0 56 -19.5t20 -43.5q0 -17 -11 -31.5t-31 -14.5t-33 11q-1 19 -10.5 33t-29.5 14
q-43 0 -77 -73q-40 -86 -40 -197q0 -44 8 -81q6 -26 19 -33.5t54 -10.5l-1 -15q-60 3 -113 3zM175 -201q-21 -33 -62 -46l-5 11q67 26 67 98q0 12 -1 19h-2q-7 -30 -39 -30q-21 0 -36.5 13.5t-15.5 38.5q0 23 14 38.5t39 15.5q29 0 44.5 -23t15.5 -65q0 -41 -19 -70z" />
    <glyph glyph-name="Rcaron" unicode="&#x158;" horiz-adv-x="675" 
d="M173 0q-88 0 -137 -4l-1 16q66 2 79 28q19 37 19 290q0 187 -6 239q-5 49 -19.5 64t-63.5 24l3 16q54 -9 94 -9q37 0 102 11.5t105 11.5t77.5 -8.5t72 -26.5t55.5 -53t21 -82q0 -48 -22 -85t-58 -56.5t-73.5 -29.5t-76.5 -10l-1 -4q59 -10 94 -37t70 -86q11 -19 29.5 -54
t31 -56t29.5 -45t35.5 -35.5t38.5 -11.5q23 0 48 11l7 -14q-67 -30 -118 -30q-22 0 -39.5 3.5t-34 16.5t-26.5 22.5t-26.5 36t-24.5 42t-29 55.5q-59 111 -91.5 146t-93.5 35q-15 0 -19 -3.5t-4 -16.5q0 -217 14 -258q7 -21 24 -29.5t55 -11.5l-1 -16q-76 4 -139 4zM325 668
q-44 0 -101 -16q-4 -78 -4 -261q0 -24 12 -33t53 -9q95 0 143 44t48 123q0 73 -40 112.5t-111 39.5zM319 747q-35 54 -112 138l8 8q66 -45 120 -91q54 46 120 91l8 -8q-77 -84 -112 -138q-7 -11 -16 -11t-16 11z" />
    <glyph glyph-name="rcaron" unicode="&#x159;" horiz-adv-x="415" 
d="M138 0q-30 0 -120 -3l-1 15q63 1 72 28q10 30 10 179q0 105 -4 143q-2 17 -7.5 22t-22.5 5q-13 0 -38 -3l-2 15q56 7 87.5 19t65.5 38l6 -4q-9 -68 -12 -166l4 -1q52 171 151 171q36 0 56 -19.5t20 -43.5q0 -17 -11 -31.5t-31 -14.5t-33 11q-1 19 -10.5 33t-29.5 14
q-43 0 -77 -73q-40 -86 -40 -197q0 -44 8 -81q6 -26 19 -33.5t54 -10.5l-1 -15q-60 3 -113 3zM193 537q-35 54 -112 138l8 8q66 -45 120 -91q54 46 120 91l8 -8q-77 -84 -112 -138q-7 -11 -16 -11t-16 11z" />
    <glyph glyph-name="Sacute" unicode="&#x15a;" horiz-adv-x="548" 
d="M59 121q0 46 -4 93l16 1q12 -96 67 -152.5t138 -56.5q64 0 109 33.5t45 93.5q0 26 -11 49t-24 38t-41 33t-45.5 27t-54.5 27q-45 22 -71.5 37.5t-59 41.5t-48 57.5t-15.5 69.5q0 75 59.5 124.5t152.5 49.5q40 0 100.5 -15.5t88.5 -18.5q0 -95 12 -169l-15 -2
q-15 85 -64.5 135.5t-128.5 50.5q-58 0 -97.5 -27.5t-39.5 -80.5q0 -24 10.5 -45.5t22.5 -35t40 -31.5t43 -25.5t52 -25.5q35 -17 55.5 -27.5t48 -27.5t43 -32t31 -35t22.5 -43.5t7 -50.5q0 -83 -64 -138.5t-174 -55.5q-42 0 -112 14t-98 18q4 52 4 102zM350 841
q-56 -56 -121 -130l-10 7q45 86 78 158q11 24 31 24q16 0 25 -10t9 -23q0 -14 -12 -26z" />
    <glyph glyph-name="sacute" unicode="&#x15b;" horiz-adv-x="422" 
d="M50 99q0 17 -2 57l13 1q8 -70 47.5 -110t102.5 -40q45 0 73.5 20t28.5 55q0 9 -1.5 16.5t-6 15t-8.5 13t-12.5 12t-14.5 10.5t-18.5 10.5t-20 10.5t-23 12t-24.5 12q-42 21 -66 36.5t-45 44t-21 62.5q0 52 41 86.5t117 34.5q64 0 140 -27q-2 -38 -2 -59q0 -32 3 -68
l-11 -1q-9 64 -46 101t-96 37q-41 0 -65 -17.5t-24 -50.5q0 -21 14 -38.5t30.5 -27t55.5 -28.5l18 -9q77 -38 112 -69t35 -81q0 -58 -46.5 -94t-129.5 -36q-72 0 -152 28q4 54 4 81zM298 631q-56 -56 -121 -130l-10 7q45 86 78 158q11 24 31 24q16 0 25 -10t9 -23
q0 -14 -12 -26z" />
    <glyph glyph-name="Scircumflex" unicode="&#x15c;" horiz-adv-x="548" 
d="M59 121q0 46 -4 93l16 1q12 -96 67 -152.5t138 -56.5q64 0 109 33.5t45 93.5q0 26 -11 49t-24 38t-41 33t-45.5 27t-54.5 27q-45 22 -71.5 37.5t-59 41.5t-48 57.5t-15.5 69.5q0 75 59.5 124.5t152.5 49.5q40 0 100.5 -15.5t88.5 -18.5q0 -95 12 -169l-15 -2
q-15 85 -64.5 135.5t-128.5 50.5q-58 0 -97.5 -27.5t-39.5 -80.5q0 -24 10.5 -45.5t22.5 -35t40 -31.5t43 -25.5t52 -25.5q35 -17 55.5 -27.5t48 -27.5t43 -32t31 -35t22.5 -43.5t7 -50.5q0 -83 -64 -138.5t-174 -55.5q-42 0 -112 14t-98 18q4 52 4 102zM285 827
q-54 -46 -120 -91l-8 8q77 84 112 138q7 11 16 11t16 -11q35 -54 112 -138l-8 -8q-66 45 -120 91z" />
    <glyph glyph-name="scircumflex" unicode="&#x15d;" horiz-adv-x="422" 
d="M50 99q0 17 -2 57l13 1q8 -70 47.5 -110t102.5 -40q45 0 73.5 20t28.5 55q0 9 -1.5 16.5t-6 15t-8.5 13t-12.5 12t-14.5 10.5t-18.5 10.5t-20 10.5t-23 12t-24.5 12q-42 21 -66 36.5t-45 44t-21 62.5q0 52 41 86.5t117 34.5q64 0 140 -27q-2 -38 -2 -59q0 -32 3 -68
l-11 -1q-9 64 -46 101t-96 37q-41 0 -65 -17.5t-24 -50.5q0 -21 14 -38.5t30.5 -27t55.5 -28.5l18 -9q77 -38 112 -69t35 -81q0 -58 -46.5 -94t-129.5 -36q-72 0 -152 28q4 54 4 81zM210 617q-54 -46 -120 -91l-8 8q77 84 112 138q7 11 16 11t16 -11q35 -54 112 -138l-8 -8
q-66 45 -120 91z" />
    <glyph glyph-name="Scedilla" unicode="&#x15e;" horiz-adv-x="548" 
d="M274 -78q-27 0 -44 -16l-10 7q19 33 40 74q-41 1 -109 14.5t-96 17.5q4 52 4 102q0 46 -4 93l16 1q12 -96 67 -152.5t138 -56.5q64 0 109 33.5t45 93.5q0 26 -11 49t-24 38t-41 33t-45.5 27t-54.5 27q-45 22 -71.5 37.5t-59 41.5t-48 57.5t-15.5 69.5q0 75 59.5 124.5
t152.5 49.5q40 0 100.5 -15.5t88.5 -18.5q0 -95 12 -169l-15 -2q-15 85 -64.5 135.5t-128.5 50.5q-58 0 -97.5 -27.5t-39.5 -80.5q0 -24 10.5 -45.5t22.5 -35t40 -31.5t43 -25.5t52 -25.5q35 -17 55.5 -27.5t48 -27.5t43 -32t31 -35t22.5 -43.5t7 -50.5q0 -81 -61 -136
t-167 -58q-15 -33 -23 -48l2 -2q22 10 45 10q41 0 63.5 -24t22.5 -58q0 -38 -27.5 -67.5t-73.5 -29.5q-37 0 -60.5 20t-23.5 50q0 37 26 37q21 0 21 -19q-9 -19 -9 -37q0 -20 11 -30t27 -10q26 0 41 22.5t15 51.5q0 28 -14.5 48.5t-43.5 20.5z" />
    <glyph glyph-name="scedilla" unicode="&#x15f;" horiz-adv-x="422" 
d="M207 -78q-27 0 -44 -16l-10 7q18 30 41 77q-73 1 -148 28q4 54 4 81q0 17 -2 57l13 1q8 -70 47.5 -110t102.5 -40q45 0 73.5 20t28.5 55q0 9 -1.5 16.5t-6 15t-8.5 13t-12.5 12t-14.5 10.5t-18.5 10.5t-20 10.5t-23 12t-24.5 12q-42 21 -66 36.5t-45 44t-21 62.5
q0 52 41 86.5t117 34.5q64 0 140 -27q-2 -38 -2 -59q0 -32 3 -68l-11 -1q-9 64 -46 101t-96 37q-41 0 -65 -17.5t-24 -50.5q0 -21 14 -38.5t30.5 -27t55.5 -28.5l18 -9q77 -38 112 -69t35 -81q0 -55 -43 -91t-121 -39q-3 -6 -25 -51l2 -2q22 10 45 10q41 0 63.5 -24
t22.5 -58q0 -38 -27.5 -67.5t-73.5 -29.5q-37 0 -60.5 20t-23.5 50q0 37 26 37q21 0 21 -19q-9 -19 -9 -37q0 -20 11 -30t27 -10q26 0 41 22.5t15 51.5q0 28 -14.5 48.5t-43.5 20.5z" />
    <glyph glyph-name="Scaron" unicode="&#x160;" horiz-adv-x="548" 
d="M59 121q0 46 -4 93l16 1q12 -96 67 -152.5t138 -56.5q64 0 109 33.5t45 93.5q0 26 -11 49t-24 38t-41 33t-45.5 27t-54.5 27q-45 22 -71.5 37.5t-59 41.5t-48 57.5t-15.5 69.5q0 75 59.5 124.5t152.5 49.5q40 0 100.5 -15.5t88.5 -18.5q0 -95 12 -169l-15 -2
q-15 85 -64.5 135.5t-128.5 50.5q-58 0 -97.5 -27.5t-39.5 -80.5q0 -24 10.5 -45.5t22.5 -35t40 -31.5t43 -25.5t52 -25.5q35 -17 55.5 -27.5t48 -27.5t43 -32t31 -35t22.5 -43.5t7 -50.5q0 -83 -64 -138.5t-174 -55.5q-42 0 -112 14t-98 18q4 52 4 102zM266 747
q-35 54 -112 138l8 8q66 -45 120 -91q54 46 120 91l8 -8q-77 -84 -112 -138q-7 -11 -16 -11t-16 11z" />
    <glyph glyph-name="scaron" unicode="&#x161;" horiz-adv-x="422" 
d="M50 99q0 17 -2 57l13 1q8 -70 47.5 -110t102.5 -40q45 0 73.5 20t28.5 55q0 9 -1.5 16.5t-6 15t-8.5 13t-12.5 12t-14.5 10.5t-18.5 10.5t-20 10.5t-23 12t-24.5 12q-42 21 -66 36.5t-45 44t-21 62.5q0 52 41 86.5t117 34.5q64 0 140 -27q-2 -38 -2 -59q0 -32 3 -68
l-11 -1q-9 64 -46 101t-96 37q-41 0 -65 -17.5t-24 -50.5q0 -21 14 -38.5t30.5 -27t55.5 -28.5l18 -9q77 -38 112 -69t35 -81q0 -58 -46.5 -94t-129.5 -36q-72 0 -152 28q4 54 4 81zM194 537q-35 54 -112 138l8 8q66 -45 120 -91q54 46 120 91l8 -8q-77 -84 -112 -138
q-7 -11 -16 -11t-16 11z" />
    <glyph glyph-name="uni0162" unicode="&#x162;" horiz-adv-x="635" 
d="M305 -78q-27 0 -44 -16l-10 7q24 41 46 87q-79 0 -120 -4l-1 16q65 2 80 28q18 34 18 301q0 224 -9 314q-11 1 -30 1q-71 0 -121 -50.5t-74 -128.5l-14 4q29 101 35 212q107 -19 256 -19q150 0 257 19q6 -111 35 -212l-14 -4q-24 78 -74 128.5t-121 50.5q-19 0 -30 -1
q-9 -95 -9 -316q0 -247 13 -286q12 -37 81 -41l-1 -16q-76 4 -133 4h-9l-29 -61l2 -2q22 10 45 10q41 0 63.5 -24t22.5 -58q0 -38 -27.5 -67.5t-73.5 -29.5q-37 0 -60.5 20t-23.5 50q0 37 26 37q21 0 21 -19q-9 -19 -9 -37q0 -20 11 -30t27 -10q26 0 41 22.5t15 51.5
q0 28 -14.5 48.5t-43.5 20.5z" />
    <glyph glyph-name="uni0163" unicode="&#x163;" horiz-adv-x="333" 
d="M178 -78q-27 0 -44 -16l-10 7q21 35 44 84q-33 11 -53 42q-22 35 -22 117q0 25 2 107.5t2 150.5q-53 0 -73 -1v23q38 -2 72 -2q-2 71 -6 112q56 31 87 88l9 -2q-12 -86 -15 -198q58 0 124 2l-1 -23q-37 1 -123 1q-1 -35 -1 -122q0 -184 12 -226q14 -52 60 -52q35 0 73 40
l11 -10q-48 -54 -114 -54q-16 0 -30 3q-24 -51 -26 -54l2 -2q22 10 45 10q41 0 63.5 -24t22.5 -58q0 -38 -27.5 -67.5t-73.5 -29.5q-37 0 -60.5 20t-23.5 50q0 37 26 37q21 0 21 -19q-9 -19 -9 -37q0 -20 11 -30t27 -10q26 0 41 22.5t15 51.5q0 28 -14.5 48.5t-43.5 20.5z
" />
    <glyph glyph-name="Tcaron" unicode="&#x164;" horiz-adv-x="635" 
d="M321 0q-95 0 -144 -4l-1 16q65 2 80 28q18 34 18 301q0 224 -9 314q-11 1 -30 1q-71 0 -121 -50.5t-74 -128.5l-14 4q29 101 35 212q107 -19 256 -19q150 0 257 19q6 -111 35 -212l-14 -4q-24 78 -74 128.5t-121 50.5q-19 0 -30 -1q-9 -95 -9 -316q0 -247 13 -286
q12 -37 81 -41l-1 -16q-76 4 -133 4zM302 747q-35 54 -112 138l8 8q66 -45 120 -91q54 46 120 91l8 -8q-77 -84 -112 -138q-7 -11 -16 -11t-16 11z" />
    <glyph glyph-name="tcaron" unicode="&#x165;" horiz-adv-x="333" 
d="M242 14q35 0 73 40l11 -10q-48 -54 -114 -54t-97 49q-22 35 -22 117q0 25 2 107.5t2 150.5q-53 0 -73 -1v23q38 -2 73 -2q-2 71 -6 112q54 30 86 88l9 -2q-12 -86 -15 -198q58 0 124 2l-1 -23q-37 1 -123 1q-1 -35 -1 -122q0 -184 12 -226q14 -52 60 -52zM324 542
q-21 -33 -62 -46l-5 11q67 26 67 98q0 12 -1 19h-2q-7 -30 -39 -30q-21 0 -36.5 13.5t-15.5 38.5q0 23 14 38.5t39 15.5q29 0 44.5 -23t15.5 -65q0 -41 -19 -70z" />
    <glyph glyph-name="Tbar" unicode="&#x166;" horiz-adv-x="635" 
d="M321 0q-95 0 -144 -4l-1 16q65 2 80 28q18 34 18 301v14q-94 0 -136 -2v24q38 -2 136 -2q-1 198 -9 280q-11 1 -30 1q-71 0 -121 -50.5t-74 -128.5l-14 4q29 101 35 212q107 -19 256 -19q150 0 257 19q6 -111 35 -212l-14 -4q-24 78 -74 128.5t-121 50.5q-19 0 -30 -1
q-9 -87 -9 -280q44 0 136 4v-27q-21 1 -43.5 1.5t-50 1t-42.5 0.5v-16q0 -247 13 -286q12 -37 81 -41l-1 -16q-76 4 -133 4z" />
    <glyph glyph-name="tbar" unicode="&#x167;" horiz-adv-x="333" 
d="M95 252q-52 0 -71 -1v23q36 -2 71 -2q2 78 2 142q-53 0 -73 -1v23q38 -2 72 -2q-2 71 -6 112q56 31 87 88l9 -2q-12 -86 -15 -198q58 0 124 2l-1 -23q-37 1 -123 1q-1 -35 -1 -142q59 0 125 2l-1 -23q-37 1 -124 1q0 -145 12 -186q14 -52 60 -52q35 0 73 40l11 -10
q-48 -54 -114 -54t-97 49q-22 35 -22 117q0 24 2 96z" />
    <glyph glyph-name="Utilde" unicode="&#x168;" horiz-adv-x="740" 
d="M105 621q-7 20 -25.5 29.5t-55.5 11.5l1 16q80 -4 139 -4q86 0 138 4l1 -16q-67 -1 -80 -28q-18 -34 -18 -264q0 -127 6.5 -182t27.5 -91q48 -80 160 -80q115 0 166 83q22 37 28.5 89.5t6.5 175.5q0 216 -12 256q-10 35 -82 41l1 16q56 -4 104 -4q51 0 106 4l1 -16
q-68 -1 -81 -28q-16 -34 -16 -274q0 -125 -6 -179t-31 -96q-59 -98 -215 -98q-137 0 -200 78q-30 37 -40.5 86.5t-10.5 129.5q0 305 -13 340zM321 798q-39 0 -50 -57l-10 1q11 103 76 103q28 0 77 -29.5t76 -29.5q39 0 50 57l10 -1q-11 -103 -76 -103q-28 0 -77 29.5
t-76 29.5z" />
    <glyph glyph-name="utilde" unicode="&#x169;" horiz-adv-x="578" 
d="M58 422q-23 0 -40 -2l-2 15q87 4 155 21l4 -4q-11 -99 -11 -227q0 -108 13 -150q20 -63 73 -63q29 0 58 21t49 53q48 76 48 213q0 62 -5 92q-3 18 -8.5 24.5t-20.5 6.5q-23 0 -40 -2l-2 15q89 5 156 21l5 -4q-11 -104 -11 -238q0 -113 6 -151q5 -30 19.5 -39t53.5 -12
l-1 -15q-59 3 -151 3q0 85 -2 128h-4q-18 -44 -46 -78q-51 -60 -127 -60q-77 0 -114 57q-27 41 -27 124q0 20 2 64.5t2 68.5q0 60 -3 87q-2 18 -8 24.5t-21 6.5zM206 588q-39 0 -50 -57l-10 1q11 103 76 103q28 0 77 -29.5t76 -29.5q39 0 50 57l10 -1q-11 -103 -76 -103
q-28 0 -77 29.5t-76 29.5z" />
    <glyph glyph-name="Umacron" unicode="&#x16a;" horiz-adv-x="740" 
d="M105 621q-7 20 -25.5 29.5t-55.5 11.5l1 16q80 -4 139 -4q86 0 138 4l1 -16q-67 -1 -80 -28q-18 -34 -18 -264q0 -127 6.5 -182t27.5 -91q48 -80 160 -80q115 0 166 83q22 37 28.5 89.5t6.5 175.5q0 216 -12 256q-10 35 -82 41l1 16q56 -4 104 -4q51 0 106 4l1 -16
q-68 -1 -81 -28q-16 -34 -16 -274q0 -125 -6 -179t-31 -96q-59 -98 -215 -98q-137 0 -200 78q-30 37 -40.5 86.5t-10.5 129.5q0 305 -13 340zM394 766q-59 0 -116 -3v29q43 -4 103 -4q65 0 140 6v-31q-65 3 -127 3z" />
    <glyph glyph-name="umacron" unicode="&#x16b;" horiz-adv-x="578" 
d="M58 422q-23 0 -40 -2l-2 15q87 4 155 21l4 -4q-11 -99 -11 -227q0 -108 13 -150q20 -63 73 -63q29 0 58 21t49 53q48 76 48 213q0 62 -5 92q-3 18 -8.5 24.5t-20.5 6.5q-23 0 -40 -2l-2 15q89 5 156 21l5 -4q-11 -104 -11 -238q0 -113 6 -151q5 -30 19.5 -39t53.5 -12
l-1 -15q-59 3 -151 3q0 85 -2 128h-4q-18 -44 -46 -78q-51 -60 -127 -60q-77 0 -114 57q-27 41 -27 124q0 20 2 64.5t2 68.5q0 60 -3 87q-2 18 -8 24.5t-21 6.5zM282 556q-59 0 -116 -3v29q43 -4 103 -4q65 0 140 6v-31q-65 3 -127 3z" />
    <glyph glyph-name="Ubreve" unicode="&#x16c;" horiz-adv-x="740" 
d="M105 621q-7 20 -25.5 29.5t-55.5 11.5l1 16q80 -4 139 -4q86 0 138 4l1 -16q-67 -1 -80 -28q-18 -34 -18 -264q0 -127 6.5 -182t27.5 -91q48 -80 160 -80q115 0 166 83q22 37 28.5 89.5t6.5 175.5q0 216 -12 256q-10 35 -82 41l1 16q56 -4 104 -4q51 0 106 4l1 -16
q-68 -1 -81 -28q-16 -34 -16 -274q0 -125 -6 -179t-31 -96q-59 -98 -215 -98q-137 0 -200 78q-30 37 -40.5 86.5t-10.5 129.5q0 305 -13 340zM518 867q-5 -59 -38 -94.5t-82 -35.5t-82 35.5t-38 94.5l11 3q29 -88 109 -88t109 88z" />
    <glyph glyph-name="ubreve" unicode="&#x16d;" horiz-adv-x="578" 
d="M58 422q-23 0 -40 -2l-2 15q87 4 155 21l4 -4q-11 -99 -11 -227q0 -108 13 -150q20 -63 73 -63q29 0 58 21t49 53q48 76 48 213q0 62 -5 92q-3 18 -8.5 24.5t-20.5 6.5q-23 0 -40 -2l-2 15q89 5 156 21l5 -4q-11 -104 -11 -238q0 -113 6 -151q5 -30 19.5 -39t53.5 -12
l-1 -15q-59 3 -151 3q0 85 -2 128h-4q-18 -44 -46 -78q-51 -60 -127 -60q-77 0 -114 57q-27 41 -27 124q0 20 2 64.5t2 68.5q0 60 -3 87q-2 18 -8 24.5t-21 6.5zM407 657q-5 -59 -38 -94.5t-82 -35.5t-82 35.5t-38 94.5l11 3q29 -88 109 -88t109 88z" />
    <glyph glyph-name="Uring" unicode="&#x16e;" horiz-adv-x="740" 
d="M105 621q-7 20 -25.5 29.5t-55.5 11.5l1 16q80 -4 139 -4q86 0 138 4l1 -16q-67 -1 -80 -28q-18 -34 -18 -264q0 -127 6.5 -182t27.5 -91q48 -80 160 -80q115 0 166 83q22 37 28.5 89.5t6.5 175.5q0 216 -12 256q-10 35 -82 41l1 16q56 -4 104 -4q51 0 106 4l1 -16
q-68 -1 -81 -28q-16 -34 -16 -274q0 -125 -6 -179t-31 -96q-59 -98 -215 -98q-137 0 -200 78q-30 37 -40.5 86.5t-10.5 129.5q0 305 -13 340zM497 810q0 -38 -27.5 -63.5t-67.5 -25.5t-67.5 25.5t-27.5 63.5q0 37 27.5 62.5t67.5 25.5t67.5 -25.5t27.5 -62.5zM360 757
q16 -22 42 -22t42 22t16 53t-16 52.5t-42 21.5t-42 -21.5t-16 -52.5t16 -53z" />
    <glyph glyph-name="uring" unicode="&#x16f;" horiz-adv-x="578" 
d="M58 422q-23 0 -40 -2l-2 15q87 4 155 21l4 -4q-11 -99 -11 -227q0 -108 13 -150q20 -63 73 -63q29 0 58 21t49 53q48 76 48 213q0 62 -5 92q-3 18 -8.5 24.5t-20.5 6.5q-23 0 -40 -2l-2 15q89 5 156 21l5 -4q-11 -104 -11 -238q0 -113 6 -151q5 -30 19.5 -39t53.5 -12
l-1 -15q-59 3 -151 3q0 85 -2 128h-4q-18 -44 -46 -78q-51 -60 -127 -60q-77 0 -114 57q-27 41 -27 124q0 20 2 64.5t2 68.5q0 60 -3 87q-2 18 -8 24.5t-21 6.5zM382 600q0 -38 -27.5 -63.5t-67.5 -25.5t-67.5 25.5t-27.5 63.5q0 37 27.5 62.5t67.5 25.5t67.5 -25.5
t27.5 -62.5zM245 547q16 -22 42 -22t42 22t16 53t-16 52.5t-42 21.5t-42 -21.5t-16 -52.5t16 -53z" />
    <glyph glyph-name="Uhungarumlaut" unicode="&#x170;" horiz-adv-x="740" 
d="M105 621q-7 20 -25.5 29.5t-55.5 11.5l1 16q80 -4 139 -4q86 0 138 4l1 -16q-67 -1 -80 -28q-18 -34 -18 -264q0 -127 6.5 -182t27.5 -91q48 -80 160 -80q115 0 166 83q22 37 28.5 89.5t6.5 175.5q0 216 -12 256q-10 35 -82 41l1 16q56 -4 104 -4q51 0 106 4l1 -16
q-68 -1 -81 -28q-16 -34 -16 -274q0 -125 -6 -179t-31 -96q-59 -98 -215 -98q-137 0 -200 78q-30 37 -40.5 86.5t-10.5 129.5q0 305 -13 340zM566 841q-51 -50 -123 -131l-9 7q60 105 86 159q12 23 31 23q12 0 20.5 -9t8.5 -21q0 -14 -14 -28zM435 841q-51 -50 -123 -131
l-9 7q60 105 86 159q11 23 31 23q12 0 20.5 -9t8.5 -21q0 -14 -14 -28z" />
    <glyph glyph-name="uhungarumlaut" unicode="&#x171;" horiz-adv-x="578" 
d="M58 422q-23 0 -40 -2l-2 15q87 4 155 21l4 -4q-11 -99 -11 -227q0 -108 13 -150q20 -63 73 -63q29 0 58 21t49 53q48 76 48 213q0 62 -5 92q-3 18 -8.5 24.5t-20.5 6.5q-23 0 -40 -2l-2 15q89 5 156 21l5 -4q-11 -104 -11 -238q0 -113 6 -151q5 -30 19.5 -39t53.5 -12
l-1 -15q-59 3 -151 3q0 85 -2 128h-4q-18 -44 -46 -78q-51 -60 -127 -60q-77 0 -114 57q-27 41 -27 124q0 20 2 64.5t2 68.5q0 60 -3 87q-2 18 -8 24.5t-21 6.5zM438 631q-51 -50 -123 -131l-9 7q60 105 86 159q12 23 31 23q12 0 20.5 -9t8.5 -21q0 -14 -14 -28zM307 631
q-51 -50 -123 -131l-9 7q60 105 86 159q11 23 31 23q12 0 20.5 -9t8.5 -21q0 -14 -14 -28z" />
    <glyph glyph-name="Uogonek" unicode="&#x172;" horiz-adv-x="740" 
d="M270 -180q0 84 145 168l-1 2q-23 -3 -45 -3q-137 0 -200 78q-30 37 -40.5 86.5t-10.5 129.5q0 305 -13 340q-7 20 -25.5 29.5t-55.5 11.5l1 16q80 -4 139 -4q86 0 138 4l1 -16q-67 -1 -80 -28q-18 -34 -18 -264q0 -127 6.5 -182t27.5 -91q48 -80 160 -80q115 0 166 83
q22 37 28.5 89.5t6.5 175.5q0 216 -12 256q-10 35 -82 41l1 16q56 -4 104 -4q51 0 106 4l1 -16q-68 -1 -81 -28q-16 -34 -16 -274q0 -125 -6 -179t-31 -96q-39 -66 -123 -87q-54 -32 -85.5 -82t-31.5 -98q0 -37 19 -60t50 -23q32 0 51 21.5t26 44.5q4 4 9 4q13 0 13 -15
q0 -21 -28.5 -44.5t-82.5 -23.5q-55 0 -93 25.5t-38 72.5z" />
    <glyph glyph-name="uogonek" unicode="&#x173;" horiz-adv-x="578" 
d="M58 422q-23 0 -40 -2l-2 15q87 4 155 21l4 -4q-11 -99 -11 -227q0 -108 13 -150q20 -63 73 -63q29 0 58 21t49 53q48 76 48 213q0 62 -5 92q-3 18 -8.5 24.5t-20.5 6.5q-23 0 -40 -2l-2 15q89 5 156 21l5 -4q-11 -104 -11 -238q0 -113 6 -151q5 -30 19.5 -39t53.5 -12
l-1 -15q-43 3 -105 3q-69 -18 -110 -72.5t-41 -110.5q0 -37 19 -60t50 -23q32 0 51 21.5t26 44.5q4 4 9 4q13 0 13 -15q0 -21 -28.5 -44.5t-82.5 -23.5q-55 0 -93 25.5t-38 72.5q0 53 49.5 102t129.5 79q0 85 -2 128h-4q-18 -44 -46 -78q-51 -60 -127 -60q-77 0 -114 57
q-27 41 -27 124q0 20 2 64.5t2 68.5q0 60 -3 87q-2 18 -8 24.5t-21 6.5z" />
    <glyph glyph-name="Wcircumflex" unicode="&#x174;" horiz-adv-x="1095" 
d="M249 473q70 -190 129 -338h3q73 186 151 398q-20 48 -34 76q-15 31 -33.5 41t-57.5 12l1 16q57 -4 124 -4q80 0 136 4l1 -16q-39 -3 -53 -9t-14 -25q0 -25 48 -155q70 -190 129 -338h3q73 186 129 338q47 128 47 155q0 18 -13.5 24.5t-52.5 9.5l1 16q49 -4 95 -4
q43 0 100 4l1 -16q-41 -2 -59 -11.5t-34 -41.5q-17 -32 -113 -276q-83 -210 -131 -343q-3 -7 -5 -7t-5 7q-79 217 -195 506h-2q-100 -255 -194 -506q-3 -7 -5 -7t-5 7q-63 169 -131 344q-91 233 -112 275q-16 31 -34 41t-58 12l1 16q57 -4 124 -4q80 0 136 4l1 -16
q-39 -3 -53 -9t-14 -25q0 -25 48 -155zM547 827q-54 -46 -120 -91l-8 8q77 84 112 138q7 11 16 11t16 -11q35 -54 112 -138l-8 -8q-66 45 -120 91z" />
    <glyph glyph-name="wcircumflex" unicode="&#x175;" horiz-adv-x="777" 
d="M179 351q32 -91 99 -248h1q35 90 96 256q-20 47 -41 85l1 5q27 -1 69 -1q40 0 107 3l1 -15q-63 0 -63 -30q0 -15 14 -55q32 -91 99 -248h1q52 136 86 229q23 63 23 78q0 13 -13.5 19t-48.5 7l1 15q44 -3 85 -3q32 0 74 3l2 -15q-35 -2 -52 -10.5t-26 -33.5
q-80 -203 -153 -401q-3 -7 -6 -7q-4 0 -7 6q-3 8 -25.5 62.5t-55.5 134.5t-60 144h-1q-43 -110 -129 -340q-3 -7 -6 -7q-4 0 -7 6q-2 4 -30.5 74t-66 160.5t-66.5 157.5q-8 19 -14.5 28.5t-22 17.5t-40.5 8l1 15q52 -3 100 -3q66 0 122 3l1 -15q-63 0 -63 -30q0 -15 14 -55z
M402 617q-54 -46 -120 -91l-8 8q77 84 112 138q7 11 16 11t16 -11q35 -54 112 -138l-8 -8q-66 45 -120 91z" />
    <glyph glyph-name="Ycircumflex" unicode="&#x176;" horiz-adv-x="627" 
d="M315 0q-88 0 -137 -4l-1 16q66 2 80 28q18 35 18 283q-129 216 -185 291q-21 27 -38 36t-54 12l1 16q55 -4 124 -4q53 0 135 4l1 -16q-64 -5 -64 -27q0 -20 42 -92q39 -68 112 -179q81 131 122 206q26 47 26 63q0 15 -16 20.5t-49 8.5l1 16q56 -4 104 -4q39 0 92 4l1 -16
q-53 -6 -66 -15q-14 -9 -35 -37q-45 -62 -167 -265q0 -253 13 -292q12 -37 81 -41l-1 -16q-76 4 -140 4zM324 827q-54 -46 -120 -91l-8 8q77 84 112 138q7 11 16 11t16 -11q35 -54 112 -138l-8 -8q-66 45 -120 91z" />
    <glyph glyph-name="ycircumflex" unicode="&#x177;" horiz-adv-x="521" 
d="M176 345q61 -136 121 -252h1q36 80 97 233q27 67 27 86q0 12 -14 17t-48 7l1 15q41 -3 83 -3q34 0 78 3l1 -15q-35 -2 -50 -10t-26 -32q-96 -219 -164 -382q-54 -128 -75 -166q-58 -103 -124 -103q-28 0 -46.5 15.5t-18.5 39.5q0 37 41 46q37 -30 65 -30q33 0 60 37.5
t74 147.5q-84 171 -194 389q-13 27 -28.5 36t-50.5 12l1 15q36 -3 106 -3q78 0 120 3l1 -15q-59 0 -59 -28q0 -15 21 -63zM273 617q-54 -46 -120 -91l-8 8q77 84 112 138q7 11 16 11t16 -11q35 -54 112 -138l-8 -8q-66 45 -120 91z" />
    <glyph glyph-name="Ydieresis" unicode="&#x178;" horiz-adv-x="627" 
d="M315 0q-88 0 -137 -4l-1 16q66 2 80 28q18 35 18 283q-129 216 -185 291q-21 27 -38 36t-54 12l1 16q55 -4 124 -4q53 0 135 4l1 -16q-64 -5 -64 -27q0 -20 42 -92q39 -68 112 -179q81 131 122 206q26 47 26 63q0 15 -16 20.5t-49 8.5l1 16q56 -4 104 -4q39 0 92 4l1 -16
q-53 -6 -66 -15q-14 -9 -35 -37q-45 -62 -167 -265q0 -253 13 -292q12 -37 81 -41l-1 -16q-76 4 -140 4zM398 848q20 0 34.5 -14.5t14.5 -33.5t-14.5 -33.5t-34.5 -14.5q-19 0 -33 14.5t-14 33.5t14 33.5t33 14.5zM234 848q20 0 34.5 -14.5t14.5 -33.5t-14.5 -33.5
t-34.5 -14.5q-19 0 -33 14.5t-14 33.5t14 33.5t33 14.5z" />
    <glyph glyph-name="Zacute" unicode="&#x179;" horiz-adv-x="580" 
d="M280 0q-154 0 -245 -5l-4 14q119 182 219 348q110 182 173 293l-1 2q-55 4 -115 4q-77 0 -121 -7t-72.5 -29.5t-41 -52t-24.5 -87.5l-17 3q16 99 23 203q117 -12 245 -12q141 0 241 9l5 -13q-65 -102 -212 -342q-161 -263 -161 -291q0 -18 102 -18t153.5 17t75.5 56
t37 122l17 -2q-14 -118 -15 -222q-110 10 -262 10zM389 841q-56 -56 -121 -130l-10 7q45 86 78 158q11 24 31 24q16 0 25 -10t9 -23q0 -14 -12 -26z" />
    <glyph glyph-name="zacute" unicode="&#x17a;" horiz-adv-x="439" 
d="M237 0q-102 0 -198 -4l-3 11q173 270 261 423l-1 1q-25 2 -84 2q-48 0 -76 -6t-45.5 -24.5t-26 -42t-16.5 -68.5l-15 2q11 66 16 160q70 -6 169 -6q116 0 179 4l3 -11q-76 -118 -136 -215q-112 -180 -112 -196q0 -15 73 -15q89 0 121 27t51 124l15 -3q-14 -84 -18 -169
q-79 6 -157 6zM314 631q-56 -56 -121 -130l-10 7q45 86 78 158q11 24 31 24q16 0 25 -10t9 -23q0 -14 -12 -26z" />
    <glyph glyph-name="Zdotaccent" unicode="&#x17b;" horiz-adv-x="580" 
d="M280 0q-154 0 -245 -5l-4 14q119 182 219 348q110 182 173 293l-1 2q-55 4 -115 4q-77 0 -121 -7t-72.5 -29.5t-41 -52t-24.5 -87.5l-17 3q16 99 23 203q117 -12 245 -12q141 0 241 9l5 -13q-65 -102 -212 -342q-161 -263 -161 -291q0 -18 102 -18t153.5 17t75.5 56
t37 122l17 -2q-14 -118 -15 -222q-110 10 -262 10zM334 766q-15 -15 -37 -15t-37 15t-15 37t15 37t37 15t37 -15t15 -37t-15 -37z" />
    <glyph glyph-name="zdotaccent" unicode="&#x17c;" horiz-adv-x="439" 
d="M237 0q-102 0 -198 -4l-3 11q173 270 261 423l-1 1q-25 2 -84 2q-48 0 -76 -6t-45.5 -24.5t-26 -42t-16.5 -68.5l-15 2q11 66 16 160q70 -6 169 -6q116 0 179 4l3 -11q-76 -118 -136 -215q-112 -180 -112 -196q0 -15 73 -15q89 0 121 27t51 124l15 -3q-14 -84 -18 -169
q-79 6 -157 6zM261 556q-15 -15 -37 -15t-37 15t-15 37t15 37t37 15t37 -15t15 -37t-15 -37z" />
    <glyph glyph-name="Zcaron" unicode="&#x17d;" horiz-adv-x="580" 
d="M280 0q-154 0 -245 -5l-4 14q119 182 219 348q110 182 173 293l-1 2q-55 4 -115 4q-77 0 -121 -7t-72.5 -29.5t-41 -52t-24.5 -87.5l-17 3q16 99 23 203q117 -12 245 -12q141 0 241 9l5 -13q-65 -102 -212 -342q-161 -263 -161 -291q0 -18 102 -18t153.5 17t75.5 56
t37 122l17 -2q-14 -118 -15 -222q-110 10 -262 10zM288 747q-35 54 -112 138l8 8q66 -45 120 -91q54 46 120 91l8 -8q-77 -84 -112 -138q-7 -11 -16 -11t-16 11z" />
    <glyph glyph-name="zcaron" unicode="&#x17e;" horiz-adv-x="439" 
d="M237 0q-102 0 -198 -4l-3 11q173 270 261 423l-1 1q-25 2 -84 2q-48 0 -76 -6t-45.5 -24.5t-26 -42t-16.5 -68.5l-15 2q11 66 16 160q70 -6 169 -6q116 0 179 4l3 -11q-76 -118 -136 -215q-112 -180 -112 -196q0 -15 73 -15q89 0 121 27t51 124l15 -3q-14 -84 -18 -169
q-79 6 -157 6zM215 537q-35 54 -112 138l8 8q66 -45 120 -91q54 46 120 91l8 -8q-77 -84 -112 -138q-7 -11 -16 -11t-16 11z" />
    <glyph glyph-name="longs" unicode="&#x17f;" horiz-adv-x="321" 
d="M139 0q-30 0 -120 -3l-1 15q41 1 53.5 7t17.5 21q11 31 11 178q0 104 -4 144q-1 17 -7.5 22t-23.5 5q-11 0 -37 -3l-2 15q45 7 69 13q3 98 15 154.5t40 92.5q48 62 131 62q64 0 100 -35t36 -79q0 -30 -17.5 -51t-41.5 -21q-18 0 -28.5 11t-10.5 26q0 9 2 15q29 29 29 61
q0 26 -20 42t-51 16q-60 0 -84 -61q-12 -30 -16.5 -101.5t-4.5 -258.5q0 -196 7 -231q5 -25 20 -33.5t52 -10.5l-1 -15q-60 3 -113 3z" />
    <glyph glyph-name="florin" unicode="&#x192;" horiz-adv-x="518" 
d="M217 416h-44.5t-53 -0.5t-25.5 -0.5l-1 23q48 -2 131 -2q99 288 276 288q42 0 73.5 -24t31.5 -62q0 -25 -14 -41t-36 -16q-31 0 -35 26q10 16 10 38q0 23 -14 39t-42 16q-25 0 -45.5 -9t-37.5 -30t-29 -40.5t-25 -56.5t-20 -59.5t-20 -68.5q58 0 96 2l-1 -23
q-43 1 -101 1q-85 -270 -167 -437q-58 -117 -128 -187.5t-147 -70.5q-41 0 -68 23t-27 57q0 27 16 47t41 20q15 0 23.5 -8t7.5 -21q-15 -20 -15 -41t12 -36t36 -15q32 0 62 24t59 75t51 100.5t53 129.5q52 135 117 340z" />
    <glyph glyph-name="AEacute" unicode="&#x1fc;" horiz-adv-x="936" 
d="M77 0q-44 0 -104 -4l-1 16q50 4 76.5 22.5t53.5 61.5q115 183 316 536q-19 26 -76 32l1 16q141 -6 256 -6q132 0 234 11q3 -78 24 -166l-14 -4q-16 44 -27.5 66t-35 42.5t-59.5 28t-94 7.5q-27 0 -103 -4q4 -175 12 -283q38 -1 106 -1q24 0 40 5t25 10.5t15.5 21t8.5 25
t6 33.5l13 -1q-7 -58 -7 -106t7 -111l-13 -1q-3 24 -5 34t-6 25.5t-9.5 21.5t-15.5 13.5t-24 9.5t-34 2q-62 0 -105 -1q10 -217 28 -275q10 -33 31.5 -47t68.5 -14q94 0 145 49.5t84 147.5l14 -4q-36 -127 -53 -214q-75 5 -256 5q-147 0 -215 -4l-1 16q53 4 66 20t13 72
q0 44 -6 174h-220q-47 -78 -95 -167q-27 -49 -27 -70q0 -26 60 -29l-1 -16q-49 4 -97 4zM428 604l-179 -306h207q-8 180 -25 306h-3zM650 841q-56 -56 -121 -130l-10 7q45 86 78 158q11 24 31 24q16 0 25 -10t9 -23q0 -14 -12 -26z" />
    <glyph glyph-name="aeacute" unicode="&#x1fd;" horiz-adv-x="755" 
d="M532 -10q-69 0 -120 38t-78 103h-2q-48 -141 -163 -141q-55 0 -87.5 28.5t-32.5 75.5q0 74 79 115q49 26 123 26q33 0 73 -6q0 96 -17 138q-30 71 -99 71q-31 0 -51 -16t-20 -49t28 -69q0 -19 -14.5 -31.5t-33.5 -12.5q-21 0 -35 18.5t-14 48.5q0 57 47.5 94t113.5 37
q45 0 83 -19t58 -55h2q62 74 155 74q70 0 119 -41t56 -122l-3 -4h-293q-4 -25 -4 -54q0 -91 41.5 -157t113.5 -66q85 0 144 96l16 -11q-70 -109 -185 -109zM532 441q-50 0 -80.5 -38.5t-42.5 -96.5h210q1 12 1 25q0 47 -21.5 78.5t-66.5 31.5zM297 95q21 46 26 118
q-24 6 -50 6q-56 0 -93 -29q-44 -35 -44 -92q0 -37 19 -58.5t50 -21.5q56 0 92 77zM479 631q-56 -56 -121 -130l-10 7q45 86 78 158q11 24 31 24q16 0 25 -10t9 -23q0 -14 -12 -26z" />
    <glyph glyph-name="Oslashacute" unicode="&#x1fe;" horiz-adv-x="806" 
d="M211 38q-36 -51 -59 -86l-28 20q39 50 62 83q-126 98 -126 281q0 154 95 252.5t250 98.5q110 0 190 -51q36 51 59 86l28 -20q-39 -50 -62 -83q126 -98 126 -281q0 -154 -95 -252.5t-250 -98.5q-110 0 -190 51zM158 342q0 -136 67 -232l337 478q-71 79 -165 79
q-104 0 -171.5 -94t-67.5 -231zM648 332q0 136 -67 232l-337 -478q71 -79 165 -79q104 0 171.5 94t67.5 231zM484 841q-56 -56 -121 -130l-10 7q45 86 78 158q11 24 31 24q16 0 25 -10t9 -23q0 -14 -12 -26z" />
    <glyph glyph-name="oslashacute" unicode="&#x1ff;" 
d="M157 25q-23 -32 -63 -90l-24 18q44 55 67 86q-84 67 -84 185q0 103 65 168.5t170 65.5q76 0 131 -35q23 32 63 90l24 -18q-44 -55 -67 -86q84 -67 84 -185q0 -103 -65 -168.5t-170 -65.5q-76 0 -131 35zM138 222q0 -80 32 -138l221 301q-42 56 -105 56
q-69 0 -108.5 -63.5t-39.5 -155.5zM438 226q0 77 -33 137l-221 -301q42 -55 106 -55q69 0 108.5 63.5t39.5 155.5zM371 631q-56 -56 -121 -130l-10 7q45 86 78 158q11 24 31 24q16 0 25 -10t9 -23q0 -14 -12 -26z" />
    <glyph glyph-name="uni0218" unicode="&#x218;" horiz-adv-x="548" 
d="M59 121q0 46 -4 93l16 1q12 -96 67 -152.5t138 -56.5q64 0 109 33.5t45 93.5q0 26 -11 49t-24 38t-41 33t-45.5 27t-54.5 27q-45 22 -71.5 37.5t-59 41.5t-48 57.5t-15.5 69.5q0 75 59.5 124.5t152.5 49.5q40 0 100.5 -15.5t88.5 -18.5q0 -95 12 -169l-15 -2
q-15 85 -64.5 135.5t-128.5 50.5q-58 0 -97.5 -27.5t-39.5 -80.5q0 -24 10.5 -45.5t22.5 -35t40 -31.5t43 -25.5t52 -25.5q35 -17 55.5 -27.5t48 -27.5t43 -32t31 -35t22.5 -43.5t7 -50.5q0 -83 -64 -138.5t-174 -55.5q-42 0 -112 14t-98 18q4 52 4 102zM308 -201
q-21 -33 -62 -46l-5 11q67 26 67 98q0 12 -1 19h-2q-7 -30 -39 -30q-21 0 -36.5 13.5t-15.5 38.5q0 23 14 38.5t39 15.5q29 0 44.5 -23t15.5 -65q0 -41 -19 -70z" />
    <glyph glyph-name="uni0219" unicode="&#x219;" horiz-adv-x="422" 
d="M50 99q0 17 -2 57l13 1q8 -70 47.5 -110t102.5 -40q45 0 73.5 20t28.5 55q0 9 -1.5 16.5t-6 15t-8.5 13t-12.5 12t-14.5 10.5t-18.5 10.5t-20 10.5t-23 12t-24.5 12q-42 21 -66 36.5t-45 44t-21 62.5q0 52 41 86.5t117 34.5q64 0 140 -27q-2 -38 -2 -59q0 -32 3 -68
l-11 -1q-9 64 -46 101t-96 37q-41 0 -65 -17.5t-24 -50.5q0 -21 14 -38.5t30.5 -27t55.5 -28.5l18 -9q77 -38 112 -69t35 -81q0 -58 -46.5 -94t-129.5 -36q-72 0 -152 28q4 54 4 81zM260 -201q-21 -33 -62 -46l-5 11q67 26 67 98q0 12 -1 19h-2q-7 -30 -39 -30
q-21 0 -36.5 13.5t-15.5 38.5q0 23 14 38.5t39 15.5q29 0 44.5 -23t15.5 -65q0 -41 -19 -70z" />
    <glyph glyph-name="uni021A" unicode="&#x21a;" horiz-adv-x="635" 
d="M321 0q-95 0 -144 -4l-1 16q65 2 80 28q18 34 18 301q0 224 -9 314q-11 1 -30 1q-71 0 -121 -50.5t-74 -128.5l-14 4q29 101 35 212q107 -19 256 -19q150 0 257 19q6 -111 35 -212l-14 -4q-24 78 -74 128.5t-121 50.5q-19 0 -30 -1q-9 -95 -9 -316q0 -247 13 -286
q12 -37 81 -41l-1 -16q-76 4 -133 4zM356 -201q-21 -33 -62 -46l-5 11q67 26 67 98q0 12 -1 19h-2q-7 -30 -39 -30q-21 0 -36.5 13.5t-15.5 38.5q0 23 14 38.5t39 15.5q29 0 44.5 -23t15.5 -65q0 -41 -19 -70z" />
    <glyph glyph-name="uni021B" unicode="&#x21b;" horiz-adv-x="333" 
d="M242 14q35 0 73 40l11 -10q-48 -54 -114 -54t-97 49q-22 35 -22 117q0 25 2 107.5t2 150.5q-53 0 -73 -1v23q38 -2 73 -2q-2 71 -6 112q54 30 86 88l9 -2q-12 -86 -15 -198q58 0 124 2l-1 -23q-37 1 -123 1q-1 -35 -1 -122q0 -184 12 -226q14 -52 60 -52zM213 -201
q-21 -33 -62 -46l-5 11q67 26 67 98q0 12 -1 19h-2q-7 -30 -39 -30q-21 0 -36.5 13.5t-15.5 38.5q0 23 14 38.5t39 15.5q29 0 44.5 -23t15.5 -65q0 -41 -19 -70z" />
    <glyph glyph-name="uni0237" unicode="&#x237;" horiz-adv-x="268" 
d="M65 389q-14 0 -38 -3l-2 15q55 7 86.5 19t66.5 38l6 -4q-11 -101 -11 -262q0 -60 1.5 -143t1.5 -97q0 -124 -41 -173q-47 -58 -129 -58q-62 0 -95.5 35.5t-33.5 80.5q0 31 16 53.5t44 22.5q20 0 32.5 -11.5t12.5 -29.5q0 -15 -6 -24q-42 -19 -42 -58q0 -24 18 -39t50 -15
q69 0 86 85q11 54 11 279q0 218 -4 262q-1 17 -7.5 22t-22.5 5z" />
    <glyph glyph-name="circumflex" unicode="&#x2c6;" 
d="M288 617q-54 -46 -120 -91l-8 8q77 84 112 138q7 11 16 11t16 -11q35 -54 112 -138l-8 -8q-66 45 -120 91z" />
    <glyph glyph-name="caron" unicode="&#x2c7;" 
d="M272 537q-35 54 -112 138l8 8q66 -45 120 -91q54 46 120 91l8 -8q-77 -84 -112 -138q-7 -11 -16 -11t-16 11z" />
    <glyph glyph-name="breve" unicode="&#x2d8;" 
d="M408 657q-5 -59 -38 -94.5t-82 -35.5t-82 35.5t-38 94.5l11 3q29 -88 109 -88t109 88z" />
    <glyph glyph-name="dotaccent" unicode="&#x2d9;" 
d="M325 556q-15 -15 -37 -15t-37 15t-15 37t15 37t37 15t37 -15t15 -37t-15 -37z" />
    <glyph glyph-name="ring" unicode="&#x2da;" 
d="M383 600q0 -38 -27.5 -63.5t-67.5 -25.5t-67.5 25.5t-27.5 63.5q0 37 27.5 62.5t67.5 25.5t67.5 -25.5t27.5 -62.5zM246 547q16 -22 42 -22t42 22t16 53t-16 52.5t-42 21.5t-42 -21.5t-16 -52.5t16 -53z" />
    <glyph glyph-name="ogonek" unicode="&#x2db;" 
d="M167 -181q0 61 64 115.5t161 80.5l4 -14q-70 -18 -112.5 -72.5t-42.5 -111.5q0 -37 19 -60t50 -23q32 0 51 21.5t26 44.5q4 4 9 4q13 0 13 -15q0 -21 -28.5 -44.5t-82.5 -23.5q-55 0 -93 25.5t-38 72.5z" />
    <glyph glyph-name="tilde" unicode="&#x2dc;" horiz-adv-x="577" 
d="M204 588q-39 0 -50 -57l-10 1q11 103 76 103q28 0 77 -29.5t76 -29.5q39 0 50 57l10 -1q-11 -103 -76 -103q-28 0 -77 29.5t-76 29.5z" />
    <glyph glyph-name="hungarumlaut" unicode="&#x2dd;" horiz-adv-x="540" 
d="M421 631q-51 -50 -123 -131l-9 7q60 105 86 159q11 23 31 23q12 0 20.5 -9t8.5 -21q0 -14 -14 -28zM290 631q-51 -50 -123 -131l-9 7q60 105 86 159q12 23 31 23q12 0 20.5 -9t8.5 -21q0 -14 -14 -28z" />
    <glyph glyph-name="pi" unicode="&#x3c0;" horiz-adv-x="555" 
d="M112 -12q-76 0 -83 116l12 1q5 -25 21 -36t35 -11q70 0 90 91q9 43 9 89q0 72 -17 157q-28 3 -52 3q-41 0 -63 -15t-41 -51l-11 4q32 139 139 139q44 0 150.5 -13t142.5 -13q16 0 26.5 1t23 5t20 13t10.5 24l11 -1q0 -118 -102 -118q-7 0 -17 1q-3 -74 -3 -175
q0 -77 4 -114q9 -75 45 -75q24 0 40.5 26t21.5 69l15 -2q-13 -115 -91 -115q-31 0 -58 20.5t-39 57.5q-14 42 -14 122q0 130 2 192q-25 2 -73.5 7t-69.5 7q19 -95 19 -187q0 -219 -103 -219z" />
    <glyph glyph-name="Wgrave" unicode="&#x1e80;" horiz-adv-x="1095" 
d="M249 473q70 -190 129 -338h3q73 186 151 398q-20 48 -34 76q-15 31 -33.5 41t-57.5 12l1 16q57 -4 124 -4q80 0 136 4l1 -16q-39 -3 -53 -9t-14 -25q0 -25 48 -155q70 -190 129 -338h3q73 186 129 338q47 128 47 155q0 18 -13.5 24.5t-52.5 9.5l1 16q49 -4 95 -4
q43 0 100 4l1 -16q-41 -2 -59 -11.5t-34 -41.5q-17 -32 -113 -276q-83 -210 -131 -343q-3 -7 -5 -7t-5 7q-79 217 -195 506h-2q-100 -255 -194 -506q-3 -7 -5 -7t-5 7q-63 169 -131 344q-91 233 -112 275q-16 31 -34 41t-58 12l1 16q57 -4 124 -4q80 0 136 4l1 -16
q-39 -3 -53 -9t-14 -25q0 -25 48 -155zM497 876q33 -72 78 -158l-10 -7q-65 74 -121 130q-12 12 -12 26q0 13 9 23t25 10q20 0 31 -24z" />
    <glyph glyph-name="wgrave" unicode="&#x1e81;" horiz-adv-x="777" 
d="M179 351q32 -91 99 -248h1q35 90 96 256q-20 47 -41 85l1 5q27 -1 69 -1q40 0 107 3l1 -15q-63 0 -63 -30q0 -15 14 -55q32 -91 99 -248h1q52 136 86 229q23 63 23 78q0 13 -13.5 19t-48.5 7l1 15q44 -3 85 -3q32 0 74 3l2 -15q-35 -2 -52 -10.5t-26 -33.5
q-80 -203 -153 -401q-3 -7 -6 -7q-4 0 -7 6q-3 8 -25.5 62.5t-55.5 134.5t-60 144h-1q-43 -110 -129 -340q-3 -7 -6 -7q-4 0 -7 6q-2 4 -30.5 74t-66 160.5t-66.5 157.5q-8 19 -14.5 28.5t-22 17.5t-40.5 8l1 15q52 -3 100 -3q66 0 122 3l1 -15q-63 0 -63 -30q0 -15 14 -55z
M362 666q33 -72 78 -158l-10 -7q-65 74 -121 130q-12 12 -12 26q0 13 9 23t25 10q20 0 31 -24z" />
    <glyph glyph-name="Wacute" unicode="&#x1e82;" horiz-adv-x="1095" 
d="M249 473q70 -190 129 -338h3q73 186 151 398q-20 48 -34 76q-15 31 -33.5 41t-57.5 12l1 16q57 -4 124 -4q80 0 136 4l1 -16q-39 -3 -53 -9t-14 -25q0 -25 48 -155q70 -190 129 -338h3q73 186 129 338q47 128 47 155q0 18 -13.5 24.5t-52.5 9.5l1 16q49 -4 95 -4
q43 0 100 4l1 -16q-41 -2 -59 -11.5t-34 -41.5q-17 -32 -113 -276q-83 -210 -131 -343q-3 -7 -5 -7t-5 7q-79 217 -195 506h-2q-100 -255 -194 -506q-3 -7 -5 -7t-5 7q-63 169 -131 344q-91 233 -112 275q-16 31 -34 41t-58 12l1 16q57 -4 124 -4q80 0 136 4l1 -16
q-39 -3 -53 -9t-14 -25q0 -25 48 -155zM669 841q-56 -56 -121 -130l-10 7q45 86 78 158q11 24 31 24q16 0 25 -10t9 -23q0 -14 -12 -26z" />
    <glyph glyph-name="wacute" unicode="&#x1e83;" horiz-adv-x="777" 
d="M179 351q32 -91 99 -248h1q35 90 96 256q-20 47 -41 85l1 5q27 -1 69 -1q40 0 107 3l1 -15q-63 0 -63 -30q0 -15 14 -55q32 -91 99 -248h1q52 136 86 229q23 63 23 78q0 13 -13.5 19t-48.5 7l1 15q44 -3 85 -3q32 0 74 3l2 -15q-35 -2 -52 -10.5t-26 -33.5
q-80 -203 -153 -401q-3 -7 -6 -7q-4 0 -7 6q-3 8 -25.5 62.5t-55.5 134.5t-60 144h-1q-43 -110 -129 -340q-3 -7 -6 -7q-4 0 -7 6q-2 4 -30.5 74t-66 160.5t-66.5 157.5q-8 19 -14.5 28.5t-22 17.5t-40.5 8l1 15q52 -3 100 -3q66 0 122 3l1 -15q-63 0 -63 -30q0 -15 14 -55z
M504 631q-56 -56 -121 -130l-10 7q45 86 78 158q11 24 31 24q16 0 25 -10t9 -23q0 -14 -12 -26z" />
    <glyph glyph-name="Wdieresis" unicode="&#x1e84;" horiz-adv-x="1095" 
d="M249 473q70 -190 129 -338h3q73 186 151 398q-20 48 -34 76q-15 31 -33.5 41t-57.5 12l1 16q57 -4 124 -4q80 0 136 4l1 -16q-39 -3 -53 -9t-14 -25q0 -25 48 -155q70 -190 129 -338h3q73 186 129 338q47 128 47 155q0 18 -13.5 24.5t-52.5 9.5l1 16q49 -4 95 -4
q43 0 100 4l1 -16q-41 -2 -59 -11.5t-34 -41.5q-17 -32 -113 -276q-83 -210 -131 -343q-3 -7 -5 -7t-5 7q-79 217 -195 506h-2q-100 -255 -194 -506q-3 -7 -5 -7t-5 7q-63 169 -131 344q-91 233 -112 275q-16 31 -34 41t-58 12l1 16q57 -4 124 -4q80 0 136 4l1 -16
q-39 -3 -53 -9t-14 -25q0 -25 48 -155zM628 848q20 0 34.5 -14.5t14.5 -33.5t-14.5 -33.5t-34.5 -14.5q-19 0 -33 14.5t-14 33.5t14 33.5t33 14.5zM464 848q20 0 34.5 -14.5t14.5 -33.5t-14.5 -33.5t-34.5 -14.5q-19 0 -33 14.5t-14 33.5t14 33.5t33 14.5z" />
    <glyph glyph-name="wdieresis" unicode="&#x1e85;" horiz-adv-x="777" 
d="M179 351q32 -91 99 -248h1q35 90 96 256q-20 47 -41 85l1 5q27 -1 69 -1q40 0 107 3l1 -15q-63 0 -63 -30q0 -15 14 -55q32 -91 99 -248h1q52 136 86 229q23 63 23 78q0 13 -13.5 19t-48.5 7l1 15q44 -3 85 -3q32 0 74 3l2 -15q-35 -2 -52 -10.5t-26 -33.5
q-80 -203 -153 -401q-3 -7 -6 -7q-4 0 -7 6q-3 8 -25.5 62.5t-55.5 134.5t-60 144h-1q-43 -110 -129 -340q-3 -7 -6 -7q-4 0 -7 6q-2 4 -30.5 74t-66 160.5t-66.5 157.5q-8 19 -14.5 28.5t-22 17.5t-40.5 8l1 15q52 -3 100 -3q66 0 122 3l1 -15q-63 0 -63 -30q0 -15 14 -55z
M483 638q20 0 34.5 -14.5t14.5 -33.5t-14.5 -33.5t-34.5 -14.5q-19 0 -33 14.5t-14 33.5t14 33.5t33 14.5zM319 638q20 0 34.5 -14.5t14.5 -33.5t-14.5 -33.5t-34.5 -14.5q-19 0 -33 14.5t-14 33.5t14 33.5t33 14.5z" />
    <glyph glyph-name="Ygrave" unicode="&#x1ef2;" horiz-adv-x="627" 
d="M315 0q-88 0 -137 -4l-1 16q66 2 80 28q18 35 18 283q-129 216 -185 291q-21 27 -38 36t-54 12l1 16q55 -4 124 -4q53 0 135 4l1 -16q-64 -5 -64 -27q0 -20 42 -92q39 -68 112 -179q81 131 122 206q26 47 26 63q0 15 -16 20.5t-49 8.5l1 16q56 -4 104 -4q39 0 92 4l1 -16
q-53 -6 -66 -15q-14 -9 -35 -37q-45 -62 -167 -265q0 -253 13 -292q12 -37 81 -41l-1 -16q-76 4 -140 4zM274 876q33 -72 78 -158l-10 -7q-65 74 -121 130q-12 12 -12 26q0 13 9 23t25 10q20 0 31 -24z" />
    <glyph glyph-name="ygrave" unicode="&#x1ef3;" horiz-adv-x="521" 
d="M176 345q61 -136 121 -252h1q36 80 97 233q27 67 27 86q0 12 -14 17t-48 7l1 15q41 -3 83 -3q34 0 78 3l1 -15q-35 -2 -50 -10t-26 -32q-96 -219 -164 -382q-54 -128 -75 -166q-58 -103 -124 -103q-28 0 -46.5 15.5t-18.5 39.5q0 37 41 46q37 -30 65 -30q33 0 60 37.5
t74 147.5q-84 171 -194 389q-13 27 -28.5 36t-50.5 12l1 15q36 -3 106 -3q78 0 120 3l1 -15q-59 0 -59 -28q0 -15 21 -63zM229 666q33 -72 78 -158l-10 -7q-65 74 -121 130q-12 12 -12 26q0 13 9 23t25 10q20 0 31 -24z" />
    <glyph glyph-name="endash" unicode="&#x2013;" horiz-adv-x="606" 
d="M297 272q-110 0 -191 -3v24q53 -2 186 -2q112 0 208 5v-28q-91 4 -203 4z" />
    <glyph glyph-name="emdash" unicode="&#x2014;" horiz-adv-x="654" 
d="M295 272q-137 0 -248 -3v24q73 -2 260 -2q165 0 300 5v-28q-114 4 -312 4z" />
    <glyph glyph-name="quoteleft" unicode="&#x2018;" horiz-adv-x="322" 
d="M118 607q0 -14 1 -22h2q4 15 17.5 25t31.5 10q24 0 40.5 -16.5t16.5 -43.5q0 -26 -15.5 -44t-43.5 -18q-34 0 -53.5 28t-19.5 71q0 50 23 86q25 39 78 57l5 -12q-83 -30 -83 -121z" />
    <glyph glyph-name="quoteright" unicode="&#x2019;" horiz-adv-x="322" 
d="M204 548q-25 -39 -78 -57l-5 12q83 30 83 121q0 14 -1 22h-2q-4 -15 -17.5 -25t-31.5 -10q-24 0 -40.5 16.5t-16.5 43.5q0 26 15.5 44t43.5 18q34 0 53.5 -28t19.5 -71q0 -50 -23 -86z" />
    <glyph glyph-name="quotesinglbase" unicode="&#x201a;" horiz-adv-x="322" 
d="M204 -77q-25 -39 -78 -57l-5 12q83 30 83 121q0 14 -1 22h-2q-4 -15 -17.5 -25t-31.5 -10q-24 0 -40.5 16.5t-16.5 43.5q0 26 15.5 44t43.5 18q34 0 53.5 -28t19.5 -71q0 -50 -23 -86z" />
    <glyph glyph-name="quotedblleft" unicode="&#x201c;" horiz-adv-x="362" 
d="M215 625q0 -12 1 -19h2q7 30 39 30q20 0 36 -14t16 -39q0 -23 -14.5 -39t-38.5 -16q-28 0 -44 23.5t-16 63.5q0 44 19 74q23 37 70 50l4 -11q-74 -25 -74 -103zM72 625q0 -12 1 -19h2q7 30 39 30q20 0 36 -14t16 -39q0 -23 -14.5 -39t-38.5 -16q-28 0 -44 23.5t-16 63.5
q0 44 19 74q23 37 70 50l4 -11q-74 -25 -74 -103z" />
    <glyph glyph-name="quotedblright" unicode="&#x201d;" horiz-adv-x="362" 
d="M290 569q-23 -37 -70 -50l-4 11q74 25 74 103q0 12 -1 19h-2q-7 -30 -39 -30q-20 0 -36 14t-16 39q0 23 14.5 39t38.5 16q28 0 44 -23.5t16 -63.5q0 -44 -19 -74zM147 569q-23 -37 -70 -50l-4 11q74 25 74 103q0 12 -1 19h-2q-7 -30 -39 -30q-20 0 -36 14t-16 39
q0 23 14.5 39t38.5 16q28 0 44 -23.5t16 -63.5q0 -44 -19 -74z" />
    <glyph glyph-name="quotedblbase" unicode="&#x201e;" horiz-adv-x="362" 
d="M290 -64q-23 -37 -70 -50l-4 11q74 25 74 103q0 12 -1 19h-2q-7 -30 -39 -30q-20 0 -36 14t-16 39q0 23 14.5 39t38.5 16q28 0 44 -23.5t16 -63.5q0 -44 -19 -74zM147 -64q-23 -37 -70 -50l-4 11q74 25 74 103q0 12 -1 19h-2q-7 -30 -39 -30q-20 0 -36 14t-16 39
q0 23 14.5 39t38.5 16q28 0 44 -23.5t16 -63.5q0 -44 -19 -74z" />
    <glyph glyph-name="dagger" unicode="&#x2020;" horiz-adv-x="633" 
d="M344 204q0 -153 -42 -289l-11 3q10 36 10 81q0 111 -49 211q56 133 56 261q0 24 -1 36q-36 -5 -85.5 -18.5t-64.5 -13.5q-21 0 -35.5 12t-14.5 30q0 16 11.5 27t31.5 12q25 -19 48.5 -28.5t64.5 -9.5q29 0 43 3q-2 44 -10.5 95t-8.5 62q0 22 11.5 36.5t33.5 14.5
q20 0 34 -12t14 -33q-54 -46 -54 -161q36 5 85.5 18.5t64.5 13.5q21 0 35.5 -12t14.5 -30q0 -16 -11.5 -27t-31.5 -12q-25 19 -48.5 28.5t-64.5 9.5q-29 0 -43 -3q0 -27 8.5 -135t8.5 -170z" />
    <glyph glyph-name="daggerdbl" unicode="&#x2021;" horiz-adv-x="633" 
d="M301 -85q-19 0 -33.5 12t-14.5 33q54 46 54 166q-36 -5 -85.5 -18.5t-64.5 -13.5q-21 0 -35.5 12t-14.5 30q0 16 11.5 27t31.5 12q25 -19 48.5 -28.5t64.5 -9.5q23 0 44 2q-1 42 -15 95.5t-14 84.5t13.5 87.5t14.5 95.5q-36 -5 -85 -18.5t-64 -13.5q-21 0 -35.5 12
t-14.5 30q0 16 11.5 27t31.5 12q25 -19 48.5 -28.5t64.5 -9.5q22 0 43 3q-1 37 -10 94.5t-9 68.5q0 21 11.5 35.5t33.5 14.5q20 0 34 -12t14 -33q-54 -46 -54 -166q36 5 85.5 18.5t64.5 13.5q21 0 35.5 -12t14.5 -30q0 -16 -11.5 -27t-31.5 -12q-25 19 -48.5 28.5t-64.5 9.5
q-23 0 -44 -2q1 -42 15 -95.5t14 -84.5t-13.5 -87.5t-14.5 -95.5q36 5 85 18.5t64 13.5q21 0 35.5 -12t14.5 -30q0 -16 -11.5 -27t-31.5 -12q-25 19 -48.5 28.5t-64.5 9.5q-22 0 -43 -3q1 -37 10 -94.5t9 -68.5q0 -21 -11.5 -35.5t-33.5 -14.5z" />
    <glyph glyph-name="bullet" unicode="&#x2022;" horiz-adv-x="391" 
d="M285 315q0 -36 -27 -62.5t-63 -26.5t-62.5 26.5t-26.5 62.5q0 37 26.5 63.5t62.5 26.5t63 -26.5t27 -63.5z" />
    <glyph glyph-name="ellipsis" unicode="&#x2026;" horiz-adv-x="761" 
d="M588 -12q-22 0 -39 17t-17 39q0 23 16.5 39.5t39.5 16.5t40 -16.5t17 -39.5q0 -22 -17 -39t-40 -17zM380 -12q-22 0 -39 17t-17 39q0 23 16.5 39.5t39.5 16.5t40 -16.5t17 -39.5q0 -22 -17 -39t-40 -17zM172 -12q-22 0 -39 17t-17 39q0 23 16.5 39.5t39.5 16.5t40 -16.5
t17 -39.5q0 -22 -17 -39t-40 -17z" />
    <glyph glyph-name="perthousand" unicode="&#x2030;" horiz-adv-x="948" 
d="M300 511q0 -58 -36 -95t-88 -37t-88 36.5t-36 94.5q0 57 36 94t88 37t88 -36.5t36 -93.5zM176 628q-34 0 -54.5 -32t-20.5 -86t21 -86t54 -32q34 0 54.5 32t20.5 86t-21 86t-54 32zM317 302q-131 -185 -202 -291l-23 16q95 130 216 300q131 185 202 291l23 -16
q-95 -130 -216 -300zM896 119q0 -58 -36 -95t-88 -37t-88 36.5t-36 94.5q0 57 36 94t88 37t88 -36.5t36 -93.5zM573 119q0 -58 -36 -95t-88 -37t-88 36.5t-36 94.5q0 57 36 94t88 37t88 -36.5t36 -93.5zM772 236q-34 0 -54.5 -32t-20.5 -86t21 -86t54 -32q34 0 54.5 32
t20.5 86t-21 86t-54 32zM449 236q-34 0 -54.5 -32t-20.5 -86t21 -86t54 -32q34 0 54.5 32t20.5 86t-21 86t-54 32z" />
    <glyph glyph-name="guilsinglleft" unicode="&#x2039;" horiz-adv-x="278" 
d="M111 226q29 -40 114 -162l-13 -9q-69 74 -176 167q90 77 177 171l11 -9q-61 -89 -113 -158z" />
    <glyph glyph-name="guilsinglright" unicode="&#x203a;" horiz-adv-x="278" 
d="M242 226q-90 -77 -177 -171l-11 9q61 89 113 158q-29 40 -114 162l13 9q69 -74 176 -167z" />
    <glyph glyph-name="fraction" unicode="&#x2044;" horiz-adv-x="189" 
d="M103 330q-122 -205 -203 -347l-26 16q89 138 212 344q102 171 203 348l26 -16q-152 -244 -212 -345z" />
    <glyph glyph-name="Euro" unicode="&#x20ac;" horiz-adv-x="611" 
d="M108 284q-17 0 -49 -0.5t-48 -0.5v20q64 -2 96 -2q-1 10 -1 30q0 35 4 63q-15 0 -47.5 -0.5t-52.5 -0.5v20q70 -2 102 -2q20 119 93.5 197.5t181.5 78.5q75 0 127.5 -36.5t52.5 -82.5q0 -21 -12 -34.5t-30 -13.5q-29 0 -42 16q1 7 1 24q0 48 -31 78t-81 30
q-76 0 -117.5 -71.5t-51.5 -185.5q137 0 231 5v-23q-61 1 -232 1q-2 -34 -2 -53q0 -27 1 -40q139 0 234 5v-23q-65 1 -233 1q4 -58 16 -107t32.5 -88t53.5 -61.5t75 -22.5q51 0 79.5 32t28.5 78q0 17 -3 32q18 16 39 16t33 -14.5t12 -35.5q0 -47 -56.5 -86.5t-132.5 -39.5
q-109 0 -183.5 84.5t-87.5 212.5z" />
    <glyph glyph-name="uni2113" unicode="&#x2113;" horiz-adv-x="419" 
d="M102 190q-43 -43 -48 -46l-33 57q56 52 80 77v258q0 102 40.5 158t103.5 56q52 0 83.5 -41.5t31.5 -111.5q0 -159 -159 -330v-66q0 -76 14.5 -106t48.5 -30q38 0 86 55l37 -48q-60 -86 -146 -86q-70 0 -104.5 45.5t-34.5 123.5v35zM246 676q-20 0 -32.5 -33t-12.5 -99
v-181q85 115 85 234q0 79 -40 79z" />
    <glyph glyph-name="uni2117" unicode="&#x2117;" horiz-adv-x="792" 
d="M646 87q-99 -100 -250 -100t-250 99.5t-99 250.5t99 251t250 100t250 -99.5t99 -250.5t-99 -251zM163 102.5q93 -94.5 233 -94.5t233 94t93 235t-93 235.5t-233 94.5t-233 -94t-93 -235t93 -235.5zM316 120q-58 0 -93 -3l-1 14q41 0 50 15q14 23 14 179q0 117 -5 157
q-4 31 -12 39.5t-42 15.5l3 12q37 -5 61 -5q26 0 73 7.5t70 7.5q61 0 107 -32t46 -97q0 -61 -39.5 -96t-92.5 -35q-54 0 -91 39l7 7q32 -28 70 -28q34 0 56 27.5t22 81.5t-24 85.5t-72 31.5q-28 0 -71 -9q-4 -63 -4 -202q0 -154 9 -177q8 -22 50 -24l-1 -14q-36 3 -90 3z
" />
    <glyph glyph-name="trademark" unicode="&#x2122;" horiz-adv-x="804" 
d="M182 339q-34 0 -76 -3l-1 12q34 2 42 13q6 8 7.5 33t1.5 114q0 118 -3 151q-50 0 -75.5 -23.5t-38.5 -65.5l-11 3q15 53 18 109q60 -10 135 -10q77 0 134 10q2 -44 19 -109l-11 -3q-28 89 -113 89q-5 -45 -5 -162q0 -114 7 -130t43 -19l-1 -12q-39 3 -72 3zM372 339
q-22 0 -59 -3l-1 12q26 1 37.5 10t15.5 32q6 36 16 119q11 93 11 127q0 9 -2 14t-11.5 10t-28.5 6l1 12q24 -2 93 -2q44 -118 102 -258h1q31 78 97 258q71 0 95 2l1 -12q-26 -1 -34 -8t-8 -24q0 -23 11 -122t19 -131q5 -18 14.5 -25t33.5 -8l-1 -12q-42 3 -76 3
q-41 0 -70 -3l-1 12q26 2 34.5 7.5t8.5 25.5q0 23 -11 125q-5 60 -16 126h-1q-49 -124 -110 -292q-2 -5 -5 -5q-4 0 -6 5q-58 152 -112 287h-1q-6 -51 -13 -119q-11 -106 -11 -123q0 -22 8 -28.5t35 -8.5l-1 -12q-27 3 -55 3z" />
    <glyph glyph-name="uni2126" unicode="&#x2126;" horiz-adv-x="710" 
d="M76 -5q-5 98 -21 173l15 4q17 -66 40.5 -80.5t92.5 -14.5q46 0 54.5 9.5t8.5 62.5q-95 22 -153.5 95.5t-58.5 166.5q0 115 86.5 195.5t219.5 80.5q128 0 211 -77t83 -191q0 -94 -58.5 -168t-153.5 -102q0 -53 8.5 -62.5t54.5 -9.5q69 0 93 14.5t43 80.5l15 -4
q-20 -79 -27 -173q-67 5 -119 5q-61 0 -95 -3q8 80 8 163q65 28 100.5 97.5t35.5 151.5q0 106 -55.5 182.5t-152.5 76.5q-96 0 -149 -75.5t-53 -177.5q0 -83 36 -152.5t100 -102.5q0 -83 8 -163q-34 3 -103 3q-61 0 -114 -5z" />
    <glyph glyph-name="estimated" unicode="&#x212e;" horiz-adv-x="746" 
d="M203 300q-25 0 -28.5 -4t-3.5 -28v-131q0 -41 35.5 -71t80.5 -42.5t87 -12.5q73 0 137 30t106 88l33 -7q-102 -139 -277 -139q-143 0 -238.5 93.5t-95.5 228.5q0 136 95.5 229.5t238.5 93.5q139 0 237 -85t98 -211q0 -24 -3.5 -28t-28.5 -4h-473zM171 360q0 -24 3.5 -28
t28.5 -4h342q25 0 28.5 4t3.5 28v125q0 48 -59.5 81.5t-143.5 33.5t-143.5 -33.5t-59.5 -81.5v-125z" />
    <glyph glyph-name="partialdiff" unicode="&#x2202;" horiz-adv-x="574" 
d="M167 689q-51 0 -86 -19l-6 10q65 47 141 47q120 0 197 -97q51 -65 74 -154t23 -166q0 -60 -14.5 -115.5t-42 -102t-73.5 -74.5t-104 -28q-94 0 -155 65.5t-61 158.5q0 96 64 170t163 74q87 0 135 -57l2 1q-21 111 -75 190q-67 97 -182 97zM145 234q0 -38 8 -75t24 -71.5
t45.5 -56t67.5 -21.5q68 0 103 61t35 143q0 38 -8 75t-24 71.5t-45.5 56t-67.5 21.5q-68 0 -103 -61t-35 -143z" />
    <glyph glyph-name="uni2206" unicode="&#x2206;" horiz-adv-x="640" 
d="M323 0q-147 0 -293 -3l-10 16q162 392 266 655q42 7 65 16l5 -3q104 -276 264 -668l-7 -16q-145 3 -290 3zM513 57q-88 235 -217 553h-5q-125 -296 -224 -553q74 -2 223 -2q148 0 223 2z" />
    <glyph glyph-name="product" unicode="&#x220f;" horiz-adv-x="837" 
d="M190 -245q-75 0 -132 -3l-1 16q44 1 59 7t22 23q10 26 13.5 109t3.5 306t-3.5 303.5t-15.5 106.5q-10 22 -27 28.5t-54 10.5l2 16q121 -6 357 -6q252 0 367 5l1 -16q-62 -1 -76 -23q-14 -20 -17.5 -98t-3.5 -317q0 -355 11 -405q6 -25 21.5 -36t61.5 -14l-1 -16
q-60 3 -133 3q-75 0 -132 -3l-1 16q44 1 59 7t22 23q10 26 13.5 108.5t3.5 300.5q0 369 -15 408q-8 21 -42 29.5t-138 8.5q-96 0 -128.5 -7.5t-40.5 -25.5q-10 -23 -13 -107t-3 -324q0 -321 11 -371q6 -25 21.5 -36t61.5 -14l-1 -16q-60 3 -133 3z" />
    <glyph glyph-name="summation" unicode="&#x2211;" horiz-adv-x="593" 
d="M238 -121q-123 0 -226 -4l-3 14q110 154 266 389q-103 166 -250 392l3 11q83 -9 247 -9q118 0 220 11q4 -79 27 -166l-14 -4q-29 79 -65.5 107t-133.5 28q-95 0 -159 -4q92 -151 191 -303v-8q-175 -255 -252 -372q77 -10 258 -10q44 0 73 6.5t47 15.5t31 32t19 42t16 60
l14 -2q-17 -124 -21 -234q-129 8 -288 8z" />
    <glyph glyph-name="minus" unicode="&#x2212;" horiz-adv-x="644" 
d="M321 315q-129 0 -215 -3v29q86 -3 216 -3t216 3v-29q-87 3 -217 3z" />
    <glyph glyph-name="radical" unicode="&#x221a;" horiz-adv-x="644" 
d="M189 551q99 -217 212 -439h1q102 329 219 727l30 -9q-147 -465 -256 -829q-9 -27 -12 -27q-4 0 -12 18q-191 393 -236 466q-14 21 -25.5 29.5t-33.5 8.5q-19 0 -47 -5l-4 17q83 12 164 43z" />
    <glyph glyph-name="infinity" unicode="&#x221e;" horiz-adv-x="749" 
d="M529 81q-88 0 -167 102q-73 -102 -164 -102q-62 0 -103.5 38.5t-41.5 95.5q0 61 48 104t117 43q89 0 168 -103q74 103 163 103q63 0 105 -38.5t42 -95.5q0 -61 -48 -104t-119 -43zM214 108q75 0 136 91q-33 44 -47 61.5t-35.5 40t-38 29.5t-36.5 7q-39 0 -61 -27.5
t-22 -73.5q0 -53 28.5 -90.5t75.5 -37.5zM534 335q-76 0 -136 -92q31 -42 45.5 -60.5t36 -40t39 -29.5t38.5 -8q38 0 60 27.5t22 73.5q0 54 -29 91.5t-76 37.5z" />
    <glyph glyph-name="integral" unicode="&#x222b;" horiz-adv-x="451" 
d="M56 -15q23 0 39 -20q-2 -16 -2 -27q0 -66 48 -66q69 0 69 165q0 43 -3.5 94t-10 120t-8.5 100q-12 150 -12 230q0 53 7 99t23 88.5t47 67t74 24.5q46 0 77 -24.5t31 -62.5q0 -23 -11.5 -35t-28.5 -12q-23 0 -39 20q2 16 2 27q0 66 -48 66q-69 0 -69 -165q0 -43 3.5 -94
t10 -120t8.5 -100q12 -150 12 -230q0 -53 -7 -99t-23 -88.5t-47 -67t-74 -24.5q-46 0 -77 24.5t-31 62.5q0 23 11.5 35t28.5 12z" />
    <glyph glyph-name="approxequal" unicode="&#x2248;" horiz-adv-x="617" 
d="M198 419q-45 0 -66 -62l-26 10q26 77 93 77q37 0 109 -35q82 -40 111 -40q45 0 66 62l26 -10q-26 -77 -93 -77q-37 0 -109 35q-82 40 -111 40zM198 305q-45 0 -66 -62l-26 10q26 77 93 77q37 0 109 -35q82 -40 111 -40q45 0 66 62l26 -10q-26 -77 -93 -77q-37 0 -109 35
q-82 40 -111 40z" />
    <glyph glyph-name="notequal" unicode="&#x2260;" horiz-adv-x="644" 
d="M291 259q-36 -63 -78 -144l-23 13q47 81 75 131q-87 0 -159 -3v29q77 -3 172 -3l62 111q-148 0 -234 -3v29q85 -3 247 -3q36 63 78 144l23 -13q-47 -81 -75 -131q87 0 159 3v-29q-76 3 -172 3l-62 -111q148 0 234 3v-29q-85 3 -247 3z" />
    <glyph glyph-name="lessequal" unicode="&#x2264;" horiz-adv-x="644" 
d="M321 1q-129 0 -215 -3v29q86 -3 216 -3t216 3v-29q-87 3 -217 3zM527 138q-246 104 -421 175l1 21q167 67 419 174l12 -27q-239 -93 -394 -157q173 -71 394 -158z" />
    <glyph glyph-name="greaterequal" unicode="&#x2265;" horiz-adv-x="644" 
d="M321 1q-129 0 -215 -3v29q86 -3 216 -3t216 3v-29q-87 3 -217 3zM537 312q-167 -67 -419 -174l-12 27q239 93 394 157q-173 71 -394 158l11 28q246 -104 421 -175z" />
    <glyph glyph-name="lozenge" unicode="&#x25ca;" horiz-adv-x="626" 
d="M334 -8q-26 -7 -44 -15l-5 1q-87 183 -179 343q100 163 186 361q26 7 44 15l5 -1q87 -183 179 -343q-100 -163 -186 -361zM160 362q87 -149 169 -315h3q67 143 134 265q-87 149 -169 315h-3q-67 -143 -134 -265z" />
    <glyph glyph-name="uniF6C3" unicode="&#xf6c3;" horiz-adv-x="0" 
d="M-251 -201q-21 -33 -62 -46l-5 11q67 26 67 98q0 12 -1 19h-2q-7 -30 -39 -30q-21 0 -36.5 13.5t-15.5 38.5q0 23 14 38.5t39 15.5q29 0 44.5 -23t15.5 -65q0 -41 -19 -70z" />
    <glyph glyph-name="longs_t" unicode="&#xfb05;" horiz-adv-x="600" 
d="M139 0q-30 0 -120 -3l-1 15q41 1 54 7.5t17 20.5q11 35 11 177q0 105 -4 145q-1 17 -7.5 22t-23.5 5q-11 0 -37 -3l-2 15q45 7 69 13q3 98 15 154.5t40 92.5q48 62 131 62q49 0 85 -22t52 -62q20 -52 20 -205q58 0 124 2l-1 -23q-37 1 -123 1q-1 -35 -1 -122
q0 -184 12 -226q14 -52 60 -52q35 0 73 40l11 -10q-48 -54 -114 -54q-65 0 -97 49q-22 35 -22 117q0 25 2 107.5t2 150.5q-53 0 -73 -1v23q38 -2 73 -2q0 170 -12 216q-16 58 -73 58q-60 0 -84 -61q-12 -30 -16.5 -101.5t-4.5 -258.5q0 -196 7 -231q5 -25 20 -33.5t52 -10.5
l-1 -15q-60 3 -113 3z" />
    <glyph glyph-name="s_t" unicode="&#xfb06;" horiz-adv-x="732" 
d="M49 99q0 19 -2 57l13 1q8 -70 47.5 -110t102.5 -40q45 0 73.5 20t28.5 55q0 9 -1.5 16.5t-6 15t-8.5 13t-12.5 12t-14.5 10.5t-18.5 10.5t-20 10.5t-23 12t-24.5 12q-42 21 -66 36.5t-45 44t-21 62.5q0 52 41 86.5t117 34.5q9 0 16 -1q-2 12 -2 34q0 85 48 143t134 58
q109 0 145 -91q20 -50 20 -167q60 0 124 2q0 -4 -0.5 -11.5t-0.5 -11.5q-36 1 -123 1q-1 -44 -1 -133q0 -143 10 -196q13 -69 61 -69q36 0 74 38l11 -10q-51 -54 -117 -54q-58 0 -87 40t-29 133q0 13 2 105t2 146q-54 0 -73 -1v23q36 -2 73 -2q0 101 -15 151q-25 83 -102 83
q-57 0 -90 -43.5t-33 -101.5q0 -57 32 -93.5t87 -47.5q-1 -24 -14.5 -38t-35.5 -14q-45 0 -75 50q-17 29 -22 59q-18 2 -31 2q-41 0 -65 -17.5t-24 -50.5q0 -21 14 -38.5t30.5 -27t55.5 -28.5l18 -9q77 -38 112 -69t35 -81q0 -58 -46.5 -94t-129.5 -36q-71 0 -152 28
q4 54 4 81z" />
    <glyph glyph-name="longs_longs" horiz-adv-x="566" 
d="M138 0q-30 0 -120 -3l-1 15q41 1 54 7.5t17 20.5q11 35 11 177q0 105 -4 145q-1 17 -7.5 22t-23.5 5q-12 0 -37 -3l-2 15q47 7 70 13q0 154 54 223q56 71 160 71q73 0 133 -32q47 47 118 47q64 0 100 -35t36 -79q0 -30 -17.5 -51t-41.5 -21q-18 0 -28.5 11t-10.5 26
q0 9 2 15q29 29 29 61q0 26 -20 42t-51 16q-60 0 -84 -61q-12 -30 -16.5 -101.5t-4.5 -258.5q0 -196 7 -231q5 -25 20 -33.5t52 -10.5l-1 -15q-60 3 -113 3q-30 0 -120 -3l-1 15q41 1 54 7.5t17 20.5q11 35 11 177q0 105 -4 145q-1 17 -7.5 22t-23.5 5q-12 0 -37 -3l-2 15
q45 7 69 13q5 161 39 223q-34 55 -100 55q-79 0 -114 -86q-16 -40 -21 -103.5t-5 -218.5q0 -193 7 -228q5 -25 20 -33.5t52 -10.5l-1 -15q-60 3 -113 3z" />
    <glyph glyph-name="g_i" horiz-adv-x="757" 
d="M8 -131q0 56 46.5 94t101.5 51v2q-61 26 -61 80q0 36 22 80q-67 42 -67 120q0 68 53 115t133 47q18 0 27 -1q50 75 113 124q92 72 186 72q54 0 82.5 -22t28.5 -52q0 -21 -14 -35t-35 -14q-24 0 -39 15q0 72 -70 72q-58 0 -126 -51q-59 -44 -107 -112q66 -11 107 -49.5
t41 -98.5q0 -69 -53.5 -115.5t-137.5 -46.5q-61 0 -107 24q-3 -14 -3 -24q0 -17 7.5 -29t27 -21t36 -13.5t51.5 -13t57 -14.5q88 -25 130 -59.5t42 -88.5q0 -75 -70 -129.5t-181 -54.5q-97 0 -159 42t-62 106zM622 0q-30 0 -120 -3l-1 15q63 1 72 28q10 30 10 180
q0 102 -4 142q-1 17 -7.5 22t-23.5 5q-12 0 -37 -3l-2 15q56 7 87.5 19t65.5 38l6 -4q-11 -101 -11 -246q0 -115 7 -152q5 -23 19.5 -32.5t52.5 -11.5l-1 -15q-60 3 -113 3zM127 304q0 -58 33 -101t85 -43q51 0 79.5 42t28.5 96q0 58 -33 101t-85 43q-51 0 -79.5 -42
t-28.5 -96zM281 -18q-18 5 -52.5 13.5t-51.5 13.5q-47 -11 -74.5 -49.5t-27.5 -83.5q0 -58 48 -96t128 -38q78 0 124 36t46 88q0 27 -12.5 47.5t-36.5 33.5t-43 20t-48 15z" />
    <glyph glyph-name="g_j" horiz-adv-x="752" 
d="M584 555q-15 15 -15 36t15 36.5t36 15.5t36.5 -15.5t15.5 -36.5t-15.5 -36t-36.5 -15t-36 15zM18 -132q0 56 46 95t100 52v2q-68 26 -68 71q0 54 94 64v3q-57 8 -98.5 45.5t-41.5 95.5q0 61 45 105t115 54q12 2 34.5 3.5t40 4t31.5 7.5q43 16 43 62q0 25 -10 39
q2 10 12 17.5t25 7.5q23 0 37.5 -16t14.5 -41q0 -43 -43 -65.5t-105 -23.5v-4q60 -10 100 -46.5t40 -94.5q0 -62 -45 -104.5t-116 -53.5q-10 -2 -28 -3.5t-31.5 -3.5t-27 -5t-21 -9t-7.5 -14q0 -11 20.5 -19.5t82.5 -26.5q10 -2 15 -4t14 -4.5t17 -4.5q88 -26 125 -59
t37 -86q0 -60 -42 -108q23 -61 77 -61q58 0 74 82q9 48 9 279q0 218 -4 262q-1 17 -7.5 22t-22.5 5q-14 0 -38 -3l-2 15q55 7 86.5 19t66.5 38l6 -4q-11 -101 -11 -262q0 -60 1.5 -143t1.5 -96q0 -121 -40 -174q-44 -58 -115 -58q-69 0 -103 58q-70 -58 -174 -58
q-91 0 -150.5 42t-59.5 105zM127 303q0 -58 33 -100.5t84 -42.5q52 0 80.5 42t28.5 97q0 58 -33 100.5t-84 42.5q-52 0 -80.5 -42t-28.5 -97zM276 -18q-16 5 -36 10.5t-32.5 9.5t-24.5 8q-45 -11 -71.5 -50t-26.5 -84q0 -58 44.5 -96t119.5 -38q72 0 114.5 36t42.5 88
q0 27 -11 47t-33 33t-39.5 20t-46.5 16z" />
    <glyph glyph-name="g_jcircumflex" horiz-adv-x="752" 
d="M18 -132q0 56 46 95t100 52v2q-68 26 -68 71q0 54 94 64v3q-57 8 -98.5 45.5t-41.5 95.5q0 61 45 105t115 54q12 2 34.5 3.5t40 4t31.5 7.5q43 16 43 62q0 25 -10 39q2 10 12 17.5t25 7.5q23 0 37.5 -16t14.5 -41q0 -43 -43 -65.5t-105 -23.5v-4q60 -10 100 -46.5
t40 -94.5q0 -62 -45 -104.5t-116 -53.5q-10 -2 -28 -3.5t-31.5 -3.5t-27 -5t-21 -9t-7.5 -14q0 -11 20.5 -19.5t82.5 -26.5q10 -2 15 -4t14 -4.5t17 -4.5q88 -26 125 -59t37 -86q0 -60 -42 -108q23 -61 77 -61q58 0 74 82q9 48 9 279q0 218 -4 262q-1 17 -7.5 22t-22.5 5
q-14 0 -38 -3l-2 15q55 7 86.5 19t66.5 38l6 -4q-11 -101 -11 -262q0 -60 1.5 -143t1.5 -96q0 -121 -40 -174q-44 -58 -115 -58q-69 0 -103 58q-70 -58 -174 -58q-91 0 -150.5 42t-59.5 105zM127 303q0 -58 33 -100.5t84 -42.5q52 0 80.5 42t28.5 97q0 58 -33 100.5
t-84 42.5q-52 0 -80.5 -42t-28.5 -97zM276 -18q-16 5 -36 10.5t-32.5 9.5t-24.5 8q-45 -11 -71.5 -50t-26.5 -84q0 -58 44.5 -96t119.5 -38q72 0 114.5 36t42.5 88q0 27 -11 47t-33 33t-39.5 20t-46.5 16zM620 617q-54 -46 -120 -91l-8 8q77 84 112 138q7 11 16 11t16 -11
q35 -54 112 -138l-8 -8q-66 45 -120 91z" />
    <glyph glyph-name="g_g" horiz-adv-x="968" 
d="M502 -132q0 56 46 95t100 52v2q-68 26 -68 71q0 54 94 64v3q-57 8 -98.5 45.5t-41.5 95.5q0 61 45 105t115 54q12 2 34.5 3.5t40 4t31.5 7.5q43 16 43 62q0 25 -10 39q2 10 12 17.5t25 7.5q23 0 37.5 -16t14.5 -41q0 -43 -43 -65.5t-105 -23.5v-4q60 -10 100 -46.5
t40 -94.5q0 -62 -45 -104.5t-116 -53.5q-10 -2 -28 -3.5t-31.5 -3.5t-27 -5t-21 -9t-7.5 -14q0 -11 20.5 -19.5t82.5 -26.5q10 -2 15 -4t14 -4.5t17 -4.5q88 -26 125 -59t37 -86q0 -77 -66.5 -132t-170.5 -55q-91 0 -150.5 42t-59.5 105zM18 -132q0 56 46 95t100 52v2
q-68 26 -68 71q0 54 94 64v3q-57 8 -98.5 45.5t-41.5 95.5q0 61 45 105t115 54q12 2 34.5 3.5t40 4t31.5 7.5q43 16 43 62q0 25 -10 39q2 10 12 17.5t25 7.5q23 0 37.5 -16t14.5 -41q0 -43 -43 -65.5t-105 -23.5v-4q60 -10 100 -46.5t40 -94.5q0 -62 -45 -104.5t-116 -53.5
q-10 -2 -28 -3.5t-31.5 -3.5t-27 -5t-21 -9t-7.5 -14q0 -11 20.5 -19.5t82.5 -26.5q10 -2 15 -4t14 -4.5t17 -4.5q88 -26 125 -59t37 -86q0 -77 -66.5 -132t-170.5 -55q-91 0 -150.5 42t-59.5 105zM611 303q0 -58 33 -100.5t84 -42.5q52 0 80.5 42t28.5 97q0 58 -33 100.5
t-84 42.5q-52 0 -80.5 -42t-28.5 -97zM127 303q0 -58 33 -100.5t84 -42.5q52 0 80.5 42t28.5 97q0 58 -33 100.5t-84 42.5q-52 0 -80.5 -42t-28.5 -97zM760 -18q-16 5 -36 10.5t-32.5 9.5t-24.5 8q-45 -11 -71.5 -50t-26.5 -84q0 -58 44.5 -96t119.5 -38q72 0 114.5 36
t42.5 88q0 27 -11 47t-33 33t-39.5 20t-46.5 16zM276 -18q-16 5 -36 10.5t-32.5 9.5t-24.5 8q-45 -11 -71.5 -50t-26.5 -84q0 -58 44.5 -96t119.5 -38q72 0 114.5 36t42.5 88q0 27 -11 47t-33 33t-39.5 20t-46.5 16z" />
    <glyph glyph-name="j_j" horiz-adv-x="533" 
d="M437.5 555q-15.5 -15 -36.5 -15t-36 15t-15 36t15 36.5t36 15.5t36.5 -15.5t15.5 -36.5t-15.5 -36zM172.5 555q-15.5 -15 -36.5 -15t-36 15t-15 36t15 36.5t36 15.5t36.5 -15.5t15.5 -36.5t-15.5 -36zM267 -267q-79 0 -124 55h-2q-41 -67 -129 -67q-68 0 -101.5 35
t-33.5 80q0 32 16 54.5t44 22.5q20 0 32.5 -11.5t12.5 -29.5q0 -15 -6 -24q-42 -19 -42 -58q0 -24 18 -39t53 -15q64 0 79 66t15 282q0 234 -4 278q-1 17 -7.5 22t-22.5 5q-14 0 -38 -3l-2 15q55 7 86.5 19t66.5 38l6 -4q-11 -101 -11 -262q0 -60 1.5 -143.5t1.5 -93.5
q0 -51 -8 -94q17 -113 102 -113q34 0 54 20.5t29 71.5q11 62 11 281q0 197 -4 241q-1 17 -7.5 22t-22.5 5q-14 0 -38 -3l-2 15q55 7 86.5 19t66.5 38l6 -4q-11 -101 -11 -278q0 -41 0.5 -126.5t0.5 -89.5q0 -116 -47 -171.5t-125 -55.5z" />
    <glyph glyph-name="f_b" horiz-adv-x="909" 
d="M144 0q-30 0 -120 -3l-1 15q63 1 72 28q10 29 10 290q0 51 -1 84q-50 0 -82 -1v23q48 -2 82 -2q0 56 1.5 85t10.5 68t28 64q53 72 163 72q86 0 133 -38q30 21 56 47l6 -4q-14 -97 -14 -332l1 -1q61 63 151 63q85 0 142 -53q73 -67 73 -181t-74 -180q-58 -54 -147 -54
q-63 0 -117 39q-5 3 -20 15t-23.5 16.5t-16.5 4.5q-13 0 -23 -16.5t-24 -54.5l-13 3q11 65 14 118t3 165q0 302 -7 349q-5 36 -30.5 57t-67.5 21q-81 0 -112 -88q-18 -52 -18 -185q63 0 145 2l-1 -23q-39 1 -144 1q0 -326 7 -358q5 -23 19.5 -32.5t52.5 -11.5l-1 -15
q-60 3 -113 3zM618 432q-81 0 -130 -67q0 -72 1 -129q1 -90 12 -128q28 -98 119 -98q71 0 110.5 59t39.5 151q0 94 -40 153t-112 59z" />
    <glyph glyph-name="f_h" horiz-adv-x="913" 
d="M144 0q-30 0 -120 -3l-1 15q63 1 72 28q10 29 10 290q0 51 -1 84q-50 0 -82 -1v23q48 -2 82 -2q0 56 1.5 85t10.5 68t28 64q53 72 163 72q86 0 133 -38q30 21 56 47l6 -4q-15 -101 -15 -426h4q28 60 65 98q56 58 126 58q79 0 117 -61q28 -45 28 -133q0 -17 -2 -69.5
t-2 -91.5q0 -51 12.5 -69.5t62.5 -21.5l-1 -15q-69 3 -109 3q-42 0 -120 -3l-1 15q38 1 51 6.5t18 16.5q12 27 12 163q0 122 -14 169q-21 67 -77 67q-61 0 -112 -79q-57 -90 -57 -214q0 -52 6 -85q4 -22 19 -32t53 -12l-1 -15q-69 3 -113 3q-29 0 -119 -3l-1 15q63 1 72 28
q10 29 10 290q0 252 -7 299q-6 36 -31 57t-67 21q-81 0 -112 -88q-18 -52 -18 -185q63 0 145 2l-1 -23q-39 1 -144 1q0 -326 7 -358q5 -23 19.5 -32.5t52.5 -11.5l-1 -15q-60 3 -113 3z" />
    <glyph glyph-name="f_j" horiz-adv-x="588" 
d="M144 0q-30 0 -120 -3l-1 15q63 1 72 28q10 29 10 290q0 51 -1 84q-50 0 -82 -1v23q48 -2 82 -2q0 55 1.5 83t10.5 65t28 63q55 78 176 78q87 0 134 -40t47 -91q0 -31 -17.5 -49.5t-41.5 -18.5q-20 0 -31 13t-11 33q26 27 26 62q0 34 -30.5 54.5t-74.5 20.5
q-91 0 -124 -96q-18 -53 -18 -177q45 -1 164 -1q106 0 155 25l6 -4q-11 -101 -11 -257q0 -66 1.5 -148.5t1.5 -95.5q0 -125 -41 -174q-47 -58 -129 -58q-62 0 -95.5 35.5t-33.5 80.5q0 31 16 53.5t44 22.5q20 0 32.5 -11.5t12.5 -29.5q0 -15 -6 -24q-42 -19 -42 -58
q0 -24 18 -39t50 -15q69 0 86 85q11 54 11 277q0 224 -4 264q-3 31 -16 41.5t-42 10.5h-178q0 -326 7 -358q5 -23 19.5 -32.5t52.5 -11.5l-1 -15q-60 3 -113 3z" />
    <glyph glyph-name="f_jcircumflex" horiz-adv-x="595" 
d="M144 0q-30 0 -120 -3l-1 15q63 1 72 28q10 29 10 290q0 51 -1 84q-50 0 -82 -1v23q48 -2 82 -2q-1 38 -1 91q0 88 37 142q53 74 133 74q40 0 60.5 -19t20.5 -41q0 -16 -12 -26.5t-34 -10.5q-10 0 -16 1q-26 67 -62 67q-28 0 -40 -31q-8 -20 -9.5 -62t-1.5 -185
q45 -1 171 -1q106 0 155 25l6 -4q-11 -101 -11 -257q0 -66 1.5 -148.5t1.5 -95.5q0 -125 -41 -174q-47 -58 -129 -58q-62 0 -95.5 35.5t-33.5 80.5q0 31 16 53.5t44 22.5q20 0 32.5 -11.5t12.5 -29.5q0 -15 -6 -24q-42 -19 -42 -58q0 -24 18 -39t50 -15q69 0 86 85
q11 54 11 277q0 224 -4 264q-3 31 -16 41.5t-42 10.5h-185q0 -326 7 -358q5 -23 19.5 -32.5t52.5 -11.5l-1 -15q-60 3 -113 3zM463 617q-54 -46 -120 -91l-8 8q77 84 112 138q7 11 16 11t16 -11q35 -54 112 -138l-8 -8q-66 45 -120 91z" />
    <glyph glyph-name="f_k" horiz-adv-x="857" 
d="M144 0q-30 0 -120 -3l-1 15q63 1 72 28q10 29 10 290q0 51 -1 84q-50 0 -82 -1v23q48 -2 82 -2q0 56 1.5 85t10.5 68t28 64q53 72 163 72q86 0 133 -38q30 21 56 47l6 -4q-14 -94 -14 -395v-152q72 78 117 130q76 88 76 107q0 8 -9.5 12t-36.5 6l1 15q43 -3 83 -3
q41 0 91 3l1 -15q-43 -4 -66.5 -14t-48.5 -36q-21 -21 -95 -104q46 -65 116 -157q53 -71 78 -90q25 -21 68 -23l-1 -15q-62 3 -117 3q-73 0 -110 -3l-1 15q23 1 33.5 5t10.5 15t-22 44q-33 49 -107 148l-61 -66q1 -74 7 -102q5 -23 19.5 -32.5t52.5 -11.5l-1 -15
q-60 3 -113 3q-30 0 -120 -3l-1 15q63 1 72 28q10 29 10 290q0 252 -7 299q-6 36 -31 57t-67 21q-81 0 -112 -88q-18 -52 -18 -185q63 0 145 2l-1 -23q-39 1 -144 1q0 -326 7 -358q5 -23 19.5 -32.5t52.5 -11.5l-1 -15q-60 3 -113 3z" />
    <glyph glyph-name="f_t" horiz-adv-x="657" 
d="M144 0q-30 0 -120 -3l-1 15q63 1 72 28q10 29 10 290q0 51 -1 84q-50 0 -82 -1v23q48 -2 82 -2q-1 38 -1 75q0 100 36 152q44 62 131 62q56 0 90.5 -30t34.5 -73q0 -28 -15 -46t-36 -18q-17 0 -28 10t-13 25q17 25 17 58q0 24 -14.5 41.5t-41.5 17.5q-52 0 -71 -60
q-14 -44 -14 -214h242q0 60 -4 99q48 34 86 101l9 -2q-15 -84 -17 -198q58 0 124 2l-1 -23q-37 1 -123 1q-1 -35 -1 -122q0 -184 12 -226q14 -52 60 -52q35 0 73 40l11 -10q-48 -54 -114 -54t-97 49q-22 35 -22 117q0 25 2 107.5t2 150.5h-242q0 -326 7 -358
q5 -23 19.5 -32.5t52.5 -11.5l-1 -15q-60 3 -113 3z" />
    <glyph glyph-name="f_f_b" horiz-adv-x="1219" 
d="M144 0q-30 0 -120 -3l-1 15q63 1 72 28q10 29 10 290q0 51 -1 84q-50 0 -82 -1v23q48 -2 82 -2q0 139 51 203q56 71 160 71q87 0 154 -44q57 59 150 59q84 0 131 -38q30 21 56 47l6 -4q-14 -97 -14 -332l1 -1q61 63 151 63q85 0 142 -53q73 -67 73 -181t-74 -180
q-59 -54 -147 -54q-63 0 -117 39q-5 3 -20 15t-23.5 16.5t-16.5 4.5q-13 0 -23 -16.5t-24 -54.5l-13 3q11 65 14 118t3 165q0 302 -7 349q-5 36 -30.5 57t-67.5 21q-81 0 -112 -88q-18 -52 -18 -185q63 0 145 2l-1 -23q-39 1 -144 1q0 -326 7 -358q5 -23 19.5 -32.5
t52.5 -11.5l-1 -15q-60 3 -113 3q-30 0 -120 -3l-1 15q63 1 72 28q10 29 10 290q0 51 -1 84h-235q0 -326 7 -358q5 -23 19.5 -32.5t52.5 -11.5l-1 -15q-60 3 -113 3zM206 606q-27 -62 -27 -172h235q0 118 18 169q-6 36 -37 62.5t-76 26.5q-76 0 -113 -86zM928 432
q-81 0 -130 -67q0 -72 1 -129q1 -90 12 -128q28 -98 119 -98q71 0 110.5 59t39.5 151q0 94 -40 153t-112 59z" />
    <glyph glyph-name="f_f_h" horiz-adv-x="1224" 
d="M144 0q-30 0 -120 -3l-1 15q63 1 72 28q10 29 10 290q0 51 -1 84q-50 0 -82 -1v23q48 -2 82 -2q0 139 51 203q56 71 160 71q87 0 154 -44q57 59 150 59q84 0 131 -38q27 18 56 47l6 -4q-14 -94 -14 -426h4q28 60 65 98q56 58 126 58q79 0 117 -61q28 -45 28 -133
q0 -17 -2 -69.5t-2 -91.5q0 -51 12.5 -69.5t62.5 -21.5l-1 -15q-69 3 -109 3q-42 0 -120 -3l-1 15q38 1 51 6.5t18 16.5q12 27 12 163q0 122 -14 169q-21 67 -77 67q-61 0 -112 -79q-57 -90 -57 -214q0 -52 6 -85q4 -22 19 -32t53 -12l-1 -15q-69 3 -113 3q-30 0 -120 -3
l-1 15q63 1 72 28q10 29 10 274q0 268 -7 315q-6 36 -31 57t-67 21q-81 0 -112 -88q-18 -52 -18 -185q63 0 145 2l-1 -23q-39 1 -144 1q0 -326 7 -358q5 -23 19.5 -32.5t52.5 -11.5l-1 -15q-60 3 -113 3q-30 0 -120 -3l-1 15q63 1 72 28q10 29 10 290q0 51 -1 84h-235
q0 -326 7 -358q5 -23 19.5 -32.5t52.5 -11.5l-1 -15q-60 3 -113 3zM206 606q-27 -62 -27 -172h235q0 118 18 169q-6 36 -37 62.5t-76 26.5q-76 0 -113 -86z" />
    <glyph glyph-name="f_f_igrave" horiz-adv-x="920" 
d="M144 0q-30 0 -120 -3l-1 15q63 1 72 28q10 29 10 290q0 51 -1 84q-50 0 -82 -1v23q48 -2 82 -2q0 139 51 203q56 71 160 71q76 0 139 -35q53 68 129 68q40 0 60.5 -19t20.5 -41q0 -16 -12 -26.5t-34 -10.5q-10 0 -16 1q-26 67 -62 67q-28 0 -40 -31q-8 -20 -9.5 -62
t-1.5 -185q45 -1 168 -1q119 0 168 25l6 -4q-11 -101 -11 -246q0 -115 7 -152q5 -23 19.5 -32.5t52.5 -11.5l-1 -15q-60 3 -113 3q-30 0 -120 -3l-1 15q63 1 72 28q10 30 10 180q0 102 -4 142q-3 31 -18 41.5t-49 10.5q-117 0 -186 -1q0 -325 7 -357q5 -23 19.5 -32.5
t52.5 -11.5l-1 -15q-60 3 -113 3q-30 0 -120 -3l-1 15q63 1 72 28q10 29 10 290q0 51 -1 84h-235q0 -326 7 -358q5 -23 19.5 -32.5t52.5 -11.5l-1 -15q-60 3 -113 3zM206 606q-27 -62 -27 -172h235q-1 38 -1 91q0 61 13 97q-12 30 -40.5 50t-66.5 20q-76 0 -113 -86z
M747 652q33 -72 78 -158l-10 -7q-65 74 -121 130q-12 12 -12 26q0 13 9 23t25 10q20 0 31 -24z" />
    </font>
</defs>
</svg>
