<?xml version="1.0" standalone="no"?>
<!DOCTYPE svg PUBLIC "-//W3C//DTD SVG 1.1//EN" "http://www.w3.org/Graphics/SVG/1.1/DTD/svg11.dtd" >
<svg xmlns="http://www.w3.org/2000/svg" xmlns:xlink="http://www.w3.org/1999/xlink" version="1.1">
<metadata>
Created by FontForge 20170731 at Sun Aug  6 18:07:04 2023
 By Aleksey,,,
</metadata>
<defs>
<font id="Gallant-regular-italic" horiz-adv-x="1338" >
  <font-face 
    font-family="Gallant"
    font-weight="400"
    font-style="italic"
    font-stretch="normal"
    units-per-em="2048"
    panose-1="0 0 0 0 0 0 0 0 0 0"
    ascent="1638"
    descent="-410"
    x-height="1044"
    cap-height="1426"
    bbox="-208 -804 2586.5 2230"
    underline-thickness="100"
    underline-position="-400"
    unicode-range="U+000D-F078"
  />
<missing-glyph horiz-adv-x="200" 
 />
    <glyph glyph-name=".notdef" horiz-adv-x="200" 
 />
    <glyph glyph-name="uni0000" horiz-adv-x="0" 
 />
    <glyph glyph-name="uni0000" horiz-adv-x="0" 
 />
    <glyph glyph-name="uni000D" unicode="&#xd;" horiz-adv-x="512" 
 />
    <glyph glyph-name="space" unicode=" " horiz-adv-x="572" 
 />
    <glyph glyph-name="exclam" unicode="!" horiz-adv-x="446" 
d="M102 0l42 242h244l-42 -242h-244zM344 1426h262q-50 -253 -128 -598l-88 -408h-200l60 408q28 157 51.5 306.5t32.5 220.5z" />
    <glyph glyph-name="quotedbl" unicode="&#x22;" horiz-adv-x="912" 
d="M778 1426h224l-42 -234l-96 -212h-108l-20 212zM414 1426h224l-42 -234l-96 -212h-108l-20 212z" />
    <glyph glyph-name="numbersign" unicode="#" horiz-adv-x="1526" 
d="M1286 1504h214l-114 -368h298l-56 -184h-300l-122 -400h282l-60 -184h-280l-114 -368h-214l114 368h-306l-114 -368h-214l114 368h-316l60 184h314l122 400h-296l56 184h298l114 368h214l-114 -368h306zM808 952l-122 -400h306l122 400h-306z" />
    <glyph glyph-name="dollar" unicode="$" horiz-adv-x="1282" 
d="M964 1576h124l-28 -158q170 -44 244 -136l-36 -264q-91 113 -248 166l-60 -358q178 -53 262.5 -165t57.5 -267q-27 -154 -149 -258.5t-313 -139.5l-26 -146h-124l22 132q-61 -3 -126 0l-22 -132h-124l24 146q-117 20 -200 64t-120 100l36 330q36 -97 121 -166.5
t203 -101.5l70 410q-177 48 -258 152t-54 254q27 151 149.5 256.5t300.5 139.5l24 142h124l-22 -130q64 0 124 -6zM718 874q20 -5 122 -20l62 362q-70 11 -124 8zM606 906l54 318q-24 -5 -40.5 -11t-37.5 -20.5t-36 -42t-24 -68.5q-14 -63 12.5 -108t71.5 -68zM672 610
l-70 -410q84 -4 126 0l66 386q-49 15 -122 24zM910 538l-52 -320q51 2 91.5 38t55.5 84.5t-8 104t-87 93.5z" />
    <glyph glyph-name="percent" unicode="%" horiz-adv-x="1676" 
d="M430 1240q-15 -84 15.5 -136t94.5 -52t111.5 51.5t62.5 136.5q15 84 -14.5 135t-93.5 51t-112.5 -51t-63.5 -135zM304 1240q24 136 113 220t209 84t179 -84t35 -220q-24 -138 -113 -222t-209 -84t-179 84t-35 222zM1276 292q-16 -88 9.5 -142t82.5 -54q61 0 108 53.5
t64 142.5q14 81 -14.5 130.5t-89.5 49.5q-57 0 -102 -49.5t-58 -130.5zM1150 292q22 133 107 214.5t199 81.5q118 0 175.5 -81t34.5 -215q-26 -141 -113 -226.5t-205 -85.5q-114 0 -168.5 85.5t-29.5 226.5zM316 0l1226 1524l142 -2l-1226 -1524z" />
    <glyph glyph-name="ampersand" unicode="&#x26;" horiz-adv-x="1472" 
d="M1348 4q-74 -29 -147 -24t-134 31t-113 71q-188 -122 -418 -122q-212 0 -321.5 106t-78.5 280q18 105 108 203t220 155q-54 57 -76.5 137.5t-7.5 162.5q24 142 142 229t288 87q159 0 242.5 -84t59.5 -220q-17 -95 -106 -178t-234 -150q71 -100 216 -298q92 128 122 314
l196 -48q-38 -247 -186 -426q38 -27 102.5 -40.5t129.5 2.5zM682 810l8 4q93 39 155 94t73 108q9 54 -29.5 87t-110.5 33q-75 0 -126 -32t-60 -84q-9 -51 15.5 -108t74.5 -102zM818 234q-79 104 -254 346q-6 -2 -14 -6q-69 -28 -117 -83t-59 -115q-15 -89 48.5 -142.5
t183.5 -53.5q110 0 212 54z" />
    <glyph glyph-name="quotesingle" unicode="'" horiz-adv-x="486" 
d="M414 1426h224l-42 -234l-96 -212h-108l-20 212z" />
    <glyph glyph-name="parenleft" unicode="(" horiz-adv-x="738" 
d="M712 1516l62 -88q-402 -295 -486 -792q-87 -488 208 -780l-92 -86q-353 347 -262 866q94 534 570 880z" />
    <glyph glyph-name="parenright" unicode=")" horiz-adv-x="660" 
d="M140 -230l-62 88q399 292 486 792q85 490 -208 780l92 86q353 -347 262 -866q-94 -534 -570 -880z" />
    <glyph glyph-name="asterisk" unicode="*" horiz-adv-x="810" 
d="M682 1314l58 -178l-232 -44l162 -170l-152 -110l-112 206l-112 -206l-152 110l162 170l-232 44l58 178l212 -100l-30 232h186l-30 -232z" />
    <glyph glyph-name="plus" unicode="+" horiz-adv-x="1188" 
d="M602 454h-470l24 136h470l80 454h144l-80 -454h470l-24 -136h-470l-80 -454h-144z" />
    <glyph glyph-name="comma" unicode="," horiz-adv-x="448" 
d="M144 242h244l-42 -242q-22 -127 -88 -181.5t-198 -54.5l20 116q52 0 80 28t40 92h-98z" />
    <glyph glyph-name="hyphen" unicode="-" horiz-adv-x="792" 
d="M174 408l32 184h588l-32 -184h-588z" />
    <glyph glyph-name="period" unicode="." horiz-adv-x="446" 
d="M102 0l42 242h244l-42 -242h-244z" />
    <glyph glyph-name="slash" unicode="/" horiz-adv-x="640" 
d="M2 0l790 1426h98l-790 -1426h-98z" />
    <glyph glyph-name="zero" unicode="0" horiz-adv-x="1462" 
d="M492 712q-46 -262 22 -396t248 -134q179 0 294.5 134t161.5 396q43 250 -28 390t-242 140q-172 0 -292 -139.5t-164 -390.5zM234 712q62 347 259 540.5t491 193.5q293 0 423 -194t69 -540q-65 -363 -254 -547.5t-496 -184.5q-308 0 -432 184.5t-60 547.5z" />
    <glyph glyph-name="one" unicode="1" horiz-adv-x="888" 
d="M744 1426h194q-42 -238 -126 -713t-126 -713h-248l204 1150l-302 -128l44 248z" />
    <glyph glyph-name="two" unicode="2" horiz-adv-x="1258" 
d="M94 0q23 131 64 225t114 170t165 133.5t237 125.5q167 78 277.5 172.5t124.5 169.5q16 94 -56.5 154t-189.5 60q-88 0 -156.5 -11.5t-128 -39.5t-98.5 -53t-103 -74l2 8l36 210q2 10 4 26q77 73 201 121.5t297 48.5q141 0 251 -56t164 -161.5t31 -238.5
q-20 -114 -128.5 -229.5t-267.5 -188.5q-195 -92 -306 -166.5t-174 -165.5h774l-42 -240h-1092z" />
    <glyph glyph-name="three" unicode="3" horiz-adv-x="1284" 
d="M182 120l60 342q41 -95 87.5 -148t130 -82.5t214.5 -29.5q123 0 215.5 57t108.5 147q21 118 -59.5 190t-232.5 72h-120l24 136q2 10 5 29.5t5 28.5h160q123 0 208 53.5t100 140.5q16 87 -46 136.5t-204 49.5q-227 0 -454 -188l48 268q156 124 450 124q254 0 362 -98.5
t78 -271.5q-18 -96 -101 -174.5t-207 -117.5q136 -51 203 -155.5t45 -232.5q-21 -122 -112.5 -218t-226.5 -147t-289 -51q-197 0 -294 30.5t-158 109.5z" />
    <glyph glyph-name="four" unicode="4" horiz-adv-x="1252" 
d="M960 10q0 -4 -2 -10h-248l72 406h-450l-208 -2l34 194l858 828h194q-78 -454 -140 -798h250l-38 -222h-252q-12 -66 -35 -198t-35 -198zM420 628h400l82 462z" />
    <glyph glyph-name="five" unicode="5" horiz-adv-x="1296" 
d="M316 658l228 768h856l-64 -262l-606 -30l-82 -252q72 14 212 14q231 0 349.5 -123.5t82.5 -326.5q-36 -210 -213 -338t-429 -128q-140 0 -237.5 21.5t-143 49.5t-85.5 71q46 262 58 334q59 -132 165 -197.5t281 -64.5q132 0 225.5 69t112.5 183q11 65 -11.5 105t-94.5 66
t-208 39q-50 6 -134 6z" />
    <glyph glyph-name="six" unicode="6" horiz-adv-x="1226" 
d="M1360 1336l-44 -244q-28 72 -116 116t-204 44q-195 0 -321.5 -136.5t-168.5 -371.5q58 88 156.5 144.5t205.5 59.5q229 7 350.5 -129t83.5 -353q-39 -219 -210.5 -352.5t-413.5 -133.5q-280 0 -390.5 182.5t-47.5 539.5q29 168 95.5 304.5t165 234.5t233.5 151.5
t296 53.5q128 0 219.5 -30.5t110.5 -79.5zM792 742q-252 -17 -312 -332q11 -114 67 -170.5t167 -57.5q101 -2 166.5 30.5t100 92.5t55.5 161q57 263 -244 276z" />
    <glyph glyph-name="seven" unicode="7" horiz-adv-x="1042" 
d="M314 1426h958l-42 -240q-187 -79 -316 -223.5t-218 -377.5t-152 -585h-278q45 252 97.5 435t122.5 320t147 233.5t189 197.5h-550z" />
    <glyph glyph-name="eight" unicode="8" horiz-adv-x="1320" 
d="M632 1052q-9 -40 -4.5 -73.5t23 -57t60.5 -36.5t107 -13q115 0 173 43t75 137q16 93 -24 141.5t-160 48.5q-114 0 -173.5 -47t-76.5 -143zM368 1072q31 181 178.5 277.5t371.5 96.5q236 0 344.5 -101t79.5 -273q-40 -226 -282 -310q134 -44 187.5 -142t28.5 -236
q-24 -136 -109.5 -227.5t-213 -134t-293.5 -42.5q-273 0 -390 107.5t-84 296.5q26 147 116.5 242t233.5 138q-104 40 -146 119.5t-22 188.5zM484 400q-19 -108 27.5 -163t184.5 -55q262 0 302 224q43 244 -220 244q-126 0 -199 -61.5t-95 -188.5z" />
    <glyph glyph-name="nine" unicode="9" horiz-adv-x="1250" 
d="M28 98l48 274q28 -73 127.5 -117.5t232.5 -44.5q193 0 316 126.5t162 345.5q-59 -90 -162 -145t-214 -55l-2 -2q-226 0 -342 132t-78 348q39 219 211 352.5t415 133.5q279 0 389 -182.5t47 -539.5q-60 -343 -263.5 -543.5t-518.5 -200.5q-144 0 -245.5 32.5t-122.5 85.5z
M620 684q122 0 205.5 68t126.5 228q5 137 -50 201t-196 63q-153 -1 -226.5 -73.5t-97.5 -210.5q-24 -131 32.5 -203.5t205.5 -72.5z" />
    <glyph glyph-name="colon" unicode=":" horiz-adv-x="446" 
d="M244 802l42 242h244l-42 -242h-244zM102 0l42 242h244l-42 -242h-244z" />
    <glyph glyph-name="semicolon" unicode=";" horiz-adv-x="446" 
d="M244 802l42 242h244l-42 -242h-244zM186 242h244l-84 -242q-45 -127 -120.5 -181.5t-207.5 -54.5l40 116q52 0 85 27.5t57 92.5h-98z" />
    <glyph glyph-name="less" unicode="&#x3c;" horiz-adv-x="1244" 
d="M1296 990l-32 -184l-850 -284l750 -284l-32 -184l-962 386l28 164z" />
    <glyph glyph-name="equal" unicode="=" horiz-adv-x="1272" 
d="M150 400h1088l-24 -136h-1088zM222 802h1088l-24 -136h-1088z" />
    <glyph glyph-name="greater" unicode="&#x3e;" horiz-adv-x="1244" 
d="M1014 522l-750 284l32 184l962 -386l-28 -164l-1098 -386l32 184z" />
    <glyph glyph-name="question" unicode="?" horiz-adv-x="1168" 
d="M394 0l42 242h244l-42 -242h-244zM314 1278q64 74 189 121t281 47q240 0 369 -103.5t99 -272.5q-19 -112 -95 -198t-235 -176q-125 -71 -166.5 -122t-59.5 -156h-212q30 174 87 252.5t221 171.5q112 63 163.5 115.5t62.5 112.5q15 81 -59 130.5t-209 49.5
q-290 0 -482 -224z" />
    <glyph glyph-name="at" unicode="@" horiz-adv-x="2556" 
d="M2084 -232l58 -112q-182 -113 -431 -181.5t-475 -68.5q-181 0 -338 37t-278.5 106t-213 169t-142 226t-65.5 276t17 320q59 337 254.5 594.5t494 398.5t655.5 141q249 0 445.5 -69.5t320 -194t173 -303t11.5 -391.5q-59 -336 -244.5 -542t-429.5 -206q-122 0 -195.5 60
t-88.5 168q-85 -97 -202.5 -150.5t-251.5 -53.5q-240 0 -341 151t-27 397q63 217 248 350.5t424 133.5q113 0 188.5 -50.5t105.5 -143.5l50 172h204l-172 -584q-43 -146 -2.5 -234t150.5 -88q138 0 253.5 170.5t164.5 449.5q32 181 -10 332.5t-147.5 257t-273 164
t-379.5 58.5q-308 0 -565.5 -123t-426.5 -347.5t-220 -517.5q-52 -293 39.5 -517.5t309.5 -347.5t531 -123q214 0 439 59t383 157zM1658 500q45 148 -25.5 239t-228.5 91q-138 0 -246.5 -80t-145.5 -210q-48 -160 8 -258t196 -98q156 0 272 64.5t146 169.5z" />
    <glyph glyph-name="A" unicode="A" horiz-adv-x="1512" 
d="M22 0l856 1426h272l340 -1426h-272l-66 286l-696 -4q-138 -239 -162 -282h-272zM568 474h540l-152 656q-284 -479 -388 -656z" />
    <glyph glyph-name="B" unicode="B" horiz-adv-x="1472" 
d="M822 0h-644q100 572 252 1426h544q277 -3 379.5 -93.5t66.5 -296.5q-15 -89 -79 -155.5t-169 -104.5q171 -25 250 -115.5t56 -222.5q-42 -237 -193 -337.5t-463 -100.5zM646 1232q-10 -60 -33.5 -190t-34.5 -194l328 -8q69 -3 129.5 51t76.5 143q17 97 -29 146.5
t-133 51.5h-304zM462 194h322q189 -1 276 54t110 188q17 93 -66.5 151.5t-237.5 54.5q7 1 -54.5 1t-155 -0.5t-114.5 -0.5q-19 -105 -46 -256t-34 -192z" />
    <glyph glyph-name="C" unicode="C" horiz-adv-x="1442" 
d="M1464 372l-36 -214q-56 -80 -203 -129t-331 -49q-173 0 -312 59t-223 158.5t-117.5 233t-7.5 281.5t107 281.5t200 234t278.5 159.5t332.5 59t303 -48.5t169 -127.5l-40 -188q-59 56 -191.5 108t-276.5 52q-153 0 -286 -73t-218 -193.5t-110 -263.5t17.5 -263.5
t150 -193.5t260.5 -73q168 0 296 48t238 142z" />
    <glyph glyph-name="D" unicode="D" horiz-adv-x="1592" 
d="M178 0q100 572 252 1426h250q-59 -331 -135.5 -765.5t-82.5 -466.5q43 0 143 -1t143 -1q255 0 400 128t192 392q45 258 -65.5 389t-374.5 131h-254l34 194h244q400 0 572 -180t110 -534q-65 -362 -279 -537t-595 -175h-554z" />
    <glyph glyph-name="E" unicode="E" 
d="M178 0q100 572 252 1426h1028l-36 -204l-778 2q-14 -81 -39 -222.5t-35 -199.5h524l-32 -194h-526q-30 -168 -72 -406h808l-36 -202h-1058z" />
    <glyph glyph-name="F" unicode="F" horiz-adv-x="1268" 
d="M178 0q100 572 252 1426h1028l-36 -204l-778 2q-14 -81 -39 -222.5t-35 -199.5h536l-34 -194h-536l-108 -608h-250z" />
    <glyph glyph-name="G" unicode="G" horiz-adv-x="1606" 
d="M1230 702h406q-27 -146 -92 -530q-121 -89 -292.5 -140.5t-359.5 -51.5q-354 0 -535 201t-123 531q59 330 310.5 532t605.5 202q178 0 328 -83.5t218 -220.5l-202 -164q-59 119 -163.5 191.5t-216.5 72.5q-234 0 -402 -145.5t-210 -384.5t75 -384.5t351 -145.5
q119 0 223.5 30t174.5 82l36 204h-162z" />
    <glyph glyph-name="H" unicode="H" horiz-adv-x="1624" 
d="M178 0q100 572 252 1426h250q-7 -38 -108 -614h776q101 576 108 614h248l-252 -1426h-248q40 227 108 608h-776l-108 -608h-250z" />
    <glyph glyph-name="I" unicode="I" horiz-adv-x="600" 
d="M178 0q100 572 252 1426h250l-252 -1426h-250z" />
    <glyph glyph-name="J" unicode="J" horiz-adv-x="1074" 
d="M170 50q4 26 13 79t13 79l18 82q54 -48 106.5 -64t169.5 -16q97 0 158 56t78 152q70 405 178 1008h250l-178 -1008q-35 -202 -172.5 -320t-355.5 -118q-119 0 -176.5 14.5t-101.5 55.5z" />
    <glyph glyph-name="K" unicode="K" horiz-adv-x="1422" 
d="M178 0l252 1426h250l-118 -664l734 664h312l-592 -546l384 -880h-300l-304 678l-296 -276l-72 -402h-250z" />
    <glyph glyph-name="L" unicode="L" horiz-adv-x="1198" 
d="M178 0q100 572 252 1426h250q-44 -245 -86.5 -487t-80.5 -459.5t-49 -277.5h708l-36 -202h-958z" />
    <glyph glyph-name="M" unicode="M" horiz-adv-x="1862" 
d="M180 0l252 1426q88 -10 240 0v-4l138 4l236 -790l506 790l150 -2v2h240l-252 -1426h-240l204 1150l-538 -750h-222l-272 742l-202 -1142h-240z" />
    <glyph glyph-name="N" unicode="N" horiz-adv-x="1570" 
d="M1400 1426h250l-252 -1426h-354l-436 1014q-34 -185 -95 -534t-85 -480h-250q38 214 126 713t126 713h282l488 -1132z" />
    <glyph glyph-name="O" unicode="O" horiz-adv-x="1690" 
d="M512 712q-42 -236 57.5 -369t310.5 -133q212 0 364.5 133.5t193.5 368.5q38 221 -77.5 359.5t-318.5 138.5q-199 0 -345 -136.5t-185 -361.5zM244 712q27 154 107 290.5t193.5 233.5t258.5 153.5t299 56.5t279.5 -56.5t205.5 -153.5t112 -233.5t5 -290.5
q-39 -218 -159 -384t-302 -257t-399 -91t-366.5 91t-211 257t-22.5 384z" />
    <glyph glyph-name="P" unicode="P" horiz-adv-x="1310" 
d="M178 0l252 1426h540q258 0 370 -108t74 -320q-39 -222 -190.5 -335t-409.5 -113h-288l-98 -550h-250zM560 744h300q111 3 181.5 66t92.5 186q39 230 -208 236q-84 2 -280 2z" />
    <glyph glyph-name="Q" unicode="Q" horiz-adv-x="1690" 
d="M512 712q-41 -235 62.5 -369.5t315.5 -134.5q56 0 96 8q-83 149 -110 214l250 -6q0 -11 72 -122q92 64 154 168.5t86 241.5q38 223 -73.5 363.5t-312.5 140.5q-199 0 -350 -139.5t-190 -364.5zM244 712q27 154 107 290.5t193.5 233.5t258.5 153.5t299 56.5t279.5 -56.5
t205.5 -153.5t112 -233.5t5 -290.5q-34 -196 -135 -350t-253 -250l194 -308l-282 8q-56 90 -124 204q-123 -36 -260 -36q-217 0 -366.5 91t-211 257t-22.5 384z" />
    <glyph glyph-name="R" unicode="R" 
d="M178 0l252 1426h540q258 0 370 -108t74 -320q-51 -287 -322 -374l244 -624h-286l-228 586h-2h-288l-104 -586h-250zM566 780h298q104 -6 175.5 51.5t90.5 164.5q20 116 -33 177.5t-171 58.5q-84 -2 -280 -2z" />
    <glyph glyph-name="S" unicode="S" horiz-adv-x="1282" 
d="M122 160l36 330q49 -134 189 -213t323 -79q288 0 322 178q14 85 -65.5 148.5t-242.5 83.5q-243 30 -359 142t-85 288q31 181 198 294.5t394 113.5q154 0 282.5 -44t189.5 -120l-36 -264q-77 95 -206 150.5t-268 55.5q-113 0 -193.5 -41t-92.5 -111q-15 -79 62 -136.5
t226 -75.5q258 -32 387.5 -155t96.5 -311q-33 -190 -207.5 -302t-440.5 -112q-189 0 -323 51.5t-187 128.5z" />
    <glyph glyph-name="T" unicode="T" horiz-adv-x="1252" 
d="M256 1324l18 102h1208l-36 -204h-480l-216 -1222h-248q84 481 216 1222h-480q5 36 18 102z" />
    <glyph glyph-name="U" unicode="U" horiz-adv-x="1518" 
d="M416 1426h250l-148 -832q-33 -190 38 -287t242 -97q347 0 414 384l146 832h250l-156 -876q-50 -282 -225.5 -426t-470.5 -144t-420.5 144t-75.5 426z" />
    <glyph glyph-name="V" unicode="V" horiz-adv-x="1320" 
d="M280 1426h268l176 -1096l560 1096h266l-762 -1426h-240z" />
    <glyph glyph-name="W" unicode="W" horiz-adv-x="1700" 
d="M280 1426h268l24 -936l400 936h260l86 -920l346 920h266l-514 -1426h-308l-82 1006l-440 -1006h-274z" />
    <glyph glyph-name="X" unicode="X" horiz-adv-x="1316" 
d="M1260 1426h292l-606 -706l338 -720h-266l-244 520l-446 -520h-294l636 740l-322 686h266l228 -486z" />
    <glyph glyph-name="Y" unicode="Y" horiz-adv-x="1316" 
d="M1290 1426h256l-638 -762l-118 -664h-250l118 662h-2l-368 764h258l272 -568z" />
    <glyph glyph-name="Z" unicode="Z" horiz-adv-x="1372" 
d="M1316 202q-6 -34 -18 -101t-18 -101h-1188l36 202l1050 1020h-840q5 36 18 102l18 102h1158l-36 -204l-1048 -1020h868z" />
    <glyph glyph-name="bracketleft" unicode="[" horiz-adv-x="760" 
d="M382 -104h298l-22 -126h-444l292 1656h146zM652 1426h298l-22 -126h-298z" />
    <glyph glyph-name="backslash" unicode="\" horiz-adv-x="718" 
d="M580 0l-326 1426h136l326 -1426h-136z" />
    <glyph glyph-name="bracketright" unicode="]" horiz-adv-x="758" 
d="M44 -104h298l248 1404h-298l22 126h444l-292 -1656h-444z" />
    <glyph glyph-name="asciicircum" unicode="^" horiz-adv-x="756" 
d="M378 1392l-154 -124h-204l246 300h226l246 -300h-204q-152 124 -156 124z" />
    <glyph glyph-name="underscore" unicode="_" horiz-adv-x="1422" 
d="M54 -268l24 136h1218l-24 -136h-1218z" />
    <glyph glyph-name="grave" unicode="`" horiz-adv-x="756" 
d="M276 1268l-214 300h290l128 -300h-204z" />
    <glyph glyph-name="a" unicode="a" horiz-adv-x="1382" 
d="M412 512q-28 -159 36.5 -239.5t211.5 -80.5q109 0 205 88.5t123 241.5q27 152 -38 240t-174 88q-145 0 -240 -88.5t-124 -249.5zM196 522q43 244 204 393t382 149q164 0 280 -122l18 102h224l-184 -1044h-224q6 32 16 92q-156 -112 -322 -112q-221 0 -329 149t-65 393z
" />
    <glyph glyph-name="b" unicode="b" horiz-adv-x="1260" 
d="M458 522q-31 -177 32.5 -262.5t195.5 -85.5q126 0 221 90.5t123 247.5q28 160 -30 255t-182 95q-64 0 -120.5 -18.5t-105 -58t-83.5 -106.5t-51 -157zM144 0l268 1524h222l-100 -574q167 114 372 114q198 0 292.5 -149t51.5 -393t-190.5 -393t-345.5 -149
q-200 0 -332 114l-16 -94h-222z" />
    <glyph glyph-name="c" unicode="c" horiz-adv-x="1116" 
d="M1110 300l-36 -184q-46 -62 -143 -99t-223 -37q-138 0 -243 32.5t-174 98t-94 169.5t-1 242q24 136 87.5 240.5t155.5 169.5t204.5 97.5t240.5 32.5q134 0 219 -38t117 -88l-40 -182q-14 11 -44 35t-40.5 31.5t-34.5 23.5t-40 20.5t-43 12t-57 9.5t-69 2
q-157 0 -269.5 -92.5t-144.5 -273.5q-32 -180 49.5 -269t252.5 -89q48 0 84.5 4.5t78 21t58 24.5t73 41.5t76.5 44.5z" />
    <glyph glyph-name="d" unicode="d" horiz-adv-x="1276" 
d="M396 530q-28 -157 42 -251.5t200 -94.5q129 0 230 87t132 237l4 30q22 150 -47 238t-197 88q-131 0 -233.5 -89.5t-130.5 -244.5zM196 522q43 243 192 390t352 152q211 6 338 -108l100 568h224l-268 -1524h-224l16 86q-175 -115 -378 -106q-201 8 -298 154t-54 388z" />
    <glyph glyph-name="e" unicode="e" horiz-adv-x="1170" 
d="M1124 304l-34 -164q-60 -73 -169 -116.5t-257 -43.5q-263 0 -389.5 135t-78.5 407q32 183 119.5 306t212 179.5t282.5 56.5q126 0 213.5 -42.5t130.5 -120t51.5 -186.5t-23.5 -243h-224q13 57 16 98l-16 -98h-526q-15 -150 55.5 -224t210.5 -74q94 0 172.5 23.5t152 60.5
t101.5 46zM978 612q8 131 -42.5 204.5t-157.5 73.5q-112 0 -195 -69t-125 -209h520zM434 492l4 30q-4 -20 -4 -30z" />
    <glyph glyph-name="f" unicode="f" horiz-adv-x="838" 
d="M640 966h382l-30 -174h-382l-140 -792h-224q76 431 140 792h-184l30 174h184q15 80 30 170q68 381 460 388q125 0 206 -44l-30 -180q-74 38 -204 42q-172 -3 -208 -206q-15 -90 -30 -170z" />
    <glyph glyph-name="g" unicode="g" horiz-adv-x="1256" 
d="M56 -372l66 248q151 -146 430 -146q142 0 229.5 76.5t110.5 207.5l14 74q-157 -91 -362 -88q-438 7 -348 522q49 280 188 410t348 132q206 3 326 -108l16 88h224l-176 -996q-41 -241 -197.5 -381.5t-404.5 -140.5q-183 0 -264 17t-200 85zM420 530q-60 -330 216 -330
q123 0 218 82.5t126 225.5l4 30q22 149 -44 233.5t-190 84.5q-133 0 -216 -72t-114 -254z" />
    <glyph glyph-name="h" unicode="h" horiz-adv-x="1170" 
d="M804 0q78 444 112 634q19 105 -25 161.5t-135 56.5q-108 0 -184 -56.5t-92 -149.5l-114 -646h-222q188 1067 268 1524h222q-12 -69 -46 -263t-54 -305q138 98 344 98q155 0 226 -108t36 -312l-112 -634h-224z" />
    <glyph glyph-name="i" unicode="i" horiz-adv-x="590" 
d="M438 1268l42 242q228 -2 244 0q1 -4 -9.5 -64.5t-21.5 -119.5l-11 -58h-244zM224 0l184 1044h224l-184 -1044h-224zM724 1510z" />
    <glyph glyph-name="j" unicode="j" horiz-adv-x="528" 
d="M390 1268l42 242h242l-42 -242h-242zM-164 -168q143 -24 168 -22q40 0 60.5 4t44.5 21.5t39.5 57.5t27.5 107l184 1044h224l-184 -1044q-30 -169 -77.5 -258t-131.5 -122.5t-223 -15.5l-10 2q-90 12 -166 42z" />
    <glyph glyph-name="k" unicode="k" horiz-adv-x="1186" 
d="M144 0l268 1524h222l-162 -916l560 436h288l-452 -366l296 -678h-264l-228 520l-250 -204l-56 -316h-222z" />
    <glyph glyph-name="l" unicode="l" horiz-adv-x="510" 
d="M144 0q188 1067 268 1524h224l-268 -1524h-224z" />
    <glyph glyph-name="m" unicode="m" horiz-adv-x="1776" 
d="M1420 0q80 444 112 634q14 79 -33 131.5t-137 52.5q-227 0 -258 -184l-112 -634h-222q80 444 112 634q14 78 -32 131t-130 53q-219 0 -250 -172l-114 -646h-222q128 731 184 1044h222q-2 -10 -8.5 -48.5t-11.5 -61.5q68 58 155 89t177 31q97 0 161.5 -46.5t88.5 -135.5
q69 86 171 134t215 48q158 0 230.5 -108t37.5 -312l-112 -634h-224z" />
    <glyph glyph-name="n" unicode="n" horiz-adv-x="1150" 
d="M794 0q92 444 112 634q8 70 -36 126t-128 56q-242 0 -272 -170l-114 -646h-222q128 731 184 1044h222q-3 -21 -11 -64t-11 -64q65 68 156 103t194 35q155 0 226 -108t36 -312l-112 -634h-224z" />
    <glyph glyph-name="o" unicode="o" horiz-adv-x="1242" 
d="M402 526q-30 -167 38.5 -259.5t213.5 -92.5q65 0 121 18t105.5 57t85 108t52.5 163q30 169 -31.5 261.5t-204.5 92.5q-65 0 -123.5 -18.5t-111 -57.5t-90.5 -108.5t-55 -163.5zM196 522q32 183 119.5 306t212 179.5t282.5 56.5q260 0 363.5 -144t58.5 -398
q-32 -183 -119.5 -306t-212 -179.5t-282.5 -56.5q-260 0 -363.5 144t-58.5 398z" />
    <glyph glyph-name="p" unicode="p" horiz-adv-x="1260" 
d="M458 522q-31 -175 42 -257.5t212 -82.5q122 0 213 90t119 248q28 159 -28.5 250.5t-177.5 91.5q-66 0 -125.5 -19t-111.5 -57.5t-89.5 -106t-53.5 -157.5zM80 -358q174 983 248 1402h222q-9 -48 -18 -102q176 122 380 122q195 0 288 -149t50 -393t-189 -393t-341 -149
q-205 0 -338 112l-80 -450h-222z" />
    <glyph glyph-name="q" unicode="q" horiz-adv-x="1266" 
d="M414 526q-26 -157 35.5 -246.5t184.5 -89.5q133 0 231.5 88t126.5 244t-42.5 246t-203.5 90q-123 0 -213.5 -87.5t-118.5 -244.5zM196 522q43 243 188 388.5t344 153.5q208 9 338 -118q3 16 9 49t9 49h224l-248 -1402h-224q30 165 80 450q-171 -112 -380 -112
q-197 0 -290 149t-50 393z" />
    <glyph glyph-name="r" unicode="r" horiz-adv-x="902" 
d="M1002 802q-8 7 -22 17t-57 26.5t-87 16.5q-173 -1 -258.5 -77t-111.5 -219l-100 -566h-222q128 731 184 1044h222q-3 -16 -8.5 -50t-7.5 -44q124 112 332 112q61 0 99.5 -14.5t70.5 -49.5z" />
    <glyph glyph-name="s" unicode="s" horiz-adv-x="1030" 
d="M138 142l26 236q28 -92 135 -153t251 -61q96 0 163 35.5t71 108.5q3 50 -50 82t-158 42q-192 18 -289.5 100t-76.5 206q17 93 86 165.5t173.5 111.5t226.5 39q132 0 228 -36t116 -90l8 -206q-25 70 -137 118t-245 48q-212 0 -240 -132q-11 -54 52 -83.5t188 -40.5
q204 -19 293.5 -98t66.5 -206q-27 -149 -171.5 -243.5t-334.5 -94.5q-151 0 -257.5 43.5t-124.5 108.5z" />
    <glyph glyph-name="t" unicode="t" horiz-adv-x="868" 
d="M990 1038l-36 -194h-372q-12 -75 -86 -494q-16 -90 25.5 -134t164.5 -44q58 0 150 36l-32 -186q-103 -42 -210 -42q-207 0 -281 92.5t-41 277.5q19 106 51 286.5t37 207.5h-174l36 194h172l60 342l244 122q-30 -173 -82 -464h374z" />
    <glyph glyph-name="u" unicode="u" horiz-adv-x="1160" 
d="M1018 0h-224q6 38 20 110q-70 -62 -156 -96t-172 -34q-136 0 -207 47t-85 140t10 231q80 452 114 646h222l-114 -646q-19 -112 16 -164t150 -52q105 0 180.5 63.5t93.5 166.5q24 136 112 632h224q-180 -1026 -184 -1044z" />
    <glyph glyph-name="v" unicode="v" horiz-adv-x="1038" 
d="M208 1044h252l102 -836l404 836h234l-564 -1044h-242z" />
    <glyph glyph-name="w" unicode="w" horiz-adv-x="1514" 
d="M208 1044h236l48 -794l352 794h196l-2 -4l74 -790l328 794h236l-458 -1044h-258l-78 702l-326 -702h-254z" />
    <glyph glyph-name="x" unicode="x" horiz-adv-x="1076" 
d="M968 1042h288l-488 -524l296 -518h-280l-188 332l-308 -332h-286l484 522l-296 522h278l192 -336z" />
    <glyph glyph-name="y" unicode="y" horiz-adv-x="1040" 
d="M208 1044h252l146 -700l344 700h252l-648 -1220q-73 -142 -173.5 -205t-252.5 -63q-18 0 -66 5t-87 10l-39 5l36 210q150 -36 190 -36q87 0 130.5 23t77.5 89l64 132z" />
    <glyph glyph-name="z" unicode="z" horiz-adv-x="982" 
d="M276 1044h816l-24 -136l-700 -734h602l-30 -174h-878l24 136l692 734h-532zM246 870l14 88q-2 -13 -7 -44t-7 -44zM970 174l-14 -88q2 13 7 44t7 44z" />
    <glyph glyph-name="braceleft" unicode="{" horiz-adv-x="744" 
d="M934 1426l-22 -126h-162q-45 0 -79.5 -36t-44.5 -94l-70 -400q-13 -75 -53.5 -126.5t-94.5 -63.5q50 -14 72.5 -65t7.5 -125l-70 -400q-10 -58 11.5 -94t66.5 -36h162l-22 -126h-162q-111 0 -166.5 70t-35.5 186l76 428q8 48 -25.5 78t-94.5 30h-24l20 108h24
q62 0 105.5 30t50.5 78q32 173 76 428q21 116 101 186t191 70h162z" />
    <glyph glyph-name="bar" unicode="|" horiz-adv-x="330" 
d="M378 1624h146l-386 -2186h-146z" />
    <glyph glyph-name="braceright" unicode="}" horiz-adv-x="744" 
d="M364 1426h162q111 0 166 -70.5t34 -185.5l-76 -428q-8 -48 25.5 -78t94.5 -30h24l-20 -108h-24q-62 0 -105.5 -30t-50.5 -78q-30 -173 -76 -428q-19 -115 -99 -185.5t-191 -70.5h-162l22 126h162q45 0 78 35.5t44 94.5l70 400q15 76 54.5 127t93.5 63q-50 14 -71.5 65
t-8.5 125l70 400q11 59 -10 94.5t-66 35.5h-162z" />
    <glyph glyph-name="asciitilde" unicode="~" horiz-adv-x="756" 
d="M196 522h-166q0 142 54 230t142 84q40 0 79.5 -19t67.5 -43.5t67.5 -53.5t75.5 -44q16 -2 25.5 6.5t14 31t5.5 43.5t1 59h164q0 -141 -53.5 -227.5t-140.5 -86.5q-40 0 -84 25t-76 55t-68 55t-62 25q-21 0 -33.5 -38.5t-12.5 -101.5z" />
    <glyph glyph-name="uni00A0" unicode="&#xa0;" horiz-adv-x="502" 
 />
    <glyph glyph-name="exclamdown" unicode="&#xa1;" horiz-adv-x="446" 
d="M354 1426h244l-44 -242h-244zM92 0q72 412 104 590l172 418h68l22 -418l-104 -590h-262z" />
    <glyph glyph-name="cent" unicode="&#xa2;" horiz-adv-x="1116" 
d="M882 1194h122l-24 -138q94 -12 154 -46t86 -74l-40 -182q-17 13 -48 38t-44.5 34.5t-37 23.5t-46.5 21t-52 11l-122 -712q36 6 73 19.5t58.5 25t72.5 41.5t76 44l-36 -184q-36 -50 -108 -84t-168 -46l-22 -136h-122l22 130q-131 4 -229 38t-164 101t-87.5 167t0.5 236
q23 132 84 235t150 168t197.5 99.5t232.5 37.5zM708 164l122 724q-149 -6 -255.5 -99t-136.5 -267q-31 -171 41.5 -260t228.5 -98z" />
    <glyph glyph-name="guillemotleft" unicode="&#xab;" horiz-adv-x="1206" 
d="M1038 944h194l-394 -422l246 -422h-194l-246 422zM630 944h194l-394 -422l246 -422h-194l-246 422z" />
    <glyph glyph-name="logicalnot" unicode="&#xac;" horiz-adv-x="1086" 
d="M1004 108h-224l52 300h-658l32 184h882z" />
    <glyph glyph-name="acute" unicode="&#xb4;" horiz-adv-x="756" 
d="M276 1268l128 300h292l-216 -300h-204z" />
    <glyph glyph-name="periodcentered" unicode="&#xb7;" horiz-adv-x="446" 
d="M172 400l44 244h244l-44 -244h-244z" />
    <glyph glyph-name="guillemotright" unicode="&#xbb;" horiz-adv-x="1170" 
d="M684 944h194l248 -422l-396 -422h-194l396 422zM276 944h196l246 -422l-394 -422h-196l396 422z" />
    <glyph glyph-name="questiondown" unicode="&#xbf;" horiz-adv-x="1156" 
d="M1046 1426l-44 -242h-244l44 242h244zM1136 158q-65 -87 -180.5 -132.5t-303.5 -45.5q-263 0 -405.5 99.5t-114.5 262.5q21 114 101 203t249 185q147 84 195.5 135.5t64.5 142.5h214q-15 -84 -34 -136.5t-58.5 -102t-96 -89.5t-155.5 -96q-122 -69 -179 -125t-67 -117
q-13 -75 75.5 -120.5t246.5 -45.5q96 0 171 18.5t135 57.5t105 86.5t97 119.5z" />
    <glyph glyph-name="Agrave" unicode="&#xc0;" horiz-adv-x="1512" 
d="M954 1648l-162 300q292 -2 292 0q4 1 22.5 -74t35.5 -150l16 -76h-204zM22 0l856 1426h272l340 -1426h-272l-66 286l-696 -4q-138 -239 -162 -282h-272zM568 474h540l-152 656q-284 -479 -388 -656z" />
    <glyph glyph-name="Aacute" unicode="&#xc1;" horiz-adv-x="1512" 
d="M954 1648l182 300q292 -2 292 0q4 1 -63.5 -74t-136.5 -150l-70 -76h-204zM22 0l856 1426h272l340 -1426h-272l-66 286l-696 -4q-138 -239 -162 -282h-272zM568 474h540l-152 656q-284 -479 -388 -656z" />
    <glyph glyph-name="Acircumflex" unicode="&#xc2;" horiz-adv-x="1512" 
d="M1078 1774l-176 -126h-204l300 300h224l192 -300h-204q-128 126 -132 126zM22 0l856 1426h272l340 -1426h-272l-66 286l-696 -4q-138 -239 -162 -282h-272zM568 474h540l-152 656q-284 -479 -388 -656z" />
    <glyph glyph-name="Atilde" unicode="&#xc3;" horiz-adv-x="1512" 
d="M872 1648h-164q25 139 96.5 227.5t153.5 86.5q41 0 78.5 -19t61.5 -44t58.5 -54t65.5 -43q27 -7 42.5 29t27.5 111h164q-24 -141 -91.5 -226.5t-154.5 -85.5v2v-2q-33 0 -65.5 16.5t-58 39.5t-49 46t-48 39.5t-45.5 16.5t-40.5 -38.5t-31.5 -101.5zM22 0l856 1426h272
l340 -1426h-272l-66 286l-696 -4q-138 -239 -162 -282h-272zM568 474h540l-152 656q-284 -479 -388 -656z" />
    <glyph glyph-name="Adieresis" unicode="&#xc4;" horiz-adv-x="1512" 
d="M1100 1648l44 244h242l-44 -244h-242zM770 1648l44 244h242l-44 -244h-242zM22 0l856 1426h272l340 -1426h-272l-66 286l-696 -4q-138 -239 -162 -282h-272zM568 474h540l-152 656q-284 -479 -388 -656z" />
    <glyph glyph-name="Aring" unicode="&#xc5;" horiz-adv-x="1512" 
d="M1026 1820q-9 -68 48 -68q63 0 72 68q12 63 -48 66q-22 2 -44 -17t-28 -49zM914 1820q15 80 68 124t134 44t119 -44.5t23 -123.5q-30 -172 -202 -172t-142 172zM22 0l856 1426h272l340 -1426h-272l-66 286l-696 -4q-138 -239 -162 -282h-272zM568 474h540l-152 656
q-284 -479 -388 -656z" />
    <glyph glyph-name="Ccedilla" unicode="&#xc7;" horiz-adv-x="1442" 
d="M750 -206q-72 0 -92 -34v2v-2q-24 1 -39.5 11t-18.5 19l-4 10l100 202q-170 39 -286 143.5t-161 251.5t-15 315q26 148 107 281.5t200 234t278.5 159.5t332.5 59t303 -48.5t169 -127.5l-40 -188q-59 56 -191.5 108t-276.5 52q-153 0 -286 -73t-218 -193.5t-110 -263.5
t17.5 -263.5t150 -193.5t260.5 -73q168 0 296 48t238 142l-36 -214q-66 -93 -262.5 -145.5t-397.5 -24.5l-52 -108q29 20 72 20q91 0 137 -53.5t31 -142.5q-17 -92 -87.5 -147t-170.5 -55q-127 0 -160 44l22 122q34 -34 65 -46t87 -12q46 0 78 26t40 68q8 41 -14 65.5
t-66 24.5z" />
    <glyph glyph-name="Egrave" unicode="&#xc8;" 
d="M880 1648l-162 300h292l74 -300h-204zM178 0q100 572 252 1426h1028l-36 -204l-778 2q-14 -81 -39 -222.5t-35 -199.5h524l-32 -194h-526q-30 -168 -72 -406h808l-36 -202h-1058z" />
    <glyph glyph-name="Eacute" unicode="&#xc9;" 
d="M880 1648l182 300h292l-270 -300h-204zM178 0q100 572 252 1426h1028l-36 -204l-778 2q-14 -81 -39 -222.5t-35 -199.5h524l-32 -194h-526q-30 -168 -72 -406h808l-36 -202h-1058z" />
    <glyph glyph-name="Ecircumflex" unicode="&#xca;" 
d="M1004 1774l-176 -126h-204l300 300h224l192 -300h-204q-128 126 -132 126zM178 0q100 572 252 1426h1028l-36 -204l-778 2q-14 -81 -39 -222.5t-35 -199.5h524l-32 -194h-526q-30 -168 -72 -406h808l-36 -202h-1058z" />
    <glyph glyph-name="Edieresis" unicode="&#xcb;" 
d="M1026 1648l44 244h242l-44 -244h-242zM696 1648l44 244h242l-44 -244h-242zM178 0q100 572 252 1426h1028l-36 -204l-778 2q-14 -81 -39 -222.5t-35 -199.5h524l-32 -194h-526q-30 -168 -72 -406h808l-36 -202h-1058z" />
    <glyph glyph-name="Igrave" unicode="&#xcc;" horiz-adv-x="600" 
d="M490 1648l-162 300q282 -6 292 0l74 -300h-204zM178 0q100 572 252 1426h250l-252 -1426h-250zM620 1948z" />
    <glyph glyph-name="Iacute" unicode="&#xcd;" horiz-adv-x="600" 
d="M490 1648l182 300q6 0 15.5 -0.5t37.5 -1t54 -0.5t58.5 -0.5t57 -0.5h43.5t24 1q-9 -8 -76 -82.5t-130 -145.5l-62 -70h-204zM178 0q100 572 252 1426h250l-252 -1426h-250zM962 1946l2 2z" />
    <glyph glyph-name="Icircumflex" unicode="&#xce;" horiz-adv-x="600" 
d="M614 1774l-176 -126h-204l300 300h224l192 -300h-204q-128 126 -132 126zM178 0q100 572 252 1426h250l-252 -1426h-250z" />
    <glyph glyph-name="Idieresis" unicode="&#xcf;" horiz-adv-x="600" 
d="M636 1648l44 244h242l-44 -244h-242zM306 1648l44 244h242l-44 -244h-242zM178 0q100 572 252 1426h250l-252 -1426h-250z" />
    <glyph glyph-name="Ntilde" unicode="&#xd1;" horiz-adv-x="1570" 
d="M894 1648h-164q25 138 97.5 226t152.5 88q41 0 79 -19t63 -42.5t59 -53.5t63 -45q26 -3 42 33t28 107h164q-24 -141 -92.5 -227.5t-155.5 -86.5v0q-40 0 -80.5 25t-67.5 55t-58.5 55t-57.5 25q-21 0 -40.5 -38.5t-31.5 -101.5zM1400 1426h250l-252 -1426h-354l-436 1014
q-34 -185 -95 -534t-85 -480h-250q38 214 126 713t126 713h282l488 -1132z" />
    <glyph glyph-name="Ograve" unicode="&#xd2;" horiz-adv-x="1690" 
d="M1036 1648l-162 300h292l74 -300h-204zM512 712q-42 -236 57.5 -369t310.5 -133q212 0 364.5 133.5t193.5 368.5q38 221 -77.5 359.5t-318.5 138.5q-199 0 -345 -136.5t-185 -361.5zM244 712q27 154 107 290.5t193.5 233.5t258.5 153.5t299 56.5t279.5 -56.5
t205.5 -153.5t112 -233.5t5 -290.5q-39 -218 -159 -384t-302 -257t-399 -91t-366.5 91t-211 257t-22.5 384z" />
    <glyph glyph-name="Oacute" unicode="&#xd3;" horiz-adv-x="1690" 
d="M1036 1648l182 300h292l-270 -300h-204zM512 712q-42 -236 57.5 -369t310.5 -133q212 0 364.5 133.5t193.5 368.5q38 221 -77.5 359.5t-318.5 138.5q-199 0 -345 -136.5t-185 -361.5zM244 712q27 154 107 290.5t193.5 233.5t258.5 153.5t299 56.5t279.5 -56.5
t205.5 -153.5t112 -233.5t5 -290.5q-39 -218 -159 -384t-302 -257t-399 -91t-366.5 91t-211 257t-22.5 384z" />
    <glyph glyph-name="Ocircumflex" unicode="&#xd4;" horiz-adv-x="1690" 
d="M1160 1774l-176 -126h-204l300 300h224l192 -300h-204q-128 126 -132 126zM512 712q-42 -236 57.5 -369t310.5 -133q212 0 364.5 133.5t193.5 368.5q38 221 -77.5 359.5t-318.5 138.5q-199 0 -345 -136.5t-185 -361.5zM244 712q27 154 107 290.5t193.5 233.5t258.5 153.5
t299 56.5t279.5 -56.5t205.5 -153.5t112 -233.5t5 -290.5q-39 -218 -159 -384t-302 -257t-399 -91t-366.5 91t-211 257t-22.5 384z" />
    <glyph glyph-name="Otilde" unicode="&#xd5;" horiz-adv-x="1690" 
d="M954 1648h-164q26 141 94.5 227.5t155.5 86.5q53 0 119 -40t105 -80l40 -40q21 0 40.5 38.5t29.5 101.5h164q-24 -141 -92.5 -227.5t-155.5 -86.5q-40 0 -80.5 25t-67.5 55t-58.5 55t-57.5 25q-21 0 -40.5 -38.5t-31.5 -101.5zM512 712q-42 -236 57.5 -369t310.5 -133
q212 0 364.5 133.5t193.5 368.5q38 221 -77.5 359.5t-318.5 138.5q-199 0 -345 -136.5t-185 -361.5zM244 712q27 154 107 290.5t193.5 233.5t258.5 153.5t299 56.5t279.5 -56.5t205.5 -153.5t112 -233.5t5 -290.5q-39 -218 -159 -384t-302 -257t-399 -91t-366.5 91t-211 257
t-22.5 384z" />
    <glyph glyph-name="Odieresis" unicode="&#xd6;" horiz-adv-x="1690" 
d="M1182 1648l44 244h242l-44 -244h-242zM852 1648l44 244h242l-44 -244h-242zM512 712q-42 -236 57.5 -369t310.5 -133q212 0 364.5 133.5t193.5 368.5q38 221 -77.5 359.5t-318.5 138.5q-199 0 -345 -136.5t-185 -361.5zM244 712q27 154 107 290.5t193.5 233.5
t258.5 153.5t299 56.5t279.5 -56.5t205.5 -153.5t112 -233.5t5 -290.5q-39 -218 -159 -384t-302 -257t-399 -91t-366.5 91t-211 257t-22.5 384z" />
    <glyph glyph-name="Oslash" unicode="&#xd8;" horiz-adv-x="1690" 
d="M512 712q-35 -200 34 -332l782 726q-110 104 -286 104q-199 0 -345 -136.5t-185 -361.5zM244 712q27 154 107 290.5t193.5 233.5t258.5 153.5t299 56.5q260 0 428 -152l164 152h138l-238 -220q78 -99 107.5 -231.5t2.5 -282.5q-39 -218 -159 -384t-302 -257t-399 -91
q-272 0 -438 144l-154 -144h-138l228 212q-155 202 -98 520zM1388 1034l-786 -728q102 -96 278 -96q212 0 364.5 133.5t193.5 368.5q32 189 -50 322z" />
    <glyph glyph-name="Ugrave" unicode="&#xd9;" horiz-adv-x="1518" 
d="M946 1628l-164 300h292l76 -300h-204zM416 1426h250l-148 -832q-33 -190 38 -287t242 -97q347 0 414 384l146 832h250l-156 -876q-50 -282 -225.5 -426t-470.5 -144t-420.5 144t-75.5 426z" />
    <glyph glyph-name="Uacute" unicode="&#xda;" horiz-adv-x="1518" 
d="M946 1628l180 300h292l-268 -300h-204zM416 1426h250l-148 -832q-33 -190 38 -287t242 -97q347 0 414 384l146 832h250l-156 -876q-50 -282 -225.5 -426t-470.5 -144t-420.5 144t-75.5 426z" />
    <glyph glyph-name="Ucircumflex" unicode="&#xdb;" horiz-adv-x="1518" 
d="M1070 1754l-176 -126h-204l298 300h224l194 -300h-204q-128 126 -132 126zM416 1426h250l-148 -832q-33 -190 38 -287t242 -97q347 0 414 384l146 832h250l-156 -876q-50 -282 -225.5 -426t-470.5 -144t-420.5 144t-75.5 426z" />
    <glyph glyph-name="Udieresis" unicode="&#xdc;" horiz-adv-x="1518" 
d="M1092 1628l42 244h242l-42 -244h-242zM762 1628l42 244h242l-42 -244h-242zM416 1426h250l-148 -832q-33 -190 38 -287t242 -97q347 0 414 384l146 832h250l-156 -876q-50 -282 -225.5 -426t-470.5 -144t-420.5 144t-75.5 426z" />
    <glyph glyph-name="Yacute" unicode="&#xdd;" horiz-adv-x="1316" 
d="M854 1648l182 300h290l-270 -300h-202zM808 100q-1 -2 -8.5 -48t-9.5 -52h-250l118 662h-2l-368 764h258l272 -568l472 568h256l-638 -762z" />
    <glyph glyph-name="Thorn" unicode="&#xde;" horiz-adv-x="1310" 
d="M178 0q116 663 250 1416q0 4 2 10h250q-8 -43 -50 -286h290q258 0 370 -108t74 -320q-76 -426 -596 -426h-290l-32 -186l-16 -90q0 -4 -2 -10h-250zM512 478l300 2q260 0 302 232q20 116 -41 175t-199 59h-280q-39 -233 -82 -468z" />
    <glyph glyph-name="agrave" unicode="&#xe0;" horiz-adv-x="1388" 
d="M734 1268l-164 300h292l76 -300h-204zM412 512q-28 -159 36.5 -239.5t211.5 -80.5q109 0 205 88.5t123 241.5q27 152 -38 240t-174 88q-145 0 -240 -88.5t-124 -249.5zM196 522q43 244 204 393t382 149q164 0 280 -122l18 102h224l-184 -1044h-224q6 32 16 92
q-156 -112 -322 -112q-221 0 -329 149t-65 393z" />
    <glyph glyph-name="aacute" unicode="&#xe1;" horiz-adv-x="1388" 
d="M734 1268l180 300h292l-268 -300h-204zM412 512q-28 -159 36.5 -239.5t211.5 -80.5q109 0 205 88.5t123 241.5q27 152 -38 240t-174 88q-145 0 -240 -88.5t-124 -249.5zM196 522q43 244 204 393t382 149q164 0 280 -122l18 102h224l-184 -1044h-224q6 32 16 92
q-156 -112 -322 -112q-221 0 -329 149t-65 393z" />
    <glyph glyph-name="acircumflex" unicode="&#xe2;" horiz-adv-x="1386" 
d="M858 1392l-176 -124h-204l298 300h224l194 -300h-204q-128 124 -132 124zM412 512q-28 -159 36.5 -239.5t211.5 -80.5q109 0 205 88.5t123 241.5q27 152 -38 240t-174 88q-145 0 -240 -88.5t-124 -249.5zM196 522q43 244 204 393t382 149q164 0 280 -122l18 102h224
l-184 -1044h-224q6 32 16 92q-156 -112 -322 -112q-221 0 -329 149t-65 393z" />
    <glyph glyph-name="atilde" unicode="&#xe3;" horiz-adv-x="1386" 
d="M652 1268h-164q24 141 92.5 227.5t155.5 86.5q41 0 79 -19t62.5 -42.5t59 -53.5t63.5 -45q31 1 44 29t25 92q2 13 3 19h164q-26 -141 -94.5 -227.5t-155.5 -86.5v0q-40 0 -80.5 25t-67.5 55t-58.5 55t-57.5 25q-21 0 -40.5 -38.5t-29.5 -101.5zM412 512
q-28 -159 36.5 -239.5t211.5 -80.5q109 0 205 88.5t123 241.5q27 152 -38 240t-174 88q-145 0 -240 -88.5t-124 -249.5zM196 522q43 244 204 393t382 149q164 0 280 -122l18 102h224l-184 -1044h-224q6 32 16 92q-156 -112 -322 -112q-221 0 -329 149t-65 393z" />
    <glyph glyph-name="adieresis" unicode="&#xe4;" horiz-adv-x="1386" 
d="M932 1268l42 242h242l-42 -242h-242zM498 1268l42 242h244l-42 -242h-244zM412 512q-28 -159 36.5 -239.5t211.5 -80.5q109 0 205 88.5t123 241.5q27 152 -38 240t-174 88q-145 0 -240 -88.5t-124 -249.5zM196 522q43 244 204 393t382 149q164 0 280 -122l18 102h224
l-184 -1044h-224q6 32 16 92q-156 -112 -322 -112q-221 0 -329 149t-65 393z" />
    <glyph glyph-name="aring" unicode="&#xe5;" horiz-adv-x="1386" 
d="M806 1438q-12 -68 48 -68t72 68q5 33 -5.5 49.5t-42.5 16.5q-29 0 -48.5 -17.5t-23.5 -48.5zM694 1438q13 81 67 125.5t135 44.5t118 -44.5t24 -125.5q-30 -170 -202 -170t-142 170zM412 512q-28 -159 36.5 -239.5t211.5 -80.5q109 0 205 88.5t123 241.5q27 152 -38 240
t-174 88q-145 0 -240 -88.5t-124 -249.5zM196 522q43 244 204 393t382 149q164 0 280 -122l18 102h224l-184 -1044h-224q6 32 16 92q-156 -112 -322 -112q-221 0 -329 149t-65 393z" />
    <glyph glyph-name="ccedilla" unicode="&#xe7;" horiz-adv-x="1120" 
d="M580 -206q-72 0 -92 -34v2v-2q-24 1 -39.5 11t-18.5 19l-4 10l100 198q-192 40 -278.5 171t-47.5 353q24 136 87.5 240.5t155.5 169.5t204.5 97.5t240.5 32.5q134 0 219 -38t117 -88l-40 -182q-14 11 -44 35t-40.5 31.5t-34.5 23.5t-40 20.5t-43 12t-57 9.5t-69 2
q-157 0 -269.5 -92.5t-144.5 -273.5q-32 -180 49.5 -269t252.5 -89q48 0 84.5 4.5t78 21t58 24.5t73 41.5t76.5 44.5l-36 -184q-56 -77 -190 -112.5t-290 -17.5l-50 -104q30 18 70 18q91 0 137 -53.5t31 -142.5q-17 -92 -87.5 -147t-170.5 -55q-127 0 -160 44l22 122
q34 -34 65 -46t87 -12q46 0 78 26t40 68q8 41 -14 65.5t-66 24.5z" />
    <glyph glyph-name="egrave" unicode="&#xe8;" horiz-adv-x="1128" 
d="M744 1268l-164 300h292l76 -300h-204zM1124 304l-34 -164q-60 -73 -169 -116.5t-257 -43.5q-263 0 -389.5 135t-78.5 407q32 183 119.5 306t212 179.5t282.5 56.5q126 0 213.5 -42.5t130.5 -120t51.5 -186.5t-23.5 -243h-224q13 57 16 98l-16 -98h-526
q-15 -150 55.5 -224t210.5 -74q94 0 172.5 23.5t152 60.5t101.5 46zM978 612q8 131 -42.5 204.5t-157.5 73.5q-112 0 -195 -69t-125 -209h520zM434 492l4 30q-4 -20 -4 -30z" />
    <glyph glyph-name="eacute" unicode="&#xe9;" horiz-adv-x="1128" 
d="M744 1268l180 300h292l-268 -300h-204zM1124 304l-34 -164q-60 -73 -169 -116.5t-257 -43.5q-263 0 -389.5 135t-78.5 407q32 183 119.5 306t212 179.5t282.5 56.5q126 0 213.5 -42.5t130.5 -120t51.5 -186.5t-23.5 -243h-224q13 57 16 98l-16 -98h-526
q-15 -150 55.5 -224t210.5 -74q94 0 172.5 23.5t152 60.5t101.5 46zM978 612q8 131 -42.5 204.5t-157.5 73.5q-112 0 -195 -69t-125 -209h520zM434 492l4 30q-4 -20 -4 -30z" />
    <glyph glyph-name="ecircumflex" unicode="&#xea;" horiz-adv-x="1128" 
d="M868 1392l-176 -124h-204l298 300h224l194 -300h-204q-128 124 -132 124zM1124 304l-34 -164q-60 -73 -169 -116.5t-257 -43.5q-263 0 -389.5 135t-78.5 407q32 183 119.5 306t212 179.5t282.5 56.5q126 0 213.5 -42.5t130.5 -120t51.5 -186.5t-23.5 -243h-224
q13 57 16 98l-16 -98h-526q-15 -150 55.5 -224t210.5 -74q94 0 172.5 23.5t152 60.5t101.5 46zM978 612q8 131 -42.5 204.5t-157.5 73.5q-112 0 -195 -69t-125 -209h520zM434 492l4 30q-4 -20 -4 -30z" />
    <glyph glyph-name="edieresis" unicode="&#xeb;" horiz-adv-x="1128" 
d="M890 1268l42 242h242l-42 -242h-242zM560 1268l42 242h242l-42 -242h-242zM1124 304l-34 -164q-60 -73 -169 -116.5t-257 -43.5q-263 0 -389.5 135t-78.5 407q32 183 119.5 306t212 179.5t282.5 56.5q126 0 213.5 -42.5t130.5 -120t51.5 -186.5t-23.5 -243h-224
q13 57 16 98l-16 -98h-526q-15 -150 55.5 -224t210.5 -74q94 0 172.5 23.5t152 60.5t101.5 46zM978 612q8 131 -42.5 204.5t-157.5 73.5q-112 0 -195 -69t-125 -209h520zM434 492l4 30q-4 -20 -4 -30z" />
    <glyph glyph-name="igrave" unicode="&#xec;" horiz-adv-x="590" 
d="M458 1268l-164 300q278 -2 292 0q4 -5 23 -80t36 -148l17 -72h-204zM224 0l184 1044h224l-184 -1044h-224zM586 1568z" />
    <glyph glyph-name="iacute" unicode="&#xed;" horiz-adv-x="590" 
d="M458 1268l180 300q272 -2 292 0l-268 -300h-204zM224 0l184 1044h224l-184 -1044h-224zM930 1568z" />
    <glyph glyph-name="icircumflex" unicode="&#xee;" horiz-adv-x="590" 
d="M582 1392l-176 -124h-204l298 300h224l194 -300h-204q-128 124 -132 124zM224 0l184 1044h224l-184 -1044h-224z" />
    <glyph glyph-name="idieresis" unicode="&#xef;" horiz-adv-x="590" 
d="M656 1268l42 242h242l-42 -242h-242zM222 1268l42 242h244l-42 -242h-244zM224 0l184 1044h224l-184 -1044h-224z" />
    <glyph glyph-name="ntilde" unicode="&#xf1;" horiz-adv-x="1150" 
d="M616 1268h-164q24 139 92.5 225t155.5 89q41 1 77 -17t60 -42.5t59 -54.5t68 -46q22 -1 35.5 16.5t18.5 37t14 65.5q1 4 1.5 7t1 7t1.5 7h164q-26 -141 -94.5 -227.5t-155.5 -86.5v0q-40 0 -80.5 25t-67.5 55t-58.5 55t-57.5 25q-21 0 -40.5 -38.5t-29.5 -101.5zM794 0
q92 444 112 634q8 70 -36 126t-128 56q-242 0 -272 -170l-114 -646h-222q128 731 184 1044h222q-3 -21 -11 -64t-11 -64q65 68 156 103t194 35q155 0 226 -108t36 -312l-112 -634h-224z" />
    <glyph glyph-name="ograve" unicode="&#xf2;" horiz-adv-x="1242" 
d="M744 1268l-164 300h292l76 -300h-204zM402 526q-30 -167 38.5 -259.5t213.5 -92.5q65 0 121 18t105.5 57t85 108t52.5 163q30 169 -31.5 261.5t-204.5 92.5q-65 0 -123.5 -18.5t-111 -57.5t-90.5 -108.5t-55 -163.5zM196 522q32 183 119.5 306t212 179.5t282.5 56.5
q260 0 363.5 -144t58.5 -398q-32 -183 -119.5 -306t-212 -179.5t-282.5 -56.5q-260 0 -363.5 144t-58.5 398z" />
    <glyph glyph-name="oacute" unicode="&#xf3;" horiz-adv-x="1242" 
d="M744 1268l180 300h292l-268 -300h-204zM402 526q-30 -167 38.5 -259.5t213.5 -92.5q65 0 121 18t105.5 57t85 108t52.5 163q30 169 -31.5 261.5t-204.5 92.5q-65 0 -123.5 -18.5t-111 -57.5t-90.5 -108.5t-55 -163.5zM196 522q32 183 119.5 306t212 179.5t282.5 56.5
q260 0 363.5 -144t58.5 -398q-32 -183 -119.5 -306t-212 -179.5t-282.5 -56.5q-260 0 -363.5 144t-58.5 398z" />
    <glyph glyph-name="ocircumflex" unicode="&#xf4;" horiz-adv-x="1242" 
d="M868 1392l-176 -124h-204l298 300h224l194 -300h-204q-128 124 -132 124zM402 526q-30 -167 38.5 -259.5t213.5 -92.5q65 0 121 18t105.5 57t85 108t52.5 163q30 169 -31.5 261.5t-204.5 92.5q-65 0 -123.5 -18.5t-111 -57.5t-90.5 -108.5t-55 -163.5zM196 522
q32 183 119.5 306t212 179.5t282.5 56.5q260 0 363.5 -144t58.5 -398q-32 -183 -119.5 -306t-212 -179.5t-282.5 -56.5q-260 0 -363.5 144t-58.5 398z" />
    <glyph glyph-name="otilde" unicode="&#xf5;" horiz-adv-x="1242" 
d="M662 1268h-164q24 141 92.5 227.5t155.5 86.5q53 0 119 -40t105 -80l40 -40q21 0 40.5 38.5t31.5 101.5h164q-26 -141 -94.5 -227.5t-155.5 -86.5q-40 0 -80.5 25t-67.5 55t-58.5 55t-57.5 25q-21 0 -40.5 -38.5t-29.5 -101.5zM402 526q-30 -167 38.5 -259.5t213.5 -92.5
q65 0 121 18t105.5 57t85 108t52.5 163q30 169 -31.5 261.5t-204.5 92.5q-65 0 -123.5 -18.5t-111 -57.5t-90.5 -108.5t-55 -163.5zM196 522q32 183 119.5 306t212 179.5t282.5 56.5q260 0 363.5 -144t58.5 -398q-32 -183 -119.5 -306t-212 -179.5t-282.5 -56.5
q-260 0 -363.5 144t-58.5 398z" />
    <glyph glyph-name="odieresis" unicode="&#xf6;" horiz-adv-x="1242" 
d="M890 1268l42 242h242l-42 -242h-242zM560 1268l42 242h242l-42 -242h-242zM402 526q-30 -167 38.5 -259.5t213.5 -92.5q65 0 121 18t105.5 57t85 108t52.5 163q30 169 -31.5 261.5t-204.5 92.5q-65 0 -123.5 -18.5t-111 -57.5t-90.5 -108.5t-55 -163.5zM196 522
q32 183 119.5 306t212 179.5t282.5 56.5q260 0 363.5 -144t58.5 -398q-32 -183 -119.5 -306t-212 -179.5t-282.5 -56.5q-260 0 -363.5 144t-58.5 398z" />
    <glyph glyph-name="oslash" unicode="&#xf8;" horiz-adv-x="1242" 
d="M402 526q-26 -141 22 -234l540 518q-64 64 -182 64q-65 0 -123.5 -18.5t-111 -57.5t-90.5 -108.5t-55 -163.5zM196 522q32 183 119.5 306t212 179.5t282.5 56.5q209 0 320 -96l100 96h98l-152 -146q102 -144 56 -396q-32 -183 -119.5 -306t-212 -179.5t-282.5 -56.5
q-209 0 -320 96l-100 -96h-98l152 146q-102 144 -56 396zM1002 752l-536 -514q70 -64 188 -64q65 0 121 18t105.5 57t85 108t52.5 163q25 148 -16 232z" />
    <glyph glyph-name="ugrave" unicode="&#xf9;" horiz-adv-x="1160" 
d="M698 1268l-164 300q19 0 50 -0.5t96 -1t107 0t39 1.5q3 1 22 -74t36 -150l18 -76h-204zM1018 0h-224q6 38 20 110q-70 -62 -156 -96t-172 -34q-136 0 -207 47t-85 140t10 231q80 452 114 646h222l-114 -646q-19 -112 16 -164t150 -52q105 0 180.5 63.5t93.5 166.5
q24 136 112 632h224q-180 -1026 -184 -1044z" />
    <glyph glyph-name="uacute" unicode="&#xfa;" horiz-adv-x="1160" 
d="M698 1268l180 300q284 -4 292 0q-3 -5 -70 -80t-132 -148l-66 -72h-204zM1170 1568zM1018 0h-224q6 38 20 110q-70 -62 -156 -96t-172 -34q-136 0 -207 47t-85 140t10 231q80 452 114 646h222l-114 -646q-19 -112 16 -164t150 -52q105 0 180.5 63.5t93.5 166.5
q24 136 112 632h224q-180 -1026 -184 -1044z" />
    <glyph glyph-name="ucircumflex" unicode="&#xfb;" horiz-adv-x="1160" 
d="M822 1392l-176 -124h-204l298 300h224l194 -300h-204q-128 124 -132 124zM1018 0h-224q6 38 20 110q-70 -62 -156 -96t-172 -34q-136 0 -207 47t-85 140t10 231q80 452 114 646h222l-114 -646q-19 -112 16 -164t150 -52q105 0 180.5 63.5t93.5 166.5q24 136 112 632h224
q-180 -1026 -184 -1044z" />
    <glyph glyph-name="udieresis" unicode="&#xfc;" horiz-adv-x="1160" 
d="M844 1268l42 242h242l-42 -242h-242zM514 1268l42 242h242l-42 -242h-242zM1018 0h-224q6 38 20 110q-70 -62 -156 -96t-172 -34q-136 0 -207 47t-85 140t10 231q80 452 114 646h222l-114 -646q-19 -112 16 -164t150 -52q105 0 180.5 63.5t93.5 166.5q24 136 112 632h224
q-180 -1026 -184 -1044z" />
    <glyph glyph-name="yacute" unicode="&#xfd;" horiz-adv-x="1040" 
d="M644 1268l180 300h290l-268 -300h-202zM208 1044h252l146 -700l344 700h252l-648 -1220q-73 -142 -173.5 -205t-252.5 -63q-18 0 -66 5t-87 10l-39 5l36 210q150 -36 190 -36q87 0 130.5 23t77.5 89l64 132z" />
    <glyph glyph-name="thorn" unicode="&#xfe;" horiz-adv-x="1260" 
d="M524 1524h110q-4 -20 -110 -624q144 164 376 164q201 0 297 -149t53 -393q-44 -244 -192.5 -393t-349.5 -149q-231 0 -316 162l-110 -620l-16 -90q0 -4 -2 -10h-222q254 1437 366 2078q1 4 2 12t2 12h112zM794 880q-130 0 -218 -90.5t-120 -273.5q-29 -177 27.5 -264.5
t182.5 -87.5q125 0 219.5 99t122.5 259q29 161 -30.5 259.5t-183.5 98.5z" />
    <glyph glyph-name="ydieresis" unicode="&#xff;" horiz-adv-x="1040" 
d="M788 1268l42 242h244l-42 -242h-244zM458 1268l42 242h244l-42 -242h-244zM208 1044h252l146 -700l344 700h252l-648 -1220q-73 -142 -173.5 -205t-252.5 -63q-18 0 -66 5t-87 10l-39 5l36 210q150 -36 190 -36q87 0 130.5 23t77.5 89l64 132z" />
    <glyph glyph-name="Amacron" unicode="&#x100;" horiz-adv-x="1512" 
d="M736 1648l28 156h108t208.5 0.5t234 0.5t89.5 -1l-28 -156h-640zM22 0l856 1426h272l340 -1426h-272l-66 286l-696 -4q-138 -239 -162 -282h-272zM568 474h540l-152 656q-284 -479 -388 -656z" />
    <glyph glyph-name="amacron" unicode="&#x101;" horiz-adv-x="1262" 
d="M516 1268l26 154h640q3 0 -3.5 -38.5t-14.5 -77.5l-8 -38h-640zM412 512q-28 -159 36.5 -239.5t211.5 -80.5q109 0 205 88.5t123 241.5q27 152 -38 240t-174 88q-145 0 -240 -88.5t-124 -249.5zM196 522q43 244 204 393t382 149q164 0 280 -122l18 102h224l-184 -1044
h-224q6 32 16 92q-156 -112 -322 -112q-221 0 -329 149t-65 393z" />
    <glyph glyph-name="Abreve" unicode="&#x102;" horiz-adv-x="1512" 
d="M766 1916h164q-10 -58 33.5 -94t116.5 -38q79 -1 133 35.5t65 96.5h166q-23 -129 -130 -208.5t-260 -79.5q-152 0 -231 79.5t-57 208.5zM22 0l856 1426h272l340 -1426h-272l-66 286l-696 -4q-138 -239 -162 -282h-272zM568 474h540l-152 656q-284 -479 -388 -656z" />
    <glyph glyph-name="abreve" unicode="&#x103;" horiz-adv-x="1262" 
d="M544 1534h164q-10 -60 32 -96t120 -36q82 0 133.5 35.5t62.5 96.5h166q-22 -129 -129.5 -207.5t-260.5 -78.5q-152 0 -231 78.5t-57 207.5zM412 512q-28 -159 36.5 -239.5t211.5 -80.5q109 0 205 88.5t123 241.5q27 152 -38 240t-174 88q-145 0 -240 -88.5t-124 -249.5z
M196 522q43 244 204 393t382 149q164 0 280 -122l18 102h224l-184 -1044h-224q6 32 16 92q-156 -112 -322 -112q-221 0 -329 149t-65 393z" />
    <glyph glyph-name="Aogonek" unicode="&#x104;" horiz-adv-x="1512" 
d="M22 0l856 1426h272l340 -1426q-33 -16 -82.5 -73t-57.5 -103q-9 -52 28 -84t106 -32q111 0 140 26v-122q-18 -18 -67 -29t-109 -11q-120 0 -182 62.5t-44 167.5q21 81 150 198h-154l-66 286l-696 -4q-138 -239 -162 -282h-272zM568 474h540l-152 656q-284 -479 -388 -656
z" />
    <glyph glyph-name="aogonek" unicode="&#x105;" horiz-adv-x="1262" 
d="M412 512q-28 -159 36.5 -239.5t211.5 -80.5q109 0 205 88.5t123 241.5q27 152 -38 240t-174 88q-145 0 -240 -88.5t-124 -249.5zM196 522q43 244 204 393t382 149q164 0 280 -122l18 102h224q-32 -182 -72 -409t-63.5 -359.5t-34.5 -197.5l-14 -78q-32 -16 -81 -71
t-57 -99q-10 -55 26.5 -88.5t105.5 -33.5q111 0 140 26v-122q-18 -18 -67 -29t-109 -11q-119 0 -179.5 64t-46.5 172q10 67 168 192h-124q6 32 16 92q-156 -112 -322 -112q-221 0 -329 149t-65 393z" />
    <glyph glyph-name="Cacute" unicode="&#x106;" horiz-adv-x="1442" 
d="M942 1648l182 300h292l-270 -300h-204zM1464 372l-36 -214q-56 -80 -203 -129t-331 -49q-173 0 -312 59t-223 158.5t-117.5 233t-7.5 281.5t107 281.5t200 234t278.5 159.5t332.5 59t303 -48.5t169 -127.5l-40 -188q-59 56 -191.5 108t-276.5 52q-153 0 -286 -73
t-218 -193.5t-110 -263.5t17.5 -263.5t150 -193.5t260.5 -73q168 0 296 48t238 142z" />
    <glyph glyph-name="cacute" unicode="&#x107;" horiz-adv-x="1116" 
d="M818 1268l180 300h292l-268 -300h-204zM1110 300l-36 -184q-46 -62 -143 -99t-223 -37q-138 0 -243 32.5t-174 98t-94 169.5t-1 242q24 136 87.5 240.5t155.5 169.5t204.5 97.5t240.5 32.5q134 0 219 -38t117 -88l-40 -182q-14 11 -44 35t-40.5 31.5t-34.5 23.5t-40 20.5
t-43 12t-57 9.5t-69 2q-157 0 -269.5 -92.5t-144.5 -273.5q-32 -180 49.5 -269t252.5 -89q48 0 84.5 4.5t78 21t58 24.5t73 41.5t76.5 44.5z" />
    <glyph glyph-name="Ccircumflex" unicode="&#x108;" horiz-adv-x="1442" 
d="M1066 1774l-176 -126h-204l300 300h224l192 -300h-204q-128 126 -132 126zM1464 372l-36 -214q-56 -80 -203 -129t-331 -49q-173 0 -312 59t-223 158.5t-117.5 233t-7.5 281.5t107 281.5t200 234t278.5 159.5t332.5 59t303 -48.5t169 -127.5l-40 -188q-59 56 -191.5 108
t-276.5 52q-153 0 -286 -73t-218 -193.5t-110 -263.5t17.5 -263.5t150 -193.5t260.5 -73q168 0 296 48t238 142z" />
    <glyph glyph-name="Cdotaccent" unicode="&#x10a;" horiz-adv-x="1442" 
d="M922 1648l44 244h244l-44 -244h-244zM1464 372l-36 -214q-56 -80 -203 -129t-331 -49q-173 0 -312 59t-223 158.5t-117.5 233t-7.5 281.5t107 281.5t200 234t278.5 159.5t332.5 59t303 -48.5t169 -127.5l-40 -188q-59 56 -191.5 108t-276.5 52q-153 0 -286 -73
t-218 -193.5t-110 -263.5t17.5 -263.5t150 -193.5t260.5 -73q168 0 296 48t238 142z" />
    <glyph glyph-name="cdotaccent" unicode="&#x10b;" horiz-adv-x="1116" 
d="M798 1268l42 242h244l-42 -242h-244zM1110 300l-36 -184q-46 -62 -143 -99t-223 -37q-138 0 -243 32.5t-174 98t-94 169.5t-1 242q24 136 87.5 240.5t155.5 169.5t204.5 97.5t240.5 32.5q134 0 219 -38t117 -88l-40 -182q-14 11 -44 35t-40.5 31.5t-34.5 23.5t-40 20.5
t-43 12t-57 9.5t-69 2q-157 0 -269.5 -92.5t-144.5 -273.5q-32 -180 49.5 -269t252.5 -89q48 0 84.5 4.5t78 21t58 24.5t73 41.5t76.5 44.5z" />
    <glyph glyph-name="Ccaron" unicode="&#x10c;" horiz-adv-x="1442" 
d="M1076 1824q20 0 64 31.5t78 62.5l34 32h204l-300 -300h-224l-192 300h204zM1464 372l-36 -214q-56 -80 -203 -129t-331 -49q-173 0 -312 59t-223 158.5t-117.5 233t-7.5 281.5t107 281.5t200 234t278.5 159.5t332.5 59t303 -48.5t169 -127.5l-40 -188q-59 56 -191.5 108
t-276.5 52q-153 0 -286 -73t-218 -193.5t-110 -263.5t17.5 -263.5t150 -193.5t260.5 -73q168 0 296 48t238 142z" />
    <glyph glyph-name="ccaron" unicode="&#x10d;" horiz-adv-x="1116" 
d="M950 1442q20 0 64 31t78 62l34 31h204l-298 -300h-224l-194 300h204zM1110 300l-36 -184q-46 -62 -143 -99t-223 -37q-138 0 -243 32.5t-174 98t-94 169.5t-1 242q24 136 87.5 240.5t155.5 169.5t204.5 97.5t240.5 32.5q134 0 219 -38t117 -88l-40 -182q-14 11 -44 35
t-40.5 31.5t-34.5 23.5t-40 20.5t-43 12t-57 9.5t-69 2q-157 0 -269.5 -92.5t-144.5 -273.5q-32 -180 49.5 -269t252.5 -89q48 0 84.5 4.5t78 21t58 24.5t73 41.5t76.5 44.5z" />
    <glyph glyph-name="Dcaron" unicode="&#x10e;" horiz-adv-x="1592" 
d="M1018 1824q20 0 64 31.5t78 62.5l34 32h204l-300 -300h-224l-192 300h204zM178 0q100 572 252 1426h250q-59 -331 -135.5 -765.5t-82.5 -466.5q43 0 143 -1t143 -1q255 0 400 128t192 392q45 258 -65.5 389t-374.5 131h-254l34 194h244q400 0 572 -180t110 -534
q-65 -362 -279 -537t-595 -175h-554z" />
    <glyph glyph-name="dcaron" unicode="&#x10f;" horiz-adv-x="1276" 
d="M1506 1544h242l-136 -300h-164zM396 530q-28 -157 42 -251.5t200 -94.5q129 0 230 87t132 237l4 30q22 150 -47 238t-197 88q-131 0 -233.5 -89.5t-130.5 -244.5zM196 522q43 243 192 390t352 152q211 6 338 -108l100 568h224l-268 -1524h-224l16 86q-175 -115 -378 -106
q-201 8 -298 154t-54 388z" />
    <glyph glyph-name="Dcroat" unicode="&#x110;" horiz-adv-x="1592" 
d="M130 636l28 154h160q34 200 112 636h250q-78 -436 -112 -636h268l-28 -154h-268q-59 -342 -78 -442q43 0 143 -1t143 -1q255 0 400 128t192 392q45 258 -65.5 389t-374.5 131h-254l34 194h244q400 0 572 -180t110 -534q-65 -362 -279 -537t-595 -175h-554q42 239 112 636
h-160z" />
    <glyph glyph-name="dcroat" unicode="&#x111;" horiz-adv-x="1276" 
d="M766 1216l28 156h358l26 152h224l-26 -152h222l-28 -156h-222l-214 -1216h-224l16 86q-175 -115 -378 -106q-201 8 -298 154t-54 388q43 243 192 390t352 152q211 6 338 -108l46 260h-358zM396 530q-28 -157 42 -251.5t200 -94.5q129 0 230 87t132 237l4 30
q22 150 -47 238t-197 88q-131 0 -233.5 -89.5t-130.5 -244.5z" />
    <glyph glyph-name="Emacron" unicode="&#x112;" 
d="M662 1648l28 156h640l-28 -156h-640zM178 0q100 572 252 1426h1028l-36 -204l-778 2q-14 -81 -39 -222.5t-35 -199.5h524l-32 -194h-526q-30 -168 -72 -406h808l-36 -202h-1058z" />
    <glyph glyph-name="emacron" unicode="&#x113;" horiz-adv-x="1128" 
d="M526 1268l26 154h640l-26 -154h-640zM1124 304l-34 -164q-60 -73 -169 -116.5t-257 -43.5q-263 0 -389.5 135t-78.5 407q32 183 119.5 306t212 179.5t282.5 56.5q126 0 213.5 -42.5t130.5 -120t51.5 -186.5t-23.5 -243h-224q13 57 16 98l-16 -98h-526q-15 -150 55.5 -224
t210.5 -74q94 0 172.5 23.5t152 60.5t101.5 46zM978 612q8 131 -42.5 204.5t-157.5 73.5q-112 0 -195 -69t-125 -209h520zM434 492l4 30q-4 -20 -4 -30z" />
    <glyph glyph-name="Ebreve" unicode="&#x114;" 
d="M692 1916h164q-10 -60 31 -96t119 -36t133 36t65 96h166q-23 -129 -130 -208.5t-260 -79.5q-152 0 -231 79.5t-57 208.5zM178 0q100 572 252 1426h1028l-36 -204l-778 2q-14 -81 -39 -222.5t-35 -199.5h524l-32 -194h-526q-30 -168 -72 -406h808l-36 -202h-1058z" />
    <glyph glyph-name="ebreve" unicode="&#x115;" horiz-adv-x="1128" 
d="M554 1534h164q-10 -60 32 -96t120 -36t132 36t64 96h166q-22 -129 -129.5 -207.5t-260.5 -78.5q-152 0 -231 78.5t-57 207.5zM1124 304l-34 -164q-60 -73 -169 -116.5t-257 -43.5q-263 0 -389.5 135t-78.5 407q32 183 119.5 306t212 179.5t282.5 56.5q126 0 213.5 -42.5
t130.5 -120t51.5 -186.5t-23.5 -243h-224q13 57 16 98l-16 -98h-526q-15 -150 55.5 -224t210.5 -74q94 0 172.5 23.5t152 60.5t101.5 46zM978 612q8 131 -42.5 204.5t-157.5 73.5q-112 0 -195 -69t-125 -209h520zM434 492l4 30q-4 -20 -4 -30z" />
    <glyph glyph-name="Edotaccent" unicode="&#x116;" 
d="M860 1648l44 244h244l-44 -244h-244zM178 0q100 572 252 1426h1028l-36 -204l-778 2q-14 -81 -39 -222.5t-35 -199.5h524l-32 -194h-526q-30 -168 -72 -406h808l-36 -202h-1058z" />
    <glyph glyph-name="edotaccent" unicode="&#x117;" horiz-adv-x="1128" 
d="M724 1268l42 242h244l-42 -242h-244zM1124 304l-34 -164q-60 -73 -169 -116.5t-257 -43.5q-263 0 -389.5 135t-78.5 407q32 183 119.5 306t212 179.5t282.5 56.5q126 0 213.5 -42.5t130.5 -120t51.5 -186.5t-23.5 -243h-224q13 57 16 98l-16 -98h-526q-15 -150 55.5 -224
t210.5 -74q94 0 172.5 23.5t152 60.5t101.5 46zM978 612q8 131 -42.5 204.5t-157.5 73.5q-112 0 -195 -69t-125 -209h520zM434 492l4 30q-4 -20 -4 -30z" />
    <glyph glyph-name="Eogonek" unicode="&#x118;" 
d="M178 0q100 572 252 1426h1028l-36 -204l-778 2q-14 -81 -39 -222.5t-35 -199.5h524l-32 -194h-526q-30 -168 -72 -406h808l-36 -202h-498q-32 -16 -81 -71t-57 -99q-10 -55 26.5 -88.5t105.5 -33.5q111 0 140 26v-122q-18 -18 -67 -29t-109 -11q-120 0 -182 64.5
t-44 171.5q10 67 168 192h-460z" />
    <glyph glyph-name="eogonek" unicode="&#x119;" horiz-adv-x="1128" 
d="M1124 304l-34 -164q-57 -70 -156 -112q-34 -18 -82 -76t-58 -106q-11 -62 25 -100t105 -38q111 0 140 26v-122q-18 -18 -67 -29t-109 -11q-120 0 -181.5 69t-42.5 183q11 64 124 166q-63 -10 -124 -10q-263 0 -389.5 135t-78.5 407q32 183 119.5 306t212 179.5
t282.5 56.5q126 0 213.5 -42.5t130.5 -120t51.5 -186.5t-23.5 -243h-224q13 57 16 98l-16 -98h-526q-15 -150 55.5 -224t210.5 -74q94 0 172.5 23.5t152 60.5t101.5 46zM978 612q8 131 -42.5 204.5t-157.5 73.5q-112 0 -195 -69t-125 -209h520zM434 492l4 30q-4 -20 -4 -30z
" />
    <glyph glyph-name="Ecaron" unicode="&#x11a;" 
d="M1014 1824q20 0 64 31.5t78 62.5l34 32h204l-300 -300h-224l-192 300h204zM178 0q100 572 252 1426h1028l-36 -204l-778 2q-14 -81 -39 -222.5t-35 -199.5h524l-32 -194h-526q-30 -168 -72 -406h808l-36 -202h-1058z" />
    <glyph glyph-name="ecaron" unicode="&#x11b;" horiz-adv-x="1128" 
d="M876 1442q20 0 64 31t78 62l34 31h204l-298 -300h-224l-194 300h204zM1124 304l-34 -164q-60 -73 -169 -116.5t-257 -43.5q-263 0 -389.5 135t-78.5 407q32 183 119.5 306t212 179.5t282.5 56.5q126 0 213.5 -42.5t130.5 -120t51.5 -186.5t-23.5 -243h-224q13 57 16 98
l-16 -98h-526q-15 -150 55.5 -224t210.5 -74q94 0 172.5 23.5t152 60.5t101.5 46zM978 612q8 131 -42.5 204.5t-157.5 73.5q-112 0 -195 -69t-125 -209h520zM434 492l4 30q-4 -20 -4 -30z" />
    <glyph glyph-name="Gcircumflex" unicode="&#x11c;" horiz-adv-x="1606" 
d="M1208 1774l-176 -126h-204l300 300h224l192 -300h-204q-128 126 -132 126zM1230 702h406q-27 -146 -92 -530q-121 -89 -292.5 -140.5t-359.5 -51.5q-354 0 -535 201t-123 531q59 330 310.5 532t605.5 202q178 0 328 -83.5t218 -220.5l-202 -164q-59 119 -163.5 191.5
t-216.5 72.5q-234 0 -402 -145.5t-210 -384.5t75 -384.5t351 -145.5q119 0 223.5 30t174.5 82l36 204h-162z" />
    <glyph glyph-name="Gbreve" unicode="&#x11e;" horiz-adv-x="1606" 
d="M896 1916h164q-10 -60 31 -96t119 -36t133 36t65 96h166q-23 -129 -130 -208.5t-260 -79.5q-152 0 -231 79.5t-57 208.5zM1230 702h406q-27 -146 -92 -530q-121 -89 -292.5 -140.5t-359.5 -51.5q-354 0 -535 201t-123 531q59 330 310.5 532t605.5 202q178 0 328 -83.5
t218 -220.5l-202 -164q-59 119 -163.5 191.5t-216.5 72.5q-234 0 -402 -145.5t-210 -384.5t75 -384.5t351 -145.5q119 0 223.5 30t174.5 82l36 204h-162z" />
    <glyph glyph-name="gbreve" unicode="&#x11f;" horiz-adv-x="1256" 
d="M540 1534h166q-10 -60 32 -96t120 -36t130.5 36t63.5 96h166q-22 -129 -129 -207.5t-259 -78.5q-153 0 -232.5 78.5t-57.5 207.5zM56 -372l66 248q151 -146 430 -146q142 0 229.5 76.5t110.5 207.5l14 74q-157 -91 -362 -88q-438 7 -348 522q49 280 188 410t348 132
q206 3 326 -108l16 88h224q0 -2 -1 -5.5t-1 -4.5l-174 -986q-41 -241 -197.5 -381.5t-404.5 -140.5q-183 0 -264 17t-200 85zM420 530q-60 -330 216 -330q123 0 218 82.5t126 225.5l4 30q22 149 -44 233.5t-190 84.5q-133 0 -216 -72t-114 -254z" />
    <glyph glyph-name="Gdotaccent" unicode="&#x120;" horiz-adv-x="1606" 
d="M1064 1648l44 244h244l-44 -244h-244zM1230 702h406q-27 -146 -92 -530q-121 -89 -292.5 -140.5t-359.5 -51.5q-354 0 -535 201t-123 531q59 330 310.5 532t605.5 202q178 0 328 -83.5t218 -220.5l-202 -164q-59 119 -163.5 191.5t-216.5 72.5q-234 0 -402 -145.5
t-210 -384.5t75 -384.5t351 -145.5q119 0 223.5 30t174.5 82l36 204h-162z" />
    <glyph glyph-name="gdotaccent" unicode="&#x121;" horiz-adv-x="1256" 
d="M712 1268l42 242h242l-42 -242h-242zM56 -372l66 248q151 -146 430 -146q142 0 229.5 76.5t110.5 207.5l14 74q-157 -91 -362 -88q-438 7 -348 522q49 280 188 410t348 132q206 3 326 -108l16 88h224l-176 -996q-41 -241 -197.5 -381.5t-404.5 -140.5q-183 0 -264 17
t-200 85zM420 530q-60 -330 216 -330q123 0 218 82.5t126 225.5l4 30q22 149 -44 233.5t-190 84.5q-133 0 -216 -72t-114 -254z" />
    <glyph glyph-name="Hcircumflex" unicode="&#x124;" horiz-adv-x="1624" 
d="M1128 1774l-178 -126h-204l300 300h226l192 -300h-204q-128 126 -132 126zM178 0q100 572 252 1426h250q-7 -38 -108 -614h776q101 576 108 614h248l-252 -1426h-248q40 227 108 608h-776l-108 -608h-250z" />
    <glyph glyph-name="Itilde" unicode="&#x128;" horiz-adv-x="600" 
d="M408 1648h-164q26 142 95 229.5t155 84.5q41 0 77.5 -18.5t60 -43t58.5 -54t68 -44.5q26 -4 42 32.5t28 107.5h164q-24 -141 -92.5 -227.5t-155.5 -86.5v2v-2q-40 0 -80.5 25t-67.5 55t-58.5 55t-57.5 25q-21 0 -40.5 -38.5t-31.5 -101.5zM178 0q100 572 252 1426h250
l-252 -1426h-250z" />
    <glyph glyph-name="itilde" unicode="&#x129;" horiz-adv-x="590" 
d="M376 1268h-164q24 140 94.5 228t153.5 86q41 0 78 -19t60.5 -44t58 -54t67.5 -43q27 -5 42.5 30t29.5 110h164q-26 -141 -94.5 -227.5t-155.5 -86.5v2v-2q-40 0 -80.5 25t-67.5 55t-58.5 55t-57.5 25q-21 0 -40.5 -38.5t-29.5 -101.5zM224 0l184 1044h224l-184 -1044
h-224z" />
    <glyph glyph-name="Imacron" unicode="&#x12a;" horiz-adv-x="600" 
d="M272 1648l28 156q640 4 640 0q6 -3 -1 -42t-17 -76l-10 -38h-640zM178 0q100 572 252 1426h250l-252 -1426h-250z" />
    <glyph glyph-name="imacron" unicode="&#x12b;" horiz-adv-x="590" 
d="M240 1268l26 154h107.5t208 0.5t234 0.5t90.5 -1q8 -7 2 -41t-17 -73l-11 -40h-640zM224 0l184 1044h224l-184 -1044h-224z" />
    <glyph glyph-name="Ibreve" unicode="&#x12c;" horiz-adv-x="600" 
d="M302 1916h164q-10 -59 31 -94t119 -38q85 -4 136 32.5t62 99.5h166q-23 -129 -130 -208.5t-260 -79.5q-152 0 -231 79.5t-57 208.5zM178 0q100 572 252 1426h250l-252 -1426h-250z" />
    <glyph glyph-name="ibreve" unicode="&#x12d;" horiz-adv-x="590" 
d="M268 1534h164q-10 -59 32.5 -94.5t119.5 -37.5q172 -3 196 132h166q-22 -129 -129.5 -207.5t-260.5 -78.5q-152 0 -231 78.5t-57 207.5zM224 0l184 1044h224l-184 -1044h-224z" />
    <glyph glyph-name="Idotaccent" unicode="&#x130;" horiz-adv-x="600" 
d="M470 1648l44 244h244l-44 -244h-244zM178 0q100 572 252 1426h250l-252 -1426h-250z" />
    <glyph glyph-name="dotlessi" unicode="&#x131;" horiz-adv-x="590" 
d="M224 0l184 1044h224l-184 -1044h-224z" />
    <glyph glyph-name="Jcircumflex" unicode="&#x134;" horiz-adv-x="1074" 
d="M1090 1774l-178 -126h-204l300 300h226l192 -300h-204q-128 126 -132 126zM170 50q4 26 13 79t13 79l18 82q54 -48 106.5 -64t169.5 -16q97 0 158 56t78 152q70 405 178 1008h250l-178 -1008q-35 -202 -172.5 -320t-355.5 -118q-119 0 -176.5 14.5t-101.5 55.5z" />
    <glyph glyph-name="Lacute" unicode="&#x139;" horiz-adv-x="1198" 
d="M490 1648l182 300h292l-270 -300h-204zM178 0q100 572 252 1426h250q-44 -245 -86.5 -487t-80.5 -459.5t-49 -277.5h708l-36 -202h-958z" />
    <glyph glyph-name="lacute" unicode="&#x13a;" horiz-adv-x="510" 
d="M386 1634l182 300h292l-270 -300h-204zM144 0q188 1067 268 1524h224l-268 -1524h-224z" />
    <glyph glyph-name="Lcaron" unicode="&#x13d;" horiz-adv-x="1198" 
d="M914 1446h242l-136 -300h-166zM178 0q100 572 252 1426h250q-44 -245 -86.5 -487t-80.5 -459.5t-49 -277.5h708l-36 -202h-958z" />
    <glyph glyph-name="lcaron" unicode="&#x13e;" horiz-adv-x="510" 
d="M740 1544h242l-136 -300h-164zM144 0q188 1067 268 1524h224l-268 -1524h-224z" />
    <glyph glyph-name="Lslash" unicode="&#x141;" horiz-adv-x="1198" 
d="M112 530l28 166l168 42q20 111 62.5 351t59.5 337h250q-23 -132 -61.5 -348t-48.5 -274l370 92l-30 -166l-370 -92q-64 -364 -76 -436h708l-36 -202h-958q38 213 100 572z" />
    <glyph glyph-name="lslash" unicode="&#x142;" horiz-adv-x="510" 
d="M86 580l30 164l170 58q66 384 126 722h224q-28 -162 -112 -638l170 58l-28 -164l-170 -58l-128 -722h-224q52 295 112 638z" />
    <glyph glyph-name="Nacute" unicode="&#x143;" horiz-adv-x="1570" 
d="M776 1648l182 300h292q5 0 -62.5 -75t-137.5 -150l-70 -75h-204zM1400 1426h250l-252 -1426h-354l-436 1014q-34 -185 -95 -534t-85 -480h-250q38 214 126 713t126 713h282l488 -1132z" />
    <glyph glyph-name="nacute" unicode="&#x144;" horiz-adv-x="1150" 
d="M698 1268l180 300h292q1 -2 -66 -77t-134 -149l-68 -74h-204zM794 0q92 444 112 634q8 70 -36 126t-128 56q-242 0 -272 -170l-114 -646h-222q128 731 184 1044h222q-3 -21 -11 -64t-11 -64q65 68 156 103t194 35q155 0 226 -108t36 -312l-112 -634h-224z" />
    <glyph glyph-name="Ncaron" unicode="&#x147;" horiz-adv-x="1570" 
d="M1110 1824q20 0 64 31.5t78 62.5l34 32h204l-300 -300h-224l-192 300h204zM1400 1426h250l-252 -1426h-354l-436 1014q-34 -185 -95 -534t-85 -480h-250q38 214 126 713t126 713h282l488 -1132z" />
    <glyph glyph-name="ncaron" unicode="&#x148;" horiz-adv-x="1150" 
d="M830 1442q20 0 64 31t78 62l34 31h204l-298 -300h-224l-194 300h204zM794 0q92 444 112 634q8 70 -36 126t-128 56q-242 0 -272 -170l-114 -646h-222q128 731 184 1044h222q-3 -21 -11 -64t-11 -64q65 68 156 103t194 35q155 0 226 -108t36 -312l-112 -634h-224z" />
    <glyph glyph-name="Omacron" unicode="&#x14c;" horiz-adv-x="1690" 
d="M818 1648l28 156h640l-28 -156h-640zM512 712q-42 -236 57.5 -369t310.5 -133q212 0 364.5 133.5t193.5 368.5q38 221 -77.5 359.5t-318.5 138.5q-199 0 -345 -136.5t-185 -361.5zM244 712q27 154 107 290.5t193.5 233.5t258.5 153.5t299 56.5t279.5 -56.5t205.5 -153.5
t112 -233.5t5 -290.5q-39 -218 -159 -384t-302 -257t-399 -91t-366.5 91t-211 257t-22.5 384z" />
    <glyph glyph-name="omacron" unicode="&#x14d;" horiz-adv-x="1242" 
d="M526 1268l26 154h640l-26 -154h-640zM402 526q-30 -167 38.5 -259.5t213.5 -92.5q65 0 121 18t105.5 57t85 108t52.5 163q30 169 -31.5 261.5t-204.5 92.5q-65 0 -123.5 -18.5t-111 -57.5t-90.5 -108.5t-55 -163.5zM196 522q32 183 119.5 306t212 179.5t282.5 56.5
q260 0 363.5 -144t58.5 -398q-32 -183 -119.5 -306t-212 -179.5t-282.5 -56.5q-260 0 -363.5 144t-58.5 398z" />
    <glyph glyph-name="Obreve" unicode="&#x14e;" horiz-adv-x="1690" 
d="M848 1916h164q-10 -60 31 -96t119 -36t133 36t65 96h166q-23 -129 -130 -208.5t-260 -79.5q-152 0 -231 79.5t-57 208.5zM512 712q-42 -236 57.5 -369t310.5 -133q212 0 364.5 133.5t193.5 368.5q38 221 -77.5 359.5t-318.5 138.5q-199 0 -345 -136.5t-185 -361.5z
M244 712q27 154 107 290.5t193.5 233.5t258.5 153.5t299 56.5t279.5 -56.5t205.5 -153.5t112 -233.5t5 -290.5q-39 -218 -159 -384t-302 -257t-399 -91t-366.5 91t-211 257t-22.5 384z" />
    <glyph glyph-name="obreve" unicode="&#x14f;" horiz-adv-x="1242" 
d="M554 1534h164q-10 -60 32 -96t120 -36t132 36t64 96h166q-22 -129 -129.5 -207.5t-260.5 -78.5q-152 0 -231 78.5t-57 207.5zM402 526q-30 -167 38.5 -259.5t213.5 -92.5q65 0 121 18t105.5 57t85 108t52.5 163q30 169 -31.5 261.5t-204.5 92.5q-65 0 -123.5 -18.5
t-111 -57.5t-90.5 -108.5t-55 -163.5zM196 522q32 183 119.5 306t212 179.5t282.5 56.5q260 0 363.5 -144t58.5 -398q-32 -183 -119.5 -306t-212 -179.5t-282.5 -56.5q-260 0 -363.5 144t-58.5 398z" />
    <glyph glyph-name="Racute" unicode="&#x154;" horiz-adv-x="1310" 
d="M896 1648l182 300h292l-270 -300h-204zM178 0l252 1426h540q258 0 370 -108t74 -320q-51 -287 -322 -374l244 -624h-286l-228 586h-2h-288l-104 -586h-250zM566 780h298q104 -6 175.5 51.5t90.5 164.5q20 116 -33 177.5t-171 58.5q-84 -2 -280 -2z" />
    <glyph glyph-name="racute" unicode="&#x155;" horiz-adv-x="902" 
d="M624 1268l180 300h292l-268 -300h-204zM1002 802q-8 7 -22 17t-57 26.5t-87 16.5q-173 -1 -258.5 -77t-111.5 -219l-100 -566h-222q128 731 184 1044h222q-3 -16 -8.5 -50t-7.5 -44q124 112 332 112q61 0 99.5 -14.5t70.5 -49.5z" />
    <glyph glyph-name="Rcaron" unicode="&#x158;" horiz-adv-x="1310" 
d="M1030 1824q20 0 64 31.5t78 62.5l34 32h204l-300 -300h-224l-192 300h204zM178 0l252 1426h540q258 0 370 -108t74 -320q-51 -287 -322 -374l244 -624h-286l-228 586h-2h-288l-104 -586h-250zM566 780h298q104 -6 175.5 51.5t90.5 164.5q20 116 -33 177.5t-171 58.5
q-84 -2 -280 -2z" />
    <glyph glyph-name="rcaron" unicode="&#x159;" horiz-adv-x="902" 
d="M756 1442q20 0 64 31t78 62l34 31h204l-298 -300h-224l-194 300h204zM1002 802q-8 7 -22 17t-57 26.5t-87 16.5q-173 -1 -258.5 -77t-111.5 -219l-100 -566h-222q128 731 184 1044h222q-3 -16 -8.5 -50t-7.5 -44q124 112 332 112q61 0 99.5 -14.5t70.5 -49.5z" />
    <glyph glyph-name="Sacute" unicode="&#x15a;" horiz-adv-x="1282" 
d="M774 1648l182 300h292l-270 -300h-204zM122 160l36 330q49 -134 189 -213t323 -79q288 0 322 178q14 85 -65.5 148.5t-242.5 83.5q-243 30 -359 142t-85 288q31 181 198 294.5t394 113.5q154 0 282.5 -44t189.5 -120l-36 -264q-77 95 -206 150.5t-268 55.5
q-113 0 -193.5 -41t-92.5 -111q-15 -79 62 -136.5t226 -75.5q258 -32 387.5 -155t96.5 -311q-33 -190 -207.5 -302t-440.5 -112q-189 0 -323 51.5t-187 128.5z" />
    <glyph glyph-name="sacute" unicode="&#x15b;" horiz-adv-x="1030" 
d="M632 1268l180 300h292l-268 -300h-204zM138 142l26 236q28 -92 135 -153t251 -61q96 0 163 35.5t71 108.5q3 50 -50 82t-158 42q-192 18 -289.5 100t-76.5 206q17 93 86 165.5t173.5 111.5t226.5 39q132 0 228 -36t116 -90l8 -206q-25 70 -137 118t-245 48
q-212 0 -240 -132q-11 -54 52 -83.5t188 -40.5q204 -19 293.5 -98t66.5 -206q-27 -149 -171.5 -243.5t-334.5 -94.5q-151 0 -257.5 43.5t-124.5 108.5z" />
    <glyph glyph-name="Scircumflex" unicode="&#x15c;" horiz-adv-x="1282" 
d="M898 1774l-176 -126h-204l300 300h224l192 -300h-204q-128 126 -132 126zM122 160l36 330q49 -134 189 -213t323 -79q288 0 322 178q14 85 -65.5 148.5t-242.5 83.5q-243 30 -359 142t-85 288q31 181 198 294.5t394 113.5q154 0 282.5 -44t189.5 -120l-36 -264
q-77 95 -206 150.5t-268 55.5q-113 0 -193.5 -41t-92.5 -111q-15 -79 62 -136.5t226 -75.5q258 -32 387.5 -155t96.5 -311q-33 -190 -207.5 -302t-440.5 -112q-189 0 -323 51.5t-187 128.5z" />
    <glyph glyph-name="Scedilla" unicode="&#x15e;" horiz-adv-x="1282" 
d="M122 160l36 330q49 -134 189 -213t323 -79q282 0 314 184q15 85 -60.5 145.5t-239.5 80.5q-243 30 -359 142t-85 288q31 181 198 294.5t394 113.5q154 0 282.5 -44t189.5 -120l-36 -264q-77 95 -206 150.5t-268 55.5q-114 0 -200 -41t-98 -111q-13 -63 22.5 -107t104 -68
t173.5 -37q258 -32 387.5 -155t96.5 -311t-206.5 -300.5t-437.5 -113.5l-44 -102q31 22 78 22q91 0 137 -53.5t31 -142.5q-17 -92 -87.5 -147t-170.5 -55q-127 0 -160 44l22 122q34 -34 65 -46t87 -12q46 0 78 26t40 68q8 41 -14 65.5t-66 24.5q-71 0 -92 -32q12 18 22 48
l-22 -48v-2q-24 1 -39.5 11t-18.5 19l-4 10l82 182q-162 10 -276 59t-162 119z" />
    <glyph glyph-name="scedilla" unicode="&#x15f;" horiz-adv-x="1030" 
d="M138 142l26 236q28 -92 135 -153t251 -61q89 0 147.5 35.5t68.5 98.5q9 51 -39.5 87.5t-150.5 46.5q-192 18 -289.5 100t-76.5 206q17 93 86 165.5t173.5 111.5t226.5 39q132 0 228 -36t116 -90l8 -206q-25 70 -137 118t-245 48q-49 0 -86.5 -5t-73 -18t-57 -39.5
t-25.5 -65.5q-7 -64 51.5 -90t190.5 -38q204 -19 293.5 -98t66.5 -206q-27 -148 -167.5 -241.5t-328.5 -96.5l-50 -112q31 22 76 22q91 0 137 -53.5t31 -142.5q-17 -92 -87.5 -147t-170.5 -55q-127 0 -160 44l22 122q34 -34 65 -46t87 -12q46 0 78 26t40 68q8 41 -14 65.5
t-66 24.5q-71 0 -92 -32q13 20 22 46l-22 -46v-2q-24 1 -39.5 11t-18.5 19l-4 10l90 192q-128 10 -213.5 51.5t-102.5 98.5z" />
    <glyph glyph-name="Scaron" unicode="&#x160;" horiz-adv-x="1282" 
d="M908 1824q20 0 64 31.5t78 62.5l34 32h204l-300 -300h-224l-192 300h204zM122 160l36 330q49 -134 189 -213t323 -79q288 0 322 178q14 85 -65.5 148.5t-242.5 83.5q-243 30 -359 142t-85 288q31 181 198 294.5t394 113.5q154 0 282.5 -44t189.5 -120l-36 -264
q-77 95 -206 150.5t-268 55.5q-113 0 -193.5 -41t-92.5 -111q-15 -79 62 -136.5t226 -75.5q258 -32 387.5 -155t96.5 -311q-33 -190 -207.5 -302t-440.5 -112q-189 0 -323 51.5t-187 128.5z" />
    <glyph glyph-name="scaron" unicode="&#x161;" horiz-adv-x="1030" 
d="M764 1442q20 0 64 31t78 62l34 31h204l-298 -300h-224l-194 300h204zM138 142l26 236q28 -92 135 -153t251 -61q96 0 163 35.5t71 108.5q3 50 -50 82t-158 42q-192 18 -289.5 100t-76.5 206q17 93 86 165.5t173.5 111.5t226.5 39q132 0 228 -36t116 -90l8 -206
q-25 70 -137 118t-245 48q-212 0 -240 -132q-11 -54 52 -83.5t188 -40.5q204 -19 293.5 -98t66.5 -206q-27 -149 -171.5 -243.5t-334.5 -94.5q-151 0 -257.5 43.5t-124.5 108.5z" />
    <glyph glyph-name="Tcaron" unicode="&#x164;" horiz-adv-x="1252" 
d="M948 1824q20 0 64 31.5t78 62.5l34 32h204l-300 -300h-224l-192 300h204zM256 1324l18 102h1208l-36 -204h-480l-216 -1222h-248q84 481 216 1222h-480q5 36 18 102z" />
    <glyph glyph-name="tcaron" unicode="&#x165;" horiz-adv-x="868" 
d="M806 1544h242l-136 -300h-164zM990 1038l-36 -194h-372q-12 -75 -86 -494q-16 -90 25.5 -134t164.5 -44q58 0 150 36l-32 -186q-103 -42 -210 -42q-207 0 -281 92.5t-41 277.5q19 106 51 286.5t37 207.5h-174l36 194h172l60 342l244 122q-30 -173 -82 -464h374z" />
    <glyph glyph-name="Utilde" unicode="&#x168;" horiz-adv-x="1518" 
d="M864 1628h-164q24 141 92.5 227.5t155.5 86.5l-6 -86q4 40 5.5 63t0.5 23q53 0 119 -40t105 -80l40 -40q21 0 40.5 38.5t29.5 101.5h164q-24 -141 -92.5 -227.5t-155.5 -86.5l14 174q-1 -11 -3 -29t-5.5 -56t-5 -63.5t-0.5 -25.5q-40 0 -80.5 25t-67.5 55t-58.5 55
t-57.5 25q-21 0 -40.5 -38.5t-29.5 -101.5zM416 1426h250l-148 -832q-33 -190 38 -287t242 -97q347 0 414 384l146 832h250l-156 -876q-50 -282 -225.5 -426t-470.5 -144t-420.5 144t-75.5 426z" />
    <glyph glyph-name="utilde" unicode="&#x169;" horiz-adv-x="1160" 
d="M616 1268h-164q24 140 94.5 228t153.5 86q41 0 78 -19.5t61 -45t58.5 -54t66.5 -41.5q11 -2 19.5 1t15.5 13.5t11.5 20t9.5 30.5t8 34t8 41h164q-26 -141 -94.5 -227.5t-155.5 -86.5v0q-40 0 -80.5 25t-67.5 55t-58.5 55t-57.5 25q-21 0 -40.5 -38.5t-29.5 -101.5z
M1018 0h-224q6 38 20 110q-70 -62 -156 -96t-172 -34q-136 0 -207 47t-85 140t10 231q80 452 114 646h222l-114 -646q-19 -112 16 -164t150 -52q105 0 180.5 63.5t93.5 166.5q24 136 112 632h224q-180 -1026 -184 -1044z" />
    <glyph glyph-name="Umacron" unicode="&#x16a;" horiz-adv-x="1518" 
d="M728 1628l26 156h640l-26 -156h-640zM416 1426h250l-148 -832q-33 -190 38 -287t242 -97q347 0 414 384l146 832h250l-156 -876q-50 -282 -225.5 -426t-470.5 -144t-420.5 144t-75.5 426z" />
    <glyph glyph-name="umacron" unicode="&#x16b;" horiz-adv-x="1160" 
d="M480 1268l26 154h107.5t208 0.5t234 0.5t90.5 -1q4 -2 -2.5 -40.5t-15.5 -75.5l-8 -38h-640zM1018 0h-224q6 38 20 110q-70 -62 -156 -96t-172 -34q-136 0 -207 47t-85 140t10 231q80 452 114 646h222l-114 -646q-19 -112 16 -164t150 -52q105 0 180.5 63.5t93.5 166.5
q24 136 112 632h224q-180 -1026 -184 -1044z" />
    <glyph glyph-name="Ubreve" unicode="&#x16c;" horiz-adv-x="1518" 
d="M756 1896h164q-10 -60 32 -96t120 -36t132 36t64 96h166q-23 -129 -130 -208.5t-260 -79.5q-152 0 -231.5 79.5t-56.5 208.5zM416 1426h250l-148 -832q-33 -190 38 -287t242 -97q347 0 414 384l146 832h250l-156 -876q-50 -282 -225.5 -426t-470.5 -144t-420.5 144
t-75.5 426z" />
    <glyph glyph-name="ubreve" unicode="&#x16d;" horiz-adv-x="1160" 
d="M508 1534h164q-10 -59 32.5 -94.5t119.5 -37.5q82 -3 133.5 33.5t62.5 98.5h166q-22 -129 -129.5 -207.5t-260.5 -78.5q-152 0 -231 78.5t-57 207.5zM1018 0h-224q6 38 20 110q-70 -62 -156 -96t-172 -34q-136 0 -207 47t-85 140t10 231q80 452 114 646h222l-114 -646
q-19 -112 16 -164t150 -52q105 0 180.5 63.5t93.5 166.5q24 136 112 632h224q-180 -1026 -184 -1044z" />
    <glyph glyph-name="Uring" unicode="&#x16e;" horiz-adv-x="1518" 
d="M1018 1800q-12 -68 48 -68t72 68q9 66 -48 66q-29 0 -48.5 -17.5t-23.5 -48.5zM906 1800q13 79 67 123.5t135 44.5t118.5 -44t23.5 -124q-30 -172 -202 -172t-142 172zM416 1426h250l-148 -832q-33 -190 38 -287t242 -97q347 0 414 384l146 832h250l-156 -876
q-50 -282 -225.5 -426t-470.5 -144t-420.5 144t-75.5 426z" />
    <glyph glyph-name="uring" unicode="&#x16f;" horiz-adv-x="1160" 
d="M770 1438q-12 -68 48 -68t72 68q5 33 -5 48t-43 18q-26 2 -47 -16.5t-25 -49.5zM658 1438q13 81 67 125.5t135 44.5t118 -44.5t24 -125.5q-30 -170 -202 -170t-142 170zM1018 0h-224q6 38 20 110q-70 -62 -156 -96t-172 -34q-136 0 -207 47t-85 140t10 231
q80 452 114 646h222l-114 -646q-19 -112 16 -164t150 -52q105 0 180.5 63.5t93.5 166.5q24 136 112 632h224q-180 -1026 -184 -1044z" />
    <glyph glyph-name="Wcircumflex" unicode="&#x174;" horiz-adv-x="1700" 
d="M1166 1774l-178 -126h-204l300 300h226l192 -300h-204q-128 126 -132 126zM280 1426h268l24 -936l400 936h260l86 -920l346 920h266l-514 -1426h-308l-82 1006l-440 -1006h-274z" />
    <glyph glyph-name="Ycircumflex" unicode="&#x176;" horiz-adv-x="1316" 
d="M978 1774l-178 -126h-204l300 300h226l192 -300h-204q-128 126 -132 126zM808 100q-1 -2 -8.5 -48t-9.5 -52h-250l118 662h-2l-368 764h258l272 -568l472 568h256l-638 -762z" />
    <glyph glyph-name="Ydieresis" unicode="&#x178;" horiz-adv-x="1316" 
d="M998 1648l44 244h244l-44 -244h-244zM668 1648l44 244h244l-44 -244h-244zM808 100q-1 -2 -8.5 -48t-9.5 -52h-250l118 662h-2l-368 764h258l272 -568l472 568h256l-638 -762z" />
    <glyph glyph-name="Zacute" unicode="&#x179;" horiz-adv-x="1372" 
d="M890 1648l182 300h290l-270 -300h-202zM1316 202q-6 -34 -18 -101t-18 -101h-1188l36 202l1050 1020h-840q5 36 18 102l18 102h1158l-36 -204l-1048 -1020h868z" />
    <glyph glyph-name="zacute" unicode="&#x17a;" horiz-adv-x="982" 
d="M638 1268l180 300h292l-268 -300h-204zM276 1044h816l-24 -136l-700 -734h602l-30 -174h-878l24 136l692 734h-532zM246 870l14 88q-2 -13 -7 -44t-7 -44zM970 174l-14 -88q2 13 7 44t7 44z" />
    <glyph glyph-name="Zdotaccent" unicode="&#x17b;" horiz-adv-x="1372" 
d="M870 1648l44 244h242l-44 -244h-242zM1316 202q-6 -34 -18 -101t-18 -101h-1188l36 202l1050 1020h-840q5 36 18 102l18 102h1158l-36 -204l-1048 -1020h868z" />
    <glyph glyph-name="zdotaccent" unicode="&#x17c;" horiz-adv-x="982" 
d="M618 1268l42 242h244l-42 -242h-244zM276 1044h816l-24 -136l-700 -734h602l-30 -174h-878l24 136l692 734h-532zM246 870l14 88q-2 -13 -7 -44t-7 -44zM970 174l-14 -88q2 13 7 44t7 44z" />
    <glyph glyph-name="Zcaron" unicode="&#x17d;" horiz-adv-x="1372" 
d="M1024 1824q20 0 64 31.5t78 62.5l34 32h204l-300 -300h-226l-192 300h204zM1316 202q-6 -34 -18 -101t-18 -101h-1188l36 202l1050 1020h-840q5 36 18 102l18 102h1158l-36 -204l-1048 -1020h868z" />
    <glyph glyph-name="zcaron" unicode="&#x17e;" horiz-adv-x="982" 
d="M770 1442q20 0 64 31t78 62l34 31h204l-298 -300h-224l-194 300h204zM276 1044h816l-24 -136l-700 -734h602l-30 -174h-878l24 136l692 734h-532zM246 870l14 88q-2 -13 -7 -44t-7 -44zM970 174l-14 -88q2 13 7 44t7 44z" />
    <glyph glyph-name="uni01EB" unicode="&#x1eb;" horiz-adv-x="1552" 
d="M470 586q-24 -137 25 -234.5t157 -138t254 -19.5q-64 121 -98 202l224 -20q-3 -6 62 -118q169 106 210 328q31 177 -72.5 286.5t-285.5 109.5q-180 0 -312.5 -108.5t-163.5 -287.5zM228 586q30 171 139.5 309.5t274.5 217.5t350 79t322 -79t198.5 -217.5t31.5 -309.5
q-28 -164 -120 -293.5t-232 -208.5l172 -294l-248 22q-50 86 -110 196q-112 -28 -228 -28q-296 0 -447 166.5t-103 439.5z" />
    <glyph glyph-name="uni0226" unicode="&#x226;" horiz-adv-x="1512" 
d="M934 1648l44 244h244l-44 -244h-244zM22 0l856 1426h272l340 -1426h-272l-66 286l-696 -4q-138 -239 -162 -282h-272zM568 474h540l-152 656q-284 -479 -388 -656z" />
    <glyph glyph-name="uni0262" unicode="&#x262;" horiz-adv-x="1468" 
d="M1144 560h330v-2q-66 -378 -72 -412q-104 -77 -258 -121.5t-328 -44.5q-318 0 -482 166.5t-116 439.5t271 439.5t541 166.5q148 0 279.5 -84.5t200.5 -223.5l-182 -148q-60 123 -150.5 197.5t-179.5 74.5q-209 0 -357 -116t-181 -306q-34 -190 72.5 -307t315.5 -117
q233 0 358 92l22 122h-110z" />
    <glyph glyph-name="uni026A" unicode="&#x26a;" horiz-adv-x="586" 
d="M190 0q82 469 206 1172h224l-206 -1172h-224z" />
    <glyph glyph-name="uni0274" unicode="&#x274;" horiz-adv-x="1360" 
d="M1170 1172h224l-206 -1172h-304l-336 798q-21 -116 -69 -392.5t-71 -405.5h-224q31 176 103 586t103 586h242l380 -904z" />
    <glyph glyph-name="uni0280" unicode="&#x280;" horiz-adv-x="1172" 
d="M184 0l206 1172h422q245 0 354 -89t78 -263q-39 -234 -302 -304l250 -516h-258l-234 488h-10h-196l-86 -488h-224zM524 662h204q105 -6 175 36t83 120q17 89 -39.5 136t-174.5 44q-56 -2 -188 -2z" />
    <glyph glyph-name="uni028F" unicode="&#x28f;" horiz-adv-x="1178" 
d="M726 100q-1 -2 -8.5 -48t-9.5 -52h-224l118 664l-2 -2l-356 510h252l246 -348l368 348h252l-536 -508z" />
    <glyph glyph-name="uni0299" unicode="&#x299;" horiz-adv-x="1334" 
d="M752 0h-568q82 469 206 1172h468q242 -3 332 -78t60 -244q-24 -139 -196 -206q151 -18 221.5 -93.5t50.5 -186.5q-35 -197 -166.5 -280.5t-407.5 -83.5zM588 998q-9 -53 -28.5 -149t-27.5 -139l280 -8q50 -3 97 38.5t59 107.5q13 72 -27 110t-105 40h-248zM438 174h280
q162 -1 236 42t92 146q12 72 -58.5 118t-199.5 42h-192h-96q-15 -80 -35.5 -197.5t-26.5 -150.5z" />
    <glyph glyph-name="uni029C" unicode="&#x29c;" horiz-adv-x="1430" 
d="M184 0q82 469 206 1172h224q-85 -480 -92 -518h626q7 38 92 518h224l-206 -1172h-224q30 177 82 472h-626l-82 -472h-224z" />
    <glyph glyph-name="uni029F" unicode="&#x29f;" horiz-adv-x="1046" 
d="M190 0q82 469 206 1172h224q-149 -841 -174 -990h570l-32 -182h-794z" />
    <glyph glyph-name="circumflex" unicode="&#x2c6;" horiz-adv-x="756" 
d="M378 1392l-154 -124h-204l246 300h226l246 -300h-204q-152 124 -156 124z" />
    <glyph glyph-name="caron" unicode="&#x2c7;" horiz-adv-x="756" 
d="M378 1442q20 0 59 31t68 62l29 31h204l-246 -300h-226l-246 300h204z" />
    <glyph glyph-name="uni02C9" unicode="&#x2c9;" horiz-adv-x="756" 
d="M58 1268v154h640v-154h-640z" />
    <glyph glyph-name="breve" unicode="&#x2d8;" horiz-adv-x="756" 
d="M40 1534h164q0 -60 48 -96t126 -36q80 0 128 36t48 96h164q0 -129 -93.5 -207.5t-246.5 -78.5q-152 0 -245 78.5t-93 207.5z" />
    <glyph glyph-name="dotaccent" unicode="&#x2d9;" horiz-adv-x="756" 
d="M258 1268v242h242v-242h-242z" />
    <glyph glyph-name="ring" unicode="&#x2da;" horiz-adv-x="756" 
d="M318 1438q0 -68 60 -68q62 0 62 68q0 66 -62 66q-29 0 -44.5 -17.5t-15.5 -48.5zM208 1438q0 81 44.5 125.5t125.5 44.5t126.5 -44.5t45.5 -125.5q0 -170 -172 -170q-170 0 -170 170z" />
    <glyph glyph-name="uni1D00" unicode="&#x1d00;" horiz-adv-x="1376" 
d="M32 0l750 1172h242l330 -1172h-236l-62 222l-660 -4q-80 -133 -128 -218h-236zM500 390h510l-154 558q-221 -340 -356 -558z" />
    <glyph glyph-name="uni1D04" unicode="&#x1d04;" horiz-adv-x="1310" 
d="M1326 352l-30 -188q-57 -82 -189.5 -133t-290.5 -51q-155 0 -279.5 48.5t-200.5 131t-108 193.5t-10 233t92.5 233t175.5 193.5t247 131t297 48.5q148 0 262.5 -50t153.5 -132l-36 -160q-64 56 -178.5 107t-233.5 51q-204 0 -355.5 -123.5t-182.5 -298.5
q-31 -176 77 -300t311 -124q142 0 254.5 47.5t223.5 142.5z" />
    <glyph glyph-name="uni1D05" unicode="&#x1d05;" horiz-adv-x="1454" 
d="M184 0q82 469 206 1172h224q-133 -764 -176 -998h238q233 0 363 101t167 311q36 204 -70.5 308t-349.5 104h-202l30 174h194q366 0 527.5 -148.5t110.5 -437.5q-52 -298 -244.5 -442t-539.5 -144h-478z" />
    <glyph glyph-name="uni1D07" unicode="&#x1d07;" horiz-adv-x="1180" 
d="M184 0q82 469 206 1172h864l-32 -184l-640 2q-7 -42 -58 -324h388l-30 -174h-388q-11 -63 -29 -166.5t-25 -143.5h670l-32 -182h-894z" />
    <glyph glyph-name="uni1D0A" unicode="&#x1d0a;" horiz-adv-x="930" 
d="M184 138l12 66l14 68q57 -53 91.5 -68.5t112.5 -15.5q75 0 121.5 42t58.5 114q60 333 146 828h224l-146 -828q-29 -168 -144 -266t-298 -98q-80 0 -120.5 15.5t-83.5 60.5z" />
    <glyph glyph-name="uni1D0B" unicode="&#x1d0b;" horiz-adv-x="1254" 
d="M184 0l206 1172h224l-94 -534l522 466q-28 -25 -118 -100l182 158q4 2 12 10h264q-328 -308 -492 -460l-198 -186l-228 -212l-56 -314h-224zM1548 1558q82 72 754 672q-477 -426 -754 -672zM1276 1072l-386 -360q65 60 193.5 180.5t192.5 179.5zM1276 1072l96 90zM1232 0
h-256q175 -323 432 -804l-438 814l-90 158q16 -27 38 -65l19 -32q-1 2 -11 21l-234 434l198 184zM462 312l230 214z" />
    <glyph glyph-name="uni1D0D" unicode="&#x1d0d;" horiz-adv-x="1700" 
d="M186 0l206 1172q64 -10 216 0v-4l124 4l224 -590l428 590h134h216l-206 -1172h-216l168 952l-454 -552h-200l2 2l-260 546l-166 -948h-216z" />
    <glyph glyph-name="uni1D0F" unicode="&#x1d0f;" horiz-adv-x="1552" 
d="M470 586q-34 -188 58 -292t282 -104q191 0 325.5 104.5t168.5 291.5q15 88 -7 162t-73 123.5t-126 77t-164 27.5q-180 0 -306.5 -105.5t-157.5 -284.5zM228 586q30 171 139.5 309.5t274.5 217.5t350 79t322 -79t198.5 -217.5t31.5 -309.5q-48 -273 -259 -439.5
t-507 -166.5t-447 166.5t-103 439.5z" />
    <glyph glyph-name="uni1D18" unicode="&#x1d18;" horiz-adv-x="1172" 
d="M184 0l206 1172h422q245 0 354 -89t78 -263q-32 -179 -173 -270.5t-385 -91.5h-198l-80 -458h-224zM520 632h208q230 6 262 186q16 88 -38.5 132.5t-179.5 47.5q-56 2 -188 2z" />
    <glyph glyph-name="uni1D1B" unicode="&#x1d1b;" horiz-adv-x="1114" 
d="M196 988l32 184h1070l-16 -92q-7 -52 -16 -92h-422l-174 -988h-226q68 389 174 988h-422z" />
    <glyph glyph-name="uni1D1C" unicode="&#x1d1c;" horiz-adv-x="1354" 
d="M376 1172h224l-120 -682q-51 -302 236 -302q141 0 227 76t111 226l120 682h224l-126 -722q-42 -233 -192 -351.5t-402 -118.5q-254 0 -362 119t-66 351z" />
    <glyph glyph-name="uni1D20" unicode="&#x1d20;" horiz-adv-x="1156" 
d="M240 1172h242l156 -886l462 886h240l-644 -1172h-216z" />
    <glyph glyph-name="uni1D21" unicode="&#x1d21;" horiz-adv-x="1536" 
d="M240 1172h242l34 -766l342 766h236l90 -752l296 752h240l-434 -1172h-284l-88 826l-380 -826h-250z" />
    <glyph glyph-name="uni1D22" unicode="&#x1d22;" horiz-adv-x="1234" 
d="M1164 128q-7 -50 -22 -128h-1050l32 182l916 806h-744l32 184h1020l-32 -184l-916 -806h774z" />
    <glyph glyph-name="Wgrave" unicode="&#x1e80;" horiz-adv-x="1700" 
d="M1042 1648l-162 300h290l74 -300h-202zM280 1426h268l24 -936l400 936h260l86 -920l346 920h266l-514 -1426h-308l-82 1006l-440 -1006h-274z" />
    <glyph glyph-name="Wacute" unicode="&#x1e82;" horiz-adv-x="1700" 
d="M1042 1648l182 300h290l-270 -300h-202zM280 1426h268l24 -936l400 936h260l86 -920l346 920h266l-514 -1426h-308l-82 1006l-440 -1006h-274z" />
    <glyph glyph-name="Wdieresis" unicode="&#x1e84;" horiz-adv-x="1700" 
d="M1186 1648l44 244h244l-44 -244h-244zM856 1648l44 244h244l-44 -244h-244zM280 1426h268l24 -936l400 936h260l86 -920l346 920h266l-514 -1426h-308l-82 1006l-440 -1006h-274z" />
    <glyph glyph-name="uni1EBC" unicode="&#x1ebc;" 
d="M798 1648h-164q26 141 94.5 227.5t155.5 86.5q53 0 119 -40t105 -80l40 -40q21 0 40.5 38.5t29.5 101.5h164q-24 -141 -92.5 -227.5t-155.5 -86.5q-40 0 -80.5 25t-67.5 55t-58.5 55t-57.5 25q-21 0 -40.5 -38.5t-31.5 -101.5zM178 0q100 572 252 1426h1028l-36 -204
l-778 2q-14 -81 -39 -222.5t-35 -199.5h524l-32 -194h-526q-30 -168 -72 -406h808l-36 -202h-1058z" />
    <glyph glyph-name="Ygrave" unicode="&#x1ef2;" horiz-adv-x="1316" 
d="M854 1648l-162 300h290l74 -300h-202zM808 100q-1 -2 -8.5 -48t-9.5 -52h-250l118 662h-2l-368 764h258l272 -568l472 568h256l-638 -762z" />
    <glyph glyph-name="endash" unicode="&#x2013;" horiz-adv-x="882" 
d="M84 408l32 184h858l-32 -184h-858z" />
    <glyph glyph-name="emdash" unicode="&#x2014;" horiz-adv-x="1462" 
d="M174 408l32 184h1258l-32 -184h-1258z" />
    <glyph glyph-name="quoteleft" unicode="&#x2018;" horiz-adv-x="446" 
d="M600 1446l-20 -116q-98 0 -118 -120h98l-44 -244h-244l44 244q40 236 284 236z" />
    <glyph glyph-name="quoteright" unicode="&#x2019;" horiz-adv-x="446" 
d="M478 1446h242l-42 -244q-22 -127 -87.5 -181.5t-196.5 -54.5l20 116q52 0 79 27.5t39 92.5h-96z" />
    <glyph glyph-name="quotedblleft" unicode="&#x201c;" horiz-adv-x="932" 
d="M1084 1446l-20 -116q-96 0 -116 -120h96l-44 -244h-242l44 244q40 236 282 236zM720 1446l-20 -116q-96 0 -116 -120h96l-44 -244h-242l44 244q40 236 282 236z" />
    <glyph glyph-name="quotedblright" unicode="&#x201d;" horiz-adv-x="932" 
d="M842 1446h242l-42 -244q-22 -127 -87.5 -181.5t-196.5 -54.5l20 116q52 0 79 27.5t39 92.5h-96zM478 1446h242l-42 -244q-22 -127 -87.5 -181.5t-196.5 -54.5l20 116q52 0 79 27.5t39 92.5h-96z" />
    <glyph glyph-name="dagger" unicode="&#x2020;" horiz-adv-x="1148" 
d="M1234 1184l-34 -194h-340l-194 -1106h-224l194 1106h-340l34 194h340l60 340h224l-60 -340h340z" />
    <glyph glyph-name="daggerdbl" unicode="&#x2021;" horiz-adv-x="1148" 
d="M162 224l34 194h340l100 572h-340l34 194h340l60 340h224l-60 -340h340l-34 -194h-340l-100 -572h340l-34 -194h-340l-60 -340h-224l60 340h-340z" />
    <glyph glyph-name="bullet" unicode="&#x2022;" horiz-adv-x="446" 
d="M172 400l44 244h244l-44 -244h-244z" />
    <glyph glyph-name="ellipsis" unicode="&#x2026;" horiz-adv-x="1232" 
d="M888 0l42 242h242l-42 -242h-242zM496 0l42 242h242l-42 -242h-242zM102 0l42 242h244l-42 -242h-244z" />
    <glyph glyph-name="perthousand" unicode="&#x2030;" horiz-adv-x="2316" 
d="M1896 292q-17 -89 12.5 -142.5t93.5 -53.5t112.5 53.5t65.5 142.5q14 81 -16 130.5t-94 49.5q-65 0 -113 -49.5t-61 -130.5zM1770 292q22 133 111 214.5t209 81.5t179.5 -81t36.5 -215q-25 -141 -114.5 -226.5t-209.5 -85.5t-178.5 85.5t-33.5 226.5zM430 1240
q-15 -84 15.5 -136t94.5 -52t111.5 51.5t62.5 136.5q15 84 -14.5 135t-93.5 51t-112.5 -51t-63.5 -135zM304 1240q24 136 113 220t209 84t179 -84t35 -220q-24 -138 -113 -222t-209 -84t-179 84t-35 222zM1276 292q-16 -88 9.5 -142t82.5 -54q61 0 108 53.5t64 142.5
q14 81 -14.5 130.5t-89.5 49.5q-57 0 -102 -49.5t-58 -130.5zM1150 292q22 133 107 214.5t199 81.5q118 0 175.5 -81t34.5 -215q-26 -141 -113 -226.5t-205 -85.5q-114 0 -168.5 85.5t-29.5 226.5zM316 0l1226 1524l128 2l-1216 -1522z" />
    <glyph glyph-name="guilsinglleft" unicode="&#x2039;" horiz-adv-x="574" 
d="M590 944h194l-394 -422l246 -422h-194l-246 422z" />
    <glyph glyph-name="guilsinglright" unicode="&#x203a;" horiz-adv-x="574" 
d="M272 944h196l246 -422l-394 -422h-196l396 422z" />
    <glyph glyph-name="fraction" unicode="&#x2044;" horiz-adv-x="1124" 
d="M24 0l1226 1524h116l-1222 -1524h-120z" />
    <glyph glyph-name="Euro" unicode="&#x20ac;" horiz-adv-x="1282" 
d="M84 528l38 124h104q5 48 20 120h-102l40 124h100q96 258 305.5 404t482.5 146q143 0 247 -47t141 -151l-32 -270q-33 94 -98 155.5t-137.5 85t-156.5 23.5q-158 0 -284.5 -91.5t-195.5 -254.5h526l-40 -124h-528q-15 -65 -20 -120h526l-38 -124h-492q12 -163 107 -254.5
t253 -91.5q144 0 272.5 66.5t217.5 211.5l-68 -284q-118 -196 -458 -196q-273 0 -431.5 145.5t-164.5 402.5h-134z" />
    <glyph glyph-name="minus" unicode="&#x2212;" horiz-adv-x="1292" 
d="M178 432l24 136h1088l-24 -136h-1088z" />
    <glyph glyph-name="uni2215" unicode="&#x2215;" horiz-adv-x="966" 
d="M2 0l1090 1426l122 -6l-1078 -1420h-134z" />
    <glyph glyph-name="uni2219" unicode="&#x2219;" horiz-adv-x="446" 
d="M172 400l44 244h244l-44 -244h-244z" />
    <glyph glyph-name="uniA730" unicode="&#xa730;" horiz-adv-x="1110" 
d="M184 0q82 469 206 1172h864l-32 -184l-640 2q-7 -42 -58 -324h400l-32 -174h-398l-86 -492h-224z" />
    <glyph glyph-name="uniA731" unicode="&#xa731;" horiz-adv-x="1118" 
d="M118 168l32 296q49 -132 166 -210t262 -78q113 0 176 42t74 110q12 64 -47.5 105t-198.5 57q-200 23 -297.5 118.5t-72.5 243.5q27 151 169 245.5t335 94.5q109 0 211.5 -45.5t166.5 -124.5l-32 -238q-78 95 -181.5 151.5t-200.5 56.5q-85 0 -144 -33.5t-68 -84.5
q-11 -63 44.5 -104t171.5 -54q220 -26 333 -131t85 -263q-27 -156 -179 -249t-381 -93q-151 0 -260.5 53t-163.5 135z" />
    <glyph glyph-name="uniF078" unicode="&#xf078;" horiz-adv-x="1168" 
d="M1084 1172h270l-512 -576l294 -596h-242l-208 420l-374 -420h-272l550 616l-276 556h242l188 -382z" />
  </font>
</defs>
</svg>
