<?xml version="1.0" standalone="no"?>
<!DOCTYPE svg PUBLIC "-//W3C//DTD SVG 1.1//EN" "http://www.w3.org/Graphics/SVG/1.1/DTD/svg11.dtd" >
<svg xmlns="http://www.w3.org/2000/svg" xmlns:xlink="http://www.w3.org/1999/xlink" version="1.1">
<metadata>
Created by FontForge 20170731 at Sun Aug  6 18:07:04 2023
 By Aleksey,,,
</metadata>
<defs>
<font id="Gallant-black" horiz-adv-x="1512" >
  <font-face 
    font-family="Gallant"
    font-weight="900"
    font-stretch="normal"
    units-per-em="2048"
    panose-1="0 0 0 0 0 0 0 0 0 0"
    ascent="1638"
    descent="-410"
    x-height="1044"
    cap-height="1426"
    bbox="-146 -780 2536 1988"
    underline-thickness="100"
    underline-position="-400"
    unicode-range="U+000D-F078"
  />
<missing-glyph horiz-adv-x="200" 
 />
    <glyph glyph-name=".notdef" horiz-adv-x="200" 
 />
    <glyph glyph-name="uni0000" horiz-adv-x="0" 
 />
    <glyph glyph-name="uni0000" horiz-adv-x="0" 
 />
    <glyph glyph-name="uni000D" unicode="&#xd;" horiz-adv-x="512" 
 />
    <glyph glyph-name="space" unicode=" " horiz-adv-x="572" 
 />
    <glyph glyph-name="exclam" unicode="!" horiz-adv-x="536" 
d="M104 0v326h328v-326h-328zM92 1426h352q-6 -253 -22 -598l-50 -382h-224l-44 382q0 157 -3 306.5t-6 220.5z" />
    <glyph glyph-name="quotedbl" unicode="&#x22;" horiz-adv-x="1162" 
d="M654 1426h300v-316l-78 -296h-144l-78 296v316zM166 1426h300v-316l-78 -296h-144l-78 296v316z" />
    <glyph glyph-name="numbersign" unicode="#" horiz-adv-x="1568" 
d="M1016 1504h286l-46 -338h270l-34 -244h-268l-48 -340h250l-34 -244h-248l-46 -338h-286l46 338h-266l-46 -338h-286l46 338h-276l34 244h274l48 340h-256l34 244h254l46 338h286l-46 -338h266zM672 922l-48 -340h266l48 340h-266z" />
    <glyph glyph-name="dollar" unicode="$" horiz-adv-x="1370" 
d="M736 1576h132v-152q214 -35 296 -120l16 -354q-106 109 -310 164l2 -244q203 -58 314.5 -181t111.5 -295q0 -156 -112 -261.5t-310 -138.5v-144h-132v130q-80 0 -118 2v-132h-132v142q-137 17 -236 55.5t-142 84.5l-32 442q57 -103 163.5 -175.5t244.5 -104.5l-2 290
q-218 47 -337 163.5t-119 286.5q0 160 125 269t327 135v138h132v-130q42 0 118 -4v134zM740 896l-2 244q-76 8 -118 8l2 -234q4 -1 118 -18zM494 936l-6 208q-28 -2 -49.5 -18t-30 -40.5t-5.5 -51t26.5 -53.5t64.5 -45zM622 562l2 -288q79 -4 118 0l-2 262q-45 17 -118 26z
M872 514l2 -228q40 6 66 30t31.5 54.5t-1.5 61t-33.5 53.5t-64.5 29z" />
    <glyph glyph-name="percent" unicode="%" horiz-adv-x="1716" 
d="M264 1240q0 -66 29 -107t77 -41q46 0 75 41t29 107t-28.5 106t-75.5 40q-48 0 -77 -40t-29 -106zM96 1240q0 136 75.5 220t198.5 84t198.5 -84t75.5 -220q0 -138 -75.5 -222t-198.5 -84t-198.5 84t-75.5 222zM1286 292q0 -71 26.5 -113.5t69.5 -42.5q47 0 75.5 43
t28.5 113q0 63 -28.5 101.5t-75.5 38.5q-43 0 -69.5 -38.5t-26.5 -101.5zM1118 292q0 133 72.5 214.5t191.5 81.5q123 0 197.5 -81t74.5 -215q0 -141 -74.5 -226.5t-197.5 -85.5q-119 0 -191.5 85.5t-72.5 226.5zM318 0l960 1524l168 -2l-958 -1524z" />
    <glyph glyph-name="ampersand" unicode="&#x26;" horiz-adv-x="1470" 
d="M1346 4q-73 -31 -156 -24.5t-151.5 31t-128.5 63.5q-169 -114 -412 -114q-199 0 -321.5 105.5t-122.5 278.5q0 111 61.5 209t162.5 151q-53 54 -83.5 133.5t-30.5 164.5q0 143 106 230.5t278 87.5q163 0 262.5 -85t99.5 -225q0 -103 -56 -186t-158 -140q27 -29 88 -95.5
t92 -100.5q41 104 38 228l274 -64q3 -216 -90 -380q57 -20 154 -20q42 0 54 4zM546 846l10 6q43 19 69.5 63t26.5 95q0 29 -29 46.5t-75 17.5t-74 -13.5t-28 -36.5q0 -45 27.5 -93.5t72.5 -84.5zM446 538q-3 -1 -7 -3.5t-7 -4t-6 -2.5q-26 -12 -42 -52t-16 -94
q0 -57 47 -92.5t125 -35.5q79 0 144 28q-53 56 -133 142.5t-105 113.5z" />
    <glyph glyph-name="quotesingle" unicode="'" horiz-adv-x="570" 
d="M166 1426h300v-316l-78 -296h-144l-78 296v316z" />
    <glyph glyph-name="parenleft" unicode="(" horiz-adv-x="754" 
d="M456 1516l106 -116q-324 -273 -324 -764q0 -477 324 -750l-106 -116q-414 348 -414 866q0 532 414 880z" />
    <glyph glyph-name="parenright" unicode=")" horiz-adv-x="648" 
d="M274 -230l-106 116q324 273 324 764q0 477 -324 750l106 116q414 -348 414 -866q0 -532 -414 -880z" />
    <glyph glyph-name="asterisk" unicode="*" horiz-adv-x="874" 
d="M704 1344l78 -238l-194 -28l140 -136l-204 -148l-86 176l-86 -176l-204 148l140 136l-194 28l78 238l174 -92l-34 194h250l-32 -194z" />
    <glyph glyph-name="plus" unicode="+" horiz-adv-x="1188" 
d="M496 430h-444v184h444v430h196v-430h444v-184h-444v-430h-196v430z" />
    <glyph glyph-name="comma" unicode="," horiz-adv-x="530" 
d="M102 326h326v-326q0 -149 -75.5 -212.5t-250.5 -63.5v156q70 0 100 27.5t30 92.5h-130v326z" />
    <glyph glyph-name="hyphen" unicode="-" horiz-adv-x="792" 
d="M102 376v248h588v-248h-588z" />
    <glyph glyph-name="period" unicode="." horiz-adv-x="530" 
d="M102 0v326h326v-326h-326z" />
    <glyph glyph-name="slash" unicode="/" horiz-adv-x="704" 
d="M2 0l570 1426h130l-570 -1426h-130z" />
    <glyph glyph-name="zero" unicode="0" horiz-adv-x="1462" 
d="M432 712q0 -228 72.5 -344t213.5 -116t213.5 116t72.5 344q0 217 -75.5 338.5t-210.5 121.5t-210.5 -121.5t-75.5 -338.5zM86 712q0 347 167 540.5t465 193.5t465 -193.5t167 -540.5q0 -363 -159.5 -547.5t-472.5 -184.5t-472.5 184.5t-159.5 547.5z" />
    <glyph glyph-name="one" unicode="1" horiz-adv-x="952" 
d="M490 1426h260v-1426h-334v1060l-256 -102v334z" />
    <glyph glyph-name="two" unicode="2" horiz-adv-x="1280" 
d="M70 0q0 121 15.5 211t44.5 157t82 120t117 92.5t159 81.5q156 69 251 161.5t95 174.5q0 58 -66.5 95t-157.5 37q-93 0 -162.5 -10.5t-125.5 -35t-92.5 -48t-91.5 -66.5v326q63 63 185.5 106.5t306.5 43.5q147 0 271.5 -56t200.5 -161.5t76 -238.5q0 -134 -88 -254.5
t-232 -183.5q-131 -58 -213 -111t-131 -119h694v-322h-1138z" />
    <glyph glyph-name="three" unicode="3" horiz-adv-x="1308" 
d="M160 90v462q43 -74 84 -122t98 -84t131.5 -52t176.5 -16q86 0 146 36.5t60 93.5q0 99 -70.5 159.5t-185.5 60.5h-120v258h160q91 0 146.5 45t55.5 119q0 124 -214 124q-231 0 -430 -190v360q41 36 92 58.5t117.5 31t110 10.5t120.5 2q258 0 386 -98t128 -270
q0 -91 -54 -169t-146 -125q121 -56 192.5 -161t71.5 -227q0 -184 -162.5 -300t-403.5 -116q-207 0 -311.5 23t-178.5 87z" />
    <glyph glyph-name="four" unicode="4" horiz-adv-x="1252" 
d="M52 598l668 828h260v-788h230v-298h-230v-340h-336v10v330h-312l-280 -2v260zM396 638h250v310z" />
    <glyph glyph-name="five" unicode="5" horiz-adv-x="1320" 
d="M180 658l110 768h858l-12 -176q2 26 6 88t6 88l-24 -352l-516 -42l-24 -106q50 -10 116 -10q242 0 390 -129.5t148 -340.5q0 -210 -157 -338t-415 -128q-142 0 -247 18t-156.5 40t-100.5 56v450q82 -138 203.5 -207.5t300.5 -68.5q96 0 154 49t58 129q0 67 -65 98
t-255 50q-59 9 -84 24t-4 44z" />
    <glyph glyph-name="six" unicode="6" horiz-adv-x="1204" 
d="M1102 1358v-330q-41 71 -137 114.5t-211 43.5q-152 0 -233 -115.5t-81 -314.5q9 94 77 152t173 58v-2q235 4 383.5 -135.5t148.5 -362.5q0 -219 -153.5 -352.5t-404.5 -133.5q-282 0 -426 181.5t-144 536.5q0 169 42.5 306t124 236t207 152.5t286.5 53.5q133 0 229 -24.5
t119 -63.5zM626 690q-93 -9 -130 -75t-28 -187q23 -88 70 -131.5t126 -44.5q60 -1 98 10t59.5 40t30 66t10.5 98q4 115 -56 166.5t-180 57.5z" />
    <glyph glyph-name="seven" unicode="7" horiz-adv-x="1042" 
d="M62 1426h958v-322q-245 -111 -349.5 -365.5t-104.5 -738.5h-370q0 232 19.5 400.5t63.5 295.5t101.5 218t147.5 190h-466v322z" />
    <glyph glyph-name="eight" unicode="8" horiz-adv-x="1320" 
d="M506 1048q0 -70 28.5 -104t117.5 -34q83 0 115.5 32t32.5 106q0 62 -30 93t-118 31q-81 0 -113.5 -30t-32.5 -94zM158 1074q0 180 133 276t361 96q241 0 369.5 -100t128.5 -272q0 -223 -200 -312q129 -50 193.5 -147.5t64.5 -232.5q0 -202 -148 -302t-408 -100
q-280 0 -419 107.5t-139 296.5q0 281 262 380q-198 87 -198 310zM484 404q0 -77 36 -114.5t132 -37.5q182 0 182 160q0 200 -182 200q-88 0 -128 -51t-40 -157z" />
    <glyph glyph-name="nine" unicode="9" horiz-adv-x="1226" 
d="M190 76v366q39 -69 145.5 -110.5t242.5 -41.5q148 0 226 102t78 278q-9 -93 -79 -149.5t-177 -56.5q-236 0 -380 136.5t-144 359.5q0 219 153.5 352.5t404.5 133.5q282 0 426 -181.5t144 -536.5q0 -344 -168.5 -546t-483.5 -202q-150 0 -256.5 26.5t-131.5 69.5zM690 736
q97 0 139.5 66t30.5 230q-20 73 -66.5 108t-133.5 34q-62 -1 -102.5 -15.5t-60.5 -45t-27.5 -65.5t-7.5 -88q0 -224 228 -224z" />
    <glyph glyph-name="colon" unicode=":" horiz-adv-x="530" 
d="M102 718v326h326v-326h-326zM102 0v326h326v-326h-326z" />
    <glyph glyph-name="semicolon" unicode=";" horiz-adv-x="530" 
d="M102 718v326h326v-326h-326zM102 326h326v-326q0 -149 -75.5 -212.5t-250.5 -63.5v156q70 0 100 27.5t30 92.5h-130v326z" />
    <glyph glyph-name="less" unicode="&#x3c;" horiz-adv-x="1244" 
d="M1122 1006v-248l-702 -236l702 -236v-248l-1030 374v220z" />
    <glyph glyph-name="equal" unicode="=" horiz-adv-x="1272" 
d="M80 422h1088v-182h-1088v182zM80 824h1088v-182h-1088v182z" />
    <glyph glyph-name="greater" unicode="&#x3e;" horiz-adv-x="1244" 
d="M824 522l-702 236v248l1030 -374v-220l-1030 -374v248z" />
    <glyph glyph-name="question" unicode="?" horiz-adv-x="1188" 
d="M314 0v326h328v-326h-328zM88 1298q51 65 159.5 106.5t250.5 41.5q264 0 425 -103.5t161 -272.5q0 -91 -70.5 -179t-237.5 -205q-97 -67 -125.5 -112.5t-28.5 -129.5h-288q0 120 18.5 189t65.5 123.5t148 125.5q109 76 156.5 120t47.5 68q0 51 -74.5 82.5t-197.5 31.5
q-260 0 -410 -224v338z" />
    <glyph glyph-name="at" unicode="@" horiz-adv-x="2648" 
d="M2176 -230l104 -148q-162 -114 -401.5 -183t-470.5 -69q-286 0 -526 84.5t-407 236.5t-260 370.5t-93 478.5q0 208 58 390.5t168.5 325t263.5 244.5t350 156t422 54q257 0 471.5 -72t364.5 -201t233 -314.5t83 -406.5q0 -342 -166.5 -551t-439.5 -209q-114 0 -195 54
t-119 152q-71 -89 -178.5 -137.5t-237.5 -48.5q-253 0 -389.5 155t-106.5 409q25 217 198 350.5t428 133.5q208 0 314 -156l16 134h274l-70 -584q-15 -129 28 -208.5t128 -79.5q132 0 213 161t81 425q0 238 -115.5 419.5t-327 281t-487.5 99.5q-231 0 -425 -70.5
t-329.5 -197.5t-210.5 -309t-75 -399q0 -290 132.5 -512t374 -343t557.5 -121q213 0 424.5 56.5t343.5 149.5zM1600 508q11 116 -72 186t-230 70q-120 0 -201 -61.5t-93 -162.5q-16 -138 46.5 -222t181.5 -84q151 0 249 50.5t109 133.5z" />
    <glyph glyph-name="A" unicode="A" 
d="M0 0l570 1426h366l554 -1426h-364l-84 218l-594 -2q-12 -32 -41.5 -106.5t-42.5 -109.5h-364zM548 474h398l-198 518q-80 -203 -200 -518z" />
    <glyph glyph-name="B" unicode="B" horiz-adv-x="1472" 
d="M156 0v1426h566q278 -3 397 -93t119 -295q0 -86 -46.5 -152.5t-133.5 -107.5q164 -28 253 -119t89 -221q0 -237 -133 -337.5t-445 -100.5h-666zM492 872l264 -4q50 -2 87 41t37 117q0 64 -45.5 103t-100.5 37h-242v-294zM492 260h234q153 -1 215.5 39t62.5 137
q0 75 -81.5 121.5t-214.5 42.5h-136h-80v-340z" />
    <glyph glyph-name="C" unicode="C" horiz-adv-x="1416" 
d="M1378 446l-4 -314q-36 -69 -160 -110.5t-292 -41.5q-184 0 -342 59t-266 158.5t-169 233t-61 281.5t61 282t169 234t266 159t342 59q158 0 282.5 -41.5t169.5 -110.5v-284q-75 58 -202 110t-250 52q-139 0 -249.5 -63.5t-169.5 -168t-59 -228.5t59 -228.5t169.5 -168
t249.5 -63.5q146 0 253.5 48.5t202.5 145.5z" />
    <glyph glyph-name="D" unicode="D" horiz-adv-x="1594" 
d="M156 0v1426h518q401 0 604.5 -180t203.5 -534q0 -362 -183.5 -537t-564.5 -175h-578zM492 260h218q210 0 311 111t101 341q0 225 -110 339.5t-326 114.5h-194v-906z" />
    <glyph glyph-name="E" unicode="E" horiz-adv-x="1402" 
d="M156 0v1426h1114v-274l-778 2v-318h524l2 -262h-526v-302h808v-272h-1144z" />
    <glyph glyph-name="F" unicode="F" horiz-adv-x="1332" 
d="M156 0v1426h1114v-274l-778 2v-318h536v-262h-536v-574h-336z" />
    <glyph glyph-name="G" unicode="G" horiz-adv-x="1602" 
d="M1106 738h404v-576q-100 -84 -260.5 -133t-353.5 -49q-242 0 -426.5 91t-285 257t-100.5 384t100.5 384.5t285.5 258t426 91.5q184 0 349.5 -79.5t252.5 -210.5l-232 -222q-72 107 -174 172.5t-196 65.5q-204 0 -328 -126.5t-124 -333.5t124 -333.5t328 -126.5
q100 0 177 20t117 54v136h-78z" />
    <glyph glyph-name="H" unicode="H" horiz-adv-x="1710" 
d="M156 0v1426h336v-580h712v580h334v-1426h-334v574h-712v-574h-336z" />
    <glyph glyph-name="I" unicode="I" horiz-adv-x="686" 
d="M180 0v1426h334v-1426h-334z" />
    <glyph glyph-name="J" unicode="J" horiz-adv-x="1096" 
d="M160 130v98l2 124q62 -38 119.5 -50t180.5 -12q61 0 93.5 34.5t32.5 93.5v1008h336v-1008q0 -201 -119.5 -319.5t-342.5 -118.5q-126 0 -188.5 10t-111.5 40z" />
    <glyph glyph-name="K" unicode="K" 
d="M156 0v1426h336v-580l562 580h418l-502 -530l520 -896h-404l-370 628l-224 -236v-392h-336z" />
    <glyph glyph-name="L" unicode="L" horiz-adv-x="1284" 
d="M180 0v1426h334v-1154h708v-272h-1042z" />
    <glyph glyph-name="M" unicode="M" horiz-adv-x="1944" 
d="M160 0v1426q172 -10 322 0v-6l186 6l294 -678l286 678l202 -2v2h322v-1426h-322v1072l-336 -672h-298v2l-334 660v-1062h-322z" />
    <glyph glyph-name="N" unicode="N" horiz-adv-x="1658" 
d="M1152 1426h334v-1426h-474l-520 866v-866h-336v1426h378l618 -1030v1030z" />
    <glyph glyph-name="O" unicode="O" horiz-adv-x="1690" 
d="M454 712q0 -205 101 -318.5t275 -113.5q176 0 282 114.5t106 317.5q0 191 -116.5 309.5t-285.5 118.5q-164 0 -263 -116t-99 -312zM94 712q0 154 57 290.5t155.5 233.5t236 153.5t293.5 56.5t293.5 -56.5t236 -153.5t155.5 -233.5t57 -290.5q0 -218 -92 -384t-260.5 -257
t-389.5 -91t-389.5 91t-260.5 257t-92 384z" />
    <glyph glyph-name="P" unicode="P" horiz-adv-x="1310" 
d="M156 0v1426h476q300 0 453 -108t153 -320q0 -230 -153 -347t-453 -117h-140v-534h-336zM492 794h154q108 3 167 53.5t59 148.5q0 164 -254 170q-38 2 -126 2v-374z" />
    <glyph glyph-name="Q" unicode="Q" horiz-adv-x="1690" 
d="M454 712q0 -219 124 -338t326 -92q-47 84 -134 230l336 -34q0 -4 32 -58q80 111 80 292q0 193 -112.5 313.5t-279.5 120.5q-165 0 -268.5 -119.5t-103.5 -314.5zM94 712q0 154 57 290.5t155.5 233.5t236 153.5t293.5 56.5t293.5 -56.5t236 -153.5t155.5 -233.5t57 -290.5
q0 -185 -67.5 -334t-192.5 -246l228 -360l-378 40q-46 84 -108 194q-114 -26 -224 -26q-221 0 -389.5 91t-260.5 257t-92 384z" />
    <glyph glyph-name="R" unicode="R" horiz-adv-x="1338" 
d="M156 0v1426h476q300 0 453 -108t153 -320q0 -279 -266 -376l382 -622h-384l-350 570h-128v-570h-336zM492 830h150q105 -6 165.5 38.5t60.5 127.5t-65 128t-185 42q-38 -2 -126 -2v-334z" />
    <glyph glyph-name="S" unicode="S" horiz-adv-x="1370" 
d="M116 132l-32 442q76 -140 242 -221t368 -81q67 0 106 3t76.5 13.5t53 33t14.5 58.5q-4 80 -87.5 122.5t-248.5 61.5q-274 32 -424 154.5t-150 315.5q0 184 161 298t411 114q190 0 342 -38t216 -104l16 -354q-89 91 -245.5 144.5t-328.5 53.5q-47 0 -69.5 -0.5t-56 -4
t-49 -11t-29.5 -22t-18 -36.5q-6 -33 -1 -57.5t29 -42t42.5 -28t67.5 -19.5t75 -12.5t93 -11.5q5 -1 8 -1q280 -32 440 -166t160 -342q0 -190 -162.5 -302t-441.5 -112q-210 0 -365 44.5t-213 107.5z" />
    <glyph glyph-name="T" unicode="T" horiz-adv-x="1252" 
d="M22 1152v274h1208v-274h-436v-1152h-336v1152h-436z" />
    <glyph glyph-name="U" unicode="U" horiz-adv-x="1604" 
d="M142 1426h336v-822q0 -314 314 -314t314 314v822h336v-880q0 -281 -164 -423.5t-486 -142.5q-321 0 -485.5 143t-164.5 423v880z" />
    <glyph glyph-name="V" unicode="V" horiz-adv-x="1412" 
d="M4 1426h360l338 -986l328 986h360l-526 -1426h-322z" />
    <glyph glyph-name="W" unicode="W" horiz-adv-x="1792" 
d="M4 1426h360l150 -768l198 768h342l212 -758l144 758h360l-266 -1426h-390l-232 870l-240 -870h-356z" />
    <glyph glyph-name="X" unicode="X" horiz-adv-x="1360" 
d="M950 1426h398l-476 -722l456 -704h-358l-278 430l-284 -430h-400l486 736l-448 690h358l270 -418z" />
    <glyph glyph-name="Y" unicode="Y" horiz-adv-x="1336" 
d="M976 1426h338l-482 -764v-662h-334v662l-482 764h338l312 -496z" />
    <glyph glyph-name="Z" unicode="Z" horiz-adv-x="1372" 
d="M1280 272v-272h-1188v272l746 880h-716v274h1158v-274l-748 -880h748z" />
    <glyph glyph-name="bracketleft" unicode="[" horiz-adv-x="798" 
d="M438 1256v-1316h298v-170h-494v1656h494v-170h-298z" />
    <glyph glyph-name="backslash" unicode="\" horiz-adv-x="750" 
d="M580 0l-578 1426h168l578 -1426h-168z" />
    <glyph glyph-name="bracketright" unicode="]" horiz-adv-x="808" 
d="M360 1256h-298v170h494v-1656h-494v170h298v1316z" />
    <glyph glyph-name="asciicircum" unicode="^" horiz-adv-x="756" 
d="M376 1330l-82 -62h-274l218 300h280l220 -300h-274q-86 54 -88 62z" />
    <glyph glyph-name="underscore" unicode="_" horiz-adv-x="1422" 
d="M102 -292v184h1218v-184h-1218z" />
    <glyph glyph-name="grave" unicode="`" horiz-adv-x="756" 
d="M242 1268l-230 300h390l114 -300h-274z" />
    <glyph glyph-name="a" unicode="a" horiz-adv-x="1380" 
d="M386 512q0 -258 230 -258q79 0 140.5 71.5t61.5 196.5t-61.5 195.5t-140.5 70.5q-111 0 -170.5 -71.5t-59.5 -204.5zM84 522q0 244 130.5 393t345.5 149q136 0 258 -94v74h300v-1044h-300v64q-121 -84 -258 -84q-215 0 -345.5 149t-130.5 393z" />
    <glyph glyph-name="b" unicode="b" horiz-adv-x="1282" 
d="M144 0v1524h300v-550q138 90 310 90q192 0 309 -149t117 -393t-117 -393t-309 -149q-173 0 -310 92v-72h-300zM444 522q0 -146 60.5 -216t161.5 -70q93 0 152.5 73t59.5 203q0 132 -55.5 210t-146.5 78q-103 0 -167.5 -67t-64.5 -211z" />
    <glyph glyph-name="c" unicode="c" horiz-adv-x="1094" 
d="M1044 360l-12 -264q-30 -53 -108.5 -84.5t-187.5 -31.5q-149 0 -267.5 32.5t-205 98t-133 169.5t-46.5 242t48 243.5t134.5 171t201 98.5t252.5 33q114 0 196 -34.5t116 -77.5v-262q-28 19 -68.5 48.5t-58 40.5t-47.5 25.5t-61.5 19t-76.5 4.5q-138 0 -224 -78t-86 -232
q0 -147 87 -220.5t239 -73.5q52 0 93 11t63 23.5t70.5 45t81.5 52.5z" />
    <glyph glyph-name="d" unicode="d" horiz-adv-x="1332" 
d="M366 530q0 -128 75 -205t185 -77q114 0 189 73t75 201t-74.5 203t-187.5 75q-112 0 -187 -71.5t-75 -198.5zM84 522q0 243 127 390t337 152q195 6 342 -90v550h300v-1524h-300v68q-143 -94 -342 -88q-210 8 -337 154t-127 388z" />
    <glyph glyph-name="e" unicode="e" horiz-adv-x="1148" 
d="M1054 360l-10 -240q-44 -63 -145.5 -101.5t-252.5 -38.5q-263 0 -412.5 135t-149.5 407t139 407t383 135q252 0 373 -158t107 -434h-300q3 52 0 98v-98h-374q12 -117 73 -174.5t161 -57.5q75 0 142 15t106.5 34t86 41t73.5 30zM774 660q-18 81 -61 125.5t-107 44.5
q-141 0 -182 -170h350z" />
    <glyph glyph-name="f" unicode="f" horiz-adv-x="914" 
d="M546 966h382v-234h-382v-732h-300v732h-184v234h184v92q0 242 120.5 352.5t347.5 113.5q143 0 214 -34v-240q-53 26 -210 30q-172 -3 -172 -222v-92z" />
    <glyph glyph-name="g" unicode="g" horiz-adv-x="1312" 
d="M124 -360l14 330q66 -89 186.5 -147.5t303.5 -58.5q116 0 179 67.5t63 182.5v58q-137 -75 -330 -72q-456 7 -456 522q0 539 456 542q192 3 330 -88v68h300v-984q0 -262 -138 -415t-400 -153q-186 0 -278 27t-230 121zM390 530q0 -266 232 -266q108 0 178 69t70 189
q0 128 -69.5 199t-178.5 71q-113 0 -172.5 -56.5t-59.5 -205.5z" />
    <glyph glyph-name="h" unicode="h" horiz-adv-x="1216" 
d="M774 0v634q0 72 -39 110t-105 38q-84 0 -135 -46.5t-51 -121.5v-614h-300v1524h300v-562q122 92 302 92q151 0 239.5 -108t88.5 -312v-634h-300z" />
    <glyph glyph-name="i" unicode="i" horiz-adv-x="628" 
d="M172 1268v326q312 -2 328 0q2 -5 2 -86.5t-1 -160.5l-1 -79h-328zM186 0v1044h300v-1044h-300zM500 1594z" />
    <glyph glyph-name="j" unicode="j" horiz-adv-x="604" 
d="M162 1268v326h328v-326h-328zM-134 -138q15 -3 86.5 -28t85.5 -24q40 0 59.5 4t40.5 21.5t29 57.5t9 107v1044h300v-1044q0 -84 -6 -147.5t-20.5 -117t-37.5 -89t-57 -62.5t-79.5 -38t-105 -15.5t-132.5 5.5q3 1 -9 6q-20 9 -124 47q-33 12 -51 19z" />
    <glyph glyph-name="k" unicode="k" horiz-adv-x="1212" 
d="M144 0v1524h300v-874l356 394h386l-286 -306l290 -738h-370l-130 510l-246 -266v-244h-300z" />
    <glyph glyph-name="l" unicode="l" horiz-adv-x="548" 
d="M106 0v1524h300v-1524h-300z" />
    <glyph glyph-name="m" unicode="m" horiz-adv-x="1810" 
d="M1378 0q2 444 0 634q0 45 -42.5 79.5t-109.5 34.5q-168 0 -168 -134v-614h-300q2 444 0 634q0 44 -43 79t-105 35q-86 0 -131 -31t-45 -103v-614h-300v1044h300v-104q120 114 296 114q193 0 278 -170q55 81 142.5 125.5t189.5 44.5q156 0 247 -108t91 -312v-634h-300z
" />
    <glyph glyph-name="n" unicode="n" horiz-adv-x="1196" 
d="M764 0q12 444 0 634q-6 37 -45 74.5t-97 37.5q-188 0 -188 -132v-614h-300v1044h300v-120q53 64 132 97t170 33q151 0 239.5 -108t88.5 -312v-634h-300z" />
    <glyph glyph-name="o" unicode="o" horiz-adv-x="1244" 
d="M374 526q0 -140 67 -218t175 -78q102 0 165 68t63 222q0 143 -59 220.5t-165 77.5q-48 0 -90 -15t-78 -47.5t-57 -91.5t-21 -138zM84 522q0 272 141 407t389 135q265 0 396.5 -144t131.5 -398q0 -272 -141 -407t-387 -135q-266 0 -398 144t-132 398z" />
    <glyph glyph-name="p" unicode="p" horiz-adv-x="1282" 
d="M144 -358v1402h300v-80q145 100 318 100q188 0 303 -149t115 -393t-115 -393t-303 -149q-176 0 -318 92v-430h-300zM444 522q0 -143 70.5 -210.5t179.5 -67.5q88 0 142 73t54 203q0 132 -51.5 206t-138.5 74q-52 0 -96 -15t-81 -47t-58 -87t-21 -129z" />
    <glyph glyph-name="q" unicode="q" horiz-adv-x="1322" 
d="M386 526q0 -130 64 -202t168 -72q116 0 189 70.5t73 199.5t-76 201.5t-192 72.5q-103 0 -164.5 -70t-61.5 -200zM84 522q0 243 123 388.5t327 153.5q198 6 346 -102v82h300v-1402h-300v434q-149 -96 -346 -96q-203 0 -326.5 149t-123.5 393z" />
    <glyph glyph-name="r" unicode="r" horiz-adv-x="908" 
d="M866 738q-9 7 -24.5 17t-61 26.5t-88.5 16.5q-136 -1 -192 -68.5t-56 -195.5v-534h-300v1044h300v-66q90 90 240 90q60 0 101.5 -16t80.5 -52v-262z" />
    <glyph glyph-name="s" unicode="s" horiz-adv-x="1050" 
d="M114 122l-20 316q43 -92 165.5 -153t272.5 -61q67 0 113 20t39 64q-5 32 -31.5 50.5t-52 23.5t-93.5 14q-9 1 -13 2q-202 25 -317 116t-115 222q0 142 125 230t315 88q141 0 246.5 -31t129.5 -77l48 -276q-36 68 -160 115t-264 47h-15q-29 0 -43.5 -0.5t-36.5 -4.5
t-33 -11.5t-20 -23t-10 -38.5q-1 -16 3 -28t16 -20t23.5 -13.5t35 -9.5t40 -6t49.5 -5.5t53 -5.5q213 -25 318.5 -112t105.5 -224q0 -99 -60.5 -177t-164.5 -120.5t-231 -42.5q-158 0 -275 38t-143 94z" />
    <glyph glyph-name="t" unicode="t" horiz-adv-x="868" 
d="M806 1038v-260h-334v-418q0 -122 176 -122q72 0 152 34v-250q-114 -42 -230 -42q-213 0 -305.5 95t-92.5 285v418h-134v260h134v342l300 186v-528h334z" />
    <glyph glyph-name="u" unicode="u" horiz-adv-x="1216" 
d="M1074 0h-300v120q-60 -67 -136.5 -103.5t-157.5 -36.5q-100 0 -167.5 28t-106.5 87t-55.5 139t-16.5 196v614h300v-614q0 -93 30.5 -135.5t109.5 -42.5q90 0 145 70t55 184v538h300v-1044z" />
    <glyph glyph-name="v" unicode="v" horiz-adv-x="1036" 
d="M2 1044h338l176 -710l184 710h314l-348 -1044h-328z" />
    <glyph glyph-name="w" unicode="w" horiz-adv-x="1514" 
d="M2 1044h320l134 -662l160 662h262l-2 -4l162 -660l134 664h320l-258 -1044h-336l-150 558l-150 -558h-334z" />
    <glyph glyph-name="x" unicode="x" horiz-adv-x="1142" 
d="M734 1042h384l-378 -504l390 -538h-370l-208 286l-214 -286h-386l412 548l-360 496h370l178 -246z" />
    <glyph glyph-name="y" unicode="y" horiz-adv-x="1040" 
d="M2 1044h338l176 -598l164 598h338l-420 -1290q-36 -115 -132.5 -166.5t-281.5 -51.5q-18 0 -67 5t-89 10l-40 5v276q156 -36 196 -36q154 0 156 12l42 156z" />
    <glyph glyph-name="z" unicode="z" horiz-adv-x="982" 
d="M92 1044h816v-182l-478 -628h510v-234h-878v182l464 628h-434v234z" />
    <glyph glyph-name="braceleft" unicode="{" horiz-adv-x="768" 
d="M706 1426v-170h-160q-39 0 -63.5 -33t-24.5 -85v-147.5v-102.5t-0.5 -76t-1.5 -18q0 -83 -27.5 -140t-74.5 -74q47 -17 74.5 -74t27.5 -140q2 -132 2 -344q0 -52 24.5 -85t63.5 -33h160v-170h-160q-127 0 -205.5 79.5t-78.5 208.5v382q0 47 -34.5 75.5t-91.5 28.5h-24
v144h24q57 0 91.5 28.5t34.5 75.5v382q0 129 78.5 208.5t205.5 79.5h160z" />
    <glyph glyph-name="bar" unicode="|" horiz-adv-x="380" 
d="M92 1624h196v-2186h-196v2186z" />
    <glyph glyph-name="braceright" unicode="}" horiz-adv-x="768" 
d="M112 1426h160q127 0 205.5 -79.5t78.5 -208.5v-382q0 -47 34.5 -75.5t91.5 -28.5h24v-144h-24q-57 0 -91.5 -28.5t-34.5 -75.5v-382q0 -129 -78.5 -208.5t-205.5 -79.5h-160v170h160q39 0 63.5 33t24.5 85l2 344q0 83 27.5 140t74.5 74q-47 17 -74.5 74t-27.5 140l-2 188
v156q0 52 -24.5 85t-63.5 33h-160v170z" />
    <glyph glyph-name="asciitilde" unicode="~" horiz-adv-x="756" 
d="M196 522h-222q0 145 67.5 234.5t176.5 85.5q74 0 119.5 -15t95.5 -46t85 -45q15 -2 24.5 3t13.5 19t5 27t1 37h222q0 -144 -67 -232t-177 -88v2v-2q-56 0 -104.5 16.5t-76.5 36.5t-60.5 36.5t-58.5 16.5q-20 0 -32 -23.5t-12 -62.5z" />
    <glyph glyph-name="uni00A0" unicode="&#xa0;" horiz-adv-x="502" 
 />
    <glyph glyph-name="exclamdown" unicode="&#xa1;" horiz-adv-x="536" 
d="M104 1426h328v-326h-328v326zM92 0v590l130 392h92l130 -392v-590h-352z" />
    <glyph glyph-name="cent" unicode="&#xa2;" horiz-adv-x="1094" 
d="M690 1194h134v-134q75 -14 129 -43t79 -61v-262q-26 18 -61.5 44t-52.5 38t-42 25t-50 19l4 -582q33 8 61.5 23.5t73.5 47t79 51.5l-12 -264q-47 -85 -200 -110v-136h-134v130q-289 9 -451.5 144t-162.5 398q0 108 30 196.5t83.5 151.5t129.5 107t167 66t196 25v126z
M696 230l-4 602q-127 -8 -204.5 -86.5t-77.5 -223.5q0 -137 75.5 -210t210.5 -82z" />
    <glyph glyph-name="guillemotleft" unicode="&#xab;" horiz-adv-x="1304" 
d="M886 944h260l-320 -422l320 -422h-260l-320 422zM448 944h260l-320 -422l320 -422h-260l-320 422z" />
    <glyph glyph-name="logicalnot" unicode="&#xac;" horiz-adv-x="1162" 
d="M1060 76h-300v300h-658v248h958v-548z" />
    <glyph glyph-name="acute" unicode="&#xb4;" horiz-adv-x="756" 
d="M242 1268l112 300h392l-230 -300h-274z" />
    <glyph glyph-name="periodcentered" unicode="&#xb7;" horiz-adv-x="530" 
d="M102 358v328h326v-328h-326z" />
    <glyph glyph-name="guillemotright" unicode="&#xbb;" horiz-adv-x="1268" 
d="M498 944h262l320 -422l-320 -422h-262l322 422zM60 944h262l320 -422l-320 -422h-262l322 422z" />
    <glyph glyph-name="questiondown" unicode="&#xbf;" horiz-adv-x="1178" 
d="M896 1426v-326h-328v326h328zM1128 132q-49 -76 -146.5 -114t-271.5 -38q-287 0 -462.5 99.5t-175.5 262.5q0 90 75.5 180.5t252.5 215.5q118 82 153 127.5t35 116.5h286q0 -110 -21 -176t-74.5 -123.5t-168.5 -138.5q-120 -83 -172 -130.5t-52 -71.5q0 -45 89 -72.5
t235 -27.5q88 0 154 19t116 61t84.5 90t75.5 124z" />
    <glyph glyph-name="Agrave" unicode="&#xc0;" 
d="M624 1648l-232 300h65.5t127 -0.5t143.5 -0.5t56 1q4 1 32 -74t54 -150l26 -76h-272zM0 0l570 1426h366l554 -1426h-364l-84 218l-594 -2q-12 -32 -41.5 -106.5t-42.5 -109.5h-364zM548 474h398l-198 518q-80 -203 -200 -518z" />
    <glyph glyph-name="Aacute" unicode="&#xc1;" 
d="M624 1648l112 300h65.5t127 -0.5t143.5 -0.5t56 1q4 1 -54 -74t-118 -150l-60 -76h-272zM0 0l570 1426h366l554 -1426h-364l-84 218l-594 -2q-12 -32 -41.5 -106.5t-42.5 -109.5h-364zM548 474h398l-198 518q-80 -203 -200 -518z" />
    <glyph glyph-name="Acircumflex" unicode="&#xc2;" 
d="M0 0l570 1426h366l554 -1426h-364l-84 218l-594 -2q-12 -32 -41.5 -106.5t-42.5 -109.5h-364zM758 1712l-82 -64h-274l218 300h280l218 -300h-274q-84 56 -86 64zM548 474h398l-198 518q-80 -203 -200 -518z" />
    <glyph glyph-name="Atilde" unicode="&#xc3;" 
d="M576 1648h-220q0 143 69 232.5t173 87.5q58 0 103.5 -11t70 -25t61.5 -35.5t67 -34.5q27 -7 35.5 16t8.5 70h220q0 -144 -65.5 -231t-174.5 -87q0 2 -2 2l2 -2q-56 0 -105.5 16t-78 36t-61.5 36t-59 16q-20 0 -32 -23.5t-12 -62.5zM0 0l570 1426h366l554 -1426h-364
l-84 218l-594 -2q-12 -32 -41.5 -106.5t-42.5 -109.5h-364zM548 474h398l-198 518q-80 -203 -200 -518z" />
    <glyph glyph-name="Adieresis" unicode="&#xc4;" 
d="M778 1648v326h326v-326h-326zM416 1648v326h326v-326h-326zM0 0l570 1426h366l554 -1426h-364l-84 218l-594 -2q-12 -32 -41.5 -106.5t-42.5 -109.5h-364zM548 474h398l-198 518q-80 -203 -200 -518z" />
    <glyph glyph-name="Aring" unicode="&#xc5;" 
d="M760 1850q-17 4 -24 -21q-9 -28 10 -39q7 -4 14 -4q28 0 28 32q0 29 -28 32zM582 1818q0 81 47 125.5t131 44.5t131 -44.5t47 -125.5q0 -170 -178 -170t-178 170zM0 0l570 1426h366l554 -1426h-364l-84 218l-594 -2q-12 -32 -41.5 -106.5t-42.5 -109.5h-364zM548 474h398
l-198 518q-80 -203 -200 -518z" />
    <glyph glyph-name="Ccedilla" unicode="&#xc7;" horiz-adv-x="1416" 
d="M752 -216q-28 0 -48.5 -9.5t-25.5 -24.5v2v-2q-21 0 -38 5.5t-26.5 13.5t-16 16t-9.5 13l-2 6l66 212q-259 70 -413.5 262t-154.5 434q0 148 61 282t169 234t266 159t342 59q158 0 282.5 -41.5t169.5 -110.5v-284q-75 58 -202 110t-250 52q-139 0 -249.5 -63.5
t-169.5 -168t-59 -228.5t59 -228.5t169.5 -168t249.5 -63.5q146 0 253.5 48.5t202.5 145.5l-4 -314q-36 -69 -160 -110.5t-292 -41.5q-94 0 -170 14l-24 -78q24 12 50 12q103 0 166.5 -63t63.5 -165q0 -104 -70.5 -167t-185.5 -63q-137 0 -180 52v168q39 -43 75.5 -60.5
t96.5 -17.5q43 0 69.5 24.5t26.5 63.5q0 37 -24.5 60.5t-63.5 23.5z" />
    <glyph glyph-name="Egrave" unicode="&#xc8;" horiz-adv-x="1402" 
d="M576 1648l-230 300h392l112 -300h-274zM156 0v1426h1114v-274l-778 2v-318h524l2 -262h-526v-302h808v-272h-1144z" />
    <glyph glyph-name="Eacute" unicode="&#xc9;" horiz-adv-x="1402" 
d="M576 1648l112 300h392l-230 -300h-274zM156 0v1426h1114v-274l-778 2v-318h524l2 -262h-526v-302h808v-272h-1144z" />
    <glyph glyph-name="Ecircumflex" unicode="&#xca;" horiz-adv-x="1402" 
d="M156 0v1426h1114v-274l-778 2v-318h524l2 -262h-526v-302h808v-272h-1144zM712 1712l-84 -64h-274l220 300h280l218 -300h-274q-84 56 -86 64z" />
    <glyph glyph-name="Edieresis" unicode="&#xcb;" horiz-adv-x="1402" 
d="M730 1648v326h326v-326h-326zM370 1648v326h326v-326h-326zM156 0v1426h1114v-274l-778 2v-318h524l2 -262h-526v-302h808v-272h-1144z" />
    <glyph glyph-name="Igrave" unicode="&#xcc;" horiz-adv-x="686" 
d="M212 1648l-232 300q384 -6 392 0l112 -300h-272zM180 0v1426h334v-1426h-334zM372 1948z" />
    <glyph glyph-name="Iacute" unicode="&#xcd;" horiz-adv-x="686" 
d="M212 1648l112 300q364 -6 390 0l-230 -300h-272zM180 0v1426h334v-1426h-334zM714 1948h2h-2z" />
    <glyph glyph-name="Icircumflex" unicode="&#xce;" horiz-adv-x="686" 
d="M180 0v1426h334v-1426h-334zM346 1712l-82 -64h-274l218 300h280l218 -300h-274q-84 56 -86 64z" />
    <glyph glyph-name="Idieresis" unicode="&#xcf;" horiz-adv-x="686" 
d="M366 1648v326h326v-326h-326zM4 1648v326h326v-326h-326zM180 0v1426h334v-1426h-334z" />
    <glyph glyph-name="Ntilde" unicode="&#xd1;" horiz-adv-x="1658" 
d="M638 1648h-220q0 141 70 230.5t172 89.5q75 0 121.5 -13t103 -48t77.5 -45q26 -3 35 19t9 67h220q0 -144 -66.5 -232t-175.5 -88q-56 0 -105.5 16.5t-77.5 36.5t-60.5 36.5t-58.5 16.5q-20 0 -32 -23.5t-12 -62.5zM1152 1426h334v-1426h-474l-520 866v-866h-336v1426h378
l618 -1030v1030z" />
    <glyph glyph-name="Ograve" unicode="&#xd2;" horiz-adv-x="1690" 
d="M700 1648l-232 300h392l112 -300h-272zM454 712q0 -205 101 -318.5t275 -113.5q176 0 282 114.5t106 317.5q0 191 -116.5 309.5t-285.5 118.5q-164 0 -263 -116t-99 -312zM94 712q0 154 57 290.5t155.5 233.5t236 153.5t293.5 56.5t293.5 -56.5t236 -153.5t155.5 -233.5
t57 -290.5q0 -218 -92 -384t-260.5 -257t-389.5 -91t-389.5 91t-260.5 257t-92 384z" />
    <glyph glyph-name="Oacute" unicode="&#xd3;" horiz-adv-x="1690" 
d="M700 1648l112 300h392l-232 -300h-272zM454 712q0 -205 101 -318.5t275 -113.5q176 0 282 114.5t106 317.5q0 191 -116.5 309.5t-285.5 118.5q-164 0 -263 -116t-99 -312zM94 712q0 154 57 290.5t155.5 233.5t236 153.5t293.5 56.5t293.5 -56.5t236 -153.5t155.5 -233.5
t57 -290.5q0 -218 -92 -384t-260.5 -257t-389.5 -91t-389.5 91t-260.5 257t-92 384z" />
    <glyph glyph-name="Ocircumflex" unicode="&#xd4;" horiz-adv-x="1690" 
d="M454 712q0 -205 101 -318.5t275 -113.5q176 0 282 114.5t106 317.5q0 191 -116.5 309.5t-285.5 118.5q-164 0 -263 -116t-99 -312zM94 712q0 154 57 290.5t155.5 233.5t236 153.5t293.5 56.5t293.5 -56.5t236 -153.5t155.5 -233.5t57 -290.5q0 -218 -92 -384t-260.5 -257
t-389.5 -91t-389.5 91t-260.5 257t-92 384zM834 1712l-82 -64h-274l218 300h280l218 -300h-274q-84 56 -86 64z" />
    <glyph glyph-name="Otilde" unicode="&#xd5;" horiz-adv-x="1690" 
d="M652 1648h-220q0 144 66.5 232t175.5 88q46 0 94.5 -11t84 -26.5t64.5 -31t44 -26.5l15 -11q20 0 32 23.5t12 62.5h220q0 -144 -66.5 -232t-175.5 -88q-56 0 -105.5 16.5t-77.5 36.5t-60.5 36.5t-58.5 16.5q-20 0 -32 -23.5t-12 -62.5zM454 712q0 -205 101 -318.5
t275 -113.5q176 0 282 114.5t106 317.5q0 191 -116.5 309.5t-285.5 118.5q-164 0 -263 -116t-99 -312zM94 712q0 154 57 290.5t155.5 233.5t236 153.5t293.5 56.5t293.5 -56.5t236 -153.5t155.5 -233.5t57 -290.5q0 -218 -92 -384t-260.5 -257t-389.5 -91t-389.5 91
t-260.5 257t-92 384z" />
    <glyph glyph-name="Odieresis" unicode="&#xd6;" horiz-adv-x="1690" 
d="M854 1648v326h326v-326h-326zM492 1648v326h326v-326h-326zM454 712q0 -205 101 -318.5t275 -113.5q176 0 282 114.5t106 317.5q0 191 -116.5 309.5t-285.5 118.5q-164 0 -263 -116t-99 -312zM94 712q0 154 57 290.5t155.5 233.5t236 153.5t293.5 56.5t293.5 -56.5
t236 -153.5t155.5 -233.5t57 -290.5q0 -218 -92 -384t-260.5 -257t-389.5 -91t-389.5 91t-260.5 257t-92 384z" />
    <glyph glyph-name="Oslash" unicode="&#xd8;" horiz-adv-x="1690" 
d="M94 712q0 154 57 290.5t155.5 233.5t236 153.5t293.5 56.5q248 0 438 -134l118 134h186l-198 -224q95 -99 146.5 -230t51.5 -280q0 -218 -92 -384t-260.5 -257t-389.5 -91q-262 0 -446 126l-110 -126h-186l190 214q-190 199 -190 518zM1054 1064q-108 76 -238 76
q-164 0 -263 -116t-99 -312q0 -154 58 -258zM1148 962l-542 -614q93 -68 224 -68q176 0 282 114.5t106 317.5q0 142 -70 250z" />
    <glyph glyph-name="Ugrave" unicode="&#xd9;" horiz-adv-x="1604" 
d="M656 1628l-232 300h392l112 -300h-272zM142 1426h336v-822q0 -314 314 -314t314 314v822h336v-880q0 -281 -164 -423.5t-486 -142.5q-321 0 -485.5 143t-164.5 423v880z" />
    <glyph glyph-name="Uacute" unicode="&#xda;" horiz-adv-x="1604" 
d="M656 1628l112 300h392l-232 -300h-272zM142 1426h336v-822q0 -314 314 -314t314 314v822h336v-880q0 -281 -164 -423.5t-486 -142.5q-321 0 -485.5 143t-164.5 423v880z" />
    <glyph glyph-name="Ucircumflex" unicode="&#xdb;" horiz-adv-x="1604" 
d="M142 1426h336v-822q0 -314 314 -314t314 314v822h336v-880q0 -281 -164 -423.5t-486 -142.5q-321 0 -485.5 143t-164.5 423v880zM790 1692l-82 -64h-274l218 300h280l218 -300h-274q-84 56 -86 64z" />
    <glyph glyph-name="Udieresis" unicode="&#xdc;" horiz-adv-x="1604" 
d="M810 1628v326h326v-326h-326zM448 1628v326h326v-326h-326zM142 1426h336v-822q0 -314 314 -314t314 314v822h336v-880q0 -281 -164 -423.5t-486 -142.5q-321 0 -485.5 143t-164.5 423v880z" />
    <glyph glyph-name="Yacute" unicode="&#xdd;" horiz-adv-x="1336" 
d="M528 1648l112 300h392l-230 -300h-274zM976 1426h338l-482 -764v-662h-334v662l-482 764h338l312 -496z" />
    <glyph glyph-name="Thorn" unicode="&#xde;" horiz-adv-x="1310" 
d="M492 0h-336v1426h336v-286h140q300 0 453 -108t153 -320q0 -211 -153 -318.5t-453 -107.5h-140v-286zM492 546h154q256 0 256 166q0 168 -284 168h-126v-334z" />
    <glyph glyph-name="agrave" unicode="&#xe0;" horiz-adv-x="1386" 
d="M464 1268l-230 300h392l112 -300h-274zM386 512q0 -258 230 -258q79 0 140.5 71.5t61.5 196.5t-61.5 195.5t-140.5 70.5q-111 0 -170.5 -71.5t-59.5 -204.5zM84 522q0 244 130.5 393t345.5 149q136 0 258 -94v74h300v-1044h-300v64q-121 -84 -258 -84q-215 0 -345.5 149
t-130.5 393z" />
    <glyph glyph-name="aacute" unicode="&#xe1;" horiz-adv-x="1386" 
d="M464 1268l112 300h392l-230 -300h-274zM386 512q0 -258 230 -258q79 0 140.5 71.5t61.5 196.5t-61.5 195.5t-140.5 70.5q-111 0 -170.5 -71.5t-59.5 -204.5zM84 522q0 244 130.5 393t345.5 149q136 0 258 -94v74h300v-1044h-300v64q-121 -84 -258 -84q-215 0 -345.5 149
t-130.5 393z" />
    <glyph glyph-name="acircumflex" unicode="&#xe2;" horiz-adv-x="1384" 
d="M386 512q0 -258 230 -258q79 0 140.5 71.5t61.5 196.5t-61.5 195.5t-140.5 70.5q-111 0 -170.5 -71.5t-59.5 -204.5zM84 522q0 244 130.5 393t345.5 149q136 0 258 -94v74h300v-1044h-300v64q-121 -84 -258 -84q-215 0 -345.5 149t-130.5 393zM600 1330l-84 -62h-274
l220 300h280l218 -300h-274q-84 54 -86 62z" />
    <glyph glyph-name="atilde" unicode="&#xe3;" horiz-adv-x="1384" 
d="M418 1268h-222q0 144 67 232t177 88q57 0 102 -11t69.5 -24.5t62 -36.5t66.5 -36q16 1 25.5 5.5t13.5 17t4.5 22t0.5 32.5v5.5v5.5h222q0 -144 -67 -232t-177 -88v2v-2q-56 0 -104.5 16.5t-76.5 36.5t-60.5 36.5t-58.5 16.5q-20 0 -32 -23.5t-12 -62.5zM386 512
q0 -258 230 -258q79 0 140.5 71.5t61.5 196.5t-61.5 195.5t-140.5 70.5q-111 0 -170.5 -71.5t-59.5 -204.5zM84 522q0 244 130.5 393t345.5 149q136 0 258 -94v74h300v-1044h-300v64q-121 -84 -258 -84q-215 0 -345.5 149t-130.5 393z" />
    <glyph glyph-name="adieresis" unicode="&#xe4;" horiz-adv-x="1384" 
d="M696 1268v326h326v-326h-326zM180 1268v326h326v-326h-326zM386 512q0 -258 230 -258q79 0 140.5 71.5t61.5 196.5t-61.5 195.5t-140.5 70.5q-111 0 -170.5 -71.5t-59.5 -204.5zM84 522q0 244 130.5 393t345.5 149q136 0 258 -94v74h300v-1044h-300v64q-121 -84 -258 -84
q-215 0 -345.5 149t-130.5 393z" />
    <glyph glyph-name="aring" unicode="&#xe5;" horiz-adv-x="1384" 
d="M602 1468q-19 0 -26.5 -15.5t0 -31t26.5 -15.5q28 0 28 32q0 15 -5.5 22.5t-22.5 7.5zM424 1438q0 81 47 125.5t131 44.5q83 0 129.5 -44.5t46.5 -125.5q0 -170 -176 -170q-178 0 -178 170zM386 512q0 -258 230 -258q79 0 140.5 71.5t61.5 196.5t-61.5 195.5t-140.5 70.5
q-111 0 -170.5 -71.5t-59.5 -204.5zM84 522q0 244 130.5 393t345.5 149q136 0 258 -94v74h300v-1044h-300v64q-121 -84 -258 -84q-215 0 -345.5 149t-130.5 393z" />
    <glyph glyph-name="ccedilla" unicode="&#xe7;" horiz-adv-x="1098" 
d="M510 -248v-2q-32 0 -54.5 13.5t-29.5 26.5l-6 14l66 204q-190 48 -294 176.5t-104 337.5q0 138 48 243.5t134.5 171t201 98.5t252.5 33q114 0 196 -34.5t116 -77.5v-262q-28 19 -68.5 48.5t-58 40.5t-47.5 25.5t-61.5 19t-76.5 4.5q-138 0 -224 -78t-86 -232
q0 -147 87 -220.5t239 -73.5q52 0 93 11t63 23.5t70.5 45t81.5 52.5l-12 -264q-30 -53 -108.5 -84.5t-187.5 -31.5q-74 0 -154 10l-24 -74q21 12 48 12q103 0 166.5 -63t63.5 -165q0 -104 -70.5 -167t-185.5 -63q-135 0 -178 52v168q39 -44 74.5 -61t95.5 -17
q43 0 69.5 24.5t26.5 63.5q0 37 -24.5 60.5t-63.5 23.5q-60 0 -74 -34v2z" />
    <glyph glyph-name="egrave" unicode="&#xe8;" horiz-adv-x="1106" 
d="M470 1268l-232 300h392l112 -300h-272zM1054 360l-10 -240q-44 -63 -145.5 -101.5t-252.5 -38.5q-263 0 -412.5 135t-149.5 407t139 407t383 135q252 0 373 -158t107 -434h-300q3 52 0 98v-98h-374q12 -117 73 -174.5t161 -57.5q75 0 142 15t106.5 34t86 41t73.5 30z
M774 660q-18 81 -61 125.5t-107 44.5q-141 0 -182 -170h350z" />
    <glyph glyph-name="eacute" unicode="&#xe9;" horiz-adv-x="1106" 
d="M470 1268l112 300h392l-232 -300h-272zM1054 360l-10 -240q-44 -63 -145.5 -101.5t-252.5 -38.5q-263 0 -412.5 135t-149.5 407t139 407t383 135q252 0 373 -158t107 -434h-300q3 52 0 98v-98h-374q12 -117 73 -174.5t161 -57.5q75 0 142 15t106.5 34t86 41t73.5 30z
M774 660q-18 81 -61 125.5t-107 44.5q-141 0 -182 -170h350z" />
    <glyph glyph-name="ecircumflex" unicode="&#xea;" horiz-adv-x="1106" 
d="M1054 360l-10 -240q-44 -63 -145.5 -101.5t-252.5 -38.5q-263 0 -412.5 135t-149.5 407t139 407t383 135q252 0 373 -158t107 -434h-300q3 52 0 98v-98h-374q12 -117 73 -174.5t161 -57.5q75 0 142 15t106.5 34t86 41t73.5 30zM604 1330l-82 -62h-274l218 300h280
l218 -300h-274q-84 54 -86 62zM774 660q-18 81 -61 125.5t-107 44.5q-141 0 -182 -170h350z" />
    <glyph glyph-name="edieresis" unicode="&#xeb;" horiz-adv-x="1106" 
d="M624 1268v326h326v-326h-326zM262 1268v326h326v-326h-326zM1054 360l-10 -240q-44 -63 -145.5 -101.5t-252.5 -38.5q-263 0 -412.5 135t-149.5 407t139 407t383 135q252 0 373 -158t107 -434h-300q3 52 0 98v-98h-374q12 -117 73 -174.5t161 -57.5q75 0 142 15t106.5 34
t86 41t73.5 30zM774 660q-18 81 -61 125.5t-107 44.5q-141 0 -182 -170h350z" />
    <glyph glyph-name="igrave" unicode="&#xec;" horiz-adv-x="628" 
d="M200 1268l-232 300q380 -2 392 0q4 -4 32 -79t54 -148l26 -73h-272zM186 0v1044h300v-1044h-300zM360 1568z" />
    <glyph glyph-name="iacute" unicode="&#xed;" horiz-adv-x="628" 
d="M200 1268l112 300q372 -2 392 0l-232 -300h-272zM186 0v1044h300v-1044h-300zM704 1568z" />
    <glyph glyph-name="icircumflex" unicode="&#xee;" horiz-adv-x="628" 
d="M186 0v1044h300v-1044h-300zM334 1330l-82 -62h-274l218 300h280l218 -300h-274q-84 54 -86 62z" />
    <glyph glyph-name="idieresis" unicode="&#xef;" horiz-adv-x="628" 
d="M430 1268v326h328v-326h-328zM-86 1268v326h328v-326h-328zM186 0v1044h300v-1044h-300z" />
    <glyph glyph-name="ntilde" unicode="&#xf1;" horiz-adv-x="1196" 
d="M194 1268q0 142 68 231t178 89q57 0 99.5 -10.5t65.5 -24t61 -36t72 -37.5q13 -1 21.5 3.5t13 10t6.5 18.5t2.5 22t0.5 28v6h222q0 -144 -67 -232t-177 -88v0q-56 0 -104.5 16.5t-76.5 36.5t-60.5 36.5t-58.5 16.5q-20 0 -32 -23.5t-12 -62.5h-222zM764 0q12 444 0 634
q-6 37 -45 74.5t-97 37.5q-188 0 -188 -132v-614h-300v1044h300v-120q53 64 132 97t170 33q151 0 239.5 -108t88.5 -312v-634h-300z" />
    <glyph glyph-name="ograve" unicode="&#xf2;" horiz-adv-x="1244" 
d="M478 1268l-232 300h392l112 -300h-272zM374 526q0 -140 67 -218t175 -78q102 0 165 68t63 222q0 143 -59 220.5t-165 77.5q-48 0 -90 -15t-78 -47.5t-57 -91.5t-21 -138zM84 522q0 272 141 407t389 135q265 0 396.5 -144t131.5 -398q0 -272 -141 -407t-387 -135
q-266 0 -398 144t-132 398z" />
    <glyph glyph-name="oacute" unicode="&#xf3;" horiz-adv-x="1244" 
d="M478 1268l112 300h392l-232 -300h-272zM374 526q0 -140 67 -218t175 -78q102 0 165 68t63 222q0 143 -59 220.5t-165 77.5q-48 0 -90 -15t-78 -47.5t-57 -91.5t-21 -138zM84 522q0 272 141 407t389 135q265 0 396.5 -144t131.5 -398q0 -272 -141 -407t-387 -135
q-266 0 -398 144t-132 398z" />
    <glyph glyph-name="ocircumflex" unicode="&#xf4;" horiz-adv-x="1244" 
d="M374 526q0 -140 67 -218t175 -78q102 0 165 68t63 222q0 143 -59 220.5t-165 77.5q-48 0 -90 -15t-78 -47.5t-57 -91.5t-21 -138zM84 522q0 272 141 407t389 135q265 0 396.5 -144t131.5 -398q0 -272 -141 -407t-387 -135q-266 0 -398 144t-132 398zM612 1330l-82 -62
h-274l218 300h280l218 -300h-274q-84 54 -86 62z" />
    <glyph glyph-name="otilde" unicode="&#xf5;" horiz-adv-x="1244" 
d="M430 1268h-220q0 144 66.5 232t175.5 88q46 0 94.5 -11t84 -27t64.5 -32t44 -27l15 -11q20 0 32 24.5t12 63.5h220q0 -143 -66 -231t-176 -89q-56 0 -105.5 16.5t-77.5 36.5t-60.5 36.5t-58.5 16.5q-20 0 -32 -23.5t-12 -62.5zM374 526q0 -140 67 -218t175 -78
q102 0 165 68t63 222q0 143 -59 220.5t-165 77.5q-48 0 -90 -15t-78 -47.5t-57 -91.5t-21 -138zM84 522q0 272 141 407t389 135q265 0 396.5 -144t131.5 -398q0 -272 -141 -407t-387 -135q-266 0 -398 144t-132 398z" />
    <glyph glyph-name="odieresis" unicode="&#xf6;" horiz-adv-x="1244" 
d="M632 1268v326h326v-326h-326zM270 1268v326h326v-326h-326zM374 526q0 -140 67 -218t175 -78q102 0 165 68t63 222q0 143 -59 220.5t-165 77.5q-48 0 -90 -15t-78 -47.5t-57 -91.5t-21 -138zM84 522q0 272 141 407t389 135q265 0 396.5 -144t131.5 -398q0 -272 -141 -407
t-387 -135q-266 0 -398 144t-132 398z" />
    <glyph glyph-name="oslash" unicode="&#xf8;" horiz-adv-x="1244" 
d="M84 522q0 272 141 407t389 135q198 0 326 -84l72 84h130l-128 -148q128 -140 128 -394q0 -272 -141 -407t-387 -135q-200 0 -328 84l-72 -84h-130l128 148q-128 140 -128 394zM760 768q-56 50 -140 50q-48 0 -90 -15t-78 -47.5t-57 -91.5t-21 -138q0 -97 34 -168z
M816 684l-346 -404q59 -50 146 -50q102 0 165 68t63 222q0 96 -28 164z" />
    <glyph glyph-name="ugrave" unicode="&#xf9;" horiz-adv-x="1216" 
d="M468 1268l-232 300l380 -1l12 1q2 1 30 -74t55 -150l27 -76h-272zM1074 0h-300v120q-60 -67 -136.5 -103.5t-157.5 -36.5q-100 0 -167.5 28t-106.5 87t-55.5 139t-16.5 196v614h300v-614q0 -93 30.5 -135.5t109.5 -42.5q90 0 145 70t55 184v538h300v-1044z" />
    <glyph glyph-name="uacute" unicode="&#xfa;" horiz-adv-x="1216" 
d="M468 1268l112 300q380 -4 392 0l-232 -300h-272zM972 1568zM1074 0h-300v120q-60 -67 -136.5 -103.5t-157.5 -36.5q-100 0 -167.5 28t-106.5 87t-55.5 139t-16.5 196v614h300v-614q0 -93 30.5 -135.5t109.5 -42.5q90 0 145 70t55 184v538h300v-1044z" />
    <glyph glyph-name="ucircumflex" unicode="&#xfb;" horiz-adv-x="1216" 
d="M602 1330l-82 -62h-274l218 300h280l218 -300h-274q-84 54 -86 62zM1074 0h-300v120q-60 -67 -136.5 -103.5t-157.5 -36.5q-100 0 -167.5 28t-106.5 87t-55.5 139t-16.5 196v614h300v-614q0 -93 30.5 -135.5t109.5 -42.5q90 0 145 70t55 184v538h300v-1044z" />
    <glyph glyph-name="udieresis" unicode="&#xfc;" horiz-adv-x="1216" 
d="M622 1268v326h326v-326h-326zM260 1268v326h326v-326h-326zM1074 0h-300v120q-60 -67 -136.5 -103.5t-157.5 -36.5q-100 0 -167.5 28t-106.5 87t-55.5 139t-16.5 196v614h300v-614q0 -93 30.5 -135.5t109.5 -42.5q90 0 145 70t55 184v538h300v-1044z" />
    <glyph glyph-name="yacute" unicode="&#xfd;" horiz-adv-x="1040" 
d="M374 1268l112 300h392l-232 -300h-272zM2 1044h338l176 -598l164 598h338l-420 -1290q-36 -115 -132.5 -166.5t-281.5 -51.5q-18 0 -67 5t-89 10l-40 5v276q156 -36 196 -36q154 0 156 12l42 156z" />
    <glyph glyph-name="thorn" unicode="&#xfe;" horiz-adv-x="1282" 
d="M294 1524h150v-580q108 120 302 120q195 0 314.5 -149t119.5 -393t-119.5 -393t-314.5 -149q-194 0 -302 120v-678h-300v2102h150zM444 522q0 -148 54.5 -222t149.5 -74q93 0 149.5 81t56.5 215t-56.5 215t-149.5 81q-95 0 -149.5 -74t-54.5 -222z" />
    <glyph glyph-name="ydieresis" unicode="&#xff;" horiz-adv-x="1040" 
d="M528 1268v326h326v-326h-326zM166 1268v326h326v-326h-326zM2 1044h338l176 -598l164 598h338l-420 -1290q-36 -115 -132.5 -166.5t-281.5 -51.5q-18 0 -67 5t-89 10l-40 5v276q156 -36 196 -36q154 0 156 12l42 156z" />
    <glyph glyph-name="Amacron" unicode="&#x100;" 
d="M440 1648v210h108t208.5 0.5t234 0.5t89.5 -1v-210h-640zM0 0l570 1426h366l554 -1426h-364l-84 218l-594 -2q-12 -32 -41.5 -106.5t-42.5 -109.5h-364zM548 474h398l-198 518q-80 -203 -200 -518z" />
    <glyph glyph-name="amacron" unicode="&#x101;" horiz-adv-x="1260" 
d="M280 1268v208h642q4 0 2 -104l-2 -104h-642zM386 512q0 -258 230 -258q79 0 140.5 71.5t61.5 196.5t-61.5 195.5t-140.5 70.5q-111 0 -170.5 -71.5t-59.5 -204.5zM84 522q0 244 130.5 393t345.5 149q136 0 258 -94v74h300v-1044h-300v64q-121 -84 -258 -84
q-215 0 -345.5 149t-130.5 393z" />
    <glyph glyph-name="Abreve" unicode="&#x102;" 
d="M408 1940h220q0 -45 38 -72.5t94 -29.5q61 -1 96.5 27t35.5 75h222q0 -141 -97.5 -226.5t-256.5 -85.5t-255.5 85.5t-96.5 226.5zM0 0l570 1426h366l554 -1426h-364l-84 218l-594 -2q-12 -32 -41.5 -106.5t-42.5 -109.5h-364zM548 474h398l-198 518q-80 -203 -200 -518z
" />
    <glyph glyph-name="abreve" unicode="&#x103;" horiz-adv-x="1260" 
d="M248 1558h222q0 -46 36 -74t96 -28q62 0 96 27.5t34 74.5h222q0 -140 -96.5 -225t-255.5 -85t-256.5 85.5t-97.5 224.5zM386 512q0 -258 230 -258q79 0 140.5 71.5t61.5 196.5t-61.5 195.5t-140.5 70.5q-111 0 -170.5 -71.5t-59.5 -204.5zM84 522q0 244 130.5 393
t345.5 149q136 0 258 -94v74h300v-1044h-300v64q-121 -84 -258 -84q-215 0 -345.5 149t-130.5 393z" />
    <glyph glyph-name="Aogonek" unicode="&#x104;" 
d="M0 0l570 1426h366l554 -1426q-27 -15 -62.5 -68t-35.5 -98q0 -39 42.5 -63.5t111.5 -24.5q44 0 79.5 10t48.5 26l30 -166q-19 -24 -67 -38t-107 -14q-138 0 -221.5 65.5t-84.5 174.5q5 80 110 196h-208l-84 218l-594 -2q-12 -32 -41.5 -106.5t-42.5 -109.5h-364zM548 474
h398l-198 518q-80 -203 -200 -518z" />
    <glyph glyph-name="aogonek" unicode="&#x105;" horiz-adv-x="1260" 
d="M386 512q0 -258 230 -258q79 0 140.5 71.5t61.5 196.5t-61.5 195.5t-140.5 70.5q-111 0 -170.5 -71.5t-59.5 -204.5zM84 522q0 244 130.5 393t345.5 149q136 0 258 -94v74h300v-1044q-27 -14 -62.5 -65.5t-35.5 -92.5q0 -43 42.5 -69.5t111.5 -26.5q44 0 79.5 10t48.5 26
l30 -166q-19 -24 -67 -38t-107 -14q-137 0 -219 68t-87 180q0 64 132 188h-166v64q-121 -84 -258 -84q-215 0 -345.5 149t-130.5 393z" />
    <glyph glyph-name="Cacute" unicode="&#x106;" horiz-adv-x="1416" 
d="M592 1648l112 300h392l-230 -300h-274zM1378 446l-4 -314q-36 -69 -160 -110.5t-292 -41.5q-184 0 -342 59t-266 158.5t-169 233t-61 281.5t61 282t169 234t266 159t342 59q158 0 282.5 -41.5t169.5 -110.5v-284q-75 58 -202 110t-250 52q-139 0 -249.5 -63.5
t-169.5 -168t-59 -228.5t59 -228.5t169.5 -168t249.5 -63.5q146 0 253.5 48.5t202.5 145.5z" />
    <glyph glyph-name="cacute" unicode="&#x107;" horiz-adv-x="1094" 
d="M584 1268l112 300h392l-232 -300h-272zM1044 360l-12 -264q-30 -53 -108.5 -84.5t-187.5 -31.5q-149 0 -267.5 32.5t-205 98t-133 169.5t-46.5 242t48 243.5t134.5 171t201 98.5t252.5 33q114 0 196 -34.5t116 -77.5v-262q-28 19 -68.5 48.5t-58 40.5t-47.5 25.5
t-61.5 19t-76.5 4.5q-138 0 -224 -78t-86 -232q0 -147 87 -220.5t239 -73.5q52 0 93 11t63 23.5t70.5 45t81.5 52.5z" />
    <glyph glyph-name="Ccircumflex" unicode="&#x108;" horiz-adv-x="1416" 
d="M1378 446l-4 -314q-36 -69 -160 -110.5t-292 -41.5q-184 0 -342 59t-266 158.5t-169 233t-61 281.5t61 282t169 234t266 159t342 59q158 0 282.5 -41.5t169.5 -110.5v-284q-75 58 -202 110t-250 52q-139 0 -249.5 -63.5t-169.5 -168t-59 -228.5t59 -228.5t169.5 -168
t249.5 -63.5q146 0 253.5 48.5t202.5 145.5zM728 1712l-84 -64h-274l220 300h280l218 -300h-274q-84 56 -86 64z" />
    <glyph glyph-name="Cdotaccent" unicode="&#x10a;" horiz-adv-x="1416" 
d="M566 1648v326h326v-326h-326zM1378 446l-4 -314q-36 -69 -160 -110.5t-292 -41.5q-184 0 -342 59t-266 158.5t-169 233t-61 281.5t61 282t169 234t266 159t342 59q158 0 282.5 -41.5t169.5 -110.5v-284q-75 58 -202 110t-250 52q-139 0 -249.5 -63.5t-169.5 -168
t-59 -228.5t59 -228.5t169.5 -168t249.5 -63.5q146 0 253.5 48.5t202.5 145.5z" />
    <glyph glyph-name="cdotaccent" unicode="&#x10b;" horiz-adv-x="1094" 
d="M556 1268v326h328v-326h-328zM1044 360l-12 -264q-30 -53 -108.5 -84.5t-187.5 -31.5q-149 0 -267.5 32.5t-205 98t-133 169.5t-46.5 242t48 243.5t134.5 171t201 98.5t252.5 33q114 0 196 -34.5t116 -77.5v-262q-28 19 -68.5 48.5t-58 40.5t-47.5 25.5t-61.5 19
t-76.5 4.5q-138 0 -224 -78t-86 -232q0 -147 87 -220.5t239 -73.5q52 0 93 11t63 23.5t70.5 45t81.5 52.5z" />
    <glyph glyph-name="Ccaron" unicode="&#x10c;" horiz-adv-x="1416" 
d="M730 1884q12 0 33 16.5t36 33.5l15 16h274l-218 -300h-280l-220 300h274zM1378 446l-4 -314q-36 -69 -160 -110.5t-292 -41.5q-184 0 -342 59t-266 158.5t-169 233t-61 281.5t61 282t169 234t266 159t342 59q158 0 282.5 -41.5t169.5 -110.5v-284q-75 58 -202 110
t-250 52q-139 0 -249.5 -63.5t-169.5 -168t-59 -228.5t59 -228.5t169.5 -168t249.5 -63.5q146 0 253.5 48.5t202.5 145.5z" />
    <glyph glyph-name="ccaron" unicode="&#x10d;" horiz-adv-x="1094" 
d="M720 1502q12 0 33 16t36 32l15 16h274l-218 -300h-280l-218 300h274zM1044 360l-12 -264q-30 -53 -108.5 -84.5t-187.5 -31.5q-149 0 -267.5 32.5t-205 98t-133 169.5t-46.5 242t48 243.5t134.5 171t201 98.5t252.5 33q114 0 196 -34.5t116 -77.5v-262q-28 19 -68.5 48.5
t-58 40.5t-47.5 25.5t-61.5 19t-76.5 4.5q-138 0 -224 -78t-86 -232q0 -147 87 -220.5t239 -73.5q52 0 93 11t63 23.5t70.5 45t81.5 52.5z" />
    <glyph glyph-name="Dcaron" unicode="&#x10e;" horiz-adv-x="1594" 
d="M640 1884q12 0 33 16.5t36 33.5l15 16h274l-218 -300h-280l-220 300h274zM156 0v1426h518q401 0 604.5 -180t203.5 -534q0 -362 -183.5 -537t-564.5 -175h-578zM492 260h218q210 0 311 111t101 341q0 225 -110 339.5t-326 114.5h-194v-906z" />
    <glyph glyph-name="dcaron" unicode="&#x10f;" horiz-adv-x="1332" 
d="M1290 1544h326l-98 -300h-222zM366 530q0 -128 75 -205t185 -77q114 0 189 73t75 201t-74.5 203t-187.5 75q-112 0 -187 -71.5t-75 -198.5zM84 522q0 243 127 390t337 152q195 6 342 -90v550h300v-1524h-300v68q-143 -94 -342 -88q-210 8 -337 154t-127 388z" />
    <glyph glyph-name="Dcroat" unicode="&#x110;" horiz-adv-x="1594" 
d="M-4 608v210h160v608h518q401 0 604.5 -180t203.5 -534q0 -362 -183.5 -537t-564.5 -175h-578v608h-160zM492 260h218q210 0 311 111t101 341q0 225 -110 339.5t-326 114.5h-194v-348h148v-210h-148v-348z" />
    <glyph glyph-name="dcroat" unicode="&#x111;" horiz-adv-x="1332" 
d="M548 1190v208h342v126h300v-126h264v-208h-264v-1190h-300v68q-143 -94 -342 -88q-210 8 -337 154t-127 388q0 243 127 390t337 152q195 6 342 -90v216h-342zM366 530q0 -128 75 -205t185 -77q114 0 189 73t75 201t-74.5 203t-187.5 75q-112 0 -187 -71.5t-75 -198.5z
" />
    <glyph glyph-name="Emacron" unicode="&#x112;" horiz-adv-x="1402" 
d="M392 1648v210h642v-210h-642zM156 0v1426h1114v-274l-778 2v-318h524l2 -262h-526v-302h808v-272h-1144z" />
    <glyph glyph-name="emacron" unicode="&#x113;" horiz-adv-x="1106" 
d="M286 1268v208h640v-208h-640zM1054 360l-10 -240q-44 -63 -145.5 -101.5t-252.5 -38.5q-263 0 -412.5 135t-149.5 407t139 407t383 135q252 0 373 -158t107 -434h-300q3 52 0 98v-98h-374q12 -117 73 -174.5t161 -57.5q75 0 142 15t106.5 34t86 41t73.5 30zM774 660
q-18 81 -61 125.5t-107 44.5q-141 0 -182 -170h350z" />
    <glyph glyph-name="Ebreve" unicode="&#x114;" horiz-adv-x="1402" 
d="M360 1940h222q0 -46 36 -74t96 -28q59 0 94.5 28t35.5 74h222q0 -141 -96.5 -226.5t-255.5 -85.5t-256.5 85.5t-97.5 226.5zM156 0v1426h1114v-274l-778 2v-318h524l2 -262h-526v-302h808v-272h-1144z" />
    <glyph glyph-name="ebreve" unicode="&#x115;" horiz-adv-x="1106" 
d="M254 1558h220q0 -46 36 -74t96 -28t96 28t36 74h222q0 -139 -97.5 -224.5t-256.5 -85.5t-255.5 85t-96.5 225zM1054 360l-10 -240q-44 -63 -145.5 -101.5t-252.5 -38.5q-263 0 -412.5 135t-149.5 407t139 407t383 135q252 0 373 -158t107 -434h-300q3 52 0 98v-98h-374
q12 -117 73 -174.5t161 -57.5q75 0 142 15t106.5 34t86 41t73.5 30zM774 660q-18 81 -61 125.5t-107 44.5q-141 0 -182 -170h350z" />
    <glyph glyph-name="Edotaccent" unicode="&#x116;" horiz-adv-x="1402" 
d="M550 1648v326h326v-326h-326zM156 0v1426h1114v-274l-778 2v-318h524l2 -262h-526v-302h808v-272h-1144z" />
    <glyph glyph-name="edotaccent" unicode="&#x117;" horiz-adv-x="1106" 
d="M442 1268v326h328v-326h-328zM1054 360l-10 -240q-44 -63 -145.5 -101.5t-252.5 -38.5q-263 0 -412.5 135t-149.5 407t139 407t383 135q252 0 373 -158t107 -434h-300q3 52 0 98v-98h-374q12 -117 73 -174.5t161 -57.5q75 0 142 15t106.5 34t86 41t73.5 30zM774 660
q-18 81 -61 125.5t-107 44.5q-141 0 -182 -170h350z" />
    <glyph glyph-name="Eogonek" unicode="&#x118;" horiz-adv-x="1402" 
d="M156 0v1426h1114v-274l-778 2v-318h524l2 -262h-526v-302h808v-272h-530q-27 -14 -62.5 -65.5t-35.5 -92.5q0 -43 42.5 -69.5t111.5 -26.5q44 0 79.5 10t48.5 26l30 -166q-19 -24 -67 -38t-107 -14q-138 0 -222 68.5t-84 179.5q0 64 132 188h-480z" />
    <glyph glyph-name="eogonek" unicode="&#x119;" horiz-adv-x="1106" 
d="M870 8q-27 -15 -62.5 -66.5t-35.5 -95.5q0 -45 42.5 -72.5t111.5 -27.5q44 0 79.5 10t48.5 26l30 -166q-19 -24 -67 -38t-107 -14q-138 0 -222 69t-84 183q0 58 104 166q-290 -19 -457 117t-167 423q0 272 139 407t383 135q252 0 373 -158t107 -434h-300q3 52 0 98v-98
h-374q12 -117 73 -174.5t161 -57.5q75 0 142 15t106.5 34t86 41t73.5 30l-10 -240q-27 -37 -70.5 -64t-73.5 -38zM774 660q-18 81 -61 125.5t-107 44.5q-141 0 -182 -170h350z" />
    <glyph glyph-name="Ecaron" unicode="&#x11a;" horiz-adv-x="1402" 
d="M714 1884q12 0 33 16.5t36 33.5l15 16h274l-218 -300h-280l-220 300h274zM156 0v1426h1114v-274l-778 2v-318h524l2 -262h-526v-302h808v-272h-1144z" />
    <glyph glyph-name="ecaron" unicode="&#x11b;" horiz-adv-x="1106" 
d="M606 1502q12 0 33 16t36 32l15 16h274l-218 -300h-280l-218 300h274zM1054 360l-10 -240q-44 -63 -145.5 -101.5t-252.5 -38.5q-263 0 -412.5 135t-149.5 407t139 407t383 135q252 0 373 -158t107 -434h-300q3 52 0 98v-98h-374q12 -117 73 -174.5t161 -57.5q75 0 142 15
t106.5 34t86 41t73.5 30zM774 660q-18 81 -61 125.5t-107 44.5q-141 0 -182 -170h350z" />
    <glyph glyph-name="Gcircumflex" unicode="&#x11c;" horiz-adv-x="1602" 
d="M1106 738h404v-576q-100 -84 -260.5 -133t-353.5 -49q-242 0 -426.5 91t-285 257t-100.5 384t100.5 384.5t285.5 258t426 91.5q184 0 349.5 -79.5t252.5 -210.5l-232 -222q-72 107 -174 172.5t-196 65.5q-204 0 -328 -126.5t-124 -333.5t124 -333.5t328 -126.5
q100 0 177 20t117 54v136h-78zM894 1712l-82 -64h-274l218 300h280l218 -300h-274q-84 56 -86 64z" />
    <glyph glyph-name="Gbreve" unicode="&#x11e;" horiz-adv-x="1602" 
d="M544 1940h220q0 -46 36 -74t96 -28t96 28t36 74h222q0 -141 -97.5 -226.5t-256.5 -85.5t-255.5 85.5t-96.5 226.5zM1106 738h404v-576q-100 -84 -260.5 -133t-353.5 -49q-242 0 -426.5 91t-285 257t-100.5 384t100.5 384.5t285.5 258t426 91.5q184 0 349.5 -79.5
t252.5 -210.5l-232 -222q-72 107 -174 172.5t-196 65.5q-204 0 -328 -126.5t-124 -333.5t124 -333.5t328 -126.5q100 0 177 20t117 54v136h-78z" />
    <glyph glyph-name="gbreve" unicode="&#x11f;" horiz-adv-x="1312" 
d="M274 1558h222q0 -46 36 -74t96 -28q59 0 94.5 28t35.5 74h222q0 -140 -96.5 -225t-255.5 -85t-256.5 85.5t-97.5 224.5zM124 -360l14 330q66 -89 186.5 -147.5t303.5 -58.5q116 0 179 67.5t63 182.5v58q-137 -75 -330 -72q-456 7 -456 522q0 539 456 542q192 3 330 -88
v68h300v-984q0 -262 -138 -415t-400 -153q-186 0 -278 27t-230 121zM390 530q0 -266 232 -266q108 0 178 69t70 189q0 128 -69.5 199t-178.5 71q-113 0 -172.5 -56.5t-59.5 -205.5z" />
    <glyph glyph-name="Gdotaccent" unicode="&#x120;" horiz-adv-x="1602" 
d="M732 1648v326h328v-326h-328zM1106 738h404v-576q-100 -84 -260.5 -133t-353.5 -49q-242 0 -426.5 91t-285 257t-100.5 384t100.5 384.5t285.5 258t426 91.5q184 0 349.5 -79.5t252.5 -210.5l-232 -222q-72 107 -174 172.5t-196 65.5q-204 0 -328 -126.5t-124 -333.5
t124 -333.5t328 -126.5q100 0 177 20t117 54v136h-78z" />
    <glyph glyph-name="gdotaccent" unicode="&#x121;" horiz-adv-x="1312" 
d="M464 1268v326h326v-326h-326zM124 -360l14 330q66 -89 186.5 -147.5t303.5 -58.5q116 0 179 67.5t63 182.5v58q-137 -75 -330 -72q-456 7 -456 522q0 539 456 542q192 3 330 -88v68h300v-984q0 -262 -138 -415t-400 -153q-186 0 -278 27t-230 121zM390 530
q0 -266 232 -266q108 0 178 69t70 189q0 128 -69.5 199t-178.5 71q-113 0 -172.5 -56.5t-59.5 -205.5z" />
    <glyph glyph-name="Hcircumflex" unicode="&#x124;" horiz-adv-x="1710" 
d="M156 0v1426h336v-580h712v580h334v-1426h-334v574h-712v-574h-336zM846 1712l-84 -64h-274l220 300h280l218 -300h-274q-84 56 -86 64z" />
    <glyph glyph-name="Itilde" unicode="&#x128;" horiz-adv-x="686" 
d="M164 1648h-220q0 145 66.5 234t175.5 86q75 0 120.5 -14t97 -46t84.5 -46q26 -4 35 18.5t9 67.5h220q0 -144 -66.5 -232t-175.5 -88q0 2 -2 2l2 -2q-56 0 -105.5 16.5t-77.5 36.5t-60.5 36.5t-58.5 16.5q-20 0 -32 -23.5t-12 -62.5zM180 0v1426h334v-1426h-334z" />
    <glyph glyph-name="itilde" unicode="&#x129;" horiz-adv-x="628" 
d="M152 1268h-220q0 144 67.5 233t174.5 87q74 0 121 -16t95.5 -47t85.5 -45q26 -5 35 18.5t9 69.5h220q0 -144 -66.5 -232t-175.5 -88v2v-2q-56 0 -105.5 16.5t-77.5 36.5t-60.5 36.5t-58.5 16.5q-20 0 -32 -23.5t-12 -62.5zM186 0v1044h300v-1044h-300z" />
    <glyph glyph-name="Imacron" unicode="&#x12a;" horiz-adv-x="686" 
d="M28 1648v210q640 4 640 0q7 -3 7 -55.5t-3 -103.5l-4 -51h-640zM180 0v1426h334v-1426h-334z" />
    <glyph glyph-name="imacron" unicode="&#x12b;" horiz-adv-x="628" 
d="M16 1268v208h49.5t115.5 0.5t158 0.5h151t122 -0.5t44 -0.5q9 -1 9 -53t-5 -103l-4 -52h-640zM186 0v1044h300v-1044h-300z" />
    <glyph glyph-name="Ibreve" unicode="&#x12c;" horiz-adv-x="686" 
d="M-4 1940h220q0 -46 35.5 -72.5t96.5 -29.5q68 -4 100 24t32 78h222q0 -141 -97.5 -226.5t-256.5 -85.5t-255.5 85.5t-96.5 226.5zM180 0v1426h334v-1426h-334z" />
    <glyph glyph-name="ibreve" unicode="&#x12d;" horiz-adv-x="628" 
d="M-16 1558h220q0 -46 37 -73t95 -29q132 -3 132 102h222q0 -139 -97.5 -224.5t-256.5 -85.5t-255.5 85t-96.5 225zM186 0v1044h300v-1044h-300z" />
    <glyph glyph-name="Idotaccent" unicode="&#x130;" horiz-adv-x="686" 
d="M184 1648v326h328v-326h-328zM180 0v1426h334v-1426h-334z" />
    <glyph glyph-name="dotlessi" unicode="&#x131;" horiz-adv-x="628" 
d="M186 0v1044h300v-1044h-300z" />
    <glyph glyph-name="Jcircumflex" unicode="&#x134;" horiz-adv-x="1096" 
d="M160 130v98l2 124q62 -38 119.5 -50t180.5 -12q61 0 93.5 34.5t32.5 93.5v1008h336v-1008q0 -201 -119.5 -319.5t-342.5 -118.5q-126 0 -188.5 10t-111.5 40zM754 1712l-82 -64h-274l218 300h280l218 -300h-274q-84 56 -86 64z" />
    <glyph glyph-name="Lacute" unicode="&#x139;" horiz-adv-x="1284" 
d="M212 1648l112 300h392l-232 -300h-272zM180 0v1426h334v-1154h708v-272h-1042z" />
    <glyph glyph-name="lacute" unicode="&#x13a;" horiz-adv-x="548" 
d="M44 1634l112 300h392l-230 -300h-274zM106 0v1524h300v-1524h-300z" />
    <glyph glyph-name="Lcaron" unicode="&#x13d;" horiz-adv-x="1284" 
d="M704 1446h326l-98 -300h-222zM180 0v1426h334v-1154h708v-272h-1042z" />
    <glyph glyph-name="lcaron" unicode="&#x13e;" horiz-adv-x="548" 
d="M506 1544h326l-98 -300h-222zM106 0v1524h300v-1524h-300z" />
    <glyph glyph-name="Lslash" unicode="&#x141;" horiz-adv-x="1284" 
d="M20 502v222l160 38v664h334v-586l354 84v-222l-354 -84v-346h708v-272h-1042v540z" />
    <glyph glyph-name="lslash" unicode="&#x142;" horiz-adv-x="548" 
d="M-54 552v220l160 52v700h300v-604l160 52v-220l-160 -52v-700h-300v604z" />
    <glyph glyph-name="Nacute" unicode="&#x143;" horiz-adv-x="1658" 
d="M486 1648l112 300h392q5 0 -53 -75t-119 -150l-60 -75h-272zM1152 1426h334v-1426h-474l-520 866v-866h-336v1426h378l618 -1030v1030z" />
    <glyph glyph-name="nacute" unicode="&#x144;" horiz-adv-x="1196" 
d="M462 1268l112 300h392q1 -2 -56.5 -77t-115.5 -149l-58 -74h-274zM764 0q12 444 0 634q-6 37 -45 74.5t-97 37.5q-188 0 -188 -132v-614h-300v1044h300v-120q53 64 132 97t170 33q151 0 239.5 -108t88.5 -312v-634h-300z" />
    <glyph glyph-name="Ncaron" unicode="&#x147;" horiz-adv-x="1658" 
d="M822 1884q12 0 33 16.5t36 33.5l15 16h274l-218 -300h-280l-218 300h274zM1152 1426h334v-1426h-474l-520 866v-866h-336v1426h378l618 -1030v1030z" />
    <glyph glyph-name="ncaron" unicode="&#x148;" horiz-adv-x="1196" 
d="M600 1502q12 0 33 16t36 32l15 16h274l-218 -300h-280l-220 300h274zM764 0q12 444 0 634q-6 37 -45 74.5t-97 37.5q-188 0 -188 -132v-614h-300v1044h300v-120q53 64 132 97t170 33q151 0 239.5 -108t88.5 -312v-634h-300z" />
    <glyph glyph-name="Omacron" unicode="&#x14c;" horiz-adv-x="1690" 
d="M516 1648v210h640v-210h-640zM454 712q0 -205 101 -318.5t275 -113.5q176 0 282 114.5t106 317.5q0 191 -116.5 309.5t-285.5 118.5q-164 0 -263 -116t-99 -312zM94 712q0 154 57 290.5t155.5 233.5t236 153.5t293.5 56.5t293.5 -56.5t236 -153.5t155.5 -233.5t57 -290.5
q0 -218 -92 -384t-260.5 -257t-389.5 -91t-389.5 91t-260.5 257t-92 384z" />
    <glyph glyph-name="omacron" unicode="&#x14d;" horiz-adv-x="1244" 
d="M294 1268v208h640v-208h-640zM374 526q0 -140 67 -218t175 -78q102 0 165 68t63 222q0 143 -59 220.5t-165 77.5q-48 0 -90 -15t-78 -47.5t-57 -91.5t-21 -138zM84 522q0 272 141 407t389 135q265 0 396.5 -144t131.5 -398q0 -272 -141 -407t-387 -135q-266 0 -398 144
t-132 398z" />
    <glyph glyph-name="Obreve" unicode="&#x14e;" horiz-adv-x="1690" 
d="M484 1940h220q0 -46 36 -74t96 -28t96 28t36 74h222q0 -141 -97.5 -226.5t-256.5 -85.5t-255.5 85.5t-96.5 226.5zM454 712q0 -205 101 -318.5t275 -113.5q176 0 282 114.5t106 317.5q0 191 -116.5 309.5t-285.5 118.5q-164 0 -263 -116t-99 -312zM94 712q0 154 57 290.5
t155.5 233.5t236 153.5t293.5 56.5t293.5 -56.5t236 -153.5t155.5 -233.5t57 -290.5q0 -218 -92 -384t-260.5 -257t-389.5 -91t-389.5 91t-260.5 257t-92 384z" />
    <glyph glyph-name="obreve" unicode="&#x14f;" horiz-adv-x="1244" 
d="M262 1558h220q0 -46 36 -74t96 -28t96 28t36 74h222q0 -139 -97.5 -224.5t-256.5 -85.5t-255.5 85t-96.5 225zM374 526q0 -140 67 -218t175 -78q102 0 165 68t63 222q0 143 -59 220.5t-165 77.5q-48 0 -90 -15t-78 -47.5t-57 -91.5t-21 -138zM84 522q0 272 141 407
t389 135q265 0 396.5 -144t131.5 -398q0 -272 -141 -407t-387 -135q-266 0 -398 144t-132 398z" />
    <glyph glyph-name="Racute" unicode="&#x154;" horiz-adv-x="1310" 
d="M560 1648l112 300h392l-230 -300h-274zM156 0v1426h476q300 0 453 -108t153 -320q0 -279 -266 -376l382 -622h-384l-350 570h-128v-570h-336zM492 830h150q105 -6 165.5 38.5t60.5 127.5t-65 128t-185 42q-38 -2 -126 -2v-334z" />
    <glyph glyph-name="racute" unicode="&#x155;" horiz-adv-x="908" 
d="M368 1268l112 300h392l-230 -300h-274zM866 738q-9 7 -24.5 17t-61 26.5t-88.5 16.5q-136 -1 -192 -68.5t-56 -195.5v-534h-300v1044h300v-66q90 90 240 90q60 0 101.5 -16t80.5 -52v-262z" />
    <glyph glyph-name="Rcaron" unicode="&#x158;" horiz-adv-x="1310" 
d="M698 1884q12 0 33 16.5t36 33.5l15 16h274l-218 -300h-280l-220 300h274zM156 0v1426h476q300 0 453 -108t153 -320q0 -279 -266 -376l382 -622h-384l-350 570h-128v-570h-336zM492 830h150q105 -6 165.5 38.5t60.5 127.5t-65 128t-185 42q-38 -2 -126 -2v-334z" />
    <glyph glyph-name="rcaron" unicode="&#x159;" horiz-adv-x="908" 
d="M506 1502q12 0 33 16t36 32l15 16h274l-218 -300h-280l-220 300h274zM866 738q-9 7 -24.5 17t-61 26.5t-88.5 16.5q-136 -1 -192 -68.5t-56 -195.5v-534h-300v1044h300v-66q90 90 240 90q60 0 101.5 -16t80.5 -52v-262z" />
    <glyph glyph-name="Sacute" unicode="&#x15a;" horiz-adv-x="1370" 
d="M504 1648l112 300h392l-232 -300h-272zM116 132l-32 442q76 -140 242 -221t368 -81q67 0 106 3t76.5 13.5t53 33t14.5 58.5q-4 80 -87.5 122.5t-248.5 61.5q-274 32 -424 154.5t-150 315.5q0 184 161 298t411 114q190 0 342 -38t216 -104l16 -354q-89 91 -245.5 144.5
t-328.5 53.5q-47 0 -69.5 -0.5t-56 -4t-49 -11t-29.5 -22t-18 -36.5q-6 -33 -1 -57.5t29 -42t42.5 -28t67.5 -19.5t75 -12.5t93 -11.5q5 -1 8 -1q280 -32 440 -166t160 -342q0 -190 -162.5 -302t-441.5 -112q-210 0 -365 44.5t-213 107.5z" />
    <glyph glyph-name="sacute" unicode="&#x15b;" horiz-adv-x="1050" 
d="M366 1268l112 300h392l-232 -300h-272zM114 122l-20 316q43 -92 165.5 -153t272.5 -61q67 0 113 20t39 64q-5 32 -31.5 50.5t-52 23.5t-93.5 14q-9 1 -13 2q-202 25 -317 116t-115 222q0 142 125 230t315 88q141 0 246.5 -31t129.5 -77l48 -276q-36 68 -160 115t-264 47
h-15q-29 0 -43.5 -0.5t-36.5 -4.5t-33 -11.5t-20 -23t-10 -38.5q-1 -16 3 -28t16 -20t23.5 -13.5t35 -9.5t40 -6t49.5 -5.5t53 -5.5q213 -25 318.5 -112t105.5 -224q0 -99 -60.5 -177t-164.5 -120.5t-231 -42.5q-158 0 -275 38t-143 94z" />
    <glyph glyph-name="Scircumflex" unicode="&#x15c;" horiz-adv-x="1370" 
d="M638 1712l-82 -64h-274l218 300h280l218 -300h-274q-84 56 -86 64zM116 132l-32 442q76 -140 242 -221t368 -81q67 0 106 3t76.5 13.5t53 33t14.5 58.5q-4 80 -87.5 122.5t-248.5 61.5q-274 32 -424 154.5t-150 315.5q0 184 161 298t411 114q190 0 342 -38t216 -104
l16 -354q-89 91 -245.5 144.5t-328.5 53.5q-47 0 -69.5 -0.5t-56 -4t-49 -11t-29.5 -22t-18 -36.5q-6 -33 -1 -57.5t29 -42t42.5 -28t67.5 -19.5t75 -12.5t93 -11.5q5 -1 8 -1q280 -32 440 -166t160 -342q0 -190 -162.5 -302t-441.5 -112q-210 0 -365 44.5t-213 107.5z" />
    <glyph glyph-name="Scedilla" unicode="&#x15e;" horiz-adv-x="1370" 
d="M116 132l-32 442q76 -140 242 -221t368 -81q124 0 193.5 26t66.5 84q-2 30 -11.5 54t-22 40.5t-37.5 29.5t-46.5 21t-61 15t-68.5 10.5t-81 9.5q-12 1 -18 2q-274 32 -424 154.5t-150 315.5q0 184 161 298t411 114q190 0 342 -38t216 -104l16 -354q-91 93 -248 150.5
t-326 57.5q-119 0 -153 -10q-57 -17 -71 -72q-9 -41 10 -71.5t66 -50t103 -31.5t137 -21q280 -32 440 -166t160 -342q0 -188 -161 -300.5t-437 -113.5l-16 -70q24 18 58 18q103 0 166.5 -63t63.5 -165q0 -104 -70.5 -167t-185.5 -63q-135 0 -178 52v168q39 -44 74.5 -61
t95.5 -17q43 0 69.5 24.5t26.5 63.5q0 37 -24.5 60.5t-63.5 23.5q-60 0 -74 -32q10 30 14 52l-14 -52v-2q-32 0 -54.5 13.5t-29.5 26.5l-6 14l46 178q-176 10 -303.5 52t-178.5 98z" />
    <glyph glyph-name="scedilla" unicode="&#x15f;" horiz-adv-x="1050" 
d="M554 -216q-28 0 -48.5 -9.5t-25.5 -24.5v2v-2q-32 0 -54.5 13.5t-29.5 26.5l-6 14l52 190q-127 10 -216 45t-112 83l-20 316q43 -92 165.5 -153t272.5 -61q35 0 59.5 2.5t51.5 9.5t40 24.5t9 43.5q-4 25 -18 41.5t-45.5 26.5t-56.5 14.5t-78 11.5q-202 25 -317 116
t-115 222q0 142 125 230t315 88q141 0 246.5 -31t129.5 -77l48 -276q-34 65 -148.5 112t-261.5 70q-42 3 -83 1.5t-72 -24t-31 -61.5q0 -14 3.5 -25.5t11.5 -20.5t16.5 -15.5t24 -11.5t27 -8t33.5 -6.5t36 -5t40.5 -4.5t41.5 -5q213 -25 318.5 -112t105.5 -224
q0 -147 -126 -242t-316 -98l-22 -78q26 16 56 16q103 0 166.5 -63t63.5 -165q0 -104 -70.5 -167t-185.5 -63q-135 0 -178 52v168q39 -44 74.5 -61t95.5 -17q43 0 69.5 24.5t26.5 63.5q0 37 -24.5 60.5t-63.5 23.5z" />
    <glyph glyph-name="Scaron" unicode="&#x160;" horiz-adv-x="1370" 
d="M640 1884q12 0 33 16.5t36 33.5l15 16h274l-218 -300h-280l-218 300h274zM116 132l-32 442q76 -140 242 -221t368 -81q67 0 106 3t76.5 13.5t53 33t14.5 58.5q-4 80 -87.5 122.5t-248.5 61.5q-274 32 -424 154.5t-150 315.5q0 184 161 298t411 114q190 0 342 -38
t216 -104l16 -354q-89 91 -245.5 144.5t-328.5 53.5q-47 0 -69.5 -0.5t-56 -4t-49 -11t-29.5 -22t-18 -36.5q-6 -33 -1 -57.5t29 -42t42.5 -28t67.5 -19.5t75 -12.5t93 -11.5q5 -1 8 -1q280 -32 440 -166t160 -342q0 -190 -162.5 -302t-441.5 -112q-210 0 -365 44.5
t-213 107.5z" />
    <glyph glyph-name="scaron" unicode="&#x161;" horiz-adv-x="1050" 
d="M502 1502q12 0 33 16t36 32l15 16h274l-218 -300h-280l-218 300h274zM114 122l-20 316q43 -92 165.5 -153t272.5 -61q67 0 113 20t39 64q-5 32 -31.5 50.5t-52 23.5t-93.5 14q-9 1 -13 2q-202 25 -317 116t-115 222q0 142 125 230t315 88q141 0 246.5 -31t129.5 -77
l48 -276q-36 68 -160 115t-264 47h-15q-29 0 -43.5 -0.5t-36.5 -4.5t-33 -11.5t-20 -23t-10 -38.5q-1 -16 3 -28t16 -20t23.5 -13.5t35 -9.5t40 -6t49.5 -5.5t53 -5.5q213 -25 318.5 -112t105.5 -224q0 -99 -60.5 -177t-164.5 -120.5t-231 -42.5q-158 0 -275 38t-143 94z
" />
    <glyph glyph-name="Tcaron" unicode="&#x164;" horiz-adv-x="1252" 
d="M626 1884q12 0 33 16.5t36 33.5l15 16h274l-218 -300h-280l-218 300h274zM1230 1290v-138h-436v-1152h-336v1152h-436v274h1208v-136z" />
    <glyph glyph-name="tcaron" unicode="&#x165;" horiz-adv-x="868" 
d="M572 1544h326l-98 -300h-222zM806 1038v-260h-334v-418q0 -122 176 -122q72 0 152 34v-250q-114 -42 -230 -42q-213 0 -305.5 95t-92.5 285v418h-134v260h134v342l300 186v-528h334z" />
    <glyph glyph-name="Utilde" unicode="&#x168;" horiz-adv-x="1604" 
d="M608 1628h-220q0 144 66.5 232t175.5 88l12 -116q-8 116 -12 116q46 0 94.5 -11t84 -26.5t64.5 -31t44 -26.5l15 -11q16 -234 22 -234l-22 234q20 0 32 23.5t12 62.5h220q0 -144 -66.5 -232t-175.5 -88q-56 0 -105.5 16.5t-77.5 36.5t-60.5 36.5t-58.5 16.5
q-20 0 -32 -23.5t-12 -62.5zM142 1426h336v-822q0 -314 314 -314t314 314v822h336v-880q0 -281 -164 -423.5t-486 -142.5q-321 0 -485.5 143t-164.5 423v880z" />
    <glyph glyph-name="utilde" unicode="&#x169;" horiz-adv-x="1216" 
d="M420 1268h-220q0 144 67.5 233t174.5 87q58 0 103 -11.5t69.5 -27t61 -36.5t68.5 -33q20 -4 30 9t12 30t2 49h220q0 -144 -66.5 -232t-175.5 -88v2v-2q-56 0 -105.5 16.5t-77.5 36.5t-60.5 36.5t-58.5 16.5q-20 0 -32 -23.5t-12 -62.5zM1074 0h-300v120
q-60 -67 -136.5 -103.5t-157.5 -36.5q-100 0 -167.5 28t-106.5 87t-55.5 139t-16.5 196v614h300v-614q0 -93 30.5 -135.5t109.5 -42.5q90 0 145 70t55 184v538h300v-1044z" />
    <glyph glyph-name="Umacron" unicode="&#x16a;" horiz-adv-x="1604" 
d="M472 1628v210h640v-210h-640zM142 1426h336v-822q0 -314 314 -314t314 314v822h336v-880q0 -281 -164 -423.5t-486 -142.5q-321 0 -485.5 143t-164.5 423v880z" />
    <glyph glyph-name="umacron" unicode="&#x16b;" horiz-adv-x="1216" 
d="M284 1268v208h49.5t115.5 0.5t158 0.5h151t122 -0.5t44 -0.5q4 -2 4 -54t-2 -103l-2 -51h-640zM1074 0h-300v120q-60 -67 -136.5 -103.5t-157.5 -36.5q-100 0 -167.5 28t-106.5 87t-55.5 139t-16.5 196v614h300v-614q0 -93 30.5 -135.5t109.5 -42.5q90 0 145 70t55 184
v538h300v-1044z" />
    <glyph glyph-name="Ubreve" unicode="&#x16c;" horiz-adv-x="1604" 
d="M440 1920h220q0 -46 36 -74t96 -28t96 28t36 74h222q0 -141 -97.5 -226.5t-256.5 -85.5t-255.5 85.5t-96.5 226.5zM142 1426h336v-822q0 -314 314 -314t314 314v822h336v-880q0 -281 -164 -423.5t-486 -142.5q-321 0 -485.5 143t-164.5 423v880z" />
    <glyph glyph-name="ubreve" unicode="&#x16d;" horiz-adv-x="1216" 
d="M252 1558h220q0 -46 37 -73t95 -29q65 -3 98.5 25t33.5 77h222q0 -139 -97.5 -224.5t-256.5 -85.5t-255.5 85t-96.5 225zM1074 0h-300v120q-60 -67 -136.5 -103.5t-157.5 -36.5q-100 0 -167.5 28t-106.5 87t-55.5 139t-16.5 196v614h300v-614q0 -93 30.5 -135.5
t109.5 -42.5q90 0 145 70t55 184v538h300v-1044z" />
    <glyph glyph-name="Uring" unicode="&#x16e;" horiz-adv-x="1604" 
d="M792 1830q-18 0 -25.5 -16t0 -32t25.5 -16t25.5 16t0 32t-25.5 16zM614 1798q0 81 47 125.5t131 44.5t131 -44.5t47 -125.5q0 -170 -178 -170t-178 170zM142 1426h336v-822q0 -314 314 -314t314 314v822h336v-880q0 -281 -164 -423.5t-486 -142.5q-321 0 -485.5 143
t-164.5 423v880z" />
    <glyph glyph-name="uring" unicode="&#x16f;" horiz-adv-x="1216" 
d="M604 1468q-15 2 -23 -13.5t-2 -32t25 -16.5q28 0 28 32q0 11 -1 15.5t-7 8.5t-20 6zM428 1438q0 81 46.5 125.5t129.5 44.5t129.5 -44.5t46.5 -125.5q0 -170 -176 -170t-176 170zM1074 0h-300v120q-60 -67 -136.5 -103.5t-157.5 -36.5q-100 0 -167.5 28t-106.5 87
t-55.5 139t-16.5 196v614h300v-614q0 -93 30.5 -135.5t109.5 -42.5q90 0 145 70t55 184v538h300v-1044z" />
    <glyph glyph-name="Wcircumflex" unicode="&#x174;" horiz-adv-x="1792" 
d="M4 1426h360l150 -768l198 768h342l212 -758l144 758h360l-266 -1426h-390l-232 870l-240 -870h-356zM886 1712l-84 -64h-274l220 300h280l218 -300h-274q-84 56 -86 64z" />
    <glyph glyph-name="Ycircumflex" unicode="&#x176;" horiz-adv-x="1336" 
d="M976 1426h338l-482 -764v-662h-334v662l-482 764h338l312 -496zM664 1712l-84 -64h-274l220 300h280l218 -300h-274q-84 56 -86 64z" />
    <glyph glyph-name="Ydieresis" unicode="&#x178;" horiz-adv-x="1336" 
d="M682 1648v326h326v-326h-326zM322 1648v326h326v-326h-326zM976 1426h338l-482 -764v-662h-334v662l-482 764h338l312 -496z" />
    <glyph glyph-name="Zacute" unicode="&#x179;" horiz-adv-x="1372" 
d="M564 1648l112 300h392l-230 -300h-274zM1280 272v-272h-1188v272l746 880h-716v274h1158v-274l-748 -880h748z" />
    <glyph glyph-name="zacute" unicode="&#x17a;" horiz-adv-x="982" 
d="M380 1268l112 300h392l-232 -300h-272zM92 1044h816v-182l-478 -628h510v-234h-878v182l464 628h-434v234z" />
    <glyph glyph-name="Zdotaccent" unicode="&#x17b;" horiz-adv-x="1372" 
d="M538 1648v326h326v-326h-326zM1280 272v-272h-1188v272l746 880h-716v274h1158v-274l-748 -880h748z" />
    <glyph glyph-name="zdotaccent" unicode="&#x17c;" horiz-adv-x="982" 
d="M352 1268v326h328v-326h-328zM92 1044h816v-182l-478 -628h510v-234h-878v182l464 628h-434v234z" />
    <glyph glyph-name="Zcaron" unicode="&#x17d;" horiz-adv-x="1372" 
d="M702 1884q12 0 33 16.5t36 33.5l15 16h274l-218 -300h-280l-220 300h274zM1280 272v-272h-1188v272l746 880h-716v274h1158v-274l-748 -880h748z" />
    <glyph glyph-name="zcaron" unicode="&#x17e;" horiz-adv-x="982" 
d="M516 1502q12 0 33 16t36 32l15 16h274l-218 -300h-280l-218 300h274zM92 1044h816v-182l-478 -628h510v-234h-878v182l464 628h-434v234z" />
    <glyph glyph-name="uni01EB" unicode="&#x1eb;" horiz-adv-x="1554" 
d="M428 586q0 -174 116 -264t298 -66q-86 165 -128 234l302 -50q0 -6 38 -72q64 86 64 218q0 151 -101.5 242.5t-252.5 91.5q-150 0 -243 -90.5t-93 -243.5zM104 586q0 171 87.5 309.5t241 217.5t341.5 79q187 0 340.5 -79t240.5 -218t87 -309q0 -154 -62 -279t-176 -205
l200 -346l-336 56q-40 82 -94 190q-97 -22 -200 -22q-302 0 -486 166.5t-184 439.5z" />
    <glyph glyph-name="uni0226" unicode="&#x226;" 
d="M596 1648v326h328v-326h-328zM0 0l570 1426h366l554 -1426h-364l-84 218l-594 -2q-12 -32 -41.5 -106.5t-42.5 -109.5h-364zM548 474h398l-198 518q-80 -203 -200 -518z" />
    <glyph glyph-name="uni0262" unicode="&#x262;" horiz-adv-x="1466" 
d="M1046 592h328v-456q-86 -72 -231 -114t-323 -42q-327 0 -526.5 166.5t-199.5 439.5t199.5 439.5t526.5 166.5q153 0 301.5 -81.5t236.5 -214.5l-208 -198q-75 111 -166 179.5t-164 68.5q-181 0 -291.5 -99t-110.5 -261t110.5 -261t291.5 -99q200 0 266 56v62h-34z" />
    <glyph glyph-name="uni026A" unicode="&#x26a;" horiz-adv-x="670" 
d="M196 0v1172h302v-1172h-302z" />
    <glyph glyph-name="uni0274" unicode="&#x274;" horiz-adv-x="1442" 
d="M968 1172h302v-1172h-414l-390 662v-662h-300v1172h326l476 -808v808z" />
    <glyph glyph-name="uni0280" unicode="&#x280;" horiz-adv-x="1174" 
d="M166 0v1172h364q283 0 427.5 -89t144.5 -263q0 -229 -254 -308l364 -512h-346l-336 472h-4h-60v-472h-300zM466 706h74q105 -6 165.5 24.5t60.5 87.5q0 59 -64.5 91t-183.5 29q-8 0 -25.5 -1t-26.5 -1v-230z" />
    <glyph glyph-name="uni028F" unicode="&#x28f;" horiz-adv-x="1196" 
d="M848 1172h326l-426 -510v-662h-302v662l-428 510h328l252 -294z" />
    <glyph glyph-name="uni0299" unicode="&#x299;" horiz-adv-x="1336" 
d="M166 0v1172h488q242 -3 345 -78t103 -244q0 -133 -134 -202q142 -22 219 -98.5t77 -185.5q0 -197 -117 -280.5t-393 -83.5h-588zM466 732h228q47 1 65.5 27.5t18.5 84.5q0 97 -112 94h-200v-206zM466 234h202q129 -1 181.5 28t52.5 100q0 57 -67.5 92.5t-176.5 31.5h-118
h-74v-252z" />
    <glyph glyph-name="uni029C" unicode="&#x29c;" horiz-adv-x="1508" 
d="M166 0v1172h300v-486h568v486h302v-1172h-302v440h-568v-440h-300z" />
    <glyph glyph-name="uni029F" unicode="&#x29f;" horiz-adv-x="1130" 
d="M196 0v1172h302v-926h570v-246h-872z" />
    <glyph glyph-name="circumflex" unicode="&#x2c6;" horiz-adv-x="756" 
d="M376 1330l-82 -62h-274l218 300h280l220 -300h-274q-86 54 -88 62z" />
    <glyph glyph-name="caron" unicode="&#x2c7;" horiz-adv-x="756" 
d="M378 1502q12 0 33.5 16t36.5 32l16 16h274l-220 -300h-280l-218 300h274z" />
    <glyph glyph-name="uni02C9" unicode="&#x2c9;" horiz-adv-x="756" 
d="M58 1268v208h640v-208h-640z" />
    <glyph glyph-name="breve" unicode="&#x2d8;" horiz-adv-x="756" 
d="M26 1558h222q0 -46 35.5 -74t94.5 -28q60 0 96 28t36 74h220q0 -140 -96.5 -225t-255.5 -85t-255.5 85t-96.5 225z" />
    <glyph glyph-name="dotaccent" unicode="&#x2d9;" horiz-adv-x="756" 
d="M216 1268v326h326v-326h-326z" />
    <glyph glyph-name="ring" unicode="&#x2da;" horiz-adv-x="756" 
d="M378 1468q-18 0 -25 -15.5t0.5 -31t24.5 -15.5t24.5 15.5t0.5 31t-25 15.5zM202 1438q0 81 46.5 125.5t129.5 44.5q84 0 131 -44.5t47 -125.5q0 -170 -178 -170q-176 0 -176 170z" />
    <glyph glyph-name="uni1D00" unicode="&#x1d00;" horiz-adv-x="1376" 
d="M12 0l512 1172h324l506 -1172h-316l-70 164l-576 -4q-10 -24 -31.5 -78t-32.5 -82h-316zM486 390h386l-192 454q-58 -134 -194 -454z" />
    <glyph glyph-name="uni1D04" unicode="&#x1d04;" horiz-adv-x="1288" 
d="M1248 416l-2 -274q-39 -73 -149 -117.5t-253 -44.5q-165 0 -306.5 48.5t-238 131t-151 193.5t-54.5 233t54.5 233t151 193.5t238 131t306.5 48.5q133 0 243.5 -44.5t158.5 -117.5l-2 -246q-78 60 -188.5 111t-211.5 51q-187 0 -306.5 -105.5t-119.5 -254.5t119.5 -254.5
t306.5 -105.5q124 0 216.5 46.5t187.5 143.5z" />
    <glyph glyph-name="uni1D05" unicode="&#x1d05;" horiz-adv-x="1458" 
d="M166 0v1172h440q366 0 553 -148t187 -438q0 -299 -167 -442.5t-513 -143.5h-500zM466 234h180q191 0 283.5 87t92.5 265q0 174 -102 263t-302 89h-152v-704z" />
    <glyph glyph-name="uni1D07" unicode="&#x1d07;" horiz-adv-x="1238" 
d="M166 0v1172h940v-246h-640v-230h386l2 -234h-388v-216h670v-246h-970z" />
    <glyph glyph-name="uni1D0A" unicode="&#x1d0a;" horiz-adv-x="950" 
d="M160 132v88l2 108q64 -44 104 -57t124 -13q41 0 63.5 23t22.5 63v828h302v-828q0 -168 -100 -266t-288 -98q-87 0 -132.5 11.5t-95.5 46.5z" />
    <glyph glyph-name="uni1D0B" unicode="&#x1d0b;" horiz-adv-x="1334" 
d="M166 0v1172h300v-462l400 406q-18 -16 -60 -56l106 102l10 10h358q-8 -8 -24 -26q-12 -12 -35 -37t-35 -37l-328 -350l454 -722h-346q-16 24 -24 34l-98 134l64 -85q-4 6 -12 17q-60 88 -264 380q-45 -47 -166 -176v-304h-300zM806 1060q-7 -7 -26.5 -25.5t-31.5 -30.5z
M1250 1140q-18 -19 -78 -83t-144 -153.5t-170 -181.5q85 91 176 187.5t143 152.5t73 78zM1384 -604q-104 151 -235.5 340t-156.5 226zM1384 -604l122 -176q-22 32 -63 90.5t-59 85.5zM632 480l-2 2l-164 -174v-4q121 129 166 176z" />
    <glyph glyph-name="uni1D0D" unicode="&#x1d0d;" horiz-adv-x="1774" 
d="M168 0v1172q140 -10 290 0v-4l168 4l256 -504l248 504l182 -2v2h290v-1172h-290v892l-294 -492h-268v2l-292 482v-884h-290z" />
    <glyph glyph-name="uni1D0F" unicode="&#x1d0f;" horiz-adv-x="1554" 
d="M428 586q0 -160 91 -246t249 -86q159 0 254.5 87t95.5 245q0 149 -105.5 238.5t-258.5 89.5q-150 0 -238 -87.5t-88 -240.5zM104 586q0 171 87.5 309.5t241 217.5t341.5 79q187 0 340.5 -79t240.5 -218t87 -309q0 -273 -184 -439.5t-484 -166.5q-302 0 -486 166.5
t-184 439.5z" />
    <glyph glyph-name="uni1D18" unicode="&#x1d18;" horiz-adv-x="1174" 
d="M166 0v1172h364q283 0 427.5 -89t144.5 -263q0 -187 -144 -282.5t-428 -95.5h-64v-442h-300zM466 676h76q228 6 228 142q0 114 -252 120q-8 0 -25.5 1t-26.5 1v-264z" />
    <glyph glyph-name="uni1D1B" unicode="&#x1d1b;" horiz-adv-x="1114" 
d="M1092 1050v-124h-384v-926h-302v926h-384v246h1070v-122z" />
    <glyph glyph-name="uni1D1C" unicode="&#x1d1c;" horiz-adv-x="1432" 
d="M152 1172h300v-672q0 -242 260 -242q126 0 191 61t65 181v672h302v-724q0 -231 -141 -349.5t-417 -118.5q-277 0 -418.5 118.5t-141.5 349.5v724z" />
    <glyph glyph-name="uni1D20" unicode="&#x1d20;" horiz-adv-x="1240" 
d="M14 1172h324l282 -790l274 790h324l-450 -1172h-292z" />
    <glyph glyph-name="uni1D21" unicode="&#x1d21;" horiz-adv-x="1620" 
d="M14 1172h324l134 -628l176 628h310l188 -618l128 618h324l-230 -1172h-358l-210 718l-214 -718h-324z" />
    <glyph glyph-name="uni1D22" unicode="&#x1d22;" horiz-adv-x="1234" 
d="M1142 246v-246h-1050v246l664 680h-634v246h1020v-246l-664 -680h664z" />
    <glyph glyph-name="Wgrave" unicode="&#x1e80;" horiz-adv-x="1792" 
d="M750 1648l-230 300h392l112 -300h-274zM4 1426h360l150 -768l198 768h342l212 -758l144 758h360l-266 -1426h-390l-232 870l-240 -870h-356z" />
    <glyph glyph-name="Wacute" unicode="&#x1e82;" horiz-adv-x="1792" 
d="M750 1648l112 300h392l-230 -300h-274zM4 1426h360l150 -768l198 768h342l212 -758l144 758h360l-266 -1426h-390l-232 870l-240 -870h-356z" />
    <glyph glyph-name="Wdieresis" unicode="&#x1e84;" horiz-adv-x="1792" 
d="M904 1648v326h326v-326h-326zM544 1648v326h326v-326h-326zM4 1426h360l150 -768l198 768h342l212 -758l144 758h360l-266 -1426h-390l-232 870l-240 -870h-356z" />
    <glyph glyph-name="uni1EBC" unicode="&#x1ebc;" horiz-adv-x="1402" 
d="M530 1648h-222q0 144 67 232t177 88q46 0 94 -11t83 -26.5t64 -31t44 -26.5l15 -11q20 0 32 23.5t12 62.5h222q0 -142 -66 -230t-174 -90h-4q-56 0 -104.5 16.5t-76.5 36.5t-60.5 36.5t-58.5 16.5q-20 0 -32 -23.5t-12 -62.5zM156 0v1426h1114v-274l-778 2v-318h524
l2 -262h-526v-302h808v-272h-1144z" />
    <glyph glyph-name="Ygrave" unicode="&#x1ef2;" horiz-adv-x="1336" 
d="M528 1648l-230 300h392l112 -300h-274zM976 1426h338l-482 -764v-662h-334v662l-482 764h338l312 -496z" />
    <glyph glyph-name="endash" unicode="&#x2013;" horiz-adv-x="882" 
d="M12 376v248h858v-248h-858z" />
    <glyph glyph-name="emdash" unicode="&#x2014;" horiz-adv-x="1462" 
d="M102 376v248h1258v-248h-1258z" />
    <glyph glyph-name="quoteleft" unicode="&#x2018;" horiz-adv-x="530" 
d="M428 1446v-156q-130 0 -130 -120h130v-328h-326v328q0 276 326 276z" />
    <glyph glyph-name="quoteright" unicode="&#x2019;" horiz-adv-x="530" 
d="M266 1446h326v-326q0 -149 -75.5 -212.5t-250.5 -63.5v156q70 0 100 27.5t30 92.5h-130v326z" />
    <glyph glyph-name="quotedblleft" unicode="&#x201c;" horiz-adv-x="1182" 
d="M1080 1446v-156q-130 0 -130 -120h130v-328h-326v328q0 276 326 276zM592 1446v-156q-130 0 -130 -120h130v-328h-326v328q0 276 326 276z" />
    <glyph glyph-name="quotedblright" unicode="&#x201d;" horiz-adv-x="1182" 
d="M754 1446h326v-326q0 -149 -75.5 -212.5t-250.5 -63.5v156q70 0 100 27.5t30 92.5h-130v326zM266 1446h326v-326q0 -149 -75.5 -212.5t-250.5 -63.5v156q70 0 100 27.5t30 92.5h-130v326z" />
    <glyph glyph-name="dagger" unicode="&#x2020;" horiz-adv-x="1224" 
d="M1102 1184v-260h-340v-1040h-300v1040h-340v260h340v340h300v-340h340z" />
    <glyph glyph-name="daggerdbl" unicode="&#x2021;" horiz-adv-x="1224" 
d="M122 224v260h340v440h-340v260h340v340h300v-340h340v-260h-340v-440h340v-260h-340v-340h-300v340h-340z" />
    <glyph glyph-name="bullet" unicode="&#x2022;" horiz-adv-x="530" 
d="M102 358v328h326v-328h-326z" />
    <glyph glyph-name="ellipsis" unicode="&#x2026;" horiz-adv-x="1482" 
d="M1054 0v326h326v-326h-326zM578 0v326h326v-326h-326zM102 0v326h326v-326h-326z" />
    <glyph glyph-name="perthousand" unicode="&#x2030;" horiz-adv-x="2376" 
d="M1936 292q0 -70 28.5 -113t75.5 -43t75.5 43t28.5 113q0 63 -28.5 101.5t-75.5 38.5t-75.5 -38.5t-28.5 -101.5zM1766 292q0 133 75.5 214.5t198.5 81.5t198.5 -81.5t75.5 -214.5q0 -141 -75.5 -226.5t-198.5 -85.5t-198.5 85.5t-75.5 226.5zM264 1240q0 -66 29 -107
t77 -41q46 0 75 41t29 107t-28.5 106t-75.5 40q-48 0 -77 -40t-29 -106zM96 1240q0 136 75.5 220t198.5 84t198.5 -84t75.5 -220q0 -138 -75.5 -222t-198.5 -84t-198.5 84t-75.5 222zM1286 292q0 -71 26.5 -113.5t69.5 -42.5q47 0 75.5 43t28.5 113q0 63 -28.5 101.5
t-75.5 38.5q-43 0 -69.5 -38.5t-26.5 -101.5zM1118 292q0 133 72.5 214.5t191.5 81.5q123 0 197.5 -81t74.5 -215q0 -141 -74.5 -226.5t-197.5 -85.5q-119 0 -191.5 85.5t-72.5 226.5zM318 0l960 1524l152 2l-946 -1522z" />
    <glyph glyph-name="guilsinglleft" unicode="&#x2039;" horiz-adv-x="574" 
d="M408 944h260l-320 -422l320 -422h-260l-320 422z" />
    <glyph glyph-name="guilsinglright" unicode="&#x203a;" horiz-adv-x="574" 
d="M56 944h262l320 -422l-320 -422h-262l322 422z" />
    <glyph glyph-name="fraction" unicode="&#x2044;" horiz-adv-x="1138" 
d="M10 0l960 1524h142l-956 -1524h-146z" />
    <glyph glyph-name="Euro" unicode="&#x20ac;" horiz-adv-x="1256" 
d="M-40 484l24 168h102q-3 60 0 120h-102l24 168h104q65 237 258 371.5t472 134.5q281 0 372 -174l24 -364q-74 138 -179.5 201t-216.5 63q-124 0 -216.5 -60.5t-139.5 -171.5h458l-22 -168h-476q-3 -60 0 -120h476l-24 -168h-412q47 -111 139.5 -171.5t216.5 -60.5
q123 0 228.5 67.5t167.5 214.5l-24 -382q-70 -172 -372 -172q-279 0 -471 133.5t-257 370.5h-154z" />
    <glyph glyph-name="minus" unicode="&#x2212;" horiz-adv-x="1292" 
d="M102 408v184h1088v-184h-1088z" />
    <glyph glyph-name="uni2215" unicode="&#x2215;" horiz-adv-x="1018" 
d="M2 0l864 1426l150 -6l-854 -1420h-160z" />
    <glyph glyph-name="uni2219" unicode="&#x2219;" horiz-adv-x="530" 
d="M102 358v328h326v-328h-326z" />
    <glyph glyph-name="uniA730" unicode="&#xa730;" horiz-adv-x="1168" 
d="M166 0v1172h940v-246h-640v-230h398v-234h-398v-462h-300z" />
    <glyph glyph-name="uniA731" unicode="&#xa731;" horiz-adv-x="1198" 
d="M108 144l-28 398q76 -137 217 -217.5t301 -80.5q92 0 142 21t50 55q0 48 -68 82.5t-196 47.5q-229 26 -356.5 130t-127.5 270q0 153 138 247.5t350 94.5q142 0 267.5 -40.5t194.5 -109.5l14 -320q-164 169 -462 220q-71 12 -124.5 -2t-63.5 -52q-15 -57 54 -89t198 -45
q240 -26 379 -141t139 -291q0 -156 -143 -249t-385 -93q-170 0 -299 47t-191 117z" />
    <glyph glyph-name="uniF078" unicode="&#xf078;" horiz-adv-x="1208" 
d="M824 1172h368l-408 -592l392 -580h-324l-230 342l-236 -342h-372l424 614l-378 558h326l216 -320z" />
  </font>
</defs>
</svg>
