<?xml version="1.0" standalone="no"?>
<!DOCTYPE svg PUBLIC "-//W3C//DTD SVG 1.1//EN" "http://www.w3.org/Graphics/SVG/1.1/DTD/svg11.dtd" >
<svg xmlns="http://www.w3.org/2000/svg" xmlns:xlink="http://www.w3.org/1999/xlink" version="1.1">
<metadata>
Created by FontForge 20170731 at Sun Aug  6 18:07:04 2023
 By Aleksey,,,
</metadata>
<defs>
<font id="Gallant-bold-italic" horiz-adv-x="1512" >
  <font-face 
    font-family="Gallant"
    font-weight="700"
    font-style="italic"
    font-stretch="normal"
    units-per-em="2048"
    panose-1="0 0 0 0 0 0 0 0 0 0"
    ascent="1638"
    descent="-410"
    x-height="1044"
    cap-height="1426"
    bbox="-210 -794 2625.09 2254"
    underline-thickness="100"
    underline-position="-400"
    unicode-range="U+000D-F078"
  />
<missing-glyph horiz-adv-x="200" 
 />
    <glyph glyph-name=".notdef" horiz-adv-x="200" 
 />
    <glyph glyph-name="uni0000" horiz-adv-x="0" 
 />
    <glyph glyph-name="uni0000" horiz-adv-x="0" 
 />
    <glyph glyph-name="uni000D" unicode="&#xd;" horiz-adv-x="512" 
 />
    <glyph glyph-name="space" unicode=" " horiz-adv-x="572" 
 />
    <glyph glyph-name="exclam" unicode="!" horiz-adv-x="484" 
d="M104 0l48 276h276l-48 -276h-276zM344 1426h300q-50 -253 -128 -598l-102 -398h-208l44 398q28 157 51.5 306.5t32.5 220.5z" />
    <glyph glyph-name="quotedbl" unicode="&#x22;" horiz-adv-x="1014" 
d="M830 1426h254l-48 -266l-110 -248h-122l-22 248zM416 1426h254l-48 -266l-110 -248h-122l-22 248z" />
    <glyph glyph-name="numbersign" unicode="#" horiz-adv-x="1544" 
d="M1284 1504h244l-110 -356h286l-66 -208h-284l-118 -376h268l-66 -208h-266l-110 -356h-244l110 356h-292l-110 -356h-242l110 356h-300l68 208h296l118 376h-282l66 208h280l110 356h242l-110 -356h292zM818 940l-118 -376h292l118 376h-292z" />
    <glyph glyph-name="dollar" unicode="$" horiz-adv-x="1316" 
d="M980 1576h134l-26 -156q178 -41 250 -128l-40 -300q-86 109 -256 164l-54 -314q183 -54 268.5 -170.5t57.5 -277.5q-27 -154 -151 -258.5t-319 -139.5l-26 -146h-134l22 132q-16 -2 -50 -2q-44 0 -66 2l-22 -132h-134l24 144q-122 20 -207 62t-121 94l38 374
q37 -99 125 -169.5t211 -102.5l60 360q-187 48 -274 157t-60 267q28 154 158 261t318 139l24 140h134l-22 -130q60 0 114 -6zM860 870l54 316q-51 8 -116 8l-52 -306q37 -7 74 -12q7 -1 20 -3t20 -3zM618 914l48 274q-38 -5 -72 -36.5t-46 -77.5q-11 -47 10 -94.5t60 -65.5z
M694 590l-60 -360q22 -2 66 -2q34 0 50 2l58 338q-57 14 -114 22zM934 536l-50 -292q48 3 84.5 39t43.5 95q7 52 -17.5 98t-60.5 60z" />
    <glyph glyph-name="percent" unicode="%" horiz-adv-x="1692" 
d="M452 1240q-13 -78 13 -125t83 -47t101 47t57 125q13 76 -14 123t-84 47t-99.5 -46.5t-56.5 -123.5zM308 1240q24 137 113.5 220.5t210.5 83.5t180.5 -83.5t35.5 -220.5q-24 -138 -113 -222t-211 -84q-121 0 -180.5 84t-35.5 222zM1302 292q-15 -81 8 -130.5t74 -49.5
q55 0 97 49.5t57 130.5q12 74 -13.5 119t-80.5 45q-51 0 -90.5 -45.5t-51.5 -118.5zM1158 292q22 133 108 214.5t202 81.5q120 0 178.5 -81t35.5 -215q-25 -141 -113.5 -226.5t-208.5 -85.5q-116 0 -171.5 85.5t-30.5 226.5zM316 0l1228 1524l152 -2l-1226 -1524z" />
    <glyph glyph-name="ampersand" unicode="&#x26;" horiz-adv-x="1472" 
d="M1348 4q-65 -24 -122 -24q-163 0 -282 100q-188 -120 -426 -120q-207 0 -314 106t-76 280q18 106 103.5 204t208.5 154q-50 58 -71.5 138t-6.5 160q26 143 145.5 230.5t288.5 87.5q161 0 245 -84t59 -222q-16 -97 -97.5 -180.5t-212.5 -145.5q112 -154 190 -258
q78 119 102 278l224 -54q-39 -237 -174 -406q59 -36 156 -36q52 0 64 6zM688 826l8 4q74 31 124.5 82t59.5 102q9 43 -24.5 69.5t-95.5 26.5q-61 0 -103.5 -24.5t-50.5 -63.5q-9 -49 13.5 -101t68.5 -95zM556 564q-12 -6 -18 -8q-52 -22 -90.5 -71.5t-49.5 -106.5
q-12 -75 43.5 -121.5t158.5 -46.5q99 0 186 42q-3 4 -8 11t-8 11q-37 50 -111.5 150.5t-102.5 139.5z" />
    <glyph glyph-name="quotesingle" unicode="'" horiz-adv-x="520" 
d="M416 1426h254l-48 -266l-110 -248h-122l-22 248z" />
    <glyph glyph-name="parenleft" unicode="(" horiz-adv-x="746" 
d="M728 1516l72 -100q-390 -284 -478 -780q-85 -482 204 -768l-106 -98q-353 347 -262 866q94 534 570 880z" />
    <glyph glyph-name="parenright" unicode=")" horiz-adv-x="656" 
d="M174 -230l-72 100q390 284 478 780q85 482 -204 768l106 98q353 -347 262 -866q-94 -534 -570 -880z" />
    <glyph glyph-name="asterisk" unicode="*" horiz-adv-x="836" 
d="M690 1326l66 -202l-216 -38l152 -156l-172 -126l-102 194l-102 -194l-172 126l152 156l-216 38l66 202l198 -96l-32 216h212l-32 -216z" />
    <glyph glyph-name="plus" unicode="+" horiz-adv-x="1188" 
d="M590 444h-460l28 156h460l78 444h164l-78 -444h460l-28 -156h-460l-78 -444h-164z" />
    <glyph glyph-name="comma" unicode="," horiz-adv-x="482" 
d="M150 276h278l-48 -276q-24 -136 -98 -194t-224 -58l22 132q60 0 91 28t43 92h-112z" />
    <glyph glyph-name="hyphen" unicode="-" horiz-adv-x="792" 
d="M172 394l36 212h588l-36 -212h-588z" />
    <glyph glyph-name="period" unicode="." horiz-adv-x="480" 
d="M102 0l48 276h278l-48 -276h-278z" />
    <glyph glyph-name="slash" unicode="/" horiz-adv-x="666" 
d="M2 0l804 1426h110l-802 -1426h-112z" />
    <glyph glyph-name="zero" unicode="0" horiz-adv-x="1462" 
d="M520 712q-44 -248 17.5 -374t224.5 -126q165 0 270.5 126t149.5 374q42 237 -22.5 369.5t-221.5 132.5q-156 0 -266 -132.5t-152 -369.5zM224 712q62 347 260.5 540.5t493.5 193.5q296 0 427.5 -194t70.5 -540q-65 -363 -255.5 -547.5t-500.5 -184.5t-435.5 184.5
t-60.5 547.5z" />
    <glyph glyph-name="one" unicode="1" horiz-adv-x="914" 
d="M744 1426h220l-56 -312l-196 -1114h-284l196 1112l-288 -116l50 284z" />
    <glyph glyph-name="two" unicode="2" horiz-adv-x="1268" 
d="M84 0q25 141 65 238.5t110.5 173.5t158.5 130.5t228 115.5q168 73 278 166.5t124 173.5q15 79 -52 129.5t-174 50.5q-91 0 -160.5 -11t-129 -37.5t-99.5 -51.5t-103 -72l2 12l42 240q2 10 4 26q75 69 201.5 115.5t304.5 46.5q144 0 256 -56t167.5 -161.5t32.5 -238.5
q-21 -122 -131 -239.5t-267 -186.5q-172 -77 -275.5 -142.5t-166.5 -147.5h744l-12 -68q0 1 1 4.5t1 5.5l-38 -216h-806h-306zM1232 206l-12 -70q4 22 12 70z" />
    <glyph glyph-name="three" unicode="3" horiz-adv-x="1294" 
d="M180 108l68 390q41 -97 87.5 -151.5t130 -84.5t216.5 -30q109 0 192 49t96 127q20 110 -53 177t-211 67h-120l20 110l8 44l12 66h160q111 0 187 50t91 132q13 75 -42 117.5t-184 42.5q-230 0 -460 -188l54 304q88 69 201 92.5t253 23.5q257 0 365.5 -98.5t78.5 -271.5
q-16 -92 -93.5 -171t-192.5 -121q126 -53 188 -157.5t40 -230.5q-21 -122 -113 -218t-228.5 -147t-292.5 -51q-201 0 -298.5 27.5t-159.5 100.5z" />
    <glyph glyph-name="four" unicode="4" horiz-adv-x="1252" 
d="M984 100l-16 -90q0 -4 -2 -10h-142h-142l68 378h-394h-238l40 220l840 828h220l-54 -314l-86 -480h244l-46 -254h-242zM458 632h336l72 402z" />
    <glyph glyph-name="five" unicode="5" horiz-adv-x="1306" 
d="M308 658l236 768h856l-38 -150q0 2 1 5.5t1 4.5l-40 -158l-570 -36l-64 -184q20 0 77 -2t95 -2q235 0 355.5 -126t84.5 -332q-36 -210 -214.5 -338t-433.5 -128q-202 0 -305 34.5t-167 95.5q54 310 66 382q59 -135 166.5 -202t283.5 -66q119 0 201.5 61t98.5 161
q10 57 -12.5 91.5t-91.5 57t-200 35.5q-14 2 -33 4t-31.5 3.5t-26.5 3t-22.5 3.5t-16 4.5t-10 6t-0.5 7.5z" />
    <glyph glyph-name="six" unicode="6" horiz-adv-x="1218" 
d="M1352 1344l-48 -278q-29 71 -117 114.5t-203 43.5q-178 0 -296 -127t-156 -345v-2q47 93 139.5 149.5t200.5 56.5v-2q229 4 350 -133.5t82 -354.5q-39 -219 -213.5 -352.5t-420.5 -133.5q-280 0 -390.5 181.5t-47.5 538.5q60 344 265 545t525 201q131 0 221.5 -28
t108.5 -74zM774 720q-239 -17 -270 -284q8 -112 57 -167.5t151 -56.5q135 -3 197.5 56.5t90.5 197.5q27 128 -32.5 188t-193.5 66z" />
    <glyph glyph-name="seven" unicode="7" horiz-adv-x="1042" 
d="M314 1426h958l-48 -274q-273 -114 -427.5 -379.5t-244.5 -772.5h-314q44 244 95 421t119.5 309.5t144 227t185.5 194.5h-516zM266 1152q7 48 24 138z" />
    <glyph glyph-name="eight" unicode="8" horiz-adv-x="1320" 
d="M656 1050q-15 -82 16.5 -123t141.5 -41q104 0 154.5 38.5t65.5 125.5q13 81 -20.5 122.5t-141.5 41.5q-100 0 -151 -40.5t-65 -123.5zM360 1074q31 180 179 276t373 96q239 0 349 -100t81 -272q-40 -225 -272 -312q129 -47 180 -144t26 -234q-24 -136 -110 -227.5
t-215 -134t-297 -42.5q-276 0 -393.5 107.5t-84.5 296.5q49 285 342 378q-100 43 -139 123t-19 189zM512 402q-16 -94 23.5 -142t160.5 -48q229 0 264 196q40 226 -190 226q-111 0 -174 -56.5t-84 -175.5z" />
    <glyph glyph-name="nine" unicode="9" horiz-adv-x="1240" 
d="M20 90l56 310q27 -70 126.5 -113t233.5 -43q173 0 286 116t148 314v2q-47 -92 -141 -147t-203 -55q-231 0 -348 133.5t-78 352.5t212.5 352.5t419.5 133.5q281 0 392 -181.5t48 -538.5q-29 -169 -95 -306t-163.5 -235t-231 -151.5t-292.5 -53.5q-146 0 -248.5 30.5
t-121.5 79.5zM622 706q124 0 194 64t92 220q2 115 -48 170t-170 54q-138 -1 -201.5 -65t-84.5 -189q-43 -254 218 -254z" />
    <glyph glyph-name="colon" unicode=":" horiz-adv-x="480" 
d="M238 768l48 276h278l-48 -276h-278zM102 0l48 276h278l-48 -276h-278z" />
    <glyph glyph-name="semicolon" unicode=";" horiz-adv-x="480" 
d="M238 768l48 276h278l-48 -276h-278zM198 276h278l-96 -276q-48 -136 -132 -194t-234 -58l44 132q60 0 96 27.5t60 92.5h-112z" />
    <glyph glyph-name="less" unicode="&#x3c;" horiz-adv-x="1244" 
d="M1298 996l-38 -210l-806 -264l714 -264l-38 -210l-962 380l32 188z" />
    <glyph glyph-name="equal" unicode="=" horiz-adv-x="1272" 
d="M152 408h1088l-28 -154h-1088zM222 810h1088l-26 -154h-1088z" />
    <glyph glyph-name="greater" unicode="&#x3e;" horiz-adv-x="1244" 
d="M974 522l-714 264l38 210l962 -380l-32 -188l-1098 -380l38 210z" />
    <glyph glyph-name="question" unicode="?" horiz-adv-x="1176" 
d="M362 0l48 276h276l-48 -276h-276zM314 1286q65 71 185.5 115.5t272.5 44.5q249 0 383.5 -103.5t104.5 -272.5q-17 -98 -96.5 -185t-251.5 -193q-119 -73 -159 -122.5t-55 -141.5h-242q28 167 86 247.5t222 182.5q118 74 171 123t59 89q12 69 -59.5 111.5t-200.5 42.5
q-281 0 -470 -224z" />
    <glyph glyph-name="at" unicode="@" horiz-adv-x="2594" 
d="M2106 -232l64 -126q-180 -112 -430 -181t-480 -69q-277 0 -495 83t-353 232.5t-187 363.5t-7 469q59 341 257.5 601.5t502.5 403.5t668 143q252 0 451 -70t324.5 -196.5t175.5 -307.5t11 -398q-60 -339 -253 -545.5t-449 -206.5q-117 0 -190.5 57.5t-91.5 160.5
q-84 -93 -200 -144.5t-248 -51.5q-246 0 -351.5 152.5t-30.5 401.5q63 217 252.5 350.5t435.5 133.5q108 0 182.5 -45.5t107.5 -130.5l46 154h234l-172 -584q-41 -138 -5 -223t135 -85q136 0 248 166.5t160 439.5q43 239 -42.5 422.5t-282.5 283.5t-477 100
q-308 0 -565 -122t-425.5 -345t-219.5 -515t41 -515t310.5 -345t532.5 -122q214 0 438.5 57.5t377.5 152.5zM1670 500q41 137 -28.5 220.5t-223.5 83.5q-131 0 -232.5 -73t-135.5 -191q-45 -151 7 -243.5t183 -92.5q154 0 265.5 59t140.5 155z" />
    <glyph glyph-name="A" unicode="A" 
d="M14 0l842 1426h10h280h20l324 -1426h-308l-58 258l-656 -2q-119 -207 -146 -256h-308zM594 474h482l-132 604q-347 -598 -350 -604z" />
    <glyph glyph-name="B" unicode="B" horiz-adv-x="1472" 
d="M170 0q100 572 252 1426h284h270q277 -3 379.5 -93.5t66.5 -296.5q-15 -87 -77 -153.5t-161 -106.5q164 -27 240.5 -117.5t53.5 -220.5q-42 -237 -193 -337.5t-463 -100.5h-368h-284zM606 858l302 -6q53 -3 104.5 48t65.5 132q15 85 -24 128.5t-108 45.5h-280
q-33 -186 -60 -348zM492 220l288 2q174 -1 254 47.5t100 166.5q15 86 -64.5 140t-225.5 50h-185h-95q-16 -95 -41 -234.5t-31 -171.5z" />
    <glyph glyph-name="C" unicode="C" horiz-adv-x="1430" 
d="M1460 402l-46 -254q-53 -75 -193 -121.5t-317 -46.5q-178 0 -320.5 59t-229 158.5t-121.5 233t-9 281.5t108.5 281.5t204 234t284.5 159.5t341 59q167 0 291.5 -45.5t160.5 -120.5l-42 -226q-62 56 -188.5 108t-261.5 52q-221 0 -388 -146.5t-204 -355.5
q-24 -135 18 -248.5t146.5 -182.5t251.5 -69q159 0 282.5 48t231.5 142z" />
    <glyph glyph-name="D" unicode="D" horiz-adv-x="1594" 
d="M170 0q100 572 252 1426h284h220q400 0 572 -180t110 -534q-65 -362 -279 -537t-595 -175h-280h-284zM492 220h260q236 0 371.5 121t180.5 371q43 244 -60 369t-348 125h-230q-142 -810 -174 -986z" />
    <glyph glyph-name="E" unicode="E" horiz-adv-x="1364" 
d="M170 0q100 572 252 1426h282h2h778l-42 -232h-778q-36 -204 -66 -378h524l-38 -222h-526q-32 -196 -64 -362h808l-40 -232h-808h-2h-282z" />
    <glyph glyph-name="F" unicode="F" horiz-adv-x="1294" 
d="M170 0q100 572 252 1426h282h2h778l-42 -232h-778q-36 -204 -66 -378h536l-40 -222h-536l-104 -594h-284z" />
    <glyph glyph-name="G" unicode="G" horiz-adv-x="1604" 
d="M1232 716h406l-4 -24l-18 -104l-18 -102l-56 -318q-119 -86 -290 -137t-360 -51q-237 0 -402 91t-235 257t-31 384q59 330 313.5 532t612.5 202q180 0 330 -82t216 -216l-228 -188q-57 114 -155 184t-203 70q-222 0 -381.5 -138t-198.5 -364q-40 -225 71 -362.5
t333 -137.5q229 0 360 94l32 178h-128z" />
    <glyph glyph-name="H" unicode="H" horiz-adv-x="1660" 
d="M170 0q100 572 252 1426h284q-22 -122 -57.5 -324.5t-48.5 -275.5h750q13 73 48.5 275.5t57.5 324.5h284l-252 -1426h-284q38 221 104 594h-750l-104 -594h-284z" />
    <glyph glyph-name="I" unicode="I" horiz-adv-x="634" 
d="M178 0q100 572 252 1426h284l-252 -1426h-284z" />
    <glyph glyph-name="J" unicode="J" horiz-adv-x="1082" 
d="M184 134l14 82l20 98q56 -43 109 -57.5t171 -14.5q83 0 135.5 47.5t66.5 128.5q70 405 178 1008h284l-178 -1008q-35 -201 -173.5 -319.5t-358.5 -118.5q-122 0 -181 13t-101 49z" />
    <glyph glyph-name="K" unicode="K" horiz-adv-x="1460" 
d="M170 0l252 1426h284l-112 -630l708 630h354l-594 -540l376 -886h-344l-284 658l-286 -260l-70 -398h-284z" />
    <glyph glyph-name="L" unicode="L" horiz-adv-x="1232" 
d="M178 0q100 572 252 1426h284q-198 -1115 -212 -1194h708l-40 -232h-708h-2h-282z" />
    <glyph glyph-name="M" unicode="M" horiz-adv-x="1896" 
d="M172 0l252 1426q122 -10 274 0v-4l158 4l210 -748l466 748l170 -2v2h274l-252 -1426h-274l198 1118l-504 -718h-252l-250 710l-196 -1110h-274z" />
    <glyph glyph-name="N" unicode="N" horiz-adv-x="1606" 
d="M1402 1426h284l-252 -1426h-82h-202h-118l-410 956q-12 -72 -168 -956h-284q38 214 126 713t126 713h284h38l466 -1092z" />
    <glyph glyph-name="O" unicode="O" horiz-adv-x="1690" 
d="M540 712q-40 -223 52 -347.5t288 -124.5q197 0 338.5 125.5t181.5 346.5q18 105 -2 194t-71 149t-127 93.5t-168 33.5q-185 0 -320 -128t-172 -342zM234 712q37 206 162 374.5t310 264t392 95.5q154 0 281 -56.5t207 -153.5t112.5 -233.5t5.5 -290.5
q-39 -218 -159.5 -384t-303.5 -257t-401 -91q-219 0 -370 91t-213 257t-23 384z" />
    <glyph glyph-name="P" unicode="P" horiz-adv-x="1310" 
d="M170 0l252 1426h70h214h230q274 0 395 -108t83 -320q-39 -225 -199 -339.5t-435 -114.5h-230l-96 -544h-284zM590 764h240q110 3 179.5 61t90.5 171q18 103 -36 155t-180 55q-64 2 -216 2z" />
    <glyph glyph-name="Q" unicode="Q" horiz-adv-x="1690" 
d="M540 712q-40 -221 57.5 -347.5t294.5 -126.5q43 0 82 6q-65 135 -104 224l284 -16q0 -6 52 -104q153 127 194 364q37 211 -65.5 343.5t-290.5 132.5q-186 0 -326.5 -131.5t-177.5 -344.5zM234 712q37 206 162 374.5t310 264t392 95.5q154 0 281 -56.5t207 -153.5
t112.5 -233.5t5.5 -290.5q-34 -191 -131.5 -343t-244.5 -249l180 -328l-318 20q-44 88 -102 202q-121 -34 -248 -34q-219 0 -370 91t-213 257t-23 384z" />
    <glyph glyph-name="R" unicode="R" horiz-adv-x="1338" 
d="M170 0l252 1426h70h214h230q274 0 395 -108t83 -320q-48 -283 -324 -374l254 -624h-326l-236 580h-226l-102 -580h-284zM596 800h238q104 -6 174 46.5t88 149.5q18 104 -37 158.5t-175 51.5q-66 -2 -218 -2z" />
    <glyph glyph-name="S" unicode="S" horiz-adv-x="1316" 
d="M130 150l38 374q51 -137 195.5 -216.5t336.5 -79.5q137 0 220 44t86 128q3 76 -74 123.5t-240 66.5q-251 30 -372 146t-90 300q33 183 205 296.5t407 113.5q168 0 303 -41.5t193 -112.5l-40 -300q-73 93 -209.5 147.5t-290.5 54.5q-56 0 -96 -4.5t-77 -17.5t-59.5 -39
t-31.5 -65q-11 -47 3.5 -80.5t55.5 -55t94 -34t133 -22.5q265 -32 396.5 -159t97.5 -323q-33 -190 -210 -302t-448 -112q-198 0 -337 49t-189 121z" />
    <glyph glyph-name="T" unicode="T" horiz-adv-x="1252" 
d="M232 1194l42 232h462h284h462l-42 -232h-462l-210 -1194h-284q82 469 210 1194h-462zM232 1194l20 116q-3 -17 -10 -58t-10 -58z" />
    <glyph glyph-name="U" unicode="U" horiz-adv-x="1552" 
d="M408 1426h284l-146 -828q-32 -176 36.5 -266t233.5 -90t265.5 90t132.5 266l144 828h284l-156 -878q-50 -281 -231 -424.5t-485 -143.5q-306 0 -437 143.5t-81 424.5z" />
    <glyph glyph-name="V" unicode="V" horiz-adv-x="1358" 
d="M270 1426h306l172 -1052l536 1052h304l-770 -1426h-10h-252h-10z" />
    <glyph glyph-name="W" unicode="W" horiz-adv-x="1738" 
d="M270 1426h306l20 -868l372 868h20h254h20l82 -856l320 856h304l-516 -1426h-52h-268h-22l-80 946l-420 -946h-252h-56z" />
    <glyph glyph-name="X" unicode="X" horiz-adv-x="1334" 
d="M1238 1426h334l-604 -712l334 -714h-302l-228 484l-410 -484h-338l628 738l-324 688h304l216 -458z" />
    <glyph glyph-name="Y" unicode="Y" horiz-adv-x="1324" 
d="M1264 1426h290l-628 -762l-118 -664h-284l118 662h-2l-360 764h290l254 -538z" />
    <glyph glyph-name="Z" unicode="Z" horiz-adv-x="1372" 
d="M1300 116l-20 -116h-1188l40 232l992 962h-792l42 232h1158l-42 -232l-990 -962h820zM332 1194l20 116q-3 -17 -10 -58t-10 -58z" />
    <glyph glyph-name="bracketleft" unicode="[" horiz-adv-x="774" 
d="M640 1282l-240 -1368h296l-24 -144h-298h-164l292 1656h164h298l-26 -144h-298z" />
    <glyph glyph-name="backslash" unicode="\" horiz-adv-x="730" 
d="M580 0l-326 1426h150l324 -1426h-148z" />
    <glyph glyph-name="bracketright" unicode="]" horiz-adv-x="778" 
d="M46 -86h298l-24 -144l292 1656l-26 -144h-298l26 144h298h166l-292 -1656h-166h-298z" />
    <glyph glyph-name="asciicircum" unicode="^" horiz-adv-x="756" 
d="M378 1368l-126 -100h-232l230 300h256l232 -300h-232q-128 96 -128 100z" />
    <glyph glyph-name="underscore" unicode="_" horiz-adv-x="1422" 
d="M52 -278l28 156h1218l-28 -156h-1218z" />
    <glyph glyph-name="grave" unicode="`" horiz-adv-x="756" 
d="M262 1268l-220 300h330l122 -300h-232z" />
    <glyph glyph-name="a" unicode="a" horiz-adv-x="1382" 
d="M438 512q-50 -294 222 -294q97 0 183.5 81t112.5 223q25 142 -32.5 222t-155.5 80q-132 0 -217.5 -81t-112.5 -231zM188 522q44 245 202.5 393.5t375.5 148.5q153 0 266 -110q3 15 8 45t8 45h256l-184 -1044h-256q4 28 14 80q-150 -100 -304 -100q-218 0 -323.5 149
t-62.5 393z" />
    <glyph glyph-name="b" unicode="b" horiz-adv-x="1268" 
d="M490 522q-29 -165 28.5 -243.5t177.5 -78.5q113 0 198 83t110 229q27 149 -24.5 236.5t-161.5 87.5q-58 0 -109 -17t-95.5 -53t-76.5 -98t-47 -146zM144 0l268 1524h254l-100 -564q166 104 354 104q195 0 288 -149t50 -393t-189 -393t-341 -149q-188 0 -316 104l-14 -84
h-254z" />
    <glyph glyph-name="c" unicode="c" horiz-adv-x="1106" 
d="M1110 324l-46 -216q-44 -58 -136 -93t-210 -35q-143 0 -251 32.5t-179.5 98t-97.5 169.5t-2 242q24 137 89 242t159.5 170t210 97.5t247.5 32.5q127 0 208 -36.5t110 -83.5l-42 -214q-17 13 -51 41t-45.5 36t-38.5 24.5t-48 21t-54 9t-75 4.5q-150 0 -257 -86.5
t-137 -257.5q-29 -167 49.5 -249.5t242.5 -82.5q46 0 81.5 5t71 19.5t57 26t68 39.5t76.5 44z" />
    <glyph glyph-name="d" unicode="d" horiz-adv-x="1298" 
d="M422 530q-26 -146 41 -233t189 -87q121 0 216 80t124 220l4 28q20 139 -46 219.5t-186 80.5q-124 0 -220.5 -81.5t-121.5 -226.5zM188 522q43 244 193.5 390.5t358.5 151.5q203 6 332 -98l98 558h254l-268 -1524h-254l14 76q-169 -105 -368 -96q-206 8 -304.5 153.5
t-55.5 388.5z" />
    <glyph glyph-name="e" unicode="e" horiz-adv-x="1162" 
d="M1122 328l-40 -196q-58 -69 -167 -110.5t-259 -41.5q-263 0 -389.5 135t-78.5 407t210.5 407t405.5 135q127 0 215 -42.5t131 -120t51.5 -186.5t-23.5 -243h-254q12 56 14 82l-14 -82h-466q-13 -136 51 -204t187 -68q95 0 173.5 23t152.5 59.5t100 45.5zM944 630
q2 112 -42 173t-134 61q-94 0 -165 -58.5t-111 -175.5h452zM472 558q-4 -12 -8 -36q-1 -6 -3 -17t-3 -17z" />
    <glyph glyph-name="f" unicode="f" horiz-adv-x="868" 
d="M670 966h382l-34 -200h-384l-134 -766h-254q72 415 134 766h-182l34 200h184q12 78 24 138q74 413 496 420q131 0 208 -40l-36 -204q-65 34 -204 38q-172 -3 -210 -214q-12 -60 -24 -138z" />
    <glyph glyph-name="g" unicode="g" horiz-adv-x="1278" 
d="M60 -366l66 280q135 -170 440 -170q131 0 214 73t104 197l12 66q-151 -83 -354 -80q-444 7 -354 522q25 143 75 248.5t121.5 168.5t157 93.5t188.5 31.5q202 3 322 -98l14 78h254l-174 -990q-45 -251 -203.5 -396.5t-412.5 -145.5q-182 0 -265.5 21.5t-204.5 100.5z
M446 530q-54 -304 204 -304q115 0 204.5 76t117.5 208l4 28q20 138 -42 215t-178 77q-61 0 -107.5 -13.5t-88 -46t-70.5 -92.5t-44 -148z" />
    <glyph glyph-name="h" unicode="h" horiz-adv-x="1188" 
d="M792 0q78 444 112 634q16 93 -22.5 141.5t-119.5 48.5q-98 0 -167.5 -52.5t-84.5 -137.5l-112 -634h-254q188 1067 268 1524h254q-13 -72 -47 -264.5t-53 -301.5q140 96 334 96q154 0 223.5 -108t34.5 -312l-112 -634h-254z" />
    <glyph glyph-name="i" unicode="i" horiz-adv-x="606" 
d="M422 1268l48 276q260 -2 276 0q1 -5 -11 -74t-25 -136l-12 -66h-276zM210 0l184 1044h254l-184 -1044h-254zM746 1544zM746 1544zM746 1544z" />
    <glyph glyph-name="j" unicode="j" horiz-adv-x="560" 
d="M388 1268l48 276h278l-48 -276h-278zM-162 -156q13 -2 51 -11.5t71 -16.5t44 -6q40 0 60.5 4t44.5 21.5t39.5 57.5t27.5 107l184 1044h256l-184 -1044q-24 -136 -56.5 -220t-87.5 -136t-132 -67t-192 -1l-18 6h-1l-1 1h-1h-1q-87 23 -152 49z" />
    <glyph glyph-name="k" unicode="k" horiz-adv-x="1196" 
d="M144 0l268 1524h254l-158 -902l504 422h328l-404 -342l238 -702h-306l-150 516l-270 -228l-50 -288h-254z" />
    <glyph glyph-name="l" unicode="l" horiz-adv-x="526" 
d="M130 0q188 1067 268 1524h254l-268 -1524h-254z" />
    <glyph glyph-name="m" unicode="m" horiz-adv-x="1788" 
d="M1402 0q80 444 112 634q11 66 -30.5 111t-121.5 45q-203 0 -230 -156l-112 -634h-256q80 444 112 634q11 64 -29.5 110t-114.5 46q-205 0 -232 -156l-112 -634h-254q128 731 184 1044h254q-1 -6 -8 -45t-12 -63q139 118 326 118q97 0 161 -45t89 -133q68 85 167.5 131.5
t208.5 46.5q155 0 227 -108t37 -312l-112 -634h-254z" />
    <glyph glyph-name="n" unicode="n" horiz-adv-x="1168" 
d="M782 0q92 444 112 634q5 57 -35.5 105.5t-114.5 48.5q-217 0 -244 -154l-112 -634h-254q128 731 184 1044h254q-2 -12 -22 -122q65 65 153.5 98.5t186.5 33.5q154 0 223.5 -108t34.5 -312l-112 -634h-254z" />
    <glyph glyph-name="o" unicode="o" horiz-adv-x="1242" 
d="M428 526q-27 -157 34.5 -243.5t191.5 -86.5q122 0 210.5 76.5t119.5 247.5q28 159 -27 245.5t-183 86.5q-124 0 -219.5 -78t-126.5 -248zM188 522q48 272 211 407t407 135q133 0 227 -39t143 -110t64.5 -171t-8.5 -222q-48 -272 -211 -407t-407 -135q-133 0 -227 39
t-143 110t-64.5 171t8.5 222z" />
    <glyph glyph-name="p" unicode="p" horiz-adv-x="1268" 
d="M490 522q-28 -162 38.5 -238t193.5 -76q108 0 189 82.5t107 229.5q25 148 -23.5 232t-154.5 84q-60 0 -114.5 -17t-103 -53t-83.5 -98.5t-49 -145.5zM80 -358q174 983 248 1402h254q-3 -16 -8.5 -50t-7.5 -44q171 114 362 114q192 0 282.5 -149t47.5 -393
q-44 -245 -187 -393.5t-335 -148.5q-194 0 -324 104l-78 -442h-254z" />
    <glyph glyph-name="q" unicode="q" horiz-adv-x="1288" 
d="M440 526q-25 -146 32.5 -228t173.5 -82q126 0 219 80t119 226q26 145 -42 227.5t-194 82.5q-115 0 -198.5 -79.5t-109.5 -226.5zM188 522q43 243 189.5 388.5t348.5 153.5q199 9 334 -110q3 15 8 45t8 45h254l-248 -1402h-254q30 163 78 444q-168 -106 -372 -106
q-200 0 -294.5 149t-51.5 393z" />
    <glyph glyph-name="r" unicode="r" horiz-adv-x="902" 
d="M996 776q-7 7 -21 17t-56.5 26.5t-86.5 16.5q-156 -1 -234 -73.5t-102 -208.5l-98 -554h-254q128 731 184 1044h254q-2 -10 -7 -37.5t-7 -44.5q120 102 298 102q60 0 99 -15.5t71 -50.5z" />
    <glyph glyph-name="s" unicode="s" horiz-adv-x="1038" 
d="M136 134l30 268q26 -91 136 -151.5t258 -60.5q79 0 138 27.5t68 76.5q12 61 -37 86.5t-159 37.5q-195 21 -293 107t-75 213q25 141 163.5 228.5t326.5 87.5q136 0 234 -34t116 -84l4 -234q-25 70 -138.5 117t-249.5 47q-198 0 -210 -106q-7 -55 46.5 -77.5t177.5 -36.5
q205 -22 295 -104.5t67 -213.5q-27 -149 -172.5 -243.5t-337.5 -94.5q-154 0 -262 41t-126 103z" />
    <glyph glyph-name="t" unicode="t" horiz-adv-x="868" 
d="M990 1038l-40 -222h-356q-19 -107 -82 -462q-13 -76 27 -115t151 -39q72 0 152 34l-38 -212q-110 -42 -220 -42q-209 0 -284 93.5t-42 280.5q63 355 82 462h-158l40 222h158l60 342l280 148q-32 -183 -88 -490h358z" />
    <glyph glyph-name="u" unicode="u" horiz-adv-x="1182" 
d="M914 0h-128q8 40 20 114q-70 -64 -155 -99t-169 -35q-135 0 -204.5 48.5t-83 144t11.5 237.5q78 444 112 634h254l-112 -634q-17 -104 13.5 -152t130.5 -48q94 0 164.5 60.5t93.5 161.5q13 74 30 168.5t40 227.5t38 216h254q-38 -214 -83 -471.5t-67.5 -385.5t-29.5 -167
l-4 -20h-126z" />
    <glyph glyph-name="v" unicode="v" horiz-adv-x="1036" 
d="M198 1044h288l80 -790l366 790h266l-550 -1044h-56h-144h-78z" />
    <glyph glyph-name="w" unicode="w" horiz-adv-x="1516" 
d="M200 1044h268l36 -746l324 746h222l62 -744l296 744h270l-450 -1044h-92h-144h-56l-66 648l-296 -648h-56h-144h-86z" />
    <glyph glyph-name="x" unicode="x" horiz-adv-x="1102" 
d="M948 1042h328l-480 -518l294 -524h-316l-176 312l-290 -312h-326l494 532l-288 512h316l168 -300z" />
    <glyph glyph-name="y" unicode="y" horiz-adv-x="1040" 
d="M198 1044h288l114 -662l314 662h288l-648 -1248q-65 -127 -167 -183.5t-269 -56.5q-18 0 -66 5t-87 10l-39 5l40 236q150 -36 190 -36q90 0 129.5 13.5t58.5 50.5l66 142z" />
    <glyph glyph-name="z" unicode="z" horiz-adv-x="982" 
d="M276 1044h548h268l-28 -154l-654 -690h566l-18 -100l-18 -100h-602h-276l28 154l642 690h-492l18 100z" />
    <glyph glyph-name="braceleft" unicode="{" horiz-adv-x="754" 
d="M944 1426l-26 -144h-162q-42 0 -73.5 -34.5t-42.5 -91.5l-68 -378q-13 -76 -51 -129.5t-89 -68.5q45 -16 63.5 -68.5t6.5 -129.5q-24 -146 -66 -380q-9 -56 10.5 -90t61.5 -34h162l-24 -144h-162q-117 0 -176 74t-38 194l72 412q9 48 -22.5 77t-91.5 29h-24l20 120h24
q60 0 102.5 29t51.5 77q28 164 72 410q21 121 106 195.5t202 74.5h162z" />
    <glyph glyph-name="bar" unicode="|" horiz-adv-x="350" 
d="M378 1624h166l-386 -2186h-166z" />
    <glyph glyph-name="braceright" unicode="}" horiz-adv-x="754" 
d="M364 1426h162q117 0 175 -74t37 -196l-72 -410q-9 -48 22.5 -77t91.5 -29h24l-20 -120h-24q-60 0 -102.5 -29t-51.5 -77q-28 -164 -72 -412q-21 -120 -105 -194t-201 -74h-162l24 144h162q42 0 74.5 34.5t41.5 89.5l70 380q12 76 50 129.5t90 68.5q-45 17 -64 69.5
t-6 128.5q-6 -9 64 378q10 57 -10 91.5t-62 34.5h-162z" />
    <glyph glyph-name="asciitilde" unicode="~" horiz-adv-x="756" 
d="M196 522h-188q0 145 59.5 234.5t154.5 85.5q48 0 89.5 -16t68 -37t65 -48t73.5 -41q15 -2 24.5 5.5t13.5 26.5t5 38t1 52h188q0 -144 -59 -232t-155 -88v2v-2q-38 0 -75.5 14.5t-66 35.5t-54.5 42t-52 35.5t-48 14.5q-20 0 -32 -33.5t-12 -88.5z" />
    <glyph glyph-name="uni00A0" unicode="&#xa0;" horiz-adv-x="502" 
 />
    <glyph glyph-name="exclamdown" unicode="&#xa1;" horiz-adv-x="484" 
d="M356 1426h276l-50 -276h-276zM92 0q72 412 104 590l184 408h76l40 -408l-104 -590h-300z" />
    <glyph glyph-name="cent" unicode="&#xa2;" horiz-adv-x="1106" 
d="M886 1194h134l-24 -138q84 -12 138.5 -44t77.5 -68l-42 -214q-18 14 -46.5 37t-42 33t-34.5 24t-41 21.5t-44 12.5l-110 -660q32 6 64 19.5t54.5 26t65 38t74.5 42.5l-46 -216q-72 -94 -248 -122l-24 -136h-134l22 130q-274 9 -406 144t-86 398q23 133 85 236t153 168
t201 99.5t237 38.5zM716 192l114 674q-140 -8 -238.5 -94.5t-127.5 -249.5q-28 -156 40 -238.5t212 -91.5z" />
    <glyph glyph-name="guillemotleft" unicode="&#xab;" horiz-adv-x="1246" 
d="M1044 944h220l-394 -422l246 -422h-220l-246 422zM624 944h220l-394 -422l246 -422h-220l-246 422z" />
    <glyph glyph-name="logicalnot" unicode="&#xac;" horiz-adv-x="1116" 
d="M1030 94h-254l52 300h-656l36 212h658h254l-36 -212h-2z" />
    <glyph glyph-name="acute" unicode="&#xb4;" horiz-adv-x="756" 
d="M262 1268l122 300h332l-222 -300h-232z" />
    <glyph glyph-name="periodcentered" unicode="&#xb7;" horiz-adv-x="480" 
d="M170 384l48 276h278l-48 -276h-278z" />
    <glyph glyph-name="guillemotright" unicode="&#xbb;" horiz-adv-x="1210" 
d="M676 944h222l246 -422l-394 -422h-222l394 422zM256 944h222l246 -422l-394 -422h-222l396 422z" />
    <glyph glyph-name="questiondown" unicode="&#xbf;" horiz-adv-x="1164" 
d="M1084 1426l-50 -276h-276l50 276h276zM1142 148q-63 -82 -174.5 -125t-293.5 -43q-273 0 -421.5 99.5t-120.5 262.5q18 98 103 188.5t267 203.5q142 88 188 137.5t60 126.5h242q-14 -80 -32.5 -131.5t-58 -101.5t-96 -93t-155.5 -104q-128 -80 -186.5 -132t-65.5 -94
q-11 -63 76 -101.5t240 -38.5q92 0 164.5 19t131 59.5t103 88t97.5 121.5z" />
    <glyph glyph-name="Agrave" unicode="&#xc0;" 
d="M938 1648l-168 300q332 -2 332 0q4 1 21 -74t32 -150l15 -76h-232zM14 0l842 1426h10h280h20l324 -1426h-308l-58 258l-656 -2q-119 -207 -146 -256h-308zM594 474h482l-132 604q-347 -598 -350 -604z" />
    <glyph glyph-name="Aacute" unicode="&#xc1;" 
d="M938 1648l176 300q332 -2 332 0q4 1 -65 -74t-140 -150l-71 -76h-232zM14 0l842 1426h10h280h20l324 -1426h-308l-58 258l-656 -2q-119 -207 -146 -256h-308zM594 474h482l-132 604q-347 -598 -350 -604z" />
    <glyph glyph-name="Acircumflex" unicode="&#xc2;" 
d="M14 0l842 1426h10h280h20l324 -1426h-308l-58 258l-656 -2q-119 -207 -146 -256h-308zM1072 1750l-144 -102h-232l284 300h256l176 -300h-232q-108 98 -108 102zM594 474h482l-132 604q-347 -598 -350 -604z" />
    <glyph glyph-name="Atilde" unicode="&#xc3;" 
d="M870 1648h-188q25 142 103 232t171 88q48 0 87 -16.5t62.5 -37.5t57 -47.5t63.5 -40.5q26 -7 39.5 24t26.5 98h188q-26 -144 -99.5 -231t-170.5 -87v2v-2q-47 0 -90 22t-69 48t-57.5 48t-57.5 22q-20 0 -38 -33.5t-28 -88.5zM14 0l842 1426h10h280h20l324 -1426h-308
l-58 258l-656 -2q-119 -207 -146 -256h-308zM594 474h482l-132 604q-347 -598 -350 -604z" />
    <glyph glyph-name="Adieresis" unicode="&#xc4;" 
d="M1088 1648l50 278h276l-50 -278h-276zM744 1648l50 278h276l-50 -278h-276zM14 0l842 1426h10h280h20l324 -1426h-308l-58 258l-656 -2q-119 -207 -146 -256h-308zM594 474h482l-132 604q-347 -598 -350 -604z" />
    <glyph glyph-name="Aring" unicode="&#xc5;" 
d="M1036 1820q-9 -54 40 -54q47 0 56 54q9 49 -38 52q-17 2 -35.5 -13.5t-22.5 -38.5zM910 1820q15 80 68.5 124t135.5 44q83 0 121 -44.5t23 -123.5q-30 -172 -204 -172t-144 172zM14 0l842 1426h10h280h20l324 -1426h-308l-58 258l-656 -2q-119 -207 -146 -256h-308z
M594 474h482l-132 604q-347 -598 -350 -604z" />
    <glyph glyph-name="Ccedilla" unicode="&#xc7;" horiz-adv-x="1430" 
d="M1460 402l-46 -254q-53 -75 -193 -121.5t-317 -46.5q-67 0 -144 10l-46 -96q27 18 64 18q96 0 145 -58t33 -152q-18 -96 -93 -154t-181 -58q-130 0 -164 46l24 140q33 -38 65.5 -52t90.5 -14q44 0 75.5 25t38.5 67q6 39 -15 63.5t-63 24.5q-31 0 -55.5 -9.5t-32.5 -24.5
l8 16l-8 -16v0q-26 1 -42.5 12.5t-19.5 22.5l-4 11l98 206q-252 64 -375 258.5t-79 445.5q26 148 108.5 281.5t204 234t284.5 159.5t341 59q167 0 291.5 -45.5t160.5 -120.5l-42 -226q-62 56 -188.5 108t-261.5 52q-221 0 -388 -146.5t-204 -355.5q-24 -135 18 -248.5
t146.5 -182.5t251.5 -69q159 0 282.5 48t231.5 142z" />
    <glyph glyph-name="Egrave" unicode="&#xc8;" horiz-adv-x="1364" 
d="M874 1648l-166 300h332l68 -300h-234zM170 0q100 572 252 1426h282h2h778l-42 -232h-778q-36 -204 -66 -378h524l-38 -222h-526q-32 -196 -64 -362h808l-40 -232h-808h-2h-282z" />
    <glyph glyph-name="Eacute" unicode="&#xc9;" horiz-adv-x="1364" 
d="M874 1648l176 300h332l-274 -300h-234zM170 0q100 572 252 1426h282h2h778l-42 -232h-778q-36 -204 -66 -378h524l-38 -222h-526q-32 -196 -64 -362h808l-40 -232h-808h-2h-282z" />
    <glyph glyph-name="Ecircumflex" unicode="&#xca;" horiz-adv-x="1364" 
d="M170 0q100 572 252 1426h282h2h778l-42 -232h-778q-36 -204 -66 -378h524l-38 -222h-526q-32 -196 -64 -362h808l-40 -232h-808h-2h-282zM1010 1750l-146 -102h-232l284 300h258l176 -300h-232q-108 98 -108 102z" />
    <glyph glyph-name="Edieresis" unicode="&#xcb;" horiz-adv-x="1364" 
d="M1024 1648l50 278h276l-50 -278h-276zM682 1648l50 278h276l-50 -278h-276zM170 0q100 572 252 1426h282h2h778l-42 -232h-778q-36 -204 -66 -378h524l-38 -222h-526q-32 -196 -64 -362h808l-40 -232h-808h-2h-282z" />
    <glyph glyph-name="Igrave" unicode="&#xcc;" horiz-adv-x="634" 
d="M494 1648l-168 300q322 -6 332 0l68 -300h-232zM178 0q100 572 252 1426h284l-252 -1426h-284zM658 1948z" />
    <glyph glyph-name="Iacute" unicode="&#xcd;" horiz-adv-x="634" 
d="M494 1648l176 300q306 -6 330 0l-274 -300h-232zM178 0q100 572 252 1426h284l-252 -1426h-284zM1000 1948h2h-2z" />
    <glyph glyph-name="Icircumflex" unicode="&#xce;" horiz-adv-x="634" 
d="M178 0q100 572 252 1426h284l-252 -1426h-284zM628 1750l-144 -102h-232l284 300h256l176 -300h-232q-108 98 -108 102z" />
    <glyph glyph-name="Idieresis" unicode="&#xcf;" horiz-adv-x="634" 
d="M644 1648l50 278h276l-50 -278h-276zM300 1648l50 278h276l-50 -278h-276zM178 0q100 572 252 1426h284l-252 -1426h-284z" />
    <glyph glyph-name="Ntilde" unicode="&#xd1;" horiz-adv-x="1606" 
d="M908 1648h-188q25 141 103.5 230.5t170.5 89.5q48 0 88 -16t63.5 -36.5t57 -48t61.5 -41.5q25 -3 39.5 28t26.5 94h188q-26 -144 -100.5 -232t-171.5 -88v0q-38 0 -73 14.5t-60 35.5t-47.5 42t-46 35.5t-45.5 14.5q-20 0 -38 -33.5t-28 -88.5zM1402 1426h284l-252 -1426
h-82h-202h-118l-410 956q-12 -72 -168 -956h-284q38 214 126 713t126 713h284h38l466 -1092z" />
    <glyph glyph-name="Ograve" unicode="&#xd2;" horiz-adv-x="1690" 
d="M1018 1648l-168 300h332l68 -300h-232zM540 712q-40 -223 52 -347.5t288 -124.5q197 0 338.5 125.5t181.5 346.5q18 105 -2 194t-71 149t-127 93.5t-168 33.5q-185 0 -320 -128t-172 -342zM234 712q37 206 162 374.5t310 264t392 95.5q154 0 281 -56.5t207 -153.5
t112.5 -233.5t5.5 -290.5q-39 -218 -159.5 -384t-303.5 -257t-401 -91q-219 0 -370 91t-213 257t-23 384z" />
    <glyph glyph-name="Oacute" unicode="&#xd3;" horiz-adv-x="1690" 
d="M1018 1648l176 300h332l-276 -300h-232zM540 712q-40 -223 52 -347.5t288 -124.5q197 0 338.5 125.5t181.5 346.5q18 105 -2 194t-71 149t-127 93.5t-168 33.5q-185 0 -320 -128t-172 -342zM234 712q37 206 162 374.5t310 264t392 95.5q154 0 281 -56.5t207 -153.5
t112.5 -233.5t5.5 -290.5q-39 -218 -159.5 -384t-303.5 -257t-401 -91q-219 0 -370 91t-213 257t-23 384z" />
    <glyph glyph-name="Ocircumflex" unicode="&#xd4;" horiz-adv-x="1690" 
d="M540 712q-40 -223 52 -347.5t288 -124.5q197 0 338.5 125.5t181.5 346.5q18 105 -2 194t-71 149t-127 93.5t-168 33.5q-185 0 -320 -128t-172 -342zM234 712q37 206 162 374.5t310 264t392 95.5q154 0 281 -56.5t207 -153.5t112.5 -233.5t5.5 -290.5
q-39 -218 -159.5 -384t-303.5 -257t-401 -91q-219 0 -370 91t-213 257t-23 384zM1152 1750l-144 -102h-232l284 300h256l176 -300h-232q-108 98 -108 102z" />
    <glyph glyph-name="Otilde" unicode="&#xd5;" horiz-adv-x="1690" 
d="M950 1648h-188q25 144 100.5 232t173.5 88q39 0 81 -14.5t74 -35.5t59 -42t42 -36l14 -14q20 0 38 33.5t28 88.5h188q-26 -144 -100.5 -232t-171.5 -88q-38 0 -73 14.5t-60 35.5t-47.5 42t-46 35.5t-45.5 14.5q-20 0 -38 -33.5t-28 -88.5zM540 712q-40 -223 52 -347.5
t288 -124.5q197 0 338.5 125.5t181.5 346.5q18 105 -2 194t-71 149t-127 93.5t-168 33.5q-185 0 -320 -128t-172 -342zM234 712q37 206 162 374.5t310 264t392 95.5q154 0 281 -56.5t207 -153.5t112.5 -233.5t5.5 -290.5q-39 -218 -159.5 -384t-303.5 -257t-401 -91
q-219 0 -370 91t-213 257t-23 384z" />
    <glyph glyph-name="Odieresis" unicode="&#xd6;" horiz-adv-x="1690" 
d="M1168 1648l50 278h276l-50 -278h-276zM824 1648l50 278h276l-50 -278h-276zM540 712q-40 -223 52 -347.5t288 -124.5q197 0 338.5 125.5t181.5 346.5q18 105 -2 194t-71 149t-127 93.5t-168 33.5q-185 0 -320 -128t-172 -342zM234 712q37 206 162 374.5t310 264t392 95.5
q154 0 281 -56.5t207 -153.5t112.5 -233.5t5.5 -290.5q-39 -218 -159.5 -384t-303.5 -257t-401 -91q-219 0 -370 91t-213 257t-23 384z" />
    <glyph glyph-name="Oslash" unicode="&#xd8;" horiz-adv-x="1690" 
d="M540 712q-32 -181 24 -302l728 680q-101 92 -260 92q-185 0 -320 -128t-172 -342zM234 712q37 206 162 374.5t310 264t392 95.5q256 0 422 -144l154 144h158l-238 -222q78 -99 107.5 -230.5t2.5 -281.5q-39 -218 -159.5 -384t-303.5 -257t-401 -91q-271 0 -432 136
l-146 -136h-158l228 214q-155 199 -98 518zM1360 1006l-730 -682q90 -84 250 -84q197 0 338.5 125.5t181.5 346.5q29 171 -40 294z" />
    <glyph glyph-name="Ugrave" unicode="&#xd9;" horiz-adv-x="1552" 
d="M408 1426h284l-146 -828q-32 -176 36.5 -266t233.5 -90t265.5 90t132.5 266l144 828h284l-156 -878q-50 -281 -231 -424.5t-485 -143.5q-306 0 -437 143.5t-81 424.5zM944 1628l-168 300h332l70 -300h-234z" />
    <glyph glyph-name="Uacute" unicode="&#xda;" horiz-adv-x="1552" 
d="M408 1426h284l-146 -828q-32 -176 36.5 -266t233.5 -90t265.5 90t132.5 266l144 828h284l-156 -878q-50 -281 -231 -424.5t-485 -143.5q-306 0 -437 143.5t-81 424.5zM944 1628l174 300h332l-272 -300h-234z" />
    <glyph glyph-name="Ucircumflex" unicode="&#xdb;" horiz-adv-x="1552" 
d="M1080 1730l-146 -102h-232l282 300h258l178 -300h-232q-108 98 -108 102zM408 1426h284l-146 -828q-32 -176 36.5 -266t233.5 -90t265.5 90t132.5 266l144 828h284l-156 -878q-50 -281 -231 -424.5t-485 -143.5q-306 0 -437 143.5t-81 424.5z" />
    <glyph glyph-name="Udieresis" unicode="&#xdc;" horiz-adv-x="1552" 
d="M408 1426h284l-146 -828q-32 -176 36.5 -266t233.5 -90t265.5 90t132.5 266l144 828h284l-156 -878q-50 -281 -231 -424.5t-485 -143.5q-306 0 -437 143.5t-81 424.5zM752 1628l48 278h276l-48 -278h-276zM1094 1628l48 278h276l-48 -278h-276z" />
    <glyph glyph-name="Yacute" unicode="&#xdd;" horiz-adv-x="1324" 
d="M826 100l-16 -90q0 -4 -2 -10h-142h-142l118 662h-2l-360 764h290l254 -538l440 538h290l-628 -762zM838 1648l176 300h332l-274 -300h-234z" />
    <glyph glyph-name="Thorn" unicode="&#xde;" horiz-adv-x="1310" 
d="M514 342l30 164h242q258 0 294 206q18 103 -44 155.5t-202 52.5h-218q-21 -122 -55.5 -314.5t-46.5 -263.5zM404 1326l16 90q0 4 2 10h142h142q-16 -88 -42 -238.5t-36 -205.5l28 158h230q274 0 395 -108t83 -320q-37 -211 -196 -318.5t-434 -107.5h-230q-8 -45 -20 -114
t-12 -72l-16 -90q0 -4 -2 -10h-142h-142q92 528 234 1326z" />
    <glyph glyph-name="agrave" unicode="&#xe0;" horiz-adv-x="1388" 
d="M188 522q44 245 202.5 393.5t375.5 148.5q153 0 266 -110q3 15 8 45t8 45h256l-184 -1044h-256q4 28 14 80q-150 -100 -304 -100q-218 0 -323.5 149t-62.5 393zM438 512q-50 -294 222 -294q97 0 183.5 81t112.5 223q25 142 -32.5 222t-155.5 80q-132 0 -217.5 -81
t-112.5 -231zM716 1268l-170 300h332l70 -300h-232z" />
    <glyph glyph-name="aacute" unicode="&#xe1;" horiz-adv-x="1388" 
d="M188 522q44 245 202.5 393.5t375.5 148.5q153 0 266 -110q3 15 8 45t8 45h256l-184 -1044h-256q4 28 14 80q-150 -100 -304 -100q-218 0 -323.5 149t-62.5 393zM438 512q-50 -294 222 -294q97 0 183.5 81t112.5 223q25 142 -32.5 222t-155.5 80q-132 0 -217.5 -81
t-112.5 -231zM716 1268l174 300h332l-274 -300h-232z" />
    <glyph glyph-name="acircumflex" unicode="&#xe2;" horiz-adv-x="1386" 
d="M850 1368l-144 -100h-232l282 300h256l178 -300h-232q-108 96 -108 100zM188 522q44 245 202.5 393.5t375.5 148.5q153 0 266 -110q3 15 8 45t8 45h256l-184 -1044h-256q4 28 14 80q-150 -100 -304 -100q-218 0 -323.5 149t-62.5 393zM438 512q-50 -294 222 -294
q97 0 183.5 81t112.5 223q25 142 -32.5 222t-155.5 80q-132 0 -217.5 -81t-112.5 -231z" />
    <glyph glyph-name="atilde" unicode="&#xe3;" horiz-adv-x="1386" 
d="M188 522q44 245 202.5 393.5t375.5 148.5q153 0 266 -110q3 15 8 45t8 45h256l-184 -1044h-256q4 28 14 80q-150 -100 -304 -100q-218 0 -323.5 149t-62.5 393zM438 512q-50 -294 222 -294q97 0 183.5 81t112.5 223q25 142 -32.5 222t-155.5 80q-132 0 -217.5 -81
t-112.5 -231zM648 1268h-188q26 144 100.5 232t171.5 88q48 0 88 -16t63.5 -36.5t56.5 -47.5t62 -42q37 2 51 46q6 18 15 76h188q-26 -144 -100.5 -232t-171.5 -88v0q-47 0 -89.5 22t-68.5 48t-57 48t-57 22q-20 0 -37.5 -33t-26.5 -87z" />
    <glyph glyph-name="adieresis" unicode="&#xe4;" horiz-adv-x="1386" 
d="M188 522q44 245 202.5 393.5t375.5 148.5q153 0 266 -110q3 15 8 45t8 45h256l-184 -1044h-256q4 28 14 80q-150 -100 -304 -100q-218 0 -323.5 149t-62.5 393zM438 512q-50 -294 222 -294q97 0 183.5 81t112.5 223q25 142 -32.5 222t-155.5 80q-132 0 -217.5 -81
t-112.5 -231zM460 1268l48 276h278l-48 -276h-278zM928 1268l48 276h276l-48 -276h-276z" />
    <glyph glyph-name="aring" unicode="&#xe5;" horiz-adv-x="1386" 
d="M188 522q44 245 202.5 393.5t375.5 148.5q153 0 266 -110q3 15 8 45t8 45h256l-184 -1044h-256q4 28 14 80q-150 -100 -304 -100q-218 0 -323.5 149t-62.5 393zM438 512q-50 -294 222 -294q97 0 183.5 81t112.5 223q25 142 -32.5 222t-155.5 80q-132 0 -217.5 -81
t-112.5 -231zM688 1438q13 81 67 125.5t137 44.5q82 0 120 -44.5t24 -125.5q-30 -170 -204 -170t-144 170zM814 1438q-9 -54 38 -54q49 0 58 54q10 52 -40 52q-46 0 -56 -52z" />
    <glyph glyph-name="ccedilla" unicode="&#xe7;" horiz-adv-x="1110" 
d="M1114 324l-46 -216q-44 -58 -136 -93t-210 -35q-77 0 -130 8l-46 -92q29 16 62 16q96 0 145 -58t33 -152q-18 -96 -93 -154t-181 -58q-130 0 -164 46l24 140q33 -38 65.5 -52t90.5 -14q44 0 75.5 25t38.5 67q6 39 -15 63.5t-63 24.5q-31 0 -55.5 -9.5t-32.5 -24.5l4 8
l-4 -8v0q-26 1 -42.5 12.5t-19.5 22.5l-4 11l100 200q-187 43 -271.5 173.5t-46.5 346.5q24 137 89 242t159.5 170t210 97.5t247.5 32.5q127 0 208 -36.5t110 -83.5l-42 -214q-17 13 -51 41t-45.5 36t-38.5 24.5t-48 21t-54 9t-75 4.5q-150 0 -257 -86.5t-137 -257.5
q-29 -167 49.5 -249.5t242.5 -82.5q46 0 81.5 5t71 19.5t57 26t68 39.5t76.5 44z" />
    <glyph glyph-name="egrave" unicode="&#xe8;" horiz-adv-x="1120" 
d="M472 558q-4 -12 -8 -36q-1 -6 -3 -17t-3 -17zM944 630q2 112 -42 173t-134 61q-94 0 -165 -58.5t-111 -175.5h452zM1122 328l-40 -196q-58 -69 -167 -110.5t-259 -41.5q-263 0 -389.5 135t-78.5 407t210.5 407t405.5 135q127 0 215 -42.5t131 -120t51.5 -186.5
t-23.5 -243h-254q12 56 14 82l-14 -82h-466q-13 -136 51 -204t187 -68q95 0 173.5 23t152.5 59.5t100 45.5zM724 1268l-170 300h332l70 -300h-232z" />
    <glyph glyph-name="eacute" unicode="&#xe9;" horiz-adv-x="1120" 
d="M472 558q-4 -12 -8 -36q-1 -6 -3 -17t-3 -17zM944 630q2 112 -42 173t-134 61q-94 0 -165 -58.5t-111 -175.5h452zM1122 328l-40 -196q-58 -69 -167 -110.5t-259 -41.5q-263 0 -389.5 135t-78.5 407t210.5 407t405.5 135q127 0 215 -42.5t131 -120t51.5 -186.5
t-23.5 -243h-254q12 56 14 82l-14 -82h-466q-13 -136 51 -204t187 -68q95 0 173.5 23t152.5 59.5t100 45.5zM724 1268l174 300h332l-274 -300h-232z" />
    <glyph glyph-name="ecircumflex" unicode="&#xea;" horiz-adv-x="1120" 
d="M472 558q-4 -12 -8 -36q-1 -6 -3 -17t-3 -17zM944 630q2 112 -42 173t-134 61q-94 0 -165 -58.5t-111 -175.5h452zM858 1368l-144 -100h-232l282 300h256l178 -300h-232q-108 96 -108 100zM1122 328l-40 -196q-58 -69 -167 -110.5t-259 -41.5q-263 0 -389.5 135
t-78.5 407t210.5 407t405.5 135q127 0 215 -42.5t131 -120t51.5 -186.5t-23.5 -243h-254q12 56 14 82l-14 -82h-466q-13 -136 51 -204t187 -68q95 0 173.5 23t152.5 59.5t100 45.5z" />
    <glyph glyph-name="edieresis" unicode="&#xeb;" horiz-adv-x="1120" 
d="M472 558q-4 -12 -8 -36q-1 -6 -3 -17t-3 -17zM944 630q2 112 -42 173t-134 61q-94 0 -165 -58.5t-111 -175.5h452zM1122 328l-40 -196q-58 -69 -167 -110.5t-259 -41.5q-263 0 -389.5 135t-78.5 407t210.5 407t405.5 135q127 0 215 -42.5t131 -120t51.5 -186.5
t-23.5 -243h-254q12 56 14 82l-14 -82h-466q-13 -136 51 -204t187 -68q95 0 173.5 23t152.5 59.5t100 45.5zM530 1268l48 276h276l-48 -276h-276zM874 1268l48 276h276l-48 -276h-276z" />
    <glyph glyph-name="igrave" unicode="&#xec;" horiz-adv-x="606" 
d="M210 0l184 1044h254l-184 -1044h-254zM444 1268l-170 300q318 -2 332 0q3 -4 20.5 -79t33.5 -148l16 -73h-232zM606 1568zM606 1568z" />
    <glyph glyph-name="iacute" unicode="&#xed;" horiz-adv-x="606" 
d="M210 0l184 1044h254l-184 -1044h-254zM444 1268l174 300q312 -2 332 0l-274 -300h-232zM950 1568zM950 1568z" />
    <glyph glyph-name="icircumflex" unicode="&#xee;" horiz-adv-x="606" 
d="M578 1368l-144 -100h-232l282 300h256l178 -300h-232q-108 96 -108 100zM210 0l184 1044h254l-184 -1044h-254z" />
    <glyph glyph-name="idieresis" unicode="&#xef;" horiz-adv-x="606" 
d="M210 0l184 1044h254l-184 -1044h-254zM188 1268l48 276h278l-48 -276h-278zM656 1268l48 276h276l-48 -276h-276z" />
    <glyph glyph-name="ntilde" unicode="&#xf1;" horiz-adv-x="1168" 
d="M782 0q92 444 112 634q5 57 -35.5 105.5t-114.5 48.5q-217 0 -244 -154l-112 -634h-254q128 731 184 1044h254q-2 -12 -22 -122q65 65 153.5 98.5t186.5 33.5q154 0 223.5 -108t34.5 -312l-112 -634h-254zM626 1268h-188q25 143 100 230t170 90h2q60 0 101.5 -23.5
t84.5 -62t82 -56.5q31 -1 43 25t22 88v3t0.5 3t0.5 3h188q-26 -144 -100 -232t-170 -88v2v-2q-47 0 -89.5 22t-68.5 48t-57 48t-57 22q-20 0 -37.5 -33t-26.5 -87z" />
    <glyph glyph-name="ograve" unicode="&#xf2;" horiz-adv-x="1242" 
d="M188 522q48 272 211 407t407 135q133 0 227 -39t143 -110t64.5 -171t-8.5 -222q-48 -272 -211 -407t-407 -135q-133 0 -227 39t-143 110t-64.5 171t8.5 222zM428 526q-27 -157 34.5 -243.5t191.5 -86.5q122 0 210.5 76.5t119.5 247.5q28 159 -27 245.5t-183 86.5
q-124 0 -219.5 -78t-126.5 -248zM726 1268l-170 300h332l70 -300h-232z" />
    <glyph glyph-name="oacute" unicode="&#xf3;" horiz-adv-x="1242" 
d="M188 522q48 272 211 407t407 135q133 0 227 -39t143 -110t64.5 -171t-8.5 -222q-48 -272 -211 -407t-407 -135q-133 0 -227 39t-143 110t-64.5 171t8.5 222zM428 526q-27 -157 34.5 -243.5t191.5 -86.5q122 0 210.5 76.5t119.5 247.5q28 159 -27 245.5t-183 86.5
q-124 0 -219.5 -78t-126.5 -248zM726 1268l174 300h332l-274 -300h-232z" />
    <glyph glyph-name="ocircumflex" unicode="&#xf4;" horiz-adv-x="1242" 
d="M860 1368l-144 -100h-232l282 300h256l178 -300h-232q-108 96 -108 100zM188 522q48 272 211 407t407 135q133 0 227 -39t143 -110t64.5 -171t-8.5 -222q-48 -272 -211 -407t-407 -135q-133 0 -227 39t-143 110t-64.5 171t8.5 222zM428 526q-27 -157 34.5 -243.5
t191.5 -86.5q122 0 210.5 76.5t119.5 247.5q28 159 -27 245.5t-183 86.5q-124 0 -219.5 -78t-126.5 -248z" />
    <glyph glyph-name="otilde" unicode="&#xf5;" horiz-adv-x="1242" 
d="M658 1268h-188q26 144 100.5 232t171.5 88q39 0 81 -14.5t74 -35.5t59 -42t42 -36l14 -14q20 0 38.5 33.5t27.5 88.5h188q-26 -143 -100 -231t-172 -89q-47 0 -89.5 22t-68.5 48t-57 48t-57 22q-20 0 -37.5 -33t-26.5 -87zM188 522q48 272 211 407t407 135q133 0 227 -39
t143 -110t64.5 -171t-8.5 -222q-48 -272 -211 -407t-407 -135q-133 0 -227 39t-143 110t-64.5 171t8.5 222zM428 526q-27 -157 34.5 -243.5t191.5 -86.5q122 0 210.5 76.5t119.5 247.5q28 159 -27 245.5t-183 86.5q-124 0 -219.5 -78t-126.5 -248z" />
    <glyph glyph-name="odieresis" unicode="&#xf6;" horiz-adv-x="1242" 
d="M188 522q48 272 211 407t407 135q133 0 227 -39t143 -110t64.5 -171t-8.5 -222q-48 -272 -211 -407t-407 -135q-133 0 -227 39t-143 110t-64.5 171t8.5 222zM428 526q-27 -157 34.5 -243.5t191.5 -86.5q122 0 210.5 76.5t119.5 247.5q28 159 -27 245.5t-183 86.5
q-124 0 -219.5 -78t-126.5 -248zM532 1268l48 276h276l-48 -276h-276zM876 1268l48 276h276l-48 -276h-276z" />
    <glyph glyph-name="oslash" unicode="&#xf8;" horiz-adv-x="1242" 
d="M976 726l-488 -472q61 -58 166 -58q122 0 210.5 76.5t119.5 247.5q21 127 -8 206zM188 522q48 272 211 407t407 135q206 0 316 -92l96 92h110l-154 -148q104 -140 58 -394q-48 -272 -211 -407t-407 -135q-206 0 -316 92l-96 -92h-110l154 148q-104 140 -58 394zM428 526
q-21 -125 16 -208l492 474q-57 60 -162 60q-124 0 -219.5 -78t-126.5 -248z" />
    <glyph glyph-name="ugrave" unicode="&#xf9;" horiz-adv-x="1182" 
d="M914 0h-128q8 40 20 114q-70 -64 -155 -99t-169 -35q-135 0 -204.5 48.5t-83 144t11.5 237.5q78 444 112 634h254l-112 -634q-17 -104 13.5 -152t130.5 -48q94 0 164.5 60.5t93.5 161.5q13 74 30 168.5t40 227.5t38 216h254q-38 -214 -83 -471.5t-67.5 -385.5t-29.5 -167
l-4 -20h-126zM694 1268l-168 300q22 0 57 -0.5t108.5 -1t121.5 0t45 1.5q3 1 20.5 -74t33.5 -150l16 -76h-234z" />
    <glyph glyph-name="uacute" unicode="&#xfa;" horiz-adv-x="1182" 
d="M694 1268l174 300q324 -4 332 0l-272 -300h-234zM1200 1568zM1200 1568zM914 0h-128q8 40 20 114q-70 -64 -155 -99t-169 -35q-135 0 -204.5 48.5t-83 144t11.5 237.5q78 444 112 634h254l-112 -634q-17 -104 13.5 -152t130.5 -48q94 0 164.5 60.5t93.5 161.5
q13 74 30 168.5t40 227.5t38 216h254q-38 -214 -83 -471.5t-67.5 -385.5t-29.5 -167l-4 -20h-126z" />
    <glyph glyph-name="ucircumflex" unicode="&#xfb;" horiz-adv-x="1182" 
d="M830 1368l-146 -100h-232l282 300h258l178 -300h-232q-108 96 -108 100zM914 0h-128q8 40 20 114q-70 -64 -155 -99t-169 -35q-135 0 -204.5 48.5t-83 144t11.5 237.5q78 444 112 634h254l-112 -634q-17 -104 13.5 -152t130.5 -48q94 0 164.5 60.5t93.5 161.5
q13 74 30 168.5t40 227.5t38 216h254q-38 -214 -83 -471.5t-67.5 -385.5t-29.5 -167l-4 -20h-126z" />
    <glyph glyph-name="udieresis" unicode="&#xfc;" horiz-adv-x="1182" 
d="M844 1268l48 276h276l-48 -276h-276zM502 1268l48 276h276l-48 -276h-276zM914 0h-128q8 40 20 114q-70 -64 -155 -99t-169 -35q-135 0 -204.5 48.5t-83 144t11.5 237.5q78 444 112 634h254l-112 -634q-17 -104 13.5 -152t130.5 -48q94 0 164.5 60.5t93.5 161.5
q13 74 30 168.5t40 227.5t38 216h254q-38 -214 -83 -471.5t-67.5 -385.5t-29.5 -167l-4 -20h-126z" />
    <glyph glyph-name="yacute" unicode="&#xfd;" horiz-adv-x="1040" 
d="M624 1268l174 300h332l-274 -300h-232zM198 1044h288l114 -662l314 662h288l-648 -1248q-65 -127 -167 -183.5t-269 -56.5q-18 0 -66 5t-87 10l-39 5l40 236q150 -36 190 -36q90 0 129.5 13.5t58.5 50.5l66 142z" />
    <glyph glyph-name="thorn" unicode="&#xfe;" horiz-adv-x="1268" 
d="M412 1524h128h126q-103 -587 -106 -606q137 146 354 146q198 0 292.5 -149t51.5 -393t-190.5 -393t-345.5 -149q-214 0 -302 144q-24 -137 -60 -341.5t-46 -260.5l-16 -90q0 -4 -2 -10h-126h-2h-126q254 1437 366 2078l2 14v2q0 1 1 4t1 4zM490 518q-29 -164 21.5 -246
t164.5 -82q111 0 195 91t111 241q27 149 -26 240.5t-164 91.5q-113 0 -192 -81t-108 -245q-2 -2 -2 -10z" />
    <glyph glyph-name="ydieresis" unicode="&#xff;" horiz-adv-x="1040" 
d="M774 1268l48 276h276l-48 -276h-276zM430 1268l48 276h276l-48 -276h-276zM198 1044h288l114 -662l314 662h288l-648 -1248q-65 -127 -167 -183.5t-269 -56.5q-18 0 -66 5t-87 10l-39 5l40 236q150 -36 190 -36q90 0 129.5 13.5t58.5 50.5l66 142z" />
    <glyph glyph-name="Amacron" unicode="&#x100;" 
d="M734 1648l32 178h108t208.5 0.5t234 0.5t89.5 -1l-32 -178h-640zM14 0l842 1426h10h280h20l324 -1426h-308l-58 258l-656 -2q-119 -207 -146 -256h-308zM594 474h482l-132 604q-347 -598 -350 -604z" />
    <glyph glyph-name="amacron" unicode="&#x101;" horiz-adv-x="1262" 
d="M512 1268l30 176h640q3 0 -4.5 -44t-16.5 -88l-9 -44h-640zM438 512q-50 -294 222 -294q97 0 183.5 81t112.5 223q25 142 -32.5 222t-155.5 80q-132 0 -217.5 -81t-112.5 -231zM188 522q44 245 202.5 393.5t375.5 148.5q153 0 266 -110q3 15 8 45t8 45h256l-184 -1044
h-256q4 28 14 80q-150 -100 -304 -100q-218 0 -323.5 149t-62.5 393z" />
    <glyph glyph-name="Abreve" unicode="&#x102;" 
d="M760 1926h188q-10 -53 29 -85.5t105 -34.5q71 -1 119 32t59 88h188q-24 -134 -133 -216t-263 -82q-155 0 -235.5 82.5t-56.5 215.5zM14 0l842 1426h10h280h20l324 -1426h-308l-58 258l-656 -2q-119 -207 -146 -256h-308zM594 474h482l-132 604q-347 -598 -350 -604z" />
    <glyph glyph-name="abreve" unicode="&#x103;" horiz-adv-x="1262" 
d="M536 1544h188q-9 -54 27.5 -87t108.5 -33q74 0 120.5 32.5t55.5 87.5h188q-24 -133 -132.5 -214.5t-263.5 -81.5t-235.5 81.5t-56.5 214.5zM438 512q-50 -294 222 -294q97 0 183.5 81t112.5 223q25 142 -32.5 222t-155.5 80q-132 0 -217.5 -81t-112.5 -231zM188 522
q44 245 202.5 393.5t375.5 148.5q153 0 266 -110q3 15 8 45t8 45h256l-184 -1044h-256q4 28 14 80q-150 -100 -304 -100q-218 0 -323.5 149t-62.5 393z" />
    <glyph glyph-name="Aogonek" unicode="&#x104;" 
d="M14 0l842 1426h10h280h20l324 -1426q-33 -16 -79.5 -71t-54.5 -101q-9 -46 29 -75t107 -29q110 0 136 26v-138q-19 -19 -68 -30.5t-110 -11.5q-127 0 -192.5 63.5t-47.5 170.5q19 81 146 196h-174l-58 258l-656 -2q-119 -207 -146 -256h-308zM594 474h482l-132 604
q-347 -598 -350 -604z" />
    <glyph glyph-name="aogonek" unicode="&#x105;" horiz-adv-x="1262" 
d="M438 512q-50 -294 222 -294q97 0 183.5 81t112.5 223q25 142 -32.5 222t-155.5 80q-132 0 -217.5 -81t-112.5 -231zM188 522q44 245 202.5 393.5t375.5 148.5q153 0 266 -110q3 15 8 45t8 45h256q-31 -176 -70.5 -400.5t-63 -356t-34.5 -199.5l-16 -88q-32 -16 -79 -69
t-55 -97q-8 -50 29.5 -80t106.5 -30q110 0 136 26v-138q-19 -19 -68 -30.5t-110 -11.5q-126 0 -190 65.5t-50 174.5q11 67 166 190h-142q4 28 14 80q-150 -100 -304 -100q-218 0 -323.5 149t-62.5 393z" />
    <glyph glyph-name="Cacute" unicode="&#x106;" horiz-adv-x="1430" 
d="M916 1648l176 300h332l-274 -300h-234zM1460 402l-46 -254q-53 -75 -193 -121.5t-317 -46.5q-178 0 -320.5 59t-229 158.5t-121.5 233t-9 281.5t108.5 281.5t204 234t284.5 159.5t341 59q167 0 291.5 -45.5t160.5 -120.5l-42 -226q-62 56 -188.5 108t-261.5 52
q-221 0 -388 -146.5t-204 -355.5q-24 -135 18 -248.5t146.5 -182.5t251.5 -69q159 0 282.5 48t231.5 142z" />
    <glyph glyph-name="cacute" unicode="&#x107;" horiz-adv-x="1106" 
d="M814 1268l174 300h332l-274 -300h-232zM1110 324l-46 -216q-44 -58 -136 -93t-210 -35q-143 0 -251 32.5t-179.5 98t-97.5 169.5t-2 242q24 137 89 242t159.5 170t210 97.5t247.5 32.5q127 0 208 -36.5t110 -83.5l-42 -214q-17 13 -51 41t-45.5 36t-38.5 24.5t-48 21
t-54 9t-75 4.5q-150 0 -257 -86.5t-137 -257.5q-29 -167 49.5 -249.5t242.5 -82.5q46 0 81.5 5t71 19.5t57 26t68 39.5t76.5 44z" />
    <glyph glyph-name="Ccircumflex" unicode="&#x108;" horiz-adv-x="1430" 
d="M1460 402l-46 -254q-53 -75 -193 -121.5t-317 -46.5q-178 0 -320.5 59t-229 158.5t-121.5 233t-9 281.5t108.5 281.5t204 234t284.5 159.5t341 59q167 0 291.5 -45.5t160.5 -120.5l-42 -226q-62 56 -188.5 108t-261.5 52q-221 0 -388 -146.5t-204 -355.5
q-24 -135 18 -248.5t146.5 -182.5t251.5 -69q159 0 282.5 48t231.5 142zM1052 1750l-146 -102h-232l284 300h258l176 -300h-232q-108 98 -108 102z" />
    <glyph glyph-name="Cdotaccent" unicode="&#x10a;" horiz-adv-x="1430" 
d="M894 1648l50 278h278l-50 -278h-278zM1460 402l-46 -254q-53 -75 -193 -121.5t-317 -46.5q-178 0 -320.5 59t-229 158.5t-121.5 233t-9 281.5t108.5 281.5t204 234t284.5 159.5t341 59q167 0 291.5 -45.5t160.5 -120.5l-42 -226q-62 56 -188.5 108t-261.5 52
q-221 0 -388 -146.5t-204 -355.5q-24 -135 18 -248.5t146.5 -182.5t251.5 -69q159 0 282.5 48t231.5 142z" />
    <glyph glyph-name="cdotaccent" unicode="&#x10b;" horiz-adv-x="1106" 
d="M792 1268l48 276h276l-48 -276h-276zM1110 324l-46 -216q-44 -58 -136 -93t-210 -35q-143 0 -251 32.5t-179.5 98t-97.5 169.5t-2 242q24 137 89 242t159.5 170t210 97.5t247.5 32.5q127 0 208 -36.5t110 -83.5l-42 -214q-17 13 -51 41t-45.5 36t-38.5 24.5t-48 21t-54 9
t-75 4.5q-150 0 -257 -86.5t-137 -257.5q-29 -167 49.5 -249.5t242.5 -82.5q46 0 81.5 5t71 19.5t57 26t68 39.5t76.5 44z" />
    <glyph glyph-name="Ccaron" unicode="&#x10c;" horiz-adv-x="1430" 
d="M1070 1848q17 0 53 25.5t63 50.5l28 26h232l-284 -300h-258l-176 300h232zM1460 402l-46 -254q-53 -75 -193 -121.5t-317 -46.5q-178 0 -320.5 59t-229 158.5t-121.5 233t-9 281.5t108.5 281.5t204 234t284.5 159.5t341 59q167 0 291.5 -45.5t160.5 -120.5l-42 -226
q-62 56 -188.5 108t-261.5 52q-221 0 -388 -146.5t-204 -355.5q-24 -135 18 -248.5t146.5 -182.5t251.5 -69q159 0 282.5 48t231.5 142z" />
    <glyph glyph-name="ccaron" unicode="&#x10d;" horiz-adv-x="1106" 
d="M964 1466q17 0 53 25t63 50l28 25h232l-282 -300h-256l-178 300h232zM1110 324l-46 -216q-44 -58 -136 -93t-210 -35q-143 0 -251 32.5t-179.5 98t-97.5 169.5t-2 242q24 137 89 242t159.5 170t210 97.5t247.5 32.5q127 0 208 -36.5t110 -83.5l-42 -214q-17 13 -51 41
t-45.5 36t-38.5 24.5t-48 21t-54 9t-75 4.5q-150 0 -257 -86.5t-137 -257.5q-29 -167 49.5 -249.5t242.5 -82.5q46 0 81.5 5t71 19.5t57 26t68 39.5t76.5 44z" />
    <glyph glyph-name="Dcaron" unicode="&#x10e;" horiz-adv-x="1594" 
d="M1000 1848q17 0 53 25.5t63 50.5l28 26h232l-284 -300h-256l-176 300h232zM170 0q100 572 252 1426h284h220q400 0 572 -180t110 -534q-65 -362 -279 -537t-595 -175h-280h-284zM492 220h260q236 0 371.5 121t180.5 371q43 244 -60 369t-348 125h-230
q-142 -810 -174 -986z" />
    <glyph glyph-name="dcaron" unicode="&#x10f;" horiz-adv-x="1298" 
d="M1528 1544h276l-142 -300h-188zM422 530q-26 -146 41 -233t189 -87q121 0 216 80t124 220l4 28q20 139 -46 219.5t-186 80.5q-124 0 -220.5 -81.5t-121.5 -226.5zM188 522q43 244 193.5 390.5t358.5 151.5q203 6 332 -98l98 558h254l-268 -1524h-254l14 76
q-169 -105 -368 -96q-206 8 -304.5 153.5t-55.5 388.5z" />
    <glyph glyph-name="Dcroat" unicode="&#x110;" horiz-adv-x="1594" 
d="M120 624l32 178h160q15 86 52 294.5t58 329.5h284h220q400 0 572 -180t110 -534q-65 -362 -279 -537t-595 -175h-280h-284q40 233 110 624h-160zM492 220h260q236 0 371.5 121t180.5 371q43 244 -60 369t-348 125h-230q-21 -129 -70 -404h220l-32 -178h-220
q-20 -109 -72 -404z" />
    <glyph glyph-name="dcroat" unicode="&#x111;" horiz-adv-x="1298" 
d="M764 1206l32 176h350l24 142h254l-24 -142h238l-32 -176h-238l-212 -1206h-254l14 76q-169 -105 -368 -96q-206 8 -304.5 153.5t-55.5 388.5q43 244 193.5 390.5t358.5 151.5q203 6 332 -98l42 240h-350zM422 530q-26 -146 41 -233t189 -87q121 0 216 80t124 220l4 28
q20 139 -46 219.5t-186 80.5q-124 0 -220.5 -81.5t-121.5 -226.5z" />
    <glyph glyph-name="Emacron" unicode="&#x112;" horiz-adv-x="1364" 
d="M670 1648l32 178h642l-32 -178h-642zM170 0q100 572 252 1426h282h2h778l-42 -232h-778q-36 -204 -66 -378h524l-38 -222h-526q-32 -196 -64 -362h808l-40 -232h-808h-2h-282z" />
    <glyph glyph-name="emacron" unicode="&#x113;" horiz-adv-x="1120" 
d="M520 1268l30 176h640l-30 -176h-640zM1122 328l-40 -196q-58 -69 -167 -110.5t-259 -41.5q-263 0 -389.5 135t-78.5 407t210.5 407t405.5 135q127 0 215 -42.5t131 -120t51.5 -186.5t-23.5 -243h-254q12 56 14 82l-14 -82h-466q-13 -136 51 -204t187 -68q95 0 173.5 23
t152.5 59.5t100 45.5zM944 630q2 112 -42 173t-134 61q-94 0 -165 -58.5t-111 -175.5h452zM472 558q-4 -12 -8 -36q-1 -6 -3 -17t-3 -17z" />
    <glyph glyph-name="Ebreve" unicode="&#x114;" horiz-adv-x="1364" 
d="M696 1926h188q-10 -54 27.5 -87t108.5 -33q70 0 118.5 33t59.5 87h188q-24 -134 -133 -216t-263 -82q-156 0 -237 82t-57 216zM170 0q100 572 252 1426h282h2h778l-42 -232h-778q-36 -204 -66 -378h524l-38 -222h-526q-32 -196 -64 -362h808l-40 -232h-808h-2h-282z" />
    <glyph glyph-name="ebreve" unicode="&#x115;" horiz-adv-x="1120" 
d="M544 1544h188q-9 -54 28.5 -87t107.5 -33t118.5 33t57.5 87h188q-24 -133 -132.5 -214.5t-263.5 -81.5t-235.5 81.5t-56.5 214.5zM1122 328l-40 -196q-58 -69 -167 -110.5t-259 -41.5q-263 0 -389.5 135t-78.5 407t210.5 407t405.5 135q127 0 215 -42.5t131 -120
t51.5 -186.5t-23.5 -243h-254q12 56 14 82l-14 -82h-466q-13 -136 51 -204t187 -68q95 0 173.5 23t152.5 59.5t100 45.5zM944 630q2 112 -42 173t-134 61q-94 0 -165 -58.5t-111 -175.5h452zM472 558q-4 -12 -8 -36q-1 -6 -3 -17t-3 -17z" />
    <glyph glyph-name="Edotaccent" unicode="&#x116;" horiz-adv-x="1364" 
d="M852 1648l50 278h278l-50 -278h-278zM170 0q100 572 252 1426h282h2h778l-42 -232h-778q-36 -204 -66 -378h524l-38 -222h-526q-32 -196 -64 -362h808l-40 -232h-808h-2h-282z" />
    <glyph glyph-name="edotaccent" unicode="&#x117;" horiz-adv-x="1120" 
d="M702 1268l48 276h276l-48 -276h-276zM1122 328l-40 -196q-58 -69 -167 -110.5t-259 -41.5q-263 0 -389.5 135t-78.5 407t210.5 407t405.5 135q127 0 215 -42.5t131 -120t51.5 -186.5t-23.5 -243h-254q12 56 14 82l-14 -82h-466q-13 -136 51 -204t187 -68q95 0 173.5 23
t152.5 59.5t100 45.5zM944 630q2 112 -42 173t-134 61q-94 0 -165 -58.5t-111 -175.5h452zM472 558q-4 -12 -8 -36q-1 -6 -3 -17t-3 -17z" />
    <glyph glyph-name="Eogonek" unicode="&#x118;" horiz-adv-x="1364" 
d="M170 0q100 572 252 1426h282h2h778l-42 -232h-778q-36 -204 -66 -378h524l-38 -222h-526q-32 -196 -64 -362h808l-40 -232h-510q-32 -16 -79 -69t-55 -97q-8 -50 29.5 -80t106.5 -30q110 0 136 26v-138q-19 -19 -68 -30.5t-110 -11.5q-127 0 -192.5 66t-47.5 174
q11 67 166 190h-184h-2h-282z" />
    <glyph glyph-name="eogonek" unicode="&#x119;" horiz-adv-x="1120" 
d="M912 20q-33 -16 -80.5 -72t-55.5 -104q-9 -54 28 -87t106 -33q110 0 136 26v-138q-19 -19 -68 -30.5t-110 -11.5q-127 0 -192.5 68.5t-45.5 181.5q11 61 130 166q-51 -6 -104 -6q-263 0 -389.5 135t-78.5 407t210.5 407t405.5 135q127 0 215 -42.5t131 -120t51.5 -186.5
t-23.5 -243h-254q12 56 14 82l-14 -82h-466q-13 -136 51 -204t187 -68q95 0 173.5 23t152.5 59.5t100 45.5l-40 -196q-57 -69 -170 -112zM944 630q2 112 -42 173t-134 61q-94 0 -165 -58.5t-111 -175.5h452zM472 558q-4 -12 -8 -36q-1 -6 -3 -17t-3 -17z" />
    <glyph glyph-name="Ecaron" unicode="&#x11a;" horiz-adv-x="1364" 
d="M1028 1848q17 0 53 25.5t63 50.5l28 26h232l-284 -300h-258l-176 300h232zM170 0q100 572 252 1426h282h2h778l-42 -232h-778q-36 -204 -66 -378h524l-38 -222h-526q-32 -196 -64 -362h808l-40 -232h-808h-2h-282z" />
    <glyph glyph-name="ecaron" unicode="&#x11b;" horiz-adv-x="1120" 
d="M874 1466q17 0 53 25t63 50l28 25h232l-282 -300h-256l-178 300h232zM1122 328l-40 -196q-58 -69 -167 -110.5t-259 -41.5q-263 0 -389.5 135t-78.5 407t210.5 407t405.5 135q127 0 215 -42.5t131 -120t51.5 -186.5t-23.5 -243h-254q12 56 14 82l-14 -82h-466
q-13 -136 51 -204t187 -68q95 0 173.5 23t152.5 59.5t100 45.5zM944 630q2 112 -42 173t-134 61q-94 0 -165 -58.5t-111 -175.5h452zM472 558q-4 -12 -8 -36q-1 -6 -3 -17t-3 -17z" />
    <glyph glyph-name="Gcircumflex" unicode="&#x11c;" horiz-adv-x="1604" 
d="M1232 716h406l-4 -24l-18 -104l-18 -102l-56 -318q-119 -86 -290 -137t-360 -51q-237 0 -402 91t-235 257t-31 384q59 330 313.5 532t612.5 202q180 0 330 -82t216 -216l-228 -188q-57 114 -155 184t-203 70q-222 0 -381.5 -138t-198.5 -364q-40 -225 71 -362.5
t333 -137.5q229 0 360 94l32 178h-128zM1204 1750l-144 -102h-232l284 300h256l176 -300h-232q-108 98 -108 102z" />
    <glyph glyph-name="Gbreve" unicode="&#x11e;" horiz-adv-x="1604" 
d="M892 1926h188q-10 -54 26.5 -87t107.5 -33q70 0 118.5 33t59.5 87h188q-24 -134 -133 -216t-263 -82q-155 0 -235.5 82.5t-56.5 215.5zM1232 716h406l-4 -24l-18 -104l-18 -102l-56 -318q-119 -86 -290 -137t-360 -51q-237 0 -402 91t-235 257t-31 384q59 330 313.5 532
t612.5 202q180 0 330 -82t216 -216l-228 -188q-57 114 -155 184t-203 70q-222 0 -381.5 -138t-198.5 -364q-40 -225 71 -362.5t333 -137.5q229 0 360 94l32 178h-128z" />
    <glyph glyph-name="gbreve" unicode="&#x11f;" horiz-adv-x="1278" 
d="M544 1544h188q-9 -54 28.5 -87t107.5 -33t118.5 33t57.5 87h188q-24 -133 -132.5 -214.5t-263.5 -81.5t-235.5 81.5t-56.5 214.5zM60 -366l66 280q135 -170 440 -170q131 0 214 73t104 197l12 66q-151 -83 -354 -80q-444 7 -354 522q25 143 75 248.5t121.5 168.5
t157 93.5t188.5 31.5q202 3 322 -98l14 78h126h128q0 -8 -2 -10l-172 -980q-45 -251 -203.5 -396.5t-412.5 -145.5q-182 0 -265.5 21.5t-204.5 100.5zM446 530q-54 -304 204 -304q115 0 204.5 76t117.5 208l4 28q20 138 -42 215t-178 77q-61 0 -107.5 -13.5t-88 -46
t-70.5 -92.5t-44 -148z" />
    <glyph glyph-name="Gdotaccent" unicode="&#x120;" horiz-adv-x="1604" 
d="M1048 1648l50 278h276l-50 -278h-276zM1232 716h406l-4 -24l-18 -104l-18 -102l-56 -318q-119 -86 -290 -137t-360 -51q-237 0 -402 91t-235 257t-31 384q59 330 313.5 532t612.5 202q180 0 330 -82t216 -216l-228 -188q-57 114 -155 184t-203 70q-222 0 -381.5 -138
t-198.5 -364q-40 -225 71 -362.5t333 -137.5q229 0 360 94l32 178h-128z" />
    <glyph glyph-name="gdotaccent" unicode="&#x121;" horiz-adv-x="1278" 
d="M702 1268l48 276h276l-48 -276h-276zM60 -366l66 280q135 -170 440 -170q131 0 214 73t104 197l12 66q-151 -83 -354 -80q-444 7 -354 522q25 143 75 248.5t121.5 168.5t157 93.5t188.5 31.5q202 3 322 -98l14 78h254l-174 -990q-45 -251 -203.5 -396.5t-412.5 -145.5
q-182 0 -265.5 21.5t-204.5 100.5zM446 530q-54 -304 204 -304q115 0 204.5 76t117.5 208l4 28q20 138 -42 215t-178 77q-61 0 -107.5 -13.5t-88 -46t-70.5 -92.5t-44 -148z" />
    <glyph glyph-name="Hcircumflex" unicode="&#x124;" horiz-adv-x="1660" 
d="M170 0q100 572 252 1426h284q-22 -122 -57.5 -324.5t-48.5 -275.5h750q13 73 48.5 275.5t57.5 324.5h284l-252 -1426h-284q38 221 104 594h-750l-104 -594h-284zM1136 1750l-144 -102h-232l284 300h256l176 -300h-232q-108 98 -108 102z" />
    <glyph glyph-name="Itilde" unicode="&#x128;" horiz-adv-x="634" 
d="M426 1648h-188q26 145 101.5 234t172.5 86q61 0 103.5 -24t85.5 -62.5t81 -55.5q25 -4 39.5 27t26.5 95h188q-26 -144 -100.5 -232t-171.5 -88v0q-38 0 -73 14.5t-60 35.5t-47.5 42t-46 35.5t-45.5 14.5q-20 0 -38 -33.5t-28 -88.5zM178 0q100 572 252 1426h284
l-252 -1426h-284z" />
    <glyph glyph-name="itilde" unicode="&#x129;" horiz-adv-x="606" 
d="M376 1268h-188q25 144 101 233t171 87q61 0 104 -25t85.5 -63t80.5 -54q26 -6 41 26t25 96h188q-26 -144 -100.5 -232t-171.5 -88v0q-47 0 -89.5 22t-68.5 48t-57 48t-57 22q-20 0 -37.5 -33t-26.5 -87zM210 0l184 1044h254l-184 -1044h-254z" />
    <glyph glyph-name="Imacron" unicode="&#x12a;" horiz-adv-x="634" 
d="M290 1648l32 178q640 4 640 0q6 -3 -2 -47.5t-19 -87.5l-11 -43h-640zM178 0q100 572 252 1426h284l-252 -1426h-284z" />
    <glyph glyph-name="imacron" unicode="&#x12b;" horiz-adv-x="606" 
d="M240 1268l30 176h49.5t115.5 0.5t158 0.5h151t122 -0.5t44 -0.5q8 -7 1 -46.5t-19 -84.5l-12 -45h-640zM210 0l184 1044h254l-184 -1044h-254z" />
    <glyph glyph-name="Ibreve" unicode="&#x12c;" horiz-adv-x="634" 
d="M316 1926h188q-10 -53 27 -85t107 -35q77 -4 122 29t56 91h188q-24 -134 -133 -216t-263 -82q-155 0 -235.5 82.5t-56.5 215.5zM178 0q100 572 252 1426h284l-252 -1426h-284z" />
    <glyph glyph-name="ibreve" unicode="&#x12d;" horiz-adv-x="606" 
d="M264 1544h188q-9 -53 29 -85.5t107 -34.5q156 -3 176 120h188q-24 -133 -132.5 -214.5t-263.5 -81.5t-235.5 81.5t-56.5 214.5zM210 0l184 1044h254l-184 -1044h-254z" />
    <glyph glyph-name="Idotaccent" unicode="&#x130;" horiz-adv-x="634" 
d="M472 1648l50 278h276l-50 -278h-276zM178 0q100 572 252 1426h284l-252 -1426h-284z" />
    <glyph glyph-name="dotlessi" unicode="&#x131;" horiz-adv-x="606" 
d="M210 0l184 1044h254l-184 -1044h-254z" />
    <glyph glyph-name="Jcircumflex" unicode="&#x134;" horiz-adv-x="1082" 
d="M184 134l14 82l20 98q56 -43 109 -57.5t171 -14.5q83 0 135.5 47.5t66.5 128.5q70 405 178 1008h284l-178 -1008q-35 -201 -173.5 -319.5t-358.5 -118.5q-122 0 -181 13t-101 49zM1076 1750l-144 -102h-232l284 300h256l176 -300h-232q-108 98 -108 102z" />
    <glyph glyph-name="Lacute" unicode="&#x139;" horiz-adv-x="1232" 
d="M494 1648l176 300h332l-276 -300h-232zM178 0q100 572 252 1426h284q-198 -1115 -212 -1194h708l-20 -116q3 17 10 58t10 58l-20 -116l-20 -116h-708h-2h-282z" />
    <glyph glyph-name="lacute" unicode="&#x13a;" horiz-adv-x="526" 
d="M364 1634l176 300h332l-274 -300h-234zM130 0q188 1067 268 1524h254l-268 -1524h-254z" />
    <glyph glyph-name="Lcaron" unicode="&#x13d;" horiz-adv-x="1232" 
d="M930 1446h278l-142 -300h-188zM178 0q100 572 252 1426h284q-198 -1115 -212 -1194h708l-20 -116q3 17 10 58t10 58l-20 -116l-20 -116h-708h-2h-282z" />
    <glyph glyph-name="lcaron" unicode="&#x13e;" horiz-adv-x="526" 
d="M756 1544h276l-142 -300h-188zM130 0q188 1067 268 1524h254l-268 -1524h-254z" />
    <glyph glyph-name="Lslash" unicode="&#x141;" horiz-adv-x="1232" 
d="M110 518l32 190l168 40q63 365 120 678h284q-15 -84 -52.5 -295t-55.5 -311l370 88l-34 -190l-370 -88q-11 -65 -70 -398h708l-20 -116q3 17 10 58t10 58l-20 -116l-20 -116h-708h-2h-282q36 207 98 558z" />
    <glyph glyph-name="lslash" unicode="&#x142;" horiz-adv-x="526" 
d="M70 568l34 188l168 56q27 150 71 399t55 313h254q-6 -36 -45.5 -261.5t-64.5 -362.5l170 56l-32 -188l-170 -56l-126 -712h-254q50 287 110 624z" />
    <glyph glyph-name="Nacute" unicode="&#x143;" horiz-adv-x="1606" 
d="M776 1648l176 300h332q5 0 -64 -75t-140 -150l-72 -75h-232zM1402 1426h284l-252 -1426h-82h-202h-118l-410 956q-12 -72 -168 -956h-284q38 214 126 713t126 713h284h38l466 -1092z" />
    <glyph glyph-name="nacute" unicode="&#x144;" horiz-adv-x="1168" 
d="M692 1268l174 300h332q1 -2 -67 -77t-137 -149l-68 -74h-234zM782 0q92 444 112 634q5 57 -35.5 105.5t-114.5 48.5q-217 0 -244 -154l-112 -634h-254q128 731 184 1044h254q-2 -12 -22 -122q65 65 153.5 98.5t186.5 33.5q154 0 223.5 -108t34.5 -312l-112 -634h-254z
" />
    <glyph glyph-name="Ncaron" unicode="&#x147;" horiz-adv-x="1606" 
d="M1128 1848q17 0 53 25.5t63 50.5l28 26h232l-284 -300h-256l-176 300h232zM1402 1426h284l-252 -1426h-82h-202h-118l-410 956q-12 -72 -168 -956h-284q38 214 126 713t126 713h284h38l466 -1092z" />
    <glyph glyph-name="ncaron" unicode="&#x148;" horiz-adv-x="1168" 
d="M844 1466q17 0 53 25t63 50l28 25h232l-282 -300h-258l-178 300h232zM782 0q92 444 112 634q5 57 -35.5 105.5t-114.5 48.5q-217 0 -244 -154l-112 -634h-254q128 731 184 1044h254q-2 -12 -22 -122q65 65 153.5 98.5t186.5 33.5q154 0 223.5 -108t34.5 -312l-112 -634
h-254z" />
    <glyph glyph-name="Omacron" unicode="&#x14c;" horiz-adv-x="1690" 
d="M814 1648l32 178h640l-32 -178h-640zM540 712q-40 -223 52 -347.5t288 -124.5q197 0 338.5 125.5t181.5 346.5q18 105 -2 194t-71 149t-127 93.5t-168 33.5q-185 0 -320 -128t-172 -342zM234 712q37 206 162 374.5t310 264t392 95.5q154 0 281 -56.5t207 -153.5
t112.5 -233.5t5.5 -290.5q-39 -218 -159.5 -384t-303.5 -257t-401 -91q-219 0 -370 91t-213 257t-23 384z" />
    <glyph glyph-name="omacron" unicode="&#x14d;" horiz-adv-x="1242" 
d="M522 1268l30 176h640l-30 -176h-640zM428 526q-27 -157 34.5 -243.5t191.5 -86.5q122 0 210.5 76.5t119.5 247.5q28 159 -27 245.5t-183 86.5q-124 0 -219.5 -78t-126.5 -248zM188 522q48 272 211 407t407 135q133 0 227 -39t143 -110t64.5 -171t-8.5 -222
q-48 -272 -211 -407t-407 -135q-133 0 -227 39t-143 110t-64.5 171t8.5 222z" />
    <glyph glyph-name="Obreve" unicode="&#x14e;" horiz-adv-x="1690" 
d="M840 1926h188q-10 -54 26.5 -87t107.5 -33q70 0 118.5 33t59.5 87h188q-24 -134 -133 -216t-263 -82q-155 0 -235.5 82.5t-56.5 215.5zM540 712q-40 -223 52 -347.5t288 -124.5q197 0 338.5 125.5t181.5 346.5q18 105 -2 194t-71 149t-127 93.5t-168 33.5
q-185 0 -320 -128t-172 -342zM234 712q37 206 162 374.5t310 264t392 95.5q154 0 281 -56.5t207 -153.5t112.5 -233.5t5.5 -290.5q-39 -218 -159.5 -384t-303.5 -257t-401 -91q-219 0 -370 91t-213 257t-23 384z" />
    <glyph glyph-name="obreve" unicode="&#x14f;" horiz-adv-x="1242" 
d="M546 1544h188q-9 -54 28.5 -87t107.5 -33t118.5 33t57.5 87h188q-24 -133 -132.5 -214.5t-263.5 -81.5t-235.5 81.5t-56.5 214.5zM428 526q-27 -157 34.5 -243.5t191.5 -86.5q122 0 210.5 76.5t119.5 247.5q28 159 -27 245.5t-183 86.5q-124 0 -219.5 -78t-126.5 -248z
M188 522q48 272 211 407t407 135q133 0 227 -39t143 -110t64.5 -171t-8.5 -222q-48 -272 -211 -407t-407 -135q-133 0 -227 39t-143 110t-64.5 171t8.5 222z" />
    <glyph glyph-name="Racute" unicode="&#x154;" horiz-adv-x="1310" 
d="M878 1648l176 300h332l-276 -300h-232zM170 0l252 1426h70h214h230q274 0 395 -108t83 -320q-48 -283 -324 -374l254 -624h-326l-236 580h-226l-102 -580h-284zM596 800h238q104 -6 174 46.5t88 149.5q18 104 -37 158.5t-175 51.5q-66 -2 -218 -2z" />
    <glyph glyph-name="racute" unicode="&#x155;" horiz-adv-x="902" 
d="M610 1268l174 300h332l-274 -300h-232zM996 776q-7 7 -21 17t-56.5 26.5t-86.5 16.5q-156 -1 -234 -73.5t-102 -208.5l-98 -554h-254q128 731 184 1044h254q-2 -10 -7 -37.5t-7 -44.5q120 102 298 102q60 0 99 -15.5t71 -50.5z" />
    <glyph glyph-name="Rcaron" unicode="&#x158;" horiz-adv-x="1310" 
d="M1030 1848q17 0 53 25.5t63 50.5l28 26h232l-284 -300h-256l-176 300h232zM170 0l252 1426h70h214h230q274 0 395 -108t83 -320q-48 -283 -324 -374l254 -624h-326l-236 580h-226l-102 -580h-284zM596 800h238q104 -6 174 46.5t88 149.5q18 104 -37 158.5t-175 51.5
q-66 -2 -218 -2z" />
    <glyph glyph-name="rcaron" unicode="&#x159;" horiz-adv-x="902" 
d="M760 1466q17 0 53 25t63 50l28 25h232l-282 -300h-256l-178 300h232zM996 776q-7 7 -21 17t-56.5 26.5t-86.5 16.5q-156 -1 -234 -73.5t-102 -208.5l-98 -554h-254q128 731 184 1044h254q-2 -10 -7 -37.5t-7 -44.5q120 102 298 102q60 0 99 -15.5t71 -50.5z" />
    <glyph glyph-name="Sacute" unicode="&#x15a;" horiz-adv-x="1316" 
d="M780 1648l176 300h332l-274 -300h-234zM130 150l38 374q51 -137 195.5 -216.5t336.5 -79.5q137 0 220 44t86 128q3 76 -74 123.5t-240 66.5q-251 30 -372 146t-90 300q33 183 205 296.5t407 113.5q168 0 303 -41.5t193 -112.5l-40 -300q-73 93 -209.5 147.5t-290.5 54.5
q-56 0 -96 -4.5t-77 -17.5t-59.5 -39t-31.5 -65q-11 -47 3.5 -80.5t55.5 -55t94 -34t133 -22.5q265 -32 396.5 -159t97.5 -323q-33 -190 -210 -302t-448 -112q-198 0 -337 49t-189 121z" />
    <glyph glyph-name="sacute" unicode="&#x15b;" horiz-adv-x="1038" 
d="M614 1268l174 300h332l-274 -300h-232zM136 134l30 268q26 -91 136 -151.5t258 -60.5q79 0 138 27.5t68 76.5q12 61 -37 86.5t-159 37.5q-195 21 -293 107t-75 213q25 141 163.5 228.5t326.5 87.5q136 0 234 -34t116 -84l4 -234q-25 70 -138.5 117t-249.5 47
q-198 0 -210 -106q-7 -55 46.5 -77.5t177.5 -36.5q205 -22 295 -104.5t67 -213.5q-27 -149 -172.5 -243.5t-337.5 -94.5q-154 0 -262 41t-126 103z" />
    <glyph glyph-name="Scircumflex" unicode="&#x15c;" horiz-adv-x="1316" 
d="M916 1750l-146 -102h-232l284 300h258l176 -300h-232q-108 98 -108 102zM130 150l38 374q51 -137 195.5 -216.5t336.5 -79.5q137 0 220 44t86 128q3 76 -74 123.5t-240 66.5q-251 30 -372 146t-90 300q33 183 205 296.5t407 113.5q168 0 303 -41.5t193 -112.5l-40 -300
q-73 93 -209.5 147.5t-290.5 54.5q-56 0 -96 -4.5t-77 -17.5t-59.5 -39t-31.5 -65q-11 -47 3.5 -80.5t55.5 -55t94 -34t133 -22.5q265 -32 396.5 -159t97.5 -323q-33 -190 -210 -302t-448 -112q-198 0 -337 49t-189 121z" />
    <glyph glyph-name="Scedilla" unicode="&#x15e;" horiz-adv-x="1316" 
d="M130 150l38 374q51 -137 195.5 -216.5t336.5 -79.5q142 0 219.5 36.5t78.5 121.5q2 80 -72.5 132.5t-233.5 71.5q-251 30 -372 146t-90 300q33 183 205 296.5t407 113.5q168 0 303 -41.5t193 -112.5l-40 -300q-73 93 -209.5 147.5t-290.5 54.5q-60 0 -96.5 -3
t-75.5 -14.5t-60.5 -36t-29.5 -64.5q-18 -93 53 -136.5t231 -63.5q265 -32 396.5 -159t97.5 -323q-33 -188 -209 -300.5t-445 -113.5l-38 -90q31 22 72 22q96 0 145 -58t33 -152q-18 -96 -93 -154t-181 -58q-130 0 -164 46l24 140q33 -38 65.5 -52t90.5 -14q44 0 75.5 25
t38.5 67q6 39 -15 63.5t-63 24.5q-71 0 -88 -34q12 22 20 46l-20 -46q-26 1 -42.5 12.5t-19.5 22.5l-4 11l78 180q-166 10 -282.5 57t-161.5 111z" />
    <glyph glyph-name="scedilla" unicode="&#x15f;" horiz-adv-x="1038" 
d="M136 134l30 268q26 -91 136 -151.5t258 -60.5q80 0 141.5 27t62.5 73q3 62 -43.5 89.5t-150.5 38.5q-195 21 -293 107t-75 213q25 141 163.5 228.5t326.5 87.5q136 0 234 -34t116 -84l4 -234q-25 70 -138.5 117t-249.5 47q-47 0 -77.5 -2.5t-65 -12t-53 -31.5t-20.5 -56
q-4 -57 51.5 -80.5t178.5 -37.5q205 -22 295 -104.5t67 -213.5q-27 -148 -168.5 -241.5t-329.5 -96.5l-46 -98q33 20 70 20q96 0 145 -58t33 -152q-18 -96 -93 -154t-181 -58q-130 0 -164 46l24 140q33 -38 65.5 -52t90.5 -14q44 0 75.5 25t38.5 67q6 39 -15 63.5t-63 24.5
q-71 0 -88 -34q8 16 16 36l-16 -36q-26 1 -42.5 12.5t-19.5 22.5l-4 11l86 190q-126 10 -210.5 49t-101.5 93z" />
    <glyph glyph-name="Scaron" unicode="&#x160;" horiz-adv-x="1316" 
d="M934 1848q17 0 53 25.5t63 50.5l28 26h232l-284 -300h-258l-176 300h232zM130 150l38 374q51 -137 195.5 -216.5t336.5 -79.5q137 0 220 44t86 128q3 76 -74 123.5t-240 66.5q-251 30 -372 146t-90 300q33 183 205 296.5t407 113.5q168 0 303 -41.5t193 -112.5l-40 -300
q-73 93 -209.5 147.5t-290.5 54.5q-56 0 -96 -4.5t-77 -17.5t-59.5 -39t-31.5 -65q-11 -47 3.5 -80.5t55.5 -55t94 -34t133 -22.5q265 -32 396.5 -159t97.5 -323q-33 -190 -210 -302t-448 -112q-198 0 -337 49t-189 121z" />
    <glyph glyph-name="scaron" unicode="&#x161;" horiz-adv-x="1038" 
d="M764 1466q17 0 53 25t63 50l28 25h232l-282 -300h-256l-178 300h232zM136 134l30 268q26 -91 136 -151.5t258 -60.5q79 0 138 27.5t68 76.5q12 61 -37 86.5t-159 37.5q-195 21 -293 107t-75 213q25 141 163.5 228.5t326.5 87.5q136 0 234 -34t116 -84l4 -234
q-25 70 -138.5 117t-249.5 47q-198 0 -210 -106q-7 -55 46.5 -77.5t177.5 -36.5q205 -22 295 -104.5t67 -213.5q-27 -149 -172.5 -243.5t-337.5 -94.5q-154 0 -262 41t-126 103z" />
    <glyph glyph-name="Tcaron" unicode="&#x164;" horiz-adv-x="1252" 
d="M952 1848q17 0 53 25.5t63 50.5l28 26h232l-284 -300h-256l-176 300h232zM694 1194h-462l42 232h462h284h462l-42 -232h-462l-210 -1194h-284q82 469 210 1194zM232 1194l20 116q-3 -17 -10 -58t-10 -58z" />
    <glyph glyph-name="tcaron" unicode="&#x165;" horiz-adv-x="868" 
d="M822 1544h276l-142 -300h-188zM990 1038l-40 -222h-356q-19 -107 -82 -462q-13 -76 27 -115t151 -39q72 0 152 34l-38 -212q-110 -42 -220 -42q-209 0 -284 93.5t-42 280.5q63 355 82 462h-158l40 222h158l60 342l280 148q-32 -183 -88 -490h358z" />
    <glyph glyph-name="Utilde" unicode="&#x168;" horiz-adv-x="1552" 
d="M878 1628h-188q24 143 99 231.5t171 88.5l-8 -98q6 46 8.5 72t-0.5 26q39 0 81 -14.5t74 -35.5t59 -42t42 -36l14 -14q20 0 38 33.5t28 88.5h188q-26 -144 -100 -232t-170 -88l16 198q-1 -13 -3 -31t-7 -68t-6 -68t0 -31q-38 0 -73 14.5t-60 35.5t-47.5 42t-46 35.5
t-45.5 14.5q-20 0 -37.5 -33.5t-26.5 -88.5zM408 1426h284l-146 -828q-32 -176 36.5 -266t233.5 -90t265.5 90t132.5 266l144 828h284l-156 -878q-50 -281 -231 -424.5t-485 -143.5q-306 0 -437 143.5t-81 424.5z" />
    <glyph glyph-name="utilde" unicode="&#x169;" horiz-adv-x="1182" 
d="M628 1268h-188q25 143 101 232.5t169 87.5v0q47 0 86.5 -17t62.5 -38.5t56.5 -47.5t64.5 -39q29 -5 42 25t24 97h188q-26 -144 -100 -232t-170 -88v2v-2q-47 0 -89.5 22t-68.5 48t-57 48t-57 22q-20 0 -37.5 -33t-26.5 -87zM914 0h-128q8 40 20 114q-70 -64 -155 -99
t-169 -35q-135 0 -204.5 48.5t-83 144t11.5 237.5q78 444 112 634h254l-112 -634q-17 -104 13.5 -152t130.5 -48q94 0 164.5 60.5t93.5 161.5q13 74 30 168.5t40 227.5t38 216h254q-38 -214 -83 -471.5t-67.5 -385.5t-29.5 -167l-4 -20h-126z" />
    <glyph glyph-name="Umacron" unicode="&#x16a;" horiz-adv-x="1552" 
d="M740 1628l30 178h642l-30 -178h-642zM408 1426h284l-146 -828q-32 -176 36.5 -266t233.5 -90t265.5 90t132.5 266l144 828h284l-156 -878q-50 -281 -231 -424.5t-485 -143.5q-306 0 -437 143.5t-81 424.5z" />
    <glyph glyph-name="umacron" unicode="&#x16b;" horiz-adv-x="1182" 
d="M490 1268l30 176h108t208.5 0.5t234.5 0.5t91 -1q4 -2 -3.5 -46t-16.5 -87l-10 -43h-642zM914 0h-128q8 40 20 114q-70 -64 -155 -99t-169 -35q-135 0 -204.5 48.5t-83 144t11.5 237.5q78 444 112 634h254l-112 -634q-17 -104 13.5 -152t130.5 -48q94 0 164.5 60.5
t93.5 161.5q13 74 30 168.5t40 227.5t38 216h254q-38 -214 -83 -471.5t-67.5 -385.5t-29.5 -167l-4 -20h-126z" />
    <glyph glyph-name="Ubreve" unicode="&#x16c;" horiz-adv-x="1552" 
d="M764 1906h188q-9 -54 28.5 -87t107.5 -33q71 0 120 33t58 87h188q-24 -134 -133 -216t-263 -82q-156 0 -237 82t-57 216zM408 1426h284l-146 -828q-32 -176 36.5 -266t233.5 -90t265.5 90t132.5 266l144 828h284l-156 -878q-50 -281 -231 -424.5t-485 -143.5
q-306 0 -437 143.5t-81 424.5z" />
    <glyph glyph-name="ubreve" unicode="&#x16d;" horiz-adv-x="1182" 
d="M514 1544h188q-9 -53 30 -85.5t108 -34.5q74 -3 120.5 30.5t55.5 89.5h188q-24 -133 -132.5 -214.5t-263.5 -81.5q-156 0 -237 81.5t-57 214.5zM914 0h-128q8 40 20 114q-70 -64 -155 -99t-169 -35q-135 0 -204.5 48.5t-83 144t11.5 237.5q78 444 112 634h254l-112 -634
q-17 -104 13.5 -152t130.5 -48q94 0 164.5 60.5t93.5 161.5q13 74 30 168.5t40 227.5t38 216h254q-38 -214 -83 -471.5t-67.5 -385.5t-29.5 -167l-4 -20h-126z" />
    <glyph glyph-name="Uring" unicode="&#x16e;" horiz-adv-x="1552" 
d="M1044 1800q-9 -54 38 -54t56 54q4 24 -6.5 38t-31.5 14q-46 0 -56 -52zM916 1800q13 79 68 123.5t138 44.5q82 0 120 -44t24 -124q-30 -172 -204 -172q-176 0 -146 172zM408 1426h284l-146 -828q-32 -176 36.5 -266t233.5 -90t265.5 90t132.5 266l144 828h284l-156 -878
q-50 -281 -231 -424.5t-485 -143.5q-306 0 -437 143.5t-81 424.5z" />
    <glyph glyph-name="uring" unicode="&#x16f;" horiz-adv-x="1182" 
d="M794 1438q-9 -54 38 -54t56 54q5 25 -3 37t-35 15q-18 2 -35 -13t-21 -39zM666 1438q13 81 68 125.5t138 44.5q82 0 120 -44.5t24 -125.5q-30 -170 -204 -170q-176 0 -146 170zM914 0h-128q8 40 20 114q-70 -64 -155 -99t-169 -35q-135 0 -204.5 48.5t-83 144t11.5 237.5
q78 444 112 634h254l-112 -634q-17 -104 13.5 -152t130.5 -48q94 0 164.5 60.5t93.5 161.5q13 74 30 168.5t40 227.5t38 216h254q-38 -214 -83 -471.5t-67.5 -385.5t-29.5 -167l-4 -20h-126z" />
    <glyph glyph-name="Wcircumflex" unicode="&#x174;" horiz-adv-x="1738" 
d="M270 1426h306l20 -868l372 868h20h254h20l82 -856l320 856h304l-516 -1426h-52h-268h-22l-80 946l-420 -946h-252h-56zM1176 1750l-146 -102h-232l284 300h258l176 -300h-232q-108 98 -108 102z" />
    <glyph glyph-name="Ycircumflex" unicode="&#x176;" horiz-adv-x="1324" 
d="M826 100l-16 -90q0 -4 -2 -10h-142h-142l118 662h-2l-360 764h290l254 -538l440 538h290l-628 -762zM974 1750l-146 -102h-232l284 300h258l176 -300h-232q-108 98 -108 102z" />
    <glyph glyph-name="Ydieresis" unicode="&#x178;" horiz-adv-x="1324" 
d="M988 1648l50 278h276l-50 -278h-276zM646 1648l50 278h276l-50 -278h-276zM826 100l-16 -90q0 -4 -2 -10h-142h-142l118 662h-2l-360 764h290l254 -538l440 538h290l-628 -762z" />
    <glyph glyph-name="Zacute" unicode="&#x179;" horiz-adv-x="1372" 
d="M874 1648l176 300h332l-274 -300h-234zM1300 116l-20 -116h-1188l40 232l992 962h-792l42 232h1158l-42 -232l-990 -962h820zM332 1194l20 116q-3 -17 -10 -58t-10 -58z" />
    <glyph glyph-name="zacute" unicode="&#x17a;" horiz-adv-x="982" 
d="M624 1268l174 300h332l-274 -300h-232zM276 1044h548h268l-28 -154l-654 -690h566l-18 -100l-18 -100h-602h-276l28 154l642 690h-492l18 100z" />
    <glyph glyph-name="Zdotaccent" unicode="&#x17b;" horiz-adv-x="1372" 
d="M852 1648l50 278h278l-50 -278h-278zM1300 116l-20 -116h-1188l40 232l992 962h-792l42 232h1158l-42 -232l-990 -962h820zM332 1194l20 116q-3 -17 -10 -58t-10 -58z" />
    <glyph glyph-name="zdotaccent" unicode="&#x17c;" horiz-adv-x="982" 
d="M602 1268l48 276h276l-48 -276h-276zM276 1044h548h268l-28 -154l-654 -690h566l-18 -100l-18 -100h-602h-276l28 154l642 690h-492l18 100z" />
    <glyph glyph-name="Zcaron" unicode="&#x17d;" horiz-adv-x="1372" 
d="M1028 1848q17 0 53 25.5t63 50.5l28 26h232l-284 -300h-258l-176 300h232zM1300 116l-20 -116h-1188l40 232l992 962h-792l42 232h1158l-42 -232l-990 -962h820zM332 1194l20 116q-3 -17 -10 -58t-10 -58z" />
    <glyph glyph-name="zcaron" unicode="&#x17e;" horiz-adv-x="982" 
d="M774 1466q17 0 53 25t63 50l28 25h232l-282 -300h-256l-178 300h232zM276 1044h548h268l-28 -154l-654 -690h566l-18 -100l-18 -100h-602h-276l28 154l642 690h-492l18 100z" />
    <glyph glyph-name="uni01EB" unicode="&#x1eb;" horiz-adv-x="1552" 
d="M494 586q-31 -175 59.5 -273.5t268.5 -98.5q43 0 82 6q-18 41 -51.5 119t-46.5 107l254 -30q-2 -5 48 -112q129 99 162 282q29 166 -67.5 269t-266.5 103q-168 0 -290 -102t-152 -270zM220 586q30 171 140 309.5t276 217.5t352 79t324 -79t200 -217.5t32 -309.5
q-28 -159 -115 -285t-219 -207l154 -316l-282 34q-38 84 -86 196q-109 -28 -222 -28q-298 0 -450 166.5t-104 439.5z" />
    <glyph glyph-name="uni0226" unicode="&#x226;" 
d="M916 1648l50 278h276l-50 -278h-276zM14 0l842 1426h10h280h20l324 -1426h-308l-58 258l-656 -2q-119 -207 -146 -256h-308zM594 474h482l-132 604q-347 -598 -350 -604z" />
    <glyph glyph-name="uni0262" unicode="&#x262;" horiz-adv-x="1468" 
d="M1146 572h330l-2 -14l-72 -416q-103 -75 -256 -118.5t-330 -43.5q-321 0 -487.5 166.5t-118.5 439.5t273.5 439.5t546.5 166.5q150 0 282 -83.5t200 -220.5l-206 -168q-59 119 -144.5 191.5t-167.5 72.5q-198 0 -338 -109.5t-172 -288.5t70 -288.5t300 -109.5
q215 0 324 78l18 96h-80z" />
    <glyph glyph-name="uni026A" unicode="&#x26a;" horiz-adv-x="620" 
d="M194 0q82 469 206 1172h254l-206 -1172h-254z" />
    <glyph glyph-name="uni0274" unicode="&#x274;" horiz-adv-x="1394" 
d="M1172 1172h256l-206 -1172h-74h-182h-94l-310 740q-22 -128 -66.5 -379t-63.5 -361h-256q31 176 103 586t103 586h256h20l362 -866z" />
    <glyph glyph-name="uni0280" unicode="&#x280;" horiz-adv-x="1172" 
d="M176 0l206 1172h64h192h142q261 0 378.5 -89t85.5 -263q-39 -231 -304 -304l258 -516h-292l-244 482h-6h-140l-84 -482h-256zM552 680h150q103 -6 171.5 31.5t80.5 106.5q14 75 -43 116t-175 38q-63 -3 -134 0z" />
    <glyph glyph-name="uni028F" unicode="&#x28f;" horiz-adv-x="1186" 
d="M742 100l-16 -90q0 -4 -2 -10h-126h-2h-126l118 662h-2l-350 510h282l228 -326l340 326h284l-528 -508z" />
    <glyph glyph-name="uni0299" unicode="&#x299;" horiz-adv-x="1334" 
d="M176 0q82 469 206 1172h476q242 -3 332 -78t60 -244q-12 -69 -59.5 -121.5t-124.5 -84.5q145 -19 212 -94.5t48 -185.5q-35 -197 -166.5 -280.5t-407.5 -83.5h-320h-256zM604 974q-7 -38 -22.5 -125t-23.5 -131l256 -6q97 -3 122 134q20 120 -102 126zM466 198l250 2
q147 -1 214 36t82 126q11 66 -55.5 107t-186.5 37h-163h-87q-9 -55 -19 -111.5t-20.5 -114t-14.5 -82.5z" />
    <glyph glyph-name="uni029C" unicode="&#x29c;" horiz-adv-x="1462" 
d="M176 0q82 469 206 1172h256q-26 -149 -88 -504h602q62 355 88 504h256l-206 -1172h-256q30 171 80 460h-602l-80 -460h-256z" />
    <glyph glyph-name="uni029F" unicode="&#x29f;" horiz-adv-x="1080" 
d="M194 0q82 469 206 1172h254q-85 -488 -170 -964h570q-3 -24 -18 -104l-18 -104h-570h-2h-252z" />
    <glyph glyph-name="circumflex" unicode="&#x2c6;" horiz-adv-x="756" 
d="M378 1368l-126 -100h-232l230 300h256l232 -300h-232q-128 96 -128 100z" />
    <glyph glyph-name="caron" unicode="&#x2c7;" horiz-adv-x="756" 
d="M378 1466q17 0 49 25t55 50l24 25h232l-232 -300h-256l-230 300h232z" />
    <glyph glyph-name="uni02C9" unicode="&#x2c9;" horiz-adv-x="756" 
d="M58 1268v176h640v-176h-640z" />
    <glyph glyph-name="breve" unicode="&#x2d8;" horiz-adv-x="756" 
d="M34 1544h188q0 -54 43 -87t113 -33q71 0 114.5 33t43.5 87h188q0 -133 -95 -214.5t-251 -81.5q-155 0 -249.5 81.5t-94.5 214.5z" />
    <glyph glyph-name="dotaccent" unicode="&#x2d9;" horiz-adv-x="756" 
d="M240 1268v276h276v-276h-276z" />
    <glyph glyph-name="ring" unicode="&#x2da;" horiz-adv-x="756" 
d="M330 1438q0 -54 48 -54t48 54q0 24 -13 38t-35 14t-35 -14t-13 -38zM204 1438q0 81 45.5 125.5t128.5 44.5t128.5 -44.5t45.5 -125.5q0 -170 -174 -170t-174 170z" />
    <glyph glyph-name="uni1D00" unicode="&#x1d00;" horiz-adv-x="1376" 
d="M24 0l736 1172h14h242h20l318 -1172h-268l-52 198l-630 -4q-83 -141 -112 -194h-268zM522 390h460l-138 516q-297 -475 -322 -516z" />
    <glyph glyph-name="uni1D04" unicode="&#x1d04;" horiz-adv-x="1302" 
d="M1324 378l-36 -222q-57 -79 -183.5 -127.5t-278.5 -48.5q-127 0 -235.5 31.5t-185.5 87.5t-127.5 131.5t-67.5 166.5t0 189q22 122 94 233t179.5 193.5t252.5 131t304 48.5q141 0 251 -48t149 -126l-40 -194q-63 58 -173 109t-223 51q-198 0 -344.5 -116.5t-175.5 -281.5
q-19 -107 20.5 -197.5t134 -145.5t225.5 -55q135 0 242.5 47t217.5 143z" />
    <glyph glyph-name="uni1D05" unicode="&#x1d05;" horiz-adv-x="1454" 
d="M176 0q82 469 206 1172h256q-29 -162 -67.5 -382.5t-63.5 -362t-41 -229.5h212q216 0 337 95t157 293q33 191 -65 288.5t-323 97.5q-27 0 -90 1t-90 1l34 198h170q366 0 527.5 -148.5t110.5 -437.5q-52 -298 -244.5 -442t-539.5 -144h-230h-256z" />
    <glyph glyph-name="uni1D07" unicode="&#x1d07;" horiz-adv-x="1204" 
d="M176 0q82 469 206 1172h254h2h640l-36 -208h-640q-46 -259 -50 -286h386l-34 -198h-388q-26 -154 -48 -272h670l-36 -208h-670h-2h-254z" />
    <glyph glyph-name="uni1D0A" unicode="&#x1d0a;" horiz-adv-x="938" 
d="M184 136l14 74l16 84q59 -49 94 -63.5t114 -14.5q62 0 100.5 34.5t47.5 93.5q60 333 146 828h256l-146 -828q-29 -168 -145 -266t-301 -98q-82 0 -123.5 14t-86.5 54z" />
    <glyph glyph-name="uni1D0B" unicode="&#x1d0b;" horiz-adv-x="1288" 
d="M176 0l206 1172h256l-88 -504l508 446q0 1 -9.5 -6.5t-34.5 -29.5l98 84q116 102 322 282l-310 -272h150h152q-24 -22 -68 -64l-40 -36q-199 -181 -390 -358l338 -714h-146h-148q168 -319 420 -794l-426 804l-16 28l3 -3q0 1 -3 7l-248 466q-19 -18 -95.5 -88.5
t-120.5 -109.5l-54 -310h-256zM1434 1444q120 104 440.5 386t483.5 424q-831 -729 -924 -810zM1014 1078q-60 -49 -88 -74zM950 38l-74 130q61 -111 74 -130zM670 478l-184 -168q134 121 184 168z" />
    <glyph glyph-name="uni1D0D" unicode="&#x1d0d;" horiz-adv-x="1730" 
d="M180 0l206 1172q92 -10 244 0v-4l142 4l202 -558l390 558l154 -2v2h246l-206 -1172h-246l164 930l-424 -530h-226h-2l-238 524l-162 -924h-244z" />
    <glyph glyph-name="uni1D0F" unicode="&#x1d0f;" horiz-adv-x="1552" 
d="M494 586q-31 -176 54.5 -273t261.5 -97q178 0 303.5 97.5t156.5 272.5q29 165 -71.5 265.5t-272.5 100.5q-167 0 -284.5 -98.5t-147.5 -267.5zM220 586q30 171 140 309.5t276 217.5t352 79t324 -79t200 -217.5t32 -309.5q-48 -273 -259.5 -439.5t-510.5 -166.5
q-298 0 -450 166.5t-104 439.5z" />
    <glyph glyph-name="uni1D18" unicode="&#x1d18;" horiz-adv-x="1172" 
d="M176 0l206 1172h64h192h142q261 0 378.5 -89t85.5 -263q-32 -182 -180.5 -275t-409.5 -93h-142l-80 -452h-256zM546 650h152q231 6 260 168q27 148 -222 154q-40 2 -132 2z" />
    <glyph glyph-name="uni1D1B" unicode="&#x1d1b;" horiz-adv-x="1114" 
d="M600 964h-408l36 208h408h254h408l-36 -208h-408l-170 -964h-254q66 379 170 964z" />
    <glyph glyph-name="uni1D1C" unicode="&#x1d1c;" horiz-adv-x="1386" 
d="M368 1172h256l-118 -678q-25 -138 32 -208t194 -70q273 0 324 278l118 678h256l-126 -722q-42 -233 -197 -351.5t-417 -118.5q-264 0 -377 118.5t-71 351.5z" />
    <glyph glyph-name="uni1D20" unicode="&#x1d20;" horiz-adv-x="1188" 
d="M232 1172h274l150 -848l442 848h274l-648 -1172h-10h-226h-10z" />
    <glyph glyph-name="uni1D21" unicode="&#x1d21;" horiz-adv-x="1568" 
d="M232 1172h274l30 -712l320 712h20h224h22l86 -698l270 698h274l-434 -1172h-52h-242h-20l-86 782l-364 -782h-226h-54z" />
    <glyph glyph-name="uni1D22" unicode="&#x1d22;" horiz-adv-x="1234" 
d="M1160 104l-18 -104h-1050l36 208l864 756h-700l18 104l18 104h1020l-36 -208l-862 -756h728q-3 -24 -18 -104z" />
    <glyph glyph-name="Wgrave" unicode="&#x1e80;" horiz-adv-x="1738" 
d="M1040 1648l-166 300h332l68 -300h-234zM270 1426h306l20 -868l372 868h20h254h20l82 -856l320 856h304l-516 -1426h-52h-268h-22l-80 946l-420 -946h-252h-56z" />
    <glyph glyph-name="Wacute" unicode="&#x1e82;" horiz-adv-x="1738" 
d="M1040 1648l176 300h332l-274 -300h-234zM270 1426h306l20 -868l372 868h20h254h20l82 -856l320 856h304l-516 -1426h-52h-268h-22l-80 946l-420 -946h-252h-56z" />
    <glyph glyph-name="Wdieresis" unicode="&#x1e84;" horiz-adv-x="1738" 
d="M1190 1648l50 278h276l-50 -278h-276zM848 1648l50 278h276l-50 -278h-276zM270 1426h306l20 -868l372 868h20h254h20l82 -856l320 856h304l-516 -1426h-52h-268h-22l-80 946l-420 -946h-252h-56z" />
    <glyph glyph-name="uni1EBC" unicode="&#x1ebc;" horiz-adv-x="1364" 
d="M808 1648h-188q25 144 100.5 232t171.5 88q39 0 81 -14.5t74 -35.5t59 -42t42 -36l14 -14q20 0 38 33.5t28 88.5h188q-26 -144 -99.5 -231.5t-170.5 -88.5q-38 0 -73 14.5t-60 35.5t-47.5 42t-46 35.5t-45.5 14.5q-20 0 -38 -33.5t-28 -88.5zM170 0q100 572 252 1426h282
h2h778l-42 -232h-778q-36 -204 -66 -378h524l-38 -222h-526q-32 -196 -64 -362h808l-40 -232h-808h-2h-282z" />
    <glyph glyph-name="Ygrave" unicode="&#x1ef2;" horiz-adv-x="1324" 
d="M838 1648l-166 300h332l68 -300h-234zM826 100l-16 -90q0 -4 -2 -10h-142h-142l118 662h-2l-360 764h290l254 -538l440 538h290l-628 -762z" />
    <glyph glyph-name="endash" unicode="&#x2013;" horiz-adv-x="882" 
d="M82 394l36 212h858l-36 -212h-858z" />
    <glyph glyph-name="emdash" unicode="&#x2014;" horiz-adv-x="1462" 
d="M172 394l36 212h1258l-36 -212h-1258z" />
    <glyph glyph-name="quoteleft" unicode="&#x2018;" horiz-adv-x="480" 
d="M634 1446l-22 -134q-114 0 -134 -120h112l-48 -276h-278l48 276q21 120 99.5 187t222.5 67z" />
    <glyph glyph-name="quoteright" unicode="&#x2019;" horiz-adv-x="480" 
d="M494 1446h278l-48 -276q-24 -136 -98 -194t-224 -58l24 132q60 0 91 28t41 92h-112z" />
    <glyph glyph-name="quotedblleft" unicode="&#x201c;" horiz-adv-x="1034" 
d="M1186 1446l-22 -134q-112 0 -132 -120h110l-48 -276h-276l48 276q20 120 98.5 187t221.5 67zM772 1446l-22 -134q-114 0 -134 -120h112l-48 -276h-278l48 276q21 120 99.5 187t222.5 67z" />
    <glyph glyph-name="quotedblright" unicode="&#x201d;" horiz-adv-x="1034" 
d="M910 1446h276l-48 -276q-24 -136 -97.5 -194t-222.5 -58l24 132q60 0 89.5 27.5t40.5 92.5h-110zM494 1446h278l-48 -276q-24 -136 -98 -194t-224 -58l24 132q60 0 91 28t41 92h-112z" />
    <glyph glyph-name="dagger" unicode="&#x2020;" horiz-adv-x="1178" 
d="M1264 1184l-38 -220h-340l-190 -1080h-254l190 1080h-340l38 220h340l60 340h254l-60 -340h340z" />
    <glyph glyph-name="daggerdbl" unicode="&#x2021;" horiz-adv-x="1178" 
d="M162 224l38 222h340l92 518h-340l38 220h340l60 340h254l-60 -340h340l-38 -220h-340l-92 -518h340l-38 -222h-340l-60 -340h-254l60 340h-340z" />
    <glyph glyph-name="bullet" unicode="&#x2022;" horiz-adv-x="480" 
d="M170 384l48 276h278l-48 -276h-278z" />
    <glyph glyph-name="ellipsis" unicode="&#x2026;" horiz-adv-x="1334" 
d="M956 0l48 276h276l-48 -276h-276zM530 0l48 276h276l-48 -276h-276zM102 0l48 276h278l-48 -276h-278z" />
    <glyph glyph-name="perthousand" unicode="&#x2030;" horiz-adv-x="2340" 
d="M1934 292q-15 -81 11 -130.5t83 -49.5t101 49.5t59 130.5q12 74 -15.5 119t-84.5 45t-99.5 -45.5t-54.5 -118.5zM1790 292q22 133 111 214.5t211 81.5q121 0 181 -81t37 -215q-25 -141 -114.5 -226.5t-211.5 -85.5t-180.5 85.5t-33.5 226.5zM452 1240q-13 -78 13 -125
t83 -47t101 47t57 125q13 76 -14 123t-84 47t-99.5 -46.5t-56.5 -123.5zM308 1240q24 137 113.5 220.5t210.5 83.5t180.5 -83.5t35.5 -220.5q-24 -138 -113 -222t-211 -84q-121 0 -180.5 84t-35.5 222zM1302 292q-15 -81 8 -130.5t74 -49.5q55 0 97 49.5t57 130.5
q12 74 -13.5 119t-80.5 45q-51 0 -90.5 -45.5t-51.5 -118.5zM1158 292q22 133 108 214.5t202 81.5q120 0 178.5 -81t35.5 -215q-25 -141 -113.5 -226.5t-208.5 -85.5q-116 0 -171.5 85.5t-30.5 226.5zM316 0l1228 1524l138 2l-1216 -1522z" />
    <glyph glyph-name="guilsinglleft" unicode="&#x2039;" horiz-adv-x="574" 
d="M584 944h220l-394 -422l246 -422h-220l-246 422z" />
    <glyph glyph-name="guilsinglright" unicode="&#x203a;" horiz-adv-x="574" 
d="M252 944h222l246 -422l-394 -422h-222l396 422z" />
    <glyph glyph-name="fraction" unicode="&#x2044;" horiz-adv-x="1130" 
d="M18 0l1228 1524h126l-1224 -1524h-130z" />
    <glyph glyph-name="Euro" unicode="&#x20ac;" horiz-adv-x="1270" 
d="M68 510l44 142h104q4 40 8 60l12 60h-102l46 142h102q99 249 311.5 390.5t488.5 141.5q87 0 157.5 -16.5t128.5 -60t82 -111.5l-34 -308q-34 94 -97 155.5t-131 85t-146 23.5q-145 0 -262.5 -78.5t-185.5 -221.5h500l-46 -142h-506l-12 -60q-4 -20 -8 -60h504l-44 -142
h-460q20 -141 110 -219.5t234 -78.5q136 0 259.5 66.5t210.5 211.5l-78 -324q-112 -186 -434 -186q-276 0 -439 141t-175 389h-142z" />
    <glyph glyph-name="minus" unicode="&#x2212;" horiz-adv-x="1292" 
d="M176 422l28 156h1088l-28 -156h-1088z" />
    <glyph glyph-name="uni2215" unicode="&#x2215;" horiz-adv-x="988" 
d="M2 0l1102 1426l132 -6l-1088 -1420h-146z" />
    <glyph glyph-name="uni2219" unicode="&#x2219;" horiz-adv-x="480" 
d="M170 384l48 276h278l-48 -276h-278z" />
    <glyph glyph-name="uniA730" unicode="&#xa730;" horiz-adv-x="1134" 
d="M176 0q82 469 206 1172h254h2h640l-36 -208h-640q-46 -259 -50 -286h398l-36 -198h-398l-84 -480h-256z" />
    <glyph glyph-name="uniA731" unicode="&#xa731;" horiz-adv-x="1150" 
d="M124 158l36 338q49 -134 170 -213t272 -79q110 0 173.5 28t70.5 82q11 57 -56 101t-198 59q-210 24 -312.5 123t-75.5 255q27 151 174.5 245.5t347.5 94.5q123 0 233 -44t169 -118l-38 -270q-76 94 -185.5 149t-218.5 55q-35 0 -51.5 -0.5t-43 -2.5t-40.5 -6.5t-30 -12
t-25 -20t-14 -30.5q-9 -25 -8.5 -45t7.5 -35t23.5 -27t35.5 -19.5t48 -14.5t55.5 -11t64.5 -8q226 -26 341 -135t85 -275q-27 -156 -182 -249t-390 -93q-158 0 -272 50.5t-166 127.5z" />
    <glyph glyph-name="uniF078" unicode="&#xf078;" horiz-adv-x="1184" 
d="M1062 1172h310l-512 -584l292 -588h-276l-192 388l-342 -388h-312l542 616l-276 556h274l178 -358z" />
  </font>
</defs>
</svg>
