<?xml version="1.0" standalone="no"?>
<!DOCTYPE svg PUBLIC "-//W3C//DTD SVG 1.1//EN" "http://www.w3.org/Graphics/SVG/1.1/DTD/svg11.dtd" >
<svg xmlns="http://www.w3.org/2000/svg" xmlns:xlink="http://www.w3.org/1999/xlink" version="1.1">
<metadata>
Created by FontForge 20170731 at Sun Aug  6 18:07:04 2023
 By Aleksey,,,
</metadata>
<defs>
<font id="Gallant-bold" horiz-adv-x="1512" >
  <font-face 
    font-family="Gallant"
    font-weight="700"
    font-stretch="normal"
    units-per-em="2048"
    panose-1="0 0 0 0 0 0 0 0 0 0"
    ascent="1638"
    descent="-410"
    x-height="1044"
    cap-height="1426"
    bbox="-146 -794 2482 1988"
    underline-thickness="100"
    underline-position="-400"
    unicode-range="U+000D-F078"
  />
<missing-glyph horiz-adv-x="200" 
 />
    <glyph glyph-name=".notdef" horiz-adv-x="200" 
 />
    <glyph glyph-name="uni0000" horiz-adv-x="0" 
 />
    <glyph glyph-name="uni0000" horiz-adv-x="0" 
 />
    <glyph glyph-name="uni000D" unicode="&#xd;" horiz-adv-x="512" 
 />
    <glyph glyph-name="space" unicode=" " horiz-adv-x="572" 
 />
    <glyph glyph-name="exclam" unicode="!" horiz-adv-x="484" 
d="M104 0v276h276v-276h-276zM92 1426h300q-6 -253 -22 -598l-32 -398h-208l-26 398q0 157 -3 306.5t-6 220.5z" />
    <glyph glyph-name="quotedbl" unicode="&#x22;" horiz-adv-x="1014" 
d="M578 1426h254v-266l-66 -248h-122l-66 248v266zM164 1426h254v-266l-66 -248h-122l-66 248v266z" />
    <glyph glyph-name="numbersign" unicode="#" horiz-adv-x="1544" 
d="M1018 1504h244l-48 -356h288l-30 -208h-284l-50 -376h266l-28 -208h-266l-48 -356h-244l48 356h-292l-48 -356h-242l48 356h-300l30 208h298l50 376h-282l30 208h278l48 356h242l-48 -356h292zM652 940l-50 -376h292l50 376h-292z" />
    <glyph glyph-name="dollar" unicode="$" horiz-adv-x="1316" 
d="M702 1576h134v-156q187 -41 274 -128l14 -300q-107 110 -286 164l2 -314q192 -54 298 -170.5t106 -277.5q0 -154 -105.5 -258.5t-294.5 -139.5v-146h-134v132q-60 -3 -116 0v-132h-134v146q-125 19 -217.5 60.5t-138.5 93.5l-28 374q53 -98 153 -168t229 -104l-2 360
q-196 48 -302 157t-106 267q0 154 111 260.5t293 137.5v142h134v-130q59 0 116 -6v136zM706 870l-2 316q-51 8 -116 8l2 -306q23 -4 116 -18zM458 920l4 268q-47 -12 -73 -49t-26.5 -79t24.5 -82.5t71 -57.5zM590 590l2 -360q79 -4 116 0l-2 338q-57 14 -116 22zM836 552
l6 -308q40 11 66.5 52.5t31 90t-21.5 96.5t-82 69z" />
    <glyph glyph-name="percent" unicode="%" horiz-adv-x="1692" 
d="M234 1240q0 -78 34.5 -125t91.5 -47t92.5 47t35.5 125q0 76 -35.5 123t-92.5 47t-91.5 -46.5t-34.5 -123.5zM90 1240q0 137 74.5 220.5t195.5 83.5t195.5 -83.5t74.5 -220.5q0 -138 -74 -222t-196 -84t-196 84t-74 222zM1250 292q0 -81 31.5 -130.5t82.5 -49.5
q55 0 88.5 49.5t33.5 130.5q0 74 -33.5 119t-88.5 45q-51 0 -82.5 -45.5t-31.5 -118.5zM1106 292q0 133 71 214.5t187 81.5q120 0 193 -81t73 -215q0 -141 -73 -226.5t-193 -85.5q-116 0 -187 85.5t-71 226.5zM316 0l960 1524l152 -2l-958 -1524z" />
    <glyph glyph-name="ampersand" unicode="&#x26;" horiz-adv-x="1472" 
d="M1348 4q-73 -30 -151.5 -24t-143 31.5t-123.5 68.5q-166 -120 -404 -120q-207 0 -333.5 106t-126.5 280q0 107 68 205t182 153q-60 57 -95 137t-35 161q0 143 104.5 230.5t273.5 87.5q161 0 259.5 -84t98.5 -222q0 -97 -67 -180.5t-185 -145.5q82 -94 234 -258
q57 120 54 278l232 -54q6 -232 -102 -406q65 -36 162 -36q52 0 64 6zM542 826l8 4q69 31 110.5 82t41.5 102q0 43 -38 69.5t-100 26.5q-61 0 -99.5 -24.5t-38.5 -63.5q0 -49 31.5 -102t84.5 -94zM742 254q-54 56 -286 310q-3 -2 -6 -3.5t-6 -2.5t-4 -2q-48 -23 -78 -72
t-30 -106q0 -75 63.5 -121.5t166.5 -46.5q95 0 180 44z" />
    <glyph glyph-name="quotesingle" unicode="'" horiz-adv-x="520" 
d="M164 1426h254v-266l-66 -248h-122l-66 248v266z" />
    <glyph glyph-name="parenleft" unicode="(" horiz-adv-x="746" 
d="M464 1516l90 -100q-340 -285 -340 -780q0 -483 340 -768l-90 -98q-414 348 -414 866q0 532 414 880z" />
    <glyph glyph-name="parenright" unicode=")" horiz-adv-x="656" 
d="M270 -230l-90 100q340 285 340 780q0 483 -340 768l90 98q414 -348 414 -866q0 -532 -414 -880z" />
    <glyph glyph-name="asterisk" unicode="*" horiz-adv-x="836" 
d="M690 1326l66 -202l-216 -38l152 -156l-172 -126l-102 194l-102 -194l-172 126l152 156l-216 38l66 202l198 -96l-32 216h212l-32 -216z" />
    <glyph glyph-name="plus" unicode="+" horiz-adv-x="1188" 
d="M512 444h-460v156h460v444h164v-444h460v-156h-460v-444h-164v444z" />
    <glyph glyph-name="comma" unicode="," horiz-adv-x="482" 
d="M102 276h278v-276q0 -136 -64 -194t-214 -58v132q60 0 86 28t26 92h-112v276z" />
    <glyph glyph-name="hyphen" unicode="-" horiz-adv-x="792" 
d="M102 394v212h588v-212h-588z" />
    <glyph glyph-name="period" unicode="." horiz-adv-x="480" 
d="M102 0v276h278v-276h-278z" />
    <glyph glyph-name="slash" unicode="/" horiz-adv-x="666" 
d="M2 0l552 1426h110l-550 -1426h-112z" />
    <glyph glyph-name="zero" unicode="0" horiz-adv-x="1462" 
d="M394 712q0 -248 83.5 -374t246.5 -126q165 0 248.5 126t83.5 374q0 237 -87.5 369.5t-244.5 132.5q-156 0 -243 -132.5t-87 -369.5zM98 712q0 346 165 540t461 194t461 -194t165 -540q0 -363 -158 -547.5t-468 -184.5t-468 184.5t-158 547.5z" />
    <glyph glyph-name="one" unicode="1" horiz-adv-x="914" 
d="M492 1426h220v-1426h-284v1112l-268 -116v284z" />
    <glyph glyph-name="two" unicode="2" horiz-adv-x="1268" 
d="M84 0q0 113 16 198t47.5 150.5t87.5 120t124.5 97.5t170.5 92q154 73 248 166.5t94 173.5q0 79 -76 129.5t-182 50.5q-91 0 -158.5 -11t-122.5 -37.5t-90.5 -51.5t-90.5 -72v278q62 69 181 115.5t297 46.5q144 0 266 -56t196 -161.5t74 -238.5q0 -122 -89.5 -239.5
t-234.5 -186.5q-160 -77 -251.5 -143t-138.5 -147h744v-274h-1112z" />
    <glyph glyph-name="three" unicode="3" horiz-adv-x="1294" 
d="M160 108v390q58 -97 114 -151.5t145.5 -84.5t222.5 -30q109 0 182.5 49t73.5 127q0 110 -84 177t-222 67h-120v220h160q111 0 178.5 50t67.5 132q0 75 -62.5 117.5t-191.5 42.5q-229 0 -426 -188v304q76 69 185 92.5t249 23.5q257 0 382.5 -98.5t125.5 -271.5
q0 -92 -63.5 -171t-170.5 -121q135 -53 215.5 -157.5t80.5 -230.5q0 -184 -161 -300t-399 -116q-201 0 -303.5 27.5t-178.5 100.5z" />
    <glyph glyph-name="four" unicode="4" horiz-adv-x="1252" 
d="M52 598l694 828h220l2 -314v-480h242v-254h-244v-378h-284v10v368h-630v220zM346 632h338v402z" />
    <glyph glyph-name="five" unicode="5" horiz-adv-x="1306" 
d="M192 658l100 768h856l-22 -298l-564 -36l-32 -184q20 0 77 -2t95 -2q235 0 378.5 -126t143.5 -332q0 -210 -155.5 -338t-410.5 -128q-202 0 -311.5 34.5t-184.5 95.5v382q82 -135 201 -202t295 -66q119 0 190.5 61t71.5 161q0 85 -70.5 125t-267.5 59q-17 2 -45.5 5
t-42.5 5t-30.5 5t-22.5 7t-5 10z" />
    <glyph glyph-name="six" unicode="6" horiz-adv-x="1218" 
d="M1116 1344v-278q-41 71 -137 114.5t-211 43.5q-179 0 -273.5 -127t-94.5 -347q30 92 113 149t191 57v-2q229 3 373.5 -134t144.5 -354q0 -219 -151 -352.5t-397 -133.5q-281 0 -423.5 181.5t-142.5 538.5q0 169 42.5 306t124 235t207 151.5t286.5 53.5q131 0 226 -28
t122 -74zM648 720q-239 -17 -220 -282q26 -113 85 -169t161 -57q71 -1 117.5 13t73.5 47.5t39 79t14 114.5q4 128 -65 188t-205 66z" />
    <glyph glyph-name="seven" unicode="7" horiz-adv-x="1042" 
d="M62 1426h958v-274q-170 -77 -271.5 -218t-149 -367t-47.5 -567h-314q0 244 20 421t65 309.5t104 227t151 194.5h-516v274z" />
    <glyph glyph-name="eight" unicode="8" horiz-adv-x="1320" 
d="M470 1050q0 -82 39 -123t149 -41q103 0 146.5 38.5t43.5 125.5q0 81 -41 122.5t-149 41.5q-100 0 -144 -40.5t-44 -123.5zM170 1074q0 180 131.5 276t356.5 96q239 0 366.5 -100t127.5 -272q0 -226 -216 -312q137 -47 204.5 -144t67.5 -234q0 -202 -146.5 -303
t-403.5 -101q-276 0 -413 107.5t-137 296.5q0 145 71.5 239t202.5 139q-106 43 -159 123t-53 189zM442 402q0 -94 47.5 -142t168.5 -48q230 0 230 196q0 226 -230 226q-111 0 -163.5 -56.5t-52.5 -175.5z" />
    <glyph glyph-name="nine" unicode="9" horiz-adv-x="1240" 
d="M176 90v310q40 -70 147 -113t241 -43q174 0 266 116t92 316q-30 -91 -114 -146.5t-194 -55.5q-231 0 -371.5 133.5t-140.5 352.5t150 352.5t396 133.5q281 0 424.5 -181.5t143.5 -538.5q0 -226 -72.5 -392.5t-220.5 -260t-359 -93.5q-146 0 -253 30.5t-135 79.5zM668 706
q125 0 185 65.5t53 224.5q-22 113 -80.5 166t-177.5 52q-72 -1 -121 -18.5t-74.5 -53t-36 -78.5t-10.5 -104q0 -254 262 -254z" />
    <glyph glyph-name="colon" unicode=":" horiz-adv-x="480" 
d="M102 768v276h278v-276h-278zM102 0v276h278v-276h-278z" />
    <glyph glyph-name="semicolon" unicode=";" horiz-adv-x="480" 
d="M102 768v276h278v-276h-278zM102 276h278v-276q0 -136 -64 -194t-214 -58v132q60 0 86 28t26 92h-112v276z" />
    <glyph glyph-name="less" unicode="&#x3c;" horiz-adv-x="1244" 
d="M1122 996v-210l-760 -264l760 -264v-210l-1030 380v188z" />
    <glyph glyph-name="equal" unicode="=" horiz-adv-x="1272" 
d="M80 408h1088v-154h-1088v154zM80 810h1088v-154h-1088v154z" />
    <glyph glyph-name="greater" unicode="&#x3e;" horiz-adv-x="1244" 
d="M882 522l-760 264v210l1030 -380v-188l-1030 -380v210z" />
    <glyph glyph-name="question" unicode="?" horiz-adv-x="1176" 
d="M362 0v276h276v-276h-276zM88 1286q52 71 165 115.5t265 44.5q249 0 401.5 -103.5t152.5 -272.5q0 -98 -64.5 -185t-217.5 -193q-106 -73 -137 -122.5t-31 -141.5h-242q0 168 43 248t189 182q105 73 149.5 122t44.5 90q0 69 -79.5 111.5t-208.5 42.5q-280 0 -430 -224
v286z" />
    <glyph glyph-name="at" unicode="@" horiz-adv-x="2594" 
d="M2146 -232l88 -126q-161 -113 -399 -181.5t-467 -68.5q-277 0 -509.5 83t-394.5 232.5t-252 363.5t-90 469t88.5 469t248 363.5t388 232.5t501.5 83q252 0 463.5 -70t359 -196.5t229.5 -307.5t82 -398q0 -224 -71 -394.5t-200.5 -264t-298.5 -93.5q-117 0 -200.5 57.5
t-119.5 160.5q-69 -93 -175.5 -144.5t-238.5 -51.5q-246 0 -378 152.5t-102 401.5q26 218 192 351t412 133q109 0 191.5 -45.5t130.5 -130.5l18 154h234l-70 -584q-17 -138 34 -223t150 -85q136 0 219 166.5t83 439.5q0 240 -117.5 423t-332 283t-494.5 100
q-231 0 -424.5 -71t-328.5 -198.5t-210 -310.5t-75 -402q0 -292 131.5 -515t372 -345t554.5 -122q215 0 429 58t349 152zM1584 512q11 132 -73 212t-235 80q-131 0 -220 -73t-102 -191q-18 -151 50.5 -243.5t199.5 -92.5q154 0 255 59t113 155z" />
    <glyph glyph-name="A" unicode="A" 
d="M14 0l590 1426h310l576 -1426h-308l-104 258l-656 -2q-34 -90 -100 -256h-308zM510 474h484l-242 604q-40 -100 -126 -314.5t-116 -289.5z" />
    <glyph glyph-name="B" unicode="B" horiz-adv-x="1472" 
d="M170 0v1426h554q278 -3 397 -93.5t119 -296.5q0 -88 -50 -154.5t-144 -105.5q169 -27 261.5 -117.5t92.5 -220.5q0 -237 -133 -337.5t-445 -100.5h-652zM454 858l304 -6q54 -3 96 48t42 132q0 84 -47 128t-115 46h-280v-348zM454 220l286 2q175 -1 246.5 47.5t71.5 166.5
q0 86 -90 140t-234 50h-185h-95v-406z" />
    <glyph glyph-name="C" unicode="C" horiz-adv-x="1430" 
d="M1390 402l-2 -254q-39 -75 -171 -121.5t-309 -46.5q-178 0 -331 59t-257 158.5t-163 233t-59 281.5t59 281.5t163 234t257 159.5t331 59q167 0 299 -45.5t181 -120.5l-2 -226q-71 56 -207 108t-271 52q-147 0 -263.5 -69t-178.5 -183t-62 -250q0 -135 62 -248.5
t178.5 -182.5t263.5 -69q159 0 274 48t208 142z" />
    <glyph glyph-name="D" unicode="D" horiz-adv-x="1594" 
d="M170 0v1426h504q401 0 604.5 -180t203.5 -534q0 -362 -183.5 -537t-564.5 -175h-564zM454 220h260q236 0 350 121t114 371q0 244 -125 369t-369 125h-230v-986z" />
    <glyph glyph-name="E" unicode="E" horiz-adv-x="1364" 
d="M170 0v1426h1062v-232h-778v-378h524l2 -222h-526v-362h808v-232h-1092z" />
    <glyph glyph-name="F" unicode="F" horiz-adv-x="1294" 
d="M170 0v1426h1062v-232h-778v-378h536v-222h-536v-594h-284z" />
    <glyph glyph-name="G" unicode="G" horiz-adv-x="1604" 
d="M1106 716h406v-548q-103 -86 -265 -137t-351 -51q-237 0 -418 91t-280.5 257t-99.5 384t99.5 384.5t280.5 258t418 91.5q180 0 344 -82t254 -216l-196 -188q-77 114 -187 184t-215 70q-222 0 -357 -137.5t-135 -364.5q0 -225 135 -362.5t357 -137.5q112 0 201.5 25.5
t142.5 68.5v178h-128z" />
    <glyph glyph-name="H" unicode="H" horiz-adv-x="1660" 
d="M170 0v1426h284v-600h750v600h284v-1426h-284v594h-750v-594h-284z" />
    <glyph glyph-name="I" unicode="I" horiz-adv-x="634" 
d="M178 0v1426h284v-1426h-284z" />
    <glyph glyph-name="J" unicode="J" horiz-adv-x="1082" 
d="M160 134v82l2 98q63 -43 119.5 -57.5t174.5 -14.5q82 0 126 47.5t44 128.5v1008h284v-1008q0 -202 -117 -320t-337 -118q-121 0 -182.5 13t-111.5 49z" />
    <glyph glyph-name="K" unicode="K" horiz-adv-x="1460" 
d="M170 0v1426h284v-630l596 630h354l-498 -540l532 -886h-344l-400 658l-240 -260v-398h-284z" />
    <glyph glyph-name="L" unicode="L" horiz-adv-x="1232" 
d="M178 0v1426h284v-1194h708v-232h-992z" />
    <glyph glyph-name="M" unicode="M" horiz-adv-x="1896" 
d="M172 0v1426q124 -10 274 0v-4l158 4l342 -748l334 748l170 -2v2h274v-1426h-274v1118l-376 -718h-252l-376 710v-1110h-274z" />
    <glyph glyph-name="N" unicode="N" horiz-adv-x="1606" 
d="M1150 1426h284v-1426h-402l-578 956v-956h-284v1426h322l658 -1092v1092z" />
    <glyph glyph-name="O" unicode="O" horiz-adv-x="1690" 
d="M414 712q0 -223 114 -347.5t310 -124.5q197 0 316.5 125.5t119.5 346.5q0 139 -61.5 247.5t-163.5 165.5t-225 57q-185 0 -297.5 -128t-112.5 -342zM108 712q0 154 56.5 290.5t153.5 233.5t234 153.5t292 56.5q154 0 290.5 -56.5t233.5 -153.5t153.5 -233.5t56.5 -290.5
q0 -330 -202 -531t-532 -201q-219 0 -386 91t-258.5 257t-91.5 384z" />
    <glyph glyph-name="P" unicode="P" horiz-adv-x="1310" 
d="M170 0v1426h514q274 0 414 -108t140 -320q0 -225 -139.5 -339.5t-414.5 -114.5h-230v-544h-284zM454 764h242q109 3 168.5 61t59.5 171q0 204 -252 210q-66 2 -218 2v-444z" />
    <glyph glyph-name="Q" unicode="Q" horiz-adv-x="1690" 
d="M414 712q0 -222 119.5 -348t316.5 -126q43 0 82 6q-112 169 -144 224l286 -16q0 -3 70 -106q130 130 130 366q0 211 -126 343.5t-314 132.5q-186 0 -303 -131.5t-117 -344.5zM108 712q0 154 56.5 290.5t153.5 233.5t234 153.5t292 56.5q154 0 290.5 -56.5t233.5 -153.5
t153.5 -233.5t56.5 -290.5q0 -191 -70.5 -343t-201.5 -249l238 -328l-320 20q-60 88 -136 202q-117 -34 -244 -34q-219 0 -386 91t-258.5 257t-91.5 384z" />
    <glyph glyph-name="R" unicode="R" horiz-adv-x="1338" 
d="M170 0v1426h514q274 0 414 -108t140 -320q0 -283 -260 -374l366 -624h-326l-340 580h-224v-580h-284zM454 800h238q105 -6 166.5 46.5t61.5 149.5q0 104 -64 158.5t-184 51.5q-66 -2 -218 -2v-404z" />
    <glyph glyph-name="S" unicode="S" horiz-adv-x="1316" 
d="M104 150l-28 374q74 -137 233 -216.5t351 -79.5q129 0 199.5 44.5t70.5 119.5q0 76 -87.5 127.5t-254.5 70.5q-257 30 -398.5 146t-141.5 300q0 121 70 215t193 144.5t277 50.5q168 0 310 -41.5t212 -112.5l14 -300q-90 93 -236.5 147.5t-299.5 54.5q-55 0 -96.5 -5
t-77.5 -17.5t-57.5 -36.5t-26.5 -59q-10 -59 35 -101.5t119 -64t182 -34.5q270 -32 424 -159t154 -323q0 -190 -157 -302t-427 -112q-198 0 -345.5 49t-210.5 121z" />
    <glyph glyph-name="T" unicode="T" horiz-adv-x="1252" 
d="M22 1194v232h1208v-232h-462v-1194h-284v1194h-462z" />
    <glyph glyph-name="U" unicode="U" horiz-adv-x="1552" 
d="M156 1426h284v-828q0 -176 84.5 -266t249.5 -90t249.5 90t84.5 266l-2 828h284v-878q0 -281 -156 -424.5t-460 -143.5q-306 0 -462 143.5t-156 424.5v878z" />
    <glyph glyph-name="V" unicode="V" horiz-adv-x="1358" 
d="M18 1426h306l356 -1052l352 1052h304l-518 -1426h-272z" />
    <glyph glyph-name="W" unicode="W" horiz-adv-x="1738" 
d="M18 1426h306l174 -868l218 868h294l234 -856l168 856h304l-264 -1426h-342l-248 946l-252 -946h-308z" />
    <glyph glyph-name="X" unicode="X" horiz-adv-x="1334" 
d="M986 1426h334l-478 -712l460 -714h-302l-314 484l-324 -484h-338l498 738l-446 688h304l296 -458z" />
    <glyph glyph-name="Y" unicode="Y" horiz-adv-x="1324" 
d="M1012 1426h290l-494 -764v-662h-284v662l-496 764h290l348 -538z" />
    <glyph glyph-name="Z" unicode="Z" horiz-adv-x="1372" 
d="M1280 232v-232h-1188v232l822 962h-792v232h1158v-232l-822 -962h822z" />
    <glyph glyph-name="bracketleft" unicode="[" horiz-adv-x="774" 
d="M414 1282v-1368h298v-144h-462v1656h462v-144h-298z" />
    <glyph glyph-name="backslash" unicode="\" horiz-adv-x="730" 
d="M580 0l-578 1426h150l576 -1426h-148z" />
    <glyph glyph-name="bracketright" unicode="]" horiz-adv-x="778" 
d="M360 1282h-298v144h464v-1656h-464v144h298v1368z" />
    <glyph glyph-name="asciicircum" unicode="^" horiz-adv-x="756" 
d="M378 1368l-126 -100h-232l230 300h256l232 -300h-232q-128 96 -128 100z" />
    <glyph glyph-name="underscore" unicode="_" horiz-adv-x="1422" 
d="M102 -278v156h1218v-156h-1218z" />
    <glyph glyph-name="grave" unicode="`" horiz-adv-x="756" 
d="M262 1268l-220 300h330l122 -300h-232z" />
    <glyph glyph-name="a" unicode="a" horiz-adv-x="1382" 
d="M348 512q0 -294 274 -294q97 0 169.5 81t72.5 223t-72 222t-170 80q-132 0 -203 -81t-71 -231zM96 522q0 245 132.5 393.5t349.5 148.5q155 0 286 -112v92h256v-1044h-256v80q-131 -100 -286 -100q-217 0 -349.5 148.5t-132.5 393.5z" />
    <glyph glyph-name="b" unicode="b" horiz-adv-x="1268" 
d="M144 0v1524h254v-562q147 102 334 102q195 0 314.5 -149t119.5 -393t-119.5 -393t-314.5 -149q-188 0 -334 104v-84h-254zM398 522q0 -165 71 -243.5t191 -78.5q113 0 183.5 83t70.5 229q0 149 -67 236.5t-177 87.5q-122 0 -197 -75.5t-75 -238.5z" />
    <glyph glyph-name="c" unicode="c" horiz-adv-x="1106" 
d="M1052 324l-8 -216q-34 -58 -119 -93t-203 -35q-192 0 -330 56.5t-217 179.5t-79 306q0 137 46.5 242t129.5 170t192.5 97.5t241.5 32.5q127 0 214.5 -36.5t125.5 -83.5l-4 -214q-22 15 -59.5 41.5t-51.5 35.5t-43 24.5t-51 20.5t-55.5 9.5t-75.5 4.5q-150 0 -242 -86.5
t-92 -257.5q0 -167 93 -249.5t257 -82.5q46 0 80.5 5t67 19.5t52 26t61.5 39t69 44.5z" />
    <glyph glyph-name="d" unicode="d" horiz-adv-x="1298" 
d="M328 530q0 -146 82 -233t204 -87q125 0 206.5 83.5t81.5 228.5q0 146 -81 231t-205 85t-206 -81.5t-82 -226.5zM96 522q0 243 125 390t331 152q202 6 350 -100v560h254v-1524h-254v76q-149 -105 -350 -96q-207 8 -331.5 153.5t-124.5 388.5z" />
    <glyph glyph-name="e" unicode="e" horiz-adv-x="1162" 
d="M1064 328l-6 -196q-46 -69 -147 -110.5t-251 -41.5q-263 0 -413.5 135t-150.5 407t138.5 407t381.5 135q251 0 371.5 -158.5t106.5 -433.5h-254v94v-94h-466q12 -137 87.5 -204.5t198.5 -67.5q73 0 139.5 16t105.5 35t86 43.5t73 33.5zM834 630q-18 112 -73 173t-145 61
q-94 0 -155.5 -58.5t-80.5 -175.5h454z" />
    <glyph glyph-name="f" unicode="f" horiz-adv-x="868" 
d="M500 966h382v-200h-382v-766h-254v766h-184v200h184v138q0 413 422 420q131 0 214 -40v-204q-71 34 -210 38q-172 -3 -172 -214v-138z" />
    <glyph glyph-name="g" unicode="g" horiz-adv-x="1278" 
d="M124 -366l18 280q161 -170 470 -170q131 0 200.5 73t69.5 197v68q-137 -85 -340 -82q-446 7 -446 522q0 539 446 542q201 3 340 -98v78h254v-990q0 -251 -133 -396.5t-387 -145.5q-183 0 -270.5 21.5t-221.5 100.5zM352 530q0 -304 258 -304q119 0 195.5 79.5t76.5 216.5
q0 146 -76 227t-196 81q-61 0 -105 -13.5t-80 -46t-54.5 -92.5t-18.5 -148z" />
    <glyph glyph-name="h" unicode="h" horiz-adv-x="1188" 
d="M792 0v634q0 92 -47 141t-129 49q-98 0 -158 -52.5t-60 -137.5v-634h-254v1524h254v-566q122 96 316 96q154 0 243 -108t89 -312v-634h-254z" />
    <glyph glyph-name="i" unicode="i" horiz-adv-x="606" 
d="M198 1268v276q260 -2 276 0q2 -5 2 -74t-1 -136l-1 -66h-276zM210 0v1044h254v-1044h-254zM474 1544z" />
    <glyph glyph-name="j" unicode="j" horiz-adv-x="560" 
d="M164 1268v276h278v-276h-278zM-134 -156q13 -2 52.5 -11.5t74 -16.5t45.5 -6q40 0 59.5 4t40.5 21.5t29 57.5t9 107v1044h256v-1044q0 -136 -17.5 -220t-63.5 -136t-120.5 -67t-192.5 -1l-20 6l-1 1h-1h-2q-91 23 -160 49z" />
    <glyph glyph-name="k" unicode="k" horiz-adv-x="1196" 
d="M144 0v1524h254v-900l430 420h328l-344 -342l362 -702h-306l-242 516l-228 -228v-288h-254z" />
    <glyph glyph-name="l" unicode="l" horiz-adv-x="526" 
d="M130 0v1524h254v-1524h-254z" />
    <glyph glyph-name="m" unicode="m" horiz-adv-x="1788" 
d="M1402 0q2 444 0 634q0 66 -49.5 111t-130.5 45q-202 0 -202 -156v-634h-256q2 444 0 634q0 64 -49 110t-123 46q-204 0 -204 -156v-634h-254v1044h254v-108q118 118 304 118q97 0 169.5 -45t112.5 -133q54 85 144.5 131.5t199.5 46.5q156 0 247 -108t91 -312v-634h-254z
" />
    <glyph glyph-name="n" unicode="n" horiz-adv-x="1168" 
d="M782 0q12 444 0 634q-5 57 -53.5 105.5t-122.5 48.5q-218 0 -218 -154v-634h-254v1044h254v-122q111 132 316 132q154 0 243 -108t89 -312v-634h-254z" />
    <glyph glyph-name="o" unicode="o" horiz-adv-x="1242" 
d="M336 526q0 -156 77 -243t207 -87q122 0 197 76.5t75 247.5q0 159 -70 245.5t-198 86.5q-58 0 -107.5 -17t-91.5 -53.5t-65.5 -102t-23.5 -153.5zM96 522q0 272 139 407t383 135q262 0 392 -144t130 -398q0 -272 -139 -407t-383 -135q-262 0 -392 144t-130 398z" />
    <glyph glyph-name="p" unicode="p" horiz-adv-x="1268" 
d="M144 -358v1402h254v-94q153 114 342 114q192 0 309 -149t117 -393t-117 -393t-309 -149q-195 0 -342 104v-442h-254zM398 522q0 -83 23 -145.5t63.5 -98.5t91 -53t110.5 -17q108 0 174 82.5t66 229.5q0 148 -64 232t-170 84q-60 0 -111 -17t-93 -53t-66 -98.5t-24 -145.5
z" />
    <glyph glyph-name="q" unicode="q" horiz-adv-x="1288" 
d="M348 526q0 -146 72 -228t188 -82q126 0 205 80t79 226q0 145 -82 227.5t-208 82.5q-115 0 -184.5 -79.5t-69.5 -226.5zM96 522q0 243 120.5 388.5t321.5 153.5q201 9 354 -112v92h254v-1402h-254v444q-150 -106 -354 -106q-199 0 -320.5 148.5t-121.5 393.5z" />
    <glyph glyph-name="r" unicode="r" horiz-adv-x="902" 
d="M860 776q-9 7 -24.5 17t-61.5 26.5t-90 16.5q-156 -1 -221 -73.5t-65 -208.5v-554h-254v1044h254v-82q102 102 280 102q61 0 102.5 -15.5t79.5 -50.5v-222z" />
    <glyph glyph-name="s" unicode="s" horiz-adv-x="1038" 
d="M112 134l-16 268q41 -91 161.5 -151.5t268.5 -60.5q77 0 126.5 28t49.5 78q0 44 -55 78t-151 44q-198 21 -311 107t-113 213q0 141 123 228.5t311 87.5q136 0 240 -34t130 -84l46 -234q-37 70 -158.5 117t-257.5 47q-87 0 -137.5 -22t-56.5 -80q-6 -50 59 -77.5
t187 -40.5q210 -22 314 -104.5t104 -213.5q0 -149 -129 -243.5t-321 -94.5q-154 0 -269.5 41t-144.5 103z" />
    <glyph glyph-name="t" unicode="t" horiz-adv-x="868" 
d="M806 1038v-222h-356v-462q0 -76 46.5 -115t157.5 -39q72 0 146 34v-212q-103 -42 -212 -42q-209 0 -300.5 93.5t-91.5 280.5v462h-158v222h158v342l254 148v-490h356z" />
    <glyph glyph-name="u" unicode="u" horiz-adv-x="1182" 
d="M1040 0h-254v114q-125 -134 -300 -134q-102 0 -170.5 26.5t-108.5 82.5t-56.5 133t-16.5 188v634h254v-634q0 -104 39 -152t139 -48q99 0 159.5 66t60.5 174v594h254v-1044z" />
    <glyph glyph-name="v" unicode="v" horiz-adv-x="1036" 
d="M14 1044h288l220 -790l226 790h266l-366 -1044h-278z" />
    <glyph glyph-name="w" unicode="w" horiz-adv-x="1516" 
d="M16 1044h268l168 -746l192 746h222l192 -744l166 744h270l-266 -1044h-292l-180 648l-182 -648h-286z" />
    <glyph glyph-name="x" unicode="x" horiz-adv-x="1102" 
d="M764 1042h328l-390 -518l388 -524h-316l-230 312l-236 -312h-326l400 532l-378 512h316l220 -300z" />
    <glyph glyph-name="y" unicode="y" horiz-adv-x="1040" 
d="M14 1044h288l232 -662l196 662h288l-428 -1248q-42 -127 -134.5 -183.5t-259.5 -56.5q-18 0 -67 5t-89 10l-40 5v236q156 -36 196 -36q90 0 127 13.5t49 50.5l42 142z" />
    <glyph glyph-name="z" unicode="z" horiz-adv-x="982" 
d="M92 1044h816v-154l-532 -690h564v-200h-878v154l522 690h-492v200z" />
    <glyph glyph-name="braceleft" unicode="{" horiz-adv-x="754" 
d="M692 1426v-144h-162q-42 0 -68 -34.5t-26 -91.5q0 -377 -2 -378q0 -76 -29 -129.5t-77 -68.5q48 -15 77 -68.5t29 -129.5q2 -146 2 -380q0 -55 26 -89.5t68 -34.5h162v-144h-162q-117 0 -188.5 74t-71.5 194v412q0 48 -37 77t-97 29h-24v120h24q60 0 97 29t37 77v410
q0 122 71.5 196t188.5 74h162z" />
    <glyph glyph-name="bar" unicode="|" horiz-adv-x="350" 
d="M92 1624h166v-2186h-166v2186z" />
    <glyph glyph-name="braceright" unicode="}" horiz-adv-x="754" 
d="M112 1426h162q117 0 188.5 -74t71.5 -196v-410q0 -48 37 -77t97 -29h24v-120h-24q-60 0 -97 -29t-37 -77v-412q0 -120 -71.5 -194t-188.5 -74h-162v144h162q42 0 68 34.5t26 89.5l2 380q0 76 29 129.5t77 68.5q-48 15 -77 68.5t-29 129.5q-1 -4 -1.5 81t-0.5 297
q0 57 -26 91.5t-68 34.5h-162v144z" />
    <glyph glyph-name="asciitilde" unicode="~" horiz-adv-x="756" 
d="M196 522h-188q0 145 59.5 234.5t154.5 85.5q48 0 89.5 -16t68 -37t65 -48t73.5 -41q15 -2 24.5 5.5t13.5 26.5t5 38t1 52h188q0 -144 -59 -232t-155 -88v2v-2q-38 0 -75.5 14.5t-66 35.5t-54.5 42t-52 35.5t-48 14.5q-20 0 -32 -33.5t-12 -88.5z" />
    <glyph glyph-name="uni00A0" unicode="&#xa0;" horiz-adv-x="502" 
 />
    <glyph glyph-name="exclamdown" unicode="&#xa1;" horiz-adv-x="484" 
d="M104 1426h276v-276h-276v276zM92 0v590l112 408h76l112 -408v-590h-300z" />
    <glyph glyph-name="cent" unicode="&#xa2;" horiz-adv-x="1106" 
d="M676 1194h134v-138q86 -14 146.5 -45t89.5 -67l-4 -214q-23 15 -64.5 44.5t-58.5 40t-46.5 24t-60.5 19.5l4 -660q31 6 61 19.5t50 26t58.5 38t66.5 42.5l-8 -216q-26 -45 -85 -77.5t-141 -44.5v-136h-134v130q-276 9 -432 144.5t-156 397.5q0 133 44 236t123 168
t183 99.5t230 38.5v130zM682 192l-4 674q-139 -8 -222.5 -94.5t-83.5 -249.5q0 -157 82 -239t228 -91z" />
    <glyph glyph-name="guillemotleft" unicode="&#xab;" horiz-adv-x="1246" 
d="M878 944h220l-320 -422l320 -422h-220l-320 422zM458 944h220l-320 -422l320 -422h-220l-320 422z" />
    <glyph glyph-name="logicalnot" unicode="&#xac;" horiz-adv-x="1116" 
d="M1014 94h-254v300h-658v212h912v-512z" />
    <glyph glyph-name="acute" unicode="&#xb4;" horiz-adv-x="756" 
d="M262 1268l122 300h332l-222 -300h-232z" />
    <glyph glyph-name="periodcentered" unicode="&#xb7;" horiz-adv-x="480" 
d="M102 384v276h278v-276h-278z" />
    <glyph glyph-name="guillemotright" unicode="&#xbb;" horiz-adv-x="1210" 
d="M510 944h222l320 -422l-320 -422h-222l320 422zM90 944h222l320 -422l-320 -422h-222l322 422z" />
    <glyph glyph-name="questiondown" unicode="&#xbf;" horiz-adv-x="1164" 
d="M832 1426v-276h-276v276h276zM1116 148q-49 -82 -152.5 -125t-285.5 -43q-273 0 -439.5 99.5t-166.5 262.5q0 98 69 188t231 204q127 88 164.5 137.5t37.5 126.5h242q0 -80 -9.5 -131.5t-40 -101.5t-79.5 -93t-137 -104q-114 -79 -163 -131.5t-49 -94.5
q0 -63 93.5 -101.5t246.5 -38.5q74 0 134 13.5t103.5 36t82 61t66.5 78.5t60 99z" />
    <glyph glyph-name="Agrave" unicode="&#xc0;" 
d="M648 1648l-222 300h55.5t107.5 -0.5t121.5 -0.5t47.5 1q4 1 34.5 -74t59.5 -150l28 -76h-232zM14 0l590 1426h310l576 -1426h-308l-104 258l-656 -2q-34 -90 -100 -256h-308zM510 474h484l-242 604q-40 -100 -126 -314.5t-116 -289.5z" />
    <glyph glyph-name="Aacute" unicode="&#xc1;" 
d="M648 1648l122 300h55.5t107.5 -0.5t121.5 -0.5t47.5 1q4 1 -51.5 -74t-112.5 -150l-58 -76h-232zM14 0l590 1426h310l576 -1426h-308l-104 258l-656 -2q-34 -90 -100 -256h-308zM510 474h484l-242 604q-40 -100 -126 -314.5t-116 -289.5z" />
    <glyph glyph-name="Acircumflex" unicode="&#xc2;" 
d="M14 0l590 1426h310l576 -1426h-308l-104 258l-656 -2q-34 -90 -100 -256h-308zM764 1750l-126 -102h-232l230 300h256l230 -300h-232q-126 98 -126 102zM510 474h484l-242 604q-40 -100 -126 -314.5t-116 -289.5z" />
    <glyph glyph-name="Atilde" unicode="&#xc3;" 
d="M580 1648h-188q0 142 61.5 232t154.5 88q48 0 90.5 -16.5t70 -37.5t65.5 -47.5t70 -40.5q14 -4 23.5 3.5t13.5 26.5t5.5 39.5t1.5 52.5h188q0 -144 -58.5 -231t-155.5 -87v0q-47 0 -93.5 22t-77.5 48t-66 48t-61 22q-20 0 -32 -33.5t-12 -88.5zM14 0l590 1426h310
l576 -1426h-308l-104 258l-656 -2q-34 -90 -100 -256h-308zM510 474h484l-242 604q-40 -100 -126 -314.5t-116 -289.5z" />
    <glyph glyph-name="Adieresis" unicode="&#xc4;" 
d="M798 1648v278h276v-278h-276zM454 1648v278h276v-278h-276zM14 0l590 1426h310l576 -1426h-308l-104 258l-656 -2q-34 -90 -100 -256h-308zM510 474h484l-242 604q-40 -100 -126 -314.5t-116 -289.5z" />
    <glyph glyph-name="Aring" unicode="&#xc5;" 
d="M716 1820q0 -54 48 -54t48 54q0 49 -48 52q-17 2 -32.5 -13.5t-15.5 -38.5zM590 1820q0 80 46 124t128 44t128 -44t46 -124q0 -172 -174 -172t-174 172zM14 0l590 1426h310l576 -1426h-308l-104 258l-656 -2q-34 -90 -100 -256h-308zM510 474h484l-242 604
q-40 -100 -126 -314.5t-116 -289.5z" />
    <glyph glyph-name="Ccedilla" unicode="&#xc7;" horiz-adv-x="1430" 
d="M772 -210q-32 0 -55 -9.5t-27 -24.5v2v-2q-27 1 -46 12.5t-24 22.5l-6 11l64 206q-264 64 -422 259t-158 445q0 148 59 281.5t163 234t257 159.5t331 59q167 0 299 -45.5t181 -120.5l-2 -226q-71 56 -207 108t-271 52q-147 0 -263.5 -69t-178.5 -183t-62 -250
q0 -135 62 -248.5t178.5 -182.5t263.5 -69q159 0 274 48t208 142l-2 -254q-39 -75 -171 -121.5t-309 -46.5q-66 0 -146 10l-28 -94q26 16 60 16q96 0 155 -58t59 -152q0 -96 -64.5 -154t-171.5 -58q-129 0 -172 46v140q40 -38 74 -52t92 -14q44 0 71 25t27 67q0 39 -25 63.5
t-67 24.5z" />
    <glyph glyph-name="Egrave" unicode="&#xc8;" horiz-adv-x="1364" 
d="M584 1648l-220 300h332l122 -300h-234zM170 0v1426h1062v-232h-778v-378h524l2 -222h-526v-362h808v-232h-1092z" />
    <glyph glyph-name="Eacute" unicode="&#xc9;" horiz-adv-x="1364" 
d="M584 1648l122 300h332l-220 -300h-234zM170 0v1426h1062v-232h-778v-378h524l2 -222h-526v-362h808v-232h-1092z" />
    <glyph glyph-name="Ecircumflex" unicode="&#xca;" horiz-adv-x="1364" 
d="M170 0v1426h1062v-232h-778v-378h524l2 -222h-526v-362h808v-232h-1092zM702 1750l-128 -102h-232l230 300h258l230 -300h-232q-126 98 -126 102z" />
    <glyph glyph-name="Edieresis" unicode="&#xcb;" horiz-adv-x="1364" 
d="M734 1648v278h276v-278h-276zM392 1648v278h276v-278h-276zM170 0v1426h1062v-232h-778v-378h524l2 -222h-526v-362h808v-232h-1092z" />
    <glyph glyph-name="Igrave" unicode="&#xcc;" horiz-adv-x="634" 
d="M204 1648l-222 300q324 -6 332 0l122 -300h-232zM178 0v1426h284v-1426h-284zM314 1948z" />
    <glyph glyph-name="Iacute" unicode="&#xcd;" horiz-adv-x="634" 
d="M204 1648l122 300q306 -6 330 0l-220 -300h-232zM178 0v1426h284v-1426h-284zM656 1948h2h-2z" />
    <glyph glyph-name="Icircumflex" unicode="&#xce;" horiz-adv-x="634" 
d="M178 0v1426h284v-1426h-284zM320 1750l-126 -102h-232l230 300h256l230 -300h-232q-126 98 -126 102z" />
    <glyph glyph-name="Idieresis" unicode="&#xcf;" horiz-adv-x="634" 
d="M354 1648v278h276v-278h-276zM10 1648v278h276v-278h-276zM178 0v1426h284v-1426h-284z" />
    <glyph glyph-name="Ntilde" unicode="&#xd1;" horiz-adv-x="1606" 
d="M618 1648h-188q0 141 62.5 230.5t153.5 89.5q48 0 91 -16t70.5 -36.5t66 -48t68.5 -41.5q26 -3 35 28t9 94h188q0 -144 -59.5 -232t-156.5 -88q-38 0 -75.5 14.5t-66 35.5t-54.5 42t-52 35.5t-48 14.5q-20 0 -32 -33.5t-12 -88.5zM1150 1426h284v-1426h-402l-578 956
v-956h-284v1426h322l658 -1092v1092z" />
    <glyph glyph-name="Ograve" unicode="&#xd2;" horiz-adv-x="1690" 
d="M728 1648l-222 300h332l122 -300h-232zM414 712q0 -223 114 -347.5t310 -124.5q197 0 316.5 125.5t119.5 346.5q0 139 -61.5 247.5t-163.5 165.5t-225 57q-185 0 -297.5 -128t-112.5 -342zM108 712q0 154 56.5 290.5t153.5 233.5t234 153.5t292 56.5q154 0 290.5 -56.5
t233.5 -153.5t153.5 -233.5t56.5 -290.5q0 -330 -202 -531t-532 -201q-219 0 -386 91t-258.5 257t-91.5 384z" />
    <glyph glyph-name="Oacute" unicode="&#xd3;" horiz-adv-x="1690" 
d="M728 1648l122 300h332l-222 -300h-232zM414 712q0 -223 114 -347.5t310 -124.5q197 0 316.5 125.5t119.5 346.5q0 139 -61.5 247.5t-163.5 165.5t-225 57q-185 0 -297.5 -128t-112.5 -342zM108 712q0 154 56.5 290.5t153.5 233.5t234 153.5t292 56.5q154 0 290.5 -56.5
t233.5 -153.5t153.5 -233.5t56.5 -290.5q0 -330 -202 -531t-532 -201q-219 0 -386 91t-258.5 257t-91.5 384z" />
    <glyph glyph-name="Ocircumflex" unicode="&#xd4;" horiz-adv-x="1690" 
d="M414 712q0 -223 114 -347.5t310 -124.5q197 0 316.5 125.5t119.5 346.5q0 139 -61.5 247.5t-163.5 165.5t-225 57q-185 0 -297.5 -128t-112.5 -342zM108 712q0 154 56.5 290.5t153.5 233.5t234 153.5t292 56.5q154 0 290.5 -56.5t233.5 -153.5t153.5 -233.5t56.5 -290.5
q0 -330 -202 -531t-532 -201q-219 0 -386 91t-258.5 257t-91.5 384zM844 1750l-126 -102h-232l230 300h256l230 -300h-232q-126 98 -126 102z" />
    <glyph glyph-name="Otilde" unicode="&#xd5;" horiz-adv-x="1690" 
d="M660 1648h-188q0 144 59.5 232t156.5 88q61 0 135 -35.5t117 -70.5l44 -36q20 0 32 33.5t12 88.5h188q0 -144 -59.5 -232t-156.5 -88q-38 0 -75.5 14.5t-66 35.5t-54.5 42t-52 35.5t-48 14.5q-20 0 -32 -33.5t-12 -88.5zM414 712q0 -223 114 -347.5t310 -124.5
q197 0 316.5 125.5t119.5 346.5q0 139 -61.5 247.5t-163.5 165.5t-225 57q-185 0 -297.5 -128t-112.5 -342zM108 712q0 154 56.5 290.5t153.5 233.5t234 153.5t292 56.5q154 0 290.5 -56.5t233.5 -153.5t153.5 -233.5t56.5 -290.5q0 -330 -202 -531t-532 -201
q-219 0 -386 91t-258.5 257t-91.5 384z" />
    <glyph glyph-name="Odieresis" unicode="&#xd6;" horiz-adv-x="1690" 
d="M878 1648v278h276v-278h-276zM534 1648v278h276v-278h-276zM414 712q0 -223 114 -347.5t310 -124.5q197 0 316.5 125.5t119.5 346.5q0 139 -61.5 247.5t-163.5 165.5t-225 57q-185 0 -297.5 -128t-112.5 -342zM108 712q0 154 56.5 290.5t153.5 233.5t234 153.5t292 56.5
q154 0 290.5 -56.5t233.5 -153.5t153.5 -233.5t56.5 -290.5q0 -330 -202 -531t-532 -201q-219 0 -386 91t-258.5 257t-91.5 384z" />
    <glyph glyph-name="Oslash" unicode="&#xd8;" horiz-adv-x="1690" 
d="M108 712q0 154 56.5 290.5t153.5 233.5t234 153.5t292 56.5q254 0 448 -144l128 144h158l-198 -222q94 -99 146 -231t52 -281q0 -330 -202 -531t-532 -201q-271 0 -456 136l-122 -136h-158l190 212q-190 203 -190 520zM1102 1090q-120 92 -278 92q-185 0 -297.5 -128
t-112.5 -342q0 -180 78 -302zM1184 1006l-610 -682q102 -84 264 -84q197 0 316.5 125.5t119.5 346.5q0 169 -90 294z" />
    <glyph glyph-name="Ugrave" unicode="&#xd9;" horiz-adv-x="1552" 
d="M656 1628l-220 300h332l122 -300h-234zM156 1426h284v-828q0 -176 84.5 -266t249.5 -90t249.5 90t84.5 266l-2 828h284v-878q0 -281 -156 -424.5t-460 -143.5q-306 0 -462 143.5t-156 424.5v878z" />
    <glyph glyph-name="Uacute" unicode="&#xda;" horiz-adv-x="1552" 
d="M656 1628l122 300h332l-220 -300h-234zM156 1426h284v-828q0 -176 84.5 -266t249.5 -90t249.5 90t84.5 266l-2 828h284v-878q0 -281 -156 -424.5t-460 -143.5q-306 0 -462 143.5t-156 424.5v878z" />
    <glyph glyph-name="Ucircumflex" unicode="&#xdb;" horiz-adv-x="1552" 
d="M156 1426h284v-828q0 -176 84.5 -266t249.5 -90t249.5 90t84.5 266l-2 828h284v-878q0 -281 -156 -424.5t-460 -143.5q-306 0 -462 143.5t-156 424.5v878zM774 1730l-128 -102h-232l230 300h258l230 -300h-232q-126 98 -126 102z" />
    <glyph glyph-name="Udieresis" unicode="&#xdc;" horiz-adv-x="1552" 
d="M806 1628v278h276v-278h-276zM464 1628v278h276v-278h-276zM156 1426h284v-828q0 -176 84.5 -266t249.5 -90t249.5 90t84.5 266l-2 828h284v-878q0 -281 -156 -424.5t-460 -143.5q-306 0 -462 143.5t-156 424.5v878z" />
    <glyph glyph-name="Yacute" unicode="&#xdd;" horiz-adv-x="1324" 
d="M548 1648l122 300h332l-220 -300h-234zM1012 1426h290l-494 -764v-662h-284v662l-496 764h290l348 -538z" />
    <glyph glyph-name="Thorn" unicode="&#xde;" horiz-adv-x="1310" 
d="M454 0h-284v1426h284v-286h230q274 0 414 -108t140 -320q0 -211 -139.5 -318.5t-414.5 -107.5h-230v-286zM454 506h242q258 0 258 206q0 208 -282 208h-218v-414z" />
    <glyph glyph-name="agrave" unicode="&#xe0;" horiz-adv-x="1388" 
d="M492 1268l-222 300h332l122 -300h-232zM348 512q0 -294 274 -294q97 0 169.5 81t72.5 223t-72 222t-170 80q-132 0 -203 -81t-71 -231zM96 522q0 245 132.5 393.5t349.5 148.5q155 0 286 -112v92h256v-1044h-256v80q-131 -100 -286 -100q-217 0 -349.5 148.5
t-132.5 393.5z" />
    <glyph glyph-name="aacute" unicode="&#xe1;" horiz-adv-x="1388" 
d="M492 1268l122 300h332l-222 -300h-232zM348 512q0 -294 274 -294q97 0 169.5 81t72.5 223t-72 222t-170 80q-132 0 -203 -81t-71 -231zM96 522q0 245 132.5 393.5t349.5 148.5q155 0 286 -112v92h256v-1044h-256v80q-131 -100 -286 -100q-217 0 -349.5 148.5
t-132.5 393.5z" />
    <glyph glyph-name="acircumflex" unicode="&#xe2;" horiz-adv-x="1386" 
d="M348 512q0 -294 274 -294q97 0 169.5 81t72.5 223t-72 222t-170 80q-132 0 -203 -81t-71 -231zM96 522q0 245 132.5 393.5t349.5 148.5q155 0 286 -112v92h256v-1044h-256v80q-131 -100 -286 -100q-217 0 -349.5 148.5t-132.5 393.5zM608 1368l-126 -100h-232l230 300
h256l230 -300h-232q-126 96 -126 100z" />
    <glyph glyph-name="atilde" unicode="&#xe3;" horiz-adv-x="1386" 
d="M424 1268h-188q0 144 59.5 232t156.5 88q48 0 90.5 -16t69.5 -36.5t65.5 -47.5t70.5 -42q11 0 18.5 3t12.5 11.5t8 14.5t4 22t1 24v31v16h188q0 -144 -59.5 -232t-156.5 -88q-47 0 -93 22t-76.5 48t-65.5 48t-61 22q-20 0 -32 -33t-12 -87zM348 512q0 -294 274 -294
q97 0 169.5 81t72.5 223t-72 222t-170 80q-132 0 -203 -81t-71 -231zM96 522q0 245 132.5 393.5t349.5 148.5q155 0 286 -112v92h256v-1044h-256v80q-131 -100 -286 -100q-217 0 -349.5 148.5t-132.5 393.5z" />
    <glyph glyph-name="adieresis" unicode="&#xe4;" horiz-adv-x="1386" 
d="M704 1268v276h276v-276h-276zM236 1268v276h278v-276h-278zM348 512q0 -294 274 -294q97 0 169.5 81t72.5 223t-72 222t-170 80q-132 0 -203 -81t-71 -231zM96 522q0 245 132.5 393.5t349.5 148.5q155 0 286 -112v92h256v-1044h-256v80q-131 -100 -286 -100
q-217 0 -349.5 148.5t-132.5 393.5z" />
    <glyph glyph-name="aring" unicode="&#xe5;" horiz-adv-x="1386" 
d="M560 1438q0 -54 48 -54t48 54q0 52 -48 52q-22 0 -35 -14t-13 -38zM434 1438q0 81 45.5 125.5t128.5 44.5t128.5 -44.5t45.5 -125.5q0 -170 -174 -170t-174 170zM348 512q0 -294 274 -294q97 0 169.5 81t72.5 223t-72 222t-170 80q-132 0 -203 -81t-71 -231zM96 522
q0 245 132.5 393.5t349.5 148.5q155 0 286 -112v92h256v-1044h-256v80q-131 -100 -286 -100q-217 0 -349.5 148.5t-132.5 393.5z" />
    <glyph glyph-name="ccedilla" unicode="&#xe7;" horiz-adv-x="1110" 
d="M520 -242v-2q-27 1 -46 12.5t-24 22.5l-6 11l66 200q-195 43 -302.5 173.5t-107.5 346.5q0 137 46.5 242t129.5 170t192.5 97.5t241.5 32.5q127 0 214.5 -36.5t125.5 -83.5l-4 -214q-22 15 -59.5 41.5t-51.5 35.5t-43 24.5t-51 20.5t-55.5 9.5t-75.5 4.5
q-150 0 -242 -86.5t-92 -257.5q0 -167 93 -249.5t257 -82.5q46 0 80.5 5t67 19.5t52 26t61.5 39t69 44.5l-8 -216q-34 -58 -119 -93t-203 -35q-76 0 -132 8l-30 -92q29 16 60 16q96 0 155 -58t59 -152q0 -96 -64.5 -154t-171.5 -58q-129 0 -172 46v140q40 -38 74 -52t92 -14
q44 0 71 25t27 67q0 39 -25 63.5t-67 24.5q-68 0 -82 -34v2z" />
    <glyph glyph-name="egrave" unicode="&#xe8;" horiz-adv-x="1120" 
d="M500 1268l-222 300h332l122 -300h-232zM1064 328l-6 -196q-46 -69 -147 -110.5t-251 -41.5q-263 0 -413.5 135t-150.5 407t138.5 407t381.5 135q251 0 371.5 -158.5t106.5 -433.5h-254v94v-94h-466q12 -137 87.5 -204.5t198.5 -67.5q73 0 139.5 16t105.5 35t86 43.5
t73 33.5zM834 630q-18 112 -73 173t-145 61q-94 0 -155.5 -58.5t-80.5 -175.5h454z" />
    <glyph glyph-name="eacute" unicode="&#xe9;" horiz-adv-x="1120" 
d="M500 1268l122 300h332l-222 -300h-232zM1064 328l-6 -196q-46 -69 -147 -110.5t-251 -41.5q-263 0 -413.5 135t-150.5 407t138.5 407t381.5 135q251 0 371.5 -158.5t106.5 -433.5h-254v94v-94h-466q12 -137 87.5 -204.5t198.5 -67.5q73 0 139.5 16t105.5 35t86 43.5
t73 33.5zM834 630q-18 112 -73 173t-145 61q-94 0 -155.5 -58.5t-80.5 -175.5h454z" />
    <glyph glyph-name="ecircumflex" unicode="&#xea;" horiz-adv-x="1120" 
d="M1064 328l-6 -196q-46 -69 -147 -110.5t-251 -41.5q-263 0 -413.5 135t-150.5 407t138.5 407t381.5 135q251 0 371.5 -158.5t106.5 -433.5h-254v94v-94h-466q12 -137 87.5 -204.5t198.5 -67.5q73 0 139.5 16t105.5 35t86 43.5t73 33.5zM616 1368l-126 -100h-232l230 300
h256l230 -300h-232q-126 96 -126 100zM834 630q-18 112 -73 173t-145 61q-94 0 -155.5 -58.5t-80.5 -175.5h454z" />
    <glyph glyph-name="edieresis" unicode="&#xeb;" horiz-adv-x="1120" 
d="M650 1268v276h276v-276h-276zM306 1268v276h276v-276h-276zM1064 328l-6 -196q-46 -69 -147 -110.5t-251 -41.5q-263 0 -413.5 135t-150.5 407t138.5 407t381.5 135q251 0 371.5 -158.5t106.5 -433.5h-254v94v-94h-466q12 -137 87.5 -204.5t198.5 -67.5q73 0 139.5 16
t105.5 35t86 43.5t73 33.5zM834 630q-18 112 -73 173t-145 61q-94 0 -155.5 -58.5t-80.5 -175.5h454z" />
    <glyph glyph-name="igrave" unicode="&#xec;" horiz-adv-x="606" 
d="M220 1268l-222 300q320 -2 332 0q4 -4 34.5 -79t59.5 -148l28 -73h-232zM210 0v1044h254v-1044h-254zM330 1568z" />
    <glyph glyph-name="iacute" unicode="&#xed;" horiz-adv-x="606" 
d="M220 1268l122 300q314 -2 332 0l-222 -300h-232zM210 0v1044h254v-1044h-254zM674 1568z" />
    <glyph glyph-name="icircumflex" unicode="&#xee;" horiz-adv-x="606" 
d="M210 0v1044h254v-1044h-254zM336 1368l-126 -100h-232l230 300h256l230 -300h-232q-126 96 -126 100z" />
    <glyph glyph-name="idieresis" unicode="&#xef;" horiz-adv-x="606" 
d="M432 1268v276h276v-276h-276zM-36 1268v276h278v-276h-278zM210 0v1044h254v-1044h-254z" />
    <glyph glyph-name="ntilde" unicode="&#xf1;" horiz-adv-x="1168" 
d="M214 1268q0 142 60 231t156 89q60 0 106 -23.5t95.5 -62t92.5 -56.5q16 -1 25.5 6t13.5 25.5t4.5 33.5t0.5 48v3v3v3h188q0 -144 -59 -232t-155 -88v2v-2q-47 0 -93 22t-76.5 48t-65.5 48t-61 22q-20 0 -32 -33t-12 -87h-188zM782 0q12 444 0 634q-5 57 -53.5 105.5
t-122.5 48.5q-218 0 -218 -154v-634h-254v1044h254v-122q111 132 316 132q154 0 243 -108t89 -312v-634h-254z" />
    <glyph glyph-name="ograve" unicode="&#xf2;" horiz-adv-x="1242" 
d="M502 1268l-222 300h332l122 -300h-232zM336 526q0 -156 77 -243t207 -87q122 0 197 76.5t75 247.5q0 159 -70 245.5t-198 86.5q-58 0 -107.5 -17t-91.5 -53.5t-65.5 -102t-23.5 -153.5zM96 522q0 272 139 407t383 135q262 0 392 -144t130 -398q0 -272 -139 -407
t-383 -135q-262 0 -392 144t-130 398z" />
    <glyph glyph-name="oacute" unicode="&#xf3;" horiz-adv-x="1242" 
d="M502 1268l122 300h332l-222 -300h-232zM336 526q0 -156 77 -243t207 -87q122 0 197 76.5t75 247.5q0 159 -70 245.5t-198 86.5q-58 0 -107.5 -17t-91.5 -53.5t-65.5 -102t-23.5 -153.5zM96 522q0 272 139 407t383 135q262 0 392 -144t130 -398q0 -272 -139 -407
t-383 -135q-262 0 -392 144t-130 398z" />
    <glyph glyph-name="ocircumflex" unicode="&#xf4;" horiz-adv-x="1242" 
d="M336 526q0 -156 77 -243t207 -87q122 0 197 76.5t75 247.5q0 159 -70 245.5t-198 86.5q-58 0 -107.5 -17t-91.5 -53.5t-65.5 -102t-23.5 -153.5zM96 522q0 272 139 407t383 135q262 0 392 -144t130 -398q0 -272 -139 -407t-383 -135q-262 0 -392 144t-130 398zM618 1368
l-126 -100h-232l230 300h256l230 -300h-232q-126 96 -126 100z" />
    <glyph glyph-name="otilde" unicode="&#xf5;" horiz-adv-x="1242" 
d="M434 1268h-188q0 144 59.5 232t156.5 88q61 0 135 -35.5t117 -70.5l44 -36q20 0 32 33.5t12 88.5h188q0 -144 -59.5 -232t-156.5 -88q-47 0 -93 22t-76.5 48t-65.5 48t-61 22q-20 0 -32 -33t-12 -87zM336 526q0 -156 77 -243t207 -87q122 0 197 76.5t75 247.5
q0 159 -70 245.5t-198 86.5q-58 0 -107.5 -17t-91.5 -53.5t-65.5 -102t-23.5 -153.5zM96 522q0 272 139 407t383 135q262 0 392 -144t130 -398q0 -272 -139 -407t-383 -135q-262 0 -392 144t-130 398z" />
    <glyph glyph-name="odieresis" unicode="&#xf6;" horiz-adv-x="1242" 
d="M652 1268v276h276v-276h-276zM308 1268v276h276v-276h-276zM336 526q0 -156 77 -243t207 -87q122 0 197 76.5t75 247.5q0 159 -70 245.5t-198 86.5q-58 0 -107.5 -17t-91.5 -53.5t-65.5 -102t-23.5 -153.5zM96 522q0 272 139 407t383 135q262 0 392 -144t130 -398
q0 -272 -139 -407t-383 -135q-262 0 -392 144t-130 398z" />
    <glyph glyph-name="oslash" unicode="&#xf8;" horiz-adv-x="1242" 
d="M96 522q0 272 139 407t383 135q206 0 332 -92l80 92h110l-128 -148q128 -137 128 -394q0 -272 -139 -407t-383 -135q-206 0 -332 92l-80 -92h-110l128 148q-128 137 -128 394zM796 792q-66 60 -172 60q-58 0 -107.5 -17t-91.5 -53.5t-65.5 -102t-23.5 -153.5
q0 -125 52 -208zM848 726l-406 -472q73 -58 178 -58q122 0 197 76.5t75 247.5q0 121 -44 206z" />
    <glyph glyph-name="ugrave" unicode="&#xf9;" horiz-adv-x="1182" 
d="M470 1268l-220 300l323 -1q11 0 9 1q2 1 32.5 -74t59.5 -150l30 -76h-234zM1040 0h-254v114q-125 -134 -300 -134q-102 0 -170.5 26.5t-108.5 82.5t-56.5 133t-16.5 188v634h254v-634q0 -104 39 -152t139 -48q99 0 159.5 66t60.5 174v594h254v-1044z" />
    <glyph glyph-name="uacute" unicode="&#xfa;" horiz-adv-x="1182" 
d="M470 1268l122 300q320 -4 332 0l-220 -300h-234zM924 1568zM1040 0h-254v114q-125 -134 -300 -134q-102 0 -170.5 26.5t-108.5 82.5t-56.5 133t-16.5 188v634h254v-634q0 -104 39 -152t139 -48q99 0 159.5 66t60.5 174v594h254v-1044z" />
    <glyph glyph-name="ucircumflex" unicode="&#xfb;" horiz-adv-x="1182" 
d="M588 1368l-128 -100h-232l230 300h258l230 -300h-232q-126 96 -126 100zM1040 0h-254v114q-125 -134 -300 -134q-102 0 -170.5 26.5t-108.5 82.5t-56.5 133t-16.5 188v634h254v-634q0 -104 39 -152t139 -48q99 0 159.5 66t60.5 174v594h254v-1044z" />
    <glyph glyph-name="udieresis" unicode="&#xfc;" horiz-adv-x="1182" 
d="M620 1268v276h276v-276h-276zM278 1268v276h276v-276h-276zM1040 0h-254v114q-125 -134 -300 -134q-102 0 -170.5 26.5t-108.5 82.5t-56.5 133t-16.5 188v634h254v-634q0 -104 39 -152t139 -48q99 0 159.5 66t60.5 174v594h254v-1044z" />
    <glyph glyph-name="yacute" unicode="&#xfd;" horiz-adv-x="1040" 
d="M400 1268l122 300h332l-222 -300h-232zM14 1044h288l232 -662l196 662h288l-428 -1248q-42 -127 -134.5 -183.5t-259.5 -56.5q-18 0 -67 5t-89 10l-40 5v236q156 -36 196 -36q90 0 127 13.5t49 50.5l42 142z" />
    <glyph glyph-name="thorn" unicode="&#xfe;" horiz-adv-x="1268" 
d="M272 1524h126v-606q111 146 328 146q198 0 319 -149t121 -393t-121 -393t-319 -149q-217 0 -328 146v-704h-254v2102h128zM398 522q0 -167 65 -249.5t179 -82.5q111 0 179.5 91t68.5 241t-68.5 241t-179.5 91q-114 0 -179 -82.5t-65 -249.5z" />
    <glyph glyph-name="ydieresis" unicode="&#xff;" horiz-adv-x="1040" 
d="M550 1268v276h276v-276h-276zM206 1268v276h276v-276h-276zM14 1044h288l232 -662l196 662h288l-428 -1248q-42 -127 -134.5 -183.5t-259.5 -56.5q-18 0 -67 5t-89 10l-40 5v236q156 -36 196 -36q90 0 127 13.5t49 50.5l42 142z" />
    <glyph glyph-name="Amacron" unicode="&#x100;" 
d="M444 1648v178h108t208.5 0.5t234 0.5t89.5 -1v-178h-640zM14 0l590 1426h310l576 -1426h-308l-104 258l-656 -2q-34 -90 -100 -256h-308zM510 474h484l-242 604q-40 -100 -126 -314.5t-116 -289.5z" />
    <glyph glyph-name="amacron" unicode="&#x101;" horiz-adv-x="1262" 
d="M288 1268v176h640q4 0 2 -88l-2 -88h-640zM348 512q0 -294 274 -294q97 0 169.5 81t72.5 223t-72 222t-170 80q-132 0 -203 -81t-71 -231zM96 522q0 245 132.5 393.5t349.5 148.5q155 0 286 -112v92h256v-1044h-256v80q-131 -100 -286 -100q-217 0 -349.5 148.5
t-132.5 393.5z" />
    <glyph glyph-name="Abreve" unicode="&#x102;" 
d="M420 1926h188q0 -53 45 -85.5t111 -34.5q71 -1 113.5 32t42.5 88h188q0 -134 -95 -216t-249 -82t-249 82t-95 216zM14 0l590 1426h310l576 -1426h-308l-104 258l-656 -2q-34 -90 -100 -256h-308zM510 474h484l-242 604q-40 -100 -126 -314.5t-116 -289.5z" />
    <glyph glyph-name="abreve" unicode="&#x103;" horiz-adv-x="1262" 
d="M264 1544h188q0 -54 43 -87t113 -33q74 0 115 32.5t41 87.5h188q0 -133 -94.5 -214.5t-249.5 -81.5t-249.5 81.5t-94.5 214.5zM348 512q0 -294 274 -294q97 0 169.5 81t72.5 223t-72 222t-170 80q-132 0 -203 -81t-71 -231zM96 522q0 245 132.5 393.5t349.5 148.5
q155 0 286 -112v92h256v-1044h-256v80q-131 -100 -286 -100q-217 0 -349.5 148.5t-132.5 393.5z" />
    <glyph glyph-name="Aogonek" unicode="&#x104;" 
d="M14 0l590 1426h310l576 -1426q-29 -17 -66.5 -71.5t-37.5 -100.5q0 -47 42.5 -75.5t111.5 -28.5q109 0 132 26l24 -138q-36 -42 -170 -42q-127 0 -203.5 63.5t-78.5 170.5q3 42 35 94.5t77 101.5h-174l-104 258l-656 -2q-34 -90 -100 -256h-308zM510 474h484l-242 604
q-40 -100 -126 -314.5t-116 -289.5z" />
    <glyph glyph-name="aogonek" unicode="&#x105;" horiz-adv-x="1262" 
d="M348 512q0 -294 274 -294q97 0 169.5 81t72.5 223t-72 222t-170 80q-132 0 -203 -81t-71 -231zM96 522q0 245 132.5 393.5t349.5 148.5q155 0 286 -112v92h256v-1044q-29 -16 -66.5 -69.5t-37.5 -96.5q0 -49 42.5 -79.5t111.5 -30.5q109 0 132 26l24 -138
q-36 -42 -170 -42q-126 0 -201.5 65.5t-80.5 174.5q0 35 38 87t94 103h-142v80q-131 -100 -286 -100q-217 0 -349.5 148.5t-132.5 393.5z" />
    <glyph glyph-name="Cacute" unicode="&#x106;" horiz-adv-x="1430" 
d="M626 1648l122 300h332l-220 -300h-234zM1390 402l-2 -254q-39 -75 -171 -121.5t-309 -46.5q-178 0 -331 59t-257 158.5t-163 233t-59 281.5t59 281.5t163 234t257 159.5t331 59q167 0 299 -45.5t181 -120.5l-2 -226q-71 56 -207 108t-271 52q-147 0 -263.5 -69
t-178.5 -183t-62 -250q0 -135 62 -248.5t178.5 -182.5t263.5 -69q159 0 274 48t208 142z" />
    <glyph glyph-name="cacute" unicode="&#x107;" horiz-adv-x="1106" 
d="M590 1268l122 300h332l-222 -300h-232zM1052 324l-8 -216q-34 -58 -119 -93t-203 -35q-192 0 -330 56.5t-217 179.5t-79 306q0 137 46.5 242t129.5 170t192.5 97.5t241.5 32.5q127 0 214.5 -36.5t125.5 -83.5l-4 -214q-22 15 -59.5 41.5t-51.5 35.5t-43 24.5t-51 20.5
t-55.5 9.5t-75.5 4.5q-150 0 -242 -86.5t-92 -257.5q0 -167 93 -249.5t257 -82.5q46 0 80.5 5t67 19.5t52 26t61.5 39t69 44.5z" />
    <glyph glyph-name="Ccircumflex" unicode="&#x108;" horiz-adv-x="1430" 
d="M1390 402l-2 -254q-39 -75 -171 -121.5t-309 -46.5q-178 0 -331 59t-257 158.5t-163 233t-59 281.5t59 281.5t163 234t257 159.5t331 59q167 0 299 -45.5t181 -120.5l-2 -226q-71 56 -207 108t-271 52q-147 0 -263.5 -69t-178.5 -183t-62 -250q0 -135 62 -248.5
t178.5 -182.5t263.5 -69q159 0 274 48t208 142zM744 1750l-128 -102h-232l230 300h258l230 -300h-232q-126 98 -126 102z" />
    <glyph glyph-name="Cdotaccent" unicode="&#x10a;" horiz-adv-x="1430" 
d="M604 1648v278h278v-278h-278zM1390 402l-2 -254q-39 -75 -171 -121.5t-309 -46.5q-178 0 -331 59t-257 158.5t-163 233t-59 281.5t59 281.5t163 234t257 159.5t331 59q167 0 299 -45.5t181 -120.5l-2 -226q-71 56 -207 108t-271 52q-147 0 -263.5 -69t-178.5 -183
t-62 -250q0 -135 62 -248.5t178.5 -182.5t263.5 -69q159 0 274 48t208 142z" />
    <glyph glyph-name="cdotaccent" unicode="&#x10b;" horiz-adv-x="1106" 
d="M568 1268v276h276v-276h-276zM1052 324l-8 -216q-34 -58 -119 -93t-203 -35q-192 0 -330 56.5t-217 179.5t-79 306q0 137 46.5 242t129.5 170t192.5 97.5t241.5 32.5q127 0 214.5 -36.5t125.5 -83.5l-4 -214q-22 15 -59.5 41.5t-51.5 35.5t-43 24.5t-51 20.5t-55.5 9.5
t-75.5 4.5q-150 0 -242 -86.5t-92 -257.5q0 -167 93 -249.5t257 -82.5q46 0 80.5 5t67 19.5t52 26t61.5 39t69 44.5z" />
    <glyph glyph-name="Ccaron" unicode="&#x10c;" horiz-adv-x="1430" 
d="M744 1848q17 0 48.5 25.5t54.5 50.5l23 26h232l-230 -300h-258l-230 300h232zM1390 402l-2 -254q-39 -75 -171 -121.5t-309 -46.5q-178 0 -331 59t-257 158.5t-163 233t-59 281.5t59 281.5t163 234t257 159.5t331 59q167 0 299 -45.5t181 -120.5l-2 -226q-71 56 -207 108
t-271 52q-147 0 -263.5 -69t-178.5 -183t-62 -250q0 -135 62 -248.5t178.5 -182.5t263.5 -69q159 0 274 48t208 142z" />
    <glyph glyph-name="ccaron" unicode="&#x10d;" horiz-adv-x="1106" 
d="M706 1466q17 0 48.5 25t54.5 50l23 25h232l-230 -300h-256l-230 300h232zM1052 324l-8 -216q-34 -58 -119 -93t-203 -35q-192 0 -330 56.5t-217 179.5t-79 306q0 137 46.5 242t129.5 170t192.5 97.5t241.5 32.5q127 0 214.5 -36.5t125.5 -83.5l-4 -214q-22 15 -59.5 41.5
t-51.5 35.5t-43 24.5t-51 20.5t-55.5 9.5t-75.5 4.5q-150 0 -242 -86.5t-92 -257.5q0 -167 93 -249.5t257 -82.5q46 0 80.5 5t67 19.5t52 26t61.5 39t69 44.5z" />
    <glyph glyph-name="Dcaron" unicode="&#x10e;" horiz-adv-x="1594" 
d="M674 1848q17 0 48.5 25.5t54.5 50.5l23 26h232l-230 -300h-256l-230 300h232zM170 0v1426h504q401 0 604.5 -180t203.5 -534q0 -362 -183.5 -537t-564.5 -175h-564zM454 220h260q236 0 350 121t114 371q0 244 -125 369t-369 125h-230v-986z" />
    <glyph glyph-name="dcaron" unicode="&#x10f;" horiz-adv-x="1298" 
d="M1256 1544h276l-90 -300h-188zM328 530q0 -146 82 -233t204 -87q125 0 206.5 83.5t81.5 228.5q0 146 -81 231t-205 85t-206 -81.5t-82 -226.5zM96 522q0 243 125 390t331 152q202 6 350 -100v560h254v-1524h-254v76q-149 -105 -350 -96q-207 8 -331.5 153.5t-124.5 388.5
z" />
    <glyph glyph-name="Dcroat" unicode="&#x110;" horiz-adv-x="1594" 
d="M10 624v178h160v624h504q401 0 604.5 -180t203.5 -534q0 -362 -183.5 -537t-564.5 -175h-564v624h-160zM454 220h260q236 0 350 121t114 371q0 244 -125 369t-369 125h-230v-404h220v-178h-220v-404z" />
    <glyph glyph-name="dcroat" unicode="&#x111;" horiz-adv-x="1298" 
d="M552 1206v176h350v142h254v-142h238v-176h-238v-1206h-254v76q-149 -105 -350 -96q-207 8 -331.5 153.5t-124.5 388.5t125 390t331 152q202 6 350 -100v242h-350zM328 530q0 -146 82 -233t204 -87q125 0 206.5 83.5t81.5 228.5q0 146 -81 231t-205 85t-206 -81.5
t-82 -226.5z" />
    <glyph glyph-name="Emacron" unicode="&#x112;" horiz-adv-x="1364" 
d="M380 1648v178h642v-178h-642zM170 0v1426h1062v-232h-778v-378h524l2 -222h-526v-362h808v-232h-1092z" />
    <glyph glyph-name="emacron" unicode="&#x113;" horiz-adv-x="1120" 
d="M296 1268v176h640v-176h-640zM1064 328l-6 -196q-46 -69 -147 -110.5t-251 -41.5q-263 0 -413.5 135t-150.5 407t138.5 407t381.5 135q251 0 371.5 -158.5t106.5 -433.5h-254v94v-94h-466q12 -137 87.5 -204.5t198.5 -67.5q73 0 139.5 16t105.5 35t86 43.5t73 33.5z
M834 630q-18 112 -73 173t-145 61q-94 0 -155.5 -58.5t-80.5 -175.5h454z" />
    <glyph glyph-name="Ebreve" unicode="&#x114;" horiz-adv-x="1364" 
d="M356 1926h188q0 -54 43.5 -87t114.5 -33q70 0 113 33t43 87h188q0 -134 -95 -216t-249 -82q-156 0 -251 82t-95 216zM170 0v1426h1062v-232h-778v-378h524l2 -222h-526v-362h808v-232h-1092z" />
    <glyph glyph-name="ebreve" unicode="&#x115;" horiz-adv-x="1120" 
d="M272 1544h188q0 -54 43 -87t113 -33t113 33t43 87h188q0 -133 -94.5 -214.5t-249.5 -81.5t-249.5 81.5t-94.5 214.5zM1064 328l-6 -196q-46 -69 -147 -110.5t-251 -41.5q-263 0 -413.5 135t-150.5 407t138.5 407t381.5 135q251 0 371.5 -158.5t106.5 -433.5h-254v94v-94
h-466q12 -137 87.5 -204.5t198.5 -67.5q73 0 139.5 16t105.5 35t86 43.5t73 33.5zM834 630q-18 112 -73 173t-145 61q-94 0 -155.5 -58.5t-80.5 -175.5h454z" />
    <glyph glyph-name="Edotaccent" unicode="&#x116;" horiz-adv-x="1364" 
d="M562 1648v278h278v-278h-278zM170 0v1426h1062v-232h-778v-378h524l2 -222h-526v-362h808v-232h-1092z" />
    <glyph glyph-name="edotaccent" unicode="&#x117;" horiz-adv-x="1120" 
d="M478 1268v276h276v-276h-276zM1064 328l-6 -196q-46 -69 -147 -110.5t-251 -41.5q-263 0 -413.5 135t-150.5 407t138.5 407t381.5 135q251 0 371.5 -158.5t106.5 -433.5h-254v94v-94h-466q12 -137 87.5 -204.5t198.5 -67.5q73 0 139.5 16t105.5 35t86 43.5t73 33.5z
M834 630q-18 112 -73 173t-145 61q-94 0 -155.5 -58.5t-80.5 -175.5h454z" />
    <glyph glyph-name="Eogonek" unicode="&#x118;" horiz-adv-x="1364" 
d="M170 0v1426h1062v-232h-778v-378h524l2 -222h-526v-362h808v-232h-510q-29 -16 -66.5 -69.5t-37.5 -96.5q0 -49 42.5 -79.5t111.5 -30.5q109 0 132 26l24 -138q-36 -42 -170 -42q-127 0 -204.5 66t-77.5 174q0 35 38 87t94 103h-468z" />
    <glyph glyph-name="eogonek" unicode="&#x119;" horiz-adv-x="1120" 
d="M804 -156q0 -54 42.5 -87t111.5 -33q109 0 132 26l24 -138q-36 -42 -170 -42q-127 0 -204.5 68.5t-77.5 181.5q0 59 100 166q-48 -6 -102 -6q-263 0 -413.5 135t-150.5 407t138.5 407t381.5 135q251 0 371.5 -158.5t106.5 -433.5h-254v94v-94h-466q12 -137 87.5 -204.5
t198.5 -67.5q73 0 139.5 16t105.5 35t86 43.5t73 33.5l-6 -196q-46 -70 -150 -112q-29 -17 -66.5 -72.5t-37.5 -103.5zM834 630q-18 112 -73 173t-145 61q-94 0 -155.5 -58.5t-80.5 -175.5h454z" />
    <glyph glyph-name="Ecaron" unicode="&#x11a;" horiz-adv-x="1364" 
d="M702 1848q17 0 48.5 25.5t54.5 50.5l23 26h232l-230 -300h-258l-230 300h232zM170 0v1426h1062v-232h-778v-378h524l2 -222h-526v-362h808v-232h-1092z" />
    <glyph glyph-name="ecaron" unicode="&#x11b;" horiz-adv-x="1120" 
d="M616 1466q17 0 48.5 25t54.5 50l23 25h232l-230 -300h-256l-230 300h232zM1064 328l-6 -196q-46 -69 -147 -110.5t-251 -41.5q-263 0 -413.5 135t-150.5 407t138.5 407t381.5 135q251 0 371.5 -158.5t106.5 -433.5h-254v94v-94h-466q12 -137 87.5 -204.5t198.5 -67.5
q73 0 139.5 16t105.5 35t86 43.5t73 33.5zM834 630q-18 112 -73 173t-145 61q-94 0 -155.5 -58.5t-80.5 -175.5h454z" />
    <glyph glyph-name="Gcircumflex" unicode="&#x11c;" horiz-adv-x="1604" 
d="M1106 716h406v-548q-103 -86 -265 -137t-351 -51q-237 0 -418 91t-280.5 257t-99.5 384t99.5 384.5t280.5 258t418 91.5q180 0 344 -82t254 -216l-196 -188q-77 114 -187 184t-215 70q-222 0 -357 -137.5t-135 -364.5q0 -225 135 -362.5t357 -137.5q112 0 201.5 25.5
t142.5 68.5v178h-128zM896 1750l-126 -102h-232l230 300h256l230 -300h-232q-126 98 -126 102z" />
    <glyph glyph-name="Gbreve" unicode="&#x11e;" horiz-adv-x="1604" 
d="M552 1926h188q0 -54 43 -87t113 -33t113 33t43 87h188q0 -134 -95 -216t-249 -82t-249 82t-95 216zM1106 716h406v-548q-103 -86 -265 -137t-351 -51q-237 0 -418 91t-280.5 257t-99.5 384t99.5 384.5t280.5 258t418 91.5q180 0 344 -82t254 -216l-196 -188
q-77 114 -187 184t-215 70q-222 0 -357 -137.5t-135 -364.5q0 -225 135 -362.5t357 -137.5q112 0 201.5 25.5t142.5 68.5v178h-128z" />
    <glyph glyph-name="gbreve" unicode="&#x11f;" horiz-adv-x="1278" 
d="M272 1544h188q0 -54 43 -87t113 -33t113 33t43 87h188q0 -133 -94.5 -214.5t-249.5 -81.5t-249.5 81.5t-94.5 214.5zM124 -366l18 280q161 -170 470 -170q131 0 200.5 73t69.5 197v68q-137 -85 -340 -82q-446 7 -446 522q0 539 446 542q201 3 340 -98v78h254v-990
q0 -251 -133 -396.5t-387 -145.5q-183 0 -270.5 21.5t-221.5 100.5zM352 530q0 -304 258 -304q119 0 195.5 79.5t76.5 216.5q0 146 -76 227t-196 81q-61 0 -105 -13.5t-80 -46t-54.5 -92.5t-18.5 -148z" />
    <glyph glyph-name="Gdotaccent" unicode="&#x120;" horiz-adv-x="1604" 
d="M758 1648v278h276v-278h-276zM1106 716h406v-548q-103 -86 -265 -137t-351 -51q-237 0 -418 91t-280.5 257t-99.5 384t99.5 384.5t280.5 258t418 91.5q180 0 344 -82t254 -216l-196 -188q-77 114 -187 184t-215 70q-222 0 -357 -137.5t-135 -364.5q0 -225 135 -362.5
t357 -137.5q112 0 201.5 25.5t142.5 68.5v178h-128z" />
    <glyph glyph-name="gdotaccent" unicode="&#x121;" horiz-adv-x="1278" 
d="M478 1268v276h276v-276h-276zM124 -366l18 280q161 -170 470 -170q131 0 200.5 73t69.5 197v68q-137 -85 -340 -82q-446 7 -446 522q0 539 446 542q201 3 340 -98v78h254v-990q0 -251 -133 -396.5t-387 -145.5q-183 0 -270.5 21.5t-221.5 100.5zM352 530q0 -304 258 -304
q119 0 195.5 79.5t76.5 216.5q0 146 -76 227t-196 81q-61 0 -105 -13.5t-80 -46t-54.5 -92.5t-18.5 -148z" />
    <glyph glyph-name="Hcircumflex" unicode="&#x124;" horiz-adv-x="1660" 
d="M170 0v1426h284v-600h750v600h284v-1426h-284v594h-750v-594h-284zM828 1750l-126 -102h-232l230 300h256l230 -300h-232q-126 98 -126 102z" />
    <glyph glyph-name="Itilde" unicode="&#x128;" horiz-adv-x="634" 
d="M136 1648h-188q0 145 59.5 234t156.5 86q61 0 108 -24t97 -62.5t91 -55.5q26 -4 35 27t9 95h188q0 -144 -59.5 -232t-156.5 -88v0q-38 0 -75.5 14.5t-66 35.5t-54.5 42t-52 35.5t-48 14.5q-20 0 -32 -33.5t-12 -88.5zM178 0v1426h284v-1426h-284z" />
    <glyph glyph-name="itilde" unicode="&#x129;" horiz-adv-x="606" 
d="M152 1268h-188q0 143 60.5 232.5t155.5 87.5q61 0 108.5 -25t96.5 -63t91 -54q26 -6 35 26t9 96h188q0 -144 -59.5 -232t-156.5 -88q-47 0 -93 22t-76.5 48t-65.5 48t-61 22q-20 0 -32 -33t-12 -87zM210 0v1044h254v-1044h-254z" />
    <glyph glyph-name="Imacron" unicode="&#x12a;" horiz-adv-x="634" 
d="M0 1648v178q640 4 640 0q7 -3 7 -47.5t-3 -87.5l-4 -43h-640zM178 0v1426h284v-1426h-284z" />
    <glyph glyph-name="imacron" unicode="&#x12b;" horiz-adv-x="606" 
d="M16 1268v176h49.5t115.5 0.5t158 0.5h151t122 -0.5t44 -0.5q9 -1 9 -45t-5 -87l-4 -44h-640zM210 0v1044h254v-1044h-254z" />
    <glyph glyph-name="Ibreve" unicode="&#x12c;" horiz-adv-x="634" 
d="M-24 1926h188q0 -53 42.5 -85t113.5 -35q79 -4 117.5 29t38.5 91h188q0 -134 -95 -216t-249 -82t-249 82t-95 216zM178 0v1426h284v-1426h-284z" />
    <glyph glyph-name="ibreve" unicode="&#x12d;" horiz-adv-x="606" 
d="M-8 1544h188q0 -53 43.5 -85.5t112.5 -34.5q156 -3 156 120h188q0 -133 -94.5 -214.5t-249.5 -81.5t-249.5 81.5t-94.5 214.5zM210 0v1044h254v-1044h-254z" />
    <glyph glyph-name="Idotaccent" unicode="&#x130;" horiz-adv-x="634" 
d="M182 1648v278h276v-278h-276zM178 0v1426h284v-1426h-284z" />
    <glyph glyph-name="dotlessi" unicode="&#x131;" horiz-adv-x="606" 
d="M210 0v1044h254v-1044h-254z" />
    <glyph glyph-name="Jcircumflex" unicode="&#x134;" horiz-adv-x="1082" 
d="M160 134v82l2 98q63 -43 119.5 -57.5t174.5 -14.5q82 0 126 47.5t44 128.5v1008h284v-1008q0 -202 -117 -320t-337 -118q-121 0 -182.5 13t-111.5 49zM768 1750l-126 -102h-232l230 300h256l230 -300h-232q-126 98 -126 102z" />
    <glyph glyph-name="Lacute" unicode="&#x139;" horiz-adv-x="1232" 
d="M204 1648l122 300h332l-222 -300h-232zM178 0v1426h284v-1194h708v-232h-992z" />
    <glyph glyph-name="lacute" unicode="&#x13a;" horiz-adv-x="526" 
d="M76 1634l122 300h332l-220 -300h-234zM130 0v1524h254v-1524h-254z" />
    <glyph glyph-name="Lcaron" unicode="&#x13d;" horiz-adv-x="1232" 
d="M676 1446h278l-90 -300h-188v300zM178 0v1426h284v-1194h708v-232h-992z" />
    <glyph glyph-name="lcaron" unicode="&#x13e;" horiz-adv-x="526" 
d="M484 1544h276l-90 -300h-188zM130 0v1524h254v-1524h-254z" />
    <glyph glyph-name="Lslash" unicode="&#x141;" horiz-adv-x="1232" 
d="M18 518v190l160 40v678h284v-606l354 88v-190l-354 -88v-398h708v-232h-992v558z" />
    <glyph glyph-name="lslash" unicode="&#x142;" horiz-adv-x="526" 
d="M-30 568v188l160 56v712h254v-624l160 56v-188l-160 -56v-712h-254v624z" />
    <glyph glyph-name="Nacute" unicode="&#x143;" horiz-adv-x="1606" 
d="M486 1648l122 300h332q5 0 -50.5 -75t-113.5 -150l-58 -75h-232zM1150 1426h284v-1426h-402l-578 956v-956h-284v1426h322l658 -1092v1092z" />
    <glyph glyph-name="nacute" unicode="&#x144;" horiz-adv-x="1168" 
d="M468 1268l122 300h332q1 -2 -54 -77t-110 -149l-56 -74h-234zM782 0q12 444 0 634q-5 57 -53.5 105.5t-122.5 48.5q-218 0 -218 -154v-634h-254v1044h254v-122q111 132 316 132q154 0 243 -108t89 -312v-634h-254z" />
    <glyph glyph-name="Ncaron" unicode="&#x147;" horiz-adv-x="1606" 
d="M802 1848q17 0 48.5 25.5t54.5 50.5l23 26h232l-230 -300h-256l-230 300h232zM1150 1426h284v-1426h-402l-578 956v-956h-284v1426h322l658 -1092v1092z" />
    <glyph glyph-name="ncaron" unicode="&#x148;" horiz-adv-x="1168" 
d="M586 1466q17 0 48.5 25t54.5 50l23 25h232l-230 -300h-258l-230 300h232zM782 0q12 444 0 634q-5 57 -53.5 105.5t-122.5 48.5q-218 0 -218 -154v-634h-254v1044h254v-122q111 132 316 132q154 0 243 -108t89 -312v-634h-254z" />
    <glyph glyph-name="Omacron" unicode="&#x14c;" horiz-adv-x="1690" 
d="M524 1648v178h640v-178h-640zM414 712q0 -223 114 -347.5t310 -124.5q197 0 316.5 125.5t119.5 346.5q0 139 -61.5 247.5t-163.5 165.5t-225 57q-185 0 -297.5 -128t-112.5 -342zM108 712q0 154 56.5 290.5t153.5 233.5t234 153.5t292 56.5q154 0 290.5 -56.5
t233.5 -153.5t153.5 -233.5t56.5 -290.5q0 -330 -202 -531t-532 -201q-219 0 -386 91t-258.5 257t-91.5 384z" />
    <glyph glyph-name="omacron" unicode="&#x14d;" horiz-adv-x="1242" 
d="M298 1268v176h640v-176h-640zM336 526q0 -156 77 -243t207 -87q122 0 197 76.5t75 247.5q0 159 -70 245.5t-198 86.5q-58 0 -107.5 -17t-91.5 -53.5t-65.5 -102t-23.5 -153.5zM96 522q0 272 139 407t383 135q262 0 392 -144t130 -398q0 -272 -139 -407t-383 -135
q-262 0 -392 144t-130 398z" />
    <glyph glyph-name="Obreve" unicode="&#x14e;" horiz-adv-x="1690" 
d="M500 1926h188q0 -54 43 -87t113 -33t113 33t43 87h188q0 -134 -95 -216t-249 -82t-249 82t-95 216zM414 712q0 -223 114 -347.5t310 -124.5q197 0 316.5 125.5t119.5 346.5q0 139 -61.5 247.5t-163.5 165.5t-225 57q-185 0 -297.5 -128t-112.5 -342zM108 712
q0 154 56.5 290.5t153.5 233.5t234 153.5t292 56.5q154 0 290.5 -56.5t233.5 -153.5t153.5 -233.5t56.5 -290.5q0 -330 -202 -531t-532 -201q-219 0 -386 91t-258.5 257t-91.5 384z" />
    <glyph glyph-name="obreve" unicode="&#x14f;" horiz-adv-x="1242" 
d="M274 1544h188q0 -54 43 -87t113 -33t113 33t43 87h188q0 -133 -94.5 -214.5t-249.5 -81.5t-249.5 81.5t-94.5 214.5zM336 526q0 -156 77 -243t207 -87q122 0 197 76.5t75 247.5q0 159 -70 245.5t-198 86.5q-58 0 -107.5 -17t-91.5 -53.5t-65.5 -102t-23.5 -153.5zM96 522
q0 272 139 407t383 135q262 0 392 -144t130 -398q0 -272 -139 -407t-383 -135q-262 0 -392 144t-130 398z" />
    <glyph glyph-name="Racute" unicode="&#x154;" horiz-adv-x="1310" 
d="M588 1648l122 300h332l-222 -300h-232zM170 0v1426h514q274 0 414 -108t140 -320q0 -283 -260 -374l366 -624h-326l-340 580h-224v-580h-284zM454 800h238q105 -6 166.5 46.5t61.5 149.5q0 104 -64 158.5t-184 51.5q-66 -2 -218 -2v-404z" />
    <glyph glyph-name="racute" unicode="&#x155;" horiz-adv-x="902" 
d="M386 1268l122 300h332l-222 -300h-232zM860 776q-9 7 -24.5 17t-61.5 26.5t-90 16.5q-156 -1 -221 -73.5t-65 -208.5v-554h-254v1044h254v-82q102 102 280 102q61 0 102.5 -15.5t79.5 -50.5v-222z" />
    <glyph glyph-name="Rcaron" unicode="&#x158;" horiz-adv-x="1310" 
d="M704 1848q17 0 48.5 25.5t54.5 50.5l23 26h232l-230 -300h-256l-230 300h232zM170 0v1426h514q274 0 414 -108t140 -320q0 -283 -260 -374l366 -624h-326l-340 580h-224v-580h-284zM454 800h238q105 -6 166.5 46.5t61.5 149.5q0 104 -64 158.5t-184 51.5q-66 -2 -218 -2
v-404z" />
    <glyph glyph-name="rcaron" unicode="&#x159;" horiz-adv-x="902" 
d="M502 1466q17 0 48.5 25t54.5 50l23 25h232l-230 -300h-256l-230 300h232zM860 776q-9 7 -24.5 17t-61.5 26.5t-90 16.5q-156 -1 -221 -73.5t-65 -208.5v-554h-254v1044h254v-82q102 102 280 102q61 0 102.5 -15.5t79.5 -50.5v-222z" />
    <glyph glyph-name="Sacute" unicode="&#x15a;" horiz-adv-x="1316" 
d="M490 1648l122 300h332l-220 -300h-234zM104 150l-28 374q74 -137 233 -216.5t351 -79.5q129 0 199.5 44.5t70.5 119.5q0 76 -87.5 127.5t-254.5 70.5q-257 30 -398.5 146t-141.5 300q0 121 70 215t193 144.5t277 50.5q168 0 310 -41.5t212 -112.5l14 -300
q-90 93 -236.5 147.5t-299.5 54.5q-55 0 -96.5 -5t-77.5 -17.5t-57.5 -36.5t-26.5 -59q-10 -59 35 -101.5t119 -64t182 -34.5q270 -32 424 -159t154 -323q0 -190 -157 -302t-427 -112q-198 0 -345.5 49t-210.5 121z" />
    <glyph glyph-name="sacute" unicode="&#x15b;" horiz-adv-x="1038" 
d="M390 1268l122 300h332l-222 -300h-232zM112 134l-16 268q41 -91 161.5 -151.5t268.5 -60.5q77 0 126.5 28t49.5 78q0 44 -55 78t-151 44q-198 21 -311 107t-113 213q0 141 123 228.5t311 87.5q136 0 240 -34t130 -84l46 -234q-37 70 -158.5 117t-257.5 47
q-87 0 -137.5 -22t-56.5 -80q-6 -50 59 -77.5t187 -40.5q210 -22 314 -104.5t104 -213.5q0 -149 -129 -243.5t-321 -94.5q-154 0 -269.5 41t-144.5 103z" />
    <glyph glyph-name="Scircumflex" unicode="&#x15c;" horiz-adv-x="1316" 
d="M608 1750l-128 -102h-232l230 300h258l230 -300h-232q-126 98 -126 102zM104 150l-28 374q74 -137 233 -216.5t351 -79.5q129 0 199.5 44.5t70.5 119.5q0 76 -87.5 127.5t-254.5 70.5q-257 30 -398.5 146t-141.5 300q0 121 70 215t193 144.5t277 50.5q168 0 310 -41.5
t212 -112.5l14 -300q-90 93 -236.5 147.5t-299.5 54.5q-55 0 -96.5 -5t-77.5 -17.5t-57.5 -36.5t-26.5 -59q-10 -59 35 -101.5t119 -64t182 -34.5q270 -32 424 -159t154 -323q0 -190 -157 -302t-427 -112q-198 0 -345.5 49t-210.5 121z" />
    <glyph glyph-name="Scedilla" unicode="&#x15e;" horiz-adv-x="1316" 
d="M688 -210q-33 0 -55 -9.5t-27 -24.5v2v-2q-27 1 -46 12.5t-24 22.5l-6 11l48 180q-169 10 -293.5 57t-180.5 111l-28 374q74 -137 233 -216.5t351 -79.5q131 0 199.5 40t68.5 114q0 77 -88 133t-252 75q-257 30 -398.5 146t-141.5 300q0 121 70 215t193 144.5t277 50.5
q168 0 310 -41.5t212 -112.5l14 -300q-90 93 -236.5 147.5t-299.5 54.5q-73 0 -122 -10t-82 -39t-38 -77q-8 -88 72.5 -130t247.5 -62q270 -32 424 -159t154 -323q0 -188 -155.5 -300.5t-422.5 -113.5l-24 -88q30 20 68 20q96 0 155 -58t59 -152q0 -96 -64.5 -154
t-171.5 -58q-129 0 -172 46v140q40 -38 74 -52t92 -14q44 0 71 25t27 67q0 39 -25 63.5t-67 24.5z" />
    <glyph glyph-name="scedilla" unicode="&#x15f;" horiz-adv-x="1038" 
d="M554 -210q-33 0 -55 -9.5t-27 -24.5v2v-2q-27 1 -46 12.5t-24 22.5l-6 11l54 190q-129 10 -220.5 49t-117.5 93l-16 268q41 -91 161.5 -151.5t268.5 -60.5q76 0 126 32t50 82q0 43 -54 73t-152 41q-198 21 -311 107t-113 213q0 141 123 228.5t311 87.5q136 0 240 -34
t130 -84l46 -234q-37 70 -158.5 117t-257.5 47q-58 0 -96.5 -7t-67 -32t-28.5 -69q0 -28 16.5 -47t52 -31.5t74.5 -19.5t101 -14q210 -22 314 -104.5t104 -213.5q0 -148 -125.5 -241.5t-314.5 -96.5l-26 -98q30 20 66 20q96 0 155 -58t59 -152q0 -96 -64.5 -154t-171.5 -58
q-129 0 -172 46v140q40 -38 74 -52t92 -14q44 0 71 25t27 67q0 39 -25 63.5t-67 24.5z" />
    <glyph glyph-name="Scaron" unicode="&#x160;" horiz-adv-x="1316" 
d="M608 1848q17 0 48.5 25.5t54.5 50.5l23 26h232l-230 -300h-258l-230 300h232zM104 150l-28 374q74 -137 233 -216.5t351 -79.5q129 0 199.5 44.5t70.5 119.5q0 76 -87.5 127.5t-254.5 70.5q-257 30 -398.5 146t-141.5 300q0 121 70 215t193 144.5t277 50.5
q168 0 310 -41.5t212 -112.5l14 -300q-90 93 -236.5 147.5t-299.5 54.5q-55 0 -96.5 -5t-77.5 -17.5t-57.5 -36.5t-26.5 -59q-10 -59 35 -101.5t119 -64t182 -34.5q270 -32 424 -159t154 -323q0 -190 -157 -302t-427 -112q-198 0 -345.5 49t-210.5 121z" />
    <glyph glyph-name="scaron" unicode="&#x161;" horiz-adv-x="1038" 
d="M506 1466q17 0 48.5 25t54.5 50l23 25h232l-230 -300h-256l-230 300h232zM112 134l-16 268q41 -91 161.5 -151.5t268.5 -60.5q77 0 126.5 28t49.5 78q0 44 -55 78t-151 44q-198 21 -311 107t-113 213q0 141 123 228.5t311 87.5q136 0 240 -34t130 -84l46 -234
q-37 70 -158.5 117t-257.5 47q-87 0 -137.5 -22t-56.5 -80q-6 -50 59 -77.5t187 -40.5q210 -22 314 -104.5t104 -213.5q0 -149 -129 -243.5t-321 -94.5q-154 0 -269.5 41t-144.5 103z" />
    <glyph glyph-name="Tcaron" unicode="&#x164;" horiz-adv-x="1252" 
d="M626 1848q17 0 48.5 25.5t54.5 50.5l23 26h232l-230 -300h-256l-230 300h232zM1230 1310v-116h-462v-1194h-284v1194h-462v232h1208v-116z" />
    <glyph glyph-name="tcaron" unicode="&#x165;" horiz-adv-x="868" 
d="M550 1544h276l-90 -300h-188zM806 1038v-222h-356v-462q0 -76 46.5 -115t157.5 -39q72 0 146 34v-212q-103 -42 -212 -42q-209 0 -300.5 93.5t-91.5 280.5v462h-158v222h158v342l254 148v-490h356z" />
    <glyph glyph-name="Utilde" unicode="&#x168;" horiz-adv-x="1552" 
d="M590 1628h-188q0 144 59 232t155 88l10 -98q-8 98 -10 98q61 0 135 -35.5t117 -70.5l44 -36q20 0 32 33.5t12 88.5h188q0 -144 -59 -232t-155 -88l-18 198q12 -198 18 -198q-38 0 -75.5 14.5t-66 35.5t-54.5 42t-52 35.5t-48 14.5q-20 0 -32 -33.5t-12 -88.5zM156 1426
h284v-828q0 -176 84.5 -266t249.5 -90t249.5 90t84.5 266l-2 828h284v-878q0 -281 -156 -424.5t-460 -143.5q-306 0 -462 143.5t-156 424.5v878z" />
    <glyph glyph-name="utilde" unicode="&#x169;" horiz-adv-x="1182" 
d="M404 1268h-188q0 143 60 232.5t154 87.5q47 0 89.5 -17t69.5 -38.5t65 -47.5t72 -39q15 -3 24.5 4.5t13.5 27t5 38t1 52.5h188q0 -144 -59 -232t-155 -88v2v-2q-47 0 -93 22t-76.5 48t-65.5 48t-61 22q-20 0 -32 -33t-12 -87zM1040 0h-254v114q-125 -134 -300 -134
q-102 0 -170.5 26.5t-108.5 82.5t-56.5 133t-16.5 188v634h254v-634q0 -104 39 -152t139 -48q99 0 159.5 66t60.5 174v594h254v-1044z" />
    <glyph glyph-name="Umacron" unicode="&#x16a;" horiz-adv-x="1552" 
d="M452 1628v178h642v-178h-642zM156 1426h284v-828q0 -176 84.5 -266t249.5 -90t249.5 90t84.5 266l-2 828h284v-878q0 -281 -156 -424.5t-460 -143.5q-306 0 -462 143.5t-156 424.5v878z" />
    <glyph glyph-name="umacron" unicode="&#x16b;" horiz-adv-x="1182" 
d="M266 1268v176h49.5t116 0.5t159 0.5h151t122 -0.5t44.5 -0.5q4 -2 4 -46t-2 -87l-2 -43h-642zM1040 0h-254v114q-125 -134 -300 -134q-102 0 -170.5 26.5t-108.5 82.5t-56.5 133t-16.5 188v634h254v-634q0 -104 39 -152t139 -48q99 0 159.5 66t60.5 174v594h254v-1044z
" />
    <glyph glyph-name="Ubreve" unicode="&#x16c;" horiz-adv-x="1552" 
d="M428 1906h188q0 -54 43.5 -87t114.5 -33q70 0 113 33t43 87h188q0 -134 -95 -216t-249 -82q-156 0 -251 82t-95 216zM156 1426h284v-828q0 -176 84.5 -266t249.5 -90t249.5 90t84.5 266l-2 828h284v-878q0 -281 -156 -424.5t-460 -143.5q-306 0 -462 143.5t-156 424.5
v878z" />
    <glyph glyph-name="ubreve" unicode="&#x16d;" horiz-adv-x="1182" 
d="M242 1544h188q0 -53 44.5 -85.5t113.5 -34.5q75 -3 115.5 30.5t40.5 89.5h188q0 -133 -94.5 -214.5t-249.5 -81.5q-156 0 -251 81.5t-95 214.5zM1040 0h-254v114q-125 -134 -300 -134q-102 0 -170.5 26.5t-108.5 82.5t-56.5 133t-16.5 188v634h254v-634q0 -104 39 -152
t139 -48q99 0 159.5 66t60.5 174v594h254v-1044z" />
    <glyph glyph-name="Uring" unicode="&#x16e;" horiz-adv-x="1552" 
d="M726 1800q0 -54 48 -54q46 0 46 54q0 33 -23.5 46t-47 -0.5t-23.5 -45.5zM598 1800q0 79 46.5 123.5t129.5 44.5q82 0 128 -44t46 -124q0 -172 -174 -172q-176 0 -176 172zM156 1426h284v-828q0 -176 84.5 -266t249.5 -90t249.5 90t84.5 266l-2 828h284v-878
q0 -281 -156 -424.5t-460 -143.5q-306 0 -462 143.5t-156 424.5v878z" />
    <glyph glyph-name="uring" unicode="&#x16f;" horiz-adv-x="1182" 
d="M540 1438q0 -54 48 -54q46 0 46 54q0 25 -9.5 37t-36.5 15q-20 2 -34 -13t-14 -39zM412 1438q0 81 46.5 125.5t129.5 44.5t128.5 -44.5t45.5 -125.5q0 -170 -174 -170q-176 0 -176 170zM1040 0h-254v114q-125 -134 -300 -134q-102 0 -170.5 26.5t-108.5 82.5t-56.5 133
t-16.5 188v634h254v-634q0 -104 39 -152t139 -48q99 0 159.5 66t60.5 174v594h254v-1044z" />
    <glyph glyph-name="Wcircumflex" unicode="&#x174;" horiz-adv-x="1738" 
d="M18 1426h306l174 -868l218 868h294l234 -856l168 856h304l-264 -1426h-342l-248 946l-252 -946h-308zM868 1750l-128 -102h-232l230 300h258l230 -300h-232q-126 98 -126 102z" />
    <glyph glyph-name="Ycircumflex" unicode="&#x176;" horiz-adv-x="1324" 
d="M1012 1426h290l-494 -764v-662h-284v662l-496 764h290l348 -538zM666 1750l-128 -102h-232l230 300h258l230 -300h-232q-126 98 -126 102z" />
    <glyph glyph-name="Ydieresis" unicode="&#x178;" horiz-adv-x="1324" 
d="M698 1648v278h276v-278h-276zM356 1648v278h276v-278h-276zM1012 1426h290l-494 -764v-662h-284v662l-496 764h290l348 -538z" />
    <glyph glyph-name="Zacute" unicode="&#x179;" horiz-adv-x="1372" 
d="M584 1648l122 300h332l-220 -300h-234zM1280 232v-232h-1188v232l822 962h-792v232h1158v-232l-822 -962h822z" />
    <glyph glyph-name="zacute" unicode="&#x17a;" horiz-adv-x="982" 
d="M400 1268l122 300h332l-222 -300h-232zM92 1044h816v-154l-532 -690h564v-200h-878v154l522 690h-492v200z" />
    <glyph glyph-name="Zdotaccent" unicode="&#x17b;" horiz-adv-x="1372" 
d="M562 1648v278h278v-278h-278zM1280 232v-232h-1188v232l822 962h-792v232h1158v-232l-822 -962h822z" />
    <glyph glyph-name="zdotaccent" unicode="&#x17c;" horiz-adv-x="982" 
d="M378 1268v276h276v-276h-276zM92 1044h816v-154l-532 -690h564v-200h-878v154l522 690h-492v200z" />
    <glyph glyph-name="Zcaron" unicode="&#x17d;" horiz-adv-x="1372" 
d="M702 1848q17 0 48.5 25.5t54.5 50.5l23 26h232l-230 -300h-258l-230 300h232zM1280 232v-232h-1188v232l822 962h-792v232h1158v-232l-822 -962h822z" />
    <glyph glyph-name="zcaron" unicode="&#x17e;" horiz-adv-x="982" 
d="M516 1466q17 0 48.5 25t54.5 50l23 25h232l-230 -300h-256l-230 300h232zM92 1044h816v-154l-532 -690h564v-200h-878v154l522 690h-492v200z" />
    <glyph glyph-name="uni01EB" unicode="&#x1eb;" horiz-adv-x="1552" 
d="M390 586q0 -194 134.5 -296t341.5 -70q-74 121 -138 226l258 -30q0 -3 68 -112q112 100 112 282q0 166 -114 269t-284 103q-168 0 -273 -102t-105 -270zM116 586q0 171 86 309.5t238 217.5t338 79t338 -79t238 -217.5t86 -309.5q0 -159 -64.5 -285t-183.5 -207l212 -316
l-288 34q-52 84 -120 196q-103 -28 -218 -28q-298 0 -480 166.5t-182 439.5z" />
    <glyph glyph-name="uni0226" unicode="&#x226;" 
d="M626 1648v278h276v-278h-276zM14 0l590 1426h310l576 -1426h-308l-104 258l-656 -2q-34 -90 -100 -256h-308zM510 474h484l-242 604q-40 -100 -126 -314.5t-116 -289.5z" />
    <glyph glyph-name="uni0262" unicode="&#x262;" horiz-adv-x="1468" 
d="M1046 572h330v-430q-89 -75 -234.5 -118.5t-321.5 -43.5q-321 0 -517.5 166.5t-196.5 439.5t196.5 439.5t517.5 166.5q150 0 297 -83.5t239 -220.5l-176 -168q-80 119 -179 191.5t-181 72.5q-198 0 -319 -109.5t-121 -288.5t121 -288.5t319 -109.5q105 0 187 21t125 57
v96h-80z" />
    <glyph glyph-name="uni026A" unicode="&#x26a;" horiz-adv-x="620" 
d="M194 0v1172h254v-1172h-254z" />
    <glyph glyph-name="uni0274" unicode="&#x274;" horiz-adv-x="1394" 
d="M966 1172h256v-1172h-350l-440 740v-740h-256v1172h276l514 -866v866z" />
    <glyph glyph-name="uni0280" unicode="&#x280;" horiz-adv-x="1172" 
d="M176 0v1172h398q261 0 393.5 -89t132.5 -263q0 -232 -250 -304l348 -516h-292l-328 482h-6h-140v-482h-256zM432 680h150q105 -6 166.5 31.5t61.5 106.5q0 76 -64 116.5t-182 37.5q-61 -3 -132 0v-292z" />
    <glyph glyph-name="uni028F" unicode="&#x28f;" horiz-adv-x="1186" 
d="M880 1172h284l-440 -510v-662h-254v662l-440 510h282l284 -326z" />
    <glyph glyph-name="uni0299" unicode="&#x299;" horiz-adv-x="1334" 
d="M176 0v1172h476q242 -3 345 -78t103 -244q0 -137 -148 -206q149 -19 229.5 -94.5t80.5 -185.5q0 -197 -117 -280.5t-393 -83.5h-576zM432 718l256 -6q36 -3 67 35t31 99q0 58 -38.5 91t-85.5 35l-230 2v-256zM432 198l248 2q147 -1 207.5 36t60.5 126q0 66 -73.5 107
t-194.5 37h-161h-87v-308z" />
    <glyph glyph-name="uni029C" unicode="&#x29c;" horiz-adv-x="1462" 
d="M176 0v1172h256v-504h602v504h256v-1172h-256v460h-602v-460h-256z" />
    <glyph glyph-name="uni029F" unicode="&#x29f;" horiz-adv-x="1080" 
d="M194 0v1172h254v-964h570v-208h-824z" />
    <glyph glyph-name="circumflex" unicode="&#x2c6;" horiz-adv-x="756" 
d="M378 1368l-126 -100h-232l230 300h256l232 -300h-232q-128 96 -128 100z" />
    <glyph glyph-name="caron" unicode="&#x2c7;" horiz-adv-x="756" 
d="M378 1466q17 0 49 25t55 50l24 25h232l-232 -300h-256l-230 300h232z" />
    <glyph glyph-name="uni02C9" unicode="&#x2c9;" horiz-adv-x="756" 
d="M58 1268v176h640v-176h-640z" />
    <glyph glyph-name="breve" unicode="&#x2d8;" horiz-adv-x="756" 
d="M34 1544h188q0 -54 43 -87t113 -33q71 0 114.5 33t43.5 87h188q0 -133 -95 -214.5t-251 -81.5q-155 0 -249.5 81.5t-94.5 214.5z" />
    <glyph glyph-name="dotaccent" unicode="&#x2d9;" horiz-adv-x="756" 
d="M240 1268v276h276v-276h-276z" />
    <glyph glyph-name="ring" unicode="&#x2da;" horiz-adv-x="756" 
d="M330 1438q0 -54 48 -54t48 54q0 32 -24 45.5t-48 0t-24 -45.5zM204 1438q0 81 45.5 125.5t128.5 44.5t128.5 -44.5t45.5 -125.5q0 -170 -174 -170t-174 170z" />
    <glyph glyph-name="uni1D00" unicode="&#x1d00;" horiz-adv-x="1376" 
d="M24 0l530 1172h276l524 -1172h-268l-88 198l-628 -4q-48 -118 -78 -194h-268zM454 390h460l-228 516q-174 -379 -232 -516z" />
    <glyph glyph-name="uni1D04" unicode="&#x1d04;" horiz-adv-x="1302" 
d="M1258 378l2 -222q-42 -79 -160 -127.5t-270 -48.5q-159 0 -295.5 48.5t-230 131t-146 193.5t-52.5 233t52.5 233t146 193.5t230 131t295.5 48.5q141 0 259 -48t171 -126l-6 -194q-73 57 -192 108.5t-232 51.5q-198 0 -324 -116.5t-126 -281.5t126 -281.5t324 -116.5
q134 0 234 47t194 143z" />
    <glyph glyph-name="uni1D05" unicode="&#x1d05;" horiz-adv-x="1454" 
d="M176 0v1172h426q366 0 553 -148t187 -438q0 -299 -167 -442.5t-513 -143.5h-486zM432 198h212q216 0 320 95t104 293q0 190 -115.5 288t-340.5 98q-27 0 -90 1t-90 1v-776z" />
    <glyph glyph-name="uni1D07" unicode="&#x1d07;" horiz-adv-x="1204" 
d="M176 0v1172h896v-208h-640v-286h386l2 -198h-388v-272h670v-208h-926z" />
    <glyph glyph-name="uni1D0A" unicode="&#x1d0a;" horiz-adv-x="938" 
d="M160 136v74l2 84q67 -49 105 -63.5t117 -14.5q61 0 93.5 34.5t32.5 93.5v828h256v-828q0 -168 -98.5 -266t-283.5 -98q-82 0 -126.5 14t-95.5 54z" />
    <glyph glyph-name="uni1D0B" unicode="&#x1d0b;" horiz-adv-x="1288" 
d="M176 0v1172h256v-504l426 442l-1 1q-7 -6 -21 -19l72 70l10 10h302q-157 -171 -418 -458l464 -714h-294l-8 10l-36 48l18 -22l-334 470q-84 -93 -180 -198v-308h-256zM836 1092l-88 -88zM928 58l-82 110q21 -29 48.5 -65.5t33.5 -44.5zM1354 -542q44 -64 178 -252
q-28 39 -88 124.5t-90 127.5zM802 714zM612 508q-27 -28 -57 -61t-66.5 -74t-56.5 -63v-2q116 127 180 200z" />
    <glyph glyph-name="uni1D0D" unicode="&#x1d0d;" horiz-adv-x="1730" 
d="M180 0v1172q94 -10 244 0v-4l142 4l302 -558l290 558l154 -2v2h246v-1172h-246v930l-330 -530h-228l-330 524v-924h-244z" />
    <glyph glyph-name="uni1D0F" unicode="&#x1d0f;" horiz-adv-x="1552" 
d="M390 586q0 -176 102.5 -273t279.5 -97q178 0 286 97.5t108 272.5q0 165 -118 265.5t-290 100.5q-167 0 -267.5 -98.5t-100.5 -267.5zM116 586q0 171 86 309.5t238 217.5t338 79t338 -79t238 -217.5t86 -309.5q0 -273 -182 -439.5t-480 -166.5t-480 166.5t-182 439.5z" />
    <glyph glyph-name="uni1D18" unicode="&#x1d18;" horiz-adv-x="1172" 
d="M176 0v1172h398q261 0 393.5 -89t132.5 -263q0 -182 -132.5 -275t-393.5 -93h-142v-452h-256zM432 650h152q230 6 230 168q0 148 -250 154q-40 2 -132 2v-324z" />
    <glyph glyph-name="uni1D1B" unicode="&#x1d1b;" horiz-adv-x="1114" 
d="M1092 1068v-104h-408v-964h-254v964h-408v208h1070v-104z" />
    <glyph glyph-name="uni1D1C" unicode="&#x1d1c;" horiz-adv-x="1386" 
d="M162 1172h256v-678q0 -278 276 -278q135 0 204.5 70t69.5 208v678h256v-722q0 -233 -134 -351.5t-396 -118.5q-264 0 -398 118.5t-134 351.5v722z" />
    <glyph glyph-name="uni1D20" unicode="&#x1d20;" horiz-adv-x="1188" 
d="M26 1172h274l300 -848l292 848h274l-442 -1172h-246z" />
    <glyph glyph-name="uni1D21" unicode="&#x1d21;" horiz-adv-x="1568" 
d="M26 1172h274l154 -712l196 712h266l208 -698l148 698h274l-228 -1172h-314l-222 782l-228 -782h-280z" />
    <glyph glyph-name="uni1D22" unicode="&#x1d22;" horiz-adv-x="1234" 
d="M1142 208v-208h-1050v208l730 756h-700v208h1020v-208l-730 -756h730z" />
    <glyph glyph-name="Wgrave" unicode="&#x1e80;" horiz-adv-x="1738" 
d="M750 1648l-220 300h332l122 -300h-234zM18 1426h306l174 -868l218 868h294l234 -856l168 856h304l-264 -1426h-342l-248 946l-252 -946h-308z" />
    <glyph glyph-name="Wacute" unicode="&#x1e82;" horiz-adv-x="1738" 
d="M750 1648l122 300h332l-220 -300h-234zM18 1426h306l174 -868l218 868h294l234 -856l168 856h304l-264 -1426h-342l-248 946l-252 -946h-308z" />
    <glyph glyph-name="Wdieresis" unicode="&#x1e84;" horiz-adv-x="1738" 
d="M900 1648v278h276v-278h-276zM558 1648v278h276v-278h-276zM18 1426h306l174 -868l218 868h294l234 -856l168 856h304l-264 -1426h-342l-248 946l-252 -946h-308z" />
    <glyph glyph-name="uni1EBC" unicode="&#x1ebc;" horiz-adv-x="1364" 
d="M518 1648h-188q0 144 59 232t155 88q61 0 135 -35.5t117 -70.5l44 -36q20 0 32 33.5t12 88.5h188q0 -144 -59 -232t-155 -88q-38 0 -75.5 14.5t-66 35.5t-54.5 42t-52 35.5t-48 14.5q-20 0 -32 -33.5t-12 -88.5zM170 0v1426h1062v-232h-778v-378h524l2 -222h-526v-362
h808v-232h-1092z" />
    <glyph glyph-name="Ygrave" unicode="&#x1ef2;" horiz-adv-x="1324" 
d="M548 1648l-220 300h332l122 -300h-234zM1012 1426h290l-494 -764v-662h-284v662l-496 764h290l348 -538z" />
    <glyph glyph-name="endash" unicode="&#x2013;" horiz-adv-x="882" 
d="M12 394v212h858v-212h-858z" />
    <glyph glyph-name="emdash" unicode="&#x2014;" horiz-adv-x="1462" 
d="M102 394v212h1258v-212h-1258z" />
    <glyph glyph-name="quoteleft" unicode="&#x2018;" horiz-adv-x="480" 
d="M380 1446v-134q-112 0 -112 -120h112v-276h-278v276q0 254 278 254z" />
    <glyph glyph-name="quoteright" unicode="&#x2019;" horiz-adv-x="480" 
d="M240 1446h278v-276q0 -136 -64 -194t-214 -58v132q60 0 86 28t26 92h-112v276z" />
    <glyph glyph-name="quotedblleft" unicode="&#x201c;" horiz-adv-x="1034" 
d="M932 1446v-134q-110 0 -110 -120h110v-276h-276v276q0 120 66.5 187t209.5 67zM518 1446v-134q-112 0 -112 -120h112v-276h-278v276q0 254 278 254z" />
    <glyph glyph-name="quotedblright" unicode="&#x201d;" horiz-adv-x="1034" 
d="M656 1446h276v-276q0 -136 -63.5 -194t-212.5 -58v132q60 0 85 27.5t25 92.5h-110v276zM240 1446h278v-276q0 -136 -64 -194t-214 -58v132q60 0 86 28t26 92h-112v276z" />
    <glyph glyph-name="dagger" unicode="&#x2020;" horiz-adv-x="1178" 
d="M1056 1184v-220h-340v-1080h-254v1080h-340v220h340v340h254v-340h340z" />
    <glyph glyph-name="daggerdbl" unicode="&#x2021;" horiz-adv-x="1178" 
d="M122 224v222h340v518h-340v220h340v340h254v-340h340v-220h-340v-518h340v-222h-340v-340h-254v340h-340z" />
    <glyph glyph-name="bullet" unicode="&#x2022;" horiz-adv-x="480" 
d="M102 384v276h278v-276h-278z" />
    <glyph glyph-name="ellipsis" unicode="&#x2026;" horiz-adv-x="1334" 
d="M956 0v276h276v-276h-276zM530 0v276h276v-276h-276zM102 0v276h278v-276h-278z" />
    <glyph glyph-name="perthousand" unicode="&#x2030;" horiz-adv-x="2340" 
d="M1882 292q0 -81 34.5 -130.5t91.5 -49.5t92.5 49.5t35.5 130.5q0 73 -35.5 118.5t-92.5 45.5t-91.5 -45t-34.5 -119zM1738 292q0 133 74 214.5t196 81.5t196 -81.5t74 -214.5q0 -141 -74 -226.5t-196 -85.5t-196 85.5t-74 226.5zM234 1240q0 -78 34.5 -125t91.5 -47
t92.5 47t35.5 125q0 76 -35.5 123t-92.5 47t-91.5 -46.5t-34.5 -123.5zM90 1240q0 137 74.5 220.5t195.5 83.5t195.5 -83.5t74.5 -220.5q0 -138 -74 -222t-196 -84t-196 84t-74 222zM1250 292q0 -81 31.5 -130.5t82.5 -49.5q55 0 88.5 49.5t33.5 130.5q0 74 -33.5 119
t-88.5 45q-51 0 -82.5 -45.5t-31.5 -118.5zM1106 292q0 133 71 214.5t187 81.5q120 0 193 -81t73 -215q0 -141 -73 -226.5t-193 -85.5q-116 0 -187 85.5t-71 226.5zM316 0l960 1524l136 2l-946 -1522z" />
    <glyph glyph-name="guilsinglleft" unicode="&#x2039;" horiz-adv-x="574" 
d="M418 944h220l-320 -422l320 -422h-220l-320 422z" />
    <glyph glyph-name="guilsinglright" unicode="&#x203a;" horiz-adv-x="574" 
d="M86 944h222l320 -422l-320 -422h-222l322 422z" />
    <glyph glyph-name="fraction" unicode="&#x2044;" horiz-adv-x="1130" 
d="M18 0l960 1524h126l-956 -1524h-130z" />
    <glyph glyph-name="Euro" unicode="&#x20ac;" horiz-adv-x="1270" 
d="M-22 510l20 142h102q-3 60 0 120h-102l20 142h102q56 249 244 390.5t464 141.5q302 0 400 -188l20 -308q-74 138 -186 201t-234 63q-145 0 -248.5 -78.5t-147.5 -221.5h500l-20 -142h-506q-3 -60 0 -120h506l-20 -142h-460q44 -141 148 -219.5t248 -78.5q136 0 248 66.5
t174 211.5l-22 -324q-77 -186 -400 -186q-276 0 -464 141t-244 389h-142z" />
    <glyph glyph-name="minus" unicode="&#x2212;" horiz-adv-x="1292" 
d="M102 422v156h1088v-156h-1088z" />
    <glyph glyph-name="uni2215" unicode="&#x2215;" horiz-adv-x="988" 
d="M2 0l850 1426l134 -6l-838 -1420h-146z" />
    <glyph glyph-name="uni2219" unicode="&#x2219;" horiz-adv-x="480" 
d="M102 384v276h278v-276h-278z" />
    <glyph glyph-name="uniA730" unicode="&#xa730;" horiz-adv-x="1134" 
d="M176 0v1172h896v-208h-640v-286h398v-198h-398v-480h-256z" />
    <glyph glyph-name="uniA731" unicode="&#xa731;" horiz-adv-x="1150" 
d="M96 158l-24 338q73 -134 208 -213t286 -79q106 0 161 32t55 86q0 58 -69 97.5t-205 54.5q-215 24 -334.5 123t-119.5 255q0 151 131 245.5t331 94.5q122 0 239.5 -44t190.5 -118l10 -270q-198 201 -432 218q-54 3 -93 2t-66 -20.5t-39 -63.5q-21 -69 50 -109t202 -55
q231 -26 365.5 -135t134.5 -275q0 -156 -138.5 -249t-373.5 -93q-159 0 -282 50.5t-188 127.5z" />
    <glyph glyph-name="uniF078" unicode="&#xf078;" horiz-adv-x="1184" 
d="M856 1172h310l-410 -584l396 -588h-276l-260 388l-274 -388h-312l434 616l-374 556h274l240 -358z" />
  </font>
</defs>
</svg>
