<?xml version="1.0" standalone="no"?>
<!DOCTYPE svg PUBLIC "-//W3C//DTD SVG 1.1//EN" "http://www.w3.org/Graphics/SVG/1.1/DTD/svg11.dtd" >
<svg xmlns="http://www.w3.org/2000/svg" xmlns:xlink="http://www.w3.org/1999/xlink" version="1.1">
<metadata>
Created by FontForge 20170731 at Sun Aug  6 18:07:50 2023
 By Aleksey,,,
(c) Gholib Tammami.  All rights reserved.
</metadata>
<defs>
<font id="Kinta-Regular" horiz-adv-x="1122" >
  <font-face 
    font-family="Kinta"
    font-weight="400"
    font-stretch="normal"
    units-per-em="2048"
    panose-1="0 0 0 0 0 0 0 0 0 0"
    ascent="1638"
    descent="-410"
    x-height="1038"
    cap-height="1434"
    bbox="-209 -444 2171 1851"
    underline-thickness="0"
    underline-position="0"
    unicode-range="U+000A-2212"
  />
<missing-glyph horiz-adv-x="1079" 
d="M102 1434h875v-1434h-875v1434zM160 1393l379 -633l381 633h-760zM565 717l371 -621v1239zM514 717l-369 614v-1231zM541 674l-379 -631h758z" />
    <glyph glyph-name=".notdef" horiz-adv-x="1079" 
d="M102 1434h875v-1434h-875v1434zM160 1393l379 -633l381 633h-760zM565 717l371 -621v1239zM514 717l-369 614v-1231zM541 674l-379 -631h758z" />
    <glyph glyph-name="uni0000" horiz-adv-x="0" 
 />
    <glyph glyph-name="uni0000" horiz-adv-x="0" 
 />
    <glyph glyph-name="uni000D" unicode="&#xd;" horiz-adv-x="0" 
 />
    <glyph glyph-name="uni000A" unicode="&#xa;" horiz-adv-x="0" 
 />
    <glyph glyph-name="space" unicode=" " horiz-adv-x="741" 
 />
    <glyph glyph-name="exclam" unicode="!" horiz-adv-x="403" 
d="M219 319h-35l-43 1055q-3 23 17 43q19 19 43 19q20 0 43 -19q16 -19 16 -43zM201 168q35 0 59.5 -24.5t24.5 -59.5q0 -34 -24.5 -58t-59.5 -24q-34 0 -58 24t-24 58q0 35 24 59q22 25 58 25z" />
    <glyph glyph-name="exclam" unicode="&#xe900;" horiz-adv-x="403" 
d="M219 319h-35l-43 1055q-3 23 17 43q19 19 43 19q20 0 43 -19q16 -19 16 -43zM201 168q35 0 59.5 -24.5t24.5 -59.5q0 -34 -24.5 -58t-59.5 -24q-34 0 -58 24t-24 58q0 35 24 59q22 25 58 25z" />
    <glyph glyph-name="quotedbl" unicode="&#x22;" horiz-adv-x="788" 
d="M516 1538l86 -172h-51l-168 172h133zM274 1538l86 -174h-51l-168 174h133z" />
    <glyph glyph-name="numbersign" unicode="#" horiz-adv-x="1245" 
d="M1143 989h-232l-96 -530h328v-49h-336l-76 -410h-49l76 410h-412l-74 -410h-49l74 410h-195v49h203l96 530h-299v49h310l71 396h49l-71 -396h411l72 396h49l-71 -396h221v-49zM766 459l96 530h-411l-97 -530h412z" />
    <glyph glyph-name="numbersign" unicode="&#xe904;" horiz-adv-x="1245" 
d="M1143 989h-232l-96 -530h328v-49h-336l-76 -410h-49l76 410h-412l-74 -410h-49l74 410h-195v49h203l96 530h-299v49h310l71 396h49l-71 -396h411l72 396h49l-71 -396h221v-49zM766 459l96 530h-411l-97 -530h412z" />
    <glyph glyph-name="dollar" unicode="$" horiz-adv-x="1206" 
d="M1040 604q55 -71 57 -163t-33 -169t-89 -131q-76 -70 -174 -107.5t-203 -35.5v-283h-47v285h-19q-32 2 -59.5 5.5t-55.5 12.5t-46 13.5t-46.5 20.5t-39.5 21.5t-42.5 28.5t-38.5 28t-44.5 34t-44.5 35l12 137q94 -271 412 -293h12v684q-155 33 -246.5 72t-140.5 119
q-51 85 -38 178t85 180q64 72 153.5 111.5t186.5 39.5v142h47v-144q96 -7 187.5 -52t162.5 -116l-18 -133q-19 118 -111 186.5t-219 78.5v-584q63 -14 100.5 -23t95.5 -27t96 -36.5t79 -48.5t69 -66zM551 815v574q-178 0 -295 -129q-125 -147 -43 -281q20 -34 54 -60.5
t84 -46t91.5 -31t108.5 -26.5zM936 170q44 45 68.5 105.5t19 132.5t-50.5 129q-55 71 -145 109t-228 69v-674q195 0 336 129z" />
    <glyph glyph-name="dollar" unicode="&#xe90d;" horiz-adv-x="1206" 
d="M1040 604q55 -71 57 -163t-33 -169t-89 -131q-76 -70 -174 -107.5t-203 -35.5v-283h-47v285h-19q-32 2 -59.5 5.5t-55.5 12.5t-46 13.5t-46.5 20.5t-39.5 21.5t-42.5 28.5t-38.5 28t-44.5 34t-44.5 35l12 137q94 -271 412 -293h12v684q-155 33 -246.5 72t-140.5 119
q-51 85 -38 178t85 180q64 72 153.5 111.5t186.5 39.5v142h47v-144q96 -7 187.5 -52t162.5 -116l-18 -133q-19 118 -111 186.5t-219 78.5v-584q63 -14 100.5 -23t95.5 -27t96 -36.5t79 -48.5t69 -66zM551 815v574q-178 0 -295 -129q-125 -147 -43 -281q20 -34 54 -60.5
t84 -46t91.5 -31t108.5 -26.5zM936 170q44 45 68.5 105.5t19 132.5t-50.5 129q-55 71 -145 109t-228 69v-674q195 0 336 129z" />
    <glyph glyph-name="percent" unicode="%" horiz-adv-x="1316" 
d="M977 1423h63l-714 -1433h-64zM537 1032q0 -117 -64.5 -199.5t-155.5 -82.5q-89 0 -153 82.5t-64 199.5q0 116 64 198.5t153 82.5q91 0 155.5 -82.5t64.5 -198.5zM158 1032q0 -94 46.5 -159.5t112.5 -65.5q67 0 114.5 66t47.5 159q0 92 -47.5 157.5t-114.5 65.5
q-66 0 -112.5 -65.5t-46.5 -157.5zM995 729q91 0 155 -82t64 -198q0 -117 -64 -200t-155 -83t-154 83t-63 200q0 116 63.5 198t153.5 82zM995 223q66 0 114 66.5t48 159.5q0 92 -48 157.5t-114 65.5t-112.5 -65.5t-46.5 -157.5q0 -94 46.5 -160t112.5 -66z" />
    <glyph glyph-name="percent" unicode="&#xe905;" horiz-adv-x="1316" 
d="M977 1423h63l-714 -1433h-64zM537 1032q0 -117 -64.5 -199.5t-155.5 -82.5q-89 0 -153 82.5t-64 199.5q0 116 64 198.5t153 82.5q91 0 155.5 -82.5t64.5 -198.5zM158 1032q0 -94 46.5 -159.5t112.5 -65.5q67 0 114.5 66t47.5 159q0 92 -47.5 157.5t-114.5 65.5
q-66 0 -112.5 -65.5t-46.5 -157.5zM995 729q91 0 155 -82t64 -198q0 -117 -64 -200t-155 -83t-154 83t-63 200q0 116 63.5 198t153.5 82zM995 223q66 0 114 66.5t48 159.5q0 92 -48 157.5t-114 65.5t-112.5 -65.5t-46.5 -157.5q0 -94 46.5 -160t112.5 -66z" />
    <glyph glyph-name="ampersand" unicode="&#x26;" horiz-adv-x="1480" 
d="M1399 39q25 14 33 33q-3 -13 -5 -17q-18 -58 -73 -94q-29 -16 -60 -16q-27 0 -51 12q-41 21 -85 63.5t-99.5 110t-71.5 84.5q-79 -105 -197 -163t-251 -58q-119 0 -224 45q-152 75 -200 231q-41 128 30 248q31 52 95.5 104t105.5 75.5t126 68.5q15 8 22 12q-9 11 -36 47
t-38.5 51.5t-35 50t-33.5 55t-23.5 54t-16.5 59.5t-2 58.5t10 63.5q32 94 111.5 153t177.5 64q100 6 178 -50q105 -73 121 -198q19 -125 -61 -223q-115 -112 -250 -175q8 -9 24.5 -27.5t24.5 -27.5q10 -10 14 -16l27 -31q10 -10 14 -16q55 -61 150 -172q130 -146 149 -168
q48 84 58 184q-3 52 -38.5 89.5t-86.5 43.5v17h299v-17q-4 0 -11 -1.5t-26.5 -12t-36 -28.5t-34.5 -57.5t-27 -92.5q-16 -87 -62 -160q34 -43 62 -76t68 -74t81 -69.5t80 -40.5q42 -10 74 4zM434 987q58 -85 127 -166q110 61 199 150q43 45 60 107.5t4.5 122.5t-43.5 109.5
t-86.5 74.5t-121.5 12q-83 -19 -138 -85.5t-56 -152.5q3 -96 55 -172zM821 135q79 56 125 125q-6 7 -19.5 22.5t-19.5 22.5l-80 90q-7 7 -20.5 22.5t-20.5 22.5q-29 32 -149 172q-38 42 -55 64q-55 61 -58 65q-20 -12 -30 -16q-55 -30 -84 -47t-72 -46t-73 -59.5t-52 -66.5
q-28 -45 -35 -97t10 -102q35 -118 141.5 -181t237.5 -63q135 0 254 72z" />
    <glyph glyph-name="ampersand" unicode="&#xe903;" horiz-adv-x="1480" 
d="M1399 39q25 14 33 33q-3 -13 -5 -17q-18 -58 -73 -94q-29 -16 -60 -16q-27 0 -51 12q-41 21 -85 63.5t-99.5 110t-71.5 84.5q-79 -105 -197 -163t-251 -58q-119 0 -224 45q-152 75 -200 231q-41 128 30 248q31 52 95.5 104t105.5 75.5t126 68.5q15 8 22 12q-9 11 -36 47
t-38.5 51.5t-35 50t-33.5 55t-23.5 54t-16.5 59.5t-2 58.5t10 63.5q32 94 111.5 153t177.5 64q100 6 178 -50q105 -73 121 -198q19 -125 -61 -223q-115 -112 -250 -175q8 -9 24.5 -27.5t24.5 -27.5q10 -10 14 -16l27 -31q10 -10 14 -16q55 -61 150 -172q130 -146 149 -168
q48 84 58 184q-3 52 -38.5 89.5t-86.5 43.5v17h299v-17q-4 0 -11 -1.5t-26.5 -12t-36 -28.5t-34.5 -57.5t-27 -92.5q-16 -87 -62 -160q34 -43 62 -76t68 -74t81 -69.5t80 -40.5q42 -10 74 4zM434 987q58 -85 127 -166q110 61 199 150q43 45 60 107.5t4.5 122.5t-43.5 109.5
t-86.5 74.5t-121.5 12q-83 -19 -138 -85.5t-56 -152.5q3 -96 55 -172zM821 135q79 56 125 125q-6 7 -19.5 22.5t-19.5 22.5l-80 90q-7 7 -20.5 22.5t-20.5 22.5q-29 32 -149 172q-38 42 -55 64q-55 61 -58 65q-20 -12 -30 -16q-55 -30 -84 -47t-72 -46t-73 -59.5t-52 -66.5
q-28 -45 -35 -97t10 -102q35 -118 141.5 -181t237.5 -63q135 0 254 72z" />
    <glyph glyph-name="quotesingle" unicode="'" horiz-adv-x="483" 
d="M262 1538l86 -174h-51l-168 174h133z" />
    <glyph glyph-name="parenleft" unicode="(" horiz-adv-x="632" 
d="M174 629q1 -259 103 -497.5t288 -420.5l-6 -8h-67q-179 188 -276.5 428t-98.5 498q1 253 94.5 488t265.5 421h78q-180 -182 -279 -417.5t-102 -491.5z" />
    <glyph glyph-name="parenleft" unicode="&#xe90a;" horiz-adv-x="632" 
d="M174 629q1 -259 103 -497.5t288 -420.5l-6 -8h-67q-179 188 -276.5 428t-98.5 498q1 253 94.5 488t265.5 421h78q-180 -182 -279 -417.5t-102 -491.5z" />
    <glyph glyph-name="parenright" unicode=")" horiz-adv-x="632" 
d="M508 629q-3 256 -102 491.5t-279 417.5h78q172 -186 265.5 -421t94.5 -488q-1 -258 -98.5 -498t-276.5 -428h-67l-6 8q186 182 288 420.5t103 497.5z" />
    <glyph glyph-name="asterisk" unicode="*" horiz-adv-x="788" 
d="M606 1268l-182 -60l111 -145l-31 -25l-111 148l-112 -148l-31 25l110 145l-174 60l13 39l174 -62v191h39v-191l180 62z" />
    <glyph glyph-name="asterisk" unicode="&#xe906;" horiz-adv-x="788" 
d="M606 1268l-182 -60l111 -145l-31 -25l-111 148l-112 -148l-31 25l110 145l-174 60l13 39l174 -62v191h39v-191l180 62z" />
    <glyph glyph-name="plus" unicode="+" horiz-adv-x="1112" 
d="M584 1176v-437h436v-57h-436v-436h-58v436h-436v57h436v437h58z" />
    <glyph glyph-name="comma" unicode="," horiz-adv-x="362" 
d="M238 74q0 -18 -8.5 -41.5t-23 -49t-26.5 -44t-28 -40.5t-17 -24q29 50 29 107q0 14 -8 22.5t-20.5 17t-18.5 15.5q-24 43 -2 71.5t61 28.5q25 0 43 -15.5t19 -45.5v-2z" />
    <glyph glyph-name="comma" unicode="&#xe91d;" horiz-adv-x="362" 
d="M238 74q0 -18 -8.5 -41.5t-23 -49t-26.5 -44t-28 -40.5t-17 -24q29 50 29 107q0 14 -8 22.5t-20.5 17t-18.5 15.5q-24 43 -2 71.5t61 28.5q25 0 43 -15.5t19 -45.5v-2z" />
    <glyph glyph-name="hyphen" unicode="-" horiz-adv-x="1110" 
d="M1020 682h-930v57h930v-57z" />
    <glyph glyph-name="period" unicode="." horiz-adv-x="364" 
d="M182 147q31 0 52.5 -21t21.5 -50q0 -32 -21.5 -54t-52.5 -22q-32 0 -54 22t-22 54q0 29 22 50t54 21z" />
    <glyph glyph-name="slash" unicode="/" horiz-adv-x="638" 
d="M485 1436h60l-402 -1434h-59z" />
    <glyph glyph-name="slash" unicode="&#xe909;" horiz-adv-x="638" 
d="M485 1436h60l-402 -1434h-59z" />
    <glyph glyph-name="zero" unicode="0" horiz-adv-x="1159" 
d="M580 1436q126 0 232.5 -96.5t168 -262.5t61.5 -360q0 -195 -61.5 -360.5t-168 -262t-232.5 -96.5t-232.5 96t-168.5 262t-62 361q0 194 62 360t168.5 262.5t232.5 96.5zM580 39q108 0 194.5 93.5t133 247.5t46.5 337t-46.5 337t-133 247.5t-194.5 93.5
q-109 0 -195.5 -93.5t-133 -248t-46.5 -336.5t46.5 -336.5t133 -248t195.5 -93.5z" />
    <glyph glyph-name="one" unicode="1" horiz-adv-x="684" 
d="M418 1432v-1346l170 -55v-31h-428v31l170 55v1167h-242v37h22.5t52 6.5t68 19.5t60 43t39.5 73h88z" />
    <glyph glyph-name="two" unicode="2" horiz-adv-x="1056" 
d="M788 98q38 0 67.5 8t44 20t23.5 24t11 20l2 8h14v-166h-860q37 223 261 462q92 98 210 190q37 29 73 62.5t74 76.5t64.5 89.5t43 95.5t12.5 100.5t-31 97.5q-33 83 -108 137.5t-163 54.5q-66 0 -118.5 -32.5t-65.5 -96.5q-2 -10 -4 -32t-4 -33q-3 -32 -35 -45
q-32 -11 -55 12q-30 24 -27 66q25 100 108 154t191 54q123 0 228.5 -69.5t146.5 -198.5q11 -40 13 -81.5t-11 -96.5t-43.5 -110.5t-89.5 -121.5t-142 -131q-60 -47 -114 -95t-93.5 -87.5t-76 -82t-60 -72.5t-46 -64t-33 -51.5t-23.5 -40.5t-14 -25h630z" />
    <glyph glyph-name="three" unicode="3" horiz-adv-x="1046" 
d="M606 774q139 -28 232.5 -124.5t93.5 -233.5q-3 -120 -68 -220t-172 -151t-225 -35q-113 15 -209 84q-31 22 -48 35.5t-43.5 38t-41.5 50t-19 52.5q0 23 7 37q7 20 20 31q9 9 25 12q26 4 43 -10q18 -12 22 -37q2 -10 4 -32t4 -33q16 -80 101 -128.5t172 -48.5
q82 0 148.5 31.5t107 82.5t62.5 113.5t22 127.5q1 64 -26.5 122.5t-78.5 98.5q-121 98 -274 104h-59v56h47q146 13 237 121q84 78 84 198q-12 115 -97 185.5t-200 70.5q-92 0 -165 -45t-83 -129l-4 -31q0 -10 -2 -16q-3 -27 -24 -41q-23 -13 -47 -6q-13 3 -19 12
q-21 15 -24 41q-3 12 -3 27q35 107 148.5 173t234.5 66q139 0 246 -83.5t125 -219.5q3 -144 -98 -241q-72 -72 -156 -105z" />
    <glyph glyph-name="four" unicode="4" horiz-adv-x="1208" 
d="M889 1432v-1008h225v-57h-225v-281l170 -55v-31h-422v31l168 55v281h-731zM805 424v793l-600 -793h600z" />
    <glyph glyph-name="five" unicode="5" 
d="M471 950q148 15 280 -50.5t205 -192.5q42 -89 47 -189.5t-26.5 -190.5t-88.5 -164t-143.5 -117.5t-185.5 -43.5q-87 0 -177.5 34t-166.5 89q-133 90 -86 170q11 16 37 20q22 3 39 -10q18 -15 31 -54.5t18 -47.5q38 -60 100 -90q90 -54 191 -54q95 0 174 54
q137 93 181.5 254.5t-26.5 312.5q-56 110 -165 169t-232 44q-83 -9 -158.5 -47t-132.5 -98l-53 10l131 674h703v-197h-17q-1 5 -3 12t-13 26.5t-27 34t-47.5 26.5t-71.5 12h-477l-102 -506q118 95 262 110z" />
    <glyph glyph-name="six" unicode="6" horiz-adv-x="1118" 
d="M649 938q90 -13 164 -63.5t119 -122.5t64.5 -160t7.5 -176q-27 -190 -154 -302t-287 -112q-75 0 -144.5 26.5t-129.5 84t-101.5 139.5t-58.5 202.5t-2 264.5q16 161 85 305.5t190.5 254.5t275.5 153q40 14 67 14q41 0 70 -23q31 -24 25 -63q-7 -28 -34.5 -36.5t-51.5 1.5
q-56 16 -101 16q-59 0 -112.5 -25t-93 -65t-74.5 -97.5t-59 -115t-45 -126t-33 -121.5t-23 -111q55 129 176.5 200.5t259.5 57.5zM918 424q13 91 -15 190.5t-98 177t-164 89.5q-28 4 -43 4q-137 0 -244 -103.5t-129 -259.5q-23 -169 66.5 -302.5t238.5 -153.5
q146 -21 254.5 82.5t133.5 275.5z" />
    <glyph glyph-name="seven" unicode="7" horiz-adv-x="1107" 
d="M98 1237v197h906l-64 -52q-286 -260 -455.5 -608t-197.5 -735q-1 -17 -13.5 -28t-29.5 -11q-21 0 -33 12q-12 15 -12 35q17 205 76.5 401t133 336t163 262.5t155.5 190.5t121 111h-572q-40 0 -71.5 -11.5t-47.5 -28t-26.5 -32.5t-12.5 -28l-3 -11h-17z" />
    <glyph glyph-name="eight" unicode="8" horiz-adv-x="1132" 
d="M698 809q138 -34 229 -144t95 -251q0 -113 -61.5 -208t-166.5 -150.5t-229 -55.5q-123 0 -227.5 55.5t-165.5 150.5t-61 208q4 141 94.5 251t228.5 144q-97 32 -156 113t-61 182q4 139 106 235t242 93q141 3 243.5 -93t106.5 -235q-1 -101 -61 -182t-156 -113zM313 1104
q0 -119 69 -198t185 -79q115 0 183.5 79t68.5 198t-69 203t-183 84q-115 0 -184.5 -84t-69.5 -203zM567 41q153 0 258 111q107 110 101 262q3 72 -23.5 141t-77.5 121q-107 110 -258 110q-153 0 -260 -110q-106 -109 -100 -262q-6 -153 100 -262q105 -111 260 -111z" />
    <glyph glyph-name="nine" unicode="9" horiz-adv-x="1118" 
d="M594 1442q183 -35 299 -185q72 -91 97 -232t5 -283t-73 -276.5t-129 -219.5q-75 -88 -200 -165t-224 -77q-39 0 -68 23q-19 15 -24 36.5t4.5 38t30.5 25.5t53 -2q55 -21 106 -21q74 0 141 41.5t115 106.5t85.5 146t58 158.5t26.5 145.5q0 7 2 9v16q2 2 2 8q-2 13 2 33
q-55 -129 -175.5 -199.5t-260.5 -56.5q-87 12 -159 58.5t-118 119.5q-104 152 -75 344q25 177 147.5 294.5t280.5 117.5q19 0 51 -4zM891 928q23 168 -66 302t-237 154q-147 21 -255 -82.5t-132 -275.5q-25 -163 65 -305q56 -81 111 -118.5t141 -37.5q137 0 244 103.5
t129 259.5z" />
    <glyph glyph-name="colon" unicode=":" horiz-adv-x="364" 
d="M180 1036q32 0 56 -23t24 -55q0 -34 -24 -57.5t-56 -23.5q-34 0 -57 23.5t-23 57.5q0 32 23 55t57 23zM180 477q32 0 56 -24t24 -56q0 -33 -23.5 -56.5t-56.5 -23.5q-34 0 -57 23t-23 57q0 33 23.5 56.5t56.5 23.5z" />
    <glyph glyph-name="semicolon" unicode=";" horiz-adv-x="364" 
d="M180 1036q32 0 56 -23t24 -55q0 -34 -24 -57.5t-56 -23.5q-34 0 -57 23.5t-23 57.5q0 32 23 55t57 23zM264 399q0 -35 -29 -91.5t-52.5 -89.5t-45.5 -60q14 21 19 39q20 41 20 90q0 22 -28 41.5t-31 23.5q-26 41 -4 83t69 42q33 0 56.5 -22.5t25.5 -53.5v-2z" />
    <glyph glyph-name="less" unicode="&#x3c;" horiz-adv-x="1185" 
d="M215 713l883 -385l-23 -54l-1005 439l1005 422l23 -52z" />
    <glyph glyph-name="less" unicode="&#xe908;" horiz-adv-x="1185" 
d="M215 713l883 -385l-23 -54l-1005 439l1005 422l23 -52z" />
    <glyph glyph-name="equal" unicode="=" horiz-adv-x="1110" 
d="M1020 782h-930v88h930v-88zM1020 387h-930v88h932z" />
    <glyph glyph-name="greater" unicode="&#x3e;" horiz-adv-x="1185" 
d="M70 328l882 385l-882 370l22 52l1006 -422l-1006 -439z" />
    <glyph glyph-name="question" unicode="?" horiz-adv-x="999" 
d="M811 1270q47 -52 70 -119.5t18 -138.5q-7 -45 -34.5 -86.5t-55 -65.5t-78.5 -63q-39 -31 -54 -43.5t-49 -44t-52 -56t-39 -62.5t-33 -79q-23 -83 -17 -158l-57 -2q-6 82 21 176q22 83 65.5 151t90.5 109.5t92 77.5t77 73.5t37 78.5q6 103 -61 198.5t-166 141.5
q-46 16 -105 16q-86 0 -160 -34t-96 -97q-3 -11 -5 -53.5t-11 -70.5t-31 -36q-27 -10 -55 2q-66 38 -28 120q36 78 139 144q127 81 264 81q187 0 313 -160zM465 2q-37 0 -62.5 25.5t-25.5 62.5t25.5 62.5t62.5 25.5t62.5 -25.5t25.5 -62.5t-25.5 -62.5t-62.5 -25.5z" />
    <glyph glyph-name="question" unicode="&#xe901;" horiz-adv-x="999" 
d="M811 1270q47 -52 70 -119.5t18 -138.5q-7 -45 -34.5 -86.5t-55 -65.5t-78.5 -63q-39 -31 -54 -43.5t-49 -44t-52 -56t-39 -62.5t-33 -79q-23 -83 -17 -158l-57 -2q-6 82 21 176q22 83 65.5 151t90.5 109.5t92 77.5t77 73.5t37 78.5q6 103 -61 198.5t-166 141.5
q-46 16 -105 16q-86 0 -160 -34t-96 -97q-3 -11 -5 -53.5t-11 -70.5t-31 -36q-27 -10 -55 2q-66 38 -28 120q36 78 139 144q127 81 264 81q187 0 313 -160zM465 2q-37 0 -62.5 25.5t-25.5 62.5t25.5 62.5t62.5 25.5t62.5 -25.5t25.5 -62.5t-25.5 -62.5t-62.5 -25.5z" />
    <glyph glyph-name="at" unicode="@" horiz-adv-x="1953" 
d="M1829 25l39 -41q-172 -177 -400 -275.5t-475 -101.5q-177 -5 -342.5 57t-294.5 182q-170 170 -223.5 430t31.5 512q53 183 175.5 330t294.5 231.5t361 84.5q129 0 258.5 -35.5t242 -99.5t198 -164t121.5 -220q22 -73 26 -155t-11.5 -167.5t-49 -164t-91.5 -150
t-135 -120.5q-104 -64 -168 -64q-75 0 -131 53q-33 36 -46.5 81.5t-4.5 90.5l8 54q-32 -67 -72 -124t-92 -105t-118.5 -75.5t-138.5 -27.5q-75 0 -134 33q-63 41 -104 105.5t-51 139.5q-28 127 -2.5 257.5t100.5 238.5q62 84 134 132.5t126.5 60.5t108.5 6
q101 -12 184 -70.5t129 -150.5l41 254l66 -21l-119 -733q-16 -70 37 -113q36 -28 79 -28q61 0 138 55q161 110 226 293.5t9 371.5q-43 147 -163.5 257t-273 163.5t-314.5 53.5q-87 0 -177 -19q-92 -20 -173.5 -61.5t-137.5 -87.5t-105 -105.5t-76.5 -105t-51 -96.5
t-29 -68.5t-10.5 -32.5q-78 -236 -28.5 -480.5t208.5 -402.5q107 -107 259 -166t323 -59q210 0 422.5 90.5t396.5 272.5zM1239 639q16 96 -33 172q-31 61 -87.5 100t-125.5 47q-103 0 -176.5 -44t-140.5 -134q-67 -98 -90 -215.5t2 -234.5q10 -85 72 -159.5t145 -74.5
q27 0 57 10q133 31 233.5 174t143.5 359z" />
    <glyph glyph-name="at" unicode="&#xe902;" horiz-adv-x="1953" 
d="M1829 25l39 -41q-172 -177 -400 -275.5t-475 -101.5q-177 -5 -342.5 57t-294.5 182q-170 170 -223.5 430t31.5 512q53 183 175.5 330t294.5 231.5t361 84.5q129 0 258.5 -35.5t242 -99.5t198 -164t121.5 -220q22 -73 26 -155t-11.5 -167.5t-49 -164t-91.5 -150
t-135 -120.5q-104 -64 -168 -64q-75 0 -131 53q-33 36 -46.5 81.5t-4.5 90.5l8 54q-32 -67 -72 -124t-92 -105t-118.5 -75.5t-138.5 -27.5q-75 0 -134 33q-63 41 -104 105.5t-51 139.5q-28 127 -2.5 257.5t100.5 238.5q62 84 134 132.5t126.5 60.5t108.5 6
q101 -12 184 -70.5t129 -150.5l41 254l66 -21l-119 -733q-16 -70 37 -113q36 -28 79 -28q61 0 138 55q161 110 226 293.5t9 371.5q-43 147 -163.5 257t-273 163.5t-314.5 53.5q-87 0 -177 -19q-92 -20 -173.5 -61.5t-137.5 -87.5t-105 -105.5t-76.5 -105t-51 -96.5
t-29 -68.5t-10.5 -32.5q-78 -236 -28.5 -480.5t208.5 -402.5q107 -107 259 -166t323 -59q210 0 422.5 90.5t396.5 272.5zM1239 639q16 96 -33 172q-31 61 -87.5 100t-125.5 47q-103 0 -176.5 -44t-140.5 -134q-67 -98 -90 -215.5t2 -234.5q10 -85 72 -159.5t145 -74.5
q27 0 57 10q133 31 233.5 174t143.5 359z" />
    <glyph glyph-name="A" unicode="A" horiz-adv-x="1423" 
d="M1239 172q21 -48 47.5 -81.5t50 -47.5t44 -21t32.5 -6h12v-16h-389v18q0 1 5.5 0t14 1t20 3.5t22.5 7t22 12.5t19 20t12 28t2.5 38t-10.5 50l-129 311h-649l-168 -421q11 -24 35.5 -37t43.5 -14l19 -1v-16h-299v16q87 3 158 58l548 1366h13zM381 530h614l-313 756z" />
    <glyph glyph-name="B" unicode="B" horiz-adv-x="1196" 
d="M821 827q138 -37 225 -150t87 -255q0 -175 -123.5 -298.5t-298.5 -123.5l-430 -2h-215v16h21.5t40.5 9.5t38 27.5v1331q-11 17 -36 26t-44 9h-20v17h606q114 0 172 -32.5t108 -141.5q59 -117 21 -243t-152 -190zM256 1393l-2 -566h371q70 -1 131 33t98 94
q44 75 44.5 155.5t-33.5 142t-96 101.5t-134 40h-379zM254 39h426q106 6 195 65t133 154q46 96 35 201t-74 190q-51 66 -125 102t-156 35h-434v-747z" />
    <glyph glyph-name="C" unicode="C" horiz-adv-x="1310" 
d="M741 41q175 7 303 101.5t205 256.5v-127q-87 -126 -221 -198.5t-287 -73.5q-131 0 -255 57t-216 153t-148 229t-56 278t56 278t148 229t216 153t255 57q145 -3 273.5 -68t216.5 -180l-86 -178q6 118 -48.5 206t-147.5 132t-208 45q-159 0 -294.5 -92.5t-214 -247.5
t-78.5 -334q0 -180 78.5 -335.5t214 -248t294.5 -92.5z" />
    <glyph glyph-name="D" unicode="D" horiz-adv-x="1325" 
d="M541 1432q146 0 279 -57t228.5 -153t152 -228.5t56.5 -278.5t-56.5 -278t-152 -228t-228.5 -153t-279 -58h-478v16h22t40.5 9.5t38.5 27.5v1329q-11 17 -36.5 26t-45.5 9h-19v17h478zM541 39q178 0 323 93.5t225 248t80 334.5q0 136 -47.5 259.5t-129.5 215.5
t-199.5 146.5t-251.5 54.5h-291v-1352h291z" />
    <glyph glyph-name="E" unicode="E" 
d="M66 1434h1007v-168h-16q-6 51 -41 86t-86 41h-678v-619h532q18 11 32.5 36t19.5 44l6 20h16v-237h-16q-2 8 -6 21.5t-19 40t-33 36.5h-532v-692h676q51 3 87 38.5t42 86.5h16v-168h-1007v16h21.5t40 9t36.5 26v1331q-10 17 -34.5 26t-43.5 9h-20v17z" />
    <glyph glyph-name="F" unicode="F" horiz-adv-x="1093" 
d="M1073 1434v-168h-16q-6 51 -41.5 86t-85.5 41h-678v-619h532q18 11 32.5 36t19.5 44l6 20h16v-239h-16q-17 75 -56 100h-534v-684q10 -17 34.5 -26t43.5 -9h20v-16h-284v16h21.5t40 9t36.5 26v1331q-10 17 -34.5 26t-43.5 9h-20v17h1007z" />
    <glyph glyph-name="G" unicode="G" horiz-adv-x="1357" 
d="M1141 303v330q-41 30 -80 35v16h248v-16q-43 -6 -82 -37v-346l-4 -9q-86 -126 -220.5 -197.5t-287.5 -74.5q-175 0 -324 96t-236 261.5t-87 359.5t87 359.5t236 261.5t324 96q144 -1 272.5 -66.5t214.5 -181.5l-86 -178q5 90 -24.5 163.5t-85.5 120.5t-130.5 73
t-160.5 28q-159 0 -288 -93t-200 -247t-71 -336q0 -180 71 -334t200 -247t288 -93q133 1 247 70t179 186z" />
    <glyph glyph-name="H" unicode="H" horiz-adv-x="1341" 
d="M63 0v16h22t40.5 9t38.5 26v1331q-11 17 -36.5 26t-45.5 9h-19v17h287v-17h-21.5t-40.5 -9t-38 -26v-514h840v514q-11 17 -36.5 26t-45.5 9h-19v17h287v-17h-21.5t-40.5 -9t-38 -26v-1331q11 -17 36 -26t44 -9h20v-16h-287v16h22t40.5 9t38.5 26v776h-840v-776
q11 -17 36 -26t44 -9h20v-16h-287z" />
    <glyph glyph-name="I" unicode="I" horiz-adv-x="413" 
d="M63 0v16h22t40.5 9t38.5 26v1331q-11 17 -36.5 26t-45.5 9h-19v17h287v-17h-21.5t-40.5 -9t-38 -26v-1331q11 -17 36 -26t44 -9h20v-16h-287z" />
    <glyph glyph-name="J" unicode="J" horiz-adv-x="948" 
d="M606 1417v17h287v-17h-21.5t-40.5 -9t-38 -26v-903q3 -119 -58 -235q-51 -109 -152.5 -175t-222.5 -67q-46 0 -98.5 11.5t-85.5 33.5q-97 51 -153 123q-18 44 11.5 89t80.5 32q25 -6 32.5 -23t5 -39t-4.5 -45.5t10.5 -47t44.5 -38.5q25 -10 37 -18q55 -20 120 -23
q157 0 252 112.5t95 309.5v901q-11 18 -36.5 27.5t-44.5 9.5h-20z" />
    <glyph glyph-name="K" unicode="K" horiz-adv-x="1243" 
d="M1098 94q23 -34 59 -54.5t76 -21.5v-16h-68l2 -2h-104l-4 4v-2h-133v16h7t15.5 0.5t21 3t19.5 8t14.5 13.5t2.5 21.5t-13 31.5l-526 717l-217 -201v-559q11 -17 36 -26t44 -9h20v-16h-287v16h22t40.5 9t38.5 26v1329q-11 18 -36.5 27.5t-45.5 9.5h-19v17h287v-17h-21.5
t-40.5 -9.5t-38 -27.5v-714l778 714q14 14 8 22t-20 10l-15 3v17h189v-17q-49 -5 -100 -35l-560 -512z" />
    <glyph glyph-name="L" unicode="L" horiz-adv-x="991" 
d="M831 41q51 6 88 41t44 86h16v-166l-916 -2v16q9 0 22 1.5t40.5 12t38.5 27.5v1325q-11 17 -36.5 26t-45.5 9h-19v17h287v-17h-21.5t-40.5 -9t-38 -26v-1341h581z" />
    <glyph glyph-name="M" unicode="M" horiz-adv-x="1572" 
d="M1407 51q10 -18 34.5 -27t44.5 -8h19v-16h-284v16q4 1 20 0t41.5 8t36.5 27v1276l-504 -1327h-47l-553 1315v-1264q10 -18 34.5 -27t44.5 -8h19v-16h-247v16h21.5t40.5 9t38 26v1329q-11 18 -36 27t-44 9l-20 -1v19h149l43 -2l553 -1321l508 1321v2h186v-19
q-4 -1 -20.5 0t-42 -8t-35.5 -27v-1329z" />
    <glyph glyph-name="N" unicode="N" horiz-adv-x="1333" 
d="M1022 1434h248v-19q-4 -1 -21 0t-43 -8t-37 -27v-1380h-47l-907 1358v-1307q10 -18 34.5 -27t44.5 -8h19v-16h-247v16q4 1 20.5 0t42.5 8t37 27v1329q-11 18 -36 27t-44 9l-20 -1v19h198l856 -1276v1222q-10 18 -34.5 27t-43.5 9l-20 -1v19z" />
    <glyph glyph-name="O" unicode="O" horiz-adv-x="1415" 
d="M707 1438q130 0 248 -57.5t204 -154t136.5 -230t50.5 -279.5t-50.5 -279.5t-136.5 -230t-204 -154t-248 -57.5q-129 0 -247 57.5t-203.5 154t-136 230t-50.5 279.5t50.5 279.5t136 230t203.5 154t247 57.5zM707 37q157 0 284 93.5t196.5 248.5t69.5 338q0 182 -69.5 337
t-196.5 249t-284 94q-155 0 -282 -94t-197 -249t-70 -337q0 -183 70 -338t196.5 -248.5t282.5 -93.5z" />
    <glyph glyph-name="P" unicode="P" horiz-adv-x="1038" 
d="M629 1434q163 0 261.5 -116t98.5 -288q0 -173 -98.5 -289t-261.5 -116h-379v-574q11 -17 36 -26t44 -9h20v-16h-287v16h22t40.5 9t38.5 26v1331q-11 18 -36.5 27t-45.5 9l-19 -1v17h566zM629 664q138 13 206 112.5t68 253.5q0 152 -68 252.5t-206 110.5h-379v-729h379z
" />
    <glyph glyph-name="Q" unicode="Q" horiz-adv-x="1417" 
d="M983 70q72 -88 133 -136t131 -49q94 9 168 62q-43 -48 -102 -77.5t-123 -33.5q-80 0 -149.5 51.5t-143.5 143.5q-88 -33 -190 -33q-129 0 -247 57.5t-203.5 154t-136 230t-50.5 279.5t50.5 279.5t136 230t203.5 154t247 57.5q130 0 248 -57.5t204 -154t136.5 -230
t50.5 -279.5q4 -199 -93.5 -373.5t-269.5 -275.5zM952 109q140 83 222.5 248t82.5 362q0 182 -69.5 336.5t-196.5 248t-284 93.5q-156 0 -282.5 -93t-196.5 -248t-70 -337q-3 -143 46 -278t144 -240q22 54 64.5 94t97.5 59q50 21 104 21q47 -1 90.5 -20.5t87 -61t72 -74.5
t74.5 -92q5 -6 8 -10zM707 39q77 0 159 29q-98 124 -140 165q-93 90 -181 84q-96 -4 -187 -127q67 -72 159 -111.5t190 -39.5z" />
    <glyph glyph-name="R" unicode="R" horiz-adv-x="1165" 
d="M1026 90q53 -60 123 -74v-16h-287v16q2 0 6.5 0.5t16 2.5t21 5.5t20 9.5t16 13.5t5.5 19t-9 25.5l-303 533h-385v-574q11 -17 36 -26t44 -9h20v-16h-287v16h22t40.5 9t38.5 26v1331q-11 18 -36.5 27t-45.5 9l-19 -1v17h566q163 0 261.5 -116t98.5 -288
q0 -149 -73.5 -257.5t-200.5 -137.5zM629 664q138 13 206 112.5t68 253.5q0 152 -68 252.5t-206 110.5h-379v-729h379z" />
    <glyph glyph-name="S" unicode="S" horiz-adv-x="1110" 
d="M532 815q187 -41 260 -68q140 -52 205 -139q55 -71 57 -163t-33 -168t-89 -132q-78 -70 -179.5 -106.5t-209.5 -36.5q-114 0 -220 39t-188 113l-63 51l12 137q34 -97 105 -166.5t159 -102t187 -32.5t192.5 34t165.5 99q44 45 68.5 106t19 133t-50.5 130q-25 33 -63 60.5
t-72 44.5t-89.5 34t-88.5 25t-97 22q-66 15 -100.5 23t-89 25.5t-87 35.5t-67 46.5t-55.5 64.5q-58 94 -40.5 184.5t79.5 162t153.5 116t182.5 47.5q122 1 217 -41t192 -129l-18 -136q-21 132 -133.5 204t-253.5 63q-73 -2 -151 -36.5t-134 -91.5t-74 -130.5t29 -153.5
q22 -36 57.5 -62.5t91.5 -46.5t96 -31t117 -28z" />
    <glyph glyph-name="T" unicode="T" horiz-adv-x="1157" 
d="M10 1434h1135v-168h-17q-4 46 -34 80.5t-74 46.5h-397v-1342q10 -17 34.5 -26t44.5 -9h19v-16h-287v16h22.5t41 9t37.5 26v1342h-383q-49 -6 -84 -41.5t-41 -85.5h-17v168z" />
    <glyph glyph-name="U" unicode="U" horiz-adv-x="1282" 
d="M983 1434h248v-17h-21t-39.5 -9t-37.5 -26v-837q0 -143 -58.5 -266.5t-172.5 -203.5t-261 -85q-144 5 -259 85t-175 204.5t-57 265.5v837q-11 18 -36.5 27t-45.5 9l-19 -1v17h287v-17h-21.5t-40.5 -9t-38 -26v-837q-4 -97 31 -189.5t92.5 -159.5t132.5 -108t149 -41
q179 0 307.5 146t134.5 352v837q-11 17 -36 26t-45 9h-19v17z" />
    <glyph glyph-name="V" unicode="V" horiz-adv-x="1345" 
d="M676 0l-563 1348q-13 34 -44.5 53t-68.5 16v17h289v-17q-3 -2 -25 0.5t-46 -10.5t-21 -39l501 -1200l502 1214q-11 17 -36 26t-44 9h-20v17h246v-17h-22.5t-41 -9.5t-37.5 -27.5z" />
    <glyph glyph-name="W" unicode="W" horiz-adv-x="1914" 
d="M1704 1434h205v-17h-18t-33 -9.5t-31 -27.5l-465 -1380l-406 1182l-397 -1182l-463 1348q-7 32 -33 51.5t-59 17.5v17h254v-17q-3 -2 -20.5 0.5t-37.5 -10t-18 -37.5l400 -1169l352 1040l47 125l403 -1167l400 1183q-8 17 -28 26t-36 9h-16v17z" />
    <glyph glyph-name="X" unicode="X" horiz-adv-x="1269" 
d="M1145 86q17 -34 49.5 -53t69.5 -17v-16h-293v16l46 3q49 9 44 32q0 3 -2 6l-451 637l-465 -645q-6 -14 15 -22t45 -9l24 -2v-16h-215v16q43 0 72 23l498 692l-435 617q-17 34 -49 52.5t-69 16.5v17h293v-17h-5t-12.5 -0.5t-18 -1.5t-19.5 -3t-18 -5.5t-12.5 -8.5t-5 -12
t6.5 -16l397 -565l416 577q15 21 -30 30q-24 5 -52 5v17h215v-17h-18t-33 -9t-31 -26l-440 -612v-2z" />
    <glyph glyph-name="Y" unicode="Y" horiz-adv-x="1148" 
d="M442 0v16h22t40.5 9t38.5 26v688l-428 607q-17 33 -49.5 52t-69.5 17v17h293v-17q-7 0 -18.5 -0.5t-35 -4t-33.5 -14t1 -26.5v-2l399 -565l416 577q16 22 -32 32q-23 4 -50 5v17h215v-17q-7 0 -18 -0.5t-33 -10t-31 -26.5l-438 -608v-721q11 -17 35.5 -26t43.5 -9h19v-16
h-287z" />
    <glyph glyph-name="Z" unicode="Z" horiz-adv-x="1204" 
d="M1026 43q51 3 87 38.5t42 86.5h16v-168h-1157l1014 1393h-780q-51 -5 -88 -40.5t-41 -86.5h-17v168h1065l-1011 -1391h870z" />
    <glyph glyph-name="bracketleft" unicode="[" horiz-adv-x="632" 
d="M551 1479h-361v-1717h359v-59h-416v1835h418v-59z" />
    <glyph glyph-name="bracketleft" unicode="&#xe90c;" horiz-adv-x="632" 
d="M551 1479h-361v-1717h359v-59h-416v1835h418v-59z" />
    <glyph glyph-name="backslash" unicode="\" horiz-adv-x="638" 
d="M84 1436h59l402 -1434h-60z" />
    <glyph glyph-name="bracketright" unicode="]" horiz-adv-x="632" 
d="M494 1479h-361v59h418v-1835h-416v59h359v1717z" />
    <glyph glyph-name="asciicircum" unicode="^" horiz-adv-x="929" 
d="M465 1432l289 -363l-37 -31l-252 318l-248 -314l-41 27l238 301z" />
    <glyph glyph-name="grave" unicode="`" horiz-adv-x="483" 
d="M272 1432l131 -265h-77l-256 265h202z" />
    <glyph glyph-name="a" unicode="a" horiz-adv-x="1044" 
d="M977 43l27 -18q-40 -37 -97 -37q-47 0 -77.5 31t-26.5 79v105v8l2 12v8q-3 -6 -37 -57q-66 -87 -179 -136.5t-229 -49.5q-150 0 -229 82q-38 41 -55.5 96.5t-9.5 112.5q25 146 228 249t511 123q3 151 -100 260q-94 84 -226 84q-81 0 -141.5 -39.5t-79.5 -121.5
q-12 -43 -57 -43q-43 0 -60 36q-29 46 17.5 96.5t141.5 83.5t196 33q154 0 252 -82q66 -60 103.5 -144t39.5 -173q6 -184 2 -434l-2 -105q0 -64 20 -73q13 -4 27.5 -1t26.5 9zM807 430v154v6l-2 12v6q-263 -17 -438.5 -104t-200.5 -211q-16 -103 49 -178q60 -66 178 -66
q166 0 281.5 107.5t132.5 273.5z" />
    <glyph glyph-name="b" unicode="b" horiz-adv-x="1048" 
d="M205 807q52 102 151 166.5t215 64.5q83 1 160 -47.5t129.5 -124.5t83.5 -168.5t31 -179.5q0 -90 -31.5 -182t-85.5 -167t-134.5 -122t-170.5 -47q-100 0 -204 61.5t-150 131.5q-15 -17 -21.5 -65.5t-5.5 -87.5v-40h-51v1382q-11 17 -36.5 26t-44.5 9h-20v17h185v-627z
M553 43q67 0 128.5 46.5t101.5 118t63.5 155.5t21.5 161q-1 75 -22.5 156.5t-59.5 152t-96 116.5t-125 46q-70 0 -131 -29.5t-104 -78t-74 -111t-46 -128.5t-15 -130v-2q0 -65 13.5 -130.5t42 -127.5t69.5 -109.5t101.5 -76.5t131.5 -29z" />
    <glyph glyph-name="c" unicode="c" horiz-adv-x="968" 
d="M887 225l37 -22q-65 -94 -164.5 -147.5t-212.5 -53.5q-126 0 -238 75t-177.5 197.5t-63.5 255.5q4 108 52 205t120.5 164t163 106t180.5 39q175 0 282 -139q16 -30 8.5 -58t-35.5 -43.5t-57 -2.5q-13 6 -23 25t-17 42.5t-21.5 49.5t-33.5 46t-55 31t-85 6
q-111 0 -200.5 -70.5t-136 -177.5t-46.5 -223q0 -130 47 -240.5t135.5 -177.5t200.5 -67q101 2 191.5 49.5t148.5 130.5z" />
    <glyph glyph-name="d" unicode="d" horiz-adv-x="1048" 
d="M842 1434h184v-17q-4 -1 -20.5 0t-42 -8t-35.5 -27v-1382h-51q-1 7 0.5 41.5t-5.5 84.5t-22 67q-44 -68 -150 -129.5t-206 -61.5q-90 0 -170.5 47t-134.5 121t-85.5 166t-31.5 182q0 71 20.5 146t59.5 141.5t90 119t117 83.5t135 30q110 0 202.5 -63.5t145.5 -165.5v12
v613zM852 516v2q0 81 -24.5 163.5t-69.5 153t-117.5 115.5t-159.5 45q-66 0 -124 -46t-96 -116.5t-60 -152t-23 -156.5q-1 -77 22.5 -161t64 -155.5t101.5 -118t128 -46.5q88 0 159 44t113 114.5t64 151.5t22 163z" />
    <glyph glyph-name="e" unicode="e" horiz-adv-x="1034" 
d="M559 1038q100 -3 180.5 -54t128.5 -131t73 -172.5t24 -186.5h-799q3 -83 30 -162t74 -143.5t119.5 -104t159.5 -39.5q101 1 190 49t148 131l39 -22q-64 -92 -163 -145.5t-210 -53.5q-101 0 -192 45t-154.5 118.5t-101 169t-37.5 195.5q1 93 42 186.5t106.5 165t156.5 115
t186 39.5zM166 551h725q0 60 -13.5 121t-42 118.5t-68.5 102t-96.5 71.5t-121.5 27q-96 0 -184.5 -62t-142.5 -164.5t-56 -213.5z" />
    <glyph glyph-name="f" unicode="f" horiz-adv-x="534" 
d="M567 1362q37 -39 35 -70t-24.5 -50t-49.5 -19q-22 0 -36 16t-11 49q9 51 -8.5 84t-58.5 33q-19 0 -49 -10q-51 -18 -72 -65.5t-14 -104.5v-211h235v-43h-235v-918q11 -18 36 -27.5t45 -9.5h19v-16h-285v16h22t40.5 9.5t38.5 27.5v918h-156v45h156v211q6 92 66.5 149.5
t141.5 57.5q92 0 164 -72z" />
    <glyph glyph-name="g" unicode="g" horiz-adv-x="987" 
d="M877 999q-36 1 -58 0t-50.5 -11t-49.5 -30q67 -51 105 -126t40 -160q-6 -157 -121 -265t-272 -104q-87 0 -168 35q-41 -3 -63 -39q-26 -55 -19 -85t40.5 -48.5t84.5 -22t114 -6.5t127.5 -2.5t126 -9t109 -26.5t76.5 -54.5t29 -93.5q0 -94 -40 -171t-106.5 -125
t-149 -73.5t-171.5 -25.5q-119 0 -222 43.5t-165 128.5q-56 72 -40.5 163t93.5 142q43 31 78 43l18 8q-45 30 -62 78t-1.5 96.5t59.5 79.5q27 16 45 20q-85 47 -134.5 131.5t-51.5 182.5q4 158 119.5 266.5t273.5 103.5q112 0 209 -57q30 46 86 95.5t104 49.5q31 0 50 -22
q29 -31 15 -71.5t-58 -37.5zM782 672q3 135 -88 229q-92 98 -223 98q-130 0 -225 -98q-91 -94 -88 -229q-3 -134 88 -228q91 -97 225 -100q135 3 223 100q91 94 88 228zM260 70q-57 7 -100 -76q-40 -76 -25 -147t64.5 -125.5t128.5 -87.5t166 -33q86 0 171 40.5t139 106
t54 133.5q0 58 -34.5 97t-86 55.5t-121.5 24.5t-132 7t-127 -0.5t-97 5.5z" />
    <glyph glyph-name="h" unicode="h" horiz-adv-x="1048" 
d="M903 51q11 -17 35.5 -26t43.5 -9h19v-16h-282v18q4 1 20.5 0t42 7.5t35.5 25.5v594q0 158 -73 261.5t-201 103.5q-113 -4 -198.5 -77.5t-108.5 -184.5v-695q11 -18 36 -27.5t44 -9.5h20v-16h-285v16h22t40.5 9.5t38.5 27.5v1329q-11 17 -36.5 26t-45.5 9h-19v17h185v-570
q44 86 127 136.5t180 52.5q104 -3 190.5 -62.5t126.5 -154.5q43 -87 43 -191v-594z" />
    <glyph glyph-name="i" unicode="i" horiz-adv-x="393" 
d="M174 1296q-29 0 -49.5 20t-20.5 48q0 29 20.5 49.5t49.5 20.5t49.5 -20.5t20.5 -49.5q0 -28 -20.5 -48t-49.5 -20zM240 51q11 -17 36 -26t44 -9h20v-16h-285v18q4 1 21 0t43 8t37 27v934q-11 18 -36.5 27t-45.5 8h-19v16h185v-987z" />
    <glyph glyph-name="j" unicode="j" horiz-adv-x="358" 
d="M160 1305q-25 0 -45 20q-19 16 -19 45q0 26 19 45t45 19t44.5 -19t18.5 -45q0 -30 -18 -45q-20 -20 -45 -20zM238 340q0 -23 1 -80.5t1.5 -93t-3 -93.5t-10 -97t-21.5 -87.5t-36.5 -81.5t-55 -62t-77.5 -44q-44 -16 -86 -16q-78 0 -111 56q-25 41 -5 76q15 25 48 25
q19 1 38 -12t32 -29t31.5 -26t38.5 -4q75 35 100 116q17 54 24.5 122.5t8.5 111t-0.5 131t-1.5 115.5q-2 207 -2 620q-10 18 -35 27t-45 8h-19v16h185v-698z" />
    <glyph glyph-name="k" unicode="k" horiz-adv-x="1028" 
d="M897 70q14 -21 42 -34.5t49 -16.5l22 -3v-16h-297v16l48 5q50 10 45 33q-1 2 -1 3l-387 551l-187 -180v-377q11 -17 36.5 -26t44.5 -9h20v-16h-281v16h22t40.5 9.5t38.5 27.5v1329q-11 17 -36.5 26t-45.5 9h-19v17h180v-947l508 498q6 17 -12 26.5t-39 10.5h-22v16h235
v-16q-52 -3 -98 -35q-3 -3 -9.5 -9t-9.5 -9l-309 -303z" />
    <glyph glyph-name="l" unicode="l" horiz-adv-x="385" 
d="M231 51q11 -17 36.5 -26t44.5 -9h20v-16h-281v16h22t40.5 9.5t38.5 27.5v1329q-11 17 -36.5 26t-45.5 9h-19v17h180v-1383z" />
    <glyph glyph-name="m" unicode="m" horiz-adv-x="1630" 
d="M1483 53q11 -18 36 -27.5t45 -9.5h19v-16h-280v16h21.5t40.5 9.5t38 27.5v592q0 225 -80 291q-64 43 -139 43t-137 -41q-70 -39 -117 -131t-68 -219v-537q10 -17 35 -26t45 -9h19v-16h-281v16h21.5t40.5 9.5t38 27.5v592q0 225 -80 291q-61 43 -139 43
q-57 0 -106.5 -24.5t-83.5 -63t-61.5 -90.5t-43.5 -102.5t-26 -104.5v-543q11 -17 36 -26t44 -9h20v-16h-285v16h22t40.5 9.5t38.5 27.5v934q-11 18 -36.5 27t-45.5 8h-19v16h185v-247q108 245 346 245q107 0 176 -55q86 -79 92 -188q41 112 138 177.5t216 65.5
q69 0 120 -22t80 -57t46.5 -88.5t23 -105t5.5 -118.5v-592z" />
    <glyph glyph-name="n" unicode="n" horiz-adv-x="1007" 
d="M862 53q10 -18 35 -27.5t45 -9.5h19v-16h-281v16h21.5t40.5 9.5t38 27.5v592q0 227 -80 293q-61 43 -137 43q-57 0 -106.5 -24.5t-84 -63.5t-62.5 -91.5t-44 -103t-26 -104.5v-543q11 -17 36 -26t44 -9h20v-16h-285v18q4 1 21 0t43 8t37 27v934q-11 18 -36.5 27t-45.5 8
h-19v16h185v-247q55 122 137 184.5t209 62.5q68 0 119 -22t80.5 -57.5t47 -89t23.5 -106t6 -118.5v-592z" />
    <glyph glyph-name="o" unicode="o" horiz-adv-x="1114" 
d="M70 567q12 117 57.5 209t113 148t146.5 85t164 29q83 0 161.5 -26t145 -77.5t113 -122.5t65.5 -169t2 -209q-19 -107 -65.5 -191t-110.5 -136.5t-139 -79.5t-156 -27q-100 0 -194 40t-166.5 111t-111 180t-25.5 236zM164 530q-4 -115 28.5 -210t88.5 -154.5t127.5 -92
t148.5 -32.5t148.5 32.5t128 92t88.5 154.5t28 210q-1 112 -35 203.5t-90.5 148.5t-127 88t-146.5 31q-75 0 -143 -30t-123 -86.5t-88 -148.5t-33 -206z" />
    <glyph glyph-name="p" unicode="p" horiz-adv-x="1079" 
d="M584 1036q90 0 170.5 -47t134.5 -122t85.5 -167t31.5 -182q0 -72 -20.5 -147.5t-59 -143.5t-89.5 -121t-116.5 -82.5t-134.5 -25.5q-112 7 -205.5 69t-144.5 162v-626h-185v16h22t40.5 9t38.5 26v1333q-11 18 -36.5 27t-45.5 8h-19v16h185v-184q60 86 152.5 134t195.5 48
zM596 41q66 0 124.5 46t96.5 117t59.5 152.5t22.5 155.5q2 77 -21 161t-63 155.5t-101.5 118t-129.5 46.5q-88 0 -159 -43.5t-113.5 -114t-64.5 -151.5t-22 -162v-4q0 -81 24.5 -163.5t69.5 -153t117.5 -115.5t159.5 -45z" />
    <glyph glyph-name="q" unicode="q" horiz-adv-x="1048" 
d="M928 -344q10 -17 34.5 -26t43.5 -9h20v-16h-283v16h22t40 9t37 26v575q-51 -100 -144.5 -161.5t-203.5 -69.5q-69 -4 -135 25.5t-117 82.5t-90 121t-59.5 143.5t-20.5 147.5q0 90 31.5 182t85.5 167t134.5 122t170.5 47q107 0 201.5 -50.5t154.5 -139.5q15 17 21.5 64.5
t6.5 86.5l-1 39h51v-1382zM852 520v4q0 64 -13.5 129t-42 127t-69.5 109.5t-101.5 76.5t-131.5 29q-67 0 -128 -46.5t-101.5 -118t-64 -155.5t-22.5 -161q1 -58 14.5 -122.5t40.5 -126.5t62.5 -111.5t84 -80t101.5 -30.5q87 0 159.5 45t117.5 115.5t69.5 153t24.5 163.5z
" />
    <glyph glyph-name="r" unicode="r" horiz-adv-x="737" 
d="M365 963q70 61 194 61q76 0 120 -29.5t28 -85.5q-6 -22 -24 -36.5t-38 -14.5q-26 0 -45 25q-61 82 -113 82q-42 0 -100.5 -56.5t-101 -124.5t-49.5 -106v-625q11 -18 36 -27.5t44 -9.5h20v-16h-281v16h22t40 9t37 26v936q-10 18 -35 27t-45 8h-19v16h181v-227
q44 71 102 129z" />
    <glyph glyph-name="s" unicode="s" horiz-adv-x="847" 
d="M752 459q44 -56 49 -122t-25.5 -125t-82.5 -108.5t-127 -78.5t-154 -29q-147 0 -273 98q-2 1 -9.5 6.5t-15.5 11t-16.5 12t-14 12t-5.5 7.5l6 127q29 -106 109 -156.5t184 -50.5q79 0 155.5 27.5t126 72.5t63.5 103t-32 119q-38 48 -101.5 78.5t-130.5 45t-133.5 29
t-124.5 44t-89 77.5q-52 103 -24 186.5t114.5 136t193.5 52.5q165 0 283 -121l-14 -120q-16 93 -85.5 142.5t-160.5 49.5q-112 0 -201 -70q-36 -31 -56 -70t-15 -81.5t44 -71.5q47 -27 114 -48.5t128 -36t122 -32t113.5 -46.5t84.5 -70z" />
    <glyph glyph-name="t" unicode="t" horiz-adv-x="567" 
d="M522 39l8 -43q-18 -4 -59 -4q-108 -3 -190 55q-85 76 -82 193v391v274h-168v41h16q44 3 79 36t55 80t33 105.5t17.5 106t4.5 88.5q3 34 0 72h45v-488h229v-41h-229v-680q-3 -88 61 -149q81 -59 180 -37z" />
    <glyph glyph-name="u" unicode="u" horiz-adv-x="1005" 
d="M852 53q11 -18 36 -27.5t44 -9.5h20v-16h-184v248q-47 -104 -139 -163.5t-207 -59.5q-66 0 -115.5 20t-79.5 52.5t-48.5 81.5t-25 99.5t-6.5 114.5v594q-11 18 -36 27t-45 8h-19v16h180v-645q0 -109 18.5 -170.5t61.5 -95.5q64 -47 139 -47q82 0 157 53t120 137.5
t45 173.5v543q-11 18 -35.5 27t-43.5 8h-19v16h182v-985z" />
    <glyph glyph-name="v" unicode="v" horiz-adv-x="1044" 
d="M784 1038h244v-16h-20.5t-38.5 -8.5t-37 -24.5l-408 -987l-409 985q-11 18 -36.5 27t-44.5 8h-20v16h285v-16h-52q-55 -6 -50 -29l348 -831l340 825q4 16 -21 25t-52 10h-28v16z" />
    <glyph glyph-name="w" unicode="w" horiz-adv-x="1570" 
d="M1305 1038h249v-16q-4 -1 -25 1t-48.5 -6.5t-32.5 -27.5l-350 -987l-318 885l-313 -885l-352 985q-11 18 -36.5 27t-44.5 8h-20v16h285v-16q-8 1 -20 0.5t-36.5 -2t-37.5 -10t-6 -23.5l288 -803l304 854h20l307 -854l289 811q0 14 -25.5 20.5t-51.5 6.5h-25v16z" />
    <glyph glyph-name="x" unicode="x" horiz-adv-x="1009" 
d="M989 16v-16h-289v16h19t39.5 2t33 10t-0.5 23l-310 436l-317 -442q-6 -15 18.5 -22t51.5 -7h28v-16h-237v16q42 -3 79 23l353 485l-328 463q-10 18 -34.5 27t-44.5 8h-19v16h288v-16h-18t-33.5 -1t-35.5 -8t-9 -18l283 -399l285 393q15 22 -29 30q-29 5 -68 3v16h238v-16
q-43 3 -80 -21l-320 -444l363 -512q43 -32 94 -29z" />
    <glyph glyph-name="y" unicode="y" 
d="M541 -33l-426 1020q-11 18 -36.5 27t-44.5 8h-20v16h287v-16q-7 0 -18.5 -0.5t-35 -3.5t-36.5 -11t-8 -20l381 -913l377 913q4 17 -21 26t-52 9h-28v16h246v-16q-4 -1 -21.5 0.5t-43 -6t-33.5 -23.5l-398 -966q-23 -68 -56 -135.5t-79.5 -137.5t-107.5 -116.5t-125 -53.5
q-43 -6 -68 32t-2 75q18 26 53 26q13 0 70 -10q36 -7 71 10t59.5 43.5t49.5 69.5t38 71.5t28 65.5z" />
    <glyph glyph-name="z" unicode="z" horiz-adv-x="925" 
d="M743 35q41 0 76.5 21t42.5 59h10v-121h-843l731 1003h-537q-46 0 -79.5 -20t-39.5 -59h-12v120h799l-731 -1003h583z" />
    <glyph glyph-name="braceleft" unicode="{" horiz-adv-x="696" 
d="M461 -193q77 -56 178 -43l8 -57q-24 -4 -41 -4q-102 0 -182 59q-46 43 -71 102t-25 122q-2 53 -2 155v89.5t-4.5 81.5t-13 73.5t-26 65t-43.5 55.5t-65 46t-90 36v65q51 15 90 36t65 46t43.5 55.5t26 65t13 73.5t4.5 81.5v89.5q0 102 2 155q0 63 25 122t71 102
q99 74 223 55l-8 -57q-102 13 -178 -45q-79 -73 -76 -179q-2 -53 -2 -151q0 -45 0.5 -87t-4 -82.5t-12 -77t-23.5 -71t-39 -63.5t-58 -54.5t-81 -45.5q46 -20 81 -45.5t58 -55t39 -63.5t23.5 -71t12 -77.5t4 -82.5t-0.5 -87q0 -98 2 -151q-3 -105 76 -181z" />
    <glyph glyph-name="braceleft" unicode="&#xe90b;" horiz-adv-x="696" 
d="M461 -193q77 -56 178 -43l8 -57q-24 -4 -41 -4q-102 0 -182 59q-46 43 -71 102t-25 122q-2 53 -2 155v89.5t-4.5 81.5t-13 73.5t-26 65t-43.5 55.5t-65 46t-90 36v65q51 15 90 36t65 46t43.5 55.5t26 65t13 73.5t4.5 81.5v89.5q0 102 2 155q0 63 25 122t71 102
q99 74 223 55l-8 -57q-102 13 -178 -45q-79 -73 -76 -179q-2 -53 -2 -151q0 -45 0.5 -87t-4 -82.5t-12 -77t-23.5 -71t-39 -63.5t-58 -54.5t-81 -45.5q46 -20 81 -45.5t58 -55t39 -63.5t23.5 -71t12 -77.5t4 -82.5t-0.5 -87q0 -98 2 -151q-3 -105 76 -181z" />
    <glyph glyph-name="bar" unicode="|" horiz-adv-x="225" 
d="M84 -225v1841l57 -2v-1839h-57z" />
    <glyph glyph-name="braceright" unicode="}" horiz-adv-x="696" 
d="M270 -193q79 76 76 181q2 53 2 151q0 45 -0.5 87t4 82.5t12 77.5t23.5 71t39 63.5t58 55t81 45.5q-46 20 -81 45.5t-58 54.5t-39 63.5t-23.5 71t-12 77t-4 82.5t0.5 87q0 98 -2 151q3 106 -76 179q-76 58 -178 45l-8 57q124 19 223 -55q46 -43 71 -102t25 -122
q3 -79 3 -155v-89.5t4.5 -81.5t13 -73.5t26 -65t43 -55.5t64.5 -46t90 -36v-65q-51 -15 -90 -36t-64.5 -46t-43 -55.5t-26 -65t-13 -73.5t-4.5 -81.5v-89.5q0 -75 -3 -155q0 -63 -25 -122t-71 -102q-80 -59 -182 -59q-17 0 -41 4l8 57q101 -13 178 43z" />
    <glyph glyph-name="asciitilde" unicode="~" horiz-adv-x="1187" 
d="M1077 604l37 -43q-141 -120 -328 -135q-107 0 -186 61q-98 82 -223 82q-74 0 -142 -29.5t-118 -86.5l-43 36q59 66 138.5 101t164.5 35q140 0 256 -90q66 -50 153 -50q68 0 142 31.5t106.5 54.5t42.5 33z" />
    <glyph glyph-name="uni00A0" unicode="&#xa0;" horiz-adv-x="741" 
 />
    <glyph glyph-name="sterling" unicode="&#xa3;" horiz-adv-x="1189" 
d="M1024 254q18 -37 70 -152q-108 -102 -267 -102q-93 0 -259 51t-236 51q-51 0 -92 -16q-46 -15 -105 -47l-4 78q171 157 221 381q24 107 -10 209h-240v57h220q-4 10 -12.5 30.5t-12.5 30.5q-22 49 -33 78t-22.5 74.5t-8 89t20.5 88.5q46 127 158.5 203.5t249.5 73.5
q130 -13 230.5 -97t137.5 -209l-39 -14q-37 113 -127 188.5t-207 90.5q-111 7 -198 -70.5t-127 -185.5q-13 -37 -15.5 -72.5t7.5 -75t20 -65.5t31 -74q6 -16 19.5 -47.5t15.5 -36.5h342v-57h-324q31 -110 6 -224q-57 -190 -188 -327q46 8 71 10q100 7 187 -2q51 -5 149 -29
t148 -29q52 -7 127 0q49 9 71 52q25 46 11 90z" />
    <glyph glyph-name="sterling" unicode="&#xe90f;" horiz-adv-x="1189" 
d="M1024 254q18 -37 70 -152q-108 -102 -267 -102q-93 0 -259 51t-236 51q-51 0 -92 -16q-46 -15 -105 -47l-4 78q171 157 221 381q24 107 -10 209h-240v57h220q-4 10 -12.5 30.5t-12.5 30.5q-22 49 -33 78t-22.5 74.5t-8 89t20.5 88.5q46 127 158.5 203.5t249.5 73.5
q130 -13 230.5 -97t137.5 -209l-39 -14q-37 113 -127 188.5t-207 90.5q-111 7 -198 -70.5t-127 -185.5q-13 -37 -15.5 -72.5t7.5 -75t20 -65.5t31 -74q6 -16 19.5 -47.5t15.5 -36.5h342v-57h-324q31 -110 6 -224q-57 -190 -188 -327q46 8 71 10q100 7 187 -2q51 -5 149 -29
t148 -29q52 -7 127 0q49 9 71 52q25 46 11 90z" />
    <glyph glyph-name="yen" unicode="&#xa5;" horiz-adv-x="1292" 
d="M514 6v17q4 1 20.5 -0.5t42.5 7.5t37 27v443h-352v59h352v166h-352v59h324l-400 568q-17 34 -49 52.5t-69 16.5v17h292v-17q-7 0 -18.5 -1t-35 -4.5t-33.5 -14.5t1 -27v-2l400 -563l416 577q15 21 -30 30q-24 5 -52 5v17h215v-17h-18t-33 -9t-31 -26l-434 -602h321v-59
h-326v-166h326v-59h-326v-443q11 -18 36 -26.5t44 -8.5l19 1v-17h-287z" />
    <glyph glyph-name="yen" unicode="&#xe910;" horiz-adv-x="1292" 
d="M514 6v17q4 1 20.5 -0.5t42.5 7.5t37 27v443h-352v59h352v166h-352v59h324l-400 568q-17 34 -49 52.5t-69 16.5v17h292v-17q-7 0 -18.5 -1t-35 -4.5t-33.5 -14.5t1 -27v-2l400 -563l416 577q15 21 -30 30q-24 5 -52 5v17h215v-17h-18t-33 -9t-31 -26l-434 -602h321v-59
h-326v-166h326v-59h-326v-443q11 -18 36 -26.5t44 -8.5l19 1v-17h-287z" />
    <glyph glyph-name="dieresis" unicode="&#xa8;" horiz-adv-x="737" 
d="M184 1413q43 0 75 -31.5t32 -74.5q0 -40 -31 -74q-31 -31 -76 -31q-43 0 -73.5 31t-30.5 74q0 44 30.5 75t73.5 31zM551 1413q43 0 73.5 -31t30.5 -75q0 -43 -30.5 -74t-73.5 -31q-45 0 -76 31q-31 34 -31 74q0 43 32 74.5t75 31.5z" />
    <glyph glyph-name="dieresis" unicode="&#xe918;" horiz-adv-x="737" 
d="M184 1413q43 0 75 -31.5t32 -74.5q0 -40 -31 -74q-31 -31 -76 -31q-43 0 -73.5 31t-30.5 74q0 44 30.5 75t73.5 31zM551 1413q43 0 73.5 -31t30.5 -75q0 -43 -30.5 -74t-73.5 -31q-45 0 -76 31q-31 34 -31 74q0 43 32 74.5t75 31.5z" />
    <glyph glyph-name="copyright" unicode="&#xa9;" horiz-adv-x="1689" 
d="M844 1413q198 -1 366.5 -99.5t267 -267t99.5 -366.5q-1 -198 -99.5 -366.5t-267 -266.5t-366.5 -98q-148 0 -283.5 58t-233.5 156t-156 233.5t-58 283.5q0 198 98 366.5t266.5 267t366.5 99.5zM844 6q137 0 262 53.5t215.5 143.5t144 215t54.5 262q-1 137 -54.5 262
t-144 215.5t-215.5 144t-262 54.5q-137 -1 -262 -54.5t-215 -144t-143.5 -215.5t-53.5 -262t53.5 -262t143.5 -215t215 -143.5t262 -53.5zM862 369q66 0 123 31t94 85l47 -32q-44 -66 -114 -103t-150 -39q-138 0 -236 108.5t-98 260.5q0 154 98 262.5t236 108.5
q75 -2 142.5 -35.5t111.5 -93.5l-45 -35q-36 49 -91.5 76.5t-117.5 29.5q-114 0 -195 -92t-81 -221t81 -220t195 -91z" />
    <glyph glyph-name="copyright" unicode="&#xe911;" horiz-adv-x="1689" 
d="M844 1413q198 -1 366.5 -99.5t267 -267t99.5 -366.5q-1 -198 -99.5 -366.5t-267 -266.5t-366.5 -98q-148 0 -283.5 58t-233.5 156t-156 233.5t-58 283.5q0 198 98 366.5t266.5 267t366.5 99.5zM844 6q137 0 262 53.5t215.5 143.5t144 215t54.5 262q-1 137 -54.5 262
t-144 215.5t-215.5 144t-262 54.5q-137 -1 -262 -54.5t-215 -144t-143.5 -215.5t-53.5 -262t53.5 -262t143.5 -215t215 -143.5t262 -53.5zM862 369q66 0 123 31t94 85l47 -32q-44 -66 -114 -103t-150 -39q-138 0 -236 108.5t-98 260.5q0 154 98 262.5t236 108.5
q75 -2 142.5 -35.5t111.5 -93.5l-45 -35q-36 49 -91.5 76.5t-117.5 29.5q-114 0 -195 -92t-81 -221t81 -220t195 -91z" />
    <glyph glyph-name="uni00AD" unicode="&#xad;" horiz-adv-x="0" 
 />
    <glyph glyph-name="registered" unicode="&#xae;" horiz-adv-x="612" 
d="M305 1430q97 0 165.5 -68.5t70.5 -165.5q-2 -97 -70.5 -165t-165.5 -68t-165 68t-68 165t68 165.5t165 68.5zM305 981q91 0 154 63t63 152t-63 152t-154 63q-89 0 -152 -63t-63 -152t63 -152t152 -63zM395 1249q0 -23 -13.5 -42t-35.5 -27l60 -103l-17 -10l-63 109h-4
h-80v-101h-19v242h2v4h97q30 0 51.5 -21.5t21.5 -50.5zM322 1194q23 0 39 16t16 39q0 22 -16 38t-39 16h-78v-109h78z" />
    <glyph glyph-name="registered" unicode="&#xe912;" horiz-adv-x="612" 
d="M305 1430q97 0 165.5 -68.5t70.5 -165.5q-2 -97 -70.5 -165t-165.5 -68t-165 68t-68 165t68 165.5t165 68.5zM305 981q91 0 154 63t63 152t-63 152t-154 63q-89 0 -152 -63t-63 -152t63 -152t152 -63zM395 1249q0 -23 -13.5 -42t-35.5 -27l60 -103l-17 -10l-63 109h-4
h-80v-101h-19v242h2v4h97q30 0 51.5 -21.5t21.5 -50.5zM322 1194q23 0 39 16t16 39q0 22 -16 38t-39 16h-78v-109h78z" />
    <glyph glyph-name="degree" unicode="&#xb0;" horiz-adv-x="876" 
d="M451 1434q112 0 191 -80t79 -193q0 -112 -78.5 -191t-191.5 -81q-113 2 -192 81t-79 191q0 113 79.5 193t191.5 80zM451 944q89 0 152 64t63 153t-63 153t-152 64t-152 -64t-63 -153t63 -153t152 -64z" />
    <glyph glyph-name="plusminus" unicode="&#xb1;" horiz-adv-x="858" 
d="M451 1186v-332h333v-59h-333v-320l-58 2v318h-319v59h319v334zM786 272h-710l-2 58h712v-58z" />
    <glyph glyph-name="acute" unicode="&#xb4;" horiz-adv-x="483" 
d="M72 1169l131 265h203l-256 -265h-78z" />
    <glyph glyph-name="cedilla" unicode="&#xb8;" horiz-adv-x="653" 
d="M514 -182q12 -48 -3 -96t-54 -80q-57 -48 -131 -45q-107 3 -193 67l33 47q77 -57 160 -57q55 0 94 31q25 20 35.5 51t3.5 63q-18 31 -49 48.5t-66 17.5q-28 0 -47 -8l-49 -13l53 197l55 -14l-28 -107q59 8 109.5 -20t76.5 -82z" />
    <glyph glyph-name="cedilla" unicode="&#xe91b;" horiz-adv-x="653" 
d="M514 -182q12 -48 -3 -96t-54 -80q-57 -48 -131 -45q-107 3 -193 67l33 47q77 -57 160 -57q55 0 94 31q25 20 35.5 51t3.5 63q-18 31 -49 48.5t-66 17.5q-28 0 -47 -8l-49 -13l53 197l55 -14l-28 -107q59 8 109.5 -20t76.5 -82z" />
    <glyph glyph-name="Agrave" unicode="&#xc0;" horiz-adv-x="1423" 
d="M745 1827l132 -264h-78l-256 264h202zM1239 172q21 -48 47.5 -81.5t50 -47.5t44 -21t32.5 -6h12v-16h-389v18q0 1 5.5 0t14 1t20 3.5t22.5 7t22 12.5t19 20t12 28t2.5 38t-10.5 50l-129 311h-649l-168 -421q11 -24 35.5 -37t43.5 -14l19 -1v-16h-299v16q87 3 158 58
l548 1366h13zM381 530h614l-313 756z" />
    <glyph glyph-name="Aacute" unicode="&#xc1;" horiz-adv-x="1423" 
d="M545 1565l131 264h203l-256 -264h-78zM1239 172q21 -48 47.5 -81.5t50 -47.5t44 -21t32.5 -6h12v-16h-389v18q0 1 5.5 0t14 1t20 3.5t22.5 7t22 12.5t19 20t12 28t2.5 38t-10.5 50l-129 311h-649l-168 -421q11 -24 35.5 -37t43.5 -14l19 -1v-16h-299v16q87 3 158 58
l548 1366h13zM381 530h614l-313 756z" />
    <glyph glyph-name="Acircumflex" unicode="&#xc2;" horiz-adv-x="1423" 
d="M713 1829l211 -266l-62 -58l-149 195l-146 -189l-65 52zM1239 172q21 -48 47.5 -81.5t50 -47.5t44 -21t32.5 -6h12v-16h-389v18q0 1 5.5 0t14 1t20 3.5t22.5 7t22 12.5t19 20t12 28t2.5 38t-10.5 50l-129 311h-649l-168 -421q11 -24 35.5 -37t43.5 -14l19 -1v-16h-299v16
q87 3 158 58l548 1366h13zM381 530h614l-313 756z" />
    <glyph glyph-name="Atilde" unicode="&#xc3;" horiz-adv-x="1423" 
d="M1024 1776l70 -45q-57 -117 -183 -156q-60 -8 -117 13t-98 65q-39 42 -102 39q-26 -3 -53.5 -18t-48.5 -33.5t-38 -36.5t-26 -30l-10 -13l-66 49q5 7 13 17.5t30 35t46 44t58.5 37t67.5 21.5q89 10 150 -51q31 -35 74.5 -52.5t89.5 -12.5q95 30 143 127zM1239 172
q21 -48 47.5 -81.5t50 -47.5t44 -21t32.5 -6h12v-16h-389v18q0 1 5.5 0t14 1t20 3.5t22.5 7t22 12.5t19 20t12 28t2.5 38t-10.5 50l-129 311h-649l-168 -421q11 -24 35.5 -37t43.5 -14l19 -1v-16h-299v16q87 3 158 58l548 1366h13zM381 530h614l-313 756z" />
    <glyph glyph-name="Adieresis" unicode="&#xc4;" horiz-adv-x="1423" 
d="M528 1808q43 0 75 -31.5t32 -74.5q0 -40 -31 -74q-31 -31 -76 -31q-43 0 -73.5 31t-30.5 74q0 44 30.5 75t73.5 31zM895 1808q43 0 73.5 -31t30.5 -75q0 -43 -30.5 -74t-73.5 -31q-45 0 -76 31q-31 34 -31 74q0 43 32 74.5t75 31.5zM1239 172q21 -48 47.5 -81.5t50 -47.5
t44 -21t32.5 -6h12v-16h-389v18q0 1 5.5 0t14 1t20 3.5t22.5 7t22 12.5t19 20t12 28t2.5 38t-10.5 50l-129 311h-649l-168 -421q11 -24 35.5 -37t43.5 -14l19 -1v-16h-299v16q87 3 158 58l548 1366h13zM381 530h614l-313 756z" />
    <glyph glyph-name="Aring" unicode="&#xc5;" horiz-adv-x="1423" 
d="M713 1851q73 0 124.5 -52t51.5 -126q0 -73 -51 -124.5t-125 -53.5q-75 1 -126.5 53t-51.5 125q0 74 51.5 126t126.5 52zM713 1556q43 0 79.5 31.5t36.5 85.5t-37 85.5t-79 31.5q-43 0 -80 -31.5t-37 -85.5t37 -85.5t80 -31.5zM1239 172q21 -48 47.5 -81.5t50 -47.5
t44 -21t32.5 -6h12v-16h-389v18q0 1 5.5 0t14 1t20 3.5t22.5 7t22 12.5t19 20t12 28t2.5 38t-10.5 50l-129 311h-649l-168 -421q11 -24 35.5 -37t43.5 -14l19 -1v-16h-299v16q87 3 158 58l548 1366h13zM381 530h614l-313 756z" />
    <glyph glyph-name="AE" unicode="&#xc6;" horiz-adv-x="2189" 
d="M1133 1434h170l4 6h12v-6h821v-168h-16q-6 51 -41 86t-86 41h-678v-619h532q18 11 32.5 36t20.5 44l5 20h16v-237h-16q-2 8 -6 21.5t-19 40t-33 36.5h-532v-620q7 -30 26.5 -46t75.5 -26h574q51 3 87 38.5t42 86.5h16v-168h-1102l6 18h9t22.5 2.5t32.5 7.5t35.5 16.5
t34 28t26.5 44t15 61.5l2 311h-650l-344 -421q1 -24 20.5 -37t38.5 -14l19 -1l-8 -16h-299l6 16q86 3 182 58l1045 1274v34q-10 17 -34.5 26t-44.5 9h-19v17zM606 530h615l2 754v2z" />
    <glyph glyph-name="Ccedilla" unicode="&#xc7;" horiz-adv-x="1310" 
d="M741 41q175 7 303 101.5t205 256.5v-127q-87 -126 -221 -198.5t-287 -73.5q-21 0 -61 4l-23 -84q59 8 110 -20t77 -82q12 -48 -3.5 -96t-54.5 -80q-57 -48 -131 -45q-106 3 -192 67l33 47q77 -57 159 -57q56 0 95 31q24 21 34.5 51.5t3.5 62.5q-18 32 -48.5 49t-65.5 17
q-28 0 -47 -8l-49 -13l45 168q-113 23 -215.5 87.5t-177.5 156.5t-119.5 212.5t-44.5 248.5q0 145 56 278t148 229t216 153t255 57q145 -3 273.5 -68t216.5 -180l-86 -178q6 118 -48.5 206t-147.5 132t-208 45q-159 0 -294.5 -92.5t-214 -247.5t-78.5 -334
q0 -180 78.5 -335.5t214 -248t294.5 -92.5z" />
    <glyph glyph-name="Egrave" unicode="&#xc8;" 
d="M594 1827l131 -264h-78l-256 264h203zM66 1434h1007v-168h-16q-6 51 -41 86t-86 41h-678v-619h532q18 11 32.5 36t19.5 44l6 20h16v-237h-16q-2 8 -6 21.5t-19 40t-33 36.5h-532v-692h676q51 3 87 38.5t42 86.5h16v-168h-1007v16h21.5t40 9t36.5 26v1331q-10 17 -34.5 26
t-43.5 9h-20v17z" />
    <glyph glyph-name="Eacute" unicode="&#xc9;" 
d="M395 1565l131 264h203l-256 -264h-78zM66 1434h1007v-168h-16q-6 51 -41 86t-86 41h-678v-619h532q18 11 32.5 36t19.5 44l6 20h16v-237h-16q-2 8 -6 21.5t-19 40t-33 36.5h-532v-692h676q51 3 87 38.5t42 86.5h16v-168h-1007v16h21.5t40 9t36.5 26v1331q-10 17 -34.5 26
t-43.5 9h-20v17z" />
    <glyph glyph-name="Ecircumflex" unicode="&#xca;" 
d="M561 1829l211 -266l-59 -58l-152 195l-145 -189l-66 52zM66 1434h1007v-168h-16q-6 51 -41 86t-86 41h-678v-619h532q18 11 32.5 36t19.5 44l6 20h16v-237h-16q-2 8 -6 21.5t-19 40t-33 36.5h-532v-692h676q51 3 87 38.5t42 86.5h16v-168h-1007v16h21.5t40 9t36.5 26
v1331q-10 17 -34.5 26t-43.5 9h-20v17z" />
    <glyph glyph-name="Edieresis" unicode="&#xcb;" 
d="M379 1808q43 0 74.5 -31.5t31.5 -74.5q0 -41 -30 -74q-31 -31 -76 -31q-43 0 -74 31t-31 74q0 44 31 75t74 31zM745 1808q43 0 74 -31t31 -75q0 -43 -31 -74t-74 -31q-44 0 -75 31q-31 34 -31 74q0 43 31.5 74.5t74.5 31.5zM66 1434h1007v-168h-16q-6 51 -41 86t-86 41
h-678v-619h532q18 11 32.5 36t19.5 44l6 20h16v-237h-16q-2 8 -6 21.5t-19 40t-33 36.5h-532v-692h676q51 3 87 38.5t42 86.5h16v-168h-1007v16h21.5t40 9t36.5 26v1331q-10 17 -34.5 26t-43.5 9h-20v17z" />
    <glyph glyph-name="Igrave" unicode="&#xcc;" horiz-adv-x="413" 
d="M244 1806l131 -264h-78l-256 264h203zM63 0v16h22t40.5 9t38.5 26v1331q-11 17 -36.5 26t-45.5 9h-19v17h287v-17h-21.5t-40.5 -9t-38 -26v-1331q11 -17 36 -26t44 -9h20v-16h-287z" />
    <glyph glyph-name="Iacute" unicode="&#xcd;" horiz-adv-x="413" 
d="M41 1544l131 264h203l-256 -264h-78zM63 0v16h22t40.5 9t38.5 26v1331q-11 17 -36.5 26t-45.5 9h-19v17h287v-17h-21.5t-40.5 -9t-38 -26v-1331q11 -17 36 -26t44 -9h20v-16h-287z" />
    <glyph glyph-name="Icircumflex" unicode="&#xce;" horiz-adv-x="413" 
d="M207 1829l211 -266l-60 -58l-151 195l-146 -189l-65 52zM63 0v16h22t40.5 9t38.5 26v1331q-11 17 -36.5 26t-45.5 9h-19v17h287v-17h-21.5t-40.5 -9t-38 -26v-1331q11 -17 36 -26t44 -9h20v-16h-287z" />
    <glyph glyph-name="Idieresis" unicode="&#xcf;" horiz-adv-x="413" 
d="M25 1808q43 0 74.5 -31.5t31.5 -74.5q0 -40 -31 -74q-31 -31 -75 -31t-75.5 31t-31.5 74q0 44 31.5 75t75.5 31zM391 1808q43 0 74 -31t31 -75q0 -43 -31 -74t-74 -31q-45 0 -76 31q-30 33 -30 74q0 43 31.5 74.5t74.5 31.5zM63 0v16h22t40.5 9t38.5 26v1331
q-11 17 -36.5 26t-45.5 9h-19v17h287v-17h-21.5t-40.5 -9t-38 -26v-1331q11 -17 36 -26t44 -9h20v-16h-287z" />
    <glyph glyph-name="Eth" unicode="&#xd0;" horiz-adv-x="1325" 
d="M541 1432q146 0 279 -57t228.5 -153t152 -228.5t56.5 -278.5t-56.5 -278t-152 -228t-228.5 -153t-279 -58h-478v16h22t40.5 9.5t38.5 27.5v733h-203v58h203v538q-11 17 -36.5 26t-45.5 9h-19v17h478zM541 39q178 0 323 93.5t225 248t80 334.5q0 136 -47.5 259.5
t-129.5 215.5t-199.5 146.5t-251.5 54.5h-291v-549h643l-2 -58h-641v-745h291z" />
    <glyph glyph-name="Ntilde" unicode="&#xd1;" horiz-adv-x="1333" 
d="M969 1776l69 -45q-57 -117 -182 -156q-60 -8 -117 13t-98 65q-39 42 -102 39q-26 -3 -54 -18t-49 -33.5t-37.5 -36.5t-26.5 -30l-10 -13l-65 49q5 7 13 17.5t30 35t46 44t58.5 37t67.5 21.5q89 10 150 -51q31 -35 74 -52.5t89 -12.5q97 31 144 127zM1022 1434h248v-19
q-4 -1 -21 0t-43 -8t-37 -27v-1380h-47l-907 1358v-1307q10 -18 34.5 -27t44.5 -8h19v-16h-247v16q4 1 20.5 0t42.5 8t37 27v1329q-11 18 -36 27t-44 9l-20 -1v19h198l856 -1276v1222q-10 18 -34.5 27t-43.5 9l-20 -1v19z" />
    <glyph glyph-name="Ograve" unicode="&#xd2;" horiz-adv-x="1415" 
d="M743 1827l131 -264h-77l-256 264h202zM707 1438q130 0 248 -57.5t204 -154t136.5 -230t50.5 -279.5t-50.5 -279.5t-136.5 -230t-204 -154t-248 -57.5q-129 0 -247 57.5t-203.5 154t-136 230t-50.5 279.5t50.5 279.5t136 230t203.5 154t247 57.5zM707 37q157 0 284 93.5
t196.5 248.5t69.5 338q0 182 -69.5 337t-196.5 249t-284 94q-155 0 -282 -94t-197 -249t-70 -337q0 -183 70 -338t196.5 -248.5t282.5 -93.5z" />
    <glyph glyph-name="Oacute" unicode="&#xd3;" horiz-adv-x="1415" 
d="M541 1565l131 264h202l-256 -264h-77zM707 1438q130 0 248 -57.5t204 -154t136.5 -230t50.5 -279.5t-50.5 -279.5t-136.5 -230t-204 -154t-248 -57.5q-129 0 -247 57.5t-203.5 154t-136 230t-50.5 279.5t50.5 279.5t136 230t203.5 154t247 57.5zM707 37q157 0 284 93.5
t196.5 248.5t69.5 338q0 182 -69.5 337t-196.5 249t-284 94q-155 0 -282 -94t-197 -249t-70 -337q0 -183 70 -338t196.5 -248.5t282.5 -93.5z" />
    <glyph glyph-name="Ocircumflex" unicode="&#xd4;" horiz-adv-x="1415" 
d="M709 1829l211 -266l-62 -58l-149 195l-146 -189l-65 52zM707 1438q130 0 248 -57.5t204 -154t136.5 -230t50.5 -279.5t-50.5 -279.5t-136.5 -230t-204 -154t-248 -57.5q-129 0 -247 57.5t-203.5 154t-136 230t-50.5 279.5t50.5 279.5t136 230t203.5 154t247 57.5zM707 37
q157 0 284 93.5t196.5 248.5t69.5 338q0 182 -69.5 337t-196.5 249t-284 94q-155 0 -282 -94t-197 -249t-70 -337q0 -183 70 -338t196.5 -248.5t282.5 -93.5z" />
    <glyph glyph-name="Otilde" unicode="&#xd5;" horiz-adv-x="1415" 
d="M1010 1776l69 -45q-57 -117 -182 -156q-60 -8 -117 13t-98 65q-39 42 -102 39q-26 -3 -54 -18t-49 -33.5t-37.5 -36.5t-26.5 -30l-10 -13l-65 49q5 7 13 17.5t30 35t46 44t58.5 37t67.5 21.5q88 10 149 -51q31 -35 74.5 -52.5t89.5 -12.5q97 31 144 127zM707 1438
q130 0 248 -57.5t204 -154t136.5 -230t50.5 -279.5t-50.5 -279.5t-136.5 -230t-204 -154t-248 -57.5q-129 0 -247 57.5t-203.5 154t-136 230t-50.5 279.5t50.5 279.5t136 230t203.5 154t247 57.5zM707 37q157 0 284 93.5t196.5 248.5t69.5 338q0 182 -69.5 337t-196.5 249
t-284 94q-155 0 -282 -94t-197 -249t-70 -337q0 -183 70 -338t196.5 -248.5t282.5 -93.5z" />
    <glyph glyph-name="Odieresis" unicode="&#xd6;" horiz-adv-x="1415" 
d="M524 1808q43 0 75 -31.5t32 -74.5q0 -40 -31 -74q-31 -31 -76 -31q-43 0 -73.5 31t-30.5 74q0 44 30.5 75t73.5 31zM891 1808q43 0 73.5 -31t30.5 -75q0 -43 -30.5 -74t-73.5 -31q-45 0 -76 31q-31 34 -31 74q0 43 32 74.5t75 31.5zM707 1438q130 0 248 -57.5t204 -154
t136.5 -230t50.5 -279.5t-50.5 -279.5t-136.5 -230t-204 -154t-248 -57.5q-129 0 -247 57.5t-203.5 154t-136 230t-50.5 279.5t50.5 279.5t136 230t203.5 154t247 57.5zM707 37q157 0 284 93.5t196.5 248.5t69.5 338q0 182 -69.5 337t-196.5 249t-284 94q-155 0 -282 -94
t-197 -249t-70 -337q0 -183 70 -338t196.5 -248.5t282.5 -93.5z" />
    <glyph glyph-name="Oslash" unicode="&#xd8;" horiz-adv-x="1415" 
d="M707 1438q81 0 174 -27l16 62h59l-22 -82q183 -79 297.5 -263t114.5 -411q0 -146 -50.5 -279.5t-136.5 -230t-204 -154t-248 -57.5q-129 0 -247 57.5t-203.5 154t-136 230t-50.5 279.5t50.5 279.5t136 230t203.5 154t247 57.5zM508 82l360 1286q-82 29 -161 29
q-155 0 -282 -94t-197 -249t-70 -337q0 -214 95.5 -388t254.5 -247zM707 37q157 0 284 93.5t196.5 248.5t69.5 338q0 207 -91.5 379t-243.5 250l-361 -1287q71 -22 146 -22z" />
    <glyph glyph-name="Ugrave" unicode="&#xd9;" horiz-adv-x="1282" 
d="M678 1827l131 -264h-78l-256 264h203zM983 1434h248v-17h-21t-39.5 -9t-37.5 -26v-837q0 -143 -58.5 -266.5t-172.5 -203.5t-261 -85q-144 5 -259 85t-175 204.5t-57 265.5v837q-11 18 -36.5 27t-45.5 9l-19 -1v17h287v-17h-21.5t-40.5 -9t-38 -26v-837q-4 -97 31 -189.5
t92.5 -159.5t132.5 -108t149 -41q179 0 307.5 146t134.5 352v837q-11 17 -36 26t-45 9h-19v17z" />
    <glyph glyph-name="Uacute" unicode="&#xda;" horiz-adv-x="1282" 
d="M475 1565l131 264h203l-256 -264h-78zM983 1434h248v-17h-21t-39.5 -9t-37.5 -26v-837q0 -143 -58.5 -266.5t-172.5 -203.5t-261 -85q-144 5 -259 85t-175 204.5t-57 265.5v837q-11 18 -36.5 27t-45.5 9l-19 -1v17h287v-17h-21.5t-40.5 -9t-38 -26v-837q-4 -97 31 -189.5
t92.5 -159.5t132.5 -108t149 -41q179 0 307.5 146t134.5 352v837q-11 17 -36 26t-45 9h-19v17z" />
    <glyph glyph-name="Ucircumflex" unicode="&#xdb;" horiz-adv-x="1282" 
d="M641 1829l211 -266l-59 -58l-152 195l-145 -189l-66 52zM983 1434h248v-17h-21t-39.5 -9t-37.5 -26v-837q0 -143 -58.5 -266.5t-172.5 -203.5t-261 -85q-144 5 -259 85t-175 204.5t-57 265.5v837q-11 18 -36.5 27t-45.5 9l-19 -1v17h287v-17h-21.5t-40.5 -9t-38 -26v-837
q-4 -97 31 -189.5t92.5 -159.5t132.5 -108t149 -41q179 0 307.5 146t134.5 352v837q-11 17 -36 26t-45 9h-19v17z" />
    <glyph glyph-name="Udieresis" unicode="&#xdc;" horiz-adv-x="1282" 
d="M459 1808q43 0 74.5 -31.5t31.5 -74.5q0 -41 -30 -74q-31 -31 -76 -31q-43 0 -74 31t-31 74q0 44 31 75t74 31zM825 1808q43 0 74 -31t31 -75q0 -43 -31 -74t-74 -31q-44 0 -75 31q-31 34 -31 74q0 43 31.5 74.5t74.5 31.5zM983 1434h248v-17h-21t-39.5 -9t-37.5 -26
v-837q0 -143 -58.5 -266.5t-172.5 -203.5t-261 -85q-144 5 -259 85t-175 204.5t-57 265.5v837q-11 18 -36.5 27t-45.5 9l-19 -1v17h287v-17h-21.5t-40.5 -9t-38 -26v-837q-4 -97 31 -189.5t92.5 -159.5t132.5 -108t149 -41q179 0 307.5 146t134.5 352v837q-11 17 -36 26
t-45 9h-19v17z" />
    <glyph glyph-name="Yacute" unicode="&#xdd;" horiz-adv-x="1148" 
d="M408 1565l131 264h202l-256 -264h-77zM442 0v16h22t40.5 9t38.5 26v688l-428 607q-17 33 -49.5 52t-69.5 17v17h293v-17q-7 0 -18.5 -0.5t-35 -4t-33.5 -14t1 -26.5v-2l399 -565l416 577q16 22 -32 32q-23 4 -50 5v17h215v-17q-7 0 -18 -0.5t-33 -10t-31 -26.5l-438 -608
v-721q11 -17 35.5 -26t43.5 -9h19v-16h-287z" />
    <glyph glyph-name="Thorn" unicode="&#xde;" horiz-adv-x="1038" 
d="M63 0v16h22t40.5 9t38.5 26v1331q-11 17 -36.5 26t-45.5 9h-19v17h287v-17h-21.5t-40.5 -9t-38 -26v-127h379q163 0 261.5 -115.5t98.5 -287.5q0 -174 -98.5 -290t-261.5 -116h-379v-395q11 -17 36 -26t44 -9h20v-16h-287zM629 485q138 13 206 113t68 254q0 152 -68 252
t-206 110h-379v-729h379z" />
    <glyph glyph-name="agrave" unicode="&#xe0;" horiz-adv-x="1044" 
d="M559 1432l131 -265h-78l-256 265h203zM977 43l27 -18q-40 -37 -97 -37q-47 0 -77.5 31t-26.5 79v105v8l2 12v8q-3 -6 -37 -57q-66 -87 -179 -136.5t-229 -49.5q-150 0 -229 82q-38 41 -55.5 96.5t-9.5 112.5q25 146 228 249t511 123q3 151 -100 260q-94 84 -226 84
q-81 0 -141.5 -39.5t-79.5 -121.5q-12 -43 -57 -43q-43 0 -60 36q-29 46 17.5 96.5t141.5 83.5t196 33q154 0 252 -82q66 -60 103.5 -144t39.5 -173q6 -184 2 -434l-2 -105q0 -64 20 -73q13 -4 27.5 -1t26.5 9zM807 430v154v6l-2 12v6q-263 -17 -438.5 -104t-200.5 -211
q-16 -103 49 -178q60 -66 178 -66q166 0 281.5 107.5t132.5 273.5z" />
    <glyph glyph-name="aacute" unicode="&#xe1;" horiz-adv-x="1044" 
d="M356 1169l131 265h203l-256 -265h-78zM977 43l27 -18q-40 -37 -97 -37q-47 0 -77.5 31t-26.5 79v105v8l2 12v8q-3 -6 -37 -57q-66 -87 -179 -136.5t-229 -49.5q-150 0 -229 82q-38 41 -55.5 96.5t-9.5 112.5q25 146 228 249t511 123q3 151 -100 260q-94 84 -226 84
q-81 0 -141.5 -39.5t-79.5 -121.5q-12 -43 -57 -43q-43 0 -60 36q-29 46 17.5 96.5t141.5 83.5t196 33q154 0 252 -82q66 -60 103.5 -144t39.5 -173q6 -184 2 -434l-2 -105q0 -64 20 -73q13 -4 27.5 -1t26.5 9zM807 430v154v6l-2 12v6q-263 -17 -438.5 -104t-200.5 -211
q-16 -103 49 -178q60 -66 178 -66q166 0 281.5 107.5t132.5 273.5z" />
    <glyph glyph-name="acircumflex" unicode="&#xe2;" horiz-adv-x="1044" 
d="M522 1434l211 -267l-59 -57l-152 195l-145 -189l-66 51zM977 43l27 -18q-40 -37 -97 -37q-47 0 -77.5 31t-26.5 79v105v8l2 12v8q-3 -6 -37 -57q-66 -87 -179 -136.5t-229 -49.5q-150 0 -229 82q-38 41 -55.5 96.5t-9.5 112.5q25 146 228 249t511 123q3 151 -100 260
q-94 84 -226 84q-81 0 -141.5 -39.5t-79.5 -121.5q-12 -43 -57 -43q-43 0 -60 36q-29 46 17.5 96.5t141.5 83.5t196 33q154 0 252 -82q66 -60 103.5 -144t39.5 -173q6 -184 2 -434l-2 -105q0 -64 20 -73q13 -4 27.5 -1t26.5 9zM807 430v154v6l-2 12v6q-263 -17 -438.5 -104
t-200.5 -211q-16 -103 49 -178q60 -66 178 -66q166 0 281.5 107.5t132.5 273.5z" />
    <glyph glyph-name="atilde" unicode="&#xe3;" horiz-adv-x="1044" 
d="M823 1380l70 -45q-56 -116 -182 -155q-60 -8 -117 12.5t-98 64.5q-39 42 -103 39q-26 -3 -53.5 -18t-48.5 -33.5t-38 -36.5t-27 -30l-9 -13l-65 49l12.5 17.5t30.5 35.5t46.5 44.5t58 37t67.5 21.5q88 10 149 -51q31 -35 74.5 -52.5t89.5 -13.5q95 30 143 127zM977 43
l27 -18q-40 -37 -97 -37q-47 0 -77.5 31t-26.5 79v105v8l2 12v8q-3 -6 -37 -57q-66 -87 -179 -136.5t-229 -49.5q-150 0 -229 82q-38 41 -55.5 96.5t-9.5 112.5q25 146 228 249t511 123q3 151 -100 260q-94 84 -226 84q-81 0 -141.5 -39.5t-79.5 -121.5q-12 -43 -57 -43
q-43 0 -60 36q-29 46 17.5 96.5t141.5 83.5t196 33q154 0 252 -82q66 -60 103.5 -144t39.5 -173q6 -184 2 -434l-2 -105q0 -64 20 -73q13 -4 27.5 -1t26.5 9zM807 430v154v6l-2 12v6q-263 -17 -438.5 -104t-200.5 -211q-16 -103 49 -178q60 -66 178 -66q166 0 281.5 107.5
t132.5 273.5z" />
    <glyph glyph-name="adieresis" unicode="&#xe4;" horiz-adv-x="1044" 
d="M340 1413q43 0 74.5 -31.5t31.5 -74.5q0 -41 -30 -74q-31 -31 -76 -31q-43 0 -73.5 31t-30.5 74q0 44 30.5 75t73.5 31zM707 1413q43 0 73.5 -31t30.5 -75q0 -43 -30.5 -74t-73.5 -31q-45 0 -76 31q-31 34 -31 74q0 43 32 74.5t75 31.5zM977 43l27 -18q-40 -37 -97 -37
q-47 0 -77.5 31t-26.5 79v105v8l2 12v8q-3 -6 -37 -57q-66 -87 -179 -136.5t-229 -49.5q-150 0 -229 82q-38 41 -55.5 96.5t-9.5 112.5q25 146 228 249t511 123q3 151 -100 260q-94 84 -226 84q-81 0 -141.5 -39.5t-79.5 -121.5q-12 -43 -57 -43q-43 0 -60 36
q-29 46 17.5 96.5t141.5 83.5t196 33q154 0 252 -82q66 -60 103.5 -144t39.5 -173q6 -184 2 -434l-2 -105q0 -64 20 -73q13 -4 27.5 -1t26.5 9zM807 430v154v6l-2 12v6q-263 -17 -438.5 -104t-200.5 -211q-16 -103 49 -178q60 -66 178 -66q166 0 281.5 107.5t132.5 273.5z
" />
    <glyph glyph-name="aring" unicode="&#xe5;" horiz-adv-x="1044" 
d="M522 1456q74 0 126 -52t52 -126q0 -73 -52 -124.5t-126 -53.5q-74 2 -126 53.5t-52 124.5q0 74 52 126t126 52zM522 1161q43 0 80 31.5t37 85.5t-37 85.5t-80 31.5t-79.5 -31.5t-36.5 -85.5t36.5 -85.5t79.5 -31.5zM977 43l27 -18q-40 -37 -97 -37q-47 0 -77.5 31
t-26.5 79v105v8l2 12v8q-3 -6 -37 -57q-66 -87 -179 -136.5t-229 -49.5q-150 0 -229 82q-38 41 -55.5 96.5t-9.5 112.5q25 146 228 249t511 123q3 151 -100 260q-94 84 -226 84q-81 0 -141.5 -39.5t-79.5 -121.5q-12 -43 -57 -43q-43 0 -60 36q-29 46 17.5 96.5t141.5 83.5
t196 33q154 0 252 -82q66 -60 103.5 -144t39.5 -173q6 -184 2 -434l-2 -105q0 -64 20 -73q13 -4 27.5 -1t26.5 9zM807 430v154v6l-2 12v6q-263 -17 -438.5 -104t-200.5 -211q-16 -103 49 -178q60 -66 178 -66q166 0 281.5 107.5t132.5 273.5z" />
    <glyph glyph-name="ae" unicode="&#xe6;" horiz-adv-x="1763" 
d="M977 43l27 -18q-40 -37 -97 -37q-47 0 -77.5 31t-26.5 79v105v8l2 12v8q-3 -6 -37 -57q-66 -87 -179 -136.5t-229 -49.5q-150 0 -229 82q-38 41 -55.5 96.5t-9.5 112.5q25 146 228 249t511 123q3 151 -100 260q-94 84 -226 84q-81 0 -141.5 -39.5t-79.5 -121.5
q-12 -43 -57 -43q-43 0 -60 36q-29 46 17.5 96.5t141.5 83.5t196 33q137 0 233 -67.5t137 -196.5q69 120 181.5 193t240.5 69q100 -3 180.5 -54t128.5 -131t73 -172.5t24 -186.5h-799q3 -83 30 -162t74 -143.5t119.5 -104t159.5 -39.5q101 1 190 49t148 131l39 -22
q-64 -92 -163 -145.5t-210 -53.5q-118 0 -219 59t-170 158v-14l-2 -105q0 -64 20 -73q13 -4 27.5 -1t26.5 9zM895 551h725q0 60 -13.5 121t-42 118.5t-68.5 102t-96.5 71.5t-121.5 27q-96 0 -184.5 -62t-142.5 -164.5t-56 -213.5zM807 430q-10 55 -10 102q0 43 8 76
q-263 -17 -438.5 -104t-200.5 -211q-16 -103 49 -178q60 -66 178 -66q166 0 281.5 107.5t132.5 273.5z" />
    <glyph glyph-name="ccedilla" unicode="&#xe7;" horiz-adv-x="968" 
d="M887 225l37 -22q-65 -94 -164.5 -147.5t-212.5 -53.5q-27 0 -39 2l-23 -84q59 8 110 -20t77 -82q12 -48 -3.5 -96t-54.5 -80q-57 -48 -131 -45q-106 3 -192 67l33 47q77 -57 159 -57q56 0 95 31q25 20 35 51t3 63q-18 32 -48.5 49t-65.5 17q-28 0 -47 -8l-49 -13l47 170
q-163 40 -275.5 190t-109.5 326q4 108 52 205t120.5 164t163 106t180.5 39q175 0 282 -139q16 -30 8.5 -58t-35.5 -43.5t-57 -2.5q-13 6 -23 25t-17 42.5t-21.5 49.5t-33.5 46t-55 31t-85 6q-111 0 -200.5 -70.5t-136 -177.5t-46.5 -223q0 -130 47 -240.5t135.5 -177.5
t200.5 -67q101 2 191.5 49.5t148.5 130.5z" />
    <glyph glyph-name="egrave" unicode="&#xe8;" horiz-adv-x="1034" 
d="M553 1432l131 -265h-78l-256 265h203zM559 1038q100 -3 180.5 -54t128.5 -131t73 -172.5t24 -186.5h-799q3 -83 30 -162t74 -143.5t119.5 -104t159.5 -39.5q101 1 190 49t148 131l39 -22q-64 -92 -163 -145.5t-210 -53.5q-101 0 -192 45t-154.5 118.5t-101 169
t-37.5 195.5q1 93 42 186.5t106.5 165t156.5 115t186 39.5zM166 551h725q0 60 -13.5 121t-42 118.5t-68.5 102t-96.5 71.5t-121.5 27q-96 0 -184.5 -62t-142.5 -164.5t-56 -213.5z" />
    <glyph glyph-name="eacute" unicode="&#xe9;" horiz-adv-x="1034" 
d="M350 1169l131 265h203l-256 -265h-78zM559 1038q100 -3 180.5 -54t128.5 -131t73 -172.5t24 -186.5h-799q3 -83 30 -162t74 -143.5t119.5 -104t159.5 -39.5q101 1 190 49t148 131l39 -22q-64 -92 -163 -145.5t-210 -53.5q-101 0 -192 45t-154.5 118.5t-101 169
t-37.5 195.5q1 93 42 186.5t106.5 165t156.5 115t186 39.5zM166 551h725q0 60 -13.5 121t-42 118.5t-68.5 102t-96.5 71.5t-121.5 27q-96 0 -184.5 -62t-142.5 -164.5t-56 -213.5z" />
    <glyph glyph-name="ecircumflex" unicode="&#xea;" horiz-adv-x="1034" 
d="M518 1434l211 -267l-61 -57l-150 195l-145 -189l-66 51zM559 1038q100 -3 180.5 -54t128.5 -131t73 -172.5t24 -186.5h-799q3 -83 30 -162t74 -143.5t119.5 -104t159.5 -39.5q101 1 190 49t148 131l39 -22q-64 -92 -163 -145.5t-210 -53.5q-101 0 -192 45t-154.5 118.5
t-101 169t-37.5 195.5q1 93 42 186.5t106.5 165t156.5 115t186 39.5zM166 551h725q0 60 -13.5 121t-42 118.5t-68.5 102t-96.5 71.5t-121.5 27q-96 0 -184.5 -62t-142.5 -164.5t-56 -213.5z" />
    <glyph glyph-name="edieresis" unicode="&#xeb;" horiz-adv-x="1034" 
d="M334 1413q43 0 74.5 -31.5t31.5 -74.5q0 -41 -30 -74q-31 -31 -76 -31q-43 0 -74 31t-31 74q0 44 31 75t74 31zM700 1413q43 0 74 -31t31 -75q0 -43 -31 -74t-74 -31q-44 0 -75 31q-31 34 -31 74q0 43 31.5 74.5t74.5 31.5zM559 1038q100 -3 180.5 -54t128.5 -131
t73 -172.5t24 -186.5h-799q3 -83 30 -162t74 -143.5t119.5 -104t159.5 -39.5q101 1 190 49t148 131l39 -22q-64 -92 -163 -145.5t-210 -53.5q-101 0 -192 45t-154.5 118.5t-101 169t-37.5 195.5q1 93 42 186.5t106.5 165t156.5 115t186 39.5zM166 551h725q0 60 -13.5 121
t-42 118.5t-68.5 102t-96.5 71.5t-121.5 27q-96 0 -184.5 -62t-142.5 -164.5t-56 -213.5z" />
    <glyph glyph-name="igrave" unicode="&#xec;" horiz-adv-x="393" 
d="M233 1432l132 -265h-78l-256 265h202zM240 51q11 -17 36 -26t44 -9h20v-16h-285v18q4 1 21 0t43 8t37 27v934q-11 18 -36.5 27t-45.5 8h-19v16h185v-987z" />
    <glyph glyph-name="iacute" unicode="&#xed;" horiz-adv-x="393" 
d="M31 1169l131 265h203l-256 -265h-78zM240 51q11 -17 36 -26t44 -9h20v-16h-285v18q4 1 21 0t43 8t37 27v934q-11 18 -36.5 27t-45.5 8h-19v16h185v-987z" />
    <glyph glyph-name="icircumflex" unicode="&#xee;" horiz-adv-x="393" 
d="M197 1434l211 -267l-60 -57l-151 195l-146 -189l-65 51zM240 51q11 -17 36 -26t44 -9h20v-16h-285v18q4 1 21 0t43 8t37 27v934q-11 18 -36.5 27t-45.5 8h-19v16h185v-987z" />
    <glyph glyph-name="idieresis" unicode="&#xef;" horiz-adv-x="393" 
d="M14 1413q43 0 75 -31.5t32 -74.5q0 -40 -31 -74q-31 -31 -76 -31q-44 0 -75 31t-31 74q0 44 31 75t75 31zM381 1413q43 0 73.5 -31t30.5 -75q0 -43 -30.5 -74t-73.5 -31q-45 0 -76 31q-31 34 -31 74q0 43 32 74.5t75 31.5zM240 51q11 -17 36 -26t44 -9h20v-16h-285v18
q4 1 21 0t43 8t37 27v934q-11 18 -36.5 27t-45.5 8h-19v16h185v-987z" />
    <glyph glyph-name="ntilde" unicode="&#xf1;" horiz-adv-x="1007" 
d="M805 1380l69 -45q-56 -116 -182 -155q-60 -8 -117 12.5t-98 64.5q-39 42 -102 39q-26 -3 -53.5 -18t-48.5 -33.5t-38 -36.5t-27 -30l-9 -13l-66 49l12.5 17.5t30.5 35.5t46.5 44.5t58 37t67.5 21.5q89 10 150 -51q31 -35 74.5 -52.5t89.5 -13.5q95 30 143 127zM862 53
q10 -18 35 -27.5t45 -9.5h19v-16h-281v16h21.5t40.5 9.5t38 27.5v592q0 227 -80 293q-61 43 -137 43q-57 0 -106.5 -24.5t-84 -63.5t-62.5 -91.5t-44 -103t-26 -104.5v-543q11 -17 36 -26t44 -9h20v-16h-285v18q4 1 21 0t43 8t37 27v934q-11 18 -36.5 27t-45.5 8h-19v16h185
v-247q55 122 137 184.5t209 62.5q68 0 119 -22t80.5 -57.5t47 -89t23.5 -106t6 -118.5v-592z" />
    <glyph glyph-name="ograve" unicode="&#xf2;" horiz-adv-x="1114" 
d="M594 1432l131 -265h-78l-256 265h203zM70 567q12 117 57.5 209t113 148t146.5 85t164 29q83 0 161.5 -26t145 -77.5t113 -122.5t65.5 -169t2 -209q-19 -107 -65.5 -191t-110.5 -136.5t-139 -79.5t-156 -27q-100 0 -194 40t-166.5 111t-111 180t-25.5 236zM164 530
q-4 -115 28.5 -210t88.5 -154.5t127.5 -92t148.5 -32.5t148.5 32.5t128 92t88.5 154.5t28 210q-1 112 -35 203.5t-90.5 148.5t-127 88t-146.5 31q-75 0 -143 -30t-123 -86.5t-88 -148.5t-33 -206z" />
    <glyph glyph-name="oacute" unicode="&#xf3;" horiz-adv-x="1114" 
d="M391 1169l131 265h203l-256 -265h-78zM70 567q12 117 57.5 209t113 148t146.5 85t164 29q83 0 161.5 -26t145 -77.5t113 -122.5t65.5 -169t2 -209q-19 -107 -65.5 -191t-110.5 -136.5t-139 -79.5t-156 -27q-100 0 -194 40t-166.5 111t-111 180t-25.5 236zM164 530
q-4 -115 28.5 -210t88.5 -154.5t127.5 -92t148.5 -32.5t148.5 32.5t128 92t88.5 154.5t28 210q-1 112 -35 203.5t-90.5 148.5t-127 88t-146.5 31q-75 0 -143 -30t-123 -86.5t-88 -148.5t-33 -206z" />
    <glyph glyph-name="ocircumflex" unicode="&#xf4;" horiz-adv-x="1114" 
d="M557 1434l211 -267l-59 -57l-152 195l-145 -189l-66 51zM70 567q12 117 57.5 209t113 148t146.5 85t164 29q83 0 161.5 -26t145 -77.5t113 -122.5t65.5 -169t2 -209q-19 -107 -65.5 -191t-110.5 -136.5t-139 -79.5t-156 -27q-100 0 -194 40t-166.5 111t-111 180
t-25.5 236zM164 530q-4 -115 28.5 -210t88.5 -154.5t127.5 -92t148.5 -32.5t148.5 32.5t128 92t88.5 154.5t28 210q-1 112 -35 203.5t-90.5 148.5t-127 88t-146.5 31q-75 0 -143 -30t-123 -86.5t-88 -148.5t-33 -206z" />
    <glyph glyph-name="otilde" unicode="&#xf5;" horiz-adv-x="1114" 
d="M858 1380l70 -45q-56 -115 -183 -155q-60 -8 -117 12.5t-98 64.5q-39 42 -102 39q-26 -3 -53.5 -18t-48.5 -33.5t-38 -36.5t-26 -30l-10 -13l-66 49l12.5 17.5t30.5 35.5t46.5 44.5t58 37t67.5 21.5q89 10 150 -51q31 -35 74.5 -52.5t89.5 -13.5q95 30 143 127zM70 567
q12 117 57.5 209t113 148t146.5 85t164 29q83 0 161.5 -26t145 -77.5t113 -122.5t65.5 -169t2 -209q-19 -107 -65.5 -191t-110.5 -136.5t-139 -79.5t-156 -27q-100 0 -194 40t-166.5 111t-111 180t-25.5 236zM164 530q-4 -115 28.5 -210t88.5 -154.5t127.5 -92t148.5 -32.5
t148.5 32.5t128 92t88.5 154.5t28 210q-1 112 -35 203.5t-90.5 148.5t-127 88t-146.5 31q-75 0 -143 -30t-123 -86.5t-88 -148.5t-33 -206z" />
    <glyph glyph-name="odieresis" unicode="&#xf6;" horiz-adv-x="1114" 
d="M375 1413q43 0 74.5 -31.5t31.5 -74.5q0 -41 -30 -74q-31 -31 -76 -31q-43 0 -74 31t-31 74q0 44 31 75t74 31zM741 1413q43 0 74 -31t31 -75q0 -43 -31 -74t-74 -31q-44 0 -75 31q-31 34 -31 74q0 43 31.5 74.5t74.5 31.5zM70 567q12 117 57.5 209t113 148t146.5 85
t164 29q83 0 161.5 -26t145 -77.5t113 -122.5t65.5 -169t2 -209q-19 -107 -65.5 -191t-110.5 -136.5t-139 -79.5t-156 -27q-100 0 -194 40t-166.5 111t-111 180t-25.5 236zM164 530q-4 -115 28.5 -210t88.5 -154.5t127.5 -92t148.5 -32.5t148.5 32.5t128 92t88.5 154.5
t28 210q-1 112 -35 203.5t-90.5 148.5t-127 88t-146.5 31q-75 0 -143 -30t-123 -86.5t-88 -148.5t-33 -206z" />
    <glyph glyph-name="oslash" unicode="&#xf8;" horiz-adv-x="1114" 
d="M70 567q12 117 57.5 209t113 148t146.5 85t164 29q83 0 161.5 -26t145 -77.5t113 -122.5t65.5 -169t2 -209q-19 -107 -65.5 -191t-110.5 -136.5t-139 -79.5t-156 -27q-100 0 -194 40t-166.5 111t-111 180t-25.5 236zM164 530q-4 -115 28.5 -210t88.5 -154.5t127.5 -92
t148.5 -32.5t148.5 32.5t128 92t88.5 154.5t28 210q-1 112 -35 203.5t-90.5 148.5t-127 88t-146.5 31q-75 0 -143 -30t-123 -86.5t-88 -148.5t-33 -206zM729 1436h59l-401 -1434h-59z" />
    <glyph glyph-name="ugrave" unicode="&#xf9;" horiz-adv-x="1005" 
d="M539 1432l131 -265h-78l-256 265h203zM852 53q11 -18 36 -27.5t44 -9.5h20v-16h-184v248q-47 -104 -139 -163.5t-207 -59.5q-66 0 -115.5 20t-79.5 52.5t-48.5 81.5t-25 99.5t-6.5 114.5v594q-11 18 -36 27t-45 8h-19v16h180v-645q0 -109 18.5 -170.5t61.5 -95.5
q64 -47 139 -47q82 0 157 53t120 137.5t45 173.5v543q-11 18 -35.5 27t-43.5 8h-19v16h182v-985z" />
    <glyph glyph-name="uacute" unicode="&#xfa;" horiz-adv-x="1005" 
d="M336 1169l131 265h203l-256 -265h-78zM852 53q11 -18 36 -27.5t44 -9.5h20v-16h-184v248q-47 -104 -139 -163.5t-207 -59.5q-66 0 -115.5 20t-79.5 52.5t-48.5 81.5t-25 99.5t-6.5 114.5v594q-11 18 -36 27t-45 8h-19v16h180v-645q0 -109 18.5 -170.5t61.5 -95.5
q64 -47 139 -47q82 0 157 53t120 137.5t45 173.5v543q-11 18 -35.5 27t-43.5 8h-19v16h182v-985z" />
    <glyph glyph-name="ucircumflex" unicode="&#xfb;" horiz-adv-x="1005" 
d="M504 1434l211 -267l-62 -57l-149 195l-146 -189l-65 51zM852 53q11 -18 36 -27.5t44 -9.5h20v-16h-184v248q-47 -104 -139 -163.5t-207 -59.5q-66 0 -115.5 20t-79.5 52.5t-48.5 81.5t-25 99.5t-6.5 114.5v594q-11 18 -36 27t-45 8h-19v16h180v-645q0 -109 18.5 -170.5
t61.5 -95.5q64 -47 139 -47q82 0 157 53t120 137.5t45 173.5v543q-11 18 -35.5 27t-43.5 8h-19v16h182v-985z" />
    <glyph glyph-name="udieresis" unicode="&#xfc;" horiz-adv-x="1005" 
d="M319 1413q43 0 75 -31.5t32 -74.5q0 -40 -31 -74q-31 -31 -76 -31q-43 0 -73.5 31t-30.5 74q0 44 30.5 75t73.5 31zM686 1413q43 0 74 -31t31 -75q0 -43 -31 -74t-74 -31q-45 0 -76 31q-30 33 -30 74q0 43 31.5 74.5t74.5 31.5zM852 53q11 -18 36 -27.5t44 -9.5h20v-16
h-184v248q-47 -104 -139 -163.5t-207 -59.5q-66 0 -115.5 20t-79.5 52.5t-48.5 81.5t-25 99.5t-6.5 114.5v594q-11 18 -36 27t-45 8h-19v16h180v-645q0 -109 18.5 -170.5t61.5 -95.5q64 -47 139 -47q82 0 157 53t120 137.5t45 173.5v543q-11 18 -35.5 27t-43.5 8h-19v16h182
v-985z" />
    <glyph glyph-name="yacute" unicode="&#xfd;" 
d="M395 1169l131 265h203l-256 -265h-78zM541 -33l-426 1020q-11 18 -36.5 27t-44.5 8h-20v16h287v-16q-7 0 -18.5 -0.5t-35 -3.5t-36.5 -11t-8 -20l381 -913l377 913q4 17 -21 26t-52 9h-28v16h246v-16q-4 -1 -21.5 0.5t-43 -6t-33.5 -23.5l-398 -966q-23 -68 -56 -135.5
t-79.5 -137.5t-107.5 -116.5t-125 -53.5q-43 -6 -68 32t-2 75q18 26 53 26q13 0 70 -10q36 -7 71 10t59.5 43.5t49.5 69.5t38 71.5t28 65.5z" />
    <glyph glyph-name="thorn" unicode="&#xfe;" horiz-adv-x="1042" 
d="M63 0v16h22t40.5 9t38.5 26v1331q-11 17 -36.5 26t-45.5 9h-19v17h287v-17h-21.5t-40.5 -9t-38 -26v-249h381q163 0 261.5 -116t98.5 -288q0 -173 -98.5 -289t-261.5 -116h-381v-273q11 -17 36 -26t44 -9h20v-16h-287zM631 362q138 13 206 113t68 254q0 152 -68 252.5
t-206 110.5h-381v-730h381z" />
    <glyph glyph-name="ydieresis" unicode="&#xff;" 
d="M379 1413q43 0 74.5 -31.5t31.5 -74.5q0 -41 -30 -74q-31 -31 -76 -31q-43 0 -74 31t-31 74q0 44 31 75t74 31zM745 1413q43 0 74 -31t31 -75q0 -43 -31 -74t-74 -31q-44 0 -75 31q-31 34 -31 74q0 43 31.5 74.5t74.5 31.5zM541 -33l-426 1020q-11 18 -36.5 27t-44.5 8
h-20v16h287v-16q-7 0 -18.5 -0.5t-35 -3.5t-36.5 -11t-8 -20l381 -913l377 913q4 17 -21 26t-52 9h-28v16h246v-16q-4 -1 -21.5 0.5t-43 -6t-33.5 -23.5l-398 -966q-23 -68 -56 -135.5t-79.5 -137.5t-107.5 -116.5t-125 -53.5q-43 -6 -68 32t-2 75q18 26 53 26q13 0 70 -10
q36 -7 71 10t59.5 43.5t49.5 69.5t38 71.5t28 65.5z" />
    <glyph glyph-name="Dcroat" unicode="&#x110;" horiz-adv-x="1325" 
d="M541 1432q146 0 279 -57t228.5 -153t152 -228.5t56.5 -278.5t-56.5 -278t-152 -228t-228.5 -153t-279 -58h-478v16h22t40.5 9.5t38.5 27.5v733h-203v58h203v538q-11 17 -36.5 26t-45.5 9h-19v17h478zM541 39q178 0 323 93.5t225 248t80 334.5q0 136 -47.5 259.5
t-129.5 215.5t-199.5 146.5t-251.5 54.5h-291v-549h643l-2 -58h-641v-745h291z" />
    <glyph glyph-name="dcroat" unicode="&#x111;" horiz-adv-x="1048" 
d="M842 1434h184v-17q-4 -1 -20.5 0t-42 -8t-35.5 -27v-188h420v-57h-420v-1137h-51q-1 7 0.5 41.5t-5.5 84.5t-22 67q-44 -68 -150 -129.5t-206 -61.5q-90 0 -170.5 47t-134.5 121t-85.5 166t-31.5 182q0 71 20.5 146t59.5 141.5t90 119t117 83.5t135 30q110 0 202.5 -63.5
t145.5 -165.5v12v316h-426l2 57h424v240zM852 516v2q0 81 -24.5 163.5t-69.5 153t-117.5 115.5t-159.5 45q-66 0 -124 -46t-96 -116.5t-60 -152t-23 -156.5q-1 -77 22.5 -161t64 -155.5t101.5 -118t128 -46.5q88 0 159 44t113 114.5t64 151.5t22 163z" />
    <glyph glyph-name="dotlessi" unicode="&#x131;" horiz-adv-x="393" 
d="M240 51q11 -17 36 -26t44 -9h20v-16h-285v18q4 1 21 0t43 8t37 27v934q-11 18 -36.5 27t-45.5 8h-19v16h185v-987z" />
    <glyph glyph-name="Lslash" unicode="&#x141;" horiz-adv-x="991" 
d="M831 41q51 6 88 41t44 86h16v-166l-916 -2v16q9 0 22 1.5t40.5 12t38.5 27.5v545l-326 -221l-31 47l357 244v710q-11 17 -36.5 26t-45.5 9h-19v17h287v-17h-21.5t-40.5 -9t-38 -26v-651l325 223l31 -47l-356 -245v-621h581z" />
    <glyph glyph-name="lslash" unicode="&#x142;" horiz-adv-x="385" 
d="M231 51q11 -17 36.5 -26t44.5 -9h20v-16h-281v16h22t40.5 9.5t38.5 27.5v596l-330 -223l-31 47l361 244v665q-11 17 -36.5 26t-45.5 9h-19v17h180v-664l332 225l31 -47l-363 -246v-651z" />
    <glyph glyph-name="OE" unicode="&#x152;" horiz-adv-x="2220" 
d="M707 1438q175 0 322.5 -99.5t232.5 -265.5v309q-10 17 -35 26t-45 9h-19v17h1008v-168h-17q-6 51 -40.5 86t-85.5 41h-678v-619h532q18 11 32.5 36t19.5 44l5 20h17v-237h-17q-2 8 -5.5 21.5t-18.5 40t-33 36.5h-532v-692h675q51 3 87 38.5t42 86.5h17v-168h-1008v16h22
t40 9t37 26v309q-85 -166 -232.5 -265t-322.5 -99q-129 0 -247 57.5t-203.5 154t-136 230t-50.5 279.5t50.5 279.5t136 230t203.5 154t247 57.5zM707 37q157 0 284 93.5t196.5 248.5t69.5 338q0 182 -69.5 337t-196.5 249t-284 94q-155 0 -282 -94t-197 -249t-70 -337
q0 -183 70 -338t196.5 -248.5t282.5 -93.5z" />
    <glyph glyph-name="oe" unicode="&#x153;" horiz-adv-x="1914" 
d="M70 567q12 117 57.5 209t113 148t146.5 85t164 29q143 0 268 -76.5t185 -211.5q66 130 183.5 212t252.5 76q100 -3 180.5 -54t128 -131t72.5 -172.5t24 -186.5h-798q3 -83 30 -162t74 -143.5t119.5 -104t159.5 -39.5q101 1 189.5 49t147.5 131l39 -22
q-64 -92 -162.5 -145.5t-209.5 -53.5q-142 0 -257 82t-176 213q-61 -146 -178 -222.5t-256 -76.5q-100 0 -194 40t-166.5 111t-111 180t-25.5 236zM164 530q-4 -115 28.5 -210t88.5 -154.5t127.5 -92t148.5 -32.5q74 0 142.5 29t124 83.5t90 141t36.5 192.5q-2 14 -2 45
q0 17 2 25q-9 207 -126.5 325.5t-272.5 118.5q-75 0 -143 -30t-123 -86.5t-88 -148.5t-33 -206zM1047 551h725q0 60 -13.5 121t-42 118.5t-68.5 102t-96.5 71.5t-121.5 27q-96 0 -184.5 -62t-142.5 -164.5t-56 -213.5z" />
    <glyph glyph-name="Scaron" unicode="&#x160;" horiz-adv-x="1110" 
d="M721 1806l45 -37l-174 -221l-37 -43l-6 4l-205 260l45 37l166 -211zM532 815q187 -41 260 -68q140 -52 205 -139q55 -71 57 -163t-33 -168t-89 -132q-78 -70 -179.5 -106.5t-209.5 -36.5q-114 0 -220 39t-188 113l-63 51l12 137q34 -97 105 -166.5t159 -102t187 -32.5
t192.5 34t165.5 99q44 45 68.5 106t19 133t-50.5 130q-25 33 -63 60.5t-72 44.5t-89.5 34t-88.5 25t-97 22q-66 15 -100.5 23t-89 25.5t-87 35.5t-67 46.5t-55.5 64.5q-58 94 -40.5 184.5t79.5 162t153.5 116t182.5 47.5q122 1 217 -41t192 -129l-18 -136
q-21 132 -133.5 204t-253.5 63q-73 -2 -151 -36.5t-134 -91.5t-74 -130.5t29 -153.5q22 -36 57.5 -62.5t91.5 -46.5t96 -31t117 -28z" />
    <glyph glyph-name="scaron" unicode="&#x161;" horiz-adv-x="847" 
d="M590 1411l45 -37l-174 -221l-37 -43l-6 4l-205 260l45 37l166 -211zM735 459q44 -56 49 -122t-25.5 -125t-82.5 -108.5t-127 -78.5t-154 -29q-146 0 -272 98q-2 1 -9.5 6.5t-16 11.5l-17 12t-14 11.5t-5.5 7.5l7 127q29 -106 108.5 -156.5t183.5 -50.5q79 0 156 27.5
t126.5 72.5t63.5 103t-32 119q-38 48 -101.5 78.5t-131 45t-134 29t-124.5 44t-89 77.5q-52 103 -23.5 186.5t115 136t193.5 52.5q165 0 283 -121l-15 -120q-16 93 -85.5 142.5t-160.5 49.5q-111 0 -200 -70q-36 -31 -56 -70t-15 -81.5t44 -71.5q56 -33 144.5 -59t160 -41
t144.5 -49t112 -84z" />
    <glyph glyph-name="Ydieresis" unicode="&#x178;" horiz-adv-x="1148" 
d="M391 1808q43 0 75 -31.5t32 -74.5q0 -40 -31 -74q-31 -31 -76 -31q-43 0 -73.5 31t-30.5 74q0 44 30.5 75t73.5 31zM758 1808q43 0 73.5 -31t30.5 -75q0 -43 -30.5 -74t-73.5 -31q-45 0 -76 31q-31 34 -31 74q0 43 32 74.5t75 31.5zM442 0v16h22t40.5 9t38.5 26v688
l-428 607q-17 33 -49.5 52t-69.5 17v17h293v-17q-7 0 -18.5 -0.5t-35 -4t-33.5 -14t1 -26.5v-2l399 -565l416 577q16 22 -32 32q-23 4 -50 5v17h215v-17q-7 0 -18 -0.5t-33 -10t-31 -26.5l-438 -608v-721q11 -17 35.5 -26t43.5 -9h19v-16h-287z" />
    <glyph glyph-name="Zcaron" unicode="&#x17d;" horiz-adv-x="1204" 
d="M768 1806l45 -37l-174 -221l-37 -43l-6 4l-205 260l45 37l166 -211zM1026 43q51 3 87 38.5t42 86.5h16v-168h-1157l1014 1393h-780q-51 -5 -88 -40.5t-41 -86.5h-17v168h1065l-1011 -1391h870z" />
    <glyph glyph-name="zcaron" unicode="&#x17e;" horiz-adv-x="925" 
d="M629 1411l45 -37l-174 -221l-37 -43l-6 4l-205 260l45 37l166 -211zM743 35q41 0 76.5 21t42.5 59h10v-121h-843l731 1003h-537q-46 0 -79.5 -20t-39.5 -59h-12v120h799l-731 -1003h583z" />
    <glyph glyph-name="circumflex" unicode="&#x2c6;" horiz-adv-x="577" 
d="M289 1434l211 -267l-60 -57l-151 195l-146 -189l-65 51z" />
    <glyph glyph-name="circumflex" unicode="&#xe916;" horiz-adv-x="577" 
d="M289 1434l211 -267l-60 -57l-151 195l-146 -189l-65 51z" />
    <glyph glyph-name="caron" unicode="&#x2c7;" horiz-adv-x="577" 
d="M455 1411l45 -37l-174 -221l-37 -43l-6 4l-205 260l45 37l166 -211z" />
    <glyph glyph-name="caron" unicode="&#xe917;" horiz-adv-x="577" 
d="M455 1411l45 -37l-174 -221l-37 -43l-6 4l-205 260l45 37l166 -211z" />
    <glyph glyph-name="ring" unicode="&#x2da;" horiz-adv-x="759" 
d="M379 1456q73 0 125.5 -52t52.5 -126q0 -73 -52 -124.5t-126 -53.5q-74 2 -126 53.5t-52 124.5q0 74 52.5 126t125.5 52zM379 1161q43 0 80 31.5t37 85.5t-37 85.5t-80 31.5t-80 -31.5t-37 -85.5t37 -85.5t80 -31.5z" />
    <glyph glyph-name="ring" unicode="&#xe915;" horiz-adv-x="759" 
d="M379 1456q73 0 125.5 -52t52.5 -126q0 -73 -52 -124.5t-126 -53.5q-74 2 -126 53.5t-52 124.5q0 74 52.5 126t125.5 52zM379 1161q43 0 80 31.5t37 85.5t-37 85.5t-80 31.5t-80 -31.5t-37 -85.5t37 -85.5t80 -31.5z" />
    <glyph glyph-name="tilde" unicode="&#x2dc;" horiz-adv-x="890" 
d="M748 1380l69 -45q-56 -116 -182 -155q-60 -8 -117 12.5t-98 64.5q-39 42 -103 39q-26 -3 -53.5 -18t-48.5 -33.5t-38 -36.5t-27 -30l-9 -13l-65 49l12.5 17.5t30.5 35.5t46.5 44.5t58 37t67.5 21.5q88 10 149 -51q31 -35 74.5 -52.5t89.5 -13.5q97 31 144 127z" />
    <glyph glyph-name="tilde" unicode="&#xe919;" horiz-adv-x="890" 
d="M748 1380l69 -45q-56 -116 -182 -155q-60 -8 -117 12.5t-98 64.5q-39 42 -103 39q-26 -3 -53.5 -18t-48.5 -33.5t-38 -36.5t-27 -30l-9 -13l-65 49l12.5 17.5t30.5 35.5t46.5 44.5t58 37t67.5 21.5q88 10 149 -51q31 -35 74.5 -52.5t89.5 -13.5q97 31 144 127z" />
    <glyph glyph-name="quoteleft" unicode="&#x2018;" horiz-adv-x="364" 
d="M207 1434l86 -174h-51l-168 174h133z" />
    <glyph glyph-name="quoteleft" unicode="&#xe91a;" horiz-adv-x="364" 
d="M207 1434l86 -174h-51l-168 174h133z" />
    <glyph glyph-name="quoteright" unicode="&#x2019;" horiz-adv-x="364" 
d="M72 1260l86 174h133l-168 -174h-51z" />
    <glyph glyph-name="quotedblleft" unicode="&#x201c;" horiz-adv-x="606" 
d="M446 1434l86 -174h-51l-168 174h133zM207 1434l86 -174h-51l-168 174h133z" />
    <glyph glyph-name="quotedblright" unicode="&#x201d;" horiz-adv-x="606" 
d="M74 1260l86 174h133l-168 -174h-51zM313 1260l86 174h133l-167 -174h-52z" />
    <glyph glyph-name="bullet" unicode="&#x2022;" horiz-adv-x="698" 
d="M348 915q104 0 178 -73.5t74 -177.5q0 -105 -73.5 -179.5t-178.5 -74.5q-104 0 -178 75t-74 179t74 177.5t178 73.5z" />
    <glyph glyph-name="bullet" unicode="&#xe914;" horiz-adv-x="698" 
d="M348 915q104 0 178 -73.5t74 -177.5q0 -105 -73.5 -179.5t-178.5 -74.5q-104 0 -178 75t-74 179t74 177.5t178 73.5z" />
    <glyph glyph-name="guilsinglleft" unicode="&#x2039;" horiz-adv-x="655" 
d="M547 289l-459 362l-12 13l80 65l391 307l33 -51l-404 -321l410 -328z" />
    <glyph glyph-name="guilsinglright" unicode="&#x203a;" horiz-adv-x="655" 
d="M571 651l-460 -362l-39 45l411 328l-405 323l33 51l460 -362l11 -12z" />
    <glyph glyph-name="Euro" unicode="&#x20ac;" horiz-adv-x="1320" 
d="M915 20q152 0 275 91l24 -45q-147 -86 -299 -86q-229 0 -404 162.5t-220 410.5h-199v57h191q-7 54 -7 90q0 41 7 95h-191v57h199q46 247 221 408t403 161q112 0 207 -39q15 -5 17 -6q30 -13 96 -51l-29 -45q-127 100 -291 100q-106 -1 -200.5 -46t-162 -118.5t-113 -167
t-62.5 -196.5h393l-6 -57h-395q-4 -31 -4 -95q0 -59 4 -90h374l-6 -57h-360q17 -104 61.5 -198.5t111.5 -169t161.5 -119.5t203.5 -46z" />
    <glyph glyph-name="Euro" unicode="&#xe90e;" horiz-adv-x="1320" 
d="M915 20q152 0 275 91l24 -45q-147 -86 -299 -86q-229 0 -404 162.5t-220 410.5h-199v57h191q-7 54 -7 90q0 41 7 95h-191v57h199q46 247 221 408t403 161q112 0 207 -39q15 -5 17 -6q30 -13 96 -51l-29 -45q-127 100 -291 100q-106 -1 -200.5 -46t-162 -118.5t-113 -167
t-62.5 -196.5h393l-6 -57h-395q-4 -31 -4 -95q0 -59 4 -90h374l-6 -57h-360q17 -104 61.5 -198.5t111.5 -169t161.5 -119.5t203.5 -46z" />
    <glyph glyph-name="trademark" unicode="&#x2122;" horiz-adv-x="894" 
d="M66 1407v27h309v-27h-142v-367h-28v367h-139zM750 1434h28v-396h-28v336l-138 -336h-22l-139 338v-338h-27v396h27l151 -367z" />
    <glyph glyph-name="trademark" unicode="&#xe913;" horiz-adv-x="894" 
d="M66 1407v27h309v-27h-142v-367h-28v367h-139zM750 1434h28v-396h-28v336l-138 -336h-22l-139 338v-338h-27v396h27l151 -367z" />
    <glyph glyph-name="minus" unicode="&#x2212;" horiz-adv-x="927" 
d="M817 584h-711l-2 57h713v-57z" />
    <glyph glyph-name="colon.1" horiz-adv-x="548" 
 />
    <glyph glyph-name="quotedbl.1" horiz-adv-x="835" 
 />
    </font>
</defs>
</svg>
