<?xml version="1.0" encoding="UTF-8"?>
<svg xmlns="http://www.w3.org/2000/svg" xmlns:xlink="http://www.w3.org/1999/xlink" version="1.2" >
<font id="Liber Text Text Regular">
<font-face  font-family="Liber Text" units-per-em="1000" ascent="768" descent="-256" font-style="normal" font-weight="400" font-stretch="normal" cap-height="735" x-height="512" underline-position="-106" underline-thickness="73" />
<missing-glyph  horiz-adv-x="830" d="M95 768 L735 768 L735 0 L95 0 L95 768 Z M671 64 L671 704 L159 704 L159 64 L671 64 Z M372 381 L410 381 Q445 381 470 406 Q495 431 495 466 Q495 501 470 526 Q445 551 410 551 Q375 551 350 526 Q325 501 325 466 L236 466 Q236 502 249.5 534 Q263 566 286.5 589.5 Q310 613 342 626.5 Q374 640 410 640 Q446 640 478 626.5 Q510 613 533.5 589.5 Q557 566 570.5 534 Q584 502 584 466 Q584 430 570.5 398 Q557 366 533.5 342.5 Q510 319 478 305.5 Q446 292 410 292 L372 292 L372 381 Z M357 186 Q357 210 374 227 Q391 244 415 244 Q439 244 456 227 Q473 210 473 186 Q473 162 456 145 Q439 128 415 128 Q391 128 374 145 Q357 162 357 186 Z " />
<glyph glyph-name="null" d="" />
<glyph glyph-name="nonmarkingreturn" unicode="&#xd;" horiz-adv-x="342" d="" />
<glyph glyph-name="space" unicode="&#x20;" horiz-adv-x="200" d="" />
<glyph glyph-name="exclam" unicode="&#x21;" horiz-adv-x="344" d="M107 288 L107 768 L237 768 L237 288 L107 288 Z M85 87 Q85 123 110.5 148.5 Q136 174 172 174 Q208 174 233.5 148.5 Q259 123 259 87 Q259 51 233.5 25.5 Q208 0 172 0 Q136 0 110.5 25.5 Q85 51 85 87 Z " />
<glyph glyph-name="quotedbl" unicode="&#x22;" horiz-adv-x="320" d="M104 549 L57 549 Q47 610 41.5 644 Q36 678 33.5 695 Q31 712 31 717 Q31 722 31 725 Q32 746 46 760 Q60 774 80 774 Q101 774 115 760 Q129 746 129 724 L104 549 Z M265 549 L218 549 Q208 610 202.5 644 Q197 678 194.5 695 Q192 712 192 717 Q192 722 192 725 Q193 746 207 760 Q221 774 241 774 Q262 774 276 760 Q290 746 290 724 L265 549 Z " />
<glyph glyph-name="numbersign" unicode="&#x23;" horiz-adv-x="729" d="M342 520 Q342 514 346.5 509.5 Q351 505 357 505 Q363 505 367.5 509.5 Q372 514 372 520 L448 520 Q448 514 452.5 509.5 Q457 505 463 505 Q469 505 473.5 509.5 Q478 514 478 520 Q478 530 467 534 L528 732 L643 732 L583 534 Q582 535 579 535 Q573 535 568.5 530.5 Q564 526 564 520 Q564 514 568.5 509.5 Q573 505 579 505 Q585 505 589.5 509.5 Q594 514 594 520 L720 520 L695 430 L569 430 Q569 436 564.5 440.5 Q560 445 554 445 Q548 445 543.5 440.5 Q539 436 539 430 Q539 418 549 415 L520 317 Q518 318 515 318 Q507 318 502 313 Q497 308 497 300 Q497 292 502 287 Q507 282 515 282 Q523 282 528 287 Q533 292 533 300 L666 300 L640 210 L504 210 Q504 216 499.5 220.5 Q495 225 489 225 Q483 225 478.5 220.5 Q474 216 474 210 Q474 198 484 195 L425 0 L310 0 L368 195 L373 195 Q379 195 383.5 199.5 Q388 204 388 210 Q388 216 383.5 220.5 Q379 225 373 225 Q367 225 362.5 220.5 Q358 216 358 210 L283 210 Q283 216 278.5 220.5 Q274 225 268 225 Q262 225 257.5 220.5 Q253 216 253 210 Q253 198 263 195 L203 0 L88 0 L146 195 L151 195 Q157 195 161.5 199.5 Q166 204 166 210 Q166 216 161.5 220.5 Q157 225 151 225 Q145 225 140.5 220.5 Q136 216 136 210 L18 210 L43 300 L161 300 Q161 294 165.5 289.5 Q170 285 176 285 Q182 285 186.5 289.5 Q191 294 191 300 Q191 310 180 314 L212 416 Q214 415 217 415 Q223 415 227.5 419.5 Q232 424 232 430 Q232 436 227.5 440.5 Q223 445 217 445 Q211 445 206.5 440.5 Q202 436 202 430 L73 430 L98 520 L227 520 Q227 514 231.5 509.5 Q236 505 242 505 Q248 505 252.5 509.5 Q257 514 257 520 Q257 530 246 534 L305 732 L421 732 L361 534 Q360 535 357 535 Q351 535 346.5 530.5 Q342 526 342 520 Z M347 428 Q347 434 342.5 438.5 Q338 443 332 443 Q326 443 321.5 438.5 Q317 434 317 428 Q317 416 327 413 L296 311 Q295 312 292 312 Q286 312 281.5 307.5 Q277 303 277 297 Q277 291 281.5 286.5 Q286 282 292 282 Q298 282 302.5 286.5 Q307 291 307 297 L383 297 Q383 291 387.5 286.5 Q392 282 398 282 Q404 282 408.5 286.5 Q413 291 413 297 Q413 307 402 311 L434 414 Q436 413 439 413 Q445 413 449.5 417.5 Q454 422 454 428 Q454 434 449.5 438.5 Q445 443 439 443 Q433 443 428.5 438.5 Q424 434 424 428 L347 428 Z " />
<glyph glyph-name="dollar" unicode="&#x24;" horiz-adv-x="616" d="M376 743 Q376 737 380.5 732.5 Q385 728 391 728 Q401 728 405 739 Q456 722 494 686.5 Q532 651 551 596 L429 545 Q416 583 386 604 Q356 625 317 625 Q300 625 281.5 620.5 Q263 616 247.5 607 Q232 598 222 583.5 Q212 569 212 549 Q212 515 239 493.5 Q266 472 306.5 455 Q347 438 394 420 Q441 402 481.5 375 Q522 348 549 307.5 Q576 267 576 205 Q576 163 563 129 Q550 95 526.5 68.5 Q503 42 472 23.5 Q441 5 405 -5 Q401 6 391 6 Q385 6 380.5 1.5 Q376 -3 376 -9 Q376 -15 380.5 -19.5 Q385 -24 391 -24 L391 -128 L254 -128 L254 -24 Q260 -24 264.5 -19.5 Q269 -15 269 -9 Q269 -3 264.5 1.5 Q260 6 254 6 Q243 6 239 -5 Q168 13 117.5 62 Q67 111 50 192 L180 234 Q194 181 232 148 Q270 115 325 115 Q345 115 365 120 Q385 125 401 136 Q417 147 427 163.5 Q437 180 437 203 Q437 232 410 251 Q383 270 342 287 Q301 304 253.5 323 Q206 342 165 371.5 Q124 401 97 445 Q70 489 70 556 Q70 595 83.5 626 Q97 657 120 680.5 Q143 704 174 720 Q205 736 239 744 Q242 732 254 732 Q260 732 264.5 736.5 Q269 741 269 747 Q269 753 264.5 757.5 Q260 762 254 762 L254 876 L391 876 L391 758 Q385 758 380.5 753.5 Q376 749 376 743 Z " />
<glyph glyph-name="percent" unicode="&#x25;" horiz-adv-x="591" d="M561 768 L169 0 L30 0 L422 768 L561 768 Z M363 87 Q363 123 388.5 148.5 Q414 174 450 174 Q486 174 511.5 148.5 Q537 123 537 87 Q537 51 511.5 25.5 Q486 0 450 0 Q414 0 388.5 25.5 Q363 51 363 87 Z M54 681 Q54 717 79.5 742.5 Q105 768 141 768 Q177 768 202.5 742.5 Q228 717 228 681 Q228 645 202.5 619.5 Q177 594 141 594 Q105 594 79.5 619.5 Q54 645 54 681 Z " />
<glyph glyph-name="ampersand" unicode="&#x26;" horiz-adv-x="732" d="M525 281 Q525 275 529.5 270.5 Q534 266 540 266 Q546 266 550.5 270.5 Q555 275 555 281 Q555 290 546 294 Q562 335 569 375.5 Q576 416 576 448 L704 448 Q704 382 689 317.5 Q674 253 645 197 Q641 199 638 199 Q632 199 627.5 194.5 Q623 190 623 184 Q623 178 627.5 173.5 Q632 169 638 169 Q644 169 648 173 L800 22 L791 0 L640 0 L566 73 Q571 78 571 84 Q571 90 566.5 94.5 Q562 99 556 99 Q550 99 545.5 94.5 Q541 90 541 84 Q541 79 544 74 Q500 39 444.5 19.5 Q389 0 320 0 Q275 0 230 14.5 Q185 29 148.5 57.5 Q112 86 89.5 128 Q67 170 67 226 Q67 263 77 293.5 Q87 324 104.5 348.5 Q122 373 145 392.5 Q168 412 194 427 Q197 419 207 419 Q213 419 217.5 423.5 Q222 428 222 434 Q222 440 217.5 444.5 Q213 449 207 449 Q201 449 196 444 L189 452 Q162 479 147 514.5 Q132 550 132 588 Q132 627 147 662 Q162 697 188.5 723.5 Q215 750 250 765 Q285 780 324 780 Q362 780 397 765.5 Q432 751 459 724 L372 641 Q353 659 326 659 Q299 659 280.5 641 Q262 623 262 596 Q262 584 266.5 572 Q271 560 280 551 L529 291 Q525 287 525 281 Z M284 342 Q284 338 285 336 Q251 319 227.5 295.5 Q204 272 204 231 Q204 205 214.5 185.5 Q225 166 241.5 153.5 Q258 141 278.5 134.5 Q299 128 320 128 Q360 128 393 138.5 Q426 149 452 168 Q457 162 464 162 Q470 162 474.5 166.5 Q479 171 479 177 Q479 183 474.5 187.5 Q470 192 464 192 Q458 192 453 187 L309 331 Q314 336 314 342 Q314 348 309.5 352.5 Q305 357 299 357 Q293 357 288.5 352.5 Q284 348 284 342 Z " />
<glyph glyph-name="quotesingle" unicode="&#x27;" horiz-adv-x="233" d="M54 495 L94 581 Q96 580 101 580 Q107 580 111.5 584.5 Q116 589 116 595 Q116 601 111.5 605.5 Q107 610 101 610 Q90 610 86 599 Q62 608 46 630 Q30 652 30 681 Q30 717 55.5 742.5 Q81 768 117 768 Q141 768 160 756 Q179 744 190 725.5 Q201 707 202 683.5 Q203 660 192 636 L112 467 L54 495 Z " />
<glyph glyph-name="parenleft" unicode="&#x28;" horiz-adv-x="343" d="M60 351 Q60 488 110 610.5 Q160 733 248 831 L248 -128 Q157 -22 108.5 98 Q60 218 60 351 Z " />
<glyph glyph-name="parenright" unicode="&#x29;" horiz-adv-x="343" d="M283 351 Q283 218 234.5 98 Q186 -22 95 -128 L95 831 Q183 733 233 610.5 Q283 488 283 351 Z " />
<glyph glyph-name="asterisk" unicode="&#x2a;" horiz-adv-x="404" d="M144 676 Q144 670 148.5 665.5 Q153 661 159 661 Q165 661 169.5 665.5 Q174 670 174 676 Q174 682 169.5 686.5 Q165 691 159 691 L159 779 L245 779 L245 691 Q239 691 234.5 686.5 Q230 682 230 676 Q230 670 234.5 665.5 Q239 661 245 661 Q251 661 255.5 665.5 Q260 670 260 676 Q260 678 259.5 679 Q259 680 259 681 L341 713 L374 633 L284 598 Q279 608 270 608 Q264 608 259.5 603.5 Q255 599 255 593 Q255 587 259.5 582.5 Q264 578 270 578 Q275 578 279 581 L333 509 L269 454 L211 531 Q217 537 217 543 Q217 549 212.5 553.5 Q208 558 202 558 Q196 558 191.5 553.5 Q187 549 187 543 Q187 536 193 531 L135 454 L71 509 L125 581 Q128 578 134 578 Q140 578 144.5 582.5 Q149 587 149 593 Q149 599 144.5 603.5 Q140 608 134 608 Q123 608 120 598 L30 633 L63 713 L145 681 Q144 680 144 676 Z " />
<glyph glyph-name="plus" unicode="&#x2b;" horiz-adv-x="612" d="M355 320 Q355 314 359.5 309.5 Q364 305 370 305 Q376 305 380.5 309.5 Q385 314 385 320 L562 320 L562 192 L385 192 Q385 198 380.5 202.5 Q376 207 370 207 Q364 207 359.5 202.5 Q355 198 355 192 Q355 186 359.5 181.5 Q364 177 370 177 L370 0 L242 0 L242 177 Q248 177 252.5 181.5 Q257 186 257 192 Q257 198 252.5 202.5 Q248 207 242 207 Q236 207 231.5 202.5 Q227 198 227 192 L50 192 L50 320 L227 320 Q227 314 231.5 309.5 Q236 305 242 305 Q248 305 252.5 309.5 Q257 314 257 320 Q257 326 252.5 330.5 Q248 335 242 335 L242 512 L370 512 L370 335 Q364 335 359.5 330.5 Q355 326 355 320 Z " />
<glyph glyph-name="comma" unicode="&#x2c;" horiz-adv-x="273" d="M74 -99 L114 -12 Q118 -14 121 -14 Q127 -14 131.5 -9.5 Q136 -5 136 1 Q136 7 131.5 11.5 Q127 16 121 16 Q110 16 106 5 Q82 14 66 36 Q50 58 50 87 Q50 123 75.5 148.5 Q101 174 137 174 Q161 174 180 162 Q199 150 210 131.5 Q221 113 222 89.5 Q223 66 212 42 L132 -127 L74 -99 Z " />
<glyph glyph-name="hyphen" unicode="&#x2d;" horiz-adv-x="612" d="M50 192 L50 320 L562 320 L562 192 L50 192 Z " />
<glyph glyph-name="period" unicode="&#x2e;" horiz-adv-x="274" d="M50 87 Q50 123 75.5 148.5 Q101 174 137 174 Q173 174 198.5 148.5 Q224 123 224 87 Q224 51 198.5 25.5 Q173 0 137 0 Q101 0 75.5 25.5 Q50 51 50 87 Z " />
<glyph glyph-name="slash" unicode="&#x2f;" horiz-adv-x="265" d="M295 768 L103 0 L-30 0 L162 768 L295 768 Z " />
<glyph glyph-name="zero" unicode="0" horiz-adv-x="697" d="M55 366 Q55 436 72 507.5 Q89 579 124.5 636.5 Q160 694 215.5 730 Q271 766 348 766 Q425 766 480.5 730 Q536 694 572 636.5 Q608 579 625 508 Q642 437 642 366 Q642 296 625 224.5 Q608 153 572 95.5 Q536 38 480.5 2 Q425 -34 348 -34 Q271 -34 215.5 2 Q160 38 124.5 95.5 Q89 153 72 224.5 Q55 296 55 366 Z M349 87 Q390 87 417.5 109 Q445 131 461.5 168.5 Q478 206 485.5 257 Q493 308 493 366 Q493 425 485.5 476 Q478 527 461 564.5 Q444 602 416.5 624 Q389 646 348 646 Q308 646 280 624 Q252 602 235.5 564.5 Q219 527 211.5 476 Q204 425 204 366 Q204 308 211.5 257 Q219 206 236 168 Q253 130 280.5 108.5 Q308 87 349 87 Z " />
<glyph glyph-name="one" unicode="1" horiz-adv-x="494" d="M55 515 L55 626 L142 626 Q159 627 170 640 Q181 653 181 674 L181 754 L313 754 L313 133 Q307 133 302.5 128.5 Q298 124 298 118 Q298 112 302.5 107.5 Q307 103 313 103 Q319 103 323.5 107.5 Q328 112 328 118 L439 118 L439 0 L56 0 L56 118 L166 118 Q166 112 170.5 107.5 Q175 103 181 103 Q187 103 191.5 107.5 Q196 112 196 118 Q196 124 191.5 128.5 Q187 133 181 133 L181 500 Q187 500 191.5 504.5 Q196 509 196 515 Q196 521 191.5 525.5 Q187 530 181 530 Q175 530 170.5 525.5 Q166 521 166 515 L55 515 Z " />
<glyph glyph-name="two" unicode="2" horiz-adv-x="635" d="M249 117 Q249 111 253.5 106.5 Q258 102 264 102 Q270 102 274.5 106.5 Q279 111 279 117 L575 117 L575 0 L64 0 L64 96 L398 408 Q421 429 434.5 451.5 Q448 474 448 512 Q448 541 438 564.5 Q428 588 411 604.5 Q394 621 370.5 630.5 Q347 640 320 640 Q294 640 270.5 630 Q247 620 229.5 602.5 Q212 585 202 561.5 Q192 538 192 512 L64 512 Q64 565 84.5 611.5 Q105 658 139.5 692.5 Q174 727 221 747.5 Q268 768 320 768 Q373 768 419.5 747.5 Q466 727 500.5 692.5 Q535 658 555.5 611.5 Q576 565 576 512 Q576 444 545.5 395.5 Q515 347 471 306 L275 127 Q270 132 264 132 Q258 132 253.5 127.5 Q249 123 249 117 Z " />
<glyph glyph-name="three" unicode="3" horiz-adv-x="661" d="M492 404 Q492 398 496.5 393.5 Q501 389 507 389 Q515 389 519 395 Q557 366 579 326 Q601 286 601 233 Q601 178 581 132 Q561 86 524 52 Q487 18 436 -1 Q385 -20 322 -20 Q265 -20 214.5 -1 Q164 18 126.5 52 Q89 86 67 132 Q45 178 45 233 L184 233 Q184 208 194 184.5 Q204 161 222.5 143 Q241 125 266.5 114.5 Q292 104 322 104 Q384 104 422 138.5 Q460 173 461 224 Q462 271 426 301 Q390 331 327 331 L233 331 L233 448 L327 448 Q376 448 403.5 476.5 Q431 505 431 551 Q431 592 402.5 620 Q374 648 327 648 Q278 648 253 621 Q228 594 228 559 L82 559 Q82 604 101 643.5 Q120 683 152.5 712.5 Q185 742 228.5 759 Q272 776 322 776 Q372 776 416 759 Q460 742 493 712.5 Q526 683 545 643.5 Q564 604 564 559 Q564 515 550.5 477.5 Q537 440 517 415 Q511 419 507 419 Q501 419 496.5 414.5 Q492 410 492 404 Z " />
<glyph glyph-name="four" unicode="4" horiz-adv-x="612" d="M449 246 Q449 240 453.5 235.5 Q458 231 464 231 Q470 231 474.5 235.5 Q479 240 479 246 L592 246 L592 128 L479 128 Q479 134 474.5 138.5 Q470 143 464 143 Q458 143 453.5 138.5 Q449 134 449 128 Q449 122 453.5 117.5 Q458 113 464 113 L464 0 L336 0 L336 113 Q342 113 346.5 117.5 Q351 122 351 128 Q351 134 346.5 138.5 Q342 143 336 143 Q330 143 325.5 138.5 Q321 134 321 128 L26 128 L10 154 L336 754 L464 754 L464 261 Q458 261 453.5 256.5 Q449 252 449 246 Z M321 512 Q321 502 329 499 L206 259 Q202 261 199 261 Q193 261 188.5 256.5 Q184 252 184 246 Q184 240 188.5 235.5 Q193 231 199 231 Q205 231 209.5 235.5 Q214 240 214 246 L321 246 Q321 240 325.5 235.5 Q330 231 336 231 Q342 231 346.5 235.5 Q351 240 351 246 Q351 252 346.5 256.5 Q342 261 336 261 L336 497 Q342 497 346.5 501.5 Q351 506 351 512 Q351 518 346.5 522.5 Q342 527 336 527 Q330 527 325.5 522.5 Q321 518 321 512 Z " />
<glyph glyph-name="five" unicode="5" horiz-adv-x="636" d="M198 636 Q198 630 202 625.5 Q206 621 212 621 L202 498 Q196 498 191.5 493.5 Q187 489 187 483 Q187 477 191.5 472.5 Q196 468 202 468 Q208 468 212.5 472.5 Q217 477 217 483 Q217 485 215 489 Q267 512 321 512 Q374 512 420.5 492 Q467 472 501.5 437.5 Q536 403 556 356 Q576 309 576 256 Q576 204 555.5 157 Q535 110 500.5 75.5 Q466 41 419.5 20.5 Q373 0 320 0 Q276 0 235.5 14.5 Q195 29 162.5 54.5 Q130 80 106.5 115.5 Q83 151 72 192 L207 192 Q224 163 254 144 Q284 125 320 125 Q347 125 370.5 135.5 Q394 146 411.5 164 Q429 182 439.5 205.5 Q450 229 450 256 Q450 283 440 307 Q430 331 412.5 348.5 Q395 366 371.5 376.5 Q348 387 321 387 Q284 387 254 368.5 Q224 350 207 320 L72 320 L103 754 L512 754 L512 636 L228 636 Q228 642 223.5 646.5 Q219 651 213 651 Q207 651 202.5 646.5 Q198 642 198 636 Z " />
<glyph glyph-name="six" unicode="6" horiz-adv-x="636" d="M332 488 Q383 486 427.5 467.5 Q472 449 505 416.5 Q538 384 557 340 Q576 296 576 242 Q576 189 556 142.5 Q536 96 501 61 Q466 26 419.5 6 Q373 -14 320 -14 Q267 -14 220.5 6 Q174 26 139 61 Q104 96 84 142.5 Q64 189 64 242 Q64 285 79 322.5 Q94 360 115 395 L330 754 L471 754 L325 501 Q323 503 317 503 Q311 503 306.5 498.5 Q302 494 302 488 Q302 482 306.5 477.5 Q311 473 317 473 Q323 473 327.5 477.5 Q332 482 332 488 Z M448 242 Q448 268 438 291.5 Q428 315 410.5 332.5 Q393 350 370 360 Q347 370 320 370 Q294 370 270.5 360 Q247 350 229.5 332.5 Q212 315 202 291.5 Q192 268 192 242 Q192 216 202 192.5 Q212 169 229.5 151.5 Q247 134 270 124 Q293 114 320 114 Q346 114 369.5 124 Q393 134 410.5 151.5 Q428 169 438 192.5 Q448 216 448 242 Z " />
<glyph glyph-name="seven" unicode="7" horiz-adv-x="560" d="M20 636 L20 754 L505 754 L515 740 L269 0 L131 0 L339 622 Q341 621 344 621 Q350 621 354.5 625.5 Q359 630 359 636 Q359 642 354.5 646.5 Q350 651 344 651 Q338 651 333.5 646.5 Q329 642 329 636 L20 636 Z " />
<glyph glyph-name="eight" unicode="8" horiz-adv-x="631" d="M473 410 Q473 404 477.5 399.5 Q482 395 488 395 Q494 395 499 400 Q535 366 557 320 Q579 274 579 223 Q579 171 557.5 124.5 Q536 78 499.5 44 Q463 10 414 -10 Q365 -30 309 -30 Q254 -30 205.5 -10 Q157 10 120.5 44 Q84 78 62.5 124.5 Q41 171 41 223 Q41 274 62 320 Q83 366 120 400 Q125 395 131 395 Q137 395 141.5 399.5 Q146 404 146 410 Q146 416 141.5 420.5 Q137 425 131 425 Q125 425 122 422 Q102 450 90.5 481.5 Q79 513 79 549 Q79 594 97 633.5 Q115 673 146.5 702.5 Q178 732 220 749 Q262 766 309 766 Q357 766 399 749 Q441 732 472.5 702.5 Q504 673 522.5 633.5 Q541 594 541 549 Q541 513 529 481 Q517 449 497 421 Q491 425 488 425 Q482 425 477.5 420.5 Q473 416 473 410 Z M308 83 Q335 83 359 92 Q383 101 402 118.5 Q421 136 432 161 Q443 186 443 218 Q443 246 433.5 271 Q424 296 406.5 314.5 Q389 333 364 344 Q339 355 308 355 Q277 355 252.5 344 Q228 333 211 314.5 Q194 296 185 271 Q176 246 176 218 Q176 186 187 161 Q198 136 216 118.5 Q234 101 258 92 Q282 83 308 83 Z M309 459 Q351 459 377.5 487 Q404 515 404 553 Q404 591 377.5 619 Q351 647 309 647 Q291 647 273.5 639.5 Q256 632 243 619 Q230 606 222 589 Q214 572 214 553 Q214 534 222 517 Q230 500 243 487 Q256 474 273.5 466.5 Q291 459 309 459 Z " />
<glyph glyph-name="nine" unicode="9" horiz-adv-x="620" d="M308 266 Q257 268 212.5 286.5 Q168 305 135 337.5 Q102 370 83 414 Q64 458 64 512 Q64 565 84 611.5 Q104 658 139 693 Q174 728 220.5 748 Q267 768 320 768 Q373 768 419.5 748 Q466 728 501 693 Q536 658 556 611.5 Q576 565 576 512 Q576 469 561 431.5 Q546 394 525 359 L310 0 L169 0 L315 253 Q317 251 323 251 Q329 251 333.5 255.5 Q338 260 338 266 Q338 272 333.5 276.5 Q329 281 323 281 Q317 281 312.5 276.5 Q308 272 308 266 Z M192 512 Q192 486 202 462.5 Q212 439 229.5 421.5 Q247 404 270 394 Q293 384 320 384 Q346 384 369.5 394 Q393 404 410.5 421.5 Q428 439 438 462.5 Q448 486 448 512 Q448 538 438 561.5 Q428 585 410.5 602.5 Q393 620 370 630 Q347 640 320 640 Q294 640 270.5 630 Q247 620 229.5 602.5 Q212 585 202 561.5 Q192 538 192 512 Z " />
<glyph glyph-name="colon" unicode="&#x3a;" horiz-adv-x="274" d="M50 87 Q50 123 75.5 148.5 Q101 174 137 174 Q173 174 198.5 148.5 Q224 123 224 87 Q224 51 198.5 25.5 Q173 0 137 0 Q101 0 75.5 25.5 Q50 51 50 87 Z M50 425 Q50 461 75.5 486.5 Q101 512 137 512 Q173 512 198.5 486.5 Q224 461 224 425 Q224 389 198.5 363.5 Q173 338 137 338 Q101 338 75.5 363.5 Q50 389 50 425 Z " />
<glyph glyph-name="semicolon" unicode="&#x3b;" horiz-adv-x="274" d="M74 -99 L114 -12 Q118 -14 121 -14 Q127 -14 131.5 -9.5 Q136 -5 136 1 Q136 7 131.5 11.5 Q127 16 121 16 Q110 16 106 5 Q82 14 66 36 Q50 58 50 87 Q50 123 75.5 148.5 Q101 174 137 174 Q161 174 180 162 Q199 150 210 131.5 Q221 113 222 89.5 Q223 66 212 42 L132 -127 L74 -99 Z M50 425 Q50 461 75.5 486.5 Q101 512 137 512 Q173 512 198.5 486.5 Q224 461 224 425 Q224 389 198.5 363.5 Q173 338 137 338 Q101 338 75.5 363.5 Q50 389 50 425 Z " />
<glyph glyph-name="less" unicode="&#x3c;" horiz-adv-x="497" d="M187 256 Q187 250 191.5 245.5 Q196 241 202 241 Q208 241 212 245 L447 11 L443 0 L286 0 L30 256 L286 512 L443 512 L447 501 L212 266 Q207 271 202 271 Q196 271 191.5 266.5 Q187 262 187 256 Z " />
<glyph glyph-name="equal" unicode="&#x3d;" horiz-adv-x="612" d="M50 64 L50 192 L562 192 L562 64 L50 64 Z M50 320 L50 448 L562 448 L562 320 L50 320 Z " />
<glyph glyph-name="greater" unicode="&#x3e;" horiz-adv-x="497" d="M211 0 L54 0 L50 11 L284 245 Q288 241 295 241 Q301 241 305.5 245.5 Q310 250 310 256 Q310 262 305.5 266.5 Q301 271 295 271 Q289 271 284 266 L50 501 L54 512 L211 512 L467 256 L211 0 Z " />
<glyph glyph-name="question" unicode="&#x3f;" horiz-adv-x="592" d="M224 379 L281 379 Q308 379 331 389 Q354 399 371.5 416.5 Q389 434 399 457 Q409 480 409 507 Q409 534 399 557 Q389 580 371.5 597.5 Q354 615 331 625 Q308 635 281 635 Q254 635 231 625 Q208 615 190.5 597.5 Q173 580 163 557 Q153 534 153 507 L20 507 Q20 561 40.5 609 Q61 657 96 692 Q131 727 179 747.5 Q227 768 281 768 Q335 768 383 747.5 Q431 727 466 692 Q501 657 521.5 609 Q542 561 542 507 Q542 453 521.5 405 Q501 357 466 322 Q431 287 383 266.5 Q335 246 281 246 L224 246 L224 379 Z M202 87 Q202 123 227.5 148.5 Q253 174 289 174 Q325 174 350.5 148.5 Q376 123 376 87 Q376 51 350.5 25.5 Q325 0 289 0 Q253 0 227.5 25.5 Q202 51 202 87 Z " />
<glyph glyph-name="at" unicode="&#x40;" horiz-adv-x="1161" d="M695 166 Q695 159 699 155 Q670 127 634 112 Q598 97 557 97 Q509 97 466 115.5 Q423 134 391.5 165.5 Q360 197 341.5 240 Q323 283 323 331 Q323 380 341.5 423 Q360 466 391.5 498 Q423 530 466 548.5 Q509 567 557 567 Q595 567 628.5 553.5 Q662 540 690 517 Q686 513 686 507 Q686 501 690.5 496.5 Q695 492 701 492 Q707 492 711.5 496.5 Q716 501 716 507 Q716 518 703 522 L709 555 L838 555 L812 324 Q808 289 812.5 266 Q817 243 828 229.5 Q839 216 854.5 211 Q870 206 887 206 Q931 206 951.5 253 Q972 300 970 403 Q969 476 942.5 533.5 Q916 591 867 631.5 Q818 672 748.5 693.5 Q679 715 591 715 Q499 715 424.5 686 Q350 657 297.5 604.5 Q245 552 217.5 478 Q190 404 191 314 Q192 238 225.5 166 Q259 94 329 43 Q399 -8 507 -28.5 Q615 -49 765 -21 L766 -142 Q625 -169 496.5 -153 Q368 -137 269.5 -78.5 Q171 -20 112 80.5 Q53 181 51 323 Q49 442 88.5 539 Q128 636 199.5 704.5 Q271 773 370.5 810 Q470 847 588 847 Q711 847 807.5 814 Q904 781 971 722 Q1038 663 1073.5 582 Q1109 501 1110 406 Q1112 309 1090 246 Q1068 183 1032 146.5 Q996 110 951.5 97.5 Q907 85 863 89.5 Q819 94 780.5 112 Q742 130 719 154 Q725 159 725 166 Q725 172 720.5 176.5 Q716 181 710 181 Q704 181 699.5 176.5 Q695 172 695 166 Z M458 331 Q458 280 488.5 249.5 Q519 219 570 219 Q621 219 652 249.5 Q683 280 683 331 Q683 352 675 372.5 Q667 393 652 409 Q637 425 616.5 434.5 Q596 444 570 444 Q545 444 524.5 434.5 Q504 425 489 409 Q474 393 466 372.5 Q458 352 458 331 Z " />
<glyph glyph-name="A" unicode="A" horiz-adv-x="744" d="M204 138 Q204 129 213 124 L161 0 L17 0 L314 735 L429 735 L727 0 L583 0 L530 124 Q539 129 539 138 Q539 144 534.5 148.5 Q530 153 524 153 Q518 153 513.5 148.5 Q509 144 509 138 L234 138 Q234 144 229.5 148.5 Q225 153 219 153 Q213 153 208.5 148.5 Q204 144 204 138 Z M357 543 Q357 533 366 529 L268 270 Q267 270 266 270.5 Q265 271 263 271 Q257 271 252.5 266.5 Q248 262 248 256 Q248 250 252.5 245.5 Q257 241 263 241 Q269 241 273.5 245.5 Q278 250 278 256 L466 256 Q466 250 470.5 245.5 Q475 241 481 241 Q487 241 491.5 245.5 Q496 250 496 256 Q496 262 491.5 266.5 Q487 271 481 271 Q479 271 478 270.5 Q477 270 475 270 L377 529 Q387 533 387 543 Q387 549 382.5 553.5 Q378 558 372 558 Q366 558 361.5 553.5 Q357 549 357 543 Z " />
<glyph glyph-name="B" unicode="B" horiz-adv-x="668" d="M527 386 Q527 380 531.5 375.5 Q536 371 542 371 Q548 371 553 376 Q588 346 608 304 Q628 262 628 214 Q628 170 611 131 Q594 92 565 63 Q536 34 497 17 Q458 0 413 0 L95 0 L95 735 L375 735 Q420 735 459 718 Q498 701 527 672 Q556 643 572.5 604 Q589 565 589 521 Q589 486 579 455 Q569 424 551 398 Q547 401 542 401 Q536 401 531.5 396.5 Q527 392 527 386 Z M208 122 Q208 116 212.5 111.5 Q217 107 223 107 Q229 107 233.5 111.5 Q238 116 238 122 L404 122 Q442 122 469 149 Q496 176 496 214 Q496 252 469 279 Q442 306 404 306 L238 306 Q238 312 233.5 316.5 Q229 321 223 321 Q217 321 212.5 316.5 Q208 312 208 306 Q208 300 212.5 295.5 Q217 291 223 291 L223 137 Q217 137 212.5 132.5 Q208 128 208 122 Z M208 430 Q208 424 212.5 419.5 Q217 415 223 415 Q236 415 238 429 L366 429 Q404 429 431 456 Q458 483 458 521 Q458 559 431 585.5 Q404 612 366 612 L238 612 Q238 618 233.5 622.5 Q229 627 223 627 Q217 627 212.5 622.5 Q208 618 208 612 Q208 606 212.5 601.5 Q217 597 223 597 L223 445 Q217 445 212.5 440.5 Q208 436 208 430 Z " />
<glyph glyph-name="C" unicode="C" horiz-adv-x="730" d="M191 367 Q191 316 210.5 271.5 Q230 227 263.5 193 Q297 159 342.5 139.5 Q388 120 439 120 Q489 120 532.5 140.5 Q576 161 611 194 L700 99 Q649 48 580.5 18.5 Q512 -11 433 -11 Q355 -11 286 19 Q217 49 166 100 Q115 151 85 220 Q55 289 55 367 Q55 445 85 514 Q115 583 166 634.5 Q217 686 286 716 Q355 746 433 746 Q511 746 579.5 716.5 Q648 687 700 636 L610 541 Q576 573 532.5 593.5 Q489 614 439 614 Q388 614 342.5 594.5 Q297 575 263.5 541.5 Q230 508 210.5 463 Q191 418 191 367 Z " />
<glyph glyph-name="D" unicode="D" horiz-adv-x="729" d="M95 0 L95 735 L307 735 Q383 735 449.5 706 Q516 677 566 627 Q616 577 645 510.5 Q674 444 674 368 Q674 292 645 225 Q616 158 566 108 Q516 58 449.5 29 Q383 0 307 0 L95 0 Z M218 607 Q218 601 222.5 596.5 Q227 592 233 592 L233 143 Q227 143 222.5 138.5 Q218 134 218 128 Q218 122 222.5 117.5 Q227 113 233 113 Q239 113 243.5 117.5 Q248 122 248 128 L307 128 Q356 128 399.5 147 Q443 166 475.5 198.5 Q508 231 527 275 Q546 319 546 368 Q546 417 527 460.5 Q508 504 475.5 536.5 Q443 569 399.5 588 Q356 607 307 607 L248 607 Q248 613 243.5 617.5 Q239 622 233 622 Q227 622 222.5 617.5 Q218 613 218 607 Z " />
<glyph glyph-name="E" unicode="E" horiz-adv-x="603" d="M222 118 Q222 112 226.5 107.5 Q231 103 237 103 Q243 103 247.5 107.5 Q252 112 252 118 L548 118 L548 0 L95 0 L95 735 L548 735 L548 617 L252 617 Q252 623 247.5 627.5 Q243 632 237 632 Q231 632 226.5 627.5 Q222 623 222 617 Q222 611 226.5 606.5 Q231 602 237 602 L237 445 Q231 445 226.5 440.5 Q222 436 222 430 Q222 424 226.5 419.5 Q231 415 237 415 Q243 415 247.5 419.5 Q252 424 252 430 L548 430 L548 313 L252 313 Q252 319 247.5 323.5 Q243 328 237 328 Q231 328 226.5 323.5 Q222 319 222 313 Q222 307 226.5 302.5 Q231 298 237 298 L237 133 Q231 133 226.5 128.5 Q222 124 222 118 Z " />
<glyph glyph-name="F" unicode="F" horiz-adv-x="581" d="M216 313 Q216 307 220.5 302.5 Q225 298 231 298 L231 0 L93 0 L93 735 L541 735 L541 617 L246 617 Q246 623 241.5 627.5 Q237 632 231 632 Q225 632 220.5 627.5 Q216 623 216 617 Q216 611 220.5 606.5 Q225 602 231 602 L231 445 Q225 445 220.5 440.5 Q216 436 216 430 Q216 424 220.5 419.5 Q225 415 231 415 Q237 415 241.5 419.5 Q246 424 246 430 L541 430 L541 313 L246 313 Q246 319 241.5 323.5 Q237 328 231 328 Q225 328 220.5 323.5 Q216 319 216 313 Z " />
<glyph glyph-name="G" unicode="G" horiz-adv-x="848" d="M438 304 L438 430 L798 430 Q801 414 802 399 Q803 384 803 367 Q803 280 773.5 210.5 Q744 141 693.5 91.5 Q643 42 576 15.5 Q509 -11 434 -11 Q356 -11 287 19 Q218 49 166.5 100.5 Q115 152 85 221 Q55 290 55 368 Q55 446 85 515 Q115 584 166.5 635.5 Q218 687 287 717 Q356 747 434 747 Q512 747 581 717.5 Q650 688 702 637 L607 542 Q574 577 529 596 Q484 615 433 615 Q382 615 337 595.5 Q292 576 258.5 542.5 Q225 509 205.5 464 Q186 419 186 368 Q186 317 205.5 272 Q225 227 258.5 193.5 Q292 160 337 140.5 Q382 121 433 121 Q525 121 589 164 Q653 207 668 289 L670 289 Q676 289 680.5 293.5 Q685 298 685 304 Q685 310 680.5 314.5 Q676 319 670 319 Q664 319 659.5 314.5 Q655 310 655 304 L438 304 Z " />
<glyph glyph-name="H" unicode="H" horiz-adv-x="817" d="M252 313 Q252 319 247.5 323.5 Q243 328 237 328 Q231 328 226.5 323.5 Q222 319 222 313 Q222 307 226.5 302.5 Q231 298 237 298 L237 0 L95 0 L95 734 L237 734 L237 445 Q231 445 226.5 440.5 Q222 436 222 430 Q222 424 226.5 419.5 Q231 415 237 415 Q243 415 247.5 419.5 Q252 424 252 430 L565 430 Q565 424 569.5 419.5 Q574 415 580 415 Q586 415 590.5 419.5 Q595 424 595 430 Q595 436 590.5 440.5 Q586 445 580 445 L580 735 L722 735 L722 0 L580 0 L580 298 Q586 298 590.5 302.5 Q595 307 595 313 Q595 319 590.5 323.5 Q586 328 580 328 Q574 328 569.5 323.5 Q565 319 565 313 L252 313 Z " />
<glyph glyph-name="I" unicode="I" horiz-adv-x="518" d="M315 118 Q315 112 319.5 107.5 Q324 103 330 103 Q336 103 340.5 107.5 Q345 112 345 118 L458 118 L458 0 L60 0 L60 118 L173 118 Q173 112 177.5 107.5 Q182 103 188 103 Q194 103 198.5 107.5 Q203 112 203 118 Q203 124 198.5 128.5 Q194 133 188 133 L188 602 Q194 602 198.5 606.5 Q203 611 203 617 Q203 623 198.5 627.5 Q194 632 188 632 Q182 632 177.5 627.5 Q173 623 173 617 L60 617 L60 735 L458 735 L458 617 L345 617 Q345 623 340.5 627.5 Q336 632 330 632 Q324 632 319.5 627.5 Q315 623 315 617 Q315 611 319.5 606.5 Q324 602 330 602 L330 133 Q324 133 319.5 128.5 Q315 124 315 118 Z " />
<glyph glyph-name="J" unicode="J" horiz-adv-x="496" d="M162 198 Q162 171 181.5 151.5 Q201 132 228 132 Q255 132 274.5 151.5 Q294 171 294 198 L294 735 L426 735 L426 198 Q426 157 410.5 121 Q395 85 368 58 Q341 31 305 15.5 Q269 0 228 0 Q187 0 151 15.5 Q115 31 88 58 Q61 85 45.5 121 Q30 157 30 198 L162 198 Z " />
<glyph glyph-name="K" unicode="K" horiz-adv-x="701" d="M431 374 Q431 368 435.5 363.5 Q440 359 446 359 Q451 359 453 361 L661 0 L512 0 L334 313 L245 313 Q245 319 240.5 323.5 Q236 328 230 328 Q224 328 219.5 323.5 Q215 319 215 313 Q215 307 219.5 302.5 Q224 298 230 298 L230 0 L95 0 L95 735 L230 735 L230 445 Q224 445 219.5 440.5 Q215 436 215 430 Q215 424 219.5 419.5 Q224 415 230 415 Q236 415 240.5 419.5 Q245 424 245 430 L329 430 L505 735 L654 735 L453 387 Q449 389 446 389 Q440 389 435.5 384.5 Q431 380 431 374 Z " />
<glyph glyph-name="L" unicode="L" horiz-adv-x="501" d="M217 118 Q217 112 221.5 107.5 Q226 103 232 103 Q238 103 242.5 107.5 Q247 112 247 118 L481 118 L481 0 L95 0 L95 735 L232 735 L232 133 Q226 133 221.5 128.5 Q217 124 217 118 Z " />
<glyph glyph-name="M" unicode="M" horiz-adv-x="916" d="M443 406 Q443 400 447.5 395.5 Q452 391 458 391 Q464 391 468.5 395.5 Q473 400 473 406 Q473 410 469 416 L810 739 L821 735 L821 0 L685 0 L685 428 Q691 428 695.5 432.5 Q700 437 700 443 Q700 449 695.5 453.5 Q691 458 685 458 Q679 458 674.5 453.5 Q670 449 670 443 Q670 436 674 433 L458 231 L242 433 Q246 437 246 443 Q246 449 241.5 453.5 Q237 458 231 458 Q225 458 220.5 453.5 Q216 449 216 443 Q216 437 220.5 432.5 Q225 428 231 428 L231 0 L95 0 L95 735 L105 739 L447 416 Q443 412 443 406 Z " />
<glyph glyph-name="N" unicode="N" horiz-adv-x="853" d="M216 459 Q216 453 220.5 448.5 Q225 444 231 444 L231 0 L95 0 L95 730 L106 735 L611 296 Q607 292 607 286 Q607 280 611.5 275.5 Q616 271 622 271 Q628 271 632.5 275.5 Q637 280 637 286 Q637 292 632.5 296.5 Q628 301 622 301 L622 735 L758 735 L758 5 L746 -1 L242 449 Q246 453 246 459 Q246 465 241.5 469.5 Q237 474 231 474 Q225 474 220.5 469.5 Q216 465 216 459 Z " />
<glyph glyph-name="O" unicode="O" horiz-adv-x="868" d="M55 368 Q55 446 85 515 Q115 584 166.5 635.5 Q218 687 287 717 Q356 747 434 747 Q512 747 581 717 Q650 687 701.5 635.5 Q753 584 783 515 Q813 446 813 368 Q813 290 783 221 Q753 152 701.5 100.5 Q650 49 581 19 Q512 -11 434 -11 Q356 -11 287 19 Q218 49 166.5 100.5 Q115 152 85 221 Q55 290 55 368 Z M194 368 Q194 319 213 275 Q232 231 264.5 198.5 Q297 166 341 147 Q385 128 434 128 Q484 128 527.5 147 Q571 166 603.5 198.5 Q636 231 655 275 Q674 319 674 368 Q674 418 655 461.5 Q636 505 603.5 537.5 Q571 570 527.5 589 Q484 608 434 608 Q385 608 341 589 Q297 570 264.5 537.5 Q232 505 213 461.5 Q194 418 194 368 Z " />
<glyph glyph-name="P" unicode="P" horiz-adv-x="633" d="M216 223 Q216 217 220.5 212.5 Q225 208 231 208 L231 0 L95 0 L95 735 L357 735 Q410 735 457 715 Q504 695 538.5 660.5 Q573 626 593 579 Q613 532 613 479 Q613 426 593 379 Q573 332 538.5 297.5 Q504 263 457 243 Q410 223 357 223 L246 223 Q246 229 241.5 233.5 Q237 238 231 238 Q225 238 220.5 233.5 Q216 229 216 223 Z M216 617 Q216 611 220.5 606.5 Q225 602 231 602 L231 356 Q225 356 220.5 351.5 Q216 347 216 341 Q216 335 220.5 330.5 Q225 326 231 326 Q237 326 241.5 330.5 Q246 335 246 341 L347 341 Q376 341 401 352 Q426 363 444.5 381.5 Q463 400 474 425.5 Q485 451 485 479 Q485 508 474 533 Q463 558 444.5 576.5 Q426 595 401 606 Q376 617 347 617 L246 617 Q246 623 241.5 627.5 Q237 632 231 632 Q225 632 220.5 627.5 Q216 623 216 617 Z " />
<glyph glyph-name="Q" unicode="Q" horiz-adv-x="868" d="M435 -10 Q435 -16 439.5 -20.5 Q444 -25 450 -25 L450 -44 Q450 -70 469 -89 Q488 -108 514 -108 Q540 -108 559 -89 Q578 -70 578 -44 L706 -44 Q706 -84 691 -119 Q676 -154 650 -180 Q624 -206 589 -221 Q554 -236 514 -236 Q474 -236 439 -221 Q404 -206 378 -180 Q352 -154 337 -119 Q322 -84 322 -44 L322 -9 Q328 -9 332.5 -4.5 Q337 0 337 6 Q337 12 332.5 16.5 Q328 21 322 21 Q312 21 308 11 Q253 31 206.5 66 Q160 101 126 147.5 Q92 194 73.5 250 Q55 306 55 368 Q55 446 85 515 Q115 584 166.5 635.5 Q218 687 287 717 Q356 747 434 747 Q512 747 581 717 Q650 687 701.5 635.5 Q753 584 783 515 Q813 446 813 368 Q813 293 786 227 Q759 161 712 110.5 Q665 60 601.5 28.5 Q538 -3 465 -9 Q463 5 450 5 Q444 5 439.5 0.5 Q435 -4 435 -10 Z M194 368 Q194 319 213 275 Q232 231 264.5 198.5 Q297 166 341 147 Q385 128 434 128 Q484 128 527.5 147 Q571 166 603.5 198.5 Q636 231 655 275 Q674 319 674 368 Q674 418 655 461.5 Q636 505 603.5 537.5 Q571 570 527.5 589 Q484 608 434 608 Q385 608 341 589 Q297 570 264.5 537.5 Q232 505 213 461.5 Q194 418 194 368 Z " />
<glyph glyph-name="R" unicode="R" horiz-adv-x="686" d="M522 301 Q522 295 526.5 290.5 Q531 286 537 286 Q540 286 542 287 L648 0 L504 0 L404 274 L246 274 Q246 280 241.5 284.5 Q237 289 231 289 Q225 289 220.5 284.5 Q216 280 216 274 Q216 268 220.5 263.5 Q225 259 231 259 L231 0 L95 0 L95 735 L425 735 Q473 735 515 717 Q557 699 588.5 667.5 Q620 636 638 594 Q656 552 656 504 Q656 442 626.5 391 Q597 340 549 308 Q546 316 537 316 Q531 316 526.5 311.5 Q522 307 522 301 Z M216 617 Q216 611 220.5 606.5 Q225 602 231 602 L231 406 Q225 406 220.5 401.5 Q216 397 216 391 Q216 385 220.5 380.5 Q225 376 231 376 Q237 376 241.5 380.5 Q246 385 246 391 L411 391 Q435 391 455.5 400 Q476 409 491 424.5 Q506 440 515 460.5 Q524 481 524 504 Q524 528 515 548.5 Q506 569 491 584 Q476 599 455.5 608 Q435 617 411 617 L246 617 Q246 623 241.5 627.5 Q237 632 231 632 Q225 632 220.5 627.5 Q216 623 216 617 Z " />
<glyph glyph-name="S" unicode="S" horiz-adv-x="616" d="M324 -16 Q274 -16 229 -3 Q184 10 147.5 36.5 Q111 63 86 102 Q61 141 50 192 L180 234 Q194 181 232 148 Q270 115 325 115 Q381 115 409 136.5 Q437 158 437 195 Q437 244 369 275 Q333 292 287.5 308.5 Q242 325 199 350 Q173 365 149.5 384 Q126 403 108.5 428 Q91 453 80.5 484.5 Q70 516 70 556 Q70 606 91 642.5 Q112 679 146.5 703.5 Q181 728 225 740 Q269 752 315 752 Q355 752 392 742.5 Q429 733 460 713.5 Q491 694 514.5 664.5 Q538 635 551 596 L429 545 Q416 583 385 604 Q354 625 312 625 Q270 625 241 607 Q212 589 212 553 Q212 526 225.5 507.5 Q239 489 270 473 Q304 454 349 438 Q394 422 438 400 Q466 386 491 368.5 Q516 351 535 327.5 Q554 304 565 274 Q576 244 576 205 Q576 152 555 111 Q534 70 499 41.5 Q464 13 418.5 -1.5 Q373 -16 324 -16 Z " />
<glyph glyph-name="T" unicode="T" horiz-adv-x="568" d="M337 617 Q337 611 341.5 606.5 Q346 602 352 602 L352 0 L216 0 L216 602 Q222 602 226.5 606.5 Q231 611 231 617 Q231 623 226.5 627.5 Q222 632 216 632 Q210 632 205.5 627.5 Q201 623 201 617 L20 617 L20 734 L548 734 L548 617 L367 617 Q367 623 362.5 627.5 Q358 632 352 632 Q346 632 341.5 627.5 Q337 623 337 617 Z " />
<glyph glyph-name="U" unicode="U" horiz-adv-x="800" d="M208 319 Q208 279 223 244 Q238 209 264 183 Q290 157 325 142 Q360 127 400 127 Q440 127 475 142 Q510 157 536 183 Q562 209 577 244 Q592 279 592 319 L592 735 L730 735 L730 319 Q730 250 704 190 Q678 130 633 85.5 Q588 41 528 15 Q468 -11 400 -11 Q332 -11 272 15 Q212 41 167 85.5 Q122 130 96 190 Q70 250 70 319 L70 735 L208 735 L208 319 Z " />
<glyph glyph-name="V" unicode="V" horiz-adv-x="740" d="M355 116 Q355 110 359.5 105.5 Q364 101 370 101 Q376 101 380.5 105.5 Q385 110 385 116 Q385 126 374 130 L576 735 L720 735 L475 0 L265 0 L20 735 L164 735 L365 130 Q355 127 355 116 Z " />
<glyph glyph-name="W" unicode="W" horiz-adv-x="991" d="M480 519 Q480 513 484.5 508.5 Q489 504 495 504 Q501 504 505.5 508.5 Q510 513 510 519 Q510 529 499 533 L564 735 L702 735 L557 339 L625 140 Q615 137 615 126 Q615 120 619.5 115.5 Q624 111 630 111 Q636 111 640.5 115.5 Q645 120 645 126 Q645 136 634 140 L833 735 L971 735 L726 0 L556 0 L500 148 Q510 152 510 162 Q510 168 505.5 172.5 Q501 177 495 177 Q489 177 484.5 172.5 Q480 168 480 162 Q480 151 490 148 L435 0 L265 0 L20 735 L158 735 L356 140 Q346 137 346 126 Q346 120 350.5 115.5 Q355 111 361 111 Q367 111 371.5 115.5 Q376 120 376 126 Q376 136 366 140 L434 338 L289 735 L427 735 L490 533 Q480 530 480 519 Z " />
<glyph glyph-name="X" unicode="X" horiz-adv-x="702" d="M336 502 Q336 496 340.5 491.5 Q345 487 351 487 Q357 487 361.5 491.5 Q366 496 366 502 Q366 511 359 514 L502 735 L659 735 L431 385 L682 0 L525 0 L359 254 Q366 259 366 267 Q366 273 361.5 277.5 Q357 282 351 282 Q345 282 340.5 277.5 Q336 273 336 267 Q336 259 343 254 L177 0 L20 0 L271 385 L41 735 L198 735 L343 514 Q336 511 336 502 Z " />
<glyph glyph-name="Y" unicode="Y" horiz-adv-x="593" d="M282 400 Q282 394 286.5 389.5 Q291 385 297 385 Q303 385 307.5 389.5 Q312 394 312 400 Q312 409 302 414 L429 735 L573 735 L361 212 L361 0 L233 0 L233 212 L20 735 L165 735 L291 414 Q282 409 282 400 Z " />
<glyph glyph-name="Z" unicode="Z" horiz-adv-x="615" d="M52 617 L52 735 L554 735 L570 709 L423 443 Q419 445 416 445 Q410 445 405.5 440.5 Q401 436 401 430 Q401 424 405.5 419.5 Q410 415 416 415 Q422 415 426.5 419.5 Q431 424 431 430 L513 430 L513 313 L351 313 L251 131 Q247 133 244 133 Q238 133 233.5 128.5 Q229 124 229 118 Q229 112 233.5 107.5 Q238 103 244 103 Q250 103 254.5 107.5 Q259 112 259 118 L563 118 L563 0 L61 0 L45 26 L199 300 Q203 298 206 298 Q212 298 216.5 302.5 Q221 307 221 313 Q221 319 216.5 323.5 Q212 328 206 328 Q200 328 195.5 323.5 Q191 319 191 313 L102 313 L102 430 L272 430 L370 604 Q374 602 377 602 Q383 602 387.5 606.5 Q392 611 392 617 Q392 623 387.5 627.5 Q383 632 377 632 Q371 632 366.5 627.5 Q362 623 362 617 L52 617 Z " />
<glyph glyph-name="bracketleft" unicode="&#x5b;" horiz-adv-x="411" d="M208 0 Q208 -6 212.5 -10.5 Q217 -15 223 -15 Q229 -15 233.5 -10.5 Q238 -6 238 0 L351 0 L351 -128 L95 -128 L95 896 L351 896 L351 768 L238 768 Q238 774 233.5 778.5 Q229 783 223 783 Q217 783 212.5 778.5 Q208 774 208 768 Q208 762 212.5 757.5 Q217 753 223 753 L223 15 Q217 15 212.5 10.5 Q208 6 208 0 Z " />
<glyph glyph-name="backslash" unicode="&#x5c;" horiz-adv-x="265" d="M103 768 L295 0 L162 0 L-30 768 L103 768 Z " />
<glyph glyph-name="bracketright" unicode="&#x5d;" horiz-adv-x="411" d="M60 768 L60 896 L316 896 L316 -128 L60 -128 L60 0 L173 0 Q173 -6 177.5 -10.5 Q182 -15 188 -15 Q194 -15 198.5 -10.5 Q203 -6 203 0 Q203 6 198.5 10.5 Q194 15 188 15 L188 753 Q194 753 198.5 757.5 Q203 762 203 768 Q203 774 198.5 778.5 Q194 783 188 783 Q182 783 177.5 778.5 Q173 774 173 768 L60 768 Z " />
<glyph glyph-name="asciicircum" unicode="&#x5e;" horiz-adv-x="372" d="M170 655 Q170 648 174 644 L95 564 L50 609 L186 745 L322 609 L277 564 L195 644 Q200 649 200 655 Q200 661 195.5 665.5 Q191 670 185 670 Q179 670 174.5 665.5 Q170 661 170 655 Z " />
<glyph glyph-name="underscore" unicode="&#x5f;" horiz-adv-x="612" d="M50 0 L50 128 L562 128 L562 0 L50 0 Z " />
<glyph glyph-name="grave" unicode="&#x60;" horiz-adv-x="202" d="M22 671 Q7 686 7 706 Q7 726 22 741 Q37 756 57 756 Q77 756 92 741 Q94 740 97 736 Q100 732 110.5 718 Q121 704 141.5 676 Q162 648 198 598 L165 565 L22 671 Z " />
<glyph glyph-name="a" unicode="a" horiz-adv-x="587" d="M376 64 Q376 57 382 52 Q356 22 317 7.5 Q278 -7 240 -7 Q198 -7 163.5 4 Q129 15 103.5 35.5 Q78 56 64 84.5 Q50 113 50 149 Q50 224 100.5 267 Q151 310 243 310 L376 310 Q376 304 380.5 299.5 Q385 295 391 295 Q397 295 401.5 299.5 Q406 304 406 310 Q406 316 401.5 320.5 Q397 325 391 325 L391 334 Q391 367 365 389.5 Q339 412 295 412 Q260 412 237 397.5 Q214 383 194 354 L98 422 Q109 443 128.5 462 Q148 481 173.5 495.5 Q199 510 230 518.5 Q261 527 294 527 Q345 527 386 511.5 Q427 496 456.5 468.5 Q486 441 501.5 403 Q517 365 517 320 L517 0 L391 0 L391 49 Q397 49 401.5 53.5 Q406 58 406 64 Q406 70 401.5 74.5 Q397 79 391 79 Q385 79 380.5 74.5 Q376 70 376 64 Z M247 204 Q223 204 202 194 Q181 184 181 154 Q181 127 205 113 Q229 99 264 99 Q282 99 302.5 104 Q323 109 341.5 119.5 Q360 130 373.5 147.5 Q387 165 390 189 L391 189 Q397 189 401.5 193.5 Q406 198 406 204 Q406 210 401.5 214.5 Q397 219 391 219 Q385 219 380.5 214.5 Q376 210 376 204 L247 204 Z " />
<glyph glyph-name="b" unicode="b" horiz-adv-x="657" d="M203 457 Q203 451 207.5 446.5 Q212 442 218 442 Q224 442 228.5 446.5 Q233 451 233 457 Q233 461 229 467 Q254 488 283.5 500 Q313 512 346 512 Q399 512 446 492 Q493 472 527.5 437.5 Q562 403 582 356 Q602 309 602 256 Q602 203 582 156 Q562 109 527.5 74.5 Q493 40 446 20 Q399 0 346 0 Q280 0 229 45 Q233 49 233 55 Q233 61 228.5 65.5 Q224 70 218 70 Q212 70 207.5 65.5 Q203 61 203 55 Q203 49 207.5 44.5 Q212 40 218 40 L218 0 L90 0 L90 768 L218 768 L218 472 Q212 472 207.5 467.5 Q203 463 203 457 Z M208 256 Q208 228 218.5 204 Q229 180 247 162 Q265 144 289 133.5 Q313 123 341 123 Q369 123 393 133.5 Q417 144 435 162 Q453 180 463.5 204 Q474 228 474 256 Q474 284 463.5 308 Q453 332 435 350 Q417 368 393 378.5 Q369 389 341 389 Q313 389 289 378.5 Q265 368 247 350 Q229 332 218.5 308 Q208 284 208 256 Z " />
<glyph glyph-name="c" unicode="c" horiz-adv-x="556" d="M185 256 Q185 229 195 206 Q205 183 222.5 165.5 Q240 148 263 138 Q286 128 313 128 Q343 128 369 141 Q395 154 413 176 L511 95 Q476 51 424 25.5 Q372 0 311 0 Q258 0 211 20 Q164 40 129.5 74.5 Q95 109 75 156 Q55 203 55 256 Q55 309 75 356 Q95 403 129.5 437.5 Q164 472 211 492 Q258 512 311 512 Q372 512 424 486.5 Q476 461 511 416 L413 336 Q395 358 369 370.5 Q343 383 313 383 Q286 383 263 373 Q240 363 222.5 346 Q205 329 195 306 Q185 283 185 256 Z " />
<glyph glyph-name="d" unicode="d" horiz-adv-x="657" d="M424 52 Q424 47 427 42 Q371 0 301 0 Q250 0 205 20 Q160 40 127 74.5 Q94 109 74.5 156 Q55 203 55 256 Q55 309 74.5 356 Q94 403 127 437.5 Q160 472 205 492 Q250 512 301 512 Q336 512 368 500.5 Q400 489 427 469 Q424 466 424 460 Q424 454 428.5 449.5 Q433 445 439 445 Q445 445 449.5 449.5 Q454 454 454 460 Q454 466 449.5 470.5 Q445 475 439 475 L439 768 L567 768 L567 0 L439 0 L439 37 Q445 37 449.5 41.5 Q454 46 454 52 Q454 58 449.5 62.5 Q445 67 439 67 Q433 67 428.5 62.5 Q424 58 424 52 Z M183 256 Q183 228 193.5 204 Q204 180 222 162 Q240 144 264 133.5 Q288 123 316 123 Q344 123 368 133.5 Q392 144 410 162 Q428 180 438.5 204 Q449 228 449 256 Q449 284 438.5 308 Q428 332 410 350 Q392 368 368 378.5 Q344 389 316 389 Q288 389 264 378.5 Q240 368 222 350 Q204 332 193.5 308 Q183 284 183 256 Z " />
<glyph glyph-name="e" unicode="e" horiz-adv-x="608" d="M170 208 Q170 202 174.5 197.5 Q179 193 185 193 L187 193 Q197 155 233 132.5 Q269 110 312 110 Q348 110 380.5 124.5 Q413 139 435 164 L529 90 Q491 44 434 18 Q377 -8 311 -8 Q267 -8 221 6.5 Q175 21 137.5 53 Q100 85 76 135 Q52 185 52 256 Q52 313 70.5 361 Q89 409 122.5 444.5 Q156 480 203 499.5 Q250 519 307 519 Q364 519 411.5 499.5 Q459 480 494 445.5 Q529 411 548.5 362.5 Q568 314 568 256 Q568 243 565.5 229.5 Q563 216 560 208 L200 208 Q200 214 195.5 218.5 Q191 223 185 223 Q179 223 174.5 218.5 Q170 214 170 208 Z M170 311 Q170 305 174.5 300.5 Q179 296 185 296 Q191 296 195.5 300.5 Q200 305 200 311 L420 311 Q420 305 424.5 300.5 Q429 296 435 296 Q441 296 445.5 300.5 Q450 305 450 311 Q450 317 445.5 321.5 Q441 326 435 326 Q432 326 431 325 Q421 360 390.5 386.5 Q360 413 309 413 Q258 413 227.5 387 Q197 361 187 326 L185 326 Q179 326 174.5 321.5 Q170 317 170 311 Z " />
<glyph glyph-name="f" unicode="f" horiz-adv-x="426" d="M240 394 Q240 388 244.5 383.5 Q249 379 255 379 L255 0 L127 0 L127 379 Q133 379 137.5 383.5 Q142 388 142 394 Q142 400 137.5 404.5 Q133 409 127 409 Q121 409 116.5 404.5 Q112 400 112 394 L30 394 L30 512 L112 512 Q112 506 116.5 501.5 Q121 497 127 497 Q133 497 137.5 501.5 Q142 506 142 512 Q142 518 137.5 522.5 Q133 527 127 527 L127 640 Q127 680 142 715 Q157 750 183 776 Q209 802 244 817 Q279 832 319 832 Q359 832 394 817 Q429 802 455 776 Q481 750 496 715 Q511 680 511 640 L383 640 Q383 666 364 685 Q345 704 319 704 Q293 704 274 685 Q255 666 255 640 L255 527 Q249 527 244.5 522.5 Q240 518 240 512 Q240 506 244.5 501.5 Q249 497 255 497 Q261 497 265.5 501.5 Q270 506 270 512 L383 512 L383 394 L270 394 Q270 400 265.5 404.5 Q261 409 255 409 Q249 409 244.5 404.5 Q240 400 240 394 Z " />
<glyph glyph-name="g" unicode="g" horiz-adv-x="601" d="M427 486 Q427 480 431.5 475.5 Q436 471 442 471 Q448 471 452.5 475.5 Q457 480 457 486 Q457 489 455 493 Q487 509 517 512.5 Q547 516 579 516 L586 516 L586 399 L503 399 Q503 405 498.5 409.5 Q494 414 488 414 Q482 414 477.5 409.5 Q473 405 473 399 Q473 393 477.5 388.5 Q482 384 488 384 Q491 384 493 385 Q498 363 498 346 Q498 289 472.5 246.5 Q447 204 405.5 180.5 Q364 157 310.5 153 Q257 149 201 168 Q177 168 163.5 157.5 Q150 147 150 131 Q150 114 163.5 103 Q177 92 201 92 L363 92 Q456 92 506 46.5 Q556 1 556 -75 Q556 -115 540 -148 Q524 -181 494 -205 Q464 -229 420 -242.5 Q376 -256 320 -256 Q269 -256 224 -242.5 Q179 -229 145 -206 Q111 -183 91.5 -151.5 Q72 -120 72 -85 L112 -42 Q117 -47 123 -47 Q129 -47 133.5 -42.5 Q138 -38 138 -32 Q138 -26 133.5 -21.5 Q129 -17 123 -17 Q114 -17 109 -26 Q74 -8 52 24 Q30 56 30 97 Q30 131 47.5 166 Q65 201 107 221 Q112 212 121 212 Q127 212 131.5 216.5 Q136 221 136 227 Q136 233 131.5 237.5 Q127 242 121 242 Q116 242 113 239 Q99 263 91.5 290 Q84 317 84 346 Q84 391 100 429 Q116 467 143.5 494.5 Q171 522 209 537.5 Q247 553 291 553 Q332 553 368 537.5 Q404 522 431 496 Q427 492 427 486 Z M201 346 Q201 310 227.5 283.5 Q254 257 291 257 Q309 257 325 264 Q341 271 353.5 283.5 Q366 296 373 312 Q380 328 380 346 Q380 383 353.5 409.5 Q327 436 291 436 Q254 436 227.5 409.5 Q201 383 201 346 Z M164 -32 Q164 -38 168.5 -42.5 Q173 -47 179 -47 L181 -47 Q185 -64 198 -80.5 Q211 -97 230 -109.5 Q249 -122 272 -129.5 Q295 -137 320 -137 Q374 -137 399 -120 Q424 -103 424 -75 Q424 -55 407.5 -43.5 Q391 -32 363 -32 L194 -32 Q194 -26 189.5 -21.5 Q185 -17 179 -17 Q173 -17 168.5 -21.5 Q164 -26 164 -32 Z " />
<glyph glyph-name="h" unicode="h" horiz-adv-x="677" d="M208 450 Q208 444 212.5 439.5 Q217 435 223 435 Q229 435 233.5 439.5 Q238 444 238 450 Q238 454 234 460 Q263 484 297.5 498 Q332 512 371 512 Q420 512 463 492 Q506 472 538 437.5 Q570 403 588.5 356 Q607 309 607 256 L607 0 L479 0 L479 256 Q479 283 469 306 Q459 329 441.5 346.5 Q424 364 401 374 Q378 384 351 384 Q325 384 302.5 374.5 Q280 365 262.5 348.5 Q245 332 234.5 309.5 Q224 287 223 261 L223 0 L95 0 L95 768 L223 768 L223 465 Q217 465 212.5 460.5 Q208 456 208 450 Z " />
<glyph glyph-name="i" unicode="i" horiz-adv-x="344" d="M237 512 L237 0 L107 0 L107 512 L237 512 Z M85 713 Q85 749 110.5 774.5 Q136 800 172 800 Q208 800 233.5 774.5 Q259 749 259 713 Q259 677 233.5 651.5 Q208 626 172 626 Q136 626 110.5 651.5 Q85 677 85 713 Z " />
<glyph glyph-name="j" unicode="j" horiz-adv-x="287" d="M53 713 Q53 749 78.5 774.5 Q104 800 140 800 Q176 800 201.5 774.5 Q227 749 227 713 Q227 677 201.5 651.5 Q176 626 140 626 Q104 626 78.5 651.5 Q53 677 53 713 Z M-52 -64 Q-52 -90 -33 -109 Q-14 -128 12 -128 Q38 -128 57 -109 Q76 -90 76 -64 L76 512 L204 512 L204 -64 Q204 -104 189 -139 Q174 -174 148 -200 Q122 -226 87 -241 Q52 -256 12 -256 Q-28 -256 -63 -241 Q-98 -226 -124 -200 Q-150 -174 -165 -139 Q-180 -104 -180 -64 L-52 -64 Z " />
<glyph glyph-name="k" unicode="k" horiz-adv-x="581" d="M392 256 Q392 250 396.5 245.5 Q401 241 407 241 Q410 241 414 243 L561 0 L418 0 L301 192 L233 192 Q233 198 228.5 202.5 Q224 207 218 207 Q212 207 207.5 202.5 Q203 198 203 192 Q203 186 207.5 181.5 Q212 177 218 177 L218 0 L90 0 L90 768 L218 768 L218 335 Q212 335 207.5 330.5 Q203 326 203 320 Q203 314 207.5 309.5 Q212 305 218 305 Q224 305 228.5 309.5 Q233 314 233 320 L301 320 L418 512 L561 512 L414 268 Q411 271 407 271 Q401 271 396.5 266.5 Q392 262 392 256 Z " />
<glyph glyph-name="l" unicode="l" horiz-adv-x="308" d="M88 0 L88 768 L220 768 L220 0 L88 0 Z " />
<glyph glyph-name="m" unicode="m" horiz-adv-x="960" d="M472 454 Q472 448 476.5 443.5 Q481 439 487 439 Q493 439 497.5 443.5 Q502 448 502 454 Q502 458 498 464 Q533 493 575.5 509 Q618 525 665 525 Q714 525 755 507.5 Q796 490 826 458.5 Q856 427 873 384 Q890 341 890 290 L890 0 L756 0 L756 296 Q756 317 748 335 Q740 353 726 366.5 Q712 380 693.5 388 Q675 396 655 396 Q635 396 617 388.5 Q599 381 585 368 Q571 355 562.5 337.5 Q554 320 554 300 L554 0 L420 0 L420 300 Q420 320 411.5 337.5 Q403 355 389 368 Q375 381 357 388.5 Q339 396 319 396 Q299 396 281 388.5 Q263 381 249 368 Q235 355 226.5 337.5 Q218 320 218 300 L218 0 L90 0 L90 512 L218 512 L218 490 Q212 490 207.5 485.5 Q203 481 203 475 Q203 469 207.5 464.5 Q212 460 218 460 Q224 460 228.5 464.5 Q233 469 233 475 Q233 479 229 485 Q252 503 281 512.5 Q310 522 340 522 Q378 522 414.5 508 Q451 494 477 465 Q472 460 472 454 Z " />
<glyph glyph-name="n" unicode="n" horiz-adv-x="662" d="M203 450 Q203 444 207.5 439.5 Q212 435 218 435 Q224 435 228.5 439.5 Q233 444 233 450 Q233 454 229 460 Q258 484 292.5 498 Q327 512 366 512 Q415 512 458 492 Q501 472 533 437.5 Q565 403 583.5 356 Q602 309 602 256 L602 0 L474 0 L474 256 Q474 283 464 306 Q454 329 436.5 346.5 Q419 364 396 374 Q373 384 346 384 Q320 384 297.5 374.5 Q275 365 257.5 348.5 Q240 332 229.5 309.5 Q219 287 218 261 L218 0 L90 0 L90 512 L218 512 L218 465 Q212 465 207.5 460.5 Q203 456 203 450 Z " />
<glyph glyph-name="o" unicode="o" horiz-adv-x="622" d="M50 256 Q50 310 70.5 358 Q91 406 126 441 Q161 476 209 496.5 Q257 517 311 517 Q365 517 413 496.5 Q461 476 496 441 Q531 406 551.5 358 Q572 310 572 256 Q572 202 551.5 154 Q531 106 496 71 Q461 36 413 15.5 Q365 -5 311 -5 Q257 -5 209 15.5 Q161 36 126 71 Q91 106 70.5 154 Q50 202 50 256 Z M177 256 Q177 229 187.5 204.5 Q198 180 216.5 161.5 Q235 143 259.5 132.5 Q284 122 311 122 Q338 122 362.5 132.5 Q387 143 405.5 161.5 Q424 180 434.5 204.5 Q445 229 445 256 Q445 283 434.5 307.5 Q424 332 405.5 350.5 Q387 369 362.5 379.5 Q338 390 311 390 Q284 390 259.5 379.5 Q235 369 216.5 350.5 Q198 332 187.5 307.5 Q177 283 177 256 Z " />
<glyph glyph-name="p" unicode="p" horiz-adv-x="657" d="M203 62 Q203 56 207.5 51.5 Q212 47 218 47 L218 -256 L90 -256 L90 512 L218 512 L218 463 Q212 463 207.5 458.5 Q203 454 203 448 Q203 442 207.5 437.5 Q212 433 218 433 Q224 433 228.5 437.5 Q233 442 233 448 Q233 453 228 458 Q252 482 282 497 Q312 512 346 512 Q399 512 446 492 Q493 472 527.5 437.5 Q562 403 582 356 Q602 309 602 256 Q602 203 582 156 Q562 109 527.5 74.5 Q493 40 446 20 Q399 0 346 0 Q277 0 228 51 Q233 56 233 62 Q233 68 228.5 72.5 Q224 77 218 77 Q212 77 207.5 72.5 Q203 68 203 62 Z M208 256 Q208 228 218.5 204 Q229 180 247 162 Q265 144 289 133.5 Q313 123 341 123 Q369 123 393 133.5 Q417 144 435 162 Q453 180 463.5 204 Q474 228 474 256 Q474 284 463.5 308 Q453 332 435 350 Q417 368 393 378.5 Q369 389 341 389 Q313 389 289 378.5 Q265 368 247 350 Q229 332 218.5 308 Q208 284 208 256 Z " />
<glyph glyph-name="q" unicode="q" horiz-adv-x="657" d="M424 62 Q424 55 428 51 Q377 0 311 0 Q258 0 211 20 Q164 40 129.5 74.5 Q95 109 75 156 Q55 203 55 256 Q55 309 75 356 Q95 403 129.5 437.5 Q164 472 211 492 Q258 512 311 512 Q344 512 373.5 497 Q403 482 428 458 Q424 454 424 448 Q424 442 428.5 437.5 Q433 433 439 433 Q445 433 449.5 437.5 Q454 442 454 448 Q454 454 449.5 458.5 Q445 463 439 463 L439 512 L567 512 L567 -256 L439 -256 L439 47 Q445 47 449.5 51.5 Q454 56 454 62 Q454 68 449.5 72.5 Q445 77 439 77 Q433 77 428.5 72.5 Q424 68 424 62 Z M183 256 Q183 228 193.5 204 Q204 180 222 162 Q240 144 264 133.5 Q288 123 316 123 Q344 123 368 133.5 Q392 144 410 162 Q428 180 438.5 204 Q449 228 449 256 Q449 284 438.5 308 Q428 332 410 350 Q392 368 368 378.5 Q344 389 316 389 Q288 389 264 378.5 Q240 368 222 350 Q204 332 193.5 308 Q183 284 183 256 Z " />
<glyph glyph-name="r" unicode="r" horiz-adv-x="419" d="M192 446 Q192 440 196.5 435.5 Q201 431 207 431 Q213 431 217.5 435.5 Q222 440 222 446 Q222 450 218 456 Q248 482 285 497 Q322 512 364 512 L399 512 L399 395 L364 395 Q335 395 309.5 384 Q284 373 265.5 354.5 Q247 336 236 310.5 Q225 285 225 256 L225 0 L95 0 L95 512 L207 512 L207 461 Q201 461 196.5 456.5 Q192 452 192 446 Z " />
<glyph glyph-name="s" unicode="s" horiz-adv-x="559" d="M191 369 Q191 355 201.5 347 Q212 339 230 332 Q254 323 288 316 Q322 309 357 298 Q420 278 458 239 Q496 200 496 141 Q496 70 443.5 27.5 Q391 -15 285 -15 Q242 -15 205 -4.5 Q168 6 138.5 23 Q109 40 88 62.5 Q67 85 57 109 L163 159 Q171 144 184.5 132 Q198 120 214.5 111 Q231 102 248.5 97.5 Q266 93 282 93 Q332 93 351.5 108 Q371 123 371 141 Q371 158 359.5 167.5 Q348 177 321 184 Q287 192 242 205 Q197 218 156 235 Q117 252 90 281 Q63 310 63 360 Q63 405 81 436.5 Q99 468 128.5 488 Q158 508 196 517 Q234 526 274 526 Q312 526 349.5 515.5 Q387 505 417 484 Q447 463 465.5 431 Q484 399 484 357 L356 357 Q356 374 348 386 Q340 398 327 405 Q314 412 298.5 415 Q283 418 269 418 Q258 418 244.5 416 Q231 414 219 408.5 Q207 403 199 393.5 Q191 384 191 369 Z " />
<glyph glyph-name="t" unicode="t" horiz-adv-x="404" d="M251 512 Q251 506 255.5 501.5 Q260 497 266 497 Q272 497 276.5 501.5 Q281 506 281 512 L384 512 L384 394 L281 394 Q281 400 276.5 404.5 Q272 409 266 409 Q260 409 255.5 404.5 Q251 400 251 394 Q251 388 255.5 383.5 Q260 379 266 379 L266 0 L138 0 L138 379 Q144 379 148.5 383.5 Q153 388 153 394 Q153 400 148.5 404.5 Q144 409 138 409 Q132 409 127.5 404.5 Q123 400 123 394 L20 394 L20 512 L123 512 Q123 506 127.5 501.5 Q132 497 138 497 Q144 497 148.5 501.5 Q153 506 153 512 Q153 518 148.5 522.5 Q144 527 138 527 L138 640 L266 640 L266 527 Q260 527 255.5 522.5 Q251 518 251 512 Z " />
<glyph glyph-name="u" unicode="u" horiz-adv-x="662" d="M429 62 Q429 55 433 52 Q404 28 369.5 14 Q335 0 296 0 Q247 0 204 20 Q161 40 129 74.5 Q97 109 78.5 156 Q60 203 60 256 L60 512 L193 512 L193 251 Q193 224 202 201 Q211 178 227.5 160.5 Q244 143 266.5 133 Q289 123 316 123 Q342 123 365 132.5 Q388 142 405 158.5 Q422 175 432.5 197.5 Q443 220 444 246 L444 512 L576 512 L576 0 L444 0 L444 47 Q450 47 454.5 51.5 Q459 56 459 62 Q459 68 454.5 72.5 Q450 77 444 77 Q438 77 433.5 72.5 Q429 68 429 62 Z " />
<glyph glyph-name="v" unicode="v" horiz-adv-x="579" d="M275 118 Q275 112 279.5 107.5 Q284 103 290 103 Q296 103 300.5 107.5 Q305 112 305 118 Q305 127 296 131 L414 512 L559 512 L379 0 L200 0 L20 512 L165 512 L283 131 Q275 126 275 118 Z " />
<glyph glyph-name="w" unicode="w" horiz-adv-x="784" d="M540 118 Q540 112 544.5 107.5 Q549 103 555 103 Q561 103 565.5 107.5 Q570 112 570 118 Q570 128 560 131 L632 512 L770 512 L658 0 L466 0 L401 283 Q408 288 408 296 Q408 302 403.5 306.5 Q399 311 393 311 Q387 311 382.5 306.5 Q378 302 378 296 Q378 288 385 283 L320 0 L128 0 L16 512 L154 512 L225 131 Q216 127 216 118 Q216 112 220.5 107.5 Q225 103 231 103 Q237 103 241.5 107.5 Q246 112 246 118 Q246 127 237 131 L325 512 L461 512 L549 131 Q540 127 540 118 Z " />
<glyph glyph-name="x" unicode="x" horiz-adv-x="541" d="M255 144 Q255 137 261 132 L172 0 L26 0 L200 255 L26 512 L171 512 L261 378 Q255 374 255 366 Q255 360 259.5 355.5 Q264 351 270 351 Q276 351 280.5 355.5 Q285 360 285 366 Q285 373 278 378 L370 512 L515 512 L340 255 L515 0 L369 0 L278 132 Q285 137 285 144 Q285 150 280.5 154.5 Q276 159 270 159 Q264 159 259.5 154.5 Q255 150 255 144 Z " />
<glyph glyph-name="y" unicode="y" horiz-adv-x="579" d="M274 138 Q274 132 278.5 127.5 Q283 123 289 123 Q295 123 299.5 127.5 Q304 132 304 138 Q304 146 296 151 L414 512 L559 512 L354 -47 L354 -256 L226 -256 L226 -50 L20 512 L165 512 L282 151 Q274 148 274 138 Z " />
<glyph glyph-name="z" unicode="z" horiz-adv-x="519" d="M236 118 Q236 112 240.5 107.5 Q245 103 251 103 Q257 103 261.5 107.5 Q266 112 266 118 L464 118 L464 0 L65 0 L50 25 L261 381 Q265 379 269 379 Q275 379 279.5 383.5 Q284 388 284 394 Q284 400 279.5 404.5 Q275 409 269 409 Q263 409 258.5 404.5 Q254 400 254 394 L66 394 L66 512 L455 512 L469 487 L258 130 Q255 133 251 133 Q245 133 240.5 128.5 Q236 124 236 118 Z " />
<glyph glyph-name="braceleft" unicode="&#x7b;" horiz-adv-x="574" d="M252 384 Q252 378 256.5 373.5 Q261 369 267 369 Q273 369 277 373 Q312 338 331.5 291 Q351 244 351 190 L351 133 Q351 106 361 83 Q371 60 388.5 42.5 Q406 25 429 15 Q452 5 479 5 L479 -128 Q425 -128 378 -107.5 Q331 -87 296.5 -52 Q262 -17 242.5 31 Q223 79 223 133 L223 190 Q223 216 213.5 239 Q204 262 187.5 279 Q171 296 149 306.5 Q127 317 101 318 L95 318 L95 451 L101 451 Q127 452 149 462.5 Q171 473 187.5 490.5 Q204 508 213.5 530.5 Q223 553 223 579 L223 635 Q223 689 242.5 737 Q262 785 296.5 820 Q331 855 378 875.5 Q425 896 479 896 L479 763 Q452 763 429 753 Q406 743 388.5 725.5 Q371 708 361 685 Q351 662 351 635 L351 579 Q351 524 331.5 476.5 Q312 429 277 394 Q272 399 267 399 Q261 399 256.5 394.5 Q252 390 252 384 Z " />
<glyph glyph-name="bar" unicode="&#x7c;" horiz-adv-x="318" d="M95 896 L223 896 L223 -128 L95 -128 L95 896 Z " />
<glyph glyph-name="braceright" unicode="&#x7d;" horiz-adv-x="574" d="M95 5 Q122 5 145 15 Q168 25 185.5 42.5 Q203 60 213 83 Q223 106 223 133 L223 190 Q223 244 242 291 Q261 338 296 373 Q300 369 307 369 Q313 369 317.5 373.5 Q322 378 322 384 Q322 390 317.5 394.5 Q313 399 307 399 Q301 399 296 394 Q261 429 242 476.5 Q223 524 223 579 L223 635 Q223 662 213 685 Q203 708 185.5 725.5 Q168 743 145 753 Q122 763 95 763 L95 896 Q149 896 196 875.5 Q243 855 277.5 820 Q312 785 331.5 737 Q351 689 351 635 L351 579 Q351 553 360.5 530.5 Q370 508 386.5 490.5 Q403 473 425.5 462.5 Q448 452 473 451 L479 451 L479 318 L473 318 Q448 317 425.5 306.5 Q403 296 386.5 279 Q370 262 360.5 239 Q351 216 351 190 L351 133 Q351 79 331.5 31 Q312 -17 277.5 -52 Q243 -87 196 -107.5 Q149 -128 95 -128 L95 5 Z " />
<glyph glyph-name="asciitilde" unicode="&#x7e;" horiz-adv-x="571" d="M369 337 Q399 337 425.5 325.5 Q452 314 473 294.5 Q494 275 507 248.5 Q520 222 521 192 L419 192 Q419 214 404.5 228.5 Q390 243 369 243 Q351 243 336 231 Q321 219 303.5 204 Q286 189 262.5 177 Q239 165 203 165 Q173 165 145.5 176.5 Q118 188 97 207.5 Q76 227 63.5 253.5 Q51 280 50 310 L152 310 Q152 288 166.5 273.5 Q181 259 203 259 Q221 259 235.5 271 Q250 283 268 298 Q286 313 309.5 325 Q333 337 369 337 Z " />
<glyph glyph-name="exclamdown" unicode="&#xa1;" horiz-adv-x="344" d="M237 480 L237 0 L107 0 L107 480 L237 480 Z M259 681 Q259 645 233.5 619.5 Q208 594 172 594 Q136 594 110.5 619.5 Q85 645 85 681 Q85 717 110.5 742.5 Q136 768 172 768 Q208 768 233.5 742.5 Q259 717 259 681 Z " />
<glyph glyph-name="cent" unicode="&#xa2;" horiz-adv-x="556" d="M362 504 Q362 498 366.5 493.5 Q371 489 377 489 Q388 489 391 499 Q463 475 511 416 L411 336 Q393 358 367 371 Q341 384 311 384 Q284 384 261 374 Q238 364 220.5 346.5 Q203 329 193 306 Q183 283 183 256 Q183 229 193 206 Q203 183 220.5 165.5 Q238 148 261 138 Q284 128 311 128 Q341 128 367 141 Q393 154 411 176 L511 95 Q463 36 391 12 Q387 23 377 23 Q371 23 366.5 18.5 Q362 14 362 8 Q362 2 366.5 -2.5 Q371 -7 377 -7 L377 -128 L240 -128 L240 -5 Q246 -5 250.5 -0.5 Q255 4 255 10 Q255 16 250.5 20.5 Q246 25 240 25 Q229 25 225 14 Q188 27 156.5 51 Q125 75 102.5 106.5 Q80 138 67.5 176 Q55 214 55 256 Q55 298 67.5 336 Q80 374 102.5 405.5 Q125 437 156.5 460.5 Q188 484 225 497 Q228 487 240 487 Q246 487 250.5 491.5 Q255 496 255 502 Q255 508 250.5 512.5 Q246 517 240 517 L240 640 L377 640 L377 519 Q371 519 366.5 514.5 Q362 510 362 504 Z " />
<glyph glyph-name="sterling" unicode="&#xa3;" horiz-adv-x="570" d="M254 117 Q254 111 258.5 106.5 Q263 102 269 102 Q275 102 279.5 106.5 Q284 111 284 117 L525 117 L525 0 L141 0 L141 305 Q147 305 151.5 309.5 Q156 314 156 320 Q156 326 151.5 330.5 Q147 335 141 335 Q135 335 130.5 330.5 Q126 326 126 320 L45 320 L45 438 L126 438 Q126 432 130.5 427.5 Q135 423 141 423 Q147 423 151.5 427.5 Q156 432 156 438 Q156 444 151.5 448.5 Q147 453 141 453 L141 576 Q141 616 156 651 Q171 686 197 712 Q223 738 258 753 Q293 768 333 768 Q373 768 408 753 Q443 738 469 712 Q495 686 510 651 Q525 616 525 576 L397 576 Q397 602 378 621 Q359 640 333 640 Q307 640 288 621 Q269 602 269 576 L269 453 Q263 453 258.5 448.5 Q254 444 254 438 Q254 432 258.5 427.5 Q263 423 269 423 Q275 423 279.5 427.5 Q284 432 284 438 L525 438 L525 320 L284 320 Q284 326 279.5 330.5 Q275 335 269 335 Q263 335 258.5 330.5 Q254 326 254 320 Q254 314 258.5 309.5 Q263 305 269 305 L269 132 Q263 132 258.5 127.5 Q254 123 254 117 Z " />
<glyph glyph-name="yen" unicode="&#xa5;" horiz-adv-x="593" d="M424 404 Q424 398 428.5 393.5 Q433 389 439 389 Q445 389 449.5 393.5 Q454 398 454 404 L516 404 L516 286 L406 286 Q406 292 401.5 296.5 Q397 301 391 301 Q385 301 380.5 296.5 Q376 292 376 286 Q376 277 385 272 L366 225 Q364 227 361 227 Q355 227 350.5 222.5 Q346 218 346 212 Q346 206 350.5 201.5 Q355 197 361 197 Q367 197 371.5 201.5 Q376 206 376 212 L516 212 L516 94 L376 94 Q376 100 371.5 104.5 Q367 109 361 109 Q355 109 350.5 104.5 Q346 100 346 94 Q346 88 350.5 83.5 Q355 79 361 79 L361 0 L233 0 L233 79 Q239 79 243.5 83.5 Q248 88 248 94 Q248 100 243.5 104.5 Q239 109 233 109 Q227 109 222.5 104.5 Q218 100 218 94 L77 94 L77 212 L218 212 Q218 206 222.5 201.5 Q227 197 233 197 Q239 197 243.5 201.5 Q248 206 248 212 Q248 218 243.5 222.5 Q239 227 233 227 Q231 227 227 225 L208 272 Q218 275 218 286 Q218 292 213.5 296.5 Q209 301 203 301 Q197 301 192.5 296.5 Q188 292 188 286 L77 286 L77 404 L140 404 Q140 398 144.5 393.5 Q149 389 155 389 Q161 389 165.5 393.5 Q170 398 170 404 Q170 410 165.5 414.5 Q161 419 155 419 Q153 419 149 417 L20 735 L161 735 L291 404 Q282 399 282 390 Q282 384 286.5 379.5 Q291 375 297 375 Q303 375 307.5 379.5 Q312 384 312 390 Q312 399 302 404 L433 735 L573 735 L444 417 Q442 419 439 419 Q433 419 428.5 414.5 Q424 410 424 404 Z " />
<glyph glyph-name="brokenbar" unicode="&#xa6;" horiz-adv-x="318" d="M95 320 L223 320 L223 -128 L95 -128 L95 320 Z M223 448 L95 448 L95 896 L223 896 L223 448 Z " />
<glyph glyph-name="dieresis" unicode="&#xa8;" horiz-adv-x="412" d="M0 663 Q0 699 25.5 724.5 Q51 750 87 750 Q123 750 148.5 724.5 Q174 699 174 663 Q174 627 148.5 601.5 Q123 576 87 576 Q51 576 25.5 601.5 Q0 627 0 663 Z M238 663 Q238 699 263.5 724.5 Q289 750 325 750 Q361 750 386.5 724.5 Q412 699 412 663 Q412 627 386.5 601.5 Q361 576 325 576 Q289 576 263.5 601.5 Q238 627 238 663 Z " />
<glyph glyph-name="copyright" unicode="&#xa9;" horiz-adv-x="796" d="M316 367 Q316 331 341 306 Q366 281 403 281 Q445 281 473 314 L543 256 Q518 225 482 207 Q446 189 403 189 Q366 189 333.5 203 Q301 217 277 241 Q253 265 239 297.5 Q225 330 225 367 Q225 405 239 438 Q253 471 277 495 Q301 519 333.5 533 Q366 547 403 547 Q446 547 482 529 Q518 511 543 480 L473 422 Q445 455 403 455 Q366 455 341 430 Q316 405 316 367 Z M30 367 Q30 444 59 511 Q88 578 138 628 Q188 678 254.5 707 Q321 736 397 736 Q474 736 541 707 Q608 678 658 628 Q708 578 737 511 Q766 444 766 367 Q766 291 737 224.5 Q708 158 658 108 Q608 58 541 29 Q474 0 397 0 Q321 0 254.5 29 Q188 58 138 108 Q88 158 59 224.5 Q30 291 30 367 Z M118 367 Q118 309 140 258.5 Q162 208 200 170 Q238 132 288.5 110 Q339 88 397 88 Q456 88 507 110 Q558 132 596 170 Q634 208 656 258.5 Q678 309 678 367 Q678 426 656 477 Q634 528 596 566 Q558 604 507 626 Q456 648 397 648 Q339 648 288.5 626 Q238 604 200 566 Q162 528 140 477 Q118 426 118 367 Z " />
<glyph glyph-name="guillemotleft" unicode="&#xab;" horiz-adv-x="851" d="M541 256 Q541 250 545.5 245.5 Q550 241 556 241 Q562 241 566 245 L801 11 L797 0 L640 0 L384 256 L640 512 L797 512 L801 501 L566 266 Q561 271 556 271 Q550 271 545.5 266.5 Q541 262 541 256 Z M187 256 Q187 250 191.5 245.5 Q196 241 202 241 Q208 241 212 245 L447 11 L443 0 L286 0 L30 256 L286 512 L443 512 L447 501 L212 266 Q207 271 202 271 Q196 271 191.5 266.5 Q187 262 187 256 Z " />
<glyph glyph-name="registered" unicode="&#xae;" horiz-adv-x="796" d="M30 369 Q30 445 59 511.5 Q88 578 138 628 Q188 678 255.5 707 Q323 736 399 736 Q475 736 541.5 707 Q608 678 658 628 Q708 578 737 511.5 Q766 445 766 369 Q766 293 737 225.5 Q708 158 658 108 Q608 58 541.5 29 Q475 0 399 0 Q323 0 255.5 29 Q188 58 138 108 Q88 158 59 225.5 Q30 293 30 369 Z M117 369 Q117 311 139 259.5 Q161 208 199.5 169.5 Q238 131 289.5 109 Q341 87 399 87 Q457 87 508 109 Q559 131 597 169.5 Q635 208 657 259.5 Q679 311 679 369 Q679 428 657 479 Q635 530 597 567.5 Q559 605 508 627 Q457 649 399 649 Q341 649 289.5 627 Q238 605 199.5 567.5 Q161 530 139 479 Q117 428 117 369 Z M488 298 Q488 292 492.5 287.5 Q497 283 503 283 Q505 283 509 285 L557 188 L462 188 L418 279 L375 279 Q375 285 370.5 289.5 Q366 294 360 294 Q354 294 349.5 289.5 Q345 285 345 279 Q345 273 349.5 268.5 Q354 264 360 264 L360 188 L269 188 L269 548 L434 548 Q462 548 486 537.5 Q510 527 528 508.5 Q546 490 556.5 465.5 Q567 441 567 413 Q567 380 553 352 Q539 324 515 306 Q512 313 503 313 Q497 313 492.5 308.5 Q488 304 488 298 Z M345 369 Q345 363 349.5 358.5 Q354 354 360 354 Q366 354 370.5 358.5 Q375 363 375 369 L434 369 Q453 369 465.5 381.5 Q478 394 478 413 Q478 432 465.5 445 Q453 458 434 458 L375 458 Q375 464 370.5 468.5 Q366 473 360 473 Q354 473 349.5 468.5 Q345 464 345 458 Q345 452 349.5 447.5 Q354 443 360 443 L360 384 Q354 384 349.5 379.5 Q345 375 345 369 Z " />
<glyph glyph-name="macron" unicode="&#xaf;" horiz-adv-x="312" d="M312 576 L0 576 L0 654 L312 654 L312 576 Z " />
<glyph glyph-name="degree" unicode="&#xb0;" horiz-adv-x="252" d="M30 638 Q30 678 58 706 Q86 734 126 734 Q166 734 194 706 Q222 678 222 638 Q222 598 194 570 Q166 542 126 542 Q86 542 58 570 Q30 598 30 638 Z M94 638 Q94 624 103 615 Q112 606 126 606 Q140 606 149 615 Q158 624 158 638 Q158 652 149 661 Q140 670 126 670 Q112 670 103 661 Q94 652 94 638 Z " />
<glyph glyph-name="acute" unicode="&#xb4;" horiz-adv-x="202" d="M40 565 L7 598 Q43 648 63.5 676 Q84 704 94.5 718 Q105 732 108 736 Q111 740 113 741 Q128 756 148 756 Q168 756 183 741 Q198 726 198 706 Q198 686 183 671 L40 565 Z " />
<glyph glyph-name="cedilla" unicode="&#xb8;" horiz-adv-x="164" d="M36 64 L100 64 L100 -5 Q128 -15 146 -39.5 Q164 -64 164 -96 Q164 -136 136 -164 Q108 -192 68 -192 Q48 -192 31 -184.5 Q14 -177 0 -164 L46 -120 Q56 -128 68 -128 Q82 -128 91 -119 Q100 -110 100 -96 Q100 -82 91 -73 Q82 -64 68 -64 Q54 -64 45 -73 L0 -28 Q16 -11 36 -5 L36 64 Z " />
<glyph glyph-name="guillemotright" unicode="&#xbb;" horiz-adv-x="851" d="M211 0 L54 0 L50 11 L284 245 Q288 241 295 241 Q301 241 305.5 245.5 Q310 250 310 256 Q310 262 305.5 266.5 Q301 271 295 271 Q289 271 284 266 L50 501 L54 512 L211 512 L467 256 L211 0 Z M565 0 L408 0 L404 11 L638 245 Q642 241 649 241 Q655 241 659.5 245.5 Q664 250 664 256 Q664 262 659.5 266.5 Q655 271 649 271 Q643 271 638 266 L404 501 L408 512 L565 512 L821 256 L565 0 Z " />
<glyph glyph-name="questiondown" unicode="&#xbf;" horiz-adv-x="592" d="M338 389 L281 389 Q254 389 231 379 Q208 369 190.5 351.5 Q173 334 163 311 Q153 288 153 261 Q153 234 163 211 Q173 188 190.5 170.5 Q208 153 231 143 Q254 133 281 133 Q308 133 331 143 Q354 153 371.5 170.5 Q389 188 399 211 Q409 234 409 261 L542 261 Q542 207 521.5 159 Q501 111 466 76 Q431 41 383 20.5 Q335 0 281 0 Q227 0 179 20.5 Q131 41 96 76 Q61 111 40.5 159 Q20 207 20 261 Q20 315 40.5 363 Q61 411 96 446 Q131 481 179 501.5 Q227 522 281 522 L338 522 L338 389 Z M360 681 Q360 645 334.5 619.5 Q309 594 273 594 Q237 594 211.5 619.5 Q186 645 186 681 Q186 717 211.5 742.5 Q237 768 273 768 Q309 768 334.5 742.5 Q360 717 360 681 Z " />
<glyph glyph-name="Agrave" unicode="&#xc0;" horiz-adv-x="744" d="M214 894 Q199 909 199 929 Q199 949 214 964 Q229 979 249 979 Q269 979 284 964 Q286 963 289 959 Q292 955 302.5 941 Q313 927 333.5 899 Q354 871 390 821 L357 788 L214 894 Z M204 138 Q204 129 213 124 L161 0 L17 0 L314 735 L429 735 L727 0 L583 0 L530 124 Q539 129 539 138 Q539 144 534.5 148.5 Q530 153 524 153 Q518 153 513.5 148.5 Q509 144 509 138 L234 138 Q234 144 229.5 148.5 Q225 153 219 153 Q213 153 208.5 148.5 Q204 144 204 138 Z M357 543 Q357 533 366 529 L268 270 Q267 270 266 270.5 Q265 271 263 271 Q257 271 252.5 266.5 Q248 262 248 256 Q248 250 252.5 245.5 Q257 241 263 241 Q269 241 273.5 245.5 Q278 250 278 256 L466 256 Q466 250 470.5 245.5 Q475 241 481 241 Q487 241 491.5 245.5 Q496 250 496 256 Q496 262 491.5 266.5 Q487 271 481 271 Q479 271 478 270.5 Q477 270 475 270 L377 529 Q387 533 387 543 Q387 549 382.5 553.5 Q378 558 372 558 Q366 558 361.5 553.5 Q357 549 357 543 Z " />
<glyph glyph-name="Aacute" unicode="&#xc1;" horiz-adv-x="744" d="M387 788 L354 821 Q390 871 410.5 899 Q431 927 441.5 941 Q452 955 455 959 Q458 963 460 964 Q475 979 495 979 Q515 979 530 964 Q545 949 545 929 Q545 909 530 894 L387 788 Z M204 138 Q204 129 213 124 L161 0 L17 0 L314 735 L429 735 L727 0 L583 0 L530 124 Q539 129 539 138 Q539 144 534.5 148.5 Q530 153 524 153 Q518 153 513.5 148.5 Q509 144 509 138 L234 138 Q234 144 229.5 148.5 Q225 153 219 153 Q213 153 208.5 148.5 Q204 144 204 138 Z M357 543 Q357 533 366 529 L268 270 Q267 270 266 270.5 Q265 271 263 271 Q257 271 252.5 266.5 Q248 262 248 256 Q248 250 252.5 245.5 Q257 241 263 241 Q269 241 273.5 245.5 Q278 250 278 256 L466 256 Q466 250 470.5 245.5 Q475 241 481 241 Q487 241 491.5 245.5 Q496 250 496 256 Q496 262 491.5 266.5 Q487 271 481 271 Q479 271 478 270.5 Q477 270 475 270 L377 529 Q387 533 387 543 Q387 549 382.5 553.5 Q378 558 372 558 Q366 558 361.5 553.5 Q357 549 357 543 Z " />
<glyph glyph-name="Acircumflex" unicode="&#xc2;" horiz-adv-x="744" d="M371 878 L281 787 L236 832 L372 968 L508 832 L463 787 L371 878 Z M204 138 Q204 129 213 124 L161 0 L17 0 L314 735 L429 735 L727 0 L583 0 L530 124 Q539 129 539 138 Q539 144 534.5 148.5 Q530 153 524 153 Q518 153 513.5 148.5 Q509 144 509 138 L234 138 Q234 144 229.5 148.5 Q225 153 219 153 Q213 153 208.5 148.5 Q204 144 204 138 Z M357 543 Q357 533 366 529 L268 270 Q267 270 266 270.5 Q265 271 263 271 Q257 271 252.5 266.5 Q248 262 248 256 Q248 250 252.5 245.5 Q257 241 263 241 Q269 241 273.5 245.5 Q278 250 278 256 L466 256 Q466 250 470.5 245.5 Q475 241 481 241 Q487 241 491.5 245.5 Q496 250 496 256 Q496 262 491.5 266.5 Q487 271 481 271 Q479 271 478 270.5 Q477 270 475 270 L377 529 Q387 533 387 543 Q387 549 382.5 553.5 Q378 558 372 558 Q366 558 361.5 553.5 Q357 549 357 543 Z " />
<glyph glyph-name="Atilde" unicode="&#xc3;" horiz-adv-x="744" d="M424 907 Q462 907 490 880.5 Q518 854 520 816 L456 816 Q456 830 447 839 Q438 848 424 848 Q413 848 403.5 840.5 Q394 833 383 823.5 Q372 814 357.5 806.5 Q343 799 320 799 Q282 799 254 825.5 Q226 852 224 890 L288 890 Q288 876 297 867 Q306 858 320 858 Q331 858 340.5 865.5 Q350 873 361 882.5 Q372 892 387 899.5 Q402 907 424 907 Z M204 138 Q204 129 213 124 L161 0 L17 0 L314 735 L429 735 L727 0 L583 0 L530 124 Q539 129 539 138 Q539 144 534.5 148.5 Q530 153 524 153 Q518 153 513.5 148.5 Q509 144 509 138 L234 138 Q234 144 229.5 148.5 Q225 153 219 153 Q213 153 208.5 148.5 Q204 144 204 138 Z M357 543 Q357 533 366 529 L268 270 Q267 270 266 270.5 Q265 271 263 271 Q257 271 252.5 266.5 Q248 262 248 256 Q248 250 252.5 245.5 Q257 241 263 241 Q269 241 273.5 245.5 Q278 250 278 256 L466 256 Q466 250 470.5 245.5 Q475 241 481 241 Q487 241 491.5 245.5 Q496 250 496 256 Q496 262 491.5 266.5 Q487 271 481 271 Q479 271 478 270.5 Q477 270 475 270 L377 529 Q387 533 387 543 Q387 549 382.5 553.5 Q378 558 372 558 Q366 558 361.5 553.5 Q357 549 357 543 Z " />
<glyph glyph-name="Adieresis" unicode="&#xc4;" horiz-adv-x="744" d="M166 886 Q166 922 191.5 947.5 Q217 973 253 973 Q289 973 314.5 947.5 Q340 922 340 886 Q340 850 314.5 824.5 Q289 799 253 799 Q217 799 191.5 824.5 Q166 850 166 886 Z M404 886 Q404 922 429.5 947.5 Q455 973 491 973 Q527 973 552.5 947.5 Q578 922 578 886 Q578 850 552.5 824.5 Q527 799 491 799 Q455 799 429.5 824.5 Q404 850 404 886 Z M204 138 Q204 129 213 124 L161 0 L17 0 L314 735 L429 735 L727 0 L583 0 L530 124 Q539 129 539 138 Q539 144 534.5 148.5 Q530 153 524 153 Q518 153 513.5 148.5 Q509 144 509 138 L234 138 Q234 144 229.5 148.5 Q225 153 219 153 Q213 153 208.5 148.5 Q204 144 204 138 Z M357 543 Q357 533 366 529 L268 270 Q267 270 266 270.5 Q265 271 263 271 Q257 271 252.5 266.5 Q248 262 248 256 Q248 250 252.5 245.5 Q257 241 263 241 Q269 241 273.5 245.5 Q278 250 278 256 L466 256 Q466 250 470.5 245.5 Q475 241 481 241 Q487 241 491.5 245.5 Q496 250 496 256 Q496 262 491.5 266.5 Q487 271 481 271 Q479 271 478 270.5 Q477 270 475 270 L377 529 Q387 533 387 543 Q387 549 382.5 553.5 Q378 558 372 558 Q366 558 361.5 553.5 Q357 549 357 543 Z " />
<glyph glyph-name="Aring" unicode="&#xc5;" horiz-adv-x="744" d="M276 895 Q276 935 304 963 Q332 991 372 991 Q412 991 440 963 Q468 935 468 895 Q468 855 440 827 Q412 799 372 799 Q332 799 304 827 Q276 855 276 895 Z M340 895 Q340 881 349 872 Q358 863 372 863 Q386 863 395 872 Q404 881 404 895 Q404 909 395 918 Q386 927 372 927 Q358 927 349 918 Q340 909 340 895 Z M204 138 Q204 129 213 124 L161 0 L17 0 L314 735 L429 735 L727 0 L583 0 L530 124 Q539 129 539 138 Q539 144 534.5 148.5 Q530 153 524 153 Q518 153 513.5 148.5 Q509 144 509 138 L234 138 Q234 144 229.5 148.5 Q225 153 219 153 Q213 153 208.5 148.5 Q204 144 204 138 Z M357 543 Q357 533 366 529 L268 270 Q267 270 266 270.5 Q265 271 263 271 Q257 271 252.5 266.5 Q248 262 248 256 Q248 250 252.5 245.5 Q257 241 263 241 Q269 241 273.5 245.5 Q278 250 278 256 L466 256 Q466 250 470.5 245.5 Q475 241 481 241 Q487 241 491.5 245.5 Q496 250 496 256 Q496 262 491.5 266.5 Q487 271 481 271 Q479 271 478 270.5 Q477 270 475 270 L377 529 Q387 533 387 543 Q387 549 382.5 553.5 Q378 558 372 558 Q366 558 361.5 553.5 Q357 549 357 543 Z " />
<glyph glyph-name="AE" unicode="&#xc6;" horiz-adv-x="925" d="M544 118 Q544 112 548.5 107.5 Q553 103 559 103 Q565 103 569.5 107.5 Q574 112 574 118 L870 118 L870 0 L417 0 L417 123 Q423 123 427.5 127.5 Q432 132 432 138 Q432 144 427.5 148.5 Q423 153 417 153 Q411 153 406.5 148.5 Q402 144 402 138 L234 138 Q234 144 229.5 148.5 Q225 153 219 153 Q213 153 208.5 148.5 Q204 144 204 138 Q204 129 213 124 L161 0 L17 0 L314 735 L870 735 L870 617 L574 617 Q574 623 569.5 627.5 Q565 632 559 632 Q553 632 548.5 627.5 Q544 623 544 617 Q544 611 548.5 606.5 Q553 602 559 602 L559 445 Q553 445 548.5 440.5 Q544 436 544 430 Q544 424 548.5 419.5 Q553 415 559 415 Q565 415 569.5 419.5 Q574 424 574 430 L870 430 L870 313 L574 313 Q574 319 569.5 323.5 Q565 328 559 328 Q553 328 548.5 323.5 Q544 319 544 313 Q544 307 548.5 302.5 Q553 298 559 298 L559 133 Q553 133 548.5 128.5 Q544 124 544 118 Z M387 617 Q387 607 396 603 L268 270 Q267 270 266 270.5 Q265 271 263 271 Q257 271 252.5 266.5 Q248 262 248 256 Q248 250 252.5 245.5 Q257 241 263 241 Q269 241 273.5 245.5 Q278 250 278 256 L402 256 Q402 250 406.5 245.5 Q411 241 417 241 Q423 241 427.5 245.5 Q432 250 432 256 Q432 262 427.5 266.5 Q423 271 417 271 L417 617 Q417 623 412.5 627.5 Q408 632 402 632 Q396 632 391.5 627.5 Q387 623 387 617 Z " />
<glyph glyph-name="Ccedilla" unicode="&#xc7;" horiz-adv-x="732" d="M439 -16 Q439 -22 443.5 -26.5 Q448 -31 454 -31 Q461 -31 465 -25 Q488 -37 503 -60 Q518 -83 518 -112 Q518 -152 490 -180 Q462 -208 422 -208 Q402 -208 385 -200.5 Q368 -193 354 -180 L400 -136 Q410 -144 422 -144 Q436 -144 445 -135 Q454 -126 454 -112 Q454 -98 445 -89 Q436 -80 422 -80 Q408 -80 399 -89 L354 -44 Q366 -31 380 -25 Q384 -29 390 -29 Q396 -29 400.5 -24.5 Q405 -20 405 -14 Q405 -8 400.5 -3.5 Q396 1 390 1 Q382 1 377 -6 Q309 4 250 36.5 Q191 69 147.5 119 Q104 169 79.5 232.5 Q55 296 55 367 Q55 445 85 514 Q115 583 166 634.5 Q217 686 286 716 Q355 746 433 746 Q511 746 579.5 716.5 Q648 687 700 636 L610 541 Q576 573 532.5 593.5 Q489 614 439 614 Q388 614 342.5 594.5 Q297 575 263.5 541.5 Q230 508 210.5 463 Q191 418 191 367 Q191 316 210.5 271.5 Q230 227 263.5 193 Q297 159 342.5 139.5 Q388 120 439 120 Q489 120 532.5 140.5 Q576 161 611 194 L700 99 Q654 53 595 25 Q536 -3 467 -9 Q462 -1 454 -1 Q448 -1 443.5 -5.5 Q439 -10 439 -16 Z " />
<glyph glyph-name="Egrave" unicode="&#xc8;" horiz-adv-x="603" d="M173 894 Q158 909 158 929 Q158 949 173 964 Q188 979 208 979 Q228 979 243 964 Q245 963 248 959 Q251 955 261.5 941 Q272 927 292.5 899 Q313 871 349 821 L316 788 L173 894 Z M222 118 Q222 112 226.5 107.5 Q231 103 237 103 Q243 103 247.5 107.5 Q252 112 252 118 L548 118 L548 0 L95 0 L95 735 L548 735 L548 617 L252 617 Q252 623 247.5 627.5 Q243 632 237 632 Q231 632 226.5 627.5 Q222 623 222 617 Q222 611 226.5 606.5 Q231 602 237 602 L237 445 Q231 445 226.5 440.5 Q222 436 222 430 Q222 424 226.5 419.5 Q231 415 237 415 Q243 415 247.5 419.5 Q252 424 252 430 L548 430 L548 313 L252 313 Q252 319 247.5 323.5 Q243 328 237 328 Q231 328 226.5 323.5 Q222 319 222 313 Q222 307 226.5 302.5 Q231 298 237 298 L237 133 Q231 133 226.5 128.5 Q222 124 222 118 Z " />
<glyph glyph-name="Eacute" unicode="&#xc9;" horiz-adv-x="603" d="M316 788 L283 821 Q319 871 339.5 899 Q360 927 370.5 941 Q381 955 384 959 Q387 963 389 964 Q404 979 424 979 Q444 979 459 964 Q474 949 474 929 Q474 909 459 894 L316 788 Z M222 118 Q222 112 226.5 107.5 Q231 103 237 103 Q243 103 247.5 107.5 Q252 112 252 118 L548 118 L548 0 L95 0 L95 735 L548 735 L548 617 L252 617 Q252 623 247.5 627.5 Q243 632 237 632 Q231 632 226.5 627.5 Q222 623 222 617 Q222 611 226.5 606.5 Q231 602 237 602 L237 445 Q231 445 226.5 440.5 Q222 436 222 430 Q222 424 226.5 419.5 Q231 415 237 415 Q243 415 247.5 419.5 Q252 424 252 430 L548 430 L548 313 L252 313 Q252 319 247.5 323.5 Q243 328 237 328 Q231 328 226.5 323.5 Q222 319 222 313 Q222 307 226.5 302.5 Q231 298 237 298 L237 133 Q231 133 226.5 128.5 Q222 124 222 118 Z " />
<glyph glyph-name="Ecircumflex" unicode="&#xca;" horiz-adv-x="603" d="M330 878 L240 787 L195 832 L331 968 L467 832 L422 787 L330 878 Z M222 118 Q222 112 226.5 107.5 Q231 103 237 103 Q243 103 247.5 107.5 Q252 112 252 118 L548 118 L548 0 L95 0 L95 735 L548 735 L548 617 L252 617 Q252 623 247.5 627.5 Q243 632 237 632 Q231 632 226.5 627.5 Q222 623 222 617 Q222 611 226.5 606.5 Q231 602 237 602 L237 445 Q231 445 226.5 440.5 Q222 436 222 430 Q222 424 226.5 419.5 Q231 415 237 415 Q243 415 247.5 419.5 Q252 424 252 430 L548 430 L548 313 L252 313 Q252 319 247.5 323.5 Q243 328 237 328 Q231 328 226.5 323.5 Q222 319 222 313 Q222 307 226.5 302.5 Q231 298 237 298 L237 133 Q231 133 226.5 128.5 Q222 124 222 118 Z " />
<glyph glyph-name="Edieresis" unicode="&#xcb;" horiz-adv-x="603" d="M353 886 Q353 922 378.5 947.5 Q404 973 440 973 Q476 973 501.5 947.5 Q527 922 527 886 Q527 850 501.5 824.5 Q476 799 440 799 Q404 799 378.5 824.5 Q353 850 353 886 Z M115 886 Q115 922 140.5 947.5 Q166 973 202 973 Q238 973 263.5 947.5 Q289 922 289 886 Q289 850 263.5 824.5 Q238 799 202 799 Q166 799 140.5 824.5 Q115 850 115 886 Z M222 118 Q222 112 226.5 107.5 Q231 103 237 103 Q243 103 247.5 107.5 Q252 112 252 118 L548 118 L548 0 L95 0 L95 735 L548 735 L548 617 L252 617 Q252 623 247.5 627.5 Q243 632 237 632 Q231 632 226.5 627.5 Q222 623 222 617 Q222 611 226.5 606.5 Q231 602 237 602 L237 445 Q231 445 226.5 440.5 Q222 436 222 430 Q222 424 226.5 419.5 Q231 415 237 415 Q243 415 247.5 419.5 Q252 424 252 430 L548 430 L548 313 L252 313 Q252 319 247.5 323.5 Q243 328 237 328 Q231 328 226.5 323.5 Q222 319 222 313 Q222 307 226.5 302.5 Q231 298 237 298 L237 133 Q231 133 226.5 128.5 Q222 124 222 118 Z " />
<glyph glyph-name="Igrave" unicode="&#xcc;" horiz-adv-x="518" d="M111 894 Q96 909 96 929 Q96 949 111 964 Q126 979 146 979 Q166 979 181 964 Q183 963 186 959 Q189 955 199.5 941 Q210 927 230.5 899 Q251 871 287 821 L254 788 L111 894 Z M315 118 Q315 112 319.5 107.5 Q324 103 330 103 Q336 103 340.5 107.5 Q345 112 345 118 L458 118 L458 0 L60 0 L60 118 L173 118 Q173 112 177.5 107.5 Q182 103 188 103 Q194 103 198.5 107.5 Q203 112 203 118 Q203 124 198.5 128.5 Q194 133 188 133 L188 602 Q194 602 198.5 606.5 Q203 611 203 617 Q203 623 198.5 627.5 Q194 632 188 632 Q182 632 177.5 627.5 Q173 623 173 617 L60 617 L60 735 L458 735 L458 617 L345 617 Q345 623 340.5 627.5 Q336 632 330 632 Q324 632 319.5 627.5 Q315 623 315 617 Q315 611 319.5 606.5 Q324 602 330 602 L330 133 Q324 133 319.5 128.5 Q315 124 315 118 Z " />
<glyph glyph-name="Iacute" unicode="&#xcd;" horiz-adv-x="518" d="M264 788 L231 821 Q267 871 287.5 899 Q308 927 318.5 941 Q329 955 332 959 Q335 963 337 964 Q352 979 372 979 Q392 979 407 964 Q422 949 422 929 Q422 909 407 894 L264 788 Z M315 118 Q315 112 319.5 107.5 Q324 103 330 103 Q336 103 340.5 107.5 Q345 112 345 118 L458 118 L458 0 L60 0 L60 118 L173 118 Q173 112 177.5 107.5 Q182 103 188 103 Q194 103 198.5 107.5 Q203 112 203 118 Q203 124 198.5 128.5 Q194 133 188 133 L188 602 Q194 602 198.5 606.5 Q203 611 203 617 Q203 623 198.5 627.5 Q194 632 188 632 Q182 632 177.5 627.5 Q173 623 173 617 L60 617 L60 735 L458 735 L458 617 L345 617 Q345 623 340.5 627.5 Q336 632 330 632 Q324 632 319.5 627.5 Q315 623 315 617 Q315 611 319.5 606.5 Q324 602 330 602 L330 133 Q324 133 319.5 128.5 Q315 124 315 118 Z " />
<glyph glyph-name="Icircumflex" unicode="&#xce;" horiz-adv-x="518" d="M258 878 L168 787 L123 832 L259 968 L395 832 L350 787 L258 878 Z M315 118 Q315 112 319.5 107.5 Q324 103 330 103 Q336 103 340.5 107.5 Q345 112 345 118 L458 118 L458 0 L60 0 L60 118 L173 118 Q173 112 177.5 107.5 Q182 103 188 103 Q194 103 198.5 107.5 Q203 112 203 118 Q203 124 198.5 128.5 Q194 133 188 133 L188 602 Q194 602 198.5 606.5 Q203 611 203 617 Q203 623 198.5 627.5 Q194 632 188 632 Q182 632 177.5 627.5 Q173 623 173 617 L60 617 L60 735 L458 735 L458 617 L345 617 Q345 623 340.5 627.5 Q336 632 330 632 Q324 632 319.5 627.5 Q315 623 315 617 Q315 611 319.5 606.5 Q324 602 330 602 L330 133 Q324 133 319.5 128.5 Q315 124 315 118 Z " />
<glyph glyph-name="Idieresis" unicode="&#xcf;" horiz-adv-x="518" d="M291 886 Q291 922 316.5 947.5 Q342 973 378 973 Q414 973 439.5 947.5 Q465 922 465 886 Q465 850 439.5 824.5 Q414 799 378 799 Q342 799 316.5 824.5 Q291 850 291 886 Z M53 886 Q53 922 78.5 947.5 Q104 973 140 973 Q176 973 201.5 947.5 Q227 922 227 886 Q227 850 201.5 824.5 Q176 799 140 799 Q104 799 78.5 824.5 Q53 850 53 886 Z M315 118 Q315 112 319.5 107.5 Q324 103 330 103 Q336 103 340.5 107.5 Q345 112 345 118 L458 118 L458 0 L60 0 L60 118 L173 118 Q173 112 177.5 107.5 Q182 103 188 103 Q194 103 198.5 107.5 Q203 112 203 118 Q203 124 198.5 128.5 Q194 133 188 133 L188 602 Q194 602 198.5 606.5 Q203 611 203 617 Q203 623 198.5 627.5 Q194 632 188 632 Q182 632 177.5 627.5 Q173 623 173 617 L60 617 L60 735 L458 735 L458 617 L345 617 Q345 623 340.5 627.5 Q336 632 330 632 Q324 632 319.5 627.5 Q315 623 315 617 Q315 611 319.5 606.5 Q324 602 330 602 L330 133 Q324 133 319.5 128.5 Q315 124 315 118 Z " />
<glyph glyph-name="Ntilde" unicode="&#xd1;" horiz-adv-x="853" d="M478 907 Q516 907 544 880.5 Q572 854 574 816 L510 816 Q510 830 501 839 Q492 848 478 848 Q467 848 457.5 840.5 Q448 833 437 823.5 Q426 814 411.5 806.5 Q397 799 374 799 Q336 799 308 825.5 Q280 852 278 890 L342 890 Q342 876 351 867 Q360 858 374 858 Q385 858 394.5 865.5 Q404 873 415 882.5 Q426 892 441 899.5 Q456 907 478 907 Z M216 459 Q216 453 220.5 448.5 Q225 444 231 444 L231 0 L95 0 L95 730 L106 735 L611 296 Q607 292 607 286 Q607 280 611.5 275.5 Q616 271 622 271 Q628 271 632.5 275.5 Q637 280 637 286 Q637 292 632.5 296.5 Q628 301 622 301 L622 735 L758 735 L758 5 L746 -1 L242 449 Q246 453 246 459 Q246 465 241.5 469.5 Q237 474 231 474 Q225 474 220.5 469.5 Q216 465 216 459 Z " />
<glyph glyph-name="Ograve" unicode="&#xd2;" horiz-adv-x="868" d="M55 368 Q55 446 85 515 Q115 584 166.5 635.5 Q218 687 287 717 Q356 747 434 747 Q512 747 581 717 Q650 687 701.5 635.5 Q753 584 783 515 Q813 446 813 368 Q813 290 783 221 Q753 152 701.5 100.5 Q650 49 581 19 Q512 -11 434 -11 Q356 -11 287 19 Q218 49 166.5 100.5 Q115 152 85 221 Q55 290 55 368 Z M194 368 Q194 319 213 275 Q232 231 264.5 198.5 Q297 166 341 147 Q385 128 434 128 Q484 128 527.5 147 Q571 166 603.5 198.5 Q636 231 655 275 Q674 319 674 368 Q674 418 655 461.5 Q636 505 603.5 537.5 Q571 570 527.5 589 Q484 608 434 608 Q385 608 341 589 Q297 570 264.5 537.5 Q232 505 213 461.5 Q194 418 194 368 Z M286 894 Q271 909 271 929 Q271 949 286 964 Q301 979 321 979 Q341 979 356 964 Q358 963 361 959 Q364 955 374.5 941 Q385 927 405.5 899 Q426 871 462 821 L429 788 L286 894 Z " />
<glyph glyph-name="Oacute" unicode="&#xd3;" horiz-adv-x="868" d="M55 368 Q55 446 85 515 Q115 584 166.5 635.5 Q218 687 287 717 Q356 747 434 747 Q512 747 581 717 Q650 687 701.5 635.5 Q753 584 783 515 Q813 446 813 368 Q813 290 783 221 Q753 152 701.5 100.5 Q650 49 581 19 Q512 -11 434 -11 Q356 -11 287 19 Q218 49 166.5 100.5 Q115 152 85 221 Q55 290 55 368 Z M194 368 Q194 319 213 275 Q232 231 264.5 198.5 Q297 166 341 147 Q385 128 434 128 Q484 128 527.5 147 Q571 166 603.5 198.5 Q636 231 655 275 Q674 319 674 368 Q674 418 655 461.5 Q636 505 603.5 537.5 Q571 570 527.5 589 Q484 608 434 608 Q385 608 341 589 Q297 570 264.5 537.5 Q232 505 213 461.5 Q194 418 194 368 Z M439 788 L406 821 Q442 871 462.5 899 Q483 927 493.5 941 Q504 955 507 959 Q510 963 512 964 Q527 979 547 979 Q567 979 582 964 Q597 949 597 929 Q597 909 582 894 L439 788 Z " />
<glyph glyph-name="Ocircumflex" unicode="&#xd4;" horiz-adv-x="868" d="M55 368 Q55 446 85 515 Q115 584 166.5 635.5 Q218 687 287 717 Q356 747 434 747 Q512 747 581 717 Q650 687 701.5 635.5 Q753 584 783 515 Q813 446 813 368 Q813 290 783 221 Q753 152 701.5 100.5 Q650 49 581 19 Q512 -11 434 -11 Q356 -11 287 19 Q218 49 166.5 100.5 Q115 152 85 221 Q55 290 55 368 Z M194 368 Q194 319 213 275 Q232 231 264.5 198.5 Q297 166 341 147 Q385 128 434 128 Q484 128 527.5 147 Q571 166 603.5 198.5 Q636 231 655 275 Q674 319 674 368 Q674 418 655 461.5 Q636 505 603.5 537.5 Q571 570 527.5 589 Q484 608 434 608 Q385 608 341 589 Q297 570 264.5 537.5 Q232 505 213 461.5 Q194 418 194 368 Z M433 878 L343 787 L298 832 L434 968 L570 832 L525 787 L433 878 Z " />
<glyph glyph-name="Otilde" unicode="&#xd5;" horiz-adv-x="868" d="M55 368 Q55 446 85 515 Q115 584 166.5 635.5 Q218 687 287 717 Q356 747 434 747 Q512 747 581 717 Q650 687 701.5 635.5 Q753 584 783 515 Q813 446 813 368 Q813 290 783 221 Q753 152 701.5 100.5 Q650 49 581 19 Q512 -11 434 -11 Q356 -11 287 19 Q218 49 166.5 100.5 Q115 152 85 221 Q55 290 55 368 Z M194 368 Q194 319 213 275 Q232 231 264.5 198.5 Q297 166 341 147 Q385 128 434 128 Q484 128 527.5 147 Q571 166 603.5 198.5 Q636 231 655 275 Q674 319 674 368 Q674 418 655 461.5 Q636 505 603.5 537.5 Q571 570 527.5 589 Q484 608 434 608 Q385 608 341 589 Q297 570 264.5 537.5 Q232 505 213 461.5 Q194 418 194 368 Z M486 907 Q524 907 552 880.5 Q580 854 582 816 L518 816 Q518 830 509 839 Q500 848 486 848 Q475 848 465.5 840.5 Q456 833 445 823.5 Q434 814 419.5 806.5 Q405 799 382 799 Q344 799 316 825.5 Q288 852 286 890 L350 890 Q350 876 359 867 Q368 858 382 858 Q393 858 402.5 865.5 Q412 873 423 882.5 Q434 892 449 899.5 Q464 907 486 907 Z " />
<glyph glyph-name="Odieresis" unicode="&#xd6;" horiz-adv-x="868" d="M55 368 Q55 446 85 515 Q115 584 166.5 635.5 Q218 687 287 717 Q356 747 434 747 Q512 747 581 717 Q650 687 701.5 635.5 Q753 584 783 515 Q813 446 813 368 Q813 290 783 221 Q753 152 701.5 100.5 Q650 49 581 19 Q512 -11 434 -11 Q356 -11 287 19 Q218 49 166.5 100.5 Q115 152 85 221 Q55 290 55 368 Z M194 368 Q194 319 213 275 Q232 231 264.5 198.5 Q297 166 341 147 Q385 128 434 128 Q484 128 527.5 147 Q571 166 603.5 198.5 Q636 231 655 275 Q674 319 674 368 Q674 418 655 461.5 Q636 505 603.5 537.5 Q571 570 527.5 589 Q484 608 434 608 Q385 608 341 589 Q297 570 264.5 537.5 Q232 505 213 461.5 Q194 418 194 368 Z M228 886 Q228 922 253.5 947.5 Q279 973 315 973 Q351 973 376.5 947.5 Q402 922 402 886 Q402 850 376.5 824.5 Q351 799 315 799 Q279 799 253.5 824.5 Q228 850 228 886 Z M466 886 Q466 922 491.5 947.5 Q517 973 553 973 Q589 973 614.5 947.5 Q640 922 640 886 Q640 850 614.5 824.5 Q589 799 553 799 Q517 799 491.5 824.5 Q466 850 466 886 Z " />
<glyph glyph-name="multiply" unicode="&#xd7;" horiz-adv-x="552" d="M261 347 Q261 341 265.5 336.5 Q270 332 276 332 Q282 332 286.5 336.5 Q291 341 291 347 Q291 352 286 357 L412 482 L502 392 L377 266 Q372 271 367 271 Q361 271 356.5 266.5 Q352 262 352 256 Q352 250 356.5 245.5 Q361 241 367 241 Q373 241 377 245 L502 120 L412 30 L286 154 Q291 159 291 165 Q291 171 286.5 175.5 Q282 180 276 180 Q270 180 265.5 175.5 Q261 171 261 165 Q261 158 265 154 L140 30 L50 120 L174 245 Q178 241 185 241 Q191 241 195.5 245.5 Q200 250 200 256 Q200 262 195.5 266.5 Q191 271 185 271 Q179 271 174 266 L50 392 L140 482 L265 357 Q261 353 261 347 Z " />
<glyph glyph-name="Oslash" unicode="&#xd8;" horiz-adv-x="868" d="M655 665 Q655 659 659.5 654.5 Q664 650 670 650 Q676 650 680.5 654.5 Q685 659 685 665 Q685 670 680 675 L720 715 L781 654 L741 614 Q736 619 731 619 Q725 619 720.5 614.5 Q716 610 716 604 Q716 598 720.5 593.5 Q725 589 731 589 Q736 589 740 592 Q774 544 793.5 487.5 Q813 431 813 368 Q813 290 783 221 Q753 152 701.5 100.5 Q650 49 581 19 Q512 -11 434 -11 Q371 -11 314 7.5 Q257 26 209 61 Q213 67 213 71 Q213 77 208.5 81.5 Q204 86 198 86 Q192 86 187.5 81.5 Q183 77 183 71 Q183 64 187 60 L148 21 L87 82 L126 121 Q130 117 137 117 Q143 117 147.5 121.5 Q152 126 152 132 Q152 138 147.5 142.5 Q143 147 137 147 Q133 147 127 143 Q92 191 73.5 248 Q55 305 55 368 Q55 446 85 515 Q115 584 166.5 635.5 Q218 687 287 717 Q356 747 434 747 Q497 747 553.5 727.5 Q610 708 658 674 Q655 670 655 665 Z M221 231 Q221 225 225.5 220.5 Q230 216 236 216 Q242 216 246.5 220.5 Q251 225 251 231 Q251 236 246 241 L559 554 Q563 550 570 550 Q576 550 580.5 554.5 Q585 559 585 565 Q585 571 580.5 575.5 Q576 580 570 580 Q562 580 557 573 Q530 590 499 599 Q468 608 434 608 Q385 608 341 589 Q297 570 264.5 537.5 Q232 505 213 461.5 Q194 418 194 368 Q194 300 228 243 Q221 240 221 231 Z M282 170 Q282 164 286.5 159.5 Q291 155 297 155 Q306 155 309 162 Q366 128 434 128 Q484 128 527.5 147 Q571 166 603.5 198.5 Q636 231 655 275 Q674 319 674 368 Q674 402 665 433 Q656 464 639 491 Q646 496 646 504 Q646 510 641.5 514.5 Q637 519 631 519 Q625 519 620.5 514.5 Q616 510 616 504 Q616 497 620 493 L307 180 Q302 185 297 185 Q291 185 286.5 180.5 Q282 176 282 170 Z " />
<glyph glyph-name="Ugrave" unicode="&#xd9;" horiz-adv-x="800" d="M208 319 Q208 279 223 244 Q238 209 264 183 Q290 157 325 142 Q360 127 400 127 Q440 127 475 142 Q510 157 536 183 Q562 209 577 244 Q592 279 592 319 L592 735 L730 735 L730 319 Q730 250 704 190 Q678 130 633 85.5 Q588 41 528 15 Q468 -11 400 -11 Q332 -11 272 15 Q212 41 167 85.5 Q122 130 96 190 Q70 250 70 319 L70 735 L208 735 L208 319 Z M262 894 Q247 909 247 929 Q247 949 262 964 Q277 979 297 979 Q317 979 332 964 Q334 963 337 959 Q340 955 350.5 941 Q361 927 381.5 899 Q402 871 438 821 L405 788 L262 894 Z " />
<glyph glyph-name="Uacute" unicode="&#xda;" horiz-adv-x="800" d="M208 319 Q208 279 223 244 Q238 209 264 183 Q290 157 325 142 Q360 127 400 127 Q440 127 475 142 Q510 157 536 183 Q562 209 577 244 Q592 279 592 319 L592 735 L730 735 L730 319 Q730 250 704 190 Q678 130 633 85.5 Q588 41 528 15 Q468 -11 400 -11 Q332 -11 272 15 Q212 41 167 85.5 Q122 130 96 190 Q70 250 70 319 L70 735 L208 735 L208 319 Z M405 788 L372 821 Q408 871 428.5 899 Q449 927 459.5 941 Q470 955 473 959 Q476 963 478 964 Q493 979 513 979 Q533 979 548 964 Q563 949 563 929 Q563 909 548 894 L405 788 Z " />
<glyph glyph-name="Ucircumflex" unicode="&#xdb;" horiz-adv-x="800" d="M208 319 Q208 279 223 244 Q238 209 264 183 Q290 157 325 142 Q360 127 400 127 Q440 127 475 142 Q510 157 536 183 Q562 209 577 244 Q592 279 592 319 L592 735 L730 735 L730 319 Q730 250 704 190 Q678 130 633 85.5 Q588 41 528 15 Q468 -11 400 -11 Q332 -11 272 15 Q212 41 167 85.5 Q122 130 96 190 Q70 250 70 319 L70 735 L208 735 L208 319 Z M399 878 L309 787 L264 832 L400 968 L536 832 L491 787 L399 878 Z " />
<glyph glyph-name="Udieresis" unicode="&#xdc;" horiz-adv-x="800" d="M208 319 Q208 279 223 244 Q238 209 264 183 Q290 157 325 142 Q360 127 400 127 Q440 127 475 142 Q510 157 536 183 Q562 209 577 244 Q592 279 592 319 L592 735 L730 735 L730 319 Q730 250 704 190 Q678 130 633 85.5 Q588 41 528 15 Q468 -11 400 -11 Q332 -11 272 15 Q212 41 167 85.5 Q122 130 96 190 Q70 250 70 319 L70 735 L208 735 L208 319 Z M432 886 Q432 922 457.5 947.5 Q483 973 519 973 Q555 973 580.5 947.5 Q606 922 606 886 Q606 850 580.5 824.5 Q555 799 519 799 Q483 799 457.5 824.5 Q432 850 432 886 Z M194 886 Q194 922 219.5 947.5 Q245 973 281 973 Q317 973 342.5 947.5 Q368 922 368 886 Q368 850 342.5 824.5 Q317 799 281 799 Q245 799 219.5 824.5 Q194 850 194 886 Z " />
<glyph glyph-name="Yacute" unicode="&#xdd;" horiz-adv-x="593" d="M301 788 L268 821 Q304 871 324.5 899 Q345 927 355.5 941 Q366 955 369 959 Q372 963 374 964 Q389 979 409 979 Q429 979 444 964 Q459 949 459 929 Q459 909 444 894 L301 788 Z M282 400 Q282 394 286.5 389.5 Q291 385 297 385 Q303 385 307.5 389.5 Q312 394 312 400 Q312 409 302 414 L429 735 L573 735 L361 212 L361 0 L233 0 L233 212 L20 735 L165 735 L291 414 Q282 409 282 400 Z " />
<glyph glyph-name="germandbls" unicode="&#xdf;" horiz-adv-x="672" d="M532 375 Q532 369 536.5 364.5 Q541 360 547 360 Q556 360 559 367 Q592 344 612 305 Q632 266 632 218 Q632 179 619 140 Q606 101 577.5 70 Q549 39 503.5 19.5 Q458 0 392 0 L327 0 L327 118 L397 118 Q424 118 444 126.5 Q464 135 476.5 149 Q489 163 495.5 180.5 Q502 198 502 216 Q502 233 496 250.5 Q490 268 478 282 Q466 296 448 304.5 Q430 313 407 313 L327 313 L327 427 L402 427 Q439 427 462.5 455.5 Q486 484 486 524 Q486 548 478.5 570.5 Q471 593 455.5 610.5 Q440 628 415.5 638 Q391 648 357 648 Q293 648 259.5 608.5 Q226 569 226 507 L226 0 L90 0 L90 512 Q90 570 111 617.5 Q132 665 168 698.5 Q204 732 251.5 750 Q299 768 351 768 Q415 768 464 748.5 Q513 729 546.5 696 Q580 663 597.5 620.5 Q615 578 615 533 Q615 455 557 386 Q551 390 547 390 Q541 390 536.5 385.5 Q532 381 532 375 Z " />
<glyph glyph-name="agrave" unicode="&#xe0;" horiz-adv-x="587" d="M153 671 Q138 686 138 706 Q138 726 153 741 Q168 756 188 756 Q208 756 223 741 Q225 740 228 736 Q231 732 241.5 718 Q252 704 272.5 676 Q293 648 329 598 L296 565 L153 671 Z M376 64 Q376 57 382 52 Q356 22 317 7.5 Q278 -7 240 -7 Q198 -7 163.5 4 Q129 15 103.5 35.5 Q78 56 64 84.5 Q50 113 50 149 Q50 224 100.5 267 Q151 310 243 310 L376 310 Q376 304 380.5 299.5 Q385 295 391 295 Q397 295 401.5 299.5 Q406 304 406 310 Q406 316 401.5 320.5 Q397 325 391 325 L391 334 Q391 367 365 389.5 Q339 412 295 412 Q260 412 237 397.5 Q214 383 194 354 L98 422 Q109 443 128.5 462 Q148 481 173.5 495.5 Q199 510 230 518.5 Q261 527 294 527 Q345 527 386 511.5 Q427 496 456.5 468.5 Q486 441 501.5 403 Q517 365 517 320 L517 0 L391 0 L391 49 Q397 49 401.5 53.5 Q406 58 406 64 Q406 70 401.5 74.5 Q397 79 391 79 Q385 79 380.5 74.5 Q376 70 376 64 Z M247 204 Q223 204 202 194 Q181 184 181 154 Q181 127 205 113 Q229 99 264 99 Q282 99 302.5 104 Q323 109 341.5 119.5 Q360 130 373.5 147.5 Q387 165 390 189 L391 189 Q397 189 401.5 193.5 Q406 198 406 204 Q406 210 401.5 214.5 Q397 219 391 219 Q385 219 380.5 214.5 Q376 210 376 204 L247 204 Z " />
<glyph glyph-name="aacute" unicode="&#xe1;" horiz-adv-x="587" d="M306 565 L273 598 Q309 648 329.5 676 Q350 704 360.5 718 Q371 732 374 736 Q377 740 379 741 Q394 756 414 756 Q434 756 449 741 Q464 726 464 706 Q464 686 449 671 L306 565 Z M376 64 Q376 57 382 52 Q356 22 317 7.5 Q278 -7 240 -7 Q198 -7 163.5 4 Q129 15 103.5 35.5 Q78 56 64 84.5 Q50 113 50 149 Q50 224 100.5 267 Q151 310 243 310 L376 310 Q376 304 380.5 299.5 Q385 295 391 295 Q397 295 401.5 299.5 Q406 304 406 310 Q406 316 401.5 320.5 Q397 325 391 325 L391 334 Q391 367 365 389.5 Q339 412 295 412 Q260 412 237 397.5 Q214 383 194 354 L98 422 Q109 443 128.5 462 Q148 481 173.5 495.5 Q199 510 230 518.5 Q261 527 294 527 Q345 527 386 511.5 Q427 496 456.5 468.5 Q486 441 501.5 403 Q517 365 517 320 L517 0 L391 0 L391 49 Q397 49 401.5 53.5 Q406 58 406 64 Q406 70 401.5 74.5 Q397 79 391 79 Q385 79 380.5 74.5 Q376 70 376 64 Z M247 204 Q223 204 202 194 Q181 184 181 154 Q181 127 205 113 Q229 99 264 99 Q282 99 302.5 104 Q323 109 341.5 119.5 Q360 130 373.5 147.5 Q387 165 390 189 L391 189 Q397 189 401.5 193.5 Q406 198 406 204 Q406 210 401.5 214.5 Q397 219 391 219 Q385 219 380.5 214.5 Q376 210 376 204 L247 204 Z " />
<glyph glyph-name="acircumflex" unicode="&#xe2;" horiz-adv-x="587" d="M300 655 L210 564 L165 609 L301 745 L437 609 L392 564 L300 655 Z M376 64 Q376 57 382 52 Q356 22 317 7.5 Q278 -7 240 -7 Q198 -7 163.5 4 Q129 15 103.5 35.5 Q78 56 64 84.5 Q50 113 50 149 Q50 224 100.5 267 Q151 310 243 310 L376 310 Q376 304 380.5 299.5 Q385 295 391 295 Q397 295 401.5 299.5 Q406 304 406 310 Q406 316 401.5 320.5 Q397 325 391 325 L391 334 Q391 367 365 389.5 Q339 412 295 412 Q260 412 237 397.5 Q214 383 194 354 L98 422 Q109 443 128.5 462 Q148 481 173.5 495.5 Q199 510 230 518.5 Q261 527 294 527 Q345 527 386 511.5 Q427 496 456.5 468.5 Q486 441 501.5 403 Q517 365 517 320 L517 0 L391 0 L391 49 Q397 49 401.5 53.5 Q406 58 406 64 Q406 70 401.5 74.5 Q397 79 391 79 Q385 79 380.5 74.5 Q376 70 376 64 Z M247 204 Q223 204 202 194 Q181 184 181 154 Q181 127 205 113 Q229 99 264 99 Q282 99 302.5 104 Q323 109 341.5 119.5 Q360 130 373.5 147.5 Q387 165 390 189 L391 189 Q397 189 401.5 193.5 Q406 198 406 204 Q406 210 401.5 214.5 Q397 219 391 219 Q385 219 380.5 214.5 Q376 210 376 204 L247 204 Z " />
<glyph glyph-name="atilde" unicode="&#xe3;" horiz-adv-x="587" d="M353 684 Q391 684 419 657.5 Q447 631 449 593 L385 593 Q385 607 376 616 Q367 625 353 625 Q342 625 332.5 617.5 Q323 610 312 600.5 Q301 591 286.5 583.5 Q272 576 249 576 Q211 576 183 602.5 Q155 629 153 667 L217 667 Q217 653 226 644 Q235 635 249 635 Q260 635 269.5 642.5 Q279 650 290 659.5 Q301 669 316 676.5 Q331 684 353 684 Z M376 64 Q376 57 382 52 Q356 22 317 7.5 Q278 -7 240 -7 Q198 -7 163.5 4 Q129 15 103.5 35.5 Q78 56 64 84.5 Q50 113 50 149 Q50 224 100.5 267 Q151 310 243 310 L376 310 Q376 304 380.5 299.5 Q385 295 391 295 Q397 295 401.5 299.5 Q406 304 406 310 Q406 316 401.5 320.5 Q397 325 391 325 L391 334 Q391 367 365 389.5 Q339 412 295 412 Q260 412 237 397.5 Q214 383 194 354 L98 422 Q109 443 128.5 462 Q148 481 173.5 495.5 Q199 510 230 518.5 Q261 527 294 527 Q345 527 386 511.5 Q427 496 456.5 468.5 Q486 441 501.5 403 Q517 365 517 320 L517 0 L391 0 L391 49 Q397 49 401.5 53.5 Q406 58 406 64 Q406 70 401.5 74.5 Q397 79 391 79 Q385 79 380.5 74.5 Q376 70 376 64 Z M247 204 Q223 204 202 194 Q181 184 181 154 Q181 127 205 113 Q229 99 264 99 Q282 99 302.5 104 Q323 109 341.5 119.5 Q360 130 373.5 147.5 Q387 165 390 189 L391 189 Q397 189 401.5 193.5 Q406 198 406 204 Q406 210 401.5 214.5 Q397 219 391 219 Q385 219 380.5 214.5 Q376 210 376 204 L247 204 Z " />
<glyph glyph-name="adieresis" unicode="&#xe4;" horiz-adv-x="587" d="M95 663 Q95 699 120.5 724.5 Q146 750 182 750 Q218 750 243.5 724.5 Q269 699 269 663 Q269 627 243.5 601.5 Q218 576 182 576 Q146 576 120.5 601.5 Q95 627 95 663 Z M333 663 Q333 699 358.5 724.5 Q384 750 420 750 Q456 750 481.5 724.5 Q507 699 507 663 Q507 627 481.5 601.5 Q456 576 420 576 Q384 576 358.5 601.5 Q333 627 333 663 Z M376 64 Q376 57 382 52 Q356 22 317 7.5 Q278 -7 240 -7 Q198 -7 163.5 4 Q129 15 103.5 35.5 Q78 56 64 84.5 Q50 113 50 149 Q50 224 100.5 267 Q151 310 243 310 L376 310 Q376 304 380.5 299.5 Q385 295 391 295 Q397 295 401.5 299.5 Q406 304 406 310 Q406 316 401.5 320.5 Q397 325 391 325 L391 334 Q391 367 365 389.5 Q339 412 295 412 Q260 412 237 397.5 Q214 383 194 354 L98 422 Q109 443 128.5 462 Q148 481 173.5 495.5 Q199 510 230 518.5 Q261 527 294 527 Q345 527 386 511.5 Q427 496 456.5 468.5 Q486 441 501.5 403 Q517 365 517 320 L517 0 L391 0 L391 49 Q397 49 401.5 53.5 Q406 58 406 64 Q406 70 401.5 74.5 Q397 79 391 79 Q385 79 380.5 74.5 Q376 70 376 64 Z M247 204 Q223 204 202 194 Q181 184 181 154 Q181 127 205 113 Q229 99 264 99 Q282 99 302.5 104 Q323 109 341.5 119.5 Q360 130 373.5 147.5 Q387 165 390 189 L391 189 Q397 189 401.5 193.5 Q406 198 406 204 Q406 210 401.5 214.5 Q397 219 391 219 Q385 219 380.5 214.5 Q376 210 376 204 L247 204 Z " />
<glyph glyph-name="aring" unicode="&#xe5;" horiz-adv-x="587" d="M205 672 Q205 712 233 740 Q261 768 301 768 Q341 768 369 740 Q397 712 397 672 Q397 632 369 604 Q341 576 301 576 Q261 576 233 604 Q205 632 205 672 Z M269 672 Q269 658 278 649 Q287 640 301 640 Q315 640 324 649 Q333 658 333 672 Q333 686 324 695 Q315 704 301 704 Q287 704 278 695 Q269 686 269 672 Z M376 64 Q376 57 382 52 Q356 22 317 7.5 Q278 -7 240 -7 Q198 -7 163.5 4 Q129 15 103.5 35.5 Q78 56 64 84.5 Q50 113 50 149 Q50 224 100.5 267 Q151 310 243 310 L376 310 Q376 304 380.5 299.5 Q385 295 391 295 Q397 295 401.5 299.5 Q406 304 406 310 Q406 316 401.5 320.5 Q397 325 391 325 L391 334 Q391 367 365 389.5 Q339 412 295 412 Q260 412 237 397.5 Q214 383 194 354 L98 422 Q109 443 128.5 462 Q148 481 173.5 495.5 Q199 510 230 518.5 Q261 527 294 527 Q345 527 386 511.5 Q427 496 456.5 468.5 Q486 441 501.5 403 Q517 365 517 320 L517 0 L391 0 L391 49 Q397 49 401.5 53.5 Q406 58 406 64 Q406 70 401.5 74.5 Q397 79 391 79 Q385 79 380.5 74.5 Q376 70 376 64 Z M247 204 Q223 204 202 194 Q181 184 181 154 Q181 127 205 113 Q229 99 264 99 Q282 99 302.5 104 Q323 109 341.5 119.5 Q360 130 373.5 147.5 Q387 165 390 189 L391 189 Q397 189 401.5 193.5 Q406 198 406 204 Q406 210 401.5 214.5 Q397 219 391 219 Q385 219 380.5 214.5 Q376 210 376 204 L247 204 Z " />
<glyph glyph-name="ae" unicode="&#xe6;" horiz-adv-x="945" d="M456 453 Q456 447 460.5 442.5 Q465 438 471 438 Q477 438 481.5 442.5 Q486 447 486 453 Q486 458 482 462 Q514 488 555 502 Q596 516 644 516 Q700 516 747.5 497 Q795 478 829.5 443.5 Q864 409 883 361 Q902 313 902 256 Q902 243 900 229.5 Q898 216 895 208 L541 208 Q541 214 536.5 218.5 Q532 223 526 223 Q520 223 515.5 218.5 Q511 214 511 208 Q511 202 515.5 197.5 Q520 193 526 193 L528 193 Q539 155 575.5 134 Q612 113 655 113 Q691 113 723 127.5 Q755 142 777 167 L864 92 Q826 46 770 20.5 Q714 -5 648 -5 Q601 -5 552.5 10.5 Q504 26 465 61 Q470 66 470 72 Q470 78 465.5 82.5 Q461 87 455 87 Q449 87 444.5 82.5 Q440 78 440 72 Q440 65 444 62 Q409 32 359.5 12.5 Q310 -7 256 -7 Q214 -7 177 3 Q140 13 111.5 33 Q83 53 66.5 82 Q50 111 50 149 Q50 224 100.5 267 Q151 310 243 310 L376 310 Q376 304 380.5 299.5 Q385 295 391 295 Q397 295 401.5 299.5 Q406 304 406 310 Q406 316 401.5 320.5 Q397 325 391 325 L391 334 Q391 367 365 389.5 Q339 412 295 412 Q260 412 237 397.5 Q214 383 194 354 L98 422 Q109 443 128.5 462 Q148 481 173.5 495.5 Q199 510 230 518.5 Q261 527 294 527 Q347 527 389.5 510 Q432 493 461 464 Q456 459 456 453 Z M511 308 Q511 302 515.5 297.5 Q520 293 526 293 Q532 293 536.5 297.5 Q541 302 541 308 L751 308 Q751 302 755.5 297.5 Q760 293 766 293 Q772 293 776.5 297.5 Q781 302 781 308 Q781 314 776.5 318.5 Q772 323 766 323 Q765 323 764.5 322.5 Q764 322 763 322 Q753 355 723.5 380 Q694 405 646 405 Q598 405 568 381 Q538 357 529 323 L526 323 Q520 323 515.5 318.5 Q511 314 511 308 Z M243 200 Q220 200 200.5 190.5 Q181 181 181 154 Q181 128 203.5 115.5 Q226 103 258 103 Q281 103 303 109 Q325 115 343 125.5 Q361 136 373 151.5 Q385 167 389 185 L391 185 Q397 185 401.5 189.5 Q406 194 406 200 Q406 206 401.5 210.5 Q397 215 391 215 Q385 215 380.5 210.5 Q376 206 376 200 L243 200 Z " />
<glyph glyph-name="ccedilla" unicode="&#xe7;" horiz-adv-x="556" d="M326 -7 Q326 -13 330.5 -17.5 Q335 -22 341 -22 Q345 -22 351 -18 Q375 -29 390 -52.5 Q405 -76 405 -105 Q405 -145 377 -173 Q349 -201 309 -201 Q289 -201 272 -193.5 Q255 -186 241 -173 L287 -129 Q297 -137 309 -137 Q323 -137 332 -128 Q341 -119 341 -105 Q341 -91 332 -82 Q323 -73 309 -73 Q295 -73 286 -82 L241 -37 Q250 -26 267 -17 Q273 -21 277 -21 Q283 -21 287.5 -16.5 Q292 -12 292 -6 Q292 0 287.5 4.5 Q283 9 277 9 Q271 9 266 4 Q221 12 182 34.5 Q143 57 115 90.5 Q87 124 71 166 Q55 208 55 256 Q55 309 75 356 Q95 403 129.5 437.5 Q164 472 211 492 Q258 512 311 512 Q372 512 424 486.5 Q476 461 511 416 L413 336 Q395 358 369 370.5 Q343 383 313 383 Q286 383 263 373 Q240 363 222.5 346 Q205 329 195 306 Q185 283 185 256 Q185 229 195 206 Q205 183 222.5 165.5 Q240 148 263 138 Q286 128 313 128 Q343 128 369 141 Q395 154 413 176 L511 95 Q482 59 441 34.5 Q400 10 352 2 Q348 8 341 8 Q335 8 330.5 3.5 Q326 -1 326 -7 Z " />
<glyph glyph-name="egrave" unicode="&#xe8;" horiz-adv-x="608" d="M157 671 Q142 686 142 706 Q142 726 157 741 Q172 756 192 756 Q212 756 227 741 Q229 740 232 736 Q235 732 245.5 718 Q256 704 276.5 676 Q297 648 333 598 L300 565 L157 671 Z M170 208 Q170 202 174.5 197.5 Q179 193 185 193 L187 193 Q197 155 233 132.5 Q269 110 312 110 Q348 110 380.5 124.5 Q413 139 435 164 L529 90 Q491 44 434 18 Q377 -8 311 -8 Q267 -8 221 6.5 Q175 21 137.5 53 Q100 85 76 135 Q52 185 52 256 Q52 313 70.5 361 Q89 409 122.5 444.5 Q156 480 203 499.5 Q250 519 307 519 Q364 519 411.5 499.5 Q459 480 494 445.5 Q529 411 548.5 362.5 Q568 314 568 256 Q568 243 565.5 229.5 Q563 216 560 208 L200 208 Q200 214 195.5 218.5 Q191 223 185 223 Q179 223 174.5 218.5 Q170 214 170 208 Z M170 311 Q170 305 174.5 300.5 Q179 296 185 296 Q191 296 195.5 300.5 Q200 305 200 311 L420 311 Q420 305 424.5 300.5 Q429 296 435 296 Q441 296 445.5 300.5 Q450 305 450 311 Q450 317 445.5 321.5 Q441 326 435 326 Q432 326 431 325 Q421 360 390.5 386.5 Q360 413 309 413 Q258 413 227.5 387 Q197 361 187 326 L185 326 Q179 326 174.5 321.5 Q170 317 170 311 Z " />
<glyph glyph-name="eacute" unicode="&#xe9;" horiz-adv-x="608" d="M310 565 L277 598 Q313 648 333.5 676 Q354 704 364.5 718 Q375 732 378 736 Q381 740 383 741 Q398 756 418 756 Q438 756 453 741 Q468 726 468 706 Q468 686 453 671 L310 565 Z M170 208 Q170 202 174.5 197.5 Q179 193 185 193 L187 193 Q197 155 233 132.5 Q269 110 312 110 Q348 110 380.5 124.5 Q413 139 435 164 L529 90 Q491 44 434 18 Q377 -8 311 -8 Q267 -8 221 6.5 Q175 21 137.5 53 Q100 85 76 135 Q52 185 52 256 Q52 313 70.5 361 Q89 409 122.5 444.5 Q156 480 203 499.5 Q250 519 307 519 Q364 519 411.5 499.5 Q459 480 494 445.5 Q529 411 548.5 362.5 Q568 314 568 256 Q568 243 565.5 229.5 Q563 216 560 208 L200 208 Q200 214 195.5 218.5 Q191 223 185 223 Q179 223 174.5 218.5 Q170 214 170 208 Z M170 311 Q170 305 174.5 300.5 Q179 296 185 296 Q191 296 195.5 300.5 Q200 305 200 311 L420 311 Q420 305 424.5 300.5 Q429 296 435 296 Q441 296 445.5 300.5 Q450 305 450 311 Q450 317 445.5 321.5 Q441 326 435 326 Q432 326 431 325 Q421 360 390.5 386.5 Q360 413 309 413 Q258 413 227.5 387 Q197 361 187 326 L185 326 Q179 326 174.5 321.5 Q170 317 170 311 Z " />
<glyph glyph-name="ecircumflex" unicode="&#xea;" horiz-adv-x="608" d="M304 655 L214 564 L169 609 L305 745 L441 609 L396 564 L304 655 Z M170 208 Q170 202 174.5 197.5 Q179 193 185 193 L187 193 Q197 155 233 132.5 Q269 110 312 110 Q348 110 380.5 124.5 Q413 139 435 164 L529 90 Q491 44 434 18 Q377 -8 311 -8 Q267 -8 221 6.5 Q175 21 137.5 53 Q100 85 76 135 Q52 185 52 256 Q52 313 70.5 361 Q89 409 122.5 444.5 Q156 480 203 499.5 Q250 519 307 519 Q364 519 411.5 499.5 Q459 480 494 445.5 Q529 411 548.5 362.5 Q568 314 568 256 Q568 243 565.5 229.5 Q563 216 560 208 L200 208 Q200 214 195.5 218.5 Q191 223 185 223 Q179 223 174.5 218.5 Q170 214 170 208 Z M170 311 Q170 305 174.5 300.5 Q179 296 185 296 Q191 296 195.5 300.5 Q200 305 200 311 L420 311 Q420 305 424.5 300.5 Q429 296 435 296 Q441 296 445.5 300.5 Q450 305 450 311 Q450 317 445.5 321.5 Q441 326 435 326 Q432 326 431 325 Q421 360 390.5 386.5 Q360 413 309 413 Q258 413 227.5 387 Q197 361 187 326 L185 326 Q179 326 174.5 321.5 Q170 317 170 311 Z " />
<glyph glyph-name="edieresis" unicode="&#xeb;" horiz-adv-x="608" d="M99 663 Q99 699 124.5 724.5 Q150 750 186 750 Q222 750 247.5 724.5 Q273 699 273 663 Q273 627 247.5 601.5 Q222 576 186 576 Q150 576 124.5 601.5 Q99 627 99 663 Z M337 663 Q337 699 362.5 724.5 Q388 750 424 750 Q460 750 485.5 724.5 Q511 699 511 663 Q511 627 485.5 601.5 Q460 576 424 576 Q388 576 362.5 601.5 Q337 627 337 663 Z M170 208 Q170 202 174.5 197.5 Q179 193 185 193 L187 193 Q197 155 233 132.5 Q269 110 312 110 Q348 110 380.5 124.5 Q413 139 435 164 L529 90 Q491 44 434 18 Q377 -8 311 -8 Q267 -8 221 6.5 Q175 21 137.5 53 Q100 85 76 135 Q52 185 52 256 Q52 313 70.5 361 Q89 409 122.5 444.5 Q156 480 203 499.5 Q250 519 307 519 Q364 519 411.5 499.5 Q459 480 494 445.5 Q529 411 548.5 362.5 Q568 314 568 256 Q568 243 565.5 229.5 Q563 216 560 208 L200 208 Q200 214 195.5 218.5 Q191 223 185 223 Q179 223 174.5 218.5 Q170 214 170 208 Z M170 311 Q170 305 174.5 300.5 Q179 296 185 296 Q191 296 195.5 300.5 Q200 305 200 311 L420 311 Q420 305 424.5 300.5 Q429 296 435 296 Q441 296 445.5 300.5 Q450 305 450 311 Q450 317 445.5 321.5 Q441 326 435 326 Q432 326 431 325 Q421 360 390.5 386.5 Q360 413 309 413 Q258 413 227.5 387 Q197 361 187 326 L185 326 Q179 326 174.5 321.5 Q170 317 170 311 Z " />
<glyph glyph-name="igrave" unicode="&#xec;" horiz-adv-x="344" d="M237 512 L237 0 L107 0 L107 512 L237 512 Z M24 671 Q9 686 9 706 Q9 726 24 741 Q39 756 59 756 Q79 756 94 741 Q96 740 99 736 Q102 732 112.5 718 Q123 704 143.5 676 Q164 648 200 598 L167 565 L24 671 Z " />
<glyph glyph-name="iacute" unicode="&#xed;" horiz-adv-x="344" d="M237 512 L237 0 L107 0 L107 512 L237 512 Z M177 565 L144 598 Q180 648 200.5 676 Q221 704 231.5 718 Q242 732 245 736 Q248 740 250 741 Q265 756 285 756 Q305 756 320 741 Q335 726 335 706 Q335 686 320 671 L177 565 Z " />
<glyph glyph-name="icircumflex" unicode="&#xee;" horiz-adv-x="344" d="M237 512 L237 0 L107 0 L107 512 L237 512 Z M171 655 L81 564 L36 609 L172 745 L308 609 L263 564 L171 655 Z " />
<glyph glyph-name="idieresis" unicode="&#xef;" horiz-adv-x="344" d="M237 512 L237 0 L107 0 L107 512 L237 512 Z M-34 663 Q-34 699 -8.5 724.5 Q17 750 53 750 Q89 750 114.5 724.5 Q140 699 140 663 Q140 627 114.5 601.5 Q89 576 53 576 Q17 576 -8.5 601.5 Q-34 627 -34 663 Z M204 663 Q204 699 229.5 724.5 Q255 750 291 750 Q327 750 352.5 724.5 Q378 699 378 663 Q378 627 352.5 601.5 Q327 576 291 576 Q255 576 229.5 601.5 Q204 627 204 663 Z " />
<glyph glyph-name="eth" unicode="&#xf0;" horiz-adv-x="648" d="M384 608 Q384 602 388.5 597.5 Q393 593 399 593 Q401 593 407 595 L525 409 Q547 375 561.5 337 Q576 299 576 256 Q576 203 556 156.5 Q536 110 501 75 Q466 40 419.5 20 Q373 0 320 0 Q267 0 220.5 20 Q174 40 139 75 Q104 110 84 156.5 Q64 203 64 256 Q64 309 83 353 Q102 397 135 429.5 Q168 462 212.5 480.5 Q257 499 308 502 Q308 496 312.5 491.5 Q317 487 323 487 Q329 487 333.5 491.5 Q338 496 338 502 Q338 508 333.5 512.5 Q329 517 323 517 Q318 517 315 514 L278 576 L174 548 L154 623 L220 641 Q224 630 235 630 Q241 630 245.5 634.5 Q250 639 250 645 Q250 651 245.5 655.5 Q241 660 235 660 Q230 660 227 657 L169 754 L308 754 L356 677 L457 704 L477 629 L413 612 Q409 623 399 623 Q393 623 388.5 618.5 Q384 614 384 608 Z M192 256 Q192 230 202 206.5 Q212 183 229.5 165.5 Q247 148 270.5 138 Q294 128 320 128 Q347 128 370 138 Q393 148 410.5 165.5 Q428 183 438 206.5 Q448 230 448 256 Q448 282 438 305.5 Q428 329 410.5 346.5 Q393 364 369.5 374 Q346 384 320 384 Q293 384 270 374 Q247 364 229.5 346.5 Q212 329 202 305.5 Q192 282 192 256 Z " />
<glyph glyph-name="ntilde" unicode="&#xf1;" horiz-adv-x="667" d="M398 684 Q436 684 464 657.5 Q492 631 494 593 L430 593 Q430 607 421 616 Q412 625 398 625 Q387 625 377.5 617.5 Q368 610 357 600.5 Q346 591 331.5 583.5 Q317 576 294 576 Q256 576 228 602.5 Q200 629 198 667 L262 667 Q262 653 271 644 Q280 635 294 635 Q305 635 314.5 642.5 Q324 650 335 659.5 Q346 669 361 676.5 Q376 684 398 684 Z M203 450 Q203 444 207.5 439.5 Q212 435 218 435 Q224 435 228.5 439.5 Q233 444 233 450 Q233 454 229 460 Q258 484 292.5 498 Q327 512 366 512 Q415 512 458 492 Q501 472 533 437.5 Q565 403 583.5 356 Q602 309 602 256 L602 0 L474 0 L474 256 Q474 283 464 306 Q454 329 436.5 346.5 Q419 364 396 374 Q373 384 346 384 Q320 384 297.5 374.5 Q275 365 257.5 348.5 Q240 332 229.5 309.5 Q219 287 218 261 L218 0 L90 0 L90 512 L218 512 L218 465 Q212 465 207.5 460.5 Q203 456 203 450 Z " />
<glyph glyph-name="ograve" unicode="&#xf2;" horiz-adv-x="622" d="M50 256 Q50 310 70.5 358 Q91 406 126 441 Q161 476 209 496.5 Q257 517 311 517 Q365 517 413 496.5 Q461 476 496 441 Q531 406 551.5 358 Q572 310 572 256 Q572 202 551.5 154 Q531 106 496 71 Q461 36 413 15.5 Q365 -5 311 -5 Q257 -5 209 15.5 Q161 36 126 71 Q91 106 70.5 154 Q50 202 50 256 Z M163 671 Q148 686 148 706 Q148 726 163 741 Q178 756 198 756 Q218 756 233 741 Q235 740 238 736 Q241 732 251.5 718 Q262 704 282.5 676 Q303 648 339 598 L306 565 L163 671 Z M177 256 Q177 229 187.5 204.5 Q198 180 216.5 161.5 Q235 143 259.5 132.5 Q284 122 311 122 Q338 122 362.5 132.5 Q387 143 405.5 161.5 Q424 180 434.5 204.5 Q445 229 445 256 Q445 283 434.5 307.5 Q424 332 405.5 350.5 Q387 369 362.5 379.5 Q338 390 311 390 Q284 390 259.5 379.5 Q235 369 216.5 350.5 Q198 332 187.5 307.5 Q177 283 177 256 Z " />
<glyph glyph-name="oacute" unicode="&#xf3;" horiz-adv-x="622" d="M50 256 Q50 310 70.5 358 Q91 406 126 441 Q161 476 209 496.5 Q257 517 311 517 Q365 517 413 496.5 Q461 476 496 441 Q531 406 551.5 358 Q572 310 572 256 Q572 202 551.5 154 Q531 106 496 71 Q461 36 413 15.5 Q365 -5 311 -5 Q257 -5 209 15.5 Q161 36 126 71 Q91 106 70.5 154 Q50 202 50 256 Z M316 565 L283 598 Q319 648 339.5 676 Q360 704 370.5 718 Q381 732 384 736 Q387 740 389 741 Q404 756 424 756 Q444 756 459 741 Q474 726 474 706 Q474 686 459 671 L316 565 Z M177 256 Q177 229 187.5 204.5 Q198 180 216.5 161.5 Q235 143 259.5 132.5 Q284 122 311 122 Q338 122 362.5 132.5 Q387 143 405.5 161.5 Q424 180 434.5 204.5 Q445 229 445 256 Q445 283 434.5 307.5 Q424 332 405.5 350.5 Q387 369 362.5 379.5 Q338 390 311 390 Q284 390 259.5 379.5 Q235 369 216.5 350.5 Q198 332 187.5 307.5 Q177 283 177 256 Z " />
<glyph glyph-name="ocircumflex" unicode="&#xf4;" horiz-adv-x="622" d="M50 256 Q50 310 70.5 358 Q91 406 126 441 Q161 476 209 496.5 Q257 517 311 517 Q365 517 413 496.5 Q461 476 496 441 Q531 406 551.5 358 Q572 310 572 256 Q572 202 551.5 154 Q531 106 496 71 Q461 36 413 15.5 Q365 -5 311 -5 Q257 -5 209 15.5 Q161 36 126 71 Q91 106 70.5 154 Q50 202 50 256 Z M310 655 L220 564 L175 609 L311 745 L447 609 L402 564 L310 655 Z M177 256 Q177 229 187.5 204.5 Q198 180 216.5 161.5 Q235 143 259.5 132.5 Q284 122 311 122 Q338 122 362.5 132.5 Q387 143 405.5 161.5 Q424 180 434.5 204.5 Q445 229 445 256 Q445 283 434.5 307.5 Q424 332 405.5 350.5 Q387 369 362.5 379.5 Q338 390 311 390 Q284 390 259.5 379.5 Q235 369 216.5 350.5 Q198 332 187.5 307.5 Q177 283 177 256 Z " />
<glyph glyph-name="otilde" unicode="&#xf5;" horiz-adv-x="622" d="M50 256 Q50 310 70.5 358 Q91 406 126 441 Q161 476 209 496.5 Q257 517 311 517 Q365 517 413 496.5 Q461 476 496 441 Q531 406 551.5 358 Q572 310 572 256 Q572 202 551.5 154 Q531 106 496 71 Q461 36 413 15.5 Q365 -5 311 -5 Q257 -5 209 15.5 Q161 36 126 71 Q91 106 70.5 154 Q50 202 50 256 Z M363 684 Q401 684 429 657.5 Q457 631 459 593 L395 593 Q395 607 386 616 Q377 625 363 625 Q352 625 342.5 617.5 Q333 610 322 600.5 Q311 591 296.5 583.5 Q282 576 259 576 Q221 576 193 602.5 Q165 629 163 667 L227 667 Q227 653 236 644 Q245 635 259 635 Q270 635 279.5 642.5 Q289 650 300 659.5 Q311 669 326 676.5 Q341 684 363 684 Z M177 256 Q177 229 187.5 204.5 Q198 180 216.5 161.5 Q235 143 259.5 132.5 Q284 122 311 122 Q338 122 362.5 132.5 Q387 143 405.5 161.5 Q424 180 434.5 204.5 Q445 229 445 256 Q445 283 434.5 307.5 Q424 332 405.5 350.5 Q387 369 362.5 379.5 Q338 390 311 390 Q284 390 259.5 379.5 Q235 369 216.5 350.5 Q198 332 187.5 307.5 Q177 283 177 256 Z " />
<glyph glyph-name="odieresis" unicode="&#xf6;" horiz-adv-x="622" d="M50 256 Q50 310 70.5 358 Q91 406 126 441 Q161 476 209 496.5 Q257 517 311 517 Q365 517 413 496.5 Q461 476 496 441 Q531 406 551.5 358 Q572 310 572 256 Q572 202 551.5 154 Q531 106 496 71 Q461 36 413 15.5 Q365 -5 311 -5 Q257 -5 209 15.5 Q161 36 126 71 Q91 106 70.5 154 Q50 202 50 256 Z M105 663 Q105 699 130.5 724.5 Q156 750 192 750 Q228 750 253.5 724.5 Q279 699 279 663 Q279 627 253.5 601.5 Q228 576 192 576 Q156 576 130.5 601.5 Q105 627 105 663 Z M343 663 Q343 699 368.5 724.5 Q394 750 430 750 Q466 750 491.5 724.5 Q517 699 517 663 Q517 627 491.5 601.5 Q466 576 430 576 Q394 576 368.5 601.5 Q343 627 343 663 Z M177 256 Q177 229 187.5 204.5 Q198 180 216.5 161.5 Q235 143 259.5 132.5 Q284 122 311 122 Q338 122 362.5 132.5 Q387 143 405.5 161.5 Q424 180 434.5 204.5 Q445 229 445 256 Q445 283 434.5 307.5 Q424 332 405.5 350.5 Q387 369 362.5 379.5 Q338 390 311 390 Q284 390 259.5 379.5 Q235 369 216.5 350.5 Q198 332 187.5 307.5 Q177 283 177 256 Z " />
<glyph glyph-name="divide" unicode="&#xf7;" horiz-adv-x="612" d="M50 192 L50 320 L562 320 L562 192 L50 192 Z M219 55 Q219 91 244.5 116.5 Q270 142 306 142 Q342 142 367.5 116.5 Q393 91 393 55 Q393 19 367.5 -6.5 Q342 -32 306 -32 Q270 -32 244.5 -6.5 Q219 19 219 55 Z M219 457 Q219 493 244.5 518.5 Q270 544 306 544 Q342 544 367.5 518.5 Q393 493 393 457 Q393 421 367.5 395.5 Q342 370 306 370 Q270 370 244.5 395.5 Q219 421 219 457 Z " />
<glyph glyph-name="oslash" unicode="&#xf8;" horiz-adv-x="622" d="M444 471 Q444 465 448.5 460.5 Q453 456 459 456 Q465 456 469.5 460.5 Q474 465 474 471 Q474 476 469 481 L504 516 L571 449 L536 414 Q531 419 526 419 Q520 419 515.5 414.5 Q511 410 511 404 Q511 398 515.5 393.5 Q520 389 526 389 Q528 389 534 391 Q552 362 562 327.5 Q572 293 572 256 Q572 202 551.5 154 Q531 106 496 71 Q461 36 413 15.5 Q365 -5 311 -5 Q236 -5 174 32 Q177 35 177 40 Q177 46 172.5 50.5 Q168 55 162 55 Q156 55 151.5 50.5 Q147 46 147 40 Q147 33 151 29 L118 -4 L51 63 L84 96 Q88 92 95 92 Q101 92 105.5 96.5 Q110 101 110 107 Q110 113 105.5 117.5 Q101 122 95 122 Q90 122 87 119 Q50 181 50 256 Q50 310 70.5 358 Q91 406 126 441 Q161 476 209 496.5 Q257 517 311 517 Q348 517 382.5 507 Q417 497 446 479 Q444 473 444 471 Z M176 204 Q176 198 180.5 193.5 Q185 189 191 189 Q197 189 201.5 193.5 Q206 198 206 204 Q206 209 201 214 L362 375 Q351 380 338 383.5 Q325 387 311 387 Q284 387 260 376.5 Q236 366 218.5 348.5 Q201 331 190.5 307 Q180 283 180 256 Q180 236 186 218 Q176 215 176 204 Z M244 136 Q244 130 248.5 125.5 Q253 121 259 121 Q270 121 273 131 Q291 125 311 125 Q338 125 362 135.5 Q386 146 403.5 163.5 Q421 181 431.5 205 Q442 229 442 256 Q442 270 438.5 283 Q435 296 430 307 L269 146 Q264 151 259 151 Q253 151 248.5 146.5 Q244 142 244 136 Z " />
<glyph glyph-name="ugrave" unicode="&#xf9;" horiz-adv-x="662" d="M175 671 Q160 686 160 706 Q160 726 175 741 Q190 756 210 756 Q230 756 245 741 Q247 740 250 736 Q253 732 263.5 718 Q274 704 294.5 676 Q315 648 351 598 L318 565 L175 671 Z M429 62 Q429 55 433 52 Q404 28 369.5 14 Q335 0 296 0 Q247 0 204 20 Q161 40 129 74.5 Q97 109 78.5 156 Q60 203 60 256 L60 512 L193 512 L193 251 Q193 224 202 201 Q211 178 227.5 160.5 Q244 143 266.5 133 Q289 123 316 123 Q342 123 365 132.5 Q388 142 405 158.5 Q422 175 432.5 197.5 Q443 220 444 246 L444 512 L576 512 L576 0 L444 0 L444 47 Q450 47 454.5 51.5 Q459 56 459 62 Q459 68 454.5 72.5 Q450 77 444 77 Q438 77 433.5 72.5 Q429 68 429 62 Z " />
<glyph glyph-name="uacute" unicode="&#xfa;" horiz-adv-x="662" d="M319 565 L286 598 Q322 648 342.5 676 Q363 704 373.5 718 Q384 732 387 736 Q390 740 392 741 Q407 756 427 756 Q447 756 462 741 Q477 726 477 706 Q477 686 462 671 L319 565 Z M429 62 Q429 55 433 52 Q404 28 369.5 14 Q335 0 296 0 Q247 0 204 20 Q161 40 129 74.5 Q97 109 78.5 156 Q60 203 60 256 L60 512 L193 512 L193 251 Q193 224 202 201 Q211 178 227.5 160.5 Q244 143 266.5 133 Q289 123 316 123 Q342 123 365 132.5 Q388 142 405 158.5 Q422 175 432.5 197.5 Q443 220 444 246 L444 512 L576 512 L576 0 L444 0 L444 47 Q450 47 454.5 51.5 Q459 56 459 62 Q459 68 454.5 72.5 Q450 77 444 77 Q438 77 433.5 72.5 Q429 68 429 62 Z " />
<glyph glyph-name="ucircumflex" unicode="&#xfb;" horiz-adv-x="662" d="M322 655 L232 564 L187 609 L323 745 L459 609 L414 564 L322 655 Z M429 62 Q429 55 433 52 Q404 28 369.5 14 Q335 0 296 0 Q247 0 204 20 Q161 40 129 74.5 Q97 109 78.5 156 Q60 203 60 256 L60 512 L193 512 L193 251 Q193 224 202 201 Q211 178 227.5 160.5 Q244 143 266.5 133 Q289 123 316 123 Q342 123 365 132.5 Q388 142 405 158.5 Q422 175 432.5 197.5 Q443 220 444 246 L444 512 L576 512 L576 0 L444 0 L444 47 Q450 47 454.5 51.5 Q459 56 459 62 Q459 68 454.5 72.5 Q450 77 444 77 Q438 77 433.5 72.5 Q429 68 429 62 Z " />
<glyph glyph-name="udieresis" unicode="&#xfc;" horiz-adv-x="662" d="M117 663 Q117 699 142.5 724.5 Q168 750 204 750 Q240 750 265.5 724.5 Q291 699 291 663 Q291 627 265.5 601.5 Q240 576 204 576 Q168 576 142.5 601.5 Q117 627 117 663 Z M355 663 Q355 699 380.5 724.5 Q406 750 442 750 Q478 750 503.5 724.5 Q529 699 529 663 Q529 627 503.5 601.5 Q478 576 442 576 Q406 576 380.5 601.5 Q355 627 355 663 Z M429 62 Q429 55 433 52 Q404 28 369.5 14 Q335 0 296 0 Q247 0 204 20 Q161 40 129 74.5 Q97 109 78.5 156 Q60 203 60 256 L60 512 L193 512 L193 251 Q193 224 202 201 Q211 178 227.5 160.5 Q244 143 266.5 133 Q289 123 316 123 Q342 123 365 132.5 Q388 142 405 158.5 Q422 175 432.5 197.5 Q443 220 444 246 L444 512 L576 512 L576 0 L444 0 L444 47 Q450 47 454.5 51.5 Q459 56 459 62 Q459 68 454.5 72.5 Q450 77 444 77 Q438 77 433.5 72.5 Q429 68 429 62 Z " />
<glyph glyph-name="yacute" unicode="&#xfd;" horiz-adv-x="579" d="M294 565 L261 598 Q297 648 317.5 676 Q338 704 348.5 718 Q359 732 362 736 Q365 740 367 741 Q382 756 402 756 Q422 756 437 741 Q452 726 452 706 Q452 686 437 671 L294 565 Z M274 138 Q274 132 278.5 127.5 Q283 123 289 123 Q295 123 299.5 127.5 Q304 132 304 138 Q304 146 296 151 L414 512 L559 512 L354 -47 L354 -256 L226 -256 L226 -50 L20 512 L165 512 L282 151 Q274 148 274 138 Z " />
<glyph glyph-name="ydieresis" unicode="&#xff;" horiz-adv-x="579" d="M321 663 Q321 699 346.5 724.5 Q372 750 408 750 Q444 750 469.5 724.5 Q495 699 495 663 Q495 627 469.5 601.5 Q444 576 408 576 Q372 576 346.5 601.5 Q321 627 321 663 Z M83 663 Q83 699 108.5 724.5 Q134 750 170 750 Q206 750 231.5 724.5 Q257 699 257 663 Q257 627 231.5 601.5 Q206 576 170 576 Q134 576 108.5 601.5 Q83 627 83 663 Z M274 138 Q274 132 278.5 127.5 Q283 123 289 123 Q295 123 299.5 127.5 Q304 132 304 138 Q304 146 296 151 L414 512 L559 512 L354 -47 L354 -256 L226 -256 L226 -50 L20 512 L165 512 L282 151 Q274 148 274 138 Z " />
<glyph glyph-name="Amacron" unicode="&#x100;" horiz-adv-x="744" d="M528 799 L216 799 L216 877 L528 877 L528 799 Z M204 138 Q204 129 213 124 L161 0 L17 0 L314 735 L429 735 L727 0 L583 0 L530 124 Q539 129 539 138 Q539 144 534.5 148.5 Q530 153 524 153 Q518 153 513.5 148.5 Q509 144 509 138 L234 138 Q234 144 229.5 148.5 Q225 153 219 153 Q213 153 208.5 148.5 Q204 144 204 138 Z M357 543 Q357 533 366 529 L268 270 Q267 270 266 270.5 Q265 271 263 271 Q257 271 252.5 266.5 Q248 262 248 256 Q248 250 252.5 245.5 Q257 241 263 241 Q269 241 273.5 245.5 Q278 250 278 256 L466 256 Q466 250 470.5 245.5 Q475 241 481 241 Q487 241 491.5 245.5 Q496 250 496 256 Q496 262 491.5 266.5 Q487 271 481 271 Q479 271 478 270.5 Q477 270 475 270 L377 529 Q387 533 387 543 Q387 549 382.5 553.5 Q378 558 372 558 Q366 558 361.5 553.5 Q357 549 357 543 Z " />
<glyph glyph-name="amacron" unicode="&#x101;" horiz-adv-x="587" d="M457 576 L145 576 L145 654 L457 654 L457 576 Z M376 64 Q376 57 382 52 Q356 22 317 7.5 Q278 -7 240 -7 Q198 -7 163.5 4 Q129 15 103.5 35.5 Q78 56 64 84.5 Q50 113 50 149 Q50 224 100.5 267 Q151 310 243 310 L376 310 Q376 304 380.5 299.5 Q385 295 391 295 Q397 295 401.5 299.5 Q406 304 406 310 Q406 316 401.5 320.5 Q397 325 391 325 L391 334 Q391 367 365 389.5 Q339 412 295 412 Q260 412 237 397.5 Q214 383 194 354 L98 422 Q109 443 128.5 462 Q148 481 173.5 495.5 Q199 510 230 518.5 Q261 527 294 527 Q345 527 386 511.5 Q427 496 456.5 468.5 Q486 441 501.5 403 Q517 365 517 320 L517 0 L391 0 L391 49 Q397 49 401.5 53.5 Q406 58 406 64 Q406 70 401.5 74.5 Q397 79 391 79 Q385 79 380.5 74.5 Q376 70 376 64 Z M247 204 Q223 204 202 194 Q181 184 181 154 Q181 127 205 113 Q229 99 264 99 Q282 99 302.5 104 Q323 109 341.5 119.5 Q360 130 373.5 147.5 Q387 165 390 189 L391 189 Q397 189 401.5 193.5 Q406 198 406 204 Q406 210 401.5 214.5 Q397 219 391 219 Q385 219 380.5 214.5 Q376 210 376 204 L247 204 Z " />
<glyph glyph-name="Abreve" unicode="&#x102;" horiz-adv-x="744" d="M276 907 L340 907 L340 890 Q340 876 349 867 Q358 858 372 858 Q386 858 395 867 Q404 876 404 890 L404 907 L468 907 L468 895 Q468 855 440 827 Q412 799 372 799 Q332 799 304 827 Q276 855 276 895 L276 907 Z M204 138 Q204 129 213 124 L161 0 L17 0 L314 735 L429 735 L727 0 L583 0 L530 124 Q539 129 539 138 Q539 144 534.5 148.5 Q530 153 524 153 Q518 153 513.5 148.5 Q509 144 509 138 L234 138 Q234 144 229.5 148.5 Q225 153 219 153 Q213 153 208.5 148.5 Q204 144 204 138 Z M357 543 Q357 533 366 529 L268 270 Q267 270 266 270.5 Q265 271 263 271 Q257 271 252.5 266.5 Q248 262 248 256 Q248 250 252.5 245.5 Q257 241 263 241 Q269 241 273.5 245.5 Q278 250 278 256 L466 256 Q466 250 470.5 245.5 Q475 241 481 241 Q487 241 491.5 245.5 Q496 250 496 256 Q496 262 491.5 266.5 Q487 271 481 271 Q479 271 478 270.5 Q477 270 475 270 L377 529 Q387 533 387 543 Q387 549 382.5 553.5 Q378 558 372 558 Q366 558 361.5 553.5 Q357 549 357 543 Z " />
<glyph glyph-name="abreve" unicode="&#x103;" horiz-adv-x="587" d="M205 684 L269 684 L269 667 Q269 653 278 644 Q287 635 301 635 Q315 635 324 644 Q333 653 333 667 L333 684 L397 684 L397 672 Q397 632 369 604 Q341 576 301 576 Q261 576 233 604 Q205 632 205 672 L205 684 Z M376 64 Q376 57 382 52 Q356 22 317 7.5 Q278 -7 240 -7 Q198 -7 163.5 4 Q129 15 103.5 35.5 Q78 56 64 84.5 Q50 113 50 149 Q50 224 100.5 267 Q151 310 243 310 L376 310 Q376 304 380.5 299.5 Q385 295 391 295 Q397 295 401.5 299.5 Q406 304 406 310 Q406 316 401.5 320.5 Q397 325 391 325 L391 334 Q391 367 365 389.5 Q339 412 295 412 Q260 412 237 397.5 Q214 383 194 354 L98 422 Q109 443 128.5 462 Q148 481 173.5 495.5 Q199 510 230 518.5 Q261 527 294 527 Q345 527 386 511.5 Q427 496 456.5 468.5 Q486 441 501.5 403 Q517 365 517 320 L517 0 L391 0 L391 49 Q397 49 401.5 53.5 Q406 58 406 64 Q406 70 401.5 74.5 Q397 79 391 79 Q385 79 380.5 74.5 Q376 70 376 64 Z M247 204 Q223 204 202 194 Q181 184 181 154 Q181 127 205 113 Q229 99 264 99 Q282 99 302.5 104 Q323 109 341.5 119.5 Q360 130 373.5 147.5 Q387 165 390 189 L391 189 Q397 189 401.5 193.5 Q406 198 406 204 Q406 210 401.5 214.5 Q397 219 391 219 Q385 219 380.5 214.5 Q376 210 376 204 L247 204 Z " />
<glyph glyph-name="Aogonek" unicode="&#x104;" horiz-adv-x="744" d="M204 138 Q204 129 213 124 L161 0 L17 0 L314 735 L429 735 L727 0 L590 0 Q565 0 548.5 -19.5 Q532 -39 532 -64 Q532 -91 550.5 -109.5 Q569 -128 596 -128 Q622 -128 641 -109.5 Q660 -91 660 -64 L724 -64 Q724 -91 714 -114 Q704 -137 686.5 -154.5 Q669 -172 646 -182 Q623 -192 596 -192 Q569 -192 546 -182 Q523 -172 505.5 -154.5 Q488 -137 478 -114 Q468 -91 468 -64 Q468 -23 488.5 7.5 Q509 38 544 53 Q547 43 558 43 Q564 43 568.5 47.5 Q573 52 573 58 Q573 64 568.5 68.5 Q564 73 558 73 Q556 73 552 71 L530 124 Q539 129 539 138 Q539 144 534.5 148.5 Q530 153 524 153 Q518 153 513.5 148.5 Q509 144 509 138 L234 138 Q234 144 229.5 148.5 Q225 153 219 153 Q213 153 208.5 148.5 Q204 144 204 138 Z M357 543 Q357 533 366 529 L268 270 Q267 270 266 270.5 Q265 271 263 271 Q257 271 252.5 266.5 Q248 262 248 256 Q248 250 252.5 245.5 Q257 241 263 241 Q269 241 273.5 245.5 Q278 250 278 256 L466 256 Q466 250 470.5 245.5 Q475 241 481 241 Q487 241 491.5 245.5 Q496 250 496 256 Q496 262 491.5 266.5 Q487 271 481 271 Q479 271 478 270.5 Q477 270 475 270 L377 529 Q387 533 387 543 Q387 549 382.5 553.5 Q378 558 372 558 Q366 558 361.5 553.5 Q357 549 357 543 Z " />
<glyph glyph-name="aogonek" unicode="&#x105;" horiz-adv-x="587" d="M260 -6 Q255 -6 250 -6.5 Q245 -7 240 -7 Q198 -7 163.5 4 Q129 15 103.5 35.5 Q78 56 64 84.5 Q50 113 50 149 Q50 224 100.5 267 Q151 310 243 310 L376 310 Q376 304 380.5 299.5 Q385 295 391 295 Q397 295 401.5 299.5 Q406 304 406 310 Q406 316 401.5 320.5 Q397 325 391 325 L391 334 Q391 367 365 389.5 Q339 412 295 412 Q260 412 237 397.5 Q214 383 194 354 L98 422 Q109 443 128.5 462 Q148 481 173.5 495.5 Q199 510 230 518.5 Q261 527 294 527 Q345 527 386 511.5 Q427 496 456.5 468.5 Q486 441 501.5 403 Q517 365 517 320 L517 0 L391 0 L391 49 Q397 49 401.5 53.5 Q406 58 406 64 Q406 70 401.5 74.5 Q397 79 391 79 Q385 79 380.5 74.5 Q376 70 376 64 Q376 57 380 53 Q356 29 340.5 -0.5 Q325 -30 325 -64 Q325 -91 343.5 -109.5 Q362 -128 389 -128 Q415 -128 434 -109.5 Q453 -91 453 -64 L517 -64 Q517 -91 507 -114 Q497 -137 479.5 -154.5 Q462 -172 439 -182 Q416 -192 389 -192 Q362 -192 339 -182 Q316 -172 298.5 -154.5 Q281 -137 271 -114 Q261 -91 261 -64 Q261 -41 269 -17 Q273 -19 275 -19 Q281 -19 285.5 -14.5 Q290 -10 290 -4 Q290 2 285.5 6.5 Q281 11 275 11 Q269 11 264.5 6.5 Q260 2 260 -4 L260 -6 Z M247 204 Q223 204 202 194 Q181 184 181 154 Q181 127 205 113 Q229 99 264 99 Q282 99 302.5 104 Q323 109 341.5 119.5 Q360 130 373.5 147.5 Q387 165 390 189 L391 189 Q397 189 401.5 193.5 Q406 198 406 204 Q406 210 401.5 214.5 Q397 219 391 219 Q385 219 380.5 214.5 Q376 210 376 204 L247 204 Z " />
<glyph glyph-name="Cacute" unicode="&#x106;" horiz-adv-x="730" d="M380 788 L347 821 Q383 871 403.5 899 Q424 927 434.5 941 Q445 955 448 959 Q451 963 453 964 Q468 979 488 979 Q508 979 523 964 Q538 949 538 929 Q538 909 523 894 L380 788 Z M191 367 Q191 316 210.5 271.5 Q230 227 263.5 193 Q297 159 342.5 139.5 Q388 120 439 120 Q489 120 532.5 140.5 Q576 161 611 194 L700 99 Q649 48 580.5 18.5 Q512 -11 433 -11 Q355 -11 286 19 Q217 49 166 100 Q115 151 85 220 Q55 289 55 367 Q55 445 85 514 Q115 583 166 634.5 Q217 686 286 716 Q355 746 433 746 Q511 746 579.5 716.5 Q648 687 700 636 L610 541 Q576 573 532.5 593.5 Q489 614 439 614 Q388 614 342.5 594.5 Q297 575 263.5 541.5 Q230 508 210.5 463 Q191 418 191 367 Z " />
<glyph glyph-name="cacute" unicode="&#x107;" horiz-adv-x="556" d="M283 565 L250 598 Q286 648 306.5 676 Q327 704 337.5 718 Q348 732 351 736 Q354 740 356 741 Q371 756 391 756 Q411 756 426 741 Q441 726 441 706 Q441 686 426 671 L283 565 Z M185 256 Q185 229 195 206 Q205 183 222.5 165.5 Q240 148 263 138 Q286 128 313 128 Q343 128 369 141 Q395 154 413 176 L511 95 Q476 51 424 25.5 Q372 0 311 0 Q258 0 211 20 Q164 40 129.5 74.5 Q95 109 75 156 Q55 203 55 256 Q55 309 75 356 Q95 403 129.5 437.5 Q164 472 211 492 Q258 512 311 512 Q372 512 424 486.5 Q476 461 511 416 L413 336 Q395 358 369 370.5 Q343 383 313 383 Q286 383 263 373 Q240 363 222.5 346 Q205 329 195 306 Q185 283 185 256 Z " />
<glyph glyph-name="Ccircumflex" unicode="&#x108;" horiz-adv-x="730" d="M414 878 L324 787 L279 832 L415 968 L551 832 L506 787 L414 878 Z M191 367 Q191 316 210.5 271.5 Q230 227 263.5 193 Q297 159 342.5 139.5 Q388 120 439 120 Q489 120 532.5 140.5 Q576 161 611 194 L700 99 Q649 48 580.5 18.5 Q512 -11 433 -11 Q355 -11 286 19 Q217 49 166 100 Q115 151 85 220 Q55 289 55 367 Q55 445 85 514 Q115 583 166 634.5 Q217 686 286 716 Q355 746 433 746 Q511 746 579.5 716.5 Q648 687 700 636 L610 541 Q576 573 532.5 593.5 Q489 614 439 614 Q388 614 342.5 594.5 Q297 575 263.5 541.5 Q230 508 210.5 463 Q191 418 191 367 Z " />
<glyph glyph-name="ccircumflex" unicode="&#x109;" horiz-adv-x="556" d="M317 655 L227 564 L182 609 L318 745 L454 609 L409 564 L317 655 Z M185 256 Q185 229 195 206 Q205 183 222.5 165.5 Q240 148 263 138 Q286 128 313 128 Q343 128 369 141 Q395 154 413 176 L511 95 Q476 51 424 25.5 Q372 0 311 0 Q258 0 211 20 Q164 40 129.5 74.5 Q95 109 75 156 Q55 203 55 256 Q55 309 75 356 Q95 403 129.5 437.5 Q164 472 211 492 Q258 512 311 512 Q372 512 424 486.5 Q476 461 511 416 L413 336 Q395 358 369 370.5 Q343 383 313 383 Q286 383 263 373 Q240 363 222.5 346 Q205 329 195 306 Q185 283 185 256 Z " />
<glyph glyph-name="Cdotaccent" unicode="&#x10a;" horiz-adv-x="730" d="M328 886 Q328 922 353.5 947.5 Q379 973 415 973 Q451 973 476.5 947.5 Q502 922 502 886 Q502 850 476.5 824.5 Q451 799 415 799 Q379 799 353.5 824.5 Q328 850 328 886 Z M191 367 Q191 316 210.5 271.5 Q230 227 263.5 193 Q297 159 342.5 139.5 Q388 120 439 120 Q489 120 532.5 140.5 Q576 161 611 194 L700 99 Q649 48 580.5 18.5 Q512 -11 433 -11 Q355 -11 286 19 Q217 49 166 100 Q115 151 85 220 Q55 289 55 367 Q55 445 85 514 Q115 583 166 634.5 Q217 686 286 716 Q355 746 433 746 Q511 746 579.5 716.5 Q648 687 700 636 L610 541 Q576 573 532.5 593.5 Q489 614 439 614 Q388 614 342.5 594.5 Q297 575 263.5 541.5 Q230 508 210.5 463 Q191 418 191 367 Z " />
<glyph glyph-name="cdotaccent" unicode="&#x10b;" horiz-adv-x="556" d="M221 663 Q221 699 246.5 724.5 Q272 750 308 750 Q344 750 369.5 724.5 Q395 699 395 663 Q395 627 369.5 601.5 Q344 576 308 576 Q272 576 246.5 601.5 Q221 627 221 663 Z M185 256 Q185 229 195 206 Q205 183 222.5 165.5 Q240 148 263 138 Q286 128 313 128 Q343 128 369 141 Q395 154 413 176 L511 95 Q476 51 424 25.5 Q372 0 311 0 Q258 0 211 20 Q164 40 129.5 74.5 Q95 109 75 156 Q55 203 55 256 Q55 309 75 356 Q95 403 129.5 437.5 Q164 472 211 492 Q258 512 311 512 Q372 512 424 486.5 Q476 461 511 416 L413 336 Q395 358 369 370.5 Q343 383 313 383 Q286 383 263 373 Q240 363 222.5 346 Q205 329 195 306 Q185 283 185 256 Z " />
<glyph glyph-name="Ccaron" unicode="&#x10c;" horiz-adv-x="730" d="M416 877 L506 968 L551 923 L415 787 L279 923 L324 968 L416 877 Z M191 367 Q191 316 210.5 271.5 Q230 227 263.5 193 Q297 159 342.5 139.5 Q388 120 439 120 Q489 120 532.5 140.5 Q576 161 611 194 L700 99 Q649 48 580.5 18.5 Q512 -11 433 -11 Q355 -11 286 19 Q217 49 166 100 Q115 151 85 220 Q55 289 55 367 Q55 445 85 514 Q115 583 166 634.5 Q217 686 286 716 Q355 746 433 746 Q511 746 579.5 716.5 Q648 687 700 636 L610 541 Q576 573 532.5 593.5 Q489 614 439 614 Q388 614 342.5 594.5 Q297 575 263.5 541.5 Q230 508 210.5 463 Q191 418 191 367 Z " />
<glyph glyph-name="ccaron" unicode="&#x10d;" horiz-adv-x="556" d="M319 654 L409 745 L454 700 L318 564 L182 700 L227 745 L319 654 Z M185 256 Q185 229 195 206 Q205 183 222.5 165.5 Q240 148 263 138 Q286 128 313 128 Q343 128 369 141 Q395 154 413 176 L511 95 Q476 51 424 25.5 Q372 0 311 0 Q258 0 211 20 Q164 40 129.5 74.5 Q95 109 75 156 Q55 203 55 256 Q55 309 75 356 Q95 403 129.5 437.5 Q164 472 211 492 Q258 512 311 512 Q372 512 424 486.5 Q476 461 511 416 L413 336 Q395 358 369 370.5 Q343 383 313 383 Q286 383 263 373 Q240 363 222.5 346 Q205 329 195 306 Q185 283 185 256 Z " />
<glyph glyph-name="Dcaron" unicode="&#x10e;" horiz-adv-x="729" d="M315 877 L405 968 L450 923 L314 787 L178 923 L223 968 L315 877 Z M95 0 L95 735 L307 735 Q383 735 449.5 706 Q516 677 566 627 Q616 577 645 510.5 Q674 444 674 368 Q674 292 645 225 Q616 158 566 108 Q516 58 449.5 29 Q383 0 307 0 L95 0 Z M218 607 Q218 601 222.5 596.5 Q227 592 233 592 L233 143 Q227 143 222.5 138.5 Q218 134 218 128 Q218 122 222.5 117.5 Q227 113 233 113 Q239 113 243.5 117.5 Q248 122 248 128 L307 128 Q356 128 399.5 147 Q443 166 475.5 198.5 Q508 231 527 275 Q546 319 546 368 Q546 417 527 460.5 Q508 504 475.5 536.5 Q443 569 399.5 588 Q356 607 307 607 L248 607 Q248 613 243.5 617.5 Q239 622 233 622 Q227 622 222.5 617.5 Q218 613 218 607 Z " />
<glyph glyph-name="dcaron" unicode="&#x10f;" horiz-adv-x="823" d="M681 581 Q721 596 736 640 L730 640 Q696 640 676.5 659.5 Q657 679 657 708 Q657 737 676.5 757 Q696 777 729 777 Q764 777 783.5 757 Q803 737 803 708 L803 705 Q803 586 706 537 L681 581 Z M55 256 Q55 309 74.5 356 Q94 403 127 437.5 Q160 472 205 492 Q250 512 301 512 Q341 512 375.5 498 Q410 484 439 460 L439 768 L567 768 L567 0 L439 0 L439 52 Q410 27 375.5 13.5 Q341 0 301 0 Q250 0 205 20 Q160 40 127 74.5 Q94 109 74.5 156 Q55 203 55 256 Z M183 256 Q183 228 193.5 204 Q204 180 222 162 Q240 144 264 133.5 Q288 123 316 123 Q344 123 368 133.5 Q392 144 410 162 Q428 180 438.5 204 Q449 228 449 256 Q449 284 438.5 308 Q428 332 410 350 Q392 368 368 378.5 Q344 389 316 389 Q288 389 264 378.5 Q240 368 222 350 Q204 332 193.5 308 Q183 284 183 256 Z " />
<glyph glyph-name="Dcroat" unicode="&#x110;" horiz-adv-x="729" d="M13 327 L13 405 L80 405 Q80 399 84.5 394.5 Q89 390 95 390 Q101 390 105.5 394.5 Q110 399 110 405 Q110 411 105.5 415.5 Q101 420 95 420 L95 735 L307 735 Q383 735 449.5 706 Q516 677 566 627 Q616 577 645 510.5 Q674 444 674 368 Q674 292 645 225 Q616 158 566 108 Q516 58 449.5 29 Q383 0 307 0 L95 0 L95 312 Q101 312 105.5 316.5 Q110 321 110 327 Q110 333 105.5 337.5 Q101 342 95 342 Q89 342 84.5 337.5 Q80 333 80 327 L13 327 Z M218 405 Q218 399 222.5 394.5 Q227 390 233 390 Q239 390 243.5 394.5 Q248 399 248 405 L325 405 L325 327 L248 327 Q248 333 243.5 337.5 Q239 342 233 342 Q227 342 222.5 337.5 Q218 333 218 327 Q218 321 222.5 316.5 Q227 312 233 312 L233 143 Q227 143 222.5 138.5 Q218 134 218 128 Q218 122 222.5 117.5 Q227 113 233 113 Q239 113 243.5 117.5 Q248 122 248 128 L307 128 Q356 128 399.5 147 Q443 166 475.5 198.5 Q508 231 527 275 Q546 319 546 368 Q546 417 527 460.5 Q508 504 475.5 536.5 Q443 569 399.5 588 Q356 607 307 607 L248 607 Q248 613 243.5 617.5 Q239 622 233 622 Q227 622 222.5 617.5 Q218 613 218 607 Q218 601 222.5 596.5 Q227 592 233 592 L233 420 Q227 420 222.5 415.5 Q218 411 218 405 Z " />
<glyph glyph-name="dcroat" unicode="&#x111;" horiz-adv-x="662" d="M552 654 Q552 648 556.5 643.5 Q561 639 567 639 Q573 639 577.5 643.5 Q582 648 582 654 L656 654 L656 576 L582 576 Q582 582 577.5 586.5 Q573 591 567 591 Q561 591 556.5 586.5 Q552 582 552 576 Q552 570 556.5 565.5 Q561 561 567 561 L567 0 L439 0 L439 37 Q445 37 449.5 41.5 Q454 46 454 52 Q454 58 449.5 62.5 Q445 67 439 67 Q433 67 428.5 62.5 Q424 58 424 52 Q424 47 427 42 Q371 0 301 0 Q250 0 205 20 Q160 40 127 74.5 Q94 109 74.5 156 Q55 203 55 256 Q55 309 74.5 356 Q94 403 127 437.5 Q160 472 205 492 Q250 512 301 512 Q336 512 368 500.5 Q400 489 427 469 Q424 466 424 460 Q424 454 428.5 449.5 Q433 445 439 445 Q445 445 449.5 449.5 Q454 454 454 460 Q454 466 449.5 470.5 Q445 475 439 475 L439 561 Q445 561 449.5 565.5 Q454 570 454 576 Q454 582 449.5 586.5 Q445 591 439 591 Q433 591 428.5 586.5 Q424 582 424 576 L344 576 L344 654 L424 654 Q424 648 428.5 643.5 Q433 639 439 639 Q445 639 449.5 643.5 Q454 648 454 654 Q454 660 449.5 664.5 Q445 669 439 669 L439 768 L567 768 L567 669 Q561 669 556.5 664.5 Q552 660 552 654 Z M183 256 Q183 228 193.5 204 Q204 180 222 162 Q240 144 264 133.5 Q288 123 316 123 Q344 123 368 133.5 Q392 144 410 162 Q428 180 438.5 204 Q449 228 449 256 Q449 284 438.5 308 Q428 332 410 350 Q392 368 368 378.5 Q344 389 316 389 Q288 389 264 378.5 Q240 368 222 350 Q204 332 193.5 308 Q183 284 183 256 Z " />
<glyph glyph-name="Emacron" unicode="&#x112;" horiz-adv-x="603" d="M467 799 L155 799 L155 877 L467 877 L467 799 Z M222 118 Q222 112 226.5 107.5 Q231 103 237 103 Q243 103 247.5 107.5 Q252 112 252 118 L548 118 L548 0 L95 0 L95 735 L548 735 L548 617 L252 617 Q252 623 247.5 627.5 Q243 632 237 632 Q231 632 226.5 627.5 Q222 623 222 617 Q222 611 226.5 606.5 Q231 602 237 602 L237 445 Q231 445 226.5 440.5 Q222 436 222 430 Q222 424 226.5 419.5 Q231 415 237 415 Q243 415 247.5 419.5 Q252 424 252 430 L548 430 L548 313 L252 313 Q252 319 247.5 323.5 Q243 328 237 328 Q231 328 226.5 323.5 Q222 319 222 313 Q222 307 226.5 302.5 Q231 298 237 298 L237 133 Q231 133 226.5 128.5 Q222 124 222 118 Z " />
<glyph glyph-name="emacron" unicode="&#x113;" horiz-adv-x="608" d="M461 576 L149 576 L149 654 L461 654 L461 576 Z M170 208 Q170 202 174.5 197.5 Q179 193 185 193 L187 193 Q197 155 233 132.5 Q269 110 312 110 Q348 110 380.5 124.5 Q413 139 435 164 L529 90 Q491 44 434 18 Q377 -8 311 -8 Q267 -8 221 6.5 Q175 21 137.5 53 Q100 85 76 135 Q52 185 52 256 Q52 313 70.5 361 Q89 409 122.5 444.5 Q156 480 203 499.5 Q250 519 307 519 Q364 519 411.5 499.5 Q459 480 494 445.5 Q529 411 548.5 362.5 Q568 314 568 256 Q568 243 565.5 229.5 Q563 216 560 208 L200 208 Q200 214 195.5 218.5 Q191 223 185 223 Q179 223 174.5 218.5 Q170 214 170 208 Z M170 311 Q170 305 174.5 300.5 Q179 296 185 296 Q191 296 195.5 300.5 Q200 305 200 311 L420 311 Q420 305 424.5 300.5 Q429 296 435 296 Q441 296 445.5 300.5 Q450 305 450 311 Q450 317 445.5 321.5 Q441 326 435 326 Q432 326 431 325 Q421 360 390.5 386.5 Q360 413 309 413 Q258 413 227.5 387 Q197 361 187 326 L185 326 Q179 326 174.5 321.5 Q170 317 170 311 Z " />
<glyph glyph-name="Ebreve" unicode="&#x114;" horiz-adv-x="603" d="M235 907 L299 907 L299 890 Q299 876 308 867 Q317 858 331 858 Q345 858 354 867 Q363 876 363 890 L363 907 L427 907 L427 895 Q427 855 399 827 Q371 799 331 799 Q291 799 263 827 Q235 855 235 895 L235 907 Z M222 118 Q222 112 226.5 107.5 Q231 103 237 103 Q243 103 247.5 107.5 Q252 112 252 118 L548 118 L548 0 L95 0 L95 735 L548 735 L548 617 L252 617 Q252 623 247.5 627.5 Q243 632 237 632 Q231 632 226.5 627.5 Q222 623 222 617 Q222 611 226.5 606.5 Q231 602 237 602 L237 445 Q231 445 226.5 440.5 Q222 436 222 430 Q222 424 226.5 419.5 Q231 415 237 415 Q243 415 247.5 419.5 Q252 424 252 430 L548 430 L548 313 L252 313 Q252 319 247.5 323.5 Q243 328 237 328 Q231 328 226.5 323.5 Q222 319 222 313 Q222 307 226.5 302.5 Q231 298 237 298 L237 133 Q231 133 226.5 128.5 Q222 124 222 118 Z " />
<glyph glyph-name="ebreve" unicode="&#x115;" horiz-adv-x="608" d="M209 684 L273 684 L273 667 Q273 653 282 644 Q291 635 305 635 Q319 635 328 644 Q337 653 337 667 L337 684 L401 684 L401 672 Q401 632 373 604 Q345 576 305 576 Q265 576 237 604 Q209 632 209 672 L209 684 Z M170 208 Q170 202 174.5 197.5 Q179 193 185 193 L187 193 Q197 155 233 132.5 Q269 110 312 110 Q348 110 380.5 124.5 Q413 139 435 164 L529 90 Q491 44 434 18 Q377 -8 311 -8 Q267 -8 221 6.5 Q175 21 137.5 53 Q100 85 76 135 Q52 185 52 256 Q52 313 70.5 361 Q89 409 122.5 444.5 Q156 480 203 499.5 Q250 519 307 519 Q364 519 411.5 499.5 Q459 480 494 445.5 Q529 411 548.5 362.5 Q568 314 568 256 Q568 243 565.5 229.5 Q563 216 560 208 L200 208 Q200 214 195.5 218.5 Q191 223 185 223 Q179 223 174.5 218.5 Q170 214 170 208 Z M170 311 Q170 305 174.5 300.5 Q179 296 185 296 Q191 296 195.5 300.5 Q200 305 200 311 L420 311 Q420 305 424.5 300.5 Q429 296 435 296 Q441 296 445.5 300.5 Q450 305 450 311 Q450 317 445.5 321.5 Q441 326 435 326 Q432 326 431 325 Q421 360 390.5 386.5 Q360 413 309 413 Q258 413 227.5 387 Q197 361 187 326 L185 326 Q179 326 174.5 321.5 Q170 317 170 311 Z " />
<glyph glyph-name="Edotaccent" unicode="&#x116;" horiz-adv-x="603" d="M233 886 Q233 922 258.5 947.5 Q284 973 320 973 Q356 973 381.5 947.5 Q407 922 407 886 Q407 850 381.5 824.5 Q356 799 320 799 Q284 799 258.5 824.5 Q233 850 233 886 Z M222 118 Q222 112 226.5 107.5 Q231 103 237 103 Q243 103 247.5 107.5 Q252 112 252 118 L548 118 L548 0 L95 0 L95 735 L548 735 L548 617 L252 617 Q252 623 247.5 627.5 Q243 632 237 632 Q231 632 226.5 627.5 Q222 623 222 617 Q222 611 226.5 606.5 Q231 602 237 602 L237 445 Q231 445 226.5 440.5 Q222 436 222 430 Q222 424 226.5 419.5 Q231 415 237 415 Q243 415 247.5 419.5 Q252 424 252 430 L548 430 L548 313 L252 313 Q252 319 247.5 323.5 Q243 328 237 328 Q231 328 226.5 323.5 Q222 319 222 313 Q222 307 226.5 302.5 Q231 298 237 298 L237 133 Q231 133 226.5 128.5 Q222 124 222 118 Z " />
<glyph glyph-name="edotaccent" unicode="&#x117;" horiz-adv-x="608" d="M218 663 Q218 699 243.5 724.5 Q269 750 305 750 Q341 750 366.5 724.5 Q392 699 392 663 Q392 627 366.5 601.5 Q341 576 305 576 Q269 576 243.5 601.5 Q218 627 218 663 Z M170 208 Q170 202 174.5 197.5 Q179 193 185 193 L187 193 Q197 155 233 132.5 Q269 110 312 110 Q348 110 380.5 124.5 Q413 139 435 164 L529 90 Q491 44 434 18 Q377 -8 311 -8 Q267 -8 221 6.5 Q175 21 137.5 53 Q100 85 76 135 Q52 185 52 256 Q52 313 70.5 361 Q89 409 122.5 444.5 Q156 480 203 499.5 Q250 519 307 519 Q364 519 411.5 499.5 Q459 480 494 445.5 Q529 411 548.5 362.5 Q568 314 568 256 Q568 243 565.5 229.5 Q563 216 560 208 L200 208 Q200 214 195.5 218.5 Q191 223 185 223 Q179 223 174.5 218.5 Q170 214 170 208 Z M170 311 Q170 305 174.5 300.5 Q179 296 185 296 Q191 296 195.5 300.5 Q200 305 200 311 L420 311 Q420 305 424.5 300.5 Q429 296 435 296 Q441 296 445.5 300.5 Q450 305 450 311 Q450 317 445.5 321.5 Q441 326 435 326 Q432 326 431 325 Q421 360 390.5 386.5 Q360 413 309 413 Q258 413 227.5 387 Q197 361 187 326 L185 326 Q179 326 174.5 321.5 Q170 317 170 311 Z " />
<glyph glyph-name="Eogonek" unicode="&#x118;" horiz-adv-x="601" d="M95 0 L95 735 L548 735 L548 617 L252 617 Q252 623 247.5 627.5 Q243 632 237 632 Q231 632 226.5 627.5 Q222 623 222 617 Q222 611 226.5 606.5 Q231 602 237 602 L237 445 Q231 445 226.5 440.5 Q222 436 222 430 Q222 424 226.5 419.5 Q231 415 237 415 Q243 415 247.5 419.5 Q252 424 252 430 L548 430 L548 313 L252 313 Q252 319 247.5 323.5 Q243 328 237 328 Q231 328 226.5 323.5 Q222 319 222 313 Q222 307 226.5 302.5 Q231 298 237 298 L237 133 Q231 133 226.5 128.5 Q222 124 222 118 Q222 112 226.5 107.5 Q231 103 237 103 Q243 103 247.5 107.5 Q252 112 252 118 L548 118 L548 0 L418 0 Q391 0 372.5 -19 Q354 -38 354 -64 Q354 -91 372.5 -109.5 Q391 -128 418 -128 Q444 -128 463 -109.5 Q482 -91 482 -64 L546 -64 Q546 -91 536 -114 Q526 -137 508.5 -154.5 Q491 -172 468 -182 Q445 -192 418 -192 Q391 -192 368 -182 Q345 -172 327.5 -154.5 Q310 -137 300 -114 Q290 -91 290 -64 Q290 -34 300 -13 Q304 -15 307 -15 Q313 -15 317.5 -10.5 Q322 -6 322 0 Q322 6 317.5 10.5 Q313 15 307 15 Q301 15 296.5 10.5 Q292 6 292 0 L95 0 Z " />
<glyph glyph-name="eogonek" unicode="&#x119;" horiz-adv-x="608" d="M170 208 Q170 202 174.5 197.5 Q179 193 185 193 L187 193 Q197 155 233 132.5 Q269 110 312 110 Q348 110 380.5 124.5 Q413 139 435 164 L529 90 Q491 44 434 18 Q377 -8 311 -8 Q284 -8 265.5 -27 Q247 -46 247 -72 Q247 -99 265.5 -117.5 Q284 -136 311 -136 Q337 -136 356 -117.5 Q375 -99 375 -72 L439 -72 Q439 -99 429 -122 Q419 -145 401.5 -162.5 Q384 -180 361 -190 Q338 -200 311 -200 Q284 -200 261 -190 Q238 -180 220.5 -162.5 Q203 -145 193 -122 Q183 -99 183 -72 Q183 -33 203 -2 Q207 -6 212 -6 Q218 -6 222.5 -1.5 Q227 3 227 9 Q227 15 222.5 19.5 Q218 24 212 24 Q201 24 198 14 Q168 27 141.5 48 Q115 69 95 99 Q75 129 63.5 168 Q52 207 52 256 Q52 313 70.5 361 Q89 409 122.5 444.5 Q156 480 203 499.5 Q250 519 307 519 Q364 519 411.5 499.5 Q459 480 494 445.5 Q529 411 548.5 362.5 Q568 314 568 256 Q568 243 565.5 229.5 Q563 216 560 208 L200 208 Q200 214 195.5 218.5 Q191 223 185 223 Q179 223 174.5 218.5 Q170 214 170 208 Z M170 311 Q170 305 174.5 300.5 Q179 296 185 296 Q191 296 195.5 300.5 Q200 305 200 311 L420 311 Q420 305 424.5 300.5 Q429 296 435 296 Q441 296 445.5 300.5 Q450 305 450 311 Q450 317 445.5 321.5 Q441 326 435 326 Q432 326 431 325 Q421 360 390.5 386.5 Q360 413 309 413 Q258 413 227.5 387 Q197 361 187 326 L185 326 Q179 326 174.5 321.5 Q170 317 170 311 Z " />
<glyph glyph-name="Ecaron" unicode="&#x11a;" horiz-adv-x="603" d="M322 877 L412 968 L457 923 L321 787 L185 923 L230 968 L322 877 Z M222 118 Q222 112 226.5 107.5 Q231 103 237 103 Q243 103 247.5 107.5 Q252 112 252 118 L548 118 L548 0 L95 0 L95 735 L548 735 L548 617 L252 617 Q252 623 247.5 627.5 Q243 632 237 632 Q231 632 226.5 627.5 Q222 623 222 617 Q222 611 226.5 606.5 Q231 602 237 602 L237 445 Q231 445 226.5 440.5 Q222 436 222 430 Q222 424 226.5 419.5 Q231 415 237 415 Q243 415 247.5 419.5 Q252 424 252 430 L548 430 L548 313 L252 313 Q252 319 247.5 323.5 Q243 328 237 328 Q231 328 226.5 323.5 Q222 319 222 313 Q222 307 226.5 302.5 Q231 298 237 298 L237 133 Q231 133 226.5 128.5 Q222 124 222 118 Z " />
<glyph glyph-name="ecaron" unicode="&#x11b;" horiz-adv-x="608" d="M306 654 L396 745 L441 700 L305 564 L169 700 L214 745 L306 654 Z M170 208 Q170 202 174.5 197.5 Q179 193 185 193 L187 193 Q197 155 233 132.5 Q269 110 312 110 Q348 110 380.5 124.5 Q413 139 435 164 L529 90 Q491 44 434 18 Q377 -8 311 -8 Q267 -8 221 6.5 Q175 21 137.5 53 Q100 85 76 135 Q52 185 52 256 Q52 313 70.5 361 Q89 409 122.5 444.5 Q156 480 203 499.5 Q250 519 307 519 Q364 519 411.5 499.5 Q459 480 494 445.5 Q529 411 548.5 362.5 Q568 314 568 256 Q568 243 565.5 229.5 Q563 216 560 208 L200 208 Q200 214 195.5 218.5 Q191 223 185 223 Q179 223 174.5 218.5 Q170 214 170 208 Z M170 311 Q170 305 174.5 300.5 Q179 296 185 296 Q191 296 195.5 300.5 Q200 305 200 311 L420 311 Q420 305 424.5 300.5 Q429 296 435 296 Q441 296 445.5 300.5 Q450 305 450 311 Q450 317 445.5 321.5 Q441 326 435 326 Q432 326 431 325 Q421 360 390.5 386.5 Q360 413 309 413 Q258 413 227.5 387 Q197 361 187 326 L185 326 Q179 326 174.5 321.5 Q170 317 170 311 Z " />
<glyph glyph-name="Gcircumflex" unicode="&#x11c;" horiz-adv-x="848" d="M415 878 L325 787 L280 832 L416 968 L552 832 L507 787 L415 878 Z M438 304 L438 430 L798 430 Q801 414 802 399 Q803 384 803 367 Q803 280 773.5 210.5 Q744 141 693.5 91.5 Q643 42 576 15.5 Q509 -11 434 -11 Q356 -11 287 19 Q218 49 166.5 100.5 Q115 152 85 221 Q55 290 55 368 Q55 446 85 515 Q115 584 166.5 635.5 Q218 687 287 717 Q356 747 434 747 Q512 747 581 717.5 Q650 688 702 637 L607 542 Q574 577 529 596 Q484 615 433 615 Q382 615 337 595.5 Q292 576 258.5 542.5 Q225 509 205.5 464 Q186 419 186 368 Q186 317 205.5 272 Q225 227 258.5 193.5 Q292 160 337 140.5 Q382 121 433 121 Q525 121 589 164 Q653 207 668 289 L670 289 Q676 289 680.5 293.5 Q685 298 685 304 Q685 310 680.5 314.5 Q676 319 670 319 Q664 319 659.5 314.5 Q655 310 655 304 L438 304 Z " />
<glyph glyph-name="gcircumflex" unicode="&#x11d;" horiz-adv-x="601" d="M299 685 L209 594 L164 639 L300 775 L436 639 L391 594 L299 685 Z M427 486 Q427 480 431.5 475.5 Q436 471 442 471 Q448 471 452.5 475.5 Q457 480 457 486 Q457 489 455 493 Q487 509 517 512.5 Q547 516 579 516 L586 516 L586 399 L503 399 Q503 405 498.5 409.5 Q494 414 488 414 Q482 414 477.5 409.5 Q473 405 473 399 Q473 393 477.5 388.5 Q482 384 488 384 Q491 384 493 385 Q498 363 498 346 Q498 289 472.5 246.5 Q447 204 405.5 180.5 Q364 157 310.5 153 Q257 149 201 168 Q177 168 163.5 157.5 Q150 147 150 131 Q150 114 163.5 103 Q177 92 201 92 L363 92 Q456 92 506 46.5 Q556 1 556 -75 Q556 -115 540 -148 Q524 -181 494 -205 Q464 -229 420 -242.5 Q376 -256 320 -256 Q269 -256 224 -242.5 Q179 -229 145 -206 Q111 -183 91.5 -151.5 Q72 -120 72 -85 L112 -42 Q117 -47 123 -47 Q129 -47 133.5 -42.5 Q138 -38 138 -32 Q138 -26 133.5 -21.5 Q129 -17 123 -17 Q114 -17 109 -26 Q74 -8 52 24 Q30 56 30 97 Q30 131 47.5 166 Q65 201 107 221 Q112 212 121 212 Q127 212 131.5 216.5 Q136 221 136 227 Q136 233 131.5 237.5 Q127 242 121 242 Q116 242 113 239 Q99 263 91.5 290 Q84 317 84 346 Q84 391 100 429 Q116 467 143.5 494.5 Q171 522 209 537.5 Q247 553 291 553 Q332 553 368 537.5 Q404 522 431 496 Q427 492 427 486 Z M201 346 Q201 310 227.5 283.5 Q254 257 291 257 Q309 257 325 264 Q341 271 353.5 283.5 Q366 296 373 312 Q380 328 380 346 Q380 383 353.5 409.5 Q327 436 291 436 Q254 436 227.5 409.5 Q201 383 201 346 Z M164 -32 Q164 -38 168.5 -42.5 Q173 -47 179 -47 L181 -47 Q185 -64 198 -80.5 Q211 -97 230 -109.5 Q249 -122 272 -129.5 Q295 -137 320 -137 Q374 -137 399 -120 Q424 -103 424 -75 Q424 -55 407.5 -43.5 Q391 -32 363 -32 L194 -32 Q194 -26 189.5 -21.5 Q185 -17 179 -17 Q173 -17 168.5 -21.5 Q164 -26 164 -32 Z " />
<glyph glyph-name="Gbreve" unicode="&#x11e;" horiz-adv-x="848" d="M320 907 L384 907 L384 890 Q384 876 393 867 Q402 858 416 858 Q430 858 439 867 Q448 876 448 890 L448 907 L512 907 L512 895 Q512 855 484 827 Q456 799 416 799 Q376 799 348 827 Q320 855 320 895 L320 907 Z M438 304 L438 430 L798 430 Q801 414 802 399 Q803 384 803 367 Q803 280 773.5 210.5 Q744 141 693.5 91.5 Q643 42 576 15.5 Q509 -11 434 -11 Q356 -11 287 19 Q218 49 166.5 100.5 Q115 152 85 221 Q55 290 55 368 Q55 446 85 515 Q115 584 166.5 635.5 Q218 687 287 717 Q356 747 434 747 Q512 747 581 717.5 Q650 688 702 637 L607 542 Q574 577 529 596 Q484 615 433 615 Q382 615 337 595.5 Q292 576 258.5 542.5 Q225 509 205.5 464 Q186 419 186 368 Q186 317 205.5 272 Q225 227 258.5 193.5 Q292 160 337 140.5 Q382 121 433 121 Q525 121 589 164 Q653 207 668 289 L670 289 Q676 289 680.5 293.5 Q685 298 685 304 Q685 310 680.5 314.5 Q676 319 670 319 Q664 319 659.5 314.5 Q655 310 655 304 L438 304 Z " />
<glyph glyph-name="gbreve" unicode="&#x11f;" horiz-adv-x="601" d="M204 714 L268 714 L268 697 Q268 683 277 674 Q286 665 300 665 Q314 665 323 674 Q332 683 332 697 L332 714 L396 714 L396 702 Q396 662 368 634 Q340 606 300 606 Q260 606 232 634 Q204 662 204 702 L204 714 Z M427 486 Q427 480 431.5 475.5 Q436 471 442 471 Q448 471 452.5 475.5 Q457 480 457 486 Q457 489 455 493 Q487 509 517 512.5 Q547 516 579 516 L586 516 L586 399 L503 399 Q503 405 498.5 409.5 Q494 414 488 414 Q482 414 477.5 409.5 Q473 405 473 399 Q473 393 477.5 388.5 Q482 384 488 384 Q491 384 493 385 Q498 363 498 346 Q498 289 472.5 246.5 Q447 204 405.5 180.5 Q364 157 310.5 153 Q257 149 201 168 Q177 168 163.5 157.5 Q150 147 150 131 Q150 114 163.5 103 Q177 92 201 92 L363 92 Q456 92 506 46.5 Q556 1 556 -75 Q556 -115 540 -148 Q524 -181 494 -205 Q464 -229 420 -242.5 Q376 -256 320 -256 Q269 -256 224 -242.5 Q179 -229 145 -206 Q111 -183 91.5 -151.5 Q72 -120 72 -85 L112 -42 Q117 -47 123 -47 Q129 -47 133.5 -42.5 Q138 -38 138 -32 Q138 -26 133.5 -21.5 Q129 -17 123 -17 Q114 -17 109 -26 Q74 -8 52 24 Q30 56 30 97 Q30 131 47.5 166 Q65 201 107 221 Q112 212 121 212 Q127 212 131.5 216.5 Q136 221 136 227 Q136 233 131.5 237.5 Q127 242 121 242 Q116 242 113 239 Q99 263 91.5 290 Q84 317 84 346 Q84 391 100 429 Q116 467 143.5 494.5 Q171 522 209 537.5 Q247 553 291 553 Q332 553 368 537.5 Q404 522 431 496 Q427 492 427 486 Z M201 346 Q201 310 227.5 283.5 Q254 257 291 257 Q309 257 325 264 Q341 271 353.5 283.5 Q366 296 373 312 Q380 328 380 346 Q380 383 353.5 409.5 Q327 436 291 436 Q254 436 227.5 409.5 Q201 383 201 346 Z M164 -32 Q164 -38 168.5 -42.5 Q173 -47 179 -47 L181 -47 Q185 -64 198 -80.5 Q211 -97 230 -109.5 Q249 -122 272 -129.5 Q295 -137 320 -137 Q374 -137 399 -120 Q424 -103 424 -75 Q424 -55 407.5 -43.5 Q391 -32 363 -32 L194 -32 Q194 -26 189.5 -21.5 Q185 -17 179 -17 Q173 -17 168.5 -21.5 Q164 -26 164 -32 Z " />
<glyph glyph-name="Gdotaccent" unicode="&#x120;" horiz-adv-x="848" d="M329 886 Q329 922 354.5 947.5 Q380 973 416 973 Q452 973 477.5 947.5 Q503 922 503 886 Q503 850 477.5 824.5 Q452 799 416 799 Q380 799 354.5 824.5 Q329 850 329 886 Z M438 304 L438 430 L798 430 Q801 414 802 399 Q803 384 803 367 Q803 280 773.5 210.5 Q744 141 693.5 91.5 Q643 42 576 15.5 Q509 -11 434 -11 Q356 -11 287 19 Q218 49 166.5 100.5 Q115 152 85 221 Q55 290 55 368 Q55 446 85 515 Q115 584 166.5 635.5 Q218 687 287 717 Q356 747 434 747 Q512 747 581 717.5 Q650 688 702 637 L607 542 Q574 577 529 596 Q484 615 433 615 Q382 615 337 595.5 Q292 576 258.5 542.5 Q225 509 205.5 464 Q186 419 186 368 Q186 317 205.5 272 Q225 227 258.5 193.5 Q292 160 337 140.5 Q382 121 433 121 Q525 121 589 164 Q653 207 668 289 L670 289 Q676 289 680.5 293.5 Q685 298 685 304 Q685 310 680.5 314.5 Q676 319 670 319 Q664 319 659.5 314.5 Q655 310 655 304 L438 304 Z " />
<glyph glyph-name="gdotaccent" unicode="&#x121;" horiz-adv-x="601" d="M213 693 Q213 729 238.5 754.5 Q264 780 300 780 Q336 780 361.5 754.5 Q387 729 387 693 Q387 657 361.5 631.5 Q336 606 300 606 Q264 606 238.5 631.5 Q213 657 213 693 Z M427 486 Q427 480 431.5 475.5 Q436 471 442 471 Q448 471 452.5 475.5 Q457 480 457 486 Q457 489 455 493 Q487 509 517 512.5 Q547 516 579 516 L586 516 L586 399 L503 399 Q503 405 498.5 409.5 Q494 414 488 414 Q482 414 477.5 409.5 Q473 405 473 399 Q473 393 477.5 388.5 Q482 384 488 384 Q491 384 493 385 Q498 363 498 346 Q498 289 472.5 246.5 Q447 204 405.5 180.5 Q364 157 310.5 153 Q257 149 201 168 Q177 168 163.5 157.5 Q150 147 150 131 Q150 114 163.5 103 Q177 92 201 92 L363 92 Q456 92 506 46.5 Q556 1 556 -75 Q556 -115 540 -148 Q524 -181 494 -205 Q464 -229 420 -242.5 Q376 -256 320 -256 Q269 -256 224 -242.5 Q179 -229 145 -206 Q111 -183 91.5 -151.5 Q72 -120 72 -85 L112 -42 Q117 -47 123 -47 Q129 -47 133.5 -42.5 Q138 -38 138 -32 Q138 -26 133.5 -21.5 Q129 -17 123 -17 Q114 -17 109 -26 Q74 -8 52 24 Q30 56 30 97 Q30 131 47.5 166 Q65 201 107 221 Q112 212 121 212 Q127 212 131.5 216.5 Q136 221 136 227 Q136 233 131.5 237.5 Q127 242 121 242 Q116 242 113 239 Q99 263 91.5 290 Q84 317 84 346 Q84 391 100 429 Q116 467 143.5 494.5 Q171 522 209 537.5 Q247 553 291 553 Q332 553 368 537.5 Q404 522 431 496 Q427 492 427 486 Z M201 346 Q201 310 227.5 283.5 Q254 257 291 257 Q309 257 325 264 Q341 271 353.5 283.5 Q366 296 373 312 Q380 328 380 346 Q380 383 353.5 409.5 Q327 436 291 436 Q254 436 227.5 409.5 Q201 383 201 346 Z M164 -32 Q164 -38 168.5 -42.5 Q173 -47 179 -47 L181 -47 Q185 -64 198 -80.5 Q211 -97 230 -109.5 Q249 -122 272 -129.5 Q295 -137 320 -137 Q374 -137 399 -120 Q424 -103 424 -75 Q424 -55 407.5 -43.5 Q391 -32 363 -32 L194 -32 Q194 -26 189.5 -21.5 Q185 -17 179 -17 Q173 -17 168.5 -21.5 Q164 -26 164 -32 Z " />
<glyph glyph-name="Gcommaaccent" unicode="&#x122;" horiz-adv-x="848" d="M462 -365 L542 -196 Q553 -172 552 -148.5 Q551 -125 540 -106.5 Q529 -88 510 -76 Q491 -64 467 -64 Q431 -64 405.5 -89.5 Q380 -115 380 -151 Q380 -183 400.5 -207 Q421 -231 451 -237 L404 -337 L462 -365 Z M438 304 L438 430 L798 430 Q801 414 802 399 Q803 384 803 367 Q803 280 773.5 210.5 Q744 141 693.5 91.5 Q643 42 576 15.5 Q509 -11 434 -11 Q356 -11 287 19 Q218 49 166.5 100.5 Q115 152 85 221 Q55 290 55 368 Q55 446 85 515 Q115 584 166.5 635.5 Q218 687 287 717 Q356 747 434 747 Q512 747 581 717.5 Q650 688 702 637 L607 542 Q574 577 529 596 Q484 615 433 615 Q382 615 337 595.5 Q292 576 258.5 542.5 Q225 509 205.5 464 Q186 419 186 368 Q186 317 205.5 272 Q225 227 258.5 193.5 Q292 160 337 140.5 Q382 121 433 121 Q525 121 589 164 Q653 207 668 289 L670 289 Q676 289 680.5 293.5 Q685 298 685 304 Q685 310 680.5 314.5 Q676 319 670 319 Q664 319 659.5 314.5 Q655 310 655 304 L438 304 Z " />
<glyph glyph-name="gcommaaccent" unicode="&#x123;" horiz-adv-x="601" d="M349 802 Q308 786 295 743 L300 743 Q334 743 353.5 723.5 Q373 704 373 675 Q373 646 353.5 626 Q334 606 301 606 Q266 606 246.5 626 Q227 646 227 675 L227 678 Q227 796 324 846 L349 802 Z M427 486 Q427 480 431.5 475.5 Q436 471 442 471 Q448 471 452.5 475.5 Q457 480 457 486 Q457 489 455 493 Q487 509 517 512.5 Q547 516 579 516 L586 516 L586 399 L503 399 Q503 405 498.5 409.5 Q494 414 488 414 Q482 414 477.5 409.5 Q473 405 473 399 Q473 393 477.5 388.5 Q482 384 488 384 Q491 384 493 385 Q498 363 498 346 Q498 289 472.5 246.5 Q447 204 405.5 180.5 Q364 157 310.5 153 Q257 149 201 168 Q177 168 163.5 157.5 Q150 147 150 131 Q150 114 163.5 103 Q177 92 201 92 L363 92 Q456 92 506 46.5 Q556 1 556 -75 Q556 -115 540 -148 Q524 -181 494 -205 Q464 -229 420 -242.5 Q376 -256 320 -256 Q269 -256 224 -242.5 Q179 -229 145 -206 Q111 -183 91.5 -151.5 Q72 -120 72 -85 L112 -42 Q117 -47 123 -47 Q129 -47 133.5 -42.5 Q138 -38 138 -32 Q138 -26 133.5 -21.5 Q129 -17 123 -17 Q114 -17 109 -26 Q74 -8 52 24 Q30 56 30 97 Q30 131 47.5 166 Q65 201 107 221 Q112 212 121 212 Q127 212 131.5 216.5 Q136 221 136 227 Q136 233 131.5 237.5 Q127 242 121 242 Q116 242 113 239 Q99 263 91.5 290 Q84 317 84 346 Q84 391 100 429 Q116 467 143.5 494.5 Q171 522 209 537.5 Q247 553 291 553 Q332 553 368 537.5 Q404 522 431 496 Q427 492 427 486 Z M201 346 Q201 310 227.5 283.5 Q254 257 291 257 Q309 257 325 264 Q341 271 353.5 283.5 Q366 296 373 312 Q380 328 380 346 Q380 383 353.5 409.5 Q327 436 291 436 Q254 436 227.5 409.5 Q201 383 201 346 Z M164 -32 Q164 -38 168.5 -42.5 Q173 -47 179 -47 L181 -47 Q185 -64 198 -80.5 Q211 -97 230 -109.5 Q249 -122 272 -129.5 Q295 -137 320 -137 Q374 -137 399 -120 Q424 -103 424 -75 Q424 -55 407.5 -43.5 Q391 -32 363 -32 L194 -32 Q194 -26 189.5 -21.5 Q185 -17 179 -17 Q173 -17 168.5 -21.5 Q164 -26 164 -32 Z " />
<glyph glyph-name="Hcircumflex" unicode="&#x124;" horiz-adv-x="817" d="M407 878 L317 787 L272 832 L408 968 L544 832 L499 787 L407 878 Z M252 313 Q252 319 247.5 323.5 Q243 328 237 328 Q231 328 226.5 323.5 Q222 319 222 313 Q222 307 226.5 302.5 Q231 298 237 298 L237 0 L95 0 L95 734 L237 734 L237 445 Q231 445 226.5 440.5 Q222 436 222 430 Q222 424 226.5 419.5 Q231 415 237 415 Q243 415 247.5 419.5 Q252 424 252 430 L565 430 Q565 424 569.5 419.5 Q574 415 580 415 Q586 415 590.5 419.5 Q595 424 595 430 Q595 436 590.5 440.5 Q586 445 580 445 L580 735 L722 735 L722 0 L580 0 L580 298 Q586 298 590.5 302.5 Q595 307 595 313 Q595 319 590.5 323.5 Q586 328 580 328 Q574 328 569.5 323.5 Q565 319 565 313 L252 313 Z " />
<glyph glyph-name="hcircumflex" unicode="&#x125;" horiz-adv-x="677" d="M480 553 L525 598 L389 734 L253 598 L298 553 L388 644 L480 553 Z M208 450 Q208 444 212.5 439.5 Q217 435 223 435 Q229 435 233.5 439.5 Q238 444 238 450 Q238 454 234 460 Q263 484 297.5 498 Q332 512 371 512 Q420 512 463 492 Q506 472 538 437.5 Q570 403 588.5 356 Q607 309 607 256 L607 0 L479 0 L479 256 Q479 283 469 306 Q459 329 441.5 346.5 Q424 364 401 374 Q378 384 351 384 Q325 384 302.5 374.5 Q280 365 262.5 348.5 Q245 332 234.5 309.5 Q224 287 223 261 L223 0 L95 0 L95 768 L223 768 L223 465 Q217 465 212.5 460.5 Q208 456 208 450 Z " />
<glyph glyph-name="Hbar" unicode="&#x126;" horiz-adv-x="817" d="M20 512 L20 590 L80 590 Q80 584 84.5 579.5 Q89 575 95 575 Q101 575 105.5 579.5 Q110 584 110 590 Q110 596 105.5 600.5 Q101 605 95 605 L95 734 L237 734 L237 605 Q231 605 226.5 600.5 Q222 596 222 590 Q222 584 226.5 579.5 Q231 575 237 575 Q243 575 247.5 579.5 Q252 584 252 590 L565 590 Q565 584 569.5 579.5 Q574 575 580 575 Q586 575 590.5 579.5 Q595 584 595 590 Q595 596 590.5 600.5 Q586 605 580 605 L580 735 L722 735 L722 605 Q716 605 711.5 600.5 Q707 596 707 590 Q707 584 711.5 579.5 Q716 575 722 575 Q728 575 732.5 579.5 Q737 584 737 590 L796 590 L796 512 L737 512 Q737 518 732.5 522.5 Q728 527 722 527 Q716 527 711.5 522.5 Q707 518 707 512 Q707 506 711.5 501.5 Q716 497 722 497 L722 0 L580 0 L580 298 Q586 298 590.5 302.5 Q595 307 595 313 Q595 319 590.5 323.5 Q586 328 580 328 Q574 328 569.5 323.5 Q565 319 565 313 L252 313 Q252 319 247.5 323.5 Q243 328 237 328 Q231 328 226.5 323.5 Q222 319 222 313 Q222 307 226.5 302.5 Q231 298 237 298 L237 0 L95 0 L95 497 Q101 497 105.5 501.5 Q110 506 110 512 Q110 518 105.5 522.5 Q101 527 95 527 Q89 527 84.5 522.5 Q80 518 80 512 L20 512 Z M221 512 Q221 506 225.5 501.5 Q230 497 236 497 L237 497 L237 445 Q231 445 226.5 440.5 Q222 436 222 430 Q222 424 226.5 419.5 Q231 415 237 415 Q243 415 247.5 419.5 Q252 424 252 430 L565 430 Q565 424 569.5 419.5 Q574 415 580 415 Q586 415 590.5 419.5 Q595 424 595 430 Q595 436 590.5 440.5 Q586 445 580 445 L580 497 Q586 497 590.5 501.5 Q595 506 595 512 Q595 518 590.5 522.5 Q586 527 580 527 Q574 527 569.5 522.5 Q565 518 565 512 L251 512 Q251 518 246.5 522.5 Q242 527 236 527 Q230 527 225.5 522.5 Q221 518 221 512 Z " />
<glyph glyph-name="hbar" unicode="&#x127;" horiz-adv-x="677" d="M6 576 L6 654 L80 654 Q80 648 84.5 643.5 Q89 639 95 639 Q101 639 105.5 643.5 Q110 648 110 654 Q110 660 105.5 664.5 Q101 669 95 669 L95 768 L223 768 L223 669 Q217 669 212.5 664.5 Q208 660 208 654 Q208 648 212.5 643.5 Q217 639 223 639 Q229 639 233.5 643.5 Q238 648 238 654 L318 654 L318 576 L238 576 Q238 582 233.5 586.5 Q229 591 223 591 Q217 591 212.5 586.5 Q208 582 208 576 Q208 570 212.5 565.5 Q217 561 223 561 L223 465 Q217 465 212.5 460.5 Q208 456 208 450 Q208 444 212.5 439.5 Q217 435 223 435 Q229 435 233.5 439.5 Q238 444 238 450 Q238 454 234 460 Q263 484 297.5 498 Q332 512 371 512 Q420 512 463 492 Q506 472 538 437.5 Q570 403 588.5 356 Q607 309 607 256 L607 0 L479 0 L479 256 Q479 283 469 306 Q459 329 441.5 346.5 Q424 364 401 374 Q378 384 351 384 Q325 384 302.5 374.5 Q280 365 262.5 348.5 Q245 332 234.5 309.5 Q224 287 223 261 L223 0 L95 0 L95 561 Q101 561 105.5 565.5 Q110 570 110 576 Q110 582 105.5 586.5 Q101 591 95 591 Q89 591 84.5 586.5 Q80 582 80 576 L6 576 Z " />
<glyph glyph-name="Itilde" unicode="&#x128;" horiz-adv-x="518" d="M311 907 Q349 907 377 880.5 Q405 854 407 816 L343 816 Q343 830 334 839 Q325 848 311 848 Q300 848 290.5 840.5 Q281 833 270 823.5 Q259 814 244.5 806.5 Q230 799 207 799 Q169 799 141 825.5 Q113 852 111 890 L175 890 Q175 876 184 867 Q193 858 207 858 Q218 858 227.5 865.5 Q237 873 248 882.5 Q259 892 274 899.5 Q289 907 311 907 Z M315 118 Q315 112 319.5 107.5 Q324 103 330 103 Q336 103 340.5 107.5 Q345 112 345 118 L458 118 L458 0 L60 0 L60 118 L173 118 Q173 112 177.5 107.5 Q182 103 188 103 Q194 103 198.5 107.5 Q203 112 203 118 Q203 124 198.5 128.5 Q194 133 188 133 L188 602 Q194 602 198.5 606.5 Q203 611 203 617 Q203 623 198.5 627.5 Q194 632 188 632 Q182 632 177.5 627.5 Q173 623 173 617 L60 617 L60 735 L458 735 L458 617 L345 617 Q345 623 340.5 627.5 Q336 632 330 632 Q324 632 319.5 627.5 Q315 623 315 617 Q315 611 319.5 606.5 Q324 602 330 602 L330 133 Q324 133 319.5 128.5 Q315 124 315 118 Z " />
<glyph glyph-name="itilde" unicode="&#x129;" horiz-adv-x="344" d="M237 512 L237 0 L107 0 L107 512 L237 512 Z M224 684 Q262 684 290 657.5 Q318 631 320 593 L256 593 Q256 607 247 616 Q238 625 224 625 Q213 625 203.5 617.5 Q194 610 183 600.5 Q172 591 157.5 583.5 Q143 576 120 576 Q82 576 54 602.5 Q26 629 24 667 L88 667 Q88 653 97 644 Q106 635 120 635 Q131 635 140.5 642.5 Q150 650 161 659.5 Q172 669 187 676.5 Q202 684 224 684 Z " />
<glyph glyph-name="Imacron" unicode="&#x12a;" horiz-adv-x="518" d="M415 799 L103 799 L103 877 L415 877 L415 799 Z M315 118 Q315 112 319.5 107.5 Q324 103 330 103 Q336 103 340.5 107.5 Q345 112 345 118 L458 118 L458 0 L60 0 L60 118 L173 118 Q173 112 177.5 107.5 Q182 103 188 103 Q194 103 198.5 107.5 Q203 112 203 118 Q203 124 198.5 128.5 Q194 133 188 133 L188 602 Q194 602 198.5 606.5 Q203 611 203 617 Q203 623 198.5 627.5 Q194 632 188 632 Q182 632 177.5 627.5 Q173 623 173 617 L60 617 L60 735 L458 735 L458 617 L345 617 Q345 623 340.5 627.5 Q336 632 330 632 Q324 632 319.5 627.5 Q315 623 315 617 Q315 611 319.5 606.5 Q324 602 330 602 L330 133 Q324 133 319.5 128.5 Q315 124 315 118 Z " />
<glyph glyph-name="imacron" unicode="&#x12b;" horiz-adv-x="344" d="M237 512 L237 0 L107 0 L107 512 L237 512 Z M328 576 L16 576 L16 654 L328 654 L328 576 Z " />
<glyph glyph-name="Ibreve" unicode="&#x12c;" horiz-adv-x="518" d="M163 907 L227 907 L227 890 Q227 876 236 867 Q245 858 259 858 Q273 858 282 867 Q291 876 291 890 L291 907 L355 907 L355 895 Q355 855 327 827 Q299 799 259 799 Q219 799 191 827 Q163 855 163 895 L163 907 Z M315 118 Q315 112 319.5 107.5 Q324 103 330 103 Q336 103 340.5 107.5 Q345 112 345 118 L458 118 L458 0 L60 0 L60 118 L173 118 Q173 112 177.5 107.5 Q182 103 188 103 Q194 103 198.5 107.5 Q203 112 203 118 Q203 124 198.5 128.5 Q194 133 188 133 L188 602 Q194 602 198.5 606.5 Q203 611 203 617 Q203 623 198.5 627.5 Q194 632 188 632 Q182 632 177.5 627.5 Q173 623 173 617 L60 617 L60 735 L458 735 L458 617 L345 617 Q345 623 340.5 627.5 Q336 632 330 632 Q324 632 319.5 627.5 Q315 623 315 617 Q315 611 319.5 606.5 Q324 602 330 602 L330 133 Q324 133 319.5 128.5 Q315 124 315 118 Z " />
<glyph glyph-name="ibreve" unicode="&#x12d;" horiz-adv-x="344" d="M237 512 L237 0 L107 0 L107 512 L237 512 Z M76 684 L140 684 L140 667 Q140 653 149 644 Q158 635 172 635 Q186 635 195 644 Q204 653 204 667 L204 684 L268 684 L268 672 Q268 632 240 604 Q212 576 172 576 Q132 576 104 604 Q76 632 76 672 L76 684 Z " />
<glyph glyph-name="Iogonek" unicode="&#x12e;" horiz-adv-x="518" d="M60 0 L60 118 L173 118 Q173 112 177.5 107.5 Q182 103 188 103 Q194 103 198.5 107.5 Q203 112 203 118 Q203 124 198.5 128.5 Q194 133 188 133 L188 602 Q194 602 198.5 606.5 Q203 611 203 617 Q203 623 198.5 627.5 Q194 632 188 632 Q182 632 177.5 627.5 Q173 623 173 617 L60 617 L60 735 L458 735 L458 617 L345 617 Q345 623 340.5 627.5 Q336 632 330 632 Q324 632 319.5 627.5 Q315 623 315 617 Q315 611 319.5 606.5 Q324 602 330 602 L330 133 Q324 133 319.5 128.5 Q315 124 315 118 Q315 112 319.5 107.5 Q324 103 330 103 Q336 103 340.5 107.5 Q345 112 345 118 L458 118 L458 0 L321 0 Q297 -2 281.5 -21 Q266 -40 266 -64 Q266 -91 284.5 -109.5 Q303 -128 330 -128 Q356 -128 375 -109.5 Q394 -91 394 -64 L458 -64 Q458 -91 448 -114 Q438 -137 420.5 -154.5 Q403 -172 380 -182 Q357 -192 330 -192 Q303 -192 280 -182 Q257 -172 239.5 -154.5 Q222 -137 212 -114 Q202 -91 202 -64 Q202 -34 212 -13 Q216 -15 219 -15 Q225 -15 229.5 -10.5 Q234 -6 234 0 Q234 6 229.5 10.5 Q225 15 219 15 Q213 15 208.5 10.5 Q204 6 204 0 L60 0 Z " />
<glyph glyph-name="iogonek" unicode="&#x12f;" horiz-adv-x="344" d="M44 -64 Q44 -29 61 0 Q78 29 107 46 L107 512 L237 512 L237 0 L166 0 Q141 0 124.5 -19.5 Q108 -39 108 -64 Q108 -91 126.5 -109.5 Q145 -128 172 -128 Q198 -128 217 -109.5 Q236 -91 236 -64 L300 -64 Q300 -91 290 -114 Q280 -137 262.5 -154.5 Q245 -172 222 -182 Q199 -192 172 -192 Q145 -192 122 -182 Q99 -172 81.5 -154.5 Q64 -137 54 -114 Q44 -91 44 -64 Z M85 713 Q85 749 110.5 774.5 Q136 800 172 800 Q208 800 233.5 774.5 Q259 749 259 713 Q259 677 233.5 651.5 Q208 626 172 626 Q136 626 110.5 651.5 Q85 677 85 713 Z " />
<glyph glyph-name="Idotaccent" unicode="&#x130;" horiz-adv-x="518" d="M172 886 Q172 922 197.5 947.5 Q223 973 259 973 Q295 973 320.5 947.5 Q346 922 346 886 Q346 850 320.5 824.5 Q295 799 259 799 Q223 799 197.5 824.5 Q172 850 172 886 Z M315 118 Q315 112 319.5 107.5 Q324 103 330 103 Q336 103 340.5 107.5 Q345 112 345 118 L458 118 L458 0 L60 0 L60 118 L173 118 Q173 112 177.5 107.5 Q182 103 188 103 Q194 103 198.5 107.5 Q203 112 203 118 Q203 124 198.5 128.5 Q194 133 188 133 L188 602 Q194 602 198.5 606.5 Q203 611 203 617 Q203 623 198.5 627.5 Q194 632 188 632 Q182 632 177.5 627.5 Q173 623 173 617 L60 617 L60 735 L458 735 L458 617 L345 617 Q345 623 340.5 627.5 Q336 632 330 632 Q324 632 319.5 627.5 Q315 623 315 617 Q315 611 319.5 606.5 Q324 602 330 602 L330 133 Q324 133 319.5 128.5 Q315 124 315 118 Z " />
<glyph glyph-name="dotlessi" unicode="&#x131;" horiz-adv-x="344" d="M237 512 L237 0 L107 0 L107 512 L237 512 Z " />
<glyph glyph-name="IJ" unicode="&#x132;" horiz-adv-x="536" d="M202 198 Q202 171 221.5 151.5 Q241 132 268 132 Q295 132 314.5 151.5 Q334 171 334 198 L334 735 L466 735 L466 198 Q466 157 450.5 121 Q435 85 408 58 Q381 31 345 15.5 Q309 0 268 0 Q227 0 191 15.5 Q155 31 128 58 Q101 85 85.5 121 Q70 157 70 198 L202 198 Z M70 735 L212 735 L212 320 L70 320 L70 735 Z " />
<glyph glyph-name="ij" unicode="&#x133;" horiz-adv-x="656" d="M237 512 L237 64 L107 64 L107 512 L237 512 Z M85 713 Q85 749 110.5 774.5 Q136 800 172 800 Q208 800 233.5 774.5 Q259 749 259 713 Q259 677 233.5 651.5 Q208 626 172 626 Q136 626 110.5 651.5 Q85 677 85 713 Z M397 713 Q397 749 422.5 774.5 Q448 800 484 800 Q520 800 545.5 774.5 Q571 749 571 713 Q571 677 545.5 651.5 Q520 626 484 626 Q448 626 422.5 651.5 Q397 677 397 713 Z M237 -36 Q237 -55 244.5 -71.5 Q252 -88 264.5 -100.5 Q277 -113 293.5 -120.5 Q310 -128 328 -128 Q366 -128 393 -101.5 Q420 -75 420 -37 L420 512 L548 512 L548 -36 Q548 -81 530.5 -121 Q513 -161 483 -191 Q453 -221 413 -238.5 Q373 -256 327 -256 Q282 -256 242 -238.5 Q202 -221 172 -191 Q142 -161 124.5 -121 Q107 -81 107 -36 L237 -36 Z " />
<glyph glyph-name="Jcircumflex" unicode="&#x134;" horiz-adv-x="496" d="M162 198 Q162 171 181.5 151.5 Q201 132 228 132 Q255 132 274.5 151.5 Q294 171 294 198 L294 735 L426 735 L426 198 Q426 157 410.5 121 Q395 85 368 58 Q341 31 305 15.5 Q269 0 228 0 Q187 0 151 15.5 Q115 31 88 58 Q61 85 45.5 121 Q30 157 30 198 L162 198 Z M358 878 L268 787 L223 832 L359 968 L495 832 L450 787 L358 878 Z " />
<glyph glyph-name="jcircumflex" unicode="&#x135;" horiz-adv-x="289" d="M-52 -64 Q-52 -90 -33 -109 Q-14 -128 12 -128 Q38 -128 57 -109 Q76 -90 76 -64 L76 512 L204 512 L204 -64 Q204 -104 189 -139 Q174 -174 148 -200 Q122 -226 87 -241 Q52 -256 12 -256 Q-28 -256 -63 -241 Q-98 -226 -124 -200 Q-150 -174 -165 -139 Q-180 -104 -180 -64 L-52 -64 Z M137 655 L47 564 L2 609 L138 745 L274 609 L229 564 L137 655 Z " />
<glyph glyph-name="Kcommaaccent" unicode="&#x136;" horiz-adv-x="701" d="M336 -365 L416 -196 Q427 -172 426 -148.5 Q425 -125 414 -106.5 Q403 -88 384 -76 Q365 -64 341 -64 Q305 -64 279.5 -89.5 Q254 -115 254 -151 Q254 -183 274.5 -207 Q295 -231 325 -237 L278 -337 L336 -365 Z M431 374 Q431 368 435.5 363.5 Q440 359 446 359 Q451 359 453 361 L661 0 L512 0 L334 313 L245 313 Q245 319 240.5 323.5 Q236 328 230 328 Q224 328 219.5 323.5 Q215 319 215 313 Q215 307 219.5 302.5 Q224 298 230 298 L230 0 L95 0 L95 735 L230 735 L230 445 Q224 445 219.5 440.5 Q215 436 215 430 Q215 424 219.5 419.5 Q224 415 230 415 Q236 415 240.5 419.5 Q245 424 245 430 L329 430 L505 735 L654 735 L453 387 Q449 389 446 389 Q440 389 435.5 384.5 Q431 380 431 374 Z " />
<glyph glyph-name="kcommaaccent" unicode="&#x137;" horiz-adv-x="581" d="M306 -365 L386 -196 Q397 -172 396 -148.5 Q395 -125 384 -106.5 Q373 -88 354 -76 Q335 -64 311 -64 Q275 -64 249.5 -89.5 Q224 -115 224 -151 Q224 -183 244.5 -207 Q265 -231 295 -237 L248 -337 L306 -365 Z M392 256 Q392 250 396.5 245.5 Q401 241 407 241 Q410 241 414 243 L561 0 L418 0 L301 192 L233 192 Q233 198 228.5 202.5 Q224 207 218 207 Q212 207 207.5 202.5 Q203 198 203 192 Q203 186 207.5 181.5 Q212 177 218 177 L218 0 L90 0 L90 768 L218 768 L218 335 Q212 335 207.5 330.5 Q203 326 203 320 Q203 314 207.5 309.5 Q212 305 218 305 Q224 305 228.5 309.5 Q233 314 233 320 L301 320 L418 512 L561 512 L414 268 Q411 271 407 271 Q401 271 396.5 266.5 Q392 262 392 256 Z " />
<glyph glyph-name="kgreenlandic" unicode="&#x138;" horiz-adv-x="591" d="M415 218 Q415 212 419.5 207.5 Q424 203 430 203 Q433 203 437 205 L561 0 L418 0 L301 192 L233 192 Q233 198 228.5 202.5 Q224 207 218 207 Q212 207 207.5 202.5 Q203 198 203 192 Q203 186 207.5 181.5 Q212 177 218 177 L218 0 L90 0 L90 512 L218 512 L218 335 Q212 335 207.5 330.5 Q203 326 203 320 Q203 314 207.5 309.5 Q212 305 218 305 Q224 305 228.5 309.5 Q233 314 233 320 L326 320 Q366 320 394 348 Q422 376 422 416 L422 512 L550 512 L550 416 Q550 355 520.5 304.5 Q491 254 443 225 Q438 233 430 233 Q424 233 419.5 228.5 Q415 224 415 218 Z " />
<glyph glyph-name="Lacute" unicode="&#x139;" horiz-adv-x="501" d="M165 788 L132 821 Q168 871 188.5 899 Q209 927 219.5 941 Q230 955 233 959 Q236 963 238 964 Q253 979 273 979 Q293 979 308 964 Q323 949 323 929 Q323 909 308 894 L165 788 Z M217 118 Q217 112 221.5 107.5 Q226 103 232 103 Q238 103 242.5 107.5 Q247 112 247 118 L481 118 L481 0 L95 0 L95 735 L232 735 L232 133 Q226 133 221.5 128.5 Q217 124 217 118 Z " />
<glyph glyph-name="lacute" unicode="&#x13a;" horiz-adv-x="308" d="M88 0 L88 768 L220 768 L220 0 L88 0 Z M159 825 L126 858 Q162 908 182.5 936 Q203 964 213.5 978 Q224 992 227 996 Q230 1000 232 1001 Q247 1016 267 1016 Q287 1016 302 1001 Q317 986 317 966 Q317 946 302 931 L159 825 Z " />
<glyph glyph-name="Lcommaaccent" unicode="&#x13b;" horiz-adv-x="501" d="M236 -365 L316 -196 Q327 -172 326 -148.5 Q325 -125 314 -106.5 Q303 -88 284 -76 Q265 -64 241 -64 Q205 -64 179.5 -89.5 Q154 -115 154 -151 Q154 -183 174.5 -207 Q195 -231 225 -237 L178 -337 L236 -365 Z M217 118 Q217 112 221.5 107.5 Q226 103 232 103 Q238 103 242.5 107.5 Q247 112 247 118 L481 118 L481 0 L95 0 L95 735 L232 735 L232 133 Q226 133 221.5 128.5 Q217 124 217 118 Z " />
<glyph glyph-name="lcommaaccent" unicode="&#x13c;" horiz-adv-x="308" d="M88 0 L88 768 L220 768 L220 0 L88 0 Z M82 -337 L129 -237 Q99 -231 78.5 -207 Q58 -183 58 -151 Q58 -115 83.5 -89.5 Q109 -64 145 -64 Q169 -64 188 -76 Q207 -88 218 -106.5 Q229 -125 230 -148.5 Q231 -172 220 -196 L140 -365 L82 -337 Z " />
<glyph glyph-name="Lcaron" unicode="&#x13d;" horiz-adv-x="501" d="M346 558 Q386 573 401 617 L395 617 Q361 617 341.5 636.5 Q322 656 322 685 Q322 714 341.5 734 Q361 754 394 754 Q429 754 448.5 734 Q468 714 468 685 L468 682 Q468 563 371 514 L346 558 Z M217 118 Q217 112 221.5 107.5 Q226 103 232 103 Q238 103 242.5 107.5 Q247 112 247 118 L481 118 L481 0 L95 0 L95 735 L232 735 L232 133 Q226 133 221.5 128.5 Q217 124 217 118 Z " />
<glyph glyph-name="lcaron" unicode="&#x13e;" horiz-adv-x="469" d="M88 0 L88 768 L220 768 L220 0 L88 0 Z M327 581 Q367 596 382 640 L376 640 Q342 640 322.5 659.5 Q303 679 303 708 Q303 737 322.5 757 Q342 777 375 777 Q410 777 429.5 757 Q449 737 449 708 L449 705 Q449 586 352 537 L327 581 Z " />
<glyph glyph-name="Ldot" unicode="&#x13f;" horiz-adv-x="501" d="M304 306 Q304 270 329.5 244.5 Q355 219 391 219 Q427 219 452.5 244.5 Q478 270 478 306 Q478 342 452.5 367.5 Q427 393 391 393 Q355 393 329.5 367.5 Q304 342 304 306 Z M217 118 Q217 112 221.5 107.5 Q226 103 232 103 Q238 103 242.5 107.5 Q247 112 247 118 L481 118 L481 0 L95 0 L95 735 L232 735 L232 133 Q226 133 221.5 128.5 Q217 124 217 118 Z " />
<glyph glyph-name="ldot" unicode="&#x140;" horiz-adv-x="498" d="M88 0 L88 768 L220 768 L220 0 L88 0 Z M294 256 Q294 292 319.5 317.5 Q345 343 381 343 Q417 343 442.5 317.5 Q468 292 468 256 Q468 220 442.5 194.5 Q417 169 381 169 Q345 169 319.5 194.5 Q294 220 294 256 Z " />
<glyph glyph-name="Lslash" unicode="&#x141;" horiz-adv-x="501" d="M80 230 L29 217 L9 292 L80 311 Q84 300 95 300 Q101 300 105.5 304.5 Q110 309 110 315 Q110 321 105.5 325.5 Q101 330 95 330 L95 735 L232 735 L232 369 Q226 369 221.5 364.5 Q217 360 217 354 Q217 348 221.5 343.5 Q226 339 232 339 Q238 339 242.5 343.5 Q247 348 247 354 Q247 356 246 358 L312 376 L332 301 L246 277 Q242 288 232 288 Q226 288 221.5 283.5 Q217 279 217 273 Q217 267 221.5 262.5 Q226 258 232 258 L232 133 Q226 133 221.5 128.5 Q217 124 217 118 Q217 112 221.5 107.5 Q226 103 232 103 Q238 103 242.5 107.5 Q247 112 247 118 L481 118 L481 0 L95 0 L95 219 Q101 219 105.5 223.5 Q110 228 110 234 Q110 240 105.5 244.5 Q101 249 95 249 Q89 249 84.5 244.5 Q80 240 80 234 L80 230 Z " />
<glyph glyph-name="lslash" unicode="&#x142;" horiz-adv-x="308" d="M205 353 Q205 347 209.5 342.5 Q214 338 220 338 Q226 338 230.5 342.5 Q235 347 235 353 Q235 355 234 357 L295 373 L315 298 L234 276 Q230 287 220 287 Q214 287 209.5 282.5 Q205 278 205 272 Q205 266 209.5 261.5 Q214 257 220 257 L220 0 L88 0 L88 222 Q94 222 98.5 226.5 Q103 231 103 237 Q103 243 98.5 247.5 Q94 252 88 252 Q82 252 77.5 247.5 Q73 243 73 237 L73 233 L12 217 L-8 292 L73 313 Q77 302 88 302 Q94 302 98.5 306.5 Q103 311 103 317 Q103 323 98.5 327.5 Q94 332 88 332 L88 768 L220 768 L220 368 Q214 368 209.5 363.5 Q205 359 205 353 Z " />
<glyph glyph-name="Nacute" unicode="&#x143;" horiz-adv-x="853" d="M421 788 L388 821 Q424 871 444.5 899 Q465 927 475.5 941 Q486 955 489 959 Q492 963 494 964 Q509 979 529 979 Q549 979 564 964 Q579 949 579 929 Q579 909 564 894 L421 788 Z M216 459 Q216 453 220.5 448.5 Q225 444 231 444 L231 0 L95 0 L95 730 L106 735 L611 296 Q607 292 607 286 Q607 280 611.5 275.5 Q616 271 622 271 Q628 271 632.5 275.5 Q637 280 637 286 Q637 292 632.5 296.5 Q628 301 622 301 L622 735 L758 735 L758 5 L746 -1 L242 449 Q246 453 246 459 Q246 465 241.5 469.5 Q237 474 231 474 Q225 474 220.5 469.5 Q216 465 216 459 Z " />
<glyph glyph-name="nacute" unicode="&#x144;" horiz-adv-x="662" d="M346 565 L313 598 Q349 648 369.5 676 Q390 704 400.5 718 Q411 732 414 736 Q417 740 419 741 Q434 756 454 756 Q474 756 489 741 Q504 726 504 706 Q504 686 489 671 L346 565 Z M203 450 Q203 444 207.5 439.5 Q212 435 218 435 Q224 435 228.5 439.5 Q233 444 233 450 Q233 454 229 460 Q258 484 292.5 498 Q327 512 366 512 Q415 512 458 492 Q501 472 533 437.5 Q565 403 583.5 356 Q602 309 602 256 L602 0 L474 0 L474 256 Q474 283 464 306 Q454 329 436.5 346.5 Q419 364 396 374 Q373 384 346 384 Q320 384 297.5 374.5 Q275 365 257.5 348.5 Q240 332 229.5 309.5 Q219 287 218 261 L218 0 L90 0 L90 512 L218 512 L218 465 Q212 465 207.5 460.5 Q203 456 203 450 Z " />
<glyph glyph-name="Ncommaaccent" unicode="&#x145;" horiz-adv-x="853" d="M452 -365 L532 -196 Q543 -172 542 -148.5 Q541 -125 530 -106.5 Q519 -88 500 -76 Q481 -64 457 -64 Q421 -64 395.5 -89.5 Q370 -115 370 -151 Q370 -183 390.5 -207 Q411 -231 441 -237 L394 -337 L452 -365 Z M216 459 Q216 453 220.5 448.5 Q225 444 231 444 L231 0 L95 0 L95 730 L106 735 L611 296 Q607 292 607 286 Q607 280 611.5 275.5 Q616 271 622 271 Q628 271 632.5 275.5 Q637 280 637 286 Q637 292 632.5 296.5 Q628 301 622 301 L622 735 L758 735 L758 5 L746 -1 L242 449 Q246 453 246 459 Q246 465 241.5 469.5 Q237 474 231 474 Q225 474 220.5 469.5 Q216 465 216 459 Z " />
<glyph glyph-name="ncommaaccent" unicode="&#x146;" horiz-adv-x="667" d="M352 -365 L432 -196 Q443 -172 442 -148.5 Q441 -125 430 -106.5 Q419 -88 400 -76 Q381 -64 357 -64 Q321 -64 295.5 -89.5 Q270 -115 270 -151 Q270 -183 290.5 -207 Q311 -231 341 -237 L294 -337 L352 -365 Z M203 450 Q203 444 207.5 439.5 Q212 435 218 435 Q224 435 228.5 439.5 Q233 444 233 450 Q233 454 229 460 Q258 484 292.5 498 Q327 512 366 512 Q415 512 458 492 Q501 472 533 437.5 Q565 403 583.5 356 Q602 309 602 256 L602 0 L474 0 L474 256 Q474 283 464 306 Q454 329 436.5 346.5 Q419 364 396 374 Q373 384 346 384 Q320 384 297.5 374.5 Q275 365 257.5 348.5 Q240 332 229.5 309.5 Q219 287 218 261 L218 0 L90 0 L90 512 L218 512 L218 465 Q212 465 207.5 460.5 Q203 456 203 450 Z " />
<glyph glyph-name="Ncaron" unicode="&#x147;" horiz-adv-x="853" d="M427 877 L517 968 L562 923 L426 787 L290 923 L335 968 L427 877 Z M216 459 Q216 453 220.5 448.5 Q225 444 231 444 L231 0 L95 0 L95 730 L106 735 L611 296 Q607 292 607 286 Q607 280 611.5 275.5 Q616 271 622 271 Q628 271 632.5 275.5 Q637 280 637 286 Q637 292 632.5 296.5 Q628 301 622 301 L622 735 L758 735 L758 5 L746 -1 L242 449 Q246 453 246 459 Q246 465 241.5 469.5 Q237 474 231 474 Q225 474 220.5 469.5 Q216 465 216 459 Z " />
<glyph glyph-name="ncaron" unicode="&#x148;" horiz-adv-x="667" d="M347 654 L437 745 L482 700 L346 564 L210 700 L255 745 L347 654 Z M203 450 Q203 444 207.5 439.5 Q212 435 218 435 Q224 435 228.5 439.5 Q233 444 233 450 Q233 454 229 460 Q258 484 292.5 498 Q327 512 366 512 Q415 512 458 492 Q501 472 533 437.5 Q565 403 583.5 356 Q602 309 602 256 L602 0 L474 0 L474 256 Q474 283 464 306 Q454 329 436.5 346.5 Q419 364 396 374 Q373 384 346 384 Q320 384 297.5 374.5 Q275 365 257.5 348.5 Q240 332 229.5 309.5 Q219 287 218 261 L218 0 L90 0 L90 512 L218 512 L218 465 Q212 465 207.5 460.5 Q203 456 203 450 Z " />
<glyph glyph-name="napostrophe" unicode="&#x149;" horiz-adv-x="662" d="M104 612 L151 712 Q121 718 100.5 742 Q80 766 80 798 Q80 834 105.5 859.5 Q131 885 167 885 Q191 885 210 873 Q229 861 240 842.5 Q251 824 252 800.5 Q253 777 242 753 L162 584 L104 612 Z M203 450 Q203 444 207.5 439.5 Q212 435 218 435 Q224 435 228.5 439.5 Q233 444 233 450 Q233 454 229 460 Q258 484 292.5 498 Q327 512 366 512 Q415 512 458 492 Q501 472 533 437.5 Q565 403 583.5 356 Q602 309 602 256 L602 0 L474 0 L474 256 Q474 283 464 306 Q454 329 436.5 346.5 Q419 364 396 374 Q373 384 346 384 Q320 384 297.5 374.5 Q275 365 257.5 348.5 Q240 332 229.5 309.5 Q219 287 218 261 L218 0 L90 0 L90 512 L218 512 L218 465 Q212 465 207.5 460.5 Q203 456 203 450 Z " />
<glyph glyph-name="Eng" unicode="&#x14a;" horiz-adv-x="853" d="M611 268 Q611 262 615.5 257.5 Q620 253 626 253 Q632 253 636.5 257.5 Q641 262 641 268 Q641 274 636.5 278.5 Q632 283 626 283 L626 735 L758 735 L758 -59 Q758 -100 742.5 -136 Q727 -172 700 -199 Q673 -226 637 -241.5 Q601 -257 560 -257 Q519 -257 483 -241.5 Q447 -226 420 -199 Q393 -172 377.5 -136 Q362 -100 362 -59 L494 -59 Q494 -86 513.5 -105.5 Q533 -125 560 -125 Q587 -125 606.5 -105.5 Q626 -86 626 -59 L626 77 L237 466 Q242 471 242 477 Q242 483 237.5 487.5 Q233 492 227 492 Q221 492 216.5 487.5 Q212 483 212 477 Q212 471 216.5 466.5 Q221 462 227 462 L227 0 L95 0 L95 735 L151 735 L615 278 Q611 274 611 268 Z " />
<glyph glyph-name="eng" unicode="&#x14b;" horiz-adv-x="662" d="M203 450 Q203 444 207.5 439.5 Q212 435 218 435 Q224 435 228.5 439.5 Q233 444 233 450 Q233 454 229 460 Q258 484 292.5 498 Q327 512 366 512 Q415 512 458 492 Q501 472 533 437.5 Q565 403 583.5 356 Q602 309 602 256 L602 -64 Q602 -104 587 -139 Q572 -174 546 -200 Q520 -226 485 -241 Q450 -256 410 -256 Q370 -256 335 -241 Q300 -226 274 -200 Q248 -174 233 -139 Q218 -104 218 -64 L346 -64 Q346 -90 365 -109 Q384 -128 410 -128 Q436 -128 455 -109 Q474 -90 474 -64 L474 256 Q474 283 464 306 Q454 329 436.5 346.5 Q419 364 396 374 Q373 384 346 384 Q320 384 297.5 374.5 Q275 365 257.5 348.5 Q240 332 229.5 309.5 Q219 287 218 261 L218 0 L90 0 L90 512 L218 512 L218 465 Q212 465 207.5 460.5 Q203 456 203 450 Z " />
<glyph glyph-name="Omacron" unicode="&#x14c;" horiz-adv-x="868" d="M55 368 Q55 446 85 515 Q115 584 166.5 635.5 Q218 687 287 717 Q356 747 434 747 Q512 747 581 717 Q650 687 701.5 635.5 Q753 584 783 515 Q813 446 813 368 Q813 290 783 221 Q753 152 701.5 100.5 Q650 49 581 19 Q512 -11 434 -11 Q356 -11 287 19 Q218 49 166.5 100.5 Q115 152 85 221 Q55 290 55 368 Z M194 368 Q194 319 213 275 Q232 231 264.5 198.5 Q297 166 341 147 Q385 128 434 128 Q484 128 527.5 147 Q571 166 603.5 198.5 Q636 231 655 275 Q674 319 674 368 Q674 418 655 461.5 Q636 505 603.5 537.5 Q571 570 527.5 589 Q484 608 434 608 Q385 608 341 589 Q297 570 264.5 537.5 Q232 505 213 461.5 Q194 418 194 368 Z M590 799 L278 799 L278 877 L590 877 L590 799 Z " />
<glyph glyph-name="omacron" unicode="&#x14d;" horiz-adv-x="622" d="M50 256 Q50 310 70.5 358 Q91 406 126 441 Q161 476 209 496.5 Q257 517 311 517 Q365 517 413 496.5 Q461 476 496 441 Q531 406 551.5 358 Q572 310 572 256 Q572 202 551.5 154 Q531 106 496 71 Q461 36 413 15.5 Q365 -5 311 -5 Q257 -5 209 15.5 Q161 36 126 71 Q91 106 70.5 154 Q50 202 50 256 Z M467 576 L155 576 L155 654 L467 654 L467 576 Z M177 256 Q177 229 187.5 204.5 Q198 180 216.5 161.5 Q235 143 259.5 132.5 Q284 122 311 122 Q338 122 362.5 132.5 Q387 143 405.5 161.5 Q424 180 434.5 204.5 Q445 229 445 256 Q445 283 434.5 307.5 Q424 332 405.5 350.5 Q387 369 362.5 379.5 Q338 390 311 390 Q284 390 259.5 379.5 Q235 369 216.5 350.5 Q198 332 187.5 307.5 Q177 283 177 256 Z " />
<glyph glyph-name="Obreve" unicode="&#x14e;" horiz-adv-x="868" d="M55 368 Q55 446 85 515 Q115 584 166.5 635.5 Q218 687 287 717 Q356 747 434 747 Q512 747 581 717 Q650 687 701.5 635.5 Q753 584 783 515 Q813 446 813 368 Q813 290 783 221 Q753 152 701.5 100.5 Q650 49 581 19 Q512 -11 434 -11 Q356 -11 287 19 Q218 49 166.5 100.5 Q115 152 85 221 Q55 290 55 368 Z M194 368 Q194 319 213 275 Q232 231 264.5 198.5 Q297 166 341 147 Q385 128 434 128 Q484 128 527.5 147 Q571 166 603.5 198.5 Q636 231 655 275 Q674 319 674 368 Q674 418 655 461.5 Q636 505 603.5 537.5 Q571 570 527.5 589 Q484 608 434 608 Q385 608 341 589 Q297 570 264.5 537.5 Q232 505 213 461.5 Q194 418 194 368 Z M338 907 L402 907 L402 890 Q402 876 411 867 Q420 858 434 858 Q448 858 457 867 Q466 876 466 890 L466 907 L530 907 L530 895 Q530 855 502 827 Q474 799 434 799 Q394 799 366 827 Q338 855 338 895 L338 907 Z " />
<glyph glyph-name="obreve" unicode="&#x14f;" horiz-adv-x="622" d="M50 256 Q50 310 70.5 358 Q91 406 126 441 Q161 476 209 496.5 Q257 517 311 517 Q365 517 413 496.5 Q461 476 496 441 Q531 406 551.5 358 Q572 310 572 256 Q572 202 551.5 154 Q531 106 496 71 Q461 36 413 15.5 Q365 -5 311 -5 Q257 -5 209 15.5 Q161 36 126 71 Q91 106 70.5 154 Q50 202 50 256 Z M215 684 L279 684 L279 667 Q279 653 288 644 Q297 635 311 635 Q325 635 334 644 Q343 653 343 667 L343 684 L407 684 L407 672 Q407 632 379 604 Q351 576 311 576 Q271 576 243 604 Q215 632 215 672 L215 684 Z M177 256 Q177 229 187.5 204.5 Q198 180 216.5 161.5 Q235 143 259.5 132.5 Q284 122 311 122 Q338 122 362.5 132.5 Q387 143 405.5 161.5 Q424 180 434.5 204.5 Q445 229 445 256 Q445 283 434.5 307.5 Q424 332 405.5 350.5 Q387 369 362.5 379.5 Q338 390 311 390 Q284 390 259.5 379.5 Q235 369 216.5 350.5 Q198 332 187.5 307.5 Q177 283 177 256 Z " />
<glyph glyph-name="Ohungarumlaut" unicode="&#x150;" horiz-adv-x="868" d="M55 368 Q55 446 85 515 Q115 584 166.5 635.5 Q218 687 287 717 Q356 747 434 747 Q512 747 581 717 Q650 687 701.5 635.5 Q753 584 783 515 Q813 446 813 368 Q813 290 783 221 Q753 152 701.5 100.5 Q650 49 581 19 Q512 -11 434 -11 Q356 -11 287 19 Q218 49 166.5 100.5 Q115 152 85 221 Q55 290 55 368 Z M194 368 Q194 319 213 275 Q232 231 264.5 198.5 Q297 166 341 147 Q385 128 434 128 Q484 128 527.5 147 Q571 166 603.5 198.5 Q636 231 655 275 Q674 319 674 368 Q674 418 655 461.5 Q636 505 603.5 537.5 Q571 570 527.5 589 Q484 608 434 608 Q385 608 341 589 Q297 570 264.5 537.5 Q232 505 213 461.5 Q194 418 194 368 Z M338 788 L305 821 Q341 871 361.5 899 Q382 927 392.5 941 Q403 955 406 959 Q409 963 411 964 Q426 979 446 979 Q466 979 481 964 Q496 949 496 929 Q496 909 481 894 L338 788 Z M540 788 L507 821 Q543 871 563.5 899 Q584 927 594.5 941 Q605 955 608 959 Q611 963 613 964 Q628 979 648 979 Q668 979 683 964 Q698 949 698 929 Q698 909 683 894 L540 788 Z " />
<glyph glyph-name="ohungarumlaut" unicode="&#x151;" horiz-adv-x="622" d="M50 256 Q50 310 70.5 358 Q91 406 126 441 Q161 476 209 496.5 Q257 517 311 517 Q365 517 413 496.5 Q461 476 496 441 Q531 406 551.5 358 Q572 310 572 256 Q572 202 551.5 154 Q531 106 496 71 Q461 36 413 15.5 Q365 -5 311 -5 Q257 -5 209 15.5 Q161 36 126 71 Q91 106 70.5 154 Q50 202 50 256 Z M215 565 L182 598 Q218 648 238.5 676 Q259 704 269.5 718 Q280 732 283 736 Q286 740 288 741 Q303 756 323 756 Q343 756 358 741 Q373 726 373 706 Q373 686 358 671 L215 565 Z M417 565 L384 598 Q420 648 440.5 676 Q461 704 471.5 718 Q482 732 485 736 Q488 740 490 741 Q505 756 525 756 Q545 756 560 741 Q575 726 575 706 Q575 686 560 671 L417 565 Z M177 256 Q177 229 187.5 204.5 Q198 180 216.5 161.5 Q235 143 259.5 132.5 Q284 122 311 122 Q338 122 362.5 132.5 Q387 143 405.5 161.5 Q424 180 434.5 204.5 Q445 229 445 256 Q445 283 434.5 307.5 Q424 332 405.5 350.5 Q387 369 362.5 379.5 Q338 390 311 390 Q284 390 259.5 379.5 Q235 369 216.5 350.5 Q198 332 187.5 307.5 Q177 283 177 256 Z " />
<glyph glyph-name="OE" unicode="&#x152;" horiz-adv-x="1033" d="M652 310 Q652 304 656.5 299.5 Q661 295 667 295 L667 133 Q661 133 656.5 128.5 Q652 124 652 118 Q652 112 656.5 107.5 Q661 103 667 103 Q673 103 677.5 107.5 Q682 112 682 118 L978 118 L978 0 L525 0 Q479 -11 434 -11 Q356 -11 287 19 Q218 49 166.5 100.5 Q115 152 85 221 Q55 290 55 368 Q55 446 85 515 Q115 584 166.5 635.5 Q218 687 287 717 Q356 747 434 747 Q457 747 480 743.5 Q503 740 525 735 L978 735 L978 617 L682 617 Q682 623 677.5 627.5 Q673 632 667 632 Q661 632 656.5 627.5 Q652 623 652 617 Q652 611 656.5 606.5 Q661 602 667 602 L667 443 Q661 443 656.5 438.5 Q652 434 652 428 Q652 422 656.5 417.5 Q661 413 667 413 Q673 413 677.5 417.5 Q682 422 682 428 L978 428 L978 310 L682 310 Q682 316 677.5 320.5 Q673 325 667 325 Q661 325 656.5 320.5 Q652 316 652 310 Z M434 608 Q385 608 341 589 Q297 570 264.5 537.5 Q232 505 213 461.5 Q194 418 194 368 Q194 319 213 275 Q232 231 264.5 198.5 Q297 166 341 147 Q385 128 434 128 Q475 128 511 140 Q515 131 525 131 Q531 131 535.5 135.5 Q540 140 540 146 Q540 152 535.5 156.5 Q531 161 525 161 L525 575 Q531 575 535.5 579.5 Q540 584 540 590 Q540 596 535.5 600.5 Q531 605 525 605 Q515 605 511 595 Q493 601 473.5 604.5 Q454 608 434 608 Z " />
<glyph glyph-name="oe" unicode="&#x153;" horiz-adv-x="993" d="M484 438 Q484 432 488.5 427.5 Q493 423 499 423 Q505 423 509.5 427.5 Q514 432 514 438 Q514 443 509 448 Q541 481 587 500 Q633 519 690 519 Q747 519 794.5 499.5 Q842 480 877 445.5 Q912 411 931.5 362.5 Q951 314 951 256 Q951 243 948.5 229.5 Q946 216 943 208 L583 208 Q583 214 578.5 218.5 Q574 223 568 223 Q562 223 557.5 218.5 Q553 214 553 208 Q553 202 557.5 197.5 Q562 193 568 193 L570 193 Q580 155 616 132.5 Q652 110 695 110 Q731 110 763.5 124.5 Q796 139 818 164 L912 90 Q874 44 817 18 Q760 -8 694 -8 Q646 -8 596.5 8.5 Q547 25 509 63 Q514 68 514 74 Q514 80 509.5 84.5 Q505 89 499 89 Q493 89 488.5 84.5 Q484 80 484 74 Q484 67 488 63 Q453 31 407.5 13 Q362 -5 311 -5 Q257 -5 209 15.5 Q161 36 126 71 Q91 106 70.5 154 Q50 202 50 256 Q50 310 70.5 358 Q91 406 126 441 Q161 476 209 496.5 Q257 517 311 517 Q362 517 407.5 498.5 Q453 480 488 448 Q484 444 484 438 Z M177 256 Q177 229 187.5 204.5 Q198 180 216.5 161.5 Q235 143 259.5 132.5 Q284 122 311 122 Q338 122 362.5 132.5 Q387 143 405.5 161.5 Q424 180 434.5 204.5 Q445 229 445 256 Q445 283 434.5 307.5 Q424 332 405.5 350.5 Q387 369 362.5 379.5 Q338 390 311 390 Q284 390 259.5 379.5 Q235 369 216.5 350.5 Q198 332 187.5 307.5 Q177 283 177 256 Z M553 311 Q553 305 557.5 300.5 Q562 296 568 296 Q574 296 578.5 300.5 Q583 305 583 311 L803 311 Q803 305 807.5 300.5 Q812 296 818 296 Q824 296 828.5 300.5 Q833 305 833 311 Q833 317 828.5 321.5 Q824 326 818 326 Q815 326 814 325 Q804 360 773.5 386.5 Q743 413 692 413 Q641 413 610.5 387 Q580 361 570 326 L568 326 Q562 326 557.5 321.5 Q553 317 553 311 Z " />
<glyph glyph-name="Racute" unicode="&#x154;" horiz-adv-x="686" d="M328 788 L295 821 Q331 871 351.5 899 Q372 927 382.5 941 Q393 955 396 959 Q399 963 401 964 Q416 979 436 979 Q456 979 471 964 Q486 949 486 929 Q486 909 471 894 L328 788 Z M522 301 Q522 295 526.5 290.5 Q531 286 537 286 Q540 286 542 287 L648 0 L504 0 L404 274 L246 274 Q246 280 241.5 284.5 Q237 289 231 289 Q225 289 220.5 284.5 Q216 280 216 274 Q216 268 220.5 263.5 Q225 259 231 259 L231 0 L95 0 L95 735 L425 735 Q473 735 515 717 Q557 699 588.5 667.5 Q620 636 638 594 Q656 552 656 504 Q656 442 626.5 391 Q597 340 549 308 Q546 316 537 316 Q531 316 526.5 311.5 Q522 307 522 301 Z M216 617 Q216 611 220.5 606.5 Q225 602 231 602 L231 406 Q225 406 220.5 401.5 Q216 397 216 391 Q216 385 220.5 380.5 Q225 376 231 376 Q237 376 241.5 380.5 Q246 385 246 391 L411 391 Q435 391 455.5 400 Q476 409 491 424.5 Q506 440 515 460.5 Q524 481 524 504 Q524 528 515 548.5 Q506 569 491 584 Q476 599 455.5 608 Q435 617 411 617 L246 617 Q246 623 241.5 627.5 Q237 632 231 632 Q225 632 220.5 627.5 Q216 623 216 617 Z " />
<glyph glyph-name="racute" unicode="&#x155;" horiz-adv-x="419" d="M189 565 L156 598 Q192 648 212.5 676 Q233 704 243.5 718 Q254 732 257 736 Q260 740 262 741 Q277 756 297 756 Q317 756 332 741 Q347 726 347 706 Q347 686 332 671 L189 565 Z M192 446 Q192 440 196.5 435.5 Q201 431 207 431 Q213 431 217.5 435.5 Q222 440 222 446 Q222 450 218 456 Q248 482 285 497 Q322 512 364 512 L399 512 L399 395 L364 395 Q335 395 309.5 384 Q284 373 265.5 354.5 Q247 336 236 310.5 Q225 285 225 256 L225 0 L95 0 L95 512 L207 512 L207 461 Q201 461 196.5 456.5 Q192 452 192 446 Z " />
<glyph glyph-name="Rcommaaccent" unicode="&#x156;" horiz-adv-x="686" d="M359 -365 L439 -196 Q450 -172 449 -148.5 Q448 -125 437 -106.5 Q426 -88 407 -76 Q388 -64 364 -64 Q328 -64 302.5 -89.5 Q277 -115 277 -151 Q277 -183 297.5 -207 Q318 -231 348 -237 L301 -337 L359 -365 Z M522 301 Q522 295 526.5 290.5 Q531 286 537 286 Q540 286 542 287 L648 0 L504 0 L404 274 L246 274 Q246 280 241.5 284.5 Q237 289 231 289 Q225 289 220.5 284.5 Q216 280 216 274 Q216 268 220.5 263.5 Q225 259 231 259 L231 0 L95 0 L95 735 L425 735 Q473 735 515 717 Q557 699 588.5 667.5 Q620 636 638 594 Q656 552 656 504 Q656 442 626.5 391 Q597 340 549 308 Q546 316 537 316 Q531 316 526.5 311.5 Q522 307 522 301 Z M216 617 Q216 611 220.5 606.5 Q225 602 231 602 L231 406 Q225 406 220.5 401.5 Q216 397 216 391 Q216 385 220.5 380.5 Q225 376 231 376 Q237 376 241.5 380.5 Q246 385 246 391 L411 391 Q435 391 455.5 400 Q476 409 491 424.5 Q506 440 515 460.5 Q524 481 524 504 Q524 528 515 548.5 Q506 569 491 584 Q476 599 455.5 608 Q435 617 411 617 L246 617 Q246 623 241.5 627.5 Q237 632 231 632 Q225 632 220.5 627.5 Q216 623 216 617 Z " />
<glyph glyph-name="rcommaaccent" unicode="&#x157;" horiz-adv-x="419" d="M157 -365 L237 -196 Q248 -172 247 -148.5 Q246 -125 235 -106.5 Q224 -88 205 -76 Q186 -64 162 -64 Q126 -64 100.5 -89.5 Q75 -115 75 -151 Q75 -183 95.5 -207 Q116 -231 146 -237 L99 -337 L157 -365 Z M192 446 Q192 440 196.5 435.5 Q201 431 207 431 Q213 431 217.5 435.5 Q222 440 222 446 Q222 450 218 456 Q248 482 285 497 Q322 512 364 512 L399 512 L399 395 L364 395 Q335 395 309.5 384 Q284 373 265.5 354.5 Q247 336 236 310.5 Q225 285 225 256 L225 0 L95 0 L95 512 L207 512 L207 461 Q201 461 196.5 456.5 Q192 452 192 446 Z " />
<glyph glyph-name="Rcaron" unicode="&#x158;" horiz-adv-x="686" d="M344 877 L434 968 L479 923 L343 787 L207 923 L252 968 L344 877 Z M522 301 Q522 295 526.5 290.5 Q531 286 537 286 Q540 286 542 287 L648 0 L504 0 L404 274 L246 274 Q246 280 241.5 284.5 Q237 289 231 289 Q225 289 220.5 284.5 Q216 280 216 274 Q216 268 220.5 263.5 Q225 259 231 259 L231 0 L95 0 L95 735 L425 735 Q473 735 515 717 Q557 699 588.5 667.5 Q620 636 638 594 Q656 552 656 504 Q656 442 626.5 391 Q597 340 549 308 Q546 316 537 316 Q531 316 526.5 311.5 Q522 307 522 301 Z M216 617 Q216 611 220.5 606.5 Q225 602 231 602 L231 406 Q225 406 220.5 401.5 Q216 397 216 391 Q216 385 220.5 380.5 Q225 376 231 376 Q237 376 241.5 380.5 Q246 385 246 391 L411 391 Q435 391 455.5 400 Q476 409 491 424.5 Q506 440 515 460.5 Q524 481 524 504 Q524 528 515 548.5 Q506 569 491 584 Q476 599 455.5 608 Q435 617 411 617 L246 617 Q246 623 241.5 627.5 Q237 632 231 632 Q225 632 220.5 627.5 Q216 623 216 617 Z " />
<glyph glyph-name="rcaron" unicode="&#x159;" horiz-adv-x="419" d="M205 654 L295 745 L340 700 L204 564 L68 700 L113 745 L205 654 Z M192 446 Q192 440 196.5 435.5 Q201 431 207 431 Q213 431 217.5 435.5 Q222 440 222 446 Q222 450 218 456 Q248 482 285 497 Q322 512 364 512 L399 512 L399 395 L364 395 Q335 395 309.5 384 Q284 373 265.5 354.5 Q247 336 236 310.5 Q225 285 225 256 L225 0 L95 0 L95 512 L207 512 L207 461 Q201 461 196.5 456.5 Q192 452 192 446 Z " />
<glyph glyph-name="Sacute" unicode="&#x15a;" horiz-adv-x="616" d="M324 -16 Q274 -16 229 -3 Q184 10 147.5 36.5 Q111 63 86 102 Q61 141 50 192 L180 234 Q194 181 232 148 Q270 115 325 115 Q381 115 409 136.5 Q437 158 437 195 Q437 244 369 275 Q333 292 287.5 308.5 Q242 325 199 350 Q173 365 149.5 384 Q126 403 108.5 428 Q91 453 80.5 484.5 Q70 516 70 556 Q70 606 91 642.5 Q112 679 146.5 703.5 Q181 728 225 740 Q269 752 315 752 Q355 752 392 742.5 Q429 733 460 713.5 Q491 694 514.5 664.5 Q538 635 551 596 L429 545 Q416 583 385 604 Q354 625 312 625 Q270 625 241 607 Q212 589 212 553 Q212 526 225.5 507.5 Q239 489 270 473 Q304 454 349 438 Q394 422 438 400 Q466 386 491 368.5 Q516 351 535 327.5 Q554 304 565 274 Q576 244 576 205 Q576 152 555 111 Q534 70 499 41.5 Q464 13 418.5 -1.5 Q373 -16 324 -16 Z M313 788 L280 821 Q316 871 336.5 899 Q357 927 367.5 941 Q378 955 381 959 Q384 963 386 964 Q401 979 421 979 Q441 979 456 964 Q471 949 471 929 Q471 909 456 894 L313 788 Z " />
<glyph glyph-name="sacute" unicode="&#x15b;" horiz-adv-x="559" d="M284 565 L251 598 Q287 648 307.5 676 Q328 704 338.5 718 Q349 732 352 736 Q355 740 357 741 Q372 756 392 756 Q412 756 427 741 Q442 726 442 706 Q442 686 427 671 L284 565 Z M191 369 Q191 355 201.5 347 Q212 339 230 332 Q254 323 288 316 Q322 309 357 298 Q420 278 458 239 Q496 200 496 141 Q496 70 443.5 27.5 Q391 -15 285 -15 Q242 -15 205 -4.5 Q168 6 138.5 23 Q109 40 88 62.5 Q67 85 57 109 L163 159 Q171 144 184.5 132 Q198 120 214.5 111 Q231 102 248.5 97.5 Q266 93 282 93 Q332 93 351.5 108 Q371 123 371 141 Q371 158 359.5 167.5 Q348 177 321 184 Q287 192 242 205 Q197 218 156 235 Q117 252 90 281 Q63 310 63 360 Q63 405 81 436.5 Q99 468 128.5 488 Q158 508 196 517 Q234 526 274 526 Q312 526 349.5 515.5 Q387 505 417 484 Q447 463 465.5 431 Q484 399 484 357 L356 357 Q356 374 348 386 Q340 398 327 405 Q314 412 298.5 415 Q283 418 269 418 Q258 418 244.5 416 Q231 414 219 408.5 Q207 403 199 393.5 Q191 384 191 369 Z " />
<glyph glyph-name="Scircumflex" unicode="&#x15c;" horiz-adv-x="616" d="M324 -16 Q274 -16 229 -3 Q184 10 147.5 36.5 Q111 63 86 102 Q61 141 50 192 L180 234 Q194 181 232 148 Q270 115 325 115 Q381 115 409 136.5 Q437 158 437 195 Q437 244 369 275 Q333 292 287.5 308.5 Q242 325 199 350 Q173 365 149.5 384 Q126 403 108.5 428 Q91 453 80.5 484.5 Q70 516 70 556 Q70 606 91 642.5 Q112 679 146.5 703.5 Q181 728 225 740 Q269 752 315 752 Q355 752 392 742.5 Q429 733 460 713.5 Q491 694 514.5 664.5 Q538 635 551 596 L429 545 Q416 583 385 604 Q354 625 312 625 Q270 625 241 607 Q212 589 212 553 Q212 526 225.5 507.5 Q239 489 270 473 Q304 454 349 438 Q394 422 438 400 Q466 386 491 368.5 Q516 351 535 327.5 Q554 304 565 274 Q576 244 576 205 Q576 152 555 111 Q534 70 499 41.5 Q464 13 418.5 -1.5 Q373 -16 324 -16 Z M307 878 L217 787 L172 832 L308 968 L444 832 L399 787 L307 878 Z " />
<glyph glyph-name="scircumflex" unicode="&#x15d;" horiz-adv-x="559" d="M278 655 L188 564 L143 609 L279 745 L415 609 L370 564 L278 655 Z M191 369 Q191 355 201.5 347 Q212 339 230 332 Q254 323 288 316 Q322 309 357 298 Q420 278 458 239 Q496 200 496 141 Q496 70 443.5 27.5 Q391 -15 285 -15 Q242 -15 205 -4.5 Q168 6 138.5 23 Q109 40 88 62.5 Q67 85 57 109 L163 159 Q171 144 184.5 132 Q198 120 214.5 111 Q231 102 248.5 97.5 Q266 93 282 93 Q332 93 351.5 108 Q371 123 371 141 Q371 158 359.5 167.5 Q348 177 321 184 Q287 192 242 205 Q197 218 156 235 Q117 252 90 281 Q63 310 63 360 Q63 405 81 436.5 Q99 468 128.5 488 Q158 508 196 517 Q234 526 274 526 Q312 526 349.5 515.5 Q387 505 417 484 Q447 463 465.5 431 Q484 399 484 357 L356 357 Q356 374 348 386 Q340 398 327 405 Q314 412 298.5 415 Q283 418 269 418 Q258 418 244.5 416 Q231 414 219 408.5 Q207 403 199 393.5 Q191 384 191 369 Z " />
<glyph glyph-name="Scedilla" unicode="&#x15e;" horiz-adv-x="616" d="M50 192 L180 234 Q194 181 232 148 Q270 115 325 115 Q381 115 409 136.5 Q437 158 437 195 Q437 244 369 275 Q333 292 287.5 308.5 Q242 325 199 350 Q173 365 149.5 384 Q126 403 108.5 428 Q91 453 80.5 484.5 Q70 516 70 556 Q70 606 91 642.5 Q112 679 146.5 703.5 Q181 728 225 740 Q269 752 315 752 Q355 752 392 742.5 Q429 733 460 713.5 Q491 694 514.5 664.5 Q538 635 551 596 L429 545 Q416 583 385 604 Q354 625 312 625 Q270 625 241 607 Q212 589 212 553 Q212 526 225.5 507.5 Q239 489 270 473 Q304 454 349 438 Q394 422 438 400 Q466 386 491 368.5 Q516 351 535 327.5 Q554 304 565 274 Q576 244 576 205 Q576 156 558 117.5 Q540 79 510 51.5 Q480 24 440 7 Q400 -10 356 -14 L356 -30 Q384 -40 402 -64.5 Q420 -89 420 -121 Q420 -161 392 -189 Q364 -217 324 -217 Q304 -217 287 -209.5 Q270 -202 256 -189 L302 -145 Q312 -153 324 -153 Q338 -153 347 -144 Q356 -135 356 -121 Q356 -107 347 -98 Q338 -89 324 -89 Q310 -89 301 -98 L256 -53 Q272 -36 292 -30 L292 -14 Q247 -10 207.5 5 Q168 20 136 45.5 Q104 71 81.5 108 Q59 145 50 192 Z " />
<glyph glyph-name="scedilla" unicode="&#x15f;" horiz-adv-x="559" d="M302 -20 Q302 -26 306.5 -30.5 Q311 -35 317 -35 Q322 -35 326 -31 Q350 -43 365.5 -66.5 Q381 -90 381 -119 Q381 -159 353 -187 Q325 -215 285 -215 Q265 -215 248 -207.5 Q231 -200 217 -187 L263 -143 Q273 -151 285 -151 Q299 -151 308 -142 Q317 -133 317 -119 Q317 -105 308 -96 Q299 -87 285 -87 Q271 -87 262 -96 L217 -51 Q226 -40 243 -31 Q249 -35 253 -35 Q259 -35 263.5 -30.5 Q268 -26 268 -20 Q268 -14 263.5 -9.5 Q259 -5 253 -5 Q246 -5 241 -11 Q172 -2 123 32.5 Q74 67 57 109 L163 159 Q171 144 184.5 132 Q198 120 214.5 111 Q231 102 248.5 97.5 Q266 93 282 93 Q332 93 351.5 108 Q371 123 371 141 Q371 158 359.5 167.5 Q348 177 321 184 Q287 192 242 205 Q197 218 156 235 Q117 252 90 281 Q63 310 63 360 Q63 405 81 436.5 Q99 468 128.5 488 Q158 508 196 517 Q234 526 274 526 Q312 526 349.5 515.5 Q387 505 417 484 Q447 463 465.5 431 Q484 399 484 357 L356 357 Q356 374 348 386 Q340 398 327 405 Q314 412 298.5 415 Q283 418 269 418 Q258 418 244.5 416 Q231 414 219 408.5 Q207 403 199 393.5 Q191 384 191 369 Q191 355 201.5 347 Q212 339 230 332 Q254 323 288 316 Q322 309 357 298 Q420 278 458 239 Q496 200 496 141 Q496 78 455 37.5 Q414 -3 330 -12 Q325 -5 317 -5 Q311 -5 306.5 -9.5 Q302 -14 302 -20 Z " />
<glyph glyph-name="Scaron" unicode="&#x160;" horiz-adv-x="616" d="M324 -16 Q274 -16 229 -3 Q184 10 147.5 36.5 Q111 63 86 102 Q61 141 50 192 L180 234 Q194 181 232 148 Q270 115 325 115 Q381 115 409 136.5 Q437 158 437 195 Q437 244 369 275 Q333 292 287.5 308.5 Q242 325 199 350 Q173 365 149.5 384 Q126 403 108.5 428 Q91 453 80.5 484.5 Q70 516 70 556 Q70 606 91 642.5 Q112 679 146.5 703.5 Q181 728 225 740 Q269 752 315 752 Q355 752 392 742.5 Q429 733 460 713.5 Q491 694 514.5 664.5 Q538 635 551 596 L429 545 Q416 583 385 604 Q354 625 312 625 Q270 625 241 607 Q212 589 212 553 Q212 526 225.5 507.5 Q239 489 270 473 Q304 454 349 438 Q394 422 438 400 Q466 386 491 368.5 Q516 351 535 327.5 Q554 304 565 274 Q576 244 576 205 Q576 152 555 111 Q534 70 499 41.5 Q464 13 418.5 -1.5 Q373 -16 324 -16 Z M309 877 L399 968 L444 923 L308 787 L172 923 L217 968 L309 877 Z " />
<glyph glyph-name="scaron" unicode="&#x161;" horiz-adv-x="559" d="M280 654 L370 745 L415 700 L279 564 L143 700 L188 745 L280 654 Z M191 369 Q191 355 201.5 347 Q212 339 230 332 Q254 323 288 316 Q322 309 357 298 Q420 278 458 239 Q496 200 496 141 Q496 70 443.5 27.5 Q391 -15 285 -15 Q242 -15 205 -4.5 Q168 6 138.5 23 Q109 40 88 62.5 Q67 85 57 109 L163 159 Q171 144 184.5 132 Q198 120 214.5 111 Q231 102 248.5 97.5 Q266 93 282 93 Q332 93 351.5 108 Q371 123 371 141 Q371 158 359.5 167.5 Q348 177 321 184 Q287 192 242 205 Q197 218 156 235 Q117 252 90 281 Q63 310 63 360 Q63 405 81 436.5 Q99 468 128.5 488 Q158 508 196 517 Q234 526 274 526 Q312 526 349.5 515.5 Q387 505 417 484 Q447 463 465.5 431 Q484 399 484 357 L356 357 Q356 374 348 386 Q340 398 327 405 Q314 412 298.5 415 Q283 418 269 418 Q258 418 244.5 416 Q231 414 219 408.5 Q207 403 199 393.5 Q191 384 191 369 Z " />
</font>
</svg>
