<?xml version="1.0" standalone="no"?>
<!DOCTYPE svg PUBLIC "-//W3C//DTD SVG 1.1//EN" "http://www.w3.org/Graphics/SVG/1.1/DTD/svg11.dtd" >
<svg xmlns="http://www.w3.org/2000/svg" xmlns:xlink="http://www.w3.org/1999/xlink" version="1.1">
<metadata>
Created by FontForge 20170731 at Sun Aug  6 18:09:16 2023
 By Aleksey,,,
All rights reserved (c)2020 Nasir Udin.
</metadata>
<defs>
<font id="ProdaSans-BookItalic" horiz-adv-x="1015" >
  <font-face 
    font-family="Proda Sans Book Ita"
    font-weight="320"
    font-style="italic"
    font-stretch="normal"
    units-per-em="2048"
    panose-1="2 11 0 0 4 0 0 0 0 3"
    ascent="1536"
    descent="-512"
    x-height="922"
    cap-height="1434"
    bbox="-373 -524 2308.81 1980"
    underline-thickness="102"
    underline-position="-358"
    slope="-10"
    unicode-range="U+000D-FB06"
  />
<missing-glyph horiz-adv-x="849" 
d="M770 0h-688l254 1434h688zM395 1358l-229 -1282h545l229 1282h-545z" />
    <glyph glyph-name="uniF058" unicode="ffb" horiz-adv-x="2201" 
d="M-193 -508l25 143h35q41 0 77 12t63.5 29.5t52.5 50t42 60t33.5 73.5t26 77t21 84t16.5 81t14 81.5t12 72.5l97 545h-134l19 108l137 13l16 94q42 243 157 361t276 118q102 0 174 -37l-25 -143q-71 41 -147 41q-116 0 -182 -97t-99 -282l-10 -55h405l25 135
q22 123 65.5 216.5t103 150t129 84.5t148.5 28q99 0 179 -33l6 33h161l-133 -741h6q114 143 287 143q167 0 253 -126t46 -351q-20 -113 -68 -205t-111.5 -150.5t-137 -90t-148.5 -31.5q-182 0 -250 157h-6l-34 -141h-138l242 1362q-81 35 -152 35q-228 0 -295 -379l-18 -96
h262l-22 -121h-260l-99 -545q-44 -248 -72 -346q-77 -264 -233 -358q-99 -60 -237 -60h-35l26 143h35q40 0 76 12t63 29.5t52 50t42 59.5t34 73.5t26 77t21 84.5t16.5 81t14 81.5t12.5 72.5l96 545h-404l-96 -545q-45 -253 -79 -362q-84 -269 -255 -356q-91 -46 -211 -46
h-35zM1534 457q-25 -137 24.5 -239.5t149.5 -102.5q111 0 195.5 99.5t111.5 246.5q26 149 -21 246t-163 96q-109 0 -189 -95.5t-108 -250.5z" />
    <glyph glyph-name="uniF059" unicode="fb" horiz-adv-x="1636" 
d="M-158 -508h-35l27 143h35q40 0 76 12t63 29.5t52 50t42 60t33.5 73.5t26 77t21 84t16.5 80.5t14 81.5t12 73l97 545h-136l21 108l137 13l23 135q44 242 164 360.5t282 118.5q100 0 180 -33l6 33h160l-131 -741h6q114 143 287 143q166 0 251.5 -125.5t45.5 -351.5
q-20 -113 -67.5 -205t-111 -150.5t-136.5 -90t-148 -31.5q-182 0 -250 157h-6l-35 -141h-137l242 1362q-81 35 -154 35q-228 0 -295 -379l-16 -96h260l-21 -121h-260l-96 -545q-45 -252 -77 -359q-82 -267 -250 -355q-93 -50 -218 -50zM969 457q-14 -92 -0.5 -168t60.5 -125
t114 -49q111 0 195 99.5t110 246.5q27 149 -19.5 246t-162.5 96q-109 0 -189.5 -96t-107.5 -250z" />
    <glyph glyph-name="uniF05A" unicode="ffh" horiz-adv-x="2172" 
d="M-158 -508h-35l25 143h35q41 0 77 12t63.5 29.5t52.5 50t42 60t33.5 73.5t26 77t21 84t16.5 81t14 81.5t12 72.5l97 545h-134l19 108l137 13l16 94q42 243 157 361t276 118q102 0 174 -37l-25 -143q-71 41 -147 41q-116 0 -182 -97t-99 -282l-10 -55h405l25 135
q22 123 65.5 216.5t103 150t129 84.5t148.5 28q99 0 179 -33l6 33h161l-137 -768h6q49 72 125.5 123t167.5 51q175 0 236.5 -112.5t19.5 -346.5l-86 -483h-160l80 449q17 107 14.5 184t-44 120.5t-123.5 43.5q-87 0 -161.5 -78.5t-119.5 -200.5l-92 -518h-160l242 1362
q-81 35 -154 35q-226 0 -293 -379l-18 -96h262l-22 -121h-260l-99 -545q-43 -251 -74 -356q-80 -266 -245 -356q-95 -52 -223 -52h-35l26 143h35q40 0 76 12t63 29.5t52 50t42 59.5t34 73.5t26 77t21 84.5t16.5 81t14 81.5t12.5 72.5l96 545h-404l-96 -545
q-45 -253 -79 -362q-84 -269 -255 -356q-91 -46 -211 -46z" />
    <glyph glyph-name="uniF05B" unicode="fh" horiz-adv-x="1607" 
d="M-158 -508h-35l27 143h35q40 0 76 12t63 29.5t52 50t42 60t33.5 73.5t26 77t21 84t16.5 80.5t14 81.5t12 73l97 545h-136l21 108l137 13l23 135q44 242 164 360.5t282 118.5q100 0 180 -33l6 33h160l-135 -768h4q51 73 128 123.5t167 50.5q175 0 236.5 -112.5
t19.5 -346.5l-86 -483h-162l80 449q18 107 16 184t-43.5 120.5t-123.5 43.5q-87 0 -161.5 -78.5t-119.5 -200.5l-92 -518h-160l242 1362q-81 35 -154 35q-228 0 -295 -379l-16 -96h260l-21 -121h-260l-96 -545q-45 -252 -77 -359q-82 -267 -250 -355q-93 -50 -218 -50z" />
    <glyph glyph-name="uniF05C" unicode="ffj" horiz-adv-x="1587" 
d="M-158 -508h-35l25 143h35q41 0 77 12t63.5 29.5t52.5 50t42 60t33.5 73.5t26 77t21 84t16.5 81t14 81.5t12 72.5l97 545h-136l21 108l137 13l16 94q42 243 157 361t276 118q102 0 174 -37l-25 -143q-71 41 -147 41q-116 0 -182 -97t-99 -282l-10 -55h405l23 135
q44 243 169 362t300 119q72 0 143.5 -18t108.5 -39l-86 -133q-23 18 -74.5 34.5t-95.5 16.5q-242 0 -312 -381l-16 -96h533l-156 -869q-22 -127 -58.5 -221.5t-94 -166t-141.5 -108t-194 -36.5l25 139q127 0 196.5 95t108.5 308l131 738h-370l-99 -545q-43 -251 -74 -356
q-80 -266 -245 -356q-95 -52 -223 -52h-35l26 143h35q40 0 76 12t63 29.5t52 50t42 59.5t34 73.5t26 77t21 84.5t16.5 81t14 81.5t12.5 72.5l96 545h-404l-96 -545q-45 -253 -79 -362q-84 -269 -255 -356q-91 -46 -211 -46z" />
    <glyph glyph-name="uniF05D" unicode="fj" horiz-adv-x="1019" 
d="M-182 -508v51l39 92q47 0 86 22t66 59t48.5 85t35 99.5t24 103t18.5 95.5q4 25 6 36q18 19 35 50.5t31.5 75.5t25.5 84t23 96.5t18.5 90t16 88.5t12.5 70l19 111h-136l21 108l137 13l23 135q44 243 168.5 362t298.5 119q73 0 144.5 -18t108.5 -39l-86 -133
q-23 18 -74.5 34.5t-95.5 16.5q-125 0 -202 -99.5t-109 -281.5l-16 -96h530l-157 -895q-22 -126 -58.5 -220.5t-94 -166.5t-141.5 -109t-194 -37l25 139q126 0 195.5 96t107.5 308l135 764h-369l-77 -434q-38 -218 -61 -302q-93 -344 -293 -360h-3q-12 -58 -24.5 -92
t-37.5 -64.5t-66 -43.5t-103 -13z" />
    <glyph glyph-name="uniF05E" unicode="ffk" horiz-adv-x="2088" 
d="M-193 -508l25 143h35q41 0 77 12t63.5 29.5t52.5 50t42 60t33.5 73.5t26 77t21 84t16.5 81t14 81.5t12 72.5l97 545h-136l21 108l137 13l16 94q42 243 157 361t276 118q102 0 174 -37l-25 -143q-71 41 -147 41q-116 0 -182 -97t-99 -282l-10 -55h405l23 135
q44 242 164 360.5t282 118.5q101 0 181 -33l6 33h159l-184 -1049h4l447 435h170l-369 -359l219 -563h-178l-166 440l-164 -159l-51 -281h-160l242 1362q-81 35 -154 35q-225 0 -295 -379l-16 -96h262l-22 -121h-260l-99 -545q-43 -251 -74 -356q-80 -266 -245 -356
q-95 -52 -223 -52h-35l26 143h35q40 0 76 12t63 29.5t52 50t42 59.5t34 73.5t26 77t21 84.5t16.5 81t14 81.5t12.5 72.5l96 545h-404l-96 -545q-45 -253 -79 -362q-84 -269 -255 -356q-91 -46 -211 -46h-35z" />
    <glyph glyph-name="uniF05F" unicode="fk" horiz-adv-x="1523" 
d="M-158 -508h-35l27 143h35q40 0 76 12t63 29.5t52 50t42 60t33.5 73.5t26 77t21 84t16.5 80.5t14 81.5t12 73l97 545h-136l21 108l137 13l23 135q44 242 164 360.5t282 118.5q100 0 180 -33l6 33h160l-186 -1049h6l446 435h170l-368 -359l219 -563h-178l-166 440
l-166 -159l-49 -281h-160l242 1362q-81 35 -154 35q-228 0 -295 -379l-16 -96h260l-21 -121h-260l-96 -545q-45 -252 -77 -359q-82 -267 -250 -355q-93 -50 -218 -50z" />
    <glyph glyph-name="uniF060" unicode="ft" horiz-adv-x="1204" 
d="M-158 -508h-35l27 143h35q63 0 110 18t80.5 50.5t58.5 88.5t42 120t33 158l131 731h-136l21 108l135 13l25 135q42 243 156.5 361t275.5 118q90 0 162 -35l-27 -141q-62 37 -133 37q-116 0 -182 -97t-99 -282l-16 -96h395l100 323h113l-57 -323h235l-20 -121h-238
l-86 -492q-9 -63 -8 -102.5t17.5 -62t36 -30.5t46.5 -8q60 0 109 35l-16 -96q-21 -21 -74.5 -38t-93.5 -17q-234 0 -183 297l92 514h-391l-129 -731q-18 -100 -36.5 -172t-46.5 -141.5t-64.5 -115t-88 -81t-120 -52t-156.5 -16.5z" />
    <glyph glyph-name="f_f" unicode="ff" horiz-adv-x="1226" 
d="M-158 -508h-35l25 143h35q41 0 77 12t64 29.5t52.5 49.5t42 60.5t33.5 73.5t26 77t21 84t16 81t13.5 81t12.5 73l97 545h-134l19 108l137 13l16 94q44 243 158.5 361t274.5 118q102 0 174 -37l-25 -143q-71 41 -147 41q-115 0 -181.5 -97t-99.5 -282l-10 -55h405l25 135
q42 243 156.5 361t275.5 118q102 0 174 -37l-24 -143q-71 41 -148 41q-116 0 -182 -97t-99 -282l-18 -96h268l-22 -121h-266l-99 -545q-44 -248 -72 -346q-77 -264 -233 -358q-99 -60 -237 -60h-35l26 143h35q41 0 77 12t63.5 29.5t52.5 50t42 59.5t34 73.5t26.5 77t21 84
t16.5 81t14 82t12 72.5l96 545h-406l-96 -545q-45 -253 -79 -362q-84 -269 -255 -356q-91 -46 -211 -46z" />
    <glyph glyph-name="fi" unicode="fi" horiz-adv-x="1028" 
d="M-158 -508h-35l27 143h35q61 0 110.5 24.5t83 68t59 97t42 118t28.5 124t22 121.5q7 47 11 68l97 545h-134l19 108l137 13l25 135q42 242 167.5 361.5t299.5 119.5q73 0 143.5 -17.5t107.5 -39.5l-83 -133q-25 19 -76 35t-94 16q-125 0 -202.5 -100t-109.5 -281l-18 -96
h532l-164 -922h-161l143 801h-371l-96 -545q-44 -250 -75 -352q-79 -266 -241 -357q-97 -55 -229 -55z" />
    <glyph glyph-name="fl" unicode="fl" horiz-adv-x="1021" 
d="M-158 -508h-35l27 143h35q40 0 76 12t63 30t52 49.5t42 60t33.5 73t26.5 77t21 84t16.5 81.5t14.5 81.5t13 72.5l97 545h-136l21 108l135 13l25 135q42 241 163 360t283 119q95 0 180 -33l6 33h160l-272 -1536h-162l242 1362q-81 35 -152 35q-228 0 -295 -379l-16 -96
h260l-21 -121h-262l-96 -545q-44 -250 -75 -352q-79 -266 -241 -357q-97 -55 -229 -55z" />
    <glyph glyph-name="f_f_i" unicode="ffi" horiz-adv-x="1595" 
d="M-193 -508l27 143h35q40 0 76 12t63 30t52 49.5t42 60t33.5 73t26.5 77t21 84t16.5 81.5t14.5 81.5t13 72.5l97 545h-136l21 108l135 13l18 94q42 243 156.5 361t276.5 118q98 0 174 -37l-25 -143q-75 41 -147 41q-116 0 -182.5 -96.5t-100.5 -282.5l-8 -55h405l25 135
q42 242 167.5 361.5t299.5 119.5q72 0 143.5 -18t108.5 -39l-84 -133q-25 18 -76.5 34.5t-93.5 16.5q-125 0 -202 -99.5t-109 -281.5l-19 -96h533l-164 -922h-162l143 801h-370l-97 -545q-44 -251 -76 -356q-81 -266 -245 -356q-96 -52 -223 -52h-35l26 143h35q40 0 76 12
t63 29.5t52 50t42 59.5t34 73.5t26 77t21 84.5t16.5 81t14 81.5t12.5 72.5l96 545h-406l-96 -545q-45 -253 -79 -362q-84 -269 -255 -356q-91 -46 -211 -46h-35z" />
    <glyph glyph-name="f_f_l" unicode="ffl" horiz-adv-x="1587" 
d="M-158 -508h-35l27 143h35q40 0 76 12t63 30t52 49.5t42 60t33.5 73t26.5 77t21 84t16.5 81.5t14.5 81.5t13 72.5l97 545h-136l21 108l135 13l18 94q42 243 156.5 361t276.5 118q98 0 174 -37l-25 -143q-75 41 -147 41q-116 0 -182.5 -96.5t-100.5 -282.5l-8 -55h403
l25 135q44 242 164 360.5t282 118.5q101 0 181 -33l6 33h159l-272 -1536h-160l242 1362q-85 35 -154 35q-228 0 -295 -379l-16 -96h260l-20 -121h-262l-95 -545q-44 -251 -76 -356q-81 -266 -245 -356q-96 -52 -223 -52h-35l24 143h35q41 0 77 12t63.5 29.5t52.5 50t42 59.5
t34 73.5t26.5 77t21 84t16.5 81t14 82t12 72.5l96 545h-406l-96 -545q-45 -253 -79 -362q-84 -269 -255 -356q-91 -46 -211 -46z" />
    <glyph glyph-name="longs_t" unicode="&#x17f;t" horiz-adv-x="1204" 
d="M-193 -508l27 143h35q40 0 76 12t63 30t52 49.5t42 60t33.5 73t26.5 77t21 84t16.5 81.5t14.5 81.5t13 72.5l133 760q45 250 167.5 363.5t299.5 113.5q77 0 185 -21.5t135 -37.5l-90 -512h235l-20 -121h-238l-86 -492q-9 -63 -8 -102.5t17.5 -62t36 -30.5t46.5 -8
q60 0 109 35l-16 -96q-21 -21 -74.5 -38t-93.5 -17q-234 0 -183 297l92 514h-110l16 94l121 27l111 407q-110 27 -185 27q-243 0 -313 -379l-127 -721q-44 -250 -75 -352q-79 -266 -241 -357q-97 -55 -229 -55h-35z" />
    <glyph glyph-name=".notdef" horiz-adv-x="849" 
d="M770 0h-688l254 1434h688zM395 1358l-229 -1282h545l229 1282h-545z" />
    <glyph glyph-name="uni0000" horiz-adv-x="0" 
 />
    <glyph glyph-name="uni0000" horiz-adv-x="0" 
 />
    <glyph glyph-name="uni000D" unicode="&#xd;" horiz-adv-x="512" 
 />
    <glyph glyph-name="space" unicode=" " horiz-adv-x="557" 
 />
    <glyph glyph-name="exclam" unicode="!" horiz-adv-x="479" 
d="M371 467h-99l138 967h168zM250 -12q-47 0 -76 34.5t-22 81.5q8 48 47 82.5t90 34.5q47 0 75.5 -35t20.5 -82q-8 -48 -46.5 -82t-88.5 -34z" />
    <glyph glyph-name="quotedbl" unicode="&#x22;" horiz-adv-x="778" 
d="M393 1026h-84q42 88 87.5 225.5t72.5 284.5h119q-25 -145 -81.5 -281.5t-113.5 -228.5zM698 1042h-90q123 246 168 494h119q-44 -256 -197 -494z" />
    <glyph glyph-name="numbersign" unicode="#" horiz-adv-x="1300" 
d="M133 385l31 96h276l172 344h-229l31 97h245l205 409h111l-205 -409h279l204 409h111l-205 -409h209l-31 -97h-227l-172 -344h184l-32 -96h-199l-193 -385h-110l192 385h-278l-193 -385h-110l192 385h-258zM549 481h280l172 344h-280z" />
    <glyph glyph-name="dollar" unicode="$" horiz-adv-x="1056" 
d="M473 43q-100 6 -204 43.5t-175 95.5l90 127q158 -127 340 -127q133 0 218 53t102 148q15 93 -44.5 152t-205.5 94q-179 45 -254 130.5t-47 241.5q27 154 136.5 240t272.5 98l35 189h107l-35 -189q178 -16 317 -116l-86 -123q-54 48 -137 78t-162 30q-126 0 -196 -52.5
t-88 -145.5q-14 -88 39.5 -138.5t177.5 -83.5q66 -18 116 -37t93.5 -44t69.5 -54.5t44.5 -68.5t19.5 -86t-7 -107q-16 -88 -57 -153t-101 -104t-126.5 -60t-145.5 -27l-35 -201h-107z" />
    <glyph glyph-name="percent" unicode="%" horiz-adv-x="1314" 
d="M963 -16q-119 0 -173.5 90t-25.5 248q28 157 114 248.5t203 91.5q116 0 168 -92t23 -248q-28 -159 -110.5 -248.5t-198.5 -89.5zM479 672q-118 0 -172.5 89.5t-25.5 246.5q28 157 114 248.5t203 91.5t169 -91t24 -249q-29 -158 -112.5 -247t-199.5 -89zM852 322
q-22 -120 12.5 -190.5t110.5 -68.5q76 0 131.5 68.5t77.5 190.5q22 121 -9 190.5t-108 69.5q-76 0 -134.5 -70.5t-80.5 -189.5zM369 1008q-21 -120 13 -189t110 -69q78 0 133 68t77 190q20 122 -10 192t-106 70q-77 0 -136 -70.5t-81 -191.5zM348 20l764 1287h82l-764 -1287
h-82z" />
    <glyph glyph-name="ampersand" unicode="&#x26;" horiz-adv-x="1443" 
d="M657 -31q-127 3 -229 57.5t-163 142.5t-84.5 201t-2.5 232q38 218 173 339.5t300 121.5q75 0 133.5 -39t65.5 -106h4q101 150 127 307q9 58 9.5 132.5t-9.5 129.5l147 12q10 -44 10.5 -118.5t-8.5 -127.5q-15 -87 -52.5 -174.5t-85 -162t-113 -150.5t-127.5 -136
t-137.5 -122t-133.5 -105.5t-125 -89.5q40 -99 130.5 -156t209.5 -57q104 0 198 35t161 94t112 134.5t60 158.5q19 94 -10 185h-5q-142 -37 -182 -54q-103 -43 -115 -114q-13 -53 31 -111l-115 -51q-30 36 -42.5 79.5t-4.5 82.5q10 58 49.5 102.5t95 72.5t121 50.5t130 42
t119 40.5t92.5 53t45 73q10 53 -17 114l119 58q40 -88 27 -176q-6 -44 -25 -79.5t-49 -60.5t-62 -42.5t-73 -32.5q40 -111 16 -234q-13 -77 -49 -154t-98.5 -150t-143 -128.5t-190.5 -88t-234 -30.5zM330 612q-19 -109 2 -198h4q51 36 109 81.5t131 109t120.5 124.5
t48.5 100q1 49 -31.5 78t-80.5 29q-102 0 -190 -95t-113 -229z" />
    <glyph glyph-name="quotesingle" unicode="'" horiz-adv-x="475" 
d="M397 1042h-84q114 227 162 494h119q-44 -256 -197 -494z" />
    <glyph glyph-name="parenleft" unicode="(" horiz-adv-x="657" 
d="M346 -287q-58 121 -86.5 272t-27.5 304.5t28 304.5q40 230 144 465t255 416h111q-139 -181 -237.5 -416t-139.5 -465q-41 -217 -25.5 -459t89.5 -422h-111z" />
    <glyph glyph-name="parenright" unicode=")" horiz-adv-x="655" 
d="M98 -287q139 181 237.5 416.5t137.5 464.5q42 217 27.5 459t-88.5 422h108q87 -181 108.5 -422.5t-20.5 -458.5q-41 -230 -145.5 -465t-253.5 -416h-111z" />
    <glyph glyph-name="asterisk" unicode="*" horiz-adv-x="952" 
d="M348 1145q-25 0 -34 18.5t3 44.5l33 70q14 33 47 33q14 0 25 -8l229 -152l8 4l7 318q-3 26 12.5 44.5t40.5 18.5h65q23 0 32 -18.5t-1 -44.5l-108 -318l6 -4l284 152q13 8 29 8q30 0 33 -33l8 -70q3 -26 -12.5 -44.5t-40.5 -18.5l-295 -45l-4 -8l170 -226q15 -15 11 -38
t-26 -40l-61 -43q-17 -10 -29 -10q-29 0 -35 35l-75 289h-8l-179 -289q-15 -35 -47 -35q-11 0 -24 10l-45 43q-17 17 -13.5 40t25.5 38l250 226l-2 8z" />
    <glyph glyph-name="plus" unicode="+" horiz-adv-x="985" 
d="M182 469l15 125h331l66 387h133l-68 -387h326l-14 -125h-332l-66 -383h-133l66 383h-324z" />
    <glyph glyph-name="comma" unicode="," horiz-adv-x="555" 
d="M147 -219h-104q56 79 106.5 195.5t75.5 240.5l189 31q-35 -123 -117 -261.5t-150 -205.5z" />
    <glyph glyph-name="hyphen" unicode="-" horiz-adv-x="792" 
d="M195 473l12 100h573l-12 -100h-573z" />
    <glyph glyph-name="period" unicode="." horiz-adv-x="466" 
d="M233 -12q-47 0 -76 34.5t-20 81.5q8 48 47 82.5t90 34.5q47 0 76 -35t21 -82q-9 -48 -48.5 -82t-89.5 -34z" />
    <glyph glyph-name="slash" unicode="/" horiz-adv-x="679" 
d="M-14 -51l897 1587h108l-897 -1587h-108z" />
    <glyph glyph-name="zero" unicode="0" horiz-adv-x="1177" 
d="M594 -14q-234 0 -331.5 182.5t-41.5 497.5q36 202 120.5 355t212.5 240t282 87q121 0 205 -50.5t124 -141t48.5 -215.5t-21.5 -275q-57 -323 -206.5 -501.5t-391.5 -178.5zM401 666q-26 -160 -15.5 -277t70 -182.5t165.5 -65.5q81 1 146 37.5t111.5 107t79 164
t54.5 216.5q27 160 22 277t-62 183t-165 66q-158 0 -259.5 -139.5t-146.5 -386.5z" />
    <glyph glyph-name="one" unicode="1" horiz-adv-x="804" 
d="M317 950l-49 119l414 262h111l-236 -1331h-170l199 1118h-6z" />
    <glyph glyph-name="two" unicode="2" horiz-adv-x="1136" 
d="M150 0l26 143l539 465q228 197 258 365q20 113 -31 172t-164 59q-57 0 -108.5 -18.5t-96 -54t-76.5 -70t-71 -84.5l-107 74q37 54 82.5 102.5t108 95.5t143 75t166.5 28q186 0 274 -95t58 -272q-13 -73 -46.5 -140.5t-86.5 -129t-91 -98t-98 -89.5l-423 -372v-6h636
l-26 -150h-866z" />
    <glyph glyph-name="three" unicode="3" horiz-adv-x="1140" 
d="M547 -10q-132 0 -238 37.5t-170 99.5l92 127q136 -119 334 -119q147 0 233 58.5t109 187.5q21 117 -54.5 185.5t-215.5 68.5h-125l23 121h122q135 0 221 62t103 167q37 209 -203 209q-90 0 -186.5 -38t-169.5 -93l-45 121q210 162 438 162q177 0 269.5 -81t62.5 -255
q-20 -118 -83 -185.5t-163 -111.5l-2 -6q99 -42 150 -126t28 -214q-16 -87 -57 -155t-93.5 -109t-120 -67t-130 -36t-129.5 -10z" />
    <glyph glyph-name="four" unicode="4" horiz-adv-x="1095" 
d="M111 279l22 129l811 923h139l-163 -917h159l-24 -135h-160l-49 -279h-170l49 279h-614zM326 414h424l110 622h-6z" />
    <glyph glyph-name="five" unicode="5" horiz-adv-x="1122" 
d="M543 -10q-139 0 -250.5 49.5t-186.5 118.5l95 127q38 -33 67 -54.5t73 -46.5t95.5 -37t110.5 -12q155 0 263.5 87t135.5 241q27 152 -37 227.5t-202 75.5q-84 0 -162 -28.5t-133 -67.5l-80 67l137 594h719l-25 -143h-590l-84 -363l7 -4q72 35 138 54.5t150 19.5
q45 0 85 -6t80 -20t71.5 -37t58 -57t39.5 -79.5t17 -104.5t-11 -132q-18 -99 -62 -180t-102.5 -134t-130.5 -88.5t-143 -51t-143 -15.5z" />
    <glyph glyph-name="six" unicode="6" horiz-adv-x="1153" 
d="M596 -14q-230 0 -336 158.5t-59 424.5q34 193 104.5 344t164 245t203 142t228.5 48q80 0 154 -22t111 -43.5t89 -57.5l-108 -119q-45 31 -72.5 47t-81.5 32.5t-112 16.5q-179 0 -309 -144.5t-171 -365.5h7q60 91 157 152t215 61q131 0 220.5 -64t122.5 -165t12 -221
q-18 -97 -63 -181.5t-112.5 -149t-161.5 -101.5t-202 -37zM377 449q-14 -79 0.5 -143t50.5 -103.5t85 -60.5t105 -21q118 0 219.5 87.5t127.5 240.5q28 155 -37.5 242t-192.5 87q-74 0 -149.5 -41t-133.5 -118t-75 -170z" />
    <glyph glyph-name="seven" unicode="7" horiz-adv-x="1017" 
d="M242 0q186 367 333.5 605.5t385.5 570.5l2 6h-658l27 149h835l-24 -135q-242 -328 -389.5 -571t-335.5 -625h-176z" />
    <glyph glyph-name="eight" unicode="8" horiz-adv-x="1153" 
d="M573 -18q-220 0 -333 99t-84 269q25 137 113.5 228.5t211.5 134.5q-77 43 -115 115t-20 173q27 148 157.5 248.5t311.5 100.5q182 0 277.5 -100.5t68.5 -248.5q-34 -196 -233 -288q111 -42 164 -133.5t28 -229.5q-31 -170 -179.5 -269t-367.5 -99zM336 358
q-21 -119 45.5 -189.5t212.5 -70.5q148 0 237.5 70.5t110.5 189.5q25 135 -40.5 214t-209.5 79q-142 0 -237.5 -79.5t-118.5 -213.5zM510 1004q-19 -105 43 -165.5t162 -60.5q99 0 181.5 60.5t100.5 165.5q19 103 -33.5 169t-166.5 66t-191 -66t-96 -169z" />
    <glyph glyph-name="nine" unicode="9" horiz-adv-x="1153" 
d="M487 -16q-115 0 -197.5 33.5t-154.5 86.5l96 121q64 -45 126.5 -71.5t146.5 -26.5q120 0 222 69t168.5 184t92.5 259h-6q-60 -91 -157 -152t-216 -61q-131 0 -220 64t-121.5 166t-10.5 223q23 129 92.5 233.5t186 169t260.5 64.5q229 0 336 -152t61 -418
q-34 -194 -105 -346.5t-165 -249t-204.5 -146.5t-230.5 -50zM424 885q-27 -157 37.5 -243.5t191.5 -86.5q116 0 225.5 95t133.5 235q14 82 0 143.5t-50.5 102t-86 61t-105.5 20.5q-118 0 -218 -87.5t-128 -239.5z" />
    <glyph glyph-name="colon" unicode=":" horiz-adv-x="466" 
d="M233 -12q-47 0 -76 34.5t-20 81.5q8 48 47 82.5t90 34.5q47 0 76 -35t21 -82q-9 -48 -48.5 -82t-89.5 -34zM371 659q-49 0 -77.5 34.5t-19.5 82.5q8 48 47 82.5t91 34.5q47 0 75 -35t19 -82q-8 -48 -46.5 -82.5t-88.5 -34.5z" />
    <glyph glyph-name="semicolon" unicode=";" horiz-adv-x="555" 
d="M41 -219q57 77 107 193.5t77 242.5l187 31q-33 -122 -115.5 -260.5t-151.5 -206.5h-104zM428 692q-47 0 -76 35t-20 82q8 50 46.5 83.5t90.5 33.5q47 0 75 -34t21 -83q-9 -48 -48 -82.5t-89 -34.5z" />
    <glyph glyph-name="less" unicode="&#x3c;" horiz-adv-x="1140" 
d="M1206 1065l-18 -141l-803 -355l-2 -10l664 -358l-17 -146l-831 461l14 102z" />
    <glyph glyph-name="equal" unicode="=" horiz-adv-x="1034" 
d="M233 657l15 125h807l-15 -125h-807zM166 254l12 125h807l-14 -125h-805z" />
    <glyph glyph-name="greater" unicode="&#x3e;" horiz-adv-x="1138" 
d="M283 924l26 141l834 -447l-21 -102l-991 -461l27 150l800 358l3 10z" />
    <glyph glyph-name="question" unicode="?" horiz-adv-x="925" 
d="M297 1333q103 58 195.5 89.5t212.5 31.5q180 0 270.5 -92t64.5 -254q-12 -65 -38 -118.5t-66 -96t-74.5 -71.5t-85.5 -66.5t-76 -59.5q-76 -67 -116 -131t-52 -141h-159q10 92 55.5 176t153.5 184q23 22 75 62t88 69.5t72 80t47 106.5q21 101 -36.5 157t-155.5 56
q-136 0 -322 -107zM401 -12q-49 0 -80 34t-26 82q6 49 43 83t90 34q47 0 78 -35t26 -82q-6 -48 -43.5 -82t-87.5 -34z" />
    <glyph glyph-name="at" unicode="@" horiz-adv-x="1632" 
d="M707 -244q-113 0 -209 35t-163.5 99t-112 152.5t-54 195t9.5 227.5q37 206 157 377.5t297 271.5t372 100q142 0 260.5 -51.5t196 -141t109 -218.5t5.5 -277q-34 -186 -144 -294.5t-237 -108.5q-78 0 -128 61.5t-30 188.5q-46 -97 -135.5 -169.5t-173.5 -72.5
q-112 0 -170.5 80t-34.5 213q13 70 54 142t102 132.5t147 99t179 38.5q41 0 83 -8t75.5 -30t27.5 -53l-57 -321q-38 -207 81 -207q88 0 155.5 71.5t96.5 237.5q22 126 -4.5 236.5t-92 187.5t-165 121.5t-217.5 44.5q-122 0 -241 -53.5t-212.5 -142.5t-160 -208.5
t-88.5 -246.5q-25 -129 -3.5 -240t76 -193t150 -128.5t217.5 -46.5q103 0 238 55l32 -92q-156 -64 -288 -64zM641 430q-13 -81 18 -139t101 -58q76 0 154.5 77.5t123.5 174.5l41 240q-32 16 -112 16q-120 1 -212.5 -97.5t-113.5 -213.5z" />
    <glyph glyph-name="A" unicode="A" horiz-adv-x="1259" 
d="M231 0h-165l765 1440h113l252 -1440h-188l-45 322h-557zM838 1116l-369 -657h465l-92 657h-4z" />
    <glyph glyph-name="B" unicode="B" horiz-adv-x="1173" 
d="M569 -10q-155 0 -405 10l254 1430q55 1 185.5 7.5t207.5 6.5q75 0 138.5 -12t119 -39.5t89 -71.5t48.5 -107.5t-2 -148.5q-36 -203 -213 -297l-2 -6q208 -103 166 -332q-20 -115 -80 -202.5t-144 -138t-175.5 -75t-186.5 -24.5zM365 145q88 -6 243 -6q145 0 244.5 83.5
t122.5 219.5q21 111 -35.5 179.5t-177.5 68.5h-301zM567 1286l-82 -463h297q55 0 98 19t71 52t44.5 71t24.5 82q18 107 -38 177t-185 70q-118 0 -230 -8z" />
    <glyph glyph-name="C" unicode="C" horiz-adv-x="1271" 
d="M760 -18q-189 0 -317.5 93t-179 263.5t-11.5 392.5q59 327 271.5 520t494.5 193q231 0 389 -96l-78 -144q-133 80 -321 80q-201 0 -360 -154t-206 -399q-32 -173 3.5 -309.5t127 -210.5t220.5 -74q200 0 356 90l41 -133q-206 -112 -430 -112z" />
    <glyph glyph-name="D" unicode="D" horiz-adv-x="1333" 
d="M567 -16q-251 0 -405 16l252 1427q215 17 409 17q295 0 434 -186.5t86 -499.5q-28 -164 -95.5 -305t-166 -245.5t-231.5 -164t-283 -59.5zM358 145q95 -10 230 -10q136 0 256.5 85.5t200 226.5t110.5 311q42 239 -48 386.5t-296 147.5q-128 0 -233 -10z" />
    <glyph glyph-name="E" unicode="E" horiz-adv-x="1085" 
d="M162 0l254 1434h792l-16 -156h-614l-99 -469h557l-16 -145h-557l-105 -508h617l-19 -156h-794z" />
    <glyph glyph-name="F" unicode="F" horiz-adv-x="1085" 
d="M164 0l254 1434h792l-28 -156h-617l-86 -492h557l-24 -143h-559l-115 -643h-174z" />
    <glyph glyph-name="G" unicode="G" horiz-adv-x="1312" 
d="M774 -20q-297 0 -439.5 203t-80.5 554q39 219 153 380t277.5 244t357.5 83q225 0 406 -96l-78 -144q-69 39 -158 62.5t-178 23.5q-224 0 -381.5 -146.5t-208.5 -406.5q-54 -282 40.5 -443t306.5 -161q140 0 290 72l78 377h-293l17 137h448l-102 -613
q-108 -59 -228.5 -92.5t-226.5 -33.5z" />
    <glyph glyph-name="H" unicode="H" horiz-adv-x="1282" 
d="M162 0l252 1434h180l-115 -619h600l115 619h178l-252 -1434h-178l121 659h-600l-121 -659h-180z" />
    <glyph glyph-name="I" unicode="I" horiz-adv-x="501" 
d="M162 0l254 1434h178l-252 -1434h-180z" />
    <glyph glyph-name="J" unicode="J" horiz-adv-x="808" 
d="M84 27l43 141q23 -13 78.5 -25t99.5 -12q117 0 183.5 72.5t103.5 261.5l176 969h170l-176 -969q-38 -243 -148 -362t-325 -119q-51 0 -115.5 14t-89.5 29z" />
    <glyph glyph-name="K" unicode="K" horiz-adv-x="1198" 
d="M162 0l254 1434h178l-123 -643h6l631 643h199l-652 -662l502 -772h-233l-404 629l-76 -76l-102 -553h-180z" />
    <glyph glyph-name="L" unicode="L" horiz-adv-x="1054" 
d="M162 0l254 1434h178l-236 -1278h635l-16 -156h-815z" />
    <glyph glyph-name="M" unicode="M" horiz-adv-x="1671" 
d="M164 0l254 1434h184l277 -1196h6l698 1196h180l-256 -1434h-176l189 1053h-7l-620 -1053h-139l-238 1038h-6l-184 -1038h-162z" />
    <glyph glyph-name="N" unicode="N" horiz-adv-x="1304" 
d="M162 0l254 1434h168l420 -1110h4l217 1110h172l-252 -1434h-172l-418 1087h-6l-215 -1087h-172z" />
    <glyph glyph-name="O" unicode="O" horiz-adv-x="1429" 
d="M711 -20q-181 0 -299 93.5t-159 259.5t-3 384t137 384t250.5 259.5t333.5 93.5q181 0 299 -93.5t159 -259.5t3 -384t-137 -384t-250.5 -259.5t-333.5 -93.5zM438 717q-48 -260 27 -418t264 -158q190 0 326.5 158.5t187.5 417.5q26 127 18.5 232.5t-42.5 181.5
t-103.5 118.5t-163.5 42.5q-190 0 -326.5 -158t-187.5 -417z" />
    <glyph glyph-name="P" unicode="P" horiz-adv-x="1099" 
d="M338 0h-174l252 1423q269 21 377 21q110 0 195.5 -26.5t144.5 -78.5t82 -137t4 -196q-17 -96 -58 -176t-98 -135.5t-128 -95t-147 -58.5t-155 -21q-85 -4 -199 19zM567 1284l-106 -598q85 -16 184 -16q160 0 261 89t128 247q22 133 -46.5 210.5t-225.5 77.5
q-58 0 -195 -10z" />
    <glyph glyph-name="Q" unicode="Q" horiz-adv-x="1435" 
d="M715 -20q-181 0 -299 93.5t-158.5 259.5t-1.5 384t138.5 384t250.5 259.5t332 93.5t299 -93.5t158.5 -259.5t1.5 -384q-44 -248 -168 -429t-303 -257l270 -209l-135 -117l-326 277q-20 -2 -59 -2zM440 717q-27 -172 -5.5 -300t101.5 -202t207 -74q191 0 326 158.5
t180 417.5q47 259 -31.5 417t-269.5 158t-326 -158t-182 -417z" />
    <glyph glyph-name="R" unicode="R" horiz-adv-x="1169" 
d="M342 0h-180l252 1423q37 3 97.5 8t87.5 7t73.5 4t97.5 2q113 0 199.5 -22.5t149 -70t86.5 -129t5 -192.5q-26 -141 -111.5 -237t-203.5 -142l-2 -6q47 -14 82.5 -56t56.5 -92.5t37 -124.5t22.5 -130t15 -132.5t13.5 -109.5h-194q-2 16 -4.5 57t-4.5 80.5t-9 92
t-16.5 97.5t-28 90.5t-43 77.5t-62 52t-84.5 20h-228zM465 717h156q347 0 405 305q26 130 -45.5 201t-230.5 71q-84 0 -172 -10z" />
    <glyph glyph-name="S" unicode="S" horiz-adv-x="1140" 
d="M545 -14q-115 0 -242 38t-211 101l96 143q174 -127 371 -127q141 0 245.5 72t125.5 174q20 95 -47 156t-236 104q-192 47 -275.5 140t-54.5 266q30 179 174 285t340 106q235 0 416 -121l-96 -143q-67 48 -153.5 80t-176.5 32q-132 0 -217 -70t-106 -165q-21 -98 38 -152
t203 -92q109 -29 180.5 -61.5t122.5 -81t67 -116t-1 -159.5q-18 -103 -73 -183.5t-133.5 -128.5t-169 -72.5t-187.5 -24.5z" />
    <glyph glyph-name="T" unicode="T" horiz-adv-x="1218" 
d="M334 1278l16 156h1020l-18 -156h-422l-236 -1278h-178l234 1278h-416z" />
    <glyph glyph-name="U" unicode="U" horiz-adv-x="1214" 
d="M604 -16q-257 0 -341 162t-27 489l141 799h178l-143 -820q-51 -251 4.5 -367t208.5 -116q157 0 255.5 113t149.5 370l144 820h172l-142 -799q-57 -326 -199.5 -488.5t-400.5 -162.5z" />
    <glyph glyph-name="V" unicode="V" horiz-adv-x="1234" 
d="M524 0l-235 1434h186l193 -1198h6l614 1198h168l-747 -1434h-185z" />
    <glyph glyph-name="W" unicode="W" horiz-adv-x="2052" 
d="M516 0l-240 1434h191l184 -1194h4l574 1194h137l102 -1186h7l622 1186h172l-741 -1434h-197l-86 1075h-6l-520 -1075h-203z" />
    <glyph glyph-name="X" unicode="X" horiz-adv-x="1136" 
d="M45 0l557 729l-283 705h189l221 -551h6l422 553l164 -2l-528 -697l297 -737h-187l-237 586h-7l-448 -586h-166z" />
    <glyph glyph-name="Y" unicode="Y" horiz-adv-x="1224" 
d="M332 1434h190l232 -586h6l471 588l170 -2l-576 -732l-123 -702h-184l123 692z" />
    <glyph glyph-name="Z" unicode="Z" horiz-adv-x="1236" 
d="M424 1434h911l-18 -166l-955 -1100l-2 -6h723l-18 -162h-946l18 166l961 1102l2 6h-694z" />
    <glyph glyph-name="bracketleft" unicode="[" horiz-adv-x="501" 
d="M383 1475h324l-15 -76h-211l-286 -1612h211l-13 -74h-323z" />
    <glyph glyph-name="backslash" unicode="\" horiz-adv-x="749" 
d="M776 -51h-108l-709 1587h111z" />
    <glyph glyph-name="bracketright" unicode="]" horiz-adv-x="501" 
d="M307 1399l12 76h324l-313 -1762h-324l14 74h211l287 1612h-211z" />
    <glyph glyph-name="asciicircum" unicode="^" horiz-adv-x="884" 
d="M328 838h-88l442 700h72l190 -700h-88l-154 596h-6z" />
    <glyph glyph-name="underscore" unicode="_" horiz-adv-x="974" 
d="M94 -127l15 80h741l-14 -80h-742z" />
    <glyph glyph-name="grave" unicode="`" horiz-adv-x="749" 
d="M541 1411l190 -317h-104l-271 317h185z" />
    <glyph glyph-name="a" unicode="a" horiz-adv-x="1050" 
d="M463 -16q-73 0 -132 24.5t-103.5 76.5t-58 133.5t4.5 195.5q27 154 115 275t210 185t255 64q32 0 65.5 -1.5t56.5 -3.5t56.5 -6.5t47.5 -6.5t49.5 -8t43.5 -7l-125 -680q-25 -170 -16 -225h-162q-2 50 18 160h-6q-126 -176 -319 -176zM346 426q-28 -145 18.5 -228
t161.5 -83q105 0 192.5 104.5t108.5 220.5l70 353q-108 16 -152 16q-145 0 -256 -113t-143 -270z" />
    <glyph glyph-name="b" unicode="b" horiz-adv-x="1042" 
d="M508 -18q-171 0 -361 88l261 1466h159l-131 -741h6q114 143 287 143q166 0 251.5 -125.5t45.5 -351.5q-20 -112 -74 -205t-126 -151.5t-154.5 -90.5t-163.5 -32zM322 158q102 -47 188 -47q125 0 223 102t123 248q27 149 -20 246t-164 96q-109 0 -188.5 -95.5
t-106.5 -250.5z" />
    <glyph glyph-name="c" unicode="c" horiz-adv-x="886" 
d="M512 -14q-83 0 -151.5 30t-116.5 89.5t-65.5 148.5t1.5 207q37 207 171 342t327 135q172 0 268 -74l-63 -112q-64 57 -191 57q-130 0 -221.5 -99t-120.5 -247q-30 -151 28 -247.5t181 -96.5q66 0 129.5 18t104.5 45l36 -112q-141 -84 -317 -84z" />
    <glyph glyph-name="d" unicode="d" horiz-adv-x="1044" 
d="M463 -16q-73 0 -132 24.5t-103.5 76.5t-58 133.5t4.5 195.5q27 154 115 275t210 185t255 64q81 0 159 -10l111 608h160l-273 -1536h-143l23 160h-7q-131 -176 -321 -176zM346 426q-28 -145 18.5 -228t161.5 -83q105 0 192.5 104.5t108.5 220.5l70 353q-108 16 -152 16
q-145 0 -256 -113t-143 -270z" />
    <glyph glyph-name="e" unicode="e" horiz-adv-x="917" 
d="M532 -16q-176 0 -275.5 128t-61.5 349q20 115 69 207t116.5 150t146.5 89t163 31q60 0 107.5 -18.5t76 -50t43 -73t12.5 -88.5t-20 -94q-15 -45 -53.5 -84t-104.5 -74.5t-170.5 -60t-238.5 -33.5q0 -117 59.5 -182t165.5 -65q69 0 141.5 18.5t114.5 44.5l29 -110
q-141 -84 -320 -84zM352 465q189 17 298 62t134 112q24 68 -3 121.5t-93 54.5q-68 0 -127 -31t-100.5 -82t-69 -111.5t-39.5 -125.5z" />
    <glyph glyph-name="f" unicode="f" horiz-adv-x="663" 
d="M-158 -508h-35l29 143h35q40 0 75.5 12t63 30t52 49t41.5 60t33.5 73.5t26 77.5t20.5 83.5t16.5 81.5t14.5 81t13 73l95 545h-134l21 108l135 13l25 135q42 243 156.5 361t275.5 118q102 0 174 -37l-27 -143q-71 41 -147 41q-116 0 -181 -96.5t-98 -282.5l-16 -96h266
l-22 -121h-267l-96 -545q-45 -247 -72 -342q-77 -263 -230 -358q-101 -64 -243 -64z" />
    <glyph glyph-name="g" unicode="g" horiz-adv-x="1019" 
d="M-6 -424l74 129q40 -33 120.5 -55.5t159.5 -22.5q306 0 387 424l23 109h-6q-131 -176 -316 -176q-74 0 -133 24.5t-103 76.5t-57.5 133.5t4.5 195.5q27 154 115 275t210 185t255 64q117 0 320 -33l-152 -854q-20 -121 -60 -218.5t-104.5 -176t-163.5 -121.5t-225 -43
q-99 0 -199 25t-149 59zM319 426q-28 -144 18.5 -227.5t160.5 -83.5q72 0 139.5 52.5t109.5 126t56 146.5l69 353q-108 16 -153 16q-145 0 -256.5 -113t-143.5 -270z" />
    <glyph glyph-name="h" unicode="h" 
d="M297 0h-164l270 1536h164l-139 -768h6q51 72 128.5 123t168.5 51q175 0 236.5 -112.5t21.5 -346.5l-86 -483h-164l80 449q19 107 18.5 184t-40 120.5t-121.5 43.5q-87 0 -161.5 -78t-121.5 -201z" />
    <glyph glyph-name="i" unicode="i" horiz-adv-x="473" 
d="M322 0h-164l161 922h164zM457 1212q-47 0 -76 34t-23 81q6 49 43.5 83t83.5 34t75.5 -34t23.5 -83q-6 -47 -44 -81t-83 -34z" />
    <glyph glyph-name="j" unicode="j" horiz-adv-x="405" 
d="M-211 -508h-35l27 143h35q138 0 208 86t107 295l160 906h162l-164 -916q-22 -127 -57.5 -218t-93.5 -159.5t-144.5 -102.5t-204.5 -34zM422 1210q-47 0 -73 34.5t-17 82.5q7 49 46 83t85 34q45 0 72 -34t18 -83q-7 -47 -46.5 -82t-84.5 -35z" />
    <glyph glyph-name="k" unicode="k" horiz-adv-x="931" 
d="M133 0l270 1536h164l-192 -1049h4l452 435h175l-369 -359l221 -563h-182l-158 440l-168 -159l-53 -281h-164z" />
    <glyph glyph-name="l" unicode="l" horiz-adv-x="428" 
d="M133 0l270 1536h164l-270 -1536h-164z" />
    <glyph glyph-name="m" unicode="m" horiz-adv-x="1564" 
d="M295 0h-160l162 922h143l-16 -158h6q49 76 122 127t165 51q123 0 183 -56.5t69 -174.5h6q19 41 47.5 79.5t68 73.5t92.5 56.5t111 21.5q174 0 229 -111t13 -348l-86 -483h-160l80 449q17 107 18 184t-37 120.5t-120 43.5q-86 0 -153.5 -77t-112.5 -202l-93 -518h-159
l78 449q18 107 19 184t-37 120.5t-120 43.5q-86 0 -153.5 -76t-112.5 -199z" />
    <glyph glyph-name="n" unicode="n" 
d="M297 0h-164l162 922h147l-22 -160h4q52 75 132.5 127.5t174.5 52.5q175 0 236.5 -112.5t21.5 -346.5l-86 -483h-164l80 449q19 107 18.5 184t-40 120.5t-121.5 43.5q-87 0 -161.5 -78t-121.5 -201z" />
    <glyph glyph-name="o" unicode="o" horiz-adv-x="1013" 
d="M504 -16q-85 0 -153.5 30.5t-115 90.5t-63 149.5t3.5 206.5q40 225 180 351t316 126q84 0 152 -30.5t115 -90.5t63.5 -149.5t-3.5 -206.5q-19 -114 -68 -206t-116 -150.5t-146.5 -89.5t-164.5 -31zM344 461q-29 -153 16 -246.5t160 -93.5q117 0 199 93.5t112 246.5
q29 155 -15.5 248.5t-160.5 93.5q-115 1 -198 -93.5t-113 -248.5z" />
    <glyph glyph-name="p" unicode="p" horiz-adv-x="1044" 
d="M43 -512l256 1434h141l-16 -158h6q128 174 318 174q73 0 132 -25t102 -78.5t56.5 -136t-4.5 -196.5q-27 -152 -114 -268t-204.5 -174t-246.5 -58q-64 0 -170 18l-94 -532h-162zM381 483l-62 -348q2 0 32 -5.5t58 -9t58 -3.5q149 0 257.5 110t137.5 269
q25 144 -23.5 227.5t-162.5 83.5q-72 0 -137.5 -53t-105 -125.5t-52.5 -145.5z" />
    <glyph glyph-name="q" unicode="q" horiz-adv-x="1048" 
d="M471 -16q-77 0 -138 23.5t-106 75.5t-59 133.5t4 197.5q28 154 119 275t218.5 185t268.5 64q65 0 114 -6t108 -20t73 -17l-250 -1407h-155l125 709h-7q-66 -103 -138 -158t-177 -55zM354 426q-27 -145 20.5 -228t162.5 -83q69 0 137 67.5t113 161.5t61 186l45 248
q-78 27 -148 27q-144 0 -254 -112t-137 -267z" />
    <glyph glyph-name="r" unicode="r" horiz-adv-x="710" 
d="M133 0l162 922h145l-16 -158h6q53 80 147.5 131.5t206.5 38.5l-18 -152q-27 6 -57 6q-112 0 -191 -72.5t-119 -185.5l-102 -530h-164z" />
    <glyph glyph-name="s" unicode="s" horiz-adv-x="841" 
d="M412 -14q-100 0 -180.5 24t-127.5 60l62 110q94 -67 252 -67q78 0 132 34.5t66 90.5q12 60 -25 97t-140 73q-112 34 -167.5 100.5t-37.5 167.5q21 127 121.5 195.5t242.5 68.5q169 0 271 -74l-60 -110q-32 24 -90 40.5t-125 16.5q-75 0 -130.5 -34.5t-67.5 -86.5
q-12 -60 17 -90t99 -55q152 -48 212 -118t40 -183q-13 -82 -67 -142t-130.5 -89t-166.5 -29z" />
    <glyph glyph-name="t" unicode="t" horiz-adv-x="669" 
d="M430 -10q-235 0 -186 297l100 514h-111l11 94l121 27l88 262h112l-43 -262h236l-13 -121h-237l-98 -492q-9 -63 -8 -102.5t17 -62t35.5 -30.5t47.5 -8q59 0 108 35l-12 -96q-21 -21 -74.5 -38t-93.5 -17z" />
    <glyph glyph-name="u" unicode="u" 
d="M449 -20q-176 0 -236 120.5t-16 376.5l79 445h164l-80 -445q-20 -108 -19.5 -186t41 -122t122.5 -44q87 0 161 77.5t121 200.5l97 519h164l-162 -922h-148l23 160h-6q-52 -75 -132 -127.5t-173 -52.5z" />
    <glyph glyph-name="v" unicode="v" horiz-adv-x="878" 
d="M193 922h180l98 -762h6l381 762h156l-477 -922h-203z" />
    <glyph glyph-name="w" unicode="w" horiz-adv-x="1359" 
d="M319 0l-129 922h183l73 -756h5l317 737h166l31 -737h6l368 756h158l-446 -922h-209l-21 686h-6l-301 -686h-195z" />
    <glyph glyph-name="x" unicode="x" horiz-adv-x="841" 
d="M205 0h-160l369 461l-197 461h182l140 -328h6l256 328h162l-367 -461l192 -461h-180l-137 326h-6z" />
    <glyph glyph-name="y" unicode="y" horiz-adv-x="899" 
d="M-18 -512h-48l19 147h45q126 0 242.5 103t189.5 266l-240 918h181l164 -715h6l346 715h149l-432 -902q-129 -268 -279.5 -400t-342.5 -132z" />
    <glyph glyph-name="z" unicode="z" horiz-adv-x="794" 
d="M270 922h613l-17 -138l-577 -657l-2 -6h448l-14 -121h-647l18 133l588 662l2 6h-426z" />
    <glyph glyph-name="braceleft" unicode="{" horiz-adv-x="755" 
d="M379 334q17 102 -27.5 163.5t-132.5 61.5l21 107q87 0 152.5 62t84.5 165l62 340q21 115 112 178.5t248 63.5l-14 -76q-200 0 -236 -187l-57 -331q-19 -98 -82.5 -172.5t-169.5 -96.5q98 -22 135 -96.5t21 -171.5l-66 -371q-31 -184 170 -184l-14 -76q-157 0 -225.5 63
t-49.5 179z" />
    <glyph glyph-name="bar" unicode="|" horiz-adv-x="387" 
d="M125 -143l299 1679h86l-299 -1679h-86z" />
    <glyph glyph-name="braceright" unicode="}" horiz-adv-x="751" 
d="M68 -287l14 70q206 0 242 186l65 375q16 97 80.5 171.5t171.5 96.5q-99 22 -136.5 96.5t-21.5 172.5l62 338q15 90 -29 138t-147 48l12 70q154 0 222 -66.5t48 -175.5l-61 -340q-19 -103 26 -165t134 -62l-21 -107q-87 0 -152.5 -61.5t-84.5 -163.5l-68 -379
q-20 -109 -111 -175.5t-245 -66.5z" />
    <glyph glyph-name="asciitilde" unicode="~" horiz-adv-x="1216" 
d="M213 590l14 123q40 33 111 66.5t145 33.5q53 0 107 -20t99.5 -48.5t90.5 -57.5t97 -49t102 -20q118 0 262 132l-14 -125q-120 -111 -258 -111q-61 0 -119.5 20.5t-104 49t-88.5 57.5t-91 49.5t-93 20.5q-70 0 -147 -41.5t-113 -79.5z" />
    <glyph glyph-name="exclamdown" unicode="&#xa1;" horiz-adv-x="479" 
d="M66 -512l206 967h97l-136 -967h-167zM352 700q-47 0 -75.5 35t-20.5 82q9 48 48 82.5t89 34.5q47 0 76 -35t20 -82q-8 -48 -47 -82.5t-90 -34.5z" />
    <glyph glyph-name="cent" unicode="&#xa2;" horiz-adv-x="946" 
d="M483 176q-97 13 -166 68.5t-99 159t-5 241.5q33 189 149.5 320t286.5 151l35 193h113l-35 -189q135 -9 213 -71l-68 -113q-64 57 -192 57q-132 0 -221 -99t-115 -247q-27 -151 32.5 -247.5t184.5 -96.5q65 0 128.5 18.5t104.5 45.5l31 -113q-123 -72 -266 -82l-31 -172
h-112z" />
    <glyph glyph-name="sterling" unicode="&#xa3;" horiz-adv-x="905" 
d="M846 0h-789l23 133q117 110 177 214t60 239h-157l16 92h135q-1 20 -4 71t-4 78.5t0.5 68.5t7.5 73q36 199 168 314.5t301 115.5q78 0 146 -21.5t104 -46.5l-76 -125q-84 54 -186 54q-98 0 -186.5 -78.5t-114.5 -218.5q-5 -29 -6.5 -69t-1.5 -66.5t2 -78.5t2 -71h350
l-16 -92h-332q-9 -137 -57 -234.5t-152 -208.5l-2 -6h616z" />
    <glyph glyph-name="currency" unicode="&#xa4;" horiz-adv-x="1146" 
d="M186 303l158 125q-50 112 -22 266q27 155 120 271l-114 129l75 67l95 -141q123 113 278 113t240 -109l139 137l53 -67l-159 -125q56 -115 28 -275q-26 -149 -121 -268l111 -123l-76 -67l-90 135q-121 -111 -280 -111q-156 0 -242 113l-139 -137zM444 694
q-24 -134 30 -229.5t167 -95.5q112 0 200.5 96t112.5 229q24 134 -30 231t-166 97q-113 0 -201.5 -97t-112.5 -231z" />
    <glyph glyph-name="yen" unicode="&#xa5;" horiz-adv-x="1226" 
d="M565 262h-321l20 113h322l30 168h-323l20 112h293l-289 678h187l241 -585h7l465 585l165 -2l-540 -676h303l-21 -112h-329l-29 -168h330l-21 -113h-330l-47 -262h-178z" />
    <glyph glyph-name="brokenbar" unicode="&#xa6;" horiz-adv-x="387" 
d="M299 840l125 696h86l-125 -696h-86zM125 -143l123 696h86l-123 -696h-86z" />
    <glyph glyph-name="section" unicode="&#xa7;" horiz-adv-x="1306" 
d="M59 -287l93 127q177 -112 383 -112q147 0 246 53.5t116 142.5q13 84 -61.5 137.5t-249.5 94.5q-95 23 -165.5 55.5t-121 79.5t-69.5 111.5t-5 144.5q20 107 100.5 195t194.5 135v4q-106 88 -78 245q18 101 90.5 175t180 111.5t237.5 37.5q223 0 416 -117l-92 -127
q-69 43 -160.5 73t-181.5 30q-137 0 -218.5 -52.5t-95.5 -134.5q-16 -88 50.5 -137t216.5 -84q116 -28 193.5 -60.5t132 -79.5t73 -112.5t2.5 -152.5q-40 -215 -291 -328l-2 -4q52 -45 72 -100.5t6 -133.5q-16 -87 -70 -155.5t-132.5 -109t-168.5 -61t-186 -20.5
q-117 0 -244 35t-211 94zM395 557q-18 -101 55.5 -162t233.5 -98q111 -25 176 -53q100 33 171.5 97t84.5 138q18 106 -62.5 172.5t-269.5 108.5q-71 16 -122 35q-107 -24 -180 -92t-87 -146z" />
    <glyph glyph-name="dieresis" unicode="&#xa8;" horiz-adv-x="835" 
d="M453 1112q-46 0 -75.5 33t-23.5 76q6 47 41.5 79.5t85.5 32.5q45 0 74 -33.5t23 -78.5q-5 -44 -41 -76.5t-84 -32.5zM795 1112q-45 0 -75.5 33t-25.5 76q6 47 41.5 79.5t85.5 32.5q44 0 73.5 -33t25.5 -79q-6 -44 -41.5 -76.5t-83.5 -32.5z" />
    <glyph glyph-name="copyright" unicode="&#xa9;" horiz-adv-x="1478" 
d="M737 -16q-106 0 -199 34.5t-160.5 97t-114 148t-58.5 187t6 215.5q24 140 96 265.5t173.5 217t232 145.5t266.5 54q175 0 308 -91t192 -248.5t26 -342.5q-34 -187 -145.5 -343t-276.5 -247.5t-346 -91.5zM311 666q-28 -158 21.5 -293t161.5 -214t260 -79t288 79
t237.5 214t125.5 293q21 119 -3 227.5t-83.5 187t-152 124.5t-203.5 46q-149 0 -289 -78t-237.5 -213t-125.5 -294zM795 274q-67 0 -125.5 24.5t-102.5 71t-62 123.5t-1 173t59.5 172.5t100.5 123t123 71t133 24.5q110 0 186.5 -52.5t103.5 -154.5l-108 -59
q-18 73 -67.5 116.5t-129.5 44.5q-108 0 -181.5 -82t-94.5 -204q-21 -119 31 -203t159 -84q79 0 145 44t111 118l76 -54q-65 -103 -156 -158t-200 -55z" />
    <glyph glyph-name="ordfeminine" unicode="&#xaa;" horiz-adv-x="622" 
d="M446 911q-94 0 -145.5 65.5t-28.5 192.5q24 139 125 227.5t224 88.5q29 0 59 -2.5t46 -4.5t47.5 -7.5t37.5 -6.5l-72 -407q-18 -92 -12 -135h-96q-2 27 8 96h-2q-78 -107 -191 -107zM377 1178q-15 -87 13.5 -138t96.5 -51q65 0 116 63t63 134l36 211q-80 10 -90 10
q-88 0 -153.5 -68t-81.5 -161z" />
    <glyph glyph-name="guillemotleft" unicode="&#xab;" horiz-adv-x="919" 
d="M700 31l-256 407l9 39l417 404h93l-424 -420l-4 -17l251 -413h-86zM186 438l9 39l419 404h93l-426 -420l-5 -17l252 -413h-86z" />
    <glyph glyph-name="logicalnot" unicode="&#xac;" horiz-adv-x="851" 
d="M242 733h630l-71 -397h-103l54 299h-529z" />
    <glyph glyph-name="registered" unicode="&#xae;" horiz-adv-x="923" 
d="M590 717q-152 0 -240.5 107t-60.5 259q26 152 153 259.5t279 107.5q151 0 239 -107.5t62 -259.5q-28 -152 -154 -259t-278 -107zM352 1083q-23 -129 49 -219t199 -90t231 90t127 219t-49 219.5t-198 90.5q-127 0 -231.5 -90.5t-127.5 -219.5zM500 903l67 377q65 6 113 6
q68 0 101.5 -26t23.5 -84q-14 -76 -86 -99v-2q16 -5 27 -18t17 -36.5t8.5 -38.5t5 -45t3.5 -34l-67 -2q0 2 -1.5 35t-5 53.5t-18.5 41t-41 20.5h-57l-27 -148h-63zM623 1235l-25 -135h39q89 0 102 74q4 30 -13.5 46.5t-53.5 16.5q-35 0 -49 -2z" />
    <glyph glyph-name="macron" unicode="&#xaf;" horiz-adv-x="974" 
d="M406 1104l8 80h555l-11 -80h-552z" />
    <glyph glyph-name="degree" unicode="&#xb0;" horiz-adv-x="653" 
d="M489 920q-109 0 -170.5 67.5t-39.5 196.5q16 86 64 147.5t110 89t131 27.5q107 0 170.5 -68.5t40.5 -195.5q-16 -87 -64.5 -148.5t-110.5 -88.5t-131 -27zM385 1184q-14 -77 17.5 -127.5t101.5 -50.5t121 51t65 127q12 76 -20.5 127t-102.5 51t-120 -51t-62 -127z" />
    <glyph glyph-name="plusminus" unicode="&#xb1;" horiz-adv-x="997" 
d="M569 780h-323l14 125h332l65 387h134l-68 -387h326l-15 -125h-332l-65 -385h-133zM145 98l15 107h743l-14 -107h-744z" />
    <glyph glyph-name="twosuperior" unicode="&#xb2;" horiz-adv-x="532" 
d="M238 922l14 73l237 213q63 57 86 91q21 33 27 65q8 40 -12.5 64t-63.5 24q-31 0 -60.5 -16.5t-46 -33.5t-42.5 -48l-60 41q102 137 230 137q77 0 118 -44t29 -118q-7 -43 -34 -85t-48.5 -64t-60.5 -56l-172 -155v-4h264l-14 -84h-391z" />
    <glyph glyph-name="threesuperior" unicode="&#xb3;" horiz-adv-x="532" 
d="M420 915q-122 0 -184 62l53 67q61 -51 141 -51q56 0 93 25t46 76q9 50 -20 76t-90 26h-58l13 68h57q56 0 90.5 27t40.5 71q16 82 -82 82q-73 0 -151 -58l-27 64q98 74 199 74q78 0 120.5 -37t28.5 -115q-8 -52 -34.5 -81.5t-69.5 -49.5v-4q94 -42 73 -150
q-9 -49 -34.5 -84.5t-60.5 -53.5t-70.5 -26t-73.5 -8z" />
    <glyph glyph-name="acute" unicode="&#xb4;" horiz-adv-x="749" 
d="M719 1411h186l-313 -317h-107z" />
    <glyph glyph-name="paragraph" unicode="&#xb6;" horiz-adv-x="1083" 
d="M629 506q-120 0 -210.5 62t-130.5 168.5t-18 232.5q35 192 188.5 328.5t334.5 136.5h446l-301 -1696h-115l281 1585h-152l-280 -1585h-115l135 768h-63z" />
    <glyph glyph-name="periodcentered" unicode="&#xb7;" horiz-adv-x="495" 
d="M354 567q-49 0 -78.5 34.5t-23.5 82.5q6 49 44.5 83t88.5 34q46 0 76 -34t24 -83q-6 -47 -45.5 -82t-85.5 -35z" />
    <glyph glyph-name="cedilla" unicode="&#xb8;" horiz-adv-x="563" 
d="M123 -338q-39 0 -96 21l22 73q46 -20 86 -20q45 0 80.5 14.5t42.5 44.5q8 33 -15.5 49.5t-58.5 16.5l-16 26l70 148h67l-53 -113q45 0 79.5 -32.5t26.5 -90.5q-9 -69 -73 -103t-162 -34z" />
    <glyph glyph-name="onesuperior" unicode="&#xb9;" horiz-adv-x="382" 
d="M317 1329l-26 64l186 116h66l-105 -587h-90l84 475h-4z" />
    <glyph glyph-name="ordmasculine" unicode="&#xba;" horiz-adv-x="653" 
d="M485 915q-112 0 -171.5 75.5t-34.5 209.5q24 134 111 210.5t198 76.5t173 -76.5t38 -210.5q-25 -134 -113.5 -209.5t-200.5 -75.5zM383 1200q-14 -86 16 -141t103 -55q74 0 125 55.5t65 140.5q16 85 -15.5 142t-105.5 57q-73 0 -122.5 -56.5t-65.5 -142.5z" />
    <glyph glyph-name="guillemotright" unicode="&#xbb;" horiz-adv-x="917" 
d="M125 31l432 430l4 16l-258 404h82l260 -404l-6 -39l-420 -407h-94zM475 31h-94l434 430l2 16l-256 404h82l260 -404l-8 -39z" />
    <glyph glyph-name="onequarter" unicode="&#xbc;" horiz-adv-x="1062" 
d="M879 106h-277l12 66l355 416h71l-63 -410h63l-12 -72h-63l-19 -110h-84zM86 0l1047 1331h73l-1040 -1331h-80zM313 1165l-30 64l186 117h66l-103 -588h-92l88 475h-4zM698 182v-4h193l43 283h-4z" />
    <glyph glyph-name="onehalf" unicode="&#xbd;" horiz-adv-x="1220" 
d="M758 0l12 74l238 213q30 25 46.5 40.5t38.5 49t27 65.5q8 40 -12 64t-61 24q-32 0 -62 -16.5t-47.5 -34t-42.5 -47.5l-59 41q102 137 231 137q78 0 118 -43.5t27 -117.5q-6 -33 -19.5 -62.5t-38.5 -58t-39 -42.5t-44 -42l-172 -156l-2 -4h266l-16 -84h-389zM86 0
l1047 1331h73l-1040 -1331h-80zM283 1229l186 117h66l-103 -588h-92l88 475h-4l-111 -68z" />
    <glyph glyph-name="threequarters" unicode="&#xbe;" horiz-adv-x="1212" 
d="M754 106l12 66l354 416h70l-64 -410h66l-12 -72h-66l-16 -110h-84l16 110h-276zM199 793l49 67q61 -51 141 -51q55 0 93 25t48 75t-19 76.5t-89 26.5h-57l8 67h59q55 0 90 27.5t43 71.5q16 82 -80 82q-73 0 -151 -58l-31 64q97 73 199 73q80 0 122 -36t29 -115
q-10 -52 -36.5 -81.5t-69.5 -49.5v-4q94 -42 76 -150q-9 -49 -34.5 -84.5t-61 -53.5t-71.5 -26t-75 -8q-120 0 -182 62zM315 0h-77l1046 1331h72zM848 182v-4h194l41 283h-4z" />
    <glyph glyph-name="questiondown" unicode="&#xbf;" horiz-adv-x="819" 
d="M350 -524q-180 0 -271 93t-65 255q12 65 38 118.5t66 96t74.5 71.5t85.5 66.5t76 59.5q75 64 114.5 129t53.5 143h160q-10 -92 -56 -176.5t-153 -184.5q-23 -22 -75.5 -62t-89 -70t-72 -80.5t-46.5 -106.5q-21 -100 36.5 -155.5t154.5 -55.5q143 0 324 107l53 -125
q-68 -38 -116.5 -60.5t-128.5 -42.5t-163 -20zM627 711q-48 0 -79.5 34.5t-25.5 81.5q6 49 43 83t88 34q49 0 80.5 -34.5t26.5 -82.5q-6 -49 -43 -82.5t-90 -33.5z" />
    <glyph glyph-name="Agrave" unicode="&#xc0;" horiz-adv-x="1259" 
d="M231 0h-165l765 1440h113l252 -1440h-188l-45 322h-557zM469 459h465l-92 657h-4zM844 1536l-176 279h172l114 -279h-110z" />
    <glyph glyph-name="Aacute" unicode="&#xc1;" horiz-adv-x="1259" 
d="M231 0h-165l765 1440h113l252 -1440h-188l-45 322h-557zM469 459h465l-92 657h-4zM975 1536h-121l203 279h180z" />
    <glyph glyph-name="Acircumflex" unicode="&#xc2;" horiz-adv-x="1259" 
d="M231 0h-165l765 1440h113l252 -1440h-188l-45 322h-557zM838 1116l-369 -657h465l-92 657h-4zM610 1536l262 264h138l178 -264h-129l-127 160h-8l-185 -160h-129z" />
    <glyph glyph-name="Atilde" unicode="&#xc3;" horiz-adv-x="1259" 
d="M231 0h-165l765 1440h113l252 -1440h-188l-45 322h-557zM469 459h465l-92 657h-4zM729 1548h-96q23 85 76 140t139 55q36 0 63.5 -11.5t44.5 -28.5t32 -33.5t34.5 -28t44.5 -11.5q43 0 72 30t41 71h98q-19 -84 -75.5 -141.5t-141.5 -57.5q-45 0 -79 17t-50.5 37t-41.5 37
t-54 17q-45 0 -68.5 -25t-38.5 -67z" />
    <glyph glyph-name="Adieresis" unicode="&#xc4;" horiz-adv-x="1259" 
d="M231 0h-165l765 1440h113l252 -1440h-188l-45 322h-557zM838 1116l-369 -657h465l-92 657h-4zM1098 1567q-44 0 -73 33t-24 79q6 47 42.5 81t80.5 34q45 0 74 -34t23 -81q-4 -45 -41 -78.5t-82 -33.5zM702 1567q-46 0 -74 33t-22 79q4 47 40.5 81t82.5 34q43 0 71.5 -34
t22.5 -81q-4 -45 -41 -78.5t-80 -33.5z" />
    <glyph glyph-name="Aring" unicode="&#xc5;" horiz-adv-x="1259" 
d="M231 0h-165l765 1440h113l252 -1440h-188l-45 322h-557zM889 1466q-86 0 -141 59.5t-39 160.5q16 102 88.5 160.5t156.5 58.5q85 0 141 -59t40 -160q-14 -101 -87.5 -160.5t-158.5 -59.5zM838 1116l-369 -657h465l-92 657h-4zM805 1686q-9 -56 17 -94t75 -38
q51 0 91.5 38t51.5 94q9 58 -17 94.5t-79 36.5q-50 1 -90 -37t-49 -94z" />
    <glyph glyph-name="AE" unicode="&#xc6;" horiz-adv-x="1857" 
d="M240 0h-174l1028 1434h888l-18 -156h-614l-99 -469h557l-16 -145h-557l-105 -508h617l-18 -156h-795l63 322h-520zM1165 1278l-604 -819h453l155 819h-4z" />
    <glyph glyph-name="Ccedilla" unicode="&#xc7;" horiz-adv-x="1271" 
d="M672 -12q-161 21 -268.5 119t-147.5 259t-4 365q59 327 271.5 520t494.5 193q231 0 389 -96l-78 -144q-133 80 -321 80q-201 0 -360 -154t-206 -399q-32 -173 3.5 -309.5t127 -210.5t220.5 -74q200 0 356 90l41 -133q-112 -61 -218.5 -86.5t-236.5 -25.5l-28 -60
q45 0 80.5 -32.5t27.5 -90.5q-10 -69 -74.5 -103t-162.5 -34q-42 0 -95 21l23 73q40 -20 84 -20q46 0 82 14.5t43 44.5q8 33 -16.5 49.5t-59.5 16.5l-16 26z" />
    <glyph glyph-name="Egrave" unicode="&#xc8;" horiz-adv-x="1085" 
d="M162 0l254 1434h792l-16 -156h-614l-99 -469h557l-16 -145h-557l-105 -508h617l-19 -156h-794zM616 1815h172l115 -279h-110z" />
    <glyph glyph-name="Eacute" unicode="&#xc9;" horiz-adv-x="1085" 
d="M162 0l254 1434h792l-16 -156h-614l-99 -469h557l-16 -145h-557l-105 -508h617l-19 -156h-794zM954 1815h181l-263 -279h-120z" />
    <glyph glyph-name="Ecircumflex" unicode="&#xca;" horiz-adv-x="1085" 
d="M956 0h-794l254 1434h792l-16 -156h-614l-99 -469h557l-16 -145h-557l-105 -508h617zM670 1536h-127l260 264h137l178 -264h-127l-129 160h-8z" />
    <glyph glyph-name="Edieresis" unicode="&#xcb;" horiz-adv-x="1085" 
d="M162 0l254 1434h792l-16 -156h-614l-99 -469h557l-16 -145h-557l-105 -508h617l-19 -156h-794zM1040 1567q-45 0 -74 33t-24 79q6 47 42.5 81t82.5 34q43 0 71.5 -34t22.5 -81q-4 -45 -41 -78.5t-80 -33.5zM643 1567q-46 0 -74 33t-22 79q4 47 41 81t82 34q44 0 72 -34
t22 -81q-4 -46 -40.5 -79t-80.5 -33z" />
    <glyph glyph-name="Igrave" unicode="&#xcc;" horiz-adv-x="501" 
d="M162 0l254 1434h178l-252 -1434h-180zM299 1815h170l117 -279h-113z" />
    <glyph glyph-name="Iacute" unicode="&#xcd;" horiz-adv-x="501" 
d="M162 0l254 1434h178l-252 -1434h-180zM657 1815h181l-263 -279h-120z" />
    <glyph glyph-name="Icircumflex" unicode="&#xce;" horiz-adv-x="501" 
d="M162 0l254 1434h178l-252 -1434h-180zM352 1536h-127l260 264h138l178 -264h-127l-129 160h-8z" />
    <glyph glyph-name="Idieresis" unicode="&#xcf;" horiz-adv-x="501" 
d="M162 0l254 1434h178l-252 -1434h-180zM729 1567q-46 0 -74 33t-22 79q4 47 40.5 81t82.5 34q43 0 71.5 -34t22.5 -81q-4 -45 -41 -78.5t-80 -33.5zM332 1567q-44 0 -72.5 33t-23.5 79q6 47 42 81t80 34t72.5 -34t24.5 -81q-6 -46 -42.5 -79t-80.5 -33z" />
    <glyph glyph-name="Eth" unicode="&#xd0;" horiz-adv-x="1333" 
d="M283 688h-136l13 98h141l113 641q215 17 409 17q295 0 434 -186.5t86 -499.5q-28 -164 -95.5 -305t-166 -245.5t-231.5 -164t-283 -59.5q-251 0 -405 16zM721 688h-258l-105 -543q95 -10 230 -10q136 0 256.5 85.5t200 226.5t110.5 311q42 239 -48 386.5t-296 147.5
q-128 0 -233 -10l-97 -496h252z" />
    <glyph glyph-name="Ntilde" unicode="&#xd1;" horiz-adv-x="1304" 
d="M162 0l254 1434h168l420 -1110h4l217 1110h172l-252 -1434h-172l-418 1087h-6l-215 -1087h-172zM778 1548h-96q23 84 76 139.5t137 55.5q37 0 65 -11.5t45 -28.5t32 -33.5t34 -28t43 -11.5q45 0 74 29.5t41 71.5h96q-19 -84 -75 -141.5t-142 -57.5q-36 0 -64.5 11t-46 27
t-33 32t-35.5 27t-44 11q-78 0 -107 -92z" />
    <glyph glyph-name="Ograve" unicode="&#xd2;" horiz-adv-x="1429" 
d="M711 -20q-181 0 -299 93.5t-159 259.5t-3 384t137 384t250.5 259.5t333.5 93.5q181 0 299 -93.5t159 -259.5t3 -384t-137 -384t-250.5 -259.5t-333.5 -93.5zM438 717q-48 -260 27 -418t264 -158q190 0 326.5 158.5t187.5 417.5q26 127 18.5 232.5t-42.5 181.5
t-103.5 118.5t-163.5 42.5q-190 0 -326.5 -158t-187.5 -417zM758 1815h172l117 -279h-113z" />
    <glyph glyph-name="Oacute" unicode="&#xd3;" horiz-adv-x="1429" 
d="M711 -20q-181 0 -299 93.5t-159 259.5t-3 384t137 384t250.5 259.5t333.5 93.5q181 0 299 -93.5t159 -259.5t3 -384t-137 -384t-250.5 -259.5t-333.5 -93.5zM438 717q-48 -260 27 -418t264 -158q190 0 326.5 158.5t187.5 417.5q26 127 18.5 232.5t-42.5 181.5
t-103.5 118.5t-163.5 42.5q-190 0 -326.5 -158t-187.5 -417zM1047 1536h-121l200 279h181z" />
    <glyph glyph-name="Ocircumflex" unicode="&#xd4;" horiz-adv-x="1429" 
d="M711 -20q-181 0 -299 93.5t-159 259.5t-3 384t137 384t250.5 259.5t333.5 93.5q181 0 299 -93.5t159 -259.5t3 -384t-137 -384t-250.5 -259.5t-333.5 -93.5zM438 717q-48 -260 27 -418t264 -158q190 0 326.5 158.5t187.5 417.5q26 127 18.5 232.5t-42.5 181.5
t-103.5 118.5t-163.5 42.5q-190 0 -326.5 -158t-187.5 -417zM829 1536h-129l261 264h137l180 -264h-129l-129 160h-8z" />
    <glyph glyph-name="Otilde" unicode="&#xd5;" horiz-adv-x="1429" 
d="M711 -20q-181 0 -299 93.5t-159 259.5t-3 384t137 384t250.5 259.5t333.5 93.5q181 0 299 -93.5t159 -259.5t3 -384t-137 -384t-250.5 -259.5t-333.5 -93.5zM438 717q-48 -260 27 -418t264 -158q190 0 326.5 158.5t187.5 417.5q26 127 18.5 232.5t-42.5 181.5
t-103.5 118.5t-163.5 42.5q-190 0 -326.5 -158t-187.5 -417zM737 1548q23 85 76 140t139 55q36 0 64 -11.5t45 -28.5t32 -33.5t34.5 -28t43.5 -11.5q43 0 72 30t41 71h98q-19 -84 -75.5 -141.5t-141.5 -57.5q-37 0 -65.5 11t-46 27t-33.5 32t-35.5 27t-42.5 11
q-46 0 -69.5 -25t-38.5 -67h-97z" />
    <glyph glyph-name="Odieresis" unicode="&#xd6;" horiz-adv-x="1429" 
d="M711 -20q-181 0 -299 93.5t-159 259.5t-3 384t137 384t250.5 259.5t333.5 93.5q181 0 299 -93.5t159 -259.5t3 -384t-137 -384t-250.5 -259.5t-333.5 -93.5zM438 717q-48 -260 27 -418t264 -158q190 0 326.5 158.5t187.5 417.5q26 127 18.5 232.5t-42.5 181.5
t-103.5 118.5t-163.5 42.5q-190 0 -326.5 -158t-187.5 -417zM1182 1567q-46 0 -74.5 33t-22.5 79q4 47 40.5 81t82.5 34q44 0 72.5 -34t22.5 -81q-4 -45 -41 -78.5t-80 -33.5zM784 1567q-44 0 -72.5 33t-23.5 79q6 47 42.5 81t80.5 34t72.5 -34t23.5 -81q-6 -46 -42.5 -79
t-80.5 -33z" />
    <glyph glyph-name="multiply" unicode="&#xd7;" horiz-adv-x="1067" 
d="M684 713l320 274l75 -100l-319 -277l201 -272l-115 -100l-203 274l-319 -276l-74 102l319 274l-202 275l114 100z" />
    <glyph glyph-name="Oslash" unicode="&#xd8;" horiz-adv-x="1429" 
d="M389 90q-103 96 -139 258t0 369q38 218 137 384t250.5 259.5t333.5 93.5q197 0 323 -113l105 144h82l-142 -195q77 -99 101 -245t-8 -328q-38 -218 -137 -384t-250.5 -259.5t-333.5 -93.5q-157 0 -269 71l-71 -102h-84zM500 242l684 948q-79 102 -232 102
q-190 0 -326.5 -158t-187.5 -417q-30 -153 -14 -276.5t76 -198.5zM1221 1126l-674 -931q76 -54 182 -54q190 0 326.5 158.5t187.5 417.5q48 257 -22 409z" />
    <glyph glyph-name="Ugrave" unicode="&#xd9;" horiz-adv-x="1214" 
d="M604 -16q-257 0 -341 162t-27 489l141 799h178l-143 -820q-51 -251 4.5 -367t208.5 -116q157 0 255.5 113t149.5 370l144 820h172l-142 -799q-57 -326 -199.5 -488.5t-400.5 -162.5zM836 1536l-177 279h172l115 -279h-110z" />
    <glyph glyph-name="Uacute" unicode="&#xda;" horiz-adv-x="1214" 
d="M604 -16q-257 0 -341 162t-27 489l141 799h178l-143 -820q-51 -251 4.5 -367t208.5 -116q157 0 255.5 113t149.5 370l144 820h172l-142 -799q-57 -326 -199.5 -488.5t-400.5 -162.5zM934 1536h-123l203 279h180z" />
    <glyph glyph-name="Ucircumflex" unicode="&#xdb;" horiz-adv-x="1214" 
d="M604 -16q-257 0 -341 162t-27 489l141 799h178l-143 -820q-51 -251 4.5 -367t208.5 -116q157 0 255.5 113t149.5 370l144 820h172l-142 -799q-57 -326 -199.5 -488.5t-400.5 -162.5zM723 1536h-127l260 264h137l178 -264h-127l-129 160h-8z" />
    <glyph glyph-name="Udieresis" unicode="&#xdc;" horiz-adv-x="1214" 
d="M604 -16q-257 0 -341 162t-27 489l141 799h178l-143 -820q-51 -251 4.5 -367t208.5 -116q157 0 255.5 113t149.5 370l144 820h172l-142 -799q-57 -326 -199.5 -488.5t-400.5 -162.5zM1071 1567q-45 0 -74 33t-24 79q6 47 42.5 81t82.5 34q43 0 71.5 -34t22.5 -81
q-4 -45 -41 -78.5t-80 -33.5zM674 1567q-46 0 -74 33t-22 79q4 47 40.5 81t81.5 34q44 0 72.5 -34t22.5 -81q-4 -46 -40.5 -79t-80.5 -33z" />
    <glyph glyph-name="Yacute" unicode="&#xdd;" horiz-adv-x="1224" 
d="M332 1434h190l232 -586h6l471 588l170 -2l-576 -732l-123 -702h-184l123 692zM1030 1815h180l-260 -279h-123z" />
    <glyph glyph-name="Thorn" unicode="&#xde;" horiz-adv-x="1099" 
d="M338 0h-174l254 1434h176l-51 -287q99 8 198 8q220 0 329.5 -105t74.5 -305q-16 -91 -53.5 -164.5t-89 -124t-118 -85t-138.5 -51.5t-152 -19q-85 -2 -199 21zM516 995l-94 -526q79 -18 184 -18q156 0 243.5 77.5t111.5 216.5q20 115 -39 188t-211 73q-94 0 -195 -11z
" />
    <glyph glyph-name="germandbls" unicode="&#xdf;" horiz-adv-x="1234" 
d="M-158 -508h-35l27 143h35q136 0 206 84t107 287l176 989q44 253 187 396t350 143q100 0 173 -38.5t108 -100.5t46 -136t-7 -149t-58 -135q-14 -7 -52.5 -20.5t-66 -26t-60 -33.5t-54 -52t-29.5 -71q-6 -34 9.5 -63.5t44 -51.5t64 -48t69.5 -53t60.5 -65.5t37.5 -86
t0 -115.5q-24 -132 -141 -217.5t-263 -85.5q-98 0 -184.5 26t-132.5 60l82 116q39 -33 107.5 -54t142.5 -21q87 0 153.5 54t77.5 122q8 46 -5.5 84t-41.5 64.5t-63.5 51t-70.5 50.5t-62.5 55.5t-40.5 73.5t-3 98q5 27 15 51.5t21.5 44t30.5 38.5t33 32t37.5 27t36.5 22
t38 18.5t33.5 14t30.5 12t23 8.5q28 54 35 116t-8.5 117t-65 91.5t-125.5 36.5q-74 0 -135 -33.5t-104 -93.5t-72 -135.5t-45 -165.5l-172 -961q-22 -127 -57.5 -218t-93.5 -159.5t-144.5 -102.5t-204.5 -34z" />
    <glyph glyph-name="agrave" unicode="&#xe0;" horiz-adv-x="1050" 
d="M463 -16q-73 0 -132 24.5t-103.5 76.5t-58 133.5t4.5 195.5q27 154 115 275t210 185t255 64q32 0 65.5 -1.5t56.5 -3.5t56.5 -6.5t47.5 -6.5t49.5 -8t43.5 -7l-125 -680q-25 -170 -16 -225h-162q-2 50 18 160h-6q-126 -176 -319 -176zM346 426q-28 -145 18.5 -228
t161.5 -83q105 0 192.5 104.5t108.5 220.5l70 353q-108 16 -152 16q-145 0 -256 -113t-143 -270zM797 1094l-271 317h183l190 -317h-102z" />
    <glyph glyph-name="aacute" unicode="&#xe1;" horiz-adv-x="1050" 
d="M463 -16q-73 0 -132 24.5t-103.5 76.5t-58 133.5t4.5 195.5q27 154 115 275t210 185t255 64q32 0 65.5 -1.5t56.5 -3.5t56.5 -6.5t47.5 -6.5t49.5 -8t43.5 -7l-125 -680q-25 -170 -16 -225h-162q-2 50 18 160h-6q-126 -176 -319 -176zM346 426q-28 -145 18.5 -228
t161.5 -83q105 0 192.5 104.5t108.5 220.5l70 353q-108 16 -152 16q-145 0 -256 -113t-143 -270zM694 1094l236 317h186l-315 -317h-107z" />
    <glyph glyph-name="acircumflex" unicode="&#xe2;" horiz-adv-x="1050" 
d="M463 -16q-73 0 -132 24.5t-103.5 76.5t-58 133.5t4.5 195.5q27 154 115 275t210 185t255 64q32 0 65.5 -1.5t56.5 -3.5t56.5 -6.5t47.5 -6.5t49.5 -8t43.5 -7l-125 -680q-25 -170 -16 -225h-162q-2 50 18 160h-6q-126 -176 -319 -176zM346 426q-28 -145 18.5 -228
t161.5 -83q105 0 192.5 104.5t108.5 220.5l70 353q-108 16 -152 16q-145 0 -256 -113t-143 -270zM477 1087l285 318h141l156 -318h-109l-133 213h-4l-227 -213h-109z" />
    <glyph glyph-name="atilde" unicode="&#xe3;" horiz-adv-x="1050" 
d="M463 -16q-73 0 -132 24.5t-103.5 76.5t-58 133.5t4.5 195.5q27 154 115 275t210 185t255 64q32 0 65.5 -1.5t56.5 -3.5t56.5 -6.5t47.5 -6.5t49.5 -8t43.5 -7l-125 -680q-25 -170 -16 -225h-162q-2 50 18 160h-6q-126 -176 -319 -176zM346 426q-28 -145 18.5 -228
t161.5 -83q105 0 192.5 104.5t108.5 220.5l70 353q-108 16 -152 16q-145 0 -256 -113t-143 -270zM551 1133h-96q27 87 83.5 147.5t141.5 60.5q37 0 64 -13t43 -31t29.5 -36t32 -31t42.5 -13q45 0 75.5 34t45.5 78h98q-23 -85 -84.5 -149t-146.5 -64q-37 0 -64.5 12.5
t-43.5 31t-30 36.5t-32.5 30.5t-42.5 12.5q-73 0 -115 -106z" />
    <glyph glyph-name="adieresis" unicode="&#xe4;" horiz-adv-x="1050" 
d="M463 -16q-73 0 -132 24.5t-103.5 76.5t-58 133.5t4.5 195.5q27 154 115 275t210 185t255 64q32 0 65.5 -1.5t56.5 -3.5t56.5 -6.5t47.5 -6.5t49.5 -8t43.5 -7l-125 -680q-25 -170 -16 -225h-162q-2 50 18 160h-6q-126 -176 -319 -176zM346 426q-28 -145 18.5 -228
t161.5 -83q105 0 192.5 104.5t108.5 220.5l70 353q-108 16 -152 16q-145 0 -256 -113t-143 -270zM625 1112q-45 0 -75.5 33t-25.5 76q6 47 41.5 79.5t85.5 32.5q44 0 73.5 -33t25.5 -79q-6 -44 -42.5 -76.5t-82.5 -32.5zM965 1112q-46 0 -75.5 33t-23.5 76q5 47 41 79.5
t86 32.5q45 0 74 -33.5t23 -78.5q-6 -44 -41.5 -76.5t-83.5 -32.5z" />
    <glyph glyph-name="aring" unicode="&#xe5;" horiz-adv-x="1050" 
d="M463 -16q-73 0 -132 24.5t-103.5 76.5t-58 133.5t4.5 195.5q27 154 115 275t210 185t255 64q32 0 65.5 -1.5t56.5 -3.5t56.5 -6.5t47.5 -6.5t49.5 -8t43.5 -7l-125 -680q-25 -170 -16 -225h-162q-2 50 18 160h-6q-126 -176 -319 -176zM346 426q-28 -145 18.5 -228
t161.5 -83q105 0 192.5 104.5t108.5 220.5l70 353q-108 16 -152 16q-145 0 -256 -113t-143 -270zM766 946q-86 0 -137.5 57t-30.5 158q21 100 95 157.5t159 57.5q40 0 74.5 -14t59.5 -41t34.5 -67t-0.5 -93q-21 -101 -95 -158t-159 -57zM696 1161q-12 -55 11.5 -91t70.5 -36
q48 0 90 36t54 91q13 54 -10.5 90.5t-71.5 36.5q-49 0 -90.5 -36.5t-53.5 -90.5z" />
    <glyph glyph-name="ae" unicode="&#xe6;" horiz-adv-x="1472" 
d="M420 -20q-145 0 -215.5 84.5t-46.5 203.5q17 77 65.5 137t115.5 94.5t141.5 52t152.5 17.5h151v6q20 117 -17.5 173.5t-139.5 56.5q-123 0 -262 -80l-33 111q192 102 354 102q105 0 169 -43.5t79 -120.5h4q66 81 155.5 122.5t184.5 41.5q126 0 187 -72.5t38 -173.5
q-10 -46 -37.5 -82.5t-63 -60t-86.5 -40.5t-96.5 -25.5t-105.5 -13t-101.5 -5.5t-94.5 0q-34 -157 24 -253.5t182 -96.5q70 0 148 19t119 44l18 -110q-145 -84 -324 -84q-97 0 -173.5 41.5t-116.5 121.5h-4q-68 -68 -164 -117.5t-207 -49.5zM332 283q-19 -83 22.5 -131
t128.5 -48q70 0 151.5 45t125.5 97q-18 101 10 215h-141q-50 0 -96.5 -10.5t-88.5 -31t-72 -55.5t-40 -81zM1266 815q-110 0 -198 -70t-130 -174v-4q229 1 325 31t111 100q9 47 -21.5 81.5t-86.5 35.5z" />
    <glyph glyph-name="ccedilla" unicode="&#xe7;" horiz-adv-x="886" 
d="M438 -8q-143 26 -217.5 147.5t-40.5 321.5q37 207 171 342t327 135q172 0 268 -74l-63 -112q-64 57 -191 57q-130 0 -221.5 -99t-120.5 -247q-30 -151 28 -247.5t181 -96.5q66 0 129.5 18t104.5 45l36 -112q-140 -84 -327 -84l-29 -64q45 0 80 -32.5t27 -90.5
q-9 -69 -73.5 -103t-162.5 -34q-39 0 -96 21l22 73q40 -20 86 -20q45 0 80.5 14.5t42.5 44.5q8 33 -15.5 49.5t-57.5 16.5l-17 26z" />
    <glyph glyph-name="egrave" unicode="&#xe8;" horiz-adv-x="917" 
d="M532 -16q-176 0 -275.5 128t-61.5 349q20 115 69 207t116.5 150t146.5 89t163 31q60 0 107.5 -18.5t76 -50t43 -73t12.5 -88.5t-20 -94q-15 -45 -53.5 -84t-104.5 -74.5t-170.5 -60t-238.5 -33.5q0 -117 59.5 -182t165.5 -65q69 0 141.5 18.5t114.5 44.5l29 -110
q-141 -84 -320 -84zM352 465q189 17 298 62t134 112q24 68 -3 121.5t-93 54.5q-68 0 -127 -31t-100.5 -82t-69 -111.5t-39.5 -125.5zM659 1094l-270 317h184l191 -317h-105z" />
    <glyph glyph-name="eacute" unicode="&#xe9;" horiz-adv-x="917" 
d="M532 -16q-176 0 -275.5 128t-61.5 349q20 115 69 207t116.5 150t146.5 89t163 31q60 0 107.5 -18.5t76 -50t43 -73t12.5 -88.5t-20 -94q-15 -45 -53.5 -84t-104.5 -74.5t-170.5 -60t-238.5 -33.5q0 -117 59.5 -182t165.5 -65q69 0 141.5 18.5t114.5 44.5l29 -110
q-141 -84 -320 -84zM352 465q189 17 298 62t134 112q24 68 -3 121.5t-93 54.5q-68 0 -127 -31t-100.5 -82t-69 -111.5t-39.5 -125.5zM602 1094l234 317h186l-313 -317h-107z" />
    <glyph glyph-name="ecircumflex" unicode="&#xea;" horiz-adv-x="917" 
d="M532 -16q-176 0 -275.5 128t-61.5 349q20 115 69 207t116.5 150t146.5 89t163 31q60 0 107.5 -18.5t76 -50t43 -73t12.5 -88.5t-20 -94q-15 -45 -53.5 -84t-104.5 -74.5t-170.5 -60t-238.5 -33.5q0 -117 59.5 -182t165.5 -65q69 0 141.5 18.5t114.5 44.5l29 -110
q-141 -84 -320 -84zM352 465q189 17 298 62t134 112q24 68 -3 121.5t-93 54.5q-68 0 -127 -31t-100.5 -82t-69 -111.5t-39.5 -125.5zM514 1087h-108l286 318h139l156 -318h-106l-133 213h-7z" />
    <glyph glyph-name="edieresis" unicode="&#xeb;" horiz-adv-x="917" 
d="M532 -16q-176 0 -275.5 128t-61.5 349q20 115 69 207t116.5 150t146.5 89t163 31q60 0 107.5 -18.5t76 -50t43 -73t12.5 -88.5t-20 -94q-15 -45 -53.5 -84t-104.5 -74.5t-170.5 -60t-238.5 -33.5q0 -117 59.5 -182t165.5 -65q69 0 141.5 18.5t114.5 44.5l29 -110
q-141 -84 -320 -84zM352 465q189 17 298 62t134 112q24 68 -3 121.5t-93 54.5q-68 0 -127 -31t-100.5 -82t-69 -111.5t-39.5 -125.5zM881 1112q-46 0 -75.5 33t-23.5 76q5 47 41 79.5t86 32.5q45 0 74 -33.5t23 -78.5q-6 -44 -41.5 -76.5t-83.5 -32.5zM541 1112
q-45 0 -75.5 33t-25.5 76q6 47 41.5 79.5t85.5 32.5q44 0 73.5 -33t25.5 -79q-6 -44 -42.5 -76.5t-82.5 -32.5z" />
    <glyph glyph-name="igrave" unicode="&#xec;" horiz-adv-x="473" 
d="M158 0l161 922h164l-161 -922h-164zM303 1411l191 -317h-103l-270 317h182z" />
    <glyph glyph-name="iacute" unicode="&#xed;" horiz-adv-x="473" 
d="M158 0l161 922h164l-161 -922h-164zM594 1411h186l-315 -317h-107z" />
    <glyph glyph-name="icircumflex" unicode="&#xee;" horiz-adv-x="473" 
d="M158 0l161 922h164l-161 -922h-164zM211 1087h-109l287 318h139l156 -318h-109l-131 213h-6z" />
    <glyph glyph-name="idieresis" unicode="&#xef;" horiz-adv-x="473" 
d="M158 0l161 922h164l-161 -922h-164zM604 1112q-46 0 -75.5 32.5t-24.5 76.5q6 47 41.5 79.5t85.5 32.5q44 0 73 -33t23 -79q-5 -44 -41 -76.5t-82 -32.5zM262 1112q-45 0 -74.5 33t-23.5 76q5 46 40.5 79t84.5 33q46 0 75 -33t23 -79q-6 -44 -41.5 -76.5t-83.5 -32.5z
" />
    <glyph glyph-name="eth" unicode="&#xf0;" horiz-adv-x="1153" 
d="M569 -16q-144 0 -241.5 63.5t-134 169t-13.5 234.5q32 183 176.5 311.5t343.5 128.5q66 0 121.5 -18.5t90 -47.5t53 -51.5t30.5 -44.5h6q19 225 -71 356l-160 -92l-22 51l143 84q-77 74 -197 74q-44 0 -102 -14l-19 135q74 23 148 23q203 0 323 -129l177 102l22 -51
l-164 -94q146 -207 76 -603q-48 -270 -203 -428.5t-383 -158.5zM350 442q-14 -78 0.5 -142t50.5 -104t86 -61.5t107 -21.5q56 0 111 23t103 67t84 115.5t52 162.5q13 70 -3 126.5t-53 91.5t-86.5 54t-105.5 19q-127 0 -223 -87.5t-123 -242.5z" />
    <glyph glyph-name="ntilde" unicode="&#xf1;" 
d="M133 0l162 922h147l-22 -160h4q52 75 132.5 127.5t174.5 52.5q175 0 236.5 -112.5t21.5 -346.5l-86 -483h-164l80 449q19 107 18.5 184t-40 120.5t-121.5 43.5q-87 0 -161.5 -78t-121.5 -201l-96 -518h-164zM463 1118h-96q27 87 84.5 148t140.5 61q37 0 64 -13t43 -31.5
t29.5 -37.5t32 -32t42.5 -13q45 0 75.5 34.5t45.5 78.5h98q-23 -84 -85 -147.5t-146 -63.5q-37 0 -64.5 12.5t-43.5 31t-30 36.5t-32.5 30.5t-42.5 12.5q-72 0 -115 -107z" />
    <glyph glyph-name="ograve" unicode="&#xf2;" horiz-adv-x="1013" 
d="M504 -16q-85 0 -153.5 30.5t-115 90.5t-63 149.5t3.5 206.5q40 225 180 351t316 126q84 0 152 -30.5t115 -90.5t63.5 -149.5t-3.5 -206.5q-19 -114 -68 -206t-116 -150.5t-146.5 -89.5t-164.5 -31zM344 461q-29 -153 16 -246.5t160 -93.5q117 0 199 93.5t112 246.5
q29 155 -15.5 248.5t-160.5 93.5q-115 1 -198 -93.5t-113 -248.5zM403 1411h183l190 -317h-102z" />
    <glyph glyph-name="oacute" unicode="&#xf3;" horiz-adv-x="1013" 
d="M504 -16q-85 0 -153.5 30.5t-115 90.5t-63 149.5t3.5 206.5q40 225 180 351t316 126q84 0 152 -30.5t115 -90.5t63.5 -149.5t-3.5 -206.5q-19 -114 -68 -206t-116 -150.5t-146.5 -89.5t-164.5 -31zM344 461q-29 -153 16 -246.5t160 -93.5q117 0 199 93.5t112 246.5
q29 155 -15.5 248.5t-160.5 93.5q-115 1 -198 -93.5t-113 -248.5zM725 1094h-107l236 317h186z" />
    <glyph glyph-name="ocircumflex" unicode="&#xf4;" horiz-adv-x="1013" 
d="M504 -16q-85 0 -153.5 30.5t-115 90.5t-63 149.5t3.5 206.5q40 225 180 351t316 126q84 0 152 -30.5t115 -90.5t63.5 -149.5t-3.5 -206.5q-19 -114 -68 -206t-116 -150.5t-146.5 -89.5t-164.5 -31zM344 461q-29 -153 16 -246.5t160 -93.5q117 0 199 93.5t112 246.5
q29 155 -15.5 248.5t-160.5 93.5q-115 1 -198 -93.5t-113 -248.5zM518 1087h-108l284 318h142l155 -318h-108l-131 213h-7z" />
    <glyph glyph-name="otilde" unicode="&#xf5;" horiz-adv-x="1013" 
d="M504 -16q-85 0 -153.5 30.5t-115 90.5t-63 149.5t3.5 206.5q40 225 180 351t316 126q84 0 152 -30.5t115 -90.5t63.5 -149.5t-3.5 -206.5q-19 -114 -68 -206t-116 -150.5t-146.5 -89.5t-164.5 -31zM344 461q-29 -153 16 -246.5t160 -93.5q117 0 199 93.5t112 246.5
q29 155 -15.5 248.5t-160.5 93.5q-115 1 -198 -93.5t-113 -248.5zM356 1118q25 86 82.5 147.5t141.5 61.5q37 0 64 -13t43 -31.5t29.5 -37.5t32 -32t42.5 -13q44 0 74.5 34t45.5 79h99q-23 -84 -84.5 -147.5t-147.5 -63.5q-37 0 -64.5 12.5t-43.5 31t-30 36.5t-32.5 30.5
t-42.5 12.5q-31 0 -55.5 -19t-35.5 -39t-23 -49h-95z" />
    <glyph glyph-name="odieresis" unicode="&#xf6;" horiz-adv-x="1013" 
d="M504 -16q-85 0 -153.5 30.5t-115 90.5t-63 149.5t3.5 206.5q40 225 180 351t316 126q84 0 152 -30.5t115 -90.5t63.5 -149.5t-3.5 -206.5q-19 -114 -68 -206t-116 -150.5t-146.5 -89.5t-164.5 -31zM344 461q-29 -153 16 -246.5t160 -93.5q117 0 199 93.5t112 246.5
q29 155 -15.5 248.5t-160.5 93.5q-115 1 -198 -93.5t-113 -248.5zM539 1112q-46 0 -75.5 33t-23.5 76q5 47 40 79.5t85 32.5q46 0 75 -33t24 -79q-6 -44 -41.5 -76.5t-83.5 -32.5zM879 1112q-46 0 -75.5 33t-23.5 76q6 47 41.5 79.5t85.5 32.5q45 0 74 -33.5t23 -78.5
q-5 -44 -41 -76.5t-84 -32.5z" />
    <glyph glyph-name="divide" unicode="&#xf7;" horiz-adv-x="1054" 
d="M1049 455h-848l22 102h846zM528 -2q-43 0 -67 33t-15 78t47.5 77.5t81.5 32.5t66.5 -32t13.5 -78q-9 -45 -47 -78t-80 -33zM690 760q-43 0 -67 33t-15 77q9 45 47.5 78t81.5 33q42 0 66 -33t14 -78q-9 -44 -47.5 -77t-79.5 -33z" />
    <glyph glyph-name="oslash" unicode="&#xf8;" horiz-adv-x="1013" 
d="M260 76q-131 134 -84 385q40 225 180 351t316 126q124 0 209 -64l86 111l49 -31l-92 -118q119 -132 75 -375q-19 -114 -68 -206t-116 -150.5t-146.5 -89.5t-164.5 -31q-117 0 -199 55l-84 -109l-51 31zM362 209l424 545q-49 49 -131 49q-115 1 -198 -93.5t-113 -248.5
q-29 -167 18 -252zM819 700l-420 -538q47 -41 121 -41q117 0 199 93.5t112 246.5q28 151 -12 239z" />
    <glyph glyph-name="ugrave" unicode="&#xf9;" 
d="M449 -20q-176 0 -236 120.5t-16 376.5l79 445h164l-80 -445q-20 -108 -19.5 -186t41 -122t122.5 -44q87 0 161 77.5t121 200.5l97 519h164l-162 -922h-148l23 160h-6q-52 -75 -132 -127.5t-173 -52.5zM637 1094l-270 317h182l190 -317h-102z" />
    <glyph glyph-name="uacute" unicode="&#xfa;" 
d="M449 -20q-176 0 -236 120.5t-16 376.5l79 445h164l-80 -445q-20 -108 -19.5 -186t41 -122t122.5 -44q87 0 161 77.5t121 200.5l97 519h164l-162 -922h-148l23 160h-6q-52 -75 -132 -127.5t-173 -52.5zM727 1094h-106l233 317h186z" />
    <glyph glyph-name="ucircumflex" unicode="&#xfb;" 
d="M449 -20q-176 0 -236 120.5t-16 376.5l79 445h164l-80 -445q-20 -108 -19.5 -186t41 -122t122.5 -44q87 0 161 77.5t121 200.5l97 519h164l-162 -922h-148l23 160h-6q-52 -75 -132 -127.5t-173 -52.5zM399 1087l285 318h141l156 -318h-109l-133 213h-6l-225 -213h-109z
" />
    <glyph glyph-name="udieresis" unicode="&#xfc;" 
d="M449 -20q-176 0 -236 120.5t-16 376.5l79 445h164l-80 -445q-20 -108 -19.5 -186t41 -122t122.5 -44q87 0 161 77.5t121 200.5l97 519h164l-162 -922h-148l23 160h-6q-52 -75 -132 -127.5t-173 -52.5zM532 1112q-46 0 -75.5 32.5t-24.5 76.5q6 47 41.5 79.5t85.5 32.5
q44 0 73 -33t23 -79q-5 -44 -41 -76.5t-82 -32.5zM872 1112q-45 0 -74.5 33t-23.5 76q5 47 40 79.5t85 32.5q45 0 74 -33t24 -79q-6 -44 -41.5 -76.5t-83.5 -32.5z" />
    <glyph glyph-name="yacute" unicode="&#xfd;" horiz-adv-x="899" 
d="M-18 -512h-48l19 147h45q126 0 242.5 103t189.5 266l-240 918h181l164 -715h6l346 715h149l-432 -902q-129 -268 -279.5 -400t-342.5 -132zM664 1094h-105l234 317h186z" />
    <glyph glyph-name="thorn" unicode="&#xfe;" horiz-adv-x="1044" 
d="M205 -512h-162l346 1946h162l-123 -670h6q128 174 314 174q73 0 132 -25t102 -78.5t56.5 -136t-4.5 -196.5q-27 -152 -114 -268t-204.5 -174t-246.5 -58q-64 0 -170 18zM381 483l-62 -348q2 0 32 -5.5t58 -9t58 -3.5q149 0 257.5 110t137.5 269q25 144 -23.5 227.5
t-162.5 83.5q-72 0 -137.5 -53t-105 -125.5t-52.5 -145.5z" />
    <glyph glyph-name="ydieresis" unicode="&#xff;" horiz-adv-x="899" 
d="M-18 -512h-48l19 147h45q126 0 242.5 103t189.5 266l-240 918h181l164 -715h6l346 715h149l-432 -902q-129 -268 -279.5 -400t-342.5 -132zM508 1112q-45 0 -75 33t-25 76q6 47 41.5 79.5t85.5 32.5q44 0 73 -33t25 -79q-6 -44 -41.5 -76.5t-83.5 -32.5zM848 1112
q-45 0 -74.5 33t-23.5 76q5 47 41 79.5t86 32.5q44 0 73 -33t23 -79q-5 -44 -41 -76.5t-84 -32.5z" />
    <glyph glyph-name="Amacron" unicode="&#x100;" horiz-adv-x="1259" 
d="M231 0h-165l765 1440h113l252 -1440h-188l-45 322h-557zM469 459h465l-92 657h-4zM1270 1595h-719l8 80h721z" />
    <glyph glyph-name="amacron" unicode="&#x101;" horiz-adv-x="1050" 
d="M463 -16q-73 0 -132 24.5t-103.5 76.5t-58 133.5t4.5 195.5q27 154 115 275t210 185t255 64q32 0 65.5 -1.5t56.5 -3.5t56.5 -6.5t47.5 -6.5t49.5 -8t43.5 -7l-125 -680q-25 -170 -16 -225h-162q-2 50 18 160h-6q-126 -176 -319 -176zM346 426q-28 -145 18.5 -228
t161.5 -83q105 0 192.5 104.5t108.5 220.5l70 353q-108 16 -152 16q-145 0 -256 -113t-143 -270zM1069 1104h-555l10 80h555z" />
    <glyph glyph-name="Abreve" unicode="&#x102;" horiz-adv-x="1259" 
d="M231 0h-165l765 1440h113l252 -1440h-188l-45 322h-557zM838 1116l-369 -657h465l-92 657h-4zM899 1499q-50 0 -94 12.5t-83 41t-60 82.5t-17 128h129q-4 -74 32.5 -115.5t104.5 -41.5q66 0 117 41.5t74 115.5h127q-17 -74 -53.5 -128t-84.5 -82t-95.5 -41t-96.5 -13z
" />
    <glyph glyph-name="abreve" unicode="&#x103;" horiz-adv-x="1050" 
d="M463 -16q-73 0 -132 24.5t-103.5 76.5t-58 133.5t4.5 195.5q27 154 115 275t210 185t255 64q32 0 65.5 -1.5t56.5 -3.5t56.5 -6.5t47.5 -6.5t49.5 -8t43.5 -7l-125 -680q-25 -170 -16 -225h-162q-2 50 18 160h-6q-126 -176 -319 -176zM346 426q-28 -145 18.5 -228
t161.5 -83q105 0 192.5 104.5t108.5 220.5l70 353q-108 16 -152 16q-145 0 -256 -113t-143 -270zM774 1061q-107 0 -172 67t-49 207h123q-8 -77 19.5 -123.5t92.5 -46.5q66 0 115.5 46.5t77.5 123.5h125q-40 -140 -132.5 -207t-199.5 -67z" />
    <glyph glyph-name="Aogonek" unicode="&#x104;" horiz-adv-x="1259" 
d="M231 0h-165l765 1440h113l252 -1440h-18q-39 0 -92 -52t-66 -112q-7 -38 8 -56t39 -18q29 0 55 15l-14 -82q-38 -19 -78 -19q-58 0 -91.5 34.5t-20.5 105.5q19 99 139 184h-49l-45 322h-557zM838 1116l-369 -657h465l-92 657h-4z" />
    <glyph glyph-name="aogonek" unicode="&#x105;" horiz-adv-x="1050" 
d="M463 -16q-73 0 -132 24.5t-103.5 76.5t-58 133.5t4.5 195.5q27 154 115 275t210 185t255 64q32 0 65.5 -1.5t56.5 -3.5t56.5 -6.5t47.5 -6.5t49.5 -8t43.5 -7l-125 -680q-25 -170 -16 -225h-14q-41 0 -94 -52t-64 -112q-8 -38 7.5 -56t39.5 -18q30 0 53 15l-14 -82
q-32 -19 -76 -19q-60 0 -94 34.5t-21 105.5q19 98 140 184h-25q-2 50 18 160h-6q-126 -176 -319 -176zM346 426q-28 -145 18.5 -228t161.5 -83q105 0 192.5 104.5t108.5 220.5l70 353q-108 16 -152 16q-145 0 -256 -113t-143 -270z" />
    <glyph glyph-name="Cacute" unicode="&#x106;" horiz-adv-x="1271" 
d="M760 -18q-189 0 -317.5 93t-179 263.5t-11.5 392.5q59 327 271.5 520t494.5 193q231 0 389 -96l-78 -144q-133 80 -321 80q-201 0 -360 -154t-206 -399q-32 -173 3.5 -309.5t127 -210.5t220.5 -74q200 0 356 90l41 -133q-206 -112 -430 -112zM1087 1536h-120l202 279h181
z" />
    <glyph glyph-name="cacute" unicode="&#x107;" horiz-adv-x="886" 
d="M512 -14q-83 0 -151.5 30t-116.5 89.5t-65.5 148.5t1.5 207q37 207 171 342t327 135q172 0 268 -74l-63 -112q-64 57 -191 57q-130 0 -221.5 -99t-120.5 -247q-30 -151 28 -247.5t181 -96.5q66 0 129.5 18t104.5 45l36 -112q-141 -84 -317 -84zM635 1094l233 317h187
l-314 -317h-106z" />
    <glyph glyph-name="Ccircumflex" unicode="&#x108;" horiz-adv-x="1271" 
d="M760 -18q-189 0 -317.5 93t-179 263.5t-11.5 392.5q59 327 271.5 520t494.5 193q231 0 389 -96l-78 -144q-133 80 -321 80q-201 0 -360 -154t-206 -399q-32 -173 3.5 -309.5t127 -210.5t220.5 -74q200 0 356 90l41 -133q-206 -112 -430 -112zM874 1536h-129l261 264h137
l180 -264h-129l-129 160h-6z" />
    <glyph glyph-name="ccircumflex" unicode="&#x109;" horiz-adv-x="886" 
d="M512 -14q-83 0 -151.5 30t-116.5 89.5t-65.5 148.5t1.5 207q37 207 171 342t327 135q172 0 268 -74l-63 -112q-64 57 -191 57q-130 0 -221.5 -99t-120.5 -247q-30 -151 28 -247.5t181 -96.5q66 0 129.5 18t104.5 45l36 -112q-141 -84 -317 -84zM524 1087h-108l284 318
h142l155 -318h-108l-133 213h-4z" />
    <glyph glyph-name="Cdotaccent" unicode="&#x10a;" horiz-adv-x="1271" 
d="M760 -18q-189 0 -317.5 93t-179 263.5t-11.5 392.5q59 327 271.5 520t494.5 193q231 0 389 -96l-78 -144q-133 80 -321 80q-201 0 -360 -154t-206 -399q-32 -173 3.5 -309.5t127 -210.5t220.5 -74q200 0 356 90l41 -133q-206 -112 -430 -112zM1071 1567q-45 0 -74 33
t-24 79q6 47 42.5 81t82.5 34q43 0 71.5 -34t22.5 -81q-4 -45 -41 -78.5t-80 -33.5z" />
    <glyph glyph-name="cdotaccent" unicode="&#x10b;" horiz-adv-x="886" 
d="M512 -14q-83 0 -151.5 30t-116.5 89.5t-65.5 148.5t1.5 207q37 207 171 342t327 135q172 0 268 -74l-63 -112q-64 57 -191 57q-130 0 -221.5 -99t-120.5 -247q-30 -151 28 -247.5t181 -96.5q66 0 129.5 18t104.5 45l36 -112q-141 -84 -317 -84zM721 1110q-47 0 -75.5 33
t-20.5 78q6 47 42.5 79.5t86.5 32.5q44 0 72 -33t22 -79q-6 -45 -42.5 -78t-84.5 -33z" />
    <glyph glyph-name="Ccaron" unicode="&#x10c;" horiz-adv-x="1271" 
d="M760 -18q-189 0 -317.5 93t-179 263.5t-11.5 392.5q59 327 271.5 520t494.5 193q231 0 389 -96l-78 -144q-133 80 -321 80q-201 0 -360 -154t-206 -399q-32 -173 3.5 -309.5t127 -210.5t220.5 -74q200 0 356 90l41 -133q-206 -112 -430 -112zM965 1536l-181 264h127
l131 -160h9l182 160h127l-258 -264h-137z" />
    <glyph glyph-name="ccaron" unicode="&#x10d;" horiz-adv-x="886" 
d="M512 -14q-83 0 -151.5 30t-116.5 89.5t-65.5 148.5t1.5 207q37 207 171 342t327 135q172 0 268 -74l-63 -112q-64 57 -191 57q-130 0 -221.5 -99t-120.5 -247q-30 -151 28 -247.5t181 -96.5q66 0 129.5 18t104.5 45l36 -112q-141 -84 -317 -84zM471 1405h109l131 -213h6
l227 213h109l-287 -318h-139z" />
    <glyph glyph-name="Dcaron" unicode="&#x10e;" horiz-adv-x="1333" 
d="M567 -16q-251 0 -405 16l252 1427q215 17 409 17q295 0 434 -186.5t86 -499.5q-28 -164 -95.5 -305t-166 -245.5t-231.5 -164t-283 -59.5zM358 145q95 -10 230 -10q136 0 256.5 85.5t200 226.5t110.5 311q42 239 -48 386.5t-296 147.5q-128 0 -233 -10zM758 1536
l-180 264h129l129 -160h8l182 160h129l-260 -264h-137z" />
    <glyph glyph-name="dcaron" unicode="&#x10f;" horiz-adv-x="1439" 
d="M463 -16q-73 0 -132 24.5t-103.5 76.5t-58 133.5t4.5 195.5q27 154 115 275t210 185t255 64q81 0 159 -10l111 608h160l-273 -1536h-143l23 160h-7q-131 -176 -321 -176zM346 426q-28 -145 18.5 -228t161.5 -83q105 0 192.5 104.5t108.5 220.5l70 353q-108 16 -152 16
q-145 0 -256 -113t-143 -270zM1427 1042h-79q115 239 161 494h115q-44 -256 -197 -494z" />
    <glyph glyph-name="Dcroat" unicode="&#x110;" horiz-adv-x="1333" 
d="M283 688h-136l13 98h141l113 641q215 17 409 17q295 0 434 -186.5t86 -499.5q-28 -164 -95.5 -305t-166 -245.5t-231.5 -164t-283 -59.5q-251 0 -405 16zM721 688h-258l-105 -543q95 -10 230 -10q136 0 256.5 85.5t200 226.5t110.5 311q42 239 -48 386.5t-296 147.5
q-128 0 -233 -10l-97 -496h252z" />
    <glyph glyph-name="dcroat" unicode="&#x111;" horiz-adv-x="1044" 
d="M463 -16q-73 0 -132 24.5t-103.5 76.5t-58 133.5t4.5 195.5q27 154 115 275t210 185t255 64q81 0 159 -10l33 176h-274l10 80h279l63 352h160l-64 -352h117l-10 -80h-121l-195 -1104h-143l23 160h-7q-131 -176 -321 -176zM346 426q-28 -145 18.5 -228t161.5 -83
q105 0 192.5 104.5t108.5 220.5l70 353q-108 16 -152 16q-145 0 -256 -113t-143 -270z" />
    <glyph glyph-name="Emacron" unicode="&#x112;" horiz-adv-x="1085" 
d="M162 0l254 1434h792l-16 -156h-614l-99 -469h557l-16 -145h-557l-105 -508h617l-19 -156h-794zM479 1595l8 80h721l-10 -80h-719z" />
    <glyph glyph-name="emacron" unicode="&#x113;" horiz-adv-x="917" 
d="M532 -16q-176 0 -275.5 128t-61.5 349q20 115 69 207t116.5 150t146.5 89t163 31q60 0 107.5 -18.5t76 -50t43 -73t12.5 -88.5t-20 -94q-15 -45 -53.5 -84t-104.5 -74.5t-170.5 -60t-238.5 -33.5q0 -117 59.5 -182t165.5 -65q69 0 141.5 18.5t114.5 44.5l29 -110
q-141 -84 -320 -84zM352 465q189 17 298 62t134 112q24 68 -3 121.5t-93 54.5q-68 0 -127 -31t-100.5 -82t-69 -111.5t-39.5 -125.5zM979 1104h-553l8 80h555z" />
    <glyph glyph-name="Ebreve" unicode="&#x114;" horiz-adv-x="1085" 
d="M956 0h-794l254 1434h792l-16 -156h-614l-99 -469h557l-16 -145h-557l-105 -508h617zM819 1499q-50 0 -94 12.5t-83 41t-60 82.5t-17 128h129q-4 -74 32.5 -115.5t104.5 -41.5q66 0 117 41.5t74 115.5h127q-17 -74 -53.5 -128t-84.5 -82t-95.5 -41t-96.5 -13z" />
    <glyph glyph-name="ebreve" unicode="&#x115;" horiz-adv-x="917" 
d="M532 -16q-176 0 -275.5 128t-61.5 349q20 115 69 207t116.5 150t146.5 89t163 31q60 0 107.5 -18.5t76 -50t43 -73t12.5 -88.5t-20 -94q-15 -45 -53.5 -84t-104.5 -74.5t-170.5 -60t-238.5 -33.5q0 -117 59.5 -182t165.5 -65q69 0 141.5 18.5t114.5 44.5l29 -110
q-141 -84 -320 -84zM352 465q189 17 298 62t134 112q24 68 -3 121.5t-93 54.5q-68 0 -127 -31t-100.5 -82t-69 -111.5t-39.5 -125.5zM692 1061q-107 0 -172 67t-49 207h125q-9 -77 19.5 -123.5t93.5 -46.5t113.5 46.5t76.5 123.5h125q-40 -140 -132 -207t-200 -67z" />
    <glyph glyph-name="Edotaccent" unicode="&#x116;" horiz-adv-x="1085" 
d="M956 0h-794l254 1434h792l-16 -156h-614l-99 -469h557l-16 -145h-557l-105 -508h617zM866 1567q-45 0 -74 33t-24 79q6 47 42.5 81t82.5 34q43 0 71.5 -34t22.5 -81q-4 -45 -41 -78.5t-80 -33.5z" />
    <glyph glyph-name="edotaccent" unicode="&#x117;" horiz-adv-x="917" 
d="M532 -16q-176 0 -275.5 128t-61.5 349q20 115 69 207t116.5 150t146.5 89t163 31q60 0 107.5 -18.5t76 -50t43 -73t12.5 -88.5t-20 -94q-15 -45 -53.5 -84t-104.5 -74.5t-170.5 -60t-238.5 -33.5q0 -117 59.5 -182t165.5 -65q69 0 141.5 18.5t114.5 44.5l29 -110
q-141 -84 -320 -84zM352 465q189 17 298 62t134 112q24 68 -3 121.5t-93 54.5q-68 0 -127 -31t-100.5 -82t-69 -111.5t-39.5 -125.5zM702 1110q-45 0 -73.5 33t-22.5 78q8 47 43.5 79.5t85.5 32.5q46 0 74 -33t22 -79q-8 -46 -44.5 -78.5t-84.5 -32.5z" />
    <glyph glyph-name="Eogonek" unicode="&#x118;" horiz-adv-x="1085" 
d="M829 0h-667l254 1434h792l-16 -156h-614l-99 -469h557l-16 -145h-557l-105 -508h617l-19 -156h-4q-39 0 -91.5 -52t-65.5 -112q-8 -38 7.5 -56t39.5 -18q30 0 53 15l-12 -82q-38 -19 -78 -19q-60 0 -94 34.5t-21 105.5q21 98 139 184z" />
    <glyph glyph-name="eogonek" unicode="&#x119;" horiz-adv-x="917" 
d="M532 -16q-176 0 -275.5 128t-61.5 349q20 115 69 207t116.5 150t146.5 89t163 31q60 0 107.5 -18.5t76 -50t43 -73t12.5 -88.5t-20 -94q-15 -45 -53.5 -84t-104.5 -74.5t-170.5 -60t-238.5 -33.5q0 -117 59.5 -182t165.5 -65q69 0 141.5 18.5t114.5 44.5l29 -110
q-90 -53 -199 -74q-40 -16 -78.5 -61.5t-48.5 -96.5q-8 -37 7.5 -54.5t39.5 -17.5q31 0 54 15l-15 -82q-32 -19 -75 -19q-60 0 -94 33.5t-21 106.5q16 84 117 166h-7zM352 465q189 17 298 62t134 112q24 68 -3 121.5t-93 54.5q-68 0 -127 -31t-100.5 -82t-69 -111.5
t-39.5 -125.5z" />
    <glyph glyph-name="Ecaron" unicode="&#x11a;" horiz-adv-x="1085" 
d="M956 0h-794l254 1434h792l-16 -156h-614l-99 -469h557l-16 -145h-557l-105 -508h617zM750 1536l-179 264h127l129 -160h9l184 160h127l-260 -264h-137z" />
    <glyph glyph-name="ecaron" unicode="&#x11b;" horiz-adv-x="917" 
d="M532 -16q-176 0 -275.5 128t-61.5 349q20 115 69 207t116.5 150t146.5 89t163 31q60 0 107.5 -18.5t76 -50t43 -73t12.5 -88.5t-20 -94q-15 -45 -53.5 -84t-104.5 -74.5t-170.5 -60t-238.5 -33.5q0 -117 59.5 -182t165.5 -65q69 0 141.5 18.5t114.5 44.5l29 -110
q-141 -84 -320 -84zM352 465q189 17 298 62t134 112q24 68 -3 121.5t-93 54.5q-68 0 -127 -31t-100.5 -82t-69 -111.5t-39.5 -125.5zM473 1405h109l131 -213h6l227 213h109l-287 -318h-139z" />
    <glyph glyph-name="Gcircumflex" unicode="&#x11c;" horiz-adv-x="1312" 
d="M774 -20q-297 0 -439.5 203t-80.5 554q39 219 153 380t277.5 244t357.5 83q225 0 406 -96l-78 -144q-69 39 -158 62.5t-178 23.5q-224 0 -381.5 -146.5t-208.5 -406.5q-54 -282 40.5 -443t306.5 -161q140 0 290 72l78 377h-293l17 137h448l-102 -613
q-108 -59 -228.5 -92.5t-226.5 -33.5zM766 1536l262 264h137l178 -264h-129l-129 160h-6l-184 -160h-129z" />
    <glyph glyph-name="gcircumflex" unicode="&#x11d;" horiz-adv-x="1019" 
d="M-6 -424l74 129q40 -33 120.5 -55.5t159.5 -22.5q306 0 387 424l23 109h-6q-131 -176 -316 -176q-74 0 -133 24.5t-103 76.5t-57.5 133.5t4.5 195.5q27 154 115 275t210 185t255 64q117 0 320 -33l-152 -854q-20 -121 -60 -218.5t-104.5 -176t-163.5 -121.5t-225 -43
q-99 0 -199 25t-149 59zM319 426q-28 -144 18.5 -227.5t160.5 -83.5q72 0 139.5 52.5t109.5 126t56 146.5l69 353q-108 16 -153 16q-145 0 -256.5 -113t-143.5 -270zM567 1087h-108l286 318h140l155 -318h-108l-131 213h-6z" />
    <glyph glyph-name="Gbreve" unicode="&#x11e;" horiz-adv-x="1312" 
d="M774 -20q-297 0 -439.5 203t-80.5 554q39 219 153 380t277.5 244t357.5 83q225 0 406 -96l-78 -144q-69 39 -158 62.5t-178 23.5q-224 0 -381.5 -146.5t-208.5 -406.5q-54 -282 40.5 -443t306.5 -161q140 0 290 72l78 377h-293l17 137h448l-102 -613
q-108 -59 -228.5 -92.5t-226.5 -33.5zM1059 1499q-50 0 -94 12.5t-83 41t-60 82.5t-17 128h129q-4 -74 32 -115.5t103 -41.5q68 0 118.5 41.5t72.5 115.5h129q-17 -74 -53.5 -128t-84.5 -82t-95.5 -41t-96.5 -13z" />
    <glyph glyph-name="gbreve" unicode="&#x11f;" horiz-adv-x="1019" 
d="M-6 -424l74 129q40 -33 120.5 -55.5t159.5 -22.5q306 0 387 424l23 109h-6q-131 -176 -316 -176q-74 0 -133 24.5t-103 76.5t-57.5 133.5t4.5 195.5q27 154 115 275t210 185t255 64q117 0 320 -33l-152 -854q-20 -121 -60 -218.5t-104.5 -176t-163.5 -121.5t-225 -43
q-99 0 -199 25t-149 59zM319 426q-28 -144 18.5 -227.5t160.5 -83.5q72 0 139.5 52.5t109.5 126t56 146.5l69 353q-108 16 -153 16q-145 0 -256.5 -113t-143.5 -270zM739 1061q-107 0 -172 67t-49 207h123q-8 -77 20.5 -123.5t92.5 -46.5q66 0 115 46t77 124h125
q-40 -140 -132.5 -207t-199.5 -67z" />
    <glyph glyph-name="Gdotaccent" unicode="&#x120;" horiz-adv-x="1312" 
d="M774 -20q-297 0 -439.5 203t-80.5 554q39 219 153 380t277.5 244t357.5 83q225 0 406 -96l-78 -144q-69 39 -158 62.5t-178 23.5q-224 0 -381.5 -146.5t-208.5 -406.5q-54 -282 40.5 -443t306.5 -161q140 0 290 72l78 377h-293l17 137h448l-102 -613
q-108 -59 -228.5 -92.5t-226.5 -33.5zM1098 1567q-44 0 -73 33t-24 79q6 47 42.5 81t82.5 34q43 0 72 -34t23 -81q-4 -45 -41 -78.5t-82 -33.5z" />
    <glyph glyph-name="gdotaccent" unicode="&#x121;" horiz-adv-x="1019" 
d="M-6 -424l74 129q40 -33 120.5 -55.5t159.5 -22.5q306 0 387 424l23 109h-6q-131 -176 -316 -176q-74 0 -133 24.5t-103 76.5t-57.5 133.5t4.5 195.5q27 154 115 275t210 185t255 64q117 0 320 -33l-152 -854q-20 -121 -60 -218.5t-104.5 -176t-163.5 -121.5t-225 -43
q-99 0 -199 25t-149 59zM319 426q-28 -144 18.5 -227.5t160.5 -83.5q72 0 139.5 52.5t109.5 126t56 146.5l69 353q-108 16 -153 16q-145 0 -256.5 -113t-143.5 -270zM721 1110q-45 0 -73.5 33t-22.5 78q8 47 43.5 79.5t85.5 32.5q46 0 74 -33t22 -79q-8 -46 -44.5 -78.5
t-84.5 -32.5z" />
    <glyph glyph-name="uni0122" unicode="&#x122;" horiz-adv-x="1312" 
d="M774 -20q-297 0 -439.5 203t-80.5 554q39 219 153 380t277.5 244t357.5 83q225 0 406 -96l-78 -144q-69 39 -158 62.5t-178 23.5q-224 0 -381.5 -146.5t-208.5 -406.5q-54 -282 40.5 -443t306.5 -161q140 0 290 72l78 377h-293l17 137h448l-102 -613
q-108 -59 -228.5 -92.5t-226.5 -33.5zM557 -369l14 88q136 49 144 224h121q-4 -117 -86.5 -207t-192.5 -105z" />
    <glyph glyph-name="uni0123" unicode="&#x123;" horiz-adv-x="1019" 
d="M-6 -424l74 129q40 -33 120.5 -55.5t159.5 -22.5q306 0 387 424l23 109h-6q-131 -176 -316 -176q-74 0 -133 24.5t-103 76.5t-57.5 133.5t4.5 195.5q27 154 115 275t210 185t255 64q117 0 320 -33l-152 -854q-20 -121 -60 -218.5t-104.5 -176t-163.5 -121.5t-225 -43
q-99 0 -199 25t-149 59zM319 426q-28 -144 18.5 -227.5t160.5 -83.5q72 0 139.5 52.5t109.5 126t56 146.5l69 353q-108 16 -153 16q-145 0 -256.5 -113t-143.5 -270zM793 1087h-121q3 117 85.5 207.5t192.5 104.5l-14 -86q-60 -21 -99.5 -76t-43.5 -150z" />
    <glyph glyph-name="Hcircumflex" unicode="&#x124;" horiz-adv-x="1282" 
d="M342 0h-180l252 1434h180l-115 -619h600l115 619h178l-252 -1434h-178l121 659h-600zM618 1536l261 264h137l178 -264h-127l-129 160h-8l-185 -160h-127z" />
    <glyph glyph-name="hcircumflex" unicode="&#x125;" 
d="M297 0h-164l270 1536h164l-139 -768h6q51 72 128.5 123t168.5 51q175 0 236.5 -112.5t21.5 -346.5l-86 -483h-164l80 449q19 107 18.5 184t-40 120.5t-121.5 43.5q-87 0 -161.5 -78t-121.5 -201zM217 1597l260 265h137l179 -265h-127l-129 160h-9l-184 -160h-127z" />
    <glyph glyph-name="Hbar" unicode="&#x126;" horiz-adv-x="1282" 
d="M358 1120l56 314h180l-57 -314h600l57 314h178l-55 -314h76l-11 -80h-77l-185 -1040h-178l121 659h-600l-121 -659h-180l184 1040h-102l8 80h106zM1122 1040h-600l-43 -225h600z" />
    <glyph glyph-name="hbar" unicode="&#x127;" 
d="M297 0h-164l195 1104h-129l10 80h133l61 352h164l-63 -352h260l-10 -80h-265l-61 -336h6q51 72 128.5 123t168.5 51q175 0 236.5 -112.5t21.5 -346.5l-86 -483h-164l80 449q19 107 18.5 184t-40 120.5t-121.5 43.5q-87 0 -161.5 -78t-121.5 -201z" />
    <glyph glyph-name="Itilde" unicode="&#x128;" horiz-adv-x="501" 
d="M162 0l254 1434h178l-252 -1434h-180zM233 1548q23 84 76.5 139.5t139.5 55.5q36 0 63.5 -11.5t44.5 -28.5t32 -33.5t34 -28t43 -11.5q45 0 73.5 29.5t40.5 71.5h97q-19 -84 -74.5 -141.5t-140.5 -57.5q-45 0 -79 17t-51 37t-42 37t-54 17q-45 0 -68 -25t-38 -67h-97z
" />
    <glyph glyph-name="itilde" unicode="&#x129;" horiz-adv-x="473" 
d="M158 0l161 922h164l-161 -922h-164zM115 1118q27 87 83.5 148t141.5 61q36 0 63 -13t43 -31.5t30 -37.5t32.5 -32t42.5 -13q45 0 75.5 34.5t45.5 78.5h96q-23 -84 -84 -147.5t-147 -63.5q-36 0 -63 12.5t-43 31t-30 36.5t-32.5 30.5t-42.5 12.5q-72 0 -115 -107h-96z" />
    <glyph glyph-name="Imacron" unicode="&#x12a;" horiz-adv-x="501" 
d="M162 0l254 1434h178l-252 -1434h-180zM156 1595l10 80h721l-10 -80h-721z" />
    <glyph glyph-name="imacron" unicode="&#x12b;" horiz-adv-x="473" 
d="M158 0l161 922h164l-161 -922h-164zM141 1104l11 80h553l-11 -80h-553z" />
    <glyph glyph-name="Ibreve" unicode="&#x12c;" horiz-adv-x="501" 
d="M342 0h-180l254 1434h178zM512 1499q-39 0 -75 7.5t-71 26t-59 47.5t-37.5 76t-9.5 107h127q-3 -75 33 -116t104 -41q66 0 117 41.5t74 115.5h127q-17 -74 -53.5 -128t-84.5 -82t-95.5 -41t-96.5 -13z" />
    <glyph glyph-name="ibreve" unicode="&#x12d;" horiz-adv-x="473" 
d="M322 0h-164l161 922h164zM408 1061q-108 0 -174 67t-50 207h125q-8 -77 20 -123.5t93 -46.5t114 46t78 124h123q-40 -140 -131 -207t-198 -67z" />
    <glyph glyph-name="Iogonek" unicode="&#x12e;" horiz-adv-x="501" 
d="M186 -324q-60 0 -93.5 34t-20.5 106q19 99 139 184h-49l254 1434h178l-252 -1434h-8q-41 0 -94 -52t-64 -112q-8 -38 7.5 -56t39.5 -18q31 0 53 15l-12 -82q-38 -19 -78 -19z" />
    <glyph glyph-name="iogonek" unicode="&#x12f;" horiz-adv-x="473" 
d="M162 -324q-60 0 -93.5 34.5t-19.5 105.5q10 51 48.5 99t88.5 85h-28l161 922h164l-161 -922h-13q-39 0 -91.5 -52t-65.5 -112q-8 -38 7.5 -56t39.5 -18q29 0 55 15l-14 -82q-38 -19 -78 -19zM457 1212q-47 0 -76 34t-23 81q6 49 43.5 83t83.5 34t75.5 -34t23.5 -83
q-6 -47 -44 -81t-83 -34z" />
    <glyph glyph-name="Idotaccent" unicode="&#x130;" horiz-adv-x="501" 
d="M342 0h-180l254 1434h178zM530 1567q-44 0 -72.5 33t-23.5 79q6 47 42.5 81t82.5 34q43 0 71.5 -34t22.5 -81q-4 -45 -41 -78.5t-82 -33.5z" />
    <glyph glyph-name="dotlessi" unicode="&#x131;" horiz-adv-x="473" 
d="M158 0l161 922h164l-161 -922h-164z" />
    <glyph glyph-name="IJ" unicode="&#x132;" horiz-adv-x="1273" 
d="M551 27l41 141q25 -13 80.5 -25t97.5 -12q78 0 131 29t93 103t65 202l176 969h170l-176 -969q-38 -244 -148.5 -362.5t-326.5 -118.5q-50 0 -114 14t-89 29zM342 0h-180l254 1434h178z" />
    <glyph glyph-name="ij" unicode="&#x133;" horiz-adv-x="843" 
d="M193 -508l26 143h35q138 0 208 86t107 295l160 906h160l-162 -916q-22 -127 -57.5 -218t-93.5 -159.5t-144.5 -102.5t-204.5 -34h-34zM158 0l164 922h159l-164 -922h-159zM451 1212q-46 0 -72.5 34t-18.5 81q9 49 48 83t86 34q45 0 71 -34t19 -83q-9 -47 -48.5 -81
t-84.5 -34zM858 1210q-45 0 -71 34.5t-17 82.5q7 49 45.5 83t85.5 34q45 0 71 -34t19 -83q-9 -47 -49 -82t-84 -35z" />
    <glyph glyph-name="Jcircumflex" unicode="&#x134;" horiz-adv-x="808" 
d="M84 27l43 141q23 -13 78.5 -25t99.5 -12q117 0 183.5 72.5t103.5 261.5l176 969h170l-176 -969q-38 -243 -148 -362t-325 -119q-51 0 -115.5 14t-89.5 29zM711 1536h-127l260 264h137l178 -264h-127l-129 160h-8z" />
    <glyph glyph-name="jcircumflex" unicode="&#x135;" horiz-adv-x="428" 
d="M-246 -508l27 143h35q138 0 208 86t107 295l160 906h162l-164 -916q-22 -127 -57.5 -218t-93.5 -159.5t-144.5 -102.5t-204.5 -34h-35zM229 1087h-108l285 318h141l155 -318h-108l-133 213h-4z" />
    <glyph glyph-name="uni0136" unicode="&#x136;" horiz-adv-x="1198" 
d="M342 0h-180l254 1434h178l-123 -643h6l631 643h199l-652 -662l502 -772h-233l-404 629l-76 -76zM676 -57q-3 -117 -84.5 -207t-192.5 -105l15 88q133 48 141 224h121z" />
    <glyph glyph-name="uni0137" unicode="&#x137;" horiz-adv-x="931" 
d="M133 0l270 1536h164l-192 -1049h4l452 435h175l-369 -359l221 -563h-182l-158 440l-168 -159l-53 -281h-164zM246 -369l14 88q59 21 99 75.5t44 148.5h119q-3 -117 -84.5 -207t-191.5 -105z" />
    <glyph glyph-name="kgreenlandic" unicode="&#x138;" horiz-adv-x="929" 
d="M135 0l162 922h162l-78 -435h6l447 435h170l-369 -359l219 -563h-178l-166 440l-166 -159l-49 -281h-160z" />
    <glyph glyph-name="Lacute" unicode="&#x139;" horiz-adv-x="1054" 
d="M162 0l254 1434h178l-236 -1278h635l-16 -156h-815zM668 1815h182l-262 -279h-121z" />
    <glyph glyph-name="lacute" unicode="&#x13a;" horiz-adv-x="428" 
d="M133 0l270 1536h164l-270 -1536h-164zM639 1876h180l-260 -279h-123z" />
    <glyph glyph-name="uni013B" unicode="&#x13b;" horiz-adv-x="1054" 
d="M162 0l254 1434h178l-236 -1278h635l-16 -156h-815zM358 -369l15 88q133 48 141 224h121q-3 -117 -84.5 -207t-192.5 -105z" />
    <glyph glyph-name="uni013C" unicode="&#x13c;" horiz-adv-x="448" 
d="M297 0h-164l270 1536h164zM270 -57q-3 -117 -84.5 -207t-191.5 -105l14 88q136 49 144 224h118z" />
    <glyph glyph-name="Lcaron" unicode="&#x13d;" horiz-adv-x="1054" 
d="M977 0h-815l254 1434h178l-236 -1278h635zM1067 1042h-80q114 227 162 494h117q-47 -257 -199 -494z" />
    <glyph glyph-name="lcaron" unicode="&#x13e;" horiz-adv-x="843" 
d="M297 0h-164l270 1536h164zM782 1042h-80q114 227 162 494h117q-47 -257 -199 -494z" />
    <glyph glyph-name="Ldot" unicode="&#x13f;" horiz-adv-x="1054" 
d="M977 0h-815l254 1434h178l-236 -1278h635zM885 672q-49 0 -79 34t-24 82q6 49 44.5 83t88.5 34q46 0 76.5 -34t24.5 -83q-6 -47 -45.5 -81.5t-85.5 -34.5z" />
    <glyph glyph-name="ldot" unicode="&#x140;" horiz-adv-x="753" 
d="M297 0h-164l270 1536h164zM672 567q-49 0 -79 34.5t-24 82.5q6 49 44.5 83t88.5 34q46 0 76.5 -34t24.5 -83q-6 -47 -45.5 -82t-85.5 -35z" />
    <glyph glyph-name="Lslash" unicode="&#x141;" horiz-adv-x="1054" 
d="M467 737l315 170l39 -86l-377 -200l-86 -465h635l-16 -156h-815l92 518l-137 -72l-39 86l196 105l142 797h178z" />
    <glyph glyph-name="lslash" unicode="&#x142;" horiz-adv-x="428" 
d="M-2 379l-33 86l275 141l163 930h164l-147 -838l278 144l31 -88l-330 -168l-102 -586h-164l86 494z" />
    <glyph glyph-name="Nacute" unicode="&#x143;" horiz-adv-x="1304" 
d="M162 0l254 1434h168l420 -1110h4l217 1110h172l-252 -1434h-172l-418 1087h-6l-215 -1087h-172zM872 1536l203 279h180l-262 -279h-121z" />
    <glyph glyph-name="nacute" unicode="&#x144;" 
d="M297 0h-164l162 922h147l-22 -160h4q52 75 132.5 127.5t174.5 52.5q175 0 236.5 -112.5t21.5 -346.5l-86 -483h-164l80 449q19 107 18.5 184t-40 120.5t-121.5 43.5q-87 0 -161.5 -78t-121.5 -201zM743 1094h-106l235 317h187z" />
    <glyph glyph-name="uni0145" unicode="&#x145;" horiz-adv-x="1304" 
d="M162 0l254 1434h168l420 -1110h4l217 1110h172l-252 -1434h-172l-418 1087h-6l-215 -1087h-172zM727 -57q-3 -117 -84.5 -207t-191.5 -105l14 88q136 49 141 224h121z" />
    <glyph glyph-name="uni0146" unicode="&#x146;" 
d="M133 0l162 922h147l-22 -160h4q52 75 132.5 127.5t174.5 52.5q175 0 236.5 -112.5t21.5 -346.5l-86 -483h-164l80 449q19 107 18.5 184t-40 120.5t-121.5 43.5q-87 0 -161.5 -78t-121.5 -201l-96 -518h-164zM580 -57q-3 -117 -84.5 -207t-192.5 -105l14 88
q60 21 99.5 75.5t42.5 148.5h121z" />
    <glyph glyph-name="Ncaron" unicode="&#x147;" horiz-adv-x="1304" 
d="M162 0l254 1434h168l420 -1110h4l217 1110h172l-252 -1434h-172l-418 1087h-6l-215 -1087h-172zM678 1800h129l129 -160h8l182 160h129l-260 -264h-137z" />
    <glyph glyph-name="ncaron" unicode="&#x148;" 
d="M297 0h-164l162 922h147l-22 -160h4q52 75 132.5 127.5t174.5 52.5q175 0 236.5 -112.5t21.5 -346.5l-86 -483h-164l80 449q19 107 18.5 184t-40 120.5t-121.5 43.5q-87 0 -161.5 -78t-121.5 -201zM623 1087l-156 318h108l134 -213h6l225 213h109l-285 -318h-141z" />
    <glyph glyph-name="napostrophe" unicode="&#x149;" horiz-adv-x="1101" 
d="M221 0l162 922h145l-22 -160h6q52 75 132.5 127.5t172.5 52.5q177 0 238.5 -112.5t21.5 -346.5l-86 -483h-164l78 449q20 107 20 184t-39.5 120.5t-121.5 43.5q-87 0 -162.5 -78.5t-122.5 -200.5l-94 -518h-164zM193 1042q115 239 161 494h117q-47 -257 -199 -494h-79z
" />
    <glyph glyph-name="Eng" unicode="&#x14a;" horiz-adv-x="1353" 
d="M164 0l305 1434h164l403 -1110h6l236 1110h168l-318 -1493q-48 -225 -162.5 -339t-326.5 -114q-49 0 -112 13.5t-91 27.5l58 143q23 -13 78.5 -25t99.5 -12q116 0 184.5 69t104.5 237l12 57l-406 1089h-6l-231 -1087h-166z" />
    <glyph glyph-name="eng" unicode="&#x14b;" 
d="M295 0h-160l195 922h143l-24 -160h6q54 75 135 127.5t174 52.5q175 0 232.5 -112.5t7.5 -346.5l-99 -456q-27 -127 -66 -221t-98.5 -166t-144.5 -109t-195 -37l29 139q126 0 199.5 96t118.5 308l88 412q21 106 21 183t-40 121t-123 44q-87 0 -163.5 -78.5t-124.5 -200.5z
" />
    <glyph glyph-name="Omacron" unicode="&#x14c;" horiz-adv-x="1429" 
d="M711 -20q-181 0 -299 93.5t-159 259.5t-3 384t137 384t250.5 259.5t333.5 93.5q181 0 299 -93.5t159 -259.5t3 -384t-137 -384t-250.5 -259.5t-333.5 -93.5zM438 717q-48 -260 27 -418t264 -158q190 0 326.5 158.5t187.5 417.5q26 127 18.5 232.5t-42.5 181.5
t-103.5 118.5t-163.5 42.5q-190 0 -326.5 -158t-187.5 -417zM1364 1595h-721l10 80h721z" />
    <glyph glyph-name="omacron" unicode="&#x14d;" horiz-adv-x="1013" 
d="M504 -16q-85 0 -153.5 30.5t-115 90.5t-63 149.5t3.5 206.5q40 225 180 351t316 126q84 0 152 -30.5t115 -90.5t63.5 -149.5t-3.5 -206.5q-19 -114 -68 -206t-116 -150.5t-146.5 -89.5t-164.5 -31zM344 461q-29 -153 16 -246.5t160 -93.5q117 0 199 93.5t112 246.5
q29 155 -15.5 248.5t-160.5 93.5q-115 1 -198 -93.5t-113 -248.5zM977 1104h-553l10 80h553z" />
    <glyph glyph-name="Obreve" unicode="&#x14e;" horiz-adv-x="1429" 
d="M711 -20q-181 0 -299 93.5t-159 259.5t-3 384t137 384t250.5 259.5t333.5 93.5q181 0 299 -93.5t159 -259.5t3 -384t-137 -384t-250.5 -259.5t-333.5 -93.5zM438 717q-48 -260 27 -418t264 -158q190 0 326.5 158.5t187.5 417.5q26 127 18.5 232.5t-42.5 181.5
t-103.5 118.5t-163.5 42.5q-190 0 -326.5 -158t-187.5 -417zM963 1499q-49 0 -93 13t-83 41t-60 82t-16 128h127q-3 -75 33 -116t104 -41q66 0 116.5 41t73.5 116h127q-17 -74 -53.5 -128t-84 -82t-95 -41t-96.5 -13z" />
    <glyph glyph-name="obreve" unicode="&#x14f;" horiz-adv-x="1013" 
d="M504 -16q-85 0 -153.5 30.5t-115 90.5t-63 149.5t3.5 206.5q40 225 180 351t316 126q84 0 152 -30.5t115 -90.5t63.5 -149.5t-3.5 -206.5q-19 -114 -68 -206t-116 -150.5t-146.5 -89.5t-164.5 -31zM344 461q-29 -153 16 -246.5t160 -93.5q117 0 199 93.5t112 246.5
q29 155 -15.5 248.5t-160.5 93.5q-115 1 -198 -93.5t-113 -248.5zM684 1061q-107 0 -172 67t-49 207h125q-9 -77 19 -123.5t93 -46.5t114 46.5t77 123.5h125q-40 -140 -132 -207t-200 -67z" />
    <glyph glyph-name="Ohungarumlaut" unicode="&#x150;" horiz-adv-x="1429" 
d="M711 -20q-181 0 -299 93.5t-159 259.5t-3 384t137 384t250.5 259.5t333.5 93.5q181 0 299 -93.5t159 -259.5t3 -384t-137 -384t-250.5 -259.5t-333.5 -93.5zM438 717q-48 -260 27 -418t264 -158q190 0 326.5 158.5t187.5 417.5q26 127 18.5 232.5t-42.5 181.5
t-103.5 118.5t-163.5 42.5q-190 0 -326.5 -158t-187.5 -417zM1061 1536l215 279h174l-262 -279h-127zM862 1536h-119l205 279h174z" />
    <glyph glyph-name="ohungarumlaut" unicode="&#x151;" horiz-adv-x="1013" 
d="M504 -16q-85 0 -153.5 30.5t-115 90.5t-63 149.5t3.5 206.5q40 225 180 351t316 126q84 0 152 -30.5t115 -90.5t63.5 -149.5t-3.5 -206.5q-19 -114 -68 -206t-116 -150.5t-146.5 -89.5t-164.5 -31zM344 461q-29 -153 16 -246.5t160 -93.5q117 0 199 93.5t112 246.5
q29 155 -15.5 248.5t-160.5 93.5q-115 1 -198 -93.5t-113 -248.5zM791 1094l237 317h176l-315 -317h-98zM610 1094h-94l217 317h160z" />
    <glyph glyph-name="OE" unicode="&#x152;" horiz-adv-x="1904" 
d="M788 -10q-202 0 -337 91.5t-186.5 259t-10.5 390.5q59 329 275.5 519t517.5 190q148 0 241 -6h740l-29 -156h-615l-84 -469h558l-25 -145h-559l-90 -508h616l-28 -156h-738q-155 -10 -246 -10zM440 731q-47 -264 60.5 -425t324.5 -161q121 0 183 9l198 1120
q-108 10 -180 10q-220 0 -381 -153t-205 -400z" />
    <glyph glyph-name="oe" unicode="&#x153;" horiz-adv-x="1554" 
d="M504 -16q-85 0 -152 30.5t-111.5 90.5t-58 149.5t10.5 206.5q25 114 77.5 206t121.5 150.5t149.5 89.5t165.5 31q103 0 178.5 -50t105.5 -145h4q69 94 167 144.5t202 50.5q59 0 105 -19t72.5 -52t39.5 -74.5t9.5 -88t-21.5 -92.5q-36 -94 -175 -160.5t-399 -84.5
q-1 -118 57.5 -185t164.5 -67q71 0 143.5 18.5t114.5 44.5l18 -110q-145 -84 -324 -84q-106 0 -183 51.5t-107 148.5h-7q-71 -98 -167 -149t-201 -51zM358 461q-32 -152 12.5 -246t161.5 -94t201 93.5t117 246.5q32 154 -11.5 248t-160.5 94q-117 1 -202 -93.5t-118 -248.5z
M1354 815q-71 0 -132 -30t-103 -80.5t-69.5 -112.5t-39.5 -131q393 35 444 178q24 69 -4 122t-96 54z" />
    <glyph glyph-name="Racute" unicode="&#x154;" horiz-adv-x="1169" 
d="M162 0l252 1423q37 3 97.5 8t87.5 7t73.5 4t97.5 2q113 0 199.5 -22.5t149 -70t86.5 -129t5 -192.5q-26 -141 -111.5 -237t-203.5 -142l-2 -6q47 -14 82.5 -56t56.5 -92.5t37 -124.5t22.5 -130t15 -132.5t13.5 -109.5h-194q-2 16 -4.5 57t-4.5 80.5t-9 92t-16.5 97.5
t-28 90.5t-43 77.5t-62 52t-84.5 20h-228l-104 -567h-180zM465 717h156q347 0 405 305q26 130 -45.5 201t-230.5 71q-84 0 -172 -10zM721 1536l201 279h180l-260 -279h-121z" />
    <glyph glyph-name="racute" unicode="&#x155;" horiz-adv-x="710" 
d="M133 0l162 922h145l-16 -158h6q53 80 147.5 131.5t206.5 38.5l-18 -152q-27 6 -57 6q-112 0 -191 -72.5t-119 -185.5l-102 -530h-164zM602 1094h-106l235 317h187z" />
    <glyph glyph-name="uni0156" unicode="&#x156;" horiz-adv-x="1169" 
d="M162 0l252 1423q37 3 97.5 8t87.5 7t73.5 4t97.5 2q113 0 199.5 -22.5t149 -70t86.5 -129t5 -192.5q-26 -141 -111.5 -237t-203.5 -142l-2 -6q47 -14 82.5 -56t56.5 -92.5t37 -124.5t22.5 -130t15 -132.5t13.5 -109.5h-194q-2 16 -4.5 57t-4.5 80.5t-9 92t-16.5 97.5
t-28 90.5t-43 77.5t-62 52t-84.5 20h-228l-104 -567h-180zM578 1284l-113 -567h156q347 0 405 305q26 130 -45.5 201t-230.5 71q-84 0 -172 -10zM686 -57q-3 -117 -84.5 -207t-191.5 -105l14 88q133 48 141 224h121z" />
    <glyph glyph-name="uni0157" unicode="&#x157;" horiz-adv-x="710" 
d="M133 0l162 922h145l-16 -158h6q53 80 147.5 131.5t206.5 38.5l-18 -152q-27 6 -57 6q-112 0 -191 -72.5t-119 -185.5l-102 -530h-164zM270 -57q-4 -117 -86 -207t-192 -105l14 88q136 49 144 224h120z" />
    <glyph glyph-name="Rcaron" unicode="&#x158;" horiz-adv-x="1169" 
d="M342 0h-180l252 1423q37 3 97.5 8t87.5 7t73.5 4t97.5 2q113 0 199.5 -22.5t149 -70t86.5 -129t5 -192.5q-26 -141 -111.5 -237t-203.5 -142l-2 -6q47 -14 82.5 -56t56.5 -92.5t37 -124.5t22.5 -130t15 -132.5t13.5 -109.5h-194q-2 16 -4.5 57t-4.5 80.5t-9 92
t-16.5 97.5t-28 90.5t-43 77.5t-62 52t-84.5 20h-228zM465 717h156q347 0 405 305q26 130 -45.5 201t-230.5 71q-84 0 -172 -10zM715 1536l-180 264h127l131 -160h8l182 160h127l-258 -264h-137z" />
    <glyph glyph-name="rcaron" unicode="&#x159;" horiz-adv-x="710" 
d="M297 0h-164l162 922h145l-16 -158h6q53 80 147.5 131.5t206.5 38.5l-18 -152q-27 6 -57 6q-112 0 -191 -72.5t-119 -185.5zM313 1405h107l133 -213h6l227 213h109l-287 -318h-139z" />
    <glyph glyph-name="Sacute" unicode="&#x15a;" horiz-adv-x="1140" 
d="M92 125l96 143q174 -127 371 -127q141 0 245.5 72t125.5 174q20 95 -47 156t-236 104q-192 47 -275.5 140t-54.5 266q30 179 174 285t340 106q235 0 416 -121l-96 -143q-67 48 -153.5 80t-176.5 32q-132 0 -217 -70t-106 -165q-21 -98 38 -152t203 -92
q109 -29 180.5 -61.5t122.5 -81t67 -116t-1 -159.5q-18 -103 -73 -183.5t-133.5 -128.5t-169 -72.5t-187.5 -24.5q-115 0 -242 38t-211 101zM913 1536h-122l202 279h181z" />
    <glyph glyph-name="sacute" unicode="&#x15b;" horiz-adv-x="841" 
d="M412 -14q-100 0 -180.5 24t-127.5 60l62 110q94 -67 252 -67q78 0 132 34.5t66 90.5q12 60 -25 97t-140 73q-112 34 -167.5 100.5t-37.5 167.5q21 127 121.5 195.5t242.5 68.5q169 0 271 -74l-60 -110q-32 24 -90 40.5t-125 16.5q-75 0 -130.5 -34.5t-67.5 -86.5
q-12 -60 17 -90t99 -55q152 -48 212 -118t40 -183q-13 -82 -67 -142t-130.5 -89t-166.5 -29zM668 1094h-107l236 317h186z" />
    <glyph glyph-name="Scircumflex" unicode="&#x15c;" horiz-adv-x="1140" 
d="M545 -14q-115 0 -242 38t-211 101l96 143q174 -127 371 -127q141 0 245.5 72t125.5 174q20 95 -47 156t-236 104q-192 47 -275.5 140t-54.5 266q30 179 174 285t340 106q235 0 416 -121l-96 -143q-67 48 -153.5 80t-176.5 32q-132 0 -217 -70t-106 -165q-21 -98 38 -152
t203 -92q109 -29 180.5 -61.5t122.5 -81t67 -116t-1 -159.5q-18 -103 -73 -183.5t-133.5 -128.5t-169 -72.5t-187.5 -24.5zM584 1536l260 264h137l178 -264h-127l-129 160h-8l-184 -160h-127z" />
    <glyph glyph-name="scircumflex" unicode="&#x15d;" horiz-adv-x="841" 
d="M104 70l62 110q94 -67 252 -67q78 0 132 34.5t66 90.5q12 60 -25 97t-140 73q-112 34 -167.5 100.5t-37.5 167.5q21 127 121.5 195.5t242.5 68.5q169 0 271 -74l-60 -110q-32 24 -90 40.5t-125 16.5q-75 0 -130.5 -34.5t-67.5 -86.5q-12 -60 17 -90t99 -55
q152 -48 212 -118t40 -183q-13 -82 -67 -142t-130.5 -89t-166.5 -29q-100 0 -180.5 24t-127.5 60zM342 1087l285 318h141l156 -318h-109l-131 213h-6l-227 -213h-109z" />
    <glyph glyph-name="Scedilla" unicode="&#x15e;" horiz-adv-x="1140" 
d="M92 125l96 143q174 -127 371 -127q141 0 245.5 72t125.5 174q20 95 -47 156t-236 104q-192 47 -275.5 140t-54.5 266q30 179 174 285t340 106q235 0 416 -121l-96 -143q-67 48 -153.5 80t-176.5 32q-132 0 -217 -70t-106 -165q-21 -98 38 -152t203 -92
q109 -29 180.5 -61.5t122.5 -81t67 -116t-1 -159.5q-17 -99 -69.5 -177.5t-127.5 -127t-162 -75t-180 -29.5l-28 -64q45 0 79.5 -32.5t26.5 -90.5q-9 -69 -73 -103t-162 -34q-44 0 -97 21l23 73q40 -20 86 -20q45 0 80.5 14.5t42.5 44.5q8 33 -16.5 49.5t-59.5 16.5l-14 26
l47 99q-109 8 -222.5 45t-189.5 94z" />
    <glyph glyph-name="scedilla" unicode="&#x15f;" horiz-adv-x="841" 
d="M375 -12q-88 4 -158.5 27t-112.5 55l62 110q94 -67 252 -67q78 0 132 34.5t66 90.5q12 60 -25 97t-140 73q-112 34 -167.5 100.5t-37.5 167.5q21 127 121.5 195.5t242.5 68.5q169 0 271 -74l-60 -110q-32 24 -90 40.5t-125 16.5q-75 0 -130.5 -34.5t-67.5 -86.5
q-12 -60 17 -90t99 -55q152 -48 212 -118t40 -183q-19 -117 -113 -184.5t-223 -73.5l-30 -66q45 0 80.5 -32.5t27.5 -90.5q-10 -69 -74.5 -103t-162.5 -34q-40 0 -97 21l25 73q40 -20 84 -20q45 0 81.5 14.5t43.5 44.5q7 34 -17 50t-59 16l-16 26z" />
    <glyph glyph-name="Scaron" unicode="&#x160;" horiz-adv-x="1140" 
d="M545 -14q-115 0 -242 38t-211 101l96 143q174 -127 371 -127q141 0 245.5 72t125.5 174q20 95 -47 156t-236 104q-192 47 -275.5 140t-54.5 266q30 179 174 285t340 106q235 0 416 -121l-96 -143q-67 48 -153.5 80t-176.5 32q-132 0 -217 -70t-106 -165q-21 -98 38 -152
t203 -92q109 -29 180.5 -61.5t122.5 -81t67 -116t-1 -159.5q-18 -103 -73 -183.5t-133.5 -128.5t-169 -72.5t-187.5 -24.5zM791 1536l-181 264h127l131 -160h6l185 160h127l-258 -264h-137z" />
    <glyph glyph-name="scaron" unicode="&#x161;" horiz-adv-x="841" 
d="M412 -14q-100 0 -180.5 24t-127.5 60l62 110q94 -67 252 -67q78 0 132 34.5t66 90.5q12 60 -25 97t-140 73q-112 34 -167.5 100.5t-37.5 167.5q21 127 121.5 195.5t242.5 68.5q169 0 271 -74l-60 -110q-32 24 -90 40.5t-125 16.5q-75 0 -130.5 -34.5t-67.5 -86.5
q-12 -60 17 -90t99 -55q152 -48 212 -118t40 -183q-13 -82 -67 -142t-130.5 -89t-166.5 -29zM399 1405h109l133 -213h4l227 213h109l-287 -318h-139z" />
    <glyph glyph-name="uni0162" unicode="&#x162;" horiz-adv-x="1218" 
d="M334 1278l16 156h1020l-18 -156h-422l-236 -1278h-67l-35 -78q45 0 79.5 -32.5t26.5 -90.5q-9 -69 -73 -103t-162 -34q-43 0 -96 21l22 73q40 -20 86 -20q45 0 80.5 14.5t42.5 44.5q8 33 -16.5 49.5t-59.5 16.5l-14 26l53 113h-45l234 1278h-416z" />
    <glyph glyph-name="uni0163" unicode="&#x163;" horiz-adv-x="669" 
d="M256 -338q-39 0 -96 21l24 73q40 -20 84 -20q45 0 81 14.5t42 44.5q8 33 -15.5 49.5t-58.5 16.5l-16 26l53 113q-152 42 -110 287l100 514h-111l11 94l121 27l88 262h112l-43 -262h236l-13 -121h-237l-98 -492q-9 -63 -8 -102.5t17 -62t35.5 -30.5t47.5 -8q59 0 108 35
l-12 -96q-21 -21 -74.5 -38t-93.5 -17q-2 0 -6 1t-6 1l-33 -70q45 0 80 -32.5t27 -90.5q-9 -69 -73.5 -103t-162.5 -34z" />
    <glyph glyph-name="Tcaron" unicode="&#x164;" horiz-adv-x="1218" 
d="M334 1278l16 156h1020l-18 -156h-422l-236 -1278h-178l234 1278h-416zM623 1800h127l131 -160h6l184 160h127l-260 -264h-137z" />
    <glyph glyph-name="tcaron" unicode="&#x165;" horiz-adv-x="1163" 
d="M430 -10q-235 0 -186 297l100 514h-111l11 94l121 27l88 262h112l-43 -262h236l-13 -121h-237l-98 -492q-9 -63 -8 -102.5t17 -62t35.5 -30.5t47.5 -8q59 0 108 35l-12 -96q-21 -21 -74.5 -38t-93.5 -17zM1057 1042h-80q114 227 162 494h116q-47 -259 -198 -494z" />
    <glyph glyph-name="Tbar" unicode="&#x166;" horiz-adv-x="1218" 
d="M297 705l12 79h350l91 494h-416l16 156h1020l-18 -156h-422l-92 -494h338l-13 -79h-340l-129 -705h-178l129 705h-348z" />
    <glyph glyph-name="tbar" unicode="&#x167;" horiz-adv-x="669" 
d="M188 532l9 80h110l37 189h-111l11 94l121 27l88 262h112l-43 -262h236l-13 -121h-237l-39 -189h201l-11 -80h-204l-45 -223q-9 -63 -8 -102.5t17 -62t35.5 -30.5t47.5 -8q59 0 108 35l-12 -96q-21 -21 -74.5 -38t-93.5 -17q-235 0 -186 297l49 245h-105z" />
    <glyph glyph-name="Utilde" unicode="&#x168;" horiz-adv-x="1214" 
d="M604 -16q-257 0 -341 162t-27 489l141 799h178l-143 -820q-51 -251 4.5 -367t208.5 -116q157 0 255.5 113t149.5 370l144 820h172l-142 -799q-57 -326 -199.5 -488.5t-400.5 -162.5zM692 1548h-96q23 85 76 140t139 55q37 0 65 -11.5t45 -28.5t32 -33.5t34 -28t43 -11.5
q45 0 72.5 29.5t40.5 71.5h98q-19 -84 -75 -141.5t-142 -57.5q-45 0 -78.5 17t-50 37t-41 37t-53.5 17q-76 0 -109 -92z" />
    <glyph glyph-name="utilde" unicode="&#x169;" 
d="M449 -20q-176 0 -236 120.5t-16 376.5l79 445h164l-80 -445q-20 -108 -19.5 -186t41 -122t122.5 -44q87 0 161 77.5t121 200.5l97 519h164l-162 -922h-148l23 160h-6q-52 -75 -132 -127.5t-173 -52.5zM385 1118q27 87 83.5 148t141.5 61q36 0 63 -13t43 -31.5t30 -37.5
t32.5 -32t42.5 -13q45 0 75.5 34.5t45.5 78.5h96q-23 -84 -84 -147.5t-147 -63.5q-36 0 -63 12.5t-43 31t-30 36.5t-32.5 30.5t-42.5 12.5q-72 0 -115 -107h-96z" />
    <glyph glyph-name="Umacron" unicode="&#x16a;" horiz-adv-x="1214" 
d="M604 -16q-257 0 -341 162t-27 489l141 799h178l-143 -820q-51 -251 4.5 -367t208.5 -116q157 0 255.5 113t149.5 370l144 820h172l-142 -799q-57 -326 -199.5 -488.5t-400.5 -162.5zM1255 1595h-720l10 80h721z" />
    <glyph glyph-name="umacron" unicode="&#x16b;" 
d="M449 -20q-176 0 -236 120.5t-16 376.5l79 445h164l-80 -445q-20 -108 -19.5 -186t41 -122t122.5 -44q87 0 161 77.5t121 200.5l97 519h164l-162 -922h-148l23 160h-6q-52 -75 -132 -127.5t-173 -52.5zM416 1104l10 80h553l-10 -80h-553z" />
    <glyph glyph-name="Ubreve" unicode="&#x16c;" horiz-adv-x="1214" 
d="M604 -16q-257 0 -341 162t-27 489l141 799h178l-143 -820q-51 -251 4.5 -367t208.5 -116q157 0 255.5 113t149.5 370l144 820h172l-142 -799q-57 -326 -199.5 -488.5t-400.5 -162.5zM877 1499q-50 0 -94 12.5t-83 41t-60 82.5t-17 128h129q-4 -74 32.5 -115.5
t104.5 -41.5q66 0 116.5 41t73.5 116h127q-17 -74 -53.5 -128t-84 -82t-95 -41t-96.5 -13z" />
    <glyph glyph-name="ubreve" unicode="&#x16d;" 
d="M449 -20q-176 0 -236 120.5t-16 376.5l79 445h164l-80 -445q-20 -108 -19.5 -186t41 -122t122.5 -44q87 0 161 77.5t121 200.5l97 519h164l-162 -922h-148l23 160h-6q-52 -75 -132 -127.5t-173 -52.5zM678 1061q-108 0 -173.5 67t-49.5 207h125q-8 -77 19.5 -123.5
t92.5 -46.5t114.5 46.5t78.5 123.5h123q-40 -140 -131.5 -207t-198.5 -67z" />
    <glyph glyph-name="Uring" unicode="&#x16e;" horiz-adv-x="1214" 
d="M604 -16q-257 0 -341 162t-27 489l141 799h178l-143 -820q-51 -251 4.5 -367t208.5 -116q157 0 255.5 113t149.5 370l144 820h172l-142 -799q-57 -326 -199.5 -488.5t-400.5 -162.5zM860 1466q-85 0 -139.5 59t-40.5 161q16 101 89 160t157 59q86 0 141 -58.5t41 -160.5
q-16 -101 -90 -160.5t-158 -59.5zM776 1686q-9 -56 17.5 -94t76.5 -38t91.5 38.5t50.5 93.5q11 57 -15.5 94t-78.5 37q-50 1 -90.5 -37t-51.5 -94z" />
    <glyph glyph-name="uring" unicode="&#x16f;" 
d="M449 -20q-176 0 -236 120.5t-16 376.5l79 445h164l-80 -445q-20 -108 -19.5 -186t41 -122t122.5 -44q87 0 161 77.5t121 200.5l97 519h164l-162 -922h-148l23 160h-6q-52 -75 -132 -127.5t-173 -52.5zM655 946q-86 0 -136.5 56.5t-31.5 158.5q21 100 95 157.5t159 57.5
q40 0 74.5 -14t59.5 -41t34.5 -67t-0.5 -93q-21 -101 -95 -158t-159 -57zM586 1161q-12 -55 11.5 -91t70.5 -36q50 0 91 36t54 91q12 54 -12.5 90.5t-71.5 36.5q-49 0 -90 -36.5t-53 -90.5z" />
    <glyph glyph-name="Uhungarumlaut" unicode="&#x170;" horiz-adv-x="1214" 
d="M604 -16q-257 0 -341 162t-27 489l141 799h178l-143 -820q-51 -251 4.5 -367t208.5 -116q157 0 255.5 113t149.5 370l144 820h172l-142 -799q-57 -326 -199.5 -488.5t-400.5 -162.5zM944 1536l215 279h174l-262 -279h-127zM745 1536h-118l204 279h175z" />
    <glyph glyph-name="uhungarumlaut" unicode="&#x171;" 
d="M449 -20q-176 0 -236 120.5t-16 376.5l79 445h164l-80 -445q-20 -108 -19.5 -186t41 -122t122.5 -44q87 0 161 77.5t121 200.5l97 519h164l-162 -922h-148l23 160h-6q-52 -75 -132 -127.5t-173 -52.5zM750 1094l237 317h176l-315 -317h-98zM475 1094l217 317h160
l-283 -317h-94z" />
    <glyph glyph-name="Uogonek" unicode="&#x172;" horiz-adv-x="1214" 
d="M604 -16q-257 0 -341 162t-27 489l141 799h178l-143 -820q-51 -251 4.5 -367t208.5 -116q157 0 255.5 113t149.5 370l144 820h172l-142 -799q-49 -283 -163 -443.5t-312 -197.5q-39 -21 -75 -64t-44 -90q-8 -37 7.5 -55t39.5 -18q26 0 54 16l-15 -82q-33 -20 -75 -20
q-60 0 -94 34t-21 105q16 85 110 164h-12z" />
    <glyph glyph-name="uogonek" unicode="&#x173;" 
d="M449 -20q-176 0 -236 120.5t-16 376.5l79 445h164l-80 -445q-20 -108 -19.5 -186t41 -122t122.5 -44q87 0 161 77.5t121 200.5l97 519h164l-162 -922h-8q-39 0 -92 -52t-64 -112q-8 -38 7.5 -56t39.5 -18q30 0 53 15l-14 -82q-32 -19 -76 -19q-60 0 -94 34.5t-21 105.5
q19 98 140 184h-19l23 160h-6q-52 -75 -132 -127.5t-173 -52.5z" />
    <glyph glyph-name="Wcircumflex" unicode="&#x174;" horiz-adv-x="2052" 
d="M516 0l-240 1434h191l184 -1194h4l574 1194h137l102 -1186h7l622 1186h172l-741 -1434h-197l-86 1075h-6l-520 -1075h-203zM1145 1536h-127l260 264h137l178 -264h-127l-129 160h-8z" />
    <glyph glyph-name="wcircumflex" unicode="&#x175;" horiz-adv-x="1359" 
d="M319 0l-129 922h183l73 -756h5l317 737h166l31 -737h6l368 756h158l-446 -922h-209l-21 686h-6l-301 -686h-195zM578 1087l284 318h139l156 -318h-106l-133 213h-7l-227 -213h-106z" />
    <glyph glyph-name="Ycircumflex" unicode="&#x176;" horiz-adv-x="1224" 
d="M332 1434h190l232 -586h6l471 588l170 -2l-576 -732l-123 -702h-184l123 692zM717 1536h-129l260 264h137l180 -264h-129l-129 160h-6z" />
    <glyph glyph-name="ycircumflex" unicode="&#x177;" horiz-adv-x="899" 
d="M-66 -512l19 147h45q126 0 242.5 103t189.5 266l-240 918h181l164 -715h6l346 715h149l-432 -902q-129 -268 -279.5 -400t-342.5 -132h-48zM358 1087l285 318h139l158 -318h-109l-133 213h-6l-227 -213h-107z" />
    <glyph glyph-name="Ydieresis" unicode="&#x178;" horiz-adv-x="1224" 
d="M332 1434h190l232 -586h6l471 588l170 -2l-576 -732l-123 -702h-184l123 692zM1085 1567q-45 0 -74 33t-24 79q6 47 42.5 81t82.5 34q43 0 71.5 -34t22.5 -81q-4 -45 -41 -78.5t-80 -33.5zM688 1567q-44 0 -73 33t-23 79q4 47 41 81t82 34q44 0 72 -34t22 -81
q-4 -46 -40.5 -79t-80.5 -33z" />
    <glyph glyph-name="Zacute" unicode="&#x179;" horiz-adv-x="1236" 
d="M424 1434h911l-18 -166l-955 -1100l-2 -6h723l-18 -162h-946l18 166l961 1102l2 6h-694zM1006 1815h180l-262 -279h-121z" />
    <glyph glyph-name="zacute" unicode="&#x17a;" horiz-adv-x="794" 
d="M270 922h613l-17 -138l-577 -657l-2 -6h448l-14 -121h-647l18 133l588 662l2 6h-426zM760 1411h188l-315 -317h-107z" />
    <glyph glyph-name="Zdotaccent" unicode="&#x17b;" horiz-adv-x="1236" 
d="M119 0l18 166l961 1102l2 6h-694l18 160h911l-18 -166l-955 -1100l-2 -6h723l-18 -162h-946zM897 1567q-44 0 -72.5 33t-23.5 79q6 47 42.5 81t80.5 34t72.5 -34t23.5 -81q-6 -46 -42.5 -79t-80.5 -33z" />
    <glyph glyph-name="zdotaccent" unicode="&#x17c;" horiz-adv-x="794" 
d="M74 0l18 133l588 662l2 6h-426l14 121h613l-17 -138l-577 -657l-2 -6h448l-14 -121h-647zM596 1110q-45 0 -73.5 33t-22.5 78q8 47 43.5 79.5t85.5 32.5q46 0 74 -33t22 -79q-8 -46 -44.5 -78.5t-84.5 -32.5z" />
    <glyph glyph-name="Zcaron" unicode="&#x17d;" horiz-adv-x="1236" 
d="M119 0l18 166l961 1102l2 6h-694l18 160h911l-18 -166l-955 -1100l-2 -6h723l-18 -162h-946zM639 1800h129l129 -160h8l182 160h130l-261 -264h-137z" />
    <glyph glyph-name="zcaron" unicode="&#x17e;" horiz-adv-x="794" 
d="M721 0h-647l18 133l588 662l2 6h-426l14 121h613l-17 -138l-577 -657l-2 -6h448zM360 1405h109l131 -213h6l228 213h108l-287 -318h-139z" />
    <glyph glyph-name="longs" unicode="&#x17f;" horiz-adv-x="663" 
d="M-158 -508h-35l29 143h35q136 0 206 84t105 287l187 1051q42 243 156.5 361t275.5 118q102 0 174 -37l-27 -143q-71 41 -147 41q-116 0 -181 -96.5t-98 -282.5l-180 -1012q-22 -127 -57.5 -218t-93.5 -159.5t-144.5 -102.5t-204.5 -34z" />
    <glyph glyph-name="uni018F" unicode="&#x18f;" horiz-adv-x="1417" 
d="M676 -6q-252 0 -355 196t-18 519h914q15 88 14.5 170.5t-26.5 155.5t-69 127t-112.5 85t-157.5 31q-174 0 -344 -92l-26 133q217 125 440 125q281 0 412 -206t57 -552q-28 -133 -82 -245.5t-124.5 -194t-155.5 -139t-178 -85.5t-189 -28zM459 569q-34 -178 33 -289.5
t217 -111.5q162 -2 297 112.5t176 288.5h-723z" />
    <glyph glyph-name="florin" unicode="&#x192;" horiz-adv-x="663" 
d="M-158 -508h-35l29 143h35q40 0 75.5 12t63 30t52 49t41.5 60t33.5 73.5t26 77.5t20.5 83.5t16.5 81.5t14.5 81t13 73l95 545h-134l21 108l135 13l25 135q42 243 156.5 361t275.5 118q102 0 174 -37l-27 -143q-71 41 -147 41q-116 0 -181 -96.5t-98 -282.5l-16 -96h266
l-22 -121h-267l-96 -545q-45 -247 -72 -342q-77 -263 -230 -358q-101 -64 -243 -64z" />
    <glyph glyph-name="uni019D" unicode="&#x19d;" horiz-adv-x="1304" 
d="M-170 -508q-49 0 -113 13.5t-90 27.5l58 143q23 -13 78 -24.5t98 -11.5q119 0 188 72.5t109 260.5l311 1461h164l403 -1110h6l236 1110h168l-305 -1434h-168l-406 1087h-6l-235 -1114q-53 -245 -167.5 -363t-328.5 -118z" />
    <glyph glyph-name="Gcaron" unicode="&#x1e6;" horiz-adv-x="1312" 
d="M774 -20q-297 0 -439.5 203t-80.5 554q39 219 153 380t277.5 244t357.5 83q225 0 406 -96l-78 -144q-69 39 -158 62.5t-178 23.5q-224 0 -381.5 -146.5t-208.5 -406.5q-54 -282 40.5 -443t306.5 -161q140 0 290 72l78 377h-293l17 137h448l-102 -613
q-108 -59 -228.5 -92.5t-226.5 -33.5zM809 1800h129l129 -160h8l182 160h129l-260 -264h-137z" />
    <glyph glyph-name="gcaron" unicode="&#x1e7;" horiz-adv-x="1019" 
d="M-6 -424l74 129q40 -33 120.5 -55.5t159.5 -22.5q306 0 387 424l23 109h-6q-131 -176 -316 -176q-74 0 -133 24.5t-103 76.5t-57.5 133.5t4.5 195.5q27 154 115 275t210 185t255 64q117 0 320 -33l-152 -854q-20 -121 -60 -218.5t-104.5 -176t-163.5 -121.5t-225 -43
q-99 0 -199 25t-149 59zM319 426q-28 -144 18.5 -227.5t160.5 -83.5q72 0 139.5 52.5t109.5 126t56 146.5l69 353q-108 16 -153 16q-145 0 -256.5 -113t-143.5 -270zM514 1405h109l133 -213h6l225 213h109l-285 -318h-141z" />
    <glyph glyph-name="uni01EA" unicode="&#x1ea;" horiz-adv-x="1429" 
d="M711 -20q-181 0 -299 93.5t-159 259.5t-3 384t137 384t250.5 259.5t333.5 93.5q181 0 299 -93.5t159 -259.5t3 -384q-51 -290 -207.5 -484t-382.5 -241q-40 -16 -78.5 -61.5t-48.5 -94.5q-8 -38 7.5 -56t39.5 -18q30 0 53 15l-14 -82q-32 -19 -76 -19q-60 0 -94 34.5
t-21 105.5q16 82 113 164h-12zM438 717q-48 -260 27 -418t264 -158q190 0 326.5 158.5t187.5 417.5q26 127 18.5 232.5t-42.5 181.5t-103.5 118.5t-163.5 42.5q-190 0 -326.5 -158t-187.5 -417z" />
    <glyph glyph-name="uni01EB" unicode="&#x1eb;" horiz-adv-x="1013" 
d="M485 -16q-81 3 -146 35t-109 92t-59 148t5 202q40 225 180 351t316 126q84 0 152 -30.5t115 -90.5t63.5 -149.5t-3.5 -206.5q-31 -183 -131 -301.5t-237 -157.5v-2h-6q-9 -3 -21 -6q-40 -15 -80.5 -61t-50.5 -97q-8 -38 7.5 -56t39.5 -18q30 0 53 15l-14 -82
q-32 -19 -76 -19q-60 0 -93.5 34t-20.5 106q16 87 116 168zM344 461q-29 -153 16 -246.5t160 -93.5q117 0 199 93.5t112 246.5q29 155 -15.5 248.5t-160.5 93.5q-115 1 -198 -93.5t-113 -248.5z" />
    <glyph glyph-name="Aringacute" unicode="&#x1fa;" horiz-adv-x="1259" 
d="M231 0h-165l765 1440h113l252 -1440h-188l-45 322h-557zM889 1466q-86 0 -141 59.5t-39 160.5q16 102 88.5 160.5t156.5 58.5q80 0 133 -50l170 125l86 -106l-208 -115q6 -34 0 -73q-14 -101 -87.5 -160.5t-158.5 -59.5zM838 1116l-369 -657h465l-92 657h-4zM805 1686
q-9 -56 17 -94t75 -38q51 0 91.5 38t51.5 94q9 58 -17 94.5t-79 36.5q-50 1 -90 -37t-49 -94z" />
    <glyph glyph-name="aringacute" unicode="&#x1fb;" horiz-adv-x="1050" 
d="M463 -16q-73 0 -132 24.5t-103.5 76.5t-58 133.5t4.5 195.5q27 154 115 275t210 185t255 64q32 0 65.5 -1.5t56.5 -3.5t56.5 -6.5t47.5 -6.5t49.5 -8t43.5 -7l-125 -680q-25 -170 -16 -225h-162q-2 50 18 160h-6q-126 -176 -319 -176zM346 426q-28 -145 18.5 -228
t161.5 -83q105 0 192.5 104.5t108.5 220.5l70 353q-108 16 -152 16q-145 0 -256 -113t-143 -270zM766 946q-86 0 -136.5 56.5t-29.5 158.5q19 100 93.5 157.5t158.5 57.5q23 0 35 -2l186 254h187l-289 -291q72 -62 49 -176q-21 -101 -95 -158t-159 -57zM696 1161
q-12 -55 11.5 -91t70.5 -36q50 0 92 36t54 91q12 54 -12.5 90.5t-71.5 36.5q-49 0 -90.5 -36.5t-53.5 -90.5z" />
    <glyph glyph-name="AEacute" unicode="&#x1fc;" horiz-adv-x="1857" 
d="M240 0h-174l1028 1434h888l-18 -156h-614l-99 -469h557l-16 -145h-557l-105 -508h617l-18 -156h-795l63 322h-520zM561 459h453l155 819h-4zM1554 1536h-120l200 279h183z" />
    <glyph glyph-name="aeacute" unicode="&#x1fd;" horiz-adv-x="1472" 
d="M420 -20q-145 0 -215.5 84.5t-46.5 203.5q17 77 65.5 137t115.5 94.5t141.5 52t152.5 17.5h151v6q20 117 -17.5 173.5t-139.5 56.5q-123 0 -262 -80l-33 111q192 102 354 102q105 0 169 -43.5t79 -120.5h4q66 81 155.5 122.5t184.5 41.5q126 0 187 -72.5t38 -173.5
q-10 -46 -37.5 -82.5t-63 -60t-86.5 -40.5t-96.5 -25.5t-105.5 -13t-101.5 -5.5t-94.5 0q-34 -157 24 -253.5t182 -96.5q70 0 148 19t119 44l18 -110q-145 -84 -324 -84q-97 0 -173.5 41.5t-116.5 121.5h-4q-68 -68 -164 -117.5t-207 -49.5zM332 283q-19 -83 22.5 -131
t128.5 -48q70 0 151.5 45t125.5 97q-18 101 10 215h-141q-50 0 -96.5 -10.5t-88.5 -31t-72 -55.5t-40 -81zM938 571v-4q229 1 325 31t111 100q9 47 -21.5 81.5t-86.5 35.5q-110 0 -198 -70t-130 -174zM911 1094l234 317h186l-315 -317h-105z" />
    <glyph glyph-name="Oslashacute" unicode="&#x1fe;" horiz-adv-x="1429" 
d="M389 90q-103 96 -139 258t0 369q38 218 137 384t250.5 259.5t333.5 93.5q197 0 323 -113l105 144h82l-142 -195q77 -99 101 -245t-8 -328q-38 -218 -137 -384t-250.5 -259.5t-333.5 -93.5q-157 0 -269 71l-71 -102h-84zM500 242l684 948q-79 102 -232 102
q-190 0 -326.5 -158t-187.5 -417q-30 -153 -14 -276.5t76 -198.5zM1221 1126l-674 -931q76 -54 182 -54q190 0 326.5 158.5t187.5 417.5q48 257 -22 409zM922 1536l202 279h181l-261 -279h-122z" />
    <glyph glyph-name="oslashacute" unicode="&#x1ff;" horiz-adv-x="1013" 
d="M305 39l-84 -109l-51 31l90 115q-131 134 -84 385q40 225 180 351t316 126q124 0 209 -64l86 111l49 -31l-92 -118q119 -132 75 -375q-19 -114 -68 -206t-116 -150.5t-146.5 -89.5t-164.5 -31q-117 0 -199 55zM362 209l424 545q-49 49 -131 49q-115 1 -198 -93.5
t-113 -248.5q-29 -167 18 -252zM819 700l-420 -538q47 -41 121 -41q117 0 199 93.5t112 246.5q28 151 -12 239zM635 1094l233 317h189l-316 -317h-106z" />
    <glyph glyph-name="uni0218" unicode="&#x218;" horiz-adv-x="1140" 
d="M545 -14q-115 0 -242 38t-211 101l96 143q174 -127 371 -127q141 0 245.5 72t125.5 174q20 95 -47 156t-236 104q-192 47 -275.5 140t-54.5 266q30 179 174 285t340 106q235 0 416 -121l-96 -143q-67 48 -153.5 80t-176.5 32q-132 0 -217 -70t-106 -165q-21 -98 38 -152
t203 -92q109 -29 180.5 -61.5t122.5 -81t67 -116t-1 -159.5q-18 -103 -73 -183.5t-133.5 -128.5t-169 -72.5t-187.5 -24.5zM332 -369l14 88q59 21 99 75.5t44 148.5h121q-4 -117 -86 -207t-192 -105z" />
    <glyph glyph-name="uni0219" unicode="&#x219;" horiz-adv-x="841" 
d="M104 70l62 110q94 -67 252 -67q78 0 132 34.5t66 90.5q12 60 -25 97t-140 73q-112 34 -167.5 100.5t-37.5 167.5q21 127 121.5 195.5t242.5 68.5q169 0 271 -74l-60 -110q-32 24 -90 40.5t-125 16.5q-75 0 -130.5 -34.5t-67.5 -86.5q-12 -60 17 -90t99 -55
q152 -48 212 -118t40 -183q-13 -82 -67 -142t-130.5 -89t-166.5 -29q-100 0 -180.5 24t-127.5 60zM473 -57q-3 -117 -84.5 -207t-191.5 -105l14 88q133 48 141 224h121z" />
    <glyph glyph-name="uni021A" unicode="&#x21a;" horiz-adv-x="1218" 
d="M750 1278h-416l16 156h1020l-18 -156h-422l-236 -1278h-178zM666 -57q-3 -117 -85.5 -207t-193.5 -105l14 88q136 49 144 224h121z" />
    <glyph glyph-name="uni021B" unicode="&#x21b;" horiz-adv-x="669" 
d="M430 -10q-235 0 -186 297l100 514h-111l11 94l121 27l88 262h112l-43 -262h236l-13 -121h-237l-98 -492q-9 -63 -8 -102.5t17 -62t35.5 -30.5t47.5 -8q59 0 108 35l-12 -96q-21 -21 -74.5 -38t-93.5 -17zM477 -57q-3 -117 -85 -207t-193 -105l14 88q135 47 143 224h121z
" />
    <glyph glyph-name="uni0232" unicode="&#x232;" horiz-adv-x="1224" 
d="M332 1434h190l232 -586h6l471 588l170 -2l-576 -732l-123 -702h-184l123 692zM537 1595l10 80h719l-9 -80h-720z" />
    <glyph glyph-name="uni0233" unicode="&#x233;" horiz-adv-x="899" 
d="M-18 -512h-48l19 147h45q126 0 242.5 103t189.5 266l-240 918h181l164 -715h6l346 715h149l-432 -902q-129 -268 -279.5 -400t-342.5 -132zM922 1104h-555l10 80h555z" />
    <glyph glyph-name="uni0237" unicode="&#x237;" horiz-adv-x="405" 
d="M-246 -508l27 143h35q138 0 208 86t107 295l160 906h162l-164 -916q-22 -127 -57.5 -218t-93.5 -159.5t-144.5 -102.5t-204.5 -34h-35z" />
    <glyph glyph-name="uni0259" unicode="&#x259;" horiz-adv-x="995" 
d="M469 0q-174 0 -244 135t-10 352h612q31 153 -27.5 244.5t-183.5 91.5q-68 0 -141.5 -19t-116.5 -44l-18 110q145 84 324 84q174 0 269 -128t50 -349q-49 -226 -194 -351.5t-320 -125.5zM334 375q-22 -111 23 -178.5t141 -67.5q103 -1 183.5 68.5t115.5 177.5h-463z" />
    <glyph glyph-name="uni0272" unicode="&#x272;" horiz-adv-x="1028" 
d="M313 27q-27 -127 -67 -221t-99.5 -166t-144.5 -109t-195 -37l29 139q128 0 201.5 96t118.5 308l186 885h143l-24 -160h6q54 75 135 127.5t174 52.5q175 0 232.5 -112.5t7.5 -346.5l-103 -483h-159l94 449q21 106 21.5 183t-39.5 121t-123 44q-87 0 -163 -78t-126 -201z
" />
    <glyph glyph-name="circumflex" unicode="&#x2c6;" horiz-adv-x="882" 
d="M342 1087l285 318h141l156 -318h-109l-133 213h-6l-225 -213h-109z" />
    <glyph glyph-name="caron" unicode="&#x2c7;" horiz-adv-x="882" 
d="M551 1087l-156 318h109l133 -213h4l227 213h109l-287 -318h-139z" />
    <glyph glyph-name="breve" unicode="&#x2d8;" horiz-adv-x="1013" 
d="M684 1061q-107 0 -172 67t-49 207h125q-9 -77 19 -123.5t93 -46.5t114 46.5t77 123.5h125q-40 -140 -132.5 -207t-199.5 -67z" />
    <glyph glyph-name="dotaccent" unicode="&#x2d9;" horiz-adv-x="471" 
d="M434 1110q-47 0 -75.5 33t-22.5 78q8 47 44.5 79.5t86.5 32.5q44 0 72 -33t22 -79q-6 -45 -43 -78t-84 -33z" />
    <glyph glyph-name="ring" unicode="&#x2da;" horiz-adv-x="636" 
d="M475 946q-86 0 -136.5 56.5t-31.5 158.5q21 100 95 157.5t159 57.5q40 0 74.5 -14t59.5 -41t34.5 -67t-0.5 -93q-21 -101 -95 -158t-159 -57zM406 1161q-12 -55 11 -91t70 -36q50 0 91.5 36t54.5 91q12 54 -12.5 90.5t-71.5 36.5q-49 0 -90 -36.5t-53 -90.5z" />
    <glyph glyph-name="ogonek" unicode="&#x2db;" horiz-adv-x="473" 
d="M223 -324q-58 0 -91.5 34.5t-20.5 105.5q14 70 80 134.5t126 86.5h62l-8 -37q-39 0 -92 -52t-66 -112q-7 -38 8 -56t39 -18q29 0 55 15l-14 -82q-32 -19 -78 -19z" />
    <glyph glyph-name="tilde" unicode="&#x2dc;" horiz-adv-x="868" 
d="M414 1118h-97q27 86 84.5 147.5t141.5 61.5q37 0 64 -13t43 -31.5t29.5 -37.5t32 -32t42.5 -13q44 0 74.5 34t45.5 79h99q-23 -84 -85 -147.5t-147 -63.5q-37 0 -64.5 12.5t-43.5 31t-30 36.5t-32.5 30.5t-42.5 12.5q-31 0 -55.5 -19t-35.5 -39t-23 -49z" />
    <glyph glyph-name="hungarumlaut" unicode="&#x2dd;" horiz-adv-x="907" 
d="M709 1094l237 317h174l-315 -317h-96zM434 1094l217 317h160l-283 -317h-94z" />
    <glyph glyph-name="uni0326" unicode="&#x326;" horiz-adv-x="532" 
d="M84 -369l14 88q136 49 144 224h120q-4 -117 -86 -207t-192 -105z" />
    <glyph glyph-name="uni0394" unicode="&#x394;" horiz-adv-x="1269" 
d="M90 0l43 100l1055 1340h125l-92 -1340l-43 -100h-1088zM315 131h721l76 1024h-6z" />
    <glyph glyph-name="uni03A9" unicode="&#x3a9;" horiz-adv-x="1419" 
d="M637 0h-557l55 131h391q-189 369 -47 707q120 278 354 447t500 169q174 0 276.5 -77.5t115 -214t-63.5 -324.5q-145 -339 -647 -707h381l-56 -131h-559l58 131q226 157 396 337.5t243 350.5q91 217 34.5 350.5t-243.5 133.5q-186 0 -356.5 -133.5t-262.5 -350.5
q-70 -173 -57 -350.5t102 -335.5z" />
    <glyph glyph-name="uni03BC" unicode="&#x3bc;" horiz-adv-x="1007" 
d="M41 -410l238 1332h151l-78 -439q-17 -109 -13 -188.5t46.5 -124.5t122.5 -45q87 0 164.5 81t120.5 204l92 512h151l-164 -922h-131l17 160h-4q-46 -75 -119 -127.5t-162 -52.5q-139 0 -188 96h-4l-86 -486h-154z" />
    <glyph glyph-name="pi" unicode="&#x3c0;" horiz-adv-x="1112" 
d="M141 -14q27 56 81.5 233.5t90.5 345.5l47 221h-135l23 107l153 14h662q116 0 172 27l-25 -115q-21 -15 -71 -24t-101 -9h-16l-115 -538q-18 -87 10 -119.5t84 -32.5l-24 -116q-26 -4 -51 -4.5t-53 3.5t-50.5 14.5t-43.5 29t-31.5 46.5t-13.5 67t9 91l119 559h-352
l-47 -221q-34 -165 -85.5 -341.5t-76.5 -237.5h-160z" />
    <glyph glyph-name="Wgrave" unicode="&#x1e80;" horiz-adv-x="2052" 
d="M516 0l-240 1434h191l184 -1194h4l574 1194h137l102 -1186h7l622 1186h172l-741 -1434h-197l-86 1075h-6l-520 -1075h-203zM1247 1536l-176 279h172l115 -279h-111z" />
    <glyph glyph-name="wgrave" unicode="&#x1e81;" horiz-adv-x="1359" 
d="M319 0l-129 922h183l73 -756h5l317 737h166l31 -737h6l368 756h158l-446 -922h-209l-21 686h-6l-301 -686h-195zM823 1094l-270 317h182l191 -317h-103z" />
    <glyph glyph-name="Wacute" unicode="&#x1e82;" horiz-adv-x="2052" 
d="M516 0l-240 1434h191l184 -1194h4l574 1194h137l102 -1186h7l622 1186h172l-741 -1434h-197l-86 1075h-6l-520 -1075h-203zM1274 1536l203 279h180l-262 -279h-121z" />
    <glyph glyph-name="wacute" unicode="&#x1e83;" horiz-adv-x="1359" 
d="M319 0l-129 922h183l73 -756h5l317 737h166l31 -737h6l368 756h158l-446 -922h-209l-21 686h-6l-301 -686h-195zM922 1094h-107l234 317h186z" />
    <glyph glyph-name="Wdieresis" unicode="&#x1e84;" horiz-adv-x="2052" 
d="M516 0l-240 1434h191l184 -1194h4l574 1194h137l102 -1186h7l622 1186h172l-741 -1434h-197l-86 1075h-6l-520 -1075h-203zM1507 1567q-45 0 -74 33t-24 79q6 47 42.5 81t82.5 34q43 0 71.5 -34t22.5 -81q-4 -45 -41 -78.5t-80 -33.5zM1110 1567q-46 0 -74 33t-22 79
q4 47 40.5 81t82.5 34q44 0 72 -34t22 -81q-4 -45 -41 -78.5t-80 -33.5z" />
    <glyph glyph-name="wdieresis" unicode="&#x1e85;" horiz-adv-x="1359" 
d="M319 0l-129 922h183l73 -756h5l317 737h166l31 -737h6l368 756h158l-446 -922h-209l-21 686h-6l-301 -686h-195zM1053 1112q-46 0 -75.5 33t-23.5 76q5 47 40 79.5t85 32.5q46 0 75.5 -33t23.5 -79q-6 -44 -41.5 -76.5t-83.5 -32.5zM713 1112q-47 0 -76.5 33t-24.5 76
q6 47 41.5 79.5t85.5 32.5q45 0 74 -33.5t23 -78.5q-5 -44 -41 -76.5t-82 -32.5z" />
    <glyph glyph-name="Germandbls" unicode="&#x1e9e;" horiz-adv-x="1290" 
d="M338 0h-174l225 1065q35 159 147.5 264t264.5 105h631l-29 -134q-27 -22 -86.5 -67.5t-90.5 -71.5t-71 -65t-62 -77t-30 -79q-11 -50 0.5 -96t37.5 -81.5t59 -75t65.5 -76.5t57 -85.5t33 -102t-6.5 -126.5q-28 -130 -152.5 -220.5t-271.5 -90.5q-101 0 -185.5 21
t-128.5 52l86 146q34 -28 99 -49t131 -21q90 0 161.5 57t84.5 125q11 53 -5 103t-47.5 88.5t-69 84t-68 89.5t-44.5 104.5t0 128.5q34 159 305 363v6h-407q-86 0 -149 -63t-83 -156z" />
    <glyph glyph-name="uni1EA0" unicode="&#x1ea0;" horiz-adv-x="1259" 
d="M231 0h-165l765 1440h113l252 -1440h-188l-45 322h-557zM838 1116l-369 -657h465l-92 657h-4zM565 -346q-45 0 -74 34t-24 79q6 47 42.5 80.5t82.5 33.5q43 0 71.5 -33.5t22.5 -80.5q-4 -44 -41 -78.5t-80 -34.5z" />
    <glyph glyph-name="uni1EA1" unicode="&#x1ea1;" horiz-adv-x="1050" 
d="M463 -16q-73 0 -132 24.5t-103.5 76.5t-58 133.5t4.5 195.5q27 154 115 275t210 185t255 64q32 0 65.5 -1.5t56.5 -3.5t56.5 -6.5t47.5 -6.5t49.5 -8t43.5 -7l-125 -680q-25 -170 -16 -225h-162q-2 50 18 160h-6q-126 -176 -319 -176zM346 426q-28 -145 18.5 -228
t161.5 -83q105 0 192.5 104.5t108.5 220.5l70 353q-108 16 -152 16q-145 0 -256 -113t-143 -270zM487 -344q-45 0 -73.5 33t-22.5 78q6 47 42.5 78.5t86.5 31.5q46 0 74 -32t22 -78q-8 -46 -44.5 -78.5t-84.5 -32.5z" />
    <glyph glyph-name="uni1EB8" unicode="&#x1eb8;" horiz-adv-x="1085" 
d="M956 0h-794l254 1434h792l-16 -156h-614l-99 -469h557l-16 -145h-557l-105 -508h617zM516 -346q-45 0 -74 34t-24 79q6 47 42.5 80.5t82.5 33.5q43 0 71.5 -33.5t22.5 -80.5q-4 -44 -41 -78.5t-80 -34.5z" />
    <glyph glyph-name="uni1EB9" unicode="&#x1eb9;" horiz-adv-x="946" 
d="M532 -16q-176 0 -275.5 128t-61.5 349q20 115 69 207t116.5 150t146.5 89t163 31q60 0 107.5 -18.5t76 -50t43 -73t12.5 -88.5t-20 -94q-15 -45 -53.5 -84t-104.5 -74.5t-170.5 -60t-238.5 -33.5q0 -117 59.5 -182t165.5 -65q69 0 141.5 18.5t114.5 44.5l29 -110
q-141 -84 -320 -84zM352 465q189 17 298 62t134 112q24 68 -3 121.5t-93 54.5q-68 0 -127 -31t-100.5 -82t-69 -111.5t-39.5 -125.5zM471 -344q-47 0 -75.5 33t-22.5 78q8 47 44.5 78.5t86.5 31.5q44 0 72 -32t22 -78q-6 -45 -42.5 -78t-84.5 -33z" />
    <glyph glyph-name="uni1EBC" unicode="&#x1ebc;" horiz-adv-x="1085" 
d="M162 0l254 1434h792l-16 -156h-614l-99 -469h557l-16 -145h-557l-105 -508h617l-19 -156h-794zM569 1548q23 84 76 139.5t137 55.5q37 0 65 -11.5t45 -28.5t32 -33.5t34 -28t43 -11.5q45 0 74 29.5t41 71.5h96q-19 -84 -75 -141.5t-142 -57.5q-36 0 -64.5 11t-46 27
t-33 32t-35.5 27t-44 11q-77 0 -106 -92h-97z" />
    <glyph glyph-name="uni1EBD" unicode="&#x1ebd;" horiz-adv-x="917" 
d="M532 -16q-176 0 -275.5 128t-61.5 349q20 115 69 207t116.5 150t146.5 89t163 31q60 0 107.5 -18.5t76 -50t43 -73t12.5 -88.5t-20 -94q-15 -45 -53.5 -84t-104.5 -74.5t-170.5 -60t-238.5 -33.5q0 -117 59.5 -182t165.5 -65q69 0 141.5 18.5t114.5 44.5l29 -110
q-141 -84 -320 -84zM352 465q189 17 298 62t134 112q24 68 -3 121.5t-93 54.5q-68 0 -127 -31t-100.5 -82t-69 -111.5t-39.5 -125.5zM412 1118q27 87 83.5 148t141.5 61q36 0 63 -13t43 -31.5t30 -37.5t32.5 -32t42.5 -13q42 0 73 34t48 79h96q-23 -84 -84 -147.5
t-147 -63.5q-37 0 -64.5 12.5t-43.5 31t-30 36.5t-32.5 30.5t-42.5 12.5q-75 0 -113 -107h-96z" />
    <glyph glyph-name="uni1ECA" unicode="&#x1eca;" horiz-adv-x="501" 
d="M162 0l254 1434h178l-252 -1434h-180zM197 -346q-45 0 -74 34t-23 79q4 47 40.5 80.5t82.5 33.5q43 0 71.5 -33.5t22.5 -80.5q-5 -44 -41 -78.5t-79 -34.5z" />
    <glyph glyph-name="uni1ECB" unicode="&#x1ecb;" horiz-adv-x="481" 
d="M158 0l161 922h164l-161 -922h-164zM457 1212q-47 0 -76 34t-23 81q6 49 43.5 83t83.5 34t75.5 -34t23.5 -83q-6 -47 -44 -81t-83 -34zM178 -344q-47 0 -75.5 33t-20.5 78q6 47 42.5 78.5t86.5 31.5q44 0 72 -32t22 -78q-6 -45 -42.5 -78t-84.5 -33z" />
    <glyph glyph-name="uni1ECC" unicode="&#x1ecc;" horiz-adv-x="1429" 
d="M711 -20q-181 0 -299 93.5t-159 259.5t-3 384t137 384t250.5 259.5t333.5 93.5q181 0 299 -93.5t159 -259.5t3 -384t-137 -384t-250.5 -259.5t-333.5 -93.5zM438 717q-48 -260 27 -418t264 -158q190 0 326.5 158.5t187.5 417.5q26 127 18.5 232.5t-42.5 181.5
t-103.5 118.5t-163.5 42.5q-190 0 -326.5 -158t-187.5 -417zM649 -352q-44 0 -73 34t-23 78q6 47 42.5 81t80.5 34t72.5 -34t23.5 -81q-6 -45 -42.5 -78.5t-80.5 -33.5z" />
    <glyph glyph-name="uni1ECD" unicode="&#x1ecd;" horiz-adv-x="1013" 
d="M504 -16q-85 0 -153.5 30.5t-115 90.5t-63 149.5t3.5 206.5q40 225 180 351t316 126q84 0 152 -30.5t115 -90.5t63.5 -149.5t-3.5 -206.5q-19 -114 -68 -206t-116 -150.5t-146.5 -89.5t-164.5 -31zM344 461q-29 -153 16 -246.5t160 -93.5q117 0 199 93.5t112 246.5
q29 155 -15.5 248.5t-160.5 93.5q-115 1 -198 -93.5t-113 -248.5zM387 -348q-45 0 -73.5 32.5t-22.5 77.5q6 47 42.5 80t86.5 33q46 0 74 -33.5t22 -79.5q-8 -45 -44.5 -77.5t-84.5 -32.5z" />
    <glyph glyph-name="uni1EE4" unicode="&#x1ee4;" horiz-adv-x="1214" 
d="M604 -16q-257 0 -341 162t-27 489l141 799h178l-143 -820q-51 -251 4.5 -367t208.5 -116q157 0 255.5 113t149.5 370l144 820h172l-142 -799q-57 -326 -199.5 -488.5t-400.5 -162.5zM514 -352q-45 0 -74 33.5t-24 78.5q6 47 42.5 81t82.5 34q43 0 71.5 -34t22.5 -81
q-4 -44 -41 -78t-80 -34z" />
    <glyph glyph-name="uni1EE5" unicode="&#x1ee5;" 
d="M449 -20q-176 0 -236 120.5t-16 376.5l79 445h164l-80 -445q-20 -108 -19.5 -186t41 -122t122.5 -44q87 0 161 77.5t121 200.5l97 519h164l-162 -922h-148l23 160h-6q-52 -75 -132 -127.5t-173 -52.5zM457 -348q-47 0 -76 32.5t-23 77.5q8 47 44.5 80t86.5 33
q44 0 72.5 -33.5t22.5 -79.5q-6 -45 -43 -77.5t-84 -32.5z" />
    <glyph glyph-name="Ygrave" unicode="&#x1ef2;" horiz-adv-x="1224" 
d="M332 1434h190l232 -586h6l471 588l170 -2l-576 -732l-123 -702h-184l123 692zM655 1815h172l115 -279h-111z" />
    <glyph glyph-name="ygrave" unicode="&#x1ef3;" horiz-adv-x="899" 
d="M-18 -512h-48l19 147h45q126 0 242.5 103t189.5 266l-240 918h181l164 -715h6l346 715h149l-432 -902q-129 -268 -279.5 -400t-342.5 -132zM346 1411h182l191 -317h-103z" />
    <glyph glyph-name="uni1EF8" unicode="&#x1ef8;" horiz-adv-x="1224" 
d="M641 692l-309 742h190l232 -586h6l471 588l170 -2l-576 -732l-123 -702h-184zM608 1548q23 85 76 140t139 55q36 0 64 -11.5t45 -28.5t32 -33.5t34.5 -28t43.5 -11.5q45 0 72.5 29.5t40.5 71.5h98q-19 -84 -75 -141.5t-142 -57.5q-45 0 -78.5 17t-50 37t-41 37t-53.5 17
q-45 0 -69 -25t-39 -67h-97z" />
    <glyph glyph-name="uni1EF9" unicode="&#x1ef9;" horiz-adv-x="899" 
d="M-18 -512h-48l19 147h45q126 0 242.5 103t189.5 266l-240 918h181l164 -715h6l346 715h149l-432 -902q-129 -268 -279.5 -400t-342.5 -132zM438 1118h-96q27 87 84.5 148t140.5 61q37 0 64 -13t43 -31.5t29.5 -37.5t32 -32t42.5 -13q45 0 75.5 34.5t45.5 78.5h98
q-23 -84 -84 -147.5t-147 -63.5q-37 0 -64.5 12.5t-43.5 31t-30 36.5t-32.5 30.5t-42.5 12.5q-72 0 -115 -107z" />
    <glyph glyph-name="endash" unicode="&#x2013;" horiz-adv-x="1148" 
d="M193 463l16 100h928l-19 -100h-925z" />
    <glyph glyph-name="emdash" unicode="&#x2014;" horiz-adv-x="1742" 
d="M209 463l20 100h1524l-22 -100h-1522z" />
    <glyph glyph-name="quoteleft" unicode="&#x2018;" horiz-adv-x="477" 
d="M453 1042h-117q47 257 199 494h79q-116 -232 -161 -494z" />
    <glyph glyph-name="quoteright" unicode="&#x2019;" horiz-adv-x="477" 
d="M397 1042h-80q114 227 162 494h117q-47 -257 -199 -494z" />
    <glyph glyph-name="quotesinglbase" unicode="&#x201a;" horiz-adv-x="475" 
d="M111 -289h-84q113 226 159 494h121q-44 -258 -196 -494z" />
    <glyph glyph-name="quotedblleft" unicode="&#x201c;" horiz-adv-x="778" 
d="M758 1042h-117q26 145 83 281.5t114 228.5h82q-43 -86 -89 -224t-73 -286zM336 1042q47 257 199 494h86q-127 -253 -168 -494h-117z" />
    <glyph glyph-name="quotedblright" unicode="&#x201d;" horiz-adv-x="778" 
d="M393 1026h-84q42 88 87.5 225.5t72.5 284.5h119q-25 -145 -81.5 -281.5t-113.5 -228.5zM698 1042h-90q123 246 168 494h119q-44 -256 -197 -494z" />
    <glyph glyph-name="quotedblbase" unicode="&#x201e;" horiz-adv-x="778" 
d="M106 -305h-83q43 86 88.5 224t70.5 286h121q-25 -146 -82 -283t-115 -227zM414 -289h-90q122 244 165 494h121q-44 -258 -196 -494z" />
    <glyph glyph-name="dagger" unicode="&#x2020;" horiz-adv-x="708" 
d="M215 797l12 73h238l100 564h86l-100 -564h237l-12 -73h-237l-187 -1043h-84l185 1043h-238z" />
    <glyph glyph-name="daggerdbl" unicode="&#x2021;" horiz-adv-x="708" 
d="M121 262l12 74h238l92 518h-238l13 74h237l90 506h86l-90 -506h238l-13 -74h-237l-92 -518h237l-14 -74h-238l-88 -506h-86l90 506h-237z" />
    <glyph glyph-name="bullet" unicode="&#x2022;" horiz-adv-x="540" 
d="M375 528q-61 0 -95.5 46.5t-23.5 109.5q14 65 66.5 110.5t113.5 45.5q59 0 93 -46t22 -110q-12 -62 -65 -109t-111 -47z" />
    <glyph glyph-name="ellipsis" unicode="&#x2026;" horiz-adv-x="1413" 
d="M1167 -12q-49 0 -77.5 34t-20.5 82q9 49 48.5 83t90.5 34q46 0 75 -35t20 -82q-8 -48 -47 -82t-89 -34zM248 -12q-47 0 -75.5 34.5t-20.5 81.5q9 49 48 83t91 34q46 0 74 -35t20 -82q-9 -49 -47.5 -82.5t-89.5 -33.5zM709 -12q-49 0 -78 34t-21 82q9 49 48 83t92 34
q46 0 74.5 -35t19.5 -82q-8 -48 -46.5 -82t-88.5 -34z" />
    <glyph glyph-name="perthousand" unicode="&#x2030;" horiz-adv-x="1798" 
d="M985 -16q-123 0 -178.5 90t-22.5 248q33 157 127 248.5t217 91.5q73 0 121.5 -35t69.5 -99q105 134 254 134q121 0 172.5 -91.5t19.5 -248.5q-34 -159 -124 -248.5t-214 -89.5q-147 0 -196 129q-96 -129 -246 -129zM543 774q-124 0 -179 89.5t-22 246.5q34 157 127 248.5
t217 91.5q122 0 173.5 -91t19.5 -249q-34 -157 -124 -246.5t-212 -89.5zM434 1110q-26 -120 9 -189t116 -69q80 0 140 68.5t85 189.5q26 122 -3.5 192t-110.5 70q-82 0 -146 -70.5t-90 -191.5zM877 322q-25 -121 9.5 -191t114.5 -68q82 0 142 68t86 191q25 121 -5.5 190.5
t-111.5 69.5q-80 0 -144.5 -70.5t-90.5 -189.5zM1319 309q-23 -114 12.5 -181t114.5 -65q80 0 140 69t85 190q26 121 -4 190.5t-111 69.5q-80 0 -142.5 -67.5t-90.5 -182.5q-1 -4 -2 -11.5t-2 -11.5zM426 20h-86l905 1393h86z" />
    <glyph glyph-name="guilsinglleft" unicode="&#x2039;" horiz-adv-x="661" 
d="M276 444l252 -413h-86l-256 407l9 39l419 404h93l-426 -420z" />
    <glyph glyph-name="guilsinglright" unicode="&#x203a;" horiz-adv-x="661" 
d="M557 461l4 16l-258 404h82l260 -404l-6 -39l-420 -407h-94z" />
    <glyph glyph-name="fraction" unicode="&#x2044;" horiz-adv-x="376" 
d="M-182 0h-78l1046 1331h74z" />
    <glyph glyph-name="uni2070" unicode="&#x2070;" horiz-adv-x="548" 
d="M438 911q-107 0 -152 84t-20 226q25 138 100.5 222.5t180.5 84.5q106 0 148.5 -84t17.5 -223q-25 -142 -97.5 -226t-177.5 -84zM358 1221q-19 -106 5.5 -166t89.5 -60q127 0 168 226q19 106 -3 165.5t-86 59.5q-65 0 -110 -60t-64 -165z" />
    <glyph glyph-name="uni2074" unicode="&#x2074;" horiz-adv-x="514" 
d="M221 1028l12 66l363 415h72l-74 -409h65l-12 -72h-65l-19 -108h-86l21 108h-277zM330 1100h180l49 268h-4l-225 -264v-4z" />
    <glyph glyph-name="uni2075" unicode="&#x2075;" horiz-adv-x="524" 
d="M408 905q-115 0 -195 76l53 70q27 -23 40.5 -33t44.5 -22.5t63 -12.5q67 0 112 37t56 98q22 127 -95 127q-70 0 -129 -41l-43 37l62 270h323l-12 -81h-260l-33 -146l2 -2q64 33 127 33q81 0 125.5 -46t24.5 -151q-19 -107 -96 -160t-170 -53z" />
    <glyph glyph-name="uni2076" unicode="&#x2076;" horiz-adv-x="538" 
d="M438 913q-107 0 -155.5 73.5t-26.5 195.5q31 171 117.5 258.5t197.5 87.5q95 0 162 -58l-57 -65q-19 14 -30.5 21.5t-35.5 15.5t-49 8q-76 0 -130 -61t-69 -140h5q22 27 64.5 48.5t86.5 21.5q92 0 135 -56.5t27 -142.5q-16 -90 -80.5 -148.5t-161.5 -58.5zM348 1126
q-10 -66 21 -103.5t82 -37.5q49 0 89.5 34t51.5 101q13 67 -16 101t-78 34q-53 0 -96 -34t-54 -95z" />
    <glyph glyph-name="uni2077" unicode="&#x2077;" horiz-adv-x="477" 
d="M274 920q74 161 136.5 260.5t171.5 240.5v4h-281l16 84h379l-12 -69q-118 -155 -181.5 -258.5t-131.5 -261.5h-97z" />
    <glyph glyph-name="uni2078" unicode="&#x2078;" horiz-adv-x="538" 
d="M430 911q-102 0 -152 46.5t-36 123.5q19 117 135 160v4q-66 40 -49 131q11 66 69.5 109t141.5 43t125.5 -43t31.5 -109q-17 -91 -96 -131v-4q97 -41 78 -160q-14 -77 -80 -123.5t-168 -46.5zM336 1085q-9 -52 17 -80t87 -28q125 0 144 108q10 58 -17.5 89.5t-85.5 31.5
t-97 -31.5t-48 -89.5zM414 1376q-9 -45 13 -72.5t67 -27.5q48 0 77 26.5t37 73.5q7 37 -13.5 62.5t-68.5 25.5q-47 0 -76 -25.5t-36 -62.5z" />
    <glyph glyph-name="uni2079" unicode="&#x2079;" horiz-adv-x="538" 
d="M229 971l58 63q58 -43 116 -43q75 0 129.5 61t69.5 140h-4q-24 -29 -67 -50.5t-87 -21.5q-91 0 -133 56.5t-26 142.5q16 90 80.5 149.5t160.5 59.5q107 0 155.5 -74.5t27.5 -196.5q-31 -170 -118 -257t-200 -87q-95 0 -162 58zM371 1319q-11 -67 17.5 -101t76.5 -34
q54 0 96.5 34.5t52.5 96.5q11 64 -19.5 102.5t-80.5 38.5q-49 0 -89.5 -35t-53.5 -102z" />
    <glyph glyph-name="uni2080" unicode="&#x2080;" horiz-adv-x="548" 
d="M258 -113q-107 0 -152 84t-20 226q25 138 100 222.5t181 84.5t148 -84t17 -223q-25 -143 -97 -226.5t-177 -83.5zM178 197q-19 -106 5 -166t89 -60q127 0 168 226q19 106 -2.5 165.5t-85.5 59.5q-65 0 -110 -60t-64 -165z" />
    <glyph glyph-name="uni2081" unicode="&#x2081;" horiz-adv-x="382" 
d="M135 305l-26 64l186 116h65l-104 -587h-90l86 475h-4z" />
    <glyph glyph-name="uni2082" unicode="&#x2082;" horiz-adv-x="532" 
d="M55 -102l15 73l237 213q63 57 86 91q21 32 27 65q8 40 -12.5 64t-61.5 24q-32 0 -62 -16.5t-46.5 -33.5t-42.5 -48l-60 41q102 137 230 137q78 0 119 -44t28 -118q-7 -43 -34 -85t-48.5 -64t-60.5 -56l-172 -155v-4h264l-15 -84h-391z" />
    <glyph glyph-name="uni2083" unicode="&#x2083;" horiz-adv-x="532" 
d="M233 -111q-116 0 -182 62l53 69q59 -53 142 -53q56 0 93 26t46 77q9 50 -21 76t-90 26h-59l12 68h60q55 0 89 27t42 71q13 82 -82 82q-74 0 -152 -58l-26 64q98 74 196 74q80 0 122.5 -36.5t29.5 -115.5q-10 -52 -36.5 -81t-68.5 -50l-2 -4q94 -42 76 -150
q-9 -49 -34.5 -84.5t-61 -54t-72 -27t-74.5 -8.5z" />
    <glyph glyph-name="uni2084" unicode="&#x2084;" horiz-adv-x="534" 
d="M59 4l13 66l362 415h72l-74 -409h66l-13 -72h-65l-19 -110h-86l21 110h-277zM156 76h192l51 282h-4l-239 -278v-4z" />
    <glyph glyph-name="uni2085" unicode="&#x2085;" horiz-adv-x="524" 
d="M229 -119q-114 0 -194 76l53 70q26 -22 41 -33t45 -23t62 -12q67 0 111.5 37t55.5 98q22 127 -94 127q-70 0 -129 -41l-43 37l62 270h325l-14 -81h-260l-33 -146l2 -2q64 33 127 33q38 0 67.5 -9.5t54 -32t31.5 -60.5t-1 -95q-14 -73 -59 -123t-98.5 -70t-111.5 -20z" />
    <glyph glyph-name="uni2086" unicode="&#x2086;" horiz-adv-x="538" 
d="M260 -111q-107 0 -155.5 73.5t-26.5 195.5q31 171 117.5 258.5t197.5 87.5q95 0 162 -58l-57 -65q-19 14 -30.5 21.5t-35.5 15.5t-49 8q-76 0 -130 -61t-69 -140h4q22 27 65 48.5t87 21.5q92 0 135 -56.5t27 -142.5q-16 -90 -80.5 -148.5t-161.5 -58.5zM170 102
q-11 -66 19.5 -104.5t82.5 -38.5q49 0 90 35t52 102q13 67 -16.5 101t-78.5 34q-53 0 -95.5 -34t-53.5 -95z" />
    <glyph glyph-name="uni2087" unicode="&#x2087;" horiz-adv-x="477" 
d="M94 -104q74 162 136.5 261.5t170.5 239.5v4h-280l16 84h379l-12 -69q-119 -156 -183 -259t-131 -261h-96z" />
    <glyph glyph-name="uni2088" unicode="&#x2088;" horiz-adv-x="538" 
d="M250 -113q-102 0 -152.5 46.5t-36.5 123.5q19 116 136 160l2 4q-69 40 -52 131q11 65 70 108.5t141 43.5q83 0 126 -43t32 -109q-17 -91 -96 -131v-4q100 -42 78 -160q-14 -77 -80 -123.5t-168 -46.5zM156 61q-9 -52 17 -80t87 -28q127 0 146 108q9 58 -19 89.5t-86 31.5
t-97 -31.5t-48 -89.5zM233 352q-9 -45 13 -72.5t67 -27.5q97 0 117 100q6 36 -14.5 62t-67.5 26q-48 0 -78 -25.5t-37 -62.5z" />
    <glyph glyph-name="uni2089" unicode="&#x2089;" horiz-adv-x="538" 
d="M51 -53l58 63q20 -15 30.5 -22t34.5 -15t49 -8q76 0 130 61.5t69 141.5h-4q-22 -28 -64.5 -50t-87.5 -22q-92 0 -134 56t-28 143q16 90 81.5 149.5t162.5 59.5q106 0 154 -74.5t26 -196.5q-29 -170 -115.5 -257t-199.5 -87q-95 0 -162 58zM193 295q-11 -67 17 -101
t77 -34q52 0 95 34.5t54 96.5q11 64 -19.5 102.5t-80.5 38.5t-91 -34.5t-52 -102.5z" />
    <glyph glyph-name="franc" unicode="&#x20a3;" horiz-adv-x="995" 
d="M233 330h-94l19 90h94l207 973h721l-31 -146h-557l-103 -483h498l-26 -127h-498l-47 -217h348l-19 -90h-348l-71 -330h-162z" />
    <glyph glyph-name="lira" unicode="&#x20a4;" horiz-adv-x="905" 
d="M846 0h-789l27 133q207 188 246 365h-166l18 90h156q2 43 -2 139h-123l18 90h103q-3 78 12 152q28 133 102 232t172.5 148.5t208.5 49.5q78 0 144.5 -21.5t103.5 -46.5l-80 -125q-84 54 -184 54q-99 0 -190.5 -78.5t-120.5 -218.5q-15 -67 -15 -146h408l-18 -90h-390
q0 -94 -2 -139h363l-21 -90h-354q-38 -176 -213 -355v-6h614z" />
    <glyph glyph-name="peseta" unicode="&#x20a7;" horiz-adv-x="1128" 
d="M377 1022l76 358q247 21 346 21q98 0 174 -23t129 -68t74.5 -118.5t5.5 -169.5h129l-19 -90h-131q-40 -123 -127.5 -210.5t-191.5 -128.5t-219 -44q-77 -2 -183 18l-118 -567h-162l196 932h-125l19 90h127zM991 932h-473l-47 -230q66 -14 168 -14q130 0 221 64t131 180z
M539 1022h473q14 111 -48 175.5t-196 64.5q-86 0 -180 -11z" />
    <glyph glyph-name="Euro" unicode="&#x20ac;" horiz-adv-x="1009" 
d="M233 514h-92l19 90h82q9 85 34 174h-79l18 90h92q91 242 265.5 387.5t375.5 145.5q143 0 238 -58l-31 -147q-89 59 -217 59q-137 0 -259.5 -105.5t-193.5 -281.5h525l-19 -90h-538q-27 -97 -35 -174h536l-20 -90h-522q2 -171 80.5 -274t209.5 -103q122 0 244 56l-31 -148
q-132 -59 -270 -59q-196 0 -308.5 143t-103.5 385z" />
    <glyph glyph-name="uni20BA" unicode="&#x20ba;" horiz-adv-x="1101" 
d="M330 580l-191 -78l19 90l190 76l29 131l-191 -78l19 90l190 76l109 506h158l-95 -437l332 131l-20 -88l-330 -133l-27 -129l330 131l-18 -88l-332 -133l-107 -506q206 15 380 174t220 377h142q-43 -201 -170.5 -363t-301.5 -250.5t-358 -88.5q-56 0 -100 10z" />
    <glyph glyph-name="uni2113" unicode="&#x2113;" horiz-adv-x="788" 
d="M225 375q-71 -25 -135 -31l21 90q61 8 135 41l121 567q53 247 147.5 373.5t247.5 126.5q118 0 160 -88.5t8 -245.5q-49 -231 -194 -429.5t-333 -317.5q-21 -107 -23 -184t32 -120.5t106 -43.5q53 0 141 43l23 -117q-36 -22 -102 -42t-121 -20q-150 0 -211 92.5t-23 305.5
zM432 598q133 112 231.5 272.5t133.5 327.5q11 57 12.5 105.5t-18 80t-58.5 31.5q-28 0 -52 -12.5t-43.5 -39.5t-35 -59t-30.5 -81t-26.5 -96t-25.5 -113z" />
    <glyph glyph-name="uni2116" unicode="&#x2116;" horiz-adv-x="2256" 
d="M1802 291q-85 0 -153.5 30.5t-115.5 90.5t-63.5 149.5t3.5 206.5q40 225 180 351t315 126q85 0 153.5 -30.5t115.5 -90.5t64 -149.5t-3 -206.5q-40 -225 -180.5 -351t-315.5 -126zM162 0l254 1434h168l420 -1110h4l217 1110h172l-252 -1434h-172l-418 1087h-6l-215 -1087
h-172zM1642 768q-30 -153 15 -246.5t162 -93.5q116 0 198 94t111 246q30 154 -14.5 248t-159.5 94q-117 1 -199.5 -93.5t-112.5 -248.5zM2036 0h-574l13 100h573z" />
    <glyph glyph-name="uni2117" unicode="&#x2117;" horiz-adv-x="1478" 
d="M735 -16q-175 0 -304.5 91t-183 248.5t-14.5 342.5t159.5 342.5t289 248.5t344.5 91q175 0 304.5 -91t183 -248.5t14.5 -342.5t-159.5 -342.5t-289 -248.5t-344.5 -91zM334 666q-33 -158 11.5 -293t153.5 -214t257 -79q149 0 291.5 79t244.5 213.5t135 293.5
q28 122 6 228.5t-77.5 185.5t-147 125t-202.5 46q-149 0 -291.5 -78t-244.5 -213t-136 -294zM707 276h-117l164 771q168 12 217 12q127 0 190.5 -60.5t38.5 -179.5q-26 -125 -118.5 -192t-213.5 -70q-48 0 -100 10zM788 664q53 -11 93 -11q82 0 134 45t68 121
q12 66 -21.5 104t-111.5 38q-46 0 -100 -7z" />
    <glyph glyph-name="uni2120" unicode="&#x2120;" horiz-adv-x="1210" 
d="M745 870l119 564h78l115 -433h4l297 433h74l-119 -564h-90l75 361h-4l-237 -352h-68l-84 342h-6l-74 -351h-80zM459 864q-47 0 -98.5 15t-84.5 41l54 69q67 -49 143 -49q51 0 84.5 22t42.5 60q8 37 -12.5 58.5t-85.5 39.5q-77 21 -106 58t-15 106q17 75 75 118.5
t138 43.5q100 0 164 -47l-51 -74q-54 43 -121 43q-52 0 -80 -23t-35 -59q-7 -34 12 -52t74 -34q86 -25 117 -63.5t16 -108.5q-18 -82 -82.5 -123t-148.5 -41z" />
    <glyph glyph-name="trademark" unicode="&#x2122;" horiz-adv-x="1265" 
d="M801 870l121 564h75l115 -433h4l297 433h74l-119 -564h-90l76 361h-2l-238 -352h-67l-86 342h-5l-75 -351h-80zM344 1358l16 76h457l-16 -76h-185l-104 -488h-90l104 488h-182z" />
    <glyph glyph-name="estimated" unicode="&#x212e;" horiz-adv-x="1034" 
d="M514 -16q-208 0 -304.5 129.5t-51.5 343.5q44 213 196.5 344t360.5 131q209 0 305 -130.5t51 -344.5l-4 -21h-774l-53 -250q81 -153 284 -153q242 0 398 203h55q-84 -125 -205 -188.5t-258 -63.5zM303 479h633l53 250q-82 154 -284 154q-201 0 -349 -154z" />
    <glyph glyph-name="arrowleft" unicode="&#x2190;" horiz-adv-x="1423" 
d="M233 670l494 420l74 -91l-316 -266v-4h955l-23 -127h-954l-2 -4l221 -266l-104 -90l-347 420z" />
    <glyph glyph-name="arrowup" unicode="&#x2191;" horiz-adv-x="993" 
d="M301 784l-72 88l494 420h8l344 -420l-104 -88l-221 269h-5l-167 -957h-127l170 957h-5z" />
    <glyph glyph-name="arrowright" unicode="&#x2192;" horiz-adv-x="1423" 
d="M1083 1090l347 -420l-3 -8l-493 -420l-74 90l316 266v4h-955l23 127h954l2 4l-221 266z" />
    <glyph glyph-name="arrowdown" unicode="&#x2193;" horiz-adv-x="993" 
d="M500 29l-346 420l104 88l221 -269h4l170 957h125l-170 -957h4l316 269l73 -88l-493 -420h-8z" />
    <glyph glyph-name="arrowboth" unicode="&#x2194;" horiz-adv-x="1783" 
d="M578 242l-347 420l2 8l494 420l74 -91l-316 -266v-4h1074v4l-220 266l105 91l344 -420v-8l-494 -420l-73 90l315 266v4h-1073l-2 -4l221 -266z" />
    <glyph glyph-name="arrowupdn" unicode="&#x2195;" horiz-adv-x="993" 
d="M137 362l105 89l221 -267h4l190 1073h-4l-315 -266l-72 88l494 420h8l344 -420l-104 -88l-220 266h-4l-192 -1073h4l315 267l74 -89l-493 -419h-9z" />
    <glyph glyph-name="uni2196" unicode="&#x2196;" horiz-adv-x="1122" 
d="M301 1016h594l-23 -125h-378l-5 -4l555 -674l-104 -90l-555 676l-4 -4l-68 -377h-125l107 592z" />
    <glyph glyph-name="uni2197" unicode="&#x2197;" horiz-adv-x="1122" 
d="M1186 1008l-105 -594h-127l68 379l-2 4l-795 -676l-73 88l794 676l-2 2l-379 2l23 125h594z" />
    <glyph glyph-name="uni2198" unicode="&#x2198;" horiz-adv-x="1122" 
d="M1047 260h-592l22 125h379l2 4l-555 674l105 90l555 -676l4 2l67 379h125l-104 -592z" />
    <glyph glyph-name="uni2199" unicode="&#x2199;" horiz-adv-x="1122" 
d="M162 268l106 592h125l-67 -377l2 -4l796 676l72 -90l-795 -674l2 -4h379l-22 -125h-592z" />
    <glyph glyph-name="partialdiff" unicode="&#x2202;" horiz-adv-x="1206" 
d="M172 395q24 110 83.5 214t141.5 183.5t187.5 128t212.5 48.5q144 0 222 -81t60 -226h4q46 117 68 225q17 81 21 155t-9 144t-44 121t-89 81.5t-139 30.5q-109 0 -234 -39l7 133q175 48 284 48q95 0 169 -33t120.5 -93t70.5 -143.5t23.5 -184.5t-24.5 -216
q-26 -121 -74.5 -243t-123.5 -241t-165.5 -210.5t-208 -148t-243.5 -56.5q-185 0 -272 106.5t-48 296.5zM532 131q98 0 195 63.5t162.5 159.5t87.5 197q28 128 -27.5 205.5t-175.5 77.5q-99 0 -193.5 -66.5t-156.5 -163.5t-84 -198q-27 -126 24 -200.5t168 -74.5z" />
    <glyph glyph-name="product" unicode="&#x220f;" horiz-adv-x="1275" 
d="M131 -512l387 1827h-162l27 119h1118l-24 -119h-162l-387 -1827h-148l387 1827h-501l-387 -1827h-148z" />
    <glyph glyph-name="summation" unicode="&#x2211;" horiz-adv-x="1261" 
d="M1057 -512h-1057l25 111l739 903l-369 837l19 95h1056l-24 -113h-875l359 -803l-723 -887h880z" />
    <glyph glyph-name="minus" unicode="&#x2212;" horiz-adv-x="1034" 
d="M199 436l14 109h827l-16 -109h-825z" />
    <glyph glyph-name="uni2215" unicode="&#x2215;" horiz-adv-x="679" 
d="M-14 -51l897 1587h108l-897 -1587h-108z" />
    <glyph glyph-name="uni2219" unicode="&#x2219;" horiz-adv-x="540" 
d="M375 528q-61 0 -95.5 46.5t-23.5 109.5q14 65 66.5 110.5t113.5 45.5q59 0 93 -46t22 -110q-12 -62 -65 -109t-111 -47z" />
    <glyph glyph-name="radical" unicode="&#x221a;" horiz-adv-x="1259" 
d="M221 793h166l113 -850h6l954 1593h115l-1045 -1731h-112l-123 889h-94z" />
    <glyph glyph-name="infinity" unicode="&#x221e;" horiz-adv-x="1411" 
d="M467 221q-121 0 -173.5 88.5t-23.5 218.5q27 132 117 221t211 89q169 0 254 -234q181 234 354 234q119 0 171.5 -89t25.5 -221q-29 -131 -119 -219t-211 -88q-169 0 -254 234q-181 -234 -352 -234zM350 528q-21 -98 13.5 -162.5t123.5 -64.5q133 0 304 227
q-72 230 -207 230q-89 0 -151 -65t-83 -165zM883 528q33 -104 80.5 -165.5t123.5 -61.5q89 0 152 64.5t84 162.5q21 100 -13.5 165t-123.5 65q-133 0 -303 -230z" />
    <glyph glyph-name="integral" unicode="&#x222b;" horiz-adv-x="622" 
d="M-90 -512l29 139q116 0 184.5 97t109.5 284l224 1055q101 473 475 473l-31 -139q-115 0 -184.5 -97t-108.5 -282l-225 -1055q-26 -124 -75 -217t-113 -148.5t-135 -82.5t-150 -27z" />
    <glyph glyph-name="approxequal" unicode="&#x2248;" horiz-adv-x="1280" 
d="M244 590l14 123q40 33 111 66.5t145 33.5q53 0 107 -20t99.5 -48.5t90.5 -57.5t97 -49t102 -20q118 0 262 132l-15 -125q-120 -111 -258 -111q-61 0 -119.5 20.5t-104 49t-88.5 57.5t-90.5 49.5t-92.5 20.5q-70 0 -147 -41.5t-113 -79.5zM436 391q-71 0 -148 -41
t-114 -80l16 125q37 33 109.5 67t146.5 34q52 0 106 -20.5t99.5 -49t91 -57.5t97.5 -49.5t102 -20.5q119 0 262 131l-14 -123q-119 -110 -258 -110q-61 0 -119.5 20t-104 48.5t-88.5 57t-91 48.5t-93 20z" />
    <glyph glyph-name="notequal" unicode="&#x2260;" horiz-adv-x="1034" 
d="M426 254h-260l12 125h328l180 278h-453l15 125h518l178 275h86l-178 -275h203l-15 -125h-268l-180 -278h393l-14 -125h-459l-221 -342h-86z" />
    <glyph glyph-name="lessequal" unicode="&#x2264;" horiz-adv-x="1140" 
d="M1270 1176l-29 -132l-792 -262l-3 -8l680 -266l-30 -143l-838 348l29 127zM141 90l25 107h885l-23 -107h-887z" />
    <glyph glyph-name="greaterequal" unicode="&#x2265;" horiz-adv-x="1140" 
d="M342 1044l29 132l839 -336l-26 -127l-985 -348l30 143l795 266l2 8zM1059 197l-23 -107h-886l22 107h887z" />
    <glyph glyph-name="uni2460" unicode="&#x2460;" horiz-adv-x="1554" 
d="M774 -16q-139 0 -255.5 54t-191.5 145t-106 217.5t-6 265.5q32 185 151.5 342.5t292 248.5t357.5 91q139 0 256 -54t192 -145t106.5 -217.5t6.5 -265.5t-101.5 -265t-184 -217.5t-243 -145.5t-274.5 -54zM319 666q-28 -158 25.5 -293t172 -214t274.5 -79q157 0 304 79
t247.5 214t127.5 293q21 119 -5.5 227.5t-89.5 187t-161 124.5t-215 46q-156 0 -302.5 -78t-248 -213t-129.5 -294zM739 870l195 117h72l-105 -588h-98l84 473h-4l-113 -69z" />
    <glyph glyph-name="uni2461" unicode="&#x2461;" horiz-adv-x="1554" 
d="M774 -16q-139 0 -255.5 54t-191.5 145t-106 217.5t-6 265.5q32 185 151.5 342.5t292 248.5t357.5 91q139 0 256 -54t192 -145t106.5 -217.5t6.5 -265.5t-101.5 -265t-184 -217.5t-243 -145.5t-274.5 -54zM319 666q-28 -158 25.5 -293t172 -214t274.5 -79q157 0 304 79
t247.5 214t127.5 293q21 119 -5.5 227.5t-89.5 187t-161 124.5t-215 46q-156 0 -302.5 -78t-248 -213t-129.5 -294zM639 399l12 74l248 213q31 27 47.5 42t39 48.5t28.5 65.5q7 40 -13 61t-65 21q-33 0 -63 -16t-45.5 -31.5t-43.5 -47.5l-67 43q104 138 241 138
q83 0 126 -44t30 -118q-7 -43 -34 -84.5t-50 -64.5t-61 -56l-172 -149l-2 -5h270l-16 -90h-410z" />
    <glyph glyph-name="uni2462" unicode="&#x2462;" horiz-adv-x="1554" 
d="M774 -16q-139 0 -255.5 54t-191.5 145t-106 217.5t-6 265.5q32 185 151.5 342.5t292 248.5t357.5 91q139 0 256 -54t192 -145t106.5 -217.5t6.5 -265.5t-101.5 -265t-184 -217.5t-243 -145.5t-274.5 -54zM319 666q-28 -158 25.5 -293t172 -214t274.5 -79q157 0 304 79
t247.5 214t127.5 293q21 119 -5.5 227.5t-89.5 187t-161 124.5t-215 46q-156 0 -302.5 -78t-248 -213t-129.5 -294zM831 393q-123 0 -192 62l59 73q60 -51 144 -51q128 0 145 94q9 52 -21.5 78.5t-93.5 26.5h-61l12 69h62q58 0 91.5 26t41.5 71q6 36 -16 57t-68 21
q-75 0 -156 -60l-30 70q102 74 206 74q82 0 127.5 -38t32.5 -114q-8 -52 -35 -81.5t-71 -49.5v-4q95 -41 77 -152q-9 -49 -36 -84.5t-64.5 -53.5t-75.5 -26t-78 -8z" />
    <glyph glyph-name="uni2463" unicode="&#x2463;" horiz-adv-x="1554" 
d="M774 -16q-139 0 -255.5 54t-191.5 145t-106 217.5t-6 265.5q32 185 151.5 342.5t292 248.5t357.5 91q139 0 256 -54t192 -145t106.5 -217.5t6.5 -265.5t-101.5 -265t-184 -217.5t-243 -145.5t-274.5 -54zM319 666q-28 -158 25.5 -293t172 -214t274.5 -79q157 0 304 79
t247.5 214t127.5 293q21 119 -5.5 227.5t-89.5 187t-161 124.5t-215 46q-156 0 -302.5 -78t-248 -213t-129.5 -294zM598 508l12 67l379 416h80l-72 -405h64l-14 -78h-64l-18 -109h-99l19 109h-287zM721 586h178l43 245h-2l-219 -241v-4z" />
    <glyph glyph-name="uni2464" unicode="&#x2464;" horiz-adv-x="1554" 
d="M774 -16q-139 0 -255.5 54t-191.5 145t-106 217.5t-6 265.5q32 185 151.5 342.5t292 248.5t357.5 91q139 0 256 -54t192 -145t106.5 -217.5t6.5 -265.5t-101.5 -265t-184 -217.5t-243 -145.5t-274.5 -54zM319 666q-28 -158 25.5 -293t172 -214t274.5 -79q157 0 304 79
t247.5 214t127.5 293q21 119 -5.5 227.5t-89.5 187t-161 124.5t-215 46q-156 0 -302.5 -78t-248 -213t-129.5 -294zM627 461l59 74q76 -64 156 -64q68 0 114 33.5t56 93.5q9 57 -17.5 91t-81.5 34q-78 0 -135 -39l-47 37l62 270h344l-15 -84h-272l-31 -135l6 -4
q73 31 127 31q38 0 69.5 -10.5t56.5 -33t34.5 -63.5t-0.5 -96q-19 -105 -99.5 -158t-176.5 -53q-120 0 -209 76z" />
    <glyph glyph-name="uni2465" unicode="&#x2465;" horiz-adv-x="1554" 
d="M774 -16q-139 0 -255.5 54t-191.5 145t-106 217.5t-6 265.5q32 185 151.5 342.5t292 248.5t357.5 91q139 0 256 -54t192 -145t106.5 -217.5t6.5 -265.5t-101.5 -265t-184 -217.5t-243 -145.5t-274.5 -54zM319 666q-28 -158 25.5 -293t172 -214t274.5 -79q157 0 304 79
t247.5 214t127.5 293q21 119 -5.5 227.5t-89.5 187t-161 124.5t-215 46q-156 0 -302.5 -78t-248 -213t-129.5 -294zM838 391q-113 0 -164 74t-29 197q29 169 121 256.5t207 87.5q95 0 172 -58l-62 -67q-62 43 -122 43q-79 0 -133.5 -60.5t-67.5 -136.5h4q23 27 66 48.5
t90 21.5q97 0 141.5 -55.5t30.5 -141.5q-16 -90 -84 -149.5t-170 -59.5zM743 604q-11 -64 22.5 -102.5t84.5 -38.5q50 0 93 35.5t54 101.5t-18.5 99.5t-79.5 33.5q-55 0 -100.5 -34.5t-55.5 -94.5z" />
    <glyph glyph-name="uni2466" unicode="&#x2466;" horiz-adv-x="1554" 
d="M774 -16q-139 0 -255.5 54t-191.5 145t-106 217.5t-6 265.5q32 185 151.5 342.5t292 248.5t357.5 91q139 0 256 -54t192 -145t106.5 -217.5t6.5 -265.5t-101.5 -265t-184 -217.5t-243 -145.5t-274.5 -54zM319 666q-28 -158 25.5 -293t172 -214t274.5 -79q157 0 304 79
t247.5 214t127.5 293q21 119 -5.5 227.5t-89.5 187t-161 124.5t-215 46q-156 0 -302.5 -78t-248 -213t-129.5 -294zM823 377h-106q79 162 141.5 258t173.5 235l2 9h-293l17 86h397l-12 -72q-117 -147 -182.5 -250.5t-137.5 -265.5z" />
    <glyph glyph-name="uni2467" unicode="&#x2467;" horiz-adv-x="1554" 
d="M774 -16q-139 0 -255.5 54t-191.5 145t-106 217.5t-6 265.5q32 185 151.5 342.5t292 248.5t357.5 91q139 0 256 -54t192 -145t106.5 -217.5t6.5 -265.5t-101.5 -265t-184 -217.5t-243 -145.5t-274.5 -54zM319 666q-28 -158 25.5 -293t172 -214t274.5 -79q157 0 304 79
t247.5 214t127.5 293q21 119 -5.5 227.5t-89.5 187t-161 124.5t-215 46q-156 0 -302.5 -78t-248 -213t-129.5 -294zM844 391q-106 0 -159.5 46.5t-39.5 123.5q10 60 47.5 100t93.5 60v4q-70 38 -53 129q11 66 72 110t147 44q87 0 133 -44t35 -110q-18 -93 -100 -129v-4
q104 -41 84 -160q-14 -77 -83.5 -123.5t-176.5 -46.5zM745 565q-8 -50 20.5 -78t90.5 -28q63 0 101 28t47 78q9 55 -21 86t-88 31q-57 0 -98.5 -31.5t-51.5 -85.5zM825 854q-7 -44 15.5 -70t68.5 -26q45 0 77.5 26t39.5 70q6 36 -15.5 62t-68.5 26q-48 0 -78.5 -25.5
t-38.5 -62.5z" />
    <glyph glyph-name="uni2468" unicode="&#x2468;" horiz-adv-x="1554" 
d="M774 -16q-139 0 -255.5 54t-191.5 145t-106 217.5t-6 265.5q32 185 151.5 342.5t292 248.5t357.5 91q139 0 256 -54t192 -145t106.5 -217.5t6.5 -265.5t-101.5 -265t-184 -217.5t-243 -145.5t-274.5 -54zM319 666q-28 -158 25.5 -293t172 -214t274.5 -79q157 0 304 79
t247.5 214t127.5 293q21 119 -5.5 227.5t-89.5 187t-161 124.5t-215 46q-156 0 -302.5 -78t-248 -213t-129.5 -294zM823 385q-102 0 -172 57l64 66q58 -43 121 -43q80 0 133 60.5t67 136.5h-4q-24 -27 -66 -48.5t-89 -21.5q-96 0 -141 56t-31 143q16 90 83.5 149t169.5 59
q112 0 163.5 -74t29.5 -196q-29 -169 -121 -256.5t-207 -87.5zM799 791q-11 -66 18.5 -100t79.5 -34q55 0 100.5 34.5t55.5 94.5q11 64 -22.5 103t-84.5 39q-49 0 -92.5 -36t-54.5 -101z" />
    <glyph glyph-name="uni24EA" unicode="&#x24ea;" horiz-adv-x="1554" 
d="M774 -16q-139 0 -255.5 54t-191.5 145t-106 217.5t-6 265.5q32 185 151.5 342.5t292 248.5t357.5 91q139 0 256 -54t192 -145t106.5 -217.5t6.5 -265.5t-101.5 -265t-184 -217.5t-243 -145.5t-274.5 -54zM319 666q-28 -158 25.5 -293t172 -214t274.5 -79q157 0 304 79
t247.5 214t127.5 293q21 119 -5.5 227.5t-89.5 187t-161 124.5t-215 46q-156 0 -302.5 -78t-248 -213t-129.5 -294zM846 391q-113 0 -160 83t-22 226q24 137 101.5 221.5t190.5 84.5q111 0 156.5 -84.5t20.5 -221.5q-25 -143 -100 -226t-187 -83zM764 700
q-19 -106 5.5 -164.5t92.5 -58.5q130 0 170 223q19 105 -3.5 163.5t-88.5 58.5t-111.5 -58.5t-64.5 -163.5z" />
    <glyph glyph-name="uni24FF" unicode="&#x24ff;" horiz-adv-x="1554" 
d="M774 -16q-139 0 -255.5 54t-191.5 145t-106 217.5t-6 265.5q32 185 151.5 342.5t292 248.5t357.5 91q139 0 256 -54t192 -145t106.5 -217.5t6.5 -265.5t-101.5 -265t-184 -217.5t-243 -145.5t-274.5 -54zM664 700q-25 -143 22 -226t160 -83q112 0 187 83t100 226
q25 137 -20.5 221.5t-156.5 84.5q-113 0 -190.5 -84.5t-101.5 -221.5zM862 477q-68 0 -92.5 58.5t-5.5 164.5q19 105 64.5 163.5t111.5 58.5t88.5 -58.5t3.5 -163.5q-40 -223 -170 -223z" />
    <glyph glyph-name="lozenge" unicode="&#x25ca;" horiz-adv-x="1255" 
d="M238 666l665 903h125l275 -903l-658 -902h-125zM412 666l209 -701h4l501 701l-202 700h-6z" />
    <glyph glyph-name="uni2776" unicode="&#x2776;" horiz-adv-x="1554" 
d="M774 -16q-139 0 -255.5 54t-191.5 145t-106 217.5t-6 265.5q32 185 151.5 342.5t292 248.5t357.5 91q139 0 256 -54t192 -145t106.5 -217.5t6.5 -265.5t-101.5 -265t-184 -217.5t-243 -145.5t-274.5 -54zM739 870l31 -67l113 69h4l-84 -473h98l105 588h-72z" />
    <glyph glyph-name="uni2777" unicode="&#x2777;" horiz-adv-x="1554" 
d="M774 -16q-139 0 -255.5 54t-191.5 145t-106 217.5t-6 265.5q32 185 151.5 342.5t292 248.5t357.5 91q139 0 256 -54t192 -145t106.5 -217.5t6.5 -265.5t-101.5 -265t-184 -217.5t-243 -145.5t-274.5 -54zM639 399h410l16 90h-270l2 5l172 149q38 33 61 56t50 64.5
t34 84.5q13 74 -30 118t-126 44q-137 0 -241 -138l67 -43q28 32 43.5 47.5t45.5 31.5t63 16q45 0 65 -21t13 -61q-6 -32 -28.5 -65.5t-39 -48.5t-47.5 -42l-248 -213z" />
    <glyph glyph-name="uni2778" unicode="&#x2778;" horiz-adv-x="1554" 
d="M774 -16q-139 0 -255.5 54t-191.5 145t-106 217.5t-6 265.5q32 185 151.5 342.5t292 248.5t357.5 91q139 0 256 -54t192 -145t106.5 -217.5t6.5 -265.5t-101.5 -265t-184 -217.5t-243 -145.5t-274.5 -54zM639 455q69 -62 192 -62q40 0 78 8t75.5 26t64.5 53.5t36 84.5
q18 111 -77 152v4q44 20 71 49.5t35 81.5q13 76 -32.5 114t-127.5 38q-104 0 -206 -74l30 -70q81 60 156 60q46 0 68 -21t16 -57q-8 -45 -41.5 -71t-91.5 -26h-62l-12 -69h61q63 0 93.5 -26.5t21.5 -78.5q-17 -94 -145 -94q-84 0 -144 51z" />
    <glyph glyph-name="uni2779" unicode="&#x2779;" horiz-adv-x="1554" 
d="M774 -16q-139 0 -255.5 54t-191.5 145t-106 217.5t-6 265.5q32 185 151.5 342.5t292 248.5t357.5 91q139 0 256 -54t192 -145t106.5 -217.5t6.5 -265.5t-101.5 -265t-184 -217.5t-243 -145.5t-274.5 -54zM610 575l-12 -67h287l-19 -109h99l18 109h64l14 78h-64l72 405
h-80zM721 586l219 248h4l-45 -248h-178z" />
    <glyph glyph-name="uni277A" unicode="&#x277a;" horiz-adv-x="1554" 
d="M774 -16q-139 0 -255.5 54t-191.5 145t-106 217.5t-6 265.5q32 185 151.5 342.5t292 248.5t357.5 91q139 0 256 -54t192 -145t106.5 -217.5t6.5 -265.5t-101.5 -265t-184 -217.5t-243 -145.5t-274.5 -54zM686 535l-59 -74q89 -76 209 -76q96 0 176.5 53t99.5 158
q10 55 0.5 96t-34.5 63.5t-56.5 33t-69.5 10.5q-54 0 -127 -31l-6 4l31 135h272l15 84h-344l-62 -270l47 -37q57 39 135 39q55 0 81.5 -34t17.5 -91q-10 -60 -56 -93.5t-114 -33.5q-80 0 -156 64z" />
    <glyph glyph-name="uni277B" unicode="&#x277b;" horiz-adv-x="1554" 
d="M774 -16q-139 0 -255.5 54t-191.5 145t-106 217.5t-6 265.5q32 185 151.5 342.5t292 248.5t357.5 91q139 0 256 -54t192 -145t106.5 -217.5t6.5 -265.5t-101.5 -265t-184 -217.5t-243 -145.5t-274.5 -54zM645 662q-22 -123 29 -197t164 -74q102 0 170 59.5t84 149.5
q14 86 -30.5 141.5t-141.5 55.5q-47 0 -90 -21.5t-66 -48.5h-4q13 76 67.5 136.5t133.5 60.5q60 0 122 -43l62 67q-77 58 -172 58q-115 0 -207 -87.5t-121 -256.5zM743 604q10 60 55.5 94.5t100.5 34.5q50 0 79.5 -33.5t18.5 -99.5t-54 -101.5t-93 -35.5q-51 0 -84.5 38.5
t-22.5 102.5z" />
    <glyph glyph-name="uni277C" unicode="&#x277c;" horiz-adv-x="1554" 
d="M774 -16q-139 0 -255.5 54t-191.5 145t-106 217.5t-6 265.5q32 185 151.5 342.5t292 248.5t357.5 91q139 0 256 -54t192 -145t106.5 -217.5t6.5 -265.5t-101.5 -265t-184 -217.5t-243 -145.5t-274.5 -54zM1032 870q-111 -139 -173.5 -235t-141.5 -258h106
q72 162 137.5 265.5t182.5 250.5l12 72h-397l-17 -86h293z" />
    <glyph glyph-name="uni277D" unicode="&#x277d;" horiz-adv-x="1554" 
d="M774 -16q-139 0 -255.5 54t-191.5 145t-106 217.5t-6 265.5q32 185 151.5 342.5t292 248.5t357.5 91q139 0 256 -54t192 -145t106.5 -217.5t6.5 -265.5t-101.5 -265t-184 -217.5t-243 -145.5t-274.5 -54zM645 561q-14 -77 39.5 -123.5t159.5 -46.5q107 0 176.5 46.5
t83.5 123.5q20 119 -84 160v4q82 36 100 129q11 66 -35 110t-133 44q-86 0 -147 -44t-72 -110q-17 -91 53 -129v-4q-56 -20 -93.5 -60t-47.5 -100zM856 459q-62 0 -90.5 29t-20.5 77q9 52 51.5 84.5t98.5 32.5q58 0 88 -31t21 -86q-9 -50 -47 -78t-101 -28zM909 758
q-46 0 -68.5 26t-15.5 70q8 37 38.5 62.5t78.5 25.5q47 0 68.5 -26t15.5 -62q-7 -44 -39.5 -70t-77.5 -26z" />
    <glyph glyph-name="uni277E" unicode="&#x277e;" horiz-adv-x="1554" 
d="M774 -16q-139 0 -255.5 54t-191.5 145t-106 217.5t-6 265.5q32 185 151.5 342.5t292 248.5t357.5 91q139 0 256 -54t192 -145t106.5 -217.5t6.5 -265.5t-101.5 -265t-184 -217.5t-243 -145.5t-274.5 -54zM715 508l-64 -66q70 -57 172 -57q115 0 207 87.5t121 256.5
q22 122 -29.5 196t-163.5 74q-102 0 -169.5 -59t-83.5 -149q-14 -87 31 -143t141 -56q47 0 89 21.5t66 48.5h4q-14 -76 -67 -136.5t-133 -60.5q-63 0 -121 43zM897 657q-50 0 -79.5 34t-18.5 100q11 65 54.5 101t92.5 36q51 0 84.5 -39t22.5 -103q-10 -60 -55.5 -94.5
t-100.5 -34.5z" />
    <glyph glyph-name="uniE000" unicode="&#xe000;" horiz-adv-x="1271" 
d="M760 -18q-189 0 -317.5 93t-179 263.5t-11.5 392.5q59 327 271.5 520t494.5 193q231 0 389 -96l-78 -144q-133 80 -321 80q-201 0 -360 -154t-206 -399q-32 -173 3.5 -309.5t127 -210.5t220.5 -74q200 0 356 90l41 -133q-206 -112 -430 -112zM1087 1536h-100l143 279h154
z" />
    <glyph glyph-name="uniE001" unicode="&#xe001;" horiz-adv-x="886" 
d="M512 -14q-83 0 -151.5 30t-116.5 89.5t-65.5 148.5t1.5 207q37 207 171 342t327 135q172 0 268 -74l-63 -112q-64 57 -191 57q-130 0 -221.5 -99t-120.5 -247q-30 -151 28 -247.5t181 -96.5q66 0 129.5 18t104.5 45l36 -112q-141 -84 -317 -84zM651 1094l150 317h149
l-205 -317h-94z" />
    <glyph glyph-name="uniE002" unicode="&#xe002;" horiz-adv-x="1304" 
d="M162 0l254 1434h168l420 -1110h4l217 1110h172l-252 -1434h-172l-418 1087h-6l-215 -1087h-172zM885 1536l145 279h152l-195 -279h-102z" />
    <glyph glyph-name="uniE003" unicode="&#xe003;" 
d="M297 0h-164l162 922h147l-22 -160h4q52 75 132.5 127.5t174.5 52.5q175 0 236.5 -112.5t21.5 -346.5l-86 -483h-164l80 449q19 107 18.5 184t-40 120.5t-121.5 43.5q-87 0 -161.5 -78t-121.5 -201zM764 1094h-94l149 317h150z" />
    <glyph glyph-name="uniE004" unicode="&#xe004;" horiz-adv-x="1429" 
d="M711 -20q-181 0 -299 93.5t-159 259.5t-3 384t137 384t250.5 259.5t333.5 93.5q181 0 299 -93.5t159 -259.5t3 -384t-137 -384t-250.5 -259.5t-333.5 -93.5zM438 717q-48 -260 27 -418t264 -158q190 0 326.5 158.5t187.5 417.5q26 127 18.5 232.5t-42.5 181.5
t-103.5 118.5t-163.5 42.5q-190 0 -326.5 -158t-187.5 -417zM1047 1536h-105l143 279h154z" />
    <glyph glyph-name="uniE005" unicode="&#xe005;" horiz-adv-x="1013" 
d="M504 -16q-85 0 -153.5 30.5t-115 90.5t-63 149.5t3.5 206.5q40 225 180 351t316 126q84 0 152 -30.5t115 -90.5t63.5 -149.5t-3.5 -206.5q-19 -114 -68 -206t-116 -150.5t-146.5 -89.5t-164.5 -31zM344 461q-29 -153 16 -246.5t160 -93.5q117 0 199 93.5t112 246.5
q29 155 -15.5 248.5t-160.5 93.5q-115 1 -198 -93.5t-113 -248.5zM748 1094h-97l148 317h151z" />
    <glyph glyph-name="uniE006" unicode="&#xe006;" horiz-adv-x="1140" 
d="M92 125l96 143q174 -127 371 -127q141 0 245.5 72t125.5 174q20 95 -47 156t-236 104q-192 47 -275.5 140t-54.5 266q30 179 174 285t340 106q235 0 416 -121l-96 -143q-67 48 -153.5 80t-176.5 32q-132 0 -217 -70t-106 -165q-21 -98 38 -152t203 -92
q109 -29 180.5 -61.5t122.5 -81t67 -116t-1 -159.5q-18 -103 -73 -183.5t-133.5 -128.5t-169 -72.5t-187.5 -24.5q-115 0 -242 38t-211 101zM911 1536h-102l145 279h152z" />
    <glyph glyph-name="uniE007" unicode="&#xe007;" horiz-adv-x="841" 
d="M412 -14q-100 0 -180.5 24t-127.5 60l62 110q94 -67 252 -67q78 0 132 34.5t66 90.5q12 60 -25 97t-140 73q-112 34 -167.5 100.5t-37.5 167.5q21 127 121.5 195.5t242.5 68.5q169 0 271 -74l-60 -110q-32 24 -90 40.5t-125 16.5q-75 0 -130.5 -34.5t-67.5 -86.5
q-12 -60 17 -90t99 -55q152 -48 212 -118t40 -183q-13 -82 -67 -142t-130.5 -89t-166.5 -29zM684 1094h-94l147 317h152z" />
    <glyph glyph-name="uniE008" unicode="&#xe008;" horiz-adv-x="1236" 
d="M424 1434h911l-18 -166l-955 -1100l-2 -6h723l-18 -162h-946l18 166l961 1102l2 6h-694zM983 1815h154l-195 -279h-102z" />
    <glyph glyph-name="uniE009" unicode="&#xe009;" horiz-adv-x="794" 
d="M270 922h613l-17 -138l-577 -657l-2 -6h448l-14 -121h-647l18 133l588 662l2 6h-426zM705 1411h149l-205 -317h-94z" />
    <glyph glyph-name="uniE00A" unicode="&#xe00a;" horiz-adv-x="1368" 
d="M559 -14q-72 6 -133.5 31.5t-105.5 65.5t-77 92.5t-48.5 112.5t-19.5 125.5t9 131.5q34 186 144 286.5t250 100.5q88 0 139 -49t63 -119q13 -82 -28 -174l2 -4q77 55 114.5 144t24.5 192h141q16 -131 -35.5 -242t-150 -184.5t-228 -117t-274.5 -50.5q22 -94 81.5 -154.5
t154.5 -67.5q109 -8 210 33t178.5 115t134 177.5t81.5 217t14.5 238t-59.5 235.5q-59 13 -136 44.5t-136 61t-132.5 52.5t-134.5 23q-101 0 -154.5 -54t-58.5 -143h-151q-2 63 18.5 120t60 102.5t104 72t144.5 26.5q75 0 155.5 -19t148 -46t131 -54t127 -46t114.5 -19
q64 0 124.5 33t74.5 86h153q-22 -93 -107.5 -161t-201.5 -83q52 -118 59 -254.5t-26 -264.5t-104 -245.5t-166.5 -202.5t-223 -130.5t-264.5 -34.5zM334 416q55 3 100.5 11t93 27t80 47t54 74.5t22.5 106.5q2 46 -28.5 83.5t-88.5 37.5q-56 0 -102.5 -33.5t-74 -85.5
t-42 -109t-14.5 -110q-3 -25 0 -49z" />
    <glyph glyph-name="uniE132" unicode="&#xe132;" horiz-adv-x="843" 
d="M193 -508l26 143h35q138 0 208 86t107 295l160 906h160l-162 -916q-22 -127 -57.5 -218t-93.5 -159.5t-144.5 -102.5t-204.5 -34h-34zM158 0l164 922h159l-164 -922h-159zM477 1094h-106l235 317h187zM885 1094h-107l236 317h186z" />
    <glyph glyph-name="uniE133" unicode="&#xe133;" horiz-adv-x="1273" 
d="M551 27l41 141q25 -13 80.5 -25t97.5 -12q78 0 131 29t93 103t65 202l176 969h170l-176 -969q-38 -244 -148.5 -362.5t-326.5 -118.5q-50 0 -114 14t-89 29zM342 0h-180l254 1434h178zM1391 1536h-121l203 279h180zM471 1536l201 279h182l-262 -279h-121z" />
    <glyph glyph-name="uniF026" unicode="&#xf026;" horiz-adv-x="1415" 
d="M469 -27q-191 0 -275.5 100.5t-54.5 268.5q12 69 44.5 130t69 103t97.5 88t103.5 72t115.5 66q-66 195 -43 323q26 148 122.5 235t225.5 87q118 0 181.5 -82t42.5 -197q-13 -72 -45 -132.5t-82 -110t-98.5 -85.5t-116.5 -77q82 -193 227 -365h4q137 159 285 426l114 -49
q-155 -289 -311 -467q185 -182 344 -182l-22 -125h-25q-192 0 -403 201q-245 -228 -500 -228zM299 348q-18 -107 40.5 -172t166.5 -65q176 0 364 176l2 4q-153 173 -249 389h-2q-56 -32 -89.5 -52.5t-79 -54.5t-72 -64.5t-50 -72.5t-31.5 -88zM666 1128q-17 -96 34 -251h5
q112 64 176 128t80 156q11 59 -20 105.5t-89 46.5q-65 0 -117 -49t-69 -136z" />
    <glyph glyph-name="uniF028" unicode="&#xf028;" horiz-adv-x="655" 
d="M371 -143q-178 372 -95 839q84 468 394 840h110q-288 -376 -368 -840q-41 -220 -24 -437.5t93 -401.5h-110z" />
    <glyph glyph-name="uniF029" unicode="&#xf029;" horiz-adv-x="657" 
d="M123 -143q141 184 235 399t134 440q83 467 -70 840h110q87 -184 110.5 -401.5t-17.5 -438.5q-38 -224 -138.5 -439t-253.5 -400h-110z" />
    <glyph glyph-name="uniF030" unicode="&#xf030;" horiz-adv-x="1206" 
d="M608 -14q-122 0 -210 53.5t-132.5 150t-56 231t19.5 296.5q39 217 125.5 380.5t219 258t294.5 94.5q121 0 206.5 -54t127.5 -151t51 -232t-22 -296q-40 -220 -121.5 -382t-210.5 -255.5t-291 -93.5zM412 717q-27 -167 -16.5 -295t72.5 -204.5t167 -76.5q81 1 149.5 44
t119.5 121.5t87 181.5t58 229q23 126 23 229t-22.5 182t-75.5 122.5t-134 43.5q-158 0 -270.5 -160.5t-157.5 -416.5z" />
    <glyph glyph-name="uniF031" unicode="&#xf031;" horiz-adv-x="804" 
d="M336 1053l-51 118l413 263h113l-254 -1434h-170l217 1221h-6z" />
    <glyph glyph-name="uniF032" unicode="&#xf032;" horiz-adv-x="1206" 
d="M150 0l22 127l600 553q47 44 76.5 73.5t77 84.5t77.5 111t39 110q21 123 -32 185.5t-168 62.5q-189 0 -367 -226l-108 72q39 54 87.5 102.5t113.5 95.5t147.5 75t169.5 28q190 0 281 -98t57 -291q-7 -40 -23.5 -81.5t-34.5 -74.5t-47.5 -72t-50.5 -64t-57.5 -60.5
t-53.5 -51.5t-53 -48t-43 -38l-459 -419v-6h705l-27 -150h-929z" />
    <glyph glyph-name="uniF033" unicode="&#xf033;" horiz-adv-x="1206" 
d="M592 -10q-139 0 -257 45.5t-185 111.5l92 129q165 -141 368 -141q152 0 245 70.5t118 204.5q22 118 -53.5 192t-214.5 74h-136l23 131h135q131 0 221.5 76.5t106.5 177.5q20 116 -39 175.5t-182 59.5q-99 0 -207.5 -46.5t-184.5 -106.5l-45 123q98 76 223 129t254 53
q67 0 124.5 -13t105.5 -40t77.5 -70t41.5 -103.5t-2 -138.5q-19 -111 -94 -200t-171 -129v-6q100 -42 155 -133t32 -220q-16 -88 -57.5 -159t-96 -116t-123 -75t-136.5 -42.5t-138 -12.5z" />
    <glyph glyph-name="uniF034" unicode="&#xf034;" horiz-adv-x="1157" 
d="M115 293l24 135l867 1006h139l-178 -1002h159l-24 -139h-160l-53 -293h-170l53 293h-657zM301 432h496l127 721h-6l-615 -713z" />
    <glyph glyph-name="uniF035" unicode="&#xf035;" horiz-adv-x="1206" 
d="M571 -10q-139 0 -260.5 50.5t-193.5 117.5l94 127q171 -150 367 -150q152 0 265 97.5t142 254.5q27 153 -39 236.5t-203 83.5q-83 0 -171.5 -34.5t-145.5 -74.5l-80 60l156 676h743l-26 -150h-613l-94 -420l6 -4q148 80 301 80q63 0 118 -14t106 -46t81.5 -84t43.5 -128
t-7 -179q-18 -100 -63 -184t-105 -141t-132.5 -97t-145.5 -58.5t-144 -18.5z" />
    <glyph glyph-name="uniF036" unicode="&#xf036;" horiz-adv-x="1206" 
d="M612 -14q-99 0 -177 31t-128.5 87.5t-80 136t-31.5 176.5t16 210q43 240 146.5 427t252 291.5t318.5 104.5q138 0 233.5 -59t138.5 -170l-122 -82q-81 166 -269 166q-117 0 -223.5 -78.5t-177.5 -204.5t-100 -274h6q57 87 161 144.5t224 57.5q89 0 160.5 -24.5t117 -67.5
t74.5 -102t33.5 -127.5t-6.5 -143.5q-18 -102 -63.5 -190.5t-115 -158.5t-169.5 -110t-218 -40zM381 492q-29 -163 43.5 -267t210.5 -104t240 95t131 255q28 162 -36 255t-210 93q-138 0 -245.5 -91.5t-133.5 -235.5z" />
    <glyph glyph-name="uniF037" unicode="&#xf037;" horiz-adv-x="1167" 
d="M309 0q66 129 123.5 236t130.5 227.5t110.5 183t135 208.5t127 189.5t158.5 233.5l2 6h-748l25 150h925l-24 -136q-278 -396 -440.5 -658.5t-352.5 -639.5h-172z" />
    <glyph glyph-name="uniF038" unicode="&#xf038;" horiz-adv-x="1206" 
d="M600 -18q-228 0 -350 109t-90 290q27 150 120 247.5t218 139.5q-81 42 -120.5 120.5t-17.5 194.5q29 168 169 270.5t333 102.5q191 0 294.5 -102.5t74.5 -270.5q-21 -116 -88 -195t-162 -120q113 -41 170 -138.5t31 -248.5q-34 -181 -194.5 -290t-387.5 -109zM342 391
q-22 -124 53.5 -208.5t225.5 -84.5q149 0 255 84.5t128 208.5q27 152 -48 235t-227 83q-150 0 -255.5 -83t-131.5 -235zM524 1085q-23 -129 42.5 -191.5t183.5 -62.5q137 0 215.5 67.5t99.5 186.5q20 107 -39 184t-184 77q-124 0 -210 -76.5t-108 -184.5z" />
    <glyph glyph-name="uniF039" unicode="&#xf039;" horiz-adv-x="1206" 
d="M160 213l123 82q81 -166 268 -166q117 0 223.5 79t178 205.5t100.5 274.5h-4q-58 -87 -162 -146t-225 -59q-89 0 -160.5 24.5t-117 67.5t-74.5 102t-33.5 127.5t6.5 143.5q18 102 63 191t114.5 158.5t169.5 110t218 40.5q124 0 214 -47.5t137.5 -132t62 -202
t-12.5 -257.5q-43 -241 -146.5 -428t-252 -292t-318.5 -105q-138 0 -233.5 59t-138.5 170zM455 963q-28 -162 35.5 -255.5t209.5 -93.5q138 0 245.5 92t133.5 236q29 163 -43.5 267t-210.5 104t-239.5 -95t-130.5 -255z" />
    <glyph glyph-name="uniF03A" unicode="&#xf03a;" horiz-adv-x="1206" 
d="M608 -14q-122 0 -210 53.5t-132.5 150t-56 231t19.5 296.5q39 217 125.5 380.5t219 258t294.5 94.5q121 0 206.5 -54t127.5 -151t51 -232t-22 -296q-40 -220 -121.5 -382t-210.5 -255.5t-291 -93.5zM412 717q-27 -167 -16.5 -295t72.5 -204.5t167 -76.5q81 1 149.5 44
t119.5 121.5t87 181.5t58 229q23 126 23 229t-22.5 182t-75.5 122.5t-134 43.5q-158 0 -270.5 -160.5t-157.5 -416.5z" />
    <glyph glyph-name="uniF03B" unicode="&#xf03b;" horiz-adv-x="1206" 
d="M205 0l26 152h316l190 1069h-6l-262 -168l-49 118l414 263h110l-227 -1282h315l-26 -152h-801z" />
    <glyph glyph-name="uniF03C" unicode="&#xf03c;" horiz-adv-x="1206" 
d="M150 0l22 127l600 553q47 44 76.5 73.5t77 84.5t77.5 111t39 110q21 123 -32 185.5t-168 62.5q-189 0 -367 -226l-108 72q39 54 87.5 102.5t113.5 95.5t147.5 75t169.5 28q190 0 281 -98t57 -291q-7 -40 -23.5 -81.5t-34.5 -74.5t-47.5 -72t-50.5 -64t-57.5 -60.5
t-53.5 -51.5t-53 -48t-43 -38l-459 -419v-6h705l-27 -150h-929z" />
    <glyph glyph-name="uniF03D" unicode="&#xf03d;" horiz-adv-x="1206" 
d="M592 -10q-139 0 -257 45.5t-185 111.5l92 129q165 -141 368 -141q152 0 245 70.5t118 204.5q22 118 -53.5 192t-214.5 74h-136l23 131h135q131 0 221.5 76.5t106.5 177.5q20 116 -39 175.5t-182 59.5q-99 0 -207.5 -46.5t-184.5 -106.5l-45 123q98 76 223 129t254 53
q67 0 124.5 -13t105.5 -40t77.5 -70t41.5 -103.5t-2 -138.5q-19 -111 -94 -200t-171 -129v-6q100 -42 155 -133t32 -220q-16 -88 -57.5 -159t-96 -116t-123 -75t-136.5 -42.5t-138 -12.5z" />
    <glyph glyph-name="uniF03E" unicode="&#xf03e;" horiz-adv-x="1206" 
d="M156 293l22 135l869 1006h137l-178 -1002h159l-24 -139h-160l-51 -293h-170l51 293h-655zM342 432h494l129 721h-7l-614 -713z" />
    <glyph glyph-name="uniF03F" unicode="&#xf03f;" horiz-adv-x="1206" 
d="M571 -10q-139 0 -260.5 50.5t-193.5 117.5l94 127q171 -150 367 -150q152 0 265 97.5t142 254.5q27 153 -39 236.5t-203 83.5q-83 0 -171.5 -34.5t-145.5 -74.5l-80 60l156 676h743l-26 -150h-613l-94 -420l6 -4q148 80 301 80q63 0 118 -14t106 -46t81.5 -84t43.5 -128
t-7 -179q-18 -100 -63 -184t-105 -141t-132.5 -97t-145.5 -58.5t-144 -18.5z" />
    <glyph glyph-name="uniF040" unicode="&#xf040;" horiz-adv-x="1206" 
d="M612 -14q-99 0 -177 31t-128.5 87.5t-80 136t-31.5 176.5t16 210q43 240 146.5 427t252 291.5t318.5 104.5q138 0 233.5 -59t138.5 -170l-122 -82q-81 166 -269 166q-117 0 -223.5 -79.5t-177.5 -206t-100 -274.5h4q57 87 162 146t225 59q89 0 160.5 -24.5t117 -67.5
t74.5 -102t33.5 -127.5t-6.5 -143.5q-18 -102 -63.5 -190.5t-115 -158.5t-169.5 -110t-218 -40zM381 492q-29 -163 43.5 -267t210.5 -104t240 95t131 255q28 162 -36 255t-210 93q-138 0 -245.5 -91.5t-133.5 -235.5z" />
    <glyph glyph-name="uniF041" unicode="&#xf041;" horiz-adv-x="1206" 
d="M330 0q128 251 257.5 470t226 364t300.5 444v6h-747l26 150h926l-25 -136q-277 -393 -440 -656.5t-352 -641.5h-172z" />
    <glyph glyph-name="uniF042" unicode="&#xf042;" horiz-adv-x="1206" 
d="M600 -18q-228 0 -350 109t-90 290q27 150 120 247.5t218 139.5q-81 42 -120.5 120.5t-17.5 194.5q29 168 169 270.5t333 102.5q191 0 294.5 -102.5t74.5 -270.5q-21 -116 -88 -195t-162 -120q113 -41 170 -138.5t31 -248.5q-34 -181 -194.5 -290t-387.5 -109zM342 391
q-22 -124 53.5 -208.5t225.5 -84.5q149 0 255 84.5t128 208.5q27 152 -48 235t-227 83q-150 0 -255.5 -83t-131.5 -235zM524 1085q-23 -129 42.5 -191.5t183.5 -62.5q137 0 215.5 67.5t99.5 186.5q20 107 -39 184t-184 77q-124 0 -210 -76.5t-108 -184.5z" />
    <glyph glyph-name="uniF043" unicode="&#xf043;" horiz-adv-x="1206" 
d="M160 213l123 82q81 -166 268 -166q117 0 223.5 79t178 205.5t100.5 274.5h-4q-58 -87 -162 -146t-225 -59q-89 0 -160.5 24.5t-117 67.5t-74.5 102t-33.5 127.5t6.5 143.5q18 102 63 191t114.5 158.5t169.5 110t218 40.5q124 0 214 -47.5t137.5 -132t62 -202
t-12.5 -257.5q-43 -241 -146.5 -428t-252 -292t-318.5 -105q-138 0 -233.5 59t-138.5 170zM455 963q-28 -162 35.5 -255.5t209.5 -93.5q138 0 245.5 92t133.5 236q29 163 -43.5 267t-210.5 104t-239.5 -95t-130.5 -255z" />
    <glyph glyph-name="uniF044" unicode="&#xf044;" horiz-adv-x="1083" 
d="M541 -14q-191 0 -291.5 135t-61.5 354q38 220 187.5 357t339.5 137q198 0 294 -135.5t56 -358.5q-40 -222 -183 -355.5t-341 -133.5zM365 475q-27 -143 29 -239.5t173 -96.5t206 96t116 240q26 145 -28.5 242.5t-174.5 97.5q-117 0 -206.5 -98t-114.5 -242z" />
    <glyph glyph-name="uniF045" unicode="&#xf045;" horiz-adv-x="663" 
d="M250 823l22 125l363 21l-172 -969h-168l147 834z" />
    <glyph glyph-name="uniF046" unicode="&#xf046;" horiz-adv-x="980" 
d="M109 0l24 139l449 287q59 38 94 64.5t71 73.5t44 98q13 75 -33 122t-123 47q-88 0 -172.5 -58.5t-145.5 -143.5l-79 88q78 109 192.5 183.5t253.5 74.5q104 0 175 -43t97 -110.5t11 -147.5q-10 -58 -37.5 -108t-69.5 -90.5t-79.5 -68.5t-88.5 -59l-299 -194v-7h508
l-24 -147h-768z" />
    <glyph glyph-name="uniF047" unicode="&#xf047;" horiz-adv-x="1040" 
d="M438 -303q-239 0 -383 137l92 123q66 -56 139.5 -84.5t174.5 -28.5q125 0 211 59t108 183q19 108 -53 162.5t-209 54.5h-129l23 121h129q127 0 207.5 57.5t95.5 151.5q15 91 -34.5 139.5t-150.5 48.5q-162 0 -333 -131l-47 121q100 75 198.5 118.5t218.5 43.5
q78 0 139.5 -17t107 -53t64 -98t3.5 -146q-19 -106 -81.5 -170.5t-162.5 -107.5v-6q227 -66 184 -305q-13 -73 -44.5 -132.5t-74.5 -99t-92 -68.5t-103.5 -44t-102.5 -22t-95 -7z" />
    <glyph glyph-name="uniF048" unicode="&#xf048;" horiz-adv-x="995" 
d="M39 -23l22 129l750 857h137l-151 -852h159l-22 -134h-160l-49 -278h-172l51 278h-565zM219 111h408l104 591h-4l-506 -583z" />
    <glyph glyph-name="uniF049" unicode="&#xf049;" horiz-adv-x="1028" 
d="M27 -143l94 125q37 -32 51.5 -44t52.5 -38t66 -37t71.5 -21t90.5 -10q137 0 226 76t116 229q26 148 -32.5 216.5t-174.5 68.5q-131 0 -262 -88l-80 67l129 562h678l-25 -140h-549l-76 -342l5 -4q6 3 24.5 12.5t25 13t23.5 11.5t25.5 11t24.5 9t28.5 8.5t29 5.5t33.5 4
t35 1q48 0 89.5 -7.5t84.5 -25.5t73 -48.5t53 -77t25.5 -110.5t-9.5 -149q-22 -124 -76.5 -214.5t-129 -139t-153 -70.5t-165.5 -22q-250 0 -422 168z" />
    <glyph glyph-name="uniF04A" unicode="&#xf04a;" horiz-adv-x="1028" 
d="M524 -14q-220 0 -305.5 154t-38.5 423q27 153 78 278t113 206.5t136 137t146 79.5t144 24q116 0 192.5 -33t145.5 -90l-105 -118q-32 25 -49.5 37t-49.5 28.5t-68 23.5t-81 7q-137 0 -252 -133t-159 -367h6q46 58 129.5 100.5t179.5 42.5q120 0 198.5 -54t106 -140.5
t8.5 -192.5q-33 -180 -155.5 -296.5t-319.5 -116.5zM350 403q-24 -133 31 -211.5t166 -78.5q100 0 179.5 74t102.5 202q22 122 -28.5 199.5t-157.5 77.5q-102 0 -187 -71t-106 -192z" />
    <glyph glyph-name="uniF04B" unicode="&#xf04b;" horiz-adv-x="978" 
d="M164 -328q70 150 138.5 278.5t116.5 213t135.5 214t132 192.5t169.5 237l2 6h-618l26 150h797l-25 -136q-182 -246 -279.5 -389.5t-201 -329.5t-217.5 -436h-176z" />
    <glyph glyph-name="uniF04C" unicode="&#xf04c;" horiz-adv-x="1083" 
d="M539 -18q-214 0 -321 92t-77 260q45 247 305 338q-158 87 -124 268q25 144 145.5 236t298.5 92t267.5 -92t62.5 -236q-32 -184 -215 -268q226 -86 180 -338q-30 -168 -169.5 -260t-352.5 -92zM319 344q-20 -111 43 -176t197 -64q138 0 222.5 64t105.5 176q20 118 -44 190
t-194 72t-220 -72t-110 -190zM485 942q-19 -100 35.5 -150.5t153.5 -50.5q97 0 169 50.5t91 150.5q17 95 -34 152t-155 57t-173.5 -56.5t-86.5 -152.5z" />
    <glyph glyph-name="uniF04D" unicode="&#xf04d;" horiz-adv-x="1028" 
d="M66 -201l102 121q32 -25 51 -37.5t50.5 -28.5t67.5 -23t81 -7q137 0 252 133t159 367h-6q-46 -59 -129.5 -102.5t-179.5 -43.5q-120 0 -198.5 54t-106 140.5t-8.5 192.5q15 86 53.5 160t97.5 131t144.5 90t187.5 33q219 0 301 -153t35 -423q-27 -153 -78 -278
t-113 -206.5t-136 -137t-146 -79.5t-144 -24q-117 0 -192.5 32.5t-144.5 88.5zM371 578q-22 -122 27.5 -199.5t156.5 -77.5q104 0 188.5 70t106.5 192q24 133 -27.5 211t-160.5 78q-102 0 -185.5 -74t-105.5 -200z" />
    <glyph glyph-name="uniF04E" unicode="&#xf04e;" horiz-adv-x="1040" 
d="M518 -14q-195 0 -296 134.5t-62 354.5q38 220 188 357t344 137q203 0 301 -135.5t58 -358.5q-38 -223 -183.5 -356t-349.5 -133zM336 475q-25 -144 31.5 -240t177.5 -96q123 0 213.5 95.5t115.5 240.5q26 146 -29 243t-179 97q-121 0 -213 -98t-117 -242z" />
    <glyph glyph-name="uniF04F" unicode="&#xf04f;" horiz-adv-x="1040" 
d="M162 0l26 147h283l123 687l-236 -11l23 125l405 21l-145 -822h268l-24 -147h-723z" />
    <glyph glyph-name="uniF050" unicode="&#xf050;" horiz-adv-x="1040" 
d="M104 0l25 139l469 287q88 54 142.5 108.5t66.5 127.5q13 75 -33 122t-123 47q-88 0 -172 -58.5t-145 -143.5l-82 88q80 110 194.5 184t253.5 74q104 0 175 -43t97 -110.5t11 -147.5q-20 -110 -93 -186.5t-181 -139.5l-314 -194v-7h551l-26 -147h-816z" />
    <glyph glyph-name="uniF051" unicode="&#xf051;" horiz-adv-x="1042" 
d="M436 -303q-241 0 -381 137l90 123q132 -113 314 -113q125 0 211 59t108 183q21 108 -51.5 162.5t-208.5 54.5h-131l23 121h129q127 0 207.5 57.5t95.5 151.5q15 91 -34.5 139.5t-150.5 48.5q-162 0 -333 -131l-48 121q99 75 199 118.5t219 43.5q78 0 140 -17t107.5 -53
t63.5 -98t3 -146q-19 -106 -81 -170.5t-161 -107.5l-2 -6q227 -66 184 -305q-13 -73 -44.5 -132.5t-74.5 -99t-92 -68.5t-103.5 -44t-102.5 -22t-95 -7z" />
    <glyph glyph-name="uniF052" unicode="&#xf052;" horiz-adv-x="1040" 
d="M639 -23h-565l22 129l750 857h137l-152 -852h166l-24 -134h-164l-49 -278h-170zM254 111h408l106 591h-6l-506 -583z" />
    <glyph glyph-name="uniF053" unicode="&#xf053;" horiz-adv-x="1040" 
d="M25 -143l94 125q45 -39 66.5 -55t67 -44t94 -39.5t106.5 -11.5q138 0 233 76.5t123 228.5q26 147 -38.5 218t-182.5 71q-142 0 -279 -92l-80 67l129 562h707l-25 -140h-577l-76 -342l6 -4q53 27 79.5 39t78 25.5t104.5 13.5q41 0 78 -5.5t76.5 -18.5t70 -34.5t58 -53.5
t40.5 -76t17.5 -101.5t-10.5 -130.5q-18 -100 -59.5 -179t-94.5 -128t-120 -81t-132 -45t-133 -13q-249 0 -421 168z" />
    <glyph glyph-name="uniF054" unicode="&#xf054;" horiz-adv-x="1040" 
d="M532 -14q-147 0 -236 72.5t-112 200.5t6 304q27 153 78 278t113 206.5t135.5 137t145.5 79.5t143 24q117 0 192.5 -33t147.5 -90l-105 -118q-41 32 -66.5 48.5t-75 32t-107.5 15.5q-136 0 -251.5 -133.5t-158.5 -366.5h6q46 59 129 101t180 42q73 0 131.5 -20.5t96 -56
t62 -84.5t28 -106t-5.5 -120q-31 -180 -155 -296.5t-321 -116.5zM358 403q-23 -133 32.5 -211.5t164.5 -78.5q102 0 181.5 74t103.5 202q21 122 -29.5 199.5t-157.5 77.5q-103 0 -188 -71t-107 -192z" />
    <glyph glyph-name="uniF055" unicode="&#xf055;" horiz-adv-x="1040" 
d="M211 -328q70 150 137 277t118 216t133 211t134.5 195t169.5 236v6h-678l27 150h856l-25 -136q-182 -246 -279.5 -389.5t-201 -329.5t-217.5 -436h-174z" />
    <glyph glyph-name="uniF056" unicode="&#xf056;" horiz-adv-x="1040" 
d="M516 -18q-203 0 -307 92.5t-74 259.5q22 127 99.5 211t189.5 127q-157 88 -125 268q25 144 146.5 236t299.5 92t266.5 -92t63.5 -236q-32 -184 -215 -268q209 -89 166 -338q-30 -167 -167.5 -259.5t-342.5 -92.5zM311 344q-19 -111 42 -176t186 -64q129 0 210.5 64
t102.5 176q20 117 -42 189.5t-181 72.5q-120 0 -209 -72.5t-109 -189.5zM463 942q-19 -100 35.5 -150.5t152.5 -50.5q99 0 170.5 50.5t89.5 150.5q17 96 -32.5 152.5t-153.5 56.5q-103 0 -173 -56.5t-89 -152.5z" />
    <glyph glyph-name="uniF057" unicode="&#xf057;" horiz-adv-x="1040" 
d="M68 -201l104 121q39 -32 66.5 -49t76 -32t107.5 -15q137 0 251.5 133t157.5 367h-4q-48 -59 -131 -102.5t-178 -43.5q-121 0 -199.5 54t-105.5 140.5t-8 192.5q15 86 53.5 160t97.5 131t144.5 90t187.5 33q219 0 301 -153t33 -423q-27 -153 -77.5 -278t-112.5 -206.5
t-135.5 -137t-145.5 -79.5t-143 -24q-117 0 -193 32t-147 89zM375 578q-22 -122 27.5 -199.5t156.5 -77.5q104 0 188.5 70t106.5 192q24 133 -27.5 211t-160.5 78q-102 0 -185.5 -74t-105.5 -200z" />
    <glyph glyph-name="uniF063" unicode="&#xf063;" horiz-adv-x="1832" 
d="M512 -14q-83 0 -151.5 30t-116 89.5t-64.5 148.5t2 207q37 207 171 342t327 135q72 0 121 -14l2 4q-47 71 -71 172t-9 188q21 116 107 188t214 72q66 0 177 -6t163 -6l-135 -768h4q51 73 128 123.5t167 50.5q175 0 236.5 -112.5t19.5 -346.5l-86 -483h-159l77 449
q18 107 16 184t-43.5 120.5t-123.5 43.5q-87 0 -161.5 -78.5t-119.5 -200.5l-92 -518h-160l254 1438q-13 0 -76 5t-106 5q-80 0 -127 -45.5t-61 -124.5q-19 -103 12.5 -204t97.5 -210l-69 -112q-64 57 -191 57q-133 0 -222.5 -99t-115.5 -247q-26 -150 33.5 -247t183.5 -97
q66 0 130.5 18.5t105.5 44.5l28 -112q-141 -84 -317 -84z" />
    <glyph glyph-name="uniF064" unicode="&#xf064;" horiz-adv-x="1748" 
d="M512 -14q-83 0 -151.5 30t-116 89.5t-64.5 148.5t2 207q37 207 171 342t327 135q72 0 121 -14l2 4q-47 71 -71 172t-9 188q21 116 107 188t214 72q66 0 177 -6t163 -6l-186 -1049h6l447 435h170l-369 -359l219 -563h-178l-166 440l-164 -159l-51 -281h-160l254 1438
q-13 0 -76 5t-106 5q-80 0 -127 -45.5t-61 -124.5q-32 -178 110 -414l-69 -112q-64 57 -191 57q-133 0 -222.5 -99t-115.5 -247q-26 -150 33.5 -247t183.5 -97q66 0 130.5 18.5t105.5 44.5l28 -112q-141 -84 -317 -84z" />
    <glyph glyph-name="uniF065" unicode="&#xf065;" horiz-adv-x="1519" 
d="M512 -14q-83 0 -151.5 30t-116 89.5t-64.5 148.5t2 207q37 207 171 342t327 135q62 0 111 -12l2 4q-50 57 -77 135.5t-14 157.5q20 102 99 162.5t213 60.5q69 0 149 -25t155.5 -54.5t121.5 -35.5l-74 -409h244l-23 -121h-237l-86 -492q-9 -63 -8 -102.5t17.5 -62
t36 -30.5t46.5 -8q59 0 108 35l-16 -98q-21 -20 -75 -36.5t-93 -16.5q-233 0 -182 297l92 514h-111l17 94l125 27l55 327q-18 7 -74 36t-105 46t-96 17q-74 0 -122 -39t-60 -111q-3 -19 -3.5 -38t3 -38t7.5 -35.5t13 -36.5t16 -34.5t20 -37t21.5 -36t24.5 -38.5t25 -40
l-69 -112q-64 57 -191 57q-133 0 -222.5 -99t-115.5 -247q-26 -150 33.5 -247t183.5 -97q66 0 130.5 18.5t105.5 44.5l28 -112q-141 -84 -317 -84z" />
    <glyph glyph-name="uniF066" unicode="&#xf066;" horiz-adv-x="1820" 
d="M106 70l72 118q39 -33 106 -54t140 -21q79 0 132 34.5t62 90.5q10 61 -27.5 97.5t-141.5 72.5q-112 34 -166.5 100.5t-36.5 167.5q22 128 123 196t243 68q58 0 123 -14l2 2q-48 73 -71.5 173.5t-8.5 186.5q22 118 111 189t219 71q65 0 199 -6t186 -6l-135 -768h6
q49 72 125.5 123t167.5 51q175 0 236.5 -112.5t19.5 -346.5l-86 -483h-160l80 449q17 107 14.5 184t-44 120.5t-123.5 43.5q-87 0 -161.5 -78.5t-119.5 -200.5l-92 -518h-160l256 1438q-2 0 -93.5 5t-137.5 5q-81 0 -131 -45.5t-64 -124.5q-19 -103 13 -204t98 -208
l-68 -114q-31 26 -88.5 43.5t-124.5 17.5q-77 0 -131 -34.5t-63 -86.5q-11 -60 19.5 -90t102.5 -55q151 -48 210.5 -118t39.5 -183q-22 -123 -126 -191.5t-242 -68.5q-99 0 -178.5 24t-125.5 60z" />
    <glyph glyph-name="uniF067" unicode="&#xf067;" horiz-adv-x="1736" 
d="M410 -14q-99 0 -178.5 24t-125.5 60l72 118q39 -33 106 -54t140 -21q79 0 132 34.5t62 90.5q10 61 -27.5 97.5t-141.5 72.5q-112 34 -166.5 100.5t-36.5 167.5q22 128 123 196t243 68q58 0 123 -14l2 2q-48 73 -71.5 173.5t-8.5 186.5q22 118 111 189t219 71q65 0 199 -6
t186 -6l-184 -1049h4l446 435h170l-368 -359l219 -563h-178l-166 440l-164 -159l-51 -281h-160l256 1438q-2 0 -93.5 5t-137.5 5q-81 0 -131 -45.5t-64 -124.5q-19 -103 13 -204t98 -208l-68 -114q-31 26 -88.5 43.5t-124.5 17.5q-77 0 -131 -34.5t-63 -86.5
q-11 -60 19.5 -90t102.5 -55q151 -48 210.5 -118t39.5 -183q-22 -123 -126 -191.5t-242 -68.5z" />
    <glyph glyph-name="uniF636" unicode="&#xf636;" horiz-adv-x="778" 
d="M371 924h-84q43 86 88.5 224t70.5 286h121q-25 -146 -82 -283.5t-114 -226.5zM678 940h-90q123 247 166 494h120q-48 -263 -196 -494z" />
    <glyph glyph-name="uniF637" unicode="&#xf637;" horiz-adv-x="475" 
d="M375 940h-84q117 244 160 494h120q-48 -263 -196 -494z" />
    <glyph glyph-name="uniF638" unicode="&#xf638;" horiz-adv-x="477" 
d="M434 940h-117q47 257 199 494h80q-114 -227 -162 -494z" />
    <glyph glyph-name="uniF639" unicode="&#xf639;" horiz-adv-x="475" 
d="M379 940h-80q114 227 162 494h117q-47 -257 -199 -494z" />
    <glyph glyph-name="uniF63A" unicode="&#xf63a;" horiz-adv-x="778" 
d="M717 940h-117q25 146 82 283t115 227h80q-44 -91 -89.5 -228t-70.5 -282zM295 940q44 256 197 494h86q-123 -246 -168 -494h-115z" />
    <glyph glyph-name="uniF63B" unicode="&#xf63b;" horiz-adv-x="778" 
d="M371 924h-84q43 86 88.5 224t70.5 286h121q-25 -146 -82 -283.5t-114 -226.5zM678 940h-90q123 247 166 494h120q-48 -263 -196 -494z" />
    <glyph glyph-name="uniF63C" unicode="&#xf63c;" horiz-adv-x="919" 
d="M225 643l6 39l420 403h92l-424 -419l-4 -17l252 -413h-86zM739 236l-258 407l8 39l420 403h92l-426 -419l-2 -17l250 -413h-84z" />
    <glyph glyph-name="uniF63D" unicode="&#xf63d;" horiz-adv-x="919" 
d="M514 236h-94l432 430l4 16l-256 403h80l262 -403l-8 -39zM258 236h-94l432 430l4 16l-258 403h82l260 -403l-8 -39z" />
    <glyph glyph-name="uniF63E" unicode="&#xf63e;" horiz-adv-x="661" 
d="M315 649l252 -413h-86l-256 407l6 39l420 403h92l-424 -419z" />
    <glyph glyph-name="uniF63F" unicode="&#xf63f;" horiz-adv-x="661" 
d="M596 666l4 16l-258 403h82l260 -403l-8 -39l-418 -407h-94z" />
    <glyph glyph-name="uniF640" unicode="&#xf640;" horiz-adv-x="471" 
d="M406 956q-47 0 -76.5 35t-20.5 82q8 48 47 82.5t90 34.5q47 0 76 -35t21 -82q-9 -48 -48 -82.5t-89 -34.5zM283 252q-49 0 -78 34.5t-21 82.5q9 48 49 82t91 34q46 0 74.5 -34.5t19.5 -81.5q-8 -48 -46.5 -82.5t-88.5 -34.5z" />
    <glyph glyph-name="uniF641" unicode="&#xf641;" horiz-adv-x="501" 
d="M393 1536h324l-10 -76h-211l-279 -1528h211l-10 -75h-324z" />
    <glyph glyph-name="uniF642" unicode="&#xf642;" horiz-adv-x="501" 
d="M315 1460l15 76h323l-299 -1679h-323l14 75h211l272 1528h-213z" />
    <glyph glyph-name="uniF643" unicode="&#xf643;" horiz-adv-x="477" 
d="M166 16l207 967h98l-137 -967h-168zM453 1229q-46 0 -75 35t-20 82q8 48 47 82t89 34q49 0 77.5 -34t20.5 -82q-9 -49 -48.5 -83t-90.5 -34z" />
    <glyph glyph-name="uniF644" unicode="&#xf644;" horiz-adv-x="733" 
d="M342 -18q-180 0 -271 93t-65 255q12 65 38 118.5t66 95.5t74.5 71t85.5 66.5t76 59.5q75 65 115.5 130t52.5 143h160q-10 -93 -55.5 -177.5t-153.5 -185.5q-23 -22 -75.5 -61.5t-89 -69.5t-72 -80t-46.5 -106q-21 -101 36.5 -157t156.5 -56q137 0 321 106l54 -123
q-104 -58 -196 -90t-212 -32zM618 1214q-47 0 -77.5 35t-26.5 84q6 47 43.5 82t87.5 35q49 0 80.5 -35.5t26.5 -81.5q-6 -51 -43.5 -85t-90.5 -34z" />
    <glyph glyph-name="uniF645" unicode="&#xf645;" horiz-adv-x="755" 
d="M389 395q19 102 -26 164t-134 62l19 106q89 0 154.5 62t84.5 165l62 340q21 115 112 178.5t248 63.5l-14 -76q-201 0 -236 -186l-59 -332q-16 -97 -80 -171.5t-170 -96.5q98 -22 135 -96.5t21 -171.5l-51 -287q-31 -187 170 -187l-15 -75q-157 0 -226 63t-48 178z" />
    <glyph glyph-name="uniF646" unicode="&#xf646;" horiz-adv-x="751" 
d="M94 -143l12 69q103 0 164 48.5t76 138.5l53 293q16 97 80.5 171.5t171.5 96.5q-99 22 -136 96t-21 172l61 338q15 90 -29 138t-147 48l12 70q154 0 222.5 -66.5t48.5 -175.5l-62 -340q-19 -103 26 -165t134 -62l-21 -106q-87 0 -152.5 -62t-84.5 -164l-53 -297
q-20 -109 -111 -175t-244 -66z" />
    <glyph glyph-name="uniF647" unicode="&#xf647;" horiz-adv-x="749" 
d="M395 1815h172l115 -279h-111z" />
    <glyph glyph-name="uniF648" unicode="&#xf648;" horiz-adv-x="835" 
d="M870 1567q-45 0 -74 33t-24 79q6 47 42.5 81t82.5 34q43 0 71.5 -34t22.5 -81q-4 -45 -41 -78.5t-80 -33.5zM473 1567q-46 0 -74 33t-22 79q4 47 41 81t82 34q44 0 72 -34t22 -81q-4 -46 -40.5 -79t-80.5 -33z" />
    <glyph glyph-name="uniF649" unicode="&#xf649;" horiz-adv-x="974" 
d="M408 1595l10 80h721l-11 -80h-720z" />
    <glyph glyph-name="uniF64A" unicode="&#xf64a;" horiz-adv-x="749" 
d="M788 1815h181l-260 -279h-121z" />
    <glyph glyph-name="uniF64B" unicode="&#xf64b;" horiz-adv-x="532" 
d="M240 1536l260 264h137l178 -264h-127l-129 160h-8l-184 -160h-127z" />
    <glyph glyph-name="uniF64C" unicode="&#xf64c;" horiz-adv-x="532" 
d="M440 1536l-180 264h129l129 -160h8l183 160h129l-260 -264h-138z" />
    <glyph glyph-name="uniF64D" unicode="&#xf64d;" horiz-adv-x="1013" 
d="M743 1499q-49 0 -92.5 13t-83 41t-60 82t-15.5 128h126q-3 -75 33.5 -116t104.5 -41t117.5 41t72.5 116h127q-17 -74 -53.5 -128t-84 -82t-95 -41t-97.5 -13z" />
    <glyph glyph-name="uniF64E" unicode="&#xf64e;" horiz-adv-x="471" 
d="M516 1567q-45 0 -74 33t-24 79q6 47 42.5 81t82.5 34q43 0 71.5 -34t22.5 -81q-4 -45 -41 -78.5t-80 -33.5z" />
    <glyph glyph-name="uniF64F" unicode="&#xf64f;" horiz-adv-x="622" 
d="M539 1466q-85 0 -140 59.5t-39 160.5q14 101 87.5 160t158.5 59t140.5 -59t39.5 -160q-16 -102 -89 -161t-158 -59zM457 1686q-11 -56 15 -94t77 -38q50 0 91 38.5t50 93.5q11 57 -15.5 94t-78.5 37q-50 1 -90 -37t-49 -94z" />
    <glyph glyph-name="uniF650" unicode="&#xf650;" horiz-adv-x="548" 
d="M274 -10q-106 0 -151.5 84t-18.5 225q24 138 99 222.5t182 84.5q105 0 147.5 -84t18.5 -223q-27 -143 -99 -226t-178 -83zM197 299q-19 -106 4 -165.5t88 -59.5q128 0 168 225q41 225 -88 225q-65 0 -109 -60t-63 -165z" />
    <glyph glyph-name="uniF651" unicode="&#xf651;" horiz-adv-x="382" 
d="M156 408l-27 63l186 117h66l-105 -588h-90l86 475h-4z" />
    <glyph glyph-name="uniF652" unicode="&#xf652;" horiz-adv-x="532" 
d="M70 0l14 74l235 213q23 20 34 30t32 32t33 45t16 48q6 40 -14.5 64t-61.5 24q-32 0 -62 -16.5t-46.5 -33.5t-42.5 -48l-60 41q102 137 232 137q78 0 118 -43.5t27 -117.5q-7 -43 -33 -84.5t-48.5 -64.5t-59.5 -56l-172 -156v-4h264l-16 -84h-389z" />
    <glyph glyph-name="uniF653" unicode="&#xf653;" horiz-adv-x="532" 
d="M254 -8q-119 0 -182 63l51 68q61 -51 141 -51q57 0 95 25t47 75t-21.5 76t-91.5 26h-57l12 68h57q55 0 90 27t43 71q13 82 -82 82q-76 0 -153 -57l-27 63q98 74 199 74q80 0 121.5 -36t27.5 -115q-8 -52 -34.5 -82t-69.5 -50v-4q94 -43 74 -149q-9 -49 -34.5 -84.5
t-61 -54t-71 -27t-73.5 -8.5z" />
    <glyph glyph-name="uniF654" unicode="&#xf654;" horiz-adv-x="555" 
d="M371 106h-275l10 66l355 416h71l-63 -410h63l-12 -72h-63l-19 -110h-84zM190 182v-4h193l43 283h-4z" />
    <glyph glyph-name="uniF655" unicode="&#xf655;" horiz-adv-x="524" 
d="M246 -16q-118 0 -197 75l51 70q55 -44 84 -56q31 -12 66 -12q67 0 112 37.5t56 98.5q19 127 -96 127q-70 0 -129 -41l-43 36l59 271h323l-12 -82h-260l-33 -146l4 -2q64 33 127 33q79 0 124 -45.5t28 -150.5q-13 -73 -57 -123t-97 -70t-110 -20z" />
    <glyph glyph-name="uniF656" unicode="&#xf656;" horiz-adv-x="538" 
d="M279 -8q-106 0 -154.5 73.5t-26.5 194.5q29 171 116 258.5t200 87.5q90 0 161 -57l-57 -66q-19 14 -30.5 21.5t-36 15.5t-50.5 8q-74 0 -127.5 -61t-68.5 -139h4q22 27 64.5 48t86.5 21q92 0 134 -56t26 -142q-14 -89 -79 -148t-162 -59zM190 205q-11 -66 19.5 -104
t81.5 -38q49 0 89.5 34.5t53.5 101.5q11 67 -17.5 101t-76.5 34q-54 0 -97 -34t-53 -95z" />
    <glyph glyph-name="uniF657" unicode="&#xf657;" horiz-adv-x="477" 
d="M111 -2q70 162 130 262.5t165 239.5v4h-281l12 84h381l-12 -70q-113 -153 -174 -257t-125 -263h-96z" />
    <glyph glyph-name="uniF658" unicode="&#xf658;" horiz-adv-x="538" 
d="M268 -10q-103 0 -152.5 46t-35.5 124q19 116 135 159v5q-66 40 -49 131q11 65 69 108t142 43q83 0 126 -42.5t32 -108.5q-17 -90 -97 -131l-2 -5q99 -41 80 -159q-14 -77 -80 -123.5t-168 -46.5zM174 164q-9 -52 17.5 -80.5t87.5 -28.5q124 0 143 109q10 57 -18 89
t-85 32q-58 0 -97 -31.5t-48 -89.5zM252 455q-9 -46 12.5 -73.5t67.5 -27.5q48 0 77 27t37 74q7 37 -13.5 62.5t-67.5 25.5t-77 -25.5t-36 -62.5z" />
    <glyph glyph-name="uniF659" unicode="&#xf659;" horiz-adv-x="538" 
d="M68 49l57 64q58 -43 117 -43q75 0 128 60.5t68 139.5h-4q-22 -28 -64 -49.5t-87 -21.5q-92 0 -134 55.5t-28 142.5q16 90 81.5 149.5t162.5 59.5q106 0 154 -74t26 -196q-29 -170 -116 -257t-200 -87q-96 0 -161 57zM209 397q-11 -67 17 -101t77 -34q53 0 96 34.5
t54 96.5q11 64 -20 103t-81 39t-91 -35t-52 -103z" />
    <glyph glyph-name="uniF65A" unicode="&#xf65a;" horiz-adv-x="868" 
d="M512 1548h-96q23 85 76 140t139 55q36 0 63.5 -11.5t44.5 -28.5t32 -33.5t34 -28t43 -11.5q45 0 74 29.5t41 71.5h96q-19 -84 -75 -141.5t-142 -57.5q-44 0 -77.5 17t-50.5 37t-42 37t-54 17q-77 0 -106 -92z" />
    <glyph glyph-name="uniF65B" unicode="&#xf65b;" horiz-adv-x="983" 
d="M729 1536l215 279h176l-264 -279h-127zM414 1536l202 279h175l-261 -279h-116z" />
    <glyph glyph-name="uniF65C" unicode="&#xf65c;" horiz-adv-x="473" 
d="M322 0h-164l161 922h164zM457 1212q-47 0 -76 34t-23 81q6 49 43.5 83t83.5 34t75.5 -34t23.5 -83q-6 -47 -44 -81t-83 -34z" />
    <glyph glyph-name="uniF660" unicode="&#xf660;" horiz-adv-x="548" 
d="M403 727q-107 0 -152 83.5t-20 225.5q25 138 100.5 222.5t182.5 84.5q105 0 147.5 -84t18.5 -223q-25 -142 -97.5 -225.5t-179.5 -83.5zM326 1036q-40 -225 88 -225t172 225q41 226 -82 226q-65 0 -111 -60.5t-67 -165.5z" />
    <glyph glyph-name="uniF661" unicode="&#xf661;" horiz-adv-x="382" 
d="M313 1165l-30 64l186 117h66l-103 -588h-92l88 475h-4z" />
    <glyph glyph-name="uniF662" unicode="&#xf662;" horiz-adv-x="532" 
d="M201 737l14 74l238 213q31 27 45.5 41.5t38 48.5t28.5 66q8 40 -12 64t-61 24q-32 0 -62 -17t-47 -34t-43 -48l-59 41q103 138 229 138q78 0 119 -44t28 -118q-7 -43 -34 -85t-48.5 -64t-60.5 -56l-172 -156v-4h264l-14 -84h-391z" />
    <glyph glyph-name="uniF663" unicode="&#xf663;" horiz-adv-x="532" 
d="M381 731q-120 0 -182 62l49 67q61 -51 141 -51q55 0 93 25t48 75t-19 76.5t-89 26.5h-57l8 67h59q55 0 90 27.5t43 71.5q16 82 -80 82q-73 0 -151 -58l-31 64q97 73 199 73q80 0 122 -36t29 -115q-10 -52 -36.5 -81.5t-69.5 -49.5v-4q94 -42 76 -150q-9 -49 -34.5 -84.5
t-61 -53.5t-71.5 -26t-75 -8z" />
    <glyph glyph-name="uniF664" unicode="&#xf664;" horiz-adv-x="534" 
d="M213 844l12 65l365 416h69l-73 -410h65l-14 -71h-64l-20 -109h-84l20 109h-276zM307 915h195l51 283h-4z" />
    <glyph glyph-name="uniF665" unicode="&#xf665;" horiz-adv-x="524" 
d="M369 721q-115 0 -195 76l51 69q30 -24 42.5 -33t43.5 -21.5t62 -12.5q68 0 113.5 37t56.5 98q22 127 -94 127q-75 0 -130 -41l-45 37l64 270h324l-15 -82h-258l-35 -145l4 -2q62 32 127 32q79 0 124 -45.5t26 -150.5q-13 -73 -58 -123t-98 -70t-110 -20z" />
    <glyph glyph-name="uniF666" unicode="&#xf666;" horiz-adv-x="538" 
d="M412 729q-106 0 -154.5 73.5t-26.5 194.5q29 171 116 258.5t200 87.5q91 0 162 -57l-58 -65q-20 15 -30.5 22t-34.5 15t-49 8q-76 0 -130 -61t-69 -140h4q22 27 65 48.5t87 21.5q92 0 133.5 -56t27.5 -143q-16 -90 -81 -148.5t-162 -58.5zM324 942q-11 -66 19 -103.5
t81 -37.5t91.5 34t51.5 101t-17 101t-77 34q-53 0 -95.5 -34t-53.5 -95z" />
    <glyph glyph-name="uniF667" unicode="&#xf667;" horiz-adv-x="477" 
d="M248 735q74 162 136.5 262.5t170.5 239.5v4h-281l17 84h379l-13 -70q-118 -155 -181.5 -258.5t-131.5 -261.5h-96z" />
    <glyph glyph-name="uniF668" unicode="&#xf668;" horiz-adv-x="538" 
d="M397 727q-102 0 -152 46t-38 124q19 117 135 160v4q-65 40 -51 131q11 65 69 108t140 43q83 0 126.5 -42.5t32.5 -108.5q-14 -90 -94 -131l-2 -4q101 -42 82 -160q-14 -77 -80 -123.5t-168 -46.5zM301 901q-8 -52 19 -80t88 -28q124 0 143 108q9 58 -19 89.5t-86 31.5
t-97 -31.5t-48 -89.5zM377 1192q-8 -46 14 -73t68 -27q48 0 77 26.5t37 73.5q5 37 -15.5 62.5t-68.5 25.5q-47 0 -76 -25.5t-36 -62.5z" />
    <glyph glyph-name="uniF669" unicode="&#xf669;" horiz-adv-x="538" 
d="M197 786l57 64q58 -43 117 -43q75 0 129 61t69 140h-4q-24 -29 -66.5 -50.5t-86.5 -21.5q-91 0 -133.5 56.5t-26.5 142.5q16 90 81 149t161 59q107 0 155 -74t27 -196q-31 -170 -118 -257t-200 -87q-96 0 -161 57zM338 1135q-11 -67 17.5 -101.5t76.5 -34.5q54 0 97 34.5
t53 96.5q11 64 -20 103t-81 39q-49 0 -89.5 -35t-53.5 -102z" />
    <glyph glyph-name="uniF66A" unicode="&#xf66a;" horiz-adv-x="815" 
d="M221 627l19 100h594l-19 -100h-594z" />
    <glyph glyph-name="uniF66B" unicode="&#xf66b;" horiz-adv-x="1171" 
d="M221 627l19 100h948l-17 -100h-950z" />
    <glyph glyph-name="uniF66C" unicode="&#xf66c;" horiz-adv-x="1765" 
d="M221 627l19 100h1544l-19 -100h-1544z" />
    <glyph glyph-name="uniF66D" unicode="&#xf66d;" horiz-adv-x="1189" 
d="M1253 1194l-16 -143l-805 -355v-8l664 -358l-19 -146l-829 459l14 102z" />
    <glyph glyph-name="uniF66E" unicode="&#xf66e;" horiz-adv-x="749" 
d="M129 0h-113l924 1434h115z" />
    <glyph glyph-name="uniF66F" unicode="&#xf66f;" horiz-adv-x="1189" 
d="M330 1053l26 141l832 -449l-19 -102l-993 -459l29 150l799 358l2 8z" />
    <glyph glyph-name="s_t" unicode="&#xfb06;" horiz-adv-x="1488" 
d="M104 70l72 118q39 -33 106 -54t140 -21q79 0 132 34.5t62 90.5q10 60 -27.5 97t-142.5 73q-237 72 -202 268q22 128 123 196t243 68q62 0 111 -12l2 4q-107 144 -82 291q18 103 96 163t213 60q69 0 149 -25t155.5 -54.5t121.5 -35.5l-73 -409h243l-22 -121h-238l-86 -492
q-9 -63 -8 -102.5t17.5 -62t36 -30.5t46.5 -8q60 0 109 35l-17 -96q-21 -21 -74 -38t-93 -17q-234 0 -183 297l92 514h-110l16 94l125 27l55 327q-18 7 -73.5 36t-104.5 46t-96 17q-77 0 -123.5 -38.5t-58.5 -111.5q-14 -74 18 -152t107 -180l-70 -114q-31 26 -88.5 43.5
t-124.5 17.5q-77 0 -131.5 -34.5t-63.5 -86.5q-11 -59 20 -89.5t103 -55.5q151 -48 210.5 -118t39.5 -183q-22 -123 -126 -191.5t-242 -68.5q-99 0 -178.5 24t-125.5 60z" />
    </font>
</defs>
</svg>
