<?xml version="1.0" standalone="no"?>
<!DOCTYPE svg PUBLIC "-//W3C//DTD SVG 1.1//EN" "http://www.w3.org/Graphics/SVG/1.1/DTD/svg11.dtd" >
<svg xmlns="http://www.w3.org/2000/svg" xmlns:xlink="http://www.w3.org/1999/xlink" version="1.1">
<metadata>
Created by FontForge 20170731 at Sun Aug  6 18:09:16 2023
 By Aleksey,,,
All rights reserved (c)2020 Nasir Udin.
</metadata>
<defs>
<font id="ProdaSans-Book" horiz-adv-x="1548" >
  <font-face 
    font-family="Proda Sans Book"
    font-weight="320"
    font-stretch="normal"
    units-per-em="2048"
    panose-1="2 11 0 0 4 0 0 0 0 3"
    ascent="1536"
    descent="-512"
    x-height="922"
    cap-height="1434"
    bbox="-369 -528 2298 1999"
    underline-thickness="102"
    underline-position="-358"
    unicode-range="U+000D-FB06"
  />
<missing-glyph horiz-adv-x="933" 
d="M848 0h-762v1434h762v-1434zM164 1358v-1282h604v1282h-604z" />
    <glyph glyph-name="uniF058" unicode="ffb" horiz-adv-x="2322" 
d="M45 795v114l141 13v94q0 243 98.5 361t268.5 118q104 0 190 -37v-143q-84 41 -163 41q-122 0 -173 -96.5t-51 -282.5v-55h426v135q0 242 105.5 360.5t281.5 118.5q110 0 203 -33v33h170v-741h6q94 143 275 143q114 0 204 -53.5t144.5 -163t54.5 -260.5q0 -113 -33 -205
t-89 -150.5t-127 -90t-150 -31.5q-95 0 -170 40.5t-123 116.5h-6l-10 -141h-146v1362q-94 35 -174 35q-248 0 -248 -379v-96h275v-127h-275v-795h-168v795h-426v-795h-170v795h-141zM1788 803q-114 0 -180 -95.5t-66 -250.5q0 -138 70 -240t176 -102q117 0 187.5 99.5
t70.5 246.5q0 149 -67.5 246t-190.5 96z" />
    <glyph glyph-name="uniF059" unicode="fb" horiz-adv-x="1726" 
d="M186 795h-141v114l141 13v135q0 123 29.5 216.5t82.5 150t122 84.5t153 28q114 0 203 -33v33h170v-741h6q94 143 275 143q114 0 204 -53.5t144.5 -163t54.5 -260.5q0 -113 -33 -205t-89 -150.5t-127 -90t-150 -31.5q-189 0 -293 157h-6l-10 -141h-146v1362
q-90 35 -174 35q-246 0 -246 -379v-96h275v-127h-275v-795h-170v795zM1194 803q-115 0 -181.5 -95.5t-66.5 -250.5q0 -137 71 -239.5t177 -102.5q117 0 187.5 99.5t70.5 246.5q0 149 -68 246t-190 96z" />
    <glyph glyph-name="uniF05A" unicode="ffh" horiz-adv-x="2295" 
d="M45 909l141 13v94q0 243 98.5 361t268.5 118q104 0 190 -37v-143q-84 41 -163 41q-122 0 -173 -96.5t-51 -282.5v-55h426v135q0 242 105.5 360.5t281.5 118.5q110 0 203 -33v33h170v-768h6q39 72 109.5 123t165.5 51q184 0 270 -112.5t86 -346.5v-483h-168v449
q0 172 -50 260t-177 88q-91 0 -154 -78.5t-88 -200.5v-518h-170v1362q-94 35 -174 35q-248 0 -248 -379v-96h275v-127h-275v-795h-168v795h-426v-795h-170v795h-141v114z" />
    <glyph glyph-name="uniF05B" unicode="fh" horiz-adv-x="1699" 
d="M45 795v114l141 13v135q0 242 105.5 360.5t281.5 118.5q114 0 203 -33v33h170v-768h6q41 73 112 123.5t165 50.5q184 0 269 -112.5t85 -346.5v-483h-168v449q0 172 -50 260t-177 88q-91 0 -153.5 -78t-88.5 -201v-518h-170v1362q-90 35 -174 35q-246 0 -246 -379v-96h275
v-127h-275v-795h-170v795h-141z" />
    <glyph glyph-name="uniF05C" unicode="ffj" horiz-adv-x="1679" 
d="M45 795v114l141 13v94q0 243 98.5 361t268.5 118q104 0 190 -37v-143q-84 41 -163 41q-122 0 -173 -96.5t-51 -282.5v-55h426v135q0 243 109.5 362t292.5 119q77 0 155.5 -18t120.5 -39l-63 -133q-30 19 -87 35t-104 16q-131 0 -193.5 -100t-62.5 -281v-96h576v-895
q0 -126 -21 -220.5t-67.5 -166.5t-128 -109t-197.5 -37v139q132 0 188 96.5t56 307.5v758h-406v-795h-168v795h-426v-795h-170v795h-141z" />
    <glyph glyph-name="uniF05D" unicode="fj" horiz-adv-x="1083" 
d="M186 795h-141v114l141 13v135q0 243 109.5 362t292.5 119q78 0 156 -18t120 -39l-63 -133q-30 18 -87 34.5t-102 16.5q-131 0 -193.5 -100t-62.5 -281v-96h574v-895q0 -126 -21 -220.5t-67.5 -166.5t-128 -109t-197.5 -37v139q134 0 189 96t55 308v758h-404v-795h-170
v795z" />
    <glyph glyph-name="uniF05E" unicode="ffk" horiz-adv-x="2207" 
d="M45 909l141 13v94q0 243 98.5 361t268.5 118q104 0 190 -37v-143q-84 41 -163 41q-122 0 -173 -96.5t-51 -282.5v-55h426v135q0 242 105.5 360.5t281.5 118.5q110 0 203 -33v33h170v-1049h6l387 435h181l-322 -359l336 -563h-188l-256 440l-144 -159v-281h-170v1362
q-94 35 -174 35q-248 0 -248 -379v-96h275v-127h-275v-795h-168v795h-426v-795h-170v795h-141v114z" />
    <glyph glyph-name="uniF05F" unicode="fk" horiz-adv-x="1611" 
d="M186 795h-141v114l141 13v135q0 242 105.5 360.5t281.5 118.5q114 0 203 -33v33h170v-1049h6l389 435h179l-322 -359l336 -563h-186l-258 440l-144 -159v-281h-170v1362q-90 35 -174 35q-246 0 -246 -379v-96h275v-127h-275v-795h-170v795z" />
    <glyph glyph-name="uniF060" unicode="ft" horiz-adv-x="1261" 
d="M45 795v114l141 13v135q0 243 98.5 361t268.5 118q93 0 174 -35v-141q-72 37 -147 37q-122 0 -173 -96.5t-51 -282.5v-96h416l45 323h119v-323h250v-125h-250v-488q0 -60 11 -102t31 -63t42 -29.5t51 -8.5q64 0 109 35v-96q-20 -21 -73 -38t-95 -17q-246 0 -246 297v508
h-410v-795h-170v795h-141z" />
    <glyph glyph-name="f_f" unicode="ff" horiz-adv-x="1284" 
d="M186 795h-141v114l141 13v94q0 243 98.5 361t268.5 118q104 0 190 -37v-143q-84 41 -163 41q-122 0 -173 -96.5t-51 -282.5v-55h426v135q0 243 98.5 361t266.5 118q109 0 190 -37v-143q-80 41 -161 41q-122 0 -174 -97t-52 -282v-96h281v-127h-281v-795h-168v795h-426
v-795h-170v795z" />
    <glyph glyph-name="fi" unicode="fi" horiz-adv-x="1075" 
d="M186 795h-141v114l141 13v135q0 243 109.5 362t292.5 119q78 0 156 -18t120 -39l-63 -133q-30 18 -87 34.5t-102 16.5q-131 0 -193.5 -100t-62.5 -281v-96h559v-922h-170v795h-389v-795h-170v795z" />
    <glyph glyph-name="fl" unicode="fl" horiz-adv-x="1083" 
d="M186 795h-141v114l141 13v135q0 242 106.5 360.5t285.5 118.5q109 0 198 -33v33h170v-1536h-170v1362q-90 35 -170 35q-250 0 -250 -379v-96h275v-127h-275v-795h-170v795z" />
    <glyph glyph-name="f_f_i" unicode="ffi" horiz-adv-x="1671" 
d="M45 909l141 13v94q0 243 98.5 361t268.5 118q104 0 190 -37v-143q-84 41 -163 41q-122 0 -173 -96.5t-51 -282.5v-55h426v135q0 242 110 361.5t292 119.5q78 0 156 -18t120 -39l-63 -133q-28 18 -86 34.5t-103 16.5q-131 0 -193.5 -100t-62.5 -281v-96h559v-922h-170v795
h-389v-795h-170v795h-426v-795h-170v795h-141v114z" />
    <glyph glyph-name="f_f_l" unicode="ffl" horiz-adv-x="1679" 
d="M45 909l141 13v94q0 243 98.5 361t268.5 118q104 0 190 -37v-143q-84 41 -163 41q-122 0 -173 -96.5t-51 -282.5v-55h426v135q0 242 106.5 360.5t285.5 118.5q105 0 198 -33v33h170v-1536h-170v1362q-94 35 -172 35q-250 0 -250 -379v-96h275v-127h-275v-795h-168v795
h-426v-795h-170v795h-141v114z" />
    <glyph glyph-name="longs_t" unicode="&#x17f;t" horiz-adv-x="1220" 
d="M186 0v1016q0 128 29 222t82.5 148.5t121.5 80.5t152 26q80 0 185 -21.5t139 -37.5v-512h250v-125h-250v-488q0 -60 11 -102t31 -63t42 -29.5t51 -8.5q64 0 109 35v-96q-20 -21 -73 -38t-95 -17q-246 0 -246 297v510h-117v98l123 27l41 407q-121 27 -184 27
q-232 0 -232 -379v-977h-170z" />
    <glyph glyph-name=".notdef" horiz-adv-x="933" 
d="M848 0h-762v1434h762v-1434zM164 1358v-1282h604v1282h-604z" />
    <glyph glyph-name="uni0000" horiz-adv-x="0" 
 />
    <glyph glyph-name="uni0000" horiz-adv-x="0" 
 />
    <glyph glyph-name="uni000D" unicode="&#xd;" horiz-adv-x="512" 
 />
    <glyph glyph-name="space" unicode=" " horiz-adv-x="552" 
 />
    <glyph glyph-name="exclam" unicode="!" horiz-adv-x="495" 
d="M160 1434h176l-37 -967h-102zM252 -12q-49 0 -84 34.5t-35 81.5q0 49 34.5 83t84.5 34q46 0 80.5 -34t34.5 -83q0 -47 -34.5 -81.5t-80.5 -34.5z" />
    <glyph glyph-name="quotedbl" unicode="&#x22;" horiz-adv-x="823" 
d="M221 1032h-88q32 90 57 224t25 280h129q0 -145 -37.5 -278t-85.5 -226zM465 1042q82 230 82 494h129q0 -252 -121 -494h-90z" />
    <glyph glyph-name="numbersign" unicode="#" horiz-adv-x="1429" 
d="M354 385h-288l16 96h305l123 344h-254l16 97h273l147 409h117l-145 -409h315l145 409h119l-147 -409h235l-16 -97h-252l-123 -344h203l-17 -96h-221l-137 -385h-119l137 385h-315l-137 -385h-117zM506 481h315l123 344h-315z" />
    <glyph glyph-name="dollar" unicode="$" horiz-adv-x="1161" 
d="M63 182l76 127q200 -127 402 -127q148 0 230.5 53t82.5 148q0 92 -78.5 151.5t-247.5 94.5q-207 45 -307 130.5t-100 241.5q0 153 105 239.5t282 98.5v189h119v-189q197 -13 377 -116l-72 -123q-70 48 -167.5 78t-184.5 30q-141 0 -209 -52.5t-68 -145.5
q0 -88 70.5 -138.5t214.5 -83.5q234 -54 341 -141t107 -256q-1 -73 -24.5 -130.5t-62.5 -96t-95 -64.5t-116.5 -38.5t-131.5 -16.5v-199h-119v199q-108 9 -224 46t-200 91z" />
    <glyph glyph-name="percent" unicode="%" horiz-adv-x="1419" 
d="M750 322q0 157 78.5 248.5t207.5 91.5q128 0 203.5 -92t75.5 -248q0 -158 -75 -248t-204 -90t-207.5 90t-78.5 248zM393 774q-129 0 -208 90t-79 246q0 157 79 248.5t208 91.5t204 -91t75 -249q0 -157 -75.5 -246.5t-203.5 -89.5zM848 322q0 -121 51.5 -191t136.5 -68
q86 0 133.5 68.5t47.5 190.5q0 121 -47.5 190.5t-133.5 69.5q-85 0 -136.5 -70.5t-51.5 -189.5zM205 1110q0 -120 51 -189t137 -69t133 68t47 190t-47 192t-133 70q-85 0 -136.5 -70.5t-51.5 -191.5zM440 20h-90l641 1393h90z" />
    <glyph glyph-name="ampersand" unicode="&#x26;" horiz-adv-x="1556" 
d="M520 -27q-211 0 -324.5 100.5t-113.5 268.5q0 50 12.5 95.5t30.5 81t50.5 71.5t60.5 60.5t74 55t77 48.5t82 47q-113 195 -113 323q0 148 91 235t233 87q130 0 215.5 -82t85.5 -197q0 -72 -23 -132.5t-68.5 -110t-92.5 -85.5t-115 -77q129 -193 324 -365h4
q127 167 231 426l137 -49q-117 -290 -254 -467q242 -182 418 -182v-125h-26q-212 0 -488 201q-225 -228 -508 -228zM547 680q-56 -33 -88 -53t-76 -54.5t-67 -64t-40.5 -72t-17.5 -88.5q0 -107 78 -172t199 -65q195 0 368 176v4q-98 84 -190.5 186.5t-161.5 202.5h-4z
M512 1128q0 -101 88 -251h4q53 31 88.5 57t70 60.5t51.5 76t17 90.5q0 60 -43 106t-108 46q-71 0 -119.5 -49t-48.5 -136z" />
    <glyph glyph-name="quotesingle" unicode="'" horiz-adv-x="491" 
d="M221 1042h-88q82 230 82 494h129q0 -258 -123 -494z" />
    <glyph glyph-name="parenleft" unicode="(" horiz-adv-x="651" 
d="M393 -287q-118 180 -179.5 414.5t-61.5 466.5t61.5 466.5t179.5 414.5h111q-106 -181 -162.5 -416t-56.5 -465t56.5 -465t162.5 -416h-111z" />
    <glyph glyph-name="parenright" unicode=")" horiz-adv-x="649" 
d="M145 1475h111q118 -181 181 -416t63 -465t-63 -465t-181 -416h-111q107 180 163.5 415t56.5 466t-56.5 466t-163.5 415z" />
    <glyph glyph-name="asterisk" unicode="*" horiz-adv-x="1046" 
d="M156 1145q-28 0 -41.5 18.5t-5.5 44.5l22 70q11 33 45 33q18 0 31 -8l282 -152l9 4l-56 318q-8 26 5.5 44.5t39.5 18.5h74q26 0 39.5 -18.5t7.5 -44.5l-57 -318l8 -4l285 152q13 8 28 8q35 0 46 -33l22 -70q7 -26 -6 -44.5t-39 -18.5l-320 -45l-4 -8l234 -226
q21 -15 21 -38t-23 -40l-58 -43q-17 -10 -30 -10q-33 0 -45 35l-140 289h-10l-141 -289q-12 -35 -45 -35q-12 0 -29 10l-59 43q-22 17 -22 40t22 38l231 226l-4 8z" />
    <glyph glyph-name="plus" unicode="+" horiz-adv-x="1081" 
d="M469 469h-363v125h365v387h139v-387h365v-125h-365v-383h-139z" />
    <glyph glyph-name="comma" unicode="," horiz-adv-x="577" 
d="M188 -219h-108q47 81 81 197t38 239l188 31q-13 -121 -75.5 -259.5t-123.5 -207.5z" />
    <glyph glyph-name="hyphen" unicode="-" horiz-adv-x="827" 
d="M113 473v100h602v-100h-602z" />
    <glyph glyph-name="period" unicode="." horiz-adv-x="489" 
d="M127 104q0 49 34.5 83t84.5 34q46 0 80 -34t34 -83q0 -47 -34 -81.5t-80 -34.5q-49 0 -84 34.5t-35 81.5z" />
    <glyph glyph-name="slash" unicode="/" horiz-adv-x="743" 
d="M-10 -51l686 1587h115l-687 -1587h-114z" />
    <glyph glyph-name="zero" unicode="0" horiz-adv-x="1230" 
d="M625 -14q-248 0 -384.5 182t-136.5 498q0 202 60 355t178.5 240t282.5 87q102 0 185 -32.5t141.5 -92.5t98 -145t58 -188t18.5 -224q0 -158 -29.5 -282t-90 -213.5t-157 -137t-224.5 -47.5zM295 666q0 -247 81.5 -386t246.5 -139q85 1 146 37.5t97.5 106.5t53 164
t16.5 217t-16.5 216.5t-52.5 164.5t-97 108t-147 37q-166 0 -247 -140t-81 -386z" />
    <glyph glyph-name="one" unicode="1" horiz-adv-x="839" 
d="M154 950l-76 119l387 262h117v-1331h-179v1118h-6z" />
    <glyph glyph-name="two" unicode="2" horiz-adv-x="1189" 
d="M135 1051q30 55 68.5 102.5t95.5 95t136 75.5t169 28q197 0 308.5 -95t111.5 -272q0 -59 -18 -118t-40 -100.5t-63.5 -93t-64.5 -76t-68 -69.5l-375 -372v-6h672v-150h-913v143l481 465q205 200 205 365q0 113 -65 172t-185 59q-60 0 -111 -18.5t-91 -54t-67.5 -70.5
t-58.5 -84z" />
    <glyph glyph-name="three" unicode="3" horiz-adv-x="1191" 
d="M573 -10q-140 0 -258 37t-196 100l74 127q165 -119 372 -119q155 0 235.5 58.5t80.5 187.5q0 117 -92.5 185.5t-241.5 68.5h-129v121h129q141 0 220 62t79 167q-3 209 -254 209q-95 0 -189.5 -38t-160.5 -93l-72 121q193 162 432 162q90 0 162.5 -18.5t130 -57t89 -104.5
t32.5 -156q0 -118 -53.5 -186t-151.5 -111v-6q112 -43 181.5 -126.5t68.5 -213.5q0 -87 -30.5 -155t-78.5 -109t-114 -67.5t-130.5 -36t-134.5 -9.5z" />
    <glyph glyph-name="four" unicode="4" horiz-adv-x="1148" 
d="M63 408l680 923h146v-917h168v-135h-168v-279h-180v279h-646v129zM246 422v-8h463v637h-7z" />
    <glyph glyph-name="five" unicode="5" horiz-adv-x="1173" 
d="M569 -10q-146 0 -272 49t-219 119l76 127q47 -34 81 -55t85 -46t107.5 -37t119.5 -12q163 0 260.5 87t97.5 241q0 152 -81.5 227.5t-227.5 75.5q-88 0 -165 -28.5t-128 -67.5l-94 67l31 594h757v-143h-620l-19 -363l7 -4q46 23 80 36.5t90.5 25.5t117.5 12q67 0 127 -12
t119 -43t101 -78.5t68 -125t26 -177.5q0 -99 -31.5 -180t-83.5 -134t-121 -88.5t-141 -51t-148 -15.5z" />
    <glyph glyph-name="six" unicode="6" horiz-adv-x="1206" 
d="M625 -14q-241 0 -383 158.5t-142 424.5q0 194 45.5 344.5t127 244.5t187.5 142t232 48q65 0 124 -11t110.5 -31.5t85 -38t75.5 -42.5l-90 -119q-53 31 -85 47t-92 32.5t-122 16.5q-126 0 -219.5 -68.5t-141 -183t-48.5 -258.5h6q44 90 135.5 151.5t216.5 61.5
q105 0 192 -37t144.5 -99.5t89 -144t31.5 -171.5q0 -96 -31.5 -180t-90 -148.5t-151 -101.5t-206.5 -37zM309 446q0 -79 27 -143t72.5 -103t101 -60t115.5 -21q125 0 214 87.5t89 239.5q0 156 -84.5 243t-218.5 87q-122 0 -219 -94.5t-97 -235.5z" />
    <glyph glyph-name="seven" unicode="7" horiz-adv-x="1064" 
d="M788 1182h-692v149h879v-135q-194 -329 -303.5 -572.5t-235.5 -623.5h-184q126 367 236 606t300 570v6z" />
    <glyph glyph-name="eight" unicode="8" horiz-adv-x="1206" 
d="M602 -18q-232 0 -369.5 99.5t-136.5 268.5q0 136 76.5 228t198.5 135q-197 94 -197 288q0 148 118.5 248.5t309.5 100.5t310.5 -100.5t119.5 -248.5q0 -196 -192 -288q124 -42 197 -133.5t73 -229.5q0 -169 -138.5 -268.5t-369.5 -99.5zM602 651q-149 0 -234 -79
t-85 -214q2 -119 84 -189.5t235 -70.5q157 0 238.5 70.5t81.5 189.5q0 135 -84 214t-236 79zM346 1004q-1 -105 75 -165.5t181 -60.5t180.5 60.5t75.5 165.5q0 103 -68 169t-188 66q-119 0 -186.5 -66t-69.5 -169z" />
    <glyph glyph-name="nine" unicode="9" horiz-adv-x="1206" 
d="M100 879q0 129 54 233.5t165 169t261 64.5q244 0 384 -152t140 -418q0 -194 -45.5 -346.5t-126 -249t-187 -146.5t-231.5 -50q-123 0 -216 33t-179 87l80 121q158 -98 305 -98q125 0 220 69.5t144 184.5t50 258h-7q-46 -90 -137.5 -151.5t-214.5 -61.5q-139 0 -245.5 64
t-160 166t-53.5 223zM276 885q0 -156 85 -243t219 -87q79 0 151 41t119 118t47 171q0 79 -27.5 143t-73 103t-101 60t-115.5 21q-125 0 -214.5 -87.5t-89.5 -239.5z" />
    <glyph glyph-name="colon" unicode=":" horiz-adv-x="487" 
d="M127 104q0 49 34.5 83t84.5 34q46 0 80 -34t34 -83q0 -47 -34 -81.5t-80 -34.5q-49 0 -84 34.5t-35 81.5zM127 801q0 49 34.5 84t84.5 35q46 0 80 -35t34 -84q0 -46 -34.5 -81.5t-79.5 -35.5q-49 0 -84 35.5t-35 81.5z" />
    <glyph glyph-name="semicolon" unicode=";" horiz-adv-x="536" 
d="M68 -219q46 79 79 195.5t37 240.5l191 31q-14 -122 -76.5 -260.5t-122.5 -206.5h-108zM154 797q0 48 34.5 82t83.5 34q46 0 80.5 -34.5t34.5 -81.5t-34.5 -82t-80.5 -35q-49 0 -83.5 34.5t-34.5 82.5z" />
    <glyph glyph-name="less" unicode="&#x3c;" horiz-adv-x="1191" 
d="M1069 55l-960 461v102l960 447v-141l-776 -351v-10l776 -358v-150z" />
    <glyph glyph-name="equal" unicode="=" horiz-adv-x="1081" 
d="M965 254h-848v125h848v-125zM117 657v125h848v-125h-848z" />
    <glyph glyph-name="greater" unicode="&#x3e;" horiz-adv-x="1191" 
d="M80 205l776 358v10l-776 351v141l958 -447v-102l-958 -461v150z" />
    <glyph glyph-name="question" unicode="?" horiz-adv-x="966" 
d="M92 1333q98 57 190.5 89t217.5 32q189 0 301 -92.5t112 -253.5q0 -65 -17.5 -119t-51 -96t-64 -71t-76 -66.5t-67.5 -59.5q-66 -66 -95.5 -130t-29.5 -142h-166q-5 92 28.5 176t127.5 184q20 22 66 61.5t78.5 69.5t59.5 80.5t27 106.5q0 101 -73 157t-177 56
q-145 0 -319 -107zM440 -12q-49 0 -83.5 35t-34.5 83t34.5 82.5t83.5 34.5q46 0 80.5 -35t34.5 -82t-34.5 -82.5t-80.5 -35.5z" />
    <glyph glyph-name="at" unicode="@" horiz-adv-x="1712" 
d="M784 -244q-148 0 -276.5 54.5t-218.5 149t-141.5 225.5t-51.5 280t58 287t155.5 239t233 162t282.5 61q200 0 366.5 -87t264.5 -245.5t98 -355.5q0 -186 -95 -294.5t-228 -108.5q-33 0 -58.5 4t-55.5 19t-50 41t-34.5 73.5t-16.5 112.5q-30 -97 -110.5 -169.5
t-168.5 -72.5q-118 0 -194 79.5t-76 213.5q0 70 29.5 142t82.5 132.5t136.5 99t181.5 38.5q71 0 141 -23t70 -68v-321q0 -207 125 -207q93 0 151 71.5t58 237.5q0 168 -83.5 303.5t-224.5 210t-309 74.5q-167 0 -309.5 -90t-224.5 -239.5t-82 -319.5q0 -168 72.5 -306.5
t205 -220t297.5 -81.5q111 0 242 55l51 -92q-152 -64 -293 -64zM877 741q-65 1 -121 -28t-91 -75.5t-54.5 -101t-18.5 -106.5q0 -81 43 -139t117 -58q80 0 148.5 78t96.5 174v240q-40 16 -120 16z" />
    <glyph glyph-name="A" unicode="A" horiz-adv-x="1318" 
d="M66 0l538 1440h117l532 -1440h-194l-115 322h-588l-118 -322h-172zM651 1116l-248 -657h494l-240 657h-6z" />
    <glyph glyph-name="B" unicode="B" horiz-adv-x="1228" 
d="M168 1430q59 1 194.5 7.5t217.5 6.5q79 0 148 -12t132 -40t107.5 -71t71 -108.5t26.5 -147.5q0 -203 -170 -297v-6q238 -103 238 -332q0 -92 -31.5 -167.5t-83.5 -125.5t-122 -83.5t-144.5 -48.5t-153.5 -15q-163 0 -430 10v1430zM670 690h-318v-545q94 -6 258 -6
q152 0 241 83.5t89 219.5q0 111 -71.5 179.5t-198.5 68.5zM352 823h314q110 0 158 64t48 160q0 107 -71.5 177t-206.5 70q-125 0 -242 -8v-463z" />
    <glyph glyph-name="C" unicode="C" horiz-adv-x="1329" 
d="M799 -18q-300 0 -486.5 206.5t-185.5 542.5q1 164 51.5 298.5t140 225t212.5 140t268 49.5q245 0 430 -96l-66 -144q-154 80 -356 80q-212 0 -347.5 -154t-135.5 -399q-1 -261 140 -427.5t349 -166.5q212 0 361 90l59 -133q-200 -112 -434 -112z" />
    <glyph glyph-name="D" unicode="D" horiz-adv-x="1396" 
d="M596 -16q-265 0 -428 16v1427q224 17 428 17q310 0 491 -186.5t183 -499.5q0 -164 -45.5 -305t-129.5 -245.5t-212.5 -164t-286.5 -59.5zM600 1292q-138 0 -248 -10v-1137q105 -10 248 -10q144 0 253.5 85.5t165 226.5t54.5 311q-2 238 -128 386t-345 148z" />
    <glyph glyph-name="E" unicode="E" horiz-adv-x="1136" 
d="M168 1434h833v-156h-649v-469h588v-145h-588v-508h649v-156h-833v1434z" />
    <glyph glyph-name="F" unicode="F" horiz-adv-x="1136" 
d="M168 1434h833v-156h-649v-492h588v-143h-588v-643h-184v1434z" />
    <glyph glyph-name="G" unicode="G" horiz-adv-x="1374" 
d="M813 -20q-311 0 -499 203t-187 554q1 219 91 380t247 244t362 83q233 0 443 -96l-66 -144q-179 86 -368 86q-237 0 -374 -146.5t-138 -406.5q0 -282 132 -443t357 -161q149 0 293 72v377h-307v137h471v-613q-104 -59 -224 -92.5t-233 -33.5z" />
    <glyph glyph-name="H" unicode="H" horiz-adv-x="1341" 
d="M168 1434h184v-619h637v619h185v-1434h-185v659h-637v-659h-184v1434z" />
    <glyph glyph-name="I" unicode="I" horiz-adv-x="520" 
d="M168 0v1434h184v-1434h-184z" />
    <glyph glyph-name="J" unicode="J" horiz-adv-x="843" 
d="M80 27l29 141q26 -13 87.5 -25t106.5 -12q124 0 181 73t57 261v969h176v-969q0 -244 -94 -362.5t-320 -118.5q-53 0 -123 14t-100 29z" />
    <glyph glyph-name="K" unicode="K" horiz-adv-x="1253" 
d="M168 1434h184v-643h6l537 643h205l-559 -662l669 -772h-241l-551 629l-66 -76v-553h-184v1434z" />
    <glyph glyph-name="L" unicode="L" horiz-adv-x="1103" 
d="M168 0v1434h184v-1278h670v-156h-854z" />
    <glyph glyph-name="M" unicode="M" horiz-adv-x="1751" 
d="M338 0h-170v1434h192l517 -1196h6l512 1196h188v-1434h-184v1053h-6l-455 -1053h-150l-444 1038h-6v-1038z" />
    <glyph glyph-name="N" unicode="N" horiz-adv-x="1366" 
d="M168 0v1434h174l674 -1110h6v1110h176v-1434h-178l-670 1087h-6v-1087h-176z" />
    <glyph glyph-name="O" unicode="O" horiz-adv-x="1497" 
d="M748 -20q-190 0 -331.5 93.5t-215.5 259.5t-74 384t74 384t215.5 259.5t331.5 93.5q191 0 333 -93.5t215.5 -259.5t73.5 -384t-73.5 -384t-215.5 -259.5t-333 -93.5zM322 717q0 -259 113 -417.5t313 -158.5q201 0 313.5 158.5t112.5 417.5t-112.5 417t-313.5 158
q-200 0 -313 -158t-113 -417z" />
    <glyph glyph-name="P" unicode="P" horiz-adv-x="1148" 
d="M352 0h-184v1423q280 21 391 21q116 0 211.5 -26.5t167.5 -78.5t112.5 -137t41.5 -196q0 -96 -29 -176t-78.5 -135.5t-116.5 -95t-143.5 -58.5t-159.5 -21q-91 -4 -213 19v-539zM557 1294q-63 0 -205 -10v-598q94 -16 197 -16q169 0 260 89t88 247q-2 133 -89 210.5
t-251 77.5z" />
    <glyph glyph-name="Q" unicode="Q" horiz-adv-x="1503" 
d="M131 717q0 218 73.5 384t215 259.5t332.5 93.5t332.5 -93.5t214.5 -259.5t73 -384q0 -248 -96 -429t-270 -257l323 -209l-121 -117l-393 277q-20 -2 -63 -2q-191 0 -332.5 93.5t-215 259.5t-73.5 384zM752 1292q-201 0 -313.5 -158t-112.5 -417t112.5 -417.5
t313.5 -158.5t313.5 158.5t112.5 417.5t-112.5 417t-313.5 158z" />
    <glyph glyph-name="R" unicode="R" horiz-adv-x="1222" 
d="M168 0v1423q39 3 101 8t90.5 7t77 4t102.5 2q118 0 212.5 -22.5t168.5 -70t114.5 -129t40.5 -192.5q1 -141 -71.5 -237t-190.5 -142v-6q44 -12 83 -42.5t71 -78.5t56.5 -94.5t48.5 -113.5t38 -111.5t33.5 -112t27.5 -92.5h-198q-6 17 -16.5 57t-21 80.5t-28 92.5
t-36.5 97t-47.5 90.5t-61 77.5t-76 52t-92.5 20h-242v-567h-184zM352 1284v-567h166q369 0 369 305q-2 130 -93 201t-259 71q-88 0 -183 -10z" />
    <glyph glyph-name="S" unicode="S" horiz-adv-x="1191" 
d="M573 -14q-122 0 -262 38t-239 101l82 143q204 -127 415 -127q149 0 243.5 72t94.5 174q0 95 -84 156t-272 104q-209 47 -313.5 140t-104.5 266q0 179 132 285t337 106q244 0 461 -121l-84 -143q-79 48 -177 80t-192 32q-141 0 -216 -70t-75 -165q0 -98 73.5 -152.5
t232.5 -91.5q120 -29 202 -61.5t144 -81t91 -116t28 -159.5q0 -83 -29 -151.5t-78 -115.5t-115.5 -79.5t-140.5 -47.5t-154 -15z" />
    <glyph glyph-name="T" unicode="T" horiz-adv-x="1275" 
d="M543 1278h-441v156h1072v-156h-447v-1278h-184v1278z" />
    <glyph glyph-name="U" unicode="U" horiz-adv-x="1271" 
d="M127 1434h184v-820q0 -483 326 -483q168 0 250 113t82 370v820h176v-799q0 -326 -119.5 -488.5t-390.5 -162.5t-389.5 162t-118.5 489v799z" />
    <glyph glyph-name="V" unicode="V" horiz-adv-x="1292" 
d="M33 1434h196l426 -1198h7l421 1198h179l-519 -1434h-194z" />
    <glyph glyph-name="W" unicode="W" horiz-adv-x="2152" 
d="M547 0l-516 1434h194l437 -1194h6l364 1194h139l349 -1186h6l420 1186h176l-514 -1434h-205l-313 1075h-7l-325 -1075h-211z" />
    <glyph glyph-name="X" unicode="X" horiz-adv-x="1187" 
d="M43 0l453 729l-433 705h201l334 -551h6l342 553l172 -2l-426 -697l451 -737h-197l-360 586h-6l-361 -586h-176z" />
    <glyph glyph-name="Y" unicode="Y" horiz-adv-x="1282" 
d="M80 1434h199l362 -586h6l379 588l176 -2l-471 -732v-702h-188v692z" />
    <glyph glyph-name="Z" unicode="Z" horiz-adv-x="1294" 
d="M178 1434h957v-166l-781 -1100v-6h762v-162h-993v166l786 1102v6h-731v160z" />
    <glyph glyph-name="bracketleft" unicode="[" horiz-adv-x="495" 
d="M117 -287v1762h323v-76h-211v-1610h211v-76h-323z" />
    <glyph glyph-name="backslash" unicode="\" horiz-adv-x="743" 
d="M39 1536l686 -1587h-115l-686 1587h115z" />
    <glyph glyph-name="bracketright" unicode="]" horiz-adv-x="495" 
d="M25 1399v76h323v-1762h-323v76h213v1610h-213z" />
    <glyph glyph-name="asciicircum" unicode="^" horiz-adv-x="923" 
d="M184 838h-92l336 700h76l330 -700h-93l-274 596h-6z" />
    <glyph glyph-name="underscore" unicode="_" horiz-adv-x="1019" 
d="M119 -127v80h780v-80h-780z" />
    <glyph glyph-name="grave" unicode="`" horiz-adv-x="780" 
d="M78 1411h192l191 -317h-109z" />
    <glyph glyph-name="a" unicode="a" horiz-adv-x="987" 
d="M84 250q0 104 53 178.5t135.5 108.5t184.5 34q110 0 223 -41q0 134 -51 204.5t-180 70.5q-124 0 -248 -82l-58 113q167 104 336 104q192 0 281.5 -97.5t89.5 -291.5v-373q0 -109 41 -178h-172q-24 39 -31 98h-6q-122 -118 -285 -118q-147 0 -230 75.5t-83 194.5zM252 268
q0 -78 49.5 -121t136.5 -43q70 0 139 41.5t103 92.5v172q-26 20 -82 35.5t-109 15.5q-100 0 -168.5 -51t-68.5 -142z" />
    <glyph glyph-name="b" unicode="b" horiz-adv-x="1087" 
d="M283 0h-146v1536h170v-741h6q94 143 275 143q114 0 204 -53.5t144.5 -163t54.5 -260.5q0 -113 -33 -205t-89 -150.5t-128 -90t-151 -31.5q-192 0 -291 157h-6zM553 803q-114 0 -180 -95.5t-66 -250.5q0 -138 70 -240t176 -102q117 0 187.5 99.5t70.5 246.5
q0 149 -67.5 246t-190.5 96z" />
    <glyph glyph-name="c" unicode="c" horiz-adv-x="925" 
d="M539 -14q-88 0 -166 30.5t-139 88t-96.5 149.5t-35.5 207q0 207 115.5 342t319.5 135q179 0 292 -74l-51 -112q-79 57 -211 57q-94 0 -161.5 -48.5t-98.5 -125t-31 -172.5q0 -151 81 -247.5t212 -96.5q68 0 132.5 18t103.5 45l51 -112q-133 -84 -317 -84z" />
    <glyph glyph-name="d" unicode="d" horiz-adv-x="1087" 
d="M496 -16q-79 0 -150 31.5t-127.5 90t-89.5 150.5t-33 205q0 225 114 351t290 126q184 0 276 -137h6v735h168v-1536h-145l-10 143h-7q-103 -159 -292 -159zM532 803q-122 1 -190 -96t-68 -246q0 -147 70.5 -246.5t187.5 -99.5q106 0 177 102.5t71 239.5q0 156 -66.5 251
t-181.5 95z" />
    <glyph glyph-name="e" unicode="e" horiz-adv-x="1040" 
d="M117 461q0 115 35 207t95 150t137.5 89t166.5 31q184 0 286.5 -134.5t88.5 -352.5h-645q3 -153 85 -244.5t212 -91.5q75 0 147 18.5t111 44.5l45 -110q-133 -84 -322 -84q-88 0 -167.5 32t-141 91t-97.5 150.5t-36 203.5zM289 563h487q-2 109 -64 177.5t-163 68.5
q-109 1 -177.5 -68.5t-82.5 -177.5z" />
    <glyph glyph-name="f" unicode="f" horiz-adv-x="690" 
d="M186 795h-141v114l141 13v135q0 243 98.5 361t268.5 118q104 0 190 -37v-143q-84 41 -163 41q-122 0 -173 -96.5t-51 -282.5v-96h281v-127h-281v-795h-170v795z" />
    <glyph glyph-name="g" unicode="g" horiz-adv-x="1087" 
d="M498 -512q-204 0 -317 74.5t-113 204.5q0 75 48.5 135.5t129.5 101.5q-133 53 -133 178q0 61 37 112t100 81q-103 86 -103 237q0 80 29 141t71 95t98 55.5t101.5 28t90.5 6.5q118 0 223 -51q38 67 108.5 115t165.5 45v-138q-128 10 -194 -80q86 -83 86 -217
q0 -67 -20.5 -121t-55.5 -88t-75.5 -58t-87 -36t-82 -17t-68.5 -5q-102 0 -189 32q-37 -16 -62.5 -45t-25.5 -63q0 -54 69.5 -79.5t231.5 -25.5q131 0 221 -18t143.5 -55.5t77 -89.5t23.5 -125q0 -148 -148 -239t-380 -91zM551 -41q-75 0 -137 6q-73 -20 -128 -66t-55 -108
q0 -90 76 -134t199 -44q100 0 178 19t127 63t49 108q0 87 -68.5 121.5t-240.5 34.5zM537 825q-116 0 -171 -59t-55 -154q2 -96 56 -154.5t170 -58.5q106 0 165.5 61t59.5 152q0 89 -60.5 151t-164.5 62z" />
    <glyph glyph-name="h" unicode="h" horiz-adv-x="1060" 
d="M137 0v1536h170v-768h6q39 72 109.5 123t165.5 51q184 0 270 -112.5t86 -346.5v-483h-170v449q0 172 -49 260t-176 88q-91 0 -154 -78.5t-88 -200.5v-518h-170z" />
    <glyph glyph-name="i" unicode="i" horiz-adv-x="491" 
d="M162 0v922h170v-922h-170zM129 1327q0 49 33.5 83t81.5 34t83 -34t35 -83q0 -47 -35 -81t-83 -34q-47 0 -81 34t-34 81z" />
    <glyph glyph-name="j" unicode="j" horiz-adv-x="442" 
d="M-143 -365h37q146 0 203 85.5t57 295.5v906h170v-916q0 -127 -20.5 -218t-68.5 -159.5t-132.5 -102.5t-208.5 -34h-37v143zM121 1327q0 49 33.5 83t83.5 34q47 0 81.5 -34t34.5 -83q0 -47 -35 -82t-81 -35q-49 0 -83 34.5t-34 82.5z" />
    <glyph glyph-name="k" unicode="k" horiz-adv-x="972" 
d="M307 0h-170v1536h170v-1049h6l387 435h181l-322 -359l336 -563h-188l-256 440l-144 -159v-281z" />
    <glyph glyph-name="l" unicode="l" horiz-adv-x="444" 
d="M137 0v1536h170v-1536h-170z" />
    <glyph glyph-name="m" unicode="m" horiz-adv-x="1638" 
d="M137 0v922h150l12 -158h6q37 76 104.5 127t163.5 51q131 0 205 -56.5t105 -174.5h6q12 41 35.5 79.5t59 73.5t87 56.5t111.5 21.5q182 0 261 -111t79 -348v-483h-168v449q0 68 -4.5 117.5t-18 95.5t-36.5 74t-61 44.5t-91 16.5q-91 0 -147.5 -76.5t-80.5 -202.5v-518
h-170v449q0 69 -4.5 118t-17.5 95t-36 74t-61 44.5t-91 16.5q-90 0 -147 -76t-81 -199v-522h-170z" />
    <glyph glyph-name="n" unicode="n" horiz-adv-x="1060" 
d="M307 0h-170v922h150l10 -160h6q40 75 113.5 127.5t171.5 52.5q184 0 270 -112.5t86 -346.5v-483h-170v449q0 172 -49 260t-176 88q-91 0 -154 -78.5t-88 -200.5v-518z" />
    <glyph glyph-name="o" unicode="o" horiz-adv-x="1058" 
d="M528 -16q-88 0 -166 31t-137.5 89.5t-94 150.5t-34.5 206t34.5 206t94 150.5t137.5 89.5t166 31t166 -31t138.5 -89.5t95.5 -150.5t35 -206t-35 -206t-95.5 -150.5t-138.5 -89.5t-166 -31zM270 461q0 -152 67.5 -246t190.5 -94q124 0 192 94t68 246q0 154 -68 248
t-192 94q-123 1 -190.5 -93.5t-67.5 -248.5z" />
    <glyph glyph-name="p" unicode="p" horiz-adv-x="1087" 
d="M307 -512h-170v1434h146l10 -134h6q97 150 289 150q114 0 204 -53.5t144.5 -163t54.5 -260.5q0 -113 -33 -205t-89 -150.5t-128 -90t-151 -31.5q-182 0 -277 149h-6v-645zM553 803q-114 0 -180 -95t-66 -251q0 -138 70 -240t176 -102q117 0 187.5 99.5t70.5 246.5
q0 149 -67.5 246t-190.5 96z" />
    <glyph glyph-name="q" unicode="q" horiz-adv-x="1087" 
d="M496 -16q-79 0 -150 31.5t-127.5 90t-89.5 150.5t-33 205q0 225 114 351t290 126q196 0 291 -147h6l8 131h145v-1434h-168v649h-6q-95 -153 -280 -153zM532 803q-122 1 -190 -96t-68 -246q0 -147 70.5 -246.5t187.5 -99.5q106 0 177 102.5t71 239.5q0 155 -66.5 250.5
t-181.5 95.5z" />
    <glyph glyph-name="r" unicode="r" horiz-adv-x="741" 
d="M307 0h-170v922h150l12 -158h6q41 80 131 131.5t209 38.5v-154q-35 6 -63 6q-116 0 -185.5 -70t-89.5 -181v-535z" />
    <glyph glyph-name="s" unicode="s" horiz-adv-x="876" 
d="M430 -14q-203 0 -336 84l56 118q47 -33 120.5 -54t151.5 -21q83 0 132.5 34.5t49.5 90.5q0 60 -47.5 97t-165.5 73q-262 71 -262 268q0 128 92.5 196t243.5 68q179 0 297 -74l-51 -114q-37 26 -101 43.5t-135 17.5q-81 0 -131.5 -34.5t-50.5 -86.5q0 -59 38.5 -89.5
t119.5 -55.5q168 -48 243.5 -118t75.5 -183q0 -123 -97 -191.5t-243 -68.5z" />
    <glyph glyph-name="t" unicode="t" horiz-adv-x="696" 
d="M86 797v98l123 27l45 262h119v-262h248v-125h-248v-488q0 -60 11 -102t31 -63t42 -29.5t51 -8.5q63 0 108 35v-96q-20 -21 -72.5 -38t-94.5 -17q-246 0 -246 297v510h-117z" />
    <glyph glyph-name="u" unicode="u" horiz-adv-x="1060" 
d="M473 -20q-185 0 -270.5 120.5t-85.5 376.5v445h170v-445q0 -174 49 -263t176 -89q91 0 154 78t88 200v519h170v-922h-150l-12 160h-6q-40 -76 -112.5 -128t-170.5 -52z" />
    <glyph glyph-name="v" unicode="v" horiz-adv-x="917" 
d="M27 922h188l246 -762h8l258 762h164l-330 -922h-215z" />
    <glyph glyph-name="w" unicode="w" horiz-adv-x="1423" 
d="M334 0l-307 922h188l231 -756h7l184 737h170l184 -737h6l236 756h164l-299 -922h-217l-164 680h-6l-170 -680h-207z" />
    <glyph glyph-name="x" unicode="x" horiz-adv-x="878" 
d="M43 0l303 461l-293 461h191l209 -328h6l209 328h168l-299 -459l290 -463h-190l-207 328h-6l-213 -328h-168z" />
    <glyph glyph-name="y" unicode="y" horiz-adv-x="937" 
d="M72 -512h-49v137h49q137 0 237.5 102.5t145.5 266.5l-428 928h186l319 -715h7l221 715h153l-278 -873q-87 -273 -223.5 -417t-339.5 -144z" />
    <glyph glyph-name="z" unicode="z" horiz-adv-x="829" 
d="M754 0h-678v133l485 662v6h-450v121h643v-138l-475 -657v-6h475v-121z" />
    <glyph glyph-name="braceleft" unicode="{" horiz-adv-x="731" 
d="M109 645q87 0 142.5 71t55.5 177v340q0 115 80.5 178.5t237.5 63.5v-76q-203 0 -203 -187v-331q0 -100 -51 -183.5t-152 -105.5q101 -22 152 -105.5t51 -183.5v-328q0 -186 203 -186v-76q-157 0 -237.5 63.5t-80.5 178.5v338q0 104 -55.5 175t-142.5 71v106z" />
    <glyph glyph-name="bar" unicode="|" horiz-adv-x="380" 
d="M147 -143v1679h86v-1679h-86z" />
    <glyph glyph-name="braceright" unicode="}" horiz-adv-x="731" 
d="M106 -287v76q201 0 201 186v328q0 100 52 183.5t153 105.5q-101 22 -153 105.5t-52 183.5v331q0 187 -201 187v76q157 0 237.5 -63.5t80.5 -178.5v-340q0 -105 56 -176.5t143 -71.5v-106q-87 0 -143 -71t-56 -175v-338q0 -115 -80.5 -178.5t-237.5 -63.5z" />
    <glyph glyph-name="asciitilde" unicode="~" horiz-adv-x="1273" 
d="M358 711q-75 0 -147.5 -41t-104.5 -80v123q35 33 104.5 66.5t147.5 33.5q67 0 144.5 -30.5t137 -67t135.5 -67t140 -30.5q120 0 252 132v-125q-43 -44 -107.5 -77.5t-144.5 -33.5q-78 0 -160 31t-140 67.5t-129 67.5t-128 31z" />
    <glyph glyph-name="exclamdown" unicode="&#xa1;" horiz-adv-x="495" 
d="M125 -528l37 964h104l37 -964h-178zM211 682q-48 0 -82.5 35t-34.5 84q0 46 35 81.5t82 35.5q49 0 84 -35.5t35 -81.5q0 -49 -35 -84t-84 -35z" />
    <glyph glyph-name="cent" unicode="&#xa2;" horiz-adv-x="989" 
d="M98 645q0 190 98 321t275 152v191h119v-189q140 -9 237 -71l-51 -113q-79 57 -213 57q-139 0 -214 -99t-75 -247q0 -151 81 -247.5t212 -96.5q68 0 132 18.5t102 45.5l53 -113q-115 -72 -266 -82l2 -172h-119v174q-162 22 -267.5 144t-105.5 327z" />
    <glyph glyph-name="sterling" unicode="&#xa3;" horiz-adv-x="946" 
d="M887 0h-832v133q176 188 176 363q0 35 -10 90h-166v92h146q-58 202 -58 291q0 199 118 314.5t296 115.5q82 0 157 -21.5t117 -46.5l-55 -125q-100 54 -207 54q-104 0 -182 -78.5t-78 -218.5q0 -78 49 -287l367 2v-92h-350q8 -44 8 -88q0 -178 -145 -355v-6h649v-137z" />
    <glyph glyph-name="currency" unicode="&#xa4;" horiz-adv-x="1200" 
d="M137 303l142 125q-74 117 -74 266q0 158 78 271l-146 129l68 67l123 -139q111 111 274 111q161 0 270 -109l123 137l68 -67l-143 -127q79 -115 79 -273q0 -155 -75 -268l139 -123l-68 -67l-118 133q-112 -109 -275 -109q-169 0 -276 113l-121 -137zM602 1022
q-119 0 -193.5 -97t-74.5 -231t74.5 -229.5t193.5 -95.5q118 0 193 96t75 229q0 134 -75 231t-193 97z" />
    <glyph glyph-name="yen" unicode="&#xa5;" horiz-adv-x="1282" 
d="M80 1393h199l362 -586h6l379 586l176 -2l-442 -689h319v-110h-348v-186h348v-113h-348v-293h-188v293h-340v113h340v186h-340v110h307z" />
    <glyph glyph-name="brokenbar" unicode="&#xa6;" horiz-adv-x="380" 
d="M147 840v696h86v-696h-86zM233 -143h-86v696h86v-696z" />
    <glyph glyph-name="section" unicode="&#xa7;" horiz-adv-x="1368" 
d="M113 -287l73 127q204 -112 424 -112q154 0 248 53.5t94 142.5q0 84 -88 137.5t-280 94.5q-104 23 -184.5 55.5t-142 79.5t-94 111.5t-32.5 144.5q0 107 68.5 195t179.5 135v4q-129 91 -129 245q0 151 132.5 237.5t342.5 86.5q229 0 461 -117l-76 -127q-79 43 -181 73
t-196 30q-145 0 -221 -52.5t-76 -134.5q0 -88 80 -137t244 -84q127 -28 214.5 -60.5t153.5 -79.5t97.5 -112.5t31.5 -152.5q0 -215 -245 -328v-4q128 -93 125 -234q0 -87 -44.5 -155.5t-120 -109t-166.5 -61t-192 -20.5q-121 0 -260.5 35t-240.5 94zM309 557q0 -101 89 -162
t264 -98q119 -26 194 -53q100 33 162.5 97t62.5 138q0 106 -97 172.5t-304 108.5q-86 17 -137 35q-107 -24 -170.5 -92t-63.5 -146z" />
    <glyph glyph-name="dieresis" unicode="&#xa8;" horiz-adv-x="872" 
d="M612 1112q-45 0 -77.5 33t-32.5 78t32.5 77.5t77.5 32.5q43 0 76 -33t33 -77t-33 -77.5t-76 -33.5zM152 1223q0 45 32.5 77.5t77.5 32.5q44 0 76.5 -33t32.5 -77t-32.5 -77.5t-76.5 -33.5q-45 0 -77.5 33t-32.5 78z" />
    <glyph glyph-name="copyright" unicode="&#xa9;" 
d="M774 -16q-139 0 -265.5 54t-217.5 145t-145 217.5t-54 265.5t54 265.5t145 217.5t217.5 145t265.5 54t265.5 -54t217.5 -145t145 -217.5t54 -265.5t-54 -265.5t-145 -217.5t-217.5 -145t-265.5 -54zM199 666q0 -158 77 -293t209.5 -214t288.5 -79t288.5 79t210 214
t77.5 293q0 159 -77.5 294t-210 213t-288.5 78q-117 0 -223.5 -46t-183.5 -124.5t-122.5 -187t-45.5 -227.5zM782 274q-71 0 -137.5 24.5t-121.5 71t-88.5 123.5t-33.5 173t31 172.5t83 123t116 71t135 24.5q117 0 207.5 -52.5t138.5 -154.5l-104 -59q-31 72 -91.5 116
t-146.5 45q-113 0 -175.5 -82t-62.5 -204q2 -120 71.5 -203.5t182.5 -83.5q83 0 145.5 44t94.5 118l90 -54q-50 -103 -135 -158t-199 -55z" />
    <glyph glyph-name="ordfeminine" unicode="&#xaa;" horiz-adv-x="604" 
d="M252 909q-88 0 -138.5 46.5t-50.5 117.5q0 92 66.5 141.5t161.5 49.5q62 0 121 -23v12q0 154 -131 154q-82 0 -148 -49l-41 65q102 62 205 62q114 0 164.5 -57.5t50.5 -176.5v-223q0 -61 25 -106h-103q-14 22 -20 57q-66 -70 -162 -70zM164 1083q0 -49 30.5 -74.5
t86.5 -25.5q75 0 131 72v119q-50 26 -103 26q-60 0 -102.5 -31t-42.5 -86z" />
    <glyph glyph-name="guillemotleft" unicode="&#xab;" horiz-adv-x="933" 
d="M733 31l-360 413v37l362 410h86l-362 -414v-18l362 -428h-88zM115 444v37l364 410h86l-364 -414v-18l364 -428h-88z" />
    <glyph glyph-name="logicalnot" unicode="&#xac;" horiz-adv-x="888" 
d="M113 733h663v-397h-106v299h-557v98z" />
    <glyph glyph-name="registered" unicode="&#xae;" horiz-adv-x="919" 
d="M92 1083q0 152 108 259.5t259 107.5q152 0 259 -107.5t107 -259.5t-107 -259t-259 -107q-151 0 -259 107t-108 259zM459 1393q-126 0 -214.5 -90.5t-88.5 -219.5t88.5 -219t214.5 -90q127 0 215 90t88 219t-88 219.5t-215 90.5zM336 903v377q64 6 113 6q143 0 143 -110
q0 -74 -66 -99v-2q16 -5 29 -18t23 -36t16 -38.5t14 -45t10 -34.5l-67 -2q-1 3 -8 35t-14 53t-26.5 41.5t-45.5 20.5h-58v-148h-63zM399 1235v-135h39q46 0 68 19.5t20 54.5q0 30 -20.5 46.5t-56.5 16.5q-34 0 -50 -2z" />
    <glyph glyph-name="macron" unicode="&#xaf;" horiz-adv-x="1019" 
d="M221 1104v80h582v-80h-582z" />
    <glyph glyph-name="degree" unicode="&#xb0;" horiz-adv-x="647" 
d="M324 920q-109 0 -183.5 67.5t-74.5 196.5q0 128 75 196t183 68q107 0 182.5 -68.5t75.5 -195.5q0 -129 -75 -196.5t-183 -67.5zM172 1184q0 -77 41 -127.5t111 -50.5q69 0 111 51t42 127t-42 127t-111 51q-71 0 -111.5 -50.5t-40.5 -127.5z" />
    <glyph glyph-name="plusminus" unicode="&#xb1;" horiz-adv-x="1081" 
d="M469 780h-363v125h363l2 387h139v-387h365v-125h-365v-385h-139zM147 205h783v-107h-783v107z" />
    <glyph glyph-name="twosuperior" unicode="&#xb2;" horiz-adv-x="550" 
d="M70 1395q82 137 217 137q81 0 131.5 -44t50.5 -118q0 -43 -19.5 -84.5t-39 -64.5t-52.5 -56l-151 -155v-4h278v-84h-411v73l211 213q21 21 29.5 30t26.5 32.5t26 46t8 47.5q0 40 -25.5 64t-68.5 24q-48 0 -80 -26t-62 -72z" />
    <glyph glyph-name="threesuperior" unicode="&#xb3;" horiz-adv-x="552" 
d="M266 915q-126 0 -205 62l43 67q74 -51 160 -51q58 0 92.5 25t34.5 76q1 50 -35.5 76t-99.5 26h-61v68h61q58 0 89.5 27t31.5 71q0 82 -103 82q-75 0 -149 -58l-41 64q94 74 195 74q85 0 136.5 -36.5t51.5 -115.5q0 -52 -22.5 -81.5t-63.5 -49.5v-4q106 -43 106 -150
q0 -39 -14 -70t-35.5 -50t-51.5 -31t-59 -16.5t-61 -4.5z" />
    <glyph glyph-name="acute" unicode="&#xb4;" horiz-adv-x="780" 
d="M494 1411h192l-272 -317h-109z" />
    <glyph glyph-name="paragraph" unicode="&#xb6;" horiz-adv-x="1132" 
d="M563 506q-192 0 -327.5 135.5t-135.5 327.5t135.5 328.5t327.5 136.5h469v-1696h-121v1585h-159v-1585h-121v768h-68z" />
    <glyph glyph-name="periodcentered" unicode="&#xb7;" horiz-adv-x="489" 
d="M127 684q0 49 34.5 83t84.5 34q46 0 80 -34t34 -83q0 -47 -34 -82t-80 -35q-49 0 -84 34.5t-35 82.5z" />
    <glyph glyph-name="cedilla" unicode="&#xb8;" horiz-adv-x="614" 
d="M150 -244q58 -20 102 -20q47 0 76.5 15.5t29.5 45.5q0 32 -37 45t-79 13l-27 24l49 156h72l-29 -103v-8q54 0 103 -30t49 -89q0 -70 -55 -106.5t-142 -36.5q-49 0 -112 19v75z" />
    <glyph glyph-name="onesuperior" unicode="&#xb9;" horiz-adv-x="395" 
d="M82 1329l-39 64l174 116h70v-587h-97v475h-4z" />
    <glyph glyph-name="ordmasculine" unicode="&#xba;" horiz-adv-x="647" 
d="M324 915q-112 0 -186.5 75.5t-74.5 209.5q0 135 74.5 211t186.5 76q111 0 185.5 -76.5t74.5 -210.5t-74.5 -209.5t-185.5 -75.5zM170 1200q0 -86 40 -141t114 -55t114.5 55.5t40.5 140.5q0 86 -40.5 142.5t-114.5 56.5q-73 0 -113.5 -56.5t-40.5 -142.5z" />
    <glyph glyph-name="guillemotright" unicode="&#xbb;" horiz-adv-x="933" 
d="M705 477l-365 414h86l365 -410v-37l-363 -413h-88l365 428v18zM84 31l362 428v18l-362 414h86l362 -410v-37l-360 -413h-88z" />
    <glyph glyph-name="onequarter" unicode="&#xbc;" horiz-adv-x="923" 
d="M428 106v66l307 416h74v-410h68v-72h-68v-110h-90v110h-291zM12 0l811 1331h76l-805 -1331h-82zM82 1165l-39 64l174 117h70v-588h-97v475h-4zM520 182v-4h199v273h-2z" />
    <glyph glyph-name="onehalf" unicode="&#xbd;" horiz-adv-x="1081" 
d="M670 432l-70 41q82 137 217 137q81 0 132.5 -43.5t51.5 -117.5q0 -43 -20 -85t-39 -64t-53 -56l-152 -156v-4h279v-84h-412v74l211 213l6 6q24 24 38 40t30 47.5t16 61.5q0 40 -25.5 64t-68.5 24q-34 0 -62.5 -16.5t-42.5 -33t-36 -48.5zM12 0l811 1331h76l-805 -1331
h-82zM82 1165l-39 64l174 117h70v-588h-97v475h-4z" />
    <glyph glyph-name="threequarters" unicode="&#xbe;" horiz-adv-x="1083" 
d="M879 106h-291v66l305 416h74v-410h67v-72h-67v-110h-88v110zM266 731q-126 0 -205 62l43 67q74 -51 160 -51q58 0 92.5 25t34.5 75q1 50 -35.5 76.5t-99.5 26.5h-61v67h61q58 0 89.5 27.5t31.5 71.5q0 82 -103 82q-75 0 -149 -58l-41 64q93 73 195 73q85 0 136.5 -36
t51.5 -115q0 -52 -22.5 -81.5t-63.5 -49.5v-4q106 -43 106 -150q0 -39 -14 -70t-35.5 -50t-51.5 -31t-59 -16.5t-61 -4.5zM170 0l811 1331h76l-803 -1331h-84zM680 182v-4h199v273h-5z" />
    <glyph glyph-name="questiondown" unicode="&#xbf;" horiz-adv-x="966" 
d="M475 -524q-189 0 -300.5 93t-111.5 255q0 65 17.5 119t51 96t64.5 71t76.5 66.5t67.5 59.5q65 64 94 128.5t29 143.5h168q3 -93 -30 -177.5t-126 -183.5q-20 -22 -66 -62t-78.5 -70t-59.5 -80.5t-27 -106.5q0 -100 72 -155.5t176 -55.5q149 0 321 107l72 -125
q-65 -38 -113 -60.5t-128.5 -42.5t-168.5 -20zM537 709q-46 0 -80.5 34.5t-34.5 81.5t34.5 82t80.5 35q49 0 83.5 -34.5t34.5 -82.5t-34.5 -82t-83.5 -34z" />
    <glyph glyph-name="Agrave" unicode="&#xc0;" horiz-adv-x="1318" 
d="M66 0l538 1440h117l532 -1440h-194l-115 322h-588l-118 -322h-172zM403 459h494l-240 657h-6zM571 1536l-223 279h182l168 -279h-127z" />
    <glyph glyph-name="Aacute" unicode="&#xc1;" horiz-adv-x="1318" 
d="M66 0l538 1440h117l532 -1440h-194l-115 322h-588l-118 -322h-172zM403 459h494l-240 657h-6zM604 1536l168 279h184l-225 -279h-127z" />
    <glyph glyph-name="Acircumflex" unicode="&#xc2;" horiz-adv-x="1318" 
d="M238 0h-172l538 1440h117l532 -1440h-194l-115 322h-588zM403 459h494l-240 657h-6zM356 1536l232 264h143l230 -264h-132l-165 160h-9l-166 -160h-133z" />
    <glyph glyph-name="Atilde" unicode="&#xc3;" horiz-adv-x="1318" 
d="M66 0l538 1440h117l532 -1440h-194l-115 322h-588l-118 -322h-172zM651 1116l-248 -657h494l-240 657h-6zM334 1561q10 84 59 140t139 56q47 0 84.5 -18t57.5 -39.5t48 -39.5t58 -18q46 0 71 29.5t32 71.5h102q-8 -85 -59.5 -143t-141.5 -58q-48 0 -86.5 17.5t-59 38
t-49 38t-57.5 17.5q-47 0 -68 -25t-28 -67h-102z" />
    <glyph glyph-name="Adieresis" unicode="&#xc4;" horiz-adv-x="1318" 
d="M238 0h-172l538 1440h117l532 -1440h-194l-115 322h-588zM403 459h494l-240 657h-6zM868 1567q-47 0 -80.5 33t-33.5 79q0 47 33.5 81t80.5 34q45 0 79 -34t34 -81q0 -45 -34 -78.5t-79 -33.5zM453 1567q-47 0 -81 33t-34 79q0 47 34 81t81 34q44 0 77 -34t33 -81
q0 -46 -33 -79t-77 -33z" />
    <glyph glyph-name="Aring" unicode="&#xc5;" horiz-adv-x="1318" 
d="M66 0l538 1440h117l532 -1440h-194l-115 322h-588l-118 -322h-172zM436 1686q0 104 64.5 161.5t156.5 57.5q93 0 159.5 -58t66.5 -161q0 -105 -66 -162.5t-160 -57.5q-92 0 -156.5 57.5t-64.5 162.5zM651 1116l-248 -657h494l-240 657h-6zM657 1817q-55 1 -88.5 -35.5
t-33.5 -95.5t33.5 -95.5t88.5 -36.5q56 0 91.5 37t35.5 95t-35.5 94.5t-91.5 36.5z" />
    <glyph glyph-name="AE" unicode="&#xc6;" horiz-adv-x="1947" 
d="M66 0l819 1434h930v-156h-650v-469h588v-145h-588v-508h650v-156h-834v322h-549l-186 -322h-180zM975 1278l-473 -819h479v819h-6z" />
    <glyph glyph-name="Ccedilla" unicode="&#xc7;" horiz-adv-x="1329" 
d="M705 -12q-263 32 -421 234t-157 509q1 164 51.5 298.5t140 225t212.5 140t268 49.5q245 0 430 -96l-66 -144q-154 80 -356 80q-212 0 -347.5 -154t-135.5 -399q-1 -261 140 -427.5t349 -166.5q212 0 361 90l59 -133q-109 -61 -216.5 -86.5t-240.5 -25.5l-14 -50v-8
q54 0 102.5 -30t48.5 -89q0 -71 -54 -107t-142 -36q-48 0 -111 19v75q54 -20 101 -20t77.5 16t30.5 45q0 32 -37.5 45t-79.5 13l-26 24z" />
    <glyph glyph-name="Egrave" unicode="&#xc8;" horiz-adv-x="1136" 
d="M168 1434h833v-156h-649v-469h588v-145h-588v-508h649v-156h-833v1434zM526 1536l-225 279h184l168 -279h-127z" />
    <glyph glyph-name="Eacute" unicode="&#xc9;" horiz-adv-x="1136" 
d="M168 0v1434h833v-156h-649v-469h588v-145h-588v-508h649v-156h-833zM635 1536h-127l168 279h184z" />
    <glyph glyph-name="Ecircumflex" unicode="&#xca;" horiz-adv-x="1136" 
d="M168 0v1434h833v-156h-649v-469h588v-145h-588v-508h649v-156h-833zM414 1536h-131l231 264h141l232 -264h-133l-166 160h-8z" />
    <glyph glyph-name="Edieresis" unicode="&#xcb;" horiz-adv-x="1136" 
d="M168 0v1434h833v-156h-649v-469h588v-145h-588v-508h649v-156h-833zM795 1567q-46 0 -79.5 33t-33.5 79q0 47 33.5 81t79.5 34t80 -34t34 -81q0 -46 -34 -79t-80 -33zM379 1567q-46 0 -80.5 33.5t-34.5 78.5q0 47 34.5 81t80.5 34t79.5 -34t33.5 -81q0 -46 -33.5 -79
t-79.5 -33z" />
    <glyph glyph-name="Igrave" unicode="&#xcc;" horiz-adv-x="520" 
d="M168 0v1434h184v-1434h-184zM-23 1815h185l168 -279h-127z" />
    <glyph glyph-name="Iacute" unicode="&#xcd;" horiz-adv-x="520" 
d="M168 0v1434h184v-1434h-184zM330 1815h182l-223 -279h-127z" />
    <glyph glyph-name="Icircumflex" unicode="&#xce;" horiz-adv-x="520" 
d="M168 0v1434h184v-1434h-184zM90 1536h-131l231 264h142l231 -264h-133l-166 160h-8z" />
    <glyph glyph-name="Idieresis" unicode="&#xcf;" horiz-adv-x="520" 
d="M168 1434h184v-1434h-184v1434zM469 1567q-47 0 -81 33t-34 79q0 47 34 81t81 34q46 0 79.5 -34t33.5 -81q0 -46 -33.5 -79t-79.5 -33zM-61 1679q0 47 33.5 81t80.5 34q46 0 79.5 -34t33.5 -81q0 -46 -33.5 -79t-79.5 -33q-47 0 -80.5 33t-33.5 79z" />
    <glyph glyph-name="Eth" unicode="&#xd0;" horiz-adv-x="1394" 
d="M66 786h102v641q224 17 428 17q310 0 491 -186.5t183 -499.5q0 -164 -45.5 -305t-129.5 -245.5t-212.5 -164t-286.5 -59.5q-265 0 -428 16v688h-102v98zM352 786h316v-98h-316v-543q105 -10 248 -10q144 0 253.5 85.5t165 226.5t54.5 311q-2 238 -128 386t-345 148
q-138 0 -248 -10v-496z" />
    <glyph glyph-name="Ntilde" unicode="&#xd1;" horiz-adv-x="1366" 
d="M168 0v1434h174l674 -1110h6v1110h176v-1434h-178l-670 1087h-6v-1087h-176zM387 1561q12 84 61 140t138 56q48 0 85.5 -18t57 -39.5t47.5 -39.5t58 -18q46 0 70.5 29.5t31.5 71.5h104q-8 -85 -59.5 -143t-142.5 -58q-47 0 -85 17.5t-59 38t-49.5 38t-58.5 17.5
q-46 0 -67 -25t-30 -67h-102z" />
    <glyph glyph-name="Ograve" unicode="&#xd2;" horiz-adv-x="1497" 
d="M748 -20q-190 0 -331.5 93.5t-215.5 259.5t-74 384t74 384t215.5 259.5t331.5 93.5q191 0 333 -93.5t215.5 -259.5t73.5 -384t-73.5 -384t-215.5 -259.5t-333 -93.5zM322 717q0 -259 113 -417.5t313 -158.5q201 0 313.5 158.5t112.5 417.5t-112.5 417t-313.5 158
q-200 0 -313 -158t-113 -417zM668 1536l-224 279h185l166 -279h-127z" />
    <glyph glyph-name="Oacute" unicode="&#xd3;" horiz-adv-x="1497" 
d="M127 717q0 218 74 384t215.5 259.5t331.5 93.5q191 0 333 -93.5t215.5 -259.5t73.5 -384t-73.5 -384t-215.5 -259.5t-333 -93.5q-190 0 -331.5 93.5t-215.5 259.5t-74 384zM748 1292q-200 0 -313 -158t-113 -417t113 -417.5t313 -158.5q201 0 313.5 158.5t112.5 417.5
t-112.5 417t-313.5 158zM682 1536l166 279h184l-223 -279h-127z" />
    <glyph glyph-name="Ocircumflex" unicode="&#xd4;" horiz-adv-x="1497" 
d="M748 -20q-190 0 -331.5 93.5t-215.5 259.5t-74 384t74 384t215.5 259.5t331.5 93.5q191 0 333 -93.5t215.5 -259.5t73.5 -384t-73.5 -384t-215.5 -259.5t-333 -93.5zM322 717q0 -259 113 -417.5t313 -158.5q201 0 313.5 158.5t112.5 417.5t-112.5 417t-313.5 158
q-200 0 -313 -158t-113 -417zM580 1536h-134l232 264h141l232 -264h-133l-164 160h-9z" />
    <glyph glyph-name="Otilde" unicode="&#xd5;" horiz-adv-x="1497" 
d="M127 717q0 218 74 384t215.5 259.5t331.5 93.5q191 0 333 -93.5t215.5 -259.5t73.5 -384t-73.5 -384t-215.5 -259.5t-333 -93.5q-190 0 -331.5 93.5t-215.5 259.5t-74 384zM748 1292q-200 0 -313 -158t-113 -417t113 -417.5t313 -158.5q201 0 313.5 158.5t112.5 417.5
t-112.5 417t-313.5 158zM444 1561q10 84 59.5 140t139.5 56q47 0 84.5 -18t57 -39.5t47.5 -39.5t57 -18q48 0 72.5 29.5t29.5 71.5h105q-8 -85 -59.5 -143t-141.5 -58q-48 0 -86.5 17.5t-59 38t-49 38t-57.5 17.5q-47 0 -68 -25t-28 -67h-103z" />
    <glyph glyph-name="Odieresis" unicode="&#xd6;" horiz-adv-x="1497" 
d="M748 -20q-190 0 -331.5 93.5t-215.5 259.5t-74 384t74 384t215.5 259.5t331.5 93.5q191 0 333 -93.5t215.5 -259.5t73.5 -384t-73.5 -384t-215.5 -259.5t-333 -93.5zM322 717q0 -259 113 -417.5t313 -158.5q201 0 313.5 158.5t112.5 417.5t-112.5 417t-313.5 158
q-200 0 -313 -158t-113 -417zM842 1679q0 47 34 81t80 34t79.5 -34t33.5 -81q0 -46 -33.5 -79t-79.5 -33t-80 33t-34 79zM426 1679q0 47 34 81t81 34q46 0 79 -34t33 -81q0 -46 -33 -79t-79 -33q-47 0 -81 33t-34 79z" />
    <glyph glyph-name="multiply" unicode="&#xd7;" horiz-adv-x="1116" 
d="M184 887l99 100l276 -276l275 274l100 -98l-275 -277l273 -272l-98 -100l-275 274l-274 -276l-101 100l275 274z" />
    <glyph glyph-name="Oslash" unicode="&#xd8;" horiz-adv-x="1497" 
d="M373 104q-119 95 -182.5 253.5t-63.5 359.5q0 218 74 384t215.5 259.5t331.5 93.5q191 0 333 -94l72 125h82l-94 -170q111 -97 170 -251t59 -347q0 -218 -73.5 -384t-215.5 -259.5t-333 -93.5q-183 0 -316 83l-63 -114h-84zM463 264l532 942q-103 86 -247 86
q-200 0 -313 -158t-113 -417q0 -297 141 -453zM518 213q93 -72 230 -72q201 0 313.5 158.5t112.5 417.5q0 281 -125 436z" />
    <glyph glyph-name="Ugrave" unicode="&#xd9;" horiz-adv-x="1271" 
d="M127 635v799h184v-820q0 -483 326 -483q168 0 250 113t82 370v820h176v-799q0 -326 -119.5 -488.5t-390.5 -162.5t-389.5 162t-118.5 489zM569 1536l-223 279h182l168 -279h-127z" />
    <glyph glyph-name="Uacute" unicode="&#xda;" horiz-adv-x="1271" 
d="M127 1434h184v-820q0 -483 326 -483q168 0 250 113t82 370v820h176v-799q0 -326 -119.5 -488.5t-390.5 -162.5t-389.5 162t-118.5 489v799zM692 1536h-127l166 279h184z" />
    <glyph glyph-name="Ucircumflex" unicode="&#xdb;" horiz-adv-x="1271" 
d="M127 1434h184v-820q0 -483 326 -483q168 0 250 113t82 370v820h176v-799q0 -326 -119.5 -488.5t-390.5 -162.5t-389.5 162t-118.5 489v799zM467 1536h-133l231 264h142l231 -264h-133l-164 160h-8z" />
    <glyph glyph-name="Udieresis" unicode="&#xdc;" horiz-adv-x="1271" 
d="M127 1434h184v-820q0 -483 326 -483q168 0 250 113t82 370v820h176v-799q0 -326 -119.5 -488.5t-390.5 -162.5t-389.5 162t-118.5 489v799zM731 1679q0 47 34 81t81 34q46 0 79 -34t33 -81q0 -46 -33 -79t-79 -33q-47 0 -81 33t-34 79zM430 1567q-47 0 -81 33t-34 79
q0 47 34 81t81 34q45 0 79 -34t34 -81q0 -45 -34 -78.5t-79 -33.5z" />
    <glyph glyph-name="Yacute" unicode="&#xdd;" horiz-adv-x="1282" 
d="M80 1434h199l362 -586h6l379 588l176 -2l-471 -732v-702h-188v692zM731 1815h184l-225 -279h-127z" />
    <glyph glyph-name="Thorn" unicode="&#xde;" horiz-adv-x="1148" 
d="M168 1434h184v-287q101 8 207 8q233 0 367.5 -105t134.5 -305q0 -91 -25.5 -164.5t-70.5 -124t-108 -85t-135.5 -51.5t-156.5 -19q-91 -2 -213 21v-322h-184v1434zM352 995v-526q89 -18 197 -18q164 0 241.5 77t77.5 217q-2 116 -77 188.5t-234 72.5q-100 0 -205 -11z
" />
    <glyph glyph-name="germandbls" unicode="&#xdf;" horiz-adv-x="1292" 
d="M186 0v995q0 253 123.5 396t341.5 143q105 0 189.5 -38.5t133 -100.5t73.5 -136t20.5 -149t-35.5 -135q-14 -7 -52 -20.5t-64.5 -26t-57 -33.5t-47 -52t-16.5 -71q0 -34 21.5 -63t56 -52.5t76 -47.5t82.5 -53.5t75.5 -64.5t56 -87t21.5 -115q0 -132 -107.5 -217.5
t-261.5 -85.5q-104 0 -198 25.5t-152 60.5l65 116q47 -33 123 -54t154 -21q92 0 151.5 54t59.5 122q0 46 -21.5 84t-56 64.5t-76.5 51t-83.5 50.5t-76 55.5t-56 73.5t-21.5 98q0 29 6.5 56t20 49t27 39.5t36.5 34t37.5 27t40.5 22.5t36.5 17t34.5 13.5t25 9.5q16 43 17.5 92
t-14.5 96.5t-46 86t-81 62.5t-116 24q-77 0 -135.5 -33.5t-92.5 -93.5t-50.5 -135.5t-16.5 -165.5v-967h-170z" />
    <glyph glyph-name="agrave" unicode="&#xe0;" horiz-adv-x="987" 
d="M397 -20q-147 0 -230 75.5t-83 194.5q0 104 53 178.5t135.5 108.5t184.5 34q110 0 223 -41q0 134 -51 204.5t-180 70.5q-124 0 -248 -82l-58 113q167 104 336 104q192 0 281.5 -97.5t89.5 -291.5v-373q0 -109 41 -178h-172q-24 39 -31 98h-6q-122 -118 -285 -118z
M489 461q-100 0 -168.5 -51t-68.5 -142q0 -78 49.5 -121t136.5 -43q70 0 139 41.5t103 92.5v172q-26 20 -82 35.5t-109 15.5zM469 1094l-272 317h192l189 -317h-109z" />
    <glyph glyph-name="aacute" unicode="&#xe1;" horiz-adv-x="987" 
d="M84 250q0 104 53 178.5t135.5 108.5t184.5 34q110 0 223 -41q0 134 -51 204.5t-180 70.5q-124 0 -248 -82l-58 113q167 104 336 104q192 0 281.5 -97.5t89.5 -291.5v-373q0 -109 41 -178h-172q-24 39 -31 98h-6q-122 -118 -285 -118q-147 0 -230 75.5t-83 194.5zM489 461
q-100 0 -168.5 -51t-68.5 -142q0 -78 49.5 -121t136.5 -43q70 0 139 41.5t103 92.5v172q-26 20 -82 35.5t-109 15.5zM510 1094h-109l189 317h192z" />
    <glyph glyph-name="acircumflex" unicode="&#xe2;" horiz-adv-x="987" 
d="M84 250q0 104 53 178.5t135.5 108.5t184.5 34q110 0 223 -41q0 134 -51 204.5t-180 70.5q-124 0 -248 -82l-58 113q167 104 336 104q192 0 281.5 -97.5t89.5 -291.5v-373q0 -109 41 -178h-172q-24 39 -31 98h-6q-122 -118 -285 -118q-147 0 -230 75.5t-83 194.5zM489 461
q-100 0 -168.5 -51t-68.5 -142q0 -78 49.5 -121t136.5 -43q70 0 139 41.5t103 92.5v172q-26 20 -82 35.5t-109 15.5zM289 1087h-113l232 318h145l231 -318h-110l-191 213h-6z" />
    <glyph glyph-name="atilde" unicode="&#xe3;" horiz-adv-x="987" 
d="M84 250q0 104 53 178.5t135.5 108.5t184.5 34q110 0 223 -41q0 134 -51 204.5t-180 70.5q-124 0 -248 -82l-58 113q167 104 336 104q192 0 281.5 -97.5t89.5 -291.5v-373q0 -109 41 -178h-172q-24 39 -31 98h-6q-122 -118 -285 -118q-147 0 -230 75.5t-83 194.5zM489 461
q-100 0 -168.5 -51t-68.5 -142q0 -78 49.5 -121t136.5 -43q70 0 139 41.5t103 92.5v172q-26 20 -82 35.5t-109 15.5zM256 1133h-100q6 40 19.5 75t36.5 66t59.5 49t82.5 18t83 -19.5t57 -42.5t48 -42.5t58 -19.5q47 0 72 33.5t33 78.5h100q-8 -85 -61 -149t-142 -64
q-38 0 -69.5 12.5t-52 31t-39 36.5t-40.5 30.5t-47 12.5q-79 0 -98 -106z" />
    <glyph glyph-name="adieresis" unicode="&#xe4;" horiz-adv-x="987" 
d="M84 250q0 104 53 178.5t135.5 108.5t184.5 34q110 0 223 -41q0 134 -51 204.5t-180 70.5q-124 0 -248 -82l-58 113q167 104 336 104q192 0 281.5 -97.5t89.5 -291.5v-373q0 -109 41 -178h-172q-24 39 -31 98h-6q-122 -118 -285 -118q-147 0 -230 75.5t-83 194.5zM489 461
q-100 0 -168.5 -51t-68.5 -142q0 -78 49.5 -121t136.5 -43q70 0 139 41.5t103 92.5v172q-26 20 -82 35.5t-109 15.5zM662 1112q-45 0 -78 33t-33 78t32.5 77.5t78.5 32.5q44 0 76 -33t32 -77q0 -45 -32 -78t-76 -33zM313 1112q-45 0 -77.5 33t-32.5 78t32.5 77.5t77.5 32.5
q43 0 76 -33t33 -77t-33 -77.5t-76 -33.5z" />
    <glyph glyph-name="aring" unicode="&#xe5;" horiz-adv-x="987" 
d="M84 250q0 104 53 178.5t135.5 108.5t184.5 34q110 0 223 -41q0 134 -51 204.5t-180 70.5q-124 0 -248 -82l-58 113q167 104 336 104q192 0 281.5 -97.5t89.5 -291.5v-373q0 -109 41 -178h-172q-24 39 -31 98h-6q-122 -118 -285 -118q-147 0 -230 75.5t-83 194.5zM485 965
q-92 0 -155.5 56.5t-63.5 158.5q0 103 64 160t155 57t156.5 -57t65.5 -160q0 -102 -65 -158.5t-157 -56.5zM489 461q-100 0 -168.5 -51t-68.5 -142q0 -78 49.5 -121t136.5 -43q70 0 139 41.5t103 92.5v172q-26 20 -82 35.5t-109 15.5zM367 1180q0 -57 32 -91t86 -34
t87.5 34.5t33.5 90.5q0 57 -33.5 93t-87.5 36t-86 -36t-32 -93z" />
    <glyph glyph-name="ae" unicode="&#xe6;" horiz-adv-x="1538" 
d="M84 250q0 104 53 178t135.5 107.5t184.5 33.5h184v6q-8 116 -55 173t-152 57q-125 0 -246 -80l-57 111q171 102 334 102q231 0 291 -158q51 78 128 117t167 39q184 0 285 -128t87 -345h-614q3 -157 75.5 -252.5t200.5 -95.5q73 0 141 18.5t107 44.5l45 -110
q-133 -84 -311 -84q-215 0 -334 170h-6q-54 -69 -139.5 -121.5t-190.5 -52.5q-147 0 -230 75.5t-83 194.5zM252 270q0 -78 49.5 -122t136.5 -44q71 0 142.5 44.5t105.5 97.5q-33 78 -37 215h-160q-99 0 -168 -50.5t-69 -140.5zM1049 809q-98 1 -161 -64t-77 -170h463
q-1 108 -62 171t-163 63z" />
    <glyph glyph-name="ccedilla" unicode="&#xe7;" horiz-adv-x="925" 
d="M471 -10q-161 23 -265 145t-104 326q0 207 115.5 342t319.5 135q179 0 292 -74l-51 -112q-79 57 -211 57q-94 0 -161.5 -48.5t-98.5 -125t-31 -172.5q0 -151 81 -247.5t212 -96.5q68 0 132.5 18t103.5 45l51 -112q-133 -84 -313 -84l-15 -54v-8q53 0 102.5 -30t49.5 -89
q0 -70 -55.5 -106.5t-143.5 -36.5q-47 0 -110 19v75q58 -20 102 -20q47 0 77 16t30 45q0 32 -37.5 45t-79.5 13l-27 24z" />
    <glyph glyph-name="egrave" unicode="&#xe8;" horiz-adv-x="1052" 
d="M559 -16q-88 0 -167.5 32t-141 91t-97.5 150.5t-36 203.5q0 115 35 207t95 150t137.5 89t166.5 31q184 0 286.5 -134.5t88.5 -352.5h-645q3 -153 85 -244.5t212 -91.5q75 0 147 18.5t111 44.5l45 -110q-133 -84 -322 -84zM289 563h487q-2 109 -64 177.5t-163 68.5
q-109 1 -177.5 -68.5t-82.5 -177.5zM524 1094l-272 317h192l189 -317h-109z" />
    <glyph glyph-name="eacute" unicode="&#xe9;" horiz-adv-x="1052" 
d="M559 -16q-88 0 -167.5 32t-141 91t-97.5 150.5t-36 203.5q0 115 35 207t95 150t137.5 89t166.5 31q184 0 286.5 -134.5t88.5 -352.5h-645q3 -153 85 -244.5t212 -91.5q75 0 147 18.5t111 44.5l45 -110q-133 -84 -322 -84zM549 809q-109 1 -177.5 -68.5t-82.5 -177.5h487
q-2 109 -64 177.5t-163 68.5zM463 1094l188 317h193l-273 -317h-108z" />
    <glyph glyph-name="ecircumflex" unicode="&#xea;" horiz-adv-x="1038" 
d="M117 461q0 115 35 207t95 150t137.5 89t166.5 31q184 0 286.5 -134.5t88.5 -352.5h-645q3 -153 85 -244.5t212 -91.5q75 0 147 18.5t111 44.5l45 -110q-133 -84 -322 -84q-88 0 -167.5 32t-141 91t-97.5 150.5t-36 203.5zM549 809q-109 1 -177.5 -68.5t-82.5 -177.5h487
q-2 109 -64 177.5t-163 68.5zM215 1087l231 318h148l231 -318h-112l-189 213h-6l-190 -213h-113z" />
    <glyph glyph-name="edieresis" unicode="&#xeb;" horiz-adv-x="1038" 
d="M117 461q0 115 35 207t95 150t137.5 89t166.5 31q184 0 286.5 -134.5t88.5 -352.5h-645q3 -153 85 -244.5t212 -91.5q75 0 147 18.5t111 44.5l45 -110q-133 -84 -322 -84q-88 0 -167.5 32t-141 91t-97.5 150.5t-36 203.5zM289 563h487q-2 109 -64 177.5t-163 68.5
q-109 1 -177.5 -68.5t-82.5 -177.5zM698 1112q-45 0 -77.5 33t-32.5 78t32.5 77.5t77.5 32.5q44 0 76.5 -33t32.5 -77t-32.5 -77.5t-76.5 -33.5zM238 1223q0 44 33 77t77 33t77.5 -33t33.5 -77t-33.5 -77.5t-77.5 -33.5t-77 33.5t-33 77.5z" />
    <glyph glyph-name="igrave" unicode="&#xec;" horiz-adv-x="489" 
d="M162 0v922h170v-922h-170zM-57 1411h192l189 -317h-109z" />
    <glyph glyph-name="iacute" unicode="&#xed;" horiz-adv-x="489" 
d="M162 0v922h170v-922h-170zM332 1411h192l-272 -317h-109z" />
    <glyph glyph-name="icircumflex" unicode="&#xee;" horiz-adv-x="489" 
d="M162 0v922h170v-922h-170zM-59 1087l231 318h145l234 -318h-113l-190 213h-6l-189 -213h-112z" />
    <glyph glyph-name="idieresis" unicode="&#xef;" horiz-adv-x="489" 
d="M162 922h170v-922h-170v922zM309 1223q0 44 33.5 77t77.5 33t77 -33t33 -77t-33 -77.5t-77 -33.5t-77.5 33.5t-33.5 77.5zM-39 1223q0 45 32.5 77.5t78.5 32.5q44 0 76 -33t32 -77q0 -45 -32 -78t-76 -33q-45 0 -78 33t-33 78z" />
    <glyph glyph-name="eth" unicode="&#xf0;" horiz-adv-x="1206" 
d="M600 -16q-114 0 -209.5 37t-158.5 100.5t-97.5 148.5t-34.5 181q0 89 32.5 168.5t91.5 140t148 96t195 35.5q210 0 342 -162h6q-22 226 -143 356l-156 -94l-32 51l139 86q-93 74 -219 74q-49 0 -107 -14l-45 135q74 23 152 23q214 0 364 -129l164 100l33 -51l-152 -92
q191 -207 191 -603q0 -270 -132.5 -428.5t-371.5 -158.5zM584 772q-133 0 -218 -87.5t-85 -242.5q0 -78 27.5 -142t73.5 -104t102 -61.5t116 -21.5q126 0 213.5 95.5t87.5 272.5q0 136 -95 213.5t-222 77.5z" />
    <glyph glyph-name="ntilde" unicode="&#xf1;" horiz-adv-x="1060" 
d="M137 0v922h150l10 -160h6q40 75 113.5 127.5t171.5 52.5q184 0 270 -112.5t86 -346.5v-483h-170v449q0 172 -49 260t-176 88q-91 0 -154 -78.5t-88 -200.5v-518h-170zM205 1118q14 87 62.5 148t135.5 61q47 0 84 -20t57 -43.5t48 -43.5t59 -20q46 0 71.5 35t31.5 78h102
q-10 -85 -62.5 -148t-142.5 -63q-38 0 -69.5 12.5t-52 31t-39 36.5t-40.5 30.5t-47 12.5t-43 -9.5t-29 -27.5t-16 -33.5t-10 -36.5h-100z" />
    <glyph glyph-name="ograve" unicode="&#xf2;" horiz-adv-x="1058" 
d="M528 -16q-88 0 -166 31t-137.5 89.5t-94 150.5t-34.5 206t34.5 206t94 150.5t137.5 89.5t166 31t166 -31t138.5 -89.5t95.5 -150.5t35 -206t-35 -206t-95.5 -150.5t-138.5 -89.5t-166 -31zM270 461q0 -152 67.5 -246t190.5 -94q124 0 192 94t68 246q0 154 -68 248
t-192 94q-123 1 -190.5 -93.5t-67.5 -248.5zM504 1094l-273 317h193l188 -317h-108z" />
    <glyph glyph-name="oacute" unicode="&#xf3;" horiz-adv-x="1058" 
d="M528 -16q-88 0 -166 31t-137.5 89.5t-94 150.5t-34.5 206t34.5 206t94 150.5t137.5 89.5t166 31t166 -31t138.5 -89.5t95.5 -150.5t35 -206t-35 -206t-95.5 -150.5t-138.5 -89.5t-166 -31zM528 803q-123 1 -190.5 -93.5t-67.5 -248.5q0 -152 67.5 -246t190.5 -94
q124 0 192 94t68 246q0 154 -68 248t-192 94zM442 1094l191 317h190l-272 -317h-109z" />
    <glyph glyph-name="ocircumflex" unicode="&#xf4;" horiz-adv-x="1058" 
d="M528 -16q-88 0 -166 31t-137.5 89.5t-94 150.5t-34.5 206t34.5 206t94 150.5t137.5 89.5t166 31t166 -31t138.5 -89.5t95.5 -150.5t35 -206t-35 -206t-95.5 -150.5t-138.5 -89.5t-166 -31zM528 803q-123 1 -190.5 -93.5t-67.5 -248.5q0 -152 67.5 -246t190.5 -94
q124 0 192 94t68 246q0 154 -68 248t-192 94zM336 1087h-111l232 318h145l232 -318h-113l-189 213h-6z" />
    <glyph glyph-name="otilde" unicode="&#xf5;" horiz-adv-x="1058" 
d="M528 -16q-88 0 -166 31t-137.5 89.5t-94 150.5t-34.5 206t34.5 206t94 150.5t137.5 89.5t166 31t166 -31t138.5 -89.5t95.5 -150.5t35 -206t-35 -206t-95.5 -150.5t-138.5 -89.5t-166 -31zM528 803q-123 1 -190.5 -93.5t-67.5 -248.5q0 -152 67.5 -246t190.5 -94
q124 0 192 94t68 246q0 154 -68 248t-192 94zM305 1118h-100q14 88 61.5 148.5t134.5 60.5q38 0 69.5 -13t52 -31.5t39 -37.5t40.5 -32t47 -13q47 0 72 34t33 79h100q-8 -84 -61 -147.5t-142 -63.5q-38 0 -69.5 12.5t-52 31t-39 36.5t-41 30.5t-48.5 12.5q-77 0 -96 -107z
" />
    <glyph glyph-name="odieresis" unicode="&#xf6;" horiz-adv-x="1058" 
d="M528 -16q-88 0 -166 31t-137.5 89.5t-94 150.5t-34.5 206t34.5 206t94 150.5t137.5 89.5t166 31t166 -31t138.5 -89.5t95.5 -150.5t35 -206t-35 -206t-95.5 -150.5t-138.5 -89.5t-166 -31zM528 803q-123 1 -190.5 -93.5t-67.5 -248.5q0 -152 67.5 -246t190.5 -94
q124 0 192 94t68 246q0 154 -68 248t-192 94zM705 1112q-45 0 -78 33t-33 78t33 77.5t78 32.5q44 0 76 -33t32 -77q0 -45 -32 -78t-76 -33zM246 1223q0 45 32.5 77.5t77.5 32.5q43 0 76 -33t33 -77t-33 -77.5t-76 -33.5q-45 0 -77.5 33t-32.5 78z" />
    <glyph glyph-name="divide" unicode="&#xf7;" horiz-adv-x="1103" 
d="M106 455v102h891v-102h-891zM442 109q0 46 32.5 78t78.5 32q45 0 78 -32.5t33 -77.5q0 -44 -33.5 -77.5t-77.5 -33.5q-45 0 -78 33t-33 78zM553 760q-45 0 -78 33t-33 77q0 46 32.5 78.5t78.5 32.5q44 0 76.5 -32.5t32.5 -78.5q0 -44 -32.5 -77t-76.5 -33z" />
    <glyph glyph-name="oslash" unicode="&#xf8;" horiz-adv-x="1058" 
d="M281 57q-87 59 -136 161.5t-49 242.5q0 114 34.5 206t94 150.5t137.5 89.5t166 31q122 0 220 -55l57 102l55 -31l-59 -106q162 -132 162 -387q0 -114 -35 -206t-95.5 -150.5t-138.5 -89.5t-166 -31q-102 0 -192 41l-53 -95l-56 31zM356 193l318 563q-59 47 -146 47
q-123 1 -190.5 -93.5t-67.5 -248.5q0 -176 86 -268zM408 152q54 -31 120 -31q124 0 192 94t68 246q0 155 -67 246z" />
    <glyph glyph-name="ugrave" unicode="&#xf9;" horiz-adv-x="1060" 
d="M117 477v445h170v-445q0 -174 49 -263t176 -89q91 0 154 78t88 200v519h170v-922h-150l-12 160h-6q-40 -76 -112.5 -128t-170.5 -52q-185 0 -270.5 120.5t-85.5 376.5zM477 1094l-272 317h192l189 -317h-109z" />
    <glyph glyph-name="uacute" unicode="&#xfa;" horiz-adv-x="1060" 
d="M117 922h170v-445q0 -174 49 -263t176 -89q91 0 154 78t88 200v519h170v-922h-150l-12 160h-6q-40 -76 -112.5 -128t-170.5 -52q-185 0 -270.5 120.5t-85.5 376.5v445zM440 1094l189 317h192l-272 -317h-109z" />
    <glyph glyph-name="ucircumflex" unicode="&#xfb;" horiz-adv-x="1060" 
d="M117 477v445h170v-445q0 -174 49 -263t176 -89q91 0 154 78t88 200v519h170v-922h-150l-12 160h-6q-40 -76 -112.5 -128t-170.5 -52q-185 0 -270.5 120.5t-85.5 376.5zM225 1087l232 318h147l232 -318h-113l-188 213h-7l-190 -213h-113z" />
    <glyph glyph-name="udieresis" unicode="&#xfc;" horiz-adv-x="1060" 
d="M473 -20q-185 0 -270.5 120.5t-85.5 376.5v445h170v-445q0 -174 49 -263t176 -89q91 0 154 78t88 200v519h170v-922h-150l-12 160h-6q-40 -76 -112.5 -128t-170.5 -52zM592 1223q0 45 32.5 77.5t77.5 32.5q43 0 76 -33t33 -77t-33 -77.5t-76 -33.5q-45 0 -77.5 33
t-32.5 78zM242 1223q0 45 32.5 77.5t77.5 32.5q44 0 76.5 -33t32.5 -77t-32.5 -77.5t-76.5 -33.5q-45 0 -77.5 33t-32.5 78z" />
    <glyph glyph-name="yacute" unicode="&#xfd;" horiz-adv-x="940" 
d="M23 -512v137h49q137 0 237.5 102.5t145.5 266.5l-428 928h186l319 -715h7l221 715h153l-278 -873q-87 -273 -223.5 -417t-339.5 -144h-49zM532 1094h-108l188 317h193z" />
    <glyph glyph-name="thorn" unicode="&#xfe;" horiz-adv-x="1087" 
d="M307 -512h-170v1946h170v-637h6q87 141 277 141q174 0 287.5 -126t113.5 -351q0 -113 -33 -205t-89 -150.5t-128 -90t-151 -31.5q-182 0 -277 149h-6v-645zM553 803q-114 0 -180 -95t-66 -251q0 -138 70 -240t176 -102q117 0 187.5 99.5t70.5 246.5q0 149 -67.5 246
t-190.5 96z" />
    <glyph glyph-name="ydieresis" unicode="&#xff;" horiz-adv-x="940" 
d="M23 -512v137h49q137 0 237.5 102.5t145.5 266.5l-428 928h186l319 -715h7l221 715h153l-278 -873q-87 -273 -223.5 -417t-339.5 -144h-49zM575 1223q0 45 32.5 77.5t78.5 32.5q43 0 76 -33t33 -77t-33 -77.5t-76 -33.5q-45 0 -78 33t-33 78zM336 1112q-45 0 -78 33
t-33 78t32.5 77.5t78.5 32.5q44 0 76 -33t32 -77q0 -45 -32 -78t-76 -33z" />
    <glyph glyph-name="Amacron" unicode="&#x100;" horiz-adv-x="1318" 
d="M66 0l538 1440h117l532 -1440h-194l-115 322h-588l-118 -322h-172zM403 459h494l-240 657h-6zM1036 1595h-755v80h755v-80z" />
    <glyph glyph-name="amacron" unicode="&#x101;" horiz-adv-x="987" 
d="M397 -20q-147 0 -230 75.5t-83 194.5q0 104 53 178.5t135.5 108.5t184.5 34q110 0 223 -41q0 134 -51 204.5t-180 70.5q-124 0 -248 -82l-58 113q167 104 336 104q192 0 281.5 -97.5t89.5 -291.5v-373q0 -109 41 -178h-172q-24 39 -31 98h-6q-122 -118 -285 -118z
M489 461q-100 0 -168.5 -51t-68.5 -142q0 -78 49.5 -121t136.5 -43q70 0 139 41.5t103 92.5v172q-26 20 -82 35.5t-109 15.5zM199 1184h581v-80h-581v80z" />
    <glyph glyph-name="Abreve" unicode="&#x102;" horiz-adv-x="1318" 
d="M238 0h-172l538 1440h117l532 -1440h-194l-115 322h-588zM403 459h494l-240 657h-6zM659 1499q-41 0 -79.5 7.5t-78 26t-70 47.5t-52.5 76t-27 107h133q10 -74 56.5 -115.5t117.5 -41.5t117 41.5t55 115.5h134q-6 -74 -36.5 -128t-76.5 -82t-93.5 -41t-99.5 -13z" />
    <glyph glyph-name="abreve" unicode="&#x103;" horiz-adv-x="987" 
d="M84 250q0 104 53 178.5t135.5 108.5t184.5 34q110 0 223 -41q0 134 -51 204.5t-180 70.5q-124 0 -248 -82l-58 113q167 104 336 104q192 0 281.5 -97.5t89.5 -291.5v-373q0 -109 41 -178h-172q-24 39 -31 98h-6q-122 -118 -285 -118q-147 0 -230 75.5t-83 194.5zM252 268
q0 -78 49.5 -121t136.5 -43q70 0 139 41.5t103 92.5v172q-26 20 -82 35.5t-109 15.5q-100 0 -168.5 -51t-68.5 -142zM496 1061q-112 0 -195 67t-96 207h129q11 -77 52.5 -123.5t109.5 -46.5q69 0 109.5 46t51.5 124h127q-13 -140 -94.5 -207t-193.5 -67z" />
    <glyph glyph-name="Aogonek" unicode="&#x104;" horiz-adv-x="1318" 
d="M66 0l538 1440h117l532 -1440h-16q-42 0 -85.5 -52t-43.5 -112q0 -38 20 -56t46 -18q30 0 53 15v-82q-32 -19 -78 -19q-62 0 -103.5 34.5t-41.5 105.5q0 52 30 100t76 84h-51l-115 322h-588l-118 -322h-172zM651 1116l-248 -657h494l-240 657h-6z" />
    <glyph glyph-name="aogonek" unicode="&#x105;" horiz-adv-x="987" 
d="M84 250q0 104 53 178.5t135.5 108.5t184.5 34q110 0 223 -41q0 134 -51 204.5t-180 70.5q-124 0 -248 -82l-58 113q167 104 336 104q192 0 281.5 -97.5t89.5 -291.5v-373q0 -109 41 -178h-41q-41 0 -85 -52t-44 -112q0 -38 19.5 -56t45.5 -18q32 0 54 15v-82
q-32 -19 -76 -19q-63 0 -105.5 34.5t-42.5 105.5q0 100 107 184h-4q-24 39 -31 98h-6q-122 -118 -285 -118q-147 0 -230 75.5t-83 194.5zM489 461q-100 0 -168.5 -51t-68.5 -142q0 -78 49.5 -121t136.5 -43q70 0 139 41.5t103 92.5v172q-26 20 -82 35.5t-109 15.5z" />
    <glyph glyph-name="Cacute" unicode="&#x106;" horiz-adv-x="1329" 
d="M799 -18q-300 0 -486.5 206.5t-185.5 542.5q1 164 51.5 298.5t140 225t212.5 140t268 49.5q245 0 430 -96l-66 -144q-154 80 -356 80q-212 0 -347.5 -154t-135.5 -399q-1 -261 140 -427.5t349 -166.5q212 0 361 90l59 -133q-200 -112 -434 -112zM836 1536h-127l168 279
h184z" />
    <glyph glyph-name="cacute" unicode="&#x107;" horiz-adv-x="925" 
d="M539 -14q-88 0 -166 30.5t-139 88t-96.5 149.5t-35.5 207q0 207 115.5 342t319.5 135q179 0 292 -74l-51 -112q-79 57 -211 57q-94 0 -161.5 -48.5t-98.5 -125t-31 -172.5q0 -151 81 -247.5t212 -96.5q68 0 132.5 18t103.5 45l51 -112q-133 -84 -317 -84zM453 1094
l190 317h193l-275 -317h-108z" />
    <glyph glyph-name="Ccircumflex" unicode="&#x108;" horiz-adv-x="1329" 
d="M799 -18q-300 0 -486.5 206.5t-185.5 542.5q1 164 51.5 298.5t140 225t212.5 140t268 49.5q245 0 430 -96l-66 -144q-154 80 -356 80q-212 0 -347.5 -154t-135.5 -399q-1 -261 140 -427.5t349 -166.5q212 0 361 90l59 -133q-200 -112 -434 -112zM483 1536l232 264h143
l229 -264h-131l-165 160h-9l-166 -160h-133z" />
    <glyph glyph-name="ccircumflex" unicode="&#x109;" horiz-adv-x="925" 
d="M539 -14q-88 0 -166 30.5t-139 88t-96.5 149.5t-35.5 207q0 207 115.5 342t319.5 135q179 0 292 -74l-51 -112q-79 57 -211 57q-94 0 -161.5 -48.5t-98.5 -125t-31 -172.5q0 -151 81 -247.5t212 -96.5q68 0 132.5 18t103.5 45l51 -112q-133 -84 -317 -84zM346 1087h-113
l234 318h145l232 -318h-113l-188 213h-6z" />
    <glyph glyph-name="Cdotaccent" unicode="&#x10a;" horiz-adv-x="1329" 
d="M799 -18q-300 0 -486.5 206.5t-185.5 542.5q1 164 51.5 298.5t140 225t212.5 140t268 49.5q245 0 430 -96l-66 -144q-154 80 -356 80q-212 0 -347.5 -154t-135.5 -399q-1 -261 140 -427.5t349 -166.5q212 0 361 90l59 -133q-200 -112 -434 -112zM791 1567q-47 0 -81 33
t-34 79q0 47 34 81t81 34q46 0 79 -34t33 -81q0 -46 -33 -79t-79 -33z" />
    <glyph glyph-name="cdotaccent" unicode="&#x10b;" horiz-adv-x="925" 
d="M539 -14q-88 0 -166 30.5t-139 88t-96.5 149.5t-35.5 207q0 207 115.5 342t319.5 135q179 0 292 -74l-51 -112q-79 57 -211 57q-94 0 -161.5 -48.5t-98.5 -125t-31 -172.5q0 -151 81 -247.5t212 -96.5q68 0 132.5 18t103.5 45l51 -112q-133 -84 -317 -84zM428 1223
q0 45 33 77.5t78 32.5q44 0 76 -33t32 -77q0 -45 -32 -78t-76 -33q-45 0 -78 33t-33 78z" />
    <glyph glyph-name="Ccaron" unicode="&#x10c;" horiz-adv-x="1329" 
d="M799 -18q-300 0 -486.5 206.5t-185.5 542.5q1 164 51.5 298.5t140 225t212.5 140t268 49.5q245 0 430 -96l-66 -144q-154 80 -356 80q-212 0 -347.5 -154t-135.5 -399q-1 -261 140 -427.5t349 -166.5q212 0 361 90l59 -133q-200 -112 -434 -112zM479 1800h133l166 -160h8
l164 160h133l-229 -264h-143z" />
    <glyph glyph-name="ccaron" unicode="&#x10d;" horiz-adv-x="925" 
d="M539 -14q-88 0 -166 30.5t-139 88t-96.5 149.5t-35.5 207q0 207 115.5 342t319.5 135q179 0 292 -74l-51 -112q-79 57 -211 57q-94 0 -161.5 -48.5t-98.5 -125t-31 -172.5q0 -151 81 -247.5t212 -96.5q68 0 132.5 18t103.5 45l51 -112q-133 -84 -317 -84zM233 1405h113
l189 -213h6l190 213h111l-232 -318h-145z" />
    <glyph glyph-name="Dcaron" unicode="&#x10e;" horiz-adv-x="1394" 
d="M168 1427q224 17 428 17q310 0 491 -186.5t183 -499.5q0 -164 -45.5 -305t-129.5 -245.5t-212.5 -164t-286.5 -59.5q-265 0 -428 16v1427zM352 145q105 -10 248 -10q144 0 253.5 85.5t165 226.5t54.5 311q-2 238 -128 386t-345 148q-138 0 -248 -10v-1137zM305 1800h133
l166 -160h8l164 160h133l-229 -264h-143z" />
    <glyph glyph-name="dcaron" unicode="&#x10f;" 
d="M496 -16q-79 0 -150 31.5t-127.5 90t-89.5 150.5t-33 205q0 225 114 351t290 126q184 0 276 -137h6v735h168v-1536h-145l-10 143h-7q-103 -159 -292 -159zM532 803q-122 1 -190 -96t-68 -246q0 -147 70.5 -246.5t187.5 -99.5q106 0 177 102.5t71 239.5q0 156 -66.5 251
t-181.5 95zM1280 1042h-90q82 230 82 494h129q0 -261 -121 -494z" />
    <glyph glyph-name="Dcroat" unicode="&#x110;" horiz-adv-x="1394" 
d="M66 786h102v641q224 17 428 17q310 0 491 -186.5t183 -499.5q0 -164 -45.5 -305t-129.5 -245.5t-212.5 -164t-286.5 -59.5q-265 0 -428 16v688h-102v98zM352 786h316v-98h-316v-543q105 -10 248 -10q144 0 253.5 85.5t165 226.5t54.5 311q-2 238 -128 386t-345 148
q-138 0 -248 -10v-496z" />
    <glyph glyph-name="dcroat" unicode="&#x111;" horiz-adv-x="1087" 
d="M96 461q0 225 114 351t290 126q184 0 276 -137h6v303h-311v80h311v352h168v-352h103v-80h-103v-1104h-145l-10 143h-7q-103 -159 -292 -159q-79 0 -150 31.5t-127.5 90t-89.5 150.5t-33 205zM532 803q-122 1 -190 -96t-68 -246q0 -147 70.5 -246.5t187.5 -99.5
q106 0 177 102.5t71 239.5q0 156 -66.5 251t-181.5 95z" />
    <glyph glyph-name="Emacron" unicode="&#x112;" horiz-adv-x="1136" 
d="M168 0v1434h833v-156h-649v-469h588v-145h-588v-508h649v-156h-833zM211 1675h756v-80h-756v80z" />
    <glyph glyph-name="emacron" unicode="&#x113;" horiz-adv-x="1038" 
d="M117 461q0 115 35 207t95 150t137.5 89t166.5 31q184 0 286.5 -134.5t88.5 -352.5h-645q3 -153 85 -244.5t212 -91.5q75 0 147 18.5t111 44.5l45 -110q-133 -84 -322 -84q-88 0 -167.5 32t-141 91t-97.5 150.5t-36 203.5zM289 563h487q-2 109 -64 177.5t-163 68.5
q-109 1 -177.5 -68.5t-82.5 -177.5zM842 1104h-582v80h582v-80z" />
    <glyph glyph-name="Ebreve" unicode="&#x114;" horiz-adv-x="1136" 
d="M168 0v1434h833v-156h-649v-469h588v-145h-588v-508h649v-156h-833zM287 1763h133q9 -74 55 -115.5t117 -41.5q73 0 119 41.5t55 115.5h133q-6 -74 -36.5 -128t-76 -82t-93.5 -41t-101 -13q-52 0 -99.5 13t-93 41t-76 82t-36.5 128z" />
    <glyph glyph-name="ebreve" unicode="&#x115;" horiz-adv-x="1038" 
d="M559 -16q-88 0 -167.5 32t-141 91t-97.5 150.5t-36 203.5q0 115 35 207t95 150t137.5 89t166.5 31q184 0 286.5 -134.5t88.5 -352.5h-645q3 -153 85 -244.5t212 -91.5q75 0 147 18.5t111 44.5l45 -110q-133 -84 -322 -84zM549 809q-109 1 -177.5 -68.5t-82.5 -177.5h487
q-2 109 -64 177.5t-163 68.5zM262 1335h127q11 -77 52.5 -123.5t109.5 -46.5q69 0 110 46.5t52 123.5h127q-13 -140 -95 -207t-194 -67t-194 67t-95 207z" />
    <glyph glyph-name="Edotaccent" unicode="&#x116;" horiz-adv-x="1136" 
d="M168 1434h833v-156h-649v-469h588v-145h-588v-508h649v-156h-833v1434zM590 1567q-47 0 -81 33t-34 79q0 47 34 81t81 34q45 0 78.5 -34t33.5 -81q0 -45 -33.5 -78.5t-78.5 -33.5z" />
    <glyph glyph-name="edotaccent" unicode="&#x117;" horiz-adv-x="1038" 
d="M117 461q0 115 35 207t95 150t137.5 89t166.5 31q184 0 286.5 -134.5t88.5 -352.5h-645q3 -153 85 -244.5t212 -91.5q75 0 147 18.5t111 44.5l45 -110q-133 -84 -322 -84q-88 0 -167.5 32t-141 91t-97.5 150.5t-36 203.5zM549 809q-109 1 -177.5 -68.5t-82.5 -177.5h487
q-2 109 -64 177.5t-163 68.5zM551 1112q-45 0 -78 33t-33 78t33 77.5t78 32.5q44 0 76 -33t32 -77q0 -45 -32 -78t-76 -33z" />
    <glyph glyph-name="Eogonek" unicode="&#x118;" horiz-adv-x="1136" 
d="M168 0v1434h833v-156h-649v-469h588v-145h-588v-508h649v-156h-2q-42 0 -86.5 -52t-44.5 -112q0 -38 21 -56t47 -18q30 0 53 15v-82q-38 -19 -78 -19q-62 0 -104.5 34.5t-42.5 105.5q0 98 106 184h-702z" />
    <glyph glyph-name="eogonek" unicode="&#x119;" horiz-adv-x="1038" 
d="M117 461q0 115 35 207t95 150t137.5 89t166.5 31q184 0 286.5 -134.5t88.5 -352.5h-645q3 -153 85 -244.5t212 -91.5q75 0 147 18.5t111 44.5l45 -110q-88 -56 -205 -74q-39 -19 -70 -64t-31 -94q0 -37 20.5 -55.5t45.5 -18.5q33 0 55 15v-82q-38 -19 -78 -19
q-62 0 -104.5 34.5t-42.5 105.5q0 87 88 168q-88 0 -167.5 32t-141 91t-97.5 150.5t-36 203.5zM549 809q-109 1 -177.5 -68.5t-82.5 -177.5h487q-2 109 -64 177.5t-163 68.5z" />
    <glyph glyph-name="Ecaron" unicode="&#x11a;" horiz-adv-x="1136" 
d="M168 0v1434h833v-156h-649v-469h588v-145h-588v-508h649v-156h-833zM512 1536l-231 264h133l166 -160h8l164 160h133l-230 -264h-143z" />
    <glyph glyph-name="ecaron" unicode="&#x11b;" horiz-adv-x="1038" 
d="M559 -16q-88 0 -167.5 32t-141 91t-97.5 150.5t-36 203.5q0 115 35 207t95 150t137.5 89t166.5 31q184 0 286.5 -134.5t88.5 -352.5h-645q3 -153 85 -244.5t212 -91.5q75 0 147 18.5t111 44.5l45 -110q-133 -84 -322 -84zM289 563h487q-2 109 -64 177.5t-163 68.5
q-109 1 -177.5 -68.5t-82.5 -177.5zM246 1405h112l189 -213h6l190 213h113l-233 -318h-146z" />
    <glyph glyph-name="Gcircumflex" unicode="&#x11c;" horiz-adv-x="1374" 
d="M813 -20q-311 0 -499 203t-187 554q1 219 91 380t247 244t362 83q233 0 443 -96l-66 -144q-179 86 -368 86q-237 0 -374 -146.5t-138 -406.5q0 -282 132 -443t357 -161q149 0 293 72v377h-307v137h471v-613q-104 -59 -224 -92.5t-233 -33.5zM516 1536l232 264h143
l229 -264h-133l-164 160h-8l-166 -160h-133z" />
    <glyph glyph-name="gcircumflex" unicode="&#x11d;" horiz-adv-x="1087" 
d="M68 -233q0 75 48.5 135.5t129.5 101.5q-133 53 -133 178q0 61 37 112t100 81q-103 86 -103 237q0 80 29 141t71 95t98 55.5t101.5 28t90.5 6.5q118 0 223 -51q38 67 108.5 115t165.5 45v-138q-128 10 -194 -80q86 -83 86 -217q0 -67 -20.5 -121t-55.5 -88t-75.5 -58
t-87 -36t-82 -17t-68.5 -5q-102 0 -189 32q-37 -16 -62.5 -45t-25.5 -63q0 -54 69.5 -79.5t231.5 -25.5q131 0 221 -18t143.5 -55.5t77 -89.5t23.5 -125q0 -148 -148 -239t-380 -91q-204 0 -317 74.5t-113 204.5zM551 -41q-75 0 -137 6q-73 -20 -128 -66t-55 -108
q0 -90 76 -134t199 -44q100 0 178 19t127 63t49 108q0 87 -68.5 121.5t-240.5 34.5zM537 825q-116 0 -171 -59t-55 -154q2 -96 56 -154.5t170 -58.5q106 0 165.5 61t59.5 152q0 89 -60.5 151t-164.5 62zM225 1087l232 318h145l232 -318h-113l-189 213h-6l-190 -213h-111z
" />
    <glyph glyph-name="Gbreve" unicode="&#x11e;" horiz-adv-x="1374" 
d="M813 -20q-311 0 -499 203t-187 554q1 219 91 380t247 244t362 83q233 0 443 -96l-66 -144q-179 86 -368 86q-237 0 -374 -146.5t-138 -406.5q0 -282 132 -443t357 -161q149 0 293 72v377h-307v137h471v-613q-104 -59 -224 -92.5t-233 -33.5zM788 1499q-52 0 -100 13
t-93.5 41t-75.5 82t-36 128h131q10 -74 56.5 -115.5t117.5 -41.5t117.5 41.5t55.5 115.5h133q-6 -74 -36.5 -128t-76.5 -82t-93.5 -41t-99.5 -13z" />
    <glyph glyph-name="gbreve" unicode="&#x11f;" horiz-adv-x="1087" 
d="M498 -512q-204 0 -317 74.5t-113 204.5q0 75 48.5 135.5t129.5 101.5q-133 53 -133 178q0 61 37 112t100 81q-103 86 -103 237q0 80 29 141t71 95t98 55.5t101.5 28t90.5 6.5q118 0 223 -51q38 67 108.5 115t165.5 45v-138q-128 10 -194 -80q86 -83 86 -217
q0 -67 -20.5 -121t-55.5 -88t-75.5 -58t-87 -36t-82 -17t-68.5 -5q-102 0 -189 32q-37 -16 -62.5 -45t-25.5 -63q0 -54 69.5 -79.5t231.5 -25.5q131 0 221 -18t143.5 -55.5t77 -89.5t23.5 -125q0 -148 -148 -239t-380 -91zM551 -41q-75 0 -137 6q-73 -20 -128 -66t-55 -108
q0 -90 76 -134t199 -44q100 0 178 19t127 63t49 108q0 87 -68.5 121.5t-240.5 34.5zM537 825q-116 0 -171 -59t-55 -154q2 -96 56 -154.5t170 -58.5q106 0 165.5 61t59.5 152q0 89 -60.5 151t-164.5 62zM539 1061q-112 0 -194 67t-95 207h129q9 -77 50.5 -123.5t109.5 -46.5
q69 0 110.5 46.5t50.5 123.5h129q-13 -140 -95.5 -207t-194.5 -67z" />
    <glyph glyph-name="Gdotaccent" unicode="&#x120;" horiz-adv-x="1374" 
d="M813 -20q-311 0 -499 203t-187 554q1 219 91 380t247 244t362 83q233 0 443 -96l-66 -144q-179 86 -368 86q-237 0 -374 -146.5t-138 -406.5q0 -282 132 -443t357 -161q149 0 293 72v377h-307v137h471v-613q-104 -59 -224 -92.5t-233 -33.5zM696 1679q0 47 34 81t81 34
q45 0 79 -34t34 -81q0 -45 -34 -78.5t-79 -33.5q-47 0 -81 33t-34 79z" />
    <glyph glyph-name="gdotaccent" unicode="&#x121;" horiz-adv-x="1087" 
d="M498 -512q-204 0 -317 74.5t-113 204.5q0 75 48.5 135.5t129.5 101.5q-133 53 -133 178q0 61 37 112t100 81q-103 86 -103 237q0 80 29 141t71 95t98 55.5t101.5 28t90.5 6.5q118 0 223 -51q38 67 108.5 115t165.5 45v-138q-128 10 -194 -80q86 -83 86 -217
q0 -67 -20.5 -121t-55.5 -88t-75.5 -58t-87 -36t-82 -17t-68.5 -5q-102 0 -189 32q-37 -16 -62.5 -45t-25.5 -63q0 -54 69.5 -79.5t231.5 -25.5q131 0 221 -18t143.5 -55.5t77 -89.5t23.5 -125q0 -148 -148 -239t-380 -91zM551 -41q-75 0 -137 6q-73 -20 -128 -66t-55 -108
q0 -90 76 -134t199 -44q100 0 178 19t127 63t49 108q0 87 -68.5 121.5t-240.5 34.5zM537 825q-116 0 -171 -59t-55 -154q2 -96 56 -154.5t170 -58.5q106 0 165.5 61t59.5 152q0 89 -60.5 151t-164.5 62zM539 1112q-45 0 -78 33t-33 78t33 77.5t78 32.5q44 0 76 -33t32 -77
q0 -45 -32 -78t-76 -33z" />
    <glyph glyph-name="uni0122" unicode="&#x122;" horiz-adv-x="1374" 
d="M813 -20q-311 0 -499 203t-187 554q1 219 91 380t247 244t362 83q233 0 443 -96l-66 -144q-179 86 -368 86q-237 0 -374 -146.5t-138 -406.5q0 -282 132 -443t357 -161q149 0 293 72v377h-307v137h471v-613q-104 -59 -224 -92.5t-233 -33.5zM649 -281q58 21 88 75.5
t13 148.5h124q23 -116 -45 -206.5t-180 -105.5v88z" />
    <glyph glyph-name="uni0123" unicode="&#x123;" horiz-adv-x="1087" 
d="M498 -512q-204 0 -317 74.5t-113 204.5q0 75 48.5 135.5t129.5 101.5q-133 53 -133 178q0 61 37 112t100 81q-103 86 -103 237q0 80 29 141t71 95t98 55.5t101.5 28t90.5 6.5q118 0 223 -51q38 67 108.5 115t165.5 45v-138q-128 10 -194 -80q86 -83 86 -217
q0 -67 -20.5 -121t-55.5 -88t-75.5 -58t-87 -36t-82 -17t-68.5 -5q-102 0 -189 32q-37 -16 -62.5 -45t-25.5 -63q0 -54 69.5 -79.5t231.5 -25.5q131 0 221 -18t143.5 -55.5t77 -89.5t23.5 -125q0 -148 -148 -239t-380 -91zM551 -41q-75 0 -137 6q-73 -20 -128 -66t-55 -108
q0 -90 76 -134t199 -44q100 0 178 19t127 63t49 108q0 87 -68.5 121.5t-240.5 34.5zM537 825q-116 0 -171 -59t-55 -154q2 -96 56 -154.5t170 -58.5q106 0 165.5 61t59.5 152q0 89 -60.5 151t-164.5 62zM436 1104q-21 116 47 206t179 105v-88q-133 -49 -101 -223h-125z" />
    <glyph glyph-name="Hcircumflex" unicode="&#x124;" horiz-adv-x="1329" 
d="M348 0h-186v1434h186v-619h635v619h184v-1434h-184v659h-635v-659zM496 1536h-134l232 264h143l230 -264h-131l-166 160h-8z" />
    <glyph glyph-name="hcircumflex" unicode="&#x125;" horiz-adv-x="1060" 
d="M307 0h-170v1536h170v-768h6q39 72 109.5 123t165.5 51q184 0 270 -112.5t86 -346.5v-483h-170v449q0 172 -49 260t-176 88q-91 0 -154 -78.5t-88 -200.5v-518zM76 1597h-131l231 265h141l232 -265h-133l-166 160h-8z" />
    <glyph glyph-name="Hbar" unicode="&#x126;" horiz-adv-x="1329" 
d="M162 1026h-82v80h82v328h186v-328h635v328h184v-328h103v-80h-103v-1026h-184v659h-635v-659h-186v1026zM983 1026h-637l2 -211h635v211z" />
    <glyph glyph-name="hbar" unicode="&#x127;" horiz-adv-x="1060" 
d="M307 1184h291v-80h-291v-336h6q39 72 109.5 123t165.5 51q184 0 270 -112.5t86 -346.5v-483h-170v449q0 172 -49 260t-176 88q-91 0 -154 -78.5t-88 -200.5v-518h-170v1104h-121v80h121v352h170v-352z" />
    <glyph glyph-name="Itilde" unicode="&#x128;" horiz-adv-x="520" 
d="M168 0v1434h184v-1434h-184zM45 1561h-104q12 84 61 140t139 56q47 0 84.5 -18t57 -39.5t47.5 -39.5t57 -18q48 0 72.5 29.5t29.5 71.5h105q-8 -85 -59.5 -143t-141.5 -58q-48 0 -86.5 17.5t-59 38t-49 38t-57.5 17.5q-47 0 -68 -25t-28 -67z" />
    <glyph glyph-name="itilde" unicode="&#x129;" horiz-adv-x="489" 
d="M162 0v922h170v-922h-170zM20 1118h-100q9 55 29.5 99.5t64.5 77t105 32.5q46 0 83 -20t57 -43.5t48 -43.5t58 -20q47 0 71.5 34t32.5 79h100q-8 -84 -61 -147.5t-141 -63.5q-38 0 -69.5 12.5t-52 31t-39 36.5t-40.5 30.5t-47 12.5q-80 0 -99 -107z" />
    <glyph glyph-name="Imacron" unicode="&#x12a;" horiz-adv-x="520" 
d="M168 0v1434h184v-1434h-184zM-119 1595v80h758v-80h-758z" />
    <glyph glyph-name="imacron" unicode="&#x12b;" horiz-adv-x="489" 
d="M162 0v922h170v-922h-170zM-45 1104v80h582v-80h-582z" />
    <glyph glyph-name="Ibreve" unicode="&#x12c;" horiz-adv-x="520" 
d="M168 0v1434h184v-1434h-184zM-45 1763h133q9 -74 55 -115.5t117 -41.5q72 0 118 41t56 116h133q-5 -60 -27 -107t-52.5 -76t-70 -47.5t-78 -26t-79.5 -7.5q-52 0 -99.5 13t-93 41t-76 82t-36.5 128z" />
    <glyph glyph-name="ibreve" unicode="&#x12d;" horiz-adv-x="489" 
d="M162 0v922h170v-922h-170zM-45 1335h129q9 -77 51 -123.5t111 -46.5t110 46.5t50 123.5h129q-13 -140 -95 -207t-194 -67t-195 67t-96 207z" />
    <glyph glyph-name="Iogonek" unicode="&#x12e;" horiz-adv-x="520" 
d="M113 -184q0 98 106 184h-51v1434h184v-1434h-4q-42 0 -86.5 -52t-44.5 -112q0 -38 21 -56t47 -18q31 0 53 15v-82q-38 -19 -78 -19q-62 0 -104.5 34.5t-42.5 105.5z" />
    <glyph glyph-name="iogonek" unicode="&#x12f;" horiz-adv-x="489" 
d="M238 -324q-63 0 -105.5 34.5t-42.5 105.5q0 100 107 184h-35v922h170v-922h-8q-42 0 -85.5 -52t-43.5 -112q0 -38 19.5 -56t45.5 -18q30 0 53 15v-82q-32 -19 -75 -19zM129 1327q0 49 33.5 83t81.5 34t83 -34t35 -83q0 -47 -35 -81t-83 -34q-47 0 -81 34t-34 81z" />
    <glyph glyph-name="Idotaccent" unicode="&#x130;" horiz-adv-x="520" 
d="M168 0v1434h184v-1434h-184zM147 1679q0 47 34 81t81 34q45 0 79 -34t34 -81q0 -45 -34 -78.5t-79 -33.5q-47 0 -81 33t-34 79z" />
    <glyph glyph-name="dotlessi" unicode="&#x131;" horiz-adv-x="489" 
d="M162 0v922h170v-922h-170z" />
    <glyph glyph-name="IJ" unicode="&#x132;" horiz-adv-x="1333" 
d="M571 27l27 141q28 -13 90 -25t107 -12q124 0 179.5 73t55.5 261v969h176v-969q0 -244 -93.5 -362.5t-317.5 -118.5q-54 0 -124 14t-100 29zM168 1434h184v-1434h-184v1434z" />
    <glyph glyph-name="ij" unicode="&#x133;" horiz-adv-x="919" 
d="M385 -506v139q134 0 190 96t56 308v885h168v-895q0 -126 -21 -220.5t-67.5 -166.5t-128 -109t-197.5 -37zM332 0h-170v922h170v-922zM596 1327q0 49 34 83t83 34q48 0 82 -34t34 -83q0 -47 -34.5 -82t-81.5 -35q-49 0 -83 34.5t-34 82.5zM129 1327q0 49 33.5 83t81.5 34
t83 -34t35 -83q0 -47 -35 -81t-83 -34q-47 0 -81 34t-34 81z" />
    <glyph glyph-name="Jcircumflex" unicode="&#x134;" horiz-adv-x="843" 
d="M80 27l29 141q26 -13 87.5 -25t106.5 -12q124 0 181 73t57 261v969h176v-969q0 -244 -94 -362.5t-320 -118.5q-53 0 -123 14t-100 29zM451 1536h-132l232 264h141l230 -264h-131l-166 160h-9z" />
    <glyph glyph-name="jcircumflex" unicode="&#x135;" horiz-adv-x="442" 
d="M-106 -508h-37v143h37q146 0 203 85.5t57 295.5v906h170v-916q0 -127 -20.5 -218t-68.5 -159.5t-132.5 -102.5t-208.5 -34zM29 1087h-113l231 318h148l231 -318h-112l-189 213h-6z" />
    <glyph glyph-name="uni0136" unicode="&#x136;" horiz-adv-x="1253" 
d="M168 1434h184v-643h6l537 643h205l-559 -662l669 -772h-241l-551 629l-66 -76v-553h-184v1434zM709 -57q23 -116 -45 -206.5t-181 -105.5v88q58 21 88 75.5t13 148.5h125z" />
    <glyph glyph-name="uni0137" unicode="&#x137;" horiz-adv-x="972" 
d="M137 1536h170v-1049h6l387 435h181l-322 -359l336 -563h-188l-256 440l-144 -159v-281h-170v1536zM332 -369v88q132 49 100 224h125q21 -116 -46.5 -206.5t-178.5 -105.5z" />
    <glyph glyph-name="kgreenlandic" unicode="&#x138;" horiz-adv-x="972" 
d="M307 0h-170v922h170v-435h6l387 435h181l-322 -359l336 -563h-188l-256 440l-144 -159v-281z" />
    <glyph glyph-name="Lacute" unicode="&#x139;" horiz-adv-x="1103" 
d="M168 0v1434h184v-1278h670v-156h-854zM373 1815h184l-225 -279h-127z" />
    <glyph glyph-name="lacute" unicode="&#x13a;" horiz-adv-x="444" 
d="M137 0v1536h170v-1536h-170zM313 1876h185l-224 -279h-127z" />
    <glyph glyph-name="uni013B" unicode="&#x13b;" horiz-adv-x="1103" 
d="M1022 0h-854v1434h184v-1278h670v-156zM451 -369v88q132 49 100 224h125q21 -116 -46.5 -206.5t-178.5 -105.5z" />
    <glyph glyph-name="uni013C" unicode="&#x13c;" horiz-adv-x="444" 
d="M137 0v1536h170v-1536h-170zM305 -57q21 -116 -46.5 -206.5t-178.5 -105.5v88q132 49 100 224h125z" />
    <glyph glyph-name="Lcaron" unicode="&#x13d;" horiz-adv-x="1103" 
d="M1022 0h-854v1434h184v-1278h670v-156zM967 1042h-90q84 235 84 494h126q0 -263 -120 -494z" />
    <glyph glyph-name="lcaron" unicode="&#x13e;" horiz-adv-x="905" 
d="M137 1536h170v-1536h-170v1536zM635 1042h-88q82 230 82 494h129q0 -258 -123 -494z" />
    <glyph glyph-name="Ldot" unicode="&#x13f;" horiz-adv-x="1103" 
d="M168 1434h184v-1278h670v-156h-854v1434zM780 672q-49 0 -83.5 34t-34.5 82q0 49 34 83t84 34q46 0 80.5 -34t34.5 -83q0 -47 -34.5 -81.5t-80.5 -34.5z" />
    <glyph glyph-name="ldot" unicode="&#x140;" horiz-adv-x="747" 
d="M137 1536h170v-1536h-170v1536zM584 567q-49 0 -84 34.5t-35 82.5q0 49 34.5 83t84.5 34q46 0 80 -34t34 -83q0 -47 -34 -82t-80 -35z" />
    <glyph glyph-name="Lslash" unicode="&#x141;" horiz-adv-x="1103" 
d="M352 782l217 125l52 -86l-269 -153v-512h670v-156h-854v561l-201 -115l-49 86l250 144v758h184v-652z" />
    <glyph glyph-name="lslash" unicode="&#x142;" horiz-adv-x="444" 
d="M307 715l219 127l49 -88l-268 -154v-600h-170v502l-213 -123l-51 86l264 151v920h170v-821z" />
    <glyph glyph-name="Nacute" unicode="&#x143;" horiz-adv-x="1366" 
d="M344 0h-176v1434h174l674 -1110h6v1110h176v-1434h-178l-670 1087h-6v-1087zM629 1536l168 279h184l-225 -279h-127z" />
    <glyph glyph-name="nacute" unicode="&#x144;" horiz-adv-x="1060" 
d="M307 0h-170v922h150l10 -160h6q40 75 113.5 127.5t171.5 52.5q184 0 270 -112.5t86 -346.5v-483h-170v449q0 172 -49 260t-176 88q-91 0 -154 -78.5t-88 -200.5v-518zM539 1094h-109l188 317h193z" />
    <glyph glyph-name="uni0145" unicode="&#x145;" horiz-adv-x="1366" 
d="M344 0h-176v1434h174l674 -1110h6v1110h176v-1434h-178l-670 1087h-6v-1087zM541 -281q132 49 100 224h125q21 -116 -46.5 -206.5t-178.5 -105.5v88z" />
    <glyph glyph-name="uni0146" unicode="&#x146;" horiz-adv-x="1060" 
d="M307 0h-170v922h150l10 -160h6q40 75 113.5 127.5t171.5 52.5q184 0 270 -112.5t86 -346.5v-483h-170v449q0 172 -49 260t-176 88q-91 0 -154 -78.5t-88 -200.5v-518zM387 -281q132 49 100 224h125q21 -116 -46.5 -206.5t-178.5 -105.5v88z" />
    <glyph glyph-name="Ncaron" unicode="&#x147;" horiz-adv-x="1366" 
d="M344 0h-176v1434h174l674 -1110h6v1110h176v-1434h-178l-670 1087h-6v-1087zM393 1800h131l166 -160h8l166 160h133l-231 -264h-141z" />
    <glyph glyph-name="ncaron" unicode="&#x148;" horiz-adv-x="1060" 
d="M137 0v922h150l10 -160h6q40 75 113.5 127.5t171.5 52.5q184 0 270 -112.5t86 -346.5v-483h-170v449q0 172 -49 260t-176 88q-91 0 -154 -78.5t-88 -200.5v-518h-170zM225 1405h113l190 -213h7l188 213h113l-232 -318h-147z" />
    <glyph glyph-name="napostrophe" unicode="&#x149;" horiz-adv-x="1148" 
d="M225 0v922h150l10 -160h6q40 75 113.5 127.5t171.5 52.5q184 0 270 -112.5t86 -346.5v-483h-170v449q0 172 -49 260t-176 88q-91 0 -154.5 -78t-89.5 -201v-518h-168zM14 1042q82 230 82 494h129q0 -261 -121 -494h-90z" />
    <glyph glyph-name="Eng" unicode="&#x14a;" horiz-adv-x="1366" 
d="M344 0h-176v1434h174l674 -1110h6v1110h176v-1493q0 -225 -95 -339t-319 -114q-52 0 -122 13.5t-101 27.5l29 143q28 -13 88.5 -25t105.5 -12q123 0 180.5 69t57.5 237v57l-672 1089h-6v-1087z" />
    <glyph glyph-name="eng" unicode="&#x14b;" horiz-adv-x="1060" 
d="M307 0h-170v922h150l10 -160h6q40 75 113.5 127.5t171.5 52.5q184 0 270 -112.5t86 -346.5v-456q0 -126 -21 -220.5t-67.5 -166.5t-128 -109t-197.5 -37v139q134 0 189 96t55 308v412q0 66 -6 117t-21.5 95.5t-40.5 73.5t-64.5 45.5t-92.5 16.5q-91 0 -154 -78.5
t-88 -200.5v-518z" />
    <glyph glyph-name="Omacron" unicode="&#x14c;" horiz-adv-x="1497" 
d="M127 717q0 218 74 384t215.5 259.5t331.5 93.5q191 0 333 -93.5t215.5 -259.5t73.5 -384t-73.5 -384t-215.5 -259.5t-333 -93.5q-190 0 -331.5 93.5t-215.5 259.5t-74 384zM748 1292q-200 0 -313 -158t-113 -417t113 -417.5t313 -158.5q201 0 313.5 158.5t112.5 417.5
t-112.5 417t-313.5 158zM1126 1595h-755v80h755v-80z" />
    <glyph glyph-name="omacron" unicode="&#x14d;" horiz-adv-x="1058" 
d="M528 -16q-88 0 -166 31t-137.5 89.5t-94 150.5t-34.5 206t34.5 206t94 150.5t137.5 89.5t166 31t166 -31t138.5 -89.5t95.5 -150.5t35 -206t-35 -206t-95.5 -150.5t-138.5 -89.5t-166 -31zM528 803q-123 1 -190.5 -93.5t-67.5 -248.5q0 -152 67.5 -246t190.5 -94
q124 0 192 94t68 246q0 154 -68 248t-192 94zM240 1184h579v-80h-579v80z" />
    <glyph glyph-name="Obreve" unicode="&#x14e;" horiz-adv-x="1497" 
d="M748 -20q-190 0 -331.5 93.5t-215.5 259.5t-74 384t74 384t215.5 259.5t331.5 93.5q191 0 333 -93.5t215.5 -259.5t73.5 -384t-73.5 -384t-215.5 -259.5t-333 -93.5zM748 1292q-200 0 -313 -158t-113 -417t113 -417.5t313 -158.5q201 0 313.5 158.5t112.5 417.5
t-112.5 417t-313.5 158zM442 1763h133q9 -74 56 -115.5t117 -41.5q73 0 119 41.5t55 115.5h133q-6 -74 -36.5 -128t-76 -82t-93.5 -41t-101 -13q-52 0 -99.5 13t-93.5 41t-76.5 82t-36.5 128z" />
    <glyph glyph-name="obreve" unicode="&#x14f;" horiz-adv-x="1058" 
d="M528 -16q-88 0 -166 31t-137.5 89.5t-94 150.5t-34.5 206t34.5 206t94 150.5t137.5 89.5t166 31t166 -31t138.5 -89.5t95.5 -150.5t35 -206t-35 -206t-95.5 -150.5t-138.5 -89.5t-166 -31zM270 461q0 -152 67.5 -246t190.5 -94q124 0 192 94t68 246q0 154 -68 248
t-192 94q-123 1 -190.5 -93.5t-67.5 -248.5zM528 1061q-112 0 -193.5 67t-94.5 207h129q9 -77 50 -123.5t109 -46.5q69 0 111 46.5t51 123.5h129q-13 -140 -95.5 -207t-195.5 -67z" />
    <glyph glyph-name="Ohungarumlaut" unicode="&#x150;" horiz-adv-x="1497" 
d="M127 717q0 218 74 384t215.5 259.5t331.5 93.5q191 0 333 -93.5t215.5 -259.5t73.5 -384t-73.5 -384t-215.5 -259.5t-333 -93.5q-190 0 -331.5 93.5t-215.5 259.5t-74 384zM748 1292q-200 0 -313 -158t-113 -417t113 -417.5t313 -158.5q201 0 313.5 158.5t112.5 417.5
t-112.5 417t-313.5 158zM639 1536h-127l168 279h184zM969 1536h-127l168 279h182z" />
    <glyph glyph-name="ohungarumlaut" unicode="&#x151;" horiz-adv-x="1058" 
d="M528 -16q-88 0 -166 31t-137.5 89.5t-94 150.5t-34.5 206t34.5 206t94 150.5t137.5 89.5t166 31t166 -31t138.5 -89.5t95.5 -150.5t35 -206t-35 -206t-95.5 -150.5t-138.5 -89.5t-166 -31zM270 461q0 -152 67.5 -246t190.5 -94q124 0 192 94t68 246q0 154 -68 248
t-192 94q-123 1 -190.5 -93.5t-67.5 -248.5zM653 1090l209 344h201l-307 -344h-103zM428 1090h-100l207 344h202z" />
    <glyph glyph-name="OE" unicode="&#x152;" horiz-adv-x="1996" 
d="M829 -10q-322 0 -513 202t-189 539q1 219 89.5 380t246 245t366.5 84q157 0 256 -6h777v-156h-650v-469h588v-145h-588v-508h650v-156h-777q-155 -10 -256 -10zM324 731q-1 -264 142 -425t372 -161q125 0 190 9v1120q-118 10 -192 10q-232 0 -372 -153t-140 -400z" />
    <glyph glyph-name="oe" unicode="&#x153;" horiz-adv-x="1712" 
d="M528 -16q-88 0 -166 31t-137.5 89.5t-94 150.5t-34.5 206t34.5 206t94 150.5t137.5 89.5t166 31q110 0 200.5 -50t143.5 -145h7q53 95 144.5 145t201.5 50q183 0 285.5 -134.5t88.5 -352.5h-645q3 -153 84.5 -244.5t212.5 -91.5q74 0 147 18.5t111 44.5l45 -110
q-133 -84 -321 -84q-112 0 -205.5 51.5t-148.5 148.5h-7q-53 -98 -143 -149t-201 -51zM270 461q0 -152 67.5 -246t190.5 -94q124 0 192 94t68 246q0 154 -68 248t-192 94q-123 1 -190.5 -93.5t-67.5 -248.5zM1223 809q-110 1 -178.5 -68.5t-81.5 -177.5h487
q-2 109 -64 177.5t-163 68.5z" />
    <glyph glyph-name="Racute" unicode="&#x154;" horiz-adv-x="1222" 
d="M168 0v1423q39 3 101 8t90.5 7t77 4t102.5 2q118 0 212.5 -22.5t168.5 -70t114.5 -129t40.5 -192.5q1 -141 -71.5 -237t-190.5 -142v-6q44 -12 83 -42.5t71 -78.5t56.5 -94.5t48.5 -113.5t38 -111.5t33.5 -112t27.5 -92.5h-198q-6 17 -16.5 57t-21 80.5t-28 92.5
t-36.5 97t-47.5 90.5t-61 77.5t-76 52t-92.5 20h-242v-567h-184zM352 1284v-567h166q369 0 369 305q-2 130 -93 201t-259 71q-88 0 -183 -10zM594 1536h-127l168 279h184z" />
    <glyph glyph-name="racute" unicode="&#x155;" horiz-adv-x="741" 
d="M137 0v922h150l12 -158h6q41 80 131 131.5t209 38.5v-154q-35 6 -63 6q-116 0 -185.5 -70t-89.5 -181v-535h-170zM285 1094l188 317h193l-273 -317h-108z" />
    <glyph glyph-name="uni0156" unicode="&#x156;" horiz-adv-x="1222" 
d="M168 0v1423q39 3 101 8t90.5 7t77 4t102.5 2q118 0 212.5 -22.5t168.5 -70t114.5 -129t40.5 -192.5q1 -141 -71.5 -237t-190.5 -142v-6q44 -12 83 -42.5t71 -78.5t56.5 -94.5t48.5 -113.5t38 -111.5t33.5 -112t27.5 -92.5h-198q-6 17 -16.5 57t-21 80.5t-28 92.5
t-36.5 97t-47.5 90.5t-61 77.5t-76 52t-92.5 20h-242v-567h-184zM352 1284v-567h166q369 0 369 305q-2 130 -93 201t-259 71q-88 0 -183 -10zM494 -369v88q132 49 100 224h127q21 -116 -47 -206.5t-180 -105.5z" />
    <glyph glyph-name="uni0157" unicode="&#x157;" horiz-adv-x="741" 
d="M137 0v922h150l12 -158h6q41 80 131 131.5t209 38.5v-154q-35 6 -63 6q-116 0 -185.5 -70t-89.5 -181v-535h-170zM63 -281q58 21 88 75.5t13 148.5h125q21 -116 -47 -206.5t-179 -105.5v88z" />
    <glyph glyph-name="Rcaron" unicode="&#x158;" horiz-adv-x="1222" 
d="M352 0h-184v1423q39 3 101 8t90.5 7t77 4t102.5 2q118 0 212.5 -22.5t168.5 -70t114.5 -129t40.5 -192.5q1 -141 -71.5 -237t-190.5 -142v-6q44 -12 83 -42.5t71 -78.5t56.5 -94.5t48.5 -113.5t38 -111.5t33.5 -112t27.5 -92.5h-198q-6 17 -16.5 57t-21 80.5t-28 92.5
t-36.5 97t-47.5 90.5t-61 77.5t-76 52t-92.5 20h-242v-567zM352 1284v-567h166q369 0 369 305q-2 130 -93 201t-259 71q-88 0 -183 -10zM496 1536l-232 264h131l166 -160h8l166 160h131l-229 -264h-141z" />
    <glyph glyph-name="rcaron" unicode="&#x159;" horiz-adv-x="741" 
d="M307 0h-170v922h150l12 -158h6q41 80 131 131.5t209 38.5v-154q-35 6 -63 6q-116 0 -185.5 -70t-89.5 -181v-535zM297 1087l-231 318h112l191 -213h6l188 213h113l-232 -318h-147z" />
    <glyph glyph-name="Sacute" unicode="&#x15a;" horiz-adv-x="1191" 
d="M72 125l82 143q204 -127 415 -127q149 0 243.5 72t94.5 174q0 95 -84 156t-272 104q-209 47 -313.5 140t-104.5 266q0 179 132 285t337 106q244 0 461 -121l-84 -143q-79 48 -177 80t-192 32q-141 0 -216 -70t-75 -165q0 -98 73.5 -152.5t232.5 -91.5q120 -29 202 -61.5
t144 -81t91 -116t28 -159.5q0 -83 -29 -151.5t-78 -115.5t-115.5 -79.5t-140.5 -47.5t-154 -15q-122 0 -262 38t-239 101zM537 1536l168 279h182l-223 -279h-127z" />
    <glyph glyph-name="sacute" unicode="&#x15b;" horiz-adv-x="878" 
d="M430 -14q-203 0 -336 84l56 118q47 -33 120.5 -54t151.5 -21q83 0 132.5 34.5t49.5 90.5q0 60 -47.5 97t-165.5 73q-262 71 -262 268q0 128 92.5 196t243.5 68q179 0 297 -74l-51 -114q-37 26 -101 43.5t-135 17.5q-81 0 -131.5 -34.5t-50.5 -86.5q0 -59 38.5 -89.5
t119.5 -55.5q168 -48 243.5 -118t75.5 -183q0 -123 -97 -191.5t-243 -68.5zM369 1094l190 317h191l-273 -317h-108z" />
    <glyph glyph-name="Scircumflex" unicode="&#x15c;" horiz-adv-x="1191" 
d="M72 125l82 143q204 -127 415 -127q149 0 243.5 72t94.5 174q0 95 -84 156t-272 104q-209 47 -313.5 140t-104.5 266q0 179 132 285t337 106q244 0 461 -121l-84 -143q-79 48 -177 80t-192 32q-141 0 -216 -70t-75 -165q0 -98 73.5 -152.5t232.5 -91.5q120 -29 202 -61.5
t144 -81t91 -116t28 -159.5q0 -83 -29 -151.5t-78 -115.5t-115.5 -79.5t-140.5 -47.5t-154 -15q-122 0 -262 38t-239 101zM311 1536l232 264h141l231 -264h-133l-164 160h-8l-166 -160h-133z" />
    <glyph glyph-name="scircumflex" unicode="&#x15d;" horiz-adv-x="878" 
d="M94 70l56 118q47 -33 120.5 -54t151.5 -21q83 0 132.5 34.5t49.5 90.5q0 60 -47.5 97t-165.5 73q-262 71 -262 268q0 128 92.5 196t243.5 68q179 0 297 -74l-51 -114q-37 26 -101 43.5t-135 17.5q-81 0 -131.5 -34.5t-50.5 -86.5q0 -59 38.5 -89.5t119.5 -55.5
q168 -48 243.5 -118t75.5 -183q0 -123 -97 -191.5t-243 -68.5q-203 0 -336 84zM158 1087l233 318h146l231 -318h-113l-188 213h-6l-191 -213h-112z" />
    <glyph glyph-name="Scedilla" unicode="&#x15e;" horiz-adv-x="1191" 
d="M72 125l82 143q204 -127 415 -127q149 0 243.5 72t94.5 174q0 95 -84 156t-272 104q-209 47 -313.5 140t-104.5 266q0 179 132 285t337 106q244 0 461 -121l-84 -143q-79 48 -177 80t-192 32q-141 0 -216 -70t-75 -165q0 -98 73.5 -152.5t232.5 -91.5q120 -29 202 -61.5
t144 -81t91 -116t28 -159.5q0 -99 -41 -177.5t-111 -127t-156.5 -75t-183.5 -29.5l-16 -54v-8q54 0 102.5 -30t48.5 -89q0 -70 -54.5 -106.5t-141.5 -36.5q-48 0 -111 19v75q54 -20 100 -20q47 0 77 16t30 45q0 32 -36.5 45t-78.5 13l-26 24l32 109q-115 6 -238 43t-214 94z
" />
    <glyph glyph-name="scedilla" unicode="&#x15f;" horiz-adv-x="878" 
d="M94 70l56 118q47 -33 120.5 -54t151.5 -21q83 0 132.5 34.5t49.5 90.5q0 60 -47.5 97t-165.5 73q-262 71 -262 268q0 128 92.5 196t243.5 68q179 0 297 -74l-51 -114q-37 26 -101 43.5t-135 17.5q-81 0 -131.5 -34.5t-50.5 -86.5q0 -59 38.5 -89.5t119.5 -55.5
q168 -48 243.5 -118t75.5 -183q0 -117 -89 -185.5t-224 -74.5l-17 -54v-8q54 0 103 -30t49 -89q0 -70 -54.5 -106.5t-142.5 -36.5q-47 0 -110 19v75q54 -20 100 -20q47 0 78 16t31 45q0 32 -37.5 45t-79.5 13l-27 24l33 109q-182 11 -289 82z" />
    <glyph glyph-name="Scaron" unicode="&#x160;" horiz-adv-x="1191" 
d="M72 125l82 143q204 -127 415 -127q149 0 243.5 72t94.5 174q0 95 -84 156t-272 104q-209 47 -313.5 140t-104.5 266q0 179 132 285t337 106q244 0 461 -121l-84 -143q-79 48 -177 80t-192 32q-141 0 -216 -70t-75 -165q0 -98 73.5 -152.5t232.5 -91.5q120 -29 202 -61.5
t144 -81t91 -116t28 -159.5q0 -83 -29 -151.5t-78 -115.5t-115.5 -79.5t-140.5 -47.5t-154 -15q-122 0 -262 38t-239 101zM324 1800h133l166 -160h8l164 160h133l-232 -264h-141z" />
    <glyph glyph-name="scaron" unicode="&#x161;" horiz-adv-x="878" 
d="M430 -14q-203 0 -336 84l56 118q47 -33 120.5 -54t151.5 -21q83 0 132.5 34.5t49.5 90.5q0 60 -47.5 97t-165.5 73q-262 71 -262 268q0 128 92.5 196t243.5 68q179 0 297 -74l-51 -114q-37 26 -101 43.5t-135 17.5q-81 0 -131.5 -34.5t-50.5 -86.5q0 -59 38.5 -89.5
t119.5 -55.5q168 -48 243.5 -118t75.5 -183q0 -123 -97 -191.5t-243 -68.5zM391 1087l-233 318h112l191 -213h6l188 213h113l-231 -318h-146z" />
    <glyph glyph-name="uni0162" unicode="&#x162;" horiz-adv-x="1275" 
d="M543 1278h-441v156h1072v-156h-447v-1278h-61l-21 -68v-8q54 0 103 -30t49 -89q0 -70 -54.5 -106.5t-142.5 -36.5q-48 0 -111 19v75q58 -20 103 -20q47 0 76.5 15.5t29.5 45.5q0 32 -37 45t-79 13l-27 24l37 121h-49v1278z" />
    <glyph glyph-name="uni0163" unicode="&#x163;" horiz-adv-x="696" 
d="M203 797h-117v98l123 27l45 262h119v-262h248v-125h-248v-488q0 -60 11 -102t31 -63t42 -29.5t51 -8.5q63 0 108 35v-96q-18 -20 -67 -35.5t-92 -17.5l-17 -60v-8q54 0 103 -30t49 -89q0 -70 -55 -106.5t-142 -36.5q-49 0 -112 19v75q58 -20 102 -20q47 0 77 16t30 45
q0 32 -37.5 45t-79.5 13l-27 24l37 117q-182 34 -182 291v510z" />
    <glyph glyph-name="Tcaron" unicode="&#x164;" horiz-adv-x="1275" 
d="M102 1278v156h1072v-156h-447v-1278h-184v1278h-441zM567 1536l-231 264h133l166 -160h8l164 160h133l-231 -264h-142z" />
    <glyph glyph-name="tcaron" unicode="&#x165;" horiz-adv-x="1157" 
d="M86 895l123 27l45 262h119v-262h248v-125h-248v-488q0 -60 11 -102t31 -63t42 -29.5t51 -8.5q63 0 108 35v-96q-20 -21 -72.5 -38t-94.5 -17q-246 0 -246 297v510h-117v98zM889 1042h-88q82 230 82 494h129q0 -258 -123 -494z" />
    <glyph glyph-name="Tbar" unicode="&#x166;" horiz-adv-x="1275" 
d="M543 1278h-441v156h1072v-156h-447v-494h367v-79h-367v-705h-184v705h-357v79h357v494z" />
    <glyph glyph-name="tbar" unicode="&#x167;" horiz-adv-x="696" 
d="M86 895l123 27l45 262h119v-262h248v-125h-248v-185h219v-80h-219v-223q0 -60 11 -102t31 -63t42 -29.5t51 -8.5q63 0 108 35v-96q-20 -21 -72.5 -38t-94.5 -17q-246 0 -246 297v245h-107v80h107v185h-117v98z" />
    <glyph glyph-name="Utilde" unicode="&#x168;" horiz-adv-x="1271" 
d="M127 1434h184v-820q0 -483 326 -483q168 0 250 113t82 370v820h176v-799q0 -326 -119.5 -488.5t-390.5 -162.5t-389.5 162t-118.5 489v799zM412 1561h-103q12 84 61 140t138 56q48 0 85.5 -18t57 -39.5t47.5 -39.5t58 -18q46 0 70.5 29.5t31.5 71.5h105q-8 -85 -60 -143
t-143 -58q-47 0 -85 17.5t-59 38t-49.5 38t-58.5 17.5q-46 0 -66.5 -25t-29.5 -67z" />
    <glyph glyph-name="utilde" unicode="&#x169;" horiz-adv-x="1060" 
d="M117 477v445h170v-445q0 -174 49 -263t176 -89q91 0 154 78t88 200v519h170v-922h-150l-12 160h-6q-40 -76 -112.5 -128t-170.5 -52q-185 0 -270.5 120.5t-85.5 376.5zM205 1118q14 87 62.5 148t135.5 61q47 0 84 -20t57 -43.5t48 -43.5t59 -20q46 0 71.5 35t31.5 78h102
q-10 -85 -62.5 -148t-142.5 -63q-38 0 -69.5 12.5t-52 31t-39 36.5t-40.5 30.5t-47 12.5t-43 -9.5t-29 -27.5t-16 -33.5t-10 -36.5h-100z" />
    <glyph glyph-name="Umacron" unicode="&#x16a;" horiz-adv-x="1271" 
d="M127 635v799h184v-820q0 -483 326 -483q168 0 250 113t82 370v820h176v-799q0 -326 -119.5 -488.5t-390.5 -162.5t-389.5 162t-118.5 489zM258 1675h756v-80h-756v80z" />
    <glyph glyph-name="umacron" unicode="&#x16b;" horiz-adv-x="1060" 
d="M117 922h170v-445q0 -174 49 -263t176 -89q91 0 154 78t88 200v519h170v-922h-150l-12 160h-6q-40 -76 -112.5 -128t-170.5 -52q-185 0 -270.5 120.5t-85.5 376.5v445zM240 1184h581v-80h-581v80z" />
    <glyph glyph-name="Ubreve" unicode="&#x16c;" horiz-adv-x="1271" 
d="M127 635v799h184v-820q0 -483 326 -483q168 0 250 113t82 370v820h176v-799q0 -326 -119.5 -488.5t-390.5 -162.5t-389.5 162t-118.5 489zM635 1499q-52 0 -99.5 13t-93 41t-76 82t-36.5 128h133q9 -74 55.5 -115.5t116.5 -41.5q73 0 119 41.5t55 115.5h133
q-6 -74 -36.5 -128t-76 -82t-93.5 -41t-101 -13z" />
    <glyph glyph-name="ubreve" unicode="&#x16d;" horiz-adv-x="1060" 
d="M117 922h170v-445q0 -174 49 -263t176 -89q91 0 154 78t88 200v519h170v-922h-150l-12 160h-6q-40 -76 -112.5 -128t-170.5 -52q-185 0 -270.5 120.5t-85.5 376.5v445zM530 1061q-112 0 -193.5 67t-94.5 207h127q11 -77 52 -123.5t109 -46.5q69 0 110 46.5t52 123.5h127
q-13 -140 -95 -207t-194 -67z" />
    <glyph glyph-name="Uring" unicode="&#x16e;" horiz-adv-x="1271" 
d="M127 1434h184v-820q0 -483 326 -483q168 0 250 113t82 370v820h176v-799q0 -326 -119.5 -488.5t-390.5 -162.5t-389.5 162t-118.5 489v799zM412 1686q0 103 65.5 161t157.5 58q93 0 159 -58t66 -161q0 -104 -66 -162t-159 -58q-94 0 -158.5 57.5t-64.5 162.5zM512 1686
q0 -59 34 -95.5t89 -36.5t90 36.5t35 95.5q0 58 -34.5 94.5t-90.5 36.5q-56 1 -89.5 -35.5t-33.5 -95.5z" />
    <glyph glyph-name="uring" unicode="&#x16f;" horiz-adv-x="1060" 
d="M117 477v445h170v-445q0 -174 49 -263t176 -89q91 0 154 78t88 200v519h170v-922h-150l-12 160h-6q-40 -76 -112.5 -128t-170.5 -52q-185 0 -270.5 120.5t-85.5 376.5zM309 1180q0 103 64.5 160t156.5 57q91 0 156.5 -57t65.5 -160q0 -102 -65.5 -158.5t-156.5 -56.5
q-92 0 -156.5 56.5t-64.5 158.5zM412 1180q0 -57 32 -91t86 -34q53 0 87 35t34 90q0 57 -34 93t-87 36q-54 0 -86 -36t-32 -93z" />
    <glyph glyph-name="Uhungarumlaut" unicode="&#x170;" horiz-adv-x="1271" 
d="M127 1434h184v-820q0 -483 326 -483q168 0 250 113t82 370v820h176v-799q0 -326 -119.5 -488.5t-390.5 -162.5t-389.5 162t-118.5 489v799zM739 1536l168 279h183l-224 -279h-127zM410 1536l168 279h184l-225 -279h-127z" />
    <glyph glyph-name="uhungarumlaut" unicode="&#x171;" horiz-adv-x="1060" 
d="M117 477v445h170v-445q0 -174 49 -263t176 -89q91 0 154 78t88 200v519h170v-922h-150l-12 160h-6q-40 -76 -112.5 -128t-170.5 -52q-185 0 -270.5 120.5t-85.5 376.5zM627 1090l209 344h200l-307 -344h-102zM301 1090l207 344h203l-310 -344h-100z" />
    <glyph glyph-name="Uogonek" unicode="&#x172;" horiz-adv-x="1271" 
d="M127 635v799h184v-820q0 -483 326 -483q168 0 250 113t82 370v820h176v-799q0 -290 -93.5 -450t-301.5 -193q-38 -19 -68.5 -63.5t-30.5 -92.5q0 -37 20.5 -55.5t45.5 -18.5q34 0 53 15v-82q-32 -19 -76 -19q-63 0 -105 34t-42 106q0 87 88 168q-271 0 -389.5 162
t-118.5 489z" />
    <glyph glyph-name="uogonek" unicode="&#x173;" horiz-adv-x="1060" 
d="M117 477v445h170v-445q0 -174 49 -263t176 -89q91 0 154 78t88 200v519h170v-922q-41 0 -85 -52t-44 -112q0 -38 19.5 -56t45.5 -18q30 0 53 15v-82q-32 -19 -75 -19q-63 0 -105.5 34.5t-42.5 105.5q0 100 107 184h-23l-12 160h-6q-40 -76 -112.5 -128t-170.5 -52
q-185 0 -270.5 120.5t-85.5 376.5z" />
    <glyph glyph-name="Wcircumflex" unicode="&#x174;" horiz-adv-x="2152" 
d="M31 1434h194l437 -1194h6l364 1194h139l349 -1186h6l420 1186h176l-514 -1434h-205l-313 1075h-7l-325 -1075h-211zM918 1536h-134l232 264h143l230 -264h-134l-163 160h-9z" />
    <glyph glyph-name="wcircumflex" unicode="&#x175;" horiz-adv-x="1423" 
d="M334 0l-307 922h188l231 -756h7l184 737h170l184 -737h6l236 756h164l-299 -922h-217l-164 680h-6l-170 -680h-207zM408 1087l231 318h145l232 -318h-111l-190 213h-6l-189 -213h-112z" />
    <glyph glyph-name="Ycircumflex" unicode="&#x176;" horiz-adv-x="1282" 
d="M80 1434h199l362 -586h6l379 588l176 -2l-471 -732v-702h-188v692zM473 1536h-133l231 264h144l229 -264h-133l-164 160h-8z" />
    <glyph glyph-name="ycircumflex" unicode="&#x177;" horiz-adv-x="940" 
d="M23 -375h49q137 0 237.5 102.5t145.5 266.5l-428 928h186l319 -715h7l221 715h153l-278 -873q-87 -273 -223.5 -417t-339.5 -144h-49v137zM289 1087h-113l232 318h147l231 -318h-112l-189 213h-6z" />
    <glyph glyph-name="Ydieresis" unicode="&#x178;" horiz-adv-x="1282" 
d="M80 1434h199l362 -586h6l379 588l176 -2l-471 -732v-702h-188v692zM850 1567q-47 0 -81 33t-34 79q0 47 34 81t81 34q46 0 79.5 -34t33.5 -81q0 -46 -33.5 -79t-79.5 -33zM434 1567q-47 0 -81 33t-34 79q0 47 34 81t81 34q45 0 79 -34t34 -81q0 -45 -34 -78.5t-79 -33.5z
" />
    <glyph glyph-name="Zacute" unicode="&#x179;" horiz-adv-x="1294" 
d="M178 1434h957v-166l-781 -1100v-6h762v-162h-993v166l786 1102v6h-731v160zM739 1815h185l-226 -279h-127z" />
    <glyph glyph-name="zacute" unicode="&#x17a;" horiz-adv-x="829" 
d="M76 0v133l485 662v6h-450v121h643v-138l-475 -657v-6h475v-121h-678zM369 1094l188 317h193l-273 -317h-108z" />
    <glyph glyph-name="Zdotaccent" unicode="&#x17b;" horiz-adv-x="1294" 
d="M123 0v166l786 1102v6h-731v160h957v-166l-781 -1100v-6h762v-162h-993zM555 1679q0 47 33.5 81t79.5 34t79 -34t33 -81q0 -46 -33 -79t-79 -33t-79.5 33t-33.5 79z" />
    <glyph glyph-name="zdotaccent" unicode="&#x17c;" horiz-adv-x="829" 
d="M76 0v133l485 662v6h-450v121h643v-138l-475 -657v-6h475v-121h-678zM324 1223q0 44 33 77t79 33q43 0 76 -33t33 -77t-33 -77.5t-76 -33.5q-46 0 -79 33t-33 78z" />
    <glyph glyph-name="Zcaron" unicode="&#x17d;" horiz-adv-x="1294" 
d="M123 0v166l786 1102v6h-731v160h957v-166l-781 -1100v-6h762v-162h-993zM352 1800h133l166 -160h8l164 160h133l-229 -264h-143z" />
    <glyph glyph-name="zcaron" unicode="&#x17e;" horiz-adv-x="823" 
d="M76 0v133l485 662v6h-450v121h643v-138l-475 -657v-6h475v-121h-678zM115 1405h112l189 -213h6l190 213h113l-233 -318h-146z" />
    <glyph glyph-name="longs" unicode="&#x17f;" horiz-adv-x="602" 
d="M186 1057q0 243 98.5 361t268.5 118q104 0 190 -37v-143q-84 41 -163 41q-122 0 -173 -96.5t-51 -282.5v-1018h-170v1057z" />
    <glyph glyph-name="uni018F" unicode="&#x18f;" horiz-adv-x="1484" 
d="M709 -6q-265 0 -417.5 196t-133.5 519h960q-2 111 -35.5 212t-94.5 181.5t-156 128t-211 47.5q-99 0 -188.5 -28t-151.5 -64l-58 133q201 125 434 125q297 0 481.5 -206t184.5 -552q0 -165 -48.5 -298.5t-132.5 -218.5t-195 -130t-238 -45zM1112 569h-760
q3 -178 98.5 -289.5t254.5 -111.5q170 -2 287 112.5t120 288.5z" />
    <glyph glyph-name="florin" unicode="&#x192;" horiz-adv-x="690" 
d="M-201 -332q85 -39 162 -39q122 0 173.5 97t51.5 282v793h-141v108l141 13v135q0 243 98.5 361t268.5 118q104 0 190 -37v-143q-84 41 -163 41q-122 0 -173 -96.5t-51 -282.5v-96h281v-121h-281v-834q0 -243 -98.5 -360t-267.5 -117q-105 0 -191 37v141z" />
    <glyph glyph-name="uni019D" unicode="&#x19d;" horiz-adv-x="1366" 
d="M-293 -467l29 143q28 -13 88.5 -24.5t105.5 -11.5q83 0 133 28.5t77.5 102.5t27.5 202v1461h174l674 -1110h6v1110h176v-1434h-178l-670 1087h-6v-1114q0 -244 -94 -362.5t-320 -118.5q-52 0 -121 13.5t-102 27.5z" />
    <glyph glyph-name="Gcaron" unicode="&#x1e6;" horiz-adv-x="1374" 
d="M813 -20q-311 0 -499 203t-187 554q1 219 91 380t247 244t362 83q233 0 443 -96l-66 -144q-179 86 -368 86q-237 0 -374 -146.5t-138 -406.5q0 -282 132 -443t357 -161q149 0 293 72v377h-307v137h471v-613q-104 -59 -224 -92.5t-233 -33.5zM508 1800h133l166 -160h8
l164 160h133l-229 -264h-144z" />
    <glyph glyph-name="gcaron" unicode="&#x1e7;" horiz-adv-x="1087" 
d="M68 -233q0 75 48.5 135.5t129.5 101.5q-133 53 -133 178q0 61 37 112t100 81q-103 86 -103 237q0 80 29 141t71 95t98 55.5t101.5 28t90.5 6.5q118 0 223 -51q38 67 108.5 115t165.5 45v-138q-128 10 -194 -80q86 -83 86 -217q0 -67 -20.5 -121t-55.5 -88t-75.5 -58
t-87 -36t-82 -17t-68.5 -5q-102 0 -189 32q-37 -16 -62.5 -45t-25.5 -63q0 -54 69.5 -79.5t231.5 -25.5q131 0 221 -18t143.5 -55.5t77 -89.5t23.5 -125q0 -148 -148 -239t-380 -91q-204 0 -317 74.5t-113 204.5zM551 -41q-75 0 -137 6q-73 -20 -128 -66t-55 -108
q0 -90 76 -134t199 -44q100 0 178 19t127 63t49 108q0 87 -68.5 121.5t-240.5 34.5zM537 825q-116 0 -171 -59t-55 -154q2 -96 56 -154.5t170 -58.5q106 0 165.5 61t59.5 152q0 89 -60.5 151t-164.5 62zM233 1405h113l189 -213h6l190 213h113l-234 -318h-145z" />
    <glyph glyph-name="uni01EA" unicode="&#x1ea;" horiz-adv-x="1497" 
d="M127 717q0 218 74 384t215.5 259.5t331.5 93.5q191 0 333 -93.5t215.5 -259.5t73.5 -384q0 -291 -132.5 -487t-363.5 -238q-38 -20 -67 -64t-29 -92q0 -38 21 -56t47 -18q30 0 53 15v-82q-38 -19 -78 -19q-62 0 -104.5 34.5t-42.5 105.5q0 84 84 164q-126 -2 -231 37
t-178 107.5t-124 162.5t-74.5 202.5t-23.5 227.5zM748 1292q-200 0 -313 -158t-113 -417t113 -417.5t313 -158.5q201 0 313.5 158.5t112.5 417.5t-112.5 417t-313.5 158z" />
    <glyph glyph-name="uni01EB" unicode="&#x1eb;" horiz-adv-x="1058" 
d="M498 -16q-173 11 -287.5 136t-114.5 341q0 114 34.5 206t94 150.5t137.5 89.5t166 31t166 -31t138.5 -89.5t95.5 -150.5t35 -206q0 -201 -99 -323t-256 -148q-37 -20 -65.5 -63.5t-28.5 -90.5q0 -37 20.5 -55.5t45.5 -18.5q32 0 55 15v-82q-38 -19 -78 -19
q-62 0 -104.5 34.5t-42.5 105.5q0 91 88 168zM528 803q-123 1 -190.5 -93.5t-67.5 -248.5q0 -152 67.5 -246t190.5 -94q124 0 192 94t68 246q0 154 -68 248t-192 94z" />
    <glyph glyph-name="Aringacute" unicode="&#x1fa;" horiz-adv-x="1318" 
d="M66 0l538 1440h117l532 -1440h-194l-115 322h-588l-118 -322h-172zM657 1466q-92 0 -156.5 57.5t-64.5 162.5q0 104 64.5 161.5t156.5 57.5q99 0 164 -62l213 156l86 -109l-246 -135q9 -52 9 -69q0 -105 -66 -162.5t-160 -57.5zM403 459h494l-240 657h-6zM535 1686
q0 -59 33.5 -95.5t88.5 -36.5q56 0 91.5 37t35.5 95t-35.5 94.5t-91.5 36.5q-55 1 -88.5 -35.5t-33.5 -95.5z" />
    <glyph glyph-name="aringacute" unicode="&#x1fb;" horiz-adv-x="987" 
d="M84 250q0 104 53 178.5t135.5 108.5t184.5 34q110 0 223 -41q0 134 -51 204.5t-180 70.5q-124 0 -248 -82l-58 113q167 104 336 104q192 0 281.5 -97.5t89.5 -291.5v-373q0 -109 41 -178h-172q-24 39 -31 98h-6q-122 -118 -285 -118q-147 0 -230 75.5t-83 194.5zM485 965
q-92 0 -155.5 56.5t-63.5 158.5q0 103 64 160t155 57q19 0 29 -2l141 239h193l-234 -272q93 -61 93 -182q0 -102 -65 -158.5t-157 -56.5zM489 461q-100 0 -168.5 -51t-68.5 -142q0 -78 49.5 -121t136.5 -43q70 0 139 41.5t103 92.5v172q-26 20 -82 35.5t-109 15.5zM367 1180
q0 -57 32 -91t86 -34t87.5 34.5t33.5 90.5q0 57 -33.5 93t-87.5 36t-86 -36t-32 -93z" />
    <glyph glyph-name="AEacute" unicode="&#x1fc;" horiz-adv-x="1947" 
d="M66 0l819 1434h930v-156h-650v-469h588v-145h-588v-508h650v-156h-834v322h-549l-186 -322h-180zM975 1278l-473 -819h479v819h-6zM1337 1536h-127l168 279h185z" />
    <glyph glyph-name="aeacute" unicode="&#x1fd;" horiz-adv-x="1536" 
d="M397 -20q-147 0 -230 75.5t-83 194.5q0 104 53 178t135.5 107.5t184.5 33.5h184v6q-8 116 -55 173t-152 57q-125 0 -246 -80l-57 111q171 102 334 102q231 0 291 -158q51 78 128 117t167 39q184 0 285 -128t87 -345h-614q3 -157 75.5 -252.5t200.5 -95.5q73 0 141 18.5
t107 44.5l45 -110q-133 -84 -311 -84q-215 0 -334 170h-6q-54 -69 -139.5 -121.5t-190.5 -52.5zM252 270q0 -78 49.5 -122t136.5 -44q71 0 142.5 44.5t105.5 97.5q-33 78 -37 215h-160q-99 0 -168 -50.5t-69 -140.5zM1049 809q-98 1 -161 -64t-77 -170h463q-1 108 -62 171
t-163 63zM717 1094l190 317h193l-275 -317h-108z" />
    <glyph glyph-name="Oslashacute" unicode="&#x1fe;" horiz-adv-x="1497" 
d="M127 717q0 218 74 384t215.5 259.5t331.5 93.5q191 0 333 -94l72 125h82l-94 -170q111 -97 170 -251t59 -347q0 -218 -73.5 -384t-215.5 -259.5t-333 -93.5q-183 0 -316 83l-63 -114h-84l88 155q-119 95 -182.5 253.5t-63.5 359.5zM463 264l532 942q-103 86 -247 86
q-200 0 -313 -158t-113 -417q0 -297 141 -453zM518 213q93 -72 230 -72q201 0 313.5 158.5t112.5 417.5q0 281 -125 436zM793 1536h-127l168 279h184z" />
    <glyph glyph-name="oslashacute" unicode="&#x1ff;" horiz-adv-x="1058" 
d="M281 57q-87 59 -136 161.5t-49 242.5q0 114 34.5 206t94 150.5t137.5 89.5t166 31q122 0 220 -55l57 102l55 -31l-59 -106q162 -132 162 -387q0 -114 -35 -206t-95.5 -150.5t-138.5 -89.5t-166 -31q-102 0 -192 41l-53 -95l-56 31zM356 193l318 563q-59 47 -146 47
q-123 1 -190.5 -93.5t-67.5 -248.5q0 -176 86 -268zM408 152q54 -31 120 -31q124 0 192 94t68 246q0 155 -67 246zM563 1094h-108l190 317h193z" />
    <glyph glyph-name="uni0218" unicode="&#x218;" horiz-adv-x="1191" 
d="M573 -14q-122 0 -262 38t-239 101l82 143q204 -127 415 -127q149 0 243.5 72t94.5 174q0 95 -84 156t-272 104q-209 47 -313.5 140t-104.5 266q0 179 132 285t337 106q244 0 461 -121l-84 -143q-79 48 -177 80t-192 32q-141 0 -216 -70t-75 -165q0 -98 73.5 -152.5
t232.5 -91.5q120 -29 202 -61.5t144 -81t91 -116t28 -159.5q0 -83 -29 -151.5t-78 -115.5t-115.5 -79.5t-140.5 -47.5t-154 -15zM426 -281q132 49 100 224h125q21 -116 -46.5 -206.5t-178.5 -105.5v88z" />
    <glyph glyph-name="uni0219" unicode="&#x219;" horiz-adv-x="878" 
d="M430 -14q-203 0 -336 84l56 118q47 -33 120.5 -54t151.5 -21q83 0 132.5 34.5t49.5 90.5q0 60 -47.5 97t-165.5 73q-262 71 -262 268q0 128 92.5 196t243.5 68q179 0 297 -74l-51 -114q-37 26 -101 43.5t-135 17.5q-81 0 -131.5 -34.5t-50.5 -86.5q0 -59 38.5 -89.5
t119.5 -55.5q168 -48 243.5 -118t75.5 -183q0 -123 -97 -191.5t-243 -68.5zM270 -281q58 21 88 75.5t13 148.5h125q21 -116 -47 -206.5t-179 -105.5v88z" />
    <glyph glyph-name="uni021A" unicode="&#x21a;" horiz-adv-x="1275" 
d="M102 1278v156h1072v-156h-447v-1278h-184v1278h-441zM711 -57q23 -116 -45.5 -206.5t-180.5 -105.5v88q58 21 88 75.5t13 148.5h125z" />
    <glyph glyph-name="uni021B" unicode="&#x21b;" horiz-adv-x="696" 
d="M86 797v98l123 27l45 262h119v-262h248v-125h-248v-488q0 -60 11 -102t31 -63t42 -29.5t51 -8.5q63 0 108 35v-96q-20 -21 -72.5 -38t-94.5 -17q-246 0 -246 297v510h-117zM283 -281q132 49 100 224h125q21 -116 -46.5 -206.5t-178.5 -105.5v88z" />
    <glyph glyph-name="uni0232" unicode="&#x232;" horiz-adv-x="1282" 
d="M80 1434h199l362 -586h6l379 588l176 -2l-471 -732v-702h-188v692zM262 1595v80h758v-80h-758z" />
    <glyph glyph-name="uni0233" unicode="&#x233;" horiz-adv-x="940" 
d="M23 -512v137h49q137 0 237.5 102.5t145.5 266.5l-428 928h186l319 -715h7l221 715h153l-278 -873q-87 -273 -223.5 -417t-339.5 -144h-49zM178 1184h582v-80h-582v80z" />
    <glyph glyph-name="uni0237" unicode="&#x237;" horiz-adv-x="442" 
d="M-106 -508h-37v143h37q146 0 203 85.5t57 295.5v906h170v-916q0 -127 -20.5 -218t-68.5 -159.5t-132.5 -102.5t-208.5 -34z" />
    <glyph glyph-name="uni0259" unicode="&#x259;" horiz-adv-x="1040" 
d="M489 0q-184 0 -286.5 134.5t-87.5 352.5h645q-4 153 -86 244.5t-213 91.5q-72 0 -144 -19t-112 -44l-45 110q133 84 321 84q88 0 167.5 -32t141 -91t98 -150.5t36.5 -203.5q0 -115 -35 -207t-95.5 -150t-138 -89t-166.5 -31zM752 375h-490q3 -111 66 -178.5t164 -67.5
q109 -1 177.5 68.5t82.5 177.5z" />
    <glyph glyph-name="uni0272" unicode="&#x272;" horiz-adv-x="1075" 
d="M319 27q0 -127 -20.5 -221t-67.5 -166t-128 -109t-197 -37v139q134 0 190 96t56 308v885h149l10 -160h6q40 75 113.5 127.5t171.5 52.5q184 0 270 -112.5t86 -346.5v-483h-170v449q0 66 -6 117t-21.5 95.5t-40.5 73.5t-64.5 45.5t-92.5 16.5q-92 0 -155 -78t-89 -201
v-491z" />
    <glyph glyph-name="circumflex" unicode="&#x2c6;" horiz-adv-x="921" 
d="M158 1087l231 318h148l231 -318h-113l-188 213h-6l-191 -213h-112z" />
    <glyph glyph-name="caron" unicode="&#x2c7;" horiz-adv-x="921" 
d="M387 1087l-231 318h112l191 -213h6l188 213h113l-231 -318h-148z" />
    <glyph glyph-name="breve" unicode="&#x2d8;" horiz-adv-x="1058" 
d="M528 1061q-112 0 -193.5 67t-94.5 207h129q9 -77 50 -123.5t109 -46.5q69 0 111 46.5t51 123.5h129q-13 -140 -96 -207t-195 -67z" />
    <glyph glyph-name="dotaccent" unicode="&#x2d9;" horiz-adv-x="489" 
d="M133 1223q0 44 33.5 77t77.5 33t77 -33t33 -77t-33 -77.5t-77 -33.5t-77.5 33.5t-33.5 77.5z" />
    <glyph glyph-name="ring" unicode="&#x2da;" horiz-adv-x="647" 
d="M319 965q-92 0 -155.5 56.5t-63.5 158.5q0 103 64 160t155 57t156.5 -57t65.5 -160q0 -102 -65 -158.5t-157 -56.5zM201 1180q0 -57 32.5 -91t85.5 -34q54 0 88.5 35t34.5 90q0 57 -34.5 93t-88.5 36t-86 -36t-32 -93z" />
    <glyph glyph-name="ogonek" unicode="&#x2db;" horiz-adv-x="491" 
d="M152 -184q0 70 55.5 134.5t114.5 86.5h63v-37q-41 0 -85 -52t-44 -112q0 -37 20.5 -55.5t45.5 -18.5q30 0 53 15v-82q-32 -19 -76 -19q-63 0 -105 34t-42 106z" />
    <glyph glyph-name="tilde" unicode="&#x2dc;" horiz-adv-x="907" 
d="M123 1118q9 55 29.5 99.5t64.5 77t105 32.5q46 0 83 -20t56.5 -43.5t47.5 -43.5t58 -20q47 0 72 34t33 79h100q-8 -84 -61 -147.5t-142 -63.5q-38 0 -69.5 12.5t-51.5 31t-38.5 36.5t-40.5 30.5t-47 12.5q-80 0 -99 -107h-100z" />
    <glyph glyph-name="hungarumlaut" unicode="&#x2dd;" horiz-adv-x="976" 
d="M219 1090l209 344h203l-309 -344h-103zM547 1090l207 344h202l-309 -344h-100z" />
    <glyph glyph-name="uni0326" unicode="&#x326;" horiz-adv-x="552" 
d="M395 -57q21 -116 -46.5 -206.5t-178.5 -105.5v88q132 49 100 224h125z" />
    <glyph glyph-name="uni0394" unicode="&#x394;" horiz-adv-x="1327" 
d="M92 0v100l510 1340h131l504 -1340v-100h-1145zM270 131h758l-379 1024h-6z" />
    <glyph glyph-name="uni03A9" unicode="&#x3a9;" horiz-adv-x="1484" 
d="M668 0h-588v131h412q-365 369 -365 707q0 278 171 447t450 169q280 0 451 -169t171 -447q0 -341 -366 -707h401v-131h-586v131q169 158 267 338.5t98 349.5q0 217 -120 350.5t-316 133.5t-315.5 -133.5t-119.5 -350.5q0 -167 95 -347t260 -339v-133z" />
    <glyph glyph-name="uni03BC" unicode="&#x3bc;" horiz-adv-x="1093" 
d="M287 -410h-170v1332h170v-439q0 -173 55 -265.5t186 -92.5q96 0 165 81t95 204v512h170v-922h-147l-12 160h-6q-36 -75 -106 -127.5t-169 -52.5q-155 0 -227 96h-4v-486z" />
    <glyph glyph-name="pi" unicode="&#x3c0;" horiz-adv-x="1161" 
d="M57 893l160 14h696q122 0 174 27v-115q-20 -15 -70 -24t-104 -9h-16v-538q0 -87 36 -119.5t95 -32.5v-116q-28 -7 -61 -5t-66.5 7t-64.5 24t-55.5 45.5t-39 72t-14.5 103.5v559h-369v-221q0 -165 -15.5 -340.5t-27.5 -238.5h-165q14 62 31.5 238t17.5 341v221h-142v107z
" />
    <glyph glyph-name="Wgrave" unicode="&#x1e80;" horiz-adv-x="2152" 
d="M31 1434h194l437 -1194h6l364 1194h139l349 -1186h6l420 1186h176l-514 -1434h-205l-313 1075h-7l-325 -1075h-211zM1018 1536l-225 279h184l168 -279h-127z" />
    <glyph glyph-name="wgrave" unicode="&#x1e81;" horiz-adv-x="1423" 
d="M334 0l-307 922h188l231 -756h7l184 737h170l184 -737h6l236 756h164l-299 -922h-217l-164 680h-6l-170 -680h-207zM649 1094l-272 317h192l189 -317h-109z" />
    <glyph glyph-name="Wacute" unicode="&#x1e82;" horiz-adv-x="2152" 
d="M31 1434h194l437 -1194h6l364 1194h139l349 -1186h6l420 1186h176l-514 -1434h-205l-313 1075h-7l-325 -1075h-211zM1169 1536h-127l168 279h185z" />
    <glyph glyph-name="wacute" unicode="&#x1e83;" horiz-adv-x="1423" 
d="M334 0l-307 922h188l231 -756h7l184 737h170l184 -737h6l236 756h164l-299 -922h-217l-164 680h-6l-170 -680h-207zM668 1094l188 317h193l-273 -317h-108z" />
    <glyph glyph-name="Wdieresis" unicode="&#x1e84;" horiz-adv-x="2152" 
d="M31 1434h194l437 -1194h6l364 1194h139l349 -1186h6l420 1186h176l-514 -1434h-205l-313 1075h-7l-325 -1075h-211zM1186 1679q0 47 33.5 81t80.5 34q45 0 79 -34t34 -81q0 -45 -34 -78.5t-79 -33.5q-47 0 -80.5 33t-33.5 79zM883 1567q-46 0 -79.5 33t-33.5 79
q0 47 33.5 81t79.5 34t79 -34t33 -81q0 -46 -33 -79t-79 -33z" />
    <glyph glyph-name="wdieresis" unicode="&#x1e85;" horiz-adv-x="1423" 
d="M334 0l-307 922h188l231 -756h7l184 737h170l184 -737h6l236 756h164l-299 -922h-217l-164 680h-6l-170 -680h-207zM784 1223q0 45 33 77.5t78 32.5q43 0 76 -33t33 -77t-33 -77.5t-76 -33.5q-45 0 -78 33t-33 78zM545 1112q-44 0 -77.5 33.5t-33.5 77.5t33.5 77t77.5 33
t76 -33t32 -77q0 -45 -32 -78t-76 -33z" />
    <glyph glyph-name="Germandbls" unicode="&#x1e9e;" horiz-adv-x="1351" 
d="M168 0v1065q0 160 95 264.5t255 104.5h653v-134q-9 -8 -42.5 -37t-46.5 -41t-43 -40.5t-43.5 -45.5t-34.5 -45.5t-31 -50.5t-17.5 -50.5t-7.5 -55.5q0 -49 22.5 -93.5t58 -81t78.5 -73t86 -76.5t78.5 -84t58 -103t22.5 -126q0 -130 -111 -220.5t-266 -90.5
q-107 0 -200 21t-146 52l55 146q44 -28 117 -49t141 -21q96 0 157.5 57t61.5 125q0 46 -21 89.5t-54.5 79.5t-73.5 72.5t-80.5 75t-74 80t-54.5 94.5t-21 112q0 95 66 187.5t162 170.5v6h-418q-92 0 -144.5 -63t-52.5 -156v-1065h-184z" />
    <glyph glyph-name="uni1EA0" unicode="&#x1ea0;" horiz-adv-x="1318" 
d="M66 0l538 1440h117l532 -1440h-194l-115 322h-588l-118 -322h-172zM651 1116l-248 -657h494l-240 657h-6zM653 -346q-47 0 -80.5 34t-33.5 79q0 47 33.5 80.5t80.5 33.5q45 0 79 -33.5t34 -80.5q0 -44 -34.5 -78.5t-78.5 -34.5z" />
    <glyph glyph-name="uni1EA1" unicode="&#x1ea1;" horiz-adv-x="987" 
d="M84 250q0 104 53 178.5t135.5 108.5t184.5 34q110 0 223 -41q0 134 -51 204.5t-180 70.5q-124 0 -248 -82l-58 113q167 104 336 104q192 0 281.5 -97.5t89.5 -291.5v-373q0 -109 41 -178h-172q-24 39 -31 98h-6q-122 -118 -285 -118q-147 0 -230 75.5t-83 194.5zM489 461
q-100 0 -168.5 -51t-68.5 -142q0 -78 49.5 -121t136.5 -43q70 0 139 41.5t103 92.5v172q-26 20 -82 35.5t-109 15.5zM391 -231q0 46 32.5 78t78.5 32q44 0 76 -32t32 -78q0 -43 -32 -77t-76 -34q-45 0 -78 34t-33 77z" />
    <glyph glyph-name="uni1EB8" unicode="&#x1eb8;" horiz-adv-x="1136" 
d="M168 1434h833v-156h-649v-469h588v-145h-588v-508h649v-156h-833v1434zM592 -346q-47 0 -81 34t-34 79q0 47 34 80.5t81 33.5q45 0 79 -33.5t34 -80.5q0 -44 -34.5 -78.5t-78.5 -34.5z" />
    <glyph glyph-name="uni1EB9" unicode="&#x1eb9;" horiz-adv-x="1038" 
d="M117 461q0 115 35 207t95 150t137.5 89t166.5 31q184 0 286.5 -134.5t88.5 -352.5h-645q3 -153 85 -244.5t212 -91.5q75 0 147 18.5t111 44.5l45 -110q-133 -84 -322 -84q-88 0 -167.5 32t-141 91t-97.5 150.5t-36 203.5zM549 809q-109 1 -177.5 -68.5t-82.5 -177.5h487
q-2 109 -64 177.5t-163 68.5zM549 -342q-45 0 -78 34t-33 77q0 46 32.5 78t78.5 32q44 0 76 -32t32 -78q0 -43 -32 -77t-76 -34z" />
    <glyph glyph-name="uni1EBC" unicode="&#x1ebc;" horiz-adv-x="1136" 
d="M168 0v1434h833v-156h-649v-469h588v-145h-588v-508h649v-156h-833zM371 1561h-103q12 84 61.5 140t139.5 56q47 0 84.5 -18t57 -39.5t47.5 -39.5t57 -18q48 0 72.5 29.5t29.5 71.5h105q-8 -85 -59.5 -143t-141.5 -58q-48 0 -86.5 17.5t-59 38t-49 38t-57.5 17.5
q-47 0 -68 -25t-30 -67z" />
    <glyph glyph-name="uni1EBD" unicode="&#x1ebd;" horiz-adv-x="1038" 
d="M117 461q0 115 35 207t95 150t137.5 89t166.5 31q184 0 286.5 -134.5t88.5 -352.5h-645q3 -153 85 -244.5t212 -91.5q75 0 147 18.5t111 44.5l45 -110q-133 -84 -322 -84q-88 0 -167.5 32t-141 91t-97.5 150.5t-36 203.5zM289 563h487q-2 109 -64 177.5t-163 68.5
q-109 1 -177.5 -68.5t-82.5 -177.5zM221 1118q9 55 29.5 99.5t64.5 77t105 32.5q46 0 83 -20t57 -43.5t48 -43.5t58 -20q47 0 71.5 34t32.5 79h100q-8 -84 -61 -147.5t-141 -63.5q-38 0 -69.5 12.5t-52 31t-39 36.5t-40.5 30.5t-47 12.5q-79 0 -98 -107h-101z" />
    <glyph glyph-name="uni1ECA" unicode="&#x1eca;" horiz-adv-x="520" 
d="M168 0v1434h184v-1434h-184zM150 -233q0 47 33.5 80.5t80.5 33.5q46 0 79.5 -33.5t33.5 -80.5q0 -45 -34 -79t-79 -34q-47 0 -80.5 34t-33.5 79z" />
    <glyph glyph-name="uni1ECB" unicode="&#x1ecb;" horiz-adv-x="489" 
d="M332 0h-170v922h170v-922zM129 1327q0 49 33.5 83t81.5 34t83 -34t35 -83q0 -47 -35 -81t-83 -34q-47 0 -81 34t-34 81zM246 -342q-45 0 -78 34t-33 77q0 46 32.5 78t78.5 32q44 0 76 -32t32 -78q0 -43 -32 -77t-76 -34z" />
    <glyph glyph-name="uni1ECC" unicode="&#x1ecc;" horiz-adv-x="1497" 
d="M748 -20q-190 0 -331.5 93.5t-215.5 259.5t-74 384t74 384t215.5 259.5t331.5 93.5q191 0 333 -93.5t215.5 -259.5t73.5 -384t-73.5 -384t-215.5 -259.5t-333 -93.5zM322 717q0 -259 113 -417.5t313 -158.5q201 0 313.5 158.5t112.5 417.5t-112.5 417t-313.5 158
q-200 0 -313 -158t-113 -417zM752 -352q-47 0 -81 33.5t-34 78.5q0 47 34 81t81 34q45 0 78.5 -34t33.5 -81q0 -44 -34 -78t-78 -34z" />
    <glyph glyph-name="uni1ECD" unicode="&#x1ecd;" horiz-adv-x="1058" 
d="M528 -16q-88 0 -166 31t-137.5 89.5t-94 150.5t-34.5 206t34.5 206t94 150.5t137.5 89.5t166 31t166 -31t138.5 -89.5t95.5 -150.5t35 -206t-35 -206t-95.5 -150.5t-138.5 -89.5t-166 -31zM270 461q0 -152 67.5 -246t190.5 -94q124 0 192 94t68 246q0 154 -68 248
t-192 94q-123 1 -190.5 -93.5t-67.5 -248.5zM528 -344q-45 0 -77.5 33t-32.5 78q0 46 32 78t78 32q44 0 76.5 -32.5t32.5 -77.5q0 -44 -32.5 -77.5t-76.5 -33.5z" />
    <glyph glyph-name="uni1EE4" unicode="&#x1ee4;" horiz-adv-x="1271" 
d="M127 1434h184v-820q0 -483 326 -483q168 0 250 113t82 370v820h176v-799q0 -326 -119.5 -488.5t-390.5 -162.5t-389.5 162t-118.5 489v799zM530 -240q0 47 34 81t81 34q46 0 79.5 -34t33.5 -81q0 -44 -34 -78t-79 -34q-47 0 -81 33.5t-34 78.5z" />
    <glyph glyph-name="uni1EE5" unicode="&#x1ee5;" horiz-adv-x="1060" 
d="M117 922h170v-445q0 -174 49 -263t176 -89q91 0 154 78t88 200v519h170v-922h-150l-12 160h-6q-40 -76 -112.5 -128t-170.5 -52q-185 0 -270.5 120.5t-85.5 376.5v445zM539 -344q-44 0 -77.5 33.5t-33.5 77.5q0 45 33 77.5t78 32.5t77.5 -32.5t32.5 -77.5
q0 -44 -33 -77.5t-77 -33.5z" />
    <glyph glyph-name="Ygrave" unicode="&#x1ef2;" horiz-adv-x="1282" 
d="M80 1434h199l362 -586h6l379 588l176 -2l-471 -732v-702h-188v692zM340 1815h184l166 -279h-127z" />
    <glyph glyph-name="ygrave" unicode="&#x1ef3;" horiz-adv-x="940" 
d="M23 -512v137h49q137 0 237.5 102.5t145.5 266.5l-428 928h186l319 -715h7l221 715h153l-278 -873q-87 -273 -223.5 -417t-339.5 -144h-49zM426 1094l-274 317h192l191 -317h-109z" />
    <glyph glyph-name="uni1EF8" unicode="&#x1ef8;" horiz-adv-x="1282" 
d="M543 692l-463 742h199l362 -586h6l379 588l176 -2l-471 -732v-702h-188v692zM418 1561h-103q12 84 60.5 140t138.5 56q47 0 84.5 -18t57.5 -39.5t48 -39.5t58 -18q46 0 70.5 29.5t31.5 71.5h103q-6 -84 -58.5 -142.5t-142.5 -58.5q-48 0 -86.5 17.5t-59 38t-49 38
t-57.5 17.5q-47 0 -68 -25t-28 -67z" />
    <glyph glyph-name="uni1EF9" unicode="&#x1ef9;" horiz-adv-x="940" 
d="M23 -375h49q137 0 237.5 102.5t145.5 266.5l-428 928h186l319 -715h7l221 715h153l-278 -873q-87 -273 -223.5 -417t-339.5 -144h-49v137zM145 1118q8 55 28.5 99.5t64.5 77t104 32.5q38 0 69.5 -13t52 -31.5t39 -37.5t40.5 -32t47 -13q46 0 71 34.5t33 78.5h101
q-10 -85 -62.5 -148t-142.5 -63q-38 0 -69 12.5t-51.5 31t-39 36.5t-41 30.5t-47.5 12.5q-74 0 -98 -107h-99z" />
    <glyph glyph-name="endash" unicode="&#x2013;" horiz-adv-x="1200" 
d="M113 463v100h974v-100h-974z" />
    <glyph glyph-name="emdash" unicode="&#x2014;" horiz-adv-x="1826" 
d="M113 463v100h1601v-100h-1601z" />
    <glyph glyph-name="quoteleft" unicode="&#x2018;" horiz-adv-x="491" 
d="M246 1042h-129q0 258 123 494h88q-82 -230 -82 -494z" />
    <glyph glyph-name="quoteright" unicode="&#x2019;" horiz-adv-x="491" 
d="M221 1042h-88q82 230 82 494h129q0 -258 -123 -494z" />
    <glyph glyph-name="quotesinglbase" unicode="&#x201a;" horiz-adv-x="491" 
d="M221 -289h-88q82 230 82 494h129q0 -258 -123 -494z" />
    <glyph glyph-name="quotedblleft" unicode="&#x201c;" horiz-adv-x="823" 
d="M580 1042h-129q0 146 36.5 279.5t83.5 224.5h91q-32 -90 -57 -224t-25 -280zM246 1042h-129q0 258 123 494h88q-82 -230 -82 -494z" />
    <glyph glyph-name="quotedblright" unicode="&#x201d;" horiz-adv-x="823" 
d="M221 1032h-88q32 90 57 224t25 280h129q0 -145 -37.5 -278t-85.5 -226zM465 1042q82 230 82 494h129q0 -252 -121 -494h-90z" />
    <glyph glyph-name="quotedblbase" unicode="&#x201e;" horiz-adv-x="849" 
d="M221 -299h-88q32 90 57 224t25 280h129q0 -145 -37.5 -278t-85.5 -226zM465 -289q82 230 82 494h129q0 -252 -121 -494h-90z" />
    <glyph glyph-name="dagger" unicode="&#x2020;" horiz-adv-x="702" 
d="M72 797v73h235v564h86v-564h238v-73h-238v-1043h-86v1043h-235z" />
    <glyph glyph-name="daggerdbl" unicode="&#x2021;" horiz-adv-x="702" 
d="M307 262h-235v74h235v518h-235v74h235v506h86v-506h238v-74h-238v-518h238v-74h-238v-506h-86v506z" />
    <glyph glyph-name="bullet" unicode="&#x2022;" horiz-adv-x="561" 
d="M127 684q0 64 45.5 110t110.5 46q62 0 107.5 -46t45.5 -110q0 -62 -46 -109t-107 -47q-64 0 -110 47t-46 109z" />
    <glyph glyph-name="ellipsis" unicode="&#x2026;" horiz-adv-x="1406" 
d="M1044 104q0 49 34.5 83t84.5 34q48 0 82.5 -34t34.5 -83q0 -47 -35 -81.5t-82 -34.5q-49 0 -84 34.5t-35 81.5zM127 104q0 49 34.5 83t84.5 34q46 0 80 -34t34 -83q0 -47 -34 -81.5t-80 -34.5q-49 0 -84 34.5t-35 81.5zM705 -12q-49 0 -84 34.5t-35 81.5q0 49 34.5 83
t84.5 34q47 0 81.5 -34t34.5 -83q0 -47 -35 -81.5t-81 -34.5z" />
    <glyph glyph-name="perthousand" unicode="&#x2030;" horiz-adv-x="1886" 
d="M750 322q0 157 78.5 248.5t207.5 91.5q76 0 136 -35t96 -99q37 64 97.5 99t137.5 35q128 0 203.5 -92t75.5 -248q0 -158 -75 -248t-204 -90q-158 0 -235 129q-35 -62 -95.5 -95.5t-136.5 -33.5q-129 0 -207.5 90t-78.5 248zM393 774q-129 0 -208 90t-79 246
q0 157 79 248.5t208 91.5t204 -91t75 -249q0 -157 -75.5 -246.5t-203.5 -89.5zM1036 582q-85 0 -136.5 -70.5t-51.5 -189.5q0 -121 51.5 -191t136.5 -68q85 0 133 68t48 191q0 121 -47.5 190.5t-133.5 69.5zM205 1110q0 -120 51 -189t137 -69t133 68t47 190t-47 192t-133 70
q-85 0 -136.5 -70.5t-51.5 -191.5zM1315 319q0 -120 51 -189t137 -67q86 0 133 68.5t47 190.5q0 121 -47.5 190.5t-132.5 69.5t-136.5 -71t-51.5 -192zM440 20h-90l641 1393h90z" />
    <glyph glyph-name="guilsinglleft" unicode="&#x2039;" horiz-adv-x="677" 
d="M201 459l364 -428h-88l-362 413v37l364 410h86l-364 -414v-18z" />
    <glyph glyph-name="guilsinglright" unicode="&#x203a;" horiz-adv-x="677" 
d="M84 31l362 428v18l-362 414h86l362 -410v-37l-360 -413h-88z" />
    <glyph glyph-name="fraction" unicode="&#x2044;" horiz-adv-x="165" 
d="M-285 0h-84l811 1331h76z" />
    <glyph glyph-name="uni2070" unicode="&#x2070;" horiz-adv-x="571" 
d="M289 911q-112 0 -175 84t-63 226q0 138 63 222.5t175 84.5t172.5 -84t60.5 -223q0 -143 -60 -226.5t-173 -83.5zM150 1221q0 -106 35.5 -166t103.5 -60q135 0 135 226q0 107 -33.5 166t-101.5 59t-103.5 -60t-35.5 -165z" />
    <glyph glyph-name="uni2074" unicode="&#x2074;" horiz-adv-x="555" 
d="M57 1028v66l305 415h76v-409h68v-72h-68v-108h-90v108h-291zM150 1100h198v272h-4l-194 -268v-4z" />
    <glyph glyph-name="uni2075" unicode="&#x2075;" horiz-adv-x="544" 
d="M262 905q-117 0 -219 76l43 70q33 -23 49.5 -33t51 -22.5t67.5 -12.5q71 0 111.5 37t40.5 98q0 127 -123 127q-74 0 -129 -41l-52 37l15 270h342v-81h-273l-8 -146l4 -2q60 33 127 33q84 0 139.5 -46t55.5 -151q0 -73 -37.5 -123t-90 -70t-114.5 -20z" />
    <glyph glyph-name="uni2076" unicode="&#x2076;" horiz-adv-x="559" 
d="M291 913q-114 0 -178 73.5t-64 195.5q0 172 74.5 259t193.5 87q95 0 181 -58l-49 -65q-70 45 -130 45q-79 0 -124.5 -61.5t-47.5 -139.5h5q19 27 60 48.5t87 21.5q97 0 152 -56.5t55 -142.5q0 -90 -57 -148.5t-158 -58.5zM158 1126q0 -66 39.5 -103.5t93.5 -37.5
q51 0 87 34t36 101t-36 101t-87 34q-57 0 -95 -33.5t-38 -95.5z" />
    <glyph glyph-name="uni2077" unicode="&#x2077;" horiz-adv-x="495" 
d="M49 1509h400v-69q-94 -151 -142.5 -255.5t-91.5 -264.5h-100q51 165 97.5 265t131.5 236v4h-295v84z" />
    <glyph glyph-name="uni2078" unicode="&#x2078;" horiz-adv-x="559" 
d="M281 911q-108 0 -170 46.5t-62 123.5q0 117 113 160v4q-76 40 -76 131q0 66 53.5 109t139.5 43q88 0 141 -43t53 -109q0 -91 -76 -131v-4q113 -42 113 -160q0 -77 -61.5 -123.5t-167.5 -46.5zM279 1206q-60 0 -96 -32t-36 -89q0 -51 34 -79.5t98 -28.5q131 0 131 108
q0 58 -35 89.5t-96 31.5zM176 1376q0 -46 28 -73t75 -27q51 0 77.5 26.5t26.5 73.5q0 36 -27 62t-77 26q-49 0 -75 -25.5t-28 -62.5z" />
    <glyph glyph-name="uni2079" unicode="&#x2079;" horiz-adv-x="559" 
d="M53 1319q0 90 57.5 149.5t159.5 59.5q112 0 176 -74.5t64 -196.5q0 -170 -74.5 -257t-191.5 -87q-104 0 -183 58l50 63q67 -43 129 -43q81 0 125.5 60.5t46.5 140.5h-4q-19 -29 -59.5 -50.5t-88.5 -21.5q-97 0 -152 56.5t-55 142.5zM145 1319q0 -67 37 -101t88 -34
q56 0 94.5 34.5t38.5 96.5q0 64 -39.5 102.5t-93.5 38.5q-52 0 -88.5 -35t-36.5 -102z" />
    <glyph glyph-name="uni2080" unicode="&#x2080;" horiz-adv-x="571" 
d="M289 -113q-112 0 -175 84t-63 226q0 138 63 222.5t175 84.5t172.5 -84t60.5 -223q0 -143 -60 -226.5t-173 -83.5zM150 197q0 -106 35.5 -166t103.5 -60q135 0 135 226q0 107 -33.5 166t-101.5 59t-103.5 -60t-35.5 -165z" />
    <glyph glyph-name="uni2081" unicode="&#x2081;" horiz-adv-x="395" 
d="M82 305l-39 64l174 116h70v-587h-97v475h-4z" />
    <glyph glyph-name="uni2082" unicode="&#x2082;" horiz-adv-x="550" 
d="M70 371q82 137 217 137q81 0 131.5 -44t50.5 -118q0 -43 -19.5 -84.5t-39 -64.5t-52.5 -56l-151 -155v-4h278v-84h-411v73l211 213q21 21 29.5 30t26.5 32.5t26 46t8 47.5q0 40 -25.5 64t-68.5 24q-48 0 -80 -26t-62 -72z" />
    <glyph glyph-name="uni2083" unicode="&#x2083;" horiz-adv-x="552" 
d="M266 -111q-124 0 -205 64l43 67q72 -53 160 -53q58 0 92.5 26t34.5 77q1 50 -35.5 76t-99.5 26h-61v68h61q58 0 89.5 27t31.5 71q0 82 -103 82q-75 0 -149 -58l-41 64q94 74 195 74q85 0 136.5 -36.5t51.5 -115.5q0 -52 -22.5 -81.5t-63.5 -49.5v-4q106 -43 106 -150
q0 -49 -20 -84.5t-54 -54t-70.5 -27t-76.5 -8.5z" />
    <glyph glyph-name="uni2084" unicode="&#x2084;" horiz-adv-x="555" 
d="M57 4v66l305 415h76v-409h68v-72h-68v-110h-90v110h-291zM150 76h198v272h-4l-194 -268v-4z" />
    <glyph glyph-name="uni2085" unicode="&#x2085;" horiz-adv-x="544" 
d="M262 -119q-117 0 -219 76l43 70q33 -23 49.5 -33t51 -22.5t67.5 -12.5q71 0 111.5 37t40.5 98q0 127 -123 127q-74 0 -129 -41l-52 37l15 270h342v-81h-273l-8 -146l4 -2q60 33 127 33q84 0 139.5 -46t55.5 -151q0 -73 -37.5 -123t-90 -70t-114.5 -20z" />
    <glyph glyph-name="uni2086" unicode="&#x2086;" horiz-adv-x="559" 
d="M291 -111q-114 0 -178 73.5t-64 195.5q0 172 74.5 259t193.5 87q95 0 181 -58l-49 -65q-70 45 -130 45q-79 0 -124.5 -61.5t-47.5 -139.5h5q19 27 60 48.5t87 21.5q97 0 152 -56.5t55 -142.5q0 -90 -57 -148.5t-158 -58.5zM158 102q0 -66 39.5 -104.5t93.5 -38.5
q51 0 87 35t36 102t-36 101t-87 34q-57 0 -95 -33.5t-38 -95.5z" />
    <glyph glyph-name="uni2087" unicode="&#x2087;" horiz-adv-x="495" 
d="M49 485h400v-69q-94 -151 -142.5 -255.5t-91.5 -264.5h-100q51 165 97.5 265t131.5 236v4h-295v84z" />
    <glyph glyph-name="uni2088" unicode="&#x2088;" horiz-adv-x="559" 
d="M281 -113q-108 0 -170 46.5t-62 123.5q0 117 113 160v4q-76 40 -76 131q0 66 53.5 109t139.5 43q88 0 141 -43t53 -109q0 -91 -76 -131v-4q113 -42 113 -160q0 -77 -61.5 -123.5t-167.5 -46.5zM279 182q-60 0 -96 -32t-36 -89q0 -51 34 -79.5t98 -28.5q131 0 131 108
q0 58 -35 89.5t-96 31.5zM176 352q0 -46 28 -73t75 -27q51 0 77.5 26.5t26.5 73.5q0 36 -27 62t-77 26q-49 0 -75 -25.5t-28 -62.5z" />
    <glyph glyph-name="uni2089" unicode="&#x2089;" horiz-adv-x="559" 
d="M53 295q0 90 57.5 149.5t159.5 59.5q112 0 176 -74.5t64 -196.5q0 -170 -74.5 -257t-191.5 -87q-104 0 -183 58l50 63q70 -45 129 -45q80 0 125 61.5t47 141.5h-4q-19 -29 -59.5 -50.5t-88.5 -21.5q-97 0 -152 56.5t-55 142.5zM145 295q0 -67 37 -101t88 -34
q56 0 94.5 34.5t38.5 96.5q0 64 -39.5 102.5t-93.5 38.5q-52 0 -88.5 -35t-36.5 -102z" />
    <glyph glyph-name="franc" unicode="&#x20a3;" horiz-adv-x="1038" 
d="M340 420h367v-90h-367v-330h-172v330h-98v90h98v973h760v-146h-588v-483h526v-127h-526v-217z" />
    <glyph glyph-name="lira" unicode="&#x20a4;" horiz-adv-x="946" 
d="M55 133q88 94 132 182t44 183h-174v90h164q-5 26 -18.5 77t-16.5 62h-129v90h107q-21 89 -21 152q0 199 118 314.5t296 115.5q82 0 157 -21.5t117 -46.5l-55 -125q-100 54 -207 54q-104 0 -182 -78.5t-78 -218.5q0 -59 17 -146h430v-90h-410q28 -132 29 -139h381v-90
h-373q0 -178 -145 -355v-6h649v-137h-832v133z" />
    <glyph glyph-name="peseta" unicode="&#x20a7;" horiz-adv-x="1179" 
d="M164 938h-133v78h133v364q254 21 360 21q104 0 190 -23t152 -69t104 -121t42 -172h135v-78h-137q-11 -94 -54.5 -169t-110.5 -121.5t-147.5 -71.5t-169.5 -27q-79 -2 -194 18v-567h-170v938zM831 938h-497v-236q74 -14 180 -14q140 0 221.5 66t95.5 184zM334 1016h500
q-8 114 -88.5 180t-225.5 66q-89 0 -186 -11v-235z" />
    <glyph glyph-name="Euro" unicode="&#x20ac;" horiz-adv-x="1054" 
d="M127 514h-98v90h86q-4 58 -4 92q0 28 4 82h-86v90h96q41 242 192 387.5t363 145.5q150 0 264 -58v-147q-105 59 -239 59q-146 0 -251.5 -105t-142.5 -282h553v-90h-565q-4 -54 -4 -82q0 -48 6 -92h563v-90h-549q40 -171 146 -274t244 -103q127 0 245 56v-148
q-129 -59 -272 -59q-206 0 -356.5 143t-194.5 385z" />
    <glyph glyph-name="uni20BA" unicode="&#x20ba;" horiz-adv-x="1150" 
d="M381 956l317 131v-88l-317 -133v-129l317 131v-88l-317 -133v-506q214 15 361 174t147 377h149q0 -151 -57.5 -283t-154.5 -223t-227.5 -143.5t-274.5 -52.5q-62 0 -111 10v580l-182 -78v90l182 76v131l-182 -78v90l182 76v506h168v-437z" />
    <glyph glyph-name="uni2113" unicode="&#x2113;" horiz-adv-x="823" 
d="M14 434q62 8 133 41l3 567q0 246 71.5 373t231.5 127q125 0 188.5 -88t63.5 -246q0 -231 -108 -429.5t-280 -317.5q2 -173 45 -260.5t154 -87.5q55 0 139 43l50 -117q-30 -22 -96.5 -42t-125.5 -20q-158 0 -242 92.5t-91 305.5q-71 -25 -136 -31v90zM317 598
q114 112 182 272t68 328q0 60 -10 106.5t-36.5 78.5t-67.5 32q-44 0 -72 -27.5t-41.5 -86t-18 -123t-4.5 -164.5v-416z" />
    <glyph glyph-name="uni2116" unicode="&#x2116;" horiz-adv-x="2394" 
d="M1866 291q-88 0 -166 31t-138 89.5t-95 150.5t-35 206t35 206t95 150.5t138 89.5t166 31t166 -31t137.5 -89.5t94 -150.5t34.5 -206t-34.5 -206t-94 -150.5t-137.5 -89.5t-166 -31zM168 1434h174l674 -1110h6v1110h176v-1434h-178l-670 1087h-6v-1087h-176v1434z
M1608 768q0 -152 67.5 -246t190.5 -94t190.5 94t67.5 246q0 154 -67.5 248t-190.5 94q-123 1 -190.5 -93.5t-67.5 -248.5zM1565 -45v98h602v-98h-602z" />
    <glyph glyph-name="uni2117" unicode="&#x2117;" 
d="M774 -16q-139 0 -265.5 54t-217.5 145t-145 217.5t-54 265.5t54 265.5t145 217.5t217.5 145t265.5 54t265.5 -54t217.5 -145t145 -217.5t54 -265.5t-54 -265.5t-145 -217.5t-217.5 -145t-265.5 -54zM774 1251q-117 0 -223.5 -46t-183.5 -124.5t-122.5 -187t-45.5 -227.5
q0 -158 77 -293t209.5 -214t288.5 -79t288.5 79t210 214t77.5 293q0 159 -77.5 294t-210 213t-288.5 78zM555 1047q172 12 227 12q133 0 213 -60.5t80 -179.5q0 -125 -82 -192t-207 -70q-50 0 -108 10v-291h-123v771zM780 961q-48 0 -102 -7v-290q57 -11 100 -11
q86 0 131 45t43 121q-2 66 -45.5 104t-126.5 38z" />
    <glyph glyph-name="uni2120" unicode="&#x2120;" horiz-adv-x="1265" 
d="M586 1434h80l219 -433h4l215 433h78v-564h-95v361h-4l-170 -352h-71l-166 342h-6v-351h-84v564zM285 864q-49 0 -107 15.5t-96 40.5l41 69q79 -49 160 -49q55 0 85.5 22t30.5 60q0 37 -26.5 58t-98.5 40q-85 21 -124 58t-39 106q0 75 51.5 118.5t136.5 43.5
q104 0 182 -47l-37 -74q-69 43 -139 43q-53 0 -76.5 -23t-23.5 -59q0 -34 24 -52.5t84 -33.5q96 -25 137.5 -63.5t41.5 -108.5q0 -82 -58.5 -123t-148.5 -41z" />
    <glyph glyph-name="trademark" unicode="&#x2122;" horiz-adv-x="1325" 
d="M729 870h-84v564h80l219 -433h4l215 433h78v-564h-94v361h-4l-172 -352h-70l-166 342h-6v-351zM55 1434h480v-76h-195v-488h-94v488h-191v76z" />
    <glyph glyph-name="estimated" unicode="&#x212e;" horiz-adv-x="1081" 
d="M541 -16q-219 0 -350.5 130t-131.5 343q0 214 131 344.5t351 130.5t350.5 -130.5t130.5 -344.5v-21h-815v-250q121 -153 334 -153q255 0 372 203h60q-62 -125 -174.5 -188.5t-257.5 -63.5zM207 729v-250h667v250q-122 154 -333 154q-212 0 -334 -154z" />
    <glyph glyph-name="arrowleft" unicode="&#x2190;" horiz-adv-x="1417" 
d="M530 242l-417 420v8l417 420l88 -91l-266 -266v-4h955v-127h-955v-4l266 -266z" />
    <glyph glyph-name="arrowup" unicode="&#x2191;" horiz-adv-x="989" 
d="M145 770l-90 88l420 420h8l420 -420l-90 -88l-266 266h-4v-954h-127v954h-4z" />
    <glyph glyph-name="arrowright" unicode="&#x2192;" horiz-adv-x="1417" 
d="M82 729h954v4l-266 266l88 91l418 -420v-8l-418 -420l-88 90l266 266v4h-954v127z" />
    <glyph glyph-name="arrowdown" unicode="&#x2193;" horiz-adv-x="989" 
d="M55 461l90 90l267 -268h4v954h127v-954h4l266 268l90 -90l-420 -418h-8z" />
    <glyph glyph-name="arrowboth" unicode="&#x2194;" horiz-adv-x="1777" 
d="M113 670l417 420l88 -91l-266 -266v-4h1073v4l-266 266l88 91l420 -420v-8l-420 -420l-88 90l266 266v4h-1073v-4l266 -266l-88 -90l-417 420v8z" />
    <glyph glyph-name="arrowupdn" unicode="&#x2195;" horiz-adv-x="989" 
d="M72 428l88 88l268 -266h4v942h-4l-268 -266l-88 88l417 420h9l420 -420l-89 -88l-268 266h-4v-942h4l268 266l89 -88l-420 -420h-9z" />
    <glyph glyph-name="uni2196" unicode="&#x2196;" horiz-adv-x="1116" 
d="M113 1006h594v-125h-379l-2 -4l673 -674l-88 -90l-675 675l-3 -4v-376h-127l3 591z" />
    <glyph glyph-name="uni2197" unicode="&#x2197;" horiz-adv-x="1116" 
d="M979 997v-594h-125l-2 379l-2 4l-674 -675l-90 88l676 675l-4 3h-377v127h592z" />
    <glyph glyph-name="uni2198" unicode="&#x2198;" horiz-adv-x="1116" 
d="M86 1073l90 90l674 -676l2 2l2 379h125v-592l-6 -6h-592v125h377l4 4z" />
    <glyph glyph-name="uni2199" unicode="&#x2199;" horiz-adv-x="1116" 
d="M109 279l-3 591h127v-376l3 -5l675 676l88 -90l-673 -674l2 -2l379 -2v-125h-594z" />
    <glyph glyph-name="partialdiff" unicode="&#x2202;" horiz-adv-x="1261" 
d="M618 969q151 0 251.5 -81t113.5 -226h6q21 119 21 225q0 81 -12.5 155.5t-42 144t-74 120.5t-112.5 81.5t-153 30.5q-112 0 -237 -39l-23 133q175 48 289 48q125 0 225.5 -51t165.5 -141t100 -212t35 -266q0 -121 -23.5 -243t-75.5 -241t-126.5 -210.5t-186 -148
t-243.5 -56.5q-195 0 -310.5 106.5t-115.5 296.5q0 110 39.5 214t107.5 183.5t168 128t213 48.5zM526 131q104 0 192 63.5t135.5 159.5t47.5 197q0 128 -75 205.5t-201 77.5q-104 0 -189 -66.5t-128.5 -163.5t-43.5 -198q0 -126 70 -200.5t192 -74.5z" />
    <glyph glyph-name="product" unicode="&#x220f;" horiz-adv-x="1333" 
d="M78 1315v119h1177v-119h-170v-1827h-153v1827h-529v-1827h-155v1827h-170z" />
    <glyph glyph-name="summation" unicode="&#x2211;" horiz-adv-x="1318" 
d="M113 1339v95h1110v-113h-920l557 -803l-565 -887h928v-143h-1110v111l575 903z" />
    <glyph glyph-name="minus" unicode="&#x2212;" horiz-adv-x="1081" 
d="M106 436v109h869v-109h-869z" />
    <glyph glyph-name="uni2215" unicode="&#x2215;" horiz-adv-x="743" 
d="M-10 -51l686 1587h115l-687 -1587h-114z" />
    <glyph glyph-name="uni2219" unicode="&#x2219;" horiz-adv-x="561" 
d="M127 684q0 64 45.5 110t110.5 46q62 0 107.5 -46t45.5 -110q0 -62 -46 -109t-107 -47q-64 0 -110 47t-46 109z" />
    <glyph glyph-name="radical" unicode="&#x221a;" horiz-adv-x="1255" 
d="M51 793h164l293 -850h6l616 1593h115l-676 -1731h-114l-312 889h-92v99z" />
    <glyph glyph-name="infinity" unicode="&#x221e;" horiz-adv-x="1476" 
d="M438 221q-127 0 -201.5 88t-74.5 219q0 132 74.5 221t201.5 89q178 0 320 -234q142 234 319 234q127 0 202 -89t75 -221q0 -131 -75.5 -219t-203.5 -88q-175 0 -317 234q-142 -234 -320 -234zM246 528q0 -98 51 -162.5t143 -64.5q80 0 145.5 61.5t125.5 165.5
q-60 105 -125.5 167.5t-145.5 62.5q-92 0 -143 -65t-51 -165zM1075 758q-80 0 -145 -62t-125 -168q61 -104 125.5 -165.5t144.5 -61.5q93 0 144 64.5t51 162.5q0 100 -51 165t-144 65z" />
    <glyph glyph-name="integral" unicode="&#x222b;" horiz-adv-x="647" 
d="M14 -373q122 0 174 98t52 283v1055q0 473 393 473v-139q-122 0 -173.5 -97t-51.5 -282v-1055q0 -124 -31 -217t-86 -148.5t-124.5 -82.5t-152.5 -27v139z" />
    <glyph glyph-name="approxequal" unicode="&#x2248;" horiz-adv-x="1273" 
d="M106 713q35 33 104.5 66.5t147.5 33.5q67 0 144.5 -30.5t137 -67t135.5 -67t140 -30.5q120 0 252 132v-125q-43 -44 -107.5 -77.5t-144.5 -33.5q-78 0 -160 31t-140 67.5t-129 67.5t-128 31q-75 0 -147.5 -41t-104.5 -80v123zM106 395q36 33 105 67t147 34
q67 0 144.5 -31t137 -67.5t135.5 -67.5t140 -31q121 0 252 131v-123q-42 -44 -107 -77t-145 -33q-78 0 -160 30.5t-140 66.5t-129 66.5t-128 30.5q-75 0 -148 -41t-104 -80v125z" />
    <glyph glyph-name="notequal" unicode="&#x2260;" horiz-adv-x="1081" 
d="M117 254v125h297l121 278h-418v125h469l121 275h92l-119 -275h285v-125h-338l-121 -278h459v-125h-512l-125 -285h-90l122 285h-243z" />
    <glyph glyph-name="lessequal" unicode="&#x2264;" horiz-adv-x="1191" 
d="M1069 365l-960 348v127l960 336v-132l-776 -262v-8l776 -266v-143zM1059 90h-934v107h934v-107z" />
    <glyph glyph-name="greaterequal" unicode="&#x2265;" horiz-adv-x="1191" 
d="M94 508l776 266v8l-776 262v132l959 -336v-127l-959 -348v143zM1036 90h-932v107h932v-107z" />
    <glyph glyph-name="uni2460" unicode="&#x2460;" 
d="M774 -16q-139 0 -265.5 54t-217.5 145t-145 217.5t-54 265.5t54 265.5t145 217.5t217.5 145t265.5 54t265.5 -54t217.5 -145t145 -217.5t54 -265.5t-54 -265.5t-145 -217.5t-217.5 -145t-265.5 -54zM199 666q0 -158 77 -293t209.5 -214t288.5 -79t288.5 79t210 214
t77.5 293q0 159 -77.5 294t-210 213t-288.5 78q-117 0 -223.5 -46t-183.5 -124.5t-122.5 -187t-45.5 -227.5zM582 870l174 117h71v-588h-98v473h-4l-100 -69z" />
    <glyph glyph-name="uni2461" unicode="&#x2461;" 
d="M774 -16q-139 0 -265.5 54t-217.5 145t-145 217.5t-54 265.5t54 265.5t145 217.5t217.5 145t265.5 54t265.5 -54t217.5 -145t145 -217.5t54 -265.5t-54 -265.5t-145 -217.5t-217.5 -145t-265.5 -54zM199 666q0 -158 77 -293t209.5 -214t288.5 -79t288.5 79t210 214
t77.5 293q0 159 -77.5 294t-210 213t-288.5 78q-117 0 -223.5 -46t-183.5 -124.5t-122.5 -187t-45.5 -227.5zM559 872q80 138 217 138q83 0 134 -44t51 -118q0 -43 -20 -85t-38 -63.5t-51 -56.5l-147 -149v-5h270v-90h-410v74l209 213q27 27 40.5 42t30.5 48.5t17 65.5
q0 40 -24 61t-68 21q-34 0 -61 -16t-40 -32t-34 -47z" />
    <glyph glyph-name="uni2462" unicode="&#x2462;" 
d="M774 -16q-139 0 -265.5 54t-217.5 145t-145 217.5t-54 265.5t54 265.5t145 217.5t217.5 145t265.5 54t265.5 -54t217.5 -145t145 -217.5t54 -265.5t-54 -265.5t-145 -217.5t-217.5 -145t-265.5 -54zM199 666q0 -158 77 -293t209.5 -214t288.5 -79t288.5 79t210 214
t77.5 293q0 159 -77.5 294t-210 213t-288.5 78q-117 0 -223.5 -46t-183.5 -124.5t-122.5 -187t-45.5 -227.5zM758 393q-120 0 -203 62l45 73q70 -51 156 -51q127 0 127 94q0 52 -35 78.5t-98 26.5h-62v69h62q58 0 87 26t29 71q-2 36 -27 57t-71 21q-73 0 -145 -60l-45 70
q94 74 194 74q82 0 135.5 -38.5t53.5 -113.5q0 -53 -22 -82t-62 -49v-4q104 -41 104 -152q0 -49 -20.5 -84.5t-55 -53.5t-71 -26t-76.5 -8z" />
    <glyph glyph-name="uni2463" unicode="&#x2463;" 
d="M774 -16q-139 0 -265.5 54t-217.5 145t-145 217.5t-54 265.5t54 265.5t145 217.5t217.5 145t265.5 54t265.5 -54t217.5 -145t145 -217.5t54 -265.5t-54 -265.5t-145 -217.5t-217.5 -145t-265.5 -54zM774 1251q-117 0 -223.5 -46t-183.5 -124.5t-122.5 -187t-45.5 -227.5
q0 -158 77 -293t209.5 -214t288.5 -79t288.5 79t210 214t77.5 293q0 159 -77.5 294t-210 213t-288.5 78zM793 508h-287v67l305 416h80v-405h63v-78h-63v-109h-98v109zM606 586h187v258h-5l-182 -254v-4z" />
    <glyph glyph-name="uni2464" unicode="&#x2464;" 
d="M774 -16q-139 0 -265.5 54t-217.5 145t-145 217.5t-54 265.5t54 265.5t145 217.5t217.5 145t265.5 54t265.5 -54t217.5 -145t145 -217.5t54 -265.5t-54 -265.5t-145 -217.5t-217.5 -145t-265.5 -54zM199 666q0 -158 77 -293t209.5 -214t288.5 -79t288.5 79t210 214
t77.5 293q0 159 -77.5 294t-210 213t-288.5 78q-117 0 -223.5 -46t-183.5 -124.5t-122.5 -187t-45.5 -227.5zM543 461l45 74q89 -64 166 -64q69 0 108 33.5t39 93.5q0 57 -32 91t-87 34q-80 0 -129 -39l-53 37l14 270h342v-84h-270l-6 -135l6 -4q69 31 121 31
q83 0 140 -48.5t57 -154.5q0 -72 -37 -121.5t-89 -69.5t-114 -20q-123 0 -221 76z" />
    <glyph glyph-name="uni2465" unicode="&#x2465;" 
d="M774 -16q-139 0 -265.5 54t-217.5 145t-145 217.5t-54 265.5t54 265.5t145 217.5t217.5 145t265.5 54t265.5 -54t217.5 -145t145 -217.5t54 -265.5t-54 -265.5t-145 -217.5t-217.5 -145t-265.5 -54zM199 666q0 -158 77 -293t209.5 -214t288.5 -79t288.5 79t210 214
t77.5 293q0 159 -77.5 294t-210 213t-288.5 78q-117 0 -223.5 -46t-183.5 -124.5t-122.5 -187t-45.5 -227.5zM766 391q-114 0 -178 74t-64 197q0 170 76 257t193 87q94 0 180 -58l-49 -67q-71 43 -131 43q-78 0 -121 -60t-45 -137h4q20 27 59 48.5t84 21.5q97 0 152 -55.5
t55 -141.5q0 -90 -57 -149.5t-158 -59.5zM633 604q0 -64 40 -102.5t93 -38.5q49 0 85 35.5t36 101.5t-35.5 99.5t-85.5 33.5q-54 0 -93.5 -34.5t-39.5 -94.5z" />
    <glyph glyph-name="uni2466" unicode="&#x2466;" 
d="M92 666q0 139 54 265.5t145 217.5t217.5 145t265.5 54t265.5 -54t217.5 -145t145 -217.5t54 -265.5t-54 -265.5t-145 -217.5t-217.5 -145t-265.5 -54t-265.5 54t-217.5 145t-145 217.5t-54 265.5zM774 1251q-117 0 -223.5 -46t-183.5 -124.5t-122.5 -187t-45.5 -227.5
q0 -158 77 -293t209.5 -214t288.5 -79t288.5 79t210 214t77.5 293q0 159 -77.5 294t-210 213t-288.5 78zM584 965h397v-72q-91 -147 -137.5 -250.5t-89.5 -265.5h-107q50 163 95 259t132 234v9h-290v86z" />
    <glyph glyph-name="uni2467" unicode="&#x2467;" 
d="M774 -16q-139 0 -265.5 54t-217.5 145t-145 217.5t-54 265.5t54 265.5t145 217.5t217.5 145t265.5 54t265.5 -54t217.5 -145t145 -217.5t54 -265.5t-54 -265.5t-145 -217.5t-217.5 -145t-265.5 -54zM774 1251q-117 0 -223.5 -46t-183.5 -124.5t-122.5 -187t-45.5 -227.5
q0 -158 77 -293t209.5 -214t288.5 -79t288.5 79t210 214t77.5 293q0 159 -77.5 294t-210 213t-288.5 78zM772 391q-108 0 -169.5 46.5t-59.5 123.5q0 118 112 160v4q-77 36 -77 129q0 66 53.5 110t140.5 44t140 -44t53 -110q0 -93 -76 -129v-4q112 -41 112 -160
q0 -78 -61 -124t-168 -46zM772 682q-58 0 -93.5 -31t-35.5 -86q0 -50 33.5 -78t95.5 -28q63 0 95 27.5t32 78.5q0 54 -35 85.5t-92 31.5zM672 854q-1 -44 26.5 -70t73.5 -26q44 0 71 26t27 70q0 36 -25.5 62t-72.5 26q-48 0 -74 -25.5t-26 -62.5z" />
    <glyph glyph-name="uni2468" unicode="&#x2468;" 
d="M92 666q0 139 54 265.5t145 217.5t217.5 145t265.5 54t265.5 -54t217.5 -145t145 -217.5t54 -265.5t-54 -265.5t-145 -217.5t-217.5 -145t-265.5 -54t-265.5 54t-217.5 145t-145 217.5t-54 265.5zM199 666q0 -158 77 -293t209.5 -214t288.5 -79t288.5 79t210 214
t77.5 293q0 159 -77.5 294t-210 213t-288.5 78q-117 0 -223.5 -46t-183.5 -124.5t-122.5 -187t-45.5 -227.5zM561 791q0 90 57.5 149t159.5 59q112 0 177 -74t65 -196q0 -170 -76 -257t-192 -87q-107 0 -181 57l50 66q67 -43 129 -43q79 0 122.5 60.5t45.5 136.5h-5
q-20 -27 -59 -48.5t-86 -21.5q-97 0 -152 56.5t-55 142.5zM778 928q-49 0 -86 -36t-37 -101q0 -66 36 -100t87 -34q54 0 92.5 34.5t38.5 94.5q0 64 -39 103t-92 39z" />
    <glyph glyph-name="uni24EA" unicode="&#x24ea;" 
d="M774 -16q-139 0 -265.5 54t-217.5 145t-145 217.5t-54 265.5t54 265.5t145 217.5t217.5 145t265.5 54t265.5 -54t217.5 -145t145 -217.5t54 -265.5t-54 -265.5t-145 -217.5t-217.5 -145t-265.5 -54zM199 666q0 -158 77 -293t209.5 -214t288.5 -79t288.5 79t210 214
t77.5 293q0 159 -77.5 294t-210 213t-288.5 78q-117 0 -223.5 -46t-183.5 -124.5t-122.5 -187t-45.5 -227.5zM537 700q0 137 62.5 221.5t174.5 84.5q111 0 171.5 -84t60.5 -222q0 -143 -60 -226t-172 -83q-113 0 -175 83t-62 226zM774 922q-67 0 -102 -59t-35 -163
q0 -106 35 -164.5t102 -58.5q131 0 131 223q0 106 -32.5 164t-98.5 58z" />
    <glyph glyph-name="uni24FF" unicode="&#x24ff;" 
d="M774 -16q-139 0 -265.5 54t-217.5 145t-145 217.5t-54 265.5t54 265.5t145 217.5t217.5 145t265.5 54t265.5 -54t217.5 -145t145 -217.5t54 -265.5t-54 -265.5t-145 -217.5t-217.5 -145t-265.5 -54zM537 700q0 -143 62 -226t175 -83q112 0 172 83t60 226q0 138 -60.5 222
t-171.5 84q-112 0 -174.5 -84.5t-62.5 -221.5zM774 477q-67 0 -102 58.5t-35 164.5q0 104 35 163t102 59q66 0 98.5 -58t32.5 -164q0 -223 -131 -223z" />
    <glyph glyph-name="lozenge" unicode="&#x25ca;" horiz-adv-x="1314" 
d="M96 666l500 903h131l492 -903l-492 -902h-131zM281 666l374 -701h7l372 701l-372 700h-7z" />
    <glyph glyph-name="uni2776" unicode="&#x2776;" 
d="M92 666q0 139 54 265.5t145 217.5t217.5 145t265.5 54t265.5 -54t217.5 -145t145 -217.5t54 -265.5t-54 -265.5t-145 -217.5t-217.5 -145t-265.5 -54t-265.5 54t-217.5 145t-145 217.5t-54 265.5zM582 870l43 -67l100 69h4v-473h98v588h-71z" />
    <glyph glyph-name="uni2777" unicode="&#x2777;" 
d="M92 666q0 139 54 265.5t145 217.5t217.5 145t265.5 54t265.5 -54t217.5 -145t145 -217.5t54 -265.5t-54 -265.5t-145 -217.5t-217.5 -145t-265.5 -54t-265.5 54t-217.5 145t-145 217.5t-54 265.5zM776 1010q-137 0 -217 -138l76 -43q21 31 34 47t40 32t61 16q44 0 68 -21
t24 -61q0 -32 -17 -65.5t-30.5 -48.5t-40.5 -42l-209 -213v-74h410v90h-270v5l147 149q33 35 51 56.5t38 63.5t20 85q0 74 -51 118t-134 44z" />
    <glyph glyph-name="uni2778" unicode="&#x2778;" 
d="M774 -16q-139 0 -265.5 54t-217.5 145t-145 217.5t-54 265.5t54 265.5t145 217.5t217.5 145t265.5 54t265.5 -54t217.5 -145t145 -217.5t54 -265.5t-54 -265.5t-145 -217.5t-217.5 -145t-265.5 -54zM555 455q83 -62 203 -62q40 0 76.5 8t71 26t55 53.5t20.5 84.5
q0 111 -104 152v4q40 20 62 49t22 82q0 75 -53.5 113.5t-135.5 38.5q-100 0 -194 -74l45 -70q72 60 145 60q46 0 71 -21t27 -57q0 -45 -29 -71t-87 -26h-62v-69h62q63 0 98 -26.5t35 -78.5q0 -94 -127 -94q-86 0 -156 51z" />
    <glyph glyph-name="uni2779" unicode="&#x2779;" 
d="M92 666q0 139 54 265.5t145 217.5t217.5 145t265.5 54t265.5 -54t217.5 -145t145 -217.5t54 -265.5t-54 -265.5t-145 -217.5t-217.5 -145t-265.5 -54t-265.5 54t-217.5 145t-145 217.5t-54 265.5zM506 575v-67h287v-109h98v109h63v78h-63v405h-80zM788 844h5v-258h-187v4
z" />
    <glyph glyph-name="uni277A" unicode="&#x277a;" 
d="M92 666q0 139 54 265.5t145 217.5t217.5 145t265.5 54t265.5 -54t217.5 -145t145 -217.5t54 -265.5t-54 -265.5t-145 -217.5t-217.5 -145t-265.5 -54t-265.5 54t-217.5 145t-145 217.5t-54 265.5zM543 461q98 -76 221 -76q62 0 114 20t89 69.5t37 121.5q0 106 -57 154.5
t-140 48.5q-52 0 -121 -31l-6 4l6 135h270v84h-342l-14 -270l53 -37q49 39 129 39q55 0 87 -34t32 -91q0 -60 -39 -93.5t-108 -33.5q-77 0 -166 64z" />
    <glyph glyph-name="uni277B" unicode="&#x277b;" 
d="M774 -16q-139 0 -265.5 54t-217.5 145t-145 217.5t-54 265.5t54 265.5t145 217.5t217.5 145t265.5 54t265.5 -54t217.5 -145t145 -217.5t54 -265.5t-54 -265.5t-145 -217.5t-217.5 -145t-265.5 -54zM793 1006q-117 0 -193 -87t-76 -257q0 -123 64 -197t178 -74
q101 0 158 59.5t57 149.5q0 86 -55 141.5t-152 55.5q-45 0 -84 -21.5t-59 -48.5h-4q2 77 45 137t121 60q60 0 131 -43l49 67q-86 58 -180 58zM633 604q0 60 39.5 94.5t93.5 34.5q50 0 85.5 -33.5t35.5 -99.5t-36 -101.5t-85 -35.5q-53 0 -93 38.5t-40 102.5z" />
    <glyph glyph-name="uni277C" unicode="&#x277c;" 
d="M92 666q0 139 54 265.5t145 217.5t217.5 145t265.5 54t265.5 -54t217.5 -145t145 -217.5t54 -265.5t-54 -265.5t-145 -217.5t-217.5 -145t-265.5 -54t-265.5 54t-217.5 145t-145 217.5t-54 265.5zM584 965v-86h290v-9q-87 -138 -132 -234t-95 -259h107q43 162 89.5 265.5
t137.5 250.5v72h-397z" />
    <glyph glyph-name="uni277D" unicode="&#x277d;" 
d="M774 -16q-139 0 -265.5 54t-217.5 145t-145 217.5t-54 265.5t54 265.5t145 217.5t217.5 145t265.5 54t265.5 -54t217.5 -145t145 -217.5t54 -265.5t-54 -265.5t-145 -217.5t-217.5 -145t-265.5 -54zM543 561q-2 -77 59.5 -123.5t169.5 -46.5q107 0 168 46t61 124
q0 119 -112 160v4q76 36 76 129q0 66 -53 110t-140 44t-140.5 -44t-53.5 -110q0 -93 77 -129v-4q-112 -42 -112 -160zM643 565q0 52 36 84.5t93 32.5t92 -31.5t35 -85.5q0 -51 -32 -78.5t-95 -27.5t-96 28.5t-33 77.5zM772 758q-46 0 -73.5 26t-26.5 70q0 37 26 62.5
t74 25.5q47 0 72.5 -26t25.5 -62q0 -44 -27 -70t-71 -26z" />
    <glyph glyph-name="uni277E" unicode="&#x277e;" 
d="M774 -16q-139 0 -265.5 54t-217.5 145t-145 217.5t-54 265.5t54 265.5t145 217.5t217.5 145t265.5 54t265.5 -54t217.5 -145t145 -217.5t54 -265.5t-54 -265.5t-145 -217.5t-217.5 -145t-265.5 -54zM561 791q0 -86 55 -142.5t152 -56.5q47 0 86 21.5t59 48.5h5
q-2 -76 -45.5 -136.5t-122.5 -60.5q-62 0 -129 43l-50 -66q74 -57 181 -57q116 0 192 87t76 257q0 122 -65 196t-177 74q-102 0 -159.5 -59t-57.5 -149zM778 657q-51 0 -87 34t-36 100q0 65 37 101t86 36q53 0 92 -39t39 -103q0 -60 -38.5 -94.5t-92.5 -34.5z" />
    <glyph glyph-name="uniE000" unicode="&#xe000;" horiz-adv-x="1329" 
d="M799 -18q-300 0 -486.5 206.5t-185.5 542.5q1 164 51.5 298.5t140 225t212.5 140t268 49.5q245 0 430 -96l-66 -144q-154 80 -356 80q-212 0 -347.5 -154t-135.5 -399q-1 -261 140 -427.5t349 -166.5q212 0 361 90l59 -133q-200 -112 -434 -112zM737 1536l43 285h160
l-92 -285h-111z" />
    <glyph glyph-name="uniE001" unicode="&#xe001;" horiz-adv-x="925" 
d="M539 -14q-88 0 -166 30.5t-139 88t-96.5 149.5t-35.5 207q0 207 115.5 342t319.5 135q179 0 292 -74l-51 -112q-79 57 -211 57q-94 0 -161.5 -48.5t-98.5 -125t-31 -172.5q0 -151 81 -247.5t212 -96.5q68 0 132.5 18t103.5 45l51 -112q-133 -84 -317 -84zM481 1094
l64 317h143l-115 -317h-92z" />
    <glyph glyph-name="uniE002" unicode="&#xe002;" horiz-adv-x="1366" 
d="M344 0h-176v1434h174l674 -1110h6v1110h176v-1434h-178l-670 1087h-6v-1087zM655 1536l41 285h160l-90 -285h-111z" />
    <glyph glyph-name="uniE003" unicode="&#xe003;" horiz-adv-x="1060" 
d="M137 0v922h150l10 -160h6q40 75 113.5 127.5t171.5 52.5q184 0 270 -112.5t86 -346.5v-483h-170v449q0 172 -49 260t-176 88q-91 0 -154 -78.5t-88 -200.5v-518h-170zM608 1094h-94l66 317h143z" />
    <glyph glyph-name="uniE004" unicode="&#xe004;" horiz-adv-x="1497" 
d="M127 717q0 218 74 384t215.5 259.5t331.5 93.5q191 0 333 -93.5t215.5 -259.5t73.5 -384t-73.5 -384t-215.5 -259.5t-333 -93.5q-190 0 -331.5 93.5t-215.5 259.5t-74 384zM748 1292q-200 0 -313 -158t-113 -417t113 -417.5t313 -158.5q201 0 313.5 158.5t112.5 417.5
t-112.5 417t-313.5 158zM686 1536l43 285h160l-90 -285h-113z" />
    <glyph glyph-name="uniE005" unicode="&#xe005;" horiz-adv-x="1058" 
d="M528 -16q-88 0 -166 31t-137.5 89.5t-94 150.5t-34.5 206t34.5 206t94 150.5t137.5 89.5t166 31t166 -31t138.5 -89.5t95.5 -150.5t35 -206t-35 -206t-95.5 -150.5t-138.5 -89.5t-166 -31zM528 803q-123 1 -190.5 -93.5t-67.5 -248.5q0 -152 67.5 -246t190.5 -94
q124 0 192 94t68 246q0 154 -68 248t-192 94zM481 1094l64 317h143l-115 -317h-92z" />
    <glyph glyph-name="uniE006" unicode="&#xe006;" horiz-adv-x="1191" 
d="M72 125l82 143q204 -127 415 -127q149 0 243.5 72t94.5 174q0 95 -84 156t-272 104q-209 47 -313.5 140t-104.5 266q0 179 132 285t337 106q244 0 461 -121l-84 -143q-79 48 -177 80t-192 32q-141 0 -216 -70t-75 -165q0 -98 73.5 -152.5t232.5 -91.5q120 -29 202 -61.5
t144 -81t91 -116t28 -159.5q0 -83 -29 -151.5t-78 -115.5t-115.5 -79.5t-140.5 -47.5t-154 -15q-122 0 -262 38t-239 101zM553 1536l41 285h162l-92 -285h-111z" />
    <glyph glyph-name="uniE007" unicode="&#xe007;" horiz-adv-x="876" 
d="M430 -14q-203 0 -336 84l56 118q47 -33 120.5 -54t151.5 -21q83 0 132.5 34.5t49.5 90.5q0 60 -47.5 97t-165.5 73q-262 71 -262 268q0 128 92.5 196t243.5 68q179 0 297 -74l-51 -114q-37 26 -101 43.5t-135 17.5q-81 0 -131.5 -34.5t-50.5 -86.5q0 -59 38.5 -89.5
t119.5 -55.5q168 -48 243.5 -118t75.5 -183q0 -123 -97 -191.5t-243 -68.5zM410 1094l63 317h143l-114 -317h-92z" />
    <glyph glyph-name="uniE008" unicode="&#xe008;" horiz-adv-x="1294" 
d="M178 1434h957v-166l-781 -1100v-6h762v-162h-993v166l786 1102v6h-731v160zM647 1821h160l-90 -285h-111z" />
    <glyph glyph-name="uniE009" unicode="&#xe009;" horiz-adv-x="829" 
d="M76 0v133l485 662v6h-450v121h643v-138l-475 -657v-6h475v-121h-678zM399 1094l66 317h143l-114 -317h-95z" />
    <glyph glyph-name="uniE132" unicode="&#xe132;" horiz-adv-x="919" 
d="M334 -508v143h35q146 0 204 86t58 295v906h168v-916q0 -127 -20.5 -218t-68.5 -159.5t-132.5 -102.5t-208.5 -34h-35zM332 0h-170v922h170v-922zM729 1094h-108l188 317h192zM168 1094l188 317h193l-273 -317h-108z" />
    <glyph glyph-name="uniE133" unicode="&#xe133;" horiz-adv-x="1333" 
d="M571 27l27 141q28 -13 90 -25t107 -12q124 0 179.5 73t55.5 261v969h176v-969q0 -244 -93.5 -362.5t-317.5 -118.5q-54 0 -124 14t-100 29zM168 1434h184v-1434h-184v1434zM287 1536h-127l168 279h184zM1020 1536l168 279h184l-225 -279h-127z" />
    <glyph glyph-name="uniF026" unicode="&#xf026;" horiz-adv-x="1556" 
d="M82 342q0 66 22 125t54 102t86 86.5t98.5 71t110.5 64.5v4q-148 171 -148 340q0 141 94 220t238 79h338v-134h-328q-80 0 -133 -41.5t-53 -125.5q0 -59 47.5 -147t124.5 -169l389 -401h4q118 164 215 407l137 -49q-110 -280 -254 -467l297 -307h-200l-195 201h-4
q-225 -228 -502 -228q-211 0 -324.5 100.5t-113.5 268.5zM258 348q0 -107 78 -172t199 -65q206 0 385 194v4l-363 375h-4q-58 -34 -90.5 -54t-77.5 -55t-68.5 -65t-41 -72.5t-17.5 -89.5z" />
    <glyph glyph-name="uniF028" unicode="&#xf028;" horiz-adv-x="651" 
d="M393 -143q-241 369 -241 839q0 226 60.5 441.5t180.5 398.5h111q-219 -375 -219 -840q0 -464 219 -839h-111z" />
    <glyph glyph-name="uniF029" unicode="&#xf029;" horiz-adv-x="645" 
d="M221 -143h-110q219 375 219 839q0 465 -219 840h110q120 -184 181 -399t61 -441t-61 -440.5t-181 -398.5z" />
    <glyph glyph-name="uniF030" unicode="&#xf030;" horiz-adv-x="1261" 
d="M639 -14q-171 0 -293 93.5t-182 256.5t-60 381q0 217 60 381t182 258t293 94q170 0 288 -94.5t174 -257t56 -381.5t-56 -381.5t-174 -256t-288 -93.5zM295 717q0 -167 37.5 -295t116 -204.5t188.5 -76.5q113 1 188.5 77.5t108.5 202t33 296.5q0 126 -19 229t-57.5 182
t-103 122.5t-150.5 43.5q-111 0 -189.5 -77t-115.5 -205.5t-37 -294.5z" />
    <glyph glyph-name="uniF031" unicode="&#xf031;" horiz-adv-x="839" 
d="M154 1053l-76 118l385 263h119v-1434h-179v1221h-6z" />
    <glyph glyph-name="uniF032" unicode="&#xf032;" horiz-adv-x="1261" 
d="M154 127l526 553q33 35 52 55.5t54.5 66t55.5 81t36.5 84t16.5 92.5q0 123 -68 185.5t-188 62.5q-199 0 -344 -226l-127 72q31 54 72.5 102.5t101 95.5t141 75t172.5 28q200 0 314 -98t114 -291q0 -32 -6 -65t-14.5 -61t-25 -60t-29 -54.5t-35.5 -52.5t-36.5 -47
t-39.5 -45t-37 -39t-36.5 -36t-30.5 -30l-402 -419v-6h742v-150h-979v127z" />
    <glyph glyph-name="uniF033" unicode="&#xf033;" horiz-adv-x="1261" 
d="M621 -10q-146 0 -279 45.5t-217 111.5l76 129q192 -141 413 -141q159 0 243.5 70.5t86.5 204.5q0 118 -93.5 192t-240.5 74h-141v131h141q137 0 218 76.5t79 177.5q0 116 -73 175.5t-201 59.5q-106 0 -211 -46t-174 -107l-70 123q88 76 210 129t257 53q90 0 165.5 -20.5
t136.5 -63t95.5 -114.5t34.5 -167q1 -111 -60.5 -200t-154.5 -129v-6q113 -42 187.5 -133t74.5 -220q0 -88 -30 -159t-79 -116t-115.5 -75t-135.5 -42.5t-143 -12.5z" />
    <glyph glyph-name="uniF034" unicode="&#xf034;" horiz-adv-x="1212" 
d="M63 428l725 1006h146v-998h168v-143h-168v-293h-180v293h-691v135zM248 444v-8h506v703h-6z" />
    <glyph glyph-name="uniF035" unicode="&#xf035;" horiz-adv-x="1261" 
d="M600 -10q-148 0 -285 50.5t-225 117.5l74 127q208 -150 416 -150q160 0 260 97.5t100 254.5q0 154 -84 237t-227 83q-89 0 -176 -34.5t-138 -74.5l-96 60l37 676h782v-150h-643l-22 -420l6 -4q144 80 303 80q67 0 128 -13.5t120 -46.5t102 -83t69.5 -129t26.5 -179
t-31.5 -184t-84.5 -141t-122 -97t-142.5 -58.5t-147.5 -18.5z" />
    <glyph glyph-name="uniF036" unicode="&#xf036;" horiz-adv-x="1261" 
d="M643 -14q-172 0 -296 83t-185.5 226.5t-61.5 331.5q0 240 74.5 427t212 291.5t315.5 104.5q144 0 256.5 -59t178.5 -170l-115 -82q-118 166 -313 166q-123 0 -220 -78.5t-149 -204.5t-55 -274h6q44 87 142 144.5t226 57.5q117 0 211 -37.5t153 -102t90.5 -148
t31.5 -177.5q0 -102 -31 -190.5t-91 -158.5t-158 -110t-222 -40zM305 492q0 -163 96 -267t242 -104q144 0 234 95t90 255q0 161 -85 254.5t-239 93.5q-146 0 -242 -91.5t-96 -235.5z" />
    <glyph glyph-name="uniF037" unicode="&#xf037;" horiz-adv-x="1220" 
d="M909 1284h-788v150h975v-136q-219 -394 -341 -657t-251 -641h-182q67 191 127.5 342t143.5 321.5t136 273.5t180 341v6z" />
    <glyph glyph-name="uniF038" unicode="&#xf038;" horiz-adv-x="1261" 
d="M631 -18q-239 0 -388 109.5t-149 289.5q0 150 79.5 247.5t203.5 139.5q-93 41 -149 120t-56 195q0 168 128.5 270.5t330.5 102.5q201 0 330 -102.5t129 -270.5q0 -116 -56 -195t-149 -120q126 -41 204 -138.5t78 -248.5q0 -180 -148.5 -289.5t-387.5 -109.5zM631 709
q-158 0 -253.5 -83.5t-94.5 -234.5q0 -124 95 -208.5t253 -84.5t253 84.5t95 208.5q0 152 -94 235t-254 83zM346 1085q-1 -130 79.5 -192t205.5 -62q145 0 214.5 67.5t69.5 186.5q0 107 -76.5 184t-207.5 77q-132 0 -208.5 -77t-76.5 -184z" />
    <glyph glyph-name="uniF039" unicode="&#xf039;" horiz-adv-x="1261" 
d="M117 948q0 102 31 191t90.5 158.5t157.5 110t222 40.5q172 0 295.5 -82.5t184.5 -225.5t61 -331q0 -241 -74 -428t-211 -292t-315 -105q-145 0 -256.5 59t-177.5 170l115 82q118 -166 313 -166q123 0 220 79t149 205.5t55 274.5h-6q-44 -87 -143 -146t-226 -59
q-117 0 -211 37.5t-153 102t-90 148t-31 177.5zM295 963q0 -162 85 -255.5t238 -93.5q146 0 242 92t96 236q0 163 -96 267t-242 104q-144 0 -233.5 -95t-89.5 -255z" />
    <glyph glyph-name="uniF03A" unicode="&#xf03a;" horiz-adv-x="1261" 
d="M639 -14q-171 0 -293 93.5t-182 256.5t-60 381q0 217 60 381t182 258t293 94q170 0 288 -94.5t174 -257t56 -381.5t-56 -381.5t-174 -256t-288 -93.5zM295 717q0 -167 37.5 -295t116 -204.5t188.5 -76.5q113 1 188.5 77.5t108.5 202t33 296.5q0 126 -19 229t-57.5 182
t-103 122.5t-150.5 43.5q-111 0 -189.5 -77t-115.5 -205.5t-37 -294.5z" />
    <glyph glyph-name="uniF03B" unicode="&#xf03b;" horiz-adv-x="1261" 
d="M211 0v152h332v1069h-6l-244 -168l-74 118l385 263h119v-1282h332v-152h-844z" />
    <glyph glyph-name="uniF03C" unicode="&#xf03c;" horiz-adv-x="1261" 
d="M154 127l526 553q33 35 52 55.5t54.5 66t55.5 81t36.5 84t16.5 92.5q0 123 -68 185.5t-188 62.5q-199 0 -344 -226l-127 72q31 54 72.5 102.5t101 95.5t141 75t172.5 28q200 0 314 -98t114 -291q0 -32 -6 -65t-14.5 -61t-25 -60t-29 -54.5t-35.5 -52.5t-36.5 -47
t-39.5 -45t-37 -39t-36.5 -36t-30.5 -30l-402 -419v-6h742v-150h-979v127z" />
    <glyph glyph-name="uniF03D" unicode="&#xf03d;" horiz-adv-x="1261" 
d="M621 -10q-146 0 -279 45.5t-217 111.5l76 129q192 -141 413 -141q159 0 243.5 70.5t86.5 204.5q0 118 -93.5 192t-240.5 74h-141v131h141q137 0 218 76.5t79 177.5q0 116 -73 175.5t-201 59.5q-106 0 -211 -46t-174 -107l-70 123q88 76 210 129t257 53q90 0 165.5 -20.5
t136.5 -63t95.5 -114.5t34.5 -167q1 -111 -60.5 -200t-154.5 -129v-6q113 -42 187.5 -133t74.5 -220q0 -88 -30 -159t-79 -116t-115.5 -75t-135.5 -42.5t-143 -12.5z" />
    <glyph glyph-name="uniF03E" unicode="&#xf03e;" horiz-adv-x="1261" 
d="M113 293v135l725 1006h145v-998h168v-143h-168v-293h-180v293h-690zM295 444v-8h508v703h-6z" />
    <glyph glyph-name="uniF03F" unicode="&#xf03f;" horiz-adv-x="1261" 
d="M600 -10q-148 0 -285 50.5t-225 117.5l74 127q208 -150 416 -150q160 0 260 97.5t100 254.5q0 154 -84 237t-227 83q-89 0 -176 -34.5t-138 -74.5l-96 60l37 676h782v-150h-643l-22 -420l6 -4q144 80 303 80q67 0 128 -13.5t120 -46.5t102 -83t69.5 -129t26.5 -179
t-31.5 -184t-84.5 -141t-122 -97t-142.5 -58.5t-147.5 -18.5z" />
    <glyph glyph-name="uniF040" unicode="&#xf040;" horiz-adv-x="1261" 
d="M643 -14q-172 0 -296 83t-185.5 226.5t-61.5 331.5q0 240 74.5 427t212 291.5t315.5 104.5q144 0 256.5 -59t178.5 -170l-115 -82q-118 166 -313 166q-123 0 -220 -79.5t-149 -206t-55 -274.5h6q44 87 142.5 146t225.5 59q117 0 211 -37.5t153 -102t90.5 -148
t31.5 -177.5q0 -102 -31 -190.5t-91 -158.5t-158 -110t-222 -40zM305 492q0 -163 96 -267t242 -104q144 0 234 95t90 255q0 161 -85 254.5t-239 93.5q-146 0 -242 -91.5t-96 -235.5z" />
    <glyph glyph-name="uniF041" unicode="&#xf041;" horiz-adv-x="1261" 
d="M930 1284h-789v150h975v-136q-219 -394 -341 -657t-251 -641h-182q67 191 127.5 341.5t145 323.5t135 271t180.5 342v6z" />
    <glyph glyph-name="uniF042" unicode="&#xf042;" horiz-adv-x="1261" 
d="M631 -18q-239 0 -388 109.5t-149 289.5q0 150 79.5 247.5t203.5 139.5q-93 41 -149 120t-56 195q0 168 128.5 270.5t330.5 102.5q201 0 330 -102.5t129 -270.5q0 -116 -56 -195t-149 -120q126 -41 204 -138.5t78 -248.5q0 -180 -148.5 -289.5t-387.5 -109.5zM631 709
q-158 0 -253.5 -83.5t-94.5 -234.5q0 -124 95 -208.5t253 -84.5t253 84.5t95 208.5q0 152 -94 235t-254 83zM346 1085q-1 -130 79.5 -192t205.5 -62q145 0 214.5 67.5t69.5 186.5q0 107 -76.5 184t-207.5 77q-132 0 -208.5 -77t-76.5 -184z" />
    <glyph glyph-name="uniF043" unicode="&#xf043;" horiz-adv-x="1261" 
d="M117 948q0 102 31 191t90.5 158.5t157.5 110t222 40.5q172 0 295.5 -82.5t184.5 -225.5t61 -331q0 -241 -74 -428t-211 -292t-315 -105q-145 0 -256.5 59t-177.5 170l115 82q118 -166 313 -166q123 0 220 79t149 205.5t55 274.5h-6q-44 -87 -143 -146t-226 -59
q-117 0 -211 37.5t-153 102t-90 148t-31 177.5zM295 963q0 -162 85 -255.5t238 -93.5q146 0 242 92t96 236q0 163 -96 267t-242 104q-144 0 -233.5 -95t-89.5 -255z" />
    <glyph glyph-name="uniF044" unicode="&#xf044;" horiz-adv-x="1132" 
d="M567 -14q-200 0 -331.5 135t-131.5 354q0 220 132 357t331 137q209 0 335 -135.5t126 -358.5t-126 -356t-335 -133zM291 475q0 -144 76 -240t200 -96t199.5 96t75.5 240q0 145 -75.5 242.5t-199.5 97.5q-123 0 -199.5 -98.5t-76.5 -241.5z" />
    <glyph glyph-name="uniF045" unicode="&#xf045;" horiz-adv-x="692" 
d="M104 823v125l379 21v-969h-178v834z" />
    <glyph glyph-name="uniF046" unicode="&#xf046;" horiz-adv-x="1026" 
d="M109 0v139l419 287q40 28 65 48t54 50t43.5 64.5t14.5 73.5q0 75 -56.5 122t-140.5 47q-93 0 -171 -59t-124 -143l-102 88q62 110 169.5 184t254.5 74q164 0 259 -88.5t95 -212.5q0 -47 -14 -90t-34.5 -74.5t-53.5 -63.5t-60 -52.5t-65 -45.5l-281 -194v-7h537v-147h-809
z" />
    <glyph glyph-name="uniF047" unicode="&#xf047;" horiz-adv-x="1087" 
d="M514 -303q-253 0 -428 137l74 123q80 -56 162.5 -84.5t187.5 -28.5q132 0 211.5 59t79.5 183q1 108 -85.5 162.5t-230.5 54.5h-137v121h137q133 0 208 57.5t73 151.5q0 91 -61.5 139.5t-167.5 48.5q-169 0 -328 -131l-72 121q89 75 186.5 118.5t223.5 43.5q82 0 150 -17
t123 -53t85.5 -98t30.5 -146q0 -106 -54 -170.5t-151 -107.5v-6q113 -29 182.5 -102.5t69.5 -202.5q-1 -87 -33 -155t-80.5 -108t-113 -65.5t-123.5 -35t-119 -9.5z" />
    <glyph glyph-name="uniF048" unicode="&#xf048;" horiz-adv-x="1028" 
d="M31 106l626 857h146v-852h168v-134h-168v-278h-178v278h-594v129zM205 119v-8h420v573h-7z" />
    <glyph glyph-name="uniF049" unicode="&#xf049;" horiz-adv-x="1075" 
d="M526 -311q-265 0 -475 168l74 125q55 -38 81 -55t79 -44.5t106 -39t113 -11.5q144 0 223.5 76t79.5 229q0 148 -74 216.5t-196 68.5q-143 0 -261 -88l-96 67l31 562h713v-140h-578l-16 -342l6 -4q4 2 26.5 14t28 14.5t25.5 12t29 12.5t28.5 9t34.5 8t35.5 4t42.5 2
q60 0 114 -10.5t109.5 -39t95.5 -74t65 -121t25 -173.5q0 -100 -27.5 -179t-72 -128t-106.5 -81t-126.5 -45t-136.5 -13z" />
    <glyph glyph-name="uniF04A" unicode="&#xf04a;" horiz-adv-x="1075" 
d="M549 -14q-230 0 -348.5 154t-118.5 423q0 154 30 278.5t79.5 206t117 137t138.5 79.5t147 24q122 0 208 -33t171 -90l-88 -118q-51 33 -79.5 48.5t-83.5 31.5t-116 16q-145 0 -241 -133t-99 -367h6q37 58 117 100.5t182 42.5q188 0 295 -111.5t107 -275.5
q0 -86 -25.5 -159.5t-76 -131t-133 -90t-189.5 -32.5zM289 403q0 -133 72 -211.5t188 -78.5q107 0 177.5 74t70.5 202q0 122 -67 199.5t-181 77.5q-108 0 -184 -71t-76 -192z" />
    <glyph glyph-name="uniF04B" unicode="&#xf04b;" horiz-adv-x="1024" 
d="M748 813h-652v150h838v-136q-213 -361 -314 -579.5t-204 -575.5h-185q45 150 92.5 278t83 214t102.5 213.5t104 193t135 236.5v6z" />
    <glyph glyph-name="uniF04C" unicode="&#xf04c;" horiz-adv-x="1132" 
d="M82 334q0 247 258 338q-182 87 -182 268q0 144 110 236t297 92q188 0 299 -92t111 -236q0 -184 -176 -268q252 -86 252 -338q0 -168 -130 -260t-356 -92q-224 0 -353.5 92t-129.5 260zM565 606q-136 0 -217.5 -72.5t-79.5 -189.5q0 -112 78 -176.5t219 -63.5
q146 0 222.5 63.5t76.5 176.5q0 118 -81 190t-218 72zM330 942q-1 -100 65.5 -150.5t169.5 -50.5q104 0 171 50.5t67 150.5q0 96 -64 152.5t-174 56.5q-108 0 -170.5 -56.5t-64.5 -152.5z" />
    <glyph glyph-name="uniF04D" unicode="&#xf04d;" horiz-adv-x="1075" 
d="M102 -201l86 121q50 -32 80.5 -49t84.5 -32t116 -15q144 0 240.5 133.5t97.5 366.5h-6q-38 -59 -117 -102.5t-180 -43.5q-188 0 -295 111.5t-107 275.5q0 179 111 296.5t319 117.5q231 0 346 -153t115 -423q0 -153 -30 -278t-80 -206.5t-117.5 -137t-138.5 -79.5
t-146 -24q-123 0 -210.5 32.5t-168.5 88.5zM279 578q0 -122 66.5 -199.5t178.5 -77.5q109 0 185.5 70t76.5 192q0 134 -69.5 211.5t-184.5 77.5q-107 0 -180 -74t-73 -200z" />
    <glyph glyph-name="uniF04E" unicode="&#xf04e;" horiz-adv-x="1087" 
d="M545 -14q-205 0 -338 134.5t-133 354.5t133 357t338 137q214 0 341.5 -135t127.5 -359q0 -223 -127 -356t-342 -133zM260 475q0 -144 78.5 -240t206.5 -96q129 0 205.5 95.5t76.5 240.5q0 146 -76 243t-206 97q-127 0 -206 -98.5t-79 -241.5z" />
    <glyph glyph-name="uniF04F" unicode="&#xf04f;" horiz-adv-x="1087" 
d="M166 0v147h299v687l-246 -11v125l424 21v-822h283v-147h-760z" />
    <glyph glyph-name="uniF050" unicode="&#xf050;" horiz-adv-x="1087" 
d="M106 139l441 287q82 54 129 108.5t47 127.5q0 75 -57.5 122t-141.5 47q-92 0 -169.5 -58.5t-125.5 -143.5l-100 88q39 69 94 124t141.5 94.5t186.5 39.5q164 0 259 -88.5t95 -212.5q0 -58 -19 -108.5t-54.5 -90.5t-71 -69t-82.5 -58l-295 -194v-7h582v-147h-859v139z" />
    <glyph glyph-name="uniF051" unicode="&#xf051;" horiz-adv-x="1087" 
d="M512 -303q-253 0 -428 137l74 123q81 -56 163 -84.5t189 -28.5q130 0 210 59t81 183q0 108 -86.5 162.5t-231.5 54.5h-135v121h135q133 0 208 57.5t73 151.5q0 91 -61.5 139.5t-167.5 48.5q-169 0 -328 -131l-72 121q91 75 187.5 118.5t222.5 43.5q82 0 150 -17t123 -53
t85.5 -98t30.5 -146q0 -106 -53.5 -170.5t-149.5 -107.5v-6q112 -29 181 -103t69 -202q0 -87 -32 -155t-80.5 -108t-113.5 -65.5t-124 -35t-119 -9.5z" />
    <glyph glyph-name="uniF052" unicode="&#xf052;" horiz-adv-x="1087" 
d="M78 -23v129l629 857h145v-850h172v-136h-172v-278h-180v278h-594zM256 121v-8h416v571h-6z" />
    <glyph glyph-name="uniF053" unicode="&#xf053;" horiz-adv-x="1087" 
d="M524 -311q-265 0 -475 168l76 125q57 -40 81 -55.5t77.5 -43.5t106 -39.5t112.5 -11.5q147 0 233 76.5t86 228.5q0 147 -80.5 218t-205.5 71q-152 0 -275 -92l-96 67l31 562h743v-140h-608l-17 -342l6 -4q51 27 78 39.5t79.5 25.5t107.5 13q61 0 116 -10.5t113 -39.5
t100 -74.5t68.5 -121.5t26.5 -174q0 -100 -29 -179t-75.5 -128t-111 -81t-130.5 -45t-138 -13z" />
    <glyph glyph-name="uniF054" unicode="&#xf054;" horiz-adv-x="1087" 
d="M559 -14q-232 0 -350.5 154t-118.5 423q0 153 30 278t80 206.5t117.5 137t138.5 79.5t146 24q123 0 209.5 -33t171.5 -90l-88 -118q-51 33 -79.5 48.5t-84 31.5t-117.5 16q-143 0 -239 -133t-99 -367h7q37 58 117 100.5t182 42.5q187 0 294 -112t107 -275
q0 -86 -25.5 -159.5t-76 -131t-133 -90t-189.5 -32.5zM299 403q0 -133 72 -211.5t188 -78.5q107 0 177.5 74t70.5 202q0 122 -67 199.5t-181 77.5q-108 0 -184 -71t-76 -192z" />
    <glyph glyph-name="uniF055" unicode="&#xf055;" horiz-adv-x="1087" 
d="M795 813h-713v150h901v-136q-144 -243 -221 -389t-151 -330.5t-148 -435.5h-184q46 150 93.5 278t83 213.5t102.5 213.5t103 193t134 237v6z" />
    <glyph glyph-name="uniF056" unicode="&#xf056;" horiz-adv-x="1087" 
d="M545 -18q-216 0 -343 92.5t-126 259.5q0 127 65.5 211t175.5 127q-182 87 -182 268q0 144 111 236t299 92q187 0 297 -92t110 -236q0 -184 -176 -268q238 -89 238 -338q0 -167 -127 -259.5t-342 -92.5zM545 606q-127 0 -206.5 -73t-78.5 -189q0 -111 76.5 -176t208.5 -64
q135 0 208.5 64t73.5 176q0 117 -78.5 189.5t-203.5 72.5zM307 942q0 -100 67 -150.5t171 -50.5q103 0 169 50.5t66 150.5q0 96 -63.5 152.5t-171.5 56.5q-109 0 -172.5 -56.5t-65.5 -152.5z" />
    <glyph glyph-name="uniF057" unicode="&#xf057;" horiz-adv-x="1087" 
d="M104 -201l89 121q50 -33 80 -49.5t84.5 -31.5t115.5 -15q144 0 240.5 133.5t97.5 366.5h-6q-38 -59 -117.5 -102.5t-179.5 -43.5q-126 0 -219.5 54t-139 140.5t-45.5 192.5q0 86 27 160t79 131t136 90t191 33q231 0 345.5 -153t114.5 -423q0 -153 -30 -278t-80 -206.5
t-117.5 -137t-138.5 -79.5t-146 -24q-123 0 -210.5 32.5t-170.5 88.5zM283 578q0 -122 66.5 -199.5t178.5 -77.5q109 0 186 70t77 192q0 134 -69.5 211.5t-184.5 77.5q-107 0 -180.5 -74t-73.5 -200z" />
    <glyph glyph-name="uniF063" unicode="&#xf063;" horiz-adv-x="1935" 
d="M539 -14q-88 0 -166 30.5t-139 88t-96.5 149.5t-35.5 207q0 207 115.5 342t319.5 135q77 0 129 -14l2 4q-63 73 -107.5 173.5t-44.5 186.5q0 116 77.5 188t213.5 72q67 0 193 -6t182 -6v-768h6q41 73 111.5 123.5t164.5 50.5q184 0 269.5 -112.5t85.5 -346.5v-483h-168
v449q0 83 -10.5 144t-35.5 108.5t-70.5 71.5t-111.5 24q-91 0 -153 -78t-88 -201v-518h-170v1438q-9 0 -86 5t-123 5q-84 0 -125 -45.5t-41 -124.5q0 -181 194 -414l-53 -112q-79 57 -211 57q-94 0 -161.5 -48.5t-98.5 -125t-31 -172.5q0 -151 81 -247.5t212 -96.5
q68 0 132.5 18t103.5 45l51 -112q-133 -84 -317 -84z" />
    <glyph glyph-name="uniF064" unicode="&#xf064;" horiz-adv-x="1847" 
d="M539 -14q-88 0 -166 30.5t-139 88t-96.5 149.5t-35.5 207q0 207 115.5 342t319.5 135q77 0 129 -14l2 4q-63 73 -107.5 173.5t-44.5 186.5q0 116 77.5 188t213.5 72q67 0 193 -6t182 -6v-1049h6l389 435h178l-321 -359l335 -563h-186l-258 440l-143 -159v-281h-170v1438
q-9 0 -86 5t-123 5q-84 0 -125 -45.5t-41 -124.5q0 -180 194 -414l-53 -112q-79 57 -211 57q-94 0 -161.5 -48.5t-98.5 -125t-31 -172.5q0 -151 81 -247.5t212 -96.5q68 0 132.5 18t103.5 45l51 -112q-133 -84 -317 -84z" />
    <glyph glyph-name="uniF065" unicode="&#xf065;" horiz-adv-x="1593" 
d="M539 -14q-88 0 -166 30.5t-139 88t-96.5 149.5t-35.5 207q0 207 115.5 342t319.5 135q63 0 118 -12v4q-143 132 -143 278q0 107 76.5 172.5t199.5 65.5q92 0 257 -56t217 -59v-409h256v-125h-250v-488q0 -60 11 -102t31 -63t42 -29.5t51 -8.5q63 0 108 35v-98
q-20 -20 -73 -36.5t-95 -16.5q-245 0 -245 297v510h-117v98l127 27v323q-20 7 -83 34t-120 44.5t-106 17.5q-162 0 -162 -153q0 -34 8 -64.5t32.5 -68t38 -56t56.5 -69t57 -66.5l-51 -112q-79 57 -211 57q-94 0 -161.5 -48.5t-98.5 -125t-31 -172.5q0 -151 81 -247.5
t212 -96.5q68 0 132.5 18t103.5 45l51 -112q-133 -84 -317 -84z" />
    <glyph glyph-name="uniF066" unicode="&#xf066;" horiz-adv-x="1923" 
d="M94 70l56 118q47 -33 120.5 -54t151.5 -21q83 0 132.5 34.5t49.5 90.5q0 60 -47.5 97t-165.5 73q-262 71 -262 268q0 128 92.5 196t243.5 68q63 0 131 -14l2 2q-64 75 -108 175t-44 185q0 118 81 189t218 71q69 0 218 -6t206 -6v-768h7q39 73 109.5 123.5t166.5 50.5
q184 0 269 -112.5t85 -346.5v-483h-168v449q0 172 -50 260t-177 88q-91 0 -154 -78.5t-88 -200.5v-518h-170v1438q-16 1 -69.5 3.5t-104.5 4.5t-86 2q-84 0 -128 -45.5t-44 -124.5q0 -103 52.5 -203t142.5 -209l-51 -114q-37 26 -101 43.5t-135 17.5q-81 0 -131.5 -34.5
t-50.5 -86.5q0 -59 38.5 -89.5t119.5 -55.5q168 -48 243.5 -118t75.5 -183q0 -123 -97 -191.5t-243 -68.5q-203 0 -336 84z" />
    <glyph glyph-name="uniF067" unicode="&#xf067;" horiz-adv-x="1835" 
d="M94 70l56 118q47 -33 120.5 -54t151.5 -21q83 0 132.5 34.5t49.5 90.5q0 60 -47.5 97t-165.5 73q-262 71 -262 268q0 128 92.5 196t243.5 68q63 0 131 -14l2 2q-64 75 -108 175t-44 185q0 118 81 189t218 71q69 0 218 -6t206 -6v-1049h7l387 435h180l-322 -359l336 -563
h-186l-258 440l-144 -159v-281h-170v1438q-16 1 -69.5 3.5t-104.5 4.5t-86 2q-84 0 -128 -45.5t-44 -124.5q0 -103 52.5 -203t142.5 -209l-51 -114q-37 26 -101 43.5t-135 17.5q-81 0 -131.5 -34.5t-50.5 -86.5q0 -59 38.5 -89.5t119.5 -55.5q168 -48 243.5 -118t75.5 -183
q0 -123 -97 -191.5t-243 -68.5q-203 0 -336 84z" />
    <glyph glyph-name="uniF068" unicode="&#xf068;" horiz-adv-x="1056" 
d="M96 414q0 116 39 215t106 166t156.5 105t188.5 38q122 0 334 -33v-680q0 -164 20 -225h-172q-12 49 -12 160h-6q-98 -176 -287 -176q-74 0 -138 25t-116.5 75t-82.5 135t-30 195zM268 426q0 -144 64 -227.5t178 -83.5q72 0 128 52.5t83 125.5t27 147v353q-108 16 -164 16
q-97 0 -170.5 -55t-109.5 -141t-36 -187z" />
    <glyph glyph-name="uniF069" unicode="&#xf069;" horiz-adv-x="1056" 
d="M463 -16q-74 0 -138 25t-116.5 75t-82.5 135t-30 195q0 116 39 215t106 166t156.5 105t188.5 38q122 0 334 -33v-680q0 -164 20 -225h-172q-12 49 -12 160h-6q-98 -176 -287 -176zM584 809q-97 0 -170.5 -55t-109.5 -141t-36 -187q0 -144 64 -227.5t178 -83.5
q72 0 128 52.5t83 125.5t27 147v353q-108 16 -164 16zM285 1411h192l191 -317h-109z" />
    <glyph glyph-name="uniF06A" unicode="&#xf06a;" horiz-adv-x="1056" 
d="M463 -16q-74 0 -138 25t-116.5 75t-82.5 135t-30 195q0 116 39 215t106 166t156.5 105t188.5 38q122 0 334 -33v-680q0 -164 20 -225h-172q-12 49 -12 160h-6q-98 -176 -287 -176zM584 809q-97 0 -170.5 -55t-109.5 -141t-36 -187q0 -144 64 -227.5t178 -83.5
q72 0 128 52.5t83 125.5t27 147v353q-108 16 -164 16zM510 1094l188 317h193l-273 -317h-108z" />
    <glyph glyph-name="uniF06B" unicode="&#xf06b;" horiz-adv-x="1056" 
d="M96 414q0 116 39 215t106 166t156.5 105t188.5 38q122 0 334 -33v-680q0 -164 20 -225h-172q-12 49 -12 160h-6q-98 -176 -287 -176q-74 0 -138 25t-116.5 75t-82.5 135t-30 195zM584 809q-97 0 -170.5 -55t-109.5 -141t-36 -187q0 -144 64 -227.5t178 -83.5
q72 0 128 52.5t83 125.5t27 147v353q-108 16 -164 16zM279 1087l231 318h147l232 -318h-113l-188 213h-6l-191 -213h-112z" />
    <glyph glyph-name="uniF06C" unicode="&#xf06c;" horiz-adv-x="1056" 
d="M96 414q0 116 39 215t106 166t156.5 105t188.5 38q122 0 334 -33v-680q0 -164 20 -225h-172q-12 49 -12 160h-6q-98 -176 -287 -176q-74 0 -138 25t-116.5 75t-82.5 135t-30 195zM584 809q-97 0 -170.5 -55t-109.5 -141t-36 -187q0 -144 64 -227.5t178 -83.5
q72 0 128 52.5t83 125.5t27 147v353q-108 16 -164 16zM346 1118h-100q14 88 62 148.5t136 60.5q46 0 83 -20t57 -43.5t48 -43.5t58 -20q47 0 72 34t33 79h100q-8 -84 -61 -147.5t-142 -63.5q-38 0 -69.5 12.5t-52 31t-39 36.5t-40.5 30.5t-47 12.5q-79 0 -98 -107z" />
    <glyph glyph-name="uniF06D" unicode="&#xf06d;" horiz-adv-x="1056" 
d="M463 -16q-74 0 -138 25t-116.5 75t-82.5 135t-30 195q0 116 39 215t106 166t156.5 105t188.5 38q122 0 334 -33v-680q0 -164 20 -225h-172q-12 49 -12 160h-6q-98 -176 -287 -176zM268 426q0 -144 64 -227.5t178 -83.5q72 0 128 52.5t83 125.5t27 147v353
q-108 16 -164 16q-97 0 -170.5 -55t-109.5 -141t-36 -187zM764 1112q-44 0 -77.5 33.5t-33.5 77.5t33.5 77t77.5 33t77 -33t33 -77t-33 -77.5t-77 -33.5zM416 1112q-45 0 -78 33t-33 78t32.5 77.5t78.5 32.5q44 0 76 -33t32 -77q0 -45 -32 -78t-76 -33z" />
    <glyph glyph-name="uniF06E" unicode="&#xf06e;" horiz-adv-x="1056" 
d="M463 -16q-74 0 -138 25t-116.5 75t-82.5 135t-30 195q0 116 39 215t106 166t156.5 105t188.5 38q122 0 334 -33v-680q0 -164 20 -225h-172q-12 49 -12 160h-6q-98 -176 -287 -176zM268 426q0 -144 64 -227.5t178 -83.5q72 0 128 52.5t83 125.5t27 147v353
q-108 16 -164 16q-97 0 -170.5 -55t-109.5 -141t-36 -187zM377 1180q0 103 64 160t155 57t156 -57t65 -160q0 -102 -64.5 -158.5t-156.5 -56.5t-155.5 56.5t-63.5 158.5zM477 1180q0 -57 32.5 -91t86.5 -34t87.5 34.5t33.5 90.5q0 57 -33.5 93t-87.5 36t-86.5 -36t-32.5 -93
z" />
    <glyph glyph-name="uniF06F" unicode="&#xf06f;" horiz-adv-x="1056" 
d="M463 -16q-74 0 -138 25t-116.5 75t-82.5 135t-30 195q0 116 39 215t106 166t156.5 105t188.5 38q122 0 334 -33v-680q0 -164 20 -225h-172q-12 49 -12 160h-6q-98 -176 -287 -176zM584 809q-97 0 -170.5 -55t-109.5 -141t-36 -187q0 -144 64 -227.5t178 -83.5
q72 0 128 52.5t83 125.5t27 147v353q-108 16 -164 16zM885 1104h-580v80h580v-80z" />
    <glyph glyph-name="uniF070" unicode="&#xf070;" horiz-adv-x="1056" 
d="M96 414q0 116 39 215t106 166t156.5 105t188.5 38q122 0 334 -33v-680q0 -164 20 -225h-172q-12 49 -12 160h-6q-98 -176 -287 -176q-74 0 -138 25t-116.5 75t-82.5 135t-30 195zM584 809q-97 0 -170.5 -55t-109.5 -141t-36 -187q0 -144 64 -227.5t178 -83.5
q72 0 128 52.5t83 125.5t27 147v353q-108 16 -164 16zM573 1061q-112 0 -193.5 67t-94.5 207h127q11 -77 52 -123.5t109 -46.5q69 0 110 46.5t52 123.5h127q-13 -140 -95 -207t-194 -67z" />
    <glyph glyph-name="uniF071" unicode="&#xf071;" horiz-adv-x="1056" 
d="M463 -16q-74 0 -138 25t-116.5 75t-82.5 135t-30 195q0 116 39 215t106 166t156.5 105t188.5 38q122 0 334 -33v-680q0 -164 20 -225h-12q-42 0 -85.5 -52t-43.5 -112q0 -38 19.5 -56t45.5 -18q32 0 54 15v-82q-32 -19 -78 -19q-62 0 -104 34.5t-42 105.5q0 100 107 184
h-33q-12 49 -12 160h-6q-98 -176 -287 -176zM268 426q0 -144 64 -227.5t178 -83.5q72 0 128 52.5t83 125.5t27 147v353q-108 16 -164 16q-97 0 -170.5 -55t-109.5 -141t-36 -187z" />
    <glyph glyph-name="uniF072" unicode="&#xf072;" horiz-adv-x="1056" 
d="M96 414q0 116 39 215t106 166t156.5 105t188.5 38q122 0 334 -33v-680q0 -164 20 -225h-172q-12 49 -12 160h-6q-98 -176 -287 -176q-74 0 -138 25t-116.5 75t-82.5 135t-30 195zM584 809q-97 0 -170.5 -55t-109.5 -141t-36 -187q0 -144 64 -227.5t178 -83.5
q72 0 128 52.5t83 125.5t27 147v353q-108 16 -164 16zM600 954q-85 0 -145 52.5t-60 148.5t60 149.5t145 53.5q27 0 51 -6l123 207h174l-217 -250q76 -52 76 -154q0 -96 -60.5 -148.5t-146.5 -52.5zM487 1155q0 -54 31 -86.5t82 -32.5q50 0 82.5 33t32.5 86q0 52 -32.5 86.5
t-82.5 34.5q-51 0 -82 -33.5t-31 -87.5z" />
    <glyph glyph-name="uniF073" unicode="&#xf073;" horiz-adv-x="1056" 
d="M463 -16q-74 0 -138 25t-116.5 75t-82.5 135t-30 195q0 116 39 215t106 166t156.5 105t188.5 38q122 0 334 -33v-680q0 -164 20 -225h-172q-12 49 -12 160h-6q-98 -176 -287 -176zM584 809q-97 0 -170.5 -55t-109.5 -141t-36 -187q0 -144 64 -227.5t178 -83.5
q72 0 128 52.5t83 125.5t27 147v353q-108 16 -164 16zM537 -342q-45 0 -78 34t-33 77q0 46 32.5 78t78.5 32q44 0 76 -32t32 -78q0 -43 -32 -77t-76 -34z" />
    <glyph glyph-name="uniF074" unicode="&#xf074;" horiz-adv-x="1056" 
d="M457 -508q-99 0 -203.5 25t-159.5 59l58 129q46 -33 130.5 -55.5t163.5 -22.5q306 0 306 424v109h-7q-93 -176 -282 -176q-74 0 -138 25t-116.5 75t-82.5 135t-30 195q0 116 39 215t106 166t156.5 105t188.5 38q122 0 334 -33v-854q0 -96 -14.5 -177t-48.5 -153
t-86.5 -121.5t-132 -78.5t-181.5 -29zM268 426q0 -144 64 -227.5t178 -83.5q72 0 128 52.5t83 125.5t27 147v353q-108 16 -164 16q-97 0 -170.5 -55t-109.5 -141t-36 -187z" />
    <glyph glyph-name="uniF075" unicode="&#xf075;" horiz-adv-x="1056" 
d="M94 -424l58 129q46 -33 130.5 -55.5t163.5 -22.5q306 0 306 424v109h-7q-93 -176 -282 -176q-74 0 -138 25t-116.5 75t-82.5 135t-30 195q0 116 39 215t106 166t156.5 105t188.5 38q122 0 334 -33v-854q0 -96 -14.5 -177t-48.5 -153t-86.5 -121.5t-132 -78.5t-181.5 -29
q-99 0 -203.5 25t-159.5 59zM268 426q0 -144 64 -227.5t178 -83.5q72 0 128 52.5t83 125.5t27 147v353q-108 16 -164 16q-97 0 -170.5 -55t-109.5 -141t-36 -187zM371 1087h-113l231 318h146l233 -318h-112l-191 213h-6z" />
    <glyph glyph-name="uniF076" unicode="&#xf076;" horiz-adv-x="1056" 
d="M457 -508q-99 0 -203.5 25t-159.5 59l58 129q46 -33 130.5 -55.5t163.5 -22.5q306 0 306 424v109h-7q-93 -176 -282 -176q-74 0 -138 25t-116.5 75t-82.5 135t-30 195q0 116 39 215t106 166t156.5 105t188.5 38q122 0 334 -33v-854q0 -96 -14.5 -177t-48.5 -153
t-86.5 -121.5t-132 -78.5t-181.5 -29zM584 809q-97 0 -170.5 -55t-109.5 -141t-36 -187q0 -144 64 -227.5t178 -83.5q72 0 128 52.5t83 125.5t27 147v353q-108 16 -164 16zM565 1061q-112 0 -195 67t-96 207h129q9 -77 51 -123.5t111 -46.5t110 46.5t50 123.5h129
q-13 -140 -95 -207t-194 -67z" />
    <glyph glyph-name="uniF077" unicode="&#xf077;" horiz-adv-x="1056" 
d="M94 -424l58 129q46 -33 130.5 -55.5t163.5 -22.5q306 0 306 424v109h-7q-93 -176 -282 -176q-74 0 -138 25t-116.5 75t-82.5 135t-30 195q0 116 39 215t106 166t156.5 105t188.5 38q122 0 334 -33v-854q0 -96 -14.5 -177t-48.5 -153t-86.5 -121.5t-132 -78.5t-181.5 -29
q-99 0 -203.5 25t-159.5 59zM268 426q0 -144 64 -227.5t178 -83.5q72 0 128 52.5t83 125.5t27 147v353q-108 16 -164 16q-97 0 -170.5 -55t-109.5 -141t-36 -187zM451 1223q0 45 32.5 77.5t77.5 32.5q44 0 76.5 -33t32.5 -77t-32.5 -77.5t-76.5 -33.5q-45 0 -77.5 33
t-32.5 78z" />
    <glyph glyph-name="uniF078" unicode="&#xf078;" horiz-adv-x="1056" 
d="M94 -424l58 129q46 -33 130.5 -55.5t163.5 -22.5q306 0 306 424v109h-7q-93 -176 -282 -176q-74 0 -138 25t-116.5 75t-82.5 135t-30 195q0 116 39 215t106 166t156.5 105t188.5 38q122 0 334 -33v-854q0 -96 -14.5 -177t-48.5 -153t-86.5 -121.5t-132 -78.5t-181.5 -29
q-99 0 -203.5 25t-159.5 59zM584 809q-97 0 -170.5 -55t-109.5 -141t-36 -187q0 -144 64 -227.5t178 -83.5q72 0 128 52.5t83 125.5t27 147v353q-108 16 -164 16zM463 1087q-21 117 47 207.5t180 104.5v-86q-58 -21 -87.5 -76.5t-12.5 -149.5h-127z" />
    <glyph glyph-name="uniF079" unicode="&#xf079;" horiz-adv-x="1056" 
d="M457 -508q-99 0 -203.5 25t-159.5 59l58 129q46 -33 130.5 -55.5t163.5 -22.5q306 0 306 424v109h-7q-93 -176 -282 -176q-74 0 -138 25t-116.5 75t-82.5 135t-30 195q0 116 39 215t106 166t156.5 105t188.5 38q122 0 334 -33v-854q0 -96 -14.5 -177t-48.5 -153
t-86.5 -121.5t-132 -78.5t-181.5 -29zM268 426q0 -144 64 -227.5t178 -83.5q72 0 128 52.5t83 125.5t27 147v353q-108 16 -164 16q-97 0 -170.5 -55t-109.5 -141t-36 -187zM266 1405h111l190 -213h6l189 213h112l-231 -318h-145z" />
    <glyph glyph-name="uniF636" unicode="&#xf636;" horiz-adv-x="823" 
d="M221 930h-88q32 90 57 224t25 280h129q0 -145 -37.5 -278t-85.5 -226zM465 940q82 230 82 494h129q0 -252 -121 -494h-90z" />
    <glyph glyph-name="uniF637" unicode="&#xf637;" horiz-adv-x="491" 
d="M221 940h-88q82 230 82 494h129q0 -258 -123 -494z" />
    <glyph glyph-name="uniF638" unicode="&#xf638;" horiz-adv-x="491" 
d="M246 940h-129q0 258 123 494h88q-82 -230 -82 -494z" />
    <glyph glyph-name="uniF639" unicode="&#xf639;" horiz-adv-x="491" 
d="M221 940h-88q82 230 82 494h129q0 -258 -123 -494z" />
    <glyph glyph-name="uniF63A" unicode="&#xf63a;" horiz-adv-x="823" 
d="M580 940h-129q0 146 36.5 279.5t83.5 224.5h91q-32 -90 -57 -224t-25 -280zM246 940h-129q0 258 123 494h88q-82 -230 -82 -494z" />
    <glyph glyph-name="uniF63B" unicode="&#xf63b;" horiz-adv-x="823" 
d="M221 930h-88q32 90 57 224t25 280h129q0 -145 -37.5 -278t-85.5 -226zM465 940q82 230 82 494h129q0 -252 -121 -494h-90z" />
    <glyph glyph-name="uniF63C" unicode="&#xf63c;" horiz-adv-x="935" 
d="M733 236l-360 413v37l362 410h86l-362 -414v-18l362 -428h-88zM115 649v37l364 410h86l-364 -414v-18l364 -428h-88z" />
    <glyph glyph-name="uniF63D" unicode="&#xf63d;" horiz-adv-x="935" 
d="M705 682l-365 414h86l365 -410v-37l-363 -413h-88l365 428v18zM84 236l362 428v18l-362 414h86l362 -410v-37l-360 -413h-88z" />
    <glyph glyph-name="uniF63E" unicode="&#xf63e;" horiz-adv-x="677" 
d="M201 664l364 -428h-88l-362 413v37l364 410h86l-364 -414v-18z" />
    <glyph glyph-name="uniF63F" unicode="&#xf63f;" horiz-adv-x="677" 
d="M84 236l362 428v18l-362 414h86l362 -410v-37l-360 -413h-88z" />
    <glyph glyph-name="uniF640" unicode="&#xf640;" horiz-adv-x="487" 
d="M127 1073q0 49 34.5 84t84.5 35q46 0 80 -35t34 -84q0 -47 -34 -82t-80 -35q-49 0 -84 34.5t-35 82.5zM127 367q0 49 34.5 83.5t84.5 34.5q46 0 80 -34.5t34 -83.5q0 -47 -34 -82t-80 -35q-49 0 -84 34.5t-35 82.5z" />
    <glyph glyph-name="uniF641" unicode="&#xf641;" horiz-adv-x="495" 
d="M117 1536h323v-76h-211v-1528h211v-75h-323v1679z" />
    <glyph glyph-name="uniF642" unicode="&#xf642;" horiz-adv-x="495" 
d="M348 -143h-323v75h213v1528h-213v76h323v-1679z" />
    <glyph glyph-name="uniF643" unicode="&#xf643;" horiz-adv-x="495" 
d="M125 -2l37 967h104l37 -967h-178zM211 1210q-48 0 -82.5 35t-34.5 84q0 46 35 81.5t82 35.5q49 0 84 -35.5t35 -81.5q0 -49 -35 -84t-84 -35z" />
    <glyph glyph-name="uniF644" unicode="&#xf644;" horiz-adv-x="966" 
d="M475 -18q-189 0 -300.5 93t-111.5 255q0 65 17.5 118.5t51 95.5t64.5 71.5t76.5 66.5t67.5 59q65 64 94 129t29 144h168q3 -95 -29.5 -178.5t-126.5 -184.5q-20 -22 -66 -61.5t-78.5 -69.5t-59.5 -80t-27 -106q0 -101 72.5 -157t175.5 -56q146 0 321 106l72 -123
q-99 -58 -191 -90t-219 -32zM537 1212q-46 0 -80.5 35t-34.5 84q0 46 34.5 81.5t80.5 35.5q49 0 83.5 -35t34.5 -82q0 -50 -34.5 -84.5t-83.5 -34.5z" />
    <glyph glyph-name="uniF645" unicode="&#xf645;" horiz-adv-x="731" 
d="M109 621v106q89 0 143.5 62t54.5 165v340q0 115 80.5 178.5t237.5 63.5v-76q-203 0 -203 -186v-332q0 -97 -50.5 -171.5t-152.5 -96.5q102 -22 152.5 -96.5t50.5 -171.5v-287q0 -187 203 -187v-75q-157 0 -237.5 63t-80.5 178v297q0 102 -55 164t-143 62z" />
    <glyph glyph-name="uniF646" unicode="&#xf646;" horiz-adv-x="731" 
d="M76 -143v75q203 0 203 187v287q0 98 50 172t154 96q-104 22 -154 96t-50 172v332q0 186 -203 186v76q157 0 237 -63.5t80 -178.5v-340q0 -103 56 -165t143 -62v-106q-87 0 -143 -62t-56 -164v-297q0 -115 -80 -178t-237 -63z" />
    <glyph glyph-name="uniF647" unicode="&#xf647;" horiz-adv-x="780" 
d="M82 1815h182l168 -279h-127z" />
    <glyph glyph-name="uniF648" unicode="&#xf648;" horiz-adv-x="872" 
d="M645 1567q-47 0 -81 33t-34 79q0 47 34 81t81 34q46 0 79.5 -34t33.5 -81q0 -46 -33.5 -79t-79.5 -33zM115 1679q0 47 33.5 81t80.5 34q45 0 79 -34t34 -81q0 -45 -34 -78.5t-79 -33.5q-47 0 -80.5 33t-33.5 79z" />
    <glyph glyph-name="uniF649" unicode="&#xf649;" horiz-adv-x="1019" 
d="M135 1595v80h756v-80h-756z" />
    <glyph glyph-name="uniF64A" unicode="&#xf64a;" horiz-adv-x="780" 
d="M510 1815h184l-223 -279h-127z" />
    <glyph glyph-name="uniF64B" unicode="&#xf64b;" horiz-adv-x="552" 
d="M106 1536h-133l232 264h143l230 -264h-132l-165 160h-9z" />
    <glyph glyph-name="uniF64C" unicode="&#xf64c;" horiz-adv-x="552" 
d="M-27 1800h133l166 -160h9l165 160h132l-230 -264h-143z" />
    <glyph glyph-name="uniF64D" unicode="&#xf64d;" horiz-adv-x="1058" 
d="M528 1499q-52 0 -99.5 13t-93 41t-76 82t-36.5 128h133q9 -74 55.5 -115.5t116.5 -41.5q73 0 119 41.5t55 115.5h134q-6 -74 -36.5 -128t-76.5 -82t-94 -41t-101 -13z" />
    <glyph glyph-name="uniF64E" unicode="&#xf64e;" horiz-adv-x="489" 
d="M131 1679q0 47 34 81t81 34q45 0 78.5 -34t33.5 -81q0 -45 -33.5 -78.5t-78.5 -33.5q-47 0 -81 33t-34 79z" />
    <glyph glyph-name="uniF64F" unicode="&#xf64f;" horiz-adv-x="647" 
d="M319 1466q-93 0 -158 57.5t-65 162.5q0 103 65.5 161t157.5 58q93 0 159.5 -58t66.5 -161q0 -105 -66 -162.5t-160 -57.5zM197 1686q0 -59 33.5 -95.5t88.5 -36.5q56 0 91.5 37t35.5 95t-35.5 94.5t-91.5 36.5q-55 1 -88.5 -35.5t-33.5 -95.5z" />
    <glyph glyph-name="uniF650" unicode="&#xf650;" horiz-adv-x="571" 
d="M289 -10q-112 0 -175 83.5t-63 225.5q0 138 63 222.5t175 84.5t172.5 -84t60.5 -223q0 -143 -60 -226t-173 -83zM150 299q0 -106 35.5 -165.5t103.5 -59.5q135 0 135 225q0 107 -33.5 166t-101.5 59t-103.5 -60t-35.5 -165z" />
    <glyph glyph-name="uniF651" unicode="&#xf651;" horiz-adv-x="395" 
d="M82 408l-39 63l174 117h70v-588h-97v475h-4z" />
    <glyph glyph-name="uniF652" unicode="&#xf652;" horiz-adv-x="550" 
d="M70 473q82 137 217 137q81 0 131.5 -43.5t50.5 -117.5q0 -43 -19.5 -84.5t-39 -64.5t-52.5 -56l-151 -156v-4h278v-84h-411v74l211 213l6 6q24 24 38 40t30 47.5t16 61.5q0 40 -25.5 64t-68.5 24q-48 0 -80 -26t-62 -72z" />
    <glyph glyph-name="uniF653" unicode="&#xf653;" horiz-adv-x="552" 
d="M266 -8q-125 0 -205 63l43 68q74 -51 160 -51q58 0 92.5 25t34.5 75q1 50 -35.5 76t-99.5 26h-61v68h61q58 0 89.5 27t31.5 71q0 82 -103 82q-76 0 -149 -57l-41 63q94 74 195 74q85 0 136.5 -36t51.5 -115q0 -52 -22.5 -82t-63.5 -50v-4q106 -43 106 -149
q0 -49 -20 -84.5t-54 -54t-70.5 -27t-76.5 -8.5z" />
    <glyph glyph-name="uniF654" unicode="&#xf654;" horiz-adv-x="575" 
d="M78 172l305 416h76v-410h67v-72h-67v-110h-90v110h-291v66zM170 178h199v273h-4l-195 -269v-4z" />
    <glyph glyph-name="uniF655" unicode="&#xf655;" horiz-adv-x="544" 
d="M262 -16q-118 0 -219 75l43 70q33 -23 49.5 -33t51 -22.5t67.5 -12.5q71 0 111.5 37.5t40.5 98.5q0 127 -123 127q-74 0 -129 -41l-52 36l15 271h342v-82h-273l-8 -146l4 -2q60 33 127 33q84 0 139.5 -45.5t55.5 -150.5q0 -73 -37.5 -123t-90 -70t-114.5 -20z" />
    <glyph glyph-name="uniF656" unicode="&#xf656;" horiz-adv-x="559" 
d="M291 -8q-114 0 -178 73t-64 195q0 172 74.5 259t193.5 87q97 0 181 -57l-49 -66q-70 45 -130 45q-79 0 -124.5 -61t-47.5 -139h5q19 27 60 48t87 21q97 0 152 -56t55 -142q0 -90 -57 -148.5t-158 -58.5zM158 205q0 -66 39.5 -105t93.5 -39q50 0 86.5 35.5t36.5 102.5
t-36 101t-87 34q-57 0 -95 -33.5t-38 -95.5z" />
    <glyph glyph-name="uniF657" unicode="&#xf657;" horiz-adv-x="495" 
d="M49 588h400v-70q-94 -151 -142.5 -255.5t-91.5 -264.5h-100q51 165 97.5 266t131.5 236v4h-295v84z" />
    <glyph glyph-name="uniF658" unicode="&#xf658;" horiz-adv-x="559" 
d="M281 -10q-108 0 -170 46.5t-62 123.5q0 116 113 159v5q-76 40 -76 131q0 65 53 108t140 43q88 0 141 -42.5t53 -108.5q0 -91 -76 -131v-5q113 -42 113 -159q0 -77 -61.5 -123.5t-167.5 -46.5zM279 285q-60 0 -96 -32t-36 -89q0 -52 34 -80.5t98 -28.5q131 0 131 109
q0 58 -35 89.5t-96 31.5zM176 455q0 -46 28 -73.5t75 -27.5q51 0 77.5 27t26.5 74q0 36 -27 62t-77 26q-49 0 -75 -25.5t-28 -62.5z" />
    <glyph glyph-name="uniF659" unicode="&#xf659;" horiz-adv-x="559" 
d="M53 397q0 90 57.5 149.5t159.5 59.5q112 0 176 -74t64 -196q0 -170 -74.5 -257t-191.5 -87q-105 0 -183 57l50 64q67 -43 129 -43q81 0 125.5 60t46.5 140h-4q-19 -29 -59.5 -50t-88.5 -21q-97 0 -152 56t-55 142zM145 397q0 -67 37 -101t88 -34q56 0 94.5 34.5
t38.5 96.5q0 65 -39.5 103.5t-93.5 38.5q-52 0 -88.5 -35t-36.5 -103z" />
    <glyph glyph-name="uniF65A" unicode="&#xf65a;" horiz-adv-x="907" 
d="M121 1561q12 84 61.5 140t139.5 56q47 0 84 -18t57 -39.5t47.5 -39.5t56.5 -18q48 0 73 29.5t30 71.5h104q-8 -85 -59.5 -143t-141.5 -58q-48 0 -86 17.5t-58.5 38t-49 38t-57.5 17.5q-47 0 -68.5 -25t-30.5 -67h-102z" />
    <glyph glyph-name="uniF65B" unicode="&#xf65b;" horiz-adv-x="976" 
d="M510 1536l168 279h184l-225 -279h-127zM182 1536l166 279h184l-223 -279h-127z" />
    <glyph glyph-name="uniF65C" unicode="&#xf65c;" horiz-adv-x="491" 
d="M162 0v922h170v-922h-170zM129 1327q0 49 33.5 83t81.5 34t83 -34t35 -83q0 -47 -35 -81t-83 -34q-47 0 -81 34t-34 81z" />
    <glyph glyph-name="uniF660" unicode="&#xf660;" horiz-adv-x="571" 
d="M289 727q-112 0 -175 83.5t-63 225.5q0 138 63 222.5t175 84.5t172.5 -84t60.5 -223q0 -143 -60 -226t-173 -83zM150 1036q0 -106 35.5 -165.5t103.5 -59.5q135 0 135 225q0 107 -33.5 166.5t-101.5 59.5t-103.5 -60.5t-35.5 -165.5z" />
    <glyph glyph-name="uniF661" unicode="&#xf661;" horiz-adv-x="395" 
d="M82 1165l-39 64l174 117h70v-588h-97v475h-4z" />
    <glyph glyph-name="uniF662" unicode="&#xf662;" horiz-adv-x="550" 
d="M70 1210q83 138 217 138q81 0 131.5 -44t50.5 -118q0 -43 -19.5 -84.5t-39 -64.5t-52.5 -56l-151 -156v-4h278v-84h-411v74l211 213q21 21 29.5 30t26.5 32.5t26 46t8 47.5q0 40 -25.5 64t-68.5 24q-48 0 -80 -26.5t-62 -72.5z" />
    <glyph glyph-name="uniF663" unicode="&#xf663;" horiz-adv-x="552" 
d="M266 731q-126 0 -205 62l43 67q74 -51 160 -51q58 0 92.5 25t34.5 75q1 50 -35.5 76.5t-99.5 26.5h-61v67h61q58 0 89.5 27.5t31.5 71.5q0 82 -103 82q-75 0 -149 -58l-41 64q93 73 195 73q85 0 136.5 -36t51.5 -115q0 -52 -22.5 -81.5t-63.5 -49.5v-4q106 -43 106 -150
q0 -39 -14 -70t-35.5 -50t-51.5 -31t-59 -16.5t-61 -4.5z" />
    <glyph glyph-name="uniF664" unicode="&#xf664;" horiz-adv-x="555" 
d="M57 844v65l305 416h76v-410h68v-71h-68v-109h-90v109h-291zM150 915h198v273h-4l-194 -268v-5z" />
    <glyph glyph-name="uniF665" unicode="&#xf665;" horiz-adv-x="544" 
d="M262 721q-117 0 -219 76l43 69q32 -22 49.5 -32.5t51.5 -22.5t67 -12q71 0 111.5 37t40.5 98q0 127 -123 127q-74 0 -129 -41l-52 37l15 270h342v-82h-273l-8 -145l4 -2q59 32 127 32q84 0 139.5 -45.5t55.5 -150.5q0 -73 -37.5 -123t-90 -70t-114.5 -20z" />
    <glyph glyph-name="uniF666" unicode="&#xf666;" horiz-adv-x="559" 
d="M291 729q-114 0 -178 73t-64 195q0 172 74.5 259t193.5 87q97 0 181 -57l-49 -65q-70 45 -130 45q-79 0 -124.5 -61.5t-47.5 -139.5h5q19 27 60 48.5t87 21.5q97 0 152 -56.5t55 -142.5q0 -90 -57 -148.5t-158 -58.5zM158 942q0 -66 39.5 -103.5t93.5 -37.5q51 0 87 34
t36 101t-36 101t-87 34q-57 0 -95 -33.5t-38 -95.5z" />
    <glyph glyph-name="uniF667" unicode="&#xf667;" horiz-adv-x="495" 
d="M49 1325h400v-70q-94 -151 -142.5 -255.5t-91.5 -264.5h-100q51 165 97.5 266t131.5 236v4h-295v84z" />
    <glyph glyph-name="uniF668" unicode="&#xf668;" horiz-adv-x="559" 
d="M281 727q-108 0 -170 46.5t-62 123.5q0 117 113 160v4q-76 40 -76 131q0 65 53 108t140 43q88 0 141 -42.5t53 -108.5q0 -91 -76 -131v-4q113 -42 113 -160q0 -77 -61.5 -123.5t-167.5 -46.5zM279 1022q-60 0 -96 -32t-36 -89q0 -51 34 -79.5t98 -28.5q131 0 131 108
q0 58 -35 89.5t-96 31.5zM176 1192q0 -46 28 -73t75 -27q51 0 77.5 26.5t26.5 73.5q0 36 -27 62t-77 26q-49 0 -75 -25.5t-28 -62.5z" />
    <glyph glyph-name="uniF669" unicode="&#xf669;" horiz-adv-x="559" 
d="M53 1135q0 90 57.5 149t159.5 59q112 0 176 -74t64 -196q0 -170 -74.5 -257t-191.5 -87q-105 0 -183 57l50 64q67 -43 129 -43q81 0 125.5 60.5t46.5 140.5h-4q-19 -29 -59.5 -50.5t-88.5 -21.5q-97 0 -152 56.5t-55 142.5zM145 1135q0 -67 37 -101.5t88 -34.5
q56 0 94.5 34.5t38.5 96.5q0 65 -39.5 103.5t-93.5 38.5q-52 0 -88.5 -35t-36.5 -102z" />
    <glyph glyph-name="uniF66A" unicode="&#xf66a;" horiz-adv-x="849" 
d="M113 627v100h624v-100h-624z" />
    <glyph glyph-name="uniF66B" unicode="&#xf66b;" horiz-adv-x="1224" 
d="M113 627v100h999v-100h-999z" />
    <glyph glyph-name="uniF66C" unicode="&#xf66c;" horiz-adv-x="1851" 
d="M113 627v100h1626v-100h-1626z" />
    <glyph glyph-name="uniF66D" unicode="&#xf66d;" horiz-adv-x="1191" 
d="M1069 184l-960 459v102l960 449v-141l-776 -353v-8l776 -358v-150z" />
    <glyph glyph-name="uniF66E" unicode="&#xf66e;" horiz-adv-x="743" 
d="M127 0h-115l621 1434h115z" />
    <glyph glyph-name="uniF66F" unicode="&#xf66f;" horiz-adv-x="1191" 
d="M80 334l776 358v8l-776 353v141l958 -449v-102l-958 -459v150z" />
    <glyph glyph-name="s_t" unicode="&#xfb06;" horiz-adv-x="1529" 
d="M430 -14q-203 0 -336 84l56 118q47 -33 120.5 -54t151.5 -21q83 0 132.5 34.5t49.5 90.5q0 60 -47.5 97t-165.5 73q-262 71 -262 268q0 128 92.5 196t243.5 68q67 0 119 -12l2 4q-137 126 -137 270q0 106 74 175t202 69q92 0 256.5 -56t216.5 -59v-409h254v-125h-248
v-488q0 -60 11 -102t31 -63t42 -29.5t51 -8.5q64 0 109 35v-96q-20 -21 -73 -38t-95 -17q-246 0 -246 297v510h-116v98l126 27v323q-20 7 -83 34t-120 44.5t-106 17.5q-83 0 -122.5 -42.5t-39.5 -116.5q0 -34 8.5 -64.5t31.5 -65.5t38 -54.5t55.5 -65.5t57.5 -66l-53 -114
q-37 26 -101 43.5t-135 17.5q-81 0 -131.5 -34.5t-50.5 -86.5q0 -59 38.5 -89.5t119.5 -55.5q168 -48 243.5 -118t75.5 -183q0 -123 -97 -191.5t-243 -68.5z" />
    </font>
</defs>
</svg>
