<?xml version="1.0" standalone="no"?>
<!DOCTYPE svg PUBLIC "-//W3C//DTD SVG 1.1//EN" "http://www.w3.org/Graphics/SVG/1.1/DTD/svg11.dtd" >
<svg xmlns="http://www.w3.org/2000/svg" xmlns:xlink="http://www.w3.org/1999/xlink" version="1.1">
<metadata>
Created by FontForge 20170731 at Sun Aug  6 18:09:19 2023
 By Aleksey,,,
All rights reserved (c)2020 Nasir Udin.
</metadata>
<defs>
<font id="ProdaSans-MediumItalic" horiz-adv-x="1042" >
  <font-face 
    font-family="Proda Sans Med Ita"
    font-weight="500"
    font-style="italic"
    font-stretch="normal"
    units-per-em="2048"
    panose-1="2 11 0 0 4 0 0 0 0 3"
    ascent="1536"
    descent="-512"
    x-height="922"
    cap-height="1434"
    bbox="-383 -528 2375.39 2030"
    underline-thickness="102"
    underline-position="-358"
    slope="-10"
    unicode-range="U+000D-FB06"
  />
<missing-glyph horiz-adv-x="856" 
d="M788 0h-720l254 1434h720zM393 1343l-223 -1251h549l223 1251h-549z" />
    <glyph glyph-name="uniF058" unicode="ffb" horiz-adv-x="2312" 
d="M-207 -512l37 205h35q71 0 126.5 34t86.5 73.5t57.5 123.5t35.5 127.5t25 141.5q7 43 11 63l88 500h-133l26 151l138 15l14 79q22 124 68 220t109 155t137 89t157 30q118 0 199 -37l-35 -194q-85 34 -150 34q-201 0 -260 -331l-8 -45h381l20 120q44 243 177.5 368.5
t306.5 125.5q99 0 184 -29l6 29h232l-127 -709h6q110 113 256 113q174 0 264.5 -126t50.5 -353q-40 -225 -176.5 -352t-304.5 -127q-164 0 -238 133h-6l-30 -115h-201l233 1311q-74 28 -137 28q-105 0 -173.5 -86t-96.5 -245l-15 -86h246l-29 -166h-247l-88 -500
q-47 -261 -84 -374q-78 -235 -235 -326q-117 -68 -290 -68h-34l34 205h37q40 0 74.5 10.5t61 25t50 42.5t39.5 52t31.5 65t24.5 68.5t19 76t15 75t13 77t12 71.5l88 500h-381l-88 -500q-14 -82 -23.5 -129.5t-27 -122.5t-34 -120t-43.5 -106.5t-57 -98t-73.5 -77.5
t-93.5 -63t-115.5 -36.5t-142.5 -14.5h-35zM1671 453q-22 -122 18.5 -206.5t125.5 -84.5q94 0 165 85t95 214q23 129 -17 211t-137 82q-91 0 -158.5 -83t-91.5 -218z" />
    <glyph glyph-name="uniF059" unicode="fb" horiz-adv-x="1697" 
d="M-170 -512h-37l37 205h35q71 0 126.5 34t86.5 73.5t57.5 123.5t35.5 127.5t25 141.5q7 43 11 63l88 500h-133l26 151l138 15l20 120q44 243 177 368.5t306 125.5q100 0 185 -29l6 29h231l-127 -709h6q110 113 256 113q174 0 265 -126t51 -353q-40 -225 -176.5 -352
t-304.5 -127q-164 0 -238 133h-6l-31 -115h-201l234 1311q-74 28 -137 28q-105 0 -174 -86.5t-97 -244.5l-14 -86h246l-29 -166h-248l-88 -500q-47 -261 -84 -373q-77 -235 -232 -326q-118 -69 -292 -69zM1059 453q-22 -122 18 -206.5t125 -84.5q94 0 165 85.5t93 213.5
q24 129 -15 211t-136 82q-91 0 -158.5 -83t-91.5 -218z" />
    <glyph glyph-name="uniF05A" unicode="ffh" horiz-adv-x="2285" 
d="M-172 -512h-35l37 205h35q71 0 126.5 34t86.5 73.5t57.5 123.5t35.5 127.5t25 141.5q7 43 11 63l88 500h-133l26 151l138 15l14 79q22 124 68 220t109 155t137 89t157 30q118 0 199 -37l-35 -194q-85 34 -150 34q-201 0 -260 -331l-8 -45h381l20 120q44 243 177.5 368.5
t306.5 125.5q99 0 184 -29l6 29h232l-133 -741h6q122 147 278 147q178 0 240 -112.5t20 -350.5l-86 -479h-231l80 449q15 87 11.5 150t-38 98.5t-100.5 35.5q-76 0 -137 -67t-97 -174l-88 -492h-231l233 1311q-74 28 -137 28q-105 0 -173.5 -86t-96.5 -245l-15 -86h246
l-29 -166h-247l-88 -500q-47 -261 -84 -374q-78 -235 -235 -326q-117 -68 -290 -68h-34l34 205h37q40 0 74.5 10.5t61 25t50 42.5t39.5 52t31.5 65t24.5 68.5t19 76t15 75t13 77t12 71.5l88 500h-379l-90 -500q-15 -84 -24 -129.5t-27 -122.5t-34 -120.5t-43.5 -106
t-57.5 -98t-73 -77t-93 -63t-115.5 -36.5t-142.5 -15z" />
    <glyph glyph-name="uniF05B" unicode="fh" horiz-adv-x="1673" 
d="M-170 -512h-37l37 205h35q71 0 126.5 34t86.5 73.5t57.5 123.5t35.5 127.5t25 141.5q7 43 11 63l88 500h-133l26 151l138 15l20 120q44 243 177 368.5t306 125.5q96 0 185 -29l6 29h231l-133 -741h6q122 147 279 147q178 0 240 -112.5t20 -350.5l-86 -479h-231l79 449
q15 87 11.5 150t-38 98.5t-100.5 35.5q-76 0 -136.5 -67t-96.5 -174l-88 -492h-232l234 1311q-74 28 -137 28q-105 0 -174 -86.5t-97 -244.5l-14 -86h246l-29 -166h-248l-88 -500q-47 -261 -84 -373q-77 -235 -232 -326q-118 -69 -292 -69z" />
    <glyph glyph-name="uniF05C" unicode="ffj" horiz-adv-x="1718" 
d="M-172 -512h-35l37 205h35q71 0 126.5 34t86.5 73.5t57.5 123.5t35.5 127.5t25 141.5q7 43 11 63l88 500h-133l26 151l138 15l14 79q22 124 68 220t109 155t137 89t157 30q113 0 199 -37l-35 -194q-90 34 -150 34q-200 0 -262 -331l-6 -45h381l20 120q44 245 185.5 371.5
t335.5 126.5q171 0 303 -65l-123 -189q-29 21 -80.5 38t-95.5 17q-119 0 -195 -87t-104 -246l-15 -86h570l-154 -861q-93 -538 -571 -538l35 196q128 0 201.5 87.5t107.5 275.5l119 674h-338l-88 -500q-47 -261 -84 -374q-78 -235 -235 -326q-117 -68 -290 -68h-34l34 205
h37q40 0 74.5 10.5t61 25t50 42.5t39.5 52t31.5 65t24.5 68.5t19 76t15 75t13 77t12 71.5l88 500h-381l-88 -500q-14 -82 -23.5 -129.5t-27 -122.5t-34 -120t-43.5 -106.5t-57 -98t-73.5 -77.5t-93.5 -63t-115.5 -36.5t-142.5 -14.5z" />
    <glyph glyph-name="uniF05D" unicode="fj" horiz-adv-x="1105" 
d="M-201 -475l47 168q29 0 54 13t43 30.5t34.5 49.5t26 56t20 64t15 59.5t11.5 56.5l3 15q26 11 48.5 34.5t39 47.5t32 66t25 69t21 79.5t16 75.5t14 78.5t11.5 67.5l35 201h-133l26 151l138 15l20 120q44 245 185 371.5t335 126.5q171 0 303 -65l-122 -189q-29 21 -81 38
t-96 17q-119 0 -195 -87t-104 -246l-14 -86h569l-159 -891q-94 -539 -572 -539l35 197q128 0 202.5 87.5t106.5 274.5l125 705h-336l-53 -299q-2 -11 -6 -34q-8 -48 -13.5 -76t-16.5 -81.5t-21.5 -88.5t-26.5 -83t-34 -80t-40.5 -63.5t-50.5 -50.5t-59 -25
q-11 -60 -20.5 -100t-25.5 -84.5t-34.5 -72.5t-47 -55.5t-65 -42t-87 -23.5t-113.5 -9z" />
    <glyph glyph-name="uniF05E" unicode="ffk" horiz-adv-x="2234" 
d="M-207 -512l37 205h35q71 0 126.5 34t86.5 73.5t57.5 123.5t35.5 127.5t25 141.5q7 43 11 63l88 500h-133l26 151l138 15l14 79q22 124 68 220t109 155t137 89t157 30q113 0 199 -37l-35 -194q-90 34 -150 34q-200 0 -262 -331l-6 -45h381l20 120q44 243 177.5 368.5
t306.5 125.5q95 0 184 -29l6 29h232l-176 -989h6l383 375h239l-360 -351l219 -571h-252l-147 395l-140 -135l-47 -260h-231l233 1311q-74 28 -137 28q-105 0 -173.5 -86t-96.5 -245l-15 -86h246l-29 -166h-247l-88 -500q-47 -261 -84 -374q-78 -235 -235 -326
q-117 -68 -290 -68h-34l34 205h37q40 0 74.5 10.5t61 25t50 42.5t39.5 52t31.5 65t24.5 68.5t19 76t15 75t13 77t12 71.5l88 500h-381l-88 -500q-14 -82 -23.5 -129.5t-27 -122.5t-34 -120t-43.5 -106.5t-57 -98t-73.5 -77.5t-93.5 -63t-115.5 -36.5t-142.5 -14.5h-35z" />
    <glyph glyph-name="uniF05F" unicode="fk" horiz-adv-x="1622" 
d="M-170 -512h-37l37 205h35q71 0 126.5 34t86.5 73.5t57.5 123.5t35.5 127.5t25 141.5q7 43 11 63l88 500h-133l26 151l138 15l20 120q44 243 177 368.5t306 125.5q96 0 185 -29l6 29h231l-176 -989h6l383 375h240l-361 -351l220 -571h-252l-148 395l-139 -135l-47 -260
h-232l234 1311q-74 28 -137 28q-105 0 -174 -86.5t-97 -244.5l-14 -86h246l-29 -166h-248l-88 -500q-47 -261 -84 -373q-77 -235 -232 -326q-118 -69 -292 -69z" />
    <glyph glyph-name="uniF060" unicode="ft" horiz-adv-x="1269" 
d="M-170 -512h-37l37 205h37q48 0 86 10.5t66.5 27.5t52 48t39 62.5t29.5 81.5t23.5 95t20.5 111l113 627h-135l26 151l138 15l22 120q22 124 68 220t109 155t137 89t157 30q102 0 174 -31l-35 -196q-66 30 -124 30q-202 0 -261 -331l-16 -86h371l116 338h162l-59 -338h229
l-28 -166h-232l-74 -418q-20 -110 6 -151.5t82 -41.5q57 0 105 29l-25 -131q-22 -21 -87 -37t-111 -16q-120 0 -179 71.5t-30 233.5l82 461h-357l-112 -627q-15 -84 -28.5 -145.5t-33 -127t-43 -111t-55 -90t-72 -73t-92.5 -51.5t-117 -33t-145 -10z" />
    <glyph glyph-name="f_f" unicode="ff" horiz-adv-x="1296" 
d="M-172 -512h-35l37 205h35q40 0 75.5 10t62 25.5t50 43t40 52.5t31.5 65t24 68.5t19 75.5t15 75t13 77t12 71l90 500h-135l26 151l138 15l14 79q22 124 68 220t109.5 155t138 89t157.5 30q116 0 197 -37l-35 -194q-85 34 -150 34q-201 0 -260 -331l-8 -45h381l20 120
q44 244 173 369t301 125q115 0 196 -37l-35 -194q-85 34 -149 34q-201 0 -260 -331l-15 -86h256l-28 -166h-258l-88 -500q-47 -261 -84 -374q-78 -235 -235 -326q-117 -68 -290 -68h-34l34 205h37q40 0 75 10t61.5 25.5t50 43t39.5 52t31.5 64.5t24 68.5t18.5 76t15 75
t13 77t12 71.5l88 500h-379l-90 -500q-14 -82 -23.5 -129.5t-27 -122.5t-34 -120t-43.5 -106.5t-57 -98t-73.5 -77.5t-93.5 -63t-115.5 -36.5t-142.5 -14.5z" />
    <glyph glyph-name="fi" unicode="fi" horiz-adv-x="1099" 
d="M-170 -512h-35l37 205h35q40 0 75 10t61.5 25.5t50 43t39.5 52.5t31.5 64.5t24 68.5t18.5 76t15 75t13 77t12 71l90 500h-135l26 151l138 15l20 120q44 245 185 371.5t335 126.5q171 0 303 -65l-122 -189q-27 20 -79.5 37.5t-95.5 17.5q-119 0 -196 -87.5t-105 -245.5
l-14 -86h569l-163 -922h-232l135 756h-338l-90 -500q-46 -259 -82 -369q-76 -234 -227 -326q-120 -73 -299 -73z" />
    <glyph glyph-name="fl" unicode="fl" horiz-adv-x="1093" 
d="M-170 -512h-37l37 205h37q51 0 93.5 16t73 43.5t54.5 66t40.5 82t29 93t21.5 98t17 97.5q7 46 11 67l90 500h-135l26 151l138 15l22 120q21 124 69 220t112.5 155t140.5 89t159 30q100 0 185 -29l6 29h231l-272 -1536h-231l231 1311q-70 28 -137 28q-104 0 -172.5 -86.5
t-96.5 -244.5l-16 -86h248l-31 -166h-246l-90 -500q-47 -261 -84 -373q-77 -235 -232 -326q-118 -69 -292 -69z" />
    <glyph glyph-name="f_f_i" unicode="ffi" horiz-adv-x="1712" 
d="M-170 -512h-37l37 205h35q40 0 75 10.5t61.5 25.5t50.5 43t40 52t31.5 64.5t24.5 68.5t19 76t15 75t13 77t12 71l90 500h-135l26 151l138 15l14 79q44 244 172.5 369t300.5 125q116 0 197 -37l-35 -194q-85 34 -150 34q-201 0 -260 -331l-8 -45h381l23 120
q43 245 184 371.5t336 126.5q171 0 303 -65l-125 -189q-27 20 -78 37.5t-96 17.5q-119 0 -195 -87t-104 -246l-17 -86h570l-162 -922h-234l136 756h-338l-88 -500q-47 -261 -84 -374q-78 -235 -235 -326q-117 -68 -290 -68h-36l36 205h35q40 0 75 10t61.5 25.5t50 42.5
t40 52t31.5 64.5t24 69t19 76t15 75t13.5 76.5t12.5 72l88 500h-381l-90 -500q-19 -106 -31 -166t-37.5 -153.5t-52.5 -147t-73 -119t-101.5 -100t-135 -58.5t-177.5 -24z" />
    <glyph glyph-name="f_f_l" unicode="ffl" horiz-adv-x="1705" 
d="M-170 -512h-37l37 205h35q40 0 75 10.5t61.5 25.5t50.5 43t40 52t31.5 64.5t24.5 68.5t19 76t15 75t13 77t12 71l90 500h-135l26 151l138 15l14 79q44 244 172.5 369t300.5 125q116 0 197 -37l-35 -194q-85 34 -150 34q-201 0 -260 -331l-8 -45h381l23 120q21 124 69 220
t112.5 155t140.5 89t159 30q99 0 184 -29l6 29h232l-273 -1536h-231l231 1311q-70 28 -137 28q-104 0 -172 -86t-98 -245l-15 -86h248l-31 -166h-245l-88 -500q-47 -261 -84 -374q-79 -235 -235 -326q-118 -68 -292 -68h-34l36 205h35q60 0 108 21t80.5 59t56.5 85.5
t39.5 106t26.5 113.5t21 116q6 42 10 62l88 500h-381l-90 -500q-19 -106 -31 -166t-37.5 -153.5t-52.5 -147t-73 -119t-101.5 -100t-135 -58.5t-177.5 -24z" />
    <glyph glyph-name="longs_t" unicode="&#x17f;t" horiz-adv-x="1269" 
d="M-207 -512l37 205h37q51 0 93.5 16t73 43.5t54.5 66t40.5 82t29 93t21.5 98t17 97.5q7 46 11 67l133 745q23 132 72 231t118 158.5t151 88t177 28.5q97 0 221.5 -27t157.5 -46l-90 -512h229l-28 -166h-232l-74 -418q-20 -110 6 -151.5t82 -41.5q57 0 105 29l-25 -131
q-22 -21 -87 -37t-111 -16q-120 0 -179 71.5t-30 233.5l82 461h-111l25 135l129 31l116 368q-109 23 -174 23q-121 0 -198.5 -92.5t-106.5 -253.5l-127 -711q-47 -262 -84 -375q-77 -234 -232 -324q-118 -69 -292 -69h-37z" />
    <glyph glyph-name=".notdef" horiz-adv-x="856" 
d="M788 0h-720l254 1434h720zM393 1343l-223 -1251h549l223 1251h-549z" />
    <glyph glyph-name="uni0000" horiz-adv-x="0" 
 />
    <glyph glyph-name="uni0000" horiz-adv-x="0" 
 />
    <glyph glyph-name="uni000D" unicode="&#xd;" horiz-adv-x="512" 
 />
    <glyph glyph-name="space" unicode=" " horiz-adv-x="538" 
 />
    <glyph glyph-name="exclam" unicode="!" horiz-adv-x="512" 
d="M412 481h-142l119 953h244zM266 -16q-63 0 -100.5 44.5t-26.5 106.5q11 65 60 109.5t118 44.5q62 0 99.5 -45.5t27.5 -108.5q-11 -63 -61 -107t-117 -44z" />
    <glyph glyph-name="quotedbl" unicode="&#x22;" horiz-adv-x="772" 
d="M401 1026h-116q42 83 87 222t72 288h162q-27 -148 -86 -286t-119 -224zM717 1042h-127q130 259 170 494h162q-25 -145 -83 -273.5t-122 -220.5z" />
    <glyph glyph-name="numbersign" unicode="#" horiz-adv-x="1312" 
d="M125 362l41 136h264l145 288h-208l39 136h237l205 409h153l-204 -409h254l204 409h154l-205 -409h195l-39 -136h-223l-146 -288h174l-39 -136h-202l-181 -362h-153l180 362h-254l-180 -362h-154l180 362h-237zM584 498h254l145 288h-254z" />
    <glyph glyph-name="dollar" unicode="$" horiz-adv-x="1050" 
d="M449 43q-102 8 -202.5 44.5t-168.5 92.5l123 170q151 -119 329 -119q108 0 176.5 41.5t81.5 116.5q13 78 -39.5 126.5t-175.5 78.5q-181 48 -257 139t-46 254q28 157 137 245.5t271 104.5l35 195h147l-33 -193q176 -18 310 -114l-119 -168q-55 45 -132 74.5t-145 29.5
q-103 0 -162 -43.5t-73 -118.5q-11 -71 39.5 -113.5t159.5 -72.5q55 -16 97.5 -32t81 -36.5t64.5 -43.5t47 -53t28.5 -65t10 -79.5t-9.5 -95.5q-16 -89 -56 -156.5t-98.5 -109t-125 -65t-146.5 -32.5l-37 -199h-147z" />
    <glyph glyph-name="percent" unicode="%" horiz-adv-x="1316" 
d="M469 670q-120 0 -175 90t-28 248q29 158 116.5 249t205.5 91q119 0 171.5 -91t24.5 -249q-29 -158 -113.5 -248t-201.5 -90zM973 -16q-120 0 -175 90t-26 248q27 158 114.5 249t207.5 91q117 0 169.5 -91t24.5 -249t-112.5 -248t-202.5 -90zM446 20h-106l762 1285h106z
M889 322q-21 -113 7.5 -174.5t94.5 -61.5t113 60.5t67 175.5t-5.5 177t-90.5 62q-66 0 -116 -63t-70 -176zM383 1008q-20 -113 8.5 -174.5t93.5 -61.5q66 0 114.5 61t68.5 175t-6 176.5t-91 62.5q-66 0 -116.5 -62.5t-71.5 -176.5z" />
    <glyph glyph-name="ampersand" unicode="&#x26;" horiz-adv-x="1503" 
d="M682 -39q-90 1 -170 26.5t-140 70.5t-106.5 107t-70.5 135t-32 156t9 169q26 143 99 247.5t170 154.5t206 50q77 0 136.5 -38.5t74.5 -104.5h4q83 136 107 278q26 138 2 283l203 16q12 -53 13 -128t-9 -132q-81 -463 -764 -921q35 -83 117.5 -135t191.5 -52
q198 0 345.5 116.5t176.5 277.5q13 71 -8 135h-4q-131 -39 -171 -59q-74 -36 -85 -89q-8 -49 27 -102l-162 -62q-26 35 -37.5 81t-3.5 87q10 57 49.5 103.5t95.5 76.5t121.5 55t130.5 46.5t119.5 43.5t92 52.5t44.5 67.5q12 63 -16 119l164 73q43 -99 30 -200
q-12 -89 -64 -140.5t-134 -85.5q29 -99 10 -207q-13 -75 -50.5 -153t-103 -154.5t-151 -135t-204.5 -94.5t-253 -34zM387 633q-16 -93 -2 -164h4q40 28 88 65t105 87t95 100t40 84q1 40 -24 64t-66 24q-79 0 -148.5 -76t-91.5 -184z" />
    <glyph glyph-name="quotesingle" unicode="'" horiz-adv-x="460" 
d="M406 1042h-115q111 223 158 494h161q-25 -145 -82.5 -273.5t-121.5 -220.5z" />
    <glyph glyph-name="parenleft" unicode="(" horiz-adv-x="649" 
d="M326 -287q-62 117 -94 268.5t-31 304.5t26 308q41 233 149 470t261 411h156q-139 -173 -238 -409.5t-141 -471.5q-27 -153 -30.5 -307.5t20.5 -305.5t75 -268h-153z" />
    <glyph glyph-name="parenright" unicode=")" horiz-adv-x="649" 
d="M70 -287q138 175 238 412t141 469q42 219 26 462.5t-92 418.5h154q62 -117 93.5 -269t29.5 -304t-27 -308q-41 -233 -149 -470t-261 -411h-153z" />
    <glyph glyph-name="asterisk" unicode="*" horiz-adv-x="962" 
d="M344 1106q-31 -2 -43.5 21t2.5 57l49 102q18 43 58 43q18 0 32 -14l203 -162l10 6l-14 295q-5 33 14.5 57.5t51.5 24.5h96q32 0 42.5 -25t-5.5 -57l-119 -295l6 -6l260 162q20 14 41 14q38 0 41 -43l12 -102q3 -34 -17.5 -57t-51.5 -21l-277 -23l-4 -10l174 -194
q23 -19 19 -49t-33 -50l-90 -63q-18 -15 -37 -15q-17 0 -28 13t-13 35l-53 280h-11l-151 -280q-23 -48 -59 -48q-16 0 -31 15l-68 63q-22 20 -15 50t36 49l243 194l-2 10z" />
    <glyph glyph-name="plus" unicode="+" horiz-adv-x="983" 
d="M166 451l20 176h320l63 368h187l-64 -368h312l-21 -176h-321l-62 -367h-186l63 367h-311z" />
    <glyph glyph-name="comma" unicode="," horiz-adv-x="577" 
d="M166 -227h-143q53 75 106 205t80 258l248 30q-35 -123 -129 -277t-162 -216z" />
    <glyph glyph-name="hyphen" unicode="-" horiz-adv-x="792" 
d="M174 461l16 137h613l-17 -137h-612z" />
    <glyph glyph-name="period" unicode="." horiz-adv-x="499" 
d="M250 -16q-63 0 -100.5 44.5t-26.5 106.5q11 65 61 109.5t119 44.5q62 0 98.5 -45.5t26.5 -108.5q-11 -63 -61.5 -107t-116.5 -44z" />
    <glyph glyph-name="slash" unicode="/" horiz-adv-x="704" 
d="M-20 -51l897 1587h151l-897 -1587h-151z" />
    <glyph glyph-name="zero" unicode="0" horiz-adv-x="1191" 
d="M600 -14q-243 0 -347 180.5t-48 499.5q55 303 226.5 492.5t410.5 189.5q123 0 211.5 -51t132.5 -142t56 -216t-17 -273q-58 -323 -217.5 -501.5t-407.5 -178.5zM465 666q-82 -458 174 -455q129 0 208 114t118 341q43 221 4 339.5t-168 118.5q-256 0 -336 -458z" />
    <glyph glyph-name="one" unicode="1" horiz-adv-x="847" 
d="M315 889l-67 170l450 272h156l-236 -1331h-243l182 1034h-6z" />
    <glyph glyph-name="two" unicode="2" horiz-adv-x="1140" 
d="M133 0l35 201l526 440q196 172 221 307q17 92 -25 143.5t-134 51.5q-49 0 -93.5 -16.5t-84 -50.5t-69 -67t-67.5 -83l-153 104q228 322 528 322q194 0 288 -103.5t62 -277.5q-10 -57 -34.5 -112.5t-50.5 -94.5t-70 -86.5t-71 -72t-75 -66.5l-366 -322v-6h575l-37 -211
h-905z" />
    <glyph glyph-name="three" unicode="3" horiz-adv-x="1136" 
d="M539 -12q-136 0 -245 39t-173 104l131 176q128 -112 311 -112q124 0 197 47t92 155q18 100 -47.5 154.5t-196.5 54.5h-116l28 164h117q122 0 197 51.5t90 139.5q15 86 -28.5 129t-145.5 43q-84 0 -174.5 -35.5t-163.5 -87.5l-66 168q222 168 461 168q188 0 284 -84.5
t66 -255.5q-20 -116 -79.5 -183t-155.5 -110v-6q215 -95 172 -336q-16 -88 -58.5 -156.5t-98 -110.5t-126 -69t-136.5 -37t-136 -10z" />
    <glyph glyph-name="four" unicode="4" horiz-adv-x="1124" 
d="M98 254l31 174l807 903h188l-159 -893h155l-33 -184h-155l-45 -254h-244l45 254h-590zM397 438h324l84 473h-6l-400 -467z" />
    <glyph glyph-name="five" unicode="5" horiz-adv-x="1136" 
d="M549 -12q-142 0 -263.5 50.5t-191.5 119.5l133 180q74 -67 149 -104t175 -37q135 0 227 72t115 198t-31 188t-172 62q-130 0 -270 -88l-98 90l141 612h749l-34 -201h-572l-67 -296l6 -5q46 20 77.5 31.5t86 22t110.5 10.5q42 0 79.5 -6t77 -19.5t70 -35.5t57 -55.5
t39.5 -78.5t17.5 -104t-10.5 -133q-18 -100 -63 -181.5t-105 -135t-134 -89.5t-148.5 -51.5t-149.5 -15.5z" />
    <glyph glyph-name="six" unicode="6" horiz-adv-x="1150" 
d="M598 -14q-236 0 -345.5 159t-62.5 430q34 188 104.5 337t165 243t207 143.5t234.5 49.5q200 0 365 -123l-148 -166q-41 27 -66 41.5t-74.5 29.5t-100.5 15q-152 0 -260 -118t-142 -294h6q55 70 137 116t181 46q129 0 215.5 -64t117 -163.5t9.5 -216.5q-16 -94 -60.5 -177
t-112 -147.5t-163.5 -102.5t-207 -38zM444 446q-23 -130 33.5 -203t153.5 -73q93 0 171.5 73.5t102.5 202.5q23 132 -27 204.5t-149 72.5q-93 0 -178 -78t-107 -199z" />
    <glyph glyph-name="seven" unicode="7" horiz-adv-x="1032" 
d="M219 0q166 343 309.5 575.5t370.5 538.5v6h-616l39 211h868l-33 -186q-230 -303 -374 -544t-314 -601h-250z" />
    <glyph glyph-name="eight" unicode="8" horiz-adv-x="1163" 
d="M578 -18q-232 0 -347 101t-84 271q25 136 113 227.5t207 131.5q-159 104 -125 286q27 152 160 251.5t319 99.5q187 0 285 -100t70 -251q-32 -188 -218 -286q105 -39 157.5 -130t27.5 -229q-31 -170 -181.5 -271t-383.5 -101zM408 371q-19 -109 32 -172.5t166 -63.5
q116 0 189 63t92 173q22 120 -29 190t-164 70t-189.5 -70t-96.5 -190zM573 1001q-18 -89 27.5 -143.5t122.5 -54.5q78 0 142 54.5t81 143.5q16 88 -23.5 146.5t-125.5 58.5q-88 0 -148 -58t-76 -147z" />
    <glyph glyph-name="nine" unicode="9" horiz-adv-x="1150" 
d="M485 -16q-207 0 -364 122l135 164q124 -86 248 -86q153 0 265 120t144 296h-6q-55 -70 -137.5 -116t-181.5 -46q-78 0 -142.5 24.5t-105.5 66.5t-68.5 98.5t-31.5 121t6 134.5q16 93 61 176t113 147.5t164 102t207 37.5q236 0 345 -155t62 -425q-33 -187 -104 -337
t-166 -246.5t-208 -147.5t-235 -51zM483 887q-24 -131 26 -204t150 -73q93 0 178 78.5t107 198.5q23 132 -33 204t-153 72q-94 0 -172.5 -73t-102.5 -203z" />
    <glyph glyph-name="colon" unicode=":" horiz-adv-x="499" 
d="M375 604q-62 0 -100 45.5t-27 106.5q12 65 62 109t120 44q61 0 98 -45.5t25 -107.5q-11 -62 -61 -107t-117 -45zM250 -16q-63 0 -100.5 44.5t-26.5 106.5q11 65 61 109.5t119 44.5q62 0 98.5 -45.5t26.5 -108.5q-11 -63 -61.5 -107t-116.5 -44z" />
    <glyph glyph-name="semicolon" unicode=";" horiz-adv-x="577" 
d="M18 -227q55 76 108.5 206.5t78.5 256.5l250 30q-35 -123 -129.5 -277t-163.5 -216h-144zM426 625q-63 0 -100.5 44.5t-26.5 106.5q11 65 61 109.5t119 44.5q62 0 98.5 -45.5t26.5 -108.5q-11 -63 -61.5 -107t-116.5 -44z" />
    <glyph glyph-name="less" unicode="&#x3c;" horiz-adv-x="1136" 
d="M1210 1073l-24 -192l-731 -312v-8l602 -313l-25 -197l-839 455l16 129z" />
    <glyph glyph-name="equal" unicode="=" horiz-adv-x="1046" 
d="M225 635l21 174h829l-20 -174h-830zM156 221l20 174h828l-21 -174h-827z" />
    <glyph glyph-name="greater" unicode="&#x3e;" horiz-adv-x="1136" 
d="M270 883l35 190l844 -438l-25 -129l-1001 -455l39 205l727 311v11z" />
    <glyph glyph-name="question" unicode="?" horiz-adv-x="952" 
d="M279 1315q113 68 211 104.5t231 36.5q189 0 289 -96t71 -264q-9 -53 -31 -100.5t-46.5 -80.5t-62 -66.5t-65.5 -53.5t-69 -48.5t-62 -44.5q-78 -60 -117.5 -116.5t-52.5 -136.5h-213q8 101 55 184.5t163 181.5q22 19 70 53.5t80 59.5t63.5 68t40.5 91q19 85 -30.5 130
t-133.5 45q-146 0 -318 -115zM414 -16q-63 0 -104 45t-34 106q8 65 56.5 109.5t118.5 44.5q62 0 102 -45.5t33 -108.5q-8 -63 -56 -107t-116 -44z" />
    <glyph glyph-name="at" unicode="@" horiz-adv-x="1603" 
d="M700 -244q-188 0 -321.5 93.5t-188 255t-18.5 360.5q28 153 104 290.5t184 238.5t248.5 160.5t290.5 59.5q141 0 259.5 -51.5t196 -141t109 -218.5t5.5 -277q-16 -94 -56.5 -172t-94 -127.5t-114.5 -76.5t-122 -27q-82 0 -134 57t-38 176q-47 -91 -130.5 -158t-166.5 -67
q-111 0 -165.5 78.5t-31.5 208.5q10 56 37.5 114t72 112.5t101 97t129.5 68.5t152 26q65 0 124.5 -23.5t51.5 -67.5l-54 -303q-19 -102 3.5 -149t74.5 -47q174 0 224 280q21 120 -4.5 225.5t-88 178.5t-157 115t-207.5 42q-116 0 -229.5 -51t-201.5 -136t-151 -199t-84 -236
q-29 -161 11 -293t145 -210.5t258 -78.5q88 0 240 58l43 -117q-165 -68 -306 -68zM664 428q-13 -69 11.5 -118.5t84.5 -49.5q66 0 133 66.5t108 158.5l39 213q-27 15 -90 15q-106 1 -187.5 -91t-98.5 -194z" />
    <glyph glyph-name="A" unicode="A" horiz-adv-x="1271" 
d="M285 0h-238l754 1438h184l244 -1438h-268l-37 283h-488zM823 1004l-303 -531h369l-60 531h-6z" />
    <glyph glyph-name="B" unicode="B" horiz-adv-x="1187" 
d="M578 -12q-133 0 -433 12l254 1430q350 14 418 14q77 0 143 -11.5t124 -39t95.5 -70t53 -108.5t0.5 -150q-35 -200 -209 -295v-6q204 -110 164 -334q-16 -93 -61.5 -169t-107 -126t-137.5 -84t-151.5 -48.5t-152.5 -14.5zM516 666l-82 -461q70 -4 193 -4q124 0 206 68
t103 184q18 97 -31 155t-157 58h-232zM616 1227l-67 -379h227q84 0 132.5 53t62.5 131q16 87 -28.5 144t-145.5 57q-79 0 -181 -6z" />
    <glyph glyph-name="C" unicode="C" horiz-adv-x="1247" 
d="M758 -18q-296 0 -440.5 203.5t-84.5 541.5q58 327 275 522t508 195q225 0 387 -96l-105 -201q-129 76 -294 76q-173 0 -314.5 -137.5t-185.5 -358.5q-44 -242 45.5 -385t261.5 -143q179 0 326 86l49 -185q-207 -118 -428 -118z" />
    <glyph glyph-name="D" unicode="D" horiz-adv-x="1335" 
d="M567 -16q-299 0 -424 16l250 1427q218 17 430 17q304 0 449.5 -184.5t91.5 -501.5q-37 -222 -146 -397t-278.5 -276t-372.5 -101zM426 207q76 -8 170 -8q177 0 316 158.5t184 400.5q40 219 -38 345t-257 126q-91 0 -172 -8z" />
    <glyph glyph-name="E" unicode="E" horiz-adv-x="1097" 
d="M143 0l252 1434h846l-27 -222h-585l-86 -376h530l-24 -201h-529l-92 -414h588l-27 -221h-846z" />
    <glyph glyph-name="F" unicode="F" horiz-adv-x="1097" 
d="M145 0l254 1434h842l-39 -222h-588l-71 -399h530l-35 -201h-530l-109 -612h-254z" />
    <glyph glyph-name="G" unicode="G" horiz-adv-x="1310" 
d="M782 -20q-313 0 -462 201t-87 556q59 330 283 519.5t531 189.5q107 0 218.5 -26t196.5 -70l-104 -201q-152 80 -322 80q-195 0 -339.5 -129.5t-190.5 -362.5q-50 -261 32.5 -400.5t270.5 -139.5q119 0 238 55l65 309h-268l24 191h484l-109 -641q-109 -60 -230 -95.5
t-231 -35.5z" />
    <glyph glyph-name="H" unicode="H" horiz-adv-x="1304" 
d="M143 0l252 1434h258l-108 -586h502l108 586h260l-252 -1434h-258l115 627h-502l-117 -627h-258z" />
    <glyph glyph-name="I" unicode="I" horiz-adv-x="542" 
d="M143 0l252 1434h258l-252 -1434h-258z" />
    <glyph glyph-name="J" unicode="J" horiz-adv-x="837" 
d="M63 25l62 200q26 -11 78 -20.5t96 -9.5q109 -2 172.5 67t97.5 240l170 932h246l-170 -932q-40 -265 -170 -391.5t-371 -126.5q-48 0 -115 13.5t-96 27.5z" />
    <glyph glyph-name="K" unicode="K" horiz-adv-x="1269" 
d="M143 0l252 1434h258l-112 -582h4l573 582h285l-641 -646l489 -788h-338l-348 582l-65 -64l-99 -518h-258z" />
    <glyph glyph-name="L" unicode="L" horiz-adv-x="1073" 
d="M143 0l252 1434h258l-225 -1213h606l-24 -221h-867z" />
    <glyph glyph-name="M" unicode="M" horiz-adv-x="1720" 
d="M145 0l254 1434h273l254 -1078h4l639 1078h262l-254 -1434h-254l162 915h-6l-543 -915h-188l-205 901h-6l-160 -901h-232z" />
    <glyph glyph-name="N" unicode="N" horiz-adv-x="1337" 
d="M143 0l252 1434h242l362 -973h7l196 973h246l-250 -1434h-248l-360 936h-6l-193 -936h-248z" />
    <glyph glyph-name="O" unicode="O" horiz-adv-x="1417" 
d="M707 -20q-185 0 -306.5 92.5t-165 259t-4.5 385.5q57 333 256 535t478 202q185 0 306 -92.5t164 -259t5 -385.5q-59 -333 -257.5 -535t-475.5 -202zM500 717q-47 -233 12 -371.5t221 -138.5q161 0 277 139t161 371q45 233 -14 371.5t-219 138.5q-162 0 -277.5 -138.5
t-160.5 -371.5z" />
    <glyph glyph-name="P" unicode="P" horiz-adv-x="1122" 
d="M399 0h-254l252 1423q269 21 418 21q241 0 359 -116.5t79 -338.5q-21 -118 -80 -213.5t-141 -155.5t-176.5 -93t-193.5 -35q-65 -2 -175 14zM616 1225l-90 -508q65 -12 148 -12q130 0 213 76.5t104 207.5q18 106 -38 175t-181 69q-66 0 -156 -8z" />
    <glyph glyph-name="Q" unicode="Q" horiz-adv-x="1431" 
d="M713 -20q-185 0 -306 92.5t-163.5 259t-3.5 385.5q59 333 257.5 535t477.5 202q184 0 304.5 -92.5t163 -259t3.5 -385.5q-41 -233 -155 -407t-281 -261l266 -196l-186 -162l-345 289h-32zM504 717q-41 -233 22.5 -371.5t225.5 -138.5q164 0 276.5 138.5t153.5 371.5
q42 232 -22 371t-226 139t-275.5 -139t-154.5 -371z" />
    <glyph glyph-name="R" unicode="R" horiz-adv-x="1204" 
d="M401 0h-258l250 1423q269 21 406 21q122 0 212.5 -24t152 -74t85 -132.5t4.5 -193.5q-25 -129 -106 -224.5t-189 -144.5v-6q42 -17 74.5 -59t51 -92t33.5 -121.5t21.5 -127.5t15.5 -131t15 -114h-278q-3 19 -6 95.5t-11.5 141t-27.5 136.5t-62 114.5t-106 42.5h-176z
M528 743h127q137 0 220.5 67t111.5 194q22 105 -34.5 166t-184.5 61q-72 0 -139 -6z" />
    <glyph glyph-name="S" unicode="S" horiz-adv-x="1148" 
d="M551 -14q-123 0 -254 38.5t-215 102.5l135 197q174 -121 352 -121q117 0 204.5 55.5t105.5 136.5q17 75 -40.5 124t-209.5 89q-189 50 -274 150t-54 278q21 125 102 219.5t195.5 142.5t243.5 48q245 0 432 -125l-135 -197q-162 107 -312 107q-106 0 -178 -55.5
t-88 -131.5q-18 -81 36 -126.5t187 -81.5q59 -16 105 -33.5t88 -39.5t71 -47t52.5 -56.5t32.5 -68t12.5 -82t-8.5 -97.5q-18 -107 -75 -191t-139.5 -134t-176.5 -75.5t-195 -25.5z" />
    <glyph glyph-name="T" unicode="T" horiz-adv-x="1224" 
d="M305 1212l27 222h1063l-27 -222h-405l-226 -1212h-258l226 1212h-400z" />
    <glyph glyph-name="U" unicode="U" horiz-adv-x="1228" 
d="M612 -16q-266 0 -359.5 163t-35.5 488l139 799h258l-143 -820q-44 -220 -2.5 -319.5t172.5 -99.5q135 -2 216.5 97.5t127.5 321.5l145 820h246l-139 -799q-57 -325 -208 -488t-417 -163z" />
    <glyph glyph-name="V" unicode="V" horiz-adv-x="1282" 
d="M512 0l-236 1434h269l170 -1082h6l551 1082h244l-748 -1434h-256z" />
    <glyph glyph-name="W" unicode="W" horiz-adv-x="2101" 
d="M500 0l-240 1434h270l160 -1080h6l535 1080h190l97 -1074h4l565 1074h246l-742 -1434h-274l-74 938h-6l-465 -938h-272z" />
    <glyph glyph-name="X" unicode="X" horiz-adv-x="1171" 
d="M25 0l555 727l-281 707h270l191 -492h6l375 494l231 -2l-520 -695l295 -739h-268l-213 528h-4l-402 -528h-235z" />
    <glyph glyph-name="Y" unicode="Y" horiz-adv-x="1255" 
d="M311 1434h271l198 -525h6l424 527l240 -2l-571 -729l-123 -705h-260l120 694z" />
    <glyph glyph-name="Z" unicode="Z" horiz-adv-x="1236" 
d="M401 1434h953l-29 -236l-874 -967l-2 -6h667l-26 -225h-986l29 236l879 966l2 6h-639z" />
    <glyph glyph-name="bracketleft" unicode="[" horiz-adv-x="518" 
d="M377 1475h346l-16 -95h-193l-281 -1573h195l-16 -96l-349 2z" />
    <glyph glyph-name="backslash" unicode="\" horiz-adv-x="778" 
d="M817 -51h-153l-709 1587h154z" />
    <glyph glyph-name="bracketright" unicode="]" horiz-adv-x="518" 
d="M301 1380l16 95h347l-312 -1762l-348 -2l16 96h195l279 1573h-193z" />
    <glyph glyph-name="asciicircum" unicode="^" horiz-adv-x="878" 
d="M342 831h-115l443 707h90l186 -707h-115l-139 568h-6z" />
    <glyph glyph-name="underscore" unicode="_" horiz-adv-x="983" 
d="M78 -152l18 105h774l-18 -105h-774z" />
    <glyph glyph-name="grave" unicode="`" horiz-adv-x="778" 
d="M571 1417l195 -327h-137l-297 327h239z" />
    <glyph glyph-name="a" unicode="a" horiz-adv-x="1075" 
d="M449 -18q-74 0 -134 24t-105.5 75.5t-59.5 133t4 195.5q27 157 118.5 279.5t219.5 186.5t268 64q43 0 84 -2.5t83 -7.5t66 -8.5t67.5 -11t53.5 -9.5l-121 -668q-27 -167 -16 -233h-232q-2 27 17 137h-6q-47 -61 -127 -108t-180 -47zM403 430q-25 -126 11 -197t129 -71
q86 0 161.5 85.5t96.5 190.5l63 310q-57 14 -123 16q-118 0 -213.5 -99.5t-124.5 -234.5z" />
    <glyph glyph-name="b" unicode="b" horiz-adv-x="1067" 
d="M127 66l262 1470h232l-127 -709h6q110 113 256 113q174 0 264.5 -126t50.5 -353q-20 -113 -77 -206.5t-134 -152t-165 -90.5t-175 -32q-197 0 -393 86zM381 193q91 -37 151 -37q108 0 191.5 88.5t107.5 216.5q23 129 -16.5 211t-136.5 82q-91 0 -158.5 -83t-91.5 -218z
" />
    <glyph glyph-name="c" unicode="c" horiz-adv-x="874" 
d="M508 -16q-84 0 -153.5 29.5t-120 89t-69 149t0.5 209.5q36 210 173 344.5t335 134.5q170 0 278 -78l-80 -153q-64 53 -170 53q-110 0 -188 -84t-104 -211q-26 -133 22 -216t154 -83q55 0 111 16.5t94 40.5l40 -151q-146 -90 -323 -90z" />
    <glyph glyph-name="d" unicode="d" horiz-adv-x="1069" 
d="M449 -18q-74 0 -134 24t-105.5 75.5t-59.5 133t4 195.5q27 157 118.5 279.5t219.5 186.5t268 64q49 0 127 -8l108 604h232l-273 -1536h-209l19 137h-6q-49 -61 -129.5 -108t-179.5 -47zM403 430q-25 -126 11 -197t129 -71q86 0 161.5 85.5t96.5 190.5l63 310
q-57 14 -123 16q-118 0 -213.5 -99.5t-124.5 -234.5z" />
    <glyph glyph-name="e" unicode="e" horiz-adv-x="907" 
d="M526 -18q-84 0 -155.5 31.5t-122 90t-71 151t-1.5 206.5q40 228 183.5 353.5t326.5 125.5q65 0 116.5 -20.5t82 -56.5t45 -81t9.5 -96.5t-28 -101.5q-39 -91 -170 -152.5t-356 -75.5q5 -93 56 -142.5t143 -49.5q65 0 135.5 16t107.5 37l31 -147q-142 -88 -332 -88z
M401 494q303 27 349 137q21 53 -0.5 95t-73.5 42q-98 0 -171 -81t-104 -193z" />
    <glyph glyph-name="f" unicode="f" horiz-adv-x="686" 
d="M-170 -512h-37l39 205h37q40 0 74.5 10t61 25.5t50 43t39.5 52.5t31 64.5t23.5 68.5t18.5 76t15 75t13 77t12 71l88 500h-135l28 151l138 15l20 120q44 245 173 369.5t302 124.5q116 0 197 -37l-37 -194q-85 34 -150 34q-201 0 -260 -331l-14 -86h258l-33 -166h-256
l-88 -500q-47 -261 -84 -373q-77 -235 -232 -326q-118 -69 -292 -69z" />
    <glyph glyph-name="g" unicode="g" horiz-adv-x="1056" 
d="M348 -508q-95 -1 -203 25t-161 63l94 174q46 -33 123 -55t151 -21q79 0 142.5 29t107 80.5t72 114.5t43.5 139l20 96h-6q-48 -62 -124 -108.5t-175 -46.5q-74 0 -134 24t-105 75.5t-59 133t3 195.5q42 236 217 383t389 147q43 0 84.5 -2.5t84.5 -7.5t66.5 -8.5
t68.5 -11.5t53 -9l-152 -860q-43 -254 -196 -401.5t-404 -147.5zM389 430q-27 -126 8.5 -197t128.5 -71q86 0 162 86t96 190l64 310q-51 13 -125 16q-117 0 -212 -99.5t-122 -234.5z" />
    <glyph glyph-name="h" unicode="h" 
d="M350 0h-235l270 1536h236l-136 -741h4q56 64 128.5 105.5t154.5 41.5q179 0 241.5 -112.5t22.5 -350.5l-86 -479h-235l78 449q19 87 18 150t-34 98.5t-99 35.5q-74 0 -136.5 -67.5t-99.5 -173.5z" />
    <glyph glyph-name="i" unicode="i" horiz-adv-x="505" 
d="M373 0h-236l162 922h236zM467 1169q-61 0 -98 44.5t-29 107.5q7 63 56.5 108.5t109.5 45.5t98 -45.5t29 -108.5q-7 -63 -56.5 -107.5t-109.5 -44.5z" />
    <glyph glyph-name="j" unicode="j" horiz-adv-x="442" 
d="M-219 -512h-37l37 205h37q135 0 201 75t100 263l157 891h232l-162 -912q-22 -128 -61.5 -220.5t-105 -162.5t-165 -104.5t-233.5 -34.5zM434 1169q-60 0 -94.5 44.5t-22.5 107.5q11 63 61 107.5t111 44.5q59 0 93 -44.5t24 -107.5q-10 -62 -61.5 -107t-110.5 -45z" />
    <glyph glyph-name="k" unicode="k" horiz-adv-x="991" 
d="M350 0h-235l270 1536h236l-187 -989h6l391 375h246l-362 -351l223 -571h-258l-137 395l-144 -135z" />
    <glyph glyph-name="l" unicode="l" horiz-adv-x="462" 
d="M115 0l270 1536h236l-271 -1536h-235z" />
    <glyph glyph-name="m" unicode="m" horiz-adv-x="1603" 
d="M346 0h-231l164 922h210l-12 -134h4q121 154 281 154q119 0 180.5 -51t75.5 -156h6q49 86 132 146.5t187 60.5q177 0 234.5 -111.5t15.5 -351.5l-84 -479h-231l78 449q15 87 14 150t-33.5 98.5t-99.5 35.5q-74 0 -130 -65.5t-91 -173.5l-88 -494h-232l80 449
q15 87 14 150t-33.5 98.5t-99.5 35.5q-74 0 -131.5 -65t-91.5 -172z" />
    <glyph glyph-name="n" unicode="n" 
d="M350 0h-235l161 922h213l-18 -136h6q54 68 131.5 112t163.5 44q179 0 241.5 -112.5t22.5 -350.5l-86 -479h-235l78 449q19 87 18 150t-34 98.5t-99 35.5q-74 0 -136.5 -67.5t-99.5 -173.5z" />
    <glyph glyph-name="o" unicode="o" horiz-adv-x="1011" 
d="M504 -18q-88 0 -159.5 30.5t-121.5 91t-68.5 150t1.5 207.5q20 115 71 207.5t121 151t152.5 89.5t169.5 31q88 0 159.5 -30.5t121.5 -91t68.5 -150t-1.5 -207.5q-40 -226 -185.5 -352.5t-328.5 -126.5zM399 461q-27 -135 4.5 -214t122.5 -79q93 0 158 79.5t92 213.5
q27 136 -4.5 215.5t-124.5 79.5q-92 0 -156.5 -79.5t-91.5 -215.5z" />
    <glyph glyph-name="p" unicode="p" horiz-adv-x="1069" 
d="M25 -512l254 1434h208l-12 -136h6q45 61 124 107.5t179 46.5q73 0 133.5 -25.5t105 -79t59.5 -136.5t-3 -197q-21 -118 -79 -214.5t-138 -158t-173.5 -94.5t-190.5 -33q-62 0 -148 14l-94 -528h-231zM432 483l-55 -315q4 -1 27 -5.5t45 -7.5t45 -3q122 0 214.5 99.5
t118.5 240.5q23 126 -15 197t-132 71q-85 0 -156.5 -85t-91.5 -192z" />
    <glyph glyph-name="q" unicode="q" horiz-adv-x="1073" 
d="M463 -18q-80 0 -143 23t-110 74t-60.5 132.5t4.5 198.5q28 157 123 279.5t227.5 186.5t277.5 64q76 0 134 -7.5t122.5 -23.5t77.5 -18l-250 -1403h-225l119 674h-6q-62 -88 -129.5 -134t-161.5 -46zM410 430q-22 -126 16 -197t131 -71q85 0 161.5 113.5t100.5 244.5
l37 215q-57 23 -121 23q-119 0 -210 -97t-115 -231z" />
    <glyph glyph-name="r" unicode="r" horiz-adv-x="747" 
d="M350 0h-235l161 922h213l-14 -154h6q54 80 151 130.5t206 39.5l-25 -217q-34 6 -65 6q-114 0 -192 -73.5t-112 -184.5z" />
    <glyph glyph-name="s" unicode="s" horiz-adv-x="849" 
d="M86 72l80 155q95 -69 254 -69q62 0 108 26t56 68q10 43 -22.5 70.5t-121.5 56.5q-119 32 -176 104.5t-39 182.5q23 133 128.5 204.5t256.5 71.5q183 0 293 -76l-78 -153q-32 23 -92 39t-123 16q-62 0 -107 -25.5t-54 -64.5q-10 -44 13 -67t81 -42q163 -47 223.5 -119.5
t40.5 -189.5q-22 -131 -132.5 -203.5t-260.5 -72.5q-100 0 -190 26t-138 62z" />
    <glyph glyph-name="t" unicode="t" horiz-adv-x="696" 
d="M440 -10q-265 0 -213 305l90 461h-110l16 135l129 31l105 276h164l-48 -276h232l-21 -166h-231l-86 -418q-9 -60 -8.5 -97.5t15.5 -59t33 -29t44 -7.5q54 0 106 29l-16 -131q-23 -21 -89 -37t-112 -16z" />
    <glyph glyph-name="u" unicode="u" 
d="M434 -20q-178 0 -239.5 123t-16.5 378l78 441h236l-78 -441q-18 -91 -17.5 -156t33 -101t98.5 -36q75 0 138 67t100 175l90 492h238l-162 -922h-215l18 137h-6q-55 -68 -132 -112.5t-163 -44.5z" />
    <glyph glyph-name="v" unicode="v" horiz-adv-x="921" 
d="M176 922h258l76 -680h8l330 680h225l-475 -922h-283z" />
    <glyph glyph-name="w" unicode="w" horiz-adv-x="1421" 
d="M174 922h260l49 -670h4l281 655h227l23 -655h6l324 670h229l-447 -922h-284l-10 592h-7l-262 -592h-266z" />
    <glyph glyph-name="x" unicode="x" horiz-adv-x="888" 
d="M25 0l372 461l-196 461h258l119 -277h6l217 277h227l-369 -465l191 -457h-258l-117 274h-6l-217 -274h-227z" />
    <glyph glyph-name="y" unicode="y" horiz-adv-x="929" 
d="M-16 -512h-54l25 205h53q120 0 229.5 86.5t178.5 226.5l-242 916h256l131 -635h8l308 635h210l-434 -889q-130 -271 -294 -408t-375 -137z" />
    <glyph glyph-name="z" unicode="z" horiz-adv-x="802" 
d="M252 922h655l-24 -177l-508 -573v-6h391l-21 -166h-686l23 174l528 576l2 6h-381z" />
    <glyph glyph-name="braceleft" unicode="{" horiz-adv-x="763" 
d="M362 324q17 102 -26 161.5t-125 59.5l25 135q81 0 146 60t83 161l57 332q46 242 389 242l-16 -99q-187 0 -219 -178l-55 -317q-16 -96 -82 -171.5t-174 -97.5q99 -22 138.5 -97t20.5 -171l-61 -354q-14 -89 20.5 -133.5t132.5 -44.5l-16 -99q-172 0 -248.5 59.5
t-54.5 182.5z" />
    <glyph glyph-name="bar" unicode="|" horiz-adv-x="395" 
d="M119 -143l299 1679h104l-297 -1679h-106z" />
    <glyph glyph-name="braceright" unicode="}" horiz-adv-x="753" 
d="M63 -287l17 88q98 0 156 47t73 132l64 364q16 96 82 171t174 97q-100 22 -139 97t-23 172l57 327q15 85 -25.5 131.5t-138.5 46.5l17 89q164 0 238 -65.5t55 -176.5l-60 -332q-18 -100 25 -160.5t125 -60.5l-25 -135q-82 0 -145.5 -59.5t-81.5 -161.5l-66 -369
q-19 -111 -117 -176.5t-262 -65.5z" />
    <glyph glyph-name="asciitilde" unicode="~" horiz-adv-x="1202" 
d="M193 561l22 168q37 32 110 66t150 34q54 0 108.5 -19.5t100 -47.5l91 -56t98 -47.5t104.5 -19.5q118 0 266 131l-20 -168q-119 -110 -265 -110q-62 0 -121 19.5t-104.5 47.5t-88.5 56t-91 47.5t-94 19.5q-75 0 -151 -41t-115 -80z" />
    <glyph glyph-name="exclamdown" unicode="&#xa1;" horiz-adv-x="512" 
d="M287 -512h-244l221 952h139zM354 633q-61 0 -98 45.5t-25 107.5q11 63 61.5 107.5t117.5 44.5q63 0 100.5 -45t26.5 -107q-12 -65 -62.5 -109t-120.5 -44z" />
    <glyph glyph-name="cent" unicode="&#xa2;" horiz-adv-x="919" 
d="M453 180q-143 26 -217 146.5t-39 318.5q33 186 144.5 314.5t276.5 154.5l35 199h156l-35 -193q129 -15 205 -73l-86 -154q-64 53 -170 53q-112 0 -188 -83.5t-99 -211.5q-25 -132 27 -215.5t160 -83.5q112 0 202 58l35 -152q-111 -71 -254 -84l-31 -174h-155z" />
    <glyph glyph-name="sterling" unicode="&#xa3;" horiz-adv-x="929" 
d="M51 0l33 180q93 86 146 161.5t71 164.5q0 3 6 72h-153l20 116h123q0 6 -3 41t-3.5 46t-1.5 40.5t-0.5 46t2.5 40.5t6 44q36 203 176.5 324t329.5 121q85 0 159.5 -24t112.5 -50l-96 -170q-1 0 -13 6.5t-16.5 8.5t-18 8.5t-22.5 9.5t-24.5 7.5t-28.5 6.5t-30.5 4t-34.5 2
q-93 0 -175.5 -71.5t-105.5 -196.5q-4 -25 -5.5 -60t-1.5 -54t1.5 -70.5t1.5 -59.5h340l-21 -116h-317q0 -106 -50.5 -200t-138.5 -188v-6h586l-33 -184h-821z" />
    <glyph glyph-name="currency" unicode="&#xa4;" horiz-adv-x="1134" 
d="M174 307l160 125q-52 113 -25 262q28 153 121 267l-117 126l90 82l93 -143q120 107 272 107q154 0 238 -105l141 141l61 -82l-159 -124q51 -115 24 -269q-23 -144 -119 -264l115 -123l-90 -82l-90 140q-121 -105 -275 -105q-156 0 -239 107l-139 -142zM481 694
q-21 -118 22.5 -201t137.5 -83t166.5 83t95.5 201q21 118 -23 202.5t-139 84.5q-94 0 -166.5 -84t-93.5 -203z" />
    <glyph glyph-name="yen" unicode="&#xa5;" horiz-adv-x="1255" 
d="M539 240h-308l29 153h305l25 131h-307l26 154h271l-283 655h266l213 -526h4l416 526l236 -2l-527 -653h281l-27 -154h-313l-23 -131h312l-27 -153h-313l-41 -240h-258z" />
    <glyph glyph-name="brokenbar" unicode="&#xa6;" horiz-adv-x="395" 
d="M293 840l125 696h104l-123 -696h-106zM119 -143l125 696h104l-123 -696h-106z" />
    <glyph glyph-name="section" unicode="&#xa7;" horiz-adv-x="1312" 
d="M43 -287l129 178q174 -110 369 -110q119 0 202.5 43t96.5 113q12 66 -54.5 109t-226.5 85q-410 111 -358 406q20 106 96 191.5t186 137.5v4q-89 89 -63 238q30 162 180 251t356 89q240 0 430 -115l-129 -178q-161 96 -325 96q-110 0 -177.5 -41.5t-78.5 -107.5
q-13 -70 52.5 -113.5t203.5 -77.5q108 -27 182 -61t125.5 -82t69 -113.5t2.5 -150.5q-40 -213 -279 -328l-2 -4q89 -89 64 -225q-16 -92 -72.5 -163.5t-138.5 -114t-176 -64t-195 -21.5q-123 0 -253 35t-216 94zM446 555q-16 -88 53.5 -143t219.5 -93q93 -21 139 -40
q82 31 139.5 82t69.5 112q15 92 -56.5 150t-246.5 100q-37 8 -102 29q-85 -21 -144.5 -76.5t-71.5 -120.5z" />
    <glyph glyph-name="dieresis" unicode="&#xa8;" horiz-adv-x="946" 
d="M864 1075q-60 0 -97.5 41.5t-29.5 97.5q8 62 52 103t110 41q57 0 94 -42t31 -102q-8 -57 -52.5 -98t-107.5 -41zM485 1075q-60 0 -97.5 41.5t-29.5 97.5q6 61 51 102.5t111 41.5q57 0 93.5 -42t29.5 -102q-6 -57 -51 -98t-107 -41z" />
    <glyph glyph-name="copyright" unicode="&#xa9;" horiz-adv-x="1468" 
d="M729 -20q-176 0 -309 92t-192 250t-27 344q25 140 97 266.5t174 218t233 145.5t268 54q132 0 242.5 -54t182 -145.5t100.5 -218t5 -266.5q-25 -140 -97.5 -266t-174.5 -218.5t-233.5 -147t-268.5 -54.5zM324 666q-20 -115 3 -220.5t80 -182t146.5 -122t196.5 -45.5
q144 0 279.5 76.5t230 208t122.5 285.5q27 154 -21 285.5t-156.5 208.5t-252.5 77q-143 0 -278 -77t-229 -208.5t-121 -285.5zM788 276q-67 0 -125.5 24.5t-102 71.5t-61.5 123.5t-1 170.5t59.5 170t100 122.5t123.5 71.5t134 25q110 0 184.5 -50.5t100.5 -148.5l-135 -74
q-16 60 -59 95.5t-109 35.5q-91 0 -155.5 -70t-82.5 -177q-19 -106 26.5 -178.5t137.5 -71.5q63 0 120.5 35.5t96.5 95.5l99 -70q-133 -201 -351 -201z" />
    <glyph glyph-name="ordfeminine" unicode="&#xaa;" horiz-adv-x="641" 
d="M438 911q-94 0 -147 65.5t-31 190.5q26 142 131 230t234 88q31 0 66 -3t52 -5t54 -8.5t39 -6.5l-70 -401q-18 -96 -12 -139h-138q-1 6 7 82h-5q-27 -36 -74 -64.5t-106 -28.5zM412 1180q-14 -75 9 -118.5t79 -43.5q52 0 95 51t54 115l33 186q-24 7 -74 10
q-71 0 -126.5 -60t-69.5 -140z" />
    <glyph glyph-name="guillemotleft" unicode="&#xab;" horiz-adv-x="927" 
d="M184 436l9 37l417 406h117l-424 -420l-4 -17l252 -415h-107zM702 27l-258 409l9 37l417 406h115l-424 -420l-4 -17l252 -415h-107z" />
    <glyph glyph-name="logicalnot" unicode="&#xac;" horiz-adv-x="858" 
d="M225 748h674l-78 -435h-143l53 297h-530z" />
    <glyph glyph-name="registered" unicode="&#xae;" horiz-adv-x="911" 
d="M582 717q-152 0 -240.5 108t-60.5 260q26 152 153 260.5t279 108.5q154 0 242.5 -108.5t60.5 -260.5q-26 -152 -153 -260t-281 -108zM356 1085q-23 -124 46.5 -211.5t191.5 -87.5q123 0 223.5 87t122.5 212q23 124 -47 211.5t-193 87.5q-121 0 -221.5 -87t-122.5 -212z
M483 901l68 379q64 6 123 6q70 0 103.5 -27t23.5 -85q-7 -35 -29 -60.5t-51 -38.5q14 -6 24 -19.5t15.5 -35.5t8 -39t5.5 -43.5t4 -36.5h-86q-1 5 -1.5 25.5t-2.5 37.5t-7 35.5t-17 29.5t-31 11h-43l-25 -139h-82zM600 1104h33q74 0 84 65q3 25 -11 39.5t-44 14.5
q-29 0 -41 -2z" />
    <glyph glyph-name="macron" unicode="&#xaf;" horiz-adv-x="983" 
d="M387 1098l14 104h592l-12 -104h-594z" />
    <glyph glyph-name="degree" unicode="&#xb0;" horiz-adv-x="649" 
d="M487 920q-113 0 -177 68t-42 196q23 128 112.5 197t201.5 69t176.5 -69t42.5 -197q-16 -86 -65 -147.5t-113 -89t-136 -27.5zM412 1184q-11 -65 14 -105.5t82 -40.5t97.5 41t51.5 105q12 64 -14 106t-82 43q-57 0 -97 -42t-52 -107z" />
    <glyph glyph-name="plusminus" unicode="&#xb1;" horiz-adv-x="1009" 
d="M543 748h-312l23 176h319l62 368h186l-63 -368h311l-20 -176h-320l-63 -367h-185zM135 78l21 145h770l-19 -145h-772z" />
    <glyph glyph-name="twosuperior" unicode="&#xb2;" horiz-adv-x="526" 
d="M227 922l19 96l231 201q27 22 42 36.5t34.5 42.5t24.5 54q6 34 -12 54.5t-54 20.5q-27 0 -53 -15.5t-41 -31.5t-41 -47l-76 51q103 148 242 148q83 0 126 -47.5t29 -122.5q-7 -42 -32 -81.5t-45 -59.5t-58 -54l-151 -135v-4h239l-18 -106h-406z" />
    <glyph glyph-name="threesuperior" unicode="&#xb3;" horiz-adv-x="524" 
d="M412 913q-123 0 -187 64l66 88q55 -49 135 -49q105 0 119 84q7 42 -19.5 64t-83.5 22h-53l14 82h54q52 0 83.5 22.5t37.5 59.5q5 33 -12.5 51t-59.5 18q-74 0 -148 -55l-32 84q101 76 206 76q84 0 128.5 -39t31.5 -115q-10 -53 -35 -81t-67 -48v-4q92 -43 74 -150
q-9 -49 -35.5 -84.5t-63.5 -54t-75 -27t-78 -8.5z" />
    <glyph glyph-name="acute" unicode="&#xb4;" horiz-adv-x="778" 
d="M721 1417h242l-342 -327h-142z" />
    <glyph glyph-name="paragraph" unicode="&#xb6;" horiz-adv-x="1099" 
d="M618 475q-187 0 -295 140.5t-73 338.5t193 339t345 141h486l-301 -1696h-146l275 1552h-137l-277 -1552h-145l131 737h-56z" />
    <glyph glyph-name="periodcentered" unicode="&#xb7;" horiz-adv-x="528" 
d="M367 537q-63 0 -102.5 44.5t-31.5 106.5q7 63 59.5 108.5t115.5 45.5q60 0 99 -45.5t32 -108.5q-7 -61 -58.5 -106t-113.5 -45z" />
    <glyph glyph-name="cedilla" unicode="&#xb8;" horiz-adv-x="589" 
d="M131 -352q-50 0 -102 18l26 90q41 -18 90 -18q45 0 78.5 13t40.5 42q7 30 -17.5 47t-60.5 17l-18 28l76 154h78l-54 -109q50 0 89.5 -35.5t31.5 -97.5q-10 -75 -81.5 -112t-176.5 -37z" />
    <glyph glyph-name="onesuperior" unicode="&#xb9;" horiz-adv-x="395" 
d="M311 1303l-32 86l202 120h82l-104 -587h-119l78 442h-4z" />
    <glyph glyph-name="ordmasculine" unicode="&#xba;" horiz-adv-x="649" 
d="M483 915q-117 0 -179 75.5t-38 211.5q24 134 114.5 210.5t205.5 76.5q117 0 180 -76t39 -211q-24 -136 -114 -211.5t-208 -75.5zM410 1202q-13 -74 11.5 -122t84.5 -48q61 0 103 48t55 122t-12.5 122t-86.5 48t-101.5 -48t-53.5 -122z" />
    <glyph glyph-name="guillemotright" unicode="&#xbb;" horiz-adv-x="927" 
d="M117 27l434 432l4 16l-260 404h102l262 -406l-6 -37l-420 -409h-116zM492 27h-117l434 432l4 16l-258 404h102l263 -406l-9 -37z" />
    <glyph glyph-name="onequarter" unicode="&#xbc;" horiz-adv-x="1093" 
d="M885 98h-267l17 84l356 406h88l-63 -400h65l-16 -90h-66l-16 -104h-115zM92 0l1047 1331h96l-1042 -1331h-101zM303 1139l-37 86l203 121h82l-102 -588h-121l84 442h-4zM932 420l-191 -232h160l33 232h-2z" />
    <glyph glyph-name="onehalf" unicode="&#xbd;" horiz-adv-x="1241" 
d="M772 0l19 96l231 201q90 75 98 133q6 34 -11 55t-52 21q-28 0 -54 -15.5t-41.5 -32t-39.5 -46.5l-78 51q107 147 241 147q84 0 127 -47t29 -123q-6 -42 -31 -81.5t-44 -58.5t-58 -54l-152 -135v-5h242l-20 -106h-406zM92 0l1047 1331h96l-1042 -1331h-101zM266 1225
l203 121h82l-102 -588h-121l84 442h-4l-105 -61z" />
    <glyph glyph-name="threequarters" unicode="&#xbe;" horiz-adv-x="1222" 
d="M750 98l14 84l356 406h90l-65 -400h65l-16 -90h-66l-16 -104h-115l17 104h-264zM186 793l64 88q56 -50 133 -50q48 0 81 21t42 63t-16.5 64t-81.5 22h-54l11 82h53q52 0 83.5 22.5t39.5 59.5q13 70 -68 70q-73 0 -147 -55l-39 84q103 75 209 75q84 0 128 -38.5t31 -114.5
q-10 -53 -35 -81t-67 -48v-4q92 -43 74 -150q-9 -49 -35.5 -84.5t-63.5 -54t-75 -27t-78 -8.5q-125 0 -189 64zM324 0h-103l1049 1331h96zM872 193v-5h158l35 232h-4z" />
    <glyph glyph-name="questiondown" unicode="&#xbf;" horiz-adv-x="856" 
d="M369 -528q-187 0 -287.5 96t-71.5 264q11 64 36.5 116t66.5 94.5t72 68t86 62.5t75 52q78 60 117.5 117.5t52.5 138.5h213q-8 -103 -54.5 -186.5t-162.5 -181.5q-22 -19 -70 -54t-80 -60t-64 -68t-42 -91q-18 -85 32 -129.5t134 -44.5q144 0 317 115l72 -168
q-111 -68 -209.5 -104.5t-232.5 -36.5zM641 639q-63 0 -103 45.5t-32 108.5q6 63 54.5 107t117.5 44q63 0 103 -44.5t34 -106.5q-8 -65 -56 -109.5t-118 -44.5z" />
    <glyph glyph-name="Agrave" unicode="&#xc0;" horiz-adv-x="1271" 
d="M47 0l754 1438h184l244 -1438h-268l-37 283h-488l-151 -283h-238zM520 473h369l-62 531h-4zM637 1825h229l119 -289h-156z" />
    <glyph glyph-name="Aacute" unicode="&#xc1;" horiz-adv-x="1271" 
d="M47 0l754 1438h184l244 -1438h-268l-37 283h-488l-151 -283h-238zM520 473h369l-62 531h-4zM1006 1536h-162l211 289h235z" />
    <glyph glyph-name="Acircumflex" unicode="&#xc2;" horiz-adv-x="1271" 
d="M47 0l754 1438h184l244 -1438h-268l-37 283h-488l-151 -283h-238zM823 1004l-303 -531h369l-62 531h-4zM590 1536l264 274h182l181 -274h-166l-119 145h-6l-170 -145h-166z" />
    <glyph glyph-name="Atilde" unicode="&#xc3;" horiz-adv-x="1271" 
d="M47 0l754 1438h184l244 -1438h-268l-37 283h-488l-151 -283h-238zM608 1544q25 106 88 171t162 65q38 0 68 -12.5t48.5 -30t34.5 -34.5t36 -29.5t45 -12.5q43 0 71.5 31.5t40.5 74.5h129q-22 -104 -87.5 -171.5t-164.5 -67.5q-47 0 -83 18t-54 39t-44.5 39t-55.5 18
q-76 0 -105 -98h-129zM520 473h369l-62 531h-4z" />
    <glyph glyph-name="Adieresis" unicode="&#xc4;" horiz-adv-x="1271" 
d="M47 0l754 1438h184l244 -1438h-268l-37 283h-488l-151 -283h-238zM823 1004l-303 -531h369l-62 531h-4zM1112 1548q-58 0 -95.5 44t-29.5 104t55 103.5t105 43.5q57 0 93.5 -43.5t29.5 -103.5t-54.5 -104t-103.5 -44zM692 1548q-58 0 -94.5 44t-30.5 104q8 60 55 103.5
t105 43.5q57 0 93.5 -43.5t29.5 -103.5q-8 -60 -54.5 -104t-103.5 -44z" />
    <glyph glyph-name="Aring" unicode="&#xc5;" horiz-adv-x="1271" 
d="M47 0l754 1438h184l244 -1438h-268l-37 283h-488l-151 -283h-238zM893 1466q-91 0 -147.5 61.5t-40.5 166.5q16 107 91.5 168t166.5 61t147.5 -61t40.5 -168q-16 -105 -91.5 -166.5t-166.5 -61.5zM823 1004l-303 -531h369l-62 531h-4zM834 1694q-9 -47 12 -78t61 -31
q39 0 73.5 31.5t43.5 77.5q9 50 -12.5 81t-63.5 31q-40 0 -72.5 -31.5t-41.5 -80.5z" />
    <glyph glyph-name="AE" unicode="&#xc6;" horiz-adv-x="1863" 
d="M289 0h-242l983 1434h977l-27 -222h-587l-84 -376h530l-24 -201h-531l-90 -414h588l-27 -221h-846l58 283h-475zM1130 1212l-526 -739h385l146 739h-5z" />
    <glyph glyph-name="Ccedilla" unicode="&#xc7;" horiz-adv-x="1247" 
d="M653 -10q-246 37 -360.5 234.5t-59.5 502.5q58 327 275 522t508 195q225 0 387 -96l-105 -201q-129 76 -294 76q-173 0 -314.5 -137.5t-185.5 -358.5q-44 -242 45.5 -385t261.5 -143q179 0 326 86l49 -185q-113 -65 -219.5 -91.5t-241.5 -26.5l-25 -52q50 0 90.5 -35.5
t30.5 -97.5q-10 -75 -81 -112t-177 -37q-50 0 -102 18l26 90q41 -18 91 -18q105 0 118 55q8 30 -16.5 47t-61.5 17l-16 28z" />
    <glyph glyph-name="Egrave" unicode="&#xc8;" horiz-adv-x="1097" 
d="M143 0l252 1434h846l-27 -222h-585l-86 -376h530l-24 -201h-529l-92 -414h588l-27 -221h-846zM580 1825h229l119 -289h-154z" />
    <glyph glyph-name="Eacute" unicode="&#xc9;" horiz-adv-x="1097" 
d="M143 0l252 1434h846l-27 -222h-585l-86 -376h530l-24 -201h-529l-92 -414h588l-27 -221h-846zM946 1825h236l-285 -289h-162z" />
    <glyph glyph-name="Ecircumflex" unicode="&#xca;" horiz-adv-x="1097" 
d="M989 0h-846l252 1434h846l-27 -222h-585l-86 -376h530l-24 -201h-529l-92 -414h588zM688 1536h-166l264 274h183l180 -274h-166l-117 145h-8z" />
    <glyph glyph-name="Edieresis" unicode="&#xcb;" horiz-adv-x="1097" 
d="M989 0h-846l252 1434h846l-27 -222h-585l-86 -376h530l-24 -201h-529l-92 -414h588zM1051 1548q-58 0 -94.5 44t-30.5 104q8 60 54.5 103.5t104.5 43.5q57 0 94 -43.5t31 -103.5q-8 -60 -55 -104t-104 -44zM633 1548q-58 0 -95.5 44t-29.5 104q6 60 53.5 103.5
t106.5 43.5q56 0 91.5 -43.5t28.5 -103.5q-6 -60 -52.5 -104t-102.5 -44z" />
    <glyph glyph-name="Igrave" unicode="&#xcc;" horiz-adv-x="542" 
d="M143 0l252 1434h258l-252 -1434h-258zM287 1825h229l117 -289h-154z" />
    <glyph glyph-name="Iacute" unicode="&#xcd;" horiz-adv-x="542" 
d="M143 0l252 1434h258l-252 -1434h-258zM659 1825h238l-285 -289h-161z" />
    <glyph glyph-name="Icircumflex" unicode="&#xce;" horiz-adv-x="542" 
d="M143 0l252 1434h258l-252 -1434h-258zM381 1536h-166l264 274h183l180 -274h-166l-117 145h-8z" />
    <glyph glyph-name="Idieresis" unicode="&#xcf;" horiz-adv-x="542" 
d="M143 0l252 1434h258l-252 -1434h-258zM758 1548q-58 0 -94.5 44t-30.5 104q8 60 55 103.5t105 43.5q57 0 94 -43.5t31 -103.5q-7 -60 -55 -104t-105 -44zM340 1548q-58 0 -95.5 44t-29.5 104q6 60 53.5 103.5t106.5 43.5q56 0 92 -43.5t29 -103.5q-6 -60 -53 -104
t-103 -44z" />
    <glyph glyph-name="Eth" unicode="&#xd0;" horiz-adv-x="1335" 
d="M127 666l16 137h142l108 624q218 17 430 17q304 0 449.5 -184.5t91.5 -501.5q-37 -222 -146 -397t-278.5 -276t-372.5 -101q-299 0 -424 16l117 666h-133zM739 666h-221l-92 -459q76 -8 170 -8q177 0 316 158.5t184 400.5q40 219 -38 345t-257 126q-91 0 -172 -8
l-84 -418h211z" />
    <glyph glyph-name="Ntilde" unicode="&#xd1;" horiz-adv-x="1337" 
d="M143 0l252 1434h242l362 -973h7l196 973h246l-250 -1434h-248l-360 936h-6l-193 -936h-248zM795 1544h-129q25 106 87.5 171t161.5 65q38 0 68 -12.5t48.5 -30t34 -34.5t35.5 -29.5t44 -12.5q45 0 74 31t41 75h129q-22 -104 -87.5 -171.5t-164.5 -67.5q-47 0 -83.5 18
t-55 39t-44.5 39t-55 18q-75 0 -104 -98z" />
    <glyph glyph-name="Ograve" unicode="&#xd2;" horiz-adv-x="1417" 
d="M707 -20q-185 0 -306.5 92.5t-165 259t-4.5 385.5q57 333 256 535t478 202q185 0 306 -92.5t164 -259t5 -385.5q-59 -333 -257.5 -535t-475.5 -202zM500 717q-47 -233 12 -371.5t221 -138.5q161 0 277 139t161 371q45 233 -14 371.5t-219 138.5q-162 0 -277.5 -138.5
t-160.5 -371.5zM907 1536l-192 289h229l119 -289h-156z" />
    <glyph glyph-name="Oacute" unicode="&#xd3;" horiz-adv-x="1417" 
d="M707 -20q-185 0 -306.5 92.5t-165 259t-4.5 385.5q57 333 256 535t478 202q185 0 306 -92.5t164 -259t5 -385.5q-59 -333 -257.5 -535t-475.5 -202zM500 717q-47 -233 12 -371.5t221 -138.5q161 0 277 139t161 371q45 233 -14 371.5t-219 138.5q-162 0 -277.5 -138.5
t-160.5 -371.5zM1065 1536h-162l209 289h238z" />
    <glyph glyph-name="Ocircumflex" unicode="&#xd4;" horiz-adv-x="1417" 
d="M707 -20q-185 0 -306.5 92.5t-165 259t-4.5 385.5q57 333 256 535t478 202q185 0 306 -92.5t164 -259t5 -385.5q-59 -333 -257.5 -535t-475.5 -202zM500 717q-47 -233 12 -371.5t221 -138.5q161 0 277 139t161 371q45 233 -14 371.5t-219 138.5q-162 0 -277.5 -138.5
t-160.5 -371.5zM834 1536h-166l264 274h182l178 -274h-166l-116 145h-9z" />
    <glyph glyph-name="Otilde" unicode="&#xd5;" horiz-adv-x="1417" 
d="M707 -20q-185 0 -306.5 92.5t-165 259t-4.5 385.5q57 333 256 535t478 202q185 0 306 -92.5t164 -259t5 -385.5q-59 -333 -257.5 -535t-475.5 -202zM500 717q-47 -233 12 -371.5t221 -138.5q161 0 277 139t161 371q45 233 -14 371.5t-219 138.5q-162 0 -277.5 -138.5
t-160.5 -371.5zM702 1544q25 106 87 171t161 65q38 0 68 -12.5t48.5 -30t34.5 -34.5t36 -29.5t45 -12.5q43 0 72.5 32t39.5 74h131q-22 -105 -87 -172t-164 -67q-48 0 -84.5 18t-54.5 39t-44 39t-55 18q-78 0 -107 -98h-127z" />
    <glyph glyph-name="Odieresis" unicode="&#xd6;" horiz-adv-x="1417" 
d="M707 -20q-185 0 -306.5 92.5t-165 259t-4.5 385.5q57 333 256 535t478 202q185 0 306 -92.5t164 -259t5 -385.5q-59 -333 -257.5 -535t-475.5 -202zM500 717q-47 -233 12 -371.5t221 -138.5q161 0 277 139t161 371q45 233 -14 371.5t-219 138.5q-162 0 -277.5 -138.5
t-160.5 -371.5zM1182 1548q-58 0 -94.5 44t-30.5 104q8 60 55 103.5t105 43.5q57 0 93 -43.5t29 -103.5q-6 -60 -53 -104t-104 -44zM762 1548q-58 0 -94.5 44t-28.5 104q6 60 53 103.5t105 43.5q57 0 93.5 -43.5t29.5 -103.5q-6 -60 -53.5 -104t-104.5 -44z" />
    <glyph glyph-name="multiply" unicode="&#xd7;" horiz-adv-x="1062" 
d="M692 758l307 264l105 -141l-307 -265l194 -264l-164 -141l-194 264l-307 -264l-105 141l307 264l-194 265l164 141z" />
    <glyph glyph-name="Oslash" unicode="&#xd8;" horiz-adv-x="1417" 
d="M377 90q-106 94 -144.5 256.5t-1.5 370.5q57 333 256 535t478 202q196 0 321 -104l98 135h95l-138 -193q161 -200 99 -575q-59 -333 -257.5 -535t-475.5 -202q-157 0 -269 65l-69 -96h-95zM532 307l598 828q-64 92 -192 92q-162 0 -277.5 -138.5t-160.5 -371.5
q-55 -276 32 -410zM1169 1057l-583 -807q58 -43 147 -43q161 0 277 139t161 371q42 208 -2 340z" />
    <glyph glyph-name="Ugrave" unicode="&#xd9;" horiz-adv-x="1228" 
d="M612 -16q-266 0 -359.5 163t-35.5 488l139 799h258l-143 -820q-44 -220 -2.5 -319.5t172.5 -99.5q135 -2 216.5 97.5t127.5 321.5l145 820h246l-139 -799q-57 -325 -208 -488t-417 -163zM817 1536l-194 289h229l119 -289h-154z" />
    <glyph glyph-name="Uacute" unicode="&#xda;" horiz-adv-x="1228" 
d="M612 -16q-266 0 -359.5 163t-35.5 488l139 799h258l-143 -820q-44 -220 -2.5 -319.5t172.5 -99.5q135 -2 216.5 97.5t127.5 321.5l145 820h246l-139 -799q-57 -325 -208 -488t-417 -163zM969 1536h-162l209 289h237z" />
    <glyph glyph-name="Ucircumflex" unicode="&#xdb;" horiz-adv-x="1228" 
d="M612 -16q-266 0 -359.5 163t-35.5 488l139 799h258l-143 -820q-44 -220 -2.5 -319.5t172.5 -99.5q135 -2 216.5 97.5t127.5 321.5l145 820h246l-139 -799q-57 -325 -208 -488t-417 -163zM739 1536h-164l265 274h180l180 -274h-166l-116 145h-9z" />
    <glyph glyph-name="Udieresis" unicode="&#xdc;" horiz-adv-x="1228" 
d="M612 -16q-266 0 -359.5 163t-35.5 488l139 799h258l-143 -820q-44 -220 -2.5 -319.5t172.5 -99.5q135 -2 216.5 97.5t127.5 321.5l145 820h246l-139 -799q-57 -325 -208 -488t-417 -163zM1085 1548q-58 0 -94 43.5t-30 104.5q8 60 54.5 103.5t104.5 43.5q57 0 94 -43.5
t31 -103.5q-7 -60 -55 -104t-105 -44zM668 1548q-58 0 -95.5 44t-29.5 104q6 60 53 103.5t106 43.5q56 0 92 -43.5t29 -103.5q-6 -60 -52.5 -104t-102.5 -44z" />
    <glyph glyph-name="Yacute" unicode="&#xdd;" horiz-adv-x="1255" 
d="M311 1434h271l198 -525h6l424 527l240 -2l-571 -729l-123 -705h-260l120 694zM1034 1825h238l-285 -289h-162z" />
    <glyph glyph-name="Thorn" unicode="&#xde;" horiz-adv-x="1122" 
d="M145 0l254 1434h254l-47 -269q86 6 160 6q239 0 350.5 -109.5t75.5 -320.5q-21 -114 -76 -203.5t-133 -144t-169 -82.5t-191 -30q-62 -2 -172 14l-52 -295h-254zM567 952l-80 -446q79 -14 148 -14q129 0 201 65.5t92 183.5q16 95 -32.5 156t-172.5 61q-85 0 -156 -6z" />
    <glyph glyph-name="germandbls" unicode="&#xdf;" horiz-adv-x="1275" 
d="M-170 -512h-37l37 205h37q131 0 198.5 72t98.5 245l174 975q44 254 202.5 401.5t383.5 147.5q84 0 152 -26.5t112 -71t70.5 -103t31 -122.5t-10 -130.5t-48.5 -124.5q-13 -7 -58 -23.5t-78 -31t-65.5 -48.5t-40.5 -79q-5 -31 8.5 -59.5t38.5 -51t56.5 -49.5t62 -55
t54 -66.5t33 -83.5t-0.5 -108q-17 -98 -80 -171.5t-151 -109.5t-189 -36q-99 0 -192 28.5t-142 65.5l109 153q97 -73 240 -73q71 0 125 43.5t63 101.5q7 39 -5.5 72.5t-38 58.5t-57.5 49.5t-63.5 51t-56 57t-35.5 75t-2 97.5q7 41 27.5 76.5t45 59t56.5 44.5t56.5 32t52 23
t36.5 17q24 47 29.5 101.5t-8 104t-59 82.5t-115.5 33q-125 0 -210 -107.5t-114 -273.5l-168 -946q-22 -128 -61.5 -220.5t-105 -162.5t-165 -104.5t-233.5 -34.5z" />
    <glyph glyph-name="agrave" unicode="&#xe0;" horiz-adv-x="1075" 
d="M449 -18q-74 0 -134 24t-105.5 75.5t-59.5 133t4 195.5q27 157 118.5 279.5t219.5 186.5t268 64q43 0 84 -2.5t83 -7.5t66 -8.5t67.5 -11t53.5 -9.5l-121 -668q-27 -167 -16 -233h-232q-2 27 17 137h-6q-47 -61 -127 -108t-180 -47zM403 430q-25 -126 11 -197t129 -71
q86 0 161.5 85.5t96.5 190.5l63 310q-57 14 -123 16q-118 0 -213.5 -99.5t-124.5 -234.5zM504 1417h237l197 -327h-137z" />
    <glyph glyph-name="aacute" unicode="&#xe1;" horiz-adv-x="1075" 
d="M449 -18q-74 0 -134 24t-105.5 75.5t-59.5 133t4 195.5q27 157 118.5 279.5t219.5 186.5t268 64q43 0 84 -2.5t83 -7.5t66 -8.5t67.5 -11t53.5 -9.5l-121 -668q-27 -167 -16 -233h-232q-2 27 17 137h-6q-47 -61 -127 -108t-180 -47zM403 430q-25 -126 11 -197t129 -71
q86 0 161.5 85.5t96.5 190.5l63 310q-57 14 -123 16q-118 0 -213.5 -99.5t-124.5 -234.5zM819 1090h-141l242 327h241z" />
    <glyph glyph-name="acircumflex" unicode="&#xe2;" horiz-adv-x="1075" 
d="M449 -18q-74 0 -134 24t-105.5 75.5t-59.5 133t4 195.5q27 157 118.5 279.5t219.5 186.5t268 64q43 0 84 -2.5t83 -7.5t66 -8.5t67.5 -11t53.5 -9.5l-121 -668q-27 -167 -16 -233h-232q-2 27 17 137h-6q-47 -61 -127 -108t-180 -47zM403 430q-25 -126 11 -197t129 -71
q86 0 161.5 85.5t96.5 190.5l63 310q-57 14 -123 16q-118 0 -213.5 -99.5t-124.5 -234.5zM604 1083h-141l291 326h176l157 -326h-139l-125 201h-6z" />
    <glyph glyph-name="atilde" unicode="&#xe3;" horiz-adv-x="1075" 
d="M449 -18q-74 0 -134 24t-105.5 75.5t-59.5 133t4 195.5q27 157 118.5 279.5t219.5 186.5t268 64q43 0 84 -2.5t83 -7.5t66 -8.5t67.5 -11t53.5 -9.5l-121 -668q-27 -167 -16 -233h-232q-2 27 17 137h-6q-47 -61 -127 -108t-180 -47zM403 430q-25 -126 11 -197t129 -71
q86 0 161.5 85.5t96.5 190.5l63 310q-57 14 -123 16q-118 0 -213.5 -99.5t-124.5 -234.5zM557 1118h-127q29 108 96.5 180t165.5 72q38 0 67 -14t46 -34t31.5 -39.5t33.5 -33.5t43 -14q42 0 73.5 37.5t49.5 83.5h129q-27 -106 -100 -180t-172 -74q-38 0 -67 13.5t-46 32
t-31.5 37.5t-33.5 32.5t-43 13.5q-72 0 -115 -113z" />
    <glyph glyph-name="adieresis" unicode="&#xe4;" horiz-adv-x="1075" 
d="M449 -18q-74 0 -134 24t-105.5 75.5t-59.5 133t4 195.5q27 157 118.5 279.5t219.5 186.5t268 64q43 0 84 -2.5t83 -7.5t66 -8.5t67.5 -11t53.5 -9.5l-121 -668q-27 -167 -16 -233h-232q-2 27 17 137h-6q-47 -61 -127 -108t-180 -47zM403 430q-25 -126 11 -197t129 -71
q86 0 161.5 85.5t96.5 190.5l63 310q-57 14 -123 16q-118 0 -213.5 -99.5t-124.5 -234.5zM606 1075q-59 0 -96 41.5t-31 97.5q8 61 52.5 102.5t109.5 41.5q58 0 95 -42.5t30 -101.5q-8 -57 -52.5 -98t-107.5 -41zM985 1075q-58 0 -95.5 41.5t-31.5 97.5q8 61 52.5 102.5
t109.5 41.5q59 0 95.5 -42t29.5 -102q-6 -57 -51.5 -98t-108.5 -41z" />
    <glyph glyph-name="aring" unicode="&#xe5;" horiz-adv-x="1075" 
d="M449 -18q-74 0 -134 24t-105.5 75.5t-59.5 133t4 195.5q27 157 118.5 279.5t219.5 186.5t268 64q43 0 84 -2.5t83 -7.5t66 -8.5t67.5 -11t53.5 -9.5l-121 -668q-27 -167 -16 -233h-232q-2 27 17 137h-6q-47 -61 -127 -108t-180 -47zM403 430q-25 -126 11 -197t129 -71
q86 0 161.5 85.5t96.5 190.5l63 310q-57 14 -123 16q-118 0 -213.5 -99.5t-124.5 -234.5zM780 946q-94 0 -148 61.5t-32 170.5q21 107 99.5 168t170.5 61q94 0 149 -61t34 -168q-22 -109 -101 -170.5t-172 -61.5zM733 1178q-10 -49 8.5 -79t57.5 -30t74 30.5t47 78.5
q10 47 -9.5 77.5t-58.5 30.5t-73 -30.5t-46 -77.5z" />
    <glyph glyph-name="ae" unicode="&#xe6;" horiz-adv-x="1449" 
d="M406 -23q-148 0 -220.5 87t-46.5 208q16 75 64.5 134t115.5 94t142.5 53t152.5 18h136l2 7q8 90 -29 133t-123 43q-125 0 -246 -72l-41 154q204 104 383 104q93 0 157.5 -36.5t88.5 -98.5h4q63 66 145.5 99.5t170.5 33.5q133 0 198 -77t41 -189q-13 -63 -58.5 -108.5
t-101.5 -70t-134 -38.5t-136 -17.5t-129 -3.5q-20 -123 34 -196.5t159 -73.5q66 0 140 16t109 37l19 -147q-146 -88 -334 -88q-97 0 -176.5 41.5t-124.5 119.5h-2q-166 -166 -360 -166zM387 291q-14 -65 18.5 -103t102.5 -38q56 0 120.5 37t98.5 79q-14 73 6 166h-115
q-83 0 -149 -36.5t-82 -104.5zM1237 768q-89 0 -161.5 -56t-110.5 -141l2 -2q179 2 262.5 25t95.5 78q9 40 -16.5 68t-71.5 28z" />
    <glyph glyph-name="ccedilla" unicode="&#xe7;" horiz-adv-x="874" 
d="M426 -8q-144 28 -219 149t-41 320q36 210 173 344.5t335 134.5q170 0 278 -78l-80 -153q-64 53 -170 53q-110 0 -188 -84t-104 -211q-26 -133 22 -216t154 -83q55 0 111 16.5t94 40.5l40 -151q-139 -88 -331 -88l-27 -56q50 0 89.5 -35.5t31.5 -97.5q-10 -75 -81.5 -112
t-176.5 -37q-51 0 -103 18l27 90q41 -18 90 -18q45 0 78.5 13t40.5 42q7 30 -17.5 47t-60.5 17l-18 28z" />
    <glyph glyph-name="egrave" unicode="&#xe8;" horiz-adv-x="907" 
d="M526 -18q-84 0 -155.5 31.5t-122 90t-71 151t-1.5 206.5q40 228 183.5 353.5t326.5 125.5q65 0 116.5 -20.5t82 -56.5t45 -81t9.5 -96.5t-28 -101.5q-39 -91 -170 -152.5t-356 -75.5q5 -93 56 -142.5t143 -49.5q65 0 135.5 16t107.5 37l31 -147q-142 -88 -332 -88z
M401 494q303 27 349 137q21 53 -0.5 95t-73.5 42q-98 0 -171 -81t-104 -193zM641 1090l-297 327h240l196 -327h-139z" />
    <glyph glyph-name="eacute" unicode="&#xe9;" horiz-adv-x="907" 
d="M526 -18q-84 0 -155.5 31.5t-122 90t-71 151t-1.5 206.5q40 228 183.5 353.5t326.5 125.5q65 0 116.5 -20.5t82 -56.5t45 -81t9.5 -96.5t-28 -101.5q-39 -91 -170 -152.5t-356 -75.5q5 -93 56 -142.5t143 -49.5q65 0 135.5 16t107.5 37l31 -147q-142 -88 -332 -88z
M401 494q303 27 349 137q21 53 -0.5 95t-73.5 42q-98 0 -171 -81t-104 -193zM571 1090l240 327h244l-342 -327h-142z" />
    <glyph glyph-name="ecircumflex" unicode="&#xea;" horiz-adv-x="907" 
d="M526 -18q-84 0 -155.5 31.5t-122 90t-71 151t-1.5 206.5q40 228 183.5 353.5t326.5 125.5q65 0 116.5 -20.5t82 -56.5t45 -81t9.5 -96.5t-28 -101.5q-39 -91 -170 -152.5t-356 -75.5q5 -93 56 -142.5t143 -49.5q65 0 135.5 16t107.5 37l31 -147q-142 -88 -332 -88z
M518 1083h-141l291 326h176l157 -326h-139l-125 201h-6zM401 494q303 27 349 137q21 53 -0.5 95t-73.5 42q-98 0 -171 -81t-104 -193z" />
    <glyph glyph-name="edieresis" unicode="&#xeb;" horiz-adv-x="907" 
d="M526 -18q-84 0 -155.5 31.5t-122 90t-71 151t-1.5 206.5q40 228 183.5 353.5t326.5 125.5q65 0 116.5 -20.5t82 -56.5t45 -81t9.5 -96.5t-28 -101.5q-39 -91 -170 -152.5t-356 -75.5q5 -93 56 -142.5t143 -49.5q65 0 135.5 16t107.5 37l31 -147q-142 -88 -332 -88z
M508 1075q-60 0 -97.5 41.5t-29.5 97.5q8 61 52.5 102.5t109.5 41.5q57 0 94 -42t31 -102q-8 -57 -52.5 -98t-107.5 -41zM887 1075q-59 0 -96 41.5t-31 97.5q8 61 52.5 102.5t109.5 41.5q58 0 95 -42.5t30 -101.5q-8 -57 -52.5 -98t-107.5 -41zM401 494q303 27 349 137
q21 53 -0.5 95t-73.5 42q-98 0 -171 -81t-104 -193z" />
    <glyph glyph-name="igrave" unicode="&#xec;" horiz-adv-x="505" 
d="M137 0l162 922h236l-162 -922h-236zM346 1417l197 -327h-140l-294 327h237z" />
    <glyph glyph-name="iacute" unicode="&#xed;" horiz-adv-x="505" 
d="M137 0l162 922h236l-162 -922h-236zM596 1417h244l-344 -327h-142z" />
    <glyph glyph-name="icircumflex" unicode="&#xee;" horiz-adv-x="505" 
d="M137 0l162 922h236l-162 -922h-236zM244 1083h-140l289 326h176l158 -326h-139l-123 201h-6z" />
    <glyph glyph-name="idieresis" unicode="&#xef;" horiz-adv-x="505" 
d="M137 0l162 922h236l-162 -922h-236zM633 1075q-59 0 -96 41.5t-31 97.5q8 61 52.5 102.5t109.5 41.5q58 0 95 -42.5t30 -101.5q-8 -57 -52.5 -98t-107.5 -41zM254 1075q-60 0 -97.5 41.5t-29.5 97.5q8 61 52.5 102.5t109.5 41.5q57 0 94 -42t31 -102q-8 -57 -52.5 -98
t-107.5 -41z" />
    <glyph glyph-name="eth" unicode="&#xf0;" horiz-adv-x="1150" 
d="M565 -16q-147 0 -246.5 65t-136 168.5t-14.5 228.5q32 178 175 303t339 125q158 0 252 -122h6q12 173 -55 284l-140 -82l-28 64l123 69q-66 60 -164 60q-32 0 -94 -17l-29 189q79 27 160 27q211 0 338 -136l170 97l26 -62l-153 -88q136 -206 71 -575
q-48 -274 -207.5 -436t-392.5 -162zM410 438q-22 -129 34.5 -202.5t151.5 -73.5q96 0 174 78t104 225q22 119 -35.5 184.5t-154.5 65.5q-99 0 -174.5 -73t-99.5 -204z" />
    <glyph glyph-name="ntilde" unicode="&#xf1;" 
d="M350 0h-235l161 922h213l-18 -136h6q54 68 131.5 112t163.5 44q179 0 241.5 -112.5t22.5 -350.5l-86 -479h-235l78 449q19 87 18 150t-34 98.5t-99 35.5q-74 0 -136.5 -67.5t-99.5 -173.5zM346 1108q31 109 97.5 180.5t164.5 71.5q38 0 67 -14t46 -34t31.5 -39.5
t33.5 -33.5t43 -14q44 0 75.5 37.5t47.5 83.5h129q-25 -105 -98 -179.5t-172 -74.5q-39 0 -68.5 13.5t-46.5 32t-31.5 37.5t-33.5 32.5t-43 13.5q-75 0 -113 -113h-129z" />
    <glyph glyph-name="ograve" unicode="&#xf2;" horiz-adv-x="1011" 
d="M504 -18q-88 0 -159.5 30.5t-121.5 91t-68.5 150t1.5 207.5q20 115 71 207.5t121 151t152.5 89.5t169.5 31q88 0 159.5 -30.5t121.5 -91t68.5 -150t-1.5 -207.5q-40 -226 -185.5 -352.5t-328.5 -126.5zM399 461q-27 -135 4.5 -214t122.5 -79q93 0 158 79.5t92 213.5
q27 136 -4.5 215.5t-124.5 79.5q-92 0 -156.5 -79.5t-91.5 -215.5zM657 1090l-297 327h240l195 -327h-138z" />
    <glyph glyph-name="oacute" unicode="&#xf3;" horiz-adv-x="1011" 
d="M504 -18q-88 0 -159.5 30.5t-121.5 91t-68.5 150t1.5 207.5q20 115 71 207.5t121 151t152.5 89.5t169.5 31q88 0 159.5 -30.5t121.5 -91t68.5 -150t-1.5 -207.5q-40 -226 -185.5 -352.5t-328.5 -126.5zM399 461q-27 -135 4.5 -214t122.5 -79q93 0 158 79.5t92 213.5
q27 136 -4.5 215.5t-124.5 79.5q-92 0 -156.5 -79.5t-91.5 -215.5zM735 1090h-141l242 327h241z" />
    <glyph glyph-name="ocircumflex" unicode="&#xf4;" horiz-adv-x="1011" 
d="M504 -18q-88 0 -159.5 30.5t-121.5 91t-68.5 150t1.5 207.5q20 115 71 207.5t121 151t152.5 89.5t169.5 31q88 0 159.5 -30.5t121.5 -91t68.5 -150t-1.5 -207.5q-40 -226 -185.5 -352.5t-328.5 -126.5zM399 461q-27 -135 4.5 -214t122.5 -79q93 0 158 79.5t92 213.5
q27 136 -4.5 215.5t-124.5 79.5q-92 0 -156.5 -79.5t-91.5 -215.5zM528 1083h-141l291 326h176l158 -326h-140l-124 201h-7z" />
    <glyph glyph-name="otilde" unicode="&#xf5;" horiz-adv-x="1011" 
d="M504 -18q-88 0 -159.5 30.5t-121.5 91t-68.5 150t1.5 207.5q20 115 71 207.5t121 151t152.5 89.5t169.5 31q88 0 159.5 -30.5t121.5 -91t68.5 -150t-1.5 -207.5q-40 -226 -185.5 -352.5t-328.5 -126.5zM399 461q-27 -135 4.5 -214t122.5 -79q93 0 158 79.5t92 213.5
q27 136 -4.5 215.5t-124.5 79.5q-92 0 -156.5 -79.5t-91.5 -215.5zM446 1108h-127q29 108 97 180t166 72q38 0 67 -14t46 -34t31.5 -39.5t33.5 -33.5t43 -14q42 0 74 38t47 83h131q-27 -105 -100.5 -179.5t-172.5 -74.5q-38 0 -67 13.5t-46 32t-31.5 37.5t-33.5 32.5
t-43 13.5q-77 0 -115 -113z" />
    <glyph glyph-name="odieresis" unicode="&#xf6;" horiz-adv-x="1011" 
d="M504 -18q-88 0 -159.5 30.5t-121.5 91t-68.5 150t1.5 207.5q20 115 71 207.5t121 151t152.5 89.5t169.5 31q88 0 159.5 -30.5t121.5 -91t68.5 -150t-1.5 -207.5q-40 -226 -185.5 -352.5t-328.5 -126.5zM399 461q-27 -135 4.5 -214t122.5 -79q93 0 158 79.5t92 213.5
q27 136 -4.5 215.5t-124.5 79.5q-92 0 -156.5 -79.5t-91.5 -215.5zM893 1075q-59 0 -96 41.5t-31 97.5q8 61 52.5 102.5t109.5 41.5q58 0 95 -42.5t30 -101.5q-8 -57 -52.5 -98t-107.5 -41zM514 1075q-60 0 -97.5 41.5t-29.5 97.5q8 61 52.5 102.5t109.5 41.5q57 0 94 -42
t31 -102q-8 -57 -52.5 -98t-107.5 -41z" />
    <glyph glyph-name="divide" unicode="&#xf7;" horiz-adv-x="1073" 
d="M1081 461h-893l29 135h893zM698 756q-55 0 -85.5 41.5t-18.5 97.5q12 59 60.5 101t103.5 42q54 0 84 -42t18 -101q-10 -55 -59 -97t-103 -42zM539 -2q-57 0 -88 42t-19 99q12 58 61 100t105 42q54 0 84 -42t18 -100q-12 -57 -60 -99t-101 -42z" />
    <glyph glyph-name="oslash" unicode="&#xf8;" horiz-adv-x="1011" 
d="M250 72q-138 132 -94 389q20 115 71 207.5t121 151t152.5 89.5t169.5 31q126 0 209 -57l90 116l59 -36l-94 -123q129 -132 84 -379q-40 -226 -185.5 -352.5t-328.5 -126.5q-117 0 -199 49l-84 -109l-59 35zM397 262l351 453q-35 41 -101 41q-92 0 -156.5 -79.5
t-91.5 -215.5q-25 -125 -2 -199zM780 643l-344 -444q36 -31 90 -31q93 0 158 79.5t92 213.5q22 112 4 182z" />
    <glyph glyph-name="ugrave" unicode="&#xf9;" 
d="M434 -20q-178 0 -239.5 123t-16.5 378l78 441h236l-78 -441q-18 -91 -17.5 -156t33 -101t98.5 -36q75 0 138 67t100 175l90 492h238l-162 -922h-215l18 137h-6q-55 -68 -132 -112.5t-163 -44.5zM336 1417h237l197 -327h-139z" />
    <glyph glyph-name="uacute" unicode="&#xfa;" 
d="M434 -20q-178 0 -239.5 123t-16.5 378l78 441h236l-78 -441q-18 -91 -17.5 -156t33 -101t98.5 -36q75 0 138 67t100 175l90 492h238l-162 -922h-215l18 137h-6q-55 -68 -132 -112.5t-163 -44.5zM766 1090h-141l241 327h242z" />
    <glyph glyph-name="ucircumflex" unicode="&#xfb;" 
d="M434 -20q-178 0 -239.5 123t-16.5 378l78 441h236l-78 -441q-18 -91 -17.5 -156t33 -101t98.5 -36q75 0 138 67t100 175l90 492h238l-162 -922h-215l18 137h-6q-55 -68 -132 -112.5t-163 -44.5zM391 1083l289 326h176l158 -326h-140l-122 201h-7l-215 -201h-139z" />
    <glyph glyph-name="udieresis" unicode="&#xfc;" 
d="M434 -20q-178 0 -239.5 123t-16.5 378l78 441h236l-78 -441q-18 -91 -17.5 -156t33 -101t98.5 -36q75 0 138 67t100 175l90 492h238l-162 -922h-215l18 137h-6q-55 -68 -132 -112.5t-163 -44.5zM901 1075q-59 0 -96 41.5t-31 97.5q8 61 52.5 102.5t109.5 41.5
q58 0 95 -42.5t30 -101.5q-8 -57 -52.5 -98t-107.5 -41zM522 1075q-60 0 -97.5 41.5t-29.5 97.5q8 61 52.5 102.5t109.5 41.5q57 0 94 -42t31 -102q-8 -57 -52.5 -98t-107.5 -41z" />
    <glyph glyph-name="yacute" unicode="&#xfd;" horiz-adv-x="929" 
d="M-16 -512h-54l25 205h53q120 0 229.5 86.5t178.5 226.5l-242 916h256l131 -635h8l308 635h210l-434 -889q-130 -271 -294 -408t-375 -137zM705 1090h-140l240 327h244z" />
    <glyph glyph-name="thorn" unicode="&#xfe;" horiz-adv-x="1069" 
d="M25 -512l346 1946h231l-119 -648h6q119 154 295 154q73 0 133.5 -25.5t105 -79t59.5 -136.5t-3 -197q-21 -118 -79 -214.5t-138 -158t-173.5 -94.5t-190.5 -33q-62 0 -148 14l-94 -528h-231zM432 483l-55 -315q4 -1 27 -5.5t45 -7.5t45 -3q122 0 214.5 99.5t118.5 240.5
q23 126 -15 197t-132 71q-85 0 -156.5 -85t-91.5 -192z" />
    <glyph glyph-name="ydieresis" unicode="&#xff;" horiz-adv-x="929" 
d="M-16 -512h-54l25 205h53q120 0 229.5 86.5t178.5 226.5l-242 916h256l131 -635h8l308 635h210l-434 -889q-130 -271 -294 -408t-375 -137zM887 1075q-59 0 -96 41.5t-31 97.5q8 61 52.5 102.5t109.5 41.5q58 0 95 -42.5t30 -101.5q-8 -57 -52.5 -98t-107.5 -41zM508 1075
q-60 0 -97.5 41.5t-29.5 97.5q8 61 52.5 102.5t109.5 41.5q57 0 94 -42t31 -102q-8 -57 -52.5 -98t-107.5 -41z" />
    <glyph glyph-name="Amacron" unicode="&#x100;" horiz-adv-x="1271" 
d="M47 0l754 1438h184l244 -1438h-268l-37 283h-488l-151 -283h-238zM520 473h369l-62 531h-4zM1298 1589h-768l15 105h768z" />
    <glyph glyph-name="amacron" unicode="&#x101;" horiz-adv-x="1075" 
d="M449 -18q-74 0 -134 24t-105.5 75.5t-59.5 133t4 195.5q27 157 118.5 279.5t219.5 186.5t268 64q43 0 84 -2.5t83 -7.5t66 -8.5t67.5 -11t53.5 -9.5l-121 -668q-27 -167 -16 -233h-232q-2 27 17 137h-6q-47 -61 -127 -108t-180 -47zM403 430q-25 -126 11 -197t129 -71
q86 0 161.5 85.5t96.5 190.5l63 310q-57 14 -123 16q-118 0 -213.5 -99.5t-124.5 -234.5zM1092 1098h-592l14 104h592z" />
    <glyph glyph-name="Abreve" unicode="&#x102;" horiz-adv-x="1271" 
d="M47 0l754 1438h184l244 -1438h-268l-37 283h-488l-151 -283h-238zM903 1499q-55 0 -102.5 13.5t-89.5 44t-64 88t-16 135.5h176q-5 -64 24 -102t87 -38q57 0 99.5 38t61.5 102h176q-17 -78 -55.5 -135.5t-89 -87.5t-102 -44t-105.5 -14zM823 1004l-303 -531h369l-62 531
h-4z" />
    <glyph glyph-name="abreve" unicode="&#x103;" horiz-adv-x="1075" 
d="M449 -18q-74 0 -134 24t-105.5 75.5t-59.5 133t4 195.5q27 157 118.5 279.5t219.5 186.5t268 64q43 0 84 -2.5t83 -7.5t66 -8.5t67.5 -11t53.5 -9.5l-121 -668q-27 -167 -16 -233h-232q-2 27 17 137h-6q-47 -61 -127 -108t-180 -47zM403 430q-25 -126 11 -197t129 -71
q86 0 161.5 85.5t96.5 190.5l63 310q-57 14 -123 16q-118 0 -213.5 -99.5t-124.5 -234.5zM776 1047q-56 0 -102.5 16.5t-83 50t-52.5 91.5t-6 134h170q-9 -66 15 -108.5t82 -42.5q57 0 100 41.5t68 109.5h168q-20 -76 -59 -134t-88 -91.5t-102.5 -50t-109.5 -16.5z" />
    <glyph glyph-name="Aogonek" unicode="&#x104;" horiz-adv-x="1271" 
d="M47 0l754 1438h184l244 -1438h-21q-38 0 -92 -52.5t-65 -113.5q-8 -37 7 -54.5t42 -17.5q28 0 53 17l-16 -103q-35 -20 -84 -20q-32 0 -57.5 7t-46.5 23.5t-29 47t0 73.5q10 53 50 104t93 89h-102l-37 283h-488l-151 -283h-238zM823 1004l-303 -531h369l-62 531h-4z" />
    <glyph glyph-name="aogonek" unicode="&#x105;" horiz-adv-x="1075" 
d="M449 -18q-74 0 -134 24t-105.5 75.5t-59.5 133t4 195.5q27 157 118.5 279.5t219.5 186.5t268 64q43 0 84 -2.5t83 -7.5t66 -8.5t67.5 -11t53.5 -9.5l-121 -668q-27 -167 -16 -233h-16q-39 0 -93 -52.5t-67 -113.5q-8 -36 7.5 -54t41.5 -18q25 0 55 17l-18 -103
q-10 -7 -36 -13.5t-48 -6.5q-68 0 -107.5 34.5t-25.5 116.5q11 54 51 105t92 88h-68q-2 27 17 137h-6q-47 -61 -127 -108t-180 -47zM403 430q-25 -126 11 -197t129 -71q86 0 161.5 85.5t96.5 190.5l63 310q-57 14 -123 16q-118 0 -213.5 -99.5t-124.5 -234.5z" />
    <glyph glyph-name="Cacute" unicode="&#x106;" horiz-adv-x="1247" 
d="M758 -18q-296 0 -440.5 203.5t-84.5 541.5q58 327 275 522t508 195q225 0 387 -96l-105 -201q-129 76 -294 76q-173 0 -314.5 -137.5t-185.5 -358.5q-44 -242 45.5 -385t261.5 -143q179 0 326 86l49 -185q-207 -118 -428 -118zM1106 1536h-162l209 289h238z" />
    <glyph glyph-name="cacute" unicode="&#x107;" horiz-adv-x="874" 
d="M508 -16q-84 0 -153.5 29.5t-120 89t-69 149t0.5 209.5q36 210 173 344.5t335 134.5q170 0 278 -78l-80 -153q-64 53 -170 53q-110 0 -188 -84t-104 -211q-26 -133 22 -216t154 -83q55 0 111 16.5t94 40.5l40 -151q-146 -90 -323 -90zM608 1090l240 327h244l-342 -327
h-142z" />
    <glyph glyph-name="Ccircumflex" unicode="&#x108;" horiz-adv-x="1247" 
d="M758 -18q-296 0 -440.5 203.5t-84.5 541.5q58 327 275 522t508 195q225 0 387 -96l-105 -201q-129 76 -294 76q-173 0 -314.5 -137.5t-185.5 -358.5q-44 -242 45.5 -385t261.5 -143q179 0 326 86l49 -185q-207 -118 -428 -118zM883 1536h-166l264 274h182l180 -274h-165
l-117 145h-8z" />
    <glyph glyph-name="ccircumflex" unicode="&#x109;" horiz-adv-x="874" 
d="M508 -16q-84 0 -153.5 29.5t-120 89t-69 149t0.5 209.5q36 210 173 344.5t335 134.5q170 0 278 -78l-80 -153q-64 53 -170 53q-110 0 -188 -84t-104 -211q-26 -133 22 -216t154 -83q55 0 111 16.5t94 40.5l40 -151q-146 -90 -323 -90zM526 1083h-139l289 326h176
l158 -326h-140l-122 201h-7z" />
    <glyph glyph-name="Cdotaccent" unicode="&#x10a;" horiz-adv-x="1247" 
d="M758 -18q-296 0 -440.5 203.5t-84.5 541.5q58 327 275 522t508 195q225 0 387 -96l-105 -201q-129 76 -294 76q-173 0 -314.5 -137.5t-185.5 -358.5q-44 -242 45.5 -385t261.5 -143q179 0 326 86l49 -185q-207 -118 -428 -118zM1067 1548q-58 0 -94.5 44t-30.5 104
q8 60 55 103.5t105 43.5q57 0 93.5 -43.5t29.5 -103.5q-6 -60 -53.5 -104t-104.5 -44z" />
    <glyph glyph-name="cdotaccent" unicode="&#x10b;" horiz-adv-x="874" 
d="M508 -16q-84 0 -153.5 29.5t-120 89t-69 149t0.5 209.5q36 210 173 344.5t335 134.5q170 0 278 -78l-80 -153q-64 53 -170 53q-110 0 -188 -84t-104 -211q-26 -133 22 -216t154 -83q55 0 111 16.5t94 40.5l40 -151q-146 -90 -323 -90zM707 1075q-58 0 -94.5 41.5
t-28.5 97.5q9 61 55 102.5t111 41.5q57 0 93 -42t27 -102q-8 -57 -54 -98t-109 -41z" />
    <glyph glyph-name="Ccaron" unicode="&#x10c;" horiz-adv-x="1247" 
d="M758 -18q-296 0 -440.5 203.5t-84.5 541.5q58 327 275 522t508 195q225 0 387 -96l-105 -201q-129 76 -294 76q-173 0 -314.5 -137.5t-185.5 -358.5q-44 -242 45.5 -385t261.5 -143q179 0 326 86l49 -185q-207 -118 -428 -118zM758 1810h164l120 -145h7l168 145h165
l-262 -274h-182z" />
    <glyph glyph-name="ccaron" unicode="&#x10d;" horiz-adv-x="874" 
d="M508 -16q-84 0 -153.5 29.5t-120 89t-69 149t0.5 209.5q36 210 173 344.5t335 134.5q170 0 278 -78l-80 -153q-64 53 -170 53q-110 0 -188 -84t-104 -211q-26 -133 22 -216t154 -83q55 0 111 16.5t94 40.5l40 -151q-146 -90 -323 -90zM444 1409h140l125 -203h6l213 203
h141l-291 -326h-176z" />
    <glyph glyph-name="Dcaron" unicode="&#x10e;" horiz-adv-x="1335" 
d="M567 -16q-299 0 -424 16l250 1427q218 17 430 17q304 0 449.5 -184.5t91.5 -501.5q-37 -222 -146 -397t-278.5 -276t-372.5 -101zM426 207q76 -8 170 -8q177 0 316 158.5t184 400.5q40 219 -38 345t-257 126q-91 0 -172 -8zM551 1810h166l121 -145h6l168 145h166
l-263 -274h-182z" />
    <glyph glyph-name="dcaron" unicode="&#x10f;" horiz-adv-x="1515" 
d="M449 -18q-74 0 -134 24t-105.5 75.5t-59.5 133t4 195.5q27 157 118.5 279.5t219.5 186.5t268 64q49 0 127 -8l108 604h232l-273 -1536h-209l19 137h-6q-49 -61 -129.5 -108t-179.5 -47zM403 430q-25 -126 11 -197t129 -71q86 0 161.5 85.5t96.5 190.5l63 310
q-57 14 -123 16q-118 0 -213.5 -99.5t-124.5 -234.5zM1477 1042h-113q114 227 162 494h155q-25 -145 -82.5 -273.5t-121.5 -220.5z" />
    <glyph glyph-name="Dcroat" unicode="&#x110;" horiz-adv-x="1335" 
d="M127 666l16 137h142l108 624q218 17 430 17q304 0 449.5 -184.5t91.5 -501.5q-37 -222 -146 -397t-278.5 -276t-372.5 -101q-299 0 -424 16l117 666h-133zM739 666h-221l-92 -459q76 -8 170 -8q177 0 316 158.5t184 400.5q40 219 -38 345t-257 126q-91 0 -172 -8
l-84 -418h211z" />
    <glyph glyph-name="dcroat" unicode="&#x111;" horiz-adv-x="1069" 
d="M449 -18q-74 0 -134 24t-105.5 75.5t-59.5 133t4 195.5q27 157 118.5 279.5t219.5 186.5t268 64q49 0 127 -8l28 166h-245l14 104h252l59 334h232l-60 -334h109l-12 -104h-115l-195 -1098h-209l19 137h-6q-49 -61 -129.5 -108t-179.5 -47zM403 430q-25 -126 11 -197
t129 -71q86 0 161.5 85.5t96.5 190.5l63 310q-57 14 -123 16q-118 0 -213.5 -99.5t-124.5 -234.5z" />
    <glyph glyph-name="Emacron" unicode="&#x112;" horiz-adv-x="1097" 
d="M143 0l252 1434h846l-27 -222h-585l-86 -376h530l-24 -201h-529l-92 -414h588l-27 -221h-846zM459 1589l14 105h768l-14 -105h-768z" />
    <glyph glyph-name="emacron" unicode="&#x113;" horiz-adv-x="907" 
d="M526 -18q-84 0 -155.5 31.5t-122 90t-71 151t-1.5 206.5q40 228 183.5 353.5t326.5 125.5q65 0 116.5 -20.5t82 -56.5t45 -81t9.5 -96.5t-28 -101.5q-39 -91 -170 -152.5t-356 -75.5q5 -93 56 -142.5t143 -49.5q65 0 135.5 16t107.5 37l31 -147q-142 -88 -332 -88z
M401 494q303 27 349 137q21 53 -0.5 95t-73.5 42q-98 0 -171 -81t-104 -193zM989 1098h-592l15 104h592z" />
    <glyph glyph-name="Ebreve" unicode="&#x114;" horiz-adv-x="1097" 
d="M989 0h-846l252 1434h846l-27 -222h-585l-86 -376h530l-24 -201h-529l-92 -414h588zM821 1499q-54 0 -101.5 14t-89.5 44t-64.5 87.5t-16.5 135.5h176q-5 -64 24 -102t87 -38q57 0 99.5 38t61.5 102h177q-17 -78 -55.5 -135.5t-89.5 -87.5t-102.5 -44t-105.5 -14z" />
    <glyph glyph-name="ebreve" unicode="&#x115;" horiz-adv-x="907" 
d="M526 -18q-84 0 -155.5 31.5t-122 90t-71 151t-1.5 206.5q40 228 183.5 353.5t326.5 125.5q65 0 116.5 -20.5t82 -56.5t45 -81t9.5 -96.5t-28 -101.5q-39 -91 -170 -152.5t-356 -75.5q5 -93 56 -142.5t143 -49.5q65 0 135.5 16t107.5 37l31 -147q-142 -88 -332 -88z
M686 1047q-119 0 -191.5 72t-52.5 220h168q-9 -66 15 -108.5t82 -42.5q57 0 99.5 41.5t67.5 109.5h170q-27 -101 -86.5 -168.5t-127.5 -95.5t-144 -28zM401 494q303 27 349 137q21 53 -0.5 95t-73.5 42q-98 0 -171 -81t-104 -193z" />
    <glyph glyph-name="Edotaccent" unicode="&#x116;" horiz-adv-x="1097" 
d="M989 0h-846l252 1434h846l-27 -222h-585l-86 -376h530l-24 -201h-529l-92 -414h588zM866 1548q-58 0 -94.5 44t-28.5 104q6 60 53 103.5t105 43.5q57 0 94.5 -43.5t30.5 -103.5t-55 -104t-105 -44z" />
    <glyph glyph-name="edotaccent" unicode="&#x117;" horiz-adv-x="907" 
d="M526 -18q-84 0 -155.5 31.5t-122 90t-71 151t-1.5 206.5q40 228 183.5 353.5t326.5 125.5q65 0 116.5 -20.5t82 -56.5t45 -81t9.5 -96.5t-28 -101.5q-39 -91 -170 -152.5t-356 -75.5q5 -93 56 -142.5t143 -49.5q65 0 135.5 16t107.5 37l31 -147q-142 -88 -332 -88z
M690 1075q-59 0 -96 41.5t-29 97.5q9 61 55 102.5t111 41.5q58 0 94 -42.5t27 -101.5q-8 -57 -54 -98t-108 -41zM401 494q303 27 349 137q21 53 -0.5 95t-73.5 42q-98 0 -171 -81t-104 -193z" />
    <glyph glyph-name="Eogonek" unicode="&#x118;" horiz-adv-x="1097" 
d="M838 0h-695l252 1434h846l-27 -222h-585l-86 -376h530l-24 -201h-529l-92 -414h588l-27 -221h-4q-39 0 -93 -52.5t-67 -113.5q-8 -36 7.5 -54t41.5 -18t56 17l-19 -103q-10 -7 -36 -13.5t-48 -6.5q-68 0 -107.5 34.5t-25.5 116.5q11 53 51.5 104.5t92.5 88.5z" />
    <glyph glyph-name="eogonek" unicode="&#x119;" horiz-adv-x="907" 
d="M516 -16q-83 2 -152.5 33.5t-118.5 90t-68.5 150t-0.5 203.5q40 228 183.5 353.5t326.5 125.5q65 0 116.5 -20.5t82 -56.5t45 -81t9.5 -96.5t-28 -101.5q-39 -91 -170 -152.5t-356 -75.5q5 -93 56 -142.5t143 -49.5q65 0 135.5 16t107.5 37l31 -147q-82 -53 -199 -76
q-41 -16 -81 -62t-50 -96q-8 -38 7.5 -56t42.5 -18q28 0 53 17l-17 -103q-47 -20 -84 -20q-68 0 -107.5 34.5t-25.5 116.5q16 93 119 177zM401 494q303 27 349 137q21 53 -0.5 95t-73.5 42q-98 0 -171 -81t-104 -193z" />
    <glyph glyph-name="Ecaron" unicode="&#x11a;" horiz-adv-x="1097" 
d="M989 0h-846l252 1434h846l-27 -222h-585l-86 -376h530l-24 -201h-529l-92 -414h588zM731 1536l-182 274h166l119 -145h8l168 145h166l-265 -274h-180z" />
    <glyph glyph-name="ecaron" unicode="&#x11b;" horiz-adv-x="907" 
d="M526 -18q-84 0 -155.5 31.5t-122 90t-71 151t-1.5 206.5q40 228 183.5 353.5t326.5 125.5q65 0 116.5 -20.5t82 -56.5t45 -81t9.5 -96.5t-28 -101.5q-39 -91 -170 -152.5t-356 -75.5q5 -93 56 -142.5t143 -49.5q65 0 135.5 16t107.5 37l31 -147q-142 -88 -332 -88z
M446 1409h142l125 -203h6l213 203h139l-289 -326h-178zM401 494q303 27 349 137q21 53 -0.5 95t-73.5 42q-98 0 -171 -81t-104 -193z" />
    <glyph glyph-name="Gcircumflex" unicode="&#x11c;" horiz-adv-x="1310" 
d="M782 -20q-313 0 -462 201t-87 556q59 330 283 519.5t531 189.5q107 0 218.5 -26t196.5 -70l-104 -201q-152 80 -322 80q-195 0 -339.5 -129.5t-190.5 -362.5q-50 -261 32.5 -400.5t270.5 -139.5q119 0 238 55l65 309h-268l24 191h484l-109 -641q-109 -60 -230 -95.5
t-231 -35.5zM743 1536l265 274h182l178 -274h-164l-119 145h-6l-170 -145h-166z" />
    <glyph glyph-name="gcircumflex" unicode="&#x11d;" horiz-adv-x="1056" 
d="M348 -508q-95 -1 -203 25t-161 63l94 174q46 -33 123 -55t151 -21q79 0 142.5 29t107 80.5t72 114.5t43.5 139l20 96h-6q-48 -62 -124 -108.5t-175 -46.5q-74 0 -134 24t-105 75.5t-59 133t3 195.5q42 236 217 383t389 147q43 0 84.5 -2.5t84.5 -7.5t66.5 -8.5
t68.5 -11.5t53 -9l-152 -860q-43 -254 -196 -401.5t-404 -147.5zM389 430q-27 -126 8.5 -197t128.5 -71q86 0 162 86t96 190l64 310q-51 13 -125 16q-117 0 -212 -99.5t-122 -234.5zM598 1083h-141l291 326h176l157 -326h-139l-125 201h-6z" />
    <glyph glyph-name="Gbreve" unicode="&#x11e;" horiz-adv-x="1310" 
d="M782 -20q-313 0 -462 201t-87 556q59 330 283 519.5t531 189.5q107 0 218.5 -26t196.5 -70l-104 -201q-152 80 -322 80q-195 0 -339.5 -129.5t-190.5 -362.5q-50 -261 32.5 -400.5t270.5 -139.5q119 0 238 55l65 309h-268l24 191h484l-109 -641q-109 -60 -230 -95.5
t-231 -35.5zM1061 1499q-54 0 -101.5 14t-89.5 44t-63.5 87.5t-15.5 135.5h174q-5 -64 24.5 -102t87.5 -38q57 0 99 37.5t63 102.5h174q-17 -78 -55.5 -135.5t-89 -87.5t-102 -44t-105.5 -14z" />
    <glyph glyph-name="gbreve" unicode="&#x11f;" horiz-adv-x="1056" 
d="M348 -508q-95 -1 -203 25t-161 63l94 174q46 -33 123 -55t151 -21q79 0 142.5 29t107 80.5t72 114.5t43.5 139l20 96h-6q-48 -62 -124 -108.5t-175 -46.5q-74 0 -134 24t-105 75.5t-59 133t3 195.5q42 236 217 383t389 147q43 0 84.5 -2.5t84.5 -7.5t66.5 -8.5
t68.5 -11.5t53 -9l-152 -860q-43 -254 -196 -401.5t-404 -147.5zM389 430q-27 -126 8.5 -197t128.5 -71q86 0 162 86t96 190l64 310q-51 13 -125 16q-117 0 -212 -99.5t-122 -234.5zM754 1047q-119 0 -191.5 72t-52.5 220h168q-10 -67 14.5 -109t81.5 -42t100 41.5t68 109.5
h170q-21 -76 -60 -134t-88 -91.5t-102 -50t-108 -16.5z" />
    <glyph glyph-name="Gdotaccent" unicode="&#x120;" horiz-adv-x="1310" 
d="M782 -20q-313 0 -462 201t-87 556q59 330 283 519.5t531 189.5q107 0 218.5 -26t196.5 -70l-104 -201q-152 80 -322 80q-195 0 -339.5 -129.5t-190.5 -362.5q-50 -261 32.5 -400.5t270.5 -139.5q119 0 238 55l65 309h-268l24 191h484l-109 -641q-109 -60 -230 -95.5
t-231 -35.5zM1098 1548q-58 0 -94.5 44t-30.5 104q8 60 55 103.5t105 43.5q57 0 93.5 -43.5t30.5 -103.5q-8 -60 -55 -104t-104 -44z" />
    <glyph glyph-name="gdotaccent" unicode="&#x121;" horiz-adv-x="1056" 
d="M-16 -420l94 174q46 -33 123 -55t151 -21q79 0 142.5 29t107 80.5t72 114.5t43.5 139l20 96h-6q-48 -62 -124 -108.5t-175 -46.5q-74 0 -134 24t-105 75.5t-59 133t3 195.5q42 236 217 383t389 147q43 0 84.5 -2.5t84.5 -7.5t66.5 -8.5t68.5 -11.5t53 -9l-152 -860
q-43 -254 -196 -401.5t-404 -147.5q-95 -1 -203 25t-161 63zM389 430q-27 -126 8.5 -197t128.5 -71q86 0 162 86t96 190l64 310q-51 13 -125 16q-117 0 -212 -99.5t-122 -234.5zM731 1075q-60 0 -96 41.5t-27 97.5q8 61 54 102.5t112 41.5q57 0 92.5 -42t28.5 -102
q-9 -57 -55 -98t-109 -41z" />
    <glyph glyph-name="uni0122" unicode="&#x122;" horiz-adv-x="1310" 
d="M782 -20q-313 0 -462 201t-87 556q59 330 283 519.5t531 189.5q107 0 218.5 -26t196.5 -70l-104 -201q-152 80 -322 80q-195 0 -339.5 -129.5t-190.5 -362.5q-50 -261 32.5 -400.5t270.5 -139.5q119 0 238 55l65 309h-268l24 191h484l-109 -641q-109 -60 -230 -95.5
t-231 -35.5zM530 -387l19 108q60 20 99 76.5t42 147.5h158q-2 -121 -96 -221.5t-222 -110.5z" />
    <glyph glyph-name="uni0123" unicode="&#x123;" horiz-adv-x="1056" 
d="M-16 -420l94 174q46 -33 123 -55t151 -21q79 0 142.5 29t107 80.5t72 114.5t43.5 139l20 96h-6q-48 -62 -124 -108.5t-175 -46.5q-74 0 -134 24t-105 75.5t-59 133t3 195.5q42 236 217 383t389 147q43 0 84.5 -2.5t84.5 -7.5t66.5 -8.5t68.5 -11.5t53 -9l-152 -860
q-43 -254 -196 -401.5t-404 -147.5q-95 -1 -203 25t-161 63zM389 430q-27 -126 8.5 -197t128.5 -71q86 0 162 86t96 190l64 310q-51 13 -125 16q-117 0 -212 -99.5t-122 -234.5zM848 1081h-158q2 122 96.5 222.5t221.5 109.5l-19 -106q-60 -20 -99 -76.5t-42 -149.5z" />
    <glyph glyph-name="Hcircumflex" unicode="&#x124;" horiz-adv-x="1304" 
d="M401 0h-258l252 1434h258l-108 -586h502l108 586h260l-252 -1434h-258l115 627h-502zM602 1536l264 274h183l180 -274h-166l-117 145h-8l-170 -145h-166z" />
    <glyph glyph-name="hcircumflex" unicode="&#x125;" 
d="M350 0h-235l270 1536h236l-136 -741h4q56 64 128.5 105.5t154.5 41.5q179 0 241.5 -112.5t22.5 -350.5l-86 -479h-235l78 449q19 87 18 150t-34 98.5t-99 35.5q-74 0 -136.5 -67.5t-99.5 -173.5zM369 1597h-164l264 275h180l180 -275h-165l-117 146h-8z" />
    <glyph glyph-name="Hbar" unicode="&#x126;" horiz-adv-x="1304" 
d="M346 1153l49 281h258l-53 -281h504l51 281h260l-49 -281h70l-13 -104h-75l-185 -1049h-258l115 627h-502l-117 -627h-258l185 1049h-105l13 104h110zM1083 1049h-501l-37 -201h502z" />
    <glyph glyph-name="hbar" unicode="&#x127;" 
d="M350 0h-235l192 1098h-117l15 104h121l59 334h236l-62 -334h238l-15 -104h-241l-56 -303h4q56 64 128.5 105.5t154.5 41.5q179 0 241.5 -112.5t22.5 -350.5l-86 -479h-235l78 449q19 87 18 150t-34 98.5t-99 35.5q-74 0 -136.5 -67.5t-99.5 -173.5z" />
    <glyph glyph-name="Itilde" unicode="&#x128;" horiz-adv-x="542" 
d="M143 0l252 1434h258l-252 -1434h-258zM219 1544q25 106 88 171t162 65q38 0 68 -12.5t48 -30t34 -34.5t36 -29.5t45 -12.5q43 0 72 31.5t41 74.5h129q-20 -104 -86 -171.5t-166 -67.5q-47 0 -83 18t-54 39t-43.5 39t-54.5 18q-78 0 -107 -98h-129z" />
    <glyph glyph-name="itilde" unicode="&#x129;" horiz-adv-x="505" 
d="M137 0l162 922h236l-162 -922h-236zM94 1108q31 109 97.5 180.5t164.5 71.5q38 0 67 -14t46.5 -34t32 -39.5t33.5 -33.5t43 -14q44 0 75 37.5t47 83.5h129q-25 -105 -98 -179.5t-172 -74.5q-39 0 -68.5 13.5t-46.5 32t-31.5 37.5t-33.5 32.5t-43 13.5q-75 0 -113 -113
h-129z" />
    <glyph glyph-name="Imacron" unicode="&#x12a;" horiz-adv-x="542" 
d="M143 0l252 1434h258l-252 -1434h-258zM150 1589l12 105h768l-12 -105h-768z" />
    <glyph glyph-name="imacron" unicode="&#x12b;" horiz-adv-x="505" 
d="M137 0l162 922h236l-162 -922h-236zM137 1098l15 104h591l-14 -104h-592z" />
    <glyph glyph-name="Ibreve" unicode="&#x12c;" horiz-adv-x="542" 
d="M401 0h-258l252 1434h258zM530 1499q-54 0 -101.5 14t-89.5 44t-64.5 87.5t-16.5 135.5h176q-5 -64 24 -102t87 -38q57 0 100 38t62 102h176q-17 -78 -55.5 -135.5t-89.5 -87.5t-102.5 -44t-105.5 -14z" />
    <glyph glyph-name="ibreve" unicode="&#x12d;" horiz-adv-x="505" 
d="M373 0h-236l162 922h236zM422 1047q-119 0 -191.5 72t-52.5 220h168q-10 -67 14.5 -109t81.5 -42t100 41.5t68 109.5h170q-21 -76 -60 -134t-88 -91.5t-102 -50t-108 -16.5z" />
    <glyph glyph-name="Iogonek" unicode="&#x12e;" horiz-adv-x="542" 
d="M233 -344q-32 0 -57.5 7t-46.5 23.5t-29 47t0 73.5q10 53 50.5 104t93.5 89h-101l252 1434h258l-252 -1434h-10q-40 0 -94.5 -52.5t-65.5 -113.5q-8 -37 7.5 -54.5t42.5 -17.5t53 17l-17 -103q-35 -20 -84 -20z" />
    <glyph glyph-name="iogonek" unicode="&#x12f;" horiz-adv-x="505" 
d="M201 -344q-31 0 -56 7t-46 23.5t-29.5 47t-1.5 73.5q11 53 52 104.5t93 88.5h-76l162 922h236l-162 -922h-15q-39 0 -92.5 -52.5t-66.5 -113.5q-7 -37 8.5 -54.5t40.5 -17.5q30 0 55 17l-16 -103q-35 -20 -86 -20zM467 1169q-61 0 -98 44.5t-29 107.5q7 63 56.5 108.5
t109.5 45.5t98 -45.5t29 -108.5q-7 -63 -56.5 -107.5t-109.5 -44.5z" />
    <glyph glyph-name="Idotaccent" unicode="&#x130;" horiz-adv-x="542" 
d="M401 0h-258l252 1434h258zM549 1548q-58 0 -94.5 44t-30.5 104q8 60 55 103.5t105 43.5q57 0 93.5 -43.5t29.5 -103.5q-6 -60 -53.5 -104t-104.5 -44z" />
    <glyph glyph-name="dotlessi" unicode="&#x131;" horiz-adv-x="505" 
d="M137 0l162 922h236l-162 -922h-236z" />
    <glyph glyph-name="IJ" unicode="&#x132;" horiz-adv-x="1355" 
d="M584 25l59 200q26 -11 78 -20.5t96 -9.5q109 -2 172.5 67t97.5 240l170 932h248l-172 -932q-40 -266 -169 -392t-371 -126q-48 0 -115 13.5t-94 27.5zM401 0h-258l252 1434h258z" />
    <glyph glyph-name="ij" unicode="&#x133;" horiz-adv-x="925" 
d="M227 -512l37 205h35q136 0 202.5 75.5t98.5 262.5l160 891h231l-162 -912q-23 -128 -63 -221t-105.5 -162.5t-164.5 -104t-232 -34.5h-37zM139 0l164 922h232l-164 -922h-232zM918 1169q-61 0 -95.5 44.5t-23.5 107.5q10 63 61 107.5t111 44.5q59 0 93.5 -44.5
t22.5 -107.5q-10 -63 -60 -107.5t-109 -44.5zM461 1169q-61 0 -95.5 44.5t-23.5 107.5t61.5 108.5t110.5 45.5q59 0 94 -45.5t25 -108.5q-10 -62 -61.5 -107t-110.5 -45z" />
    <glyph glyph-name="Jcircumflex" unicode="&#x134;" horiz-adv-x="837" 
d="M63 25l62 200q26 -11 78 -20.5t96 -9.5q109 -2 172.5 67t97.5 240l170 932h246l-170 -932q-40 -265 -170 -391.5t-371 -126.5q-48 0 -115 13.5t-96 27.5zM729 1536h-166l264 274h183l180 -274h-166l-117 145h-8z" />
    <glyph glyph-name="jcircumflex" unicode="&#x135;" horiz-adv-x="473" 
d="M-219 -512h-37l37 205h37q135 0 201 75t100 263l157 891h232l-162 -912q-22 -128 -61.5 -220.5t-105 -162.5t-165 -104.5t-233.5 -34.5zM268 1083h-139l289 326h178l158 -326h-142l-123 201h-6z" />
    <glyph glyph-name="uni0136" unicode="&#x136;" horiz-adv-x="1269" 
d="M143 0l252 1434h258l-112 -582h4l573 582h285l-641 -646l489 -788h-338l-348 582l-65 -64l-99 -518h-258zM397 -387l19 108q60 20 99 76.5t42 147.5h160q-3 -122 -98 -222t-222 -110z" />
    <glyph glyph-name="uni0137" unicode="&#x137;" horiz-adv-x="991" 
d="M350 0h-235l270 1536h236l-187 -989h6l391 375h246l-362 -351l223 -571h-258l-137 395l-144 -135zM244 -387l18 108q60 20 99 76.5t42 147.5h160q-3 -122 -97.5 -222t-221.5 -110z" />
    <glyph glyph-name="kgreenlandic" unicode="&#x138;" horiz-adv-x="991" 
d="M346 0h-231l164 922h231l-66 -375h7l383 375h239l-360 -351l219 -571h-252l-148 395l-139 -135z" />
    <glyph glyph-name="Lacute" unicode="&#x139;" horiz-adv-x="1073" 
d="M143 0l252 1434h258l-225 -1213h606l-24 -221h-867zM674 1825h237l-284 -289h-162z" />
    <glyph glyph-name="lacute" unicode="&#x13a;" horiz-adv-x="462" 
d="M115 0l270 1536h236l-271 -1536h-235zM639 1886h238l-285 -289h-162z" />
    <glyph glyph-name="uni013B" unicode="&#x13b;" horiz-adv-x="1073" 
d="M1010 0h-867l252 1434h258l-225 -1213h606zM336 -387l18 108q60 20 99.5 76.5t42.5 147.5h157q-2 -121 -95.5 -221.5t-221.5 -110.5z" />
    <glyph glyph-name="uni013C" unicode="&#x13c;" horiz-adv-x="485" 
d="M350 0h-235l270 1536h236zM311 -55q-2 -121 -95.5 -221.5t-221.5 -110.5l16 108q61 20 100.5 76t43.5 148h157z" />
    <glyph glyph-name="Lcaron" unicode="&#x13d;" horiz-adv-x="1073" 
d="M143 0l252 1434h258l-225 -1213h606l-24 -221h-867zM1098 1042h-113q114 227 162 494h156q-25 -145 -83 -273.5t-122 -220.5z" />
    <glyph glyph-name="lcaron" unicode="&#x13e;" horiz-adv-x="878" 
d="M350 0h-235l270 1536h236zM840 1042h-113q114 229 160 494h157q-26 -145 -83.5 -273t-120.5 -221z" />
    <glyph glyph-name="Ldot" unicode="&#x13f;" horiz-adv-x="1073" 
d="M1010 0h-867l252 1434h258l-225 -1213h606zM913 659q-64 0 -103.5 45t-31.5 107q9 63 60 108.5t114 45.5q62 0 101 -45.5t30 -108.5q-7 -61 -58.5 -106.5t-111.5 -45.5z" />
    <glyph glyph-name="ldot" unicode="&#x140;" horiz-adv-x="841" 
d="M350 0h-235l270 1536h236zM737 537q-64 0 -103.5 44.5t-31.5 106.5q9 63 60 108.5t114 45.5q62 0 101 -45.5t30 -108.5q-7 -61 -58.5 -106t-111.5 -45z" />
    <glyph glyph-name="Lslash" unicode="&#x141;" horiz-adv-x="1073" 
d="M106 412l-51 118l201 107l139 797h258l-121 -650l285 154l53 -119l-366 -196l-76 -402h606l-24 -221h-867l84 475z" />
    <glyph glyph-name="lslash" unicode="&#x142;" horiz-adv-x="462" 
d="M479 731l260 135l43 -118l-331 -173l-101 -575h-235l78 442l-203 -102l-43 119l272 139l166 938h236z" />
    <glyph glyph-name="Nacute" unicode="&#x143;" horiz-adv-x="1337" 
d="M143 0l252 1434h242l362 -973h7l196 973h246l-250 -1434h-248l-360 936h-6l-193 -936h-248zM870 1536l209 289h238l-285 -289h-162z" />
    <glyph glyph-name="nacute" unicode="&#x144;" 
d="M350 0h-235l161 922h213l-18 -136h6q54 68 131.5 112t163.5 44q179 0 241.5 -112.5t22.5 -350.5l-86 -479h-235l78 449q19 87 18 150t-34 98.5t-99 35.5q-74 0 -136.5 -67.5t-99.5 -173.5zM774 1090h-141l239 327h244z" />
    <glyph glyph-name="uni0145" unicode="&#x145;" horiz-adv-x="1337" 
d="M143 0l252 1434h242l362 -973h7l196 973h246l-250 -1434h-248l-360 936h-6l-193 -936h-248zM436 -387l19 108q60 20 99 76.5t42 147.5h158q-2 -121 -96 -221.5t-222 -110.5z" />
    <glyph glyph-name="uni0146" unicode="&#x146;" 
d="M350 0h-235l161 922h213l-18 -136h6q54 68 131.5 112t163.5 44q179 0 241.5 -112.5t22.5 -350.5l-86 -479h-235l78 449q19 87 18 150t-34 98.5t-99 35.5q-74 0 -136.5 -67.5t-99.5 -173.5zM289 -387l18 108q61 20 100.5 76t43.5 148h157q-2 -79 -45 -153t-116 -123
t-158 -56z" />
    <glyph glyph-name="Ncaron" unicode="&#x147;" horiz-adv-x="1337" 
d="M143 0l252 1434h242l362 -973h7l196 973h246l-250 -1434h-248l-360 936h-6l-193 -936h-248zM670 1810h166l118 -145h9l167 145h166l-262 -274h-182z" />
    <glyph glyph-name="ncaron" unicode="&#x148;" 
d="M350 0h-235l161 922h213l-18 -136h6q54 68 131.5 112t163.5 44q179 0 241.5 -112.5t22.5 -350.5l-86 -479h-235l78 449q19 87 18 150t-34 98.5t-99 35.5q-74 0 -136.5 -67.5t-99.5 -173.5zM461 1409h139l125 -203h6l213 203h141l-290 -326h-177z" />
    <glyph glyph-name="napostrophe" unicode="&#x149;" horiz-adv-x="1153" 
d="M225 0l162 922h213l-18 -136h6q54 68 131.5 112t163.5 44q179 0 241.5 -112.5t22.5 -350.5l-86 -479h-236l78 449q19 87 18 150t-34 98.5t-99 35.5q-73 0 -135.5 -67.5t-99.5 -173.5l-92 -492h-236zM188 1042q110 221 160 494h158q-26 -145 -84.5 -273.5t-122.5 -220.5
h-111z" />
    <glyph glyph-name="Eng" unicode="&#x14a;" horiz-adv-x="1388" 
d="M387 0h-242l304 1434h239l354 -973h7l206 973h242l-313 -1479q-49 -231 -182.5 -349t-370.5 -118q-48 0 -114 13.5t-93 27.5l76 199q27 -11 80 -21t96 -10q108 0 172.5 61t93.5 197l8 43l-358 938h-6z" />
    <glyph glyph-name="eng" unicode="&#x14b;" 
d="M346 0h-231l196 922h211l-20 -136h6q56 68 133.5 112t163.5 44q179 0 237 -112.5t7 -350.5l-95 -448q-115 -539 -592 -539l41 197q130 0 207 87.5t117 274.5l84 398q18 87 16.5 150t-35 98.5t-100.5 35.5q-75 0 -137.5 -67t-101.5 -174z" />
    <glyph glyph-name="Omacron" unicode="&#x14c;" horiz-adv-x="1417" 
d="M707 -20q-185 0 -306.5 92.5t-165 259t-4.5 385.5q57 333 256 535t478 202q185 0 306 -92.5t164 -259t5 -385.5q-59 -333 -257.5 -535t-475.5 -202zM500 717q-47 -233 12 -371.5t221 -138.5q161 0 277 139t161 371q45 233 -14 371.5t-219 138.5q-162 0 -277.5 -138.5
t-160.5 -371.5zM1378 1589h-768l13 105h768z" />
    <glyph glyph-name="omacron" unicode="&#x14d;" horiz-adv-x="1011" 
d="M504 -18q-88 0 -159.5 30.5t-121.5 91t-68.5 150t1.5 207.5q20 115 71 207.5t121 151t152.5 89.5t169.5 31q88 0 159.5 -30.5t121.5 -91t68.5 -150t-1.5 -207.5q-40 -226 -185.5 -352.5t-328.5 -126.5zM399 461q-27 -135 4.5 -214t122.5 -79q93 0 158 79.5t92 213.5
q27 136 -4.5 215.5t-124.5 79.5q-92 0 -156.5 -79.5t-91.5 -215.5zM991 1098h-592l15 104h592z" />
    <glyph glyph-name="Obreve" unicode="&#x14e;" horiz-adv-x="1417" 
d="M707 -20q-185 0 -306.5 92.5t-165 259t-4.5 385.5q57 333 256 535t478 202q185 0 306 -92.5t164 -259t5 -385.5q-59 -333 -257.5 -535t-475.5 -202zM500 717q-47 -233 12 -371.5t221 -138.5q161 0 277 139t161 371q45 233 -14 371.5t-219 138.5q-162 0 -277.5 -138.5
t-160.5 -371.5zM956 1499q-54 0 -101.5 14t-89.5 44t-63.5 87.5t-15.5 135.5h174q-5 -64 25 -102t88 -38q57 0 99 37.5t63 102.5h174q-17 -78 -55.5 -135.5t-89.5 -87.5t-102.5 -44t-105.5 -14z" />
    <glyph glyph-name="obreve" unicode="&#x14f;" horiz-adv-x="1011" 
d="M504 -18q-88 0 -159.5 30.5t-121.5 91t-68.5 150t1.5 207.5q20 115 71 207.5t121 151t152.5 89.5t169.5 31q88 0 159.5 -30.5t121.5 -91t68.5 -150t-1.5 -207.5q-40 -226 -185.5 -352.5t-328.5 -126.5zM399 461q-27 -135 4.5 -214t122.5 -79q93 0 158 79.5t92 213.5
q27 136 -4.5 215.5t-124.5 79.5q-92 0 -156.5 -79.5t-91.5 -215.5zM682 1047q-119 0 -191.5 72t-52.5 220h168q-10 -67 14.5 -109t81.5 -42t100 41.5t68 109.5h170q-21 -76 -60 -134t-88 -91.5t-102 -50t-108 -16.5z" />
    <glyph glyph-name="Ohungarumlaut" unicode="&#x150;" horiz-adv-x="1417" 
d="M707 -20q-185 0 -306.5 92.5t-165 259t-4.5 385.5q57 333 256 535t478 202q185 0 306 -92.5t164 -259t5 -385.5q-59 -333 -257.5 -535t-475.5 -202zM500 717q-47 -233 12 -371.5t221 -138.5q161 0 277 139t161 371q45 233 -14 371.5t-219 138.5q-162 0 -277.5 -138.5
t-160.5 -371.5zM1055 1536l233 289h232l-293 -289h-172zM700 1536l211 289h232l-287 -289h-156z" />
    <glyph glyph-name="ohungarumlaut" unicode="&#x151;" horiz-adv-x="1011" 
d="M504 -18q-88 0 -159.5 30.5t-121.5 91t-68.5 150t1.5 207.5q20 115 71 207.5t121 151t152.5 89.5t169.5 31q88 0 159.5 -30.5t121.5 -91t68.5 -150t-1.5 -207.5q-40 -226 -185.5 -352.5t-328.5 -126.5zM399 461q-27 -135 4.5 -214t122.5 -79q93 0 158 79.5t92 213.5
q27 136 -4.5 215.5t-124.5 79.5q-92 0 -156.5 -79.5t-91.5 -215.5zM780 1090l252 329h236l-353 -329h-135zM614 1090h-133l217 329h211z" />
    <glyph glyph-name="OE" unicode="&#x152;" horiz-adv-x="1921" 
d="M778 -12q-309 0 -456 200t-86 539q39 218 153 380.5t281.5 248.5t367.5 86q144 0 222 -8h806l-41 -222h-587l-68 -376h531l-35 -201h-531l-73 -414h589l-41 -221h-804q-78 -12 -228 -12zM502 727q-43 -243 51 -382.5t281 -139.5q114 0 174 14l174 985q-73 17 -172 17
q-188 0 -328 -135.5t-180 -358.5z" />
    <glyph glyph-name="oe" unicode="&#x153;" horiz-adv-x="1509" 
d="M502 -18q-88 0 -158.5 30.5t-117.5 91t-61.5 150t9.5 207.5q49 226 199.5 352.5t331.5 126.5q96 0 168 -39.5t108 -116.5h2q68 75 157 115.5t183 40.5q79 0 135.5 -34.5t81.5 -87t24.5 -116t-28.5 -122.5q-39 -88 -171 -146t-361 -72q2 -94 53.5 -146t144.5 -52
q64 0 136 16t108 37l16 -147q-146 -88 -334 -88q-94 0 -167 42.5t-109 120.5h-6q-69 -80 -158.5 -121.5t-185.5 -41.5zM414 461q-30 -134 2 -213.5t125 -79.5q94 0 159.5 79t94.5 214q29 136 -3 215.5t-126 79.5q-93 0 -158 -79.5t-94 -215.5zM1024 487q156 14 250.5 50.5
t114.5 93.5q20 56 -4 96.5t-78 40.5q-109 0 -183 -82t-100 -199z" />
    <glyph glyph-name="Racute" unicode="&#x154;" horiz-adv-x="1204" 
d="M143 0l250 1423q269 21 406 21q122 0 212.5 -24t152 -74t85 -132.5t4.5 -193.5q-25 -129 -106 -224.5t-189 -144.5v-6q42 -17 74.5 -59t51 -92t33.5 -121.5t21.5 -127.5t15.5 -131t15 -114h-278q-3 19 -6 95.5t-11.5 141t-27.5 136.5t-62 114.5t-106 42.5h-176l-101 -530
h-258zM528 743h127q137 0 220.5 67t111.5 194q22 105 -34.5 166t-184.5 61q-72 0 -139 -6zM717 1536l211 289h237l-284 -289h-164z" />
    <glyph glyph-name="racute" unicode="&#x155;" horiz-adv-x="747" 
d="M350 0h-235l161 922h213l-14 -154h6q54 80 151 130.5t206 39.5l-25 -217q-34 6 -65 6q-114 0 -192 -73.5t-112 -184.5zM639 1090h-141l241 327h242z" />
    <glyph glyph-name="uni0156" unicode="&#x156;" horiz-adv-x="1204" 
d="M143 0l250 1423q269 21 406 21q122 0 212.5 -24t152 -74t85 -132.5t4.5 -193.5q-25 -129 -106 -224.5t-189 -144.5v-6q42 -17 74.5 -59t51 -92t33.5 -121.5t21.5 -127.5t15.5 -131t15 -114h-278q-3 19 -6 95.5t-11.5 141t-27.5 136.5t-62 114.5t-106 42.5h-176l-101 -530
h-258zM528 743h127q137 0 220.5 67t111.5 194q22 105 -34.5 166t-184.5 61q-72 0 -139 -6zM709 -55q-2 -121 -96 -221.5t-222 -110.5l19 108q60 20 99 76.5t42 147.5h158z" />
    <glyph glyph-name="uni0157" unicode="&#x157;" horiz-adv-x="747" 
d="M350 0h-235l161 922h213l-14 -154h6q54 80 151 130.5t206 39.5l-25 -217q-34 6 -65 6q-114 0 -192 -73.5t-112 -184.5zM309 -55q-3 -122 -97.5 -222t-221.5 -110l18 108q60 20 100 76.5t44 147.5h157z" />
    <glyph glyph-name="Rcaron" unicode="&#x158;" horiz-adv-x="1204" 
d="M143 0l250 1423q269 21 406 21q122 0 212.5 -24t152 -74t85 -132.5t4.5 -193.5q-25 -129 -106 -224.5t-189 -144.5v-6q42 -17 74.5 -59t51 -92t33.5 -121.5t21.5 -127.5t15.5 -131t15 -114h-278q-3 19 -6 95.5t-11.5 141t-27.5 136.5t-62 114.5t-106 42.5h-176l-101 -530
h-258zM629 1225l-101 -482h127q137 0 220.5 67t111.5 194q22 105 -34.5 166t-184.5 61q-72 0 -139 -6zM528 1810h166l119 -145h8l168 145h166l-262 -274h-182z" />
    <glyph glyph-name="rcaron" unicode="&#x159;" horiz-adv-x="747" 
d="M350 0h-235l161 922h213l-14 -154h6q54 80 151 130.5t206 39.5l-25 -217q-34 6 -65 6q-114 0 -192 -73.5t-112 -184.5zM307 1409h142l124 -203h5l215 203h139l-291 -326h-176z" />
    <glyph glyph-name="Sacute" unicode="&#x15a;" horiz-adv-x="1148" 
d="M82 127l135 197q174 -121 352 -121q117 0 204.5 55.5t105.5 136.5q17 75 -40.5 124t-209.5 89q-189 50 -274 150t-54 278q21 125 102 219.5t195.5 142.5t243.5 48q245 0 432 -125l-135 -197q-162 107 -312 107q-106 0 -178 -55.5t-88 -131.5q-18 -81 36 -126.5t187 -81.5
q59 -16 105 -33.5t88 -39.5t71 -47t52.5 -56.5t32.5 -68t12.5 -82t-8.5 -97.5q-18 -107 -75 -191t-139.5 -134t-176.5 -75.5t-195 -25.5q-123 0 -254 38.5t-215 102.5zM948 1536h-162l209 289h238z" />
    <glyph glyph-name="sacute" unicode="&#x15b;" horiz-adv-x="849" 
d="M86 72l80 155q95 -69 254 -69q62 0 108 26t56 68q10 43 -22.5 70.5t-121.5 56.5q-119 32 -176 104.5t-39 182.5q23 133 128.5 204.5t256.5 71.5q183 0 293 -76l-78 -153q-32 23 -92 39t-123 16q-62 0 -107 -25.5t-54 -64.5q-10 -44 13 -67t81 -42q163 -47 223.5 -119.5
t40.5 -189.5q-22 -131 -132.5 -203.5t-260.5 -72.5q-100 0 -190 26t-138 62zM688 1090h-141l241 327h244z" />
    <glyph glyph-name="Scircumflex" unicode="&#x15c;" horiz-adv-x="1148" 
d="M551 -14q-123 0 -254 38.5t-215 102.5l135 197q174 -121 352 -121q117 0 204.5 55.5t105.5 136.5q17 75 -40.5 124t-209.5 89q-189 50 -274 150t-54 278q21 125 102 219.5t195.5 142.5t243.5 48q245 0 432 -125l-135 -197q-162 107 -312 107q-106 0 -178 -55.5
t-88 -131.5q-18 -81 36 -126.5t187 -81.5q59 -16 105 -33.5t88 -39.5t71 -47t52.5 -56.5t32.5 -68t12.5 -82t-8.5 -97.5q-18 -107 -75 -191t-139.5 -134t-176.5 -75.5t-195 -25.5zM563 1536l264 274h183l180 -274h-166l-117 145h-8l-170 -145h-166z" />
    <glyph glyph-name="scircumflex" unicode="&#x15d;" horiz-adv-x="849" 
d="M414 -16q-100 0 -190 26t-138 62l80 155q95 -69 254 -69q62 0 108 26t56 68q10 43 -22.5 70.5t-121.5 56.5q-119 32 -176 104.5t-39 182.5q23 133 128.5 204.5t256.5 71.5q183 0 293 -76l-78 -153q-32 23 -92 39t-123 16q-62 0 -107 -25.5t-54 -64.5q-10 -44 13 -67
t81 -42q163 -47 223.5 -119.5t40.5 -189.5q-22 -131 -132.5 -203.5t-260.5 -72.5zM324 1083l288 326h179l157 -326h-141l-123 201h-6l-215 -201h-139z" />
    <glyph glyph-name="Scedilla" unicode="&#x15e;" horiz-adv-x="1148" 
d="M82 127l135 197q174 -121 352 -121q117 0 204.5 55.5t105.5 136.5q17 75 -40.5 124t-209.5 89q-189 50 -274 150t-54 278q21 125 102 219.5t195.5 142.5t243.5 48q245 0 432 -125l-135 -197q-162 107 -312 107q-106 0 -178 -55.5t-88 -131.5q-18 -81 36 -126.5t187 -81.5
q59 -16 105 -33.5t88 -39.5t71 -47t52.5 -56.5t32.5 -68t12.5 -82t-8.5 -97.5q-18 -104 -72.5 -186t-132.5 -132.5t-168.5 -77.5t-188.5 -30l-26 -56q50 0 89.5 -35.5t31.5 -97.5q-10 -75 -81 -112t-177 -37q-51 0 -103 18l27 90q41 -18 90 -18q45 0 78.5 13t40.5 42
q8 30 -16.5 47t-61.5 17l-16 28l49 101q-116 8 -229.5 45.5t-188.5 95.5z" />
    <glyph glyph-name="scedilla" unicode="&#x15f;" horiz-adv-x="849" 
d="M367 -14q-87 6 -162.5 30.5t-118.5 55.5l80 155q95 -69 254 -69q62 0 108 26t56 68q10 43 -22.5 70.5t-121.5 56.5q-119 32 -176 104.5t-39 182.5q23 133 128.5 204.5t256.5 71.5q183 0 293 -76l-78 -153q-32 23 -92 39t-123 16q-62 0 -107 -25.5t-54 -64.5
q-10 -44 13 -67t81 -42q163 -47 223.5 -119.5t40.5 -189.5q-21 -124 -122 -195t-241 -79l-28 -56q51 0 91 -35.5t32 -97.5q-10 -75 -82 -112t-178 -37q-49 0 -101 18l27 90q41 -18 90 -18q45 0 78.5 13t40.5 42q7 30 -17.5 47t-60.5 17l-19 28z" />
    <glyph glyph-name="Scaron" unicode="&#x160;" horiz-adv-x="1148" 
d="M551 -14q-123 0 -254 38.5t-215 102.5l135 197q174 -121 352 -121q117 0 204.5 55.5t105.5 136.5q17 75 -40.5 124t-209.5 89q-189 50 -274 150t-54 278q21 125 102 219.5t195.5 142.5t243.5 48q245 0 432 -125l-135 -197q-162 107 -312 107q-106 0 -178 -55.5
t-88 -131.5q-18 -81 36 -126.5t187 -81.5q59 -16 105 -33.5t88 -39.5t71 -47t52.5 -56.5t32.5 -68t12.5 -82t-8.5 -97.5q-18 -107 -75 -191t-139.5 -134t-176.5 -75.5t-195 -25.5zM776 1536l-182 274h166l119 -145h8l168 145h166l-265 -274h-180z" />
    <glyph glyph-name="scaron" unicode="&#x161;" horiz-adv-x="849" 
d="M414 -16q-100 0 -190 26t-138 62l80 155q95 -69 254 -69q62 0 108 26t56 68q10 43 -22.5 70.5t-121.5 56.5q-119 32 -176 104.5t-39 182.5q23 133 128.5 204.5t256.5 71.5q183 0 293 -76l-78 -153q-32 23 -92 39t-123 16q-62 0 -107 -25.5t-54 -64.5q-10 -44 13 -67
t81 -42q163 -47 223.5 -119.5t40.5 -189.5q-22 -131 -132.5 -203.5t-260.5 -72.5zM381 1409h141l123 -203h6l215 203h140l-291 -326h-176z" />
    <glyph glyph-name="uni0162" unicode="&#x162;" horiz-adv-x="1224" 
d="M305 1212l27 222h1063l-27 -222h-405l-226 -1212h-104l-33 -70q50 0 89.5 -35.5t31.5 -97.5q-10 -75 -81.5 -112t-176.5 -37q-51 0 -103 18l27 90q41 -18 90 -18q45 0 78.5 13t40.5 42q7 30 -17.5 47t-60.5 17l-18 28l57 115h-78l226 1212h-400z" />
    <glyph glyph-name="uni0163" unicode="&#x163;" horiz-adv-x="696" 
d="M266 -352q-50 0 -102 18l26 90q41 -18 91 -18q105 0 118 55q7 30 -16.5 47t-60.5 17l-19 28l57 113q-178 46 -133 297l90 461h-110l16 135l129 31l105 276h164l-48 -276h232l-21 -166h-231l-86 -418q-9 -60 -8.5 -97.5t15.5 -59t33 -29t44 -7.5q54 0 106 29l-16 -131
q-26 -24 -94 -38.5t-115 -14.5l-29 -60q50 0 89.5 -35.5t31.5 -97.5q-10 -75 -81 -112t-177 -37z" />
    <glyph glyph-name="Tcaron" unicode="&#x164;" horiz-adv-x="1224" 
d="M305 1212l27 222h1063l-27 -222h-405l-226 -1212h-258l226 1212h-400zM602 1810h166l119 -145h8l166 145h166l-262 -274h-183z" />
    <glyph glyph-name="tcaron" unicode="&#x165;" horiz-adv-x="1193" 
d="M440 -10q-265 0 -213 305l90 461h-110l16 135l129 31l105 276h164l-48 -276h232l-21 -166h-231l-86 -418q-9 -60 -8.5 -97.5t15.5 -59t33 -29t44 -7.5q54 0 106 29l-16 -131q-23 -21 -89 -37t-112 -16zM1108 1042h-111q110 221 160 494h158q-26 -145 -84.5 -273.5
t-122.5 -220.5z" />
    <glyph glyph-name="Tbar" unicode="&#x166;" horiz-adv-x="1224" 
d="M264 662l17 104h342l82 446h-400l27 222h1063l-27 -222h-405l-82 -446h321l-16 -104h-326l-123 -662h-258l123 662h-338z" />
    <glyph glyph-name="tbar" unicode="&#x167;" horiz-adv-x="696" 
d="M166 498l14 104h107l30 154h-110l16 135l129 31l105 276h164l-48 -276h232l-21 -166h-231l-31 -154h189l-13 -104h-198l-33 -160q-9 -60 -8.5 -97.5t15.5 -59t33 -29t44 -7.5q54 0 106 29l-16 -131q-23 -21 -89 -37t-112 -16q-265 0 -213 305l39 203h-100z" />
    <glyph glyph-name="Utilde" unicode="&#x168;" horiz-adv-x="1228" 
d="M612 -16q-266 0 -359.5 163t-35.5 488l139 799h258l-143 -820q-44 -220 -2.5 -319.5t172.5 -99.5q135 -2 216.5 97.5t127.5 321.5l145 820h246l-139 -799q-57 -325 -208 -488t-417 -163zM700 1544h-129q25 106 88 171t162 65q38 0 68 -12.5t48.5 -30t34.5 -34.5t36 -29.5
t45 -12.5q43 0 71.5 31.5t40.5 74.5h129q-20 -104 -86 -171.5t-166 -67.5q-47 0 -83 18t-54 39t-43.5 39t-54.5 18q-78 0 -107 -98z" />
    <glyph glyph-name="utilde" unicode="&#x169;" 
d="M434 -20q-178 0 -239.5 123t-16.5 378l78 441h236l-78 -441q-18 -91 -17.5 -156t33 -101t98.5 -36q75 0 138 67t100 175l90 492h238l-162 -922h-215l18 137h-6q-55 -68 -132 -112.5t-163 -44.5zM360 1108q29 108 97 180t166 72q38 0 67 -14t46 -34t31.5 -39.5t33.5 -33.5
t43 -14q42 0 74 38t47 83h131q-27 -105 -100.5 -179.5t-172.5 -74.5q-38 0 -67 13.5t-46 32t-31.5 37.5t-33.5 32.5t-43 13.5q-77 0 -115 -113h-127z" />
    <glyph glyph-name="Umacron" unicode="&#x16a;" horiz-adv-x="1228" 
d="M612 -16q-266 0 -359.5 163t-35.5 488l139 799h258l-143 -820q-44 -220 -2.5 -319.5t172.5 -99.5q135 -2 216.5 97.5t127.5 321.5l145 820h246l-139 -799q-57 -325 -208 -488t-417 -163zM1284 1589h-768l14 105h768z" />
    <glyph glyph-name="umacron" unicode="&#x16b;" 
d="M434 -20q-178 0 -239.5 123t-16.5 378l78 441h236l-78 -441q-18 -91 -17.5 -156t33 -101t98.5 -36q75 0 138 67t100 175l90 492h238l-162 -922h-215l18 137h-6q-55 -68 -132 -112.5t-163 -44.5zM1004 1098h-592l12 104h592z" />
    <glyph glyph-name="Ubreve" unicode="&#x16c;" horiz-adv-x="1228" 
d="M612 -16q-266 0 -359.5 163t-35.5 488l139 799h258l-143 -820q-44 -220 -2.5 -319.5t172.5 -99.5q135 -2 216.5 97.5t127.5 321.5l145 820h246l-139 -799q-57 -325 -208 -488t-417 -163zM885 1499q-42 0 -81 8t-77 28t-64.5 51t-41 81t-9.5 113h176q-5 -64 24 -102
t87 -38q57 0 100 38t62 102h176q-17 -78 -55.5 -135.5t-89 -87.5t-102 -44t-105.5 -14z" />
    <glyph glyph-name="ubreve" unicode="&#x16d;" 
d="M434 -20q-178 0 -239.5 123t-16.5 378l78 441h236l-78 -441q-18 -91 -17.5 -156t33 -101t98.5 -36q75 0 138 67t100 175l90 492h238l-162 -922h-215l18 137h-6q-55 -68 -132 -112.5t-163 -44.5zM692 1047q-119 0 -191 72t-52 220h167q-9 -66 15 -108.5t82 -42.5
q57 0 100 41.5t68 109.5h170q-27 -100 -87 -168t-128.5 -96t-143.5 -28z" />
    <glyph glyph-name="Uring" unicode="&#x16e;" horiz-adv-x="1228" 
d="M612 -16q-266 0 -359.5 163t-35.5 488l139 799h258l-143 -820q-44 -220 -2.5 -319.5t172.5 -99.5q135 -2 216.5 97.5t127.5 321.5l145 820h246l-139 -799q-57 -325 -208 -488t-417 -163zM864 1466q-91 0 -147.5 61.5t-40.5 166.5q16 107 91.5 168t166.5 61t147.5 -61
t40.5 -168q-16 -105 -91.5 -166.5t-166.5 -61.5zM805 1694q-8 -47 13 -78t61 -31q39 0 73 31.5t43 77.5q9 50 -12 81t-61 31q-42 0 -75 -31.5t-42 -80.5z" />
    <glyph glyph-name="uring" unicode="&#x16f;" 
d="M434 -20q-178 0 -239.5 123t-16.5 378l78 441h236l-78 -441q-18 -91 -17.5 -156t33 -101t98.5 -36q75 0 138 67t100 175l90 492h238l-162 -922h-215l18 137h-6q-55 -68 -132 -112.5t-163 -44.5zM670 946q-92 0 -147 62t-34 170q22 107 100.5 168t170.5 61q94 0 148.5 -61
t33.5 -168q-22 -109 -100.5 -170.5t-171.5 -61.5zM625 1178q-12 -49 6 -79t57 -30t74 30.5t47 78.5q10 47 -8.5 77.5t-57.5 30.5q-40 0 -74 -30.5t-44 -77.5z" />
    <glyph glyph-name="Uhungarumlaut" unicode="&#x170;" horiz-adv-x="1228" 
d="M612 -16q-266 0 -359.5 163t-35.5 488l139 799h258l-143 -820q-44 -220 -2.5 -319.5t172.5 -99.5q135 -2 216.5 97.5t127.5 321.5l145 820h246l-139 -799q-57 -325 -208 -488t-417 -163zM1118 1536h-170l232 289h231zM748 1536h-156l213 289h229z" />
    <glyph glyph-name="uhungarumlaut" unicode="&#x171;" 
d="M434 -20q-178 0 -239.5 123t-16.5 378l78 441h236l-78 -441q-18 -91 -17.5 -156t33 -101t98.5 -36q75 0 138 67t100 175l90 492h238l-162 -922h-215l18 137h-6q-55 -68 -132 -112.5t-163 -44.5zM752 1090l249 329h236l-350 -329h-135zM453 1090l215 329h213l-297 -329
h-131z" />
    <glyph glyph-name="Uogonek" unicode="&#x172;" horiz-adv-x="1228" 
d="M604 -16q-261 1 -352.5 164t-34.5 487l139 799h258l-143 -820q-44 -220 -2.5 -319.5t172.5 -99.5q135 -2 216.5 97.5t127.5 321.5l145 820h246l-139 -799q-51 -283 -170 -442t-322 -197q-41 -21 -79 -65t-48 -93q-7 -36 9 -53.5t41 -17.5q27 0 55 16l-16 -102
q-37 -21 -86 -21q-31 0 -56.5 7.5t-46.5 23.5t-29.5 47t-1.5 74q19 89 117 172z" />
    <glyph glyph-name="uogonek" unicode="&#x173;" 
d="M434 -20q-178 0 -239.5 123t-16.5 378l78 441h236l-78 -441q-18 -91 -17.5 -156t33 -101t98.5 -36q75 0 138 67t100 175l90 492h238l-162 -922h-8q-40 0 -94.5 -52.5t-65.5 -113.5q-8 -37 7 -54.5t42 -17.5t53 17l-16 -103q-35 -20 -84 -20q-32 0 -57.5 7t-46.5 23.5
t-29 47t0 73.5q10 53 50 104t93 89h-59l18 137h-6q-55 -68 -132 -112.5t-163 -44.5z" />
    <glyph glyph-name="Wcircumflex" unicode="&#x174;" horiz-adv-x="2101" 
d="M500 0l-240 1434h270l160 -1080h6l535 1080h190l97 -1074h4l565 1074h246l-742 -1434h-274l-74 938h-6l-465 -938h-272zM1184 1536h-166l264 274h182l181 -274h-166l-117 145h-8z" />
    <glyph glyph-name="wcircumflex" unicode="&#x175;" horiz-adv-x="1421" 
d="M174 922h260l49 -670h4l281 655h227l23 -655h6l324 670h229l-447 -922h-284l-10 592h-7l-262 -592h-266zM580 1083l290 326h177l157 -326h-141l-123 201h-6l-215 -201h-139z" />
    <glyph glyph-name="Ycircumflex" unicode="&#x176;" horiz-adv-x="1255" 
d="M311 1434h271l198 -525h6l424 527l240 -2l-571 -729l-123 -705h-260l120 694zM743 1536h-163l264 274h180l180 -274h-166l-116 145h-9z" />
    <glyph glyph-name="ycircumflex" unicode="&#x177;" horiz-adv-x="929" 
d="M-70 -512l25 205h53q120 0 229.5 86.5t178.5 226.5l-242 916h256l131 -635h8l308 635h210l-434 -889q-130 -271 -294 -408t-375 -137h-54zM496 1083h-142l291 326h176l158 -326h-139l-125 201h-6z" />
    <glyph glyph-name="Ydieresis" unicode="&#x178;" horiz-adv-x="1255" 
d="M311 1434h271l198 -525h6l424 527l240 -2l-571 -729l-123 -705h-260l120 694zM1114 1548q-58 0 -95.5 44t-29.5 104t55 103.5t105 43.5q57 0 93.5 -43.5t29.5 -103.5q-6 -60 -53.5 -104t-104.5 -44zM694 1548q-58 0 -94.5 44t-30.5 104q8 60 55 103.5t105 43.5
q57 0 93.5 -43.5t29.5 -103.5q-8 -60 -54.5 -104t-103.5 -44z" />
    <glyph glyph-name="Zacute" unicode="&#x179;" horiz-adv-x="1236" 
d="M401 1434h953l-29 -236l-874 -967l-2 -6h667l-26 -225h-986l29 236l879 966l2 6h-639zM995 1825h238l-285 -289h-162z" />
    <glyph glyph-name="zacute" unicode="&#x17a;" horiz-adv-x="802" 
d="M252 922h655l-24 -177l-508 -573v-6h391l-21 -166h-686l23 174l528 576l2 6h-381zM752 1417h241l-342 -327h-141z" />
    <glyph glyph-name="Zdotaccent" unicode="&#x17b;" horiz-adv-x="1236" 
d="M104 0l29 236l879 966l2 6h-639l26 226h953l-29 -236l-874 -967l-2 -6h667l-26 -225h-986zM893 1548q-58 0 -94.5 44t-30.5 104q8 60 55 103.5t105 43.5q57 0 94 -43.5t31 -103.5q-7 -60 -55 -104t-105 -44z" />
    <glyph glyph-name="zdotaccent" unicode="&#x17c;" horiz-adv-x="802" 
d="M59 0l23 174l528 576l2 6h-381l21 166h655l-24 -177l-508 -573v-6h391l-21 -166h-686zM594 1075q-58 0 -94.5 41.5t-28.5 97.5q9 61 55 102.5t111 41.5q58 0 94 -42.5t27 -101.5q-8 -57 -54.5 -98t-109.5 -41z" />
    <glyph glyph-name="Zcaron" unicode="&#x17d;" horiz-adv-x="1236" 
d="M1090 0h-986l29 236l879 966l2 6h-639l26 226h953l-29 -236l-874 -967l-2 -6h667zM612 1810h166l119 -145h6l168 145h166l-262 -274h-182z" />
    <glyph glyph-name="zcaron" unicode="&#x17e;" horiz-adv-x="802" 
d="M745 0h-686l23 174l528 576l2 6h-381l21 166h655l-24 -177l-508 -573v-6h391zM502 1083l-160 326h141l125 -203h6l213 203h140l-289 -326h-176z" />
    <glyph glyph-name="longs" unicode="&#x17f;" horiz-adv-x="686" 
d="M-170 -512h-37l39 205h37q131 0 198.5 72t96.5 245l182 1032q44 245 173 369.5t302 124.5q116 0 197 -37l-37 -194q-85 34 -150 34q-201 0 -260 -331l-176 -998q-22 -128 -61.5 -220.5t-105 -162.5t-165 -104.5t-233.5 -34.5z" />
    <glyph glyph-name="uni018F" unicode="&#x18f;" horiz-adv-x="1398" 
d="M668 -10q-171 0 -281.5 93t-139 260t31.5 398h862q9 70 7.5 137t-25.5 127t-62 105.5t-101 72.5t-143 27q-88 0 -174 -25t-143 -57l-33 187q218 131 463 131q189 0 315.5 -92.5t170 -260.5t-2.5 -405q-36 -166 -111 -300t-174 -220t-217 -132t-243 -46zM504 549
q-25 -136 31 -222.5t176 -86.5q129 -2 239 87t142 222h-588z" />
    <glyph glyph-name="florin" unicode="&#x192;" horiz-adv-x="686" 
d="M-170 -512h-37l39 205h37q40 0 74.5 10t61 25.5t50 43t39.5 52.5t31 64.5t23.5 68.5t18.5 76t15 75t13 77t12 71l88 500h-135l28 151l138 15l20 120q44 245 173 369.5t302 124.5q116 0 197 -37l-37 -194q-85 34 -150 34q-201 0 -260 -331l-14 -86h258l-33 -166h-256
l-88 -500q-47 -261 -84 -373q-77 -235 -232 -326q-118 -69 -292 -69z" />
    <glyph glyph-name="uni019D" unicode="&#x19d;" horiz-adv-x="1337" 
d="M-176 -508q-48 0 -114 13.5t-93 27.5l78 199q26 -11 79 -21t95 -10q110 0 175.5 69t102.5 240l302 1424h239l354 -973h7l206 973h242l-303 -1434h-244l-358 936h-6l-197 -926q-56 -266 -190.5 -392t-374.5 -126z" />
    <glyph glyph-name="Gcaron" unicode="&#x1e6;" horiz-adv-x="1310" 
d="M782 -20q-313 0 -462 201t-87 556q59 330 283 519.5t531 189.5q107 0 218.5 -26t196.5 -70l-104 -201q-152 80 -322 80q-195 0 -339.5 -129.5t-190.5 -362.5q-50 -261 32.5 -400.5t270.5 -139.5q119 0 238 55l65 309h-268l24 191h484l-109 -641q-109 -60 -230 -95.5
t-231 -35.5zM786 1810h166l119 -145h8l166 145h166l-262 -274h-182z" />
    <glyph glyph-name="gcaron" unicode="&#x1e7;" horiz-adv-x="1056" 
d="M348 -508q-95 -1 -203 25t-161 63l94 174q46 -33 123 -55t151 -21q79 0 142.5 29t107 80.5t72 114.5t43.5 139l20 96h-6q-48 -62 -124 -108.5t-175 -46.5q-74 0 -134 24t-105 75.5t-59 133t3 195.5q42 236 217 383t389 147q43 0 84.5 -2.5t84.5 -7.5t66.5 -8.5
t68.5 -11.5t53 -9l-152 -860q-43 -254 -196 -401.5t-404 -147.5zM389 430q-27 -126 8.5 -197t128.5 -71q86 0 162 86t96 190l64 310q-51 13 -125 16q-117 0 -212 -99.5t-122 -234.5zM508 1409h141l125 -203h6l213 203h140l-289 -326h-178z" />
    <glyph glyph-name="uni01EA" unicode="&#x1ea;" horiz-adv-x="1417" 
d="M696 -20q-182 3 -300.5 96t-160.5 258.5t-4 382.5q57 333 256 535t478 202q185 0 306 -92.5t164 -259t5 -385.5q-51 -291 -210.5 -484.5t-389.5 -240.5q-40 -16 -79.5 -62t-49.5 -96q-8 -37 7 -54.5t40 -17.5q30 0 55 17l-16 -103q-35 -20 -86 -20q-67 0 -107 35t-24 116
q17 92 116 173zM500 717q-47 -233 12 -371.5t221 -138.5q161 0 277 139t161 371q45 233 -14 371.5t-219 138.5q-162 0 -277.5 -138.5t-160.5 -371.5z" />
    <glyph glyph-name="uni01EB" unicode="&#x1eb;" horiz-adv-x="1011" 
d="M471 -16q-82 5 -147 38t-110 93t-60.5 146.5t2.5 199.5q20 115 71 207.5t121 151t152.5 89.5t169.5 31q88 0 159.5 -30.5t121.5 -91t68.5 -150t-1.5 -207.5q-31 -182 -134 -300.5t-243 -158.5v-2h-6q-57 -19 -99.5 -64t-54.5 -102q-8 -37 7 -54.5t42 -17.5q28 0 54 17
l-17 -103q-35 -20 -84 -20q-32 0 -57.5 7t-46.5 23.5t-29 47t0 73.5q16 91 121 177zM399 461q-27 -135 4.5 -214t122.5 -79q93 0 158 79.5t92 213.5q27 136 -4.5 215.5t-124.5 79.5q-92 0 -156.5 -79.5t-91.5 -215.5z" />
    <glyph glyph-name="Aringacute" unicode="&#x1fa;" horiz-adv-x="1271" 
d="M285 0h-238l754 1438h184l244 -1438h-268l-37 283h-488zM893 1466q-91 0 -147.5 61.5t-40.5 166.5q16 107 91.5 168t166.5 61q71 0 122 -39l191 146l117 -142l-240 -125q3 -33 -2 -69q-16 -105 -91.5 -166.5t-166.5 -61.5zM823 1004l-303 -531h369l-62 531h-4zM834 1694
q-9 -47 12 -78t61 -31q39 0 73.5 31.5t43.5 77.5q9 50 -12.5 81t-63.5 31q-40 0 -72.5 -31.5t-41.5 -80.5z" />
    <glyph glyph-name="aringacute" unicode="&#x1fb;" horiz-adv-x="1075" 
d="M449 -18q-74 0 -134 24t-105.5 75.5t-59.5 133t4 195.5q27 157 118.5 279.5t219.5 186.5t268 64q43 0 84 -2.5t83 -7.5t66 -8.5t67.5 -11t53.5 -9.5l-121 -668q-27 -167 -16 -233h-232q-2 27 17 137h-6q-47 -61 -127 -108t-180 -47zM782 946q-94 0 -148.5 61.5
t-33.5 170.5q22 106 100 167.5t187 61.5l172 233h241l-292 -282q68 -65 45 -180q-22 -108 -100.5 -170t-170.5 -62zM403 430q-25 -126 11 -197t129 -71q86 0 161.5 85.5t96.5 190.5l63 310q-57 14 -123 16q-118 0 -213.5 -99.5t-124.5 -234.5zM735 1178q-12 -48 7 -78.5
t57 -30.5q41 0 76 30.5t45 78.5q12 47 -7.5 77.5t-58.5 30.5q-40 0 -74.5 -30.5t-44.5 -77.5z" />
    <glyph glyph-name="AEacute" unicode="&#x1fc;" horiz-adv-x="1863" 
d="M289 0h-242l983 1434h977l-27 -222h-587l-84 -376h530l-24 -201h-531l-90 -414h588l-27 -221h-846l58 283h-475zM604 473h385l146 739h-5zM1548 1536h-162l209 289h238z" />
    <glyph glyph-name="aeacute" unicode="&#x1fd;" horiz-adv-x="1449" 
d="M406 -23q-148 0 -220.5 87t-46.5 208q16 75 64.5 134t115.5 94t142.5 53t152.5 18h136l2 7q8 90 -29 133t-123 43q-125 0 -246 -72l-41 154q204 104 383 104q93 0 157.5 -36.5t88.5 -98.5h4q63 66 145.5 99.5t170.5 33.5q133 0 198 -77t41 -189q-13 -63 -58.5 -108.5
t-101.5 -70t-134 -38.5t-136 -17.5t-129 -3.5q-20 -123 34 -196.5t159 -73.5q66 0 140 16t109 37l19 -147q-146 -88 -334 -88q-97 0 -176.5 41.5t-124.5 119.5h-2q-166 -166 -360 -166zM387 291q-14 -65 18.5 -103t102.5 -38q56 0 120.5 37t98.5 79q-14 73 6 166h-115
q-83 0 -149 -36.5t-82 -104.5zM891 1090l239 327h244l-342 -327h-141zM1237 768q-89 0 -161.5 -56t-110.5 -141l2 -2q179 2 262.5 25t95.5 78q9 40 -16.5 68t-71.5 28z" />
    <glyph glyph-name="Oslashacute" unicode="&#x1fe;" horiz-adv-x="1417" 
d="M377 90q-106 94 -144.5 256.5t-1.5 370.5q57 333 256 535t478 202q196 0 321 -104l98 135h95l-138 -193q161 -200 99 -575q-59 -333 -257.5 -535t-475.5 -202q-157 0 -269 65l-69 -96h-95zM532 307l598 828q-64 92 -192 92q-162 0 -277.5 -138.5t-160.5 -371.5
q-55 -276 32 -410zM1169 1057l-583 -807q58 -43 147 -43q161 0 277 139t161 371q42 208 -2 340zM901 1536l209 289h238l-285 -289h-162z" />
    <glyph glyph-name="oslashacute" unicode="&#x1ff;" horiz-adv-x="1011" 
d="M305 31l-84 -109l-59 35l88 115q-138 132 -94 389q20 115 71 207.5t121 151t152.5 89.5t169.5 31q126 0 209 -57l90 116l59 -36l-94 -123q129 -132 84 -379q-40 -226 -185.5 -352.5t-328.5 -126.5q-117 0 -199 49zM397 262l351 453q-35 41 -101 41q-92 0 -156.5 -79.5
t-91.5 -215.5q-25 -125 -2 -199zM780 643l-344 -444q36 -31 90 -31q93 0 158 79.5t92 213.5q22 112 4 182zM608 1090l242 327h242l-342 -327h-142z" />
    <glyph glyph-name="uni0218" unicode="&#x218;" horiz-adv-x="1148" 
d="M551 -14q-123 0 -254 38.5t-215 102.5l135 197q174 -121 352 -121q117 0 204.5 55.5t105.5 136.5q17 75 -40.5 124t-209.5 89q-189 50 -274 150t-54 278q21 125 102 219.5t195.5 142.5t243.5 48q245 0 432 -125l-135 -197q-162 107 -312 107q-106 0 -178 -55.5
t-88 -131.5q-18 -81 36 -126.5t187 -81.5q59 -16 105 -33.5t88 -39.5t71 -47t52.5 -56.5t32.5 -68t12.5 -82t-8.5 -97.5q-18 -107 -75 -191t-139.5 -134t-176.5 -75.5t-195 -25.5zM311 -387l19 108q60 20 99.5 76.5t43.5 147.5h158q-3 -122 -98 -222t-222 -110z" />
    <glyph glyph-name="uni0219" unicode="&#x219;" horiz-adv-x="849" 
d="M86 72l80 155q95 -69 254 -69q62 0 108 26t56 68q10 43 -22.5 70.5t-121.5 56.5q-119 32 -176 104.5t-39 182.5q23 133 128.5 204.5t256.5 71.5q183 0 293 -76l-78 -153q-32 23 -92 39t-123 16q-62 0 -107 -25.5t-54 -64.5q-10 -44 13 -67t81 -42q163 -47 223.5 -119.5
t40.5 -189.5q-22 -131 -132.5 -203.5t-260.5 -72.5q-100 0 -190 26t-138 62zM492 -55q-2 -79 -45 -153t-116.5 -123t-158.5 -56l18 108q61 20 100.5 76t43.5 148h158z" />
    <glyph glyph-name="uni021A" unicode="&#x21a;" horiz-adv-x="1224" 
d="M705 1212h-400l27 222h1063l-27 -222h-405l-226 -1212h-258zM688 -55q-2 -121 -95.5 -221.5t-221.5 -110.5l18 108q60 20 99 76.5t42 147.5h158z" />
    <glyph glyph-name="uni021B" unicode="&#x21b;" horiz-adv-x="696" 
d="M440 -10q-265 0 -213 305l90 461h-110l16 135l129 31l105 276h164l-48 -276h232l-21 -166h-231l-86 -418q-9 -60 -8.5 -97.5t15.5 -59t33 -29t44 -7.5q54 0 106 29l-16 -131q-23 -21 -89 -37t-112 -16zM504 -55q-3 -122 -98 -222t-222 -110l19 108q60 20 99 76.5
t42 147.5h160z" />
    <glyph glyph-name="uni0232" unicode="&#x232;" horiz-adv-x="1255" 
d="M311 1434h271l198 -525h6l424 527l240 -2l-571 -729l-123 -705h-260l120 694zM524 1589l15 105h766l-13 -105h-768z" />
    <glyph glyph-name="uni0233" unicode="&#x233;" horiz-adv-x="929" 
d="M-16 -512h-54l25 205h53q120 0 229.5 86.5t178.5 226.5l-242 916h256l131 -635h8l308 635h210l-434 -889q-130 -271 -294 -408t-375 -137zM958 1098h-591l12 104h592z" />
    <glyph glyph-name="uni0237" unicode="&#x237;" horiz-adv-x="442" 
d="M-256 -512l37 205h37q135 0 201 75t100 263l157 891h232l-162 -912q-22 -128 -61.5 -220.5t-105 -162.5t-165 -104.5t-233.5 -34.5h-37z" />
    <glyph glyph-name="uni0259" unicode="&#x259;" horiz-adv-x="978" 
d="M455 0q-180 0 -251 140.5t-7 371.5h575q20 121 -32 192.5t-160 71.5q-64 0 -136 -16t-108 -37l-17 147q143 86 334 86q84 0 154.5 -30.5t119.5 -90.5t65 -149.5t-7 -206.5q-33 -153 -116 -263.5t-189.5 -163t-224.5 -52.5zM358 369q-14 -87 23.5 -141t114.5 -54
q83 0 146.5 55t90.5 140h-375z" />
    <glyph glyph-name="uni0272" unicode="&#x272;" horiz-adv-x="1067" 
d="M377 31q-115 -539 -592 -539l43 197q128 0 205 87.5t117 274.5l184 871h211l-19 -136h6q55 68 132 112t165 44q177 0 235.5 -112.5t8.5 -350.5l-102 -479h-232l95 449q18 87 17 150t-34.5 98.5t-99.5 35.5q-76 0 -139.5 -67t-102.5 -174z" />
    <glyph glyph-name="circumflex" unicode="&#x2c6;" horiz-adv-x="901" 
d="M328 1083l290 326h177l157 -326h-139l-125 201h-6l-213 -201h-141z" />
    <glyph glyph-name="caron" unicode="&#x2c7;" horiz-adv-x="901" 
d="M541 1083l-158 326h139l125 -203h6l213 203h142l-291 -326h-176z" />
    <glyph glyph-name="breve" unicode="&#x2d8;" horiz-adv-x="1011" 
d="M680 1047q-56 0 -102.5 16.5t-83 50t-52.5 91.5t-6 134h170q-10 -67 14.5 -109t81.5 -42t100 41.5t68 109.5h168q-39 -148 -139 -220t-219 -72z" />
    <glyph glyph-name="dotaccent" unicode="&#x2d9;" horiz-adv-x="503" 
d="M442 1075q-58 0 -95 41.5t-28 97.5q9 62 54.5 103t111.5 41q58 0 94 -42.5t27 -101.5q-8 -57 -54.5 -98t-109.5 -41z" />
    <glyph glyph-name="ring" unicode="&#x2da;" horiz-adv-x="638" 
d="M475 946q-94 0 -148 61.5t-32 170.5q21 107 99.5 168t170.5 61q94 0 149 -61t34 -168q-22 -109 -101 -170.5t-172 -61.5zM428 1178q-10 -49 8.5 -79t57.5 -30t73.5 30.5t46.5 78.5q10 47 -9 77.5t-58 30.5t-73 -30.5t-46 -77.5z" />
    <glyph glyph-name="ogonek" unicode="&#x2db;" horiz-adv-x="491" 
d="M242 -344q-31 0 -56 7t-46 23.5t-29.5 47t-1.5 73.5q16 74 83.5 141.5t131.5 90.5h84l-9 -39q-39 0 -92.5 -52.5t-66.5 -113.5q-7 -37 8.5 -54.5t40.5 -17.5t55 17l-16 -103q-35 -20 -86 -20z" />
    <glyph glyph-name="tilde" unicode="&#x2dc;" horiz-adv-x="948" 
d="M446 1108h-127q29 108 97 180t166 72q38 0 67 -14t46 -34t31.5 -39.5t33.5 -33.5t43 -14q42 0 73.5 37.5t49.5 83.5h129q-27 -105 -100.5 -179.5t-172.5 -74.5q-38 0 -67 13.5t-46 32t-31.5 37.5t-33.5 32.5t-43 13.5q-72 0 -115 -113z" />
    <glyph glyph-name="hungarumlaut" unicode="&#x2dd;" horiz-adv-x="1019" 
d="M748 1090l249 329h236l-350 -329h-135zM449 1090l215 329h213l-297 -329h-131z" />
    <glyph glyph-name="uni0326" unicode="&#x326;" horiz-adv-x="512" 
d="M49 -387l17 108q61 20 100 76t43 148h158q-2 -121 -96 -221.5t-222 -110.5z" />
    <glyph glyph-name="uni0394" unicode="&#x394;" horiz-adv-x="1290" 
d="M76 0l55 129l1036 1309h189l-86 -1309l-56 -129h-1138zM385 178h631l67 895h-6z" />
    <glyph glyph-name="uni03A9" unicode="&#x3a9;" horiz-adv-x="1406" 
d="M641 0h-571l75 178h353q-47 95 -72 193.5t-19 226t58 246.5q119 282 353.5 446t508.5 164t368 -163t-24 -447q-39 -91 -106 -185t-149.5 -179.5t-167 -159t-177.5 -142.5h342l-76 -178h-569l74 178q186 136 341.5 307.5t221.5 327.5q84 195 39 311.5t-207 116.5
t-306 -116t-226 -312q-66 -167 -60 -332.5t72 -302.5z" />
    <glyph glyph-name="uni03BC" unicode="&#x3bc;" horiz-adv-x="1056" 
d="M23 -410l237 1332h219l-76 -430q-26 -142 8 -223t136 -81q80 0 149.5 72t102.5 180l86 482h221l-164 -922h-194l14 137h-6q-43 -67 -111 -112t-151 -45q-117 0 -164 75h-4l-82 -465h-221z" />
    <glyph glyph-name="pi" unicode="&#x3c0;" horiz-adv-x="1171" 
d="M135 -10q23 49 77 222.5t89 338.5l41 194h-135l33 152l168 14h710q54 0 105.5 8t74.5 19l-32 -160q-23 -14 -78 -23.5t-107 -9.5h-12l-94 -438q-36 -168 104 -168l-32 -157q-57 -11 -99 -11t-78 8.5t-69 29.5t-50.5 55.5t-24.5 86t9 121.5l101 473h-275l-41 -194
q-36 -167 -87 -340t-73 -221h-225z" />
    <glyph glyph-name="Wgrave" unicode="&#x1e80;" horiz-adv-x="2101" 
d="M500 0l-240 1434h270l160 -1080h6l535 1080h190l97 -1074h4l565 1074h246l-742 -1434h-274l-74 938h-6l-465 -938h-272zM1257 1536l-194 289h229l119 -289h-154z" />
    <glyph glyph-name="wgrave" unicode="&#x1e81;" horiz-adv-x="1421" 
d="M301 0l-127 922h260l49 -670h4l281 655h227l23 -655h6l324 670h229l-447 -922h-284l-10 592h-7l-262 -592h-266zM547 1417h239l195 -327h-137z" />
    <glyph glyph-name="Wacute" unicode="&#x1e82;" horiz-adv-x="2101" 
d="M500 0l-240 1434h270l160 -1080h6l535 1080h190l97 -1074h4l565 1074h246l-742 -1434h-274l-74 938h-6l-465 -938h-272zM1450 1536h-162l209 289h238z" />
    <glyph glyph-name="wacute" unicode="&#x1e83;" horiz-adv-x="1421" 
d="M174 922h260l49 -670h4l281 655h227l23 -655h6l324 670h229l-447 -922h-284l-10 592h-7l-262 -592h-266zM965 1090h-142l240 327h244z" />
    <glyph glyph-name="Wdieresis" unicode="&#x1e84;" horiz-adv-x="2101" 
d="M500 0l-240 1434h270l160 -1080h6l535 1080h190l97 -1074h4l565 1074h246l-742 -1434h-274l-74 938h-6l-465 -938h-272zM1540 1548q-58 0 -95.5 44t-29.5 104t55 103.5t105 43.5q57 0 93.5 -43.5t29.5 -103.5q-6 -60 -53.5 -104t-104.5 -44zM1120 1548q-58 0 -94.5 44
t-30.5 104q8 60 55 103.5t105 43.5q57 0 93.5 -43.5t29.5 -103.5q-8 -60 -54.5 -104t-103.5 -44z" />
    <glyph glyph-name="wdieresis" unicode="&#x1e85;" horiz-adv-x="1421" 
d="M301 0l-127 922h260l49 -670h4l281 655h227l23 -655h6l324 670h229l-447 -922h-284l-10 592h-7l-262 -592h-266zM1100 1075q-58 0 -95.5 41.5t-31.5 97.5q8 61 52.5 102.5t109.5 41.5q59 0 95.5 -42t29.5 -102q-6 -57 -51.5 -98t-108.5 -41zM721 1075q-58 0 -95.5 41.5
t-31.5 97.5q8 61 52.5 102.5t109.5 41.5q58 0 95 -42.5t30 -101.5q-8 -57 -52.5 -98t-107.5 -41z" />
    <glyph glyph-name="Germandbls" unicode="&#x1e9e;" horiz-adv-x="1339" 
d="M399 0h-254l217 1020q38 181 162 297.5t295 116.5h662l-39 -191q-18 -14 -60 -45t-66 -49t-59.5 -49.5t-56 -56.5t-39.5 -58.5t-26 -66.5q-9 -40 -1.5 -78t26 -68.5t43.5 -63.5t52.5 -63t51.5 -68t40.5 -77.5t21 -91t-8.5 -109.5q-29 -139 -158.5 -228t-286.5 -89
q-103 0 -192.5 21t-136.5 52l110 201q36 -26 93 -44.5t116 -18.5q78 0 136 44.5t69 100.5q10 44 -4.5 86.5t-42.5 76.5t-60.5 75.5t-59 83t-38.5 99.5t2 124q31 143 271 334l2 6h-355q-78 0 -135.5 -59.5t-75.5 -143.5z" />
    <glyph glyph-name="uni1EA0" unicode="&#x1ea0;" horiz-adv-x="1271" 
d="M47 0l754 1438h184l244 -1438h-268l-37 283h-488l-151 -283h-238zM823 1004l-303 -531h369l-62 531h-4zM559 -389q-58 0 -94.5 43t-30.5 102q7 61 54 104.5t106 43.5q57 0 93.5 -43.5t29.5 -104.5q-6 -58 -53.5 -101.5t-104.5 -43.5z" />
    <glyph glyph-name="uni1EA1" unicode="&#x1ea1;" horiz-adv-x="1075" 
d="M449 -18q-74 0 -134 24t-105.5 75.5t-59.5 133t4 195.5q27 157 118.5 279.5t219.5 186.5t268 64q43 0 84 -2.5t83 -7.5t66 -8.5t67.5 -11t53.5 -9.5l-121 -668q-27 -167 -16 -233h-232q-2 27 17 137h-6q-47 -61 -127 -108t-180 -47zM403 430q-25 -126 11 -197t129 -71
q86 0 161.5 85.5t96.5 190.5l63 310q-57 14 -123 16q-118 0 -213.5 -99.5t-124.5 -234.5zM485 -383q-60 0 -96 41t-27 98q8 60 54 102t112 42q57 0 93 -42.5t28 -101.5q-9 -58 -55 -98.5t-109 -40.5z" />
    <glyph glyph-name="uni1EB8" unicode="&#x1eb8;" horiz-adv-x="1097" 
d="M143 0l252 1434h846l-27 -222h-585l-86 -376h530l-24 -201h-529l-92 -414h588l-27 -221h-846zM510 -389q-58 0 -94.5 43t-30.5 102q7 61 54 104.5t106 43.5q57 0 93.5 -43.5t29.5 -104.5q-6 -58 -53.5 -101.5t-104.5 -43.5z" />
    <glyph glyph-name="uni1EB9" unicode="&#x1eb9;" horiz-adv-x="960" 
d="M526 -18q-84 0 -155.5 31.5t-122 90t-71 151t-1.5 206.5q40 228 183.5 353.5t326.5 125.5q65 0 116.5 -20.5t82 -56.5t45 -81t9.5 -96.5t-28 -101.5q-39 -91 -170 -152.5t-356 -75.5q5 -93 56 -142.5t143 -49.5q65 0 135.5 16t107.5 37l31 -147q-142 -88 -332 -88z
M457 -383q-60 0 -96 41t-27 98q8 60 54 102t112 42q57 0 93 -42.5t28 -101.5q-9 -58 -55 -98.5t-109 -40.5zM401 494q303 27 349 137q21 53 -0.5 95t-73.5 42q-98 0 -171 -81t-104 -193z" />
    <glyph glyph-name="uni1EBC" unicode="&#x1ebc;" horiz-adv-x="1097" 
d="M989 0h-846l252 1434h846l-27 -222h-585l-86 -376h530l-24 -201h-529l-92 -414h588zM551 1544q25 106 88 171t162 65q38 0 68 -12.5t48 -30t34 -34.5t35.5 -29.5t43.5 -12.5q43 0 73 31.5t42 74.5h129q-22 -104 -87.5 -171.5t-164.5 -67.5q-47 0 -83.5 18t-55 39
t-44.5 39t-55 18q-44 0 -67.5 -26.5t-38.5 -71.5h-127z" />
    <glyph glyph-name="uni1EBD" unicode="&#x1ebd;" horiz-adv-x="907" 
d="M526 -18q-84 0 -155.5 31.5t-122 90t-71 151t-1.5 206.5q40 228 183.5 353.5t326.5 125.5q65 0 116.5 -20.5t82 -56.5t45 -81t9.5 -96.5t-28 -101.5q-39 -91 -170 -152.5t-356 -75.5q5 -93 56 -142.5t143 -49.5q65 0 135.5 16t107.5 37l31 -147q-142 -88 -332 -88z
M367 1108q29 108 96.5 180t165.5 72q38 0 67 -14t46 -34t31.5 -39.5t33.5 -33.5t43 -14q42 0 74 38t47 83h131q-27 -105 -100.5 -179.5t-172.5 -74.5q-38 0 -67 13.5t-46 32t-31.5 37.5t-33.5 32.5t-43 13.5q-31 0 -55.5 -20t-35.5 -41t-23 -52h-127zM401 494
q303 27 349 137q21 53 -0.5 95t-73.5 42q-98 0 -171 -81t-104 -193z" />
    <glyph glyph-name="uni1ECA" unicode="&#x1eca;" horiz-adv-x="542" 
d="M143 0l252 1434h258l-252 -1434h-258zM207 -389q-58 0 -94.5 43t-28.5 102q6 61 52.5 104.5t105.5 43.5q58 0 95 -43.5t30 -104.5q-7 -58 -55 -101.5t-105 -43.5z" />
    <glyph glyph-name="uni1ECB" unicode="&#x1ecb;" horiz-adv-x="522" 
d="M137 0l162 922h236l-162 -922h-236zM467 1169q-61 0 -98 44.5t-29 107.5q7 63 56.5 108.5t109.5 45.5t98 -45.5t29 -108.5q-7 -63 -56.5 -107.5t-109.5 -44.5zM186 -383q-58 0 -94.5 41t-28.5 98q9 60 55.5 102t110.5 42q57 0 93.5 -43t27.5 -101q-8 -58 -54.5 -98.5
t-109.5 -40.5z" />
    <glyph glyph-name="uni1ECC" unicode="&#x1ecc;" horiz-adv-x="1417" 
d="M707 -20q-185 0 -306.5 92.5t-165 259t-4.5 385.5q57 333 256 535t478 202q185 0 306 -92.5t164 -259t5 -385.5q-59 -333 -257.5 -535t-475.5 -202zM500 717q-47 -233 12 -371.5t221 -138.5q161 0 277 139t161 371q45 233 -14 371.5t-219 138.5q-162 0 -277.5 -138.5
t-160.5 -371.5zM635 -401q-58 0 -94.5 43.5t-30.5 103.5q8 60 55 104t105 44q57 0 93.5 -44t29.5 -104q-6 -60 -53.5 -103.5t-104.5 -43.5z" />
    <glyph glyph-name="uni1ECD" unicode="&#x1ecd;" horiz-adv-x="1011" 
d="M504 -18q-88 0 -159.5 30.5t-121.5 91t-68.5 150t1.5 207.5q20 115 71 207.5t121 151t152.5 89.5t169.5 31q88 0 159.5 -30.5t121.5 -91t68.5 -150t-1.5 -207.5q-40 -226 -185.5 -352.5t-328.5 -126.5zM399 461q-27 -135 4.5 -214t122.5 -79q93 0 158 79.5t92 213.5
q27 136 -4.5 215.5t-124.5 79.5q-92 0 -156.5 -79.5t-91.5 -215.5zM379 -389q-58 0 -94.5 42t-28.5 99q9 60 55.5 101t110.5 41q57 0 93.5 -42t27.5 -100q-8 -58 -54.5 -99.5t-109.5 -41.5z" />
    <glyph glyph-name="uni1EE4" unicode="&#x1ee4;" horiz-adv-x="1228" 
d="M612 -16q-266 0 -359.5 163t-35.5 488l139 799h258l-143 -820q-44 -220 -2.5 -319.5t172.5 -99.5q135 -2 216.5 97.5t127.5 321.5l145 820h246l-139 -799q-57 -325 -208 -488t-417 -163zM510 -401q-58 0 -94.5 43.5t-28.5 103.5q6 60 53 104t105 44q57 0 94.5 -44
t30.5 -104t-55 -103.5t-105 -43.5z" />
    <glyph glyph-name="uni1EE5" unicode="&#x1ee5;" 
d="M434 -20q-178 0 -239.5 123t-16.5 378l78 441h236l-78 -441q-18 -91 -17.5 -156t33 -101t98.5 -36q75 0 138 67t100 175l90 492h238l-162 -922h-215l18 137h-6q-55 -68 -132 -112.5t-163 -44.5zM459 -389q-60 0 -96 42t-27 99q8 60 54 101t112 41q57 0 92.5 -42
t28.5 -100q-9 -59 -55 -100t-109 -41z" />
    <glyph glyph-name="Ygrave" unicode="&#x1ef2;" horiz-adv-x="1255" 
d="M311 1434h271l198 -525h6l424 527l240 -2l-571 -729l-123 -705h-260l120 694zM637 1825h229l119 -289h-154z" />
    <glyph glyph-name="ygrave" unicode="&#x1ef3;" horiz-adv-x="929" 
d="M-16 -512h-54l25 205h53q120 0 229.5 86.5t178.5 226.5l-242 916h256l131 -635h8l308 635h210l-434 -889q-130 -271 -294 -408t-375 -137zM623 1090l-297 327h237l197 -327h-137z" />
    <glyph glyph-name="uni1EF8" unicode="&#x1ef8;" horiz-adv-x="1255" 
d="M616 694l-305 740h271l198 -525h6l424 527l240 -2l-571 -729l-123 -705h-260zM594 1544q25 106 88 171t162 65q38 0 68 -12.5t48 -30t34 -34.5t35.5 -29.5t43.5 -12.5q43 0 73 31.5t42 74.5h129q-22 -104 -87.5 -171.5t-164.5 -67.5q-47 0 -83.5 18t-55 39t-44.5 39
t-55 18q-44 0 -67.5 -26.5t-38.5 -71.5h-127z" />
    <glyph glyph-name="uni1EF9" unicode="&#x1ef9;" horiz-adv-x="929" 
d="M-16 -512h-54l25 205h53q120 0 229.5 86.5t178.5 226.5l-242 916h256l131 -635h8l308 635h210l-434 -889q-130 -271 -294 -408t-375 -137zM326 1108q29 108 96.5 180t165.5 72q38 0 67 -14t46 -34t31.5 -39.5t33.5 -33.5t43 -14q42 0 74 38t47 83h131
q-27 -105 -100.5 -179.5t-172.5 -74.5q-38 0 -67 13.5t-46 32t-31.5 37.5t-33.5 32.5t-43 13.5q-31 0 -55.5 -20t-35.5 -41t-23 -52h-127z" />
    <glyph glyph-name="endash" unicode="&#x2013;" horiz-adv-x="1153" 
d="M170 442l25 138h968l-24 -138h-969z" />
    <glyph glyph-name="emdash" unicode="&#x2014;" horiz-adv-x="1837" 
d="M186 442l29 138h1653l-29 -138h-1653z" />
    <glyph glyph-name="quoteleft" unicode="&#x2018;" horiz-adv-x="460" 
d="M461 1042h-158q25 145 83 273.5t122 220.5h113q-114 -229 -160 -494z" />
    <glyph glyph-name="quoteright" unicode="&#x2019;" horiz-adv-x="460" 
d="M408 1042h-113q114 227 162 494h155q-25 -145 -82.5 -273.5t-121.5 -220.5z" />
    <glyph glyph-name="quotesinglbase" unicode="&#x201a;" horiz-adv-x="460" 
d="M104 -289h-114q110 220 157 494h162q-25 -145 -83 -273.5t-122 -220.5z" />
    <glyph glyph-name="quotedblleft" unicode="&#x201c;" horiz-adv-x="772" 
d="M774 1042h-158q27 147 86.5 285t120.5 225h111q-42 -84 -87.5 -222.5t-72.5 -287.5zM303 1042q25 145 83 273.5t122 220.5h123q-130 -259 -170 -494h-158z" />
    <glyph glyph-name="quotedblright" unicode="&#x201d;" horiz-adv-x="772" 
d="M401 1026h-116q42 83 87 222t72 288h162q-27 -148 -86 -286t-119 -224zM717 1042h-127q130 259 170 494h162q-25 -145 -83 -273.5t-122 -220.5z" />
    <glyph glyph-name="quotedblbase" unicode="&#x201e;" horiz-adv-x="772" 
d="M102 -305h-116q42 84 86.5 222.5t70.5 287.5h162q-25 -147 -84 -285t-119 -225zM418 -289h-127q126 252 170 494h162q-25 -145 -83 -273.5t-122 -220.5z" />
    <glyph glyph-name="dagger" unicode="&#x2020;" horiz-adv-x="727" 
d="M205 795l16 92h248l96 547h107l-99 -547h248l-16 -92h-248l-184 -1041h-105l185 1041h-248z" />
    <glyph glyph-name="daggerdbl" unicode="&#x2021;" horiz-adv-x="727" 
d="M109 250l16 90h246l90 510h-246l16 90h246l88 494h107l-88 -494h247l-16 -90h-248l-90 -510h248l-16 -90h-248l-88 -496h-105l86 496h-245z" />
    <glyph glyph-name="bullet" unicode="&#x2022;" horiz-adv-x="587" 
d="M391 494q-76 0 -119 57.5t-28 134.5q15 81 80.5 139t142.5 58q74 0 117 -58t28 -139q-15 -77 -81.5 -134.5t-139.5 -57.5z" />
    <glyph glyph-name="ellipsis" unicode="&#x2026;" horiz-adv-x="1538" 
d="M1274 -16q-63 0 -100.5 44.5t-26.5 106.5q11 65 61 109.5t119 44.5q62 0 98.5 -45.5t26.5 -108.5q-11 -63 -61 -107t-117 -44zM266 -16q-63 0 -100.5 44.5t-26.5 106.5q11 65 61 109.5t119 44.5q62 0 98.5 -45.5t26.5 -108.5q-11 -63 -61.5 -107t-116.5 -44zM770 -16
q-63 0 -100.5 44.5t-26.5 106.5q11 65 61 109.5t119 44.5q62 0 98.5 -45.5t26.5 -108.5q-11 -63 -61.5 -107t-116.5 -44z" />
    <glyph glyph-name="perthousand" unicode="&#x2030;" horiz-adv-x="1775" 
d="M991 -16q-125 0 -180.5 90t-22.5 248t127.5 249t219.5 91q138 0 186 -109q98 109 235 109q124 0 177.5 -91t19.5 -249q-32 -158 -124 -248t-216 -90q-135 0 -190 106q-95 -106 -232 -106zM530 772q-125 0 -180 90t-22 248t127.5 249t220.5 91q123 0 176.5 -91t19.5 -249
t-125.5 -248t-216.5 -90zM438 20h-110l905 1393h110zM451 1110q-24 -113 4.5 -174.5t97.5 -61.5t121 61t76 175q25 115 -1 177.5t-96 62.5q-69 0 -123.5 -63t-78.5 -177zM1333 319q-24 -112 4.5 -172.5t96.5 -60.5q70 0 122 60.5t76 175.5q23 115 -2.5 177t-93.5 62
q-69 0 -124 -63.5t-79 -178.5zM911 322q-24 -113 5 -174.5t98 -61.5t120.5 60.5t75.5 175.5q25 115 -0.5 177t-95.5 62q-69 0 -124 -63t-79 -176z" />
    <glyph glyph-name="guilsinglleft" unicode="&#x2039;" horiz-adv-x="667" 
d="M299 442l252 -415h-107l-260 409l9 37l417 406h117l-424 -420z" />
    <glyph glyph-name="guilsinglright" unicode="&#x203a;" horiz-adv-x="667" 
d="M551 459l4 16l-260 404h102l262 -406l-6 -37l-420 -409h-116z" />
    <glyph glyph-name="fraction" unicode="&#x2044;" horiz-adv-x="366" 
d="M-178 0h-103l1049 1331h96z" />
    <glyph glyph-name="uni2070" unicode="&#x2070;" horiz-adv-x="550" 
d="M438 911q-111 0 -158 83t-22 227q25 137 103 222t186 85t154 -85.5t22 -221.5q-25 -144 -100.5 -227t-184.5 -83zM383 1221q-35 -199 74 -199q106 0 141 199q35 196 -70 196q-110 0 -145 -196z" />
    <glyph glyph-name="uni2074" unicode="&#x2074;" horiz-adv-x="522" 
d="M479 1020h-266l16 84l363 405h88l-70 -399h66l-17 -90h-65l-19 -105h-114zM354 1114v-4h142l36 211h-2z" />
    <glyph glyph-name="uni2075" unicode="&#x2075;" horiz-adv-x="526" 
d="M410 905q-63 0 -118 23t-87 53l67 90q71 -63 140 -63q60 0 98.5 30.5t46.5 81.5q19 105 -82 105q-67 0 -119 -35l-49 45l64 276h338l-17 -102h-252l-28 -121l2 -2q64 27 123 27q75 0 119 -45t26 -150q-14 -73 -59 -123t-99 -70t-114 -20z" />
    <glyph glyph-name="uni2076" unicode="&#x2076;" horiz-adv-x="532" 
d="M436 913q-109 0 -158.5 73.5t-27.5 197.5q30 165 118.5 254.5t202.5 89.5q89 0 166 -58l-73 -81q-59 38 -107 38q-65 0 -110 -51.5t-60 -122.5h4q56 56 131 56q90 0 132 -54.5t26 -136.5q-14 -87 -79.5 -146t-164.5 -59zM375 1122q-10 -56 13.5 -88.5t64.5 -32.5
q39 0 70.5 29.5t41.5 87.5t-11 86.5t-60 28.5q-42 0 -76 -29t-43 -82z" />
    <glyph glyph-name="uni2077" unicode="&#x2077;" horiz-adv-x="477" 
d="M264 922q65 148 125.5 243.5t167.5 233.5v4h-266l18 106h396l-17 -90q-111 -142 -173.5 -244t-125.5 -253h-125z" />
    <glyph glyph-name="uni2078" unicode="&#x2078;" horiz-adv-x="536" 
d="M428 911q-106 0 -157.5 47t-37.5 125q11 60 48 100t90 58v4q-62 42 -49 127q12 68 71.5 112t143.5 44q85 0 129 -44t32 -112q-13 -84 -90 -127v-4q96 -39 76 -158q-14 -78 -81.5 -125t-174.5 -47zM360 1090q-8 -48 12.5 -74t69.5 -25q98 0 117 99q9 50 -13 79t-67 29
q-46 0 -78 -28.5t-41 -79.5zM434 1374q-8 -39 8.5 -63.5t51.5 -24.5q38 0 62 24t30 64q6 33 -10 56.5t-52 23.5t-59.5 -23.5t-30.5 -56.5z" />
    <glyph glyph-name="uni2079" unicode="&#x2079;" horiz-adv-x="532" 
d="M223 971l72 82q54 -39 106 -39q65 0 111 51.5t59 122.5h-4q-51 -55 -131 -55q-89 0 -130 52.5t-27 135.5q14 88 79 147.5t164 59.5q109 0 159 -74t28 -197q-29 -166 -118 -255t-202 -89q-99 0 -166 58zM393 1321q-10 -58 11.5 -86.5t60.5 -28.5q42 0 76.5 29.5t44.5 83.5
q9 55 -14.5 87t-63.5 32t-72.5 -29.5t-42.5 -87.5z" />
    <glyph glyph-name="uni2080" unicode="&#x2080;" horiz-adv-x="550" 
d="M258 -113q-112 0 -159 83t-21 227q24 137 101.5 222t187.5 85q108 0 154 -85.5t22 -221.5q-27 -144 -101.5 -227t-183.5 -83zM203 197q-38 -199 73 -199q107 0 142 199q35 196 -72 196q-108 0 -143 -196z" />
    <glyph glyph-name="uni2081" unicode="&#x2081;" horiz-adv-x="395" 
d="M129 279l-31 86l201 120h82l-105 -587h-118l78 442h-5z" />
    <glyph glyph-name="uni2082" unicode="&#x2082;" horiz-adv-x="526" 
d="M45 -102l18 96l234 201q27 24 40.5 37t33 41.5t24.5 54.5q6 34 -11 54.5t-52 20.5q-28 0 -54.5 -15.5t-41.5 -31.5t-41 -47l-76 51q108 148 241 148q83 0 126.5 -47.5t29.5 -122.5q-7 -42 -32 -81.5t-45 -59.5t-58 -54l-152 -135v-4h242l-20 -106h-406z" />
    <glyph glyph-name="uni2083" unicode="&#x2083;" horiz-adv-x="524" 
d="M227 -111q-122 0 -186 64l65 88q57 -51 136 -51q103 0 118 86q9 42 -17.5 64t-84.5 22h-53l14 82h55q51 0 82 22.5t37 59.5q6 33 -11.5 51t-59.5 18q-72 0 -146 -55l-35 84q105 76 207 76q85 0 129 -38.5t31 -115.5q-10 -53 -35 -81t-67 -48v-4q93 -44 73 -150
q-9 -49 -35.5 -84.5t-63.5 -54t-75 -27t-78 -8.5z" />
    <glyph glyph-name="uni2084" unicode="&#x2084;" horiz-adv-x="540" 
d="M315 -4h-264l15 84l362 405h90l-72 -399h66l-16 -90h-64l-18 -105h-117zM174 86h158l41 231h-2l-197 -227v-4z" />
    <glyph glyph-name="uni2085" unicode="&#x2085;" horiz-adv-x="526" 
d="M229 -119q-64 0 -118.5 22.5t-85.5 53.5l67 90q71 -63 139 -63q60 0 99.5 30.5t48.5 81.5q19 105 -82 105q-65 0 -121 -35l-49 45l63 276h340l-18 -102h-252l-29 -121l5 -2q60 27 120 27q75 0 119.5 -45t26.5 -150q-13 -73 -58.5 -123t-100 -70t-114.5 -20z" />
    <glyph glyph-name="uni2086" unicode="&#x2086;" horiz-adv-x="532" 
d="M258 -113q-109 0 -158.5 74.5t-27.5 198.5q30 165 118 254.5t201 89.5q94 0 166 -58l-72 -81q-59 38 -106 38q-65 0 -111 -52t-59 -122h4q21 23 57 39.5t74 16.5q89 0 130.5 -54t27.5 -137q-16 -88 -81 -147.5t-163 -59.5zM195 98q-9 -56 14 -88.5t63 -32.5t72.5 29.5
t42.5 87.5t-12 86.5t-62 28.5q-41 0 -74.5 -29t-43.5 -82z" />
    <glyph glyph-name="uni2087" unicode="&#x2087;" horiz-adv-x="477" 
d="M82 -104q67 149 126.5 244t166.5 235l2 4h-266l18 106h393l-16 -90q-110 -143 -172 -245t-125 -254h-127z" />
    <glyph glyph-name="uni2088" unicode="&#x2088;" horiz-adv-x="536" 
d="M250 -113q-107 0 -159 47t-38 125q11 60 48 100t89 58v4q-62 42 -49 127q12 68 72 112t145 44t128.5 -43.5t31.5 -112.5q-13 -84 -90 -127v-4q99 -40 76 -158q-14 -78 -81.5 -125t-172.5 -47zM180 66q-8 -48 12.5 -74.5t69.5 -26.5q101 3 117 101q9 51 -12.5 79.5
t-67.5 28.5q-45 0 -77.5 -29t-41.5 -79zM254 350q-6 -39 9.5 -63.5t51.5 -24.5q37 0 61 24t30 64q6 33 -10 56.5t-52 23.5t-59.5 -23.5t-30.5 -56.5z" />
    <glyph glyph-name="uni2089" unicode="&#x2089;" horiz-adv-x="532" 
d="M209 -113q-94 0 -166 58l72 84q57 -41 106 -41q65 0 111 52t59 124h-4q-20 -23 -56 -39t-75 -16q-89 0 -130.5 53t-27.5 135q16 88 81 147.5t163 59.5q109 0 158.5 -74t27.5 -197q-30 -167 -118 -256.5t-201 -89.5zM213 297q-10 -57 12.5 -86t61.5 -29q41 0 75 29.5
t44 83.5t-13.5 86.5t-64.5 32.5q-40 0 -72.5 -29.5t-42.5 -87.5z" />
    <glyph glyph-name="franc" unicode="&#x20a3;" horiz-adv-x="1009" 
d="M121 299l24 113h86l209 981h770l-45 -209h-530l-86 -412h471l-37 -176h-473l-39 -184h324l-23 -113h-326l-63 -299h-238l64 299h-88z" />
    <glyph glyph-name="lira" unicode="&#x20a4;" horiz-adv-x="929" 
d="M872 0h-821l39 180q92 81 146.5 153t76.5 156h-157l24 113h146q0 35 -4 121h-117l24 113h88q2 150 69 277.5t190 205.5t276 78q84 0 158 -24t112 -50l-102 -170q-1 0 -14.5 7.5t-19.5 10t-21.5 9.5t-27.5 10.5t-29 7.5t-35.5 6t-38.5 2q-70 0 -129 -33t-96 -87t-57 -119
t-20 -131h390l-25 -113h-367q0 -15 0.5 -40t0.5 -45t-1 -36h342l-24 -113h-334q-37 -143 -186 -299l-2 -6h585z" />
    <glyph glyph-name="peseta" unicode="&#x20a7;" horiz-adv-x="1163" 
d="M365 1022l75 358q250 21 385 21q211 0 317.5 -97t80.5 -282h131l-23 -113h-137q-62 -180 -214 -281t-327 -104q-40 -1 -157 13l-115 -537h-234l193 909h-121l23 113h123zM952 909h-379l-36 -178q61 -12 135 -12q100 0 172 50.5t108 139.5zM598 1022h381q5 82 -45.5 132
t-153.5 50q-81 0 -143 -6z" />
    <glyph glyph-name="Euro" unicode="&#x20ac;" horiz-adv-x="999" 
d="M221 506h-92l25 112h77q12 76 33 150h-80l25 113h92q95 241 270.5 381.5t378.5 140.5q148 0 238 -53l-43 -205q-77 51 -199 51q-117 0 -221 -83.5t-170 -231.5h461l-25 -113h-477q-26 -91 -33 -150h480l-25 -112h-459q7 -142 78 -223.5t180 -81.5q126 0 230 51l-45 -207
q-128 -59 -273 -59q-195 0 -313.5 139t-112.5 381z" />
    <glyph glyph-name="uni20BA" unicode="&#x20ba;" horiz-adv-x="1142" 
d="M305 565l-178 -71l25 112l178 72l24 119l-178 -72l25 113l178 71l102 484h230l-82 -383l297 118l-25 -112l-295 -119l-26 -119l297 119l-25 -113l-295 -118l-98 -457q178 20 324 158t186 325h200q-34 -160 -119 -294t-201 -222t-254.5 -137t-281.5 -49q-59 0 -127 12z
" />
    <glyph glyph-name="uni2113" unicode="&#x2113;" horiz-adv-x="858" 
d="M213 356q-68 -18 -131 -24l27 125q59 8 131 37l108 512q114 536 451 536q135 0 183 -99t11 -269q-47 -220 -191 -403.5t-335 -299.5q-18 -92 -15.5 -159t37.5 -104.5t103 -37.5q65 0 145 45l29 -168q-40 -25 -123 -48.5t-149 -23.5q-165 0 -238 91.5t-43 289.5zM508 670
q110 101 188.5 227.5t108.5 263.5q19 71 10.5 136t-55.5 65q-34 0 -60.5 -24.5t-48.5 -78t-39 -116t-37 -158.5z" />
    <glyph glyph-name="uni2116" unicode="&#x2116;" horiz-adv-x="2304" 
d="M143 0l252 1434h242l362 -973h7l196 973h246l-250 -1434h-248l-360 936h-6l-193 -936h-248zM1849 289q-88 0 -159.5 30.5t-121 91t-67.5 150t2 207.5q40 226 185.5 352.5t328.5 126.5q88 0 159.5 -30.5t121.5 -91t68.5 -150t-1.5 -207.5q-27 -152 -107 -263
t-185.5 -163.5t-223.5 -52.5zM1745 768q-27 -135 4.5 -214t124.5 -79q91 0 156 79.5t92 213.5q27 137 -4 216t-123 79q-91 0 -156 -79.5t-94 -215.5zM2103 0h-612l18 137h611z" />
    <glyph glyph-name="uni2117" unicode="&#x2117;" horiz-adv-x="1468" 
d="M729 -20q-176 0 -306 92t-183.5 250.5t-14.5 343.5q39 186 160 344t290 249t345 91q132 0 241.5 -53.5t176 -146.5t93.5 -217.5t-5 -266.5q-39 -185 -160.5 -343.5t-291 -250.5t-345.5 -92zM346 666q-33 -154 10 -285.5t148.5 -208t249.5 -76.5t282 76.5t236.5 208
t132.5 285.5q33 154 -10 285.5t-149.5 208.5t-250.5 77q-143 0 -280.5 -77t-236.5 -208.5t-132 -285.5zM725 276h-152l164 771q164 12 236 12q133 0 195 -63.5t36 -184.5q-18 -85 -70 -146.5t-119.5 -91t-142.5 -30.5q-32 0 -90 8zM809 674q38 -6 76 -6q67 0 110.5 39
t55.5 104q9 54 -18.5 87.5t-90.5 33.5q-26 0 -80 -4z" />
    <glyph glyph-name="uni2120" unicode="&#x2120;" horiz-adv-x="1234" 
d="M743 870l119 564h113l108 -390h4l277 390h104l-118 -564h-123l65 310h-4l-205 -301h-88l-73 290h-7l-61 -299h-111zM453 862q-51 0 -103.5 15t-83.5 41l70 94q64 -47 137 -47q40 0 67 16t33 45q6 30 -11.5 46.5t-74.5 31.5q-73 21 -103 61.5t-15 108.5q17 81 78.5 127.5
t146.5 46.5q106 0 170 -47l-66 -96q-55 38 -114 38q-40 0 -63.5 -17.5t-28.5 -43.5q-6 -29 10 -43.5t65 -28.5q81 -26 112 -64.5t17 -107.5q-19 -86 -86.5 -131t-156.5 -45z" />
    <glyph glyph-name="trademark" unicode="&#x2122;" horiz-adv-x="1290" 
d="M797 870l121 564h112l109 -390h4l276 390h105l-121 -564h-121l66 310h-5l-206 -301h-88l-74 290h-4l-64 -299h-110zM328 1329l20 105h477l-22 -105h-178l-99 -459h-120l96 459h-174z" />
    <glyph glyph-name="estimated" unicode="&#x212e;" horiz-adv-x="1032" 
d="M512 -16q-207 0 -305.5 130t-54.5 343q46 213 199.5 344t363.5 131q209 0 307 -130.5t53 -344.5l-6 -23h-762l-55 -264q85 -131 272 -131q125 0 228.5 55t175.5 154h61q-84 -130 -209.5 -197t-267.5 -67zM317 483h605l55 258q-84 136 -275 136q-187 0 -327 -134z" />
    <glyph glyph-name="arrowleft" unicode="&#x2190;" horiz-adv-x="1437" 
d="M223 670l510 434l98 -119l-272 -231v-4h907l-30 -168h-908v-4l191 -232l-141 -119l-357 435z" />
    <glyph glyph-name="arrowup" unicode="&#x2191;" horiz-adv-x="1001" 
d="M221 885l510 434h8l357 -434l-140 -119l-190 231h-4l-162 -907h-168l162 907h-4l-273 -231z" />
    <glyph glyph-name="arrowright" unicode="&#x2192;" horiz-adv-x="1437" 
d="M1096 1104l356 -434l-2 -8l-510 -435l-96 119l270 232l2 4h-909l31 168h907l2 4l-191 231z" />
    <glyph glyph-name="arrowdown" unicode="&#x2193;" horiz-adv-x="1001" 
d="M500 8l-357 434l140 119l190 -231h4l160 907h168l-160 -907h4l271 231l98 -119l-510 -434h-8z" />
    <glyph glyph-name="arrowboth" unicode="&#x2194;" horiz-adv-x="1765" 
d="M578 227l-357 435l2 8l510 434l98 -119l-272 -231v-4h914l2 4l-191 231l139 119l357 -434l-2 -8l-510 -435l-97 119l271 232l2 4h-916v-4l191 -232z" />
    <glyph glyph-name="arrowupdn" unicode="&#x2195;" horiz-adv-x="1001" 
d="M131 377l139 119l191 -232h4l162 914h-4l-273 -230l-96 119l510 432h8l356 -432l-139 -119l-190 230h-4l-162 -914h4l270 232l99 -119l-510 -434h-9z" />
    <glyph glyph-name="uni2196" unicode="&#x2196;" horiz-adv-x="1140" 
d="M293 1030h614l-30 -168h-326l-4 -4l528 -641l-141 -119l-526 641l-5 -2l-57 -325h-168l109 612z" />
    <glyph glyph-name="uni2197" unicode="&#x2197;" horiz-adv-x="1140" 
d="M1217 1022l-109 -612h-168l59 325l-4 4l-755 -643l-97 119l756 643l-2 2h-328l31 168h612z" />
    <glyph glyph-name="uni2198" unicode="&#x2198;" horiz-adv-x="1140" 
d="M1069 227h-612l30 168h326l4 2l-528 643l139 119l528 -643l5 4l57 326h168l-109 -613z" />
    <glyph glyph-name="uni2199" unicode="&#x2199;" horiz-adv-x="1140" 
d="M147 233l109 615h168l-59 -328l2 -2l755 641l99 -119l-756 -641l2 -4h328l-31 -168l-612 2z" />
    <glyph glyph-name="partialdiff" unicode="&#x2202;" horiz-adv-x="1212" 
d="M160 399q23 110 83 213t142 181t187 125t212 47q126 0 198 -64t71 -184h6q34 90 53 176q15 71 17 137.5t-13 128t-45.5 107t-85 73t-127.5 27.5q-102 0 -223 -41l10 186q162 52 293 52q122 0 212 -51.5t136.5 -142t59 -214.5t-20.5 -268q-26 -120 -76.5 -243.5
t-128.5 -241t-170.5 -209t-211.5 -147.5t-244 -56q-189 0 -281.5 108t-52.5 301zM547 184q124 0 234.5 116.5t138.5 250.5q22 101 -21 164t-139 63q-83 0 -163 -59.5t-132 -144t-70 -168.5q-22 -101 18.5 -161.5t133.5 -60.5z" />
    <glyph glyph-name="product" unicode="&#x220f;" horiz-adv-x="1325" 
d="M328 -512h-209l379 1782h-162l35 164h1192l-35 -164h-162l-377 -1782h-211l379 1782h-450z" />
    <glyph glyph-name="summation" unicode="&#x2211;" horiz-adv-x="1282" 
d="M1083 -512h-1091l33 158l729 872l-377 787l29 129h1091l-33 -154h-831l356 -737l-706 -854h843z" />
    <glyph glyph-name="minus" unicode="&#x2212;" horiz-adv-x="1034" 
d="M182 426l21 145h856l-21 -145h-856z" />
    <glyph glyph-name="uni2215" unicode="&#x2215;" horiz-adv-x="704" 
d="M-20 -51l897 1587h151l-897 -1587h-151z" />
    <glyph glyph-name="uni2219" unicode="&#x2219;" horiz-adv-x="587" 
d="M391 494q-76 0 -119 57.5t-28 134.5q15 81 80.5 139t142.5 58q74 0 117 -58t28 -139q-15 -77 -81.5 -134.5t-139.5 -57.5z" />
    <glyph glyph-name="radical" unicode="&#x221a;" horiz-adv-x="1284" 
d="M211 788h209l100 -792h6l920 1540h162l-1045 -1731h-160l-112 846h-109z" />
    <glyph glyph-name="infinity" unicode="&#x221e;" horiz-adv-x="1425" 
d="M459 211q-127 0 -182.5 91t-26.5 226q29 136 123 227t221 91q172 0 262 -225q187 225 361 225q126 0 181 -91t25 -227q-29 -135 -123 -226t-221 -91q-168 0 -262 227q-185 -227 -358 -227zM350 528q-20 -94 14.5 -155.5t120.5 -61.5q128 0 293 217q-71 220 -200 220
q-86 0 -146.5 -62.5t-81.5 -157.5zM897 528q71 -217 201 -217q86 0 145.5 61.5t79.5 155.5q21 95 -13 157.5t-120 62.5q-128 0 -293 -220z" />
    <glyph glyph-name="integral" unicode="&#x222b;" horiz-adv-x="659" 
d="M-96 -512l41 197q203 0 272 333l221 1035q52 246 191 364.5t344 118.5l-41 -197q-201 0 -273 -331l-219 -1037q-27 -123 -84 -218t-131 -151.5t-155.5 -85t-165.5 -28.5z" />
    <glyph glyph-name="approxequal" unicode="&#x2248;" horiz-adv-x="1263" 
d="M223 561l23 168q37 32 110 66t150 34q54 0 108.5 -19.5t100 -47.5l91 -56t98 -47.5t104.5 -19.5q118 0 266 131l-21 -168q-119 -110 -264 -110q-62 0 -121 19.5t-104.5 47.5t-88.5 56t-91.5 47.5t-94.5 19.5q-75 0 -151 -41t-115 -80zM420 354q-75 0 -151 -41t-115 -80
l22 168q37 33 110 67t150 34q54 0 108.5 -19.5t100 -48t91 -56.5t98 -47.5t104.5 -19.5q118 0 266 131l-20 -168q-119 -110 -264 -110q-62 0 -121 19.5t-104.5 47.5t-88.5 56t-91.5 47.5t-94.5 19.5z" />
    <glyph glyph-name="notequal" unicode="&#x2260;" horiz-adv-x="1046" 
d="M156 221l20 174h330l153 240h-434l21 174h526l168 260h113l-168 -260h190l-20 -174h-283l-156 -240h388l-21 -174h-479l-205 -319h-113l207 319h-237z" />
    <glyph glyph-name="lessequal" unicode="&#x2264;" horiz-adv-x="1136" 
d="M1278 1200l-39 -184l-721 -223l-2 -11l623 -229l-41 -199l-848 346l37 170zM129 61l31 146h897l-33 -146h-895z" />
    <glyph glyph-name="greaterequal" unicode="&#x2265;" horiz-adv-x="1136" 
d="M332 1016l39 184l850 -330l-37 -170l-994 -346l43 199l721 229l2 11zM1065 207l-31 -146h-895l31 146h895z" />
    <glyph glyph-name="uni2460" unicode="&#x2460;" horiz-adv-x="1544" 
d="M768 -20q-140 0 -257 54.5t-192.5 146.5t-107 219t-6.5 266q33 186 153 343.5t294 249t360 91.5q139 0 256 -54t192.5 -145.5t107.5 -218t7 -266.5q-25 -139 -102 -266t-185 -219t-244.5 -146.5t-275.5 -54.5zM334 666q-28 -154 23 -285.5t165.5 -208t265.5 -76.5
t293.5 76.5t241 208t125.5 285.5t-24.5 285.5t-166.5 208.5t-266 77t-293 -77t-239.5 -208.5t-124.5 -285.5zM717 866l213 121h88l-105 -588h-129l78 441h-4l-104 -62z" />
    <glyph glyph-name="uni2461" unicode="&#x2461;" horiz-adv-x="1544" 
d="M768 -20q-140 0 -257 54.5t-192.5 146.5t-107 219t-6.5 266q33 186 153 343.5t294 249t360 91.5q139 0 256 -54t192.5 -145.5t107.5 -218t7 -266.5q-25 -139 -102 -266t-185 -219t-244.5 -146.5t-275.5 -54.5zM334 666q-28 -154 23 -285.5t165.5 -208t265.5 -76.5
t293.5 76.5t241 208t125.5 285.5t-24.5 285.5t-166.5 208.5t-266 77t-293 -77t-239.5 -208.5t-124.5 -285.5zM627 399l16 97l244 200q90 75 100 133q6 34 -11 52t-54 18q-41 0 -72 -22.5t-66 -67.5l-86 53q113 148 254 148q88 0 134 -47.5t32 -122.5q-7 -42 -32.5 -81.5
t-46 -59.5t-60.5 -54l-154 -131v-4h248l-20 -111h-426z" />
    <glyph glyph-name="uni2462" unicode="&#x2462;" horiz-adv-x="1544" 
d="M768 -20q-140 0 -257 54.5t-192.5 146.5t-107 219t-6.5 266q33 186 153 343.5t294 249t360 91.5q139 0 256 -54t192.5 -145.5t107.5 -218t7 -266.5q-25 -139 -102 -266t-185 -219t-244.5 -146.5t-275.5 -54.5zM334 666q-28 -154 23 -285.5t165.5 -208t265.5 -76.5
t293.5 76.5t241 208t125.5 285.5t-24.5 285.5t-166.5 208.5t-266 77t-293 -77t-239.5 -208.5t-124.5 -285.5zM823 391q-129 0 -196 64l71 90q58 -49 140 -49q109 0 123 79q9 44 -18.5 66.5t-88.5 22.5h-55l14 84h57q54 0 84.5 21t36.5 58q6 31 -12.5 49.5t-60.5 18.5
q-71 0 -152 -57l-37 88q107 75 217 75q88 0 134.5 -39.5t33.5 -115.5q-8 -51 -33 -79.5t-69 -49.5l-2 -4q97 -42 77 -148q-9 -49 -36.5 -84.5t-66.5 -54t-78.5 -27t-82.5 -8.5z" />
    <glyph glyph-name="uni2463" unicode="&#x2463;" horiz-adv-x="1544" 
d="M768 -20q-140 0 -257 54.5t-192.5 146.5t-107 219t-6.5 266q33 186 153 343.5t294 249t360 91.5q139 0 256 -54t192.5 -145.5t107.5 -218t7 -266.5q-25 -139 -102 -266t-185 -219t-244.5 -146.5t-275.5 -54.5zM334 666q-28 -154 23 -285.5t165.5 -208t265.5 -76.5
t293.5 76.5t241 208t125.5 285.5t-24.5 285.5t-166.5 208.5t-266 77t-293 -77t-239.5 -208.5t-124.5 -285.5zM584 502l16 86l377 405h98l-69 -397h63l-16 -94h-66l-18 -103h-127l18 103h-276zM735 596h142l34 192h-4l-170 -186z" />
    <glyph glyph-name="uni2464" unicode="&#x2464;" horiz-adv-x="1544" 
d="M768 -20q-140 0 -257 54.5t-192.5 146.5t-107 219t-6.5 266q33 186 153 343.5t294 249t360 91.5q139 0 256 -54t192.5 -145.5t107.5 -218t7 -266.5q-25 -139 -102 -266t-185 -219t-244.5 -146.5t-275.5 -54.5zM334 666q-28 -154 23 -285.5t165.5 -208t265.5 -76.5
t293.5 76.5t241 208t125.5 285.5t-24.5 285.5t-166.5 208.5t-266 77t-293 -77t-239.5 -208.5t-124.5 -285.5zM614 465l74 92q68 -61 148 -61q61 0 99.5 28t47.5 80q9 47 -14 75t-72 28q-69 0 -125 -35l-53 45l65 276h357l-19 -102h-264l-27 -117l7 -2q70 27 123 27
q78 0 125.5 -47t29.5 -152q-14 -73 -60.5 -123t-102.5 -70t-119 -20q-68 0 -127.5 23.5t-92.5 54.5z" />
    <glyph glyph-name="uni2465" unicode="&#x2465;" horiz-adv-x="1544" 
d="M768 -20q-140 0 -257 54.5t-192.5 146.5t-107 219t-6.5 266q33 186 153 343.5t294 249t360 91.5q139 0 256 -54t192.5 -145.5t107.5 -218t7 -266.5q-25 -139 -102 -266t-185 -219t-244.5 -146.5t-275.5 -54.5zM334 666q-28 -154 23 -285.5t165.5 -208t265.5 -76.5
t293.5 76.5t241 208t125.5 285.5t-24.5 285.5t-166.5 208.5t-266 77t-293 -77t-239.5 -208.5t-124.5 -285.5zM831 389q-116 0 -168 73.5t-30 196.5q29 166 122 255.5t212 89.5q103 0 174 -58l-76 -82q-62 37 -113 37q-69 0 -115 -51t-59 -119h4q23 21 59.5 37t76.5 16
q95 0 139 -53t28 -135q-14 -88 -82.5 -147.5t-171.5 -59.5zM764 598q-9 -54 16 -86.5t66 -32.5q40 0 74.5 30.5t44.5 86.5q10 57 -13 86t-65 29t-77.5 -30t-45.5 -83z" />
    <glyph glyph-name="uni2466" unicode="&#x2466;" horiz-adv-x="1544" 
d="M768 -20q-140 0 -257 54.5t-192.5 146.5t-107 219t-6.5 266q33 186 153 343.5t294 249t360 91.5q139 0 256 -54t192.5 -145.5t107.5 -218t7 -266.5q-25 -139 -102 -266t-185 -219t-244.5 -146.5t-275.5 -54.5zM334 666q-28 -154 23 -285.5t165.5 -208t265.5 -76.5
t293.5 76.5t241 208t125.5 285.5t-24.5 285.5t-166.5 208.5t-266 77t-293 -77t-239.5 -208.5t-124.5 -285.5zM836 375h-136q68 148 129 241t172 232l3 6h-279l18 109h414l-14 -93q-113 -138 -176.5 -239.5t-130.5 -255.5z" />
    <glyph glyph-name="uni2467" unicode="&#x2467;" horiz-adv-x="1544" 
d="M768 -20q-140 0 -257 54.5t-192.5 146.5t-107 219t-6.5 266q33 186 153 343.5t294 249t360 91.5q139 0 256 -54t192.5 -145.5t107.5 -218t7 -266.5q-25 -139 -102 -266t-185 -219t-244.5 -146.5t-275.5 -54.5zM334 666q-28 -154 23 -285.5t165.5 -208t265.5 -76.5
t293.5 76.5t241 208t125.5 285.5t-24.5 285.5t-166.5 208.5t-266 77t-293 -77t-239.5 -208.5t-124.5 -285.5zM838 389q-112 0 -166.5 46t-40.5 124q19 115 141 160v4q-67 43 -51 127q11 67 74 111.5t151 44.5q89 0 135.5 -44.5t34.5 -111.5q-14 -86 -94 -127v-4
q104 -43 82 -160q-14 -78 -84 -124t-182 -46zM766 567q-8 -46 13.5 -72t70.5 -26q52 0 82.5 25.5t38.5 72.5q9 49 -14.5 78t-69.5 29q-45 0 -79.5 -29.5t-41.5 -77.5zM842 850q-8 -38 9 -62t52 -24t60.5 23.5t33.5 62.5q5 33 -11.5 56.5t-53.5 23.5q-36 0 -60.5 -23.5
t-29.5 -56.5z" />
    <glyph glyph-name="uni2468" unicode="&#x2468;" horiz-adv-x="1544" 
d="M768 -20q-140 0 -257 54.5t-192.5 146.5t-107 219t-6.5 266q33 186 153 343.5t294 249t360 91.5q139 0 256 -54t192.5 -145.5t107.5 -218t7 -266.5q-25 -139 -102 -266t-185 -219t-244.5 -146.5t-275.5 -54.5zM334 666q-28 -154 23 -285.5t165.5 -208t265.5 -76.5
t293.5 76.5t241 208t125.5 285.5t-24.5 285.5t-166.5 208.5t-266 77t-293 -77t-239.5 -208.5t-124.5 -285.5zM819 383q-99 0 -174 57l78 84q51 -37 111 -37q69 0 115 50.5t59 119.5h-4q-59 -55 -136 -55q-95 0 -138.5 54t-29.5 137q14 87 82.5 145.5t173.5 58.5
q114 0 166.5 -73.5t30.5 -196.5q-30 -165 -123 -254.5t-211 -89.5zM821 793q-10 -57 13 -86t65 -29q43 0 78.5 29.5t44.5 80.5q10 55 -15.5 88t-66.5 33q-40 0 -74.5 -30.5t-44.5 -85.5z" />
    <glyph glyph-name="uni24EA" unicode="&#x24ea;" horiz-adv-x="1544" 
d="M768 -20q-140 0 -257 54.5t-192.5 146.5t-107 219t-6.5 266q33 186 153 343.5t294 249t360 91.5q139 0 256 -54t192.5 -145.5t107.5 -218t7 -266.5q-25 -139 -102 -266t-185 -219t-244.5 -146.5t-275.5 -54.5zM334 666q-28 -154 23 -285.5t165.5 -208t265.5 -76.5
t293.5 76.5t241 208t125.5 285.5t-24.5 285.5t-166.5 208.5t-266 77t-293 -77t-239.5 -208.5t-124.5 -285.5zM840 387q-116 0 -167 83t-26 226q25 137 106 222.5t195 85.5t163.5 -86t25.5 -222q-25 -144 -103 -226.5t-194 -82.5zM780 696q-34 -196 78 -196t146 196
q35 195 -76 195q-113 0 -148 -195z" />
    <glyph glyph-name="uni24FF" unicode="&#x24ff;" horiz-adv-x="1544" 
d="M768 -20q-140 0 -257 54.5t-192.5 146.5t-107 219t-6.5 266q33 186 153 343.5t294 249t360 91.5q139 0 256 -54t192.5 -145.5t107.5 -218t7 -266.5q-25 -139 -102 -266t-185 -219t-244.5 -146.5t-275.5 -54.5zM647 696q-25 -143 26 -226t167 -83t194 82.5t103 226.5
q24 136 -25.5 222t-163.5 86t-195 -85.5t-106 -222.5zM858 500q-112 0 -78 196q35 195 148 195q111 0 76 -195q-34 -196 -146 -196z" />
    <glyph glyph-name="lozenge" unicode="&#x25ca;" horiz-adv-x="1267" 
d="M227 674l650 897h190l260 -897l-641 -899h-190zM463 674l176 -635h6l440 635l-170 633h-6z" />
    <glyph glyph-name="uni2776" unicode="&#x2776;" horiz-adv-x="1544" 
d="M768 -20q-140 0 -257 54.5t-192.5 146.5t-107 219t-6.5 266q33 186 153 343.5t294 249t360 91.5q139 0 256 -54t192.5 -145.5t107.5 -218t7 -266.5q-25 -139 -102 -266t-185 -219t-244.5 -146.5t-275.5 -54.5zM717 866l37 -88l104 62h4l-78 -441h129l105 588h-88z" />
    <glyph glyph-name="uni2777" unicode="&#x2777;" horiz-adv-x="1544" 
d="M768 -20q-140 0 -257 54.5t-192.5 146.5t-107 219t-6.5 266q33 186 153 343.5t294 249t360 91.5q139 0 256 -54t192.5 -145.5t107.5 -218t7 -266.5q-25 -139 -102 -266t-185 -219t-244.5 -146.5t-275.5 -54.5zM627 399h426l20 111h-248v4l154 131q40 34 60.5 54t46 59.5
t32.5 81.5q14 75 -32 122.5t-134 47.5q-141 0 -254 -148l86 -53q35 45 66 67.5t72 22.5q37 0 54 -18t11 -52q-10 -58 -100 -133l-244 -200z" />
    <glyph glyph-name="uni2778" unicode="&#x2778;" horiz-adv-x="1544" 
d="M768 -20q-140 0 -257 54.5t-192.5 146.5t-107 219t-6.5 266q33 186 153 343.5t294 249t360 91.5q139 0 256 -54t192.5 -145.5t107.5 -218t7 -266.5q-25 -139 -102 -266t-185 -219t-244.5 -146.5t-275.5 -54.5zM627 455q67 -64 196 -64q43 0 82.5 8.5t78.5 27t66.5 54
t36.5 84.5q20 106 -77 148l2 4q44 21 69 49.5t33 79.5q13 76 -33.5 115.5t-134.5 39.5q-110 0 -217 -75l37 -88q81 57 152 57q42 0 60.5 -18.5t12.5 -49.5q-6 -37 -36.5 -58t-84.5 -21h-57l-14 -84h55q61 0 88.5 -22.5t18.5 -66.5q-14 -79 -123 -79q-82 0 -140 49z" />
    <glyph glyph-name="uni2779" unicode="&#x2779;" horiz-adv-x="1544" 
d="M768 -20q-140 0 -257 54.5t-192.5 146.5t-107 219t-6.5 266q33 186 153 343.5t294 249t360 91.5q139 0 256 -54t192.5 -145.5t107.5 -218t7 -266.5q-25 -139 -102 -266t-185 -219t-244.5 -146.5t-275.5 -54.5zM600 588l-16 -86h276l-18 -103h127l18 103h66l16 94h-63
l69 397h-98zM737 602l172 191h2l-34 -197h-140v6z" />
    <glyph glyph-name="uni277A" unicode="&#x277a;" horiz-adv-x="1544" 
d="M768 -20q-140 0 -257 54.5t-192.5 146.5t-107 219t-6.5 266q33 186 153 343.5t294 249t360 91.5q139 0 256 -54t192.5 -145.5t107.5 -218t7 -266.5q-25 -139 -102 -266t-185 -219t-244.5 -146.5t-275.5 -54.5zM688 557l-74 -92q33 -31 92.5 -54.5t127.5 -23.5
q63 0 119 20t102.5 70t60.5 123q18 105 -29.5 152t-125.5 47q-53 0 -123 -27l-7 2l27 117h264l19 102h-357l-65 -276l53 -45q56 35 125 35q49 0 72 -28t14 -75q-9 -52 -47.5 -80t-99.5 -28q-80 0 -148 61z" />
    <glyph glyph-name="uni277B" unicode="&#x277b;" horiz-adv-x="1544" 
d="M768 -20q-140 0 -257 54.5t-192.5 146.5t-107 219t-6.5 266q33 186 153 343.5t294 249t360 91.5q139 0 256 -54t192.5 -145.5t107.5 -218t7 -266.5q-25 -139 -102 -266t-185 -219t-244.5 -146.5t-275.5 -54.5zM633 659q-22 -123 30 -196.5t168 -73.5q103 0 171.5 59.5
t82.5 147.5q16 82 -28 135t-139 53q-40 0 -76.5 -16t-59.5 -37h-4q13 68 59 119t115 51q51 0 113 -37l76 82q-71 58 -174 58q-119 0 -212 -89.5t-122 -255.5zM764 598q10 53 45.5 83t77.5 30t65 -29t13 -86q-10 -56 -44.5 -86.5t-74.5 -30.5q-41 0 -66 32.5t-16 86.5z" />
    <glyph glyph-name="uni277C" unicode="&#x277c;" horiz-adv-x="1544" 
d="M768 -20q-140 0 -257 54.5t-192.5 146.5t-107 219t-6.5 266q33 186 153 343.5t294 249t360 91.5q139 0 256 -54t192.5 -145.5t107.5 -218t7 -266.5q-25 -139 -102 -266t-185 -219t-244.5 -146.5t-275.5 -54.5zM1001 848q-111 -139 -172 -232t-129 -241h136
q67 154 130.5 255.5t176.5 239.5l14 93h-414l-18 -109h279z" />
    <glyph glyph-name="uni277D" unicode="&#x277d;" horiz-adv-x="1544" 
d="M768 -20q-140 0 -257 54.5t-192.5 146.5t-107 219t-6.5 266q33 186 153 343.5t294 249t360 91.5q139 0 256 -54t192.5 -145.5t107.5 -218t7 -266.5q-25 -139 -102 -266t-185 -219t-244.5 -146.5t-275.5 -54.5zM631 559q-14 -78 40.5 -124t166.5 -46t182 46t84 124
q22 117 -82 160v4q80 41 94 127q12 67 -34.5 111.5t-135.5 44.5q-88 0 -151 -44.5t-74 -111.5q-16 -84 51 -127v-4q-122 -45 -141 -160zM850 469q-49 0 -70.5 27.5t-13.5 70.5q8 46 42 76.5t79 30.5q46 0 69.5 -29t14.5 -78q-8 -47 -38.5 -72.5t-82.5 -25.5zM903 764
q-35 0 -52 24t-9 62q5 33 29.5 56.5t60.5 23.5q37 0 53.5 -23.5t11.5 -56.5q-8 -39 -33.5 -62.5t-60.5 -23.5z" />
    <glyph glyph-name="uni277E" unicode="&#x277e;" horiz-adv-x="1544" 
d="M768 -20q-140 0 -257 54.5t-192.5 146.5t-107 219t-6.5 266q33 186 153 343.5t294 249t360 91.5q139 0 256 -54t192.5 -145.5t107.5 -218t7 -266.5q-25 -139 -102 -266t-185 -219t-244.5 -146.5t-275.5 -54.5zM723 524l-78 -84q75 -57 174 -57q118 0 211 89.5t123 254.5
q22 123 -30.5 196.5t-166.5 73.5q-105 0 -173.5 -58.5t-82.5 -145.5q-14 -83 29.5 -137t138.5 -54q77 0 136 55h4q-13 -69 -59 -119.5t-115 -50.5q-60 0 -111 37zM899 678q-42 0 -65 29t-13 86q10 55 44.5 85.5t74.5 30.5q41 0 66.5 -33t15.5 -88q-9 -51 -44.5 -80.5
t-78.5 -29.5z" />
    <glyph glyph-name="uniE000" unicode="&#xe000;" horiz-adv-x="1247" 
d="M758 -18q-296 0 -440.5 203.5t-84.5 541.5q58 327 275 522t508 195q225 0 387 -96l-105 -201q-129 76 -294 76q-173 0 -314.5 -137.5t-185.5 -358.5q-44 -242 45.5 -385t261.5 -143q179 0 326 86l49 -185q-207 -118 -428 -118zM1100 1536h-142l156 289h201z" />
    <glyph glyph-name="uniE001" unicode="&#xe001;" horiz-adv-x="874" 
d="M508 -16q-84 0 -153.5 29.5t-120 89t-69 149t0.5 209.5q36 210 173 344.5t335 134.5q170 0 278 -78l-80 -153q-64 53 -170 53q-110 0 -188 -84t-104 -211q-26 -133 22 -216t154 -83q55 0 111 16.5t94 40.5l40 -151q-146 -90 -323 -90zM627 1090l151 329h199l-223 -329
h-127z" />
    <glyph glyph-name="uniE002" unicode="&#xe002;" horiz-adv-x="1337" 
d="M143 0l252 1434h242l362 -973h7l196 973h246l-250 -1434h-248l-360 936h-6l-193 -936h-248zM877 1536l153 289h201l-213 -289h-141z" />
    <glyph glyph-name="uniE003" unicode="&#xe003;" 
d="M350 0h-235l161 922h213l-18 -136h6q54 68 131.5 112t163.5 44q179 0 241.5 -112.5t22.5 -350.5l-86 -479h-235l78 449q19 87 18 150t-34 98.5t-99 35.5q-74 0 -136.5 -67.5t-99.5 -173.5zM784 1090h-125l150 329h199z" />
    <glyph glyph-name="uniE004" unicode="&#xe004;" horiz-adv-x="1417" 
d="M707 -20q-185 0 -306.5 92.5t-165 259t-4.5 385.5q57 333 256 535t478 202q185 0 306 -92.5t164 -259t5 -385.5q-59 -333 -257.5 -535t-475.5 -202zM500 717q-47 -233 12 -371.5t221 -138.5q161 0 277 139t161 371q45 233 -14 371.5t-219 138.5q-162 0 -277.5 -138.5
t-160.5 -371.5zM1065 1536h-143l151 289h205z" />
    <glyph glyph-name="uniE005" unicode="&#xe005;" horiz-adv-x="1011" 
d="M504 -18q-88 0 -159.5 30.5t-121.5 91t-68.5 150t1.5 207.5q20 115 71 207.5t121 151t152.5 89.5t169.5 31q88 0 159.5 -30.5t121.5 -91t68.5 -150t-1.5 -207.5q-40 -226 -185.5 -352.5t-328.5 -126.5zM399 461q-27 -135 4.5 -214t122.5 -79q93 0 158 79.5t92 213.5
q27 136 -4.5 215.5t-124.5 79.5q-92 0 -156.5 -79.5t-91.5 -215.5zM754 1090h-127l149 329h199z" />
    <glyph glyph-name="uniE006" unicode="&#xe006;" horiz-adv-x="1148" 
d="M82 127l135 197q174 -121 352 -121q117 0 204.5 55.5t105.5 136.5q17 75 -40.5 124t-209.5 89q-189 50 -274 150t-54 278q21 125 102 219.5t195.5 142.5t243.5 48q245 0 432 -125l-135 -197q-162 107 -312 107q-106 0 -178 -55.5t-88 -131.5q-18 -81 36 -126.5t187 -81.5
q59 -16 105 -33.5t88 -39.5t71 -47t52.5 -56.5t32.5 -68t12.5 -82t-8.5 -97.5q-18 -107 -75 -191t-139.5 -134t-176.5 -75.5t-195 -25.5q-123 0 -254 38.5t-215 102.5zM940 1536h-141l153 289h201z" />
    <glyph glyph-name="uniE007" unicode="&#xe007;" horiz-adv-x="849" 
d="M86 72l80 155q95 -69 254 -69q62 0 108 26t56 68q10 43 -22.5 70.5t-121.5 56.5q-119 32 -176 104.5t-39 182.5q23 133 128.5 204.5t256.5 71.5q183 0 293 -76l-78 -153q-32 23 -92 39t-123 16q-62 0 -107 -25.5t-54 -64.5q-10 -44 13 -67t81 -42q163 -47 223.5 -119.5
t40.5 -189.5q-22 -131 -132.5 -203.5t-260.5 -72.5q-100 0 -190 26t-138 62zM698 1090h-127l152 329h199z" />
    <glyph glyph-name="uniE008" unicode="&#xe008;" horiz-adv-x="1236" 
d="M401 1434h953l-29 -236l-874 -967l-2 -6h667l-26 -225h-986l29 236l879 966l2 6h-639zM973 1825h201l-216 -289h-141z" />
    <glyph glyph-name="uniE009" unicode="&#xe009;" horiz-adv-x="802" 
d="M252 922h655l-24 -177l-508 -573v-6h391l-21 -166h-686l23 174l528 576l2 6h-381zM690 1419h199l-223 -329h-125z" />
    <glyph glyph-name="uniE00A" unicode="&#xe00a;" horiz-adv-x="1443" 
d="M594 -23q-150 8 -255.5 86t-147 202.5t-15.5 269.5q33 189 146.5 293t265.5 104q77 0 126 -38.5t68 -96.5q27 -64 4 -154l5 -4q119 106 98 283h188q14 -111 -18.5 -208t-98 -165t-156 -118t-191 -76t-205.5 -31q25 -79 79.5 -127.5t137.5 -51.5q101 -6 196 31.5t168 105
t127 162t79 199.5t18.5 220.5t-48.5 221.5q-71 16 -167.5 60.5t-183.5 78t-161 33.5q-91 0 -142 -50.5t-54 -129.5h-221q-3 67 17.5 129.5t63.5 114.5t117 83.5t168 31.5q100 0 206.5 -28.5t180.5 -62t157 -62t142 -28.5q64 0 117 32t63 85h220q-16 -105 -104.5 -189
t-225.5 -106q49 -119 51.5 -252t-34.5 -256.5t-112 -235.5t-174 -193.5t-228 -126t-267 -36.5zM389 442q45 3 81 8.5t75 20t65 36t44 58t20 84.5q3 38 -21 69.5t-71 31.5q-58 0 -103 -44.5t-66 -103.5t-22 -117q-2 -14 -2 -43z" />
    <glyph glyph-name="uniE132" unicode="&#xe132;" horiz-adv-x="925" 
d="M264 -512h-37l37 205h35q136 0 202.5 75.5t98.5 262.5l160 891h231l-162 -912q-23 -128 -63 -221t-105.5 -162.5t-164.5 -104t-232 -34.5zM371 0h-232l164 922h232zM817 1090l242 327h244l-345 -327h-141zM356 1090l242 327h242l-342 -327h-142z" />
    <glyph glyph-name="uniE133" unicode="&#xe133;" horiz-adv-x="1355" 
d="M584 25l59 200q26 -11 78 -20.5t96 -9.5q109 -2 172.5 67t97.5 240l170 932h248l-172 -932q-40 -266 -169 -392t-371 -126q-48 0 -115 13.5t-94 27.5zM401 0h-258l252 1434h258zM1309 1536l209 289h237l-285 -289h-161zM463 1536l211 289h237l-284 -289h-164z" />
    <glyph glyph-name="uniF026" unicode="&#xf026;" horiz-adv-x="1425" 
d="M479 -33q-199 0 -289 103t-59 278q12 66 42.5 125.5t67 103t92.5 88.5t101 73.5t111 66.5q-60 172 -39 301q28 156 132 250t247 94q130 0 200 -87t48 -212q-13 -69 -43 -129t-76 -108.5t-92.5 -84.5t-108.5 -75q73 -158 195 -299h4q134 160 252 381l163 -70
q-150 -272 -290 -434q169 -156 305 -156l-31 -176h-27q-187 0 -399 182q-242 -215 -506 -215zM365 360q-15 -88 33.5 -142t138.5 -54q149 0 309 137v4q-132 148 -221 330h-4q-55 -34 -89 -58t-73 -58.5t-62 -73.5t-32 -85zM705 1114q-15 -80 26 -203h4q89 52 142 104.5
t65 123.5q8 50 -16.5 86.5t-73.5 36.5q-52 0 -93.5 -39.5t-53.5 -108.5z" />
    <glyph glyph-name="uniF028" unicode="&#xf028;" horiz-adv-x="649" 
d="M348 -143q-92 179 -117.5 398.5t15.5 440.5q39 227 142 444.5t259 395.5h156q-142 -177 -237 -394t-136 -446q-41 -222 -22.5 -441t96.5 -398h-156z" />
    <glyph glyph-name="uniF029" unicode="&#xf029;" horiz-adv-x="651" 
d="M94 -143q141 179 236 395.5t137 443.5q41 222 22 442t-96 398h154q94 -177 119.5 -398t-15.5 -442q-40 -227 -143 -443t-260 -396h-154z" />
    <glyph glyph-name="uniF030" unicode="&#xf030;" horiz-adv-x="1212" 
d="M610 -14q-166 0 -270 93t-132.5 255.5t7.5 382.5q38 217 127.5 381.5t225.5 258t302 93.5q123 0 211.5 -54t134 -150.5t57 -231.5t-19.5 -297q-39 -219 -126 -382t-220 -256t-297 -93zM473 717q-41 -234 3 -370.5t171 -135.5q128 0 216.5 135.5t129.5 370.5
q25 153 20 266t-52 178.5t-134 65.5q-127 0 -220 -139t-134 -371z" />
    <glyph glyph-name="uniF031" unicode="&#xf031;" horiz-adv-x="847" 
d="M334 991l-70 170l451 273h157l-254 -1434h-245l202 1137h-6z" />
    <glyph glyph-name="uniF032" unicode="&#xf032;" horiz-adv-x="1212" 
d="M133 0l31 170l594 553q203 187 227 319q18 98 -27 150.5t-139 52.5q-168 0 -334 -215l-153 103q39 56 90.5 107.5t121 102t159.5 81t184 30.5q199 0 295 -104t61 -297q-7 -39 -22 -78t-31.5 -71t-43.5 -68t-47 -60t-53 -56.5t-50 -48.5t-49 -44.5t-40 -36.5l-403 -373
l-2 -6h635l-37 -211h-967z" />
    <glyph glyph-name="uniF033" unicode="&#xf033;" horiz-adv-x="1212" 
d="M594 -12q-139 0 -263 48t-190 116l133 182q158 -139 344 -139q127 0 206.5 58.5t99.5 170.5q19 101 -48 162t-196 61h-135l33 184h135q122 0 199 61.5t92 147.5q17 94 -35.5 144.5t-159.5 50.5q-93 0 -192 -43.5t-175 -104.5l-63 173q98 78 227 133t264 55
q123 0 211.5 -38.5t132.5 -123t23 -205.5q-21 -113 -94 -200t-168 -127v-6q100 -43 155.5 -133t32.5 -220q-16 -88 -58.5 -158.5t-99.5 -116t-128 -76t-141 -43.5t-142 -13z" />
    <glyph glyph-name="uniF034" unicode="&#xf034;" horiz-adv-x="1167" 
d="M102 264l33 185l852 985h187l-175 -975h156l-35 -195h-155l-47 -264h-244l47 264h-619zM360 459h396l102 577h-6l-490 -571z" />
    <glyph glyph-name="uniF035" unicode="&#xf035;" horiz-adv-x="1212" 
d="M575 -12q-143 0 -271.5 51.5t-197.5 118.5l134 180q156 -141 338 -141q133 0 232 83t122 212q23 126 -32 196t-171 70q-76 0 -155.5 -28.5t-135.5 -63.5l-100 73l158 695h768l-37 -211h-586l-78 -344l6 -5q140 68 287 68q59 0 111.5 -13.5t102.5 -44.5t80.5 -82.5
t44 -127t-6.5 -178.5q-18 -100 -64 -185t-108.5 -143.5t-138 -100t-152 -60.5t-150.5 -19z" />
    <glyph glyph-name="uniF036" unicode="&#xf036;" horiz-adv-x="1212" 
d="M618 -14q-248 0 -355 175.5t-54 473.5q43 238 148 423.5t255 288.5t320 103q139 0 240 -59t145 -168l-170 -119q-77 143 -238 143q-149 0 -267.5 -133t-158.5 -323h6q52 67 139.5 110t188.5 43q143 0 237 -64t127 -167t11 -230q-18 -101 -64.5 -190t-118 -158
t-172.5 -109t-219 -40zM453 483q-25 -137 31 -224t167 -87q109 0 191.5 81.5t105.5 215.5q25 138 -25 217.5t-167 79.5q-111 0 -196 -79t-107 -204z" />
    <glyph glyph-name="uniF037" unicode="&#xf037;" horiz-adv-x="1173" 
d="M279 0q74 149 148.5 283.5t125.5 222t149 234.5t143 212.5t183 264.5l2 6h-700l39 211h950l-33 -187q-268 -369 -424.5 -622t-337.5 -625h-245z" />
    <glyph glyph-name="uniF038" unicode="&#xf038;" horiz-adv-x="1212" 
d="M602 -18q-239 0 -361.5 110t-90.5 293q27 147 121.5 244.5t215.5 138.5q-173 96 -135 313q31 168 173.5 271.5t338.5 103.5t302 -103.5t77 -271.5q-41 -219 -246 -313q110 -41 169.5 -138t33.5 -245q-32 -183 -195.5 -293t-402.5 -110zM412 399q-21 -115 38.5 -189.5
t180.5 -74.5q119 0 204.5 74.5t106.5 189.5q24 135 -34.5 211t-180.5 76q-118 0 -205 -76.5t-110 -210.5zM588 1083q-21 -110 28 -168.5t142 -58.5q107 0 169.5 61t82.5 166q16 95 -28 162.5t-142 67.5q-99 0 -167.5 -67.5t-84.5 -162.5z" />
    <glyph glyph-name="uniF039" unicode="&#xf039;" horiz-adv-x="1212" 
d="M150 211l172 121q75 -144 237 -144q98 0 187.5 65t150.5 169t88 227h-6q-54 -68 -141 -114t-187 -46q-144 0 -238 64t-127 168t-10 231q18 101 64.5 190t117.5 157.5t172 108.5t220 40q247 0 353.5 -175.5t53.5 -473.5q-42 -237 -147 -422.5t-255 -289t-320 -103.5
q-139 0 -240 59t-145 168zM518 965q-25 -137 25.5 -216t167.5 -79q111 0 196.5 78t108.5 202q25 139 -31.5 226.5t-167.5 87.5t-192.5 -81.5t-106.5 -217.5z" />
    <glyph glyph-name="uniF03A" unicode="&#xf03a;" horiz-adv-x="1212" 
d="M610 -14q-166 0 -270 93t-132.5 255.5t7.5 382.5q38 217 127.5 381.5t225.5 258t302 93.5q123 0 211.5 -54t134 -150.5t57 -231.5t-19.5 -297q-39 -219 -126 -382t-220 -256t-297 -93zM473 717q-41 -234 3 -370.5t171 -135.5q128 0 216.5 135.5t129.5 370.5
q25 153 20 266t-52 178.5t-134 65.5q-127 0 -220 -139t-134 -371z" />
    <glyph glyph-name="uniF03B" unicode="&#xf03b;" horiz-adv-x="1212" 
d="M180 0l37 213h307l164 924h-6l-236 -146l-69 170l450 273h158l-217 -1221h307l-39 -213h-856z" />
    <glyph glyph-name="uniF03C" unicode="&#xf03c;" horiz-adv-x="1212" 
d="M133 0l31 170l594 553q203 187 227 319q18 98 -27 150.5t-139 52.5q-168 0 -334 -215l-153 103q39 56 90.5 107.5t121 102t159.5 81t184 30.5q199 0 295 -104t61 -297q-7 -39 -22 -78t-31.5 -71t-43.5 -68t-47 -60t-53 -56.5t-50 -48.5t-49 -44.5t-40 -36.5l-403 -373
l-2 -6h635l-37 -211h-967z" />
    <glyph glyph-name="uniF03D" unicode="&#xf03d;" horiz-adv-x="1212" 
d="M594 -12q-139 0 -263 48t-190 116l133 182q158 -139 344 -139q127 0 206.5 58.5t99.5 170.5q19 101 -48 162t-196 61h-135l33 184h135q122 0 199 61.5t92 147.5q17 94 -35.5 144.5t-159.5 50.5q-93 0 -192 -43.5t-175 -104.5l-63 173q98 78 227 133t264 55
q123 0 211.5 -38.5t132.5 -123t23 -205.5q-21 -113 -94 -200t-168 -127v-6q100 -43 155.5 -133t32.5 -220q-16 -88 -58.5 -158.5t-99.5 -116t-128 -76t-141 -43.5t-142 -13z" />
    <glyph glyph-name="uniF03E" unicode="&#xf03e;" horiz-adv-x="1212" 
d="M137 264l33 185l850 985h188l-174 -975h156l-35 -195h-156l-47 -264h-243l47 264h-619zM395 459h396l102 577h-6l-490 -571z" />
    <glyph glyph-name="uniF03F" unicode="&#xf03f;" horiz-adv-x="1212" 
d="M575 -12q-143 0 -271.5 51.5t-197.5 118.5l134 180q156 -141 338 -141q133 0 232 83t122 212q23 126 -32 196t-171 70q-76 0 -155.5 -28.5t-135.5 -63.5l-100 73l158 695h768l-37 -211h-586l-78 -344l6 -5q140 68 287 68q59 0 111.5 -13.5t102.5 -44.5t80.5 -82.5
t44 -127t-6.5 -178.5q-18 -100 -64 -185t-108.5 -143.5t-138 -100t-152 -60.5t-150.5 -19z" />
    <glyph glyph-name="uniF040" unicode="&#xf040;" horiz-adv-x="1212" 
d="M618 -14q-248 0 -355 175.5t-54 473.5q43 238 148 423.5t255 288.5t320 103q139 0 240 -59t145 -168l-170 -119q-77 143 -238 143q-99 0 -189 -65t-150.5 -169t-86.5 -227h6q53 68 140.5 113t187.5 45q143 0 237 -64t127 -167t11 -230q-18 -101 -64.5 -190t-118 -158
t-172.5 -109t-219 -40zM453 483q-25 -137 31 -224t167 -87q109 0 191.5 81.5t105.5 215.5q25 138 -25 217.5t-167 79.5q-111 0 -196 -79t-107 -204z" />
    <glyph glyph-name="uniF041" unicode="&#xf041;" horiz-adv-x="1212" 
d="M297 0q86 173 165 315t165.5 278.5t164.5 251t199 289.5q38 54 58 83v6h-699l37 211h952l-32 -187q-271 -373 -427.5 -625t-336.5 -622h-246z" />
    <glyph glyph-name="uniF042" unicode="&#xf042;" horiz-adv-x="1212" 
d="M602 -18q-239 0 -361.5 110t-90.5 293q27 147 121.5 244.5t215.5 138.5q-173 96 -135 313q31 168 173.5 271.5t338.5 103.5t302 -103.5t77 -271.5q-41 -219 -246 -313q110 -41 169.5 -138t33.5 -245q-32 -183 -195.5 -293t-402.5 -110zM412 399q-21 -115 38.5 -189.5
t180.5 -74.5q119 0 204.5 74.5t106.5 189.5q24 135 -34.5 211t-180.5 76q-118 0 -205 -76.5t-110 -210.5zM588 1083q-21 -110 28 -168.5t142 -58.5q107 0 169.5 61t82.5 166q16 95 -28 162.5t-142 67.5q-99 0 -167.5 -67.5t-84.5 -162.5z" />
    <glyph glyph-name="uniF043" unicode="&#xf043;" horiz-adv-x="1212" 
d="M150 211l172 121q75 -144 237 -144q98 0 187.5 65t150.5 169t88 227h-6q-54 -68 -141 -114t-187 -46q-144 0 -238 64t-127 168t-10 231q18 101 64.5 190t117.5 157.5t172 108.5t220 40q247 0 353.5 -175.5t53.5 -473.5q-42 -237 -147 -422.5t-255 -289t-320 -103.5
q-139 0 -240 59t-145 168zM518 965q-25 -137 25.5 -216t167.5 -79q111 0 196.5 78t108.5 202q25 139 -31.5 226.5t-167.5 87.5t-192.5 -81.5t-106.5 -217.5z" />
    <glyph glyph-name="uniF044" unicode="&#xf044;" horiz-adv-x="1085" 
d="M541 -14q-198 0 -303 134t-66 357q39 222 193.5 358t351.5 136q201 0 303 -135.5t63 -358.5q-39 -225 -189 -358t-353 -133zM422 477q-21 -116 22.5 -194t135.5 -78q94 0 162 77t89 195q21 115 -20 194t-135 79q-91 0 -162 -79.5t-92 -193.5z" />
    <glyph glyph-name="uniF045" unicode="&#xf045;" horiz-adv-x="706" 
d="M225 772l33 178l432 21l-172 -971h-244l140 782z" />
    <glyph glyph-name="uniF046" unicode="&#xf046;" horiz-adv-x="1003" 
d="M104 0l33 195l432 258q36 22 60 39t50.5 41t42.5 51t21 57q10 59 -25 96t-97 37q-77 0 -153.5 -51t-135.5 -123l-105 133q88 105 207.5 173.5t263.5 68.5q169 0 245.5 -90t53.5 -217q-33 -189 -266 -314l-235 -143v-6h454l-37 -205h-809z" />
    <glyph glyph-name="uniF047" unicode="&#xf047;" horiz-adv-x="1048" 
d="M47 -162l129 170q64 -55 131 -80.5t160 -25.5q103 0 173.5 47.5t88.5 148.5q17 91 -42 134.5t-179 43.5h-125l29 162h125q110 0 176 46.5t78 123.5q12 73 -28.5 112.5t-123.5 39.5q-142 0 -313 -121l-66 168q104 77 205.5 121.5t228.5 44.5q85 0 150.5 -17.5t112 -54
t65 -98.5t4.5 -146q-19 -105 -78 -169t-153 -107l-2 -6q98 -29 148.5 -103t27.5 -200q-15 -88 -58 -156t-98 -108.5t-124 -67t-130 -36t-123 -9.5q-246 0 -389 143z" />
    <glyph glyph-name="uniF048" unicode="&#xf048;" horiz-adv-x="1009" 
d="M25 -47l30 174l738 836h186l-148 -826h156l-33 -184h-155l-45 -254h-244l45 254h-530zM270 137h318l82 463h-6l-392 -457z" />
    <glyph glyph-name="uniF049" unicode="&#xf049;" horiz-adv-x="1054" 
d="M463 -315q-142 0 -259.5 50t-187.5 120l131 180q39 -34 66 -54.5t67.5 -44t85.5 -34.5t97 -11q116 0 192 62.5t99 187.5q21 122 -28.5 180t-143.5 58q-117 0 -246 -78l-96 90l129 572h706l-35 -191h-524l-61 -276l6 -4q93 43 137 53q46 10 98 10q39 0 74 -5t72.5 -18
t66.5 -34t55 -53t38.5 -76t16.5 -102.5t-11 -131.5q-18 -100 -58.5 -179t-93.5 -129t-120 -83t-134 -46t-139 -13z" />
    <glyph glyph-name="uniF04A" unicode="&#xf04a;" horiz-adv-x="1036" 
d="M530 -14q-224 0 -315 156t-43 429q27 149 77.5 271t113.5 203.5t138 137t150.5 80.5t151.5 25q118 0 198.5 -34t151.5 -91l-141 -164q-40 29 -61.5 42.5t-66.5 27.5t-98 14q-117 0 -213 -110.5t-133 -306.5h6q41 48 111 82t152 34q116 0 194 -52t106 -137t9 -190
q-16 -87 -54 -160.5t-97 -132t-146 -91.5t-191 -33zM418 399q-20 -110 19.5 -175.5t123.5 -65.5q77 0 138 63t79 168q19 102 -17 165.5t-118 63.5q-79 0 -143 -59t-82 -160z" />
    <glyph glyph-name="uniF04B" unicode="&#xf04b;" horiz-adv-x="993" 
d="M141 -328q45 101 90.5 192.5t79.5 158t88.5 153.5t82 131t98.5 142.5t98 136t117 159.5v7h-578l39 211h829l-32 -187q-250 -329 -383.5 -548t-278.5 -556h-250z" />
    <glyph glyph-name="uniF04C" unicode="&#xf04c;" horiz-adv-x="1085" 
d="M539 -18q-221 0 -330 93.5t-80 262.5q24 126 105 210.5t198 123.5q-151 100 -121 266q26 147 151.5 238.5t305.5 91.5t272.5 -91.5t67.5 -238.5q-34 -176 -205 -266q103 -38 149.5 -122.5t22.5 -211.5q-29 -169 -171.5 -262.5t-364.5 -93.5zM385 352q-17 -96 31 -151.5
t153 -55.5q106 0 172 55t84 152q19 103 -30 165.5t-150 62.5t-171 -62.5t-89 -165.5zM543 940q-17 -81 23 -124.5t114 -43.5t128.5 43t68.5 125q14 78 -22.5 126t-113.5 48q-78 0 -131 -47.5t-67 -126.5z" />
    <glyph glyph-name="uniF04D" unicode="&#xf04d;" horiz-adv-x="1036" 
d="M55 -199l142 164q37 -28 60 -42.5t67.5 -28t97.5 -13.5q116 0 212.5 111.5t133.5 308.5h-6q-41 -48 -111.5 -82.5t-152.5 -34.5q-174 0 -255.5 108t-52.5 271q15 86 54 160t99.5 132t147.5 91t191 33q224 0 313 -156t41 -428q-27 -149 -77.5 -271.5t-113 -204
t-138 -137.5t-150.5 -81t-151 -25q-118 0 -199 34t-152 91zM428 578q-18 -103 18 -167.5t119 -64.5q78 0 143 60t83 161q20 110 -18 175t-122 65q-77 0 -140 -62t-83 -167z" />
    <glyph glyph-name="uniF04E" unicode="&#xf04e;" horiz-adv-x="1056" 
d="M526 -14q-200 0 -306.5 134t-67.5 357q41 223 194.5 358.5t353.5 135.5q205 0 309 -135.5t64 -358.5q-39 -225 -190 -358t-357 -133zM403 477q-21 -117 23 -194.5t139 -77.5q96 0 166.5 77.5t91.5 194.5q21 115 -21 194t-140 79q-95 0 -166.5 -79t-92.5 -194z" />
    <glyph glyph-name="uniF04F" unicode="&#xf04f;" horiz-adv-x="1056" 
d="M166 0l37 205h256l102 577l-217 -10l31 178l463 21l-138 -766h242l-37 -205h-739z" />
    <glyph glyph-name="uniF050" unicode="&#xf050;" horiz-adv-x="1056" 
d="M98 0l35 195l449 258q74 43 120 87t56 101q10 59 -25.5 96t-99.5 37q-76 0 -153.5 -51t-135.5 -123l-102 133q88 105 207.5 173.5t263.5 68.5q169 0 245.5 -90t53.5 -217q-34 -193 -267 -314l-245 -143v-6h483l-37 -205h-848z" />
    <glyph glyph-name="uniF051" unicode="&#xf051;" horiz-adv-x="1056" 
d="M438 -305q-246 0 -389 143l129 170q64 -55 131 -80.5t160 -25.5q103 0 173.5 47.5t88.5 148.5q17 91 -42 134.5t-179 43.5h-125l29 162h125q110 0 176 46.5t78 123.5q12 73 -28.5 112.5t-123.5 39.5q-84 0 -159.5 -32.5t-155.5 -88.5l-64 168q104 77 205.5 121.5
t228.5 44.5q85 0 150.5 -17.5t112 -54t65 -98.5t4.5 -146q-19 -105 -78.5 -169.5t-154.5 -106.5v-6q98 -29 148.5 -103t27.5 -200q-15 -88 -58 -156t-98 -108.5t-124 -67t-130 -36t-123 -9.5z" />
    <glyph glyph-name="uniF052" unicode="&#xf052;" horiz-adv-x="1056" 
d="M588 -47h-531l31 174l737 836h187l-148 -826h166l-33 -184h-166l-45 -254h-243zM305 143l-2 -6h318l81 463h-6z" />
    <glyph glyph-name="uniF053" unicode="&#xf053;" horiz-adv-x="1056" 
d="M12 -145l133 180q77 -69 147.5 -106.5t168.5 -37.5q117 0 197 62.5t102 187.5q22 121 -31.5 180.5t-148.5 59.5q-124 0 -256 -80l-99 90l131 572h725l-32 -191h-545l-62 -276l7 -4q50 23 75 33t73 21t97 11q45 0 86 -7.5t85 -25.5t75 -49t55.5 -78t27.5 -111.5t-9 -150.5
q-22 -124 -79 -215t-136 -140.5t-163 -72t-177 -22.5q-141 0 -259 50t-188 120z" />
    <glyph glyph-name="uniF054" unicode="&#xf054;" horiz-adv-x="1056" 
d="M545 -14q-226 0 -316.5 156t-42.5 429q26 149 76.5 271t113.5 203.5t138 137t150.5 80.5t150.5 25q63 0 117.5 -10.5t98.5 -31t72.5 -38.5t63.5 -45l-143 -164q-37 28 -60 42.5t-67 28t-96 13.5q-117 0 -213 -110.5t-135 -306.5h6q43 48 113 82t151 34q116 0 194 -52
t106 -137t9 -190q-16 -86 -54 -160t-97.5 -132.5t-145.5 -91.5t-190 -33zM432 399q-20 -110 19 -175.5t124 -65.5q77 0 138.5 63t79.5 168q18 102 -18.5 165.5t-119.5 63.5q-78 0 -141.5 -59t-81.5 -160z" />
    <glyph glyph-name="uniF055" unicode="&#xf055;" horiz-adv-x="1056" 
d="M193 -328q77 174 145.5 307t157.5 271t150.5 224t197.5 271v7h-635l37 211h889l-33 -187q-248 -327 -381.5 -546t-278.5 -558h-249z" />
    <glyph glyph-name="uniF056" unicode="&#xf056;" horiz-adv-x="1056" 
d="M524 -18q-215 0 -322 93.5t-77 262.5q22 125 102 209.5t191 124.5q-151 100 -121 266q26 148 151 239t306 91q180 0 272 -91.5t66 -238.5q-31 -176 -205 -266q97 -39 142.5 -123t23.5 -211q-30 -168 -172 -262t-357 -94zM381 352q-17 -96 28.5 -151.5t143.5 -55.5
q100 0 165.5 55.5t82.5 151.5q19 102 -28.5 165t-141.5 63t-163.5 -63t-86.5 -165zM528 940q-17 -81 23 -124.5t115 -43.5q74 0 128 43t68 125q14 78 -22.5 126t-114.5 48q-77 0 -130 -47.5t-67 -126.5z" />
    <glyph glyph-name="uniF057" unicode="&#xf057;" horiz-adv-x="1056" 
d="M61 -199l144 164q38 -29 59.5 -42.5t66 -27.5t97.5 -14q116 0 212.5 111.5t133.5 308.5h-6q-41 -48 -111 -82.5t-151 -34.5q-174 0 -256 108t-53 271q16 86 54.5 160t99 132t148 91t191.5 33q224 0 312 -156t40 -428q-26 -149 -76.5 -271.5t-113.5 -204t-138 -137.5
t-150.5 -81t-151.5 -25q-118 0 -199 34t-152 91zM436 578q-19 -102 17 -167t118 -65q79 0 143.5 60t82.5 161q20 110 -17.5 175t-120.5 65q-79 0 -142 -62t-81 -167z" />
    <glyph glyph-name="uniF063" unicode="&#xf063;" horiz-adv-x="1859" 
d="M508 -16q-84 0 -153.5 29.5t-120 89t-68.5 149t2 209.5q38 210 174.5 344.5t333.5 134.5q46 0 94 -10l2 4q-49 71 -74.5 165t-9.5 179q22 125 116 198.5t236 73.5q71 0 202 -7t194 -7l-131 -741h6q51 64 123 105.5t155 41.5q177 0 239.5 -112.5t20.5 -350.5l-86 -479
h-231l80 449q15 87 11.5 150t-38.5 98.5t-102 35.5q-75 0 -135.5 -67t-96.5 -174l-88 -492h-231l248 1401q-15 1 -72 6.5t-100 5.5q-68 0 -110.5 -41t-53.5 -108q-33 -177 108 -402l-88 -153q-60 53 -170 53q-111 0 -187 -83.5t-99 -211.5q-23 -133 28 -216t158 -83
q57 0 112.5 16.5t92.5 40.5l32 -151q-146 -90 -323 -90z" />
    <glyph glyph-name="uniF064" unicode="&#xf064;" horiz-adv-x="1808" 
d="M508 -16q-84 0 -153.5 29.5t-120 89t-68.5 149t2 209.5q38 210 174.5 344.5t333.5 134.5q46 0 94 -10l2 4q-49 71 -74.5 165t-9.5 179q22 125 116 198.5t236 73.5q71 0 202 -7t194 -7l-176 -989h6l385 375h239l-362 -351l221 -571h-254l-145 395l-140 -135l-47 -260h-231
l248 1401q-15 1 -72 6.5t-100 5.5q-68 0 -110.5 -41t-53.5 -108q-32 -172 108 -402l-88 -153q-60 53 -170 53q-111 0 -187 -83.5t-99 -211.5q-23 -133 28 -216t158 -83q57 0 112.5 16.5t92.5 40.5l32 -151q-146 -90 -323 -90z" />
    <glyph glyph-name="uniF065" unicode="&#xf065;" horiz-adv-x="1546" 
d="M508 -16q-84 0 -153.5 29.5t-120 89t-68.5 149t2 209.5q38 210 174.5 344.5t333.5 134.5q51 0 84 -8l2 4q-115 138 -92 285q20 105 104 167t230 62q75 0 166.5 -27.5t177 -57.5t139.5 -34l-74 -409h240l-29 -166h-231l-74 -418q-20 -110 6 -151.5t82 -41.5t104 29
l-24 -131q-22 -21 -87.5 -37t-111.5 -16q-58 0 -100.5 15.5t-74 51t-39 94t4.5 144.5l82 461h-110l24 135l131 31l51 290q-21 8 -74 36.5t-101 45.5t-93 17q-66 0 -109 -33t-53 -94q-3 -17 -3.5 -34t3.5 -35.5t7 -33t13 -35.5t15.5 -33.5t20 -37t21 -35t24 -39t24.5 -39.5
l-88 -153q-60 53 -170 53q-111 0 -187 -83.5t-99 -211.5q-23 -133 28 -216t158 -83q57 0 112.5 16.5t92.5 40.5l32 -151q-146 -90 -323 -90z" />
    <glyph glyph-name="uniF066" unicode="&#xf066;" horiz-adv-x="1867" 
d="M88 72l90 159q42 -33 110 -53t140 -20q64 0 108.5 26t51.5 68q7 43 -27.5 70.5t-124.5 56.5q-119 32 -175 104.5t-36 182.5q24 132 130.5 204t258.5 72q53 0 105 -10l2 4q-48 70 -73 163.5t-9 178.5q22 127 117.5 199.5t238.5 72.5q72 0 229 -7t220 -7l-131 -741h6
q51 64 123 105.5t155 41.5q177 0 239.5 -112.5t21.5 -350.5l-86 -479h-232l80 449q15 87 11.5 150t-38.5 98.5t-102 35.5q-75 0 -135 -67t-96 -174l-89 -492h-231l250 1401q-6 0 -95.5 6t-133.5 6q-69 0 -112.5 -40.5t-55.5 -108.5q-29 -172 110 -398l-88 -155
q-30 24 -89.5 40.5t-123.5 16.5q-62 0 -106 -25.5t-52 -64.5q-7 -44 18 -67t85 -42q161 -47 221.5 -119.5t38.5 -189.5q-22 -131 -133.5 -203.5t-259.5 -72.5q-102 0 -191 26t-135 62z" />
    <glyph glyph-name="uniF067" unicode="&#xf067;" horiz-adv-x="1816" 
d="M414 -16q-102 0 -191 26t-135 62l90 159q42 -33 110 -53t140 -20q64 0 108.5 26t51.5 68q7 43 -27.5 70.5t-124.5 56.5q-119 32 -175 104.5t-36 182.5q24 132 130.5 204t258.5 72q53 0 105 -10l2 4q-48 70 -73 163.5t-9 178.5q22 127 117.5 199.5t238.5 72.5q72 0 229 -7
t220 -7l-174 -989h4l385 375h239l-360 -351l219 -571h-252l-147 395l-139 -135l-48 -260h-231l250 1401q-6 0 -95.5 6t-133.5 6q-69 0 -112.5 -40.5t-55.5 -108.5q-29 -172 110 -398l-88 -155q-30 24 -89.5 40.5t-123.5 16.5q-62 0 -106 -25.5t-52 -64.5q-7 -44 18 -67
t85 -42q161 -47 221.5 -119.5t38.5 -189.5q-22 -131 -133.5 -203.5t-259.5 -72.5z" />
    <glyph glyph-name="uniF636" unicode="&#xf636;" horiz-adv-x="772" 
d="M379 924h-117q42 84 87.5 222.5t72.5 287.5h162q-25 -147 -84.5 -284.5t-120.5 -225.5zM694 940h-127q130 259 170 494h162q-25 -145 -83 -273.5t-122 -220.5z" />
    <glyph glyph-name="uniF637" unicode="&#xf637;" horiz-adv-x="460" 
d="M383 940h-117q111 223 158 494h164q-26 -146 -84 -274.5t-121 -219.5z" />
    <glyph glyph-name="uniF638" unicode="&#xf638;" horiz-adv-x="460" 
d="M442 940h-157q26 145 84.5 273.5t122.5 220.5h110q-114 -229 -160 -494z" />
    <glyph glyph-name="uniF639" unicode="&#xf639;" horiz-adv-x="460" 
d="M389 940h-113q114 227 162 494h158q-26 -145 -84.5 -273.5t-122.5 -220.5z" />
    <glyph glyph-name="uniF63A" unicode="&#xf63a;" horiz-adv-x="772" 
d="M739 940h-155q25 147 84 285t120 225h111q-42 -88 -87.5 -225.5t-72.5 -284.5zM268 940q26 145 84.5 273.5t122.5 220.5h121q-130 -259 -170 -494h-158z" />
    <glyph glyph-name="uniF63B" unicode="&#xf63b;" horiz-adv-x="772" 
d="M379 924h-117q42 84 87.5 222.5t72.5 287.5h162q-25 -147 -84.5 -284.5t-120.5 -225.5zM694 940h-127q130 259 170 494h162q-25 -145 -83 -273.5t-122 -220.5z" />
    <glyph glyph-name="uniF63C" unicode="&#xf63c;" horiz-adv-x="927" 
d="M743 231l-260 410l9 37l417 405h117l-424 -419l-4 -17l252 -416h-107zM225 641l8 37l416 405h117l-424 -419l-4 -17l252 -416h-107z" />
    <glyph glyph-name="uniF63D" unicode="&#xf63d;" horiz-adv-x="927" 
d="M156 231l434 433l4 16l-258 403h102l262 -405l-8 -37l-420 -410h-116zM532 231h-116l434 433l4 16l-260 403h102l262 -405l-6 -37z" />
    <glyph glyph-name="uniF63E" unicode="&#xf63e;" horiz-adv-x="667" 
d="M338 647l252 -416h-107l-258 410l8 37l416 405h117l-424 -419z" />
    <glyph glyph-name="uniF63F" unicode="&#xf63f;" horiz-adv-x="667" 
d="M590 664l4 16l-258 403h102l262 -405l-8 -37l-420 -410h-116z" />
    <glyph glyph-name="uniF640" unicode="&#xf640;" horiz-adv-x="501" 
d="M414 913q-63 0 -100.5 45t-26.5 107q12 65 62 109.5t120 44.5q61 0 98 -46t25 -108q-11 -63 -61 -107.5t-117 -44.5zM293 223q-63 0 -99.5 45t-25.5 107q11 65 61 109t119 44q60 0 97.5 -45t27.5 -108q-11 -63 -62 -107.5t-118 -44.5z" />
    <glyph glyph-name="uniF641" unicode="&#xf641;" horiz-adv-x="518" 
d="M389 1536h346l-12 -94h-193l-274 -1491h193l-13 -94h-346z" />
    <glyph glyph-name="uniF642" unicode="&#xf642;" horiz-adv-x="516" 
d="M311 1442l17 94h346l-297 -1679h-348l16 94h195l264 1491h-193z" />
    <glyph glyph-name="uniF643" unicode="&#xf643;" horiz-adv-x="509" 
d="M145 18l222 953h139l-117 -953h-244zM457 1163q-61 0 -98 45t-25 109q11 62 61 106.5t117 44.5q63 0 100.5 -45.5t26.5 -105.5q-12 -66 -62 -110t-120 -44z" />
    <glyph glyph-name="uniF644" unicode="&#xf644;" horiz-adv-x="819" 
d="M403 -18q-189 0 -288 95t-72 265q12 64 37.5 116t66.5 93.5t73.5 68t85.5 62.5t75 53q77 60 117 117t53 137h211q-6 -102 -52.5 -186t-162.5 -180q-22 -20 -70.5 -54.5t-80.5 -60t-63.5 -68t-41.5 -90.5q-18 -85 32 -129.5t134 -44.5q141 0 317 115l72 -168
q-110 -68 -209.5 -104.5t-233.5 -36.5zM674 1149q-62 0 -102 45t-33 109q8 62 56.5 106.5t115.5 44.5q64 0 104.5 -45t32.5 -106q-6 -66 -54.5 -110t-119.5 -44z" />
    <glyph glyph-name="uniF645" unicode="&#xf645;" horiz-adv-x="765" 
d="M373 385q18 100 -26 160.5t-126 60.5l25 135q81 0 146 60.5t83 161.5l57 331q46 242 390 242l-17 -98q-187 0 -219 -178l-55 -318q-16 -96 -82 -171t-174 -97q99 -22 138.5 -97t21.5 -171l-48 -271q-32 -180 154 -180l-16 -98q-172 0 -249 59.5t-54 181.5z" />
    <glyph glyph-name="uniF646" unicode="&#xf646;" horiz-adv-x="755" 
d="M88 -143l16 88q99 0 156.5 47t71.5 133l51 281q16 96 82 171t174 97q-100 22 -139 96.5t-23 171.5l60 328q14 85 -27 131.5t-139 46.5l16 88q164 0 238 -65.5t55 -176.5l-59 -331q-18 -101 25 -161.5t124 -60.5l-22 -135q-82 0 -147 -60.5t-83 -160.5l-51 -287
q-19 -111 -116.5 -176t-262.5 -65z" />
    <glyph glyph-name="uniF647" unicode="&#xf647;" horiz-adv-x="778" 
d="M375 1825h229l119 -289h-154z" />
    <glyph glyph-name="uniF648" unicode="&#xf648;" horiz-adv-x="946" 
d="M934 1548q-60 0 -96.5 44t-28.5 104q6 60 53 103.5t107 43.5q56 0 93 -44t30 -103q-7 -60 -54.5 -104t-103.5 -44zM514 1548q-58 0 -94.5 44t-30.5 104q8 60 55 103.5t105 43.5q57 0 93 -43.5t30 -103.5q-8 -60 -54.5 -104t-103.5 -44z" />
    <glyph glyph-name="uniF649" unicode="&#xf649;" horiz-adv-x="983" 
d="M385 1589l14 105h768l-14 -105h-768z" />
    <glyph glyph-name="uniF64A" unicode="&#xf64a;" horiz-adv-x="778" 
d="M795 1825h237l-284 -289h-162z" />
    <glyph glyph-name="uniF64B" unicode="&#xf64b;" horiz-adv-x="512" 
d="M365 1536h-166l264 274h182l178 -274h-166l-116 145h-9z" />
    <glyph glyph-name="uniF64C" unicode="&#xf64c;" horiz-adv-x="512" 
d="M408 1536l-181 274h166l119 -145h8l166 145h166l-262 -274h-182z" />
    <glyph glyph-name="uniF64D" unicode="&#xf64d;" horiz-adv-x="1011" 
d="M741 1499q-54 0 -101 13.5t-89 44t-64 88t-16 135.5h176q-5 -64 24 -102t87 -38q57 0 100 38t62 102h176q-17 -78 -56 -135.5t-90 -87.5t-103 -44t-106 -14z" />
    <glyph glyph-name="uniF64E" unicode="&#xf64e;" horiz-adv-x="503" 
d="M528 1548q-58 0 -94.5 44t-30.5 104q8 60 55 103.5t105 43.5q57 0 93.5 -43.5t29.5 -103.5q-6 -60 -53.5 -104t-104.5 -44z" />
    <glyph glyph-name="uniF64F" unicode="&#xf64f;" horiz-adv-x="616" 
d="M535 1466q-92 0 -148.5 61.5t-40.5 166.5q16 107 91 168t167 61q91 0 148 -61t41 -168q-16 -105 -92 -166.5t-166 -61.5zM475 1694q-9 -47 12 -78t60 -31q41 0 75.5 31.5t41.5 77.5q9 51 -11.5 81.5t-62.5 30.5q-40 0 -73 -31.5t-42 -80.5z" />
    <glyph glyph-name="uniF650" unicode="&#xf650;" horiz-adv-x="550" 
d="M274 -10q-110 0 -157.5 83t-22.5 226q25 137 103 222t188 85q108 0 153.5 -86t20.5 -221q-25 -144 -100.5 -226.5t-184.5 -82.5zM219 299q-35 -199 76 -199q103 0 141 199q35 197 -71 197q-111 0 -146 -197z" />
    <glyph glyph-name="uniF651" unicode="&#xf651;" horiz-adv-x="395" 
d="M152 381l-33 86l203 121h81l-104 -588h-119l78 442h-4z" />
    <glyph glyph-name="uniF652" unicode="&#xf652;" horiz-adv-x="526" 
d="M59 0l19 96l233 201q19 17 23.5 21t22.5 22t25 28.5t16 28t12 33.5q5 34 -13 55t-53 21q-27 0 -54 -16t-40.5 -30.5t-40.5 -47.5l-78 51q107 147 244 147q83 0 125 -47t30 -123q-7 -42 -32 -81.5t-44.5 -58.5t-58.5 -54l-149 -135l-2 -5h241l-20 -106h-406z" />
    <glyph glyph-name="uniF653" unicode="&#xf653;" horiz-adv-x="524" 
d="M248 -8q-126 0 -189 63l68 88q55 -49 133 -49q104 0 121 84q7 42 -19.5 64t-82.5 22h-54l15 82h53q51 0 82 22.5t37 59.5q6 33 -11.5 51.5t-60.5 18.5q-70 0 -145 -56l-33 84q101 76 207 76q83 0 126.5 -38.5t30.5 -114.5q-8 -52 -33.5 -81t-68.5 -49v-4q94 -42 76 -149
q-9 -49 -36 -84.5t-64 -54t-75 -27t-77 -8.5z" />
    <glyph glyph-name="uniF654" unicode="&#xf654;" horiz-adv-x="561" 
d="M352 98h-264l14 84l357 406h90l-66 -400h66l-17 -90h-65l-16 -104h-115zM211 188h158l34 232h-4l-188 -227v-5z" />
    <glyph glyph-name="uniF655" unicode="&#xf655;" horiz-adv-x="526" 
d="M246 -16q-64 0 -118.5 22.5t-86.5 52.5l65 91q72 -64 142 -64q59 0 97 30.5t46 82.5q18 104 -82 104q-67 0 -119 -35l-51 45l60 277h338l-17 -103h-252l-26 -120l4 -2q61 26 121 26q75 0 120.5 -44.5t28.5 -149.5q-12 -73 -56.5 -123t-98.5 -70t-115 -20z" />
    <glyph glyph-name="uniF656" unicode="&#xf656;" horiz-adv-x="532" 
d="M276 -10q-109 0 -158.5 74t-27.5 198q30 165 118.5 254.5t201.5 89.5q94 0 165 -57l-71 -82q-1 1 -8.5 5.5t-9.5 6t-9.5 5.5t-11 6t-11 5t-13 4.5t-13 3.5t-15.5 2.5t-16 0.5q-65 0 -110 -51.5t-60 -122.5h4q55 55 131 55q89 0 130.5 -53.5t27.5 -136.5
q-14 -88 -79.5 -147.5t-164.5 -59.5zM213 201q-9 -56 14.5 -88.5t65.5 -32.5q39 0 71 29.5t42 87.5t-11.5 86t-60.5 28q-42 0 -76.5 -28.5t-44.5 -81.5z" />
    <glyph glyph-name="uniF657" unicode="&#xf657;" horiz-adv-x="477" 
d="M100 -2q63 149 121 244.5t162 234.5l2 4h-268l18 107h395l-16 -90q-108 -142 -168.5 -245t-120.5 -255h-125z" />
    <glyph glyph-name="uniF658" unicode="&#xf658;" horiz-adv-x="536" 
d="M266 -10q-105 0 -156.5 47t-37.5 125q10 60 47 99t90 58v5q-62 42 -49 127q12 68 71.5 111.5t143.5 43.5q85 0 129.5 -43.5t32.5 -111.5q-13 -84 -91 -127l-2 -5q98 -38 78 -157q-14 -78 -81.5 -125t-174.5 -47zM199 168q-8 -48 12.5 -73.5t69.5 -24.5q97 0 116 98
q9 50 -13 79t-67 29q-46 0 -77.5 -28.5t-40.5 -79.5zM272 453q-8 -39 8.5 -63.5t51.5 -24.5q37 0 61.5 24.5t30.5 63.5q6 33 -10 56t-52 23t-60 -23t-30 -56z" />
    <glyph glyph-name="uniF659" unicode="&#xf659;" horiz-adv-x="532" 
d="M59 49l74 82q54 -39 105 -39q65 0 111 51.5t59 122.5h-5q-20 -23 -56 -39t-75 -16q-89 0 -130 52.5t-27 135.5q16 88 81.5 147.5t163.5 59.5q108 0 157.5 -73.5t27.5 -196.5q-30 -166 -118.5 -256t-201.5 -90q-98 0 -166 59zM229 399q-10 -57 12.5 -85.5t61.5 -28.5
q42 0 75.5 29t43.5 83t-13.5 86.5t-64.5 32.5q-40 0 -72.5 -29.5t-42.5 -87.5z" />
    <glyph glyph-name="uniF65A" unicode="&#xf65a;" horiz-adv-x="948" 
d="M549 1544h-127q25 106 88 171t162 65q38 0 68 -12.5t48 -30t34 -34.5t35.5 -29.5t43.5 -12.5q45 0 74 31t41 75h129q-22 -104 -87.5 -171.5t-164.5 -67.5q-47 0 -83.5 18t-55 39t-44.5 39t-55 18q-44 0 -67.5 -26.5t-38.5 -71.5z" />
    <glyph glyph-name="uniF65B" unicode="&#xf65b;" horiz-adv-x="1091" 
d="M766 1536l233 289h232l-293 -289h-172zM412 1536l211 289h231l-287 -289h-155z" />
    <glyph glyph-name="uniF65C" unicode="&#xf65c;" horiz-adv-x="505" 
d="M373 0h-236l162 922h236zM467 1169q-61 0 -98 44.5t-29 107.5q7 63 56.5 108.5t109.5 45.5t98 -45.5t29 -108.5q-7 -63 -56.5 -107.5t-109.5 -44.5z" />
    <glyph glyph-name="uniF660" unicode="&#xf660;" horiz-adv-x="550" 
d="M403 727q-111 0 -158 82.5t-22 226.5q24 137 101.5 222t187.5 85q108 0 154.5 -86t21.5 -221q-25 -144 -100.5 -226.5t-184.5 -82.5zM348 1036q-38 -198 68 -198t147 198q38 197 -63 197q-54 0 -93 -50t-59 -147z" />
    <glyph glyph-name="uniF661" unicode="&#xf661;" horiz-adv-x="395" 
d="M303 1139l-37 86l203 121h82l-102 -588h-121l84 442h-4z" />
    <glyph glyph-name="uniF662" unicode="&#xf662;" horiz-adv-x="526" 
d="M193 737l16 97l233 200q2 2 11 10t12 10.5t12 11t13 12.5t11.5 12.5t11.5 14t9.5 14t8.5 16t6 16t4 16.5q6 34 -11.5 55t-52.5 21q-27 0 -54 -16t-40.5 -30.5t-40.5 -47.5l-78 51q108 148 242 148q84 0 127 -47t29 -123q-6 -42 -31 -81.5t-44.5 -59t-58.5 -54.5
l-151 -135l-2 -4h241l-18 -107h-405z" />
    <glyph glyph-name="uniF663" unicode="&#xf663;" horiz-adv-x="524" 
d="M375 729q-125 0 -189 64l64 88q56 -50 133 -50q48 0 81 21t42 63t-16.5 64t-81.5 22h-54l11 82h53q52 0 83.5 22.5t39.5 59.5q13 70 -68 70q-73 0 -147 -55l-39 84q103 75 209 75q84 0 128 -38.5t31 -114.5q-10 -53 -35 -81t-67 -48v-4q92 -43 74 -150
q-9 -49 -35.5 -84.5t-63.5 -54t-75 -27t-78 -8.5z" />
    <glyph glyph-name="uniF664" unicode="&#xf664;" horiz-adv-x="540" 
d="M203 836l14 84l363 405h90l-72 -399h66l-17 -90h-65l-19 -105h-114l18 105h-264zM326 926h157l41 231h-2l-196 -227v-4z" />
    <glyph glyph-name="uniF665" unicode="&#xf665;" horiz-adv-x="526" 
d="M369 721q-63 0 -117 22.5t-86 53.5l65 90q72 -64 142 -64q59 0 97.5 30.5t47.5 82.5q18 104 -82 104q-68 0 -119 -34l-49 45l64 276h338l-19 -102h-252l-28 -121l4 -2q61 26 121 26q76 0 120.5 -44.5t26.5 -149.5q-14 -73 -59 -123t-100 -70t-115 -20z" />
    <glyph glyph-name="uniF666" unicode="&#xf666;" horiz-adv-x="532" 
d="M410 729q-109 0 -159 73t-28 197q30 165 118.5 254.5t201.5 89.5q95 0 166 -57l-72 -82q-1 1 -8.5 5.5t-9.5 6t-9.5 5.5t-11 6t-11 5t-13 4.5t-13 3.5t-15.5 2.5t-16 0.5q-65 0 -110 -51.5t-60 -122.5h5q55 55 131 55q89 0 130 -53.5t27 -136.5q-14 -87 -79 -146
t-164 -59zM346 938q-9 -56 15 -88.5t65 -32.5q39 0 71 29.5t42 87.5t-11.5 86.5t-60.5 28.5q-42 0 -76.5 -29t-44.5 -82z" />
    <glyph glyph-name="uniF667" unicode="&#xf667;" horiz-adv-x="477" 
d="M236 737q68 151 128 247t164 230l2 5h-268l21 106h393l-17 -90q-110 -141 -173 -244t-126 -254h-124z" />
    <glyph glyph-name="uniF668" unicode="&#xf668;" horiz-adv-x="536" 
d="M397 727q-107 0 -158.5 47t-39.5 125q10 60 46 99.5t87 58.5l2 4q-65 41 -51 127q11 68 69.5 111.5t143.5 43.5t129.5 -43.5t33.5 -111.5q-14 -86 -90 -127v-4q45 -18 67.5 -58t12.5 -100q-12 -78 -78.5 -125t-173.5 -47zM326 905q-8 -48 13.5 -73.5t68.5 -24.5
q100 0 116 98q7 51 -15 80t-67 29t-77 -29.5t-39 -79.5zM395 1190q-8 -39 8.5 -63.5t51.5 -24.5q38 0 62 24t30 64q5 33 -11.5 56.5t-52.5 23.5t-59.5 -23.5t-28.5 -56.5z" />
    <glyph glyph-name="uniF669" unicode="&#xf669;" horiz-adv-x="532" 
d="M190 786l74 82q54 -39 105 -39q65 0 111 52t59 123h-4q-20 -23 -56.5 -39.5t-75.5 -16.5q-89 0 -130 53t-27 136q16 88 81.5 147t164.5 59q108 0 157 -73.5t27 -196.5q-29 -166 -118 -255t-202 -89q-96 0 -166 57zM360 1137q-10 -57 12.5 -86t61.5 -29q42 0 75.5 29.5
t43.5 83.5t-13.5 86t-64.5 32q-40 0 -72.5 -29t-42.5 -87z" />
    <glyph glyph-name="uniF66A" unicode="&#xf66a;" horiz-adv-x="817" 
d="M199 606l24 137h635l-24 -137h-635z" />
    <glyph glyph-name="uniF66B" unicode="&#xf66b;" horiz-adv-x="1177" 
d="M199 606l24 137h994l-25 -137h-993z" />
    <glyph glyph-name="uniF66C" unicode="&#xf66c;" horiz-adv-x="1861" 
d="M199 606l24 137h1678l-25 -137h-1677z" />
    <glyph glyph-name="uniF66D" unicode="&#xf66d;" horiz-adv-x="1191" 
d="M1262 1206l-25 -192l-731 -312l-2 -8l604 -313l-25 -197l-839 455l16 129z" />
    <glyph glyph-name="uniF66E" unicode="&#xf66e;" horiz-adv-x="778" 
d="M170 0h-160l924 1434h162z" />
    <glyph glyph-name="uniF66F" unicode="&#xf66f;" horiz-adv-x="1191" 
d="M319 1016l35 190l844 -438l-24 -129l-1002 -455l39 205l727 311v11z" />
    <glyph glyph-name="s_t" unicode="&#xfb06;" horiz-adv-x="1536" 
d="M86 72l90 159q42 -33 110 -53t140 -20q64 0 108.5 26t51.5 68q7 43 -27.5 70.5t-126.5 56.5q-117 32 -173 104.5t-36 182.5q24 132 130.5 204t256.5 72q60 0 99 -8l4 4q-108 142 -84 283q18 105 102 167t230 62q75 0 166.5 -27.5t177 -57.5t139.5 -34l-74 -409h240
l-29 -166h-231l-74 -418q-20 -110 6 -151.5t82 -41.5t104 29l-24 -131q-22 -21 -87.5 -37t-111.5 -16q-58 0 -100.5 15.5t-74 51t-39 94t4.5 144.5l82 461h-110l24 135l131 31l51 290q-21 8 -74 36.5t-101 45.5t-93 17q-68 0 -109.5 -33t-52.5 -94q-11 -70 18.5 -144.5
t98.5 -173.5l-88 -155q-32 24 -90.5 40.5t-122.5 16.5q-63 0 -107.5 -25.5t-50.5 -64.5q-8 -44 17 -67t86 -42q161 -47 221 -119.5t39 -189.5q-24 -131 -135 -203.5t-260 -72.5q-100 0 -189 26t-135 62z" />
    </font>
</defs>
</svg>
