<?xml version="1.0" standalone="no"?>
<!DOCTYPE svg PUBLIC "-//W3C//DTD SVG 1.1//EN" "http://www.w3.org/Graphics/SVG/1.1/DTD/svg11.dtd" >
<svg xmlns="http://www.w3.org/2000/svg" xmlns:xlink="http://www.w3.org/1999/xlink" version="1.1">
<metadata>
Created by FontForge 20170731 at Sun Aug  6 18:09:17 2023
 By Aleksey,,,
All rights reserved (c)2020 Nasir Udin.
</metadata>
<defs>
<font id="ProdaSans-Light" horiz-adv-x="1554" >
  <font-face 
    font-family="Proda Sans Light"
    font-weight="210"
    font-stretch="normal"
    units-per-em="2048"
    panose-1="2 11 0 0 4 0 0 0 0 3"
    ascent="1536"
    descent="-512"
    x-height="922"
    cap-height="1434"
    bbox="-356 -528 2257 1972"
    underline-thickness="102"
    underline-position="-358"
    unicode-range="U+000D-FB06"
  />
<missing-glyph horiz-adv-x="927" 
d="M834 0h-740v1434h740v-1434zM164 1368v-1300h600v1300h-600z" />
    <glyph glyph-name="uniF058" unicode="ffb" horiz-adv-x="2252" 
d="M57 825v84l142 13v104q0 242 89.5 355.5t250.5 113.5q105 0 176 -39v-108q-83 45 -162 45q-66 0 -112 -28.5t-71.5 -84t-36.5 -127t-11 -168.5v-63h442v145q0 241 98.5 355t267.5 114q107 0 201 -35v35h125v-762h6q94 162 291 162q170 0 280.5 -125.5t110.5 -349.5
q0 -112 -33 -204t-88 -150t-124 -89.5t-144 -31.5q-205 0 -303 172h-6l-10 -158h-105v1393q-88 41 -186 41q-258 0 -258 -408v-104h282v-97h-282v-825h-123v825h-442v-825h-123v825h-142zM1456 459q0 -96 34 -181t97.5 -139.5t141.5 -54.5q127 0 204.5 109t77.5 268
q0 161 -74.5 267.5t-207.5 105.5q-127 0 -200 -104t-73 -271z" />
    <glyph glyph-name="uniF059" unicode="fb" horiz-adv-x="1687" 
d="M57 825v84l142 13v145q0 240 99 354.5t267 114.5q107 0 201 -35v35h125v-762h6q94 162 291 162q170 0 280.5 -125.5t110.5 -349.5q0 -112 -33 -204t-88 -150t-124 -89.5t-144 -31.5q-205 0 -303 172h-6l-11 -158h-104v1393q-88 41 -186 41q-258 0 -258 -408v-104h282v-97
h-282v-825h-123v825h-142zM1163 834q-127 0 -199.5 -103.5t-72.5 -271.5q0 -148 77.5 -261.5t194.5 -113.5q127 0 205 109t78 268q0 161 -75 267.5t-208 105.5z" />
    <glyph glyph-name="uniF05A" unicode="ffh" horiz-adv-x="2224" 
d="M57 909l142 13v104q0 242 89.5 355.5t250.5 113.5q105 0 176 -39v-108q-83 45 -162 45q-66 0 -112 -28.5t-71.5 -84t-36.5 -127t-11 -168.5v-63h442v145q0 241 98.5 355t267.5 114q107 0 201 -35v35h125v-786h6q37 80 109 136t172 56q184 0 269 -112t85 -343v-487h-123
v449q0 93 -11 159.5t-38 120t-77 80.5t-124 27q-99 0 -168.5 -84.5t-99.5 -216.5v-535h-125v1393q-88 41 -186 41q-258 0 -258 -408v-104h282v-97h-282v-825h-123v825h-442v-825h-123v825h-142v84z" />
    <glyph glyph-name="uniF05B" unicode="fh" horiz-adv-x="1658" 
d="M57 825v84l142 13v145q0 241 98.5 355t267.5 114q107 0 201 -35v35h125v-786h6q37 80 109.5 136t173.5 56q183 0 267.5 -112t84.5 -343v-487h-123v449q0 93 -11 159.5t-38 120t-77 80.5t-124 27q-99 0 -168.5 -84.5t-99.5 -216.5v-535h-125v1393q-88 41 -186 41
q-258 0 -258 -408v-104h282v-97h-282v-825h-123v825h-142z" />
    <glyph glyph-name="uniF05C" unicode="ffj" horiz-adv-x="1595" 
d="M57 825v84l142 13v104q0 242 89.5 355.5t250.5 113.5q105 0 176 -39v-108q-83 45 -162 45q-66 0 -112 -28.5t-71.5 -84t-36.5 -127t-11 -168.5v-63h442v145q0 241 99.5 356t269.5 115q63 0 134.5 -17.5t108.5 -35.5l-47 -101q-28 17 -84 33.5t-100 16.5q-258 0 -258 -408
v-104h553v-899q0 -101 -10 -179t-34.5 -145.5t-65 -111.5t-103.5 -68.5t-148 -24.5v107q133 0 184.5 100t51.5 328v796h-428v-825h-123v825h-442v-825h-123v825h-142z" />
    <glyph glyph-name="uniF05D" unicode="fj" horiz-adv-x="1030" 
d="M57 825v84l142 13v145q0 241 99.5 356t268.5 115q63 0 135 -17.5t109 -35.5l-47 -101q-28 17 -84 33.5t-100 16.5q-258 0 -258 -408v-104h552v-899q0 -101 -10 -179t-34.5 -145.5t-65 -111.5t-103 -68.5t-147.5 -24.5v107q133 0 184.5 100t51.5 328v796h-428v-825h-123
v825h-142z" />
    <glyph glyph-name="uniF05E" unicode="ffk" horiz-adv-x="2115" 
d="M57 909l142 13v104q0 242 89.5 355.5t250.5 113.5q105 0 176 -39v-108q-83 45 -162 45q-66 0 -112 -28.5t-71.5 -84t-36.5 -127t-11 -168.5v-63h442v145q0 241 98.5 355t267.5 114q107 0 201 -35v35h125v-1083h6l420 469h135l-325 -363l333 -559h-137l-276 469l-156 -174
v-295h-125v1393q-88 41 -186 41q-258 0 -258 -408v-104h282v-97h-282v-825h-123v825h-442v-825h-123v825h-142v84z" />
    <glyph glyph-name="uniF05F" unicode="fk" horiz-adv-x="1550" 
d="M199 825h-142v84l142 13v145q0 241 98.5 355t267.5 114q107 0 201 -35v35h125v-1083h6l420 469h135l-326 -363l334 -559h-137l-276 469l-156 -174v-295h-125v1393q-88 41 -186 41q-258 0 -258 -408v-104h282v-97h-282v-825h-123v825z" />
    <glyph glyph-name="uniF060" unicode="ft" horiz-adv-x="1216" 
d="M57 825v84l142 13v145q0 242 89.5 355.5t250.5 113.5q98 0 170 -37v-108q-79 43 -156 43q-66 0 -112 -28.5t-71.5 -84t-36.5 -127t-11 -168.5v-104h432l37 315h86v-315h253v-97h-253v-532q0 -63 11.5 -106t32.5 -65t44 -31t53 -9q61 0 110 39v-76q-19 -20 -64 -36.5
t-83 -16.5q-107 0 -167 66.5t-60 222.5v544h-432v-825h-123v825h-142z" />
    <glyph glyph-name="f_f" unicode="ff" horiz-adv-x="1239" 
d="M199 825h-142v84l142 13v104q0 242 89.5 355.5t250.5 113.5q105 0 176 -39v-108q-83 45 -162 45q-66 0 -112 -28.5t-71.5 -84t-36.5 -127t-11 -168.5v-63h442v145q0 242 89.5 355.5t250.5 113.5q104 0 176 -39v-108q-83 45 -162 45q-66 0 -112 -28.5t-71.5 -84
t-36.5 -127t-11 -168.5v-104h287v-97h-287v-825h-123v825h-442v-825h-123v825z" />
    <glyph glyph-name="fi" unicode="fi" horiz-adv-x="1028" 
d="M199 825h-142v84l142 13v145q0 241 99.5 356t268.5 115q63 0 135 -17.5t109 -35.5l-47 -101q-28 17 -84 33.5t-100 16.5q-258 0 -258 -408v-104h534v-922h-123v825h-411v-825h-123v825z" />
    <glyph glyph-name="fl" unicode="fl" horiz-adv-x="1038" 
d="M199 825h-142v84l142 13v145q0 241 99 355t271 114q103 0 197 -35v35h125v-1536h-125v1393q-88 41 -182 41q-95 0 -154.5 -52t-83.5 -140t-24 -216v-104h282v-97h-282v-825h-123v825z" />
    <glyph glyph-name="f_f_i" unicode="ffi" horiz-adv-x="1595" 
d="M57 909l142 13v104q0 242 89.5 355.5t250.5 113.5q105 0 176 -39v-108q-83 45 -162 45q-66 0 -112 -28.5t-71.5 -84t-36.5 -127t-11 -168.5v-63h442v145q0 241 100 356t271 115q63 0 133.5 -17.5t107.5 -35.5l-45 -101q-28 17 -84 33.5t-100 16.5q-260 0 -260 -408v-104
h536v-922h-125v825h-411v-825h-123v825h-442v-825h-123v825h-142v84z" />
    <glyph glyph-name="f_f_l" unicode="ffl" horiz-adv-x="1603" 
d="M57 909l142 13v104q0 242 89.5 355.5t250.5 113.5q105 0 176 -39v-108q-83 45 -162 45q-66 0 -112 -28.5t-71.5 -84t-36.5 -127t-11 -168.5v-63h442v145q0 241 99.5 355t271.5 114q102 0 196 -35v35h125v-1536h-125v1393q-88 41 -182 41q-95 0 -154.5 -52t-83.5 -140
t-24 -216v-104h282v-97h-282v-825h-123v825h-442v-825h-123v825h-142v84z" />
    <glyph glyph-name="longs_t" unicode="&#x17f;t" horiz-adv-x="1175" 
d="M199 0v1026q0 125 26.5 215.5t75 143t110 76.5t138.5 24q67 0 162.5 -18t124.5 -33v-512h254v-97h-254v-532q0 -63 11.5 -106t32.5 -65t44 -31t53 -9q61 0 110 39v-76q-19 -20 -64 -36.5t-83 -16.5q-107 0 -167 66.5t-60 222.5v544h-117v74l117 23l35 432
q-132 28 -191 28q-235 0 -235 -397v-985h-123z" />
    <glyph glyph-name=".notdef" horiz-adv-x="927" 
d="M834 0h-740v1434h740v-1434zM164 1368v-1300h600v1300h-600z" />
    <glyph glyph-name="uni0000" horiz-adv-x="0" 
 />
    <glyph glyph-name="uni0000" horiz-adv-x="0" 
 />
    <glyph glyph-name="uni000D" unicode="&#xd;" horiz-adv-x="512" 
 />
    <glyph glyph-name="space" unicode=" " horiz-adv-x="563" 
 />
    <glyph glyph-name="exclam" unicode="!" horiz-adv-x="473" 
d="M172 1434h129l-27 -975h-75zM240 -10q-39 0 -68 28.5t-29 65.5q0 40 28.5 68t68.5 28q38 0 66 -28t28 -68q0 -37 -28 -65.5t-66 -28.5z" />
    <glyph glyph-name="quotedbl" unicode="&#x22;" horiz-adv-x="825" 
d="M213 1032h-68q32 90 57 224t25 280h103q0 -145 -35.5 -278.5t-81.5 -225.5zM543 1042h-68q82 230 82 494h102q0 -252 -116 -494z" />
    <glyph glyph-name="numbersign" unicode="#" horiz-adv-x="1419" 
d="M369 397h-301l14 74h313l135 379h-268l17 72h276l147 409h91l-148 -409h330l147 409h88l-145 -409h244l-17 -72h-254l-135 -379h211l-14 -74h-221l-144 -397h-88l141 397h-329l-142 -397h-90zM485 471h330l135 379h-332z" />
    <glyph glyph-name="dollar" unicode="$" horiz-adv-x="1163" 
d="M74 184l57 99q209 -131 412 -131q163 0 256.5 60t93.5 165q0 101 -85.5 167.5t-270.5 104.5q-204 43 -304 127t-100 236t106 235t285 92v189h90v-191q196 -10 381 -114l-55 -95q-71 47 -173.5 79t-193.5 32q-156 0 -230.5 -59t-74.5 -164q0 -98 73.5 -153t227.5 -89
q237 -54 347 -140.5t110 -250.5q-1 -73 -25 -130t-63.5 -94t-96.5 -62.5t-117.5 -37t-131.5 -14.5v-199h-90v199q-106 8 -224 45.5t-204 93.5z" />
    <glyph glyph-name="percent" unicode="%" horiz-adv-x="1419" 
d="M1032 -16q-129 0 -206.5 89.5t-77.5 245.5q0 157 77.5 248.5t206.5 91.5q126 0 200.5 -91t74.5 -249q0 -157 -74 -246t-201 -89zM399 774q-129 0 -206.5 90t-77.5 246q0 157 77.5 248.5t206.5 91.5q127 0 201 -91t76 -249q0 -157 -74.5 -246.5t-202.5 -89.5zM825 319
q0 -124 56.5 -197t150.5 -73q92 0 144.5 72.5t52.5 197.5q0 126 -52 201.5t-145 75.5q-94 0 -150.5 -76t-56.5 -201zM195 1110q0 -124 56 -198t148 -72q93 0 145 72.5t52 197.5q0 126 -52 200t-145 74q-92 0 -148 -75.5t-56 -198.5zM430 20h-74l643 1393h74z" />
    <glyph glyph-name="ampersand" unicode="&#x26;" horiz-adv-x="1548" 
d="M512 -23q-207 0 -315.5 99t-108.5 262q0 40 8 76.5t18.5 66t33.5 60.5t40.5 52.5t52 48.5t54.5 42t62.5 41t62 37t65.5 37q-118 203 -118 338q0 142 86.5 225.5t218.5 83.5q120 0 201 -80.5t81 -187.5q0 -72 -24.5 -134t-72 -112t-97 -86.5t-119.5 -77.5
q142 -219 354 -406h4q133 175 248 453l103 -35q-123 -305 -267 -487q260 -201 449 -201v-92h-25q-215 0 -493 213q-222 -236 -502 -236zM541 709q-55 -32 -83 -49t-73.5 -48t-70 -56.5t-50.5 -60t-37.5 -73t-11.5 -82.5q0 -118 85.5 -189t217.5 -71q218 0 404 196v5
q-227 199 -377 428h-4zM483 1139q0 -102 99 -285h4q59 35 99 63.5t79 67.5t58.5 86.5t19.5 102.5q0 67 -49.5 119.5t-120.5 52.5q-78 0 -133.5 -55t-55.5 -152z" />
    <glyph glyph-name="quotesingle" unicode="'" horiz-adv-x="495" 
d="M213 1042h-68q82 230 82 494h103q0 -260 -117 -494z" />
    <glyph glyph-name="parenleft" unicode="(" horiz-adv-x="653" 
d="M406 -287q-115 183 -175.5 418t-60.5 463q0 229 60.5 463.5t175.5 417.5h83q-105 -184 -161 -418.5t-56 -462.5q0 -226 56 -461.5t161 -419.5h-83z" />
    <glyph glyph-name="parenright" unicode=")" horiz-adv-x="653" 
d="M164 1475h82q115 -184 176 -418t61 -463q0 -228 -61 -463t-176 -418h-82q105 184 161 419.5t56 461.5q0 228 -56 462.5t-161 418.5z" />
    <glyph glyph-name="asterisk" unicode="*" horiz-adv-x="1038" 
d="M152 1167q-22 3 -32.5 18.5t-4.5 37.5l16 49q9 28 37 28q13 0 25 -6l301 -145l6 4l-45 332q-5 22 6.5 36.5t34.5 14.5h51q22 0 33.5 -14.5t7.5 -36.5l-47 -332l8 -4l301 145q12 6 24 6q28 0 37 -28l15 -49q7 -21 -3 -37t-32 -19l-330 -57l-2 -8l232 -242q17 -15 15.5 -33
t-20.5 -32l-41 -31q-11 -8 -26 -8q-24 0 -37 26l-156 295h-10l-158 -295q-13 -26 -36 -26q-16 0 -27 8l-41 31q-19 13 -19 31.5t17 33.5l231 242l-2 8z" />
    <glyph glyph-name="plus" unicode="+" horiz-adv-x="1079" 
d="M592 573h373v-92h-373v-395h-105v395h-372v92h372v398h105v-398z" />
    <glyph glyph-name="comma" unicode="," horiz-adv-x="561" 
d="M176 -213h-84q109 187 117 420l151 31q-13 -122 -68.5 -251t-115.5 -200z" />
    <glyph glyph-name="hyphen" unicode="-" horiz-adv-x="825" 
d="M125 481v76h575v-76h-575z" />
    <glyph glyph-name="period" unicode="." horiz-adv-x="466" 
d="M139 84q0 40 28 68t66 28q39 0 67 -28t28 -68q0 -37 -28.5 -65.5t-66.5 -28.5t-66 28.5t-28 65.5z" />
    <glyph glyph-name="slash" unicode="/" horiz-adv-x="724" 
d="M-6 -51l686 1587h86l-686 -1587h-86z" />
    <glyph glyph-name="zero" unicode="0" horiz-adv-x="1220" 
d="M618 -12q-241 0 -372 182t-131 496q0 309 132 495.5t371 186.5q127 0 222 -49.5t152.5 -141t85.5 -214.5t28 -277q0 -158 -28 -280.5t-86 -212.5t-152.5 -137.5t-221.5 -47.5zM254 666q0 -262 90 -414t274 -152q349 0 349 566q0 569 -349 569q-94 0 -165 -42t-114 -119
t-64 -179t-21 -229z" />
    <glyph glyph-name="one" unicode="1" horiz-adv-x="811" 
d="M147 989l-57 84l363 258h90v-1331h-131v1171h-6z" />
    <glyph glyph-name="two" unicode="2" horiz-adv-x="1185" 
d="M150 1063q29 52 68 98.5t94.5 92t131 72t160.5 26.5q191 0 298.5 -91t107.5 -266q0 -60 -18.5 -120.5t-42.5 -105.5t-65 -96.5t-68 -79.5t-68 -69l-408 -407v-6h711v-111h-887v109l487 479q39 39 69 73.5t69 89t61 115.5t22 121q0 126 -71.5 191t-202.5 65
q-65 0 -120.5 -19.5t-98.5 -56t-72.5 -72t-62.5 -85.5z" />
    <glyph glyph-name="three" unicode="3" horiz-adv-x="1193" 
d="M578 -10q-136 0 -252 37t-195 98l53 94q170 -119 389 -119q170 0 257 64t88 207q0 127 -100.5 204.5t-254.5 77.5h-137v92h137q148 0 233 69t83 187q0 232 -277 232q-98 0 -196 -40.5t-164 -96.5l-54 92q193 158 418 158q69 0 127 -10.5t109.5 -34.5t87.5 -61.5t57 -95
t21 -130.5q0 -83 -30 -144t-73 -95t-108 -62v-6q113 -43 184 -127.5t70 -214.5q0 -74 -20 -133.5t-56 -99.5t-81 -68.5t-100 -44t-107.5 -22.5t-108.5 -7z" />
    <glyph glyph-name="four" unicode="4" horiz-adv-x="1128" 
d="M68 395l680 936h114v-932h170v-104h-170v-295h-133v295h-661v100zM205 408v-9h524v725h-6z" />
    <glyph glyph-name="five" unicode="5" horiz-adv-x="1163" 
d="M563 -10q-250 0 -477 168l55 92q43 -29 64.5 -43t68 -39.5t83 -38t89 -23t105.5 -10.5q174 0 281.5 96.5t107.5 266.5q0 168 -90 252t-248 84q-94 0 -175.5 -30t-133.5 -69l-80 54l31 581h737v-108h-635l-20 -404l6 -4q145 82 297 82q70 0 131.5 -12t121 -43.5
t101.5 -79.5t68 -125.5t26 -177.5t-31 -181t-81.5 -134t-118.5 -88.5t-138.5 -50.5t-144.5 -15z" />
    <glyph glyph-name="six" unicode="6" horiz-adv-x="1204" 
d="M623 -12q-238 0 -377.5 156.5t-139.5 422.5q0 197 45 349t125.5 245t185 140t230.5 47q83 0 163.5 -22t122.5 -43t101 -56l-69 -92q-47 27 -67 37.5t-65.5 30.5t-89.5 28t-94 8q-137 0 -239.5 -76.5t-155 -204.5t-53.5 -288h6q46 102 145.5 171.5t237.5 69.5
q140 0 247 -64t161.5 -166.5t54.5 -223.5q0 -204 -126 -336.5t-349 -132.5zM264 449q0 -87 31.5 -157t83 -113t114.5 -66t130 -23q141 0 242.5 96.5t101.5 262.5q0 170 -96.5 266t-247.5 96q-136 0 -247.5 -105.5t-111.5 -256.5z" />
    <glyph glyph-name="seven" unicode="7" horiz-adv-x="1054" 
d="M821 1221h-721v110h861v-104q-199 -342 -310.5 -587t-249.5 -640h-137q136 381 248 622.5t309 591.5v7z" />
    <glyph glyph-name="eight" unicode="8" horiz-adv-x="1196" 
d="M598 -18q-223 0 -360.5 99t-137.5 267q0 137 77 228.5t202 136.5q-93 40 -148 114t-55 177q0 145 117.5 245.5t304.5 100.5q189 0 305.5 -100.5t116.5 -245.5q0 -103 -53.5 -177t-145.5 -114q127 -44 201 -135.5t74 -229.5q0 -168 -137 -267t-361 -99zM598 666
q-167 0 -263.5 -85t-96.5 -229q2 -125 95 -200.5t265 -75.5q177 0 268.5 75t91.5 201q0 145 -94.5 229.5t-265.5 84.5zM305 1006q-1 -115 86 -179.5t207 -64.5q119 0 206 64.5t87 179.5q0 110 -78.5 180.5t-214.5 70.5t-213.5 -70t-79.5 -181z" />
    <glyph glyph-name="nine" unicode="9" horiz-adv-x="1204" 
d="M106 874q0 204 126.5 336.5t349.5 132.5q239 0 377.5 -149t138.5 -412q0 -198 -45 -352t-125 -250.5t-185 -146t-229 -49.5q-83 0 -163 21t-124.5 42.5t-101.5 56.5l63 93q50 -31 89 -50.5t102.5 -37t128.5 -17.5q138 0 241.5 77t156.5 205t55 288h-7
q-48 -101 -147.5 -171.5t-235.5 -70.5q-141 0 -248.5 64t-162 166t-54.5 224zM240 883q0 -170 95.5 -266.5t246.5 -96.5q88 0 170 46.5t135 131t53 185.5q0 87 -31 157.5t-82.5 113t-114 65t-130.5 22.5q-89 0 -165.5 -40t-126.5 -123t-50 -195z" />
    <glyph glyph-name="colon" unicode=":" horiz-adv-x="466" 
d="M139 815q0 40 28 68t66 28q39 0 67 -28.5t28 -67.5q0 -37 -28.5 -65.5t-66.5 -28.5t-66 28.5t-28 65.5zM139 84q0 40 28 68t66 28q39 0 67 -28t28 -68q0 -37 -28.5 -65.5t-66.5 -28.5t-66 28.5t-28 65.5z" />
    <glyph glyph-name="semicolon" unicode=";" horiz-adv-x="540" 
d="M84 -213q111 184 119 420l151 31q-13 -121 -69 -249.5t-115 -201.5h-86zM268 719q-38 0 -66 28t-28 66q0 40 28 68t66 28t66 -28t28 -68q0 -38 -28 -66t-66 -28z" />
    <glyph glyph-name="less" unicode="&#x3c;" horiz-adv-x="1191" 
d="M1065 59l-952 463v86l952 453v-111l-817 -381v-8l817 -387v-115z" />
    <glyph glyph-name="equal" unicode="=" horiz-adv-x="1073" 
d="M121 672v92h833v-92h-833zM954 276h-833v93h833v-93z" />
    <glyph glyph-name="greater" unicode="&#x3e;" horiz-adv-x="1191" 
d="M1030 522l-954 -463v115l819 387v8l-819 381v111l954 -453v-86z" />
    <glyph glyph-name="question" unicode="?" horiz-adv-x="948" 
d="M106 1343q62 34 108.5 54.5t123 38.5t158.5 18q183 0 289 -91.5t106 -248.5q0 -65 -17.5 -119.5t-51 -97t-65.5 -73t-76.5 -69t-68.5 -63.5q-118 -126 -118 -284h-134q-3 87 29.5 171.5t120.5 186.5q18 22 54 53t66 58.5t60.5 62.5t48 79t17.5 93q0 110 -78.5 173
t-190.5 63q-80 0 -155 -24t-170 -79zM434 -8q-40 0 -68 28t-28 66q0 40 28 68t68 28q38 0 66 -28t28 -68q0 -38 -28 -66t-66 -28z" />
    <glyph glyph-name="at" unicode="@" horiz-adv-x="1728" 
d="M788 -244q-198 0 -356 93.5t-245 255t-87 360.5t97.5 371.5t266 275t365.5 102.5q149 0 283 -51.5t232.5 -141t156.5 -218.5t58 -277q0 -187 -93.5 -295t-226.5 -108q-23 0 -40.5 1.5t-40 7.5t-39 16.5t-34 30t-28.5 46.5t-18.5 67t-8.5 91q-28 -101 -110.5 -176.5
t-171.5 -75.5q-121 0 -200 80t-79 217q0 70 30 141.5t82.5 131.5t134.5 97.5t177 37.5q31 0 66 -4.5t71 -14t59 -27.5t23 -42v-336q0 -213 127 -213q99 0 162 76.5t63 250.5q0 172 -86 312t-231 217.5t-318 77.5q-129 0 -248 -55t-204 -146.5t-136 -214t-51 -252.5
t44.5 -245t122.5 -199t190 -132.5t241 -48.5q111 0 240 54l43 -76q-140 -62 -283 -62zM883 760q-92 1 -164.5 -51.5t-107 -127t-33.5 -149.5q0 -89 47.5 -152t128.5 -63q59 0 116 44t93.5 103.5t54.5 120.5v256q-43 19 -135 19z" />
    <glyph glyph-name="A" unicode="A" horiz-adv-x="1308" 
d="M78 0l545 1442h71l537 -1442h-141l-127 346h-631l-127 -346h-127zM649 1186l-278 -733h555l-271 733h-6z" />
    <glyph glyph-name="B" unicode="B" horiz-adv-x="1218" 
d="M180 1430q61 2 187.5 8t207.5 6q78 0 145.5 -12t128.5 -40.5t104 -71.5t68.5 -108t25.5 -147q0 -204 -175 -297v-6q238 -99 238 -332q1 -114 -44 -201.5t-120.5 -138t-165 -75.5t-188.5 -25q-145 0 -412 10v1430zM674 707h-361v-596q143 -11 291 -11q166 0 264.5 92.5
t98.5 243.5q0 120 -79 195.5t-214 75.5zM313 809h361q121 0 174 71t53 177q0 121 -80.5 197.5t-234.5 76.5q-142 0 -273 -8v-514z" />
    <glyph glyph-name="C" unicode="C" horiz-adv-x="1343" 
d="M799 -20q-193 0 -344 95t-234.5 267.5t-83.5 392.5q1 163 51 297t138.5 224t209.5 139t263 49q248 0 430 -96l-53 -107q-169 82 -373 82q-227 0 -373.5 -165t-146.5 -423q0 -277 149.5 -457t374.5 -180q224 0 381 92l49 -100q-206 -110 -438 -110z" />
    <glyph glyph-name="D" unicode="D" horiz-adv-x="1392" 
d="M594 -14q-274 0 -414 14v1427q224 17 414 17q305 0 482 -188t179 -498q1 -162 -43 -302t-126 -245t-208.5 -165t-283.5 -60zM600 1331q-165 0 -287 -12v-1210q125 -13 287 -13q95 0 177.5 35t143 97t104 145.5t65 181.5t20.5 203q-1 164 -60 293t-175.5 204.5
t-274.5 75.5z" />
    <glyph glyph-name="E" unicode="E" horiz-adv-x="1126" 
d="M180 1434h801v-115h-668v-528h607v-109h-607v-567h668v-115h-801v1434z" />
    <glyph glyph-name="F" unicode="F" horiz-adv-x="1126" 
d="M180 1434h801v-115h-668v-549h607v-108h-607v-662h-133v1434z" />
    <glyph glyph-name="G" unicode="G" horiz-adv-x="1374" 
d="M807 -20q-300 0 -484.5 204.5t-183.5 552.5q0 164 51 297.5t141.5 223t216.5 138t275 48.5q230 0 437 -96l-54 -109q-184 88 -379 88q-254 0 -398 -157.5t-144 -432.5q-1 -295 140.5 -469t381.5 -174q167 0 326 84v416h-324v106h451v-596q-100 -59 -220.5 -91.5
t-232.5 -32.5z" />
    <glyph glyph-name="H" unicode="H" horiz-adv-x="1325" 
d="M180 1434h133v-639h699v639h135v-1434h-135v680h-699v-680h-133v1434z" />
    <glyph glyph-name="I" unicode="I" horiz-adv-x="493" 
d="M180 0v1434h133v-1434h-133z" />
    <glyph glyph-name="J" unicode="J" horiz-adv-x="823" 
d="M92 27l21 106q26 -13 89.5 -26t108.5 -13q128 -2 187 73.5t59 274.5v992h127v-992q0 -115 -17.5 -196t-59 -142t-115 -90.5t-181.5 -29.5q-54 0 -122 14t-97 29z" />
    <glyph glyph-name="K" unicode="K" horiz-adv-x="1204" 
d="M180 1434h133v-682h6l568 682h151l-565 -670l676 -764h-176l-588 659l-72 -86v-573h-133v1434z" />
    <glyph glyph-name="L" unicode="L" horiz-adv-x="1089" 
d="M180 0v1434h133v-1319h688v-115h-821z" />
    <glyph glyph-name="M" unicode="M" horiz-adv-x="1718" 
d="M305 0h-125v1434h135l545 -1270h6l537 1270h135v-1434h-135v1137h-6l-488 -1137h-116l-482 1122h-6v-1122z" />
    <glyph glyph-name="N" unicode="N" horiz-adv-x="1341" 
d="M180 0v1434h127l721 -1196h6v1196h129v-1434h-129l-721 1180h-6v-1180h-127z" />
    <glyph glyph-name="O" unicode="O" horiz-adv-x="1501" 
d="M752 -20q-190 0 -330 94.5t-211.5 260t-71.5 382.5t71.5 382.5t211.5 260t330 94.5q189 0 328.5 -94.5t211.5 -260.5t72 -382t-72 -382t-211.5 -260.5t-328.5 -94.5zM283 717q0 -180 54 -318.5t161.5 -218.5t253.5 -80q219 0 343 171t124 446q0 181 -53.5 319
t-160.5 217.5t-253 79.5t-253.5 -79t-161.5 -217.5t-54 -319.5z" />
    <glyph glyph-name="P" unicode="P" horiz-adv-x="1134" 
d="M313 0h-133v1423q39 3 99.5 8t88.5 7t76 4t101 2q87 0 163.5 -15t142.5 -48.5t113 -83t74 -122t27 -161.5q0 -118 -43 -210t-117 -148.5t-165.5 -86t-196.5 -32.5q-102 -4 -230 22v-559zM543 1331q-135 0 -230 -12v-651q115 -21 222 -21q188 0 289 97t98 270
q-2 149 -98.5 233t-280.5 84z" />
    <glyph glyph-name="Q" unicode="Q" horiz-adv-x="1505" 
d="M754 -20q-190 0 -330 94.5t-211.5 260t-71.5 382.5t71.5 382.5t211.5 260t330 94.5q189 0 328.5 -94.5t211.5 -260.5t72 -382q0 -258 -102.5 -442.5t-288.5 -256.5l332 -217l-95 -90l-381 273q-54 -4 -77 -4zM754 1333q-146 0 -253.5 -79t-161.5 -217.5t-54 -319.5
q0 -180 54 -318.5t161.5 -218.5t253.5 -80q219 0 343 171t124 446q0 181 -53.5 319t-160.5 217.5t-253 79.5z" />
    <glyph glyph-name="R" unicode="R" horiz-adv-x="1200" 
d="M180 0v1423q45 3 97 8t78 7t68.5 4t94.5 2q112 0 204.5 -21.5t167 -67.5t116.5 -126.5t43 -190.5q0 -149 -75.5 -244.5t-201.5 -142.5v-6q40 -10 77.5 -36t66 -59.5t56 -83t46.5 -92.5t39.5 -102t32.5 -98.5t27.5 -94.5t23.5 -79h-146q-5 16 -16.5 58.5t-22.5 83.5
t-30 95t-39.5 101t-51.5 94.5t-65.5 80.5t-81.5 54t-100 21h-275v-588h-133zM313 1319v-617h185q414 0 411 332q-1 145 -102.5 221t-290.5 76q-108 0 -203 -12z" />
    <glyph glyph-name="S" unicode="S" horiz-adv-x="1185" 
d="M569 -14q-117 0 -255 38t-238 101l63 108q211 -131 428 -131q164 0 267.5 82.5t103.5 196.5q0 108 -91 177t-290 112q-103 23 -175.5 52.5t-129 75t-84 111.5t-27.5 154q0 173 125 277t328 104q233 0 450 -121l-63 -109q-78 49 -181.5 83t-201.5 34q-81 0 -144.5 -23.5
t-101.5 -62.5t-57 -85t-19 -95q0 -110 77.5 -169.5t244.5 -96.5q123 -29 206 -61t146.5 -79.5t93 -114t29.5 -157.5q-1 -81 -29 -148.5t-76 -113.5t-112.5 -78t-136.5 -46.5t-150 -14.5z" />
    <glyph glyph-name="T" unicode="T" horiz-adv-x="1269" 
d="M563 1319h-448v115h1040v-115h-457v-1319h-135v1319z" />
    <glyph glyph-name="U" unicode="U" horiz-adv-x="1261" 
d="M139 1434h133v-820q0 -139 24.5 -240t72.5 -162t112.5 -89.5t149.5 -28.5q183 -2 273.5 119t90.5 401v820h127v-799q0 -161 -25.5 -278.5t-82.5 -203t-152.5 -127.5t-230.5 -42q-265 0 -378.5 161.5t-113.5 489.5v799z" />
    <glyph glyph-name="V" unicode="V" horiz-adv-x="1261" 
d="M39 1434h145l455 -1268h6l449 1268h129l-518 -1434h-150z" />
    <glyph glyph-name="W" unicode="W" horiz-adv-x="2117" 
d="M555 0l-516 1434h141l463 -1266h6l379 1266h107l362 -1256h6l447 1256h131l-516 -1434h-156l-332 1159h-6l-350 -1159h-166z" />
    <glyph glyph-name="X" unicode="X" horiz-adv-x="1163" 
d="M55 0l455 729l-434 705h147l361 -586h6l366 588l127 -2l-430 -697l453 -737h-143l-385 621h-7l-385 -621h-131z" />
    <glyph glyph-name="Y" unicode="Y" horiz-adv-x="1261" 
d="M92 1434h148l389 -623h6l403 625l131 -2l-473 -734v-700h-139v692z" />
    <glyph glyph-name="Z" unicode="Z" horiz-adv-x="1292" 
d="M190 1434h932v-125l-819 -1182v-6h797v-121h-969v125l827 1182v6h-768v121z" />
    <glyph glyph-name="bracketleft" unicode="[" horiz-adv-x="485" 
d="M121 1475h309v-64h-223v-1634h223v-64h-309v1762z" />
    <glyph glyph-name="backslash" unicode="\" horiz-adv-x="724" 
d="M12 1536l686 -1587h-86l-688 1587h88z" />
    <glyph glyph-name="bracketright" unicode="]" horiz-adv-x="485" 
d="M330 -287h-310v64h224v1634h-224v64h310v-1762z" />
    <glyph glyph-name="asciicircum" unicode="^" horiz-adv-x="927" 
d="M172 842h-76l340 696h62l333 -696h-77l-285 612h-6z" />
    <glyph glyph-name="underscore" unicode="_" horiz-adv-x="1013" 
d="M127 -113v64h760v-64h-760z" />
    <glyph glyph-name="grave" unicode="`" horiz-adv-x="759" 
d="M92 1407h158l184 -311h-86z" />
    <glyph glyph-name="a" unicode="a" horiz-adv-x="974" 
d="M92 248q0 105 54 180t137.5 109t185.5 34q106 0 231 -41q0 57 -5.5 100t-21.5 83.5t-42.5 66t-70.5 41t-103 15.5q-133 0 -256 -86l-47 86q75 47 149 74.5t170 27.5q184 0 268 -94.5t84 -280.5v-389q0 -109 41 -174h-129q-25 49 -28 106h-7q-130 -124 -296 -124
q-146 0 -230 74.5t-84 191.5zM217 262q0 -87 56.5 -135.5t152.5 -48.5q78 0 155 45.5t121 101.5v205q-34 19 -97 35t-120 16q-112 0 -190 -58t-78 -161z" />
    <glyph glyph-name="b" unicode="b" horiz-adv-x="1069" 
d="M252 0h-102v1536h122v-762h7q94 162 292 162q170 0 280 -125.5t110 -349.5q0 -112 -33 -204t-88 -150t-124 -89.5t-145 -31.5q-100 0 -178 44.5t-125 127.5h-6zM545 834q-127 0 -200 -104t-73 -271q0 -148 78.5 -261.5t194.5 -113.5q127 0 204.5 109t77.5 268
q0 161 -74.5 267.5t-207.5 105.5z" />
    <glyph glyph-name="c" unicode="c" horiz-adv-x="931" 
d="M541 -14q-87 0 -164 31t-136.5 89t-94.5 149.5t-35 205.5q0 99 28 185t81 151.5t135.5 103t185.5 37.5q170 0 284 -72l-43 -88q-82 60 -227 60q-103 0 -176 -53t-106 -136t-33 -186q0 -163 88 -269t229 -106q74 0 142.5 20t109.5 50l45 -88q-135 -84 -313 -84z" />
    <glyph glyph-name="d" unicode="d" horiz-adv-x="1071" 
d="M498 -14q-76 0 -145 31.5t-124 89.5t-87.5 150t-32.5 204q0 224 110 349.5t279 125.5q205 0 295 -156h6v756h123v-1536h-107l-10 162h-6q-98 -176 -301 -176zM524 834q-133 1 -207.5 -105.5t-74.5 -267.5q0 -159 77.5 -268t204.5 -109q77 0 141 54.5t98 140.5t34 180
q0 167 -73 271t-200 104z" />
    <glyph glyph-name="e" unicode="e" horiz-adv-x="1048" 
d="M129 461q0 114 34 205.5t92.5 149.5t134.5 89t163 31q179 0 280 -131t89 -342h-670q1 -172 89 -274.5t230 -102.5q76 0 150 20t115 48l41 -86q-132 -82 -316 -82q-88 0 -166 32t-137.5 91t-94 150t-34.5 202zM260 559h545q-1 124 -71 200.5t-183 78.5q-123 0 -200 -79
t-91 -200z" />
    <glyph glyph-name="f" unicode="f" horiz-adv-x="673" 
d="M199 825h-142v84l142 13v145q0 242 89.5 355.5t250.5 113.5q105 0 176 -39v-108q-83 45 -162 45q-66 0 -112 -28.5t-71.5 -84t-36.5 -127t-11 -168.5v-104h286v-97h-286v-825h-123v825z" />
    <glyph glyph-name="g" unicode="g" horiz-adv-x="1081" 
d="M504 -512q-207 0 -314.5 76t-107.5 205q0 149 182 243q-139 50 -139 174q0 58 36 107.5t101 79.5q-104 84 -104 239q0 66 18.5 119.5t51.5 87.5t71 58t83.5 36.5t82.5 17.5t74 5q124 0 223 -53q36 64 101.5 108t156.5 43v-108q-126 5 -191 -90q91 -87 91 -224
q0 -78 -29.5 -138t-72 -93.5t-98 -55t-99 -28t-82.5 -6.5q-112 0 -201 37q-42 -20 -70 -53t-28 -70q0 -59 74.5 -88t244.5 -29q105 0 183.5 -12.5t131 -35t85 -58t46 -78t13.5 -97.5q0 -142 -143 -230.5t-371 -88.5zM555 -25q-87 0 -154 9q-78 -23 -137 -75.5t-59 -121.5
q0 -101 85 -151t218 -50q80 0 148 12.5t122 37.5t84.5 67.5t30.5 97.5q0 97 -74.5 135.5t-263.5 38.5zM539 846q-133 0 -196.5 -65.5t-61.5 -168.5q0 -103 62 -167t196 -64q121 0 189.5 67t68.5 164q0 96 -69.5 165t-188.5 69z" />
    <glyph glyph-name="h" unicode="h" horiz-adv-x="1040" 
d="M150 0v1536h122v-786h7q37 80 109.5 136t172.5 56q183 0 267.5 -112t84.5 -343v-487h-122v449q0 93 -11 159.5t-38 120t-77 80.5t-124 27q-98 0 -168.5 -85t-100.5 -216v-535h-122z" />
    <glyph glyph-name="i" unicode="i" horiz-adv-x="466" 
d="M174 0v922h123v-922h-123zM139 1331q0 40 27 68t67 28q39 0 67 -28.5t28 -67.5q0 -38 -28.5 -66t-66.5 -28q-39 0 -66.5 27.5t-27.5 66.5z" />
    <glyph glyph-name="j" unicode="j" horiz-adv-x="411" 
d="M-143 -397h34q149 0 208 91t59 314v914h123v-920q0 -127 -18 -216.5t-61 -157.5t-120 -101t-191 -33h-34v109zM123 1331q0 40 27 67t67 27q39 0 66.5 -27.5t27.5 -66.5q0 -38 -28 -66t-66 -28q-39 0 -66.5 27.5t-27.5 66.5z" />
    <glyph glyph-name="k" unicode="k" horiz-adv-x="931" 
d="M272 0h-122v1536h122v-1083h7l421 469h134l-326 -363l334 -559h-137l-277 469l-156 -174v-295z" />
    <glyph glyph-name="l" unicode="l" horiz-adv-x="419" 
d="M150 0v1536h122v-1536h-122z" />
    <glyph glyph-name="m" unicode="m" horiz-adv-x="1611" 
d="M272 0h-122v922h106l12 -172h6q34 81 101 136.5t168 55.5q133 0 206 -59.5t103 -186.5h6q10 42 32 82t56.5 78.5t87 62t115.5 23.5q181 0 258.5 -110.5t77.5 -344.5v-487h-125v449q0 76 -4.5 130.5t-19 106t-40 82.5t-67.5 49.5t-101 18.5q-66 0 -117.5 -42.5t-82 -107
t-49.5 -151.5v-535h-123v449q0 76 -5 130.5t-19.5 105.5t-40 82.5t-68 50t-101.5 18.5q-95 0 -158 -82.5t-92 -214.5v-539z" />
    <glyph glyph-name="n" unicode="n" horiz-adv-x="1040" 
d="M272 0h-122v922h106l10 -177h6q37 81 111.5 139t177.5 58q183 0 267.5 -112t84.5 -343v-487h-122v449q0 93 -11 159.5t-38 120t-77 80.5t-124 27q-98 0 -168.5 -85t-100.5 -216v-535z" />
    <glyph glyph-name="o" unicode="o" horiz-adv-x="1056" 
d="M528 -16q-180 0 -300 126t-119 351q0 225 120 351t299 126q181 0 301.5 -126t120.5 -351t-120.5 -351t-301.5 -126zM236 461q0 -163 77.5 -267t214.5 -104q138 0 215.5 103.5t77.5 267.5t-77.5 268.5t-215.5 104.5q-137 0 -214.5 -104.5t-77.5 -268.5z" />
    <glyph glyph-name="p" unicode="p" horiz-adv-x="1069" 
d="M272 -512h-122v1434h104l8 -152h6q96 166 303 166q170 0 280 -125.5t110 -349.5q0 -112 -33 -204t-88 -150t-124 -89.5t-145 -31.5q-196 0 -292 166h-7v-664zM272 459q0 -94 34 -180t98 -140.5t141 -54.5q127 0 204.5 109t77.5 268q0 161 -74.5 267.5t-207.5 105.5
q-127 0 -200 -104t-73 -271z" />
    <glyph glyph-name="q" unicode="q" horiz-adv-x="1071" 
d="M498 -14q-76 0 -145 31.5t-124 89.5t-87.5 150t-32.5 204q0 224 110 349.5t279 125.5q212 0 303 -164h6l8 150h107v-1434h-123v668h-6q-98 -170 -295 -170zM524 834q-133 1 -207.5 -105.5t-74.5 -267.5q0 -159 77.5 -268t204.5 -109q77 0 141 54.5t98 140.5t34 180
q0 167 -73 271t-200 104z" />
    <glyph glyph-name="r" unicode="r" horiz-adv-x="716" 
d="M272 0h-122v922h106l8 -162h6q43 82 131 133.5t209 40.5v-115q-20 4 -57 4q-116 0 -186 -70t-95 -184v-569z" />
    <glyph glyph-name="s" unicode="s" horiz-adv-x="870" 
d="M428 -12q-199 0 -322 80l48 94q45 -33 119.5 -55.5t150.5 -22.5q93 0 147 40t54 107q0 69 -51.5 111.5t-178.5 81.5q-256 77 -256 260q0 123 90 188.5t234 65.5q176 0 285 -72l-43 -88q-95 64 -236 64q-91 0 -147 -40.5t-56 -101.5q0 -69 43.5 -105t130.5 -63
q163 -49 237.5 -116.5t74.5 -177.5q0 -118 -92.5 -184t-231.5 -66z" />
    <glyph glyph-name="t" unicode="t" horiz-adv-x="677" 
d="M98 825v74l117 23l37 254h86v-254h254v-97h-254v-532q0 -120 38 -165.5t101 -45.5q66 0 111 39v-76q-17 -20 -62.5 -36.5t-83.5 -16.5q-107 0 -167 66.5t-60 222.5v544h-117z" />
    <glyph glyph-name="u" unicode="u" horiz-adv-x="1040" 
d="M481 -20q-184 0 -268 119t-84 376v447h123v-447q0 -75 6.5 -131.5t23.5 -106.5t45 -82.5t72 -50.5t103 -18q98 0 167.5 84.5t100.5 216.5v535h123v-922h-107l-12 176h-6q-37 -82 -110.5 -139t-176.5 -57z" />
    <glyph glyph-name="v" unicode="v" horiz-adv-x="888" 
d="M37 922h139l268 -811h7l282 811h119l-332 -922h-164z" />
    <glyph glyph-name="w" unicode="w" horiz-adv-x="1382" 
d="M344 0l-307 922h139l254 -807h6l201 788h131l197 -788h6l256 807h119l-302 -922h-165l-181 741h-6l-188 -741h-160z" />
    <glyph glyph-name="x" unicode="x" horiz-adv-x="845" 
d="M55 0l301 461l-293 461h142l229 -357h6l226 357h125l-297 -457l292 -465h-139l-227 360h-6l-234 -360h-125z" />
    <glyph glyph-name="y" unicode="y" horiz-adv-x="917" 
d="M27 -512v104h43q142 0 244.5 111t150.5 291l-428 928h137l346 -764h6l238 764h117l-279 -883q-86 -271 -213 -411t-319 -140h-43z" />
    <glyph glyph-name="z" unicode="z" horiz-adv-x="821" 
d="M739 0h-655v106l516 717v6h-477v93h616v-113l-512 -709v-6h512v-94z" />
    <glyph glyph-name="braceleft" unicode="{" horiz-adv-x="735" 
d="M115 637q91 0 147.5 72t56.5 178v346q0 110 76.5 176t225.5 66v-64q-213 0 -213 -188v-342q0 -101 -50 -184t-151 -105q101 -22 151 -105t50 -184v-338q0 -188 213 -188v-64q-149 0 -225.5 66t-76.5 176v342q0 106 -56.5 178t-147.5 72v90z" />
    <glyph glyph-name="bar" unicode="|" horiz-adv-x="374" 
d="M152 -143v1679h71v-1679h-71z" />
    <glyph glyph-name="braceright" unicode="}" horiz-adv-x="735" 
d="M115 -287v64q211 0 211 188v338q0 101 50 184t152 105q-102 22 -152 105t-50 184v342q0 188 -211 188v64q148 0 223.5 -66t75.5 -176v-346q0 -106 57.5 -178t146.5 -72v-90q-89 0 -146.5 -72t-57.5 -178v-342q0 -110 -75.5 -176t-223.5 -66z" />
    <glyph glyph-name="asciitilde" unicode="~" horiz-adv-x="1282" 
d="M362 727q-73 0 -144.5 -41t-102.5 -80v99q35 33 103.5 66.5t143.5 33.5q55 0 115 -20.5t113.5 -49.5t107 -58.5t112 -50t110.5 -20.5q116 0 247 131v-96q-43 -44 -106.5 -77.5t-140.5 -33.5q-78 0 -160 31t-140.5 67.5t-129.5 67.5t-128 31z" />
    <glyph glyph-name="exclamdown" unicode="&#xa1;" horiz-adv-x="473" 
d="M131 -528l27 974h78l26 -974h-131zM195 725q-39 0 -67 28.5t-28 67.5q0 37 28.5 65.5t66.5 28.5t67 -28.5t29 -65.5q0 -39 -28.5 -67.5t-67.5 -28.5z" />
    <glyph glyph-name="cent" unicode="&#xa2;" horiz-adv-x="1005" 
d="M109 645q0 192 100 324.5t280 150.5l3 189h88v-189q152 -9 243 -69l-43 -88q-80 59 -227 59q-102 0 -175 -53t-106.5 -136t-33.5 -186q0 -163 88 -269t229 -106q74 0 142.5 20t111.5 50l43 -88q-112 -74 -272 -84v-170h-88v172q-80 9 -148.5 43.5t-121.5 92t-83 144.5
t-30 193z" />
    <glyph glyph-name="sterling" unicode="&#xa3;" horiz-adv-x="927" 
d="M868 0h-809v102q179 197 179 390q0 34 -11 98h-168v76h152q-2 6 -16 59.5t-18 70.5t-12.5 57.5t-11.5 69.5t-3 58q0 98 31.5 179t85.5 133t124.5 80t149.5 28q137 0 260 -66l-47 -94q-1 1 -13.5 6.5t-17 7.5t-17.5 7.5t-21 8t-22 7t-25.5 7t-26.5 5t-30.5 3.5t-31.5 1
q-50 0 -97.5 -20t-87 -57.5t-64 -100t-24.5 -139.5q0 -32 6 -75.5t11.5 -70t19.5 -89t17 -76.5h372v-76h-356q8 -70 8 -98q0 -190 -153 -377v-6h667v-109z" />
    <glyph glyph-name="currency" unicode="&#xa4;" horiz-adv-x="1206" 
d="M145 299l142 127q-76 115 -76 268q0 154 78 275l-144 129l60 59l125 -139q109 115 276 115q163 0 273 -113l122 137l60 -59l-141 -127q81 -113 81 -277q0 -154 -77 -270l137 -125l-60 -57l-118 131q-110 -113 -277 -113q-172 0 -280 117l-121 -135zM606 1047
q-131 0 -214 -104t-83 -249q0 -144 83 -247t214 -103q130 0 213.5 103t83.5 247t-83.5 248.5t-213.5 104.5z" />
    <glyph glyph-name="yen" unicode="&#xa5;" horiz-adv-x="1261" 
d="M92 1393h148l389 -623h6l403 623l131 -2l-450 -697h336v-86h-359v-209h359v-86h-359v-313h-139v313h-350v86h350v209h-350v86h323z" />
    <glyph glyph-name="brokenbar" unicode="&#xa6;" horiz-adv-x="374" 
d="M152 840v696h71v-696h-71zM223 -143h-71v696h71v-696z" />
    <glyph glyph-name="section" unicode="&#xa7;" horiz-adv-x="1363" 
d="M614 -416q-116 0 -254 35t-239 92l57 99q208 -117 434 -117q170 0 274.5 62t104.5 163q0 94 -94 153t-299 101q-219 44 -337 135.5t-118 245.5q0 107 72 195.5t186 134.5v4q-139 86 -139 250q0 147 126.5 230t332.5 83q226 0 450 -117l-57 -96q-77 44 -184 75t-205 31
q-161 0 -244.5 -58t-83.5 -150q0 -98 82 -151.5t252 -88.5q130 -28 220 -60t158.5 -79t100.5 -112t31 -152q0 -217 -252 -330v-4q135 -88 135 -238q0 -85 -43.5 -151.5t-117 -105.5t-162 -59t-187.5 -20zM274 557q0 -108 93 -172.5t274 -101.5q139 -30 219 -60
q111 34 181.5 106t70.5 154q0 115 -103.5 186t-320.5 113q-107 23 -149 39q-123 -27 -194 -102t-71 -162z" />
    <glyph glyph-name="dieresis" unicode="&#xa8;" horiz-adv-x="800" 
d="M565 1133q-38 0 -65 27.5t-27 64.5q0 38 27 65t65 27q37 0 63.5 -27t26.5 -65q0 -37 -26.5 -64.5t-63.5 -27.5zM145 1225q0 38 27.5 65t65.5 27q37 0 63.5 -27t26.5 -65q0 -37 -26.5 -64.5t-63.5 -27.5q-38 0 -65.5 27.5t-27.5 64.5z" />
    <glyph glyph-name="copyright" unicode="&#xa9;" 
d="M778 -14q-139 0 -265 54t-217 145t-144.5 217t-53.5 264t53.5 264t144.5 217t217 145t265 54q138 0 264 -54t217 -145t145 -217t54 -264t-54 -264t-145 -217t-217 -145t-264 -54zM190 666q0 -161 78.5 -298t214 -216.5t295.5 -79.5q159 0 294 79.5t213.5 216.5t78.5 298
t-78.5 298.5t-213.5 217.5t-294 80q-160 0 -295.5 -80t-214 -217.5t-78.5 -298.5zM784 272q-70 0 -136 24.5t-121 71.5t-88 124t-33 174t30.5 174t82 123.5t115 71t134.5 24.5q116 0 208 -54.5t142 -158.5l-88 -49q-34 80 -100 128.5t-160 49.5q-124 0 -191 -88.5
t-67 -218.5q2 -129 77 -219.5t199 -90.5q93 0 160 49t101 130l73 -43q-50 -107 -136.5 -164.5t-201.5 -57.5z" />
    <glyph glyph-name="ordfeminine" unicode="&#xaa;" horiz-adv-x="598" 
d="M260 909q-88 0 -138 46t-50 116q0 93 66.5 143t162.5 50q58 0 121 -23v21q0 81 -32 120t-103 39q-78 0 -154 -49l-33 51q100 62 195 62q110 0 157.5 -56.5t47.5 -168.5v-234q0 -65 24 -104h-80q-13 17 -20 59q-72 -72 -164 -72zM147 1079q0 -54 33.5 -82t95.5 -28
q81 0 146 78v137q-65 26 -111 26q-68 0 -116 -34.5t-48 -96.5z" />
    <glyph glyph-name="guillemotleft" unicode="&#xab;" horiz-adv-x="927" 
d="M119 444v37l360 408h74l-360 -414v-16l360 -426h-76zM733 33l-358 411v37l360 408h74l-360 -414v-16l360 -426h-76z" />
    <glyph glyph-name="logicalnot" unicode="&#xac;" horiz-adv-x="884" 
d="M125 725h635v-375h-82v299h-553v76z" />
    <glyph glyph-name="registered" unicode="&#xae;" horiz-adv-x="925" 
d="M98 1083q0 151 107 258t258 107q152 0 259 -107t107 -258q0 -152 -107 -259t-259 -107q-151 0 -258 107t-107 259zM463 1399q-129 0 -219 -92.5t-90 -223.5q0 -132 90 -223.5t219 -91.5q130 0 219.5 91.5t89.5 223.5q0 131 -89.5 223.5t-219.5 92.5zM346 903v377
q61 6 107 6q141 0 141 -108q0 -77 -70 -101v-2q17 -4 30.5 -17.5t23.5 -36t16.5 -40t13.5 -44t10 -34.5h-55q-2 5 -9.5 35.5t-15 53t-27.5 43t-48 20.5h-64v-152h-53zM399 1243v-145h41q52 0 76.5 21t22.5 59q0 67 -86 67q-38 0 -54 -2z" />
    <glyph glyph-name="macron" unicode="&#xaf;" horiz-adv-x="1013" 
d="M229 1106v65h557v-65h-557z" />
    <glyph glyph-name="degree" unicode="&#xb0;" horiz-adv-x="649" 
d="M324 918q-106 0 -179 68t-73 196q0 129 73.5 197.5t178.5 68.5t179.5 -68.5t74.5 -197.5q0 -127 -74.5 -195.5t-179.5 -68.5zM154 1182q0 -83 45.5 -139t124.5 -56q77 0 124.5 56.5t47.5 138.5q0 84 -47 140t-125 56q-79 0 -124.5 -55.5t-45.5 -140.5z" />
    <glyph glyph-name="plusminus" unicode="&#xb1;" horiz-adv-x="1079" 
d="M592 893h373v-94h-373v-393h-105v393h-372v94h372v397h105v-397zM920 111h-764v84h764v-84z" />
    <glyph glyph-name="twosuperior" unicode="&#xb2;" horiz-adv-x="552" 
d="M78 1399q80 133 211 133q79 0 127.5 -41.5t48.5 -116.5q0 -43 -21 -86.5t-40 -65.5t-54 -57l-164 -170v-4h295v-69h-401v61l211 217q30 30 44.5 45.5t34 52.5t19.5 72q0 45 -27.5 70.5t-76.5 25.5q-35 0 -66 -17t-47 -35t-37 -48z" />
    <glyph glyph-name="threesuperior" unicode="&#xb3;" horiz-adv-x="557" 
d="M270 915q-123 0 -200 60l34 57q77 -53 164 -53q64 0 102 28.5t38 82.5t-39 84t-105 30h-65v58h65q60 0 93.5 29t33.5 77q0 44 -28 68t-82 24q-78 0 -152 -61l-35 53q88 72 189 72q81 0 131.5 -35.5t50.5 -114.5q0 -90 -88 -133v-4q108 -42 108 -152q-1 -39 -14.5 -70
t-34.5 -49.5t-50.5 -30t-57 -16t-58.5 -4.5z" />
    <glyph glyph-name="acute" unicode="&#xb4;" horiz-adv-x="759" 
d="M494 1407h155l-256 -311h-86z" />
    <glyph glyph-name="paragraph" unicode="&#xb6;" horiz-adv-x="1122" 
d="M565 524q-123 0 -227 60.5t-164.5 165.5t-60.5 229q0 188 132.5 321.5t319.5 133.5h445v-1696h-101v1603h-168v-1603h-102v786h-74z" />
    <glyph glyph-name="periodcentered" unicode="&#xb7;" horiz-adv-x="466" 
d="M139 682q0 40 28 68t66 28q39 0 67 -28t28 -68q0 -38 -28.5 -66t-66.5 -28t-66 28t-28 66z" />
    <glyph glyph-name="cedilla" unicode="&#xb8;" horiz-adv-x="593" 
d="M145 -244q54 -20 99 -20q47 0 78.5 16t31.5 45q0 18 -12.5 30.5t-32 18.5t-37 8.5t-34.5 2.5l-25 24l49 152h66l-31 -105v-10q47 2 93 -27.5t46 -85.5q0 -66 -51 -99.5t-133 -33.5q-58 0 -107 19v65z" />
    <glyph glyph-name="onesuperior" unicode="&#xb9;" horiz-adv-x="385" 
d="M82 1343l-33 52l164 114h59v-587h-75v495h-4z" />
    <glyph glyph-name="ordmasculine" unicode="&#xba;" horiz-adv-x="649" 
d="M324 915q-109 0 -180.5 74.5t-71.5 208.5q0 136 72 211.5t180 75.5t182 -76t74 -211q0 -134 -73 -208.5t-183 -74.5zM154 1198q0 -92 44 -152.5t126 -60.5q81 0 126.5 61t45.5 152q0 93 -45.5 155t-126.5 62q-82 0 -126 -62t-44 -155z" />
    <glyph glyph-name="guillemotright" unicode="&#xbb;" horiz-adv-x="927" 
d="M444 475l-362 414h74l360 -408v-37l-358 -411h-76l362 426v16zM700 475l-362 414h74l360 -408v-37l-358 -411h-76l362 426v16z" />
    <glyph glyph-name="onequarter" unicode="&#xbc;" horiz-adv-x="911" 
d="M424 113v55l305 420h62v-416h67v-59h-67v-115h-70v115h-297zM12 0l809 1331h60l-803 -1331h-66zM49 1231l164 115h59v-588h-75v495h-4l-111 -73zM496 176v-4h225v309h-4z" />
    <glyph glyph-name="onehalf" unicode="&#xbd;" horiz-adv-x="1073" 
d="M655 444l-57 33q80 133 211 133q79 0 128.5 -41.5t49.5 -115.5q0 -33 -10 -63.5t-31.5 -59.5t-35 -44t-40.5 -42l-161 -170v-4h292v-70h-399v61l211 218q0 1 15.5 16.5t19.5 20.5t17.5 20.5t18.5 26t13 25.5t11 30t3 31q0 44 -28.5 70t-75.5 26q-28 0 -51.5 -8.5
t-42.5 -25.5t-30.5 -31t-27.5 -36zM12 0l809 1331h60l-803 -1331h-66zM49 1231l164 115h59v-588h-75v495h-4l-111 -73z" />
    <glyph glyph-name="threequarters" unicode="&#xbe;" horiz-adv-x="1081" 
d="M893 113h-299v55l307 420h62v-416h67v-59h-67v-115h-70v115zM270 731q-123 0 -200 60l34 57q77 -53 164 -53q64 0 102 28t38 82q0 55 -39 85t-105 30h-65v57h65q60 0 93.5 29.5t33.5 77.5q0 44 -28 68t-82 24q-77 0 -152 -62l-35 54q86 71 189 71q82 0 132 -35t50 -114
q0 -90 -88 -133v-4q108 -42 108 -152q-1 -39 -14.5 -70t-34.5 -49.5t-50.5 -30t-57 -16t-58.5 -4.5zM250 0h-68l811 1331h60zM668 176v-4h225v309h-4z" />
    <glyph glyph-name="questiondown" unicode="&#xbf;" horiz-adv-x="948" 
d="M469 -520q-184 0 -290.5 91.5t-106.5 248.5q0 65 17.5 119.5t51 97t65 73t76 69t68.5 63.5q121 129 121 284h133q2 -88 -30.5 -172t-120.5 -186q-18 -22 -54 -53t-66 -58.5t-60.5 -62.5t-48 -79t-17.5 -93q0 -110 79 -173t191 -63q79 0 154.5 23.5t169.5 77.5l55 -97
q-95 -52 -182.5 -81t-204.5 -29zM528 752q-37 0 -64.5 28.5t-27.5 67.5q0 38 27.5 66t64.5 28q40 0 68.5 -28t28.5 -66q0 -40 -28.5 -68t-68.5 -28z" />
    <glyph glyph-name="Agrave" unicode="&#xc0;" horiz-adv-x="1308" 
d="M78 0l545 1442h71l537 -1442h-141l-127 346h-631l-127 -346h-127zM649 1186l-278 -733h555l-271 733h-6zM573 1536l-211 272h148l164 -272h-101z" />
    <glyph glyph-name="Aacute" unicode="&#xc1;" horiz-adv-x="1308" 
d="M205 0h-127l545 1442h71l537 -1442h-141l-127 346h-631zM649 1186l-278 -733h555l-271 733h-6zM713 1536h-101l162 272h148z" />
    <glyph glyph-name="Acircumflex" unicode="&#xc2;" horiz-adv-x="1308" 
d="M205 0h-127l545 1442h71l537 -1442h-141l-127 346h-631zM649 1186l-278 -733h555l-271 733h-6zM369 1536l229 258h113l229 -258h-109l-172 168h-8l-174 -168h-108z" />
    <glyph glyph-name="Atilde" unicode="&#xc3;" horiz-adv-x="1308" 
d="M78 0l545 1442h71l537 -1442h-141l-127 346h-631l-127 -346h-127zM649 1186l-278 -733h555l-271 733h-6zM434 1565h-84q12 72 56 122t126 50q45 0 81 -17.5t55 -38t45.5 -38t56.5 -17.5q48 0 72.5 27.5t29.5 68.5h84q-7 -72 -53.5 -123t-128.5 -51q-45 0 -81.5 16.5
t-56.5 37t-47 37t-57 16.5q-47 0 -67.5 -24.5t-30.5 -65.5z" />
    <glyph glyph-name="Adieresis" unicode="&#xc4;" horiz-adv-x="1308" 
d="M205 0h-127l545 1442h71l537 -1442h-141l-127 346h-631zM649 1186l-278 -733h555l-271 733h-6zM762 1671q0 38 28 65t66 27q37 0 64.5 -27t27.5 -65t-27.5 -66t-64.5 -28q-38 0 -66 28t-28 66zM455 1577q-38 0 -66.5 28t-28.5 66t28 65t67 27q37 0 64.5 -27t27.5 -65
t-27.5 -66t-64.5 -28z" />
    <glyph glyph-name="Aring" unicode="&#xc5;" horiz-adv-x="1308" 
d="M78 0l545 1442h71l537 -1442h-141l-127 346h-631l-127 -346h-127zM649 1186l-278 -733h555l-271 733h-6zM436 1679q0 102 64 158.5t153 56.5q90 0 154.5 -56.5t64.5 -158.5q0 -101 -64.5 -157t-154.5 -56q-91 0 -154 55.5t-63 157.5zM653 1825q-62 0 -99.5 -41
t-37.5 -105t37.5 -103.5t99.5 -39.5t102 40t40 103t-40.5 104.5t-101.5 41.5z" />
    <glyph glyph-name="AE" unicode="&#xc6;" horiz-adv-x="1943" 
d="M78 0l848 1434h870v-115h-666v-528h605v-109h-605v-567h666v-115h-801v346h-577l-205 -346h-135zM991 1319l-514 -866h518v866h-4z" />
    <glyph glyph-name="Ccedilla" unicode="&#xc7;" horiz-adv-x="1343" 
d="M717 -14q-260 29 -420 234.5t-160 514.5q1 163 51 297t138.5 224t209.5 139t263 49q248 0 430 -96l-53 -107q-169 82 -373 82q-227 0 -373.5 -165t-146.5 -423q0 -277 149.5 -457t374.5 -180q224 0 381 92l49 -100q-206 -110 -438 -110q-13 0 -17 2l-16 -54v-10
q48 2 94.5 -27.5t46.5 -85.5q0 -66 -51.5 -99.5t-132.5 -33.5q-60 0 -109 19v65q58 -20 101 -20q47 0 77.5 16t30.5 45q0 18 -12 30.5t-31.5 18.5t-37 8.5t-35.5 2.5l-23 24z" />
    <glyph glyph-name="Egrave" unicode="&#xc8;" horiz-adv-x="1126" 
d="M180 0v1434h801v-115h-668v-528h607v-109h-607v-567h668v-115h-801zM530 1536l-208 272h147l164 -272h-103z" />
    <glyph glyph-name="Eacute" unicode="&#xc9;" horiz-adv-x="1126" 
d="M180 0v1434h801v-115h-668v-528h607v-109h-607v-567h668v-115h-801zM621 1536h-101l164 272h145z" />
    <glyph glyph-name="Ecircumflex" unicode="&#xca;" horiz-adv-x="1126" 
d="M180 0v1434h801v-115h-668v-528h607v-109h-607v-567h668v-115h-801zM401 1536h-108l229 258h115l227 -258h-108l-172 168h-9z" />
    <glyph glyph-name="Edieresis" unicode="&#xcb;" horiz-adv-x="1126" 
d="M180 0v1434h801v-115h-668v-528h607v-109h-607v-567h668v-115h-801zM784 1577q-38 0 -66 28t-28 66t28 65t66 27t65.5 -27t27.5 -65t-27.5 -66t-65.5 -28zM383 1577q-38 0 -66 28t-28 66t28 65t66 27q37 0 64.5 -27t27.5 -65t-27.5 -66t-64.5 -28z" />
    <glyph glyph-name="Igrave" unicode="&#xcc;" horiz-adv-x="493" 
d="M180 0v1434h133v-1434h-133zM-18 1808h147l164 -272h-103z" />
    <glyph glyph-name="Iacute" unicode="&#xcd;" horiz-adv-x="493" 
d="M180 0v1434h133v-1434h-133zM330 1808h145l-209 -272h-100z" />
    <glyph glyph-name="Icircumflex" unicode="&#xce;" horiz-adv-x="493" 
d="M180 0v1434h133v-1434h-133zM-39 1536l229 258h113l229 -258h-108l-174 168h-8l-174 -168h-107z" />
    <glyph glyph-name="Idieresis" unicode="&#xcf;" horiz-adv-x="493" 
d="M180 1434h133v-1434h-133v1434zM449 1577q-38 0 -66.5 28t-28.5 66t28 65t67 27q37 0 64.5 -27t27.5 -65t-27.5 -66t-64.5 -28zM-47 1671q0 38 27 65t67 27q37 0 64.5 -27t27.5 -65t-27.5 -66t-64.5 -28q-39 0 -66.5 27.5t-27.5 66.5z" />
    <glyph glyph-name="Eth" unicode="&#xd0;" horiz-adv-x="1392" 
d="M78 778h102v649q224 17 414 17q305 0 482 -188t179 -498q1 -162 -43 -302t-126 -245t-208.5 -165t-283.5 -60q-274 0 -414 14v700h-102v78zM313 778h340v-78h-340v-591q125 -13 287 -13q95 0 177.5 35t143 97t104 145.5t65 181.5t20.5 203q-1 164 -60 293t-175.5 204.5
t-274.5 75.5q-165 0 -287 -12v-541z" />
    <glyph glyph-name="Ntilde" unicode="&#xd1;" horiz-adv-x="1341" 
d="M180 0v1434h127l721 -1196h6v1196h129v-1434h-129l-721 1180h-6v-1180h-127zM399 1565q12 72 56.5 122t124.5 50q46 0 82 -17.5t55 -38t45.5 -38t56.5 -17.5q87 0 103 96h84q-7 -71 -54 -122.5t-129 -51.5q-37 0 -67.5 11t-50.5 27t-38 31.5t-40 26.5t-47 11
q-46 0 -67 -24.5t-30 -65.5h-84z" />
    <glyph glyph-name="Ograve" unicode="&#xd2;" horiz-adv-x="1501" 
d="M752 -20q-190 0 -330 94.5t-211.5 260t-71.5 382.5t71.5 382.5t211.5 260t330 94.5q189 0 328.5 -94.5t211.5 -260.5t72 -382t-72 -382t-211.5 -260.5t-328.5 -94.5zM283 717q0 -180 54 -318.5t161.5 -218.5t253.5 -80q219 0 343 171t124 446q0 181 -53.5 319
t-160.5 217.5t-253 79.5t-253.5 -79t-161.5 -217.5t-54 -319.5zM678 1536l-211 272h147l164 -272h-100z" />
    <glyph glyph-name="Oacute" unicode="&#xd3;" horiz-adv-x="1501" 
d="M139 717q0 217 71.5 382.5t211.5 260t330 94.5q189 0 328.5 -94.5t211.5 -260.5t72 -382t-72 -382t-211.5 -260.5t-328.5 -94.5q-190 0 -330 94.5t-211.5 260t-71.5 382.5zM752 1333q-146 0 -253.5 -79t-161.5 -217.5t-54 -319.5q0 -180 54 -318.5t161.5 -218.5
t253.5 -80q219 0 343 171t124 446q0 181 -53.5 319t-160.5 217.5t-253 79.5zM696 1536l164 272h148l-211 -272h-101z" />
    <glyph glyph-name="Ocircumflex" unicode="&#xd4;" horiz-adv-x="1501" 
d="M752 -20q-190 0 -330 94.5t-211.5 260t-71.5 382.5t71.5 382.5t211.5 260t330 94.5q189 0 328.5 -94.5t211.5 -260.5t72 -382t-72 -382t-211.5 -260.5t-328.5 -94.5zM283 717q0 -180 54 -318.5t161.5 -218.5t253.5 -80q219 0 343 171t124 446q0 181 -53.5 319
t-160.5 217.5t-253 79.5t-253.5 -79t-161.5 -217.5t-54 -319.5zM573 1536h-108l229 258h115l227 -258h-106l-174 168h-8z" />
    <glyph glyph-name="Otilde" unicode="&#xd5;" horiz-adv-x="1501" 
d="M139 717q0 217 71.5 382.5t211.5 260t330 94.5q189 0 328.5 -94.5t211.5 -260.5t72 -382t-72 -382t-211.5 -260.5t-328.5 -94.5q-190 0 -330 94.5t-211.5 260t-71.5 382.5zM752 1333q-146 0 -253.5 -79t-161.5 -217.5t-54 -319.5q0 -180 54 -318.5t161.5 -218.5
t253.5 -80q219 0 343 171t124 446q0 181 -53.5 319t-160.5 217.5t-253 79.5zM469 1565q12 72 56 122t124 50q45 0 81.5 -17.5t55.5 -38t46 -38t57 -17.5q86 0 102 96h84q-8 -72 -54 -123t-128 -51q-38 0 -69 11t-51 27t-38 31.5t-39.5 26.5t-46.5 11q-47 0 -67.5 -25
t-28.5 -65h-84z" />
    <glyph glyph-name="Odieresis" unicode="&#xd6;" horiz-adv-x="1501" 
d="M752 -20q-190 0 -330 94.5t-211.5 260t-71.5 382.5t71.5 382.5t211.5 260t330 94.5q189 0 328.5 -94.5t211.5 -260.5t72 -382t-72 -382t-211.5 -260.5t-328.5 -94.5zM283 717q0 -180 54 -318.5t161.5 -218.5t253.5 -80q219 0 343 171t124 446q0 181 -53.5 319
t-160.5 217.5t-253 79.5t-253.5 -79t-161.5 -217.5t-54 -319.5zM858 1671q0 38 28 65t66 27t65 -27t27 -65t-27 -66t-65 -28t-66 28t-28 66zM457 1671q0 38 28 65t66 27q37 0 64.5 -27t27.5 -65t-27.5 -66t-64.5 -28q-38 0 -66 28t-28 66z" />
    <glyph glyph-name="multiply" unicode="&#xd7;" horiz-adv-x="1116" 
d="M203 891l73 74l283 -283l283 283l73 -76l-280 -281l280 -280l-75 -74l-281 281l-280 -283l-74 74l280 282z" />
    <glyph glyph-name="Oslash" unicode="&#xd8;" horiz-adv-x="1501" 
d="M381 104q-118 96 -180 254.5t-62 358.5q0 217 71.5 382.5t211.5 260t330 94.5q192 0 335 -98l72 129h76l-96 -170q109 -98 167 -252t58 -346q0 -216 -72 -382t-211.5 -260.5t-328.5 -94.5q-180 0 -318 86l-67 -117h-74zM283 717q0 -157 42 -285t121 -209l576 1018
q-112 92 -270 92q-146 0 -253.5 -79t-161.5 -217.5t-54 -319.5zM498 180q110 -80 254 -80q219 0 343 171t124 446q0 306 -148 477z" />
    <glyph glyph-name="Ugrave" unicode="&#xd9;" horiz-adv-x="1261" 
d="M139 635v799h133v-820q0 -139 24.5 -240t72.5 -162t112.5 -89.5t149.5 -28.5q183 -2 273.5 119t90.5 401v820h127v-799q0 -161 -25.5 -278.5t-82.5 -203t-152.5 -127.5t-230.5 -42q-265 0 -378.5 161.5t-113.5 489.5zM573 1536l-208 272h147l164 -272h-103z" />
    <glyph glyph-name="Uacute" unicode="&#xda;" horiz-adv-x="1261" 
d="M139 1434h133v-820q0 -139 24.5 -240t72.5 -162t112.5 -89.5t149.5 -28.5q183 -2 273.5 119t90.5 401v820h127v-799q0 -161 -25.5 -278.5t-82.5 -203t-152.5 -127.5t-230.5 -42q-265 0 -378.5 161.5t-113.5 489.5v799zM672 1536h-101l162 272h148z" />
    <glyph glyph-name="Ucircumflex" unicode="&#xdb;" horiz-adv-x="1261" 
d="M139 1434h133v-820q0 -139 24.5 -240t72.5 -162t112.5 -89.5t149.5 -28.5q183 -2 273.5 119t90.5 401v820h127v-799q0 -161 -25.5 -278.5t-82.5 -203t-152.5 -127.5t-230.5 -42q-265 0 -378.5 161.5t-113.5 489.5v799zM453 1536h-109l229 258h115l230 -258h-109l-174 168
h-8z" />
    <glyph glyph-name="Udieresis" unicode="&#xdc;" horiz-adv-x="1261" 
d="M139 1434h133v-820q0 -139 24.5 -240t72.5 -162t112.5 -89.5t149.5 -28.5q183 -2 273.5 119t90.5 401v820h127v-799q0 -161 -25.5 -278.5t-82.5 -203t-152.5 -127.5t-230.5 -42q-265 0 -378.5 161.5t-113.5 489.5v799zM737 1671q0 38 28 65t66 27t65.5 -27t27.5 -65
t-27.5 -66t-65.5 -28t-66 28t-28 66zM430 1577q-38 0 -66 28t-28 66t28 65t66 27t65 -27t27 -65t-27 -66t-65 -28z" />
    <glyph glyph-name="Yacute" unicode="&#xdd;" horiz-adv-x="1261" 
d="M92 1434h148l389 -623h6l403 625l131 -2l-473 -734v-700h-139v692zM731 1808h148l-209 -272h-103z" />
    <glyph glyph-name="Thorn" unicode="&#xde;" horiz-adv-x="1134" 
d="M180 1434h133v-299q129 12 232 12q221 0 353 -103.5t132 -298.5q0 -112 -37 -195t-105 -132.5t-153.5 -74.5t-191.5 -28q-89 -4 -230 21v-336h-133v1434zM313 1022v-576q110 -20 222 -20q182 0 268 84t84 235q0 129 -83.5 209t-260.5 80q-104 0 -230 -12z" />
    <glyph glyph-name="germandbls" unicode="&#xdf;" horiz-adv-x="1263" 
d="M199 0v1001q0 253 113.5 392t320.5 139q89 0 161 -28t116.5 -74t73 -104.5t35 -119t-2.5 -118t-35 -101.5q-14 -6 -46 -18t-55 -21t-52 -26t-48 -36.5t-32 -49.5t-13 -66t22.5 -66t59 -52.5t80 -46t87 -52t80 -63.5t59 -88.5t22.5 -118.5q0 -126 -106 -210.5t-253 -84.5
q-105 0 -196.5 24t-143.5 58l54 92q45 -32 124 -55t156 -23q103 0 170.5 61t67.5 134q0 51 -22.5 92t-59 68.5t-80.5 52.5l-88 50t-80.5 54.5t-59 73t-22.5 98.5q0 38 12.5 73t29.5 59.5t46 48t50 36.5t55 28.5t47 20l39 13.5q17 47 18 99.5t-15.5 103t-47.5 91.5t-85 66
t-122 25q-83 0 -144.5 -36t-97 -100.5t-52.5 -144.5t-17 -176v-975h-123z" />
    <glyph glyph-name="agrave" unicode="&#xe0;" horiz-adv-x="974" 
d="M92 248q0 105 54 180t137.5 109t185.5 34q106 0 231 -41q0 57 -5.5 100t-21.5 83.5t-42.5 66t-70.5 41t-103 15.5q-133 0 -256 -86l-47 86q75 47 149 74.5t170 27.5q184 0 268 -94.5t84 -280.5v-389q0 -109 41 -174h-129q-25 49 -28 106h-7q-130 -124 -296 -124
q-146 0 -230 74.5t-84 191.5zM485 481q-112 0 -190 -58t-78 -161q0 -87 56.5 -135.5t152.5 -48.5q78 0 155 45.5t121 101.5v205q-34 19 -97 35t-120 16zM471 1096l-256 311h156l186 -311h-86z" />
    <glyph glyph-name="aacute" unicode="&#xe1;" horiz-adv-x="974" 
d="M92 248q0 105 54 180t137.5 109t185.5 34q106 0 231 -41q0 57 -5.5 100t-21.5 83.5t-42.5 66t-70.5 41t-103 15.5q-133 0 -256 -86l-47 86q75 47 149 74.5t170 27.5q184 0 268 -94.5t84 -280.5v-389q0 -109 41 -174h-129q-25 49 -28 106h-7q-130 -124 -296 -124
q-146 0 -230 74.5t-84 191.5zM485 481q-112 0 -190 -58t-78 -161q0 -87 56.5 -135.5t152.5 -48.5q78 0 155 45.5t121 101.5v205q-34 19 -97 35t-120 16zM489 1096h-86l185 311h157z" />
    <glyph glyph-name="acircumflex" unicode="&#xe2;" horiz-adv-x="974" 
d="M92 248q0 105 54 180t137.5 109t185.5 34q106 0 231 -41q0 57 -5.5 100t-21.5 83.5t-42.5 66t-70.5 41t-103 15.5q-133 0 -256 -86l-47 86q75 47 149 74.5t170 27.5q184 0 268 -94.5t84 -280.5v-389q0 -109 41 -174h-129q-25 49 -28 106h-7q-130 -124 -296 -124
q-146 0 -230 74.5t-84 191.5zM485 481q-112 0 -190 -58t-78 -161q0 -87 56.5 -135.5t152.5 -48.5q78 0 155 45.5t121 101.5v205q-34 19 -97 35t-120 16zM272 1092h-92l230 309h122l230 -309h-92l-195 219h-6z" />
    <glyph glyph-name="atilde" unicode="&#xe3;" horiz-adv-x="974" 
d="M92 248q0 105 54 180t137.5 109t185.5 34q106 0 231 -41q0 57 -5.5 100t-21.5 83.5t-42.5 66t-70.5 41t-103 15.5q-133 0 -256 -86l-47 86q75 47 149 74.5t170 27.5q184 0 268 -94.5t84 -280.5v-389q0 -109 41 -174h-129q-25 49 -28 106h-7q-130 -124 -296 -124
q-146 0 -230 74.5t-84 191.5zM485 481q-112 0 -190 -58t-78 -161q0 -87 56.5 -135.5t152.5 -48.5q78 0 155 45.5t121 101.5v205q-34 19 -97 35t-120 16zM252 1143h-80q7 34 19 63t32 57t53.5 44t75.5 16q37 0 66.5 -12.5t49 -29.5t37 -34.5t39 -30t46.5 -12.5q47 0 71.5 32
t32.5 75h82q-11 -73 -57.5 -129t-126.5 -56q-45 0 -80.5 18.5t-55 41t-47 41t-57.5 18.5q-25 0 -43.5 -9.5t-29.5 -26t-16.5 -31.5t-10.5 -35z" />
    <glyph glyph-name="adieresis" unicode="&#xe4;" horiz-adv-x="974" 
d="M92 248q0 105 54 180t137.5 109t185.5 34q106 0 231 -41q0 57 -5.5 100t-21.5 83.5t-42.5 66t-70.5 41t-103 15.5q-133 0 -256 -86l-47 86q75 47 149 74.5t170 27.5q184 0 268 -94.5t84 -280.5v-389q0 -109 41 -174h-129q-25 49 -28 106h-7q-130 -124 -296 -124
q-146 0 -230 74.5t-84 191.5zM485 481q-112 0 -190 -58t-78 -161q0 -87 56.5 -135.5t152.5 -48.5q78 0 155 45.5t121 101.5v205q-34 19 -97 35t-120 16zM643 1133q-38 0 -65 27.5t-27 64.5q0 38 27 65t65 27q37 0 63.5 -27t26.5 -65q0 -37 -26.5 -64.5t-63.5 -27.5z
M315 1133q-38 0 -65 27.5t-27 64.5q0 38 27 65t65 27q37 0 64 -27t27 -65q0 -37 -27 -64.5t-64 -27.5z" />
    <glyph glyph-name="aring" unicode="&#xe5;" horiz-adv-x="974" 
d="M92 248q0 105 54 180t137.5 109t185.5 34q106 0 231 -41q0 57 -5.5 100t-21.5 83.5t-42.5 66t-70.5 41t-103 15.5q-133 0 -256 -86l-47 86q75 47 149 74.5t170 27.5q184 0 268 -94.5t84 -280.5v-389q0 -109 41 -174h-129q-25 49 -28 106h-7q-130 -124 -296 -124
q-146 0 -230 74.5t-84 191.5zM485 481q-112 0 -190 -58t-78 -161q0 -87 56.5 -135.5t152.5 -48.5q78 0 155 45.5t121 101.5v205q-34 19 -97 35t-120 16zM477 965q-88 0 -148.5 53.5t-60.5 152.5t61.5 153t147.5 54t148.5 -54.5t62.5 -152.5q0 -99 -61.5 -152.5t-149.5 -53.5
zM344 1171q0 -62 36.5 -100.5t96.5 -38.5t97.5 38.5t37.5 100.5q0 61 -38 100.5t-97 39.5t-96 -39.5t-37 -100.5z" />
    <glyph glyph-name="ae" unicode="&#xe6;" horiz-adv-x="1548" 
d="M92 248q0 105 54 179.5t137.5 108t185.5 33.5h188v6q-3 131 -52 196t-163 65q-133 0 -256 -86l-47 86q49 30 87.5 48.5t102 36t128.5 17.5q235 0 293 -176q51 87 130 130.5t173 43.5q181 0 280.5 -124.5t87.5 -334.5h-637q2 -177 80.5 -284t216.5 -107q75 0 144 20
t110 48l41 -86q-132 -82 -305 -82q-215 0 -328 172h-6q-57 -70 -142.5 -123t-188.5 -53q-146 0 -230 74.5t-84 191.5zM217 262q0 -87 56.5 -135.5t152.5 -48.5q80 0 159.5 47.5t121.5 105.5q-41 97 -41 248h-181q-113 0 -190.5 -56.5t-77.5 -160.5zM1053 838
q-111 0 -182.5 -73.5t-86.5 -193.5h521q-1 124 -69.5 194.5t-182.5 72.5z" />
    <glyph glyph-name="ccedilla" unicode="&#xe7;" horiz-adv-x="931" 
d="M111 461q0 99 28 185t81 151.5t135.5 103t185.5 37.5q170 0 284 -72l-43 -88q-82 60 -227 60q-103 0 -176 -53t-106 -136t-33 -186q0 -163 88 -269t229 -106q74 0 142.5 20t109.5 50l45 -88q-135 -84 -309 -84l-17 -58v-10q28 1 59 -9.5t56 -38t25 -65.5q0 -66 -51 -99.5
t-134 -33.5q-57 0 -106 19v65q54 -20 98 -20q47 0 78 16t31 45q0 18 -12.5 30.5t-32 18.5t-36.5 8.5t-34 2.5l-25 24l35 109q-161 21 -264.5 143.5t-103.5 327.5z" />
    <glyph glyph-name="egrave" unicode="&#xe8;" horiz-adv-x="1054" 
d="M561 -14q-88 0 -166 32t-137.5 91t-94 150t-34.5 202q0 114 34 205.5t92.5 149.5t134.5 89t163 31q179 0 280 -131t89 -342h-670q1 -172 89 -274.5t230 -102.5q76 0 150 20t115 48l41 -86q-132 -82 -316 -82zM260 559h545q-1 124 -71 200.5t-183 78.5q-123 0 -200 -79
t-91 -200zM530 1096l-256 311h156l186 -311h-86z" />
    <glyph glyph-name="eacute" unicode="&#xe9;" horiz-adv-x="1054" 
d="M561 -14q-88 0 -166 32t-137.5 91t-94 150t-34.5 202q0 114 34 205.5t92.5 149.5t134.5 89t163 31q179 0 280 -131t89 -342h-670q1 -172 89 -274.5t230 -102.5q76 0 150 20t115 48l41 -86q-132 -82 -316 -82zM260 559h545q-1 124 -71 200.5t-183 78.5q-123 0 -200 -79
t-91 -200zM481 1096l185 311h157l-256 -311h-86z" />
    <glyph glyph-name="ecircumflex" unicode="&#xea;" horiz-adv-x="1048" 
d="M129 461q0 114 34 205.5t92.5 149.5t134.5 89t163 31q179 0 280 -131t89 -342h-670q1 -172 89 -274.5t230 -102.5q76 0 150 20t115 48l41 -86q-132 -82 -316 -82q-88 0 -166 32t-137.5 91t-94 150t-34.5 202zM260 559h545q-1 124 -71 200.5t-183 78.5q-123 0 -200 -79
t-91 -200zM233 1092l230 309h123l229 -309h-92l-195 219h-6l-196 -219h-93z" />
    <glyph glyph-name="edieresis" unicode="&#xeb;" horiz-adv-x="1048" 
d="M129 461q0 114 34 205.5t92.5 149.5t134.5 89t163 31q179 0 280 -131t89 -342h-670q1 -172 89 -274.5t230 -102.5q76 0 150 20t115 48l41 -86q-132 -82 -316 -82q-88 0 -166 32t-137.5 91t-94 150t-34.5 202zM260 559h545q-1 124 -71 200.5t-183 78.5q-123 0 -200 -79
t-91 -200zM690 1133q-38 0 -65 27.5t-27 64.5q0 38 27 65t65 27q37 0 63.5 -27t26.5 -65q0 -37 -26.5 -64.5t-63.5 -27.5zM362 1133q-37 0 -64.5 27.5t-27.5 64.5q0 38 27.5 65t64.5 27t64 -27t27 -65q0 -37 -27 -64.5t-64 -27.5z" />
    <glyph glyph-name="igrave" unicode="&#xec;" horiz-adv-x="466" 
d="M174 0v922h123v-922h-123zM-51 1407h157l187 -311h-86z" />
    <glyph glyph-name="iacute" unicode="&#xed;" horiz-adv-x="466" 
d="M174 0v922h123v-922h-123zM334 1407h158l-256 -311h-86z" />
    <glyph glyph-name="icircumflex" unicode="&#xee;" horiz-adv-x="466" 
d="M297 0h-123v922h123v-922zM35 1092h-92l229 309h123l229 -309h-92l-194 219h-7z" />
    <glyph glyph-name="idieresis" unicode="&#xef;" horiz-adv-x="466" 
d="M174 922h123v-922h-123v922zM397 1133q-37 0 -64.5 27.5t-27.5 64.5q0 38 27.5 65t64.5 27t64.5 -27t27.5 -65q0 -37 -27.5 -64.5t-64.5 -27.5zM-20 1225q0 38 27 65t65 27q37 0 63.5 -27t26.5 -65q0 -37 -26.5 -64.5t-63.5 -27.5q-38 0 -65 27.5t-27 64.5z" />
    <glyph glyph-name="eth" unicode="&#xf0;" horiz-adv-x="1204" 
d="M602 -16q-225 0 -360.5 134.5t-135.5 334.5q0 122 55.5 223.5t164 164t249.5 62.5q64 0 122.5 -15.5t97.5 -36t73.5 -49t51.5 -47.5t30 -38h6q-22 254 -161 399l-164 -102l-31 47l152 92q-102 82 -244 82q-62 0 -111 -12l-30 104q66 16 143 16q210 0 352 -122l168 104
l31 -45l-158 -96q195 -208 195 -619q0 -268 -130.5 -424.5t-365.5 -156.5zM584 807q-151 0 -246.5 -96.5t-95.5 -266.5q0 -84 31.5 -154t83 -114t115 -68t130.5 -24t127 25t108 73.5t76.5 128.5t28.5 181q0 100 -53.5 173.5t-133.5 107.5t-171 34z" />
    <glyph glyph-name="ntilde" unicode="&#xf1;" horiz-adv-x="1040" 
d="M150 0v922h106l10 -177h6q37 81 111.5 139t177.5 58q183 0 267.5 -112t84.5 -343v-487h-122v449q0 93 -11 159.5t-38 120t-77 80.5t-124 27q-98 0 -168.5 -85t-100.5 -216v-535h-122zM219 1124q15 76 57 129.5t121 53.5q37 0 67 -12.5t49.5 -30.5t37.5 -35.5t39.5 -30
t46.5 -12.5q47 0 72 32t32 76h80q-9 -73 -55 -128.5t-127 -55.5q-45 0 -80.5 18.5t-55 40t-47.5 40t-59 18.5q-75 0 -98 -103h-80z" />
    <glyph glyph-name="ograve" unicode="&#xf2;" horiz-adv-x="1056" 
d="M528 -16q-180 0 -300 126t-119 351q0 225 120 351t299 126q181 0 301.5 -126t120.5 -351t-120.5 -351t-301.5 -126zM236 461q0 -163 77.5 -267t214.5 -104q138 0 215.5 103.5t77.5 267.5t-77.5 268.5t-215.5 104.5q-137 0 -214.5 -104.5t-77.5 -268.5zM510 1096l-256 311
h156l186 -311h-86z" />
    <glyph glyph-name="oacute" unicode="&#xf3;" horiz-adv-x="1056" 
d="M528 -16q-180 0 -300 126t-119 351q0 225 120 351t299 126q181 0 301.5 -126t120.5 -351t-120.5 -351t-301.5 -126zM528 834q-137 0 -214.5 -104.5t-77.5 -268.5q0 -163 77.5 -267t214.5 -104q138 0 215.5 103.5t77.5 267.5t-77.5 268.5t-215.5 104.5zM455 1096l186 311
h156l-256 -311h-86z" />
    <glyph glyph-name="ocircumflex" unicode="&#xf4;" horiz-adv-x="1056" 
d="M528 -16q-180 0 -300 126t-119 351q0 225 120 351t299 126q181 0 301.5 -126t120.5 -351t-120.5 -351t-301.5 -126zM236 461q0 -163 77.5 -267t214.5 -104q138 0 215.5 103.5t77.5 267.5t-77.5 268.5t-215.5 104.5q-137 0 -214.5 -104.5t-77.5 -268.5zM330 1092h-92
l229 309h123l229 -309h-90l-197 219h-6z" />
    <glyph glyph-name="otilde" unicode="&#xf5;" horiz-adv-x="1056" 
d="M528 -16q-180 0 -300 126t-119 351q0 225 120 351t299 126q181 0 301.5 -126t120.5 -351t-120.5 -351t-301.5 -126zM528 834q-137 0 -214.5 -104.5t-77.5 -268.5q0 -163 77.5 -267t214.5 -104q138 0 215.5 103.5t77.5 267.5t-77.5 268.5t-215.5 104.5zM307 1124h-80
q15 76 57.5 129.5t121.5 53.5q45 0 81 -19t55 -41.5t46 -41.5t57 -19q47 0 72.5 32t32.5 76h79q-9 -73 -55 -128.5t-127 -55.5q-45 0 -80.5 18.5t-54.5 40t-47 40t-59 18.5q-76 0 -99 -103z" />
    <glyph glyph-name="odieresis" unicode="&#xf6;" horiz-adv-x="1056" 
d="M528 -16q-180 0 -300 126t-119 351q0 225 120 351t299 126q181 0 301.5 -126t120.5 -351t-120.5 -351t-301.5 -126zM236 461q0 -163 77.5 -267t214.5 -104q138 0 215.5 103.5t77.5 267.5t-77.5 268.5t-215.5 104.5q-137 0 -214.5 -104.5t-77.5 -268.5zM602 1225
q0 38 27 65t65 27q37 0 63.5 -27t26.5 -65q0 -37 -26.5 -64.5t-63.5 -27.5q-38 0 -65 27.5t-27 64.5zM274 1225q0 38 27.5 65t65.5 27q37 0 63.5 -27t26.5 -65q0 -37 -26.5 -64.5t-63.5 -27.5q-38 0 -65.5 27.5t-27.5 64.5z" />
    <glyph glyph-name="divide" unicode="&#xf7;" horiz-adv-x="1089" 
d="M115 532h862v-79h-862v79zM455 90q0 38 27 65t65 27q37 0 63.5 -27t26.5 -65q0 -37 -26.5 -64.5t-63.5 -27.5q-38 0 -65 27.5t-27 64.5zM547 764q-38 0 -65 26.5t-27 63.5q0 38 27 66t65 28q37 0 63.5 -28t26.5 -66q0 -37 -26.5 -63.5t-63.5 -26.5z" />
    <glyph glyph-name="oslash" unicode="&#xf8;" horiz-adv-x="1056" 
d="M289 57q-85 59 -133 161.5t-47 242.5q0 225 120 351t299 126q128 0 222 -61l57 102l51 -29l-61 -106q153 -133 153 -383q0 -225 -120.5 -351t-301.5 -126q-102 0 -190 45l-53 -92l-49 24zM346 158l350 620q-72 56 -168 56q-137 0 -214.5 -104.5t-77.5 -268.5
q0 -202 110 -303zM391 125q59 -35 137 -35q138 0 215.5 103.5t77.5 267.5q0 172 -84 276z" />
    <glyph glyph-name="ugrave" unicode="&#xf9;" horiz-adv-x="1040" 
d="M129 475v447h123v-447q0 -75 6.5 -131.5t23.5 -106.5t45 -82.5t72 -50.5t103 -18q98 0 167.5 84.5t100.5 216.5v535h123v-922h-107l-12 176h-6q-37 -82 -110.5 -139t-176.5 -57q-184 0 -268 119t-84 376zM481 1096l-256 311h156l186 -311h-86z" />
    <glyph glyph-name="uacute" unicode="&#xfa;" horiz-adv-x="1040" 
d="M129 922h123v-447q0 -75 6.5 -131.5t23.5 -106.5t45 -82.5t72 -50.5t103 -18q98 0 167.5 84.5t100.5 216.5v535h123v-922h-107l-12 176h-6q-37 -82 -110.5 -139t-176.5 -57q-184 0 -268 119t-84 376v447zM436 1096l187 311h155l-256 -311h-86z" />
    <glyph glyph-name="ucircumflex" unicode="&#xfb;" horiz-adv-x="1040" 
d="M129 475v447h123v-447q0 -75 6.5 -131.5t23.5 -106.5t45 -82.5t72 -50.5t103 -18q98 0 167.5 84.5t100.5 216.5v535h123v-922h-107l-12 176h-6q-37 -82 -110.5 -139t-176.5 -57q-184 0 -268 119t-84 376zM229 1092l230 309h123l229 -309h-90l-197 219h-6l-196 -219h-93z
" />
    <glyph glyph-name="udieresis" unicode="&#xfc;" horiz-adv-x="1040" 
d="M481 -20q-184 0 -268 119t-84 376v447h123v-447q0 -75 6.5 -131.5t23.5 -106.5t45 -82.5t72 -50.5t103 -18q98 0 167.5 84.5t100.5 216.5v535h123v-922h-107l-12 176h-6q-37 -82 -110.5 -139t-176.5 -57zM262 1225q0 38 27 65t65 27q37 0 63.5 -27t26.5 -65
q0 -37 -26.5 -64.5t-63.5 -27.5q-38 0 -65 27.5t-27 64.5zM590 1225q0 38 27 65t65 27q37 0 63.5 -27t26.5 -65q0 -37 -26.5 -64.5t-63.5 -27.5q-38 0 -65 27.5t-27 64.5z" />
    <glyph glyph-name="yacute" unicode="&#xfd;" horiz-adv-x="917" 
d="M27 -512v104h43q142 0 244.5 111t150.5 291l-428 928h137l346 -764h6l238 764h117l-279 -883q-86 -271 -213 -411t-319 -140h-43zM506 1096h-86l186 311h158z" />
    <glyph glyph-name="thorn" unicode="&#xfe;" horiz-adv-x="1069" 
d="M272 -512h-122v1946h122v-658h7q88 160 292 160q170 0 280 -125.5t110 -349.5q0 -112 -33 -204t-88 -150t-124 -89.5t-145 -31.5q-196 0 -292 166h-7v-664zM272 459q0 -94 34 -180t98 -140.5t141 -54.5q127 0 204.5 109t77.5 268q0 161 -74.5 267.5t-207.5 105.5
q-127 0 -200 -104t-73 -271z" />
    <glyph glyph-name="ydieresis" unicode="&#xff;" horiz-adv-x="917" 
d="M70 -512h-43v104h43q142 0 244.5 111t150.5 291l-428 928h137l346 -764h6l238 764h117l-279 -883q-86 -271 -213 -411t-319 -140zM569 1225q0 38 27.5 65t65.5 27q37 0 63.5 -27t26.5 -65q0 -37 -26.5 -64.5t-63.5 -27.5q-38 0 -65.5 27.5t-27.5 64.5zM334 1133
q-38 0 -65 27.5t-27 64.5q0 38 27 65t65 27q37 0 63.5 -27t26.5 -65q0 -37 -26.5 -64.5t-63.5 -27.5z" />
    <glyph glyph-name="Amacron" unicode="&#x100;" horiz-adv-x="1308" 
d="M78 0l545 1442h71l537 -1442h-141l-127 346h-631l-127 -346h-127zM649 1186l-278 -733h555l-271 733h-6zM291 1663h727v-66h-727v66z" />
    <glyph glyph-name="amacron" unicode="&#x101;" horiz-adv-x="974" 
d="M92 248q0 105 54 180t137.5 109t185.5 34q106 0 231 -41q0 57 -5.5 100t-21.5 83.5t-42.5 66t-70.5 41t-103 15.5q-133 0 -256 -86l-47 86q75 47 149 74.5t170 27.5q184 0 268 -94.5t84 -280.5v-389q0 -109 41 -174h-129q-25 49 -28 106h-7q-130 -124 -296 -124
q-146 0 -230 74.5t-84 191.5zM217 262q0 -87 56.5 -135.5t152.5 -48.5q78 0 155 45.5t121 101.5v205q-34 19 -97 35t-120 16q-112 0 -190 -58t-78 -161zM758 1106h-557v65h557v-65z" />
    <glyph glyph-name="Abreve" unicode="&#x102;" horiz-adv-x="1308" 
d="M205 0h-127l545 1442h71l537 -1442h-141l-127 346h-631zM649 1186l-278 -733h555l-271 733h-6zM360 1751h105q10 -79 61 -123.5t127 -44.5q77 0 129 44.5t62 123.5h104q-6 -57 -27 -102t-50.5 -72t-67.5 -45t-74.5 -24.5t-75.5 -6.5q-38 0 -74.5 6.5t-74.5 24.5t-67 45
t-50 72t-27 102z" />
    <glyph glyph-name="abreve" unicode="&#x103;" horiz-adv-x="974" 
d="M92 248q0 105 54 180t137.5 109t185.5 34q106 0 231 -41q0 57 -5.5 100t-21.5 83.5t-42.5 66t-70.5 41t-103 15.5q-133 0 -256 -86l-47 86q75 47 149 74.5t170 27.5q184 0 268 -94.5t84 -280.5v-389q0 -109 41 -174h-129q-25 49 -28 106h-7q-130 -124 -296 -124
q-146 0 -230 74.5t-84 191.5zM217 262q0 -87 56.5 -135.5t152.5 -48.5q78 0 155 45.5t121 101.5v205q-34 19 -97 35t-120 16q-112 0 -190 -58t-78 -161zM489 1069q-48 0 -92 14.5t-83 44.5t-65.5 82.5t-33.5 122.5h100q11 -84 55.5 -133t118.5 -49t119 49.5t56 132.5h98
q-13 -134 -91 -199t-182 -65z" />
    <glyph glyph-name="Aogonek" unicode="&#x104;" horiz-adv-x="1308" 
d="M78 0l545 1442h71l537 -1442h-14q-42 0 -86 -52t-44 -112q0 -39 20.5 -56.5t45.5 -17.5q31 0 53 15v-70q-30 -18 -71 -18q-59 0 -97.5 33t-38.5 98q0 50 30.5 98t74.5 82h-14l-127 346h-631l-127 -346h-127zM649 1186l-278 -733h555l-271 733h-6z" />
    <glyph glyph-name="aogonek" unicode="&#x105;" horiz-adv-x="974" 
d="M92 248q0 105 54 180t137.5 109t185.5 34q106 0 231 -41q0 57 -5.5 100t-21.5 83.5t-42.5 66t-70.5 41t-103 15.5q-133 0 -256 -86l-47 86q75 47 149 74.5t170 27.5q184 0 268 -94.5t84 -280.5v-389q0 -109 41 -174h-35q-42 0 -84 -51.5t-42 -112.5q0 -39 19 -56.5
t44 -17.5q30 0 53 15v-70q-7 -5 -29 -11.5t-42 -6.5q-59 0 -97.5 33t-38.5 98q0 54 35 104.5t84 85.5q-21 40 -24 96h-7q-130 -124 -296 -124q-146 0 -230 74.5t-84 191.5zM485 481q-112 0 -190 -58t-78 -161q0 -87 56.5 -135.5t152.5 -48.5q78 0 155 45.5t121 101.5v205
q-34 19 -97 35t-120 16z" />
    <glyph glyph-name="Cacute" unicode="&#x106;" horiz-adv-x="1343" 
d="M799 -20q-193 0 -344 95t-234.5 267.5t-83.5 392.5q1 163 51 297t138.5 224t209.5 139t263 49q248 0 430 -96l-53 -107q-169 82 -373 82q-227 0 -373.5 -165t-146.5 -423q0 -277 149.5 -457t374.5 -180q224 0 381 92l49 -100q-206 -110 -438 -110zM827 1536h-102l164 272
h147z" />
    <glyph glyph-name="cacute" unicode="&#x107;" horiz-adv-x="931" 
d="M111 461q0 99 28 185t81 151.5t135.5 103t185.5 37.5q170 0 284 -72l-43 -88q-82 60 -227 60q-103 0 -176 -53t-106 -136t-33 -186q0 -163 88 -269t229 -106q74 0 142.5 20t109.5 50l45 -88q-135 -84 -313 -84q-87 0 -164 31t-136.5 89t-94.5 149.5t-35 205.5zM553 1096
h-86l186 311h158z" />
    <glyph glyph-name="Ccircumflex" unicode="&#x108;" horiz-adv-x="1343" 
d="M799 -20q-193 0 -344 95t-234.5 267.5t-83.5 392.5q1 163 51 297t138.5 224t209.5 139t263 49q248 0 430 -96l-53 -107q-169 82 -373 82q-227 0 -373.5 -165t-146.5 -423q0 -277 149.5 -457t374.5 -180q224 0 381 92l49 -100q-206 -110 -438 -110zM502 1536l229 258h115
l229 -258h-108l-174 168h-9l-174 -168h-108z" />
    <glyph glyph-name="ccircumflex" unicode="&#x109;" horiz-adv-x="931" 
d="M111 461q0 99 28 185t81 151.5t135.5 103t185.5 37.5q170 0 284 -72l-43 -88q-82 60 -227 60q-103 0 -176 -53t-106 -136t-33 -186q0 -163 88 -269t229 -106q74 0 142.5 20t109.5 50l45 -88q-135 -84 -313 -84q-87 0 -164 31t-136.5 89t-94.5 149.5t-35 205.5zM342 1092
h-92l231 309h123l230 -309h-93l-196 219h-6z" />
    <glyph glyph-name="Cdotaccent" unicode="&#x10a;" horiz-adv-x="1343" 
d="M799 -20q-193 0 -344 95t-234.5 267.5t-83.5 392.5q1 163 51 297t138.5 224t209.5 139t263 49q248 0 430 -96l-53 -107q-169 82 -373 82q-227 0 -373.5 -165t-146.5 -423q0 -277 149.5 -457t374.5 -180q224 0 381 92l49 -100q-206 -110 -438 -110zM791 1577
q-38 0 -66.5 28t-28.5 66t28 65t67 27q38 0 65 -27t27 -65t-27 -66t-65 -28z" />
    <glyph glyph-name="cdotaccent" unicode="&#x10b;" horiz-adv-x="931" 
d="M111 461q0 99 28 185t81 151.5t135.5 103t185.5 37.5q170 0 284 -72l-43 -88q-82 60 -227 60q-103 0 -176 -53t-106 -136t-33 -186q0 -163 88 -269t229 -106q74 0 142.5 20t109.5 50l45 -88q-135 -84 -313 -84q-87 0 -164 31t-136.5 89t-94.5 149.5t-35 205.5zM449 1225
q0 38 27.5 65t64.5 27t64.5 -27t27.5 -65q0 -37 -27.5 -64.5t-64.5 -27.5t-64.5 27.5t-27.5 64.5z" />
    <glyph glyph-name="Ccaron" unicode="&#x10c;" horiz-adv-x="1343" 
d="M799 -20q-193 0 -344 95t-234.5 267.5t-83.5 392.5q1 163 51 297t138.5 224t209.5 139t263 49q248 0 430 -96l-53 -107q-169 82 -373 82q-227 0 -373.5 -165t-146.5 -423q0 -277 149.5 -457t374.5 -180q224 0 381 92l49 -100q-206 -110 -438 -110zM498 1794h108l174 -168
h8l173 168h108l-229 -258h-113z" />
    <glyph glyph-name="ccaron" unicode="&#x10d;" horiz-adv-x="931" 
d="M541 -14q-87 0 -164 31t-136.5 89t-94.5 149.5t-35 205.5q0 99 28 185t81 151.5t135.5 103t185.5 37.5q170 0 284 -72l-43 -88q-82 60 -227 60q-103 0 -176 -53t-106 -136t-33 -186q0 -163 88 -269t229 -106q74 0 142.5 20t109.5 50l45 -88q-135 -84 -313 -84zM479 1092
l-229 309h92l197 -219h6l196 219h93l-232 -309h-123z" />
    <glyph glyph-name="Dcaron" unicode="&#x10e;" horiz-adv-x="1392" 
d="M594 -14q-274 0 -414 14v1427q224 17 414 17q305 0 482 -188t179 -498q1 -162 -43 -302t-126 -245t-208.5 -165t-283.5 -60zM600 1331q-165 0 -287 -12v-1210q125 -13 287 -13q95 0 177.5 35t143 97t104 145.5t65 181.5t20.5 203q-1 164 -60 293t-175.5 204.5
t-274.5 75.5zM551 1536l-229 258h108l174 -168h8l174 168h109l-229 -258h-115z" />
    <glyph glyph-name="dcaron" unicode="&#x10f;" horiz-adv-x="1531" 
d="M498 -14q-76 0 -145 31.5t-124 89.5t-87.5 150t-32.5 204q0 224 110 349.5t279 125.5q205 0 295 -156h6v756h123v-1536h-107l-10 162h-6q-98 -176 -301 -176zM524 834q-133 1 -207.5 -105.5t-74.5 -267.5q0 -159 77.5 -268t204.5 -109q77 0 141 54.5t98 140.5t34 180
q0 167 -73 271t-200 104zM1247 1042h-67q84 235 84 494h100q0 -260 -117 -494z" />
    <glyph glyph-name="Dcroat" unicode="&#x110;" horiz-adv-x="1392" 
d="M78 778h102v649q224 17 414 17q305 0 482 -188t179 -498q1 -162 -43 -302t-126 -245t-208.5 -165t-283.5 -60q-274 0 -414 14v700h-102v78zM313 778h340v-78h-340v-591q125 -13 287 -13q95 0 177.5 35t143 97t104 145.5t65 181.5t20.5 203q-1 164 -60 293t-175.5 204.5
t-274.5 75.5q-165 0 -287 -12v-541z" />
    <glyph glyph-name="dcroat" unicode="&#x111;" horiz-adv-x="1071" 
d="M109 461q0 224 110 349.5t279 125.5q205 0 295 -156h6v326h-332v65h332v365h123v-365h102v-65h-102v-1106h-107l-10 162h-6q-98 -176 -301 -176q-76 0 -145 31.5t-124 89.5t-87.5 150t-32.5 204zM524 834q-133 1 -207.5 -105.5t-74.5 -267.5q0 -159 77.5 -268t204.5 -109
q77 0 141 54.5t98 140.5t34 180q0 167 -73 271t-200 104z" />
    <glyph glyph-name="Emacron" unicode="&#x112;" horiz-adv-x="1126" 
d="M180 1434h801v-115h-668v-528h607v-109h-607v-567h668v-115h-801v1434zM946 1597h-725v66h725v-66z" />
    <glyph glyph-name="emacron" unicode="&#x113;" horiz-adv-x="1048" 
d="M561 -14q-88 0 -166 32t-137.5 91t-94 150t-34.5 202q0 114 34 205.5t92.5 149.5t134.5 89t163 31q179 0 280 -131t89 -342h-670q1 -172 89 -274.5t230 -102.5q76 0 150 20t115 48l41 -86q-132 -82 -316 -82zM260 559h545q-1 124 -71 200.5t-183 78.5q-123 0 -200 -79
t-91 -200zM831 1106h-557v65h557v-65z" />
    <glyph glyph-name="Ebreve" unicode="&#x114;" horiz-adv-x="1126" 
d="M180 0v1434h801v-115h-668v-528h607v-109h-607v-567h668v-115h-801zM586 1501q-50 0 -95 11.5t-88.5 38t-73 78t-36.5 122.5h102q12 -79 63.5 -123.5t127.5 -44.5q77 0 128.5 44.5t61.5 123.5h103q-6 -71 -35.5 -122.5t-73.5 -78t-89 -38t-95 -11.5z" />
    <glyph glyph-name="ebreve" unicode="&#x115;" horiz-adv-x="1048" 
d="M129 461q0 114 34 205.5t92.5 149.5t134.5 89t163 31q179 0 280 -131t89 -342h-670q1 -172 89 -274.5t230 -102.5q76 0 150 20t115 48l41 -86q-132 -82 -316 -82q-88 0 -166 32t-137.5 91t-94 150t-34.5 202zM260 559h545q-1 124 -71 200.5t-183 78.5q-123 0 -200 -79
t-91 -200zM553 1069q-49 0 -93 14.5t-83 44.5t-65 82.5t-33 122.5h100q11 -84 55.5 -133t118.5 -49t117.5 49.5t54.5 132.5h100q-13 -134 -90.5 -199t-181.5 -65z" />
    <glyph glyph-name="Edotaccent" unicode="&#x116;" horiz-adv-x="1126" 
d="M180 0v1434h801v-115h-668v-528h607v-109h-607v-567h668v-115h-801zM586 1577q-39 0 -66.5 27.5t-27.5 66.5q0 38 27 65t67 27q37 0 64.5 -27t27.5 -65t-27.5 -66t-64.5 -28z" />
    <glyph glyph-name="edotaccent" unicode="&#x117;" horiz-adv-x="1048" 
d="M129 461q0 114 34 205.5t92 149.5t134 89t162 31q180 0 281.5 -131t89.5 -342h-670q1 -172 89 -274.5t230 -102.5q76 0 150 20t115 48l41 -86q-132 -82 -316 -82q-88 0 -166 32t-137.5 91t-94 150t-34.5 202zM260 559h545q-1 124 -71 200.5t-183 78.5q-123 0 -200 -79
t-91 -200zM551 1133q-37 0 -64.5 27.5t-27.5 64.5q0 38 27.5 65t64.5 27t64.5 -27t27.5 -65q0 -37 -27.5 -64.5t-64.5 -27.5z" />
    <glyph glyph-name="Eogonek" unicode="&#x118;" horiz-adv-x="1126" 
d="M180 1434h801v-115h-668v-528h607v-109h-607v-567h668v-115h-4q-41 0 -84 -52t-43 -112q0 -39 19 -56.5t44 -17.5q31 0 54 15v-70q-7 -6 -29 -12t-43 -6q-58 0 -95.5 33t-37.5 98q0 50 30 98t74 82h-686v1434z" />
    <glyph glyph-name="eogonek" unicode="&#x119;" horiz-adv-x="1048" 
d="M129 461q0 114 34 205.5t92.5 149.5t134.5 89t163 31q179 0 280 -131t89 -342h-670q1 -172 89 -274.5t230 -102.5q76 0 150 20t115 48l41 -86q-84 -55 -205 -74q-38 -16 -68.5 -62t-30.5 -96q0 -38 20 -56t44 -18q33 0 55 15v-70q-30 -18 -74 -18q-57 0 -95 33t-38 98
q0 87 86 166q-203 -3 -322.5 133t-119.5 342zM260 559h545q-1 124 -71 200.5t-183 78.5q-123 0 -200 -79t-91 -200z" />
    <glyph glyph-name="Ecaron" unicode="&#x11a;" horiz-adv-x="1126" 
d="M180 0v1434h801v-115h-668v-528h607v-109h-607v-567h668v-115h-801zM524 1536l-229 258h108l175 -168h8l174 168h108l-229 -258h-115z" />
    <glyph glyph-name="ecaron" unicode="&#x11b;" horiz-adv-x="1048" 
d="M561 -14q-88 0 -166 32t-137.5 91t-94 150t-34.5 202q0 114 34 205.5t92.5 149.5t134.5 89t163 31q179 0 280 -131t89 -342h-670q1 -172 89 -274.5t230 -102.5q76 0 150 20t115 48l41 -86q-132 -82 -316 -82zM260 559h545q-1 124 -71 200.5t-183 78.5q-123 0 -200 -79
t-91 -200zM489 1092l-229 309h92l197 -219h6l195 219h92l-230 -309h-123z" />
    <glyph glyph-name="Gcircumflex" unicode="&#x11c;" horiz-adv-x="1372" 
d="M807 -20q-300 0 -484.5 204.5t-183.5 552.5q0 164 51 297.5t141.5 223t216.5 138t275 48.5q230 0 437 -96l-54 -109q-184 88 -379 88q-254 0 -398 -157.5t-144 -432.5q-1 -295 140.5 -469t381.5 -174q167 0 326 84v416h-324v106h451v-596q-100 -59 -220.5 -91.5
t-232.5 -32.5zM530 1536l230 258h112l230 -258h-109l-172 168h-8l-174 -168h-109z" />
    <glyph glyph-name="gcircumflex" unicode="&#x11d;" horiz-adv-x="1081" 
d="M82 -231q0 149 182 243q-139 50 -139 174q0 58 36 107.5t101 79.5q-104 84 -104 239q0 66 18.5 119.5t51.5 87.5t71 58t83.5 36.5t82.5 17.5t74 5q124 0 223 -53q36 64 101.5 108t156.5 43v-108q-126 5 -191 -90q91 -87 91 -224q0 -78 -29.5 -138t-72 -93.5t-98 -55
t-99 -28t-82.5 -6.5q-112 0 -201 37q-42 -20 -70 -53t-28 -70q0 -59 74.5 -88t244.5 -29q105 0 183.5 -12.5t131 -35t85 -58t46 -78t13.5 -97.5q0 -142 -143 -230.5t-371 -88.5q-207 0 -314.5 76t-107.5 205zM555 -25q-87 0 -154 9q-78 -23 -137 -75.5t-59 -121.5
q0 -101 85 -151t218 -50q80 0 148 12.5t122 37.5t84.5 67.5t30.5 97.5q0 97 -74.5 135.5t-263.5 38.5zM539 846q-133 0 -196.5 -65.5t-61.5 -168.5q0 -103 62 -167t196 -64q121 0 189.5 67t68.5 164q0 96 -69.5 165t-188.5 69zM240 1092l229 309h123l229 -309h-92l-194 219
h-7l-196 -219h-92z" />
    <glyph glyph-name="Gbreve" unicode="&#x11e;" horiz-adv-x="1372" 
d="M807 -20q-300 0 -484.5 204.5t-183.5 552.5q0 164 51 297.5t141.5 223t216.5 138t275 48.5q230 0 437 -96l-54 -109q-184 88 -379 88q-254 0 -398 -157.5t-144 -432.5q-1 -295 140.5 -469t381.5 -174q167 0 326 84v416h-324v106h451v-596q-100 -59 -220.5 -91.5
t-232.5 -32.5zM793 1501q-39 0 -75.5 6.5t-74.5 24.5t-67.5 45t-50.5 72t-27 102h104q10 -79 62 -123.5t129 -44.5t127.5 44.5t60.5 123.5h104q-6 -57 -27 -102t-50 -72t-67 -45t-74 -24.5t-74 -6.5z" />
    <glyph glyph-name="gbreve" unicode="&#x11f;" horiz-adv-x="1081" 
d="M82 -231q0 149 182 243q-139 50 -139 174q0 58 36 107.5t101 79.5q-104 84 -104 239q0 66 18.5 119.5t51.5 87.5t71 58t83.5 36.5t82.5 17.5t74 5q124 0 223 -53q36 64 101.5 108t156.5 43v-108q-126 5 -191 -90q91 -87 91 -224q0 -78 -29.5 -138t-72 -93.5t-98 -55
t-99 -28t-82.5 -6.5q-112 0 -201 37q-42 -20 -70 -53t-28 -70q0 -59 74.5 -88t244.5 -29q105 0 183.5 -12.5t131 -35t85 -58t46 -78t13.5 -97.5q0 -142 -143 -230.5t-371 -88.5q-207 0 -314.5 76t-107.5 205zM555 -25q-87 0 -154 9q-78 -23 -137 -75.5t-59 -121.5
q0 -101 85 -151t218 -50q80 0 148 12.5t122 37.5t84.5 67.5t30.5 97.5q0 97 -74.5 135.5t-263.5 38.5zM539 846q-133 0 -196.5 -65.5t-61.5 -168.5q0 -103 62 -167t196 -64q121 0 189.5 67t68.5 164q0 96 -69.5 165t-188.5 69zM541 1069q-49 0 -93.5 14.5t-83 44.5t-65 82.5
t-33.5 122.5h101q11 -84 55.5 -133t118.5 -49t117.5 49.5t54.5 132.5h100q-13 -134 -90.5 -199t-181.5 -65z" />
    <glyph glyph-name="Gdotaccent" unicode="&#x120;" horiz-adv-x="1372" 
d="M807 -20q-300 0 -484.5 204.5t-183.5 552.5q0 164 51 297.5t141.5 223t216.5 138t275 48.5q230 0 437 -96l-54 -109q-184 88 -379 88q-254 0 -398 -157.5t-144 -432.5q-1 -295 140.5 -469t381.5 -174q167 0 326 84v416h-324v106h451v-596q-100 -59 -220.5 -91.5
t-232.5 -32.5zM811 1577q-38 0 -66 28t-28 66t28 65t66 27q37 0 64.5 -27t27.5 -65t-27.5 -66t-64.5 -28z" />
    <glyph glyph-name="gdotaccent" unicode="&#x121;" horiz-adv-x="1081" 
d="M504 -512q-207 0 -314.5 76t-107.5 205q0 149 182 243q-139 50 -139 174q0 58 36 107.5t101 79.5q-104 84 -104 239q0 66 18.5 119.5t51.5 87.5t71 58t83.5 36.5t82.5 17.5t74 5q124 0 223 -53q36 64 101.5 108t156.5 43v-108q-126 5 -191 -90q91 -87 91 -224
q0 -78 -29.5 -138t-72 -93.5t-98 -55t-99 -28t-82.5 -6.5q-112 0 -201 37q-42 -20 -70 -53t-28 -70q0 -59 74.5 -88t244.5 -29q105 0 183.5 -12.5t131 -35t85 -58t46 -78t13.5 -97.5q0 -142 -143 -230.5t-371 -88.5zM555 -25q-87 0 -154 9q-78 -23 -137 -75.5t-59 -121.5
q0 -101 85 -151t218 -50q80 0 148 12.5t122 37.5t84.5 67.5t30.5 97.5q0 97 -74.5 135.5t-263.5 38.5zM539 846q-133 0 -196.5 -65.5t-61.5 -168.5q0 -103 62 -167t196 -64q121 0 189.5 67t68.5 164q0 96 -69.5 165t-188.5 69zM539 1133q-37 0 -65 27.5t-28 64.5q0 38 28 65
t65 27t64.5 -27t27.5 -65q0 -37 -27.5 -64.5t-64.5 -27.5z" />
    <glyph glyph-name="uni0122" unicode="&#x122;" horiz-adv-x="1372" 
d="M807 -20q-300 0 -484.5 204.5t-183.5 552.5q0 164 51 297.5t141.5 223t216.5 138t275 48.5q230 0 437 -96l-54 -109q-184 88 -379 88q-254 0 -398 -157.5t-144 -432.5q-1 -295 140.5 -469t381.5 -174q167 0 326 84v416h-324v106h451v-596q-100 -59 -220.5 -91.5
t-232.5 -32.5zM659 -283q132 52 101 224h100q21 -114 -39.5 -196.5t-161.5 -100.5v73z" />
    <glyph glyph-name="uni0123" unicode="&#x123;" horiz-adv-x="1081" 
d="M504 -512q-207 0 -314.5 76t-107.5 205q0 149 182 243q-139 50 -139 174q0 58 36 107.5t101 79.5q-104 84 -104 239q0 66 18.5 119.5t51.5 87.5t71 58t83.5 36.5t82.5 17.5t74 5q124 0 223 -53q36 64 101.5 108t156.5 43v-108q-126 5 -191 -90q91 -87 91 -224
q0 -78 -29.5 -138t-72 -93.5t-98 -55t-99 -28t-82.5 -6.5q-112 0 -201 37q-42 -20 -70 -53t-28 -70q0 -59 74.5 -88t244.5 -29q105 0 183.5 -12.5t131 -35t85 -58t46 -78t13.5 -97.5q0 -142 -143 -230.5t-371 -88.5zM555 -25q-87 0 -154 9q-78 -23 -137 -75.5t-59 -121.5
q0 -101 85 -151t218 -50q80 0 148 12.5t122 37.5t84.5 67.5t30.5 97.5q0 97 -74.5 135.5t-263.5 38.5zM539 846q-133 0 -196.5 -65.5t-61.5 -168.5q0 -103 62 -167t196 -64q121 0 189.5 67t68.5 164q0 96 -69.5 165t-188.5 69zM444 1110q-21 114 40 196.5t161 100.5v-74
q-131 -52 -100 -223h-101z" />
    <glyph glyph-name="Hcircumflex" unicode="&#x124;" horiz-adv-x="1318" 
d="M311 0h-135v1434h135v-639h699v639h133v-1434h-133v680h-699v-680zM481 1536h-108l229 258h115l229 -258h-108l-174 168h-9z" />
    <glyph glyph-name="hcircumflex" unicode="&#x125;" horiz-adv-x="1040" 
d="M272 0h-122v1536h122v-786h7q37 80 109.5 136t172.5 56q183 0 267.5 -112t84.5 -343v-487h-122v449q0 93 -11 159.5t-38 120t-77 80.5t-124 27q-98 0 -168.5 -85t-100.5 -216v-535zM-51 1597l229 258h115l229 -258h-108l-174 168h-9l-174 -168h-108z" />
    <glyph glyph-name="Hbar" unicode="&#x126;" horiz-adv-x="1318" 
d="M176 1018h-82v65h82v351h135v-351h699v351h133v-351h104v-65h-104v-1018h-133v680h-699v-680h-135v1018zM1010 1018h-699v-223h699v223z" />
    <glyph glyph-name="hbar" unicode="&#x127;" horiz-adv-x="1040" 
d="M272 1171h303v-65h-303v-356h7q37 80 109.5 136t172.5 56q183 0 267.5 -112t84.5 -343v-487h-122v449q0 93 -11 159.5t-38 120t-77 80.5t-124 27q-98 0 -168.5 -85t-100.5 -216v-535h-122v1106h-132v65h129l3 365h122v-365z" />
    <glyph glyph-name="Itilde" unicode="&#x128;" horiz-adv-x="493" 
d="M180 0v1434h133v-1434h-133zM35 1565h-82q10 71 54.5 121.5t125.5 50.5q45 0 81 -17.5t55 -38t46.5 -38t57.5 -17.5q86 0 102 96h84q-8 -72 -54.5 -123t-129.5 -51q-45 0 -81.5 16.5t-56.5 37t-47 37t-57 16.5q-47 0 -67.5 -24.5t-30.5 -65.5z" />
    <glyph glyph-name="itilde" unicode="&#x129;" horiz-adv-x="466" 
d="M174 0v922h123v-922h-123zM12 1124h-80q8 46 26 84.5t58 68.5t95 30q45 0 81 -19t55 -41.5t46 -41.5t57 -19q47 0 72.5 32t32.5 76h80q-9 -73 -55.5 -128.5t-127.5 -55.5q-45 0 -81.5 18.5t-55.5 40t-46.5 40t-57.5 18.5q-25 0 -43.5 -9t-29 -26t-16 -32t-10.5 -36z" />
    <glyph glyph-name="Imacron" unicode="&#x12a;" horiz-adv-x="493" 
d="M180 0v1434h133v-1434h-133zM-117 1597v66h727v-66h-727z" />
    <glyph glyph-name="imacron" unicode="&#x12b;" horiz-adv-x="466" 
d="M174 0v922h123v-922h-123zM-45 1106v65h557v-65h-557z" />
    <glyph glyph-name="Ibreve" unicode="&#x12c;" horiz-adv-x="493" 
d="M180 0v1434h133v-1434h-133zM246 1501q-38 0 -74.5 6.5t-74.5 24.5t-67 45t-50 72t-27 102h104q10 -79 61.5 -123.5t127.5 -44.5q77 0 128.5 44.5t61.5 123.5h105q-6 -57 -27 -102t-50.5 -72t-67.5 -45t-74.5 -24.5t-75.5 -6.5z" />
    <glyph glyph-name="ibreve" unicode="&#x12d;" horiz-adv-x="466" 
d="M174 0v922h123v-922h-123zM-41 1333h100q11 -84 56 -133t118 -49q74 0 119 49.5t56 132.5h100q-14 -134 -92.5 -199t-182.5 -65q-48 0 -92 14.5t-83 44.5t-65.5 82.5t-33.5 122.5z" />
    <glyph glyph-name="Iogonek" unicode="&#x12e;" horiz-adv-x="493" 
d="M94 -180q0 50 30.5 98t74.5 82h-19v1434h133v-1434h-2q-42 0 -85.5 -52t-43.5 -112q0 -39 20.5 -56.5t45.5 -17.5q30 0 53 15v-70q-30 -18 -72 -18q-58 0 -96.5 33t-38.5 98z" />
    <glyph glyph-name="iogonek" unicode="&#x12f;" horiz-adv-x="466" 
d="M209 -311q-57 0 -95 33t-38 98q0 50 30 98t74 82h-6v922h123v-922h-4q-42 0 -85.5 -52t-43.5 -112q0 -39 20 -56.5t45 -17.5q31 0 54 15v-70q-30 -18 -74 -18zM139 1331q0 40 27 68t67 28q39 0 67 -28.5t28 -67.5q0 -38 -28.5 -66t-66.5 -28q-39 0 -66.5 27.5t-27.5 66.5
z" />
    <glyph glyph-name="Idotaccent" unicode="&#x130;" horiz-adv-x="493" 
d="M180 0v1434h133v-1434h-133zM154 1671q0 38 28 65t66 27q37 0 64.5 -27t27.5 -65t-27.5 -66t-64.5 -28q-38 0 -66 28t-28 66z" />
    <glyph glyph-name="dotlessi" unicode="&#x131;" horiz-adv-x="466" 
d="M174 0v922h123v-922h-123z" />
    <glyph glyph-name="IJ" unicode="&#x132;" horiz-adv-x="1280" 
d="M549 27l22 106q27 -13 89.5 -26t107.5 -13q129 -2 187.5 73.5t58.5 274.5v992h129v-992q0 -115 -17.5 -196t-59.5 -142t-116 -90.5t-182 -29.5q-54 0 -122 14t-97 29zM180 1434h133v-1434h-133v1434z" />
    <glyph glyph-name="ij" unicode="&#x133;" horiz-adv-x="862" 
d="M371 -506v107q133 0 184 99.5t51 328.5v893h125v-899q0 -101 -10 -179t-34.5 -145.5t-65 -111.5t-103 -68.5t-147.5 -24.5zM297 0h-123v922h123v-922zM573 1331q0 40 27.5 67t67.5 27q37 0 65.5 -27.5t28.5 -66.5q0 -38 -28.5 -66t-65.5 -28q-40 0 -67.5 27.5t-27.5 66.5
zM139 1331q0 40 27 68t67 28q39 0 67 -28.5t28 -67.5q0 -38 -28.5 -66t-66.5 -28q-39 0 -66.5 27.5t-27.5 66.5z" />
    <glyph glyph-name="Jcircumflex" unicode="&#x134;" horiz-adv-x="823" 
d="M92 27l21 106q26 -13 89.5 -26t108.5 -13q128 -2 187 73.5t59 274.5v992h127v-992q0 -115 -17.5 -196t-59 -142t-115 -90.5t-181.5 -29.5q-54 0 -122 14t-97 29zM436 1536h-108l229 258h115l227 -258h-108l-173 168h-8z" />
    <glyph glyph-name="jcircumflex" unicode="&#x135;" horiz-adv-x="409" 
d="M-109 -506h-34v109h34q149 0 208 91t59 314v914h123v-920q0 -127 -18 -216.5t-61 -157.5t-120 -101t-191 -33zM6 1092h-92l229 309h123l232 -309h-92l-197 219h-6z" />
    <glyph glyph-name="uni0136" unicode="&#x136;" horiz-adv-x="1204" 
d="M180 0v1434h133v-682h6l568 682h151l-565 -670l676 -764h-176l-588 659l-72 -86v-573h-133zM475 -356v73q131 52 100 224h101q21 -114 -39.5 -196.5t-161.5 -100.5z" />
    <glyph glyph-name="uni0137" unicode="&#x137;" horiz-adv-x="931" 
d="M150 1536h122v-1083h7l421 469h134l-326 -363l334 -559h-137l-277 469l-156 -174v-295h-122v1536zM322 -356v73q131 50 100 224h102q21 -114 -39.5 -196.5t-162.5 -100.5z" />
    <glyph glyph-name="kgreenlandic" unicode="&#x138;" horiz-adv-x="931" 
d="M272 0h-122v922h122v-469h7l421 469h134l-326 -363l334 -559h-137l-277 469l-156 -174v-295z" />
    <glyph glyph-name="Lacute" unicode="&#x139;" horiz-adv-x="1089" 
d="M180 0v1434h133v-1319h688v-115h-821zM367 1808h147l-209 -272h-100z" />
    <glyph glyph-name="lacute" unicode="&#x13a;" horiz-adv-x="419" 
d="M150 0v1536h122v-1536h-122zM319 1870h148l-211 -273h-100z" />
    <glyph glyph-name="uni013B" unicode="&#x13b;" horiz-adv-x="1089" 
d="M1001 0h-821v1434h133v-1319h688v-115zM459 -356v73q131 50 100 224h103q20 -114 -41 -196.5t-162 -100.5z" />
    <glyph glyph-name="uni013C" unicode="&#x13c;" horiz-adv-x="419" 
d="M150 0v1536h122v-1536h-122zM272 -59q20 -114 -40.5 -196.5t-161.5 -100.5v73q131 50 100 224h102z" />
    <glyph glyph-name="Lcaron" unicode="&#x13d;" horiz-adv-x="1089" 
d="M1001 0h-821v1434h133v-1319h688v-115zM956 1042h-67q82 230 82 494h102q0 -250 -117 -494z" />
    <glyph glyph-name="lcaron" unicode="&#x13e;" horiz-adv-x="880" 
d="M150 1536h122v-1536h-122v1536zM598 1042h-68q82 230 82 494h103q0 -260 -117 -494z" />
    <glyph glyph-name="Ldot" unicode="&#x13f;" horiz-adv-x="1089" 
d="M180 1434h133v-1319h688v-115h-821v1434zM758 680q-39 0 -67.5 28.5t-28.5 67.5q0 38 28 66t68 28q38 0 66 -28t28 -66t-28 -67t-66 -29z" />
    <glyph glyph-name="ldot" unicode="&#x140;" horiz-adv-x="692" 
d="M150 1536h122v-1536h-122v1536zM541 588q-40 0 -68.5 28t-28.5 66q0 40 28.5 68t68.5 28q38 0 66 -28t28 -68q0 -38 -28 -66t-66 -28z" />
    <glyph glyph-name="Lslash" unicode="&#x141;" horiz-adv-x="1089" 
d="M313 758l230 133l39 -68l-269 -153v-555h688v-115h-821v592l-217 -125l-39 65l256 148v754h133v-676z" />
    <glyph glyph-name="lslash" unicode="&#x142;" horiz-adv-x="419" 
d="M-78 403l-39 66l264 154l3 913h122v-844l230 133l39 -65l-269 -156v-604h-122v532z" />
    <glyph glyph-name="Nacute" unicode="&#x143;" horiz-adv-x="1341" 
d="M307 0h-127v1434h127l721 -1196h6v1196h129v-1434h-129l-721 1180h-6v-1180zM633 1536l164 272h147l-211 -272h-100z" />
    <glyph glyph-name="nacute" unicode="&#x144;" horiz-adv-x="1040" 
d="M272 0h-122v922h106l10 -177h6q37 81 111.5 139t177.5 58q183 0 267.5 -112t84.5 -343v-487h-122v449q0 93 -11 159.5t-38 120t-77 80.5t-124 27q-98 0 -168.5 -85t-100.5 -216v-535zM516 1096h-86l186 311h156z" />
    <glyph glyph-name="uni0145" unicode="&#x145;" horiz-adv-x="1341" 
d="M307 0h-127v1434h127l721 -1196h6v1196h129v-1434h-129l-721 1180h-6v-1180zM545 -283q131 52 100 224h100q21 -114 -39.5 -196.5t-160.5 -100.5v73z" />
    <glyph glyph-name="uni0146" unicode="&#x146;" horiz-adv-x="1040" 
d="M272 0h-122v922h106l10 -177h6q37 81 111.5 139t177.5 58q183 0 267.5 -112t84.5 -343v-487h-122v449q0 93 -11 159.5t-38 120t-77 80.5t-124 27q-98 0 -168.5 -85t-100.5 -216v-535zM389 -283q131 50 100 224h103q21 -114 -40 -196.5t-163 -100.5v73z" />
    <glyph glyph-name="Ncaron" unicode="&#x147;" horiz-adv-x="1341" 
d="M307 0h-127v1434h127l721 -1196h6v1196h129v-1434h-129l-721 1180h-6v-1180zM629 1536l-230 258h109l174 -168h8l174 168h107l-228 -258h-114z" />
    <glyph glyph-name="ncaron" unicode="&#x148;" horiz-adv-x="1040" 
d="M272 0h-122v922h106l10 -177h6q37 81 111.5 139t177.5 58q183 0 267.5 -112t84.5 -343v-487h-122v449q0 93 -11 159.5t-38 120t-77 80.5t-124 27q-98 0 -168.5 -85t-100.5 -216v-535zM459 1092l-230 309h93l196 -219h6l197 219h90l-229 -309h-123z" />
    <glyph glyph-name="napostrophe" unicode="&#x149;" horiz-adv-x="1114" 
d="M221 0v922h109l10 -177h6q35 81 110 139t179 58q183 0 267.5 -112t84.5 -343v-487h-123v449q0 93 -11 159.5t-38 120t-77 80.5t-124 27q-98 0 -168 -85t-100 -216v-535h-125zM18 1042q82 230 82 494h103q0 -250 -117 -494h-68z" />
    <glyph glyph-name="Eng" unicode="&#x14a;" horiz-adv-x="1341" 
d="M307 0h-127v1434h127l721 -1196h6v1196h129v-1502q0 -110 -17.5 -188t-59.5 -137.5t-116 -89t-182 -29.5q-54 0 -121.5 13.5t-97.5 29.5l23 107q27 -13 89 -26t107 -13q129 -2 187.5 71t58.5 262v68l-721 1180h-6v-1180z" />
    <glyph glyph-name="eng" unicode="&#x14b;" horiz-adv-x="1040" 
d="M272 0h-122v922h106l10 -177h6q37 81 111.5 139t177.5 58q183 0 267.5 -112t84.5 -343v-464q0 -101 -10 -179t-34.5 -145.5t-64.5 -111.5t-102.5 -68.5t-146.5 -24.5v107q132 0 184 100t52 328v420q0 93 -11 159.5t-38 120t-77 80.5t-124 27q-98 0 -168.5 -85
t-100.5 -216v-535z" />
    <glyph glyph-name="Omacron" unicode="&#x14c;" horiz-adv-x="1501" 
d="M139 717q0 217 71.5 382.5t211.5 260t330 94.5q189 0 328.5 -94.5t211.5 -260.5t72 -382t-72 -382t-211.5 -260.5t-328.5 -94.5q-190 0 -330 94.5t-211.5 260t-71.5 382.5zM752 1333q-146 0 -253.5 -79t-161.5 -217.5t-54 -319.5q0 -180 54 -318.5t161.5 -218.5
t253.5 -80q219 0 343 171t124 446q0 181 -53.5 319t-160.5 217.5t-253 79.5zM1114 1597h-727v66h727v-66z" />
    <glyph glyph-name="omacron" unicode="&#x14d;" horiz-adv-x="1056" 
d="M528 -16q-180 0 -300 126t-119 351q0 225 120 351t299 126q181 0 301.5 -126t120.5 -351t-120.5 -351t-301.5 -126zM236 461q0 -163 77.5 -267t214.5 -104q138 0 215.5 103.5t77.5 267.5t-77.5 268.5t-215.5 104.5q-137 0 -214.5 -104.5t-77.5 -268.5zM807 1106h-557v65
h557v-65z" />
    <glyph glyph-name="Obreve" unicode="&#x14e;" horiz-adv-x="1501" 
d="M752 -20q-190 0 -330 94.5t-211.5 260t-71.5 382.5t71.5 382.5t211.5 260t330 94.5q189 0 328.5 -94.5t211.5 -260.5t72 -382t-72 -382t-211.5 -260.5t-328.5 -94.5zM752 1333q-146 0 -253.5 -79t-161.5 -217.5t-54 -319.5q0 -180 54 -318.5t161.5 -218.5t253.5 -80
q219 0 343 171t124 446q0 181 -53.5 319t-160.5 217.5t-253 79.5zM752 1501q-39 0 -75.5 6.5t-74.5 24.5t-67.5 45t-50.5 72t-27 102h104q10 -78 62.5 -123t128.5 -45q77 0 127.5 44.5t60.5 123.5h104q-6 -57 -27 -102t-50 -72t-67 -45t-74 -24.5t-74 -6.5z" />
    <glyph glyph-name="obreve" unicode="&#x14f;" horiz-adv-x="1056" 
d="M528 -16q-180 0 -300 126t-119 351q0 225 120 351t299 126q181 0 301.5 -126t120.5 -351t-120.5 -351t-301.5 -126zM528 834q-137 0 -214.5 -104.5t-77.5 -268.5q0 -163 77.5 -267t214.5 -104q138 0 215.5 103.5t77.5 267.5t-77.5 268.5t-215.5 104.5zM256 1333h98
q12 -85 56.5 -133.5t117.5 -48.5q75 0 119 49.5t55 132.5h101q-14 -134 -92.5 -199t-182.5 -65t-181.5 65t-90.5 199z" />
    <glyph glyph-name="Ohungarumlaut" unicode="&#x150;" horiz-adv-x="1501" 
d="M139 717q0 217 71.5 382.5t211.5 260t330 94.5q189 0 328.5 -94.5t211.5 -260.5t72 -382t-72 -382t-211.5 -260.5t-328.5 -94.5q-190 0 -330 94.5t-211.5 260t-71.5 382.5zM752 1333q-146 0 -253.5 -79t-161.5 -217.5t-54 -319.5q0 -180 54 -318.5t161.5 -218.5
t253.5 -80q219 0 343 171t124 446q0 181 -53.5 319t-160.5 217.5t-253 79.5zM940 1536h-102l163 272h148zM641 1536h-102l163 272h148z" />
    <glyph glyph-name="ohungarumlaut" unicode="&#x151;" horiz-adv-x="1056" 
d="M528 -16q-180 0 -300 126t-119 351q0 225 120 351t299 126q181 0 301.5 -126t120.5 -351t-120.5 -351t-301.5 -126zM236 461q0 -163 77.5 -267t214.5 -104q138 0 215.5 103.5t77.5 267.5t-77.5 268.5t-215.5 104.5q-137 0 -214.5 -104.5t-77.5 -268.5zM647 1094l207 340
h162l-289 -340h-80zM430 1094h-80l207 340h162z" />
    <glyph glyph-name="OE" unicode="&#x152;" horiz-adv-x="1982" 
d="M834 -8q-318 0 -507.5 203.5t-189.5 539.5q1 218 89 377.5t245 242.5t365 83q59 0 160.5 -2t105.5 -2h735v-115h-668v-528h607v-109h-607v-567h668v-115h-735q-100 -8 -268 -8zM283 735q0 -279 153.5 -451.5t403.5 -172.5q167 0 196 4v1202q-94 4 -198 4
q-252 0 -403.5 -162.5t-151.5 -423.5z" />
    <glyph glyph-name="oe" unicode="&#x153;" horiz-adv-x="1744" 
d="M528 -16q-180 0 -300 126t-119 351q0 225 120 351t299 126q115 0 209.5 -56t147.5 -161h6q51 105 145.5 160t210.5 55q180 0 281.5 -131t89.5 -342h-670q1 -172 89.5 -274.5t230.5 -102.5q76 0 149.5 20t114.5 48l41 -86q-132 -82 -316 -82q-120 0 -216.5 57.5
t-149.5 163.5h-6q-52 -107 -146.5 -165t-210.5 -58zM236 461q0 -163 77.5 -267t214.5 -104q138 0 215.5 103.5t77.5 267.5t-77.5 268.5t-215.5 104.5q-137 0 -214.5 -104.5t-77.5 -268.5zM1247 838q-123 0 -200 -79t-91 -200h545q-1 124 -71 200.5t-183 78.5z" />
    <glyph glyph-name="Racute" unicode="&#x154;" horiz-adv-x="1200" 
d="M180 0v1423q45 3 97 8t78 7t68.5 4t94.5 2q112 0 204.5 -21.5t167 -67.5t116.5 -126.5t43 -190.5q0 -149 -75.5 -244.5t-201.5 -142.5v-6q40 -10 77.5 -36t66 -59.5t56 -83t46.5 -92.5t39.5 -102t32.5 -98.5t27.5 -94.5t23.5 -79h-146q-5 16 -16.5 58.5t-22.5 83.5
t-30 95t-39.5 101t-51.5 94.5t-65.5 80.5t-81.5 54t-100 21h-275v-588h-133zM313 1319v-617h185q414 0 411 332q-1 145 -102.5 221t-290.5 76q-108 0 -203 -12zM473 1536l164 272h147l-211 -272h-100z" />
    <glyph glyph-name="racute" unicode="&#x155;" horiz-adv-x="716" 
d="M150 0v922h106l8 -162h6q43 82 131 133.5t209 40.5v-115q-20 4 -57 4q-116 0 -186 -70t-95 -184v-569h-122zM371 1096h-86l186 311h156z" />
    <glyph glyph-name="uni0156" unicode="&#x156;" horiz-adv-x="1200" 
d="M180 0v1423q45 3 97 8t78 7t68.5 4t94.5 2q112 0 204.5 -21.5t167 -67.5t116.5 -126.5t43 -190.5q0 -149 -75.5 -244.5t-201.5 -142.5v-6q40 -10 77.5 -36t66 -59.5t56 -83t46.5 -92.5t39.5 -102t32.5 -98.5t27.5 -94.5t23.5 -79h-146q-5 16 -16.5 58.5t-22.5 83.5
t-30 95t-39.5 101t-51.5 94.5t-65.5 80.5t-81.5 54t-100 21h-275v-588h-133zM313 1319v-617h185q414 0 411 332q-1 145 -102.5 221t-290.5 76q-108 0 -203 -12zM496 -356v73q131 50 100 224h102q20 -114 -40.5 -196.5t-161.5 -100.5z" />
    <glyph glyph-name="uni0157" unicode="&#x157;" horiz-adv-x="716" 
d="M150 0v922h106l8 -162h6q43 82 131 133.5t209 40.5v-115q-20 4 -57 4q-116 0 -186 -70t-95 -184v-569h-122zM61 -283q132 52 101 224h100q21 -114 -40 -196.5t-161 -100.5v73z" />
    <glyph glyph-name="Rcaron" unicode="&#x158;" horiz-adv-x="1200" 
d="M313 0h-133v1423q45 3 97 8t78 7t68.5 4t94.5 2q112 0 204.5 -21.5t167 -67.5t116.5 -126.5t43 -190.5q0 -149 -75.5 -244.5t-201.5 -142.5v-6q40 -10 77.5 -36t66 -59.5t56 -83t46.5 -92.5t39.5 -102t32.5 -98.5t27.5 -94.5t23.5 -79h-146q-5 16 -16.5 58.5t-22.5 83.5
t-30 95t-39.5 101t-51.5 94.5t-65.5 80.5t-81.5 54t-100 21h-275v-588zM313 1319v-617h185q414 0 411 332q-1 145 -102.5 221t-290.5 76q-108 0 -203 -12zM500 1536l-230 258h109l174 -168h8l174 168h107l-228 -258h-114z" />
    <glyph glyph-name="rcaron" unicode="&#x159;" horiz-adv-x="716" 
d="M272 0h-122v922h106l8 -162h6q43 82 131 133.5t209 40.5v-115q-20 4 -57 4q-116 0 -186 -70t-95 -184v-569zM68 1401h92l194 -219h6l197 219h92l-229 -309h-123z" />
    <glyph glyph-name="Sacute" unicode="&#x15a;" horiz-adv-x="1185" 
d="M569 -14q-117 0 -255 38t-238 101l63 108q211 -131 428 -131q164 0 267.5 82.5t103.5 196.5q0 108 -91 177t-290 112q-103 23 -175.5 52.5t-129 75t-84 111.5t-27.5 154q0 173 125 277t328 104q233 0 450 -121l-63 -109q-78 49 -181.5 83t-201.5 34q-81 0 -144.5 -23.5
t-101.5 -62.5t-57 -85t-19 -95q0 -110 77.5 -169.5t244.5 -96.5q123 -29 206 -61t146.5 -79.5t93 -114t29.5 -157.5q-1 -81 -29 -148.5t-76 -113.5t-112.5 -78t-136.5 -46.5t-150 -14.5zM645 1536h-100l164 272h147z" />
    <glyph glyph-name="sacute" unicode="&#x15b;" horiz-adv-x="870" 
d="M428 -12q-199 0 -322 80l48 94q45 -33 119.5 -55.5t150.5 -22.5q93 0 147 40t54 107q0 69 -51.5 111.5t-178.5 81.5q-256 77 -256 260q0 123 90 188.5t234 65.5q176 0 285 -72l-43 -88q-95 64 -236 64q-91 0 -147 -40.5t-56 -101.5q0 -69 43.5 -105t130.5 -63
q163 -49 237.5 -116.5t74.5 -177.5q0 -118 -92.5 -184t-231.5 -66zM377 1096l186 311h156l-256 -311h-86z" />
    <glyph glyph-name="Scircumflex" unicode="&#x15c;" horiz-adv-x="1185" 
d="M76 125l63 108q211 -131 428 -131q164 0 267.5 82.5t103.5 196.5q0 108 -91 177t-290 112q-103 23 -175.5 52.5t-129 75t-84 111.5t-27.5 154q0 173 125 277t328 104q233 0 450 -121l-63 -109q-78 49 -181.5 83t-201.5 34q-81 0 -144.5 -23.5t-101.5 -62.5t-57 -85
t-19 -95q0 -110 77.5 -169.5t244.5 -96.5q123 -29 206 -61t146.5 -79.5t93 -114t29.5 -157.5q-1 -81 -29 -148.5t-76 -113.5t-112.5 -78t-136.5 -46.5t-150 -14.5q-117 0 -255 38t-238 101zM428 1536h-109l230 258h115l229 -258h-109l-174 168h-8z" />
    <glyph glyph-name="scircumflex" unicode="&#x15d;" horiz-adv-x="870" 
d="M106 68l48 94q45 -33 119.5 -55.5t150.5 -22.5q93 0 147 40t54 107q0 69 -51.5 111.5t-178.5 81.5q-256 77 -256 260q0 123 90 188.5t234 65.5q176 0 285 -72l-43 -88q-95 64 -236 64q-91 0 -147 -40.5t-56 -101.5q0 -69 43.5 -105t130.5 -63q163 -49 237.5 -116.5
t74.5 -177.5q0 -118 -92.5 -184t-231.5 -66q-199 0 -322 80zM170 1092l229 309h123l230 -309h-93l-194 219h-6l-197 -219h-92z" />
    <glyph glyph-name="Scedilla" unicode="&#x15e;" horiz-adv-x="1185" 
d="M528 -12q-113 6 -237 42.5t-215 94.5l63 108q211 -131 428 -131q164 0 267.5 82.5t103.5 196.5q0 108 -91 177t-290 112q-103 23 -175.5 52.5t-129 75t-84 111.5t-27.5 154q0 173 125 277t328 104q233 0 450 -121l-63 -109q-78 49 -181.5 83t-201.5 34
q-81 0 -144.5 -23.5t-101.5 -62.5t-57 -85t-19 -95q0 -110 77.5 -169.5t244.5 -96.5q123 -29 206 -61t146.5 -79.5t93 -114t29.5 -157.5q-1 -97 -41 -174t-108 -124.5t-152 -73.5t-178 -29l-16 -58v-10q48 2 94.5 -27.5t46.5 -85.5q0 -66 -51.5 -99.5t-132.5 -33.5
q-60 0 -109 19v65q54 -20 100 -20q47 0 78 16t31 45q0 18 -12.5 30.5t-32.5 18.5t-37.5 8.5t-34.5 2.5l-24 24z" />
    <glyph glyph-name="scedilla" unicode="&#x15f;" horiz-adv-x="870" 
d="M106 68l48 94q45 -33 119.5 -55.5t150.5 -22.5q93 0 147 40t54 107q0 69 -51.5 111.5t-178.5 81.5q-256 77 -256 260q0 123 90 188.5t234 65.5q176 0 285 -72l-43 -88q-95 64 -236 64q-91 0 -147 -40.5t-56 -101.5q0 -69 43.5 -105t130.5 -63q163 -49 237.5 -116.5
t74.5 -177.5q0 -113 -84 -178.5t-213 -71.5l-17 -60v-10q48 2 95 -27.5t47 -85.5q0 -66 -52 -99.5t-133 -33.5q-59 0 -108 19v65q54 -20 100 -20q47 0 78 16t31 45q0 18 -12.5 30.5t-32.5 18.5t-37.5 8.5t-34.5 2.5l-25 24l35 107q-172 8 -283 80z" />
    <glyph glyph-name="Scaron" unicode="&#x160;" horiz-adv-x="1185" 
d="M76 125l63 108q211 -131 428 -131q164 0 267.5 82.5t103.5 196.5q0 108 -91 177t-290 112q-103 23 -175.5 52.5t-129 75t-84 111.5t-27.5 154q0 173 125 277t328 104q233 0 450 -121l-63 -109q-78 49 -181.5 83t-201.5 34q-81 0 -144.5 -23.5t-101.5 -62.5t-57 -85
t-19 -95q0 -110 77.5 -169.5t244.5 -96.5q123 -29 206 -61t146.5 -79.5t93 -114t29.5 -157.5q-1 -81 -29 -148.5t-76 -113.5t-112.5 -78t-136.5 -46.5t-150 -14.5q-117 0 -255 38t-238 101zM563 1536l-229 258h108l174 -168h9l174 168h106l-227 -258h-115z" />
    <glyph glyph-name="scaron" unicode="&#x161;" horiz-adv-x="870" 
d="M428 -12q-199 0 -322 80l48 94q45 -33 119.5 -55.5t150.5 -22.5q93 0 147 40t54 107q0 69 -51.5 111.5t-178.5 81.5q-256 77 -256 260q0 123 90 188.5t234 65.5q176 0 285 -72l-43 -88q-95 64 -236 64q-91 0 -147 -40.5t-56 -101.5q0 -69 43.5 -105t130.5 -63
q163 -49 237.5 -116.5t74.5 -177.5q0 -118 -92.5 -184t-231.5 -66zM399 1092l-229 309h92l197 -219h6l194 219h93l-230 -309h-123z" />
    <glyph glyph-name="uni0162" unicode="&#x162;" horiz-adv-x="1269" 
d="M563 1319h-448v115h1040v-115h-457v-1319h-36l-21 -72v-10q28 1 59 -9.5t56.5 -38t25.5 -65.5q0 -66 -51.5 -99.5t-134.5 -33.5q-58 0 -107 19v65q54 -20 101 -20t77.5 16t30.5 45q0 18 -12.5 30.5t-32 18.5t-37 8.5t-34.5 2.5l-25 24l39 119h-33v1319z" />
    <glyph glyph-name="uni0163" unicode="&#x163;" horiz-adv-x="677" 
d="M215 825h-117v74l117 23l37 254h86v-254h254v-97h-254v-532q0 -120 38 -165.5t101 -45.5q66 0 111 39v-76q-17 -20 -60 -35.5t-82 -17.5l-18 -64v-10q48 2 94.5 -27.5t46.5 -85.5q0 -66 -51 -99.5t-133 -33.5q-57 0 -106 19v65q54 -20 98 -20q47 0 77.5 16t30.5 45
q0 18 -12 30.5t-31.5 18.5t-36.5 8.5t-34 2.5l-25 24l37 115q-168 34 -168 285v544z" />
    <glyph glyph-name="Tcaron" unicode="&#x164;" horiz-adv-x="1269" 
d="M563 1319h-448v115h1040v-115h-457v-1319h-135v1319zM348 1794h109l174 -168h8l174 168h109l-230 -258h-114z" />
    <glyph glyph-name="tcaron" unicode="&#x165;" horiz-adv-x="1138" 
d="M98 899l117 23l37 254h86v-254h254v-97h-254v-532q0 -120 38 -165.5t101 -45.5q66 0 111 39v-76q-17 -20 -62.5 -36.5t-83.5 -16.5q-107 0 -167 66.5t-60 222.5v544h-117v74zM856 1042h-68q82 230 82 494h103q0 -260 -117 -494z" />
    <glyph glyph-name="Tbar" unicode="&#x166;" horiz-adv-x="1269" 
d="M563 1319h-448v115h1040v-115h-457v-526h375v-64h-375v-729h-135v729h-360v64h360v526z" />
    <glyph glyph-name="tbar" unicode="&#x167;" horiz-adv-x="677" 
d="M98 825v74l117 23l37 254h86v-254h254v-97h-254v-204h227v-66h-227v-262q0 -120 38 -165.5t101 -45.5q66 0 111 39v-76q-17 -20 -62.5 -36.5t-83.5 -16.5q-107 0 -167 66.5t-60 222.5v274h-111v66h111v204h-117z" />
    <glyph glyph-name="Utilde" unicode="&#x168;" horiz-adv-x="1261" 
d="M139 635v799h133v-820q0 -139 24.5 -240t72.5 -162t112.5 -89.5t149.5 -28.5q183 -2 273.5 119t90.5 401v820h127v-799q0 -161 -25.5 -278.5t-82.5 -203t-152.5 -127.5t-230.5 -42q-265 0 -378.5 161.5t-113.5 489.5zM412 1565h-84q12 72 56 122t124 50q45 0 81.5 -17.5
t55.5 -38t46 -38t57 -17.5q86 0 102 96h84q-8 -72 -54 -123t-128 -51q-38 0 -69 11t-51 27t-38 31.5t-39.5 26.5t-46.5 11q-47 0 -67.5 -25t-28.5 -65z" />
    <glyph glyph-name="utilde" unicode="&#x169;" horiz-adv-x="1040" 
d="M129 475v447h123v-447q0 -75 6.5 -131.5t23.5 -106.5t45 -82.5t72 -50.5t103 -18q98 0 167.5 84.5t100.5 216.5v535h123v-922h-107l-12 176h-6q-37 -82 -110.5 -139t-176.5 -57q-184 0 -268 119t-84 376zM219 1124q15 76 57 129.5t121 53.5q37 0 67 -12.5t49.5 -30.5
t37.5 -35.5t39.5 -30t46.5 -12.5q47 0 72 32t32 76h80q-9 -73 -55 -128.5t-127 -55.5q-45 0 -80.5 18.5t-55 40t-47.5 40t-59 18.5q-75 0 -98 -103h-80z" />
    <glyph glyph-name="Umacron" unicode="&#x16a;" horiz-adv-x="1261" 
d="M139 635v799h133v-820q0 -139 24.5 -240t72.5 -162t112.5 -89.5t149.5 -28.5q183 -2 273.5 119t90.5 401v820h127v-799q0 -161 -25.5 -278.5t-82.5 -203t-152.5 -127.5t-230.5 -42q-265 0 -378.5 161.5t-113.5 489.5zM268 1597v66h725v-66h-725z" />
    <glyph glyph-name="umacron" unicode="&#x16b;" horiz-adv-x="1040" 
d="M129 475v447h123v-447q0 -75 6.5 -131.5t23.5 -106.5t45 -82.5t72 -50.5t103 -18q98 0 167.5 84.5t100.5 216.5v535h123v-922h-107l-12 176h-6q-37 -82 -110.5 -139t-176.5 -57q-184 0 -268 119t-84 376zM799 1106h-557v65h557v-65z" />
    <glyph glyph-name="Ubreve" unicode="&#x16c;" horiz-adv-x="1261" 
d="M139 635v799h133v-820q0 -139 24.5 -240t72.5 -162t112.5 -89.5t149.5 -28.5q183 -2 273.5 119t90.5 401v820h127v-799q0 -161 -25.5 -278.5t-82.5 -203t-152.5 -127.5t-230.5 -42q-265 0 -378.5 161.5t-113.5 489.5zM338 1751h102q10 -78 62.5 -123t128.5 -45
q77 0 128.5 44.5t61.5 123.5h103q-7 -71 -36.5 -122.5t-73 -78t-88.5 -38t-95 -11.5t-95 11.5t-89 38t-73.5 78t-35.5 122.5z" />
    <glyph glyph-name="ubreve" unicode="&#x16d;" horiz-adv-x="1040" 
d="M129 475v447h123v-447q0 -75 6.5 -131.5t23.5 -106.5t45 -82.5t72 -50.5t103 -18q98 0 167.5 84.5t100.5 216.5v535h123v-922h-107l-12 176h-6q-37 -82 -110.5 -139t-176.5 -57q-184 0 -268 119t-84 376zM248 1333h98q12 -85 56.5 -133.5t117.5 -48.5q75 0 119 49.5
t55 132.5h101q-14 -134 -92.5 -199t-182.5 -65t-181.5 65t-90.5 199z" />
    <glyph glyph-name="Uring" unicode="&#x16e;" horiz-adv-x="1261" 
d="M139 1434h133v-820q0 -139 24.5 -240t72.5 -162t112.5 -89.5t149.5 -28.5q183 -2 273.5 119t90.5 401v820h127v-799q0 -161 -25.5 -278.5t-82.5 -203t-152.5 -127.5t-230.5 -42q-265 0 -378.5 161.5t-113.5 489.5v799zM414 1679q0 102 63 158.5t152 56.5
q90 0 154.5 -56.5t64.5 -158.5t-64 -157.5t-155 -55.5q-90 0 -152.5 55.5t-62.5 157.5zM492 1679q0 -64 37.5 -103.5t99.5 -39.5q63 0 102 40t39 103q0 64 -39.5 105t-101.5 41t-99.5 -41t-37.5 -105z" />
    <glyph glyph-name="uring" unicode="&#x16f;" horiz-adv-x="1040" 
d="M129 475v447h123v-447q0 -75 6.5 -131.5t23.5 -106.5t45 -82.5t72 -50.5t103 -18q98 0 167.5 84.5t100.5 216.5v535h123v-922h-107l-12 176h-6q-37 -82 -110.5 -139t-176.5 -57q-184 0 -268 119t-84 376zM309 1171q0 99 61.5 153t149.5 54q86 0 148.5 -54.5t62.5 -152.5
q0 -99 -61.5 -152.5t-149.5 -53.5t-149.5 53.5t-61.5 152.5zM387 1171q0 -62 36.5 -100.5t96.5 -38.5q59 0 96 39t37 100t-37 100.5t-96 39.5q-60 0 -96.5 -39.5t-36.5 -100.5z" />
    <glyph glyph-name="Uhungarumlaut" unicode="&#x170;" horiz-adv-x="1261" 
d="M139 1434h133v-820q0 -139 24.5 -240t72.5 -162t112.5 -89.5t149.5 -28.5q183 -2 273.5 119t90.5 401v820h127v-799q0 -161 -25.5 -278.5t-82.5 -203t-152.5 -127.5t-230.5 -42q-265 0 -378.5 161.5t-113.5 489.5v799zM434 1536l164 272h147l-208 -272h-103zM733 1536
l164 272h147l-208 -272h-103z" />
    <glyph glyph-name="uhungarumlaut" unicode="&#x171;" horiz-adv-x="1040" 
d="M129 475v447h123v-447q0 -75 6.5 -131.5t23.5 -106.5t45 -82.5t72 -50.5t103 -18q98 0 167.5 84.5t100.5 216.5v535h123v-922h-107l-12 176h-6q-37 -82 -110.5 -139t-176.5 -57q-184 0 -268 119t-84 376zM614 1094l205 340h162l-287 -340h-80zM317 1094l205 340h162
l-289 -340h-78z" />
    <glyph glyph-name="Uogonek" unicode="&#x172;" horiz-adv-x="1261" 
d="M139 635v799h133v-820q0 -139 24.5 -240t72.5 -162t112.5 -89.5t149.5 -28.5q183 -2 273.5 119t90.5 401v820h127v-799q0 -291 -89 -450.5t-294 -192.5q-36 -19 -65 -63.5t-29 -92.5q0 -39 19.5 -56.5t44.5 -17.5q31 0 53 15v-70q-7 -5 -29.5 -11.5t-42.5 -6.5
q-58 0 -95.5 33t-37.5 98q0 87 84 164q-121 -2 -211.5 32t-145 90.5t-88 143.5t-45.5 178t-12 207z" />
    <glyph glyph-name="uogonek" unicode="&#x173;" horiz-adv-x="1040" 
d="M481 -20q-184 0 -268 119t-84 376v447h123v-447q0 -75 6.5 -131.5t23.5 -106.5t45 -82.5t72 -50.5t103 -18q98 0 167.5 84.5t100.5 216.5v535h123v-922q-42 0 -85.5 -52t-43.5 -112q0 -39 20 -56.5t45 -17.5q31 0 54 15v-70q-30 -18 -72 -18q-58 0 -96.5 33t-38.5 98
q0 52 32 101t78 83l-12 172h-6q-37 -82 -110.5 -139t-176.5 -57z" />
    <glyph glyph-name="Wcircumflex" unicode="&#x174;" horiz-adv-x="2117" 
d="M555 0l-516 1434h141l463 -1266h6l379 1266h107l362 -1256h6l447 1256h131l-516 -1434h-156l-332 1159h-6l-350 -1159h-166zM893 1536h-107l230 258h112l230 -258h-109l-174 168h-8z" />
    <glyph glyph-name="wcircumflex" unicode="&#x175;" horiz-adv-x="1380" 
d="M344 0l-307 922h139l254 -807h6l201 788h131l197 -788h6l256 807h119l-302 -922h-165l-181 741h-6l-188 -741h-160zM399 1092l230 309h123l231 -309h-92l-197 219h-6l-196 -219h-93z" />
    <glyph glyph-name="Ycircumflex" unicode="&#x176;" horiz-adv-x="1261" 
d="M92 1434h148l389 -623h6l403 625l131 -2l-473 -734v-700h-139v692zM453 1536h-109l229 258h115l227 -258h-106l-174 168h-8z" />
    <glyph glyph-name="ycircumflex" unicode="&#x177;" horiz-adv-x="917" 
d="M27 -512v104h43q142 0 244.5 111t150.5 291l-428 928h137l346 -764h6l238 764h117l-279 -883q-86 -271 -213 -411t-319 -140h-43zM270 1092h-92l230 309h122l230 -309h-92l-197 219h-6z" />
    <glyph glyph-name="Ydieresis" unicode="&#x178;" horiz-adv-x="1261" 
d="M92 1434h148l389 -623h6l403 625l131 -2l-473 -734v-700h-139v692zM831 1577q-38 0 -65 28t-27 66t27 65t65 27t65.5 -27t27.5 -65t-27.5 -66t-65.5 -28zM430 1577q-38 0 -66 28t-28 66t28 65t66 27t65 -27t27 -65t-27 -66t-65 -28z" />
    <glyph glyph-name="Zacute" unicode="&#x179;" horiz-adv-x="1294" 
d="M190 1434h932v-125l-819 -1182v-6h797v-121h-969v125l827 1182v6h-768v121zM745 1808h148l-209 -272h-102z" />
    <glyph glyph-name="zacute" unicode="&#x17a;" horiz-adv-x="821" 
d="M84 0v106l516 717v6h-477v93h616v-113l-512 -709v-6h512v-94h-655zM379 1096l184 311h158l-256 -311h-86z" />
    <glyph glyph-name="Zdotaccent" unicode="&#x17b;" horiz-adv-x="1294" 
d="M131 125l827 1182v6h-768v121h932v-125l-819 -1182v-6h797v-121h-969v125zM573 1671q0 38 28 65t67 27q38 0 65 -27t27 -65t-27 -66t-65 -28t-66.5 28t-28.5 66z" />
    <glyph glyph-name="zdotaccent" unicode="&#x17c;" horiz-adv-x="821" 
d="M84 0v106l516 717v6h-477v93h616v-113l-512 -709v-6h512v-94h-655zM340 1225q0 38 27 65t65 27q37 0 63.5 -27t26.5 -65q0 -37 -26.5 -64.5t-63.5 -27.5q-38 0 -65 27.5t-27 64.5z" />
    <glyph glyph-name="Zcaron" unicode="&#x17d;" horiz-adv-x="1294" 
d="M131 125l827 1182v6h-768v121h932v-125l-819 -1182v-6h797v-121h-969v125zM369 1794h108l174 -168h8l175 168h108l-229 -258h-115z" />
    <glyph glyph-name="zcaron" unicode="&#x17e;" horiz-adv-x="819" 
d="M739 0h-655v106l516 717v6h-477v93h616v-113l-512 -709v-6h512v-94zM354 1092l-229 309h92l197 -219h6l196 219h93l-230 -309h-125z" />
    <glyph glyph-name="longs" unicode="&#x17f;" horiz-adv-x="573" 
d="M199 1067q0 242 89.5 355.5t250.5 113.5q105 0 176 -39v-108q-83 45 -162 45q-66 0 -112 -28.5t-71.5 -84t-36.5 -127t-11 -168.5v-1026h-123v1067z" />
    <glyph glyph-name="uni018F" unicode="&#x18f;" horiz-adv-x="1495" 
d="M713 -2q-259 0 -405 188.5t-132 503.5h995q-1 124 -37 237t-101 201t-166.5 140.5t-223.5 52.5q-190 0 -356 -102l-45 102q193 121 420 121q143 0 264 -53.5t207.5 -150.5t135 -239t48.5 -313q0 -165 -47.5 -297.5t-130.5 -217t-192 -129t-234 -44.5zM1167 580h-848
q1 -132 48.5 -235t136.5 -162t207 -60q127 0 230 58.5t163 163t63 235.5z" />
    <glyph glyph-name="florin" unicode="&#x192;" horiz-adv-x="673" 
d="M-197 -365q79 -43 162 -43q129 0 181.5 104t52.5 304v827h-142v82l142 13v145q0 242 89.5 355.5t250.5 113.5q105 0 176 -39v-108q-83 45 -162 45q-66 0 -112 -28.5t-71.5 -84t-36.5 -127t-11 -168.5v-104h286v-95h-286v-868q0 -244 -90 -357.5t-252 -113.5
q-106 0 -177 39v108z" />
    <glyph glyph-name="uni019D" unicode="&#x19d;" horiz-adv-x="1341" 
d="M-287 -465l23 107q26 -13 89.5 -26t108.5 -13q128 -2 187 73.5t59 274.5v1483h127l721 -1196h6v1196h129v-1434h-129l-721 1180h-6v-1229q0 -115 -17.5 -196t-59 -142.5t-115 -91t-181.5 -29.5q-54 0 -122.5 13.5t-98.5 29.5z" />
    <glyph glyph-name="Gcaron" unicode="&#x1e6;" horiz-adv-x="1372" 
d="M807 -20q-300 0 -484.5 204.5t-183.5 552.5q0 164 51 297.5t141.5 223t216.5 138t275 48.5q230 0 437 -96l-54 -109q-184 88 -379 88q-254 0 -398 -157.5t-144 -432.5q-1 -295 140.5 -469t381.5 -174q167 0 326 84v416h-324v106h451v-596q-100 -59 -220.5 -91.5
t-232.5 -32.5zM524 1794h109l174 -168h8l174 168h109l-230 -258h-114z" />
    <glyph glyph-name="gcaron" unicode="&#x1e7;" horiz-adv-x="1081" 
d="M504 -512q-207 0 -314.5 76t-107.5 205q0 149 182 243q-139 50 -139 174q0 58 36 107.5t101 79.5q-104 84 -104 239q0 66 18.5 119.5t51.5 87.5t71 58t83.5 36.5t82.5 17.5t74 5q124 0 223 -53q36 64 101.5 108t156.5 43v-108q-126 5 -191 -90q91 -87 91 -224
q0 -78 -29.5 -138t-72 -93.5t-98 -55t-99 -28t-82.5 -6.5q-112 0 -201 37q-42 -20 -70 -53t-28 -70q0 -59 74.5 -88t244.5 -29q105 0 183.5 -12.5t131 -35t85 -58t46 -78t13.5 -97.5q0 -142 -143 -230.5t-371 -88.5zM555 -25q-87 0 -154 9q-78 -23 -137 -75.5t-59 -121.5
q0 -101 85 -151t218 -50q80 0 148 12.5t122 37.5t84.5 67.5t30.5 97.5q0 97 -74.5 135.5t-263.5 38.5zM539 846q-133 0 -196.5 -65.5t-61.5 -168.5q0 -103 62 -167t196 -64q121 0 189.5 67t68.5 164q0 96 -69.5 165t-188.5 69zM244 1401h92l196 -219h7l196 219h92l-231 -309
h-123z" />
    <glyph glyph-name="uni01EA" unicode="&#x1ea;" horiz-adv-x="1501" 
d="M752 -20q-190 0 -330 94.5t-211.5 260t-71.5 382.5t71.5 382.5t211.5 260t330 94.5q189 0 328.5 -94.5t211.5 -260.5t72 -382q0 -291 -129 -487t-358 -238q-38 -20 -66.5 -64t-28.5 -92q0 -39 19.5 -56.5t44.5 -17.5q30 0 53 15v-70q-7 -5 -29.5 -11.5t-42.5 -6.5
q-58 0 -96.5 33t-38.5 98q0 82 82 160h-22zM283 717q0 -180 54 -318.5t161.5 -218.5t253.5 -80q219 0 343 171t124 446q0 181 -53.5 319t-160.5 217.5t-253 79.5t-253.5 -79t-161.5 -217.5t-54 -319.5z" />
    <glyph glyph-name="uni01EB" unicode="&#x1eb;" horiz-adv-x="1056" 
d="M506 -14q-172 8 -285 132.5t-112 342.5q0 225 120 351t299 126q181 0 301.5 -126t120.5 -351q0 -201 -97 -323t-251 -148q-37 -18 -65.5 -61.5t-28.5 -92.5q0 -39 20 -56.5t45 -17.5q31 0 54 15v-70q-30 -18 -72 -18q-58 0 -96.5 33t-38.5 98q0 44 24.5 88t61.5 78z
M236 461q0 -163 77.5 -267t214.5 -104q138 0 215.5 103.5t77.5 267.5t-77.5 268.5t-215.5 104.5q-137 0 -214.5 -104.5t-77.5 -268.5z" />
    <glyph glyph-name="Aringacute" unicode="&#x1fa;" horiz-adv-x="1308" 
d="M78 0l545 1442h71l537 -1442h-141l-127 346h-631l-127 -346h-127zM649 1186l-278 -733h555l-271 733h-6zM653 1466q-91 0 -154 55.5t-63 157.5t64 158.5t153 56.5q106 0 166 -69l205 147l68 -88l-232 -131q12 -35 12 -74q0 -101 -64.5 -157t-154.5 -56zM516 1679
q0 -64 37.5 -103.5t99.5 -39.5t102 40t40 103t-40.5 104.5t-101.5 41.5q-62 0 -99.5 -41t-37.5 -105z" />
    <glyph glyph-name="aringacute" unicode="&#x1fb;" horiz-adv-x="974" 
d="M92 248q0 105 54 180t137.5 109t185.5 34q106 0 231 -41q0 57 -5.5 100t-21.5 83.5t-42.5 66t-70.5 41t-103 15.5q-133 0 -256 -86l-47 86q75 47 149 74.5t170 27.5q184 0 268 -94.5t84 -280.5v-389q0 -109 41 -174h-129q-25 49 -28 106h-7q-130 -124 -296 -124
q-146 0 -230 74.5t-84 191.5zM268 1171q0 104 64 155.5t170 51.5l149 250h156l-225 -274q48 -25 77 -71.5t29 -111.5q0 -99 -61.5 -152.5t-149.5 -53.5t-148.5 53.5t-60.5 152.5zM217 262q0 -87 56.5 -135.5t152.5 -48.5q78 0 155 45.5t121 101.5v205q-34 19 -97 35t-120 16
q-112 0 -190 -58t-78 -161zM344 1171q0 -62 36.5 -100.5t96.5 -38.5t97.5 38.5t37.5 100.5q0 61 -38 100.5t-97 39.5t-96 -39.5t-37 -100.5z" />
    <glyph glyph-name="AEacute" unicode="&#x1fc;" horiz-adv-x="1943" 
d="M78 0l848 1434h870v-115h-666v-528h605v-109h-605v-567h666v-115h-801v346h-577l-205 -346h-135zM991 1319l-514 -866h518v866h-4zM1335 1536h-100l164 272h147z" />
    <glyph glyph-name="aeacute" unicode="&#x1fd;" horiz-adv-x="1548" 
d="M406 -18q-146 0 -230 74.5t-84 191.5q0 105 54 179.5t137.5 108t185.5 33.5h188v6q-3 131 -52 196t-163 65q-133 0 -256 -86l-47 86q49 30 87.5 48.5t102 36t128.5 17.5q235 0 293 -176q51 87 130 130.5t173 43.5q181 0 280.5 -124.5t87.5 -334.5h-637q2 -177 80.5 -284
t216.5 -107q75 0 144 20t110 48l41 -86q-132 -82 -305 -82q-215 0 -328 172h-6q-57 -70 -142.5 -123t-188.5 -53zM217 262q0 -87 56.5 -135.5t152.5 -48.5q80 0 159.5 47.5t121.5 105.5q-41 97 -41 248h-181q-113 0 -190.5 -56.5t-77.5 -160.5zM1053 838
q-111 0 -182.5 -73.5t-86.5 -193.5h521q-1 124 -69.5 194.5t-182.5 72.5zM725 1096l186 311h156l-256 -311h-86z" />
    <glyph glyph-name="Oslashacute" unicode="&#x1fe;" horiz-adv-x="1501" 
d="M139 717q0 217 71.5 382.5t211.5 260t330 94.5q192 0 335 -98l72 129h76l-96 -170q109 -98 167 -252t58 -346q0 -216 -72 -382t-211.5 -260.5t-328.5 -94.5q-180 0 -318 86l-67 -117h-74l88 155q-118 96 -180 254.5t-62 358.5zM752 1333q-146 0 -253.5 -79t-161.5 -217.5
t-54 -319.5q0 -157 42 -285t121 -209l576 1018q-112 92 -270 92zM498 180q110 -80 254 -80q219 0 343 171t124 446q0 306 -148 477zM784 1536h-100l162 272h147z" />
    <glyph glyph-name="oslashacute" unicode="&#x1ff;" horiz-adv-x="1056" 
d="M289 57q-85 59 -133 161.5t-47 242.5q0 225 120 351t299 126q128 0 222 -61l57 102l51 -29l-61 -106q153 -133 153 -383q0 -225 -120.5 -351t-301.5 -126q-102 0 -190 45l-53 -92l-49 24zM346 158l350 620q-72 56 -168 56q-137 0 -214.5 -104.5t-77.5 -268.5
q0 -202 110 -303zM391 125q59 -35 137 -35q138 0 215.5 103.5t77.5 267.5q0 172 -84 276zM555 1096h-86l186 311h158z" />
    <glyph glyph-name="uni0218" unicode="&#x218;" horiz-adv-x="1185" 
d="M569 -14q-117 0 -255 38t-238 101l63 108q211 -131 428 -131q164 0 267.5 82.5t103.5 196.5q0 108 -91 177t-290 112q-103 23 -175.5 52.5t-129 75t-84 111.5t-27.5 154q0 173 125 277t328 104q233 0 450 -121l-63 -109q-78 49 -181.5 83t-201.5 34q-81 0 -144.5 -23.5
t-101.5 -62.5t-57 -85t-19 -95q0 -110 77.5 -169.5t244.5 -96.5q123 -29 206 -61t146.5 -79.5t93 -114t29.5 -157.5q-1 -81 -29 -148.5t-76 -113.5t-112.5 -78t-136.5 -46.5t-150 -14.5zM432 -356v73q131 52 100 224h101q21 -114 -40 -196.5t-161 -100.5z" />
    <glyph glyph-name="uni0219" unicode="&#x219;" horiz-adv-x="870" 
d="M106 68l48 94q45 -33 119.5 -55.5t150.5 -22.5q93 0 147 40t54 107q0 69 -51.5 111.5t-178.5 81.5q-256 77 -256 260q0 123 90 188.5t234 65.5q176 0 285 -72l-43 -88q-95 64 -236 64q-91 0 -147 -40.5t-56 -101.5q0 -69 43.5 -105t130.5 -63q163 -49 237.5 -116.5
t74.5 -177.5q0 -118 -92.5 -184t-231.5 -66q-199 0 -322 80zM279 -283q131 52 100 224h100q21 -114 -39.5 -196.5t-160.5 -100.5v73z" />
    <glyph glyph-name="uni021A" unicode="&#x21a;" horiz-adv-x="1269" 
d="M115 1319v115h1040v-115h-457v-1319h-135v1319h-448zM694 -59q20 -114 -40.5 -196.5t-161.5 -100.5v73q131 50 100 224h102z" />
    <glyph glyph-name="uni021B" unicode="&#x21b;" horiz-adv-x="677" 
d="M98 825v74l117 23l37 254h86v-254h254v-97h-254v-532q0 -120 38 -165.5t101 -45.5q66 0 111 39v-76q-17 -20 -62.5 -36.5t-83.5 -16.5q-107 0 -167 66.5t-60 222.5v544h-117zM283 -283q131 50 100 224h102q21 -114 -39.5 -196.5t-162.5 -100.5v73z" />
    <glyph glyph-name="uni0232" unicode="&#x232;" horiz-adv-x="1261" 
d="M92 1434h148l389 -623h6l403 625l131 -2l-473 -734v-700h-139v692zM268 1597v66h725v-66h-725z" />
    <glyph glyph-name="uni0233" unicode="&#x233;" horiz-adv-x="917" 
d="M27 -512v104h43q142 0 244.5 111t150.5 291l-428 928h137l346 -764h6l238 764h117l-279 -883q-86 -271 -213 -411t-319 -140h-43zM737 1106h-557v65h557v-65z" />
    <glyph glyph-name="uni0237" unicode="&#x237;" horiz-adv-x="411" 
d="M-109 -506h-34v109h34q149 0 208 91t59 314v914h123v-920q0 -127 -18 -216.5t-61 -157.5t-120 -101t-191 -33z" />
    <glyph glyph-name="uni0259" unicode="&#x259;" horiz-adv-x="1048" 
d="M498 0q-180 0 -281.5 131t-87.5 342h670q-3 172 -91.5 274.5t-230.5 102.5q-76 0 -148.5 -20t-115.5 -48l-41 86q135 84 315 84q88 0 166.5 -32.5t138.5 -92t95 -151t35 -201.5q0 -114 -34 -205.5t-93 -149.5t-135 -89t-162 -31zM791 379h-545q0 -125 70 -202t182 -77
q122 -1 199.5 78t93.5 201z" />
    <glyph glyph-name="uni0272" unicode="&#x272;" horiz-adv-x="1048" 
d="M279 23q0 -101 -9.5 -179t-34 -146t-65 -111.5t-103 -68t-147.5 -24.5v107q132 0 184 100t52 328v893h106l10 -177h7q37 82 111 139.5t177 57.5q183 0 268 -112t85 -343v-487h-123v449q0 93 -11 159.5t-38 120t-77 80.5t-124 27q-98 0 -167.5 -84.5t-100.5 -216.5v-512z
" />
    <glyph glyph-name="circumflex" unicode="&#x2c6;" horiz-adv-x="909" 
d="M166 1092l229 309h123l230 -309h-91l-196 219h-6l-197 -219h-92z" />
    <glyph glyph-name="caron" unicode="&#x2c7;" horiz-adv-x="909" 
d="M393 1092l-229 309h92l197 -219h6l194 219h92l-229 -309h-123z" />
    <glyph glyph-name="breve" unicode="&#x2d8;" horiz-adv-x="1056" 
d="M528 1069q-48 0 -92 14.5t-83 44.5t-65.5 82.5t-33.5 122.5h100q12 -85 56.5 -133.5t117.5 -48.5q74 0 118.5 49.5t55.5 132.5h101q-14 -134 -92.5 -199t-182.5 -65z" />
    <glyph glyph-name="dotaccent" unicode="&#x2d9;" horiz-adv-x="466" 
d="M141 1225q0 38 27 65t65 27q37 0 64 -27t27 -65q0 -37 -27 -64.5t-64 -27.5q-38 0 -65 27.5t-27 64.5z" />
    <glyph glyph-name="ring" unicode="&#x2da;" horiz-adv-x="649" 
d="M322 965q-88 0 -148.5 53.5t-60.5 152.5t61.5 153t147.5 54t149.5 -54.5t63.5 -152.5q0 -99 -62.5 -152.5t-150.5 -53.5zM190 1171q0 -62 36 -100.5t96 -38.5t97.5 38.5t37.5 100.5q0 61 -37.5 100.5t-97.5 39.5q-59 0 -95.5 -39.5t-36.5 -100.5z" />
    <glyph glyph-name="ogonek" unicode="&#x2db;" horiz-adv-x="477" 
d="M285 -311q-58 0 -96.5 33t-38.5 98q0 69 55 132t110 83h52v-35q-42 0 -84.5 -51.5t-42.5 -112.5q0 -39 19 -56.5t44 -17.5q31 0 53 15v-70q-7 -5 -29 -11.5t-42 -6.5z" />
    <glyph glyph-name="tilde" unicode="&#x2dc;" horiz-adv-x="854" 
d="M123 1124q15 76 57 129.5t121 53.5q37 0 67 -12.5t49.5 -30.5t37.5 -35.5t39.5 -30t46.5 -12.5q47 0 72 32t32 76h80q-9 -73 -55 -128.5t-127 -55.5q-45 0 -81 18.5t-55.5 40t-47.5 40t-58 18.5q-25 0 -43 -9t-29 -26t-16 -32t-10 -36h-80z" />
    <glyph glyph-name="hungarumlaut" unicode="&#x2dd;" horiz-adv-x="907" 
d="M223 1094l205 340h162l-287 -340h-80zM520 1094l205 340h162l-287 -340h-80z" />
    <glyph glyph-name="uni0326" unicode="&#x326;" horiz-adv-x="563" 
d="M385 -59q20 -114 -41 -196.5t-162 -100.5v73q132 50 101 224h102z" />
    <glyph glyph-name="uni0394" unicode="&#x394;" horiz-adv-x="1312" 
d="M100 0v82l516 1360h89l507 -1360v-82h-1112zM238 102h815l-408 1104h-6z" />
    <glyph glyph-name="uni03A9" unicode="&#x3a9;" horiz-adv-x="1490" 
d="M86 0v102h438q-385 378 -385 732q0 277 169 448.5t444 171.5q274 0 443 -171.5t169 -448.5q0 -351 -385 -732h426v-102h-578v102q190 169 294 356t104 365q0 230 -131 374t-342 144q-213 0 -344.5 -144t-131.5 -374q0 -175 102 -360.5t288 -358.5l-2 -2v-102h-578z" />
    <glyph glyph-name="uni03BC" unicode="&#x3bc;" horiz-adv-x="1058" 
d="M252 -410h-123v1332h123v-445q0 -93 12 -160.5t40 -121.5t79.5 -81.5t126.5 -27.5q100 0 173.5 86.5t102.5 216.5v533h123v-922h-104l-12 176h-7q-34 -80 -106.5 -138t-175.5 -58q-171 0 -248 110h-4v-500z" />
    <glyph glyph-name="pi" unicode="&#x3c0;" horiz-adv-x="1122" 
d="M63 811v82l150 10h666q119 0 168 29v-88q-18 -15 -66.5 -24t-101.5 -9h-19v-600q0 -44 10.5 -73.5t30 -43.5t38.5 -19t44 -5v-93q-21 -5 -47 -2t-53.5 8t-53.5 22.5t-46.5 41t-33 63.5t-12.5 91v610h-418v-238q0 -166 -15 -344.5t-28 -246.5h-122q16 70 33.5 248
t17.5 343v238h-142z" />
    <glyph glyph-name="Wgrave" unicode="&#x1e80;" horiz-adv-x="2117" 
d="M555 0l-516 1434h141l463 -1266h6l379 1266h107l362 -1256h6l447 1256h131l-516 -1434h-156l-332 1159h-6l-350 -1159h-166zM1006 1536l-209 272h147l164 -272h-102z" />
    <glyph glyph-name="wgrave" unicode="&#x1e81;" horiz-adv-x="1380" 
d="M344 0l-307 922h139l254 -807h6l201 788h131l197 -788h6l256 807h119l-302 -922h-165l-181 741h-6l-188 -741h-160zM635 1096l-256 311h156l186 -311h-86z" />
    <glyph glyph-name="Wacute" unicode="&#x1e82;" horiz-adv-x="2117" 
d="M555 0l-516 1434h141l463 -1266h6l379 1266h107l362 -1256h6l447 1256h131l-516 -1434h-156l-332 1159h-6l-350 -1159h-166zM1141 1536h-103l164 272h148z" />
    <glyph glyph-name="wacute" unicode="&#x1e83;" horiz-adv-x="1380" 
d="M344 0l-307 922h139l254 -807h6l201 788h131l197 -788h6l256 807h119l-302 -922h-165l-181 741h-6l-188 -741h-160zM659 1096l185 311h157l-256 -311h-86z" />
    <glyph glyph-name="Wdieresis" unicode="&#x1e84;" horiz-adv-x="2117" 
d="M555 0l-516 1434h141l463 -1266h6l379 1266h107l362 -1256h6l447 1256h131l-516 -1434h-156l-332 1159h-6l-350 -1159h-166zM1184 1671q0 38 28 65t66 27t65 -27t27 -65t-27 -66t-65 -28t-66 28t-28 66zM877 1577q-38 0 -66.5 28t-28.5 66t28 65t67 27q38 0 65 -27
t27 -65t-27 -66t-65 -28z" />
    <glyph glyph-name="wdieresis" unicode="&#x1e85;" horiz-adv-x="1380" 
d="M344 0l-307 922h139l254 -807h6l201 788h131l197 -788h6l256 807h119l-302 -922h-165l-181 741h-6l-188 -741h-160zM864 1133q-38 0 -65 27.5t-27 64.5q0 38 27 65t65 27q37 0 63.5 -27t26.5 -65q0 -37 -26.5 -64.5t-63.5 -27.5zM537 1133q-38 0 -65.5 27.5t-27.5 64.5
q0 38 27.5 65t65.5 27q37 0 63.5 -27t26.5 -65q0 -37 -26.5 -64.5t-63.5 -27.5z" />
    <glyph glyph-name="Germandbls" unicode="&#x1e9e;" horiz-adv-x="1318" 
d="M180 0v1092q0 146 89.5 244t236.5 98h631v-97q-13 -12 -48 -43t-50.5 -45.5t-46 -44t-45.5 -48t-36 -47t-31.5 -51.5t-18 -51.5t-7.5 -56.5q0 -52 23 -99t60 -84.5t82 -75t90 -78t82 -85t60 -104t23 -127.5q0 -125 -107.5 -218t-255.5 -93q-106 0 -195 21.5t-143 53.5
l50 111q44 -28 121.5 -50t148.5 -22q104 0 173 65t69 138q0 51 -22.5 98.5t-58.5 86.5t-79.5 77.5t-87 78.5t-79.5 82.5t-58.5 97t-22.5 114.5q0 100 71 197.5t175 179.5v6h-453q-97 0 -152 -64.5t-55 -164.5v-1092h-133z" />
    <glyph glyph-name="uni1EA0" unicode="&#x1ea0;" horiz-adv-x="1308" 
d="M78 0l545 1442h71l537 -1442h-141l-127 346h-631l-127 -346h-127zM649 1186l-278 -733h555l-271 733h-6zM649 -319q-38 0 -65 28t-27 66t27 66t65 28t65 -28t27 -66t-27 -66t-65 -28z" />
    <glyph glyph-name="uni1EA1" unicode="&#x1ea1;" horiz-adv-x="974" 
d="M92 248q0 105 54 180t137.5 109t185.5 34q106 0 231 -41q0 57 -5.5 100t-21.5 83.5t-42.5 66t-70.5 41t-103 15.5q-133 0 -256 -86l-47 86q75 47 149 74.5t170 27.5q184 0 268 -94.5t84 -280.5v-389q0 -109 41 -174h-129q-25 49 -28 106h-7q-130 -124 -296 -124
q-146 0 -230 74.5t-84 191.5zM485 481q-112 0 -190 -58t-78 -161q0 -87 56.5 -135.5t152.5 -48.5q78 0 155 45.5t121 101.5v205q-34 19 -97 35t-120 16zM403 -225q0 38 27.5 65t65.5 27q37 0 63.5 -27t26.5 -65q0 -37 -26.5 -64.5t-63.5 -27.5q-38 0 -65.5 27.5t-27.5 64.5z
" />
    <glyph glyph-name="uni1EB8" unicode="&#x1eb8;" horiz-adv-x="1126" 
d="M180 0v1434h801v-115h-668v-528h607v-109h-607v-567h668v-115h-801zM588 -319q-38 0 -65 28t-27 66t27 66t65 28t65 -28t27 -66t-27 -66t-65 -28z" />
    <glyph glyph-name="uni1EB9" unicode="&#x1eb9;" horiz-adv-x="1048" 
d="M129 461q0 114 34 205.5t92.5 149.5t134.5 89t163 31q179 0 280 -131t89 -342h-670q1 -172 89 -274.5t230 -102.5q76 0 150 20t115 48l41 -86q-132 -82 -316 -82q-88 0 -166 32t-137.5 91t-94 150t-34.5 202zM260 559h545q-1 124 -71 200.5t-183 78.5q-123 0 -200 -79
t-91 -200zM461 -225q0 38 27 65t65 27q37 0 63.5 -27t26.5 -65q0 -37 -26.5 -64.5t-63.5 -27.5q-38 0 -65 27.5t-27 64.5z" />
    <glyph glyph-name="uni1EBC" unicode="&#x1ebc;" horiz-adv-x="1126" 
d="M180 0v1434h801v-115h-668v-528h607v-109h-607v-567h668v-115h-801zM369 1565h-82q12 72 56 122t124 50q45 0 81.5 -17.5t55.5 -38t46 -38t57 -17.5q86 0 102 96h84q-8 -72 -54 -123t-128 -51q-38 0 -69 11t-51 27t-38 31.5t-39.5 26.5t-46.5 11q-47 0 -67.5 -24.5
t-30.5 -65.5z" />
    <glyph glyph-name="uni1EBD" unicode="&#x1ebd;" horiz-adv-x="1048" 
d="M129 461q0 114 34 205.5t92.5 149.5t134.5 89t163 31q179 0 280 -131t89 -342h-670q1 -172 89 -274.5t230 -102.5q76 0 150 20t115 48l41 -86q-132 -82 -316 -82q-88 0 -166 32t-137.5 91t-94 150t-34.5 202zM260 559h545q-1 124 -71 200.5t-183 78.5q-123 0 -200 -79
t-91 -200zM246 1124q15 76 57.5 129.5t122.5 53.5q37 0 66.5 -12.5t49 -30.5t37 -35.5t39.5 -30t48 -12.5q46 0 71.5 32.5t30.5 75.5h82q-10 -73 -57 -128.5t-127 -55.5q-45 0 -80.5 18.5t-55 40t-47 40t-57.5 18.5q-47 0 -68.5 -29t-31.5 -74h-80z" />
    <glyph glyph-name="uni1ECA" unicode="&#x1eca;" horiz-adv-x="493" 
d="M180 0v1434h133v-1434h-133zM156 -225q0 38 28 66t66 28q37 0 64.5 -28t27.5 -66t-27.5 -66t-64.5 -28q-38 0 -66 28t-28 66z" />
    <glyph glyph-name="uni1ECB" unicode="&#x1ecb;" horiz-adv-x="466" 
d="M297 0h-123v922h123v-922zM139 1331q0 40 27 68t67 28q39 0 67 -28.5t28 -67.5q0 -38 -28.5 -66t-66.5 -28q-39 0 -66.5 27.5t-27.5 66.5zM233 -317q-38 0 -65 27.5t-27 64.5q0 38 27 65t65 27q37 0 64 -27t27 -65q0 -37 -27 -64.5t-64 -27.5z" />
    <glyph glyph-name="uni1ECC" unicode="&#x1ecc;" horiz-adv-x="1501" 
d="M752 -20q-190 0 -330 94.5t-211.5 260t-71.5 382.5t71.5 382.5t211.5 260t330 94.5q189 0 328.5 -94.5t211.5 -260.5t72 -382t-72 -382t-211.5 -260.5t-328.5 -94.5zM283 717q0 -180 54 -318.5t161.5 -218.5t253.5 -80q219 0 343 171t124 446q0 181 -53.5 319
t-160.5 217.5t-253 79.5t-253.5 -79t-161.5 -217.5t-54 -319.5zM754 -324q-38 0 -65 29t-27 66q0 38 27 66t65 28t65 -28t27 -66q0 -37 -27 -66t-65 -29z" />
    <glyph glyph-name="uni1ECD" unicode="&#x1ecd;" horiz-adv-x="1056" 
d="M528 -16q-180 0 -300 126t-119 351q0 225 120 351t299 126q181 0 301.5 -126t120.5 -351t-120.5 -351t-301.5 -126zM236 461q0 -163 77.5 -267t214.5 -104q138 0 215.5 103.5t77.5 267.5t-77.5 268.5t-215.5 104.5q-137 0 -214.5 -104.5t-77.5 -268.5zM528 -319
q-38 0 -65 27.5t-27 64.5q0 38 27 66t65 28q37 0 63.5 -28t26.5 -66q0 -37 -26.5 -64.5t-63.5 -27.5z" />
    <glyph glyph-name="uni1EE4" unicode="&#x1ee4;" horiz-adv-x="1261" 
d="M139 1434h133v-820q0 -139 24.5 -240t72.5 -162t112.5 -89.5t149.5 -28.5q183 -2 273.5 119t90.5 401v820h127v-799q0 -161 -25.5 -278.5t-82.5 -203t-152.5 -127.5t-230.5 -42q-265 0 -378.5 161.5t-113.5 489.5v799zM547 -229q0 39 27.5 66.5t66.5 27.5q37 0 64.5 -28
t27.5 -66q0 -37 -28 -66t-64 -29q-39 0 -66.5 28.5t-27.5 66.5z" />
    <glyph glyph-name="uni1EE5" unicode="&#x1ee5;" horiz-adv-x="1040" 
d="M129 922h123v-447q0 -75 6.5 -131.5t23.5 -106.5t45 -82.5t72 -50.5t103 -18q98 0 167.5 84.5t100.5 216.5v535h123v-922h-107l-12 176h-6q-37 -82 -110.5 -139t-176.5 -57q-184 0 -268 119t-84 376v447zM532 -319q-38 0 -65 27.5t-27 64.5q0 38 27 66t65 28q37 0 64 -28
t27 -66q0 -37 -27 -64.5t-64 -27.5z" />
    <glyph glyph-name="Ygrave" unicode="&#x1ef2;" horiz-adv-x="1261" 
d="M92 1434h148l389 -623h6l403 625l131 -2l-473 -734v-700h-139v692zM350 1808h148l164 -272h-101z" />
    <glyph glyph-name="ygrave" unicode="&#x1ef3;" horiz-adv-x="917" 
d="M27 -512v104h43q142 0 244.5 111t150.5 291l-428 928h137l346 -764h6l238 764h117l-279 -883q-86 -271 -213 -411t-319 -140h-43zM416 1096l-256 311h157l185 -311h-86z" />
    <glyph glyph-name="uni1EF8" unicode="&#x1ef8;" horiz-adv-x="1261" 
d="M557 692l-465 742h148l389 -623h6l403 625l131 -2l-473 -734v-700h-139v692zM410 1565h-82q12 72 56 122t124 50q45 0 81.5 -17.5t55.5 -38t46 -38t57 -17.5q86 0 102 96h84q-8 -72 -54 -123t-128 -51q-38 0 -69 11t-51 27t-38 31.5t-39.5 26.5t-46.5 11
q-47 0 -67.5 -24.5t-30.5 -65.5z" />
    <glyph glyph-name="uni1EF9" unicode="&#x1ef9;" horiz-adv-x="917" 
d="M70 -512h-43v104h43q142 0 244.5 111t150.5 291l-428 928h137l346 -764h6l238 764h117l-279 -883q-86 -271 -213 -411t-319 -140zM158 1124q15 76 57 129.5t121 53.5q45 0 81 -19t55 -41.5t46 -41.5t57 -19q47 0 72.5 32t32.5 76h80q-9 -73 -55 -128.5t-127 -55.5
q-45 0 -81.5 18.5t-56 40t-47 40t-57.5 18.5q-25 0 -43 -9t-29 -26t-16 -32t-10 -36h-80z" />
    <glyph glyph-name="endash" unicode="&#x2013;" horiz-adv-x="1196" 
d="M125 477v76h948v-76h-948z" />
    <glyph glyph-name="emdash" unicode="&#x2014;" horiz-adv-x="1765" 
d="M125 477v76h1517v-76h-1517z" />
    <glyph glyph-name="quoteleft" unicode="&#x2018;" horiz-adv-x="495" 
d="M233 1042h-102q0 250 117 494h67q-82 -230 -82 -494z" />
    <glyph glyph-name="quoteright" unicode="&#x2019;" horiz-adv-x="495" 
d="M213 1042h-68q82 230 82 494h103q0 -260 -117 -494z" />
    <glyph glyph-name="quotesinglbase" unicode="&#x201a;" horiz-adv-x="495" 
d="M213 -289h-68q82 230 82 494h103q0 -260 -117 -494z" />
    <glyph glyph-name="quotedblleft" unicode="&#x201c;" horiz-adv-x="825" 
d="M563 1042h-102q0 145 35.5 278.5t81.5 225.5h67q-32 -90 -57 -224t-25 -280zM131 1042q0 250 117 494h67q-82 -230 -82 -494h-102z" />
    <glyph glyph-name="quotedblright" unicode="&#x201d;" horiz-adv-x="825" 
d="M213 1032h-68q32 90 57 224t25 280h103q0 -145 -35.5 -278.5t-81.5 -225.5zM543 1042h-68q82 230 82 494h102q0 -252 -116 -494z" />
    <glyph glyph-name="quotedblbase" unicode="&#x201e;" horiz-adv-x="851" 
d="M213 -299h-68q32 90 57 224t25 280h103q0 -145 -35.5 -278.5t-81.5 -225.5zM543 -289h-68q82 230 82 494h102q0 -252 -116 -494z" />
    <glyph glyph-name="dagger" unicode="&#x2020;" horiz-adv-x="688" 
d="M76 797v63h231v574h74v-574h231v-63h-231v-1043h-74v1043h-231z" />
    <glyph glyph-name="daggerdbl" unicode="&#x2021;" horiz-adv-x="688" 
d="M76 856v64h231v514h74v-514h231v-64h-231v-522h231v-64h-231v-514h-74v514h-231v64h231v522h-231z" />
    <glyph glyph-name="bullet" unicode="&#x2022;" horiz-adv-x="530" 
d="M135 682q0 54 38.5 92.5t92.5 38.5t91.5 -38.5t37.5 -92.5q0 -53 -38 -92t-91 -39q-54 0 -92.5 39t-38.5 92z" />
    <glyph glyph-name="ellipsis" unicode="&#x2026;" horiz-adv-x="1331" 
d="M139 84q0 40 28 68t66 28q39 0 67 -28t28 -68q0 -37 -28.5 -65.5t-66.5 -28.5t-66 28.5t-28 65.5zM666 -10q-39 0 -68 28.5t-29 65.5q0 40 28.5 68t68.5 28q38 0 66 -28t28 -68q0 -37 -28 -65.5t-66 -28.5zM1001 84q0 40 28.5 68t68.5 28q38 0 66 -28t28 -68
q0 -37 -28 -65.5t-66 -28.5q-39 0 -68 28.5t-29 65.5z" />
    <glyph glyph-name="perthousand" unicode="&#x2030;" horiz-adv-x="1898" 
d="M1032 -16q-129 0 -206.5 89.5t-77.5 245.5q0 157 77.5 248.5t206.5 91.5q166 0 236 -149q76 149 243 149q128 0 202.5 -91t74.5 -249q0 -157 -74.5 -246t-202.5 -89q-81 0 -143.5 37.5t-99.5 107.5q-71 -145 -236 -145zM399 774q-129 0 -206.5 90t-77.5 246
q0 157 77.5 248.5t206.5 91.5q127 0 201 -91t76 -249q0 -157 -74.5 -246.5t-202.5 -89.5zM195 1110q0 -124 56 -198t148 -72q93 0 145 72.5t52 197.5q0 126 -52 200t-145 74q-92 0 -148 -75.5t-56 -198.5zM1307 319q0 -123 56 -196.5t148 -73.5q93 0 146 72.5t53 197.5
q0 126 -52.5 201.5t-146.5 75.5q-92 0 -148 -76t-56 -201zM1032 596q-94 0 -150.5 -76t-56.5 -201q0 -124 56.5 -197t150.5 -73q92 0 144.5 72.5t52.5 197.5q0 126 -52 201.5t-145 75.5zM430 20h-74l643 1393h74z" />
    <glyph glyph-name="guilsinglleft" unicode="&#x2039;" horiz-adv-x="671" 
d="M193 459l360 -426h-76l-358 411v37l360 408h74l-360 -414v-16z" />
    <glyph glyph-name="guilsinglright" unicode="&#x203a;" horiz-adv-x="671" 
d="M82 33l362 426v16l-362 414h74l360 -408v-37l-358 -411h-76z" />
    <glyph glyph-name="fraction" unicode="&#x2044;" horiz-adv-x="172" 
d="M-289 0h-67l811 1331h59z" />
    <glyph glyph-name="uni2070" unicode="&#x2070;" horiz-adv-x="569" 
d="M289 911q-110 0 -171 84.5t-61 225.5q0 138 61 222.5t171 84.5q109 0 167 -83.5t58 -223.5q0 -142 -57.5 -226t-167.5 -84zM133 1221q0 -111 40 -176.5t116 -65.5q75 0 111 64.5t36 177.5t-36 177t-111 64q-76 0 -116 -65t-40 -176z" />
    <glyph glyph-name="uni2074" unicode="&#x2074;" horiz-adv-x="550" 
d="M61 1090l306 419h61v-415h70v-60h-70v-114h-68v114h-299v56zM356 1403l-221 -305v-4h225v309h-4z" />
    <glyph glyph-name="uni2075" unicode="&#x2075;" horiz-adv-x="542" 
d="M262 905q-109 0 -213 76l35 57q34 -24 50 -33.5t52 -22.5t72 -13q76 0 120 40.5t44 108.5q0 137 -133 137q-84 0 -135 -41l-50 33l17 264h332v-67h-277l-10 -160l4 -2q68 35 131 35q87 0 143 -47t56 -154q0 -105 -71.5 -158t-166.5 -53z" />
    <glyph glyph-name="uni2076" unicode="&#x2076;" horiz-adv-x="561" 
d="M291 913q-112 0 -176 74t-64 195q0 173 74.5 259.5t191.5 86.5q98 0 179 -58l-41 -53q-25 15 -38 22t-42 16t-58 9q-86 0 -135 -67t-49 -150h4q19 31 63.5 55.5t94.5 24.5q98 0 154.5 -58t56.5 -147q0 -91 -57.5 -150t-157.5 -59zM139 1128q0 -70 45.5 -112.5
t106.5 -42.5q58 0 98.5 38t40.5 111q0 74 -41 111t-98 37q-64 0 -108 -37.5t-44 -104.5z" />
    <glyph glyph-name="uni2077" unicode="&#x2077;" horiz-adv-x="493" 
d="M53 1509h391v-57q-100 -164 -148.5 -267t-92.5 -265h-82q53 170 100.5 271.5t136.5 244.5v4h-305v69z" />
    <glyph glyph-name="uni2078" unicode="&#x2078;" horiz-adv-x="557" 
d="M279 911q-104 0 -165 46.5t-61 123.5q0 117 113 160v4q-78 40 -78 131q0 65 53 108.5t138 43.5q87 0 139.5 -43t52.5 -109q0 -92 -80 -131v-4q113 -40 113 -160q0 -77 -60 -123.5t-165 -46.5zM279 1210q-67 0 -107.5 -33.5t-40.5 -93.5q0 -54 38 -84t110 -30
q147 0 147 114q0 61 -39.5 94t-107.5 33zM162 1376q0 -49 31.5 -77.5t85.5 -28.5q116 0 116 106q0 39 -30 68t-86 29q-55 0 -85 -28.5t-32 -68.5z" />
    <glyph glyph-name="uni2079" unicode="&#x2079;" horiz-adv-x="561" 
d="M57 1319q0 91 57 150t158 59q111 0 174.5 -74t63.5 -194q0 -174 -73.5 -260.5t-190.5 -86.5q-97 0 -178 58l38 53q2 -1 13 -7.5t14.5 -8.5t14.5 -7.5t17 -7.5t16.5 -6t19.5 -5.5t20.5 -3t22.5 -1.5q86 0 135 66.5t51 150.5h-4q-19 -31 -63.5 -55.5t-96.5 -24.5
q-98 0 -153.5 58t-55.5 147zM133 1319q0 -74 40.5 -111t98.5 -37q62 0 106 37.5t44 104.5q0 70 -45 112.5t-105 42.5q-59 0 -99 -38t-40 -111z" />
    <glyph glyph-name="uni2080" unicode="&#x2080;" horiz-adv-x="569" 
d="M289 -113q-110 0 -171 84.5t-61 225.5q0 138 61 222.5t171 84.5q109 0 167 -83.5t58 -223.5q0 -142 -57.5 -226t-167.5 -84zM133 197q0 -111 40 -176.5t116 -65.5q75 0 111 64.5t36 177.5t-36 177t-111 64q-76 0 -116 -65t-40 -176z" />
    <glyph glyph-name="uni2081" unicode="&#x2081;" horiz-adv-x="385" 
d="M82 319l-33 52l164 114h59v-587h-75v495h-4z" />
    <glyph glyph-name="uni2082" unicode="&#x2082;" horiz-adv-x="552" 
d="M78 375q80 133 211 133q79 0 127.5 -41.5t48.5 -116.5q0 -43 -21 -86.5t-40 -65.5t-54 -57l-164 -170v-4h295v-69h-401v61l211 217q30 30 44.5 45.5t34 52.5t19.5 72q0 45 -27.5 70.5t-76.5 25.5q-35 0 -66 -17t-47 -35t-37 -48z" />
    <glyph glyph-name="uni2083" unicode="&#x2083;" horiz-adv-x="557" 
d="M270 -109q-123 0 -200 60l34 57q72 -53 164 -53q64 0 102 28.5t38 82.5t-39 84t-105 30h-65v58h65q60 0 93.5 29t33.5 77q0 44 -28 68t-82 24q-78 0 -152 -61l-35 53q88 72 189 72q81 0 131.5 -35.5t50.5 -114.5q0 -90 -88 -133v-4q108 -42 108 -152q-1 -39 -14.5 -70
t-34.5 -49.5t-50.5 -30t-57 -16t-58.5 -4.5z" />
    <glyph glyph-name="uni2084" unicode="&#x2084;" horiz-adv-x="550" 
d="M61 66l306 419h61v-415h70v-60h-70v-114h-68v114h-299v56zM356 379l-221 -305v-4h225v309h-4z" />
    <glyph glyph-name="uni2085" unicode="&#x2085;" horiz-adv-x="542" 
d="M262 -119q-109 0 -213 76l35 57q34 -24 50 -33.5t52 -22.5t72 -13q76 0 120 40.5t44 108.5q0 137 -133 137q-84 0 -135 -41l-50 33l17 264h332v-67h-277l-10 -160l4 -2q68 35 131 35q87 0 143 -47t56 -154q0 -105 -71.5 -158t-166.5 -53z" />
    <glyph glyph-name="uni2086" unicode="&#x2086;" horiz-adv-x="561" 
d="M291 -111q-112 0 -176 74t-64 195q0 173 74.5 259.5t191.5 86.5q98 0 179 -58l-41 -53q-25 15 -38 22t-42 16t-58 9q-86 0 -135 -67t-49 -150h4q19 31 63.5 55.5t94.5 24.5q98 0 154.5 -58t56.5 -147q0 -91 -57.5 -150t-157.5 -59zM139 104q0 -70 45.5 -112.5
t106.5 -42.5q58 0 98.5 38t40.5 111q0 74 -41 111t-98 37q-64 0 -108 -37.5t-44 -104.5z" />
    <glyph glyph-name="uni2087" unicode="&#x2087;" horiz-adv-x="493" 
d="M53 485h391v-57q-100 -164 -148.5 -267t-92.5 -265h-82q53 170 100.5 271.5t136.5 244.5v4h-305v69z" />
    <glyph glyph-name="uni2088" unicode="&#x2088;" horiz-adv-x="557" 
d="M279 -113q-104 0 -165 46.5t-61 123.5q0 117 113 160v4q-78 40 -78 131q0 65 53 108.5t138 43.5q87 0 139.5 -43t52.5 -109q0 -92 -80 -131v-4q113 -40 113 -160q0 -77 -60 -123.5t-165 -46.5zM279 186q-67 0 -107.5 -33.5t-40.5 -93.5q0 -54 38 -84t110 -30
q147 0 147 114q0 61 -39.5 94t-107.5 33zM162 352q0 -49 31.5 -77.5t85.5 -28.5q116 0 116 106q0 39 -30 68t-86 29q-55 0 -85 -28.5t-32 -68.5z" />
    <glyph glyph-name="uni2089" unicode="&#x2089;" horiz-adv-x="561" 
d="M57 295q0 91 57 150t158 59q111 0 174.5 -74t63.5 -194q0 -174 -73.5 -260.5t-190.5 -86.5q-97 0 -178 58l38 53q2 -1 13 -7.5t14.5 -8.5t14.5 -7.5t17 -7.5t16.5 -6t19.5 -5.5t20.5 -3t22.5 -1.5q86 0 135 66.5t51 150.5h-4q-19 -31 -63.5 -55.5t-96.5 -24.5
q-98 0 -153.5 58t-55.5 147zM133 295q0 -74 40.5 -111t98.5 -37q62 0 106 37.5t44 104.5q0 70 -45 112.5t-105 42.5q-59 0 -99 -38t-40 -111z" />
    <glyph glyph-name="franc" unicode="&#x20a3;" horiz-adv-x="1028" 
d="M180 350h-104v76h104v967h727v-109h-606v-526h545v-94h-545v-238h383v-76h-383v-350h-121v350z" />
    <glyph glyph-name="lira" unicode="&#x20a4;" horiz-adv-x="927" 
d="M59 102q87 96 133 192t46 210h-179v76h170q-3 16 -34 149h-136v76h117q-26 110 -26 176q0 98 31.5 179t85.5 133t124.5 80t149.5 28q137 0 260 -66l-47 -94q-1 1 -13.5 6.5t-17 7.5t-17.5 7.5t-21 8t-22 7t-25.5 7t-26.5 5t-30.5 3.5t-31.5 1q-50 0 -97.5 -20t-87 -57.5
t-64 -100t-24.5 -139.5q0 -55 23 -172h442v-76h-424q29 -146 29 -149h395v-76h-387q0 -110 -38 -202t-115 -187v-6h667v-109h-809v102z" />
    <glyph glyph-name="peseta" unicode="&#x20a7;" horiz-adv-x="1155" 
d="M985 1020h133v-70h-135q-10 -95 -52.5 -169t-109 -119.5t-146.5 -69.5t-171 -27q-86 -4 -209 21v-586h-125v950h-135v70h135v360q37 3 93 8t82 7t69.5 4t91.5 2q99 0 183 -22.5t150 -67t104.5 -119t41.5 -172.5zM295 1020h559q-6 130 -95 203t-255 73q-114 0 -209 -10
v-266zM852 950h-557v-264q85 -18 201 -18q159 0 250.5 73.5t105.5 208.5z" />
    <glyph glyph-name="Euro" unicode="&#x20ac;" horiz-adv-x="1060" 
d="M268 860h594v-76h-604q-4 -58 -4 -88q0 -52 6 -102h602v-76h-590q40 -189 153 -304.5t265 -115.5q83 0 140 15.5t116 44.5v-111q-115 -59 -268 -59q-209 0 -356.5 144.5t-190.5 385.5h-96v76h86q-4 66 -4 102q0 30 4 88h-86v76h94q40 245 189 393t360 148q146 0 266 -60
v-112q-116 63 -254 63q-159 0 -272.5 -119t-149.5 -313z" />
    <glyph glyph-name="uni20BA" unicode="&#x20ba;" horiz-adv-x="1124" 
d="M35 721v74l192 79v519h121v-469l338 141v-76l-338 -139v-137l338 139v-76l-338 -139v-537q153 8 281 89t202 214.5t74 288.5h111q0 -145 -56 -276t-150 -224t-222.5 -147.5t-268.5 -54.5q-51 0 -92 8v590l-192 -80v76l192 80v135z" />
    <glyph glyph-name="uni2113" unicode="&#x2113;" horiz-adv-x="776" 
d="M18 420q76 13 136 45v602q0 242 65 358.5t211 116.5q113 0 171 -81t58 -232q0 -239 -105.5 -450.5t-274.5 -327.5q0 -72 5 -125.5t18 -102t34.5 -79.5t57 -48.5t83.5 -17.5q68 0 133 43l41 -86q-29 -21 -84 -38t-106 -17q-148 0 -224.5 91.5t-82.5 313.5
q-72 -27 -136 -35v70zM279 551q127 117 202.5 299t75.5 371q0 99 -31.5 163t-97.5 64q-34 0 -59 -13.5t-41 -42t-26 -62t-15 -85.5t-6.5 -99t-1.5 -116v-479z" />
    <glyph glyph-name="uni2116" unicode="&#x2116;" horiz-adv-x="2363" 
d="M1835 293q-86 0 -161.5 31t-133.5 89t-91.5 149.5t-33.5 205.5q0 225 120.5 351t299.5 126q181 0 301.5 -126t120.5 -351q0 -114 -33.5 -205.5t-91.5 -150t-134 -89t-163 -30.5zM180 1434h127l721 -1196h6v1196h129v-1434h-129l-721 1180h-6v-1180h-127v1434zM1835 1141
q-137 0 -215 -105t-78 -268t78 -267t215 -104q138 0 215.5 103.5t77.5 267.5t-77.5 268.5t-215.5 104.5zM1548 53h578v-76h-578v76z" />
    <glyph glyph-name="uni2117" unicode="&#x2117;" 
d="M778 -14q-139 0 -265 54t-217 145t-144.5 217t-53.5 264t53.5 264t144.5 217t217 145t265 54q138 0 264 -54t217 -145t145 -217t54 -264t-54 -264t-145 -217t-217 -145t-264 -54zM778 1262q-160 0 -295.5 -80t-214 -217.5t-78.5 -298.5t78.5 -298t214 -216.5t295.5 -79.5
q159 0 294 79.5t213.5 216.5t78.5 298t-78.5 298.5t-213.5 217.5t-294 80zM567 1047q172 12 213 12q129 0 209.5 -58.5t81.5 -175.5q0 -125 -81.5 -190t-207.5 -68q-42 -2 -116 11v-302h-99v771zM780 979q-44 0 -114 -8v-316q58 -10 112 -10q95 0 145 48.5t48 131.5
q-2 72 -51 113t-140 41z" />
    <glyph glyph-name="uni2120" unicode="&#x2120;" horiz-adv-x="1247" 
d="M586 1434h57l229 -459h5l223 459h57v-564h-74v394h-4l-184 -387h-57l-181 376h-6v-383h-65v564zM287 864q-46 0 -103.5 15.5t-97.5 40.5l35 57q82 -51 166 -51q61 0 95 24.5t34 67.5t-29 67t-106 43q-87 21 -125.5 56.5t-38.5 103.5q0 73 49 115.5t133 42.5q96 0 178 -49
l-31 -58q-72 45 -143 45q-60 0 -86.5 -27t-26.5 -67q0 -39 26 -58.5t91 -35.5q98 -25 140 -63.5t42 -110.5q0 -80 -57.5 -119t-144.5 -39z" />
    <glyph glyph-name="trademark" unicode="&#x2122;" horiz-adv-x="1306" 
d="M645 1434h60l227 -459h4l223 459h60v-564h-76v394h-4l-183 -387h-59l-180 376h-4v-383h-68v564zM61 1374v60h469v-60h-200v-504h-74v504h-195z" />
    <glyph glyph-name="estimated" unicode="&#x212e;" horiz-adv-x="1081" 
d="M541 -16q-219 0 -348.5 130t-129.5 343q0 214 129.5 344.5t348.5 130.5t348 -130.5t129 -344.5v-21h-821v-241q122 -164 344 -164q250 0 370 198h56q-63 -123 -173.5 -184t-252.5 -61zM197 721v-242h686v244q-122 164 -342 164t-344 -166z" />
    <glyph glyph-name="arrowleft" unicode="&#x2190;" horiz-adv-x="1409" 
d="M117 662v8l411 411l70 -71l-289 -291v-4h983v-99h-983v-4l289 -290l-70 -70z" />
    <glyph glyph-name="arrowup" unicode="&#x2191;" horiz-adv-x="983" 
d="M59 848l410 412h8l412 -412l-72 -70l-289 289h-4v-983h-100v983h-4l-291 -289z" />
    <glyph glyph-name="arrowright" unicode="&#x2192;" horiz-adv-x="1409" 
d="M82 715h983v4l-289 291l70 71l409 -411v-8l-409 -410l-70 70l289 290v4h-983v99z" />
    <glyph glyph-name="arrowdown" unicode="&#x2193;" horiz-adv-x="983" 
d="M469 57l-410 412l70 70l291 -289h4v983h100v-983h4l289 289l72 -70l-412 -412h-8z" />
    <glyph glyph-name="arrowboth" unicode="&#x2194;" horiz-adv-x="1787" 
d="M117 662v8l411 411l70 -71l-289 -291v-4h1172v4l-291 291l72 71l409 -411v-8l-409 -410l-72 70l291 290v4h-1172v-4l289 -290l-70 -70z" />
    <glyph glyph-name="arrowupdn" unicode="&#x2195;" horiz-adv-x="983" 
d="M147 944l-71 70l411 411h9l409 -411l-69 -70l-291 289h-4v-1024h4l291 289l69 -70l-409 -410h-9l-411 410l71 70l289 -289h4v1024h-4z" />
    <glyph glyph-name="uni2196" unicode="&#x2196;" horiz-adv-x="1103" 
d="M211 408h-98v581l6 6h579v-100h-409l-4 -2l696 -696l-70 -70l-696 694l-2 -2z" />
    <glyph glyph-name="uni2197" unicode="&#x2197;" horiz-adv-x="1103" 
d="M956 985v-579h-100v409l-4 4l-694 -696l-70 72l694 694l-2 2l-411 2v98h581z" />
    <glyph glyph-name="uni2198" unicode="&#x2198;" horiz-adv-x="1103" 
d="M950 293h-581v98l411 2l2 2l-694 695l70 71l694 -696l4 4v410h100v-580z" />
    <glyph glyph-name="uni2199" unicode="&#x2199;" horiz-adv-x="1103" 
d="M113 301v580h98l2 -410l2 -2l696 694l70 -69l-694 -697l2 -2h409v-100h-579z" />
    <glyph glyph-name="partialdiff" unicode="&#x2202;" horiz-adv-x="1255" 
d="M627 971q163 0 269 -91.5t110 -250.5h6q24 130 24 254q0 88 -12 167t-42 154t-75 129.5t-116.5 87.5t-161.5 33q-107 0 -242 -41l-18 100q168 46 282 46q122 0 219.5 -51t160 -141t95.5 -210t33 -262q0 -121 -22 -243.5t-72.5 -242t-123.5 -211.5t-183.5 -149t-243.5 -57
q-192 0 -305 106t-113 295q0 110 39.5 214.5t108 185t169 129.5t214.5 49zM524 100q114 0 210.5 66.5t150 170t53.5 216.5q0 142 -86 228.5t-227 86.5q-87 0 -163 -42t-126.5 -108.5t-79.5 -149t-29 -165.5q0 -138 80 -220.5t217 -82.5z" />
    <glyph glyph-name="product" unicode="&#x220f;" horiz-adv-x="1300" 
d="M86 1341v93h1131v-93h-170v-1853h-115v1853h-563v-1853h-113v1853h-170z" />
    <glyph glyph-name="summation" unicode="&#x2211;" horiz-adv-x="1304" 
d="M117 1434h1087v-88h-946l565 -842l-569 -907h950v-109h-1087v80l581 921l-581 871v74z" />
    <glyph glyph-name="minus" unicode="&#x2212;" horiz-adv-x="1079" 
d="M115 444v84h850v-84h-850z" />
    <glyph glyph-name="uni2215" unicode="&#x2215;" horiz-adv-x="724" 
d="M-6 -51l686 1587h86l-686 -1587h-86z" />
    <glyph glyph-name="uni2219" unicode="&#x2219;" horiz-adv-x="530" 
d="M135 682q0 54 38.5 92.5t92.5 38.5t91.5 -38.5t37.5 -92.5q0 -53 -38 -92t-91 -39q-54 0 -92.5 39t-38.5 92z" />
    <glyph glyph-name="radical" unicode="&#x221a;" horiz-adv-x="1239" 
d="M55 797h138l309 -887h6l631 1626h84l-674 -1731h-86l-322 916h-86v76z" />
    <glyph glyph-name="infinity" unicode="&#x221e;" horiz-adv-x="1466" 
d="M440 227q-122 0 -194 86t-72 215q0 130 72 216.5t196 86.5q178 0 314 -235q140 235 315 235q124 0 196 -86.5t72 -216.5q0 -129 -72.5 -215t-197.5 -86q-173 0 -313 236q-137 -236 -316 -236zM244 528q0 -101 51.5 -167t146.5 -66q83 0 149 63t126 170q-60 108 -126 172
t-149 64q-94 0 -146 -67t-52 -169zM1069 764q-145 0 -272 -236q127 -233 272 -233q95 0 147 66t52 167q0 102 -52.5 169t-146.5 67z" />
    <glyph glyph-name="integral" unicode="&#x222b;" horiz-adv-x="622" 
d="M18 -410q66 0 112 28.5t72 84.5t37 128t11 169v1069q0 467 356 467v-102q-129 0 -181 -104.5t-52 -303.5v-1069q0 -242 -95.5 -355.5t-259.5 -113.5v102z" />
    <glyph glyph-name="approxequal" unicode="&#x2248;" horiz-adv-x="1282" 
d="M115 391q36 33 104 67t143 34q55 0 115 -20.5t113.5 -50t107 -58.5t112 -49.5t110.5 -20.5q116 0 247 131v-96q-43 -44 -106.5 -77.5t-140.5 -33.5q-64 0 -129 20.5t-118.5 49.5t-104.5 58.5t-104.5 50t-101.5 20.5q-72 0 -143.5 -41.5t-103.5 -79.5v96zM115 705
q35 33 103.5 66.5t143.5 33.5q55 0 115 -20.5t113.5 -49.5t107 -58.5t112 -50t110.5 -20.5q116 0 247 131v-96q-43 -44 -106.5 -77.5t-140.5 -33.5q-78 0 -160 31t-140.5 67.5t-129.5 67.5t-128 31q-73 0 -144.5 -41t-102.5 -80v99z" />
    <glyph glyph-name="notequal" unicode="&#x2260;" horiz-adv-x="1073" 
d="M121 276v93h295l129 303h-424v92h465l123 287h75l-122 -287h292v-92h-333l-132 -303h465v-93h-503l-134 -307h-73l131 307h-254z" />
    <glyph glyph-name="lessequal" unicode="&#x2264;" horiz-adv-x="1191" 
d="M1065 373l-952 346v102l952 340v-100l-817 -283v-10l817 -289v-106zM1055 106h-926v84h926v-84z" />
    <glyph glyph-name="greaterequal" unicode="&#x2265;" horiz-adv-x="1191" 
d="M909 778l-819 283v100l954 -340v-102l-954 -346v106l819 289v10zM1028 106h-928v84h928v-84z" />
    <glyph glyph-name="uni2460" unicode="&#x2460;" 
d="M778 -14q-139 0 -265 54t-217 145t-144.5 217t-53.5 264t53.5 264t144.5 217t217 145t265 54q138 0 264 -54t217 -145t145 -217t54 -264t-54 -264t-145 -217t-217 -145t-264 -54zM190 666q0 -161 78.5 -298t214 -216.5t295.5 -79.5q159 0 294 79.5t213.5 216.5t78.5 298
t-78.5 298.5t-213.5 217.5t-294 80q-160 0 -295.5 -80t-214 -217.5t-78.5 -298.5zM594 872l164 115h63v-588h-80v492h-4l-106 -72z" />
    <glyph glyph-name="uni2461" unicode="&#x2461;" 
d="M778 -14q-139 0 -265 54t-217 145t-144.5 217t-53.5 264t53.5 264t144.5 217t217 145t265 54q138 0 264 -54t217 -145t145 -217t54 -264t-54 -264t-145 -217t-217 -145t-264 -54zM190 666q0 -161 78.5 -298t214 -216.5t295.5 -79.5q159 0 294 79.5t213.5 216.5t78.5 298
t-78.5 298.5t-213.5 217.5t-294 80q-160 0 -295.5 -80t-214 -217.5t-78.5 -298.5zM569 879q82 131 211 131q78 0 128 -42t50 -116q0 -43 -20.5 -85.5t-40.5 -66.5t-53 -57l-156 -164v-4h285v-76h-402v62l211 219q28 28 42.5 44t33.5 53t19 73q0 88 -101 88q-27 0 -49 -7.5
t-40 -24t-27.5 -28.5t-26.5 -36z" />
    <glyph glyph-name="uni2462" unicode="&#x2462;" 
d="M778 -14q-139 0 -265 54t-217 145t-144.5 217t-53.5 264t53.5 264t144.5 217t217 145t265 54q138 0 264 -54t217 -145t145 -217t54 -264t-54 -264t-145 -217t-217 -145t-264 -54zM190 666q0 -161 78.5 -298t214 -216.5t295.5 -79.5q159 0 294 79.5t213.5 216.5t78.5 298
t-78.5 298.5t-213.5 217.5t-294 80q-160 0 -295.5 -80t-214 -217.5t-78.5 -298.5zM762 395q-124 0 -199 62l39 59q74 -51 158 -51q137 0 137 104q1 54 -36 83.5t-103 29.5h-66v61h66q60 0 91.5 29t29.5 78q0 40 -27 62t-78 22q-70 0 -149 -62l-37 62q85 70 188 70
q79 0 130.5 -36.5t51.5 -113.5q0 -52 -22 -81.5t-62 -51.5v-4q105 -42 105 -150q-1 -39 -14.5 -70t-35.5 -50t-51 -31t-57.5 -16.5t-58.5 -4.5z" />
    <glyph glyph-name="uni2463" unicode="&#x2463;" 
d="M778 -14q-139 0 -265 54t-217 145t-144.5 217t-53.5 264t53.5 264t144.5 217t217 145t265 54q138 0 264 -54t217 -145t145 -217t54 -264t-54 -264t-145 -217t-217 -145t-264 -54zM778 1262q-160 0 -295.5 -80t-214 -217.5t-78.5 -298.5t78.5 -298t214 -216.5t295.5 -79.5
q159 0 294 79.5t213.5 216.5t78.5 298t-78.5 298.5t-213.5 217.5t-294 80zM807 510h-293v57l305 422h68v-411h61v-68h-61v-111h-80v111zM602 578h205v286h-4l-201 -280v-6z" />
    <glyph glyph-name="uni2464" unicode="&#x2464;" 
d="M778 -14q-139 0 -265 54t-217 145t-144.5 217t-53.5 264t53.5 264t144.5 217t217 145t265 54q138 0 264 -54t217 -145t145 -217t54 -264t-54 -264t-145 -217t-217 -145t-264 -54zM190 666q0 -161 78.5 -298t214 -216.5t295.5 -79.5q159 0 294 79.5t213.5 216.5t78.5 298
t-78.5 298.5t-213.5 217.5t-294 80q-160 0 -295.5 -80t-214 -217.5t-78.5 -298.5zM549 459l41 63q93 -67 170 -67q73 0 116.5 37t43.5 104q0 60 -36 97.5t-96 37.5q-84 0 -133 -39l-51 33l14 264h336v-71h-274l-8 -148l6 -4q60 31 125 31q84 0 140 -48t56 -155
q0 -72 -36 -121.5t-87 -69.5t-110 -20q-109 0 -217 76z" />
    <glyph glyph-name="uni2465" unicode="&#x2465;" 
d="M778 -14q-139 0 -265 54t-217 145t-144.5 217t-53.5 264t53.5 264t144.5 217t217 145t265 54q138 0 264 -54t217 -145t145 -217t54 -264t-54 -264t-145 -217t-217 -145t-264 -54zM190 666q0 -161 78.5 -298t214 -216.5t295.5 -79.5q159 0 294 79.5t213.5 216.5t78.5 298
t-78.5 298.5t-213.5 217.5t-294 80q-160 0 -295.5 -80t-214 -217.5t-78.5 -298.5zM768 391q-111 0 -174.5 74.5t-63.5 196.5q0 171 75 257.5t190 86.5q101 0 180 -58l-43 -55q-74 45 -137 45q-58 0 -100.5 -34.5t-61 -81t-19.5 -95.5h4q21 29 63 53.5t93 24.5
q98 0 153.5 -57.5t55.5 -145.5q0 -92 -57 -151.5t-158 -59.5zM621 606q0 -70 44.5 -111.5t102.5 -41.5q56 0 97.5 38.5t41.5 110.5t-40.5 109t-98.5 37q-60 0 -103.5 -38.5t-43.5 -103.5z" />
    <glyph glyph-name="uni2466" unicode="&#x2466;" 
d="M98 666q0 138 53.5 264t144.5 217t217 145t265 54q138 0 264 -54t217 -145t145 -217t54 -264t-54 -264t-145 -217t-217 -145t-264 -54q-139 0 -265 54t-217 145t-144.5 217t-53.5 264zM778 1262q-160 0 -295.5 -80t-214 -217.5t-78.5 -298.5t78.5 -298t214 -216.5
t295.5 -79.5q159 0 294 79.5t213.5 216.5t78.5 298t-78.5 298.5t-213.5 217.5t-294 80zM590 967h389v-62q-96 -157 -142.5 -259.5t-91.5 -268.5h-88q54 173 99.5 271t132.5 237v8h-299v74z" />
    <glyph glyph-name="uni2467" unicode="&#x2467;" 
d="M778 -14q-139 0 -265 54t-217 145t-144.5 217t-53.5 264t53.5 264t144.5 217t217 145t265 54q138 0 264 -54t217 -145t145 -217t54 -264t-54 -264t-145 -217t-217 -145t-264 -54zM778 1262q-160 0 -295.5 -80t-214 -217.5t-78.5 -298.5t78.5 -298t214 -216.5t295.5 -79.5
q159 0 294 79.5t213.5 216.5t78.5 298t-78.5 298.5t-213.5 217.5t-294 80zM776 391q-105 0 -166 46.5t-61 123.5q0 117 113 160v4q-78 40 -78 131q0 66 52.5 109t137.5 43q88 0 140.5 -43t52.5 -109q0 -92 -80 -131v-4q114 -41 114 -160q0 -77 -60.5 -123.5t-164.5 -46.5z
M774 686q-63 0 -103 -33t-40 -90q0 -52 37 -81t106 -29q72 0 109 29t37 81q0 57 -40.5 90t-105.5 33zM662 858q-1 -50 29.5 -77t82.5 -27q53 0 84 27t31 77q0 36 -30.5 63t-84.5 27q-53 0 -82.5 -26t-29.5 -64z" />
    <glyph glyph-name="uni2468" unicode="&#x2468;" 
d="M98 666q0 138 53.5 264t144.5 217t217 145t265 54q138 0 264 -54t217 -145t145 -217t54 -264t-54 -264t-145 -217t-217 -145t-264 -54q-139 0 -265 54t-217 145t-144.5 217t-53.5 264zM190 666q0 -161 78.5 -298t214 -216.5t295.5 -79.5q159 0 294 79.5t213.5 216.5
t78.5 298t-78.5 298.5t-213.5 217.5t-294 80q-160 0 -295.5 -80t-214 -217.5t-78.5 -298.5zM565 788q0 92 57 151.5t158 59.5q111 0 174.5 -74t63.5 -194q0 -173 -75 -259.5t-189 -86.5q-97 0 -181 57l43 56q74 -45 138 -45q58 0 100 34.5t60.5 80.5t19.5 96h-4
q-21 -29 -63 -53.5t-93 -24.5q-98 0 -153.5 57t-55.5 145zM780 938q-56 0 -97.5 -39t-41.5 -111t40.5 -108.5t98.5 -36.5q60 0 104 38t44 103q0 70 -45 112t-103 42z" />
    <glyph glyph-name="uni24EA" unicode="&#x24ea;" 
d="M778 -14q-139 0 -265 54t-217 145t-144.5 217t-53.5 264t53.5 264t144.5 217t217 145t265 54q138 0 264 -54t217 -145t145 -217t54 -264t-54 -264t-145 -217t-217 -145t-264 -54zM190 666q0 -161 78.5 -298t214 -216.5t295.5 -79.5q159 0 294 79.5t213.5 216.5t78.5 298
t-78.5 298.5t-213.5 217.5t-294 80q-160 0 -295.5 -80t-214 -217.5t-78.5 -298.5zM545 702q0 139 60.5 223.5t170.5 84.5q111 0 169.5 -84t58.5 -224q0 -142 -58.5 -225.5t-169.5 -83.5q-110 0 -170.5 84t-60.5 225zM776 940q-73 0 -112 -64t-39 -174q0 -111 39 -175
t112 -64t109.5 63.5t36.5 175.5q0 111 -36.5 174.5t-109.5 63.5z" />
    <glyph glyph-name="uni24FF" unicode="&#x24ff;" 
d="M778 -14q-139 0 -265 54t-217 145t-144.5 217t-53.5 264t53.5 264t144.5 217t217 145t265 54q138 0 264 -54t217 -145t145 -217t54 -264t-54 -264t-145 -217t-217 -145t-264 -54zM545 702q0 -141 60.5 -225t170.5 -84q111 0 169.5 83.5t58.5 225.5q0 140 -58.5 224
t-169.5 84q-110 0 -170.5 -84.5t-60.5 -223.5zM776 463q-73 0 -112 64t-39 175q0 110 39 174t112 64t109.5 -63.5t36.5 -174.5q0 -112 -36.5 -175.5t-109.5 -63.5z" />
    <glyph glyph-name="lozenge" unicode="&#x25ca;" horiz-adv-x="1304" 
d="M102 662l510 905h90l500 -905l-500 -906h-90zM248 662l405 -742h6l402 742l-402 741h-6z" />
    <glyph glyph-name="uni2776" unicode="&#x2776;" 
d="M98 666q0 138 53.5 264t144.5 217t217 145t265 54q138 0 264 -54t217 -145t145 -217t54 -264t-54 -264t-145 -217t-217 -145t-264 -54q-139 0 -265 54t-217 145t-144.5 217t-53.5 264zM594 872l37 -53l106 72h4v-492h80v588h-63z" />
    <glyph glyph-name="uni2777" unicode="&#x2777;" 
d="M98 666q0 138 53.5 264t144.5 217t217 145t265 54q138 0 264 -54t217 -145t145 -217t54 -264t-54 -264t-145 -217t-217 -145t-264 -54q-139 0 -265 54t-217 145t-144.5 217t-53.5 264zM780 1010q-129 0 -211 -131l64 -37q17 24 26.5 36t27.5 28.5t40 24t49 7.5
q101 0 101 -88q0 -36 -19 -73t-33.5 -53t-42.5 -44l-211 -219v-62h402v76h-285v4l156 164q33 33 53 57t40.5 66.5t20.5 85.5q0 74 -50 116t-128 42z" />
    <glyph glyph-name="uni2778" unicode="&#x2778;" 
d="M778 -14q-139 0 -265 54t-217 145t-144.5 217t-53.5 264t53.5 264t144.5 217t217 145t265 54q138 0 264 -54t217 -145t145 -217t54 -264t-54 -264t-145 -217t-217 -145t-264 -54zM563 457q75 -62 199 -62q30 0 58.5 4.5t57.5 16.5t51 31t35.5 50t14.5 70q0 108 -105 150
v4q40 22 62 51.5t22 81.5q0 77 -51.5 113.5t-130.5 36.5q-103 0 -188 -70l37 -62q79 62 149 62q51 0 78 -22t27 -62q2 -49 -29.5 -78t-91.5 -29h-66v-61h66q66 0 103 -29.5t36 -83.5q0 -104 -137 -104q-84 0 -158 51z" />
    <glyph glyph-name="uni2779" unicode="&#x2779;" 
d="M98 666q0 138 53.5 264t144.5 217t217 145t265 54q138 0 264 -54t217 -145t145 -217t54 -264t-54 -264t-145 -217t-217 -145t-264 -54q-139 0 -265 54t-217 145t-144.5 217t-53.5 264zM514 567v-57h293v-111h80v111h61v68h-61v411h-68zM803 864h4v-286h-205v6z" />
    <glyph glyph-name="uni277A" unicode="&#x277a;" 
d="M98 666q0 138 53.5 264t144.5 217t217 145t265 54q138 0 264 -54t217 -145t145 -217t54 -264t-54 -264t-145 -217t-217 -145t-264 -54q-139 0 -265 54t-217 145t-144.5 217t-53.5 264zM549 459q108 -76 217 -76q59 0 110 20t87 69.5t36 121.5q0 107 -56 155t-140 48
q-65 0 -125 -31l-6 4l8 148h274v71h-336l-14 -264l51 -33q49 39 133 39q60 0 96 -37.5t36 -97.5q0 -67 -43.5 -104t-116.5 -37q-77 0 -170 67z" />
    <glyph glyph-name="uni277B" unicode="&#x277b;" 
d="M778 -14q-139 0 -265 54t-217 145t-144.5 217t-53.5 264t53.5 264t144.5 217t217 145t265 54q138 0 264 -54t217 -145t145 -217t54 -264t-54 -264t-145 -217t-217 -145t-264 -54zM795 1006q-115 0 -190 -86.5t-75 -257.5q0 -122 63.5 -196.5t174.5 -74.5q101 0 158 59.5
t57 151.5q0 88 -55.5 145.5t-153.5 57.5q-51 0 -93 -24.5t-63 -53.5h-4q1 49 19.5 95.5t61 81t100.5 34.5q63 0 137 -45l43 55q-79 58 -180 58zM621 606q0 65 43.5 103.5t103.5 38.5q58 0 98.5 -37t40.5 -109t-41.5 -110.5t-97.5 -38.5q-58 0 -102.5 41.5t-44.5 111.5z" />
    <glyph glyph-name="uni277C" unicode="&#x277c;" 
d="M98 666q0 138 53.5 264t144.5 217t217 145t265 54q138 0 264 -54t217 -145t145 -217t54 -264t-54 -264t-145 -217t-217 -145t-264 -54q-139 0 -265 54t-217 145t-144.5 217t-53.5 264zM590 967v-74h299v-8q-87 -139 -132.5 -237t-99.5 -271h88q45 166 91.5 268.5
t142.5 259.5v62h-389z" />
    <glyph glyph-name="uni277D" unicode="&#x277d;" 
d="M98 666q0 138 53.5 264t144.5 217t217 145t265 54q138 0 264 -54t217 -145t145 -217t54 -264t-54 -264t-145 -217t-217 -145t-264 -54q-139 0 -265 54t-217 145t-144.5 217t-53.5 264zM549 561q0 -77 61 -123.5t166 -46.5q104 0 164.5 46.5t60.5 123.5q0 119 -114 160v4
q80 39 80 131q0 66 -52.5 109t-140.5 43q-85 0 -137.5 -43t-52.5 -109q0 -91 78 -131v-4q-113 -43 -113 -160zM631 563q0 57 39.5 90t103.5 33q65 0 105.5 -33t40.5 -90q0 -52 -37 -81t-109 -29q-69 0 -106 29.5t-37 80.5zM774 754q-52 0 -82.5 27t-29.5 77q0 38 29.5 64
t82.5 26q54 0 84.5 -27t30.5 -63q0 -50 -31 -77t-84 -27z" />
    <glyph glyph-name="uni277E" unicode="&#x277e;" 
d="M778 -14q-139 0 -265 54t-217 145t-144.5 217t-53.5 264t53.5 264t144.5 217t217 145t265 54q138 0 264 -54t217 -145t145 -217t54 -264t-54 -264t-145 -217t-217 -145t-264 -54zM780 999q-101 0 -158 -59.5t-57 -151.5q0 -88 55.5 -145t153.5 -57q51 0 93 24.5t63 53.5
h4q-1 -50 -19.5 -96t-60.5 -80.5t-100 -34.5q-64 0 -138 45l-43 -56q84 -57 181 -57q114 0 189 86.5t75 259.5q0 120 -63.5 194t-174.5 74zM641 788q0 72 41.5 111t97.5 39q58 0 103 -42t45 -112q0 -65 -44 -103t-104 -38q-58 0 -98.5 36.5t-40.5 108.5z" />
    <glyph glyph-name="uniE000" unicode="&#xe000;" horiz-adv-x="1343" 
d="M799 -20q-193 0 -344 95t-234.5 267.5t-83.5 392.5q1 163 51 297t138.5 224t209.5 139t263 49q248 0 430 -96l-53 -107q-169 82 -373 82q-227 0 -373.5 -165t-146.5 -423q0 -277 149.5 -457t374.5 -180q224 0 381 92l49 -100q-206 -110 -438 -110zM754 1536l41 274h118
l-77 -274h-82z" />
    <glyph glyph-name="uniE001" unicode="&#xe001;" horiz-adv-x="931" 
d="M111 461q0 99 28 185t81 151.5t135.5 103t185.5 37.5q170 0 284 -72l-43 -88q-82 60 -227 60q-103 0 -176 -53t-106 -136t-33 -186q0 -163 88 -269t229 -106q74 0 142.5 20t109.5 50l45 -88q-135 -84 -313 -84q-87 0 -164 31t-136.5 89t-94.5 149.5t-35 205.5zM565 1096
h-73l63 311h115z" />
    <glyph glyph-name="uniE002" unicode="&#xe002;" horiz-adv-x="1341" 
d="M307 0h-127v1434h127l721 -1196h6v1196h129v-1434h-129l-721 1180h-6v-1180zM657 1536l41 274h119l-78 -274h-82z" />
    <glyph glyph-name="uniE003" unicode="&#xe003;" horiz-adv-x="1040" 
d="M272 0h-122v922h106l10 -177h6q37 81 111.5 139t177.5 58q183 0 267.5 -112t84.5 -343v-487h-122v449q0 93 -11 159.5t-38 120t-77 80.5t-124 27q-98 0 -168.5 -85t-100.5 -216v-535zM584 1096h-72l61 311h115z" />
    <glyph glyph-name="uniE004" unicode="&#xe004;" horiz-adv-x="1501" 
d="M139 717q0 217 71.5 382.5t211.5 260t330 94.5q189 0 328.5 -94.5t211.5 -260.5t72 -382t-72 -382t-211.5 -260.5t-328.5 -94.5q-190 0 -330 94.5t-211.5 260t-71.5 382.5zM752 1333q-146 0 -253.5 -79t-161.5 -217.5t-54 -319.5q0 -180 54 -318.5t161.5 -218.5
t253.5 -80q219 0 343 171t124 446q0 181 -53.5 319t-160.5 217.5t-253 79.5zM705 1536l43 274h118l-80 -274h-81z" />
    <glyph glyph-name="uniE005" unicode="&#xe005;" horiz-adv-x="1056" 
d="M528 -16q-180 0 -300 126t-119 351q0 225 120 351t299 126q181 0 301.5 -126t120.5 -351t-120.5 -351t-301.5 -126zM528 834q-137 0 -214.5 -104.5t-77.5 -268.5q0 -163 77.5 -267t214.5 -104q138 0 215.5 103.5t77.5 267.5t-77.5 268.5t-215.5 104.5zM489 1096l62 311
h117l-105 -311h-74z" />
    <glyph glyph-name="uniE006" unicode="&#xe006;" horiz-adv-x="1185" 
d="M569 -14q-117 0 -255 38t-238 101l63 108q211 -131 428 -131q164 0 267.5 82.5t103.5 196.5q0 108 -91 177t-290 112q-103 23 -175.5 52.5t-129 75t-84 111.5t-27.5 154q0 173 125 277t328 104q233 0 450 -121l-63 -109q-78 49 -181.5 83t-201.5 34q-81 0 -144.5 -23.5
t-101.5 -62.5t-57 -85t-19 -95q0 -110 77.5 -169.5t244.5 -96.5q123 -29 206 -61t146.5 -79.5t93 -114t29.5 -157.5q-1 -81 -29 -148.5t-76 -113.5t-112.5 -78t-136.5 -46.5t-150 -14.5zM643 1536h-84l43 274h119z" />
    <glyph glyph-name="uniE007" unicode="&#xe007;" horiz-adv-x="870" 
d="M428 -12q-199 0 -322 80l48 94q45 -33 119.5 -55.5t150.5 -22.5q93 0 147 40t54 107q0 69 -51.5 111.5t-178.5 81.5q-256 77 -256 260q0 123 90 188.5t234 65.5q176 0 285 -72l-43 -88q-95 64 -236 64q-91 0 -147 -40.5t-56 -101.5q0 -69 43.5 -105t130.5 -63
q163 -49 237.5 -116.5t74.5 -177.5q0 -118 -92.5 -184t-231.5 -66zM416 1096l61 311h115l-103 -311h-73z" />
    <glyph glyph-name="uniE008" unicode="&#xe008;" horiz-adv-x="1292" 
d="M190 1434h932v-125l-819 -1182v-6h797v-121h-969v125l827 1182v6h-768v121zM664 1810h118l-80 -274h-81z" />
    <glyph glyph-name="uniE009" unicode="&#xe009;" horiz-adv-x="821" 
d="M84 0v106l516 717v6h-477v93h616v-113l-512 -709v-6h512v-94h-655zM408 1096l61 311h115l-103 -311h-73z" />
    <glyph glyph-name="uniE132" unicode="&#xe132;" horiz-adv-x="862" 
d="M307 -506v109h35q148 0 206 91t58 314v914h125v-920q0 -101 -11 -177t-37.5 -140.5t-70.5 -105t-111.5 -63t-158.5 -22.5h-35zM297 0h-123v922h123v-922zM684 1096h-86l184 311h158zM178 1096l184 311h158l-256 -311h-86z" />
    <glyph glyph-name="uniE133" unicode="&#xe133;" horiz-adv-x="1280" 
d="M549 27l22 106q27 -13 89.5 -26t107.5 -13q129 -2 187.5 73.5t58.5 274.5v992h129v-992q0 -115 -17.5 -196t-59.5 -142t-116 -90.5t-182 -29.5q-54 0 -122 14t-97 29zM180 1434h133v-1434h-133v1434zM270 1536h-102l164 272h147zM1001 1536l164 272h146l-209 -272h-101z
" />
    <glyph glyph-name="uniF026" unicode="&#xf026;" horiz-adv-x="1548" 
d="M88 338q0 49 12 94t30 80.5t49.5 70.5t60 60t73.5 54.5t76.5 48t81.5 45.5v4q-158 175 -158 350q0 139 91 214t227 75h338v-101h-334q-85 0 -145 -47t-60 -141q0 -65 46 -157t128 -177l412 -426h4q118 163 227 430l103 -35q-113 -288 -256 -475l295 -305h-152l-215 223
h-4q-225 -246 -506 -246q-207 0 -315.5 99t-108.5 262zM215 340q0 -118 85.5 -189t217.5 -71q227 0 424 221v4l-393 406h-4q-46 -26 -72 -41.5t-66 -42t-63 -46.5t-51 -49t-42.5 -56.5t-25 -62.5t-10.5 -73z" />
    <glyph glyph-name="uniF028" unicode="&#xf028;" horiz-adv-x="653" 
d="M406 -143q-117 187 -176.5 401.5t-59.5 437.5q0 464 236 840h83q-217 -382 -217 -840q0 -457 217 -839h-83z" />
    <glyph glyph-name="uniF029" unicode="&#xf029;" horiz-adv-x="651" 
d="M209 -143h-84q217 382 217 839q0 458 -217 840h84q235 -375 235 -840q0 -464 -235 -839z" />
    <glyph glyph-name="uniF030" unicode="&#xf030;" horiz-adv-x="1255" 
d="M637 -12q-169 0 -288 93t-176.5 255t-57.5 381q0 218 57.5 381t176.5 257.5t288 94.5q127 0 224.5 -54t158 -152.5t91 -231t30.5 -295.5q1 -163 -29.5 -295.5t-91.5 -230t-158.5 -150.5t-224.5 -53zM254 717q0 -176 41.5 -313t129.5 -220.5t212 -83.5q95 0 166 47
t113.5 132t63.5 195t21 243t-20.5 242.5t-63 195.5t-114 134t-166.5 48q-125 0 -213 -85t-129 -222.5t-41 -312.5z" />
    <glyph glyph-name="uniF031" unicode="&#xf031;" horiz-adv-x="811" 
d="M147 1092l-59 84l365 258h90v-1434h-133v1274h-7z" />
    <glyph glyph-name="uniF032" unicode="&#xf032;" horiz-adv-x="1255" 
d="M164 100l530 553q36 38 56 60t59.5 72t61.5 89.5t40.5 93.5t18.5 103q0 136 -76 205.5t-209 69.5q-65 0 -122.5 -20t-102 -57t-76.5 -73.5t-63 -83.5l-95 53q24 41 54 78.5t73.5 77t92.5 68t113.5 47t133.5 18.5q195 0 305.5 -94.5t110.5 -286.5q0 -41 -10 -83.5
t-23.5 -77t-38.5 -74.5t-44 -66.5t-51.5 -63t-49 -54t-49 -49.5t-39.5 -40l-432 -448v-6h786v-111h-954v100z" />
    <glyph glyph-name="uniF033" unicode="&#xf033;" horiz-adv-x="1255" 
d="M618 -10q-145 0 -274.5 45t-212.5 110l55 97q83 -61 193.5 -101.5t234.5 -40.5q177 0 269 76.5t94 224.5q0 127 -101.5 210t-254.5 83h-142v99h142q144 0 231.5 85.5t85.5 196.5q-1 129 -80.5 194.5t-216.5 65.5q-109 0 -219.5 -48.5t-179.5 -110.5l-54 94
q88 74 207.5 126t251.5 52q86 0 158.5 -19.5t133 -60.5t94.5 -113t34 -170q0 -113 -61.5 -202t-155.5 -129v-6q113 -42 186.5 -133t73.5 -222q0 -88 -29.5 -158t-77 -115t-112.5 -75t-132.5 -42.5t-140.5 -12.5z" />
    <glyph glyph-name="uniF034" unicode="&#xf034;" horiz-adv-x="1204" 
d="M68 416l733 1018h114v-1014h170v-109h-172l2 -311h-133v311h-714v105zM207 420h575v799h-6l-567 -791z" />
    <glyph glyph-name="uniF035" unicode="&#xf035;" horiz-adv-x="1255" 
d="M596 -10q-145 0 -277 50t-225 118l58 92q226 -154 434 -154q171 0 280 108t109 281q0 169 -93 260t-251 91q-92 0 -182.5 -36.5t-145.5 -78.5l-82 49l37 664h768v-111h-661l-25 -469l8 -4q149 88 311 88q69 0 131.5 -13.5t122 -46.5t102.5 -83t69 -129t26 -179t-31 -184
t-82 -141t-118 -96.5t-138.5 -57.5t-144.5 -18z" />
    <glyph glyph-name="uniF036" unicode="&#xf036;" horiz-adv-x="1255" 
d="M637 -12q-129 0 -231.5 48t-168.5 133t-100.5 200t-34.5 252q0 242 73 430t209 293.5t314 105.5q289 0 428 -229l-88 -62q-124 182 -336 182q-102 0 -189.5 -51t-146 -136.5t-91.5 -197t-35 -233.5h6q45 98 152 164.5t247 66.5q120 0 215 -38t154 -103t90 -148t31 -178
q0 -81 -18.5 -154t-58.5 -136.5t-97.5 -109.5t-140.5 -72.5t-183 -26.5zM258 498q0 -179 108.5 -293.5t270.5 -114.5t263 104t101 279q0 177 -95.5 279t-268.5 102q-161 0 -270 -100.5t-109 -255.5z" />
    <glyph glyph-name="uniF037" unicode="&#xf037;" horiz-adv-x="1214" 
d="M942 1323h-817v111h956v-105q-224 -413 -348 -680.5t-256 -648.5h-135q132 367 251.5 622.5t348.5 694.5v6z" />
    <glyph glyph-name="uniF038" unicode="&#xf038;" horiz-adv-x="1255" 
d="M100 381q0 149 78.5 246.5t202.5 140.5q-95 41 -150 120t-55 197q-1 167 126.5 269t324.5 102q198 0 325 -101.5t127 -269.5q0 -117 -55.5 -196.5t-149.5 -120.5q128 -42 204.5 -139t76.5 -248q0 -181 -147.5 -290t-380.5 -109q-232 0 -379.5 109t-147.5 290zM627 721
q-177 0 -283.5 -87.5t-105.5 -248.5q0 -129 106.5 -219t282.5 -90q178 0 284.5 89.5t106.5 219.5q0 163 -104.5 249.5t-286.5 86.5zM305 1085q-1 -73 25.5 -126.5t73 -84t102.5 -45t121 -14.5q164 0 243.5 71.5t79.5 198.5q0 115 -87 197t-236 82q-147 0 -233.5 -81.5
t-88.5 -197.5z" />
    <glyph glyph-name="uniF039" unicode="&#xf039;" horiz-adv-x="1255" 
d="M121 946q0 102 30 190.5t89.5 158.5t156.5 110.5t221 40.5q129 0 231.5 -48t168.5 -133t100.5 -200t34.5 -252q0 -241 -73 -429t-209 -294t-314 -106q-289 0 -428 229l88 61q123 -180 336 -180q136 0 242.5 87.5t162.5 227.5t58 304h-6q-46 -99 -153.5 -166.5
t-246.5 -67.5q-120 0 -215 38t-154 103t-89.5 148t-30.5 178zM254 963q0 -179 95.5 -281t268.5 -102q162 0 270.5 100.5t108.5 257.5q0 178 -108.5 291.5t-270.5 113.5t-263 -103.5t-101 -276.5z" />
    <glyph glyph-name="uniF03A" unicode="&#xf03a;" horiz-adv-x="1255" 
d="M637 -12q-169 0 -288 93t-176.5 255t-57.5 381q0 218 57.5 381t176.5 257.5t288 94.5q127 0 224.5 -54t158 -152.5t91 -231t30.5 -295.5q1 -163 -29.5 -295.5t-91.5 -230t-158.5 -150.5t-224.5 -53zM254 717q0 -176 41.5 -313t129.5 -220.5t212 -83.5q95 0 166 47
t113.5 132t63.5 195t21 243t-20.5 242.5t-63 195.5t-114 134t-166.5 48q-125 0 -213 -85t-129 -222.5t-41 -312.5z" />
    <glyph glyph-name="uniF03B" unicode="&#xf03b;" horiz-adv-x="1255" 
d="M227 0v115h338v1159h-6l-258 -182l-57 84l362 258h90v-1319h338v-115h-807z" />
    <glyph glyph-name="uniF03C" unicode="&#xf03c;" horiz-adv-x="1255" 
d="M164 100l530 553q36 38 56 60t59.5 72t61.5 89.5t40.5 93.5t18.5 103q0 136 -76 205.5t-209 69.5q-65 0 -122.5 -20t-102 -57t-76.5 -73.5t-63 -83.5l-95 53q24 41 54 78.5t73.5 77t92.5 68t113.5 47t133.5 18.5q195 0 305.5 -94.5t110.5 -286.5q0 -41 -10 -83.5
t-23.5 -77t-38.5 -74.5t-44 -66.5t-51.5 -63t-49 -54t-49 -49.5t-39.5 -40l-432 -448v-6h786v-111h-954v100z" />
    <glyph glyph-name="uniF03D" unicode="&#xf03d;" horiz-adv-x="1255" 
d="M618 -10q-145 0 -274.5 45t-212.5 110l55 97q83 -61 193.5 -101.5t234.5 -40.5q177 0 269 76.5t94 224.5q0 127 -101.5 210t-254.5 83h-142v99h142q144 0 231.5 85.5t85.5 196.5q-1 129 -80.5 194.5t-216.5 65.5q-109 0 -219.5 -48.5t-179.5 -110.5l-54 94
q88 74 207.5 126t251.5 52q86 0 158.5 -19.5t133 -60.5t94.5 -113t34 -170q0 -113 -61.5 -202t-155.5 -129v-6q113 -42 186.5 -133t73.5 -222q0 -88 -29.5 -158t-77 -115t-112.5 -75t-132.5 -42.5t-140.5 -12.5z" />
    <glyph glyph-name="uniF03E" unicode="&#xf03e;" horiz-adv-x="1255" 
d="M117 416l735 1018h113v-1014h170v-109h-170v-311h-131v311h-717v105zM256 428v-8h578v799h-7z" />
    <glyph glyph-name="uniF03F" unicode="&#xf03f;" horiz-adv-x="1255" 
d="M596 -10q-145 0 -277 50t-225 118l58 92q226 -154 434 -154q171 0 280 108t109 281q0 169 -93 260t-251 91q-92 0 -182.5 -36.5t-145.5 -78.5l-82 49l37 664h768v-111h-661l-25 -469l8 -4q149 88 311 88q69 0 131.5 -13.5t122 -46.5t102.5 -83t69 -129t26 -179t-31 -184
t-82 -141t-118 -96.5t-138.5 -57.5t-144.5 -18z" />
    <glyph glyph-name="uniF040" unicode="&#xf040;" horiz-adv-x="1255" 
d="M637 -12q-129 0 -231.5 48t-168.5 133t-100.5 200t-34.5 252q0 242 73 430t209 293.5t314 105.5q289 0 428 -229l-88 -62q-124 182 -336 182q-102 0 -189.5 -51.5t-146 -137.5t-91.5 -197.5t-35 -233.5h6q46 98 153 165.5t246 67.5q120 0 215 -38t154 -103t90 -148
t31 -178q0 -81 -18.5 -154t-58.5 -136.5t-97.5 -109.5t-140.5 -72.5t-183 -26.5zM258 498q0 -179 108.5 -293.5t270.5 -114.5t263 104t101 279q0 177 -95.5 279t-268.5 102q-161 0 -270 -100.5t-109 -255.5z" />
    <glyph glyph-name="uniF041" unicode="&#xf041;" horiz-adv-x="1255" 
d="M963 1323h-818v111h957v-105q-224 -413 -348 -680.5t-256 -648.5h-136q92 256 191 482.5t174.5 377t235.5 457.5v6z" />
    <glyph glyph-name="uniF042" unicode="&#xf042;" horiz-adv-x="1255" 
d="M100 381q0 149 78.5 246.5t202.5 140.5q-95 41 -150 120t-55 197q-1 167 126.5 269t324.5 102q198 0 325 -101.5t127 -269.5q0 -117 -55.5 -196.5t-149.5 -120.5q128 -42 204.5 -139t76.5 -248q0 -181 -147.5 -290t-380.5 -109q-232 0 -379.5 109t-147.5 290zM627 721
q-177 0 -283.5 -87.5t-105.5 -248.5q0 -129 106.5 -219t282.5 -90q178 0 284.5 89.5t106.5 219.5q0 163 -104.5 249.5t-286.5 86.5zM305 1085q-1 -73 25.5 -126.5t73 -84t102.5 -45t121 -14.5q164 0 243.5 71.5t79.5 198.5q0 115 -87 197t-236 82q-147 0 -233.5 -81.5
t-88.5 -197.5z" />
    <glyph glyph-name="uniF043" unicode="&#xf043;" horiz-adv-x="1255" 
d="M121 946q0 102 30 190.5t89.5 158.5t156.5 110.5t221 40.5q129 0 231.5 -48t168.5 -133t100.5 -200t34.5 -252q0 -241 -73 -429t-209 -294t-314 -106q-289 0 -428 229l88 61q123 -180 336 -180q136 0 242.5 87.5t162.5 227.5t58 304h-6q-46 -99 -153.5 -166.5
t-246.5 -67.5q-120 0 -215 38t-154 103t-89.5 148t-30.5 178zM254 963q0 -179 95.5 -281t268.5 -102q162 0 270.5 100.5t108.5 257.5q0 178 -108.5 291.5t-270.5 113.5t-263 -103.5t-101 -276.5z" />
    <glyph glyph-name="uniF044" unicode="&#xf044;" horiz-adv-x="1130" 
d="M565 -12q-196 0 -323 135t-127 352q0 218 127.5 355t322.5 137q207 0 329 -135t122 -357q0 -221 -121.5 -354t-329.5 -133zM252 475q0 -161 87 -268.5t226 -106.5q140 0 227 106.5t87 268.5q0 164 -86 272.5t-228 108.5q-140 0 -226.5 -109.5t-86.5 -271.5z" />
    <glyph glyph-name="uniF045" unicode="&#xf045;" horiz-adv-x="663" 
d="M113 854v94l333 21v-969h-129v864z" />
    <glyph glyph-name="uniF046" unicode="&#xf046;" horiz-adv-x="1009" 
d="M111 106l428 302q37 27 57 42.5t50.5 44t46.5 52t28 57t12 68.5q0 86 -65.5 141t-157.5 55q-100 0 -181.5 -65t-129.5 -158l-80 62q54 112 157.5 189t245.5 77q156 0 250 -86.5t94 -206.5q0 -58 -19 -108.5t-55.5 -92.5t-71 -71t-85.5 -64l-313 -223v-6h571v-115h-782
v106z" />
    <glyph glyph-name="uniF047" unicode="&#xf047;" horiz-adv-x="1079" 
d="M514 -301q-253 0 -422 135l53 92q165 -119 367 -119q94 0 164 26t114.5 88.5t45.5 156.5q0 120 -96 180.5t-253 60.5h-137v95h137q144 0 228 65t82 168q-1 102 -69.5 157.5t-186.5 55.5q-177 0 -338 -137l-53 92q88 72 183 114t214 42q62 0 116 -9.5t103 -32.5
t83.5 -57.5t55 -88t21.5 -121.5q0 -107 -56 -172.5t-155 -108.5v-6q113 -28 183.5 -102t70.5 -203q0 -87 -31 -154.5t-78.5 -107.5t-110.5 -65.5t-120 -34.5t-115 -9z" />
    <glyph glyph-name="uniF048" unicode="&#xf048;" horiz-adv-x="1017" 
d="M35 -6v100l635 869h112v-867h170v-102h-170v-295h-131v295h-616zM168 96h483v660h-6l-475 -652z" />
    <glyph glyph-name="uniF049" unicode="&#xf049;" horiz-adv-x="1056" 
d="M516 -311q-239 0 -461 170l58 92q58 -41 82 -56t79.5 -44.5t110.5 -41.5t119 -12q158 0 245 84.5t87 253.5q0 164 -82.5 240t-218.5 76q-146 0 -271 -99l-82 54l31 557h696v-107h-594l-18 -381l6 -4q7 4 27.5 15t28 15t26 13t29 12.5t29.5 9.5t35 8.5t37 4.5t44 2
q63 0 118 -10.5t110.5 -39t95 -73.5t64 -120.5t24.5 -174.5q0 -100 -27 -178t-70.5 -127t-104 -81t-122.5 -45t-131 -13z" />
    <glyph glyph-name="uniF04A" unicode="&#xf04a;" horiz-adv-x="1067" 
d="M545 -12q-116 0 -204 40.5t-143.5 115.5t-83.5 178.5t-28 234.5q0 156 30.5 283t79.5 209t115.5 137t135.5 78.5t141 23.5q121 0 206 -32.5t167 -88.5l-68 -92q-52 35 -84.5 53t-90.5 34t-124 16q-157 0 -262.5 -147t-106.5 -402h6q39 65 126.5 113.5t197.5 48.5
q190 0 298 -114.5t108 -277.5q0 -86 -25.5 -159.5t-75 -130t-130.5 -89t-185 -32.5zM244 408q0 -149 84 -235.5t217 -86.5q122 0 203 81t81 222q0 134 -77.5 219.5t-206.5 85.5q-124 0 -212.5 -76.5t-88.5 -209.5z" />
    <glyph glyph-name="uniF04B" unicode="&#xf04b;" horiz-adv-x="1013" 
d="M780 852h-680v111h820v-105q-219 -377 -321.5 -596t-217.5 -590h-137q62 194 114.5 334t128.5 294.5t122 239t171 306.5v6z" />
    <glyph glyph-name="uniF04C" unicode="&#xf04c;" horiz-adv-x="1130" 
d="M565 -18q-220 0 -347.5 91.5t-127.5 260.5q0 246 258 338q-184 83 -184 270q-2 141 106.5 233.5t294.5 92.5q185 0 293.5 -92.5t108.5 -233.5q0 -190 -183 -270q256 -88 256 -338q0 -169 -128 -260.5t-347 -91.5zM565 621q-155 0 -248.5 -77.5t-91.5 -205.5
q0 -121 89.5 -190.5t250.5 -69.5q165 1 252.5 70.5t87.5 189.5q0 128 -92.5 205.5t-247.5 77.5zM293 944q-1 -113 75 -166t197 -53q77 0 136 20.5t98 71.5t39 127q0 104 -74.5 167t-198.5 63q-126 0 -199 -62t-73 -168z" />
    <glyph glyph-name="uniF04D" unicode="&#xf04d;" horiz-adv-x="1067" 
d="M106 -201l70 92q50 -35 83 -53t90.5 -34.5t123.5 -16.5q157 0 262.5 147t108.5 404h-6q-39 -65 -126.5 -113.5t-199.5 -48.5q-190 0 -298 114t-108 277q0 116 45.5 207t143.5 148t237 57q227 0 338 -151t111 -420q0 -156 -30 -283t-79.5 -208.5t-115.5 -136.5t-135 -78.5
t-142 -23.5q-64 0 -120 10t-103 29.5t-78.5 37t-71.5 44.5zM240 578q0 -134 77 -220t207 -86q124 0 211.5 77t87.5 210q0 149 -79.5 235.5t-211.5 86.5q-123 0 -207.5 -81t-84.5 -222z" />
    <glyph glyph-name="uniF04E" unicode="&#xf04e;" horiz-adv-x="1077" 
d="M539 -12q-202 0 -331.5 134.5t-129.5 352.5t130 355t331 137q213 0 335.5 -134.5t122.5 -357.5q2 -222 -121 -354.5t-337 -132.5zM217 475q0 -161 89 -268.5t233 -106.5q146 0 233.5 106t87.5 269q0 165 -86.5 273t-234.5 108q-145 0 -233.5 -109.5t-88.5 -271.5z" />
    <glyph glyph-name="uniF04F" unicode="&#xf04f;" horiz-adv-x="1077" 
d="M164 0v115h315v749l-256 -10v94l385 21v-854h303v-115h-747z" />
    <glyph glyph-name="uniF050" unicode="&#xf050;" horiz-adv-x="1077" 
d="M109 0v106l448 302q35 25 57 41.5t51.5 44t46 52t28.5 58t12 68.5q0 86 -66 141t-158 55q-100 0 -181.5 -65t-127.5 -158l-82 62q54 111 158 188.5t246 77.5q158 0 252 -86.5t94 -206.5q0 -58 -19.5 -109.5t-55.5 -93t-73 -71.5t-86 -62l-331 -223v-6h626v-115h-839z" />
    <glyph glyph-name="uniF051" unicode="&#xf051;" horiz-adv-x="1077" 
d="M510 -301q-253 0 -422 135l53 92q165 -119 367 -119q94 0 164 26t114 88.5t45 156.5q0 121 -95 181t-253 60h-137v95h137q145 0 228.5 65t81.5 168q-1 102 -69 157.5t-185 55.5q-179 0 -340 -137l-54 92q190 156 398 156q62 0 116 -9.5t103 -32.5t83.5 -57.5t55 -88
t21.5 -121.5q0 -107 -56 -172.5t-155 -108.5v-6q113 -28 183.5 -102t70.5 -203q0 -87 -31 -154.5t-78.5 -107.5t-110.5 -65.5t-120 -34.5t-115 -9z" />
    <glyph glyph-name="uniF052" unicode="&#xf052;" horiz-adv-x="1077" 
d="M86 -6v100l633 869h115v-865h172v-104h-172v-295h-134v295h-614zM221 98h479v658h-6l-471 -650z" />
    <glyph glyph-name="uniF053" unicode="&#xf053;" horiz-adv-x="1077" 
d="M514 -311q-241 0 -459 170l58 92q107 -75 159 -100q109 -54 232 -54q159 0 253.5 85.5t94.5 252.5q0 84 -25.5 147t-70.5 99.5t-100.5 54t-120.5 17.5q-161 0 -289 -101l-82 54l31 557h731v-107h-629l-18 -381l6 -4q54 29 80.5 42t81.5 27.5t112 14.5q63 0 119 -10.5
t114.5 -40t100 -75t68 -121.5t26.5 -175t-28.5 -177.5t-74.5 -127.5t-109 -81.5t-127 -45t-134 -12.5z" />
    <glyph glyph-name="uniF054" unicode="&#xf054;" horiz-adv-x="1077" 
d="M551 -12q-228 0 -342.5 151t-114.5 418q0 156 30 283t79.5 209t115.5 137t135 78.5t142 23.5q121 0 205 -32t166 -89l-68 -92q-52 35 -84.5 53t-90 34t-122.5 16q-76 0 -142.5 -37t-117.5 -105t-80.5 -173t-30.5 -234h7q39 65 126 113.5t197 48.5q129 0 223 -56
t138.5 -143.5t44.5 -192.5q0 -86 -25 -159.5t-74.5 -130t-130.5 -89t-186 -32.5zM250 408q0 -149 84 -235.5t217 -86.5q122 0 203.5 81t81.5 222q0 134 -78 219.5t-207 85.5q-124 0 -212.5 -76.5t-88.5 -209.5z" />
    <glyph glyph-name="uniF055" unicode="&#xf055;" horiz-adv-x="1077" 
d="M825 852h-739v111h879v-105q-219 -377 -321.5 -596t-217.5 -590h-135q50 157 99 288t86.5 220.5t104 218t106 200.5t138.5 247v6z" />
    <glyph glyph-name="uniF056" unicode="&#xf056;" horiz-adv-x="1077" 
d="M539 -18q-208 0 -333.5 92t-125.5 260q0 239 242 338q-185 84 -185 270q0 141 108.5 233.5t293.5 92.5t293 -92.5t108 -233.5q0 -191 -182 -270q237 -92 237 -338q0 -168 -124.5 -260t-331.5 -92zM539 621q-143 0 -233 -78t-89 -205q0 -120 86 -190t236 -70
q154 1 237.5 70.5t83.5 189.5q0 127 -89.5 205t-231.5 78zM266 944q-1 -113 75.5 -166t197.5 -53q119 0 195.5 53t76.5 166q0 104 -74 167t-198 63q-126 0 -199.5 -62t-73.5 -168z" />
    <glyph glyph-name="uniF057" unicode="&#xf057;" horiz-adv-x="1077" 
d="M109 -201l69 92q50 -35 83 -53t90.5 -34.5t123.5 -16.5q157 0 262.5 147t108.5 404h-6q-39 -65 -126.5 -113.5t-199.5 -48.5q-190 0 -297.5 114t-107.5 277q0 116 45.5 207t143.5 148t237 57q227 0 337.5 -150.5t110.5 -420.5q0 -156 -30 -283t-79.5 -208.5
t-115.5 -136.5t-135 -78.5t-142 -23.5q-121 0 -204 32t-168 89zM242 578q0 -134 77 -220t207 -86q124 0 211.5 77t87.5 210q0 149 -79 235.5t-211 86.5q-123 0 -208 -81t-85 -222z" />
    <glyph glyph-name="uniF063" unicode="&#xf063;" horiz-adv-x="1921" 
d="M541 -14q-87 0 -164 31t-136.5 89t-94.5 149.5t-35 205.5q0 99 28 185t81 151.5t135.5 103t185.5 37.5q81 0 145 -18l2 4q-64 73 -107.5 177.5t-43.5 190.5q0 112 73 184t201 72q63 0 177 -6t163 -6v-786h6q37 79 110 135.5t173 56.5q183 0 267.5 -112t84.5 -343v-487
h-123v449q0 93 -11 159.5t-38 120t-77 80.5t-124 27q-98 0 -167.5 -84.5t-100.5 -216.5v-535h-123v1460q-25 0 -101 5t-120 5q-90 0 -134 -49t-44 -135q0 -108 52 -208.5t144 -211.5l-43 -88q-82 60 -227 60q-103 0 -176 -53t-106 -136t-33 -186q0 -163 88 -269t229 -106
q74 0 142.5 20t109.5 50l45 -88q-135 -84 -313 -84z" />
    <glyph glyph-name="uniF064" unicode="&#xf064;" horiz-adv-x="1810" 
d="M111 461q0 99 28 185t81 151.5t135.5 103t185.5 37.5q81 0 145 -18l2 4q-64 73 -107.5 177.5t-43.5 190.5q0 112 73 184t201 72q63 0 177 -6t163 -6v-1083h6l422 469h135l-325 -363l333 -559h-139l-276 469l-156 -174v-295h-123v1460q-25 0 -101 5t-120 5q-90 0 -134 -49
t-44 -135q0 -107 52.5 -207.5t143.5 -212.5l-43 -88q-82 60 -227 60q-103 0 -176 -53t-106 -136t-33 -186q0 -163 88 -269t229 -106q74 0 142.5 20t109.5 50l45 -88q-135 -84 -313 -84q-87 0 -164 31t-136.5 89t-94.5 149.5t-35 205.5z" />
    <glyph glyph-name="uniF065" unicode="&#xf065;" horiz-adv-x="1574" 
d="M541 -14q-87 0 -164 31t-136.5 89t-94.5 149.5t-35 205.5q0 99 28 185t81 151.5t135.5 103t185.5 37.5q61 0 133 -14v2q-142 131 -142 282q0 104 73 171t192 67q68 0 151 -26.5t160.5 -55.5t122.5 -33v-409h256v-97h-254v-532q0 -63 11.5 -106t32.5 -65t44 -31t53 -9
q62 0 111 39v-76q-19 -20 -64 -36.5t-84 -16.5q-107 0 -167 66.5t-60 222.5v544h-117v74l121 23v344q-22 7 -83 34t-119.5 45.5t-108.5 18.5q-174 0 -174 -168q0 -37 9 -69.5t32.5 -68.5t40 -57.5t56.5 -67.5t58 -67l-43 -88q-82 60 -227 60q-103 0 -176 -53t-106 -136
t-33 -186q0 -163 88 -269t229 -106q74 0 142.5 20t109.5 50l45 -88q-135 -84 -313 -84z" />
    <glyph glyph-name="uniF066" unicode="&#xf066;" horiz-adv-x="1894" 
d="M106 68l48 94q45 -33 119.5 -55.5t150.5 -22.5q93 0 147 40t54 107q0 69 -51.5 111.5t-178.5 81.5q-256 77 -256 260q0 123 90 188.5t234 65.5q77 0 143 -16l2 2q-63 74 -106 178t-43 190q0 115 76 185.5t206 70.5q63 0 198.5 -6t184.5 -6v-786h6q37 79 110 135.5
t173 56.5q183 0 268.5 -112t85.5 -343v-487h-125v449q0 74 -6.5 130t-23 106t-44 82t-71 50.5t-102.5 18.5q-99 0 -169.5 -84.5t-101.5 -216.5v-535h-123v1460q-26 0 -123.5 5t-140.5 5q-93 0 -139.5 -48.5t-46.5 -135.5q0 -108 52.5 -209t144.5 -211l-43 -88
q-95 64 -236 64q-91 0 -147 -40.5t-56 -101.5q0 -69 43.5 -105t130.5 -63q163 -49 237.5 -116.5t74.5 -177.5q0 -118 -92.5 -184t-231.5 -66q-199 0 -322 80z" />
    <glyph glyph-name="uniF067" unicode="&#xf067;" horiz-adv-x="1783" 
d="M106 68l48 94q45 -33 119.5 -55.5t150.5 -22.5q93 0 147 40t54 107q0 69 -51.5 111.5t-178.5 81.5q-256 77 -256 260q0 123 90 188.5t234 65.5q77 0 143 -16l2 2q-63 74 -106 178t-43 190q0 115 76 185.5t206 70.5q63 0 198.5 -6t184.5 -6v-1083h6l422 469h136l-326 -363
l334 -559h-140l-274 469l-158 -174v-295h-123v1460q-26 0 -123.5 5t-140.5 5q-93 0 -139.5 -48.5t-46.5 -135.5q0 -108 52.5 -208.5t144.5 -211.5l-43 -88q-95 64 -236 64q-91 0 -147 -40.5t-56 -101.5q0 -69 43.5 -105t130.5 -63q163 -49 237.5 -116.5t74.5 -177.5
q0 -118 -92.5 -184t-231.5 -66q-199 0 -322 80z" />
    <glyph glyph-name="uniF068" unicode="&#xf068;" horiz-adv-x="1044" 
d="M469 -14q-72 0 -135 25t-114.5 75t-81 135.5t-29.5 196.5q0 152 64 271t171.5 183t237.5 64q115 0 313 -27v-690q0 -158 20 -219h-127q-12 56 -12 172h-6q-105 -186 -301 -186zM588 836q-108 1 -190.5 -58.5t-123.5 -152.5t-41 -203q0 -155 71.5 -246.5t197.5 -91.5
q81 0 144.5 60t93.5 139.5t30 156.5v379q-132 17 -182 17z" />
    <glyph glyph-name="uniF069" unicode="&#xf069;" horiz-adv-x="1044" 
d="M469 -14q-72 0 -135 25t-114.5 75t-81 135.5t-29.5 196.5q0 152 64 271t171.5 183t237.5 64q115 0 313 -27v-690q0 -158 20 -219h-127q-12 56 -12 172h-6q-105 -186 -301 -186zM588 836q-108 1 -190.5 -58.5t-123.5 -152.5t-41 -203q0 -155 71.5 -246.5t197.5 -91.5
q81 0 144.5 60t93.5 139.5t30 156.5v379q-132 17 -182 17zM305 1407h156l186 -311h-86z" />
    <glyph glyph-name="uniF06A" unicode="&#xf06a;" horiz-adv-x="1044" 
d="M469 -14q-72 0 -135 25t-114.5 75t-81 135.5t-29.5 196.5q0 152 64 271t171.5 183t237.5 64q115 0 313 -27v-690q0 -158 20 -219h-127q-12 56 -12 172h-6q-105 -186 -301 -186zM588 836q-108 1 -190.5 -58.5t-123.5 -152.5t-41 -203q0 -155 71.5 -246.5t197.5 -91.5
q81 0 144.5 60t93.5 139.5t30 156.5v379q-132 17 -182 17zM518 1096l184 311h158l-256 -311h-86z" />
    <glyph glyph-name="uniF06B" unicode="&#xf06b;" horiz-adv-x="1044" 
d="M109 418q0 152 64 271t171.5 183t237.5 64q115 0 313 -27v-690q0 -158 20 -219h-127q-12 56 -12 172h-6q-105 -186 -301 -186q-72 0 -135 25t-114.5 75t-81 135.5t-29.5 196.5zM588 836q-108 1 -190.5 -58.5t-123.5 -152.5t-41 -203q0 -155 71.5 -246.5t197.5 -91.5
q81 0 144.5 60t93.5 139.5t30 156.5v379q-132 17 -182 17zM287 1092l229 309h123l229 -309h-90l-196 219h-7l-196 -219h-92z" />
    <glyph glyph-name="uniF06C" unicode="&#xf06c;" horiz-adv-x="1044" 
d="M469 -14q-72 0 -135 25t-114.5 75t-81 135.5t-29.5 196.5q0 152 64 271t171.5 183t237.5 64q115 0 313 -27v-690q0 -158 20 -219h-127q-12 56 -12 172h-6q-105 -186 -301 -186zM588 836q-108 1 -190.5 -58.5t-123.5 -152.5t-41 -203q0 -155 71.5 -246.5t197.5 -91.5
q81 0 144.5 60t93.5 139.5t30 156.5v379q-132 17 -182 17zM342 1124h-80q15 75 58 129t122 54q37 0 66.5 -12.5t49 -30.5t37 -35.5t39.5 -30t48 -12.5q46 0 71.5 32.5t30.5 75.5h82q-11 -74 -56.5 -129t-127.5 -55q-45 0 -80.5 18.5t-55 40t-47 40t-57.5 18.5
q-47 0 -68.5 -29t-31.5 -74z" />
    <glyph glyph-name="uniF06D" unicode="&#xf06d;" horiz-adv-x="1044" 
d="M109 418q0 152 64 271t171.5 183t237.5 64q115 0 313 -27v-690q0 -158 20 -219h-127q-12 56 -12 172h-6q-105 -186 -301 -186q-72 0 -135 25t-114.5 75t-81 135.5t-29.5 196.5zM233 422q0 -155 71.5 -246.5t197.5 -91.5q81 0 144.5 60t93.5 139.5t30 156.5v379
q-132 17 -182 17q-108 1 -190.5 -58.5t-123.5 -152.5t-41 -203zM752 1133q-38 0 -65.5 27.5t-27.5 64.5q0 38 27.5 65t65.5 27q37 0 63.5 -27t26.5 -65q0 -37 -26.5 -64.5t-63.5 -27.5zM424 1133q-38 0 -65 27.5t-27 64.5q0 38 27 65t65 27q37 0 63.5 -27t26.5 -65
q0 -37 -26.5 -64.5t-63.5 -27.5z" />
    <glyph glyph-name="uniF06E" unicode="&#xf06e;" horiz-adv-x="1044" 
d="M469 -14q-72 0 -135 25t-114.5 75t-81 135.5t-29.5 196.5q0 152 64 271t171.5 183t237.5 64q115 0 313 -27v-690q0 -158 20 -219h-127q-12 56 -12 172h-6q-105 -186 -301 -186zM233 422q0 -155 71.5 -246.5t197.5 -91.5q81 0 144.5 60t93.5 139.5t30 156.5v379
q-132 17 -182 17q-108 1 -190.5 -58.5t-123.5 -152.5t-41 -203zM383 1171q0 99 61.5 153t147.5 54q88 0 150.5 -54t62.5 -153t-62.5 -152.5t-150.5 -53.5t-148.5 53.5t-60.5 152.5zM592 1311q-59 0 -95 -39.5t-36 -100.5q0 -62 35.5 -100.5t95.5 -38.5t97.5 38.5t37.5 100.5
q0 61 -37.5 100.5t-97.5 39.5z" />
    <glyph glyph-name="uniF06F" unicode="&#xf06f;" horiz-adv-x="1044" 
d="M469 -14q-72 0 -135 25t-114.5 75t-81 135.5t-29.5 196.5q0 152 64 271t171.5 183t237.5 64q115 0 313 -27v-690q0 -158 20 -219h-127q-12 56 -12 172h-6q-105 -186 -301 -186zM588 836q-108 1 -190.5 -58.5t-123.5 -152.5t-41 -203q0 -155 71.5 -246.5t197.5 -91.5
q81 0 144.5 60t93.5 139.5t30 156.5v379q-132 17 -182 17zM868 1106h-555v65h555v-65z" />
    <glyph glyph-name="uniF070" unicode="&#xf070;" horiz-adv-x="1044" 
d="M109 418q0 152 64 271t171.5 183t237.5 64q115 0 313 -27v-690q0 -158 20 -219h-127q-12 56 -12 172h-6q-105 -186 -301 -186q-72 0 -135 25t-114.5 75t-81 135.5t-29.5 196.5zM588 836q-108 1 -190.5 -58.5t-123.5 -152.5t-41 -203q0 -155 71.5 -246.5t197.5 -91.5
q81 0 144.5 60t93.5 139.5t30 156.5v379q-132 17 -182 17zM567 1069q-48 0 -92 14.5t-83 44.5t-65.5 82.5t-33.5 122.5h100q11 -84 56 -133t118 -49q74 0 118.5 49.5t55.5 132.5h101q-14 -134 -92.5 -199t-182.5 -65z" />
    <glyph glyph-name="uniF071" unicode="&#xf071;" horiz-adv-x="1044" 
d="M469 -14q-72 0 -135 25t-114.5 75t-81 135.5t-29.5 196.5q0 152 64 271t171.5 183t237.5 64q115 0 313 -27v-690q0 -158 20 -219h-12q-42 0 -85.5 -52t-43.5 -112q0 -39 20.5 -56.5t45.5 -17.5q30 0 53 15v-70q-30 -18 -72 -18q-58 0 -96.5 33t-38.5 98q0 50 30.5 98
t74.5 82h-3q-12 56 -12 172h-6q-105 -186 -301 -186zM588 836q-108 1 -190.5 -58.5t-123.5 -152.5t-41 -203q0 -155 71.5 -246.5t197.5 -91.5q81 0 144.5 60t93.5 139.5t30 156.5v379q-132 17 -182 17z" />
    <glyph glyph-name="uniF072" unicode="&#xf072;" horiz-adv-x="1044" 
d="M109 418q0 152 64 271t171.5 183t237.5 64q115 0 313 -27v-690q0 -158 20 -219h-127q-12 56 -12 172h-6q-105 -186 -301 -186q-72 0 -135 25t-114.5 75t-81 135.5t-29.5 196.5zM588 836q-108 1 -190.5 -58.5t-123.5 -152.5t-41 -203q0 -155 71.5 -246.5t197.5 -91.5
q81 0 144.5 60t93.5 139.5t30 156.5v379q-132 17 -182 17zM598 954q-82 0 -139.5 51t-57.5 144t58 145t139 52q28 0 55 -9l123 209h142l-201 -239q82 -51 82 -158q0 -93 -59 -144t-142 -51zM473 1149q0 -58 34.5 -94.5t90.5 -36.5q57 0 93 37t36 94t-36 95t-93 38t-91 -37
t-34 -96z" />
    <glyph glyph-name="uniF073" unicode="&#xf073;" horiz-adv-x="1044" 
d="M469 -14q-72 0 -135 25t-114.5 75t-81 135.5t-29.5 196.5q0 152 64 271t171.5 183t237.5 64q115 0 313 -27v-690q0 -158 20 -219h-127q-12 56 -12 172h-6q-105 -186 -301 -186zM588 836q-108 1 -190.5 -58.5t-123.5 -152.5t-41 -203q0 -155 71.5 -246.5t197.5 -91.5
q81 0 144.5 60t93.5 139.5t30 156.5v379q-132 17 -182 17zM532 -317q-38 0 -65 27.5t-27 64.5q0 38 27 65t65 27q37 0 64 -27t27 -65q0 -37 -27 -64.5t-64 -27.5z" />
    <glyph glyph-name="uniF074" unicode="&#xf074;" horiz-adv-x="1044" 
d="M459 -506q-102 0 -200.5 23.5t-152.5 56.5l50 100q43 -32 130.5 -56t166.5 -24q321 0 321 461v117h-6q-20 -35 -41 -62t-56.5 -58.5t-87 -48.5t-114.5 -17q-72 0 -135 25t-114.5 75t-81 135.5t-29.5 196.5q0 152 64 271t171.5 183t237.5 64q115 0 313 -27v-854
q0 -95 -11.5 -173t-41.5 -152t-78 -124.5t-125.5 -81t-179.5 -30.5zM233 422q0 -155 71.5 -246.5t197.5 -91.5q81 0 144.5 60t93.5 139.5t30 156.5v379q-132 17 -182 17q-108 1 -190.5 -58.5t-123.5 -152.5t-41 -203z" />
    <glyph glyph-name="uniF075" unicode="&#xf075;" horiz-adv-x="1044" 
d="M106 -426l50 100q43 -32 130.5 -56t166.5 -24q321 0 321 461v117h-6q-20 -35 -41 -62t-56.5 -58.5t-87 -48.5t-114.5 -17q-72 0 -135 25t-114.5 75t-81 135.5t-29.5 196.5q0 152 64 271t171.5 183t237.5 64q115 0 313 -27v-854q0 -95 -11.5 -173t-41.5 -152t-78 -124.5
t-125.5 -81t-179.5 -30.5t-200.5 23.5t-152.5 56.5zM233 422q0 -155 71.5 -246.5t197.5 -91.5q81 0 144.5 60t93.5 139.5t30 156.5v379q-132 17 -182 17q-108 1 -190.5 -58.5t-123.5 -152.5t-41 -203zM266 1092l230 309h122l232 -309h-92l-197 219h-6l-197 -219h-92z" />
    <glyph glyph-name="uniF076" unicode="&#xf076;" horiz-adv-x="1044" 
d="M459 -506q-102 0 -200.5 23.5t-152.5 56.5l50 100q43 -32 130.5 -56t166.5 -24q321 0 321 461v117h-6q-20 -35 -41 -62t-56.5 -58.5t-87 -48.5t-114.5 -17q-72 0 -135 25t-114.5 75t-81 135.5t-29.5 196.5q0 152 64 271t171.5 183t237.5 64q115 0 313 -27v-854
q0 -95 -11.5 -173t-41.5 -152t-78 -124.5t-125.5 -81t-179.5 -30.5zM588 836q-108 1 -190.5 -58.5t-123.5 -152.5t-41 -203q0 -155 71.5 -246.5t197.5 -91.5q81 0 144.5 60t93.5 139.5t30 156.5v379q-132 17 -182 17zM561 1069q-48 0 -92 14.5t-83 44.5t-65.5 82.5
t-33.5 122.5h100q11 -84 55.5 -133t118.5 -49t118.5 49.5t55.5 132.5h101q-14 -134 -92.5 -199t-182.5 -65z" />
    <glyph glyph-name="uniF077" unicode="&#xf077;" horiz-adv-x="1044" 
d="M106 -426l50 100q43 -32 130.5 -56t166.5 -24q321 0 321 461v117h-6q-20 -35 -41 -62t-56.5 -58.5t-87 -48.5t-114.5 -17q-72 0 -135 25t-114.5 75t-81 135.5t-29.5 196.5q0 152 64 271t171.5 183t237.5 64q115 0 313 -27v-854q0 -95 -11.5 -173t-41.5 -152t-78 -124.5
t-125.5 -81t-179.5 -30.5t-200.5 23.5t-152.5 56.5zM233 422q0 -155 71.5 -246.5t197.5 -91.5q81 0 144.5 60t93.5 139.5t30 156.5v379q-132 17 -182 17q-108 1 -190.5 -58.5t-123.5 -152.5t-41 -203zM557 1133q-38 0 -66 27.5t-28 64.5q0 38 28 65t66 27q36 0 63 -27
t27 -65q0 -37 -27.5 -64.5t-62.5 -27.5z" />
    <glyph glyph-name="uniF078" unicode="&#xf078;" horiz-adv-x="1044" 
d="M459 -506q-102 0 -200.5 23.5t-152.5 56.5l50 100q43 -32 130.5 -56t166.5 -24q321 0 321 461v117h-6q-20 -35 -41 -62t-56.5 -58.5t-87 -48.5t-114.5 -17q-72 0 -135 25t-114.5 75t-81 135.5t-29.5 196.5q0 152 64 271t171.5 183t237.5 64q115 0 313 -27v-854
q0 -95 -11.5 -173t-41.5 -152t-78 -124.5t-125.5 -81t-179.5 -30.5zM588 836q-108 1 -190.5 -58.5t-123.5 -152.5t-41 -203q0 -155 71.5 -246.5t197.5 -91.5q81 0 144.5 60t93.5 139.5t30 156.5v379q-132 17 -182 17zM467 1092q-20 114 41 196.5t162 100.5v-74
q-132 -50 -101 -223h-102z" />
    <glyph glyph-name="uniF079" unicode="&#xf079;" horiz-adv-x="1044" 
d="M459 -506q-102 0 -200.5 23.5t-152.5 56.5l50 100q43 -32 130.5 -56t166.5 -24q321 0 321 461v117h-6q-20 -35 -41 -62t-56.5 -58.5t-87 -48.5t-114.5 -17q-72 0 -135 25t-114.5 75t-81 135.5t-29.5 196.5q0 152 64 271t171.5 183t237.5 64q115 0 313 -27v-854
q0 -95 -11.5 -173t-41.5 -152t-78 -124.5t-125.5 -81t-179.5 -30.5zM588 836q-108 1 -190.5 -58.5t-123.5 -152.5t-41 -203q0 -155 71.5 -246.5t197.5 -91.5q81 0 144.5 60t93.5 139.5t30 156.5v379q-132 17 -182 17zM274 1401h93l196 -219h6l197 219h90l-229 -309h-123z
" />
    <glyph glyph-name="uniF636" unicode="&#xf636;" horiz-adv-x="825" 
d="M213 930h-68q32 90 57 224t25 280h103q0 -145 -35.5 -278.5t-81.5 -225.5zM543 940h-68q82 230 82 494h102q0 -252 -116 -494z" />
    <glyph glyph-name="uniF637" unicode="&#xf637;" horiz-adv-x="495" 
d="M213 940h-68q82 230 82 494h103q0 -260 -117 -494z" />
    <glyph glyph-name="uniF638" unicode="&#xf638;" horiz-adv-x="495" 
d="M233 940h-102q0 250 117 494h67q-82 -230 -82 -494z" />
    <glyph glyph-name="uniF639" unicode="&#xf639;" horiz-adv-x="495" 
d="M213 940h-68q82 230 82 494h103q0 -260 -117 -494z" />
    <glyph glyph-name="uniF63A" unicode="&#xf63a;" horiz-adv-x="827" 
d="M563 940h-102q0 145 35.5 278.5t81.5 225.5h67q-32 -90 -57 -224t-25 -280zM131 940q0 250 117 494h67q-82 -230 -82 -494h-102z" />
    <glyph glyph-name="uniF63B" unicode="&#xf63b;" horiz-adv-x="825" 
d="M213 930h-68q32 90 57 224t25 280h103q0 -145 -35.5 -278.5t-81.5 -225.5zM543 940h-68q82 230 82 494h102q0 -252 -116 -494z" />
    <glyph glyph-name="uniF63C" unicode="&#xf63c;" horiz-adv-x="927" 
d="M119 649v37l360 408h74l-360 -414v-16l360 -426h-76zM733 238l-358 411v37l360 408h74l-360 -414v-16l360 -426h-76z" />
    <glyph glyph-name="uniF63D" unicode="&#xf63d;" horiz-adv-x="927" 
d="M444 680l-362 414h74l360 -408v-37l-358 -411h-76l362 426v16zM700 680l-362 414h74l360 -408v-37l-358 -411h-76l362 426v16z" />
    <glyph glyph-name="uniF63E" unicode="&#xf63e;" horiz-adv-x="671" 
d="M193 664l360 -426h-76l-358 411v37l360 408h74l-360 -414v-16z" />
    <glyph glyph-name="uniF63F" unicode="&#xf63f;" horiz-adv-x="671" 
d="M82 238l362 426v16l-362 414h74l360 -408v-37l-358 -411h-76z" />
    <glyph glyph-name="uniF640" unicode="&#xf640;" horiz-adv-x="466" 
d="M139 1079q0 39 28 68t66 29t66.5 -29.5t28.5 -67.5t-28.5 -67t-66.5 -29t-66 29t-28 67zM139 362q0 40 28 68.5t66 28.5t66.5 -28.5t28.5 -68.5q0 -37 -28.5 -65.5t-66.5 -28.5t-66 28.5t-28 65.5z" />
    <glyph glyph-name="uniF641" unicode="&#xf641;" horiz-adv-x="485" 
d="M430 -143h-309v1679h309v-63h-223v-1553h223v-63z" />
    <glyph glyph-name="uniF642" unicode="&#xf642;" horiz-adv-x="485" 
d="M20 1536h310v-1679h-310v63h224v1553h-224v63z" />
    <glyph glyph-name="uniF643" unicode="&#xf643;" horiz-adv-x="473" 
d="M131 -2l27 975h78l26 -975h-131zM195 1251q-38 0 -66.5 28.5t-28.5 68.5q0 38 28.5 67t66.5 29t67 -29t29 -67q0 -40 -28.5 -68.5t-67.5 -28.5z" />
    <glyph glyph-name="uniF644" unicode="&#xf644;" horiz-adv-x="948" 
d="M469 -18q-184 0 -290.5 91.5t-106.5 248.5q0 65 17.5 119.5t51 97t65 73t76.5 68.5t68 63q121 129 121 285h133q2 -87 -30.5 -171.5t-120.5 -186.5q-18 -22 -54 -53t-66 -58.5t-60.5 -62.5t-48 -79t-17.5 -93q0 -110 79 -173t191 -63q80 0 155.5 23.5t168.5 78.5l55 -98
q-95 -52 -182.5 -81t-204.5 -29zM528 1253q-37 0 -64.5 28.5t-27.5 68.5q0 38 27.5 66t64.5 28q40 0 68.5 -28t28.5 -66q0 -40 -28.5 -68.5t-68.5 -28.5z" />
    <glyph glyph-name="uniF645" unicode="&#xf645;" horiz-adv-x="735" 
d="M115 629v90q92 0 148 62.5t56 166.5v346q0 110 76.5 176t225.5 66v-63q-213 0 -213 -189v-342q0 -98 -49.5 -172t-151.5 -96q102 -22 151.5 -96t49.5 -172v-297q0 -189 213 -189v-63q-149 0 -225.5 65.5t-76.5 175.5v301q0 104 -56 167t-148 63z" />
    <glyph glyph-name="uniF646" unicode="&#xf646;" horiz-adv-x="735" 
d="M80 -143v63q211 0 211 189v297q0 98 49.5 172t151.5 96q-102 22 -151.5 96t-49.5 172v342q0 189 -211 189v63q147 0 223 -66t76 -176v-346q0 -104 56 -166.5t149 -62.5v-90q-92 0 -148.5 -63t-56.5 -167v-301q0 -110 -76 -175.5t-223 -65.5z" />
    <glyph glyph-name="uniF647" unicode="&#xf647;" horiz-adv-x="759" 
d="M90 1808h148l163 -272h-102z" />
    <glyph glyph-name="uniF648" unicode="&#xf648;" horiz-adv-x="800" 
d="M602 1577q-38 0 -66 28t-28 66t28 65t66 27t65 -27t27 -65t-27 -66t-65 -28zM106 1671q0 38 28 65t67 27q37 0 64.5 -27t27.5 -65t-27.5 -66t-64.5 -28q-38 0 -66.5 28t-28.5 66z" />
    <glyph glyph-name="uniF649" unicode="&#xf649;" horiz-adv-x="1013" 
d="M145 1597v66h725v-66h-725z" />
    <glyph glyph-name="uniF64A" unicode="&#xf64a;" horiz-adv-x="759" 
d="M510 1808h147l-211 -272h-100z" />
    <glyph glyph-name="uniF64B" unicode="&#xf64b;" horiz-adv-x="563" 
d="M104 1536h-108l229 258h113l229 -258h-108l-172 168h-8z" />
    <glyph glyph-name="uniF64C" unicode="&#xf64c;" horiz-adv-x="563" 
d="M-4 1794h108l175 -168h8l172 168h108l-229 -258h-113z" />
    <glyph glyph-name="uniF64D" unicode="&#xf64d;" horiz-adv-x="1056" 
d="M236 1751h102q12 -79 63 -123.5t127 -44.5q77 0 129 44.5t62 123.5h102q-6 -71 -35.5 -122.5t-73.5 -78t-89 -38t-95 -11.5q-39 0 -75 6.5t-74 24.5t-66.5 45t-49.5 72t-27 102z" />
    <glyph glyph-name="uniF64E" unicode="&#xf64e;" horiz-adv-x="466" 
d="M141 1671q0 38 27 65t65 27t65.5 -27t27.5 -65t-27.5 -66t-65.5 -28t-65 28t-27 66z" />
    <glyph glyph-name="uniF64F" unicode="&#xf64f;" horiz-adv-x="649" 
d="M322 1466q-90 0 -153 55.5t-63 157.5t63.5 158.5t152.5 56.5q90 0 154.5 -56.5t64.5 -158.5t-64 -157.5t-155 -55.5zM184 1679q0 -64 38 -103.5t100 -39.5q63 0 102 40t39 103q0 64 -39.5 105t-101.5 41t-100 -41t-38 -105z" />
    <glyph glyph-name="uniF650" unicode="&#xf650;" horiz-adv-x="569" 
d="M289 -10q-110 0 -171 84t-61 225q0 138 61 222.5t171 84.5q109 0 167 -83.5t58 -223.5q0 -142 -57.5 -225.5t-167.5 -83.5zM133 299q0 -111 40 -176.5t116 -65.5q75 0 111 64.5t36 177.5t-36 177.5t-111 64.5q-76 0 -116 -65.5t-40 -176.5z" />
    <glyph glyph-name="uniF651" unicode="&#xf651;" horiz-adv-x="385" 
d="M82 422l-33 51l164 115h59v-588h-75v496h-4z" />
    <glyph glyph-name="uniF652" unicode="&#xf652;" horiz-adv-x="552" 
d="M78 477q80 133 211 133q79 0 127.5 -41t48.5 -116q0 -43 -21 -86.5t-40 -65.5t-54 -57l-164 -170v-4h295v-70h-401v61l211 218q30 30 44.5 45.5t34 52.5t19.5 72q0 45 -27.5 70.5t-76.5 25.5q-27 0 -50 -8.5t-42 -25.5t-30.5 -31t-27.5 -36z" />
    <glyph glyph-name="uniF653" unicode="&#xf653;" horiz-adv-x="557" 
d="M270 -6q-124 0 -200 59l34 58q78 -54 164 -54q64 0 102 28.5t38 82.5q0 55 -39 85t-105 30h-65v57h65q60 0 93.5 29t33.5 77q0 44 -28 68.5t-82 24.5q-77 0 -152 -62l-35 53q88 72 189 72q82 0 132 -35t50 -114q0 -91 -88 -134v-4q108 -42 108 -151q-1 -39 -14.5 -70
t-34.5 -49.5t-50.5 -30t-57 -16t-58.5 -4.5z" />
    <glyph glyph-name="uniF654" unicode="&#xf654;" horiz-adv-x="571" 
d="M82 113v55l305 420h62v-416h69v-59h-69v-115h-68v115h-299zM156 172h225v309h-4l-221 -305v-4z" />
    <glyph glyph-name="uniF655" unicode="&#xf655;" horiz-adv-x="542" 
d="M262 -16q-111 0 -213 75l35 58q67 -46 103 -58q35 -12 71 -12q76 0 120 41t44 109q0 137 -133 137q-84 0 -135 -41l-50 33l17 264h332v-68h-277l-10 -160l4 -2q68 35 131 35q87 0 143 -46.5t56 -153.5q0 -105 -71.5 -158t-166.5 -53z" />
    <glyph glyph-name="uniF656" unicode="&#xf656;" horiz-adv-x="561" 
d="M291 -8q-112 0 -176 73.5t-64 194.5q0 173 74.5 259.5t191.5 86.5q99 0 179 -57l-41 -53q-25 15 -38 22t-42 16t-58 9q-86 0 -135 -67t-49 -150h4q19 31 63.5 55.5t94.5 24.5q98 0 154.5 -58t56.5 -147q0 -91 -57.5 -150t-157.5 -59zM139 207q0 -70 45.5 -113t106.5 -43
q58 0 98.5 38.5t40.5 111.5q0 74 -41 110.5t-98 36.5q-64 0 -108 -37t-44 -104z" />
    <glyph glyph-name="uniF657" unicode="&#xf657;" horiz-adv-x="493" 
d="M53 588h391v-58q-100 -164 -148.5 -267t-92.5 -265h-82q53 170 100.5 271.5t136.5 244.5v4h-305v70z" />
    <glyph glyph-name="uniF658" unicode="&#xf658;" horiz-adv-x="557" 
d="M279 -10q-104 0 -165 46.5t-61 123.5q0 116 113 159v5q-78 40 -78 131q0 65 53 108t138 43q88 0 140 -42.5t52 -108.5q0 -92 -80 -131v-5q113 -40 113 -159q0 -77 -60 -123.5t-165 -46.5zM279 289q-67 0 -107.5 -33.5t-40.5 -93.5q0 -54 38.5 -84.5t109.5 -30.5
q147 0 147 115q0 61 -39.5 94t-107.5 33zM162 455q0 -49 31.5 -78t85.5 -29q116 0 116 107q0 39 -30 67.5t-86 28.5q-55 0 -85 -28t-32 -68z" />
    <glyph glyph-name="uniF659" unicode="&#xf659;" horiz-adv-x="561" 
d="M57 397q0 91 57 150t158 59q111 0 174.5 -74t63.5 -194q0 -174 -73.5 -260t-190.5 -86q-98 0 -178 57l38 53q2 -1 13 -7.5t14.5 -8.5t14.5 -7.5t17 -7.5t16.5 -6t19.5 -5.5t20.5 -3t22.5 -1.5q86 0 135 66.5t51 150.5h-4q-19 -31 -63.5 -55t-96.5 -24q-98 0 -153.5 57.5
t-55.5 146.5zM133 397q0 -74 40.5 -110.5t98.5 -36.5q63 0 106.5 37t43.5 104q0 70 -45 113t-105 43q-59 0 -99 -38t-40 -112z" />
    <glyph glyph-name="uniF65A" unicode="&#xf65a;" horiz-adv-x="854" 
d="M121 1565q12 72 56 122t124 50q45 0 81.5 -17.5t55.5 -38t46 -38t57 -17.5q86 0 102 96h84q-7 -72 -53.5 -123t-128.5 -51q-37 0 -67.5 11t-50.5 27t-38.5 31.5t-40.5 26.5t-47 11q-47 0 -67.5 -25t-28.5 -65h-84z" />
    <glyph glyph-name="uniF65B" unicode="&#xf65b;" horiz-adv-x="907" 
d="M182 1536l164 272h148l-211 -272h-101zM481 1536l164 272h148l-211 -272h-101z" />
    <glyph glyph-name="uniF65C" unicode="&#xf65c;" horiz-adv-x="466" 
d="M174 0v922h123v-922h-123zM139 1331q0 40 27 68t67 28q39 0 67 -28.5t28 -67.5q0 -38 -28.5 -66t-66.5 -28q-39 0 -66.5 27.5t-27.5 66.5z" />
    <glyph glyph-name="uniF660" unicode="&#xf660;" horiz-adv-x="569" 
d="M289 727q-110 0 -171 84t-61 225q0 138 61 222.5t171 84.5q109 0 167 -83.5t58 -223.5q0 -142 -57.5 -225.5t-167.5 -83.5zM133 1036q0 -111 40 -176t116 -65q75 0 111 64t36 177t-36 177.5t-111 64.5q-76 0 -116 -65.5t-40 -176.5z" />
    <glyph glyph-name="uniF661" unicode="&#xf661;" horiz-adv-x="385" 
d="M82 1180l-33 51l164 115h59v-588h-75v495h-4z" />
    <glyph glyph-name="uniF662" unicode="&#xf662;" horiz-adv-x="552" 
d="M78 1214q80 134 211 134q79 0 127.5 -41.5t48.5 -116.5q0 -43 -21 -86.5t-40 -65.5t-54 -57l-164 -170v-4h295v-70h-401v62l211 217q30 30 44.5 45.5t34 52.5t19.5 72q0 45 -27.5 70.5t-76.5 25.5q-35 0 -66 -17t-47 -35t-37 -48z" />
    <glyph glyph-name="uniF663" unicode="&#xf663;" horiz-adv-x="557" 
d="M270 731q-123 0 -200 60l34 57q77 -53 164 -53q64 0 102 28t38 82q0 55 -39 85t-105 30h-65v57h65q60 0 93.5 29.5t33.5 77.5q0 44 -28 68t-82 24q-77 0 -152 -62l-35 54q86 71 189 71q82 0 132 -35t50 -114q0 -90 -88 -133v-4q108 -42 108 -152q-1 -39 -14.5 -70
t-34.5 -49.5t-50.5 -30t-57 -16t-58.5 -4.5z" />
    <glyph glyph-name="uniF664" unicode="&#xf664;" horiz-adv-x="550" 
d="M61 905l306 420h61v-416h70v-59h-70v-115h-68v115h-299v55zM356 1219l-221 -306v-4h225v310h-4z" />
    <glyph glyph-name="uniF665" unicode="&#xf665;" horiz-adv-x="542" 
d="M262 721q-109 0 -213 76l35 57q67 -46 103 -58q35 -12 71 -12q76 0 120 41t44 109q0 137 -133 137q-84 0 -135 -41l-50 33l17 264h332v-67h-277l-10 -160l4 -2q68 35 131 35q87 0 143 -47t56 -154q0 -105 -71.5 -158t-166.5 -53z" />
    <glyph glyph-name="uniF666" unicode="&#xf666;" horiz-adv-x="561" 
d="M291 729q-112 0 -176 73.5t-64 194.5q0 173 74.5 259.5t191.5 86.5q99 0 179 -57l-41 -53q-25 15 -38 22t-42 16t-58 9q-86 0 -135 -67t-49 -150h4q19 31 63.5 55.5t94.5 24.5q98 0 154.5 -58t56.5 -147q0 -91 -57.5 -150t-157.5 -59zM139 944q0 -70 45.5 -113t106.5 -43
q58 0 98.5 38.5t40.5 111.5q0 74 -41 110.5t-98 36.5q-64 0 -108 -37t-44 -104z" />
    <glyph glyph-name="uniF667" unicode="&#xf667;" horiz-adv-x="493" 
d="M53 1325h391v-57q-100 -163 -148.5 -266.5t-92.5 -266.5h-82q53 170 100.5 271.5t136.5 244.5v4h-305v70z" />
    <glyph glyph-name="uniF668" unicode="&#xf668;" horiz-adv-x="557" 
d="M279 727q-104 0 -165 46.5t-61 123.5q0 117 113 160v4q-78 40 -78 131q0 65 53 108t138 43q88 0 140 -42.5t52 -108.5q0 -92 -80 -131v-4q113 -40 113 -160q0 -77 -60 -123.5t-165 -46.5zM279 1026q-67 0 -107.5 -33.5t-40.5 -93.5q0 -54 38.5 -84.5t109.5 -30.5
q147 0 147 115q0 61 -39.5 94t-107.5 33zM162 1192q0 -49 31.5 -78t85.5 -29q116 0 116 107q0 39 -30 67.5t-86 28.5q-55 0 -85 -28t-32 -68z" />
    <glyph glyph-name="uniF669" unicode="&#xf669;" horiz-adv-x="561" 
d="M57 1135q0 91 57 149.5t158 58.5q111 0 174.5 -74t63.5 -194q0 -174 -73.5 -260t-190.5 -86q-98 0 -178 57l38 54q2 -1 13 -7.5t14.5 -8.5t14.5 -7.5t17 -7.5t16.5 -6t19.5 -5.5t20.5 -3t22.5 -1.5q86 0 135 66.5t51 150.5h-4q-19 -31 -63.5 -55.5t-96.5 -24.5
q-98 0 -153.5 58t-55.5 147zM133 1135q0 -74 40.5 -111t98.5 -37q63 0 106.5 37t43.5 104q0 70 -45 113t-105 43q-59 0 -99 -38t-40 -111z" />
    <glyph glyph-name="uniF66A" unicode="&#xf66a;" horiz-adv-x="847" 
d="M125 641v76h598v-76h-598z" />
    <glyph glyph-name="uniF66B" unicode="&#xf66b;" horiz-adv-x="1218" 
d="M125 641v76h969v-76h-969z" />
    <glyph glyph-name="uniF66C" unicode="&#xf66c;" horiz-adv-x="1787" 
d="M125 641v76h1538v-76h-1538z" />
    <glyph glyph-name="uniF66D" unicode="&#xf66d;" horiz-adv-x="1191" 
d="M1065 184l-952 463v86l952 453v-111l-817 -379v-10l817 -385v-117z" />
    <glyph glyph-name="uniF66E" unicode="&#xf66e;" horiz-adv-x="724" 
d="M100 0h-84l619 1434h86z" />
    </font>
</defs>
</svg>
