<?xml version="1.0" standalone="no"?>
<!DOCTYPE svg PUBLIC "-//W3C//DTD SVG 1.1//EN" "http://www.w3.org/Graphics/SVG/1.1/DTD/svg11.dtd" >
<svg xmlns="http://www.w3.org/2000/svg" xmlns:xlink="http://www.w3.org/1999/xlink" version="1.1">
<metadata>
Created by FontForge 20170731 at Sun Aug  6 18:09:20 2023
 By Aleksey,,,
All rights reserved (c)2020 Nasir Udin.
</metadata>
<defs>
<font id="ProdaSans-Regular" horiz-adv-x="1544" >
  <font-face 
    font-family="Proda Sans"
    font-weight="400"
    font-stretch="normal"
    units-per-em="2048"
    panose-1="2 11 0 0 4 0 0 0 0 3"
    ascent="1536"
    descent="-512"
    x-height="922"
    cap-height="1434"
    bbox="-377 -530 2329 2017"
    underline-thickness="102"
    underline-position="-358"
    unicode-range="U+000D-FB06"
  />
<missing-glyph horiz-adv-x="937" 
d="M858 0h-778v1434h778v-1434zM166 1352v-1270h606v1270h-606z" />
    <glyph glyph-name="uniF058" unicode="ffb" horiz-adv-x="2371" 
d="M37 774v133l141 15v88q0 244 104 364.5t279 120.5q115 0 201 -37v-166q-86 37 -162 37q-117 0 -168 -91t-51 -265v-51h414v129q0 243 111 364t292 121q103 0 203 -31v31h203v-727h6q93 129 264 129q87 0 161 -31.5t129.5 -90t87.5 -150t32 -205.5q1 -223 -117 -350
t-289 -127q-186 0 -285 145h-6l-12 -129h-174v1339q-91 31 -164 31q-240 0 -240 -356v-92h269v-148h-269v-774h-202v774h-414v-774h-203v774h-141zM1604 455q0 -131 65 -225.5t164 -94.5q109 0 174.5 94t65.5 232q0 140 -63 230.5t-177 90.5q-106 -1 -167.5 -91t-61.5 -236z
" />
    <glyph glyph-name="uniF059" unicode="fb" horiz-adv-x="1755" 
d="M37 774v133l141 15v129q0 243 111.5 364t292.5 121q102 0 202 -31v31h203v-727h6q93 129 262 129q179 0 295.5 -126t116.5 -351q0 -113 -33 -205t-90 -150.5t-129.5 -90t-154.5 -31.5q-181 0 -285 145h-6l-11 -129h-174v1339q-91 31 -166 31q-237 0 -237 -356v-92h268
v-148h-268v-774h-203v774h-141zM1217 782q-106 -1 -168 -91t-62 -236q0 -131 65.5 -225.5t164.5 -94.5q109 0 174 94t65 232q0 139 -63 230t-176 91z" />
    <glyph glyph-name="uniF05A" unicode="ffh" horiz-adv-x="2347" 
d="M37 907l141 15v88q0 244 104 364.5t279 120.5q115 0 201 -37v-166q-86 37 -162 37q-117 0 -168 -91t-51 -265v-51h414v129q0 243 111 364t292 121q103 0 203 -31v31h203v-756h6q42 69 111 115.5t161 46.5q185 0 270.5 -112.5t85.5 -348.5v-481h-200v449q0 76 -10 132
t-33 99.5t-65 65.5t-103 22q-85 0 -142.5 -72.5t-80.5 -187.5v-508h-203v1339q-91 31 -166 31q-238 0 -238 -356v-92h269v-148h-269v-774h-202v774h-414v-774h-203v774h-141v133z" />
    <glyph glyph-name="uniF05B" unicode="fh" horiz-adv-x="1730" 
d="M37 774v133l141 15v129q0 243 111.5 364t292.5 121q102 0 202 -31v31h203v-756h6q42 69 111 115.5t160 46.5q186 0 272 -112.5t86 -348.5v-481h-203v449q0 157 -46 238t-163 81q-85 0 -143 -73t-80 -187v-508h-203v1339q-91 31 -166 31q-237 0 -237 -356v-92h268v-148
h-268v-774h-203v774h-141z" />
    <glyph glyph-name="uniF05C" unicode="ffj" horiz-adv-x="1738" 
d="M37 774v133l141 15v88q0 244 104 364.5t279 120.5q115 0 201 -37v-166q-86 37 -162 37q-117 0 -168 -91t-51 -265v-51h414v129q0 124 32 219t90 153.5t134.5 87.5t169.5 29q85 0 168 -19t133 -42l-78 -158q-30 18 -88 34.5t-103 16.5q-129 0 -192.5 -93.5t-63.5 -264.5
v-92h590v-893q0 -126 -24 -222t-76 -168t-140.5 -109.5t-211.5 -37.5v166q134 0 191.5 92t57.5 293v731h-387v-774h-202v774h-414v-774h-203v774h-141z" />
    <glyph glyph-name="uniF05D" unicode="fj" horiz-adv-x="1122" 
d="M178 774h-141v133l141 15v129q0 124 32 219t90 153.5t134.5 87.5t169.5 29q85 0 168 -19t133 -42l-78 -158q-32 19 -88.5 35t-103.5 16q-129 0 -191.5 -93.5t-62.5 -264.5v-92h590v-893q0 -126 -24 -222t-76 -168t-141 -109.5t-212 -37.5v166q133 0 191.5 92t58.5 293
v731h-387v-774h-203v774z" />
    <glyph glyph-name="uniF05E" unicode="ffk" horiz-adv-x="2273" 
d="M37 907l141 15v88q0 244 104 364.5t279 120.5q115 0 201 -37v-166q-86 37 -162 37q-117 0 -168 -91t-51 -265v-51h414v129q0 243 111 364t292 121q103 0 203 -31v31h203v-1022h6l364 408h213l-319 -355l336 -567h-222l-243 422l-135 -150v-272h-203v1339q-91 31 -164 31
q-240 0 -240 -356v-92h269v-148h-269v-774h-202v774h-414v-774h-203v774h-141v133z" />
    <glyph glyph-name="uniF05F" unicode="fk" horiz-adv-x="1656" 
d="M37 774v133l141 15v129q0 243 111.5 364t292.5 121q102 0 202 -31v31h203v-1022h6l365 408h211l-318 -355l336 -567h-221l-246 422l-133 -150v-272h-203v1339q-91 31 -166 31q-237 0 -237 -356v-92h268v-148h-268v-774h-203v774h-141z" />
    <glyph glyph-name="uniF060" unicode="ft" horiz-adv-x="1292" 
d="M37 774v133l141 15v129q0 244 104 364.5t279 120.5q97 0 182 -33v-166q-82 33 -143 33q-117 0 -168 -91t-51 -265v-92h405l52 329h141v-329h246v-148h-246v-452q0 -113 36 -156t95 -43q66 0 107 33v-113q-20 -20 -78.5 -36.5t-102.5 -16.5q-260 0 -260 301v483h-395v-774
h-203v774h-141z" />
    <glyph glyph-name="f_f" unicode="ff" horiz-adv-x="1318" 
d="M37 774v133l141 15v88q0 244 104 364.5t279 120.5q115 0 201 -37v-166q-86 37 -162 37q-117 0 -168 -91t-51 -265v-51h414v129q0 244 104.5 364.5t278.5 120.5q112 0 202 -37v-166q-90 37 -163 37q-117 0 -168.5 -91t-51.5 -265v-92h277v-148h-277v-774h-202v774h-414
v-774h-203v774h-141z" />
    <glyph glyph-name="fi" unicode="fi" horiz-adv-x="1110" 
d="M178 774h-141v133l141 15v129q0 124 32 219t90 153.5t134.5 87.5t169.5 29q85 0 168 -19t133 -42l-78 -158q-32 19 -88.5 35t-103.5 16q-129 0 -191.5 -93.5t-62.5 -264.5v-92h577v-922h-202v774h-375v-774h-203v774z" />
    <glyph glyph-name="fl" unicode="fl" horiz-adv-x="1116" 
d="M37 774v133l141 15v129q0 243 112 364t294 121q100 0 200 -31v31h203v-1536h-203v1339q-91 31 -163 31q-240 0 -240 -356v-92h268v-148h-268v-774h-203v774h-141z" />
    <glyph glyph-name="f_f_i" unicode="ffi" horiz-adv-x="1728" 
d="M37 907l141 15v88q0 244 104 364.5t279 120.5q115 0 201 -37v-166q-86 37 -162 37q-117 0 -168 -91t-51 -265v-51h416v129q0 124 31.5 219t89 153.5t134 87.5t169.5 29q85 0 168 -19t133 -42l-78 -158q-30 19 -87 35t-104 16q-129 0 -191.5 -93.5t-62.5 -264.5v-92h576
v-922h-201v774h-377l2 -774h-202v774h-416v-774h-203v774h-141v133z" />
    <glyph glyph-name="f_f_l" unicode="ffl" horiz-adv-x="1732" 
d="M37 907l141 15v88q0 244 104 364.5t279 120.5q115 0 201 -37v-166q-86 37 -162 37q-117 0 -168 -91t-51 -265v-51h414v129q0 124 31 218.5t86 152t127.5 86t160.5 28.5q101 0 201 -31v31h203v-1536h-203v1339q-91 31 -162 31q-242 0 -242 -356v-92h269v-148h-269v-774
h-202v774h-414v-774h-203v774h-141v133z" />
    <glyph glyph-name="longs_t" unicode="&#x17f;t" horiz-adv-x="1251" 
d="M178 0v1010q0 130 31 226t88 152.5t129 83.5t162 27q89 0 200 -23.5t150 -41.5v-512h246v-148h-246v-452q0 -113 36 -156t95 -43q66 0 107 33v-113q-20 -20 -78.5 -36.5t-102.5 -16.5q-260 0 -260 301v483h-117v119l127 29l46 389q-108 24 -181 24q-229 0 -229 -362v-973
h-203z" />
    <glyph glyph-name=".notdef" horiz-adv-x="937" 
d="M858 0h-778v1434h778v-1434zM166 1352v-1270h606v1270h-606z" />
    <glyph glyph-name="uni0000" horiz-adv-x="0" 
 />
    <glyph glyph-name="uni0000" horiz-adv-x="0" 
 />
    <glyph glyph-name="uni000D" unicode="&#xd;" horiz-adv-x="512" 
 />
    <glyph glyph-name="space" unicode=" " horiz-adv-x="544" 
 />
    <glyph glyph-name="exclam" unicode="!" horiz-adv-x="512" 
d="M150 1434h212l-45 -961h-122zM260 -14q-55 0 -95 39.5t-40 93.5q0 55 39.5 94t95.5 39q53 0 92 -39t39 -94q0 -54 -39 -93.5t-92 -39.5z" />
    <glyph glyph-name="quotedbl" unicode="&#x22;" horiz-adv-x="821" 
d="M227 1032h-104q32 90 57 224t25 280h149q0 -145 -38.5 -278.5t-88.5 -225.5zM457 1042q82 230 82 494h149q0 -254 -125 -494h-106z" />
    <glyph glyph-name="numbersign" unicode="#" horiz-adv-x="1437" 
d="M342 375h-276l16 112h301l115 322h-246l16 113h269l147 409h137l-145 -409h305l147 409h138l-146 -409h226l-17 -113h-250l-114 -322h198l-16 -112h-223l-133 -375h-138l133 375h-307l-133 -375h-137zM520 487h305l115 322h-305z" />
    <glyph glyph-name="dollar" unicode="$" horiz-adv-x="1159" 
d="M57 180l86 148q200 -125 396 -125q135 0 211.5 48t76.5 134q0 87 -73.5 141t-231.5 88q-207 45 -308 133t-101 248q0 155 104 242.5t281 101.5v191h139v-191q196 -15 371 -114l-84 -144q-71 47 -164.5 77t-175.5 30q-129 0 -191.5 -48.5t-62.5 -133.5q0 -82 66.5 -129
t203.5 -78q115 -27 193 -58t137 -77t86 -111t26 -154q0 -91 -34 -159t-95 -108t-134.5 -60.5t-164.5 -26.5v-199h-137v199q-109 9 -222.5 45.5t-197.5 89.5z" />
    <glyph glyph-name="percent" unicode="%" horiz-adv-x="1419" 
d="M102 1110q0 157 78.5 248.5t208.5 91.5q129 0 205 -91t76 -249q0 -157 -75.5 -246.5t-205.5 -89.5q-131 0 -209 89t-78 247zM754 322q0 157 78 248.5t208 91.5q129 0 205 -91t76 -249q0 -159 -75.5 -248.5t-205.5 -89.5q-131 0 -208.5 90t-77.5 248zM1040 573
q-80 0 -128 -67t-48 -184q0 -118 48 -184t128 -66q79 0 124 65.5t44 184.5q0 119 -44.5 185t-123.5 66zM389 1362q-79 0 -127.5 -67.5t-48.5 -184.5q0 -116 48.5 -182t127.5 -66q80 0 124.5 65t43.5 183q0 119 -44.5 185.5t-123.5 66.5zM344 20l641 1393h102l-641 -1393
h-102z" />
    <glyph glyph-name="ampersand" unicode="&#x26;" horiz-adv-x="1562" 
d="M526 -29q-216 0 -332 101t-116 272q0 49 11.5 93.5t30 80.5t49 71.5t59.5 61.5t72 55.5t76 49.5t81 47q-107 184 -107 313q0 152 92.5 242t243.5 90q135 0 224 -84.5t89 -202.5q0 -57 -15.5 -108.5t-41 -91t-64.5 -78t-77.5 -66.5t-89.5 -59q129 -186 303 -334h4
q120 157 219 403l164 -57q-110 -274 -246 -453q228 -170 395 -170v-147h-28q-205 0 -484 193q-229 -222 -512 -222zM553 659q-49 -29 -80 -49t-69.5 -51.5t-60 -59.5t-37 -66.5t-15.5 -80.5q0 -98 72 -158.5t182 -60.5q179 0 346 160v4q-196 167 -334 362h-4zM532 1122
q0 -87 80 -231h4q101 58 155 117.5t54 142.5q0 56 -39.5 97.5t-99.5 41.5q-66 0 -110 -44.5t-44 -123.5z" />
    <glyph glyph-name="quotesingle" unicode="'" horiz-adv-x="487" 
d="M227 1042h-104q82 230 82 494h149q0 -259 -127 -494z" />
    <glyph glyph-name="parenleft" unicode="(" horiz-adv-x="649" 
d="M385 -287q-120 177 -184 413t-64 468t64 468t184 413h129q-106 -178 -162.5 -414t-56.5 -467t56.5 -467t162.5 -414h-129z" />
    <glyph glyph-name="parenright" unicode=")" horiz-adv-x="647" 
d="M133 1475h131q119 -177 182.5 -413.5t63.5 -467.5t-63.5 -467.5t-182.5 -413.5h-131q107 177 164 413.5t57 467.5t-57 467.5t-164 413.5z" />
    <glyph glyph-name="asterisk" unicode="*" horiz-adv-x="1052" 
d="M158 1126q-31 0 -47 21.5t-7 50.5l29 84q12 37 47 37q20 0 35 -12l272 -156l9 6l-64 307q-9 29 5.5 50.5t45.5 21.5h88q31 0 46 -21.5t6 -50.5l-66 -307l10 -6l271 156q18 12 34 12q38 0 50 -37l28 -84q9 -29 -6.5 -50.5t-46.5 -21.5l-311 -32l-4 -11l233 -211
q24 -19 24 -44t-24 -44l-72 -51q-15 -12 -32 -12q-37 0 -49 41l-130 285h-10l-129 -285q-12 -41 -49 -41q-18 0 -33 12l-71 51q-25 19 -25 44t25 44l233 211l-4 11z" />
    <glyph glyph-name="plus" unicode="+" horiz-adv-x="1081" 
d="M459 461h-359v147h359v379h166v-379h358v-147h-358v-377h-166v377z" />
    <glyph glyph-name="comma" unicode="," horiz-adv-x="587" 
d="M199 -223h-127q45 78 78.5 200.5t37.5 247.5l218 31q-13 -121 -79.5 -266t-127.5 -213z" />
    <glyph glyph-name="hyphen" unicode="-" horiz-adv-x="827" 
d="M104 469v115h619v-115h-619z" />
    <glyph glyph-name="period" unicode="." horiz-adv-x="503" 
d="M119 119q0 55 39.5 94t95.5 39q53 0 92 -39t39 -94q0 -54 -39 -93.5t-92 -39.5q-55 0 -95 39.5t-40 93.5z" />
    <glyph glyph-name="slash" unicode="/" horiz-adv-x="757" 
d="M-12 -51l686 1587h137l-688 -1587h-135z" />
    <glyph glyph-name="zero" unicode="0" horiz-adv-x="1239" 
d="M627 -14q-251 0 -390 181t-139 499q0 306 140.5 494t388.5 188q128 0 227.5 -50.5t162 -142t94.5 -215t32 -274.5q0 -323 -129.5 -501.5t-386.5 -178.5zM324 666q0 -237 75 -365.5t228 -128.5t220.5 126t67.5 368q0 159 -27 266t-92 168t-169 61q-154 0 -228.5 -129.5
t-74.5 -365.5z" />
    <glyph glyph-name="one" unicode="1" horiz-adv-x="862" 
d="M158 924l-88 141l403 266h139v-1331h-215v1081h-6z" />
    <glyph glyph-name="two" unicode="2" horiz-adv-x="1191" 
d="M123 1040q24 44 52 83.5t72.5 83t94 74.5t118 51t144.5 20q200 0 314 -99t114 -274q0 -58 -16.5 -115.5t-38 -99t-60 -90t-64 -74.5t-67.5 -68l-352 -350v-6h643v-176h-930v170l476 453q192 187 192 338q0 104 -60 160.5t-169 56.5q-57 0 -104.5 -18t-85.5 -53t-64.5 -69
t-57.5 -84z" />
    <glyph glyph-name="three" unicode="3" horiz-adv-x="1191" 
d="M571 -10q-142 0 -262 37.5t-198 101.5l88 147q163 -114 362 -114q144 0 218.5 53.5t74.5 173.5q0 108 -87 171t-230 63h-127v139h127q136 0 210 57.5t74 155.5q-3 192 -237 192q-91 0 -183 -37t-159 -90l-84 142q200 164 442 164q192 0 306 -82t114 -256
q1 -117 -51 -184.5t-148 -110.5v-6q111 -43 179.5 -125.5t68.5 -212.5q0 -88 -31 -156t-80 -109.5t-116.5 -67.5t-133 -36t-137.5 -10z" />
    <glyph glyph-name="four" unicode="4" horiz-adv-x="1161" 
d="M59 416l682 915h168v-905h166v-158h-166v-268h-215v268h-635v148zM276 426h418v571h-6l-412 -565v-6z" />
    <glyph glyph-name="five" unicode="5" horiz-adv-x="1181" 
d="M573 -10q-148 0 -279.5 50t-219.5 118l88 149q95 -68 182.5 -106.5t200.5 -38.5q153 0 244.5 80t91.5 223q0 139 -75.5 208.5t-211.5 69.5q-155 0 -283 -92l-106 78l33 602h772v-168h-613l-16 -336l6 -4q140 72 285 72q65 0 123.5 -11.5t116.5 -42.5t100 -78.5t68 -125
t26 -176.5q0 -100 -32 -181.5t-84.5 -134.5t-123 -88.5t-143.5 -51t-150 -15.5z" />
    <glyph glyph-name="six" unicode="6" horiz-adv-x="1206" 
d="M627 -14q-244 0 -387.5 159t-143.5 428q0 191 46 340.5t128 243.5t189.5 142.5t234.5 48.5q84 0 166.5 -21.5t129.5 -44.5t104 -57l-107 -140q-50 28 -80.5 43.5t-88.5 31.5t-116 16q-118 0 -206 -63.5t-132 -167.5t-45 -234h7q44 80 129.5 134t201.5 54q137 0 242.5 -64
t158 -165t52.5 -219q0 -95 -31.5 -178.5t-90.5 -147.5t-152.5 -101.5t-208.5 -37.5zM342 446q0 -145 85 -225t200 -80q113 0 193.5 81t80.5 224q0 145 -76.5 225.5t-197.5 80.5q-110 0 -197.5 -88t-87.5 -218z" />
    <glyph glyph-name="seven" unicode="7" horiz-adv-x="1071" 
d="M764 1155h-672v176h895v-157q-190 -316 -298 -558.5t-228 -615.5h-219q117 355 225.5 589.5t296.5 559.5v6z" />
    <glyph glyph-name="eight" unicode="8" horiz-adv-x="1212" 
d="M606 -18q-238 0 -376.5 100t-137.5 270q0 136 76.5 227.5t196.5 133.5q-193 97 -193 288q0 149 120.5 249t313.5 100t312.5 -100t119.5 -249q0 -196 -184 -288q122 -40 194 -131t72 -230q0 -170 -139 -270t-375 -100zM606 643q-135 0 -213 -75.5t-78 -202.5
q2 -115 77 -182.5t214 -67.5q141 0 215 67t74 183q0 128 -76.5 203t-212.5 75zM375 1004q0 -99 68 -157.5t163 -58.5q94 0 162 59t68 157q0 96 -61.5 158.5t-168.5 62.5t-168 -62.5t-63 -158.5z" />
    <glyph glyph-name="nine" unicode="9" horiz-adv-x="1206" 
d="M96 881q0 95 31.5 178.5t91 147.5t153 101.5t208.5 37.5q245 0 387.5 -153t142.5 -421q0 -191 -46 -342.5t-127.5 -248t-189.5 -147t-235 -50.5q-211 0 -399 122l94 140q151 -92 293 -92q117 0 205.5 64t134 168.5t47.5 234.5h-6q-44 -80 -130 -134.5t-202 -54.5
q-104 0 -190.5 37.5t-143.5 100t-88 143t-31 168.5zM305 885q0 -145 77 -225t198 -80q110 0 197 87.5t87 217.5q0 145 -84.5 225t-199.5 80q-113 0 -194 -81t-81 -224z" />
    <glyph glyph-name="colon" unicode=":" horiz-adv-x="503" 
d="M119 791q0 55 39.5 94t95.5 39q53 0 92 -39t39 -94q0 -54 -39 -94t-92 -40q-55 0 -95 40t-40 94zM119 119q0 55 39.5 94t95.5 39q53 0 92 -39t39 -94q0 -54 -39 -93.5t-92 -39.5q-55 0 -95 39.5t-40 93.5z" />
    <glyph glyph-name="semicolon" unicode=";" horiz-adv-x="532" 
d="M53 -223q46 79 80.5 201.5t38.5 246.5l217 31q-14 -121 -81 -266.5t-128 -212.5h-127zM139 784q0 54 40 94t95 40q54 0 93 -40t39 -94t-39 -93.5t-93 -39.5q-55 0 -95 39.5t-40 93.5z" />
    <glyph glyph-name="less" unicode="&#x3c;" horiz-adv-x="1191" 
d="M1071 53l-965 457v115l965 444v-164l-745 -330v-10l745 -338v-174z" />
    <glyph glyph-name="equal" unicode="=" horiz-adv-x="1087" 
d="M115 647v148h858v-148h-858zM973 240h-858v145h858v-145z" />
    <glyph glyph-name="greater" unicode="&#x3e;" horiz-adv-x="1191" 
d="M82 227l745 338v10l-745 330v164l962 -444v-115l-962 -457v174z" />
    <glyph glyph-name="question" unicode="?" horiz-adv-x="978" 
d="M82 1325q103 62 197 95.5t225 33.5q193 0 309.5 -93.5t116.5 -258.5q0 -64 -17.5 -117.5t-51.5 -95.5t-64 -70t-76.5 -64.5t-67.5 -56.5q-67 -63 -97 -123.5t-30 -140.5h-190q-5 98 28 181.5t130 183.5q20 21 65 58t75.5 65t56.5 75t26 99q0 94 -69 145t-167 51
q-146 0 -317 -112zM444 -12q-55 0 -95 39t-40 92q0 55 39.5 95t95.5 40q53 0 92 -40t39 -95q0 -53 -39.5 -92t-91.5 -39z" />
    <glyph glyph-name="at" unicode="@" horiz-adv-x="1699" 
d="M782 -244q-148 0 -276.5 54.5t-218.5 149t-141.5 225.5t-51.5 280t58 287t155.5 239t233 162t282.5 61q200 0 366.5 -87t264.5 -245.5t98 -355.5q0 -186 -96.5 -294.5t-230.5 -108.5q-33 0 -59.5 4.5t-56.5 19t-50.5 40t-35.5 71t-17 107.5q-31 -94 -109.5 -164
t-165.5 -70q-119 0 -192.5 79t-73.5 212q0 71 29.5 143t82.5 133t137.5 99.5t184.5 38.5q70 0 138.5 -23t68.5 -68v-313q0 -108 34 -155.5t89 -47.5q196 0 196 297q0 165 -81.5 298t-219 205.5t-301.5 72.5q-165 0 -304.5 -88.5t-218.5 -235t-79 -313.5q0 -163 70 -299
t199.5 -216.5t291.5 -80.5q102 0 242 55l59 -102q-161 -66 -301 -66zM870 729q-62 1 -114.5 -27.5t-85.5 -73t-51 -97t-17 -101.5q0 -76 39.5 -130t108.5 -54q75 0 139.5 72.5t91.5 166.5v228q-37 16 -111 16z" />
    <glyph glyph-name="A" unicode="A" horiz-adv-x="1325" 
d="M57 0l535 1440h149l527 -1440h-230l-108 303h-557l-111 -303h-205zM653 1067l-225 -602h449l-218 602h-6z" />
    <glyph glyph-name="B" unicode="B" horiz-adv-x="1234" 
d="M160 1430q56 1 199 7.5t225 6.5q80 0 150 -11.5t134.5 -39.5t110.5 -70.5t73 -108t27 -149.5q0 -201 -168 -297v-6q236 -102 236 -332q1 -93 -31.5 -169t-85.5 -125.5t-125 -83t-147.5 -48t-155.5 -14.5q-175 0 -442 10v1430zM666 680h-285v-508q126 -6 233 -6
q143 0 225.5 76.5t82.5 203.5q0 105 -67.5 169.5t-188.5 64.5zM381 834h281q100 0 145 59t45 147q0 98 -65.5 162t-188.5 64q-97 0 -217 -6v-426z" />
    <glyph glyph-name="C" unicode="C" horiz-adv-x="1320" 
d="M799 -18q-306 0 -493.5 205t-186.5 542q1 164 52 298.5t141 225.5t215 141t272 50q237 0 428 -96l-74 -168q-154 77 -342 77q-200 0 -329.5 -147t-129.5 -381q0 -252 135 -408.5t332 -156.5q201 0 346 88l66 -156q-197 -114 -432 -114z" />
    <glyph glyph-name="D" unicode="D" horiz-adv-x="1396" 
d="M596 -16q-300 0 -436 16v1427q224 17 436 17q314 0 498 -186t184 -500q1 -221 -78.5 -395.5t-236 -276.5t-367.5 -102zM600 1264q-112 0 -219 -11v-1081q74 -8 219 -8q136 0 239 80t156 214t52 300q-2 230 -121 368t-326 138z" />
    <glyph glyph-name="E" unicode="E" horiz-adv-x="1142" 
d="M160 1434h858v-185h-637v-428h575v-170h-575v-467h637v-184h-858v1434z" />
    <glyph glyph-name="F" unicode="F" horiz-adv-x="1142" 
d="M160 1434h858v-185h-637v-452h575v-168h-575v-629h-221v1434z" />
    <glyph glyph-name="G" unicode="G" horiz-adv-x="1374" 
d="M817 -20q-318 0 -508.5 202.5t-189.5 554.5q1 220 92.5 381.5t250 243.5t365.5 82q239 0 449 -96l-72 -168q-171 82 -364 82q-223 0 -354.5 -139t-131.5 -386q-1 -271 124.5 -423t338.5 -152q138 0 270 63v346h-296v162h485v-624q-103 -60 -224.5 -94.5t-234.5 -34.5z
" />
    <glyph glyph-name="H" unicode="H" horiz-adv-x="1353" 
d="M160 0v1434h221v-605h592v605h221v-1434h-221v645h-592v-645h-221z" />
    <glyph glyph-name="I" unicode="I" horiz-adv-x="540" 
d="M160 0v1434h221v-1434h-221z" />
    <glyph glyph-name="J" unicode="J" horiz-adv-x="858" 
d="M72 25l32 168q28 -11 88 -22t105 -11q121 0 176 70t55 251v953h211v-953q0 -254 -102.5 -375.5t-339.5 -121.5q-52 0 -122.5 13.5t-102.5 27.5z" />
    <glyph glyph-name="K" unicode="K" horiz-adv-x="1288" 
d="M160 0v1434h221v-617h6l514 617h244l-557 -656l665 -778h-288l-523 608l-61 -71v-537h-221z" />
    <glyph glyph-name="L" unicode="L" horiz-adv-x="1112" 
d="M160 0v1434h221v-1250h657v-184h-878z" />
    <glyph glyph-name="M" unicode="M" horiz-adv-x="1775" 
d="M362 0h-202v1434h233l496 -1145h6l494 1145h227v-1434h-221v991h-6l-431 -991h-172l-417 977h-7v-977z" />
    <glyph glyph-name="N" unicode="N" horiz-adv-x="1382" 
d="M160 0v1434h209l637 -1049h6v1049h211v-1434h-213l-633 1020h-6v-1020h-211z" />
    <glyph glyph-name="O" unicode="O" horiz-adv-x="1492" 
d="M745 -20q-192 0 -334.5 93t-217 259.5t-74.5 384.5t74.5 384.5t217 259.5t334.5 93q290 0 459.5 -202.5t169.5 -534.5t-169.5 -534.5t-459.5 -202.5zM350 717q0 -248 103.5 -397.5t291.5 -149.5t292 150t104 397q0 248 -104 397.5t-292 149.5t-291.5 -149t-103.5 -398z
" />
    <glyph glyph-name="P" unicode="P" horiz-adv-x="1161" 
d="M381 0h-221v1423q280 21 411 21q161 0 279.5 -47t188.5 -149t71 -251q0 -95 -29 -175t-79 -136.5t-117.5 -96.5t-144 -59.5t-158.5 -21.5q-79 -4 -201 16v-524zM567 1266q-67 0 -186 -9v-557q85 -16 180 -16q155 0 238 84t80 229q-2 123 -81.5 196t-230.5 73z" />
    <glyph glyph-name="Q" unicode="Q" horiz-adv-x="1503" 
d="M125 717q0 332 168.5 534.5t458.5 202.5q192 0 334.5 -93t217 -259t74.5 -385q0 -242 -92 -419t-260 -259l320 -203l-142 -137l-401 283q-18 -2 -51 -2q-290 0 -458.5 202.5t-168.5 534.5zM752 1264q-188 0 -292 -149.5t-104 -397.5q0 -247 104 -397t292 -150
t291.5 149.5t103.5 397.5q0 249 -103.5 398t-291.5 149z" />
    <glyph glyph-name="R" unicode="R" horiz-adv-x="1241" 
d="M160 0v1423q29 2 85 6.5t80.5 6t66 4t79 3.5t82.5 1q97 0 178 -14t149 -46t115.5 -80t74 -118.5t26.5 -159.5q1 -137 -69 -232t-183 -143v-6q43 -13 81 -44t68.5 -77.5t55 -94.5t47 -112t37.5 -111.5t34 -111t29 -94.5h-240q-6 17 -18 65.5t-24.5 94t-32 104t-46 107
t-59.5 90.5t-79 66t-99 24h-217v-551h-221zM381 1257v-528h154q166 0 250 72t83 213q0 120 -83 186t-238 66q-47 0 -166 -9z" />
    <glyph glyph-name="S" unicode="S" horiz-adv-x="1198" 
d="M575 -14q-125 0 -266.5 38t-240.5 101l96 168q206 -125 405 -125q138 0 226 64.5t88 156.5q0 88 -78.5 144t-257.5 96q-209 49 -314.5 145.5t-105.5 272.5q0 181 137 289t344 108q260 0 467 -123l-96 -166q-194 111 -361 111q-129 0 -198.5 -63.5t-69.5 -149.5
q0 -91 70.5 -142t224.5 -88q118 -29 199 -62.5t142 -82.5t89.5 -117t28.5 -160q-1 -84 -30.5 -154t-80 -117.5t-118 -80.5t-143 -48t-157.5 -15z" />
    <glyph glyph-name="T" unicode="T" horiz-adv-x="1280" 
d="M526 1249h-432v185h1092v-185h-438v-1249h-222v1249z" />
    <glyph glyph-name="U" unicode="U" horiz-adv-x="1277" 
d="M119 635v799h221v-820q0 -237 76 -345.5t227 -108.5q158 -2 231.5 104.5t73.5 349.5v820h211v-799q0 -326 -122.5 -488.5t-397.5 -162.5t-397.5 162t-122.5 489z" />
    <glyph glyph-name="V" unicode="V" horiz-adv-x="1314" 
d="M543 0l-516 1434h235l406 -1147h6l403 1147h211l-518 -1434h-227z" />
    <glyph glyph-name="W" unicode="W" horiz-adv-x="2177" 
d="M539 0l-516 1434h233l418 -1145h6l352 1145h166l338 -1137h6l400 1137h210l-514 -1434h-239l-299 1014h-6l-312 -1014h-243z" />
    <glyph glyph-name="X" unicode="X" horiz-adv-x="1206" 
d="M242 0h-207l448 727l-428 707h238l315 -525h6l324 527l205 -2l-422 -697l450 -737h-235l-344 561h-6z" />
    <glyph glyph-name="Y" unicode="Y" horiz-adv-x="1296" 
d="M72 1434h233l346 -560h6l361 562l207 -2l-467 -732v-702h-226v694z" />
    <glyph glyph-name="Z" unicode="Z" horiz-adv-x="1294" 
d="M168 1434h977v-197l-754 -1040v-7h735v-190h-1009v197l757 1042v6h-706v189z" />
    <glyph glyph-name="bracketleft" unicode="[" horiz-adv-x="503" 
d="M115 1475h334v-84h-203v-1594h203v-84h-334v1762z" />
    <glyph glyph-name="backslash" unicode="\" horiz-adv-x="757" 
d="M57 1536l686 -1587h-135l-686 1587h135z" />
    <glyph glyph-name="bracketright" unicode="]" horiz-adv-x="503" 
d="M231 1391h-202v84h333v-1762h-333v84h202v1594z" />
    <glyph glyph-name="asciicircum" unicode="^" horiz-adv-x="921" 
d="M193 836h-105l334 702h84l330 -702h-105l-264 581h-6z" />
    <glyph glyph-name="underscore" unicode="_" horiz-adv-x="1024" 
d="M115 -137v90h794v-90h-794z" />
    <glyph glyph-name="grave" unicode="`" horiz-adv-x="794" 
d="M68 1413h219l192 -321h-125z" />
    <glyph glyph-name="a" unicode="a" horiz-adv-x="997" 
d="M76 250q0 104 52.5 179t134.5 109.5t183 34.5q97 0 218 -41v31q-9 219 -224 219q-118 0 -239 -80l-66 134q172 106 348 106q197 0 290 -99t93 -300v-363q0 -110 43 -180h-204q-25 42 -31 94h-6q-114 -114 -279 -114q-146 0 -229.5 76t-83.5 194zM279 272q0 -70 45 -108.5
t125 -38.5q63 0 124.5 38t92.5 85v147q-25 20 -74.5 35.5t-99.5 15.5q-90 0 -151.5 -46t-61.5 -128z" />
    <glyph glyph-name="b" unicode="b" horiz-adv-x="1099" 
d="M303 0h-174v1536h203v-727h6q93 129 262 129q179 0 295.5 -126t116.5 -351q0 -113 -33.5 -205t-90 -150.5t-129.5 -90t-155 -31.5q-181 0 -285 145h-6zM561 782q-106 -1 -167.5 -91t-61.5 -236q0 -131 65 -225.5t164 -94.5q109 0 174.5 94t65.5 232q0 139 -63.5 230
t-176.5 91z" />
    <glyph glyph-name="c" unicode="c" horiz-adv-x="919" 
d="M537 -14q-88 0 -166.5 30.5t-140.5 87.5t-98 149.5t-36 207.5q0 136 50 243t150.5 171.5t238.5 64.5q176 0 299 -76l-56 -133q-79 57 -203 57q-129 0 -199.5 -92.5t-70.5 -230.5q0 -142 76 -233t199 -91q64 0 124.5 17.5t96.5 42.5l57 -129q-134 -86 -321 -86z" />
    <glyph glyph-name="d" unicode="d" horiz-adv-x="1099" 
d="M496 -16q-82 0 -155 31.5t-129.5 90t-90 150.5t-33.5 205q0 225 116.5 351t295.5 126q173 0 264 -123h6v721h201v-1536h-174l-13 131h-6q-99 -147 -282 -147zM539 782q-113 0 -176.5 -91t-63.5 -230q0 -137 66 -231.5t174 -94.5q99 0 164 94.5t65 225.5q0 146 -61.5 236
t-167.5 91z" />
    <glyph glyph-name="e" unicode="e" horiz-adv-x="1034" 
d="M109 461q0 115 35.5 207t96.5 150t140.5 89t169.5 31q186 0 290 -137t89 -361h-627q4 -139 81 -221t200 -82q71 0 144 17.5t108 40.5l47 -127q-127 -84 -326 -84q-88 0 -168.5 31.5t-143 90.5t-99.5 151t-37 204zM311 567h447q-3 99 -60.5 161t-150.5 63q-99 0 -162 -64
t-74 -160z" />
    <glyph glyph-name="f" unicode="f" horiz-adv-x="702" 
d="M178 774h-141v133l141 15v129q0 244 104.5 364.5t278.5 120.5q115 0 201 -37v-166q-86 37 -162 37q-117 0 -168 -91t-51 -265v-92h276v-148h-276v-774h-203v774z" />
    <glyph glyph-name="g" unicode="g" horiz-adv-x="1093" 
d="M59 -236q0 145 174 234q-129 57 -129 182q0 62 38.5 114t99.5 81q-101 84 -101 235q0 80 29.5 141.5t72 95.5t99.5 56t103.5 28.5t91.5 6.5q120 0 221 -49q37 69 112 119t172 47v-158q-126 13 -194 -72q84 -84 84 -215q0 -58 -16 -106.5t-42 -81t-62 -58t-72 -40
t-75.5 -24t-70 -12.5t-57.5 -3q-101 0 -181 28q-34 -14 -57 -40.5t-23 -57.5q0 -49 66 -72.5t221 -23.5q258 0 364.5 -70.5t106.5 -224.5q0 -101 -70 -177.5t-192.5 -117.5t-277.5 -41q-203 0 -319 72.5t-116 203.5zM549 -53q-66 0 -125 6q-69 -17 -120.5 -59t-51.5 -99
q0 -82 70 -122t184 -40q146 0 239 43t93 129q0 79 -65 110.5t-224 31.5zM537 811q-103 0 -153 -56t-48 -145q0 -90 48.5 -144t152.5 -54q95 0 147.5 56t52.5 142t-53 143.5t-147 57.5z" />
    <glyph glyph-name="h" unicode="h" horiz-adv-x="1075" 
d="M129 0v1536h203v-756h6q42 69 110.5 115.5t159.5 46.5q186 0 272.5 -112.5t86.5 -348.5v-481h-203v449q0 157 -46 238t-163 81q-86 0 -143.5 -72.5t-79.5 -187.5v-508h-203z" />
    <glyph glyph-name="i" unicode="i" horiz-adv-x="507" 
d="M154 0v922h202v-922h-202zM121 1323q0 56 38 95.5t93 39.5q54 0 93.5 -40t39.5 -95q0 -52 -39.5 -90.5t-93.5 -38.5q-55 0 -93 38t-38 91z" />
    <glyph glyph-name="j" unicode="j" horiz-adv-x="464" 
d="M-143 -338h37q145 0 201.5 80.5t56.5 280.5v899h202v-914q0 -128 -22 -219.5t-73.5 -161t-142 -103.5t-222.5 -34h-37v172zM119 1323q0 55 38.5 94t94.5 39q54 0 93.5 -39t39.5 -94q0 -53 -39.5 -92t-93.5 -39q-55 0 -94 39t-39 92z" />
    <glyph glyph-name="k" unicode="k" horiz-adv-x="1001" 
d="M332 0h-203v1536h203v-1022h6l364 408h211l-317 -355l336 -567h-221l-246 422l-133 -150v-272z" />
    <glyph glyph-name="l" unicode="l" horiz-adv-x="460" 
d="M129 0v1536h203v-1536h-203z" />
    <glyph glyph-name="m" unicode="m" horiz-adv-x="1658" 
d="M129 0v922h182l11 -146h6q40 72 107.5 119t160.5 47q127 0 201 -53.5t108 -165.5h6q14 40 38.5 77t60 70t86.5 52.5t110 19.5q183 0 263.5 -111t80.5 -350v-481h-202v449q0 62 -4.5 107.5t-17 87.5t-34 68t-57 41t-84.5 15q-84 0 -136.5 -71.5t-74.5 -188.5v-508h-201
v449q0 62 -4.5 108t-17.5 87.5t-34.5 67.5t-56.5 41t-83 15q-85 0 -138 -71.5t-73 -186.5v-510h-203z" />
    <glyph glyph-name="n" unicode="n" horiz-adv-x="1075" 
d="M332 0h-203v922h182l11 -150h6q41 73 113 121.5t167 48.5q186 0 272.5 -112.5t86.5 -348.5v-481h-203v449q0 157 -46 238t-163 81q-86 0 -143.5 -72.5t-79.5 -187.5v-508z" />
    <glyph glyph-name="o" unicode="o" horiz-adv-x="1058" 
d="M528 -18q-90 0 -169 31t-140 89.5t-96 151t-35 207.5t35 207.5t96 151t140 89.5t169 31t169.5 -31t141 -89.5t97 -151t35.5 -207.5t-35.5 -207.5t-97 -151t-141 -89.5t-169.5 -31zM297 461q0 -145 60 -232.5t171 -87.5q114 0 174 87t60 233t-60 233.5t-174 87.5
q-111 0 -171 -88t-60 -233z" />
    <glyph glyph-name="p" unicode="p" horiz-adv-x="1099" 
d="M332 -512h-203v1434h176l8 -121h6q95 137 281 137q179 0 295.5 -126t116.5 -351q0 -113 -33.5 -205t-90 -150.5t-129.5 -90t-155 -31.5q-172 0 -266 135h-6v-631zM561 782q-106 -1 -167.5 -91t-61.5 -236q0 -131 65 -225.5t164 -94.5q109 0 174.5 94t65.5 232
q0 139 -63.5 230t-176.5 91z" />
    <glyph glyph-name="q" unicode="q" horiz-adv-x="1099" 
d="M496 -16q-82 0 -155 31.5t-129.5 90t-90 150.5t-33.5 205q0 225 116.5 351t295.5 126q187 0 280 -135h6l11 119h174v-1434h-201v633h-6q-95 -137 -268 -137zM539 782q-113 0 -176.5 -91t-63.5 -230q0 -137 66 -231.5t174 -94.5q99 0 164 94.5t65 225.5q0 146 -61.5 236
t-167.5 91z" />
    <glyph glyph-name="r" unicode="r" horiz-adv-x="757" 
d="M332 0h-203v922h180l15 -156h6q41 79 132 130t210 40v-184q-38 6 -70 6q-116 0 -183.5 -69.5t-86.5 -180.5v-508z" />
    <glyph glyph-name="s" unicode="s" horiz-adv-x="882" 
d="M432 -14q-105 0 -196.5 24t-149.5 60l59 139q48 -34 123 -56t152 -22q76 0 122 31.5t46 81.5q0 53 -44.5 85t-154.5 64q-126 34 -197 104t-71 175q0 129 95 198.5t249 69.5q190 0 307 -74l-55 -133q-40 25 -104 42.5t-132 17.5q-74 0 -121 -31.5t-47 -77.5
q0 -52 34.5 -79t109.5 -50q173 -46 249 -117.5t76 -185.5q0 -126 -99.5 -196t-250.5 -70z" />
    <glyph glyph-name="t" unicode="t" horiz-adv-x="710" 
d="M78 774v119l127 29l51 268h141v-268h246v-148h-246v-452q0 -113 36 -156t95 -43q66 0 107 33v-113q-20 -20 -78 -36.5t-102 -16.5q-260 0 -260 301v483h-117z" />
    <glyph glyph-name="u" unicode="u" horiz-adv-x="1075" 
d="M467 -20q-186 0 -272 121.5t-86 377.5v443h202v-443q0 -79 9.5 -135.5t32.5 -101t64.5 -66.5t102.5 -22q87 0 144.5 72.5t78.5 189.5v506h203v-922h-182l-10 150h-6q-42 -71 -114.5 -120.5t-166.5 -49.5z" />
    <glyph glyph-name="v" unicode="v" horiz-adv-x="937" 
d="M20 922h224l229 -725h8l242 725h197l-330 -922h-250z" />
    <glyph glyph-name="w" unicode="w" horiz-adv-x="1454" 
d="M20 922h224l215 -717h6l172 700h201l174 -700h6l221 717h195l-299 -922h-252l-152 635h-6l-158 -635h-241z" />
    <glyph glyph-name="x" unicode="x" horiz-adv-x="901" 
d="M233 0h-198l303 461l-293 461h227l195 -306h6l195 306h198l-299 -461l289 -461h-227l-193 305h-6z" />
    <glyph glyph-name="y" unicode="y" horiz-adv-x="954" 
d="M449 -6l-429 928h222l299 -680h6l209 680h182l-279 -867q-90 -275 -232.5 -421t-352.5 -146h-54v160h54q133 0 231.5 96t143.5 250z" />
    <glyph glyph-name="z" unicode="z" horiz-adv-x="833" 
d="M766 0h-696v152l462 622v6h-430v142h664v-156l-449 -619v-6h449v-141z" />
    <glyph glyph-name="braceleft" unicode="{" horiz-adv-x="727" 
d="M102 651q84 0 139.5 70.5t55.5 175.5v336q0 118 84.5 180t247.5 62v-86q-197 0 -197 -183v-325q0 -100 -52 -183.5t-153 -105.5q101 -22 153 -105.5t52 -183.5v-321q0 -183 197 -183v-86q-163 0 -247.5 62t-84.5 180v334q0 103 -55.5 173t-139.5 70v119z" />
    <glyph glyph-name="bar" unicode="|" horiz-adv-x="385" 
d="M145 -143v1679h95v-1679h-95z" />
    <glyph glyph-name="braceright" unicode="}" horiz-adv-x="727" 
d="M100 -287v86q195 0 195 183v321q0 99 53 183t154 106q-101 22 -154 106t-53 183v325q0 183 -195 183v86q163 0 246.5 -62t83.5 -180v-338q0 -104 55.5 -174t139.5 -70v-119q-84 0 -139.5 -70t-55.5 -173v-334q0 -118 -83.5 -180t-246.5 -62z" />
    <glyph glyph-name="asciitilde" unicode="~" horiz-adv-x="1267" 
d="M354 696q-77 0 -150 -41t-104 -80v144q35 33 105 66.5t149 33.5q68 0 145.5 -30t137 -66t135.5 -66t141 -30q123 0 254 131v-144q-42 -44 -107 -77t-147 -33q-78 0 -160.5 30t-140.5 66t-129 66t-129 30z" />
    <glyph glyph-name="exclamdown" unicode="&#xa1;" horiz-adv-x="512" 
d="M121 -530l45 960h123l45 -960h-213zM223 651q-54 0 -92.5 39.5t-38.5 95.5q0 53 38.5 92.5t92.5 39.5q55 0 95 -39.5t40 -92.5q0 -56 -40 -95.5t-95 -39.5z" />
    <glyph glyph-name="cent" unicode="&#xa2;" horiz-adv-x="976" 
d="M92 645q0 188 96 318.5t269 154.5v193h139v-191q141 -12 233 -71l-55 -134q-80 58 -203 58q-129 0 -199.5 -93t-70.5 -231q0 -142 75.5 -232.5t198.5 -90.5q64 0 125 17t97 42l57 -129q-108 -71 -258 -84v-172h-139v174q-159 26 -262 147.5t-103 323.5z" />
    <glyph glyph-name="sterling" unicode="&#xa3;" horiz-adv-x="958" 
d="M899 0h-846v154q85 91 128.5 173.5t43.5 172.5q0 43 -8 82h-164v102h140q-3 12 -12.5 45.5t-13.5 48.5t-11 44.5t-10.5 49t-6 44t-2.5 45.5q0 201 121 319.5t309 118.5q85 0 164.5 -23t122.5 -49l-61 -145q-109 53 -207 53q-102 0 -178 -75.5t-76 -209.5q0 -22 2.5 -46.5
t8 -56t9.5 -50.5t13 -59.5t12 -53.5h362v-102h-342q6 -44 6 -80q0 -164 -137 -338v-6h633v-158z" />
    <glyph glyph-name="currency" unicode="&#xa4;" horiz-adv-x="1193" 
d="M131 305l143 125q-75 110 -75 264q0 153 77 269l-145 129l74 73l123 -141q109 109 270 109q160 0 270 -107l123 139l74 -73l-145 -127q79 -115 79 -271q0 -150 -77 -266l143 -123l-74 -74l-119 136q-110 -107 -274 -107q-162 0 -274 109l-119 -138zM598 1004
q-109 0 -177.5 -91t-68.5 -219q0 -127 68.5 -217t177.5 -90q111 0 180.5 90t69.5 217t-69.5 218.5t-180.5 91.5z" />
    <glyph glyph-name="yen" unicode="&#xa5;" horiz-adv-x="1298" 
d="M72 1393h233l346 -559h6l361 559l207 -2l-437 -682h308v-129h-338v-172h338v-129h-338v-279h-226v279h-331v129h331v172h-331v129h297z" />
    <glyph glyph-name="brokenbar" unicode="&#xa6;" horiz-adv-x="385" 
d="M240 -143h-95v696h95v-696zM145 840v696h95v-696h-95z" />
    <glyph glyph-name="section" unicode="&#xa7;" horiz-adv-x="1372" 
d="M104 -287l89 150q203 -111 415 -111q142 0 230 48.5t88 129.5q0 76 -84 125t-269 90q-452 105 -452 398q0 107 66.5 193.5t174.5 135.5v5q-120 89 -120 241q0 104 65 180t174 113t248 37q239 0 467 -115l-88 -149q-77 42 -177 70t-194 28q-131 0 -201.5 -47t-70.5 -121
q0 -81 78 -127.5t237 -81.5q249 -54 369 -146t119 -259q0 -110 -63.5 -193t-174.5 -137v-4q117 -89 117 -229q-1 -89 -46.5 -158.5t-121.5 -111t-169 -62.5t-196 -21q-125 0 -267.5 35t-242.5 94zM334 555q0 -94 86 -152.5t256 -95.5q94 -19 178 -49q91 33 148 92t57 127
q0 99 -92.5 161.5t-292.5 104.5q-47 8 -127 33q-97 -24 -155 -86.5t-58 -134.5z" />
    <glyph glyph-name="dieresis" unicode="&#xa8;" horiz-adv-x="925" 
d="M645 1096q-51 0 -87 36.5t-36 86.5q0 52 36 88t87 36q50 0 86.5 -36t36.5 -88q0 -49 -37 -86t-86 -37zM156 1219q0 52 37 88t88 36q50 0 86 -36t36 -88q0 -50 -36.5 -86.5t-85.5 -36.5q-51 0 -88 36.5t-37 86.5z" />
    <glyph glyph-name="copyright" unicode="&#xa9;" 
d="M772 -18q-139 0 -265.5 54.5t-217.5 146t-145 218t-54 265.5t54 265.5t145 217.5t217.5 145t265.5 54t265.5 -54t218 -145t146 -217.5t54.5 -265.5t-54.5 -265.5t-146 -218t-218 -146t-265.5 -54.5zM205 666q0 -157 76 -290t206.5 -210.5t284.5 -77.5t284.5 77.5
t206.5 210.5t76 290t-76 290.5t-206.5 211t-284.5 77.5t-284.5 -77.5t-206.5 -211t-76 -290.5zM780 274q-71 0 -137.5 25t-121.5 71.5t-88.5 123.5t-33.5 172t30.5 171t82.5 123t116.5 72t135.5 25q117 0 207 -52t135 -151l-115 -68q-29 68 -85.5 108t-135.5 40
q-105 1 -164 -76t-57 -192q0 -114 65.5 -192.5t171.5 -78.5q75 0 134.5 40.5t89.5 107.5l102 -60q-51 -100 -135 -154.5t-197 -54.5z" />
    <glyph glyph-name="ordfeminine" unicode="&#xaa;" horiz-adv-x="608" 
d="M59 1073q0 92 65.5 141.5t158.5 49.5q61 0 120 -23v8q0 146 -127 146q-71 0 -145 -45l-43 73q99 64 209 64q118 0 171.5 -59.5t53.5 -180.5v-219q0 -61 25 -106h-119q-12 16 -20 55q-72 -68 -162 -68q-88 0 -137.5 46t-49.5 118zM309 1194q-56 0 -94.5 -28.5t-38.5 -80.5
q0 -44 28 -68t79 -24q67 0 120 66v108q-45 27 -94 27z" />
    <glyph glyph-name="guillemotleft" unicode="&#xab;" horiz-adv-x="940" 
d="M733 31l-362 413v37l364 412h94l-362 -416v-18l362 -428h-96zM113 444v37l364 412h94l-362 -416v-18l362 -428h-96z" />
    <glyph glyph-name="logicalnot" unicode="&#xac;" horiz-adv-x="892" 
d="M104 739h684v-413h-126v299h-558v114z" />
    <glyph glyph-name="registered" unicode="&#xae;" horiz-adv-x="913" 
d="M90 1083q0 152 107.5 260.5t259.5 108.5t259 -108t107 -261q0 -152 -107 -259t-259 -107t-259.5 107t-107.5 259zM457 1391q-124 0 -211.5 -90t-87.5 -218q0 -126 87.5 -214.5t211.5 -88.5t211.5 88.5t87.5 214.5q0 128 -87.5 218t-211.5 90zM330 901v379q65 6 116 6
q146 0 146 -110q0 -37 -18.5 -62.5t-47.5 -36.5v-2q16 -5 29 -19t22.5 -35.5t16 -39.5t14 -44t10.5 -36h-77q-1 4 -8 34.5t-13.5 51.5t-24.5 40.5t-42 19.5h-52v-146h-71zM401 1229v-127h35q82 0 82 69q0 28 -20 44t-54 16q-29 0 -43 -2z" />
    <glyph glyph-name="macron" unicode="&#xaf;" horiz-adv-x="1024" 
d="M217 1102v90h598v-90h-598z" />
    <glyph glyph-name="degree" unicode="&#xb0;" horiz-adv-x="645" 
d="M322 920q-109 0 -185 68t-76 196t76 196t185 68q70 0 128 -27.5t96 -89t38 -147.5q0 -128 -75.5 -196t-186.5 -68zM184 1184q0 -71 37 -117.5t101 -46.5t102.5 46.5t38.5 117.5t-38.5 117.5t-102.5 46.5t-101 -46.5t-37 -117.5z" />
    <glyph glyph-name="plusminus" unicode="&#xb1;" horiz-adv-x="1081" 
d="M457 766h-357v147h359v379h166v-379h358v-147h-358v-377h-166zM143 213h793v-125h-793v125z" />
    <glyph glyph-name="twosuperior" unicode="&#xb2;" horiz-adv-x="550" 
d="M61 1391q87 141 224 141q84 0 136 -45t52 -121q0 -42 -18.5 -82t-38.5 -63.5t-51 -53.5l-144 -147v-4h266v-94h-417v84l209 206q26 26 39 40t30 45.5t17 60.5q0 37 -24 59.5t-65 22.5q-32 0 -59 -16t-41 -32.5t-35 -48.5z" />
    <glyph glyph-name="threesuperior" unicode="&#xb3;" horiz-adv-x="550" 
d="M264 913q-129 0 -207 64l47 78q74 -54 156 -54q54 0 87.5 24.5t33.5 70.5t-35 71t-96 25h-60v74h60q57 0 87 24.5t30 65.5q-3 78 -97 78q-73 0 -147 -58l-45 74q90 74 198 74q87 0 139 -37.5t52 -116.5q0 -51 -22 -80t-62 -49v-4q106 -43 106 -150q0 -49 -20.5 -84.5
t-55 -54t-71.5 -27t-78 -8.5z" />
    <glyph glyph-name="acute" unicode="&#xb4;" horiz-adv-x="794" 
d="M496 1413h219l-287 -321h-125z" />
    <glyph glyph-name="paragraph" unicode="&#xb6;" horiz-adv-x="1140" 
d="M561 494q-127 0 -235 62.5t-171 170.5t-63 236q0 127 63 235.5t171 172t235 63.5h488v-1696h-136v1571h-153v-1571h-135v756h-64z" />
    <glyph glyph-name="periodcentered" unicode="&#xb7;" horiz-adv-x="503" 
d="M119 686q0 54 40 93.5t95 39.5q53 0 92 -39.5t39 -93.5t-39 -93.5t-92 -39.5q-55 0 -95 39.5t-40 93.5z" />
    <glyph glyph-name="cedilla" unicode="&#xb8;" horiz-adv-x="628" 
d="M154 -244q52 -18 102 -18q46 0 76 15t30 42q0 32 -37 45t-79 13l-29 26l49 158h76l-29 -100v-11q56 2 108 -29t52 -92q0 -74 -57 -111.5t-148 -37.5q-55 0 -114 18v82z" />
    <glyph glyph-name="onesuperior" unicode="&#xb9;" horiz-adv-x="401" 
d="M82 1317l-45 74l182 118h76v-587h-109v460h-4z" />
    <glyph glyph-name="ordmasculine" unicode="&#xba;" horiz-adv-x="645" 
d="M322 915q-114 0 -188.5 75t-74.5 210q0 134 75.5 210.5t187.5 76.5q114 0 190 -76.5t76 -210.5q0 -135 -75.5 -210t-190.5 -75zM180 1200q0 -80 37 -132t105 -52t105.5 52t37.5 132t-37.5 133t-105.5 53t-105 -53t-37 -133z" />
    <glyph glyph-name="guillemotright" unicode="&#xbb;" horiz-adv-x="940" 
d="M707 477l-365 416h96l363 -412v-37l-361 -413h-98l365 428v18zM449 477l-365 416h96l363 -412v-37l-361 -413h-98l365 428v18z" />
    <glyph glyph-name="onequarter" unicode="&#xbc;" horiz-adv-x="935" 
d="M432 102v74l307 412h82v-406h70v-80h-70v-106h-102v106h-287zM106 0h-94l811 1331h88zM82 1153l-45 74l182 119h76v-588h-109v461h-4zM539 186v-4h180v248h-4z" />
    <glyph glyph-name="onehalf" unicode="&#xbd;" horiz-adv-x="1087" 
d="M680 422l-80 47q82 141 221 141q86 0 138.5 -45t52.5 -121q0 -42 -19.5 -82.5t-39 -62t-52.5 -53.5l-143 -148v-4h268v-94h-418v84l209 207q27 27 39 40t29.5 44.5t17.5 60.5q0 37 -24.5 59.5t-65.5 22.5q-46 0 -75 -24.5t-58 -71.5zM106 0h-94l811 1331h88zM82 1153
l-45 74l182 119h76v-588h-109v461h-4z" />
    <glyph glyph-name="threequarters" unicode="&#xbe;" horiz-adv-x="1083" 
d="M866 102h-284v74l305 412h84v-406h67v-80h-67v-106h-105v106zM264 729q-129 0 -207 64l47 77q72 -53 156 -53q55 0 88 24t33 70q0 47 -35 72t-96 25h-60v73h60q57 0 87 24.5t30 65.5q-3 78 -97 78q-74 0 -147 -57l-45 74q89 73 198 73q88 0 139.5 -37t51.5 -116
q0 -51 -22 -80t-62 -49v-4q106 -43 106 -150q0 -49 -20.5 -84.5t-55 -54t-71.5 -27t-78 -8.5zM256 0h-94l811 1331h88zM686 186v-4h180v248h-2z" />
    <glyph glyph-name="questiondown" unicode="&#xbf;" horiz-adv-x="978" 
d="M481 -524q-193 0 -309.5 93.5t-116.5 258.5q0 54 14 101.5t34.5 81t52.5 67t59 55t63 50.5t56 48q66 62 95.5 124t29.5 141h190q6 -96 -27 -180.5t-130 -184.5q-19 -21 -64.5 -58t-76 -65t-56 -75t-25.5 -99q0 -94 68 -145t166 -51q149 0 317 112l84 -145
q-103 -62 -197 -95.5t-227 -33.5zM543 676q-54 0 -92.5 39.5t-38.5 95.5q0 53 38.5 92t92.5 39q55 0 94 -39t39 -92q0 -56 -39 -95.5t-94 -39.5z" />
    <glyph glyph-name="Agrave" unicode="&#xc0;" horiz-adv-x="1325" 
d="M57 0l535 1440h149l527 -1440h-230l-108 303h-557l-111 -303h-205zM428 465h449l-218 602h-6zM571 1536l-235 283h211l170 -283h-146z" />
    <glyph glyph-name="Aacute" unicode="&#xc1;" horiz-adv-x="1325" 
d="M57 0l535 1440h149l527 -1440h-230l-108 303h-557l-111 -303h-205zM428 465h449l-218 602h-6zM598 1536l172 283h209l-234 -283h-147z" />
    <glyph glyph-name="Acircumflex" unicode="&#xc2;" horiz-adv-x="1325" 
d="M262 0h-205l535 1440h149l527 -1440h-230l-108 303h-557zM653 1067l-225 -602h449l-218 602h-6zM350 1536l232 268h163l232 -268h-152l-157 154h-9l-159 -154h-150z" />
    <glyph glyph-name="Atilde" unicode="&#xc3;" horiz-adv-x="1325" 
d="M57 0l535 1440h149l527 -1440h-230l-108 303h-557l-111 -303h-205zM653 1067l-225 -602h449l-218 602h-6zM319 1556q12 93 65 154.5t148 61.5q40 0 72 -12t53 -29.5t40 -34.5t41 -29t46 -12q48 0 73 30t30 72h119q-8 -94 -63.5 -156.5t-151.5 -62.5q-40 0 -72.5 11.5
t-54.5 28t-41.5 33.5t-42.5 28.5t-48 11.5q-47 0 -68 -26t-28 -69h-117z" />
    <glyph glyph-name="Adieresis" unicode="&#xc4;" horiz-adv-x="1325" 
d="M262 0h-205l535 1440h149l527 -1440h-230l-108 303h-557zM428 465h449l-218 602h-6zM877 1559q-53 0 -91 37.5t-38 89.5q0 54 37.5 91.5t91.5 37.5q53 0 90 -37.5t37 -91.5q0 -51 -37.5 -89t-89.5 -38zM451 1559q-53 0 -91 37.5t-38 89.5q0 54 37.5 91.5t91.5 37.5
q51 0 89 -37.5t38 -91.5q0 -51 -38 -89t-89 -38z" />
    <glyph glyph-name="Aring" unicode="&#xc5;" horiz-adv-x="1325" 
d="M57 0l535 1440h149l527 -1440h-230l-108 303h-557l-111 -303h-205zM434 1690q0 105 67 164t161 59q95 0 162 -59t67 -164q0 -107 -66.5 -165.5t-162.5 -58.5t-162 58.5t-66 165.5zM653 1067l-225 -602h449l-218 602h-6zM662 1812q-51 0 -82 -34t-31 -88q0 -55 31.5 -88
t81.5 -33q52 0 84 33t32 88q0 54 -32.5 88t-83.5 34z" />
    <glyph glyph-name="AE" unicode="&#xc6;" horiz-adv-x="1951" 
d="M57 0l799 1434h971v-185h-635v-428h573v-170h-573v-467h635v-184h-858v303h-527l-174 -303h-211zM965 1249l-443 -784h447v784h-4z" />
    <glyph glyph-name="Ccedilla" unicode="&#xc7;" horiz-adv-x="1318" 
d="M696 -12q-263 36 -420.5 235.5t-156.5 505.5q1 164 52 298.5t141 225.5t215 141t272 50q237 0 428 -96l-74 -168q-154 77 -342 77q-200 0 -329.5 -147t-129.5 -381q0 -252 135 -408.5t332 -156.5q201 0 346 88l66 -156q-109 -63 -217 -88.5t-242 -25.5l-12 -45v-11
q33 1 68 -10t63.5 -40t28.5 -71q0 -74 -57.5 -111.5t-149.5 -37.5q-52 0 -115 18v82q52 -18 104 -18q46 0 75.5 15t29.5 42q0 32 -37 45t-80 13l-26 26z" />
    <glyph glyph-name="Egrave" unicode="&#xc8;" horiz-adv-x="1142" 
d="M160 1434h858v-185h-637v-428h575v-170h-575v-467h637v-184h-858v1434zM524 1536l-235 283h209l172 -283h-146z" />
    <glyph glyph-name="Eacute" unicode="&#xc9;" horiz-adv-x="1142" 
d="M160 0v1434h858v-185h-637v-428h575v-170h-575v-467h637v-184h-858zM645 1536h-145l170 283h211z" />
    <glyph glyph-name="Ecircumflex" unicode="&#xca;" horiz-adv-x="1142" 
d="M160 0v1434h858v-185h-637v-428h575v-170h-575v-467h637v-184h-858zM424 1536h-150l234 268h162l231 -268h-149l-160 154h-8z" />
    <glyph glyph-name="Edieresis" unicode="&#xcb;" horiz-adv-x="1142" 
d="M160 0v1434h858v-185h-637v-428h575v-170h-575v-467h637v-184h-858zM803 1559q-52 0 -90.5 38t-38.5 89q0 54 38 91.5t91 37.5t91 -37.5t38 -91.5q0 -51 -38.5 -89t-90.5 -38zM377 1559q-53 0 -91 37.5t-38 89.5q0 54 37.5 91.5t91.5 37.5q51 0 89 -37.5t38 -91.5
q0 -51 -38 -89t-89 -38z" />
    <glyph glyph-name="Igrave" unicode="&#xcc;" horiz-adv-x="540" 
d="M160 0v1434h221v-1434h-221zM-25 1819h211l170 -283h-145z" />
    <glyph glyph-name="Iacute" unicode="&#xcd;" horiz-adv-x="540" 
d="M160 0v1434h221v-1434h-221zM330 1819h209l-236 -283h-145z" />
    <glyph glyph-name="Icircumflex" unicode="&#xce;" horiz-adv-x="540" 
d="M160 0v1434h221v-1434h-221zM106 1536h-149l233 268h162l232 -268h-150l-160 154h-8z" />
    <glyph glyph-name="Idieresis" unicode="&#xcf;" horiz-adv-x="540" 
d="M160 1434h221v-1434h-221v1434zM356 1686q0 54 37.5 91.5t91.5 37.5q51 0 89 -37.5t38 -91.5q0 -51 -38 -89t-89 -38q-53 0 -91 37.5t-38 89.5zM-72 1686q0 54 38 91.5t91 37.5t90 -37.5t37 -91.5q0 -51 -37.5 -89t-89.5 -38t-90.5 38t-38.5 89z" />
    <glyph glyph-name="Eth" unicode="&#xd0;" horiz-adv-x="1396" 
d="M57 795h103v632q224 17 436 17q314 0 498 -186t184 -500q1 -221 -78.5 -395.5t-236 -276.5t-367.5 -102q-300 0 -436 16v678h-103v117zM381 795h295v-117h-295v-506q74 -8 219 -8q136 0 239 80t156 214t52 300q-2 230 -121 368t-326 138q-112 0 -219 -11v-458z" />
    <glyph glyph-name="Ntilde" unicode="&#xd1;" horiz-adv-x="1382" 
d="M160 0v1434h209l637 -1049h6v1049h211v-1434h-213l-633 1020h-6v-1020h-211zM377 1556q13 94 65.5 155t147.5 61q48 0 87 -18.5t59.5 -40t49 -40t58.5 -18.5q46 0 70.5 29.5t31.5 72.5h119q-8 -94 -63.5 -156.5t-151.5 -62.5q-49 0 -88.5 17.5t-61.5 39t-51 39t-59 17.5
q-46 0 -66.5 -25.5t-29.5 -69.5h-117z" />
    <glyph glyph-name="Ograve" unicode="&#xd2;" horiz-adv-x="1492" 
d="M745 -20q-192 0 -334.5 93t-217 259.5t-74.5 384.5t74.5 384.5t217 259.5t334.5 93q290 0 459.5 -202.5t169.5 -534.5t-169.5 -534.5t-459.5 -202.5zM350 717q0 -248 103.5 -397.5t291.5 -149.5t292 150t104 397q0 248 -104 397.5t-292 149.5t-291.5 -149t-103.5 -398z
M662 1536l-236 283h211l170 -283h-145z" />
    <glyph glyph-name="Oacute" unicode="&#xd3;" horiz-adv-x="1492" 
d="M119 717q0 218 74.5 384.5t217 259.5t334.5 93q290 0 459.5 -202.5t169.5 -534.5t-169.5 -534.5t-459.5 -202.5q-192 0 -334.5 93t-217 259.5t-74.5 384.5zM745 1264q-188 0 -291.5 -149t-103.5 -398q0 -248 103.5 -397.5t291.5 -149.5t292 150t104 397q0 248 -104 397.5
t-292 149.5zM670 1536l172 283h209l-236 -283h-145z" />
    <glyph glyph-name="Ocircumflex" unicode="&#xd4;" horiz-adv-x="1492" 
d="M745 -20q-192 0 -334.5 93t-217 259.5t-74.5 384.5t74.5 384.5t217 259.5t334.5 93q290 0 459.5 -202.5t169.5 -534.5t-169.5 -534.5t-459.5 -202.5zM350 717q0 -248 103.5 -397.5t291.5 -149.5t292 150t104 397q0 248 -104 397.5t-292 149.5t-291.5 -149t-103.5 -398z
M584 1536h-152l234 268h161l232 -268h-150l-157 154h-9z" />
    <glyph glyph-name="Otilde" unicode="&#xd5;" horiz-adv-x="1492" 
d="M119 717q0 218 74.5 384.5t217 259.5t334.5 93q290 0 459.5 -202.5t169.5 -534.5t-169.5 -534.5t-459.5 -202.5q-192 0 -334.5 93t-217 259.5t-74.5 384.5zM745 1264q-188 0 -291.5 -149t-103.5 -398q0 -248 103.5 -397.5t291.5 -149.5t292 150t104 397q0 248 -104 397.5
t-292 149.5zM424 1556q13 94 65.5 155t147.5 61q48 0 87 -18.5t59.5 -40t49 -40t58.5 -18.5q46 0 70.5 29.5t31.5 72.5h119q-8 -94 -63.5 -156.5t-151.5 -62.5q-49 0 -88.5 17.5t-61.5 39t-51 39t-59 17.5q-46 0 -66.5 -25.5t-29.5 -69.5h-117z" />
    <glyph glyph-name="Odieresis" unicode="&#xd6;" horiz-adv-x="1492" 
d="M745 -20q-192 0 -334.5 93t-217 259.5t-74.5 384.5t74.5 384.5t217 259.5t334.5 93q290 0 459.5 -202.5t169.5 -534.5t-169.5 -534.5t-459.5 -202.5zM350 717q0 -248 103.5 -397.5t291.5 -149.5t292 150t104 397q0 248 -104 397.5t-292 149.5t-291.5 -149t-103.5 -398z
M831 1686q0 54 38 91.5t92 37.5q51 0 88.5 -37.5t37.5 -91.5q0 -51 -37.5 -89t-88.5 -38q-54 0 -92 38t-38 89zM403 1686q0 54 38 91.5t91 37.5t90 -37.5t37 -91.5q0 -51 -37.5 -89t-89.5 -38t-90.5 38t-38.5 89z" />
    <glyph glyph-name="multiply" unicode="&#xd7;" horiz-adv-x="1116" 
d="M170 885l117 116l272 -270l270 270l117 -118l-270 -271l270 -268l-119 -119l-268 271l-270 -271l-119 117l270 270z" />
    <glyph glyph-name="Oslash" unicode="&#xd8;" horiz-adv-x="1492" 
d="M369 104q-120 95 -185 253.5t-65 359.5q0 218 74.5 384.5t217 259.5t334.5 93q191 0 334 -92l68 123h88l-94 -168q113 -97 173 -251.5t60 -348.5q0 -332 -169.5 -534.5t-459.5 -202.5q-177 0 -313 79l-63 -110h-88zM475 293l502 889q-94 82 -232 82q-188 0 -291.5 -149
t-103.5 -398q0 -278 125 -424zM532 238q90 -68 213 -68q188 0 292 150t104 397q0 260 -109 405z" />
    <glyph glyph-name="Ugrave" unicode="&#xd9;" horiz-adv-x="1277" 
d="M119 635v799h221v-820q0 -237 76 -345.5t227 -108.5q158 -2 231.5 104.5t73.5 349.5v820h211v-799q0 -326 -122.5 -488.5t-397.5 -162.5t-397.5 162t-122.5 489zM567 1536l-235 283h209l172 -283h-146z" />
    <glyph glyph-name="Uacute" unicode="&#xda;" horiz-adv-x="1277" 
d="M119 635v799h221v-820q0 -237 76 -345.5t227 -108.5q158 -2 231.5 104.5t73.5 349.5v820h211v-799q0 -326 -122.5 -488.5t-397.5 -162.5t-397.5 162t-122.5 489zM559 1536l172 283h209l-235 -283h-146z" />
    <glyph glyph-name="Ucircumflex" unicode="&#xdb;" horiz-adv-x="1277" 
d="M119 635v799h221v-820q0 -237 76 -345.5t227 -108.5q158 -2 231.5 104.5t73.5 349.5v820h211v-799q0 -326 -122.5 -488.5t-397.5 -162.5t-397.5 162t-122.5 489zM326 1536l233 268h162l231 -268h-149l-160 154h-8l-160 -154h-149z" />
    <glyph glyph-name="Udieresis" unicode="&#xdc;" horiz-adv-x="1277" 
d="M119 635v799h221v-820q0 -237 76 -345.5t227 -108.5q158 -2 231.5 104.5t73.5 349.5v820h211v-799q0 -326 -122.5 -488.5t-397.5 -162.5t-397.5 162t-122.5 489zM856 1559q-54 0 -91.5 37.5t-37.5 89.5q0 54 37.5 91.5t91.5 37.5q52 0 89.5 -37.5t37.5 -91.5
q0 -51 -38 -89t-89 -38zM301 1686q0 54 37.5 91.5t91.5 37.5q52 0 89.5 -37.5t37.5 -91.5q0 -51 -38 -89t-89 -38q-54 0 -91.5 37.5t-37.5 89.5z" />
    <glyph glyph-name="Yacute" unicode="&#xdd;" horiz-adv-x="1298" 
d="M72 1434h233l346 -560h6l361 562l207 -2l-467 -732v-702h-226v694zM731 1819h211l-235 -283h-146z" />
    <glyph glyph-name="Thorn" unicode="&#xde;" horiz-adv-x="1161" 
d="M160 1434h221v-279q140 8 190 8q241 0 376.5 -107t135.5 -313q0 -114 -40 -201t-110 -139.5t-158.5 -80t-192.5 -29.5q-89 -2 -201 16v-309h-221v1434zM381 975v-490q85 -16 180 -16q151 0 223 72t70 202q-2 106 -71.5 174t-215.5 68q-98 0 -186 -10z" />
    <glyph glyph-name="germandbls" unicode="&#xdf;" horiz-adv-x="1312" 
d="M178 0v991q0 253 131 398t357 145q106 0 192 -38t137.5 -100t79.5 -136.5t25.5 -151.5t-33.5 -141q-13 -7 -47 -19t-61.5 -25t-57 -32.5t-46.5 -49.5t-17 -69q0 -32 20.5 -60.5t53.5 -52t73 -48t80 -54.5t73 -65t53.5 -86t20.5 -111q0 -139 -108.5 -224t-265.5 -85
q-105 0 -204 26.5t-155 61.5l74 135q49 -35 122 -56.5t150 -21.5q84 0 138.5 50.5t54.5 113.5q0 50 -28 91t-69.5 67.5t-90 58t-90 62t-69.5 80.5t-28 112q0 42 16 79t36.5 60.5t54 46.5t55 33.5t54.5 24.5t38 16q14 40 15 86.5t-14.5 92t-44 82.5t-78 60t-111.5 23
q-141 0 -212 -114.5t-71 -292.5v-963h-203z" />
    <glyph glyph-name="agrave" unicode="&#xe0;" horiz-adv-x="997" 
d="M389 -20q-146 0 -229.5 76t-83.5 194q0 104 52.5 179t134.5 109.5t183 34.5q97 0 218 -41v31q-9 219 -224 219q-118 0 -239 -80l-66 134q172 106 348 106q197 0 290 -99t93 -300v-363q0 -110 43 -180h-204q-25 42 -31 94h-6q-114 -114 -279 -114zM492 446
q-90 0 -151.5 -46t-61.5 -128q0 -70 45 -108.5t125 -38.5q63 0 124.5 38t92.5 85v147q-25 20 -74.5 35.5t-99.5 15.5zM469 1092l-285 321h217l193 -321h-125z" />
    <glyph glyph-name="aacute" unicode="&#xe1;" horiz-adv-x="997" 
d="M76 250q0 104 52.5 179t134.5 109.5t183 34.5q97 0 218 -41v31q-9 219 -224 219q-118 0 -239 -80l-66 134q172 106 348 106q197 0 290 -99t93 -300v-363q0 -110 43 -180h-204q-25 42 -31 94h-6q-114 -114 -279 -114q-146 0 -229.5 76t-83.5 194zM492 446
q-90 0 -151.5 -46t-61.5 -128q0 -70 45 -108.5t125 -38.5q63 0 124.5 38t92.5 85v147q-25 20 -74.5 35.5t-99.5 15.5zM524 1092h-125l191 321h219z" />
    <glyph glyph-name="acircumflex" unicode="&#xe2;" horiz-adv-x="997" 
d="M76 250q0 104 52.5 179t134.5 109.5t183 34.5q97 0 218 -41v31q-9 219 -224 219q-118 0 -239 -80l-66 134q172 106 348 106q197 0 290 -99t93 -300v-363q0 -110 43 -180h-204q-25 42 -31 94h-6q-114 -114 -279 -114q-146 0 -229.5 76t-83.5 194zM492 446
q-90 0 -151.5 -46t-61.5 -128q0 -70 45 -108.5t125 -38.5q63 0 124.5 38t92.5 85v147q-25 20 -74.5 35.5t-99.5 15.5zM299 1085h-127l234 320h161l234 -320h-127l-185 209h-6z" />
    <glyph glyph-name="atilde" unicode="&#xe3;" horiz-adv-x="997" 
d="M76 250q0 104 52.5 179t134.5 109.5t183 34.5q97 0 218 -41v31q-9 219 -224 219q-118 0 -239 -80l-66 134q172 106 348 106q197 0 290 -99t93 -300v-363q0 -110 43 -180h-204q-25 42 -31 94h-6q-114 -114 -279 -114q-146 0 -229.5 76t-83.5 194zM492 446
q-90 0 -151.5 -46t-61.5 -128q0 -70 45 -108.5t125 -38.5q63 0 124.5 38t92.5 85v147q-25 20 -74.5 35.5t-99.5 15.5zM258 1126h-115q9 61 31.5 110t69 83.5t110.5 34.5q40 0 72 -13.5t53 -32t39.5 -37.5t41 -32.5t48.5 -13.5q46 0 72 35.5t31 80.5h116q-10 -95 -67 -163
t-152 -68q-39 0 -71 13t-53 31t-40 36.5t-41.5 31.5t-48.5 13q-77 0 -96 -109z" />
    <glyph glyph-name="adieresis" unicode="&#xe4;" horiz-adv-x="997" 
d="M76 250q0 104 52.5 179t134.5 109.5t183 34.5q97 0 218 -41v31q-9 219 -224 219q-118 0 -239 -80l-66 134q172 106 348 106q197 0 290 -99t93 -300v-363q0 -110 43 -180h-204q-25 42 -31 94h-6q-114 -114 -279 -114q-146 0 -229.5 76t-83.5 194zM492 446
q-90 0 -151.5 -46t-61.5 -128q0 -70 45 -108.5t125 -38.5q63 0 124.5 38t92.5 85v147q-25 20 -74.5 35.5t-99.5 15.5zM551 1219q0 52 37 88t88 36q50 0 86.5 -36t36.5 -88q0 -49 -36.5 -86t-86.5 -37q-51 0 -88 36.5t-37 86.5zM311 1096q-52 0 -88.5 36.5t-36.5 86.5
q0 52 36 88t89 36q50 0 85.5 -36t35.5 -88q0 -50 -36 -86.5t-85 -36.5z" />
    <glyph glyph-name="aring" unicode="&#xe5;" horiz-adv-x="997" 
d="M76 250q0 104 52.5 179t134.5 109.5t183 34.5q97 0 218 -41v31q-9 219 -224 219q-118 0 -239 -80l-66 134q172 106 348 106q197 0 290 -99t93 -300v-363q0 -110 43 -180h-204q-25 42 -31 94h-6q-114 -114 -279 -114q-146 0 -229.5 76t-83.5 194zM492 965q-95 0 -161.5 59
t-66.5 164t67 164t161 59t161.5 -59t67.5 -164t-67 -164t-162 -59zM492 446q-90 0 -151.5 -46t-61.5 -128q0 -70 45 -108.5t125 -38.5q63 0 124.5 38t92.5 85v147q-25 20 -74.5 35.5t-99.5 15.5zM492 1307q-49 0 -79 -33t-30 -86t30.5 -86t78.5 -33t80 33t32 86t-31.5 86
t-80.5 33z" />
    <glyph glyph-name="ae" unicode="&#xe6;" horiz-adv-x="1529" 
d="M76 250q0 154 106.5 236.5t263.5 82.5h181v6q-8 103 -54 155t-143 52q-120 0 -240 -75l-65 129q183 104 346 104q222 0 289 -147q105 143 289 143q188 0 289.5 -130.5t86.5 -354.5h-598q5 -143 74 -228.5t189 -85.5q70 0 137.5 17.5t103.5 40.5l47 -127
q-127 -84 -315 -84q-104 0 -191 43t-145 125h-6q-53 -68 -139 -120t-193 -52q-146 0 -229.5 76t-83.5 194zM279 274q0 -70 45 -109.5t125 -39.5q64 0 128 40.5t95 88.5q-33 81 -33 195h-147q-90 0 -151.5 -46.5t-61.5 -128.5zM1047 791q-90 0 -147.5 -59t-68.5 -154h422
q-3 98 -57.5 155t-148.5 58z" />
    <glyph glyph-name="ccedilla" unicode="&#xe7;" horiz-adv-x="919" 
d="M465 -10q-77 12 -142.5 47t-117 92.5t-80.5 142.5t-29 189q0 136 50 243t150.5 171.5t238.5 64.5q176 0 299 -76l-56 -133q-79 57 -203 57q-129 0 -199.5 -92.5t-70.5 -230.5q0 -142 76 -233t199 -91q64 0 124.5 17.5t96.5 42.5l57 -129q-134 -86 -317 -86l-13 -49v-11
q33 1 68 -10t63.5 -40t28.5 -71q0 -74 -58 -111.5t-149 -37.5q-51 0 -114 18v82q52 -18 104 -18q46 0 75 15t29 42q0 32 -36.5 45t-79.5 13l-29 26z" />
    <glyph glyph-name="egrave" unicode="&#xe8;" horiz-adv-x="1050" 
d="M557 -16q-88 0 -168.5 31.5t-143 90.5t-99.5 151t-37 204q0 115 35.5 207t96.5 150t140.5 89t169.5 31q186 0 290 -137t89 -361h-627q4 -139 81 -221t200 -82q71 0 144 17.5t108 40.5l47 -127q-127 -84 -326 -84zM311 567h447q-3 99 -60.5 161t-150.5 63q-99 0 -162 -64
t-74 -160zM522 1092l-284 321h217l192 -321h-125z" />
    <glyph glyph-name="eacute" unicode="&#xe9;" horiz-adv-x="1050" 
d="M557 -16q-88 0 -168.5 31.5t-143 90.5t-99.5 151t-37 204q0 115 35.5 207t96.5 150t140.5 89t169.5 31q186 0 290 -137t89 -361h-627q4 -139 81 -221t200 -82q71 0 144 17.5t108 40.5l47 -127q-127 -84 -326 -84zM547 791q-99 0 -162 -64t-74 -160h447q-3 99 -60.5 161
t-150.5 63zM451 1092l192 321h217l-285 -321h-124z" />
    <glyph glyph-name="ecircumflex" unicode="&#xea;" horiz-adv-x="1032" 
d="M109 461q0 115 35.5 207t96.5 150t140.5 89t169.5 31q186 0 290 -137t89 -361h-627q4 -139 81 -221t200 -82q71 0 144 17.5t108 40.5l47 -127q-127 -84 -326 -84q-88 0 -168.5 31.5t-143 90.5t-99.5 151t-37 204zM547 791q-99 0 -162 -64t-74 -160h447q-3 99 -60.5 161
t-150.5 63zM203 1085l233 320h162l233 -320h-126l-185 209h-6l-184 -209h-127z" />
    <glyph glyph-name="edieresis" unicode="&#xeb;" horiz-adv-x="1032" 
d="M109 461q0 115 35.5 207t96.5 150t140.5 89t169.5 31q186 0 290 -137t89 -361h-627q4 -139 81 -221t200 -82q71 0 144 17.5t108 40.5l47 -127q-127 -84 -326 -84q-88 0 -168.5 31.5t-143 90.5t-99.5 151t-37 204zM311 567h447q-3 99 -60.5 161t-150.5 63q-99 0 -162 -64
t-74 -160zM580 1219q0 52 36 88t89 36q50 0 86 -36t36 -88q0 -50 -36.5 -86.5t-85.5 -36.5q-52 0 -88.5 36.5t-36.5 86.5zM215 1219q0 52 36 88t87 36t87 -36t36 -88q0 -50 -36 -86.5t-87 -36.5t-87 36.5t-36 86.5z" />
    <glyph glyph-name="igrave" unicode="&#xec;" horiz-adv-x="505" 
d="M154 0v922h202v-922h-202zM-61 1413h219l190 -321h-125z" />
    <glyph glyph-name="iacute" unicode="&#xed;" horiz-adv-x="505" 
d="M154 0v922h202v-922h-202zM332 1413h217l-285 -321h-125z" />
    <glyph glyph-name="icircumflex" unicode="&#xee;" horiz-adv-x="505" 
d="M154 0v922h202v-922h-202zM66 1085h-127l233 320h162l233 -320h-127l-184 209h-6z" />
    <glyph glyph-name="idieresis" unicode="&#xef;" horiz-adv-x="505" 
d="M154 922h202v-922h-202v922zM313 1219q0 52 36 88t87 36q50 0 86.5 -36t36.5 -88q0 -49 -36.5 -86t-86.5 -37q-51 0 -87 36.5t-36 86.5zM-53 1219q0 52 37 88t88 36q50 0 86.5 -36t36.5 -88q0 -49 -36.5 -86t-86.5 -37q-51 0 -88 36.5t-37 86.5z" />
    <glyph glyph-name="eth" unicode="&#xf0;" horiz-adv-x="1206" 
d="M598 -16q-116 0 -212 37.5t-158.5 101.5t-97 148t-34.5 178q0 87 32.5 166t91 138.5t146.5 94.5t193 35q191 0 320 -144h6q-22 205 -129 324l-148 -90l-37 57l131 80q-87 68 -202 68q-52 0 -101 -17l-55 160q80 25 156 25q219 0 372 -132l162 99l37 -58l-149 -90
q188 -208 188 -590q0 -271 -135.5 -431t-376.5 -160zM584 745q-121 0 -197 -80t-76 -225q0 -142 86 -223.5t201 -81.5q114 0 193 88t79 252q0 127 -85 198.5t-201 71.5z" />
    <glyph glyph-name="ntilde" unicode="&#xf1;" horiz-adv-x="1075" 
d="M129 0v922h182l11 -150h6q41 73 113 121.5t167 48.5q186 0 272.5 -112.5t86.5 -348.5v-481h-203v449q0 157 -46 238t-163 81q-86 0 -143.5 -72.5t-79.5 -187.5v-508h-203zM197 1114q12 96 64.5 161.5t146.5 65.5q39 0 71 -13.5t52.5 -32.5t39.5 -37.5t41 -32t47 -13.5
q47 0 72 35t33 80h115q-8 -94 -65 -161.5t-152 -67.5q-40 0 -72 13t-53.5 31t-40 36.5t-41 31.5t-47.5 13t-43.5 -10t-29 -28.5t-16 -34t-10.5 -36.5h-112z" />
    <glyph glyph-name="ograve" unicode="&#xf2;" horiz-adv-x="1058" 
d="M528 -18q-90 0 -169 31t-140 89.5t-96 151t-35 207.5t35 207.5t96 151t140 89.5t169 31t169.5 -31t141 -89.5t97 -151t35.5 -207.5t-35.5 -207.5t-97 -151t-141 -89.5t-169.5 -31zM297 461q0 -145 60 -232.5t171 -87.5q114 0 174 87t60 233t-60 233.5t-174 87.5
q-111 0 -171 -88t-60 -233zM500 1092l-285 321h217l193 -321h-125z" />
    <glyph glyph-name="oacute" unicode="&#xf3;" horiz-adv-x="1058" 
d="M528 -18q-90 0 -169 31t-140 89.5t-96 151t-35 207.5t35 207.5t96 151t140 89.5t169 31t169.5 -31t141 -89.5t97 -151t35.5 -207.5t-35.5 -207.5t-97 -151t-141 -89.5t-169.5 -31zM528 782q-111 0 -171 -88t-60 -233t60 -232.5t171 -87.5q114 0 174 87t60 233t-60 233.5
t-174 87.5zM434 1092l191 321h219l-285 -321h-125z" />
    <glyph glyph-name="ocircumflex" unicode="&#xf4;" horiz-adv-x="1058" 
d="M528 -18q-90 0 -169 31t-140 89.5t-96 151t-35 207.5t35 207.5t96 151t140 89.5t169 31t169.5 -31t141 -89.5t97 -151t35.5 -207.5t-35.5 -207.5t-97 -151t-141 -89.5t-169.5 -31zM528 782q-111 0 -171 -88t-60 -233t60 -232.5t171 -87.5q114 0 174 87t60 233t-60 233.5
t-174 87.5zM342 1085h-127l234 320h161l234 -320h-127l-185 209h-6z" />
    <glyph glyph-name="otilde" unicode="&#xf5;" horiz-adv-x="1058" 
d="M528 -18q-90 0 -169 31t-140 89.5t-96 151t-35 207.5t35 207.5t96 151t140 89.5t169 31t169.5 -31t141 -89.5t97 -151t35.5 -207.5t-35.5 -207.5t-97 -151t-141 -89.5t-169.5 -31zM528 782q-111 0 -171 -88t-60 -233t60 -232.5t171 -87.5q114 0 174 87t60 233t-60 233.5
t-174 87.5zM301 1114h-113q12 96 64.5 161.5t146.5 65.5q39 0 71 -13.5t53 -32.5t39.5 -37.5t41 -32t47.5 -13.5q47 0 72 35t33 80h116q-10 -95 -67 -162t-152 -67q-40 0 -72 13t-53.5 31t-40 36.5t-41 31.5t-47.5 13t-43 -10t-29 -28.5t-16 -33.5t-10 -37z" />
    <glyph glyph-name="odieresis" unicode="&#xf6;" horiz-adv-x="1058" 
d="M528 -18q-90 0 -169 31t-140 89.5t-96 151t-35 207.5t35 207.5t96 151t140 89.5t169 31t169.5 -31t141 -89.5t97 -151t35.5 -207.5t-35.5 -207.5t-97 -151t-141 -89.5t-169.5 -31zM528 782q-111 0 -171 -88t-60 -233t60 -232.5t171 -87.5q114 0 174 87t60 233t-60 233.5
t-174 87.5zM713 1096q-51 0 -88 36.5t-37 86.5q0 52 37 88t88 36q50 0 86.5 -36t36.5 -88q0 -49 -37 -86t-86 -37zM223 1219q0 52 37 88t88 36q50 0 85.5 -36t35.5 -88q0 -50 -36 -86.5t-85 -36.5q-51 0 -88 36.5t-37 86.5z" />
    <glyph glyph-name="divide" unicode="&#xf7;" horiz-adv-x="1112" 
d="M100 457v116h914v-116h-914zM432 121q0 52 37 88.5t88 36.5t87 -36.5t36 -88.5q0 -50 -36 -86.5t-87 -36.5t-88 36.5t-37 86.5zM557 758q-51 0 -88 37t-37 88t37 88t88 37q50 0 86.5 -37t36.5 -88t-36.5 -88t-86.5 -37z" />
    <glyph glyph-name="oslash" unicode="&#xf8;" horiz-adv-x="1058" 
d="M276 57q-88 59 -138 161.5t-50 242.5q0 115 35 207.5t96 151t140 89.5t169 31q118 0 215 -51l60 102l61 -33l-61 -108q78 -61 123 -160t45 -229q0 -115 -35.5 -207.5t-97 -151t-141 -89.5t-169.5 -31q-102 0 -192 41l-53 -95l-62 31zM367 217l292 522q-56 43 -131 43
q-111 0 -171 -88t-60 -233q0 -159 70 -244zM709 684l-289 -514q50 -29 108 -29q114 0 174 87t60 233q0 137 -53 223z" />
    <glyph glyph-name="ugrave" unicode="&#xf9;" horiz-adv-x="1075" 
d="M109 479v443h202v-443q0 -79 9.5 -135.5t32.5 -101t64.5 -66.5t102.5 -22q87 0 144.5 72.5t78.5 189.5v506h203v-922h-182l-10 150h-6q-42 -71 -114.5 -120.5t-166.5 -49.5q-186 0 -272 121.5t-86 377.5zM475 1092l-285 321h218l192 -321h-125z" />
    <glyph glyph-name="uacute" unicode="&#xfa;" horiz-adv-x="1075" 
d="M109 922h202v-443q0 -79 9.5 -135.5t32.5 -101t64.5 -66.5t102.5 -22q87 0 144.5 72.5t78.5 189.5v506h203v-922h-182l-10 150h-6q-42 -71 -114.5 -120.5t-166.5 -49.5q-186 0 -272 121.5t-86 377.5v443zM444 1092l191 321h219l-285 -321h-125z" />
    <glyph glyph-name="ucircumflex" unicode="&#xfb;" horiz-adv-x="1075" 
d="M109 479v443h202v-443q0 -79 9.5 -135.5t32.5 -101t64.5 -66.5t102.5 -22q87 0 144.5 72.5t78.5 189.5v506h203v-922h-182l-10 150h-6q-42 -71 -114.5 -120.5t-166.5 -49.5q-186 0 -272 121.5t-86 377.5zM223 1085l234 320h161l234 -320h-127l-184 209h-6l-185 -209h-127
z" />
    <glyph glyph-name="udieresis" unicode="&#xfc;" horiz-adv-x="1075" 
d="M467 -20q-186 0 -272 121.5t-86 377.5v443h202v-443q0 -79 9.5 -135.5t32.5 -101t64.5 -66.5t102.5 -22q87 0 144.5 72.5t78.5 189.5v506h203v-922h-182l-10 150h-6q-42 -71 -114.5 -120.5t-166.5 -49.5zM592 1219q0 52 37 88t88 36q50 0 86.5 -36t36.5 -88
q0 -49 -37 -86t-86 -37q-51 0 -88 36.5t-37 86.5zM227 1219q0 52 36 88t89 36q50 0 85.5 -36t35.5 -88q0 -50 -36 -86.5t-85 -36.5q-52 0 -88.5 36.5t-36.5 86.5z" />
    <glyph glyph-name="yacute" unicode="&#xfd;" horiz-adv-x="956" 
d="M449 -6l-429 928h222l299 -680h6l209 680h182l-279 -867q-90 -275 -232.5 -421t-352.5 -146h-54v160h54q133 0 231.5 96t143.5 250zM551 1092h-125l192 321h218z" />
    <glyph glyph-name="thorn" unicode="&#xfe;" horiz-adv-x="1099" 
d="M332 -512h-203v1946h203v-625l6 2q89 127 266 127t292.5 -126t115.5 -351q0 -113 -33.5 -205t-90 -150.5t-129.5 -90t-155 -31.5q-172 0 -266 135h-6v-631zM561 782q-106 -1 -167.5 -91t-61.5 -236q0 -131 65 -225.5t164 -94.5q109 0 174.5 94t65.5 232q0 139 -63.5 230
t-176.5 91z" />
    <glyph glyph-name="ydieresis" unicode="&#xff;" horiz-adv-x="956" 
d="M449 -6l-429 928h222l299 -680h6l209 680h182l-279 -867q-90 -275 -232.5 -421t-352.5 -146h-54v160h54q133 0 231.5 96t143.5 250zM580 1219q0 52 35.5 88t86.5 36q50 0 86.5 -36t36.5 -88q0 -49 -36.5 -86t-86.5 -37q-51 0 -86.5 36.5t-35.5 86.5zM338 1096
q-51 0 -88 36.5t-37 86.5q0 52 37 88t88 36q50 0 86.5 -36t36.5 -88q0 -49 -36.5 -86t-86.5 -37z" />
    <glyph glyph-name="Amacron" unicode="&#x100;" horiz-adv-x="1325" 
d="M57 0l535 1440h149l527 -1440h-230l-108 303h-557l-111 -303h-205zM428 465h449l-218 602h-6zM1051 1593h-777v90h777v-90z" />
    <glyph glyph-name="amacron" unicode="&#x101;" horiz-adv-x="997" 
d="M389 -20q-146 0 -229.5 76t-83.5 194q0 104 52.5 179t134.5 109.5t183 34.5q97 0 218 -41v31q-9 219 -224 219q-118 0 -239 -80l-66 134q172 106 348 106q197 0 290 -99t93 -300v-363q0 -110 43 -180h-204q-25 42 -31 94h-6q-114 -114 -279 -114zM492 446
q-90 0 -151.5 -46t-61.5 -128q0 -70 45 -108.5t125 -38.5q63 0 124.5 38t92.5 85v147q-25 20 -74.5 35.5t-99.5 15.5zM795 1102h-598v90h598v-90z" />
    <glyph glyph-name="Abreve" unicode="&#x102;" horiz-adv-x="1325" 
d="M57 0l535 1440h149l527 -1440h-230l-108 303h-557l-111 -303h-205zM653 1067l-225 -602h449l-218 602h-6zM348 1769h154q9 -69 52 -108t110 -39q66 0 108 39t51 108h154q-5 -61 -26.5 -109t-52.5 -77.5t-72 -49t-80.5 -27t-81.5 -7.5q-54 0 -104 13t-97 42t-78 84.5
t-37 130.5z" />
    <glyph glyph-name="abreve" unicode="&#x103;" horiz-adv-x="997" 
d="M389 -20q-146 0 -229.5 76t-83.5 194q0 104 52.5 179t134.5 109.5t183 34.5q97 0 218 -41v31q-9 219 -224 219q-118 0 -239 -80l-66 134q172 106 348 106q197 0 290 -99t93 -300v-363q0 -110 43 -180h-204q-25 42 -31 94h-6q-114 -114 -279 -114zM279 272
q0 -70 45 -108.5t125 -38.5q63 0 124.5 38t92.5 85v147q-25 20 -74.5 35.5t-99.5 15.5q-90 0 -151.5 -46t-61.5 -128zM500 1053q-116 0 -202 70.5t-99 213.5h149q10 -73 48.5 -118t103.5 -45q66 0 104.5 45t46.5 118h150q-6 -74 -33.5 -130.5t-70.5 -89t-92.5 -48.5
t-104.5 -16z" />
    <glyph glyph-name="Aogonek" unicode="&#x104;" horiz-adv-x="1325" 
d="M57 0l535 1440h149l527 -1440h-17q-41 0 -85 -52t-44 -112q0 -38 20 -56t46 -18q28 0 53 17v-92q-35 -21 -80 -21q-67 0 -112 34.5t-45 111.5q0 53 31 102.5t77 85.5h-74l-108 303h-557l-111 -303h-205zM653 1067l-225 -602h449l-218 602h-6z" />
    <glyph glyph-name="aogonek" unicode="&#x105;" horiz-adv-x="997" 
d="M76 250q0 104 52.5 179t134.5 109.5t183 34.5q97 0 218 -41v31q-9 219 -224 219q-118 0 -239 -80l-66 134q172 106 348 106q197 0 290 -99t93 -300v-363q0 -110 43 -180h-45q-42 0 -86.5 -52t-44.5 -112q0 -38 20.5 -56t47.5 -18t53 17v-92q-42 -21 -80 -21
q-67 0 -112.5 34.5t-45.5 111.5q0 53 31.5 102.5t77.5 85.5h-20q-25 42 -31 94h-6q-114 -114 -279 -114q-146 0 -229.5 76t-83.5 194zM492 446q-90 0 -151.5 -46t-61.5 -128q0 -70 45 -108.5t125 -38.5q63 0 124.5 38t92.5 85v147q-25 20 -74.5 35.5t-99.5 15.5z" />
    <glyph glyph-name="Cacute" unicode="&#x106;" horiz-adv-x="1318" 
d="M799 -18q-306 0 -493.5 205t-186.5 542q1 164 52 298.5t141 225.5t215 141t272 50q237 0 428 -96l-74 -168q-154 77 -342 77q-200 0 -329.5 -147t-129.5 -381q0 -252 135 -408.5t332 -156.5q201 0 346 88l66 -156q-197 -114 -432 -114zM844 1536h-148l172 283h209z" />
    <glyph glyph-name="cacute" unicode="&#x107;" horiz-adv-x="919" 
d="M537 -14q-88 0 -166.5 30.5t-140.5 87.5t-98 149.5t-36 207.5q0 136 50 243t150.5 171.5t238.5 64.5q176 0 299 -76l-56 -133q-79 57 -203 57q-129 0 -199.5 -92.5t-70.5 -230.5q0 -142 76 -233t199 -91q64 0 124.5 17.5t96.5 42.5l57 -129q-134 -86 -321 -86zM442 1092
l193 321h217l-285 -321h-125z" />
    <glyph glyph-name="Ccircumflex" unicode="&#x108;" horiz-adv-x="1318" 
d="M799 -18q-306 0 -493.5 205t-186.5 542q1 164 52 298.5t141 225.5t215 141t272 50q237 0 428 -96l-74 -168q-154 77 -342 77q-200 0 -329.5 -147t-129.5 -381q0 -252 135 -408.5t332 -156.5q201 0 346 88l66 -156q-197 -114 -432 -114zM471 1536l234 268h161l232 -268
h-150l-160 154h-8l-159 -154h-150z" />
    <glyph glyph-name="ccircumflex" unicode="&#x109;" horiz-adv-x="919" 
d="M537 -14q-88 0 -166.5 30.5t-140.5 87.5t-98 149.5t-36 207.5q0 136 50 243t150.5 171.5t238.5 64.5q176 0 299 -76l-56 -133q-79 57 -203 57q-129 0 -199.5 -92.5t-70.5 -230.5q0 -142 76 -233t199 -91q64 0 124.5 17.5t96.5 42.5l57 -129q-134 -86 -321 -86zM350 1085
h-129l234 320h163l234 -320h-127l-184 209h-6z" />
    <glyph glyph-name="Cdotaccent" unicode="&#x10a;" horiz-adv-x="1318" 
d="M799 -18q-306 0 -493.5 205t-186.5 542q1 164 52 298.5t141 225.5t215 141t272 50q237 0 428 -96l-74 -168q-154 77 -342 77q-200 0 -329.5 -147t-129.5 -381q0 -252 135 -408.5t332 -156.5q201 0 346 88l66 -156q-197 -114 -432 -114zM791 1559q-53 0 -91 37.5t-38 89.5
q0 54 37.5 91.5t91.5 37.5q51 0 89 -37.5t38 -91.5q0 -51 -38 -89t-89 -38z" />
    <glyph glyph-name="cdotaccent" unicode="&#x10b;" horiz-adv-x="919" 
d="M537 -14q-88 0 -166.5 30.5t-140.5 87.5t-98 149.5t-36 207.5q0 136 50 243t150.5 171.5t238.5 64.5q176 0 299 -76l-56 -133q-79 57 -203 57q-129 0 -199.5 -92.5t-70.5 -230.5q0 -142 76 -233t199 -91q64 0 124.5 17.5t96.5 42.5l57 -129q-134 -86 -321 -86zM412 1219
q0 52 37 88t88 36q50 0 86 -36t36 -88q0 -50 -36.5 -86.5t-85.5 -36.5q-51 0 -88 36.5t-37 86.5z" />
    <glyph glyph-name="Ccaron" unicode="&#x10c;" horiz-adv-x="1318" 
d="M799 -18q-306 0 -493.5 205t-186.5 542q1 164 52 298.5t141 225.5t215 141t272 50q237 0 428 -96l-74 -168q-154 77 -342 77q-200 0 -329.5 -147t-129.5 -381q0 -252 135 -408.5t332 -156.5q201 0 346 88l66 -156q-197 -114 -432 -114zM700 1536l-233 268h149l160 -151h8
l160 151h150l-232 -268h-162z" />
    <glyph glyph-name="ccaron" unicode="&#x10d;" horiz-adv-x="919" 
d="M537 -14q-88 0 -166.5 30.5t-140.5 87.5t-98 149.5t-36 207.5q0 136 50 243t150.5 171.5t238.5 64.5q176 0 299 -76l-56 -133q-79 57 -203 57q-129 0 -199.5 -92.5t-70.5 -230.5q0 -142 76 -233t199 -91q64 0 124.5 17.5t96.5 42.5l57 -129q-134 -86 -321 -86zM455 1085
l-234 320h127l184 -207h7l184 207h127l-234 -320h-161z" />
    <glyph glyph-name="Dcaron" unicode="&#x10e;" horiz-adv-x="1396" 
d="M160 1427q224 17 436 17q314 0 498 -186t184 -500q1 -221 -78.5 -395.5t-236 -276.5t-367.5 -102q-300 0 -436 16v1427zM381 172q74 -8 219 -8q136 0 239 80t156 214t52 300q-2 230 -121 368t-326 138q-112 0 -219 -11v-1081zM293 1804h151l160 -151h8l158 151h150
l-232 -268h-162z" />
    <glyph glyph-name="dcaron" unicode="&#x10f;" horiz-adv-x="1560" 
d="M496 -16q-82 0 -155 31.5t-129.5 90t-90 150.5t-33.5 205q0 225 116.5 351t295.5 126q173 0 264 -123h6v721h201v-1536h-174l-13 131h-6q-99 -147 -282 -147zM539 782q-113 0 -176.5 -91t-63.5 -230q0 -137 66 -231.5t174 -94.5q99 0 164 94.5t65 225.5q0 146 -61.5 236
t-167.5 91zM1303 1042h-105q82 230 82 494h150q0 -259 -127 -494z" />
    <glyph glyph-name="Dcroat" unicode="&#x110;" horiz-adv-x="1396" 
d="M57 795h103v632q224 17 436 17q314 0 498 -186t184 -500q1 -221 -78.5 -395.5t-236 -276.5t-367.5 -102q-300 0 -436 16v678h-103v117zM381 795h295v-117h-295v-506q74 -8 219 -8q136 0 239 80t156 214t52 300q-2 230 -121 368t-326 138q-112 0 -219 -11v-458z" />
    <glyph glyph-name="dcroat" unicode="&#x111;" horiz-adv-x="1099" 
d="M88 461q0 225 116.5 351t295.5 126q173 0 264 -123h6v287h-295v90h295v344h201v-344h102v-90h-102v-1102h-174l-13 131h-6q-99 -147 -282 -147q-82 0 -155 31.5t-129.5 90t-90 150.5t-33.5 205zM539 782q-113 0 -176.5 -91t-63.5 -230q0 -137 66 -231.5t174 -94.5
q99 0 164 94.5t65 225.5q0 146 -61.5 236t-167.5 91z" />
    <glyph glyph-name="Emacron" unicode="&#x112;" horiz-adv-x="1142" 
d="M160 1434h858v-185h-637v-428h575v-170h-575v-467h637v-184h-858v1434zM981 1593h-778v90h778v-90z" />
    <glyph glyph-name="emacron" unicode="&#x113;" horiz-adv-x="1032" 
d="M557 -16q-88 0 -168.5 31.5t-143 90.5t-99.5 151t-37 204q0 115 35.5 207t96.5 150t140.5 89t169.5 31q186 0 290 -137t89 -361h-627q4 -139 81 -221t200 -82q71 0 144 17.5t108 40.5l47 -127q-127 -84 -326 -84zM311 567h447q-3 99 -60.5 161t-150.5 63q-99 0 -162 -64
t-74 -160zM848 1102h-598v90h598v-90z" />
    <glyph glyph-name="Ebreve" unicode="&#x114;" horiz-adv-x="1142" 
d="M160 0v1434h858v-185h-637v-428h575v-170h-575v-467h637v-184h-858zM283 1769h153q9 -69 51.5 -108t108.5 -39q67 0 110 39t52 108h153q-5 -61 -26.5 -109t-52.5 -77.5t-72.5 -49t-81 -27t-82.5 -7.5q-42 0 -81.5 7.5t-80.5 27t-72 49t-52.5 77.5t-26.5 109z" />
    <glyph glyph-name="ebreve" unicode="&#x115;" horiz-adv-x="1032" 
d="M557 -16q-88 0 -168.5 31.5t-143 90.5t-99.5 151t-37 204q0 115 35.5 207t96.5 150t140.5 89t169.5 31q186 0 290 -137t89 -361h-627q4 -139 81 -221t200 -82q71 0 144 17.5t108 40.5l47 -127q-127 -84 -326 -84zM248 1337h149q10 -73 48.5 -118t103.5 -45q66 0 104.5 45
t48.5 118h148q-6 -74 -33.5 -130.5t-70.5 -89t-92.5 -48.5t-104.5 -16q-116 0 -202 70.5t-99 213.5zM547 791q-99 0 -162 -64t-74 -160h447q-3 99 -60.5 161t-150.5 63z" />
    <glyph glyph-name="Edotaccent" unicode="&#x116;" horiz-adv-x="1142" 
d="M160 0v1434h858v-185h-637v-428h575v-170h-575v-467h637v-184h-858zM592 1559q-52 0 -90.5 38t-38.5 89q0 54 38 91.5t91 37.5t91 -37.5t38 -91.5q0 -51 -38.5 -89t-90.5 -38z" />
    <glyph glyph-name="edotaccent" unicode="&#x117;" horiz-adv-x="1032" 
d="M109 461q0 115 35.5 207t96.5 150t140.5 89t169.5 31q186 0 290 -137t89 -361h-627q4 -139 81 -221t200 -82q71 0 144 17.5t108 40.5l47 -127q-127 -84 -326 -84q-88 0 -168.5 31.5t-143 90.5t-99.5 151t-37 204zM547 791q-99 0 -162 -64t-74 -160h447q-3 99 -60.5 161
t-150.5 63zM549 1096q-51 0 -87 36.5t-36 86.5q0 52 36 88t87 36t87 -36t36 -88q0 -50 -36 -86.5t-87 -36.5z" />
    <glyph glyph-name="Eogonek" unicode="&#x118;" horiz-adv-x="1142" 
d="M874 0h-714v1434h858v-185h-637v-428h575v-170h-575v-467h637v-184h-4q-41 0 -86 -52t-45 -112q0 -38 20.5 -56t46.5 -18q28 0 54 17v-92q-42 -21 -80 -21q-67 0 -112.5 34.5t-45.5 111.5q0 53 31 102.5t77 85.5z" />
    <glyph glyph-name="eogonek" unicode="&#x119;" horiz-adv-x="1032" 
d="M109 461q0 115 35.5 207t96.5 150t140.5 89t169.5 31q186 0 290 -137t89 -361h-627q4 -139 81 -221t200 -82q71 0 144 17.5t108 40.5l47 -127q-88 -56 -205 -74q-38 -19 -69 -64t-31 -94q0 -38 20.5 -56t46.5 -18q27 0 53 17v-92q-42 -21 -80 -21q-67 0 -112 34.5
t-45 111.5q0 93 90 172q-88 2 -167 34t-140.5 90.5t-98 149.5t-36.5 203zM547 791q-99 0 -162 -64t-74 -160h447q-3 99 -60.5 161t-150.5 63z" />
    <glyph glyph-name="Ecaron" unicode="&#x11a;" horiz-adv-x="1142" 
d="M160 0v1434h858v-185h-637v-428h575v-170h-575v-467h637v-184h-858zM504 1536l-234 268h150l160 -151h8l160 151h149l-231 -268h-162z" />
    <glyph glyph-name="ecaron" unicode="&#x11b;" horiz-adv-x="1032" 
d="M557 -16q-88 0 -168.5 31.5t-143 90.5t-99.5 151t-37 204q0 115 35.5 207t96.5 150t140.5 89t169.5 31q186 0 290 -137t89 -361h-627q4 -139 81 -221t200 -82q71 0 144 17.5t108 40.5l47 -127q-127 -84 -326 -84zM311 567h447q-3 99 -60.5 161t-150.5 63q-99 0 -162 -64
t-74 -160zM469 1085l-233 320h126l185 -207h6l184 207h127l-233 -320h-162z" />
    <glyph glyph-name="Gcircumflex" unicode="&#x11c;" horiz-adv-x="1374" 
d="M817 -20q-318 0 -508.5 202.5t-189.5 554.5q1 220 92.5 381.5t250 243.5t365.5 82q239 0 449 -96l-72 -168q-171 82 -364 82q-223 0 -354.5 -139t-131.5 -386q-1 -271 124.5 -423t338.5 -152q138 0 270 63v346h-296v162h485v-624q-103 -60 -224.5 -94.5t-234.5 -34.5z
M508 1536l231 268h164l232 -268h-152l-158 154h-8l-160 -154h-149z" />
    <glyph glyph-name="gcircumflex" unicode="&#x11d;" horiz-adv-x="1093" 
d="M59 -236q0 145 174 234q-129 57 -129 182q0 62 38.5 114t99.5 81q-101 84 -101 235q0 80 29.5 141.5t72 95.5t99.5 56t103.5 28.5t91.5 6.5q120 0 221 -49q37 69 112 119t172 47v-158q-126 13 -194 -72q84 -84 84 -215q0 -58 -16 -106.5t-42 -81t-62 -58t-72 -40
t-75.5 -24t-70 -12.5t-57.5 -3q-101 0 -181 28q-34 -14 -57 -40.5t-23 -57.5q0 -49 66 -72.5t221 -23.5q258 0 364.5 -70.5t106.5 -224.5q0 -101 -70 -177.5t-192.5 -117.5t-277.5 -41q-203 0 -319 72.5t-116 203.5zM549 -53q-66 0 -125 6q-69 -17 -120.5 -59t-51.5 -99
q0 -82 70 -122t184 -40q146 0 239 43t93 129q0 79 -65 110.5t-224 31.5zM537 811q-103 0 -153 -56t-48 -145q0 -90 48.5 -144t152.5 -54q95 0 147.5 56t52.5 142t-53 143.5t-147 57.5zM213 1085l233 320h162l234 -320h-127l-185 209h-6l-184 -209h-127z" />
    <glyph glyph-name="Gbreve" unicode="&#x11e;" horiz-adv-x="1374" 
d="M817 -20q-318 0 -508.5 202.5t-189.5 554.5q1 220 92.5 381.5t250 243.5t365.5 82q239 0 449 -96l-72 -168q-171 82 -364 82q-223 0 -354.5 -139t-131.5 -386q-1 -271 124.5 -423t338.5 -152q138 0 270 63v346h-296v162h485v-624q-103 -60 -224.5 -94.5t-234.5 -34.5z
M471 1769h154q9 -69 51.5 -108t109.5 -39q66 0 109.5 39t50.5 108h156q-6 -75 -37.5 -130.5t-78.5 -84.5t-96.5 -42t-103.5 -13q-43 0 -82.5 7.5t-81 27t-72.5 49t-52.5 77.5t-26.5 109z" />
    <glyph glyph-name="gbreve" unicode="&#x11f;" horiz-adv-x="1093" 
d="M494 -512q-203 0 -319 72.5t-116 203.5q0 145 174 234q-129 57 -129 182q0 62 38.5 114t99.5 81q-101 84 -101 235q0 80 29.5 141.5t72 95.5t99.5 56t103.5 28.5t91.5 6.5q120 0 221 -49q37 69 112 119t172 47v-158q-126 13 -194 -72q84 -84 84 -215q0 -58 -16 -106.5
t-42 -81t-62 -58t-72 -40t-75.5 -24t-70 -12.5t-57.5 -3q-101 0 -181 28q-34 -14 -57 -40.5t-23 -57.5q0 -49 66 -72.5t221 -23.5q258 0 364.5 -70.5t106.5 -224.5q0 -101 -70 -177.5t-192.5 -117.5t-277.5 -41zM549 -53q-66 0 -125 6q-69 -17 -120.5 -59t-51.5 -99
q0 -82 70 -122t184 -40q146 0 239 43t93 129q0 79 -65 110.5t-224 31.5zM537 811q-103 0 -153 -56t-48 -145q0 -90 48.5 -144t152.5 -54q95 0 147.5 56t52.5 142t-53 143.5t-147 57.5zM238 1337h149q10 -73 48.5 -118t103.5 -45t103 45t48 118h150q-13 -144 -98.5 -214
t-202.5 -70q-55 0 -104.5 16t-92.5 48.5t-70.5 89t-33.5 130.5z" />
    <glyph glyph-name="Gdotaccent" unicode="&#x120;" horiz-adv-x="1374" 
d="M817 -20q-318 0 -508.5 202.5t-189.5 554.5q1 220 92.5 381.5t250 243.5t365.5 82q239 0 449 -96l-72 -168q-171 82 -364 82q-223 0 -354.5 -139t-131.5 -386q-1 -271 124.5 -423t338.5 -152q138 0 270 63v346h-296v162h485v-624q-103 -60 -224.5 -94.5t-234.5 -34.5z
M682 1686q0 54 37.5 91.5t91.5 37.5q51 0 89 -37.5t38 -91.5q0 -51 -38 -89t-89 -38q-53 0 -91 37.5t-38 89.5z" />
    <glyph glyph-name="gdotaccent" unicode="&#x121;" horiz-adv-x="1093" 
d="M494 -512q-203 0 -319 72.5t-116 203.5q0 145 174 234q-129 57 -129 182q0 62 38.5 114t99.5 81q-101 84 -101 235q0 80 29.5 141.5t72 95.5t99.5 56t103.5 28.5t91.5 6.5q120 0 221 -49q37 69 112 119t172 47v-158q-126 13 -194 -72q84 -84 84 -215q0 -58 -16 -106.5
t-42 -81t-62 -58t-72 -40t-75.5 -24t-70 -12.5t-57.5 -3q-101 0 -181 28q-34 -14 -57 -40.5t-23 -57.5q0 -49 66 -72.5t221 -23.5q258 0 364.5 -70.5t106.5 -224.5q0 -101 -70 -177.5t-192.5 -117.5t-277.5 -41zM549 -53q-66 0 -125 6q-69 -17 -120.5 -59t-51.5 -99
q0 -82 70 -122t184 -40q146 0 239 43t93 129q0 79 -65 110.5t-224 31.5zM537 811q-103 0 -153 -56t-48 -145q0 -90 48.5 -144t152.5 -54q95 0 147.5 56t52.5 142t-53 143.5t-147 57.5zM539 1096q-52 0 -88.5 36.5t-36.5 86.5q0 52 36 88t89 36q50 0 86.5 -36t36.5 -88
q0 -49 -37 -86t-86 -37z" />
    <glyph glyph-name="uni0122" unicode="&#x122;" horiz-adv-x="1374" 
d="M817 -20q-318 0 -508.5 202.5t-189.5 554.5q1 220 92.5 381.5t250 243.5t365.5 82q239 0 449 -96l-72 -168q-171 82 -364 82q-223 0 -354.5 -139t-131.5 -386q-1 -271 124.5 -423t338.5 -152q138 0 270 63v346h-296v162h485v-624q-103 -60 -224.5 -94.5t-234.5 -34.5z
M643 -281q58 21 87.5 77t12.5 149h142q23 -119 -50 -214.5t-192 -107.5v96z" />
    <glyph glyph-name="uni0123" unicode="&#x123;" horiz-adv-x="1093" 
d="M59 -236q0 145 174 234q-129 57 -129 182q0 62 38.5 114t99.5 81q-101 84 -101 235q0 80 29.5 141.5t72 95.5t99.5 56t103.5 28.5t91.5 6.5q120 0 221 -49q37 69 112 119t172 47v-158q-126 13 -194 -72q84 -84 84 -215q0 -58 -16 -106.5t-42 -81t-62 -58t-72 -40
t-75.5 -24t-70 -12.5t-57.5 -3q-101 0 -181 28q-34 -14 -57 -40.5t-23 -57.5q0 -49 66 -72.5t221 -23.5q258 0 364.5 -70.5t106.5 -224.5q0 -101 -70 -177.5t-192.5 -117.5t-277.5 -41q-203 0 -319 72.5t-116 203.5zM549 -53q-66 0 -125 6q-69 -17 -120.5 -59t-51.5 -99
q0 -82 70 -122t184 -40q146 0 239 43t93 129q0 79 -65 110.5t-224 31.5zM537 811q-103 0 -153 -56t-48 -145q0 -90 48.5 -144t152.5 -54q95 0 147.5 56t52.5 142t-53 143.5t-147 57.5zM432 1100q-23 118 50 212.5t192 106.5v-96q-59 -21 -88.5 -75.5t-12.5 -147.5h-141z" />
    <glyph glyph-name="Hcircumflex" unicode="&#x124;" horiz-adv-x="1337" 
d="M373 0h-221v1434h221v-605h592v605h221v-1434h-221v645h-592v-645zM506 1536h-150l232 268h164l231 -268h-152l-157 154h-8z" />
    <glyph glyph-name="hcircumflex" unicode="&#x125;" horiz-adv-x="1075" 
d="M332 0h-203v1536h203v-756h6q42 69 110.5 115.5t159.5 46.5q186 0 272.5 -112.5t86.5 -348.5v-481h-203v449q0 157 -46 238t-163 81q-86 0 -143.5 -72.5t-79.5 -187.5v-508zM90 1597h-149l233 269h162l231 -269h-149l-160 154h-8z" />
    <glyph glyph-name="Hbar" unicode="&#x126;" horiz-adv-x="1337" 
d="M1186 1122h98v-90h-98v-1032h-221v645h-592v-645h-221v1032h-82v90h82v312h221v-312h592v312h221v-312zM965 1032h-592v-203h592v203z" />
    <glyph glyph-name="hbar" unicode="&#x127;" horiz-adv-x="1075" 
d="M332 1192h280v-90h-280v-322h6q42 69 110.5 115.5t159.5 46.5q186 0 272.5 -112.5t86.5 -348.5v-481h-203v449q0 157 -46 238t-163 81q-86 0 -143.5 -72.5t-79.5 -187.5v-508h-203v1102h-115v90h115v344h203v-344z" />
    <glyph glyph-name="Itilde" unicode="&#x128;" horiz-adv-x="540" 
d="M160 0v1434h221v-1434h-221zM51 1556h-117q12 94 64.5 155t148.5 61q48 0 86 -18.5t58.5 -40t49 -40t58.5 -18.5q46 0 71 30t32 72h119q-8 -94 -63.5 -156.5t-151.5 -62.5q-40 0 -73 11.5t-55 28t-41.5 33.5t-42.5 28.5t-47 11.5q-47 0 -68 -26t-28 -69z" />
    <glyph glyph-name="itilde" unicode="&#x129;" horiz-adv-x="505" 
d="M154 0v922h202v-922h-202zM27 1114h-115q12 96 64.5 161.5t146.5 65.5q39 0 71 -13.5t53 -32.5t40 -37.5t41.5 -32t48.5 -13.5q46 0 71 35.5t31 79.5h117q-10 -95 -67 -162t-152 -67q-40 0 -72 13t-53.5 31t-40 36.5t-41 31.5t-47.5 13q-77 0 -96 -109z" />
    <glyph glyph-name="Imacron" unicode="&#x12a;" horiz-adv-x="540" 
d="M160 0v1434h221v-1434h-221zM-119 1593v90h778v-90h-778z" />
    <glyph glyph-name="imacron" unicode="&#x12b;" horiz-adv-x="505" 
d="M154 0v922h202v-922h-202zM-45 1102v90h598v-90h-598z" />
    <glyph glyph-name="Ibreve" unicode="&#x12c;" horiz-adv-x="540" 
d="M160 0v1434h221v-1434h-221zM-45 1769h156q7 -69 50 -108t109 -39q67 0 110 39t52 108h154q-6 -75 -37 -130.5t-78 -84.5t-97 -42t-104 -13q-42 0 -82 7.5t-81 27t-72 49t-53 77.5t-27 109z" />
    <glyph glyph-name="ibreve" unicode="&#x12d;" horiz-adv-x="505" 
d="M154 0v922h202v-922h-202zM-47 1337h149q8 -72 47.5 -117.5t104.5 -45.5t103.5 45t48.5 118h149q-13 -143 -99 -213.5t-202 -70.5q-55 0 -104.5 16t-92.5 48.5t-70.5 89t-33.5 130.5z" />
    <glyph glyph-name="Iogonek" unicode="&#x12e;" horiz-adv-x="540" 
d="M127 -188q0 53 31.5 102.5t77.5 85.5h-76v1434h221v-1434h-8q-41 0 -85 -52t-44 -112q0 -38 19.5 -56t45.5 -18q31 0 56 17v-92q-42 -21 -82 -21q-66 0 -111 34.5t-45 111.5z" />
    <glyph glyph-name="iogonek" unicode="&#x12f;" horiz-adv-x="505" 
d="M256 -334q-67 0 -111.5 34.5t-44.5 111.5q0 53 30.5 102.5t76.5 85.5h-53v922h202v-922h-10q-41 0 -85 -52t-44 -112q0 -38 20 -56t46 -18q32 0 53 17v-92q-35 -21 -80 -21zM121 1323q0 56 38 95.5t93 39.5q54 0 93.5 -40t39.5 -95q0 -52 -39.5 -90.5t-93.5 -38.5
q-55 0 -93 38t-38 91z" />
    <glyph glyph-name="Idotaccent" unicode="&#x130;" horiz-adv-x="540" 
d="M160 0v1434h221v-1434h-221zM141 1686q0 54 38 91.5t91 37.5t91 -37.5t38 -91.5q0 -51 -38.5 -89t-90.5 -38t-90.5 38t-38.5 89z" />
    <glyph glyph-name="dotlessi" unicode="&#x131;" horiz-adv-x="505" 
d="M154 0v922h202v-922h-202z" />
    <glyph glyph-name="IJ" unicode="&#x132;" horiz-adv-x="1372" 
d="M588 25l30 168q30 -12 89.5 -22.5t103.5 -10.5q122 0 176.5 70t54.5 251v953h211v-953q0 -255 -102 -376t-340 -121q-51 0 -122 13.5t-101 27.5zM160 1434h221v-1434h-221v1434z" />
    <glyph glyph-name="ij" unicode="&#x133;" horiz-adv-x="960" 
d="M395 -508v166q135 0 193.5 92t58.5 293v879h201v-893q0 -126 -24 -222t-76 -168t-141 -109.5t-212 -37.5zM356 0h-202v922h202v-922zM121 1323q0 56 38 95.5t93 39.5q54 0 93.5 -40t39.5 -95q0 -52 -39.5 -90.5t-93.5 -38.5q-55 0 -93 38t-38 91zM612 1323q0 55 39 94
t94 39q54 0 94 -39t40 -94q0 -53 -40 -92t-94 -39q-55 0 -94 39t-39 92z" />
    <glyph glyph-name="Jcircumflex" unicode="&#x134;" horiz-adv-x="858" 
d="M72 25l32 168q28 -11 88 -22t105 -11q121 0 176 70t55 251v953h211v-953q0 -254 -102.5 -375.5t-339.5 -121.5q-52 0 -122.5 13.5t-102.5 27.5zM463 1536h-150l232 268h164l231 -268h-152l-157 154h-8z" />
    <glyph glyph-name="jcircumflex" unicode="&#x135;" horiz-adv-x="464" 
d="M-106 -510h-37v172h37q145 0 201.5 80.5t56.5 280.5v899h202v-914q0 -128 -22 -219.5t-73.5 -161t-142 -103.5t-222.5 -34zM-82 1085l234 320h161l234 -320h-127l-184 209h-7l-184 -209h-127z" />
    <glyph glyph-name="uni0136" unicode="&#x136;" horiz-adv-x="1288" 
d="M381 0h-221v1434h221v-617h6l514 617h244l-557 -656l665 -778h-288l-523 608l-61 -71v-537zM733 -55q23 -119 -49.5 -214.5t-191.5 -107.5v96q58 21 87.5 77t12.5 149h141z" />
    <glyph glyph-name="uni0137" unicode="&#x137;" horiz-adv-x="1001" 
d="M129 1536h203v-1022h6l364 408h211l-317 -355l336 -567h-221l-246 422l-133 -150v-272h-203v1536zM338 -281q58 21 87.5 77t12.5 149h142q23 -119 -50 -214.5t-192 -107.5v96z" />
    <glyph glyph-name="kgreenlandic" unicode="&#x138;" horiz-adv-x="1001" 
d="M332 0h-203v922h203v-408h6l364 408h211l-317 -355l336 -567h-221l-246 422l-133 -150v-272z" />
    <glyph glyph-name="Lacute" unicode="&#x139;" horiz-adv-x="1112" 
d="M160 0v1434h221v-1250h657v-184h-878zM377 1819h209l-236 -283h-145z" />
    <glyph glyph-name="lacute" unicode="&#x13a;" horiz-adv-x="460" 
d="M129 0v1536h203v-1536h-203zM311 1880h209l-233 -283h-148z" />
    <glyph glyph-name="uni013B" unicode="&#x13b;" horiz-adv-x="1112" 
d="M1038 0h-878v1434h221v-1250h657v-184zM442 -377v96q59 21 88.5 77t12.5 149h143q23 -119 -50 -214.5t-194 -107.5z" />
    <glyph glyph-name="uni013C" unicode="&#x13c;" horiz-adv-x="460" 
d="M129 0v1536h203v-1536h-203zM328 -55q23 -119 -49 -214.5t-193 -107.5v96q58 21 87.5 77t12.5 149h142z" />
    <glyph glyph-name="Lcaron" unicode="&#x13d;" horiz-adv-x="1112" 
d="M1038 0h-878v1434h221v-1250h657v-184zM975 1042h-107q82 230 82 494h150q0 -254 -125 -494z" />
    <glyph glyph-name="lcaron" unicode="&#x13e;" horiz-adv-x="921" 
d="M129 1536h203v-1536h-203v1536zM664 1042h-107q82 230 82 494h149q0 -256 -124 -494z" />
    <glyph glyph-name="Ldot" unicode="&#x13f;" horiz-adv-x="1112" 
d="M160 1434h221v-1250h657v-184h-878v1434zM797 666q-55 0 -95 39.5t-40 93.5t40 93.5t95 39.5q53 0 92 -39.5t39 -93.5t-39 -93.5t-92 -39.5z" />
    <glyph glyph-name="ldot" unicode="&#x140;" horiz-adv-x="788" 
d="M129 1536h203v-1536h-203v1536zM614 553q-55 0 -95 39.5t-40 93.5t40 93.5t95 39.5q53 0 92 -39.5t39 -93.5t-39 -93.5t-92 -39.5z" />
    <glyph glyph-name="Lslash" unicode="&#x141;" horiz-adv-x="1112" 
d="M-29 430l-57 100l246 142v762h221v-633l209 121l57 -103l-266 -153v-482h657v-184h-878v539z" />
    <glyph glyph-name="lslash" unicode="&#x142;" horiz-adv-x="460" 
d="M-76 360l-57 101l262 151v924h203v-807l211 123l57 -100l-268 -156v-596h-203v479z" />
    <glyph glyph-name="Nacute" unicode="&#x143;" horiz-adv-x="1382" 
d="M371 0h-211v1434h209l637 -1049h6v1049h211v-1434h-213l-633 1020h-6v-1020zM627 1536l170 283h211l-236 -283h-145z" />
    <glyph glyph-name="nacute" unicode="&#x144;" horiz-adv-x="1075" 
d="M332 0h-203v922h182l11 -150h6q41 73 113 121.5t167 48.5q186 0 272.5 -112.5t86.5 -348.5v-481h-203v449q0 157 -46 238t-163 81q-86 0 -143.5 -72.5t-79.5 -187.5v-508zM555 1092h-125l191 321h219z" />
    <glyph glyph-name="uni0145" unicode="&#x145;" horiz-adv-x="1382" 
d="M371 0h-211v1434h209l637 -1049h6v1049h211v-1434h-213l-633 1020h-6v-1020zM537 -281q58 21 87.5 77t12.5 149h143q23 -119 -49.5 -214.5t-193.5 -107.5v96z" />
    <glyph glyph-name="uni0146" unicode="&#x146;" horiz-adv-x="1075" 
d="M332 0h-203v922h182l11 -150h6q41 73 113 121.5t167 48.5q186 0 272.5 -112.5t86.5 -348.5v-481h-203v449q0 157 -46 238t-163 81q-86 0 -143.5 -72.5t-79.5 -187.5v-508zM385 -281q58 21 87.5 77t12.5 149h142q23 -119 -50 -214.5t-192 -107.5v96z" />
    <glyph glyph-name="Ncaron" unicode="&#x147;" horiz-adv-x="1382" 
d="M371 0h-211v1434h209l637 -1049h6v1049h211v-1434h-213l-633 1020h-6v-1020zM387 1804h152l159 -151h9l157 151h150l-230 -268h-163z" />
    <glyph glyph-name="ncaron" unicode="&#x148;" horiz-adv-x="1075" 
d="M129 0v922h182l11 -150h6q41 73 113 121.5t167 48.5q186 0 272.5 -112.5t86.5 -348.5v-481h-203v449q0 157 -46 238t-163 81q-86 0 -143.5 -72.5t-79.5 -187.5v-508h-203zM223 1405h127l185 -207h6l184 207h127l-234 -320h-161z" />
    <glyph glyph-name="napostrophe" unicode="&#x149;" horiz-adv-x="1173" 
d="M227 0v922h183l10 -150h6q41 73 113.5 121.5t167.5 48.5q186 0 272 -112.5t86 -348.5v-481h-203v449q0 157 -46.5 238t-162.5 81q-86 0 -143.5 -72.5t-79.5 -187.5v-508h-203zM12 1042q82 230 82 494h150q0 -259 -127 -494h-105z" />
    <glyph glyph-name="Eng" unicode="&#x14a;" horiz-adv-x="1382" 
d="M371 0h-211v1434h209l637 -1049h6v1049h211v-1487q0 -227 -104 -343t-339 -116q-51 0 -122 13.5t-103 27.5l33 168q28 -11 87.5 -22t104.5 -11q119 -2 175.5 63.5t56.5 219.5v51l-635 1022h-6v-1020z" />
    <glyph glyph-name="eng" unicode="&#x14b;" horiz-adv-x="1075" 
d="M332 0h-203v922h182l11 -150h6q41 73 113 121.5t167 48.5q186 0 272.5 -112.5t86.5 -348.5v-452q0 -126 -24 -222t-76 -168t-141 -109.5t-212 -37.5v166q134 0 192 92t58 293v406q0 157 -46 238t-163 81q-86 0 -143.5 -72.5t-79.5 -187.5v-508z" />
    <glyph glyph-name="Omacron" unicode="&#x14c;" horiz-adv-x="1492" 
d="M119 717q0 218 74.5 384.5t217 259.5t334.5 93q290 0 459.5 -202.5t169.5 -534.5t-169.5 -534.5t-459.5 -202.5q-192 0 -334.5 93t-217 259.5t-74.5 384.5zM745 1264q-188 0 -291.5 -149t-103.5 -398q0 -248 103.5 -397.5t291.5 -149.5t292 150t104 397q0 248 -104 397.5
t-292 149.5zM356 1683h779v-90h-779v90z" />
    <glyph glyph-name="omacron" unicode="&#x14d;" horiz-adv-x="1058" 
d="M528 -18q-90 0 -169 31t-140 89.5t-96 151t-35 207.5t35 207.5t96 151t140 89.5t169 31t169.5 -31t141 -89.5t97 -151t35.5 -207.5t-35.5 -207.5t-97 -151t-141 -89.5t-169.5 -31zM297 461q0 -145 60 -232.5t171 -87.5q114 0 174 87t60 233t-60 233.5t-174 87.5
q-111 0 -171 -88t-60 -233zM829 1102h-600v90h600v-90z" />
    <glyph glyph-name="Obreve" unicode="&#x14e;" horiz-adv-x="1492" 
d="M745 -20q-192 0 -334.5 93t-217 259.5t-74.5 384.5t74.5 384.5t217 259.5t334.5 93q290 0 459.5 -202.5t169.5 -534.5t-169.5 -534.5t-459.5 -202.5zM745 1264q-188 0 -291.5 -149t-103.5 -398q0 -248 103.5 -397.5t291.5 -149.5t292 150t104 397q0 248 -104 397.5
t-292 149.5zM430 1769h156q9 -69 51 -108t108 -39q67 0 110 39t52 108h154q-6 -75 -37 -130.5t-78 -84.5t-97 -42t-104 -13q-42 0 -82 7.5t-81 27t-72 49t-53 77.5t-27 109z" />
    <glyph glyph-name="obreve" unicode="&#x14f;" horiz-adv-x="1058" 
d="M528 -18q-90 0 -169 31t-140 89.5t-96 151t-35 207.5t35 207.5t96 151t140 89.5t169 31t169.5 -31t141 -89.5t97 -151t35.5 -207.5t-35.5 -207.5t-97 -151t-141 -89.5t-169.5 -31zM297 461q0 -145 60 -232.5t171 -87.5q114 0 174 87t60 233t-60 233.5t-174 87.5
q-111 0 -171 -88t-60 -233zM530 1053q-55 0 -104.5 16t-92.5 48.5t-70.5 89t-33.5 130.5h148q9 -73 48.5 -118t104.5 -45t103.5 45t48.5 118h149q-13 -143 -99 -213.5t-202 -70.5z" />
    <glyph glyph-name="Ohungarumlaut" unicode="&#x150;" horiz-adv-x="1492" 
d="M119 717q0 218 74.5 384.5t217 259.5t334.5 93q290 0 459.5 -202.5t169.5 -534.5t-169.5 -534.5t-459.5 -202.5q-192 0 -334.5 93t-217 259.5t-74.5 384.5zM745 1264q-188 0 -291.5 -149t-103.5 -398q0 -248 103.5 -397.5t291.5 -149.5t292 150t104 397q0 248 -104 397.5
t-292 149.5zM989 1536h-145l170 283h211zM639 1536h-145l170 283h210z" />
    <glyph glyph-name="ohungarumlaut" unicode="&#x151;" horiz-adv-x="1058" 
d="M528 -18q-90 0 -169 31t-140 89.5t-96 151t-35 207.5t35 207.5t96 151t140 89.5t169 31t169.5 -31t141 -89.5t97 -151t35.5 -207.5t-35.5 -207.5t-97 -151t-141 -89.5t-169.5 -31zM297 461q0 -145 60 -232.5t171 -87.5q114 0 174 87t60 233t-60 233.5t-174 87.5
q-111 0 -171 -88t-60 -233zM657 1085l211 349h230l-324 -349h-117zM428 1085h-119l211 349h230z" />
    <glyph glyph-name="OE" unicode="&#x152;" horiz-adv-x="2004" 
d="M825 -10q-324 0 -515.5 200.5t-190.5 538.5q1 219 90 380.5t247.5 246t368.5 84.5q135 0 246 -6h809v-185h-635v-428h574v-170h-574v-467h635v-184h-809q-87 -10 -246 -10zM352 729q0 -255 135.5 -406t350.5 -151q132 0 186 10v1061q-94 12 -190 12q-217 0 -349.5 -145
t-132.5 -381z" />
    <glyph glyph-name="oe" unicode="&#x153;" horiz-adv-x="1689" 
d="M528 -18q-90 0 -169 31t-140 89.5t-96 151t-35 207.5t35 207.5t96 151t140 89.5t169 31q105 0 193 -46t143 -132h6q54 86 142.5 131t193.5 45q186 0 291 -137t90 -361h-626q3 -139 79.5 -221t200.5 -82q70 0 142.5 17.5t109.5 40.5l47 -127q-131 -84 -326 -84
q-106 0 -197 47t-147 135h-6q-53 -89 -141.5 -136.5t-194.5 -47.5zM297 461q0 -145 60 -232.5t171 -87.5q114 0 174 87t60 233t-60 233.5t-174 87.5q-111 0 -171 -88t-60 -233zM1204 791q-99 0 -161.5 -63.5t-75.5 -160.5h446q-2 98 -59.5 160.5t-149.5 63.5z" />
    <glyph glyph-name="Racute" unicode="&#x154;" horiz-adv-x="1241" 
d="M160 0v1423q29 2 85 6.5t80.5 6t66 4t79 3.5t82.5 1q97 0 178 -14t149 -46t115.5 -80t74 -118.5t26.5 -159.5q1 -137 -69 -232t-183 -143v-6q43 -13 81 -44t68.5 -77.5t55 -94.5t47 -112t37.5 -111.5t34 -111t29 -94.5h-240q-6 17 -18 65.5t-24.5 94t-32 104t-46 107
t-59.5 90.5t-79 66t-99 24h-217v-551h-221zM381 1257v-528h154q166 0 250 72t83 213q0 120 -83 186t-238 66q-47 0 -166 -9zM610 1536h-145l170 283h211z" />
    <glyph glyph-name="racute" unicode="&#x155;" horiz-adv-x="759" 
d="M129 0v922h180l15 -156h6q41 79 132 130t210 40v-184q-38 6 -70 6q-116 0 -183.5 -69.5t-86.5 -180.5v-508h-203zM285 1092l190 321h219l-284 -321h-125z" />
    <glyph glyph-name="uni0156" unicode="&#x156;" horiz-adv-x="1241" 
d="M160 0v1423q29 2 85 6.5t80.5 6t66 4t79 3.5t82.5 1q97 0 178 -14t149 -46t115.5 -80t74 -118.5t26.5 -159.5q1 -137 -69 -232t-183 -143v-6q43 -13 81 -44t68.5 -77.5t55 -94.5t47 -112t37.5 -111.5t34 -111t29 -94.5h-240q-6 17 -18 65.5t-24.5 94t-32 104t-46 107
t-59.5 90.5t-79 66t-99 24h-217v-551h-221zM381 1257v-528h154q166 0 250 72t83 213q0 120 -83 186t-238 66q-47 0 -166 -9zM494 -377v96q58 21 87.5 77t12.5 149h143q22 -120 -50.5 -215t-192.5 -107z" />
    <glyph glyph-name="uni0157" unicode="&#x157;" horiz-adv-x="759" 
d="M129 0v922h180l15 -156h6q41 79 132 130t210 40v-184q-38 6 -70 6q-116 0 -183.5 -69.5t-86.5 -180.5v-508h-203zM66 -281q58 21 87.5 77t12.5 149h141q23 -119 -49.5 -214.5t-191.5 -107.5v96z" />
    <glyph glyph-name="Rcaron" unicode="&#x158;" horiz-adv-x="1241" 
d="M381 0h-221v1423q29 2 85 6.5t80.5 6t66 4t79 3.5t82.5 1q97 0 178 -14t149 -46t115.5 -80t74 -118.5t26.5 -159.5q1 -137 -69 -232t-183 -143v-6q43 -13 81 -44t68.5 -77.5t55 -94.5t47 -112t37.5 -111.5t34 -111t29 -94.5h-240q-6 17 -18 65.5t-24.5 94t-32 104
t-46 107t-59.5 90.5t-79 66t-99 24h-217v-551zM381 1257v-528h154q166 0 250 72t83 213q0 120 -83 186t-238 66q-47 0 -166 -9zM258 1804h150l161 -151h9l157 151h150l-232 -268h-161z" />
    <glyph glyph-name="rcaron" unicode="&#x159;" horiz-adv-x="759" 
d="M332 0h-203v922h180l15 -156h6q41 79 132 130t210 40v-184q-38 6 -70 6q-116 0 -183.5 -69.5t-86.5 -180.5v-508zM299 1085l-233 320h127l184 -207h6l184 207h127l-233 -320h-162z" />
    <glyph glyph-name="Sacute" unicode="&#x15a;" horiz-adv-x="1198" 
d="M68 125l96 168q206 -125 405 -125q138 0 226 64.5t88 156.5q0 88 -78.5 144t-257.5 96q-209 49 -314.5 145.5t-105.5 272.5q0 181 137 289t344 108q260 0 467 -123l-96 -166q-194 111 -361 111q-129 0 -198.5 -63.5t-69.5 -149.5q0 -91 70.5 -142t224.5 -88
q118 -29 199 -62.5t142 -82.5t89.5 -117t28.5 -160q-1 -84 -30.5 -154t-80 -117.5t-118 -80.5t-143 -48t-157.5 -15q-125 0 -266.5 38t-240.5 101zM530 1536l170 283h211l-235 -283h-146z" />
    <glyph glyph-name="sacute" unicode="&#x15b;" horiz-adv-x="882" 
d="M432 -14q-105 0 -196.5 24t-149.5 60l59 139q48 -34 123 -56t152 -22q76 0 122 31.5t46 81.5q0 53 -44.5 85t-154.5 64q-126 34 -197 104t-71 175q0 129 95 198.5t249 69.5q190 0 307 -74l-55 -133q-40 25 -104 42.5t-132 17.5q-74 0 -121 -31.5t-47 -77.5
q0 -52 34.5 -79t109.5 -50q173 -46 249 -117.5t76 -185.5q0 -126 -99.5 -196t-250.5 -70zM362 1092l193 321h217l-285 -321h-125z" />
    <glyph glyph-name="Scircumflex" unicode="&#x15c;" horiz-adv-x="1198" 
d="M68 125l96 168q206 -125 405 -125q138 0 226 64.5t88 156.5q0 88 -78.5 144t-257.5 96q-209 49 -314.5 145.5t-105.5 272.5q0 181 137 289t344 108q260 0 467 -123l-96 -166q-194 111 -361 111q-129 0 -198.5 -63.5t-69.5 -149.5q0 -91 70.5 -142t224.5 -88
q118 -29 199 -62.5t142 -82.5t89.5 -117t28.5 -160q-1 -84 -30.5 -154t-80 -117.5t-118 -80.5t-143 -48t-157.5 -15q-125 0 -266.5 38t-240.5 101zM305 1536l232 268h163l232 -268h-152l-157 154h-9l-159 -154h-150z" />
    <glyph glyph-name="scircumflex" unicode="&#x15d;" horiz-adv-x="882" 
d="M86 70l59 139q48 -34 123 -56t152 -22q76 0 122 31.5t46 81.5q0 53 -44.5 85t-154.5 64q-126 34 -197 104t-71 175q0 129 95 198.5t249 69.5q190 0 307 -74l-55 -133q-40 25 -104 42.5t-132 17.5q-74 0 -121 -31.5t-47 -77.5q0 -52 34.5 -79t109.5 -50
q173 -46 249 -117.5t76 -185.5q0 -126 -99.5 -196t-250.5 -70q-105 0 -196.5 24t-149.5 60zM150 1085l233 320h164l233 -320h-127l-184 209h-6l-187 -209h-126z" />
    <glyph glyph-name="Scedilla" unicode="&#x15e;" horiz-adv-x="1198" 
d="M68 125l96 168q206 -125 405 -125q138 0 226 64.5t88 156.5q0 88 -78.5 144t-257.5 96q-209 49 -314.5 145.5t-105.5 272.5q0 181 137 289t344 108q260 0 467 -123l-96 -166q-194 111 -361 111q-129 0 -198.5 -63.5t-69.5 -149.5q0 -91 70.5 -142t224.5 -88
q118 -29 199 -62.5t142 -82.5t89.5 -117t28.5 -160q-1 -102 -43 -182t-113.5 -129t-160.5 -75.5t-189 -28.5l-12 -49v-11q33 1 67.5 -10t63 -40t28.5 -71q0 -74 -57.5 -111.5t-148.5 -37.5q-52 0 -115 18v82q52 -18 104 -18q46 0 75.5 15t29.5 42q0 32 -37 45t-80 13l-29 26
l35 109q-119 8 -242.5 44t-211.5 93z" />
    <glyph glyph-name="scedilla" unicode="&#x15f;" horiz-adv-x="882" 
d="M86 70l59 139q48 -34 123 -56t152 -22q76 0 122 31.5t46 81.5q0 53 -44.5 85t-154.5 64q-126 34 -197 104t-71 175q0 129 95 198.5t249 69.5q190 0 307 -74l-55 -133q-40 25 -104 42.5t-132 17.5q-74 0 -121 -31.5t-47 -77.5q0 -52 34.5 -79t109.5 -50
q173 -46 249 -117.5t76 -185.5q0 -121 -91.5 -190.5t-233.5 -75.5l-15 -49v-11q56 2 108 -29t52 -92q0 -74 -57.5 -111.5t-149.5 -37.5q-53 0 -112 18v82q49 -18 102 -18q46 0 76.5 15t30.5 42q0 32 -37.5 45t-81.5 13l-27 26l33 109q-90 6 -167.5 29t-125.5 53z" />
    <glyph glyph-name="Scaron" unicode="&#x160;" horiz-adv-x="1198" 
d="M68 125l96 168q206 -125 405 -125q138 0 226 64.5t88 156.5q0 88 -78.5 144t-257.5 96q-209 49 -314.5 145.5t-105.5 272.5q0 181 137 289t344 108q260 0 467 -123l-96 -166q-194 111 -361 111q-129 0 -198.5 -63.5t-69.5 -149.5q0 -91 70.5 -142t224.5 -88
q118 -29 199 -62.5t142 -82.5t89.5 -117t28.5 -160q-1 -84 -30.5 -154t-80 -117.5t-118 -80.5t-143 -48t-157.5 -15q-125 0 -266.5 38t-240.5 101zM315 1804h152l160 -151h8l158 151h149l-229 -268h-164z" />
    <glyph glyph-name="scaron" unicode="&#x161;" horiz-adv-x="882" 
d="M432 -14q-105 0 -196.5 24t-149.5 60l59 139q48 -34 123 -56t152 -22q76 0 122 31.5t46 81.5q0 53 -44.5 85t-154.5 64q-126 34 -197 104t-71 175q0 129 95 198.5t249 69.5q190 0 307 -74l-55 -133q-40 25 -104 42.5t-132 17.5q-74 0 -121 -31.5t-47 -77.5
q0 -52 34.5 -79t109.5 -50q173 -46 249 -117.5t76 -185.5q0 -126 -99.5 -196t-250.5 -70zM383 1085l-233 320h126l187 -207h6l184 207h127l-233 -320h-164z" />
    <glyph glyph-name="uni0162" unicode="&#x162;" horiz-adv-x="1280" 
d="M526 1249h-432v185h1092v-185h-438v-1249h-80l-19 -63v-11q56 2 108 -29t52 -92q0 -74 -57 -111.5t-148 -37.5q-56 0 -115 18v82q52 -18 105 -18q46 0 75 15t29 42q0 32 -36.5 45t-79.5 13l-29 26l37 121h-64v1249z" />
    <glyph glyph-name="uni0163" unicode="&#x163;" horiz-adv-x="710" 
d="M195 774h-117v119l127 29l51 268h141v-268h246v-148h-246v-452q0 -113 36 -156t95 -43q66 0 107 33v-113q-18 -19 -72.5 -35t-99.5 -18l-17 -53v-11q56 2 108 -29t52 -92q0 -74 -57 -111.5t-148 -37.5q-51 0 -114 18v82q52 -18 104 -18q46 0 75.5 15t29.5 42q0 32 -37 45
t-80 13l-29 26l37 117q-192 39 -192 295v483z" />
    <glyph glyph-name="Tcaron" unicode="&#x164;" horiz-adv-x="1280" 
d="M526 1249h-432v185h1092v-185h-438v-1249h-222v1249zM326 1804h151l160 -151h8l158 151h149l-231 -268h-162z" />
    <glyph glyph-name="tcaron" unicode="&#x165;" horiz-adv-x="1171" 
d="M78 893l127 29l51 268h141v-268h246v-148h-246v-452q0 -113 36 -156t95 -43q66 0 107 33v-113q-20 -20 -78 -36.5t-102 -16.5q-260 0 -260 301v483h-117v119zM913 1042h-104q82 230 82 494h147q0 -145 -37.5 -273t-87.5 -221z" />
    <glyph glyph-name="Tbar" unicode="&#x166;" horiz-adv-x="1280" 
d="M526 1249h-432v185h1092v-185h-438v-473h360v-90h-360v-686h-222v686h-350v90h350v473z" />
    <glyph glyph-name="tbar" unicode="&#x167;" horiz-adv-x="710" 
d="M78 893l127 29l51 268h141v-268h246v-148h-246v-166h217v-92h-217v-194q0 -113 36 -156t95 -43q66 0 107 33v-113q-20 -20 -78 -36.5t-102 -16.5q-260 0 -260 301v225h-105v92h105v166h-117v119z" />
    <glyph glyph-name="Utilde" unicode="&#x168;" horiz-adv-x="1277" 
d="M119 635v799h221v-820q0 -237 76 -345.5t227 -108.5q158 -2 231.5 104.5t73.5 349.5v820h211v-799q0 -326 -122.5 -488.5t-397.5 -162.5t-397.5 162t-122.5 489zM414 1556h-117q12 94 64 155t147 61q48 0 87 -18.5t59.5 -40t49 -40t58.5 -18.5q46 0 70.5 29.5t31.5 72.5
h119q-8 -94 -63.5 -156.5t-151.5 -62.5q-40 0 -72.5 11.5t-55 28t-42 33.5t-42.5 28.5t-48 11.5q-46 0 -66.5 -26t-27.5 -69z" />
    <glyph glyph-name="utilde" unicode="&#x169;" horiz-adv-x="1075" 
d="M109 479v443h202v-443q0 -79 9.5 -135.5t32.5 -101t64.5 -66.5t102.5 -22q87 0 144.5 72.5t78.5 189.5v506h203v-922h-182l-10 150h-6q-42 -71 -114.5 -120.5t-166.5 -49.5q-186 0 -272 121.5t-86 377.5zM309 1114h-112q12 96 64.5 161.5t146.5 65.5q39 0 71 -13.5
t52.5 -32.5t39.5 -37.5t41 -32t47 -13.5q47 0 72 35t33 80h115q-8 -94 -65 -161.5t-152 -67.5q-40 0 -72 13t-53.5 31t-40 36.5t-41 31.5t-47.5 13t-43.5 -10t-29 -28.5t-16 -34t-10.5 -36.5z" />
    <glyph glyph-name="Umacron" unicode="&#x16a;" horiz-adv-x="1277" 
d="M639 -16q-275 0 -397.5 162t-122.5 489v799h221v-820q0 -237 76 -345.5t227 -108.5q158 -2 231.5 104.5t73.5 349.5v820h211v-799q0 -326 -122.5 -488.5t-397.5 -162.5zM250 1683h778v-90h-778v90z" />
    <glyph glyph-name="umacron" unicode="&#x16b;" horiz-adv-x="1075" 
d="M109 479v443h202v-443q0 -79 9.5 -135.5t32.5 -101t64.5 -66.5t102.5 -22q87 0 144.5 72.5t78.5 189.5v506h203v-922h-182l-10 150h-6q-42 -71 -114.5 -120.5t-166.5 -49.5q-186 0 -272 121.5t-86 377.5zM838 1102h-600v90h600v-90z" />
    <glyph glyph-name="Ubreve" unicode="&#x16c;" horiz-adv-x="1277" 
d="M639 -16q-275 0 -397.5 162t-122.5 489v799h221v-820q0 -237 76 -345.5t227 -108.5q158 -2 231.5 104.5t73.5 349.5v820h211v-799q0 -326 -122.5 -488.5t-397.5 -162.5zM639 1499q-42 0 -82 7.5t-81 27t-72 49t-53 77.5t-27 109h155q7 -69 50.5 -108t109.5 -39
q67 0 110 39t52 108h153q-5 -61 -26.5 -109t-52.5 -77.5t-72.5 -49t-81 -27t-82.5 -7.5z" />
    <glyph glyph-name="ubreve" unicode="&#x16d;" horiz-adv-x="1075" 
d="M109 922h202v-443q0 -79 9.5 -135.5t32.5 -101t64.5 -66.5t102.5 -22q87 0 144.5 72.5t78.5 189.5v506h203v-922h-182l-10 150h-6q-42 -71 -114.5 -120.5t-166.5 -49.5q-186 0 -272 121.5t-86 377.5v443zM236 1337h149q10 -73 48.5 -118t103.5 -45q66 0 104.5 45
t48.5 118h148q-6 -74 -33.5 -130.5t-70.5 -89t-92.5 -48.5t-104.5 -16q-116 0 -202 70.5t-99 213.5z" />
    <glyph glyph-name="Uring" unicode="&#x16e;" horiz-adv-x="1277" 
d="M119 635v799h221v-820q0 -237 76 -345.5t227 -108.5q158 -2 231.5 104.5t73.5 349.5v820h211v-799q0 -326 -122.5 -488.5t-397.5 -162.5t-397.5 162t-122.5 489zM639 1466q-96 0 -162.5 58.5t-66.5 165.5q0 105 67 164t162 59q94 0 161.5 -59t67.5 -164
q0 -107 -66.5 -165.5t-162.5 -58.5zM526 1690q0 -55 31 -88t82 -33q50 0 82.5 33t32.5 88q0 54 -32.5 88t-82.5 34q-51 0 -82 -34t-31 -88z" />
    <glyph glyph-name="uring" unicode="&#x16f;" horiz-adv-x="1075" 
d="M109 922h202v-443q0 -79 9.5 -135.5t32.5 -101t64.5 -66.5t102.5 -22q87 0 144.5 72.5t78.5 189.5v506h203v-922h-182l-10 150h-6q-42 -71 -114.5 -120.5t-166.5 -49.5q-186 0 -272 121.5t-86 377.5v443zM537 965q-95 0 -161.5 59t-66.5 164t67 164t161 59q95 0 162 -59
t67 -164t-67 -164t-162 -59zM537 1307q-49 0 -79 -33t-30 -86t30.5 -86t78.5 -33t80 33t32 86t-31.5 86t-80.5 33z" />
    <glyph glyph-name="Uhungarumlaut" unicode="&#x170;" horiz-adv-x="1277" 
d="M119 635v799h221v-820q0 -237 76 -345.5t227 -108.5q158 -2 231.5 104.5t73.5 349.5v820h211v-799q0 -326 -122.5 -488.5t-397.5 -162.5t-397.5 162t-122.5 489zM743 1536l170 283h211l-235 -283h-146zM393 1536l170 283h211l-235 -283h-146z" />
    <glyph glyph-name="uhungarumlaut" unicode="&#x171;" horiz-adv-x="1075" 
d="M109 922h202v-443q0 -79 9.5 -135.5t32.5 -101t64.5 -66.5t102.5 -22q87 0 144.5 72.5t78.5 189.5v506h203v-922h-182l-10 150h-6q-42 -71 -114.5 -120.5t-166.5 -49.5q-186 0 -272 121.5t-86 377.5v443zM635 1085l211 349h231l-323 -349h-119zM289 1085l211 349h229
l-323 -349h-117z" />
    <glyph glyph-name="Uogonek" unicode="&#x172;" horiz-adv-x="1277" 
d="M629 -16q-269 3 -389.5 165t-120.5 486v799h221v-820q0 -237 76 -345.5t227 -108.5q158 -2 231.5 104.5t73.5 349.5v820h211v-799q0 -289 -96 -449.5t-307 -193.5q-38 -19 -68.5 -63.5t-30.5 -92.5q0 -38 20 -56t46 -18q32 0 53 17v-92q-35 -21 -80 -21q-65 0 -110 34.5
t-45 111.5q0 91 88 172z" />
    <glyph glyph-name="uogonek" unicode="&#x173;" horiz-adv-x="1075" 
d="M109 479v443h202v-443q0 -79 9.5 -135.5t32.5 -101t64.5 -66.5t102.5 -22q87 0 144.5 72.5t78.5 189.5v506h203v-922q-41 0 -86 -52t-45 -112q0 -38 21 -56t47 -18q27 0 53 17v-92q-42 -21 -80 -21q-67 0 -112.5 34.5t-45.5 111.5q0 53 31.5 102.5t77.5 85.5h-43l-10 150
h-6q-42 -71 -114.5 -120.5t-166.5 -49.5q-186 0 -272 121.5t-86 377.5z" />
    <glyph glyph-name="Wcircumflex" unicode="&#x174;" horiz-adv-x="2177" 
d="M539 0l-516 1434h233l418 -1145h6l352 1145h166l338 -1137h6l400 1137h210l-514 -1434h-239l-299 1014h-6l-312 -1014h-243zM934 1536h-150l232 268h164l231 -268h-151l-158 154h-8z" />
    <glyph glyph-name="wcircumflex" unicode="&#x175;" horiz-adv-x="1454" 
d="M20 922h224l215 -717h6l172 700h201l174 -700h6l221 717h195l-299 -922h-252l-152 635h-6l-158 -635h-241zM412 1085l233 320h164l233 -320h-127l-184 209h-6l-186 -209h-127z" />
    <glyph glyph-name="Ycircumflex" unicode="&#x176;" horiz-adv-x="1298" 
d="M72 1434h233l346 -560h6l361 562l207 -2l-467 -732v-702h-226v694zM487 1536h-149l233 268h162l232 -268h-150l-160 154h-8z" />
    <glyph glyph-name="ycircumflex" unicode="&#x177;" horiz-adv-x="956" 
d="M449 -6l-429 928h222l299 -680h6l209 680h182l-279 -867q-90 -275 -232.5 -421t-352.5 -146h-54v160h54q133 0 231.5 96t143.5 250zM303 1085h-127l234 320h161l234 -320h-127l-184 209h-7z" />
    <glyph glyph-name="Ydieresis" unicode="&#x178;" horiz-adv-x="1298" 
d="M72 1434h233l346 -560h6l361 562l207 -2l-467 -732v-702h-226v694zM862 1559q-52 0 -90.5 38t-38.5 89q0 54 38 91.5t91 37.5t91 -37.5t38 -91.5q0 -51 -38.5 -89t-90.5 -38zM436 1559q-54 0 -91.5 37.5t-37.5 89.5q0 54 37.5 91.5t91.5 37.5q52 0 89.5 -37.5t37.5 -91.5
q0 -51 -38 -89t-89 -38z" />
    <glyph glyph-name="Zacute" unicode="&#x179;" horiz-adv-x="1296" 
d="M168 1434h977v-197l-754 -1040v-7h735v-190h-1009v197l757 1042v6h-706v189zM733 1819h211l-235 -283h-146z" />
    <glyph glyph-name="zacute" unicode="&#x17a;" horiz-adv-x="833" 
d="M70 0v152l462 622v6h-430v142h664v-156l-449 -619v-6h449v-141h-696zM485 1092h-125l191 321h219z" />
    <glyph glyph-name="Zdotaccent" unicode="&#x17b;" horiz-adv-x="1296" 
d="M117 0v197l757 1042v6h-706v189h977v-197l-754 -1040v-7h735v-190h-1009zM541 1686q0 54 37.5 91.5t91.5 37.5q52 0 89.5 -37.5t37.5 -91.5q0 -51 -38 -89t-89 -38q-54 0 -91.5 37.5t-37.5 89.5z" />
    <glyph glyph-name="zdotaccent" unicode="&#x17c;" horiz-adv-x="833" 
d="M70 0v152l462 622v6h-430v142h664v-156l-449 -619v-6h449v-141h-696zM438 1096q-51 0 -88 36.5t-37 86.5q0 52 37 88t88 36q50 0 86.5 -36t36.5 -88q0 -49 -36.5 -86t-86.5 -37z" />
    <glyph glyph-name="Zcaron" unicode="&#x17d;" horiz-adv-x="1296" 
d="M117 0v197l757 1042v6h-706v189h977v-197l-754 -1040v-7h735v-190h-1009zM340 1804h152l159 -151h8l158 151h150l-232 -268h-162z" />
    <glyph glyph-name="zcaron" unicode="&#x17e;" horiz-adv-x="827" 
d="M70 0v152l462 622v6h-430v142h664v-156l-449 -619v-6h449v-141h-696zM106 1405h127l185 -207h6l184 207h127l-233 -320h-162z" />
    <glyph glyph-name="longs" unicode="&#x17f;" horiz-adv-x="624" 
d="M178 1051q0 244 104.5 364.5t278.5 120.5q115 0 201 -37v-166q-86 37 -162 37q-117 0 -168 -91t-51 -265v-1014h-203v1051z" />
    <glyph glyph-name="uni018F" unicode="&#x18f;" horiz-adv-x="1476" 
d="M707 -8q-270 0 -427 201t-137 530h936q-2 101 -34 194t-89.5 167.5t-148.5 119.5t-201 45q-97 0 -184 -26.5t-146 -61.5l-65 156q202 127 444 127q299 0 484.5 -205.5t185.5 -550.5q0 -166 -48.5 -300t-132.5 -219.5t-196 -131t-241 -45.5zM1073 561h-698q3 -159 91 -260
t232 -102q156 0 264 103t111 259z" />
    <glyph glyph-name="florin" unicode="&#x192;" horiz-adv-x="700" 
d="M-205 -307q90 -37 164 -37q117 0 168 91t51 265v768h-141v127l141 15v129q0 244 104.5 364.5t278.5 120.5q115 0 201 -37v-166q-86 37 -162 37q-117 0 -168 -91t-51 -265v-92h276v-142h-276v-805q0 -244 -105 -364.5t-280 -120.5q-111 0 -201 37v166z" />
    <glyph glyph-name="uni019D" unicode="&#x19d;" horiz-adv-x="1382" 
d="M-297 -467l33 168q31 -12 89.5 -22.5t102.5 -10.5q122 -2 177 69t55 253v1444h209l637 -1049h6v1049h211v-1434h-213l-633 1020h-6v-1030q0 -254 -103 -376t-340 -122q-51 0 -122 13.5t-103 27.5z" />
    <glyph glyph-name="Gcaron" unicode="&#x1e6;" horiz-adv-x="1374" 
d="M817 -20q-318 0 -508.5 202.5t-189.5 554.5q1 220 92.5 381.5t250 243.5t365.5 82q239 0 449 -96l-72 -168q-171 82 -364 82q-223 0 -354.5 -139t-131.5 -386q-1 -271 124.5 -423t338.5 -152q138 0 270 63v346h-296v162h485v-624q-103 -60 -224.5 -94.5t-234.5 -34.5z
M496 1804h151l160 -151h8l158 151h149l-229 -268h-164z" />
    <glyph glyph-name="gcaron" unicode="&#x1e7;" horiz-adv-x="1093" 
d="M494 -512q-203 0 -319 72.5t-116 203.5q0 145 174 234q-129 57 -129 182q0 62 38.5 114t99.5 81q-101 84 -101 235q0 80 29.5 141.5t72 95.5t99.5 56t103.5 28.5t91.5 6.5q120 0 221 -49q37 69 112 119t172 47v-158q-126 13 -194 -72q84 -84 84 -215q0 -58 -16 -106.5
t-42 -81t-62 -58t-72 -40t-75.5 -24t-70 -12.5t-57.5 -3q-101 0 -181 28q-34 -14 -57 -40.5t-23 -57.5q0 -49 66 -72.5t221 -23.5q258 0 364.5 -70.5t106.5 -224.5q0 -101 -70 -177.5t-192.5 -117.5t-277.5 -41zM549 -53q-66 0 -125 6q-69 -17 -120.5 -59t-51.5 -99
q0 -82 70 -122t184 -40q146 0 239 43t93 129q0 79 -65 110.5t-224 31.5zM537 811q-103 0 -153 -56t-48 -145q0 -90 48.5 -144t152.5 -54q95 0 147.5 56t52.5 142t-53 143.5t-147 57.5zM225 1405h127l185 -207h6l184 207h127l-233 -320h-162z" />
    <glyph glyph-name="uni01EA" unicode="&#x1ea;" horiz-adv-x="1492" 
d="M745 -20q-192 0 -334.5 93t-217 259t-74.5 385q0 218 74.5 384.5t217 259.5t334.5 93q290 0 459.5 -202.5t169.5 -534.5q0 -292 -133 -486.5t-367 -238.5q-38 -20 -67 -64t-29 -92q0 -38 20 -56t46 -18q32 0 53 17v-92q-35 -21 -80 -21q-65 0 -110 34.5t-45 111.5
q0 92 83 168zM745 1264q-188 0 -291.5 -149t-103.5 -398q0 -248 103.5 -397.5t291.5 -149.5t292 150t104 397q0 248 -104 397.5t-292 149.5z" />
    <glyph glyph-name="uni01EB" unicode="&#x1eb;" horiz-adv-x="1058" 
d="M492 -16q-175 13 -289.5 137.5t-114.5 339.5q0 115 35 207.5t96 151t140 89.5t169 31t169.5 -31t141 -89.5t97 -151t35.5 -207.5q0 -199 -100 -321t-257 -150q-38 -20 -66 -63.5t-28 -90.5q0 -38 20 -56t46 -18q32 0 53 17v-92q-35 -21 -80 -21q-67 0 -111.5 34.5
t-44.5 111.5q0 91 89 172zM528 782q-111 0 -171 -88t-60 -233t60 -232.5t171 -87.5q114 0 174 87t60 233t-60 233.5t-174 87.5z" />
    <glyph glyph-name="Aringacute" unicode="&#x1fa;" horiz-adv-x="1325" 
d="M57 0l535 1440h149l527 -1440h-230l-108 303h-557l-111 -303h-205zM662 1466q-96 0 -162 58.5t-66 165.5q0 105 67 164t161 59q97 0 161 -58l217 162l101 -123l-258 -139q8 -27 8 -65q0 -107 -66.5 -165.5t-162.5 -58.5zM428 465h449l-218 602h-6zM549 1690
q0 -55 31.5 -88t81.5 -33q52 0 84 33t32 88q0 54 -32.5 88t-83.5 34t-82 -34t-31 -88z" />
    <glyph glyph-name="aringacute" unicode="&#x1fb;" horiz-adv-x="997" 
d="M76 250q0 104 52.5 179t134.5 109.5t183 34.5q97 0 218 -41v31q-9 219 -224 219q-118 0 -239 -80l-66 134q172 106 348 106q197 0 290 -99t93 -300v-363q0 -110 43 -180h-204q-25 42 -31 94h-6q-114 -114 -279 -114q-146 0 -229.5 76t-83.5 194zM264 1188q0 105 67 164
t161 59q5 0 15 -1t15 -1l137 229h220l-242 -272q84 -63 84 -178q0 -105 -67 -164t-162 -59t-161.5 59t-66.5 164zM279 272q0 -70 45 -108.5t125 -38.5q63 0 124.5 38t92.5 85v147q-25 20 -74.5 35.5t-99.5 15.5q-90 0 -151.5 -46t-61.5 -128zM383 1188q0 -53 30.5 -86
t78.5 -33t80 33t32 86t-31.5 86t-80.5 33t-79 -33t-30 -86z" />
    <glyph glyph-name="AEacute" unicode="&#x1fc;" horiz-adv-x="1951" 
d="M57 0l799 1434h971v-185h-635v-428h573v-170h-573v-467h635v-184h-858v303h-527l-174 -303h-211zM965 1249l-443 -784h447v784h-4zM1337 1536h-145l172 283h209z" />
    <glyph glyph-name="aeacute" unicode="&#x1fd;" horiz-adv-x="1527" 
d="M389 -20q-146 0 -229.5 76t-83.5 194q0 154 106.5 236.5t263.5 82.5h181v6q-8 103 -54 155t-143 52q-120 0 -240 -75l-65 129q183 104 346 104q222 0 289 -147q105 143 289 143q188 0 289.5 -130.5t86.5 -354.5h-598q5 -143 74 -228.5t189 -85.5q70 0 137.5 17.5
t103.5 40.5l47 -127q-127 -84 -315 -84q-104 0 -191 43t-145 125h-6q-53 -68 -139 -120t-193 -52zM279 274q0 -70 45 -109.5t125 -39.5q64 0 128 40.5t95 88.5q-33 81 -33 195h-147q-90 0 -151.5 -46.5t-61.5 -128.5zM1047 791q-90 0 -147.5 -59t-68.5 -154h422
q-3 98 -57.5 155t-148.5 58zM836 1092h-125l192 321h219z" />
    <glyph glyph-name="Oslashacute" unicode="&#x1fe;" horiz-adv-x="1492" 
d="M119 717q0 218 74.5 384.5t217 259.5t334.5 93q191 0 334 -92l68 123h88l-94 -168q113 -97 173 -251.5t60 -348.5q0 -332 -169.5 -534.5t-459.5 -202.5q-177 0 -313 79l-63 -110h-88l88 155q-120 95 -185 253.5t-65 359.5zM475 293l502 889q-94 82 -232 82
q-188 0 -291.5 -149t-103.5 -398q0 -278 125 -424zM532 238q90 -68 213 -68q188 0 292 150t104 397q0 260 -109 405zM799 1536h-146l170 283h211z" />
    <glyph glyph-name="oslashacute" unicode="&#x1ff;" horiz-adv-x="1058" 
d="M276 57q-88 59 -138 161.5t-50 242.5q0 115 35 207.5t96 151t140 89.5t169 31q118 0 215 -51l60 102l61 -33l-61 -108q78 -61 123 -160t45 -229q0 -115 -35.5 -207.5t-97 -151t-141 -89.5t-169.5 -31q-102 0 -192 41l-53 -95l-62 31zM367 217l292 522q-56 43 -131 43
q-111 0 -171 -88t-60 -233q0 -159 70 -244zM709 684l-289 -514q50 -29 108 -29q114 0 174 87t60 233q0 137 -53 223zM444 1092l193 321h217l-285 -321h-125z" />
    <glyph glyph-name="uni0218" unicode="&#x218;" horiz-adv-x="1198" 
d="M575 -14q-125 0 -266.5 38t-240.5 101l96 168q206 -125 405 -125q138 0 226 64.5t88 156.5q0 88 -78.5 144t-257.5 96q-209 49 -314.5 145.5t-105.5 272.5q0 181 137 289t344 108q260 0 467 -123l-96 -166q-194 111 -361 111q-129 0 -198.5 -63.5t-69.5 -149.5
q0 -91 70.5 -142t224.5 -88q118 -29 199 -62.5t142 -82.5t89.5 -117t28.5 -160q-1 -84 -30.5 -154t-80 -117.5t-118 -80.5t-143 -48t-157.5 -15zM422 -281q58 21 87.5 77t12.5 149h142q23 -119 -50 -214.5t-192 -107.5v96z" />
    <glyph glyph-name="uni0219" unicode="&#x219;" horiz-adv-x="882" 
d="M432 -14q-105 0 -196.5 24t-149.5 60l59 139q48 -34 123 -56t152 -22q76 0 122 31.5t46 81.5q0 53 -44.5 85t-154.5 64q-126 34 -197 104t-71 175q0 129 95 198.5t249 69.5q190 0 307 -74l-55 -133q-40 25 -104 42.5t-132 17.5q-74 0 -121 -31.5t-47 -77.5
q0 -52 34.5 -79t109.5 -50q173 -46 249 -117.5t76 -185.5q0 -126 -99.5 -196t-250.5 -70zM264 -281q59 21 88.5 77t12.5 149h143q23 -119 -50 -214.5t-194 -107.5v96z" />
    <glyph glyph-name="uni021A" unicode="&#x21a;" horiz-adv-x="1280" 
d="M94 1249v185h1092v-185h-438v-1249h-222v1249h-432zM723 -55q23 -119 -49 -214.5t-193 -107.5v96q59 21 88.5 77t12.5 149h141z" />
    <glyph glyph-name="uni021B" unicode="&#x21b;" horiz-adv-x="710" 
d="M195 774h-117v119l127 29l51 268h141v-268h246v-148h-246v-452q0 -113 36 -156t95 -43q66 0 107 33v-113q-20 -20 -78 -36.5t-102 -16.5q-260 0 -260 301v483zM524 -55q23 -119 -49.5 -214.5t-191.5 -107.5v96q58 21 87.5 77t12.5 149h141z" />
    <glyph glyph-name="uni0232" unicode="&#x232;" horiz-adv-x="1298" 
d="M72 1434h233l346 -560h6l361 562l207 -2l-467 -732v-702h-226v694zM260 1593v90h778v-90h-778z" />
    <glyph glyph-name="uni0233" unicode="&#x233;" horiz-adv-x="956" 
d="M449 -6l-429 928h222l299 -680h6l209 680h182l-279 -867q-90 -275 -232.5 -421t-352.5 -146h-54v160h54q133 0 231.5 96t143.5 250zM776 1102h-598v90h598v-90z" />
    <glyph glyph-name="uni0237" unicode="&#x237;" horiz-adv-x="464" 
d="M-106 -510h-37v172h37q145 0 201.5 80.5t56.5 280.5v899h202v-914q0 -128 -22 -219.5t-73.5 -161t-142 -103.5t-222.5 -34z" />
    <glyph glyph-name="uni0259" unicode="&#x259;" horiz-adv-x="1034" 
d="M483 0q-186 0 -290 137.5t-89 360.5h627q-4 139 -81 222t-199 83q-71 0 -143.5 -18.5t-108.5 -41.5l-49 127q131 84 327 84q119 0 219.5 -53.5t165 -164t64.5 -259.5q0 -115 -35.5 -207t-97 -150t-141 -89t-169.5 -31zM723 371h-447q3 -99 60 -160t149 -61
q100 -1 162.5 61.5t75.5 159.5z" />
    <glyph glyph-name="uni0272" unicode="&#x272;" horiz-adv-x="1093" 
d="M350 29q0 -126 -24 -222t-76 -168t-140.5 -109.5t-211.5 -37.5v166q133 0 191 92t58 293v879h183l10 -150h6q41 73 113.5 121.5t167.5 48.5q186 0 272 -112.5t86 -348.5v-481h-203v449q0 157 -46 238t-163 81q-86 0 -143.5 -72.5t-79.5 -187.5v-479z" />
    <glyph glyph-name="circumflex" unicode="&#x2c6;" horiz-adv-x="931" 
d="M152 1085l233 320h164l233 -320h-127l-184 209h-6l-186 -209h-127z" />
    <glyph glyph-name="caron" unicode="&#x2c7;" horiz-adv-x="931" 
d="M385 1085l-233 320h127l184 -207h6l184 207h127l-233 -320h-162z" />
    <glyph glyph-name="breve" unicode="&#x2d8;" horiz-adv-x="1058" 
d="M227 1337h150q10 -73 48 -118t103 -45q66 0 105 45t49 118h147q-6 -74 -33.5 -130.5t-70.5 -89t-92.5 -48.5t-104.5 -16q-116 0 -202 70.5t-99 213.5z" />
    <glyph glyph-name="dotaccent" unicode="&#x2d9;" horiz-adv-x="503" 
d="M129 1219q0 52 36 88t87 36t87 -36t36 -88q0 -50 -36 -86.5t-87 -36.5t-87 36.5t-36 86.5z" />
    <glyph glyph-name="ring" unicode="&#x2da;" horiz-adv-x="645" 
d="M319 965q-95 0 -161 59t-66 164t66 164t161 59q94 0 161 -59t67 -164t-67 -164t-161 -59zM209 1188q0 -54 30 -86.5t80 -32.5q48 0 79.5 33t31.5 86q0 52 -31.5 85.5t-79.5 33.5q-49 0 -79.5 -33t-30.5 -86z" />
    <glyph glyph-name="ogonek" unicode="&#x2db;" horiz-adv-x="499" 
d="M152 -188q0 72 56 138t116 87h75v-37q-42 0 -86.5 -52t-44.5 -112q0 -38 21 -56t47 -18q28 0 53 17v-92q-42 -21 -80 -21q-67 0 -112 34.5t-45 111.5z" />
    <glyph glyph-name="tilde" unicode="&#x2dc;" horiz-adv-x="944" 
d="M123 1114q14 96 65.5 161.5t145.5 65.5q40 0 72 -13.5t53 -32.5t39.5 -37.5t41 -32t48.5 -13.5q46 0 71 35.5t31 79.5h117q-10 -95 -67 -162t-152 -67q-39 0 -71 13t-53 31t-40 36.5t-41.5 31.5t-48.5 13q-77 0 -96 -109h-115z" />
    <glyph glyph-name="hungarumlaut" unicode="&#x2dd;" horiz-adv-x="1026" 
d="M217 1085l211 349h231l-323 -349h-119zM565 1085l211 349h230l-324 -349h-117z" />
    <glyph glyph-name="uni0326" unicode="&#x326;" horiz-adv-x="544" 
d="M403 -55q23 -119 -49.5 -214.5t-191.5 -107.5v96q58 21 87.5 77t12.5 149h141z" />
    <glyph glyph-name="uni0394" unicode="&#x394;" horiz-adv-x="1339" 
d="M86 0v113l508 1327h162l497 -1327v-113h-1167zM293 152h717l-357 966h-6z" />
    <glyph glyph-name="uni03A9" unicode="&#x3a9;" horiz-adv-x="1480" 
d="M670 154v-154h-594v152h393q-350 358 -350 688q0 280 171.5 447t454.5 167q284 0 456.5 -167t172.5 -447q0 -179 -98.5 -355t-253.5 -333h383v-152h-592v152q153 147 245.5 324t92.5 341q0 207 -110.5 333t-295.5 126t-295 -126t-110 -333q0 -163 89.5 -338.5
t240.5 -324.5z" />
    <glyph glyph-name="uni03BC" unicode="&#x3bc;" horiz-adv-x="1120" 
d="M311 -410h-202v1332h202v-437q0 -331 232 -331q93 0 159 76.5t89 191.5v500h200v-922h-176l-12 150h-6q-35 -71 -103.5 -120.5t-163.5 -49.5q-144 0 -215 88h-4v-478z" />
    <glyph glyph-name="pi" unicode="&#x3c0;" horiz-adv-x="1191" 
d="M53 895l166 14h719q131 0 180 27v-135q-20 -14 -73 -23.5t-107 -9.5h-16v-494q0 -90 38 -124.5t101 -34.5v-133q-56 -9 -80 -9q-50 0 -93 13.5t-82.5 43t-62 85.5t-22.5 133v520h-336v-209q0 -166 -14.5 -340.5t-26.5 -230.5h-199q14 55 32 230.5t18 340.5v209h-142v127z
" />
    <glyph glyph-name="Wgrave" unicode="&#x1e80;" horiz-adv-x="2177" 
d="M539 0l-516 1434h233l418 -1145h6l352 1145h166l338 -1137h6l400 1137h210l-514 -1434h-239l-299 1014h-6l-312 -1014h-243zM1024 1536l-236 283h211l170 -283h-145z" />
    <glyph glyph-name="wgrave" unicode="&#x1e81;" horiz-adv-x="1454" 
d="M20 922h224l215 -717h6l172 700h201l174 -700h6l221 717h195l-299 -922h-252l-152 635h-6l-158 -635h-241zM659 1092l-284 321h219l190 -321h-125z" />
    <glyph glyph-name="Wacute" unicode="&#x1e82;" horiz-adv-x="2177" 
d="M539 0l-516 1434h233l418 -1145h6l352 1145h166l338 -1137h6l400 1137h210l-514 -1434h-239l-299 1014h-6l-312 -1014h-243zM1192 1536h-145l170 283h210z" />
    <glyph glyph-name="wacute" unicode="&#x1e83;" horiz-adv-x="1454" 
d="M20 922h224l215 -717h6l172 700h201l174 -700h6l221 717h195l-299 -922h-252l-152 635h-6l-158 -635h-241zM674 1092l190 321h219l-284 -321h-125z" />
    <glyph glyph-name="Wdieresis" unicode="&#x1e84;" horiz-adv-x="2177" 
d="M539 0l-516 1434h233l418 -1145h6l352 1145h166l338 -1137h6l400 1137h210l-514 -1434h-239l-299 1014h-6l-312 -1014h-243zM1186 1686q0 54 37.5 91.5t91.5 37.5q53 0 90 -37.5t37 -91.5q0 -51 -37.5 -89t-89.5 -38q-53 0 -91 37.5t-38 89.5zM889 1559q-53 0 -91 37.5
t-38 89.5q0 54 37.5 91.5t91.5 37.5q51 0 89 -37.5t38 -91.5q0 -51 -38 -89t-89 -38z" />
    <glyph glyph-name="wdieresis" unicode="&#x1e85;" horiz-adv-x="1454" 
d="M326 0l-306 922h224l215 -717h6l172 700h201l174 -700h6l221 717h195l-299 -922h-252l-152 635h-6l-158 -635h-241zM793 1219q0 52 35.5 88t86.5 36t87 -36t36 -88q0 -50 -36 -86.5t-87 -36.5t-86.5 36.5t-35.5 86.5zM551 1096q-51 0 -87 36.5t-36 86.5q0 52 36 88t87 36
q50 0 86.5 -36t36.5 -88q0 -49 -37 -86t-86 -37z" />
    <glyph glyph-name="Germandbls" unicode="&#x1e9e;" horiz-adv-x="1374" 
d="M160 0v1044q0 169 99.5 279.5t268.5 110.5h670v-158q-8 -7 -39.5 -34t-44.5 -39t-41 -39t-42 -44t-34 -44.5t-30 -49.5t-17.5 -49.5t-7.5 -54.5q0 -47 21.5 -90.5t56 -78.5t76.5 -71t83.5 -75t76 -82t56 -101.5t21.5 -124.5q0 -134 -114 -224.5t-273 -90.5
q-107 0 -202.5 21t-151.5 52l63 170q43 -27 112.5 -47t133.5 -20q90 0 147.5 51.5t57.5 114.5q0 43 -20 83.5t-51.5 74.5t-70 68.5t-77.5 72t-70.5 77.5t-51.5 92t-20 109q0 92 63.5 181.5t154.5 164.5v6h-394q-89 0 -138.5 -60t-49.5 -151v-1044h-221z" />
    <glyph glyph-name="uni1EA0" unicode="&#x1ea0;" horiz-adv-x="1325" 
d="M57 0l535 1440h149l527 -1440h-230l-108 303h-557l-111 -303h-205zM653 1067l-225 -602h449l-218 602h-6zM655 -367q-53 0 -91 38.5t-38 90.5q0 54 37.5 91.5t91.5 37.5q51 0 89 -37.5t38 -91.5q0 -51 -38 -90t-89 -39z" />
    <glyph glyph-name="uni1EA1" unicode="&#x1ea1;" horiz-adv-x="997" 
d="M76 250q0 104 52.5 179t134.5 109.5t183 34.5q97 0 218 -41v31q-9 219 -224 219q-118 0 -239 -80l-66 134q172 106 348 106q197 0 290 -99t93 -300v-363q0 -110 43 -180h-204q-25 42 -31 94h-6q-114 -114 -279 -114q-146 0 -229.5 76t-83.5 194zM492 446
q-90 0 -151.5 -46t-61.5 -128q0 -70 45 -108.5t125 -38.5q63 0 124.5 38t92.5 85v147q-25 20 -74.5 35.5t-99.5 15.5zM381 -236q0 52 36.5 88.5t88.5 36.5q50 0 86.5 -36.5t36.5 -88.5q0 -49 -36.5 -85.5t-86.5 -36.5q-52 0 -88.5 36t-36.5 86z" />
    <glyph glyph-name="uni1EB8" unicode="&#x1eb8;" horiz-adv-x="1142" 
d="M160 0v1434h858v-185h-637v-428h575v-170h-575v-467h637v-184h-858zM594 -367q-53 0 -91 38.5t-38 90.5q0 54 37.5 91.5t91.5 37.5q52 0 89.5 -37.5t37.5 -91.5q0 -51 -38 -90t-89 -39z" />
    <glyph glyph-name="uni1EB9" unicode="&#x1eb9;" horiz-adv-x="1032" 
d="M109 461q0 115 35.5 207t96.5 150t140.5 89t169.5 31q186 0 290 -137t89 -361h-627q4 -139 81 -221t200 -82q71 0 144 17.5t108 40.5l47 -127q-127 -84 -326 -84q-88 0 -168.5 31.5t-143 90.5t-99.5 151t-37 204zM547 791q-99 0 -162 -64t-74 -160h447q-3 99 -60.5 161
t-150.5 63zM547 -358q-52 0 -88.5 36t-36.5 86q0 52 36 88.5t89 36.5q50 0 86.5 -36.5t36.5 -88.5q0 -49 -36.5 -85.5t-86.5 -36.5z" />
    <glyph glyph-name="uni1EBC" unicode="&#x1ebc;" horiz-adv-x="1142" 
d="M160 0v1434h858v-185h-637v-428h575v-170h-575v-467h637v-184h-858zM256 1556q12 93 65 154.5t148 61.5q48 0 87 -18.5t59.5 -40t49 -40t58.5 -18.5q46 0 70.5 29.5t31.5 72.5h117q-8 -95 -63 -157t-152 -62q-40 0 -72.5 11.5t-54.5 28t-41 33.5t-42 28.5t-48 11.5
q-47 0 -68 -26t-28 -69h-117z" />
    <glyph glyph-name="uni1EBD" unicode="&#x1ebd;" horiz-adv-x="1032" 
d="M109 461q0 115 35.5 207t96.5 150t140.5 89t169.5 31q186 0 290 -137t89 -361h-627q4 -139 81 -221t200 -82q71 0 144 17.5t108 40.5l47 -127q-127 -84 -326 -84q-88 0 -168.5 31.5t-143 90.5t-99.5 151t-37 204zM203 1114q14 96 65.5 161.5t145.5 65.5q40 0 72 -13.5
t53 -32.5t39.5 -37.5t41 -32t48.5 -13.5q46 0 71 35t33 80h115q-8 -94 -66 -161.5t-153 -67.5q-39 0 -71 13t-53 31t-40 36.5t-41.5 31.5t-48.5 13q-78 0 -97 -109h-114zM311 567h447q-3 99 -60.5 161t-150.5 63q-99 0 -162 -64t-74 -160z" />
    <glyph glyph-name="uni1ECA" unicode="&#x1eca;" horiz-adv-x="540" 
d="M160 0v1434h221v-1434h-221zM145 -238q0 54 38 91.5t91 37.5t91 -37.5t38 -91.5q0 -51 -38.5 -90t-90.5 -39t-90.5 39t-38.5 90z" />
    <glyph glyph-name="uni1ECB" unicode="&#x1ecb;" horiz-adv-x="505" 
d="M356 0h-202v922h202v-922zM121 1323q0 56 38 95.5t93 39.5q54 0 93.5 -40t39.5 -95q0 -52 -39.5 -90.5t-93.5 -38.5q-55 0 -93 38t-38 91zM254 -358q-51 0 -88 36t-37 86q0 52 37 88.5t88 36.5q50 0 86.5 -36.5t36.5 -88.5q0 -49 -36.5 -85.5t-86.5 -36.5z" />
    <glyph glyph-name="uni1ECC" unicode="&#x1ecc;" horiz-adv-x="1492" 
d="M745 -20q-192 0 -334.5 93t-217 259.5t-74.5 384.5t74.5 384.5t217 259.5t334.5 93q290 0 459.5 -202.5t169.5 -534.5t-169.5 -534.5t-459.5 -202.5zM350 717q0 -248 103.5 -397.5t291.5 -149.5t292 150t104 397q0 248 -104 397.5t-292 149.5t-291.5 -149t-103.5 -398z
M750 -375q-53 0 -91 38.5t-38 90.5q0 54 37.5 91.5t91.5 37.5q52 0 89.5 -37.5t37.5 -91.5q0 -51 -38 -90t-89 -39z" />
    <glyph glyph-name="uni1ECD" unicode="&#x1ecd;" horiz-adv-x="1058" 
d="M528 -18q-90 0 -169 31t-140 89.5t-96 151t-35 207.5t35 207.5t96 151t140 89.5t169 31t169.5 -31t141 -89.5t97 -151t35.5 -207.5t-35.5 -207.5t-97 -151t-141 -89.5t-169.5 -31zM297 461q0 -145 60 -232.5t171 -87.5q114 0 174 87t60 233t-60 233.5t-174 87.5
q-111 0 -171 -88t-60 -233zM528 -362q-51 0 -86.5 36t-35.5 86q0 52 35.5 88.5t86.5 36.5t87 -36.5t36 -88.5q0 -50 -36 -86t-87 -36z" />
    <glyph glyph-name="uni1EE4" unicode="&#x1ee4;" horiz-adv-x="1277" 
d="M119 635v799h221v-820q0 -237 76 -345.5t227 -108.5q158 -2 231.5 104.5t73.5 349.5v820h211v-799q0 -326 -122.5 -488.5t-397.5 -162.5t-397.5 162t-122.5 489zM520 -246q0 54 37.5 91.5t91.5 37.5q51 0 89 -37.5t38 -91.5q0 -51 -38 -90t-89 -39q-53 0 -91 38.5
t-38 90.5z" />
    <glyph glyph-name="uni1EE5" unicode="&#x1ee5;" horiz-adv-x="1075" 
d="M109 922h202v-443q0 -79 9.5 -135.5t32.5 -101t64.5 -66.5t102.5 -22q87 0 144.5 72.5t78.5 189.5v506h203v-922h-182l-10 150h-6q-42 -71 -114.5 -120.5t-166.5 -49.5q-186 0 -272 121.5t-86 377.5v443zM545 -362q-52 0 -88.5 36t-36.5 86q0 52 36 88.5t89 36.5
q50 0 85.5 -36.5t35.5 -88.5q0 -50 -36 -86t-85 -36z" />
    <glyph glyph-name="Ygrave" unicode="&#x1ef2;" horiz-adv-x="1298" 
d="M72 1434h233l346 -560h6l361 562l207 -2l-467 -732v-702h-226v694zM332 1819h211l170 -283h-146z" />
    <glyph glyph-name="ygrave" unicode="&#x1ef3;" horiz-adv-x="956" 
d="M449 -6l-429 928h222l299 -680h6l209 680h182l-279 -867q-90 -275 -232.5 -421t-352.5 -146h-54v160h54q133 0 231.5 96t143.5 250zM432 1092l-287 321h220l192 -321h-125z" />
    <glyph glyph-name="uni1EF8" unicode="&#x1ef8;" horiz-adv-x="1298" 
d="M532 694l-460 740h233l346 -560h6l361 562l207 -2l-467 -732v-702h-226v694zM422 1556h-117q12 93 65 154.5t148 61.5q48 0 87 -18.5t59.5 -40t49 -40t58.5 -18.5q46 0 70.5 29.5t31.5 72.5h117q-8 -95 -63 -157t-152 -62q-40 0 -72.5 11.5t-54.5 28t-41 33.5t-42 28.5
t-48 11.5q-47 0 -68 -26t-28 -69z" />
    <glyph glyph-name="uni1EF9" unicode="&#x1ef9;" horiz-adv-x="956" 
d="M449 -6l-429 928h222l299 -680h6l209 680h182l-279 -867q-90 -275 -232.5 -421t-352.5 -146h-54v160h54q133 0 231.5 96t143.5 250zM135 1114q14 96 65.5 161.5t145.5 65.5q40 0 72 -13.5t53 -32.5t39.5 -37.5t41 -32t48.5 -13.5q46 0 71.5 35.5t33.5 79.5h114
q-8 -94 -66 -161.5t-153 -67.5q-39 0 -71 13t-53 31t-40 36.5t-41.5 31.5t-48.5 13q-77 0 -96 -109h-115z" />
    <glyph glyph-name="endash" unicode="&#x2013;" horiz-adv-x="1204" 
d="M104 453v116h996v-116h-996z" />
    <glyph glyph-name="emdash" unicode="&#x2014;" horiz-adv-x="1871" 
d="M104 453v116h1663v-116h-1663z" />
    <glyph glyph-name="quoteleft" unicode="&#x2018;" horiz-adv-x="487" 
d="M256 1042h-150q0 259 127 494h105q-82 -230 -82 -494z" />
    <glyph glyph-name="quoteright" unicode="&#x2019;" horiz-adv-x="487" 
d="M227 1042h-104q82 230 82 494h149q0 -259 -127 -494z" />
    <glyph glyph-name="quotesinglbase" unicode="&#x201a;" horiz-adv-x="487" 
d="M227 -289h-104q82 230 82 494h149q0 -259 -127 -494z" />
    <glyph glyph-name="quotedblleft" unicode="&#x201c;" horiz-adv-x="821" 
d="M590 1042h-148q0 145 38 279t87 225h105q-32 -90 -57 -224t-25 -280zM256 1042h-150q0 259 127 494h105q-82 -230 -82 -494z" />
    <glyph glyph-name="quotedblright" unicode="&#x201d;" horiz-adv-x="821" 
d="M227 1032h-104q32 90 57 224t25 280h149q0 -145 -38.5 -278.5t-88.5 -225.5zM457 1042q82 230 82 494h149q0 -254 -125 -494h-106z" />
    <glyph glyph-name="quotedblbase" unicode="&#x201e;" horiz-adv-x="847" 
d="M227 -299h-104q32 90 57 224t25 280h149q0 -145 -38.5 -278.5t-88.5 -225.5zM457 -289q82 230 82 494h149q0 -254 -125 -494h-106z" />
    <glyph glyph-name="dagger" unicode="&#x2020;" horiz-adv-x="710" 
d="M68 795v82h241v557h94v-557h242v-82h-242v-1041h-94v1041h-241z" />
    <glyph glyph-name="daggerdbl" unicode="&#x2021;" horiz-adv-x="710" 
d="M309 256h-241v82h241v514h-241v82h241v500h94v-500h242v-82h-242v-514h242v-82h-242v-500h-94v500z" />
    <glyph glyph-name="bullet" unicode="&#x2022;" horiz-adv-x="583" 
d="M121 686q0 70 50.5 121t121.5 51q69 0 120.5 -51t51.5 -121q0 -69 -51.5 -120.5t-120.5 -51.5q-70 0 -121 51.5t-51 120.5z" />
    <glyph glyph-name="ellipsis" unicode="&#x2026;" horiz-adv-x="1462" 
d="M733 -14q-55 0 -95 39.5t-40 93.5q0 55 39.5 94t95.5 39q53 0 92 -39t39 -94q0 -54 -39 -93.5t-92 -39.5zM1077 119q0 55 39.5 94t95.5 39q53 0 92 -39t39 -94q0 -54 -39 -93.5t-92 -39.5q-55 0 -95 39.5t-40 93.5zM119 119q0 55 39.5 94t95.5 39q53 0 92 -39t39 -94
q0 -54 -39 -93.5t-92 -39.5q-55 0 -95 39.5t-40 93.5z" />
    <glyph glyph-name="perthousand" unicode="&#x2030;" horiz-adv-x="1875" 
d="M1040 -16q-131 0 -208.5 90t-77.5 248q0 157 78 248.5t208 91.5q153 0 226 -121q79 121 231 121q129 0 205 -91t76 -249q0 -159 -75.5 -248.5t-205.5 -89.5q-152 0 -231 118q-73 -118 -226 -118zM102 1110q0 157 78.5 248.5t208.5 91.5q129 0 205 -91t76 -249
q0 -157 -75.5 -246.5t-205.5 -89.5q-131 0 -209 89t-78 247zM1040 573q-80 0 -128 -67t-48 -184q0 -118 48 -184t128 -66q79 0 123.5 65.5t44.5 184.5t-44.5 185t-123.5 66zM389 1362q-79 0 -127.5 -67.5t-48.5 -184.5q0 -116 48.5 -182t127.5 -66q80 0 124.5 65t43.5 183
q0 119 -44.5 185.5t-123.5 66.5zM1321 322q0 -118 48 -184t128 -66q79 0 123.5 65.5t44.5 184.5t-44.5 185t-123.5 66q-80 0 -128 -67t-48 -184zM344 20l641 1393h102l-641 -1393h-102z" />
    <glyph glyph-name="guilsinglleft" unicode="&#x2039;" horiz-adv-x="681" 
d="M209 459l362 -428h-96l-362 413v37l364 412h94l-362 -416v-18z" />
    <glyph glyph-name="guilsinglright" unicode="&#x203a;" horiz-adv-x="681" 
d="M84 31l365 428v18l-365 416h96l363 -412v-37l-361 -413h-98z" />
    <glyph glyph-name="fraction" unicode="&#x2044;" horiz-adv-x="161" 
d="M-283 0h-94l811 1331h88z" />
    <glyph glyph-name="uni2070" unicode="&#x2070;" horiz-adv-x="571" 
d="M291 911q-116 0 -180 83.5t-64 226.5q0 137 65 222t179 85q111 0 173 -85t62 -222q0 -144 -61 -227t-174 -83zM160 1221q0 -102 33 -157.5t96 -55.5q125 0 125 213t-125 213q-62 0 -95.5 -56t-33.5 -157z" />
    <glyph glyph-name="uni2074" unicode="&#x2074;" horiz-adv-x="559" 
d="M55 1024v74l305 411h84v-405h68v-80h-68v-106h-104v106h-285zM160 1104h180v248h-2l-178 -244v-4z" />
    <glyph glyph-name="uni2075" unicode="&#x2075;" horiz-adv-x="546" 
d="M264 905q-125 0 -223 76l47 80q30 -22 48.5 -33.5t50.5 -23t65 -11.5q67 0 105 34.5t38 92.5q0 117 -114 117q-71 0 -125 -39l-56 41l15 272h348v-90h-268l-9 -135l4 -2q60 31 125 31q38 0 70.5 -10t61 -31.5t45 -61t16.5 -94.5q0 -73 -38 -123t-91 -70t-115 -20z" />
    <glyph glyph-name="uni2076" unicode="&#x2076;" horiz-adv-x="557" 
d="M289 913q-113 0 -177.5 73.5t-64.5 195.5q0 170 74.5 258t193.5 88q95 0 185 -58l-56 -73q-67 43 -125 43q-74 0 -115.5 -57t-43.5 -132h4q19 26 57 45t82 19q95 0 150 -55t55 -140q0 -89 -58 -148t-161 -59zM170 1124q0 -62 35 -97.5t84 -35.5q47 0 79.5 33t32.5 96
t-32.5 94t-79.5 31q-51 0 -85 -31.5t-34 -89.5z" />
    <glyph glyph-name="uni2077" unicode="&#x2077;" horiz-adv-x="495" 
d="M336 1415h-289v94h406v-77q-93 -150 -140.5 -253t-87.5 -259h-114q47 158 93 255t132 236v4z" />
    <glyph glyph-name="uni2078" unicode="&#x2078;" horiz-adv-x="559" 
d="M281 911q-110 0 -172 46.5t-62 123.5q0 115 113 160v4q-76 42 -76 129q0 67 54 110.5t141 43.5q89 0 142.5 -43.5t53.5 -110.5q0 -88 -74 -129v-4q111 -41 111 -160q0 -77 -61.5 -123.5t-169.5 -46.5zM279 1202q-55 0 -87 -30t-32 -85q0 -50 30.5 -77t88.5 -27
q120 0 120 104q0 55 -32 85t-88 30zM186 1374q0 -42 25.5 -68t67.5 -26q46 0 70 25.5t24 68.5q0 35 -24.5 60.5t-69.5 25.5q-43 0 -67 -25.5t-26 -60.5z" />
    <glyph glyph-name="uni2079" unicode="&#x2079;" horiz-adv-x="557" 
d="M49 1321q0 89 58 148t161 59q113 0 177.5 -74t64.5 -197q0 -169 -74.5 -256.5t-193.5 -87.5q-101 0 -185 58l56 71q1 0 11.5 -6.5t13 -8t13 -7t15.5 -7t15 -5.5t18 -5t18.5 -2.5t20.5 -1.5q74 0 115.5 57.5t43.5 133.5h-4q-19 -26 -57 -45t-82 -19q-95 0 -150 55t-55 140
zM156 1321q0 -63 32.5 -95t79.5 -32q50 0 84.5 32t34.5 91q0 60 -35 95.5t-84 35.5q-47 0 -79.5 -32.5t-32.5 -94.5z" />
    <glyph glyph-name="uni2080" unicode="&#x2080;" horiz-adv-x="571" 
d="M291 -113q-116 0 -180 83.5t-64 226.5q0 137 65 222t179 85q111 0 173 -85t62 -222q0 -144 -61 -227t-174 -83zM160 197q0 -102 33 -157.5t96 -55.5q125 0 125 213t-125 213q-62 0 -95.5 -56t-33.5 -157z" />
    <glyph glyph-name="uni2081" unicode="&#x2081;" horiz-adv-x="401" 
d="M82 293l-45 74l182 118h76v-587h-109v460h-4z" />
    <glyph glyph-name="uni2082" unicode="&#x2082;" horiz-adv-x="550" 
d="M61 367q87 141 224 141q84 0 136 -45t52 -121q0 -42 -18.5 -82t-38.5 -63.5t-51 -53.5l-144 -147v-4h266v-94h-417v84l209 206q26 26 39 40t30 45.5t17 60.5q0 37 -24 59.5t-65 22.5q-32 0 -59 -16t-41 -32.5t-35 -48.5z" />
    <glyph glyph-name="uni2083" unicode="&#x2083;" horiz-adv-x="550" 
d="M264 -111q-129 0 -207 64l47 78q74 -54 156 -54q54 0 87.5 24.5t33.5 70.5t-35 71t-96 25h-60v74h60q57 0 87 24.5t30 65.5q-3 78 -97 78q-73 0 -147 -58l-45 74q90 74 198 74q87 0 139 -37.5t52 -116.5q0 -51 -22 -80t-62 -49v-4q106 -43 106 -150q0 -49 -20.5 -84.5
t-55 -54t-71.5 -27t-78 -8.5z" />
    <glyph glyph-name="uni2084" unicode="&#x2084;" horiz-adv-x="559" 
d="M55 0v74l305 411h84v-405h68v-80h-68v-106h-104v106h-285zM160 80h180v248h-2l-178 -244v-4z" />
    <glyph glyph-name="uni2085" unicode="&#x2085;" horiz-adv-x="546" 
d="M264 -119q-125 0 -223 76l47 80q30 -22 48.5 -33.5t50.5 -23t65 -11.5q67 0 105 34.5t38 92.5q0 117 -114 117q-71 0 -125 -39l-56 41l15 272h348v-90h-268l-9 -135l4 -2q60 31 125 31q38 0 70.5 -10t61 -31.5t45 -61t16.5 -94.5q0 -73 -38 -123t-91 -70t-115 -20z" />
    <glyph glyph-name="uni2086" unicode="&#x2086;" horiz-adv-x="557" 
d="M289 -111q-113 0 -177.5 73.5t-64.5 195.5q0 170 74.5 258t193.5 88q95 0 185 -58l-56 -73q-67 43 -125 43q-74 0 -115.5 -57t-43.5 -132h4q19 26 57 45t82 19q95 0 150 -55t55 -140q0 -89 -58 -148t-161 -59zM170 100q0 -62 35 -97.5t84 -35.5q47 0 79.5 33t32.5 96
t-32.5 94t-79.5 31q-51 0 -85 -31.5t-34 -89.5z" />
    <glyph glyph-name="uni2087" unicode="&#x2087;" horiz-adv-x="495" 
d="M336 391h-289v94h406v-77q-93 -150 -140.5 -253t-87.5 -259h-114q47 158 93 255t132 236v4z" />
    <glyph glyph-name="uni2088" unicode="&#x2088;" horiz-adv-x="559" 
d="M281 -113q-111 0 -172.5 46t-61.5 124q0 115 113 160v4q-76 42 -76 129q0 67 54 110.5t141 43.5q89 0 142.5 -43.5t53.5 -110.5q0 -88 -74 -129v-4q111 -41 111 -160q0 -78 -61 -124t-170 -46zM279 178q-55 0 -87 -30t-32 -85q0 -50 30.5 -77t88.5 -27q120 0 120 104
q0 55 -32 85t-88 30zM186 350q0 -42 25.5 -68t67.5 -26q46 0 70 25.5t24 68.5q0 35 -24.5 60.5t-69.5 25.5q-43 0 -67 -25.5t-26 -60.5z" />
    <glyph glyph-name="uni2089" unicode="&#x2089;" horiz-adv-x="557" 
d="M49 297q0 89 58 148t161 59q113 0 177.5 -74t64.5 -197q0 -169 -74.5 -256.5t-193.5 -87.5q-101 0 -185 58l56 71q1 0 11.5 -6.5t13 -8t13 -7t15.5 -7t15 -5.5t18 -5t18.5 -2.5t20.5 -1.5q74 0 115.5 57.5t43.5 133.5h-4q-19 -26 -57 -45t-82 -19q-95 0 -150 55t-55 140z
M156 297q0 -63 32.5 -95t79.5 -32q50 0 84.5 32t34.5 91q0 60 -35 95.5t-84 35.5q-47 0 -79.5 -32.5t-32.5 -94.5z" />
    <glyph glyph-name="franc" unicode="&#x20a3;" horiz-adv-x="1046" 
d="M367 416h356v-99h-356v-317h-207v317h-97v99h97v977h782v-174h-575v-453h514v-148h-514v-202z" />
    <glyph glyph-name="lira" unicode="&#x20a4;" horiz-adv-x="958" 
d="M899 0h-846v154q84 90 127.5 170.5t44.5 169.5h-170v100h160q-4 18 -9.5 39.5t-13.5 49t-12 42.5h-125v100h101q-19 85 -19 136q0 201 121 319.5t309 118.5q85 0 164.5 -23t122.5 -49l-61 -145q-109 53 -207 53q-102 0 -178 -75.5t-76 -209.5q0 -50 14 -125h422v-100
h-401q20 -73 28 -131h373v-100h-365q-3 -160 -137 -330v-6h633v-158z" />
    <glyph glyph-name="peseta" unicode="&#x20a7;" horiz-adv-x="1198" 
d="M158 930h-129v84h131v366q254 21 377 21q220 0 353 -98t142 -289h135v-84h-139q-14 -125 -86.5 -215t-174 -132t-220.5 -44q-71 -2 -185 14v-553h-202zM817 930h-455v-215q92 -15 166 -15q124 0 199 61t90 169zM362 1014h457q-9 102 -82.5 162.5t-204.5 60.5
q-72 0 -170 -8v-215z" />
    <glyph glyph-name="Euro" unicode="&#x20ac;" horiz-adv-x="1052" 
d="M344 874h522v-100h-538q-2 -25 -2 -78q0 -28 4 -86h536v-100h-518q38 -159 138.5 -252.5t228.5 -93.5q129 0 237 55v-174q-129 -59 -272 -59q-206 0 -359 141t-198 383h-98v100h84q-3 44 -3 86q0 38 3 78h-84v100h96q44 242 195.5 384.5t365.5 142.5q156 0 264 -55v-172
q-101 55 -233 55q-134 0 -233 -95.5t-136 -259.5z" />
    <glyph glyph-name="uni20BA" unicode="&#x20ba;" horiz-adv-x="1171" 
d="M403 979l306 127v-100l-306 -125v-125l306 125v-101l-306 -125v-483q200 17 337 167t137 353h178q0 -124 -38 -235t-106 -195.5t-158.5 -146t-200 -93.5t-226.5 -32q-56 0 -121 12v569l-178 -73v100l178 74v125l-178 -74v100l178 74v496h198v-414z" />
    <glyph glyph-name="uni2113" unicode="&#x2113;" horiz-adv-x="856" 
d="M12 442q63 11 131 41l2 543q0 121 17 213t54.5 161.5t101.5 105.5t153 36q132 0 200 -93t68 -257q0 -225 -110 -417t-283 -308q2 -161 46 -244.5t153 -83.5q72 0 141 43l57 -139q-34 -24 -106 -46t-135 -22q-165 0 -256 93t-101 299q-77 -24 -133 -29v104zM346 631
q105 108 167 252.5t62 298.5q0 88 -25.5 149.5t-80.5 61.5q-75 0 -99 -95t-24 -297v-370z" />
    <glyph glyph-name="uni2116" unicode="&#x2116;" horiz-adv-x="2414" 
d="M160 1434h209l637 -1049h6v1049h211v-1434h-213l-633 1020h-6v-1020h-211v1434zM1886 291q-90 0 -169.5 31t-140.5 89t-96.5 150t-35.5 207q0 226 127 352.5t315 126.5q90 0 169.5 -31t141 -89.5t97 -151t35.5 -207.5t-35.5 -207t-97 -150t-141 -89t-169.5 -31zM1653 768
q0 -145 60 -232t173 -87t173.5 87t60.5 232t-61 233.5t-173 88.5t-172.5 -88t-60.5 -234zM1577 -61v116h618v-116h-618z" />
    <glyph glyph-name="uni2117" unicode="&#x2117;" 
d="M772 -18q-139 0 -265.5 54.5t-217.5 146t-145 218t-54 265.5t54 265.5t145 217.5t217.5 145t265.5 54t265.5 -54t218 -145t146 -217.5t54.5 -265.5t-54.5 -265.5t-146 -218t-218 -146t-265.5 -54.5zM772 1245q-154 0 -284.5 -77.5t-206.5 -211t-76 -290.5t76 -290
t206.5 -210.5t284.5 -77.5t284.5 77.5t206.5 210.5t76 290t-76 290.5t-206.5 211t-284.5 77.5zM549 1047q172 12 233 12q136 0 216.5 -62t80.5 -182q0 -125 -82 -193t-206 -71q-25 -1 -105 8v-283h-137v771zM780 948q-36 0 -94 -4v-276q46 -9 92 -9q79 0 120.5 43t39.5 113
q0 60 -41 96.5t-117 36.5z" />
    <glyph glyph-name="uni2120" unicode="&#x2120;" horiz-adv-x="1277" 
d="M586 1434h96l211 -414h4l211 414h92v-564h-110v338h-5l-159 -329h-82l-156 319h-4v-328h-98v564zM283 862q-49 0 -108 15.5t-97 40.5l45 81q78 -47 158 -47q50 0 78 18.5t28 53.5q0 34 -24.5 52.5t-94.5 35.5q-83 21 -123.5 60t-40.5 108q0 77 54 122.5t141 45.5
q103 0 184 -47l-41 -84q-76 41 -133 41q-49 0 -71.5 -21.5t-22.5 -52.5q0 -32 22 -48t82 -32q93 -26 135 -64.5t42 -107.5q-1 -83 -61.5 -126.5t-151.5 -43.5z" />
    <glyph glyph-name="trademark" unicode="&#x2122;" horiz-adv-x="1337" 
d="M643 1434h98l211 -414h4l209 414h95v-564h-111v338h-4l-162 -329h-80l-155 319h-7v-328h-98v564zM49 1346v88h490v-88h-191v-476h-110v476h-189z" />
    <glyph glyph-name="estimated" unicode="&#x212e;" horiz-adv-x="1081" 
d="M541 -16q-219 0 -351.5 130t-132.5 343t132 344t352 131t351.5 -130.5t131.5 -344.5v-23h-809v-256q121 -143 326 -143q129 0 223.5 54.5t150.5 152.5h62q-60 -127 -174.5 -192.5t-261.5 -65.5zM215 735v-254h653v254q-123 146 -327 146q-203 0 -326 -146z" />
    <glyph glyph-name="arrowleft" unicode="&#x2190;" horiz-adv-x="1425" 
d="M532 236l-423 426v8l423 426l103 -103l-252 -252v-4h934v-143h-934v-4l252 -252z" />
    <glyph glyph-name="arrowup" unicode="&#x2191;" horiz-adv-x="993" 
d="M156 764l-103 102l426 426h8l426 -426l-102 -102l-252 252h-4v-934h-143v934h-4z" />
    <glyph glyph-name="arrowright" unicode="&#x2192;" horiz-adv-x="1425" 
d="M82 737h934v4l-252 252l102 103l426 -426v-8l-426 -426l-102 102l252 252v4h-934v143z" />
    <glyph glyph-name="arrowdown" unicode="&#x2193;" horiz-adv-x="993" 
d="M53 457l103 102l252 -252h4v934h143v-934h4l252 252l102 -102l-426 -424h-8z" />
    <glyph glyph-name="arrowboth" unicode="&#x2194;" horiz-adv-x="1771" 
d="M109 670l423 426l103 -103l-252 -252v-4h1003v4l-249 252l100 103l426 -426v-8l-426 -426l-100 102l249 252v4h-1003v-4l252 -252l-103 -102l-423 426v8z" />
    <glyph glyph-name="arrowupdn" unicode="&#x2195;" horiz-adv-x="993" 
d="M68 428l100 100l252 -249h4v884h-4l-252 -250l-100 101l424 426h8l426 -426l-103 -101l-250 250h-4v-884h4l250 249l103 -100l-426 -426h-8z" />
    <glyph glyph-name="uni2196" unicode="&#x2196;" horiz-adv-x="1124" 
d="M111 1014h602v-146h-357l-2 -2l660 -661l-103 -103l-659 662l-4 -4v-354h-144v602z" />
    <glyph glyph-name="uni2197" unicode="&#x2197;" horiz-adv-x="1124" 
d="M995 1006v-603h-143v355l-4 4l-660 -662l-102 103l659 661l-2 2h-356v146h602z" />
    <glyph glyph-name="uni2198" unicode="&#x2198;" horiz-adv-x="1124" 
d="M86 1061l102 102l660 -659l4 2v356h143v-602l-6 -6h-602v145h356l2 2z" />
    <glyph glyph-name="uni2199" unicode="&#x2199;" horiz-adv-x="1124" 
d="M104 262v602h144v-356l4 -2l659 659l103 -102l-660 -660l2 -2h357v-145h-602z" />
    <glyph glyph-name="partialdiff" unicode="&#x2202;" horiz-adv-x="1265" 
d="M612 967q143 0 239 -73.5t116 -207.5h6q18 110 18 203q0 76 -12.5 147t-42 137.5t-73 115.5t-110 78.5t-147.5 29.5q-106 0 -231 -41l-27 155q168 50 293 50q168 0 292 -88.5t186.5 -239.5t62.5 -344q0 -120 -25 -243t-78.5 -241t-130 -209.5t-188.5 -147.5t-244 -56
q-196 0 -314 107.5t-118 297.5q0 110 39.5 213.5t108 182.5t168 126.5t212.5 47.5zM530 156q96 0 177 60.5t124 150.5t43 184q0 116 -68 187t-181 71q-97 0 -175.5 -63.5t-118.5 -155t-40 -184.5q0 -115 63 -182.5t176 -67.5z" />
    <glyph glyph-name="product" unicode="&#x220f;" horiz-adv-x="1357" 
d="M74 1294v140h1212v-140h-170v-1806h-184v1806h-504v-1806h-184v1806h-170z" />
    <glyph glyph-name="summation" unicode="&#x2211;" horiz-adv-x="1331" 
d="M109 1323v111h1126v-131h-899l549 -773l-559 -874h909v-168h-1126v131l573 889z" />
    <glyph glyph-name="minus" unicode="&#x2212;" horiz-adv-x="1081" 
d="M100 432v123h883v-123h-883z" />
    <glyph glyph-name="uni2215" unicode="&#x2215;" horiz-adv-x="757" 
d="M-12 -51l686 1587h137l-688 -1587h-135z" />
    <glyph glyph-name="uni2219" unicode="&#x2219;" horiz-adv-x="583" 
d="M121 686q0 70 50.5 121t121.5 51q69 0 120.5 -51t51.5 -121q0 -69 -51.5 -120.5t-120.5 -51.5q-70 0 -121 51.5t-51 120.5z" />
    <glyph glyph-name="radical" unicode="&#x221a;" horiz-adv-x="1265" 
d="M47 791h184l283 -824h6l606 1569h134l-676 -1731h-133l-304 869h-100v117z" />
    <glyph glyph-name="infinity" unicode="&#x221e;" horiz-adv-x="1484" 
d="M436 217q-130 0 -206 89t-76 222q0 134 76.5 224t205.5 90q176 0 324 -230q144 230 321 230q130 0 206.5 -90t76.5 -224q0 -133 -76.5 -222t-206.5 -89q-178 0 -321 229q-147 -229 -324 -229zM248 528q0 -97 50 -160t142 -63q79 0 143 60.5t122 162.5q-58 103 -122 164.5
t-143 61.5q-92 0 -142 -64t-50 -162zM1077 754q-137 0 -264 -226q126 -223 264 -223q93 0 144 63t51 160q0 98 -51 162t-144 64z" />
    <glyph glyph-name="integral" unicode="&#x222b;" horiz-adv-x="665" 
d="M12 -346q117 0 168 92t51 266v1047q0 246 110.5 361.5t311.5 115.5v-166q-117 0 -168 -91t-51 -265v-1047q0 -123 -34.5 -217.5t-94 -150t-133.5 -83.5t-160 -28v166z" />
    <glyph glyph-name="approxequal" unicode="&#x2248;" horiz-adv-x="1267" 
d="M100 719q35 33 105 66.5t149 33.5q68 0 145.5 -30t137 -66t135.5 -66t141 -30q123 0 254 131v-144q-42 -44 -107 -77t-147 -33q-78 0 -160.5 30t-140.5 66t-129 66t-129 30q-77 0 -150 -41t-104 -80v144zM100 397q36 33 105.5 67t148.5 34q56 0 116 -20t113.5 -48
t106 -56.5t111 -48.5t112.5 -20q123 0 254 131v-143q-43 -45 -108 -78t-146 -33q-64 0 -129.5 20t-118.5 48t-104 56.5t-105 48.5t-102 20q-76 0 -149 -41t-105 -80v143z" />
    <glyph glyph-name="notequal" unicode="&#x2260;" horiz-adv-x="1087" 
d="M115 240v145h297l112 262h-409v148h473l114 268h107l-117 -268h281v-148h-344l-113 -262h457v-145h-520l-117 -271h-103l115 271h-233z" />
    <glyph glyph-name="lessequal" unicode="&#x2264;" horiz-adv-x="1191" 
d="M1071 360l-965 347v145l965 334v-154l-745 -246v-8l745 -250v-168zM1061 78h-938v123h938v-123z" />
    <glyph glyph-name="greaterequal" unicode="&#x2265;" horiz-adv-x="1191" 
d="M96 528l746 250v8l-746 246v154l963 -334v-145l-963 -347v168zM1044 78h-938v123h936z" />
    <glyph glyph-name="uni2460" unicode="&#x2460;" 
d="M772 -18q-139 0 -265.5 54.5t-217.5 146t-145 218t-54 265.5t54 265.5t145 217.5t217.5 145t265.5 54t265.5 -54t218 -145t146 -217.5t54.5 -265.5t-54.5 -265.5t-146 -218t-218 -146t-265.5 -54.5zM205 666q0 -157 76 -290t206.5 -210.5t284.5 -77.5t284.5 77.5
t206.5 210.5t76 290t-76 290.5t-206.5 211t-284.5 77.5t-284.5 -77.5t-206.5 -211t-76 -290.5zM573 868l181 119h80v-588h-111v457h-4l-98 -63z" />
    <glyph glyph-name="uni2461" unicode="&#x2461;" 
d="M772 -18q-139 0 -265.5 54.5t-217.5 146t-145 218t-54 265.5t54 265.5t145 217.5t217.5 145t265.5 54t265.5 -54t218 -145t146 -217.5t54.5 -265.5t-54.5 -265.5t-146 -218t-218 -146t-265.5 -54.5zM205 666q0 -157 76 -290t206.5 -210.5t284.5 -77.5t284.5 77.5
t206.5 210.5t76 290t-76 290.5t-206.5 211t-284.5 77.5t-284.5 -77.5t-206.5 -211t-76 -290.5zM551 868q87 142 223 142q84 0 136.5 -45t52.5 -121q0 -42 -18.5 -82t-37 -62t-51.5 -55l-139 -143v-4h260v-99h-418v84l209 207q25 25 38.5 40t29.5 46t16 60q0 37 -22.5 57
t-63.5 20q-32 0 -57.5 -15t-38.5 -31.5t-33 -47.5z" />
    <glyph glyph-name="uni2462" unicode="&#x2462;" 
d="M772 -18q-139 0 -265.5 54.5t-217.5 146t-145 218t-54 265.5t54 265.5t145 217.5t217.5 145t265.5 54t265.5 -54t218 -145t146 -217.5t54.5 -265.5t-54.5 -265.5t-146 -218t-218 -146t-265.5 -54.5zM205 666q0 -157 76 -290t206.5 -210.5t284.5 -77.5t284.5 77.5
t206.5 210.5t76 290t-76 290.5t-206.5 211t-284.5 77.5t-284.5 -77.5t-206.5 -211t-76 -290.5zM756 393q-130 0 -205 62l49 80q73 -50 152 -50q118 0 118 88q0 97 -127 97h-59v75h59q56 0 84.5 24.5t28.5 66.5q-3 71 -92 71q-73 0 -146 -57l-47 78q89 73 199 73
q84 0 137.5 -38t53.5 -113q0 -52 -20.5 -80.5t-61.5 -50.5v-4q104 -42 104 -150q0 -49 -21 -84.5t-56 -53.5t-72 -26t-78 -8z" />
    <glyph glyph-name="uni2463" unicode="&#x2463;" 
d="M772 -18q-139 0 -265.5 54.5t-217.5 146t-145 218t-54 265.5t54 265.5t145 217.5t217.5 145t265.5 54t265.5 -54t218 -145t146 -217.5t54.5 -265.5t-54.5 -265.5t-146 -218t-218 -146t-265.5 -54.5zM772 1245q-154 0 -284.5 -77.5t-206.5 -211t-76 -290.5t76 -290
t206.5 -210.5t284.5 -77.5t284.5 77.5t206.5 210.5t76 290t-76 290.5t-206.5 211t-284.5 77.5zM782 504h-282v76l305 411h88v-401h63v-86h-63v-105h-111v105zM610 590h172v239h-4l-168 -233v-6z" />
    <glyph glyph-name="uni2464" unicode="&#x2464;" 
d="M772 -18q-139 0 -265.5 54.5t-217.5 146t-145 218t-54 265.5t54 265.5t145 217.5t217.5 145t265.5 54t265.5 -54t218 -145t146 -217.5t54.5 -265.5t-54.5 -265.5t-146 -218t-218 -146t-265.5 -54.5zM205 666q0 -157 76 -290t206.5 -210.5t284.5 -77.5t284.5 77.5
t206.5 210.5t76 290t-76 290.5t-206.5 211t-284.5 77.5t-284.5 -77.5t-206.5 -211t-76 -290.5zM537 463l51 82q83 -64 162 -64q65 0 102 32t37 87q0 53 -30.5 85t-82.5 32q-72 0 -123 -37l-57 39l14 272h351v-92h-269l-6 -125l4 -4q64 29 121 29q37 0 69.5 -10t62 -32
t46.5 -63t17 -96q0 -72 -37.5 -121.5t-90 -69.5t-114.5 -20q-130 0 -227 76z" />
    <glyph glyph-name="uni2465" unicode="&#x2465;" 
d="M772 -18q-139 0 -265.5 54.5t-217.5 146t-145 218t-54 265.5t54 265.5t145 217.5t217.5 145t265.5 54t265.5 -54t218 -145t146 -217.5t54.5 -265.5t-54.5 -265.5t-146 -218t-218 -146t-265.5 -54.5zM205 666q0 -157 76 -290t206.5 -210.5t284.5 -77.5t284.5 77.5
t206.5 210.5t76 290t-76 290.5t-206.5 211t-284.5 77.5t-284.5 -77.5t-206.5 -211t-76 -290.5zM762 391q-113 0 -177.5 74t-64.5 197q0 167 76 255.5t192 88.5q99 0 185 -58l-55 -74q-67 39 -125 39q-74 0 -115 -56t-43 -128h4q20 25 57 44.5t80 19.5q95 0 150 -55t55 -140
q0 -89 -58 -148t-161 -59zM643 602q0 -61 36 -96t83 -35q46 0 79 32.5t33 94.5t-32.5 93.5t-79.5 31.5q-49 0 -84 -32.5t-35 -88.5z" />
    <glyph glyph-name="uni2466" unicode="&#x2466;" 
d="M90 666q0 139 54 265.5t145 217.5t217.5 145t265.5 54t265.5 -54t218 -145t146 -217.5t54.5 -265.5t-54.5 -265.5t-146 -218t-218 -146t-265.5 -54.5t-265.5 54.5t-217.5 146t-145 218t-54 265.5zM772 1245q-154 0 -284.5 -77.5t-206.5 -211t-76 -290.5t76 -290
t206.5 -210.5t284.5 -77.5t284.5 77.5t206.5 210.5t76 290t-76 290.5t-206.5 211t-284.5 77.5zM578 965h405v-82q-90 -144 -136 -246.5t-87 -261.5h-119q47 156 91.5 250.5t129.5 234.5v8h-284v97z" />
    <glyph glyph-name="uni2467" unicode="&#x2467;" 
d="M772 -18q-139 0 -265.5 54.5t-217.5 146t-145 218t-54 265.5t54 265.5t145 217.5t217.5 145t265.5 54t265.5 -54t218 -145t146 -217.5t54.5 -265.5t-54.5 -265.5t-146 -218t-218 -146t-265.5 -54.5zM772 1245q-154 0 -284.5 -77.5t-206.5 -211t-76 -290.5t76 -290
t206.5 -210.5t284.5 -77.5t284.5 77.5t206.5 210.5t76 290t-76 290.5t-206.5 211t-284.5 77.5zM770 389q-110 0 -171.5 46.5t-61.5 123.5q0 116 112 160v4q-76 42 -76 129q0 67 54 110.5t141 43.5q89 0 143 -43.5t54 -110.5q0 -88 -74 -129v-4q110 -42 110 -160
q0 -77 -61.5 -123.5t-169.5 -46.5zM768 678q-52 0 -84.5 -30.5t-32.5 -82.5q2 -48 31.5 -75t85.5 -27q117 0 117 102q0 52 -32 82.5t-85 30.5zM678 852q0 -41 24.5 -66.5t65.5 -25.5t65.5 25.5t24.5 66.5q0 35 -23.5 59.5t-66.5 24.5q-42 0 -65 -24t-25 -60z" />
    <glyph glyph-name="uni2468" unicode="&#x2468;" 
d="M90 666q0 139 54 265.5t145 217.5t217.5 145t265.5 54t265.5 -54t218 -145t146 -217.5t54.5 -265.5t-54.5 -265.5t-146 -218t-218 -146t-265.5 -54.5t-265.5 54.5t-217.5 146t-145 218t-54 265.5zM205 666q0 -157 76 -290t206.5 -210.5t284.5 -77.5t284.5 77.5
t206.5 210.5t76 290t-76 290.5t-206.5 211t-284.5 77.5t-284.5 -77.5t-206.5 -211t-76 -290.5zM559 791q0 89 58 147.5t161 58.5q113 0 177.5 -73t64.5 -195q0 -169 -76 -257.5t-192 -88.5q-101 0 -185 57l56 76q64 -41 125 -41q74 0 114.5 56t42.5 128h-4
q-20 -25 -56.5 -44t-80.5 -19q-95 0 -150 55t-55 140zM778 920q-45 0 -78.5 -33.5t-33.5 -95.5t32.5 -93.5t79.5 -31.5q49 0 84 32t35 88q0 61 -36.5 97.5t-82.5 36.5z" />
    <glyph glyph-name="uni24EA" unicode="&#x24ea;" 
d="M772 -18q-139 0 -265.5 54.5t-217.5 146t-145 218t-54 265.5t54 265.5t145 217.5t217.5 145t265.5 54t265.5 -54t218 -145t146 -217.5t54.5 -265.5t-54.5 -265.5t-146 -218t-218 -146t-265.5 -54.5zM205 666q0 -157 76 -290t206.5 -210.5t284.5 -77.5t284.5 77.5
t206.5 210.5t76 290t-76 290.5t-206.5 211t-284.5 77.5t-284.5 -77.5t-206.5 -211t-76 -290.5zM530 698q0 137 64.5 222.5t177.5 85.5q112 0 174 -85t62 -223q0 -144 -61 -226.5t-175 -82.5t-178 83t-64 226zM772 909q-62 0 -94.5 -55t-32.5 -156q0 -102 32.5 -156.5
t94.5 -54.5q121 0 121 211t-121 211z" />
    <glyph glyph-name="uni24FF" unicode="&#x24ff;" 
d="M772 -18q-139 0 -265.5 54.5t-217.5 146t-145 218t-54 265.5t54 265.5t145 217.5t217.5 145t265.5 54t265.5 -54t218 -145t146 -217.5t54.5 -265.5t-54.5 -265.5t-146 -218t-218 -146t-265.5 -54.5zM530 698q0 -143 64 -226t178 -83t175 82.5t61 226.5q0 138 -62 223
t-174 85q-113 0 -177.5 -85.5t-64.5 -222.5zM772 487q-62 0 -94.5 54.5t-32.5 156.5q0 101 32.5 156t94.5 55q121 0 121 -211t-121 -211z" />
    <glyph glyph-name="lozenge" unicode="&#x25ca;" horiz-adv-x="1320" 
d="M92 670l492 899h161l484 -899l-484 -901h-161zM305 670l354 -672h7l348 672l-348 669h-7z" />
    <glyph glyph-name="uni2776" unicode="&#x2776;" 
d="M90 666q0 139 54 265.5t145 217.5t217.5 145t265.5 54t265.5 -54t218 -145t146 -217.5t54.5 -265.5t-54.5 -265.5t-146 -218t-218 -146t-265.5 -54.5t-265.5 54.5t-217.5 146t-145 218t-54 265.5zM573 868l48 -75l98 63h4v-457h111v588h-80z" />
    <glyph glyph-name="uni2777" unicode="&#x2777;" 
d="M90 666q0 139 54 265.5t145 217.5t217.5 145t265.5 54t265.5 -54t218 -145t146 -217.5t54.5 -265.5t-54.5 -265.5t-146 -218t-218 -146t-265.5 -54.5t-265.5 54.5t-217.5 146t-145 218t-54 265.5zM774 1010q-136 0 -223 -142l86 -49q20 31 33 47.5t38.5 31.5t57.5 15
q41 0 63.5 -20t22.5 -57q0 -29 -16 -60t-29.5 -46t-38.5 -40l-209 -207v-84h418v99h-260v4l139 143q33 33 51.5 55t37 62t18.5 82q0 76 -52.5 121t-136.5 45z" />
    <glyph glyph-name="uni2778" unicode="&#x2778;" 
d="M772 -18q-139 0 -265.5 54.5t-217.5 146t-145 218t-54 265.5t54 265.5t145 217.5t217.5 145t265.5 54t265.5 -54t218 -145t146 -217.5t54.5 -265.5t-54.5 -265.5t-146 -218t-218 -146t-265.5 -54.5zM551 455q75 -62 205 -62q41 0 78 8t72 26t56 53.5t21 84.5
q0 108 -104 150v4q41 22 61.5 50.5t20.5 80.5q0 75 -53.5 113t-137.5 38q-110 0 -199 -73l47 -78q73 57 146 57q89 0 92 -71q0 -42 -28.5 -66.5t-84.5 -24.5h-59v-75h59q127 0 127 -97q0 -88 -118 -88q-79 0 -152 50z" />
    <glyph glyph-name="uni2779" unicode="&#x2779;" 
d="M90 666q0 139 54 265.5t145 217.5t217.5 145t265.5 54t265.5 -54t218 -145t146 -217.5t54.5 -265.5t-54.5 -265.5t-146 -218t-218 -146t-265.5 -54.5t-265.5 54.5t-217.5 146t-145 218t-54 265.5zM500 580v-76h282v-105h111v105h63v86h-63v401h-88zM778 829h4v-239h-172
v6z" />
    <glyph glyph-name="uni277A" unicode="&#x277a;" 
d="M90 666q0 139 54 265.5t145 217.5t217.5 145t265.5 54t265.5 -54t218 -145t146 -217.5t54.5 -265.5t-54.5 -265.5t-146 -218t-218 -146t-265.5 -54.5t-265.5 54.5t-217.5 146t-145 218t-54 265.5zM537 463q97 -76 227 -76q62 0 114.5 20t90 69.5t37.5 121.5q0 55 -17 96
t-46.5 63t-62 32t-69.5 10q-57 0 -121 -29l-4 4l6 125h269v92h-351l-14 -272l57 -39q51 37 123 37q52 0 82.5 -32t30.5 -85q0 -55 -37 -87t-102 -32q-79 0 -162 64z" />
    <glyph glyph-name="uni277B" unicode="&#x277b;" 
d="M772 -18q-139 0 -265.5 54.5t-217.5 146t-145 218t-54 265.5t54 265.5t145 217.5t217.5 145t265.5 54t265.5 -54t218 -145t146 -217.5t54.5 -265.5t-54.5 -265.5t-146 -218t-218 -146t-265.5 -54.5zM788 1006q-116 0 -192 -88.5t-76 -255.5q0 -123 64.5 -197t177.5 -74
q103 0 161 59t58 148q0 85 -55 140t-150 55q-43 0 -80 -19.5t-57 -44.5h-4q2 72 43 128t115 56q58 0 125 -39l55 74q-86 58 -185 58zM643 602q0 56 35 88.5t84 32.5q47 0 79.5 -31.5t32.5 -93.5t-33 -94.5t-79 -32.5q-47 0 -83 35t-36 96z" />
    <glyph glyph-name="uni277C" unicode="&#x277c;" 
d="M90 666q0 139 54 265.5t145 217.5t217.5 145t265.5 54t265.5 -54t218 -145t146 -217.5t54.5 -265.5t-54.5 -265.5t-146 -218t-218 -146t-265.5 -54.5t-265.5 54.5t-217.5 146t-145 218t-54 265.5zM578 965v-97h284v-8q-85 -140 -129.5 -234.5t-91.5 -250.5h119
q41 159 87 261.5t136 246.5v82h-405z" />
    <glyph glyph-name="uni277D" unicode="&#x277d;" 
d="M772 -18q-139 0 -265.5 54.5t-217.5 146t-145 218t-54 265.5t54 265.5t145 217.5t217.5 145t265.5 54t265.5 -54t218 -145t146 -217.5t54.5 -265.5t-54.5 -265.5t-146 -218t-218 -146t-265.5 -54.5zM537 559q0 -77 61.5 -123.5t171.5 -46.5q108 0 169.5 46.5t61.5 123.5
q0 118 -110 160v4q74 41 74 129q0 67 -54 110.5t-143 43.5q-87 0 -141 -43.5t-54 -110.5q0 -87 76 -129v-4q-112 -44 -112 -160zM651 565q0 51 33 82t84 31q53 0 85 -30.5t32 -82.5q0 -102 -117 -102q-56 0 -86.5 28t-30.5 74zM768 760q-41 0 -65.5 25.5t-24.5 66.5
q2 36 25 60t65 24q43 0 66.5 -24.5t23.5 -59.5q0 -41 -24.5 -66.5t-65.5 -25.5z" />
    <glyph glyph-name="uni277E" unicode="&#x277e;" 
d="M772 -18q-139 0 -265.5 54.5t-217.5 146t-145 218t-54 265.5t54 265.5t145 217.5t217.5 145t265.5 54t265.5 -54t218 -145t146 -217.5t54.5 -265.5t-54.5 -265.5t-146 -218t-218 -146t-265.5 -54.5zM559 791q0 -85 55 -140t150 -55q44 0 80.5 19t56.5 44h4
q-2 -72 -42.5 -128t-114.5 -56q-61 0 -125 41l-56 -76q84 -57 185 -57q116 0 192 88.5t76 257.5q0 122 -64.5 195t-177.5 73q-103 0 -161 -58.5t-58 -147.5zM778 666q-47 0 -79.5 31.5t-32.5 93.5t33.5 95.5t78.5 33.5q46 0 82.5 -36.5t36.5 -97.5q0 -56 -35 -88t-84 -32z
" />
    <glyph glyph-name="uniE000" unicode="&#xe000;" horiz-adv-x="1320" 
d="M799 -18q-306 0 -493.5 205t-186.5 542q1 164 52 298.5t141 225.5t215 141t272 50q237 0 428 -96l-74 -168q-154 77 -342 77q-200 0 -329.5 -147t-129.5 -381q0 -252 135 -408.5t332 -156.5q201 0 346 88l66 -156q-197 -114 -432 -114zM725 1536l43 291h190l-100 -291
h-133z" />
    <glyph glyph-name="uniE001" unicode="&#xe001;" horiz-adv-x="919" 
d="M537 -14q-88 0 -166.5 30.5t-140.5 87.5t-98 149.5t-36 207.5q0 136 50 243t150.5 171.5t238.5 64.5q176 0 299 -76l-56 -133q-79 57 -203 57q-129 0 -199.5 -92.5t-70.5 -230.5q0 -142 76 -233t199 -91q64 0 124.5 17.5t96.5 42.5l57 -129q-134 -86 -321 -86zM473 1092
l66 323h163l-122 -323h-107z" />
    <glyph glyph-name="uniE002" unicode="&#xe002;" horiz-adv-x="1382" 
d="M371 0h-211v1434h209l637 -1049h6v1049h211v-1434h-213l-633 1020h-6v-1020zM653 1536l41 291h191l-101 -291h-131z" />
    <glyph glyph-name="uniE003" unicode="&#xe003;" horiz-adv-x="1075" 
d="M129 0v922h182l11 -150h6q41 73 113 121.5t167 48.5q186 0 272.5 -112.5t86.5 -348.5v-481h-203v449q0 157 -46 238t-163 81q-86 0 -143.5 -72.5t-79.5 -187.5v-508h-203zM625 1092h-107l66 323h164z" />
    <glyph glyph-name="uniE004" unicode="&#xe004;" horiz-adv-x="1492" 
d="M119 717q0 218 74.5 384.5t217 259.5t334.5 93q290 0 459.5 -202.5t169.5 -534.5t-169.5 -534.5t-459.5 -202.5q-192 0 -334.5 93t-217 259.5t-74.5 384.5zM745 1264q-188 0 -291.5 -149t-103.5 -398q0 -248 103.5 -397.5t291.5 -149.5t292 150t104 397q0 248 -104 397.5
t-292 149.5zM674 1536l43 291h190l-102 -291h-131z" />
    <glyph glyph-name="uniE005" unicode="&#xe005;" horiz-adv-x="1058" 
d="M528 -18q-90 0 -169 31t-140 89.5t-96 151t-35 207.5t35 207.5t96 151t140 89.5t169 31t169.5 -31t141 -89.5t97 -151t35.5 -207.5t-35.5 -207.5t-97 -151t-141 -89.5t-169.5 -31zM528 782q-111 0 -171 -88t-60 -233t60 -232.5t171 -87.5q114 0 174 87t60 233t-60 233.5
t-174 87.5zM473 1092l66 323h166l-123 -323h-109z" />
    <glyph glyph-name="uniE006" unicode="&#xe006;" horiz-adv-x="1198" 
d="M68 125l96 168q206 -125 405 -125q138 0 226 64.5t88 156.5q0 88 -78.5 144t-257.5 96q-209 49 -314.5 145.5t-105.5 272.5q0 181 137 289t344 108q260 0 467 -123l-96 -166q-194 111 -361 111q-129 0 -198.5 -63.5t-69.5 -149.5q0 -91 70.5 -142t224.5 -88
q118 -29 199 -62.5t142 -82.5t89.5 -117t28.5 -160q-1 -84 -30.5 -154t-80 -117.5t-118 -80.5t-143 -48t-157.5 -15q-125 0 -266.5 38t-240.5 101zM547 1536l43 291h190l-100 -291h-133z" />
    <glyph glyph-name="uniE007" unicode="&#xe007;" horiz-adv-x="882" 
d="M432 -14q-105 0 -196.5 24t-149.5 60l59 139q48 -34 123 -56t152 -22q76 0 122 31.5t46 81.5q0 53 -44.5 85t-154.5 64q-126 34 -197 104t-71 175q0 129 95 198.5t249 69.5q190 0 307 -74l-55 -133q-40 25 -104 42.5t-132 17.5q-74 0 -121 -31.5t-47 -77.5
q0 -52 34.5 -79t109.5 -50q173 -46 249 -117.5t76 -185.5q0 -126 -99.5 -196t-250.5 -70zM403 1092l66 323h164l-121 -323h-109z" />
    <glyph glyph-name="uniE008" unicode="&#xe008;" horiz-adv-x="1294" 
d="M168 1434h977v-197l-754 -1040v-7h735v-190h-1009v197l757 1042v6h-706v189zM637 1827h190l-102 -291h-131z" />
    <glyph glyph-name="uniE009" unicode="&#xe009;" horiz-adv-x="833" 
d="M70 0v152l462 622v6h-430v142h664v-156l-449 -619v-6h449v-141h-696zM395 1092l66 323h164l-123 -323h-107z" />
    <glyph glyph-name="uniE132" unicode="&#xe132;" horiz-adv-x="960" 
d="M389 -510h-37v172h37q145 0 201.5 80.5t56.5 280.5v899h201v-914q0 -128 -22 -219.5t-73.5 -161t-142 -103.5t-221.5 -34zM154 922h202v-922h-202v922zM285 1092h-125l190 321h219zM764 1092h-125l190 321h220z" />
    <glyph glyph-name="uniE133" unicode="&#xe133;" horiz-adv-x="1372" 
d="M588 25l30 168q30 -12 89.5 -22.5t103.5 -10.5q122 0 176.5 70t54.5 251v953h211v-953q0 -255 -102 -376t-340 -121q-51 0 -122 13.5t-101 27.5zM160 1434h221v-1434h-221v1434zM299 1536h-145l170 283h211zM1034 1536l170 283h211l-235 -283h-146z" />
    <glyph glyph-name="uniF026" unicode="&#xf026;" horiz-adv-x="1562" 
d="M78 344q0 66 21.5 124.5t52.5 101t83.5 86.5t96 72t108.5 65v4q-143 166 -143 329q0 144 96.5 226t249.5 82h336v-158h-324q-75 0 -123.5 -38.5t-48.5 -115.5q0 -55 48.5 -140t121.5 -159l373 -387h4q115 162 207 391l164 -57q-115 -281 -254 -461l299 -309h-238
l-180 186h-4q-222 -215 -498 -215q-216 0 -332 101t-116 272zM291 352q0 -98 72 -158.5t182 -60.5q189 0 358 176v4l-340 351h-4q-64 -38 -102.5 -64.5t-81.5 -65.5t-63.5 -84t-20.5 -98z" />
    <glyph glyph-name="uniF028" unicode="&#xf028;" horiz-adv-x="649" 
d="M385 -143q-123 180 -185.5 396t-62.5 443t63 443.5t185 396.5h129q-107 -181 -163 -397.5t-56 -442.5q0 -225 55.5 -441.5t163.5 -397.5h-129z" />
    <glyph glyph-name="uniF029" unicode="&#xf029;" horiz-adv-x="641" 
d="M229 -143h-129q108 181 163.5 397.5t55.5 441.5q0 226 -56 442.5t-163 397.5h129q122 -180 185 -396.5t63 -443.5t-62.5 -443t-185.5 -396z" />
    <glyph glyph-name="uniF030" unicode="&#xf030;" horiz-adv-x="1265" 
d="M639 -14q-172 0 -295 92.5t-184.5 256.5t-61.5 382t61.5 382t185 257.5t294.5 93.5q172 0 292.5 -94.5t178 -257.5t57.5 -381q1 -219 -57 -381.5t-178.5 -256t-292.5 -93.5zM324 717q0 -246 81.5 -395.5t233.5 -149.5q77 0 136 40t95 114t54 172t18 219q-1 121 -18.5 219
t-53.5 172.5t-94.5 115t-136.5 40.5q-103 0 -175 -72t-106 -193.5t-34 -281.5z" />
    <glyph glyph-name="uniF031" unicode="&#xf031;" horiz-adv-x="860" 
d="M158 1026l-88 141l403 267h137v-1434h-213v1184h-6z" />
    <glyph glyph-name="uniF032" unicode="&#xf032;" horiz-adv-x="1265" 
d="M1143 0h-996v145l525 555q198 204 198 351q0 112 -63 170.5t-174 58.5q-189 0 -330 -223l-151 86q32 56 75 106t104.5 98.5t146 77.5t179.5 29q205 0 322 -100.5t117 -292.5q0 -45 -10 -89.5t-31 -86t-40 -74t-52.5 -72t-51 -59t-53.5 -55.5l-43 -43l-383 -400v-6h711
v-176z" />
    <glyph glyph-name="uniF033" unicode="&#xf033;" horiz-adv-x="1265" 
d="M623 -10q-147 0 -283 46.5t-217 113.5l88 151q195 -139 401 -139q149 0 228.5 65t79.5 189q0 110 -88.5 179t-229.5 69h-141v153h141q133 0 209 69.5t76 164.5q-1 107 -70 163t-190 56q-103 0 -203 -45.5t-170 -106.5l-84 146q89 76 212.5 130t262.5 54q92 0 170 -21.5
t139.5 -64.5t96 -114.5t34.5 -164.5q0 -112 -60.5 -200.5t-152.5 -128.5v-6q113 -43 188 -133t75 -220q0 -88 -30.5 -158.5t-80.5 -115.5t-118 -75.5t-138 -43t-145 -12.5z" />
    <glyph glyph-name="uniF034" unicode="&#xf034;" horiz-adv-x="1216" 
d="M59 436l719 998h168v-985h166v-168h-166v-281h-213v281h-674v155zM276 455v-6h457v632h-6z" />
    <glyph glyph-name="uniF035" unicode="&#xf035;" horiz-adv-x="1265" 
d="M602 -10q-149 0 -289.5 50.5t-226.5 117.5l88 149q201 -145 401 -145q151 0 247 91t96 236q0 140 -79.5 217.5t-213.5 77.5q-83 0 -164.5 -31t-136.5 -69l-107 66l37 684h795v-177h-633l-19 -387l6 -4q144 74 297 74q65 0 124.5 -13t118 -45.5t102 -82t70 -128.5
t26.5 -179q0 -123 -49 -222.5t-128.5 -158.5t-172.5 -90t-189 -31z" />
    <glyph glyph-name="uniF036" unicode="&#xf036;" horiz-adv-x="1265" 
d="M645 -14q-172 0 -296.5 82t-186.5 226.5t-62 336.5q0 238 75 424.5t213 290.5t317 104q146 0 260 -59t180 -168l-133 -101q-114 156 -297 156q-115 0 -206 -71.5t-139.5 -187t-52.5 -251.5h7q44 77 135.5 128.5t208.5 51.5q116 0 209.5 -37.5t153 -101.5t91 -147.5
t31.5 -178.5q0 -102 -32 -190.5t-93 -157.5t-160 -109t-223 -40zM340 487q0 -152 86.5 -248t218.5 -96q133 0 214 89t81 239q0 151 -77 237.5t-218 86.5q-132 0 -218.5 -86.5t-86.5 -221.5z" />
    <glyph glyph-name="uniF037" unicode="&#xf037;" horiz-adv-x="1224" 
d="M883 1257h-764v177h987v-158q-217 -385 -337 -643t-245 -633h-217q80 231 167.5 434t156 338t206.5 393q10 19 15.5 29.5t14.5 26.5t16 30v6z" />
    <glyph glyph-name="uniF038" unicode="&#xf038;" horiz-adv-x="1265" 
d="M633 -18q-246 0 -395.5 109.5t-149.5 291.5q0 149 81 245.5t204 139.5q-92 42 -147.5 119.5t-55.5 193.5q0 169 129.5 272t333.5 103q203 0 333 -103t130 -272q0 -115 -56 -193t-147 -120q126 -42 205.5 -138.5t79.5 -246.5q0 -182 -149.5 -291.5t-395.5 -109.5zM633 698
q-143 0 -231 -80t-87 -223q0 -120 87 -200t231 -80t230.5 80t86.5 200q0 144 -86 223.5t-231 79.5zM375 1083q0 -121 72.5 -181t185.5 -60q130 0 193 65t63 176q0 103 -68.5 175.5t-187.5 72.5t-187.5 -72.5t-70.5 -175.5z" />
    <glyph glyph-name="uniF039" unicode="&#xf039;" horiz-adv-x="1265" 
d="M113 950q0 102 32 190.5t93 158t160 109.5t223 40q173 0 296.5 -81.5t185.5 -225.5t62 -336q0 -239 -75 -426t-212.5 -291t-316.5 -104q-146 0 -260 59t-180 168l133 100q113 -155 297 -155q115 0 205.5 72.5t139 188.5t52.5 253h-6q-45 -78 -136.5 -131.5t-207.5 -53.5
t-209.5 37.5t-153 101.5t-91 147.5t-31.5 178.5zM326 965q0 -152 77 -239t218 -87q132 0 218.5 86t86.5 221q0 152 -86.5 248t-218.5 96q-133 0 -214 -88.5t-81 -236.5z" />
    <glyph glyph-name="uniF03A" unicode="&#xf03a;" horiz-adv-x="1265" 
d="M639 -14q-172 0 -295 92.5t-184.5 256.5t-61.5 382t61.5 382t185 257.5t294.5 93.5q172 0 292.5 -94.5t178 -257.5t57.5 -381q1 -219 -57 -381.5t-178.5 -256t-292.5 -93.5zM324 717q0 -246 81.5 -395.5t233.5 -149.5q77 0 136 40t95 114t54 172t18 219q-1 121 -18.5 219
t-53.5 172.5t-94.5 115t-136.5 40.5q-103 0 -175 -72t-106 -193.5t-34 -281.5z" />
    <glyph glyph-name="uniF03B" unicode="&#xf03b;" horiz-adv-x="1265" 
d="M201 1167l401 267h139v-1254h328v-180h-868v180h327v1004h-6l-233 -158z" />
    <glyph glyph-name="uniF03C" unicode="&#xf03c;" horiz-adv-x="1265" 
d="M1143 0h-996v145l525 555q198 204 198 351q0 112 -63 170.5t-174 58.5q-189 0 -330 -223l-151 86q32 56 75 106t104.5 98.5t146 77.5t179.5 29q205 0 322 -100.5t117 -292.5q0 -45 -10 -89.5t-31 -86t-40 -74t-52.5 -72t-51 -59t-53.5 -55.5l-43 -43l-383 -400v-6h711
v-176z" />
    <glyph glyph-name="uniF03D" unicode="&#xf03d;" horiz-adv-x="1265" 
d="M623 -10q-147 0 -283 46.5t-217 113.5l88 151q195 -139 401 -139q149 0 228.5 65t79.5 189q0 110 -88.5 179t-229.5 69h-141v153h141q133 0 209 69.5t76 164.5q-1 107 -70 163t-190 56q-103 0 -203 -45.5t-170 -106.5l-84 146q89 76 212.5 130t262.5 54q92 0 170 -21.5
t139.5 -64.5t96 -114.5t34.5 -164.5q0 -112 -60.5 -200.5t-152.5 -128.5v-6q113 -43 188 -133t75 -220q0 -88 -30.5 -158.5t-80.5 -115.5t-118 -75.5t-138 -43t-145 -12.5z" />
    <glyph glyph-name="uniF03E" unicode="&#xf03e;" horiz-adv-x="1265" 
d="M109 436l718 998h168v-985h166v-168h-166v-281h-213v281h-673v155zM324 455v-6h458v632h-6z" />
    <glyph glyph-name="uniF03F" unicode="&#xf03f;" horiz-adv-x="1265" 
d="M602 -10q-149 0 -289.5 50.5t-226.5 117.5l88 149q201 -145 401 -145q151 0 247 91t96 236q0 140 -79.5 217.5t-213.5 77.5q-83 0 -164.5 -31t-136.5 -69l-107 66l37 684h795v-177h-633l-19 -387l6 -4q144 74 297 74q65 0 124.5 -13t118 -45.5t102 -82t70 -128.5
t26.5 -179q0 -123 -49 -222.5t-128.5 -158.5t-172.5 -90t-189 -31z" />
    <glyph glyph-name="uniF040" unicode="&#xf040;" horiz-adv-x="1265" 
d="M645 -14q-172 0 -296.5 82t-186.5 226.5t-62 336.5q0 238 75 424.5t213 290.5t317 104q146 0 260 -59t180 -168l-133 -101q-114 156 -297 156q-115 0 -206 -72.5t-139.5 -188.5t-52.5 -253h7q45 78 136.5 131t207.5 53t209.5 -37.5t153 -101.5t91 -147.5t31.5 -178.5
q0 -102 -32 -190.5t-93 -157.5t-160 -109t-223 -40zM340 487q0 -152 86.5 -248t218.5 -96q133 0 214 89t81 239q0 151 -77 237.5t-218 86.5q-132 0 -218.5 -86.5t-86.5 -221.5z" />
    <glyph glyph-name="uniF041" unicode="&#xf041;" horiz-adv-x="1265" 
d="M903 1257h-764v177h987v-158q-216 -383 -335.5 -641.5t-245.5 -634.5h-217q115 333 224 565.5t311 611.5q26 49 40 74v6z" />
    <glyph glyph-name="uniF042" unicode="&#xf042;" horiz-adv-x="1265" 
d="M633 -18q-246 0 -395.5 109.5t-149.5 291.5q0 149 81 245.5t204 139.5q-92 42 -147.5 119.5t-55.5 193.5q0 169 129.5 272t333.5 103q203 0 333 -103t130 -272q0 -115 -56 -193t-147 -120q126 -42 205.5 -138.5t79.5 -246.5q0 -182 -149.5 -291.5t-395.5 -109.5zM633 698
q-143 0 -231 -80t-87 -223q0 -120 87 -200t231 -80t230.5 80t86.5 200q0 144 -86 223.5t-231 79.5zM375 1083q0 -121 72.5 -181t185.5 -60q130 0 193 65t63 176q0 103 -68.5 175.5t-187.5 72.5t-187.5 -72.5t-70.5 -175.5z" />
    <glyph glyph-name="uniF043" unicode="&#xf043;" horiz-adv-x="1265" 
d="M113 950q0 102 32 190.5t93 158t160 109.5t223 40q173 0 296.5 -81.5t185.5 -225.5t62 -336q0 -239 -75 -426t-212.5 -291t-316.5 -104q-146 0 -260 59t-180 168l133 100q113 -155 297 -155q115 0 205.5 72.5t139 188.5t52.5 253h-6q-45 -78 -136.5 -131.5t-207.5 -53.5
t-209.5 37.5t-153 101.5t-91 147.5t-31.5 178.5zM326 965q0 -152 77 -239t218 -87q132 0 218.5 86t86.5 221q0 152 -86.5 248t-218.5 96q-133 0 -214 -88.5t-81 -236.5z" />
    <glyph glyph-name="uniF044" unicode="&#xf044;" horiz-adv-x="1134" 
d="M567 -14q-203 0 -336 134.5t-133 354.5q0 221 133 357.5t336 136.5q211 0 340.5 -135t130.5 -359q0 -223 -129.5 -356t-341.5 -133zM317 475q0 -130 69 -218.5t181 -88.5q113 1 181.5 88t68.5 219q0 133 -68 222t-182 89q-111 0 -180.5 -90t-69.5 -221z" />
    <glyph glyph-name="uniF045" unicode="&#xf045;" horiz-adv-x="712" 
d="M98 799v149l412 21v-969h-213v809z" />
    <glyph glyph-name="uniF046" unicode="&#xf046;" horiz-adv-x="1036" 
d="M106 725q68 107 177.5 178.5t257.5 71.5q171 0 266.5 -89t95.5 -214q0 -59 -19.5 -110t-54.5 -90t-70 -67t-81 -55l-252 -172v-6h510v-172h-827v164l411 274q51 34 81.5 59t57.5 67t27 87q0 69 -51.5 111.5t-128.5 42.5q-87 0 -161.5 -55t-123.5 -134z" />
    <glyph glyph-name="uniF047" unicode="&#xf047;" horiz-adv-x="1091" 
d="M514 -303q-259 0 -432 139l88 144q77 -55 157 -82t183 -27q122 0 194.5 53.5t73.5 167.5q0 99 -79.5 149t-215.5 50h-135v139h135q125 0 193.5 52.5t66.5 138.5q0 84 -56.5 129t-154.5 45q-158 0 -319 -127l-84 141q92 76 190.5 120t227.5 44q85 0 154.5 -17.5t125 -53.5
t86 -98t31.5 -145q0 -106 -52 -170.5t-147 -107.5v-6q110 -29 179 -103.5t69 -201.5q0 -73 -22.5 -132.5t-61 -99t-85.5 -68.5t-103 -44t-106 -22t-101 -7z" />
    <glyph glyph-name="uniF048" unicode="&#xf048;" horiz-adv-x="1036" 
d="M27 115l622 848h168v-840h166v-156h-166v-268h-213v268h-577v148zM231 123h373v510h-6l-367 -502v-8z" />
    <glyph glyph-name="uniF049" unicode="&#xf049;" horiz-adv-x="1087" 
d="M532 -313q-146 0 -272 49.5t-213 120.5l88 149q49 -35 79.5 -54.5t79.5 -44.5t101 -36.5t111 -11.5q133 0 207.5 69.5t74.5 210.5q0 137 -69 200.5t-182 63.5q-129 0 -252 -84l-107 78l31 566h727v-162h-567l-15 -314l6 -4q1 1 20.5 11t21.5 11t19.5 9.5t22 9.5t21 7.5
t24.5 8t24 5.5t28.5 5t29 2t33.5 1q59 0 112.5 -10t109 -39t95.5 -74t65.5 -120.5t25.5 -174.5q0 -100 -27.5 -179t-73 -128.5t-109 -82t-129.5 -45.5t-141 -13z" />
    <glyph glyph-name="uniF04A" unicode="&#xf04a;" horiz-adv-x="1079" 
d="M553 -14q-234 0 -354.5 154.5t-120.5 424.5q0 152 30 276t80.5 205.5t118 137t140 80t149.5 24.5q123 0 211.5 -33t175.5 -90l-102 -141q-39 24 -58 35t-54.5 27.5t-73.5 23t-83 6.5q-134 0 -223 -124t-92 -341h6q37 55 111.5 94t169.5 39q185 0 292 -110.5t107 -272.5
q0 -86 -26 -160t-77 -131.5t-135 -90.5t-192 -33zM322 401q0 -123 64 -195.5t167 -72.5q95 0 158 69t63 187q0 112 -60 184t-161 72q-97 0 -164 -65.5t-67 -178.5z" />
    <glyph glyph-name="uniF04B" unicode="&#xf04b;" horiz-adv-x="1030" 
d="M723 786h-631v177h854v-158q-142 -236 -218.5 -381t-148.5 -327.5t-139 -424.5h-219q35 122 67.5 221t76.5 201t69.5 160t88 172.5t88.5 159.5t112 194v6z" />
    <glyph glyph-name="uniF04C" unicode="&#xf04c;" horiz-adv-x="1134" 
d="M78 336q0 127 69 211t187 125q-180 93 -180 268q0 145 112.5 236.5t300.5 91.5t301 -91.5t113 -236.5q0 -182 -172 -268q250 -84 250 -336q0 -168 -132 -261t-360 -93t-358.5 92.5t-130.5 261.5zM567 594q-123 0 -196.5 -67.5t-71.5 -178.5q0 -104 70.5 -164.5
t197.5 -60.5q131 0 200 60t69 165q0 111 -73.5 178.5t-195.5 67.5zM358 942q-1 -92 58 -139t151 -47t150.5 47t58.5 139q0 87 -56 140t-153 53t-153 -53t-56 -140z" />
    <glyph glyph-name="uniF04D" unicode="&#xf04d;" horiz-adv-x="1079" 
d="M98 -199l101 140q41 -26 58 -36t53.5 -27t74 -23.5t82.5 -6.5q134 0 223 124t92 341h-6q-38 -55 -112 -94t-168 -39q-124 0 -216 53t-137 139t-45 191q0 86 27 160t79 132t136.5 91t191.5 33q233 0 352.5 -154t119.5 -426q0 -151 -30.5 -274.5t-81 -205t-119 -137
t-141 -80t-149.5 -24.5q-124 0 -212.5 33t-172.5 90zM305 578q0 -114 60 -185t161 -71q97 0 164.5 64.5t67.5 176.5q0 124 -61.5 196t-164.5 72q-96 0 -161.5 -68.5t-65.5 -184.5z" />
    <glyph glyph-name="uniF04E" unicode="&#xf04e;" horiz-adv-x="1095" 
d="M549 -14q-208 0 -342.5 134t-134.5 355t135 357.5t342 136.5q215 0 345 -135t130 -359t-129.5 -356.5t-345.5 -132.5zM293 475q0 -131 70 -219t186 -88q117 0 186.5 87t69.5 220q0 134 -69 222.5t-187 88.5q-115 0 -185.5 -90t-70.5 -221z" />
    <glyph glyph-name="uniF04F" unicode="&#xf04f;" horiz-adv-x="1095" 
d="M668 172h270v-172h-768v172h285v637l-238 -10v149l451 21v-797z" />
    <glyph glyph-name="uniF050" unicode="&#xf050;" horiz-adv-x="1095" 
d="M977 0h-873v164l433 274q76 49 119.5 98.5t43.5 114.5q0 69 -51.5 111.5t-126.5 42.5q-87 0 -162 -55.5t-122 -133.5l-117 109q44 68 100.5 120.5t145.5 91t190 38.5q171 0 267 -89t96 -214q0 -192 -226 -322l-266 -172v-6h549v-172z" />
    <glyph glyph-name="uniF051" unicode="&#xf051;" horiz-adv-x="1097" 
d="M514 -303q-259 0 -432 139l88 144q77 -55 157 -82t183 -27q122 0 194.5 53.5t73.5 167.5q0 99 -79.5 149t-215.5 50h-135v139h135q125 0 193.5 52.5t66.5 138.5q0 84 -56.5 129t-154.5 45q-158 0 -319 -127l-84 141q92 76 190.5 120t227.5 44q85 0 154.5 -17.5t125 -53.5
t86 -98t31.5 -145q0 -106 -52 -170.5t-147 -107.5v-6q110 -29 179 -103.5t69 -201.5q0 -73 -22.5 -132.5t-61 -99t-85.5 -68.5t-103 -44t-106 -22t-101 -7z" />
    <glyph glyph-name="uniF052" unicode="&#xf052;" horiz-adv-x="1095" 
d="M74 -33v148l622 848h168v-838h174v-158h-174v-268h-213v268h-577zM281 125h370v508h-6l-364 -502v-6z" />
    <glyph glyph-name="uniF053" unicode="&#xf053;" horiz-adv-x="1095" 
d="M530 -313q-147 0 -272.5 49t-214.5 121l90 149q66 -47 107 -72.5t113.5 -50t148.5 -24.5q136 0 216.5 70t80.5 210q0 136 -75 201.5t-189 65.5q-142 0 -265 -87l-106 78l29 566h753v-162h-592l-16 -314l8 -4q47 25 73.5 37t76.5 24.5t104 12.5q60 0 115 -10.5t112.5 -40
t99.5 -75t68.5 -122t26.5 -174.5q0 -100 -29 -179t-76 -128.5t-112 -82t-132.5 -45.5t-142.5 -13z" />
    <glyph glyph-name="uniF054" unicode="&#xf054;" horiz-adv-x="1095" 
d="M565 -14q-234 0 -355.5 155t-121.5 424q0 152 30.5 276t80.5 205.5t118 137t140.5 80t150.5 24.5q124 0 212.5 -33t172.5 -90l-100 -141q-38 24 -57.5 35t-55 27.5t-73 23t-82.5 6.5q-134 0 -223.5 -124t-92.5 -341h6q36 55 111 94t170 39q124 0 215.5 -53t136.5 -139
t45 -191q0 -180 -109 -297.5t-319 -117.5zM334 401q0 -123 63.5 -195.5t167.5 -72.5q95 0 157 69t62 187q0 113 -59 184.5t-160 71.5q-97 0 -164 -65.5t-67 -178.5z" />
    <glyph glyph-name="uniF055" unicode="&#xf055;" horiz-adv-x="1095" 
d="M80 963h915v-158q-141 -237 -217 -381t-148.5 -327t-140.5 -425h-219q27 92 51.5 169.5t57 159t50.5 129t61 132.5t57 115t71 130.5t70.5 124.5t85.5 148v6h-694v177z" />
    <glyph glyph-name="uniF056" unicode="&#xf056;" horiz-adv-x="1095" 
d="M549 -18q-220 0 -349 93t-128 261q0 126 66.5 210t174.5 126q-178 94 -178 268q0 145 112.5 236.5t301.5 91.5q188 0 300 -91.5t112 -236.5q0 -182 -173 -268q111 -40 174.5 -124t63.5 -212q0 -168 -129 -261t-348 -93zM549 594q-116 0 -186.5 -68t-69.5 -178
q0 -103 68.5 -164t187.5 -61q122 0 189 60.5t67 164.5q0 110 -71 178t-185 68zM338 942q0 -92 59 -139t152 -47q92 0 150.5 47t58.5 139q0 87 -56.5 140t-152.5 53q-97 0 -153 -53t-58 -140z" />
    <glyph glyph-name="uniF057" unicode="&#xf057;" horiz-adv-x="1095" 
d="M102 -199l103 140q49 -32 76 -47t79.5 -30.5t110.5 -15.5q135 0 224.5 124t90.5 341h-6q-36 -55 -109.5 -94t-168.5 -39q-186 0 -293 110t-107 273q0 86 27 160t79.5 132t137.5 91t193 33q232 0 350.5 -154t118.5 -426q0 -127 -21 -234.5t-58.5 -185t-87 -136.5
t-108.5 -94.5t-120.5 -53t-125.5 -17.5q-124 0 -212.5 33t-172.5 90zM311 578q0 -115 59 -185.5t162 -70.5q97 0 164.5 64.5t67.5 176.5q0 124 -61.5 196t-163.5 72q-97 0 -162.5 -68.5t-65.5 -184.5z" />
    <glyph glyph-name="uniF063" unicode="&#xf063;" horiz-adv-x="1947" 
d="M537 -14q-88 0 -166.5 30.5t-140.5 87.5t-98 149.5t-36 207.5q0 136 50 243t150.5 171.5t238.5 64.5q55 0 116 -14l2 4q-64 72 -107.5 169.5t-43.5 184.5q0 120 81 193t222 73q71 0 204.5 -7t194.5 -7v-756h6q42 69 111 115.5t160 46.5q186 0 272 -112.5t86 -348.5v-481
h-203v449q0 157 -46 238t-163 81q-85 0 -143 -73t-80 -187v-508h-203v1421q-13 0 -84.5 5.5t-117.5 5.5q-79 0 -118.5 -43t-39.5 -117q0 -176 193 -408l-56 -133q-79 57 -203 57q-129 0 -199.5 -92.5t-70.5 -230.5q0 -142 76 -233t199 -91q64 0 124.5 17.5t96.5 42.5
l57 -129q-134 -86 -321 -86z" />
    <glyph glyph-name="uniF064" unicode="&#xf064;" horiz-adv-x="1873" 
d="M537 -14q-88 0 -166.5 30.5t-140.5 87.5t-98 149.5t-36 207.5q0 136 50 243t150.5 171.5t238.5 64.5q55 0 116 -14l2 4q-64 72 -107.5 169.5t-43.5 184.5q0 120 81 193t222 73q71 0 204.5 -7t194.5 -7v-1022h6l365 408h211l-318 -355l336 -567h-221l-246 422l-133 -150
v-272h-203v1421q-13 0 -84.5 5.5t-117.5 5.5q-79 0 -118.5 -43t-39.5 -117q0 -175 193 -408l-56 -133q-79 57 -203 57q-129 0 -199.5 -92.5t-70.5 -230.5q0 -142 76 -233t199 -91q64 0 124.5 17.5t96.5 42.5l57 -129q-134 -86 -321 -86z" />
    <glyph glyph-name="uniF065" unicode="&#xf065;" horiz-adv-x="1605" 
d="M537 -14q-88 0 -166.5 30.5t-140.5 87.5t-98 149.5t-36 207.5q0 136 50 243t150.5 171.5t238.5 64.5q57 0 106 -12l2 4q-147 135 -147 278q0 107 79.5 172.5t206.5 65.5q97 0 272 -57t230 -60v-409h254v-148h-246v-452q0 -113 36 -156t95 -43q60 0 107 33v-113
q-20 -20 -78 -36.5t-102 -16.5q-260 0 -260 301v483h-117v119l129 29v307q-11 4 -79.5 35t-122 47t-103.5 16q-154 0 -154 -143q0 -33 8 -63t32 -67t37.5 -54.5t57 -68.5t56.5 -67l-56 -133q-79 57 -203 57q-129 0 -199.5 -92.5t-70.5 -230.5q0 -142 76 -233t199 -91
q64 0 124.5 17.5t96.5 42.5l57 -129q-134 -86 -321 -86z" />
    <glyph glyph-name="uniF066" unicode="&#xf066;" horiz-adv-x="1945" 
d="M86 70l59 139q48 -34 123 -56t152 -22q76 0 122 31.5t46 81.5q0 53 -44.5 85t-154.5 64q-126 34 -197 104t-71 175q0 129 95 198.5t249 69.5q69 0 125 -12l2 4q-64 72 -108 169.5t-44 182.5q0 122 84 194t226 72q71 0 230 -7t220 -7v-756h6q42 68 112 115t161 47
q186 0 272 -112.5t86 -348.5v-481h-203v449q0 157 -46.5 238t-162.5 81q-86 0 -144 -72.5t-81 -187.5v-508h-201v1421q-2 0 -106 5.5t-152 5.5q-80 0 -120.5 -43t-40.5 -117q0 -174 192 -406l-55 -133q-40 25 -104 42.5t-132 17.5q-74 0 -121 -31.5t-47 -77.5
q0 -52 34.5 -79t109.5 -50q173 -46 249 -117.5t76 -185.5q0 -126 -99.5 -196t-250.5 -70q-105 0 -196.5 24t-149.5 60z" />
    <glyph glyph-name="uniF067" unicode="&#xf067;" horiz-adv-x="1871" 
d="M86 70l59 139q48 -34 123 -56t152 -22q76 0 122 31.5t46 81.5q0 53 -44.5 85t-154.5 64q-126 34 -197 104t-71 175q0 129 95 198.5t249 69.5q69 0 125 -12l2 4q-64 72 -108 169.5t-44 182.5q0 122 84 194t226 72q71 0 230 -7t220 -7v-1022h6l365 408h213l-320 -355
l338 -567h-223l-244 422l-135 -150v-272h-201v1421q-2 0 -106 5.5t-152 5.5q-80 0 -120.5 -43t-40.5 -117q0 -174 192 -406l-55 -133q-40 25 -104 42.5t-132 17.5q-74 0 -121 -31.5t-47 -77.5q0 -52 34.5 -79t109.5 -50q173 -46 249 -117.5t76 -185.5q0 -126 -99.5 -196
t-250.5 -70q-105 0 -196.5 24t-149.5 60z" />
    <glyph glyph-name="uniF068" unicode="&#xf068;" horiz-adv-x="1064" 
d="M88 412q0 155 69 276.5t182.5 185.5t248.5 64q128 0 348 -35v-674q0 -164 22 -229h-204q-7 32 -13 150h-6q-92 -166 -278 -166q-74 0 -138.5 24.5t-117 74.5t-83 134.5t-30.5 194.5zM295 428q0 -137 57 -215t162 -78q65 0 116 48t76 116t25 139v334q-108 16 -149 16
q-89 0 -155.5 -52t-99 -132.5t-32.5 -175.5z" />
    <glyph glyph-name="uniF069" unicode="&#xf069;" horiz-adv-x="1064" 
d="M457 -16q-74 0 -138.5 24.5t-117 74.5t-83 134.5t-30.5 194.5q0 155 69 276.5t182.5 185.5t248.5 64q128 0 348 -35v-674q0 -164 22 -229h-204q-7 32 -13 150h-6q-92 -166 -278 -166zM295 428q0 -137 57 -215t162 -78q65 0 116 48t76 116t25 139v334q-108 16 -149 16
q-89 0 -155.5 -52t-99 -132.5t-32.5 -175.5zM557 1092l-285 321h217l193 -321h-125z" />
    <glyph glyph-name="uniF06A" unicode="&#xf06a;" horiz-adv-x="1064" 
d="M457 -16q-74 0 -138.5 24.5t-117 74.5t-83 134.5t-30.5 194.5q0 155 69 276.5t182.5 185.5t248.5 64q128 0 348 -35v-674q0 -164 22 -229h-204q-7 32 -13 150h-6q-92 -166 -278 -166zM582 788q-89 0 -155.5 -52t-99 -132.5t-32.5 -175.5q0 -137 57 -215t162 -78
q65 0 116 48t76 116t25 139v334q-108 16 -149 16zM504 1092l192 321h217l-284 -321h-125z" />
    <glyph glyph-name="uniF06B" unicode="&#xf06b;" horiz-adv-x="1064" 
d="M457 -16q-74 0 -138.5 24.5t-117 74.5t-83 134.5t-30.5 194.5q0 155 69 276.5t182.5 185.5t248.5 64q128 0 348 -35v-674q0 -164 22 -229h-204q-7 32 -13 150h-6q-92 -166 -278 -166zM582 788q-89 0 -155.5 -52t-99 -132.5t-32.5 -175.5q0 -137 57 -215t162 -78
q65 0 116 48t76 116t25 139v334q-108 16 -149 16zM272 1085l234 320h164l233 -320h-127l-184 209h-6l-187 -209h-127z" />
    <glyph glyph-name="uniF06C" unicode="&#xf06c;" horiz-adv-x="1064" 
d="M88 412q0 155 69 276.5t182.5 185.5t248.5 64q128 0 348 -35v-674q0 -164 22 -229h-204q-7 32 -13 150h-6q-92 -166 -278 -166q-74 0 -138.5 24.5t-117 74.5t-83 134.5t-30.5 194.5zM582 788q-89 0 -155.5 -52t-99 -132.5t-32.5 -175.5q0 -137 57 -215t162 -78
q65 0 116 48t76 116t25 139v334q-108 16 -149 16zM348 1114h-115q14 97 66 162t147 65q39 0 70.5 -13.5t52.5 -32.5t39.5 -37.5t41 -32t48.5 -13.5q46 0 71.5 35.5t33.5 79.5h115q-8 -94 -65.5 -161.5t-154.5 -67.5q-39 0 -71 13t-53 31t-39.5 36.5t-41 31.5t-47.5 13
q-79 0 -98 -109z" />
    <glyph glyph-name="uniF06D" unicode="&#xf06d;" horiz-adv-x="1064" 
d="M88 412q0 155 69 276.5t182.5 185.5t248.5 64q128 0 348 -35v-674q0 -164 22 -229h-204q-7 32 -13 150h-6q-92 -166 -278 -166q-74 0 -138.5 24.5t-117 74.5t-83 134.5t-30.5 194.5zM582 788q-89 0 -155.5 -52t-99 -132.5t-32.5 -175.5q0 -137 57 -215t162 -78
q65 0 116 48t76 116t25 139v334q-108 16 -149 16zM774 1096q-51 0 -88 36.5t-37 86.5q0 52 37 88t88 36q50 0 86.5 -36t36.5 -88q0 -49 -36.5 -86t-86.5 -37zM285 1219q0 52 36 88t89 36q50 0 85 -36t35 -88q0 -50 -35.5 -86.5t-84.5 -36.5q-52 0 -88.5 36.5t-36.5 86.5z
" />
    <glyph glyph-name="uniF06E" unicode="&#xf06e;" horiz-adv-x="1064" 
d="M457 -16q-74 0 -138.5 24.5t-117 74.5t-83 134.5t-30.5 194.5q0 155 69 276.5t182.5 185.5t248.5 64q128 0 348 -35v-674q0 -164 22 -229h-204q-7 32 -13 150h-6q-92 -166 -278 -166zM295 428q0 -137 57 -215t162 -78q65 0 116 48t76 116t25 139v334q-108 16 -149 16
q-89 0 -155.5 -52t-99 -132.5t-32.5 -175.5zM598 965q-94 0 -160 59t-65 164q0 105 65.5 164t159.5 59q95 0 162 -59t67 -164t-67 -164t-162 -59zM489 1188q0 -53 30.5 -86t78.5 -33q50 0 81.5 32.5t31.5 86.5q0 52 -31.5 85.5t-81.5 33.5q-49 0 -79 -33t-30 -86z" />
    <glyph glyph-name="uniF06F" unicode="&#xf06f;" horiz-adv-x="1064" 
d="M457 -16q-74 0 -138.5 24.5t-117 74.5t-83 134.5t-30.5 194.5q0 155 69 276.5t182.5 185.5t248.5 64q128 0 348 -35v-674q0 -164 22 -229h-204q-7 32 -13 150h-6q-92 -166 -278 -166zM582 788q-89 0 -155.5 -52t-99 -132.5t-32.5 -175.5q0 -137 57 -215t162 -78
q65 0 116 48t76 116t25 139v334q-108 16 -149 16zM897 1102h-598v90h598v-90z" />
    <glyph glyph-name="uniF070" unicode="&#xf070;" horiz-adv-x="1064" 
d="M457 -16q-74 0 -138.5 24.5t-117 74.5t-83 134.5t-30.5 194.5q0 155 69 276.5t182.5 185.5t248.5 64q128 0 348 -35v-674q0 -164 22 -229h-204q-7 32 -13 150h-6q-92 -166 -278 -166zM582 788q-89 0 -155.5 -52t-99 -132.5t-32.5 -175.5q0 -137 57 -215t162 -78
q65 0 116 48t76 116t25 139v334q-108 16 -149 16zM276 1337h150q10 -73 48.5 -118t103.5 -45t104 45.5t47 117.5h150q-6 -74 -33.5 -130.5t-70.5 -89t-92.5 -48.5t-104.5 -16t-105 16t-92.5 48.5t-70.5 89t-34 130.5z" />
    <glyph glyph-name="uniF071" unicode="&#xf071;" horiz-adv-x="1064" 
d="M457 -16q-74 0 -138.5 24.5t-117 74.5t-83 134.5t-30.5 194.5q0 155 69 276.5t182.5 185.5t248.5 64q128 0 348 -35v-674q0 -164 22 -229h-14q-41 0 -85 -52t-44 -112q0 -38 20 -56t46 -18q29 0 55 17v-92q-42 -21 -82 -21q-66 0 -111 34.5t-45 111.5q0 53 31.5 102.5
t77.5 85.5h-53q-7 32 -13 150h-6q-92 -166 -278 -166zM295 428q0 -137 57 -215t162 -78q65 0 116 48t76 116t25 139v334q-108 16 -149 16q-89 0 -155.5 -52t-99 -132.5t-32.5 -175.5z" />
    <glyph glyph-name="uniF072" unicode="&#xf072;" horiz-adv-x="1064" 
d="M88 412q0 155 69 276.5t182.5 185.5t248.5 64q128 0 348 -35v-674q0 -164 22 -229h-204q-7 32 -13 150h-6q-92 -166 -278 -166q-74 0 -138.5 24.5t-117 74.5t-83 134.5t-30.5 194.5zM582 788q-89 0 -155.5 -52t-99 -132.5t-32.5 -175.5q0 -137 57 -215t162 -78
q65 0 116 48t76 116t25 139v334q-108 16 -149 16zM600 954q-89 0 -150 53.5t-61 151.5t62 152.5t149 54.5q25 0 49 -6l123 207h199l-228 -256q68 -51 68 -152q0 -98 -61 -151.5t-150 -53.5zM498 1159q0 -51 28 -80.5t74 -29.5q45 0 75 30t30 80q0 49 -29.5 81t-75.5 32
t-74 -31t-28 -82z" />
    <glyph glyph-name="uniF073" unicode="&#xf073;" horiz-adv-x="1064" 
d="M457 -16q-74 0 -138.5 24.5t-117 74.5t-83 134.5t-30.5 194.5q0 155 69 276.5t182.5 185.5t248.5 64q128 0 348 -35v-674q0 -164 22 -229h-204q-7 32 -13 150h-6q-92 -166 -278 -166zM582 788q-89 0 -155.5 -52t-99 -132.5t-32.5 -175.5q0 -137 57 -215t162 -78
q65 0 116 48t76 116t25 139v334q-108 16 -149 16zM541 -358q-51 0 -88 36t-37 86q0 52 37 88.5t88 36.5q50 0 86.5 -36.5t36.5 -88.5q0 -49 -36.5 -85.5t-86.5 -36.5z" />
    <glyph glyph-name="uniF074" unicode="&#xf074;" horiz-adv-x="1064" 
d="M455 -508q-99 0 -207 25.5t-162 60.5l64 150q47 -34 129.5 -56t160.5 -22q84 0 144 32.5t92.5 90t46.5 125t14 149.5v103h-6q-97 -166 -274 -166q-74 0 -138.5 24.5t-117 74.5t-83 134.5t-30.5 194.5q0 155 69 276.5t182.5 185.5t248.5 64q128 0 348 -35v-856
q0 -122 -27 -221t-83 -175t-150.5 -117.5t-220.5 -41.5zM295 428q0 -137 57 -215t162 -78q65 0 116 48t76 116t25 139v334q-108 16 -149 16q-89 0 -155.5 -52t-99 -132.5t-32.5 -175.5z" />
    <glyph glyph-name="uniF075" unicode="&#xf075;" horiz-adv-x="1064" 
d="M86 -422l64 150q47 -34 129.5 -56t160.5 -22q84 0 144 32.5t92.5 90t46.5 125t14 149.5v103h-6q-97 -166 -274 -166q-74 0 -138.5 24.5t-117 74.5t-83 134.5t-30.5 194.5q0 155 69 276.5t182.5 185.5t248.5 64q128 0 348 -35v-856q0 -122 -27 -221t-83 -175
t-150.5 -117.5t-220.5 -41.5q-99 0 -207 25.5t-162 60.5zM295 428q0 -137 57 -215t162 -78q65 0 116 48t76 116t25 139v334q-108 16 -149 16q-89 0 -155.5 -52t-99 -132.5t-32.5 -175.5zM379 1085h-127l233 320h162l234 -320h-127l-185 209h-6z" />
    <glyph glyph-name="uniF076" unicode="&#xf076;" horiz-adv-x="1064" 
d="M455 -508q-99 0 -207 25.5t-162 60.5l64 150q47 -34 129.5 -56t160.5 -22q84 0 144 32.5t92.5 90t46.5 125t14 149.5v103h-6q-97 -166 -274 -166q-74 0 -138.5 24.5t-117 74.5t-83 134.5t-30.5 194.5q0 155 69 276.5t182.5 185.5t248.5 64q128 0 348 -35v-856
q0 -122 -27 -221t-83 -175t-150.5 -117.5t-220.5 -41.5zM582 788q-89 0 -155.5 -52t-99 -132.5t-32.5 -175.5q0 -137 57 -215t162 -78q65 0 116 48t76 116t25 139v334q-108 16 -149 16zM266 1337h150q10 -73 48 -118t103 -45t103.5 45t48.5 118h149q-6 -74 -33.5 -130.5
t-70.5 -89t-92.5 -48.5t-104.5 -16t-104.5 16t-92.5 48.5t-70.5 89t-33.5 130.5z" />
    <glyph glyph-name="uniF077" unicode="&#xf077;" horiz-adv-x="1064" 
d="M86 -422l64 150q47 -34 129.5 -56t160.5 -22q84 0 144 32.5t92.5 90t46.5 125t14 149.5v103h-6q-97 -166 -274 -166q-74 0 -138.5 24.5t-117 74.5t-83 134.5t-30.5 194.5q0 155 69 276.5t182.5 185.5t248.5 64q128 0 348 -35v-856q0 -122 -27 -221t-83 -175
t-150.5 -117.5t-220.5 -41.5q-99 0 -207 25.5t-162 60.5zM295 428q0 -137 57 -215t162 -78q65 0 116 48t76 116t25 139v334q-108 16 -149 16q-89 0 -155.5 -52t-99 -132.5t-32.5 -175.5zM442 1219q0 52 36 88t87 36t87 -36t36 -88q0 -50 -36 -86.5t-87 -36.5t-87 36.5
t-36 86.5z" />
    <glyph glyph-name="uniF078" unicode="&#xf078;" horiz-adv-x="1064" 
d="M86 -422l64 150q47 -34 129.5 -56t160.5 -22q84 0 144 32.5t92.5 90t46.5 125t14 149.5v103h-6q-97 -166 -274 -166q-74 0 -138.5 24.5t-117 74.5t-83 134.5t-30.5 194.5q0 155 69 276.5t182.5 185.5t248.5 64q128 0 348 -35v-856q0 -122 -27 -221t-83 -175
t-150.5 -117.5t-220.5 -41.5q-99 0 -207 25.5t-162 60.5zM582 788q-89 0 -155.5 -52t-99 -132.5t-32.5 -175.5q0 -137 57 -215t162 -78q65 0 116 48t76 116t25 139v334q-108 16 -149 16zM461 1085q-23 118 50 213t194 107v-96q-59 -21 -88.5 -76t-12.5 -148h-143z" />
    <glyph glyph-name="uniF079" unicode="&#xf079;" horiz-adv-x="1064" 
d="M455 -508q-99 0 -207 25.5t-162 60.5l64 150q47 -34 129.5 -56t160.5 -22q84 0 144 32.5t92.5 90t46.5 125t14 149.5v103h-6q-97 -166 -274 -166q-74 0 -138.5 24.5t-117 74.5t-83 134.5t-30.5 194.5q0 155 69 276.5t182.5 185.5t248.5 64q128 0 348 -35v-856
q0 -122 -27 -221t-83 -175t-150.5 -117.5t-220.5 -41.5zM582 788q-89 0 -155.5 -52t-99 -132.5t-32.5 -175.5q0 -137 57 -215t162 -78q65 0 116 48t76 116t25 139v334q-108 16 -149 16zM492 1085l-234 320h127l186 -207h7l184 207h127l-234 -320h-163z" />
    <glyph glyph-name="uniF636" unicode="&#xf636;" horiz-adv-x="821" 
d="M227 930h-104q32 90 57 224t25 280h149q0 -145 -38.5 -278.5t-88.5 -225.5zM457 940q82 230 82 494h149q0 -254 -125 -494h-106z" />
    <glyph glyph-name="uniF637" unicode="&#xf637;" horiz-adv-x="487" 
d="M227 940h-104q82 230 82 494h149q0 -259 -127 -494z" />
    <glyph glyph-name="uniF638" unicode="&#xf638;" horiz-adv-x="487" 
d="M256 940h-150q0 259 127 494h105q-82 -230 -82 -494z" />
    <glyph glyph-name="uniF639" unicode="&#xf639;" horiz-adv-x="487" 
d="M227 940h-104q82 230 82 494h149q0 -259 -127 -494z" />
    <glyph glyph-name="uniF63A" unicode="&#xf63a;" horiz-adv-x="821" 
d="M590 940h-148q0 145 38 279t87 225h105q-32 -90 -57 -224t-25 -280zM256 940h-150q0 259 127 494h105q-82 -230 -82 -494z" />
    <glyph glyph-name="uniF63B" unicode="&#xf63b;" horiz-adv-x="821" 
d="M227 930h-104q32 90 57 224t25 280h149q0 -145 -38.5 -278.5t-88.5 -225.5zM457 940q82 230 82 494h149q0 -254 -125 -494h-106z" />
    <glyph glyph-name="uniF63C" unicode="&#xf63c;" horiz-adv-x="940" 
d="M733 236l-362 413v37l364 412h94l-362 -416v-18l362 -428h-96zM113 649v37l364 412h94l-362 -416v-18l362 -428h-96z" />
    <glyph glyph-name="uniF63D" unicode="&#xf63d;" horiz-adv-x="940" 
d="M707 682l-365 416h96l363 -412v-37l-361 -413h-98l365 428v18zM449 682l-365 416h96l363 -412v-37l-361 -413h-98l365 428v18z" />
    <glyph glyph-name="uniF63E" unicode="&#xf63e;" horiz-adv-x="681" 
d="M209 664l362 -428h-96l-362 413v37l364 412h94l-362 -416v-18z" />
    <glyph glyph-name="uniF63F" unicode="&#xf63f;" horiz-adv-x="681" 
d="M84 236l365 428v18l-365 416h96l363 -412v-37l-361 -413h-98z" />
    <glyph glyph-name="uniF640" unicode="&#xf640;" horiz-adv-x="503" 
d="M119 369q0 55 39.5 95t95.5 40q53 0 92 -40t39 -95q0 -54 -39 -93.5t-92 -39.5q-55 0 -95 39.5t-40 93.5zM119 1069q0 55 39.5 94t95.5 39q53 0 92 -39t39 -94q0 -54 -39 -93.5t-92 -39.5q-55 0 -95 39.5t-40 93.5z" />
    <glyph glyph-name="uniF641" unicode="&#xf641;" horiz-adv-x="503" 
d="M449 -143h-334v1679h334v-84h-203v-1511h203v-84z" />
    <glyph glyph-name="uniF642" unicode="&#xf642;" horiz-adv-x="503" 
d="M362 -143h-333v84h202v1511h-202v84h333v-1679z" />
    <glyph glyph-name="uniF643" unicode="&#xf643;" horiz-adv-x="512" 
d="M121 -2l45 960h123l45 -960h-213zM223 1180q-54 0 -92.5 39.5t-38.5 95.5q0 54 38.5 92.5t92.5 38.5q56 0 95.5 -38.5t39.5 -92.5q0 -55 -40 -95t-95 -40z" />
    <glyph glyph-name="uniF644" unicode="&#xf644;" horiz-adv-x="978" 
d="M481 -18q-193 0 -309.5 94.5t-116.5 259.5q0 64 17.5 117t52 94.5t65 69.5t76.5 63.5t68 56.5q66 62 95.5 124t29.5 143h190q6 -98 -27 -182t-130 -183q-18 -19 -51 -46.5t-60 -51t-53.5 -53.5t-42 -67t-15.5 -79q0 -95 68 -146t166 -51q150 0 317 111l84 -143
q-101 -63 -196 -97t-228 -34zM543 1184q-54 0 -92.5 39t-38.5 94q0 54 38.5 93.5t92.5 39.5q55 0 94 -39.5t39 -93.5q0 -55 -39 -94t-94 -39z" />
    <glyph glyph-name="uniF645" unicode="&#xf645;" horiz-adv-x="727" 
d="M102 614v119q86 0 140.5 61t54.5 164v336q0 118 84.5 180t247.5 62v-86q-197 0 -197 -182v-326q0 -97 -51 -171.5t-154 -96.5q103 -22 154 -96.5t51 -171.5v-281q0 -182 197 -182v-86q-163 0 -247.5 61.5t-84.5 179.5v293q0 101 -54.5 162t-140.5 61z" />
    <glyph glyph-name="uniF646" unicode="&#xf646;" horiz-adv-x="729" 
d="M74 -143v86q196 0 196 182v281q0 97 51 171.5t154 96.5q-103 22 -154 96.5t-51 171.5v326q0 182 -196 182v86q163 0 247.5 -62t84.5 -180v-336q0 -103 54 -164t140 -61v-119q-86 0 -140 -61t-54 -162v-293q0 -118 -84.5 -179.5t-247.5 -61.5z" />
    <glyph glyph-name="uniF647" unicode="&#xf647;" horiz-adv-x="794" 
d="M74 1819h211l170 -283h-146z" />
    <glyph glyph-name="uniF648" unicode="&#xf648;" horiz-adv-x="925" 
d="M676 1559q-52 0 -90.5 38t-38.5 89q0 54 38 91.5t91 37.5t91 -37.5t38 -91.5q0 -51 -38.5 -89t-90.5 -38zM121 1686q0 54 37.5 91.5t91.5 37.5q52 0 89.5 -37.5t37.5 -91.5q0 -51 -38 -89t-89 -38q-54 0 -91.5 37.5t-37.5 89.5z" />
    <glyph glyph-name="uniF649" unicode="&#xf649;" horiz-adv-x="1024" 
d="M127 1593v90h778v-90h-778z" />
    <glyph glyph-name="uniF64A" unicode="&#xf64a;" horiz-adv-x="794" 
d="M512 1819h211l-236 -283h-145z" />
    <glyph glyph-name="uniF64B" unicode="&#xf64b;" horiz-adv-x="544" 
d="M109 1536h-150l234 268h161l232 -268h-150l-160 154h-8z" />
    <glyph glyph-name="uniF64C" unicode="&#xf64c;" horiz-adv-x="544" 
d="M-41 1804h150l159 -151h8l160 151h150l-232 -268h-161z" />
    <glyph glyph-name="uniF64D" unicode="&#xf64d;" horiz-adv-x="1058" 
d="M215 1769h154q9 -69 51 -108t108 -39q67 0 110 39t52 108h154q-6 -75 -37 -130.5t-78 -84.5t-97 -42t-104 -13q-42 0 -81.5 7.5t-80.5 27t-72 49t-52.5 77.5t-26.5 109z" />
    <glyph glyph-name="uniF64E" unicode="&#xf64e;" horiz-adv-x="503" 
d="M125 1686q0 54 37.5 91.5t91.5 37.5q52 0 89.5 -37.5t37.5 -91.5q0 -51 -38 -89t-89 -38q-54 0 -91.5 37.5t-37.5 89.5z" />
    <glyph glyph-name="uniF64F" unicode="&#xf64f;" horiz-adv-x="645" 
d="M319 1466q-97 0 -163 58.5t-66 165.5q0 105 67 164t162 59q94 0 161 -59t67 -164q0 -107 -66 -165.5t-162 -58.5zM205 1690q0 -55 31.5 -88t82.5 -33q50 0 82.5 33t32.5 88q0 54 -32.5 88t-82.5 34q-52 0 -83 -33.5t-31 -88.5z" />
    <glyph glyph-name="uniF650" unicode="&#xf650;" horiz-adv-x="571" 
d="M291 -10q-116 0 -180 83t-64 226q0 137 65 222t179 85q111 0 173 -85t62 -222q0 -144 -60.5 -226.5t-174.5 -82.5zM160 299q0 -102 33 -157.5t96 -55.5q125 0 125 213t-125 213q-62 0 -95.5 -56t-33.5 -157z" />
    <glyph glyph-name="uniF651" unicode="&#xf651;" horiz-adv-x="401" 
d="M82 395l-45 74l182 119h76v-588h-109v461h-4z" />
    <glyph glyph-name="uniF652" unicode="&#xf652;" horiz-adv-x="550" 
d="M61 469q87 141 224 141q84 0 136 -45t52 -121q0 -42 -18.5 -82t-38 -62.5t-51.5 -53.5l-144 -148v-4h266v-94h-417v84l209 207q27 27 39 40t29.5 44.5t17.5 60.5q0 37 -24 59.5t-65 22.5q-32 0 -58.5 -15.5t-41 -32.5t-35.5 -48z" />
    <glyph glyph-name="uniF653" unicode="&#xf653;" horiz-adv-x="550" 
d="M264 -8q-130 0 -207 63l47 78q72 -53 156 -53q55 0 88 24t33 70t-35 71t-96 25h-60v74h60q57 0 87 24.5t30 65.5q-3 78 -97 78q-74 0 -147 -57l-45 73q90 74 198 74q88 0 139.5 -37t51.5 -116q0 -51 -22 -80.5t-62 -49.5v-4q106 -43 106 -149q0 -49 -20.5 -84.5t-55 -54
t-71.5 -27t-78 -8.5z" />
    <glyph glyph-name="uniF654" unicode="&#xf654;" horiz-adv-x="579" 
d="M76 176l305 412h84v-406h67v-80h-67v-106h-105v106h-284v74zM180 182h180v248h-2l-178 -244v-4z" />
    <glyph glyph-name="uniF655" unicode="&#xf655;" horiz-adv-x="546" 
d="M264 -16q-66 0 -125 22t-98 53l47 80q29 -21 48 -33t51 -23t65 -11q67 0 105 34.5t38 92.5q0 116 -114 116q-71 0 -125 -39l-56 41l15 273h348v-90h-268l-9 -135l4 -3q60 31 125 31q38 0 70.5 -9.5t61 -31t45 -61t16.5 -94.5q0 -73 -38 -123t-91 -70t-115 -20z" />
    <glyph glyph-name="uniF656" unicode="&#xf656;" horiz-adv-x="557" 
d="M289 -8q-113 0 -177.5 73t-64.5 195q0 170 74.5 258t193.5 88q96 0 185 -57l-56 -74q-67 43 -125 43q-74 0 -115.5 -56.5t-43.5 -131.5h4q19 26 57 44.5t82 18.5q95 0 150 -54.5t55 -139.5q0 -89 -58 -148t-161 -59zM170 203q0 -62 35 -97.5t84 -35.5q47 0 79.5 33
t32.5 96t-32.5 94t-79.5 31q-51 0 -85 -31.5t-34 -89.5z" />
    <glyph glyph-name="uniF657" unicode="&#xf657;" horiz-adv-x="495" 
d="M336 494h-289v94h406v-78q-93 -150 -140.5 -253t-87.5 -259h-114q47 158 93 255t132 236v5z" />
    <glyph glyph-name="uniF658" unicode="&#xf658;" horiz-adv-x="559" 
d="M281 -10q-110 0 -172 46.5t-62 123.5q0 114 113 159v5q-76 42 -76 129q0 67 54 110t141 43q89 0 142.5 -43t53.5 -110q0 -88 -74 -129v-5q111 -41 111 -159q0 -76 -61.5 -123t-169.5 -47zM279 281q-55 0 -87 -30t-32 -85q0 -50 30.5 -77.5t88.5 -27.5q120 0 120 105
q0 55 -32 85t-88 30zM186 453q0 -42 25.5 -68.5t67.5 -26.5q46 0 70 26t24 69q0 35 -24.5 60.5t-69.5 25.5q-43 0 -67 -25.5t-26 -60.5z" />
    <glyph glyph-name="uniF659" unicode="&#xf659;" horiz-adv-x="557" 
d="M49 399q0 89 58 148t161 59q113 0 177.5 -73.5t64.5 -196.5q0 -169 -74.5 -256.5t-193.5 -87.5q-103 0 -185 57l56 72q1 0 11.5 -6.5t13 -8t13 -7t15.5 -7t15 -5.5t18 -5t18.5 -2.5t20.5 -1.5q74 0 115.5 57t43.5 133h-4q-19 -26 -57 -44.5t-82 -18.5q-96 0 -150.5 54.5
t-54.5 139.5zM156 399q0 -63 32.5 -95t79.5 -32q50 0 84.5 32t34.5 91q0 60 -35 95.5t-84 35.5q-47 0 -79.5 -32.5t-32.5 -94.5z" />
    <glyph glyph-name="uniF65A" unicode="&#xf65a;" horiz-adv-x="944" 
d="M121 1556q13 94 65.5 155t147.5 61q48 0 87 -18.5t59.5 -40t49 -40t58.5 -18.5q46 0 70.5 29.5t31.5 72.5h119q-8 -94 -63.5 -156.5t-151.5 -62.5q-49 0 -88.5 17.5t-61.5 39t-51 39t-59 17.5q-46 0 -66.5 -25.5t-29.5 -69.5h-117z" />
    <glyph glyph-name="uniF65B" unicode="&#xf65b;" horiz-adv-x="1026" 
d="M530 1536l170 283h211l-235 -283h-146zM180 1536l172 283h209l-233 -283h-148z" />
    <glyph glyph-name="uniF65C" unicode="&#xf65c;" horiz-adv-x="507" 
d="M154 0v922h202v-922h-202zM121 1323q0 56 38 95.5t93 39.5q54 0 93.5 -40t39.5 -95q0 -52 -39.5 -90.5t-93.5 -38.5q-55 0 -93 38t-38 91z" />
    <glyph glyph-name="uniF660" unicode="&#xf660;" horiz-adv-x="571" 
d="M291 727q-116 0 -180 83t-64 226q0 137 65 222t179 85q111 0 173 -85t62 -222q0 -144 -60.5 -226.5t-174.5 -82.5zM160 1036q0 -102 33 -157.5t96 -55.5q125 0 125 213t-125 213q-62 0 -95.5 -56t-33.5 -157z" />
    <glyph glyph-name="uniF661" unicode="&#xf661;" horiz-adv-x="401" 
d="M82 1153l-45 74l182 119h76v-588h-109v461h-4z" />
    <glyph glyph-name="uniF662" unicode="&#xf662;" horiz-adv-x="550" 
d="M61 1206q87 142 224 142q84 0 136 -45t52 -121q0 -42 -18.5 -82t-38.5 -63.5t-51 -53.5l-144 -147v-5h266v-94h-417v84l209 207q26 26 39 40t30 45.5t17 60.5q0 37 -24 59t-65 22q-32 0 -58.5 -15.5t-41 -32.5t-35.5 -48z" />
    <glyph glyph-name="uniF663" unicode="&#xf663;" horiz-adv-x="550" 
d="M264 729q-129 0 -207 64l47 77q72 -53 156 -53q55 0 88 24t33 70q0 47 -35 72t-96 25h-60v73h60q57 0 87 24.5t30 65.5q-3 78 -97 78q-74 0 -147 -57l-45 74q89 73 198 73q88 0 139.5 -37t51.5 -116q0 -51 -22 -80t-62 -49v-4q106 -43 106 -150q0 -49 -20.5 -84.5
t-55 -54t-71.5 -27t-78 -8.5z" />
    <glyph glyph-name="uniF664" unicode="&#xf664;" horiz-adv-x="559" 
d="M55 840v73l305 412h84v-405h68v-80h-68v-107h-104v107h-285zM338 1167l-178 -243v-4h180v247h-2z" />
    <glyph glyph-name="uniF665" unicode="&#xf665;" horiz-adv-x="546" 
d="M264 721q-125 0 -223 76l47 80q30 -22 48.5 -33.5t50.5 -23t65 -11.5q67 0 105 34.5t38 92.5q0 117 -114 117q-71 0 -125 -39l-56 41l15 272h348v-90h-268l-9 -135l4 -2q58 30 125 30q38 0 70.5 -9.5t61 -31t45 -61t16.5 -94.5q0 -73 -38 -123t-91 -70t-115 -20z" />
    <glyph glyph-name="uniF666" unicode="&#xf666;" horiz-adv-x="557" 
d="M289 729q-113 0 -177.5 73t-64.5 195q0 170 74.5 258t193.5 88q96 0 185 -57l-56 -74q-67 43 -125 43q-74 0 -115.5 -56.5t-43.5 -131.5h4q19 26 57 44.5t82 18.5q95 0 150 -55t55 -139q0 -89 -58 -148t-161 -59zM170 940q0 -62 35 -97.5t84 -35.5q47 0 79.5 33t32.5 96
t-32.5 94t-79.5 31q-51 0 -85 -31.5t-34 -89.5z" />
    <glyph glyph-name="uniF667" unicode="&#xf667;" horiz-adv-x="495" 
d="M336 1231h-289v94h406v-78q-93 -150 -140.5 -253t-87.5 -259h-114q47 158 93 256t132 236v4z" />
    <glyph glyph-name="uniF668" unicode="&#xf668;" horiz-adv-x="559" 
d="M281 727q-110 0 -172 46.5t-62 123.5q0 115 113 160v4q-76 42 -76 129q0 67 54 110t141 43q89 0 142.5 -43t53.5 -110q0 -88 -74 -129v-4q111 -41 111 -160q0 -77 -61.5 -123.5t-169.5 -46.5zM279 1018q-55 0 -87 -30t-32 -85q0 -50 30.5 -77t88.5 -27q120 0 120 104
q0 55 -32 85t-88 30zM186 1190q0 -42 25.5 -68t67.5 -26q46 0 70 25.5t24 68.5q0 35 -24.5 60.5t-69.5 25.5q-43 0 -67 -25.5t-26 -60.5z" />
    <glyph glyph-name="uniF669" unicode="&#xf669;" horiz-adv-x="557" 
d="M49 1137q0 89 58 147.5t161 58.5q113 0 177.5 -73.5t64.5 -196.5q0 -169 -74.5 -256.5t-193.5 -87.5q-103 0 -185 57l56 72q1 0 11.5 -6.5t13 -8t13 -7t15.5 -7t15 -5.5t18 -5t18.5 -2.5t20.5 -1.5q74 0 115.5 57.5t43.5 133.5h-4q-19 -26 -57 -45t-82 -19q-95 0 -150 55
t-55 140zM156 1137q0 -63 32.5 -95t79.5 -32q50 0 84.5 32t34.5 91q0 60 -35 95.5t-84 35.5q-47 0 -79.5 -32.5t-32.5 -94.5z" />
    <glyph glyph-name="uniF66A" unicode="&#xf66a;" horiz-adv-x="851" 
d="M104 616v117h644v-117h-644z" />
    <glyph glyph-name="uniF66B" unicode="&#xf66b;" horiz-adv-x="1228" 
d="M104 616v117h1020v-117h-1020z" />
    <glyph glyph-name="uniF66C" unicode="&#xf66c;" horiz-adv-x="1896" 
d="M104 616v117h1688v-117h-1688z" />
    <glyph glyph-name="uniF66D" unicode="&#xf66d;" horiz-adv-x="1191" 
d="M1071 184l-965 457v115l965 442v-162l-745 -331v-9l745 -338v-174z" />
    <glyph glyph-name="uniF66E" unicode="&#xf66e;" horiz-adv-x="757" 
d="M145 0h-135l621 1434h135z" />
    <glyph glyph-name="uniF66F" unicode="&#xf66f;" horiz-adv-x="1191" 
d="M82 358l745 338v9l-745 331v162l962 -442v-115l-962 -457v174z" />
    <glyph glyph-name="s_t" unicode="&#xfb06;" horiz-adv-x="1552" 
d="M432 -14q-105 0 -196.5 24t-149.5 60l59 139q48 -34 123 -56t152 -22q76 0 122 31.5t46 81.5q0 53 -44.5 85t-154.5 64q-126 34 -197 104t-71 175q0 129 95 198.5t249 69.5q71 0 115 -10l2 4q-140 129 -140 270q0 107 75.5 175.5t209.5 68.5q97 0 272 -57t230 -60v-409
h256v-148h-248v-452q0 -113 36 -156t97 -43q60 0 107 33v-113q-20 -20 -79.5 -36.5t-103.5 -16.5q-258 0 -258 301v483h-118v119l131 29v307q-14 5 -82 35.5t-121.5 46.5t-102.5 16q-80 0 -117.5 -39.5t-37.5 -109.5q0 -27 8 -55t16.5 -48t31.5 -51.5t35.5 -46.5t46.5 -55
t48 -56l-57 -133q-40 25 -104 42.5t-132 17.5q-74 0 -121 -31.5t-47 -77.5q0 -52 34.5 -79t109.5 -50q173 -46 249 -117.5t76 -185.5q0 -126 -99.5 -196t-250.5 -70z" />
    </font>
</defs>
</svg>
