<?xml version="1.0" standalone="no"?>
<!DOCTYPE svg PUBLIC "-//W3C//DTD SVG 1.1//EN" "http://www.w3.org/Graphics/SVG/1.1/DTD/svg11.dtd" >
<svg xmlns="http://www.w3.org/2000/svg" xmlns:xlink="http://www.w3.org/1999/xlink" version="1.1">
<metadata>
Created by FontForge 20170731 at Sun Aug  6 18:09:18 2023
 By Aleksey,,,
All rights reserved (c)2020 Nasir Udin.
</metadata>
<defs>
<font id="ProdaSans-Italic" horiz-adv-x="1028" >
  <font-face 
    font-family="Proda Sans Ita"
    font-weight="400"
    font-style="italic"
    font-stretch="normal"
    units-per-em="2048"
    panose-1="2 11 0 0 4 0 0 0 0 3"
    ascent="1536"
    descent="-512"
    x-height="922"
    cap-height="1434"
    bbox="-377 -524 2339.54 2003"
    underline-thickness="102"
    underline-position="-358"
    slope="-10"
    unicode-range="U+000D-FB06"
  />
<missing-glyph horiz-adv-x="854" 
d="M778 0h-702l254 1434h702zM393 1352l-225 -1270h547l225 1270h-547z" />
    <glyph glyph-name="uniF058" unicode="ffb" horiz-adv-x="2250" 
d="M-199 -510l31 172h35q60 0 108.5 20t83.5 71t56.5 86t42.5 119.5t26.5 113.5t21.5 122q7 42 11 62l92 524h-133l23 127l137 15l14 88q44 244 164.5 364.5t286.5 120.5q108 0 184 -37l-29 -166q-76 37 -147 37q-111 0 -176 -91t-96 -265l-11 -51h396l22 129
q44 243 170 364t293 121q91 0 182 -31l6 31h191l-129 -727h6q113 129 272 129q171 0 259.5 -126t48.5 -351q-20 -113 -68 -205t-113 -150.5t-140 -90t-153 -31.5q-172 0 -243 145h-6l-33 -129h-166l238 1339q-78 31 -146 31q-111 0 -182 -93t-101 -263l-16 -92h254l-25 -142
h-253l-95 -524q-46 -253 -77 -356q-76 -249 -229 -343q-108 -67 -265 -67h-35l29 172h37q40 0 75 11t62 27.5t51 46.5t40.5 56t32.5 69.5t25.5 73t20 80.5t15.5 78t14 79.5t12 72.5l94 524h-395l-92 -524q-14 -80 -22 -122.5t-25 -119t-32 -119.5t-41 -106t-54 -100
t-69.5 -80t-88.5 -65.5t-108.5 -38t-133.5 -15.5h-35zM1595 455q-24 -130 21.5 -225t138.5 -95q103 0 182 94t105 232q24 140 -20 230.5t-152 90.5q-101 -1 -175.5 -91t-99.5 -236z" />
    <glyph glyph-name="uniF059" unicode="fb" horiz-adv-x="1662" 
d="M-164 -510h-35l31 172h35q60 0 108.5 20t83.5 71t56.5 86t42.5 119.5t26.5 113.5t21.5 122q7 42 11 62l92 524h-133l23 127l137 15l22 129q22 124 67.5 218.5t107.5 152t134.5 86t153.5 28.5q94 0 180 -31l7 31h192l-129 -727h6q110 129 273 129q171 0 258 -125.5
t47 -351.5q-40 -223 -174.5 -350t-296.5 -127q-173 0 -244 145h-6l-33 -129h-166l238 1339q-82 31 -146 31q-218 0 -284 -356l-17 -92h256l-24 -142h-256l-92 -524q-46 -255 -80 -363q-79 -250 -237 -341q-107 -62 -257 -62zM1008 455q-13 -87 -0.5 -158.5t55.5 -116.5
t106 -45q103 0 182 94t103 232q26 139 -17.5 230t-152.5 91q-100 -1 -174.5 -91t-101.5 -236z" />
    <glyph glyph-name="uniF05A" unicode="ffh" horiz-adv-x="2224" 
d="M-164 -510h-35l31 172h35q60 0 108.5 20t83.5 71t56.5 86t42.5 119.5t26.5 113.5t21.5 122q7 42 11 62l92 524h-133l23 127l137 15l14 88q44 244 164.5 364.5t286.5 120.5q108 0 184 -37l-29 -166q-76 37 -147 37q-111 0 -176 -91t-96 -265l-11 -51h396l22 129
q44 243 170 364t293 121q91 0 182 -31l6 31h191l-133 -756h6q51 69 124.5 115.5t160.5 46.5q177 0 239.5 -112.5t20.5 -348.5l-86 -481h-193l80 449q16 98 13.5 168.5t-41.5 110.5t-115 40q-81 0 -149 -73t-109 -187l-91 -508h-192l238 1339q-82 31 -146 31q-111 0 -182 -93
t-101 -263l-16 -92h254l-25 -142h-256l-92 -524q-46 -253 -77 -356q-76 -249 -229 -343q-108 -67 -265 -67h-35l29 172h37q40 0 75 11t62 27.5t51 46.5t40.5 56t32.5 69.5t25.5 73t20 80.5t15.5 78t14 79.5t12 72.5l94 524h-395l-92 -524q-47 -256 -83 -367
q-83 -254 -248 -344q-103 -55 -243 -55z" />
    <glyph glyph-name="uniF05B" unicode="fh" horiz-adv-x="1636" 
d="M-164 -510h-35l31 172h35q60 0 108.5 20t83.5 71t56.5 86t42.5 119.5t26.5 113.5t21.5 122q7 42 11 62l92 524h-133l23 127l137 15l22 129q22 124 67.5 218.5t107.5 152t134.5 86t153.5 28.5q94 0 180 -31l7 31h192l-135 -756h6q53 69 127 115.5t160 46.5
q177 0 238.5 -112t19.5 -349l-86 -481h-191l78 449q16 98 14 168.5t-40.5 110.5t-114.5 40q-81 0 -149 -73t-109 -187l-90 -508h-193l238 1339q-82 31 -146 31q-218 0 -284 -356l-17 -92h256l-24 -142h-256l-92 -524q-46 -255 -80 -363q-79 -250 -237 -341
q-107 -62 -257 -62z" />
    <glyph glyph-name="uniF05C" unicode="ffj" horiz-adv-x="1644" 
d="M-164 -510h-35l31 172h35q60 0 108.5 20t83.5 71t56.5 86t42.5 119.5t26.5 113.5t21.5 122q7 42 11 62l92 524h-133l23 127l137 15l14 88q44 244 164.5 364.5t286.5 120.5q108 0 184 -37l-29 -166q-76 37 -149 37q-110 0 -174.5 -91t-95.5 -265l-11 -51h396l22 129
q22 124 69 219t113 153.5t144 87.5t166 29q80 0 154 -19t120 -42l-102 -158q-25 19 -77 35t-95 16q-123 0 -199.5 -93.5t-106.5 -264.5l-16 -92h547l-154 -865q-22 -126 -61.5 -222t-101.5 -167.5t-153 -109t-208 -37.5l29 166q127 0 199 92t108 293l125 708h-357l-92 -524
q-46 -253 -77 -356q-76 -249 -229 -343q-108 -67 -265 -67h-35l29 172h37q40 0 75 11t62 27.5t51 46.5t40.5 56t32.5 69.5t25.5 73t20 80.5t15.5 78t14 79.5t12 72.5l94 524h-395l-92 -524q-14 -80 -22 -122.5t-25 -119t-32 -119.5t-41 -106t-54 -100t-69.5 -80t-88.5 -65.5
t-108.5 -38t-133.5 -15.5z" />
    <glyph glyph-name="uniF05D" unicode="fj" horiz-adv-x="1058" 
d="M-184 -510l-6 45l43 127q49 0 88.5 28.5t63.5 70t43.5 100.5t29.5 106t20 101q3 16 4 24q18 13 34.5 33t31 49.5t25.5 55.5t22 67.5t18 68t16 74t13 68t11.5 67.5t9.5 56l26 149h-133l23 127l137 15l22 129q22 124 69 219t112 153.5t143 87.5t166 29q81 0 156 -19
t120 -42l-102 -158q-27 19 -78 35t-94 16q-122 0 -198.5 -93.5t-108.5 -264.5l-17 -92h549l-157 -893q-23 -126 -63 -222t-102.5 -168t-153.5 -109.5t-208 -37.5l31 166q127 0 198 92t107 293l131 737h-356l-66 -374q-37 -214 -62 -300q-87 -304 -255 -325q-13 -64 -24 -103
t-33 -79t-52 -61t-78.5 -34.5t-115.5 -13.5z" />
    <glyph glyph-name="uniF05E" unicode="ffk" horiz-adv-x="2152" 
d="M-199 -510l31 172h35q60 0 108.5 20t83.5 71t56.5 86t42.5 119.5t26.5 113.5t21.5 122q7 42 11 62l92 524h-133l23 127l137 15l14 88q44 244 164.5 364.5t286.5 120.5q108 0 184 -37l-29 -166q-76 37 -149 37q-110 0 -174.5 -91t-95.5 -265l-11 -51h396l22 129
q44 243 170 364t293 121q91 0 182 -31l4 31h193l-180 -1022h4l420 408h200l-364 -355l219 -567h-211l-158 422l-153 -150l-50 -272h-192l238 1339q-82 31 -146 31q-220 0 -283 -356l-16 -92h254l-25 -142h-253l-95 -524q-46 -253 -77 -356q-76 -249 -229 -343
q-108 -67 -265 -67h-35l29 172h37q40 0 75 11t62 27.5t51 46.5t40.5 56t32.5 69.5t25.5 73t20 80.5t15.5 78t14 79.5t12 72.5l94 524h-395l-92 -524q-14 -80 -22 -122.5t-25 -119t-32 -119.5t-41 -106t-54 -100t-69.5 -80t-88.5 -65.5t-108.5 -38t-133.5 -15.5h-35z" />
    <glyph glyph-name="uniF05F" unicode="fk" horiz-adv-x="1566" 
d="M-164 -510h-35l31 172h35q60 0 108.5 20t83.5 71t56.5 86t42.5 119.5t26.5 113.5t21.5 122q7 42 11 62l92 524h-133l23 127l137 15l22 129q22 124 67.5 218.5t107.5 152t134.5 86t153.5 28.5q94 0 180 -31l7 31h192l-182 -1022h6l418 408h203l-367 -355l219 -567h-211
l-158 422l-153 -150l-47 -272h-193l238 1339q-82 31 -146 31q-218 0 -284 -356l-17 -92h256l-24 -142h-256l-92 -524q-46 -255 -80 -363q-79 -250 -237 -341q-107 -62 -257 -62z" />
    <glyph glyph-name="uniF060" unicode="ft" horiz-adv-x="1234" 
d="M-162 -510h-37l31 172h35q64 0 112 19t80.5 51t57.5 89.5t40.5 119t32.5 155.5l121 684h-135l23 127l137 15l22 129q44 244 164.5 364.5t286.5 120.5q98 0 166 -33l-29 -166q-68 33 -129 33q-111 0 -176 -91t-96 -265l-17 -92h385l109 329h133l-59 -329h235l-26 -142
h-234l-82 -458q-35 -199 90 -199q57 0 109 33l-21 -113q-23 -20 -81.5 -36.5t-100.5 -16.5q-246 0 -192 301l86 489h-375l-123 -684q-16 -90 -31.5 -156t-38.5 -133t-50.5 -113t-67.5 -87t-90 -65t-116.5 -38t-148.5 -14z" />
    <glyph glyph-name="f_f" unicode="ff" horiz-adv-x="1257" 
d="M-164 -510h-35l31 172h35q41 0 76.5 11t63 28t51.5 46.5t41 56.5t32.5 69.5t25 73t20 80t15.5 78.5t13 79t12 72l94 524h-135l23 127l137 15l16 88q42 244 162.5 364.5t286.5 120.5q105 0 186 -37l-31 -166q-76 37 -147 37q-111 0 -176 -91t-96 -265l-9 -51h394l22 129
q44 244 164.5 364.5t286.5 120.5q108 0 184 -37l-29 -166q-76 37 -147 37q-111 0 -176.5 -91t-96.5 -265l-16 -92h262l-24 -142h-262l-95 -524q-46 -253 -77 -356q-76 -249 -229 -343q-108 -67 -265 -67h-35l29 172h37q52 0 96 19.5t74 43t57.5 76t41.5 84t31 104t21.5 99.5
t17.5 104q7 44 11 64l92 524h-395l-92 -524q-47 -256 -83 -367q-83 -254 -248 -344q-103 -55 -243 -55z" />
    <glyph glyph-name="fi" unicode="fi" horiz-adv-x="1060" 
d="M-162 -510h-35l29 172h37q40 0 75.5 11t62.5 28t51 46.5t40.5 56t32.5 69.5t25 73.5t19.5 80t15.5 78.5t13.5 79t12.5 72l94 524h-135l23 127l137 15l22 129q44 244 176.5 366.5t315.5 122.5q80 0 154 -19t120 -42l-102 -158q-25 19 -77 35t-95 16q-123 0 -199 -93.5
t-106 -264.5l-17 -92h547l-162 -922h-192l137 780h-356l-92 -524q-46 -254 -78 -359q-77 -249 -232 -342q-107 -65 -262 -65z" />
    <glyph glyph-name="fl" unicode="fl" horiz-adv-x="1054" 
d="M-162 -510h-37l31 172h35q40 0 75.5 11t62.5 27.5t51.5 47t41 56.5t32.5 69.5t25.5 73t20 80t15.5 78t13.5 79.5t12.5 72l94 524h-135l23 127l137 15l22 129q44 243 170 364t293 121q92 0 183 -31l6 31h192l-274 -1536h-191l238 1339q-82 31 -146 31q-221 0 -284 -356
l-17 -92h254l-24 -142h-254l-94 -524q-46 -255 -80 -363q-79 -250 -237 -342q-106 -61 -255 -61z" />
    <glyph glyph-name="f_f_i" unicode="ffi" horiz-adv-x="1648" 
d="M-199 -510l31 172h35q40 0 75.5 11t62.5 27.5t51.5 47t41 56.5t32.5 69.5t25.5 73t20 80t15.5 78t13.5 79.5t12.5 72l94 524h-135l23 127l137 15l16 88q42 244 163 364.5t288 120.5q108 0 184 -37l-31 -166q-72 37 -147 37q-111 0 -175.5 -90.5t-96.5 -265.5l-9 -51h396
l22 129q44 244 176.5 366.5t315.5 122.5q80 0 154 -19t120 -42l-102 -158q-25 19 -77 35t-95 16q-123 0 -199 -93.5t-106 -264.5l-17 -92h547l-164 -922h-190l137 780h-356l-93 -524q-46 -255 -79 -361q-78 -250 -234 -342q-107 -63 -258 -63h-37l31 172h35q52 0 96 19.5
t74 43t57.5 76t41.5 84t31 104t21.5 99.5t17.5 104q7 44 11 64l94 524h-395l-94 -524q-14 -80 -22 -122.5t-25 -119t-32 -119.5t-41 -106t-54 -100t-69.5 -80t-88.5 -65.5t-108.5 -38t-133.5 -15.5h-35z" />
    <glyph glyph-name="f_f_l" unicode="ffl" horiz-adv-x="1640" 
d="M-164 -510h-35l31 172h35q40 0 75.5 11t62.5 27.5t51.5 47t41 56.5t32.5 69.5t25.5 73t20 80t15.5 78t13.5 79.5t12.5 72l94 524h-135l23 127l137 15l16 88q42 244 163 364.5t288 120.5q108 0 184 -37l-31 -166q-72 37 -147 37q-111 0 -175.5 -90.5t-96.5 -265.5l-9 -51
h394l24 129q22 124 67.5 218.5t107.5 152t134 86t152 28.5q96 0 182 -31l6 31h193l-272 -1536h-193l238 1339q-82 31 -146 31q-113 0 -184 -92.5t-101 -263.5l-16 -92h256l-27 -142h-253l-93 -524q-46 -254 -79 -360q-78 -250 -234 -343q-107 -63 -260 -63h-35l31 172h35
q61 0 109.5 22.5t82 65.5t58 91.5t41.5 114.5t27.5 119t21.5 120q7 42 10 61l92 524h-393l-94 -524q-14 -80 -22 -122.5t-25 -119t-32 -119.5t-41 -106t-54 -100t-69.5 -80t-88.5 -65.5t-108.5 -38t-133.5 -15.5z" />
    <glyph glyph-name="longs_t" unicode="&#x17f;t" horiz-adv-x="1234" 
d="M-199 -510l31 172h35q40 0 75.5 11t62.5 27.5t51.5 47t41 56.5t32.5 69.5t25.5 73t20 80t15.5 78t13.5 79.5t12.5 72l135 754q23 130 70 226t112 152.5t141.5 83.5t166.5 27q85 0 200.5 -24t145.5 -41l-92 -512h235l-26 -142h-234l-82 -458q-35 -199 90 -199q57 0 109 33
l-21 -113q-23 -20 -81.5 -36.5t-100.5 -16.5q-246 0 -192 301l86 489h-111l20 113l125 29l113 389q-98 24 -178 24q-125 0 -202 -95t-109 -267l-127 -717q-46 -255 -80 -363q-79 -250 -237 -342q-106 -61 -255 -61h-37z" />
    <glyph glyph-name=".notdef" horiz-adv-x="854" 
d="M778 0h-702l254 1434h702zM393 1352l-225 -1270h547l225 1270h-547z" />
    <glyph glyph-name="uni0000" horiz-adv-x="0" 
 />
    <glyph glyph-name="uni0000" horiz-adv-x="0" 
 />
    <glyph glyph-name="uni000D" unicode="&#xd;" horiz-adv-x="512" 
 />
    <glyph glyph-name="space" unicode=" " horiz-adv-x="548" 
 />
    <glyph glyph-name="exclam" unicode="!" horiz-adv-x="493" 
d="M389 473h-117l127 961h203zM258 -14q-55 0 -88 39.5t-25 93.5q9 55 53 94t103 39q54 0 87 -39.5t24 -93.5q-9 -55 -53 -94t-101 -39z" />
    <glyph glyph-name="quotedbl" unicode="&#x22;" horiz-adv-x="776" 
d="M395 1026h-98q43 87 89 225t71 285h139q-25 -147 -83.5 -284.5t-117.5 -225.5zM707 1042h-107q127 253 168 494h139q-46 -265 -200 -494z" />
    <glyph glyph-name="numbersign" unicode="#" horiz-adv-x="1304" 
d="M379 375h-250l35 112h272l160 322h-221l35 113h243l205 409h129l-205 -409h269l204 409h129l-204 -409h202l-34 -113h-226l-159 -322h178l-35 -112h-201l-186 -375h-129l186 375h-268l-186 -375h-129zM565 487h269l159 322h-268z" />
    <glyph glyph-name="dollar" unicode="$" horiz-adv-x="1052" 
d="M463 43q-102 8 -204.5 44.5t-170.5 92.5l102 148q159 -125 336 -125q122 0 200 48t93 134q15 87 -41.5 141t-193.5 88q-178 45 -253.5 133t-47.5 248q27 155 136.5 242.5t272.5 101.5l35 191h123l-33 -191q171 -15 313 -114l-100 -144q-55 47 -135 77t-154 30
q-116 0 -182 -48.5t-80 -133.5q-14 -82 38.5 -129t170.5 -78q200 -54 279.5 -141t48.5 -259q-59 -317 -428 -354l-37 -199h-123z" />
    <glyph glyph-name="percent" unicode="%" horiz-adv-x="1314" 
d="M473 672q-117 0 -171.5 89t-27.5 247q28 157 115 248.5t205 91.5q117 0 168.5 -91t23.5 -249q-28 -157 -111.5 -246.5t-201.5 -89.5zM967 -16q-119 0 -173.5 90t-25.5 248q28 157 114.5 248.5t204.5 91.5q116 0 168.5 -91t24.5 -249q-28 -159 -111.5 -248.5t-201.5 -89.5
zM868 322q-21 -118 11 -184t104 -66q71 0 123 65.5t74 184.5q20 119 -8.5 185t-100.5 66t-127.5 -67t-75.5 -184zM375 1008q-21 -116 10.5 -182t103.5 -66t123.5 65t73.5 183t-7 185t-101 67q-71 0 -126 -67.5t-77 -184.5zM438 20h-94l764 1287h92z" />
    <glyph glyph-name="ampersand" unicode="&#x26;" horiz-adv-x="1470" 
d="M670 -35q-131 3 -236 58t-168 144t-88 204.5t-4 238.5q19 110 67 199t112.5 145t140.5 85.5t155 29.5q77 0 135 -38t70 -105h4q94 149 119 293q9 61 9.5 137t-9.5 135l172 12q11 -48 11.5 -122t-9.5 -130q-18 -101 -63 -201t-111 -187.5t-137 -164t-158 -149
t-154.5 -123.5t-146.5 -104q39 -93 126 -148t202 -55q102 0 194.5 34t160 90.5t112.5 130.5t59 154q16 88 -8 162h-4q-137 -37 -177 -54q-91 -41 -104 -104q-9 -51 29 -106l-135 -57q-59 74 -45 166q10 57 49.5 102.5t95.5 74t121.5 52t130.5 44t119.5 42t92 52.5t44.5 71
q10 51 -17 117l140 65q40 -99 28 -188q-12 -86 -66 -136.5t-140 -82.5q36 -104 16 -224q-11 -62 -39 -126.5t-72 -128t-107.5 -119t-139 -97.5t-173 -65.5t-204.5 -22.5zM356 621q-18 -93 -2 -183h4q45 31 100 74t120.5 100t109.5 113.5t45 93.5q1 44 -28.5 71.5t-73.5 27.5
q-93 0 -173 -87t-102 -210z" />
    <glyph glyph-name="quotesingle" unicode="'" horiz-adv-x="468" 
d="M401 1042h-98q114 229 160 494h139q-25 -145 -81.5 -273t-119.5 -221z" />
    <glyph glyph-name="parenleft" unicode="(" horiz-adv-x="653" 
d="M336 -287q-59 119 -88.5 270t-29 305.5t27.5 305.5q42 233 147 468.5t256 412.5h131q-139 -178 -238.5 -414.5t-138.5 -466.5q-42 -217 -27 -460.5t91 -420.5h-131z" />
    <glyph glyph-name="parenright" unicode=")" horiz-adv-x="653" 
d="M86 -287q138 177 237 413.5t140 467.5q42 218 26 460.5t-92 420.5h131q59 -119 88.5 -270t29 -305.5t-27.5 -305.5q-42 -233 -147 -468.5t-256 -412.5h-129z" />
    <glyph glyph-name="asterisk" unicode="*" horiz-adv-x="956" 
d="M346 1126q-28 0 -38.5 21.5t3.5 50.5l39 84q18 37 51 37q17 0 29 -12l219 -156l8 6l-4 307q-3 29 14.5 50.5t45.5 21.5h80q27 0 36.5 -21.5t-4.5 -50.5l-112 -307l6 -6l274 156q18 12 33 12q34 0 37 -37l10 -84q3 -29 -14 -50.5t-45 -21.5l-287 -32l-6 -11l172 -211
q20 -19 16 -44t-30 -44l-74 -51q-15 -12 -33 -12q-14 0 -25 11t-12 30l-65 285h-8l-168 -285q-18 -41 -52 -41q-16 0 -28 12l-56 51q-18 19 -13 44t30 44l248 211l-2 11z" />
    <glyph glyph-name="plus" unicode="+" horiz-adv-x="983" 
d="M174 461l16 147h328l66 379h155l-65 -379h319l-16 -147h-328l-63 -377h-158l66 377h-320z" />
    <glyph glyph-name="comma" unicode="," horiz-adv-x="565" 
d="M156 -223h-123q56 76 107.5 198.5t78.5 249.5l215 31q-35 -123 -122 -268.5t-156 -210.5z" />
    <glyph glyph-name="hyphen" unicode="-" horiz-adv-x="792" 
d="M186 469l13 115h592l-15 -115h-590z" />
    <glyph glyph-name="period" unicode="." horiz-adv-x="481" 
d="M242 -14q-55 0 -87.5 39.5t-23.5 93.5q9 55 53 94t103 39q54 0 86 -39.5t22 -93.5q-9 -55 -52.5 -94t-100.5 -39z" />
    <glyph glyph-name="slash" unicode="/" horiz-adv-x="692" 
d="M-16 -51l897 1587h127l-897 -1587h-127z" />
    <glyph glyph-name="zero" unicode="0" horiz-adv-x="1183" 
d="M596 -14q-238 0 -338 181.5t-43 498.5q54 305 221 493.5t402 188.5q123 0 208.5 -50.5t127.5 -141.5t52 -216t-20 -274q-57 -323 -211 -501.5t-399 -178.5zM430 666q-42 -237 5.5 -365.5t193.5 -128.5q145 0 232 126t130 368q26 155 20.5 265t-57 170t-149.5 60
q-147 0 -240.5 -129.5t-134.5 -365.5z" />
    <glyph glyph-name="one" unicode="1" horiz-adv-x="825" 
d="M317 924l-59 141l430 266h133l-237 -1331h-203l192 1081h-6z" />
    <glyph glyph-name="two" unicode="2" horiz-adv-x="1138" 
d="M143 0l29 170l533 453q215 185 243 338q19 104 -29 160.5t-151 56.5q-54 0 -102 -17.5t-90.5 -53.5t-73 -69t-70.5 -84l-127 86q39 57 85 106t110 98.5t146 78.5t171 29q191 0 282 -99t60 -274q-11 -58 -37 -115.5t-53.5 -99t-72.5 -90t-74 -75t-76 -67.5l-397 -350
l-3 -6h613l-33 -176h-883z" />
    <glyph glyph-name="three" unicode="3" horiz-adv-x="1138" 
d="M543 -10q-134 0 -241 37.5t-171 101.5l111 147q134 -114 323 -114q136 0 216.5 53.5t101.5 173.5q20 108 -51.5 171t-206.5 63h-121l24 139h121q129 0 209 57.5t98 155.5q34 192 -190 192q-87 0 -181.5 -37t-166.5 -90l-56 142q222 164 449 164q88 0 155.5 -19t115.5 -58
t66.5 -105.5t2.5 -155.5q-20 -117 -81 -184.5t-159 -110.5l-2 -6q98 -43 148 -125.5t26 -212.5q-15 -88 -56.5 -156t-95 -109.5t-122 -67.5t-133 -36t-133.5 -10z" />
    <glyph glyph-name="four" unicode="4" horiz-adv-x="1107" 
d="M709 268h-603l27 148l809 915h158l-160 -905h158l-29 -158h-158l-47 -268h-202zM360 432l-2 -6h379l99 553h-7z" />
    <glyph glyph-name="five" unicode="5" horiz-adv-x="1128" 
d="M545 -10q-141 0 -257 49.5t-188 118.5l111 149q80 -69 156 -107t182 -38q147 0 248 80t127 223q24 139 -36 208.5t-190 69.5q-80 0 -154.5 -27.5t-127.5 -64.5l-88 78l137 602h735l-31 -168h-581l-76 -336l6 -4q144 72 281 72q51 0 96 -8.5t90.5 -28t77 -51.5t55.5 -80.5
t27 -114t-10 -151.5q-22 -124 -84 -218.5t-146.5 -147.5t-175.5 -79t-184 -26z" />
    <glyph glyph-name="six" unicode="6" horiz-adv-x="1150" 
d="M596 -14q-231 0 -338.5 159t-60.5 428q34 191 104 340.5t164 243.5t204.5 142.5t231.5 48.5q81 0 155.5 -21.5t115 -44.5t88.5 -57l-125 -140q-41 28 -68.5 43.5t-80 31.5t-107.5 16q-166 0 -286.5 -132.5t-158.5 -332.5h6q57 80 148 134t200 54q130 0 218 -63.5
t120 -164t11 -218.5q-16 -95 -61 -178.5t-112.5 -148.5t-162.5 -102.5t-205 -37.5zM408 449q-26 -145 40.5 -225.5t176.5 -80.5q107 0 197.5 81.5t115.5 224.5q25 145 -33 225t-172 80q-106 0 -204.5 -87.5t-120.5 -217.5z" />
    <glyph glyph-name="seven" unicode="7" horiz-adv-x="1024" 
d="M231 0q176 355 321 589.5t382 559.5v6h-639l31 176h852l-29 -157q-237 -319 -383.5 -561.5t-325.5 -612.5h-209z" />
    <glyph glyph-name="eight" unicode="8" horiz-adv-x="1157" 
d="M575 -18q-225 0 -338.5 99.5t-84.5 270.5q25 136 113.5 227.5t209.5 133.5q-164 97 -131 288q27 149 159 249t316 100q183 0 279 -100t69 -249q-34 -197 -225 -288q108 -41 160.5 -132t27.5 -229q-31 -170 -180.5 -270t-374.5 -100zM369 365q-21 -115 38.5 -182.5
t190.5 -67.5q135 0 217 67t103 183q24 128 -36 203t-190 75q-128 0 -214.5 -75.5t-108.5 -202.5zM539 1004q-19 -98 35 -157t145 -59q89 0 163.5 58.5t92.5 157.5q18 95 -29.5 158t-148.5 63q-102 0 -171 -62.5t-87 -158.5z" />
    <glyph glyph-name="nine" unicode="9" horiz-adv-x="1150" 
d="M487 -16q-200 0 -358 122l115 140q125 -92 260 -92q168 0 290.5 133.5t159.5 333.5h-6q-57 -80 -148 -134.5t-200 -54.5q-79 0 -144 24.5t-107 66.5t-70 99t-32.5 122.5t5.5 136.5q16 95 61 178.5t112.5 147.5t162.5 101.5t205 37.5q232 0 340 -153t61 -421
q-34 -191 -104.5 -342.5t-165 -248t-206 -147t-231.5 -50.5zM451 885q-25 -145 32.5 -225t171.5 -80q106 0 205 87.5t121 217.5q26 145 -40.5 225t-176.5 80q-107 0 -197.5 -81t-115.5 -224z" />
    <glyph glyph-name="colon" unicode=":" horiz-adv-x="481" 
d="M242 -14q-55 0 -87.5 39.5t-23.5 93.5q9 55 53.5 94t104.5 39q53 0 84.5 -39.5t21.5 -93.5q-9 -55 -52.5 -94t-100.5 -39zM373 635q-55 0 -87.5 39t-23.5 92q9 57 53.5 96t104.5 39q54 0 85.5 -39.5t22.5 -95.5q-9 -54 -53.5 -92.5t-101.5 -38.5z" />
    <glyph glyph-name="semicolon" unicode=";" horiz-adv-x="565" 
d="M31 -223q56 76 107.5 198.5t76.5 249.5l215 31q-33 -123 -120 -268t-156 -211h-123zM426 662q-54 0 -86 39.5t-23 93.5q9 56 53 94.5t103 38.5q54 0 86 -39t23 -94t-53 -94t-103 -39z" />
    <glyph glyph-name="less" unicode="&#x3c;" horiz-adv-x="1138" 
d="M1208 1069l-20 -164l-772 -336v-8l635 -340l-19 -168l-835 457l14 115z" />
    <glyph glyph-name="equal" unicode="=" horiz-adv-x="1040" 
d="M231 647l17 148h815l-16 -148h-816zM162 240l16 145h815l-16 -145h-815z" />
    <glyph glyph-name="greater" unicode="&#x3e;" horiz-adv-x="1138" 
d="M276 905l31 164l838 -444l-21 -115l-997 -457l33 174l768 338v10z" />
    <glyph glyph-name="question" unicode="?" horiz-adv-x="937" 
d="M289 1325q106 62 201.5 95.5t222.5 33.5q184 0 278.5 -93.5t67.5 -258.5q-12 -64 -38 -117.5t-66 -95.5t-73.5 -69.5t-85.5 -65t-75 -56.5q-77 -63 -117 -123.5t-53 -140.5h-184q10 97 56 181t157 184q19 18 94.5 72.5t119 106t56.5 118.5q21 94 -32.5 145t-145.5 51
q-143 0 -320 -112zM408 -14q-57 0 -92 39.5t-29 93.5q6 56 48 94.5t103 38.5q54 0 89 -39.5t28 -93.5q-6 -55 -48 -94t-99 -39z" />
    <glyph glyph-name="at" unicode="@" horiz-adv-x="1619" 
d="M705 -244q-113 0 -209 35t-163.5 99t-112 152.5t-54 195t9.5 227.5q27 153 104 291t185.5 239t248.5 160t287 59q142 0 260.5 -51.5t196.5 -141t109.5 -218.5t5.5 -277q-34 -186 -145 -294.5t-240 -108.5q-80 0 -130.5 59.5t-33.5 182.5q-46 -94 -133 -164t-170 -70
q-112 0 -168.5 79t-32.5 212q13 71 53.5 143t102 133t148.5 99.5t182 38.5q28 0 59 -5t61 -15t48 -28.5t14 -42.5l-58 -313q-19 -108 5 -155.5t75 -47.5q84 0 148.5 69t91.5 228q22 124 -4 232.5t-90 184t-161.5 118.5t-213.5 43q-119 0 -236 -52.5t-208 -140t-155.5 -204.5
t-86.5 -242q-29 -167 12 -302t149.5 -214.5t266.5 -79.5q96 0 240 55l36 -102q-161 -66 -294 -66zM651 430q-13 -77 15 -130.5t94 -53.5q71 0 146 73t116 166l41 228q-32 16 -105 16q-58 1 -112.5 -27.5t-93.5 -73t-65.5 -96.5t-35.5 -102z" />
    <glyph glyph-name="A" unicode="A" horiz-adv-x="1265" 
d="M57 0l760 1440h146l247 -1440h-223l-41 303h-526l-164 -303h-199zM831 1067l-339 -602h421l-75 602h-7z" />
    <glyph glyph-name="B" unicode="B" horiz-adv-x="1179" 
d="M571 -10q-165 0 -415 10l254 1430q53 1 189 7.5t214 6.5q97 0 174 -19.5t137.5 -61.5t85.5 -118t7 -180q-36 -201 -211 -297v-6q203 -103 163 -332q-16 -93 -60 -169t-103.5 -125.5t-134 -83t-149 -48t-151.5 -14.5zM395 172q120 -6 221 -6q135 0 226.5 76.5t115.5 203.5
q19 105 -34 169.5t-168 64.5h-271zM590 1260l-76 -426h266q95 0 148.5 59.5t68.5 146.5q18 98 -32.5 162t-167.5 64q-93 0 -207 -6z" />
    <glyph glyph-name="C" unicode="C" horiz-adv-x="1261" 
d="M760 -18q-291 0 -433.5 205t-82.5 542q29 164 101.5 298.5t174 226t229 141t267.5 49.5q227 0 389 -96l-90 -168q-61 36 -143.5 56.5t-165.5 20.5q-188 0 -339.5 -147t-195.5 -381q-48 -252 48 -408.5t282 -156.5q191 0 342 88l45 -156q-207 -114 -428 -114z" />
    <glyph glyph-name="D" unicode="D" horiz-adv-x="1333" 
d="M567 -16q-285 0 -413 16l252 1427q215 17 417 17q298 0 441 -185.5t90 -500.5q-29 -165 -98 -306.5t-169 -245.5t-234.5 -163t-285.5 -59zM387 172q68 -8 203 -8q193 0 342 170t196 424q42 231 -42.5 368.5t-278.5 137.5q-102 0 -207 -11z" />
    <glyph glyph-name="E" unicode="E" horiz-adv-x="1091" 
d="M154 0l252 1434h817l-21 -185h-602l-92 -428h545l-21 -170h-543l-100 -467h602l-20 -184h-817z" />
    <glyph glyph-name="F" unicode="F" horiz-adv-x="1091" 
d="M156 0l254 1434h815l-33 -185h-604l-80 -452h545l-31 -168h-545l-112 -629h-209z" />
    <glyph glyph-name="G" unicode="G" horiz-adv-x="1312" 
d="M778 -20q-199 0 -333.5 89.5t-187.5 261.5t-13 406q59 330 279 518.5t521 188.5q108 0 216 -25.5t194 -70.5l-88 -168q-65 37 -153.5 59.5t-176.5 22.5q-212 0 -364 -139t-199 -386q-53 -272 35.5 -423.5t290.5 -151.5q128 0 266 63l74 346h-281l19 162h462l-104 -624
q-108 -60 -229 -94.5t-228 -34.5z" />
    <glyph glyph-name="H" unicode="H" horiz-adv-x="1292" 
d="M154 0l252 1434h215l-113 -605h557l113 605h213l-250 -1434h-215l118 645h-557l-118 -645h-215z" />
    <glyph glyph-name="I" unicode="I" horiz-adv-x="520" 
d="M154 0l252 1434h215l-252 -1434h-215z" />
    <glyph glyph-name="J" unicode="J" horiz-adv-x="821" 
d="M76 25l49 168q25 -11 79 -22t97 -11q114 0 180 70t101 251l174 953h205l-175 -953q-39 -254 -158 -375.5t-347 -121.5q-48 0 -113 13.5t-92 27.5z" />
    <glyph glyph-name="K" unicode="K" horiz-adv-x="1230" 
d="M154 0l252 1434h215l-119 -617h6l604 617h238l-648 -656l498 -778h-280l-379 608l-72 -71l-100 -537h-215z" />
    <glyph glyph-name="L" unicode="L" horiz-adv-x="1062" 
d="M154 0l252 1434h215l-232 -1250h623l-21 -184h-837z" />
    <glyph glyph-name="M" unicode="M" horiz-adv-x="1693" 
d="M156 0l254 1434h223l266 -1145h6l672 1145h217l-256 -1434h-211l176 991h-4l-586 -991h-161l-224 977h-6l-174 -977h-192z" />
    <glyph glyph-name="N" unicode="N" horiz-adv-x="1318" 
d="M154 0l252 1434h202l391 -1049h7l208 1049h205l-252 -1434h-204l-392 1020h-6l-207 -1020h-204z" />
    <glyph glyph-name="O" unicode="O" horiz-adv-x="1423" 
d="M709 -20q-183 0 -302 93t-161 259t-4 385q58 332 254 534.5t471 202.5q184 0 303.5 -93t161.5 -259t4 -385q-38 -218 -138.5 -384.5t-253 -259.5t-335.5 -93zM465 717q-28 -163 -12 -284.5t87.5 -192t188.5 -70.5q178 0 305.5 150t175.5 397q48 249 -19.5 398t-244.5 149
q-178 0 -305.5 -149.5t-175.5 -397.5z" />
    <glyph glyph-name="P" unicode="P" horiz-adv-x="1110" 
d="M365 0h-209l252 1423q270 21 395 21q234 0 352 -113t80 -334q-21 -118 -79.5 -212.5t-140 -153t-176 -90t-194.5 -33.5q-76 -4 -186 16zM588 1257l-99 -557q78 -16 168 -16q147 0 241 84t118 229q19 123 -44 196t-206 73q-59 0 -178 -9z" />
    <glyph glyph-name="Q" unicode="Q" horiz-adv-x="1433" 
d="M713 -20q-183 0 -302 93t-160.5 259t-2.5 385q59 332 255.5 534.5t471.5 202.5q183 0 302 -93t160.5 -259t2.5 -385q-43 -242 -162 -419t-293 -259l268 -203l-159 -137l-332 283q-16 -2 -49 -2zM469 717q-26 -163 -7 -284.5t93 -192t193 -70.5q179 0 304 149.5t169 397.5
t-28.5 397.5t-250.5 149.5q-179 0 -304 -149t-169 -398z" />
    <glyph glyph-name="R" unicode="R" horiz-adv-x="1185" 
d="M369 0h-215l249 1423q269 21 379 21q117 0 205.5 -23t151 -72t87 -130.5t5.5 -192.5q-26 -136 -110 -231.5t-197 -143.5l-2 -6q38 -13 69 -44t51 -77t35 -95t25 -111.5t16 -112t13 -110.5t12 -95h-234q-2 18 -5 79t-7 115t-18.5 123t-36.5 117.5t-65 82.5t-101 34h-205z
M492 729h143q317 0 373 285q26 119 -38.5 185.5t-209.5 66.5q-45 0 -160 -9z" />
    <glyph glyph-name="S" unicode="S" horiz-adv-x="1144" 
d="M547 -14q-118 0 -246.5 38t-212.5 101l113 168q175 -125 362 -125q129 0 226 64.5t118 156.5q19 88 -44 144t-224 96q-93 24 -158.5 57t-110.5 82t-60.5 119t-0.5 160q31 181 180.5 289t346.5 108q249 0 424 -123l-113 -166q-161 111 -322 111q-121 0 -200.5 -63.5
t-98.5 -149.5q-19 -91 38 -141.5t196 -88.5q60 -16 107.5 -33.5t90 -39t71.5 -46.5t53 -56t33.5 -67.5t13 -82t-8.5 -97.5q-18 -105 -74 -186.5t-135.5 -130t-172 -73.5t-191.5 -25z" />
    <glyph glyph-name="T" unicode="T" horiz-adv-x="1220" 
d="M322 1249l20 185h1038l-20 -185h-414l-231 -1249h-215l231 1249h-409z" />
    <glyph glyph-name="U" unicode="U" horiz-adv-x="1220" 
d="M608 -16q-261 0 -349.5 162t-31.5 489l140 799h215l-144 -820q-48 -236 1.5 -345t191.5 -109q148 -2 238.5 104.5t140.5 349.5l145 820h205l-141 -799q-57 -326 -203 -488.5t-408 -162.5z" />
    <glyph glyph-name="V" unicode="V" horiz-adv-x="1255" 
d="M285 1434h221l182 -1147h6l586 1147h203l-748 -1434h-215z" />
    <glyph glyph-name="W" unicode="W" horiz-adv-x="2074" 
d="M268 1434h228l170 -1145h6l557 1145h162l98 -1137h6l598 1137h205l-742 -1434h-231l-80 1014h-6l-496 -1014h-235z" />
    <glyph glyph-name="X" unicode="X" horiz-adv-x="1150" 
d="M233 0h-196l555 727l-283 707h226l208 -525h7l399 527l194 -2l-524 -697l297 -737h-223l-227 561h-7z" />
    <glyph glyph-name="Y" unicode="Y" horiz-adv-x="1239" 
d="M322 1434h227l217 -560h6l449 562l200 -2l-571 -732l-123 -702h-219l121 694z" />
    <glyph glyph-name="Z" unicode="Z" horiz-adv-x="1236" 
d="M414 1434h929l-22 -197l-920 -1040l-2 -7h699l-23 -190h-962l22 197l926 1042v6h-668z" />
    <glyph glyph-name="bracketleft" unicode="[" horiz-adv-x="507" 
d="M381 1475h334l-17 -84h-202l-283 -1594h203l-15 -84h-333z" />
    <glyph glyph-name="backslash" unicode="\" horiz-adv-x="761" 
d="M795 -51h-129l-709 1587h129z" />
    <glyph glyph-name="bracketright" unicode="]" horiz-adv-x="507" 
d="M303 1391l16 84h334l-313 -1762h-334l14 84h203l285 1594h-205z" />
    <glyph glyph-name="asciicircum" unicode="^" horiz-adv-x="882" 
d="M334 836h-101l445 702h80l186 -702h-98l-148 581h-6z" />
    <glyph glyph-name="underscore" unicode="_" horiz-adv-x="978" 
d="M86 -137l16 90h756l-16 -90h-756z" />
    <glyph glyph-name="grave" unicode="`" horiz-adv-x="761" 
d="M553 1413l195 -321h-119l-283 321h207z" />
    <glyph glyph-name="a" unicode="a" horiz-adv-x="1060" 
d="M457 -16q-74 0 -133.5 24t-104 75.5t-58.5 133t3 195.5q42 233 213 379.5t379 146.5q34 0 70 -2t59.5 -3.5t61.5 -7t49.5 -7t52 -8.5t43.5 -7l-123 -674q-25 -181 -17 -229h-192q-2 34 16 150h-6q-51 -67 -129.5 -116.5t-183.5 -49.5zM373 428q-28 -137 13 -215t146 -78
q97 0 180 96t103 207l68 334q-100 16 -140 16q-132 0 -236.5 -107t-133.5 -253z" />
    <glyph glyph-name="b" unicode="b" horiz-adv-x="1054" 
d="M514 -18q-184 0 -377 86l262 1468h193l-131 -727h6q113 129 274 129q170 0 258 -126t48 -351q-20 -112 -75.5 -205t-130 -151.5t-159 -90.5t-168.5 -32zM348 174q91 -43 172 -43q117 0 209 96.5t117 233.5q24 140 -20 230.5t-152 90.5q-100 -1 -174 -91t-101 -236z" />
    <glyph glyph-name="c" unicode="c" horiz-adv-x="880" 
d="M510 -14q-84 0 -153 29.5t-118 89t-66.5 148.5t1.5 208q37 208 172 343.5t330 135.5q170 0 272 -76l-69 -133q-64 57 -181 57q-122 0 -207.5 -92.5t-113.5 -230.5q-28 -143 24 -233.5t168 -90.5q61 0 121.5 17.5t100.5 42.5l40 -129q-141 -86 -321 -86z" />
    <glyph glyph-name="d" unicode="d" horiz-adv-x="1056" 
d="M457 -16q-74 0 -133.5 24t-104 75.5t-58.5 133t3 195.5q42 233 213 379.5t379 146.5q59 0 145 -8l109 606h192l-272 -1536h-172l20 150h-6q-51 -67 -130.5 -116.5t-184.5 -49.5zM373 428q-28 -137 13 -215t146 -78q97 0 180 96t103 207l68 334q-100 16 -140 16
q-132 0 -236.5 -107t-133.5 -253z" />
    <glyph glyph-name="e" unicode="e" horiz-adv-x="913" 
d="M530 -16q-85 0 -155.5 31.5t-120 90.5t-68.5 151t0 204q20 115 69.5 207t118 150t149 89t165.5 31q62 0 111.5 -19.5t79 -52.5t44.5 -76t11.5 -92t-23.5 -98q-37 -93 -172 -158.5t-379 -81.5q3 -106 58.5 -164.5t154.5 -58.5q67 0 139 17.5t113 40.5l31 -127
q-138 -84 -326 -84zM375 477q171 15 271 56t122 102q24 61 -1 110t-85 50q-115 0 -197.5 -94.5t-109.5 -223.5z" />
    <glyph glyph-name="f" unicode="f" horiz-adv-x="673" 
d="M-164 -510h-35l33 172h35q40 0 75.5 11t62.5 28t51 46.5t40.5 56t32.5 69.5t25 73.5t19.5 80t15.5 78.5t13.5 79t12.5 72l92 524h-133l23 127l137 15l22 129q44 244 164.5 364.5t286.5 120.5q108 0 184 -37l-30 -166q-76 37 -150 37q-110 0 -173.5 -91t-94.5 -265
l-17 -92h263l-27 -142h-262l-92 -524q-46 -255 -80 -363q-79 -250 -237 -341q-107 -62 -257 -62z" />
    <glyph glyph-name="g" unicode="g" horiz-adv-x="1036" 
d="M344 -508q-98 0 -201 25.5t-153 60.5l82 150q41 -34 120.5 -56t157.5 -22q84 0 151 32.5t111 90t71.5 125t43.5 149.5l21 103h-7q-126 -166 -307 -166q-74 0 -133.5 24t-104 75.5t-58 133t4.5 195.5q27 155 116.5 276.5t214.5 185.5t261 64q29 0 57.5 -1t57 -3.5
t48.5 -4.5t50 -6.5t42.5 -6.5t43.5 -7t37 -6l-151 -856q-20 -122 -64 -221t-113 -175t-170.5 -117.5t-228.5 -41.5zM350 428q-28 -136 13.5 -214.5t146.5 -78.5q97 0 181 96t104 207l67 334q-108 16 -141 16q-133 0 -236.5 -107t-134.5 -253z" />
    <glyph glyph-name="h" unicode="h" 
d="M322 0h-197l270 1536h195l-137 -756h6q52 68 128 115t163 47q177 0 238.5 -112t21.5 -349l-86 -481h-195l78 449q19 98 19 168.5t-36.5 110.5t-111.5 40q-81 0 -150.5 -73t-111.5 -187z" />
    <glyph glyph-name="i" unicode="i" horiz-adv-x="487" 
d="M344 0h-197l162 922h197zM461 1194q-52 0 -84.5 38t-26.5 91q8 56 50 95.5t96 39.5q51 0 84 -40t26 -95q-6 -52 -49 -90.5t-96 -38.5z" />
    <glyph glyph-name="j" unicode="j" horiz-adv-x="421" 
d="M-215 -510h-35l31 172h35q137 0 205 81t104 280l160 899h192l-162 -914q-23 -128 -60.5 -219.5t-98.5 -161t-153.5 -103.5t-217.5 -34zM426 1192q-52 0 -81.5 39t-18.5 92q9 56 52 94.5t95 38.5q53 0 83.5 -39t21.5 -94q-11 -53 -55.5 -92t-96.5 -39z" />
    <glyph glyph-name="k" unicode="k" horiz-adv-x="958" 
d="M125 0l270 1536h195l-189 -1022h5l425 408h207l-366 -355l221 -567h-215l-150 422l-155 -150l-51 -272h-197z" />
    <glyph glyph-name="l" unicode="l" horiz-adv-x="444" 
d="M125 0l270 1536h195l-268 -1536h-197z" />
    <glyph glyph-name="m" unicode="m" horiz-adv-x="1583" 
d="M317 0h-192l164 922h174l-17 -146h7q117 166 284 166q120 0 181 -53.5t73 -165.5h6q45 88 128.5 153.5t189.5 65.5q176 0 233 -111t15 -350l-86 -481h-193l80 449q17 98 17 168.5t-36 110.5t-112 40q-80 0 -143 -72t-103 -188l-90 -508h-192l79 449q17 98 17 168.5
t-35.5 110.5t-110.5 40q-81 0 -143 -70.5t-104 -187.5z" />
    <glyph glyph-name="n" unicode="n" 
d="M322 0h-197l162 922h176l-21 -150h7q53 72 132 121t169 49q177 0 238.5 -112t21.5 -349l-86 -481h-195l78 449q19 98 19 168.5t-36.5 110.5t-111.5 40q-81 0 -150.5 -73t-111.5 -187z" />
    <glyph glyph-name="o" unicode="o" horiz-adv-x="1011" 
d="M504 -18q-86 0 -156 30.5t-118 91t-65 150t3 207.5q19 115 69 207.5t118.5 151t149.5 89.5t167 31q85 0 155 -30.5t118 -91t65.5 -150t-2.5 -207.5q-40 -226 -183 -352.5t-321 -126.5zM369 461q-29 -145 10 -232.5t143 -87.5q106 0 180.5 87t104.5 233q29 145 -10.5 233
t-143.5 88q-106 0 -180.5 -88t-103.5 -233z" />
    <glyph glyph-name="p" unicode="p" horiz-adv-x="1056" 
d="M227 -512h-192l256 1434h170l-15 -150h7q49 67 127 116.5t184 49.5q73 0 132.5 -25t103.5 -78.5t58.5 -136t-3.5 -196.5q-28 -154 -117 -270t-208 -173t-249 -57q-73 0 -159 16zM403 483l-59 -333q4 -1 30.5 -6t52.5 -8t52 -3q136 -1 238 104.5t129 256.5q25 136 -19 214
t-149 78q-65 0 -125.5 -48t-98.5 -116t-51 -139z" />
    <glyph glyph-name="q" unicode="q" horiz-adv-x="1060" 
d="M467 -16q-62 0 -114 14.5t-95.5 46.5t-68.5 82t-34 121t9 164q28 155 121 276.5t222.5 185.5t272.5 64q70 0 122.5 -6.5t114.5 -21.5t75 -17l-248 -1405h-189l123 692h-6q-62 -95 -133 -145.5t-172 -50.5zM379 428q-25 -136 18 -214.5t148 -78.5q64 0 127.5 63
t105.5 151.5t58 176.5l41 234q-81 24 -136 24q-133 0 -234.5 -105.5t-127.5 -250.5z" />
    <glyph glyph-name="r" unicode="r" horiz-adv-x="727" 
d="M125 0l162 922h176l-17 -156h7q52 79 148.5 130t207.5 40l-21 -180q-23 4 -61 4q-113 0 -191.5 -72.5t-115.5 -185.5l-98 -502h-197z" />
    <glyph glyph-name="s" unicode="s" horiz-adv-x="843" 
d="M412 -14q-100 0 -184.5 24.5t-131.5 59.5l70 131q94 -70 252 -70q70 0 121 31.5t63 81.5q12 53 -23 85.5t-133 63.5q-115 34 -171 104t-39 175q23 129 125 198.5t249 69.5q177 0 281 -74l-68 -131q-32 23 -91.5 40.5t-123.5 17.5q-69 0 -120 -31t-62 -78
q-11 -53 15 -79.5t91 -49.5q157 -46 218 -117.5t41 -185.5q-21 -125 -128.5 -195.5t-250.5 -70.5z" />
    <glyph glyph-name="t" unicode="t" horiz-adv-x="681" 
d="M434 -10q-247 0 -198 301l96 489h-111l12 113l125 29l95 268h137l-45 -268h233l-16 -142h-234l-94 -458q-21 -113 5.5 -156t84.5 -43q55 0 107 33l-13 -113q-23 -20 -82 -36.5t-102 -16.5z" />
    <glyph glyph-name="u" unicode="u" 
d="M442 -20q-177 0 -238 122t-16 377l80 443h195l-78 -443q-20 -100 -19.5 -172.5t37 -112.5t111.5 -40q81 0 150.5 73t111.5 189l94 506h197l-162 -922h-176l19 150h-5q-54 -71 -132.5 -120.5t-168.5 -49.5z" />
    <glyph glyph-name="v" unicode="v" horiz-adv-x="899" 
d="M186 922h213l88 -725h9l358 725h186l-475 -922h-239z" />
    <glyph glyph-name="w" unicode="w" horiz-adv-x="1386" 
d="M311 0l-129 922h219l60 -717h6l301 700h193l26 -700h6l350 717h189l-447 -922h-241l-15 643h-6l-284 -643h-228z" />
    <glyph glyph-name="x" unicode="x" horiz-adv-x="862" 
d="M37 0l369 461l-195 461h215l131 -306h4l240 306h190l-366 -463l190 -459h-215l-127 303h-6l-242 -303h-188z" />
    <glyph glyph-name="y" unicode="y" horiz-adv-x="913" 
d="M-18 -512h-50l21 174h49q124 0 236.5 94.5t185.5 247.5l-242 918h215l148 -680h8l330 680h176l-432 -895q-130 -270 -287 -404.5t-358 -134.5z" />
    <glyph glyph-name="z" unicode="z" horiz-adv-x="798" 
d="M262 922h631l-19 -156l-548 -619v-6h422l-17 -141h-663l20 152l561 622l2 6h-405z" />
    <glyph glyph-name="braceleft" unicode="{" horiz-adv-x="759" 
d="M371 330q18 101 -26 162t-130 61l23 119q86 0 150 61t83 164l59 336q22 118 117 180t258 62l-16 -86q-196 0 -227 -183l-58 -325q-16 -97 -81 -172t-173 -97q98 -22 136 -96.5t22 -171.5l-64 -362q-14 -91 24 -137t138 -46l-14 -86q-163 0 -235 61.5t-52 180.5z" />
    <glyph glyph-name="bar" unicode="|" horiz-adv-x="391" 
d="M123 -143l297 1679h96l-299 -1679h-94z" />
    <glyph glyph-name="braceright" unicode="}" horiz-adv-x="751" 
d="M66 -287l14 78q205 0 237 182l64 371q16 97 81 171.5t173 96.5q-99 22 -138 97.5t-20 171.5l60 333q15 88 -28 135.5t-144 47.5l14 78q159 0 229.5 -66t50.5 -176l-59 -336q-18 -103 25 -164t129 -61l-21 -119q-86 0 -151 -61t-84 -162l-66 -375q-20 -110 -113.5 -176
t-252.5 -66z" />
    <glyph glyph-name="asciitilde" unicode="~" horiz-adv-x="1210" 
d="M205 575l16 144q40 34 111.5 67t146.5 33q54 0 108 -20t99.5 -48l91 -56t98 -48t103.5 -20q116 0 264 131l-18 -144q-119 -110 -260 -110q-62 0 -120.5 20t-104 48t-88.5 56t-91 48t-94 20q-73 0 -150.5 -41.5t-111.5 -79.5z" />
    <glyph glyph-name="exclamdown" unicode="&#xa1;" horiz-adv-x="493" 
d="M55 -512l213 961h117l-127 -961h-203zM352 670q-53 0 -84.5 40t-21.5 95q9 54 52.5 92.5t100.5 38.5q55 0 87.5 -39t23.5 -92q-9 -57 -53.5 -96t-104.5 -39z" />
    <glyph glyph-name="cent" unicode="&#xa2;" horiz-adv-x="933" 
d="M469 178q-147 23 -223 143.5t-41 323.5q33 188 147.5 318t282.5 153l35 195h131l-33 -191q131 -12 209 -71l-76 -134q-65 58 -182 58q-123 0 -207 -93t-109 -231q-25 -142 31 -232.5t172 -90.5q63 0 123.5 17t99.5 42l31 -129q-122 -72 -260 -84l-31 -172h-131z" />
    <glyph glyph-name="sterling" unicode="&#xa3;" horiz-adv-x="915" 
d="M858 0h-803l27 154q110 103 170.5 203.5t60.5 224.5h-155l18 102h129q0 7 -3 45t-3.5 50t-1.5 44t-0.5 50t2.5 42.5t6 45.5q36 201 172 319.5t314 118.5q81 0 151.5 -23t108.5 -49l-84 -145q-97 53 -189 53q-97 0 -182.5 -75.5t-108.5 -209.5q-4 -22 -6 -46.5t-2.5 -56
t-0.5 -50.5t1.5 -59t1.5 -54h346l-18 -102h-326q0 -47 -8 -80q-32 -169 -190 -338l-2 -6h602z" />
    <glyph glyph-name="currency" unicode="&#xa4;" horiz-adv-x="1140" 
d="M182 305l158 125q-50 109 -25 264q26 149 121 271l-114 127l81 73l93 -141q125 109 276 109q154 0 240 -107l139 139l57 -73l-159 -127q54 -114 26 -271q-27 -151 -119 -266l113 -123l-84 -74l-88 138q-125 -109 -279 -109q-156 0 -241 109l-139 -138zM461 694
q-22 -127 27 -217t153 -90t186.5 90t104.5 217t-28 218.5t-154 91.5t-185 -91t-104 -219z" />
    <glyph glyph-name="yen" unicode="&#xa5;" horiz-adv-x="1239" 
d="M553 252h-315l24 131h316l26 152h-315l22 129h283l-287 669h223l230 -559h6l440 559l197 -2l-533 -667h293l-22 -129h-324l-26 -152h321l-22 -131h-322l-45 -252h-215z" />
    <glyph glyph-name="brokenbar" unicode="&#xa6;" horiz-adv-x="391" 
d="M297 840l123 696h96l-125 -696h-94zM123 -143l123 696h94l-123 -696h-94z" />
    <glyph glyph-name="section" unicode="&#xa7;" horiz-adv-x="1310" 
d="M51 -287l111 150q172 -111 375 -111q135 0 227.5 48.5t105.5 129.5q13 76 -58 125t-239 90q-410 105 -358 398q20 107 98 193.5t191 135.5v5q-97 88 -72 241q28 156 173 243t347 87q230 0 424 -115l-110 -149q-65 42 -154.5 70t-179.5 28q-126 0 -201 -47t-88 -121
q-14 -81 52 -127t210 -82q228 -54 325 -146t66 -259q-19 -110 -94.5 -193t-189.5 -137l-2 -4q95 -86 71 -229q-16 -89 -71.5 -158.5t-135.5 -111t-172 -62.5t-190 -21q-118 0 -246.5 35t-214.5 94zM418 555q-17 -94 54.5 -152.5t227.5 -95.5q88 -20 160 -49q93 33 157.5 92
t76.5 127q18 98 -58.5 161t-259.5 105q-48 9 -114 33q-98 -24 -165 -86.5t-79 -134.5z" />
    <glyph glyph-name="dieresis" unicode="&#xa8;" horiz-adv-x="884" 
d="M825 1096q-52 0 -84 36.5t-26 86.5q6 54 45 89t96 35q52 0 84 -36t25 -88q-5 -50 -45 -86.5t-95 -36.5zM467 1096q-52 0 -84.5 36.5t-26.5 86.5q6 54 45.5 89t96.5 35q51 0 83.5 -36t26.5 -88q-6 -51 -45.5 -87t-95.5 -36z" />
    <glyph glyph-name="copyright" unicode="&#xa9;" horiz-adv-x="1474" 
d="M733 -18q-176 0 -309 91.5t-191.5 249.5t-25.5 343q24 140 96 265.5t173.5 217t232.5 145.5t268 54q175 0 308 -91t192 -248.5t26 -342.5q-24 -139 -96 -265.5t-174 -218.5t-233 -146t-267 -54zM317 666q-28 -157 20.5 -290t158.5 -210.5t256 -77.5q147 0 285 77.5
t234 210.5t124 290t-21 290.5t-159.5 211t-256.5 77.5q-147 0 -285 -77.5t-233.5 -211t-122.5 -290.5zM793 274q-67 0 -125.5 25t-102.5 71.5t-62 123.5t-1 172q23 126 89 216.5t150.5 132.5t176.5 42q110 0 186 -52t102 -151l-121 -68q-16 67 -63 107.5t-121 40.5
q-100 1 -169 -75.5t-89 -192.5q-21 -113 28.5 -192t149.5 -79q71 0 134 40.5t104 107.5l86 -60q-64 -100 -154 -154.5t-198 -54.5z" />
    <glyph glyph-name="ordfeminine" unicode="&#xaa;" horiz-adv-x="630" 
d="M442 911q-94 0 -146 65.5t-30 192.5q26 139 129 227.5t228 88.5q61 0 200 -21l-73 -405q-15 -108 -11 -137h-114q-2 26 8 90h-4q-73 -101 -187 -101zM393 1178q-15 -81 11 -127.5t90 -46.5q58 0 105 57t58 125l37 198q-44 11 -84 11q-81 0 -142 -64.5t-75 -152.5z" />
    <glyph glyph-name="guillemotleft" unicode="&#xab;" horiz-adv-x="923" 
d="M186 438l9 37l417 406h103l-424 -422l-4 -17l252 -413h-95zM702 29l-258 409l9 37l417 406h103l-424 -422l-4 -17l252 -413h-95z" />
    <glyph glyph-name="logicalnot" unicode="&#xac;" horiz-adv-x="854" 
d="M233 739h652l-74 -413h-121l53 299h-530z" />
    <glyph glyph-name="registered" unicode="&#xae;" horiz-adv-x="917" 
d="M586 717q-152 0 -240.5 107t-60.5 259q28 153 154 261t278 108t240.5 -108.5t62.5 -260.5q-28 -152 -155 -259t-279 -107zM354 1083q-23 -126 47.5 -214.5t196.5 -88.5q124 0 226.5 88.5t125.5 214.5q23 128 -48 218t-195 90q-126 0 -228.5 -90t-124.5 -218zM492 901
l67 379q65 6 119 6q68 0 101.5 -26.5t23.5 -83.5q-15 -75 -82 -99v-2q14 -5 24.5 -19t16 -35.5t8.5 -39.5t6 -44.5t4 -35.5h-75q-1 5 -3 34.5t-5 51t-17.5 41t-38.5 19.5h-51l-27 -146h-71zM600 1102h35q81 0 94 69q5 28 -12 44t-51 16q-29 0 -43 -2z" />
    <glyph glyph-name="macron" unicode="&#xaf;" horiz-adv-x="978" 
d="M397 1102l11 90h571l-10 -90h-572z" />
    <glyph glyph-name="degree" unicode="&#xb0;" horiz-adv-x="651" 
d="M487 920q-109 0 -172.5 68t-40.5 196q16 86 64.5 147.5t111 89t132.5 27.5q110 0 174 -68.5t41 -195.5q-22 -128 -110.5 -196t-199.5 -68zM397 1184q-12 -71 16.5 -117.5t92.5 -46.5t111 46.5t59 117.5t-18 117.5t-93 46.5q-65 0 -110.5 -46t-57.5 -118z" />
    <glyph glyph-name="plusminus" unicode="&#xb1;" horiz-adv-x="1003" 
d="M557 766h-317l16 147h328l63 379h156l-64 -379h318l-17 -147h-325l-66 -377h-155zM141 88l17 125h755l-16 -125h-756z" />
    <glyph glyph-name="twosuperior" unicode="&#xb2;" horiz-adv-x="530" 
d="M233 922l15 84l235 206q31 28 44.5 40.5t36.5 44.5t28 61q6 37 -13.5 59.5t-58.5 22.5q-29 0 -57 -15.5t-44.5 -33t-41.5 -48.5l-68 48q106 141 236 141q80 0 121.5 -45t29.5 -121q-7 -42 -32.5 -82.5t-48 -63t-58.5 -53.5l-164 -147v-4h254l-16 -94h-398z" />
    <glyph glyph-name="threesuperior" unicode="&#xb3;" horiz-adv-x="528" 
d="M416 913q-121 0 -185 64l58 78q64 -54 139 -54q52 0 87 24.5t44 70.5t-19.5 71t-86.5 25h-58l15 74h55q54 0 86.5 24.5t40.5 65.5q13 78 -78 78q-71 0 -149 -58l-29 74q98 74 201 74q82 0 124.5 -37.5t28.5 -116.5q-8 -51 -34 -80t-68 -49v-4q92 -43 74 -150
q-9 -49 -35 -84.5t-62 -54t-73 -27t-76 -8.5z" />
    <glyph glyph-name="acute" unicode="&#xb4;" horiz-adv-x="761" 
d="M719 1413h213l-328 -321h-123z" />
    <glyph glyph-name="paragraph" unicode="&#xb6;" horiz-adv-x="1091" 
d="M625 494q-121 0 -213 62.5t-132.5 170.5t-17.5 236q34 194 189.5 332.5t339.5 138.5h464l-301 -1696h-129l279 1571h-146l-278 -1571h-129l133 756h-59z" />
    <glyph glyph-name="periodcentered" unicode="&#xb7;" horiz-adv-x="509" 
d="M360 553q-55 0 -89.5 39.5t-26.5 93.5q6 54 50.5 93.5t98.5 39.5t88 -39.5t27 -93.5q-6 -54 -50.5 -93.5t-97.5 -39.5z" />
    <glyph glyph-name="cedilla" unicode="&#xb8;" horiz-adv-x="573" 
d="M127 -344q-53 0 -98 20l24 80q36 -18 86 -18q46 0 80.5 13.5t40.5 43.5q8 31 -16.5 47.5t-59.5 16.5l-16 28l74 150h69l-53 -111q48 0 85.5 -34t29.5 -93q-9 -71 -77.5 -107t-168.5 -36z" />
    <glyph glyph-name="onesuperior" unicode="&#xb9;" horiz-adv-x="387" 
d="M315 1317l-28 74l192 118h74l-104 -587h-105l82 460h-4z" />
    <glyph glyph-name="ordmasculine" unicode="&#xba;" horiz-adv-x="651" 
d="M485 915q-114 0 -175.5 75.5t-37.5 209.5q24 135 113 211t203 76q112 0 174.5 -76.5t38.5 -210.5t-113 -209.5t-203 -75.5zM395 1200q-14 -80 13.5 -132t95.5 -52t115 52t61 132t-14.5 133t-96.5 53t-114 -52.5t-60 -133.5z" />
    <glyph glyph-name="guillemotright" unicode="&#xbb;" horiz-adv-x="921" 
d="M121 29l434 430l2 16l-256 406h90l262 -406l-8 -37l-420 -409h-104zM483 29h-104l434 430l2 16l-258 406h92l260 -406l-6 -37z" />
    <glyph glyph-name="onequarter" unicode="&#xbc;" horiz-adv-x="1077" 
d="M881 102h-271l13 74l356 412h78l-64 -406h66l-15 -80h-65l-16 -106h-99zM178 0h-90l1049 1331h82zM309 1153l-35 74l195 119h74l-105 -588h-104l88 461h-4zM930 442l-213 -260h178l39 260h-4z" />
    <glyph glyph-name="onehalf" unicode="&#xbd;" horiz-adv-x="1228" 
d="M764 0l16 84l234 207q31 28 44.5 40.5t35 44t26.5 60.5q7 37 -12 59.5t-57 22.5q-43 0 -76.5 -25.5t-69.5 -70.5l-65 47q101 141 235 141q80 0 121.5 -45t28.5 -121q-7 -42 -32 -82t-47.5 -62.5t-58.5 -53.5l-163 -148v-4h256l-19 -94h-397zM178 0h-90l1049 1331h82z
M274 1227l195 119h74l-105 -588h-104l88 461h-4l-109 -66z" />
    <glyph glyph-name="threequarters" unicode="&#xbe;" horiz-adv-x="1216" 
d="M752 102l12 74l356 412h78l-63 -406h65l-14 -80h-66l-16 -106h-98l16 106h-270zM193 793l55 77q59 -53 137 -53q53 0 88.5 24t44.5 70q10 47 -17 72t-85 25h-58l11 73h57q54 0 87 24.5t42 65.5q13 78 -76 78q-72 0 -149 -57l-33 74q97 73 201 73q82 0 125.5 -37
t29.5 -116q-8 -51 -34 -80t-68 -49l-2 -4q94 -42 76 -150q-9 -49 -35 -84.5t-62.5 -54t-73 -27t-75.5 -8.5q-122 0 -186 64zM319 0h-90l1049 1331h82zM1071 442l-213 -260h178l39 260h-4z" />
    <glyph glyph-name="questiondown" unicode="&#xbf;" horiz-adv-x="835" 
d="M358 -524q-184 0 -278.5 93.5t-67.5 258.5q12 64 38 117.5t66 95t73.5 69.5t85 64.5t75.5 56.5q76 62 116.5 124.5t53.5 140.5h182q-8 -96 -54.5 -180.5t-158.5 -184.5q-19 -18 -94 -72.5t-118.5 -106t-57.5 -118.5q-19 -94 34.5 -145t145.5 -51q140 0 320 112l63 -145
q-106 -62 -201.5 -95.5t-222.5 -33.5zM633 678q-54 0 -89.5 40t-29.5 95q6 54 48.5 92.5t101.5 38.5q55 0 90.5 -39t29.5 -92q-6 -57 -48.5 -96t-102.5 -39z" />
    <glyph glyph-name="Agrave" unicode="&#xc0;" horiz-adv-x="1265" 
d="M256 0h-199l760 1440h146l247 -1440h-223l-41 303h-526zM492 465h421l-75 602h-7zM653 1819h199l117 -283h-131z" />
    <glyph glyph-name="Aacute" unicode="&#xc1;" horiz-adv-x="1265" 
d="M256 0h-199l760 1440h146l247 -1440h-223l-41 303h-526zM492 465h421l-75 602h-7zM989 1536h-139l205 283h207z" />
    <glyph glyph-name="Acircumflex" unicode="&#xc2;" horiz-adv-x="1265" 
d="M256 0h-199l760 1440h146l247 -1440h-223l-41 303h-526zM831 1067l-339 -602h421l-75 602h-7zM602 1536l262 268h156l180 -268h-145l-123 154h-8l-179 -154h-143z" />
    <glyph glyph-name="Atilde" unicode="&#xc3;" horiz-adv-x="1265" 
d="M256 0h-199l760 1440h146l247 -1440h-223l-41 303h-526zM492 465h421l-75 602h-7zM623 1546q24 94 81 153.5t148 59.5q37 0 66 -11.5t46.5 -28.5t33.5 -34t35.5 -28.5t43.5 -11.5q43 0 72 30.5t41 71.5h113q-20 -93 -80.5 -155t-151.5 -62q-38 0 -67.5 11.5t-48 27.5
t-35 32t-36.5 27.5t-44 11.5q-45 0 -68.5 -25.5t-38.5 -68.5h-110z" />
    <glyph glyph-name="Adieresis" unicode="&#xc4;" horiz-adv-x="1265" 
d="M256 0h-199l760 1440h146l247 -1440h-223l-41 303h-526zM831 1067l-339 -602h421l-75 602h-7zM1104 1559q-51 0 -83 38t-26 89q6 54 46.5 91.5t93.5 37.5q50 0 82 -37.5t26 -91.5q-6 -51 -47 -89t-92 -38zM698 1559q-52 0 -84 37.5t-26 89.5q6 54 47 91.5t92 37.5
t83 -37.5t26 -91.5q-6 -51 -47.5 -89t-90.5 -38z" />
    <glyph glyph-name="Aring" unicode="&#xc5;" horiz-adv-x="1265" 
d="M256 0h-199l760 1440h146l247 -1440h-223l-41 303h-526zM891 1466q-89 0 -144.5 60.5t-39.5 163.5t89.5 163t161.5 60t144.5 -60t40.5 -163t-90 -163.5t-162 -60.5zM831 1067l-339 -602h421l-75 602h-7zM817 1690q-9 -52 15 -86.5t69 -34.5t83.5 34.5t47.5 86.5
q9 54 -15 88t-71 34q-46 0 -83 -35t-46 -87z" />
    <glyph glyph-name="AE" unicode="&#xc6;" horiz-adv-x="1859" 
d="M57 0l1008 1434h928l-21 -185h-602l-92 -428h543l-19 -170h-545l-98 -467h602l-20 -184h-817l61 303h-500l-223 -303h-205zM1149 1249l-569 -784h424l151 784h-6z" />
    <glyph glyph-name="Ccedilla" unicode="&#xc7;" horiz-adv-x="1261" 
d="M664 -12q-245 36 -360 235t-60 506q29 164 101.5 298.5t174 226t229 141t267.5 49.5q227 0 389 -96l-90 -168q-61 36 -143.5 56.5t-165.5 20.5q-188 0 -339.5 -147t-195.5 -381q-48 -252 48 -408.5t282 -156.5q191 0 342 88l45 -156q-112 -62 -218 -88t-239 -26l-26 -56
q46 0 83 -34t29 -93q-9 -71 -76.5 -107t-169.5 -36q-53 0 -98 20l25 80q41 -18 88 -18q45 0 79.5 13.5t41.5 43.5q8 31 -16.5 47.5t-59.5 16.5l-17 28z" />
    <glyph glyph-name="Egrave" unicode="&#xc8;" horiz-adv-x="1091" 
d="M154 0l252 1434h817l-21 -185h-602l-92 -428h545l-21 -170h-543l-100 -467h602l-20 -184h-817zM600 1819h197l118 -283h-131z" />
    <glyph glyph-name="Eacute" unicode="&#xc9;" horiz-adv-x="1091" 
d="M154 0l252 1434h817l-21 -185h-602l-92 -428h545l-21 -170h-543l-100 -467h602l-20 -184h-817zM950 1819h207l-272 -283h-140z" />
    <glyph glyph-name="Ecircumflex" unicode="&#xca;" horiz-adv-x="1091" 
d="M971 0h-817l252 1434h817l-21 -185h-602l-92 -428h545l-21 -170h-543l-100 -467h602zM678 1536h-146l263 268h157l178 -268h-143l-125 154h-6z" />
    <glyph glyph-name="Edieresis" unicode="&#xcb;" horiz-adv-x="1091" 
d="M154 0l252 1434h817l-21 -185h-602l-92 -428h545l-21 -170h-543l-100 -467h602l-20 -184h-817zM1044 1559q-51 0 -82.5 38t-25.5 89q6 54 46.5 91.5t92.5 37.5q50 0 82.5 -38t26.5 -91q-6 -51 -48 -89t-92 -38zM639 1559q-52 0 -84.5 38t-26.5 89q6 54 47.5 91.5
t92.5 37.5q50 0 82 -37.5t26 -91.5q-6 -51 -47 -89t-90 -38z" />
    <glyph glyph-name="Igrave" unicode="&#xcc;" horiz-adv-x="520" 
d="M154 0l252 1434h215l-252 -1434h-215zM293 1819h196l117 -283h-129z" />
    <glyph glyph-name="Iacute" unicode="&#xcd;" horiz-adv-x="520" 
d="M154 0l252 1434h215l-252 -1434h-215zM659 1819h205l-272 -283h-139z" />
    <glyph glyph-name="Icircumflex" unicode="&#xce;" horiz-adv-x="520" 
d="M154 0l252 1434h215l-252 -1434h-215zM365 1536h-144l262 268h156l180 -268h-145l-123 154h-8z" />
    <glyph glyph-name="Idieresis" unicode="&#xcf;" horiz-adv-x="520" 
d="M154 0l252 1434h215l-252 -1434h-215zM741 1559q-51 0 -82.5 38t-25.5 89q6 54 47 91.5t92 37.5q50 0 82.5 -38t26.5 -91q-6 -51 -47.5 -89t-92.5 -38zM336 1559q-52 0 -84.5 38t-26.5 89q6 54 47.5 91.5t92.5 37.5t82.5 -37.5t25.5 -91.5q-6 -51 -47 -89t-90 -38z" />
    <glyph glyph-name="Eth" unicode="&#xd0;" horiz-adv-x="1333" 
d="M272 678h-133l13 117h141l113 632q215 17 417 17q298 0 441 -185.5t90 -500.5q-29 -165 -98 -306.5t-169 -245.5t-234.5 -163t-285.5 -59q-285 0 -413 16zM729 678h-242l-100 -506q68 -8 203 -8q193 0 342 170t196 424q42 231 -42.5 368.5t-278.5 137.5q-102 0 -207 -11
l-90 -458h233z" />
    <glyph glyph-name="Ntilde" unicode="&#xd1;" horiz-adv-x="1318" 
d="M154 0l252 1434h202l391 -1049h7l208 1049h205l-252 -1434h-204l-392 1020h-6l-207 -1020h-204zM786 1546h-110q24 94 81 153.5t148 59.5q45 0 79 -18t50.5 -39t40.5 -39t53 -18q45 0 74 30t41 72h111q-19 -93 -79.5 -155t-152.5 -62q-37 0 -66.5 11.5t-47.5 27.5
t-34.5 32t-36.5 27.5t-44 11.5q-79 0 -107 -94z" />
    <glyph glyph-name="Ograve" unicode="&#xd2;" horiz-adv-x="1423" 
d="M709 -20q-183 0 -302 93t-161 259t-4 385q58 332 254 534.5t471 202.5q184 0 303.5 -93t161.5 -259t4 -385q-38 -218 -138.5 -384.5t-253 -259.5t-335.5 -93zM465 717q-28 -163 -12 -284.5t87.5 -192t188.5 -70.5q178 0 305.5 150t175.5 397q48 249 -19.5 398t-244.5 149
q-178 0 -305.5 -149.5t-175.5 -397.5zM739 1819h197l117 -283h-131z" />
    <glyph glyph-name="Oacute" unicode="&#xd3;" horiz-adv-x="1423" 
d="M709 -20q-183 0 -302 93t-161 259t-4 385q58 332 254 534.5t471 202.5q184 0 303.5 -93t161.5 -259t4 -385q-38 -218 -138.5 -384.5t-253 -259.5t-335.5 -93zM465 717q-28 -163 -12 -284.5t87.5 -192t188.5 -70.5q178 0 305.5 150t175.5 397q48 249 -19.5 398t-244.5 149
q-178 0 -305.5 -149.5t-175.5 -397.5zM1055 1536h-140l205 283h207z" />
    <glyph glyph-name="Ocircumflex" unicode="&#xd4;" horiz-adv-x="1423" 
d="M709 -20q-183 0 -302 93t-161 259t-4 385q58 332 254 534.5t471 202.5q184 0 303.5 -93t161.5 -259t4 -385q-38 -218 -138.5 -384.5t-253 -259.5t-335.5 -93zM465 717q-28 -163 -12 -284.5t87.5 -192t188.5 -70.5q178 0 305.5 150t175.5 397q48 249 -19.5 398t-244.5 149
q-178 0 -305.5 -149.5t-175.5 -397.5zM829 1536h-143l262 268h156l180 -268h-145l-123 154h-8z" />
    <glyph glyph-name="Otilde" unicode="&#xd5;" horiz-adv-x="1423" 
d="M709 -20q-183 0 -302 93t-161 259t-4 385q58 332 254 534.5t471 202.5q184 0 303.5 -93t161.5 -259t4 -385q-38 -218 -138.5 -384.5t-253 -259.5t-335.5 -93zM465 717q-28 -163 -12 -284.5t87.5 -192t188.5 -70.5q178 0 305.5 150t175.5 397q48 249 -19.5 398t-244.5 149
q-178 0 -305.5 -149.5t-175.5 -397.5zM723 1546q24 94 81 153.5t148 59.5q37 0 66 -11.5t46.5 -28.5t33 -34t35 -28.5t43.5 -11.5q45 0 73 30t41 72h111q-19 -93 -79.5 -155t-152.5 -62q-37 0 -66.5 11.5t-47.5 27.5t-34.5 32t-36.5 27.5t-44 11.5q-78 0 -106 -94h-111z" />
    <glyph glyph-name="Odieresis" unicode="&#xd6;" horiz-adv-x="1423" 
d="M709 -20q-183 0 -302 93t-161 259t-4 385q58 332 254 534.5t471 202.5q184 0 303.5 -93t161.5 -259t4 -385q-38 -218 -138.5 -384.5t-253 -259.5t-335.5 -93zM465 717q-28 -163 -12 -284.5t87.5 -192t188.5 -70.5q178 0 305.5 150t175.5 397q48 249 -19.5 398t-244.5 149
q-178 0 -305.5 -149.5t-175.5 -397.5zM1182 1559q-51 0 -83 38t-26 89q6 54 46.5 91.5t92.5 37.5q50 0 81.5 -37.5t25.5 -91.5q-4 -51 -45.5 -89t-91.5 -38zM774 1559q-51 0 -82.5 38t-25.5 89q6 54 47 91.5t92 37.5q50 0 81.5 -38t24.5 -91q-5 -51 -45.5 -89t-91.5 -38z
" />
    <glyph glyph-name="multiply" unicode="&#xd7;" horiz-adv-x="1064" 
d="M688 731l313 270l89 -118l-314 -271l199 -268l-137 -119l-199 271l-313 -271l-88 119l313 270l-199 271l137 116z" />
    <glyph glyph-name="Oslash" unicode="&#xd8;" horiz-adv-x="1423" 
d="M385 90q-106 95 -143 256.5t0 370.5q58 332 254 534.5t471 202.5q200 0 323 -111l103 142h88l-142 -195q78 -97 103 -243.5t-6 -329.5q-38 -218 -138.5 -384.5t-253 -259.5t-335.5 -93q-156 0 -269 69l-71 -100h-86zM514 270l647 895q-74 99 -215 99
q-178 0 -305.5 -149.5t-175.5 -397.5q-58 -301 49 -447zM1198 1096l-633 -877q64 -49 164 -49q178 0 305.5 150t175.5 397q47 236 -12 379z" />
    <glyph glyph-name="Ugrave" unicode="&#xd9;" horiz-adv-x="1220" 
d="M608 -16q-261 0 -349.5 162t-31.5 489l140 799h215l-144 -820q-48 -236 1.5 -345t191.5 -109q148 -2 238.5 104.5t140.5 349.5l145 820h205l-141 -799q-57 -326 -203 -488.5t-408 -162.5zM827 1536l-184 283h197l116 -283h-129z" />
    <glyph glyph-name="Uacute" unicode="&#xda;" horiz-adv-x="1220" 
d="M608 -16q-261 0 -349.5 162t-31.5 489l140 799h215l-144 -820q-48 -236 1.5 -345t191.5 -109q148 -2 238.5 104.5t140.5 349.5l145 820h205l-141 -799q-57 -326 -203 -488.5t-408 -162.5zM950 1536h-139l205 283h207z" />
    <glyph glyph-name="Ucircumflex" unicode="&#xdb;" horiz-adv-x="1220" 
d="M608 -16q-261 0 -349.5 162t-31.5 489l140 799h215l-144 -820q-48 -236 1.5 -345t191.5 -109q148 -2 238.5 104.5t140.5 349.5l145 820h205l-141 -799q-57 -326 -203 -488.5t-408 -162.5zM731 1536h-145l262 268h158l178 -268h-144l-125 154h-8z" />
    <glyph glyph-name="Udieresis" unicode="&#xdc;" horiz-adv-x="1220" 
d="M608 -16q-261 0 -349.5 162t-31.5 489l140 799h215l-144 -820q-48 -236 1.5 -345t191.5 -109q148 -2 238.5 104.5t140.5 349.5l145 820h205l-141 -799q-57 -326 -203 -488.5t-408 -162.5zM1077 1559q-51 0 -82.5 38t-25.5 89q6 54 46.5 91.5t92.5 37.5q50 0 81 -37.5
t25 -91.5q-4 -51 -45.5 -89t-91.5 -38zM672 1559q-52 0 -84.5 38t-26.5 89q6 54 47 91.5t92 37.5q50 0 82.5 -38t26.5 -91q-6 -51 -47 -89t-90 -38z" />
    <glyph glyph-name="Yacute" unicode="&#xdd;" horiz-adv-x="1239" 
d="M322 1434h227l217 -560h6l449 562l200 -2l-571 -732l-123 -702h-219l121 694zM1032 1819h207l-272 -283h-140z" />
    <glyph glyph-name="Thorn" unicode="&#xde;" horiz-adv-x="1110" 
d="M156 0l254 1434h211l-50 -279q132 8 181 8q230 0 339.5 -107t73.5 -313q-20 -114 -73.5 -201t-130 -139.5t-165.5 -80t-190 -29.5q-82 -2 -186 16l-55 -309h-209zM539 975l-88 -490q78 -16 167 -16q144 0 225.5 72t102.5 202q19 106 -35.5 174t-193.5 68q-93 0 -178 -10z
" />
    <glyph glyph-name="germandbls" unicode="&#xdf;" horiz-adv-x="1253" 
d="M-162 -510h-37l31 172h35q135 0 204 78t103 268l174 983q46 253 195.5 398t363.5 145q84 0 151 -27t107.5 -72t64 -104t25 -121.5t-14.5 -126t-50 -116.5q-14 -7 -49 -19.5t-63 -25t-59.5 -32t-52.5 -49.5t-28 -69q-6 -32 8.5 -60.5t41.5 -52.5t60.5 -48t66 -54t57.5 -65
t35.5 -86t0.5 -111q-26 -139 -144 -224t-267 -85q-101 0 -190 26.5t-136 61.5l94 135q41 -35 106.5 -56.5t137.5 -21.5q81 0 142.5 50.5t72.5 113.5q7 43 -6 79t-40 62t-61 50.5t-67.5 51t-59.5 56.5t-38 74t-2 98q7 42 28.5 79t45 60.5t60 46.5t58 33.5t56 24.5t38.5 16
q27 51 33.5 110t-8.5 111.5t-62.5 87.5t-121.5 35q-68 0 -126.5 -32t-100 -89t-70 -129t-43.5 -157l-170 -955q-22 -127 -59.5 -219t-99 -161.5t-153.5 -103.5t-217 -34z" />
    <glyph glyph-name="agrave" unicode="&#xe0;" horiz-adv-x="1060" 
d="M457 -16q-74 0 -133.5 24t-104 75.5t-58.5 133t3 195.5q42 233 213 379.5t379 146.5q34 0 70 -2t59.5 -3.5t61.5 -7t49.5 -7t52 -8.5t43.5 -7l-123 -674q-25 -181 -17 -229h-192q-2 34 16 150h-6q-51 -67 -129.5 -116.5t-183.5 -49.5zM373 428q-28 -137 13 -215t146 -78
q97 0 180 96t103 207l68 334q-100 16 -140 16q-132 0 -236.5 -107t-133.5 -253zM516 1413h207l195 -321h-119z" />
    <glyph glyph-name="aacute" unicode="&#xe1;" horiz-adv-x="1060" 
d="M457 -16q-74 0 -133.5 24t-104 75.5t-58.5 133t3 195.5q42 233 213 379.5t379 146.5q34 0 70 -2t59.5 -3.5t61.5 -7t49.5 -7t52 -8.5t43.5 -7l-123 -674q-25 -181 -17 -229h-192q-2 34 16 150h-6q-51 -67 -129.5 -116.5t-183.5 -49.5zM373 428q-28 -137 13 -215t146 -78
q97 0 180 96t103 207l68 334q-100 16 -140 16q-132 0 -236.5 -107t-133.5 -253zM688 1092l236 321h213l-328 -321h-121z" />
    <glyph glyph-name="acircumflex" unicode="&#xe2;" horiz-adv-x="1060" 
d="M457 -16q-74 0 -133.5 24t-104 75.5t-58.5 133t3 195.5q42 233 213 379.5t379 146.5q34 0 70 -2t59.5 -3.5t61.5 -7t49.5 -7t52 -8.5t43.5 -7l-123 -674q-25 -181 -17 -229h-192q-2 34 16 150h-6q-51 -67 -129.5 -116.5t-183.5 -49.5zM373 428q-28 -137 13 -215t146 -78
q97 0 180 96t103 207l68 334q-100 16 -140 16q-132 0 -236.5 -107t-133.5 -253zM471 1085l287 320h157l156 -320h-123l-127 209h-6l-221 -209h-123z" />
    <glyph glyph-name="atilde" unicode="&#xe3;" horiz-adv-x="1060" 
d="M457 -16q-74 0 -133.5 24t-104 75.5t-58.5 133t3 195.5q42 233 213 379.5t379 146.5q34 0 70 -2t59.5 -3.5t61.5 -7t49.5 -7t52 -8.5t43.5 -7l-123 -674q-25 -181 -17 -229h-192q-2 34 16 150h-6q-51 -67 -129.5 -116.5t-183.5 -49.5zM373 428q-28 -137 13 -215t146 -78
q97 0 180 96t103 207l68 334q-100 16 -140 16q-132 0 -236.5 -107t-133.5 -253zM555 1126h-111q28 96 89 162t151 66q37 0 65 -13.5t44.5 -32t31 -37.5t33.5 -32.5t43 -13.5q43 0 74.5 35.5t46.5 80.5h113q-24 -94 -91 -162.5t-159 -68.5q-37 0 -65 13t-44.5 31t-31 36.5
t-33.5 31.5t-43 13q-76 0 -113 -109z" />
    <glyph glyph-name="adieresis" unicode="&#xe4;" horiz-adv-x="1060" 
d="M457 -16q-74 0 -133.5 24t-104 75.5t-58.5 133t3 195.5q42 233 213 379.5t379 146.5q34 0 70 -2t59.5 -3.5t61.5 -7t49.5 -7t52 -8.5t43.5 -7l-123 -674q-25 -181 -17 -229h-192q-2 34 16 150h-6q-51 -67 -129.5 -116.5t-183.5 -49.5zM373 428q-28 -137 13 -215t146 -78
q97 0 180 96t103 207l68 334q-100 16 -140 16q-132 0 -236.5 -107t-133.5 -253zM616 1096q-52 0 -84.5 36.5t-27.5 86.5q6 53 45.5 88.5t97.5 35.5q51 0 83 -36t26 -88q-6 -51 -46 -87t-94 -36zM975 1096q-52 0 -85.5 36.5t-27.5 86.5q6 53 46 88.5t98 35.5q50 0 82 -36
t26 -88q-6 -51 -45.5 -87t-93.5 -36z" />
    <glyph glyph-name="aring" unicode="&#xe5;" horiz-adv-x="1060" 
d="M457 -16q-74 0 -133.5 24t-104 75.5t-58.5 133t3 195.5q42 233 213 379.5t379 146.5q34 0 70 -2t59.5 -3.5t61.5 -7t49.5 -7t52 -8.5t43.5 -7l-123 -674q-25 -181 -17 -229h-192q-2 34 16 150h-6q-51 -67 -129.5 -116.5t-183.5 -49.5zM373 428q-28 -137 13 -215t146 -78
q97 0 180 96t103 207l68 334q-100 16 -140 16q-132 0 -236.5 -107t-133.5 -253zM772 946q-89 0 -142 59t-32 162q22 105 97.5 164.5t164.5 59.5q88 0 141.5 -60.5t32.5 -163.5q-22 -104 -97.5 -162.5t-164.5 -58.5zM713 1167q-12 -52 9 -84t64 -32q46 0 85 32.5t51 83.5
q10 52 -11.5 85.5t-64.5 35.5q-46 0 -83.5 -34t-49.5 -87z" />
    <glyph glyph-name="ae" unicode="&#xe6;" horiz-adv-x="1462" 
d="M414 -20q-147 0 -218.5 85t-45.5 205q17 77 65.5 136t115.5 93.5t141.5 52t152.5 17.5h143l2 6q14 105 -24 156t-132 51q-120 0 -254 -75l-36 129q204 104 366 104q100 0 164.5 -41t83.5 -111h2q66 73 153 111.5t177 38.5q129 0 192.5 -74.5t40.5 -181.5
q-10 -45 -37 -81.5t-62 -60t-85 -41t-95 -26.5t-103.5 -14.5t-99 -6.5t-91.5 -1q-29 -140 27 -227t171 -87q68 0 144.5 17.5t116.5 40.5l18 -127q-142 -84 -328 -84q-99 0 -177 41.5t-120 119.5h-4q-66 -68 -159.5 -116.5t-204.5 -48.5zM356 287q-17 -74 21 -118t117 -44
q64 0 137 40.5t114 88.5q-17 87 9 195h-131q-60 0 -114 -16.5t-97 -54t-56 -91.5zM1253 795q-101 0 -182.5 -64t-120.5 -160v-4q206 1 297 28.5t105 90.5q10 44 -19 75.5t-80 33.5z" />
    <glyph glyph-name="ccedilla" unicode="&#xe7;" horiz-adv-x="880" 
d="M432 -8q-144 28 -218.5 149t-39.5 320q37 208 172 343.5t330 135.5q170 0 272 -76l-69 -133q-64 57 -181 57q-122 0 -207.5 -92.5t-113.5 -230.5q-28 -143 24 -233.5t168 -90.5q61 0 121.5 17.5t100.5 42.5l40 -129q-139 -86 -331 -86l-27 -60q46 0 83.5 -34t29.5 -93
q-9 -71 -76.5 -107t-169.5 -36q-53 0 -98 20l24 80q41 -18 86 -18q110 0 123 57q8 31 -16.5 47.5t-59.5 16.5l-18 28z" />
    <glyph glyph-name="egrave" unicode="&#xe8;" horiz-adv-x="913" 
d="M530 -16q-85 0 -155.5 31.5t-120 90.5t-68.5 151t0 204q20 115 69.5 207t118 150t149 89t165.5 31q62 0 111.5 -19.5t79 -52.5t44.5 -76t11.5 -92t-23.5 -98q-37 -93 -172 -158.5t-379 -81.5q3 -106 58.5 -164.5t154.5 -58.5q67 0 139 17.5t113 40.5l31 -127
q-138 -84 -326 -84zM375 477q171 15 271 56t122 102q24 61 -1 110t-85 50q-115 0 -197.5 -94.5t-109.5 -223.5zM371 1413h207l192 -321h-119z" />
    <glyph glyph-name="eacute" unicode="&#xe9;" horiz-adv-x="913" 
d="M530 -16q-85 0 -155.5 31.5t-120 90.5t-68.5 151t0 204q20 115 69.5 207t118 150t149 89t165.5 31q62 0 111.5 -19.5t79 -52.5t44.5 -76t11.5 -92t-23.5 -98q-37 -93 -172 -158.5t-379 -81.5q3 -106 58.5 -164.5t154.5 -58.5q67 0 139 17.5t113 40.5l31 -127
q-138 -84 -326 -84zM375 477q171 15 271 56t122 102q24 61 -1 110t-85 50q-115 0 -197.5 -94.5t-109.5 -223.5zM711 1092h-123l237 321h211z" />
    <glyph glyph-name="ecircumflex" unicode="&#xea;" horiz-adv-x="913" 
d="M530 -16q-85 0 -155.5 31.5t-120 90.5t-68.5 151t0 204q20 115 69.5 207t118 150t149 89t165.5 31q62 0 111.5 -19.5t79 -52.5t44.5 -76t11.5 -92t-23.5 -98q-37 -93 -172 -158.5t-379 -81.5q3 -106 58.5 -164.5t154.5 -58.5q67 0 139 17.5t113 40.5l31 -127
q-138 -84 -326 -84zM375 477q171 15 271 56t122 102q24 61 -1 110t-85 50q-115 0 -197.5 -94.5t-109.5 -223.5zM393 1085l287 320h158l155 -320h-121l-129 209h-6l-221 -209h-123z" />
    <glyph glyph-name="edieresis" unicode="&#xeb;" horiz-adv-x="913" 
d="M530 -16q-85 0 -155.5 31.5t-120 90.5t-68.5 151t0 204q20 115 69.5 207t118 150t149 89t165.5 31q62 0 111.5 -19.5t79 -52.5t44.5 -76t11.5 -92t-23.5 -98q-37 -93 -172 -158.5t-379 -81.5q3 -106 58.5 -164.5t154.5 -58.5q67 0 139 17.5t113 40.5l31 -127
q-138 -84 -326 -84zM375 477q171 15 271 56t122 102q24 61 -1 110t-85 50q-115 0 -197.5 -94.5t-109.5 -223.5zM526 1096q-52 0 -85 36.5t-27 86.5q6 53 45.5 88.5t95.5 35.5q51 0 84 -36t27 -88q-6 -51 -46 -87t-94 -36zM885 1096q-52 0 -85.5 36.5t-27.5 86.5
q6 53 45.5 88.5t95.5 35.5q51 0 84 -36t27 -88q-6 -51 -45.5 -87t-93.5 -36z" />
    <glyph glyph-name="igrave" unicode="&#xec;" horiz-adv-x="487" 
d="M147 0l162 922h197l-162 -922h-197zM324 1413l192 -321h-119l-282 321h209z" />
    <glyph glyph-name="iacute" unicode="&#xed;" horiz-adv-x="487" 
d="M147 0l162 922h197l-162 -922h-197zM594 1413h213l-328 -321h-123z" />
    <glyph glyph-name="icircumflex" unicode="&#xee;" horiz-adv-x="487" 
d="M147 0l162 922h197l-162 -922h-197zM225 1085h-123l289 320h156l158 -320h-123l-129 209h-7z" />
    <glyph glyph-name="idieresis" unicode="&#xef;" horiz-adv-x="487" 
d="M147 0l162 922h197l-162 -922h-197zM616 1096q-52 0 -84 36.5t-26 86.5q6 54 45 89t96 35q52 0 84 -36t25 -88q-5 -50 -45 -86.5t-95 -36.5zM258 1096q-52 0 -84.5 36.5t-26.5 86.5q6 54 45.5 89t96.5 35q51 0 83.5 -36t26.5 -88q-6 -51 -45.5 -87t-95.5 -36z" />
    <glyph glyph-name="eth" unicode="&#xf0;" horiz-adv-x="1150" 
d="M567 -16q-110 0 -194 37.5t-132 101.5t-65.5 148t-1.5 178q32 181 176 307.5t342 126.5q177 0 277 -144h6q16 201 -66 324l-149 -86l-27 55l135 78q-71 68 -182 68q-45 0 -98 -17l-23 160q80 25 152 25q207 0 330 -132l174 99l24 -56l-160 -92q142 -204 74 -590
q-48 -271 -205 -431t-387 -160zM377 440q-26 -142 41 -223.5t176 -81.5t199.5 88t119.5 252q23 127 -45 198.5t-178 71.5q-114 0 -201 -80t-112 -225z" />
    <glyph glyph-name="ntilde" unicode="&#xf1;" 
d="M125 0l162 922h176l-21 -150h7q53 72 132 121t169 49q177 0 238.5 -112t21.5 -349l-86 -481h-195l78 449q19 98 19 168.5t-36.5 110.5t-111.5 40q-81 0 -150.5 -73t-111.5 -187l-94 -508h-197zM469 1114h-111q28 96 89.5 161.5t152.5 65.5q37 0 65 -13.5t44 -32.5
t30.5 -37.5t33 -32t42.5 -13.5q44 0 75 35t46 80h113q-24 -94 -91 -161.5t-159 -67.5q-37 0 -65 13t-44.5 31t-31 36.5t-33.5 31.5t-43 13q-74 0 -113 -109z" />
    <glyph glyph-name="ograve" unicode="&#xf2;" horiz-adv-x="1011" 
d="M504 -18q-86 0 -156 30.5t-118 91t-65 150t3 207.5q19 115 69 207.5t118.5 151t149.5 89.5t167 31q85 0 155 -30.5t118 -91t65.5 -150t-2.5 -207.5q-40 -226 -183 -352.5t-321 -126.5zM369 461q-29 -145 10 -232.5t143 -87.5q106 0 180.5 87t104.5 233q29 145 -10.5 233
t-143.5 88q-106 0 -180.5 -88t-103.5 -233zM385 1413h207l192 -321h-118z" />
    <glyph glyph-name="oacute" unicode="&#xf3;" horiz-adv-x="1011" 
d="M504 -18q-86 0 -156 30.5t-118 91t-65 150t3 207.5q19 115 69 207.5t118.5 151t149.5 89.5t167 31q85 0 155 -30.5t118 -91t65.5 -150t-2.5 -207.5q-40 -226 -183 -352.5t-321 -126.5zM369 461q-29 -145 10 -232.5t143 -87.5q106 0 180.5 87t104.5 233q29 145 -10.5 233
t-143.5 88q-106 0 -180.5 -88t-103.5 -233zM729 1092h-121l236 321h213z" />
    <glyph glyph-name="ocircumflex" unicode="&#xf4;" horiz-adv-x="1011" 
d="M504 -18q-86 0 -156 30.5t-118 91t-65 150t3 207.5q19 115 69 207.5t118.5 151t149.5 89.5t167 31q85 0 155 -30.5t118 -91t65.5 -150t-2.5 -207.5q-40 -226 -183 -352.5t-321 -126.5zM369 461q-29 -145 10 -232.5t143 -87.5q106 0 180.5 87t104.5 233q29 145 -10.5 233
t-143.5 88q-106 0 -180.5 -88t-103.5 -233zM522 1085h-123l287 320h158l155 -320h-120l-129 209h-7z" />
    <glyph glyph-name="otilde" unicode="&#xf5;" horiz-adv-x="1011" 
d="M504 -18q-86 0 -156 30.5t-118 91t-65 150t3 207.5q19 115 69 207.5t118.5 151t149.5 89.5t167 31q85 0 155 -30.5t118 -91t65.5 -150t-2.5 -207.5q-40 -226 -183 -352.5t-321 -126.5zM369 461q-29 -145 10 -232.5t143 -87.5q106 0 180.5 87t104.5 233q29 145 -10.5 233
t-143.5 88q-106 0 -180.5 -88t-103.5 -233zM449 1114h-109q26 95 88 161t152 66q37 0 65 -13.5t44.5 -32.5t31 -37.5t33.5 -32t43 -13.5q43 0 74.5 35.5t46.5 79.5h110q-22 -93 -89.5 -161t-158.5 -68q-37 0 -65 13t-44.5 31t-31 36.5t-33.5 31.5t-43 13q-31 0 -55.5 -19.5
t-35.5 -39.5t-23 -50z" />
    <glyph glyph-name="odieresis" unicode="&#xf6;" horiz-adv-x="1011" 
d="M504 -18q-86 0 -156 30.5t-118 91t-65 150t3 207.5q19 115 69 207.5t118.5 151t149.5 89.5t167 31q85 0 155 -30.5t118 -91t65.5 -150t-2.5 -207.5q-40 -226 -183 -352.5t-321 -126.5zM369 461q-29 -145 10 -232.5t143 -87.5q106 0 180.5 87t104.5 233q29 145 -10.5 233
t-143.5 88q-106 0 -180.5 -88t-103.5 -233zM887 1096q-52 0 -85.5 36.5t-27.5 86.5q6 53 45.5 88.5t95.5 35.5q51 0 84 -36t27 -88q-6 -51 -45.5 -87t-93.5 -36zM528 1096q-52 0 -85 36.5t-27 86.5q6 53 45.5 88.5t95.5 35.5q51 0 84 -36t27 -88q-6 -51 -46 -87t-94 -36z
" />
    <glyph glyph-name="divide" unicode="&#xf7;" horiz-adv-x="1062" 
d="M1063 457h-868l24 116h868zM532 -2q-49 0 -76 36.5t-16 86.5q10 52 53 88.5t93 36.5q47 0 73.5 -36.5t16.5 -88.5q-10 -49 -53.5 -86t-90.5 -37zM694 758q-49 0 -76 37t-16 88t54 88t92 37q46 0 73 -37t17 -88t-53.5 -88t-90.5 -37z" />
    <glyph glyph-name="oslash" unicode="&#xf8;" horiz-adv-x="1011" 
d="M256 74q-135 132 -88 387q19 115 69 207.5t118.5 151t149.5 89.5t167 31q124 0 209 -61l86 112l55 -33l-94 -120q125 -131 80 -377q-40 -226 -183 -352.5t-321 -126.5q-116 0 -199 53l-84 -107l-55 31zM377 231l391 504q-41 47 -115 47q-106 0 -180.5 -88t-103.5 -233
q-28 -147 8 -230zM803 676l-387 -498q40 -37 106 -37q106 0 180.5 87t104.5 233q25 135 -4 215z" />
    <glyph glyph-name="ugrave" unicode="&#xf9;" 
d="M442 -20q-177 0 -238 122t-16 377l80 443h195l-78 -443q-20 -100 -19.5 -172.5t37 -112.5t111.5 -40q81 0 150.5 73t111.5 189l94 506h197l-162 -922h-176l19 150h-5q-54 -71 -132.5 -120.5t-168.5 -49.5zM352 1413h207l195 -321h-119z" />
    <glyph glyph-name="uacute" unicode="&#xfa;" 
d="M442 -20q-177 0 -238 122t-16 377l80 443h195l-78 -443q-20 -100 -19.5 -172.5t37 -112.5t111.5 -40q81 0 150.5 73t111.5 189l94 506h197l-162 -922h-176l19 150h-5q-54 -71 -132.5 -120.5t-168.5 -49.5zM743 1092h-120l235 321h213z" />
    <glyph glyph-name="ucircumflex" unicode="&#xfb;" 
d="M442 -20q-177 0 -238 122t-16 377l80 443h195l-78 -443q-20 -100 -19.5 -172.5t37 -112.5t111.5 -40q81 0 150.5 73t111.5 189l94 506h197l-162 -922h-176l19 150h-5q-54 -71 -132.5 -120.5t-168.5 -49.5zM395 1085l287 320h158l155 -320h-123l-127 209h-6l-221 -209
h-123z" />
    <glyph glyph-name="udieresis" unicode="&#xfc;" 
d="M442 -20q-177 0 -238 122t-16 377l80 443h195l-78 -443q-20 -100 -19.5 -172.5t37 -112.5t111.5 -40q81 0 150.5 73t111.5 189l94 506h197l-162 -922h-176l19 150h-5q-54 -71 -132.5 -120.5t-168.5 -49.5zM528 1096q-52 0 -85 36.5t-27 86.5q6 53 45.5 88.5t95.5 35.5
q51 0 84 -36t27 -88q-6 -51 -46 -87t-94 -36zM885 1096q-51 0 -84 36.5t-27 86.5q6 53 45.5 88.5t95.5 35.5q51 0 84 -36t27 -88q-6 -51 -45.5 -87t-95.5 -36z" />
    <glyph glyph-name="yacute" unicode="&#xfd;" horiz-adv-x="913" 
d="M-18 -512h-50l21 174h49q124 0 236.5 94.5t185.5 247.5l-242 918h215l148 -680h8l330 680h176l-432 -895q-130 -270 -287 -404.5t-358 -134.5zM682 1092h-121l238 321h211z" />
    <glyph glyph-name="thorn" unicode="&#xfe;" horiz-adv-x="1056" 
d="M35 -512l346 1946h192l-120 -662h6q126 166 305 166q73 0 132.5 -25t103.5 -78.5t58.5 -136t-3.5 -196.5q-28 -154 -117 -270t-208 -173t-249 -57q-73 0 -159 16l-95 -530h-192zM403 483l-59 -333q4 -1 30.5 -6t52.5 -8t52 -3q136 -1 238 104.5t129 256.5q25 136 -19 214
t-149 78q-65 0 -125.5 -48t-98.5 -116t-51 -139z" />
    <glyph glyph-name="ydieresis" unicode="&#xff;" horiz-adv-x="913" 
d="M-18 -512h-50l21 174h49q124 0 236.5 94.5t185.5 247.5l-242 918h215l148 -680h8l330 680h176l-432 -895q-130 -270 -287 -404.5t-358 -134.5zM866 1096q-52 0 -85 36.5t-27 86.5q6 53 45.5 88.5t95.5 35.5q51 0 84 -36t27 -88q-6 -51 -46 -87t-94 -36zM508 1096
q-52 0 -85.5 36.5t-27.5 86.5q6 53 46 88.5t98 35.5q50 0 82 -36t26 -88q-6 -51 -45.5 -87t-93.5 -36z" />
    <glyph glyph-name="Amacron" unicode="&#x100;" horiz-adv-x="1265" 
d="M256 0h-199l760 1440h146l247 -1440h-223l-41 303h-526zM492 465h421l-75 602h-7zM1284 1593h-743l12 90h741z" />
    <glyph glyph-name="amacron" unicode="&#x101;" horiz-adv-x="1060" 
d="M457 -16q-74 0 -133.5 24t-104 75.5t-58.5 133t3 195.5q42 233 213 379.5t379 146.5q34 0 70 -2t59.5 -3.5t61.5 -7t49.5 -7t52 -8.5t43.5 -7l-123 -674q-25 -181 -17 -229h-192q-2 34 16 150h-6q-51 -67 -129.5 -116.5t-183.5 -49.5zM373 428q-28 -137 13 -215t146 -78
q97 0 180 96t103 207l68 334q-100 16 -140 16q-132 0 -236.5 -107t-133.5 -253zM1079 1102h-571l10 90h572z" />
    <glyph glyph-name="Abreve" unicode="&#x102;" horiz-adv-x="1265" 
d="M256 0h-199l760 1440h146l247 -1440h-223l-41 303h-526zM831 1067l-339 -602h421l-75 602h-7zM901 1499q-41 0 -78 7.5t-73 27t-61.5 49t-39.5 77.5t-10 109h149q-4 -69 29 -108t96 -39t110 39t69 108h149q-18 -75 -55.5 -130.5t-86 -84.5t-97.5 -42t-101 -13z" />
    <glyph glyph-name="abreve" unicode="&#x103;" horiz-adv-x="1060" 
d="M457 -16q-74 0 -133.5 24t-104 75.5t-58.5 133t3 195.5q42 233 213 379.5t379 146.5q34 0 70 -2t59.5 -3.5t61.5 -7t49.5 -7t52 -8.5t43.5 -7l-123 -674q-25 -181 -17 -229h-192q-2 34 16 150h-6q-51 -67 -129.5 -116.5t-183.5 -49.5zM373 428q-28 -137 13 -215t146 -78
q97 0 180 96t103 207l68 334q-100 16 -140 16q-132 0 -236.5 -107t-133.5 -253zM776 1053q-113 0 -181.5 70.5t-51.5 213.5h145q-9 -73 17 -118t88 -45q61 0 107.5 44.5t74.5 118.5h143q-40 -143 -135.5 -213.5t-206.5 -70.5z" />
    <glyph glyph-name="Aogonek" unicode="&#x104;" horiz-adv-x="1265" 
d="M256 0h-199l760 1440h146l247 -1440h-18q-39 0 -93 -52t-65 -112q-8 -38 7.5 -56t39.5 -18q26 0 56 17l-17 -92q-42 -21 -80 -21q-63 0 -98.5 34.5t-23.5 111.5q11 53 50.5 102.5t90.5 85.5h-72l-41 303h-526zM831 1067l-339 -602h421l-75 602h-7z" />
    <glyph glyph-name="aogonek" unicode="&#x105;" horiz-adv-x="1060" 
d="M457 -16q-74 0 -133.5 24t-104 75.5t-58.5 133t3 195.5q42 233 213 379.5t379 146.5q34 0 70 -2t59.5 -3.5t61.5 -7t49.5 -7t52 -8.5t43.5 -7l-123 -674q-25 -181 -17 -229h-16q-39 0 -93 -52t-65 -112q-8 -38 7.5 -56t39.5 -18q26 0 56 17l-17 -92q-42 -21 -80 -21
q-63 0 -98.5 34.5t-23.5 111.5q11 53 50.5 102.5t90.5 85.5h-43q-2 34 16 150h-6q-51 -67 -129.5 -116.5t-183.5 -49.5zM373 428q-28 -137 13 -215t146 -78q97 0 180 96t103 207l68 334q-100 16 -140 16q-132 0 -236.5 -107t-133.5 -253z" />
    <glyph glyph-name="Cacute" unicode="&#x106;" horiz-adv-x="1261" 
d="M760 -18q-291 0 -433.5 205t-82.5 542q29 164 101.5 298.5t174 226t229 141t267.5 49.5q227 0 389 -96l-90 -168q-61 36 -143.5 56.5t-165.5 20.5q-188 0 -339.5 -147t-195.5 -381q-48 -252 48 -408.5t282 -156.5q191 0 342 88l45 -156q-207 -114 -428 -114zM1098 1536
h-142l207 283h205z" />
    <glyph glyph-name="cacute" unicode="&#x107;" horiz-adv-x="880" 
d="M510 -14q-84 0 -153 29.5t-118 89t-66.5 148.5t1.5 208q37 208 172 343.5t330 135.5q170 0 272 -76l-69 -133q-64 57 -181 57q-122 0 -207.5 -92.5t-113.5 -230.5q-28 -143 24 -233.5t168 -90.5q61 0 121.5 17.5t100.5 42.5l40 -129q-141 -86 -321 -86zM623 1092l237 321
h211l-328 -321h-120z" />
    <glyph glyph-name="Ccircumflex" unicode="&#x108;" horiz-adv-x="1261" 
d="M760 -18q-291 0 -433.5 205t-82.5 542q29 164 101.5 298.5t174 226t229 141t267.5 49.5q227 0 389 -96l-90 -168q-61 36 -143.5 56.5t-165.5 20.5q-188 0 -339.5 -147t-195.5 -381q-48 -252 48 -408.5t282 -156.5q191 0 342 88l45 -156q-207 -114 -428 -114zM877 1536
h-144l262 268h158l178 -268h-145l-123 154h-8z" />
    <glyph glyph-name="ccircumflex" unicode="&#x109;" horiz-adv-x="880" 
d="M510 -14q-84 0 -153 29.5t-118 89t-66.5 148.5t1.5 208q37 208 172 343.5t330 135.5q170 0 272 -76l-69 -133q-64 57 -181 57q-122 0 -207.5 -92.5t-113.5 -230.5q-28 -143 24 -233.5t168 -90.5q61 0 121.5 17.5t100.5 42.5l40 -129q-141 -86 -321 -86zM524 1085h-121
l287 320h156l158 -320h-123l-129 209h-7z" />
    <glyph glyph-name="Cdotaccent" unicode="&#x10a;" horiz-adv-x="1261" 
d="M760 -18q-291 0 -433.5 205t-82.5 542q29 164 101.5 298.5t174 226t229 141t267.5 49.5q227 0 389 -96l-90 -168q-61 36 -143.5 56.5t-165.5 20.5q-188 0 -339.5 -147t-195.5 -381q-48 -252 48 -408.5t282 -156.5q191 0 342 88l45 -156q-207 -114 -428 -114zM1069 1559
q-51 0 -82.5 38t-25.5 89q6 54 46.5 91.5t92.5 37.5q50 0 81 -37.5t25 -91.5q-4 -51 -45.5 -89t-91.5 -38z" />
    <glyph glyph-name="cdotaccent" unicode="&#x10b;" horiz-adv-x="880" 
d="M510 -14q-84 0 -153 29.5t-118 89t-66.5 148.5t1.5 208q37 208 172 343.5t330 135.5q170 0 272 -76l-69 -133q-64 57 -181 57q-122 0 -207.5 -92.5t-113.5 -230.5q-28 -143 24 -233.5t168 -90.5q61 0 121.5 17.5t100.5 42.5l40 -129q-141 -86 -321 -86zM715 1096
q-52 0 -84.5 36.5t-24.5 86.5q8 53 48 88.5t98 35.5q51 0 82 -36t24 -88q-8 -51 -48.5 -87t-94.5 -36z" />
    <glyph glyph-name="Ccaron" unicode="&#x10c;" horiz-adv-x="1261" 
d="M760 -18q-291 0 -433.5 205t-82.5 542q29 164 101.5 298.5t174 226t229 141t267.5 49.5q227 0 389 -96l-90 -168q-61 36 -143.5 56.5t-165.5 20.5q-188 0 -339.5 -147t-195.5 -381q-48 -252 48 -408.5t282 -156.5q191 0 342 88l45 -156q-207 -114 -428 -114zM952 1536
l-180 268h146l124 -151h7l176 151h145l-260 -268h-158z" />
    <glyph glyph-name="ccaron" unicode="&#x10d;" horiz-adv-x="880" 
d="M510 -14q-84 0 -153 29.5t-118 89t-66.5 148.5t1.5 208q37 208 172 343.5t330 135.5q170 0 272 -76l-69 -133q-64 57 -181 57q-122 0 -207.5 -92.5t-113.5 -230.5q-28 -143 24 -233.5t168 -90.5q61 0 121.5 17.5t100.5 42.5l40 -129q-141 -86 -321 -86zM459 1405h123
l129 -207h6l219 207h123l-287 -320h-158z" />
    <glyph glyph-name="Dcaron" unicode="&#x10e;" horiz-adv-x="1333" 
d="M567 -16q-285 0 -413 16l252 1427q215 17 417 17q298 0 441 -185.5t90 -500.5q-29 -165 -98 -306.5t-169 -245.5t-234.5 -163t-285.5 -59zM387 172q68 -8 203 -8q193 0 342 170t196 424q42 231 -42.5 368.5t-278.5 137.5q-102 0 -207 -11zM748 1536l-183 268h146
l125 -151h8l176 151h145l-262 -268h-155z" />
    <glyph glyph-name="dcaron" unicode="&#x10f;" horiz-adv-x="1472" 
d="M457 -16q-74 0 -133.5 24t-104 75.5t-58.5 133t3 195.5q42 233 213 379.5t379 146.5q59 0 145 -8l109 606h192l-272 -1536h-172l20 150h-6q-51 -67 -130.5 -116.5t-184.5 -49.5zM373 428q-28 -137 13 -215t146 -78q97 0 180 96t103 207l68 334q-100 16 -140 16
q-132 0 -236.5 -107t-133.5 -253zM1450 1042h-96q117 235 162 494h135q-46 -253 -201 -494z" />
    <glyph glyph-name="Dcroat" unicode="&#x110;" horiz-adv-x="1333" 
d="M272 678h-133l13 117h141l113 632q215 17 417 17q298 0 441 -185.5t90 -500.5q-29 -165 -98 -306.5t-169 -245.5t-234.5 -163t-285.5 -59q-285 0 -413 16zM729 678h-242l-100 -506q68 -8 203 -8q193 0 342 170t196 424q42 231 -42.5 368.5t-278.5 137.5q-102 0 -207 -11
l-90 -458h233z" />
    <glyph glyph-name="dcroat" unicode="&#x111;" horiz-adv-x="1056" 
d="M457 -16q-74 0 -133.5 24t-104 75.5t-58.5 133t3 195.5q42 233 213 379.5t379 146.5q59 0 145 -8l31 172h-260l10 90h266l62 344h192l-61 -344h112l-10 -90h-119l-194 -1102h-172l20 150h-6q-51 -67 -130.5 -116.5t-184.5 -49.5zM373 428q-28 -137 13 -215t146 -78
q97 0 180 96t103 207l68 334q-100 16 -140 16q-132 0 -236.5 -107t-133.5 -253z" />
    <glyph glyph-name="Emacron" unicode="&#x112;" horiz-adv-x="1091" 
d="M154 0l252 1434h817l-21 -185h-602l-92 -428h545l-21 -170h-543l-100 -467h602l-20 -184h-817zM469 1593l12 90h742l-11 -90h-743z" />
    <glyph glyph-name="emacron" unicode="&#x113;" horiz-adv-x="913" 
d="M530 -16q-85 0 -155.5 31.5t-120 90.5t-68.5 151t0 204q20 115 69.5 207t118 150t149 89t165.5 31q62 0 111.5 -19.5t79 -52.5t44.5 -76t11.5 -92t-23.5 -98q-37 -93 -172 -158.5t-379 -81.5q3 -106 58.5 -164.5t154.5 -58.5q67 0 139 17.5t113 40.5l31 -127
q-138 -84 -326 -84zM375 477q171 15 271 56t122 102q24 61 -1 110t-85 50q-115 0 -197.5 -94.5t-109.5 -223.5zM983 1102h-569l10 90h571z" />
    <glyph glyph-name="Ebreve" unicode="&#x114;" horiz-adv-x="1091" 
d="M971 0h-817l252 1434h817l-21 -185h-602l-92 -428h545l-21 -170h-543l-100 -467h602zM819 1499q-41 0 -78 7.5t-73 27t-61 49t-39 77.5t-9 109h150q-4 -69 29 -108t96 -39t109.5 39t66.5 108h149q-17 -75 -54.5 -130.5t-86.5 -84.5t-98 -42t-101 -13z" />
    <glyph glyph-name="ebreve" unicode="&#x115;" horiz-adv-x="913" 
d="M530 -16q-85 0 -155.5 31.5t-120 90.5t-68.5 151t0 204q20 115 69.5 207t118 150t149 89t165.5 31q62 0 111.5 -19.5t79 -52.5t44.5 -76t11.5 -92t-23.5 -98q-37 -93 -172 -158.5t-379 -81.5q3 -106 58.5 -164.5t154.5 -58.5q67 0 139 17.5t113 40.5l31 -127
q-138 -84 -326 -84zM690 1053q-53 0 -97 16t-78 48.5t-49.5 89t-6.5 130.5h143q-9 -72 17.5 -117.5t87.5 -45.5q62 0 109 45t73 118h143q-40 -143 -135.5 -213.5t-206.5 -70.5zM375 477q171 15 271 56t122 102q24 61 -1 110t-85 50q-115 0 -197.5 -94.5t-109.5 -223.5z" />
    <glyph glyph-name="Edotaccent" unicode="&#x116;" horiz-adv-x="1091" 
d="M971 0h-817l252 1434h817l-21 -185h-602l-92 -428h545l-21 -170h-543l-100 -467h602zM866 1559q-51 0 -82.5 38t-25.5 89q6 54 46.5 91.5t92.5 37.5q50 0 81.5 -37.5t25.5 -91.5q-4 -51 -46 -89t-92 -38z" />
    <glyph glyph-name="edotaccent" unicode="&#x117;" horiz-adv-x="913" 
d="M530 -16q-85 0 -155.5 31.5t-120 90.5t-68.5 151t0 204q20 115 69.5 207t118 150t149 89t165.5 31q62 0 111.5 -19.5t79 -52.5t44.5 -76t11.5 -92t-23.5 -98q-37 -93 -172 -158.5t-379 -81.5q3 -106 58.5 -164.5t154.5 -58.5q67 0 139 17.5t113 40.5l31 -127
q-138 -84 -326 -84zM375 477q171 15 271 56t122 102q24 61 -1 110t-85 50q-115 0 -197.5 -94.5t-109.5 -223.5zM696 1096q-52 0 -84 36.5t-24 86.5q8 54 48 89t97 35q51 0 82.5 -36t24.5 -88q-6 -51 -47 -87t-97 -36z" />
    <glyph glyph-name="Eogonek" unicode="&#x118;" horiz-adv-x="1091" 
d="M834 0h-680l252 1434h817l-21 -185h-602l-92 -428h545l-21 -170h-543l-100 -467h602l-20 -184h-4q-39 0 -93 -52t-65 -112q-8 -38 7.5 -56t39.5 -18q25 0 55 17l-16 -92q-42 -21 -80 -21q-63 0 -99 34.5t-24 111.5q22 103 142 188z" />
    <glyph glyph-name="eogonek" unicode="&#x119;" horiz-adv-x="913" 
d="M528 -16q-84 0 -154.5 31.5t-119.5 90.5t-68 151t0 204q20 115 69.5 207t118 150t149 89t165.5 31q62 0 111.5 -19.5t79 -52.5t44.5 -76t11.5 -92t-23.5 -98q-37 -93 -172 -158.5t-379 -81.5q3 -106 58.5 -164.5t154.5 -58.5q67 0 139 17.5t113 40.5l31 -127
q-85 -52 -199 -74q-41 -16 -81 -62t-50 -96q-7 -38 8.5 -55t40.5 -17q31 0 54 15l-15 -90q-10 -7 -34.5 -14t-44.5 -7q-63 0 -100 34.5t-23 111.5q16 89 116 170zM375 477q171 15 271 56t122 102q24 61 -1 110t-85 50q-115 0 -197.5 -94.5t-109.5 -223.5z" />
    <glyph glyph-name="Ecaron" unicode="&#x11a;" horiz-adv-x="1091" 
d="M971 0h-817l252 1434h817l-21 -185h-602l-92 -428h545l-21 -170h-543l-100 -467h602zM741 1536l-180 268h144l124 -151h9l176 151h145l-260 -268h-158z" />
    <glyph glyph-name="ecaron" unicode="&#x11b;" horiz-adv-x="913" 
d="M530 -16q-85 0 -155.5 31.5t-120 90.5t-68.5 151t0 204q20 115 69.5 207t118 150t149 89t165.5 31q62 0 111.5 -19.5t79 -52.5t44.5 -76t11.5 -92t-23.5 -98q-37 -93 -172 -158.5t-379 -81.5q3 -106 58.5 -164.5t154.5 -58.5q67 0 139 17.5t113 40.5l31 -127
q-138 -84 -326 -84zM375 477q171 15 271 56t122 102q24 61 -1 110t-85 50q-115 0 -197.5 -94.5t-109.5 -223.5zM618 1085l-157 320h123l129 -207h6l221 207h121l-287 -320h-156z" />
    <glyph glyph-name="Gcircumflex" unicode="&#x11c;" horiz-adv-x="1312" 
d="M778 -20q-199 0 -333.5 89.5t-187.5 261.5t-13 406q59 330 279 518.5t521 188.5q108 0 216 -25.5t194 -70.5l-88 -168q-65 37 -153.5 59.5t-176.5 22.5q-212 0 -364 -139t-199 -386q-53 -272 35.5 -423.5t290.5 -151.5q128 0 266 63l74 346h-281l19 162h462l-104 -624
q-108 -60 -229 -94.5t-228 -34.5zM756 1536l262 268h158l178 -268h-144l-125 154h-6l-178 -154h-145z" />
    <glyph glyph-name="gcircumflex" unicode="&#x11d;" horiz-adv-x="1036" 
d="M344 -508q-98 0 -201 25.5t-153 60.5l82 150q41 -34 120.5 -56t157.5 -22q84 0 151 32.5t111 90t71.5 125t43.5 149.5l21 103h-7q-126 -166 -307 -166q-74 0 -133.5 24t-104 75.5t-58 133t4.5 195.5q27 155 116.5 276.5t214.5 185.5t261 64q29 0 57.5 -1t57 -3.5
t48.5 -4.5t50 -6.5t42.5 -6.5t43.5 -7t37 -6l-151 -856q-20 -122 -64 -221t-113 -175t-170.5 -117.5t-228.5 -41.5zM350 428q-28 -136 13.5 -214.5t146.5 -78.5q97 0 181 96t104 207l67 334q-108 16 -141 16q-133 0 -236.5 -107t-134.5 -253zM459 1085l286 320h156l158 -320
h-123l-127 209h-6l-221 -209h-123z" />
    <glyph glyph-name="Gbreve" unicode="&#x11e;" horiz-adv-x="1312" 
d="M778 -20q-199 0 -333.5 89.5t-187.5 261.5t-13 406q59 330 279 518.5t521 188.5q108 0 216 -25.5t194 -70.5l-88 -168q-65 37 -153.5 59.5t-176.5 22.5q-212 0 -364 -139t-199 -386q-53 -272 35.5 -423.5t290.5 -151.5q128 0 266 63l74 346h-281l19 162h462l-104 -624
q-108 -60 -229 -94.5t-228 -34.5zM1059 1499q-41 0 -78 7.5t-73 27t-61 49t-39 77.5t-9 109h149q-4 -69 29 -108t96 -39t109.5 39t66.5 108h150q-17 -75 -54.5 -130.5t-86.5 -84.5t-98 -42t-101 -13z" />
    <glyph glyph-name="gbreve" unicode="&#x11f;" horiz-adv-x="1036" 
d="M344 -508q-98 0 -201 25.5t-153 60.5l82 150q41 -34 120.5 -56t157.5 -22q84 0 151 32.5t111 90t71.5 125t43.5 149.5l21 103h-7q-126 -166 -307 -166q-74 0 -133.5 24t-104 75.5t-58 133t4.5 195.5q27 155 116.5 276.5t214.5 185.5t261 64q29 0 57.5 -1t57 -3.5
t48.5 -4.5t50 -6.5t42.5 -6.5t43.5 -7t37 -6l-151 -856q-20 -122 -64 -221t-113 -175t-170.5 -117.5t-228.5 -41.5zM350 428q-28 -136 13.5 -214.5t146.5 -78.5q97 0 181 96t104 207l67 334q-108 16 -141 16q-133 0 -236.5 -107t-134.5 -253zM745 1053q-53 0 -97 16
t-78 48.5t-49.5 89t-6.5 130.5h143q-8 -73 18.5 -118t86.5 -45q62 0 109 45t73 118h146q-27 -98 -85 -164t-123 -93t-137 -27z" />
    <glyph glyph-name="Gdotaccent" unicode="&#x120;" horiz-adv-x="1312" 
d="M778 -20q-199 0 -333.5 89.5t-187.5 261.5t-13 406q59 330 279 518.5t521 188.5q108 0 216 -25.5t194 -70.5l-88 -168q-65 37 -153.5 59.5t-176.5 22.5q-212 0 -364 -139t-199 -386q-53 -272 35.5 -423.5t290.5 -151.5q128 0 266 63l74 346h-281l19 162h462l-104 -624
q-108 -60 -229 -94.5t-228 -34.5zM1098 1559q-51 0 -83 38t-26 89q6 54 47 91.5t92 37.5q50 0 82.5 -38t26.5 -91q-6 -51 -47 -89t-92 -38z" />
    <glyph glyph-name="gdotaccent" unicode="&#x121;" horiz-adv-x="1036" 
d="M344 -508q-98 0 -201 25.5t-153 60.5l82 150q41 -34 120.5 -56t157.5 -22q84 0 151 32.5t111 90t71.5 125t43.5 149.5l21 103h-7q-126 -166 -307 -166q-74 0 -133.5 24t-104 75.5t-58 133t4.5 195.5q27 155 116.5 276.5t214.5 185.5t261 64q29 0 57.5 -1t57 -3.5
t48.5 -4.5t50 -6.5t42.5 -6.5t43.5 -7t37 -6l-151 -856q-20 -122 -64 -221t-113 -175t-170.5 -117.5t-228.5 -41.5zM350 428q-28 -136 13.5 -214.5t146.5 -78.5q97 0 181 96t104 207l67 334q-108 16 -141 16q-133 0 -236.5 -107t-134.5 -253zM727 1096q-53 0 -85 36.5
t-26 86.5q8 53 49 88.5t97 35.5q51 0 82.5 -36t25.5 -88q-8 -51 -48.5 -87t-94.5 -36z" />
    <glyph glyph-name="uni0122" unicode="&#x122;" horiz-adv-x="1312" 
d="M778 -20q-199 0 -333.5 89.5t-187.5 261.5t-13 406q59 330 279 518.5t521 188.5q108 0 216 -25.5t194 -70.5l-88 -168q-65 37 -153.5 59.5t-176.5 22.5q-212 0 -364 -139t-199 -386q-53 -272 35.5 -423.5t290.5 -151.5q128 0 266 63l74 346h-281l19 162h462l-104 -624
q-108 -60 -229 -94.5t-228 -34.5zM545 -377l16 96q60 21 100 77t44 149h137q-3 -120 -90.5 -215t-206.5 -107z" />
    <glyph glyph-name="uni0123" unicode="&#x123;" horiz-adv-x="1036" 
d="M344 -508q-98 0 -201 25.5t-153 60.5l82 150q41 -34 120.5 -56t157.5 -22q84 0 151 32.5t111 90t71.5 125t43.5 149.5l21 103h-7q-126 -166 -307 -166q-74 0 -133.5 24t-104 75.5t-58 133t4.5 195.5q27 155 116.5 276.5t214.5 185.5t261 64q29 0 57.5 -1t57 -3.5
t48.5 -4.5t50 -6.5t42.5 -6.5t43.5 -7t37 -6l-151 -856q-20 -122 -64 -221t-113 -175t-170.5 -117.5t-228.5 -41.5zM350 428q-28 -136 13.5 -214.5t146.5 -78.5q97 0 181 96t104 207l67 334q-108 16 -141 16q-133 0 -236.5 -107t-134.5 -253zM817 1085h-137q3 119 90 213.5
t205 106.5l-14 -96q-136 -46 -144 -224z" />
    <glyph glyph-name="Hcircumflex" unicode="&#x124;" horiz-adv-x="1292" 
d="M369 0h-215l252 1434h215l-113 -605h557l113 605h213l-250 -1434h-215l118 645h-557zM610 1536l262 268h158l178 -268h-143l-125 154h-6l-178 -154h-146z" />
    <glyph glyph-name="hcircumflex" unicode="&#x125;" 
d="M125 0l270 1536h195l-137 -756h6q52 68 128 115t163 47q177 0 238.5 -112t21.5 -349l-86 -481h-195l78 449q19 98 19 168.5t-36.5 110.5t-111.5 40q-81 0 -150.5 -73t-111.5 -187l-94 -508h-197zM211 1597l262 269h156l180 -269h-145l-123 154h-9l-178 -154h-143z" />
    <glyph glyph-name="Hbar" unicode="&#x126;" horiz-adv-x="1292" 
d="M352 1135l54 299h215l-56 -299h555l58 299h213l-52 -299h72l-10 -91h-78l-182 -1044h-215l118 645h-557l-118 -645h-215l184 1044h-105l11 91h108zM1104 1044h-555l-41 -215h557z" />
    <glyph glyph-name="hbar" unicode="&#x127;" 
d="M334 1192l61 344h195l-62 -344h250l-12 -90h-254l-59 -322h6q52 68 128 115t163 47q177 0 238.5 -112t21.5 -349l-86 -481h-195l78 449q19 98 19 168.5t-36.5 110.5t-111.5 40q-81 0 -150.5 -73t-111.5 -187l-94 -508h-197l192 1102h-122l12 90h127z" />
    <glyph glyph-name="Itilde" unicode="&#x128;" horiz-adv-x="520" 
d="M154 0l252 1434h215l-252 -1434h-215zM229 1546q22 93 80 153t150 60q45 0 79 -18t50.5 -39t40.5 -39t53 -18q45 0 74 30t41 72h110q-20 -93 -80 -155t-151 -62q-38 0 -67.5 11.5t-48.5 27.5t-35.5 32t-36.5 27.5t-44 11.5q-74 0 -106 -94h-109z" />
    <glyph glyph-name="itilde" unicode="&#x129;" horiz-adv-x="487" 
d="M147 0l162 922h197l-162 -922h-197zM106 1114q26 95 88 161t152 66q37 0 65 -13.5t44.5 -32.5t31 -37.5t33.5 -32t43 -13.5q43 0 74.5 35.5t46.5 79.5h111q-22 -93 -89.5 -161t-158.5 -68q-37 0 -65 13t-44.5 31t-31 36.5t-33.5 31.5t-43 13q-31 0 -55.5 -19.5t-36 -40
t-23.5 -49.5h-109z" />
    <glyph glyph-name="Imacron" unicode="&#x12a;" horiz-adv-x="520" 
d="M154 0l252 1434h215l-252 -1434h-215zM152 1593l12 90h741l-10 -90h-743z" />
    <glyph glyph-name="imacron" unicode="&#x12b;" horiz-adv-x="487" 
d="M147 0l162 922h197l-162 -922h-197zM139 1102l13 90h569l-10 -90h-572z" />
    <glyph glyph-name="Ibreve" unicode="&#x12c;" horiz-adv-x="520" 
d="M369 0h-215l252 1434h215zM520 1499q-41 0 -78 7.5t-73 27t-61.5 49t-39.5 77.5t-10 109h150q-5 -69 28 -108t96 -39t110 39t69 108h149q-17 -75 -54.5 -130.5t-86.5 -84.5t-98 -42t-101 -13z" />
    <glyph glyph-name="ibreve" unicode="&#x12d;" horiz-adv-x="487" 
d="M344 0h-197l162 922h197zM414 1053q-53 0 -97 16t-78.5 48.5t-50 89t-6.5 130.5h144q-9 -72 17 -117.5t87 -45.5q62 0 109 45t73 118h144q-40 -143 -135.5 -213.5t-206.5 -70.5z" />
    <glyph glyph-name="Iogonek" unicode="&#x12e;" horiz-adv-x="520" 
d="M207 -334q-63 0 -99 34.5t-24 111.5q11 53 50.5 102.5t90.5 85.5h-71l252 1434h215l-252 -1434h-11q-39 0 -91.5 -52t-65.5 -112q-8 -38 7.5 -56t39.5 -18q25 0 55 17l-16 -92q-42 -21 -80 -21z" />
    <glyph glyph-name="iogonek" unicode="&#x12f;" horiz-adv-x="487" 
d="M180 -334q-63 0 -100 34.5t-23 111.5q19 101 142 188h-52l162 922h197l-162 -922h-12q-39 0 -93 -52t-65 -112q-8 -38 7 -56t40 -18q27 0 53 17l-14 -92q-42 -21 -80 -21zM461 1194q-52 0 -84.5 38t-26.5 91q8 56 50 95.5t96 39.5q51 0 84 -40t26 -95q-6 -52 -49 -90.5
t-96 -38.5z" />
    <glyph glyph-name="Idotaccent" unicode="&#x130;" horiz-adv-x="520" 
d="M369 0h-215l252 1434h215zM539 1559q-51 0 -83 38t-26 89q6 54 46.5 91.5t92.5 37.5q50 0 82.5 -38t26.5 -91q-6 -51 -47.5 -89t-91.5 -38z" />
    <glyph glyph-name="dotlessi" unicode="&#x131;" horiz-adv-x="487" 
d="M147 0l162 922h197l-162 -922h-197z" />
    <glyph glyph-name="IJ" unicode="&#x132;" horiz-adv-x="1310" 
d="M565 25l49 168q25 -11 80 -22t97 -11q114 0 179.5 70t100.5 251l174 953h205l-174 -953q-39 -253 -158.5 -375t-347.5 -122q-48 0 -113 13.5t-92 27.5zM369 0h-215l252 1434h215z" />
    <glyph glyph-name="ij" unicode="&#x133;" horiz-adv-x="878" 
d="M209 -510l31 172h34q137 0 206 81t104 280l159 899h191l-162 -914q-18 -101 -44.5 -179.5t-68.5 -143.5t-99.5 -107t-136.5 -65t-179 -23h-35zM150 0l163 922h193l-164 -922h-192zM455 1194q-52 0 -82 38t-21 91q11 56 54.5 95.5t95.5 39.5q51 0 81.5 -40t20.5 -95
q-9 -52 -53.5 -90.5t-95.5 -38.5zM885 1192q-52 0 -82 39t-21 92q9 55 53 94t97 39q51 0 81 -39t21 -94q-9 -53 -53.5 -92t-95.5 -39z" />
    <glyph glyph-name="Jcircumflex" unicode="&#x134;" horiz-adv-x="821" 
d="M76 25l49 168q25 -11 79 -22t97 -11q114 0 180 70t101 251l174 953h205l-175 -953q-39 -254 -158 -375.5t-347 -121.5q-48 0 -113 13.5t-92 27.5zM719 1536h-146l263 268h157l181 -268h-146l-123 154h-8z" />
    <glyph glyph-name="jcircumflex" unicode="&#x135;" horiz-adv-x="448" 
d="M-250 -510l31 172h35q137 0 205 81t104 280l160 899h192l-162 -914q-23 -128 -60.5 -219.5t-98.5 -161t-153.5 -103.5t-217.5 -34h-35zM125 1085l287 320h155l158 -320h-123l-129 209h-4l-223 -209h-121z" />
    <glyph glyph-name="uni0136" unicode="&#x136;" horiz-adv-x="1230" 
d="M369 0h-215l252 1434h215l-119 -617h6l604 617h238l-648 -656l498 -778h-280l-379 608l-72 -71zM694 -55q-3 -120 -90.5 -215t-204.5 -107l15 96q60 21 99.5 77t43.5 149h137z" />
    <glyph glyph-name="uni0137" unicode="&#x137;" horiz-adv-x="958" 
d="M125 0l270 1536h195l-189 -1022h5l425 408h207l-366 -355l221 -567h-215l-150 422l-155 -150l-51 -272h-197zM246 -377l14 96q61 20 100 76t43 150h138q-3 -120 -90 -215t-205 -107z" />
    <glyph glyph-name="kgreenlandic" unicode="&#x138;" horiz-adv-x="958" 
d="M317 0h-192l164 922h192l-71 -408h6l418 408h200l-364 -355l219 -567h-211l-158 422l-153 -150z" />
    <glyph glyph-name="Lacute" unicode="&#x139;" horiz-adv-x="1062" 
d="M154 0l252 1434h215l-232 -1250h623l-21 -184h-837zM672 1819h205l-271 -283h-139z" />
    <glyph glyph-name="lacute" unicode="&#x13a;" horiz-adv-x="444" 
d="M125 0l270 1536h195l-268 -1536h-197zM639 1880h207l-273 -283h-139z" />
    <glyph glyph-name="uni013B" unicode="&#x13b;" horiz-adv-x="1062" 
d="M991 0h-837l252 1434h215l-232 -1250h623zM643 -55q-3 -120 -90 -215t-205 -107l17 96q60 21 99 77t42 149h137z" />
    <glyph glyph-name="uni013C" unicode="&#x13c;" horiz-adv-x="464" 
d="M322 0h-197l270 1536h195zM289 -55q-3 -120 -90 -215t-205 -107l16 96q59 21 98.5 76.5t43.5 149.5h137z" />
    <glyph glyph-name="Lcaron" unicode="&#x13d;" horiz-adv-x="1062" 
d="M154 0l252 1434h215l-232 -1250h623l-21 -184h-837zM1081 1042h-94q114 229 160 494h135q-49 -268 -201 -494z" />
    <glyph glyph-name="lcaron" unicode="&#x13e;" horiz-adv-x="858" 
d="M322 0h-197l270 1536h195zM807 1042h-94q112 224 161 494h136q-48 -264 -203 -494z" />
    <glyph glyph-name="Ldot" unicode="&#x13f;" horiz-adv-x="1062" 
d="M991 0h-837l252 1434h215l-232 -1250h623zM897 666q-55 0 -89 39.5t-28 93.5q8 54 52.5 93.5t99.5 39.5q53 0 87 -39.5t28 -93.5q-8 -54 -52 -93.5t-98 -39.5z" />
    <glyph glyph-name="ldot" unicode="&#x140;" horiz-adv-x="792" 
d="M322 0h-197l270 1536h195zM700 553q-55 0 -88.5 39t-27.5 94q8 54 52 93.5t99 39.5q53 0 87 -39.5t28 -93.5q-8 -54 -52 -93.5t-98 -39.5z" />
    <glyph glyph-name="Lslash" unicode="&#x141;" horiz-adv-x="1062" 
d="M113 430l-45 100l198 107l140 797h215l-125 -674l303 162l43 -103l-371 -198l-82 -437h623l-21 -184h-837l88 500z" />
    <glyph glyph-name="lslash" unicode="&#x142;" horiz-adv-x="444" 
d="M-6 360l-37 101l274 141l164 934h195l-144 -823l271 139l37 -100l-330 -170l-102 -582h-197l82 471z" />
    <glyph glyph-name="Nacute" unicode="&#x143;" horiz-adv-x="1318" 
d="M154 0l252 1434h202l391 -1049h7l208 1049h205l-252 -1434h-204l-392 1020h-6l-207 -1020h-204zM872 1536l205 283h207l-272 -283h-140z" />
    <glyph glyph-name="nacute" unicode="&#x144;" 
d="M125 0l162 922h176l-21 -150h7q53 72 132 121t169 49q177 0 238.5 -112t21.5 -349l-86 -481h-195l78 449q19 98 19 168.5t-36.5 110.5t-111.5 40q-81 0 -150.5 -73t-111.5 -187l-94 -508h-197zM758 1092h-123l237 321h211z" />
    <glyph glyph-name="uni0145" unicode="&#x145;" horiz-adv-x="1318" 
d="M154 0l252 1434h202l391 -1049h7l208 1049h205l-252 -1434h-204l-392 1020h-6l-207 -1020h-204zM444 -377l17 96q59 21 98 76.5t43 149.5h137q-3 -120 -90 -215t-205 -107z" />
    <glyph glyph-name="uni0146" unicode="&#x146;" 
d="M125 0l162 922h176l-21 -150h7q53 72 132 121t169 49q177 0 238.5 -112t21.5 -349l-86 -481h-195l78 449q19 98 19 168.5t-36.5 110.5t-111.5 40q-81 0 -150.5 -73t-111.5 -187l-94 -508h-197zM592 -55q-3 -120 -90 -215t-205 -107l16 96q60 21 99.5 77t42.5 149h137z
" />
    <glyph glyph-name="Ncaron" unicode="&#x147;" horiz-adv-x="1318" 
d="M154 0l252 1434h202l391 -1049h7l208 1049h205l-252 -1434h-204l-392 1020h-6l-207 -1020h-204zM674 1804h145l125 -151h8l176 151h146l-262 -268h-156z" />
    <glyph glyph-name="ncaron" unicode="&#x148;" 
d="M322 0h-197l162 922h176l-21 -150h7q53 72 132 121t169 49q177 0 238.5 -112t21.5 -349l-86 -481h-195l78 449q19 98 19 168.5t-36.5 110.5t-111.5 40q-81 0 -150.5 -73t-111.5 -187zM621 1085l-156 320h121l129 -207h6l221 207h123l-289 -320h-155z" />
    <glyph glyph-name="napostrophe" unicode="&#x149;" horiz-adv-x="1126" 
d="M223 0l162 922h176l-20 -150h6q51 71 131 120.5t170 49.5q177 0 238.5 -112t21.5 -349l-86 -481h-197l80 449q19 98 19 168.5t-37 110.5t-111 40q-81 0 -150.5 -73t-113.5 -187l-94 -508h-195zM190 1042q114 227 162 494h133q-46 -265 -200 -494h-95z" />
    <glyph glyph-name="Eng" unicode="&#x14a;" horiz-adv-x="1368" 
d="M156 0l305 1434h196l383 -1049h4l224 1049h200l-315 -1487q-48 -227 -171 -343t-347 -116q-48 0 -113 13.5t-92 27.5l66 168q27 -12 81 -22.5t97 -10.5q112 -2 178.5 63t99.5 220l11 51l-385 1022h-5l-217 -1020h-200z" />
    <glyph glyph-name="eng" unicode="&#x14b;" 
d="M317 0h-192l197 922h172l-21 -150h6q53 72 132.5 121t170.5 49q176 0 234 -112.5t8 -348.5l-96 -452q-56 -259 -186 -398t-359 -139l37 166q127 0 201.5 92t117.5 293l86 406q19 98 18.5 168.5t-37.5 110.5t-112 40q-82 0 -152 -72.5t-116 -187.5z" />
    <glyph glyph-name="Omacron" unicode="&#x14c;" horiz-adv-x="1423" 
d="M709 -20q-183 0 -302 93t-161 259t-4 385q58 332 254 534.5t471 202.5q184 0 303.5 -93t161.5 -259t4 -385q-38 -218 -138.5 -384.5t-253 -259.5t-335.5 -93zM465 717q-28 -163 -12 -284.5t87.5 -192t188.5 -70.5q178 0 305.5 150t175.5 397q48 249 -19.5 398t-244.5 149
q-178 0 -305.5 -149.5t-175.5 -397.5zM1370 1593h-741l10 90h741z" />
    <glyph glyph-name="omacron" unicode="&#x14d;" horiz-adv-x="1011" 
d="M504 -18q-86 0 -156 30.5t-118 91t-65 150t3 207.5q19 115 69 207.5t118.5 151t149.5 89.5t167 31q85 0 155 -30.5t118 -91t65.5 -150t-2.5 -207.5q-40 -226 -183 -352.5t-321 -126.5zM369 461q-29 -145 10 -232.5t143 -87.5q106 0 180.5 87t104.5 233q29 145 -10.5 233
t-143.5 88q-106 0 -180.5 -88t-103.5 -233zM983 1102h-571l12 90h571z" />
    <glyph glyph-name="Obreve" unicode="&#x14e;" horiz-adv-x="1423" 
d="M709 -20q-183 0 -302 93t-161 259t-4 385q58 332 254 534.5t471 202.5q184 0 303.5 -93t161.5 -259t4 -385q-38 -218 -138.5 -384.5t-253 -259.5t-335.5 -93zM465 717q-28 -163 -12 -284.5t87.5 -192t188.5 -70.5q178 0 305.5 150t175.5 397q48 249 -19.5 398t-244.5 149
q-178 0 -305.5 -149.5t-175.5 -397.5zM961 1499q-41 0 -78 7.5t-73.5 27t-62 49t-39.5 77.5t-10 109h150q-4 -69 29 -108t96 -39t109.5 39t68.5 108h149q-14 -61 -42 -109t-62 -77.5t-75.5 -49t-80 -27t-79.5 -7.5z" />
    <glyph glyph-name="obreve" unicode="&#x14f;" horiz-adv-x="1011" 
d="M504 -18q-86 0 -156 30.5t-118 91t-65 150t3 207.5q19 115 69 207.5t118.5 151t149.5 89.5t167 31q85 0 155 -30.5t118 -91t65.5 -150t-2.5 -207.5q-40 -226 -183 -352.5t-321 -126.5zM369 461q-29 -145 10 -232.5t143 -87.5q106 0 180.5 87t104.5 233q29 145 -10.5 233
t-143.5 88q-106 0 -180.5 -88t-103.5 -233zM684 1053q-113 0 -181.5 70.5t-51.5 213.5h145q-9 -73 16.5 -118t87.5 -45q61 0 108 44.5t75 118.5h143q-40 -143 -135.5 -213.5t-206.5 -70.5z" />
    <glyph glyph-name="Ohungarumlaut" unicode="&#x150;" horiz-adv-x="1423" 
d="M709 -20q-183 0 -302 93t-161 259t-4 385q58 332 254 534.5t471 202.5q184 0 303.5 -93t161.5 -259t4 -385q-38 -218 -138.5 -384.5t-253 -259.5t-335.5 -93zM465 717q-28 -163 -12 -284.5t87.5 -192t188.5 -70.5q178 0 305.5 150t175.5 397q48 249 -19.5 398t-244.5 149
q-178 0 -305.5 -149.5t-175.5 -397.5zM1059 1536l223 283h199l-277 -283h-145zM860 1536h-135l207 283h201z" />
    <glyph glyph-name="ohungarumlaut" unicode="&#x151;" horiz-adv-x="1011" 
d="M504 -18q-86 0 -156 30.5t-118 91t-65 150t3 207.5q19 115 69 207.5t118.5 151t149.5 89.5t167 31q85 0 155 -30.5t118 -91t65.5 -150t-2.5 -207.5q-40 -226 -183 -352.5t-321 -126.5zM369 461q-29 -145 10 -232.5t143 -87.5q106 0 180.5 87t104.5 233q29 145 -10.5 233
t-143.5 88q-106 0 -180.5 -88t-103.5 -233zM786 1092l244 323h201l-330 -323h-115zM612 1092h-110l215 323h184z" />
    <glyph glyph-name="OE" unicode="&#x152;" horiz-adv-x="1910" 
d="M784 -10q-308 0 -453.5 200.5t-84.5 538.5q39 219 152 380.5t279 246t365 84.5q129 0 234 -6h768l-33 -185h-604l-76 -428h545l-29 -170h-547l-81 -467h604l-33 -184h-768q-88 -10 -238 -10zM467 729q-45 -254 56.5 -405.5t305.5 -151.5q128 0 179 10l188 1061
q-86 12 -178 12q-205 0 -356.5 -145t-194.5 -381z" />
    <glyph glyph-name="oe" unicode="&#x153;" horiz-adv-x="1533" 
d="M502 -18q-178 0 -271.5 126.5t-46.5 352.5q33 152 115 262.5t187 163.5t221 53q99 0 173 -46t107 -132h2q68 87 162.5 131.5t194.5 44.5q76 0 130.5 -31.5t78.5 -81.5t24.5 -110.5t-25.5 -118.5q-37 -89 -173.5 -152t-381.5 -79q0 -108 55 -168t156 -60q67 0 139 17.5
t113 40.5l19 -127q-142 -84 -330 -84q-100 0 -176 47t-109 135h-6q-69 -89 -163 -136.5t-195 -47.5zM383 461q-30 -145 9 -232.5t145 -87.5t182 87.5t106 232.5q32 145 -7 233t-146 88q-106 0 -181.5 -87.5t-107.5 -233.5zM1333 795q-125 0 -208 -94.5t-109 -227.5
q360 31 409 162q22 64 -4.5 111.5t-87.5 48.5z" />
    <glyph glyph-name="Racute" unicode="&#x154;" horiz-adv-x="1185" 
d="M154 0l249 1423q269 21 379 21q117 0 205.5 -23t151 -72t87 -130.5t5.5 -192.5q-26 -136 -110 -231.5t-197 -143.5l-2 -6q38 -13 69 -44t51 -77t35 -95t25 -111.5t16 -112t13 -110.5t12 -95h-234q-2 18 -5 79t-7 115t-18.5 123t-36.5 117.5t-65 82.5t-101 34h-205
l-102 -551h-215zM492 729h143q317 0 373 285q26 119 -38.5 185.5t-209.5 66.5q-45 0 -160 -9zM719 1536l207 283h204l-270 -283h-141z" />
    <glyph glyph-name="racute" unicode="&#x155;" horiz-adv-x="727" 
d="M125 0l162 922h176l-17 -156h7q52 79 148.5 130t207.5 40l-21 -180q-23 4 -61 4q-113 0 -191.5 -72.5t-115.5 -185.5l-98 -502h-197zM618 1092h-120l235 321h213z" />
    <glyph glyph-name="uni0156" unicode="&#x156;" horiz-adv-x="1185" 
d="M154 0l249 1423q269 21 379 21q117 0 205.5 -23t151 -72t87 -130.5t5.5 -192.5q-26 -136 -110 -231.5t-197 -143.5l-2 -6q38 -13 69 -44t51 -77t35 -95t25 -111.5t16 -112t13 -110.5t12 -95h-234q-2 18 -5 79t-7 115t-18.5 123t-36.5 117.5t-65 82.5t-101 34h-205
l-102 -551h-215zM600 1257l-108 -528h143q317 0 373 285q26 119 -38.5 185.5t-209.5 66.5q-45 0 -160 -9zM696 -55q-3 -120 -90 -215t-205 -107l17 96q59 21 98 76.5t43 149.5h137z" />
    <glyph glyph-name="uni0157" unicode="&#x157;" horiz-adv-x="727" 
d="M125 0l162 922h176l-17 -156h7q52 79 148.5 130t207.5 40l-21 -180q-23 4 -61 4q-113 0 -191.5 -72.5t-115.5 -185.5l-98 -502h-197zM287 -55q-3 -120 -90 -215t-205 -107l16 96q59 21 98.5 76.5t43.5 149.5h137z" />
    <glyph glyph-name="Rcaron" unicode="&#x158;" horiz-adv-x="1185" 
d="M154 0l249 1423q269 21 379 21q117 0 205.5 -23t151 -72t87 -130.5t5.5 -192.5q-26 -136 -110 -231.5t-197 -143.5l-2 -6q38 -13 69 -44t51 -77t35 -95t25 -111.5t16 -112t13 -110.5t12 -95h-234q-2 18 -5 79t-7 115t-18.5 123t-36.5 117.5t-65 82.5t-101 34h-205
l-102 -551h-215zM600 1257l-108 -528h143q317 0 373 285q26 119 -38.5 185.5t-209.5 66.5q-45 0 -160 -9zM532 1804h144l125 -151h8l176 151h145l-260 -268h-157z" />
    <glyph glyph-name="rcaron" unicode="&#x159;" horiz-adv-x="727" 
d="M125 0l162 922h176l-17 -156h7q52 79 148.5 130t207.5 40l-21 -180q-23 4 -61 4q-113 0 -191.5 -72.5t-115.5 -185.5l-98 -502h-197zM467 1085l-158 320h123l129 -207h6l221 207h123l-288 -320h-156z" />
    <glyph glyph-name="Sacute" unicode="&#x15a;" horiz-adv-x="1144" 
d="M88 125l113 168q175 -125 362 -125q129 0 226 64.5t118 156.5q19 88 -44 144t-224 96q-93 24 -158.5 57t-110.5 82t-60.5 119t-0.5 160q31 181 180.5 289t346.5 108q249 0 424 -123l-113 -166q-161 111 -322 111q-121 0 -200.5 -63.5t-98.5 -149.5q-19 -91 38 -141.5
t196 -88.5q60 -16 107.5 -33.5t90 -39t71.5 -46.5t53 -56t33.5 -67.5t13 -82t-8.5 -97.5q-18 -105 -74 -186.5t-135.5 -130t-172 -73.5t-191.5 -25q-118 0 -246.5 38t-212.5 101zM930 1536h-142l207 283h205z" />
    <glyph glyph-name="sacute" unicode="&#x15b;" horiz-adv-x="843" 
d="M412 -14q-100 0 -184.5 24.5t-131.5 59.5l70 131q94 -70 252 -70q70 0 121 31.5t63 81.5q12 53 -23 85.5t-133 63.5q-115 34 -171 104t-39 175q23 129 125 198.5t249 69.5q177 0 281 -74l-68 -131q-32 23 -91.5 40.5t-123.5 17.5q-69 0 -120 -31t-62 -78
q-11 -53 15 -79.5t91 -49.5q157 -46 218 -117.5t41 -185.5q-21 -125 -128.5 -195.5t-250.5 -70.5zM678 1092h-123l238 321h211z" />
    <glyph glyph-name="Scircumflex" unicode="&#x15c;" horiz-adv-x="1144" 
d="M547 -14q-118 0 -246.5 38t-212.5 101l113 168q175 -125 362 -125q129 0 226 64.5t118 156.5q19 88 -44 144t-224 96q-93 24 -158.5 57t-110.5 82t-60.5 119t-0.5 160q31 181 180.5 289t346.5 108q249 0 424 -123l-113 -166q-161 111 -322 111q-121 0 -200.5 -63.5
t-98.5 -149.5q-19 -91 38 -141.5t196 -88.5q60 -16 107.5 -33.5t90 -39t71.5 -46.5t53 -56t33.5 -67.5t13 -82t-8.5 -97.5q-18 -105 -74 -186.5t-135.5 -130t-172 -73.5t-191.5 -25zM575 1536l263 268h155l181 -268h-146l-123 154h-8l-178 -154h-144z" />
    <glyph glyph-name="scircumflex" unicode="&#x15d;" horiz-adv-x="843" 
d="M412 -14q-100 0 -184.5 24.5t-131.5 59.5l70 131q94 -70 252 -70q70 0 121 31.5t63 81.5q12 53 -23 85.5t-133 63.5q-115 34 -171 104t-39 175q23 129 125 198.5t249 69.5q177 0 281 -74l-68 -131q-32 23 -91.5 40.5t-123.5 17.5q-69 0 -120 -31t-62 -78
q-11 -53 15 -79.5t91 -49.5q157 -46 218 -117.5t41 -185.5q-21 -125 -128.5 -195.5t-250.5 -70.5zM334 1085l287 320h157l156 -320h-123l-127 209h-6l-221 -209h-123z" />
    <glyph glyph-name="Scedilla" unicode="&#x15e;" horiz-adv-x="1144" 
d="M88 125l113 168q175 -125 362 -125q129 0 226 64.5t118 156.5q19 88 -44 144t-224 96q-93 24 -158.5 57t-110.5 82t-60.5 119t-0.5 160q31 181 180.5 289t346.5 108q249 0 424 -123l-113 -166q-161 111 -322 111q-121 0 -200.5 -63.5t-98.5 -149.5q-19 -91 38 -141.5
t196 -88.5q60 -16 107.5 -33.5t90 -39t71.5 -46.5t53 -56t33.5 -67.5t13 -82t-8.5 -97.5q-14 -81 -51.5 -149t-90.5 -115.5t-120 -81t-139 -50.5t-148 -19l-28 -60q48 0 85 -34t29 -93q-9 -71 -76.5 -107t-168.5 -36q-54 0 -99 20l25 80q36 -18 86 -18q110 0 123 57
q7 31 -17 47.5t-59 16.5l-18 28l49 99q-112 8 -226 45t-188 94z" />
    <glyph glyph-name="scedilla" unicode="&#x15f;" horiz-adv-x="843" 
d="M371 -14q-87 6 -159.5 29.5t-115.5 54.5l70 131q94 -70 252 -70q70 0 121 31.5t63 81.5q12 53 -23 85.5t-133 63.5q-115 34 -171 104t-39 175q23 129 125 198.5t249 69.5q177 0 281 -74l-68 -131q-32 23 -91.5 40.5t-123.5 17.5q-69 0 -120 -31t-62 -78q-11 -53 15 -79.5
t91 -49.5q157 -46 218 -117.5t41 -185.5q-21 -120 -118 -189t-231 -77l-28 -60q46 0 83 -34t29 -93q-9 -71 -76.5 -107t-168.5 -36q-54 0 -99 20l25 80q41 -18 88 -18q45 0 79.5 13.5t41.5 43.5q8 31 -16.5 47.5t-59.5 16.5l-18 28z" />
    <glyph glyph-name="Scaron" unicode="&#x160;" horiz-adv-x="1144" 
d="M547 -14q-118 0 -246.5 38t-212.5 101l113 168q175 -125 362 -125q129 0 226 64.5t118 156.5q19 88 -44 144t-224 96q-93 24 -158.5 57t-110.5 82t-60.5 119t-0.5 160q31 181 180.5 289t346.5 108q249 0 424 -123l-113 -166q-161 111 -322 111q-121 0 -200.5 -63.5
t-98.5 -149.5q-19 -91 38 -141.5t196 -88.5q60 -16 107.5 -33.5t90 -39t71.5 -46.5t53 -56t33.5 -67.5t13 -82t-8.5 -97.5q-18 -105 -74 -186.5t-135.5 -130t-172 -73.5t-191.5 -25zM782 1536l-180 268h146l124 -151h9l176 151h143l-260 -268h-158z" />
    <glyph glyph-name="scaron" unicode="&#x161;" horiz-adv-x="843" 
d="M412 -14q-100 0 -184.5 24.5t-131.5 59.5l70 131q94 -70 252 -70q70 0 121 31.5t63 81.5q12 53 -23 85.5t-133 63.5q-115 34 -171 104t-39 175q23 129 125 198.5t249 69.5q177 0 281 -74l-68 -131q-32 23 -91.5 40.5t-123.5 17.5q-69 0 -120 -31t-62 -78
q-11 -53 15 -79.5t91 -49.5q157 -46 218 -117.5t41 -185.5q-21 -125 -128.5 -195.5t-250.5 -70.5zM391 1405h123l129 -207h4l221 207h123l-286 -320h-158z" />
    <glyph glyph-name="uni0162" unicode="&#x162;" horiz-adv-x="1220" 
d="M322 1249l20 185h1038l-20 -185h-414l-231 -1249h-84l-37 -74q48 0 85.5 -34t29.5 -93q-9 -71 -76.5 -107t-169.5 -36q-53 0 -98 20l24 80q36 -18 86 -18q46 0 81 13.5t42 43.5q7 31 -18 47.5t-60 16.5l-16 28l55 113h-59l231 1249h-409z" />
    <glyph glyph-name="uni0163" unicode="&#x163;" horiz-adv-x="681" 
d="M260 -344q-50 0 -98 20l24 80q41 -18 88 -18q45 0 79.5 13.5t41.5 43.5q8 31 -16.5 47.5t-59.5 16.5l-16 28l53 113q-162 42 -120 291l96 489h-111l12 113l125 29l95 268h137l-45 -268h233l-16 -142h-234l-94 -458q-21 -113 5.5 -156t84.5 -43q55 0 107 33l-13 -113
q-27 -24 -88 -38.5t-106 -14.5l-31 -64q47 0 85 -34t30 -93q-10 -71 -78.5 -107t-169.5 -36z" />
    <glyph glyph-name="Tcaron" unicode="&#x164;" horiz-adv-x="1220" 
d="M322 1249l20 185h1038l-20 -185h-414l-231 -1249h-215l231 1249h-409zM612 1804h146l125 -151h8l176 151h143l-260 -268h-157z" />
    <glyph glyph-name="tcaron" unicode="&#x165;" horiz-adv-x="1177" 
d="M434 -10q-247 0 -198 301l96 489h-111l12 113l125 29l95 268h137l-45 -268h233l-16 -142h-234l-94 -458q-21 -113 5.5 -156t84.5 -43q55 0 107 33l-13 -113q-23 -20 -82 -36.5t-102 -16.5zM1079 1042h-94q114 227 162 494h135q-48 -264 -203 -494z" />
    <glyph glyph-name="Tbar" unicode="&#x166;" horiz-adv-x="1220" 
d="M283 686l14 90h346l88 473h-409l20 185h1038l-20 -185h-414l-88 -473h328l-12 -90h-332l-127 -686h-215l127 686h-344z" />
    <glyph glyph-name="tbar" unicode="&#x167;" horiz-adv-x="681" 
d="M178 516l12 92h109l33 172h-111l12 113l125 29l95 268h137l-45 -268h233l-16 -142h-234l-34 -172h194l-10 -92h-203l-41 -194q-21 -113 5.5 -156t84.5 -43q55 0 107 33l-13 -113q-23 -20 -82 -36.5t-102 -16.5q-247 0 -198 301l45 225h-103z" />
    <glyph glyph-name="Utilde" unicode="&#x168;" horiz-adv-x="1220" 
d="M608 -16q-261 0 -349.5 162t-31.5 489l140 799h215l-144 -820q-48 -236 1.5 -345t191.5 -109q148 -2 238.5 104.5t140.5 349.5l145 820h205l-141 -799q-57 -326 -203 -488.5t-408 -162.5zM696 1546h-108q22 93 79.5 153t149.5 60q45 0 79 -18t50.5 -39t40.5 -39t53 -18
q45 0 74 30t41 72h111q-20 -93 -80.5 -155t-151.5 -62q-38 0 -67.5 11.5t-48 27.5t-35 32t-36.5 27.5t-44 11.5q-75 0 -107 -94z" />
    <glyph glyph-name="utilde" unicode="&#x169;" 
d="M442 -20q-177 0 -238 122t-16 377l80 443h195l-78 -443q-20 -100 -19.5 -172.5t37 -112.5t111.5 -40q81 0 150.5 73t111.5 189l94 506h197l-162 -922h-176l19 150h-5q-54 -71 -132.5 -120.5t-168.5 -49.5zM483 1114h-108q26 95 87.5 161t151.5 66q37 0 65 -13.5
t44.5 -32.5t30.5 -37.5t33 -32t44 -13.5q43 0 74.5 35.5t46.5 79.5h111q-24 -94 -90.5 -161.5t-157.5 -67.5q-37 0 -65 13t-44.5 31t-31 36.5t-33.5 31.5t-43 13q-31 0 -55.5 -19.5t-36 -40t-23.5 -49.5z" />
    <glyph glyph-name="Umacron" unicode="&#x16a;" horiz-adv-x="1220" 
d="M608 -16q-261 0 -349.5 162t-31.5 489l140 799h215l-144 -820q-48 -236 1.5 -345t191.5 -109q148 -2 238.5 104.5t140.5 349.5l145 820h205l-141 -799q-57 -326 -203 -488.5t-408 -162.5zM1268 1593h-742l13 90h741z" />
    <glyph glyph-name="umacron" unicode="&#x16b;" 
d="M442 -20q-177 0 -238 122t-16 377l80 443h195l-78 -443q-20 -100 -19.5 -172.5t37 -112.5t111.5 -40q81 0 150.5 73t111.5 189l94 506h197l-162 -922h-176l19 150h-5q-54 -71 -132.5 -120.5t-168.5 -49.5zM414 1102l10 90h571l-12 -90h-569z" />
    <glyph glyph-name="Ubreve" unicode="&#x16c;" horiz-adv-x="1220" 
d="M608 -16q-261 0 -349.5 162t-31.5 489l140 799h215l-144 -820q-48 -236 1.5 -345t191.5 -109q148 -2 238.5 104.5t140.5 349.5l145 820h205l-141 -799q-57 -326 -203 -488.5t-408 -162.5zM879 1499q-40 0 -76.5 7.5t-73 27t-62 49t-39.5 77.5t-10 109h150q-4 -69 29 -108
t96 -39t109.5 39t68.5 108h150q-14 -61 -42.5 -109t-62.5 -77.5t-76 -49t-81 -27t-80 -7.5z" />
    <glyph glyph-name="ubreve" unicode="&#x16d;" 
d="M442 -20q-177 0 -238 122t-16 377l80 443h195l-78 -443q-20 -100 -19.5 -172.5t37 -112.5t111.5 -40q81 0 150.5 73t111.5 189l94 506h197l-162 -922h-176l19 150h-5q-54 -71 -132.5 -120.5t-168.5 -49.5zM684 1053q-53 0 -97 16t-78 48.5t-49.5 89t-6.5 130.5h143
q-9 -72 17 -117.5t87 -45.5q62 0 109.5 45t73.5 118h143q-40 -143 -135.5 -213.5t-206.5 -70.5z" />
    <glyph glyph-name="Uring" unicode="&#x16e;" horiz-adv-x="1220" 
d="M608 -16q-261 0 -349.5 162t-31.5 489l140 799h215l-144 -820q-48 -236 1.5 -345t191.5 -109q148 -2 238.5 104.5t140.5 349.5l145 820h205l-141 -799q-57 -326 -203 -488.5t-408 -162.5zM862 1466q-88 0 -144 60.5t-40 163.5t90 163t162 60t144 -60t40 -163t-90 -163.5
t-162 -60.5zM788 1690q-9 -52 15 -86.5t69 -34.5q46 0 84.5 34.5t47.5 86.5q10 54 -14 88t-72 34q-46 0 -83.5 -35t-46.5 -87z" />
    <glyph glyph-name="uring" unicode="&#x16f;" 
d="M442 -20q-177 0 -238 122t-16 377l80 443h195l-78 -443q-20 -100 -19.5 -172.5t37 -112.5t111.5 -40q81 0 150.5 73t111.5 189l94 506h197l-162 -922h-176l19 150h-5q-54 -71 -132.5 -120.5t-168.5 -49.5zM662 946q-89 0 -142 59t-31 162q21 105 96.5 164.5t164.5 59.5
q88 0 141.5 -60.5t32.5 -163.5t-97 -162t-165 -59zM602 1167q-12 -52 9.5 -84t64.5 -32q45 0 84 32.5t51 83.5q12 52 -10 85.5t-66 35.5q-45 0 -83 -34.5t-50 -86.5z" />
    <glyph glyph-name="Uhungarumlaut" unicode="&#x170;" horiz-adv-x="1220" 
d="M608 -16q-261 0 -349.5 162t-31.5 489l140 799h215l-144 -820q-48 -236 1.5 -345t191.5 -109q148 -2 238.5 104.5t140.5 349.5l145 820h205l-141 -799q-57 -326 -203 -488.5t-408 -162.5zM1092 1536h-146l221 283h201zM612 1536l207 283h199l-273 -283h-133z" />
    <glyph glyph-name="uhungarumlaut" unicode="&#x171;" 
d="M442 -20q-177 0 -238 122t-16 377l80 443h195l-78 -443q-20 -100 -19.5 -172.5t37 -112.5t111.5 -40q81 0 150.5 73t111.5 189l94 506h197l-162 -922h-176l19 150h-5q-54 -71 -132.5 -120.5t-168.5 -49.5zM750 1092l243 323h203l-332 -323h-114zM465 1092l215 323h184
l-289 -323h-110z" />
    <glyph glyph-name="Uogonek" unicode="&#x172;" horiz-adv-x="1220" 
d="M608 -16q-261 0 -349.5 162t-31.5 489l140 799h215l-144 -820q-48 -236 1.5 -345t191.5 -109q148 -2 238.5 104.5t140.5 349.5l145 820h205l-141 -799q-48 -282 -165.5 -442.5t-316.5 -196.5q-40 -20 -76.5 -64t-46.5 -92q-8 -37 8 -55t40 -18q27 0 55 16l-17 -92
q-38 -19 -79 -19q-63 0 -99 34t-24 110q16 86 110 168z" />
    <glyph glyph-name="uogonek" unicode="&#x173;" 
d="M442 -20q-177 0 -238 122t-16 377l80 443h195l-78 -443q-20 -100 -19.5 -172.5t37 -112.5t111.5 -40q81 0 150.5 73t111.5 189l94 506h197l-162 -922h-8q-39 0 -92 -52t-66 -112q-8 -38 7.5 -56t41.5 -18q28 0 54 17l-15 -92q-42 -21 -82 -21q-63 0 -98.5 34.5
t-21.5 111.5q10 53 49 102.5t90 85.5h-35l19 150h-5q-54 -71 -132.5 -120.5t-168.5 -49.5z" />
    <glyph glyph-name="Wcircumflex" unicode="&#x174;" horiz-adv-x="2074" 
d="M268 1434h228l170 -1145h6l557 1145h162l98 -1137h6l598 1137h205l-742 -1434h-231l-80 1014h-6l-496 -1014h-235zM1163 1536h-145l262 268h158l178 -268h-143l-125 154h-9z" />
    <glyph glyph-name="wcircumflex" unicode="&#x175;" horiz-adv-x="1386" 
d="M311 0l-129 922h219l60 -717h6l301 700h193l26 -700h6l350 717h189l-447 -922h-241l-15 643h-6l-284 -643h-228zM578 1085l286 320h158l156 -320h-121l-129 209h-6l-222 -209h-122z" />
    <glyph glyph-name="Ycircumflex" unicode="&#x176;" horiz-adv-x="1239" 
d="M322 1434h227l217 -560h6l449 562l200 -2l-571 -732l-123 -702h-219l121 694zM729 1536h-145l262 268h158l178 -268h-144l-125 154h-6z" />
    <glyph glyph-name="ycircumflex" unicode="&#x177;" horiz-adv-x="913" 
d="M-68 -512l21 174h49q124 0 236.5 94.5t185.5 247.5l-242 918h215l148 -680h8l330 680h176l-432 -895q-130 -270 -287 -404.5t-358 -134.5h-50zM356 1085l287 320h158l155 -320h-122l-127 209h-7l-221 -209h-123z" />
    <glyph glyph-name="Ydieresis" unicode="&#x178;" horiz-adv-x="1239" 
d="M322 1434h227l217 -560h6l449 562l200 -2l-571 -732l-123 -702h-219l121 694zM1098 1559q-51 0 -83 38t-26 89q6 54 46.5 91.5t92.5 37.5q50 0 81.5 -37.5t25.5 -91.5q-4 -51 -45.5 -89t-91.5 -38zM690 1559q-51 0 -82.5 38t-25.5 89q6 54 47 91.5t92 37.5q50 0 82 -37.5
t26 -91.5q-6 -51 -47 -89t-92 -38z" />
    <glyph glyph-name="Zacute" unicode="&#x179;" horiz-adv-x="1236" 
d="M414 1434h929l-22 -197l-920 -1040l-2 -7h699l-23 -190h-962l22 197l926 1042v6h-668zM1001 1819h207l-272 -283h-139z" />
    <glyph glyph-name="zacute" unicode="&#x17a;" horiz-adv-x="798" 
d="M262 922h631l-19 -156l-548 -619v-6h422l-17 -141h-663l20 152l561 622l2 6h-405zM756 1413h213l-328 -321h-121z" />
    <glyph glyph-name="Zdotaccent" unicode="&#x17b;" horiz-adv-x="1236" 
d="M113 0l22 197l926 1042v6h-668l21 189h929l-22 -197l-920 -1040l-2 -7h699l-23 -190h-962zM895 1559q-51 0 -83 38t-26 89q6 54 47.5 91.5t92.5 37.5q50 0 82 -37.5t26 -91.5q-6 -51 -47 -89t-92 -38z" />
    <glyph glyph-name="zdotaccent" unicode="&#x17c;" horiz-adv-x="798" 
d="M68 0l20 152l561 622l2 6h-405l16 142h631l-19 -156l-548 -619v-6h422l-17 -141h-663zM596 1096q-52 0 -84.5 36.5t-24.5 86.5q8 53 48 88.5t98 35.5q51 0 82 -36t24 -88q-8 -51 -48.5 -87t-94.5 -36z" />
    <glyph glyph-name="Zcaron" unicode="&#x17d;" horiz-adv-x="1236" 
d="M1075 0h-962l22 197l926 1042v6h-668l21 189h929l-22 -197l-920 -1040l-2 -7h699zM627 1804h145l125 -151h6l178 151h144l-260 -268h-158z" />
    <glyph glyph-name="zcaron" unicode="&#x17e;" horiz-adv-x="798" 
d="M731 0h-663l20 152l561 622l2 6h-405l16 142h631l-19 -156l-548 -619v-6h422zM352 1405h123l129 -207h6l219 207h123l-286 -320h-158z" />
    <glyph glyph-name="longs" unicode="&#x17f;" horiz-adv-x="673" 
d="M-164 -510h-35l33 172h35q135 0 204 78t101 268l184 1043q44 244 164.5 364.5t286.5 120.5q108 0 184 -37l-30 -166q-76 37 -150 37q-110 0 -173.5 -91t-94.5 -265l-178 -1006q-22 -127 -59.5 -219t-99.5 -161.5t-154.5 -103.5t-217.5 -34z" />
    <glyph glyph-name="uni018F" unicode="&#x18f;" horiz-adv-x="1409" 
d="M672 -8q-256 0 -362 200.5t-17 530.5h891q14 66 12 130.5t-14 123t-41 108.5t-69.5 86.5t-99 57t-128.5 20.5q-91 0 -180 -26.5t-152 -61.5l-29 156q220 127 451 127q186 0 311 -92.5t167.5 -260.5t-3.5 -403q-35 -166 -109.5 -300t-173 -219.5t-215 -131t-239.5 -45.5z
M479 561q-31 -159 31.5 -260t198.5 -102q148 0 272 103t162 259h-664z" />
    <glyph glyph-name="florin" unicode="&#x192;" horiz-adv-x="673" 
d="M-164 -510h-35l33 172h35q40 0 75.5 11t62.5 28t51 46.5t40.5 56t32.5 69.5t25 73.5t19.5 80t15.5 78.5t13.5 79t12.5 72l92 524h-133l23 127l137 15l22 129q44 244 164.5 364.5t286.5 120.5q108 0 184 -37l-30 -166q-76 37 -150 37q-110 0 -173.5 -91t-94.5 -265
l-17 -92h263l-27 -142h-262l-92 -524q-46 -255 -80 -363q-79 -250 -237 -341q-107 -62 -257 -62z" />
    <glyph glyph-name="uni019D" unicode="&#x19d;" horiz-adv-x="1318" 
d="M-172 -508q-49 0 -114 13.5t-91 27.5l66 168q25 -11 79.5 -22t96.5 -11q115 -2 183 69.5t106 252.5l307 1444h196l383 -1049h4l224 1049h200l-303 -1434h-202l-385 1020h-5l-219 -1030q-56 -255 -178.5 -376.5t-347.5 -121.5z" />
    <glyph glyph-name="Gcaron" unicode="&#x1e6;" horiz-adv-x="1312" 
d="M778 -20q-199 0 -333.5 89.5t-187.5 261.5t-13 406q59 330 279 518.5t521 188.5q108 0 216 -25.5t194 -70.5l-88 -168q-65 37 -153.5 59.5t-176.5 22.5q-212 0 -364 -139t-199 -386q-53 -272 35.5 -423.5t290.5 -151.5q128 0 266 63l74 346h-281l19 162h462l-104 -624
q-108 -60 -229 -94.5t-228 -34.5zM799 1804h145l125 -151h8l176 151h144l-260 -268h-158z" />
    <glyph glyph-name="gcaron" unicode="&#x1e7;" horiz-adv-x="1036" 
d="M344 -508q-98 0 -201 25.5t-153 60.5l82 150q41 -34 120.5 -56t157.5 -22q84 0 151 32.5t111 90t71.5 125t43.5 149.5l21 103h-7q-126 -166 -307 -166q-74 0 -133.5 24t-104 75.5t-58 133t4.5 195.5q27 155 116.5 276.5t214.5 185.5t261 64q29 0 57.5 -1t57 -3.5
t48.5 -4.5t50 -6.5t42.5 -6.5t43.5 -7t37 -6l-151 -856q-20 -122 -64 -221t-113 -175t-170.5 -117.5t-228.5 -41.5zM350 428q-28 -136 13.5 -214.5t146.5 -78.5q97 0 181 96t104 207l67 334q-108 16 -141 16q-133 0 -236.5 -107t-134.5 -253zM512 1405h123l129 -207h6
l219 207h123l-287 -320h-157z" />
    <glyph glyph-name="uni01EA" unicode="&#x1ea;" horiz-adv-x="1423" 
d="M709 -20q-183 0 -302 93t-161 259t-4 385q58 332 254 534.5t471 202.5q184 0 303.5 -93t161.5 -259t4 -385q-51 -290 -209.5 -484t-386.5 -241q-39 -16 -78 -61.5t-49 -94.5q-8 -38 7.5 -56t39.5 -18q25 0 55 17l-16 -92q-42 -21 -80 -21q-63 0 -99 34.5t-24 111.5
q17 87 113 168zM465 717q-28 -163 -12 -284.5t87.5 -192t188.5 -70.5q178 0 305.5 150t175.5 397q48 249 -19.5 398t-244.5 149q-178 0 -305.5 -149.5t-175.5 -397.5z" />
    <glyph glyph-name="uni01EB" unicode="&#x1eb;" horiz-adv-x="1011" 
d="M479 -16q-168 8 -258.5 133.5t-52.5 343.5q19 115 69 207.5t118.5 151t149.5 89.5t167 31q85 0 155 -30.5t118 -91t65.5 -150t-2.5 -207.5q-31 -183 -132.5 -301t-240.5 -158v-2h-6q-9 -3 -21 -6q-40 -15 -80.5 -61t-50.5 -97q-8 -38 7 -56t40 -18q28 0 54 17l-15 -92
q-42 -21 -80 -21q-63 0 -100 34.5t-23 111.5q16 89 119 172zM369 461q-29 -145 10 -232.5t143 -87.5q106 0 180.5 87t104.5 233q29 145 -10.5 233t-143.5 88q-106 0 -180.5 -88t-103.5 -233z" />
    <glyph glyph-name="Aringacute" unicode="&#x1fa;" horiz-adv-x="1265" 
d="M256 0h-199l760 1440h146l247 -1440h-223l-41 303h-526zM891 1466q-89 0 -144.5 60.5t-39.5 163.5t89.5 163t161.5 60q79 0 127 -45l181 135l100 -123l-223 -119q6 -33 0 -71q-16 -103 -90 -163.5t-162 -60.5zM831 1067l-339 -602h421l-75 602h-7zM817 1690
q-9 -52 15 -86.5t69 -34.5t83.5 34.5t47.5 86.5q9 54 -15 88t-71 34q-46 0 -83 -35t-46 -87z" />
    <glyph glyph-name="aringacute" unicode="&#x1fb;" horiz-adv-x="1060" 
d="M457 -16q-74 0 -133.5 24t-104 75.5t-58.5 133t3 195.5q42 233 213 379.5t379 146.5q34 0 70 -2t59.5 -3.5t61.5 -7t49.5 -7t52 -8.5t43.5 -7l-123 -674q-25 -181 -17 -229h-192q-2 34 16 150h-6q-51 -67 -129.5 -116.5t-183.5 -49.5zM373 428q-28 -137 13 -215t146 -78
q97 0 180 96t103 207l68 334q-100 16 -140 16q-132 0 -236.5 -107t-133.5 -253zM772 946q-89 0 -141 59t-31 162q21 105 96 164.5t164 59.5q19 0 27 -2l180 245h211l-291 -288q70 -63 47 -179q-21 -103 -97 -162t-165 -59zM713 1167q-12 -52 9 -84t66 -32q44 0 83 32.5
t51 83.5q12 52 -10 85.5t-66 35.5q-45 0 -83 -34.5t-50 -86.5z" />
    <glyph glyph-name="AEacute" unicode="&#x1fc;" horiz-adv-x="1859" 
d="M57 0l1008 1434h928l-21 -185h-602l-92 -428h543l-19 -170h-545l-98 -467h602l-20 -184h-817l61 303h-500l-223 -303h-205zM580 465h424l151 784h-6zM1552 1536h-139l205 283h207z" />
    <glyph glyph-name="aeacute" unicode="&#x1fd;" horiz-adv-x="1462" 
d="M414 -20q-147 0 -218.5 85t-45.5 205q17 77 65.5 136t115.5 93.5t141.5 52t152.5 17.5h143l2 6q14 105 -24 156t-132 51q-120 0 -254 -75l-36 129q204 104 366 104q100 0 164.5 -41t83.5 -111h2q66 73 153 111.5t177 38.5q129 0 192.5 -74.5t40.5 -181.5
q-10 -45 -37 -81.5t-62 -60t-85 -41t-95 -26.5t-103.5 -14.5t-99 -6.5t-91.5 -1q-29 -140 27 -227t171 -87q68 0 144.5 17.5t116.5 40.5l18 -127q-142 -84 -328 -84q-99 0 -177 41.5t-120 119.5h-4q-66 -68 -159.5 -116.5t-204.5 -48.5zM356 287q-17 -74 21 -118t117 -44
q64 0 137 40.5t114 88.5q-17 87 9 195h-131q-60 0 -114 -16.5t-97 -54t-56 -91.5zM950 571v-4q206 1 297 28.5t105 90.5q10 44 -19 75.5t-80 33.5q-101 0 -182.5 -64t-120.5 -160zM901 1092l238 321h211l-326 -321h-123z" />
    <glyph glyph-name="Oslashacute" unicode="&#x1fe;" horiz-adv-x="1423" 
d="M385 90q-106 95 -143 256.5t0 370.5q58 332 254 534.5t471 202.5q200 0 323 -111l103 142h88l-142 -195q78 -97 103 -243.5t-6 -329.5q-38 -218 -138.5 -384.5t-253 -259.5t-335.5 -93q-156 0 -269 69l-71 -100h-86zM514 270l647 895q-74 99 -215 99
q-178 0 -305.5 -149.5t-175.5 -397.5q-58 -301 49 -447zM1198 1096l-633 -877q64 -49 164 -49q178 0 305.5 150t175.5 397q47 236 -12 379zM913 1536l205 283h207l-272 -283h-140z" />
    <glyph glyph-name="oslashacute" unicode="&#x1ff;" horiz-adv-x="1011" 
d="M305 35l-84 -107l-55 31l90 115q-135 132 -88 387q19 115 69 207.5t118.5 151t149.5 89.5t167 31q124 0 209 -61l86 112l55 -33l-94 -120q125 -131 80 -377q-40 -226 -183 -352.5t-321 -126.5q-116 0 -199 53zM377 231l391 504q-41 47 -115 47q-106 0 -180.5 -88
t-103.5 -233q-28 -147 8 -230zM803 676l-387 -498q40 -37 106 -37q106 0 180.5 87t104.5 233q25 135 -4 215zM623 1092l237 321h211l-326 -321h-122z" />
    <glyph glyph-name="uni0218" unicode="&#x218;" horiz-adv-x="1144" 
d="M547 -14q-118 0 -246.5 38t-212.5 101l113 168q175 -125 362 -125q129 0 226 64.5t118 156.5q19 88 -44 144t-224 96q-93 24 -158.5 57t-110.5 82t-60.5 119t-0.5 160q31 181 180.5 289t346.5 108q249 0 424 -123l-113 -166q-161 111 -322 111q-121 0 -200.5 -63.5
t-98.5 -149.5q-19 -91 38 -141.5t196 -88.5q60 -16 107.5 -33.5t90 -39t71.5 -46.5t53 -56t33.5 -67.5t13 -82t-8.5 -97.5q-18 -105 -74 -186.5t-135.5 -130t-172 -73.5t-191.5 -25zM324 -377l16 96q59 21 98 76.5t43 149.5h137q-3 -120 -89.5 -215t-204.5 -107z" />
    <glyph glyph-name="uni0219" unicode="&#x219;" horiz-adv-x="843" 
d="M96 70l70 131q94 -70 252 -70q70 0 121 31.5t63 81.5q12 53 -23 85.5t-133 63.5q-115 34 -171 104t-39 175q23 129 125 198.5t249 69.5q177 0 281 -74l-68 -131q-32 23 -91.5 40.5t-123.5 17.5q-69 0 -120 -31t-62 -78q-11 -53 15 -79.5t91 -49.5q157 -46 218 -117.5
t41 -185.5q-21 -125 -128.5 -195.5t-250.5 -70.5q-100 0 -184.5 24.5t-131.5 59.5zM481 -55q-3 -120 -90 -215t-205 -107l15 96q60 21 99.5 77t43.5 149h137z" />
    <glyph glyph-name="uni021A" unicode="&#x21a;" horiz-adv-x="1220" 
d="M731 1249h-409l20 185h1038l-20 -185h-414l-231 -1249h-215zM676 -55q-3 -120 -90 -215t-205 -107l14 96q60 21 100 77t44 149h137z" />
    <glyph glyph-name="uni021B" unicode="&#x21b;" horiz-adv-x="681" 
d="M434 -10q-247 0 -198 301l96 489h-111l12 113l125 29l95 268h137l-45 -268h233l-16 -142h-234l-94 -458q-21 -113 5.5 -156t84.5 -43q55 0 107 33l-13 -113q-23 -20 -82 -36.5t-102 -16.5zM489 -55q-3 -120 -90.5 -215t-205.5 -107l16 96q60 21 99 77t42 149h139z" />
    <glyph glyph-name="uni0232" unicode="&#x232;" horiz-adv-x="1239" 
d="M322 1434h227l217 -560h6l449 562l200 -2l-571 -732l-123 -702h-219l121 694zM530 1593l13 90h741l-12 -90h-742z" />
    <glyph glyph-name="uni0233" unicode="&#x233;" horiz-adv-x="913" 
d="M-18 -512h-50l21 174h49q124 0 236.5 94.5t185.5 247.5l-242 918h215l148 -680h8l330 680h176l-432 -895q-130 -270 -287 -404.5t-358 -134.5zM938 1102h-571l12 90h569z" />
    <glyph glyph-name="uni0237" unicode="&#x237;" horiz-adv-x="421" 
d="M-250 -510l31 172h35q137 0 205 81t104 280l160 899h192l-162 -914q-23 -128 -60.5 -219.5t-98.5 -161t-153.5 -103.5t-217.5 -34h-35z" />
    <glyph glyph-name="uni0259" unicode="&#x259;" horiz-adv-x="987" 
d="M463 0q-177 0 -247.5 137.5t-8.5 360.5h596q26 139 -29.5 222t-173.5 83q-67 0 -138.5 -18.5t-111.5 -41.5l-18 127q138 84 327 84q84 0 153 -31t116.5 -91.5t63 -149.5t-8.5 -205q-49 -226 -195.5 -351.5t-324.5 -125.5zM344 371q-19 -99 23 -160t129 -61
q94 -1 167 61.5t105 159.5h-424z" />
    <glyph glyph-name="uni0272" unicode="&#x272;" horiz-adv-x="1044" 
d="M342 29q-56 -259 -186 -398t-359 -139l35 166q129 0 204 92t118 293l186 879h172l-23 -150h7q56 73 134.5 121.5t168.5 48.5q177 0 234.5 -112.5t6.5 -348.5l-102 -481h-190l94 449q19 98 19 168.5t-37 110.5t-113 40q-81 0 -152.5 -73t-116.5 -187z" />
    <glyph glyph-name="circumflex" unicode="&#x2c6;" horiz-adv-x="890" 
d="M336 1085l287 320h155l158 -320h-123l-127 209h-6l-221 -209h-123z" />
    <glyph glyph-name="caron" unicode="&#x2c7;" horiz-adv-x="890" 
d="M547 1085l-158 320h123l129 -207h6l219 207h123l-287 -320h-155z" />
    <glyph glyph-name="breve" unicode="&#x2d8;" horiz-adv-x="1011" 
d="M682 1053q-111 0 -179.5 70.5t-51.5 213.5h145q-9 -73 16.5 -118t87.5 -45q61 0 108 44.5t75 118.5h143q-27 -98 -84.5 -164t-122.5 -93t-137 -27z" />
    <glyph glyph-name="dotaccent" unicode="&#x2d9;" horiz-adv-x="485" 
d="M438 1096q-52 0 -84 36.5t-26 86.5q8 53 48.5 88.5t96.5 35.5q52 0 84 -36t25 -88q-8 -51 -49 -87t-95 -36z" />
    <glyph glyph-name="ring" unicode="&#x2da;" horiz-adv-x="636" 
d="M475 946q-89 0 -142 59t-32 162q22 105 97.5 164.5t164.5 59.5q88 0 141.5 -60.5t32.5 -163.5q-22 -104 -97.5 -162.5t-164.5 -58.5zM416 1167q-12 -52 9 -84t64 -32q46 0 85 32.5t49 83.5q12 52 -9.5 85.5t-64.5 35.5q-46 0 -83.5 -34t-49.5 -87z" />
    <glyph glyph-name="ogonek" unicode="&#x2db;" horiz-adv-x="481" 
d="M231 -334q-63 0 -98.5 34.5t-21.5 111.5q14 72 80.5 138t127.5 87h72l-8 -37q-39 0 -92 -52t-66 -112q-8 -38 7.5 -56t41.5 -18q28 0 54 17l-15 -92q-42 -21 -82 -21z" />
    <glyph glyph-name="tilde" unicode="&#x2dc;" horiz-adv-x="903" 
d="M428 1114h-109q26 95 88 161t152 66q37 0 65 -13.5t44.5 -32.5t31 -37.5t33.5 -32t43 -13.5q43 0 74.5 35.5t46.5 79.5h111q-22 -93 -89.5 -161t-158.5 -68q-37 0 -65 13t-44.5 31t-31 36.5t-33.5 31.5t-43 13q-31 0 -55.5 -19.5t-36 -40t-23.5 -49.5z" />
    <glyph glyph-name="hungarumlaut" unicode="&#x2dd;" horiz-adv-x="958" 
d="M725 1092l244 323h202l-331 -323h-115zM440 1092l215 323h185l-289 -323h-111z" />
    <glyph glyph-name="uni0326" unicode="&#x326;" horiz-adv-x="524" 
d="M70 -377l14 96q60 21 99.5 77t43.5 149h138q-3 -120 -90.5 -215t-204.5 -107z" />
    <glyph glyph-name="uni0394" unicode="&#x394;" horiz-adv-x="1277" 
d="M84 0l49 113l1047 1327h151l-88 -1327l-49 -113h-1110zM346 152h680l74 966h-6z" />
    <glyph glyph-name="uni03A9" unicode="&#x3a9;" horiz-adv-x="1413" 
d="M76 0l65 152h373q-183 358 -41 688q119 280 353.5 447t502.5 167q270 0 362.5 -166.5t-26.5 -447.5q-77 -179 -245 -355.5t-380 -332.5h363l-66 -152h-563l66 152q209 148 372.5 325t231.5 340q90 205 37.5 332t-228.5 127q-174 0 -332.5 -126.5t-246.5 -332.5
q-68 -172 -58 -343t89 -320l-66 -154h-563z" />
    <glyph glyph-name="uni03BC" unicode="&#x3bc;" horiz-adv-x="1030" 
d="M33 -410l237 1332h183l-78 -437q-59 -331 151 -331q83 0 157 77t114 191l88 500h182l-164 -922h-160l17 150h-6q-43 -71 -114 -120.5t-157 -49.5q-130 0 -178 88h-4l-86 -478h-182z" />
    <glyph glyph-name="pi" unicode="&#x3c0;" horiz-adv-x="1138" 
d="M139 -12q25 54 79 229.5t89 341.5l45 209h-135l27 127l159 14h684q128 0 177 27l-29 -135q-22 -13 -74.5 -23t-103.5 -10h-15l-104 -494q-35 -159 98 -159l-28 -133q-56 -9 -78 -9q-37 0 -69 8t-62 27t-46 50.5t-22.5 78.5t8.5 111l111 520h-318l-43 -209
q-36 -168 -87 -343.5t-74 -227.5h-189z" />
    <glyph glyph-name="Wgrave" unicode="&#x1e80;" horiz-adv-x="2074" 
d="M268 1434h228l170 -1145h6l557 1145h162l98 -1137h6l598 1137h205l-742 -1434h-231l-80 1014h-6l-496 -1014h-235zM1251 1536l-184 283h199l116 -283h-131z" />
    <glyph glyph-name="wgrave" unicode="&#x1e81;" horiz-adv-x="1386" 
d="M311 0l-129 922h219l60 -717h6l301 700h193l26 -700h6l350 717h189l-447 -922h-241l-15 643h-6l-284 -643h-228zM831 1092l-280 321h207l192 -321h-119z" />
    <glyph glyph-name="Wacute" unicode="&#x1e82;" horiz-adv-x="2074" 
d="M268 1434h228l170 -1145h6l557 1145h162l98 -1137h6l598 1137h205l-742 -1434h-231l-80 1014h-6l-496 -1014h-235zM1419 1536h-139l205 283h207z" />
    <glyph glyph-name="wacute" unicode="&#x1e83;" horiz-adv-x="1386" 
d="M311 0l-129 922h219l60 -717h6l301 700h193l26 -700h6l350 717h189l-447 -922h-241l-15 643h-6l-284 -643h-228zM940 1092h-123l238 321h211z" />
    <glyph glyph-name="Wdieresis" unicode="&#x1e84;" horiz-adv-x="2074" 
d="M268 1434h228l170 -1145h6l557 1145h162l98 -1137h6l598 1137h205l-742 -1434h-231l-80 1014h-6l-496 -1014h-235zM1522 1559q-52 0 -84 37.5t-27 89.5q6 54 47 91.5t92 37.5t83 -37.5t26 -91.5q-6 -51 -47 -89t-90 -38zM1114 1559q-51 0 -82.5 38t-25.5 89
q6 54 46.5 91.5t92.5 37.5q50 0 81 -37.5t25 -91.5q-6 -51 -46 -89t-91 -38z" />
    <glyph glyph-name="wdieresis" unicode="&#x1e85;" horiz-adv-x="1386" 
d="M311 0l-129 922h219l60 -717h6l301 700h193l26 -700h6l350 717h189l-447 -922h-241l-15 643h-6l-284 -643h-228zM717 1096q-52 0 -85.5 36.5t-27.5 86.5q6 53 45.5 88.5t95.5 35.5q51 0 84 -36t27 -88q-6 -51 -45.5 -87t-93.5 -36zM1075 1096q-52 0 -85 36.5t-27 86.5
q6 53 45.5 88.5t95.5 35.5q51 0 83.5 -36t26.5 -88q-6 -51 -45.5 -87t-93.5 -36z" />
    <glyph glyph-name="Germandbls" unicode="&#x1e9e;" horiz-adv-x="1312" 
d="M365 0h-209l221 1044q36 169 154 279.5t278 110.5h645l-35 -158q-20 -16 -79 -61t-86.5 -68t-67.5 -62.5t-61.5 -77t-30.5 -77.5q-11 -55 5.5 -106t49.5 -90t71.5 -86t70 -93t45 -112.5t-2.5 -143.5q-29 -134 -156.5 -224.5t-277.5 -90.5q-102 0 -189 21t-132 52l96 170
q37 -27 98 -47t123 -20q85 0 149.5 51.5t77.5 114.5q10 49 -5 96t-45 83.5t-65 80.5t-63.5 86.5t-41.5 101.5t1 127q34 151 289 348l2 6h-383q-84 0 -143.5 -60t-79.5 -151z" />
    <glyph glyph-name="uni1EA0" unicode="&#x1ea0;" horiz-adv-x="1265" 
d="M256 0h-199l760 1440h146l247 -1440h-223l-41 303h-526zM831 1067l-339 -602h421l-75 602h-7zM561 -367q-50 0 -82 38.5t-26 90.5q6 54 47 91.5t92 37.5q50 0 82 -37.5t26 -91.5q-6 -51 -47 -90t-92 -39z" />
    <glyph glyph-name="uni1EA1" unicode="&#x1ea1;" horiz-adv-x="1060" 
d="M457 -16q-74 0 -133.5 24t-104 75.5t-58.5 133t3 195.5q42 233 213 379.5t379 146.5q34 0 70 -2t59.5 -3.5t61.5 -7t49.5 -7t52 -8.5t43.5 -7l-123 -674q-25 -181 -17 -229h-192q-2 34 16 150h-6q-51 -67 -129.5 -116.5t-183.5 -49.5zM373 428q-28 -137 13 -215t146 -78
q97 0 180 96t103 207l68 334q-100 16 -140 16q-132 0 -236.5 -107t-133.5 -253zM487 -362q-52 0 -84 36.5t-24 87.5q6 52 47 88.5t98 36.5q50 0 82 -37t25 -88q-8 -52 -48.5 -88t-95.5 -36z" />
    <glyph glyph-name="uni1EB8" unicode="&#x1eb8;" horiz-adv-x="1091" 
d="M971 0h-817l252 1434h817l-21 -185h-602l-92 -428h545l-21 -170h-543l-100 -467h602zM512 -367q-51 0 -83 39t-26 90q6 54 47.5 91.5t92.5 37.5q50 0 82 -37.5t26 -91.5q-6 -51 -47 -90t-92 -39z" />
    <glyph glyph-name="uni1EB9" unicode="&#x1eb9;" horiz-adv-x="952" 
d="M530 -16q-85 0 -155.5 31.5t-120 90.5t-68.5 151t0 204q20 115 69.5 207t118 150t149 89t165.5 31q62 0 111.5 -19.5t79 -52.5t44.5 -76t11.5 -92t-23.5 -98q-37 -93 -172 -158.5t-379 -81.5q3 -106 58.5 -164.5t154.5 -58.5q67 0 139 17.5t113 40.5l31 -127
q-138 -84 -326 -84zM375 477q171 15 271 56t122 102q24 61 -1 110t-85 50q-115 0 -197.5 -94.5t-109.5 -223.5zM465 -362q-52 0 -84.5 36.5t-24.5 87.5q6 52 47.5 88.5t98.5 36.5q50 0 81.5 -37t24.5 -88q-8 -52 -48 -88t-95 -36z" />
    <glyph glyph-name="uni1EBC" unicode="&#x1ebc;" horiz-adv-x="1091" 
d="M154 0l252 1434h817l-21 -185h-602l-92 -428h545l-21 -170h-543l-100 -467h602l-20 -184h-817zM561 1546q24 93 81.5 153t148.5 60q45 0 79 -18t50.5 -39t41 -39t54.5 -18q43 0 71.5 30t40.5 72h113q-20 -94 -80 -155.5t-153 -61.5q-37 0 -66.5 11.5t-48 27.5t-35 32
t-36.5 27.5t-44 11.5q-45 0 -68 -25t-38 -69h-111z" />
    <glyph glyph-name="uni1EBD" unicode="&#x1ebd;" horiz-adv-x="913" 
d="M530 -16q-85 0 -155.5 31.5t-120 90.5t-68.5 151t0 204q20 115 69.5 207t118 150t149 89t165.5 31q62 0 111.5 -19.5t79 -52.5t44.5 -76t11.5 -92t-23.5 -98q-37 -93 -172 -158.5t-379 -81.5q3 -106 58.5 -164.5t154.5 -58.5q67 0 139 17.5t113 40.5l31 -127
q-138 -84 -326 -84zM391 1114q28 96 89.5 161.5t152.5 65.5q37 0 65 -13.5t44 -32.5t30.5 -37.5t33 -32t42.5 -13.5q44 0 75 35t46 80h112q-24 -94 -91 -161.5t-159 -67.5q-37 0 -65 13t-44.5 31t-31 36.5t-33.5 31.5t-43 13q-73 0 -112 -109h-111zM375 477q171 15 271 56
t122 102q24 61 -1 110t-85 50q-115 0 -197.5 -94.5t-109.5 -223.5z" />
    <glyph glyph-name="uni1ECA" unicode="&#x1eca;" horiz-adv-x="520" 
d="M154 0l252 1434h215l-252 -1434h-215zM201 -367q-51 0 -83 39t-26 90q6 54 47 91.5t92 37.5q50 0 82.5 -38t26.5 -91q-6 -51 -47 -90t-92 -39z" />
    <glyph glyph-name="uni1ECB" unicode="&#x1ecb;" horiz-adv-x="499" 
d="M147 0l162 922h197l-162 -922h-197zM461 1194q-52 0 -84.5 38t-26.5 91q8 56 50 95.5t96 39.5q51 0 84 -40t26 -95q-6 -52 -49 -90.5t-96 -38.5zM182 -362q-52 0 -84 36.5t-24 87.5q8 53 48 89t97 36q51 0 82.5 -37t24.5 -88q-8 -52 -48.5 -88t-95.5 -36z" />
    <glyph glyph-name="uni1ECC" unicode="&#x1ecc;" horiz-adv-x="1423" 
d="M709 -20q-183 0 -302 93t-161 259t-4 385q58 332 254 534.5t471 202.5q184 0 303.5 -93t161.5 -259t4 -385q-38 -218 -138.5 -384.5t-253 -259.5t-335.5 -93zM465 717q-28 -163 -12 -284.5t87.5 -192t188.5 -70.5q178 0 305.5 150t175.5 397q48 249 -19.5 398t-244.5 149
q-178 0 -305.5 -149.5t-175.5 -397.5zM643 -375q-50 0 -82 38.5t-26 90.5q6 54 46.5 91.5t92.5 37.5q50 0 81 -37.5t25 -91.5q-4 -51 -45.5 -90t-91.5 -39z" />
    <glyph glyph-name="uni1ECD" unicode="&#x1ecd;" horiz-adv-x="1011" 
d="M504 -18q-86 0 -156 30.5t-118 91t-65 150t3 207.5q19 115 69 207.5t118.5 151t149.5 89.5t167 31q85 0 155 -30.5t118 -91t65.5 -150t-2.5 -207.5q-40 -226 -183 -352.5t-321 -126.5zM369 461q-29 -145 10 -232.5t143 -87.5q106 0 180.5 87t104.5 233q29 145 -10.5 233
t-143.5 88q-106 0 -180.5 -88t-103.5 -233zM385 -367q-52 0 -84.5 37t-26.5 88q8 52 49 88.5t97 36.5q51 0 83 -37t25 -88q-8 -52 -48.5 -88.5t-94.5 -36.5z" />
    <glyph glyph-name="uni1EE4" unicode="&#x1ee4;" horiz-adv-x="1220" 
d="M608 -16q-261 0 -349.5 162t-31.5 489l140 799h215l-144 -820q-48 -236 1.5 -345t191.5 -109q148 -2 238.5 104.5t140.5 349.5l145 820h205l-141 -799q-57 -326 -203 -488.5t-408 -162.5zM512 -375q-51 0 -83 39t-26 90q6 54 46.5 91.5t93.5 37.5q50 0 82 -37.5t26 -91.5
q-6 -51 -48 -90t-91 -39z" />
    <glyph glyph-name="uni1EE5" unicode="&#x1ee5;" 
d="M442 -20q-177 0 -238 122t-16 377l80 443h195l-78 -443q-20 -100 -19.5 -172.5t37 -112.5t111.5 -40q81 0 150.5 73t111.5 189l94 506h197l-162 -922h-176l19 150h-5q-54 -71 -132.5 -120.5t-168.5 -49.5zM457 -367q-52 0 -84.5 37t-24.5 88q8 53 48.5 89t97.5 36
q51 0 82.5 -37t23.5 -88q-6 -52 -46.5 -88.5t-96.5 -36.5z" />
    <glyph glyph-name="Ygrave" unicode="&#x1ef2;" horiz-adv-x="1239" 
d="M322 1434h227l217 -560h6l449 562l200 -2l-571 -732l-123 -702h-219l121 694zM647 1819h197l117 -283h-130z" />
    <glyph glyph-name="ygrave" unicode="&#x1ef3;" horiz-adv-x="913" 
d="M-18 -512h-50l21 174h49q124 0 236.5 94.5t185.5 247.5l-242 918h215l148 -680h8l330 680h176l-432 -895q-130 -270 -287 -404.5t-358 -134.5zM618 1092l-280 321h207l192 -321h-119z" />
    <glyph glyph-name="uni1EF8" unicode="&#x1ef8;" horiz-adv-x="1239" 
d="M629 694l-307 740h227l217 -560h6l449 562l200 -2l-571 -732l-123 -702h-219zM604 1546q22 93 80 153t150 60q45 0 79 -18t50.5 -39t40.5 -39t53 -18q45 0 73 30t39 72h113q-20 -93 -80 -155t-151 -62q-38 0 -67.5 11.5t-48.5 27.5t-35.5 32t-36.5 27.5t-44 11.5
q-45 0 -68 -25t-38 -69h-109z" />
    <glyph glyph-name="uni1EF9" unicode="&#x1ef9;" horiz-adv-x="913" 
d="M-18 -512h-50l21 174h49q124 0 236.5 94.5t185.5 247.5l-242 918h215l148 -680h8l330 680h176l-432 -895q-130 -270 -287 -404.5t-358 -134.5zM444 1114h-108q26 95 87.5 161t151.5 66q37 0 65.5 -13.5t45 -32.5t31 -37.5t33.5 -32t43 -13.5q43 0 74 35.5t46 79.5h111
q-22 -93 -89.5 -161t-158.5 -68q-37 0 -65 13t-44.5 31t-31 36.5t-33.5 31.5t-43 13q-31 0 -55.5 -19.5t-36 -40t-23.5 -49.5z" />
    <glyph glyph-name="endash" unicode="&#x2013;" horiz-adv-x="1150" 
d="M182 453l21 116h946l-21 -116h-946z" />
    <glyph glyph-name="emdash" unicode="&#x2014;" horiz-adv-x="1785" 
d="M199 453l24 116h1581l-24 -116h-1581z" />
    <glyph glyph-name="quoteleft" unicode="&#x2018;" horiz-adv-x="468" 
d="M455 1042h-133q46 265 200 494h94q-112 -224 -161 -494z" />
    <glyph glyph-name="quoteright" unicode="&#x2019;" horiz-adv-x="468" 
d="M401 1042h-94q114 227 162 494h135q-48 -264 -203 -494z" />
    <glyph glyph-name="quotesinglbase" unicode="&#x201a;" horiz-adv-x="468" 
d="M104 -289h-98q114 229 160 494h139q-25 -145 -81.5 -273t-119.5 -221z" />
    <glyph glyph-name="quotedblleft" unicode="&#x201c;" horiz-adv-x="776" 
d="M766 1042h-135q27 148 84.5 286t115.5 224h95q-43 -87 -89 -225t-71 -285zM322 1042q46 265 200 494h103q-126 -252 -170 -494h-133z" />
    <glyph glyph-name="quotedblright" unicode="&#x201d;" horiz-adv-x="776" 
d="M395 1026h-98q43 87 89 225t71 285h139q-25 -147 -83.5 -284.5t-117.5 -225.5zM707 1042h-107q127 253 168 494h139q-46 -265 -200 -494z" />
    <glyph glyph-name="quotedblbase" unicode="&#x201e;" horiz-adv-x="776" 
d="M102 -305h-98q42 85 87 223.5t71 286.5h139q-25 -147 -82.5 -285t-116.5 -225zM412 -289h-107q127 253 168 494h139q-46 -265 -200 -494z" />
    <glyph glyph-name="dagger" unicode="&#x2020;" horiz-adv-x="716" 
d="M211 795l14 82h242l98 557h94l-98 -557h242l-15 -82h-241l-185 -1041h-94l185 1041h-242z" />
    <glyph glyph-name="daggerdbl" unicode="&#x2021;" horiz-adv-x="716" 
d="M115 256l14 82h242l92 514h-242l15 82h241l88 500h94l-88 -500h242l-14 -82h-242l-92 -514h242l-15 -82h-241l-89 -500h-94l88 500h-241z" />
    <glyph glyph-name="bullet" unicode="&#x2022;" horiz-adv-x="561" 
d="M383 514q-68 0 -106.5 51t-26.5 121q13 70 72 121t127 51q66 0 104 -51t25 -121q-13 -69 -71.5 -120.5t-123.5 -51.5z" />
    <glyph glyph-name="ellipsis" unicode="&#x2026;" horiz-adv-x="1468" 
d="M1214 -14q-55 0 -87 39.5t-23 93.5q9 55 53.5 94t104.5 39q53 0 85 -39.5t23 -93.5q-11 -55 -55 -94t-101 -39zM256 -14q-55 0 -87.5 39.5t-23.5 93.5q11 56 54.5 94.5t103.5 38.5q54 0 86 -39.5t23 -93.5q-9 -55 -53.5 -94t-102.5 -39zM735 -14q-55 0 -87 39.5t-23 93.5
q11 56 54 94.5t103 38.5q54 0 86 -39.5t23 -93.5q-9 -55 -53.5 -94t-102.5 -39z" />
    <glyph glyph-name="perthousand" unicode="&#x2030;" horiz-adv-x="1787" 
d="M987 -16q-124 0 -179 90t-22 248q33 157 128 248.5t219 91.5q140 0 188 -121q98 121 244 121q123 0 175.5 -91t18.5 -249q-34 -159 -124 -248.5t-214 -89.5q-143 0 -194 118q-95 -118 -240 -118zM537 774q-125 0 -179.5 89t-21.5 247q33 157 127.5 248.5t218.5 91.5
q122 0 174 -91t18 -249q-32 -157 -122.5 -246.5t-214.5 -89.5zM1325 319q-24 -116 8 -181.5t107 -65.5t132 65.5t83 184.5q25 118 -4.5 184.5t-104.5 66.5q-76 0 -135.5 -67.5t-85.5 -186.5zM442 1110q-26 -116 6 -182t107 -66t132 65t83 183q25 119 -3.5 185.5t-104.5 66.5
q-75 0 -135.5 -67.5t-84.5 -184.5zM893 322q-26 -118 6 -184t107 -66t132 65.5t83 184.5q25 119 -4 185t-105 66q-75 0 -135 -67t-84 -184zM432 20h-98l905 1393h98z" />
    <glyph glyph-name="guilsinglleft" unicode="&#x2039;" horiz-adv-x="665" 
d="M287 442l252 -413h-95l-258 409l9 37l417 406h103l-424 -422z" />
    <glyph glyph-name="guilsinglright" unicode="&#x203a;" horiz-adv-x="663" 
d="M555 459l2 16l-256 406h90l262 -406l-8 -37l-420 -409h-104z" />
    <glyph glyph-name="fraction" unicode="&#x2044;" horiz-adv-x="372" 
d="M-180 0h-88l1046 1331h84z" />
    <glyph glyph-name="uni2070" unicode="&#x2070;" horiz-adv-x="548" 
d="M438 911q-109 0 -155 83.5t-21 226.5q25 137 101.5 222t183.5 85q106 0 150.5 -85t19.5 -222q-25 -143 -98.5 -226.5t-180.5 -83.5zM371 1221q-19 -102 2 -157.5t82 -55.5q116 0 155 213q40 213 -80 213q-60 0 -100.5 -55.5t-58.5 -157.5z" />
    <glyph glyph-name="uni2074" unicode="&#x2074;" horiz-adv-x="518" 
d="M489 1024h-272l14 74l363 411h80l-72 -405h64l-15 -80h-63l-21 -106h-98zM340 1108v-4h164l43 244h-4z" />
    <glyph glyph-name="uni2075" unicode="&#x2075;" horiz-adv-x="524" 
d="M408 905q-62 0 -114 22.5t-85 53.5l59 80q24 -22 40 -33.5t45 -23t61 -11.5q64 0 106 34.5t51 92.5q22 117 -88 117q-67 0 -125 -39l-47 41l64 272h330l-17 -90h-254l-33 -135l5 -2q64 31 124 31q35 0 64 -9.5t53.5 -32t31.5 -60.5t-1 -95q-19 -107 -97.5 -160
t-172.5 -53z" />
    <glyph glyph-name="uni2076" unicode="&#x2076;" horiz-adv-x="534" 
d="M436 913q-107 0 -155.5 73.5t-26.5 195.5q29 169 117 257.5t200 88.5q92 0 164 -58l-65 -73q-54 43 -111 43q-70 0 -120.5 -57.5t-63.5 -131.5h2q24 26 63 45t80 19q91 0 133.5 -55t26.5 -140q-16 -89 -81 -148t-163 -59zM360 1124q-11 -61 17 -97t74 -36q45 0 82.5 33
t48.5 96q10 63 -16 94t-70 31q-48 0 -87 -31.5t-49 -89.5z" />
    <glyph glyph-name="uni2077" unicode="&#x2077;" horiz-adv-x="477" 
d="M270 920q70 156 130.5 252.5t170.5 238.5v4h-274l16 94h387l-14 -77q-117 -154 -179.5 -256t-127.5 -256h-109z" />
    <glyph glyph-name="uni2078" unicode="&#x2078;" horiz-adv-x="538" 
d="M430 911q-104 0 -155 47t-37 123q19 116 135 160l2 4q-66 42 -49 129q11 67 70 110.5t143 43.5q83 0 126 -43.5t31 -110.5q-14 -87 -92 -129l-2 -4q100 -42 78 -160q-14 -76 -81 -123t-169 -47zM346 1087q-16 -104 94 -104q114 0 133 104q9 55 -16 85t-78 30
q-52 0 -88 -30t-45 -85zM424 1374q-9 -42 10 -68t60 -26q43 0 70.5 26t33.5 68q7 35 -11.5 60.5t-60.5 25.5t-68.5 -25.5t-33.5 -60.5z" />
    <glyph glyph-name="uni2079" unicode="&#x2079;" horiz-adv-x="534" 
d="M227 971l64 71q2 -1 11.5 -7.5t13 -9t13 -8t16 -7.5t16 -5.5t19.5 -4.5t21 -1q72 0 122 57.5t65 133.5h-4q-22 -26 -61.5 -45t-82.5 -19q-91 0 -132 55t-27 140q16 89 81 148t162 59q108 0 157.5 -74t27.5 -197q-31 -169 -118.5 -256.5t-199.5 -87.5q-97 0 -164 58z
M381 1321q-11 -63 14.5 -95t69.5 -32q49 0 88 32t49 91q10 60 -17.5 95.5t-74.5 35.5q-44 0 -81 -32.5t-48 -94.5z" />
    <glyph glyph-name="uni2080" unicode="&#x2080;" horiz-adv-x="548" 
d="M258 -113q-109 0 -155 83.5t-21 226.5q25 137 101.5 222t183.5 85q106 0 150.5 -85t19.5 -222q-25 -143 -98.5 -226.5t-180.5 -83.5zM188 197q-36 -213 86 -213q117 0 156 213q37 213 -80 213q-60 0 -101.5 -55.5t-60.5 -157.5z" />
    <glyph glyph-name="uni2081" unicode="&#x2081;" horiz-adv-x="387" 
d="M133 293l-29 74l193 118h74l-105 -587h-104l82 460h-4z" />
    <glyph glyph-name="uni2082" unicode="&#x2082;" horiz-adv-x="530" 
d="M51 -102l15 84l235 206q97 82 109 146q6 37 -13 59.5t-57 22.5q-42 0 -75 -25.5t-70 -71.5l-68 48q106 141 235 141q80 0 122.5 -45t29.5 -121q-7 -42 -32.5 -82.5t-48 -63t-58.5 -53.5l-164 -147v-4h254l-16 -94h-398z" />
    <glyph glyph-name="uni2083" unicode="&#x2083;" horiz-adv-x="528" 
d="M231 -111q-120 0 -184 64l57 78q61 -54 140 -54q52 0 87 24.5t44 70.5t-20 71t-87 25h-57l14 74h56q54 0 86.5 24.5t40.5 65.5q13 78 -78 78q-72 0 -150 -58l-30 74q102 74 202 74q82 0 125 -37.5t29 -116.5q-8 -51 -34.5 -79.5t-68.5 -49.5l-2 -4q94 -42 76 -150
q-9 -49 -35 -84.5t-62 -54t-73 -27t-76 -8.5z" />
    <glyph glyph-name="uni2084" unicode="&#x2084;" horiz-adv-x="536" 
d="M55 0l15 74l362 411h80l-74 -405h66l-15 -80h-63l-20 -106h-99l21 106h-273zM164 80h178l45 260h-4l-219 -256v-4z" />
    <glyph glyph-name="uni2085" unicode="&#x2085;" horiz-adv-x="524" 
d="M229 -119q-118 0 -198 76l59 80q25 -22 40 -33.5t43.5 -23t59.5 -11.5q64 0 106.5 34.5t53.5 92.5q19 117 -90 117q-62 0 -125 -39l-45 41l62 272h331l-16 -90h-256l-31 -135l4 -2q64 31 123 31q36 0 65 -9.5t53.5 -32t32 -60.5t-0.5 -95q-14 -73 -59.5 -123t-99 -70
t-112.5 -20z" />
    <glyph glyph-name="uni2086" unicode="&#x2086;" horiz-adv-x="534" 
d="M258 -111q-107 0 -155.5 73.5t-26.5 195.5q29 169 116.5 257.5t200.5 88.5q92 0 164 -58l-65 -73q-54 43 -111 43q-70 0 -120.5 -57t-65.5 -132h4q22 26 62 45t81 19q91 0 132.5 -55t27.5 -140q-16 -89 -81 -148t-163 -59zM182 100q-11 -62 16 -97.5t74 -35.5q45 0 82 33
t47 96q11 63 -14.5 94t-69.5 31q-49 0 -87 -31t-48 -90z" />
    <glyph glyph-name="uni2087" unicode="&#x2087;" horiz-adv-x="477" 
d="M88 -104q72 157 133 254.5t168 236.5l2 4h-274l16 94h385l-12 -77q-115 -150 -178.5 -253t-128.5 -259h-111z" />
    <glyph glyph-name="uni2088" unicode="&#x2088;" horiz-adv-x="538" 
d="M250 -113q-104 0 -155.5 46t-37.5 124q22 116 138 160v4q-66 43 -50 129q11 67 70 110.5t143 43.5t127 -43.5t31 -110.5q-14 -87 -92 -129v-4q97 -43 78 -160q-14 -77 -81.5 -123.5t-170.5 -46.5zM166 63q-16 -104 96 -104t131 104q9 55 -15.5 85t-76.5 30
q-53 0 -89.5 -30t-45.5 -85zM244 350q-9 -41 10 -67.5t59 -26.5q43 0 71 26t36 68q5 35 -13.5 60.5t-60.5 25.5t-68.5 -25.5t-33.5 -60.5z" />
    <glyph glyph-name="uni2089" unicode="&#x2089;" horiz-adv-x="534" 
d="M47 -53l66 71q19 -14 29 -20t33.5 -14.5t47.5 -8.5q71 0 121.5 58t63.5 133h-2q-22 -25 -62 -44.5t-82 -19.5q-91 0 -133.5 55t-26.5 140q16 89 81 148t163 59q107 0 155.5 -74t26.5 -197q-29 -169 -116.5 -256.5t-200.5 -87.5q-97 0 -164 58zM201 297q-10 -63 16 -95
t70 -32q47 0 86 32.5t49 90.5q11 60 -16.5 95.5t-73.5 35.5q-45 0 -82.5 -32.5t-48.5 -94.5z" />
    <glyph glyph-name="franc" unicode="&#x20a3;" horiz-adv-x="1001" 
d="M223 317h-92l23 99h90l207 977h743l-37 -174h-547l-96 -453h487l-30 -148h-488l-43 -202h338l-22 -99h-336l-68 -317h-196z" />
    <glyph glyph-name="lira" unicode="&#x20a4;" horiz-adv-x="915" 
d="M858 0h-803l31 154q99 88 157 169t79 171h-162l20 100h154q0 41 -4 131h-121l20 100h97q0 88 23 172.5t67.5 157t106 127.5t143.5 86t174 31q81 0 150.5 -23t107.5 -49l-90 -145q-91 53 -187 53q-97 0 -184.5 -75.5t-116.5 -209.5q-12 -58 -12 -125h399l-20 -100h-381
v-131h352l-20 -100h-346q-40 -166 -201 -330l-2 -6h602z" />
    <glyph glyph-name="peseta" unicode="&#x20a7;" horiz-adv-x="1144" 
d="M371 1022l78 358q247 21 362 21q206 0 311.5 -96t77.5 -283h129l-20 -100h-133q-40 -122 -128 -210t-193 -129.5t-218 -43.5q-70 -2 -172 14l-117 -553h-194l196 922h-125l23 100h123zM975 922h-432l-43 -207q84 -15 153 -15q117 0 200 58.5t122 163.5zM565 1022h432
q9 99 -47 157t-178 58q-70 0 -164 -8z" />
    <glyph glyph-name="Euro" unicode="&#x20ac;" horiz-adv-x="1005" 
d="M227 510h-92l23 100h80q8 73 32 164h-80l23 100h92q92 241 267 384t376 143q150 0 240 -55l-37 -172q-85 55 -209 55q-129 0 -243 -96t-183 -261l498 2l-23 -100h-512q-24 -78 -33 -164h510l-20 -100h-496q4 -159 79.5 -252.5t197.5 -93.5q121 0 237 55l-36 -174
q-136 -59 -273 -59q-196 0 -310.5 141t-107.5 383z" />
    <glyph glyph-name="uni20BA" unicode="&#x20ba;" horiz-adv-x="1120" 
d="M319 571l-186 -73l23 100l184 74l27 125l-185 -74l21 100l184 74l107 496h190l-88 -414l315 127l-22 -100l-316 -125l-26 -125l315 125l-20 -101l-316 -125l-102 -483q194 17 355 166.5t204 353.5h168q-33 -155 -117 -288t-197 -223t-250 -140.5t-276 -50.5
q-55 0 -114 12z" />
    <glyph glyph-name="uni2113" unicode="&#x2113;" horiz-adv-x="819" 
d="M219 367q-76 -24 -131 -29l23 104q57 11 133 41l114 543q25 121 61.5 213.5t87 161.5t119 105t152.5 36q126 0 170.5 -93t9.5 -257q-48 -225 -192.5 -417t-333.5 -308q-20 -101 -20 -173.5t34 -113.5t105 -41q66 0 143 43l25 -139q-37 -24 -111 -46t-133 -22
q-157 0 -223.5 92.5t-32.5 299.5zM467 631q122 107 211.5 252t122.5 299q12 55 13 100.5t-16 78t-53 32.5q-31 0 -56.5 -19t-44 -50t-37 -84.5t-32 -106t-30.5 -132.5z" />
    <glyph glyph-name="uni2116" unicode="&#x2116;" horiz-adv-x="2277" 
d="M154 0l252 1434h202l391 -1049h7l208 1049h205l-252 -1434h-204l-392 1020h-6l-207 -1020h-204zM1823 291q-178 0 -276.5 125.5t-59.5 351.5q40 227 182.5 353t321.5 126q178 0 277 -126.5t61 -352.5q-20 -115 -70 -207t-118.5 -150t-150 -89t-167.5 -31zM1690 768
q-30 -145 8 -232t143 -87q106 0 181.5 87t103.5 232q29 145 -10.5 233.5t-143.5 88.5q-105 0 -179 -88.5t-103 -233.5zM2066 0h-589l12 117h592z" />
    <glyph glyph-name="uni2117" unicode="&#x2117;" horiz-adv-x="1474" 
d="M733 -18q-176 0 -306 91.5t-183.5 249.5t-14.5 343t160 342.5t290 248.5t345 91q175 0 305 -91t184 -248.5t15 -342.5t-160 -343t-290 -249.5t-345 -91.5zM340 666q-33 -157 10.5 -290t151 -210.5t254.5 -77.5q146 0 286.5 77.5t241 210.5t133.5 290q18 97 11 183
t-42.5 158.5t-90 125.5t-130.5 82.5t-164 29.5q-146 0 -286.5 -77.5t-241 -211t-133.5 -290.5zM715 276h-131l161 771q168 12 228 12q129 0 191.5 -62.5t37.5 -181.5q-26 -125 -119.5 -193t-212.5 -71q-24 -1 -96 8zM799 668q37 -9 84 -9q74 0 123 43t63 113q11 61 -20.5 97
t-102.5 36q-32 0 -90 -4z" />
    <glyph glyph-name="uni2120" unicode="&#x2120;" horiz-adv-x="1220" 
d="M743 870l121 564h92l113 -414h4l287 414h88l-119 -564h-104l71 338h-4l-223 -329h-78l-80 319h-4l-69 -328h-95zM457 862q-48 0 -101 15.5t-86 40.5l64 81q61 -47 139 -47q47 0 77.5 18.5t37.5 53.5q8 34 -11.5 52.5t-80.5 35.5q-75 21 -105 60t-16 108q17 77 77.5 122.5
t141.5 45.5q96 0 166 -47l-58 -84q-59 41 -118 41q-46 0 -72 -21.5t-33 -52.5q-6 -32 12 -48t70 -32q84 -25 115 -63.5t16 -108.5q-18 -83 -84 -126.5t-151 -43.5z" />
    <glyph glyph-name="trademark" unicode="&#x2122;" horiz-adv-x="1275" 
d="M799 870l121 564h92l112 -414h4l287 414h88l-119 -564h-104l72 338h-4l-224 -329h-77l-78 319h-6l-70 -328h-94zM336 1346l20 88h465l-20 -88h-180l-103 -476h-104l100 476h-178z" />
    <glyph glyph-name="estimated" unicode="&#x212e;" horiz-adv-x="1034" 
d="M514 -16q-209 0 -306.5 130t-51.5 343q45 214 197 344.5t362 130.5q209 0 306 -130.5t52 -344.5l-6 -23h-768l-53 -256q81 -143 278 -143q123 0 225.5 54.5t174.5 152.5h59q-86 -127 -208 -192.5t-261 -65.5zM309 481h621l55 254q-86 146 -280 146t-340 -146z" />
    <glyph glyph-name="arrowleft" unicode="&#x2190;" horiz-adv-x="1429" 
d="M229 670l500 426l84 -103l-295 -252v-4h934l-27 -143h-933v-4l206 -252l-120 -102l-351 426z" />
    <glyph glyph-name="arrowup" unicode="&#x2191;" horiz-adv-x="997" 
d="M309 776l-84 103l502 426h8l350 -426l-120 -103l-207 252h-4l-166 -934h-146l166 934h-4z" />
    <glyph glyph-name="arrowright" unicode="&#x2192;" horiz-adv-x="1429" 
d="M1090 1096l350 -426l-2 -8l-502 -426l-84 102l297 252v4h-934l27 143h934v4l-207 252z" />
    <glyph glyph-name="arrowdown" unicode="&#x2193;" horiz-adv-x="997" 
d="M500 20l-350 424l120 103l205 -252h4l166 934h146l-166 -934h4l297 252l84 -103l-502 -424h-8z" />
    <glyph glyph-name="arrowboth" unicode="&#x2194;" horiz-adv-x="1775" 
d="M578 236l-351 426l2 8l500 426l84 -103l-295 -252v-4h1002l2 4l-207 252l121 103l348 -426v-8l-502 -426l-84 102l297 252v4h-1003v-4l206 -252z" />
    <glyph glyph-name="arrowupdn" unicode="&#x2195;" horiz-adv-x="997" 
d="M135 369l119 102l207 -252h4l178 1004h-4l-295 -252l-84 102l502 426h8l350 -426l-121 -102l-206 252h-5l-178 -1004h4l295 252l84 -102l-499 -426h-9z" />
    <glyph glyph-name="uni2196" unicode="&#x2196;" horiz-adv-x="1130" 
d="M297 1022h602l-25 -143h-356l-2 -5l543 -659l-121 -102l-543 659l-4 -2l-63 -356h-144l107 602z" />
    <glyph glyph-name="uni2197" unicode="&#x2197;" horiz-adv-x="1130" 
d="M1200 1014l-106 -602h-146l64 356l-2 2l-779 -659l-84 102l779 659l-2 5h-357l27 143h600z" />
    <glyph glyph-name="uni2198" unicode="&#x2198;" horiz-adv-x="1130" 
d="M1057 246h-602l26 143h357l2 4l-543 660l121 102l543 -661l4 4l61 354h145l-106 -600z" />
    <glyph glyph-name="uni2199" unicode="&#x2199;" horiz-adv-x="1130" 
d="M156 254l106 600h144l-62 -354l2 -4l778 661l82 -102l-776 -660l2 -4h356l-26 -143h-602z" />
    <glyph glyph-name="partialdiff" unicode="&#x2202;" horiz-adv-x="1208" 
d="M168 397q30 147 121.5 277.5t225.5 211.5t276 81q136 0 211 -73.5t65 -207.5h6q41 109 62 203q16 77 18.5 147.5t-11 137t-44.5 115.5t-87.5 78.5t-133.5 29.5q-102 0 -230 -41l8 155q168 50 289 50q120 0 207.5 -51t131.5 -141t54.5 -213t-22.5 -267
q-26 -120 -75.5 -242.5t-126 -241t-168 -210t-210 -147.5t-243.5 -56q-186 0 -275.5 107.5t-48.5 297.5zM539 156q91 0 181 60.5t150.5 150.5t81.5 184q25 116 -25.5 187t-158.5 71q-92 0 -180 -63.5t-145.5 -155t-77.5 -184.5q-25 -115 21.5 -182.5t152.5 -67.5z" />
    <glyph glyph-name="product" unicode="&#x220f;" horiz-adv-x="1296" 
d="M125 -512l385 1806h-162l29 140h1153l-31 -140h-162l-383 -1806h-176l385 1806h-479l-383 -1806h-176z" />
    <glyph glyph-name="summation" unicode="&#x2211;" horiz-adv-x="1269" 
d="M1069 -512h-1073l29 131l735 889l-373 815l23 111h1073l-29 -131h-854l356 -773l-716 -874h864z" />
    <glyph glyph-name="minus" unicode="&#x2212;" horiz-adv-x="1034" 
d="M190 432l19 123h840l-19 -123h-840z" />
    <glyph glyph-name="uni2215" unicode="&#x2215;" horiz-adv-x="692" 
d="M-16 -51l897 1587h127l-897 -1587h-127z" />
    <glyph glyph-name="uni2219" unicode="&#x2219;" horiz-adv-x="561" 
d="M383 514q-68 0 -106.5 51t-26.5 121q13 70 72 121t127 51q66 0 104 -51t25 -121q-13 -69 -71.5 -120.5t-123.5 -51.5z" />
    <glyph glyph-name="radical" unicode="&#x221a;" horiz-adv-x="1269" 
d="M217 791h184l107 -824h6l940 1569h135l-1044 -1731h-133l-119 869h-100z" />
    <glyph glyph-name="infinity" unicode="&#x221e;" horiz-adv-x="1417" 
d="M463 217q-123 0 -176.5 89t-24.5 222q27 133 119 223.5t215 90.5q172 0 258 -230q188 230 356 230q122 0 176 -90.5t25 -223.5q-27 -133 -119.5 -222t-216.5 -89q-166 0 -256 229q-183 -229 -356 -229zM350 528q-21 -97 13.5 -160t121.5 -63q135 0 299 223
q-33 103 -80 164.5t-122 61.5q-87 0 -149 -64t-83 -162zM889 528q32 -102 80 -162.5t123 -60.5q87 0 148.5 63t82.5 160q21 98 -13.5 162t-121.5 64q-133 0 -299 -226z" />
    <glyph glyph-name="integral" unicode="&#x222b;" horiz-adv-x="638" 
d="M-94 -512l35 166q111 0 179 91.5t105 266.5l224 1047q101 477 501 477l-35 -166q-111 0 -179 -91t-105 -265l-223 -1047q-26 -123 -78.5 -217.5t-121 -150.5t-144.5 -83.5t-158 -27.5z" />
    <glyph glyph-name="approxequal" unicode="&#x2248;" horiz-adv-x="1271" 
d="M236 575l16 144q40 34 111.5 67t146.5 33q54 0 108 -20t99.5 -48l91 -56t98 -48t103.5 -20q116 0 264 131l-19 -144q-119 -110 -260 -110q-62 0 -120.5 20t-104 48t-88.5 56t-90.5 48t-93.5 20q-73 0 -150.5 -41.5t-111.5 -79.5zM428 375q-72 0 -147.5 -41t-114.5 -80
l16 143q40 34 112.5 67.5t147.5 33.5q53 0 107 -20t99.5 -48t91 -56.5t97.5 -48.5t103 -20q116 0 264 131l-16 -143q-120 -111 -260 -111q-62 0 -121 20t-104.5 48t-88.5 56.5t-91.5 48.5t-94.5 20z" />
    <glyph glyph-name="notequal" unicode="&#x2260;" horiz-adv-x="1040" 
d="M162 240l16 145h328l168 262h-443l17 148h520l174 268h98l-174 -268h197l-16 -148h-275l-170 -262h391l-16 -145h-469l-213 -332h-98l215 332h-250z" />
    <glyph glyph-name="lessequal" unicode="&#x2264;" horiz-adv-x="1138" 
d="M1272 1186l-33 -154l-760 -246l-2 -8l656 -250l-35 -168l-842 347l31 145zM137 78l27 123h889l-27 -123h-889z" />
    <glyph glyph-name="greaterequal" unicode="&#x2265;" horiz-adv-x="1138" 
d="M338 1032l33 154l843 -334l-30 -145l-989 -347l36 168l762 250l2 8zM1061 201l-25 -123h-891l27 123h889z" />
    <glyph glyph-name="uni2460" unicode="&#x2460;" horiz-adv-x="1550" 
d="M772 -18q-139 0 -256 54.5t-192 146t-106.5 218t-6.5 265.5q32 185 151.5 342.5t293 248.5t358.5 91q139 0 256 -54t192 -145t107 -217.5t8 -265.5q-25 -139 -102 -265.5t-184.5 -218t-243.5 -146t-275 -54.5zM326 666q-27 -157 25.5 -290t169 -210.5t270.5 -77.5
t298.5 77.5t244 210.5t126.5 290q28 157 -24.5 290.5t-169.5 211t-271 77.5t-298 -77.5t-243.5 -211t-127.5 -290.5zM729 868l203 119h80l-105 -588h-112l82 457h-5l-110 -63z" />
    <glyph glyph-name="uni2461" unicode="&#x2461;" horiz-adv-x="1550" 
d="M772 -18q-139 0 -256 54.5t-192 146t-106.5 218t-6.5 265.5q32 185 151.5 342.5t293 248.5t358.5 91q139 0 256 -54t192 -145t107 -217.5t8 -265.5q-25 -139 -102 -265.5t-184.5 -218t-243.5 -146t-275 -54.5zM326 666q-27 -157 25.5 -290t169 -210.5t270.5 -77.5
t298.5 77.5t244 210.5t126.5 290q28 157 -24.5 290.5t-169.5 211t-271 77.5t-298 -77.5t-243.5 -211t-127.5 -290.5zM633 399l14 84l246 207q29 25 45.5 40t38 46t27.5 60q6 37 -13.5 57t-60.5 20q-32 0 -60.5 -15.5t-43.5 -30.5t-42 -48l-75 49q107 142 245 142
q86 0 130.5 -45t31.5 -121q-7 -42 -33.5 -82.5t-48 -61.5t-61.5 -55l-164 -143v-4h260l-18 -99h-418z" />
    <glyph glyph-name="uni2462" unicode="&#x2462;" horiz-adv-x="1550" 
d="M772 -18q-139 0 -256 54.5t-192 146t-106.5 218t-6.5 265.5q32 185 151.5 342.5t293 248.5t358.5 91q139 0 256 -54t192 -145t107 -217.5t8 -265.5q-25 -139 -102 -265.5t-184.5 -218t-243.5 -146t-275 -54.5zM326 666q-27 -157 25.5 -290t169 -210.5t270.5 -77.5
t298.5 77.5t244 210.5t126.5 290q28 157 -24.5 290.5t-169.5 211t-271 77.5t-298 -77.5t-243.5 -211t-127.5 -290.5zM827 393q-127 0 -192 62l63 80q63 -50 142 -50q121 0 135 88q9 48 -20.5 72.5t-90.5 24.5h-59l14 75h60q56 0 88.5 24.5t38.5 66.5q6 34 -14 52.5t-64 18.5
q-75 0 -156 -57l-33 78q101 73 211 73q84 0 130.5 -38t33.5 -113q-8 -52 -33.5 -80.5t-70.5 -50.5v-4q96 -42 75 -150q-9 -49 -36 -84.5t-65.5 -53.5t-77 -26t-79.5 -8z" />
    <glyph glyph-name="uni2463" unicode="&#x2463;" horiz-adv-x="1550" 
d="M772 -18q-139 0 -256 54.5t-192 146t-106.5 218t-6.5 265.5q32 185 151.5 342.5t293 248.5t358.5 91q139 0 256 -54t192 -145t107 -217.5t8 -265.5q-25 -139 -102 -265.5t-184.5 -218t-243.5 -146t-275 -54.5zM326 666q-27 -157 25.5 -290t169 -210.5t270.5 -77.5
t298.5 77.5t244 210.5t126.5 290q28 157 -24.5 290.5t-169.5 211t-271 77.5t-298 -77.5t-243.5 -211t-127.5 -290.5zM592 504l14 76l379 411h86l-70 -401h64l-16 -86h-64l-18 -105h-111l18 105h-282zM727 590h162l39 221h-2l-197 -215z" />
    <glyph glyph-name="uni2464" unicode="&#x2464;" horiz-adv-x="1550" 
d="M772 -18q-139 0 -256 54.5t-192 146t-106.5 218t-6.5 265.5q32 185 151.5 342.5t293 248.5t358.5 91q139 0 256 -54t192 -145t107 -217.5t8 -265.5q-25 -139 -102 -265.5t-184.5 -218t-243.5 -146t-275 -54.5zM326 666q-27 -157 25.5 -290t169 -210.5t270.5 -77.5
t298.5 77.5t244 210.5t126.5 290q28 157 -24.5 290.5t-169.5 211t-271 77.5t-298 -77.5t-243.5 -211t-127.5 -290.5zM623 463l63 82q76 -64 152 -64q65 0 108 32t53 87q9 53 -15.5 85t-76.5 32q-71 0 -131 -37l-51 39l63 272h351l-17 -92h-268l-29 -125l4 -4q73 29 127 29
q37 0 67.5 -10t55.5 -32t35 -63t0 -96q-14 -72 -60 -121.5t-102 -69.5t-118 -20q-67 0 -122.5 22.5t-88.5 53.5z" />
    <glyph glyph-name="uni2465" unicode="&#x2465;" horiz-adv-x="1550" 
d="M772 -18q-139 0 -256 54.5t-192 146t-106.5 218t-6.5 265.5q32 185 151.5 342.5t293 248.5t358.5 91q139 0 256 -54t192 -145t107 -217.5t8 -265.5q-25 -139 -102 -265.5t-184.5 -218t-243.5 -146t-275 -54.5zM326 666q-27 -157 25.5 -290t169 -210.5t270.5 -77.5
t298.5 77.5t244 210.5t126.5 290q28 157 -24.5 290.5t-169.5 211t-271 77.5t-298 -77.5t-243.5 -211t-127.5 -290.5zM836 391q-114 0 -166.5 74t-30.5 197q29 167 122 255.5t210 88.5q95 0 172 -58l-68 -74q-63 39 -119 39q-74 0 -124.5 -56t-63.5 -128h4q23 25 63.5 44.5
t84.5 19.5q95 0 139.5 -55t30.5 -140q-16 -89 -84 -148t-170 -59zM754 602q-11 -61 18 -96t76 -35q46 0 85 32.5t50 94.5q10 62 -16.5 93.5t-73.5 31.5q-48 0 -88.5 -32.5t-50.5 -88.5z" />
    <glyph glyph-name="uni2466" unicode="&#x2466;" horiz-adv-x="1550" 
d="M772 -18q-139 0 -256 54.5t-192 146t-106.5 218t-6.5 265.5q32 185 151.5 342.5t293 248.5t358.5 91q139 0 256 -54t192 -145t107 -217.5t8 -265.5q-25 -139 -102 -265.5t-184.5 -218t-243.5 -146t-275 -54.5zM326 666q-27 -157 25.5 -290t169 -210.5t270.5 -77.5
t298.5 77.5t244 210.5t126.5 290q28 157 -24.5 290.5t-169.5 211t-271 77.5t-298 -77.5t-243.5 -211t-127.5 -290.5zM829 375h-118q73 156 134.5 250.5t172.5 234.5l2 8h-287l19 97h405l-14 -82q-116 -145 -180.5 -247.5t-133.5 -260.5z" />
    <glyph glyph-name="uni2467" unicode="&#x2467;" horiz-adv-x="1550" 
d="M772 -18q-139 0 -256 54.5t-192 146t-106.5 218t-6.5 265.5q32 185 151.5 342.5t293 248.5t358.5 91q139 0 256 -54t192 -145t107 -217.5t8 -265.5q-25 -139 -102 -265.5t-184.5 -218t-243.5 -146t-275 -54.5zM326 666q-27 -157 25.5 -290t169 -210.5t270.5 -77.5
t298.5 77.5t244 210.5t126.5 290q28 157 -24.5 290.5t-169.5 211t-271 77.5t-298 -77.5t-243.5 -211t-127.5 -290.5zM842 389q-110 0 -163.5 46.5t-39.5 123.5q19 116 141 160v4q-67 41 -53 129q12 67 73.5 110.5t149.5 43.5t134 -43.5t34 -110.5q-14 -87 -96 -129l-2 -4
q106 -42 84 -160q-14 -76 -84 -123t-178 -47zM756 565q-9 -48 16.5 -75t81.5 -27q57 0 91.5 27t43.5 75q9 52 -18 82.5t-80 30.5q-52 0 -89 -30.5t-46 -82.5zM834 852q-9 -41 11.5 -66.5t61.5 -25.5q40 0 70 25.5t37 66.5q5 35 -14.5 59.5t-61.5 24.5q-43 0 -70.5 -24
t-33.5 -60z" />
    <glyph glyph-name="uni2468" unicode="&#x2468;" horiz-adv-x="1550" 
d="M772 -18q-139 0 -256 54.5t-192 146t-106.5 218t-6.5 265.5q32 185 151.5 342.5t293 248.5t358.5 91q139 0 256 -54t192 -145t107 -217.5t8 -265.5q-25 -139 -102 -265.5t-184.5 -218t-243.5 -146t-275 -54.5zM326 666q-27 -157 25.5 -290t169 -210.5t270.5 -77.5
t298.5 77.5t244 210.5t126.5 290q28 157 -24.5 290.5t-169.5 211t-271 77.5t-298 -77.5t-243.5 -211t-127.5 -290.5zM821 383q-97 0 -172 57l68 76q55 -41 119 -41q74 0 124.5 56t63.5 128h-4q-23 -25 -63.5 -44t-84.5 -19q-95 0 -139.5 55t-30.5 140q16 89 84 147.5
t170 58.5q114 0 166.5 -73.5t30.5 -194.5q-31 -169 -123 -257.5t-209 -88.5zM809 791q-11 -62 16 -93.5t74 -31.5q49 0 89 32t50 88q11 61 -18.5 97.5t-75.5 36.5q-45 0 -84.5 -33.5t-50.5 -95.5z" />
    <glyph glyph-name="uni24EA" unicode="&#x24ea;" horiz-adv-x="1550" 
d="M772 -18q-139 0 -256 54.5t-192 146t-106.5 218t-6.5 265.5q32 185 151.5 342.5t293 248.5t358.5 91q139 0 256 -54t192 -145t107 -217.5t8 -265.5q-25 -139 -102 -265.5t-184.5 -218t-243.5 -146t-275 -54.5zM326 666q-27 -157 25.5 -290t169 -210.5t270.5 -77.5
t298.5 77.5t244 210.5t126.5 290q28 157 -24.5 290.5t-169.5 211t-271 77.5t-298 -77.5t-243.5 -211t-127.5 -290.5zM844 389q-114 0 -164 83.5t-25 225.5q25 137 104.5 222.5t192.5 85.5q112 0 159.5 -85t23.5 -223q-25 -143 -101 -226t-190 -83zM772 698q-19 -101 4 -156
t84 -55q121 0 160 211q36 211 -84 211q-62 0 -104.5 -55t-59.5 -156z" />
    <glyph glyph-name="uni24FF" unicode="&#x24ff;" horiz-adv-x="1550" 
d="M772 -18q-139 0 -256 54.5t-192 146t-106.5 218t-6.5 265.5q32 185 151.5 342.5t293 248.5t358.5 91q139 0 256 -54t192 -145t107 -217.5t8 -265.5q-25 -139 -102 -265.5t-184.5 -218t-243.5 -146t-275 -54.5zM655 698q-25 -142 25 -225.5t164 -83.5t190 83t101 226
q24 138 -23.5 223t-159.5 85q-113 0 -192.5 -85.5t-104.5 -222.5zM860 487q-61 0 -84 55t-4 156q17 101 59.5 156t104.5 55q120 0 84 -211q-39 -211 -160 -211z" />
    <glyph glyph-name="lozenge" unicode="&#x25ca;" horiz-adv-x="1261" 
d="M233 670l658 899h153l269 -899l-649 -901h-154zM434 670l195 -672h6l473 672l-188 669h-7z" />
    <glyph glyph-name="uni2776" unicode="&#x2776;" horiz-adv-x="1550" 
d="M772 -18q-139 0 -256 54.5t-192 146t-106.5 218t-6.5 265.5q32 185 151.5 342.5t293 248.5t358.5 91q139 0 256 -54t192 -145t107 -217.5t8 -265.5q-25 -139 -102 -265.5t-184.5 -218t-243.5 -146t-275 -54.5zM729 868l33 -75l110 63h5l-82 -457h112l105 588h-80z" />
    <glyph glyph-name="uni2777" unicode="&#x2777;" horiz-adv-x="1550" 
d="M772 -18q-139 0 -256 54.5t-192 146t-106.5 218t-6.5 265.5q32 185 151.5 342.5t293 248.5t358.5 91q139 0 256 -54t192 -145t107 -217.5t8 -265.5q-25 -139 -102 -265.5t-184.5 -218t-243.5 -146t-275 -54.5zM633 399h418l18 99h-260v4l164 143q40 34 61.5 55t48 61.5
t33.5 82.5q13 76 -31.5 121t-130.5 45q-138 0 -245 -142l75 -49q27 33 42 48t43.5 30.5t60.5 15.5q41 0 60.5 -20t13.5 -57q-6 -29 -27.5 -60t-38 -46t-45.5 -40l-246 -207z" />
    <glyph glyph-name="uni2778" unicode="&#x2778;" horiz-adv-x="1550" 
d="M772 -18q-139 0 -256 54.5t-192 146t-106.5 218t-6.5 265.5q32 185 151.5 342.5t293 248.5t358.5 91q139 0 256 -54t192 -145t107 -217.5t8 -265.5q-25 -139 -102 -265.5t-184.5 -218t-243.5 -146t-275 -54.5zM635 455q65 -62 192 -62q41 0 79.5 8t77 26t65.5 53.5
t36 84.5q21 108 -75 150v4q45 22 70.5 50.5t33.5 80.5q13 75 -33.5 113t-130.5 38q-110 0 -211 -73l33 -78q81 57 156 57q44 0 64 -18.5t14 -52.5q-6 -42 -38.5 -66.5t-88.5 -24.5h-60l-14 -75h59q61 0 90.5 -24.5t20.5 -72.5q-14 -88 -135 -88q-79 0 -142 50z" />
    <glyph glyph-name="uni2779" unicode="&#x2779;" horiz-adv-x="1550" 
d="M772 -18q-139 0 -256 54.5t-192 146t-106.5 218t-6.5 265.5q32 185 151.5 342.5t293 248.5t358.5 91q139 0 256 -54t192 -145t107 -217.5t8 -265.5q-25 -139 -102 -265.5t-184.5 -218t-243.5 -146t-275 -54.5zM606 580l-14 -76h282l-18 -105h111l18 105h64l16 86h-64
l70 401h-86zM729 596l197 219h4l-41 -225h-160v6z" />
    <glyph glyph-name="uni277A" unicode="&#x277a;" horiz-adv-x="1550" 
d="M772 -18q-139 0 -256 54.5t-192 146t-106.5 218t-6.5 265.5q32 185 151.5 342.5t293 248.5t358.5 91q139 0 256 -54t192 -145t107 -217.5t8 -265.5q-25 -139 -102 -265.5t-184.5 -218t-243.5 -146t-275 -54.5zM686 545l-63 -82q33 -31 88.5 -53.5t122.5 -22.5
q62 0 118 20t102 69.5t60 121.5q10 55 0 96t-35 63t-55.5 32t-67.5 10q-54 0 -127 -29l-4 4l29 125h268l17 92h-351l-63 -272l51 -39q60 37 131 37q52 0 76.5 -32t15.5 -85q-10 -55 -53 -87t-108 -32q-76 0 -152 64z" />
    <glyph glyph-name="uni277B" unicode="&#x277b;" horiz-adv-x="1550" 
d="M772 -18q-139 0 -256 54.5t-192 146t-106.5 218t-6.5 265.5q32 185 151.5 342.5t293 248.5t358.5 91q139 0 256 -54t192 -145t107 -217.5t8 -265.5q-25 -139 -102 -265.5t-184.5 -218t-243.5 -146t-275 -54.5zM639 662q-22 -123 30.5 -197t166.5 -74q102 0 170 59t84 148
q14 85 -30.5 140t-139.5 55q-44 0 -84.5 -19.5t-63.5 -44.5h-4q13 72 63.5 128t124.5 56q56 0 119 -39l68 74q-77 58 -172 58q-117 0 -210 -88.5t-122 -255.5zM754 602q10 56 50.5 88.5t88.5 32.5q47 0 73.5 -31.5t16.5 -93.5q-11 -62 -50 -94.5t-85 -32.5q-47 0 -76 35
t-18 96z" />
    <glyph glyph-name="uni277C" unicode="&#x277c;" horiz-adv-x="1550" 
d="M772 -18q-139 0 -256 54.5t-192 146t-106.5 218t-6.5 265.5q32 185 151.5 342.5t293 248.5t358.5 91q139 0 256 -54t192 -145t107 -217.5t8 -265.5q-25 -139 -102 -265.5t-184.5 -218t-243.5 -146t-275 -54.5zM1018 860q-111 -140 -172.5 -234.5t-134.5 -250.5h118
q69 158 133.5 260.5t180.5 247.5l14 82h-405l-19 -97h287z" />
    <glyph glyph-name="uni277D" unicode="&#x277d;" horiz-adv-x="1550" 
d="M772 -18q-139 0 -256 54.5t-192 146t-106.5 218t-6.5 265.5q32 185 151.5 342.5t293 248.5t358.5 91q139 0 256 -54t192 -145t107 -217.5t8 -265.5q-25 -139 -102 -265.5t-184.5 -218t-243.5 -146t-275 -54.5zM639 559q-14 -77 39.5 -123.5t163.5 -46.5q108 0 178 47
t84 123q22 118 -84 160l2 4q82 42 96 129q12 67 -34 110.5t-134 43.5t-149.5 -43.5t-73.5 -110.5q-14 -88 53 -129v-4q-122 -44 -141 -160zM854 463q-57 0 -82.5 28t-17.5 74q9 51 47.5 82t89.5 31q53 0 80 -30.5t18 -82.5q-9 -48 -43.5 -75t-91.5 -27zM907 760
q-41 0 -61.5 25.5t-11.5 66.5q6 36 33.5 60t70.5 24q42 0 61.5 -24.5t14.5 -59.5q-7 -41 -37 -66.5t-70 -25.5z" />
    <glyph glyph-name="uni277E" unicode="&#x277e;" horiz-adv-x="1550" 
d="M772 -18q-139 0 -256 54.5t-192 146t-106.5 218t-6.5 265.5q32 185 151.5 342.5t293 248.5t358.5 91q139 0 256 -54t192 -145t107 -217.5t8 -265.5q-25 -139 -102 -265.5t-184.5 -218t-243.5 -146t-275 -54.5zM717 516l-68 -76q75 -57 172 -57q117 0 209 88.5t123 257.5
q22 121 -30.5 194.5t-166.5 73.5q-102 0 -170 -58.5t-84 -147.5q-14 -85 30.5 -140t139.5 -55q44 0 84.5 19t63.5 44h4q-13 -72 -63.5 -128t-124.5 -56q-64 0 -119 41zM899 666q-47 0 -74 31.5t-16 93.5t50.5 95.5t84.5 33.5q46 0 75.5 -36.5t18.5 -97.5q-10 -56 -50 -88
t-89 -32z" />
    <glyph glyph-name="uniE000" unicode="&#xe000;" horiz-adv-x="1261" 
d="M760 -18q-291 0 -433.5 205t-82.5 542q29 164 101.5 298.5t174 226t229 141t267.5 49.5q227 0 389 -96l-90 -168q-61 36 -143.5 56.5t-165.5 20.5q-188 0 -339.5 -147t-195.5 -381q-48 -252 48 -408.5t282 -156.5q191 0 342 88l45 -156q-207 -114 -428 -114zM1094 1536
h-119l147 283h174z" />
    <glyph glyph-name="uniE001" unicode="&#xe001;" horiz-adv-x="880" 
d="M510 -14q-84 0 -153 29.5t-118 89t-66.5 148.5t1.5 208q37 208 172 343.5t330 135.5q170 0 272 -76l-69 -133q-64 57 -181 57q-122 0 -207.5 -92.5t-113.5 -230.5q-28 -143 24 -233.5t168 -90.5q61 0 121.5 17.5t100.5 42.5l40 -129q-141 -86 -321 -86zM641 1092l150 323
h170l-213 -323h-107z" />
    <glyph glyph-name="uniE002" unicode="&#xe002;" horiz-adv-x="1318" 
d="M154 0l252 1434h202l391 -1049h7l208 1049h205l-252 -1434h-204l-392 1020h-6l-207 -1020h-204zM881 1536l149 283h174l-203 -283h-120z" />
    <glyph glyph-name="uniE003" unicode="&#xe003;" 
d="M125 0l162 922h176l-21 -150h7q53 72 132 121t169 49q177 0 238.5 -112t21.5 -349l-86 -481h-195l78 449q19 98 19 168.5t-36.5 110.5t-111.5 40q-81 0 -150.5 -73t-111.5 -187l-94 -508h-197zM772 1092h-106l149 323h170z" />
    <glyph glyph-name="uniE004" unicode="&#xe004;" horiz-adv-x="1423" 
d="M709 -20q-183 0 -302 93t-161 259t-4 385q58 332 254 534.5t471 202.5q184 0 303.5 -93t161.5 -259t4 -385q-38 -218 -138.5 -384.5t-253 -259.5t-335.5 -93zM465 717q-28 -163 -12 -284.5t87.5 -192t188.5 -70.5q178 0 305.5 150t175.5 397q48 249 -19.5 398t-244.5 149
q-178 0 -305.5 -149.5t-175.5 -397.5zM1055 1536h-121l147 283h176z" />
    <glyph glyph-name="uniE005" unicode="&#xe005;" horiz-adv-x="1011" 
d="M504 -18q-86 0 -156 30.5t-118 91t-65 150t3 207.5q19 115 69 207.5t118.5 151t149.5 89.5t167 31q85 0 155 -30.5t118 -91t65.5 -150t-2.5 -207.5q-40 -226 -183 -352.5t-321 -126.5zM369 461q-29 -145 10 -232.5t143 -87.5q106 0 180.5 87t104.5 233q29 145 -10.5 233
t-143.5 88q-106 0 -180.5 -88t-103.5 -233zM750 1092h-109l147 323h175z" />
    <glyph glyph-name="uniE006" unicode="&#xe006;" horiz-adv-x="1144" 
d="M88 125l113 168q175 -125 362 -125q129 0 226 64.5t118 156.5q19 88 -44 144t-224 96q-93 24 -158.5 57t-110.5 82t-60.5 119t-0.5 160q31 181 180.5 289t346.5 108q249 0 424 -123l-113 -166q-161 111 -322 111q-121 0 -200.5 -63.5t-98.5 -149.5q-19 -91 38 -141.5
t196 -88.5q60 -16 107.5 -33.5t90 -39t71.5 -46.5t53 -56t33.5 -67.5t13 -82t-8.5 -97.5q-18 -105 -74 -186.5t-135.5 -130t-172 -73.5t-191.5 -25q-118 0 -246.5 38t-212.5 101zM924 1536h-119l147 283h174z" />
    <glyph glyph-name="uniE007" unicode="&#xe007;" horiz-adv-x="843" 
d="M412 -14q-100 0 -184.5 24.5t-131.5 59.5l70 131q94 -70 252 -70q70 0 121 31.5t63 81.5q12 53 -23 85.5t-133 63.5q-115 34 -171 104t-39 175q23 129 125 198.5t249 69.5q177 0 281 -74l-68 -131q-32 23 -91.5 40.5t-123.5 17.5q-69 0 -120 -31t-62 -78
q-11 -53 15 -79.5t91 -49.5q157 -46 218 -117.5t41 -185.5q-21 -125 -128.5 -195.5t-250.5 -70.5zM690 1092h-108l149 323h172z" />
    <glyph glyph-name="uniE008" unicode="&#xe008;" horiz-adv-x="1236" 
d="M414 1434h929l-22 -197l-920 -1040l-2 -7h699l-23 -190h-962l22 197l926 1042v6h-668zM979 1819h174l-205 -283h-119z" />
    <glyph glyph-name="uniE009" unicode="&#xe009;" horiz-adv-x="798" 
d="M262 922h631l-19 -156l-548 -619v-6h422l-17 -141h-663l20 152l561 622l2 6h-405zM698 1415h172l-213 -323h-108z" />
    <glyph glyph-name="uniE00A" unicode="&#xe00a;" horiz-adv-x="1402" 
d="M573 -18q-145 10 -244.5 92t-136.5 205t-12 262q34 188 145.5 289.5t256.5 101.5q84 0 134 -44.5t64 -107.5q21 -72 -12 -168l2 -4q67 53 100 136t21 178h162q13 -108 -18.5 -203t-96.5 -163.5t-155.5 -119t-194.5 -78t-215 -32.5q23 -87 80.5 -142t146.5 -61
q106 -6 204.5 33.5t174 111t130.5 171t80 208.5t16.5 229.5t-54.5 229.5q-71 16 -170.5 61.5t-189.5 80t-166 34.5q-97 0 -149.5 -52t-57.5 -136h-182q-2 65 19 124.5t62 108t109.5 77t155.5 28.5q96 0 200.5 -28.5t178.5 -63t157.5 -63t143.5 -28.5q63 0 120 32.5t70 84.5
h182q-19 -98 -105 -173t-212 -93q51 -119 56 -254t-30 -260.5t-107.5 -240.5t-170 -198.5t-226 -128.5t-266.5 -36zM358 428q51 3 92 10t85 24t74 42t50 67t21 97q2 43 -26 77.5t-81 34.5q-51 0 -93 -30t-67.5 -77t-39.5 -99t-15 -101v-45z" />
    <glyph glyph-name="uniE132" unicode="&#xe132;" horiz-adv-x="878" 
d="M244 -510h-35l31 172h34q137 0 206 81t104 280l159 899h191l-162 -914q-18 -101 -44.5 -179.5t-68.5 -143.5t-99.5 -107t-136.5 -65t-179 -23zM342 0h-192l163 922h193zM365 1092l237 321h211l-328 -321h-120zM797 1092l237 321h211l-327 -321h-121z" />
    <glyph glyph-name="uniE133" unicode="&#xe133;" horiz-adv-x="1310" 
d="M565 25l49 168q25 -11 80 -22t97 -11q114 0 179.5 70t100.5 251l174 953h205l-174 -953q-39 -253 -158.5 -375t-347.5 -122q-48 0 -113 13.5t-92 27.5zM369 0h-215l252 1434h215zM608 1536h-139l205 283h205zM1427 1536h-139l205 283h205z" />
    <glyph glyph-name="uniF026" unicode="&#xf026;" horiz-adv-x="1419" 
d="M475 -29q-195 0 -282.5 101t-57.5 272q12 67 43.5 127.5t68.5 103.5t95 88t103 73t114 67q-65 185 -41 313q26 152 126 242t235 90q124 0 189.5 -84.5t43.5 -202.5q-13 -71 -44 -131.5t-79 -110t-96 -85.5t-113 -76q82 -185 213 -334h4q137 160 271 403l137 -57
q-148 -275 -303 -453q177 -170 328 -170l-27 -147h-25q-187 0 -403 193q-246 -222 -500 -222zM330 352q-18 -98 35.5 -158.5t152.5 -60.5q161 0 342 160v4q-144 162 -235 362h-4q-63 -37 -101.5 -63t-83.5 -64.5t-71 -83t-35 -96.5zM682 1122q-14 -87 33 -231h4
q101 58 160 117.5t73 142.5q9 56 -18 97.5t-82 41.5q-60 0 -108 -44.5t-62 -123.5z" />
    <glyph glyph-name="uniF028" unicode="&#xf028;" horiz-adv-x="653" 
d="M360 -143q-90 181 -114.5 400t16.5 439q40 227 141.5 443.5t255.5 396.5h132q-142 -179 -236 -395.5t-135 -444.5q-41 -220 -23 -439t95 -400h-132z" />
    <glyph glyph-name="uniF029" unicode="&#xf029;" horiz-adv-x="653" 
d="M111 -143q141 181 235 397.5t133 441.5q41 220 23.5 440t-94.5 400h131q90 -181 114.5 -400.5t-16.5 -439.5q-40 -227 -141.5 -443t-255.5 -396h-129z" />
    <glyph glyph-name="uniF030" unicode="&#xf030;" horiz-adv-x="1208" 
d="M608 -14q-123 0 -212 53t-135 149.5t-57.5 231t19.5 297.5q38 218 125.5 382t221.5 257.5t298 93.5q123 0 210 -54t130.5 -151t53.5 -232t-21 -296q-40 -219 -124 -381.5t-215 -256t-294 -93.5zM438 717q-25 -161 -16 -282t65.5 -192t153.5 -71q98 0 176 71.5t128.5 191
t78.5 282.5q22 121 23 219t-20 172t-69 115t-122 41q-146 0 -249.5 -150.5t-148.5 -396.5z" />
    <glyph glyph-name="uniF031" unicode="&#xf031;" horiz-adv-x="823" 
d="M334 1026l-58 141l431 267h131l-254 -1434h-203l209 1184h-4z" />
    <glyph glyph-name="uniF032" unicode="&#xf032;" horiz-adv-x="1208" 
d="M143 0l25 145l596 555q225 203 254 351q20 111 -31 170t-156 59q-179 0 -352 -223l-129 86q40 56 90 106t117.5 98.5t153.5 77.5t176 29q194 0 286.5 -100.5t57.5 -292.5q-8 -45 -24.5 -89.5t-44 -86t-51 -74t-62.5 -71.5l-59 -59t-60.5 -55.5t-48.5 -43.5l-435 -400v-6
h674l-33 -176h-944z" />
    <glyph glyph-name="uniF033" unicode="&#xf033;" horiz-adv-x="1208" 
d="M594 -10q-140 0 -261 46.5t-188 113.5l111 151q163 -139 358 -139q140 0 227 65t109 189q20 110 -51 179t-205 69h-135l27 153h135q126 0 210.5 69.5t100.5 164.5q18 107 -37.5 163t-171.5 56q-97 0 -200.5 -45.5t-180.5 -106.5l-53 146q99 77 225 130.5t258 53.5
q88 0 158.5 -21.5t121.5 -64.5t71 -114.5t4 -164.5q-19 -112 -93 -200.5t-169 -128.5v-6q99 -42 154 -132.5t32 -220.5q-15 -88 -56.5 -158.5t-97.5 -115.5t-125.5 -75.5t-138 -43t-139.5 -12.5z" />
    <glyph glyph-name="uniF034" unicode="&#xf034;" horiz-adv-x="1163" 
d="M750 281h-639l26 155l860 998h160l-176 -990h158l-29 -163h-158l-49 -281h-205zM328 444h450l117 658h-6l-559 -649z" />
    <glyph glyph-name="uniF035" unicode="&#xf035;" horiz-adv-x="1208" 
d="M573 -10q-142 0 -266 50.5t-194 117.5l110 149q165 -145 355 -145q145 0 251.5 91t131.5 236q26 140 -35.5 217.5t-188.5 77.5q-80 0 -163 -31t-142 -69l-90 66l158 684h753l-30 -177h-600l-88 -387l6 -4q148 74 295 74q51 0 96.5 -9t90.5 -30t77.5 -55t56 -84t27 -117
t-9.5 -153q-18 -100 -63.5 -184t-106.5 -141.5t-135 -98.5t-149 -59.5t-147 -18.5z" />
    <glyph glyph-name="uniF036" unicode="&#xf036;" horiz-adv-x="1208" 
d="M614 -14q-164 0 -267.5 82t-136.5 226.5t1 336.5q42 238 146 424.5t253.5 290.5t319.5 104q138 0 236.5 -59t142.5 -168l-146 -101q-80 156 -254 156q-109 0 -208 -71.5t-166 -187t-95 -251.5h6q56 77 152.5 128.5t208.5 51.5q88 0 159 -24.5t116.5 -67.5t75 -101.5
t33.5 -127t-7 -144.5q-18 -102 -63.5 -190.5t-116 -157.5t-171 -109t-219.5 -40zM414 487q-28 -153 37 -248.5t192 -95.5q125 0 217.5 89t120.5 239q27 151 -31 237.5t-192 86.5q-126 0 -223.5 -86.5t-120.5 -221.5z" />
    <glyph glyph-name="uniF037" unicode="&#xf037;" horiz-adv-x="1169" 
d="M295 0q77 152 153.5 289t131.5 230t152 240.5t147.5 221t185.5 270.5v6h-725l31 177h938l-29 -158q-275 -388 -434.5 -645.5t-343.5 -630.5h-207z" />
    <glyph glyph-name="uniF038" unicode="&#xf038;" horiz-adv-x="1208" 
d="M600 -18q-232 0 -354 109.5t-90 291.5q26 149 119.5 245.5t218.5 139.5q-80 42 -119 119.5t-19 193.5q30 169 171 272t335 103t298.5 -103t74.5 -272q-21 -116 -87 -194t-161 -119q112 -42 170.5 -138.5t32.5 -246.5q-34 -182 -195.5 -291.5t-394.5 -109.5zM373 395
q-21 -120 47.5 -200t204.5 -80t232.5 80t117.5 200q27 144 -41 223.5t-207 79.5q-135 0 -232.5 -80t-121.5 -223zM553 1083q-23 -120 35.5 -180.5t165.5 -60.5q124 0 195 65t91 176q18 103 -34 175.5t-166 72.5q-113 0 -191 -72.5t-96 -175.5z" />
    <glyph glyph-name="uniF039" unicode="&#xf039;" horiz-adv-x="1208" 
d="M156 211l145 100q76 -155 254 -155q109 0 208 72.5t165.5 189t93.5 252.5h-4q-57 -78 -154 -131.5t-207 -53.5q-89 0 -160 24.5t-116.5 67.5t-74 101.5t-32.5 127t7 144.5q18 102 63.5 190.5t115.5 158t170.5 109.5t219.5 40q164 0 267.5 -81.5t136.5 -225.5t-1 -336
q-43 -240 -147 -426.5t-253.5 -290.5t-320.5 -104q-138 0 -235.5 59t-140.5 168zM483 965q-27 -153 30.5 -239.5t191.5 -86.5q127 0 224 85.5t122 221.5q27 152 -38.5 248t-191.5 96t-219 -88.5t-119 -236.5z" />
    <glyph glyph-name="uniF03A" unicode="&#xf03a;" horiz-adv-x="1208" 
d="M608 -14q-123 0 -212 53t-135 149.5t-57.5 231t19.5 297.5q38 218 125.5 382t221.5 257.5t298 93.5q123 0 210 -54t130.5 -151t53.5 -232t-21 -296q-40 -219 -124 -381.5t-215 -256t-294 -93.5zM438 717q-25 -161 -16 -282t65.5 -192t153.5 -71q98 0 176 71.5t128.5 191
t78.5 282.5q22 121 23 219t-20 172t-69 115t-122 41q-146 0 -249.5 -150.5t-148.5 -396.5z" />
    <glyph glyph-name="uniF03B" unicode="&#xf03b;" horiz-adv-x="1208" 
d="M193 0l32 180h312l178 1004h-6l-250 -158l-58 141l430 267h132l-224 -1254h312l-31 -180h-827z" />
    <glyph glyph-name="uniF03C" unicode="&#xf03c;" horiz-adv-x="1208" 
d="M143 0l25 145l596 555q225 203 254 351q20 111 -31 170t-156 59q-179 0 -352 -223l-129 86q40 56 90 106t117.5 98.5t153.5 77.5t176 29q194 0 286.5 -100.5t57.5 -292.5q-8 -45 -24.5 -89.5t-44 -86t-51 -74t-62.5 -71.5l-59 -59t-60.5 -55.5t-48.5 -43.5l-435 -400v-6
h674l-33 -176h-944z" />
    <glyph glyph-name="uniF03D" unicode="&#xf03d;" horiz-adv-x="1208" 
d="M594 -10q-140 0 -261 46.5t-188 113.5l111 151q163 -139 358 -139q140 0 227 65t109 189q20 110 -51 179t-205 69h-135l27 153h135q126 0 210.5 69.5t100.5 164.5q18 107 -37.5 163t-171.5 56q-97 0 -200.5 -45.5t-180.5 -106.5l-53 146q99 77 225 130.5t258 53.5
q88 0 158.5 -21.5t121.5 -64.5t71 -114.5t4 -164.5q-19 -112 -93 -200.5t-169 -128.5v-6q99 -42 154 -132.5t32 -220.5q-15 -88 -56.5 -158.5t-97.5 -115.5t-125.5 -75.5t-138 -43t-139.5 -12.5z" />
    <glyph glyph-name="uniF03E" unicode="&#xf03e;" horiz-adv-x="1208" 
d="M147 281l27 155l860 998h160l-176 -990h158l-29 -163h-158l-49 -281h-203l49 281h-639zM365 444h450l117 658h-6l-559 -649z" />
    <glyph glyph-name="uniF03F" unicode="&#xf03f;" horiz-adv-x="1208" 
d="M573 -10q-142 0 -266 50.5t-194 117.5l110 149q165 -145 355 -145q145 0 251.5 91t131.5 236q26 140 -35.5 217.5t-188.5 77.5q-80 0 -163 -31t-142 -69l-90 66l158 684h753l-30 -177h-600l-88 -387l6 -4q148 74 295 74q51 0 96.5 -9t90.5 -30t77.5 -55t56 -84t27 -117
t-9.5 -153q-18 -100 -63.5 -184t-106.5 -141.5t-135 -98.5t-149 -59.5t-147 -18.5z" />
    <glyph glyph-name="uniF040" unicode="&#xf040;" horiz-adv-x="1208" 
d="M614 -14q-164 0 -267.5 82t-136.5 226.5t1 336.5q42 238 146 424.5t253.5 290.5t319.5 104q138 0 236.5 -59t142.5 -168l-146 -101q-80 156 -254 156q-109 0 -208 -72.5t-166 -189t-95 -252.5h6q57 78 153 131t208 53q88 0 159 -24.5t116.5 -67.5t75 -101.5t33.5 -127
t-7 -144.5q-18 -102 -63.5 -190.5t-116 -157.5t-171 -109t-219.5 -40zM414 487q-28 -153 37 -248.5t192 -95.5q125 0 217.5 89t120.5 239q27 151 -31 237.5t-192 86.5q-126 0 -223.5 -86.5t-120.5 -221.5z" />
    <glyph glyph-name="uniF041" unicode="&#xf041;" horiz-adv-x="1208" 
d="M315 0q89 177 166 316.5t181.5 304t158.5 245t209 307.5q11 17 17.5 26.5t17 24.5t18.5 27l2 6h-727l33 177h936l-29 -158q-275 -388 -434.5 -645.5t-343.5 -630.5h-205z" />
    <glyph glyph-name="uniF042" unicode="&#xf042;" horiz-adv-x="1208" 
d="M600 -18q-232 0 -354 109.5t-90 291.5q26 149 119.5 245.5t218.5 139.5q-80 42 -119 119.5t-19 193.5q30 169 171 272t335 103t298.5 -103t74.5 -272q-21 -116 -87 -194t-161 -119q112 -42 170.5 -138.5t32.5 -246.5q-34 -182 -195.5 -291.5t-394.5 -109.5zM373 395
q-21 -120 47.5 -200t204.5 -80t232.5 80t117.5 200q27 144 -41 223.5t-207 79.5q-135 0 -232.5 -80t-121.5 -223zM553 1083q-23 -120 35.5 -180.5t165.5 -60.5q124 0 195 65t91 176q18 103 -34 175.5t-166 72.5q-113 0 -191 -72.5t-96 -175.5z" />
    <glyph glyph-name="uniF043" unicode="&#xf043;" horiz-adv-x="1208" 
d="M156 211l145 100q76 -155 254 -155q109 0 208 72.5t165.5 189t93.5 252.5h-4q-57 -78 -154 -131.5t-207 -53.5q-89 0 -160 24.5t-116.5 67.5t-74 101.5t-32.5 127t7 144.5q18 102 63.5 190.5t115.5 158t170.5 109.5t219.5 40q164 0 267.5 -81.5t136.5 -225.5t-1 -336
q-43 -240 -147 -426.5t-253.5 -290.5t-320.5 -104q-138 0 -235.5 59t-140.5 168zM483 965q-27 -153 30.5 -239.5t191.5 -86.5q127 0 224 85.5t122 221.5q27 152 -38.5 248t-191.5 96t-219 -88.5t-119 -236.5z" />
    <glyph glyph-name="uniF044" unicode="&#xf044;" horiz-adv-x="1085" 
d="M541 -14q-194 0 -297 134.5t-64 354.5q39 221 191 357.5t344 136.5q200 0 299 -135t59 -359q-40 -223 -185.5 -356t-346.5 -133zM389 475q-22 -131 28 -219t156 -88q107 1 187 88t104 219q22 133 -26.5 222t-155.5 89q-106 0 -187.5 -90t-105.5 -221z" />
    <glyph glyph-name="uniF045" unicode="&#xf045;" horiz-adv-x="681" 
d="M240 799l26 149l393 21l-172 -969h-202l145 809z" />
    <glyph glyph-name="uniF046" unicode="&#xf046;" horiz-adv-x="991" 
d="M106 0l29 164l440 274q55 34 88.5 59t66.5 67t40 87q12 69 -29.5 111.5t-113.5 42.5q-81 0 -162 -55.5t-141 -133.5l-91 109q84 107 200 178.5t257 71.5q82 0 144.5 -25t97 -68t47 -97t2.5 -113t-37.5 -110t-68 -90t-78.5 -67t-86 -55l-273 -172v-6h486l-31 -172h-787z
" />
    <glyph glyph-name="uniF047" unicode="&#xf047;" horiz-adv-x="1044" 
d="M436 -303q-244 0 -383 139l107 144q65 -55 136 -82t169 -27q115 0 193.5 53.5t99.5 167.5q18 99 -48.5 149t-195.5 50h-127l25 139h127q118 0 192.5 52.5t89.5 138.5q13 84 -33 129t-139 45q-150 0 -323 -127l-56 141q100 76 200.5 120t223.5 44q81 0 144.5 -17.5
t110 -53.5t65 -98t4.5 -145q-19 -106 -80.5 -170.5t-159.5 -107.5v-6q100 -29 151.5 -103.5t28.5 -201.5q-13 -73 -44.5 -132.5t-75.5 -99t-94 -68.5t-105.5 -44t-104.5 -22t-98 -7z" />
    <glyph glyph-name="uniF048" unicode="&#xf048;" horiz-adv-x="1001" 
d="M33 -33l26 148l744 848h160l-150 -840h158l-29 -156h-158l-47 -268h-202l47 268h-549zM242 123h368l95 532h-7l-454 -524z" />
    <glyph glyph-name="uniF049" unicode="&#xf049;" horiz-adv-x="1040" 
d="M455 -313q-140 0 -251.5 49.5t-180.5 120.5l110 149q40 -35 65.5 -54.5t67.5 -44.5t89.5 -36.5t103.5 -11.5q127 0 210 69.5t107 210.5q25 137 -29 200.5t-161 63.5q-125 0 -256 -84l-86 78l129 566h690l-29 -162h-538l-70 -314l6 -4q54 27 75 36.5t68.5 21.5t98.5 12
q40 0 76 -5t74 -18t66.5 -34t54.5 -53t37.5 -75.5t15.5 -101.5t-11 -131q-18 -100 -58 -179t-91.5 -128.5t-117.5 -82t-130.5 -45.5t-134.5 -13z" />
    <glyph glyph-name="uniF04A" unicode="&#xf04a;" horiz-adv-x="1032" 
d="M526 -14q-149 0 -239 72.5t-114.5 201t3.5 305.5q27 152 78 276t113.5 205.5t136.5 137t147.5 80t147.5 24.5q82 0 152 -20t108 -43t84 -60l-121 -141q-41 31 -64.5 46.5t-70.5 30.5t-103 15q-128 0 -235 -124t-148 -341h7q44 55 121 94t167 39q176 0 258.5 -110.5
t53.5 -272.5q-16 -86 -54 -160t-96.5 -131.5t-144 -90.5t-187.5 -33zM381 401q-23 -123 25.5 -195.5t146.5 -72.5q90 0 161.5 69t92.5 187q21 112 -23 184t-141 72q-92 0 -167.5 -65.5t-94.5 -178.5z" />
    <glyph glyph-name="uniF04B" unicode="&#xf04b;" horiz-adv-x="985" 
d="M154 -328q67 146 132.5 271.5t114 210.5t131.5 207.5t131 189t166 229.5v6h-600l31 177h813l-29 -158q-258 -346 -392.5 -565.5t-289.5 -567.5h-208z" />
    <glyph glyph-name="uniF04C" unicode="&#xf04c;" horiz-adv-x="1085" 
d="M539 -18q-217 0 -325 92.5t-79 261.5q24 127 104.5 211t198.5 125q-154 94 -121 268q25 145 148 236.5t303 91.5q179 0 269 -91.5t65 -236.5q-35 -184 -211 -268q223 -84 176 -336q-29 -169 -169.5 -261.5t-358.5 -92.5zM348 348q-18 -104 38 -164.5t177 -60.5
q125 0 201 60t94 165q20 111 -36.5 178.5t-174.5 67.5q-116 0 -197.5 -67.5t-101.5 -178.5zM510 942q-18 -92 30 -139t136 -47t151.5 47t79.5 139q15 88 -28.5 140.5t-135.5 52.5t-153.5 -52.5t-79.5 -140.5z" />
    <glyph glyph-name="uniF04D" unicode="&#xf04d;" horiz-adv-x="1032" 
d="M59 -199l123 140q38 -30 63 -46.5t72 -31.5t103 -15q128 0 234.5 124t146.5 341h-4q-44 -55 -122.5 -94t-168.5 -39q-118 0 -195.5 53t-105 139t-8.5 191q15 86 53.5 160t98 132t146 91t189.5 33q220 0 305.5 -154.5t36.5 -425.5q-22 -127 -61 -234.5t-88.5 -185
t-106.5 -136.5t-119 -94.5t-123 -53t-122 -17.5q-118 0 -197 33t-150 90zM397 578q-21 -114 23 -185t139 -71q94 0 169.5 64.5t94.5 176.5q22 124 -23.5 196t-142.5 72q-91 0 -165.5 -68.5t-94.5 -184.5z" />
    <glyph glyph-name="uniF04E" unicode="&#xf04e;" horiz-adv-x="1048" 
d="M522 -14q-198 0 -301.5 134t-64.5 355t191.5 357.5t348.5 136.5q204 0 304.5 -135t60.5 -359q-40 -223 -187 -356t-352 -133zM367 475q-24 -131 27 -219t161 -88q111 0 192 87t105 220t-26 222t-162 89q-110 0 -192.5 -90t-104.5 -221z" />
    <glyph glyph-name="uniF04F" unicode="&#xf04f;" horiz-adv-x="1048" 
d="M164 0l31 172h270l115 637l-228 -10l27 149l430 21l-141 -797h256l-31 -172h-729z" />
    <glyph glyph-name="uniF050" unicode="&#xf050;" horiz-adv-x="1048" 
d="M102 0l29 164l461 274q81 50 131 99t61 114q12 69 -28.5 111.5t-112.5 42.5q-83 0 -164 -55.5t-141 -133.5l-90 109q83 107 200.5 178.5t258.5 71.5q108 0 180 -44t97.5 -111.5t10.5 -147.5q-34 -195 -270 -322l-283 -172l-2 -6h523l-31 -172h-830z" />
    <glyph glyph-name="uniF051" unicode="&#xf051;" horiz-adv-x="1048" 
d="M436 -303q-244 0 -383 139l107 144q65 -55 136 -82t169 -27q115 0 193.5 53.5t99.5 167.5q18 99 -48.5 149t-195.5 50h-127l25 139h127q118 0 192.5 52.5t89.5 138.5q13 84 -33 129t-139 45q-150 0 -323 -127l-56 141q100 76 200.5 120t223.5 44q81 0 144.5 -17.5
t110 -53.5t65 -98t4.5 -145q-19 -106 -80.5 -170.5t-159.5 -107.5v-6q100 -29 151.5 -103.5t28.5 -201.5q-13 -73 -44.5 -132.5t-75.5 -99t-94 -68.5t-105.5 -44t-104.5 -22t-98 -7z" />
    <glyph glyph-name="uniF052" unicode="&#xf052;" horiz-adv-x="1048" 
d="M616 -33h-548l24 148l744 848h159l-149 -840h166l-29 -156h-164l-47 -268h-203zM276 123h367l96 532h-6l-454 -524z" />
    <glyph glyph-name="uniF053" unicode="&#xf053;" horiz-adv-x="1048" 
d="M18 -143l113 149q40 -35 65.5 -54.5t67.5 -44.5t89.5 -36.5t103.5 -11.5q128 0 216 70t113 210q11 72 1.5 123t-40.5 83t-71.5 46.5t-91.5 14.5q-133 0 -269 -87l-86 78l129 566h715l-29 -162h-563l-69 -314l6 -4q51 26 77.5 37.5t76.5 24t102 12.5q40 0 76 -5.5
t74.5 -18.5t68.5 -34.5t57 -54t40 -76.5t17.5 -102t-10.5 -131q-18 -100 -59 -179t-94.5 -128.5t-121 -82t-133.5 -45.5t-136 -13q-140 0 -252 49.5t-183 120.5z" />
    <glyph glyph-name="uniF054" unicode="&#xf054;" horiz-adv-x="1048" 
d="M537 -14q-221 0 -309 155t-40 424q27 152 77.5 276t113 205.5t137 137t148 80t147.5 24.5q117 0 195 -33t149 -90l-123 -141q-38 30 -62.5 46t-71.5 31t-103 15q-128 0 -234.5 -124t-146.5 -341h4q44 55 122 94t169 39q118 0 195.5 -53t105 -139t8.5 -191
q-15 -86 -52.5 -160t-96 -131.5t-144 -90.5t-188.5 -33zM391 401q-22 -123 26 -195.5t146 -72.5q91 0 163 69t93 187q19 112 -25 184t-139 72q-93 0 -168 -65.5t-96 -178.5z" />
    <glyph glyph-name="uniF055" unicode="&#xf055;" horiz-adv-x="1048" 
d="M203 -328q78 173 146.5 304.5t155 267t145 219.5t188.5 263l39 54v6h-658l31 177h870l-28 -158q-258 -346 -392.5 -565.5t-289.5 -567.5h-207z" />
    <glyph glyph-name="uniF056" unicode="&#xf056;" horiz-adv-x="1048" 
d="M520 -18q-208 0 -314 93t-77 261q23 126 102.5 210.5t190.5 125.5q-156 93 -123 268q25 145 148.5 236.5t302.5 91.5t268.5 -91.5t64.5 -236.5q-35 -184 -211 -268q97 -40 142.5 -124t23.5 -212q-30 -168 -169.5 -261t-348.5 -93zM342 348q-17 -104 36.5 -164.5
t166.5 -60.5q117 0 191 60.5t93 164.5q19 110 -36 178t-164 68q-108 0 -187.5 -68t-99.5 -178zM492 942q-18 -92 29.5 -139t135.5 -47t152 47t80 139q17 87 -27 140t-137 53q-92 0 -153.5 -52.5t-79.5 -140.5z" />
    <glyph glyph-name="uniF057" unicode="&#xf057;" horiz-adv-x="1048" 
d="M66 -199l120 140q41 -32 64 -47t70.5 -30.5t103.5 -15.5q128 0 235 124t148 341h-6q-44 -55 -121.5 -94t-167.5 -39q-176 0 -258 110.5t-53 272.5q16 86 54.5 160t98.5 132t146 91t188 33q221 0 306 -154t38 -426q-23 -127 -62 -234.5t-88.5 -185t-106.5 -136.5
t-119 -94.5t-123.5 -53t-122.5 -17.5q-117 0 -195 33t-149 90zM401 578q-21 -114 23 -185t141 -71q92 0 167.5 64.5t96.5 176.5q22 124 -24 196t-143 72q-91 0 -165.5 -68.5t-95.5 -184.5z" />
    <glyph glyph-name="uniF063" unicode="&#xf063;" horiz-adv-x="1845" 
d="M510 -14q-84 0 -153 29.5t-117.5 89t-66 148.5t2.5 208q37 208 172 343.5t330 135.5q54 0 108 -14l5 4q-48 71 -73 169t-11 185q22 120 112 193t223 73q68 0 187.5 -7t177.5 -7l-133 -756h6q51 69 124.5 115.5t160.5 46.5q177 0 239.5 -112.5t20.5 -348.5l-86 -481h-193
l80 449q16 98 13.5 168.5t-41.5 110.5t-115 40q-81 0 -149 -73t-109 -187l-90 -508h-193l254 1421q-14 1 -75 6t-105 5q-74 0 -118.5 -43.5t-57.5 -116.5q-34 -178 110 -408l-78 -133q-64 57 -182 57q-123 0 -206.5 -92.5t-108.5 -230.5q-25 -142 31 -233t172 -91
q62 0 122.5 17.5t98.5 42.5l32 -129q-145 -86 -321 -86z" />
    <glyph glyph-name="uniF064" unicode="&#xf064;" horiz-adv-x="1775" 
d="M510 -14q-84 0 -153 29.5t-117.5 89t-66 148.5t2.5 208q37 208 172 343.5t330 135.5q54 0 108 -14l5 4q-48 71 -73 169t-11 185q22 120 112 193t223 73q68 0 187.5 -7t177.5 -7l-180 -1022h6l418 408h200l-364 -355l219 -567h-211l-158 422l-153 -150l-49 -272h-193
l254 1421q-14 1 -75 6t-105 5q-74 0 -118.5 -43.5t-57.5 -116.5q-33 -176 110 -408l-78 -133q-64 57 -182 57q-123 0 -206.5 -92.5t-108.5 -230.5q-25 -142 31 -233t172 -91q62 0 122.5 17.5t98.5 42.5l32 -129q-145 -86 -321 -86z" />
    <glyph glyph-name="uniF065" unicode="&#xf065;" horiz-adv-x="1531" 
d="M510 -14q-84 0 -153 29.5t-117.5 89t-66 148.5t2.5 208q37 208 172 343.5t330 135.5q54 0 98 -12l2 4q-49 58 -76 134.5t-14 154.5q20 105 100.5 166t221.5 61q93 0 246.5 -56t203.5 -61l-74 -409h242l-24 -142h-234l-82 -458q-9 -62 -7.5 -100.5t17 -60.5t34.5 -30
t46 -8q60 0 107 33l-19 -113q-23 -20 -82 -36.5t-100 -16.5q-246 0 -194 301l88 489h-111l20 113l127 29l54 311q-17 7 -73.5 36t-104.5 45.5t-95 16.5q-71 0 -116.5 -36.5t-55.5 -104.5q-3 -18 -3.5 -36t3 -36.5t7 -33.5t12.5 -35.5t15.5 -34t20 -36.5t21.5 -36t24.5 -38.5
t24.5 -39.5l-76 -133q-64 57 -182 57q-123 0 -206.5 -92.5t-108.5 -230.5q-25 -142 31 -233t172 -91q62 0 122.5 17.5t98.5 42.5l32 -129q-145 -86 -321 -86z" />
    <glyph glyph-name="uniF066" unicode="&#xf066;" horiz-adv-x="1841" 
d="M98 70l80 139q41 -35 108 -56.5t140 -21.5q71 0 121 31.5t59 81.5q9 53 -28 85.5t-136 63.5q-115 33 -169.5 103.5t-34.5 175.5q22 129 125.5 198.5t248.5 69.5q66 0 115 -12l4 4q-48 71 -72 168.5t-10 183.5q22 122 114 194t228 72q67 0 211.5 -7t202.5 -7l-135 -756h6
q53 69 127 115.5t160 46.5q177 0 238.5 -112t19.5 -349l-86 -481h-191l78 449q16 98 14 168.5t-40.5 110.5t-114.5 40q-81 0 -149 -73t-109 -187l-90 -508h-193l252 1421q-5 0 -95 5.5t-134 5.5q-76 0 -123.5 -43t-59.5 -117q-31 -176 111 -406l-78 -133q-31 25 -89 42.5
t-122 17.5q-71 0 -121 -31t-59 -78q-8 -53 20 -79.5t95 -49.5q155 -46 214.5 -117.5t39.5 -185.5q-15 -84 -71.5 -145.5t-135.5 -91t-172 -29.5q-99 0 -183 24.5t-131 59.5z" />
    <glyph glyph-name="uniF067" unicode="&#xf067;" horiz-adv-x="1771" 
d="M412 -14q-99 0 -183 24.5t-131 59.5l80 139q41 -35 108 -56.5t140 -21.5q71 0 121 31.5t59 81.5q9 53 -28 85.5t-136 63.5q-115 33 -169.5 103.5t-34.5 175.5q22 129 125.5 198.5t248.5 69.5q66 0 115 -12l4 4q-48 71 -72 168.5t-10 183.5q22 122 114 194t228 72
q67 0 211.5 -7t202.5 -7l-182 -1022h6l418 408h202l-366 -355l219 -567h-211l-158 422l-153 -150l-47 -272h-193l252 1421q-5 0 -95 5.5t-134 5.5q-76 0 -123.5 -43t-59.5 -117q-31 -176 111 -406l-78 -133q-31 25 -89 42.5t-122 17.5q-71 0 -121 -31t-59 -78
q-8 -53 20 -79.5t95 -49.5q155 -46 214.5 -117.5t39.5 -185.5q-15 -84 -71.5 -145.5t-135.5 -91t-172 -29.5z" />
    <glyph glyph-name="uniF636" unicode="&#xf636;" horiz-adv-x="774" 
d="M375 924h-99q43 89 88 226.5t70 283.5h139q-25 -146 -82.5 -282.5t-115.5 -227.5zM684 940h-106q125 250 167 494h140q-25 -145 -81.5 -273t-119.5 -221z" />
    <glyph glyph-name="uniF637" unicode="&#xf637;" horiz-adv-x="468" 
d="M377 940h-98q113 226 159 494h140q-25 -145 -81.5 -273t-119.5 -221z" />
    <glyph glyph-name="uniF638" unicode="&#xf638;" horiz-adv-x="468" 
d="M438 940h-135q46 253 201 494h94q-117 -244 -160 -494z" />
    <glyph glyph-name="uniF639" unicode="&#xf639;" horiz-adv-x="468" 
d="M383 940h-94q114 227 162 494h135q-48 -264 -203 -494z" />
    <glyph glyph-name="uniF63A" unicode="&#xf63a;" horiz-adv-x="776" 
d="M727 940h-135q27 147 85 285t116 225h94q-43 -87 -89 -225t-71 -285zM283 940q46 255 200 494h103q-127 -253 -168 -494h-135z" />
    <glyph glyph-name="uniF63B" unicode="&#xf63b;" horiz-adv-x="774" 
d="M375 924h-99q43 89 88 226.5t70 283.5h139q-25 -146 -82.5 -282.5t-115.5 -227.5zM684 940h-106q125 250 167 494h140q-25 -145 -81.5 -273t-119.5 -221z" />
    <glyph glyph-name="uniF63C" unicode="&#xf63c;" horiz-adv-x="923" 
d="M225 643l8 37l418 405h103l-424 -421l-4 -17l252 -414h-95zM741 233l-258 410l9 37l417 405h103l-424 -421l-4 -17l252 -414h-95z" />
    <glyph glyph-name="uniF63D" unicode="&#xf63d;" horiz-adv-x="923" 
d="M522 233h-104l434 431l2 16l-256 405h90l262 -405l-8 -37zM264 233h-104l434 431l4 16l-258 405h90l262 -405l-8 -37z" />
    <glyph glyph-name="uniF63E" unicode="&#xf63e;" horiz-adv-x="665" 
d="M326 647l252 -414h-95l-258 410l8 37l418 405h103l-424 -421z" />
    <glyph glyph-name="uniF63F" unicode="&#xf63f;" horiz-adv-x="665" 
d="M594 664l4 16l-258 405h90l262 -405l-8 -37l-420 -410h-104z" />
    <glyph glyph-name="uniF640" unicode="&#xf640;" horiz-adv-x="485" 
d="M410 936q-55 0 -87.5 39.5t-23.5 93.5q9 57 53.5 95t104.5 38q54 0 85.5 -39t22.5 -94t-53.5 -94t-101.5 -39zM287 238q-54 0 -87 39.5t-24 93.5q11 57 55 95t103 38q54 0 85.5 -39t22.5 -94t-52.5 -94t-102.5 -39z" />
    <glyph glyph-name="uniF641" unicode="&#xf641;" horiz-adv-x="507" 
d="M391 1536h334l-10 -84h-203l-279 -1511h203l-10 -84h-334z" />
    <glyph glyph-name="uniF642" unicode="&#xf642;" horiz-adv-x="507" 
d="M313 1452l15 84h334l-297 -1679h-334l14 84h203l268 1511h-203z" />
    <glyph glyph-name="uniF643" unicode="&#xf643;" horiz-adv-x="493" 
d="M158 16l213 961h116l-129 -961h-200zM455 1198q-54 0 -86 39.5t-23 95.5q9 54 54 92.5t102 38.5q55 0 87 -39t23 -92q-9 -57 -53 -96t-104 -39z" />
    <glyph glyph-name="uniF644" unicode="&#xf644;" horiz-adv-x="772" 
d="M369 -18q-183 0 -278 94.5t-68 259.5q10 54 31.5 101.5t47 80.5t61.5 66.5t65 54.5t69 50t63 48q76 63 116.5 125t53.5 142h185q-10 -98 -56 -182t-157 -183q-23 -21 -73 -58.5t-85 -65.5t-69 -75t-44 -98q-21 -94 33 -145.5t146 -51.5q144 0 319 111l64 -143
q-104 -63 -200.5 -97t-223.5 -34zM643 1186q-54 0 -88.5 39t-28.5 94t48 93t100 38q57 0 92 -38.5t29 -92.5q-6 -57 -48 -95t-104 -38z" />
    <glyph glyph-name="uniF645" unicode="&#xf645;" horiz-adv-x="759" 
d="M381 391q18 101 -26 162t-130 61l23 119q85 0 150 61t83 164l60 336q22 118 116.5 180t257.5 62l-16 -86q-196 0 -227 -182l-58 -326q-16 -97 -81 -171.5t-173 -96.5q99 -22 138 -97t20 -171l-49 -281q-32 -182 162 -182l-15 -86q-163 0 -235.5 61.5t-50.5 179.5z" />
    <glyph glyph-name="uniF646" unicode="&#xf646;" horiz-adv-x="751" 
d="M92 -143l12 77q204 0 236 183l51 289q16 97 81 171.5t173 96.5q-99 22 -138 97t-20 171l60 334q15 88 -28 135t-144 47l14 78q159 0 230 -66t51 -176l-60 -336q-18 -102 25.5 -163.5t128.5 -61.5l-21 -119q-86 0 -151 -61t-84 -162l-51 -293q-19 -110 -113 -175.5
t-252 -65.5z" />
    <glyph glyph-name="uniF647" unicode="&#xf647;" horiz-adv-x="761" 
d="M387 1819h197l116 -283h-131z" />
    <glyph glyph-name="uniF648" unicode="&#xf648;" horiz-adv-x="884" 
d="M897 1559q-51 0 -83 38t-26 89q6 54 47.5 91.5t92.5 37.5q50 0 82 -37.5t26 -91.5q-6 -51 -47 -89t-92 -38zM492 1559q-51 0 -83.5 38t-27.5 89q6 54 47 91.5t92 37.5t83 -37.5t26 -91.5q-6 -51 -47 -89t-90 -38z" />
    <glyph glyph-name="uniF649" unicode="&#xf649;" horiz-adv-x="978" 
d="M397 1593l13 90h741l-12 -90h-742z" />
    <glyph glyph-name="uniF64A" unicode="&#xf64a;" horiz-adv-x="761" 
d="M793 1819h204l-270 -283h-141z" />
    <glyph glyph-name="uniF64B" unicode="&#xf64b;" horiz-adv-x="524" 
d="M221 1536l262 268h156l180 -268h-145l-123 154h-8l-178 -154h-144z" />
    <glyph glyph-name="uniF64C" unicode="&#xf64c;" horiz-adv-x="524" 
d="M426 1536l-180 268h143l125 -151h8l176 151h146l-260 -268h-158z" />
    <glyph glyph-name="uniF64D" unicode="&#xf64d;" horiz-adv-x="1011" 
d="M743 1499q-41 0 -78 7.5t-73 27t-61.5 49t-39.5 77.5t-10 109h150q-4 -69 29 -108t96 -39t109.5 39t68.5 108h149q-17 -75 -54.5 -130.5t-86.5 -84.5t-98 -42t-101 -13z" />
    <glyph glyph-name="uniF64E" unicode="&#xf64e;" horiz-adv-x="485" 
d="M520 1559q-51 0 -82.5 38t-25.5 89q6 54 47 91.5t92 37.5q50 0 82 -37.5t26 -91.5q-6 -51 -47 -89t-92 -38z" />
    <glyph glyph-name="uniF64F" unicode="&#xf64f;" horiz-adv-x="620" 
d="M537 1466q-87 0 -143 60.5t-42 163.5q16 103 90 163t162 60t144 -60t40 -163q-16 -104 -89 -164t-162 -60zM465 1690q-9 -53 14.5 -87t69.5 -34q45 0 82.5 34.5t46.5 86.5q10 54 -13.5 88t-70.5 34q-46 0 -83 -35t-46 -87z" />
    <glyph glyph-name="uniF650" unicode="&#xf650;" horiz-adv-x="548" 
d="M274 -10q-108 0 -154 83.5t-20 225.5q24 137 100.5 222t184.5 85q106 0 150 -85t20 -222q-27 -143 -100.5 -226t-180.5 -83zM207 299q-19 -102 2.5 -157.5t81.5 -55.5q119 0 155 213q40 213 -79 213q-59 0 -100 -56t-60 -157z" />
    <glyph glyph-name="uniF651" unicode="&#xf651;" horiz-adv-x="387" 
d="M154 395l-29 74l194 119h72l-104 -588h-103l82 461h-4z" />
    <glyph glyph-name="uniF652" unicode="&#xf652;" horiz-adv-x="530" 
d="M66 0l14 84l235 207q1 1 11.5 10.5t13 11.5t12.5 11.5t14 14t12.5 14t12.5 15t10.5 15t9.5 17.5t6.5 17.5t4.5 18.5q6 37 -13 59.5t-57 22.5q-43 0 -76 -25t-69 -71l-66 47q101 141 236 141q80 0 121 -45t28 -121q-7 -42 -31.5 -82t-47.5 -63t-58 -53l-164 -148v-4h256
l-18 -94h-397z" />
    <glyph glyph-name="uniF653" unicode="&#xf653;" horiz-adv-x="528" 
d="M250 -8q-121 0 -184 63l59 78q59 -53 137 -53q53 0 88.5 24t42.5 70q9 46 -19.5 71t-86.5 25h-56l13 74h55q54 0 87.5 24.5t39.5 65.5q13 78 -78 78q-72 0 -149 -57l-29 73q98 74 201 74q82 0 125 -37t30 -116q-10 -51 -36 -80.5t-68 -49.5v-4q94 -43 74 -149
q-9 -49 -35 -84.5t-62 -54t-73 -27t-76 -8.5z" />
    <glyph glyph-name="uniF654" unicode="&#xf654;" horiz-adv-x="557" 
d="M362 102h-270l12 74l357 412h78l-64 -406h66l-15 -80h-65l-17 -106h-98zM199 182h178l39 260h-4z" />
    <glyph glyph-name="uniF655" unicode="&#xf655;" horiz-adv-x="524" 
d="M246 -16q-117 0 -201 75l57 80q26 -22 42 -33.5t44.5 -22.5t59.5 -11q64 0 106.5 34.5t51.5 92.5q19 116 -91 116q-63 0 -122 -39l-48 41l58 273h332l-15 -90h-256l-31 -135l5 -3q64 31 122 31q78 0 123.5 -45.5t28.5 -150.5q-12 -73 -56 -123t-97.5 -70t-112.5 -20z" />
    <glyph glyph-name="uniF656" unicode="&#xf656;" horiz-adv-x="534" 
d="M276 -8q-106 0 -155 73.5t-27 194.5q29 169 117.5 257.5t200.5 88.5q92 0 163 -57l-63 -74q-58 43 -113 43q-70 0 -120.5 -57t-63.5 -131h4q22 26 61 44.5t80 18.5q91 0 133.5 -54.5t26.5 -139.5q-14 -89 -79.5 -148t-164.5 -59zM201 203q-10 -61 17 -97t73 -36
q45 0 82.5 33t48.5 96q10 63 -15.5 94t-70.5 31q-48 0 -86.5 -31.5t-48.5 -89.5z" />
    <glyph glyph-name="uniF657" unicode="&#xf657;" horiz-adv-x="477" 
d="M106 -2q66 156 124 252t165 239v5h-274l16 94h385l-12 -78q-111 -151 -172 -254t-123 -258h-109z" />
    <glyph glyph-name="uniF658" unicode="&#xf658;" horiz-adv-x="538" 
d="M266 -10q-103 0 -153.5 47t-36.5 123q19 115 135 159l2 5q-65 40 -51 129q12 67 71.5 110t143.5 43t127 -43t31 -110q-14 -87 -93 -129l-2 -5q100 -42 78 -159q-14 -77 -81 -123.5t-171 -46.5zM184 166q-9 -50 15.5 -77.5t79.5 -27.5q114 0 133 105q9 55 -16.5 85
t-78.5 30q-52 0 -88 -30t-45 -85zM260 453q-8 -42 11.5 -68.5t60.5 -26.5q43 0 69.5 26t34.5 69q7 35 -11 60.5t-60 25.5t-70.5 -25.5t-34.5 -60.5z" />
    <glyph glyph-name="uniF659" unicode="&#xf659;" horiz-adv-x="534" 
d="M63 49l66 72q60 -43 111 -43q70 0 120.5 57t65.5 133h-4q-22 -25 -61.5 -44t-81.5 -19q-91 0 -132.5 54.5t-27.5 139.5q16 89 81 148t162 59q108 0 156.5 -73.5t26.5 -196.5q-29 -169 -117 -256.5t-201 -87.5q-99 0 -164 57zM219 399q-11 -63 14.5 -95t69.5 -32
q47 0 86 32.5t49 90.5q11 60 -16.5 95.5t-73.5 35.5q-45 0 -82 -32.5t-47 -94.5z" />
    <glyph glyph-name="uniF65A" unicode="&#xf65a;" horiz-adv-x="903" 
d="M530 1546h-110q24 94 81 153.5t148 59.5q45 0 79 -18t50.5 -39t40.5 -39t53 -18q45 0 74 30t41 72h111q-19 -93 -79.5 -155t-152.5 -62q-37 0 -66.5 11.5t-47.5 27.5t-34.5 32t-36.5 27.5t-44 11.5q-79 0 -107 -94z" />
    <glyph glyph-name="uniF65B" unicode="&#xf65b;" horiz-adv-x="1032" 
d="M745 1536l224 283h200l-276 -283h-148zM412 1536l209 283h198l-272 -283h-135z" />
    <glyph glyph-name="uniF65C" unicode="&#xf65c;" horiz-adv-x="487" 
d="M344 0h-197l162 922h197zM461 1194q-52 0 -84.5 38t-26.5 91q8 56 50 95.5t96 39.5q51 0 84 -40t26 -95q-6 -52 -49 -90.5t-96 -38.5z" />
    <glyph glyph-name="uniF660" unicode="&#xf660;" horiz-adv-x="548" 
d="M403 727q-109 0 -155 83t-21 226q25 137 101.5 222t183.5 85t151.5 -84.5t20.5 -222.5q-25 -143 -99.5 -226t-181.5 -83zM336 1036q-39 -213 78 -213q118 0 161 213q40 213 -73 213q-59 0 -102.5 -56t-63.5 -157z" />
    <glyph glyph-name="uniF661" unicode="&#xf661;" horiz-adv-x="387" 
d="M309 1153l-35 74l195 119h74l-105 -588h-104l88 461h-4z" />
    <glyph glyph-name="uniF662" unicode="&#xf662;" horiz-adv-x="530" 
d="M197 737l16 84l236 207q23 20 32.5 29.5t29 31t30 42.5t14.5 43q6 37 -13 59t-57 22q-43 0 -76 -25t-69 -71l-68 47q107 142 236 142q80 0 122 -45t29 -121q-7 -42 -32.5 -82.5t-48 -63t-58.5 -53.5l-164 -147v-5h254l-16 -94h-397z" />
    <glyph glyph-name="uniF663" unicode="&#xf663;" horiz-adv-x="528" 
d="M379 729q-122 0 -186 64l55 77q59 -53 137 -53q53 0 88.5 24t44.5 70q10 47 -17 72t-85 25h-58l11 73h57q54 0 87 24.5t42 65.5q13 78 -76 78q-72 0 -149 -57l-33 74q97 73 201 73q82 0 125.5 -37t29.5 -116q-8 -51 -34 -80t-68 -49l-2 -4q94 -42 76 -150
q-9 -49 -35 -84.5t-62.5 -54t-73 -27t-75.5 -8.5z" />
    <glyph glyph-name="uniF664" unicode="&#xf664;" horiz-adv-x="536" 
d="M209 840l12 73l365 412h78l-72 -405h65l-14 -80h-65l-21 -107h-96l18 107h-270zM315 920h179l47 260h-4l-222 -256v-4z" />
    <glyph glyph-name="uniF665" unicode="&#xf665;" horiz-adv-x="524" 
d="M369 721q-119 0 -199 76l59 80q24 -21 40 -33t44.5 -23.5t59.5 -11.5q64 0 106 34.5t53 92.5q19 117 -90 117q-62 0 -125 -39l-45 41l62 272h332l-17 -90h-256l-31 -135l5 -2q62 30 122 30q36 0 65 -9t54 -32t32 -60.5t-1 -94.5q-14 -73 -59 -123t-98.5 -70t-112.5 -20z
" />
    <glyph glyph-name="uniF666" unicode="&#xf666;" horiz-adv-x="534" 
d="M412 729q-108 0 -157.5 73.5t-27.5 194.5q31 169 118.5 257.5t199.5 88.5q93 0 164 -57l-64 -74q-58 43 -113 43q-70 0 -119.5 -56.5t-64.5 -131.5h4q22 26 61.5 44.5t82.5 18.5q91 0 132 -54.5t27 -139.5q-16 -89 -81 -148t-162 -59zM334 940q-10 -62 17.5 -97.5
t74.5 -35.5q44 0 81 33t48 96t-14.5 94t-69.5 31q-49 0 -88 -31.5t-49 -89.5z" />
    <glyph glyph-name="uniF667" unicode="&#xf667;" horiz-adv-x="477" 
d="M242 735q72 158 133.5 256t167.5 236l2 4h-275l17 94h385l-13 -78q-115 -150 -178.5 -253t-128.5 -259h-110z" />
    <glyph glyph-name="uniF668" unicode="&#xf668;" horiz-adv-x="538" 
d="M397 727q-104 0 -155 46.5t-39 123.5q19 116 135 160v4q-65 42 -51 129q11 67 69 110t142 43q85 0 128.5 -43t32.5 -110q-14 -87 -92 -129v-4q97 -41 80 -160q-14 -77 -80 -123.5t-170 -46.5zM311 903q-8 -50 17 -77t80 -27q115 0 131 104q9 55 -16.5 85t-78.5 30
q-52 0 -88 -30t-45 -85zM385 1190q-8 -42 11.5 -68t60.5 -26q43 0 69.5 25.5t34.5 68.5q5 35 -13.5 60.5t-60.5 25.5t-68.5 -25.5t-33.5 -60.5z" />
    <glyph glyph-name="uniF669" unicode="&#xf669;" horiz-adv-x="534" 
d="M195 786l63 72q2 -2 9 -6.5t10 -6.5t10 -6t11.5 -6.5t11.5 -5.5t13.5 -5t14 -3.5t16 -2.5t17.5 -1q70 0 120.5 58t63.5 133h-4q-22 -26 -61 -45t-80 -19q-92 0 -134 55t-26 140q14 88 79 147t163 59q108 0 157 -73.5t27 -196.5q-31 -169 -118.5 -256.5t-199.5 -87.5
q-98 0 -163 57zM348 1137q-11 -63 15 -95t71 -32q47 0 86 32.5t49 90.5q10 60 -17.5 95.5t-72.5 35.5t-82.5 -32.5t-48.5 -94.5z" />
    <glyph glyph-name="uniF66A" unicode="&#xf66a;" horiz-adv-x="815" 
d="M213 616l20 117h611l-21 -117h-610z" />
    <glyph glyph-name="uniF66B" unicode="&#xf66b;" horiz-adv-x="1173" 
d="M213 616l20 117h969l-20 -117h-969z" />
    <glyph glyph-name="uniF66C" unicode="&#xf66c;" horiz-adv-x="1808" 
d="M213 616l20 117h1602l-20 -117h-1602z" />
    <glyph glyph-name="uniF66D" unicode="&#xf66d;" horiz-adv-x="1189" 
d="M1257 1198l-20 -164l-772 -334v-10l635 -338l-19 -168l-835 457l14 115z" />
    <glyph glyph-name="uniF66E" unicode="&#xf66e;" horiz-adv-x="761" 
d="M147 0h-135l926 1434h135z" />
    <glyph glyph-name="uniF66F" unicode="&#xf66f;" horiz-adv-x="1189" 
d="M324 1036l30 162l838 -442l-21 -115l-997 -457l33 174l768 338l2 9z" />
    <glyph glyph-name="s_t" unicode="&#xfb06;" horiz-adv-x="1509" 
d="M96 70l80 139q41 -35 108 -56.5t140 -21.5q72 0 121 31.5t57 81.5q10 53 -26.5 85t-135.5 64q-115 34 -170 104t-37 175q24 129 127 198.5t250 69.5q66 0 107 -10l2 4q-108 146 -84 289q20 103 100 164t219 61q94 0 249 -56t204 -61l-74 -409h242l-25 -142h-235l-82 -458
q-20 -113 7 -156t85 -43q55 0 107 33l-21 -113q-23 -20 -81.5 -36.5t-100.5 -16.5q-247 0 -193 301l86 489h-110l20 113l127 29l55 311q-20 8 -74.5 36t-103 45t-94.5 17q-149 0 -174 -139q-13 -72 18 -149t103 -177l-78 -133q-31 25 -89 42.5t-122 17.5q-71 0 -121 -31
t-59 -78q-8 -53 20 -79.5t95 -49.5q155 -46 214 -117.5t39 -185.5q-15 -84 -71 -145.5t-135 -91t-172 -29.5q-99 0 -183 24.5t-131 59.5z" />
    </font>
</defs>
</svg>
